<?xml version="1.0" encoding="UTF-8"?>
<svg id="Layer_0_xA0_Image" xmlns="http://www.w3.org/2000/svg" version="1.1" viewBox="0 0 2732 2048">
  <!-- Generator: Adobe Illustrator 30.0.0, SVG Export Plug-In . SVG Version: 2.1.1 Build 123)  -->
  <defs>
    <style>
      .st0 {
        fill: #e95000;
        stroke: #000;
        stroke-miterlimit: 10;
        stroke-width: .25px;
      }
    </style>
  </defs>
  <path class="st0" d="M1032,2048c-3.84-15.56-.87-31.75-2.44-47.58l-51.36-36.71c5.35-15.38,10.87-31.89,17.63-46.86.82-1.83-1.24-3.59,3.18-2.89l65,47.03v85l-21.16-.08-4.84,2.08h-6Z"/>
  <path class="st0" d="M1430,2048c-3.12-3.71-.18-4.55,1.93-7,3.41-3.96,25.74-25.36,28.79-24.86l23.28,29.84-43.16-.06-4.84,2.08h-6Z"/>
  <path class="st0" d="M1065.85,1722.17c2.05,2.95-13.31,46.19-17.16,47.5-16.21,5.53-48.62-9.13-64.67-13.66,5.93,16.44,13.99,35.71,15.75,53.23,5.3,52.87-19.04,92.63-32.74,140.77-7.28,25.59-11.55,52.46-20.02,77.97-.98,2.96-2.33,13.55-5.96,12l-33.08-35.08c7.23-62.03,53.5-128.3,29.02-190.87-2.78-7.1-12.43-18.25-10.68-24.59l85.16-89.17c6.45-1.74,16.37,8.68,23.18,12.09,9.78,4.91,20.66,7.29,31.21,9.8Z"/>
  <path class="st0" d="M1786,2044h-49c-38.46-46.35-53.49-127.47-111.26-154.74-9.87-4.66-20.14-5.98-29.83-10.57l-1.65-125.42c1.25-3.67,21.04-6.01,26.26-7.74,9.38-3.12,25.61-17.77,31.24-10.28,2.49,3.31,18,38.76,17.21,40.83-14.69,18.79-34.45,26.49-54.94,36.93,19.22,8.66,40.97,19.13,56.9,33.06,27.49,24.03,44.6,69.43,60.02,101.98l55.04,95.96Z"/>
  <path class="st0" d="M2387.99,606.01l-3.85,51.13c-57,43.23-145.85,56.75-162.06,137.94l-127.87,2.7c-2.23-11.54-3.85-23.49-8.65-34.34-2.53-5.73-14.29-18.35-9.61-22.45,1.75-1.54,40.47-19.11,42.76-18.68,6.26,5.88,15.54,14.87,20.17,21.81,6.36,9.54,9.21,22.75,14.61,31.32,1.29,2.05-.12,3.49,4.49,2.56,2.53-14.32,13.41-32.93,21.96-45.06,28.33-40.19,81.61-56.66,123.39-78.61l84.65-48.33Z"/>
  <path class="st0" d="M1120,234.02c-14.67-3.92-30.88-12.83-43.46-21.56-41.88-29.06-55.05-79.43-78.2-121.8-13.58-24.84-35.94-53.67-46.77-79.23-1.06-2.5-2.11-4.58-1.56-7.42l49.98,3c39.46,51.43,51.99,129.69,117.46,156.54,5.02,2.06,18.85,3.34,20.26,7.74l3.95,123.39c-1.43,4.19-29.12,9.35-37.03,12.96-6.92,3.16-15.71,14.35-21.57,6.29-2.51-3.45-17.46-37.93-16.8-40.51,11.68-20.5,33.57-23.4,50.27-33.89,2.49-1.56,4.21-1.88,3.47-5.51Z"/>
  <path class="st0" d="M348,1395c44-38.89,121.96-52.68,151.61-106.39,6.54-11.84,8.18-22.89,13.7-34.7l126.42-3.63c3.1,10.69,4.56,21.83,8.75,32.25,2.37,5.9,13.76,21.36,11.27,25.25-1.3,2.03-41.63,18.68-44.3,17.94-12.92-3.56-30.81-43.77-36.45-55.67-17.34,49.33-46.7,74.86-91.66,98.3-13.63,7.11-28.2,11.82-41.43,18.57-28.9,14.73-63.17,42.55-92.01,53.99-2.06.82-3.53,1.56-5.9,1.1v-47Z"/>
  <path class="st0" d="M1684.33,280.34c1.74-1.08,22.51-.59,26.46-.12,13.4,1.59,24.94,10.21,35.71,12.34,2.73.54,2.66,2.42,5.46-1.56-25.23-43.75-19.49-86.86-4.95-132.99,4.38-13.9,11.22-26.9,15.56-40.44,11.49-35.81,16.31-74.37,30.43-109.53,6.59,9.01,32.17,27.18,33.16,36.91.65,6.36-1.78,14.7-3.15,21.06-11.29,52.43-43.5,105.55-27.99,159.97,3.61,12.67,9.62,21.08,14.66,32.74l-86.97,90.98c-10.44-4.17-18.8-11.85-29.34-16.06-5.28-2.11-24.33-5.77-25.28-8.85l16.25-44.46Z"/>
  <path class="st0" d="M622.28,707.72c-3.18-23.97,7.2-45.48,13.7-67.72-38.92,19.57-72.21,21.37-113.99,11.01-34.36-8.52-70.65-22.07-106.05-31.95-20.16-5.62-39.98-12.99-60.5-17.5l-3.43-4.54c8.73-5.96,23.15-24.65,30.88-29.13,7.91-4.57,22.64.55,31.55,2.67,52.15,12.41,105.99,43.21,160.02,24.89,5.68-1.93,24.34-13.88,27.62-12.43l89.66,86.39c.9,3.44-14.01,25.58-16.69,32.62-2.36,6.18-2.61,18.9-7.06,21.07s-37.77-14.42-45.7-15.39Z"/>
  <path class="st0" d="M2098.01,1407.99c29.13-11.08,57.09-19.13,88.78-15.78,33.27,3.51,67.49,21.52,99.21,30.79,30.72,8.97,63,14.53,93.58,24.48,2.63.86,5.3-.79,4.4,3.5l-37.01,33.03c-7.86-1.32-15.64-2.76-23.4-4.58-53.01-12.45-113.24-46.29-167.56-24.41-6.02,2.42-17.42,12.05-22.6,10.72l-91.11-87.02c2.41-7.94,8.8-13.19,12.66-20.74,3.39-6.61,8.34-27.97,10.01-29.98,1.8-2.17,3.23-2.19,5.84-2.01,1.95.13,34.2,12.11,36.64,13.56,6.8,4.05,5.21,17.66,4.51,25.43-1.39,15.24-9.14,28.82-13.96,43.02Z"/>
  <path class="st0" d="M1368,1336h-55c-6.09,0-5.76,20.76-4.96,24.96,1.16,6.08,14.37,16.59,13.82,19.77l-39.86,41.25c26.72,4.49,54.18.06,81.03,2.02,2.98.22,5.79-1.55,4.95,2.97l-65.93,60.22-90.05-3.22,55.99-56.99c-8.88-.19-18.3-2.4-27.01-2.97-6.35-.41-26.85,2.37-28.7-3.3-.07-8.06-1.27-17.38.19-25.25.95-5.11,20.72-50.18,23.82-54.19,1.54-1.99,21.62-20.62,23.13-21.01,7.26-1.89,13.02,10.24,21.7,11.62,6.86,1.09,21.69,1.56,26.88-2.89v-53h55c.35,0,5,4.65,5,5v55Z"/>
  <path class="st0" d="M1148,684l-63,57.96c-5.82-4.18-1.1-10.85-.91-16.87.8-25.45-2.14-51.19,3.77-76.23,21.63-15.86,39.07-39.73,60.13-55.87,2.01-1.54,2.54-3.88,6-2.98l-1.98,79.98c3.47.9,4-1.44,6-2.98,7.52-5.76,28.45-29.5,34.02-32.07,2.43-1.12,3.5-1.42,5.98-.05,1.31.72,17.47,20.39,18.97,23.12,3.87,7.07,16.67,38.58,18.13,45.87,2.32,11.57,1.35,26.43-1.41,37.84-20.41-.46-28.74,7.71-39.55,23.58l37.8,39.71c-10.31,8.93-19.55,21.54-29.94,30.03-8.26,6.75-11.05,12.12-21.02,4.96-4.2-3.02-33.07-32.47-33.07-34.98,6.75-12.43,29.32-24.21,36.17-35.89,2.05-3.48,2.76-5.62,1.55-9.68-.31-1.03-13.13-15.69-14.12-16.11-6.83-2.85-16.24-.7-23.53-1.32v-58Z"/>
  <path class="st0" d="M1084,1244h-58c-.87,3.49,1.44,4,2.99,6.01,13.14,17.16,36.05,32.69,49.7,50.22,1.32,1.69,6.98,8.29,5.3,9.76-30.16-4.73-61.21,1.47-91.1-5.88-16.1-20.27-42.68-40.26-57.9-60.1-1.54-2.01-3.88-2.54-2.98-6l81.99,1.97-37.97-42.98c7.35-5.95,14.41-16.98,22.56-21.41,18.41-10.02,53.82-21.64,74.41-19.58,21.1,2.11,8.67,12.08,15.26,24.74,3.12,5.98,14.59,11.07,19.02,17.11l41.45-35.71c2.58.45,36.18,34.77,36.93,37.29,1.21,4.06.49,6.21-1.55,9.68-5.76,9.81-27.62,24.5-35.37,34.74-4.79.84-31.05-32.04-37.62-35.96-7.3-4.36-21.16,5.69-24.07,12.15s.6,16.72-3.04,23.96Z"/>
  <path class="st0" d="M1375,626c-2.48-.29-6.33-2.47-8.99-2.99l62.88-59.12c31.14-5.63,63.45,2.62,95.11.13l-55.98,57.01c-.84,4.53,1.98,2.76,4.95,2.97,16.28,1.19,32.81-1.01,49.03,2v31c0,2.72-20.13,46.51-22.25,49.75-.93,1.42-21.48,20.14-23.11,21.05-8.63,4.8-14.51-10.18-23.78-11.75-7.84-1.33-16.59,3.62-24.87,1.94l-1.98,56.02-56.01-3.01c-.9-.54-4-5.43-4-6v-51h55c4.78,0,7.84-20.38,7.01-24.92-1.16-6.33-15.4-15.55-13.8-21.68,1.16-4.44,29.45-28.39,34.81-35.39,1.54-2.02,3.86-2.52,2.99-6.01-24.36-2.09-53.2,2.82-77,0Z"/>
  <path class="st0" d="M968,1024c-3.49.87-4-1.44-6.01-2.99-11.5-8.81-41.36-41.02-51.01-53-10.71-13.3-5.03-11.57-4.89-24.94.26-24.99-1.86-50.45,1.93-75.08l56.99,57.99,2.99-55.99h31c11.77,0,58.15,27.87,66.94,39.06,13.44,17.12-2.13,14.6-5.51,26.37-1.18,4.11-1.36,25.85,1.44,27.7,3.65-.45,11.05,2.87,13.13,2.87h41v53c0,.49-6.51,7-7,7h-53v-57c-5.18-3.89-18.46-6.22-24.94-4.97-7.47,1.44-12.83,15.55-19.66,13.76l-38.43-37.77c-3.14-1.64-4.97,10.38-4.97,10.98v73Z"/>
  <path class="st0" d="M1582,1378l-42.73,37.86c-2.81-.49-17.93-18.38-20.05-22.08-2.9-5.08-20.93-49.28-21.15-52.88-.52-8.34,4.01-22.84,2.2-32.61,6.49-4.07,15.53-.56,21.69-3.32,3.31-1.48,18.04-18.31,18.05-22l-35.88-39.69c8.91-7.41,30.81-35.84,41.02-37.3,3.58-.51,5.02.2,7.95,1.93,2.42,1.43,34.31,32.93,34.74,35.37-4.69,9.71-40.88,34.21-39.96,43.62.13,1.33,13.14,17.49,14.12,18.09,5.47,3.34,19.94-1.69,23.12,2.88l2.89,58.13,63.97-57.99-3.49,89.49-66.5,62.5v-82Z"/>
  <path class="st0" d="M1678,1024v55c0,6.23,22.58,5.79,26.95,4.96,7.09-1.35,10.68-12.06,17.77-13.81,3.13.55,30.82,31.94,37.26,36.87,2.02,1.54,2.52,3.86,6.01,2.99v-77c0-.94,2.53-6.85,2.99-8.99l60.58,65.42-1.58,90.56c-3.47.9-4-1.44-6-2.98-18.33-14.06-32.67-38.17-51.01-53-4.53-.84-2.76,1.98-2.97,4.95-1.24,16.94,1.13,34.16-1.99,51.04-9.32-.45-18.86,1.04-28.12-.89-6.58-1.38-44.49-17.62-50.6-21.4-4.28-2.65-24.45-23.25-25.03-27.09,1.58-6.69,12.56-13.7,13.71-19.68,1.25-6.47-1.38-21.67-4.97-26.95h-53l2.05-52.95c-.15-2.1,3.88-7.05,4.95-7.05h53Z"/>
  <path class="st0" d="M1802,810h-80l35.86,42.73c-6.35,6.18-12.88,15.15-20.44,19.69-5.4,3.25-49.96,21.15-54.36,21.24-8.64.18-21.74-2.78-31.17-2.55-4.09-2.87-2.74-18.24-4.9-23.1-.71-1.59-18.53-16.09-19.98-16.09l-42.96,36.06c-2.36-11.04-33.76-31.68-35.77-39.4-2.34-9,32.7-36.23,38.73-44.55,2.69,0,31.59,33.83,37.91,38.08,2.02,1.36,2.88,2.41,5.67,1.65,2-.54,17.47-13.65,18.38-15.81,2.65-6.31.3-15.18,1.04-21.96h47c.6,0,12.62-1.83,10.98-4.97l-57.98-61.01,85.1,1.88c7.05.94,19.32,15.19,24.95,21.05,14.43,15.02,29.26,30.87,41.95,47.05Z"/>
  <path class="st0" d="M1146,870c23.57,4.87,28.72-8.04,45.03-19.51,13.74,13.1,19.17,23.79,40.98,19.5l2.01,58.01c17.94-14.3,34.44-34.76,51.95-49.03,3.3-2.69,7.62-6.74,12.03-6.97v76c6.54-1.24,25.27-25.47,29.97-22l20.15,50.97-24.74,20.7-31.14-11.91c-1.54-6.57.55-13.55.81-19.78.58-13.76-12.55,6.29-18.35,9.71-16.82,9.9-29.44-2.7-45.78-7.62l-.93-26.07-24.03,15.24-121.96-50.25v-37c3.49-.87,4,1.44,6.01,2.99,13.71,10.5,38.13,43.79,49.99,50.01,2.03,1.07,3.76,1.26,5.99,1-1.98-4.3,2.01-10.82,2.01-13v-41Z"/>
  <path class="st0" d="M1333,1126c-.75-.1-8.56-1.97-6.71-4.65l20.71-49.46,33.24,3.29,13.42,29.83c0,3.54-21.7,15.36-17.64,18.97,10.04-.37,29.03-1.07,36.1,7.43,1.26,1.52,13.9,29.62,13.58,31.29l-17.64,18.29c5.48,7.06,22.38-.6,26.98,4.98l50.7,124.57-23.72,24.47-4-2.02v-76l-4.97-2.99-38,35.51c-7.13-1.29-13.08-13.53-18.44-15.1-6.46-1.9-24.76,1.97-27.72-2.28-3.72-7.07,1.45-19.3.56-24.84-1.07-6.7-14.82-13.77-13.22-19.89,1.28-4.9,40.92-36.74,35.78-41.39l-81.98-2.02,51.99-57.99c-9.17-.87-20.11,1.2-29,0Z"/>
  <path class="st0" d="M1292,1094l-23.99-29.97c11.75-1.2,42.01-20.37,51.09-19.92,3.72.18,19.79,19.84,20.52,23.37,1.8,8.6-12.68,23.18-9.61,32.5-6.83.66-13.7-.43-20.48-.66-14.57-.48,6.55,14.23,9.32,18.82,10.33,17.11-4.57,28.93-6.84,45.85h-28c3.78,8.33,16.81,15.4,15.66,24.46l-47.66,121.54h-40c13.78-18.04,34.93-32.68,49.03-49.97,1.46-1.79,8.67-10.6,6.96-12.02l-54.12-2.88c-4.22-2.94-.03-16.83-2.91-23.09-2.03-4.41-18.93-19.62-18.93-21.04,2.8-5.75,16.93-13.27,18.92-17.04,2.91-5.53,2.89-17.53,3.03-23.97l56.01-2.01-56-63.98h78Z"/>
  <path class="st0" d="M1438,1100l-29.02,23.94-22.82-52.74,23.28-18.92,34.57,11.76-2,23.95c2.29,2.57,14.23-11.88,17.28-13.7,18.67-11.12,28.32,1.66,46.71,5.71v28c10.25-3.21,14.69-17.63,26.48-15.65l121.52,50.65v35c-3.13.55-4.63-.31-7.1-1.9-14.2-9.18-32-35.5-46.87-47.13-2.55-2-5.62-4.99-9.02-4.98l-3.01,56.03c-23.27-4.44-27.28,5.67-43.01,18.06-14.62-11.4-21.47-23.2-43-20.07v-56l-64,56v-78Z"/>
  <path class="st0" d="M1678,934h-77c-.58,0-6.56,2.24-4.96,4.95l35.67,38.4c.42,4.8-11.67,10.9-13.29,16.08-2.46,7.92-2,22.02-2.42,30.58-6.72,2.06-21.16-2.52-26.1-1.17-5.81,1.59-14.88,14.42-20.5,12.95l-39.38-37.79-1.92,77.1-3.1,6.86-52.03-51.94-4.73,15.23-.26,20.74-53.75-20.22,3.73-32.8,30.76-12.57,19.26,15.59c-5.36-34.78,10.38-40.1,38.81-49.83,2.04,2.3,16.34,21.1,19.19,17.83.02-6.66-.24-23.88,5.16-27.84l116.35-49.84c6.77-1.35,23.14,15.96,27.51,21.67,1.54,2.02,3.86,2.52,2.99,6.01Z"/>
  <path class="st0" d="M1276,714v75c0,.77,4.33,6.95,5,6.96l38.29-35.65c7.73-.18,12.58,11.53,18.14,13.26,7.26,2.26,20.66,1.94,28.58,2.42.87,8.73-1.68,19.81.88,28.12,1.79,5.81,13.63,12.81,12.96,16.62l-37.85,41.25,77.1,1.92,6.86,3.1-53.95,54.01,35.99,3-20.32,53.65-31.77-2.58-13.59-31.79c1.09-5.91,18.24-9.92,15.67-19.28-8.83.65-30.6.53-36.13-7.37-1.22-1.74-11.84-28.14-11.76-29.74l17.9-20.88-28.21-3.26-51.52-120.24c-.69-4.68,17.16-22.04,21.72-25.53,2.02-1.54,2.52-3.86,6.01-2.99Z"/>
  <path class="st0" d="M1522,738c.87,3.49-1.44,4-2.99,6.01-9.05,11.82-49.56,44.27-51.04,54.99-.57,4.09.32,2.63,2.98,3,7.55,1.07,48.03-.87,51.06,1.99-4.76,22.1,8.65,29.14,19.84,44.73-2.21,6-17.17,13.79-18.87,17.26-3.5,7.12,2.57,18.29-3.98,24.02h-55l56,64h-76c-.86,3.48,1.42,4,2.98,6.02,4.95,6.4,14.89,14.75,19.03,20.98,1.34,2.02,3.24,1.57-.02,3.99l-50.7,20.69-20.92-26.34,11.65-31.35c4.16,2.01,26.05,4.09,25.95-.99-25.07-18.84-21.94-34.69-8-60.04l26.03-.98-15.7-24.49,49.71-123.5h38Z"/>
  <path class="st0" d="M1266,1020v-29c0-.47,2.53-9.13,2.98-8.98l52.98,22.11c-3.65,8.26.36,28.27-7.12,33.71-6.28,4.57-22.36,6.92-29.72,12.29-1.2-3.15-14.61-18.93-17.11-16.12,4.73,31.2-12.43,40.65-38.99,48.11l-19-18.11-4.9,28.12-120.5,51.55-28.62-27.67h75c1.12,0,4.46-2.96,7-2.02,4.3-4.71-32.59-35.64-35.86-41.26-.69-3.98,13.06-12.43,14.96-18.62,2.56-8.3,0-19.38.89-28.11h29c1.12,0,13.39-13.85,17.72-13.86,3.01.52,29.13,30.16,35.26,34.87,2.01,1.54,2.54,3.88,6,2.98l2.03-83.99,57.98,54Z"/>
  <path class="st0" d="M2010,1356l112,113.98-38.1-1.1-26.62,22.97-40.27-39.82c-2.91,1.9-2.77,3.84-3.1,6.86-2.62,23.86,1.9,52.57-2.89,77.09l-71.01-72.99v-83c3.13-.55,4.63.31,7.1,1.91,17.03,11.01,37.89,37.39,54.86,51.14,2.44,1.98,5.06,3.9,8.05,4.95v-82Z"/>
  <path class="st0" d="M1210,206v58l64-56v99l-61,60.96c-2.91-1.9-2.77-3.84-3.1-6.86-2.52-22.93.17-50.97-1.89-74.11-.28-3.14-1.59-5.93-2.04-8.98l-59.97,55.99,2-155.98c3.7-4.17,22.4,24.93,27.4,25.58l34.59,2.41Z"/>
  <path class="st0" d="M1812,309c.9,3.16,22.77,20.41,21.86,25.72-2.64,4.94-42.59,39.02-37.85,43.27l81.98,3-70.99,71.01h-82l-2.02-3.97,59.02-66.03h-82l112-112v39Z"/>
  <path class="st0" d="M649,1118c3.04,1.54,5.42,3.88,8.05,5.95,5.8,4.55,51.44,49.81,52.64,53.36.52,1.52.34,3.13.3,4.68l-89.99,4.03,58,59.96-158-2c6.71-8.17,14.38-15.73,21.96-23.11,2.33-2.28,6.04-2.53,6.04-2.87v-36h60l-56-64h97Z"/>
  <path class="st0" d="M2214,804c.87,3.49-1.44,4-2.99,6.01-5.31,6.93-15.21,15.45-22.58,20.4l-2.42,34.15c-.52,1.21-6.26,3.44-7.01,3.44h-51l55.96,61c-3.67,5.44-9.4.98-14.87.91-14.77-.19-80.61,2.56-88.19-1.8l-56.87-57.14c-.84-4.52,1.98-2.76,4.95-2.97,28.94-2.03,58-3.11,87.03-4.02l-57.98-59.01c-.51-6.12,2.17-.97,2.98-.97h153Z"/>
  <path class="st0" d="M794,670l-70-60v82l-110-112h39c2.67,0,18.93-23.54,25.6-21.79l41.38,39.79c2.24-25.98.13-53.19,2.02-79.03.22-2.98-1.55-5.79,2.97-4.95l69.03,70.98v85Z"/>
  <path class="st0" d="M1524,1784c-17.24,14.22-33.05,32.71-49.97,47.03-1.85,1.56-12.64,10.47-14.02,8.96l3.88-101.1c18.69-15.06,35.56-39.68,54.1-53.9,2.01-1.54,2.54-3.88,6-2.98l5,89.98,59.01-57.99v155l-4,2.02-25-27.02h-33c1.09-2.55-2-5.92-2-7v-53Z"/>
  <path class="st0" d="M1012,1598c1.67,1.45-5.49,10.21-6.97,12.03-16.02,19.66-37.29,37.68-53.03,57.97h84l-113.99,109.99,1.62-36.55-23.55-26.44,39.92-42.98c-25.32-2.1-51.85-.18-77.03-2.02-2.98-.22-5.79,1.55-4.95-2.97l68.98-69.03h85Z"/>
  <path class="st0" d="M886,587l68.98-65.02,3.04,84.02c10.3-3.65,32.75-33.84,39.41-35.72,10.26-2.89,21.04,19.72,23.57,19.72h37c.87,3.49-1.44,4-2.99,6.01-12.14,15.84-38.62,39.32-53.96,54.04-14.25,13.68-29.96,26.02-43.05,40.97l-4-2.02v-71c-3.13-.55-4.63.31-7.1,1.9-15.5,10.03-37.84,40.05-54.89,53.11-2.02,1.54-2.52,3.86-6.01,2.99v-89Z"/>
  <path class="st0" d="M1892,971l4-2.02,53.99,49.01c2.35-26.64.07-54.53,2.01-81.02.22-2.98-1.55-5.79,2.97-4.95l61.99,62.02-.97,93.95-63.97-55.99-2.02,56h-31c-2.44,0-20.45,24.37-27,24v-141Z"/>
  <path class="st0" d="M1312,500c-.55-3.13.31-4.63,1.9-7.1,8.86-13.71,34.07-30.51,45.11-44.89,1.54-2.01,3.88-2.54,2.98-6-25.5-2.8-56.36.81-81.09-1.91-3.02-.33-4.96-.19-6.86-3.1l64-61.96,91.95.97-1.9,7.09-54.09,56.88,56,2.02v31l26,27h-144Z"/>
  <path class="st0" d="M1034,1438h-71l-2.02,4c14.32,18.35,35.78,34.46,50.05,51.97,2.69,3.3,6.74,7.62,6.97,12.03h-89c-15.32-18.48-34.19-34.11-50.03-51.97-1.61-1.82-14.42-16.78-12.96-18.02l81.98-2.02c.9-3.47-1.44-4-2.98-6-4.22-5.49-32.36-32.35-32.87-35.26l21.86-23.73v-37l98.1,98.9,1.9,7.1Z"/>
  <path class="st0" d="M1304,1575c-.81-2.85-27.39-23.97-23.99-26.99l143.99,2.01c3.41,2.53-45.48,46.84-48.09,50.88-1.59,2.45-2.47,3.98-1.9,7.09l86.01,3.03-63.43,62.57-92.59-1.61,56-63.98h-53l-3-3v-30Z"/>
  <path class="st0" d="M1807,544l62.99,67.01c.27.58-4.7,2.99-4.99,2.99h-72c-.38,0-5.91,2.14-6.99,2.99l37.95,40.01-21.96,22v37l-101.98-101.03c-.84-4.53,1.98-2.76,4.95-2.97,22.36-1.63,46.52-1.26,69.02-2.01l-57.99-65.99h91Z"/>
  <path class="st0" d="M784,965c1.9-6.14,24.95-.85,31.96-4.04,3.43-1.56,25.11-28.24,28.03-24.95l-2,143.98-57.98-49.98-3,87.98-61.12-60.88c-4.77-31.15-.72-63.6.12-95.1,3.47-.9,4,1.44,6,2.98,5.51,4.22,14.49,12.87,20.01,17.98,11.73,10.87,22.33,23.07,33.97,34.05l4-2.02v-50Z"/>
  <path class="st0" d="M1676,1458l101.03-99.98c4.53-.84,2.75,1.98,2.97,4.95,1.67,22.74,1.68,46.21,2.01,69.02l65.99-57.99v89l-65.03,62.99-4.97-2.99v-72c0-.38-2.14-5.91-2.99-6.99l-40.01,36.06c-5.01,0-21.99-22.07-24-22.07h-35Z"/>
  <path class="st0" d="M1948,1244c-2.8-15.51,3.82-34.57,2.09-49.11-.26-2.22-.61-6.39-3.13-6.9-4.53-.92-56.32,41.04-58.95,38l1.99-99.03,3.03-2.99,59.01,57,63.97,3.03,3.03,67.97,58.95,61.07-4.63,4.67-85.36-33.71,21.99-31.97-57.99-2.02c-3.79,11.69,6.7,21.39-2.25,30.74-1.47,1.53-1.7,3.38-4.71,3.39-4.18.01-30.56-28.17-37.05-31.62l-1.98-6.49c3.76,1.71,9.2-2.01,11-2.01h31Z"/>
  <path class="st0" d="M1893,722l47.72-41.86,46.69,43.45,88.58,2.42-2.99,5.99-83.97,36.03c-2.44,0-3.18-23.18-3.6-26.46-.3-2.35-.55-11.16-4.4-9.55l-38.82,37.39c-2.18,8.35,12.09,11.47,14.74,14.64.96,1.14,5.68,15.41,5.04,15.94l-50.83,3.86-7.15-2.84,29.95-32.01-39-38.98c-3.6-.86-3.14,1.35-3.94,3.94-5.36,17.34-5.98,40.73-10.75,59.34-.7,2.74,1.28,5.57-3.24,4.68l-69.03-75.98h85Z"/>
  <path class="st0" d="M661,1324l-2.02-4,6.52-5.5,79.47-32.57c4.18-.21,2.64.03,3.05,3,.59,4.25.78,33.12,4.99,33.03l40.85-39.24c-7.03-13.15-22.29-10.88-19.86-30.71l55-2.02c2.89,2.26-1.57,7.07-3.03,8.98-3.4,4.47-24.44,22.23-23.82,25.76l38.86,39.23,16-69.92,71,75.96h-75c-1.26,0-12.49,2.95-14.12,3.88l-43.88,40.09-48-45.97h-86Z"/>
  <path class="st0" d="M1588,447c-1.55-5.03-21.32-2.64-26.98-3.02-4.68-.31-30.68-5.56-30.97,1.01l39.95,58.99c-32.14-2.07-67.26.34-99.03-1.98-2.98-.22-5.79,1.55-4.95-2.97l56.88-57.13,5.28-65.72,65.79-3.21,58.94-57.06,7.09-1.89-34.02,89.99-31.97-22v53c0,.5-3.83,3.14,1.3,4.68,11.95,3.59,24.64-7.28,32.69,7.29-10.15,7.88-23.32,30.99-32.9,37.12-2.47,1.58-3.95,2.47-7.09,1.91v-39Z"/>
  <path class="st0" d="M1670,1466v83l42.07,48-43.66,46.41-2.43,90.59-7.57-5.41-34.42-81.54c.87-4.42,27.7-4.38,33.05-5.04,2.11-.26,4.28.46,2.94-2.97-5.05-12.92-30.85-26.95-36.04-41-11.16-.79-13.57,15.16-15.9,17-1.61,1.28-15.34,3.7-16.03,2.97l-2.51-53.52c2.94-7.05,14.43,9.08,18.48,12.54,5.03,4.3,11.18,9.32,16.75,12.83,2.51-.44,35.09-33.59,36.27-35.86,1.06-2.03,1.24-3.77,1.01-5.99l-67.97-13.01,68.86-67.09,7.1-1.9Z"/>
  <path class="st0" d="M726,798h51c.79,0,2.96,2.76,4.98,2.01,6.18-8.55-2.33-17.74-1.71-22.51.41-3.15,6.62-14.06,10.46-13.36,10.23,12.17,26.86,21.55,36.28,33.84,1.54,2.02,3.86,2.52,2.99,6.01h-39c-.66,0-3.04,2.65-5,2v56l59.98-40-3,104.02-59.08-56.92-65.9-5.1v-61c0-7.06-33.98-37.38-41.03-44.97l-20.96-26.02,89.07,33.92c4.21,5.31-21.08,24.25-19.08,32.07Z"/>
  <path class="st0" d="M1068,316l6.97,2.03,34.98,83.07c.47,4.47-.43,2.16-2.88,2.94-10.42,3.32-22.61,1.12-33.05,4.95l37.3,40.84c12.15,1.79,11.35-11.94,14.67-14.85,1.55-1.37,15.71-5.51,17.09-3.07-.8,15.36,4.69,34.6,3.03,49.2-.34,3.01-.17,4.95-3.09,6.85-2.21-.05-26.29-29.07-33.6-27.75l-37.38,36.81c-1.58,3.8,3.68,3.41,5.97,3.95,21.04,4.98,43.09,6.47,64,12.01l-75.99,71.01v-73c0-1.32-2.93-12.38-3.89-14.11-4.35-7.81-39.39-40.92-39.62-43.86l45.51-50.03v-87Z"/>
  <path class="st0" d="M1204,1606c.75-3.26-.65-4.63-1.95-7.05-2.66-4.97-38.48-50.85-36.04-52.94,32.43-.41,64.7-.18,97.03,1.98,2.98.2,5.78-1.52,4.95,2.98l-56.95,57.06-4.91,65.09c-6.7,4.67-50.92-3.36-64.67,3.33-3.31,1.61-17.34,14.79-21.48,18.52-12.58,11.31-24.17,26.46-36.97,37.03-2.25,1.86-3.23,4.85-6.99,3.98l-.69-7.55,32.7-82.44,31.95,22,1.74-57.71c-7.54-6.83-18.52,2.34-22.22,1.44-1.16-.28-13.45-7.93-13.46-8.73l36.99-40.98,4.97,12.98v31h56Z"/>
  <path class="st0" d="M2280.8,1133.29c.21.53,2.9-.12,3.34,3.61.75,6.38-.18,55.02-2.16,57.09l-66.57-2.39-47.26-46.87,15.49-16.09,2.35-32.65c1.11-1.06,26.52-1.2,30.61-2.39,5.29-1.54,9.91-12.48,16.4-13.67,3,0,40.64,34.63,43.1,38.97,2.21,3.91,2.7,9.32,4.7,14.39Z"/>
  <path class="st0" d="M519,856l46.79,47.4c1.88,7.21-11.22,11.07-13.99,17.39-3.95,8.98,1.16,26.86-4.6,31.4-8.97,3.69-20.53.63-29.67,4.33-5.54,2.24-11.81,14.1-17.53,12.44-2.78-.81-40.32-36.63-42.11-39.84-2.92-5.26-.9-7.94-1.87-11.79-.56-2.22-4.02-1.12-4.02-1.33v-60h67Z"/>
  <path class="st0" d="M716,1600h-61c-.57,0-3.07-4.13-5.07-4.93-3.67-1.47-7.18-.73-11.04-2.96-3.33-1.92-36.28-36.73-36.75-39.38l46.86-46.73h66c6.22,0,.51,16.88,1.36,20.47,2.03,8.6,19.83,18.38,19.56,26.55-.24,7.03-15.55,16.99-17.44,24.46-.58,2.28-1.34,22.52-2.48,22.52Z"/>
  <path class="st0" d="M2018,450h63c.57,0,3.07,4.13,5.07,4.93,3.67,1.47,7.18.73,11.04,2.96,11.68,6.75,25.13,30.44,36.85,39.11l-46.85,45.11c-2.31,2.23-5.15,1.73-7.99,2.01-12.2,1.21-42.3,1.43-54.21-.02-3.4-.41-5.92-.83-7.87-3.99,6.83-21.92-9.13-27.79-18.69-43.43,9.64-17.38,24.97-23.1,19.66-46.67Z"/>
  <path class="st0" d="M1942,1676v63c0,.84-9.05,7.88-6.46,14.55l-40.57,36.57-46.97-47.12v-66c5.75-7.52,16.52.32,22.55-1.28,4.64-1.23,19.23-19.31,24.55-19.82,6.93-.67,18.09,15.91,24.29,17.71,2.22.64,22.61,1.1,22.61,2.39Z"/>
  <path class="st0" d="M886,373l-3.16,2.78c-21.1-8.82-28.38,9.08-43.84,18.29-4.66,0-18.1-16.78-23.03-19.04-6.5-2.97-15.3.72-22.09-1.91-2.05-1.43-1.71-3.88-1.97-6.03-1.33-10.97-1.18-39.03-.03-50.22.16-1.59,6.04-19.46,6.58-20.43.42-.75,4.75-2.39,6.6-4.34,11.06-11.6,22.68-22.67,33.94-34.07l47,46.96v68Z"/>
  <path class="st0" d="M1536,110v65l-50.79,48.91-14.62-15.51-31.73-4.27c-2.05-9.45.31-21.46-3.39-30.61-2.53-6.26-11.5-9.43-13.33-16.25.5-2.86,38.19-39.92,40.74-41.39,15.91-9.17,37.54-9.15,56.19-7.97,5.71.36,11.12,2.66,16.92,2.08Z"/>
  <path class="st0" d="M1198,1940l2.41-66.59c12.7-14.63,27.21-27.53,40.7-41.39,2.46-2.53,1.89-6.25,5.87-6.22,8.09.05,10.05,12.59,18.92,15.32,9.48,2.91,20.64-1.61,29.82,3.19,2.42,3.97,1.03,24.59,2.69,30.3,1.49,5.12,13.67,11.12,13.67,16.4.11,1.77-1.08,2.79-1.95,4.09-2.01,2.99-36.62,37.64-39.01,39.02-3.43,1.98-7.24,1.98-10.98,3.02-1.47.41-2.75,2.87-3.13,2.87h-59Z"/>
  <path class="st0" d="M1878,450c.91.91-.97,19.95.41,24.59,1.71,5.74,19.76,16.9,19.3,22.06-2.77,10.08-23.84,20.95-23.83,30.25,0,2.81,5.12,17.1-.88,17.1h-60c-.87,0-13.65-7.77-15-8.81-4.34-3.34-36.31-35.35-35.86-37.92,12.1-9.8,25.68-30.11,37.73-38.4,3.86-2.66,6.47-2.42,9.97-4.03,2.06-.94,4.79-4.85,5.15-4.85h63Z"/>
  <path class="st0" d="M1462,1676v57c0,1.01-7.25,17-7.9,18.1-1.38,2.35-35.7,36.83-38.14,37.96-8.72,4.03-17.23-15.07-18.96-15.07h-30c-7.06-8.62-.4-24.45-3.41-34.59-1.44-4.87-14.19-11.87-13.45-16.13,12.9-9.14,28.56-36.53,41.09-43.04,21.58-11.2,47.2-1.49,70.76-4.24Z"/>
  <path class="st0" d="M1942,1534c-1.12,1.12-20.24-1.56-25.96,1.04-4.03,1.83-19.12,20.93-21.04,20.93-14.39-13.6-24.75-28.78-47-23.96v-63c0-.44,4.8-4.18,5.82-6.36,1.5-3.18.5-5.09,2.99-8.63,8.47-12.07,29.02-22.92,38.19-35.97l39.07,40.89c-.65,5.04,7.93,13.24,7.93,14.07v61Z"/>
  <path class="st0" d="M886,516v65c0,.36-3.9,3.1-4.85,5.15-1.6,3.5-1.37,6.1-4.03,9.97-7.31,10.66-27.26,20.95-35.15,32.99-1.51,1.33-2.43.79-3.97,0-6.33-3.26-24.18-25.52-29.92-32.24-6.88-8.05-4.85-1.59-9.27-13.09-6.18-16.09-9.13-45.05-6.93-62.88.2-1.66-.05-3.57.97-5.03l2.41-1.59c7.37-1.66,17.96,1.74,24.68-1.32,5.19-2.36,13.24-15.56,19.31-18.82,3.61-.63,22.26,21.99,28.17,23.58,4.79,1.29,12.8-3.43,18.56-1.72Z"/>
  <path class="st0" d="M858,1600c-.91-.91.97-19.95-.41-24.59-3.29-11.07-26.96-14.58-15.57-30.41,10.17-14.14,23.4-14.69,17.98-39h63c.88,0,13.32,7.59,15.08,8.92,12.13,9.11,23.65,26.19,35.88,36.08-12.14,8.31-30.75,36.07-42.09,41.93-1.77.91-4.12-.36-5.89.35-2.1.84-3.08,3.97-7.01,4.71-2.54.48-17.83,2.01-19.97,2.01h-41Z"/>
  <path class="st0" d="M2018,930h59c.93,0,9.94,8.96,16.11,7.89l40.1,40.02c1.04,4.2-15.26,14.31-16.81,19.5-1.99,6.7,2.05,26.7-2.28,29.72-9.67,3.1-23.61-1.36-32.71,1.29-6.98,2.03-9.22,15.19-16.05,13.36-2.81-.75-39.79-37.8-41.47-40.67-.58-.99-5.9-15.25-5.9-16.1v-55Z"/>
  <path class="st0" d="M1370,276c-.05,19.43-1.53,37.1,15.96,49-13.26,8.85-28.47,36.19-40.84,43.12-4.53,2.54-7.59,1.25-11.65,2.35-2.37.65-4.19,3.53-4.47,3.53h-54l-2.18-4.08c3.95-17.29-1.21-38.14,1.02-55.05.48-3.69,3.68-2.54,4.09-4.26.78-3.25-.61-6.64,1.08-10.58,1.17-2.73,39.33-41.35,42.26-41.87,5.92-.17,14.88,17.85,17.72,17.85h31Z"/>
  <path class="st0" d="M618,1022c10.61-.45,26.56.66,36.57-2.43,6.39-1.97,8.08-11.76,14.3-13.5,2.9.65,40.14,38.77,42.06,42.01,12.6,21.21,2.2,48.37,5.06,71.92-17.35-5.49-39.25.63-56.87-2.11-18.74-2.91-35.43-25.87-49.07-38.93-3.88-3.71-10.35-3.9-7.08-10.95,1.43-3.08,15.04-13.49,15.04-15.01v-31Z"/>
  <path class="st0" d="M1276,562v55l3.31,2.69c22.05,4.11,45.8.24,67.44,2.56,3.37.36,16.38,1.6,15.25,6.72l-80,78.02-5.99,1c2.12-4.81-2.01-12.32-2.01-14.99v-66l-3-3h-56c-.65,0-7.21,7.45-10.97,6-.56-6.7-7.13-12.79-8.06-18.99-1.41-9.45,15.55,7.76,18.02,4.98l-1.12-56.11,6.11-2.06,57.01,4.17Z"/>
  <path class="st0" d="M1776,870h55c5.78,0,1.11,14.18,1.01,17.02-.55,15.75.84,31.4-2.01,46.98h-55l-2.69,3.31c.74,6.72-1.84,13.24-2.29,19.71-.43,6.1,1.81,63.24-5.02,62.94l-80.99-82.99,2.99-4.97h78l3-3v-56c0-2.02-8.14-8.4-6-12.98l21.02-8c3.5,6.76-7.14,11.38-7.02,17.98Z"/>
  <path class="st0" d="M1207.99,1310.01l-1.9,7.09-54.17,55.9,35.06,39.01,16.93,6.97-7.96,21.02c-4.81.64-3.17,0-4.19-2.76-1.51-4.08.1-13.43-4.75-13.22-11.81,8.64-24.59,28.6-35.92,36.08-1.93,1.27-3.43,2.44-5.95,2.05l-39.22-45.14c0-5.66,31.2-30.49,36.19-37.91,1.25-1.86,2.6-3.21,1.68-5.7l-51.89-56.29-1.91-9.09,118,2Z"/>
  <path class="st0" d="M1528,740l1.9-9.1,52.21-54c.52-2.54-.84-4.04-2-6.01s-29.87-32.55-31.99-34.01c-4.99-3.42-10.26-4.42-16.12-4.9l9.98-23.99,4.03,16.77,3.96,1.21c8.72-15.28,25.28-26.56,37.04-39.95l42.51,46.99c-.3,3.69-31.73,29.34-35.62,35.86-1.72,2.88-2.61,4.06-1.6,7.66,2.92,10.38,52.47,52.95,53.69,58.48l-2.99,4.97h-115Z"/>
  <path class="st0" d="M1081.99,863.99l-7.09-1.9-55.88-53.61c-2.81-.22-38.97,34.62-41.14,38.4-2.47,4.3-1.13,8.43-3.76,12.27-3.25,2.51-22.05-6.34-22.08-8.15l17.95-5.99-39.84-41.74,44.86-41.24c4.21.01,31.82,32.45,37.89,36.07,2.62,1.56,4.46,2.85,7.67,1.61l60.4-53.71c2.9,1.84,2.79,3.9,3.12,6.9,3.94,34.89-5.8,75.42-2.1,111.08Z"/>
  <path class="st0" d="M1522,1432v58l-62.13-2.87-3.75-58.25-81.9-3.07c-.33-1.95-2.05-4-1.26-5.84,2.52-5.91,27.88-25.85,34.08-31.91,16.18-15.82,31.75-32.27,47.97-48.05l4.97,2.99v78c0,1.5,4.86,4.53,7.05,4.95,6.6,1.26,47.32.84,52.86-1.04,2.55-.87,8.53-6.88,9.1-6.87l10.95,20.98c-.17,7.43-16.15-6.49-17.95-7.01Z"/>
  <path class="st0" d="M1652,1187l4.97-2.99,60.03,56.06c2.63,0,35.03-31.63,38.08-35.99,3.9-5.56,3.25-7.56,4.88-13.17.65-2.23-1.33-3.61,2.92-2.8l19.11,8.93-15.94,7.97,39.92,40-45.25,40.69c-8.64,1.68-37.31-39.58-45.31-37.48-3.19.84-39.66,38.01-46.45,43.74-4.61,3.89-11.08,10.32-16.95,10.05v-115Z"/>
  <path class="st0" d="M966,1175c.48,2.19,8.9,11.78,8,12.97l-23.99,7.05,7.98-17-54.12,1.12c-6.15-4.29,2.44-53.17.13-63.13h55c1.07,0,5.1-4.95,4.95-7.05l2.06-73.94,4.95-5,80.99,82.99c.08,1.93-15.38,5-16.96,5h-66l-3,3c2.3,15.38-3.1,39.91,0,54Z"/>
  <path class="st0" d="M1697,1740c17.57-2.03,23.44-15.38,37.73-23.86l43.02,45.11c2.19,2.93,2.03,6.24,2.35,9.65,2.38,25.88-.71,57.08-2.11,83.09l-67.01-67.98c-3.83-.66-2.47.45-3.41,2.49-1.32,2.84-8.08,38.09-11.54,35.49l-31.73-79.36,2.71-4.63c9.62-.79,20.61,1.09,30,0Z"/>
  <path class="st0" d="M2195.99,614.01l-67.98,69,36.02,9.96v4.06s-80.02,30.97-80.02,30.97c-3.64-3.79-.33-35.25-2.44-42.58-2.17-7.53-21.63-21.62-21.64-26.43l47.48-46.59,88.58,1.6Z"/>
  <path class="st0" d="M1664,246l35.99-19.99-34.02,81.98c-3,.81-3.31-.79-5-1.96-5.44-3.77-28.75-28.03-31.97-28.03h-30c-6,0-1.13-15.96-1.02-19.02.57-16.08-1.62-32.78,1.53-48.47l64.49-62.51v98Z"/>
  <path class="st0" d="M2114,1257c1.42-4.61,27.13-3.27,33.1-3.1,11.63.34,24.85,2.94,36.87,3.13l60.06,63.94-98.02-.96,19.99,34.99c.45,1.39-1.56,1.26-3,1.01-11.18-1.98-59.33-23.96-71.73-30.28-2.59-1.32-5.35-2.34-7.22-4.74,2.79-6.72,29.96-30.02,29.96-34.01v-30Z"/>
  <path class="st0" d="M1138.01,1771.99l-3.05,67.97c-17.49,15.56-33.26,36.11-50.94,51.06-1.8,1.52-12.69,10.5-14.02,8.96l1.98-95.98c-3.19-3.52-29.82,20.57-36.02,16.96l32.05-78.98c2.24-.27,3.94-.06,5.98,1,6.05,3.15,23.38,24.84,29.4,26.6l34.61,2.39Z"/>
  <path class="st0" d="M588,728l-17.98-36,79.98,34.03c3.43,4.57-24.65,27.32-26.92,34.05-3.04,9.01-.98,25.19-3.36,32.64-2.13,6.67-12.07,1.46-16.74,1.3-16.75-.59-34.11,1.64-50.47-1.52l-57.52-58.48-2.99-6.01h96Z"/>
  <path class="st0" d="M956,196l69.03,67.98c4.58.9,2.49-2.01,3.22-4.71,2.6-9.6,4.23-21.47,7.55-30.49,1.01-2.76-.72-3.41,4.18-2.79l30.05,80.97-42.14,3.92-26.89,21.18-45-45.08v-91Z"/>
  <path class="st0" d="M652,1322v31c0,1.6,3.19,13.69,4.24,15.76,2.64,5.21,20.33,17.88,19.62,21.96l-46.86,45.27h-91l67.98-69.03c.9-4.58-2.01-2.49-4.71-3.22-8.48-2.3-21.33-3.93-28.75-7.28-2.7-1.22-3.15-.2-2.52-4.45l82-30.03Z"/>
  <path class="st0" d="M447.98,1014c-.47.63-6.74-3.91-8.03-4.95-6.55-5.32-47.25-45.04-50.07-49.93-.61-1.07-7.21-15.63-7.48-16.52-2.25-7.26-1.2-56.97-.49-67.68.42-6.34,3-12.41,2.09-18.91,3.47-.9,4,1.44,6,2.98,6.4,4.9,58.37,56.36,59.58,60.42l-1.61,94.59Z"/>
  <path class="st0" d="M2352,1191l-4,2.02-62.11-61.91c-5.58-9.7-.04-31.06.19-42.03.31-14.48-1.72-32.4-.18-46.18.34-3,.23-5.05,3.13-6.9l55.08,52.88c-1.07,6.17,7.89,15.19,7.89,16.11v86Z"/>
  <path class="st0" d="M2012,1684v81c0,.64-4.23,3.21-5.08,5.11-1.42,3.16,1.1,5.92-.74,8.95-3.76,6.19-44.58,45.79-52.16,51.96-3.3,2.69-7.62,6.74-12.03,6.97v-91l59.96-58.04,10.04-4.96Z"/>
  <path class="st0" d="M2182,450h-93l-60.01-63.99-2.99-6.01h81c.64,0,3.6,4.95,6.47,5.72,3.39.91,6.21-1.96,9.6.1,4.14,2.51,51.21,51.98,55.95,58.18,1.54,2.02,3.86,2.52,2.99,6.01Z"/>
  <path class="st0" d="M1355.99,1944.01c.9,3.47-1.44,4-2.98,6-4.33,5.64-47.95,49.9-51.88,52.12-4.32,2.44-8.46,1.04-10.68,2.36-1.08.64-1.12,4.3-3.69,5.21-5.53,1.95-58.1.95-67.85.38-6.96-.4-13.72-3.27-20.92-2.1l65.41-65.57,92.58,1.6Z"/>
  <path class="st0" d="M792,303l-67.98,63c2.34-24.56-4.64-50.9-2.14-75.12.3-2.88,6.42-19.23,8.01-21.99,3.4-5.91,44.43-45.41,52.09-51.91,3.04-2.58,6.58-4.99,10.03-6.97v93Z"/>
  <path class="st0" d="M1536,40c.87,3.49-1.44,4-2.99,6.01-15.76,20.57-43.19,39.37-59.9,60.1-9.63,5.55-29.34.04-40.03-.19-15.13-.32-33.75,1.77-48.18.18-3.02-.33-4.96-.19-6.86-3.1l54.84-55.12c10.25.76,12.27-7.88,13.12-7.88h90Z"/>
  <path class="st0" d="M647,1600l58.01,61.99,2.98,6c-24.13-2.45-49.15,4.59-73.11,2.13-1.81-.19-22.37-7.09-24-8-3.39-1.9-49.52-50.4-53.89-56.11-1.54-2.02-3.86-2.52-2.99-6.01h93Z"/>
  <path class="st0" d="M1202,1778v85c0,.92-9.62,9.34-7.82,16l-57.21,56.99c-4.53.84-2.76-1.98-2.97-4.95-1.08-14.82,1.48-27.96,2.08-41.95.5-11.66-2.05-29.74-.04-40.04.89-4.58,4.9-6.03,6.46-9.6,1-2.29-.55-5.04.55-7.31,1.61-3.31,47.36-46.87,52.93-51.14,2.02-1.54,2.52-3.86,6.01-2.99Z"/>
  <path class="st0" d="M1780,1677l4-2.02,58.13,57.89c1.23,9.28,7.26,19.15,7.46,28.13.07,3.04-1.71,6.43-1.67,9.91.25,20.98.81,42.18-.9,63.07l-59.02-60.98c-1.14-3.3-7.99-17.01-7.99-18.01v-78Z"/>
  <path class="st0" d="M1600,112v77c0,10.66-7.86,19.88-9.89,30.11l-55.11,52.85c-2.91-1.9-2.77-3.84-3.1-6.86-1.32-11.96-.06-67.03,2.12-78.07.92-4.66,8.04-9.57,7.05-16.95l58.92-58.08Z"/>
  <path class="st0" d="M2207,1190c2.74.8,6.04,9.81,13.04,7.24l59.95,59.77c-16.14,3.5-33.21-.42-48.91-1.09-11.63-.5-29.79,2.05-40.04.04-5.18-1.02-5.76-5.06-8.99-6.73-1.36-.7-4.08.65-5.92-.3-3.62-1.85-48.89-47.37-53.14-52.92-1.54-2.02-3.86-2.52-2.99-6.01h87Z"/>
  <path class="st0" d="M2176,544c.91,3.88-1.41,3.85-3.37,5.63-12.89,11.76-48.29,50.26-59.51,56.48-5.27,2.92-7.94.9-11.79,1.87-2.22.56-1.12,4.02-1.33,4.02h-79l-2.99-4.97,58.87-57.14c3.38-3.18,8.14-1.07,11.72-1.95,1.58-.39,1.16-3.31,2.84-3.83,6.19-1.93,12.94-.1,17.56-.1h67Z"/>
  <path class="st0" d="M954,374c-3.49.87-4-1.44-6.01-2.99-6.31-4.84-51.25-49.07-54.09-53.91-.65-1.1-7.9-17.1-7.9-18.1v-83c3.49-.87,4,1.44,6.01,2.99,9.86,7.55,42.72,42.53,51,53,2.39,3.02,10.98,19.67,10.98,21.02v81Z"/>
  <path class="st0" d="M718,1438c.87,3.49-1.44,4-2.99,6.01-3.75,4.89-52.53,52.17-55.91,54.08-4.67,2.65-10.56,1.6-13.82,3.81-1.78,1.21-1.07,4.09-1.28,4.09h-86c-.73-3.36,1.07-4.05,3.04-5.96,10.73-10.45,50.67-51.06,59.84-56.15,5.27-2.92,7.94-.9,11.79-1.87,2.22-.56,1.12-4.02,1.33-4.02h84Z"/>
  <path class="st0" d="M529,792c3.28.28,15.41,1.75,17.6,2.4.79.23,13.67,6.98,14.47,7.53,4.39,3.03,50.21,48.82,51.92,52.08,1.06,2.02,1.26,3.77,1,5.99-17.74,1.55-35.42-1.17-52.91-2.07-18.39-.95-29.95,3.42-46.87-7.13l-58.22-58.78c23.69,1.46,49.58-1.97,73,0Z"/>
  <path class="st0" d="M1704,2v45l52.2,39.96-19.24,49.08-65.98-48.02-.65-80.69c2.87-8.53,26-4.42,33.67-5.33Z"/>
  <polygon class="st0" points="979.76 86.23 1000.01 135.99 922.89 148.1 916.89 146.11 860.49 86.97 881.21 64.09 914.9 95.17 979.76 86.23"/>
  <path class="st0" d="M389,688c5.68-1.59,29.44-42.17,36.96-49.05,1.51-1.39,2.47-3.08,4.93-2.86l47.16,18.98-46.46,66.37-82.32.27-3-3c1.41-4.94-4.22-30.72.72-30.72h42Z"/>
  <path class="st0" d="M1821.56,1954.46l-67.23,7.2-18.2-46.42c.87-2.62,2.76-2.6,4.98-3.13,8.98-2.15,68.51-11.24,73.48-9.71l59.48,58.61-21.04,23.12-31.47-29.66Z"/>
  <polygon class="st0" points="2388 1328 2389.78 1359.79 2343.98 1362.98 2304.74 1413.73 2256.05 1393.02 2302 1328 2388 1328"/>
  <path class="st0" d="M437.29,1527.28c-1.31,1.27-5.62,4.59-7.3,3.85l-21.85-20.4,29.58-34.18-7.39-63.23,46.53-21.21c2.39,1.06,2.62,2.67,3.08,4.96,2.15,10.84,11.54,69.28,9.65,75.53-17.99,17.47-34.39,37.25-52.29,54.69Z"/>
  <polygon class="st0" points="2305.82 637.83 2256.01 656.01 2243.99 579.03 2296.71 522.72 2304.73 518.22 2327.97 539 2296.83 572.9 2305.82 637.83"/>
  <path class="st0" d="M605.99,571.99l-115.63-110.97,41.61-44.1c4.14-1.87,22.11,17.14,24.11,22.08,0,6.56-32.34,29.11-33.16,37.91-.46,4.91,2.29,13.89,7.13,16.04,10.53,4.67,68.4-8.69,72.02-6.1l3.93,85.14Z"/>
  <path class="st0" d="M2388,866h-31c-9.55-13.33,6.2-49.25-11.51-56.47-5.18-2.11-7.62-2.5-12.59.37-9.61,5.56-30.79,40.35-41.23,50.76-1.32,1.32-1.64,4.1-4.53,3.27l-59.12-59.92c29.65-.43,59.4.51,89.07.07,20.7-.3,43.05-4.64,64.02-2.18,2.91.34,5.14.25,6.9,3.1v61Z"/>
  <path class="st0" d="M1208,4v34h-47c-7.14,0-11.84,16.09-8.01,22.02,6.3,6.56,53.71,39.88,52.86,44.7l-52.76,57.37-7.09,1.91V7l3-3h59Z"/>
  <path class="st0" d="M913.99,1786.01l-1.9,7.09-108,108.12-46.05-42.22,24.69-22.86c3.57.62,30.31,30.82,35.32,32.91,5.84,2.43,17-4.52,19.48-10.28l-7.54-70.78,84-1.98Z"/>
  <path class="st0" d="M2131.99,1562.01c-.43-26.23-3.92-52.74-1.99-79.04.22-2.98-1.55-5.79,2.97-4.95l110.76,110.61c-.5,3.24-34.14,38.47-38.64,41.49-2.02,1.36-2.91,2.4-5.69,1.67-3.28-.86-19.93-18.34-19.51-22.68.71-7.29,27.59-25.6,31.07-33.14,3.84-8.33-1.63-20.97-11.53-21.35-9.53-.37-65.01,9.77-67.43,7.4Z"/>
  <path class="st0" d="M1905.99,259.99c-26.87.5-54.08,3.98-81.02,2.01-2.98-.22-5.79,1.55-4.95-2.97l112.7-110.71,43.15,42.42-22.86,23.23c-2.4,0-29.83-30.52-35.03-32.92-6.81-3.13-16.13.39-18.91,6.99-4.51,10.69,6.89,57.37,6.94,71.95Z"/>
  <path class="st0" d="M380,1184c1.67,1.66.83,40.44,2.05,46.95,1.85,9.85,13.45,10.44,21.53,8.61l43.36-53.66,60.07,56.1-2.02,4h-157v-55c0-1.01-3.16-4.2-2-7h34Z"/>
  <path class="st0" d="M1526,2012l49.01-1.99c7.41-1.42,12.75-16.51,6.14-22.18l-53.12-42.84,56.99-60.98c4.53-.84,2.76,1.98,2.97,4.95,2.42,33.07,1.35,68.73,2.09,101.93.4,17.67-.5,35.45-.08,53.11l-59.5,1.61-4.51-2.62v-31Z"/>
  <path class="st0" d="M1750,1374c1.03,8.64-8,11.04-13.05,15.95-24.46,23.76-57.22,61.37-82.93,81.06-2.02,1.54-2.52,3.86-6.01,2.99v-71c0-.36,3.9-3.1,4.85-5.15,1.6-3.5,1.37-6.11,4.03-9.97,7.77-11.29,26.87-24.09,36.09-35.39,4.37-.36,19.21,21.52,22.04,21.52h35Z"/>
  <path class="st0" d="M1366,1486v31l23.02,25.04-2.19,3.86-138.84-3.91,53.07-52.02c8.2,5.36,8.18-3.96,9.93-3.96h55Z"/>
  <path class="st0" d="M873,1024l-23,23.02-3.9-2.18,4.92-138.86c3.32.08,12.22,10,15.03,12.97,5.19,5.48,33.43,34.25,34.86,37.14.8,1.62,4.93,14.82,5.19,16.81,1.01,7.51,1.18,39.11-.1,46.1-.41,2.24-1.02,3.74-3,5h-30Z"/>
  <path class="st0" d="M1368,531c-1.1-3.85-27.02-22.1-21.99-26.99l139.98,2c.9,3.47-1.44,4-2.98,6-3.66,4.77-40.68,42.32-43.89,44.1-5.26,2.92-7.94.9-11.79,1.87-2.22.56-1.12,4.02-1.33,4.02h-58v-31Z"/>
  <path class="st0" d="M1670.01,233.99l2.13-92.77-7.24-3.06c-1.1-1.52.5-32.64,1-37.26.33-3.02.2-4.96,3.1-6.86l64.73,49.22-30.76,72.71-32.96,18.02Z"/>
  <path class="st0" d="M1003.71,142.3l29.43,73.59-9.16,34.1-5-1.97-60.97-63.18c-2.51-1.1-3.98,4.26-7.97,2.31-6.08-2.98-21.63-26.18-28.02-32.18l81.69-12.68Z"/>
  <path class="st0" d="M1774.32,1863.76c2.35,1.34,6.21-1.72,8.83-1.62,3.88.15,31.6,31.45,28.85,33.85l-81.72,9.73-28.2-72.96,9.91-33.8,30.07,27.98c8.17,11.79,19.21,20.82,29.06,31.02,1.57,1.63,2.75,5.53,3.2,5.79Z"/>
  <path class="st0" d="M2237.98,580.01l11.11,80-72.28,29.95-34.81-7.97,1.91-7.08,63.24-58.9c.98-2.25-2.5-3.67-2.82-5.39-.51-2.69,15.46-17.75,18.73-20.56,2.12-1.82,13.27-11.25,14.93-10.04Z"/>
  <path class="st0" d="M575.99,721.99l-94.01-1.98,1.66,4.77c-.58,2.44-2.56,2.89-4.69,3.26-9.69,1.67-29.41-5.07-40.94-2.05-.79-3.25.66-4.63,1.94-7.04,5.08-9.51,32.28-45.41,40.11-53.87,1.64-1.77,4.88-6.17,6.89-6.39l72.93,30.43,16.11,32.87Z"/>
  <path class="st0" d="M2298,1324.02c-14.08,17.99-28.41,44.98-44.04,60.93-2.04,2.08-3.38,4.89-6.87,4.94l-71.83-30.15-17.27-30.7c5.45-6.48,13.88-1.19,20.92-.96,24.41.8,48.83-1.42,73.09,1.94l-.02-8.04,46.01,2.04Z"/>
  <path class="st0" d="M593.99,1368.02c1.82,2.49-6.84,10-8.94,12.03-17.98,17.31-37.21,33.64-55.26,50.91l-1.61,12.1-30.18,25.96c-3.24-2.52-13.74-77.13-11.07-81.11l72.54-29.53,34.52,9.64Z"/>
  <path class="st0" d="M1065.99,1816l-3.71,91.76c4.42.79,6.73.24,7.75,5.22.77,3.78-.99,41.1-3.06,41.05l-65.1-49.04,31.19-72.9c3.23-3.9,30.41-18.56,32.92-16.08Z"/>
  <path class="st0" d="M984,674l100.04-99.98c5.66,1.52,1.96,3.94,1.96,4.98v68c0,.36-3.9,3.1-4.85,5.15-1.6,3.5-1.37,6.11-4.03,9.97-2.24,3.25-32.2,33.05-34.53,33.66-6.67,1.76-22.93-21.79-25.6-21.79h-33Z"/>
  <path class="st0" d="M1861,1026c2.85-.81,23.97-27.39,26.99-23.99l-2,141.98c-3.47.9-4-1.44-6-2.98-4.47-3.43-42.15-42.54-44.1-45.9s-1.98-7.24-3.02-10.98c-.41-1.47-2.87-2.75-2.87-3.13v-55h31Z"/>
  <path class="st0" d="M1818,744h-71c-.83,0-4.6-5.6-6.96-6.75-1.53-.75-3.98.82-7.04-1.06-2.78-1.7-36.4-34.88-36.85-37.47l21.86-23.73v-33l100,102Z"/>
  <path class="st0" d="M1018,1405l-4,2.02-95.98-100.05c-.31-6.58,4.07-.97,4.98-.97h66c.58,0,3.1,4.13,5.13,4.94,2.21.89,4.44-.58,6.92.91,11.36,6.8,26.85,30.62,38.92,39.15l-21.96,22v32Z"/>
  <path class="st0" d="M956.01,515.99l-.99-134.01,61.08,62.91c4.6,6.62,1.05,11.66-3.06,17.15-7.51,10.04-40.91,43.21-51.03,50.97-2.01,1.54-2.54,3.88-6,2.98Z"/>
  <path class="st0" d="M2016,1094l21.05,15.95,76.95,78.03-92.79-4.19c-1.43-.9-5.21-5.7-5.21-6.79v-83Z"/>
  <path class="st0" d="M860,1435.98l-136,2c16.99-17.06,35.68-37.64,53.97-53.01,6.43-5.41,15.15-15.13,23.14-9.07l58.88,60.08Z"/>
  <path class="st0" d="M1436,376l93-97.96c6.42,5.42,1.15,13.85.92,20.88-.51,15.21,1.01,30.92.06,46.06-.3,4.85-1.45,20.4-2.38,23.62-.49,1.67-6.02,7.4-6.6,7.4h-85Z"/>
  <path class="st0" d="M1780,1668l-60.1-62.89c-3.15-4.98-3.32-12.8.99-17.23l55.12-54.9,4,2.02v133Z"/>
  <path class="st0" d="M1274,110l94.02-2.98c-.12,3.57-2.92,6.38-4.98,9.02-9.33,11.91-71.36,75.22-81.94,82.06-2.47,1.6-3.97,2.45-7.1,1.9v-90Z"/>
  <path class="st0" d="M722,376v130l-7.1-1.9-58.97-61.1c0-2.27,26.05-29.86,30.02-34.05,8.09-8.56,21.26-23.24,30.04-29.96,2.02-1.54,2.52-3.86,6.01-2.99Z"/>
  <path class="st0" d="M850,1670l-1.9,7.1-61.37,58.76c-3.55.61-47.39-41.69-53.78-47.81-5.11-4.89-13.17-11.36-14.95-18.05h132Z"/>
  <path class="st0" d="M622.01,860.01c14,3.85,86.42-.62,93.04,5.94,2.04,2.02,2.71,6.16,2.99,9.01l.98,79.05c-2.54,3.48-2.88.7-5.01-1.02-22.66-18.22-71.87-64.62-89.02-86.98-1.54-2.01-3.88-2.54-2.98-6Z"/>
  <path class="st0" d="M2010,612c-16.23,16.55-34.32,36.25-51.97,51.03-7.25,6.07-15.6,15.43-25.14,9.07-15.31-15.34-30.35-30.99-45.83-46.15-4.64-4.55-12.38-6.02-11.05-13.95h134Z"/>
  <path class="st0" d="M1204.01,1769.99l1.89-85.09c.4-6.49,4.68-10.19,11-11,25.24-3.24,53.58,3.24,79.12-.93v6.06s-92.01,90.96-92.01,90.96Z"/>
  <polygon class="st0" points="1460 1848 1460 1940 1365.98 1940.98 1460 1848"/>
  <polygon class="st0" points="455 1118 451.9 1111.1 450.02 1022 543.02 1114 541 1118 455 1118"/>
  <polygon class="st0" points="2014 1542 2079.64 1607.02 2014 1674 2014 1542"/>
  <polygon class="st0" points="2018 378 1886 378 1887.91 370.9 1949 312.03 2018 378"/>
  <path class="st0" d="M2282,932l2.98,94.02-92.02-89.99c-2.13-9.15,4.75-4.03,6.04-4.03h83Z"/>
  <path class="st0" d="M1602,46l-59.99-6.01c-.9-3.47,1.44-4,2.98-6,2.48-3.23,27.16-28.13,29.04-28.96,2.82-1.25,25.92-3.68,28.7-2.75l3,3.01,2.49,34.5c1.94,1.65,44.09,1.36,50.88,2.13,3,.34,5.05.22,6.9,3.12l-50.94,53.02-13.05,7.95v-60Z"/>
  <path class="st0" d="M1942,1844v51c0,1.43-18.77,19.07-21,19.07-7.86-1.82-20.51-23.75-27.61-21.86-6.24,1.66-31.02,28.46-38.3,33.89l-7.1,1.91v-88c3.49-.87,4,1.44,6.01,2.99,6.68,5.12,36.1,38.33,39.26,38.87l48.72-37.86Z"/>
  <path class="st0" d="M1132,2004c18.26,1.52,36.88,1.95,55.1,3.9,3.04.33,4.96.18,6.86,3.1l-34.96,35h-29l-1.99-36.01c-18.17-2.38-36.89-1.66-55.05-3.99-2.83-.36-3.4,1.07-2.99-3.03l62.03-60.98v62Z"/>
  <path class="st0" d="M885.98,210l-44.98-43.97-46.99,37.96-.58-49.38,19.54-20.12,27.76,23.37,44.24-37.85c2.9,1.85,2.79,3.9,3.13,6.9,2.98,26.33-4.99,56.21-2.11,83.09Z"/>
  <polygon class="st0" points="1436 274 1372 274 1369.9 214.9 1373 208 1433 208 1436 211 1436 274"/>
  <path class="st0" d="M450,790h-62l-4.01,59.99c-3.47.9-4-1.44-6-2.98-3.59-2.76-31.99-29.75-31.99-32.01v-29h29c.57,0,6.79-2.3,7.08-3.31,1.6-17.2,2.53-34.47,3.94-51.7.24-2.95-1.63-5.81,2.95-4.98l61.03,63.98Z"/>
  <path class="st0" d="M615,956c2.87,1.76,2.74,3.99,3.09,6.89,2.02,16.73-5.21,39.27-2.09,57.12l-61.01,2-4.72-3.28,1.72-62.72h63Z"/>
  <polygon class="st0" points="837.27 400.14 883.86 445.27 839 489.86 793.93 445 837.27 400.14"/>
  <polygon class="st0" points="2184 544 2185.91 536.91 2225.51 499.03 2188 450 2237 450 2257.96 471 2234.36 496.98 2271.02 540 2269 544 2184 544"/>
  <path class="st0" d="M1895.38,1560.26c3.72-.55,40.88,37.24,46.48,43.01l-44.86,44.8-46.96-45.07,45.34-42.74Z"/>
  <path class="st0" d="M1947.28,450.15l44.58,46.58c-.5,2.86-37.98,39.74-40.75,41.38-1.96,1.16-3.46,2.51-6,2l-42.96-44.83,45.13-45.13Z"/>
  <path class="st0" d="M776,1182l4.01-57.99c1.2-1.48,16.22,11.37,18.02,12.96,5.22,4.63,39.92,38.89,39.99,42.01l-55.15,4.89c-1.8,2.59-2.29,45.62-2.87,53.16-.23,2.98,1.55,5.79-3.02,5l-62-56.03,2.02-4h59Z"/>
  <path class="st0" d="M2352,1264l-2.01,52.99-5.01,5.1-60.98-62.09h62l6.99-61.99c5.17,7.79,32.72,28.82,34.61,35.39.71,2.48,2.8,23.57,2.18,25.32-.71,2.01-7.38,5.28-8.77,5.28h-29Z"/>
  <polygon class="st0" points="787.4 1508.22 793.13 1509.86 832.07 1553 787 1598.07 743.93 1553 787.4 1508.22"/>
  <path class="st0" d="M551.99,1506.01c.91,3.47-1.45,3.99-2.98,6-5.58,7.3-39.08,32.12-39.08,38.99l38.07,46.98-49.95,1.08-19.91-21.78,21.59-25.9-35.72-44.34c1.85-2.9,3.9-2.78,6.9-3.12,25.62-2.91,54.88,5.05,81.08,2.1Z"/>
  <path class="st0" d="M2020,866h-49c-1.69,0-7.28,3.15-10.65,2.33l-7.32,57.65-57.02-55.96c18.84-4.64,41.12,1.02,58-7.02v-54l4.07-2.13c1.74.91,3.33,2.01,4.92,3.14,11.43,8.15,43.92,38.95,54.07,49.92,1.83,1.98,3.64,2.82,2.94,6.06Z"/>
  <path class="st0" d="M1632,542l36.07-43c0-1.56-14.47-18.17-17.04-21.03-3.36-3.73-25.04-22.05-21.02-25.96l85.98-2c.9,3.47-1.44,4-2.98,6-5.42,7.06-37.08,34.09-37.08,38.99l35.2,42.93-2.13,4.07h-77Z"/>
  <path class="st0" d="M1101.99,1506.01c3.86,3.39-33.97,39.24-35.85,44.71.62,3.55,32.1,33.04,36.87,39.26,1.54,2.01,3.88,2.53,2.98,6l-87.98,4c-.9-3.47,1.44-4,2.98-6,5.14-6.7,38.31-36.07,38.87-39.26l-33.95-39.63-1.89-7.09,77.98-2Z"/>
  <path class="st0" d="M1210,372v60c3.04.49,5.85,1.71,8.97,2.01,12.86,1.25,32.11-.13,44.02,2,2.64.47,5.69,1.91,5,4.95l-55.98,55.02-1.94-54.62c-.4-1.32-4.52-3.37-5.07-3.37h-55c.74-7.17,9.76-16.19,14.97-22.03,9.75-10.92,28.44-32.88,39.01-40.98,2.02-1.54,2.52-3.86,6.01-2.99Z"/>
  <path class="st0" d="M1850,1290l43.01,35.34,43.99-39.3c4.95-.1,2.65,28.12,2.92,33.04,1,18.17,3.56,36.49,2.06,54.92l-44.98-41.97c-3.69,0-36.95,37.35-47,35.97v-78Z"/>
  <path class="st0" d="M883.99,680.01l2,79.98c-3.46.9-4-1.43-6-2.98-6.75-5.2-34.24-33.01-39.02-33.04-3.92-.02-22.97,21.54-28.02,25.97-1.77,1.55-15.72,13.53-16.94,12.04l-4-85.98c3.47-.9,4,1.44,6,2.98,6.85,5.25,34.42,36.03,39.26,36.88l46.72-35.85Z"/>
  <path class="st0" d="M881.53,1842.51c5.37,5.92,6.96,28.14,6.21,36.26-.9,9.73-15.85,70.2-19.59,78.39-.99,2.18-1.83,5.56-5.1,4.82l-32.68-31.41c-2.27-7.56,2.88-14.15,3.63-21.54.62-6.16-2.35-19.78-1.79-21.72.93-3.21,41.89-35.81,43.76-46.43,1.22-1.02,4.89.89,5.56,1.63Z"/>
  <polygon class="st0" points="2184 1028 2184 1092 2118 1092 2118 1031 2121 1028 2184 1028"/>
  <path class="st0" d="M2356,870v59c-1.26,1.98-2.76,2.59-5,3-12.89,2.36-48.25.24-62.02-2.03-2.83-.47-3.3,1.4-3.01-2.96l4.06-58.98,65.97,1.97Z"/>
  <path class="st0" d="M1521.99,1554.01l4.04,55.96,59.96,2.04-59,65.98-2.98-62c-12.37-1-26.88-.65-38.99-2.01-3.17-.36-19.1-2.32-18.98-4.98l55.95-54.99Z"/>
  <path class="st0" d="M1854.1,207.93c-14.27-25.95-4.14-44.18,1.75-69.08,3.38-14.28,5.79-35.55,11.68-48.32.93-2.02-.39-3.17,3.49-2.6,3.4.59,32.88,27.79,34.2,32.02,2.25,7.21-11.13,30.99-1.66,41.12-11.06,9.23-21.87,19.26-31.61,29.87-3.72,4.06-12.5,20.51-17.84,16.98Z"/>
  <path class="st0" d="M443.99,1254.01c.75,29.24-26.94,38.15-46.6,50.38-5.97,3.71-45.72,31.43-49.38,27.6,3.14-12.2-4.52-35.95-1.12-46.12,2.24-6.69,28.18-16.9,31.12-28.87,10.1-1.4,20.09,1.29,31.08,1.07s24.26-2.81,34.9-4.07Z"/>
  <polygon class="st0" points="1274 106 1212 102 1212 39 1215 36 1271 36 1274 39 1274 106"/>
  <path class="st0" d="M2357.59,791.57c-3.22,1.87-40.71.07-48.67.35-6.32.23-12.42,3.15-18.92,2.07-.63-6.79,3.04-13.01,6.36-18.63,9.93-16.85,50.51-38.05,69.03-48.97,6.57-3.88,13.57-7.42,20.6-10.38l1.64,48.62c-1.16,3.78-12.94,8.57-17.64,12.36-3.82,3.07-11.57,14.1-12.39,14.58Z"/>
  <path class="st0" d="M649.72,443.74c-.2.33-4.13,1.57-5.75,3.14-4.61,4.45-36.13,35.42-38.7,34.97-6.3-7.34-46.27-41.87-44.97-48.57l42.69-39.36c1.77-.12,2.79,1.09,4.09,1.95,3.81,2.53,38.49,37.22,41.01,41.01,1.35,2.03,3.04,4.43,1.63,6.85Z"/>
  <path class="st0" d="M1364,1776v63c-1.76,2.85-3.99,2.76-6.9,3.1-18.68,2.18-38.25-4.39-57.1-2.1v-66l64,2Z"/>
  <path class="st0" d="M1522.01,2014.01l-62.02-2,2-68.02c20.25-.03,41.57.96,61.13,3.88l-1.11,66.14Z"/>
  <path class="st0" d="M552,532.03c5.85,7.91-27.82,13.92-32.68,13.82-13.93-.31-66.6-15.06-82.14-20.03-2.46-.79-8.78-1.01-7.15-4.78l33.39-34.73c8.49.93,19.17,5.82,27.62,5.72,4.58-.05,9.74-3.59,12.01-3.35,3.28.34,37.75,43.92,48.96,43.36Z"/>
  <path class="st0" d="M2084.01,1606.04l44.99-40,46.97,48.96-44.69,40.86c-11.66-14.41-35.43-30.34-45.32-44.81-1.15-1.68-2.75-2.08-1.94-5.01Z"/>
  <path class="st0" d="M1135.68,34.3c-2.77,22.61-.89,45.21,2.31,67.69-30.69-1.98-39.13-29.11-52.38-50.6-3.5-5.67-28.91-42.17-25.6-45.38l46.61-1.63c10.11,9.32,13.64,26.03,29.07,29.91Z"/>
  <path class="st0" d="M1624.5,2043.49c-6.11-5.91-10.03-27.09-24.62-28.73-1.23-21.97,3.8-45.89-3.87-66.74,14.89-1.89,26.72,9.08,35.95,19.03l44,73.97c-.27,4.73-21.97,2.75-26.93,3.01-6.52.34-18.71,5.1-24.53-.53Z"/>
  <path class="st0" d="M1957,216.04c13.7,14.91,30.68,27.3,41.07,44.96l-47.07,46.97-40.86-46.69,46.86-45.24Z"/>
  <path class="st0" d="M783.27,1742.14c3-.53,40.78,41.37,40.8,44.85l-46.8,44.86c-5.94-6.48-42.11-38.5-41.06-44.57l47.06-45.14Z"/>
  <path class="st0" d="M448,1118l-2,62h-65c-2.87-1.75-2.74-3.99-3.09-6.89-1.93-15.72,5.25-38.14,2.09-55.11h68Z"/>
  <path class="st0" d="M2306,1526.02c-7.36,6.27-25.94,33.46-33.44,35.64-7.64,2.22-30.08-9.04-41.32-2.14-15.62-15.7-30.23-32.76-49.19-44.53,9.6-10.56,25.56-11.33,38.95-10.97l85,22Z"/>
  <path class="st0" d="M1893.99,808.01l-2,72c-7.73,2.34-5.87-5.94-11.36-7.64-6.51-2.01-19.68.29-27.59-.4-36.27-3.16-13.08-17.69-22.13-35.88-2.02-4.06-24.79-19.64-24.86-23.08,1.9-2.91,3.84-2.77,6.86-3.1,21.87-2.4,48.45,2.26,70.18,1.12,3.91-.21,6.92-3.22,10.91-3.02Z"/>
  <path class="st0" d="M1519,1550c-2.48-.29-6.33-2.47-8.99-2.99,15.01-9.71,8.72-22.98,10.03-37.97,2.83-32.4,17.43-12.58,33.93-20.07,7.25-3.29,17.59-21.89,27.02-24.98,1.91,21.58.91,43.43,1.13,65.11.08,8.26-2.96,12.26,1.89,20.91-20.59-1.76-44.89,2.39-65,0Z"/>
  <path class="st0" d="M1152.63,1540.61c-1.92,2.63-1.16,7.31-3.62,9.38l-50.03-53.99c2.47-4.4,8.32,1.17,12.94-.91,6.65-2.99,20.2-20.23,27.08-25.08,2.56-1.81,4.84-3.8,8.18-4.04,8.7-.47,17.46,17.77,24.27,19.72s25.59-5.4,34.58-.71c3.45,2.58.66,2.89-1.03,5.03-13.16,16.66-41.53,35.76-52.38,50.61Z"/>
  <path class="st0" d="M1528,564c-.87-3.49,1.44-4,2.99-6.01,12.85-16.78,38.35-33.31,50.43-48.54,2.46-3.1,1.4-6.92,3.61-9.47,3.39.05,16.73,14.55,20.01,17.99,7.06,7.41,24.26,24.11,29,31,1.16,1.69,2.79,1.97,1.96,5.02-21.23-7.23-36.2,35.14-53.96,26.96-3.5-1.61-15.43-16.95-17.03-16.95h-37Z"/>
  <path class="st0" d="M897.99,756.01c-6.11,16.76,7.77,20.99,17.04,31.96,2.31,2.74,10.78,12.72,11.03,15.1.57,13.09-17.53,15.27-19.73,26.41-1.59,8.07,4.32,24.78,1.66,34.51l-65.95-58.99c14.31-10.21,24.94-24.51,37.93-36.03,1.83-1.62,16.76-14.41,18.02-12.96Z"/>
  <path class="st0" d="M1154,507c-.22-1.59-4.55-8.57-4-8.98l74.02,3c-.09,4.01-4.99,5.82-6.86,9.14-7.43,13.19.96,34.92-5.04,44.96-5.27,8.83-15.76,3.3-22.82,3.59-15.51.64-21.68,20.68-35.3,25.28-2.41-23.86,3.25-53.93,0-77Z"/>
  <path class="st0" d="M842,1175c.17-1.3,2.43-3.55,2.05-5.68l3.91-1.3c4.63,18.49,43.34,4.09,52.09,12.94,5.07,5.13-.64,23.04,2.99,31.01,4.2,9.24,22.94,14.61,24.96,26.04h-79c-1.32,0-4.85,3.92-7,4,1.95-21.03-2.63-46.54,0-67Z"/>
  <path class="st0" d="M1828,1184c22.27,18.32,40.14,43.49,64.02,59.02l-54,50.98c4.99-23.04-23.16-29.66-29.14-49.84-.75-7.7,19.12-18.25,19.12-21.16v-39Z"/>
  <path class="st0" d="M1501.99,1547.99l-95.02-1.99-4.95-2.97c15.67-12.65,33.33-35.83,48.99-47.01,11.39-8.14,14.61,1.51,21.79,10.2,7.7,9.33,19.7,24.14,26.04,33.96,1.59,2.46,3.74,4.53,3.16,7.82Z"/>
  <path class="st0" d="M844.02,1160l1.98-97.03,2.97-4.95,51.1,56.98c0,6.72-47.72,39.39-56.05,45Z"/>
  <path class="st0" d="M1832,1298.02c-21.86,21.53-43.77,48.34-67.98,66.99-2.01,1.55-2.54,3.87-6,2.98l3.86-77.12c6.86-4.76,58.61,6.39,70.12,7.15Z"/>
  <path class="st0" d="M1712,633.98c-21.86-2.76-50.18.85-71.09-1.89-2.8-.37-5.16-.46-7.09-2.89-2.04-2.4-1.95-5.14-1.91-8.08.28-18.61,8.65-41.74,8.1-61.11l71.99,73.97Z"/>
  <path class="st0" d="M1334,504.02l-50.88,50.08c-3.97,3.07-9.85,3.06-13.18-1.05l-37.94-51.03,102,2Z"/>
  <path class="st0" d="M1093.98,1490l-69.98-73.98c25.76-.07,51.7-.88,77.13,3.85,4.83,6.95-6.78,58.47-7.15,70.12Z"/>
  <path class="st0" d="M973.71,757.7c-3.29,1.79-6.66,2.25-10.4,2.16-11.79-.27-33.59-4.08-46.03-6.14-3-.5-13.91-.49-13.26-4.7l71.96-69.03-2.27,77.7Z"/>
  <path class="st0" d="M1889.99,890.01c.45,31.78.22,63.36-1.99,95.02-.21,2.97,1.55,5.79-2.97,4.95l-47.13-50.88c-4.93-6.24.09-11.1,5.18-15.04l46.92-34.06Z"/>
  <path class="st0" d="M572,1670h47l44.79,45.4c1.25,4.77-16.87,21.51-20.79,26.55l-71-71.95Z"/>
  <path class="st0" d="M722,275c-.89,3.13-39.87,40.92-45.88,46.16l-26.09-20.16,68-73c.81-.52,3.96,2.66,3.96,3,0,9.53,1.91,37.28,0,44Z"/>
  <path class="st0" d="M1360,2010l2.01,34.01c-33.46-1.9-66.79,2.98-100,1l32.99-35.01h65Z"/>
  <path class="st0" d="M1472,4.02l-31.41,33.57c-13.19,1.13-26.47,0-39.67.33-8.69.22-19.05,5.79-27-1.24l-1.82-30.59,99.9-2.06Z"/>
  <path class="st0" d="M347.99,1020.01l-.97-100.03,31.87,28.13c6.98,8.63,1.86,54.74,2.23,68.02l-33.13,3.88Z"/>
  <path class="st0" d="M2388,1130l-33.63-31.37c-1.13-13.87.14-27.83-.29-41.71-.18-5.89-5.28-20.03-.12-23.96l30.79-3.08c.88.24,3.25,6.58,3.25,7.12v93Z"/>
  <path class="st0" d="M2164,378h-41c-.54,0-1.87,1.62-3.68,1.53l-49.18-46.8,22.58-24.58,71.28,69.85Z"/>
  <path class="st0" d="M2014,1781c0-.65-1.87-2.2-1.53-3.68.17-3.33,41.7-48.28,44.94-49.11,7.36-1.88,19.47,16.18,26.61,18.81l-70.03,72.97c.07-12.98-.1-26,0-39Z"/>
  <path class="st0" d="M2048,260h-41c-.72,0-3.21-2.1-4.73-2.29.48-12.43,2.61-25.34,4.75-37.73l40.98,40.02Z"/>
  <path class="st0" d="M1308,2c-4.53,5.83-27.34,30.02-32.99,30.07-4.8.04-22.12-23.92-23.01-30.07h56Z"/>
  <path class="st0" d="M2390,964c-3.24.71-4.08-1.11-6.06-2.94-2.74-2.54-20.69-21.83-22.03-23.95-1.34-2.12-2.07-3.49-2.12-6.13-.08-4,22.94-17.38,26.22-22.01l3.99,2.03v53Z"/>
  <path class="st0" d="M732.01,1789.99c1.28,1.28-1.98,31.95-3.52,35.55-.72,1.67-.53,3.7-3.45,2.44-2.21-.95-31.2-30.25-34.05-33.96-1.54-2.01-3.88-2.53-2.98-6l44,1.98Z"/>
  <path class="st0" d="M2132,1663l3.31-2.68,36.69,3.7c-11.11,10.95-21.19,23.93-31.95,35.03-2.28,2.35-4.3,5.55-8.05,4.95v-41Z"/>
  <path class="st0" d="M346.01,1139.99c2.44-15.32-2.59-34.87-1.77-49.17.18-3.16-.71-4.57,2.76-6.78l29.12,32.99c-.02,3.13-28.6,24.67-30.11,22.96Z"/>
  <path class="st0" d="M603.99,346.01l-3.85,43.13-36.13-3.15c-.9-3.47,1.44-4,2.98-6,4.68-6.11,24.32-26.9,30.09-31.9,2.52-2.18,3.37-2.63,6.91-2.07Z"/>
</svg>