<?xml version="1.0" encoding="UTF-8"?>
<svg id="Layer_0_xA0_Image" xmlns="http://www.w3.org/2000/svg" version="1.1" viewBox="0 0 2732 2048">
  <!-- Generator: Adobe Illustrator 30.2.1, SVG Export Plug-In . SVG Version: 2.1.1 Build 1)  -->
  <defs>
    <style>
      .st0 {
        fill: #7f669e;
      }
    </style>
  </defs>
  <path class="st0" d="M0,1322c2.86-2.12,6.08-3.91,8.54-6.42,113.46-115.96,226.85-231.98,340.26-348,2.1-2.14,4.04-4.51,6.45-6.24,1.4-1,3.99-1.74,5.28-1.08,1.23.63,2.2,3.3,2.01,4.92-.66,5.61-1.8,11.17-2.9,16.72-17.01,85.87-34.05,171.74-51.04,257.61-.64,3.26-.48,6.73-1.48,9.85-.96,3-2.5,6.08-4.57,8.42-3.28,3.7-7.39,6.66-10.87,10.2-77.1,78.37-154.15,156.77-231.22,235.17-2.34,2.38-4.61,4.82-7.08,7.05-5.48,4.95-9.14,5.1-14.78.12-10.23-9.05-20.18-18.42-30.42-27.44-2.34-2.06-5.43-3.28-8.17-4.88,0-52,0-104,0-156Z"/>
  <path class="st0" d="M2732,728c-45.92,46.87-91.87,93.71-137.76,140.62-69.69,71.24-139.33,142.52-208.99,213.79-1.16,1.19-2.28,2.44-3.52,3.54-2.15,1.91-4.48,5.42-7.39,2.73-1.62-1.5-1.94-5.44-1.45-8.01,5.9-30.74,12.07-61.43,18.14-92.14,12.09-61.09,24.53-122.12,35.88-183.34,1.72-9.26,6.6-14.33,12.42-20.21,35.67-35.97,71.12-72.17,106.63-108.3,42.76-43.5,85.5-87.01,128.26-130.51,2.34-2.38,4.62-4.81,7.08-7.06,5.7-5.22,9.69-5.36,15.64-.08,10.47,9.29,20.74,18.81,31.13,28.19,1.18,1.07,2.61,1.86,3.93,2.78v158Z"/>
  <path class="st0" d="M764,0c-3.34,20.35-6.77,40.68-9.99,61.05-7.9,49.96-15.68,99.94-23.57,149.9-.49,3.09-1.52,6.08-2.76,10.94-5.85-7.3-12.29-5.8-18.39-5.54-86.82,3.68-173.65,7.42-260.47,11.12-9.32.4-18.64.67-27.96.86-2.57.05-5.14-.36-9.11-.67,1.29-2.88,1.67-5.23,3.04-6.53,4.59-4.34,9.52-8.32,14.34-12.42,78.34-66.71,156.69-133.41,234.98-200.18,2.93-2.5,5.28-5.67,7.9-8.52,30.67,0,61.33,0,92,0Z"/>
  <path class="st0" d="M1972,2048c4.24-27.97,8.41-55.96,12.74-83.91,6.37-41.12,12.83-82.23,19.35-123.33.64-4.04,1.95-7.97,3.5-14.17,5.28,7.07,10.87,6.09,16.4,5.86,89.87-3.69,179.73-7.32,269.6-10.99,7.32-.3,14.64-1.02,21.95-1.03,2.24,0,4.48,1.74,6.72,2.68-1.02,1.94-1.63,4.3-3.14,5.73-4.35,4.12-9.05,7.86-13.62,11.75-78.12,66.53-156.25,133.04-234.32,199.62-2.67,2.28-4.81,5.18-7.2,7.8h-92Z"/>
  <path class="st0" d="M1106,0c-8.64,16.87-17.18,33.78-25.94,50.59-24.75,47.5-49.59,94.96-74.41,142.43-1.23,2.36-2.47,4.72-3.8,7.02-1.55,2.69-3.82,3.56-6.75,2.29-2.44-1.06-4.89-2.09-7.3-3.21-56.13-26.03-112.27-52.06-168.39-78.11-12.24-5.68-12.42-5.92-11.03-19.7,3.01-29.79,6.11-59.58,9.1-89.37.4-3.96.36-7.96.52-11.95,96,0,192,0,288,0Z"/>
  <path class="st0" d="M1630,2048c1.11-2.73,1.99-5.58,3.35-8.19,32.17-61.65,64.39-123.27,96.61-184.89,1.08-2.06,2.19-4.11,3.34-6.13,1.58-2.8,3.97-3.36,6.81-2.21,2.15.88,4.24,1.92,6.35,2.9,56.75,26.29,113.49,52.58,170.23,78.88,10.85,5.03,11.08,5.48,9.93,17.41-2.98,30.8-5.94,61.6-8.97,92.4-.32,3.3-1.09,6.55-1.65,9.82h-286Z"/>
  <path class="st0" d="M2124,0c.84,72.28,1.66,144.56,2.51,216.84.51,43.3,1.11,86.6,1.47,129.91.03,3.88,2.56,9.6-3.34,11.14-5,1.31-6.25-4.19-8.31-7.27-50.14-74.65-99.96-149.51-150.45-223.92-7.05-10.39-10.49-20.16-10.1-32.82.86-27.62-.06-55.29-.2-82.94-.02-3.65.27-7.3.41-10.95,56,0,112,0,168,0Z"/>
  <path class="st0" d="M610,2048c.2-2.97.6-5.94.57-8.91-1.19-112.19-2.44-224.37-3.6-336.56-.04-4.31-1.86-9.5,4.85-12.82,2.56,3.21,5.4,6.28,7.71,9.72,49.32,73.52,98.35,147.25,148.1,220.48,7.95,11.7,12.15,22.69,11.65,37.23-1.04,30.24.34,60.57.72,90.86h-170Z"/>
  <path class="st0" d="M1918,0c-.71,37.23-1.43,74.45-2.16,112.82-75.66,23.73-151.08,47.38-227.24,71.26-1.55-2.53-3.28-4.54-4.13-6.86-21.44-58.4-42.8-116.83-64.15-175.26-.22-.61-.21-1.31-.31-1.97,99.33,0,198.67,0,298,0Z"/>
  <path class="st0" d="M818,2048c.17-36.87.34-73.74.51-110.76,3.4-1.44,5.71-2.65,8.16-3.42,70.45-22.12,140.92-44.21,211.39-66.26,9.51-2.98,10.04-2.78,13.26,5.98,20.51,55.9,40.96,111.83,61.36,167.77.77,2.11.89,4.46,1.32,6.7h-296Z"/>
  <path class="st0" d="M1578,0c2.42,6.49,4.69,13.05,7.32,19.46,2.65,6.46,5.5,12.86,8.57,19.14,2.32,4.74,1.42,8.32-2.89,11.15-2.49,1.64-4.96,3.33-7.57,4.77-38.74,21.44-77.51,42.85-116.26,64.28-.85.47-1.56,1.2-3.42,2.66,20.29,30.21,40.58,60.43,60.76,90.49,10.13-4.38,19.46-8.41,29.44-12.72-1.15-2.94-1.91-5.37-3.02-7.63-7.78-15.83-15.69-31.61-23.46-47.45-4.55-9.28-4.22-10.54,4.44-16.19,19.81-12.91,39.66-25.75,59.55-38.53,2.64-1.7,5.62-2.88,8.05-4.11,17.67,44.52,34.92,87.98,52.64,132.62-4.94,2.76-9.31,5.58-13.99,7.77-35.27,16.53-70.62,32.88-105.87,49.44-5.27,2.47-10.17,5.72-16.45,9.3-1.43-1.86-3.57-4.21-5.22-6.86-36.32-58.19-72.61-116.4-108.86-174.64-5.53-8.88-5.13-10.41,4-15.35,50.08-27.08,100.2-54.09,150.27-81.19,3.46-1.87,6.64-4.26,9.95-6.41,4,0,8,0,12,0Z"/>
  <path class="st0" d="M1156,2048c-.7-3.14-.95-6.46-2.17-9.38-3.85-9.21-8.16-18.24-12.11-27.41-2.99-6.96-2.7-8.28,3.21-12.63,3.18-2.35,6.83-4.07,10.31-6,37.28-20.67,74.58-41.33,111.86-62.01,1.12-.62,2.09-1.5,4.22-3.06-20.29-30.22-40.42-60.22-60.74-90.48-9.97,4.32-19.46,8.44-29.83,12.94,2.06,4.41,3.64,7.97,5.37,11.46,7.23,14.63,14.57,29.2,21.73,43.86,4,8.2,3.57,10.24-3.6,14.94-20.9,13.68-41.9,27.23-62.9,40.75-1.84,1.19-4.05,1.82-5.84,2.6-17.57-44.3-34.91-88.02-52.62-132.66,4.98-2.75,9.14-5.36,13.55-7.43,36.18-16.96,72.44-33.77,108.6-50.77,4.38-2.06,8.36-4.96,13.85-8.28,1.64,2.09,4.24,4.86,6.22,8.02,26.32,42.08,52.55,84.21,78.8,126.33,9.69,15.55,19.41,31.07,29.05,46.65,5.77,9.33,5.33,11.08-4.17,16.21-49.23,26.59-98.49,53.12-147.72,79.72-3.78,2.04-7.39,4.4-11.08,6.61h-14Z"/>
  <path class="st0" d="M1420,0c2.8,3.21,5.56,6.45,8.41,9.62,2.17,2.42,5.84,4.89,3.06,8.22-1.32,1.58-5.42,1.71-8.02,1.22-20.86-3.94-41.69-8.09-62.48-12.38-9.7-2-19.32-4.44-28.97-6.69,29.33,0,58.67,0,88,0Z"/>
  <path class="st0" d="M1314,2048c-2.05-2.5-4.28-4.88-6.11-7.54-1.93-2.82-5.55-6.71-4.77-8.71,1.89-4.88,6.94-2.09,10.56-1.49,9.8,1.65,19.52,3.79,29.27,5.73,16.58,3.3,33.16,6.55,49.72,9.92,1.84.37,3.56,1.38,5.33,2.09h-84Z"/>
  <path class="st0" d="M2659.84,1777.19c-3.42.32-6.86.9-10.31.94-127.6,1.46-255.2,2.86-382.81,4.31-73.3.83-146.59,1.74-219.89,2.62-2,.02-4.09.44-5.97-.02-2.38-.58-4.58-1.86-6.86-2.84,1.18-2.14,2.05-4.55,3.63-6.32,1.51-1.68,3.77-2.7,5.71-4,73.61-49.32,147.36-98.44,220.7-148.17,10.82-7.34,20.97-10.88,34.43-10.92,111.95-.3,223.89-1.62,335.84-2.63,2.33-.02,4.68-.17,6.99.04,5.46.49,8.48,3.18,9.2,8.58.61,4.62.84,9.29,1.06,13.95,2.04,42.59,4,85.19,6.11,127.78.26,5.16,1.32,10.29,2.17,16.69Z"/>
  <path class="st0" d="M74.91,271.77c4.24-.41,8.68-1.16,13.12-1.21,75.65-.87,151.3-1.64,226.95-2.47,124.31-1.37,248.62-2.77,372.92-4.14,3-.03,6.06-.33,8.97.2,1.63.3,3.54,1.76,4.3,3.23.46.89-.65,3.23-1.71,4.16-2.49,2.18-5.36,3.94-8.12,5.8-73.91,49.52-147.97,98.82-221.58,148.79-10.4,7.06-20.24,10.05-32.82,10.09-110.98.36-221.96,1.46-332.94,2.34-2.67.02-5.33.12-8,.05-8.73-.25-11.35-2.66-11.85-11.19-.66-11.31-1.21-22.63-1.72-33.95-1.6-35.29-3.1-70.58-4.83-105.86-.24-4.81-1.59-9.57-2.68-15.83Z"/>
  <path class="st0" d="M2279.62,1572.68c-1.39-3.73-2.54-6.47-3.43-9.28-21.83-69.55-43.63-139.12-65.43-208.68-.6-1.91-1.06-3.86-1.7-5.75-1.06-3.14.28-5.21,2.98-6.49,2.1-1,4.34-1.69,6.53-2.49,58.77-21.52,117.54-43.04,176.31-64.56,11.76-4.31,11.81-4.34,20.01,5.67,53.84,65.71,107.66,131.43,161.49,197.15,22.59,27.58,45.17,55.15,67.76,82.73,1.27,1.55,2.92,2.91,3.72,4.67,1.16,2.51,2.72,5.49,2.28,7.94-.73,4.07-4.74,3.96-8.14,3.9-16.66-.29-33.31-.69-49.97-.86-95.61-1.01-191.22-1.96-286.83-2.98-8.26-.09-16.51-.61-25.6-.97Z"/>
  <path class="st0" d="M335.25,1281.76c3.45,1.66,6.47,3,9.4,4.53,63.74,33.31,127.47,66.63,191.2,99.95,1.77.93,3.58,1.79,5.29,2.81,5.63,3.35,5.97,4.02,3.15,10.36-4.6,10.34-9.44,20.57-14.2,30.84-21.99,47.42-43.98,94.84-65.97,142.25-5.66,12.21-5.83,12.46-18.68,11.18-49.7-4.94-99.38-10.05-149.08-15-43.4-4.33-86.82-8.54-130.23-12.81-28.17-2.77-56.33-5.54-84.5-8.34-1.98-.2-4.02-.42-5.88-1.08-4.05-1.43-5.36-5.13-2.93-8.73,1.47-2.17,3.56-3.95,5.46-5.81,81.69-79.89,163.38-159.77,245.1-239.62,3.54-3.45,7.39-6.58,11.87-10.54Z"/>
  <path class="st0" d="M455.96,476.52c23.77,75.68,47.71,151.38,71.35,227.98-4.93,2.02-8.52,3.63-12.19,4.98-57.85,21.21-115.72,42.38-173.58,63.56-13.08,4.79-13.12,4.84-21.83-5.79-44.59-54.39-89.15-108.79-133.71-163.2-32.1-39.19-64.23-78.37-96.25-117.62-2.59-3.17-7.25-5.96-5.06-11.06,2.48-5.78,8.06-3.61,12.38-3.56,114.66,1.2,229.31,2.52,343.97,3.86,4.63.05,9.26.51,14.93.84Z"/>
  <path class="st0" d="M2399.79,767.11c-3.39-1.63-6.39-2.96-9.3-4.47-64.34-33.59-128.67-67.2-193-100.81-1.77-.92-3.53-1.86-5.27-2.84-3.17-1.79-3.82-4.37-2.33-7.6.83-1.81,1.6-3.66,2.44-5.47,26.48-57.07,52.97-114.15,79.47-171.21,4.74-10.2,5.31-10.48,16.78-9.35,77.87,7.66,155.74,15.29,233.6,23.01,43.73,4.34,87.45,8.83,131.18,13.26,1.66.17,3.36.14,4.96.53,5.22,1.27,6.74,5.39,3.5,9.67-1.39,1.84-3.2,3.38-4.87,5.01-81.68,79.88-163.37,159.77-245.09,239.62-3.54,3.46-7.43,6.57-12.09,10.66Z"/>
  <path class="st0" d="M2007.68,411.73c5.64,3.06,3.82,6.72,3.02,10.21-6.58,28.55-13.13,57.1-19.73,85.65-8.1,35.03-16.25,70.05-24.33,105.09-.59,2.56-.81,5.2-1.33,8.61,3.77,1.51,7.36,3.07,11.03,4.42,45.33,16.62,90.67,33.21,136,49.81,2.19.8,4.36,1.66,6.56,2.41,4.34,1.47,5.36,4.82,4.56,8.76-.52,2.58-1.75,5.02-2.75,7.48-20.47,50.63-40.96,101.25-61.43,151.88-1.36,3.36-2.64,6.75-4.25,10.85,63.71,48.18,127.1,96.12,190.51,144.08-.81,4.06-3.71,4.35-6.8,4.37-7.33.06-14.66.12-21.99.2-84.63.84-169.27,1.69-253.9,2.48-3.46.03-6.93-.49-11.92-.88,9.56-14.12,14.11-28.6,20.07-42.43,12.65-29.36,24.95-58.86,37.39-88.31,1.15-2.72,2.26-5.45,3.77-9.1-41.08-22.57-81.77-44.94-121.65-66.85,2.34-8.11,4.5-14.62,6.1-21.26,10.84-44.99,21.56-90.01,32.31-135.02.3-1.27.51-2.56,1-5.05-3.86-1.01-7.52-2.11-11.25-2.92-30.58-6.65-61.18-13.23-91.76-19.9-3.08-.67-6.07-1.78-10.98-3.25,3.65-4.65,5.93-8.12,8.75-11.08,41.86-43.88,83.8-87.69,125.71-131.52,16.58-17.34,33.13-34.71,49.76-52,2.42-2.52,5.22-4.68,7.53-6.73Z"/>
  <path class="st0" d="M1535.06,1712.07c-48.13,63.63-96.19,127.17-144.24,190.69-5.27-2.71-4.06-6.7-4.1-10.15-.35-34.99-.59-69.98-.95-104.97-.58-55.98-1.24-111.97-1.79-167.95-.03-3.44.52-6.89.83-10.69,22.11,11.35,44.12,19.47,65.61,28.77,21.39,9.26,42.92,18.21,64.4,27.27,3.02,1.27,6.1,2.37,10.03,3.88,11.41-20.81,22.49-41.23,33.76-61.56,11.23-20.24,22.02-40.74,33.15-60.03,7.4,2.29,12.96,4.36,18.68,5.73,44.67,10.76,89.37,21.4,134.07,32.03,2.55.61,5.18.87,8.66,1.44.99-4.18,1.95-7.98,2.78-11.8,6.57-30.26,13.1-60.53,19.71-90.79.68-3.12,1.82-6.14,3.29-11.05,4.49,3.5,7.96,5.76,10.9,8.57,39.55,37.72,79.03,75.51,118.53,113.28,21.68,20.73,43.41,41.4,65.01,62.2,2.66,2.56,4.71,5.74,7.05,8.63-.41.78-.82,1.56-1.22,2.34-3.71-.2-7.54.14-11.11-.68-61.01-14.02-121.98-28.18-182.97-42.29-4.5-1.04-9.03-1.95-14.31-3.09-1.58,3.94-3.14,7.53-4.49,11.21-16.36,44.72-32.69,89.45-49.03,134.17-.91,2.5-2.08,4.93-2.79,7.48-1.52,5.44-5.38,6.42-10.09,5.32-2.89-.68-5.65-1.97-8.42-3.09-50.63-20.48-101.25-40.98-151.88-61.46-2.75-1.11-5.55-2.1-9.07-3.43Z"/>
  <path class="st0" d="M964.52,427.01c6.01-16.33,11.75-31.9,17.45-47.47,12.24-33.45,24.46-66.91,36.71-100.36,4.58-12.52,5.79-13.08,18.07-8.11,50.93,20.6,101.84,41.23,152.76,61.84,3.06,1.24,6.16,2.37,10.45,4.02,48.06-63.54,96.13-127.09,144.15-190.57,5.5,1.91,3.97,6.1,4.02,9.46.5,33.65.95,67.29,1.33,100.94.65,57.97,1.27,115.93,1.81,173.9.03,3.05-.83,6.11-1.35,9.63-20.01-11.25-40.36-18.29-60.04-26.83-19.85-8.62-39.83-16.94-59.76-25.38-6.12-2.59-12.26-5.14-19.74-8.27-22.4,40.76-44.75,81.44-66.75,121.48-34.51-10.09-68.63-16.95-102.38-25.29-19.33-4.77-38.73-9.26-59.34-14.18-8.26,37.8-16.39,74.95-24.96,114.17-4.54-3.1-7.64-4.67-10.06-6.95-16.96-16.01-33.78-32.16-50.64-48.28-44.79-42.82-89.6-85.63-134.32-128.52-2.72-2.61-7.95-4.97-5.88-9.38,2.53-5.4,7.72-1.78,11.54-.9,61.98,14.17,123.92,28.5,185.88,42.78,3.48.8,7,1.45,11.05,2.28Z"/>
  <path class="st0" d="M1972.18,1392.22c10.97,79.01,21.9,157.66,32.83,236.39-4.08,2.86-6.17-.14-8.48-2.41-9.04-8.86-18.08-17.73-27.12-26.59-56.9-55.7-113.81-111.39-170.7-167.11-2.27-2.22-5.66-3.98-4.62-6.98,9.97-3.81,19.18-7.16,28.26-10.82,33.66-13.56,67.28-27.21,100.91-40.85,3.37-1.36,6.68-2.86,11.16-4.8-12.99-44.76-25.92-89.31-38.61-133.08,8.19-4.61,15.47-8.41,22.46-12.68,36.65-22.42,73.23-44.96,109.83-67.46,3.08-1.9,6.13-3.84,10-6.28-10.78-16.74-21.28-32.82-31.54-49.05-10.07-15.92-21.03-31.3-30.64-48.76,3.31-1.13,5.32-2.3,7.39-2.44,6.98-.49,13.97-.71,20.97-.85,79.27-1.69,158.55-3.35,237.82-4.97,3.84-.08,7.68.33,11.12.49,2.03,6.1-2.02,7.5-4.95,9.34-14.08,8.9-28.23,17.67-42.36,26.5-40.4,25.23-80.8,50.45-121.2,75.69-3.05,1.91-6.07,3.86-9.58,6.09,1.54,3.64,2.72,6.67,4.08,9.63,20.43,44.11,40.89,88.21,61.34,132.32.98,2.11,2.12,4.17,2.95,6.34,2.03,5.3,1.21,7.92-3.64,10.84-2.26,1.36-4.82,2.25-7.27,3.29-50.28,21.3-100.56,42.59-150.83,63.89-3.03,1.28-6,2.71-9.59,4.33Z"/>
  <path class="st0" d="M1504.77,316.88c3.65-1.57,6.68-2.79,9.65-4.16,44.4-20.59,88.8-41.21,133.2-61.8,12.42-5.76,13.52-5.33,19.06,7.72,21.19,49.96,42.34,99.94,63.51,149.9,1.43,3.37,2.95,6.69,4.98,11.28,78.47-10.89,157.12-21.81,236.8-32.87,0,1.79.54,3.97-.15,5.63-.71,1.71-2.61,2.94-4.01,4.36-63.86,65.23-127.71,130.47-191.59,195.68-2.42,2.47-4.25,6.33-8.04,5.11-3.12-8.6-5.79-16.7-8.97-24.59-14.18-35.2-28.5-70.35-42.79-105.51-1.24-3.05-2.59-6.06-4.29-10.04-44.88,13.02-89.44,25.94-133.23,38.64-3.81-7.01-6.68-12.9-10.08-18.46-23.47-38.35-47.05-76.63-70.62-114.92-1.7-2.76-3.57-5.43-5.77-8.77-32.65,20.77-64.45,41.7-98.5,63.28-.88-6.1-1.73-9.5-1.81-12.92-1.59-70.28-3.07-140.56-4.62-210.83-.32-14.65-.84-29.3-1.24-43.96-.06-2.33-.39-4.75.11-6.97.38-1.67,1.64-4.07,2.93-4.37,1.41-.33,3.69,1.01,4.88,2.29,1.79,1.91,3,4.38,4.41,6.64,33,52.82,65.99,105.65,99,158.46,2.26,3.62,4.62,7.19,7.2,11.19Z"/>
  <path class="st0" d="M1242.69,1694.84c16.66-10.71,32.75-21.25,49.05-31.46,15.93-9.98,31.05-21.34,48.98-30.48.92,3.73,1.89,6.12,2.05,8.57.44,6.65.63,13.32.78,19.98,1.69,79.3,3.37,158.6,4.94,237.9.08,4.03,1.9,8.73-2.55,11.92-5.54-.43-6.71-5.24-8.88-8.7-33.43-53.36-66.76-106.79-100.11-160.2-2.09-3.34-4.23-6.65-6.61-10.39-3.9,1.7-7.23,3.06-10.49,4.57-43.81,20.33-87.6,40.69-131.4,61.04-2.42,1.12-4.91,2.09-7.27,3.32-3.73,1.94-6.65.46-8.67-2.45-1.87-2.7-3.15-5.84-4.45-8.89-21.21-49.97-42.38-99.96-63.57-149.94-1.29-3.04-2.68-6.04-4.58-10.32-78.93,10.51-157.81,21.79-236.79,32.7-2.35-5.12,1.35-7.13,3.74-9.57,25.16-25.74,50.35-51.45,75.53-77.17,38.7-39.53,77.4-79.07,116.14-118.56,2.37-2.42,5.17-4.41,7.94-6.73,16.39,46.08,35.68,89.41,53.07,133.49.85,2.15,1.89,4.22,3.3,7.37,3.42-.8,6.88-1.44,10.24-2.42,37.74-10.92,75.47-21.9,113.21-32.83,3.46-1,7-1.72,9.53-2.34,5.33,9.05,10.04,17.3,15,25.4,21.93,35.8,43.93,71.55,65.93,107.3,1.71,2.78,3.64,5.44,5.96,8.89Z"/>
  <path class="st0" d="M660.02,887.18c-1.79-4.07-3.19-7.44-4.73-10.74-20.59-44.42-41.22-88.83-61.81-133.26-5.02-10.84-4.45-12.51,6.54-17.18,50.28-21.35,100.59-42.62,150.88-63.93,3.64-1.54,7.24-3.2,11.95-5.28-10.95-79.04-21.89-157.96-32.83-236.9,5.46-2.03,7.37,1.83,9.8,4.2,24.57,23.97,49.09,48,73.62,72.02,40.73,39.87,81.46,79.73,122.16,119.63,2.47,2.42,6.28,4.25,5.23,7.9-9.57,3.59-18.54,6.74-27.35,10.29-34.29,13.82-68.53,27.77-102.78,41.68-3.04,1.24-6.04,2.59-9.61,4.12.72,3.2,1.22,6.09,2.03,8.88,11.13,38.38,22.31,76.74,33.43,115.13.99,3.41,1.61,6.93,2.28,9.88-5.93,3.07-11.02,5.33-15.73,8.21-38.94,23.82-77.81,47.74-116.7,71.65-2.81,1.73-5.55,3.58-9.29,6,20.46,32.56,41.68,64.2,62.9,98.28-5.37.98-8.67,2.04-12.01,2.12-35.65.88-71.31,1.57-106.96,2.39-49.31,1.13-98.62,2.38-147.94,3.41-4.07.09-10.1,2.42-11.77-2.46-2-5.84,4.8-7.11,8.42-9.37,53.34-33.47,106.78-66.79,160.19-100.15,3.09-1.93,6.12-3.96,10.06-6.51Z"/>
  <path class="st0" d="M723.17,1635.04c3.64-23.2,10.16-45.83,15.16-68.75,5.04-23.09,10.58-46.07,15.91-69.1,5.32-22.97,10.64-45.93,16.08-69.37-3.77-1.5-6.78-2.79-9.85-3.91-46.27-16.95-92.55-33.87-138.81-50.82-11.6-4.25-12.35-5.9-7.6-17.64,20.7-51.25,41.46-102.47,62.2-153.71,1.12-2.77,2.21-5.56,3.56-8.96-1.82-1.67-3.6-3.58-5.65-5.13-58.43-44.25-116.89-88.46-175.37-132.65-2.38-1.8-5.12-3.15-7.43-5.04-2.52-2.06-1.76-5.23,1.44-5.82,2.58-.48,5.3-.29,7.96-.33,90.62-1.04,181.25-2.09,271.87-3.05,3.39-.04,6.79.78,10.62,1.25-12.56,23.05-20.72,46.54-30.67,69.23-10.02,22.85-19.47,45.95-29.7,70.22,40.68,22.9,81.68,44.66,121.07,66.79-5.42,21.88-10.6,42.38-15.56,62.94-7.18,29.78-14.19,59.59-21.26,89.39-.61,2.58-1.1,5.19-1.87,8.88,2.87.9,5.52,1.97,8.27,2.57,30.9,6.72,61.83,13.34,92.73,20.08,3.76.82,7.42,2.14,12.98,3.78-3.66,4.61-5.97,8.04-8.79,10.99-45.32,47.48-90.7,94.91-136.07,142.35-13.36,13.97-26.64,28-40.11,41.86-2.3,2.37-5.35,4.02-8.06,6.01-1.02-.68-2.03-1.37-3.05-2.05Z"/>
  <path class="st0" d="M254.76,1618.76c2.54-3.65,5.48-4.54,9-3.93,21.28,3.73,42.52,7.76,63.85,11.15,61.84,9.84,123.72,19.42,185.59,29.1,14.15,2.22,28.31,4.4,42.44,6.71,2.5.41,4.91,1.32,8.9,2.44-7,5.91-5.12,12.62-4.86,18.99,3.91,94.24,7.9,188.47,11.7,282.71.18,4.54,2.55,9.94-3.52,14.61-2.79-2.85-5.64-5.42-8.1-8.31-47.14-55.29-94.24-110.62-141.35-165.95-50.13-58.87-100.23-117.78-150.5-176.54-3.5-4.09-8.35-7.03-13.15-10.98Z"/>
  <path class="st0" d="M126.39,1135.24c-.1-3.88-.53-7.68-.24-11.43,2.77-35.86,5.63-71.72,8.51-107.57,3.07-38.18,6.2-76.35,9.3-114.53,3.79-46.81,7.59-93.61,11.34-140.42,2.26-28.22,4.61-56.43,6.56-84.68.42-6.03-.72-12.17-1.16-18.7,4.58-1.01,7.36.86,9.41,4.89,1.65,3.23,3.62,6.34,5.76,9.28,54.56,74.83,109.17,149.61,163.72,224.45,2.61,3.59,4.73,7.54,8.02,12.83-8.64-.38-12.33,4.15-16.36,8.53-64.45,70.18-128.95,140.31-193.53,210.38-2.72,2.95-4.61,7.57-11.33,6.98Z"/>
  <path class="st0" d="M2387.16,1138.99c9.41,1.6,12.66-3.67,16.55-7.9,64.49-70.1,128.95-140.22,193.48-210.27,2.76-3,4.77-7.44,10.87-7.12.47,2.14,1.47,4.29,1.31,6.35-2.61,33.86-5.35,67.71-8.09,101.55-2.44,30.2-4.9,60.39-7.34,90.59-4.41,54.42-8.81,108.84-13.21,163.26-2.73,33.85-5.52,67.69-8.05,101.56-.23,3.09,1.44,6.29,1.91,9.48.21,1.45.17,3.66-.69,4.34-.91.71-3.18.47-4.41-.19-1.64-.87-3.14-2.35-4.21-3.91-3.77-5.45-7.11-11.21-11.01-16.57-52.95-72.66-105.98-145.27-158.93-217.93-2.59-3.55-4.66-7.49-8.2-13.25Z"/>
  <path class="st0" d="M2163.72,70.57c6.43-2.06,8.05,2.07,10.24,4.62,16.51,19.19,32.89,38.5,49.3,57.77,81.2,95.36,162.37,190.75,243.69,286.01,3.5,4.1,8.36,7.05,12.93,10.83-1.02,4.35-4.65,4.81-8.29,4.21-31.82-5.26-63.57-10.89-95.41-15.97-57.53-9.17-115.11-18.04-172.66-27.03-6.91-1.08-13.83-2.04-20.72-3.22-3.51-.6-6.97-1.55-11.8-2.65,7.18-8.59,4.71-17.54,4.37-26.11-3.19-78.88-6.54-157.75-9.84-236.62-.59-13.98-1.23-27.95-1.78-41.93-.13-3.27-.02-6.55-.02-9.93Z"/>
  <path class="st0" d="M1624.68,1039.96c2.5,6.16-.4,8.87-3.65,11.45-8.35,6.63-16.71,13.24-25.04,19.89-2.83,2.26-5.58,4.62-9.81,8.15,50.87,19.12,100.49,37.78,150.44,56.55,12.94-10.41,25.64-20.63,38.35-30.84,2.08-1.67,4.05-3.53,6.3-4.91,4.37-2.67,7.01-2.03,10.23,2.21,1,1.32,1.74,2.84,2.6,4.26,21.57,36,43.15,71.99,64.72,107.99.86,1.43,1.73,2.85,2.54,4.3,2.23,3.97,1.19,7.1-2.69,9.18-2.03,1.09-4.31,1.75-6.51,2.49-39.14,13.14-78.27,26.27-117.43,39.36-2.73.91-5.57,1.48-9.16,2.41-2-7.19-3.79-13.51-5.51-19.83-3.85-14.13-7.83-28.23-11.4-42.43-1.09-4.34-3.14-6.8-7.35-8.42-44.14-16.94-88.2-34.06-132.3-51.1-.59-.23-1.31-.13-3.16-.27.83,4.38,1.49,8.49,2.41,12.55,1.62,7.14,3.47,14.23,5.06,21.38.57,2.57,1.09,5.29.85,7.88-.32,3.57-3.53,5.05-6.59,3.15-1.95-1.21-3.56-2.99-5.21-4.62-47.5-46.73-94.99-93.48-142.48-140.22-.95-.93-2.22-1.72-2.77-2.85-1.08-2.23-2.7-4.79-2.39-6.97.51-3.62,4.05-3.9,7.15-3.86,5.66.07,11.33.26,16.99.34,57.97.76,115.94,1.49,173.9,2.27,3.94.05,7.88.34,11.91.53Z"/>
  <path class="st0" d="M1795.99,946.77c-19.42-11.17-37.34-21.38-55.15-31.79-3.97-2.32-7.36-3.27-12.03-1.18-42.87,19.16-85.87,38.04-128.82,57.03-.89.39-1.65,1.09-3.57,2.39,5.58,3.6,10.67,6.94,15.83,10.2,5.91,3.74,12.06,7.15,17.71,11.25,1.76,1.28,2.86,4.31,2.97,6.61.04.86-3.51,2.16-5.57,2.77-1.54.46-3.31.13-4.97.15-64.98.55-129.97,1.11-194.95,1.66-2.67.02-5.33,0-8,.03-3.12.03-6.77-.19-7.14-3.78-.25-2.46,1.14-5.83,2.95-7.64,15.8-15.78,31.85-31.29,47.84-46.88,29.11-28.38,58.23-56.76,87.34-85.14,1.43-1.4,2.7-3.05,4.34-4.12,2.35-1.54,5.34-4.14,7.41-3.64,4.3,1.06,4.08,5.45,3.68,9.18-1.36,12.58-2.81,25.16-4.15,37.74-.2,1.85-.03,3.74-.03,6.64,3.36-1.44,5.76-2.42,8.12-3.49,43.07-19.54,86.07-39.23,129.26-58.49,6.31-2.81,8.99-6.23,9.42-13.22.86-13.95,2.7-27.84,4.43-41.73,1.51-12.1,3.15-13.12,14.66-10.25,34.56,8.64,69.12,17.31,103.68,25.96,7.11,1.78,14.26,3.37,21.32,5.31,7.05,1.94,8.14,4.24,5.58,10.84-.72,1.86-1.65,3.64-2.54,5.43-18.12,36.37-36.24,72.74-54.4,109.09-1.43,2.87-3.2,5.58-5.22,9.05Z"/>
  <path class="st0" d="M1418.9,1252.57c-5.59,9.01-10.44,16.84-15.31,24.67-1.93,3.11-3.86,6.23-5.82,9.33-2.04,3.22-4.7,4.54-9.41,2.36-.17-2.82-.51-6.04-.54-9.26-.59-66.31-1.17-132.62-1.63-198.94-.03-4.06-1.87-9.14,3.31-11.6,5.54-2.63,7.69,2.69,10.44,5.49,44.08,44.99,88.04,90.09,132.01,135.19,2.28,2.34,4.37,4.85,6.45,7.17-1.81,5.56-5.33,6.28-9.69,5.77-11.25-1.31-22.51-2.51-33.77-3.74-3.27-.35-6.54-.63-10.85-1.04,1.12,3.28,1.73,5.73,2.76,8,19.79,43.68,39.73,87.3,59.31,131.08,2.56,5.72,6.14,7.9,12,8.42,14.6,1.3,29.16,2.97,43.74,4.51,9.9,1.05,11.82,3.46,9.49,12.81-10.39,41.68-20.86,83.33-31.37,124.98-2.35,9.3-4.7,10.52-13.3,6.3-23.62-11.58-47.13-23.4-70.69-35.12-14.61-7.27-29.24-14.51-43.81-21.86-2.25-1.13-4.24-2.78-6.79-4.48,9.5-16.53,18.78-32.25,27.65-48.21,9-16.21,8.93-9.4,1.2-27.07-16.68-38.14-33.56-76.19-50.37-114.27-1.33-3.01-2.83-5.94-5.01-10.48Z"/>
  <path class="st0" d="M1185.38,684.58c-16.05-1.68-31.61-3.17-47.13-4.98-15.39-1.8-17.87-1.38-13.27-19.03,10.07-38.64,19.5-77.45,29.18-116.2,3.45-13.82,4.6-14.39,17.38-8.03,36.66,18.25,73.3,36.53,109.93,54.84,2.58,1.29,5,2.87,7.94,4.57-1.38,2.82-2.25,4.89-3.36,6.83-9.28,16.17-18.53,32.37-27.96,48.45-2.33,3.97-3.35,7.45-1.28,12.07,19,42.55,37.78,85.2,56.66,127.82.51,1.14,1.29,2.16,2.84,4.73,3.53-5.48,6.51-10.05,9.41-14.66,3.9-6.2,7.52-12.6,11.75-18.56,1.31-1.85,4.19-2.57,6.35-3.81,1.19,2.14,2.74,4.16,3.47,6.45.58,1.82.2,3.96.21,5.96.43,65.95.85,131.91,1.27,197.86,0,.67.18,1.39-.02,1.99-.96,2.97-1.17,7.06-3.24,8.59-3.83,2.83-6.58-1.16-9.07-3.72-27.71-28.35-55.39-56.72-83.06-85.1-16.98-17.41-33.98-34.79-50.87-52.28-2.38-2.47-6.74-4.6-4.76-8.95,2.06-4.53,6.65-3.61,10.61-3.18,12.25,1.32,24.48,2.76,36.73,4.06,1.54.16,3.13-.21,6.2-.46-22.21-48.94-44.02-97-65.92-145.25Z"/>
  <path class="st0" d="M1169.67,899.01c-2.97-13.02-5.54-24.64-8.31-36.2-.98-4.07-2.02-7.89,3.83-10.73,1.92,1.5,4.36,3.07,6.38,5.06,48,47.18,95.96,94.4,143.92,141.62,1.19,1.17,2.49,2.26,3.47,3.58,3.56,4.81,1.68,9.06-4.31,9.61-2.64.24-5.33.07-7.99.03-62.3-.74-124.61-1.46-186.91-2.31-3.66-.05-8.72,1.86-10.26-3.49-1.34-4.66,2.59-7.11,5.73-9.6,8.61-6.84,17.24-13.65,25.8-20.55,2.23-1.79,4.26-3.83,7.15-6.45-3.67-1.55-6.3-2.76-8.99-3.77-43.94-16.54-87.92-32.94-131.77-49.7-6.3-2.41-10.84-2.32-16.18,2.35-11.02,9.64-22.67,18.58-34.17,27.68-7.85,6.21-10.23,5.75-15.5-3.03-21.96-36.54-43.87-73.12-65.74-109.71-5.41-9.04-4.56-11.32,5.88-14.84,35.34-11.9,70.71-23.69,106.09-35.49,6.84-2.28,13.73-4.41,21.22-6.81,1.18,3.44,2.16,5.82,2.83,8.29,4.79,17.67,9.64,35.33,14.2,53.06,1.26,4.9,3.49,8.01,8.47,9.92,43.22,16.55,86.34,33.35,129.5,50.05,1.21.47,2.54.64,5.67,1.41Z"/>
  <path class="st0" d="M1422.13,805.65c1.87-4.41,3.1-7.04,4.11-9.75,16.53-43.93,32.9-87.91,49.7-131.74,2.47-6.43,2-10.9-2.56-16.15-9.6-11.06-18.6-22.65-27.68-34.15-5.95-7.53-5.54-10.15,2.44-14.96,37.09-22.32,74.22-44.58,111.4-66.77,7.67-4.58,10.3-3.69,13.21,4.9,13.88,40.98,27.58,82.02,41.28,123.06.6,1.79.58,3.78.97,6.48-6.69,1.85-12.99,3.62-19.3,5.34-14.13,3.85-28.23,7.83-42.43,11.4-4.33,1.09-6.83,3.08-8.45,7.31-16.82,43.81-33.82,87.56-50.74,131.34-.35.91-.38,1.95-.69,3.68,2.42-.2,4.63-.13,6.72-.6,8.77-1.96,17.5-4.1,26.25-6.12,2.27-.52,4.63-1.39,6.84-1.14,2.05.23,4.5,1.31,5.72,2.86.65.82-.67,3.55-1.57,5.15-.79,1.4-2.23,2.45-3.4,3.63-46.73,47.48-93.47,94.97-140.2,142.45-.23.24-.46.49-.71.71-2.88,2.54-5.12,6.87-9.98,4.6-4.29-2-3.08-6.25-3.04-9.75.7-63.95,1.47-127.91,2.23-191.86.02-1.66-.11-3.37.19-4.99.83-4.4,4.34-5.99,8.11-3.37,2.13,1.48,3.79,3.7,5.45,5.76,8.34,10.35,16.61,20.76,26.13,32.68Z"/>
  <path class="st0" d="M1256.01,1393.48c8.75,10.91,17.28,21.54,25.8,32.16,2.92,3.64,6,7.16,8.72,10.94,4.41,6.13,3.97,8.88-2.66,12.87-37.67,22.69-75.39,45.29-113.15,67.8-7.14,4.26-9.59,3.07-12.7-6.05-8.05-23.64-15.93-47.33-23.87-71-5.3-15.78-10.6-31.56-15.86-47.35-1.02-3.06-1.81-6.2-2.87-9.89,3.34-1.14,5.74-2.12,8.22-2.79,17.67-4.79,35.34-9.6,53.06-14.22,4.82-1.26,7.92-3.36,9.87-8.48,16.61-43.56,33.58-86.98,50.41-130.45.35-.89.39-1.9.9-4.5-4.03.8-7.4,1.38-10.72,2.15-9.08,2.1-18.15,4.25-27.21,6.47-3.21.79-6.63.73-7.6-2.57-.55-1.87,1.03-5.11,2.64-6.77,17.62-18.19,35.44-36.19,53.21-54.23,29.69-30.16,59.36-60.33,89.11-90.43,2.88-2.92,5.34-7.71,10.67-5.26,4.76,2.18,3.14,6.89,3.09,10.67-.79,62.97-1.66,125.95-2.53,188.92-.05,3.28-.32,6.55-.48,9.61-5.48,3.43-8.52.56-11.37-3.02-6.84-8.61-13.68-17.22-20.55-25.8-2.06-2.57-4.22-5.05-7.52-8.99-19.49,50.64-37.71,100.37-56.63,150.21Z"/>
  <path class="st0" d="M939.63,1102.71c3.64,2.01,7.08,3.87,10.47,5.81,14.73,8.45,29.51,16.82,44.14,25.44,4,2.36,7.43,3.22,12.04,1.16,42.55-19,85.21-37.77,127.83-56.63,1.15-.51,2.18-1.27,4.68-2.75-6.87-4.38-12.87-8.21-18.88-12.02-5.06-3.21-10.32-6.15-15.13-9.7-1.55-1.14-2.97-4.06-2.59-5.76.34-1.5,3.11-2.91,5.06-3.47,2.17-.62,4.62-.28,6.95-.3,65.95-.43,131.91-.85,197.86-1.27,1,0,2,0,3,0,3.4,0,7.49-.05,7.96,4.06.27,2.36-1.61,5.6-3.5,7.46-20.36,20.15-40.91,40.11-61.42,60.11-25.04,24.42-50.08,48.84-75.12,73.26-.95.93-1.79,2.09-2.92,2.71-2.43,1.34-5.35,3.78-7.47,3.26-3.71-.9-3.81-4.81-3.39-8.35,1.56-13.23,3.03-26.46,4.49-39.7.14-1.28.02-2.59.02-5.7-49,22.22-97.01,44-145.86,66.15-1.23,10.66-2.52,21.51-3.73,32.38-.81,7.28-1.4,14.59-2.31,21.85-.97,7.78-3.63,9.7-11.33,7.79-42.31-10.51-84.61-21.08-126.88-31.76-8.62-2.18-9.85-4.65-5.85-12.74,19.31-39.1,38.8-78.12,58.29-117.14.69-1.39,2.06-2.44,3.57-4.17Z"/>
  <path class="st0" d="M1036.98,233.13c26.93-47.91,52.68-93.74,78.52-139.52.53-.94,2.14-1.28,2.28-1.35,5.52,4.28,10.17,8.36,15.27,11.75,22.45,14.95,45.04,29.7,67.56,44.55,10.27,6.77,10.31,6.92,4.32,18.18-7.51,14.11-15.09,28.18-22.61,42.28-1.55,2.91-2.98,5.88-4.77,9.44,5.42,6.33,10.77,12.58,17.15,20.04,21.3-29.41,42.03-58.04,63.26-87.37-48.54-31.39-96.27-62.26-145.11-93.85.83-1.99,1.66-4.72,3.03-7.12,5.46-9.53,11.14-18.94,16.65-28.45,3.13-5.41,6.08-10.92,9.16-16.49.97-.09,2.18-.6,2.88-.21,65.66,36.73,131.28,73.53,196.86,110.39,1.02.57,1.56,2,2.14,2.78-48.71,62.92-97.15,125.48-145.69,188.18-53.91-24.73-107.03-48.2-160.89-73.23Z"/>
  <path class="st0" d="M576.39,1355.04c-47.66-26.71-93.52-52.4-139.35-78.17-1.02-.57-1.54-2.03-1.66-2.2,5.19-7.13,10.19-13.5,14.67-20.22,14.04-21.07,27.88-42.28,41.82-63.41,6.44-9.77,6.83-9.87,17.43-4.23,17.05,9.07,34.06,18.2,52.07,27.82,6.36-5.45,12.79-10.97,20.17-17.31-29.5-21.37-57.98-41.99-87.36-63.27-31.44,48.62-62.48,96.61-94.25,145.75-17.07-9.81-34.22-19.66-51.61-29.66-.07-.66-.59-1.88-.2-2.59,36.72-65.7,73.5-131.36,110.34-196.99.57-1.01,1.98-1.54,2.78-2.13,62.72,48.56,125.06,96.82,188.13,145.65-24.29,53.58-48.28,106.48-72.98,160.95Z"/>
  <path class="st0" d="M1540.39,1810.43c-21.51,29.7-41.98,57.97-63.27,87.37,48.37,31.29,96.33,62.31,145.09,93.86-.78,1.95-1.44,4.45-2.68,6.61-5.48,9.53-11.19,18.92-16.7,28.43-3.14,5.42-6.05,10.98-9.51,17.29-1.69-.43-4.02-.55-5.84-1.57-61.91-34.63-123.77-69.33-185.62-104.06-3.64-2.04-7.09-4.43-10.94-6.85,49.15-63.48,97.57-126.01,146.26-188.89,53.74,24.37,106.39,48.25,158.77,72-1.36,8.67-72.7,136.66-79.45,142.87-6.11-9.03-15.89-13.4-24.56-19.21-19.37-12.97-38.94-25.65-58.4-38.5-9.1-6.01-9.23-6.43-4.27-15.84,7.77-14.73,15.66-29.39,23.49-44.09,1.55-2.91,3.02-5.86,4.83-9.38-5.44-6.34-10.81-12.61-17.18-20.03Z"/>
  <path class="st0" d="M1871.16,159.66c18.84-5.04,37.63-10.06,57.82-15.46.7,1.28,2.31,3.27,2.94,5.52,19.13,67.57,38.17,135.17,57.19,202.77,1.23,4.39,2.17,8.86,3.43,14.07-79.42,10.08-157.82,20.04-237.15,30.11-20.65-54.9-41.09-109.23-61.43-163.3,5.97-4.03,137.1-42.87,151.74-45.17,1.78-.28,3.71.47,4.6.6.72,6.6.9,12.47,2.04,18.13,5.44,27.09,11.14,54.12,16.74,81.18,2.14,10.34,1.77,11.12-8.29,14.25-16.53,5.14-33.1,10.13-49.65,15.21-2.51.77-4.96,1.73-8.22,2.87-.52,8.22-1.04,16.35-1.64,25.96,35.96-5.75,70.58-11.29,106.29-16.99-12.12-56.49-24.04-112.03-36.42-169.76Z"/>
  <path class="st0" d="M575.19,697.91c-1.2-2.85-2.46-5.13-3.14-7.58-13.69-49.03-27.32-98.07-40.86-147.13-.18-.66.87-1.65.92-1.73,5.79-.52,11.01-.52,16.03-1.52,27.75-5.55,55.45-11.35,83.16-17.07,10.17-2.1,11.22-1.58,14.28,8.37,5.18,16.87,10.38,33.73,15.21,50.7,1.5,5.28,4,7.87,9.68,7.75,5.9-.13,11.81.43,18.97.75-5.71-35.73-11.24-70.36-16.94-106.04-56.7,12.17-112.23,24.09-169.07,36.29-.93-2.43-2.33-5.3-3.14-8.32-2.92-10.93-5.57-21.94-8.47-32.88-1.35-5.09-3.06-10.08-4.89-16.03,1.34-.9,2.98-2.68,4.96-3.24,68.87-19.46,137.77-38.82,206.68-58.16,3.44-.97,6.96-1.63,11.13-2.59,1.37,10.72,2.62,20.49,3.86,30.26,8.35,66.08,16.69,132.16,25.03,198.24,1.09,8.68,1.07,8.73-6.56,11.6-49.24,18.53-98.47,37.05-147.73,55.53-2.74,1.03-5.6,1.74-9.1,2.81Z"/>
  <path class="st0" d="M1995.38,1412.68c48.55-20.48,156.58-60.02,164.61-60.36,4.93,9.42,43.61,148.03,43.25,154.96-25.52,1.75-49.98,9.26-74.99,13.76-8.52,1.53-16.95,3.49-25.45,5.13-9.3,1.79-10.13,1.39-12.88-7.42-4.85-15.57-9.47-31.21-14.23-46.81-1.16-3.8-2.47-7.55-3.84-11.71-8.44-.72-16.6-1.42-26.3-2.26,5.75,35.98,11.28,70.61,17.02,106.56,56.62-12.15,112.4-24.12,169.65-36.4,5.14,18.87,10.33,37.92,15.91,58.44-17.76,6.12-36.34,10.6-54.66,15.86-18.87,5.42-37.78,10.72-56.68,16.06-18.57,5.26-37.11,10.65-55.74,15.73-18.43,5.04-36.57,11.28-55.66,15.09-10.12-79.77-20.07-158.2-30.01-236.63Z"/>
  <path class="st0" d="M2173.68,834.33c-6.77,5.78-12.83,10.96-18.87,16.12,4.56,5.92,73.36,56.49,86.59,63.64,30.83-47.68,61.71-95.43,93.31-144.3,1.94.8,4.67,1.61,7.11,2.96,14.24,7.89,28.41,15.91,42.62,23.85,2.94,1.64,3.39,3.95,1.86,6.68-2.1,3.78-4.45,7.43-6.56,11.2-32.86,58.73-65.7,117.47-98.57,176.19-1.89,3.38-4.03,6.64-6.42,10.56-63.49-49.16-126.04-97.59-189.09-146.41,24.31-53.57,48.31-106.47,72.92-160.74,16.93,9.39,32.56,18.02,48.16,26.72,16,8.92,32,17.87,47.95,26.87,15.44,8.71,31.11,17.05,45.96,25.9-5.06,6.48-9.14,11.1-12.53,16.17-15.33,23.01-30.44,46.18-45.69,69.25-5.62,8.51-6.15,8.67-15.15,3.92-17.65-9.32-35.23-18.78-53.62-28.59Z"/>
  <path class="st0" d="M1040.97,1817.85c-52.75,14.9-104.14,29.41-155.67,43.96-4.34-35.31-13.27-68.28-19.43-101.77-1.78-9.68-1.39-10.55,8.05-13.48,15.9-4.93,31.86-9.65,47.78-14.49,3.15-.96,6.26-2.04,10.01-3.26.77-8.25,1.53-16.41,2.46-26.28-35.87,5.69-70.51,11.19-106.54,16.9,11.78,56.52,23.81,112.25,36.25,169.14-2.72,1.02-5.61,2.37-8.65,3.18-10.61,2.85-21.29,5.43-31.89,8.28-5.41,1.45-10.73,3.25-17.2,5.23-.92-1.9-2.36-4.02-3.03-6.36-19.39-68.54-38.71-137.1-58.01-205.67-.96-3.41-1.59-6.92-2.5-10.93,17.15-2.16,33.22-4.17,49.28-6.22,50.53-6.44,101.06-12.91,151.6-19.35,9.91-1.26,19.86-2.24,29.73-3.76,4.81-.74,7.13.57,8.89,5.31,18.67,50.24,37.6,100.38,56.41,150.56.9,2.41,1.38,4.99,2.46,9Z"/>
  <path class="st0" d="M464.43,928.31c30.53-20.51,60.59-40.7,90.57-60.83-4.45-10.24-8.59-19.8-13.03-30.01-16.84,8.34-32.57,16.21-48.37,23.93-15.8,7.72-15.24,10.53-26.37-7.06-11.22-17.74-22.81-35.24-34.16-52.9-1.89-2.94-3.42-6.11-4.95-8.88,44.59-17.69,88.08-34.95,132.76-52.67,2.59,4.51,5.31,8.54,7.35,12.89,16.98,36.19,33.77,72.45,50.78,108.62,2.19,4.66,5.27,8.9,8.7,14.6-2.37,1.75-5.27,4.22-8.47,6.22-51.43,32.12-102.9,64.19-154.35,96.26-6.5,4.05-12.96,8.19-19.52,12.15-8.04,4.85-9.87,4.5-14.12-3.35-29.64-54.79-59.21-109.62-88.75-164.46-1.21-2.24-1.88-4.77-2.59-6.59,13.71-5.91,26.69-11.51,39.68-17.1,8.36-3.6,9.75-3.33,14.82,4.05,2.25,3.27,3.87,6.97,5.8,10.45,20.01,36.14,40.03,72.27,60.07,108.39,1.09,1.97,2.48,3.77,4.15,6.28Z"/>
  <path class="st0" d="M796.45,317.81c36.96,7.23,72.41,14.17,107.59,21.06,4.19-10.71,7.87-20.1,11.82-30.17-6.5-2.33-12.06-4.4-17.67-6.31-13.24-4.5-26.52-8.85-39.75-13.38-9.88-3.38-10.63-4.54-8.59-14.4,4.87-23.46,9.88-46.9,14.93-70.32.6-2.8,1.85-5.45,2.72-7.95,43.95,18.99,87.11,37.64,131.07,56.64-1.62,5.58-2.73,10.37-4.39,14.96-13.58,37.56-27.32,75.07-40.87,112.64-1.63,4.52-2.45,9.33-4.01,15.45-2.06-.16-5.27-.02-8.29-.72-66.79-15.47-133.56-31.03-200.34-46.56-1.62-.38-3.35-.48-4.86-1.11-4.1-1.73-6.71-4.33-4.75-9.29.73-1.85,1.1-3.84,1.68-5.75,17.16-57.39,34.32-114.79,51.54-172.17,1.09-3.65,2.68-7.15,3.68-9.79,13.41,5.32,25.62,10.2,37.86,14.99,11.37,4.45,12.65,6.93,9.23,18.66-8.75,30.03-17.56,60.05-26.27,90.09-4.07,14.03-7.98,28.11-12.32,43.44Z"/>
  <path class="st0" d="M2396.35,1234.27c-14.97,2.12-25.93,9.29-37.78,14.21-12.27,5.1-14.28,4.65-20.49-6.64-20.55-37.36-41.13-74.71-61.72-112.05-1.59-2.88-3.34-5.67-5.5-9.32-30.57,20.53-60.64,40.72-90.85,61.01,4.43,10.12,8.59,19.61,13.01,29.69,4.03-1.85,7.03-3.15,9.96-4.59,15.54-7.66,31.01-15.45,46.6-22.99,6.87-3.32,9.22-2.69,13.34,3.6,13.87,21.19,27.59,42.47,41.27,63.79,1.16,1.81,1.57,4.11,2.12,5.64-44.15,17.52-87.63,34.77-132.13,52.42-2.72-4.7-5.47-8.74-7.52-13.11-16.26-34.68-32.33-69.46-48.6-104.14-2.89-6.17-6.4-12.05-10.27-19.26,1.74-1.31,4.14-3.41,6.82-5.08,57.94-36.18,115.91-72.31,173.89-108.42,1.96-1.22,4-2.46,6.17-3.14,3.12-.98,5.93-.36,7.61,2.92,1.07,2.07,2.29,4.06,3.4,6.11,28.47,52.78,56.95,105.55,85.39,158.35,1.69,3.13,3.09,6.41,5.29,10.99Z"/>
  <path class="st0" d="M1995.74,606.2c.33-2.64.43-5.87,1.14-8.95,15.21-65.85,30.49-131.69,45.76-197.53.08-.32.21-.63.28-.96,2.92-11.95,4.07-12.68,15.53-9.27,41.8,12.46,83.58,24.95,125.37,37.44,16.59,4.96,33.18,9.9,49.73,14.96,3,.92,5.84,2.35,9.2,3.73-8.32,11.73-11.25,24.44-15.96,36.36-4.5,11.36-3.93,14.16-20.02,9.6-36.19-10.27-72.26-20.92-108.39-31.39-7.63-2.21-15.31-4.28-24.14-6.74-7.12,36.16-14.11,71.63-21.16,107.39,10.09,4.05,19.48,7.82,29.61,11.89,1.32-2.85,2.58-5.06,3.39-7.42,5.71-16.7,11.26-33.45,16.99-50.14,3.26-9.5,5.03-10.5,14.66-8.45,23.12,4.93,46.22,9.92,69.32,14.97,3.07.67,6.04,1.83,8.6,2.62-18.97,44.02-37.49,86.98-56.45,130.98-5.28-1.4-10.09-2.3-14.63-3.95-37.57-13.61-75.07-27.4-112.64-41-4.56-1.65-9.43-2.45-16.19-4.16Z"/>
  <path class="st0" d="M493.65,1603.95c5.11-12.81,9.71-24.09,14.11-35.44,5.62-14.5,7.31-15.05,21.95-10.75,41.52,12.21,83.14,24.09,124.74,36.06,1.84.53,3.81.61,6.53,1.02,7.07-35.97,14.04-71.44,20.99-106.77-10.22-4.07-19.63-7.81-29.94-11.92-1.43,3.54-2.78,6.46-3.81,9.48-5.46,16.08-10.78,32.2-16.26,48.27-3.16,9.27-4.59,10.23-13.69,8.34-23.8-4.93-47.57-10.01-71.33-15.14-2.75-.59-5.36-1.86-7.55-2.64,18.99-43.95,37.56-86.92,56.57-130.93,5.21,1.45,9.99,2.46,14.54,4.11,36.63,13.26,73.2,26.69,109.85,39.91,5.75,2.08,11.78,3.39,19.11,5.46-.43,2.74-.78,6.54-1.63,10.21-13.59,58.71-27.25,117.4-40.88,176.1-1.81,7.78-3.44,15.61-5.34,23.37-2.12,8.67-4.2,9.96-12.52,7.48-59.66-17.8-119.3-35.67-178.93-53.56-2.44-.73-4.74-1.94-6.5-2.68Z"/>
  <path class="st0" d="M1946.72,1898.66c-9.3-3.91-17.43-7.4-25.62-10.74-5.55-2.26-11.16-4.35-16.79-6.42-4.85-1.78-6.77-5.09-5.62-10.13.66-2.92,1.25-5.86,2.08-8.73,12.17-42.2,24.39-84.4,36.55-126.6.35-1.22.34-2.55.65-4.97-35.71-7.04-71.12-14.03-106.88-21.08-4.01,10.13-7.84,19.78-11.94,30.12,4.02,1.54,7.01,2.79,10.07,3.83,16.08,5.44,32.2,10.76,48.25,16.27,8.48,2.91,9.79,4.93,8.07,13.15-5.12,24.43-10.4,48.82-15.73,73.21-.47,2.15-1.69,4.14-2.45,5.93-38.91-16.78-77.27-33.31-115.64-49.85-3.36-1.45-6.68-3.02-10.09-4.34-3.87-1.49-4.92-4.13-3.75-7.92.99-3.17,1.84-6.39,2.97-9.51,13.43-36.91,26.96-73.78,40.29-110.72,1.87-5.17,2.82-10.68,4.56-17.46,2.97.4,6.75.59,10.39,1.43,49.94,11.52,99.86,23.12,149.78,34.71,15.88,3.69,31.76,7.41,47.64,11.09,11.43,2.65,12.39,4.07,9.19,14.8-17.52,58.68-35.06,117.34-52.67,175.99-.9,3-2.43,5.81-3.34,7.93Z"/>
  <path class="st0" d="M1034.89,1023.44c16.5,13.12,31.59,25.12,46.68,37.12,2.35,1.87,4.77,3.64,7.03,5.6,5.65,4.91,5.17,8.72-1.9,11.67-5.82,2.43-11.95,4.14-17.95,6.14-20.53,6.84-41.11,13.5-61.55,20.6-6.2,2.15-11.26,1.81-16.91-1.83-36.68-23.61-73.55-46.94-110.35-70.37-1.4-.89-2.87-1.73-4.13-2.8-2.95-2.49-2.73-5.14.06-7.57,1.5-1.3,3.19-2.41,4.85-3.51,39.61-26.44,79.3-52.76,118.76-79.42,5.4-3.65,9.53-3.97,15.42-1.11,23.95,11.65,48.19,22.68,72.29,34.03,3.14,1.48,6.04,3.43,10.63,6.07-21.6,15.57-41.69,30.06-62.94,45.38Z"/>
  <path class="st0" d="M1717.37,672.89c-.72,5.78-.96,9.67-1.71,13.47-9.2,46.33-18.52,92.65-27.68,138.99-.96,4.88-2.46,8.32-7.81,10.2-26.37,9.24-52.58,18.94-78.88,28.4-2.65.95-5.48,1.4-10.09,2.55,4.15-26.11,8.03-50.52,12.09-76.09-25.62,1.66-50,6.17-76.51,7.75,1.22-5.47,1.36-9.47,2.96-12.75,12.14-24.81,24.63-49.44,36.83-74.22,2.45-4.98,6.23-7.45,11.42-8.6,42.88-9.47,85.74-19.02,128.62-28.48,2.82-.62,5.76-.68,10.75-1.23Z"/>
  <path class="st0" d="M1413.82,754.6c-15.71-21.8-30.07-41.71-45.13-62.6-16.49,19.61-31.14,39.67-46.82,58.08-5.96-1.45-7.36-5.13-8.66-9.01-8.74-26.21-17.47-52.43-26.35-78.6-1.76-5.18-1.14-9.63,1.78-14.2,24.04-37.61,47.97-75.3,71.99-112.92,1.21-1.89,2.94-3.44,5.08-5.91,2.23,2.04,4.51,3.44,5.86,5.46,27.64,41.23,55.14,82.56,82.78,123.79,2.52,3.76,2.6,6.85.62,11.01-12.05,25.25-23.74,50.66-35.64,75.97-1.2,2.55-2.96,4.83-5.51,8.91Z"/>
  <path class="st0" d="M1719.32,1374.17c-5.02-.48-7.97-.51-10.81-1.07-46.71-9.25-93.38-18.67-140.12-27.74-6.95-1.35-10.63-4.28-13.01-11.26-8.49-24.89-17.85-49.49-26.79-74.22-1.17-3.24-1.86-6.66-3.27-11.83,26.38,4.23,50.76,8.14,75.84,12.16.15-2.51.47-4.11.29-5.64-2.21-19.19-4.6-38.36-6.69-57.56-.44-4.04-3.05-9.07,1.51-12.01,4.21-2.7,8.28.54,12.1,2.44,23.26,11.58,46.41,23.37,69.79,34.69,6.6,3.19,10.17,7.53,11.74,14.76,9.02,41.65,18.42,83.22,27.63,124.83.76,3.45,1.02,7.01,1.79,12.45Z"/>
  <path class="st0" d="M1637.18,1070.93c22.03-15.9,42.14-30.41,62.96-45.44-20.24-16.14-39.43-31.43-58.15-46.35,1.12-6.09,4.77-7.65,8.62-8.94,26.54-8.86,53.15-17.52,79.59-26.66,5.97-2.06,10.27,0,14.87,2.93,22.19,14.16,44.41,28.28,66.62,42.42,14.05,8.95,28.13,17.87,42.13,26.89,2.95,1.9,5.63,4.23,9.48,7.15-3.49,2.96-5.76,5.29-8.41,7.06-40.15,26.88-80.37,53.67-120.53,80.54-3.77,2.52-6.89,3.95-11.8,1.57-25.18-12.19-50.63-23.85-75.95-35.76-2.59-1.22-4.99-2.85-9.44-5.43Z"/>
  <path class="st0" d="M1144.01,1182.56c-4.29,26.41-8.18,50.33-12.31,75.73,25.45-.9,49.78-6.36,76.11-7.22-.65,4.42-.36,8.13-1.76,11-12.44,25.41-25.24,50.65-37.79,76.01-2.47,5-6.34,7.11-11.6,8.25-32.52,7.08-64.98,14.41-97.46,21.65-10.39,2.32-20.79,4.65-31.2,6.89-9.3,2-11.07.39-9.28-8.76,3.7-18.94,7.56-37.86,11.34-56.78,5.68-28.39,11.55-56.74,16.89-85.2,1.21-6.43,4.09-9.47,10.2-11.58,25.16-8.7,50.11-18,75.18-26.99,3.25-1.16,6.7-1.75,11.68-3.02Z"/>
  <path class="st0" d="M1321.11,1294.16c15.83,21.94,30.19,41.83,45.39,62.91,15.94-20,31.18-39.11,45.98-57.67,6.3.11,7.88,3.91,9.15,7.7,9,26.83,17.75,53.75,26.95,80.51,2.08,6.04-.45,10.27-3.33,14.8-22.19,34.84-44.38,69.68-66.57,104.53-1.79,2.81-3.4,5.76-5.42,8.39-3.14,4.07-5.36,4.04-8.79.1-1.3-1.5-2.31-3.26-3.42-4.92-26.27-39.34-52.44-78.75-78.91-117.96-3.6-5.33-4.03-9.43-1.13-15.38,11.69-23.94,22.68-48.21,34.01-72.32,1.49-3.16,3.46-6.09,6.1-10.68Z"/>
  <path class="st0" d="M1209.76,800.92c-26.71-4.28-50.88-8.16-76.5-12.27,1.33,12.46,2.5,23.61,3.72,34.76,1.24,11.26,2.65,22.5,3.75,33.78.64,6.51-1.89,8.57-8.12,6.93-1.91-.5-3.71-1.47-5.49-2.36-23.54-11.76-46.99-23.73-70.66-35.22-6.28-3.05-9.6-7.06-11.1-14.02-9.2-42.65-18.85-85.19-28.3-127.79-.56-2.52-.66-5.14-1.18-9.35,5,.32,9.14.15,13.11.92,24.2,4.68,48.35,9.58,72.52,14.4,22.21,4.44,44.38,9.06,66.65,13.21,5.95,1.11,8.99,3.67,11.03,9.56,8.7,25.18,18.03,50.14,27.06,75.21,1.19,3.3,1.96,6.75,3.52,12.22Z"/>
  <path class="st0" d="M1179.72,1537.68c3.32-2.41,5.85-4.45,8.57-6.2,31.88-20.58,63.79-41.12,95.69-61.66,1.68-1.08,3.33-2.22,5.08-3.17,3.07-1.67,5.76-1.23,7.8,1.78,1.12,1.65,2.24,3.31,3.32,4.99,21.27,33.02,42.54,66.04,63.8,99.07,1.08,1.68,2.15,3.36,3.2,5.07,2.08,3.4,1.66,6.3-1.79,8.56-1.67,1.09-3.32,2.22-5,3.3-31.34,20.19-62.69,40.37-94.03,60.55-1.68,1.08-3.34,2.19-5.04,3.23-3.87,2.37-6.93,1.44-9.28-2.34-.7-1.13-1.44-2.24-2.16-3.36-21.81-33.86-43.64-67.71-65.43-101.58-1.43-2.22-2.64-4.58-4.73-8.23Z"/>
  <path class="st0" d="M1365.11,465.7c38.01-24.47,75.37-48.52,113.44-73.03,2.73,3.6,4.87,6.06,6.61,8.76,21.69,33.58,43.32,67.2,64.96,100.81,1.08,1.68,2.19,3.35,3.15,5.1,1.5,2.76.97,5.12-1.66,6.92-1.1.75-2.2,1.5-3.32,2.22-33.6,21.65-67.2,43.31-100.82,64.94-1.38.89-2.95,1.5-5.26,2.66-1.7-1.74-3.83-3.31-5.17-5.39-22.98-35.52-45.87-71.1-68.76-106.69-.88-1.37-1.48-2.92-3.17-6.32Z"/>
  <path class="st0" d="M1879.98,1212.19c-24.38-37.86-48.3-74.99-72.72-112.92,2.78-2.36,4.77-4.49,7.15-6.02,34.39-22.26,68.82-44.47,103.29-66.6,7.53-4.83,8.55-4.58,13.42,2.95,21.33,33.01,42.62,66.05,63.83,99.13,4.34,6.77,4.18,7.81-2.28,11.99-35.51,22.98-71.09,45.85-106.67,68.72-1.36.88-2.97,1.37-6.02,2.75Z"/>
  <path class="st0" d="M1862.51,794.71c-7.81-1.65-14.92-3.12-22-4.65-33.17-7.19-66.34-14.37-99.5-21.61-10.01-2.19-10.73-3.07-8.71-12.5,8.58-40.02,17.25-80.02,25.99-120.01,1.63-7.46,2.74-8.13,10.32-6.52,38.73,8.27,77.44,16.58,116.14,24.99,7.55,1.64,8.6,3,7.05,10.23-8.84,41.32-17.86,82.61-26.86,123.9-.34,1.57-1.17,3.03-2.42,6.17Z"/>
  <path class="st0" d="M1731.07,1549.57c-15.19-3.31-29.18-6.36-43.17-9.4-27.33-5.94-54.68-11.82-82-17.84-8.34-1.84-8.82-2.64-7.06-10.75,8.3-38.41,16.64-76.8,25.04-115.19,1.89-8.64,2.72-9.11,11.58-7.21,39.39,8.46,78.78,16.97,118.17,25.47.98.21,1.93.51,2.9.78,7.04,1.94,7.62,2.61,6.16,9.61-3.46,16.63-7.11,33.21-10.68,49.82-4.77,22.14-9.51,44.28-14.33,66.4-.91,4.2-1.54,8.92-6.6,8.31Z"/>
  <path class="st0" d="M1007.18,500.12c8.57,1.81,18.99,3.98,29.4,6.23,30.24,6.55,60.47,13.14,90.71,19.71,1.62.35,3.24.76,4.86,1.14,3.88.91,5.66,3.03,4.64,7.23-1.17,4.85-2.01,9.78-3.06,14.66-7.31,33.82-14.63,67.64-21.96,101.46-2.31,10.68-3.21,11.26-14.22,8.88-39.02-8.45-78.04-16.92-117.05-25.42-9.13-1.99-9.82-3.04-7.84-12.2,8-37.07,16.06-74.14,24.1-111.2.42-1.95.94-3.88,1.34-5.84.81-4,3.25-5.58,9.08-4.64Z"/>
  <path class="st0" d="M809.41,1026.74c-2.5-3.43-4.55-5.98-6.31-8.72-20.58-31.89-41.12-63.81-61.66-95.72-.54-.84-1.11-1.66-1.61-2.53-3.54-6.18-3.34-7.51,2.29-11.41,3.83-2.65,7.82-5.07,11.74-7.6,29.95-19.29,59.89-38.59,89.84-57.87,1.96-1.26,3.95-2.48,5.91-3.74,3.54-2.29,6.25-1.32,8.38,2.08,1.06,1.69,2.18,3.35,3.26,5.03,20.18,31.35,40.37,62.71,60.55,94.06,1.08,1.68,2.16,3.36,3.21,5.06,2.1,3.38,1.73,6.29-1.67,8.6-1.38.93-2.77,1.85-4.17,2.75-33.58,21.65-67.15,43.3-100.75,64.91-2.48,1.59-5.13,2.92-9,5.09Z"/>
  <path class="st0" d="M1003.73,1288.22c-3.44,16.06-6.7,31.37-10,46.66-5.34,24.73-10.69,49.46-16.06,74.19-.35,1.63-.76,3.24-1.22,4.84-1.82,6.29-2.73,7.08-9.15,5.86-8.83-1.68-17.57-3.8-26.35-5.71-29.61-6.43-59.23-12.79-88.82-19.29-10.41-2.29-10.51-2.45-8.36-12.44,8.55-39.71,17.14-79.41,25.81-119.09,1.98-9.08,2.22-9.26,11.35-7.31,38.09,8.14,76.17,16.37,114.23,24.64,8.12,1.76,9.06,2.89,8.58,7.62Z"/>
  <path class="st0" d="M835.81,1033.22c29.99,15.19,59.08,30.28,88.54,45.69-1.46,3.72-2.19,6.23-3.37,8.51-20.6,39.98-41.24,79.93-61.92,119.87-4.44,8.58-5.22,8.85-13.69,4.5-24.29-12.49-48.56-25.04-72.78-37.67-7.96-4.15-8.21-5.03-4.05-13.09,20.6-39.98,41.26-79.92,61.97-119.85,1.32-2.54,3.18-4.81,5.3-7.96Z"/>
  <path class="st0" d="M1753.04,1394.21c-1.26-.99-3.28-2.06-4.5-3.71-1.13-1.53-1.45-3.68-2.06-5.58-8.08-25.34-16.17-50.68-24.21-76.04-3.18-10.03-3.03-10.42,6.62-13.51,42.43-13.6,84.87-27.14,127.33-40.65,9.43-3,9.97-2.75,12.87,6.28,8.34,25.96,16.61,51.94,24.83,77.93,2.86,9.03,2.5,9.73-6.78,12.69-42.44,13.55-84.91,27.02-127.37,40.52-1.9.6-3.8,1.17-6.73,2.07Z"/>
  <path class="st0" d="M982.04,654.81c1.29.94,3.22,1.75,4.16,3.2,1.22,1.9,1.7,4.3,2.41,6.52,8,25.05,15.98,50.11,23.97,75.16.4,1.27.89,2.51,1.27,3.79,1.37,4.52.51,7.89-4.64,9.14-1.29.31-2.52.87-3.78,1.27-41.87,13.34-83.73,26.68-125.6,40.01-.95.3-1.91.59-2.87.86-7.48,2.1-8.22,1.85-10.7-5.84-6.85-21.22-13.55-42.5-20.3-63.75-1.41-4.44-2.82-8.88-4.21-13.33-3.5-11.23-3.48-11.38,7.37-14.86,25.99-8.33,52.01-16.6,78.02-24.88,15.54-4.95,31.09-9.87,46.64-14.79,2.53-.8,5.09-1.53,8.27-2.49Z"/>
  <path class="st0" d="M1558.02,1538.91c-.86,2.18-1.62,4.69-2.8,6.98-12.49,24.29-25.02,48.57-37.62,72.81-4.52,8.7-5.3,8.99-13.66,4.67-39.68-20.45-79.34-40.95-118.97-61.5-8.7-4.51-9-5.35-4.71-13.7,12.47-24.3,25.03-48.56,37.64-72.8,1.33-2.56,3.15-4.86,4.6-7.06,11.14,3.31,129.51,64.97,135.52,70.59Z"/>
  <path class="st0" d="M1737.23,639.71c-1.57,1.25-3.4,3.53-5.75,4.42-6.52,2.47-13.26,4.37-19.91,6.49-20.27,6.48-40.52,13-60.81,19.4-8.64,2.73-9.46,2.36-12.17-6.15-13.75-43.07-27.44-86.17-41.07-129.28-2.6-8.23-2.33-8.8,5.79-11.42,26.58-8.56,53.2-17.03,79.83-25.42,7.51-2.36,8.58-1.89,10.91,5.39,13.94,43.36,27.75,86.76,41.59,130.16.5,1.58.81,3.22,1.6,6.4Z"/>
  <path class="st0" d="M1222.46,422.58c12.5,3.83,129.81,65.15,135.46,70.8-.9,2.18-1.72,4.66-2.9,6.96-12.49,24.29-25,48.57-37.58,72.8-4.39,8.45-5.27,8.74-13.79,4.34-39.67-20.46-79.31-40.96-118.94-61.5-8.7-4.51-8.9-5.09-4.48-13.69,12.34-23.99,24.75-47.94,37.22-71.87,1.47-2.83,3.44-5.41,5.01-7.86Z"/>
  <path class="st0" d="M1881.21,832.88c30.24,15.5,59.41,30.44,89.15,46.14-2.03,4.53-3.33,7.86-4.96,11.01-19.85,38.49-39.74,76.95-59.62,115.41-.92,1.78-1.9,3.52-2.81,5.3-1.88,3.67-4.72,4.41-8.32,2.74-1.51-.7-2.98-1.48-4.46-2.24-23.67-12.24-47.35-24.46-70.99-36.75-9.01-4.68-9.17-5.22-4.4-14.48,20.32-39.37,40.67-78.71,61.05-118.05,1.35-2.6,2.98-5.06,5.36-9.08Z"/>
  <path class="st0" d="M1090.45,1377.11c1.28,1.16,3.44,2.5,4.71,4.43,1.24,1.88,1.6,4.34,2.31,6.57,13.11,41.24,26.22,82.49,39.32,123.74.4,1.27.89,2.51,1.23,3.8,1.74,6.71,1.53,7.66-4.74,9.69-27.24,8.82-54.52,17.51-81.84,26.07-7.08,2.22-8.32,1.27-11.03-7.21-10.85-33.93-21.61-67.89-32.41-101.83-2.72-8.57-5.49-17.12-8.15-25.7-2.91-9.4-2.71-9.88,6.4-12.84,18.05-5.86,36.13-11.61,54.21-17.38,7.61-2.43,15.24-4.81,22.86-7.2,1.9-.6,3.82-1.14,7.13-2.11Z"/>
</svg>