<?xml version="1.0" encoding="UTF-8"?>
<svg id="Layer_0_xA0_Image" xmlns="http://www.w3.org/2000/svg" version="1.1" viewBox="0 0 2048 2732">
  <!-- Generator: Adobe Illustrator 30.2.1, SVG Export Plug-In . SVG Version: 2.1.1 Build 1)  -->
  <defs>
    <style>
      .st0 {
        fill: #908d7f;
      }
    </style>
  </defs>
  <path class="st0" d="M425.55,1509.45c-25.21-5.34-50.93-10.77-76.64-16.23-46.57-9.91-93.15-19.78-139.69-29.87-3.56-.77-9.34.47-9.32-6.67,17.88-4.22,35.63-8.4,53.38-12.59,43.42-10.27,86.97-20.05,130.17-31.15,11.84-3.04,23.43-4.08,35.36-4.28,91.63-1.51,183.26-2.89,274.89-4.61,25.28-.47,50.54-2.1,75.83-2.86,6.59-.2,11.41-2.52,16.07-9.35-4-.22-7.02-.57-10.03-.54-70.98.87-141.96,2.07-212.94,2.6-53.98.4-107.96.04-161.94-.23-4.48-.02-9.26-1.24-13.37-3.09-56.48-25.44-112.88-51.08-169.27-76.73-3.45-1.57-7.86-2.43-8.08-8.99,3.13-.89,6.39-2.21,9.76-2.7,62.28-9.12,124.58-18.08,186.85-27.26,4.95-.73,8.66.09,12.92,2.95,40.65,27.32,81.43,54.44,122.41,81.26,3.54,2.32,8.74,2.93,13.18,2.94,72.32.13,144.64.03,216.95-.02,2.64,0,5.28,0,8.18,0-4.9-9.73-14.16-15.84-24.05-15.97-66.64-.88-133.28-1.81-199.92-2.43-8.35-.08-15.42-2.07-22.42-6.68-29.21-19.25-58.71-38.06-88.06-57.1-3.17-2.06-6.03-4.6-11.16-8.55,5.32-1.72,8.11-3.18,11.02-3.48,25.84-2.7,51.7-5.2,77.56-7.75.99-.1,2.04.02,2.99-.24,17.88-4.77,33.55.92,49.56,8.67,32.97,15.96,66.48,30.81,99.91,45.79,5,2.24,10.74,3.4,16.23,3.84,20.57,1.64,41.21,2.52,61.77,4.24,6.78.57,11.74-1.23,15.16-6.91,5.16-8.57,13.33-12.19,22.42-15.11,23.14-7.44,46.2-15.14,69.09-23.3,5.52-1.97,9.37-1.34,13.64,2.19,5.13,4.24,10.78,7.85,15.92,12.08,2.69,2.2,4.78,5.13,7,7.58-.95,1.8-1.2,3.17-1.89,3.44-9.27,3.66-11.26,11.14-11.19,20.08.04,5.62-.45,11.29-1.19,16.86-.27,2.07-1.66,4.2-3.05,5.86-1.86,2.23-4.23,4.04-7.79,7.33,4.69.52,7.49.99,10.31,1.1,10.66.42,21.32.69,31.97,1.09,2.66.1,5.36.21,7.95.76,4.97,1.06,6.12,2.91,4.43,7.76-2.29,6.56-5,12.98-7.97,20.61,3.73,0,6.54.24,9.28-.05,7.62-.81,15.25-1.58,22.8-2.86,5.18-.88,9.72-.39,14.33,2.33,4.52,2.66,9.49,4.54,14.18,6.72-2.29,7.34-16.57,24.65-26.69,32.17-1.65-2.72-3.33-5.28-4.79-7.96-1.4-2.59-2.55-5.3-4.2-8.78-13.58,7.12-26.69,13.98-41.06,21.51-5.16-9.21-10.14-17.38-14.27-25.96-1.05-2.18.24-5.79,1.15-8.52,1.45-4.32,3.49-8.45,5.96-14.25-11.01,0-20.59-.82-29.96.2-12,1.31-20.45-2.06-25.52-13.45-1.99-4.46-5.16-8.4-8.39-13.51,4.84-4.23,9.06-8.38,13.76-11.89,4.85-3.62,7.75-7.64,7.6-14.08-.13-5.56,1-11.14,1.75-18.49-19.79,6.38-37.77,13.27-56.06,19.89.87,1.48,1.11,2.42,1.52,2.5,10.65,2.15,15.59,10.41,20.64,18.78,5.66,9.37,11.73,18.5,17.73,27.91-1.48,2.3-2.64,4.27-3.97,6.12-16.45,23.05-33.04,46.01-49.29,69.21-2.97,4.23-6.09,6.28-11.31,6.61-18.95,1.22-37.89,2.66-56.78,4.58-5.48.56-11.1,2.28-16.08,4.67-44.16,21.15-88.22,42.5-132.2,64.01-6.56,3.21-12.77,4.34-20.1,3.02-32.77-5.89-65.64-11.29-98.47-16.85-3.89-.66-7.8-1.18-13.04-1.97,1.3-2.33,1.92-4.46,3.32-5.7,1.96-1.73,4.5-2.81,6.81-4.15,30.58-17.67,61.18-35.29,91.71-53.02,7.72-4.48,14.93-7.84,24.86-7.2,15.52.99,31.25-1.18,46.88-2.08,28.61-1.64,57.22-3.24,85.81-5.04,22.6-1.43,45.18-3.24,67.79-4.65,5.75-.36,8.7-2.62,8.28-8.96-8.16,0-16.35-.32-24.51.06-34.61,1.58-69.22,3.38-103.83,5.07-27.95,1.36-55.92,2.58-83.86,4.14-3.82.21-7.92,1.35-11.27,3.19-36.77,20.25-73.46,40.63-110.02,61.24-4.51,2.54-8.11,6.68-13.4,11.15Z"/>
  <path class="st0" d="M1640.21,807.67c-.51,1.14-.78,2.49-1.56,3.4-41.17,47.66-82.61,95.09-123.33,143.12-5.7,6.73-11.81,12.41-18.67,17.57-73.77,55.5-147.66,110.85-221.3,166.51-21.77,16.46-42.77,33.95-64.38,50.62-5.55,4.28-6.18,9.62-7.09,17.33,4.34-3.13,7.3-5.19,10.18-7.34,56.08-41.88,111.96-84.02,168.28-125.58,43.96-32.45,88.41-64.23,132.77-96.14,3.39-2.44,7.57-4.3,11.66-5.16,60.64-12.63,121.32-25.1,182.04-37.38,3.57-.72,9.4-.95,10.91,1.05,3.21,4.24-2.26,6.83-4.87,9.38-44.78,43.83-89.7,87.53-134.49,131.36-3.78,3.7-7.56,5.42-13.09,5.61-41.63,1.41-83.25,3.28-124.87,5.01-1.33.06-2.69.43-3.98.27-16.71-2.01-29.58,5.26-42.66,14.99-53.48,39.78-107.58,78.71-161.44,117.98-2.59,1.89-5.03,3.98-9.29,7.36,7.84.74,13.66,1.97,19.38,1.59,3.65-.24,7.52-2.33,10.64-4.51,43.44-30.34,86.78-60.8,130.1-91.31,12.53-8.83,24.77-18.08,37.46-26.67,3.67-2.48,8.38-4.46,12.74-4.74,37.25-2.34,74.53-4.25,111.8-6.25,3.19-.17,6.41-.02,8.99-.02,2.38,4.94-.2,6.94-2.39,8.88-25.9,23.04-51.8,46.08-77.86,68.94-2.07,1.81-5.25,2.7-8.07,3.27-41.77,8.51-83.56,16.95-125.36,25.28-7.6,1.51-14.47,4.09-21.04,8.47-16.33,10.89-33.04,21.23-49.78,31.5-5.21,3.2-8.89,6.71-8.32,13.32,1.02,11.78-4.87,20.74-11.52,29.76-13.84,18.77-27.26,37.87-40.52,57.06-2.77,4.01-5.53,6.05-10.47,5.78-7.32-.39-14.68.06-21.99-.37-3.43-.2-6.79-1.63-9.64-2.37-.39-1.84-.85-2.68-.6-3.09,4.9-8.2,3.42-15.69-2.29-22.83-1.03-1.29-1.62-2.91-2.5-4.32-2.63-4.21-6.45-8.11-7.63-12.69-1.06-4.15.74-9.03,1.48-15.25-9.07,6.03-17.05,11.32-25.02,16.62-5,3.32-9.89,6.82-15.02,9.91-6.33,3.82-8.46,2.9-10.59-4.43-1.84-6.31-3.38-12.7-5.44-20.54-6.4,5.86-12.33,10.25-16.96,15.75-9.36,11.1-21.57,14.63-35.23,15.24-2.87-7.7-.93-32.65,3.68-41.32,5.1,2.66,10.23,5.34,16.04,8.37,3.58-7.27,6.91-14.09,10.31-20.88,3.24-6.48,6.55-12.93,10.43-20.58,9.26,4.22,17.8,7.74,25.91,12.05,2.18,1.16,3.58,4.55,4.45,7.2,1.55,4.68,2.42,9.58,3.93,15.85,8.83-6.43,17.39-11.52,24.54-18.15,8.79-8.15,17.09-8.76,27.83-3.93,15.97,7.18,16.33,4,11.23,21.97-2.2,7.76-1.7,14.1,3.13,20.48,2.93,3.88,5.16,8.29,8.36,13.53,11.49-16.92,22.27-32.8,33.04-48.66-1.23-.88-1.87-1.62-2.18-1.5-9.83,3.76-18.79.93-27.82-3.12-8.2-3.67-16.64-6.83-25.11-9.86-4.3-1.54-6.36-3.62-6.36-8.61,0-29.33-.25-58.66-.74-87.99-.08-4.79,2.36-7.24,5.46-9.89,14.43-12.36,28.94-24.63,43.11-37.28,3.87-3.45,7.37-7.74,9.83-12.29,23.16-42.78,46.24-85.6,68.86-128.65,4.29-8.17,9.94-13.45,18.17-17.38,28.25-13.5,56.23-27.57,84.29-41.48,4.43-2.2,8.73-4.67,14.28-7.66.39,2.45,1.12,4.45.88,6.32-.25,1.9-1.46,3.68-2.28,5.51-15.7,35.31-31.41,70.61-47.07,105.93-2.04,4.61-3.87,9.08-9.5,10.69-2.08.59-3.74,2.71-5.54,4.18-33.84,27.59-67.78,55.06-101.47,82.84-18.75,15.46-37.08,31.43-56.07,47.58.77,2.66,1.54,5.34,2.59,9.02,2.94-2.17,5.06-3.61,7.05-5.21,52.54-42.09,105.05-84.23,157.64-126.26,4.55-3.63,7.85-7.79,10.31-13.13,16.82-36.63,33.94-73.12,50.82-109.72,1.79-3.87,3.64-8.16,3.69-12.28.07-5.89,3.22-7.94,7.8-9.97,66.08-29.29,132.11-58.71,198.19-88.01,2.48-1.1,5.32-1.37,7.99-2.03l1.14,2.38Z"/>
  <path class="st0" d="M915.62,1512.17c.66,19.87,1.28,38.79,1.9,57.72,1.41-.08,2.41.12,2.6-.19,5.61-8.99,14.56-11.85,24.24-13.91,9.11-1.94,18.1-4.49,27.05-7.09,4.19-1.22,6.67-.13,9.24,3.4,17.28,23.7,34.69,47.3,52.29,70.76,2.52,3.36,2.81,6.23,1.87,10.1-4.57,18.77-9.06,37.56-13.11,56.44-1.16,5.4-1.62,11.27-.89,16.71,6.7,49.85,13.69,99.66,20.74,149.45.8,5.67-.83,10.38-3.39,15.22-15.27,28.86-30.43,57.77-45.58,86.7-2.42,4.63-4.6,9.39-6.94,14.19-5.39-1.03-5.06-5.17-5.78-8.52-6-28.01-11.95-56.02-17.92-84.03-2.29-10.75-4.48-21.52-6.9-32.24-.9-4-1.45-7.55,1.13-11.4,1.77-2.65,2.27-6.2,3.11-9.41,11.05-41.86,22.2-83.69,33.02-125.61,5.99-23.2,11.4-46.54,17.25-70.6-1.9-1.67-4.04-3.55-6.75-5.94-1.12,2.44-2.15,4.07-2.64,5.86-10.06,36.6-20.06,73.22-30.07,109.84-7.9,28.91-15.74,57.84-23.75,86.72-1.63,5.89-1.96,11.47-.72,17.62,7.85,38.84,15.17,77.8,23,116.64,1.35,6.7,4.31,13.07,6.96,20.88-.7,1.33-1.97,4.01-3.45,6.57-35.98,62.33-72,124.63-107.97,186.97-1.68,2.91-2.87,6.28-8.01,4.51.79-10.02,1.58-20.2,2.41-30.38,3.18-38.85,6.47-77.7,9.52-116.56,1.41-17.91,2.25-35.86,3.59-53.77.24-3.26,1.57-6.45,2.54-9.63,28.11-91.69,56.37-183.35,84.3-275.1,7.56-24.82,14.02-49.97,21.24-74.9,1.89-6.52-.05-11.43-4.8-17.33-2.38,7.37-4.44,13.55-6.37,19.77-20.4,65.85-40.47,131.8-61.27,197.52-15.88,50.15-32.61,100.02-49.19,149.94-1.42,4.26-3.95,8.49-6.98,11.82-41.69,45.88-83.56,91.61-125.38,137.37-.67.74-1.22,1.72-2.06,2.16-2.22,1.19-4.89,3.42-6.78,2.93-3.75-.98-2.68-4.7-2.18-7.65,4.66-27.25,9.33-54.49,14-81.74,5.8-33.81,11.78-67.59,17.26-101.46,1.4-8.65,4.71-14.64,12.01-20.27,37.19-28.71,73.79-58.21,110.43-87.63,2.91-2.34,5.51-5.95,6.66-9.48,23.13-70.92,46.04-141.91,68.97-212.89.48-1.48.79-3.02,1.5-5.8-11.78,5.77-20.38,11.28-24.57,24.06-20.41,62.34-42.01,124.3-62.91,186.48-2.45,7.29-6.28,12.81-12.24,17.59-27.56,22.1-54.86,44.52-82.33,66.74-2.91,2.35-6.28,4.14-9.44,6.19-.72-.4-1.45-.8-2.17-1.2.18-3.42-.11-6.94.61-10.24,7.07-32.54,14.24-65.06,21.62-97.54.69-3.02,2.53-6.12,4.64-8.44,29.91-32.72,59.99-65.28,89.93-97.97,2.43-2.65,4.84-5.66,6.17-8.94,8.62-21.28,16.8-42.74,25.45-64.01,1.87-4.6,1.81-8.49-1.35-12-8.46-9.43-9.12-20.65-8.96-32.58.32-22.99-.04-46-.55-68.99-.12-5.28,1.14-8.79,5.63-11.64,5.91-3.74,11.35-8.2,17.24-11.97,2.92-1.87,6.39-2.89,9.87-4.41,1.26,2.38,2.6,3.79,2.67,5.25.34,7.49,4.76,10.98,11.34,13.24,5.97,2.05,11.5,5.43,17.52,7.22,3.76,1.12,5.54,3.09,6.84,6.36.97,2.42,2.3,4.7,4.37,8.84,2.16-5.64,3.76-9.74,5.29-13.86,3.49-9.36,6.89-18.76,10.44-28.1,4.02-10.59,6.09-11.15,14.54-4.13,4.31,3.58,8.61,7.19,14.22,11.88,2.11-10.07,4.49-18.61,5.56-27.3,1.08-8.77,4.54-15.75,11.13-21.48,2.69-2.34,4.97-5.15,7.38-7.67,6.43,4.82,18.71,24.46,22,35.31-2.72.76-5.39,1.72-8.14,2.22-2.89.52-5.87.61-10.23,1.02,2.48,15.12,4.87,29.67,7.38,45-10.08,3.67-19.76,5.6-29.57,6.49-2.16.2-4.77-1.99-6.79-3.56-3.65-2.85-7-6.06-11.27-9.82-1.28,2.92-2.44,5.1-3.2,7.42-3.32,10.13-6.61,20.26-9.72,30.45-1.16,3.81-3.04,6.4-7.15,7.41-6.46,1.59-12.88,3.41-19.23,5.42-4.79,1.52-7.71-.03-9.36-4.59-.45-1.25-.98-2.48-1.49-3.71-7.22-17.51-10.44-20.15-31.17-24.72Z"/>
  <path class="st0" d="M1746.77,1778.37c-1.13-.13-2.48,0-3.58-.47-57.71-24.26-115.27-48.88-173.22-72.55-9.11-3.72-17.2-8.36-25.05-13.86-76.39-53.57-152.69-107.27-229.2-160.66-21.01-14.66-42.76-28.26-63.91-42.74-5.71-3.91-10.89-3.31-17.86-.99,3.56,2.69,6.34,4.93,9.25,6.98,57.41,40.59,115.02,80.9,172.21,121.8,44.17,31.58,87.85,63.84,131.63,95.97,3.37,2.47,6.47,5.86,8.54,9.48,30.89,54.1,61.6,108.3,92.31,162.51,2.01,3.56,5.47,7.25.07,12.24-2.7-1.27-5.66-2.53-8.5-4.03-55.44-29.13-110.83-58.36-166.36-87.31-5.56-2.9-8.05-6.81-10.12-12.5-14.34-39.43-29.75-78.48-43.48-118.12-5.5-15.88-14.22-27.19-27.98-36.9-54.71-38.63-108.66-78.34-162.89-117.64-2.39-1.73-4.85-3.36-8.11-4.55,1.7,9.69,1.26,19.4,10.94,26.54,53.62,39.57,106.8,79.74,160.32,119.44,6.72,4.98,11.27,10.69,14.22,18.54,12.32,32.73,25.13,65.26,37.65,97.91,1.35,3.53,2.01,7.32,3.61,13.33-4.82-1.48-7.68-1.82-9.97-3.15-29.65-17.27-59.25-34.64-88.75-52.17-2.39-1.42-4.44-3.96-5.84-6.43-21.67-38.26-43.11-76.66-64.9-114.86-2.72-4.76-6.69-9.08-10.88-12.67-15.94-13.63-32.32-26.74-48.28-40.35-4.26-3.63-8.41-5.27-13.56-3.05-10.86,4.69-21.06,2.22-31.75-1.39-22.07-7.47-44.4-14.21-66.76-20.8-5.48-1.61-8.43-4.28-9.82-9.74-1.88-7.41-4.77-14.58-6.56-22.01-1.81-7.49.33-9.92,7.97-8.87,4.98.68,8.25-.81,11.19-4.55,2.46-3.14,5.24-6.04,8-8.94,6.19-6.5,10.12-16.55,23.4-12.08l.38-3.89c-2.18-1.33-4.5-2.46-6.5-4.02-9.21-7.16-18.38-14.37-27.44-21.72-2.73-2.22-5.06-4.92-7.79-7.61,5.69-9.12,16.19-10.54,22.78-18.18-8.3-4.7-16.19-9.64-24.5-13.72-6.9-3.38-12.04-7.91-15.01-15.08-1.51-3.65-3.78-6.99-6.37-11.68,13.05-5.8,26.38-7.86,41.53-10.32-1.05,7.26-1.87,12.94-2.85,19.75,14.73,2.16,29.36,4.31,44.55,6.54,1.29,10.6-1.41,20.01-2.38,29.47-.21,2.06-3.04,4.21-5.13,5.65-4.09,2.82-8.51,5.16-13.65,8.2,2.34,2.09,4.08,3.92,6.08,5.38,8.61,6.29,17.22,12.58,26,18.64,3.69,2.55,5.26,5.5,4.81,10.06-.63,6.29-.78,12.64-.92,18.97-.11,4.88-2.29,7.44-7.24,7.53-1,.02-2,.1-2.99.16-19.96,1.35-21.8,2.49-34.26,21.87,18.94,5.53,37.56,10.97,56.45,16.48.09-1.53.38-2.29.12-2.6-6.49-7.75-7.15-16.72-6.18-26.3.97-9.61,1.52-19.27,1.8-28.93.13-4.39,1.84-6.58,5.9-7.92,28.14-9.28,56.27-18.63,84.32-28.18,4.57-1.55,7.69.54,11.09,2.6,16.24,9.84,32.38,19.85,48.77,29.45,4.21,2.46,9.03,4.4,13.81,5.27,49.47,9.02,98.98,17.81,148.51,26.53,5.88,1.03,10.4,3.69,14.52,7.95,23.39,24.2,46.96,48.24,70.47,72.33,3.06,3.14,6.18,6.21,9.28,9.32-.31.79-.61,1.57-.92,2.36-3.44,0-6.9.29-10.3-.05-22.21-2.21-44.41-4.53-66.61-6.85-16.57-1.73-33.12-3.6-49.69-5.23-4.43-.43-8.34-.97-11.33-5.02-1.68-2.28-4.75-3.57-7.26-5.19-36.12-23.3-72.16-46.72-108.41-69.81-20.78-13.23-41.92-25.9-63.48-39.18-2.2,1.58-4.47,3.22-7.5,5.4,3.18,2.29,5.47,4.06,7.89,5.65,55.7,36.58,111.45,73.09,167.08,109.77,5.74,3.79,11.64,5.79,18.49,6.56,40.05,4.56,80.04,9.52,120.07,14.23,3.23.38,6.85.73,9.77-.33,6.27-2.27,9.7.59,13.57,4.92,43.79,48.93,87.73,97.71,131.63,146.53,4.46,4.95,8.97,9.85,13.49,14.76,2.05,2.23,4.22,4.4,1.56,8.09Z"/>
  <path class="st0" d="M929.04,1318.79c8.29,4.66,15.9,9.35,23.87,13.31,7.16,3.55,12.67,8.2,15.63,15.84,1.41,3.63,3.73,6.91,6.27,11.51-13.27,5.37-26.49,7.04-39.34,10.04-4.22-7.16,1.05-12.71.01-19.79-7.34-1.12-15.08-2.34-22.83-3.49-4.94-.73-9.92-1.22-14.84-2.09-6.64-1.18-7.22-2.02-6.73-8.48.18-2.32.83-4.66.7-6.95-.73-12.68,3.92-21.85,16.38-26.32,1.44-.52,2.56-1.92,4.55-3.49-7.81-5.62-14.61-11.74-22.45-15.87-12.35-6.51-16.92-15.79-14.15-29.21.46-2.25.21-4.65.27-6.98.13-4.79,2.35-7.43,7.38-7.4,1.66,0,3.31-.35,4.97-.49,4.98-.43,9.96-.77,14.92-1.31.85-.09,1.75-.93,2.38-1.64,4.98-5.69,9.91-11.44,16.04-18.54-20.04-5.83-38.55-11.22-58.27-16.96,7.17,15.77,7.23,15.77,6.31,33.98-.51,9.92-1.26,19.83-1.92,30.03-17.65,5.92-34.65,11.63-51.66,17.33-12,4.02-24.1,7.74-35.95,12.17-4.62,1.73-8.02,1.21-12.05-1.3-14.69-9.17-29.77-17.75-44.32-27.14-8.05-5.19-16.57-7.96-25.89-9.59-46.25-8.07-92.44-16.54-138.69-24.59-7.91-1.38-14.08-4.58-19.68-10.46-21.37-22.45-43.22-44.43-64.76-66.72-4.11-4.26-7.63-9.09-12.04-14.4,1.37-2.92,5.31-1.61,8.67-1.27,18.56,1.87,37.11,3.85,55.66,5.83,20.87,2.23,41.73,4.5,62.59,6.74,4.31.46,8.38.85,11.3,5.1,1.58,2.3,4.75,3.54,7.27,5.16,36.4,23.47,72.72,47.07,109.26,70.34,20.22,12.88,40.81,25.2,61.96,38.22,2.09-1.17,4.58-2.57,6.92-3.89-.24-1.15-.16-1.97-.51-2.24-2.09-1.64-4.22-3.23-6.43-4.69-55.98-36.76-111.98-73.48-167.92-110.29-4.55-2.99-9.17-4.92-14.68-5.57-36.39-4.26-72.73-8.89-109.12-13.15-9.48-1.11-18.94-3.87-28.72-.58-1.73.58-5.25-2.23-7.1-4.25-13.74-14.98-27.27-30.16-40.86-45.27-35-38.89-70-77.78-105.01-116.67-.89-.99-2.12-1.83-2.6-2.98-.58-1.4-.54-3.06-.77-4.6,1.75-.17,3.79-1.02,5.22-.42,56.81,23.8,113.4,48.15,170.48,71.3,11.65,4.73,21.78,11.03,31.79,18.05,74.77,52.4,149.43,104.94,224.31,157.17,21.29,14.85,43.26,28.71,64.75,43.28,5.34,3.62,10.31,3.1,17.88.92-4.48-3.31-7.5-5.62-10.6-7.81-57.15-40.37-114.5-80.48-171.42-121.18-44.17-31.58-87.85-63.84-131.62-95.97-3.36-2.47-6.41-5.9-8.48-9.53-30.9-54.09-61.62-108.29-92.32-162.49-1.87-3.3-5.07-6.62-.7-11.78,2.61,1,5.71,1.83,8.49,3.29,56.05,29.39,112.03,58.92,168.14,88.21,4.94,2.58,6.98,6.32,8.78,11.22,16.77,45.63,33.71,91.2,50.85,136.69,1.19,3.17,3.92,6.22,6.72,8.25,60.07,43.73,120.25,87.32,180.43,130.9,1.51,1.09,3.28,1.83,6.21,3.43-1.81-7.4-2.65-13.73-5.01-19.43-1.4-3.37-4.87-6.17-7.96-8.5-53.03-39.79-106.08-79.57-159.34-119.06-6.98-5.18-11.78-11.07-14.85-19.26-12.27-32.74-25.07-65.28-37.62-97.92-1.27-3.3-2.24-6.72-3.24-9.74,5.12-4.35,8.37-.84,11.59,1.01,14.43,8.32,28.74,16.84,43.1,25.28,14.07,8.27,28.26,16.36,42.15,24.92,3.17,1.96,6.05,5.12,7.9,8.38,21.91,38.51,43.58,77.16,65.42,115.71,1.61,2.84,3.6,5.71,6.08,7.78,17.6,14.76,35.45,29.23,53.03,44.01,3.73,3.13,7.34,4.37,11.84,2.53,11.15-4.55,21.79-2.55,32.85,1.21,22.38,7.61,45.02,14.44,67.65,21.28,3.9,1.18,6.56,2.68,7.73,6.67,2.34,7.99,5.08,15.87,7.16,23.92.76,2.92.12,6.21.12,9.22q-15.7,1.33-26.59,13.4c-.22.25-.46.48-.67.74-2.91,3.61-5.19,8.23-8.9,10.55-3.58,2.24-8.64,2.1-14.48,3.3,3.19,2.82,5.48,5.02,7.95,7,9.11,7.28,18.37,14.38,27.41,21.75,7.19,5.86,6.99,8.37-.59,13.36-4.72,3.11-9.49,6.16-14.22,9.25-.25.16-.37.52-1.45,2.16Z"/>
  <path class="st0" d="M1157.94,1589.24c2.15,5.72,4.12,10.99,6.11,16.25,22.61,59.8,45.27,119.59,67.78,179.43,2.16,5.74,5.08,10.56,9.67,14.78,29.69,27.29,59.14,54.83,88.79,82.17,3.12,2.88,6.65,6,10.54,7.2,5.38,1.66,6.36,5.13,6.83,9.68,2.74,26.84,5.49,53.68,8.29,80.52,4.43,42.41,9,84.8,13.22,127.23.55,5.55,3.42,11.57-.96,17.6-1.48-.84-2.98-1.18-3.53-2.09-12.35-20.54-24.49-41.22-36.89-61.73-19.48-32.22-38.62-64.65-58.98-96.31-7.33-11.4-12.18-23.4-16.48-35.94-29.49-85.99-58.89-172.01-88.62-257.91-8.38-24.2-17.96-47.98-26.56-72.1-2.3-6.45-6.74-9.1-13.91-11.6,1.36,4.65,2.23,8.1,3.37,11.46,23.03,67.79,46.41,135.46,69.06,203.37,16.74,50.21,32.66,100.69,48.63,151.15,1.54,4.88,1.76,10.53,1.2,15.67-6.47,59.27-13.21,118.51-19.9,177.76-.37,3.31-.66,6.68-1.55,9.86-.47,1.68-2.28,4.34-3.26,4.24-1.89-.19-3.97-1.71-5.31-3.25-1.48-1.71-2.25-4.06-3.28-6.15-26.09-52.87-51.97-105.84-78.45-158.51-5.06-10.06-6.41-18.61-2.97-29.96,12.54-41.42,23.26-83.38,35.2-124.99,2.7-9.41,2.45-17.77-.62-27.05-22.09-66.69-43.74-133.53-65.55-200.31-.91-2.8-2.01-5.54-3.79-10.39-4.69,10.71-10.42,18.42-6.83,29.8,20.14,63.82,39.64,127.83,59.64,191.69,2.28,7.29,2.83,13.95.79,21.38-9.42,34.36-18.43,68.83-27.65,103.24-.91,3.4-2.27,6.67-3.43,10.03-6.2-.61-6.98-4.98-8.48-8.41-12.18-27.75-24.01-55.66-36.51-83.27-3.69-8.16-5.05-15.8-3.89-24.83,4.94-38.32,9.03-76.74,13.58-115.11,1.27-10.67,1.18-20.93-2-31.52-5.26-17.51-9.32-35.39-13.51-53.2-1.5-6.37-4.13-11.08-10.89-12.59-10.06-2.26-16.35-8.99-22.15-17.14-14.1-19.81-28.71-39.28-43.52-58.58-3.31-4.31-3.93-7.89-2.02-12.75,2.55-6.5,4.31-13.32,6.86-19.82,1.25-3.19,3.52-5.98,5.43-9.11,2.23.93,3.87,1.08,4.52,1.97,5.06,6.85,11.67,6.35,18.73,4.34,2.24-.64,4.56-.96,6.82-1.54,4.81-1.24,9.66-3.73,14.38-3.47,4.21.23,8.27,3.45,13.96,6.08-2.41-9.01-4.41-16.6-6.49-24.18-2.11-7.71-4.54-15.34-6.36-23.11-1.27-5.43.47-7.35,6.08-7.48,6.93-.16,13.86-.04,22.11-.04-1.3-3.13-2.45-6.05-3.73-8.91-2.05-4.56-3.67-9.42-6.39-13.54-7.83-11.86-4.94-24.02-2.04-37.88,13.17,4.94,25.39,10.21,39.29,16.62-5.53,5.64-9.56,9.76-14.35,14.66,10.79,10.58,21.55,21.14,32.92,32.28-6.91,7.64-12.69,14.5-19.06,20.74-1.81,1.77-5.37,2.36-8.15,2.42-4.92.11-9.86-.61-15.9-1.06.67,3.15.97,5.63,1.72,7.95,3.16,9.83,6.34,19.65,9.75,29.39,1.58,4.52,1.23,8.19-2.12,11.93-4.22,4.7-7.89,9.9-11.78,14.89-2.66,3.41-5.76,4.31-9.53,1.75-1.38-.93-3.04-1.55-4.2-2.69-12.34-12.08-25.45-6.49-39.84-1.97,12.35,15.92,24.12,31.08,35.85,46.2,1.07-.66,2.04-1.01,2.01-1.27-.86-10.56,4.46-18.24,11.18-25.6,6.28-6.88,12.06-14.24,17.82-21.58,2.56-3.27,4.91-4.6,9.29-3.18,28.19,9.14,56.43,18.13,84.77,26.79,4.74,1.45,5.97,4.77,7.5,8.41,7.11,16.88,14.42,33.68,21.2,50.69,2.54,6.37,6.21,11.58,10.91,16.45,33.79,35.01,67.39,70.21,101.24,105.16,5.13,5.3,7.87,10.92,8.86,18.3,4.39,32.68,9.32,65.28,14.13,97.9.62,4.18,1.66,8.29,2.53,12.54-5.44,3.12-7.76-1.26-10.41-3.62-19.9-17.74-39.68-35.63-59.49-53.47-9.41-8.47-18.81-16.96-28.23-25.42-2.99-2.68-5.76-5.18-5.77-9.9,0-2.82-1.73-5.67-2.81-8.46-15.61-40.38-31.12-80.8-46.93-121.1-8.27-21.07-17.2-41.89-25.57-62.92-2.13-5.35-5.17-7.35-11.95-4.96Z"/>
  <path class="st0" d="M1075.59,1131.22c1.58-4.38,2.94-7.72,4-11.14,21.51-69.34,42.69-138.78,64.56-208,15.64-49.52,32.12-98.78,48.46-148.08,1.41-4.27,3.97-8.5,7-11.83,41.69-45.88,83.55-91.62,125.41-137.35,2.58-2.82,4.76-6.82,11.14-4.62-.15,3.11.04,6.63-.53,10.02-10.57,62.05-21.27,124.08-31.8,186.14-.91,5.35-3.65,8.61-7.87,11.91-38.28,30.03-76.37,60.32-114.37,90.69-2.43,1.94-4.53,5.01-5.5,7.97-23.33,71.55-46.48,143.16-69.64,214.77-.29.9-.17,1.92-.25,2.94,11.99-2.93,18.57-8.46,22.22-19.15,21.28-62.41,42.64-124.79,63.57-187.31,3-8.97,7.73-15.67,15.06-21.52,27.11-21.59,53.86-43.65,80.79-65.47,2.7-2.19,5.71-3.98,8.24-5.72,5.16,3.66,3.07,7.34,2.33,10.75-5.75,26.35-12.4,52.55-17.02,79.1-2.93,16.86-10.38,29.82-22.16,41.99-26.18,27.06-51.22,55.22-76.62,83.04-2.64,2.89-5.22,6.18-6.68,9.76-8.56,20.94-16.64,42.08-25.19,63.02-1.98,4.85-2.13,8.98,1.32,12.93,7.78,8.88,8.66,19.38,8.57,30.66-.18,23.32.35,46.66,1.09,69.98.18,5.72-1.39,9.39-6.15,12.4-5.91,3.74-11.33,8.24-17.24,11.97-2.88,1.81-6.4,2.6-9.07,3.64-1.48-1.35-2.35-1.76-2.39-2.24-.87-9.57-6.72-14.47-15.42-16.97-2.53-.73-4.76-2.55-7.3-3.2-8.56-2.18-15.16-6.34-16.93-17.96-2.17,3.85-3.46,5.59-4.2,7.55-4.37,11.52-8.51,23.13-12.97,34.62-1.25,3.23-3.3,6.15-5.7,10.52-7.96-6.21-14.88-11.62-23-17.96-1.9,9.09-4.62,17.01-5,25.03-.68,14.35-10.48,22.11-20.07,32.03-8.7-11.39-15.37-22.89-22-36.52,7.08-1.24,12.74-2.23,19.55-3.42-1.52-8.92-2.96-17.65-4.49-26.35-4.06-23-5.04-18.31,14.81-23.04,2.27-.54,4.67-.6,6.85-1.36,4.71-1.63,8.36-.22,11.78,3.07,3.34,3.22,6.92,6.18,11.18,9.96,1.34-2.94,2.58-5.11,3.34-7.43,3-9.18,6.28-18.3,8.62-27.65,1.69-6.74,5.41-10.07,12-11.33,5.21-1,10.29-2.76,15.41-4.2,4.53-1.27,7.88-.26,9.33,4.66.28.95,1,1.81,1.14,2.76,2.56,17.45,16.63,21.15,31.35,26.52-.56-20.21-1.1-39.29-1.67-59.9-2.45,1.81-4.27,2.54-5.13,3.89-3.67,5.78-9.14,8.27-15.54,9.79-12.9,3.06-25.72,6.47-38.98,9.84-3.65-4.95-6.98-9.48-10.31-14-14.46-19.57-28.73-39.27-43.5-58.6-3.83-5.01-4.91-9.53-3.37-15.57,4.12-16.13,7.31-32.5,11.71-48.55,2.54-9.28,2.49-18.28,1.18-27.58-6.46-45.85-12.68-91.73-19.31-137.55-1.35-9.33.11-17.39,4.66-25.76,14.97-27.5,29.28-55.36,43.81-83.1,2.27-4.33,4.38-8.74,6.62-13.22,6.03,1.1,5.26,6.08,6.03,9.48,4.19,18.51,7.99,37.11,11.94,55.68,4.09,19.22,8.19,38.43,12.27,57.65,1.04,4.88,2.07,9.61-1.37,14.27-1.48,2.01-1.61,5.02-2.3,7.6-11.1,41.84-22.32,83.65-33.22,125.55-5.62,21.59-10.69,43.31-15.95,64.99-1.72,7.09-1.62,7.11,6.51,11.4,1.88-6.81,3.73-13.44,5.55-20.09,16.51-60.39,32.94-120.8,49.61-181.14,1.74-6.31,2.04-12.28.76-18.66-7.79-38.86-15.27-77.78-23.14-116.62-1.3-6.39-4.06-12.48-6.79-20.63,37.33-64.51,75.68-130.79,114.11-197.02.55-.94,2.18-1.26,3.88-2.18.79,1.78,2.02,3.2,1.91,4.51-2.16,24.54-4.67,49.05-6.73,73.6-3.14,37.52-6.46,75.04-8.68,112.61-.7,11.83-3.58,22.74-6.99,33.81-26.9,87.54-53.84,175.06-80.45,262.69-7.54,24.82-13.82,50.02-21.12,74.92-1.96,6.67.5,11.31,4.44,17.31Z"/>
  <path class="st0" d="M928.23,1146.93c-5.98-17.75-11.34-33.77-16.78-49.77-19.08-56.12-38.5-112.13-57.2-168.37-16.38-49.28-32.05-98.8-47.78-148.29-1.35-4.25-1.55-9.17-1.07-13.64,5.47-50.67,11.17-101.32,16.82-151.97,1.29-11.59,2.47-23.19,4.06-34.74.4-2.88,2.2-5.56,4.37-10.78,3.46,5.52,5.75,8.58,7.42,11.95,22.63,45.66,45.17,91.37,67.73,137.07,5.16,10.45,10.2,20.97,15.56,31.32,2.29,4.42,2.45,8.31,1.04,13.25-13.43,47.06-26.63,94.2-39.43,141.44-1.19,4.38.06,9.88,1.53,14.43,19.37,59.88,38.99,119.67,58.54,179.49,3.71,11.36,7.41,22.73,11.6,35.57,5.7-11.44,10.39-20.41,6.32-33.03-20-62.12-38.85-124.6-58.41-186.86-2.71-8.62-3.11-16.57-.69-25.33,9.2-33.38,17.85-66.92,26.79-100.38.98-3.65,2.47-7.17,3.68-10.61,6.58.56,7.13,5.13,8.65,8.56,8.76,19.8,17.37,39.66,26.03,59.5,4.39,10.08,9,20.07,13.01,30.29,1.39,3.53,2.14,7.74,1.72,11.47-4.85,43.37-10.08,86.69-14.91,130.06-.57,5.14-.07,10.64,1.14,15.68,4.91,20.37,10.52,40.57,15.37,60.95,1.46,6.12,3.85,10.46,10.2,11.97,10.7,2.54,17.31,9.91,23.46,18.53,13.94,19.52,28.36,38.71,42.94,57.76,3.01,3.94,3.82,7.2,2.06,11.74-2.52,6.51-4.28,13.32-6.84,19.82-1.38,3.5-3.74,6.61-5.44,9.53-1.95-.41-2.84-.33-3.19-.72-6.33-7.1-13.86-8.12-22.47-4.84-2.46.94-5.22,1.08-7.77,1.82-8.05,2.33-16.11,5.18-23.01-4.39-.34.75-.68,1.5-1.02,2.25.2,2.07.1,4.22.64,6.19,3.34,12.2,6.93,24.34,10.21,36.56,2.53,9.43.66,11.55-8.86,10.84-5.31-.4-10.63-.73-15.95-1.02-.56-.03-1.14.48-2.62,1.15,2.94,6.58,5.15,13.65,8.99,19.68,7.85,12.3,6.93,25.03,3.48,39.53-13.53-3.1-25.63-9.08-39.14-16.11,5.1-5.2,9.17-9.34,12.5-12.73-6.92-7.68-13.4-15.7-20.74-22.81-13.32-12.91-10.12-11.55-1.05-21.76.66-.75,1.43-1.42,1.99-2.24,5.79-8.54,13.16-12.79,23.77-9.41,2.09.67,4.58.1,7.82.1-.7-2.96-1.15-5.72-2-8.35-3.16-9.82-6.58-19.57-9.62-29.43-.73-2.36-1.48-5.84-.32-7.46,5.54-7.8,11.73-15.15,18.4-23.54,6.38,3.96,12.08,7.23,17.49,10.93,3.84,2.63,7.56,3.54,12.14,2.2,6.02-1.75,12.19-2.96,20.08-4.83-12.61-16.26-24.45-31.54-36.48-47.05-1.21,1.48-2.01,2.02-1.96,2.47,1.1,11.15-5.55,18.58-12.16,26.19-6.96,8.01-13.58,16.32-20.56,24.75-3.63-1.12-6.76-2.07-9.89-3.05-26.05-8.19-52.04-16.56-78.18-24.45-5.11-1.54-7.71-4.28-9.6-8.94-6.76-16.66-13.99-33.14-20.67-49.84-2.78-6.96-6.79-12.76-11.98-18.12-33.59-34.74-66.91-69.75-100.59-104.4-5.2-5.35-7.98-11.1-9-18.3-4.65-32.98-9.5-65.93-14.29-98.89-.6-4.12-1.3-8.22-2.36-14.92,4.31,2.6,6.91,3.67,8.89,5.44,30.27,27.14,60.51,54.33,90.58,81.7,2.2,2,3.25,5.41,4.46,8.32,1.27,3.05,1.92,6.35,3.12,9.43,15.02,38.82,29.96,77.68,45.2,116.42,8.77,22.31,18.2,44.36,26.97,66.67,2.2,5.59,5.32,6.95,11.36,5.24-.78-2.78-1.27-5.28-2.16-7.62-23.89-63.24-47.75-126.49-71.89-189.63-1.82-4.75-5.07-9.4-8.79-12.9-28.38-26.74-56.96-53.27-85.68-79.64-5.54-5.08-11.99-9.17-20.06-15.26-7.55-73.91-15.38-150.39-23.07-226.88-.08-.82,1.55-1.81,2.46-2.79,1.24.66,2.44.89,2.86,1.58,32.62,53.83,64.95,107.85,98,161.43,5.32,8.62,9.29,17.39,12.51,26.82,29.88,87.27,59.72,174.55,89.9,261.72,8.71,25.15,18.59,49.88,27.6,74.92,2.22,6.17,6.85,8.51,14.21,11.4Z"/>
  <path class="st0" d="M846.21,1527.6c-3.47,2.39-6.2,4.14-8.79,6.07-57.41,42.86-114.63,85.99-172.28,128.54-42.88,31.66-86.25,62.64-129.55,93.72-3.64,2.61-8.24,4.43-12.66,5.34-60.66,12.55-121.36,24.87-182.05,37.25-3.8.78-7.83,2.81-11.26-2.97,1.51-1.91,3.03-4.36,5.04-6.32,45.54-44.48,91.13-88.91,136.68-133.38,2.95-2.88,5.82-4.69,10.37-4.83,32.97-1.04,65.92-2.47,98.88-3.81,15.65-.64,31.29-1.39,46.94-2.01,5.13-.2,9.54-1.65,13.83-4.78,59.45-43.47,119.01-86.77,178.54-130.14,1.56-1.14,2.99-2.47,5.79-4.81-12.23-1.71-21.99-3.35-32.21,3.98-53.88,38.64-108.25,76.59-162.29,115-6.26,4.45-12.61,6.82-20.23,7.2-35.94,1.78-71.87,3.85-107.81,5.76-2.86.15-5.74-.23-8.51-.35-2.16-5.96,1.83-8.1,4.64-10.6,14.17-12.66,28.42-25.22,42.64-37.82,10.48-9.28,20.81-18.74,31.52-27.74,2.85-2.39,6.74-4.13,10.41-4.88,43.71-8.99,87.47-17.7,131.2-26.61,2.87-.58,5.8-1.71,8.28-3.26,19.19-12.01,38.2-24.3,57.43-36.24,4.71-2.93,7.54-6.35,7.02-12.05-.99-10.93,3.61-19.6,9.99-28.18,14.32-19.25,28.08-38.91,41.68-58.67,3.04-4.41,6.22-6.3,11.44-5.98,6.98.42,14.01.09,20.98.51,3.45.21,6.83,1.39,10.36,2.16-.15,2.4.25,4.01-.38,4.93-5.08,7.39-2.07,13.65,2.23,19.99,3.36,4.95,6.51,10.05,9.44,15.26,1.03,1.84,1.59,4.21,1.54,6.32-.07,2.9-.92,5.79-1.69,10.09,2.99-1.3,5.02-1.86,6.71-2.96,9.76-6.38,19.44-12.89,29.16-19.33,1.94-1.29,3.82-2.75,5.92-3.69,4.43-1.97,6.94-.96,8.36,3.79,1.99,6.68,3.49,13.51,5.42,21.19,2.3-1.49,4.26-2.47,5.86-3.87,3.76-3.29,7.36-6.77,11.02-10.17q14.56-13.56,37.19-16.09c.96,13.8-.65,27.14-3.59,42.05-6.46-3.27-11.62-5.88-17.72-8.97-4.67,9.7-9.26,19.22-13.86,28.73-6.23,12.92-5.97,12.18-19.06,7.42-12.06-4.38-20.22-10.81-20.61-24.48-.04-1.22-.71-2.42-1.34-4.44-2.66,1.55-4.94,2.68-7.01,4.13-4.36,3.06-8.6,6.3-12.9,9.46-19.51,14.31-19.93,14.26-41.74,3.98-4.52-2.13-5.94-4.91-4.43-9.48.42-1.26.52-2.66,1.1-3.83,7.59-15.38-1.49-26.18-10.44-38.54-11.44,16.85-22.34,32.89-33.75,49.69q18.25-1.86,36.52,5.33c7.74,3.05,15.47,6.15,23.18,9.27.6.24,1.08.77,2.16,1.58.14,2.15.44,4.75.46,7.34.2,28.33.19,56.66.7,84.99.09,5.02-1.66,7.99-5.19,10.98-14.49,12.29-28.95,24.62-43.11,37.27-3.87,3.46-7.42,7.7-9.88,12.25-23.46,43.36-46.78,86.8-69.8,130.41-3.64,6.9-8.48,11.37-15.41,14.72-29.08,14.07-57.98,28.53-86.94,42.87-4.36,2.16-8.66,4.43-15.19,7.77,1-4.78,1.1-7.63,2.17-10.05,16.42-37.17,32.9-74.31,49.62-111.35,1.21-2.68,4.23-4.63,6.6-6.68,2.26-1.95,4.86-3.49,7.17-5.38,33.85-27.57,67.76-55.07,101.47-82.81,17.24-14.18,34-28.94,51.23-43.12,4.54-3.74,5.38-7.16,1.5-12.43-2.02,1.32-4.22,2.51-6.14,4.05-52.81,42.28-105.64,84.54-158.28,127.03-3.97,3.2-7.52,7.65-9.69,12.25-17.51,37.04-34.67,74.24-51.81,111.45-1.5,3.26-3.07,6.97-2.92,10.39.29,6.4-3.35,8.6-8.26,10.75-25.93,11.37-51.78,22.9-77.65,34.41-40.17,17.87-80.32,35.78-120.48,53.67-2.96,1.32-5.95,3.68-9.37-1.15,2.42-2.65,5.05-5.39,7.52-8.27,39.1-45.5,78.43-90.8,117.03-136.72,6.55-7.79,13.74-14.2,21.68-20.17,73.52-55.27,147.1-110.45,220.46-165.93,21.24-16.06,41.68-33.16,62.78-49.41,5.53-4.26,6.72-9.26,6.43-16.58Z"/>
  <path class="st0" d="M1851.5,1275.25c-.85.68-1.72,1.92-2.82,2.18-55.11,12.9-110.25,25.66-165.35,38.58-8.72,2.04-17.25,4.87-25.94,7.07-2.85.72-5.91.82-8.88.87-94.98,1.53-189.96,2.86-284.94,4.63-28.29.53-56.56,2.37-84.84,3.33-6.24.21-9.32,4.16-13.98,9.09,3.57.37,5.95.87,8.34.84,69.99-.89,139.98-2.12,209.97-2.68,47.3-.38,94.63,1.01,141.9-.09,22.33-.52,42.26,3.98,62.32,13.54,47.2,22.5,95.1,43.53,142.71,65.17,2.73,1.24,5.63,2.28,8.01,4.01,1.37.99,2.78,3.35,2.51,4.78-.25,1.35-2.55,2.99-4.18,3.29-7.85,1.47-15.77,2.6-23.68,3.75-55.05,8.02-110.1,15.96-165.13,24.07-6.89,1.01-12.38-.13-18.49-4.27-40.01-27.08-80.35-53.69-120.82-80.08-3.53-2.3-8.81-2.68-13.28-2.68-66.33-.07-132.65.08-198.98.17-8.26.01-16.51,0-25.21,0,5.36,9.99,13.64,15.73,23.36,15.89,64.31,1.06,128.63,2.34,192.95,2.69,13.95.08,25.6,3.12,37.18,11.03,26.68,18.23,54.16,35.28,81.26,52.9,3.17,2.06,5.99,4.65,11,8.58-5.73,1.7-8.96,3.23-12.31,3.57-33.48,3.4-66.97,6.65-100.47,9.77-2.48.23-5.31-.36-7.59-1.4-40-18.25-79.96-36.58-119.87-55.04-6.17-2.86-12.42-4.2-19.23-4.53-19.94-.97-39.88-2.28-59.78-3.91-6.31-.52-11.1.81-14.45,6.31-5.52,9.07-14.05,13.15-23.96,16.23-23.21,7.21-46.16,15.26-69.1,23.3-4.21,1.47-7.38,1.74-11-1.19-5.95-4.82-12.36-9.07-18.34-13.87-2.49-2-4.36-4.77-6.18-6.83.46-1.52.48-2.54.86-2.7,10.53-4.54,12.16-13.72,12.45-23.63.03-1,.17-1.99.25-2.99q1.25-14.24,9.95-24.18c-2.59-.43-4.65-.97-6.73-1.08-11.98-.61-23.97-1.14-35.96-1.66-12.01-.52-13.11-2.11-8.82-12.96,2.04-5.17,4.12-10.33,6.69-16.78-8.47.87-15.58.73-22.19,2.46-14.42,3.76-26.73-.51-39.58-8.88,7.25-11.74,16.44-21.58,27.7-32.03,3.28,6.6,5.84,11.77,8.8,17.73,9.19-4.88,17.95-9.53,26.71-14.19,1.18-.63,2.34-1.28,3.52-1.9,10.71-5.64,10.01-5.15,16.91,4.73,7.93,11.37,11.3,22.24,2.72,34.55-.48.69-.26,1.88-.49,3.87,6.84,0,13.41.02,19.98,0,6.67-.03,13.36-.44,19.99.03,2.6.19,5.85,1.7,7.44,3.7,4.34,5.46,7.9,11.54,11.87,17.3,2.72,3.94,2.69,7.37-1.38,10.35-.54.39-.95.98-1.53,1.28-15.48,8.08-17.11,22.07-15.85,38.64,18.62-6.68,36.89-13.24,55.27-19.84-.51-1.15-.64-2.01-.96-2.09-10.62-2.62-16.43-10.39-21.52-19.29-4.46-7.8-9.4-15.35-14.51-22.75-2.74-3.96-2.41-6.9.36-10.73,17.2-23.75,34.25-47.62,51.12-71.6,2.26-3.22,4.94-3.98,8.38-4.27,19.59-1.66,39.19-3.21,58.74-5.25,5.15-.54,10.48-1.93,15.14-4.16,44.47-21.28,88.87-42.72,133.13-64.43,6.67-3.27,12.96-4.12,20.18-2.82,32.46,5.8,64.97,11.3,97.47,16.85,4.4.75,8.85,1.19,13.34,1.78-.42,6.2-4.95,7.06-8.16,8.94-29.66,17.26-59.45,34.31-89.09,51.6-10.02,5.85-19.68,9.81-32.21,10.1-42.96.98-85.88,3.89-128.79,6.49-24.6,1.49-49.14,3.78-74.55,5.78-.96,2.28-2.03,4.84-3.2,7.62,1.59.67,2.46,1.39,3.3,1.35,44.27-2.03,88.54-4.13,132.81-6.22,23.97-1.13,47.93-2.4,71.91-3.29,6.84-.25,12.93-1.75,18.96-5.14,34.83-19.63,69.84-38.94,104.71-58.49,3.71-2.08,7.64-4.47,10.21-7.72,3.5-4.41,7.14-4.83,12.14-3.75,53.39,11.51,106.81,22.88,160.22,34.28,17.26,3.68,34.52,7.38,51.8,10.97,3.25.68,6.8.58,7.75,5.34Z"/>
  <path class="st0" d="M1042.23,2195.77c-1.24-3.87-2.87-7.66-3.64-11.62-4.83-24.84-9.41-49.72-14.17-74.57-8.45-44.13-17.02-88.24-25.35-132.39-.44-2.33.28-5.29,1.42-7.44,16.05-30.32,32.24-60.56,48.48-90.78,1.21-2.26,3.01-4.2,5.31-7.34,2.09,2.61,4.06,4.29,5.06,6.42,14.5,31.08,28.98,62.17,43.09,93.43,1.31,2.89.73,7.12-.12,10.42-13.62,52.87-27.43,105.69-41.19,158.53-3.86,14.82-7.64,29.66-11.6,44.45-.99,3.69-2.56,7.22-3.86,10.82-1.14.02-2.29.04-3.43.07Z"/>
  <path class="st0" d="M536.38,1238.83c-5.22,1.02-8.93,2-12.7,2.45-24.44,2.95-48.9,5.8-73.35,8.66-6.61.78-13.36.93-19.79,2.44-6.19,1.45-10.77-.53-15.72-3.74-27.37-17.73-54.89-35.24-82.35-52.83-31.11-19.92-62.23-39.82-93.29-59.82-3.12-2.01-7.52-3.14-7.89-9.65,4-.08,7.76-.57,11.4-.14,17.51,2.08,34.99,4.41,52.48,6.66,44.55,5.72,89.09,11.47,133.64,17.15,7.59.97,15.24,1.43,22.79,2.61,2.7.42,5.8,1.67,7.65,3.57,24.15,24.8,48.13,49.77,72.07,74.78,1.7,1.77,2.73,4.18,5.07,7.85Z"/>
  <path class="st0" d="M1496.49,683.33c4.41,5.63,1.16,9.03-.41,12.36-13.71,29.23-27.6,58.38-41.34,87.59-16.29,34.63-32.45,69.32-48.81,103.92-1.03,2.19-2.96,4.51-5.07,5.54-31.68,15.54-63.45,30.89-95.23,46.19-1.67.81-3.71.85-6.87,1.52,0-3.29-.4-5.82.06-8.17,6.46-33.32,13.14-66.6,19.48-99.94.94-4.95,4.4-7.22,7.68-9.91,47.87-39.31,95.77-78.59,143.66-117.88,6.18-5.07,12.33-10.18,18.56-15.18,2.51-2.02,5.21-3.8,8.3-6.04Z"/>
  <path class="st0" d="M554.99,1549.96c-3.21,3.74-4.87,6.12-6.94,8.05-24.37,22.69-48.87,45.25-73.16,68.02-2.95,2.77-5.99,3.68-9.79,3.9-48.2,2.72-96.39,5.53-144.58,8.33-22.27,1.29-44.53,2.65-66.8,3.91-3.48.2-6.97.03-12.72.03,2.51-3.71,3.31-5.83,4.85-6.98,2.64-1.98,5.71-3.39,8.63-4.99,57.52-31.48,115.21-62.66,172.41-94.71,9.72-5.45,18.18-6.73,28.86-4.55,27.7,5.66,55.65,10.08,83.49,15.11,4.7.85,9.3,2.28,15.75,3.88Z"/>
  <path class="st0" d="M1819.53,1606.58c-2.75.21-5.56.9-8.24.56-52.82-6.72-105.61-13.6-158.42-20.37-17.82-2.29-35.67-4.31-53.48-6.65-2.45-.32-5.42-1.07-7.02-2.72-24.82-25.56-49.46-51.28-74.09-77.02-1.08-1.13-1.66-2.74-3.25-5.46,3.25-1.08,5.75-2.39,8.38-2.71,29.07-3.54,58.3-6.07,87.18-10.72,13.73-2.21,23.95,1.43,35.05,8.67,54.66,35.63,109.76,70.56,164.68,105.79,3.49,2.24,6.7,4.9,10.05,7.36-.28,1.09-.56,2.18-.84,3.26Z"/>
  <path class="st0" d="M704.95,975.31c-4.04-1.61-6.84-2.37-9.3-3.74-29.08-16.17-58.05-32.56-87.24-48.55-4.41-2.42-5.79-6.09-7.35-10.07-16.37-41.82-32.71-83.65-49.08-125.47-9.09-23.24-18.27-46.44-27.26-69.71-1.32-3.43-1.83-7.17-2.72-10.77.76-.51,1.52-1.02,2.28-1.53,3.02,2.14,6.34,3.97,9.02,6.48,32.53,30.53,64.93,61.19,97.45,91.74,18.92,17.77,38.04,35.33,56.91,53.15,1.75,1.65,3.07,4.41,3.41,6.82,4.97,34.91,9.76,69.85,14.51,104.8.21,1.55-.28,3.2-.65,6.87Z"/>
  <path class="st0" d="M1008.82,537.42c1.06,3.26,2.5,6.46,3.13,9.8,12.68,66.67,25.04,133.4,38.12,199.99,1.8,9.17.67,16.31-3.78,24.31-14.41,25.87-28.05,52.17-42.07,78.27-1.98,3.69-4.4,7.14-7.63,12.33-2.52-3.77-4.38-5.92-5.54-8.4-14.19-30.46-28.17-61.02-42.5-91.42-2.14-4.54-.89-8.44.18-12.53,9.95-38.31,19.98-76.61,30-114.9,7.66-29.28,15.32-58.57,23.07-87.83.87-3.3,2.34-6.45,3.53-9.67,1.16.02,2.32.04,3.48.06Z"/>
  <path class="st0" d="M1496.22,1183.04c2.83-3.57,4.16-5.77,5.98-7.46,24.6-22.91,49.2-45.83,74.03-68.48,2.42-2.2,6.36-3.48,9.72-3.78,14.58-1.27,29.21-2.09,43.82-2.95,55.81-3.31,111.62-6.59,167.43-9.82,3.45-.2,6.94.2,12.38.39-2.23,3.47-3,5.61-4.51,6.81-2.32,1.83-5.15,3.03-7.77,4.46-58.07,31.8-116.24,63.42-174.11,95.6-8.61,4.79-16.25,6.55-26.1,4.55-29.98-6.06-60.2-10.96-90.31-16.39-2.87-.52-5.65-1.55-10.56-2.94Z"/>
  <path class="st0" d="M752.59,1791.83c-.46,5.33-.43,8.92-1.11,12.37-6.26,31.69-12.76,63.34-18.84,95.06-.83,4.32-2.64,7.18-5.88,9.84-54.93,44.98-109.79,90.03-164.72,135.01-2.38,1.95-5.27,3.28-8.05,4.97-3.74-5.34-.59-8.73.96-12.07,8.71-18.73,17.61-37.36,26.44-56.03,19.51-41.26,39.01-82.52,58.49-123.79,1.7-3.61,2.92-7.48,4.91-10.91,1.4-2.41,3.33-5.11,5.71-6.28,31.38-15.44,62.88-30.65,94.38-45.86,1.72-.83,3.69-1.13,7.69-2.31Z"/>
  <path class="st0" d="M1345.97,1757.14c4.77,2.23,8.05,3.52,11.11,5.22,28.23,15.73,56.34,31.68,84.71,47.14,4.72,2.57,6.48,6.29,8.18,10.63,15.28,39.08,30.58,78.16,45.86,117.24,10.19,26.05,20.38,52.11,30.47,78.2,1.24,3.19,1.88,6.61,2.85,10.09-6.75,2.1-9.1-2.4-12.02-5.14-24.33-22.78-48.5-45.72-72.81-68.53-26.97-25.31-54.06-50.49-80.97-75.86-1.73-1.63-3.03-4.36-3.37-6.74-4.79-33.3-9.41-66.62-13.94-99.95-.47-3.43-.06-6.98-.06-12.3Z"/>
  <path class="st0" d="M1621.55,792.69c-2.95,2.03-4.86,3.75-7.09,4.82-17.68,8.51-35.4,16.9-53.14,25.29-1.8.85-3.79,1.28-5.58,2.15-4.89,2.38-8.63,1.23-12.41-2.69-10.62-11.01-21.58-21.71-32.4-32.54-8.47-8.47-16.97-16.91-25.38-25.44-6.08-6.16-6.12-6.25-2.56-13.62,8.23-17.07,16.51-34.12,24.88-51.13,4.55-9.24,6.1-9.55,13.49-2.51,29.87,28.46,59.67,56.99,89.5,85.49,3.29,3.14,6.58,6.26,10.69,10.17Z"/>
  <path class="st0" d="M429.18,1940.07c3.29-2.06,5.34-3.63,7.62-4.73,17.37-8.39,34.76-16.71,52.18-24.98,2.39-1.14,5.08-1.66,7.45-2.82,3.87-1.9,6.88-1.07,9.84,1.91,20.18,20.29,40.4,40.54,60.7,60.71,3.33,3.31,3.84,6.41,1.73,10.66-8.88,17.87-17.42,35.9-26.29,53.78-3.83,7.72-5.87,7.96-12.52,1.65-20.02-19.02-39.93-38.17-59.89-57.25-13.19-12.6-26.41-25.18-40.83-38.92Z"/>
  <path class="st0" d="M1387.08,2110.78c-1.12-3.51-2.26-5.89-2.59-8.37-2.71-20.1-5.27-40.22-7.87-60.34-.04-.33-.01-.67-.07-1-1.2-7.13,1.23-11.73,8.18-14.9,12.4-5.65,24.39-12.19,36.55-18.37,11.56-5.88,23.08-11.84,34.68-17.65,7.73-3.87,7.91-3.87,13.9,1.85,13.95,13.33,27.87,26.7,41.67,40.2,6.42,6.28,6.16,7.96-1.9,12.32-35.39,19.16-70.84,38.21-106.27,57.31-4.94,2.66-9.84,5.41-16.28,8.95Z"/>
  <path class="st0" d="M231.26,1110.7c21.83-45.42,42.68-88.82,63.95-133.08,2.1,1.1,4.37,1.69,5.75,3.13,14.28,14.88,28.57,29.76,42.54,44.93,8.19,8.88,7.96,9.12,2.46,19.95-11.46,22.53-22.93,45.05-34.43,67.56-4.98,9.75-5.02,9.71-15.22,8.27-18.11-2.56-36.23-5.02-54.32-7.68-3.07-.45-6.03-1.7-10.73-3.08Z"/>
  <path class="st0" d="M1755.24,1756.31c-3.17-2.73-5.74-4.61-7.9-6.87-12.9-13.46-25.71-26.99-38.52-40.53-1.59-1.69-2.81-3.74-4.44-5.39-3.82-3.87-3.95-7.65-1.4-12.55,12.75-24.49,25.27-49.11,37.64-73.79,2.63-5.26,5.65-6.98,11.78-5.97,17.72,2.93,35.59,4.89,53.37,7.43,14.09,2.01,14.38,2.67,8.34,15.23-17.58,36.58-35.18,73.15-52.78,109.72-1.83,3.8-3.65,7.61-6.1,12.71Z"/>
  <path class="st0" d="M663.79,622.27c1.06,2.99,2.02,4.72,2.27,6.55,2.7,19.76,5.32,39.54,7.87,59.32.34,2.63.11,5.32.35,7.97.37,4.11-1.07,6.93-4.89,8.85-26.74,13.43-53.43,26.98-80.15,40.45-.54.27-1.3.12-2.8.22-2.01-1.79-4.53-3.91-6.9-6.18-12.48-11.98-24.94-23.99-37.39-36.01-9.83-9.5-9.75-10.33,1.97-16.64,35.13-18.94,70.28-37.83,105.42-56.76,4.34-2.34,8.66-4.73,14.25-7.78Z"/>
  <path class="st0" d="M880.23,2180.98c1.58-3.83,2.44-6.58,3.78-9.08,8.97-16.69,18.02-33.35,27.11-49.98,1.27-2.33,3-4.4,4.34-6.69,2.33-3.97,5.43-4.97,10.06-4.2,27.55,4.55,55.13,8.96,82.76,13.03,6.19.91,8.28,4.21,9.22,9.71,3.23,19.01,6.75,37.97,10,56.97,1.44,8.42-.23,10.12-9.09,8.96-26.04-3.42-52.06-7.05-78.08-10.59-19.37-2.63-38.75-5.24-60.09-8.13Z"/>
  <path class="st0" d="M234.72,1625.7c-4.03-7.34-25.93-121.29-28.11-145.09,2.91,0,5.81-.42,8.56.07,18.34,3.27,36.64,6.72,54.95,10.13,1.63.3,3.22.92,4.86,1.13,7.64,1.01,11.03,5.02,12.14,12.98,3.73,26.68,8.28,53.25,12.55,79.86.69,4.28.25,7.62-4.25,9.96-18.9,9.81-37.65,19.91-56.49,29.84-1.12.59-2.5.68-4.21,1.12Z"/>
  <path class="st0" d="M1170.37,553.04c-1.08,2.58-1.97,5.31-3.31,7.8-8.98,16.7-18.05,33.35-27.12,50-.95,1.75-2.34,3.27-3.21,5.05-2.78,5.73-7.2,6.85-13.19,5.85-25.92-4.32-51.89-8.3-77.82-12.53-10.42-1.7-10.49-1.82-12.33-11.94-3.32-18.32-6.64-36.65-9.71-55.02-1.47-8.81-.18-10,8.69-8.85,44.86,5.82,89.7,11.7,134.55,17.62.89.12,1.69.96,3.46,2.02Z"/>
  <path class="st0" d="M1845.09,1253.46c-5.78-.81-9.64-1.21-13.44-1.91-17.32-3.17-34.63-6.39-51.93-9.67-2.6-.49-5.11-1.5-7.71-2-5.05-.98-7-4.27-7.72-9.05-3.34-22.01-6.85-44-10.28-66-.87-5.58-1.39-11.24-2.6-16.74-1.11-5.06.4-8,5.02-10.39,17.7-9.18,35.19-18.78,52.88-27.99,7.16-3.73,9.13-2.61,10.63,5.55,6.1,33.34,12.1,66.7,18.15,100.05,2.18,12.02,4.4,24.03,6.99,38.15Z"/>
  <path class="st0" d="M1468.56,686.62c-1.54,1.87-2.55,3.62-4.02,4.81-10.36,8.37-20.95,16.47-31.17,25-4.64,3.87-8.4,3.7-13.34.42-19.4-12.91-39.04-25.47-58.61-38.13-6.68-4.32-13.44-8.54-21.14-13.42.83-18.4,2.23-37.36,4.59-55.47,1.55-.82,1.82-1.02,2.13-1.1.31-.08.73-.17.98-.04,2.65,1.34,5.4,2.54,7.9,4.13,36.77,23.45,73.51,46.95,110.23,70.49.77.49,1.18,1.55,2.46,3.31Z"/>
  <path class="st0" d="M710.91,2067.8c-1.45,18.22-2.94,36.96-4.55,57.21-3.8-1.37-6.35-1.81-8.36-3.08-36.8-23.29-73.54-46.67-110.25-70.11-1.88-1.2-3.36-3.03-5.7-5.18,2-2.24,3.46-4.39,5.39-5.97,9.8-7.97,19.68-15.86,29.64-23.63,6.54-5.1,7.11-5.15,14.06-.67,21.24,13.69,42.39,27.5,63.6,41.24,5,3.24,10.07,6.35,16.17,10.19Z"/>
  <path class="st0" d="M1809.35,1578.88c-4.4-2.57-7.28-4.11-10.01-5.89-8.09-5.27-16.09-10.7-24.19-15.96-14.94-9.72-11.76-8.09-8.09-22.34,6.24-24.17,13.59-48.09,18.88-72.46,2.36-10.9,7.17-15.36,17.73-16.95,11.81-1.78,23.34-5.35,35.02-8.06,1.85-.43,3.8-.41,7.1-.75-.33,3.52-.24,6.37-.92,9.03-10.56,41.28-21.21,82.54-31.91,123.78-.72,2.78-2.02,5.41-3.62,9.6Z"/>
  <path class="st0" d="M261.23,1284.16c-17.99,4.23-36.25,8.53-56.5,13.3.89-5.72,1.15-9.51,2.08-13.13,8.84-34.44,17.79-68.85,26.7-103.27,1.5-5.79,2.85-11.62,4.47-17.38.77-2.74,2.02-5.34,3.46-9.03,3.53,1.74,6.24,2.76,8.62,4.3,9.77,6.32,19.47,12.76,29.15,19.21,8.24,5.5,8.49,6.04,5.98,15.48-6.66,25.05-13.4,50.08-20.08,75.12-1.28,4.78-2.42,9.6-3.88,15.4Z"/>
  <path class="st0" d="M1692.08,983.85c11.91-13.84,24.19-28.11,37.47-43.54,2.19,3.31,3.95,5.19,4.83,7.41,16.07,40.51,32.05,81.06,47.98,121.63.8,2.05.98,4.34,1.59,7.18-2.7.72-4.81,1.67-6.96,1.79-12.96.72-25.93,1.38-38.91,1.81-8.29.27-8.65-.03-11.68-7.84-8.67-22.33-17.21-44.71-25.83-67.06-2.62-6.79-5.37-13.53-8.48-21.37Z"/>
  <path class="st0" d="M1535.34,1999.9c-2.39-5.22-3.9-8.1-5.06-11.13-3.93-10.25-7.76-20.54-11.59-30.83q-3.76-10.1,4.38-16.73c19.9-16.16,39.82-32.29,59.71-48.46,3.86-3.14,7.59-6.42,12.23-10.36,17.28,6.6,34.73,14.13,53.27,22.04-2.53,3.29-3.6,5.37-5.26,6.74-35.36,29.14-70.52,58.54-107.68,88.73Z"/>
  <path class="st0" d="M1213.34,2168.01c-4.16.99-6.56,1.88-9.02,2.11-62.75,5.72-129.1,8.78-137.75,6.19.22-2.07.17-4.35.73-6.46,3.27-12.21,6.6-24.4,10.08-36.55,2.48-8.66,2.79-8.82,11.58-9.28,26.92-1.43,53.85-2.8,80.77-4.25,3.96-.21,7.9-.75,13.37-1.29,9.58,15.69,19.51,31.96,30.23,49.53Z"/>
  <path class="st0" d="M320.71,1790.65c-5.19-5.86-52.03-123.95-53.09-134.74,2.63-.54,5.37-1.45,8.15-1.6,12.29-.7,24.58-1.23,36.88-1.71,7.89-.31,8.69.2,11.7,7.86,11.07,28.14,22.1,56.3,32.95,84.53.69,1.81.53,4.95-.61,6.3-11.19,13.16-22.66,26.07-34.1,39.01-.34.38-1.24.27-1.88.37Z"/>
  <path class="st0" d="M455.63,850.69c-17.01-7.11-34.34-14.36-53.03-22.18,2.48-3.13,3.71-5.4,5.55-6.92,33.3-27.6,66.63-55.16,100.05-82.62,6.53-5.37,8.58-4.81,11.53,2.78,4.57,11.78,8.98,23.62,13.26,35.5,2.67,7.4,2.33,8.35-4.02,13.52-20.12,16.39-40.3,32.71-60.43,49.08-4.1,3.33-8.1,6.79-12.92,10.83Z"/>
  <path class="st0" d="M839.22,563.55c46.43-3.79,92.26-5.68,137.98-8.93,2.13-.15,4.34.8,6.73,1.29,0,2.54.41,4.58-.07,6.39-3.51,13.19-7.28,26.31-10.78,39.51-1.34,5.04-4.48,6.75-9.43,6.99-16.64.81-33.26,1.91-49.9,2.86-13.31.76-26.63,1.33-39.92,2.3-3.61.26-6.36.22-8.46-3.33-8.33-14.03-16.87-27.94-25.27-41.94-.46-.77-.36-1.89-.89-5.12Z"/>
  <path class="st0" d="M1212.36,1570.23c1.32.66,3.56,1.35,5.27,2.71,14.88,11.76,29.71,23.59,44.43,35.56,1.98,1.61,3.49,3.96,4.79,6.22,24.33,42.43,48.59,84.89,72.86,127.35,1.16,2.02,2.67,3.96,3.27,6.14.45,1.63.34,4.34-.68,5.21-1.09.93-3.85.89-5.32.16-1.99-.99-3.51-2.98-5.12-4.65-33.97-35.21-67.99-70.36-101.79-105.74-3.57-3.74-6.46-8.46-8.52-13.23-6.6-15.26-12.54-30.8-18.99-46.13-4.56-10.83-.74-10.98,9.8-13.58Z"/>
  <path class="st0" d="M1282.12,1265.42c-.87-.58-4.54-1.68-5.15-3.71-1.32-4.38-1.15-9.27,2.49-13.06.68-.7,1.64-1.12,2.48-1.67.84-.55,1.68-1.08,2.51-1.63,15.58-10.23,30.13-22.93,47.03-29.99,16.57-6.93,35.53-8.11,53.44-11.83,31.92-6.64,63.84-13.3,95.75-19.95,1.63-.34,3.29-1.22,4.84-1.04,2.07.24,4.94.67,5.89,2.09,1.88,2.77-.3,4.91-2.84,6.3-1.75.96-3.55,1.83-5.34,2.71-43.09,20.96-86.22,41.85-129.25,62.94-6.73,3.3-13.55,5.05-21.03,5.43-16.29.82-32.55,2.16-50.84,3.43Z"/>
  <path class="st0" d="M1170.07,1135.7c-9.09-7.76-9.78-9.86-6.36-19.03,5.94-15.89,11.87-31.79,17.99-47.61,1.17-3.02,2.76-6.1,4.91-8.47,33.26-36.8,66.65-73.49,100.01-110.2,1.34-1.48,2.53-3.31,4.21-4.2,1.47-.78,4.1-1.24,5.15-.43,1.16.89,1.74,3.49,1.42,5.12-.43,2.2-1.94,4.19-3.03,6.25-22.83,42.89-45.6,85.81-68.58,128.61-2.31,4.3-5.32,8.56-8.96,11.76-13,11.43-26.38,22.42-39.69,33.49-2.23,1.85-4.83,3.24-7.07,4.72Z"/>
  <path class="st0" d="M756.38,1789.98c-1.51-3.27-3.22-5.22-3-6.93.32-2.51,1.91-4.91,3.16-7.25,22.82-42.88,45.61-85.77,68.6-128.56,2.31-4.3,5.31-8.56,8.95-11.76,12.99-11.43,26.36-22.43,39.66-33.51,2.7-2.25,5.26-5.65,9.54-3.38,3.64,1.93,6.88,9.86,5.42,13.8-6.81,18.4-13.75,36.76-20.76,55.08-.68,1.78-2.11,3.34-3.43,4.8-33.33,36.72-66.68,73.42-100.07,110.09-2.14,2.35-4.62,4.38-8.05,7.61Z"/>
  <path class="st0" d="M761.71,1300.92c-3.63,8.49-8.46,12.13-17.31,11.41-16.91-1.37-33.9-1.61-50.85-2.51-2.9-.15-5.95-.79-8.59-1.97-45.22-20.28-90.39-40.69-135.58-61.06-.91-.41-1.86-.74-2.74-1.21-2.55-1.38-6.2-2.27-5.05-6.23,1.31-4.49,5.17-3.23,8.38-2.78,3.62.51,7.21,1.25,10.81,1.89,44.87,7.95,89.76,15.77,134.57,24,6.05,1.11,12.14,3.53,17.47,6.63,13.81,8.02,27.24,16.68,40.72,25.25,2.93,1.86,5.45,4.38,8.15,6.59Z"/>
  <path class="st0" d="M773.25,1468.59c2.4,9.06.64,14.8-7.02,19.42-14.23,8.58-27.82,18.22-41.82,27.2-2.99,1.92-6.46,3.51-9.92,4.24-47.49,9.99-95.02,19.81-142.54,29.66-2.28.47-4.61,1.27-6.86,1.11-2.03-.15-3.98-1.41-5.97-2.18,1.2-2.07,2.21-4.28,3.67-6.14.74-.95,2.29-1.28,3.48-1.86,44.54-21.69,89.08-43.39,133.66-65,2.95-1.43,6.18-2.84,9.37-3.11,18.89-1.58,37.81-2.86,56.72-4.12,2.22-.15,4.49.45,7.22.76Z"/>
  <path class="st0" d="M1027.56,1704.07c.22-1.64.35-4.66,1.06-7.54,4.11-16.79,8.3-33.57,12.58-50.32.87-3.39.85-7.68,5.71-8.33,4.08-.55,11.47,3.98,12.6,8.02,5.29,18.89,10.66,37.77,15.36,56.81,1.05,4.26-.36,9.17-.86,13.75-5.08,46.62-10.21,93.24-15.34,139.86-.25,2.31-.32,4.74-1.14,6.85-.48,1.22-2.29,2.61-3.54,2.64-1.27.03-3.15-1.23-3.74-2.43-1-2.03-1.39-4.43-1.71-6.72-6.82-48.75-13.61-97.5-20.38-146.26-.23-1.65-.31-3.31-.59-6.33Z"/>
  <path class="st0" d="M1006.22,1095.32c-10.26-.82-14.57-5.51-16.54-14.26-3.43-15.24-8.23-30.16-12.09-45.32-1.12-4.4-1.74-9.2-1.27-13.68,5.16-48.99,10.56-97.95,15.95-146.91.38-3.48-.08-8.42,5.05-8.16,4.78.25,4.35,5.07,4.85,8.62,2.49,17.46,5.02,34.91,7.46,52.38,4.45,31.97,8.89,63.94,13.17,95.93.47,3.54.54,7.36-.26,10.8-4.14,17.82-8.56,35.58-13.04,53.32-.62,2.45-2.09,4.68-3.28,7.27Z"/>
  <path class="st0" d="M1332.23,1422.15c19.17-2.66,38.77,4.53,58.35,13.78,36.38,17.19,73.3,33.24,109.98,49.78,2.42,1.09,4.97,2.06,7.07,3.61,1.08.8,2.03,2.93,1.73,4.13-.31,1.23-2.14,2.77-3.44,2.91-2.59.28-5.31-.1-7.92-.56-48.79-8.61-97.59-17.22-146.35-26.01-3.83-.69-7.71-2.25-11.04-4.27-14.8-8.96-29.44-18.18-44.06-27.43-3.19-2.02-7.79-3.48-6.16-8.85,1.35-4.44,7.43-9,12.04-8.82,8.98.35,17.94,1.02,29.79,1.72Z"/>
  <path class="st0" d="M850.67,1158.12c-8.68,5.5-14.69,4.71-21.28-.99-12.31-10.67-25.41-20.41-38.03-30.73-2.76-2.25-5.42-4.98-7.18-8.04-24.55-42.66-48.93-85.42-73.34-128.17-1.15-2.02-2.63-4.02-3.08-6.21-.32-1.59.36-3.9,1.45-5.08.69-.75,3.29-.54,4.48.16,1.95,1.16,3.52,3.01,5.13,4.68,34.19,35.43,68.42,70.84,102.48,106.41,3.14,3.28,5.84,7.32,7.61,11.49,6.66,15.59,12.9,31.36,19.16,47.12,1.18,2.96,1.73,6.17,2.6,9.36Z"/>
  <path class="st0" d="M1712.23,921.55c-1.67.89-2.75,1.82-3.96,2.06-16.61,3.36-33.21,6.76-49.87,9.84-7.25,1.34-9.08.21-12.56-6.71-10.16-20.19-20.11-40.48-30.33-60.63-2.18-4.3-2.61-7.79.7-11.82,9.94-12.06,19.47-24.45,29.41-36.5,4.76-5.77,8.91-5.53,12.42.9,18.02,32.95,35.82,66.02,53.65,99.08.43.81.29,1.92.54,3.79Z"/>
  <path class="st0" d="M1320.12,602.89c-1.86,2.49-3.23,4.72-4.98,6.62-9.91,10.77-19.85,21.53-29.9,32.17-7.65,8.1-8.99,8.25-18.84,3.14-18.59-9.65-37.06-19.57-55.83-28.86-6.21-3.07-8.95-6.64-8.35-13.81,1.17-13.91,1.39-27.9,2.14-41.86.53-9.93,3.92-12.19,12.54-8.09,32.73,15.57,65.4,31.27,98.06,46.99,1.69.81,3.09,2.21,5.15,3.71Z"/>
  <path class="st0" d="M815.44,574.74c-.66,7.67-1.07,13.82-1.76,19.93-1.23,10.9-2.61,21.78-3.96,32.66-1.35,10.82-2.21,11.9-13.35,13.62-21.67,3.35-43.41,6.28-65.05,9.81-5.18.85-8.05-.77-10.68-4.87-8.08-12.59-16.5-24.96-24.56-37.56-4.99-7.8-3.56-11.34,5.58-13.07,31.34-5.93,62.72-11.61,94.1-17.34,6.05-1.1,12.14-1.98,19.69-3.2Z"/>
  <path class="st0" d="M338.35,1811.21c3.05-1,6-2.28,9.07-2.91,13.34-2.74,26.72-5.34,40.1-7.9,12.51-2.39,13.88-1.69,19.39,9.37,9.35,18.73,18.49,37.58,28.16,56.14,2.89,5.55,2.55,9.46-1.49,14.23-9.45,11.16-18.28,22.85-27.56,34.16-5.42,6.6-9.72,6.36-13.7-.94-17.82-32.68-35.47-65.46-53.15-98.23-.43-.8-.41-1.85-.84-3.93Z"/>
  <path class="st0" d="M1236.1,2157.46c0-3.43-.29-6.35.05-9.19,1.75-14.85,3.53-29.7,5.56-44.51,1.28-9.36,2.53-10.32,11.78-11.7,21.03-3.14,42.1-6.06,63.05-9.66,7.32-1.26,11.66.71,15.48,7.03,7.22,11.94,15.28,23.36,22.83,35.11,5.05,7.86,3.58,11.58-5.29,13.23-36.25,6.74-72.52,13.37-108.8,19.99-.93.17-1.95-.11-4.64-.3Z"/>
  <path class="st0" d="M1842.65,1410.44c-2.47-.67-4.44-.93-6.17-1.72-14.5-6.65-29.01-13.27-43.39-20.17-7.55-3.62-8.46-5.22-7.18-13.22,3.61-22.64,7.57-45.22,11.23-67.85.73-4.51,2.72-6.9,7.29-8.08,15.12-3.9,30.09-8.33,45.19-12.29,6.9-1.81,10.63,1.18,9.74,7.94-4.9,37.22-9.99,74.42-15.06,111.62-.13.93-.77,1.79-1.66,3.77Z"/>
  <path class="st0" d="M208.11,1322.32c2.87.87,5.13,1.27,7.15,2.2,13.89,6.38,27.78,12.78,41.58,19.37,9.2,4.39,9.62,5.56,7.96,15.42-3.63,21.63-7.38,43.25-10.68,64.93-.82,5.39-3.01,8.24-8.28,9.6-14.16,3.65-28.19,7.76-42.32,11.51-10.05,2.66-12.71.33-11.45-10.46,1.9-16.17,4.16-32.31,6.3-48.45,2.54-19.11,5.1-38.22,7.75-57.31.3-2.14,1.2-4.19,1.98-6.8Z"/>
  <path class="st0" d="M730.35,2131.06c2.38-3.32,3.81-5.81,5.7-7.88,9.88-10.79,19.8-21.53,29.85-32.16,7.63-8.08,8.69-8.15,18.79-2.89,18.56,9.67,36.96,19.67,55.76,28.87,6.46,3.16,8.52,7.08,7.98,13.96-1.04,13.25-1.98,26.55-1.84,39.83.13,12.8-5.76,13.56-14.69,9.14-28.58-14.14-57.44-27.72-86.2-41.51-4.72-2.27-9.44-4.53-15.34-7.36Z"/>
  <path class="st0" d="M389.92,850.31c1.86,2.26,3.34,3.61,4.27,5.27,7.84,13.9,15.69,27.79,23.29,41.82,4.13,7.63,3.72,9.38-2.59,15.61-15.85,15.66-31.87,31.15-47.59,46.94-3.83,3.85-7.26,4.68-12.36,2.63-13.87-5.58-27.99-10.54-41.92-15.98-8.21-3.21-9.22-6.99-3.41-13.15,25.35-26.83,50.84-53.53,76.31-80.25.88-.92,2.08-1.53,3.99-2.89Z"/>
  <path class="st0" d="M1660.75,1882.67c-1.85-2.62-3.71-4.81-5.1-7.27-7.2-12.73-14.37-25.48-21.38-38.32-5.23-9.58-5.01-10.5,2.63-18.03,15.16-14.94,30.61-29.6,45.4-44.89,5.05-5.23,9.38-5.68,15.72-3.07,13.21,5.44,26.75,10.04,40.06,15.25,7.87,3.08,8.85,7.24,3.03,13.39-25.35,26.83-50.84,53.52-76.32,80.23-.86.9-2.11,1.43-4.05,2.7Z"/>
  <path class="st0" d="M1153.39,2061.93c7.19,13.96,13.99,27.16,21.48,41.71-4.16.92-6.86,1.87-9.61,2.08-25.53,1.94-51.07,3.75-76.61,5.59-1.65.12-3.37.38-4.96.08-3.75-.69-6.26-2.57-4.76-6.9,4.01-11.62,7.93-23.27,12.32-34.74.61-1.6,3.56-3.07,5.56-3.25,18.51-1.66,37.05-3.03,56.58-4.56Z"/>
  <path class="st0" d="M711.29,2049.79c-14.5-5.98-74.6-44.5-79.19-50.82,3.6-6.68,10.94-9,16.62-13.24,5.84-4.36,11.99-8.3,18.8-12.97,2.46,1.31,5.39,2.7,8.15,4.37,13.09,7.9,26.11,15.93,39.23,23.8,3.04,1.82,5.45,3.63,4.77,7.75-2.12,12.78-4.09,25.59-6.22,38.38-.14.83-1.17,1.52-2.16,2.73Z"/>
  <path class="st0" d="M1537.71,1853.87c14.06,7.1,27.3,13.78,41.73,21.07-2.46,2.96-3.81,5.14-5.67,6.72-19.77,16.79-39.62,33.48-59.46,50.19-1.27,1.07-2.55,2.17-3.98,3-3.64,2.1-6.62,1.21-7.87-2.79-3.66-11.72-7.23-23.48-10.38-35.34-.43-1.63,1.15-4.51,2.66-5.83,13.98-12.26,28.16-24.31,42.96-37.01Z"/>
  <path class="st0" d="M278.36,1278.5c.22-2.15.19-4.42.71-6.56,6.16-25.15,12.41-50.28,18.63-75.42.24-.97.32-1.98.65-2.92,2.19-6.19,4.93-7.21,10.27-3.18,9.77,7.39,19.32,15.08,29.64,23.17-.67,3.43-1.32,7.3-2.2,11.11-3.31,14.23-6.76,28.42-10.01,42.66-.71,3.11-1.51,5.85-5.15,6.42-13.11,2.07-26.22,4.14-39.35,6.1-.8.12-1.75-.75-3.19-1.41Z"/>
  <path class="st0" d="M1771.04,1452.54c1.45,8.21-5.87,42.13-17.81,84.11-.85,2.99-2.53,5.75-4.35,9.78-13.69-7.96-23.74-18.63-36.52-26.75,1.99-8.8,3.91-17.48,5.91-26.15,2.09-9.05,4.4-18.06,6.35-27.14.93-4.36,2.8-7.12,7.55-7.81,12.77-1.85,25.5-3.95,38.88-6.05Z"/>
  <path class="st0" d="M369.67,1735.51c-1.75-3.4-3.1-5.6-4.07-7.97-9.46-23.11-18.85-46.26-28.27-69.39-.25-.62-.58-1.2-.81-1.83-3.31-9.01-2.14-10.75,7.24-10.75,11.64,0,23.28,0,35.33,0,2.23,4.82,4.28,8.92,6.07,13.14,5.31,12.58,10.32,25.29,15.87,37.76,2.08,4.67,1.64,7.92-2.08,11.48-8.18,7.83-16,16.04-24.04,24.02-1.11,1.11-2.63,1.8-5.23,3.54Z"/>
  <path class="st0" d="M1671.17,1086.95c-7.76-18.47-15.04-35.56-22.03-52.77-.73-1.79-.65-5.05.5-6.27,9.73-10.31,19.79-20.3,30.66-31.31,2.11,3.5,3.69,5.51,4.63,7.78,9.83,23.97,19.56,47.98,29.32,71.98.25.62.57,1.21.77,1.84,2.24,6.97.72,9.38-6.4,9.44-4.98.04-9.95-.57-14.94-.65-7.27-.12-14.54-.03-22.51-.03Z"/>
  <path class="st0" d="M1382.95,760.41c-16.2-9.82-32.43-19.58-48.54-29.55-1.43-.89-3.04-3.27-2.85-4.74,1.81-14.09,3.98-28.14,6.24-43.5,3.78,1.46,6.31,2.02,8.4,3.31,22.11,13.63,44.19,27.31,66.19,41.12,8.29,5.21,8.19,7.8-.12,13.5-9.32,6.39-18.71,12.68-29.32,19.86Z"/>
  <path class="st0" d="M471.99,856.67c2.38-2.41,4.27-4.63,6.46-6.49,19.02-16.13,38.1-32.19,57.16-48.27.76-.64,1.51-1.31,2.31-1.9,6.45-4.76,9.05-4.07,11.33,3.48,3.45,11.42,6.62,22.92,10.08,34.98-1.22,1.34-2.59,3.2-4.3,4.67-12.31,10.67-24.77,21.17-37,31.94-3.15,2.78-5.81,3.64-9.74,1.56-10.58-5.59-21.36-10.79-32-16.26-1.36-.7-2.4-2.05-4.3-3.73Z"/>
  <path class="st0" d="M958.41,665.95c-14.88,1.29-30.22,1.69-45.22,4.19-12.39,2.06-19.18-1.83-23.25-13.41-2.4-6.84-6.6-13.04-9.83-19.61-1.12-2.26-1.78-4.75-3.18-8.59,5.88-.7,10.66-1.47,15.46-1.82,22.57-1.66,45.15-3.21,67.73-4.79,1.66-.12,3.33-.28,4.99-.22,6.83.24,8.45,2.23,6.21,8.77-3.98,11.59-8.35,23.05-12.9,35.48Z"/>
  <path class="st0" d="M576.99,1963.26c-1.41-.44-2.98-.45-3.78-1.25-20.94-20.84-41.8-41.75-63.85-63.83,13.32-8.1,26.96-12.34,39.41-19.22,1.95,1.44,3.71,2.41,5.05,3.79,12.56,12.88,24.97,25.9,37.62,38.7,3,3.03,3.99,5.8,1.96,9.7-5.49,10.56-10.84,21.19-16.42,32.12Z"/>
  <path class="st0" d="M1739.04,1147.19c3.47,7.05,15.21,78.26,15.26,91.32-7.32,1.77-14.13-1.49-21.1-2.61-6.87-1.11-13.66-2.7-21.5-4.28-1.07-6.27-2.31-12.72-3.25-19.2-1.92-13.18-3.45-26.42-5.64-39.55-.8-4.78.35-7.43,4.66-9.54,10.41-5.09,20.65-10.53,31.58-16.14Z"/>
  <path class="st0" d="M685.69,755.4c-5.07,2.59-9.43,4.89-13.85,7.06-13.41,6.6-26.91,13.01-40.22,19.8-3.85,1.96-6.67,1.99-9.68-1.25-8.1-8.69-16.35-17.25-24.59-25.91,3.64-4.59,60.98-34.94,81.6-42.69,4.59,13.63,3.23,28.08,6.74,42.99Z"/>
  <path class="st0" d="M1501.81,854.55c-3.05-2.94-5.7-5.38-8.21-7.95-11.35-11.67-22.53-23.51-34.05-35.01-3.41-3.4-3.95-6.24-1.69-10.47,5.45-10.18,10.5-20.57,15.97-31.39,1.57.55,3.43.66,4.43,1.64,20.86,20.4,41.62,40.9,63.45,62.41-12.7,9.55-26.9,12.65-39.9,20.78Z"/>
  <path class="st0" d="M1690.34,1693.43c-10.83-11.55-20.47-21.83-30.34-32.35.93-2.28,1.6-4.47,2.66-6.47,8.21-15.57,16.61-31.04,24.68-46.68,2.13-4.13,4.41-5.88,9.34-4.95,11.36,2.14,22.84,3.66,34.78,5.51,0,1.68.54,3.48-.08,4.71-13.21,26.02-26.55,51.97-41.04,80.24Z"/>
  <path class="st0" d="M1454.57,1977.21c-.99,1.42-1.48,2.93-2.48,3.44-26.29,13.45-52.63,26.8-79.94,40.66-4.62-14.93-3.55-29.34-6.87-43.99,19.76-9.72,39.09-19.22,59.39-29.21,9.9,9.63,19.78,19.24,29.9,29.09Z"/>
  <path class="st0" d="M391.62,1071.83c-10.34,19.59-20.39,38.63-30.99,58.71-13.65-1.95-27.27-3.89-40.84-5.83.25-7.15,19.65-47.16,40.41-83.64,12.52,7.98,19.6,21.12,31.42,30.76Z"/>
  <path class="st0" d="M1044.22,661.17c-2.36-14.28-4.56-27.61-6.75-40.9,7.11-1.51,70.68,7.81,91.39,13.18.08,7.73-5.61,12.99-8.72,19.28-3.09,6.24-6.73,12.21-10.67,19.27-21.36-2.29-42.62-7.22-65.24-10.83Z"/>
  <path class="st0" d="M296.87,1493.14c14.05,2.63,27.6,5.17,42.35,7.94,1.38,8.51,2.89,17.26,4.2,26.03,1.57,10.53,2.7,21.14,4.53,31.62,1.02,5.83-.5,9.19-6.06,11.75-9.93,4.57-19.51,9.91-30.27,15.47-.94-2.26-2.37-4.44-2.75-6.79-4.39-27.27-8.63-54.57-12.87-81.86-.09-.61.25-1.29.86-4.16Z"/>
  <path class="st0" d="M1013.48,2112.54c-1.25.54-2.5,1.62-3.55,1.45-29.2-4.48-58.38-9.09-87.94-13.73.44-8.64,5.81-14.07,8.98-20.4,3.11-6.22,6.74-12.17,10.69-19.22,5.91.97,12.06,1.94,18.19,2.98,13.13,2.22,26.23,4.64,39.39,6.63,5.33.8,8.21,2.76,8.9,8.61,1.33,11.15,3.47,22.21,5.33,33.68Z"/>
  <path class="st0" d="M446.42,1784.07c1.18.92,4.13,2.15,5.29,4.33,7.36,13.76,14.44,27.67,21.26,41.7.95,1.95.8,5.44-.37,7.23-5.07,7.78-10.54,15.32-16.17,22.71-4.67,6.14-8.27,5.87-11.76-.98-10.37-20.42-20.59-40.93-30.69-61.49-2.76-5.62-1.57-8.41,4.09-9.43,8.81-1.59,17.73-2.59,28.34-4.08Z"/>
  <path class="st0" d="M450.58,947.8c-12.71,12.68-24.6,24.72-36.77,36.45-1.55,1.49-4.89,2.41-6.93,1.87-8.97-2.39-17.83-5.23-26.61-8.27-7.36-2.55-8.25-6-2.83-11.42,16.21-16.2,32.54-32.29,48.99-48.25,4.8-4.66,7.75-4.17,10.81,1.76,4.54,8.81,8.6,17.88,13.34,27.86Z"/>
  <path class="st0" d="M1678.02,1760.67c-1.95,2.58-2.96,4.31-4.33,5.67-16.28,16.12-32.55,32.26-48.99,48.23-5.19,5.04-7.76,4.51-11.26-2.17-3.69-7.05-6.82-14.4-10.48-21.48-2.23-4.31-1.12-7.4,2.13-10.59,10.44-10.23,20.75-20.58,31.03-30.97,2.86-2.89,5.48-3.77,9.68-2.17,8.36,3.18,17.12,5.28,25.55,8.28,2.42.86,4.28,3.28,6.66,5.2Z"/>
  <path class="st0" d="M1244.99,2081.61c-4.51.06-7.02-2.01-6.35-6.61,1.35-9.19,3.37-18.28,5.04-27.42.65-3.56,3.05-4.86,6.26-5.36,15.1-2.33,30.2-4.62,45.28-7.07,3.28-.53,5.58-.08,7.65,2.9,5.12,7.36,10.75,14.37,15.91,21.69,4.87,6.91,3.7,10.02-4.69,11.38-19.67,3.18-39.4,5.97-59.1,8.92-3.28.49-6.56,1.02-10,1.56Z"/>
  <path class="st0" d="M855.45,2085.89c0,4.98.27,9.97-.06,14.92-.46,6.99-3.52,8.85-9.81,5.7-13.65-6.82-27.13-13.96-40.68-20.98-6.77-3.51-13.6-6.92-20.27-10.63-6.01-3.34-6.68-6.09-2.24-10.72,5.97-6.22,12.44-11.95,18.6-17.99,2.84-2.79,5.69-2.71,9.02-.99,13.56,7,27.15,13.94,40.77,20.8,3.4,1.71,4.75,4.01,4.27,7.96-.48,3.92-.11,7.95-.11,11.93.17,0,.34,0,.51,0Z"/>
  <path class="st0" d="M803.14,651.79c8.03-.38,9.71,1.04,8.81,7.87-1.09,8.24-2.85,16.39-4.27,24.58-.65,3.75-2.66,5.73-6.55,6.33-15.13,2.32-30.21,4.97-45.35,7.13-2.23.32-5.67-.55-6.96-2.15-6.26-7.76-12.24-15.79-17.8-24.07-3.2-4.76-1.47-8.45,4.14-9.34,23-3.64,46.05-7.03,67.98-10.35Z"/>
  <path class="st0" d="M266.02,1423.44c2.96-17.67,6.03-36.06,9.12-54.46.83-4.93,1.67-9.85,2.6-14.76.82-4.32,3.94-5.67,7.43-3.97,8.68,4.22,17.22,8.76,25.5,13.72,1.68,1.01,2.99,4.54,2.69,6.66-2.19,15.5-4.69,30.95-7.5,46.35-.38,2.06-2.66,4.62-4.66,5.39-8.69,3.36-17.53,6.39-26.46,9.07-6.85,2.06-9.26-.19-8.73-8Z"/>
  <path class="st0" d="M1737.52,1362.12c2.44-15.41,4.73-30.84,7.48-46.19.38-2.1,2.68-4.74,4.7-5.51,8.68-3.28,17.53-6.15,26.42-8.8,7.37-2.2,9.93.11,8.7,7.74-3.57,22.28-7.23,44.55-11.01,66.8-1.31,7.69-3.85,8.9-10.93,5.33-6.82-3.43-13.41-7.3-20.2-10.79-3.6-1.85-6.02-4.14-5.17-8.58Z"/>
  <path class="st0" d="M1246.13,690.37c-15.97-8.17-31-15.89-46.07-23.52-3.02-1.53-4.28-3.6-4.22-7.08.16-8.63-.18-17.27-.09-25.91.11-9.39,2.61-11.09,10.7-6.95,19.81,10.13,39.54,20.4,59.21,30.79,7.31,3.86,7.72,6.2,2.11,11.86-6.75,6.83-13.84,13.33-21.65,20.8Z"/>
  <path class="st0" d="M1575.94,899.09c6.38-9.07,11.98-17.28,17.86-25.3,5.46-7.45,8.66-7.3,12.72.69,10.07,19.83,20.02,39.72,29.84,59.67,3.57,7.27,2.42,9.68-5.31,11.02-7.84,1.36-15.8,2.02-23.69,3.15-4.16.6-6.88-.72-8.81-4.59-7.39-14.84-14.97-29.59-22.61-44.65Z"/>
  <path class="st0" d="M1675.99,1599.55c-7.63,17.63-16.3,34.61-25.5,52.41-2.96-1.93-5.17-2.78-6.51-4.36-5.15-6.1-9.94-12.52-15.04-18.67-2.64-3.18-3.25-6.15-1.26-9.99,3.21-6.2,5.66-12.81,9.08-18.88,1.26-2.23,4.38-4.83,6.65-4.84,9.63-.03,19.26.78,28.88,1.5,1.06.08,2.02,1.5,3.7,2.83Z"/>
  <path class="st0" d="M561.84,1869.91c10.19-3.87,20.28-7.9,30.55-11.38,1.64-.55,4.53.85,6.11,2.2,5.55,4.77,11.04,9.69,16,15.05,1.72,1.86,3.17,5.58,2.5,7.77-2.63,8.57-6.03,16.92-9.41,25.25-1.61,3.97-4.83,4.82-7.93,1.82-12.43-12.04-24.69-24.27-36.96-36.47-.38-.38-.28-1.25-.86-4.23Z"/>
  <path class="st0" d="M946.95,2048.72c1.13-3.42,1.44-5.72,2.56-7.52,4.22-6.76,8.77-13.31,13.07-20.02,2.02-3.16,4.54-4.44,8.35-3.88,6.89,1.03,13.82,1.89,20.77,2.48,4.24.36,6.82,2.35,7.9,6.3,2.2,8,4.53,15.98,6.34,24.07,1.14,5.14-.67,7.38-5.45,6.8-13.84-1.7-27.63-3.77-41.43-5.8-3.55-.52-7.06-1.4-12.11-2.43Z"/>
  <path class="st0" d="M394.47,1539.98c-1.12,1.51-2.22,4.06-4.15,5.43-6.78,4.8-13.72,9.41-20.85,13.66-4.91,2.92-7.54,1.84-8.61-3.74-3-15.66-5.69-31.39-8.22-47.13-.8-4.95,1.42-7.03,6.36-5.84,8.71,2.09,17.32,4.65,25.88,7.33,1.65.52,3.75,2.26,4.11,3.8,2.01,8.39,3.54,16.89,5.47,26.5Z"/>
  <path class="st0" d="M689.9,770.12c.61,10.5,1.47,20.41,1.54,30.32.02,2.42-1.99,5.76-4.07,7.11-6.4,4.16-13.2,7.74-20.06,11.12-1.79.88-4.98,1.12-6.44.1-8.87-6.25-17.6-12.75-25.04-20.62,6.11-7.43,44.12-27.36,54.07-28.02Z"/>
  <path class="st0" d="M1104.45,686.29c-5.1,9.89-11.48,18.71-17.87,27.46-1.05,1.43-4.14,2.1-6.19,1.94-7.29-.59-14.54-1.71-21.8-2.59-4.19-.51-6.42-3-7.45-6.95-2.01-7.72-4.31-15.38-6.15-23.14-1.24-5.21.28-7.56,5.15-6.94,16.82,2.14,33.58,4.78,50.34,7.36,1.11.17,2.06,1.44,3.97,2.87Z"/>
  <path class="st0" d="M1362.56,1965.48c-1.11-4.72-2.06-7.16-2.21-9.65-.42-7.3-.37-14.63-.81-21.94-.27-4.51,1.19-7.52,5.36-9.6,5.95-2.96,11.7-6.32,17.49-9.59,3.2-1.81,6.31-2.1,9.29.26,6.77,5.38,13.53,10.77,20.19,16.29,3.2,2.65,3.7,6.01-.18,8.12-15.67,8.55-31.52,16.79-49.13,26.1Z"/>
  <path class="st0" d="M1697.37,1231.61c-6.86-1.67-12.9-2.89-18.78-4.63-18.95-5.62-15.73-1.08-19.48-21.06-3.14-16.78-5.88-14,10.55-24.38,5.49-3.47,10.25-8.49,17.1-9.38,4.08,6.3,11.62,46.65,10.62,59.44Z"/>
  <path class="st0" d="M400.44,1080.46c3.29,2.36,5.14,3.2,6.31,4.61,5.1,6.13,9.91,12.5,15.02,18.63,2.93,3.52,3.25,6.9,1.16,10.97-3.03,5.91-5.39,12.18-8.66,17.94-1.28,2.26-4.15,4.98-6.4,5.07-10.54.43-21.1-.04-31.64-1.99-.12-2.21-.66-3.73-.18-4.75,7.27-15.29,14.68-30.52,22.07-45.76.73-1.5,1.47-3,2.32-4.72Z"/>
  <path class="st0" d="M1446.31,818.3c4.29,3.69,6.86,5.68,9.19,7.93,9.58,9.22,19.15,18.45,28.59,27.82,6.72,6.66,6.21,8.62-2.88,12.17-6.19,2.42-12.5,4.53-18.63,7.07-4.54,1.88-8.18,1.36-11.7-2.26-4.41-4.52-9.42-8.45-13.68-13.09-1.81-1.97-3.85-5.45-3.3-7.59,2.71-10.49,6.8-20.54,12.41-32.06Z"/>
  <path class="st0" d="M1633.99,1090.28c-1,.06-1.99.11-2.99.19q-13.13,1.02-18.34-11.55c-6.69-16.22-5.14-13.26,5.28-23.53,3.55-3.5,7.15-6.97,10.93-10.21,5.09-4.36,8.11-4.06,10.97,1.69,5.47,11.01,10.64,22.17,15.55,33.44,2.37,5.46.79,7.82-5.51,8.77-5.25.78-10.59.87-15.9,1.27,0-.03,0-.05,0-.07Z"/>
  <path class="st0" d="M348.72,1271.81c-7.25.24-9.36-1.99-8.07-9.05,2.03-11.11,4.24-22.19,6.68-33.22,1.87-8.46,3.9-9.22,11.58-4.7,6.87,4.05,13.51,8.5,20.45,12.43,3.76,2.13,5.24,4.64,4,8.92-1.39,4.78-2.42,9.66-3.56,14.51-1.09,4.64-3.47,7.62-8.65,8.14-7.6.77-15.15,1.98-22.42,2.96Z"/>
  <path class="st0" d="M947.2,717.8c-7.98.7-15.2,1.39-22.43,1.95-3.65.28-6.48-1.15-8.1-4.57-3.55-7.51-7.31-14.92-10.55-22.56-2.3-5.44-.87-8.15,5.12-9.06,12.47-1.9,25.01-3.43,37.56-4.74,5.01-.52,6.94,2.01,5.76,7.69-2.08,10.06-4.67,20.02-7.35,31.29Z"/>
  <path class="st0" d="M432.87,1641.4c3.04,7.23,5.6,13.34,8.18,19.43,1.89,4.46,1.35,8.19-2.53,11.58-5.5,4.8-10.57,10.1-16.04,14.94-5.36,4.74-8.67,4.32-11.68-1.81-5.27-10.73-10.24-21.6-15.05-32.54-2.6-5.91-1.39-8.33,4.61-8.97,10.52-1.13,21.1-1.73,32.51-2.63Z"/>
  <path class="st0" d="M1343.22,795.85c-6.89-4.29-13.08-8.09-19.22-11.97-3.1-1.96-4.48-4.76-3.76-8.48,1.51-7.82,2.74-15.7,4.51-23.46,1.46-6.39,4.44-8.01,10.02-5.1,10.88,5.68,21.6,11.69,32.2,17.9,5.11,2.99,5.31,6.04.68,10.22-7.61,6.87-15.57,13.36-24.43,20.89Z"/>
  <path class="st0" d="M1469.64,1845.27c6.35-5.38,11.84-10.16,17.48-14.74,2.71-2.2,5.69-3.14,9.19-1.13,7.21,4.14,14.68,7.85,21.81,12.11,4.72,2.82,5.5,6.16,1.92,9.67-10.18,9.96-20.74,19.53-31.97,30.02-10.38-10.31-11.43-23.85-18.44-35.93Z"/>
  <path class="st0" d="M707.58,1937.14c6.88,4.22,13.12,7.95,19.26,11.83,3.07,1.94,4.47,4.68,3.7,8.5-1.63,8.15-2.82,16.39-4.67,24.49-1.29,5.62-4.35,6.97-9.57,4.21-10.87-5.76-21.63-11.75-32.25-17.95-5.01-2.92-5.54-5.77-1.56-9.42,8.03-7.37,16.49-14.28,25.09-21.66Z"/>
  <path class="st0" d="M580,886.48c-.14.64-.05,1.56-.44,1.89-6.62,5.38-13.2,10.84-20.1,15.85-1.04.76-3.88-.3-5.55-1.17-7.07-3.67-14.13-7.38-20.96-11.48-5.21-3.13-5.77-6.26-1.57-10.36,9.02-8.82,18.31-17.37,27.75-25.75,3.69-3.27,6.84-2.74,8.84,1.58,4.19,9.02,7.8,18.31,11.62,27.51.25.6.27,1.29.4,1.94Z"/>
  <path class="st0" d="M1119.8,2013.72q12.26-.7,17.35,10.05c2.55,5.4,5.28,10.73,7.55,16.24,2.39,5.78.73,8.81-5.57,9.68-11.83,1.65-23.69,3.11-35.59,4.21-6.74.62-8.55-1.54-7.19-8.17,1.66-8.12,4.09-16.08,5.67-24.22,1.01-5.2,3.66-7.42,8.81-7.32,2.98.06,5.97-.3,8.95-.48Z"/>
  <path class="st0" d="M1704.22,1461.14c4.85.06,6.95,1.88,6.07,7.4-2,12.42-4.43,24.79-7.06,37.09-1.04,4.86-3.89,6.37-8.05,4.08-8.7-4.79-17.13-10.09-25.48-15.47-1.32-.85-1.73-3.22-2.38-4.96-.2-.53.24-1.28.32-1.93,2.88-21.2,4.22-22.55,25.27-25.06,3.62-.43,7.26-.74,11.32-1.15Z"/>
  <path class="st0" d="M857.62,2053.6c-14.66-6.83-27.97-11.49-40.05-20.83,6.79-9.13,14.54-15.88,22-22.83,1.11-1.03,3.61-.64,5.48-.74.6-.03,1.22.48,1.84.73q13.19,5.18,12.95,19.36c-.08,4.66,0,9.34-.31,13.99-.19,2.83-1.01,5.62-1.91,10.33Z"/>
  <path class="st0" d="M471.85,993.56c-1.61,1.96-3.8,4.33-5.64,6.95-4.63,6.62-9.91,8.55-17.63,4.53-5.81-3.03-12.47-4.37-18.57-6.9-4.85-2.01-5.61-4.55-2.21-8.27,7.35-8.07,15.06-15.82,22.75-23.58,2.73-2.75,6.08-3.53,8.25.41,4.31,7.81,8.18,15.87,12.21,23.84.29.57.36,1.26.85,3.02Z"/>
  <path class="st0" d="M509.64,1795.17c-7.25,9.27-14.33,18.32-22.01,28.14-2.53-2.53-4.5-3.81-5.51-5.63-4.86-8.72-9.62-17.51-14.1-26.44-3.39-6.76-2.47-8.44,5.29-10,6.52-1.31,13.16-2.04,19.69-3.27,4.94-.93,8.34.55,10.49,5.21,1.79,3.89,3.9,7.63,6.15,11.98Z"/>
  <path class="st0" d="M757,713.9c3.35-1.83,4.93-3.23,6.71-3.57,10.13-1.96,20.29-3.82,30.49-5.41,6.55-1.02,8.43.9,7.57,7.79-.91,7.26-2.46,14.44-3.47,21.7-.55,3.97-2.75,5.82-6.43,6.46-1.31.23-2.65.44-3.88.91-7.93,3.04-12.96.18-16.98-7.05-3.84-6.89-8.79-13.17-14.01-20.83Z"/>
  <path class="st0" d="M1293.4,2021.48c-14.04,2.46-26.04,4.83-38.13,6.57-5.06.73-6.85-1.34-6.25-6.32.95-7.91,2-15.85,3.8-23.6.53-2.3,3.36-5,5.71-5.8,13.28-4.5,14.48-3.92,22.64,7.95,2.82,4.11,5.79,8.13,8.42,12.36,1.31,2.1,2.01,4.57,3.82,8.84Z"/>
  <path class="st0" d="M1729.53,1313.02c.26,4.21.81,6.79.51,9.27-1.17,9.58-2.43,19.15-4.02,28.67-1.12,6.75-3.32,7.79-9.56,4.82-6.31-3-12.38-6.5-18.71-9.46-4.75-2.22-5.81-5.52-5.11-10.5,1.77-12.66,1.57-12.73,14.06-16.4,7.2-2.11,14.46-4.06,22.82-6.4Z"/>
  <path class="st0" d="M358.5,1393.93c-.58,4.87-1,8.16-1.37,11.47-.38,3.41-2.34,5.25-5.58,6.15-7.68,2.14-15.26,4.63-22.99,6.58-6.88,1.74-8.79.06-7.97-6.7,1.12-9.23,2.4-18.45,3.85-27.63,1.34-8.54,3.57-9.7,11.2-6.03,5.99,2.88,11.81,6.09,17.79,8.98,3.78,1.83,5.64,4.48,5.07,7.19Z"/>
  <path class="st0" d="M1554.08,955.47c-.84-.47-3.37-1.09-4.5-2.69-2.68-3.77-5.07-7.86-6.81-12.14-.68-1.67.14-4.6,1.3-6.23,4.82-6.77,9.85-13.4,15.14-19.81,3.99-4.83,6.69-4.57,9.79.93,4.9,8.68,9.63,17.47,14.04,26.41,3,6.08,1.64,8.6-4.86,9.78-7.52,1.36-15.1,2.37-24.11,3.75Z"/>
  <path class="st0" d="M1625.83,1739.45c-2.62,3.07-5.22,6.38-8.09,9.43-5.47,5.8-10.93,11.64-16.72,17.12-4.44,4.2-7.06,3.69-10.06-1.74-3.53-6.4-6.61-13.04-10.01-19.51-1.98-3.76-1.56-6.92,1.52-9.88,2.15-2.07,3.86-4.69,6.24-6.41,1.94-1.4,4.98-3.09,6.84-2.49,9.46,3.02,18.71,6.72,27.98,10.3.76.29,1.15,1.54,2.3,3.19Z"/>
  <path class="st0" d="M1193.41,678.93c13.12,6.41,24.49,11.77,35.67,17.52,3.7,1.9,3.96,5.21.98,8.26-5.58,5.72-11.31,11.3-16.9,17.01-2.74,2.8-5.71,3.05-9.06,1.34-1.78-.91-3.51-2.05-5.41-2.55-6.83-1.8-8.49-6.16-7.67-12.8.77-6.25.37-12.64.69-18.96.13-2.5.83-4.96,1.7-9.82Z"/>
</svg>