<?xml version="1.0" encoding="UTF-8"?>
<svg id="Layer_0_xA0_Image" xmlns="http://www.w3.org/2000/svg" version="1.1" viewBox="0 0 2732 2048">
  <!-- Generator: Adobe Illustrator 30.2.1, SVG Export Plug-In . SVG Version: 2.1.1 Build 1)  -->
  <defs>
    <style>
      .st0 {
        fill: #7f74b5;
      }
    </style>
  </defs>
  <path class="st0" d="M1462,0c1.24,3.01,2.19,6.19,3.78,9.01,25.83,45.85,51.82,91.62,77.54,137.52,2.97,5.3,6.38,8.47,12.52,10.06,19.01,4.92,37.89,10.37,56.65,16.17,6.02,1.86,10.69.96,15.98-2.06,51.48-29.4,103.08-58.61,154.65-87.86,3.13-1.77,6.31-3.45,11.02-6.01-.4,4.13-.33,6.64-.93,8.97-6.42,25.16-13.12,50.25-19.32,75.46-1.52,6.16-5.14,9.57-10.23,12.58-30.66,18.17-61.03,36.85-91.93,54.6-8.36,4.8-11.31,10.43-11.45,19.75-.36,23.31-1.65,46.61-2.7,69.91-.27,5.88-1.03,11.74-1.57,17.66-5.93.61-6.72-3.73-8.46-6.54-12.92-20.99-25.92-41.94-38.39-63.2-3.35-5.71-7.51-8.61-13.78-10-18.2-4.04-36.38-8.2-54.4-12.95-7.06-1.86-12.6-.83-18.74,2.99-21.21,13.19-42.74,25.88-64.18,38.7-2.62,1.56-5.47,2.74-8.21,4.09-.62-.59-1.24-1.18-1.86-1.78,1.31-3.2,2.47-6.48,3.95-9.6,12.13-25.57,24.12-51.22,36.65-76.6,3.15-6.37,3.14-11.17-.65-17.33-19.04-30.91-37.49-62.19-56.44-93.16-3.21-5.24-3.91-9.75-2.28-15.84C1435.86,49.8,1441.8,24.87,1448,0c4.67,0,9.33,0,14,0Z"/>
  <path class="st0" d="M1390,2048c-4.58-22.84-9.02-45.71-13.83-68.5-1.35-6.38.05-11.44,3.64-16.8,20.35-30.45,40.24-61.22,60.69-91.61,3.83-5.69,4.22-10.2,1.49-16.39-11.15-25.27-21.84-50.75-32.59-76.2-1.3-3.07-4.33-6.25-.15-10.78,2.99,1.83,6.04,3.62,9.01,5.53,20.69,13.38,41.42,26.7,61.99,40.27,4.47,2.94,8.54,3.89,13.94,2.61,19.43-4.6,38.97-8.73,58.51-12.79,5.24-1.09,8.77-3.51,11.73-8.12,13.65-21.31,27.66-42.39,41.58-63.53,1.93-2.94,4.04-5.76,6.19-8.82,4.85,3.27,3.49,7.24,3.51,10.6.17,28.64.45,57.29.1,85.93-.09,7.23,2.32,11.3,8.36,15.17,30.56,19.58,60.73,39.76,91.24,59.44,5.2,3.36,7.65,7.19,8.84,13.32,5.19,26.79,11.06,53.44,16.63,80.15.46,2.18.58,4.43.91,7.05-5.21.86-7.86-2.67-10.87-4.74-41.63-28.8-83.16-57.73-124.72-86.63-1.64-1.14-3.49-2.07-4.89-3.46-11.76-11.74-25.25-13.43-41.03-9.29-14.43,3.78-29.43,5.44-44.22,7.83-5.18.84-9.06,2.73-12.24,7.36-31.87,46.38-63.98,92.61-96,138.89-.74,1.07-1.22,2.33-1.82,3.51h-16Z"/>
  <path class="st0" d="M1974.34,1455.78c3.24-1.3,6.42-2.76,9.72-3.88,23.34-7.88,46.65-15.88,70.11-23.4,5.56-1.78,8.98-4.69,11.46-9.91,8.44-17.74,17.14-35.36,26.06-52.87,2.63-5.16,2.79-9.71.92-15.21-8.16-23.95-15.88-48.05-23.72-72.11-1-3.06-1.74-6.2-2.68-9.62,5.07-2.02,7.4,1.55,10,3.59,20.97,16.46,41.83,33.05,62.73,49.6,2.09,1.65,4.42,3.08,6.23,5,4.29,4.54,8.84,4.26,14.41,2.39,34.72-11.65,69.57-22.92,104.29-34.54,5.65-1.89,10.2-2,15.87,1,23.55,12.44,47.51,24.12,71.3,36.13,2.79,1.41,5.44,3.11,8.16,4.67-.06.73-.11,1.46-.17,2.2-3.32,1.13-6.6,2.38-9.96,3.38-54.85,16.43-109.69,32.94-164.62,49.08-6.34,1.86-10.09,5.08-13.09,10.81-8.97,17.11-18.26,34.06-27.93,50.77-3.15,5.44-3.34,10.15-1.56,15.99,17.23,56.7,34.21,113.47,51.23,170.24,1.1,3.67,1.98,7.41,3.42,12.82-4.26-1.76-6.68-2.57-8.93-3.73-22.8-11.74-45.48-23.71-68.41-35.2-5.61-2.81-8.45-6.73-10.29-12.48-11.16-34.88-22.76-69.62-33.77-104.55-2.13-6.77-5.35-10.31-12.42-12.14-26.42-6.84-52.67-14.36-78.95-21.74-3.25-.91-6.31-2.54-9.45-3.84.02-.82.04-1.64.06-2.46Z"/>
  <path class="st0" d="M633.43,899.64c-2.14,2.34-4.38,5.05-6.88,7.49-17.41,17-34.76,34.06-52.4,50.82-4.42,4.2-6.61,8.38-6.52,14.7.28,19.33.12,38.67-.47,57.99-.2,6.63,2.06,11.22,6.54,15.78,17.51,17.84,34.74,35.96,52.04,54,2.21,2.3,4.22,4.8,6.32,7.21-.26.71-.51,1.42-.77,2.13-3.01-.28-6.09-.25-9.02-.9-28.62-6.31-57.27-12.5-85.77-19.29-6.32-1.5-10.32-.46-14.97,4.09-25.94,25.44-52.38,50.36-78.28,75.84-4.99,4.91-9.88,6.61-16.68,6.39-26.65-.84-53.32-1.13-79.97-1.69-2.55-.05-5.08-.48-8.21-.79.76-5.16,4.61-7.05,7.34-9.55,41.34-37.77,82.61-75.62,124.3-113.01,6.82-6.12,9.73-12.38,9.84-21.42.23-17.98,1.29-35.97,2.62-53.91.49-6.62-1.57-11.23-5.93-15.97-40.17-43.66-80.15-87.5-120.17-131.3-2.34-2.56-4.47-5.31-8.36-9.96,5.49,0,8.34-.07,11.18.01,25.32.69,50.64,1.58,75.96,1.99,6.31.1,10.51,2.75,14.62,7.08,24.54,25.88,49.25,51.6,73.91,77.36,8.74,9.13,8.76,9.18,21.39,6.91,26.55-4.76,53.09-9.59,79.64-14.39,2.84-.51,5.87-2.2,8.69,2.36Z"/>
  <path class="st0" d="M2231.44,445.64c-1.34,3.64-2.59,7.32-4.04,10.92-21.15,52.5-42.2,105.05-63.64,157.43-2.63,6.43-2.51,11.62.25,17.86,7.69,17.35,14.99,34.88,21.89,52.55,2.4,6.13,6.07,9.5,12.13,11.91,54.78,21.73,109.44,43.76,164.13,65.71,3.64,1.46,7.22,3.08,12.09,5.16-2.59,1.9-3.92,3.26-5.53,3.99-24.6,11.06-49.32,21.85-73.81,33.15-5.58,2.57-10.19,1.43-15.29-.49-33.97-12.78-68.04-25.29-101.88-38.38-6.93-2.68-11.86-2.56-18.05,2.14-21.5,16.3-43.53,31.9-65.41,47.69-2.79,2.01-5.88,3.59-8.84,5.37-.68-.5-1.37-1.01-2.05-1.51.85-3.32,1.43-6.73,2.59-9.93,8.26-22.86,16.44-45.75,25.11-68.45,2.45-6.42,2.23-11.66-.9-17.86-8.26-16.34-16.05-32.94-23.38-49.71-2.9-6.64-6.95-10.54-13.8-12.97-23.53-8.35-46.86-17.27-70.24-26.03-2.97-1.11-5.81-2.54-8.72-3.82-.02-.77-.04-1.55-.06-2.32,3.53-1.18,6.98-2.64,10.59-3.48,26.9-6.3,53.77-12.76,80.8-18.51,7.99-1.7,12.37-4.96,15.21-13.01,11.64-32.96,24.34-65.54,36.17-98.43,2.66-7.41,6.48-11.97,13.92-15.18,23.53-10.17,46.66-21.26,69.96-31.96,2.93-1.35,5.95-2.52,8.93-3.77.63.64,1.25,1.28,1.88,1.92Z"/>
  <path class="st0" d="M608.82,311.26c5.14.43,8.39.5,11.56,1,55.57,8.88,111.17,17.63,166.67,26.91,8.51,1.42,15.13.43,22.11-4.93,14.53-11.15,29.64-21.56,44.71-31.99,4.93-3.42,7.72-7.16,8.69-13.48,8.98-58.59,18.37-117.12,27.69-175.66.6-3.8,1.57-7.53,2.76-13.11,3.14,3.46,5.2,5.4,6.88,7.63,15.26,20.21,30.35,40.55,45.75,60.65,3.5,4.57,4.87,9.05,4.07,14.75-5.1,36.28-9.82,72.61-15.12,108.85-1.13,7.73.55,12.84,6.71,18.01,20.42,17.13,40.29,34.92,60.32,52.52,2.58,2.27,4.84,4.89,7.25,7.35-.33.8-.66,1.59-.99,2.39-3.06,0-6.16.32-9.17-.05-24.13-2.96-48.28-5.8-72.35-9.25-7.14-1.02-12.55.1-18.24,4.83-14.61,12.13-29.71,23.68-44.83,35.17-4.55,3.46-6.89,7.26-7.58,13.12-3.05,25.8-6.62,51.53-10.1,77.27-.38,2.79-1.35,5.5-4.04,8.78-1.79-2.95-3.82-5.78-5.33-8.86-12.73-26.03-25.51-52.04-37.92-78.22-2.58-5.44-5.87-7.98-11.89-8.73-37.02-4.59-73.99-9.55-110.98-14.36-3.63-.47-6.94-.8-9.57-4.27-17.9-23.64-36.04-47.11-54.07-70.66-.76-.99-1.2-2.23-3.01-5.65Z"/>
  <path class="st0" d="M840.67,1923.45c-.92-10.25-1.75-17.79-2.25-25.34-3.51-53.51-7-107.02-10.35-160.54-.29-4.58-1.41-8.06-5.04-11.22-15.84-13.76-31.54-27.7-47.04-41.85-3.82-3.49-7.69-4.49-12.64-4.13-52.82,3.77-105.65,7.42-158.48,11.03-10.49.72-20.99,1.13-33.29,1.78,2.02-3.14,2.84-4.78,3.99-6.14,17.17-20.38,34.47-40.66,51.51-61.15,3.47-4.18,7.3-6.04,12.7-6.51,34.17-2.94,68.32-6.19,102.47-9.33,2.32-.21,4.67-.58,6.98-.45,8.42.47,12.95-3.76,16.73-11.11,12.19-23.68,25.08-47.01,37.79-70.42,1.62-2.98,3.79-5.65,5.7-8.47.77.2,1.53.4,2.3.6.64,2.72,1.59,5.41,1.86,8.16,2.27,22.86,4.77,45.72,6.45,68.63.75,10.2,3.57,17.92,12.45,24.29,14.32,10.27,27.67,21.93,41.21,33.25,4.37,3.66,8.57,5.03,14.48,4.39,25.16-2.71,50.39-4.79,75.6-7.01,3.21-.28,6.47-.04,9.97-.04.54,5.12-3.34,6.61-5.95,8.72-21.5,17.39-42.82,35.02-64.79,51.79-7.62,5.82-9.7,11.81-8.7,21.09,3.85,35.75,6.86,71.6,10.29,107.4.36,3.76.3,6.76-2.47,10.04-18.24,21.65-36.16,43.58-54.24,65.38-1.62,1.95-3.61,3.59-7.24,7.15Z"/>
  <path class="st0" d="M1954.21,1570.59c-21.24,58.68-41.93,115.82-62.8,173.47-61.74-.62-122.95-1.24-184.94-1.86.76-2.99,1.13-5.19,1.87-7.26,9.84-27.58,19.84-55.11,29.5-82.75,1.97-5.63,5-9.68,9.93-13.1,33.13-22.93,66.06-46.15,99.15-69.14,2.59-1.8,5.93-3.78,8.85-3.68,32.24,1.18,64.46,2.77,98.43,4.32Z"/>
  <path class="st0" d="M2160.39,906.56c32.44,52.87,64.11,104.47,96.22,156.81-38.71,47.75-77.38,95.46-116.71,143.97-2.19-3.17-3.72-5.18-5.05-7.32-15.27-24.61-30.41-49.31-45.82-73.82-3.18-5.06-4.24-9.97-3.84-15.96,2.59-38.53,4.96-77.08,6.98-115.65.41-7.72,2.54-13.82,7.8-19.65,17.84-19.78,35.18-40.02,52.73-60.06,2.15-2.45,4.43-4.79,7.69-8.31Z"/>
  <path class="st0" d="M704.26,1474.76c-51.98-33.44-102.91-66.2-154.62-99.46,14.18-59.87,28.32-119.62,42.67-180.22,3.03,1.64,5.08,2.59,6.96,3.78,24.73,15.74,49.39,31.59,74.2,47.2,4.72,2.97,7.97,6.53,10.08,11.78,15.13,37.7,30.44,75.32,45.87,112.9,1.75,4.26,1.92,8.06.68,12.45-8.12,28.84-16.03,57.73-24.03,86.6-.34,1.23-.87,2.4-1.81,4.97Z"/>
  <path class="st0" d="M1770.18,331.18c61.12,7.54,121.39,14.98,182.06,22.47,13.27,60.38,26.39,120.04,39.83,181.19-11.14-1.19-21.23-2.18-31.29-3.37-21.14-2.49-42.26-5.21-63.43-7.53-5.89-.65-10.64-2.6-15.07-6.65-29.73-27.18-59.61-54.18-89.52-81.15-3.33-3-5.71-6.15-6.52-10.75-5.24-29.81-10.68-59.58-16.03-89.37-.17-.96-.02-1.98-.02-4.83Z"/>
  <path class="st0" d="M583.36,603.73c56.27-26.52,111.5-52.55,167.85-79.11,1.6,14.05,3.08,26.48,4.43,38.92,2.02,18.53,3.83,37.08,5.98,55.59.72,6.2-.37,11.56-3.51,17.09-19.75,34.72-39.22,69.59-58.71,104.45-2.16,3.86-4.48,7.01-8.89,8.85-27.93,11.69-55.74,23.66-83.61,35.51-1.17.5-2.48.67-4.93,1.32-6.24-61.24-12.43-121.94-18.61-182.62Z"/>
  <path class="st0" d="M1207.59,149.07c56.01,27.55,110.83,54.51,166.02,81.65-1.31,1.9-1.74,2.79-2.4,3.44-21.8,21.54-43.69,42.99-65.39,64.64-3.98,3.97-8.35,6.15-13.86,7.03-40.1,6.43-80.16,13.1-120.27,19.43-3.35.53-7.48.12-10.42-1.43-27.39-14.44-54.61-29.22-81.87-43.91-.86-.47-1.68-1.01-3.39-2.04,44.29-43.36,87.73-85.89,131.58-128.82Z"/>
  <path class="st0" d="M1305.54,1823.97c-58.15,19.65-115.78,39.12-173.74,58.71-38.16-48.65-75.93-96.81-114.32-145.74,3.32-1.35,5.62-2.4,7.99-3.22,27.4-9.41,54.84-18.68,82.17-28.27,5.64-1.98,10.79-2.15,16.5-.44,38.59,11.57,77.23,22.97,115.9,34.27,3.98,1.16,7.21,2.67,9.75,6.2,18.08,25.17,36.33,50.21,54.51,75.31.37.52.49,1.22,1.25,3.18Z"/>
  <path class="st0" d="M930.04,1735.02c7.07,1.57,14.13,3.14,21.2,4.7,16.9,3.74,33.77,7.61,50.72,11.11,4.53.94,7.5,3.07,10.38,6.68,35.75,44.77,71.69,89.4,107.59,134.05,1.24,1.54,2.62,2.97,4.47,5.05,3.68-1,7.5-1.93,11.26-3.07,52.2-15.96,104.42-31.85,156.53-48.08,6.46-2.01,12.08-1.86,18.32.48,19,7.15,38.17,13.85,57.26,20.78,2.92,1.06,5.74,2.4,8.39,5.57-89.53,29.75-179.05,59.5-269.19,89.45-59.71-75.1-119.1-149.79-178.49-224.48l1.57-2.23Z"/>
  <path class="st0" d="M511.8,561.94c86.87-41.67,172.82-82.9,258.77-124.13.44.51.87,1.03,1.31,1.54-.72,2.04-1.27,4.16-2.19,6.11-9.82,20.77-19.82,41.46-29.44,62.33-1.73,3.76-4.32,5.39-7.74,7.04-51.86,25.08-103.66,50.29-155.47,75.49-1.49.73-2.92,1.6-5.61,3.08.42,7.65.74,15.88,1.34,24.08,3.69,50.5,7.37,100.99,11.25,151.47.48,6.28-.8,11.52-4.32,16.82-11.25,16.92-22.06,34.13-33.08,51.2-1.75,2.71-3.7,5.29-7.46,7.54-9.08-93.85-18.17-187.69-27.35-282.57Z"/>
  <path class="st0" d="M1453.98,193.97c-1.76.66-3.19,1.37-4.7,1.72-22.67,5.34-45.39,10.49-68,16.06-4.7,1.16-8.28-.11-12.29-2.03-50.44-24.14-100.93-48.18-151.41-72.23-2.96-1.41-5.99-2.68-9.54-4.25-2.84,2.56-5.55,4.95-8.2,7.4-40.37,37.29-80.74,74.57-121.06,111.91-3.72,3.44-7.32,6.42-12.8,6.92-22.21,2.02-44.39,4.4-66.59,6.58-2.19.22-4.42.03-9.1.03,69.37-67.23,137.1-132.86,204.55-198.23,12.99,3.98,253.47,120.94,259.13,126.11Z"/>
  <path class="st0" d="M472.34,1405.16c21.49-93.54,42.84-186.46,64.66-281.43,2.4,3.33,3.86,4.87,4.75,6.68,10.14,20.61,20.06,41.32,30.37,61.85,1.99,3.96,1.8,7.3.87,11.39-12.81,56.46-25.44,112.97-38.09,169.47-.35,1.58-.42,3.23-.68,5.37,3.27,2.3,6.49,4.6,9.75,6.84,45.06,30.86,90.08,61.76,135.25,92.46,5.23,3.56,8.53,7.72,10.47,13.81,6.16,19.34,12.89,38.49,19.36,57.73,1.03,3.07,1.86,6.21,1.37,10.71-79.2-51.52-158.4-103.03-238.09-154.87Z"/>
  <path class="st0" d="M1964.94,344.18c-11.85-1.91-23.61-3.91-35.4-5.7-45.74-6.96-91.47-13.91-137.23-20.72-6.81-1.01-12.28-3.38-17.2-8.67-13.84-14.87-28.34-29.11-42.54-43.65-2.19-2.25-4.16-4.72-7.66-8.72,17.42,2.18,32.49,4.02,47.54,5.96,50.18,6.45,100.36,12.94,150.54,19.4,26.41,3.4,52.81,6.87,79.25,10.05,5.22.63,7.19,2.98,8.3,7.98,7.98,36.07,16.3,72.05,24.46,108.08,11.92,52.57,23.81,105.16,35.67,157.74.55,2.43.75,4.93,1.35,8.96-3.01-1.86-4.72-2.7-6.19-3.86-18.34-14.39-36.58-28.92-55.02-43.17-3.23-2.5-4.21-5.41-5.06-9.14-12.82-55.78-25.81-111.52-38.79-167.27-.52-2.23-1.22-4.42-2.02-7.29Z"/>
  <path class="st0" d="M2192.22,827.66c48.82,80.49,97.65,160.99,146.99,242.35-59.78,74.74-119.39,149.29-180.25,225.37-.68-3.97-1.31-6.01-1.33-8.05-.23-23.32-.49-46.63-.38-69.95.01-2.93,1.55-6.33,3.41-8.69,35.23-44.76,70.61-89.39,105.95-134.06,1.83-2.32,3.5-4.77,5.37-7.33-2.78-4.91-5.36-9.54-8.01-14.14-26.39-45.9-52.7-91.85-79.28-137.63-3.56-6.12-4.61-11.81-3.55-18.87,2.81-18.76,4.69-37.66,6.98-56.49.51-4.18,1.22-8.33,1.84-12.49.75,0,1.5,0,2.25,0Z"/>
  <path class="st0" d="M1938.14,1811.7c-21.91,2.12-280.19.89-288.01-1.45,1.85-1.75,3.35-3.36,5.04-4.73,17.6-14.25,35.35-28.33,52.77-42.79,3.48-2.89,6.84-3.26,10.95-3.28,56.96-.23,113.91-.58,170.87-.92,2.62-.02,5.23-.31,8.28-.5,1.45-3.53,2.88-6.87,4.21-10.24,20.04-50.77,40.14-101.52,60.01-152.35,2.42-6.19,5.88-10.61,11.7-14.04,17.5-10.3,34.67-21.17,51.98-31.78,2.73-1.67,5.58-3.14,9.85-3.51-32.53,88.47-65.05,176.94-97.65,265.61Z"/>
  <path class="st0" d="M929.96,1297.47c-12.94,36.67-25.78,73.05-38.62,109.44-2.55,7.22-5.34,14.36-7.56,21.68-1.6,5.28-4.63,7.13-10.11,7.46-30.24,1.81-60.46,4.04-90.69,6.07-9.69.65-9.71.57-12.92,10.16-12.02,35.98-24.03,71.96-36.07,107.94-.8,2.4-1.89,4.71-3.54,8.81-1.83-4.16-3.14-6.68-4.07-9.34-5.91-16.97-11.93-33.9-17.42-51.01-1.24-3.86-1.59-8.63-.55-12.5,10.94-40.81,22.23-81.53,33.45-122.27.34-1.25.85-2.45,1.72-4.9,31.61,3.21,63.24,6.43,95.91,9.74,14.14-41.59,28.13-82.7,42.12-123.85,6.76,2.97,36.43,29.1,48.36,42.58Z"/>
  <path class="st0" d="M2084.53,905.42c30.67-31.54,60.96-62.68,91.25-93.82.73.3,1.45.61,2.18.91-.72,7.36-1.35,14.73-2.18,22.08-1.51,13.23-2.92,26.49-4.86,39.66-.55,3.72-2.02,7.88-4.42,10.67-27.81,32.34-55.87,64.45-83.89,96.6-.85.97-1.94,1.74-3.76,3.35-27.05-16.69-54.15-33.4-81.81-50.46-30.88,31.45-61.4,62.54-93.12,94.85-8.35-20.66-16.25-40.21-23.42-57.97,35.08-35.73,69.11-70.4,103.76-105.69,33.2,13.18,66.52,26.41,100.3,39.83Z"/>
  <path class="st0" d="M1705.62,608.14c-20.31-6.04-38.73-11.64-57.23-16.93-5.58-1.6-5.57-5.89-6.04-10.15-2.01-18.19-3.99-36.39-5.98-54.59-2.64-24.15-5.05-48.33-8.06-72.44-.94-7.53.6-11.98,7.83-15.89,25.46-13.79,50.45-28.45,75.6-42.8,3.14-1.79,6.21-3.73,9.67-5.82-5.49-43.49-10.94-86.62-16.64-131.77,3.24,2.34,5.08,3.33,6.5,4.75,13.18,13.2,26.39,26.36,39.31,39.81,2.61,2.71,5.09,6.39,5.77,9.98,8.04,42.16,15.73,84.39,23.47,126.6.23,1.26.03,2.6.03,4.79-29.9,10.79-59.8,21.58-90.27,32.58,5.33,43.86,10.58,86.99,16.04,131.89Z"/>
  <path class="st0" d="M1139.64,430.9c37.47,23.07,74.5,45.87,112.3,69.14-1.19,1.37-1.82,2.48-2.76,3.13-14.74,10.29-29.58,20.44-44.24,30.85-3.76,2.67-6.73,2.95-10.77.37-38.45-24.52-77.02-48.86-115.54-73.27-.82-.52-1.48-1.31-3.19-2.86,5.37-34.73,10.85-70.14,16.43-106.23-37.31-22.74-74.43-45.37-113.12-68.95,3.44-1.22,5.3-2.29,7.25-2.51,18.85-2.13,37.7-4.26,56.59-6.02,3.44-.32,7.49.16,10.48,1.74,37.95,20.09,75.75,40.44,113.58,60.75,1.13.61,2.1,1.54,3.88,2.87-10.21,30.1-20.44,60.22-30.88,90.99Z"/>
  <path class="st0" d="M886.44,787.53c-1.54,22.55-2.95,43.38-4.41,64.83-46.23,16.02-92.05,31.9-140.41,48.65-1.66-2.42-3.4-5.73-5.83-8.41-19.03-20.94-38.16-41.8-57.35-62.61-9.81-10.63-6.67-9.92-19.97-5.09-35.65,12.94-71.23,26.06-106.84,39.11-1.5.55-3.01,1.03-5.84,2,.77-2.75.87-4.62,1.75-6.02,10.45-16.63,20.91-33.25,31.64-49.7,1.7-2.61,4.4-5.15,7.22-6.38,39.66-17.25,79.43-34.27,119.18-51.32.88-.38,1.93-.38,4.03-.75,16.96,26.49,34.13,53.29,51.69,80.73,41.37-14.89,82.25-29.61,125.16-45.05Z"/>
  <path class="st0" d="M2040.19,1524.55c-3.84,2.82-5.54,4.25-7.41,5.42-15.54,9.7-31.03,19.5-46.75,28.9-3.23,1.93-7.42,3.35-11.11,3.22-41.29-1.5-82.57-3.34-123.85-5.14-2.63-.11-5.23-.61-8.94-1.07-3.9-31.62-7.79-63.21-11.76-95.38-43.69-4.52-86.68-8.97-130.62-13.52.74-2.41,1.03-4.63,2.05-6.45,8.26-14.84,16.79-29.54,24.94-44.45,2.44-4.45,5.19-5.73,10.37-5.1,43.65,5.27,87.32,10.32,131.03,15.06,6.47.7,9.01,3.57,10.73,9.44,8.41,28.76,17.19,57.41,25.88,86.09,2.89,9.54,2.97,9.39,12.87,10.34,36.81,3.5,73.61,7.08,110.4,10.68,3.25.32,6.47,1.03,12.16,1.96Z"/>
  <path class="st0" d="M1243.59,1546.4c21.99-3.55,42.55-6.86,63.53-10.25,1.86,2.64,3.67,4.97,5.22,7.45,22.75,36.43,45.31,72.98,68.35,109.23,3.87,6.09,3.66,10.19-.43,15.96-16.96,23.89-33.42,48.14-50.05,72.26-1.88,2.73-3.68,5.52-6.06,9.09,23.71,36.6,47.5,73.32,72.45,111.83-4.27-.93-6.44-1.17-8.45-1.87-17.59-6.16-35.2-12.26-52.66-18.76-3.53-1.31-7.33-3.61-9.51-6.56-25.69-34.84-51.1-69.89-76.57-104.9-.38-.52-.55-1.19-1.41-3.12,21.91-22.3,44.2-44.99,67.28-68.47-23.74-37.04-47.33-73.87-71.7-111.89Z"/>
  <path class="st0" d="M1976.6,1160.96c32.85-13.87,64.95-27.42,97.54-41.18,1.69,2.4,3.27,4.43,4.63,6.58,20.63,32.64,41.15,65.35,61.94,97.89,3.38,5.29,4.95,10.57,4.93,16.82-.08,19.98.25,39.96.37,59.93.02,2.58-.22,5.17-.37,8.35-4.86-.56-5.98-4.47-7.87-7.13-22.11-31.26-44.09-62.6-66.12-93.91-1.9-2.7-3.9-5.34-6.37-8.71-34.79,8.69-69.55,17.38-104.92,26.22-2.34-2.94-4.8-5.99-7.23-9.08-24.9-31.67-49.79-63.35-74.67-95.03-6.62-8.43-6.62-8.47-.79-17.29,7.89-11.94,15.81-23.87,23.77-35.77,1.62-2.42,3.47-4.67,6.24-8.39,23.31,34.06,45.94,67.13,68.92,100.7Z"/>
  <path class="st0" d="M545.05,1104.02c39.17,21.85,78.33,43.69,117.74,65.67,28.12-23.39,55.72-46.35,83.36-69.35,40.61,19.93,80.91,39.72,121.23,59.5,3.69,1.81,7.31,3.57,6.6,8.71-2.61,18.75-5.2,37.5-7.98,57.55-10.28-3.98-18.32-9.74-26.85-14.45-9.03-4.99-17.89-10.3-26.83-15.46-8.65-4.99-17.31-9.97-25.97-14.95-8.63-4.97-17.26-9.93-26.76-15.4-23.44,26.61-46.68,53-70.08,79.57-2.01-1.1-3.46-1.81-4.83-2.66-33.6-21-67.16-42.07-100.83-62.97-4.7-2.92-8.07-6.46-10.5-11.5-8.8-18.3-17.99-36.41-26.98-54.62-1.26-2.55-2.17-5.27-3.25-7.91l1.93-1.73Z"/>
  <path class="st0" d="M1117.28,1692.73c-35.79,12.62-70.75,24.45-105.3,37.38-13.34,4.99-25.78,6.32-39.63,2.39-15.97-4.54-32.48-7.18-48.74-10.71-2.23-.48-4.38-1.34-6.99-2.16,1.59-4.52,5.65-4.65,8.71-5.91,35.39-14.58,70.82-29.06,106.23-43.59,3.34-1.37,6.62-2.9,10.1-4.43-.76-36.17-1.51-71.77-2.28-107.93,3.49-1.7,6.99-3.45,10.53-5.13,36.42-17.21,72.83-34.42,109.26-51.6,9.7-4.57,9.74-4.54,16.98,3.05,9.66,10.12,19.32,20.24,28.93,30.41,2.23,2.35,4.26,4.89,7.53,8.65-38.19,15.06-75.17,29.65-113.19,44.65,4.9,35.02,12.52,69.34,17.87,104.93Z"/>
  <path class="st0" d="M1733.99,1636.59c-11.1,32-21.88,63.09-32.68,94.17-2.29,6.6-5.05,13.08-6.84,19.81-2.07,7.78-6.26,13.48-12.63,18.42-14.98,11.65-29.5,23.91-44.23,35.89-2.45,1.99-5.04,3.8-7.57,5.69-.7-.47-1.4-.93-2.1-1.4,12.53-42.94,25.07-85.87,37.91-129.89-28.43-21.72-56.92-43.49-86.04-65.74,2.15-9.4,4.31-19.06,6.58-28.7,7.86-33.36,15.77-66.72,23.66-100.08,2.42-10.25,2.4-10.42,12.88-11.44,15.91-1.55,31.84-2.85,47.76-4.2,1.26-.11,2.55.22,5.24.49-11.1,39.09-23.81,77.05-35.23,116.2,31.33,17.05,62.21,33.85,93.27,50.76Z"/>
  <path class="st0" d="M1281.74,490.36c28.59-30.88,55.67-60.13,83.3-89.97-20.73-28.78-41.12-57.09-61.78-85.79,1.44-1.79,2.51-3.4,3.84-4.74,27.73-27.88,55.53-55.71,83.23-83.62,3.58-3.61,7.25-6.54,12.44-7.73,21.42-4.9,42.77-10.1,64.16-15.16,1.52-.36,3.09-.49,6-.94-3.2,8.48-9.65,12.84-14.28,18.48-4.64,5.67-9.76,10.94-14.67,16.38-5.13,5.69-10.26,11.4-15.39,17.09-5.13,5.69-10.27,11.38-15.41,17.07-4.91,5.44-9.84,10.87-14.73,16.33-5.08,5.68-10.13,11.39-15.55,17.5,16.42,32.37,32.65,64.38,48.98,96.58-25.05,30.94-49.97,61.73-74.9,92.53-3.77,4.66-7.56,9.32-11.34,13.98-2.26,2.79-4.84,4.49-8.66,3.03-17.66-6.75-35.34-13.46-55.25-21.03Z"/>
  <path class="st0" d="M1732.21,624.54c40.99,2.98,80.66,5.86,121.68,8.84,9.54-33.85,19.06-67.65,28.79-102.16,10.37,1.05,20.24,1.98,30.1,3.06,30.8,3.36,61.58,6.82,92.38,10.13,6.12.66,11.38,2.59,16.3,6.55,15.58,12.53,31.49,24.65,47.23,36.98,2.24,1.76,4.27,3.78,6.08,6.73-22.66.74-44.96-1.51-67.28-2.68-22.28-1.17-44.54-2.64-67.93-4.05-14.9,32.59-29.8,65.21-44.99,98.44-3.7,0-7.64.02-11.58,0-39.99-.2-79.99-.41-119.98-.63q-11.65-.06-15.24-11.2c-4.19-12.99-8.4-25.98-12.54-38.99-.98-3.07-1.7-6.21-3.01-11.02Z"/>
  <path class="st0" d="M791.85,428.43c8.44,46.19,14.91,90.46,22.87,135.57,35.34,7.34,70.72,14.7,106.08,22.04,9.76,44.1,19.43,87.62,28.98,131.17,1.75,7.98,1.23,8.93-5.5,12.97-13.42,8.06-26.89,16.04-40.38,23.99-1.93,1.14-4.09,1.88-7.55,3.43-6.17-40.28-12.19-79.6-18.4-120.18-35.38-1.8-70.47-3.58-106.04-5.38-1.88-15.59-3.76-30.41-5.45-45.25-3.05-26.8-6.08-53.61-8.87-80.44-.36-3.46,0-7.44,1.41-10.55,9.35-20.62,19.06-41.08,28.72-61.56.65-1.37,1.77-2.52,4.12-5.8Z"/>
  <path class="st0" d="M862.88,656.63c6.68,38.74,13.23,76.69,19.93,115.59-37.43,15.18-74.31,30.14-112.44,45.61-16.86-26.21-33.52-52.12-50.2-78.07,16.03-30.24,31.75-59.88,47.51-89.61,31.86,2.17,63.03,4.29,95.2,6.48Z"/>
  <path class="st0" d="M1340.54,400.57c-26.39,29.7-52.02,58.53-77.96,87.72-35.38-19.91-70.1-39.46-105.33-59.29,1-3.53,1.67-6.38,2.6-9.14,7.97-23.66,16.17-47.26,23.88-71.01,1.87-5.75,4.53-8.48,10.79-9.58,30.47-5.36,60.82-11.35,91.65-17.2,18.13,26.17,36.11,52.12,54.37,78.49Z"/>
  <path class="st0" d="M765.22,1189.67c34.62,19.03,68.41,37.6,102.84,56.52-11.47,38.72-22.79,76.91-34.39,116.06-10.57-.93-20.77-1.73-30.96-2.74-17.89-1.79-35.75-3.91-53.66-5.46-5.21-.45-8.44-1.96-10.61-7.06-11.86-27.88-24.05-55.61-36.11-83.41-.39-.89-.51-1.91-1.03-3.94,20.91-22.89,42.18-46.17,63.92-69.98Z"/>
  <path class="st0" d="M1229.41,1553.2c23.39,33.51,46.19,66.18,69.09,98.99-1.69,2.12-2.79,3.76-4.14,5.15-18.38,18.81-36.85,37.54-55.16,56.43-3.27,3.37-6.32,5.18-11.32,3.8-29.82-8.24-59.71-16.21-89.57-24.3-.61-.16-1.12-.69-2.41-1.52-4.83-30.56-9.75-61.68-14.75-93.32,36.13-15.09,71.64-29.93,108.26-45.22Z"/>
  <path class="st0" d="M2070.43,1101.56c-29.97,12-58.96,23.61-88.57,35.47-22.79-31.93-45.33-63.51-68.16-95.49,27.24-30.03,54.04-59.57,81.05-89.35,2.56,1.24,4.68,2.07,6.59,3.23,22.15,13.54,44.24,27.19,66.43,40.68,3.89,2.37,6.68,4.59,6.43,10-1.45,31.57-2.53,63.16-3.77,95.45Z"/>
  <path class="st0" d="M1721.35,608.11c-6.52-40.24-12.85-79.25-19.27-118.87,2.55-1.26,4.76-2.63,7.16-3.5,24.39-8.87,48.83-17.57,73.18-26.56,4.51-1.67,7.87-1.69,11.77,1.72,23.05,20.18,46.32,40.09,69.49,60.12.73.63,1.24,1.52,2.12,2.62-8.94,29.75-17.92,59.63-27.26,90.73-38.66-2.06-77.39-4.13-117.19-6.26Z"/>
  <path class="st0" d="M1662.54,1574.96c10.87-38.03,21.46-75.06,32.25-112.82,40.39,2.59,80.13,5.15,120.84,7.76,1.17,8.78,2.31,16.92,3.32,25.07,2.49,20.15,4.9,40.32,7.37,60.47.46,3.75.51,6.98-3.18,9.67-25.82,18.81-51.51,37.8-77.59,56.99-27.64-15.69-55.06-31.27-83.02-47.14Z"/>
  <path class="st0" d="M792.46,1033.38c21.48,34.31,41.82,66.8,62.87,100.42-6.54.6-8.73-3.32-11.45-5.66-45-38.66-89.89-77.44-134.8-116.21-2.47-2.13-4.89-4.33-8.15-7.22,53.96-41.8,107.3-83.12,160.63-124.43.56.39,1.12.78,1.68,1.17-1.09,1.99-1.97,4.13-3.29,5.95-21.18,29.1-42.42,58.15-63.61,87.24-1.91,2.62-3.61,5.39-6.03,9.01,3.57.42,6.05.92,8.54.99,51.64,1.29,103.28,2.51,154.92,3.82,5.18.13,10.35.75,15.57,1.15,0,13.94.09,26.54-.05,39.12-.04,3.66-2.52,5.17-6.03,5.15-2.33-.01-4.67.02-7,.01-50.33-.17-100.65-.34-150.98-.51-3.53-.01-7.06,0-12.83,0Z"/>
  <path class="st0" d="M1587.87,1500.89c-.49,8.4-61.02,124.81-90.63,176.38-6.55-2.73-151.64-121.29-158.38-130.1,11.44,3.53,20.4,8.28,29.68,12.13,9.84,4.08,19.6,8.38,29.4,12.58,9.49,4.07,18.98,8.14,28.47,12.2,9.45,4.04,18.91,8.05,30.14,12.83-.66-4.61-.94-7.72-1.55-10.76-10.52-52.23-21.09-104.45-31.62-156.67-1.93-9.58-1.71-9.87,7.84-11.85,8.48-1.75,16.95-3.52,25.46-5.11,2.52-.47,5.15-.35,8.83-.57,12.76,56.81,25.42,113.19,38.45,171.23,8.05-7.94,14.87-14.64,21.65-21.37,7.1-7.05,14.15-14.13,21.23-21.19,6.84-6.83,13.66-13.68,20.52-20.49,6.66-6.61,13.2-13.36,20.5-19.23Z"/>
  <path class="st0" d="M959.6,690.03c2.52-65.75,5.03-131.5,7.54-197.21,7.33-.5,188.02,42.89,197.2,48.04-41.06,3.49-82.31,4.09-125.55,6.73,2.93,4.14,4.82,6.97,6.87,9.68,31.36,41.41,62.75,82.8,94.12,124.21q7.98,10.53-2.47,18.35c-7.99,5.97-15.99,11.92-24.99,18.62-13.38-14.37-24.42-30.1-36.42-44.99-12.33-15.3-24.39-30.8-36.58-46.21-11.96-15.11-23.92-30.21-37.02-46.75-14.1,37.54-25.75,74.31-39.39,110.33l-3.32-.79Z"/>
  <path class="st0" d="M1016.03,1479.64c40.02,4.6,78.16,8.99,116.29,13.38-.23,1.76-.22,2.08-.32,2.34-.12.3-.31.59-.54.82-.23.23-.52.49-.83.55-62.12,11.77-124.24,23.53-186.36,35.28-2.19.41-4.41.69-7.86,1.23.97-68.12,1.93-135.41,2.89-202.71.82-.14,1.64-.29,2.46-.43,4.68,12.76,7.46,26.15,11.21,39.21,3.86,13.43,7.39,26.96,11.11,40.43,3.68,13.33,7.4,26.65,11.66,41.97,14.14-16.85,26.91-32.08,39.68-47.3,12.63-15.06,25.2-30.17,37.91-45.15,12.85-15.14,25.08-30.84,39.28-45.99,10.54,8.92,20.17,17.04,29.77,25.22,2.83,2.41,2.63,5.13.43,7.89-1.87,2.34-3.71,4.71-5.59,7.04-31.12,38.67-62.24,77.33-93.34,116-2.26,2.81-4.39,5.72-7.84,10.23Z"/>
  <path class="st0" d="M1871.12,1311.43c-20.47-10.5-38.83-19.92-57.2-29.34-31.13-15.95-62.27-31.89-93.39-47.85q-10.67-5.47-4.98-16.45c4.74-9.11,9.51-18.21,14.93-28.59,27.21,12.58,53.22,25.73,79.45,38.42,25.98,12.58,51.94,25.2,79.58,38.62-2.4-21.31-4.75-40.72-6.72-60.17-1.92-18.93-4.73-37.81-6.04-58.75,6.9,7.67,66.72,142.59,81.85,182.72-6.09,3.39-187.25,42.77-200.54,43.11,10.19-7.31,19.91-11.32,28.95-16.4,9-5.06,18.19-9.79,27.29-14.67,9.4-5.03,18.81-10.04,28.19-15.11,9.01-4.86,17.99-9.77,28.63-15.55Z"/>
  <path class="st0" d="M1535.12,378.93c28.84,62.11,57.1,122.98,85.54,184.25-4,1.64-5.07-1.33-6.6-3.09-23.41-26.86-46.78-53.76-70.18-80.63-2.37-2.72-4.86-5.34-8.22-9.02-1.33,4-2.5,6.9-3.26,9.91-12.87,50.62-25.7,101.26-38.53,151.89q-3.33,13.13-16.73,9.66c-9.57-2.5-19.11-5.12-30-8.05,13.27-57.22,26.31-113.44,39.81-171.64-38.27,12.34-74.28,26.11-111.85,38.38.39-5.67,4.2-6.92,6.82-8.85,29.44-21.79,58.96-43.47,88.46-65.18,21.14-15.56,42.28-31.11,64.73-47.63Z"/>
  <path class="st0" d="M1722.51,843.21c53.2-25.37,105.34-50.24,159.45-76.04-34.05-21.49-66.64-42.06-98.94-62.45.58-1.63.62-1.97.8-2.19.21-.24.54-.5.83-.51.99-.04,2.03-.16,2.96.09,62.63,16.84,125.25,33.71,189.14,50.91-30.38,60.9-60.46,121.17-90.53,181.45-.65-.03-1.31-.06-1.96-.09,0-2.25-.34-4.56.05-6.74,6.06-33.4,12.21-66.78,18.34-100.16.95-5.18,1.87-10.37,3.16-17.46-4.53,1.88-7.74,3.11-10.86,4.52-47.33,21.36-94.64,42.74-141.96,64.12-2.43,1.1-4.81,2.8-7.32,3.04-2.23.21-6-.56-6.72-2.05-5.62-11.59-10.67-23.45-16.44-36.43Z"/>
  <path class="st0" d="M1162.36,579.7c3.47-2.95,5.08-4.57,6.93-5.86,30.64-21.29,61.35-42.47,91.93-63.85,4.46-3.12,8.39-4,13.82-2.22,33.85,11.08,67.83,21.75,101.75,32.61,2.43.78,4.7,2.06,7.93,3.5-1.83,2.35-2.9,4.34-4.51,5.71-29.4,25.09-58.9,50.06-88.25,75.2-3.71,3.17-6.91,3.97-11.67,2.1-36.26-14.23-72.64-28.16-108.95-42.26-2.62-1.02-4.98-2.7-8.99-4.93Z"/>
  <path class="st0" d="M1744.5,1338.28c-1.22,2.6-2.27,5.3-3.68,7.79-17.86,31.59-35.88,63.09-53.56,94.77-3.23,5.79-7.12,8.55-13.88,9.42-34.99,4.51-69.91,9.62-104.86,14.44-2.43.34-4.95.04-9.39.04,17.95-40.48,35.26-79.55,52.79-119.08,43.94-3.6,87.53-7.44,131.17-10.36.47.99.93,1.98,1.4,2.97Z"/>
  <path class="st0" d="M1847.03,923.5c2.34,4.85,3.76,7.41,4.84,10.11,13.42,33.35,26.64,66.78,40.31,100.02,2.69,6.54,2.26,11.62-1.39,17.67-17.73,29.36-35.01,58.98-52.49,88.49-1.63,2.75-3.54,5.34-5.94,8.94-2.08-2.76-3.67-4.36-4.67-6.26-17.9-34.22-35.65-68.52-53.64-102.69-2.29-4.35-2.33-7.64.52-11.82,21.93-32.2,43.62-64.57,65.47-96.83,1.56-2.3,3.78-4.16,7-7.63Z"/>
  <path class="st0" d="M1008.08,841.52c-37.28,21.56-74.38,43.03-111.54,64.4-.94.54-2.53-.04-5.12-.16.37-8.17.6-16.05,1.11-23.92,1.88-28.89,4.22-57.75,5.62-86.66.54-11.13,3.9-18.68,13.95-24.97,27.35-17.11,53.86-35.57,80.74-53.45,2.88-1.91,6-3.47,10.94-6.31,1.47,44.92,2.86,87.64,4.28,131.07Z"/>
  <path class="st0" d="M979.74,1323.89c-4.29-3.41-6.67-5.07-8.81-7.02-26.84-24.46-53.56-49.04-80.52-73.36-4.59-4.14-6.78-8.24-6.18-14.65,3.37-35.8,6.36-71.64,9.52-107.46.17-1.89.77-3.74,1.42-6.77,2.91,1.48,5.32,2.31,7.27,3.77,30.72,22.89,61.33,45.9,92.09,68.73,3.85,2.86,5.65,5.58,4.86,10.74-5.83,38.17-11.31,76.39-16.97,114.59-.46,3.12-1.43,6.17-2.69,11.44Z"/>
  <path class="st0" d="M1586.79,586.57c5.77,1.34,8.91,1.89,11.95,2.79,34.44,10.24,68.84,20.66,103.34,30.71,6.32,1.84,9.99,4.94,12.35,11.33,12.01,32.46,24.55,64.72,36.85,97.06,1.12,2.94,1.92,6.01,3.39,10.67-5.3-.65-8.85-.86-12.31-1.54-36.25-7.09-72.45-14.43-108.75-21.23-5.92-1.11-8.28-3.76-9.94-9.15-11.17-36.25-22.66-72.4-33.99-108.6-.95-3.04-1.51-6.21-2.89-12.05Z"/>
  <path class="st0" d="M1359.99,1514.8c-10.43,1.82-18.17,3.27-25.94,4.52-30.25,4.84-60.54,9.43-90.75,14.55-7.98,1.35-13.66-.54-19.53-6.25-23.89-23.23-48.28-45.94-72.47-68.87-2.59-2.46-5.01-5.09-8.59-8.74,3.92-1.58,6.45-2.93,9.14-3.63,36.72-9.61,73.49-18.99,110.15-28.84,5.38-1.45,8.48-.31,12.08,3.58,26.3,28.33,52.82,56.46,79.22,84.7,1.93,2.07,3.42,4.56,6.68,8.99Z"/>
  <path class="st0" d="M1472.97,1682.89c-8.23,12.56-14.45,22.8-21.46,32.48-4.52,6.24-5.42,11.56-2.24,19.04,10.44,24.56,10.07,24.75,36.36,30.28,2.15.45,4.57.26,6.75-.19,14.02-2.89,28.06-5.74,41.98-9.08,3.3-.79,6.84-2.8,9.09-5.31,6.22-6.94,11.73-14.51,17.71-21.67,2.37-2.84,3.36-5.66,1.79-9.13-.14-.3-.22-.63-.31-.95-2.6-9.28-5.2-18.57-7.8-27.86-8.36-4.08-16.73-8.15-25.09-12.23-2.37-1.16-4.74-2.33-7.01-3.45,1.56-9.32,54.11-124.79,59.42-130.45,2.83,3.12,1,6.23.25,9.25-7.74,31.01-15.5,62.02-23.25,93.03-.81,3.22-1.52,6.47-2.58,10.95,8.54,4.12,16.97,8.71,25.81,12.28,6.54,2.63,9.91,6.82,11.55,13.52,2.3,9.37,5.18,18.61,8.21,27.77,1.49,4.5,1.25,7.93-1.86,11.88-13,16.48-25.51,33.35-38.52,49.83-2.07,2.62-5.53,4.87-8.76,5.7-20.32,5.21-40.73,10.07-61.18,14.74-3.06.7-6.67.37-9.72-.53-12.46-3.64-24.77-7.82-37.22-11.52-4.12-1.22-6.84-3.42-8.95-7.16-7.52-13.35-15.12-26.67-23.09-39.75-2.82-4.63-2.65-8.31.04-12.86,6.09-10.33,11.72-20.92,17.51-31.43,1.58-2.87,3.05-5.81,4.6-8.77-23.92-31.89-47.49-63.3-71-94.75-.25-.34.21-1.21.48-2.49,4.25-.58,6.14,3.08,8.52,5.34,19.55,18.62,38.98,37.36,58.45,56.06,10.82,10.39,21.57,20.84,32.51,31.11,2.41,2.26,5.45,3.86,9,6.32Z"/>
  <path class="st0" d="M711.93,944.18c37.09-16.4,72.97-32.28,108.88-48.08.37-.16,1.12.54,2.17,1.08-.61,1.08-.95,2.55-1.86,3.15-39.68,26.25-79.42,52.42-120.06,79.2-5.98-6.18-11.39-11.93-16.99-17.49-5.63-5.58-10.62-13.34-17.44-15.74-6.46-2.27-14.92,1.32-22.52,2.04-7.11.67-11.59,3.77-15.59,10.23-7.62,12.3-12.18,24.74-10.66,39.41.78,7.58.51,15.35-.15,22.96-.63,7.24,1.67,12.8,6.41,18.05,4.68,5.18,8.91,10.79,13.03,16.44,2.59,3.54,5.5,5.24,10.04,4.93,9.62-.65,19.28-.87,28.92-1.26,5.88-7.18,11.75-14.36,17.65-21.53,1.87-2.28,3.79-4.52,6.33-7.53,38.1,28.9,75.85,57.53,114.1,86.54-4.33,4.05-7.12,1.32-9.81-.03-14.88-7.46-29.71-15.04-44.56-22.58-16.9-8.58-33.8-17.16-51.42-26.1-6.61,8.22-13.23,16.07-19.4,24.27-3.04,4.04-6.31,6.1-11.59,6.22-10.65.23-21.29,1.1-31.9,2.03-4.78.42-8.09-1.02-11.15-4.79-13.02-16.04-26.44-31.75-39.35-47.86-2.29-2.86-3.95-7.07-4.05-10.7-.56-20.65-.67-41.31-.64-61.97,0-3.15.93-6.64,2.46-9.39,6.49-11.63,13.16-23.18,20.25-34.45,1.76-2.8,5-5.43,8.12-6.48,14.82-5,29.87-9.32,44.76-14.13,4.72-1.53,8.16-.45,11.73,2.83,11.26,10.34,22.76,20.43,34.28,30.72Z"/>
  <path class="st0" d="M1987.48,775.83c12.92,4.82,24.87,8.84,36.44,13.76,6.3,2.68,11.17,2.28,16.42-2.07,4.86-4.02,10.23-7.47,15.59-10.82,3.79-2.37,5.44-5.47,5.62-9.85.3-7.32,1.13-14.62,1.29-21.94.06-2.51-.87-5.21-1.94-7.54-5.83-12.71-11.67-25.43-17.92-37.93-1.52-3.04-4.13-6.14-7.04-7.76-8.13-4.53-16.75-8.19-25.05-12.43-3.3-1.69-6.25-1.98-9.36.11-.55.37-1.2.58-1.78.9-8.16,4.48-18.52,7.22-23.84,13.95-5.04,6.36-4.77,16.91-6.87,25.61-.76,3.15-1.63,6.27-2.42,9.29-18.7-1.51-133.12-25.58-140.26-29.72,7.68-3.89,15.27-1.35,22.53-1.64,7.65-.31,15.32.15,22.98.27,8,.12,15.99.19,23.99.36,7.66.17,15.32.55,22.98.66,7.61.12,15.22.03,23.74.03,2.37-9.98,5.09-19.88,6.94-29.93.95-5.14,3.22-8.24,7.75-10.63,9.42-4.97,18.65-10.32,27.85-15.7,3.67-2.15,6.81-2.95,11.1-.91,19.25,9.14,38.77,17.72,58.01,26.88,3,1.43,5.88,4.42,7.41,7.41,9.4,18.38,18.51,36.91,27.41,55.54,1.49,3.12,2.21,7,2.01,10.46-.75,12.96-2.26,25.88-2.98,38.85-.25,4.49-2.17,7.36-5.24,10.18-11.06,10.13-22.15,20.23-32.88,30.7-4.12,4.02-8.02,4.86-13.45,3.18-14.28-4.42-28.72-8.36-43.85-12.71-25.82,30.63-51.19,61.55-77.93,93.18-1.06-3.22-1.88-4.42-1.57-4.94,24.61-41.45,49.3-82.84,74.31-124.78Z"/>
  <path class="st0" d="M1021.59,461.94c35.81,18.62,70.62,36.71,105.4,54.87.35.18.26,1.2.55,2.77-1.91,0-3.8.45-5.38-.07-43.68-14.26-87.32-28.61-130.96-42.98-.92-.3-1.73-.93-3.65-1.99.97-8.45,2.02-17.28,2.98-26.12.75-6.9,3.5-14.53,1.48-20.52-1.89-5.6-8.9-9.48-13.66-14.12-.24-.23-.54-.42-.73-.68-5.56-7.91-13.02-8.26-21.95-7.03-12.21,1.68-22.98,5.12-32.22,13.77-7.27,6.81-15.56,12.54-23.53,18.57-3.36,2.54-5.39,5.45-6.2,9.74-1.61,8.5-3.63,16.93-5.87,25.29-1.17,4.36-.25,7.55,2.81,10.82,5.23,5.59,10.25,11.41,14.99,17.43,2.77,3.51,5.92,4.74,10.29,4.63,9.96-.25,19.92-.08,31.35-.08.55,47.71,2.54,95.01,3.07,143.54-5.44-2.13-5.49-5.68-6.12-8.7-6.13-29.67-12.19-59.36-18.29-89.04-1.06-5.15-2.24-10.28-3.47-15.91-11.09,0-21.38-.21-31.65.09-4.76.14-8.07-1.38-11.17-5-6.94-8.09-14.18-15.93-21.55-23.64-3.28-3.43-4.48-6.75-3.39-11.61,4.51-20.14,8.77-40.34,12.75-60.6.9-4.6,2.89-7.81,6.46-10.67,15.86-12.71,31.5-25.7,47.43-38.33,2.71-2.15,6.32-3.72,9.74-4.32,12.46-2.17,25.03-3.76,37.53-5.69,4.46-.69,8.25-.22,12.19,2.57,12.49,8.88,25.2,17.46,38.01,25.86,4.12,2.7,5.72,5.84,5.39,10.73-1.04,15.27-1.75,30.57-2.62,46.41Z"/>
  <path class="st0" d="M896.28,1487.01c5.02-19.72,9.91-39.38,15.03-58.97,4.99-19.06,8.64-38.52,15.12-57.15.91.08,1.83.15,2.74.23.16,2.65.67,5.34.43,7.95-1.98,22.57-4.09,45.13-6.18,67.68-1.85,19.9-3.69,39.81-5.6,59.71-.34,3.55-1.02,7.06-1.62,11.05-15.99,1.59-31.19,3.11-47.43,4.72-4.87,8.54-10.14,17.36-14.89,26.44-1.04,1.98-.89,5.17-.13,7.4,2.47,7.24,5.31,14.38,8.36,21.39,1.01,2.32,2.8,4.53,4.76,6.16,11.01,9.17,22.27,18.04,33.25,27.25,3.32,2.78,6.8,3.71,10.99,3.64,8.33-.16,16.67-.22,24.99.12,4.76.19,8.18-1.02,10.94-5.16,4.25-6.37,8.84-12.53,13.62-18.52,2.77-3.46,3.38-6.67,2.14-11.02-2.71-9.54-4.76-19.26-7.34-29.95,46.51-12.08,92.39-23.71,139.14-35.36-.45,6.5-4.74,6.84-7.7,8.2-27.24,12.53-54.54,24.9-81.82,37.34-4.53,2.06-9.03,4.2-14.56,6.78,2.17,9.72,4,19.44,6.58,28.95,1.64,6.02.74,10.73-3.1,15.7-6.1,7.9-11.7,16.22-17.13,24.61-2.62,4.05-5.62,5.8-10.55,5.84-21,.18-41.99.91-62.98,1.01-3.33.02-7.23-1.39-9.9-3.42-16.46-12.49-32.74-25.22-48.82-38.2-2.92-2.36-5.26-5.98-6.73-9.49-4.88-11.67-9.05-23.64-13.91-35.32-1.7-4.09-1.36-7.55.2-11.44,5.57-13.91,11.24-27.8,16.28-41.91,2.13-5.96,5.91-8.13,11.68-9.01,14.46-2.2,28.88-4.74,44.14-7.28Z"/>
  <path class="st0" d="M1802.6,1375.98c1.58-1.12,2.46-2.26,3.49-2.4,47.1-6.47,94.21-12.85,142.2-19.36,2.69,7.88,5.06,15.05,7.59,22.17,2.77,7.79,3.79,17.41,9.08,22.73,5.01,5.04,14.7,5.23,22.11,8.13,6.54,2.56,11.43,1.01,17.44-2.56,12.86-7.65,21.86-17.77,27.26-31.68,3.12-8.04,7.43-15.63,11.4-23.32,1.93-3.73,2.47-7.2,1.3-11.42-2.3-8.33-4.17-16.81-5.69-25.32-.81-4.52-3.06-6.92-7.16-8.54-7.12-2.81-14.23-5.71-21.05-9.17-4.45-2.25-8.02-1.62-12.15.59-8.46,4.53-17.14,8.65-25.56,12.86-7.06-8.01-64.16-120.51-65.05-128.39,7.9,3.36,10.52,11.03,15.29,16.54,5,5.78,9.37,12.11,14.02,18.21,4.85,6.36,9.69,12.72,14.54,19.07,4.65,6.09,9.29,12.18,13.94,18.27,4.64,6.07,9.28,12.13,14.62,19.1,9.1-4.37,18.17-8.31,26.83-13.03,5.54-3.02,10.32-3,15.98-.42,9.38,4.28,19.04,7.96,28.68,11.64,3.75,1.44,5.83,3.53,6.81,7.63,4.95,20.72,10.38,41.32,15.24,62.06.76,3.27.34,7.42-1.05,10.48-8.65,19.11-17.62,38.07-26.77,56.94-1.36,2.81-3.86,5.42-6.45,7.24-10.62,7.47-21.36,14.8-32.36,21.71-2.81,1.76-6.84,2.8-10.11,2.41-15.86-1.9-31.64-4.46-47.47-6.65-4.52-.63-6.89-3.11-8.52-7.24-4.51-11.46-9.78-22.64-13.88-34.23-2.49-7.06-6.26-9.57-13.78-9.64-33.31-.32-66.61-1.22-99.92-2.01-3.38-.08-7.18.96-10.88-2.38Z"/>
  <path class="st0" d="M1471.98,372.16c-6.99-8.74-13.07-16.67-19.51-24.28-3.26-3.85-4.49-7.45-3.37-12.68,2.17-10.07,3.6-20.33,4.83-30.57.62-5.16,2.6-8.34,7.4-10.69,18.55-9.06,36.96-18.42,55.3-27.89,4.15-2.14,8.06-2.41,12.48-1.4,19.48,4.42,39.02,8.53,58.46,13.11,3.68.87,7.54,2.72,10.35,5.2,9.49,8.37,18.48,17.31,27.83,25.84,3.12,2.85,4.98,5.9,5.26,10.22,1.03,15.95,2.19,31.9,3.54,47.83.4,4.67-1.67,7.32-5.26,9.8-12.32,8.52-24.48,17.29-37.21,26.33.21,2.45.18,5.08.7,7.6,6.83,33.26,13.77,66.5,20.57,99.76.74,3.61.78,7.37,1.32,12.86-6.25-6.51-48.88-117.6-54.07-138.58,2.46-1.63,5.12-3.52,7.9-5.21,8.83-5.36,17.62-10.77,26.59-15.89,4.12-2.35,6.47-5.18,6.57-10.18.16-7.65,1.22-15.29,1.24-22.94,0-2.62-1.32-5.84-3.14-7.74-5.29-5.53-11.01-10.67-16.82-15.65-1.91-1.63-4.52-2.76-6.99-3.38-14.21-3.55-28.44-7.04-42.75-10.13-2.97-.64-6.63-.23-9.44.96-8.27,3.49-16.21,7.78-24.43,11.42-3.72,1.64-5.84,3.95-6.53,7.98-1.4,8.2-2.96,16.38-4.64,24.53-.82,3.97.32,6.97,2.93,10,6.5,7.53,12.72,15.31,19.87,23.99-36.78,30.82-73.12,61.27-109.89,92.08-3-5.44.64-7.74,2.72-10.26,15.28-18.49,30.68-36.88,46.03-55.32,7.22-8.67,14.41-17.38,22.16-26.73Z"/>
  <path class="st0" d="M1346.92,624.37c29.46,48.11,58.27,95.15,87.56,142.98,48.8-26.99,96.34-54.61,145.97-81.97-.38,4.33-.24,6.64-.84,8.75-3.16,11.21-6.62,22.33-9.74,33.55-1.16,4.17-3.6,6.77-7.25,8.94-44.88,26.78-89.68,53.71-134.54,80.53-7.86,4.7-8.52,4.51-13.17-3.39-26.49-45.05-52.91-90.15-79.4-135.21-2.08-3.54-3.42-6.81-2.11-11.23,3.89-13.07,7.27-26.29,10.92-39.44.23-.84,1.09-1.52,2.6-3.52Z"/>
  <path class="st0" d="M1763.81,981.92c-13.8,5.63-27.54,11.42-41.46,16.73-2.11.81-5.22-.11-7.59-.99-49.25-18.35-98.48-36.78-147.67-55.27-8.02-3.01-8.39-3.83-5.41-11.62,18.77-49.1,37.64-98.15,56.41-147.25,1.5-3.92,3.58-6.85,7.68-8.53,12.31-5.06,24.49-10.42,36.74-15.61,1.08-.46,2.34-.47,5.19-1-19.33,53.29-38.19,105.3-57.38,158.22,51.7,20.92,102.66,41.55,153.62,62.18-.04,1.04-.09,2.09-.13,3.13Z"/>
  <path class="st0" d="M1559.27,1375.85c-47.17-30.41-93.51-60.29-140.5-90.59-32.17,45.56-63.21,91.04-96.21,135.7-4.44-15.7-7.42-31.17-8.52-46.93-.14-1.95,1.86-4.17,3.13-6.1,28.53-43.39,57.07-86.77,85.67-130.11,5.07-7.68,5.94-7.89,13.32-2.94,43.42,29.09,86.83,58.2,130.11,87.49,2.8,1.89,5.86,5.09,6.51,8.16,2.96,13.98,5.12,28.12,7.5,42.22.1.57-.38,1.23-1.02,3.1Z"/>
  <path class="st0" d="M1028.44,1237.87c2.29-3.85,3.14-5.93,4.55-7.51,7.72-8.72,15.69-17.23,23.33-26.02,2.86-3.29,6.13-4.54,10.36-4.91,33.47-2.99,66.93-6.2,100.39-9.27,18.23-1.67,36.47-3.18,54.69-4.84,10.43-.95,11.05-.45,11.93,10.3,1.89,23.22,3.84,46.43,5.72,69.65,2.23,27.53,4.25,55.08,6.74,82.59.62,6.9-1.2,12.04-5.95,17.01-7.35,7.69-14.15,15.92-21.04,24.05-1.48,1.75-2.34,4.02-3.48,6.05-1.07-.54-2.15-1.08-3.22-1.62-5.58-54.95-11.16-109.9-16.88-166.19-55.45,3.56-110.09,7.07-167.14,10.74Z"/>
  <path class="st0" d="M1102,1016.38c-37.41-41.12-74.3-81.67-112.3-123.43,3.54-.79,5.29-1.59,6.99-1.5,12.31.62,24.61,1.54,36.93,2.07,4.01.17,6.81,1.77,9.49,4.57,36.39,38.06,72.87,76.03,109.26,114.09,5.61,5.87,5.51,7.05-.72,12.92-38.07,35.9-76.21,71.72-114.29,107.61-3.01,2.83-6.02,4.98-10.51,4.73-13.31-.74-26.63-1.2-39.94-1.85-1.21-.06-2.39-.68-5.27-1.56,40.52-39.62,80.12-78.33,120.35-117.66Z"/>
  <path class="st0" d="M1761.46,1093.74c-52.27,17.62-104.54,35.23-158.06,53.27,15.34,53.54,31.84,106.23,47.05,159.27-.7.49-1.4.98-2.1,1.47-4.87-2.6-9.81-5.08-14.6-7.83-8.92-5.12-19.83-8.68-26.04-16.11-5.96-7.14-7.12-18.34-10.22-27.81-13.58-41.41-27.09-82.85-40.62-124.27-.62-1.9-1.13-3.83-1.8-5.71-1.25-3.56.23-5.81,3.44-7.12,1.84-.75,3.8-1.23,5.7-1.83,48.53-15.35,97.09-30.61,145.57-46.15,6.17-1.98,11.29-1.8,16.97,1.5,11.43,6.64,23.21,12.68,34.85,18.97-.04.78-.08,1.57-.12,2.35Z"/>
  <path class="st0" d="M1237.47,647.67c2.31,3.1,4.68,6.17,6.93,9.32,5.03,7.05,9.7,14.39,15.09,21.15,4.32,5.41,5.24,10.99,4.28,17.66-3.63,25.39-6.9,50.83-10.31,76.25-3.24,24.1-6.46,48.2-9.75,72.29-.49,3.59-1.26,7.15-2.05,11.55-3.95,0-7.53.42-10.98-.06-51.45-7.27-102.89-14.61-154.3-22.15-3.02-.44-6.7-2.04-8.47-4.34-8.72-11.35-16.92-23.1-25.24-34.75-.3-.42-.04-1.25-.04-3.31,54.78,6.8,109.42,13.58,165.46,20.54,9.51-54.55,17.34-109.03,26.68-163.24.9-.3,1.79-.61,2.69-.91Z"/>
  <path class="st0" d="M1073.98,1159.88c2-2.08,3.89-4.28,6.02-6.21,36.04-32.68,72.22-65.21,108.05-98.11,5.07-4.66,9.55-5.55,16.05-4.18,18.75,3.94,18.8,3.63,31.86-10.91,2.36-2.63,4.92-5.09,8.46-8.74,5.08,8.02,9.44,14.9,13.56,21.4-9.43,9.91-18.16,19.44-27.39,28.44-1.66,1.62-5.47,1.73-8.18,1.45-6.61-.69-13.13-2.33-19.74-2.94-2.68-.25-6.37.3-8.13,2-12.46,12.02-24.55,24.43-36.71,36.76-.31.32-.04,1.21-.04,2.76,4.13-.21,8.32-.44,12.51-.62,10.65-.46,21.31-1.35,31.96-1.19,7.87.11,13.17-2.05,16.3-9.81,2.47-6.13,6.4-11.67,9.43-17.59,1.67-3.26,3.91-5.18,7.62-5.53,10.58-.98,21.15-2.08,32.96-3.25,2.65,8.81,5.18,17.21,7.86,26.13-9.4,3.95-18.58.72-28.15,2.98-3.54,6.73-7.65,13.93-11.15,21.42-2.51,5.36-5.98,7.9-12.05,8.67-32.7,4.13-65.35,8.71-98.02,13.14-12.87,1.74-25.73,3.54-38.61,5.21-4.49.58-9.02.84-13.53,1.24-.32-.84-.63-1.69-.95-2.53Z"/>
  <path class="st0" d="M1481.52,1071.15c-1.04-9.22-1.93-17.04-2.93-25.97,6.62-2.38,13.03-4.86,19.55-6.96,6.92-2.23,14.26-6.34,20.86-5.46,6.21.83,11.97,6.73,17.41,11.06,5.55,4.41,10.7,5.04,17.39,2.43,14.25-5.57,28.83-10.29,43.26-15.4.58-.2,1-.84,2.57-2.22-17.73-7.57-34.89-14.9-52.28-22.33-7.91,5.64-15.68,10.79-23,16.53-4.5,3.54-8.55,3.9-13.78,1.76-9.14-3.75-18.56-6.81-28.3-10.31,1.56-9.59,2.93-18,4.56-28.02,6.08,2.5,11.41,4.06,16.07,6.76,6.6,3.83,11.91,3.83,17.91-1.52,5.66-5.04,12-11.52,18.76-12.52,7.17-1.06,15.27,3.33,22.82,5.78,39.9,12.94,79.75,26.02,119.61,39.08,3.04,1,6,2.24,11.33,4.24-4.26,2.07-6.3,3.44-8.56,4.11-48.18,14.32-96.4,28.51-144.57,42.89-4.24,1.27-7.48.92-11.09-1.79-6.08-4.56-12.24-11.14-19-12.03-6.34-.83-13.49,4.65-20.32,7.27-2.13.82-4.36,1.39-8.29,2.62Z"/>
  <path class="st0" d="M1378.62,1149.46c-6.04,8.23-11.1,15.12-16.66,22.7,3.43,7.89,6.77,16.17,10.61,24.22,2.1,4.41,1.79,8.06-.69,12.18-25.42,42.24-50.72,84.54-76.09,126.81-.81,1.36-2.02,2.48-4.36,5.28-.89-3.87-1.72-6.12-1.88-8.42-1.82-26.25-3.58-52.51-5.26-78.77-1.49-23.27-2.7-46.56-4.38-69.81-.42-5.83.44-10.52,5.69-13.65,13.05-7.8,17.96-18.5,12.36-33.31-1.02-2.7-.83-5.86-1.15-8.82-.03-.26.27-.56.41-.84,7.9-1.56,14.23-.98,25.96,2.54,1.22,12.51,2.68,25.36,3.53,38.25.14,2.09-2.03,4.73-3.78,6.46-4.72,4.69-9.67,9.18-14.77,13.46-3.15,2.64-4.23,5.56-3.73,9.61,2.06,16.52,3.9,33.07,5.88,49.6.06.49.74.91,1.58,1.88,1.32-1.41,2.75-2.64,3.84-4.13,8.46-11.56,16.71-23.27,25.34-34.7,3.16-4.18,4.01-7.81,1.56-12.75-3.39-6.84-5.87-14.14-8.95-21.15-1.43-3.25-2.03-6.04.19-9.32,5.22-7.72,9.94-15.79,15.3-23.42,1.21-1.72,4.65-3.52,6.31-2.98,7.47,2.42,14.67,5.68,23.14,9.1Z"/>
  <path class="st0" d="M1475.21,964.71c-7.94-5.02-14.61-9.24-22.17-14.02,1.8-5.52,3.36-10.82,5.25-16.01,2.85-7.8,4.02-17.5,9.44-22.7,5.39-5.17,15.23-5.55,22.94-8.51,2.84-1.09,6.57-2.98,7.5-5.42,6.36-16.7,12.09-33.64,18.68-52.37-3.73,1.56-5.74,2.21-7.58,3.2-12.61,6.76-25.09,13.78-37.83,20.29-4.45,2.27-6.4,5.22-6.52,10.05-.19,7.65-.78,15.29-1.06,22.95-.13,3.44-.43,6.47-3.88,8.52-9.41,5.59-18.69,11.42-28.99,17.75-6.16-6.83-12.06-13.36-19.16-21.22,6.62-3.53,11.84-6.84,17.46-9.18,5.75-2.39,7.99-6.16,7.86-12.22-.15-6.31.57-12.65.49-18.96-.06-4.51,1.77-7.36,5.48-9.79,41.21-27.01,82.33-54.14,123.52-81.18,1.54-1.01,3.45-1.45,7.04-2.91-1.25,4.31-1.79,7.06-2.83,9.61-18.62,45.95-37.38,91.84-55.84,137.85-1.99,4.95-4.86,7.2-9.84,8.46-7.01,1.78-15.5,2.72-20.15,7.29-4.38,4.3-4.58,12.85-6.67,19.51-.78,2.49-1.71,4.93-3.14,9.01Z"/>
  <path class="st0" d="M1508.45,1207.19c-1.41-5.38-2.79-10.77-4.25-16.14-2.79-10.27-5.77-20.5-8.36-30.82-1.18-4.7-3.46-7.37-8.43-8.45-7.46-1.63-14.73-4.14-22.12-6.09-4.2-1.11-6.77-3.22-8.1-7.68-2.92-9.82-6.49-19.45-10.11-30.09,8.27-4.7,15.91-9.04,24.88-14.14,2.13,7.64,4.36,13.82,5.48,20.18.96,5.46,3.58,7.98,8.87,9.01,6.19,1.21,12.17,3.49,18.36,4.68,5.26,1.01,7.83,3.91,9.64,8.77,16.91,45.54,34.02,91.01,51.02,136.52.76,2.03.94,4.28,1.79,8.36-3.82-1.89-6.19-2.71-8.16-4.09-41.22-28.78-82.37-57.67-123.64-86.38-3.71-2.58-5.32-5.41-5.2-9.86.15-5.32-.56-10.66-.36-15.97.17-4.68-1.89-7.3-5.85-9.37-7-3.67-13.8-7.73-21.38-12.01,5.59-7.92,11.88-13.56,18.76-19.33,10.64,6.85,21.1,13.32,31.21,20.3,2.07,1.43,3.67,4.65,4.03,7.25.96,6.91.84,13.96,1.73,20.88.34,2.65,1.58,6.15,3.59,7.48,14.67,9.69,29.64,18.92,44.51,28.3.69-.43,1.38-.86,2.07-1.29Z"/>
  <path class="st0" d="M1285.35,932.46c-3.26,9.3-5.96,16.98-8.95,25.49-8.71-1.03-16.9-3.02-25.02-2.75-13.72.47-21.58-6-26.09-18.15-.92-2.47-2.71-4.59-3.83-7-1.57-3.39-4.19-4.96-7.77-5.35-17.17-1.85-34.33-3.74-52.98-5.77,1.54,2.67,2.19,4.32,3.29,5.59,9.37,10.83,19.04,21.4,28.13,32.45,3.94,4.79,8.13,5.98,13.9,4.72,7.14-1.56,14.37-2.88,21.63-3.7,2.66-.3,6.34.24,8.14,1.92,7.99,7.45,15.47,15.45,23.98,24.1-5.46,7.77-10.53,14.97-16.47,23.42-5.07-5.84-9.56-10.55-13.49-15.69-3.17-4.15-6.28-6.14-11.8-4.38-5.35,1.7-11.28,1.59-16.6,3.35-7.14,2.35-11.72-.28-16.72-5.13-29.63-28.76-59.53-57.24-89.34-85.81-4.81-4.61-9.67-9.16-14.4-13.85-1.3-1.29-2.18-3-4.55-6.34,5.4.34,8.87.27,12.25.81,48.61,7.87,97.2,15.89,145.82,23.67,4.13.66,6.63,2.37,8.3,6.03,1.38,3.02,3.65,5.72,4.6,8.84,3.05,9.99,10.17,12.83,19.74,12.56,5.26-.15,10.55.53,18.22.97Z"/>
  <path class="st0" d="M1320.75,796.14c-1.2,4.71-2.08,7.45-2.59,10.26-2.4,13.1-4.34,26.3-7.2,39.3-1.27,5.77.19,9.36,4.55,12.87,5.96,4.8,11.73,9.9,17.13,15.32,1.85,1.85,3.47,5.15,3.26,7.63-.92,10.89-2.54,21.71-4.03,33.56-9.51.47-18.3.9-28.63,1.4,1.59-7.87,2.65-14.33,4.26-20.66,1.23-4.83.07-8.22-3.91-11.23-4.78-3.61-8.99-7.97-13.81-11.52-4.8-3.54-6.55-7.69-5.92-13.68,1.84-17.56,3.18-35.17,4.77-52.75,2.5-27.54,5.03-55.07,7.59-82.6.48-5.17,1.2-10.31,2.12-18.04,3.18,3.9,5.02,5.59,6.18,7.67,24.69,43.83,49.25,87.73,74.03,131.51,2.26,3.99,2.22,7.24.4,11.18-3.07,6.63-5.75,13.44-8.67,20.36,5.66,8.34,11.21,16.51,17.12,25.23-7.91,5.05-15.98,6.71-25.02,9.63-6.82-11.24-13.85-22.46-20.36-33.97-1.02-1.8-.11-5.11.72-7.44,2.24-6.27,5.1-12.31,7.32-18.58.81-2.29,1.58-5.63.52-7.39-9.38-15.63-19.18-31.02-29.83-48.04Z"/>
  <path class="st0" d="M1278.18,1016.84c8.76-.84,17.52-1.74,26.29-2.51,7.3-.64,14.61-1.13,21.91-1.69,4.91-.38,9.77-1.57,14.19,2.44,1.18,1.07,4.38-.07,7.67-.26-1.58-4.28-2.58-6.99-3.83-10.34-7.76,1.38-10.22-3.73-12.52-9.7-4.66-12.11-9.87-24.01-14.71-36.06-1-2.48-1.4-5.19-2.07-7.8l2.14-1.1c2.1,1.86,4.36,3.58,6.27,5.62,10.27,10.92,20.55,21.83,30.58,32.97,1.82,2.02,2.45,5.08,3.74,7.61.97,1.9,1.67,4.62,3.26,5.38,3.3,1.58,4.41-1.74,5.75-3.95.51-.84.85-1.78,1.56-3.32-4.15-4.47-4.04-9.17-.62-14.78,6.93-11.36,13.04-23.22,19.56-34.83,1.25-2.23,2.85-4.27,5.21-7.77.96,3.07,2.07,4.77,1.87,6.3-2.21,16.83-4.5,33.66-7.14,50.42-.36,2.27-3.07,4.09-4.2,6.36-1.01,2.02-1.34,4.37-2.16,7.22,6.69.82,11.22,1.08,12.95-5.75.4-1.59,3.31-3.28,5.29-3.64,16.05-2.88,32.14-5.48,48.24-8.06,1.07-.17,2.28.59,5.36,1.46-3.57,2.62-5.66,4.46-8.02,5.85-12.91,7.6-25.81,15.23-38.92,22.48-2.61,1.44-6.16,1.12-9.21,1.89-2.23.56-4.34,1.58-7.6,2.81,3.02,3.42,4.92,5.57,6.7,7.6,1.39,0,2.6.38,3.28-.06,3.68-2.39,6.79-1.72,9.91,1.11,11.85,10.73,23.79,21.37,35.62,32.12.86.78,1.14,2.18,2.41,4.74-3.34-.45-5.49-.35-7.33-1.05-14.93-5.68-29.86-11.38-44.65-17.41-2.5-1.02-4.87-3.3-6.37-5.6-2.04-3.13-4.11-4.04-7.83-2.15-.77,4.19-2.87,8.48,3.09,11.66,1.69.9,2.85,4.52,2.75,6.82-.69,16.3-1.75,32.58-2.78,48.87-.05.82-.89,1.6-2.02,3.49-1.56-2.35-3.13-3.89-3.73-5.74-4.97-15.53-9.86-31.09-14.49-46.72-.67-2.25-.32-5.19.55-7.42,1.36-3.46.79-5.72-2.74-7.59-4.87,1.51-8.93,3.48-7.46,10.24.32,1.45-1.12,4-2.51,5-13.78,9.92-27.7,19.64-41.64,29.33-.61.43-1.78.05-3.84.05,1.05-2.67,1.5-4.82,2.64-6.51,8.89-13.28,17.83-26.54,26.97-39.65,1.4-2,3.68-3.84,5.95-4.66,2.77-1,5.48-1.98,4.71-5.13-.4-1.66-2.99-2.87-4.72-4.08-.77-.53-1.88-.58-3.61-1.06-3.88,6.34-9.54,5.68-16.03,3.57-11.7-3.8-23.64-6.9-35.44-10.4-2.97-.88-5.82-2.17-8.73-3.28l.48-3.36Z"/>
  <path class="st0" d="M1707.68,874.3c9.87,3.94,19.26,8.03,28.9,11.44,11.32,4,19.5,12.53,29.04,19.09,5.89,13.69,14.65,26.93,16.86,41.19,2.25,14.54-1.94,30.09-3.32,45.19-.71.2-1.41.39-2.12.59-1.24-1.96-2.74-3.81-3.68-5.91-7.35-16.39-14.8-32.75-21.75-49.31-2.4-5.71-5.98-8.84-11.79-10.9-17.85-6.3-35.48-13.19-54.51-20.34,2.44-8.51,4.77-16.6,7.32-25.51-8.06-3.76-15.78-7.36-24-11.2.76-2.87,1.2-5.41,2.09-7.78,5.95-15.89,11.57-31.92,18.21-47.52,2.93-6.88,2.32-12.4-.76-18.81-5.91-12.28-11.22-24.86-16.63-37.39-1.21-2.81-4.04-5.63-.63-9.65,1.87.88,3.99,1.59,5.79,2.77,27.07,17.64,26.75,17.8,41.12,47.49,4.17,8.61,5.43,16.54,2.83,25.67-4.01,14.06-7.4,28.3-11.03,42.47-.64,2.51-1.17,5.06-1.95,8.42Z"/>
  <path class="st0" d="M1413.46,1360.79c7.82,4.49,14.7,8.44,22.6,12.98,5.38-6.82,10.82-13.73,16.75-21.24,3.17,1.92,5.99,3.51,8.69,5.29,14.45,9.54,28.94,19.02,43.24,28.77,3.87,2.63,7.43,3.43,12.08,2.4,13.64-3.01,27.39-5.57,41.12-8.16,3.73-.7,7.55-.86,13.56-1.5-2.54,3.76-3.45,5.8-4.95,7.2-7.3,6.82-14.61,13.64-22.23,20.09-2.4,2.03-5.65,3.44-8.74,4.18-11,2.64-22.05,5.14-33.18,7.08-3.29.58-7.28-.07-10.34-1.48-11.78-5.42-23.34-11.3-34.91-17.15-5.92-3-11.69-6.3-18.4-9.93-3.95,5.57-8.11,10.69-11.44,16.29-7.28,12.21-16.7,22.39-28.17,30.61-3.38,2.42-7.46,4.12-11.47,5.33-4.43,1.33-9.3,1.2-13.71,2.58-14.72,4.64-28.68,2.57-42.62-3.28-7.49-3.14-15.4-5.25-23.13-7.83.02-.74.04-1.48.06-2.22,2.96-.87,5.88-1.96,8.9-2.56,17.29-3.44,34.58-6.98,51.95-10,5.11-.89,8.31-3.14,11.02-7.38,8.79-13.74,17.85-27.31,26.84-40.92,1.81-2.74,3.79-5.36,6.49-9.17Z"/>
  <path class="st0" d="M1126.1,1307.64c-7.26.41-14.32.11-21.1,1.34-14.56,2.63-28.46-.72-42.48-3.44-1.87-.36-3.61-1.57-5.33-2.53-.85-.48-1.52-1.28-2.29-1.92-28.23-23.51-32.42-29.86-42.68-64.83-.34-1.17-.15-2.49-.3-5.93,3.85,2.95,6.38,4.74,8.74,6.74,12.96,10.98,26.05,21.81,38.71,33.11,4.91,4.38,9.74,5.74,16.25,4.94,16.51-2.02,33.12-3.29,49.69-4.79,2.26-.21,4.56-.03,7.76-.03,1.42,8.44,2.77,16.5,4.25,25.26h26.58c.67,3.75,1.47,6.88,1.75,10.05,1.53,17.24,3.08,34.48,4.29,51.74.33,4.7,1.96,8.02,5.59,11.01,11.31,9.31,22.41,18.87,33.53,28.41,2.39,2.05,4.52,4.41,6.78,6.63-.26.75-.51,1.5-.77,2.25-2.69.04-5.43.43-8.06.05-8.89-1.27-17.81-2.5-26.58-4.38-3.73-.8-7.55-2.61-10.59-4.93-8.21-6.25-15.81-13.29-24.08-19.45-4.03-3.01-6.42-6.46-7.38-11.22-3.41-16.95-6.86-33.89-10.34-50.82-.46-2.22-1.15-4.39-1.92-7.25Z"/>
  <path class="st0" d="M1339.78,614.06c5.24-1.73,10.63-3.1,15.7-5.24,15.03-6.36,29.61-4.89,45.5-1.78,17.39,3.41,28.36,12.76,37.77,26.06,5.96,8.43,11.99,16.81,18.05,25.17,1.52,2.1,3.27,4.02,5.41,6.62,9.23-5.26,18.29-10.08,27-15.47,10.19-6.31,21.99-7.33,33.03-10.86.31-.1.7-.24.97-.15,16.94,5.93,36.48,4.99,50.14,19.62,6.35,6.8,13.47,12.9,20.18,19.37,1.59,1.54,2.95,3.32,5.92,6.7-4.54-.45-7-.38-9.29-.97-17.08-4.38-34.22-8.6-51.16-13.5-6.3-1.82-11.29-1.27-16.84,2.28-12.9,8.25-26.18,15.89-39.33,23.75-3.11,1.86-6.31,3.57-10.43,5.88-5.21-7.25-10.16-14.14-15.42-21.46-7.94,4-15.59,7.85-23.91,12.03-2.01-3.09-3.87-5.75-5.53-8.54-8.87-14.87-17.77-29.72-26.46-44.7-2.32-4.01-5.16-6.31-9.84-7.43-14.24-3.4-28.35-7.34-42.48-11.16-3.02-.82-5.94-2-8.91-3.02l-.08-3.23Z"/>
  <path class="st0" d="M1244.58,633.34c-2.51,2.04-4.96,4.16-7.55,6.1-13.59,10.19-27.1,20.5-40.91,30.39-4.72,3.38-7.15,7.29-7.81,13.04-1.91,16.53-4.25,33.02-6.4,49.52-1.2,9.21-1.47,9.38-10.52,8.54-5.57-.52-11.17-.77-17.28-1.17-1.95,9.01-3.76,17.34-5.74,26.5-13.22-1.75-25.7-3.36-38.17-5.05-6.6-.9-13.22-1.67-19.75-2.96-7-1.39-12.7,0-18.4,4.68-10.28,8.45-21.19,16.14-31.89,24.08-2.58,1.91-5.37,3.54-9.38,6.15,0-3.73-.58-5.98.1-7.75,3.67-9.64,7.49-19.24,11.62-28.69,1.14-2.61,3.18-5.09,5.41-6.9,9.05-7.34,18.21-14.58,27.64-21.42,2.46-1.78,6.04-2.76,9.12-2.8,13.96-.15,27.93.18,41.9.31,5.95.05,11.89,0,18.8,0,1.56-9.84,3.53-19.55,4.56-29.36,1.29-12.32,8.02-22.46,12.34-33.56,12.07-8.77,23.06-20.24,36.5-25.56,13.67-5.41,29.74-4.77,44.77-6.77.35.89.71,1.79,1.06,2.68Z"/>
  <path class="st0" d="M1011.73,1013.95c6,7.21,11.29,13.56,16.94,20.36-2.02,2.31-3.56,4.38-5.4,6.14-12.26,11.74-24.39,23.63-36.99,35-5.11,4.61-7.42,9.58-7.44,16.41-.03,13.64-.62,27.29-1.09,40.93-.11,3.13-.67,6.24-1.28,11.58-3.21-3.21-5.09-4.46-6.11-6.21-4.87-8.33-9.73-16.68-14.12-25.26-1.59-3.1-2.5-6.88-2.56-10.37-.22-11.31-.18-22.65.36-33.94.16-3.35,1.59-7.14,3.65-9.8,8.35-10.77,17.13-21.21,25.85-31.7,3.82-4.6,7.87-9.01,12.53-14.32-4.46-4.97-8.5-10.13-13.21-14.59-10.31-9.78-18.04-21.29-23.65-34.2-1.65-3.81-2.78-8.2-2.75-12.31.06-10.31.82-20.62,1.54-30.91.18-2.56.78-5.35,2.04-7.54,6.81-11.82,13.88-23.49,20.93-35.17.46-.77,1.5-1.19,3.73-2.88.25,3.8.63,6.48.56,9.14-.49,17.97-.91,35.94-1.74,53.89-.25,5.43,1.28,9.41,5.11,13.26,11.27,11.32,22.21,22.98,33.25,34.53,2.27,2.38,4.43,4.86,7.53,8.26-5.89,6.57-11.52,12.86-17.66,19.7Z"/>
  <path class="st0" d="M1659.06,1198.4c8.58-3.48,16.18-6.56,24.3-9.85-2.09-8.77-4.07-17.06-6.24-26.12,3.97-1.49,7.26-2.88,10.64-3.97,14.88-4.82,29.66-9.98,44.72-14.15,7.46-2.06,11.8-6.14,15.03-12.9,5.74-12.01,12.12-23.7,18.35-35.47,1.46-2.76,3.35-5.28,6.17-9.67,1.31,3.87,2.26,5.52,2.39,7.24.79,10.29,1.64,20.59,1.91,30.9.09,3.47-.93,7.23-2.4,10.42-4.6,9.97-9.42,19.86-14.69,29.48-1.61,2.95-4.56,5.77-7.58,7.23-14.36,6.97-28.95,13.45-43.47,20.09-3.3,1.51-6.65,2.91-10.93,4.77,1.75,6.29,2.94,12.45,5.18,18.2,5.17,13.26,6.94,27.03,6.8,41.07-.04,4.12-1.67,8.23-2.68,12.32-.23.94-.88,1.79-1.37,2.66-5.54,9.84-9.29,21.56-17.09,29.05-10.39,9.99-23.93,16.7-36.16,24.76-.71.47-1.78.37-3.95.76,1.11-3.07,1.7-5.49,2.81-7.64,8.1-15.67,16.1-31.4,24.59-46.86,3.12-5.68,3.69-10.71,1.47-16.9-5.17-14.4-9.66-29.04-14.37-43.6-1.12-3.45-2.03-6.97-3.43-11.8Z"/>
  <path class="st0" d="M1595.17,667.63c-4.75-3.47-7.94-5.62-10.93-8.03-8.03-6.46-17.84-11.76-23.41-19.93-5.36-7.86-6.32-18.73-9.18-28.29-3.15-10.52-6.23-21.06-9.39-31.58-.43-1.44-1.13-2.79-3.4-4.17-2.83,12.44-6.21,24.79-8.28,37.35-1.27,7.71-4.34,11.88-12.2,13.01-5.45.78-10.74,2.71-16.19,4.15,12.82-45.84,25.39-90.78,38.14-136.37,4.89,6.06,53.57,159.8,54.85,173.85Z"/>
  <path class="st0" d="M1767.33,1291.5c-11.96-5.69-23.75-11.79-35.95-16.9-6.53-2.73-9.32-6.58-8.91-13.49.33-5.61.07-11.26.07-16.92,15.31,6.24,118.45,63.57,123.54,69.23-59.14,4.71-117.35,9.35-175.57,13.91-1.11.09-2.31-.81-4.34-1.58,1.98-2.25,3.24-4.08,4.88-5.46,4.58-3.87,9.76-7.11,13.89-11.39,8.93-9.25,19.7-12.36,32.24-12.59,16.57-.3,33.13-1.7,49.69-2.62.16-.73.32-1.46.47-2.19Z"/>
  <path class="st0" d="M1319.37,1445.16c6.08,1.23,12.11,2.97,18.25,3.59,16.49,1.66,29.02,9.13,38.92,22.59,7.26,9.87,16.32,18.4,24.47,27.62,1.73,1.95,3.02,4.3,4.51,6.46.78-.52,1.56-1.03,2.34-1.55-.79-4.02-1.46-8.06-2.39-12.04-2.27-9.71-4.58-19.41-7.06-29.07-1.18-4.61-.69-8.21,3.49-11.34,5.46-4.09,10.46-8.78,15.44-13.02,8.32,46.76,16.5,92.68,24.66,138.53-1.18.29-1.5.4-1.83.43-.31.03-.77.11-.93-.06-39.65-42.14-79.28-84.29-118.88-126.48-.84-.89-1.29-2.15-1.92-3.23l.92-2.44Z"/>
  <path class="st0" d="M1123.32,610.81c10.01,12.4,20.01,24.8,30.48,37.78-3.48,8.17-6.95,16.33-10.57,24.81-27.64-38.66-55.31-76.31-82.55-114.27.62-.76,1.24-1.52,1.85-2.28,54.13,21.02,108.26,42.03,162.36,63.12,1.33.52,2.31,1.92,4.14,3.5-2.2,1.12-3.52,2.1-4.99,2.48-5.8,1.49-11.92,2.12-17.44,4.28-13.45,5.27-25.65,2.85-38.23-3.27-12.25-5.96-25.19-10.5-37.83-15.63-2.06-.84-4.19-1.52-6.29-2.28-.31.58-.63,1.17-.94,1.75Z"/>
  <path class="st0" d="M1825.31,878.51c-14.33,6.98-28.66,13.96-43.8,21.33-7.02-5.11-14.17-10.31-21.97-15.99,44.34-17.92,86.92-37.14,130.13-54.8.57.76,1.13,1.51,1.7,2.27-32.78,48.37-65.55,96.74-98.4,145.06-.59.86-2.08,1.11-4.55,2.34-.18-6.96.18-12.84-.58-18.57-2.31-17.2,2.7-31.65,13.99-44.78,7.56-8.79,13.62-18.87,20.3-28.42,1.65-2.36,3.08-4.86,4.61-7.3-.48-.38-.96-.76-1.43-1.14Z"/>
  <path class="st0" d="M1017.89,1355.27c10.06-12.66,20.12-25.31,30.74-38.67,8.77,1.56,17.68,3.15,25.45,4.53-3.4,4.3-6.31,8.32-9.56,12.04-25.19,28.85-50.44,57.65-75.7,86.44-2.27,2.59-4.76,4.97-7.15,7.45-.74-.4-1.47-.8-2.21-1.2,8.62-58.66,17.23-117.32,26.21-178.41,3.1,3.6,4.85,4.99,5.77,6.8,4.66,9.2,9.36,18.41,13.48,27.86,1.36,3.11,1.84,7.07,1.33,10.44-2.86,19.09-6.15,38.11-9.26,57.15-.26,1.56-.33,3.15-.49,4.73.46.28.92.56,1.39.84Z"/>
  <path class="st0" d="M892.15,957.43c13.26,0,26.54.41,39.77-.17,6.72-.3,10.49,1.86,12.96,8,2.16,5.37,5.22,10.37,7.97,15.71-47.46-2.28-93.78-4.51-139.75-6.72-.38-1.26-.54-1.58-.55-1.9-.01-.3.03-.78.21-.89,49.01-28.79,98.03-57.56,147.06-86.3,1.92-1.13,4.01-1.97,7.25-3.55-.25,2.98.06,4.9-.61,6.38-4.56,9.98-9.02,20.03-14.18,29.7-1.73,3.24-5.05,6.09-8.31,7.97-14.68,8.51-29.6,16.58-44.41,24.86-2.79,1.56-5.47,3.33-8.2,5l.79,1.91Z"/>
  <path class="st0" d="M1785.02,1104.54c6.57,5.09,84.41,127.55,90,140.91-2.14-.2-4.05.08-5.51-.59-41.11-18.92-82.18-37.93-123.23-56.98-1.69-.79-3.13-2.12-5.26-3.6,6.16-7.4,14.73-9.67,21.84-14.38,18.1,9.38,35.99,18.66,56.17,29.13-2.14-4.43-3.04-6.74-4.3-8.83-6.37-10.54-12.62-21.16-19.34-31.48-3.73-5.73-5.98-11.74-6.81-18.47-1.25-10.24-2.78-20.44-4.09-30.67-.16-1.21.24-2.5.53-5.03Z"/>
  <path class="st0" d="M1130.18,1352.86c2.79,8.87,5.25,16.68,7.76,24.62-13.41,15.84-26.6,31.42-39.79,47,.37.5.73,1.01,1.1,1.51,10.33-3.42,21.06-5.97,30.91-10.45,15.26-6.93,30.78-7.08,46.78-4.8,6.11.87,12.27,1.42,18.89,2.17-1.18,5.73-5.55,5.58-8.56,6.65-26.94,9.58-53.96,18.95-80.96,28.38-19.15,6.69-38.29,13.41-57.45,20.04-2.97,1.03-6.06,1.69-9.99,2.76,3.76-9.18,83.13-111.8,91.32-117.88Z"/>
  <path class="st0" d="M1566.85,1403.1c-17.73,51.97-36.13,103.71-55.41,155.5-6.3-10.92-7.47-23.07-10.66-34.55-3.29-11.85-5.89-23.9-8.79-35.86-2.9-11.96-5.9-23.9-8.7-35.88-2.76-11.8-6.61-23.41-7.98-36.55,9.96,1.28,17.37,5.56,25.11,8.83,3.97,20.09,7.88,39.85,12.23,61.86,1.94-4.09,3.02-6.02,3.8-8.08,2.01-5.28,3.9-10.62,5.83-15.93,11.77-32.55,13.27-34.85,38.13-58.09,1.13-1.05,2.54-1.79,3.82-2.68.87.48,1.74.96,2.61,1.43Z"/>
  <path class="st0" d="M815.4,1044.1c48.53-.9,97.05-2.47,146.63-2.09-2.8,9.8-9.19,15.75-13.42,22.41h-62.5c3.61,2.6,5.86,4.33,8.21,5.9,3.87,2.59,7.81,5.08,11.72,7.6,29.62,19.07,31.25,20.76,48.74,50.85.63,1.09.93,2.37,1.82,4.72-2.6-.38-4.54-.16-5.9-.94-5.47-3.16-10.76-6.63-16.11-9.99-37.19-23.37-74.38-46.73-111.55-70.12-2.9-1.82-5.65-3.88-8.47-5.83.28-.83.55-1.67.83-2.5Z"/>
  <path class="st0" d="M1723.55,831.94c1.44-8.7,2.34-16.21,4.11-23.52.47-1.93,3.38-3.72,5.57-4.72,13.62-6.23,27.35-12.19,41.02-18.3,2.97-1.33,5.83-2.9,8.68-6.03-6.05-.91-12.1-1.85-18.16-2.7-2.64-.37-5.3-.85-7.94-.78-24.46.66-43.6-12.25-62.95-24.6-.98-.63-1.55-1.91-2.17-2.7.36-.78.46-1.11.65-1.37.18-.24.45-.57.69-.58,1.97-.12,3.98-.43,5.92-.2,51.89,5.99,103.77,12.02,155.64,18.12.42.05.75.93,1.12,1.42-5.11,5.27-120.54,63.43-132.2,65.97Z"/>
  <path class="st0" d="M1438.1,625.14c-5.07-5.56-10.4-10.91-15.02-16.82-1.24-1.59-.85-5.03-.27-7.39,3.86-15.49,8-30.91,12.01-46.37.57-2.19.92-4.43,1.72-8.37-3.02,2.27-4.86,3.36-6.35,4.81-9.8,9.5-19.38,19.25-29.37,28.54-3.31,3.08-7.37,5.7-11.53,7.45-9.81,4.12-19.87,7.65-29.88,11.27-1.91.69-4.07.7-6.79,1.13,3.67-7.38,103.09-108.07,116.67-118.64,3.82,3.19.99,6.91.36,10-6.72,32.58-13.72,65.1-20.65,97.64-2.08,9.76-4.15,19.52-6.31,29.26-.48,2.16-1.31,4.24-1.97,6.36-.88.37-1.75.74-2.63,1.11Z"/>
  <path class="st0" d="M1074.34,721.95c-12.49-16.68-24.4-32.59-36.3-48.5-.67.17-1.33.34-2,.51.24,3.72.37,7.44.73,11.14,1.22,12.59,2.56,25.17,3.73,37.77.24,2.61.47,5.45-.27,7.88-3.82,12.4-7.94,24.71-12.03,37.02-.27.82-1.18,1.42-2.17,2.55-3.6-2.56-3.26-6.38-3.64-9.73-2.72-23.48-5.33-46.97-7.98-70.46-2.68-23.82-5.39-47.64-8.02-71.46-.46-4.16-.6-8.35-.87-12.22,1.48-.44,1.79-.61,2.11-.62.31,0,.73.05.93.25,1.62,1.64,3.31,3.23,4.77,5.01,28.73,35.02,57.43,70.06,86.09,105.13.34.41.14,1.27.25,2.74-8.03,2.75-16.5,2.67-25.32,2.98Z"/>
  <path class="st0" d="M1354.48,979.96c-11.78-8.93-48.05-49.8-50.57-57.08,6.94-1.38,13.79-.52,20.56-.59.33,0,.76-.04.97.14,8.89,7.73,19.77,13.97,24.01,25.59,3.03,8.33,4.01,17.41,5.74,26.19.27,1.39-.33,2.94-.71,5.75Z"/>
  <path class="st0" d="M1405.19,910.39c7.98,5.94,14.82,11.88,15.65,18.54,1.26,10.17.61,21.87-3.44,31.07-4.21,9.57-13.41,16.94-20.5,25.22-.27.31-1.22.04-3.27.04,2.71-24.6,7.11-48.68,11.56-74.87Z"/>
  <path class="st0" d="M1480.66,984.35c-1.8,10.99-1.07,21.06-12.28,28.64-12.22,8.25-24.29,13.03-38.95,10.96-4.68-.66-9.46-.66-15.18-1.03,5.61-6.86,55.63-35.69,66.41-38.58Z"/>
  <path class="st0" d="M1359.4,1070.06c6.19,10.91,22.07,65.23,21.76,74.31-6.92-3.3-13.37-6.22-19.63-9.48-1.26-.66-1.98-2.56-2.67-4.02-.85-1.78-1.14-3.88-2.16-5.54-10.72-17.36-4.25-34.42.77-51.51.27-.9.87-1.71,1.94-3.75Z"/>
  <path class="st0" d="M1283.08,1109.82c-4.01-11.51-7.79-21.23-.25-33.07,7.07-11.13,14.81-19.82,27.41-24.02,4.91-1.64,9.52-4.18,15.56-6.89-.19,2.99.25,4.8-.46,5.83-12.73,18.59-25.58,37.1-38.48,55.57-.66.95-2.02,1.41-3.78,2.58Z"/>
  <path class="st0" d="M1397.37,1059.97c9.51.34,61.88,20.78,70.81,26.8-5.49,7.84-17.62,11.68-26.2,9.9-16.17-3.34-28.46-11.49-36.71-25.85-1.91-3.33-4.53-6.26-7.9-10.85Z"/>
  <path class="st0" d="M1325.12,1007.83c-26.67,2.65-51.39,4.12-76.13,5.22-.28-.82-.56-1.63-.84-2.45,4.01-5.18,7.89-10.47,12.11-15.47,1.15-1.37,3.32-1.9,5.03-2.77.28-.14.66-.07.98-.13,24.72-4.42,33.6-2.61,55.24,11.32.77.49,1.25,1.44,3.61,4.28Z"/>
  <path class="st0" d="M1326.44,997.83c-8.15-3.4-16.38-6.61-24.38-10.32-1.88-.87-3.21-3.27-4.41-5.21-4.37-7.08-8.43-14.35-12.88-21.38-2.54-4.02-3.14-7.75-.93-12.14,2.35-4.66,4.19-9.59,7.19-16.56,13.15,22.31,25.2,42.77,37.25,63.22-.62.8-1.23,1.59-1.85,2.39Z"/>
  <path class="st0" d="M1249.68,1027.1c23.88,3.38,47.24,6.68,71.84,10.15-4,6.43-9.97,7.29-14.26,10.42-6.75,4.93-14.04,6.85-22.38,4.47-3.78-1.08-7.83-1.26-11.77-1.78-14.88-1.98-19.39-6.23-23.44-23.26Z"/>
  <path class="st0" d="M1362.8,975.4c-2.24-7.57-4.82-15.06-6.56-22.74-.68-2.98.02-6.57,1-9.58,2.36-7.24,5.53-14.22,7.87-21.46,1.81-5.58,4.84-9.07,10.85-10.15,4.44-.79,8.73-2.43,14.95-4.23-3.04,13.6-8.51,24.45-12.63,35.71-4.05,11.05-8.47,21.96-12.72,32.93-.92-.16-1.84-.33-2.76-.49Z"/>
  <path class="st0" d="M1402.81,990.24c4.95-6.97,9.9-13.94,14.87-20.89.38-.53.85-1.18,1.41-1.37,11.3-3.78,22.61-7.53,33.95-11.17.81-.26,2.08.1,2.84.61,5.63,3.75,11.92,6.72,17.29,13.54-23.64,7.5-46.12,14.64-68.6,21.77l-1.75-2.49Z"/>
  <path class="st0" d="M1350.83,1069.32c-1.74,10.1-3.19,18.52-4.66,26.94-.11.64-.26,1.43-.69,1.83-8.59,8.24-17.18,16.47-25.91,24.56-.82.76-2.55.98-3.76.8-6.16-.96-12.29-2.14-18.61-3.27,3.25-7.02,42.99-45.03,53.62-50.87Z"/>
  <path class="st0" d="M1414.82,1030.69c10.4-.44,18.92-.93,27.44-1.07,1.83-.03,3.88.92,5.49,1.96,7.83,5.02,15.65,10.08,23.23,15.47,1.98,1.41,4.16,3.94,4.38,6.14.6,6.1.21,12.3.21,18.57-7.98-2.41-53.61-32.82-60.75-41.07Z"/>
  <path class="st0" d="M1396.14,1137.8c-1.96-23.35-3.92-46.69-5.93-70.66,11.18,5.28,21.29,18.99,22.18,29.05.62,6.97,1.03,13.96,1.94,20.89.72,5.52-.93,9.64-5.35,13.01-3.61,2.76-6.89,5.96-10.32,8.97-.84-.42-1.68-.84-2.52-1.25Z"/>
  <path class="st0" d="M1207.94,1036.31c-.04-6.24,4.97-11.72,10.97-11.97,6.12-.26,11.26,5.1,11.05,11.5-.21,6.21-5.54,11.54-11.48,11.49-5.76-.05-10.5-5.01-10.54-11.02Z"/>
  <path class="st0" d="M1485.7,949.51c.17-6.47,5.4-11.58,11.45-11.17,5.53.37,10.35,5.64,10.44,11.41.09,6.1-5.31,11.79-11.15,11.74-6-.06-10.9-5.53-10.74-11.98Z"/>
  <path class="st0" d="M1411.46,1177.89c-6.31-.21-11.49-5.47-11.31-11.49.18-6.12,5.7-10.87,12.11-10.42,6.34.44,11.28,5.9,10.78,11.93-.47,5.78-5.59,10.18-11.58,9.98Z"/>
  <path class="st0" d="M1265.77,926.26c-6.11-.02-11.06-4.54-11.28-10.3-.22-5.81,5.2-11.39,11.33-11.64,6.2-.25,11.88,5.02,11.81,10.95-.07,5.97-5.5,11.01-11.86,10.99Z"/>
  <path class="st0" d="M1506.08,1089.96c-6.1.11-10.81-4.36-10.95-10.4-.14-6.25,4.68-11.41,10.99-11.77,6.44-.37,11.73,4.58,11.56,10.82-.16,6.01-5.52,11.25-11.61,11.36Z"/>
  <path class="st0" d="M1400.72,877.32c.15,6.12-4.24,10.72-10.39,10.87-6.58.16-12.23-5.33-12.09-11.76.13-5.84,5.06-10.52,10.99-10.45,6.18.07,11.34,5.16,11.49,11.34Z"/>
  <path class="st0" d="M1294.58,1148.82c-.32,6.08-5.21,10.68-11.03,10.38-5.86-.3-11.16-6.06-11.05-12.03.11-6.2,5.77-11.4,11.78-10.83,6.02.57,10.62,6.15,10.29,12.47Z"/>
  <path class="st0" d="M1302.19,899.91c-.22,6.03-4.95,10.5-10.92,10.32-5.73-.17-10.59-5.17-10.61-10.9-.02-6.05,5.68-11.43,11.59-10.93,5.68.48,10.15,5.66,9.94,11.51Z"/>
  <path class="st0" d="M1251.71,1126.15c.22-5.94,4.92-10.4,10.93-10.37,5.9.03,10.82,4.82,10.83,10.54,0,5.86-5.77,11.32-11.64,11.03-5.84-.29-10.33-5.27-10.11-11.2Z"/>
  <path class="st0" d="M1428.62,887.24c-.16,6.01-4.98,10.73-10.9,10.68-6.02-.05-10.57-4.86-10.39-11,.18-6.01,5.02-10.78,10.9-10.72,5.98.06,10.56,4.92,10.39,11.04Z"/>
  <path class="st0" d="M1479.65,1103.65c.24-6.24,4.93-10.42,11.24-10.02,5.89.38,10.58,5.56,10.3,11.35-.29,5.8-5.71,10.64-11.44,10.2-5.9-.45-10.32-5.5-10.09-11.54Z"/>
  <path class="st0" d="M1495.67,978.36c-.03-6.18,4.46-10.64,10.74-10.67,6.04-.03,11.07,4.74,11.09,10.52.02,5.67-5.11,10.72-10.97,10.79-6.04.07-10.84-4.63-10.87-10.64Z"/>
  <path class="st0" d="M1382.06,1159.53c6.2.14,10.47,4.75,10.26,11.07-.2,5.96-5.23,10.87-10.97,10.7-5.75-.17-10.56-5.43-10.36-11.33.21-6.07,4.99-10.58,11.07-10.44Z"/>
  <path class="st0" d="M1222.65,1016.51c-6.22.1-10.85-4.24-11.05-10.35-.2-6.25,4.12-10.74,10.43-10.82,6.03-.08,11.05,4.53,11.26,10.35.21,5.86-4.57,10.72-10.64,10.82Z"/>
</svg>