<svg xmlns="http://www.w3.org/2000/svg" width="3000" height="3000" viewBox="0 0 3000 3000">
  <defs>
    <style>
      .cls-1 {
        fill: #0a174a;
        fill-rule: evenodd;
      }
    </style>
  </defs>
  <path id="Color_Fill_1" data-name="Color Fill 1" class="cls-1" d="M1705,4c8.77,0.024,20.37-1.134,27,2V7c-72.52,72.807-260.56,74.045-390,59,3.44,20.437,37.67,54.7,50,71,49.62,65.617,47.51,109.442,142,136,0.33,2,.67,4,1,6-1.33,1.666-2.67,3.334-4,5-45.84,13.6-86.72,44.3-127,65-0.67-.333-1.33-0.667-2-1q3.495-13.5,7-27c3.71-22.112-13-71.176-19-89-27.16-80.641-69.93-126.965-123-180-14.31-14.305-32.66-24.741-45-41,1.33-1.333,2.67-2.667,4-4l96,3c85.97,0.262,167.71-1,254-1l91-3ZM1001,7l78,7,43-4q22.995,18.5,46,37c58.79,44.933,90.96,94.607,121,168,15.99,39.071,32.98,90.941,23,144q-1.995,19-4,38c-2.24,5.14-84.46,52.061-93,54-0.33-.333-0.67-0.667-1-1,3.78-24.908,12.16-50.244,17-77,21.75-120.324-31.58-247.292-93-296-21.59-17.12-43.33-48.815-79-42v4c40.03,37.284,73.82,128.1,94,187,7.08,20.66,7.95,44.78,14,63,7.38,22.206-9.93,91.8-15,107-10.57,31.692-35.76,101.514-59,119q-13.005,6-26,12c-14.19,7.164-36.87,27.584-52,12,4.08-38.8,32.23-73.488,49-102,20.01-34.027,23.13-73.044,32-120,3.49-18.484,9.82-43.215,6-66-10.35-61.8-15.88-123.232-44-168-11.99-19.088-59.2-51.192-60-73Zm911,4,9,1Q1911,33,1901,54q-4.005,15.5-8,31c-1.87,2.893-89.2,52.186-96,54-0.33-.333-0.67-0.667-1-1,0.38-13.265,6.72-41.959,0-49-0.67.667-1.33,1.333-2,2-19.78,8.645-35.63,29.624-55,41-37.09,21.789-73.83,41.322-110,62l-33,13c-15.3,11.14-26.65,57.422-46,60l-6-5c-11.66-38.682-46.02-81.619-69-111,0.67-1,1.33-2,2-3,27.7,0.627,53.79-6.821,79-12,50.76-10.428,90.03-15.427,130-33q56.49-31,113-62l39-25C1859.57,6.7,1891.54,19.452,1912,11Zm132,19,7,2c11.24,34.641-5.13,63.053-15,91-14.36,40.659-23.24,80.956-31,130-3.61,22.8,2.97,70.485,8,90,2.71,10.53,14.54,25.692,10,38-4.49,8.7-37.98,22.533-48,18-7.06-18.213-17.26-36.226-24-56q-6.495-31-13-62c-3.64-14.292-9.57-35.785-6-56,6.41-36.333,18.92-69.354,31-99,8.25-20.247,12.66-43.453,25-60Q2015.99,48,2044,30Zm59,2h3c100.06,75.439,10.28,249.564-71,283-1.67-1.666-3.33-3.334-5-5q-1.995-14-4-28c-2.4-8.5-7.76-13.229-9-23,24.62-38.1,64.8-60.663,81-108,8.99-26.261.54-53.031-4-76C2091.19,60.779,2099.36,43.615,2103,32ZM890,33c98.664,0.328,134.77,63.13,153,142,4.25,18.405,9.07,100.215-5,109h-3l-24-17q-11.5-5-23-10c-9.448-35.486-.383-82.853-12-117-14.084-41.4-35.5-45.821-66-69L889,38Q889.5,35.5,890,33ZM848,73c33.376,1.811,42.765,45.261,55,69,28.2,54.711,54.218,108.15,100,145q20.5,16,41,32l33,16c6.26,7.958-10.8,43.263-15,50-31.24-.211-59.33-21.971-80-35-71.124-44.839-90.185-64.367-125-146-6.8-15.954-30.727-52.1-25-76q4.5-14,9-28C843.675,88.765,842.992,80.624,848,73ZM2198,91c12.06,2.139,34.92,37.949,43,48,10.5,13.059,36.97,27.483,44,38,8.15,12.184,4.27,37.392,7,54,6.44,39.161,8.44,82.085-1,119-19.15,74.878-51.45,147.532-99,195-11.91,11.891-33.32,36.064-51,40-17.8,3.963-40.83-12.524-54-17l-46-10c-0.33-.667-0.67-1.333-1-2,18.85-18.222,48.43-29,69-45,64.49-50.17,114.7-118.637,138-210,10.02-39.276,7.45-135.673-23-148-0.67.667-1.33,1.333-2,2-23.99,144.493-79.89,263.866-192,321-18.63,9.5-98.57,44.932-125,39l-28-11c-16.15-5.274-38.73-4.713-41-24,21.91-26.2,80.93-29.388,117-43,51.19-19.318,89.58-50.759,129-82,37.58-29.784,91.63-115.43,107-167C2197.34,160.035,2183.25,112.245,2198,91Zm-321,26,6,3c-1.01,20.035-8.62,37.01-12,59-14.17,92.142,20.56,182.075,55,231-0.33,1.333-.67,2.667-1,4-18.02,5.636-29.39,19.263-45,26-20.93-7.1-28.24-27.885-39-45-24.22-38.516-38.38-78.279-48-134q-0.495-19.5-1-39c-2.21-14.267-2.15-37.485,3-49C1803.06,154.989,1859.22,130.807,1877,117ZM743,151h3c6.749,7.707,6.987,22.739,11,33l20,37c2.569,10.92-23.907,87.624-28,106h-4l-31-35-3,2c-5.681,52.013-16.394,87.9-29,129q-4,21-8,42l-20,51c-3.5,15.3,19.963,71.8,10,77-7.888,4.115-26.278-4.984-33-7l-74-21-29-2v-3c12.225-9.815,17.553-25.34,27-38,21.746-29.143,46.013-56.889,65-89,20.054-33.916,30.752-76.97,44-117q13-52.494,26-105C697.267,192.95,729.87,168.5,743,151Zm956,65h6l3,3c3.76,105.566,41.94,175.134,88,240,13.59,19.143,25.92,40.459,44,55q22.5,20,45,40,18.495,13.5,37,27c-0.33.667-.67,1.333-1,2-4.29,5.8-51.65,33.354-60,35-2.26.445-75.95-18.206-79-20-8.77-5.167-59.19-79.475-62-91,18.66-9.652,43.65,4.362,64,1,2.78-15.524-43.93-45.131-54-56-24.39-26.332-44.54-61.386-63-93q-6.495-17.5-13-35c-8.66-13.153-65.6-28.605-82-39,4.22-10.84,25.75-17.752,36-23l58-33Zm660,33c11.88,6.471,21.67,20.623,30,31q42,44,84,88,75.99,74.493,152,149,47.49,44,95,88c-0.33,1.333-.67,2.667-1,4-69.07-.355-108.72-40.306-149-70a930.009,930.009,0,0,1-120-105c-8.46-8.8-43.18-56.3-49-59-12.4,34.3-9.86,76.8-18,115-7.35,34.491-26.3,67.086-16,111,5.06,21.588,21.77,37.648,24,58l-3,3c-12.74-.25-20.28-6.507-30-10q-37.5-12.5-75-25c-10.64-3.059-33.03-2.4-37-12,58.11-38.988,95.31-111.418,109-194,5.56-33.549,8.49-86.058,4-123C2357.32,284.147,2351.66,258.555,2359,249ZM792,253c12.187,4.842,15.115,22.763,22,33l51,56c29.455,26.107,63.722,53.493,103,69,20.7,8.173,40.84,10.789,64,18v1c-1.63,10.321-9.7,46.137-14,53-25.906,9.47-66.48-5.854-89-13-45.133-14.321-149.995-79.269-160-121-3.864-16.117,7.538-37.02,11-50C784.111,283.585,782.9,263.386,792,253ZM604,280l5,1c-1.04,66.932-38.049,105.752-67,145-32.873,44.565-67.6,85.129-107,123-8.921,8.575-57.282,44.129-60,50,34.315,12.406,76.745,9.844,115,18,34.51,7.358,67,26.323,111,16,21.654-5.08,37.487-21.755,58-24l3,3c-0.516,25.244-25.832,76.071-34,101-4.148,12.659-3.059,31.836-11,41l-5-3c-9.4-27.728-37.372-41.416-61-55-34.706-19.953-68.995-39.034-115-49l-75-6c-33.23-5.16-90.906,11.239-112,1v-1c4.689-11.576,21.525-22.427,31-30l77-73L476,414C514.711,366.62,566.717,329.277,604,280Zm952,16h3l27,39c20.42,27.186,50.85,51.023,61,88h-8c-31.27-9.116-92.82,5.4-117,12-100.44,27.392-203.89,70.609-262,139q-37.995,39.5-76,79c-9.37,12.154-10.82,31.717-31,33q-9.495-2.5-19-5c-2.67,4.851-5.09,11.233-10,14-5.04,2.175-8.4.149-11-3,4.81-29.048,25.87-54.224,37-80q26.49-61.494,53-123c11.25-15.137,40.54-22,57-32q21-14,42-28c0.33,0.333.67,0.667,1,1,0.32,20.822-6.67,33.079-10,50,0.33,0.333.67,0.667,1,1,43.71-20.641,80.83-47.86,121-72,31.67-19.033,68.84-30.5,97-53C1527.47,343.643,1541.67,312.051,1556,296ZM690,589c1.185-20.239,10.649-38.922,16-56,9.973-31.827,13.822-62.248,31-86h4c77.489,68.473,139.562,92.574,265,114,34.22,5.845,81.08,2.1,113-4,9.57-1.83,22.94-7.331,31-4v1c-1.75,14.555-14.82,66.6-24,73q-20.505,10-41,20l-21,15c-12.58,5.049-92.282-15.761-110-18v-5c9.964-16.473,41.046-24.271,45-44l-3-1c-20.347-9.887-67.225,5.326-90,1l-98-21c-11.529-3.616-24.345-17.606-40-14C740.791,566.267,722.9,588.513,690,589Zm916-84,77,1c5.96,2.227,59.58,72.277,66,82,0.33,1.667.67,3.333,1,5h-2c-11.53,4.1-33.28-3.556-44-6-25.68-5.856-94.3-13.188-121-9-37.97,5.957-76.72,2.918-111,12-85.65,22.691-202.87,99.569-230,177h1l37-14,24-23c30.66-20.782,64.1-41.233,100-56,54.72-22.507,146.4-56.015,225-40q47.49,11,95,22,33,12.5,66,25c11.19,2.64,15.93-6.816,26-3,6.48,3.237,27.02,40.767,28,50-18.33,11.825-48.72,10.551-67,22-29.85-10.331-63.07-24.986-96-34-92.2-25.235-214.03-13.55-290,16-37.49,14.581-72.69,30.314-105,50l-45,30c-11.13,2.968-13.16-8.924-20-11-16.01-4.863-27.34,10.152-35,15-0.71-6.231-7.55-10.612-5-23,7.37-35.757,34.87-73.2,54-100,67.9-95.124,139.78-137.876,265-176l76-10Zm831,23c7.54,2.3,11.01,9.132,17,13,29.41,18.99,55.02,40.248,83,60,55.91,39.472,132.22,58.288,207,79l45,10c6,2.232,58.7,51.919,60,57l-3,1q-17.505,5.5-35,11-16.005,9-32,18c-11.61,2.724-87.52-23.859-106-28,3.06-13.644,25.84-25.778,35-35-0.67-1-1.33-2-2-3-66.86-7.556-112.15-20.317-171-37l-52-20c-24.36-4.851-50.03,20.46-72,12-1.33-.667-2.67-1.333-4-2-0.28-31.981,17.32-64.436,25-93Q2434.505,549.5,2437,528Zm-432,47,77,21c10.73,2.689,27.5.84,35,7-7.78,15.826-30.12,18.173-42,30v1q22.005,7,44,14l101,23c30,9.454,60.02,21.494,93,28,14.99,2.957,76.41-18.918,81-8q-4.005,18.5-8,37-2.505,31-5,62-7.005,26-14,52c-11.91-3.9-20.5-22.37-30-30q-21.495-17-43-34c-52.94-37.645-116.57-66.509-186-87-56.17-16.576-122.89-11.012-190-14-23.79-1.059-69.75,10.8-82,6-8.51-4.361-9.4-15.562-17-21-7.39,2.958-13.38,4.634-20,1-0.67-2-1.33-4-2-6,13.05-15.141,42.97-15.838,63-24ZM691,606c30.916,4.353,134.127,14.21,151,29-14.746,18.522-35.382,32.727-50,52-48.459,63.888-86.7,140.53-107,232-11.751,52.942-8.017,116.67-8,177,0.006,20.04,10.784,55.78,6,68-4.114,8.13-14.957,9.76-21,16q1.5,7.995,3,16c-0.667,1.67-1.333,3.33-2,5-2,.67-4,1.33-6,2-16.819-13.78-20.268-53.7-29-75L575,995c-3.073-18.374,12.332-44.555,17-60q4.5-25.5,9-51l2-1c15.762,7.771,18,30.353,30,42h1c18.2-73.7,43.874-151.729,62-223C704.256,669.538,679.119,628.908,691,606Zm238,61c35.5-.173,71.01,13.971,103,11l3,4c-9.2,15.47-31.44,24.61-46,35l-54,45c-45.774,36.671-100.89,105.614-124,164-8.448,21.344-10.872,43.508-17,68-9.6,38.39-18.064,141.89,6,170v-2c19.228-26.73,15.331-75.29,26-111,9.74-32.6,19.879-64.6,34-93,6.218-12.507,16.453-25.265,22-37,7.218-15.271,10.044-28.363,19-41,36.865-52.017,81.167-86.792,136-121l73-37,19-8c4.96-4.222,8.72-15.052,13-20,16.74,0.069,42.45,8.562,55,16-0.77,18.812-24.92,45.073-32,65-35.44,3.886-86.52,39.918-112,58-87.5,62.088-148.442,137.6-192,244q-12.5,43.5-25,87c-3.51,13.31-3.184,26.85-9,37-29.645,1.86-26.836,15.19-33,37-3.8-2.7-10.734-1.89-15-6-12-11.55-15.1-34.55-21-52-17.664-52.23-33.929-131.62-21-200,21.844-115.525,80.223-217.155,157-279C906.924,690.59,914.755,676.6,929,667Zm1483,23c34.21,3.5,118.06,30.433,141,47v4c-68.39,78.11-92.41,139.08-114,265-5.86,34.16-2.1,81.11,4,113,1.82,9.5,7.23,23.14,4,31l-31-9c-49.39-11.16-40.66-17.29-62-54-4.02-6.91-13.31-16.29-16-23-3.18-7.94,15.66-101.335,19-110h5c11.58,13.014,24.92,36.152,40,45,3.83-1.321,2.08,0,4-3,9.34-20.564-5.32-57.693-2-79,5.92-38.028,11.34-74.9,22-109,3.6-11.513,17.66-24.282,14-40C2435.14,747.134,2406.13,713.363,2412,690ZM295,701c90,3.6,198.086,55.078,246,103,11,11,41.143,40.054,44,56,3.147,17.564-12.432,39.634-17,53l-10,46-2,1-3-2c-5.809-26.931-32.645-52.446-48-72-44.4-56.537-107.545-107.471-186-129-35.121-9.638-160.614-18.126-166,21,96.78,7.385,195.765,57.814,258,103,26.46,19.211,57.639,70.394,71,103,9.661,23.57,39.138,78.03,33,110q-6.5,17.505-13,35c-4.577,13.56-4.39,28.5-17,34h-7c-25.443-22.78-39.436-120.63-59-157C375.916,925.9,281.957,838.282,187,811c-27.983-8.04-63.75,1.285-92-5l-4-8,66-56c8.17-8.205,12.634-24.417,24-29Zm1656,32c147.22-3.094,235.51,65.45,316,130,11.6,9.3,60.27,52.138,65,63,6.83,15.666-11.98,84.53-10,106-1.33,1-2.67,2-4,3h-2c-80.35-108.519-152-202.867-305-240-37.02-8.984-146.75-19.2-175,5h2c26.32,19.023,74.68,15.685,110,26,36.08,10.539,68.35,23.064,100,37q15.495,9.5,31,19c15.24,7.118,28.4,10.042,41,19,51.91,36.9,86.86,81.178,121,136,16.04,25.75,27.58,69.61,45,92,3.85,4.95,15.2,8.85,20,13,0.03,15.57-9.27,48.4-19,56-21.86-8.93-38.25-24.71-62-33-3.64-33.19-37.1-82.01-54-106-63.55-90.2-138.65-153.192-248-198l-88-25c-12.9-3.215-26.28-3.317-36-9-3.04-30.006-14.59-26-37-33v-1c4.21-3.343,4.03-12.556,10-17,22.79-16.961,77.06-27.986,109-35Zm-435,29c75.96-1.572,137.54,19.407,197,37,21.23,6.283,53.43,3.96,62,23-1.74,21.5-17.23,56.124-34,63-13.29,2.523-59.7-24.01-75-30-52.2-20.443-125.3-44.6-202-33-54.58,8.256-103.34,17.906-142,42-16.99,10.587-53.86,48.385-70,51l-3-4c0.01-20.773,1.71-45.967,10-60,22.77-38.554,121.13-72.723,175-83Zm1135,7c27.84-.151,67.51,12.894,94,20,0.67,1.333,1.33,2.667,2,4-6.75,11.181-22.49,13.593-33,21q-22.5,20-45,40c-31.57,25.5-60.39,70.289-78,109-9.92,21.806-12.25,44.16-20,69h-1c-10.48-1.65-45.99-9.6-53-14-8.48-23.333,4.05-57.072,10-78C2547.94,866.352,2592.51,805.3,2651,769ZM1203,824l10,1c8.04,6.1,32.59,57.147,21,71-6.47,8.982-25.12,10.528-36,15l-96,45c-92.35,53.96-185.538,152.34-185,299-4.583,2.66-3.371,4.78-10,6-60.546-35.15-29.158-118.11-6-171C959.635,956.085,1084.08,897.835,1203,824Zm1652,8c19.11-.49,60.06,8.115,72,16v6c-19.05,38.057-70.51,46.384-107,67-25.91,14.641-52.26,30.847-75,49-22.7,18.122-45.83,46.59-62,71q-9.495,18.495-19,37c-9.87,6.52-40.64-10.78-49-16,0.71-32.73,23.25-61.2,37-83,19.01-30.148,35.19-61.8,64-82,30.16-21.144,68.47-37.431,104-52Q2837.505,838.5,2855,832ZM111,847c84.431-1.689,180.319,60.239,204,118l-3,5c-21.6,2.444-36.107,10.8-53,13-39.323-25.427-61.758-66.491-112-82-40.037-12.359-84.437,18.6-116-6,11.7-15.206,35.367-33.363,54-41Zm1341,19c84.21-1.628,158.62,15.836,212,47,14.99,8.749,33.71,13.657,41,30-4.08,10.862-15.02,37.3-29,38-10.16-13.1-27.01-22.86-46-27,5.06,19.389,45.02,48.62,40,73q-4.995,10.5-10,21c-4.78,11.16-5.78,21.64-14,29q-10.005-22.995-20-46c-21.75-40.423-49.31-88.132-84-116q-13.995-10-28-20C1502.85,888.473,1456.44,874.625,1452,866Zm339,4c37.97-.622,64.23,10.435,91,21,113.18,44.662,171.49,112.2,232,209,11.01,17.62,64.08,94.62,61,113-11.06,14.34-48.23,27.98-72,22-22.13-44.05-34.9-91.93-59-133-54.06-92.11-152.42-185.687-299-185-1.33-2.275-5.34-3.422-6-5C1733.69,899.28,1782.52,875.465,1791,870Zm1171,19c1.67,0.333,3.33.667,5,1-0.33,98.752-63,134.74-142,153-18.48,4.27-100.06,9.33-109-5,0,0,27.31-50.055,29-51,12.7-7.088,34.43,1.628,51-1l61-9a113.352,113.352,0,0,0,61-45l12-23Q2946.005,899,2962,889ZM1608,1300c31.53-.71,65.62-6.95,93-15,9.92-2.92,28.82-14.7,37-11v1c-41.79,42.45-101.14,70.95-166,90-9.84,2.89-15.91,7.75-28,8q-4.005-2.505-8-5c-10.59-35.12,28.09-116.28,36-154,14.77-70.4-18.94-161.62-44-199-11.31-16.868-28.18-29.558-44-42-18.77-14.759-77.37-60.68-112-32v1c18.64,3.981,32.3,19.481,44,31,56.38,55.51,64.29,138.33,31,223-10.63,27.04-18.42,52.08-42,66-2-.33-4-0.67-6-1-8.83-7.15-15.02-25.62-16-40,18.55-28.17,71.64-80.83,50-135h-4c-20.68,28.87-35.99,65.42-64,87h-1l-73-164c-4.71-11.963-25.33-47.523-21-63,4.36-15.573,36.72-32.138,51-38,39.75-16.323,104.28-11.05,138,5,72.22,34.369,143.84,114.27,158,205,7.11,45.52-9.54,89.93-21,122-4.37,12.22-18.63,33.43-13,47,8.97-.33,17.65-2.01,24,1Q1607.5,1294,1608,1300Zm130-357c36.87,0.918,64.35,17.658,86,34,69.51,52.47,96.62,139.52,65,250-8.16,28.51-12.25,53.11-27,74-23.69,33.55-59.75,54.93-96,76-16.99,9.87-44.85,14.19-57,29,3.17,7.49,10.52,10.85,16,16-0.84,8.31-5.75,10.19-6,15,26.89,11.58,48.5,38.61,75,53,9.38,5.09,29.96,8.89,34,19-50.33,6.14-129.02-27.52-164-44-11.36-5.35-37.65-13.9-43-25-0.33-2.67-.67-5.33-1-8,4.15-23.87,71.9-47.26,93-60,71-42.87,127.46-100.67,149-192,14.98-63.52-11.22-151.43-57-166,2.58,13.64,6.35,27.17,9,43,3.9,23.31-3.59,46.66-9,62-20.47,58.08-51.17,87.11-100,116-10.55,6.24-94.49,48.44-107,25-2.86-12.28,10.5-36.79,20-41l43-3c32.4-8.3,69.76-27.31,84-54-0.67-1.67-1.33-3.33-2-5-19.25.28-34.4,7.74-50,12-16.74,4.58-36.75,3.85-58,4q31.995-83.49,64-167C1709.6,981.315,1714.45,955.249,1738,943ZM48,944c39.751-.37,69.467,17.49,100,29,32.318,12.183,67.448,16.556,106,22,26.482,3.74,66.118-2.217,89-8,10.676-2.7,25.354-14.63,38-10,8.939,4.711,20.779,35.88,19,47-30.373,16.03-124.632,52.9-175,44-37.694-6.66-71.07-19.78-102-32-20.045-7.92-51.02-13.89-63-30L46,979c-5.5-8.725-14.4-14.371-16-27l1-2Zm1188,15,15,2c5.28,4.363,11.14,41.83,8,47-20.09.23-43.81,3.47-53,15v1c63.54,0.85,89.1,20.87,99,73-0.67.33-1.33,0.67-2,1-50.12-15.92-134.17-55.5-208-39-27.77,6.21-50.05,22.31-76,28-0.33-.67-0.67-1.33-1-2,33.43-43.16,104.24-86.206,158-109Zm1747,39c5.69-.148,6.77-0.341,9,3,6.04,15.23-10.42,67.72-6,93,7.63,43.62-16.55,51.07-36,78-51.43,71.21-137.82,114.41-235,139-21.5,5.44-96.77,6.69-114-4-13.93-8.64-19.52-35.65-27-51-5.73-11.74-26.1-28.08-24-42h1c139.78,40.91,301.54,12.84,372-76,17.11-21.58,48.85-43.31,42-79h-4c-13.33,14.48-32.45,22.64-50,33-58.55,34.57-122.27,57.41-200,75-47.66,10.79-117.94-20.11-147-32-26.55-10.86-64.66-21.07-80-43q-7.005-15.495-14-31c-4.54-8.85-18.45-24.17-15-36,0.93-6.86,2.71-6.88,7-10,54.24,8.81,100.9,52.94,155,71q26.49,4.005,53,8c73.81,13.83,134.96,1.9,195-17,17.07-5.37,33.14-7.79,47-16C2939.9,1044.47,2957.19,1016.52,2983,998Zm-1069,20c32.46,15.79,99.44,125.97,113,166,6.1,18,17.12,43.14,13,65-7.84,7.1-38.24,15.76-48,10-0.23-20.09-3.47-43.81-15-53h-1c-0.98,63.72-20.66,89.02-73,99-0.33-.67-0.67-1.33-1-2,8.08-25.55,21.28-52.62,29-81,6.22-22.87,5.88-43.89,10-69q1.005-20.505,2-41l-9-42C1928.99,1055.71,1912.02,1032.46,1914,1018ZM409,1074h4c5.5,16.47,16.321,29.79,26,42-0.555,25.22-46.887,45.31-65,56-31.406,18.54-69.534,27.53-113,35q-19.5.495-39,1c-14.531,2.22-37.27,2.06-49-3-9.389-4.05-53.377-72.66-56-85l3-3c20.093,1.28,36.935,8.6,59,12C256.091,1140.88,378.234,1110.77,409,1074Zm171,4c9.025,3.13,9.511,13.44,14,21,7.289,12.28,20.786,24.55,24,40,0.834,4.01-15.914,69.15-19,77-2.72,6.92-81.884,61.55-92,64-1-1.33-2-2.67-3-4,0.127-21.59,8.953-43.95,3-61h-5c-37.883,41.64-76.4,77.69-126,108q-14.5,7.995-29,16-11.5,3.495-23,7c-20.34,13.26-19.122,67.55-41,82-1-.67-2-1.33-3-2l-51-94c-4.941-10.24-16.146-29.31-10-40C392.816,1285.87,505.193,1187.7,580,1078Zm-568,1q21,10.005,42,20l32,9q26.5,47.49,53,95c-0.333.33-.667,0.67-1,1-13.265-.38-41.959-6.72-49,0q20,25.995,40,52,17.5,33.99,35,68c9.745,16,22.2,31.63,31,49q5.5,15,11,30c11.068,16.81,58.684,26.53,61,48-38.128,27.02-80.258,44.84-116,74-1-.67-2-1.33-3-2,0.5-22.27-4.856-39.44-9-59q-6.5-42.495-13-85c-11.3-43.43-30.212-83.6-51-119L15,1160Q13.5,1119.5,12,1079Zm1104,18c115.4-.99,197.37,30.83,241,102,12.12,19.77,34.72,80.24,49,92,7.34-3.16,10.9-10.59,16-16,7.96,0.59,8.81,3.15,13,7,0.67-.33,1.33-0.67,2-1q26.49-37.5,53-75c5.54-9.45,8.48-29.9,19-34,0.33,1.33.67,2.67,1,4q-3.495,24.99-7,50c-10.26,40.54-21.3,77.13-38,110-5.82,11.45-13.59,37.48-25,43-24.87,12.81-53.9-68.38-64-85-44.89-73.86-100.54-133.63-196-156-60.6-14.2-155.25,11-166,57,13.89-2.62,27.74-6.28,44-9,22.83-3.81,45.94,3.69,61,9,57.05,20.1,87.38,50.21,115,99,7.62,13.45,51.03,94.42,24,109-12.49-2.04-33.74-9.55-39-19q-1.5-22.005-3-44c-5.18-22.22-15.18-38.91-26-55-6.54-9.72-18.78-33.42-33-28,0.26,19.08,7.42,34.82,12,50,5.01,16.63,3.86,36.94,4,58l-174-67c-14.614-6.41-41.779-11.87-51-24-13.067-17.19,3.9-59.6,12-74,21.536-38.29,53.57-71.77,97-88Q1086.49,1104.5,1116,1097Zm1191,16c28.75,3.42,53.25,25.39,78,36l126,54c15.73,11.21,22.47,42.38,33,59,7.93,12.51,23.04,24.97,27,40l-1,1c-20.32.08-35.82-10.91-51-9,18.51,39.75,43.57,72.75,65,109l57,105c12.54,17.52,60.3,31.46,63,53-48.26,19.31-73.41,72.43-127,86v-8c9.9-33.96-6.74-99.99-14-126-26.38-94.44-63.5-162.95-115-230l-37-37-68-65c-11.92-8.36-27.79-8.96-29-28,8.59-17.68.85-19.31-10-29C2304.12,1117.92,2305.11,1116.66,2307,1113ZM723,1156l8,3c4.944,21.22,8.361,47.54,19,64-10.149,29.46-24.617,62.69-34,95-25.328,87.21-14.795,209.54,13,283,14.5,38.33,30.274,75,50,108,9.491,15.88,31.038,35.63,33,56-16.016,25.32-11.018,26.3,4,49-6.477.63-10.506,7.57-23,5-33.538-6.9-77.886-37.65-103-56-91.347-66.73-131.326-133.06-170-253-14.259-44.22-14-101.62-14-156v-37c2-5.39,72.968-60.45,82-66,1.667-.33,3.333-0.67,5-1v2c4.6,12.59-4.489,37.9-7,50-5.3,25.55-12.859,90.92-8,120,7.631,45.68,5.4,91.02,18,130,19.07,58.99,54.6,99.93,89,143,13.65,17.09,59.543,60.78,82,62q-6.5-17.505-13-35-9.5-9.495-19-19l-26-39c-41.368-66.17-95.89-195.7-73-306,7.853-37.84,18.4-79.4,32-112l13-36c3.084-14.54-7.474-19.83,1-32Q702.5,1167.005,723,1156Zm1470,25c39.14-.51,89.31,36.05,114,54,93.47,67.94,146.87,144.49,177,276,9.21,40.21,12.28,92.08,9,138-0.72,10.11,4.87,23.71,1,34-7.62,20.24-68.14,43.97-81,67h-6v-2c-4.07-11.71,3.59-33.21,6-44,5.86-26.28,13.6-93.73,9-124-7.02-46.18-6.01-91.7-18-131-22.99-75.33-99.67-181.77-171-207v1c16,41.33,36.09,59.35,58,93,40.33,61.95,94.35,200.8,73,306-7.68,37.85-18.69,79.23-32,112q-6.495,18-13,36c-3.28,15.01,7.55,19.72-1,32q-21,10.995-42,22c-2-.33-4-0.67-6-1-3.07-6.89-20.49-65.11-20-68,1.88-11.1,13.74-28.35,18-41,15.03-44.62,17.04-80.21,26-134,3.9-23.4,7.57-56.43,3-83-13.87-80.65-31.53-151.29-67-210-6.43-10.64-43.99-64.23-41-73,13.46-25.8,10.13-25.01-5-48C2189.27,1185.75,2189.38,1184.95,2193,1181Zm794,42c4.97,0.55,3.87-.19,6,3l-3,102c-0.03,61.05-6.04,127.31,1,186q0.495,51.495,1,103c2.76,18.28,5.26,110.4,1,115-7.38-5.8-9.44-14.33-15-22-10.38-14.33-21.11-28.73-28-47-9.73-25.81-7.69-56.43-14-87-8.71-42.23-10.18-94.71-10-135q0.495-28.995,1-58,3.495-20.505,7-41c-20.71,3.54-55.43,38.51-72,51-65.49,49.37-108.5,46.71-135,141-2,.33-4,0.67-6,1-1.67-1.33-3.33-2.67-5-4-12.29-41.52-42.88-91.26-65-126,0.33-1,.67-2,1-3q16.995,3.495,34,7c123.41-20.42,182.98-62,254-133Q2963.505,1249.51,2987,1223Zm-2166,2c24.554,1.23,57.35,18.05,65,37-16.065,50.84-43.9,97.15-57,154-21.617,93.79-1.115,207.98,38,267,13.892,20.96,32.2,37.53,47,57,0.269,5.86.406,7.72-3,10-9.7,3.79-26.621-1.1-35-3-45.309-10.3-55.425-41.08-73-78-53.842-113.1-47.429-241.47-9-365,7.587-24.39,8.948-57.59,22-77C817.667,1226.33,819.333,1225.67,821,1225Zm1268,24c24.15-.05,51.62,3.32,66,14,15.42,11.44,23.06,32.93,33,50,50.36,86.44,61.79,215.7,31,330-8.63,32.04-15.94,61.14-23,92-3.21,14.05-3.22,36.91-17,40-15.88,3.56-66.79-26.21-65-39q7.995-16.5,16-33c15.46-36.23,29.9-74.61,40-115,29.98-119.87-13.08-279.87-84-326v-11C2087,1250.33,2088,1249.67,2089,1249Zm-789,143c-2.3-46.84-13.36-92.29-28-128l2-2c29.11,17.32,71.38,105.48,85,143,6.16,16.98,18.07,44.27,9,59-36.36,10.68-115.26-28.27-154-36-74.88-14.95-167.83,20.91-206,49-15.554,11.44-28.443,29.47-40,45-20.874,28.05-44.075,60.34-28,106,0.667-.33,1.333-0.67,2-1,17.87-56.91,81.55-85.34,147-96,32.39-5.28,65.69,8.67,89,16,26.12,8.21,80.56,24.26,84,52-6.21,7.25-30.59,23.36-45,17l-22-22c-23.09-17.9-68.74-37.36-108-28-0.33,1.33-.67,2.67-1,4,10.52,13.34,29.05,19,44,28,15.34,9.24,32.05,23.22,43,37v1l-164,73c-11.652,4.78-47.945,25.14-63,21-17.341-4.77-35.4-42.16-41-59-48.675-146.5,105.77-271.27,213-288,45.5-7.1,89.93,9.54,122,21,12.25,4.38,33.32,18.68,47,13-0.39-10.69-2.58-17.16,1-24Q1294,1392.505,1300,1392ZM6,1268c8.574,5.2,9.3,13.03,15,21,10.45,14.62,22.422,29.13,29,48,9.235,26.49,7.542,57.01,14,88,9.467,45.43,17.427,108.41,9,161v30q-3.5,21-7,42c21.183-3.62,55.009-38.47,72-51,41.505-30.61,95.658-48.07,120-96l15-45c2-.33,4-0.67,6-1,1.666,1.33,3.334,2.67,5,4,12.953,45.93,44.4,86.91,65,127-0.333.67-.667,1.33-1,2q-16.5-3.495-33-7c-60.125,9.35-116.637,24.31-160,51q-34,27.99-68,56Q61.5,1724,36,1750c-7.949,10.13-14.157,21.79-26,28-1-1.33-2-2.67-3-4l4-130q-1.5-129.48-3-259C5.729,1362.69.966,1279.11,6,1268Zm1694,340c1.35,46.53,13.22,93.08,28,128l-2,2c-31.46-18.64-68.99-103.06-84-143-5.98-15.9-17.88-40.09-12-57,30.99-16.42,120.1,26.98,156,34,72.76,14.23,164.08-19.09,202-46,17.32-12.29,31.33-30.97,44-48,20.81-27.97,44.13-60.46,28-106-0.67.33-1.33,0.67-2,1-5.43,17.22-17.97,27.59-28,40-44.87,55.52-135.54,68.12-215,38-24.76-9.39-74.43-20.11-77-50,7.76-9.78,25.15-16.91,41-18,34.05,22.35,72.11,66.48,134,51,0.33-1.67.67-3.33,1-5-28.84-20.65-65.63-35.86-87-64v-1q86.985-39,174-78c17.55-6.87,50.66-26.29,66-7,28.69,36.09,48.69,113.66,25,172-29.11,71.7-117.27,149.56-201,165-47.33,8.73-94.93-7.12-129-19-15.07-5.26-28.52-14.41-47-16l-2,2c0.33,8.97,2.01,17.65-1,24Q1706,1607.5,1700,1608ZM942,1295q19.5,10.995,39,22-0.5,3-1,6c-7.8,16.27-22.332,24.74-26,47,19.313-5.04,48.66-45.08,73-40q10.5,4.995,21,10c11.1,4.75,21.62,5.89,29,14l-48,21c-40.1,23.3-86.712,48.75-115,84-8.325,10.37-46.464,88.21-48,89C864.408,1461.43,895.233,1327.71,942,1295Zm-522,58h3c-6.1,163.67,60.284,277.31,132,368l90,88c12.319,9.9,33.492,16.5,40,32,2.007,8.38-3,15.32-4,25,4.589,2.57,11.3,5.4,14,10q0.5,3,1,6c-1,1.67-2,3.33-3,5-23.277-2.41-41.346-19.77-60-28-30.7-13.55-61.638-27.01-91-40-16.322-7.22-46.724-12.46-57-26-21.963-28.95-32.624-65.19-56-92v-3c0.333-.33.667-0.67,1-1,20.135-.05,35.8,11.31,51,9v-1q-10-19.005-20-38l-57-91c-16.292-27.81-26.718-58.45-45-84-12.625-17.65-60.252-31-63-53,31.863-12.59,54.04-41.76,80-61Q398,1365.505,420,1353Zm1711,99h3c1.57,85.11-29.65,221.98-76,253-13.25-2.49-28.9-14.63-39-22v-7c13.84-10.48,21.04-26.47,27-45v-1c-36.78,10.58-42.78,52.46-92,31-11.48-5-23.46-6.3-31-15,0.33-.67.67-1.33,1-2,19.35-3.39,35.06-13.95,50-22C2045.06,1583.68,2108.26,1538.52,2131,1452Zm857,469c-15.79-1.93-28.16-14.52-42-20q-15.495-4.005-31-8c-2.99-1.99-52.47-89.6-54-96l1-1c13.18,0.42,41.72,6.96,49,0l-2-2c-8.64-19.77-29.62-35.57-41-55-21.02-35.89-39.34-71.49-60-106q-7.5-18.495-15-37c-10.92-15.63-57.37-26.24-60-46,1.67-2,3.33-4,5-6,31.2-9.36,89.83-47.6,111-69,1,0.67,2,1.33,3,2-0.5,22.24,4.7,39.71,9,59q6.495,42.99,13,86c11.17,42.92,30.48,82.93,51,118q30,50.49,60,101Q2986.5,1880.99,2988,1921ZM1175,1490c76.05,12.4,159.04,28.23,205,70v8c-4.19,24.06-67.12,44.53-88,57-73.88,44.12-130.07,100.66-154,194-15.5,60.46,11.67,156.54,57,167v-1c-38.13-105.72,37.81-186.15,102-221,10.64-5.78,90.88-46.33,104-25,5.87,10.69-10.1,38.14-19,42l-42,3c-32.9,7.7-70.82,27.3-85,54,0.67,1.67,1.33,3.33,2,5,20.86-.31,37.6-8.77,55-13,15.45-3.76,34.01-2.87,53-3-12.02,21.27-16.87,46.09-26,70q-21.495,54-43,108c-8.27,17.28-12.63,57.06-42,52-129.98-22.4-181.26-145.47-142-288,8.79-31.9,14.93-55.73,32-78,22.37-29.18,57.08-49.43,90-68,16.99-9.58,44.99-14.3,57-29-4.38-9.4-14.42-8.81-16-21q3.495-4.005,7-8c-20.25-21.08-50.41-39.9-76-55-9.47-5.59-29.84-8.45-34-19C1173,1490.67,1174,1490.33,1175,1490Zm1541,82c9,5.14,50.13,84.34,57,99,2.63,5.61,14.1,27.15,11,34,0,0-77.73,10.7-86,13-71.22,19.77-123.59,52.44-176,90-31.52,22.59-57.52,55.24-82,85-6.36,7.73-15.18,30.92-26,27-6.8-22.66-27.51-36.33-32-59-1.18-5.95,17.56-75.02,21-80,4.12-5.97,81.88-59,90-61l2,2c2.85,22.28-6.53,41.46-3,62,0.67,0.33,1.33.67,2,1,21.42-4.29,45.09-48.81,62-62q42.495-27.99,85-56c10.79-5.83,33.03-8.22,40-18C2697.16,1626.34,2697.8,1592.1,2716,1572Zm-974,25c13.38,1.8,34.09,10.33,39,21q1.5,21.495,3,43c8.3,32.44,27.23,69.81,54,84,1.67-.67,3.33-1.33,5-2-0.28-19.1-7.74-34.43-12-50-4.58-16.74-3.85-36.75-4-58q85.485,33,171,66c16.36,7.69,47.24,12.88,56,28,9.26,15.96-5.09,56.4-12,70-42.46,83.54-144.48,124.07-261,92-39.3-10.82-68.08-17.69-95-39-27.47-21.75-48.3-57.75-65-90-7.95-15.36-13.62-44.05-28-53q-7.5,7.995-15,16c-8.32-.34-9.07-2.74-13-7-0.67.33-1.33,0.67-2,1q-26.49,37.5-53,75c-5.51,9.39-8.62,29.85-19,34v-2c-4.15-11.47,3.61-34.96,6-46,10.12-46.69,21.45-83.74,40-120,5.36-10.49,12.45-33.95,23-39,2.67-.33,5.33-0.67,8-1,23.94,4.17,45.54,68.97,58,90,42.74,72.15,101.17,129.98,193,152,61.82,14.83,155.16-10.95,167-57q-15,4.005-30,8c-25.77,4.64-53.66-1.18-72-7-65.44-20.77-91.76-56.65-123-111-12.42-21.6-36.66-61.67-25-95Zm-295,30c7.31-.09,10.31,1.26,15,3,16.45,31.04-26.94,120.19-34,156-13.75,69.8,17.87,162.44,46,202,12.33,17.34,30.84,31.4,48,44,28.15,20.67,60.24,44.26,106,28-0.33-.67-0.67-1.33-1-2-56.56-17.74-85.37-81.07-96-146-5.75-35.16,9.24-72.19,18-97,8.99-25.44,20.48-73.4,50-77,7.53,6.6,22.03,29.94,17,44q-10.995,11.505-22,23c-15.38,20.09-42.68,74.01-27,109h4c20.68-28.87,35.99-65.42,64-87h1q36,80.985,72,162c5.1,11.99,25.57,48.7,22,64-3.85,16.49-36.42,33.01-51,39-34.22,14.05-96.42,13.29-130,0-74.17-29.37-152.15-120.29-166-209-7.25-46.43,9.54-90.45,21-123,4.34-12.33,18.55-33.39,13-47-10.62.43-17.4,2.37-24-1q-1.005-6-2-12c-46.74,3.61-91,13.25-127,28l-2-2c15.71-25.59,91.96-64.96,124-78C1402.32,1641.36,1434.78,1638.92,1447,1627ZM321,1685c23.234,1.28,62.771-1.87,79,9,1.894,1.27,50.03,86.7,51,91-0.333.33-.667,0.67-1,1q-38.5-8.505-77-17c-119.482-22.19-248.189,31.93-296,93-16.738,21.38-49.42,43.51-42,79h4c13.916-14.99,33.732-23.25,52-34,63.318-37.25,120.053-52.26,198-74q10.5,0.495,21,1c53.6,6.43,87.127,14.47,126,31,26.222,11.15,62.957,20.72,79,42q8,16.995,16,34c4.99,9.74,18.913,24.82,13,38l-6,6c-39-6.33-71.6-31.74-101-49-34.015-19.97-142.014-46.89-200-37-54.772,9.34-113.542,17.59-154,43-18.979,11.92-51.453,59.2-73,60l-2-3q3-39,6-78-2-21.495-4-43,18.5-22.995,37-46c44.082-57.27,102.958-100.41,179-125l59-18Q303,1687.005,321,1685Zm773,10c1.33,0.67,2.67,1.33,4,2-18.32,45.05-54.5,139.43-39,208,6.32,27.95,22.29,49.99,28,76-0.67.33-1.33,0.67-2,1-43.24-32.72-89.721-108.43-111-163-3.563-9.14-20.471-60.82-13-70,3.673-4.51,13.454-3.28,20-5,9.662-2.55,17.465-7.99,27-3-0.61,20.35,3.73,44.04,15,53h1c0.48-24.7,6.33-69.28,22-80Q1070,1704.505,1094,1695Zm994,44h6c11.26,13.83,27.37,28.12,34,46,12.74,34.37-18.83,98.61-29,122-41.28,94.98-112.43,154.06-197,206-17.7,10.87-97.03,65.3-115,62-8.09-6.04-32.71-57.07-21-71,7.07-9.76,51.33-21.07,65-27,42.01-18.24,82.84-40.49,117-67,51.49-39.96,98.43-99.88,122-167q6.495-30.99,13-62C2085.73,1764.44,2083.43,1749.94,2088,1739Zm117,23c6.63,3.01,14.09,3.38,19,10,29.11,39.2,52.99,184,38,253-16.98,78.17-47.17,143.41-87,199l-45,51c-8.58,10.71-46.95,54.62-58,58-6.9,2.11-99.58-10.67-104-12-1-.67-2-1.33-3-2v-3c86.1-63.03,177.56-133.15,222-237,8.13-19.01,10.15-37.83,16-60,13.08-49.54,22.88-135.56-2-182-0.67.33-1.33,0.67-2,1q-7.005,15-14,30-0.495,16.005-1,32-4.995,24-10,48c-24.55,83.96-69.17,187.92-129,236-33.13,26.62-70.23,49.95-108,72l-66,30c-5.42,4.45-7.95,14.92-13,20-16.89-.07-42.52-8.46-55-16,0.77-18.84,24.96-45.19,32-65,35.52-3.9,86.48-39.89,112-58,87.48-62.08,148.41-137.67,192-244q12.495-43.5,25-87c3.44-13.47,3.09-26.89,9-37C2197.24,1797.75,2206.9,1785.26,2205,1762Zm-1322,1c3.666,0.33,7.334.67,11,1,10.125,8.06,11.606,25.27,17,38q20.5,44.49,41,89c51.63,95.69,155.07,192.55,303,192,2.66,4.58,4.78,3.37,6,10-35.28,61.16-118.08,29.15-171,6-102.435-44.82-162-129.19-218-221-10.29-16.87-50.6-71.42-47-91C838.307,1770.4,861.654,1772.24,883,1763Zm1897,28c16.81-.18,37.44-1.14,49,5,8.32,4.42,51.54,72.7,54,84l-3,3c-20.6-1.03-38.23-8.52-61-12-90.82-13.89-180.66,20.97-229,55-1.33-.33-2.67-0.67-4-1-3.73-11.54-25.48-39.66-26-44-2.14-17.99,30.97-31.07,42-38,33.07-20.79,65.69-35.18,111-46Zm-438,6c13.3,7,22.32,56.26,29,73l54,135c2.56,13.91-13.18,47.35-17,60-4.21,13.92-2.28,41.36-11,52-15.94-7.83-18.12-30.06-30-42h-1q-7.005,22.005-14,44-11.505,50.49-23,101c-9.36,30.06-21.5,60.05-28,93-3.01,15.25,18.87,76.35,8,81q-19.005-4.005-38-8l-68-6q-22.5-6.495-45-13c4.14-12.53,23.97-21.88,32-32l32-41c37.75-53.09,66.21-116.46,87-186,16.7-55.87,12.57-123.81,14-191q-0.495-22.5-1-45c-1.86-9.34-10.39-22.24-5-36,3.75-7.49,14.76-10.96,21-16-2.2-5.89-3.99-11.6-3-18C2337.33,1800.33,2339.67,1798.67,2342,1797Zm-1632,6c18.682,0.77,45.074,24.93,65,32,3.488,31.9,34.875,78.79,51,102,63.209,90.98,137.247,154.08,246,200,27.85,11.76,61.41,18.93,92,27,13.31,3.51,26.85,3.18,37,9,1.86,29.71,15.13,26.82,37,33-2.89,4.07-.34,6-3,11-9.24,17.35-63.54,26.79-86,34-17.31,5.56-38.99,8.63-59,12h-23c-34.6,7.58-80.359,2.36-111-6-111.207-30.34-162.24-70.38-239-132q-25-26.49-50-53c-4.142-13.71,5.724-48.49,8-62,2.427-14.41.156-39.38,7-45,16.371,9.83,25.816,33.66,37,49q21,24.99,42,50c37.111,46.27,105.908,101.67,165,125,20.943,8.27,43.066,11.15,67,17,36.57,8.94,143.68,17.2,171-6q-16.005-7.5-32-15-16.5-.495-33-1-24-4.995-48-10c-83.139-22.83-188.939-71.31-236-130a713.662,713.662,0,0,1-70-105q-16-34.5-32-69c-5.565-5.19-13.668-6.69-19-12C694.065,1841.2,702.481,1815.45,710,1803Zm1806,33c2.67,0.67,5.33,1.33,8,2q12.495,28.5,25,57c12.1,36.6,15.63,71.38,33,101,28.32,48.29,68.03,98.95,113,131q39.495,22.995,79,46c21.85,12.81,44.71,14.76,76,20,22.47,3.76,43.71-5.08,59,5v4q-33.99,28.995-68,58c-7.81,8.42-11.88,24.24-24,28q-22.995,1.995-46,4-36,3.495-72,7c-85.5-12.03-184.09-47.13-233-96-12.84-12.82-47.08-43.77-51-62-3.84-17.86,12.5-40.76,17-54q4.995-22.995,10-46c0.67-.33,1.33-0.67,2-1,0.67,0.33,1.33.67,2,1,4.81,15.16,16.06,27.58,24,40,48.16,75.32,122.33,138.72,220,164,39.69,10.27,143.29,12.9,157-21l-2-2c-154.15-25.45-279.57-85.79-330-216-8.38-21.63-37.05-69.57-30-101q6.495-17.505,13-35C2503.29,1854.36,2503.85,1844.5,2516,1836ZM553,1850l31,9c13.756,3.27,28.048,2.97,38,10,12.818,9.06,29.1,53.12,40,68,0.4,26.17-10.676,87.55-19,109-1.667-.33-3.333-0.67-5-1-15.888-7.68-27.553-31.15-39-44-2,.67-4,1.33-6,2-2.552,46.73,6.011,85.32-4,127q-9,35.49-18,71l-12,24c-3.751,24.81,36.987,57.87,29,85h-1c-23.667-2.41-130.988-33.7-139-47-0.333-1.33-.667-2.67-1-4,68.506-78.25,92.061-139.21,114-265,5.9-33.84,1.812-80.28-4-112C555.2,1872.17,549.628,1858.15,553,1850Zm1143,52c51.85,14.32,126.13,53.99,202,40,31.91-5.88,54.7-22.8,83-29,0.33,0.67.67,1.33,1,2-34.22,44.74-104.79,85.95-161,109-17.99,7.38-45.96,20.55-70,16-7.1-7.84-15.76-38.24-10-48,22.52,0.53,39.96-4.97,53-14v-1l-1-1c-24.8-.61-67.76-6.53-79-22q-4.995-13.5-10-27C1700.22,1919.3,1694.54,1910.74,1696,1902ZM338,1921c16.894-.08,33.5,9.29,46,16,4.53,24.74-25.522,67.39-36,84q-17.5,27.495-35,55c-28.159,35.58-74.53,50.31-118,71-15.67,7.46-42.064,26.91-67,21l-28-9c-11.444-2.61-19.293-1.95-27-7v-6c19.173-38.17,114.847-68.92,154-95,34.661-23.09,67.071-57.29,90-92C325.075,1946.77,328.134,1931.25,338,1921Zm1015,2c8.38,5.93,24.07,53.23,31,65,20.14,34.21,45.6,74.72,76,99,10.6,8.47,86.86,44.83,88,47-1,.33-2,0.67-3,1q-33.99-1.995-68-4c-49.57-8.85-97.45-21.16-136-41-11.52-5.93-48.41-19.62-45-35l21-36c2,0.33,4,.67,6,1,16.23,7.8,24.76,22.34,47,26-0.67-1.33-1.33-2.67-2-4C1343.51,1988.4,1310.21,1992.29,1353,1923Zm1395,9c56.26-1.17,94.5,18.35,134,34,17.86,7.07,38.7,11.95,53,23,6.04,4.67,33.94,50.47,35,59-1,1.33-2,2.67-3,4-46.32,9.99-85.06-14.82-124-28-30.6-10.35-63.16-14.94-99-19-25.92-2.94-64.31,2.21-87,8-10.64,2.71-25.34,14.77-38,10-9.07-4.77-20.94-35.46-19-47a381.442,381.442,0,0,1,87-32ZM216,1952c17.281-.13,61.028-1.36,68,10v3q-8,10.995-16,22l-10,24c-15,5.29-33.37-.07-53,3-25.155,3.94-52.329,4.42-73,13-20.1,8.35-38.919,23.49-50,41q-6,11.505-12,23-16.5,10.005-33,20c-1.333-.33-2.667-0.67-4-1,0.236-93.69,56.185-129.81,128-150Q188.5,1956,216,1952Zm213,16c10.7,1.54,46.991,9.61,54,14,8.124,22.26-3.047,56.57-9,78-16.351,58.86-48.954,97.42-84,137-10.434,11.78-23.757,29.86-41,34-11.421,2.74-79.7-16.22-94-20-0.667-1.33-1.333-2.67-2-4,7.134-11.81,25.018-15,36-23q26-24,52-48c25.262-31.26,52.258-62.28,69-102C418.849,2013.01,421.217,1991.54,429,1968Zm2307,49c19.59,1.88,23.36,18.39,35,28,19.79,16.34,40.36,37.35,65,48,32.48,14.04,56.53,7.57,89,1,14.03-2.84,31.42,5.37,43,9v4c-22.45,17.05-40.07,37.11-72,45-28.19,6.97-56.87-5.25-76-12-53.92-19.04-114.26-54.65-135-105,1-1.67,2-3.33,3-5C2706.7,2028.89,2725.13,2026.11,2736,2017Zm-990,68,4,4c3.13,8.02-.4,22.39-2,30-9.12,43.24-26.82,49.24-59,68-103.14,60.14-252.83,60.58-379,22q-39.99-10.995-80-22c-17.97-13.36,19.71-68.32,32-73,50.45,17.4,97.2,43.86,154,57,134.48,31.11,260.14-17.77,323-85C1741.33,2085.67,1743.67,2085.33,1746,2085ZM633,2158c12.516,4.3,21.87,23.9,32,32q22.5,17.505,45,35c52.147,36.81,114,62.19,181,84,55.228,17.98,126.88,13.74,194,14q22.005-.495,44-1c8.91-1.91,21.58-10.26,35-5,8.07,4.09,9.78,15,16,21l16-3c1.67,0.67,3.33,1.33,5,2,0.67,2,1.33,4,2,6-14.58,17.33-55.81,20.92-78,30q-64.995,25.995-130,52c-16.677,3.07-59.678-16.61-77-21l-35-6v-3c12.115-8.84,31.331-17.16,42-28v-1l-37-12q-50.495-11.505-101-23c-32.756-9.82-64.722-22.88-100-30-21.891-4.42-67.233,20.94-80,8q3.5-19.005,7-38,3-33.99,6-68Q626.5,2180.5,633,2158Zm1179,26c13.78,15.54,1.07,38.24-7,54-13.33,26.04-25.67,51.14-42,74l-29,32c-52.96,84.47-167.1,125.91-286,146-31.16,5.27-64.72,3.97-99,4q-14.505.495-29,1c-24.87-6.45-45.3-68.11-70-82v-6h2c15.71-5.45,46.64,5.99,62,9,37.63,7.38,100.01,10.5,140,4,29.49-4.79,60.13-5.42,87-13,58.44-16.48,141-67.7,174-109,15.56-19.47,26.64-43.7,43-63-0.33-.67-0.67-1.33-1-2-41.67,16.13-58.8,36.62-93,58-66.13,41.34-195.82,95.86-306,73-37.89-7.86-79.37-18.39-112-32q-18-6.495-36-13c-11.19-2.43-18.66,8.43-28,2-10.37-7.15-20.71-33.28-26-45,1.33-2.67,2.67-5.33,4-8,21.2-1.97,47.74-8.26,63-18,31.03,10.69,65.09,26.57,100,35,90.17,21.76,202.28,12.65,278-14,40.43-14.23,78.79-32.16,113-53,14.56-8.87,31.83-28.22,51-30C1778.8,2197.97,1802.12,2205.92,1812,2184ZM221,2223c19.349-.04,33.1,9.44,49,14l57,15v3c-10.215,7.16-30.394,20.93-35,33,0.667,0.33,1.333.67,2,1q26,2.505,52,5,40,12.495,80,25,19.5,3.495,39,7,25.5,10.005,51,20c27.138,6.28,50.6-17.82,76-11,0.333,0.67.667,1.33,1,2-0.039,29.98-16.669,61.12-24,88-3.871,14.2-1.626,31.17-6,47h-1l-45-33c-34.2-26.33-69.453-53.78-111-72-42.675-18.71-91.947-29.53-139-44q-28.5-6.495-57-13-29.5-27-59-54c0.333-1.33.667-2.67,1-4C178.284,2247.37,202.131,2235.79,221,2223Zm2161,23c10.49,3.59,10.48,17.44,17,25q13.5,10.005,27,20c38.98,27.4,83.94,50.33,138,62,39.98,8.63,87.37,6.72,133,6,14.81-.23,42.33-8.67,54,0v1c-12.39,15.65-29.45,29.45-45,42q-73.995,72.99-148,146l-163,172c-1.33-.33-2.67-0.67-4-1,0.38-68.95,40.37-108.72,70-149,31.94-43.42,66.05-83.69,105-120,8.62-8.03,56.43-43.44,59-49h-2c-9.77-8.67-60.84-9.96-78-13q-26.49-4.5-53-9c-26.97-8.21-55.73-19.79-92-12-22.36,4.8-38.16,21.69-59,24l-3-3c0.53-24.32,23.59-68.62,31-92Q2375.5,2271.01,2382,2246Zm-506,58c6.78,0.1,7.55,1.15,11,4-4.59,27.7-24.52,50.72-35,75q-27.495,63.99-55,128c-10.81,15.17-40.75,22.12-57,32q-21,13.995-42,28l-1-1c-0.4-19.28,4.67-34.29,10-49-0.33-.67-0.67-1.33-1-2-43.75,20.37-80.99,47.77-121,72-30.3,18.35-64.79,29.81-93,50-17.62,12.61-31.27,60.27-53,63-20.23-47.68-72.48-73.59-86-127,164.46,6.13,277.95-60.94,369-133l94-97c9.2-11.94,10.85-31.09,30-33,6.66,2.88,14.99,6.29,22,3C1869.71,2311.24,1872.42,2307.76,1876,2304ZM612,2338c11.832,0.29,17.986,5.81,27,9q37,12.495,74,25c12.657,4.13,31.844,3.07,41,11-1,1.67-2,3.33-3,5-43.786,15.01-90.051,114.57-102,165l-6,54c-4.8,31.51-4.936,76.22,0,107,1.685,10.51,3.679,31.81-3,37q-53.495-56.49-107-113-57.995-55.5-116-111-18-19.005-36-38l-101-94c0.333-1.33.667-2.67,1-4,68.972,1.07,108.429,40.15,149,70,42.959,31.6,83.058,65.45,119,104,8.23,8.83,44.215,57.32,50,60,12.557-34.74,9.217-77.55,18-116,7.784-34.08,25.325-65.52,16-109-4.772-22.25-22.143-38.18-24-59Zm1324,0c28-.46,86.59,10.55,110,19-0.33,1.67-.67,3.33-1,5-8.95,18.28-33.76,22.84-44,40,0.67,1.67,1.33,3.33,2,5,46.43,2.66,84.57-5.54,126,4q33,7.995,66,16,15,7.005,30,14c26.02,3.1,56.45-36.19,85-29v1c-5.75,36.88-28.68,114.62-47,140h-4c-45.24-40.12-95.78-72.32-160-94-23.53-7.94-47.87-8.51-74-14-27.03-5.68-63.27-11-97-6-25.84,3.83-53.47,8.24-77,10v-2c-2.59-7.97,4.88-19.09,7-27,3.92-14.62,3.27-31.26,11-42C1883.18,2358.31,1920.72,2357.31,1936,2338Zm-797,44c8.03,0.14,75.38,17.79,80,21,5.74,3.98,59.11,82.24,61,90-1.33,1-2.67,2-4,3-21.59-.13-43.95-8.95-61-3,0.33,1.67.67,3.33,1,5,7.99,16.51,32.78,34.86,48,45,19.22,12.8,43.07,55.32,56,76,7.78,12.45,22.3,56.32,32,63,21.66,14.92,61.03,13.71,76,35-0.67,1-1.33,2-2,3q-46.995,25.5-94,51c-4.04,1.95-32.46,15.06-37,13-7.87-3.58-1.78-30.84-4-41-8.43-38.56-16.07-75.44-30-109-31.15-75.06-85.79-139.11-146-186-11.66-9.08-22.33-21-37-27v-4Q1108.495,2399.5,1139,2382Zm1198,25c26.86,0.04,55.83,14.84,79,22,17.46,5.4,36.36,2.57,56,8v1q-18,24.495-36,49c-26.56,36.89-53.67,71.64-73,116-18.69,42.9-29.91,93.88-43,141q-4.995,22.5-10,45l-54,60c-1.33-.33-2.67-0.67-4-1q-7.5-22.995-15-46-7.005-11.505-14-23c-2.68-11.43,23.88-87.44,28-106h4c7.2,10.26,20.86,30.37,33,35q4.5-33.495,9-67c9.85-34.35,18.26-68.08,29-106q10.005-25.5,20-51c6.03-26.4-16.75-49.13-12-75C2335,2408.33,2336,2407.67,2337,2407Zm-1477,8c20.488,1.64,36.524,11.3,53,17q23,4.995,46,10c0.333,0.67.667,1.33,1,2-0.333.67-.667,1.33-1,2-13.423,4.26-24,14.07-35,21-75.135,47.35-143.244,121.31-168,218-9.276,36.23-15.956,154.29,21,162,0.333-.67.667-1.33,1-2,24.442-147.14,83.265-277.61,206-327,23.29-9.37,78.47-39.5,110-33q12.495,4.995,25,10c15.4,5.36,37.89,5.44,44,20v7c-21.17,23.4-78.74,28-113,40-52.7,18.46-92.085,51.37-132,83-36.221,28.7-93.224,116.7-107,167-7.6,27.75,5.331,76.02-9,97h-4q-29-33.99-58-68c-8.481-7.87-24.188-11.77-28-24q-2-23.505-4-47C682.764,2621.95,766.555,2467.12,860,2415Zm1112,39a28.822,28.822,0,0,1,12,5c0.33,1,.67,2,1,3-7.42,45.75-39.55,77.71-56,115-14.06,31.88-17.12,65.03-25,106-3.63,18.87-9.95,44.48-6,68,9.97,59.41,15.44,119.07,42,163,12.04,19.91,61.1,54.49,62,76-1,.67-2,1.33-3,2l-92-6c-45.3,7.5-46.2-11.46-75-33-68.44-51.19-107.9-122.48-136-214-8.46-27.56-18.41-104.46-4-136,2.47-5.41,84.3-51.99,93-54,0.33,0.67.67,1.33,1,2-39.22,134.02-14.58,301.21,72,369,22.13,17.33,46.41,52.67,83,45v-4c-16.98-15.77-25.57-38.52-38-59-33.62-55.36-52.06-117.93-70-191-5.18-21.09,1.7-53.08,6-69,15.38-56.93,31.72-112.6,64-153C1913.29,2476.12,1954.89,2461.82,1972,2454Zm-4,118c0.63-9.82,10.12-48.85,14-55,23.11-8.46,56.97,4.13,78,10,59.11,16.5,138.09,67.26,166,113,7.78,12.76-9.99,103.9-21,107q-12.495-20.505-25-41C2138.93,2652.77,2053.69,2578,1968,2572Zm-853-11c25.94,0.37,33.5,27.93,44,44,24.75,37.87,38.29,78.98,48,134q0.495,19.995,1,40c1.46,12.35,2.25,29.86-1,42-3.8,14.2-71.15,58.51-87,62l-3-3q5.505-22.995,11-46c16.21-96.49-17.44-192.07-54-244,1.26-3.02-.02-1.2,2-3C1087.76,2575.9,1105.19,2574.31,1115,2561Zm-99,38c2.67,0.33,5.33.67,8,1,15.77,29.91,52.7,124.68,44,174-7.15,40.55-21.68,74.61-34,108-16.84,45.64-16.3,47.83-55,72-8.789,5.49-14.354,14.39-27,16l-4-3c-8.921-32.71,4.279-54.13,13-81,14.619-45.03,29.665-88.15,34-144q-3.5-39.99-7-80c-2.92-11.95-15.916-29.97-11-43C983.407,2607.5,1005.76,2606.86,1016,2599Zm923,16c31.05,0.65,61.4,23.28,82,37q27.495,17.505,55,35c32.12,25.4,49.94,68.51,67,109,6.74,15.98,30.68,52.33,25,76q-4.5,13.995-9,28c-2.65,11.15-2.02,19.39-7,27h-6c-25.9-12.9-27.79-31.49-42-56-25.02-43.17-44.18-88.33-74-126-18.45-23.3-47.87-46.59-73-63q-17.505-9-35-18C1915.77,2654.55,1932.91,2621.65,1939,2615Zm-344,36c7.98,6.78-5.96,27.76-3,41,9.36,41.85,16.11,80.7,31,116,32.74,77.6,99.46,123.07,154,179v5c-1,.33-2,0.67-3,1q-64.995-1.995-130-4l-260,3c-19.29,2.3-110.61,6.09-116,1,1.67-2,3.33-4,5-6,13.39-5.1,21.82-15,33-22,14.78-9.26,33.71-15.73,52-21q28.995-3.495,58-7c47.7-8.44,113.18-19.23,170-10h30q21,3.495,42,7c-3.5-20.5-38.55-55.53-51-72-31.25-41.33-47.87-95.36-96-120l-45-15c-0.33-2-.67-4-1-6,1.33-1.67,2.67-3.33,4-5C1500.59,2707.13,1571.45,2670.33,1595,2651Zm-631,34c3.067,1.49,3.215,1.11,5,4l6,33c2.388,6.93,6.923,10.07,8,19-24.647,38.11-64.864,60.58-81,108-13.875,40.78,17.669,87.78-7,120q-4-3.495-8-7c-11.128-23.57-31.557-35.81-39-66-6.9-28.01,5.142-57.01,12-76C882.437,2757.86,912.891,2717.71,964,2685Zm998,30c2.38,0.65,48.4,27.99,49,29,4.76,5.88,7.21,96.22,12,113,6.38,22.32,21.36,43.5,38,56,20.44,15.36,44.04,23.43,50,53l-1,1c-100.55.08-136.99-65.06-153-148C1952.46,2795.48,1947.1,2731.92,1962,2715Zm-516,18c13.92,2.78,16.75,21.44,23,32,17.24,29.13,32.46,61.08,56,84-0.67,1-1.33,2-2,3-22.38-.48-39.39,4.89-59,9q-36,4.995-72,10c-53.28,12.71-98.94,34.24-141,59q-47.49,27.99-95,56-20.505-.495-41-1c-11.71.83-24.2,4.46-36,3v-4q10.005-19.005,20-38,4.005-15.495,8-31c1.75-2.7,89.42-52.22,96-54l1,1c-0.42,13.18-6.96,41.72,0,49l2-2c19.8-8.13,35.57-29.95,55-41q31.5-16.005,63-32l30-21,50-22C1422.71,2779.35,1428.26,2748.33,1446,2733Z"/>
</svg>
