<?xml version="1.0" encoding="UTF-8"?>
<svg id="Layer_0_xA0_Image" xmlns="http://www.w3.org/2000/svg" version="1.1" viewBox="0 0 4500 1500">
  <!-- Generator: Adobe Illustrator 30.2.1, SVG Export Plug-In . SVG Version: 2.1.1 Build 1)  -->
  <defs>
    <style>
      .st0 {
        fill: #7d3958;
      }
    </style>
  </defs>
  <path class="st0" d="M0,547.98c6.78.4,7.08-3.92,7.05-9.08-.12-28.32-.06-56.63-.06-84.95,0-10.33-.04-20.66.02-30.98.02-3.28.3-6.56.53-11.11,16.47-1.9,32.72.15,50.04-1.33v-29.19h51.9v-42.1c16.47-1.86,32.05-.04,48.79-1.3,0-5.07,0-9.61,0-14.16,0-9.33-.07-18.66.02-27.98.09-9.53.47-9.89,10.35-9.96,11.33-.07,22.65-.02,33.98-.02,3.26,0,6.53,0,11.1,0v-44.97h59.45c.25,3.62.67,6.83.67,10.04.03,157.91.03,315.82.03,473.73,0,1.67-.05,3.33-.03,5,.04,4.05-1.82,6.24-5.99,6.24-3,0-6,.05-8.99.05-86.28.03-172.57.06-258.85.08v-188Z"/>
  <path class="st0" d="M0,761.99c18.99-.08,37.97-.23,56.96-.24,66.63-.03,133.27-.01,199.9,0,2.33,0,4.66-.03,7,0,9.74.16,9.98.29,9.99,10.26.04,51.31.02,102.62.02,153.93,0,105.95,0,211.9,0,317.85,0,3,.01,6-.13,8.99-.16,3.25-2.03,4.61-5.24,4.61-15.3.01-30.6.14-45.89.12-2.55,0-5.11-.56-8.56-.96v-44.05c-4.11-.26-7.3-.62-10.49-.63-11.99-.07-23.99.06-35.98-.07-8.53-.09-9.16-.71-9.25-9.09-.14-12.66-.05-25.32-.1-37.98,0-1.29-.3-2.58-.62-5.1-15.38-1.45-30.96.36-47.4-1.15v-41.61h-51.79v-29.72c-17.34-1.72-33.61.22-50.6-1.3-.29-4.39-.76-8.27-.76-12.14-.06-36.98-.04-73.96-.04-110.95,0-2.33-.14-4.67,0-7,.29-5.17-2.76-6.15-6.99-5.77v-188Z"/>
  <path class="st0" d="M4500,945.99c-1.19,1.27-3.12,2.4-3.4,3.85-.56,2.89-.24,5.96-.24,8.96,0,36.98,0,73.96,0,110.94,0,3.6,0,7.19,0,12.06-17.07,1.34-33.27-.05-50.54.94,0,6.9.05,13.13-.01,19.35-.1,9.95-.3,10.21-9.97,10.28-11.66.09-23.32,0-34.98.05-1.93,0-3.85.31-7,.57,0,8.66,0,16.88,0,25.1,0,2.67.05,5.33-.02,8-.22,8.25-.75,8.86-9.35,9-9.33.15-18.66.04-27.98.04-3.29,0-6.57,0-11.26,0-.19,17.58-.38,34.33-.58,52.27h-54.34v44.55c-3.01.65-5.44,1.61-7.87,1.62-7.32.01-14.65-.34-21.98-.56-6.33-.18-12.66-.68-18.98-.49-12.53.38-12.55.54-12.55-12.49,0-156.58,0-313.16.03-469.74,0-3.9.43-7.81.7-12.41,4.05-.25,7.31-.61,10.57-.62,83.62-.03,167.24-.03,250.86,0,2.97,0,5.93.48,8.9.73v188Z"/>
  <path class="st0" d="M4500,731.99c-3.99-.1-7.99-.29-11.98-.3-81.65-.02-163.3-.01-244.95-.01h-10.19c-1.8-1.44-2.11-1.61-2.31-1.86-.2-.26-.38-.59-.42-.9-.26-2.63-.68-5.27-.68-7.9.02-160.3.08-320.6.18-480.9,0-.93.57-1.85,1.11-3.52h58.36v44.86h55.11c.24,17.92.46,34.69.7,52.65,8.7,0,16.59,0,24.49,0,4,0,8-.01,12,0q12.16.04,12.22,12.14c.03,9.6,0,19.21,0,29.78,4.36.19,7.89.46,11.42.49,10,.06,20-.04,29.99.04,10.07.09,10.42.49,10.51,10.94.05,5.92,0,11.85,0,18.77,17.06.25,33.17.49,50.51.74,0,4.84,0,8.41,0,11.97,0,38.33-.04,76.65.06,114.98,0,3.68-1.73,8.35,3.86,10.02v188Z"/>
  <path class="st0" d="M4500,369.98c-8.62.4-17.23,1.13-25.85,1.08-6.45-.04-7.97-1.92-8.59-8.47-.38-3.98-.49-7.98-.75-11.96-.24-3.62-.51-7.24-.86-12.03-8.36-.19-16.24-.38-24.13-.54-5.66-.12-11.32-.18-16.98-.29-3.78-.08-6.71-1.78-7.13-5.62-1.48-13.46-1.62-26.97-1.88-41.26,29.71-.31,57.94-.6,86.17-.9v80Z"/>
  <path class="st0" d="M4500,1200c-5.62.18-11.25.55-16.87.52-20.62-.13-41.24-.38-61.86-.6-1.94-.02-3.88-.2-7.24-.39,0-3.5-.1-6.67.02-9.84.34-8.97.61-17.95,1.23-26.91.58-8.42,1.72-9.42,10.42-9.75,8.97-.33,17.95-.44,26.93-.61,3.28-.06,6.57,0,10.98,0,.61-7.16,1.27-13.63,1.7-20.11.81-12.18,1.21-12.61,13.74-12.54,6.98.04,13.97.15,20.95.23v80Z"/>
  <path class="st0" d="M4500,1258c-52.18-.85-104.36-1.69-156.55-2.58-4.2-.07-8.39-.52-11.95-.76,1.24-8.82,2.34-16.65,3.56-25.28,2.35-.29,4.89-.92,7.43-.87,51.85,1.01,103.7,2.09,155.54,3.17.66.01,1.31.2,1.97.31v26Z"/>
  <path class="st0" d="M4500,259.98c-3.65-.15-7.3-.47-10.94-.41-47.32.81-94.64,1.68-141.96,2.51-3.9.07-7.8,0-11.96,0-1.21-8.99-2.26-16.87-3.43-25.57,1.45-.2,3.94-.82,6.43-.87,51.99-.85,103.97-1.64,155.96-2.39,1.96-.03,3.93.46,5.9.71v26Z"/>
  <path class="st0" d="M0,1248c24.29.62,48.59,1.34,72.88,1.85,28.89.61,57.79,1.06,87.25,1.59v24.07c-4.31,0-7.85.05-11.39,0-45.95-.69-91.9-1.41-137.84-2.06-3.63-.05-7.27.36-10.9.55,0-8.67,0-17.33,0-26Z"/>
  <path class="st0" d="M0,235.98c21.29-.55,42.58-1.23,63.87-1.6,28.63-.5,57.26-.77,85.88-1.12,2.95-.04,5.91,0,10.07,0,.36,7.95.69,15.34,1.07,23.91C106.82,258.11,53.41,259.05,0,259.98v-24Z"/>
  <path class="st0" d="M0,1133.99c11.1.11,11.4.41,11.98,10.79.22,3.94.62,7.87,1.01,12.72,9.16,1.06,17.93,2.08,27.78,3.22-.13,17.88,5.68,35.22.91,54.48-13.53.26-27.61.53-41.68.8v-82Z"/>
  <path class="st0" d="M0,293.98h42.62c-.52,10.5,3.79,20.71-.69,31.31-1.32,3.12-.26,7.22-.38,10.87-.12,3.59-.35,7.18-.58,11.65-9.37,1.05-18.15,2.04-27.71,3.12-.45,4.46-1.01,8.66-1.26,12.88-.62,10.33-1.3,10.97-11.99,10.18v-80Z"/>
  <path class="st0" d="M410.95,1265.07c1.34-9.61,2.4-17.24,3.63-26.11,3.89-.17,8.05-.57,12.2-.49,53.31,1.03,106.62,2.12,159.93,3.19,3.58.07,7.15,0,11.33,0v-30.71c-34.63-.44-68.82-.87-103.75-1.31-.3-2.92-.81-5.45-.76-7.96.14-8,.47-15.99.77-23.98.56-14.58.65-14.67,15.71-14.99,8.33-.18,16.66-.27,24.99-.49,2.58-.07,5.15-.44,8.49-.75.44-7.66.73-14.9,1.29-22.13.65-8.35,1.96-9.62,10.55-9.65,12-.05,23.99.18,35.99.28,3.26.03,6.52,0,10.98,0,1.87-49.69,3.7-98.47,5.57-147.99,3.84-.46,6.7-1.06,9.57-1.11,9.66-.17,19.34-.5,28.99-.06,6.31.28,10.43-1.99,14.48-6.74,37.65-44.1,75.52-88.01,113.34-131.96,2.57-2.99,5.26-5.87,8.76-9.77,3.39,3.14,6.31,5.63,9,8.35,42.98,43.73,86.04,87.4,128.76,131.38,5.61,5.77,11.19,8.59,19.19,7.84,6.53-.62,13.17-.13,20.91-.13,1.15,51.76,2.28,102.54,3.43,154.35,11.53.18,22.1.34,32.67.51q15.97.25,17.44,15.95c.16,1.66.34,3.32.68,4.95.2.94.77,1.79,1.46,3.34,8.53.89,17.32,1.8,25.89,2.69,1.22,18.49,5.78,35.71,1.69,54.45-10.95,1.13-22.17.13-33.32.18-11.33.05-22.66-.18-33.99-.29-11-.11-21.99-.26-32.99-.31-11.28-.05-22.56-.01-34.36-.01v32.1c84.61,1.62,168.41,3.23,252.91,4.85v23.99c-251.22-3.64-501.54-7.72-751.44-11.42Z"/>
  <path class="st0" d="M1759.76,826.36c4.56,4.45,7.43,7.14,10.19,9.95,42.97,43.76,86,87.45,128.78,131.39,5.05,5.19,10.06,7.99,17.42,7.34,6.88-.6,13.86-.13,22.22-.13,1.18,51.78,2.34,102.57,3.52,154.43,7.92.19,15.13.39,22.34.51,6,.11,12,.03,18,.2,7.91.22,8.98,1.33,9.59,9.36.3,3.98.53,7.97.87,11.95.05.61.54,1.19,1.25,2.65,8.02.84,16.54,1.74,26.39,2.78.47,17.95,6.01,35.53,1.06,54.77-44.45,1-89.24-1.8-134.38-1.1v32.47c84.58,1.6,168.41,3.19,252.96,4.79v22.32c-8.56,2.43-744.02-8.96-751.37-11.18,1.12-8.1,2.21-15.98,3.48-25.21,60.94,1.09,121.78,2.17,183.8,3.28.66-10.22.25-19.94.21-30.94h-103.9c-.64-3-1.42-4.86-1.36-6.7.33-10.66.74-21.32,1.35-31.96.43-7.48,2.12-9.09,9.92-9.2,12.61-.17,25.23-.05,39.15-.05.35-8.07.63-14.93.96-21.79.47-10.15,1.89-11.64,11.84-11.57,11.66.08,23.33.43,34.99.63,3.25.06,6.5,0,10.54,0,2.92-49.97,3.22-99.11,6.09-148.7,4.68-.25,7.94-.54,11.19-.57,9-.09,18.02-.45,26.99.05,6.31.35,10.41-1.86,14.48-6.64,32.41-38.06,65.09-75.9,97.69-113.8,6.08-7.07,12.24-14.09,18.23-21.24,1.91-2.28,3.39-4.93,5.51-8.09Z"/>
  <path class="st0" d="M1392.56,267.43c-3.96-8.8,1.26-17.95-6.09-24.78,2.01-.89,3.17-1.85,4.34-1.86,249.18-3.88,498.37-7.69,748.79-11.52.38,8.18.72,15.59,1.11,24.02-84.71,1.62-168.73,3.23-253.62,4.86v31.84h135.28c-.57,11.05,4.07,21.32-.7,31.92-1.38,3.06-.18,7.24-.32,10.9-.14,3.56-.47,7.11-.77,11.45-9.27.92-17.8,1.77-27.46,2.73-.44,4.87-.92,9.69-1.3,14.53-.64,8-1.64,9.27-9.58,9.4-12.96.21-25.92.06-40.33.06-1.19,52-2.34,102.78-3.52,154.63-6.28.16-11.88.93-17.33.32-10.45-1.16-17.81,2.54-25.21,10.22-41.86,43.42-84.31,86.26-126.58,129.29-2.5,2.55-5.16,4.94-8.44,8.06-3.07-3.3-5.59-5.84-7.92-8.55-37.82-43.95-75.73-87.82-113.28-131.99-5.06-5.95-10.29-8.49-17.94-8.02-8.3.51-16.65.1-24.98-.04-3.26-.06-6.51-.47-10.97-.81-3.01-49.28-3.22-98.13-6.08-147.58-3.25-.24-6.13-.63-9-.62-12.66.03-25.33.3-37.99.23-8.42-.04-9.88-1.53-10.38-9.8-.44-7.23-.7-14.46-1.11-23.07-9.18,0-17.44.06-25.69-.02-5.33-.05-10.66-.28-15.99-.48-4.32-.16-6.99-2.47-7.19-6.75-.61-12.9-.99-25.81-1.49-39.73,35.34-.5,69.78-.99,104.79-1.49v-30.78c-61.1,1.14-121.89,2.28-183.04,3.42Z"/>
  <path class="st0" d="M2862.26,1208.34v32.47c84.62,1.61,168.68,3.21,253.11,4.82v21.6c-.84.88-1.05,1.14-1.3,1.36-.24.21-.52.55-.78.55-8.64.11-17.29.38-25.93.24-240.94-3.85-481.87-7.73-722.81-11.65-.54,0-1.07-.66-.92-.56,1.23-8.25,2.4-16.1,3.78-25.36,60.91-.01,121.98,2.77,183.63,2.69v-30.58h-103.67c-.56-3.36-1.29-5.53-1.22-7.68.34-10.32.77-20.65,1.44-30.96.51-7.88,1.79-9.04,9.81-9.25,10.66-.28,21.33-.29,31.99-.49,1.95-.04,3.89-.42,6.76-.76.54-7.75,1.03-15.31,1.61-22.86.57-7.55,2.15-9.28,9.86-9.31,11.33-.04,22.66.36,33.99.54,3.97.06,7.94.01,13.06.01.37-3.6.87-6.76.99-9.93,1.52-42.3,2.97-84.6,4.49-126.9.13-3.58.66-7.14,1.06-11.25,3.2-.42,5.73-1.01,8.26-1.04,10-.14,20.01-.39,29.99-.01,5.86.22,9.89-1.68,13.7-6.19,17.4-20.64,35.12-41.01,52.72-61.48,20.86-24.26,41.72-48.52,62.6-72.77,2.14-2.49,4.43-4.84,7.41-8.08,3.05,2.8,5.75,5.08,8.22,7.58,43.22,43.98,86.49,87.91,129.5,132.09,5.29,5.43,10.55,8.41,18.27,7.71,6.85-.62,13.8-.13,21.77-.13,1.14,52.06,2.26,102.85,3.4,154.75,12.29.14,23.52.28,34.74.39q14.24.14,15.41,13.81c.26,2.97.69,5.92,1.17,9.91,8.74,1.04,17.51,2.09,26.88,3.2.41,2.79.92,5.32,1.11,7.86.5,6.84-1.05,13.77,2.49,20.49,1.33,2.52-.08,6.5-.29,9.82-.31,4.97-.66,9.94-1.07,16.08-8.85,1.47-17.76.47-26.58.52-9,.05-18-.17-26.99-.33-9-.16-17.99-.41-26.99-.57-9-.15-18-.28-26.99-.34-8.94-.06-17.88-.01-27.68-.01Z"/>
  <path class="st0" d="M3541.23,1236.22v-29.89c-11.39-.98-22.93-.52-34.42-.78-11.33-.25-22.66-.41-33.99-.49-11.63-.08-23.26-.02-35.46-.02-.45-2.9-1.13-5.08-1.06-7.24.34-9.99.82-19.98,1.4-29.96.5-8.6,1.67-9.76,10.09-10.01,9.33-.27,18.66-.31,27.99-.5,3.25-.07,6.51-.28,10.59-.47.5-7.3,1.04-13.87,1.39-20.45.58-10.97,1.59-12.1,12.29-12.06,11.33.05,22.66.29,33.99.43,3.28.04,6.57,0,10.73,0,.4-3.56.91-6.4,1.02-9.26,1.51-41.96,2.94-83.93,4.47-125.89.15-4.23.83-8.45,1.34-13.38,4.03-.18,7.29-.43,10.55-.46,9-.08,18.02-.45,26.99.04,6.31.34,10.48-1.82,14.54-6.61,25.88-30.49,52.05-60.73,78.12-91.05,12.39-14.4,24.76-28.82,37.18-43.19,2.12-2.46,4.47-4.72,7.36-7.76,3.17,3.02,5.82,5.41,8.31,7.95,43.2,43.99,86.46,87.92,129.47,132.09,5.05,5.19,10.04,7.99,17.4,7.33,6.88-.61,13.85-.13,21.93-.13,2.32,51.7,2.17,102.51,3.79,154.25,6.01.28,11.2.62,16.39.74,8,.18,16,.12,23.99.34,8.02.22,8.84,1.1,9.59,9.34.42,4.58.78,9.17,1.24,14.53,9.08.9,17.6,1.74,26.59,2.63.55,2.48,1.33,4.64,1.47,6.84.49,7.52.59,14.87,2.39,22.48,1.81,7.67-.69,16.35-1.4,25.93-45.04-.57-89.54-1.13-135.24-1.7-.85,10.81-.32,20.91.36,32.31,42.48,1.98,84.68,1.73,126.82,2.77,41.86,1.03,83.72,1.61,126.1,2.4v21.74c-.79.73-1.03.96-1.28,1.17-.25.21-.49.54-.78.6-1.3.24-2.62.6-3.92.57-247.25-3.8-494.5-7.63-741.75-11.47-.99-.02-2.01-.11-2.96-.38-.59-.17-1.07-.72-.93-.62,1.16-8.28,2.25-16.12,3.52-25.21,61.07-.4,122.12,2.74,183.77,2.49Z"/>
  <path class="st0" d="M414.67,272.18c-1.32-9.28-2.4-16.9-3.68-25.89,2.73-.22,6.48-.72,10.23-.78,81.62-1.3,163.25-2.53,244.87-3.81,158.59-2.49,317.17-5,475.76-7.48,6.28-.1,12.57-.01,20.21-.01.4,7.91.77,15.28,1.19,23.82-84.78,1.63-168.82,3.24-253.72,4.86v32.69c44.8-.58,89.3-1.16,135.03-1.76.17,10.85,3.37,20.57.07,30.93-1.46,4.57-.72,9.86-.85,14.83-.25,9.61-.36,9.73-10.25,10.49-5.61.44-11.22,1-17.96,1.6-.51,5.14-1.04,9.96-1.44,14.8-.68,8.17-1.48,9.18-9.64,9.29-12.94.16-25.88.04-40.17.04-1.16,51.92-2.3,102.71-3.46,154.78-7.72.08-14.63.62-21.46.09-7.62-.59-12.99,2.01-18.35,7.52-42.73,43.96-85.77,87.63-128.74,131.36-2.74,2.79-5.64,5.42-9.06,8.68-3.11-3.35-5.65-5.9-7.99-8.62-38.04-44.19-76.13-88.35-113.98-132.7-4.24-4.97-8.49-7.57-15.23-7.22-10.3.52-20.65-.05-30.98.09-5.04.07-7.29-2.08-7.43-7.07-.23-7.99-.77-15.98-1.06-23.97-1.3-35.63-2.56-71.26-3.86-106.89-.12-3.3-.4-6.59-.66-10.78-3.22-.23-6.09-.65-8.95-.62-12.33.13-24.65.5-36.98.56-9.42.04-10.81-1.4-11.45-10.95-.46-6.9-.8-13.81-1.27-22.13-8.61,0-16.51.03-24.41,0-5.33-.03-10.66-.22-15.99-.2-5.34.02-8.24-2.73-8.32-7.85-.19-12.6-.06-25.2-.06-39.09,33.97-.42,68.37-.85,103.38-1.28v-30.66c-61.17,1.11-121.96,2.2-183.34,3.31Z"/>
  <path class="st0" d="M3357.7,266.71c-3.61-8.39,1.82-17.39-6.95-24.95,5.08-.68,8.44-1.47,11.82-1.53,46.31-.78,92.62-1.46,138.93-2.16,196.91-2.98,393.81-5.97,590.71-8.94,3.95-.06,7.89,0,12.85,0v23.85c-83.56,1.58-167.36,3.17-252.31,4.79-1.12,10.67-.83,20.8-.83,32.42,45.33-.08,90.08-.75,136.16-1.53-1.31,11.62,4.18,21.74-1.04,32.32-1.47,2.97-.33,7.22-.45,10.88-.12,3.6-.31,7.2-.52,11.84-9.27,1.05-18.04,2.05-27.56,3.13-.46,5.22-.83,10.12-1.33,15-.77,7.44-1.72,8.44-9.24,8.66-11.66.34-23.32.43-34.98.7-1.59.04-3.17.5-5.75.94-1.12,50.82-2.23,101.34-3.34,151.91-6.86,3.29-13.64,1.92-20.07,1.58-8.63-.45-14.76,2.23-20.9,8.57-42.43,43.8-85.28,87.18-128.01,130.69-2.52,2.56-5.16,5.01-8.53,8.27-3.2-3.41-5.97-6.13-8.49-9.07-37.61-43.68-75.31-87.3-112.64-131.22-5.27-6.2-10.68-8.88-18.76-8.43-11.24.63-22.54.16-34.44.16-3.36-17.13-1.93-33.46-2.99-49.6-1.07-16.28-1.17-32.63-1.77-48.95-.59-16.27-1.27-32.53-1.93-49.49-2.96-.37-5.48-.96-7.99-.96-12.33.02-24.66.26-36.98.3-11.21.04-12-.81-12.59-11.67-.36-6.59-.85-13.17-1.34-20.79-11.62-.3-22.53-.62-33.45-.86-14.8-.32-14.99-.29-15.47-14.92-.34-10.22-.06-20.46-.06-31.7,34.23-.55,68.67-1.09,103.71-1.65v-30.51c-61.61.5-122.67,2.81-183.47,2.93Z"/>
  <path class="st0" d="M3115.17,227.26v23.93c-83.8,1.6-167.59,3.2-252.56,4.82-1.12,10.54-.78,20.68-.9,32.18,11.67.58,22.87-.03,34.04-.04,11.33,0,22.66-.17,33.99-.28,11-.11,21.99-.29,32.99-.35,11.26-.06,22.52-.01,35.1-.01-1.15,11.03,4.06,21.15-1,31.72-1.44,3.01-.38,7.22-.42,10.88-.04,3.6,0,7.2,0,11.83-9.75,1.07-18.53,2.03-28.05,3.07-.5,5.2-.95,10.09-1.45,14.98-.76,7.56-1.59,8.51-9.11,8.75-11.66.37-23.32.46-34.98.75-1.6.04-3.2.5-5.8.93-1.1,50.67-2.2,101.2-3.31,151.87-6.82,3.15-13.59,1.83-20.01,1.5-8.62-.45-14.76,2.21-20.9,8.55-42.43,43.8-85.29,87.19-128.02,130.7-2.52,2.56-5.13,5.03-8.49,8.3-3.03-3.15-5.6-5.59-7.9-8.27-37.4-43.43-74.98-86.72-111.95-130.52-6.31-7.48-12.68-10.49-22.16-9.86-10.56.71-21.2.16-32.5.16-3.1-17.25-1.89-33.57-2.98-49.7-1.1-16.28-1.2-32.63-1.77-48.95-.56-16.27-1.16-32.54-1.77-49.5-3.02-.36-5.53-.92-8.04-.92-12.33,0-24.66.22-36.99.26-11.31.03-11.94-.64-12.58-11.62-.33-5.65-.74-11.31-1.19-16.95-.07-.94-.51-1.86-1.02-3.65-10.75-.33-21.67-.66-32.58-1-3-.09-6-.11-8.99-.35-3.43-.27-5.76-2.21-5.97-5.62-.81-13.21-1.38-26.44-2.09-40.67,35.69-.55,70.14-1.08,105.22-1.62v-30.67c-61.5,1.12-122.56,2.24-183.64,3.36-1.28-9.19-2.37-17.01-3.58-25.66.95-.21,3.11-1.09,5.27-1.12,248.44-3.46,496.88-7.84,746.11-11.24Z"/>
  <path class="st0" d="M301.47,762.92c13.85-2.57,448.53-1.8,455.91.75v54.48h-47.99c0,10.11,0,18.99,0,27.87q-.01,14.43-14.1,14.45c-9.9,0-19.81,0-30.98,0,0,8.06,0,14.94,0,21.83,0,4,.03,8,0,11.99-.09,10.95-.23,11.11-11.24,11.19-12.32.09-24.65.12-36.97.21-.63,0-1.26.38-2.78.86-.27,2.13-.82,4.63-.85,7.14-.11,8.99.04,17.99-.08,26.99-.12,8.95-.58,9.37-9.82,9.48-7.66.1-15.33.02-22.99.02-3.26,0-6.52,0-10.75,0-.2,4.48-.5,8.02-.5,11.56-.04,36.98-.02,73.96-.03,110.94,0,2.33-.12,4.67,0,7,.26,5.16-2.3,7.15-7.25,7.1-10.33-.1-20.66,0-30.98,0-3.61,0-7.21,0-12.31,0,0,7.09.05,13.28-.01,19.46-.1,10.19-.36,10.47-10.87,10.55-9.99.08-19.99-.02-29.98.04-3.28.02-6.55.27-11.1.47,0,6.75,0,12.96,0,19.17,0,4,.03,8,0,11.99-.09,10.71-.3,10.95-11.44,11-11.95.06-23.9.01-36.91.01-.21,5.02-.5,9.21-.53,13.41-.08,10.33.12,20.66-.1,30.98-.15,7.25-.91,7.99-8.18,8.08-13.32.16-26.65.04-39.98.09-1.94,0-3.87.3-6.5.52v43.6c-2.78.66-4.92,1.6-7.07,1.62-16.3.09-32.59-.01-48.89-.03-3.27,0-4.93-1.73-5.14-4.84-.18-2.65-.18-5.33-.18-7.99,0-156.92-.01-313.84.01-470.76,0-3.6.36-7.21.58-11.24Z"/>
  <path class="st0" d="M2380.79,1161.69c0,5.5,0,10.41,0,15.32,0,8.67.05,17.33-.02,26-.08,10.71-.12,10.77-10.48,10.81-14.31.06-28.62.01-43.97.01v44.94c-4.45.36-7.96.93-11.45.86-10.33-.21-20.65-.69-30.98-1.03-2.66-.09-5.35-.24-7.99-.04-11.01.84-11.1.88-11.1-9.95-.03-61-.02-122-.03-183,0-96,0-192,.03-287.99,0-4.26.41-8.52.62-12.52,8.99-2.44,446.33-2.49,455.03-.26.51,17.81,1.02,35.63,1.57,54.92h-48.92v42.21h-44.72v43.73c-17.45,3.54-34.45-.24-52.08,2.53v42.68c-14.77,2.33-28.75.07-43.96,1.62-.21,22.66-.07,45.19-.1,67.71-.03,22.23,0,44.45,0,67.79h-49.9c-.44,10.44-.84,19.84-1.28,30.15h-51.14v42.21c-16.82,1.8-32.45.02-49.14,1.3Z"/>
  <path class="st0" d="M1283.86,765.02c13.79-2.16,447.98-1.6,456.31.54v54.59h-48.07c0,10.48,0,19.67,0,28.86q-.01,13.67-13.72,13.69c-9.92.01-19.84,0-30.92,0,0,7.72,0,14.29,0,20.86,0,4.66.07,9.33-.02,13.99-.17,9.41-.78,10.06-10.41,10.12-13.28.08-26.57.02-41.08.02-.13,4.85-.31,9.03-.35,13.22-.06,6.66.02,13.33-.02,19.99-.07,11.12-.29,11.36-11,11.44-8,.06-15.99-.03-23.99.04-2.6.02-5.19.32-9.13.59,0,3.98,0,7.51,0,11.05,0,36.98,0,73.97,0,110.95,0,2.33-.07,4.67-.02,7,.11,5.03-2.34,7.21-7.33,7.16-10.33-.1-20.66,0-30.98,0-3.88,0-7.75,0-12.68,0v28.83c-17.32,2.77-33.96-.08-51.64,1.91-.24,13.47-.47,26.88-.73,41.39h-47.56c-1.63,17.78.33,34.67-1.32,52.45h-54.13v45.73c-20.27,1.61-39.72-1.1-60.33.24-.31-4.5-.85-8.65-.85-12.8-.05-95.95-.04-191.91-.04-287.86,0-60.64,0-121.28,0-181.91,0-3.9,0-7.8,0-12.08Z"/>
  <path class="st0" d="M2177.56,242.38h59.64c.22,4.29.6,8.15.6,12.01.03,157,.03,313.99.02,470.99,0,2-.05,4-.03,6,.05,4.03-1.77,6.27-5.94,6.31-2.33.02-4.67.05-7,.05-143.33,0-286.65,0-429.98,0h-12.63v-55.98h47.61v-41.28c15.2-2.72,29.54.02,44.97-1.99v-43.98h52.06v-45.03h44.04v-135.62c17.08-2.71,33.41.13,50.72-1.95v-28.97h51.86v-42.18c16.46-1.36,32.01,0,47.93-.93,2.17-17.26-.68-34.22,1.74-51.93h54.39v-45.52Z"/>
  <path class="st0" d="M3218.38,731.33h-454.91v-54.16c14.83-2.89,30.8-.24,47.77-2.13v-40.72c15.27-1.57,29.51,0,44.95-1.15,0-10.42,0-20.29,0-30.15-.01-14.62-1.29-14.64,14.87-14.53,11.91.08,23.83.02,37.03.02,0-7.95,0-14.84,0-21.74,0-4.66-.08-9.33.02-13.99.19-8.42.58-8.85,9.28-8.94,10.97-.11,21.94-.03,34.15-.03.24-4,.62-7.48.62-10.97.04-37.32.02-74.63.02-111.95,0-3.91,0-7.82,0-12.83,17.16-1.91,33.43.12,50.83-1.46v-29.15h50.79c.39-3.9.86-6.73.91-9.56.12-7.33,0-14.66.06-21.99.07-11.13.24-11.32,11.01-11.39,9-.06,17.99.03,26.99-.04,3.25-.02,6.49-.28,10.86-.49v-51.1c18.75-2.24,36.65.14,55.52-1.63v-44.45h58.9c.33,4.05.96,8.18.96,12.31.06,69.3.05,138.6.05,207.9,0,86.96,0,173.92-.03,260.88,0,4.24-.4,8.48-.65,13.44Z"/>
  <path class="st0" d="M3159.1,1253.16v-44.97h-53.88c-2.62-9.45-1.19-18.08-1.45-26.54-.25-8.26-.05-16.53-.05-25.52-3.76-.35-6.62-.83-9.48-.86-9.66-.1-19.32.02-28.99-.07-10.17-.09-10.39-.34-10.47-10.88-.06-7.33.04-14.66-.05-21.99-.04-2.9-.4-5.79-.69-9.75h-50.67v-29.34c-17.4-1.72-33.64.29-50.97-1.44-.43-22.89-.14-45.1-.2-67.3-.05-22.28-.01-44.57-.01-68.17h-43.32c-1.71-15.25-.03-29.5-1.24-44.95-16.88-.1-33.31-.21-50.5-.31-2.13-15.22.11-29.5-1.59-44.6h-43.08c-2.16-14.24.09-27.87-1.56-41.93-16.36-.41-32.15-.81-47.61-1.19v-53.58c7.81-2.29,442.1-2.88,453.89-.86,2.66,8.26,2.67,485.69-.17,494.25h-57.91Z"/>
  <path class="st0" d="M3702.57,759.58v54.61h-48.17c0,7.52,0,13.75,0,19.97,0,4,.04,8-.01,12-.13,9.94-.39,10.25-10,10.37-8,.1-16,.02-24,.02-3.23,0-6.46,0-10.64,0,0,12.27.05,23.21-.02,34.15-.06,10.29-.55,10.81-10.65,10.87-13.27.08-26.54.02-41.23.02,0,10.1,0,19.3,0,28.5,0,17.41,1.31,16.15-16.24,16.16-8.9,0-17.81,0-27.86,0,0,4.8,0,8.36,0,11.93,0,36.66,0,73.33,0,109.99,0,2.33.09,4.67-.04,7-.37,6.48-1.16,7.49-7.73,7.64-10.33.23-20.66.08-30.99.09-3.58,0-7.17,0-12.19,0,0,7.24.06,13.46-.01,19.67-.12,9.89-.41,10.25-10.04,10.32-13.31.1-26.63.03-41.32.03-.21,4.32-.5,8.14-.55,11.96-.09,7.66.13,15.34-.1,23-.2,6.56-1.09,7.5-7.68,7.64-10.66.23-21.33.04-31.99.12-2.59.02-5.18.4-8.99.72,0,9.28,0,18.18,0,27.07,0,5.67.15,11.34-.05,17-.23,6.76-.85,7.49-7.55,7.6-11.66.19-23.33.06-34.99.07-3.64,0-7.29,0-11.34,0-.57,2.3-1.41,4.13-1.42,5.96-.07,10.99-.36,22,.28,32.96.29,4.94-1.05,6.88-5.71,6.92-2.67.02-5.33-.01-8-.02-13.64-.05-27.29-.21-40.93-.09-4.24.04-6.19-1.69-6.24-5.81-.03-2.33-.05-4.67-.05-7,0-156.98,0-313.97.02-470.95,0-3.58.33-7.15.5-10.42,8.99-2.65,446.41-2.74,455.93-.06Z"/>
  <path class="st0" d="M3247.17,730.58c-.25-4.24-.75-8.77-.75-13.3-.04-150-.03-299.99-.03-449.99,0-7.67-.12-15.34.04-23,.15-7.54.82-7.71,7.92-7.65,13.32.1,26.64-.26,39.97-.4,3.56-.04,7.12,0,11.95,0v45.7c9.16,0,17.06,0,24.97,0,7.33,0,14.67-.1,22,.03,8,.15,8.57.66,8.67,8.53.15,11.33,0,22.67.07,34,.02,2.92.32,5.83.54,9.66,15.96.26,31.41.51,47.99.78v42.04c17.59.12,34.04.22,51.87.34v29.91c4.98,0,8.55,0,12.11,0,10.67.01,21.33.08,32,.02,4.49-.03,6.87,1.89,6.84,6.51-.01,2.67.05,5.33.05,8,0,36.67,0,73.33,0,110,0,3.58,0,7.16,0,12.09h43.62v43.78c3.91.36,6.76.83,9.6.85,11.67.09,23.33-.09,35,.11,6.61.11,7.52,1.05,7.7,7.59.23,8.33.07,16.66.07,25,0,3.62,0,7.25,0,12.33h44.43v41.78c17.05.41,32.84.8,48.47,1.18v53.46c-7.72,2.51-442.84,3.11-455.11.67Z"/>
  <path class="st0" d="M3935,543.63c.08-46,.16-90.77.25-136.66h50.35v-29.86c17.68-1.26,34.26-.08,51.88-.84v-40.85c8.74-2.32,16.71-1.05,24.52-1.27,7.6-.21,15.22-.05,24.21-.05.07-17.52.14-34.29.22-52.13h55.31c.07-8.26.15-15.43.18-22.59.03-7.28,0-14.55,0-23.17,19.95-.85,39.07.58,59.33.11.23,4.51.64,8.69.64,12.87.03,116.3.03,232.61.03,348.91,0,39.99,0,79.98,0,119.97,0,2.67-.01,5.33-.06,8-.07,3.68-2.11,5.41-5.66,5.53-2.33.08-4.66.07-7,.07-143.63,0-287.25,0-430.88-.03-3.86,0-7.72-.46-12.22-.74v-55.06h47.71v-41.78c15.27-1.99,29.54-.06,44.53-1.33.28-3.08.72-5.93.75-8.78.1-8.33-.02-16.66.05-24.99.09-10.71.13-10.76,10.47-10.83,10-.06,19.99-.02,29.99-.02,3.26,0,6.52,0,11.25,0v-44.48h44.15Z"/>
  <path class="st0" d="M2122.2,1160.37h-48.23v-41.9h-51.71v-29.99h-50.71c-1.21-16.12-.48-31.02-.61-45.88-.13-14.99-.03-29.99-.04-44.98,0-14.9,0-29.8,0-45.84-10.07,0-18.97,0-27.88,0-2.67,0-5.33.08-8-.03-7.26-.28-8.09-.93-8.26-8.05-.21-8.99-.03-17.99-.09-26.99-.02-2.94-.29-5.88-.49-9.89h-49.91c-3.03-14.98-.05-29.33-2.11-44.63-6.48-.08-13.01-.2-19.53-.25-6-.05-12-.11-17.99-.01-4.61.08-6.64-2.02-6.6-6.62.09-9.66.02-19.32-.03-28.99,0-1.63-.25-3.26-.47-6.02-15.89-.42-31.67-.83-47.69-1.25v-52.98c.84-.77,1.08-1.01,1.34-1.22.25-.21.48-.53.77-.59,1.3-.27,2.61-.65,3.91-.65,147.59-.04,295.19-.04,442.78-.03,1.32,0,2.65.19,3.94.45.61.12,1.14.6,2.65,1.45.17,2.65.55,5.87.55,9.1.03,157.93.03,315.85.03,473.78,0,2-.04,4-.08,5.99-.07,3.29-1.89,4.8-5.06,4.81-15.96.06-31.92.14-47.87.11-1.92,0-3.83-.62-6.6-1.09v-43.67c-3.66-.34-6.5-.81-9.33-.83-12.66-.09-25.32.07-37.98-.09-7.78-.1-8.55-.89-8.65-8.66-.14-10.99-.04-21.99-.04-32.98,0-3.29,0-6.58,0-11.59Z"/>
  <path class="st0" d="M1400.26,340.92h47.95v42.43h51.74v29.86h49.9c.4,4.89.99,8.72.99,12.55.07,36.99.04,73.97.04,110.96,0,3.94,0,7.87,0,13.05h43.9v44.53c17.89.26,34.34.49,52.1.75v44.69h43.91c2.3,13.95.12,27.27,1.62,41.61,15.74.4,31.5.79,47.55,1.2v54.73c-4.62.29-8.77.77-12.92.77-103.29.04-206.59.03-309.88.04-39.98,0-79.97,0-119.95,0-2.66,0-5.33-.02-7.99-.12-3.17-.12-4.9-1.79-5.01-5-.08-2.33-.12-4.66-.12-6.99,0-157.28,0-314.55,0-471.83,0-2,.01-4,.03-6,.04-4.08,1.75-5.78,6.16-5.72,13.97.2,27.94-.03,41.91-.09,3.55-.01,7.1,0,11.54,0v44.85c3.68.32,6.52.77,9.37.79,12.66.08,25.32-.06,37.98.09,7.79.09,8.46.79,8.57,8.69.15,10.99,0,21.99.07,32.99.02,3.25.31,6.5.55,11.18Z"/>
  <path class="st0" d="M2266.77,242.44h58.25v45.07h55.08v52.65c12,0,22.54-.04,33.09,0,16.93.08,16.42-2.08,16.35,16.01-.03,8.28,0,16.57,0,25.64,3.53.3,6.39.73,9.25.75,11.66.09,23.33-.1,34.98.12,6.52.12,7.44,1.14,7.64,7.69.21,6.93.05,13.88.05,22.13,16.9.13,33,.24,50.43.37v136.78h43.79v43.45c3.47.43,5.98.97,8.49,1,8.66.11,17.33,0,25.99.06,20.33.14,17.66-2.25,17.85,18.36.08,8.3.01,16.61.01,26.35h43.53c2.64,14.36.08,27.69,1.87,42.08,15.8.4,31.55.8,47.83,1.22,0,6.31.05,11.86-.01,17.4-.11,10.64-.64,21.3-.27,31.92.16,4.58-1.42,6.1-5.45,6.2-2.33.06-4.66.04-7,.04-143.27,0-286.53,0-429.8,0h-11.28c-2.55-8.7-2.98-484.14-.65-495.3Z"/>
  <path class="st0" d="M417.22,338.4c13.47,0,25.77-.06,38.07.02,9.74.07,10.18.51,10.26,10.12.09,10.27.02,20.53.02,31.37,3.39.42,5.92.97,8.45,1,11,.1,21.99-.01,32.99.08,10.19.08,10.37.34,10.5,10.91.06,5.33.12,10.66.25,15.99.01.62.46,1.23,1.26,3.19,2.69,0,5.92,0,9.15,0,9.66,0,19.33-.05,28.99.02,10.75.08,10.76.13,10.88,10.42.03,2.33,0,4.67,0,7,0,35.66,0,71.31,0,106.97,0,3.59,0,7.18,0,12.12h43.81v44.8c7.02,0,12.59,0,18.15,0,9,0,18,.1,26.99,0,5.09-.06,7.17,2.26,7.07,7.29-.16,8.33-.03,16.66-.03,24.99,0,3.64,0,7.28,0,12.4h43.35c3.3,14.59-.31,28.35,2.71,42.89h47v53.06c-.83.98-1.03,1.24-1.26,1.48-.23.24-.45.61-.72.67-1.29.27-2.61.64-3.91.64-147.95.02-295.91.01-443.86-.03-1.29,0-2.57-.42-5-.85-.32-4.09-.93-8.24-.94-12.38-.06-76.64-.04-153.29-.04-229.93,0-79.64-.01-159.29.03-238.93,0-4.2.46-8.4.72-12.83h59.13v44.71h54.36c2.25,17.85-.14,34.77,1.62,52.81Z"/>
  <path class="st0" d="M3890.86,900.74h-50.85c-1.97-15.06-.04-29.34-1.41-44.85-9.21,0-18.06.04-26.9,0-19.74-.12-17.39,2.05-17.53-17.71-.05-7.62,0-15.23,0-23.9-16.5-.45-32.28-.87-48.12-1.3v-52.81c.87-.93,1.09-1.19,1.34-1.41.24-.21.51-.48.8-.54,1.3-.26,2.61-.65,3.91-.65,147.98-.02,295.96-.02,443.94.01,1.3,0,2.59.44,5.18.9.24,3.69.69,7.51.69,11.33.05,56.33.04,112.65.04,168.98,0,100.32,0,200.64,0,300.96,0,1,0,2,0,3-.08,10.08-.08,9.69-10.52,9.6-12.66-.12-25.32.55-37.98.75-3.54.06-7.09-.35-11.48-.59v-44.92c-5.07,0-9.29,0-13.5,0-11.33,0-22.67.13-33.99-.06-7.12-.12-7.96-1-8.07-8.26-.17-11-.05-22-.06-33,0-3.3,0-6.6,0-11.26-15.99-1.04-31.52.19-47.7-.79-1.95-13.86.05-27.17-1.38-41.67-16.44-.98-32.98.15-50.11-.7-2.83-9.45-.18-18.89-2-29.11-15.83-1.72-32.07.41-49.08-1.29-.32-4.21-.87-8.05-.88-11.9-.07-37.33-.05-74.66-.05-111.99,0-3.59,0-7.18,0-11.85-10.09,0-19,0-27.91,0-2.67,0-5.34.07-8-.03-7.26-.28-8.09-.92-8.27-8.05-.22-8.66-.06-17.33-.06-26,0-3.26,0-6.52,0-10.92Z"/>
  <path class="st0" d="M1256.55,765.38c0,164.71,0,329.1,0,493.56h-59.85v-44.69h-54.61c-1.65-17.84.07-34.72-1.15-52.86-5.79,0-11,0-16.2,0-7,0-13.99.04-20.99-.01-11.14-.08-11.33-.24-11.39-11.01-.05-9.96-.01-19.93-.01-30.78-3.49-.32-6.33-.77-9.18-.79-11.66-.1-23.33.09-34.98-.13-6.65-.12-7.39-1.03-7.72-7.59-.18-3.66-.05-7.33-.05-10.99,0-3.29,0-6.58,0-11.18-16.86-.16-32.96-.31-50.14-.47v-136h-43.66c-1.72-15.23-.03-29.48-1.24-44.96h-50.5c-2-15.44-.1-29.7-1.39-44.81h-43.18c-2.67-14.18-.04-27.85-1.85-42.04-16.16-.4-31.92-.8-47.53-1.19v-53.49c7.57-2.42,441.63-3.08,455.65-.57Z"/>
  <path class="st0" d="M1256.55,737.44h-455.41v-55.12h47.77v-41.87c15.28-1.61,29.53-.03,44.85-1.15v-44.26h52.1v-44.95h43.91v-136.06c17.08-1.52,33.3.07,50.64-1.08,0-6.83-.06-13.05.01-19.27.12-9.85.47-10.27,10.04-10.35,11.66-.1,23.32,0,34.99-.08,1.93-.01,3.86-.46,6.9-.84,0-8.85,0-17.42,0-25.99,0-2.67-.1-5.34.04-8,.34-6.62,1.04-7.54,7.61-7.69,9.66-.23,19.32-.07,28.99-.08,3.62,0,7.23,0,12.26,0,.1-17.64.19-34.41.29-52.38h54.69v-44.55c3.25-.58,5.7-1.4,8.15-1.39,9.66.05,19.32.43,28.98.57,6.94.1,13.89.02,22.07.02.36,2.55,1.05,5.32,1.08,8.1.13,11.99.06,23.99.06,35.98,0,145.62,0,291.23,0,436.85v13.61Z"/>
</svg>