<?xml version="1.0" encoding="UTF-8"?>
<svg id="Layer_0_xA0_Image" xmlns="http://www.w3.org/2000/svg" version="1.1" viewBox="0 0 2732 2048">
  <!-- Generator: Adobe Illustrator 30.2.1, SVG Export Plug-In . SVG Version: 2.1.1 Build 1)  -->
  <defs>
    <style>
      .st0 {
        fill: #67a3c1;
      }
    </style>
  </defs>
  <path class="st0" d="M1940,619.97c-.76-3.35,1.1-4.03,3.04-5.93,5.3-5.21,60.06-45.64,63.98-46.04l137.72,24.53,69.21,96.48-106.21,25.95-167.74-94.99Z"/>
  <polygon class="st0" points="2250 1252 2149.06 1209.94 2070.94 1038.05 2070 1030 2151 1030 2250 1133 2250 1252"/>
  <polygon class="st0" points="736.47 559.53 717.03 417.73 786.99 322.01 843.96 415.06 805.58 602.58 801.21 605.84 736.47 559.53"/>
  <path class="st0" d="M1949.96,1725.99c-3.32,2.28-7.23-5.91-8.78-8.17-18.09-26.35-33.79-57.2-50.26-84.76l39.09-191.05,68.95,50.02,18.88,139.12-67.88,94.83Z"/>
  <polygon class="st0" points="1590.01 359.99 1616.91 279.91 1743.33 218.48 1855.96 257 1784.68 339.68 1590.01 359.99"/>
  <polygon class="st0" points="1537.51 1897.5 1424.02 1934 1431.98 1826.98 1577 1694.04 1603.99 1772.91 1537.51 1897.5"/>
  <path class="st0" d="M666,1018h-83l-99.04-101.41c.39-39.59-1.48-79.3,3.06-118.62l99.87,42.13,79.1,177.9Z"/>
  <polygon class="st0" points="796 1430.03 728.86 1479.95 589.48 1455.98 520 1358.02 626.5 1334.35 796 1430.03"/>
  <polygon class="st0" points="1311.99 116.01 1301.39 225.4 1156.02 356 1131.01 275.81 1197.05 152.05 1311.99 116.01"/>
  <path class="st0" d="M1143.99,1690.01l-24.51,79.48-125.47,59.65-8.06.04-105.95-35.2c-1.28-1.7,6.38-10.85,8.05-12.93,19.5-24.35,42.21-46.43,61.35-71.09l194.59-19.95Z"/>
  <path class="st0" d="M829,1026l138.56,116.42c1.24,36.92,6.22,73.73,8.51,110.55.24,3.9,1.62,7.32-3.08,7.08-8.31-.42-52.36-13.26-60.99-17.04-2.28-1-4.45-1.92-6.05-3.95l-116.38-205.62-1.57-7.43h41Z"/>
  <path class="st0" d="M1863.99,429.97l-66.2,31.05-218.99-54.83c-2.2-.84-3.35,1.19-2.79-3.13,1.04-8.17,11.29-21.29,12.47-30.56l3.37-1.58c48.98-5.12,98.12-12.78,147.17-16.9,11.92-1,33.35-4.92,42.89,1.07,19.67,19.12,41.59,35.76,62.12,53.88,3.37,2.97,21.88,18.35,19.97,21Z"/>
  <path class="st0" d="M714.01,1018.01c-7.69-.93-34.17-.33-38.13-4.88l-74.94-168.91,46.07-108.17,50.48,51.48,16.53,230.48Z"/>
  <polygon class="st0" points="2119.99 833.99 2046.85 822.15 1902.96 649.99 1902.93 643.97 1932.1 626.88 2092.13 718.87 2095.48 723.52 2119.99 833.99"/>
  <path class="st0" d="M1166.61,360.57l134.8-120.16c31.87-.07,63.86,4.48,95.61,7.58,4.58.45,20.01-1.83,20.98,3.07l-33.42,64.53-209.68,84.44c-2.85.27-3.43-1.31-4.48-3.45-2.01-4.08-6.72-26.74-6.03-31.14l2.22-4.86Z"/>
  <path class="st0" d="M1569.4,1687.41l-137.32,121.75-116.07-9.17,34.51-66.63,210.51-85.07c3.23.24,12.75,33.92,8.37,39.12Z"/>
  <path class="st0" d="M1893,1414.03l26.02,21.98,1.09,4.86-37.6,178.63-99.51,62.45c-3.05-.02-5.92-22.95-6.66-27.29-1.76-10.29-7.56-38.73-5.41-46.72l122.08-193.91Z"/>
  <polygon class="st0" points="1543.99 472.01 1529.87 512.87 1378.75 607.54 1264.01 579.99 1304.49 519.35 1543.99 472.01"/>
  <polygon class="st0" points="1713.99 1324.01 1714.96 1395.96 1548.02 1576 1536.83 1533.91 1603.1 1370.1 1713.99 1324.01"/>
  <path class="st0" d="M953.98,368l11.15,72.08c-39.19,58.66-72.95,121.25-112.3,179.75-2.01,2.99-8.11,14.48-11.5,13.97-6.78-5.62-26.17-18.38-26.38-26.8l38.44-178.45,100.59-60.56Z"/>
  <path class="st0" d="M1839.99,1361.99c-2.76,2.85-31.22-19.79-35.61-23.37l-43.61-173.65,62.23-100.93,44.45,57.19-27.46,240.77Z"/>
  <path class="st0" d="M614,1216.02l73.88,11.1,144.24,171.81c1.92,1.71,2.29,2.74,1.02,5.1-1.41,2.63-28.09,19.19-33.13,17.13l-156.12-90.05-4.92-9.08-24.96-106.02Z"/>
  <path class="st0" d="M1836,680.02l-36.88,26.09-175.7-12.52c-4.07-1.21-48.65-54.53-55.36-62.64-6.05-7.31-15.01-16.69-20.08-23.92-1.19-1.7-2.77-2-1.96-5.01l66.67-23.58,223.32,101.58Z"/>
  <path class="st0" d="M2089.97,1311.99c-3.01.82-3.32-.8-5-1.96-4.68-3.23-47.57-46.12-48.56-49.44l-14.42-228.6c12.37-.13,25.27-.56,37.05,3.97l74.55,167.51-43.62,108.52Z"/>
  <path class="st0" d="M1145.5,1677.48l-186.44,20.49-87.06-76.92c18.19-8.11,40.36-25.63,58.59-31.53,2.65-.86,4.91-2.18,7.83-1.13l217.61,54.6c5.99,4.22-8.96,28.01-10.53,34.5Z"/>
  <path class="st0" d="M929.44,708.54l44.38,176.55-52.98,86.74c-2.83,1.87-6.11,13.48-9.78,12.12-7.05-2.62-33.3-44.84-41.97-52.03l-1.25-8.93,28.18-236.99,33.42,22.54Z"/>
  <path class="st0" d="M900,1369.98c-.71-3.05.44-3.21,2.12-4.87,7.8-7.72,23.96-15.03,32.73-22.96l177.73,14.27,75.43,88.53c-1.12,1.75-2.89,2.47-4.6,3.45-6.98,3.99-49.48,19.93-56.92,21.21-2.38.41-4.61.84-6.99.01l-219.5-99.65Z"/>
  <polygon class="st0" points="1948 1022 1905 1022 1768.49 907.52 1758.78 792.14 1760.97 788.06 1828.04 808.96 1948 1022"/>
  <polygon class="st0" points="1190 1577.98 1204.91 1535.91 1355.52 1442.36 1470.01 1471.04 1430.55 1529.55 1190 1577.98"/>
  <polygon class="st0" points="1022.01 724.01 1018.94 654.05 1185 474.04 1199.02 514.13 1130.9 679.9 1022.01 724.01"/>
  <polygon class="st0" points="396 1028.02 559.11 1025.89 565.1 1027.9 615.51 1089.24 603.06 1200.06 598.66 1200.38 396 1028.02"/>
  <polygon class="st0" points="1774 1698.02 1670.02 1948 1618.36 1785.52 1661.38 1720.38 1774 1698.02"/>
  <path class="st0" d="M642.01,717.99l-64.01-261.98c1.39-1.43,12.38,6.83,14.63,8.35,35.7,24.2,75.31,52.27,109.15,78.85,5.54,4.35,14.17,8.98,15.79,16.21l3.45,74.43c-23.07,24.88-44.57,51.69-68,76.17-1.7,1.77-8.83,10.03-11.01,7.97Z"/>
  <path class="st0" d="M1300,1806.02l-229.99,143.96c11.67-38.39,23.25-76.96,35.95-115.03,2.81-8.43,12.85-43.14,17.25-46.75l71.74-28.01,105.04,45.82Z"/>
  <polygon class="st0" points="2152 450.02 2020.73 547.71 2013.05 550.05 1938.9 530.1 1882.01 430.01 2152 450.02"/>
  <polygon class="st0" points="1065.98 102 1117.03 262.21 1073.93 328.93 962.01 351.99 1065.98 102"/>
  <path class="st0" d="M2155.99,1591.99c-1.71,1.76-36.24-23.28-40.62-26.36-32.85-23.1-64.54-48.01-97.41-71.04l-2.87-80.5,75.92-84.08,64.98,261.98Z"/>
  <path class="st0" d="M1663.99,100.01c-11.45,41.3-24.33,82.4-37.95,123.03-2.68,8.01-10.01,35.08-15.27,38.73l-71.8,27.42-102.97-45.22c-2.54-3.51,7.82-9.18,10.17-10.8,61.46-42.51,135.33-85.25,199.99-124.01,2.59-1.55,16.45-10.61,17.82-9.16Z"/>
  <polygon class="st0" points="851.99 1617.99 584.01 1597.02 720.6 1498.49 797.07 1519.93 851.99 1617.99"/>
  <path class="st0" d="M2340,1022h-172c-13.32-22.39-34.58-40.5-47.95-63.14l11.97-112.86,207.98,176Z"/>
  <path class="st0" d="M1884,1016h-195l-44.95-89.01,4.94-3c41.2-.51,83.37-7.92,124.12-4.1l110.89,96.11Z"/>
  <polygon class="st0" points="1375.99 1318.01 1344.89 1439.89 1216.01 1517.99 1276.96 1331.96 1375.99 1318.01"/>
  <polygon class="st0" points="956 1335.98 1113.5 1220.29 1201.96 1269 1104.53 1347.7 956 1335.98"/>
  <polygon class="st0" points="1457.57 717.59 1358.01 729.99 1388.98 611.98 1393.29 606.29 1517.98 530 1457.57 717.59"/>
  <path class="st0" d="M1549.98,1258l43.56,116.66c-21.07,42.12-33.99,93.2-55.36,134.49-1.07,2.06,1.06,3.79-4.16,2.85l-58.05-184.95,66.93-67.15,7.08-1.91Z"/>
  <path class="st0" d="M1186.03,792l-44.15-116.99c18.37-45.86,36.15-92.45,57.12-136.96l60.6,184.69-73.58,69.27Z"/>
  <path class="st0" d="M1085.99,942c-1.43,1.49-26.42-15-29.82-17.17-25.91-16.57-51.77-33.45-77.08-50.92l-35.07-145.91,159.09,116-17.12,98Z"/>
  <path class="st0" d="M1789.98,1320l-157-113.98,18.06-98.02,103.83,66.14c12.99,48.24,25.44,96.88,35.11,145.87Z"/>
  <path class="st0" d="M1777.99,712.01l-155.51,115.64c-5.32,1.38-9.87-2.39-14.51-4.61-17.77-8.5-53.37-26.59-68.64-37.36-9.93-7.01-2.2-8.93,5.72-15.63,27.45-23.23,56.51-44.87,84.38-67.61l148.56,9.58Z"/>
  <path class="st0" d="M1047,1034l43,89.98c-35.92,3.51-72.64,5.23-108.98,6.04-5.86.13-12.44,4.81-18.14.09l-110.86-95.13c-.32-6.57,4.07-.97,4.98-.97h190Z"/>
  <polygon class="st0" points="2277.97 1507.99 2212.41 1368.52 2252.02 1262 2257.67 1265.33 2321.99 1363.09 2277.97 1507.99"/>
  <polygon class="st0" points="1945.99 1738.01 1940.11 1860.6 1820.02 1950 1849.12 1798.12 1945.99 1738.01"/>
  <polygon class="st0" points="1415.99 1940.01 1338.59 2037.59 1188 2039.98 1301.41 1934.41 1415.99 1940.01"/>
  <polygon class="st0" points="512 1353.98 395.88 1311.12 346 1168.02 482.08 1242.92 512 1353.98"/>
  <path class="st0" d="M2387.98,882l-134.88-76.1c-12-36.6-20.25-74.43-29.08-111.9l113.96,43.02,50,144.98Z"/>
  <polygon class="st0" points="2108 309.98 1955.53 327.64 1868.04 255 1984.85 222 2101.83 303.17 2108 309.98"/>
  <polygon class="st0" points="867.98 1792.04 866.77 1796 749.41 1827.67 626.01 1740.02 780.58 1722.43 867.98 1792.04"/>
  <path class="st0" d="M1546,10.02l-113.42,105.58-114.58-7.62,77.41-95.57c50.21-1.48,100.22-3.34,150.58-2.39Z"/>
  <path class="st0" d="M788.01,311.99c4.03-40.86,2.78-82.42,6.44-123.57l121.54-90.42-30.16,152.81-97.81,61.17Z"/>
  <polygon class="st0" points="481.98 788 412.78 685.03 456.02 540 460.39 544.61 522.15 681.05 481.98 788"/>
  <polygon class="st0" points="1561.99 414.01 1552.62 435.62 1328.9 476.09 1322.84 474.16 1238 412.02 1561.99 414.01"/>
  <path class="st0" d="M902,606l263.01-189.95c2.47.14,9.62,21.53,5.12,25.05l-159.13,164.91h-109Z"/>
  <polygon class="st0" points="1622.01 454.01 1883.96 645 1863.88 657.04 1658.08 556.92 1622.01 454.01"/>
  <path class="st0" d="M1114,1595.98l-262-192.96c.31-1.21,18.5-13.25,21.99-10.19l201.96,98.21,38.05,104.93Z"/>
  <path class="st0" d="M824.02,1336l-98.02-307.98,20.62.36,8.21,9.79,102.8,193.33c.81,2.36.3,4.6-.03,6.96-2.09,15.11-15.62,50.38-21.07,67.07-.95,2.89-9.72,32.65-12.51,30.46Z"/>
  <polygon class="st0" points="2007.99 1021.99 1984.31 1019.68 1877.27 817.55 1876.86 811.93 1908.02 712 2007.99 1021.99"/>
  <path class="st0" d="M746.02,958l100.97-307.99c7.19,6.43,18.95,11.3,17.17,22.99l-30.64,219.52-87.5,65.48Z"/>
  <polygon class="st0" points="1989.98 1090 1887.02 1397.93 1869.99 1380.97 1901.32 1158.32 1904.97 1151.97 1989.98 1090"/>
  <path class="st0" d="M1831.99,1442.01l-263.96,189.99c-1.23-8.15-7.15-17.25-2.13-25.11l156.14-161.85,109.95-3.03Z"/>
  <path class="st0" d="M1495.99,1637.99l-324.01-3.01,7.9-19.57,225.16-41.61c7.03-.28,12.05,5.09,17.6,8.57,18.6,11.68,54.44,35.82,70,50,1.95,1.78,4.29,1.8,3.35,5.63Z"/>
  <path class="st0" d="M536,1020h-144l-30.63-92.47.84-7.34,2.73-.32c25.78.22,51.51-.81,77.03,3.15l91.05,90.95,2.99,6.01Z"/>
  <path class="st0" d="M1776,98c3.84,3.89-21.73,67.51-24.5,77.51l-120.48,60.51,43.98-138.02h101Z"/>
  <path class="st0" d="M1117.97,231.99l-4.16-2.8-41.6-133.84,82.6-59.29c2.16.64,2.57,3.07,3.34,4.79,4.8,10.59,11.04,35.27,14.38,47.62,1.88,6.96,6.23,17.59,5.42,24.35l-59.99,119.18Z"/>
  <path class="st0" d="M692,1508.02l-115.14,84.03-82.97-59.02c-.02-3.48,4-5.84,6.29-7.86,5.69-4.99,55.14-38.84,58.9-39.1l132.91,21.95Z"/>
  <polygon class="st0" points="1578.18 2011.81 1556.37 1937.46 1619.98 1816 1663.74 1952.8 1587.16 2010.15 1578.18 2011.81"/>
  <path class="st0" d="M2123.56,1697.52c-1.07,1.4-4.94,2.38-6.63.71l-59.82-46.34-21.1-133.88,115.07,81.99-27.53,97.52Z"/>
  <path class="st0" d="M2044.01,541.99l114.99-86.06,82.9,59.3c.61,2.91-4.11,5.89-6.08,7.61-16.16,14.08-39.54,25.87-56.86,39.12l-134.95-19.96Z"/>
  <path class="st0" d="M697.98,532l-115.07-84.05,29.12-97.93c2.89-.72,4.73.66,7.12,1.83,7.22,3.52,47.68,34.01,53.83,40.17,1.7,1.7,3.72,3,4.57,5.43l20.43,134.55Z"/>
  <path class="st0" d="M1106,1814.02l-44.28,135.7-103.66.17,24.44-75.39c37.88-16.33,78.01-44.68,116.09-58.91,2.49-.93,4.56-2.13,7.41-1.57Z"/>
  <path class="st0" d="M2198,1030h143l32.62,91.52c1.68,13.01-6.85,6.59-14.54,6.39-21.63-.56-43.48,1.49-65.04-.94l-96.04-96.96Z"/>
  <path class="st0" d="M594,1205.98c-11.03,1.76-24.49,8.88-35.16,4.17l-242.83-184.13c23.76.29,47.83-1.69,71.16,3.82l206.84,176.13Z"/>
  <path class="st0" d="M847.99,1624.01c1.47,1.26-12.36,17.44-13.95,19.03s-4.4,5.21-6.08,5.92c-6.47,2.73-42.99,1.32-53.04,1.12-44.23-.86-89.61-3.49-133.84-4.16-40.33-.62-81.03,2.1-121.08-1.94l55.29-39.41,272.7,19.44Z"/>
  <path class="st0" d="M1667.39,89.4l-226.26,140.74-7.12,1.86c1.68-9.69-.45-26.15,5.9-33.08l249.1-174.9-21.62,65.39Z"/>
  <path class="st0" d="M1044,2023.98l24.11-64.87,231.87-143.11c-.39,11.1,2.28,26.45-5.87,35.11-80.57,53.27-156.85,113.42-237.48,166.52-2.28,1.5-10.72,7.96-12.63,6.35Z"/>
  <path class="st0" d="M635.99,715.99c-1.37,1.27-30.14-9.71-31.58-15.4l-88.4-292.58,54.46,42.52,65.51,265.47Z"/>
  <path class="st0" d="M957.98,344c-2.45,1.81-19.2-23.76-17.6-28.49,29.04-83.33,56.42-167.26,85.59-250.54,3.6-10.28,7.7-24.77,11.96-34.04.91-1.98,1.22-4.69,4.06-4.92,4.55,22.83,16.72,45.26,17.59,68.5l-101.6,249.5Z"/>
  <path class="st0" d="M2220,1639.98l-55.59-41.39-64.4-264.58c1.59-1.65,29.47,8.56,30.43,14.55l89.56,291.42Z"/>
  <path class="st0" d="M1695.98,2023.99c-2.74.59-2.15-2.08-2.95-3.99-8.13-19.54-13.25-42.19-18.45-62.72l101.02-248.68,4.37-4.6c3.11,11.32,15.7,20.02,13.63,32.46l-97.63,287.52Z"/>
  <polygon class="st0" points="2418 1022 2351 1022 2142.97 846.03 2143.03 842.01 2170.97 835.99 2418 1022"/>
  <path class="st0" d="M2216,404.02c-17.14,15.45-37.99,31.04-58.95,40.03l-269.04-20.06c-1.65-1.51,15.42-21.85,18.03-22.95,1.76-.74,3.02-.9,4.86-1.14,34.36-4.59,84.53,1.72,120.02,2.19,61.7.81,123.41.6,185.08,1.94Z"/>
  <path class="st0" d="M1694,8l-2.06,6.94-124.95,86.41c-21.08-14.21-43.29-29.58-68.97-33.36-2.27-2.15,12.53-15.74,14.94-18.04,14.95-14.3,32.04-26.59,46.05-41.95h135Z"/>
  <path class="st0" d="M505.97,400.01l44.08,148.89c-.64,4.72-21.75,17.77-27.15,23.01-8.48,8.22-16.27,22.29-24.04,29.96-1.65,1.63-1.75,2.87-4.84,2.13l-33.82-76.96,41.33-124.49,4.44-2.54Z"/>
  <path class="st0" d="M2241.97,1446c.29.24.48,4.94,1.61,7.35,10.66,22.81,22.23,45.56,30.32,69.4l-42.89,127.21-46.91-149.06c.21-4.08,24.45-20.34,29.97-25.84,4.48-4.47,20.73-27.73,22.3-28.63,1.16-.67,5.26-.72,5.61-.43Z"/>
  <path class="st0" d="M2230,394.03c-.35,2.7-2.72,3.49-5.08,3.89-17.63,2.95-38.35-1.7-55.83-2-14.19-.24-95.51,2.65-100.18-3.82-3.93-24.02-17.92-46.2-32.86-65.1-.02-2.71,13.92-4.25,17.22-4.74,22.67-3.42,46.54-4.92,69.32-5.82l107.42,77.59Z"/>
  <path class="st0" d="M985.73,161.72c-26.1-3.72-50.59,4.15-75.72,10.27-.34-3.52.09-6.94.55-10.44,1.93-14.67,9.45-57.34,14.38-69.61.75-1.87,1.49-3.58,3.21-4.79l107.83-77.15-50.25,151.72Z"/>
  <path class="st0" d="M1825.99,1876.01l-17.9,85.08-110.08,76.9,50.19-149.79c26.63,1.32,52.75-3.31,77.79-12.2Z"/>
  <path class="st0" d="M2393.5,892.5l40.49,129.49-127.67-95.28c11.05-21.84,11.73-46.51,12.5-70.47.07-2.34-.13-2.62,2.17-4.19l72.51,40.46Z"/>
  <path class="st0" d="M415.99,1195.99c-2.84.54-4.93-.5-7.42-1.56-22.04-9.35-45.28-29.47-68.13-38.88l-40.43-129.54,127.11,94c1.48,2.74-7.8,28.24-8.91,35.2-2.07,12.96-2.2,27.64-2.22,40.78Z"/>
  <path class="st0" d="M697.99,1723.98l-84.54,9.71c-33.75-27.26-70.69-50.55-104.92-77.11-1.65-1.28-3.67.04-2.52-4.57l156.72,2.26c4.36,1.47,5.68,15.24,7.72,20.28,2.8,6.92,6.91,14.89,10.51,21.49,2.11,3.85,17.98,26.61,17.03,27.94Z"/>
  <path class="st0" d="M1040,2040l129.03-92.03c19.97,16.82,43.04,25.64,66.99,35.05l-61.34,58.61c-1.87.21-3.16-1.63-3.69-1.63h-131Z"/>
  <path class="st0" d="M1195.99,1452.01c.55,4.04-.52,7.78-1.31,11.67-6.06,29.78-36.29,79.95-52.34,107.66-2.29,3.95-14.76,26.53-17.34,26.62l-38.99-107.93,109.97-38.03Z"/>
  <path class="st0" d="M1013.99,727.99c-3.71,3.9-29.07-16.52-33.04-19.94-19.39-16.69-44.44-44.54-61.98-64.02-3.3-3.67-24.41-26.7-20.96-30.02l112.12-1.14,3.86,115.12Z"/>
  <path class="st0" d="M1257.69,575.63c-1.17.7-4.52.77-5.48.14-2.87-1.87-12.53-39.11-13.65-45.33-5.17-28.59-10.42-68.55-12.54-97.46-.36-4.97.13-10.02-.01-14.98l8.7,2.29,85.12,61.07-62.13,94.27Z"/>
  <path class="st0" d="M1901.99,704.01l-31.89,107.17-112.1-31.21c-.67-3.92,2.62-5.68,5.06-7.91,22.48-20.63,80.02-45.51,109.58-58.41,4.44-1.94,26.69-12.14,29.34-9.64Z"/>
  <path class="st0" d="M908,993.98c-3.68.91-7.02,1.86-10.9,2.12-33,2.27-104.32-11.5-137.51-20.68-4.83-1.33-13.58-2.12-11.66-8.33l88.78-64.78,71.29,91.66Z"/>
  <path class="st0" d="M976,1268.02c.44,3.03-.04,4.69-1.88,7.11-1.96,2.57-22.54,16.74-26.74,19.26-25.6,15.36-67.93,34.2-96.02,45.98-2.45,1.03-16.64,6.41-17.35,5.63l32.93-109.72,109.06,31.75Z"/>
  <path class="st0" d="M1538.01,595.99c-1.08-1.06,3.13-14.25,3.96-17.02,9.4-31.62,38.61-82.45,56.42-111.58,1.86-3.03,9.27-16.12,12.59-15.38l36.82,104.65-109.78,39.33Z"/>
  <path class="st0" d="M1507.99,1631.99l-93.62-64.96,64.65-95.02c3.39-.85,4.88,3.79,5.99,5.99,11.94,23.79,20.99,102.05,22.97,131.03.52,7.61-.3,15.36.01,22.97Z"/>
  <path class="st0" d="M1828.01,1054.01c15.1-1.51,31.55-1.56,46.75.23,27.39,3.23,68.82,11.41,95.66,18.34,3.7.96,18.78,3.7,17.58,8.39l-89.02,66.54-70.96-93.5Z"/>
  <path class="st0" d="M1724,1436c-2.3-31.61-.88-63.36-1.92-95.08-.23-7.04-5.51-15.47.96-20.92,3.25-.66,26.95,17.52,30.98,20.98,18.58,15.95,42.03,42.38,59,61,8.84,9.7,17.74,20,24.96,31.04-2.98-.14-8.82,2.99-10.99,2.99h-103Z"/>
  <path class="st0" d="M1996.01,939.99l9.98-104c1.45-1.5,34.69,1.6,40.62.06,2.13-.55,2.05-4.2,3.38-5.1,2.72-1.84,57.64,5.43,65.02,7.05,2.7.59,5.07-.26,6.94,2.99-33.05,40.78-77.07,79.21-125.94,99Z"/>
  <path class="st0" d="M2085.99,1319.98c-42.61,10.58-86.91,15.27-130.96,11.99-4.19-.31-29.04-3.7-28.99-6.97l69.25-76.78c5.05-.86,24.54,20.84,30.82,22.91,4.5,1.48,5.46-3.35,7.89-2.28,4.8,2.13,36.44,32.77,43.05,39.1,2.01,1.92,10.78,9.55,8.94,12.03Z"/>
  <path class="st0" d="M1092,453.99l-102.13,19.15-10.11-36.94-8.02-1.34-13.74-70.85c21.96,7.16,43.78,17.13,63.43,29.55,13.81,8.72,31.91,21.22,44.59,31.41,3.43,2.76,30.07,25.01,25.97,29.02Z"/>
  <path class="st0" d="M1869.99,432.01c-1.44,42.05-11.54,83.37-26.49,122.49-1.86,4.86-12.48,31.42-16.49,31.47l-52.9-91.79c4.38-2.89,32.68-18.68,33.71-20.36.61-1-4.94-4.9,2.28-10.73l59.9-31.07Z"/>
  <path class="st0" d="M1481.99,399.99l-95.98-40.02,11.95-37.28c2.19-4.81-3.9-4.68-4.07-5.89-1-6.96,26.63-56.41,31.12-66.76,30.26,43.44,51.09,97.36,56.99,149.95Z"/>
  <path class="st0" d="M1745.99,1573.99l10.13,40.01,5.97-1.16,13.88,73.16c-49.16-19.8-98.72-49.26-133.96-89.02l103.97-22.99Z"/>
  <path class="st0" d="M807.99,722.02l-68.99,79.89c-1.99-.01-26.32-23.05-31.02-25.03-2.52-1.07-4.69,4.62-7.91,2.26l-52.03-48.14c1.63-2.65,4.07-2.56,6.62-3.34,30.41-9.37,78.47-12.21,110.43-11.74,5.11.08,41.6,4.37,42.91,6.1Z"/>
  <path class="st0" d="M962,1553.96c-6.14,2.56-32.79,18.72-33.55,23.31-.35,2.09,2.18,5.66,1.53,6.61l-61.9,33.27-4.07-2.21c5.64-51.97,16.37-105.48,43.02-150.93l54.97,89.95Z"/>
  <path class="st0" d="M1350.01,1690.03l-13.73,37.39,5.7,5.55-32.95,65.01c-30.2-43.22-47.98-94.98-56.96-147.02l4.01-2.11,93.93,41.18Z"/>
  <path class="st0" d="M727.78,1213.77c-11.9,1.77-25.02-4.06-36.85-1.82-4.96.94-4.11,5.51-6.32,6.08-4.37,1.14-61.39-5.96-67.67-8-2.08-.67-3.68,1.35-2.97-3.07.45-2.79,32.34-36.65,37.1-40.92,12.95-11.61,36.48-29.26,51.12-38.88,11.33-7.44,23.77-13.06,35.8-19.18l-10.2,105.77Z"/>
  <path class="st0" d="M1855,264.04c2.14,1.51,3.01,3.66,4,5.96,10.11,23.71,19.2,120.74,13.03,145.02-.66,2.6.15,5.09-3.03,6.93l-82.92-70.96,68.92-86.96Z"/>
  <path class="st0" d="M2240,1252.03c.79,1.14.12,5.92-2,6.96-15.14,12.66-132.04,65.88-141.98,57l41.33-99.79,102.65,35.83Z"/>
  <path class="st0" d="M1939.99,1723.98c-1.94,2.56-22.51.46-26.97,0-16.13-1.67-35.08-5.5-51.04-8.96-9.73-2.11-75.77-18.8-75.94-26.02l92.64-56.83,61.31,91.8Z"/>
  <path class="st0" d="M1419.99,241.99l-109.83-8.14,3.84-109.85c3.55-3.44,15.8,7.46,18.94,10.06,11.07,9.14,26.24,25.07,36.08,35.92,5.6,6.18,56.27,67.29,50.96,72.02Z"/>
  <path class="st0" d="M947.99,358.03c2.47,3.37-10.21,10.13-12.95,12.02-24.98,17.13-51.81,32.32-77.84,47.82l-61.19-93.85c51.41,2.1,104.86,13.53,151.98,34.02Z"/>
  <path class="st0" d="M1424.01,1813.99c-2.5,35.31.59,74.29-4,109.06-.37,2.82,1.06,3.4-3.04,2.99-8.92-1.64-55.53-51.95-64.01-62-4.43-5.25-41.47-51.99-36.96-56.02l108,5.98Z"/>
  <path class="st0" d="M2209.99,696.01c4.53,4.46-33.05,71.83-38.41,80.57-12.18,19.86-25.24,40.79-43.56,55.41l-25.85-105.8,107.81-30.19Z"/>
  <path class="st0" d="M2062.01,394c-28.97-.62-58.11.81-87.09.08-18.02-.45-37.89-.76-55.95-2.08-2.98-.22-5.79,1.55-4.95-2.97l48-56.01,61.03-7.18c8.54.85,19.12,17.54,23.29,24.82,3.32,5.8,19.1,39.82,15.67,43.34Z"/>
  <path class="st0" d="M1803.97,1740.01l37.63,63.45c.63,3.05-10.19,56.27-12.09,61.05-2.81,7.07-27.35,13.63-35.01,14.99-4.85.86-39.07,3.95-40.5,2.5,6.35-28.68,16.19-57.18,25.97-85.03,4.95-14.11,13.25-42.91,19.57-54.42,1.26-2.3-.08-3.38,4.44-2.54Z"/>
  <path class="st0" d="M637.99,732.01l-41.19,101.73-102.75-38.73c-.39-4.01,16.6-13.05,20.61-15.36,37.09-21.32,81.36-39.28,123.33-47.65Z"/>
  <path class="st0" d="M864.01,1628.01l83.85,69.27-66.88,86.72c-5.01,1.25-6.65-10.82-7.62-14.36-4.33-15.83-7.71-38.22-9.34-54.66-1.17-11.71-5.31-81.92,0-86.98Z"/>
  <path class="st0" d="M607.99,1218.01l25.18,104.09-107.16,29.89c-4.77-4.82,29.93-67.06,35.16-75.82,9.63-16.15,26.45-44.1,40.82-55.18,2.01-1.55,2.54-3.87,6-2.98Z"/>
  <path class="st0" d="M2182,832.02l72.73-17.46,55.29,30.41c3.56,3.97,4.3,20.35,3.94,25.99-.45,7.01-7.96,44.48-10.98,49.02-1.44,2.15-2.83,2.85-4.99,1.06l-115.99-89.01Z"/>
  <path class="st0" d="M553.98,560l42,142-70.97-30.01c-4.53-16.58-20.83-38.11-24.16-53.89-.88-4.2-1.37-5.68.2-9.99,3.73-10.26,34.17-40.34,44.24-45.81,2.88-1.56,5.25-2.82,8.69-2.3Z"/>
  <path class="st0" d="M2209.46,1376.54l25.76,59.54c.33,11.7-48.05,57.66-53.19,53.92l-44.03-141.98,71.46,28.52Z"/>
  <path class="st0" d="M982,168l-44.45,132.55-6.53,7.48c-7.15-18.97-28.69-40.94-35.46-58.57-1.21-3.14-1.7-4.84-1.63-8.33.13-6.58,10.97-56.78,13.95-60.23,2.22-2.57,21.6-9.02,26.01-9.99,2.6-.57,13.78-2.89,15.11-2.89h33Z"/>
  <path class="st0" d="M551.99,1217.99l-72.83,16-54.58-30.55c-7.97-25.03,1.13-51.06,7.43-75.43,2.9-.69,4.74.67,7.13,1.84,18.73,9.12,93.68,66.49,109.81,82.19,1.95,1.9,3.78,2.61,3.03,5.95Z"/>
  <path class="st0" d="M1346.04,725.99c-30.64-42.85-55.84-89.22-80.04-135.97l109.19,23.9-24.28,110-4.88,2.07Z"/>
  <path class="st0" d="M1557.99,102.04c.7,3.53-1.84,4.93-3.96,6.99-21.03,20.51-68.56,49.96-94.59,67.41-2.9,1.95-21.76,15.46-23.43,13.55l7.02-75.96,45.02-41.03c26.45-2.14,47.83,17.68,69.94,29.04Z"/>
  <path class="st0" d="M1540.01,614.01l75.62,83.01-86.6,74.97-3.12-6.9c-.55-50.72,8.57-100.86,14.1-151.08Z"/>
  <path class="st0" d="M1178.24,1947.77c-.99-1.69-.21-4.08.74-5.77l118.99-84-4.87,74.11c-1.25,3.25-3.69,5.54-6.03,7.97-7.78,8.1-30.45,29.2-39.21,34.84-7.46,4.81-25.56-2.28-33.87-5.92-4.05-1.77-34.71-19.44-35.76-21.23Z"/>
  <path class="st0" d="M1133.81,688.15l44.18,105.84c-6.85,6.23-130.33-50.64-145.98-61.01l101.79-44.83Z"/>
  <path class="st0" d="M1558.01,1254.01c20.82,6.08,41.3,13.33,61.33,21.65,23.39,9.72,57.74,24.4,79.15,36.85,2.14,1.25,4,2.46,5.46,4.5l-100.76,44.85-45.19-107.84Z"/>
  <path class="st0" d="M924.01,985.99l55.19-95.84,98.77,58.85c-1.59,1.98-3.11,3.42-5.49,4.47-13.93,6.11-37.55,11.53-52.83,15.17-31.32,7.46-63.9,12.66-95.63,17.35Z"/>
  <path class="st0" d="M1811.99,1062.01l-56.96,97.88-99.02-60.9c49.68-20.24,103.64-26.45,155.98-36.98Z"/>
  <path class="st0" d="M984.01,1253.99l-9.13-110.12,112.15-11.8,2.11,4.01c-23,33.97-50.66,65.4-79.09,94.97-5.62,5.85-14,15.33-20.04,19.96-2.01,1.54-2.54,3.88-6,2.98Z"/>
  <path class="st0" d="M1646.01,915.99c-.69-3.05.67-4.7,1.85-7.13,5.02-10.32,24.77-33.14,33.11-42.89,21.12-24.68,45.89-49.15,69.01-71.97l11.15,110.05-115.12,11.93Z"/>
  <path class="st0" d="M1207.99,1276.01c2.58,52.03-6.94,103.16-12.32,154.66l-4.64,3.33-70.71-82.7,87.67-75.28Z"/>
  <path class="st0" d="M1467.99,1459.99l-107.77-24.21,23.8-111.77c3.92-.67,5.69,2.62,7.92,5.05,20.31,22.16,62.3,95.07,74.49,123.51,1.07,2.51,2.09,4.55,1.56,7.42Z"/>
  <path class="st0" d="M822,1658.02l-48.15,56.83-62.82,9.16c-13.62-1.28-36.65-53.38-39.06-66.99l150.02,1Z"/>
  <path class="st0" d="M368,914c-2.38-2.13,17.38-27.61,20.06-30.94,24.55-30.56,57.33-60.64,91.92-79.05l-1.88,103.1-3.1,6.9h-107Z"/>
  <path class="st0" d="M777.99,324.02l-67,86.04-84.98-60.1c-4.02-5.88,26.95-14.1,31.56-15.4,37.69-10.6,81.77-15.43,120.43-10.54Z"/>
  <path class="st0" d="M1537.87,1906.08l32.12,103.91c-50-12.52-97.66-36.51-135.97-71.02l103.85-32.89Z"/>
  <path class="st0" d="M1851.99,247.99l-103.18-35.92,31.21-102.08c4.03-.7,5.32.46,8.02,2.96,7.96,7.35,27.2,40.06,33,51,13.79,25.99,24.58,55.28,30.95,84.03Z"/>
  <path class="st0" d="M518.02,1368l63.63,89.01-86.66,64.95c-2.91-1.9-2.77-3.84-3.1-6.86-1-9.09-.48-24.68.01-34.18,2.01-38.68,12.89-76.82,26.11-112.91Z"/>
  <path class="st0" d="M1164,40.02c50.32,9.62,99.84,37.04,137.96,70.98l-103.01,32.73-34.95-103.71Z"/>
  <path class="st0" d="M985.82,1836.19l-34.79,103.79c-32.15-39.57-57.59-87.71-67.02-137.97l101.81,34.18Z"/>
  <path class="st0" d="M2241.99,528c1.48,1.39,1.33,22.48,1.27,26.66-.61,41.38-9.41,88.63-28.25,125.3l-60.69-88.67,87.67-63.29Z"/>
  <path class="st0" d="M2109.99,1703.98c-48.64,18.19-100.07,24.94-151.98,22.01l64.97-87.51,87.01,65.49Z"/>
  <path class="st0" d="M2366,1136c2.02,1.84-15.6,25.85-18.04,28.96-23.91,30.48-57.45,59.78-90.94,79.06l.98-108.02h108Z"/>
  <path class="st0" d="M2007.98,554c2.11,3.21-6.97,7.84-9.35,9.63-26.65,20.22-55.28,38.03-82.13,58.02l-74.46-32.66,91.42-52.6c24.93,3.95,49.68,16.56,74.51,17.61Z"/>
  <polygon class="st0" points="2007.57 1412.41 2011.98 1490 1920.42 1420.59 1926.94 1343.94 1932.03 1342.96 2007.57 1412.41"/>
  <path class="st0" d="M2049,1022c-3.64-1.05-36.28-57.55-39.43-64.57-1.31-2.92-3.99-8.25,1.47-7.51l101.62,12.42,49.34,59.66h-113Z"/>
  <polygon class="st0" points="727.99 1097.99 621.45 1085.55 574 1026.02 686.67 1028.33 727.99 1097.99"/>
  <path class="st0" d="M1098.01,437.99l-19.42-102.74,40.39-65.24,34.92,107.09c-.17,3.24-35.51,43.29-40.88,48.93-2.12,2.22-12.68,14.07-15.01,11.96Z"/>
  <path class="st0" d="M1239.99,1656.01l-44.52,97.46c-23.73,9.38-49.27,16.01-71.45,28.53l36.45-109.54,79.52-16.45Z"/>
  <polygon class="st0" points="892 1458.03 886.67 1465.67 802.49 1511.63 726.01 1493.98 819.09 1428.02 892 1458.03"/>
  <polygon class="st0" points="1496.01 393.99 1496.95 385.95 1538.45 296.45 1609.98 268 1575 376 1496.01 393.99"/>
  <path class="st0" d="M1614.02,1778l-32.03-106.84c15.11-21.84,34.73-42.77,53.98-61.15l20.02,104.84-41.97,63.15Z"/>
  <path class="st0" d="M807.99,707.99c-1.21,1.48-16.22-11.37-18.02-12.96-20.87-18.5-39.66-40.38-61.54-57.44-4.04-25.77.35-52.27-6.43-77.57l93.09,68.05-7.1,79.92Z"/>
  <path class="st0" d="M1239,1020l-26.94-43.09,12.96-52.93,118.97,93.03c.26.58-4.7,2.99-4.99,2.99h-100Z"/>
  <polygon class="st0" points="1311.98 860.01 1352.51 1000.55 1351 1005.96 1266.33 944.67 1269.01 894.01 1311.98 860.01"/>
  <path class="st0" d="M1371.59,1187.57l-55.61,3.41,53.04-142.96,33.13,99.07c-.11,8.86-26.35,30.32-30.55,40.49Z"/>
  <path class="st0" d="M1418,858.01l-51.01,141.95c-5.3-.12-30.6-88.72-34.18-100.03l29.66-37.44,55.53-4.48Z"/>
  <path class="st0" d="M1323.55,1145.54l-48.48,12.43-47.03-28.97,125.94-85c-7.71,34.27-20.76,67.63-30.43,101.54Z"/>
  <path class="st0" d="M1505.99,918.04c.77,4.22-2.73,5.49-5.33,7.62-20.33,16.67-91.25,65.76-113.53,76.47-2.42,1.17-4.12,2.57-7.12,1.86l31.23-100.19,47.78-12.97,46.98,27.22Z"/>
  <path class="st0" d="M1343.99,1032.01c1.25,4.64-1.09,3.34-2.53,4.58-18.58,15.89-50.33,40.1-70.83,53.04-3.38,2.13-7.51,6.11-11.57,6.18l-45.13-18.74-19.92-51.06,149.98,6Z"/>
  <path class="st0" d="M1521.51,970.48l20.49,51.5-151.99-3.99c-.94-3.83,1.4-3.85,3.35-5.63,23.28-21.19,56.16-38.48,80.41-59.41l47.73,17.52Z"/>
  <path class="st0" d="M1465.58,1155.6l-37.57,31.41-5.99,1-40.01-143.99,85.78,59.24c4.38,6.78-2.7,41.88-2.21,52.34Z"/>
  <path class="st0" d="M1390,1030h101c.46,0,1.55-1.32,3.15-1.05,6.95,1.2,23.04,35.57,29.32,42.35l-14.5,52.69-118.97-93.99Z"/>
  <path class="st0" d="M1435.91,124.08c-3.37,32.13-3.37,64.69-5.93,96.89-.26,3.28-1.24,8.8-2.01,12.03-.72,3.01,1.41,3.52-3.93,2.98-23-47.98-61.82-86.04-102.03-119.97l113.9,8.06Z"/>
  <path class="st0" d="M2246,1262.02l-43.28,103.83-104.71-39.87c.38-3,2.81-3.23,5.18-3.79,32.07-7.64,63.26-16.36,92.91-31.09,17.19-8.54,32.74-21.1,49.91-29.07Z"/>
  <polygon class="st0" points="2243.81 811.82 2136.01 837.99 2185.62 768.62 2217.01 700.01 2243.81 811.82"/>
  <path class="st0" d="M951.99,351.99c-49.48-20.74-101.97-34.34-155.98-34.98l96.84-60.97,59.14,95.95Z"/>
  <path class="st0" d="M636,722.03c.58,5.18-.01,3.17-2.91,4.03-9.99,2.94-20.6,4.3-30.61,7.42-40.38,12.57-78.25,29.59-112.45,54.53l43.18-105.74,102.79,39.77Z"/>
  <path class="st0" d="M1938,1732.02l-96.7,59.82-59.29-95.83c48.92,22.27,102.04,34.86,155.99,36.01Z"/>
  <path class="st0" d="M1881.96,421.98l-3.98-1c3.93-40.01,3.34-81.81-4.57-121.4-2.55-12.74-8-24.65-9.39-37.59l86.05,75-68.11,84.98Z"/>
  <path class="st0" d="M1413.98,1930.04l-1.01,3.99-112.99-8.01,9.02-114c25.76,45.53,60.29,90.02,104.97,118.03Z"/>
  <path class="st0" d="M858,1628.02c-8.45,52.09-2.82,108.13,13.99,157.97l-88.13-71.14,1.14-4.84,66.88-80.66,6.12-1.33Z"/>
  <path class="st0" d="M519.98,1348c-5.19.56-3.18-.01-4.03-2.92-10.19-34.6-16.62-71.99-25.89-106.99l106.98-28.03.98,4.94c-34.32,38.1-63.97,83.25-78.03,133Z"/>
  <path class="st0" d="M1476.02,1462c-7.63-26.04-21.16-49.53-33.68-73.34l-48.33-70.65c20.81,6.81,50.59,10.38,69.99,18.99,2.94,1.31,5.06,2.24,6.9,5.1,2.68,4.18,20.93,59.93,21.2,64.96.4,7.45-6.69,38.76-9.45,46.58-1.22,3.44-2.82,7.14-6.62,8.35Z"/>
  <path class="st0" d="M1813.43,1048.56c1.26,1.28,3.52,6.54,2.56,7.43-41.62,1.54-83.73,9.47-123.52,21.48-6.1,1.84-35.91,14.39-38.47,12.51l45.38-65.6,71.53-.29c2.41.45,40.8,22.72,42.52,24.47Z"/>
  <path class="st0" d="M1097.99,1140.01l.99,79.97c-17.15,8.41-42.81,36.87-58.97,42.67-4.4,1.58-28.32,3.11-34.93,3.42-4.3.2-13.83.78-17.12-1.04-3.29-2.44-.96-3,1.07-5,17.14-16.94,37.06-31.23,53.99-50.01,19.49-21.6,33.14-45.46,50.39-67.5,1.27-1.63-.05-3.68,4.57-2.52Z"/>
  <path class="st0" d="M1259.99,588.01c11.59,40.33,35.1,76.45,57.57,111.44l24.43,32.55-72.48-20.5c-2.65-.7-3.84-2.66-5.24-4.76-9.46-14.15-13.75-49.24-22.13-65.89,4.71-13.88,5.3-33.95,10.87-46.85,1.39-3.22,2.62-6.72,6.98-6Z"/>
  <path class="st0" d="M1535.99,606.01c-3.21,13.85-6.86,27.57-9.36,41.62-4.41,24.8-8.35,54.37-8.71,79.29-.22,15.23,2.52,30.17,1.09,45.07l-48.87-62.94,21.77-69.62c5.34-2.55,40.12-37.66,44.08-33.42Z"/>
  <path class="st0" d="M1198,1441.98c18.05-52.6,17.66-108.94,18.99-163.97,12.94,17.3,31.19,35.42,42.67,53.33,1.22,1.91,3.43,4.12,3.94,6.19,2.97,12.2-18.38,57.04-20.73,72.34-8.16,3.81-37.66,37.26-44.86,32.12Z"/>
  <path class="st0" d="M1713.99,1313.99l-70.64-38.34-81.34-28.64c1.55-2.06,3.74-2.97,5.98-4.02,11.5-5.38,50.26-20.44,61.52-22.61,2.66-.51,4.27-.66,6.97.02,12.57,3.15,43.12,34.25,57.58,40.54,2.55,7.8,23.76,48.61,19.93,53.05Z"/>
  <polygon class="st0" points="1086 462.02 912 589.98 982.58 482.59 1086 462.02"/>
  <path class="st0" d="M1174,803.98l-74.52,25.65-58.32-41.78c-3.1-7.82-23.61-46.7-19.14-51.84l62.64,34.34c18.05,6.79,36.04,15.59,54.29,21.71,2.92.98,37.91,8.26,35.06,11.91Z"/>
  <path class="st0" d="M1079.99,958.01l-43.32,65.66-73.19,1.84c-5.96-5.72-45.88-24.77-45.42-30.52,6.72-5.81,18.23-2.14,26.92-3.02,46.2-4.67,91.83-17.78,135.02-33.96Z"/>
  <path class="st0" d="M1256,406c.46-3.04,6.82-4.45,9.5-5.5,36.16-14.21,73.46-25.79,109.5-40.35l95,41.88c.57.75-2.62,3.98-3,3.98h-211Z"/>
  <path class="st0" d="M1750,784.02c-34.38,29.32-66.1,61.58-92.78,98.2-5.32,7.3-9.53,16.65-14.63,23.26-1.29,1.67.02,3.65-4.58,2.51l-1.57-79.57,57.44-41.54c18.66-.94,37.79-6.28,56.12-2.86Z"/>
  <path class="st0" d="M809.99,736.01l-65.97,203.97c-3.71-42.41-3.94-85.79-5.62-128.57,19.07-20.84,37.11-42.98,56.56-63.44,1.76-1.85,12.92-14.26,15.02-11.96Z"/>
  <path class="st0" d="M1093.98,1588.04l-2.64,3.66-121.25-34.79c-13.62-24.77-28.96-48.73-42.44-73.56-1.53-2.83-9.28-15.32-7.63-17.35l173.96,122.04Z"/>
  <path class="st0" d="M1765.45,492.57l50.53,88.45-4.6.6-171.39-123.6c42.26,9.27,83.89,22.44,125.45,34.55Z"/>
  <path class="st0" d="M1650.01,1587.99l171.97-129.99c.71,3.38-1.74,5.27-3.18,7.8-19.31,33.96-46.55,67.14-67.71,100.28l-101.07,21.91Z"/>
  <path class="st0" d="M1926.02,1314l65.96-205.99c.17,43.64,5.24,86.99,3.61,130.58l-69.57,75.41Z"/>
  <path class="st0" d="M1480,1642.02c-2.27,4.35-9.13,5.68-13.5,7.48-35.1,14.41-71.71,26.02-107.53,38.59l-92.96-40.12,2.96-3.97,211.04-1.98Z"/>
  <path class="st0" d="M472.01,796.01l-1.24,6.14c-34.15,16.92-64.34,41.99-86.39,73.22-7.98,11.29-13.95,23.75-22.35,34.63-4.69-15.53-.69-31.71-.42-47,.14-7.83-2.63-16.72-1.61-26.01.53-4.83,9.59-33.57,12.03-35.97,2.23-2.18,5.91-2.81,8.95-3.05l91.04-1.96Z"/>
  <path class="st0" d="M1989.98,930l-67.96-201.99c28.41,31.2,53.6,66.01,79.54,99.52l-11.58,102.48Z"/>
  <path class="st0" d="M747.98,1120l66,202-80.78-99.92c3.8-29.33,4.59-59.59,9.05-88.83.31-2.01,1.54-17.78,5.73-13.26Z"/>
  <path class="st0" d="M877.99,1806.01c6.48,39.02,21.42,78.08,45.19,109.82,6.64,8.87,15.51,16.13,21.84,24.16,1.59,2.01,3.87,2.57,2.96,6.02l-71.36-21.62-29.7-22.45-.61-4.41c8.5-23.86,13.18-49.07,21.15-73.06.72-2.16,5.89-22.71,10.52-18.46Z"/>
  <path class="st0" d="M1568.01,2014.01c.81,4.54-.24,3.19-2.56,4.46-17.95,9.88-47.92,12.24-66.92,23.06l-38.25-1.81-32.27-93.71c3.11-.58,4.63.3,7.09,1.89,9.8,6.36,22.14,20.9,33.44,28.56,28.84,19.54,64.93,33.26,99.47,37.55Z"/>
  <path class="st0" d="M1861.99,244l-5.54-3.45c-6.48-39.23-21.68-76.74-45.62-108.38-5.98-7.9-14.3-14.95-19.84-22.16-1.54-2.01-3.88-2.54-2.98-6l70.52,20.46,30.47,23.46-27.01,96.07Z"/>
  <path class="st0" d="M2111.99,1708.01c.67,3.03-.66,4.7-1.85,7.13-3.65,7.45-32.18,47.4-38.15,53.85-7.92,8.57-22.36,14.65-31.35,22.68l-82.62-56.7c-.83-4.32,1.94-3.09,4.94-2.96,29.09,1.26,49.76,4.36,79.45-.6,24.99-4.18,46.8-12.98,69.57-23.41Z"/>
  <path class="st0" d="M487.99,1521.99c-3.83.94-3.85-1.4-5.63-3.35-7.76-8.53-36.62-45.84-41.17-54.83-1.77-3.5-11.55-34.67-11-36.49l78.82-61.26c3.97,2.8,2.09,2.73,1.55,5.45-2.12,10.67-12.36,27.9-16,40.06-10.65,35.62-13.45,73.82-6.57,110.43Z"/>
  <path class="st0" d="M1307.99,103.99c-3.08.58-4.64-.31-7.09-1.89-8.9-5.77-20.91-19.8-31.08-26.92-34.57-24.19-60.48-29.7-99.88-40.15-1.85-.49-4.51-.51-3.93-3l67.45-23.56,40.62.45,33.91,95.07Z"/>
  <path class="st0" d="M2251.96,528.02l41.71,57.31,10.44,35.63-80.1,61.03c-1.83-2.03,14.67-38.2,16.55-44.43,10.58-35.07,11.6-72.36,7.43-108.56l3.97-.99Z"/>
  <path class="st0" d="M775.99,315.99c-17.86.95-35.17-2.88-53.09-2.09-34.43,1.52-70.55,12.13-100.88,28.1-1.25-1.53,3.24-8.8,4.35-10.63,6.26-10.35,29.07-43.46,36.56-51.44,3.09-3.3,29.35-21.91,32.07-21.91,22.79,15.09,47.92,29.93,69.63,46.35,1.87,1.42,14.11,9.22,11.36,11.62Z"/>
  <path class="st0" d="M2373.99,1140.01c-.11,20.33.23,40.72-.08,61.07-.06,3.91,1.99,7.55,1.66,11.46-.87,10.24-11.21,25.82-11.77,37.26l-101.79,2.19c-1.1-4.76.8-3.23,2.6-4.46,57.09-38.92,67.24-45.83,104.9-104.96,1.27-1.99-.19-3.57,4.48-2.57Z"/>
  <path class="st0" d="M2082,1326.02l-70.91,80.01-73.07-67.05c-.48-5.51,1.21-1.63,3.47-1.48,26.23,1.78,63.89,3.55,89.49.48,17.63-2.12,33.76-8.67,51.03-11.95Z"/>
  <path class="st0" d="M1768,1689.98l-105.83,21.87-18.15-99.85c27.56,21.04,56.97,47.74,88.64,62.34,11.56,5.33,26.54,7.25,35.34,15.64Z"/>
  <path class="st0" d="M893.99,1470.01c-10.62,31.1-28.47,68.51-31.75,101.23-1.29,12.89,2.19,26.62-3.23,38.75l-52.85-92.68,87.83-47.3Z"/>
  <path class="st0" d="M1488.02,386c-8.02-32.89-17.5-71.54-33.68-101.34-2.16-3.98-21.91-31.12-20.33-32.65l97.82,43.3-43.81,90.69Z"/>
  <path class="st0" d="M798,711.98c-49.39-3.81-98.91-5.17-146,12l71.25-81.83,74.75,69.82Z"/>
  <path class="st0" d="M1247.99,1664.01c6.37,31.46,16.49,71.05,31.64,99.36,2.24,4.18,23.87,33.17,22.36,34.62l-99.71-45.26,40.2-85.26,5.51-3.47Z"/>
  <path class="st0" d="M2114.01,956.01l-102-13c27.39-19.77,62.99-39.33,86.05-63.95,9.13-9.75,14.73-23.32,25.92-31.06l-9.97,108.01Z"/>
  <path class="st0" d="M1089.98,436c-38.09-30.12-76.18-61.8-123.97-74.99l106.07-24.18,17.9,99.17Z"/>
  <path class="st0" d="M1874,438l55.86,92.8-89.85,49.19c2.96-7.26,6.79-14.06,9.49-21.49,6.62-18.25,24.5-68.54,24.5-85.5v-35Z"/>
  <path class="st0" d="M612.02,1200l11.92-107.17,98.02,14.17c-27.51,19.08-62.03,38.51-84.98,62.98-8.83,9.41-14.62,22.16-24.96,30.02Z"/>
  <polygon class="st0" points="895.99 1237.99 864.22 1226.78 758.01 1026.01 779.03 1027.97 895.99 1237.99"/>
  <path class="st0" d="M1554,444.02l-7.4,20.02-236.58,47.96c-1.07-1.26,11.99-20.95,13.98-23,2.54-2.6,4.53-4.87,8.36-5.64l221.64-39.34Z"/>
  <path class="st0" d="M1018,611l155.96-164.04,4.02.11c.52,7.43,7.31,14.93,2.13,22.04-54.23,54.44-102.61,114.84-156.14,169.85-1.92,1.97-2.61,3.76-5.96,3.04v-31Z"/>
  <path class="st0" d="M1869.44,820.58l106.55,201.41-21.02-1.96-116.94-207.07c-.41-5.3.87-1.99,3.4-1.39,9.45,2.24,19.09,5.19,28.02,9.01Z"/>
  <path class="st0" d="M1423.99,1538.01l-19.51,27.47-222.46,40.52c-1.11-1.48,4.31-21.25,9.47-21.51l232.5-46.48Z"/>
  <path class="st0" d="M1857.99,662.03c2.1,2.84-13.55,15.17-17.98,13.1-67.5-32.57-137.39-60.57-204.72-93.42-3.83-1.87-9.4-3.57-11.28-7.69l31.99-9.19,202,97.19Z"/>
  <path class="st0" d="M1112,1472.02c1.87,2.36-29.51,15.3-34.03,11.08l-201.95-98.09c5.92-5.1,13.59-13.12,22.01-10.14l213.98,97.16Z"/>
  <path class="st0" d="M1861.98,1379.99l-14.95-10.01-1.21-6.96c7.84-76.02,19.98-151.84,26.21-228.03.24-2.95-1.63-5.82,2.95-4.97l19.04,25.01-32.04,224.97Z"/>
  <polygon class="st0" points="1558.02 1604 1552.93 1582.08 1715.98 1406 1718.19 1433.02 1716.08 1439.1 1558.02 1604"/>
  <path class="st0" d="M861.98,920c-8.21-7.5-20.24-19.79-20.14-31l31.15-220.99,16.53,14.51-27.54,237.48Z"/>
  <path class="st0" d="M2027.99,1261.99c-2.12,2.4-23.41-19.2-23.96-23.02-3.24-70.48-6.91-140.52-8.04-210.97l16.15.87,3.6,16.4,12.25,216.73Z"/>
  <path class="st0" d="M1763.96,1603.99c-5.14.6-3.17,0-4.03-2.89-2.15-7.2-5.15-24.32-2.84-31.02l112.05-167.92,5.57-4,12.51,11.94-123.26,193.88Z"/>
  <path class="st0" d="M1389.99,324.01l-15.54,29.95-195.51,71.75c-1.53-.48-1.9-1.82-2.57-3.06-1.62-3.03-5.57-13.43-2.38-15.61l216-83.03Z"/>
  <path class="st0" d="M740.01,1020.01h-20.02s-11.98-232-11.98-232c2.12-2.38,23.34,19.1,23.94,23.03,1.58,69.77,4.98,139.16,8.05,208.96Z"/>
  <polygon class="st0" points="1565.99 429.99 1570.14 412.15 1576.72 412.21 1795.96 471 1767.55 485.59 1565.99 429.99"/>
  <path class="st0" d="M855.83,1391.78l-13.18,7.94-4.76-2.56-143.9-177.13c11.73.64,27.32.09,36.1,8.88l122.76,155.23,2.97,7.64Z"/>
  <polygon class="st0" points="1557.88 1624.08 1560.78 1642.21 1346.02 1726 1359.37 1695.86 1557.88 1624.08"/>
  <path class="st0" d="M1163.87,1637.92l-223.08-57.72-2.78-4.17c8.69-.97,19.3-11.23,27.17-12,5.43-.54,15.36,3.14,21.25,4.54,59.44,14.12,118.4,36.12,178.16,49.83l3.5,4.59-4.22,14.93Z"/>
  <path class="st0" d="M2039.99,829.99c-10.33-2.79-24.86-.82-33.12-7.86l-127.99-164.16,14.14-9.63,3.03,2.54,143.94,179.1Z"/>
  <path class="st0" d="M972.03,444.02c2.81-.48,2.92,3.56,3.39,5.55,1.81,7.62,1.9,16.2,3.98,23.87l-118.4,178.53-12.15-9.97-.08-4.05,123.26-193.94Z"/>
  <path class="st0" d="M1217.59,920.4l-9.63,49.57-107.96-19.99,83.45-51.68c8.52-2.36,25.3,18.82,34.14,22.1Z"/>
  <path class="st0" d="M1627.99,928.01l-38.93,92.05c-5.23,5.31-32.69-1.64-41.09-1.02l-17.8-46.83,97.83-44.19Z"/>
  <path class="st0" d="M1212.02,1256c-2.95-33.1-11.02-65.35-21.54-96.73.09-6,27.97-21.16,34.51-24.57,5.8,4.71,41.19,22.93,40.77,27.91l-53.74,93.38Z"/>
  <path class="st0" d="M1365.9,1194.12l14.1,107.87-77.58-67.26c-.37-1.87,11.88-34.17,13.64-35.68,6.36-5.43,39.44-2.51,49.84-4.94Z"/>
  <path class="st0" d="M1187.5,1030.52l18.51,45.45-100,46.02c7.62-17.73,17.52-34.13,24.96-52.02,3.05-7.33,11.12-36.54,14-40,2.77-3.32,38.56-3.23,42.53.55Z"/>
  <path class="st0" d="M1367.99,854.01l-11.97-108.01,76.04,69.09-14.02,35.95c-16.68,1.76-33.24,3.78-50.05,2.97Z"/>
  <polygon class="st0" points="1636 1098.01 1548.65 1151.72 1516.21 1126.69 1528.02 1077.99 1636 1098.01"/>
  <path class="st0" d="M1539.99,1243.99c-33.39-7.53-67.6-9.27-101.79-10.2l-9.88-38.4,33.72-30.46,4.56-.72,73.39,79.78Z"/>
  <polygon class="st0" points="1543.67 893.64 1511.01 913.93 1470.17 888.68 1521 794.04 1543.67 893.64"/>
  <path class="st0" d="M1194,806.02c19.09,1.39,37.92,6.58,57.02,7.96,9.56.69,36.82-2.06,43.01.99,4.36,2.15,13.08,34.53,11.64,39.57-4.11,5.12-34.38,32.04-37.7,30.53l-73.96-79.06Z"/>
  <path class="st0" d="M1112.02,844c2.29-.34,3.88,0,5.94,1.04,7.3,3.66,50.18,36.8,56.71,43.28,1.36,1.35,4.05,1.65,3.25,4.53-2.33,10.4-69.89,43.59-82.88,49.16l-2.94-4.79,19.92-93.22Z"/>
  <path class="st0" d="M1269.99,728l22.02,79.99c-32.38,1.6-64.32-4.3-96.01-10.01-3.16-3.79,9.19-14.31,11.97-17.01,13.67-13.27,42.5-40.98,57-51,1.69-1.17,1.97-2.79,5.01-1.97Z"/>
  <path class="st0" d="M1598,1022c-5.32-5.39,26.6-71.22,32.4-80.6,2.08-3.35,4.18-8.85,8.58-9.43l41.02,90.03h-82Z"/>
  <path class="st0" d="M1137.99,1028.01c.77,12.17-35.85,89.87-40.99,89.95l-40.99-91.95,81.99,2Z"/>
  <path class="st0" d="M1461.99,726.01l-26.02,77.99c-6.88,4.97-66.26-54.58-73.97-63.03-1.15-5.17,11.85-6.27,15.24-6.73,27.99-3.8,56.75-4.25,84.75-8.23Z"/>
  <path class="st0" d="M1116.01,1211.97l1.25-4.14,65.75-45.79c2.26,0,9.42,23.77,10.41,27.55,2.69,10.24,13.16,62.29,9.64,68.47l-87.05-46.09Z"/>
  <path class="st0" d="M1274.01,1321.99l26.98-77.94c5.6-.32,71.04,59.12,71.1,64.95.03,3.27-2.11,4.7-5.09,5l-92.99,8Z"/>
  <path class="st0" d="M1442.01,1242.01c19.37-2.2,39.3-.5,58.74,2.24,9.17,1.3,27.97,3.6,35.88,6.12,2.04.65,3.88,2.29,3.37,4.59l-72.96,65.03-25.02-77.98Z"/>
  <path class="st0" d="M1641.99,1108.01c-4.67,28.46-9.89,59.67-17.33,87.64-.71,2.67-1.7,12.05-5.63,10.33-16.39-17.53-43.48-29.79-59.99-46.02-1.93-1.89-3.81-2.58-3.03-5.92,27.31-17.34,54.75-36.83,85.98-46.03Z"/>
  <path class="st0" d="M1550.03,886c-7.6-26.78-18.98-61.79-19.59-89.62-.05-2.42-.33-5.57,2.62-6.38,4.73-1.29,75.31,42.62,84.91,49l-67.94,47Z"/>
  <path class="st0" d="M1602,931.98l-70.98,33.21-49.01-18.21,61.27-44.66c5.28.83,60.7,27.03,58.71,29.67Z"/>
  <path class="st0" d="M1351.99,772.01l9.68,78.58-32.64,41.39-22.73-74.58c13.26-14.77,27.99-27.95,41.13-42.85,1.19-1.35-.11-3.84,4.56-2.55Z"/>
  <path class="st0" d="M1385.97,1277.98c-3.19.02-3.22-6.87-3.66-9.3-4.13-22.69-5.74-46.61-8.23-69.58l30.91-43.1,24.69,74.7c-13.34,16.51-32.85,29.36-43.71,47.27Z"/>
  <path class="st0" d="M1229.99,1021.99l-78.01-2.96-29.97-57,77.9,15.08c3.68,4.07,32.54,42.69,30.09,44.89Z"/>
  <path class="st0" d="M1321.99,1154.01c-6.8,24.77-20.35,48.52-24.15,73.83l-65.82,12.16,37.02-69.96,52.95-16.03Z"/>
  <path class="st0" d="M1260,940c-3.18.59-4.6-.35-7.08-1.92-18.8-11.93-36.27-33.19-57.1-43.35l8.18-64.72c3.33-.76,4.05,1.07,5.95,3.03,17.02,17.53,33.01,36.4,50.04,53.96v53Z"/>
  <polygon class="st0" points="1501.99 810.01 1464.94 879.94 1414.01 895.99 1438.93 821.93 1501.99 810.01"/>
  <path class="st0" d="M1529.99,1217.99c-3.33.76-4.05-1.07-5.95-3.03-16.69-17.18-32.64-35.48-49.01-52.99l.99-53.97,61.66,47.33-7.69,62.66Z"/>
  <path class="st0" d="M1132,1119.98c3.07-4.84,10.24-7.26,15.28-9.7,10.25-4.96,48.5-24.88,56.18-25.89,3.31-.43,50.55,15.91,50.49,18.61l-62.93,44.46-59.03-27.48Z"/>
  <polygon class="st0" points="1612 1085.98 1536.09 1072.91 1504 1028.02 1582.11 1028.94 1612 1085.98"/>
  <polygon class="st0" points="313 1020 310.86 1015.92 356.98 933.99 386 1020 313 1020"/>
  <polygon class="st0" points="1142 34.02 1068.03 88 1046 18.02 1142 34.02"/>
  <polygon class="st0" points="2132.01 1691.99 2158.03 1606 2218 1649.02 2213.4 1654.4 2132.01 1691.99"/>
  <path class="st0" d="M508.01,1640l-11.99-94,73.94,51c-5.1,5.03-59.27,45.8-61.95,43Z"/>
  <path class="st0" d="M2239.98,504l-73.97-50.04c-.78-3.34,1.1-4.03,3.03-5.92,14.64-14.37,40.11-26.09,55.96-40l14.98,95.96Z"/>
  <polygon class="st0" points="577.98 442 570.85 440.15 516.04 399 601.98 356 577.98 442"/>
  <path class="st0" d="M1687.99,2031.99c-29.54-6.58-61.76-9.08-91-16.02-3.02-.72-3.52,1.39-2.97-3.93l70.99-52,22.99,71.95Z"/>
  <polygon class="st0" points="1766 92 1676 92 1699.02 21.98 1766 92"/>
  <polygon class="st0" points="1060 1956.02 1035.98 2028 968.01 1958.99 1060 1956.02"/>
  <polygon class="st0" points="2424 1030 2379 1116.02 2350 1030 2424 1030"/>
  <path class="st0" d="M573.99,1017.99c-9.79-1.25-19.96,5.47-29.1.11-27.39-31.35-64.72-59.34-89.9-92.09-1.54-2.01-3.88-2.54-2.98-6l31.1,3.88c24.55,30.23,64.85,57.99,87.9,88.09,1.54,2.01,3.88,2.53,2.98,6Z"/>
  <path class="st0" d="M2284,1128h-29l-94.96-95c-.09-4.35,27.07-4.23,31.07-1.11l92.89,96.11Z"/>
  <path class="st0" d="M1115.99,1776.01l-6.42,26.55-123.55,61.42c3.05-8.68,4.93-22.97,12.07-28.91l117.91-59.07Z"/>
  <path class="st0" d="M722,1484.02c1.23,4.64-1.12,3.34-2.54,4.56-2.77,2.39-18.39,14.21-20.41,14.48l-107.43-17.69-25.62-6.35,22.93-16.09,133.06,21.09Z"/>
  <path class="st0" d="M729.99,551.99c-1.72,1.97-24.84-13.27-24.69-18.29l-19.28-131.7,24,18.98,19.97,131.01Z"/>
  <path class="st0" d="M1618.01,271.99l9.34-28.13,120.63-59.85c1.67,2.19-5.75,26.39-10.03,28.95l-119.94,59.04Z"/>
  <path class="st0" d="M1607.98,1782.01c.53,7.27,7.08,16.97,7.65,23.5.56,6.29-49.13,98.95-56.6,112.52-1.61,2.93-3.96,8.84-7.01,9.96-1.34-9.66-9.48-20.44-7.17-30l57.45-112.68,5.67-3.31Z"/>
  <polygon class="st0" points="2050 1645.98 2024.34 1628.66 2004.01 1496.01 2029.56 1513.44 2050 1645.98"/>
  <path class="st0" d="M1183.98,122l6.83,28.06-61.81,117.9-9.99-28.15c22.89-36.42,37.2-79.24,60.5-115.24,1.26-1.95-.22-3.57,4.46-2.58Z"/>
  <path class="st0" d="M2170,568.02l-26.9,18.07c-41.17-7.82-82.81-12.92-124.07-20.16-2.82-.49-5.89,1.9-5.02-2.9l23.05-16.98,132.93,21.97Z"/>
  <path class="st0" d="M474,792h-31l-46.72-57.44c-1.76-6.37,11.35-29.84,11.75-38.55l65.98,96Z"/>
  <polygon class="st0" points="1384 10 1317 102.05 1311.98 100.64 1304.4 69.52 1345 10 1384 10"/>
  <path class="st0" d="M1950,1854v-101c0-.51,1.68-7.72,2.09-9.94.47-2.5-1.54-3.65,2.87-3.03l24.01,18c-.51,13.95,7.76,66.08,1.17,75.12-4.28,5.86-23.59,15.4-30.14,20.86Z"/>
  <path class="st0" d="M505.99,1358.02c3.08,4.08-22.32,20.85-26.91,21.73-18.9-7.52-48.02-10.02-65.58-18.26-7.36-3.45-11.59-30.79-15.49-39.49l107.98,36.01Z"/>
  <path class="st0" d="M2335.99,725.99l-107.95-36.99c6.02-4.92,19.96-18.74,26.92-19.18,5-.32,60.46,15.11,66.22,18.01,1.82.92,3.78,1.16,4.49,3.51l10.32,34.66Z"/>
  <polygon class="st0" points="1976 212.03 1866.01 247.99 1878.02 215.02 1945.89 190.99 1976 212.03"/>
  <path class="st0" d="M867.99,1802.01l-9.29,32.16-64.22,23.48c-11.23,1.9-23.49-16.73-34.47-19.69l1.16-4.09,106.81-31.86Z"/>
  <path class="st0" d="M2293,1258l44.68,55.44c2.45,8.33-9.06,29.14-10.69,38.58l-66.98-94.02h33Z"/>
  <path class="st0" d="M785.99,196.01l-1.99,111.03-2.96,2.93-26.63-21.39c-1.15-15.19.03-30.46-.33-45.67-.19-8.02-4.7-16.86-1.05-24.9,1.36-3,31.16-24,32.96-22.01Z"/>
  <path class="st0" d="M1352,2038l67.02-92.01c4.08-.85,2.8,1.6,3.9,4,1.91,4.16,9.36,25.48,8.71,28.54l-40.63,59.48h-39Z"/>
  <path class="st0" d="M858.6,1381.37c-6.53-5.61-13.5-20-20.56-26.37l64.01-28.14,9.07,21.1c-1.26,2.57-42.45,34.06-45.24,35.06-2.93,1.06-5.05.27-7.28-1.65Z"/>
  <polygon class="st0" points="1217.99 419.99 1223.8 486.71 1220.69 489.7 1200.1 491.91 1182.16 433.29 1217.99 419.99"/>
  <path class="st0" d="M1187.6,1552.39c3.37,5.73-14.83,49.56-15.82,59.39l-37.78-7.8c-3.05-3.54,14.66-26.41,17.61-31.37,5.76-9.66,10.33-20.22,16.34-29.76l19.65,9.54Z"/>
  <path class="st0" d="M1601.99,446.02l-34.23,59.74-20.9-9.75,15.61-57.52c4.61-5.74,31.73,7.35,39.52,7.54Z"/>
  <polygon class="st0" points="1988 1030 1989.98 1070 1922.23 1053.77 1926 1030 1988 1030"/>
  <path class="st0" d="M1842.04,1425.99c-10.25-18.63-26.65-32.4-40.07-48.52-1.03-1.23-2.38-1.6-3.93-1.5l1.24-4.13,16.01-13.63,50.25,34.71c.39,2.49-15.88,28.19-18.64,30.98-1.65,1.67-1.84,2.82-4.85,2.1Z"/>
  <path class="st0" d="M746,985c0-.52-2.48-1.53-1.07-3l3.86-1.86,65.23,14.89-4.12,22.87-61.57,1.78c-.29-1.45-2.33-3.95-2.33-4.68,0-10,.1-20,0-30Z"/>
  <path class="st0" d="M1516.01,1629.99c1.06-23.52-2.52-46.81-6.01-69.98l22.72-1.75,21.02,56.52-37.74,15.2Z"/>
  <path class="st0" d="M1875.65,666.37l20.36,28.58-64.09,26.23c-1.89-6.93-10.48-15.92-6.1-22.29,1.46-2.12,37.49-29.32,41.01-31.04,2.64-1.29,5.93-3.17,8.81-1.48Z"/>
  <path class="st0" d="M928.84,667.16c1.54,1.88,7.6,5.77,6.28,8.85-5.21,3.61-11.2,14.7-17.66,13.75-7.72-1.14-35.43-27.07-45.45-30.79-2.18-1.49-2.13-3.15-1.76-5.52.24-1.52,13.92-23.23,16.06-26.14,1.25-1.7,1.87-3.96,4.57-3.23,12.43,14.44,25.91,28.39,37.96,43.08Z"/>
  <path class="st0" d="M1622,1028h59l2.02,3.96-36.02,56c-3.26-.02-23.75-52.59-25-59.96Z"/>
  <polygon class="st0" points="1285.99 1264.01 1265.98 1324 1220.01 1270.99 1285.99 1264.01"/>
  <path class="st0" d="M1513.99,779.99l-63.97,6.01,18-60c3.34-.74,4.04,1.08,5.95,3.04,7.25,7.45,16.2,18.66,23.07,26.93,2.28,2.74,19.04,22.18,16.96,24.02Z"/>
  <path class="st0" d="M1619.99,1215.98l-63.98,24.01,14.01-63.99c14.24,11.89,33.07,22,46.63,34.34,1.96,1.78,4.26,1.85,3.34,5.63Z"/>
  <path class="st0" d="M1342,738.02c.74.72-10.44,11.6-11.97,13.01-8.45,7.78-24.41,23.05-33,29-1.69,1.17-1.98,2.78-5,1.97l-18.02-59.98,67.99,16.01Z"/>
  <path class="st0" d="M1631.99,911.99l-55.97-33.02c-.98-2.61,7.07-6.89,9.35-8.61,4.96-3.74,36.79-26.93,39.59-26.37,2.5.51,2.89,4.68,3.14,6.91,2.21,19.6.5,41.32,3.89,61.09Z"/>
  <path class="st0" d="M1108.01,1205.99l-3.99-69.99,55.94,35c-5.62,3.12-49.6,37.61-51.95,34.99Z"/>
  <path class="st0" d="M1179.99,808.01l-14,63.98-49.99-35.01c-.76-2.98,2.6-4.26,4.58-5.39,16.89-9.6,41.39-15.24,59.4-23.57Z"/>
  <path class="st0" d="M1443.98,1268l16.01,57.99-65.98-14c-2.19-1.99,7.22-10.4,8.94-12.04,6.97-6.7,27.07-25.61,33.95-30.04,2.45-1.58,3.98-2.5,7.08-1.91Z"/>
  <path class="st0" d="M1113.99,1021.99l-61.98-2,34.01-59.98c5.6,5.46,30.43,59.61,27.97,61.99Z"/>
  <path class="st0" d="M1452,2040h-52l31.02-54.02c4.73-.01,7.02,9.91,8.47,13.53,5.06,12.64,9.33,27.21,12.51,40.49Z"/>
  <polygon class="st0" points="376 792 392.02 742 433.03 788.01 431 792 376 792"/>
  <path class="st0" d="M473.99,1382.01c2.2,2.4-8.94,10.14-11.08,11.9-3.86,3.19-31.85,24.52-33.88,24.08l-17.01-49.99,61.97,14.01Z"/>
  <polygon class="st0" points="855.99 1840.01 839.98 1896 798.04 1865 855.99 1840.01"/>
  <path class="st0" d="M1938,185.98c-19.01,5.25-36.28,15.72-54.69,22.38-2.96,1.07-2.3,2.45-5.25-1.33l15.95-53.03c1.72-1.57,7.82,3.94,9.74,5.24,11.81,8.01,23.39,17.47,34.24,26.73Z"/>
  <path class="st0" d="M745.99,224.01l4,61.98-47.95-32.99c5.11-2.63,41.71-31.48,43.95-28.99Z"/>
  <path class="st0" d="M2031.99,1797.96l-41.96,28.03-6.01-61.99c2.37-2.48,19.26,10.08,22.62,12.36,5.51,3.74,19.3,12.83,23.26,16.74,1.67,1.65,2.82,1.85,2.1,4.86Z"/>
  <path class="st0" d="M2321.99,679.99c-16.11-4.44-40.1-6.09-54.97-12-2.28-.91-5.87-1.59-5.02-4.96l45.98-33.02,14.01,49.99Z"/>
  <path class="st0" d="M1334,10c2.17,1.92-25.74,45.73-28.82,50.24-1.39,2.03-.18,4.69-4.16,3.77l-19.02-54.01h52Z"/>
  <path class="st0" d="M1243.99,569.99c-1.61,1.6-33.81-19.53-35-21.98-2.9-5.95-.11-20.94-1.16-28.84-.96-7.25-5.97-13.61-5.84-21.16,34.78-5.91,23.4.06,26.04,24.96,1.85,17.36,9.88,31.16,15.96,47.02Z"/>
  <path class="st0" d="M2358,1258l-15.02,48.02c-3.3-.05-7.66-5.53-10.01-7.99-6.97-7.32-21.34-23.31-26.94-31.06-1.95-2.7-4.48-5.25-4.03-8.97h56Z"/>
  <path class="st0" d="M1913.98,1054c-13.79-3.07-28.66-9.32-42.99-9.59-10.21-.19-22.56,4.54-32.98,2.6,7.83-6.84,24.98-25.45,34.9-25.15,6.37.19,15.04,4.91,22.31,5.92,6.08.84,18.88-1.29,22.86,1.15,4.41,2.7-5.37,19.61-4.09,25.07Z"/>
  <path class="st0" d="M1193.98,1548c-1.52,1.4-22.12-10.84-22.1-14.98,15.74-19.6,22.03-37.5,26.18-62,.48-2.83-1.87-5.88,2.91-5.01l14.54,36.71c-8.24,14.67-20.03,27.59-21.53,45.28Z"/>
  <path class="st0" d="M1736.01,1318.01l39.97-.98c11.07,13.79,20.41,26.66,35.98,35.97l-20.7,14.74c-8.38-8.47-14.08-18.91-23.24-26.76-9.03-7.75-20.75-11.26-28.7-17.3-2.26-1.72-4.1-2.09-3.31-5.67Z"/>
  <path class="st0" d="M1535.98,584c-5.66-5.89-16.97-31.61-15.99-38.85.7-5.16,11.72-17.34,14.81-23.35,2.08-4.03,5.2-19.07,8.31-19.77l20.78,12.93c-16.22,20.11-25.77,43.06-27.91,69.03Z"/>
  <path class="st0" d="M1000,729.98l-42.02,1.04c-5.69-5.75-10.29-14.57-15.89-20.11-3.26-3.23-18.91-12.73-18.09-15.88l19.01-14.82c8.5,9.44,15.03,20.62,24.96,28.82,9.95,8.22,22.64,12.34,32.02,20.96Z"/>
  <path class="st0" d="M1817.98,704.01l7.2,24.09c-25.4,6.29-44.38,20.55-63.16,37.91,1.03-7.93,5.33-33.87,9.87-39.11,3.08-3.56,18.22-6.99,24.17-9.83,8.11-3.88,13.97-9.72,21.92-13.05Z"/>
  <path class="st0" d="M1533.99,1551.99l-26,.02c2.19-25.6-5.07-50.15-17.99-71.99,3.85-2.91,29.87,16.76,35.02,19.96,2.21,17.69,2.34,35.31,8.97,52.01Z"/>
  <path class="st0" d="M916.02,1344l-5.94-23.92c25.69-3.94,45.33-21.52,63.9-38.08l-11.03,39.95c-8.41,5.79-19.37,7.1-28.34,11.66-6.22,3.16-10.76,11.09-18.58,10.4Z"/>
  <path class="st0" d="M895.98,1000c2.6,3.05-26.62,26.93-29.44,27.69-5.73,1.55-22.37-6.51-29.7-7.53-6.69-.93-14.05.3-20.84-.17l7.26-23.85c24,7.12,48.19,11.46,72.72,3.86Z"/>
  <path class="st0" d="M1549.98,1239.99c-3.07,2.21-15.07-13.12-15.48-15.22-2.26-11.74,12.61-51.71,11.52-66.77l17.5,15.23-13.54,66.76Z"/>
  <path class="st0" d="M1627.99,916.04c3.29,4.53-16.25,12.79-20.03,11.09l-57.96-33.1,20.5-9.74,57.48,31.75Z"/>
  <path class="st0" d="M1507.53,803.52c-2.13,1.25-42.4,6.85-48.87,7.64-6.07.74-12.49.76-18.65.83-.9-.79,5.2-16.44,6.97-18.01,7.19-6.37,55.9-5.5,67.98-9.99l2.06,3.97c-3.45,2.36-7.33,14.29-9.49,15.56Z"/>
  <path class="st0" d="M1295.99,1236.01c1,.92-8.23,20.7-11.3,21.68l-66.68,6.3,10.43-18.68,67.55-9.3Z"/>
  <polygon class="st0" points="1592.02 1026 1614.13 1030.87 1641.13 1089.93 1639.03 1093.94 1619.04 1085.96 1592.02 1026"/>
  <path class="st0" d="M1386.01,1305.99l-1.05-21.92,48.04-46.03c2.83-.09,6.71,20.49,3.98,23.93-15.94,12.11-29.25,28.95-44.97,41.04-2.01,1.54-2.54,3.88-6,2.98Z"/>
  <path class="st0" d="M1183.99,1152.03l-1.24,4.1-19.24,7.53c-15.68-10.84-39.56-18.96-54.2-29.97-2.28-1.71-4.07-2.12-3.3-5.67,5.36.15,11.12-4.96,15.52-5.68,10.93-1.8,48.98,26.17,62.47,29.69Z"/>
  <path class="st0" d="M1187,808.04c4.21,4.7,12.92,12.68,13.11,18.84.27,8.82-7.48,45.69-10.07,56.16-.65,2.63.15,5.1-3.03,6.91-5.63-3.82-14.89-9.47-15.11-16.84s9.12-50.17,11.77-58.45c.81-2.53.62-4.98,3.33-6.63Z"/>
  <path class="st0" d="M1144,1021.98c-1.84,1.35-20.47-1.68-23.02-3.96-2.25-2.01-23.12-48.34-25.41-54.59-.92-2.51-2.14-4.54-1.55-7.43l20.91,6.07,29.08,59.9Z"/>
  <path class="st0" d="M1300.01,809.99l-3.08-21.91,50.04-44.08c4.56.96,3.65,18.01,1.99,21.95-15.82,10.91-28.41,29.86-42.94,41.06-2.01,1.55-2.54,3.87-6,2.98Z"/>
  <path class="st0" d="M1218,6.02c-.5,2.99-3.67,3.85-6.01,4.97-17.53,8.44-40.76,12.85-59.04,20.33l-18.94-22.35,83.98-2.95Z"/>
  <path class="st0" d="M2154,1711.97l-67.99,48.02,38.01-57.04c3.41-2.71,31.95,6.12,29.97,9.02Z"/>
  <path class="st0" d="M1776,64l68,49.98c-23.09-4.97-46.39-11.69-68-20.98v-29Z"/>
  <path class="st0" d="M2263.98,488c4.75,24.89,17.76,49.15,23.63,73.42.7,2.88,4.37,3.1-.61,6.54l-40.77-53.39,17.75-26.57Z"/>
  <polygon class="st0" points="2407.99 1116.01 2380.02 1196 2377.91 1127.32 2407.99 1116.01"/>
  <path class="st0" d="M470.01,1559.99l-24-77.98c4.33-1.01,4.44,2.41,6.42,4.56,4.18,4.52,34.49,44.06,35.26,46.89,1.12,4.08-.47,5.94-2.02,9.22-1.13,2.38-13.11,20.03-15.66,17.3Z"/>
  <polygon class="st0" points="647.99 290.01 609.99 347.12 580 339.98 647.99 290.01"/>
  <path class="st0" d="M356,854v67c-1.99,3.17-28.06,13.09-28.03,9.97,10.19-21.02,12.92-54.9,23.55-74.42,1.28-2.36-.07-3.34,4.48-2.55Z"/>
  <path class="st0" d="M957.72,1954.28c.46,8.75.19,17.46.79,26.24.15,2.26,4.03,3.95-1.47,3.46-17.78-15.78-43.64-27.53-60.84-43.17-2.22-2.02-5.02-2.95-4.18-6.8l65.71,20.27Z"/>
  <path class="st0" d="M1600,2042h-82c.54-3.48,3.98-3.49,6.45-4.55,6.84-2.93,52.87-19.55,56.65-19.36,2.23.11,3.71,1.06,4.94,2.87l13.96,21.05Z"/>
  <path class="st0" d="M1688,2044h-75c-5.3,0-14.15-15.75-18.99-19.01.76-1.89,5.07-1.1,7.06-1.08,12.84.15,69.67,10.08,81.82,14.19,3.29,1.11,5.8,1.5,5.1,5.9Z"/>
  <polygon class="st0" points="1571.99 386.01 1564.68 406.09 1489.99 407.99 1490 402.04 1571.99 386.01"/>
  <path class="st0" d="M1102.02,454l3.98-11,50.97-54.99c2.51.6,8.86,18.46,6.08,21.97l-61.03,44.02Z"/>
  <path class="st0" d="M719.53,1028.48l22.46,71.51c-4.05.7-5.7-2.58-7.67-5.31-13.9-19.4-23.8-46.05-38.28-65.69.2-4.57,19.89-3.86,23.48-.51Z"/>
  <path class="st0" d="M1576.01,1662l-5.05-22.08,61.02-43.92-1.87,9.11c-17.88,16.12-31.48,36.73-48.14,53.86-1.9,1.96-2.61,3.78-5.95,3.03Z"/>
  <polygon class="st0" points="906 1453.98 895.94 1453.06 826.04 1421 844.64 1408.33 906 1453.98"/>
  <path class="st0" d="M1907.99,626.03c2.38,3.16-15.81,16.02-20.04,13.2l-57.91-42.23,6.01-2.1,71.94,31.13Z"/>
  <path class="st0" d="M1919.99,1332.01l-5.99,78.99-4.93,4.97-14.67-14.58c9.05-18.62,11.77-49.62,21.13-66.84,1.27-2.34-.05-3.37,4.47-2.54Z"/>
  <path class="st0" d="M822.02,632c5.76,3.76,18.31,9.29,17.96,16.77l-22.98,69.19-3.06-8.88,8.08-77.08Z"/>
  <path class="st0" d="M1246,1642c-.92,3.4-4.01,4.85-7.04,5.96-11.66,4.27-61.75,15.27-73.96,16.08-4.99.33-1.43-4.67-.37-8.41,1.28-4.52,3.27-10.04,6.37-13.63h75Z"/>
  <path class="st0" d="M2037.99,1021.99l-21.71-.27-24.28-71.7c4.37-.63,5.21-.01,7.73,3.25,10.24,13.26,26.32,43.62,34.59,59.41,1.56,2.98,4.02,5.73,3.67,9.31Z"/>
  <path class="st0" d="M2226,1658.02l-62.14,47c-3.41,1.27-25.88-3.73-25.82-6.02l87.96-40.98Z"/>
  <path class="st0" d="M501.99,1643.99c-4.26.82-4.66-1.99-6.11-4.87-9.44-18.69-12.01-47.03-21.51-66.63l9.66-22.49,5.61,3.35,12.35,90.63Z"/>
  <path class="st0" d="M1125,6l14.98,17.03c.44,3.48.12,3.08-3.01,3.04-16-.21-69.77-11.04-86.33-15.8-3.38-.97-5.57,1.51-4.64-4.27h79Z"/>
  <path class="st0" d="M2388.01,1117.99l45.97-85.99c-3.22,25.44-15.72,49.73-22.36,74.62l-2.8,3.2-20.81,8.17Z"/>
  <path class="st0" d="M2249.97,499.99c-3.41,3.37-3.36-.63-3.93-2.99-6.94-28.73-7.49-63.46-12.02-93.01,3.52.82,4.27,4.67,5.51,7.46,3.3,7.42,20.01,57.82,20.41,63.78.26,3.83-7.99,22.79-9.98,24.75Z"/>
  <path class="st0" d="M1029.99,2035.99c-3.35.65-5.3-1.65-7.78-3.2-19.61-12.24-37.37-28.42-56.35-41.65l-1.96-6.03.11-18.13,65.99,69.01Z"/>
  <path class="st0" d="M596,348.02l-2.58,4.46-83.41,39.51c-.78-3.74,1.85-4.84,4.15-6.83,6.64-5.76,50.39-38.11,55.95-40.12,8.09-2.92,17.46,2.8,25.9,2.98Z"/>
  <path class="st0" d="M1771.99,81.99l-66-64.99c-3.42-1.55.08-5.01,1.01-4.96,3.95.2,52.51,40.35,61.15,44.81l3.84,25.14Z"/>
  <path class="st0" d="M348,932.02c-14.87,25.43-26.91,55.64-43.05,80-1.53,2.31.51,5.17-4.94,3.97l23.85-74.62,24.14-9.35Z"/>
  <path class="st0" d="M1012,736l-13.12,23.98c-1.62.35-25.29-15.63-27.85-18.01-1.92-1.78-4.44-5.97-.03-5.97h41Z"/>
  <path class="st0" d="M1751.98,776c-3.61-2.64-22.06-18.89-19.96-21.96l31.97-22.04-12,43.99Z"/>
  <path class="st0" d="M1517.97,556.01l14.02,41.98-27.99-4c4.08-11.32,5.7-23.94,9.79-35.2,1.01-2.77-.69-3.41,4.18-2.78Z"/>
  <path class="st0" d="M1511.99,1454c.25,11.11,7.79,22.16,10.36,32.71.6,2.48,2.91,2.2-1.34,5.25l-34.99-24.98c-.9-4.04,1.59-2.78,4.01-3.87,2.78-1.25,21.15-9.98,21.96-9.11Z"/>
  <path class="st0" d="M1857.99,1020.01c.76,3.34-1.07,4.05-3.03,5.95-4,3.89-22.67,18.85-26.95,21.06-8.86,4.59-5.58-21.4-7.99-27.03,11.58,2.98,25.31-1.81,37.97,0Z"/>
  <path class="st0" d="M1250,583.98l-25.89,9.99-12.1-35.95c1.61-1.67,39.39,24.11,37.98,25.97Z"/>
  <path class="st0" d="M1001.83,1295.78l-29.82,20.21,10-41.98c2.58-2.34,22.52,17.9,19.82,21.77Z"/>
  <path class="st0" d="M1229.96,1456.08l-10.95,37.91c-3.37-5.59-17.31-40.84-14.99-43.99l25.94,6.08Z"/>
  <path class="st0" d="M1768,1311.98c-15.43-.28-30.73-.18-45.99,2.01-1.26-1.13,12.93-25.97,14.99-25.96l31,23.95Z"/>
  <path class="st0" d="M876,1028c3.77-4.83,31.53-27.93,34.98-28.02l3.02,28.02h-38Z"/>
  <path class="st0" d="M922.28,1027.72l-2.26-21.72,29.94,19c.08,4.75-23.35,2.88-27.67,2.72Z"/>
  <path class="st0" d="M1239.99,1422.01l-7.92,27.17-20.06-3.21c2.4-3.85,24.52-27.57,27.99-23.97Z"/>
  <path class="st0" d="M1499.98,1422.01l7.77,24.79c-.66,2.9-18.95,9.96-19.74,9.2,1.75-3.55,5.08-39.2,11.97-33.98Z"/>
  <polygon class="st0" points="1239.91 625.95 1234.03 626 1226.25 602.96 1245.98 592 1239.91 625.95"/>
  <path class="st0" d="M1718.02,1302c-2.3-11.26-12.58-20.22-12.01-31.99,2.63-2.72,20.45,10.78,23.05,13.95l-11.04,18.04Z"/>
  <path class="st0" d="M1029.99,1270.01c2.74,2.4-17.62,17.47-21.02,18.01-5.77.04-10.21-11.92-14.96-15.03l35.98-2.98Z"/>
  <path class="st0" d="M1740,775.98l-34,4.01c-4.56-4.61,16.53-16.14,19.3-19.82,4.31-.79,11.67,12.51,14.7,15.81Z"/>
  <path class="st0" d="M1494,625.98l7.88-25.15c2.82-2.09,20.16,1.73,20.08,4.17-5.15,3.82-21.3,25.88-27.96,20.98Z"/>
  <path class="st0" d="M1014.02,746c1.53-1.16,14.51,25.55,15.11,27.91.89,3.55.94,3.63-2.12,6.04l-20.83-15.33,7.85-18.62Z"/>
  <path class="st0" d="M1814,1022l.98,20.02c-9.19-4.73-25.64-9.68-28.98-20.02h28Z"/>
</svg>