<?xml version="1.0" encoding="UTF-8"?>
<svg id="Layer_0_xA0_Image" xmlns="http://www.w3.org/2000/svg" version="1.1" viewBox="0 0 2732 2048">
  <!-- Generator: Adobe Illustrator 30.2.1, SVG Export Plug-In . SVG Version: 2.1.1 Build 1)  -->
  <defs>
    <style>
      .st0 {
        fill: #d5b98b;
      }
    </style>
  </defs>
  <path class="st0" d="M1296,0c-.04,16.66-.04,33.33-.14,49.99-.07,10.93-.15,10.34-11.01,10.55-25.65.5-51.3,1.57-76.94,2.49-18.98.68-37.95,1.38-56.92,2.32-5.12.25-6.91-3.23-9.06-6.55-12.11-18.75-24.18-37.53-36.27-56.3-.54-.84-1.1-1.67-1.66-2.5,64,0,128,0,192,0Z"/>
  <path class="st0" d="M1438,2048c.37-14.6.75-29.2,1.12-43.8.06-2.33.02-4.66.11-6.98.37-8.94.55-8.66,9.96-8.91,36.22-.94,72.43-2.15,108.64-3.3,7.97-.25,15.97-.3,23.9-1.06,4.98-.48,8.06,1.09,10.69,5.25,12.41,19.67,25.03,39.2,37.58,58.78h-192Z"/>
  <path class="st0" d="M862.61,760.63c-31.89-23.68-62.59-46.45-93.27-69.26-42.49-31.59-84.96-63.2-127.43-94.82q-12.88-9.59-3.04-22.12c24.38-31.24,48.73-62.5,73.09-93.76,1.43-1.84,2.86-3.68,4.32-5.5,2.73-3.4,5.92-4.11,9.58-1.5,1.9,1.35,3.77,2.74,5.59,4.19,68.5,54.03,137,108.07,205.49,162.12,1.57,1.24,3.19,2.42,4.66,3.77,4.95,4.55,5.45,8.3,1.85,14.05-1.06,1.69-2.37,3.21-3.6,4.79-23.07,29.73-46.13,59.47-69.24,89.16-2.2,2.82-4.78,5.33-8,8.88Z"/>
  <path class="st0" d="M1857.36,739.31c-6.44-.25-9.44-3.52-12.17-7.58-11.51-17.13-23.19-34.15-34.79-51.23-10.29-15.15-20.59-30.29-30.82-45.48-5.38-7.98-5.49-8.27,2.4-13.92,42.48-30.45,85.03-60.8,127.6-91.13,29.29-20.86,58.65-41.62,87.98-62.42,1.09-.77,2.17-1.55,3.26-2.3,10.86-7.47,11.28-7.34,18.49,3.35,22.53,33.39,45.11,66.76,67.67,100.13,1.3,1.93,2.62,3.85,3.9,5.8,2.63,3.99,2.26,7.52-1.72,10.4-2.43,1.75-4.9,3.44-7.39,5.11-71.71,47.88-143.43,95.77-215.16,143.62-3.28,2.19-6.74,4.12-9.25,5.66Z"/>
  <path class="st0" d="M1587.36,508.49c-1.83-.59-4.37-1.33-6.87-2.23-36.03-12.93-72.05-25.89-108.08-38.84-1.57-.56-3.14-1.11-4.66-1.8-3.53-1.61-4.94-3.93-3.36-7.98,1.8-4.63,2.9-9.52,4.49-14.23,27.02-80.12,54.06-160.22,81.11-240.33q5.42-16.06,21.33-10.25c36.3,13.18,72.61,26.32,108.91,39.48,2.82,1.02,5.61,2.11,8.41,3.18,4.61,1.77,5.94,4.97,4.21,9.55-.71,1.87-1.3,3.78-1.99,5.65-30.33,82.13-60.66,164.26-90.99,246.38-.69,1.87-1.39,3.75-2.14,5.6-1.74,4.32-5.27,5.7-10.36,5.82Z"/>
  <path class="st0" d="M803.6,1107.26c-21.34,0-41.6.19-61.85-.03-70.64-.78-141.28-1.68-211.92-2.56q-16.76-.21-16.2-17.13c1.34-39.96,2.68-79.93,4.04-119.89.38-11.2,1.05-12.02,12.28-11.59,57.94,2.2,115.87,4.54,173.8,6.83,28.3,1.12,56.6,2.23,84.9,3.34,3,.12,6.01.08,8.99.34,8.22.73,11.14,3.76,11.07,12.19-.11,11.99-.54,23.99-.89,35.98-.79,26.65-1.57,53.29-2.51,79.93-.15,4.17-1.11,8.31-1.71,12.59Z"/>
  <path class="st0" d="M1620.86,1535c17.3,55.2,34.12,108.81,50.9,162.44,10.24,32.72,20.4,65.46,30.6,98.19q5.28,16.95-11.14,21.66c-37.1,10.68-74.2,21.38-111.3,32.07-2.88.83-5.75,1.68-8.66,2.4-4.24,1.05-7.21-.52-8.59-4.66-1.16-3.47-2.09-7.02-3.08-10.54-23.13-82.01-46.25-164.02-69.37-246.03-.54-1.92-1.13-3.83-1.6-5.77-2.09-8.63-.2-12.26,8.48-14.9,15.28-4.65,30.64-9.06,45.98-13.52,21.74-6.31,43.47-12.61,65.24-18.81,3.73-1.06,7.61-1.56,12.54-2.54Z"/>
  <path class="st0" d="M1872.35,1288.99c2.3,1.73,3.82,2.9,5.37,4.04,39.64,29.26,79.31,58.46,118.91,87.78,31.31,23.18,62.53,46.48,93.79,69.73,1.87,1.39,3.76,2.76,5.6,4.19,9.35,7.32,9.38,7.98,2.16,17.22-25.2,32.28-50.37,64.59-75.56,96.89-1.64,2.1-2.99,4.72-5.14,6.03-1.93,1.18-5.04,1.72-7.13,1.03-2.71-.9-4.99-3.2-7.33-5.05-68.24-53.82-136.46-107.65-204.69-161.48-1.83-1.44-3.64-2.91-5.47-4.36-4.05-3.22-4.07-7.39-2.52-11.74.54-1.51,1.73-2.82,2.74-4.13,24.27-31.32,48.53-62.65,72.87-93.91,1.74-2.24,4.09-4.01,6.38-6.22Z"/>
  <path class="st0" d="M1117.38,514.28c-1.34-1.56-3.83-3.26-4.59-5.54-5.7-17.03-11.15-34.15-16.52-51.28-21.29-67.98-42.52-135.99-63.75-203.99-.99-3.17-2.02-6.36-2.64-9.62-1.28-6.74-.51-7.93,6.3-9.91,17.26-5.01,34.56-9.9,51.83-14.88,23.67-6.82,47.31-13.73,71-20.52,10.39-2.98,11.86-2.18,14.82,8.34,24.03,85.22,48.03,170.46,71.99,255.71,3,10.66,1.27,14.02-8.99,17.02-37.71,11.01-75.45,21.88-113.18,32.81-1.6.46-3.19.95-6.27,1.87Z"/>
  <path class="st0" d="M1271.71,1587.53c-1.83,5.96-3.08,10.44-4.56,14.84-27.66,82.01-55.35,164.01-83.03,246.01-.21.63-.36,1.29-.59,1.91-3.99,10.97-5.01,11.4-15.83,7.47-38.16-13.89-76.34-27.74-114.52-41.61-2.19-.8-4.37-1.61-6.57-2.38-4.71-1.65-5.88-5.03-4.55-9.52.76-2.55,1.69-5.05,2.61-7.55,29.86-80.88,59.73-161.76,89.6-242.64.58-1.56,1.15-3.12,1.78-4.67,3.57-8.87,7.08-10.63,16.2-7.38,25.4,9.04,50.74,18.26,76.12,27.39,12.22,4.4,24.5,8.62,36.62,13.26,2.73,1.04,4.91,3.52,6.72,4.87Z"/>
  <path class="st0" d="M877.44,1309.91c6.95-.02,9.75,3.62,12.44,7.61,10.8,16.01,21.68,31.97,32.54,47.95,10.85,15.98,21.73,31.94,32.55,47.94,5.78,8.55,5.94,8.86-2.11,14.65-36.22,26.05-72.54,51.97-108.89,77.84-35.27,25.11-70.61,50.1-105.93,75.15-1.9,1.35-3.77,2.75-5.72,4.03-8.77,5.75-9.87,5.5-15.71-3.15-22.92-33.94-45.87-67.87-68.8-101.81-1.49-2.21-2.95-4.44-4.39-6.68-2.21-3.44-1.34-6.36,1.67-8.75,2.08-1.65,4.29-3.15,6.51-4.63,72.56-48.44,145.13-96.88,217.71-145.29,3-2,6.18-3.7,8.12-4.86Z"/>
  <path class="st0" d="M2074.42,944.2c43.98,0,87.96-.05,131.94.03,15.59.03,15.78.35,15.27,15.53-1.34,39.96-2.69,79.92-4.04,119.88-.05,1.33-.04,2.67-.15,3.99-.69,8.2-2.22,9.73-10.63,9.49-14.65-.42-29.3-1.03-43.95-1.63-73.9-3.01-147.81-6.04-221.71-9.08-2.99-.12-6.18.15-8.9-.82-4.57-1.63-6.28-5.63-6.19-10.37.11-6,.19-11.99.39-17.99,1.11-33.63,2.24-67.27,3.38-100.9.07-2,.09-4.01.35-5.98.39-3.05,2.14-4.75,5.33-4.77,3.99-.02,7.98-.06,11.97-.06,42.31,0,84.63,0,126.94,0v2.67Z"/>
  <path class="st0" d="M1101.54,852.7c-2.17,4.44-4.39,8.85-6.5,13.31-9.36,19.86-18.68,39.75-28.04,59.61-1.88,3.99-4.58,4.79-7.86,1.98-2.25-1.93-4.04-4.41-5.96-6.71-43.15-51.65-86.24-103.36-129.53-154.89-3.33-3.97-4.2-6.97-1.18-11.35,12.83-18.66,25.52-37.42,38.17-56.2,2.03-3.02,4.54-3.74,7.71-2.51,2.48.96,4.87,2.15,7.28,3.29,57.2,27.06,114.33,54.27,171.68,81.03,8.43,3.93,13.09,8.79,15.83,18.16,11.29,38.67,23.8,76.98,35.85,115.42,10.66,34,21.3,68,31.95,102,.5,1.59,1.32,3.18,1.37,4.78.07,2.78.7,6.52-.79,8.16-2.69,2.97-5.03-.33-7.46-2.07-1.76-1.26-4.3-1.51-6.55-1.99-13.68-2.91-27.42-5.56-41.04-8.7-5.42-1.25-10.98-2.9-15.73-5.65-2.69-1.56-4.53-5.48-5.66-8.73-11.92-34.28-23.61-68.64-35.39-102.97-5.29-15.41-10.64-30.79-15.96-46.19-.72.07-1.45.14-2.17.21Z"/>
  <path class="st0" d="M1283.81,1330.08c13.94,2.04,25.71,3.91,37.53,5.45,14.84,1.92,29.71,3.57,44.56,5.32,4.9.58,6.34,2.83,4.38,7.43-.91,2.12-2.28,4.05-3.52,6.03-36.13,57.54-72.32,115.04-108.31,172.66-2.55,4.08-5.06,5.68-9.69,4.32-22.03-6.48-44.08-12.88-66.15-19.22-4.87-1.4-4.69-5.03-4.24-8.76,1.2-9.92,2.54-19.82,3.82-29.72,7.34-57.13,14.69-114.27,22.02-171.41.48-3.71,1.38-6.74,4.91-9.18,25.73-17.82,51.32-35.85,76.86-53.94,38.33-27.14,76.58-54.38,114.87-81.58,1.63-1.16,3.1-2.77,4.91-3.38,2.6-.88,5.93-2.16,8.08-1.25,3.13,1.33,1.16,4.3.24,6.87-.72,2.01-.32,4.5-.09,6.75,1.52,14.91,3.13,29.81,4.68,44.71.24,2.31.5,4.63.46,6.94-.14,7.81-3.81,13.01-10.28,17.79-39.66,29.27-78.95,59.05-118.36,88.67-1.57,1.18-3.04,2.49-6.7,5.52Z"/>
  <path class="st0" d="M1051.41,1041.99c1.49,8.47,2.9,16.95,4.47,25.41,3.29,17.67,6.65,35.32,10.04,52.97,1.1,5.7-1.03,8.01-7.16,6.59-12.98-3-25.87-6.38-38.79-9.63-54.58-13.76-109.12-27.65-163.77-41.12-6.03-1.49-7.35-4.66-7.45-9.78-.28-14.33-.57-28.66-.94-42.99-.19-7.32-.45-14.65-.85-21.96-.34-6.26.19-7.36,6.58-8.78,6.82-1.52,13.73-2.65,20.61-3.94,59.26-11.1,118.53-22.12,177.74-33.44,5.49-1.05,8.98.08,13.45,3.48,30.49,23.21,61.35,45.95,92.11,68.81,31.29,23.26,62.61,46.49,93.92,69.74,2.14,1.59,4.59,2.94,6.25,4.94,1.32,1.58,2.57,4.24,2.11,5.94-.33,1.2-3.55,1.72-5.54,2.33-2.12.66-4.45.76-6.46,1.64-13.71,6.05-27.33,12.33-41.06,18.34-3.29,1.44-7.12,1.67-10.34,3.22-5.81,2.8-9.98.25-14.54-2.97-39.76-28.05-79.6-55.97-119.44-83.91-2.95-2.07-6-3.97-9.01-5.96-.65.35-1.3.71-1.94,1.06Z"/>
  <path class="st0" d="M1806.17,742.47c-2.65,3.23-4.94,6.41-7.6,9.23-43.64,46.35-87.48,92.51-130.86,139.1-6.46,6.94-12.72,9.48-22.3,9.32-75.31-1.26-150.64-1.8-225.96-2.58-3-.03-6.1.29-8.96-.39-1.99-.47-4.58-2.05-5.15-3.73-.42-1.22,1.93-3.48,3.2-5.17,1.33-1.76,3.13-3.21,4.23-5.09,7.38-12.67,14.49-25.49,21.98-38.09,2.16-3.63,5.91-6.35,7.83-10.06,2.7-5.25,6.99-5.34,11.76-5.42,21.33-.37,42.65-.9,63.98-1.24,27.33-.44,54.66-.73,81.99-1.13,3.93-.06,7.86-.39,12.77-.65-1.1-1.99-1.46-3.24-2.27-4.01-18.6-17.65-37.22-35.27-55.9-52.83-3.67-3.45-3.81-6.1.36-8.62,2.54-1.53,5.45-2.46,8.23-3.58,62.43-25.09,124.92-50.06,187.25-75.4,5.77-2.35,8.55-.56,11.68,3.58,11.26,14.88,22.65,29.67,34.01,44.47,3.01,3.91,6.13,7.74,9.73,12.28Z"/>
  <path class="st0" d="M1632.32,1198.46c5.64-11.5,10.43-20.97,14.97-30.56,6.97-14.73,13.78-29.54,20.65-44.32,1.86-4,4.46-4.87,7.77-2.17,2.04,1.66,3.64,3.88,5.35,5.92,43.36,51.91,86.63,103.89,130.16,155.65,3.79,4.51,3.76,7.79.67,12.28-12.65,18.38-25.17,36.85-37.61,55.38-2.04,3.04-4.37,3.92-7.59,2.6-2.77-1.14-5.47-2.44-8.18-3.73-57.49-27.21-114.93-54.55-172.54-81.51-7.51-3.51-11.36-8.02-13.83-16.18-15.88-52.59-32.54-104.95-48.96-157.37-6.27-20.02-12.59-40.02-18.88-60.03-.6-1.91-1.58-3.79-1.69-5.73-.15-2.8-.7-6.53.78-8.26,2.64-3.08,5.01-.08,7.34,1.98,1.3,1.15,3.63,1.22,5.53,1.62,14.33,3.04,28.71,5.88,42.98,9.16,5.09,1.17,10.34,2.7,14.76,5.34,2.71,1.62,4.66,5.41,5.79,8.64,9.58,27.34,18.87,54.77,28.28,82.17,7.13,20.79,14.29,41.56,21.45,62.34.52,1.51,1.21,2.96,2.79,6.78Z"/>
  <path class="st0" d="M1122,1223.96c1.76,1.89,3.42,3.89,5.3,5.67,17.65,16.69,35.34,33.34,53.03,49.99,3.51,3.3,3.31,6.09-1.06,8.54-2.88,1.62-6.08,2.7-9.16,3.93-61.79,24.78-123.6,49.5-185.33,74.44-4.62,1.87-7.94,2.4-11.29-1.96-14.01-18.2-28.26-36.22-42.12-54.54-1.16-1.53-.71-4.96.09-7.09.76-2.03,2.94-3.54,4.54-5.23,44.56-47.25,89.2-94.43,133.61-141.82,4.94-5.27,9.5-7.7,17.17-6.84,11.53,1.29,23.28.56,34.94.68,65.28.68,130.56,1.36,195.83,2.06,2.99.03,6.07-.12,8.93.57,3.95.96,5,5.48,1.44,7.3-4.45,2.27-5.7,6.29-7.81,9.9-6.88,11.79-13.53,23.72-20.48,35.46-1.83,3.08-4.88,5.45-6.61,8.57-3.11,5.61-7.94,6.1-13.56,6.17-46.63.61-93.25,1.4-139.87,2.12-5.62.09-11.24.01-16.86.01-.23.69-.47,1.38-.7,2.07Z"/>
  <path class="st0" d="M1684.07,1009.78c-3.92-22.16-7.38-42.1-11-62.01-1.19-6.53-2.84-12.98-4.23-19.48-.95-4.44.47-6.52,4.77-6.46,2.29.03,4.6.7,6.85,1.27,65.88,16.57,131.76,33.16,197.63,49.76,7.52,1.89,7.71,2.04,7.98,10.15.71,21.65,1.13,43.31,2.1,64.94.26,5.81-2.32,7.54-7.27,8.46-22.92,4.25-45.8,8.73-68.72,13.04-40.91,7.69-81.9,15.01-122.72,23.19-9.61,1.92-16.3.47-24.38-5.67-49.33-37.51-99.31-74.18-149.06-111.13-11.24-8.34-22.48-16.68-33.7-25.05-2.13-1.59-4.49-3.06-6.1-5.1-1.03-1.3-1.46-3.67-1.05-5.28.26-1.03,2.87-2.49,3.86-2.14,4.5,1.59,7.66-1.22,11.18-2.78,13.1-5.8,26.08-11.86,39.26-17.46,4.5-1.91,9.45-3.58,14.24-3.72,3.19-.1,6.77,2.27,9.66,4.28,40.16,28.04,80.22,56.22,120.32,84.35,2.85,2,5.81,3.83,10.4,6.85Z"/>
  <path class="st0" d="M1451.36,719.03c-11.99-1.78-21.36-3.33-30.78-4.55-17.16-2.23-34.35-4.27-51.52-6.38-4.8-.59-6.36-2.98-4.36-7.49,1.21-2.72,3.05-5.15,4.65-7.69,35.62-56.71,71.24-113.42,106.86-170.13,3.78-6.01,4.66-6.5,12.28-4.29,17.91,5.19,35.76,10.59,53.64,15.89,4.44,1.31,8.9,2.54,14.41,4.11-.34,5.4-.39,10.65-1.05,15.82-7.89,61.79-15.87,123.57-23.84,185.35-.26,1.98-.84,3.95-.88,5.93-.13,5.89-3.13,9.02-8.08,12.41-27.21,18.64-53.96,37.96-80.85,57.06-36.4,25.85-72.79,51.73-109.22,77.56-2.43,1.72-4.91,3.59-7.65,4.59-3.13,1.14-5.86-.87-5.22-3.94,3.47-16.73-2.55-32.79-3.01-49.22-.14-4.97-.3-9.94-.51-14.91-.28-6.57,2.98-10.72,8.18-14.58,39.03-29.04,77.86-58.36,116.75-87.6,2.8-2.1,5.53-4.29,10.22-7.93Z"/>
  <path class="st0" d="M1481.63,1319.99c22.85-12.3,45.78-24.45,68.49-36.99,7.72-4.26,9.44-3.82,10.21,5.27,1.2,14.28,2.19,28.57,3.15,42.86,3.64,54.52,7.16,109.04,10.98,163.55.36,5.19-.76,8.03-5.81,9.81-21.35,7.53-42.62,15.28-63.88,23.04-3.44,1.26-5.84.3-7.62-2.64-1.38-2.27-2.63-4.63-3.91-6.97-30.37-55.53-60.59-111.14-91.26-166.49-4.51-8.14-5.31-14.82-2.11-23.94,17.2-49.01,33.47-98.35,50.05-147.58,7.54-22.41,15.05-44.82,22.58-67.23.74-2.21,1.13-4.65,2.35-6.56,1.32-2.06,3.2-4.73,5.23-5.14,3.29-.66,3.81,2.5,4.4,5.3.37,1.74,1.89,3.36,3.17,4.78,9.8,10.9,19.81,21.62,29.45,32.67,3.65,4.19,7.17,8.78,9.4,13.79,1.26,2.83.39,7.08-.6,10.36-11.58,38.24-23.38,76.42-35.1,114.62-3.68,12.01-7.29,24.04-10.94,36.06.6.48,1.2.96,1.8,1.44Z"/>
  <path class="st0" d="M1255.45,727.99c-26.67,14.31-51.43,27.6-76.53,41.07-4.71-1.28-4.37-5.61-4.63-9.51-2.09-30.9-4.12-61.81-6.2-92.71-2.48-36.88-4.97-73.77-7.53-110.64-.63-9.1-.8-9.17,7.77-12.27,20.34-7.36,40.75-14.53,61.03-22.06,3.84-1.43,6.4-.99,8.47,2.37,1.4,2.27,2.65,4.62,3.93,6.95,30.18,55.22,60.16,110.55,90.74,165.56,4.93,8.87,5.65,15.98,2.2,25.84-19.45,55.61-37.88,111.57-56.66,167.42-5.41,16.09-10.81,32.18-16.23,48.27-.74,2.21-1.24,4.6-2.48,6.5-.97,1.5-2.9,3.24-4.42,3.26-1.41.01-3.15-1.9-4.2-3.35-2.05-2.84-3.32-6.29-5.6-8.89-9.44-10.77-19.16-21.29-28.72-31.96-1.76-1.97-3.27-4.17-4.81-6.32-4.17-5.8-4.25-11.6-2.05-18.58,14.56-46.36,28.64-92.88,42.84-139.35.94-3.06,1.65-6.19,3.07-11.59Z"/>
  <path class="st0" d="M1348.24,1973.4c0-3.97.03-7.55,0-11.12-.19-17.99-.47-35.99-.55-53.98-.04-9.61.5-9.98,10.26-9.99,51.65-.05,103.31-.11,154.96-.16,3,0,6.03-.21,8.99.15,6.09.74,9.88,4.23,10.39,10.09,1.32,15.27,2.61,30.54,3.36,45.84.46,9.45-.41,10.03-10.2,10.05-29.33.06-58.65,0-87.98-.01-3.57,0-7.14,0-11.64,0-.44,10.03-.9,18.94-1.21,27.85-.32,9.33-.43,18.66-.73,27.98-.37,11.63-2.8,14.09-14.26,13.93-52.98-.71-105.96-1.47-158.94-2.26-23.66-.35-47.31-.79-70.97-1.27-10.52-.21-11.26-1-11.7-11.5-.56-13.32-1.16-26.63-1.57-39.96-.33-10.61.37-11.36,11.3-10.96,47.29,1.71,94.57,3.59,141.86,5.28,8.97.32,17.95.05,28.64.05Z"/>
  <path class="st0" d="M951.72,1884.18c-30.75-22.31-59.76-43.37-89.54-64.98-4.04,5.09-7.74,9.7-11.37,14.36-7.77,10-15.43,20.09-23.28,30.02-6.95,8.79-10.27,9.26-19.07,2.67-61.35-45.95-122.67-91.94-183.98-137.95-8.51-6.38-8.75-7.6-3.11-16.14,7.54-11.4,15.16-22.73,22.87-34.02,5.63-8.25,6.78-8.37,14.83-2.06,41.97,32.9,83.91,65.82,125.88,98.72,2.6,2.04,5.27,3.99,8.45,6.38,1.9-2.24,3.73-4.08,5.21-6.17,10.98-15.5,21.84-31.09,32.84-46.57,6.06-8.52,6.49-8.48,14.78-2.46,42.09,30.51,84.2,61,126.3,91.5,2.16,1.56,4.59,2.89,6.37,4.81,3.22,3.49,6.21,7.75,3.37,12.48-9.55,15.93-19.51,31.62-30.55,49.4Z"/>
  <path class="st0" d="M975.39,143.15c-17.08,12.42-33.85,23.09-50.27,34.24-16.53,11.23-33.18,22.28-49.76,33.42-16.55,11.13-33.1,22.27-50.31,33.86,1.89,2.93,3.31,5.45,5.02,7.74,10.76,14.41,21.58,28.77,32.38,43.16,1.4,1.86,2.79,3.74,4.1,5.66,2.28,3.36,1.78,6.18-1.64,8.53-4.39,3.02-8.75,6.08-13.05,9.22-38.76,28.24-77.51,56.5-116.27,84.74-2.42,1.76-4.73,3.84-7.42,5.03-4.4,1.95-9.2,2.79-12.85-1.46-11.89-13.86-23.61-27.86-36.14-42.67,3.75-3.45,6.35-6.32,9.42-8.56,23.12-16.91,46.33-33.69,69.5-50.53,2.94-2.14,5.8-4.39,9.23-7-1.35-2.46-2.41-4.8-3.82-6.89-8.96-13.24-18.07-26.37-27-39.63-6.54-9.72-5.95-12.8,3.67-19.58,62.35-43.92,124.72-87.81,187.09-131.71,1.63-1.15,3.3-2.25,4.97-3.34,2.89-1.88,5.84-1.93,8.09.78,11.82,14.3,23.4,28.79,35.09,44.98Z"/>
  <path class="st0" d="M455.18,789.22c-7.59-2.72-14.73-5.25-21.86-7.82-10.33-3.73-20.69-7.4-30.98-11.23-10.38-3.87-11.73-6.74-8.1-17.37,24.71-72.46,49.45-144.92,74.22-217.36,3.5-10.23,4.52-10.71,15.32-7.71,12.83,3.57,25.65,7.15,38.43,10.89,9.64,2.82,10.16,3.95,6.72,13.37-18.39,50.34-36.82,100.67-55.22,151-1.12,3.06-2.08,6.18-3.36,9.99,7.22,2.31,13.81,4.47,20.44,6.52,14,4.31,28.04,8.49,42.01,12.87,9.3,2.91,9.6,3.8,6.74,12.6-15.92,49.08-31.79,98.17-47.68,147.26-1.02,3.16-1.87,6.43-3.29,9.41-2.72,5.7-6.74,7.95-12.98,6.49-15.22-3.57-30.4-7.35-45.48-11.49-7.64-2.1-8.13-3.25-5.86-10.62,4.02-13.04,8.39-25.97,12.6-38.95,5.25-16.15,10.51-32.29,15.72-48.44.9-2.8,1.58-5.67,2.6-9.39Z"/>
  <path class="st0" d="M458.47,1299.94c19.1-6.52,37.04-12.64,54.98-18.76,2.84-.97,5.63-2.07,8.5-2.92,7.52-2.22,8.55-1.75,10.92,5.49,16.65,50.95,33.3,101.9,49.85,152.88,3.8,11.7,2.09,15.13-9.48,19.79-13.89,5.59-27.83,11.05-41.77,16.53-1.19.47-2.52.59-4.87,1.11-1.6-3.57-3.49-6.96-4.69-10.58-9.27-28.14-18.4-56.33-27.6-84.5-.82-2.5-1.78-4.95-2.96-8.23-4.34,1.1-8.45,2.03-12.5,3.19-13.76,3.96-27.46,8.09-41.23,12-10.91,3.1-13.92,1.59-17.11-8.75-22.72-73.47-45.39-146.96-68.02-220.46-3-9.73-2.34-10.9,7.61-14.61,12.48-4.66,24.99-9.22,37.51-13.75,9.99-3.61,10.98-3.11,13.91,7.19,14.22,49.95,28.39,99.92,42.6,149.87,1.26,4.44,2.65,8.85,4.35,14.52Z"/>
  <path class="st0" d="M2243.39,678.55c4.76-1.26,8.58-2.19,12.36-3.28,14.07-4.1,28.09-8.36,42.2-12.34,10.03-2.83,13.32-1.06,16.33,8.71,22.71,73.51,45.38,147.04,68.01,220.58,3.07,9.98,2.58,10.93-7.33,14.65-12.79,4.79-25.61,9.5-38.48,14.07-8.8,3.12-10.15,2.4-12.71-6.56-14.64-51.24-29.21-102.5-43.82-153.75-.99-3.46-2.05-6.9-3.36-11.29-4.17,1.29-7.6,2.26-10.97,3.42-16.07,5.5-32.12,11.06-48.19,16.57-12.72,4.36-12.67,4.32-16.7-8.07-15.89-48.77-31.83-97.53-47.75-146.29-.83-2.53-1.87-5.03-2.35-7.63-1.07-5.8,1.29-10.66,6.72-12.93,13.83-5.77,27.7-11.47,41.72-16.77,9.68-3.66,10.32-3.17,13.51,6.57,9.13,27.86,18.16,55.74,27.24,83.61,1.02,3.14,2.08,6.27,3.57,10.76Z"/>
  <path class="st0" d="M2279.36,1259.65c14.82,5.35,28.55,10.3,42.27,15.25,3.76,1.35,7.55,2.63,11.27,4.07,9.74,3.78,11.28,6.86,7.93,16.74-10.9,32.15-21.89,64.27-32.87,96.39-13.77,40.31-27.56,80.61-41.37,120.91-3.76,10.97-4.65,11.45-15.85,8.31-12.5-3.51-24.96-7.13-37.41-10.79-10.42-3.06-10.85-3.89-7.21-13.83,18.17-49.7,36.36-99.39,54.55-149.09,1.25-3.4,2.49-6.81,3.98-10.87-2.9-1.19-5.21-2.33-7.65-3.09-18.11-5.66-36.25-11.19-54.35-16.87-9.94-3.12-10.08-3.61-6.97-13.22,16.08-49.71,32.14-99.43,48.22-149.14.82-2.53,1.45-5.18,2.66-7.52,2.55-4.94,7.21-7.46,12.27-6.24,15.2,3.67,30.4,7.38,45.46,11.56,8.59,2.38,8.8,3.23,5.94,12.15-8.96,27.88-18.05,55.72-27.08,83.58-1.12,3.46-2.24,6.93-3.78,11.69Z"/>
  <path class="st0" d="M1910.32,1803.91c-12.18-16.24-23.75-31.64-35.3-47.05q-10.14-13.52,3.07-23.14c40.36-29.41,80.73-58.83,121.1-88.23,2.42-1.76,4.74-3.75,7.38-5.1,5.41-2.78,10.28-1.95,14.27,2.73,9.94,11.65,19.84,23.33,29.38,35.3,5.64,7.08,5.36,7.9-2.06,13.33-23.12,16.89-46.33,33.66-69.5,50.49-3.72,2.7-7.39,5.48-11.67,8.66,9.83,14.4,18.96,28.27,28.61,41.79,12.33,17.27,6.64,18.86-4.72,26.82-60.52,42.43-120.93,85.03-181.38,127.56q-11.75,8.27-20.55-2.9c-7.2-9.16-14.37-18.35-21.55-27.53-8.32-10.66-8.28-10.9,2.61-18.22,43.39-29.15,86.79-58.29,130.17-87.44,3.02-2.03,5.98-4.16,10.14-7.06Z"/>
  <path class="st0" d="M1940.91,267.45c-11.65,16.57-22.74,32.35-33.82,48.13q-9.69,13.8-22.98,4.14c-40.46-29.31-80.92-58.6-121.38-87.91-1.89-1.37-3.88-2.61-5.64-4.13-5.83-5.01-6.73-9.98-2.68-16.66,7.25-11.96,14.53-23.91,22.14-35.64,6.49-10,7.41-10.03,16.95-3.11,23.19,16.82,46.34,33.68,69.51,50.51,2.94,2.14,5.9,4.25,9.36,6.74,2.04-2.2,3.91-3.94,5.46-5.93,9.83-12.61,19.53-25.32,29.4-37.89,7.33-9.33,10.23-9.69,19.71-2.58,61.04,45.73,122.05,91.5,183.07,137.25,1.6,1.2,3.2,2.4,4.74,3.67,3.08,2.53,3.49,5.59,1.33,8.84-9.24,13.85-18.49,27.69-27.85,41.46-2.57,3.79-5.79,3.9-9.35,1.04-6.76-5.42-13.6-10.73-20.41-16.07-36.16-28.37-72.32-56.74-108.5-85.1-2.6-2.04-5.28-3.96-9.06-6.79Z"/>
  <path class="st0" d="M1309.49,84.57c.21-8.68.36-15.94.58-23.2.33-10.99.56-21.99,1.13-32.97.61-11.77,2.81-13.62,14.77-13.44,67.64,1.02,135.28,2.05,202.91,3.06,9.33.14,18.66.06,27.99.35,7.95.25,9.36,1.43,9.78,9.32.79,14.97,1.3,29.96,1.63,44.95.16,7.57-1.18,8.74-8.74,8.47-36.96-1.32-73.92-2.74-110.88-4.12-18.98-.71-37.96-1.42-56.94-2.09-1.29-.05-2.59.28-4.76.53-.18,2.96-.55,5.83-.5,8.69.29,17.33.69,34.65,1.04,51.97.05,2.66.12,5.33.01,8-.17,4.35-2.23,6.77-6.89,6.56-3.66-.17-7.33-.17-10.99-.16-49.32.09-98.64.2-147.96.29-3,0-6.03.17-8.98-.24-6.36-.89-9.77-4.08-10.26-10.27-1.19-14.94-2.27-29.9-2.94-44.88-.45-10.06.49-10.84,10.55-10.87,28.66-.06,57.32.02,85.98.04,3.96,0,7.92,0,13.5,0Z"/>
  <path class="st0" d="M627.59,1623.97c-6.34,9.1-12.16,17.17-17.66,25.45-9.01,13.55-17.71,27.3-26.83,40.77-.94,1.4-3.99,2.25-5.81,1.94-2.11-.36-4.02-2.19-5.88-3.57-23.01-17.08-46.01-34.17-68.96-51.33-8.51-6.36-8.63-7.34-2.15-15.92,21.68-28.73,43.38-57.43,65.14-86.09,7.18-9.45,10.21-9.86,19.59-2.68,73.3,56.1,146.58,112.22,219.84,168.36,7.56,5.79,7.69,6.64,2.49,14.51-4.22,6.39-8.51,12.75-12.89,19.04-6.17,8.85-9.96,9.45-18.79,2.72-36.56-27.89-73.07-55.85-109.6-83.78-12.42-9.5-24.85-18.98-38.5-29.41Z"/>
  <path class="st0" d="M2107.9,425.17c14.91-22.33,29.19-43.58,43.28-64.94,2.89-4.39,4.04-5.06,8.62-2.43,1.44.83,2.73,1.91,4.07,2.9,22.73,16.91,45.45,33.82,68.17,50.75,1.6,1.19,3.22,2.38,4.72,3.69,2.65,2.31,3.03,5.09,1.16,8.04-1.24,1.97-2.68,3.82-4.09,5.68-21.11,27.91-42.22,55.82-63.34,83.72-1.41,1.86-2.71,3.84-4.35,5.47-4.14,4.09-7.58,4.41-12.46,1.29-1.96-1.26-3.75-2.77-5.6-4.19-72.24-55.32-144.47-110.64-216.71-165.96-1.32-1.01-2.64-2.04-3.99-3.02-3.56-2.57-4.43-5.64-1.85-9.43,5.62-8.27,11-16.71,16.88-24.79,3.77-5.18,8.51-5.72,13.94-2.18,3.06,2,5.88,4.38,8.79,6.6,44.21,33.81,88.42,67.62,132.64,101.42,2.89,2.21,5.88,4.29,10.12,7.38Z"/>
  <path class="st0" d="M1709.06,1913.86c16.99,22.14,33.36,43.46,50.7,66.06-.93,1.11-2.35,3.7-4.51,5.25-24.66,17.65-49.39,35.2-74.2,52.64-6.01,4.23-8.29,3.91-12.4-1.96-21.64-30.82-43.2-61.69-64.62-92.66-5.43-7.85-4.25-11.29,5.06-17.7,65.31-45,130.63-89.99,195.94-134.98,10.7-7.37,21.37-14.79,32.11-22.11,7.57-5.16,8.37-5.07,13.87,1.77,5.01,6.23,9.93,12.55,14.74,18.93,6.2,8.22,5.65,12.18-2.84,18.07-26.56,18.42-53.21,36.72-79.82,55.07-23.04,15.89-46.08,31.8-69.11,47.71-1.35.93-2.58,2.04-4.93,3.91Z"/>
  <path class="st0" d="M2166.39,1543.07c17.9,5.35,34.72,10.5,51.61,15.38,7.95,2.3,16.02,4.23,24.11,6.01,3.76.83,5.05,2.87,4.48,6.35-.32,1.96-.97,3.87-1.61,5.76-9.13,27.12-18.25,54.24-27.46,81.34-3.32,9.76-4.52,10.33-14.58,6.87-33.98-11.69-67.95-23.42-101.89-35.21-11.25-3.9-12.61-6.72-8.73-17.72,30.66-86.92,61.34-173.83,92.05-260.73,3.43-9.71,3.94-9.95,13.59-7.25,7.05,1.97,14.09,3.98,21.1,6.07,11.01,3.28,12.76,6.62,8.91,17.54-18.98,53.99-38.03,107.96-57.04,161.94-1.42,4.05-2.71,8.14-4.54,13.65Z"/>
  <path class="st0" d="M416.11,1075.32c-2.93.8-5.47,1.33-7.9,2.18-19.18,6.7-38.34,13.46-57.51,20.2-.94.33-1.91.58-2.85.92-3.31,1.2-8.19,4.36-9.58,3.23-2.98-2.42-4.72-6.89-5.97-10.83-8.39-26.34-16.55-52.75-24.72-79.16-3.12-10.1-2.64-11.04,7.51-14.15,34.39-10.53,68.79-21.02,103.22-31.44,11.52-3.49,14.19-2.07,17.52,9.14,26.29,88.43,52.54,176.86,78.78,265.3,2.9,9.76,2.68,10.12-7.02,13.73-6.87,2.56-13.74,5.1-20.65,7.53-10.32,3.62-13.87,1.92-16.99-8.47-10.06-33.49-20-67.02-29.99-100.52-7.05-23.61-14.1-47.23-21.2-70.83-.65-2.15-1.62-4.2-2.64-6.82Z"/>
  <path class="st0" d="M1613.2,104.33c0-10.91.3-20.2-.07-29.46-.65-16.58-1.8-33.14-2.4-49.72-.06-1.7,1.82-4.22,3.46-5.04,1.91-.96,4.54-.6,6.86-.58,28.63.22,57.27.43,85.9.74,10.51.11,11.36.93,11.18,11.58-.6,36.29-1.31,72.57-2.05,108.86-.22,10.93-2.67,13.28-13.92,13.01-61.24-1.51-122.49-3.11-183.73-4.7-30.95-.8-61.91-1.62-92.86-2.48-10.3-.29-10.8-.77-11.19-10.68-.3-7.65-.51-15.31-.55-22.97-.06-10.23,2.61-12.83,13.14-12.75,8.99.07,17.98.35,26.96.57,49.93,1.21,99.86,2.43,149.78,3.63,2.92.07,5.85,0,9.47,0Z"/>
  <path class="st0" d="M2318.83,975.04c25.61-9.66,49.85-18.73,74.02-28.01,3.17-1.22,5.22-.56,6.66,2.11,1.09,2.03,1.77,4.3,2.46,6.52,8.46,26.99,16.91,53.99,25.31,81,3.31,10.64,2.79,11.69-7.77,14.9-34.07,10.36-68.15,20.68-102.25,30.96-12.45,3.76-14.81,2.46-18.57-10.2-26.19-88.04-52.35-176.09-78.5-264.14-2.8-9.44-2.44-10.1,7.22-13.66,6.56-2.42,13.15-4.75,19.74-7.07,11.42-4.03,14.78-2.4,18.24,9.2,16.28,54.53,32.49,109.08,48.74,163.62,1.31,4.41,2.79,8.78,4.71,14.77Z"/>
  <path class="st0" d="M568.67,506.26c-4.84-1.58-8.56-2.87-12.32-4-17.54-5.27-35.1-10.5-52.65-15.74-1.6-.48-3.21-.9-4.81-1.36-3.39-.98-9.23-1.36-9.65-3.07-.91-3.76.39-8.36,1.7-12.31,8.71-26.24,17.62-52.41,26.54-78.58,3.43-10.06,4.31-10.5,14.39-7.01,34,11.75,67.99,23.53,101.95,35.37,11.31,3.94,12.6,6.57,8.67,17.71-30.67,87.01-61.38,174.02-92.11,261.01-3.19,9.02-4.09,9.51-13,7.08-7.39-2.01-14.74-4.17-22.07-6.41-10.28-3.15-12.11-6.71-8.48-17.05,12.67-36.15,25.44-72.26,38.17-108.39,7.74-21.97,15.47-43.95,23.67-67.27Z"/>
  <path class="st0" d="M1026.37,135.08c-16.81-21.08-32.91-41.38-49.15-61.55-2.35-2.92-2.48-5.3.13-7.78,1.44-1.36,3.11-2.5,4.73-3.66,23.35-16.57,46.69-33.15,70.07-49.67,8.6-6.07,9.52-5.9,15.73,2.97,20.6,29.46,41.14,58.97,61.71,88.46.57.82,1.19,1.61,1.72,2.45,4.5,7.25,3.86,10.77-3.37,15.82-14.46,10.1-29.04,20.05-43.57,30.06-61.41,42.3-122.82,84.59-184.23,126.89-1.37.94-2.71,1.95-4.12,2.82-5.51,3.38-6.86,3.33-10.93-1.6-5.5-6.68-10.81-13.53-16.02-20.44-5.99-7.94-5.26-12.23,3.19-18.09,26.26-18.21,52.59-36.32,78.9-54.46,21.92-15.12,43.84-30.24,65.75-45.38,2.71-1.87,5.35-3.86,9.46-6.83Z"/>
  <path class="st0" d="M1121.93,1944.45c-.19,3.79-.46,6.39-.42,9,.33,19.33.7,38.65,1.11,57.98.06,2.99.23,6,.67,8.95,1.23,8.38.69,9.38-7.76,9.35-20-.08-39.99-.44-59.99-.71-8-.11-15.99-.3-23.99-.4q-15.24-.19-14.92-15.9c.59-30.32,1.16-60.64,1.73-90.97.08-4,.13-8,.25-12,.06-2,.03-4.03.4-5.97,1.08-5.75,3.57-7.89,9.44-8.27,1.99-.13,4,.01,6,.06,91.62,2.23,183.24,4.45,274.87,6.69,10.05.25,10.57.82,11.01,10.9.32,7.32.72,14.65.94,21.98.31,10.83-2.61,13.89-13.31,13.68-25.32-.51-50.65-1.11-75.97-1.74-33.98-.85-67.96-1.76-101.95-2.63-2.28-.06-4.57,0-8.11,0Z"/>
  <path class="st0" d="M1291.55,1562.9c-9.18,1.24-11.39-2.18-10.25-10.33.44-3.12,2.64-6.04,4.28-8.92,29.08-51.22,58.22-102.4,87.27-153.64,2.73-4.81,6.22-9.18,6-15.49-.14-4.1,4.08-5.36,7.12-2.51,1.66,1.55,2.89,3.63,4.06,5.62,30.84,52.13,61.67,104.26,92.44,156.43,5.61,9.51,4.36,12.24-6.7,13.2-62,5.37-124.02,10.55-184.22,15.65Z"/>
  <path class="st0" d="M836.06,969.85c.74-3.37,1.49-6.95,2.32-10.51,13.28-57.01,26.58-114.02,39.87-171.03.08-.32.09-.67.21-.97,1.48-3.48.56-8.71,5.68-9.6,4.93-.85,8.8,1.63,12.17,5.35,23.93,26.38,47.97,52.65,71.98,78.96,16.82,18.44,33.6,36.93,50.5,55.3,3.52,3.83,6.3,8.63,12.19,9.74,1.13.21,2.82,2.54,2.63,3.59-.31,1.66-1.68,3.59-3.16,4.46-1.93,1.13-4.39,1.44-6.66,1.94-58.1,12.99-116.21,25.96-174.31,38.94-1.95.43-3.87,1.04-5.84,1.3-5.76.74-8.01-1.46-7.57-7.46Z"/>
  <path class="st0" d="M1616.61,1509.04c-4.49,0-8.63-4.62-9.47-10.16-1.26-8.23-2.04-16.53-2.96-24.81-6.09-54.64-12.13-109.29-18.32-163.91-.32-2.81-2.14-5.41-2.91-8.21-.49-1.76-1.11-4.71-.3-5.33,1.53-1.18,4.06-1.41,6.17-1.36,1.56.03,3.1,1.09,4.63,1.75,54.73,23.68,109.46,47.36,164.18,71.06,13.4,5.8,13.74,7.82,2.87,17.23-45.35,39.28-90.71,78.55-136.09,117.79-2.72,2.35-5.71,4.37-7.77,5.94Z"/>
  <path class="st0" d="M1701.97,904.04c-1.13.39-2.39,1.23-3.6,1.14-2.06-.15-5.25-.31-5.81-1.49-.76-1.6.21-4.29,1-6.29.58-1.47,2.03-2.6,3.13-3.84,39.41-44.7,78.82-89.4,118.25-134.09,9.5-10.77,11.51-10.42,17.17,2.97,23.05,54.56,46.09,109.12,69.13,163.69.65,1.53,1.32,3.05,1.92,4.61,3.51,9.07-.44,14.07-10.34,12.61-6.57-.97-13.05-2.61-19.56-3.95-55.08-11.33-110.15-22.66-165.23-34-1.95-.4-3.89-.86-6.07-1.35Z"/>
  <path class="st0" d="M1442.27,486.11c11.14-.41,14.29,3.99,10.62,12.88-1.14,2.75-2.86,5.26-4.34,7.87-29.13,51.25-58.31,102.47-87.31,153.8-2.36,4.18-3.58,9.06-5.02,13.7-1.21,3.88-4.5,5.34-7.39,2.65-1.66-1.54-2.82-3.7-4-5.69-30.53-51.6-61.02-103.21-91.53-154.82-.34-.57-.7-1.13-1.03-1.71-5.05-9.09-3.69-11.98,6.36-12.84,55.42-4.76,110.85-9.45,166.27-14.18,6.31-.54,12.6-1.19,17.36-1.65Z"/>
  <path class="st0" d="M840.66,1105.62c1.7.28,4.01.57,6.29,1.03,58.96,12.15,117.91,24.37,176.9,36.39,4.4.9,9.11.21,13.65.55,1.78.13,4.29.58,5.02,1.77.77,1.26.23,3.75-.49,5.38-.78,1.76-2.38,3.17-3.69,4.66-39.61,44.94-79.24,89.87-118.86,134.81-.44.5-.87,1.01-1.32,1.5-7,7.62-10.05,7.24-14.07-2.18-9.42-22.02-18.67-44.11-27.98-66.18-14.22-33.72-28.43-67.44-42.64-101.15-.52-1.23-1.08-2.43-1.57-3.67-3.43-8.71-.91-12.7,8.77-12.91Z"/>
  <path class="st0" d="M1556.64,727.76c2.65-28.49,5.25-56.99,7.95-85.48,3.01-31.8,6.11-63.6,9.17-95.4.19-1.99.13-4.02.52-5.96,1.14-5.77,3.95-7.28,9.19-4.94,1.81.81,3.48,1.96,5.19,2.99,51.57,31.12,103.14,62.25,154.7,93.38.29.17.59.32.85.52,3.05,2.31,8.23,3.3,7.49,8.27-.71,4.82-4.34,7.85-8.93,9.91-30.35,13.62-60.64,27.39-90.94,41.12-26.06,11.81-52.13,23.6-78.14,35.52-2.93,1.34-5.85,3.12-8.1,5.37-2,2-3.78,4.47-6.5,2.6-1.54-1.06-1.93-3.86-2.72-5.92-.22-.58-.03-1.32-.03-1.98.11,0,.21.02.32.02Z"/>
  <path class="st0" d="M1898.94,1078.53c-.46,2.28-.85,4.58-1.38,6.85-13.61,58.3-27.21,116.59-40.9,174.87-.95,4.05-.35,9.65-5.32,11.02-5.68,1.57-9.88-2.18-13.64-6.31-40.1-44.06-80.23-88.08-120.46-132.02-3.94-4.3-7.05-9.48-13.57-11.2-3.74-.98-3.43-5.61.3-7.57,2.01-1.06,4.38-1.55,6.64-2.05,58.1-12.98,116.2-25.93,174.31-38.88,2.59-.58,5.2-1.33,7.83-1.44,4.77-.2,6.48,1.84,6.2,6.74Z"/>
  <path class="st0" d="M1153.79,751c-1.44,1.06-2.88,3.01-4.34,3.02-2.53.02-5.21-.84-7.6-1.87-55.36-23.9-110.68-47.88-166.01-71.85-1.83-.79-3.77-1.46-5.43-2.53-3.97-2.57-4.41-5.45-1.34-9.11,1.49-1.77,3.39-3.2,5.15-4.72,45.35-39.28,90.71-78.54,136.07-117.81.25-.22.49-.46.76-.65,3.14-2.2,5.59-6.92,10.09-4.97,4.45,1.93,6.47,6.17,6.99,11.27,1.79,17.57,3.9,35.1,5.85,52.65,4.9,44.04,9.73,88.1,14.79,132.12.44,3.79,2.4,7.4,3.68,11.09.32.92.72,1.81,1.33,3.35Z"/>
  <path class="st0" d="M982.82,1410.05c1.26-8.02,6.45-10.69,12.09-13.24,54.87-24.78,109.71-49.62,164.48-74.63,4.05-1.85,7.42-5.15,11.21-7.62,1.28-.84,3.32-2.06,4.23-1.59,1.48.77,2.98,2.66,3.29,4.3.48,2.55.1,5.3-.15,7.94-4.39,46.37-8.82,92.74-13.23,139.11-1.29,13.58-2.32,27.19-3.85,40.74-1.15,10.22-3.91,11.47-12.91,6.06-52.73-31.76-105.42-63.58-158.07-95.45-2.71-1.64-5.02-3.96-7.09-5.62Z"/>
  <path class="st0" d="M1093.84,521.64c-.74,1.8-1.38,4.04-2.54,5.97-.82,1.37-2.29,2.39-3.55,3.46-39.2,33.03-78.41,66.04-117.63,99.05-3.08,2.59-5.89,5.11-10.59,2.47-4.66-2.61-5.54-5.65-4.29-10.65,4.52-18.07,8.61-36.24,12.93-54.37,17.17-72.16,34.35-144.32,51.57-216.47,1.11-4.66.84-10.53,7.77-11.1,7.85-.65,7.77,6.07,9.34,10.73,18.28,54.21,36.42,108.48,54.57,162.73.84,2.52,1.51,5.09,2.42,8.17Z"/>
  <path class="st0" d="M852.39,784.15c-.64,2.85-.98,4.48-1.38,6.09-12.18,49.13-24.38,98.25-36.52,147.39-1.14,4.63-1.82,9.13-8.1,9.7-3.9.35-6.5-.65-8.08-4.16-.96-2.12-1.83-4.29-2.73-6.44-34.87-83.61-69.75-167.22-104.61-250.84-1.15-2.76-2.94-5.59-2.96-8.39-.02-2.56,1.32-5.87,3.23-7.49,1.43-1.21,4.76-.58,7.12-.13,1.5.29,2.79,1.73,4.15,2.7,46.93,33.47,93.86,66.94,140.78,100.43,1.9,1.35,4.08,2.54,5.45,4.33,1.72,2.25,2.75,5.03,3.66,6.79Z"/>
  <path class="st0" d="M1640.89,1526.29c1.9-2.55,3.59-5.78,6.14-8.05,7.96-7.09,16.25-13.8,24.4-20.67,30.08-25.32,60.15-50.65,90.22-75.97,1.53-1.29,3.1-2.52,4.6-3.84,3.17-2.78,6.26-2.83,10.02-.75,4.09,2.27,4.45,5.48,3.56,9.3-3.4,14.59-6.85,29.17-10.32,43.75-17.94,75.48-35.88,150.95-53.84,226.42-.69,2.91-.97,6.15-2.51,8.56-1.23,1.92-4.05,3.8-6.22,3.87-2.1.06-4.74-1.8-6.28-3.57-1.43-1.64-1.77-4.25-2.51-6.46-18.16-54.32-36.31-108.63-54.44-162.96-.94-2.82-1.68-5.7-2.83-9.64Z"/>
  <path class="st0" d="M1278.68,471.87c-1.29,0-3.69.36-5.93-.07-5.32-1.01-8.15-8.35-4.78-12.53,1.86-2.3,4.33-4.13,6.6-6.08,68.76-59.02,137.54-118.02,206.31-177.02,2.02-1.73,3.86-4.14,6.21-4.91,2.49-.82,5.97-.9,8.13.3,1.67.92,2.56,4.27,2.72,6.62.15,2.18-1.08,4.47-1.78,6.69-17.11,54.3-34.42,108.53-51.18,162.94-2.79,9.05-7.3,12.93-16.75,13.52-40.89,2.57-81.74,5.7-122.61,8.62-8.64.62-17.28,1.24-26.95,1.93Z"/>
  <path class="st0" d="M1872.09,753.85c3.5,2.01,6.7,3.74,9.8,5.63,77.38,47.15,154.76,94.32,232.13,141.5,2.27,1.39,4.53,2.81,6.76,4.26,2.9,1.89,3.63,4.59,2.81,7.83-.85,3.35-3.02,5.03-6.47,5.08-1.67.02-3.33.1-5,.11-57.32.55-114.63,1.09-171.95,1.64-1,0-2.01-.07-3,.02-7.37.67-11.67-2.65-14.35-9.58-6.97-18.01-14.4-35.85-21.68-53.74-11.66-28.69-23.37-57.37-35-86.08-3.97-9.81-3.87-9.9,5.93-16.68Z"/>
  <path class="st0" d="M832.57,1563.84c-1.66,0-3.65.58-4.92-.13-2.39-1.33-5.23-3.01-6.22-5.28-.76-1.73.47-4.97,1.8-6.84,1.48-2.08,4.05-3.39,6.2-4.97,45.26-33.5,90.52-67,135.79-100.49,11.06-8.18,11.17-8.19,22.91-.88,41.3,25.69,82.6,51.39,123.89,77.1,1.7,1.06,3.33,2.22,5.07,3.21,3.85,2.19,4.2,5.31,3.36,9.39-.86,4.13-3.34,5.44-6.97,5.75-12.28,1.06-24.56,2.16-36.84,3.16-55.12,4.49-110.24,8.97-165.37,13.42-26.23,2.12-52.47,4.18-78.71,6.26,0,.1,0,.2.01.3Z"/>
  <path class="st0" d="M1899.08,485.79c1.38-.06,5.14-.81,8.65-.17,2.16.39,4.88,2.55,5.61,4.54.72,1.98-.23,5.06-1.42,7.08-1.11,1.87-3.47,3.02-5.34,4.41-45.77,33.88-91.55,67.76-137.34,101.62-10.28,7.6-11.07,7.61-22.12.74-41.85-26.03-83.71-52.04-125.47-78.2-2.92-1.83-6.33-4.42-7.37-7.4-1.92-5.48,2.02-9.68,8.7-10.29,13.6-1.23,27.21-2.32,40.82-3.41,77.67-6.25,155.34-12.49,235.29-18.92Z"/>
  <path class="st0" d="M1882.57,1265.19c.71-3.31,1.07-5.27,1.55-7.21,12.06-48.81,24.11-97.63,36.21-146.43,2.09-8.44,3.22-9.35,9.07-9.75,3.45-.24,5.81.84,7.18,4.03.92,2.14,1.91,4.25,2.81,6.4,34.97,83.92,69.93,167.85,104.89,251.77.9,2.15,1.71,4.34,2.66,6.47,1.44,3.24.41,5.74-2.05,8.01-2.57,2.37-5.3,2.58-8.22.86-1.43-.84-2.76-1.86-4.11-2.83-47.2-33.65-94.41-67.31-141.6-100.97-1.62-1.16-3.5-2.19-4.65-3.74-1.7-2.29-2.85-5-3.73-6.62Z"/>
  <path class="st0" d="M1447.75,1577.92c3.99-.28,7.98-.54,11.97-.84,3.84-.29,6.18,1.42,7.68,4.97,1.48,3.48,1.46,6.42-1.51,9.01-1.76,1.53-3.49,3.1-5.25,4.62-69.04,59.24-138.08,118.47-207.13,177.7-1.77,1.52-3.58,2.99-5.38,4.47-2.7,2.23-5.39,2.04-8.25.2-2.9-1.86-4.08-4.25-3.04-7.61.69-2.23,1.32-4.47,2.02-6.7,17.03-53.99,34.06-107.97,51.11-161.96,4.02-12.74,4.57-12.96,18.22-13.92,46.53-3.29,93.05-6.7,139.57-10.06,0,.04,0,.08,0,.12Z"/>
  <path class="st0" d="M709.83,1129.3c28.32,0,56.64,0,84.96,0,13.01,0,13.46.23,18.36,12.3,18.55,45.66,37.1,91.32,55.58,137,1.67,4.12,4.87,8.28.01,12.69-3.06,2.78-5.98,4.13-9.8,1.87-2-1.19-4.01-2.38-6-3.59-77.35-47.17-154.71-94.34-232.06-141.52-2.56-1.56-5.57-2.79-7.4-4.99-1.44-1.73-2.31-4.96-1.72-7.04.58-2.04,3.06-4.15,5.19-4.98,2.35-.91,5.25-.47,7.91-.47,28.32-.02,56.64-.01,84.96-.01,0-.41,0-.83,0-1.24Z"/>
  <path class="st0" d="M771.99,951.41c-4.21.73-9.16-2.12-14.19-5.62-43.99-30.63-88.09-61.11-132.15-91.63-8.08-5.59-8.15-5.62-5.47-15.51,13.4-49.46,26.84-98.91,40.27-148.37.35-1.28.49-2.78,1.25-3.77,1.7-2.2,3.39-5.26,5.69-5.94,3.72-1.1,5.9,2.05,7.25,5.36,4.77,11.71,9.56,23.41,14.32,35.13,29.29,72.16,58.56,144.32,87.84,216.48,1,2.47,2.23,4.89,2.85,7.45,1.17,4.81-.66,6.81-7.66,6.4Z"/>
  <path class="st0" d="M747.58,1321.03c-27.32.54-54.65.9-81.97,1.76-5.98.19-9.14-1.61-11.25-7.21-18.55-49.25-37.29-98.43-55.97-147.63-.47-1.24-1.27-2.57-1.16-3.79.19-2.15.3-5.2,1.65-6.13,1.83-1.26,4.89-1.45,7.23-1.03,2.15.39,4.07,2.16,6.05,3.4,75.81,47.21,151.61,94.42,227.4,141.64,1.7,1.06,3.48,2.02,5.02,3.27,4.59,3.71,4.32,5.68-.37,8.98-5.07,3.56-10.48,4.9-16.67,4.97-26.66.32-53.32,1.01-79.97,1.56,0,.08,0,.15,0,.22Z"/>
  <path class="st0" d="M1961.47,1096.4c4.98,2.16,10.48,3.58,14.87,6.59,44.5,30.55,88.83,61.35,133.2,92.09,7.77,5.38,7.84,5.43,5.31,14.75-13.42,49.5-26.87,98.98-40.38,148.46-1.17,4.28-1.04,10.01-7.52,10.17-5.68.14-6.54-4.94-8.11-8.82-33.98-83.62-67.91-167.25-101.85-250.89-.63-1.54-1.31-3.09-1.67-4.7-1.1-4.91.43-6.61,6.14-7.65Z"/>
  <path class="st0" d="M1630.51,490.04c-1.66,0-3.34.11-4.99-.02-5.7-.44-6.6-2.21-4.97-7.7,1.68-5.7,5.23-9.53,9.88-13.05,43.02-32.58,85.92-65.32,128.86-98.01,7.18-5.47,7.31-5.56,14.83-.65,43.51,28.41,86.97,56.88,130.45,85.34.84.55,1.93.94,2.43,1.71,1.52,2.34,4.04,4.88,3.92,7.24-.18,3.68-3.61,5.06-7.32,5.33-14.29,1.02-28.56,2.23-42.85,3.25-75.42,5.41-150.84,10.79-226.26,16.18-1.33.09-2.66.14-3.99.21v.18Z"/>
  <path class="st0" d="M1006.29,341.92c-.38,1.62-.88,3.9-1.44,6.15-21.46,86.61-42.93,173.22-64.39,259.83-.32,1.29-.48,2.63-.86,3.9-2.34,7.77-3.94,7.91-10.61,3.27-3.85-2.68-5.99-5.78-7.47-10.02-18.08-51.88-36.28-103.71-54.41-155.57-2.73-7.81-2.67-8.31,3.83-13.55,40.74-32.81,81.53-65.54,122.31-98.3,1.04-.83,2.02-1.78,3.17-2.42,5.52-3.1,9.96-.37,9.87,6.71Z"/>
  <path class="st0" d="M1801.22,1430.06c6.67,4.25,10.91,9.77,13.54,17.42,17.43,50.66,35.3,101.17,53.01,151.73,2.92,8.35,3,8.47-4.13,14.21-40.46,32.58-80.96,65.1-121.45,97.63-1.3,1.04-2.52,2.47-4.01,2.9-2.04.58-5.01,1.29-6.3.29-1.77-1.37-3.12-4.25-3.23-6.55-.14-2.88,1.13-5.83,1.85-8.74,21.21-85.59,42.39-171.19,63.72-256.74,1.11-4.45.52-10.35,7-12.15Z"/>
  <path class="st0" d="M2138.11,886.25c-.23,4.79-3.61,7.52-7.63,6.39-2.5-.71-4.83-2.2-7.07-3.6-76.09-47.35-152.17-94.7-228.16-142.2-3.14-1.96-5.38-5.37-8.04-8.1,2.92-2.46,5.59-5.33,8.83-7.22,2.12-1.24,5.06-1.38,7.65-1.44,54.96-1.33,109.93-2.61,164.9-3.84,8.84-.2,8.99-.13,12.25,8.45,18.49,48.55,36.92,97.12,55.34,145.69.82,2.16,1.44,4.39,1.92,5.87Z"/>
  <path class="st0" d="M1343.09,1796.53c-24.97,1.2-49.93,2.46-74.9,3.53-4.11.18-9.29,1.91-11.55-3.28-2.48-5.68,2.42-8.35,5.92-11.29,68.58-57.75,137.17-115.5,205.82-173.16,3.07-2.58,6.53-8.09,10.69-4.46,2.85,2.49,3.32,8.19,3.93,12.59.34,2.42-1.17,5.13-1.94,7.68-15.53,51.68-31.06,103.35-46.61,155.02-2.62,8.7-2.64,8.83-11.48,9.31-26.62,1.43-53.25,2.75-79.88,4.11,0-.01,0-.03,0-.04Z"/>
  <path class="st0" d="M1255.23,441.48c-3.76-7.48-3.31-14.84-.86-22.84,15.48-50.63,30.59-101.37,45.82-152.08,2.9-9.65,2.99-9.79,13.03-10.26,46.59-2.22,93.19-4.4,139.78-6.62,5.99-.29,11.99-1.12,17.95-.88,2.51.1,6.22,1.81,7.05,3.77.84,2-.82,5.39-2.09,7.82-.86,1.64-2.9,2.67-4.43,3.96-68.07,57.29-136.12,114.6-204.24,171.82-3.35,2.81-6.15,7.53-12.01,5.33Z"/>
  <path class="st0" d="M1116.07,1563.13c-3.17,5.84-4.7,11.68-10.29,15.81-22.79,16.81-45.16,34.18-67.7,51.34-20.94,15.95-41.89,31.89-62.85,47.82-6.78,5.15-6.89,5.25-13.96.64-43.8-28.6-87.55-57.26-131.31-85.91-1.39-.91-2.87-1.78-4.02-2.95-3.61-3.67-2.69-8.51,2.15-10.29,2.44-.9,5.2-1.06,7.84-1.25,78.76-5.59,157.53-11.13,236.29-16.69,11.3-.8,22.59-1.69,33.9-2.42,2.28-.15,4.71-.11,6.85.56,1.27.4,2.1,2.2,3.09,3.33Z"/>
  <path class="st0" d="M504.1,915.17c-1.78-2.41-4.04-4.16-4.31-6.18-.33-2.44.78-5.19,1.68-7.65,34.1-93.91,68.25-187.8,102.4-281.69.57-1.56.88-3.41,1.92-4.57,1.42-1.58,3.32-3.23,5.26-3.62.91-.18,2.7,2.37,3.57,3.96,8.88,16.37,17.65,32.8,26.45,49.21,9.44,5.61,5.63,13.24,3.38,20.85-14.35,48.54-28.68,97.09-42.78,145.7-2.05,7.05-5.54,12.38-11.38,16.91-25.8,20.02-51.34,40.37-77.01,60.56-2.57,2.02-5.34,3.8-9.18,6.51Z"/>
  <path class="st0" d="M637.28,1328.21c-.72,3.29-1.22,6.25-2.02,9.12-9.01,32.06-18.06,64.12-27.15,96.16-1.15,4.04-1.34,9.63-6.95,9.59-5.61-.03-5.77-5.72-6.92-9.7-27.43-95.39-54.79-190.8-82.16-286.21-.46-1.6-1.36-3.22-1.29-4.8.11-2.44.89-4.86,1.38-7.29,2.3.65,4.73,1,6.88,1.98,18.39,8.37,35.67,19.3,55.54,24.19,4.04.99,5.05,3.89,6.17,7.02,4.71,13.17,9.4,26.35,14.08,39.54,13.16,37.04,26.32,74.07,39.46,111.11,1.11,3.12,2.03,6.31,2.97,9.26Z"/>
  <path class="st0" d="M809.6,1599.94c2.11,1.17,4.22,2.13,6.11,3.42,44.79,30.67,89.61,61.32,134.25,92.22,3.33,2.3,6.41,6.07,7.84,9.83,12.39,32.69,24.37,65.52,36.46,98.32.57,1.55,1.27,3.14,1.42,4.76.39,4.38-2.9,7.08-7,5.49-2.41-.93-4.55-2.71-6.63-4.33-78.25-61.08-156.48-122.17-234.67-183.32-3-2.35-7.89-4.11-6.88-8.9,1.22-5.81,6.61-2.66,10.13-3.38,16.63-3.4,33.33-6.49,49.95-9.99,3.09-.65,5.9-2.65,9.04-4.12Z"/>
  <path class="st0" d="M1941.73,1622.35c15.3-.68,30.6-1.37,45.9-2.03,2.66-.12,5.43-.61,7.96-.05,2.33.51,5.29,1.66,6.38,3.48,1.84,3.07-.58,5.57-3.18,7.41-1.9,1.35-3.83,2.65-5.76,3.95-80.85,54.56-161.7,109.12-242.57,163.64-3.01,2.03-6.09,4.16-9.44,5.45-3.45,1.33-5.92-1.04-5.41-4.69,2.3-16.44,4.81-32.85,6.92-49.31.58-4.48-.19-9.12.11-13.66.14-2.11.97-4.44,2.21-6.12,1.34-1.81,3.52-3,5.37-4.42,41.16-31.67,82.38-63.26,123.42-95.1,5.84-4.53,11.8-6.76,19.18-6.88,16.31-.27,32.6-1.16,48.9-1.8,0,.04,0,.09,0,.13Z"/>
  <path class="st0" d="M2097.61,720.73c.65-2.85,1.06-5.14,1.69-7.38,9.16-32.7,18.29-65.41,27.59-98.06,1.11-3.89,1.14-9.53,7.21-9.18,5.15.3,5.3,5.25,6.38,8.98,11.52,39.99,23.02,79.98,34.5,119.98,15.88,55.36,31.75,110.72,47.59,166.1.82,2.87,1.77,5.8,1.9,8.74.18,4.23-2.82,5.69-6.74,3.76-15.49-7.64-30.99-15.27-46.5-22.86-2.09-1.02-4.38-2.83-6.39-2.6-8.28.93-9.82-4.82-11.88-10.65-17.46-49.27-35.02-98.5-52.52-147.75-1.11-3.11-1.97-6.31-2.82-9.07Z"/>
  <path class="st0" d="M792.31,426.96c-16.31.57-32.62,1.17-48.92,1.7-2.32.08-4.74.25-6.94-.29-4.33-1.05-5.58-5.07-2.58-8.36,1.76-1.93,4.1-3.37,6.3-4.86,82.24-55.52,164.49-111.04,246.8-166.47,3.11-2.1,6.2-6.29,10.56-3.64,5.15,3.13.23,7.15-.03,10.73-1.39,19.18-6.73,37.98-5.28,57.46.14,1.93-1.36,4.29-2.71,5.95-1.43,1.76-3.58,2.95-5.42,4.37-40.91,31.47-81.89,62.87-122.67,94.51-5.54,4.3-11.15,6.6-18.18,6.76-16.98.39-33.94,1.31-50.91,2.02,0,.04,0,.08,0,.12Z"/>
  <path class="st0" d="M2087.22,1375.1c.93-3.28,1.54-5.53,2.2-7.76,14.86-50.47,29.78-100.92,44.5-151.43,1.67-5.73,4.56-10.07,9.23-13.73,26.51-20.73,52.89-41.62,79.32-62.45.52-.41,1.03-.85,1.56-1.25,2.98-2.25,6.13-4.79,9.81-1.79,3.28,2.68,1.45,6.1.33,9.21-11.57,31.93-23.13,63.87-34.74,95.79-22.42,61.65-44.87,123.29-67.34,184.92-1.13,3.11-2.17,6.37-3.96,9.1-2.28,3.48-5.75,2.81-7.71-.95-8.29-15.89-16.58-31.8-25.05-47.6-1.37-2.56-3.8-4.52-5.48-6.94-1.22-1.76-2.01-3.82-2.67-5.13Z"/>
  <path class="st0" d="M1391.02,234.21c-25.63.68-51.27,1.24-76.89,2.11-6.56.22-12.26-.9-17.85-4.68-27.84-18.86-55.89-37.41-83.82-56.13-3.2-2.14-7.79-3.95-6.19-9.01,1.6-5.04,6.35-3.96,10.22-3.82,99.84,3.49,199.67,7.03,299.51,10.57,2.32.08,4.72.07,6.94.63,4.06,1.02,5.06,4.57,2.24,7.47-12.04,12.37-24.13,24.7-36.18,37.07-1.62,1.67-3.99,3.22-4.54,5.22-2.14,7.88-7.71,8.4-14.55,8.52-26.3.45-52.6,1.37-78.89,2.12,0-.02,0-.04,0-.06Z"/>
  <path class="st0" d="M1739.42,241.46c-.25-5.79,3.27-8.4,7.66-6.15,2.63,1.35,4.93,3.38,7.29,5.22,77.43,60.45,154.85,120.91,232.26,181.38,2.1,1.64,4.43,3.13,6.06,5.16,1.09,1.36,1.94,3.86,1.4,5.28-.5,1.31-2.91,2.35-4.63,2.67-17.96,3.27-35.96,6.32-53.92,9.56-1.9.34-3.97,1.06-5.45,2.24-3.64,2.89-6.78,1.7-10-.52-1.1-.75-2.2-1.5-3.3-2.25-43.12-29.55-86.2-59.16-129.4-88.59-5.46-3.72-9.22-8.13-11.5-14.42-11.21-30.98-22.73-61.85-34.13-92.76-.92-2.49-1.72-5.02-2.33-6.81Z"/>
  <path class="st0" d="M1368.93,1881.12c-48.6-1.7-97.2-3.39-145.8-5.08-2-.07-4.1.27-5.97-.24-3-.81-7.24-1.38-8.45-3.49-2.32-4.04,2.79-4.9,4.91-7.14,12.15-12.81,24.14-25.76,36.14-38.71.88-.95,1.79-2.16,2-3.37.91-5.31,4.79-5.71,8.97-5.86,8.32-.29,16.64-.69,24.96-.92,44.95-1.25,89.9-2.36,134.84-3.8,7.01-.22,12.87,1.37,18.68,5.31,27.3,18.49,54.81,36.66,82.19,55.03,3.42,2.3,8.84,4.04,7.32,9.41-1.77,6.27-7.73,3.95-12,3.82-49.27-1.52-98.54-3.24-147.8-4.9,0-.02,0-.05,0-.07Z"/>
  <path class="st0" d="M2437.01,1096.87c-.69,2.91-1.37,5.83-2.07,8.74-12.85,53.04-25.72,106.08-38.55,159.13-.86,3.55-1.44,7.16-2.13,10.75-1.18,6.1-3.18,7.4-8.75,5.51-23.32-7.89-46.63-15.8-69.94-23.72-1.89-.64-3.84-1.22-5.56-2.19-2.61-1.46-3.34-3.51-2.4-6.69,13.02-44.01,25.95-88.04,38.7-132.13,1.18-4.07,3.24-6.26,7.15-7.28,24.79-6.49,49.53-13.16,74.36-19.48,6.82-1.74,9.84,1.05,9.19,7.35Z"/>
  <path class="st0" d="M2045.52,1834.83c-1.86-1.57-3.91-2.71-5.13-4.43-14.29-20.04-28.45-40.16-42.64-60.28-1.15-1.63-2.38-3.24-3.22-5.03-1.28-2.71-.7-4.88,1.91-6.86,27.26-20.72,54.46-41.52,81.63-62.37,9.24-7.09,18.46-14.21,27.38-21.68,3.31-2.77,6.37-3.2,10.06-1.77,23.88,9.25,47.81,18.37,71.59,27.85,7.26,2.89,7.62,7.16,1.63,12.74-3.65,3.4-7.56,6.52-11.36,9.76-40.04,34.07-80.09,68.13-120.11,102.22-2.52,2.15-4.72,4.66-7.2,6.87-1.17,1.04-2.63,1.75-4.54,2.98Z"/>
  <path class="st0" d="M2269.25,449.07c2.27,1.77,4.17,2.67,5.18,4.16,1.47,2.17,2.38,4.74,3.39,7.2,20.69,50.15,41.34,100.32,62.05,150.46,1.9,4.6,4.15,9.05,6.22,13.58,2.17,4.74,1.09,7.59-3.81,9.12-24.13,7.52-48.28,15.01-72.46,22.36-7.92,2.41-7.85,1.95-10.66-6.41-4.67-13.88-9.85-27.58-14.84-41.35-10.2-28.16-20.28-56.37-30.78-84.42-1.65-4.42-1.25-7.44,1.57-10.88,15.84-19.31,31.53-38.74,47.4-58.03,1.78-2.17,4.31-3.73,6.75-5.79Z"/>
  <path class="st0" d="M1874.8,201.67c-9.29-6.49-17.12-12.08-25.08-17.48-30.59-20.72-61.15-41.49-91.92-61.94-4.25-2.83-5.71-5.81-5.42-10.62,1.46-24.26,2.71-48.53,4.12-72.79.13-2.29.48-4.7,1.36-6.79,1.33-3.16,3.98-4.57,7.31-3.01,3,1.41,5.83,3.19,8.66,4.93,43.94,27.03,87.87,54.1,131.82,81.1,5.95,3.65,12.04,7.07,18.1,10.54,4.77,2.73,5.7,5.38,2.67,9.44-15.3,20.55-30.66,41.06-46.1,61.5-1.51,1.99-3.72,3.45-5.54,5.1Z"/>
  <path class="st0" d="M980.28,1976.02c-.56,9.41-1.26,21.7-2.03,33.98-.7,11.13-4.16,13.05-13.71,7.19-42.54-26.09-84.99-52.33-127.53-78.43-8.77-5.38-17.81-10.32-26.68-15.55-4.07-2.4-4.76-5.26-1.95-9.05,15.29-20.55,30.6-41.08,46.05-61.5,4.66-6.16,5.21-5.67,11.77-1.01,14.1,10.02,28.47,19.66,42.79,29.36,22.58,15.31,45.11,30.7,67.92,45.67,4.31,2.82,5.73,5.81,5.42,10.57-.77,11.95-1.28,23.92-2.05,38.77Z"/>
  <path class="st0" d="M741.79,286.65c-1.31,1.54-2.32,3.23-3.76,4.34-35.57,27.44-71.3,54.67-106.66,82.37-4.87,3.81-8.57,4.83-14.25,2.54-21.92-8.81-44.01-17.2-66.03-25.76-1.86-.72-3.82-1.33-5.48-2.39-4.25-2.7-4.71-6.09-1.24-9.91,2-2.21,4.42-4.03,6.7-5.98,41.58-35.39,83.18-70.77,124.75-106.19,3.03-2.58,5.79-5.46,8.71-8.17,3.96-3.66,6.73-3.55,9.78.74,14.65,20.62,29.22,41.3,43.77,61.99,1.32,1.87,2.31,3.97,3.71,6.42Z"/>
  <path class="st0" d="M470.78,1391.46c1.25,1.28,3.68,2.67,4.4,4.67,15.54,43.15,30.82,86.4,46.41,129.54,1.63,4.51.62,7.57-2.09,10.88-15.59,19.06-31.04,38.24-46.71,57.24-6.51,7.89-10.57,7.08-14.7-2.82-8.2-19.64-16.24-39.35-24.34-59.04-13.42-32.6-26.84-65.2-40.26-97.8-.76-1.84-1.5-3.7-2.36-5.5-5.19-10.9-5.13-10.67,6.87-14.36,20.98-6.46,41.86-13.23,62.78-19.86,2.85-.9,5.73-1.69,9.99-2.93Z"/>
  <path class="st0" d="M297.88,952.48c.37-1.57.91-3.83,1.45-6.09,13.11-54.32,26.22-108.65,39.31-162.98.7-2.9,1.26-5.84,1.76-8.79,1.24-7.29,3.14-8.45,9.93-6.14,19.84,6.73,39.7,13.41,59.54,20.13,4.72,1.6,9.47,3.16,14.12,4.94,3.2,1.23,4.5,3.39,3.38,7.08-7.47,24.47-14.88,48.97-22.13,73.5-5.75,19.46-11.41,38.95-16.74,58.52-1.11,4.09-2.93,6.32-6.92,7.37-24.78,6.5-49.49,13.22-74.3,19.58-6.51,1.67-9.46-.73-9.4-7.14Z"/>
  <path class="st0" d="M1185.5,191.64c.13-7.69,5.73-11.12,11.58-7.58,9.12,5.51,17.95,11.48,26.9,17.27,18.46,11.94,36.92,23.86,55.35,35.84,9.22,5.99,9.55,6.66,5.8,18.04-8.55,25.92-17.29,51.78-25.96,77.66-4.02,11.99-8.02,23.99-12.07,35.97-.74,2.19-1.4,4.52-2.64,6.41-1.96,2.98-5.64,3.02-7.38-.03-1.45-2.55-2.2-5.55-3-8.42-15.53-55.8-31.01-111.61-46.5-167.41-.8-2.88-1.55-5.77-2.08-7.76Z"/>
  <path class="st0" d="M1447.25,1803.25c1.16-4.23,1.82-7.15,2.76-9.98,12.64-37.87,25.32-75.72,38-113.58.53-1.58.8-3.41,1.8-4.61,1.15-1.38,3.02-3.06,4.51-2.99,1.52.06,3.36,1.82,4.33,3.31,1.05,1.6,1.28,3.74,1.81,5.66,15.89,57.04,31.77,114.09,47.65,171.14.45,1.6,1.58,3.39,1.2,4.77-.82,2.97-1.82,6.38-3.93,8.34-1.29,1.2-4.78.12-7.27-.08-.59-.05-1.13-.66-1.69-1.02-27.94-18.08-55.93-36.1-83.76-54.35-2.43-1.59-3.88-4.67-5.42-6.6Z"/>
  <path class="st0" d="M614.23,944.51c-29.26-1.31-58.53-2.63-87.79-3.95-2-.09-3.99-.29-5.98-.28-4.37,0-7.29-2.56-7.73-6.34-.28-2.36,1.44-5.63,3.29-7.44,4.27-4.16,9.17-7.69,13.82-11.47,20.41-16.58,40.81-33.17,61.25-49.72,8.82-7.14,9.6-7.28,18.91-.43,32.7,24.07,65.31,48.28,97.94,72.45,1.33.99,2.77,1.95,3.78,3.22,2.51,3.17,1.27,6.75-2.73,7.45-2.58.45-5.31.2-7.96.09-28.93-1.19-57.87-2.42-86.8-3.64,0,.02,0,.03,0,.05Z"/>
  <path class="st0" d="M2128.24,1104.99c21.85.89,51.13,2.08,80.4,3.3,2.65.11,5.43,0,7.92.73,6.43,1.89,7.91,8.38,3.04,13.08-2.63,2.54-5.6,4.71-8.45,7.02-22.49,18.26-44.96,36.53-67.48,54.76-8.74,7.08-9.23,7.27-18.05.8-33-24.25-65.88-48.65-98.79-73.02-2.62-1.94-6.15-3.79-4.5-7.87,1.56-3.87,5.37-3.25,8.67-3.1,29.93,1.32,59.87,2.66,97.22,4.32Z"/>
  <path class="st0" d="M1946.76,1607.28c-14.63.82-29.25,1.72-43.88,2.45-12.38.61-12.96.21-16.83-11.91-7.38-23.14-14.63-46.33-21.94-69.49-4.61-14.6-9.23-29.19-13.82-43.79-.7-2.22-1.62-4.45-1.77-6.72-.26-3.91,3.06-6.08,6.67-4.45,1.78.81,3.35,2.15,4.91,3.38,46.68,37.05,93.36,74.11,140.02,111.19,1.56,1.24,3.26,2.41,4.47,3.96,4.11,5.24,1.62,11.61-4.99,12.32-7.28.79-14.61,1.11-21.92,1.5-10.31.56-20.62,1-30.93,1.49,0,.03,0,.05,0,.08Z"/>
  <path class="st0" d="M620.41,1447.23c.59-2.25,1.16-4.51,1.76-6.76,7.9-29.58,15.79-59.15,23.71-88.72,2.74-10.23,3.69-11.16,14.34-11.24,12.98-.1,25.97.19,38.96.32,26.97.29,53.94.57,80.91.89,2.65.03,5.4-.1,7.93.53,3.39.84,4.45,4.34,2.17,7.02-1.48,1.73-3.5,3.05-5.43,4.33-49.66,32.94-99.34,65.86-149.02,98.77-1.66,1.1-3.3,2.38-5.14,3.03-5.68,1.99-10.87-2.26-10.18-8.15Z"/>
  <path class="st0" d="M2013.95,707.62c-18.63,0-37.27,0-55.9,0-1.66,0-3.33.05-4.99-.04-3.54-.2-7.91.77-9.12-3.98-1.05-4.1,2.63-5.72,5.33-7.52,50.17-33.3,100.37-66.57,150.56-99.83,1.38-.91,2.78-1.92,4.32-2.46,5.85-2.05,10.73,1.8,10.16,7.96-.15,1.64-.58,3.28-1.01,4.88-8.15,30.52-16.28,61.05-24.5,91.55-2.55,9.46-3.2,10.06-12.97,10.13-20.63.14-41.26.04-61.89.04v-.73Z"/>
  <path class="st0" d="M1091.52,1627.32c-.57,1.68-1.27,3.9-2.08,6.08-20.69,55.51-41.39,111.01-62.12,166.51-.81,2.17-1.52,4.49-2.84,6.35-3.54,5-9.92,4.54-12.85-.8-.79-1.45-1.3-3.06-1.9-4.61-11.26-29.19-22.54-58.36-33.77-87.57-3.73-9.71-3.62-11.04,4.44-16.83,33.52-24.1,67.18-48.02,100.81-71.97,1.34-.96,2.77-1.96,4.32-2.42,3.26-.97,5.97,1.28,5.99,5.26Z"/>
  <path class="st0" d="M788.72,441.72c14.62-.74,29.25-1.5,43.87-2.22,11.92-.58,12.36-.42,16.12,11.37,9.9,31.05,19.64,62.16,29.44,93.24,2.1,6.66,4.23,13.31,6.26,20,1.12,3.7,4.09,8.14.1,11.05-4.65,3.39-7.89-1.51-11.09-4.03-21.18-16.67-42.26-33.47-63.37-50.24-24.24-19.25-48.47-38.5-72.71-57.74-1.56-1.24-3.07-2.55-4.69-3.73-3.6-2.62-5.3-5.9-3.78-10.35,1.5-4.39,5.31-4.51,9-4.7,16.95-.88,33.9-1.74,50.85-2.6,0-.02,0-.04,0-.06Z"/>
  <path class="st0" d="M1647.39,428.14c-1.31-1.82-3.4-3.43-3.5-5.17-.15-2.5.92-5.17,1.83-7.62,20.66-55.52,41.36-111.01,62.07-166.51.7-1.87,1.25-3.86,2.3-5.51,3.54-5.54,10.42-5.15,13.48.71.77,1.47,1.27,3.07,1.87,4.63,11.25,29.19,22.51,58.37,33.73,87.57,3.59,9.35,3.64,10.37-4.14,15.97-33.77,24.32-67.7,48.42-101.6,72.56-1.59,1.13-3.43,1.93-6.05,3.38Z"/>
</svg>