<?xml version="1.0" encoding="UTF-8"?>
<svg id="Untitled_242_xA0_Image" xmlns="http://www.w3.org/2000/svg" version="1.1" viewBox="0 0 2732 2048">
  <!-- Generator: Adobe Illustrator 30.2.1, SVG Export Plug-In . SVG Version: 2.1.1 Build 1)  -->
  <defs>
    <style>
      .st0 {
        fill: #996437;
      }
    </style>
  </defs>
  <path class="st0" d="M1776,2048l-11.73-12.62c6.15-6.59,33.88-52.35,29.65-57.29-25.13-6.48-53.05-19.38-72.97-36.04-4.38-3.66-19.46-17.78-18.71-22.59.46-2.97,10.82-19.76,14.38-19.19,27.99,20.97,54.17,47.66,89.36,55.75,9.13-26.6,12.04-52.49,14.1-80.42l23.9-19.59c3.71,36.53-1.68,73.42-13.98,107.99,9.77.94,19.72,3.09,29.07,5.98,2.19.68,3.58-1.41,2.92,3.01l-19.39,21.13-22.59-3.22-34,57.12h-10Z"/>
  <path class="st0" d="M956,0c4.31,4.41,14.94,6.75,13.75,14.54-.34,2.25-19.52,30.46-22.83,37.38-1.27,2.67-7.58,17.15-6.92,18.05,35.2,11.14,71.68,27.79,93.74,58.65l-14.72,21.16c-26.6-21.38-53.73-47.24-87.73-55.64-8.6,2.85-17.86,69.25-15.16,80.6-10.41-.54-24.33,27.72-26.22,10.35-3.53-32.44,5.39-68.1,14.06-99.02l-31.91-9.08c14.66-14.55,20.87-28.18,43.88-17.02,7.53-22.11,21.57-40.66,34.08-59.98h6Z"/>
  <path class="st0" d="M1539.99,240.01c1.92,1.9-7.01,21.87-9,23.98-2.78,2.93-17.89,5.62-24.38,9.62-19.84,12.23-29.18,51.39-40.14,55.86-12.53,5.1-39.28,2.64-53.49,4.54-21.08-4.02.88-54.31,9.03-64.97-2.91-14.89-38.99,18-42.15,25.8-4.17,10.29-1.43,20.78,10.64,14.68,4.55-2.3,6.21-7.63,11.49-7.51-6.28,16.85-27.25,41.34-46.75,29.75-18.88-11.23-2.69-48.76,6.75-62.77l-9.94,2.06c-22.61,31.39-32.32,90.84-77.52,98.48-4.05.68-54.87,1.13-46.52-5.5,25.9-2.22,45.49-5.56,63.02-25.99,11.91-13.88,30.39-51.3,32.8-69.23.47-3.52,1.52-5.03-2.83-4.84-7.27.31-19.29,6.48-24.84,11.2-8.29,7.04-27.55,36.05-7.14,37.05,2.94.14,13.23-4.74,10.97.76-4.95,12.01-20.52,18.74-32.92,19.14-6.26.21-12.86-2.1-17.6-1.69-14.86,1.3-40.32,16.17-48.44-6.41-11.98,10.46-29.65,15.04-45.07,11.05-4.26-1.1-8.75-5.62-13.39-6.61-16.5-3.49-14.56,5.39-22.59,14.5-18.85,21.37-35.42,31.47-64.88,33.11-7.8.43-17.33,1.3-23.07-5.07,19.68-.98,38.88-9.43,53.82-22.16,19.82-16.89,26.79-53.77,38.16-76.82-21.16-1.75-48.29,19.31-43.01,42.02,4,6.75,18.97-2.12,16.97,4.9-5.74,20.11-41.13,28.83-48.4,6.53-4.84-14.86,6.59-37.17,16.41-48.51,24.36-28.14,57.18-31.83,91.87-22.79,6.89,8.18-29.05,49.83-25.65,60.55.7,2.21,2.61,3.34,4.87,3.43,5.41.47,13.53-10.8,16.62-15.48,15.43-23.41,15.41-58.25,54.34-52.64-6.85,8.01-29.97,55.24-25.14,62.08,3.33,4.71,12.16-.06,15.8-2.44,23.59-15.39,22.82-70.46,63.33-61.65-7,22.8-24.07,45.84-31.05,67.93-3.31,10.48,1.56,10.12,8.96,4.96,9.47-6.6,6.85-14.37,10.6-23.4,13.22-31.8,51.74-55.92,86.32-51.34,13.17,1.75,21.73,11.97,34.17,11.99,24.65.05,56.46-27.03,84.97-12.11-6.3,20.46-23.02,44.63-24.04,66.94-.16,3.54-1.28,5.32,3.12,5.09,8.46-.43,17.04-12.44,21-19.03,10.44-17.4,18.62-38.03,27.94-56.14l22.02,1.1.97,9.98c7.85-9.74,20.9-13.9,33.02-13.97Z"/>
  <path class="st0" d="M1704.56,354.53c-1.48,1.51-3.28,5.48-1.67,7.54,32.97,11.77,58.43-27.52,89.79-7.74,1.77,1.11,11.67,8.39,7.36,10.71-15.66,3.46-43.95,11.41-56.62,20.84-2.04,1.52-3.94,4.88-1.62,7.17,17.75,26.27,81.67-31.47,98.21,7.93l-71.97,28.06-1.08,5.03c14.29,10.94,22.59-3.52,32.99-7.12,29.18-10.1,73.55-2.36,94.02,22.11,14.8,17.68,5.32,30.23,30.01,43.99,20.64,11.49,50.88,20.07,56.04,46.95-16.94,2.25-35.65,10.27-50.73,18.3-3.84,2.04-19.17,9.9-15.28,15.69,30.64,7.37,59.64-12.57,88.74-19.62l13.39,12.78-6.14,10.84c6.66-2.75,35.52,8.29,33.99,14.99-5.02,3.17-17.85,8.75-23.19,8.96-6.85.27-20.34-11.64-31.86-12.03-17.42-.59-47.84,16.64-59.43,13.65-2.33-.6-5.18-3.25-7.33-4.73-5.18-3.55-34.41-29.04-35.32-32.73-4.9-19.75,38.07-33.81,52.95-36.27l-.17-7.49c-12.56-6.04-46.79-11.78-55.76.53-8.65,11.88,10.28,13.52,18.11,14.13-21.98,17.09-72.8,1.3-46.05-30.05,13.39-15.68,28.22-12.01,40.1-19.9,2.42-1.61,2.18-2.39,0-4.08-6.53-3.79-11.44-1.76-18.06.04-36.9,10.03-76.85,37.09-113.86,11.87-6.11-4.16-26.28-25.09-28.51-31.54-4.25-12.27,9.88,3.55,12.55,5.5,25.15,18.42,41.92,19.72,71.85,12.19,12.26-3.08,41.12-13.82,50.64-21.36,2.18-1.73,4.17-1.96,3.33-5.63-19.04-11.39-46.8-16.43-61.77,3.37-1.41,5.36,8.22,13.4,13.78,12.61,4.95,4.8-21.67,4.2-26.06,3.05-12.34-3.24-17.55-14.76-25.92-22.09-10.92-9.57-39.69-20.26-28.02-38.96-16.84-2.9-33.42-9.56-41.54-25.48-5.77-11.32-.8-21.26-19.47-20.7-16.9.5-27.09,4.69-45.4-.42-11.89-3.32-44.11-24.79-47.56-36.45-2.48-8.4,10.88,4.42,12.58,5.43,46.33,27.52,76.37,4.35,120.2-12.25,11.35-7.95-26.32-16.03-31.6-15.93-17.89.36-37.88,13.43-15.25,26.78-24.43,16.58-60.64-14.87-32.95-37,38.81-31.01,102.23-6.65,118.11,38.04-3.46,7.26-50.24,12.01-58.56,20.48Z"/>
  <path class="st0" d="M2066,1250.02c-13.98,16.91-24.5,44.14-21.09,66.09,1.2,7.73,5.34,18.28,8.12,25.86,2,5.45,17.62,42.01,19.97,42,15.24-8.59,16.66-56.51-.52-59.62-9.12-1.66-9.41,13.62-14.52,8.7-14.76-14.21,11.83-57.55,34.89-34.89,20.32,19.96,20.34,61.33,7.51,85.21-4.44,8.27-35.82,42.33-44.19,36.46-5.83-10.2-11.64-54.65-20.17-58.82-2.59-1.27-5.24-1.17-7.99-1-1.56,1.51,1.24,27.93,2.51,32.48,6.3,22.53,27.29,44.33-1.49,65.51-3.21-.73-15.39-56.85-26.36-59.79-2.95-.79-3.68-.05-5.67,1.8-15.7,14.58,9.48,55.93,9.16,72.99-.13,7.01-6.76,22.39-13.19,24.99-3.66,1.48-3.11-2.36-3.85-4.01-8.99-19.72-14.8-48.09-24.71-65.38-1.44-2.51-2.98-6.46-6.46-3.65-10.05,13.05,3.6,22.32,7.09,33.02,11.7,35.89-.11,86.8-37.59,102.49-12.62,5.29-17.32.9-26.28,15.73-13.23,21.89-18.95,50.31-46.19,61.77-7.54-18.64-13.38-38.29-23.95-55.98-2.01-3.36-6.44-14.01-11.09-11.02-15.08,9.68,13.62,73.05,17.65,87.79l-14.85,15.12-8.72-7.85c2.76,6.65-8.31,35.52-14.99,33.99-2.45-.56-9.23-19.92-9.21-23.04.03-5.31,5.51-8.96,7.77-14.37,12.46-29.84-10.33-50.08-8.56-78.55l31.54-37.43c21.02-17.05,41.52,36.46,41.44,51.4,15.97,1.29,15.89-38.26,13.07-48.09-2.5-8.71-12.45-17.59-17.57-5.4-2.41,5.73,1.06,14.87-5.49,13.48-6.46-18.99-7.03-57.62,22.52-51.55,19.27,3.96,23.03,30.12,29.84,44.17,1.45,2.99,2.02,4.33,4.63,1.4,3.84-4.32,1.91-9.79.77-14.77-8.94-38.83-38.23-73.91-13.77-114.24,6.19-10.21,25.65-31.11,37.98-30.02-36.27,33.82-30.6,71.16-12.92,112.94,2.24,5.29,8.91,20.42,11.99,24.02,2.6,3.04,2.7,1.48,4.95-.95,11.6-12.45,12.03-36.24,5.01-51.02-6.47-13.62-18.78-9.57-21.04,4.01-7.59-5.16-4.83-20.66-1.46-28.49,5.11-11.88,14.67-14.5,21.52-22.47,10.07-11.7,15.91-37.11,37.94-29.02,2.73-13.75,6.51-26.09,17.98-35.06,12.27-9.59,28.12-5.49,28.22-23.97.1-20.2-5.99-31.36,2.84-52.97,3.08-7.54,28.34-46.59,36.98-40Z"/>
  <path class="st0" d="M2021.99,690.01c1.41,56.82,51.56,75.96,98,89.98,7.11-16.98-35.25-59.25-44.55-37.46-1.78,4.17,3.86,12.37-2.45,11.51-22.58-3.08-31.72-52.86,7.84-47.86,28.55,3.61,55.83,33.8,60.27,61.72,1.24,7.78,1.45,45.62-6.35,47.99-8.74,2.66-44.84-29.63-57.44-25.64-8.55,2.71.59,10.8,3.64,13.8,21.96,21.61,65.97,17.86,61.03,59.95-1.32,1.52-15.84-8.97-18.63-10.35-6.15-3.04-35.82-15.59-40.42-14.89-9.9,4.54-1.31,17.92,4.37,22.94,20.2,17.84,63.13,20,56.68,56.3l-73.24-31.77c-5.21-1.49-2.38,6.9-1.24,9.27,5.15,10.71,17.45,8.35,25.95,12.04,30.34,13.18,54.18,51.99,50.32,85.25-1.49,12.85-8.24,18.54-10.87,27.11-4.93,16.01,13.42,47.92,14.87,67.37.71,9.54-1.62,17.62-3.8,26.73-18.35-8.42-34.77-16.95-54.45-22.52-3.82-1.08-17.9-6.94-17.59-.45,1.07,22.41,59.35,38.33,75.18,51.01l-1.13,21.95-9.98-1c8.37,9.61,15.28,21.7,13.98,35l-25.48-10.5c-2.89-19.56-9.28-30.53-25.87-41.13-7.55-4.83-35.5-15.37-38.2-21.8-2.41-5.73-5.65-51.56-3.41-56.53,6.72-14.93,33.64-3.41,44.93,1.01,7.72,3.02,13.76,9.66,22.03,8.95,6.46-6.49-20.08-37.17-26.56-40.41-5.88-2.93-15.19-5.19-19.17,1.63l9.73,18.77c-46.12-13.88-45.61-71.01,13.97-48.95,5.49,2.04,12.6,7.61,17.08,8.93,9.08,2.68-2.57-11.06-6.38-13.63-16.57-11.14-43.4-19.46-61.27-30.73-32.16-20.29-37.72-54.95-27.37-89.59l9.93,41.03c12.27,27.62,59.15,50.2,87.46,56.56,3.48.78,4.82,1.66,4.64-2.62-.69-16.18-18.01-36.38-33.29-40.83-18.23-5.31-14.59,6.97-13.74,19.83-12.08-7.78-19.99-15.94-21.08-30.9-.52-7.04,1.7-14.19,1.38-19.8-.85-14.93-15.98-41.42,6.68-48.27-9.46-14.61-15.64-29.29-11.04-47.08,1.83-7.08,8.65-11.2,7.08-20.83-.97-5.94-22.84-19.63-29.04-27.09-12.12-14.58-18.49-36.12-19.1-54.95-.07-2.3,1.16-25.77,6.11-19.06Z"/>
  <path class="st0" d="M794.01,1520.03c-1.43,6.85,4.64,9.13,10.37,10.6,11.11,2.84,32.62,5.26,42.27-.97,16.39-10.57.05-17.81-12.65-17.68,11.7-11.18,48.89-9.34,51.92,11.17,3.47,23.46-30.18,34.5-47.92,38.88,0,8.6,10.6,6.26,16.12,5.09,37.19-7.87,75.26-38.05,114.58-14.82,4.74,2.8,35.45,33.35,31.28,37.7l-34.62-22.36c-27.33-10.01-76.2,5.01-100.04,20.7-1.67,1.1-5.91,3.5-4.37,5.68,13.65,10.48,38.63,14.31,53.76,5.71,19.45-11.06-5.95-22.04-4.72-23.7,14.14-5.32,31.85.42,41.99,10.99,3.18,3.32,4.74,8.88,8.14,11.86,11.49,10.02,39.36,15.99,29.86,39.12,15.66.89,32.33,9.2,39.72,23.29,3.16,6.03,3.24,16.48,9.48,20.51,8.11,5.24,24-1.93,33.71-1.86,20.66.16,40.95,10.65,56.14,24.02,3.61,3.18,16.75,14.85,12.93,20.05-18.09-16.68-43.9-25.11-68.5-21.52-11.38,1.66-49.54,17.55-60.59,23.41-2.1,1.12-5.72,1.77-4.89,5.09,10.49,13.47,54.39,16.37,59.16-.93,2.68-9-9.28-8.29-9.16-16.03,39.7-11.72,60.74,29.56,17.98,46.97-41.98,17.09-88.06-5.31-103.88-45.74,2.18-7.1,56.75-13.68,59.66-22.53.74-2.24.6-4.78-.62-6.85-2.55-3.55-20.84-.33-25.59.69-19.84,4.28-31.32,17.32-53.66,12.56-6.91-1.47-16.67-7.32-17.88-15.09,15.95-3.62,43.75-10.55,56.74-20.26,11.05-8.26-8.15-15.3-16.83-14.84-28.04,1.5-58.56,30.69-79.9.06l16-7.95c16.65-7.74,38.53-11.4,54.52-19.48,1.62-.82,6.05-3.23,4.49-5.55-14.09-11.65-22.08,1.56-32.62,5.42-30.66,11.23-77.28,4.27-97.28-23.53-6.8-9.46-7.27-19.67-11.57-28.43-8.74-17.77-69.76-28.39-73.56-59.42,19.41-4.15,41.22-12.36,58.07-22.96,2.2-1.39,12.5-7.54,9.93-11.04-7.18-1.5-12.68-4.38-20.42-3.6-20.29,2.03-47.74,17.54-68.47,21.65l-15.11-13.12c-.99-3.89,9.08-7.39,4.04-9.99-6.08,1.95-38.07-10.53-28.84-17.11l22.17-7.42c19.55,14.59,34.91,13.46,57.51,7.45,17.63-4.69,23.77-14.61,42.06-1.83,3.69,2.58,29.8,24.7,31.2,26.8,14.03,21.08-38.03,39.42-52.14,41.17Z"/>
  <path class="st0" d="M1699,1674c.77.2,3.6,3.5,3,3.98-18.98,1.48-43.97,11.96-57.07,25.95-8.99,9.6-28.03,52.57-31.98,66.02-.79,2.69-1.31,5.24-.93,8.05,16.35,2.97,50.23-25.38,42.56-41.45-3.32-7.31-8.23-4.13-14-2.92-7.1,1.5.69-11.23,2.56-13.49,10.58-12.75,37.6-14.48,41.99,3.73,7.2,29.84-28,69.14-56.61,73.65-7.55,1.19-49.05,1.2-52.49-3.57-.25-16.82,30.3-46.25,25.67-60.62l-4.7-3.41c-31.1,19.24-22.06,73.97-68.99,70.07l25.69-59.4-3.01-4.31c-26.26-8.21-36.69,55-56.65,62.76-4.38,1.7-20.45,5.81-19.74-1.67l30.84-67.28-2.11-6.03c-17.06,4.58-14.08,16.75-19.21,28.75-12.39,28.96-50.6,54.08-82.6,50.97-21.13-2.06-24.62-16.8-49.34-10.9-21.46,5.13-35.69,15.95-60.87,13.1-22.85-2.58-7.22-12.6-1.54-25.53,3.19-7.24,7.3-18.79,9.56-26.44,1.26-4.25,7.68-22.85,1.94-24.03-15.74-3.22-43.37,62.94-49.28,75.68l-21.79-.61-.88-11.05c-3.36,3.66-6.43,6.72-10.91,9.09-4.43,2.34-24.6,10.88-23.81,2.25l10.69-21.38c23-3.64,34.3-15.32,45.4-34.6,5.79-10.07,7.75-24.14,19.03-30.97l49.49-4.32c19.72,6.02,11.87,26.08,6.6,40.41-2.22,6.04-12.95,24.07-10.55,27.56l3.95,1.96c7.57.09,32.04-21.62,35.53-28.57,4.57-9.1,4.55-20.65-8.5-16.6-4.73,1.47-6.66,7.45-11.91,7.16,7.08-29.86,55.6-50.67,54.09-4.92-.57,17.29-10.53,23.43-14.05,35.99-1.51,5.38,6.71,2.79,9.08,1.07,6-4.36,27.77-55.13,34.09-65.91,19.33-32.93,53.71-38.44,88.77-30.19,1.69,6.68-7.97,3.39-12.75,4.21-54.55,9.4-68.76,49.81-83.23,97.75,17.52,1.5,34.94-11.54,41.76-27.2,7.87-18.05-.63-23.93-17.77-16.81,4.19-14.2,20.82-23.8,35.09-24.05,4.8-.09,9.12,2.2,13.9,2.23,15.08.09,41.28-14.5,50.14,5.97,17.63-8.44,26.91-15.87,47.31-9.57,9.48,2.93,17.61,12.8,27.65,2.53,2.47-2.52,3.27-7.19,5.9-10.09,13.07-14.43,34.24-33,55-33,7.35,0,24.36-1.44,30,0Z"/>
  <path class="st0" d="M609.68,862.32c-.26,20.91,13,33.4,29.72,43.28,8.61,5.09,23.69,9.22,30.5,15.5,8.03,7.41,3.75,44.05,8.11,55.86-8.24,19.77-35.39,8.32-50.01,2.04-5.2-2.24-19.14-15.19-20.1-4-1.13,13.16,39.92,53.45,45.9,35.72,2.98-8.83-10.18-18.08-7.77-20.72,64.81,34.39,19.16,79.13-33.03,40.01l2.48,12.07c23.11,15.22,69.63,27.83,85.4,50.04,14.42,20.31,14.82,48.45,9.11,71.88-2.87,3.04-3.62-.24-3.96-2.99-1.73-13.67-1.4-25.36-7.64-38.39-13.95-29.15-60.12-49.19-90.37-54.61-.73,13.88,6.66,25.51,17.04,33.94,6.88,5.59,28.24,18.71,30.57,2.6.64-4.4-6.22-13.85-.6-12.59,10.51,2.37,20.87,22.99,21.05,33.13.09,5.27-2.32,10.13-2.23,15.88.23,15.19,13.93,40.52-5.88,50.06,9.65,15.47,15.42,29,9.45,47.36-1.78,5.48-8.16,11.05-7.05,18.17,1.34,8.64,13.17,12.45,18.61,17.47,25.44,23.47,33.97,51.68,27.02,85.94l-11.61-35.35c-17.67-35.34-53.46-40.49-86.22-55.85l-4.05,2.39c-2.66,15.63,28.65,50.17,43.09,39,5.62-4.35.75-10.6.83-16.17,28.21,3.18,33.73,51.02,1.3,49.84-27.77-1.01-60.85-32.11-64.79-59.37-1.08-7.51-2.11-48.05,4.73-50.34,10.44-3.49,46.35,28.23,57.34,25.55,2.16-.52,4.1-3.06,5.3-4.94-14.75-29.05-66-23.71-69.75-59.95-.43-4.18-1.13-7.92,2.86-10.76,6.86,7.55,52.93,29.6,59.12,25.11,2.37-1.72,2.14-5.35,1.86-7.98-2.02-19.35-47.47-30.86-58.02-42.13-4.51-4.82-12.9-30.39-3.88-28.19l65.41,30.66,8.5.48c-2.47-19.01-18.35-16.24-31.86-23.12-27.02-13.75-50.94-48.47-47.91-79.66,2.08-21.37,16.3-24.61,10.87-49.32-5.32-24.23-20.4-46.42-11.08-73.9,24.13,7.6,47.42,24.22,73.98,23.99-9.54-29.45-51.43-35.97-75.02-51.96l-.98-22.04,10-.98c-7.81-8.08-11.34-19.12-13.8-29.85,1.98-9.03,22.81,6.87,27.49,7.16Z"/>
  <path class="st0" d="M880.02,490.01c3.35,1.19,5.47,10.18,5.81,13.16,1.66,14.38.26,39.54-18.96,40.77-21.04,1.34-34.28-32.96-36.89-49.93-7.11,2.97-6.79,9.86-5.51,16.53,3.86,20.05,19.16,47.06,22.64,67.36,6.13,35.75-13.62,64.16-44.12,80.1-3.35-2.09.88-4.37,2.01-5.99,6.05-8.64,14.47-17.72,18.55-27.45,14.53-34.59-7.44-75.3-21.58-106.55-5.54-4.14-13.3,17.56-13.8,21.17-1.81,13.02-.33,34.52,12.92,40.93,9.13.86,8.44-10.67,14.88-14.1,4.1,14.6,2.14,27.55-7.92,39.05-4.28,4.9-10.23,7.41-14.09,11.91-10.12,11.76-17.76,40.53-39.94,29.04-.5,13.61-7.04,28.82-17.97,37.05-7.63,5.74-23.7,7.72-27.02,14.98-3.46,7.57,3.07,21.97,3.04,30.88-.07,25.45-18.6,63.16-44.07,71.07,15.89-18.64,24.82-43.75,21.48-68.46-1.42-10.5-17.51-51.19-23.07-60.93-7.34-12.86-14.86,10.08-15.93,16.89-1.47,9.33-.7,34.76,10.97,36.16,10.82,1.3,11.1-10.97,14.56-8.67,16.64,22.6-14.83,58.2-35.69,33.71-28.45-33.39-13.9-84.34,17.85-109.52,3.84-3.04,16.31-12.75,20.52-9.35,6.78,5.48,10.8,57.99,22.6,60.01,4.57-.36,6.71-4.46,6.81-8.73.71-30.76-36.86-68.41-.12-91.1.44,11.56,15.38,56.48,23.97,61.13,3.19,1.73,4.14.11,6.11-2.07,15.86-17.63-10.69-56.24-9.92-73.91.29-6.56,13.75-30.63,17.79-21.79l26.01,71.53c2.91,4.29,7.08-3.74,7.65-6.36,2.46-11.46-6.68-18.97-9.9-29.24-10.1-32.23-2.24-73.97,26.43-94.17,13.94-9.82,26.52-5.77,37.54-22.46,13.58-20.58,19.37-54.05,48.3-60.64,6.43,23.45,15.17,47.55,30.02,67.04,1.14,1.68,3.47-1.01,4.11-1.98,11.92-18.19-13.95-65.88-18.12-86.04l15.03-17.01,6.98,7.95c2.14-12.84,4.37-25.29,15.03-33.95l10.56,23.31c-7.11,14.03-12.31,21.05-11.64,37.74.67,16.65,15.6,42.69,11.68,55.51-.71,2.31-27.81,34.78-30.7,37.29-20.78,17.98-40.05-33.9-41.91-47.87l-5.7-1.78c-1.99.7-3.04,2.24-4.16,3.89-3.75,5.5-5.78,34.63-3.77,41.53,6.49,22.36,22.16,11.51,20.67-7.65Z"/>
  <path class="st0" d="M575.64,1412.36c3.72,12.64,43.45,30.73,45.96,39.06,6.62,21.97-41.66,32.19-56.54,36.56-2.24.56-1.26,2.63-.09,4.05,3.54,4.29,18.85,11.14,24.53,11.49,9.73.59,44.51-5.86,34.64-20.65-2.88-4.32-11.88-4.29-10.12-7.84,5.47-11,49.55-3.13,44.61,22.57-4.24,22.02-33.37,18.35-45.43,26.59-6.79,4.64-3.33,9.39,3.72,9.44,41.38.29,65.61-34.64,109.64-19.19,18.21,6.39,33.53,22.54,43.43,38.57-2.02,3.27-4.41-.69-6-2-48.7-40.29-79.32-13.05-129.9,5.09-1.53,6.94,6.44,11.14,11.87,12.93,9.8,3.22,49.39,3.48,49.35-10.04-1.35-7.23-8.61-8.52-13.87-11.44-9.36-5.2,9.34-7.78,13.54-7.71,25.91.42,25.8,18.48,39.12,29.04,11.65,9.24,40.98,10.38,27.89,37.09,10.8.78,28.81,6.93,36.03,14.99,6.81,7.6,7.66,24.05,15.19,28.8s31.17-3.13,43.8-1.78c23.07,2.48,49.82,22.76,58.97,44-9.52-3.97-16.16-12.66-25.56-17.42-32.04-16.22-57.58-.31-86.46,12.39-4.27,1.88-23.52,6.51-23.88,10.01,6.2,17.25,52.58,15.96,58.94,3.04s-7.74-11.19-13.01-17.99c43.32-14.99,68.61,33.63,18.41,47.39-19.78,5.42-38.57,4.79-57.44-3.39-17.46-7.56-39.84-24.11-42.81-43.84,8.15-4.44,60.4-17.15,61.83-23.22.47-2-1.4-3.97-2.88-5.06-11.84-8.73-54.59,17.62-75.23,13.21-3.46-.74-25.36-11.31-21.87-15.09,11.03-2.79,57.03-15.11,59.76-25.39,1.45-5.45-6.91-9.3-11.22-10.16-22.55-4.5-45.38,20.15-70.01,11.99-6.77-2.24-9.76-8.98-16.52-10.5-.79-3.95,1.86-4.8,4.58-6.37,15.78-9.17,45.02-13.1,61.51-22.49,2.68-1.52,7.91-3.2,4.97-7.15-6.02-9.22-28.25,6.4-37.16,8.96-27.82,8.02-70.32,1.05-89.86-21.95-9.32-10.97-10.77-28.55-20.72-38.29-7.78-7.61-28.93-15.42-40.27-24.73-9.08-7.45-17.7-17.77-25.03-26.98l71.87-29.08c1.24-5.87-3.11-8.99-7.86-10.91-23.24-9.39-65.33,15.38-86.93,25.14l-12.89-17.45,5.77-8.67c-12.79,1.25-24.46-5.17-33.95-13.01-.07-1.93,22.21-11.06,25.06-10.91,3.71.21,9.83,8.12,16.36,9.45,15.39,3.13,33.65-.61,48.53-4.55,5.42-1.43,20.03-8.79,23.65-6.63Z"/>
  <path class="st0" d="M2257.98,966c4.8-21.76-19.3-46.53-41.43-44.71-9.6,5.55.65,13.39-1.53,20.7-28.18-10.68-35.46-56.17,4-51.98,15.79,1.68,39.46,20.8,47.81,34.17,12.22,19.56,20.21,56.04,5.97,75.67l-57.82-27.78c-5.29,3.65-3.01,11.02,1.13,14.83,7.17,6.59,33.82,16.5,44.5,23.5,14.96,9.8,19.48,19.39,19.38,37.6-20.86-8.4-40.42-26.1-63.99-24,.68,41.61,72.57,27.9,64,77.99-2.56,2.66-54.89-25.49-62.89-28.09-3.37-1.1-11.51-4.88-11.18,1.15.67,12.14,17.58,12.82,26.79,17.24,31.42,15.08,58.19,50.15,53.11,86.54-1.11,7.94-6.26,14.2-8.42,21.57-6.36,21.7,2.51,29.31,6.09,49.12,3.2,17.7,1.49,32.81.5,50.48l-69.92-31.2c-4.76-1.83-6.35,1.81-6.07,6.04,1.63,24.67,61.39,44.47,82.01,49.2l-2.94,22.07-11.07-.07c8.14,10.07,15.2,22.44,13.99,35.97l-25.66-10.32c.25-30.12-37.04-49.83-62.09-57.9-1.02-8.16.51-16.57-.27-24.74-2.28-23.84-19.27-55.7,22.07-44.07,13.5,3.8,24.39,13.64,35.87,18.13,1.69.66,5.44,2.24,6.12-.12-2.39-7.7-2.59-15.86-7.12-22.88-10.73-16.61-50.56-36.44-38.92-.1-18.36-2.79-35.01-35.45-18.48-48.04,16.48-12.56,40.25,7.42,55.53,13.98,10.51-7.37-12.81-22.32-19.64-26.32-30.36-17.76-64.76-17.03-74.91-61.09-2.76-11.99-5.13-34.82,3.51-44.53.06,21.3,7.61,44.66,24,59.02,8.74,7.66,49.32,26.41,61.47,30.53,4.86,1.65,9.26,3.15,14.54,2.45,5.73-15.48-32.55-52.19-44.01-45.08-6.3,3.91-2.03,17.17,2,22.1-8.5,3.42-23.14-13.68-25.05-20.96-3.36-12.85,1.9-22.46,1.2-33.03-1.02-15.61-21.62-35.57,5.82-48.03-6.42-7.9-14.2-23.75-14.03-33.9.19-11.19,11.03-22.85,9.69-31.69-1.29-8.52-23.52-20.76-30.65-29.38-9.09-10.99-16.08-28.77-16.94-43.06-.19-3.05,2.31-36.39,5.95-30.97-3.03,63.91,52.62,72.53,98,94Z"/>
  <path class="st0" d="M1989.81,367.81c-20.37,6.89-42.31,10.85-60.84,22.18-1.84,2.55,6.1,7.27,8.51,7.7,7.46,1.32,39.93-12.22,50.5-14.7,14.59-3.43,18.27-2.94,31.35,4.69,2.14,1.25,10.04,4.46,8.66,7.29-2.98,6.11-52.51,13.89-59.1,27.03-2.57,5.13,5.21,8.31,8.65,9.46,26.8,8.96,63.94-32.93,88.43,1.6l-3.36,4.55c-18.25,7.37-41.69,12.47-59.07,20.93-2.14,1.04-11.94,6.08-9.53,9.44,13.64,6.4,21.85-3.29,33.47-7.5,28.73-10.41,73.19-5.41,94.52,18.53,9.93,11.14,11.82,29.84,22.2,39.8,8.81,8.45,28.91,15.49,40.75,25.25,9.45,7.8,17,17.81,25.05,26.95l-73.98,29.03c-.58,3.29,1.75,5.2,3.9,7.05,18.47,15.85,73.02-11.18,91.09-23.05l14.96,18.97-7.97,6.97c7.51-.22,16.65,2.29,23.41,5.6,2.76,1.35,12.75,7.16,9.65,10.47-1.42,1.51-22.28,9.45-24.1,9.25-1.52-.16-8.32-7.04-12.57-8.7-19.54-7.61-53.12,2.73-71.77,11.15l-2.63-.61c-8.18-15.8-35.12-24.86-45.13-36.99-5.3-6.42-2.6-10.6,2.09-16.22,11.09-13.3,34.26-16.52,49.99-22,1.81-.63,6.01-1.35,4.1-3.95-14.22-12.33-30.81-15.2-48.62-8.57-17.75,6.61-17.96,16.46-.43,23.57-13.59,11.57-41.92,4.06-45.57-14.48-5.97-30.37,49.56-28.49,49.54-37.52-4.15-6.2-10.17-5.4-16.92-4.97-39.18,2.52-62.69,37.26-107.79,15.72-6.89-3.29-40.65-31.03-35.23-37.75,15.18,14.16,37.56,27.35,59.04,26.11,11.4-.66,52.04-16.35,64.32-21.72,3.77-1.65,14.63-5.33,11.69-10.45-8.33-14.9-59.93-12.02-61.21,1.11-.75,7.65,8.31,9.8,13.27,12.76,1.31.78,6.25.56,2.86,4.17-3.19,3.4-24.03,2.26-29.45.49-12.59-4.12-18.24-20.63-28.62-27.38-14-9.1-34.23-9.67-25.9-35.06-10.95-2.71-26.01-6.72-34-15.04-7.08-7.36-9.82-25.78-15.4-29.1-9.8-5.81-28.55,2.43-39.52,2.19-22.14-.5-57.03-22.39-63.11-45.06l19.37,14.63c39.08,25.89,78.69-7.6,116.64-17.67-6.64-20.22-61.97-18.91-61.49.75-.02,8.82,14.12,5.34,13.5,13.26-21.73,6.64-49.21-2.06-43.95-28.95,3.41-17.44,44.46-24.2,58.94-23.01,23.95,1.97,65.56,24.57,66.82,51.78Z"/>
  <path class="st0" d="M2033.5,1481.62c-.4.62-3.65,1.5-5.19,3.6-36.51,49.78-5.93,76.99,9.72,126.78,15.6-4.29,17.15-31.79,13.43-44.47-2.13-7.28-9.86-20.65-18.64-13.7l-6.83,11.2c-17.05-28.35,20.81-66.78,40.78-30.79,22,39.64,2.35,97.15-39.56,113.62-5.58-1.27-16.22-47.09-20.8-55.25-1.4-2.5-4.59-8.48-8.48-5.67-10.56,7.66,8.6,45.63,11.14,57,3.99,17.86.5,29.4-13.04,42.06-6.41-14.75-9.64-34.17-16.95-48.07-15.13-28.8-23.09,0-17.68,19.69,6.64,24.13,23.49,44.41-2.4,66.35-2.77-2.2-4.62-4.69-6.01-7.96-5.42-12.77-15.64-53.2-22.99-61.01-1.87-1.99-2.77-3.69-5.98-2.99-6.29,14.23,6.03,25.14,10.07,38.9,8.29,28.22-.19,72.69-25.1,91.09-7.41,5.47-15.64,6.83-23.08,10.92-20.55,11.29-20.61,27.23-33.97,44.03-2.8,3.53-27,28.57-29,29.02-2.75.62-3.49-1.51-4.56-3.37l-26.3-67.71h-6.16c-13.05,17.48-1.78,44.18,5.72,62.46,3.96,9.66,9.47,22.18,16.31,29.64-3.57,3.08-17.94,17.67-21.91,14.98l-4.02-7.97c.01,13.33-5.02,27.14-15.02,35.95l-10.62-25.36c-.04-3.39,6.46-7.86,8.63-12.59,8.29-18.01-2.05-54.06-10.71-71.38l.59-2.58c7.31-6.79,13.8-14.4,19.93-22.23,6.97-8.89,13.66-27.13,25.99-25.81,16.47,1.77,27.47,43.65,29.19,57.97,12.7-3.51,16.63-21.44,15.97-32.94-.58-10.27-8.37-37.73-21.91-25.97-4.08,3.54-2.07,10.19-8.05,8.92-4.79-16.52-2.08-41.03,18.38-44.63,22.92-4.03,28.57,33.15,33.64,48.61l7-1.95c5.74-38.66-26.16-63.14-20.87-102.87,2.97-22.29,22.77-43.49,40.84-55.16,1.63,7.65-8.31,13.95-12.62,21.38-6.37,10.96-11.23,26.77-10.39,39.57.62,9.45,17.65,55.75,22.55,65.5,14.02,27.91,20.85-14.65,19.24-29.25-1.43-12.92-9.16-32.69-20.7-15.13-1.51,2.3-3.35,13.4-7.05,9.91-3.09-2.91-2.69-26.5-.53-31.49,5.03-11.62,20.49-16.95,26.51-25.49,8.97-12.73,10.21-38.22,35.96-27.02,2.27-13.41,9.03-32.52,21.31-39.71,6.39-3.74,18.87-4.49,22.84-11.16,5.67-9.53-2.46-27.27-2.2-38.04.6-25.03,21.8-53.1,43.09-65.08,1.92.29,1.26,4.41.49,5.6Z"/>
  <path class="st0" d="M1520,1817.98c-63.69-5.41-73.66,52.64-94,98,16.19,2.54,33.51-10.21,40.89-24.09,4.4-8.28,8.77-23.62-5.72-21.9-2.87.34-13.1,7.72-11.14,1.05,4.33-14.73,29.38-28.78,44.05-18.11,20.11,14.63-.81,48.62-14.29,61.85-20.07,19.7-61.9,30.11-87.73,17.09l27.89-60.9c-5-6.73-13,.1-16.83,5.14-17.46,22.94-17.18,62.07-57.1,61.88-3.29-3.34,19.49-42.15,21.09-49.87.81-3.89,2.8-14.77-2.25-16-32.41,4.09-27.56,54.43-55.21,62.52-5.64,1.65-11.31.78-16.72,3.02l-2.63-4.31,28.76-61.3-.07-10.07c-15.15,3.54-15.04,19.41-20.64,31.36-12.41,26.48-49.29,51.9-79.23,50.73-10.99-.43-18.64-7.33-28.23-9.95-22.88-6.26-34.87,5.51-56.12,7.64-7.42.74-33.55,1.6-39.47-.05-1.33-.37-4.07-2.26-2.44-3.79l31.05-68.95c-1.84-2.77-3.7-3.12-6.87-3.11-24.68.08-43.57,60.35-49.17,80l-23.85-1.86c6.25-19.42-6.65-3.47-16.64.38-5.46,2.1-11.46,3.71-17.36,3.62-1.5-1.48,9.1-24.4,10.96-26.02,3.94-3.46,11.33-.95,17.78-4.22,7.82-3.96,24.17-25.01,28.86-33.14,2.53-4.38,11.05-25.61,13.26-25.95,14.39,6.63,55.63-11.35,65.23-1.77,14.4,14.36-14.25,48.67-18.06,62.18-1.18,4.18,2.27,3,5,3.01,21.37.06,41.83-24.77,38.66-45.77-6.65-4.22-12.67-.29-19.7-.32,16.07-36.88,67.87-31.76,45.76,16.78-1.99,4.37-18.57,25.35-6.74,25.31,15.77-.04,32.59-55.52,39.27-66.79,17.96-30.33,55.01-38.7,87.72-31.26,5.7,5.4-16.14,4.02-18.52,4.46-28.75,5.3-41.2,20.27-53.2,44.8-3.11,6.37-22.88,50.11-20.29,52.71,16.42,6.51,46.5-25.92,45.89-39.08-.58-12.46-17.28-3.58-23.9-3.93,1.56-8.48,12.39-18.71,20.02-21.98,14.24-6.11,24.92,1.06,38.88-1.13,16.42-2.57,30.28-16.39,44.07,5.91,13.69-7.84,25.09-14.13,41.58-11.3,8.88,1.52,14.48,8.7,24.28,7.47s19.48-22.37,28.23-29.91c16.53-14.23,47.48-20.25,68.25-14.34,2.7.77,6.09.78,6.71,4.27Z"/>
  <path class="st0" d="M1690.01,103.99c-.68,17.21,1.79,8.47,9.31,4.33,7.84-4.32,17.5-8.55,26.67-5.33l-11.97,24.03c-15.55.04-26.64,10.65-35.96,22.04-10.21,12.49-15.98,26.52-23.33,40.67-13.47-4.46-53.88,9.19-62.67,5.27-18.27-8.15,7.33-53.81,15.08-64.92l-2.17-4.07c-17.35,2.51-29.96,10.05-38.08,25.88-9.26,18.06-6.88,26.91,15.09,20.11-1.94,19.88-35.25,36.05-47.71,16.73-13.12-20.36,19.54-50.96,13.71-56.73-7.17-1.36-10.74,3.16-15.01,7.97-20.34,22.94-19.95,55.2-44.03,75.97-13.09,11.29-34.98,16.22-51.95,16.23-3.03,0-24.92-3.36-21-6.16,19.04.81,47.5-8.13,60-23.02,5.11-6.08,34.85-69.8,33.9-73.86-.66-2.78-4.08-3.22-6.67-3.1-15.92.73-43.08,28.29-38.97,45.7,6.64,3.27,14.98.38,20.76-3.72,5.1,7.6-13.27,23.3-18.91,25.1-12.6,4.01-26.13-2.51-36.95-1.05-5.46.74-11.06,5.76-17.04,7.04-11.58,2.48-24.03-.65-27.1-13.09-9.82,5.98-24.15,14.46-35.96,14.07-10.07-.33-22.06-11.1-31.65-9.71-8.29,1.21-19.41,24.69-28.42,31.61-18.03,13.86-51.93,21.44-72.98,11,13.61-2.96,27.47-3.29,40.1-9.88,30.31-15.81,37.7-60.77,51.89-89.09-17.39-8.6-53.82,28.22-42.18,43.16,6.33,7.36,11.72-1.77,18.2-.16-3.51,11.38-15.02,21.9-27.02,22.98-26.66,2.41-28.78-21.46-19.36-41.36,17.9-37.8,64.85-55.85,104.2-42.47,4.75,6.77-28.18,51.85-25.83,63.82,7.54.96,10.45-.44,14.86-6.12,17.67-22.78,19.02-64.65,59.12-61.86,2.6,2.33-27.72,48.2-23.82,60.69,3.15,10.1,20.97-3.75,24.7-8.83,15.38-20.97,15.76-57.21,53.14-51.86,3.52,3.54-23.78,53.69-26.93,62.06-2.88,7.64-6.23,17.36,6.02,10.02,6.43-3.85,13.94-31.81,21.86-42.14,16.74-21.83,49.92-40.09,77.92-35.83,6.9,1.05,14.71,6.92,21.14,8.86,19.92,5.99,29.3-2.66,47.89-6.09,17.89-3.3,32.13-2.64,50.09-.89l-29.63,67.47c-1.24,4.03-.2,8.38,4.5,8.48,26.16.55,43.47-61.5,51.04-81.12l22.11,1.15Z"/>
  <path class="st0" d="M471.59,678.4c1.19,2.15.26,9.85,1.95,15.08,5.88,18.14,42.47,34.98,58.2,43.79-2.84,11.95,11.2,58.8,4.31,65.79-8.64,8.78-32.58-1.44-42.14-5.96-6.18-2.93-15.67-10.96-20.94-13.07-3.4-1.35-2.79.89-3.03,3-1.77,15.57,14.43,34.41,28.07,39.97,29.42,11.99,16.63-15.53,18-16.97,35.79,11.82,32.49,65.83-13.39,46.38-4.46-1.89-29.39-20.28-28.37-7.69,21.95,31.12,63.25,26.75,86.59,57.47,15.72,20.69,15.04,45.23,11.16,69.84-5.19,6.38-4.05-16.42-4.47-18.53-2.86-14.61-12.47-34.41-24.53-43.47-6.8-5.11-60.76-30.2-68.4-31.62-1.54-.29-3.02-.57-4.58-.38-5.37,17.4,23.4,46.8,38.99,46.18,15.72-.63.83-21.39,3.02-24.18,14.95,6.22,25.87,18.02,25.97,35.01.1,19.21-2.37,16.65,3,36.98,3,11.36,2.77,28.15-10.99,30.02,5.5,15.76,15.35,26.32,11.54,44.54-1.04,5-6.09,9.96-7.1,14.91-3.8,18.56,9.17,18.69,20.5,28.6,24.92,21.78,28.55,50.27,23.05,81.95-4.76.28-3.52.63-3.97-2.99-1.05-8.25-.73-16.9-2.93-25.1-10.53-39.2-62.68-49.37-95.07-63.9-7.24,17.74,29.56,53.31,44.11,43.11,4.46-6.16,1.21-13.57-2.13-19.1,30.11,4.38,36.73,56.48-.82,51.81-42.93-5.34-78.95-72.08-55.94-109.72,6.06-1.84,46.23,25.23,59.75,25.93,3.04.16,3.53.32,3.03-3.03-2.48-16.37-35.06-24.9-48.62-33.41-16.15-10.13-18.7-18.88-21.39-37.59,1.8-1.88,41.31,19.52,47.55,21.43,4.48,1.37,14.55,4.77,17.57.66l.88-3c-5.55-29.48-44.46-26.54-59.09-47.02-6.07-8.5-4.26-16.48-6.92-26.06,3.58-3.07,55.09,23.72,64.05,26.92s16.74,3.53,8.85-6.85c-5.09-6.7-19.44-8.55-27.63-12.37-27.14-12.65-53.52-49.83-51.13-80.45,1.14-14.57,12.29-26.64,12-42.25-.22-12-8.59-27.36-9.94-40.22-1.45-13.75.61-28.87-.2-42.78l75.98,29.99c.29-4.74.33-8.97-1.5-13.49-7.29-18.07-59.22-37.77-78.46-40.54l1.96-23.98,10-.98c-3.89-3.26-6.36-6.99-8.37-11.63-1.65-3.82-9.57-24.41-1.54-22.52l23.51,11.54Z"/>
  <path class="st0" d="M969.98,120c-.36,7.4,8.26,18.69,7.93,25.1-.22,4.26-4.96,5.82-6.76,9.05-7.58,13.57-1.83,41,1.87,55.83,1.35,5.44,6.18,13.83,6.7,17.52.64,4.54-16.23,21.16-20.54,26.67-5.94,7.58-13.23,26.52-24.04,25.8-17.23-1.14-28.07-45.92-31.16-59.97-21.07,7.42-18.58,65.5,2.96,62.11,6.79-1.07,5.17-9.72,11.04-12.11,14.1,38.14-25.37,70.29-44.04,21.06-1.65-4.35-5.42-30.94-12.88-23.03-4.03,5.73-1.79,17.37-.53,24.44,4.59,25.9,23.54,45.73,21.33,74.25-1.41,18.19-23.4,54.01-40.88,59.24-9.81,2.93,7.12-12.91,7.91-14.1,13.44-20.12,16.26-38.41,10.04-61.79-1.94-7.3-20.56-55.53-23.84-58.16-2.08-1.67-2.13-2.93-5.12-.99-13.83,9.02-10.71,61.19,3.04,61.13,5.8-.03,8.82-8.96,11.29-12.78,5.67-8.76,7.98,9.43,7.87,13.71-.56,23.03-17.55,25.06-28.19,37.97-10.77,13.06-9.57,38.3-37.96,29.03-.8,13.74-8.34,31.45-20.59,38.43-4.52,2.57-9.35,2.77-13.21,4.79-19.41,10.11-9.33,19.46-8.25,35.82,1.58,23.9-8.31,45.98-25.93,62-2.64,2.4-15.15,13.26-18.02,10.96l15.59-21.39c24.25-38.31-8.86-75.77-17.62-112.6-6.19-1-8.54,2.98-11.09,7.89-8.01,15.4-8.07,43.99,10.11,52.18,6.58-.82,6.69-7.09,8.82-11.23.8-1.55.6-6.18,4.15-2.84,2.56,2.41,2.59,22.18,1.61,26.57-3.52,15.76-25.61,24.49-37.56,12.4-13.72-13.88-17.33-46.89-13.12-65.07,3.38-14.58,30.74-61.42,47.82-55.75,4.79,1.59,15.51,48.34,22.4,57.72.91,1.24,3.17,4.88,4.89,3.15,13.62-9.21-15.52-58.13-11.56-77.58.65-3.17,11.28-25.35,15.53-21.44,3.95,11.61,14.57,53.99,23.97,59.08l4.8.8c19.92-22.69-9.1-49.34-6.86-74.88.68-7.72,8.86-24.4,18.08-23.01,6.68,19.35,12.76,43.65,21.02,62,.87,1.94,5.13,12.65,9.06,9.07,9.28-8.46-4.4-25.7-7.58-34.54-10.75-29.91-2.62-78.91,25.61-97.43,6.18-4.05,14.74-5.31,21.26-8.74,18.99-10,21.8-29.36,34.7-45.3,8.21-10.14,20.27-19.07,28.98-29.03,4.25-.69,2.35.7,3.16,2.74,4.01,10.06,22.45,67.51,27.76,70.37,2.83,1.52,3.04.63,5.14-1,19.08-14.85-11.17-75.72-20.95-92.88l16.88-15.23,8.96,7.97c-1.23-12,3.69-29.75,15.99-33.99Z"/>
  <path class="st0" d="M1891.99,1236.01c1.93,1.92-8.78,13.83-10.38,16.6-10.77,18.61-13.63,26-8.63,47.41,4.67,20.02,16.54,45.86,24.12,65.96.96,2.55-.02,4.88,3.87,4.01,13.96-10.81,18.25-48.77,2.14-58.08-10.51-6.07-13.71.8-16.1,10.09-8.89-8.72-5.07-23.73.57-33.41,1.01-1.72,10.04-13.28,10.97-14.01,4.37-3.43,13.79-4.04,17.45-11.6l4,2.05c-7.74,15.86,8.43,28.31,12.66,41.31,8.46,25.98,1.28,63.39-19.71,81.61-11.24,9.75-26.37,14.14-38,24-17.89,15.16-21.29,34.04-34.15,47.85-6.1,6.55-17.29,11.51-23.81,18.15-7.35-13.2-18.52-61.9-27.93-70.03-1.75-1.51-2.27-2.56-5.04-1.93-16.83,31.16,11.06,62.93,19.77,92.58l-12.82,15.41-8.95-7.98-6.31,21.7-17.5.06c-6.42-14.06,1.86-16.17,6.18-26.38,11.9-28.17-16.46-63.41-12.09-76.06.59-1.72,10.65-8.79,13.65-12.39,6.3-7.56,17.73-29.6,25.98-32.12,20.88-6.38,28.16,41.96,35.67,54.57,1.61,2.7,2.36,5.39,6.36,4.59,10.03-15.33,9.95-36.53,4.71-53.66-2.8-9.16-11.52-11.95-17.87-4.51-2.73,3.2-1.45,7.88-4.78,8.17-8.82-18.44,3.07-48.86,26.55-43.57,18.26,4.11,19.89,43.15,23.47,45.57,8.12,5.48,8.23-9.4,7.47-14.51-4.14-28.05-23.44-50.66-21.48-82.44,1.52-24.59,17.65-48.83,39.96-59.02Z"/>
  <path class="st0" d="M1415.99,380.01l-1.98,9.98c1.98,1.94,15.82-8.51,19.92-9.26,5.97-1.1,12.95,9.52,10.21,16.32-3.95,9.82-9.59,5.44-17.6,8.5-26.58,10.15-32.78,42.4-46.58,63.57-7.21.36-13.26-1.56-20.93-1.08-9.63.6-23.02,6.19-32.1,6.02-38.46-.72,15.81-71.52,6.04-72.08-8.04,1.05-15.36,3.3-21.96,8.04s-24.78,26.88-22.71,34.53c4.97,9.28,11.61,9.01,19.68,3.46-1.97,19.93-36.92,31.25-47.7,14.73-11.52-17.64,9.69-35.34,13.7-51.63l-4.66-2.85c-11.63.98-27.35,46.35-33.26,56.8-19.32,34.18-50.85,49.43-90.06,40.93-.5-5.34-.04-3.22,3-3.95,31.62-7.58,39.96-3.18,58.04-34l28.95-64.03c-17.05-4.71-43.01,17.01-44.07,33.06-1,15.09,7.08,18.54,18.06,8.93,2.1,16.02-21.94,25.96-34.99,26.15-9.62.14-16.08-6.12-25.85-4.12-4.43-6.33,4.84-7.22,8.57-13.33,5.17-8.45,5.51-21.2,9.89-30.11,10.63-21.64,40.81-42.36,65.38-42.74,18.36-.29,33.32,9.15,49.94,10.21,22.04,1.41,38.33-9.22,54.37-9.95,3.64-.16,31.62,2.67,32.71,3.9-7.18,20.13-23.67,44.08-28.63,64.36-1.02,4.16-2.94,6.52,1.61,9.56,33.3-9.48,36.71-52.21,50.94-79.02l22.07-.91Z"/>
  <path class="st0" d="M902.03,608.01c-3.68,8.84-9.86,17.02-10.09,27.09s4.81,47.32,20.26,34.08c4.4-3.77,1.71-10.14,7.79-9.18,12.77,26.1-22.98,63.46-40.39,31.41-4.18-7.69-7.29-33.73-13.48-34.56-5.42-.72-5.75,7.59-5.32,11.17,4.08,33.64,25.67,53.14,20.99,92.77-2.36,19.98-19.63,46.54-39.78,51.2,27.55-31.73,25.16-51.31,11.53-88.51l-18.53-45.43c-12.41,11.32-15.61,30.21-12.14,46.09,1.73,7.95,12.19,20.96,20.34,14.07,4.67-3.95-.09-11.65,6.77-10.2,4.52,9.99,3.47,21.66-1.57,31.4-.77,1.49-10.58,13.84-11.46,14.54-3.08,2.44-6.74,1.77-8.79,3.21-4.3,3-6.72,8.95-12.14,8.84,5.65-16.93-8.17-28.55-12.96-42.04-8.4-23.64-3.84-56.13,12.13-75.77,12.42-15.27,28.98-18.02,42.85-29.15,18.78-15.08,22.22-34.17,35.17-48.83,2.42-2.74,21.19-17.31,23.93-18.09,3.91-1.11,2.39.78,3.07,2.65,6.62,18.07,10.99,37.15,19.46,54.59,1.19,2.46,6.91,16.06,10.36,13.68,18.04-30.79-10.11-62.51-18.07-91.96l13.06-17.04c4.47,2.32,3.38,9.42,8.99,7.97l7.36-22.07c8.82-.15,13.24-1.79,16.5,7.27,4,11.09-1.99,9.44-5.57,16.1-7.82,14.59-3.59,35.09,1.11,50.31,2.2,7.13,12.08,23.05,10.35,28.98-.71,2.44-12.26,10.47-15.7,14.46-9.03,10.47-16.84,33.67-32.96,30.98-15.11-2.52-20.82-50.7-33.07-60.03Z"/>
  <path class="st0" d="M746.01,1058.01c-2.13,18.85,14.35,33.21,29.35,41.63,16.9,9.48,21.77,1.41,16.66-15.64,19.15,4.04,31.31,37.67,13.43,48.43-18.81,11.33-42.66-15.98-50.41-14.44-2.25.45-3.44,3.99-2.73,6.67,2.63,9.92,51.14,28.55,62.3,35.73,31.39,20.17,41.53,49.25,33.36,85.61-3.94-.81-3.42-4.09-3.96-7.01-2.85-15.26-4.77-30.9-15.53-43.03-25.11-18.13-54.84-26.65-82.47-39.95-2.03,17.27,15.62,42.43,32.97,44.07,25.62,2.41,9.71-18.47,11.03-20.07,20.04,7.52,25.48,24.71,23.88,44.89-.25,3.18-2.91,5.66-3.32,8.36-.62,4.05,4.36,9.23-1.58,12.71-9.86-17.14-28.97-15.13-44.38-23.58-28.34-15.54-44.3-49.3-38.1-80.86,1.43-7.27,5.06-13.04,6.58-19.43,8.39-35.24-15-63.27-4.15-98.15,2.44-4.06,16,5.81,20.34,7.77,12.71,5.74,30.42,15.2,43.09,18.91,3.44,1.01,10,4.01,9.7-1.66-1.5-28.59-56.78-39.24-77.12-50.92l-2.94-22.04,11.99,1.97c-2.81-7.16-12.79-15.71-9.02-23.92,4.64-10.11,16.65-9.7,21.76-.12,1.21,2.26.65,8.05,2.28,11.99,10.4,25.16,39.27,33.54,62.06,43.98,3.14,4.63-.4,16.65.06,22.38.92,11.4,10.69,38.34-.35,45.49-12.59,8.15-50.18-16.91-64.77-19.78Z"/>
  <path class="st0" d="M1585,1542l2.02,4c-12.79,3.23-26.54,4.37-38.79,11.23-21.08,11.8-29.74,46.43-38.77,67.23-2.5,5.76-9.65,14.07-11.44,18.57-1.35,3.39.88,2.79,3,3.03,19.79,2.24,54.73-31.52,40.03-46.1-6.77-6.71-15.27,3.86-17.04,2.03,2.38-19,26.3-25.69,42.88-23.89,3.48.38,6.13,3.02,10,3.63,3.38.54,10.93-5.57,11.09,4.23-15.43,4.36-14.62,23.27-19.58,35.44-9.2,22.52-40.95,45.76-65.61,46.39-17.94.46-36.73-10.92-53.8-11.38-28.56-.77-55.88,18.65-84.98,5.56l31.94-69c-1.54-1.79-2.16-2.85-4.77-2.9-26.07-.52-40.47,58.97-49.49,77.6l-23.68,2.31,1.97-11.99-20.96,10.12c-3.14-.2-10.53-9.92-10.19-12.2,2.12-14.16,15.68-9.83,25.3-14.81,20.17-10.44,28.62-42.04,39.84-60.14,6.64-3.39,14.82.79,20.72.29,10.42-.87,23.96-5.86,34.35-5.48,31.58,1.15-4.02,52.96-7.38,66.92-.4,1.66-2.66,4.96,1.32,5.23,2.48.17,16.93-5.78,20.04-7.93,13.06-9.03,41.98-49.84,5.01-40.01,4.03-25.63,51.13-32.35,50.07-1.06-.53,15.72-16.88,26.17-16.08,41.06,9.16,1.71,11.4-4.96,15.6-11.38,14.35-21.94,18.96-49.64,39.32-68.68,4.73-4.42,26.75-17.93,32.07-17.93h36Z"/>
  <path class="st0" d="M1889.99,804c.82,13.28,4.6,30.2,11.24,41.77,13.38,23.3,65.17,32.27,86.74,48.24,6.64-19.26-26.01-56.55-43.92-42.94-8.34,6.34-1.12,9.97,1.94,16.92-16.72-.49-26.89-24.6-26.22-39.04.28-6.13,3.17-7.79,4.12-12.04.56-2.5-1.81-15.37,3.08-12.89,7.66,15.98,25.19,13.79,38.4,19.61,20.21,8.9,41.87,37.63,44.39,59.59,2.57,22.45-8.92,37.35-9.85,57.69-1.01,22.19,9.21,37.89,9.97,54.38.43,9.36-3.8,22.86-3.9,32.71-1.53,1.64-11.94-6.98-14.64-8.34-10.46-5.27-42.51-19.99-52.54-21.47-1.95-.29-6.86-1.07-6.84.85,8,35.32,53.51,36.25,79.07,52.93l.95,22.05-9.99-1.99,9.32,21.03c-5.33,5.82-7.43,12.57-15.76,8.48-9.54-4.68-6.95-12.86-10.56-21.53-9.96-23.93-61.27-37.94-62.79-43.31,8.26-13.48-12.39-58.7,1.76-65.72,13.24-6.56,49.59,15.29,63.08,20.99,6.91,2.06-.55-16.24-1.58-18.43-3.94-8.33-27.95-29.08-36.48-28.74s-12,13.63-4.98,19.18c-31.38-6.16-33.43-62.07,9.35-46.33,9.03,3.32,26.27,19.77,30.63,7.39-19.92-21.15-50.83-24.47-72.94-43.09-21.18-17.83-30.19-40.92-26.81-68.74.42-3.42.75-10.96,5.75-9.22Z"/>
  <path class="st0" d="M1850,609.98c11.37,3.45,27.2,4.47,21.66,20.7-4.44,13-19.97.01-25.2-2.14-26.9-11.1-50.99,5.52-76.53,12.45-6.55-5.63-12.3-13.66-18.93-18.99-9.63-7.74-29.5-14.07-27.04-28.89s46.92-22.64,58.03-30.11c2.88-1.94,1.92-2.01.05-4.03-11.23-12.18-37.49-9.97-52.12-5.98-15.24,4.16-11.22,18.12,2.06,22.01-16.44,12.1-48.56-4.04-43.08-25.03,5.52-21.14,41.27-16.96,46.15-25.9,1.33-2.43,1.35-3.61-1-5.12-10.7-6.84-49.31,13.09-61.65,16.47-39.38,10.8-74.28,1.14-94.41-35.39,10.22,2.51,16.82,11.04,27.28,15.7,21.02,9.34,31.19,5.63,52.24-1.19,19.17-6.21,36.22-17.6,56.47-20.55-7.53-20.32-64.22-20.48-62.09,2.99.78,8.65,13.16,3.48,12.1,11.01-15.46,5.39-36.64-1.66-46.02-14.95-2.33-3.3-2.32-7.31-3.88-9.62-.7-1.03-16-10.83-3.97-10.63,4.27.07,5.79,1.62,11.98.34,9.65-1.99,17.36-10.16,26.78-13.23,34.73-11.31,69.86-.03,89.93,30.28,6.23,9.41,8.87,20.13,17.09,28.91,19.9,21.28,51.26,26.4,64.04,55.92-19.38,8.08-40.46,13.32-59.3,22.64-3.41,1.68-14.66,5.04-10.7,9.39,18.4,20.24,70.1-11.68,90.75-18.71l17.26,14.67-7.96,6.97Z"/>
  <path class="st0" d="M978.68,1423.32c9.17,7.82,36.98,18.62,33.03,33.23-3.27,12.08-47.11,24.69-58.62,29.41-4.6,3.04,8.37,10.03,10.93,11.02,14.89,5.75,34.99.99,48.99-4.95,2.05-3.46,1.62-10.1-.82-13.25-2.93-3.77-9.78-.53-8.19-6.76,32.17-11.16,63.58,28.15,22.55,43.53-6.37,2.39-18.93,3.61-23.35,6.65-8.73,6-.77,10.17,7.22,9.42,21.14-1.99,45.22-18.33,67.09-21.1,33.4-4.23,64.96,7.34,78.47,39.49-32.7-26.43-52.5-25.6-90.5-11.52l-43.46,18.49c9.99,14.94,44.52,18.5,56.09,6.14,3.56-3.8,6.29-10.6,3.01-15.25s-12.96,1.76-11.12-5.83c15.19-5.25,33.25-1.21,44.08,10.88,4.62,5.15,4.26,8.69,7.06,12.94,2.23,3.39,8.9,3.02,6.85,10.13-16.56-5.44-26.9,7.59-40.42,12.58-30,11.07-66.34,2.51-86.4-22.74-8.72-10.97-12.93-25.96-22.09-35.91-19.18-20.84-51.58-26.31-63.11-54.92-.62-4.23.71-2.41,2.83-3.2,11.92-4.46,58.66-18.34,65.14-24.87,1.65-1.66,3.58-2.52,1.13-5-29.15-18.06-61.72,10.25-89.99,18.12l-17.03-13.13,7.95-8.92c-15.91-1.2-25.8-2.98-21.74-21.75,14.5-8.97,17.97,3.8,29.68,6.79,11,2.81,31.04-.65,42.04-4.07,8.43-2.62,22.72-13.99,31.08-9.14,4.41,2.56,8.4,10.73,11.61,13.47Z"/>
  <path class="st0" d="M1714,1284.02c-23.38,18.36-23.84,43.02-16.98,69.96,1.94,7.62,22.07,61.87,25.98,61.98,13.26-15.32,17.29-37.24,4.68-54.63-11.91-16.43-17.39,9.27-18.67,8.66-16.36-21.44,11.16-62.12,35.07-37.07,21.62,22.65,16.07,68.68-2.13,92.04-4.26,5.46-29.83,31.23-35.86,26.97-5.93-15.62-8.44-36.11-16.34-50.68-4.16-7.67-10.4-15.19-13.33-1.8-4.11,18.82,20.96,48.58,17.21,69.03-1.16,6.33-10.51,18.32-17.61,19.51-2.25-1.71-11.57-45.97-17.15-53.85-1.61-2.27-2.91-4.03-5.97-4.23-6.29-.57-9.9,5.94-10.78,11.21-5.37,32.34,38.87,61.08-1.12,86.85-5.16-9.32-22.3-68.43-30.23-69.85-15.63,6.42-1.18,22.34,2.19,31.92,11.45,32.55,10.08,66.83-18,89.58-19.15-16.53-2.05-23.7,1.67-37.97,2.95-11.34-3.27-42.91-18.11-36.34-2.93,1.3-6.7,11.83-9.55,6.72-7.02-25.99,9.64-35,22.98-51.08,8.41-10.14,8.49-19.19,22.65-25.34,3.88-1.69,13.22-2.62,14.94-4.05s3.66-13.5,5.46-17.56c9.72-21.9,32.25-20.7,38.74-33.26,3.51-6.8-.84-32.5.28-43.71,2.15-21.53,18.72-47.05,39.98-53Z"/>
  <path class="st0" d="M1796,685.97c-13.62,3.87-27.81,6.84-41.04,11.98-5.92,2.3-23.68,7.73-18.67,15.78,33.03,10.1,70.51-40.02,95.72,2.24-13.07,5.35-46.76,10.08-56.57,17.91-8.02,6.41-.82,14.55,7.68,15.99,25.2,4.26,40.52-16.78,63.9-16.05,14.96.47,11.92,10.23,22.98,14.21.71,3.58-1.7,5.09-4.52,6.43-6.46,3.07-19.63,4.75-27.99,8.01-6.29,2.45-30.63,12.68-34.18,15.82-5.74,5.09-1.81,8.2,4.19,9.34,9.01,1.72,14.14-4.47,21.99-7.17,27.74-9.53,45.09-13.37,72.94.11,5.39,2.61,25.44,13.21,17.61,20.45-14.53,13.42-25.01-4.04-37.48-6.57-13.25-2.69-28.39,3.79-36.06,14.52l11.5,12.02c-13.98,8.34-32.94-.02-44.07-9.91-3.16-2.81-4.47-6.92-8.04-9.96-13.94-11.88-31.43-13.1-30.13-38.87-13.8-1.97-28.61-8.54-36.62-20.38-5.01-7.4-5.42-17.95-13.28-22.7-8.42-5.09-34.25.06-46.83-1.19-23.31-2.32-41.67-18.52-53.02-37.96l26.58,16.4c15.61,5.57,34.17,1.56,49.85-2.99,6.4-1.86,53.84-19.06,55.49-21.53,5.08-7.6-23.38-15.88-28.9-15.92-18.61-.13-48.29,17.86-15.03,26.05-7.44,9.65-22.89,6-32.45,1.43-25.59-12.21-12-36.95,10.01-44.91,42.33-15.31,87.46,7.38,104.45,47.43Z"/>
  <path class="st0" d="M1895.99,1049.99c-1.06-22.45-20.08-45.43-44.12-41.12-5.42,7.13.28,12.56,2.12,19.12-6.16,5.69-38.39-27.88-19.03-46.03s52.84,7.3,64.7,23.39c17.97,24.37,19.98,51.89,12.28,80.6-3.98,3.32-31.14-15.01-37.17-17.7-4.23-1.89-25.22-10.79-26.76-3.2,15.25,31,76.31,21.94,68,68.95-1.91,2.15-44.27-24.16-51.48-25.61-2.95-.6-5.72-.96-8.5.6-10.97,5.37,3.97,21.58,10.11,25.89,13.65,9.6,50.96,14.34,51.73,34.28.21,5.47-3.49,12.54-1.88,18.84-10.32-5.21-20.01-11.64-30.62-16.36-4.62-2.05-36.16-14.04-38.11-13.5-6.56,1.82-1.64,11.77,2.85,14.76,7.55,5.02,24.86,8.08,35.3,14.7,21.81,13.85,38.21,42.18,36.61,68.41-25.54,3.5-19.63-17.38-28.33-30.69-5.51-8.42-23.99-19.03-33.66-14.33-8.13,3.95,2.21,19.95-4.98,16.99-3.3-1.36-15.83-16.64-17.44-20.57-5.16-12.55-1.41-19.36-2.09-29.89-1.2-18.48-13.15-33.18,6.14-50.5-9.41-12.25-13.89-25.99-11.15-41.55,1.7-9.67,8.01-13.51,5.09-26.05-1.3-5.58-23.83-23.36-29.61-30.37-14.14-17.15-18.16-37.91-13.42-59.53.43-1.94.7-5.99,3.45-5.51-3.1,31.98,17.37,50.19,43.26,63.75,6.18,3.24,54.4,24.69,56.75,22.23Z"/>
  <path class="st0" d="M1428.01,1450.01c1.46,7.4-7.07,1.84-12.43,2.38-36.88,3.72-60.71,58.02-71.13,89.06-1.38,4.12-3.04,8.04-2.44,12.54,18.42-2.59,37.14-14.44,41.53-33.43,4.87-21.07-6.95-12.11-16.52-10.52-9.97,1.65,7.03-15.62,10.31-17.71,23.69-15.15,44.31.29,36.78,26.78-12.57,44.18-69.64,65.19-110.05,47.91,7.48-16.17,26.58-40.06,26.02-58.01-.26-8.13-13.04.72-15.78,4.28-16.16,21.03-14.71,68.12-56.28,58.7,2.89-11.17,31.45-51.17,25.12-60.12-4.81-6.79-20,2.97-24.02,8.24-10.12,13.26-15.33,51.5-34.01,53.99-6.44.86-14.42-.8-21.1-.12,11.04-23.33,25.17-46.43,29.99-71.97-19.6-1.79-22.19,29.83-32.32,44.66-9.89,14.47-28.79,26.12-45.66,30.34-9.93,2.49-22.66,7.68-19.6-7.53,3.68-18.28,23.63-10.91,34.91-22.16,4.95-4.93,14.17-25.23,9.8-31.46l-17.12-2.86c15.05-24.52,31.58-18.91,55-21,13.23-1.18,17.37-7.6,33.56-1.59,4.24,1.57,10.76,7.77,14.07,7.18,6.46-1.16,15.46-11.44,28.35-11.59,11.88-.13,24.94,9.08,33.83,7.95,10.74-1.37,22.72-21.47,31.16-28.98,19.87-17.69,42.42-19.84,68.03-14.97Z"/>
  <path class="st0" d="M878.01,822.01c24.96,10.97,19.95,31.55,22.01,52.97.87,9.04,5.09,15.95,4.05,26.05-.79,7.73-9.98,18.99-9.74,21.65.44,4.87,11.59,17.74,11.66,30.31.07,12.74-10.17,24.09-7.55,35.58,1.57,6.9,27.14,25.75,33.57,34.43,12.82,17.31,14.45,40.38,9.98,61-7.12,1.49-2.01-6.56-2.77-12.02-5.32-38.2-55.59-58.35-87.82-70.37-2.95-1.1-12.69-5.21-13.4-.58-.39,2.57,8.17,20.51,10.34,23.63,6.92,9.94,21.63,18.34,33.64,16.4,8.55-6.12,1.75-10.73.05-16.11-2.22-7.02,9.6-.26,12.06,1.95,12.46,11.18,19.29,39.28-1.57,44.59-30.03,7.66-66.8-29.53-71.62-57.4-1.33-7.7-2.86-50.55,4.19-52.08,11.4,3.82,47.58,28.56,57.66,25.81,7.41-2.02.42-12.61-3.72-15.85-21.08-16.51-67.57-15.58-59.01-55.97,1.99-2.22,45.61,24.15,53.97,25.21,9.46,1.2,9.3-9.22,5.76-15.97-10.65-20.3-58.37-21.53-61.61-42.37-1.02-6.54.43-14.17-.11-20.87,19.95,7.08,40,20.87,60.36,26.62,8.88,2.51,15.9,3.41,10.15-8.15-2.99-6.01-24.46-11.65-32.27-15.73-25.84-13.52-46.88-42.64-42.06-72.58,3.27-2.32,15.13,3.69,17.92,6.71,7.69,8.3,1.14,21.07,16.02,31.98,13.65,10.01,34.09,16.35,29.88-8.86Z"/>
  <path class="st0" d="M1554.5,533.5c4.82,4.84,17.8-2.66,15.48,3.47-4.48,11.81-25.13,20.56-37.08,21.11-4.17.19-7.82-2.06-11.69-1.88-7.91.37-17.24,5.65-24.27,5.91-10.93.4-22.22-10.21-27.97-10.02-2.8.09-8.94,5.33-13,6.89-24.93,9.53-36.19-6.24-52.94-2.91-7.34,1.46-20.81,21.61-28.1,27.88-20.1,17.32-43.73,21.06-68.92,14.03l18.5-2.46c13.43-2.8,23.87-11.25,32.51-21.49,10.7-12.68,28.21-49.83,33.9-66.09,2.99-8.53,4.71-14.31-7-11.02-18.13,5.09-38.73,24.87-31.64,44.8,5.8,1.17,12.28.46,16.72-3.7,2.82,15.89-26.95,30.84-40.03,21.99-21.1-14.28-2.95-46.19,10.23-59.8,24.37-25.17,57.91-28.8,90.8-20.19,2.15,2.41-19.09,37.06-21.53,43.46-2.27,5.96-7.56,15.94-1.42,20.52,13.58,2.65,26.48-39.29,32.61-49.34,9.52-15.61,17.21-20.22,36.33-18.65,2.49,2.41-23.74,45.44-25.15,53.92-2.15,12.96,11.21,10.48,19.02,4.92,17.85-12.7,18.85-59.76,43.3-60.71,5.04-.2,11.14,3.26,16.83,1.87l-27.05,59.93c-.54,3.31-3.7,12.87,2.06,12.09,13.08-1.77,18.41-29.24,25.4-40.63,9.61-15.65,25.1-27.9,42.54-33.46,5.81-1.85,26.85-8.74,27.02.92.36,20.22-18.83,16.01-29.81,22.29-8.18,4.68-23.55,28.41-15.65,36.35Z"/>
  <path class="st0" d="M1165.99,536.01c5.45,29.35-9.03,34.94-23.99,52.99-5.56,6.72-6.33,14.91-14.99,21.01-6.38,4.49-20.66,6.1-22.07,7.93-3.24,4.22-4.07,19.45-11.84,28.16-7.74,8.67-28.92,14.46-32.06,21.94-3.87,9.22.3,36.74-1.03,48.97-2.3,21.24-19.72,39.56-37.99,48.99.19-5.81,6.2-6.58,9.69-11.29,22.12-29.78,1.03-81.74-13.34-112.08-3.77-7.95-5.95-13.12-11.86-3.12-8.1,13.69-9.68,35.37.57,48.41,8.45,10.75,12.85,4.04,16.75-5.14,3.59-8.45,6.02,2.62,6.28,6.12,3.45,47.16-47.55,46.49-52.18-3.81-3.81-41.29,13.85-69.34,49.04-89.1,3.11.69,13.45,42.7,17.63,50.43,2.26,4.17,5.72,12.74,11.53,8.7,10.68-7.44-7.07-38.09-9.99-48.23-6-20.81-8.04-32.72,10.88-46.84,2.9-.08,14.56,47.91,19.32,54.64,4.38,6.2,7.31,7.61,12.81,1.43,18.73-21.02-23.31-59.17-10.03-80.03,1.11-1.74,12.77-13.57,13.93-14.07,3.08-1.33,2.71.95,3.42,2.48,4,8.72,6.22,22.23,10.03,32.03,2.25,5.79,14.53,35.42,18.53,35.44,13.84-12.15-4.66-31.76-8.11-47.85-3.97-18.54-1.26-39.87,7.46-56.76,3.37-6.52,12.32-23.03,19.75-14.43,12.42,14.38-5.9,27.32-7.2,40.97-.96,10.18,5.73,28.06,16.13,31.61l12.96-9.49Z"/>
  <path class="st0" d="M960.24,1287.76c15.89,1.33,29.69,9.39,37.83,23.17,4.2,7.1,3.81,17.13,13.83,20.17,12.22,3.72,34.75-.57,48.88,1.12,19.22,2.3,40.76,19.91,47.2,37.78-34.74-39.4-80.67-10.5-120.44,2.53l-11.52,8.45c11.94,8.74,25.3,13.26,40.1,10.14,7.61-1.61,25.3-8.36,18.03-18.26-2.59-3.53-15.9-4.82-12.14-8.82,6.56-6.98,39.2.13,43.11,11.84,14,41.92-60.39,43.61-86.49,30.5-9.07-4.56-40.69-31.26-38.47-41.16,1.42-6.35,49.03-11.8,57.88-24.16,1.28-1.79,3.56-2.63.99-5.09-25.3-10.87-50.39,19.89-77.63,13.61-4.52-1.04-20-15.04-17.4-17.56,15.32-3.62,37.99-8.17,51.82-15.28,18.15-9.33-1.46-19.51-14.53-18.59-19.02,1.33-44.98,25.77-63.14,14.71-4.26-2.6-6-7.34-9.15-10.94-1.07-1.23-9.51-2.98-3.74-5.91,9.26-2.5,18.78-4.62,27.77-7.97s29.18-10.81,36.41-15.59c3.42-2.26,6.48-3.58,3.67-8.54-6.73-8.78-36.8,8.94-47.01,11.2-25.63,5.68-56.34-1.49-73.53-22.07-.85-5.73,11.75-9.26,16.45-9.25,8.94.02,15.22,10.24,26.87,11.32,9.41.88,38.82-7.36,30.29-20.21-2.79-4.2-9.25-3.14-8.17-8.88,18.17-1.43,29.22,0,42.97,12.01,3.03,2.65,4.41,6.88,8.02,9.98,10.87,9.32,20.33,7.32,27.04,22.96,2.28,5.32,3.62,11.05,4.2,16.8Z"/>
  <path class="st0" d="M2031.99,1088.01c-2.44,7.66-9.61,11.93-13.64,19.34-23.67,43.59,8.99,75.77,18.64,116.64,17.83-6.9,14.37-49.99,3.05-57.05-8.31-5.18-15.18,10.49-18.03,7.05-4.24-16.65,1.19-43.69,22.96-42.11,15.42,1.12,23.76,24.69,26.52,37.63,3.94,18.48.36,35.84-8.65,52.33-4.74,8.68-27.23,38.52-37.44,35.91s-22.13-61.71-28.39-61.71l-6.55,10.62c5.64,20.27,21.84,51.05,17.12,71.92-.64,2.85-12.69,22.53-15.57,19.41l-18.39-56.59c-13.46-14.31-17.18,10.46-15.48,21.49,3.43,22.23,31.71,62.68-4.13,73.12.12-25.97-22.86-54.35-27.11-77.92-3.05-16.89,3.11-20.22,19.17-16.95,4.85-16.49,7.29-29.6,22.87-39.2,6.01-3.7,18.92-6.59,22.02-13.98,4.17-9.96-2.22-33.63-.94-46.94,2.41-24.94,20.4-43.01,41.97-53.01Z"/>
  <path class="st0" d="M1792,1539.98c-30.71,1.02-52.95,14.77-67.03,41.98-5.91,11.41-7.7,21.82-12.62,33.38-1.49,3.51-13.53,23.58-12.34,24.64,19.74.86,35.66-13.9,40.63-32.36,1.58-5.89,2.98-10.82-4.58-12.77-3.67-.95-11.2,4.04-10.1-1.88,3.36-18.13,43.71-32.1,47.92-5.86,4.59,28.61-25.74,60.38-51.85,67.93-9.35,2.7-47.58,8.99-53.15,1.09-6.86-9.74,20.91-51.27,23.03-62.93-3.12-5.48-9.17-2.92-12.8.93-16.51,27.98-22.49,69.24-63.11,67.87l25.53-53.44.46-10.55c-41.42-1.56-31.24,76.68-80,63.98,13.2-12.66,30.55-78.8,42.46-84.5,9.6-4.59,16.05.63,17.57,10.53,14.13-8.44,25.02-16.2,42.5-13.51,7.66,1.18,18.45,8.56,26,7.2,8.85-1.59,26.41-27.43,35.45-34.71,18.26-14.71,36.63-14.61,59.04-10.99,2.97.48,6.17.11,6.99,3.99Z"/>
  <path class="st0" d="M804,1278.01c4.5,10.74,12.97,20.82,14.02,33,1.25,14.39-10.22,29.01-7.21,39.05,2.42,8.1,25.83,22.01,33.14,30.99,17.87,21.93,15.68,42.74,10.02,68.94l-11.92-39.04-27.45-26.55-62.59-26.39c-.84,11.63,5.92,24.97,15.32,31.66,5.46,3.89,25.71,14.78,29.39,5.8,1.99-4.85-3.38-15.03,2.24-13.44,15.1,4.28,30.99,38.01,11.58,47.51-22.18,10.86-58.48-17.38-68.19-36.88-8.5-17.07-16.08-51.52-4.34-67.77,7.45-3.87,49.82,20.38,59.34,24.84l4.53-2.9c1.04-4.75-.46-6.88-3.96-9.75-11.51-9.44-35.35-16.84-48.56-25.43-15.74-10.23-17.04-19.66-19.35-37.63l55.47,25.63,6.64-.49c7.46-22.44-15.49-25.82-28.76-33.51-8.01-4.64-30.62-17.14-32.8-25.15-8.22-30.11,2.38-18.24,17.02-11.07,11.79,5.77,65.46,24.94,68.08,34.03,2.33,8.08-2.67,16.53-11.66,14.56Z"/>
  <path class="st0" d="M1171.99,386.01c-6.84,14.14-13.83,28.31-20.35,42.63-4.85,10.65-13.23,44.55-27,44.84-5.99.13-11.32-5.55-10.66-11.48-10.68,3.23-23.6,13.75-35.05,14.1-11.46.35-24.01-10.29-35.85-8.09-7.64,1.42-26.83,29.13-36.08,35.99-16.99,12.61-46.28,14.35-64.99,4.99,21.49-.77,40.24-7.02,55.01-22.97,21.03-22.72,20.42-52.16,38.98-76-16.58-1.99-28.91,5.95-36.87,20.11-8.91,15.84-11.22,25.13,10.86,24.86-6.02,15.89-34.27,31.68-45.99,14.01-13.64-20.56,14.45-58.85,33.35-68.65,18.69-9.68,50.51-15.23,69.72-6.38,2.46,4.04-5.78,22.43-8.11,27.99-4.74,11.32-11.29,22.15-16.92,33.04,3.78,4.62,10.02,4.56,13.74-.23,10.91-14.05,20.52-52.83,36.36-61.63,6.8-3.78,18.06-4.63,25.84-5.14,2.21,1.99-23.55,45.6-25.15,53.89-2.88,14.91,8.37,10.8,17.02,4.96,20.99-14.18,22.43-70.16,62.13-60.85Z"/>
  <path class="st0" d="M779.99,712.01c2.71,23.58,16.44,45.23,24.09,66.91,6.07,17.18,9.45,39.1-16.06,27.08-1.34,14.32-6.07,30.12-18.15,38.87-7.4,5.37-21.19,7.89-25.61,16.38-4.51,8.65,1.19,38.37-.25,51.76-2.31,21.49-23.54,40.63-42,48.98,3.09-7.97,9.95-12.73,14.32-20.66,18.08-32.84,3.36-66.1-12.71-95.95l-6.59-19.36c-18.28,15.51-14.32,40.02-1.01,57.12,6.01,3.08,14.46-10.25,15.96-9.13,11.89,26.89-17.42,63.82-38.36,31.38s-10.55-75.29,16.39-102.37c20.94-21.05,23.55-9.76,32.34,11.64,4.96,12.09,8.2,24.62,11.87,37.1l7.48-.04c1.69-3.29,2.42-6.41,1.94-10.17-2-15.72-14.26-36.91-16.74-53.43s3.36-26.8,15.07-38.11c5.17,14.78,12.04,46.9,20.23,58.78,5.23,7.59,11.48.15,13.73-5.83,5.48-14.61-3.2-25.1-6.93-38.95-5.41-20.05-13.32-41.67,10.99-51.99Z"/>
  <path class="st0" d="M1599.68,369.7c-9.44,2.85-18.06,8.35-27.16,11.82-6.74,2.57-26.85,6.56-30.48,9.52-2.56,2.09-3,4.31-1.16,7.07,2.78,2.01,5.91,3.17,9.38,2.85,13.74-1.26,36.7-14.17,51.22-16.48,19.17-3.06,25.74,2.24,40.51,12.51-9.07,6.28-59.7,18.34-61.79,26.38-1.61,6.2,6.47,9.28,11.26,10.15,28.01,5.07,66.97-33.23,88.48,1.49-12.67,4.89-25.78,8.54-38.45,13.49-12.51,4.89-41.74,21.72-53.45,16.46-7.71-3.46-7.78-13.37-2.05-18.93-11.38-3.06-26.23-5.65-34.98-14.04-7.95-7.63-10.77-25.1-18.23-29.77-9.54-5.97-36.35,1.11-49.76-.24-24.29-2.45-42.03-22.21-53.02-41.96,11.27,4.88,19.89,15.34,31.96,19.02,40.91,12.46,66.74-16.25,104.03-23.05-2.56-11.2-21.07-14.86-30.99-14.02-7.47.64-30.59,7.61-25.58,17.47,1.72,3.37,11.02,6.89,6.6,9.58-19.71,11.99-60.92-14.17-31.02-37.02,19.05-14.56,47.74-15.73,69.51-7.53,11.01,4.15,53.56,31.65,45.16,45.22Z"/>
  <path class="st0" d="M1883.99,600.01c-2.5,31.01,18.25,57.2,45.26,69.74,10.45,4.85,23.39,6.96,34.13,11.87,5.54,2.53,12.19,9.01,15.65,10.36s2.72-.94,3-2.97c2.95-21.58-22.23-39.58-41.78-38.76l-3.27,15.76c-39.33-21.79-23.1-65.89,24.39-40.39,36.43,19.56,46.07,59.67,38.36,98.08-11.12,5.82-62.49-27.09-65.71-23.71-.67,7.11-.41,9.5,5.3,13.68,25.02,18.27,69.02,20.37,64.67,62.31-14.36-6.31-37.41-21.99-51.87-25.13-6.22-1.35-12.72-2.48-12.14,5.97,1.87,27.04,78.03,31.93,66.01,71.14l-79.88-35.1c-10.92-7.09-9.91-21.01,3.88-22.91-3.68-10.01-13.13-22.34-13.92-33.2-.89-12.23,9.71-22.74,7.86-35.62-2.34-16.29-42.29-27.67-45.94-60.15-.94-8.35-.95-30.91,1.79-38.22,1.03-2.76-.65-3.43,4.21-2.78Z"/>
  <path class="st0" d="M1149.99,1603.99c9.23.83,24.82,5.33,31.93,11.09,12.79,10.37,10.63,34.54,31.15,35.01,4.7.11,9.04-2.11,13.84-2.17,14.77-.19,33.41-1.81,46.5,5.66,10.49,5.99,27.54,24.56,30.56,36.42-19.99-19.21-40.34-25.12-68.08-21.1-17.07,2.47-28.63,12.03-43.93,18.07-3.87,1.53-23.96,6.26-23.92,8.04,13.03,14.76,30.27,15.22,47.34,7.38,10.91-5.02,17.09-13.23,2.63-18.41,2.84-11.76,25.02-5.85,32.97.05,24.04,17.84-1.92,37.4-21.35,42.62-19.94,5.36-37.68,4.19-56.29-4.98-9.22-4.55-42.71-29.15-39.16-40.32,6.19-9.16,60.63-21.27,61.81-26.37,1.1-4.75-6.5-7.25-10.74-6.92-14.41,1.13-38.89,14.47-55.14,17.05-14.69,2.33-22.28-1.59-33.58-10.52-1.6-1.27-3.68.07-2.53-4.55l55.83-19.18c5.45-3.31,7.78-7.22,2.1-11.79-19.96-16.05-61.88,19.18-83.78,7.78-2.83-1.47-16.72-12.21-10.88-14.81,23.38-3.34,45.1-17.78,66.77-24.99,17.77-5.91,33.26-8.1,25.95,16.95Z"/>
  <path class="st0" d="M1226,174h-28c-2.28,23.77,3.32,45.11,8.01,67.99-25.75,2.67-28.56,13.1-33.77-17.23-2.86-16.64-1.95-34.04-4.25-50.77-32.05,5.28-64.09,10.96-93.35,25.65-13.12,6.59-49.04,28.49-55.07,40.93-3.82,7.87-2.48,23.14-7.63,28.37-4.46,4.54-20.45,9.25-24.94,17.02-6.56-4.03,1.34-10.87-1.99-15.95-7.29,5.72-20,33-27.98,34.04-3.49.46-5.07-6.77-6.36-9.69-1.68-3.83-4.69-8.11-3.84-12.37,1.02-5.08,23.2-32.55,28.14-38.02,26.18-28.96,68.7-59.49,104.31-75.69,48.67-22.13,102.25-26.26,154.75-17.32,3.32,2.63,1.09,2.11-.06,3.99-3.67,6-9.34,10.55-7.98,19.04Z"/>
  <path class="st0" d="M1113.99,1816.01l-9.99,11.97c11.8,2.01,30.75-6.95,41.07-6.04,2.49.22,3.41,1.23,4.87,3.04-6.74,13.99-2.8,20.44-19.5,24.47-99.76,24.1-222.84-24.22-282.41-106.48-1.95-2.69-4.48-5.29-4.02-8.96,8.2.5,15.75-1.34,20.99-7.95l22,19.85c17.34-15.48,28.09-35.67,42-53.88l20.12,13.94c2.63,4.07-3.86,13.82-6.3,17.85-9.48,15.67-23.85,28.38-34.74,42.96.96,4.56,53.85,36.64,61.94,40.19,18.45,8.09,67.76,22.44,86.52,18.57,9.28-1.91,20.91-15.06,26.58-15.57,5.63-.51,22.62,8.45,30.86,6.04Z"/>
  <path class="st0" d="M624.04,564.01c-12.72,22.08-29.77,41.59-39.75,65.27-7.72,18.31-21.34,65.03-18.18,83.61,1.55,9.12,15.62,20.83,15.71,28.06s-8.48,21.71-5.83,31.03l-11.97-9.99c-.8,13.57,5.23,27.92,6.01,41.01.26,4.38-1.13,3.19-4.57,2.55-11.75-2.18-19.66-3.75-22.55-15.46-12.76-51.63-1.19-124.95,18.13-174.07,19.11-48.58,54.4-83.46,93.96-115.99,5.48,7.24,2.13,17.32,10.94,22.96l-19.9,20c14.95,17.77,34.49,29.74,53.92,41.98l-18.58,22.76c-11.68-7.45-23.65-14.94-34.31-23.81-3.77-3.14-19.95-22.04-23.02-19.93Z"/>
  <path class="st0" d="M2241.99,891.99l-23.11-9.87-.86-28.14c-23.19-2.22-45.09,6.42-67.93,7.92l-3.94-27.78c23.55-5.5,47.55-9.47,71.85-8.14-4.63-26.9-8.4-54.65-19.02-79.96-5.47-13.03-34.17-63.68-45.08-68.92-6.37-3.06-17.75-2.44-24.85-5.15-8.88-3.38-14.72-22.26-23.03-28.97l13.98-1.98-33.95-26.01c6.31-5.1,17.94-12.57,26.01-10.16,5.07,1.51,24.82,17.63,29.98,22.13,38.67,33.69,76.17,86.97,92,136,13.66,42.28,12.68,85.37,7.96,129.02Z"/>
  <path class="st0" d="M1892,313.98l-22.71,7.83-22.01-17.67c-2.14.37-17.58,18.68-20.11,22.02-3.87,5.11-17.64,30.45-21.88,29.67l-21.08-16.5c11.53-20.95,26.35-39.96,43.76-56.33-35.96-28.97-78.69-52.52-125.18-58.79-3.53-.48-22.84-1.64-25.05-1.17-5.51,1.17-15.33,11.43-20.25,13.44-10.87,4.46-23.49-4.32-35.53-3.45-6.54-3.54,10.41-8.26,8.02-13.03l-43.98,5.98c3.33-18.68,4.28-23.94,23.5-27.48,45.51-8.41,110.42-.48,154.07,14.92,53.74,18.96,95.59,54.5,128.42,100.55Z"/>
  <path class="st0" d="M1779.97,1744.01c8.85,19.66,10.57,21.43-2.02,38.95-32.1,44.7-88,85.21-139.46,104.54-44.06,16.55-92.23,17.56-138.49,10.48,2.63-8.16,10.31-11.74,8-21.98,24.82-1.38,31.82,8.44,29.97-20.98-.92-14.71-7.18-29.7-8.65-43.49-.18-1.7-2.12-2.76.59-4.6,6.77,1.22,23.63-7.34,27.1-2.96,7.55,9.53,9.31,56.71,8.99,70.03,2.18,2.16,53.23-8.44,60.44-10.58,19.57-5.81,79.38-36.28,88.42-53.58,3.8-7.26,3.15-24.14,6.97-29.03,2.31-2.95,7.86-3.02,10.87-5.13,3.46-2.42,12.11-10.73,14.34-11.67,3.84-1.62,3.16,2.67,3.07,5.05-.13,3.07-3.93,10.05.89,8.93,8.13-8.68,13.88-21.71,21.99-30.02,2.09-2.14,3.48-4.68,7-3.97Z"/>
  <path class="st0" d="M2189.54,1250.47c6.65,7.84,7.19,71.52,6.44,84.51-5.01,86.37-45.27,164.3-116.95,213.01l-8.84-22.71,17.66-20.01c-13.95-17.02-32.52-28.99-51.61-39.51-1.27-2.18,10.59-20.37,12.63-21.94s3.04-1.99,5.68-1.57c4.23.67,27.6,17.85,32.41,21.79,4.92,4.03,19.45,22.85,24.81,19.71,15.04-25.04,32.7-46.31,42.77-74.22,7.18-19.89,16.52-53.76,13.33-74.41-1.61-10.45-13.51-17.28-14.04-26.12-.52-8.53,7.48-20.64,4.18-31.02,7.91-2.05,7.24,7.87,13.97,10.01l-5.97-45.99,23.53,8.46Z"/>
  <path class="st0" d="M515.92,1166.08c1.41,5.87-3.03,25.55,3.36,27.64,20.92,4.92,41.38-5.54,60.27-7.36,9.43-.91,7.24,19.93,10.4,27.54-23.3,7.76-47.74,8.02-71.96,10.09,3.65,47.01,18.57,90.67,46.38,128.64,18.68,25.51,16.57,15.68,41.71,24.29,3.4,1.16,20.58,24.62,21.9,28.11,2.57,6.83-12.72-1.68-13.97,1.96l33.97,26.05c.97,4.46-18.04,12.66-22.18,11.94-12.59-2.16-52.99-41.8-62.83-52.96-19.36-21.96-39.18-52-51.32-78.68-22.77-50.06-25.84-103.27-17.63-157.35,7.71,3.32,12.45,11.4,21.9,10.08Z"/>
  <path class="st0" d="M479.98,1224c-11.85-2.6-23.73-4.31-35.5-7.48-17.04-4.58-33.88-13.84-49.54-18.48-6.81-2.02,1.7,16.91,2.7,19.32,16.77,40.45,50.91,85.68,86.53,111.47,10.22,7.4,28.36,13.61,35.13,19.87,10.48,9.68,19.45,31.64,32.69,41.28-30.03-3.39-57.43-22.13-80.92-40.06-43.57-33.27-88.91-91.63-106.1-143.9-4.22-12.84-.83-25.85-16.64-28.35l-2.32-33.66c1.75-1.82,31.86,17.11,37.28,19.7,27.97,13.37,62.17,25.02,92.86,29.14l3.84,31.14Z"/>
  <path class="st0" d="M555.98,458c-4.88,3.44-8,11.25-10.34,16.63-17.94,41.23-25.31,101.68-17.12,145.84,2,10.8,9.59,24.58,9.64,34.51.08,15.57-9.77,34.07-4.13,49.97l-4,1.02c-14.31-24.68-21.64-51.07-25.75-79.27-8.47-58.09.16-128.86,25.36-182.07,2.61-5.5,11.07-15.27,12.04-20.12,1.16-5.86-2.57-10.6-1.4-15.08.34-1.31,15.47-18.14,17.76-20.41,2.01-2.01,2.54-4.37,5-1.07,9.11,45.65,29.14,88.81,54.99,127.07-3.2,4.27-14.94,22.94-20.06,20.11-3.63-2-17.34-24.59-20.3-29.8-8.5-14.96-15.44-31.32-21.68-47.34Z"/>
  <path class="st0" d="M2388,906c-40.04-23.81-85.16-45.06-131.98-50.02l-2.01-29.97c31.01,2.75,60.79,13.44,89,25.98,1.52.31,1.23-1.86.95-2.94-11.67-44.31-55.44-100.91-92.17-127.84-10.44-7.65-30.39-15.28-37.12-21.88-10.36-10.15-19.07-31.52-32.67-41.31,34.22,6.34,64.3,26.4,90.94,48.04,38.95,31.64,81.03,89.16,97.15,136.85,2.18,6.46,2.77,19.04,5.75,23.75,2.21,3.48,12.15,4.68,12.15,5.35v34Z"/>
  <path class="st0" d="M800,1836.02c2.26,4.38,8.4,6.33,12.65,8.32,41.06,19.22,107.58,27.89,151.87,19.18,10.33-2.03,22.53-9.47,32.49-9.69,12.12-.27,27.72,5.67,40.09,6.25,4.66.22,9.09-3.23,12.89-1.08-21.51,17.42-52.08,24.75-79.26,28.74-50.77,7.44-122.73,1.17-170.08-19.38-8.21-3.56-27.04-16.74-32.19-17.96-5.9-1.39-10.4,2.53-15.01,1.33-1.38-.36-20.46-17.18-21.46-18.72-1.3-2.01-3.22-1.48-.03-4.04,45.45-9.54,87.78-29.9,126.68-54.56,1.61.28,17.41,12.72,19.25,14.7s3.26,1.77,1.16,4.94c-1.74,2.61-20.76,14.51-25.01,16.99-16.32,9.53-36.37,18.45-54.03,24.99Z"/>
  <path class="st0" d="M1248,4c-8.05,16.73-18.17,32.33-25.53,49.47-11.2,26.07-19.93,53.63-24.34,81.66l-30.13,2.85c2.5-14.15,5.02-28.12,9-41.98,4.16-14.45,13.73-31.72,16.87-45.15.68-2.93.2-3.42-2.73-2.73-11.95,2.8-40.47,17.53-51.76,24.27-31.46,18.78-62.99,48.32-82.99,79.01-4.84,7.42-7.49,18.19-13.3,24.7-10.51,11.78-32.05,18.73-41.08,33.9-.47-8.66,3.04-17.01,5.94-25.04,22.05-61.06,105.18-136.15,165.54-158.46,9.16-3.39,28.54-6.51,34.45-9.55,4.04-2.08,6.91-12.95,9.05-12.95h31Z"/>
  <path class="st0" d="M2172.02,1661.99c-9.11-46.2-29.29-90.16-55.81-128.71l19.81-20.35c20.27,20.98,28.18,49.51,41.58,74.47.72,1.33,3.09,5.58,4.38,4.59,28.19-61.66,38.41-132.37,14.74-197.28l7.26-52.7c31.1,53.62,34.73,120.06,25.45,180.4-4.77,31-12.13,57.77-26.38,85.62-2.45,4.8-10.12,13.48-10.74,17.42-.82,5.18,4.62,8.61,3.45,13.13-.34,1.31-15.39,17.92-17.78,20.39-1.9,1.96-2.62,3.78-5.95,3.02Z"/>
  <path class="st0" d="M2003.99,219.98c-45.41,9.89-89.23,28.74-127.01,55.51l-22.94-18.5c21.95-20.84,50.92-29.44,77.12-42.82,2.09-1.07,3.78,1.04,2.83-4.15-46.83-22.11-103-33.55-154.76-25.8-12.63,1.89-30.63,10.58-40.52,11.04-14.74.7-36.47-8.01-52.7-6.27,7.05-5.67,15.67-10.56,24.02-13.98,66.47-27.18,175.71-20.03,239.32,12.61,4.77,2.45,14.71,11.26,18.12,11.98,5.14,1.09,9.83-4.67,14.47-2.7,1.18.5,17.38,15.13,19.12,17.01,1.82,1.96,3.66,2.84,2.93,6.04Z"/>
  <path class="st0" d="M1733.99,1840.01c-4.7,24.47-16.55,46.31-30.37,66.61-34.39,50.51-97.17,101.14-155.18,120.82-6.44,2.18-15.55,2.11-21.03,4.97-6.18,3.22-4.86,10.01-8.66,11.34l-32.73,2.25c5.24-12.42,13.74-23.15,19.71-35.27,14.22-28.9,26.61-64.72,30.31-96.69l29.98-2.02c-2.85,30.21-13.17,59.63-25.99,87,16.28-.33,36.36-11.2,50.6-19.4,41.97-24.17,80.18-61.38,100.32-105.68l43.06-33.92Z"/>
  <path class="st0" d="M517.72,1476.3c.66.6.53,4.67,2.2,6.7,4.28,5.24,10.62,9.76,15.11,14.99,1.88,1.34-1.11,3.41-2.29,3.73-6.64,1.79-33.18.69-41.47.01-21.65-1.76-42.22-9.21-63.25-13.75-.78,9.21-3.36,18.4-5.76,27.29-.73,2.7,1.37,5.6-3.22,4.71-1.44-.6-20.25-19.9-20.69-21.43-2.25-7.75,5.14-14.6,3.43-22.31-9.44-2.21-58.7-30.77-59.2-37.22,9.77-30.63,23.17-9.95,41.4.02,3.83,2.1,26.11,13.7,28.12,12.13,13.47-33.31,28.49-74.04,60.63-92.85,3.89,6.14,21.12,8.75,19.06,16.32-.59,2.19-14.85,16.68-17.72,20.42-15.39,20.1-30.46,41.33-37.89,65.78.92,3.68,33.68,11.75,39.33,12.66,7.22,1.17,40.65,1.39,42.22,2.81Z"/>
  <path class="st0" d="M388.07,649.95c36.14-12.65,69.98-28.94,109.74-23.75l6.2,25.79c-35.19,4.09-71.82,5.91-103.9,22.19,8.91,26.19,26.65,47.64,45.58,67.22l-1.7,30.6c-1.33,1.54-12.22-7.44-14.02-8.96-21.43-18.18-41.36-49.18-52.01-75.03l-28,17.03-3.86-2.21c.15-21.76-4.93-30.38,18.02-40.19-6-22.82-14.09-44.84-15.19-68.74,1.58-2.77,18.93-8.28,22.1-3.94l17.03,60.01Z"/>
  <path class="st0" d="M1116,1948.02c-20.35,28.81-51.12,51.38-83.14,65.89-2.97,4.09,11.96,21.87,14.17,26.08,4.59,8.73-24.01,7.04-28.98,4.97-5.32-2.22-10.18-13.55-12.17-18.93-22.18,9.74-45.97,14.31-69.82,17.98l-3.83-23.79c8.44-.54,61.08-12.86,61.58-19.17-9.6-19.42-18.83-41.56-22.88-62.97-1.66-8.76-6.81-39,.22-43.92,2.78-1.94,22.59-6.65,23.91-4.26,3.11,22.85,3.9,46.08,9.52,68.52,1.54,6.16,8.96,32.23,14.68,33.3,25.62-10.37,46.97-28,66.73-46.85,9.27,5.26,19.77,2.59,30,3.16Z"/>
  <path class="st0" d="M2322.07,598.05c-9.5,26.79-27.5,71.02-51.07,87.93-10.72,7.7-21.72-2.47-28.93-10.85,11.22-8.69,63.91-79.88,55.82-89.02-26.3-9.94-52.72-12.25-80.51-14.07l-17.36-24.04c35.91-4.11,72.06,1.89,105.97,13.99,1.09-.98,4.77-24.7,6.43-28.59.86-2.02,2.02-3.97,4.56-3.41,3.52,5.11,17.12,14.45,18.63,19.41,2.53,8.35-4.52,19.8-2.75,22.6,20.37,11.05,42.47,20,58.74,37.25l-9.59,17.88-2.65.58c-7.3-4.58-52.11-33.42-57.27-29.68Z"/>
  <path class="st0" d="M2388,1375l-17.75,12.2c6.92,22.24,15.45,44.98,15.41,68.47-28.62,13.79-22.6-4.26-28.23-24.11-3.23-11.38-7.68-22.4-11.46-33.57-33.93,14.14-72.18,32.15-109.64,23.66.46-8.04-4.43-14.93-4.4-22.65.02-4.2-.19-2.58,3.01-3.03,33.89-4.74,71.19-3.16,100.86-22.95-7.12-13.19-13.99-26.8-22.97-38.87-4.05-5.45-22.99-24.07-23.88-26.22-1.37-3.32,2.22-14.16,2.63-18.96.31-3.7-4.05-7.69,1.46-10.99,26.06,17.14,46.94,47.25,61.39,74.63,1.2,2.27,1.6,4.83,1.59,7.37l31.98-16v31Z"/>
  <path class="st0" d="M1717,4l12.23,18.16c23.07-6.96,46.19-15.82,70.59-15.96.06,5.46,7.96,19.06,2.29,22.92-1.53,1.04-29.91,5.96-36.1,7.89-4.26,1.33-22.91,7.02-23.9,10.23,12.32,31.72,28.39,66.81,24,101.87-1.3,10.34-16.39,8.32-24.82,11.05-4.42-.86-2.82-17.3-3.29-21.15-1.45-11.82-10.38-77.65-21.3-80.85-26.5,7.57-46.68,27.19-66.74,44.89-3.28,1.38-14.17-2.23-18.96-2.63-2.48-.21-9.87,3.72-10.98-1.46-.54-2.54,24.92-27.43,29.05-30.91,16.68-14.06,36.19-24.1,54.9-35.05l-15.96-29h29Z"/>
  <path class="st0" d="M1632.01,1318c1-8.14-2.32-20.16,1.86-27.14,2.75-4.6,32.5-19.94,39.97-26.03,3.83-3.13,13.72-10.13,7.65-13.26-10.58-5.46-27.73-6.68-39.48-9.59l8.18-25.79c22.07-.9,41.25,11.57,61.62,17.67,16.45-23.09,33.81-47.06,46.54-72.52,3.59-7.17,10.6-30.91,12.63-33.36,4.2-5.07,24.29.79,26.77,7.45,1.76,6.48-18.58,47.63-23.39,55.92-24.28,41.82-88.69,108.98-134.46,125.54-2.7.98-4.99,1.57-7.88,1.12Z"/>
  <path class="st0" d="M1760.04,1043.99c-1.79-10.1-14.94-10.08-16.02-21.17-.77-7.9,8.56-32.82,9.74-44.06.59-5.57.17-11.18.23-16.75-2.99-3.32-33.05,20.04-37.05,20.07-6.34.05-9.35-16.82-12.62-21.46l1.5-3.7c14.83-13.8,36.1-17.08,51.95-28.27-2.52-29.19-9.27-60.89-18.84-88.57-2.1-6.07-12.93-26.1-12.88-29.14.1-6.16,18.23-14.84,23.96-12.01,5.39,2.66,18.16,39.61,20.54,47.54,15.02,50.06,17.94,143.2-3.54,191.53-1.39,3.14-2.61,6.82-6.96,5.99Z"/>
  <path class="st0" d="M1660.01,760c-8.19-.87-21.42,2.51-27.95-3.06-4.91-4.19-15.03-26.13-20.4-33.6-4.34-6.04-10.28-11.26-14.67-17.33l-13.02,43.99-25.16-9.94c-3.89-11.89,19.71-53.69,16.3-60.04l-39.33-28.8c-13.81-5.65-25.65-14.47-39.07-20.93-6.42-3.09-21.79-6.89-25.85-10.21-5.2-4.25,1.56-22.69,7.21-25.14,5.44-2.36,36.73,12.36,43.96,16.03,44.58,22.6,119.69,91.7,136.85,139.15,1.23,3.41,1.48,6.32,1.12,9.89Z"/>
  <path class="st0" d="M1304,638.02l21.97,38.87-23.07,11.12c-8.68-.2-25.48-45.58-30.22-54.14-30.97,2.96-63.98,9.93-93.21,20.59-5.08,1.85-22.01,11.56-24.51,11.5-7.68-.17-17.41-21.84-11.71-26.18,6.17-4.7,30.68-13.58,39.18-16.36,37.02-12.14,85.66-15.59,124.65-13.51,26.48,1.42,49.67,7.67,74.83,15.16,11.4,3.38-11.3,22.46-15.01,22.97-13.83,1.89-45.58-15.82-62.9-10.03Z"/>
  <path class="st0" d="M1101.99,732c6.06,33.67-11.48,31.4-32.62,46.37-6.96,4.93-13.64,10.23-19.33,16.63l41.13,12.88-7.23,26.12c-21.81-1.42-40.97-13.9-61.57-17.62-24.46,32.23-46.18,67.15-59.35,105.7-4.04,4.36-23.91-2.51-25.1-9.12-1.26-7.01,10.57-31.87,14.36-39.67,23.16-47.66,91.39-121.92,141.83-140.17,2.7-.98,4.99-1.57,7.88-1.12Z"/>
  <path class="st0" d="M980.02,1088l40.95-22.03c1.25,8.54,12.97,19.39,7.17,27.17-6.62,8.89-50.83,23.7-51.48,27.73,3.6,29.04,9.67,60.52,19.25,88.21,2.29,6.61,11.42,21.63,12.1,26.06,1.55,10.1-15.93,18.02-24.06,13.89-4.88-2.48-20.95-48.8-22.95-57.05-10.49-43.16-11.85-113.75-.45-156.42,1.07-4,8.21-27.68,9.4-28.6,2.97-2.31,3.08-.41,5.06,1,1.6,1.14,12.61,10.2,13.11,10.88,7.66,10.53-12.01,53.84-8.12,69.15Z"/>
  <path class="st0" d="M1139.98,1341.99l10.03-42,25.76,8.24c.58,21.33-12.21,40.18-16.88,59.72,22.64,19.06,49.8,36.7,76.4,49.76,6.03,2.96,26.01,8.54,28.76,11.23,5.65,5.52.2,27.72-16.16,24.2-30.16-6.48-74.95-39.4-97.92-60.12-31.59-28.5-59.39-60.36-76-100.02-.43-4.13.22-2.62,2.99-3.01,4.17-.59,22.21-.68,25.03,1.02,2.36,1.42,18.49,30.74,23.19,36.81,2.15,2.79,11.87,16.31,14.81,14.17Z"/>
  <path class="st0" d="M1435.63,1362.38l27.24,53.06c32.02-3.41,63.85-10.63,94.17-21.39,6.07-2.15,17.5-9.8,22.13-10.07,8.73-.52,19.4,19.71,11.39,26.13-4.71,3.77-32.13,13.64-39.49,15.97-45.32,14.35-121.25,18.16-167.09,6.95-7.98-1.95-26.51-7.38-33.48-10.58-1.53-.7-3.81-.34-2.48-3.42.42-.97,13.75-14.48,14.87-15.13,11.61-6.72,51.31,11.21,67.1,8.09l-20.15-40.79,25.78-8.82Z"/>
  <path class="st0" d="M1295.99,1479.99c-13.96-8.01-22.47,16.32-33.83,4.75,3.07-20.31,11.08-43.26,11.92-63.65,2.64-63.93-16.95-127.2-53.22-178.96-2.53-3.61-18.07-18.79-14.85-22.13,10.51,2.97,30.53,1.27,38.87,8.11,8.21,6.75,35.13,57.15,39.2,68.8,19.36,55.39,11.55,125.21,11.91,183.07Z"/>
  <path class="st0" d="M1822.01,1095.99c-7.02,10.43,23.63,35.71,1.52,33.57s-43.65-12.06-68.63-11.64c-63.24,1.06-120.61,17.14-171.88,54.1-6,4.32-10.3,13.76-19,13.98.36-10.37.66-29.77,6.86-38.12,5.84-7.87,53.11-33.73,64.08-37.92,56.65-21.62,127.46-13.68,187.06-13.96Z"/>
  <path class="st0" d="M1111.15,624.06c3.26-1.02,4.82.99,6.89,2.9,7.54,6.96,18.83,29.73,26.33,39.66,38.5,51,111.84,91.73,174.79,101.21,4.77.72,24.68-2.33,22.84,5.14-9.22,5.69-21.74,20.86-32.93,21.07-10.22.19-44.85-10.17-56.11-14.01-38.49-13.1-75.53-45.4-104.99-73.01-18.69-17.52-31.21-38.64-51.93-54.03,11.19-3.35,9.7-27.25,15.11-28.94Z"/>
  <path class="st0" d="M1625.83,1423.83c-1.18.79-4.86.37-6.42-.19-3.58-1.29-35.54-51.04-45.38-60.66-53.07-51.87-103.97-72.97-176.97-83.06-2.86-.4-5.9,1.89-5.04-2.88.64-1.51,23.88-19.18,26.06-19.94,12.09-4.17,59.32,9.6,72.96,14.86,47.47,18.32,93.21,68.4,126.9,105.1,3.64,3.96,20.35,17.26,19.92,19.69-9.4,2.93-10.53,26.07-12.04,27.08Z"/>
  <path class="st0" d="M1741.96,754.01c-.48,13.36,29.71,6.06,25.9,18.72-1.04,3.44-50.38,33.1-58.85,41.28-42.86,41.4-75.8,104.2-84.85,163.15-.63,4.13,1.51,22.89-3.16,22.8-6.37-7.41-22.95-23.04-23.05-32.89-.09-8.83,7.69-35.62,10.62-45.5,20.95-70.78,79.12-116.51,129.39-166.61l4.01-.94Z"/>
  <path class="st0" d="M994.04,1296c-2.12-13.94-19.8-6.64-26.24-14.95l-.43-4.45c1.39-3.53,49.37-32.85,57.62-40.61,55.79-52.52,73.92-108.02,87.09-180.94.51-2.8-1.92-5.9,2.9-5.02,7.5,9.28,20.78,20.44,21.21,32.97,1.17,34.39-26.27,89.95-47.35,116.84-27.73,35.37-62.48,65.22-94.79,96.17Z"/>
  <path class="st0" d="M1529.99,827.99c-10.96-.59-32.79-.35-40.86-8.12-9.55-9.19-33.45-54.43-38.04-67.96-10.32-30.42-14.51-82.67-14.88-115.13-.13-11.71,3.71-27.96,3.88-39.7.14-9.6-2.02-17.72-2.09-27.09,10.52,7.18,34.1-21.5,34.1-3.1,0,18.86-12.19,47.11-12.25,68.11-.15,49.84,14.02,106.12,39.38,148.78l30.77,44.21Z"/>
  <path class="st0" d="M912.01,953.99c7.33-14.6-10.42-19.96-8.01-33.98,2.58-2.65,62.19,12.1,73,12.16,28.71.18,83.93-8.85,110.35-19.82,28.57-11.86,57.4-29.38,80.58-49.48l4.06,2.21c-3.51,11.37-.97,27.94-8.9,37.01-8.13,9.3-53.21,33.28-66.04,37.96-30.55,11.14-83.51,15.38-116.26,15.76-11.72.13-27.93-3.69-39.69-3.88-10.27-.16-19.06,1.75-29.08,2.06Z"/>
  <path class="st0" d="M1339.99,574.01c-2.77,20.53-28.24,13.78-42.83,17.75l-2.02,10.37c-34.7,9.01-71.26-1.4-105.73-7.87-10.09,10.16-18.38,24.07-33.4,27.73-2.27-2.15,9.89-12.66,11.65-15.33,3.24-4.87,5.22-11.18,7.57-16.56l-9.1-9.35,11.13-22.61c27.18,7.61,53.74,20.41,82.75,17.86-1.95-23.63-5.76-47.23-4.09-71.09,1.4-20,1.1-31.37,25.09-26.92,10.4,1.93,1.57,21.3,1.03,29.03-.76,10.79-.61,62.49,4.95,68.99,5.43,6.34,43.31-1.29,53.01-2.01Z"/>
  <path class="st0" d="M1803.99,1160.01c-.28,11.47-.98,21.77,4.91,32.08,5.55,9.73,7.18,3.08,17.1,3.9l5.9,22.74c-24.05,15.72-54.21,24.67-71.92,48.25,17.43,11.88,34.87,25.3,49.06,41,4.87,5.39,21.12,23.21,18.04,29.96-1.05,2.3-13.65,13.77-16.09,13.57-9.45-7.23-14.23-18.68-21.95-27.53-6.44-7.38-39.2-37.64-46.87-39.03-8.22-1.49-30.67,32.21-37.15,39.02-14.62-16.15,14.61-31.66,16.74-39.41,1.65-6.01-4.3-8.6-3.86-13.45,1.22-13.3,58.17-55.43,71.45-62.81,2.72-1.51,5.45-2.04,8.45-2.5-1.17-15.06-3.15-26.53,1.68-41.44,1.09-3.35-.89-5.28,4.53-4.35Z"/>
  <path class="st0" d="M1547.7,594.32c-9.35-.64-16.65,2.13-26.45,1.43-2.08-.15-22.61-3.39-17.24-7.74,13.03,1.48,23.89-1.71,35.82-6.19l-1.84-15.81c7.31,3.59,20.05-7.17,24-5.15,15.35,23.97,24.64,52.09,47.01,71.11,14.32-18.93,30.76-39.67,48.97-54.99,4.86-4.09,17.93-15.86,24.03-12.02,2.54,1.6,13.23,15.16,11.1,19.06-1.38,2.52-28.92,20.59-35.16,26.93-5.06,5.13-30.04,35.15-29.92,40.1,8.95,15.08,25.27,24.11,37.93,35.95-16.74,14.59-31.69-20.02-44.39-16.62-2.04.55-3.82,3.42-6.56,3.55-14.19.71-62.21-63.57-67.32-79.61Z"/>
  <path class="st0" d="M963.99,1235.99l-16.11-12.87-17.72-7.02-7.16,11.87c-5.06-6.81-11.14-8.78-19.03-10.94l-1.81-2.32c6.21-27.72,18.44-53.65,17.85-82.72-1.84-1.85-31.25,3.8-36.92,4.09-9.31.48-60.26.91-62.94-7.38l2.72-20.83c3.29-4.92,20.17,1.71,26.16,2.09,10.92.69,62.42.67,68.99-4.95,5.71-4.89-.3-43.62,0-53.01,20.85,4.9,9.97,28.31,15.44,39.54,3.77,7.74,12.67-.74,14.54,17.46,3.12,30.45-4.34,64.34-11.8,93.67,11.25,8.68,25.58,18.2,27.79,33.31Z"/>
  <path class="st0" d="M1031.99,726.01c-.3,5.39.87,11.22-.48,16.5-2.12,8.35-20.37,19.45-19.12,26.13.49,2.6,4.95,5.31,4.96,8.36.05,13.05-64.78,64.02-81.23,67.18-1.34,1.84,7.86,39.07-4.11,43.82-.03-4.83.37-9.68-.54-14.48-2.64-13.88-5.13-26.2-21.47-19.51l-5.81-24.67c23.04-14.65,52.37-23.59,69.66-46.07-10.81-8.43-72.13-59.34-66.84-71.34,21.62-27.76,23.67-4.64,37.96,12.1,5.81,6.81,41.41,39.68,48.01,39.89,8.85.29,26.16-26.39,32.59-33.34,1.98-2.14,2.08-5.57,6.42-4.56Z"/>
  <path class="st0" d="M1805.77,831.77l3.24-7.74,3.84-1.93,20.9,13.11c-8.32,27.03-20.21,53.77-17.74,82.78,12.35-4.08,95.93-7.72,98.08,1.32l-.41,19.35c-2.91,8.77-26.87-.03-34.71-.63-10.01-.77-57.12,1.04-63.03,6.91-6.34,6.29,1.37,42.86,2.05,53.05-21.44-1.63-12.71-36.42-16.86-42.12-2.48-3.4-10.81.52-13.01-8.99-7.23-31.19,4.36-68.56,9.59-99.43-9.32-10.99-26.25-20.31-26.71-35.44,3.91,6.14,29.07,23.86,34.78,19.76Z"/>
  <path class="st0" d="M1232,1459.98c-13.41-1.4-25.78,3.42-37.96,8.15l1.93,13.83-22.59,5.76c-7.04-1.76-30.83-66.26-48.32-69.72-14.39,18.86-30.8,39.76-49.04,55.03s-19.97,16.08-35.55-3.98c-.37-4.5,31.53-25.84,37.58-31.98,4.97-5.04,26.6-31.41,27.65-36.53.76-3.7.19-4.62-1.59-7.63-5.17-8.72-32.3-25.63-34.1-29.93-2.95-7.02,16.13-2.16,18.73-.7,6.53,3.68,16.9,20.71,25.19,16.81,2.47-1.16,3.93-6.58,8.11-4.33,28.55,20.36,48.86,50.16,65.95,80.38,3.5,2.22,37.99-6.71,44,4.85Z"/>
  <path class="st0" d="M1580,1428.02c-9.38,11.83-31.65,29.85-10.03,40.98-6.81,4.97-7.43,13.44-10.21,20.75-28.64-4.34-55.63-19.18-85.76-17.74,3.64,25.27,6.06,53.48,4.07,79.06-1.96,25.24-5.43,20.25-27.9,18.76-3.58-2.39,3.37-28.96,3.8-34.86,1.45-19.91-1.73-42.29-5.74-61.82l-54.23.83c7.2-20.13,27.76-11.03,43.77-16.21,1.12-1.42-.75-6.84,1.14-9.85,6.81-10.86,91.15.64,105.84,7.73,10.52-10.15,18.75-26.39,35.25-27.63Z"/>
  <path class="st0" d="M1514,947.98c-1.6-9.39-14.81-13.1-23.03-13.96-15.16-1.57-29.87-.5-38.7,13.39-.18,7.96,5.41,13.88,13.73,12.6-11.76,12.97-42.69,4.91-45.88-13.19-2.17-12.3,3.13-7.41,8.96-12.75,3.85-3.54,4.25-9.09,9-13,8.61-7.08,20.98-4.34,27.92-12.1-3.26-13.28-30.22,2.69-33.98-.98.06-5.55,1.85-13.76,4.46-18.52,2.27-4.15,7.47-7,8.56-9.53s-1-5.14.04-7.79c14.45-36.99,35.61,28.06,42.83,34.96,6.7,6.4,19.99,10.78,27.94,16.06,13.49,8.95,28.61,21.23,36.13,35.69-1.35,6.31-62.3,14.22-72.17,30.14-2.2,3.54,1.04,6.67-2.9,8.95-12.61-1.02-25.87-12.54-17.73-25.8,6.91-11.25,41.88-19.01,54.83-24.17Z"/>
  <path class="st0" d="M1273.98,966.01c11.69,59.06-40.41,16.51-63.03,10.03-5.73-1.64-2.32,11.31-1.6,13.62,6.56,21.02,53.99,51.77,44.65,10.36,17.19,3.93,26.72,19.18,23.51,36.51-3.36,18.16-10.25,7.59-18.21,8.02-4.21.22-7.74,3.8-14.07,3.38-9.06-.6-23.26-13.14-28.13-11.9l-2.85,4.66c1.01,11.94,29.23,13.4,22.84,23.39-5.06,7.92-21.59,6.38-27.69,7.87-1.78.43-1.87,4.13-4.76,5.6-3.25,1.66-10.99,3.01-14.76,1.61-2.96-2.15-2.32-19.55-1.7-23.99,1.58-11.34,9.4-17.18,9.93-30.11.57-13.79-5.23-22.24-7.6-34.57-3.19-16.6-3.51-33.83-.49-50.5,8.51-.07,14.64,7.15,21.95,11.05,12.4,6.61,37.57,21.38,50.94,18.89,3.84-.72,6.56-5.03,11.08-3.92Z"/>
  <path class="st0" d="M1220,1102.02c6.68,11.53,24.43,14.79,36.95,13.98,11.07-.72,31.7-9.34,22.83-22.8-3.05-4.63-8.36-3.16-9.77-7.17,15.89-7.9,41.81-1.66,45.63,17.46,1.96,9.81-4.84,6.94-9.82,11.34-3.96,3.5-3.88,9.47-8.77,13.24-7.55,5.83-19.14,5.04-25.57,7.94s-1.3,9.28,5.7,9.97c10.52,1.03,19.22-10.25,26.48-3.03-2.16,4.76-2.41,10.41-4.63,15.1s-6.51,7.08-7.95,10.05c-2.39,4.94-3.2,14.08-7.31,19.67-20.22.46-23.5-24.17-31.01-37.52-8.24-14.66-35.13-23.62-49.71-36.29-5.21-4.53-25.78-22.49-15.62-27.52,6.04-2.99,22.11-5.31,30.1-7.9,10.15-3.29,30.87-8.47,36.54-17.46,2.32-3.68,1.32-8.36,4.99-11.07,52.69,26.49-15.53,43.47-39.06,52.02Z"/>
  <path class="st0" d="M1485.98,1123.99c6.86-10.51-2.67-23.5-2.07-31.02.7-8.83,18.16.14,22.82,3.29,2.75,1.86,3.72,5.82,5.19,6.69,1.15.68,18.13-.36,19.81,8.31,2.71,14.01-35.88,25.28-43.77,31.69-11.59,9.43-20.72,35.36-33.17,48.83-3.46,3.74-20.49,19.7-24.71,16.15-3.75-14.31-13.86-62.29-24.96-70.06-3.15-2.2-7.21-1.47-10.28-3.75-3.77-4.73,8.02-18.34,12.59-19.74,22.36-6.82,29.23,41.46,36.6,55.6,20.48-3.38,17.66-57.66.87-60.07-11.7-1.68-12.97,12.49-13.88,12.07-11.23-12.99-4.33-36,10.24-43.72,13.72-7.27,10.88,3.16,16.83,8.64,3.28,3.02,9.7,3.53,12.85,7.15,3.37,3.89,8.71,34.57,15.05,29.92Z"/>
  <path class="st0" d="M1380.01,1177.99c11.93-1.55,16.83-13.99,20.09-23.9,6.23-4.24,14.4,12.84,15.04,17.8.53,4.08-1.83,7.97-1.28,10.73.2,1.04,11.56,7.08,7.94,18.09-4.08,12.41-37-3.58-44.16-5.34-27.22-6.69-63.7,18.35-93.56,6.55-.69-2.81.11-5.18,1.05-7.8,4.67-13.01,18.81-30.15,24.41-45.59,4.28-11.8,7.53-16.82-1.53-27.48,1.31-5.75,21.12-6.36,26.01-4.04,18.09,8.59-11.97,54.64-16,66.98,22.76,2.46,50.2-22.25,43.09-46.06-6.75-5.83-11.99-1.15-19.08.06,6.4-15.87,20.35-27.71,38.58-23.54,14.11,3.23,6.7,11.69,7.47,20.32.36,4.07,3.57,7.81,3.38,11.92-.36,7.94-16.72,27.2-11.42,31.31Z"/>
  <path class="st0" d="M1415.99,864.01c-22.56.49-46.26,21.18-43.66,44.66,4.89,7.04,13.42,6.99,19.65,1.33-2.37,20.84-33.49,35.71-47.58,16.72,6.65-10.38-1.84-17.91-.03-27.22,1.07-5.52,15.01-24.08,11.62-27.49-7.44-1.36-11.89,3.78-15.65,9.33-3.17,4.68-5.76,18.57-12.11,14.43-.66-.43-6.46-12.63-6.9-14.1-1.49-5.06-.51-10.18-1.76-14.24-1.66-5.41-15.27-18.09-1.67-22.52,18.77-6.11,35.22,11.19,51.09,11.24,11.17.03,26.68-7.74,38.52-9.64,14.23-2.28,28.26-1.31,42.54.43l1.59,5.64c-11.27,22.51-37.74,50.63-25.69,76.25-5.62,6.95-25.07,7.37-28.96-.82-8-16.83,16.58-46.67,18.99-64Z"/>
  <path class="st0" d="M1545.73,970.28c10.16,18.97-9.84,38.46-9.88,54.71-.04,15.74,11.41,37.92,11.94,56.23.22,7.61-3.72,18.15-1.8,26.78-5.09,4.98-55.89-32.42-72.49-29.66-3.34.56-7.48,3.86-10.52,5.61-12.23-21.96-2.28-37.48,22.96-28.89,3.11,1.06,41.73,21.98,42.08,15.92-2.4-22.38-23.78-45.77-47.73-40.68-3.49,6.12-2.08,11.39-.3,17.7-18.21.78-30.42-32.25-19.05-44.05,4.26-4.42,11.53.85,17.87.06,3.52-.44,6.28-3.58,9.83-3.5,7.74.17,25.24,14.14,28.32,13.52,14.19-19.6-38.53-18.93-12.75-32.79,10.74-5.78,13.47-2.03,20.45-3.09,1.47-.22,1.97-4.54,6.07-6.35,2.95-1.31,12.62-2.97,14.99-1.49Z"/>
  <path class="st0" d="M1303.97,840c5.74,16.84,13.43,63.78,28.62,72.41,2.36,1.34,7.71-.45,9.24,4.85.56,3.39-10.76,15.74-14.41,17.27-22.15,9.29-28.56-42.78-36.41-54.55-2.25-3.37-2.18-1.17-4.01.01-13.74,8.81-13.75,41.79-3.92,53.92,3.27,4.03,9.14,8.37,13.98,4.22l8.91-12.11c7.19,14.21,2.63,39.73-13.87,45.1-12.1,3.94-11.14-4.09-17.99-10.23-3.02-2.71-7.02-2.61-9.91-6.09-6.58-7.95-5.17-32.18-16.34-27.62-7.74,10.69,9.95,30.19.87,32.66-3.91,1.06-16.87-4.33-20.59-6.97-1.84-1.3-2.57-4.91-4.2-5.94-1.45-.91-14.13.87-19.03-6.94-8.85-14.1,31.72-26.71,37.79-30.27,13.41-7.86,24.87-39.23,37.31-52.69,2.68-2.9,21.4-18.86,23.96-17.02Z"/>
  <path class="st0" d="M441.99,893.99l7.75,26.59c-38.41,42.06-68.08,98.6-71.72,156.44-1.44,22.83,1.65,45.41,2.08,67.89.05,2.78,1.46,10.83-3.06,9.07-5.3-2.07-24.32-16.6-25.14-22.88-8.64-66.64,24.17-170.85,69.08-221.13,2.85-3.19,17.51-19.44,21.01-15.99Z"/>
  <path class="st0" d="M2294.02,1155.99l-9.7-26.71c26.54-28.33,47.29-62.81,60.65-99.32,11.18-30.53,14.53-68.44,13.01-100.95-.43-9.16-3.38-20.8-4.02-30.02-.2-2.93-.22-3.64,3.06-3.04,1.31.24,20.72,12.64,22.07,13.95,2.85,2.78,4.19,7.42,4.73,11.27,3.67,26.31-6.22,83.74-13.17,110.46-8.18,31.44-45.22,103.96-71.62,122.38-1.7,1.18-1.99,2.78-5.01,1.96Z"/>
  <path class="st0" d="M1999.62,228.43c6.66-.48,12.47,3.19,17.38,7.58,48.65,43.51,87.36,117.82,98.05,181.95,1.01,6.05,6.94,43.65-.03,43.99l-24.7-13.27c-3.6-59.87-23.45-119.42-63.29-164.71-15.89-18.07-34.94-33.2-52.99-48.97-.07-2.01,22.63-6.36,25.58-6.57Z"/>
  <path class="st0" d="M1238.01,37.99l14.53-25.45c7.68-7.9,48.18-3.95,60.43-2.52,67.76,7.9,140.43,33.43,185.01,86.95l-25.01,10.47c-46.32-41.01-104.97-70.48-167.9-73.52-22.46-1.08-44.85,1.61-67.07,4.07Z"/>
  <path class="st0" d="M1495.99,2012.01c2.47,2.39-14.5,26.7-21.04,27.94-8.67,1.65-34.06.71-43.93.03-30.25-2.1-74.63-11.57-102.37-23.63-33.32-14.49-68.88-35.62-92.61-63.35l26.53-10.72c26.42,23.14,53.52,40.62,86.08,54.07,49.29,20.36,94.62,20.33,147.34,15.66Z"/>
  <path class="st0" d="M618,1588l27.03,11.97c2.53,60.82,23.59,120.36,63.95,166.05,8.22,9.31,19.77,20.56,29,29,4.6,4.2,21.94,14.71,22.05,19.95-16.89,3.21-29.12,10.61-43.09-2.91-33.31-32.21-68.88-84.67-83.45-128.55-3.82-11.49-15.47-48.61-15.47-58.53v-37Z"/>
  <path class="st0" d="M803.99,274.01l-10.25,27.73c-62.78,2.67-124.97,25.05-171.76,67.24-16.77,15.13-28.93,34.26-45.96,49.02.79-13.13-8.68-25.61-.93-37.91,10.95-17.38,64.01-55.22,83.08-66.92,40.39-24.78,98.5-39.5,145.82-39.16Z"/>
  <path class="st0" d="M1930,1774l13.27-27.73c34.72.24,66.93-8.29,98.71-21.29,42.6-17.43,71.05-42.87,101.06-76.94,2.37-2.69,10.99-16.04,11.99-16.05,3.8-.03,4.07,2.22,4.88,5.13,1.5,5.44,4.69,22.39,3.26,26.98-2.11,6.76-31.08,32.18-38.21,37.86-32.68,26.05-65.36,45.99-105.41,58.59-10.05,3.16-42.25,13.47-50.53,13.47h-39Z"/>
  <path class="st0" d="M1433.99,586.01c-4.8,14.84-1.54,34.03-7.2,47.78-1.11,2.71-6.49,8.36-6.49,9.23,0,1.64,6.64,4.8,7.64,10.03.69,3.6.89,18.16-1.81,20.11-7.5,5.43-17.05-11.52-26.7-8.86-2.13.59-27.73,23.44-34.39,27.77-20.71,13.47-83.71,45.55-106.64,47.54-12.18,1.06-24.09-19.27-18.48-24.63,2.45-2.34,33.06-7.9,40.05-9.97,52.62-15.59,98.86-50.57,132.84-93.16,2.05-2.57,17.49-29.8,21.16-25.82Z"/>
  <path class="st0" d="M1723.99,758.01c.85,3.85-1.96,4.78-4.18,6.8-5.39,4.9-22.2,18.55-27.9,22.1s-17.2,4.48-17.83,5.16.63,8-1.11,11.9c-1.02,2.3-13.71,13.83-16,13.64-6.53-.52-5.6-21.46-10.94-24.65-35.5-1.19-70.03-10.45-103.07-22.93-10.09-3.81-50.16-20.12-54.74-27.26-4.12-6.41-.28-27.35,8.61-26.81,2.86.18,41,24.41,49.82,28.38,54.51,24.48,119.54,27.89,177.33,13.66Z"/>
  <path class="st0" d="M1599.87,1332.13c-.53-.49-8.6.14-13.81-3.2-2.35-1.51-12.49-14.11-12.07-15.89l25.66-9.37c.19-18.78,2.43-37.79,6.93-56.08,3.96-16.07,31.14-95.03,42.27-101.71,7.88-4.74,29.96-.41,26.82,10.7-47.71,62.16-60.81,147.03-41.68,222.4l-4.01,2.06c-6.67-14.38-23.04-25.29-28.64-39.4-1.02-2.57-1.11-9.16-1.47-9.5Z"/>
  <path class="st0" d="M1088.04,1258.01c16.06-3.43,35.73,1.3,51.98,4.97,16.65,3.77,99.13,30.86,106.08,42.41,4.19,6.95.89,23.2-5.42,28.44-3.38.96-38.95-23.08-46.71-26.8-57.4-27.49-122.36-29.58-183.98-17.04l35.25-29.73,14.77-2.24c-4.78-8.8,13.48-29.24,20.05-25.12,4.15,2.6,5.12,19.71,7.98,25.12Z"/>
  <path class="st0" d="M987.91,971.95c.87-9.33,17.84-9.57,24.67-7.53,13.81,4.14-8.2,19.15-6.75,28.3,14.35,11.2,27.23,30.07,36.51,45.93,12.05,20.6,35.55,68.41,39.18,90.82,2.66,16.44-9.37,22.37-23.37,24.37-5.29-19.14-8.33-39.1-15.17-57.83-14.61-40.01-48.97-85.34-82.04-111.96-5.04-4.05-31.97-21.17-32.93-23.08-2-4,2.51-2.66,4.48-2.49,10.36.93,26.22,2.38,36.03,3.99,8.6,1.42,12.05,7.04,19.4,9.47Z"/>
  <path class="st0" d="M1805.98,1086.04l-.99,3.97c-18.12-4.45-43.91,1.64-56-14-3.16,10.06-15.4,9.13-24.09,8.08-17.56-2.11,5.02-18.15,2.83-26.67-22.61-24.09-39.66-52.83-53.45-82.7-5.17-11.19-24.6-56.01-21.95-65.27,3.61-5.74,18.4-17.9,24.72-11.5,1.84,1.86,10.66,42.58,13.43,50.57,19.28,55.71,64.53,108.45,115.51,137.52Z"/>
  <path class="st0" d="M1105.96,668.02c6.48,18.93,30.85,28.34,28.03,50,13.33-2.59,22.77,7.03,26.01,18.94l-25.07,8.93c.95,35.15-10.31,72.29-22.88,105.15-4.02,10.5-19.75,49.77-28.61,53.51-5.66,2.39-25.84-2.3-25.15-9.21.3-2.99,25.85-42.44,30.07-52,23.99-54.33,25.78-116.96,13.63-174.33l3.99-1.01Z"/>
  <path class="st0" d="M1305.97,1463.99c-5.19.82-4.12-.94-4.05-5.05.13-8.24,2.72-29.44,4.2-37.83,1.11-6.26,7.26-12.06,7.64-14.49.49-3.11-4.81-5.01-5.73-9.66-.67-3.43-.65-14.47-.03-17.96,2.39-13.36,18.4,8.25,26.73,6.59,22.85-22.7,51.46-39.6,80.51-53.35,13.91-6.59,54.2-24.86,67.71-22.21,6.9,1.35,16.94,21,11.11,25.04-2.11,1.46-19.84,3.73-24.91,5.08-32.48,8.63-60.6,20.32-87.81,40.19-29.48,21.53-58.72,51.33-75.37,83.66Z"/>
  <path class="st0" d="M1579.78,192.17c12,12.97-2.76,26.5-3.78,41.82,45.58,1.95,86.46,15.66,126.75,35.86l1.25,6.14c-7.99.69-17.09-1.02-24.89.13-5.02.74-10.77,5.36-16.18,5-8.94-.61-44.74-17.32-60.83-20.23-4.41-.8-26.16-3.57-28.82-2.65-8.64,2.98-8.63,52.63-5.3,61.75-24.37-10.68-29.12-3.75-27.97-32.97.63-16.09,3.23-37,7.46-52.54,5.2-19.08,11.06-37.58,32.3-42.32Z"/>
  <path class="st0" d="M1807.81,1761.79c-19.9,5.37-16.47-22.99-30.68-29.73-16.36,13.33-34.4,29.12-53.04,39.02-12.19,6.48-39.44,18.13-52.45,21.55-3.88,1.02-7.58,1.86-11.62,1.36-2.61-2.31,12.91-15.38,14.86-18.12,3.26-4.57,5.55-13.85,9.25-16.75,3.44-2.7,13.63-4.9,18.59-7.41,12.56-6.34,55.14-28.3,60.35-39.79,2.45-5.4-3.8-12.62-7.11-16.88-8.62-11.09-20-20.27-29.94-30.07-.68-4.22.66-2.36,2.74-3.17,11.96-4.65,19.63-12.02,29.32-2.88,13.05,12.3,33.83,37.98,42.29,53.71,9.07,16.86,15.15,30.26,7.43,49.16Z"/>
  <path class="st0" d="M2189.5,1216.51c2.48,2.32,6.1,13.67,10.23,16.86-7.01,18.78-27.54-1.41-41.73.62-2.18,20.07-4.26,42.1-9.44,61.57-2.81,10.56-20.59,57.05-26.56,63.44-1.87,2-2.79,3.69-5.99,2.99-.57-8.06.86-16.88-.18-24.82-.68-5.19-5.13-12.16-5-16.18.16-4.87,9.18-21.23,11.23-27.92,6.34-20.7,11.2-41.97,12.03-63.76-1.82-7.34-52.88-5.53-62.09-5.33l8.95-24.03c3.32-4.46,49.4-1.01,57.82.29,7.54,1.16,46.68,12.48,50.74,16.27Z"/>
  <path class="st0" d="M1075.99,254.01c2.31,2.11-13.47,16.42-15.67,19.31-3.22,4.22-6.1,13.75-8.87,16.11-3.76,3.21-20.21,7.66-26.21,10.81-19.4,10.19-39.03,21.9-54.3,37.72-3.2,7.13,32.13,42.1,39.05,47.05-8.88,1.6-21.04,13.01-28.66,8.75-3.36-1.88-21.63-22.36-25.28-26.81-9.52-11.64-31.71-44.48-33.67-58.38-.32-2.29,3.5-18.96,4.61-20.62,2.14-3.21,11.69-.04,13.99,2.06,2.18,1.99,9.69,20.47,12.57,25.44.97,1.66-.58,3.33,3.41,2.53,33.44-30.93,74.43-53.99,119.02-63.97Z"/>
  <path class="st0" d="M2106.01,584.01c-1.7,3.31-1.15,11.64-2.39,13.6-1.35,2.12-29.57,12.07-29.58,15.38,30.16,34.39,53.09,74.16,63.95,118.99-1.53,1.73-18.08-14.06-20.91-16.07-4.55-3.24-10.53-3.72-14.24-7.76-5.32-5.8-17.97-39.33-25.23-50.77-3.77-5.95-18.16-26.72-23.71-28.38-10.45-3.14-38.36,28.31-44.93,36.98-3.95.79-2.45-.84-3.43-2.51-1.16-1.97-9.02-17.93-9.26-18.96-.78-3.3,2.34-7.43,4.43-9.81,10.35-11.77,38.14-33.33,51.94-41.05,5.03-2.82,27.2-13.99,31.2-14.73,3.43-.63,16.65,6.19,22.16,5.08Z"/>
  <path class="st0" d="M729.99,1382.01l7.74,26.55c-17.22,18.63-37.86,37.86-60.36,49.81-4.26,2.26-19.75,9.89-23.37,10.79-7.33,1.82-16.05-4.72-23.98-3.18-3.41-17.12,5.41-14.89,17.33-21.63l12.62-9.31c-12.62-16.16-27.1-33.03-37.01-51.01-7.04-12.77-20.61-42.48-23.99-56.01-1.02-4.08-1.36-7.85-.96-12.03,6.21,10.66,29.75,19.11,34.94,26.04,4.06,5.42,6.94,18.2,10.65,25.35,5.38,10.38,27.82,49.27,36.98,53.18,4.76,2.03,18.04-9.01,22.35-12.63,8.37-7.03,15.11-17.91,22.01-23.99,1.74-1.54,2.22-2.59,5.03-1.95Z"/>
  <path class="st0" d="M617.99,688.01c-4.69,12.47,6.56,31.63,5.96,40.86-.28,4.36-8.87,20.75-10.88,27.2-6.52,21.03-12.46,42.28-11.2,64.69,19.08,6.75,40.43,6.65,60.11,3.24l-8.46,25.51c-.99,1.18-3.36,1.65-4.94,1.97-8.4,1.75-34.04-.38-43.56-1.52-12.05-1.45-50.06-10.42-58.94-17.06-3.63-2.71-7.29-14.46-11.87-18.17-.87-2.62,8.65-8.38,10.38-8.37,4.6.02,30.83,12.35,33.39,9.62.36-39.33,10.9-77.72,28.29-112.71,1.04-2.09,8.29-19.16,11.71-15.27Z"/>
  <path class="st0" d="M1175.46,1847.47c-1.73,1.81-15.57,6.47-18.49,10.4-15.54-13.12,2.87-27.78,1.04-43.87-40.14-.77-81.1-11.97-116.76-30.23-1.65-.84-14.62-7.02-11.23-9.76,6.86-.36,13.91.62,20.77-.23,6.48-.81,15.59-6.05,20.06-5.77,9.08.58,40.93,15.75,55.48,18.67,12.04,2.42,24.01,4.15,36.37,3.41,7-1.66,6.04-51.16,5.33-60.08,5.47,3.16,18.86,5.4,22.84,8.14,3.1,2.13,2.87,3.39,3.26,6.74,2.26,19.74-2.11,53.42-7.59,72.63-1.1,3.84-9.96,28.8-11.06,29.95Z"/>
  <path class="st0" d="M1473.98,820c-32.55-7.48-59.47-23.74-86.61-42.37-10.9-7.48-57.19-40.61-59.02-51.07-1.38-7.89,13.03-15.29,19.13-16.22,8.56-1.31,16.14,12.94,22.5,18.68,25.8,23.32,55.35,41.7,85.83,58.17l18.18,32.8Z"/>
  <path class="st0" d="M1405.6,1329.61c-25.55,17.04-23.14,6.43-38.54-7.67-15.88-14.54-36.25-30.02-54.45-41.55-8.4-5.33-27.57-12.65-33.66-18.34-7.57-7.07-9.6-24.58-18.95-32.03,32.6,4.71,60.83,23.15,87.44,41.54,10.92,7.55,54.19,38.47,57.65,48.34.92,2.61,1.88,7.37.5,9.72Z"/>
  <path class="st0" d="M1607.51,1208.48c5.5,5.41-1.84,26.29-10.56,27.46-18.48.1-37.37,0-55.71,2.29-20.28,2.53-59.86,17.9-75.77,15.29-8.44-1.38-17.71-8.78-27.47-7.55,7.97-7.15,23.52-14.89,34.04-18.94,12.21-4.71,25.19-7.3,37.94-10.06,15.53-3.37,88.36-17.52,97.53-8.49Z"/>
  <path class="st0" d="M1146.02,1094.01c3.06,1.12,5.39,7.02,7.01,9.96,18.13,32.76,30.59,91.43,33.05,128.95.92,14.09,4.28,36.22-14.59,32.61-23.49-4.49-14.11-24.16-15.41-42.62-1.32-18.83-4.7-38.86-8.67-57.33-2.93-13.66-11.41-28.47-9.29-42.47,1.34-8.83,9.86-18.85,7.89-29.11Z"/>
  <path class="st0" d="M1574.02,1130c4.14-31.04,21.17-57.2,38.35-82.63,8.31-12.31,20.08-29.4,29.58-40.42,2.61-3.03,18.06-18.99,20.08-19.93,12.63-5.85,22.05,16.16,19.04,22.9-1.67,3.73-17.77,17.14-22.1,22.05-6.69,7.6-13.73,16.11-19.75,24.25-9.62,12.98-31.49,55.92-40.51,61.49-6.86,4.23-17.8,6.34-24.69,12.29Z"/>
  <path class="st0" d="M1587.97,953.99l-20.05-38.91c-7.88-36.12-19.99-79.06-20.08-116.07-.05-19.41,13.44-20.06,26.92-10.77,8.64,5.95,2.72,18.94,3.16,28.85.53,12.02,2.54,27.56,4.4,39.6,2.64,17.16,15.47,50.21,15.8,62.4.26,9.6-9.84,24.25-10.14,34.9Z"/>
  <path class="st0" d="M1161.98,918c-6.05,33.49-24.5,62.09-43.54,89.44-7.59,10.9-38.82,54.63-49.9,56.3-8.1,1.22-16.92-18.38-13.53-25.7,1.93-4.17,17.5-16.81,22.01-22.01,8.01-9.22,16.78-20.24,23.75-30.25,9.02-12.94,24.53-46.99,34.55-53.45,8.26-5.33,19.25-6.91,26.65-14.33Z"/>
  <path class="st0" d="M1259.53,794.39c2.96-.36,5.69-.73,8.56.45l27.87,10.16c-20.3,14.16-43.73,21-67.58,26.38-24.09,5.43-63.27,13.04-87.28,12.69-3.41-.05-13.71-1.99-14.88-5.33-1.5-8.1,2.87-23.53,11.74-25.94,4.36-1.19,14.54,1.63,21.12,1.29,21.56-1.13,45.47-4.77,66.57-9.43,10.48-2.31,24.3-9.08,33.89-10.26Z"/>
  <path class="st0" d="M948,1313.98c-11.09.65-49.01,10-50.12,23.13-.46,5.42,6.5,7.62,3.14,14.84-1.38,2.97-39.08,39.22-42.04,40.03l-14.08-18.03c-1.66-3.05.65-5.44,2.23-7.82,2.22-3.35,20.51-23.21,23.85-26.15,4.67-4.12,11.05-4.31,14.87-7.13s6.59-10.48,12.3-13.7c5.82-3.28,36.83-13.24,42.96-13.25s7.67,2.33,6.9,8.08Z"/>
  <path class="st0" d="M1877.91,658.07l11.84,20.47c-.38,2.63-22.47,27.3-25.94,30.27-6.85,5.86-14.35,10.11-22.76,17.25-7.65,6.5-32.06,14.75-42.28,15.75-9.28.91-20.05-2.97-7.19-7.17,13.86-4.52,29.13-4.28,40.48-15.56s-1.76-12.88,2.95-23.04c1.07-2.31,33.01-34.27,35.88-36.14,2.36-1.53,4.05-2.62,7.01-1.83Z"/>
  <path class="st0" d="M1083.98,605.99c-3.41.68-4.11-.8-5.56-3.41-4.6-8.24-8.97-48.04-23.42-47.87-3.96.05-7.17,5.88-14.96,2.28-1.16-.54-16.84-14.65-19.14-16.89-6.94-6.77-12.62-16.9-20.87-23.1,8.09-3.55,14.6-18.37,23.92-14.01.96.45,13.86,11.95,16.07,13.99,10.85,9.99,12.78,17.74,19.91,26.09,2.79,3.27,7.85,4.5,10.98,9.02,4.53,6.52,19.18,49.41,13.06,53.91Z"/>
  <path class="st0" d="M751,926c-2.04-1.5-2.17-1.74-2.18-4.08,0-5.36.59-20.7,5.17-22.93,4.1-2,36.21-1.57,43.07-1.05,5.03.38,8.35,3.78,12.03,4.01,4.07.25,8.18-2.33,13.66-1.87,7.31.61,45.25,19.83,46.43,25.73,2.93,14.59-20.89-5.84-25.82-8.17-6.74-3.19-22.21-8.81-28.56-3.82-2.33,1.84-4.76,12.19-7.8,12.19h-56Z"/>
  <path class="st0" d="M1466,406l25.72,2.27c2.91,1.8,3.08,38.86,2.42,44.87-1.27,11.48-2.45,10.65-2.04,23.97.25,8.28-17.77,45.67-25.51,48.48-2.64.96-7.88,1.77-6.56-2.55,2.9-9.51,30.18-40.34,18.03-52.11-2.09-2.02-12.06-3.42-12.06-5.93v-59Z"/>
  <path class="st0" d="M1733.99,1533.96c-6.97.3-14.1,15.01-20.7,13.73-2.08-.41-28.51-25.07-31.31-28.67-6.71-8.62-7.77-11.14-15.96-20.04-5.73-6.23-20.91-50.02-16.01-54.97l6.99,1.99c1.49,10.59,10.11,49.02,23.83,48.05,4.76-.34,7.43-5.68,13.1-3.12,1.3.59,18.77,16.6,21.15,18.99,3.27,3.29,14.8,15.86,16.96,19.04,1.14,1.68,2.75,2.07,1.94,5.01Z"/>
  <path class="st0" d="M1273.99,1522.01c4.5,4.67-28.84,41.64-18.17,55.17,3.43,4.35,10.7,1.93,12.58,7.68,1.41,4.33-.69,10.93-.45,16.06.22,4.55,2.29,8.75,2.22,14.07-.12,8.83-4.13,19.3-2.19,29l-22.71-2.27-3-3c.95-8.02-2.05-15.86-2.35-23.65-1.03-26.08,5.75-64.64,22.44-85.73,3.19-4.03,5.4-8.37,11.64-7.34Z"/>
  <path class="st0" d="M1921.52,1135.49c1.25-1.48,1.08-5.76,2.67-8.26,4.69-7.38,10.4-2.53,16.79-3.07,5.45-.46,10.47-2.42,16.02-2.34,8.84.13,19.29,4.13,29,2.18l-3.86,25.12c-13.97.69-29.25,4.65-43.19,2.93-10.66-1.31-22.38-6.12-34.83-5.17-8.55-6.31-29.59-12.03-36.09-19.91-1.8-2.19-3.22-7.72-2.01-8.97,3.15-3.26,45.28,29.62,55.51,17.48Z"/>
  <path class="st0" d="M880.01,547.99c-2.13,12.79,5.47,28.78,3.92,40.83-1.33,10.3-13.97,24.26-19.9,33.17-9.29-23.33-9.09-48.22-11.92-72.8l4.41-2.81,23.5,1.6Z"/>
  <path class="st0" d="M964,1524.02c4.63,4.86-14.18,8.55-15.98,9-18.62,4.72-36.06,4.33-54.86,6.75-6.59-1.55,2.1-21.43-3.16-27.75,13.85,2.45,29.67-5.8,42.85-3.9,11.93,1.71,18.67,15.82,31.15,15.9Z"/>
  <path class="st0" d="M1845.99,510.01l-1.98,28c-14.02-2.26-29.37,3.99-42.89,1.85-10.66-1.69-19.47-14.65-31.12-15.89-2.36-3.15,18.93-8.95,21.5-9.47,17.09-3.47,36.98-3.07,54.49-4.49Z"/>
  <path class="st0" d="M1871.98,1428c7.13,24.03,9.34,48.98,10.01,74.01-8.78-.59-16.08-3.94-24.84-.23-2.32-.84-2.78-2.56-3.16-4.78-1.32-7.85-3.02-34.34-1.54-41.54.94-4.55,11.67-19.91,15.08-24.85,1.22-1.77-.33-3.69,4.44-2.61Z"/>
  <path class="st0" d="M1949.52,1117.49c-4.26,4.94-23.13,1.73-25.12-4.88-2.11-7,5.9-57.73,9.74-60.53,29.39,2.96,19.07,11.62,17.9,30.95-.45,7.5,1.53,29.78-2.52,34.46Z"/>
  <path class="st0" d="M1343.96,324.01c1.64,9.4,10.3,12.62,16,18.99-11.26,7.93-18.54,27.4-30.12,33.84-8.1,4.5-22.48,3.59-31.83,7.15-3.66-3.64,16.65-30.62,20.04-34.94,2.94-3.73,22.39-27.46,25.91-25.04Z"/>
  <path class="st0" d="M2051.96,1015.99l-2.87-.06c-7.66-9.3-25.79-16.65-31.99-26.03-6.23-9.41-5.86-24.89-9.09-35.89,23.45,7.96,40.1,27.21,59.11,41.94,3.51,6.34-15.92,11.85-15.16,20.04Z"/>
  <path class="st0" d="M727.99,1093.99c-24.75-5.74-42.86-27.44-61.95-42.99l18.96-18.97c7.27,9.28,28.53,18.87,33.84,28.13,4.95,8.64,3.49,24.11,9.16,33.82Z"/>
  <path class="st0" d="M1437.99,1664.01c-8.2,24.35-27.51,43.77-44.99,61.95l-16.13-17.97v-3.97c9.95-7.18,16.96-25.14,27.29-30.86,8.39-4.64,24.24-4.27,33.83-9.15Z"/>
  <path class="st0" d="M1745.45,1446.25c7.39-1.15,14.55,13.31,11.59,19.7-1.18,2.55-24.34,19.02-29.07,23.02-3.29,2.78-9.3,10.84-12.01,12.09-7.36,3.4-20.49-13.48-16.98-21.02,2.51-5.39,40.78-32.91,46.47-33.79Z"/>
  <path class="st0" d="M1811.43,636.6c3.14,12.09,30.45,31.84,32.27,40.88s-13.62,18.31-19.63,15.59c-6.55-2.96-35.27-41.94-35.83-48.45-.45-5.26,18.48-14.22,23.19-8.02Z"/>
  <path class="st0" d="M1459.52,465.5c-5.33,6.17-52.42-1.83-60.14-5.88-6.37-3.35-3.61-13.84.56-18.66,7.28-8.41,15.99-1.54,25.09-1,21.72,1.3,45.92-7.35,34.49,25.54Z"/>
  <path class="st0" d="M945.73,1407.7c-22.35,16.06-25.31-1.59-37.79-16.65-4.36-5.26-18.1-15.41-17.53-21.74.74-8.18,15.37-15.77,22.68-11.43,7.1,4.21,36.09,43.92,32.63,49.82Z"/>
  <path class="st0" d="M801.82,995.81c-32.02,2.95-19.97-20.67-17.84-40.83.63-5.99-2.47-22.78,3.3-24.69,4.95-1.07,20.61-.45,22.45,4.99,5.16,15.2-5.15,44.72-7.91,60.53Z"/>
  <path class="st0" d="M984.03,604c-11.91-23.04-5.97-19.71,8.93-32.04,5.72-4.73,25.06-24.52,29.93-24.06,5.91.56,13.99,13.2,13.19,18.97-1.19,8.52-48.38,39.95-52.05,37.12Z"/>
  <path class="st0" d="M1276.26,1582.26c6.05-3.93,52.39,3.66,60.38,8.11,1.83,1.02,3.58,1.53,3,4.18-2.42,26.21-24.2,15.51-42.66,13.47-22.05-2.43-31.09,5.07-20.72-25.76Z"/>
  <path class="st0" d="M1235.98,1196c-9.29,5.03-19.68,13.31-30.96,12.06-2.89-.32-3.53.9-2.97-3l9.99-20.03c17.76-2.85,26.11-11.92,36.96-25,3.92,3.23,2.84,8.49,5.24,12.72,4.55,8.02,12.31,7.93,8.84,21.28-3.76,14.47-28.71,18.96-27.1,1.97Z"/>
  <path class="st0" d="M1397.96,1238.02l-3.97.99c.37,4.35-.05,8.46-1.36,12.62-1.51,4.76-8.49,22.18-14.53,18.31l-7.74-21.28c10.78-14.22,10.51-27.4,9.65-44.65,5.68-1.85,7.79,4.54,11.38,5.6,9.54,2.83,22.84-3.47,24.61,15.6.71,7.71-15.24,28.43-18.03,12.81Z"/>
  <path class="st0" d="M1187.99,1036.01c1.14,5.72-4.47,8.65-5.59,13.39-1.22,5.19.74,12.58-2.24,17.26-.98,1.54-13.08,7.18-15.16,7.19-5.45.03-19.66-12.57-16.71-17.61l5.72-4.23c-6.29.43-30.72-7.17-31.99-13.05-.84-3.89,18.42-10.84,21.01-10.85,3.87,0,15.91,8.71,24.15,9.7,7.64.92,13.54-.66,20.82-1.82Z"/>
  <path class="st0" d="M1531.99,840.01c2.06,2.19-6.72,22.05-8.96,24.02-3.28,2.89-7.52,1.46-11.04,2.96-11.75,4.98-16.43,9.99-23.95,20.06l-5.08-1c.25-16.55-17.4-14.87-10.51-32.6,4.81-12.39,17.21-12.34,27.12-6.51l-.57,7.06c9.76-7.03,20.69-13.2,33-13.98Z"/>
  <path class="st0" d="M1207.61,868.41l6.71,20.27,17.66,18.29c-1.81,3.74-9.54,2.87-13.47,4.54-4.97,2.12-8.54,10.12-13.41,10.39-2.6.14-15.85-5.08-17.1-7.4-1.55-2.87-3.07-19.44-2.01-20.51l12-.98c-9.08-8.35-14.26-20.73-13.98-33l23.6,8.4Z"/>
  <path class="st0" d="M1548.01,1156.01h-10.01c7.78,9.89,12.99,21.26,13.99,33.98-1.58.2-3.04,0-4.61-.36-1.37-.32-18.13-7.41-18.9-8.1-2.08-1.84-3.85-15.21-6.78-20.24-2.15-3.69-20.37-18.72-17.7-21.28,18.54,1.62,16.11-16.42,35.09-10.09,14.35,4.78,7.58,13.66,8.91,26.09Z"/>
  <path class="st0" d="M1580,997.98c12.28-.89,25.22,4.68,33.96,13.02-1.49,2.15-3.72,2.94-5.95,4.01-2.01.97-16.12,6.29-17.03,6.28-2.72-.03-11.7-7.66-18.46-8.81-8.54-1.45-17.85.04-26.51-.49.63-5.83,6.29-9.48,7.54-15.43,2.19-10.4-4.02-14.19,9.36-18.62,14.78-4.9,15.37,1.98,25.05,11.06l-7.96,8.98Z"/>
  <path class="st0" d="M1355.97,778.01c-.21,6.29,8.08,18.41,7.95,23.02-.07,2.59-7.74,13.4-9.02,20.86-1.66,9.7-.16,12.56,1.03,21.22,1,7.3-10.81-2.76-14.26-3.77-9.16-2.69-14.64,1.84-20.05-7.94-7.73-13.99,1.36-16.87,9.57-27.31l8.79,7.9c1.2-11.11,4.46-22.54,11.44-31.46,1.28-1.63-.04-3.66,4.55-2.52Z"/>
  <path class="st0" d="M879.99,1327.98c-2.39,3.54-48.43,5.2-54.98,4.01-10.91-1.98,5.35-16.56.98-26,1.64-1.73,20.52,1.39,24.71,1.32,3.74-.06,9.53-3.62,12.12-3,1.45.35,19.3,20.5,17.17,23.67Z"/>
  <path class="st0" d="M1060,481c.08-.54,2.42-5.25,2.99-4.99,5.82,8.13,14.53,4.11,22.14,7.85,2.56,12.13-3.36,23.45,2.17,35.22-6.22,3.44-20.75,27.66-24.88,13.48-.34-1.16-2.42-12.88-2.42-13.57,0-11.17-1.51-27.75,0-38Z"/>
  <path class="st0" d="M811.55,864.5c1.4,5.14,2.76,29.93-4.25,29.26-5.51-.53-37.33-30.94-41.32-36.74-1.17-1.69-2.79-1.97-1.96-5.02,9.33,3.47,16.71-11.38,22.63-9.83,4.11,1.08,15.55,22.49,24.9,22.32Z"/>
  <path class="st0" d="M1914,718l-5.9,25.16-35.19.99-18.9-19.19c-1.04-3.23,7.54-6.96,8.98-6.96h51Z"/>
  <path class="st0" d="M1924.01,1155.99c2.18-.04,4.43-.3,6.57.42,4.78,1.62,33.86,29.39,37.46,34.55,5.56,7.96-13.68,8.83-17.31,16.89l-28.53-25.16,1.81-26.7Z"/>
  <path class="st0" d="M1236,1580.01c7.1,7.15-33.55,41.9-39,47.95-4.67-7-3.92-14.87-12.05-19.92-1.99-4.52,22.94-21.69,24.92-29.02l26.13.99Z"/>
  <path class="st0" d="M1674,1572l-25.15-7.94c3.67-6.4-1.87-36.43-.6-37.84.49-.54,4.64-.38,6.81-2.09,3.4-2.68,9.39-18.14,15.88-10.06.47.59,3.06,6.55,3.06,6.93v51Z"/>
  <path class="st0" d="M1539.98,422c-2.25,7.63,12.51,19,9.74,23.75l-23.73,23.37-27.99-1.12c-.7-3.03.68-4.7,1.85-7.13,2.19-4.54,21.56-25.17,26.34-29.66,1.7-1.6,12.33-10.58,13.78-9.21Z"/>
  <path class="st0" d="M827.96,1402.02l11.9,18.98c-3.64,8.83-7.77,17.44-11.69,26.15-.82,1.81,1.24,3.6-3.18,2.89l-18.98-11.03c10.77-10.19,28.71-19.1,17.96-35.98l3.99-1.02Z"/>
  <path class="st0" d="M715.73,931.73l-33.72,10.28-4-22c18.27,3.57,28.95,4.52,39.97-12.01l-2.25,23.73Z"/>
  <path class="st0" d="M1471.99,336.01c1.74,1.74-7.6,22.36,2.95,32.05,3.08,2.83,8.3,2.44,9.05,5.92-6.32-.85-18.32,2.12-23.19-1.78-1.72-1.37-12.1-32.91-10.8-34.19l22-2Z"/>
  <path class="st0" d="M1746.02,1568c-2.64-3.12,14.07-14.75,17.08-16.11l30.86,15.09-12.95,18.97c-8.73-11.52-18.83-28.89-34.98-17.96Z"/>
  <path class="st0" d="M2055.99,1127.99c-11.78,1.47-19.81-5.25-30.09,2.91-3.7,2.93-4.34,7.53-7.88,9.09l2.46-23.52c8.71.45,22.54-9.54,28.89-10.17,6.68-.66,4.49,16.59,6.62,21.69Z"/>
  <path class="st0" d="M990,482.02l-18.99,15.28-29.07-14.37,11.08-18.95c5.06.02,10.28,14.39,16.39,17.6,7.2,3.79,13.23,2.32,20.59.44Z"/>
  <path class="st0" d="M1909.98,646l-15.65-17.33,13.69-30.66,19.94,12.99c-11.58,10.72-25.51,16.32-17.98,35Z"/>
  <path class="st0" d="M1285.99,1709.99l-21.98,4c-1.13-11.32,4.81-21.97-3.02-31.98-3.94-5.04-9.88-1.76-8.98-8l22.08,2.9,11.9,33.08Z"/>
  <path class="st0" d="M1498.01,1316.01c6.05-5.44,72.04,40.39,7.97,25.01l-7.97-25.01Z"/>
  <path class="st0" d="M1252.02,1324c4.86-4.59,8.55,14.15,9,15.98,8.47,34.22-4.77,32.8-19.09,6.87l10.08-22.85Z"/>
  <path class="st0" d="M1075.99,1156.01c3.52,3.54-17.33,34.64-25,35.94-4.76-.24-3.73-22.07-.78-26.74,3.78-5.98,18.76-5.91,25.78-9.2Z"/>
  <path class="st0" d="M1685.99,858.01l-1.78,27.2-26.2,8.78c-2.28-2.17,17.82-39.52,27.98-35.98Z"/>
  <path class="st0" d="M1709.99,1130.02c2.02,2.87-14.97,18.98-19.44,19.67l-24.54-12.7c6.04-4.77,40.01-12.61,43.98-6.97Z"/>
  <path class="st0" d="M1475.03,682.01c22.7,13.36,17.81,24.64,5.97,43.95-7.36-4.83-13.31-42.41-5.97-43.95Z"/>
  <path class="st0" d="M1229.53,708.49l5.46,25.53c-13.33-5.51-26.94-12.78-34.94-25.02-.04-4.58,25.54-4.08,29.49-.51Z"/>
  <path class="st0" d="M1068.01,908.01l-.07,5.89c-13.92,4.06-27.19,7.56-41.93,6.09-3.22-3.14,12.21-18.7,15.43-19.65,10.39-3.06,16.04,9.57,26.57,7.67Z"/>
  <path class="st0" d="M1034.01,257.99c-2.25-2.06,7.34-10.51,9.03-11.95,4-3.39,15.57-11.92,19.91-14.12,1.94-.99,1.59-3.31,4.03.09,1.64,4.02,5.38,11.9,1.05,15.03l-34.02,10.95Z"/>
  <path class="st0" d="M588.02,718c-.38-10.88.24-22.01,2.29-32.7.57-2.95.45-10.19,4.46-9.1,3.23.88,11.18,4.92,11.26,8.72l-18.01,33.08Z"/>
  <path class="st0" d="M1060,1800.02c3.08,2.79-.23,3.61-2.96,3.97-6.88.92-27.75-1.34-34.26-3.78-2.28-.85-3.29,1.13-2.78-3.15,2.94-24.44,27.31,3.73,40,2.96Z"/>
  <path class="st0" d="M589.86,1322.14l12.13,35.84c-2.14,2.21-13.43-10.11-15.02-11.96-2.71-3.13-15.06-19.5-12.98-22l15.87-1.88Z"/>
  <path class="st0" d="M2143.99,1372c-1.56,1.66-15.4-4.51-15.97-7.12l17.96-34.87c4.21,14.47-2.9,27.35-1.99,41.98Z"/>
  <path class="st0" d="M2162,723.98l-13.09,4.05-3.95-1.99-10.94-36.04c12.09,8.7,20.29,21.49,27.98,33.98Z"/>
  <path class="st0" d="M1699.99,1792.01c2.22,2.07-5.46,8.52-7.05,9.93-3.13,2.79-22.62,17.74-24.91,16.06l-3.21-14.07,35.17-11.92Z"/>
  <path class="st0" d="M1674.01,247.97c.16-3.24,8.62-3.83,10.76-3.76,4.01.12,31.03,4.26,31.17,6.77l-8.93,12.62-33.01-15.64Z"/>
</svg>