<?xml version="1.0" encoding="UTF-8"?>
<svg id="Layer_0_xA0_Image" xmlns="http://www.w3.org/2000/svg" version="1.1" viewBox="0 0 2732 2048">
  <!-- Generator: Adobe Illustrator 30.2.1, SVG Export Plug-In . SVG Version: 2.1.1 Build 1)  -->
  <defs>
    <style>
      .st0 {
        fill: #547b80;
      }
    </style>
  </defs>
  <path class="st0" d="M1012,2047.91c-4.27-.37-11.72-3.97-18.01-1.99,1.22-14.62-2.04-31.88.89-46.12,1.81-8.76,11.34-21.63,16.28-29.71,11.76-19.21,25.24-38.21,38.83-56.17v36l51.99,2.99-87.99,95.01c-.66-.05-1.34.06-2,0Z"/>
  <polygon class="st0" points="1046 2047.91 1181.98 1967.91 1153.73 2045.64 1136.83 2045.83 1132 2047.91 1046 2047.91"/>
  <polygon class="st0" points="1690 0 1552.02 82 1581.92 2.92 1665.24 2.15 1672 0 1690 0"/>
  <path class="st0" d="M1364,2047.91l-4.84-2.08-33.16.08v-79c0-.7,2.34-3.14,2.15-4.92l2.67-.05c16.89,4.28,34.11,8.62,49.34,17.3,2.67,22.44,3.29,45.85,3.85,68.66h-20Z"/>
  <path class="st0" d="M1424,2047.91c-.29-.02-2.26-1.92-4.84-2.08-8.93-.55-18.05.79-26.95-.14l-3.19-63.81,66.83,26.2-15.85,39.83c-5.29-.2-10.72.28-16,0Z"/>
  <path class="st0" d="M1478,2047.91h-24c-4.06-3.89,7.6-25.98,9-25.96l15,25.96Z"/>
  <path class="st0" d="M1338,643.97l52.11,16.89,63.68,150.06c-11.59,26.35-20.5,56.99-33.38,82.46-.73,1.45-2.3,5.47-4.43,3.62-10.27-20.54-26.81-41.56-35.51-62.51-10.6-25.5-35.32-96.47-40.01-121.98-.7-3.82-2.46-18.53-2.46-21.53v-47Z"/>
  <path class="st0" d="M986,1053.95l16.5-51.5,152.5-64.35,83.86,33.89.18,4c-20.08,11.45-41.28,26.55-62.51,35.49-23.77,10-119.97,42.47-141.52,42.47h-49Z"/>
  <path class="st0" d="M1579.53,935.47c-27.16,7.96-56.32,26.74-82.93,34.1-2.92.81-5.38,1.55-4.58-2.56,7.58-21.65,10.73-45.69,19.02-67.01,11.99-30.85,52.28-109.5,72.91-133.08,3.68-4.2,30.69-31.5,33.01-30.95,5.1,10.15,24.01,39.05,23.03,48.81l-60.46,150.71Z"/>
  <path class="st0" d="M1244,1077.97c-7.86,21.6-10.93,46.66-19.02,67.95-12.22,32.13-52.35,111.52-73.95,136.05-9.9,11.24-21.92,20.85-32.03,31.93l-24.63-48.46,60.15-150.98,89.49-36.49Z"/>
  <path class="st0" d="M1748,995.96l-17.18,51.82-149.8,63.36-85.99-35.19c-2.42-.12,0-2.16.93-3.03,7.22-6.71,47.72-29.36,58.04-33.96,18.73-8.33,123.18-43,139-43h55Z"/>
  <path class="st0" d="M1655.99,1275.92l-48.5,21.68-149.36-60.77-36.11-88.87c22.01,8.36,47.59,11.29,69.37,19.61,27.71,10.59,108.54,52.18,129.67,70.33,7.23,6.21,28.18,26.08,32.97,33.02,1.17,1.69,2.79,1.98,1.97,5Z"/>
  <path class="st0" d="M1396,1405.94c-11-5.4-45.06-10.79-51.74-19.26l-63.51-149.74,37.26-86.01c11.41,21.48,28.67,44.02,37.54,66.47,7.78,19.69,40.45,116.07,40.45,131.55v57Z"/>
  <path class="st0" d="M1314,899.94c-24.32-6.61-52.91-11.08-75.97-21.01-31.32-13.5-101.02-47.86-125.09-68.91-12.44-10.88-23.53-24.1-34.94-36.03l46.99-23.27,151.83,61.42,37.17,87.8Z"/>
  <path class="st0" d="M893.96,643.98l77.76,115.33-64.67,63.97-17.04-8.33-71.84-98.28c-.65-3.62,44.29-46.76,50.78-52.76,4.79-4.43,15.58-14.94,20.01-17.99,1.68-1.16,2.09-2.73,5.01-1.94Z"/>
  <path class="st0" d="M1842.04,1405.94l-78.1-115.14c-.56-2.53.8-4.01,1.96-5.96,3.36-5.65,27.5-27.79,34.08-33.92,3.63-3.38,27.06-24.9,28.97-24.93l15.1,6.91,72.03,100.04-74.04,73Z"/>
  <polygon class="st0" points="1552 1491.93 1556.94 1508.09 1538 1631.93 1437 1631.93 1434.39 1627.42 1461 1491.93 1552 1491.93"/>
  <path class="st0" d="M760,1094.95l3.32-2.78,136.8,25c-2.6,27.17,3.04,59.37,0,85.88-1.07,9.31-11.2,9.97-19.01,10.95l-117.77-18.39-3.33-2.67v-98Z"/>
  <path class="st0" d="M1300,417.98l-26.9,140.12c-11.92-1.9-85.92,2.93-90.11-2.12-1.94-2.34-5.15-13.35-5.08-16.89l18.46-117.74,2.63-3.37h101Z"/>
  <polygon class="st0" points="1574.59 548.54 1675.35 476.26 1747.91 548.76 1632.95 627.95 1568.32 563.35 1574.59 548.54"/>
  <path class="st0" d="M1101.35,1420.22l62.77,60.62c4.54,5.69-.3,12.02-3.26,16.96l-101.88,75.8-72.95-72.66,115.31-80.72Z"/>
  <path class="st0" d="M1974,853.96v104l-138.08-24.92c-2.19-1.5-1.74-3.79-2.02-5.98-1.99-15.84-1.93-64.26-.02-80.21,1.03-8.64,9.66-9.77,17.05-11.88l123.07,19Z"/>
  <path class="st0" d="M1056,1941.91v-87c0-.86,3.13-3.35,4.79-2.89l124.37,21.73c8.39,6.84,52.25,52.26,52.68,59.01.22,3.45-2.23,13.55-6.82,13.17l-175.03-4.02Z"/>
  <path class="st0" d="M2196,1335.94l21.11-129.89c8.67-8.19,49.73-50.55,58.11-51.53,3.24-.38,8.64,1.88,12.43,1.78,5.23,8.29.47,16.38.28,24.57-1.24,51.76-.45,103.44-3.92,155.08h-88Z"/>
  <path class="st0" d="M939,156.03l61.08,62.97-1.94,4.12-102.02,71.99c-8.14,2.52-73.65-.94-79.28-4.95-2.54-1.8-4.1-7.35-6-10.08l.98-3.1,127.19-120.94Z"/>
  <path class="st0" d="M1841.28,1752.48l71.29,3.86c4.78.61,12.36,9.62,11.21,14.16l-128.51,121.26-61.19-62.64,107.2-76.65Z"/>
  <path class="st0" d="M2100.41,474.37c5.56-2.15,10.85-9.37,16.66-4.53l118.89,125.13-63.11,62.93-76.37-105.41c-1.59-26.06,1.8-52.19,3.93-78.12Z"/>
  <path class="st0" d="M1678,108v88l-129.89-21.1c-8.98-11-49.57-48.34-50.28-59.89-1.23-19.85,16.01-11.28,27.1-10.92,51.03,1.65,102.15.21,153.08,3.92Z"/>
  <path class="st0" d="M540,713.97l-21.51,127.49c-7.54,8.94-15.95,17.54-24.47,25.53-5.18,4.86-24.32,22.39-28.91,25.07-5.97,3.49-13.41,1.94-19.24-1.33l4.12-176.76h90Z"/>
  <path class="st0" d="M633.42,1575.36c-.85,1.03-9.2,5.89-10.41,5.91l-5.98-3.34-116.88-123.27,62.86-64.69,75.95,107.71c-2.12,14.3-.18,28.88-.98,43.23-.35,6.4-2.14,31.53-4.56,34.45Z"/>
  <path class="st0" d="M1008,26l83.83,39.17c9.55,9.21,83.28,74.01,82.09,79.61-6.89,8.39-36.65,24.67-45.91,22.38l-114.8-67.36c-2.16-1.5-5.2-9.01-5.2-10.8V26Z"/>
  <path class="st0" d="M368,1383.94l41.13-85.87,76.15-79.98c8.16-1.43,25.05,36.08,25.71,44.05l-68.81,118.5c-.74.81-8.47,3.3-9.17,3.3h-65Z"/>
  <path class="st0" d="M608.01,537.97c2.03,17.61-6.61,33.67-14.07,48.95l-135.8,34.08-50.12-48.04c-.69-4.25.7-2.35,2.74-3.16,27.7-11.04,58.38-18.93,86.41-29.64l110.84-2.18Z"/>
  <path class="st0" d="M1854,266c-3.18,3.13-44.76-9.17-48.9-16.11l-34.75-131.46,1.5-5.49,47.16-48.9,32.83,91.13,2.17,110.83Z"/>
  <path class="st0" d="M2328,1477.91c-33.33,7.6-69.04,29.55-102.92,32.1-23.09,1.73-48.66-.93-72.16-.16-8.53.28-17.74,3.79-26.93,2.08.56-17.59,6.12-34.81,15.17-49.84l130.14-34.08c6.18-.93,12.01,5.07,16.73,8.9,13.79,11.19,27.13,28.37,39.97,41Z"/>
  <path class="st0" d="M2365.99,663.98c.41,2.22-.27,4-.91,6.06-4.28,13.66-31.92,70.16-40.21,81.8-16.13,22.63-48.56,51.51-68.82,73.17-1.73,1.85-7.6,8.69-10.01,6.94-9.1-14.29-19.69-29.4-21.68-46.45l68.61-117.56,73.02-3.96Z"/>
  <path class="st0" d="M929.54,1796.38l34.65,134.56-2.09,6.09c-11.1,8.91-19.41,20.79-29.07,30.91-2.74,2.87-16.37,17.9-19,15.97-7.56-27.32-21.94-55.08-28.59-82.43-7.01-28.84-2.33-62.66-3.35-92.64-.27-7.96-3.69-16.37-2.09-24.92,18.21-2.58,32.89,7.54,49.55,12.46Z"/>
  <path class="st0" d="M1603.34,1880.27l120.82,70.48c3.92,5.36,1.42,44.07,1.76,54.24.22,6.66,5.24,14.1-.9,18.87l-88.84-45.12-76.14-73.82c11.97-12.31,28.2-17.46,43.31-24.64Z"/>
  <path class="st0" d="M1835.98,613.96l-85.35-193.03c.29-2.69,4.1-4,6.28-5.05,20.65-9.95,51.97-12.84,73.93-21.7l5.14,219.78Z"/>
  <path class="st0" d="M1523.74,1722.18c1.29,3.86-.55,7.15-1.95,10.55-8.21,19.93-25.91,41.16-34.08,61.9l-4.58,3.21-157.13-151.89,197.74,76.23Z"/>
  <polygon class="st0" points="1973.79 1408.1 1997.99 1489.92 1776.01 1493.91 1973.79 1408.1"/>
  <path class="st0" d="M955.99,556l-192.79,85.83c-6.54-1.49-21.29-71.83-27.21-81.82l219.99-4.01Z"/>
  <path class="st0" d="M902.02,1655.93l-3.02-222.01,85.01,193.1c-.08,4.48-4.31,4.97-7.48,6.45-21.47,10.04-52.15,12.84-74.51,22.46Z"/>
  <polygon class="st0" points="1410 403.96 1210.86 326.07 1249.98 250.94 1410 403.96"/>
  <polygon class="st0" points="2142 905.99 1990.02 1063.95 2064.12 868.08 2073.44 869.53 2142 905.99"/>
  <path class="st0" d="M594.08,1143.85l1.82-7,150.08-152.89-75.89,195.09c-1.54,1.08-3.26,1.06-5.04,1.06-12.87.06-54.55-33.18-70.96-36.26Z"/>
  <path class="st0" d="M1996,1075.93l150.99-158.15,3.12-1.04c7.18,3.89,9.23,5.98,10.02,14.09,1.43,14.63,1.87,54.19-.03,68.21-.3,2.2-.22,4.36-1.9,6.1l-162.19,70.79Z"/>
  <path class="st0" d="M1419.98,397.98l-158.11-150.91c-4.5-4.9,1.17-9.85,4.15-14.06l83.04.92,70.92,164.05Z"/>
  <path class="st0" d="M1772.01,1505.91c-.48-3.48,4.55-1.88,6.96-1.97,55.33-2.06,110.69-.72,166.1-1.92,8.32-.18,48.23-5.72,52.04-.21,2.4,3.47,1.15,11.48-1.01,15.24-2.79,4.85-28.08,28.46-34.08,33.92-3.15,2.86-21.12,18.77-22.93,18.87l-167.08-63.92Z"/>
  <path class="st0" d="M891.89,1653.82c-4.2-.49-9.16,2.46-12.86,2.11-5.57-.52-45.46-49-55.17-54.94l-1.75-3.97,64.91-167.11,4.89,223.91Z"/>
  <path class="st0" d="M1386.32,1815.59l-72.3-165.66,161.77,155.28c.4,2.41-6.99,12.91-10.82,12.68l-78.64-2.29Z"/>
  <path class="st0" d="M740,971.98l-150.96,158.14c-3.26,3.91-11.41-2.06-13.18-5.03-5.37-8.99,0-24.34.22-34.05.2-9.04-2.02-43.71,1.89-48.11l162.03-70.95Z"/>
  <path class="st0" d="M959.99,542l-16.9,4.06-203.85,2.04c-1.58-.43-3.43-9.16-3.25-11.09.74-7.82,50.67-49.37,58.97-58.35l165.03,63.35Z"/>
  <polygon class="st0" points="1849.98 617.96 1845.92 601.06 1843.96 395.13 1859.99 394.99 1913.32 450.93 1849.98 617.96"/>
  <path class="st0" d="M1742.98,1391.98c26.69,10.97,48.08,24.54,64.87,48.68l-106.86,105.23c-6.06-5.82-9.88-7.13-8.6-16.43,2.02-14.64,14.13-47.17,19.56-62.56,8.95-25.35,20.26-50.29,31.02-74.92Z"/>
  <path class="st0" d="M1974,1005.96l-1.99,152c-4.83-.41-10.95,1.67-15.04-1.98-2.02-1.8-19.15-34.44-22.01-39.99-15.98-30.95-27.49-63.86-42.91-95.05.13-1.9,33.05-14.98,34.95-14.98h47Z"/>
  <path class="st0" d="M993.98,655.98c-29.8-6.85-48.1-25.46-67.94-47.01l108.69-104.85c.99.17,7.86,6.78,8.33,7.9,1.49,3.58-16.06,58.56-19.02,66.98-9.12,25.93-21.94,50.64-30.06,76.97Z"/>
  <path class="st0" d="M1386,1629.93h-149c-4.06-2.91-4.08-9.74-2-14.02,1.71-3.51,52.42-29.94,60.28-33.7,24.2-11.56,50.04-20.05,74.1-32.02,2.47-.56,3.25,1.23,4.4,2.96.94,1.41,12.22,28.17,12.22,29.78v47Z"/>
  <path class="st0" d="M1350,417.98l150.01,1.99c-.18,5.98,1.88,13.29-4.07,16.94-42.65,24.55-87.85,43.48-132.97,63.03-.28-6.29-12.97-27.59-12.97-30.97v-51Z"/>
  <path class="st0" d="M1234,1554.93l69.04-66.95,34.97.94c5.95,8.95,28.24,33.71,26.15,43.74l-130.16,67.28v-45Z"/>
  <path class="st0" d="M1942,1157.95h-43l-66.96-67.04.37-38.55c10.41-3.61,30.49-25.4,40.56-24.51,2.34.21,3.84,1.22,4.79,3.36,21.25,42.14,49.02,82.15,64.24,126.75Z"/>
  <path class="st0" d="M997.84,1398.14c-4.34,30.16-26.47,47.69-46.84,67.76l-104.97-106.96,12.57-10.62c47.83,12.81,93.49,31.23,139.24,49.82Z"/>
  <path class="st0" d="M1783.28,584.13l103.84,103.86v3.96c-4.65,4.49-6.17,8.66-13.58,7.68-13.24-1.75-43.17-12.31-57.09-17.12-26.97-9.31-53.21-21.72-79.62-32.5,5.36-28.75,25.89-46.93,46.44-65.89Z"/>
  <path class="st0" d="M837,891.96l66.96,67.04c-1.29,9.6,2.78,29.86-1.84,37.57-2.05,3.42-37.67,26.4-42.89,25.55l-67.23-130.16h45Z"/>
  <path class="st0" d="M762,891.96l16.19,1.29c24.55,43.04,45,88.11,63.48,134.1,1.32,3.57-.37,2.17-2.22,3.04-3.56,1.68-26.92,11.56-28.45,11.56h-49v-149.99Z"/>
  <path class="st0" d="M1868,709.99c-8.99,7.89-23.65,32.58-34.89,34.08-26.76,3.57-62-2.53-89.69-.51l-27.24-28.44,11.02-47.3,140.81,42.17Z"/>
  <path class="st0" d="M1111.99,413.97l-144,2.01,12.02-76c38.91,10.52,78.12,21.03,115.86,35.13l16.12,38.86Z"/>
  <path class="st0" d="M1768,1633.93l-14.03,76c-37.93-12.91-77.52-21.32-114.76-36.21l-17.21-39.79h146Z"/>
  <path class="st0" d="M1723.74,1384.2c-6.92,30.32-15.63,61.38-25.21,91.26-4.47,13.95-9.71,33.26-16.11,45.94-.95,1.88.55,3.22-3.39,2.51l-30.62-31.39v-91.18s28.7-27.45,28.7-27.45l46.63,10.3Z"/>
  <polygon class="st0" points="758 1279.94 758 1423.94 681.97 1410.91 717.83 1295.24 758 1279.94"/>
  <path class="st0" d="M1978.02,769.96l-2.03-144,74.09,10.93,1.58,5.58-33.93,108.23c-5.52,8.76-30.23,13.4-39.71,19.26Z"/>
  <path class="st0" d="M2079.28,1174.1c3.04-.53,5.83,4.05,7.55,6.02,4.44,5.1,36.58,49.94,36.89,53.17.15,1.59-.35,2.7-1.53,3.74l-103.69,54.56-37.54-15.64,98.31-101.86Z"/>
  <path class="st0" d="M1007.79,1381.77c-46.62-14.05-95.78-24.22-139.75-44.83l29.37-30.59,93.19-1.99,27.44,28.69-10.25,48.72Z"/>
  <path class="st0" d="M1117,1635.97l100.93,101.09-60.95,44.79-56.61-105.38c-.54-3.98,14.43-40.53,16.63-40.51Z"/>
  <path class="st0" d="M756,771.99l-101.06,103.93-44.76-61.16c-1.05-3.86.71-2.28,2.37-3.23,32.91-18.86,67.24-35.78,100.95-53.19,12.28-2.38,29.89,12,42.49,13.66Z"/>
  <path class="st0" d="M1579.77,268.23c12.62,27.4,30.02,52.69,43.28,79.71,3.09,6.31,9.69,17.19,10.57,23.57,1.68,12.2-11.41,28-13.64,40.46l-103.94-100.99,58.02-41.96,5.72-.79Z"/>
  <path class="st0" d="M1500,449.98v45l-67.04,64.95-36.97-.94c-4.67-7.5-27.46-34.52-25.73-41.81,42.58-23.43,84.19-49.97,129.74-67.2Z"/>
  <path class="st0" d="M1055,524.02l30.59,31.37c1.26,23.19-.22,46.47.33,69.67.2,8.27,5.06,15.56.19,24.03-1.21,2.1-25.46,26.04-27.33,26.4-8.18-2.75-46.64-4.73-48.53-12.72,15.1-46.14,24.44-94.54,44.76-138.75Z"/>
  <path class="st0" d="M1405.73,1826.18l20.27,89.72c-32.35,8-61.72.56-94-2l20.26-87.73h53.47Z"/>
  <path class="st0" d="M1961.43,1566.21c5.97-1.61,66.26,41.59,76.58,46.76-14.96,29.79-42.26,44.71-67.02,64.92l-47.02-75c-.01-3.54,32.74-35.41,37.46-36.69Z"/>
  <path class="st0" d="M565.91,1008.04l-1.88,54.94-88.03,18.98c-7.77-31.67-.7-60.5,2.01-92.02l87.9,18.1Z"/>
  <path class="st0" d="M765.96,371.99l45.57,75.01-38.81,36.79-74.88-47c12.69-29.52,41.78-48.62,68.12-64.8Z"/>
  <path class="st0" d="M2257.98,965.95c1.05,11.46,6.19,25.62,6.09,36.91-.15,17.02-7.76,39.36-8.08,57.11l-87.73-20.28,2-53.46,87.72-20.27Z"/>
  <path class="st0" d="M1401.95,136.05l-18.9,85.99c-3.77,5.01-46.04-2.83-54.96-.14l-17.94-87.73c30.95-10.46,60.55-2.03,91.8,1.88Z"/>
  <path class="st0" d="M789.02,1580.28l38.5,38.62c-15.98,21.42-28.53,50.24-44.62,70.91-1.48,1.9-2.67,4.12-5.56,3.83s-24.89-16.73-28.13-19.94c-4.06-4.02-33.32-42.01-33.34-44.81l73.14-48.62Z"/>
  <path class="st0" d="M1956.99,354.17c28.11,16,44.79,40.75,62.64,66.84l-74.34,46.67-37.01-38.36,48.71-75.15Z"/>
  <polygon class="st0" points="1536 1645.94 1525.03 1711.9 1346 1639.95 1536 1645.94"/>
  <path class="st0" d="M2227.99,1605.94c.9,3.46-1.43,4-2.98,6-12.17,15.83-33.07,30.12-45.92,46.11l-4.13,1.88-92.95-28.04c-.45-2.28.08-3.87,1.03-5.92,1.64-3.57,31.79-39.13,34.35-39.72l110.6,19.68Z"/>
  <path class="st0" d="M653.99,418.01c.86,3.08-.87,3.33-1.98,4.98-4.92,7.32-22.79,29.43-28.91,35.08-1.89,1.74-3.29,3.74-6.19,3.9l-108.9-21.03,51.23-52.52,94.75,29.58Z"/>
  <polygon class="st0" points="1963.92 1399.84 1788 1475.91 1925.14 1346.01 1962.96 1393.99 1963.92 1399.84"/>
  <path class="st0" d="M946,573.99l-135.36,127.75c-2.85,1.1-3.73-.2-5.59-1.82-11.06-9.65-23.58-37.41-34.99-48.97l175.95-76.96Z"/>
  <path class="st0" d="M746.01,1191.96c-2.18,2.16-54.61-6.32-60.92-8.1-2.16-.61-3.69-.57-5.03-2.88l70.94-179.04-4.99,190.02Z"/>
  <polygon class="st0" points="2054 865.98 1984.02 1045.94 1990.01 855.97 2054 865.98"/>
  <path class="st0" d="M1387.99,406.01c.48,3.48-4.55,1.88-6.96,1.97-38.74,1.44-77.47-2.5-115.94-4.08-21.66-.89-43.47.34-65.09-1.91l8.02-64.01,179.98,68.02Z"/>
  <polygon class="st0" points="1488 2045.91 1444 1955.92 1499.07 1951.77 1564 2045.91 1488 2045.91"/>
  <polygon class="st0" points="992.03 1621.92 918.02 1447.94 1045.96 1582.93 992.03 1621.92"/>
  <polygon class="st0" points="1930.44 277.58 1951 164.03 2003.12 218.12 1974.12 309.12 1968 309.01 1930.44 277.58"/>
  <path class="st0" d="M346,1146.95c8.06-5.24,16.27-10.65,24.66-15.34,13.73-7.69,42.09-23.5,55.9-28.09,3.2-1.06,5.92-2.15,9.43-1.57l3.63,54.63-86.57,61.43-7.05,1.95v-73Z"/>
  <path class="st0" d="M785.99,1883.91c-3.46.9-4-1.43-6-2.98-15.83-12.17-30.13-33.07-46.12-45.92l-1.88-4.13c7.2-31.73,16.93-63.93,30.99-92.89l43.08,36.9-20.07,109.01Z"/>
  <path class="st0" d="M1815.98,599.97l-125.84-133.26c-.55-2.52,1.54-3.31,2.87-4.73,3.2-3.41,43.48-33.39,46.32-33.8,3.66-.53,5.18,4.62,6.42,7.05,22.83,44.97,48.81,105.57,67.22,152.78,1.49,3.83,3.32,7.7,3.02,11.96Z"/>
  <path class="st0" d="M2388,827.96v75l-86.95,45c-2.02-1.31-2.65-2.68-3.05-5-2.42-13.92.12-31.92-4.1-46.1l3.06-6.97,91.05-61.93Z"/>
  <path class="st0" d="M1172,4h73c8.82,8.66,46.62,80.92,44.91,86.78-.6,2.04-2.85,3.08-4.91,3.21-10.48-2.11-45.69,7.28-51.99,1.98l-61.01-91.97Z"/>
  <path class="st0" d="M514,1427.96l-24.07,26.98,34.07,36.98-125.1,6.12c-8.19-.57-12.27-9.49-16.63-15.48l35.18-34.18,96.55-20.43Z"/>
  <path class="st0" d="M1634,98l2.99-6.01L1718.89,3.89c3.42-3.51,21.27-2.09,22.82.4-2.56,13.73.97,37.87-2.62,49.81-1.65,5.5-43.89,70.19-49.43,76.57-1.79,2.07-1.91,4.18-5.67,3.33v-36h-50Z"/>
  <path class="st0" d="M963.99,169.98c-2.75,2.94-23.59-21.74-26.99-23.95l-36.98,33.96-6.18-127.06,13.56-12.72c2.49-.92,3.83.42,5.69,1.67,5.4,3.62,27.76,27.85,30.44,33.59,11.58,24.87,11.3,67.49,20.46,94.51Z"/>
  <path class="st0" d="M2294,1289.94l94.11,84.89c3.5,3.43,2.09,21.28-.39,22.83-16.32-.81-36.51,3.4-51.71-2.73l-80.01-52.99h38v-52Z"/>
  <path class="st0" d="M442,707.97l-2.99,49.99-91.12-82.88c-2.89-4.2-3.19-22.02-.02-24.23,1.59-.94,3.35-.89,5.12-1.06,3.43-.32,42.71,2.5,44.93,3.26,13.24,4.53,51.55,34.1,66.26,43.74,4.11,2.7,9.12,5.78,13.83,7.2.54.79-2.64,3.97-3,3.97h-33Z"/>
  <path class="st0" d="M2222,619.95l23.86-26.7c-.51-2.91-26.56-25.64-30.87-31.26-1.54-2.01-3.88-2.54-2.98-6,23.66-.82,47.39-1.14,71.07-1.93,12.1-.4,51.52-5.83,60.06-.22,3.81,2.5,6.4,10.24,10.78,13.14l-37.91,34.01-94.01,18.97Z"/>
  <path class="st0" d="M1772.01,1879.93l26.72,21.85,37.25-33.86,4.12,125.1c-.53,7.32-8.53,11.82-13.38,16.75-3.47.61-33.83-31.74-36.18-37.4l-18.53-92.44Z"/>
  <path class="st0" d="M1223.67,1642.25c1.12,26.7,4.29,53.91,2.33,80.71-.22,2.97,1.55,5.79-2.97,4.95l-100.47-100.95c2.78-5.47,12.64-24.91,18.38-25l82.73,40.28Z"/>
  <polygon class="st0" points="768 1419.94 768 1275.94 795.44 1270.28 798.98 1271.89 828.03 1360.89 768 1419.94"/>
  <polygon class="st0" points="1510 321.99 1612.03 422.95 1596.92 448.04 1510 404.98 1510 321.99"/>
  <path class="st0" d="M2069.99,1165.96l-98.03,103.12c-4.01,2.04-21.98-12.61-27.1-15.13l41.11-85.02,84.01-2.97Z"/>
  <polygon class="st0" points="1764 1623.93 1620 1623.93 1614.15 1592.07 1702.95 1563.9 1764 1623.93"/>
  <polygon class="st0" points="1967.74 771.7 1936.24 777.72 1906.38 688.57 1965.01 627.98 1967.74 771.7"/>
  <path class="st0" d="M1122,455.92l-90.73,29.66-59.27-59.58,140.74-1.76c4.8,1.64,7.02,25.84,9.26,31.68Z"/>
  <path class="st0" d="M664,881.96l100.95-101.97c5.11,2.21,24.98,12.71,25.06,16.88l-43.01,85.09h-83Z"/>
  <path class="st0" d="M1165.99,2043.9l33.9-87.09c7.13-6.53,29.8-.96,39.89-3.12l2.22-19.77c3.2-3.36,16.56,9.27,15.02,14.2l-25.98,95.84c-3.19,4.31-55.93,1.75-65.06-.06Z"/>
  <path class="st0" d="M435.48,856.47c5.42,5.69,1.15,32.7,2.51,41.5l20.01,2c1.93,2.16-8.92,12.92-11.44,13.65-11.5,3.35-82.92-24.97-100.35-25.87.31-16.85-1.15-34.05-.25-50.89.14-2.56.58-14.76,3.03-14.86l86.5,34.45Z"/>
  <path class="st0" d="M2229.9,447.87l-83.05,36.08c-10.1.69-23.63-18.98-30.11-25.86l-20.73,11.88.41-19.58,88.95-50.09c1.66-.42,2.49.73,3.67,1.51,3.42,2.26,36.86,35.71,39.06,39.07,1.52,2.33,2.65,4.06,1.8,6.99Z"/>
  <path class="st0" d="M637.99,1579.94l-.32,19.67-88.7,49.84-44.96-44.55c-1.28-3.08,10.38-7.29,13.26-8.7,12.14-5.94,59.97-28.89,69.9-30.22,14.9-1.99,20.63,19.09,32.09,25.8l18.71-11.85Z"/>
  <path class="st0" d="M811.99,295.98c-6.62-.59-15.06,2.26-20.1-2.88l-49.55-86.12,44.79-44.89c3.07-.69,4.16,2.51,5.28,4.5,12.81,22.79,20.94,53.07,33.53,76.59,4.8,11.07-25.02,28.31-25.46,33.79l11.5,19.02Z"/>
  <path class="st0" d="M1944.02,1887.92l-36.05-85.18c-.49-8.02,21.36-22.32,25.72-30.1l-11.69-18.69,21.02,1.95,48.7,85.36c.41,1.67-.77,2.52-1.56,3.7-2.91,4.39-36.51,37.78-41.14,40.98-1.69,1.17-1.97,2.78-5.01,1.97Z"/>
  <path class="st0" d="M1570,4l-33.88,87.12c-5.46,6.24-33.06,1.31-42.13,2.86l-3.01,22.03c-4-.09-15.25-11.47-12.9-16.72l25.92-95.3h66Z"/>
  <path class="st0" d="M1257,221.99l-38.99-51.96c10.38-3.52,17.72-12.85,27.52-17.51,5.2-2.47,50.48-16.88,53.45-16.56l19.03,86.03h-61Z"/>
  <polygon class="st0" points="2388 1159.95 2388 1225.95 2300.47 1193.48 2297.78 1152.16 2275.98 1148.93 2290.57 1134.39 2388 1159.95"/>
  <path class="st0" d="M763.99,490.01c.79,2.91-.78,3.33-1.94,5.01-2.95,4.28-39.02,39.33-41.96,40.11l-62.09-7.17c3.26-31.14,17.37-57.39,32.98-83.92l73.01,45.97Z"/>
  <path class="st0" d="M2170,975.96v-61c13.38-10.44,30.83-28.85,44.92-37.08,1.96-1.15,2.93-2.67,5.82-1.79,1.52.46,16.65,22.5,18.26,25.88,2.36,4.98,17.03,48.19,16.98,51.13-.04,2.51-.92,3.85-3.38,4.46l-82.59,18.4Z"/>
  <path class="st0" d="M2045.97,1603.93l-75.93-46.99,43.38-42.6c4.05-1.23,50.16,4.26,57.56,5.62,2.31.43,4.07.69,4.87,3.26-.24,31.52-18.77,53.12-29.87,80.71Z"/>
  <path class="st0" d="M835.22,1628.02l42.42,43.34-5.63,57.56c-.11,2.03-1.1,4.27-3.15,4.76-1.7.41-30.44-6.03-34.26-7.34-5.03-1.73-45.99-22.95-46.56-25.54l47.2-72.78Z"/>
  <path class="st0" d="M1901.97,421.98c-3.02.82-3.31-.8-5-1.97-13.62-9.42-26.7-32.27-40.5-43.25l7.52-60.78c30.14,1.09,56.77,16.06,81.84,31.32l-43.87,74.69Z"/>
  <path class="st0" d="M565.99,1073.96l-2.43,63.57-49.61,35.56c-20.14-22.6-26.43-50.98-35.12-79.21l87.16-19.92Z"/>
  <path class="st0" d="M1515.77,1879.68c-24.4,18.32-51.19,25.01-79.74,34.23l-18.04-88.01,62.03,2.99c8.31,14.35,27.14,29.78,34.13,43.86,1.02,2.05,2.98,4.59,1.62,6.92Z"/>
  <polygon class="st0" points="2152 1333.92 2119.47 1335.47 2032.01 1298.95 2128.79 1250.03 2152 1333.92"/>
  <path class="st0" d="M2030,747.95l34.03-103.97,75.98,45.03c.28,1.18-13.04,17.23-14.93,19.04-8.59,8.19-69.53,32.02-84.54,37.46-3.41,1.24-6.76,2.83-10.54,2.44Z"/>
  <path class="st0" d="M1142,1787.9l-83.99,20.03-1.13-32.13,35.14-87.87c2.45.17,3.27,2.84,4.37,4.61,5.9,9.45,49.12,91.4,45.61,95.37Z"/>
  <path class="st0" d="M703.98,1299.94c-6,24.64-13.2,49.23-21.94,73.03-1.93,5.25-10.01,30.09-13.24,30.84l-74.76-44.87,21.25-22.71,88.69-36.29Z"/>
  <path class="st0" d="M1703.96,1797.92c-9.74-5.53-17.23-14.06-24.79-22.17l-35.16-87.82,103.94,34.98-43.99,75.01Z"/>
  <polygon class="st0" points="1091.98 361.98 988 327.96 1033 252.02 1056.42 274.57 1091.98 361.98"/>
  <polygon class="st0" points="1678 241.99 1678 274.99 1641 359.94 1591.95 263.06 1678 241.99"/>
  <path class="st0" d="M619,713.97c11.28,2.34,67.12,27.38,80.07,33.92,1.89.96,4.74,1.26,4.92,4.05l-98.97,48.05-21.03-86.03c10.28,1.44,25.47-1.97,35,0Z"/>
  <path class="st0" d="M1458,223.99h-64l19.08-84.05c29.05,3.14,50.88,20.14,74.06,36l-29.14,48.05Z"/>
  <path class="st0" d="M708.03,1617.93c-3.71-11.15-11.76-20.37-15.48-31.54-4.98-14.94-6.14-33.12-10.56-48.44l56.56-9.72,43.45,44.67-73.98,45.03Z"/>
  <path class="st0" d="M2027.91,432.06c1.94,10.01,10.24,18.46,13.58,27.43,1.91,5.12,11.19,46.7,10.37,49.22-.93,2.86-2.9,2.43-4.95,3.18-4.32,1.57-48.59,9.9-51.01,8.99-9.68-13.03-31.63-27.21-39.99-39.79-1.27-1.92-2.44-3.44-2.04-5.95l74.05-43.08Z"/>
  <path class="st0" d="M2168,1052.95l4.13-2.24,80.01,20.47c-3.07,28.11-21.44,48.81-34.43,72.5-5.86,3.41-42.01-26.73-49.7-30.73v-60Z"/>
  <path class="st0" d="M854,339.98l9.71,54.56-44.64,43.44-45.02-71.01c23.14-18.21,51.58-22.73,79.95-26.99Z"/>
  <path class="st0" d="M1882.02,1709.93l-10.92-56.11,43.9-43.86,44.84,72.76c-22.83,18.58-50.32,20.44-77.82,27.21Z"/>
  <path class="st0" d="M566,997.96l-83.62-20.92c4.51-28.81,22.13-48.55,35.65-73.07l47.96,30.99v63Z"/>
  <path class="st0" d="M1342,1825.92l-21.04,84.03c-27.79-5.98-50.69-20.13-72.84-37.32l30.88-46.71h63Z"/>
  <polygon class="st0" points="1557.51 1112.45 1601.99 1209.94 1500 1161.92 1526.03 1099.95 1557.51 1112.45"/>
  <path class="st0" d="M1427.75,1192.2l11.3,29.93c-13.57,30.45-21.29,67.06-34.85,96.99-1.07,2.35.95,3.61-4.17,2.81l-33.86-106.71,3.19-2.95,58.4-20.08Z"/>
  <polygon class="st0" points="1554 789.98 1504.08 891.09 1444.13 865.81 1456.08 835.04 1554 789.98"/>
  <polygon class="st0" points="1332.03 725.98 1369.55 833.03 1309.12 857.91 1296.06 827.17 1332.03 725.98"/>
  <path class="st0" d="M1177.98,1021.95l21.98,59.14c-.18,5.83-26.75,15.47-32.44,14.51l-97.51-35.67,107.97-37.98Z"/>
  <polygon class="st0" points="1664 987.98 1661.45 992.43 1557.15 1026.1 1533.99 963.98 1566.76 954.05 1664 987.98"/>
  <path class="st0" d="M436,1251.96c-9.52,14.26-27.94,28.3-36.83,42.15-15.05,23.46-25.44,62.17-41.5,84.5-17.78,24.72-9.85-32.2-9.7-37.69.7-25.1-.07-50.08,2.91-75.09l85.11-13.86Z"/>
  <path class="st0" d="M1867.96,203.97l-3.97-.99c-.95-16.83.37-38.87-2.87-55.11-2.59-13-12.73-33.11-17.19-46.8-2.57-7.89-13.46-39.12-13.53-44.46-.04-3.15,2.5-4.97,4.86-6.5l80.43,85.24-47.72,68.62Z"/>
  <path class="st0" d="M1180,1259.92l50.16-101.84,60.98,25.78c1.05,1.76-10.37,29.1-14.42,31.81l-96.73,44.25Z"/>
  <path class="st0" d="M1132,837.98l101.15,49.96-25.14,59.16c-2.97,1.88-27.67-8.52-30.94-13.22l-45.07-95.9Z"/>
  <path class="st0" d="M545.99,527.97l-52.51,2.49-94.92,31.15-6.04-6.68,84.77-78.66c3.93-.76,58.84,40.14,65.35,46.06,1.95,1.78,4.29,1.8,3.35,5.63Z"/>
  <path class="st0" d="M2383.53,783.47c-2.89,3.26-73.73,13.47-83.52,11.5l34.87-39.13,43.34-86.65c2.81-5.21,11.4-4.68,11.84,1.76l-6.53,112.52Z"/>
  <polygon class="st0" points="1725.67 2036.23 1726.01 2045.92 1608.28 2041.64 1596.02 1957.91 1635.33 1991.58 1725.67 2036.23"/>
  <path class="st0" d="M1127.72,8.29l12.26,83.71c-14.5-7.97-26.23-24.73-39.31-33.67-23.54-16.08-59.75-26-84.06-41.94-6.08-3.99-11.73-7.52-5.32-14.55l116.42,6.45Z"/>
  <polygon class="st0" points="2188 1521.95 2238.88 1519.81 2336.55 1488.23 2341.89 1493.18 2256.9 1572.03 2249.67 1569.24 2188 1521.95"/>
  <path class="st0" d="M868.03,1843.93l3.95,23c-6.13,41.57,26.73,83.7,31.68,122.52.68,5.31-.45,7.16-4.66,10.42l-79.06-85.03c-.37-2.98,1.07-5.18,2.35-7.65,10.74-20.69,34.89-41.68,45.73-63.26Z"/>
  <polygon class="st0" points="724 965.96 576 1031.95 576 968.96 579 965.96 724 965.96"/>
  <path class="st0" d="M1374,1815.92h-61c-1.98-1.26-2.59-2.76-3-5-2.59-14.14.55-40.09.08-56.08-.14-4.73-2.11-9.11-2.16-13.83-.28-23.79-.53-47.64,3.08-71.1l63,146.01Z"/>
  <polygon class="st0" points="1864.02 609.97 1922.97 460 1965.86 506.7 1864.02 609.97"/>
  <polygon class="st0" points="871.98 1437.94 815.57 1584.5 811.05 1587.91 768.04 1542.93 871.98 1437.94"/>
  <polygon class="st0" points="1426 379.98 1360 233.99 1423 233.99 1426 236.99 1426 379.98"/>
  <path class="st0" d="M952,527.96l-147.98-58.95c7.64-5.78,39.82-44.06,46.69-42.72l101.29,101.67Z"/>
  <path class="st0" d="M2158,1017.95v64c-48.01-2.43-96.42,6.61-144.02-1l144.02-63Z"/>
  <path class="st0" d="M1932,1577.95c-5.91,6.39-42.26,45.87-47.02,45.49l-100.97-101.49,147.99,56Z"/>
  <polygon class="st0" points="961.98 521.98 858.08 416.98 899 376.02 961.98 521.98"/>
  <path class="st0" d="M1277.97,1253.95l54.03,129.97c-2.64,2.04-61.38-16.8-63.93-19.05-4.22-3.73-5.72-21.22-6.15-27.85-1.8-27.74.42-54.8,11.89-80.27,1.06-2.36-.95-3.62,4.16-2.8Z"/>
  <path class="st0" d="M1142,1121.97l-54.97,129.96-30.8-56.94c-.18-7.21,17.01-24.79,22.75-31.07,17.94-19.62,36.6-35.45,63.03-41.95Z"/>
  <path class="st0" d="M1487,233.99c1.59.21,4.28,2.77,6.94,2.08l-.32,4.5-57.62,141.42v-147.99c15.98,1.53,35.49-2.08,51,0Z"/>
  <path class="st0" d="M1456,1387.94l-49.55-36.41-.64-4.47,37.17-107.14c2.53-3.8,4.2.22,5.44,2.62,4.75,9.14,7.59,16.81,7.59,26.41v118.99Z"/>
  <path class="st0" d="M1255.99,979.97l1.04,78.02-45.78,19.83c-3.16-.97-24.79-58.8-23.01-61.62l67.74-36.23Z"/>
  <path class="st0" d="M1730,935.96c.59,3.18-.35,4.6-1.92,7.08-3.1,4.88-32.83,41.71-35.49,42.51-1.81.55-3.68.65-5.57.62l-107-38.23,26.04-13.14c2-1.31,4.19,1.17,4.94,1.17h119Z"/>
  <path class="st0" d="M1403.51,1136.45l18.49,45.47-59.13,21.99-4.65-3.19-36.23-64.75c12.94,1.92,75.17-6.89,81.51.48Z"/>
  <path class="st0" d="M1295.97,1173.95c-7.77-3.32-58.72-23.57-59.76-27.3l19.81-74.68,57.66,55.28-17.71,46.71Z"/>
  <path class="st0" d="M1595.99,1305.92c-17.26,5.02-39.95,25.22-56,29.19-6.28,1.55-11.3-2.44-16.04-6.12-8.55-6.65-35.66-33.57-41.95-42.05-2.53-3.42-19.38-35.48-17.98-36.99l131.98,55.97Z"/>
  <path class="st0" d="M1161.98,929.96l-29.36-12.63-84.62-89.35c12.95,1.34,56.29-10.57,65.16-4.17l48.82,106.15Z"/>
  <path class="st0" d="M1563.99,705.98c-1.02,14.06,10.13,52.42,4.11,63.09l-106.1,50.87c4.72-8.25,7-23.13,12.86-30.12,2.43-2.9,7.15-4.75,10.19-7.81,21.05-21.19,50.62-55.96,72.94-73.06,2.01-1.54,2.53-3.88,6-2.98Z"/>
  <path class="st0" d="M1271.99,1229.96c1.12,1.12-9.78,26.32-11.93,29.04-2.87,3.65-7.77,5.51-11.11,8.89-16.56,16.75-55.41,61.49-71.85,72.14-2.45,1.59-3.98,2.47-7.09,1.89,1.9-17.64-5.75-38.42-5.93-55.29-.02-2.29,0-4.08,1.79-5.78l106.11-50.9Z"/>
  <path class="st0" d="M1728,1061.97c-8.5,16.66-9.81,42.79-18.44,58.54-1.69,3.08-4.04,5.51-7.45,6.55-12.3,3.72-49.84,4.36-63.12,2.9-13.32-1.46-27.31-10.73-40.99-12.03-.94-4.6.51-3.2,2.56-4.48,4.31-2.71,12.77-5.45,18.1-7.84,27.53-12.33,74.08-35.12,101.33-42.67,2.68-.74,5.21-1.39,8.01-.97Z"/>
  <path class="st0" d="M1491.82,1155.78l-75.81-20.86c17.01-19.41,33.47-39.86,53.77-56.01l46.12,18.27-24.09,58.6Z"/>
  <path class="st0" d="M1601.39,1130.57c11.09,8.16,31.65,35.03,42.56,46.43,11.85,12.38,28.89,26.05,39.05,38.95,1.69,2.15,4.49,2.45,1.03,5.03l-56.99,6.98-6.16-3.91-48.87-103.11c1.06-2.78,3.99,0,5.56.44,4.29,1.18,21.03,7.15,23.81,9.2Z"/>
  <path class="st0" d="M1319.99,911.97l-53.44,57.69c-4.08,1.11-46.27-15.24-47.7-17.62l25.19-60.1,75.94,20.03Z"/>
  <polygon class="st0" points="1479.98 975.96 1472.9 974.05 1422.28 922.51 1438.12 876.08 1446.05 876.91 1499.08 901.86 1479.98 975.96"/>
  <path class="st0" d="M1594.02,927.96l52.97-131.98c7.87,15,24.65,37.14,29.46,52.54,1.46,4.67,2.32,6.43.69,11.54-.87,2.72-18.49,22.03-22.11,25.93-18.81,20.28-35.22,31.4-61.01,41.97Z"/>
  <path class="st0" d="M1412,913.96h-80c-.66-8.35-21.26-42.92-17.81-47.81l58.89-21.71,38.92,69.51Z"/>
  <polygon class="st0" points="1478 990.96 1525.98 969.95 1548.09 1030.82 1482.08 1069.09 1478 1066.95 1478 990.96"/>
  <path class="st0" d="M1154,1099.97c.94,4.6-.51,3.2-2.56,4.48-4.99,3.14-20.49,8.82-26.44,9.5-38.11,4.35-82.12-5.83-121-2.03l33.93-45.05,7.01-3.07,109.06,36.15Z"/>
  <path class="st0" d="M1459.97,795.95l-55.95-131.98,60.61,18.37c2.93,1.68,5.61,6.46,6.41,9.59,2.55,9.88,2.26,55.67.78,66.87-1.52,11.54-9.9,25.23-11.86,37.15Z"/>
  <path class="st0" d="M1327.55,696.39c3.29,5.73-1.72,18.48-3.52,24.61-8.59,29.22-23.04,57.09-31.56,86.42l-4.44,2.54c-2.15-8.99-8.95-17.67-10.08-26.94-4.68-38.23,6.23-83.86,2.07-123.05l47.53,36.42Z"/>
  <path class="st0" d="M1269.99,797.95c-36.28-14.69-73.45-27.99-109.33-43.65-5.27-2.3-13.85-5.16-18.11-7.83-2.05-1.28-3.51.11-2.54-4.47l56.95-28.1c2.85.14,5.58.88,8.2,1.93,4.62,1.85,42.61,39.43,46.84,45.14,2.45,3.31,19.46,35.54,17.99,36.98Z"/>
  <path class="st0" d="M864,1429.96l-103.27,103.83c-4.6.8-33.88-36.44-40.69-40.85l143.96-62.98Z"/>
  <polygon class="st0" points="2016 557.95 1870 619.95 1975 514.01 2016 557.95"/>
  <path class="st0" d="M1138,931.98l-129.98,55.96c-2.26-2.42,16.92-59.7,19.93-63.05,1.5-1.67,3.82-3.38,5.95-4.05,7.57-2.36,57.3-2,66.93-.73,11.56,1.53,25.23,9.92,37.17,11.85Z"/>
  <polygon class="st0" points="578 897.96 726 955.96 578 955.96 578 897.96"/>
  <polygon class="st0" points="423.99 839.95 346.96 810 344.02 701.98 423.99 839.95"/>
  <polygon class="st0" points="1834.03 1671.92 1772 1527.95 1875.86 1631.2 1839.03 1669.95 1834.03 1671.92"/>
  <polygon class="st0" points="831.98 227.98 796.54 150.97 871.98 74 831.98 227.98"/>
  <polygon class="st0" points="569.99 1559.96 492.95 1595.25 416 1519.95 569.99 1559.96"/>
  <path class="st0" d="M610,472l-48.98,51.62-73.98-55.68-3.03-5.92c7.99-1.1,9.75-11.82,18.85-10.13l107.13,20.11Z"/>
  <path class="st0" d="M814.01,1783.93c1.4-1.5,12.15,7.38,14.02,8.96,12.48,10.57,22.11,24.82,36.12,33.9l1.92,4.13-59.07,76.93-12.45-16.5,19.46-107.43Z"/>
  <path class="st0" d="M1919.98,265.98l-51.49-46.97,60.23-76.87c4.65,3.59,11.22,10.77,11.37,16.74l-20.11,107.09Z"/>
  <polygon class="st0" points="1864.02 1973.91 1902.99 1821.93 1937.59 1898.65 1864.02 1973.91"/>
  <polygon class="st0" points="441.99 1169.96 443.72 1239.66 346.01 1253.93 348.47 1232.41 441.99 1169.96"/>
  <path class="st0" d="M2158,1093.95v49c0,.51-1.84,10.62-4.88,8.9l-141.12-57.9h146Z"/>
  <polygon class="st0" points="2318 527.96 2168.79 490.18 2166.01 486.01 2242.58 454.24 2318 527.96"/>
  <path class="st0" d="M1222,97.98c-10.02.76-67.84,5-71.13.15l-12.86-94.12,21.13,1.85,62.86,92.12Z"/>
  <path class="st0" d="M2126.01,1577.92c-.9-3.47,1.44-4,2.98-6,4.82-6.28,16.04-17.88,21.98-24.01,3.45-3.56,20.85-22.14,23.65-21.71l75.31,58.6-14.78,12.97-109.14-19.84Z"/>
  <polygon class="st0" points="1584.01 1947.9 1596 2045.91 1575.04 2041.87 1514.03 1952.87 1516.96 1949.91 1584.01 1947.9"/>
  <polygon class="st0" points="2388.01 795.96 2387.58 815.56 2294.01 877.95 2292.02 807.98 2388.01 795.96"/>
  <path class="st0" d="M2311,1065.95c-1.08-.18-3.1-2.04-4.73-2.29-2.47-4.08,10.92-47.4,14.22-51.2,3.57-4.11,59.46-3.17,69.52-4.52l-2.01,58.01c-23.17-2.76-54.93,3.72-77,0Z"/>
  <polygon class="st0" points="2390 1237.94 2390 1345.94 2309.98 1208.97 2390 1237.94"/>
  <path class="st0" d="M2002.01,1713.96l48.68-23.62,51.16,46.31c-11.48,8.55-26,28.16-36.76,35.39-1.86,1.25-3.2,2.6-5.69,1.67l-57.39-59.75Z"/>
  <polygon class="st0" points="1298 1813.92 1240 1813.92 1298 1667.93 1298 1813.92"/>
  <path class="st0" d="M675.03,274.47l56.83,56.78c1.15,6.37-40.08,26.44-47.1,26.72-2.29.09-4.17-.16-5.86-1.86l-44.97-43.13,41.09-38.51Z"/>
  <path class="st0" d="M2079,290.02l38.86,42.69-58.86,57.24c-12.23-14.38-18.24-32.31-26.45-48.99l46.45-50.93Z"/>
  <path class="st0" d="M541.38,1339.34c-27.9,17.1-50.79,49.33-87.37,44.59l63-109.98,26.12,57.97-1.75,7.42Z"/>
  <path class="st0" d="M652.26,1757.64c-.33-.2-1.57-4.12-3.14-5.75-11.17-11.56-22.16-23.18-33.08-34.97l60.93-57.01c10.71,14.84,18.61,31.46,24.72,48.72-.59,3.13-38.82,44.88-42.58,47.38-2.03,1.35-4.43,3.04-6.85,1.62Z"/>
  <path class="st0" d="M430,983.96c-1.71,19.06-9.93,36.06-16.27,53.73l-64.74,4.33-4.09-1.96,1.11-56.1h84Z"/>
  <path class="st0" d="M972.01,1923.9l-29.99-121.98c16.13,9.07,43.6,13.3,58.48,22.49,2.19,1.35,4.46,2.04,5.24,4.93-5.54,22.72-2.76,60.33-15.73,79.59-1.49,2.22-16.03,17.04-18,14.97Z"/>
  <path class="st0" d="M1117.99,172.02c.92,1.36-3.25,3.66-4.59,4.38-11.08,5.91-28.13,13-40.06,17.94-5.34,2.21-14.25,7.31-19.35,4.73-17.71-26.49-51.14-51.8-45.05-87.13l109.05,60.08Z"/>
  <path class="st0" d="M590,599.99l-25.35,62.04c-32.95-4.44-74.02-.48-96.64-29.09l121.98-32.95Z"/>
  <path class="st0" d="M1408,4v82c-19.09.74-35.71-10.29-53.8-14.2-.37-22.29-2.76-44.58-4.23-66.81-.28-4.17.04-2.58,2.97-3,16.93-2.46,37.91,1.74,55.06,2.01Z"/>
  <path class="st0" d="M1725.98,1939.91l-107.97-65.97c17.93-4.89,37.81-19.44,55.02-24.19,3.35-.92,4.26-1.66,7.66.32,2.97,1.73,35.64,44.52,38.43,49.73,7.16,13.38,7.88,25.08,6.86,40.11Z"/>
  <path class="st0" d="M2281.99,665.98l-62.99,107.95-26.04-53.9-.53-9.65c29.09-17.45,51.62-50.95,89.56-44.39Z"/>
  <path class="st0" d="M1791.99,245.98c-8.87-3.8-59.65-19.56-61.66-25.31,3.84-33.49.37-74.59,30.68-96.67l30.98,121.98Z"/>
  <path class="st0" d="M2265.99,1419.93l-119.98,30,21.37-59.46,4.52-3.74c22.15,4.07,60.91,2.39,79.12,15.19,2.22,1.56,17.05,16.01,14.97,18.01Z"/>
  <path class="st0" d="M1761.99,341.97l-63.9-10.07,7.93-93.91c8.22,7.19,16.75,14.79,24.03,22.95,3.43,3.84,13.87,15.02,15.68,18.32,2.41,4.37,18.59,60.48,16.25,62.72Z"/>
  <path class="st0" d="M1052,227.99h33c3.61,0,21.14,1.96,25.05,2.95,3.37.85,53.93,28.92,53.91,32.05l-52.67,36.79-59.29-71.79Z"/>
  <path class="st0" d="M1682,1819.92h-55c-4.19,0-46.83-29.52-54.99-33.02-.72-2.89,1.82-3.3,3.3-4.67,12.78-11.94,34.34-21.61,47.72-33.93l58.98,71.63Z"/>
  <path class="st0" d="M1027.98,1809.92c-8.74-7.94-18.29-16.01-26.03-24.94-3.03-3.49-11.04-12.12-12.81-15.19-8.28-14.46-10.29-47.19-17.13-63.85l63.13,11.85-7.16,92.13Z"/>
  <path class="st0" d="M2164,709.97v33c0,26.98-15.21,46.51-29.09,68.93-1.49,2.41-2.61,5.23-2.94,8.06-4.24.56-6.49-3.41-8.8-6.16-4.08-4.86-31.49-43.91-31.3-46.72l72.13-57.11Z"/>
  <path class="st0" d="M2152,1363.96c1.61,2.19-35.78,37.48-38.14,38.83-15.07,8.61-46.85,9.24-63.84,17.14l10.09-63.88,91.9,7.92Z"/>
  <path class="st0" d="M686,629.99l-11.85,63.13-92.15-7.17c10.87-9.33,27.78-33.4,39.27-39.71,4.56-2.51,62.05-18.24,64.73-16.25Z"/>
  <path class="st0" d="M572,1282.94c1.39-5.41,24.71-40.04,29.66-48.34,1.22-2.04,2.31-4.22,2.36-6.65,1.06-.82,5.72,4.81,6.81,6.16,6.45,7.98,26.36,34.09,30.09,41.91.76,1.59,1.37,3.12,1.3,4.93l-70.22,58.98c2.6-15.37-3.5-43.33,0-57Z"/>
  <path class="st0" d="M1494,2l-24.02,89.99-49.67-51.28c-.71-3.64,32.07-38.71,34.69-38.71h39Z"/>
  <path class="st0" d="M633.89,1683.82l-50.48,1.69c-1.78-.53-23.55-21.83-25.44-24.56-1.17-1.69-2.78-1.97-1.97-5l79.98-44.03-2.09,71.9Z"/>
  <polygon class="st0" points="2390 1149.95 2301.98 1126.93 2353 1075.99 2390 1110.95 2390 1149.95"/>
  <path class="st0" d="M779.99,293.98l-71.78-2.21c-3.92-16.35-2.03-33.64-1.8-50.37l26.72-27.33,46.86,79.9Z"/>
  <path class="st0" d="M2149,363.98c.5.03,2.33-2.39,4-.25,5.68,8.03,17.9,15.62,23.11,23.18,1.21,1.76,2.93,2.78,1.03,5.1l-79.13,43.95c-1.79-3.77,1.99-9.18,1.99-10.99v-61c16.19.72,32.84-.98,49,0Z"/>
  <path class="st0" d="M1242,2045.91l23.02-88.02,50.62,51c-3.36,4.99-32.1,37.02-34.64,37.02h-39Z"/>
  <path class="st0" d="M2028,1757.92v47c0,.61,2.38,2.28.25,4l-27.25,26.96-45.02-78.94,72.02.98Z"/>
  <polygon class="st0" points="346 897.96 434 921.98 382.73 971.81 346 938.96 346 897.96"/>
  <path class="st0" d="M1139.97,589.97c-3.01.82-3.32-.8-5-1.96-15.57-10.71-29.67-34.73-44.66-47.32-1.15-5.9,38.98-43.36,46.65-48.72l20.83,46.96-17.82,51.03Z"/>
  <path class="st0" d="M1645.87,1511.81c-1.48.03-2.83.41-3.81,1.61-8.49,10.37-30.93,35.58-41.03,42.54-1.69,1.17-1.97,2.78-5.01,1.97l-18.15-47.02,18.12-52.01,49.07,48.98.81,3.93Z"/>
  <polygon class="st0" points="1709.83 199.81 1686.86 196.13 1686.09 155.09 1739.98 74 1741.53 120.52 1709.83 199.81"/>
  <path class="st0" d="M432.01,1433.93c-.9-3.46,1.43-4,2.98-6,12.76-16.59,28.44-28.32,47.08-36.92,19.4-8.95,40.19-15.09,59.3-24.76,3.43-.34,16.59,15.09,12.8,20.74-1.62,2.41-26.48,26.99-28.27,27.85l-93.89,19.09Z"/>
  <polygon class="st0" points="497 705.97 416.02 653.94 433.02 649.99 459.11 649.87 541.72 682.24 540 705.97 497 705.97"/>
  <polygon class="st0" points="1908 1237.94 1858.54 1219.41 1835.98 1168.97 1903 1169.95 1908 1172.95 1908 1237.94"/>
  <path class="st0" d="M2303.98,613.97c.9,3.45-1.38,4-2.96,6.02-16.6,21.02-31.28,30.36-55.08,40.92-17.31,7.68-35.42,14.15-53.08,21.03l-14.08-15.86,32.07-32.25,93.13-19.85Z"/>
  <polygon class="st0" points="1582 483.98 1562.94 531.92 1513.02 555.99 1514 483.98 1582 483.98"/>
  <path class="st0" d="M1899.99,795.94l-46.96,18.12c-15.71-4.8-33.11-9.71-48.21-15.91-1.91-.78-3.57,1.12-2.87-3.21,1-6.21,44.33-40.84,51.05-48.93,11.49,14.91,34.91,30.24,45.03,44.93,1.16,1.69,2.78,1.99,1.96,5Z"/>
  <path class="st0" d="M933.99,1251.97c1.82,2.38-5.14,8.27-6.94,10.03-14.11,13.72-29.71,26.58-44.32,39.81l-48.69-46.86,47.28-20.43,52.68,17.45Z"/>
  <path class="st0" d="M958.02,88c10.22,10.72,27.68,23.34,35.65,35.33,13.08,19.7,19.33,53.31,31.48,74.6l-16.43,15.9-32.19-33.35-18.5-92.48Z"/>
  <path class="st0" d="M1775.98,1959.91l-33.7-31.27-31.42-74.75c-3.71-5.77,10.81-16.74,14.64-17.68,7.03-1.72,27.48,26.39,32.66,32.56l17.83,91.15Z"/>
  <polygon class="st0" points="2267 1397.94 2192.89 1366.03 2193.99 1343.93 2241.93 1345.01 2320 1397.94 2267 1397.94"/>
  <path class="st0" d="M994,1924.91l30.94-73.06c3.96-4.05,17.49-2.05,22.78.35l-.63,45.8-53.09,77.91v-51Z"/>
  <path class="st0" d="M1222,1563.93h-65c-.43,0-2.26,2.99-2.98,2l17.91-49.07,49.08-24.88c6.7.32,1.02,26.1.9,30.87-.33,13.67.41,27.43.08,41.08Z"/>
  <path class="st0" d="M1101.99,1123.97l-111.88,47.1c-9.48,3.14-18.91-2.47-26.09-8.25l31.35-40.49,106.62,1.65Z"/>
  <path class="st0" d="M828,814.96c-.03-.63-5.19-6.36.87-4.89,14.48,3.51,31.35,15.07,46.6,18.42l24.53,51.45-72-1.98c-.81-20.89,1.1-42.11,0-63Z"/>
  <path class="st0" d="M1267.98,757.96l-47.58-111.46c-2.77-4.81,5.01-25.69,8.64-26.53l40.55,33.42-1.61,104.57Z"/>
  <path class="st0" d="M1249.99,1283.95l-46.25,112.73c-1.66,5.54-23.46,13.62-25.73,11.27l-2.97-51.97c23.32-20.38,44.39-48.59,67.96-68.04,2.25-1.86,3.23-4.85,6.99-3.99Z"/>
  <polygon class="st0" points="1110 907.94 993.22 859.74 984 835.98 1035.95 830.96 1110 907.94"/>
  <path class="st0" d="M1555.99,639.97l5.01,51.95c-24.05,21.2-45.7,49.71-69.99,70.05-2.25,1.88-3.25,4.85-7,3.98l48.29-114.68c.84-4.35,22.76-12.26,23.69-11.3Z"/>
  <path class="st0" d="M1743.46,1190.49c2.12,2.11,6.19,14.37,7.07,17.99.49,2.01,2.6,2.24-.46,4.54l-50.67,4.51-73.4-75.56,117.46,48.52Z"/>
  <path class="st0" d="M1466,1289.94c3.49.51,3.42,4.05,4.57,6.43,16.91,35.12,29.24,74.74,45.23,110.52.08,3.66-5.16,14.92-7.29,18.49-.95,1.58.39,3.29-3.49,2.62-7.16-1.25-31.52-25.52-39-31.07v-107Z"/>
  <polygon class="st0" points="1634 925.96 1640.04 921 1751.04 876.17 1771.75 886.95 1741 925.96 1634 925.96"/>
  <path class="st0" d="M1678.01,203.98c-1.16,7.12,3.01,21.54-3.16,25.86l-84.43,21.77c-12.22,1.45-15.19-17.25-22.37-24.63,1.11-1.92,3-2.29,4.81-3.13,9.4-4.38,43-16.05,52.66-17.34,16.26-2.17,35.88-1.38,52.49-2.53Z"/>
  <path class="st0" d="M1790,1729.94c-8.64,15.71-15.21,39.73-25.13,53.85-9.04,12.86-24.9,24.67-33.78,38.27-5.88,5.64-19.33-14.83-18.82-18.65l44.81-75.41c6.89-8.6,22.8,2.63,32.92,1.93Z"/>
  <path class="st0" d="M1007,224.05l16.73,20.59-49.08,79.05-26.68-4.71c-2.67-1.78-1.63-2.72-1.2-5.07,1.11-6.04,19.38-42.48,23.56-48.59,9.4-13.76,26.31-27.56,36.67-41.27Z"/>
  <path class="st0" d="M593.58,809.57l-25.5,12.34c-4.19-16.6-14.33-34.88-17.61-51.41-3.56-17.93-1.22-38.33-4.48-56.53l27.06,1.95,20.53,93.65Z"/>
  <path class="st0" d="M661.98,1445.94c-30.28-9.52-56.85-24.89-80.01-46.97-2.69-2.56-15.84-14.34-13.96-16.99l20.15-13.1,77.89,46.07c4.73,5.02-4.36,23.52-4.07,31Z"/>
  <path class="st0" d="M2319.99,540c.48,3.48-4.55,1.88-6.96,1.97-37.84,1.43-75.68,1.87-113.62,3.58l-49.4-49.56,169.98,44Z"/>
  <path class="st0" d="M1166,1823.89c-18.08,3.94-35.44,14.14-53.52,17.51-18.57,3.46-37.86,1.54-56.48,4.52l3.94-27.06,87.93-22.07c5.05-.26,19.55,25.2,18.13,27.1Z"/>
  <path class="st0" d="M583.98,1553.93l-167.97-45.98c40.13-2.12,80.36-4.17,120.58-3.61,2.98.89,40.48,38.57,44.43,43.57,1.58,2.01,3.87,2.57,2.96,6.02Z"/>
  <path class="st0" d="M2068.42,633.57l6.57-31.55c34.54,14.89,67.52,32.33,90.87,62.68-5.51,4.97-12.26,16.98-20.33,14.92l-77.1-46.04Z"/>
  <path class="st0" d="M2188.01,1335.95l-25.83-2.19-21.85-93.45,22.92-14.16c2.55-.82,3.35,1.34,4.37,3.19,3.84,6.95,16.7,44.3,17.9,52.09,2.52,16.26.88,37.68,2.49,54.53Z"/>
  <polygon class="st0" points="1548 98 1696.98 9.98 1681.03 30.03 1617 98 1548 98"/>
  <polygon class="st0" points="2294 1203.95 2382.02 1354.92 2294 1272.94 2294 1203.95"/>
  <polygon class="st0" points="1185.99 1949.92 1181.39 1956.3 1036 2039.89 1116.04 1952.96 1185.99 1949.92"/>
  <path class="st0" d="M840.02,239.99l43.96-167.98c1.95,40.16,4.11,80.36,3.61,120.57l-47.57,47.41Z"/>
  <path class="st0" d="M1851.97,1975.9c-3.48.48-1.88-4.55-1.97-6.96-1.4-37.18-1.75-74.35-3.58-111.61l49.56-49.4-44.01,167.98Z"/>
  <polygon class="st0" points="441.99 843.95 354.01 695.98 361 699.97 438.96 774 441.99 843.95"/>
  <path class="st0" d="M1584.01,527.97l35.56-87.41c2.97-5.78,9.82-10.63,16.37-7.6,2.35,1.09,32.45,31.54,31.97,33.81l-83.91,61.2Z"/>
  <path class="st0" d="M1973.98,843.96l-103.97-17.97,94.5-37.68c1.5.22,8.65,3.67,9.5,4.64,5.98,6.79-.52,40.53-.04,51.02Z"/>
  <path class="st0" d="M1186.01,417.99c-6.13,31.8-7.53,65.18-14.16,96.84-.5,2.39-.92,4.76-3.83,5.14l-35.95-92.72c.84-2.62,1.27-7.36,2.91-9.29,4.6-5.42,41.9-.2,51.03.03Z"/>
  <path class="st0" d="M1149.99,1521.94l-35.11,87.86c-2.34,3.36-11.22,9.01-14.82,7.23l-34.02-34.1,83.95-60.99Z"/>
  <path class="st0" d="M811.96,723.98l60.04,83.96-92.91-38.06c-1.55-3.27-6.04-8.13-4.19-11.86,1.01-2.03,29.16-30.1,32.06-32.1,1.68-1.16,2.1-2.73,5.01-1.94Z"/>
  <path class="st0" d="M1600,1631.93h-52l16.02-104c2.98.21,3.05,3.09,4.01,4.97,13.5,26.28,21.81,58.25,35.06,85.03l-3.1,14Z"/>
  <path class="st0" d="M1955.45,1278.5c2.48,2.46,5.17,9.91,3.63,13.37-3.41,7.65-28.31,25.15-34.08,34.04l-63-85.94,93.45,38.53Z"/>
  <path class="st0" d="M760,1205.95l104.02,17-87.92,36.16c-6.02,2.06-11.84.49-16.1-4.16v-49Z"/>
  <path class="st0" d="M2389.67,952.28c-.62,8.09,2.82,42.89-1.65,46.7-5.97,5.08-33.76,2.59-43.1,2.9-7.03.23-15.42,5.49-20.87-.9l27.94-64.15,37.68,15.46Z"/>
  <path class="st0" d="M1343.72,4.28l2.27,63.7-65.79-26.17c-4.24-4.91,12.61-32.67,15.78-38.84,6.97-1.25,45.36-2.51,47.75,1.31Z"/>
  <polygon class="st0" points="676 363.96 607.15 390.11 594.29 351.39 628.71 320.15 676 363.96"/>
  <path class="st0" d="M2002.26,264.24l38.3-11.96,31.28,33-40.86,46.7c-3.96.99-8.25-12.4-9.91-16.06-2.96-6.52-20.79-48.51-18.81-51.68Z"/>
  <path class="st0" d="M707.89,1718l25.95,64.72-38.58,14.81c-6.07-6.03-32.97-28.68-31.06-36.19,1.6-6.28,33.84-33.04,37.74-42.45l5.94-.88Z"/>
  <path class="st0" d="M2060.01,1683.95l65.04-25.39c5.55.6,12.58,32.34,16.27,38.42l-34.29,30.97c-3.83-.02-30.16-24.32-35.06-28.99-2.43-2.32-13.86-12.42-11.97-15Z"/>
  <path class="st0" d="M409.99,1045.96l-27.94,67.12-37.06-17.11c-1.89-15.6,2.85-31.86,1-48.03l64-1.98Z"/>
  <path class="st0" d="M764,879.96l37.2-80.15c2.99-.49,18.36,7.58,18.84,9.57l-2.03,70.59h-54Z"/>
  <path class="st0" d="M2293.74,1065.69l-27.9-5.01c1.05-17.91,8.2-40.38,8.34-57.73.05-6.75-7.28-37.31-6.14-38.91l28.06-5.24c5.92,35.04,6.07,71.78-2.36,106.89Z"/>
  <path class="st0" d="M467.97,985.98c-.06,23.88-7.69,46.99-5.94,70.94.36,4.88,5.94,26.8,3.88,28.95l-27.91,4.09c-5.11-36.67-3.7-71.56,2-108.02l27.97,4.04Z"/>
  <path class="st0" d="M741.34,340.19c3.27-.29,17.56,21.11,15.78,23.83-26.48,19.2-51.48,36.64-69.08,65.05l-23.11-13.03c-2.47-2.39-.18-3.37,1.03-5.1,6.39-9.18,23.12-29.16,31.06-36.94,4.2-4.12,41.55-33.56,44.33-33.81Z"/>
  <path class="st0" d="M1427.75,1926.17l6.08,24.59-3.19,2.79c-34.97,6-69.82,3.95-104.61-1.66l5.3-28.07c22.72.74,44.83,7.73,67.65,6.06,5.89-.43,25.25-5.99,28.78-3.71Z"/>
  <path class="st0" d="M2069.76,1632.16c1.02,1.75.18,4.05-.76,5.76-3.03,5.55-25.68,31.34-31.21,36.8-4.01,3.96-43.54,36.01-45.82,34.28-2.81-5.86-17.03-18.79-13.06-25.05,2.93-4.61,33.82-24.27,41.1-30.99,6.75-6.23,23.31-30.75,25.98-32.17,5.28-2.82,17.9,10.26,23.75,11.38Z"/>
  <path class="st0" d="M1977.27,322.26c30.16,18.96,55.43,46.34,74.25,76.74-3.93,4.76-17.71,16.72-23.47,14.07-5.69-2.62-27.65-37.75-34.97-45.16-6.13-6.22-27.36-17.53-30.19-21.89-1.54-2.37,11.55-23.22,14.38-23.76Z"/>
  <path class="st0" d="M705.02,1634.41c21.97,24.96,36.65,52.14,66.87,68.8l-13.83,23.85c-2.3,1.13-5.35-1.92-7.04-3.15-10.21-7.41-28.33-23.64-37.07-32.93-4.42-4.7-29.94-36.71-29.98-40.09-.06-5.42,16.3-13.29,21.05-16.48Z"/>
  <path class="st0" d="M1512,419.98l78.01,36.99c5.57,2.43-5.92,19-7.01,19h-68l-3-3v-53Z"/>
  <path class="st0" d="M1410.01,98c-1.88,5.53-1.55,27.82-8.81,27.9-31.24-4.94-60.96-11.72-92.06-2.17-3.25-.82-8.82-24.33-6.28-27.88l2.44-1.58c35.6-3.46,69.54-3.97,104.71,3.72Z"/>
  <path class="st0" d="M1691.99,1555.91l-81.4,27.74c-3.91.8-8.17-14.97-8.22-17.1-.11-5.26,43.48-44.14,50.62-50.57,8.41,12.44,29.34,23.83,37.03,34.94,1.17,1.69,2.78,1.98,1.97,5Z"/>
  <path class="st0" d="M1127.92,466.05c-.15,6.88,6.12,13.31,3.11,19.86-1.15,2.52-32.48,33.24-37.01,37.09-3.62,3.08-7.84,5.5-11.32,8.81l-40.7-36.84,85.91-28.92Z"/>
  <path class="st0" d="M836.02,1347.93l-28.06-82.95c7.28-1.96,15.69-7.97,23.15-3.15l44.74,47.38c.44,2.5-30.59,33.81-34.83,36.75-1.69,1.17-1.98,2.78-5,1.97Z"/>
  <path class="st0" d="M1897,700.01l28.97,81.09c.24,4.76-13.91,8.45-17.41,8.43s-8.19-5.97-10.62-8.51c-12.93-13.58-25.67-27.91-38.02-42.05l37.07-38.96Z"/>
  <path class="st0" d="M1222,1573.93v54l-79.79-38.96c4.05-5.53,5.27-15.53,12.84-17,19.91-3.85,46.37,4.32,66.96,1.96Z"/>
  <polygon class="st0" points="1972 1169.95 1933.97 1249.94 1916 1241.94 1916 1169.95 1972 1169.95"/>
  <path class="st0" d="M1163.99,320.01l-26.42,39.53-34.24-1.89c-3.98-1.36-20.12-44.07-21.32-51.65l81.98,14.02Z"/>
  <path class="st0" d="M2075.99,1327.97c2.22,2.99-9.01,9.78-11.36,11.61-13.59,10.52-30.9,23.63-45.18,32.82-2.02,1.3-9.97,7.21-11.44,5.54l-7.56-46.79,28.21-22.84,47.33,19.66Z"/>
  <path class="st0" d="M2085.99,737.98l-12.37,78.6-4.41,3.23c-6.02-6.48-33.23-19.72-36.23-25.83-4.39-8.95,2.21-24.83.94-34.69l52.08-21.31Z"/>
  <path class="st0" d="M1654,1741.9c-23.8-3.37-48.84-5.83-72.34-10.64-3.17-.65-10.88-.09-9.62-4.29l26-38.15c10.27,2.53,30.87-2.8,36.44,5.63,7.77,11.77,12.16,34.44,19.53,47.45Z"/>
  <path class="st0" d="M1063.97,1733.92l-49.96-67.97,46.54-7.7,22.56,23.74c2.34,4.73-18.69,42.98-19.14,51.93Z"/>
  <path class="st0" d="M725.98,669.97l8.08,46.9c-.28,2.18-18.49,19.35-21.36,20.85-3.81,1.99-4.46,2.17-8.74,1.47-3.04-.5-45.92-17.71-45.92-20.22l67.94-49Z"/>
  <path class="st0" d="M1673,316.02c14.54,20.37,34.24,41.79,46.98,62.99,1.13,1.87,3.38,1.38.05,4l-44.81,8.49c-7.49-7.31-24.62-21.12-22.32-31.52.93-4.21,17.67-43.91,20.09-43.97Z"/>
  <polygon class="st0" points="650.01 1309.93 662.99 1227.96 703.11 1255.95 700.15 1289.09 650.01 1309.93"/>
  <path class="st0" d="M441.99,1099.96c6.81,1.19,22.8-7.28,27.03-2.04,5.29,6.55,12.11,41.92,17.19,52.81,4.35,9.35,14.56,19.07,19.54,28.58l-20.76,18.6c-7.36-12.34-20.06-27.45-25.8-40.16-7.53-16.67-11.15-40.09-17.2-57.79Z"/>
  <path class="st0" d="M1525.8,1886.07l14.05,19.13c.57,2.5-1.52,3.31-2.84,4.72-3.27,3.48-31.6,20.64-37,23-16.78,7.33-38.51,10.64-55.98,17.01l-5.64-23.48,1.56-3.51c15.8-7.33,38.32-9.39,53.49-16.59,5.16-2.45,28.72-22.8,32.36-20.28Z"/>
  <path class="st0" d="M1866.09,305.9l1.92-27.92c1.81-1.82,44.85,9,49.98,11.01,15.75,6.17,34.57,19.97,49.97,27.99-5.36,3.44-10.61,21.27-16.59,20.69-8.33-.81-37.01-20.71-47.38-24.67-11.21-4.29-26.03-4.76-37.89-7.1Z"/>
  <path class="st0" d="M1292,99.99l3.76,25.77c-30.88,9.63-59.76,16.3-84.79,38.12l-16.94-20.88c28.02-23.92,61.99-36.31,97.96-43.01Z"/>
  <path class="st0" d="M2251.96,851.97c6.32,14.46,17.78,26.48,24.09,40.93,3.78,8.66,14.41,40.13,15.56,48.57,1.69,12.42-16.54,9.01-25.6,12.49-8.46-30.6-15.87-60.98-37.65-85.02l23.6-16.97Z"/>
  <path class="st0" d="M647.75,525.72l-25.76-1.74c.95-37.5,19.41-68.3,36.99-99.98l22.76,14.93-26.18,49.6-7.81,37.18Z"/>
  <path class="st0" d="M2114,1525.94c-3.15,36.94-20.33,65.71-36.1,97.91l-23.64-12.21-.34-2.58c14.99-27.93,29.74-52.9,33.08-85.22l26.99,2.1Z"/>
  <path class="st0" d="M870.01,1743.94l-4.21,25.76c-35.46-.73-64.23-17.96-94.55-34.04-8.23-2.87,8.59-23.69,11.65-23.76,6.25-.14,40.82,21.62,51.11,25,11.07,3.64,24.68,3.74,36,7.04Z"/>
  <path class="st0" d="M2062.01,507.99c-3.6-15.81-5.43-35.34-10.56-50.46-2.65-7.79-15.59-25.53-15.47-30.64.13-5.66,18.68-12.39,23.04-16.86,2.14.15,18.78,32.62,20.53,37.4,2.38,6.5,9.01,29.81,8.64,35.59-.43,6.73-20.41,30.46-26.17,24.97Z"/>
  <path class="st0" d="M444.15,969.79c-1.73-2.49,10.03-37.05,12.39-42.29,3.19-7.07,17.65-32.2,24.51-33.49,5.9-1.11,30.32-2.8,28.09,6.03-2.71,10.75-21.37,29.57-26.63,41.43-2.68,6.04-7.51,31.62-10.44,33.66l-27.91-5.34Z"/>
  <path class="st0" d="M1416.07,129.91l6.16-27.69c15.6-.71,68.83,20.69,74.73,33.81,2.25,5.02,2.7,31.67-3.95,31.74-24.23-16.45-46.87-33.82-76.94-37.86Z"/>
  <path class="st0" d="M1967.82,1692.04c1.28,7.22,14.73,19.32,11.28,25.87-5.44,10.34-61.51,28.43-74.06,25.97-4.64-.91-22.25-17.68-21.04-23.93,1.45-2.11,43.22-8.81,49.98-11.04,5.79-1.91,31.39-18.6,33.84-16.87Z"/>
  <path class="st0" d="M2289.91,1078.03c3,3.13-8.47,36.3-10.94,41.89-2.3,5.22-16.49,29.75-19.83,32.16-3.58,2.58-31.55,4.55-34.26-.1,13.36-26.16,33.41-47.39,37.37-77.78l27.66,3.82Z"/>
  <path class="st0" d="M849.93,329.91c-15.55,4.19-35.54,5.26-50.42,10.59-6.2,2.22-28.73,18.5-33.29,15.24l-11.95-21.1c-.3-2.83,1.9-4.07,3.82-5.56,11.08-8.61,62.09-29.49,73.86-24.06,3.66,1.69,21.86,20.25,17.97,24.89Z"/>
  <path class="st0" d="M671.97,1539.93c6.36,29.81,9.88,57.25,27.87,82.74l-24.65,15.1c-11.05-16.73-31.89-56.95-26.71-76.35,1.96-7.33,15.7-19.87,23.48-21.49Z"/>
  <path class="st0" d="M1320.02,1919.94l-9.25,27.85c-14.61-2.59-66.42-21.2-71.72-33.92-1.84-4.42-5.33-33.07,3.58-31.68,6.1.95,31.19,21.9,40.01,26.09,11.28,5.35,25.57,7.16,37.38,11.67Z"/>
  <path class="st0" d="M1508,149.99c3.5-.87,3.99,1.45,6.01,2.99,4.29,3.28,19.04,20.21,22.82,25.18,3.89,5.12,25.78,39.27,25.25,42.71-6.49,3.21-17.52,4.77-24.99,5.2-8.47.48-22.63,1.67-29.08-3.08v-73Z"/>
  <path class="st0" d="M1435,1417.94l64.93,20.09-12.85,27.45c-26.82-9.34-49.52-24.9-79.21-22.41l-1.87-25.13h29Z"/>
  <path class="st0" d="M1041.4,758.18c5.05-1.32,16.56,12,18.67,16.79.03,12.69-66.74,44.41-80.11,50.08l-9.09-27.16c2.68-4.49,44.63-17.73,52.96-23.1,4.94-3.18,13.89-15.65,17.57-16.61Z"/>
  <path class="st0" d="M1780.02,891.96c1.8-1.55,27.94,9.82,27.67,14.6-.63,11.43-18.72,39.42-21.22,52.87-1.52,8.17.87,16.57-1.34,24.65-5.92,2.63-23.64,4.98-25.13-3.12-4.82-26.17,17.26-62.33,20.02-89Z"/>
  <path class="st0" d="M1755.91,1224.01c.22,6.34,11.49,24.73,6.1,28.92-13.97,8.01-36.87,12.47-49.86,20.16-5.99,3.54-13.9,16.53-20.05,18.07l-2.14-.14c-2.87-4.63-17.7-13.98-15.08-19.06,1.12-2.18,13.68-13.79,16.45-15.69,8.72-5.97,49.39-28.18,58.58-31.45,1.96-.7,3.9-1.32,6-.81Z"/>
  <path class="st0" d="M974,1063.95v29l-20.03,65-27.46-14.97c9.75-25.83,24.47-48.55,22.36-77.16l25.13-1.87Z"/>
  <path class="st0" d="M648.02,1543.93c-2.4-30.75,4.63-60.7,12.96-89.98,16.38,8.34,28.18,22.29,40.99,34.98l-53.95,55Z"/>
  <path class="st0" d="M1595.97,627.98l21.18,53.84c9.91,16.81,30.24,13.45,1.58,36-27.22-17.83-34.94-53.1-52.53-79.07-1.01-4.03.56-2.18,2.58-2.96,3.58-1.37,26.11-8.79,27.2-7.81Z"/>
  <path class="st0" d="M1140.03,1421.95c-11.66-25.69-16.93-54.96-39.89-73.28l15.26-16.51c4.46-1.16,16.47,11.84,19.48,15.91,3.91,5.29,32.56,57.78,32.89,61.24.58,6.15-22.93,8.97-27.73,12.65Z"/>
  <path class="st0" d="M492,883.96c7.22-8.11,14.68-17,23.06-23.94,6.49-5.37,38.57-27.45,44.8-29.23,5.8-1.66,8.14,8.05,8.14,12.17v38l-3,3h-73Z"/>
  <path class="st0" d="M1328.01,605.96v26.02c-8.14-.31-16.41.68-24.53-.49-10.49-1.51-55.01-14.87-64.62-19.38-1.81-.85-3.72-1.19-4.81-3.13l13.15-25.17c27.38,7.6,51.15,26.76,80.82,22.14Z"/>
  <path class="st0" d="M2087.99,505.99c-3.8,13.33-.7,27.27-2.2,40.78-1.3,11.74-6.83,31.89-9.83,44.22-.53,2.16,1.39,3.8-2.98,3.02-6.71-1.2-39.62-30.41-38.84-34.77,14.64-15.27,31.28-37.54,47.85-50.28,2.01-1.54,2.54-3.88,6-2.98Z"/>
  <path class="st0" d="M2242,1165.95c-18.56,23.97-44.72,39.67-70.97,54.03-5.89-17.35-5.15-35.94-5.03-54.03h76Z"/>
  <path class="st0" d="M1886,1743.9c-30.04,2.05-59.57-4.2-88.05-13.05,6.92-17.54,22.45-28.03,35.05-40.89l53,53.94Z"/>
  <path class="st0" d="M974,1769.9l-49.03,6.18c-15.15-2.8-30.83-1.98-46.01-4.16-2.91-.42-3.27,1.22-2.99-2.99.32-4.7,1.95-21.62,5.31-22.72,15.11,2.12,61.02-4.6,71.83,1.61,1.32.76,21.97,21.02,20.89,22.09Z"/>
  <path class="st0" d="M1226,1823.92v76c-8.72-8.32-20.84-19.61-28-29-4.63-6.07-23.69-34.61-25.83-40.2-1.25-3.26,11.61-6.8,12.83-6.8h41Z"/>
  <path class="st0" d="M891,305.99c7.92.94,32.16,7.05,40.34,9.65,2.51.8,4.96.64,6.61,3.33-9.53,15.55-21.3,27.33-35.23,38.87l-51.76-49.82-.95-4.02c2.31-.85,4.47,1.99,4.99,1.99,11.07,0,25.51-1.24,36,0Z"/>
  <path class="st0" d="M646,535.98v71l-23.98,22.99c-7.37-32.44-5.13-63.26-2.03-96l26.01,2.01Z"/>
  <path class="st0" d="M2172,775.97l35.05,25.95,35.08,42.93c-6.47,2.7-14.94,15.47-22.08,12.2-4.94-6.91-48.05-46.61-48.05-50.08v-31Z"/>
  <path class="st0" d="M1120,219.99c-.56-3.3,1.58-5.36,3.17-7.83,15.87-24.62,39.97-44.98,63.55-62.03l14.36,19.89-50.08,49.96h-31Z"/>
  <path class="st0" d="M1874,631.97l127.98-58c.88,3.75-2.09,4.76-3.98,7-14.78,17.64-35.89,35.3-53,50.99h-71Z"/>
  <polygon class="st0" points="562 1271.94 526.95 1246 492.12 1204.91 512.72 1190.09 562 1240.94 562 1271.94"/>
  <path class="st0" d="M1857.71,278.27l-2.63,23.8c-3.58,5.07-18.33.01-24-.16-11.79-.37-38.49,2.4-47.67-.33-2.75-.82-21.37-19.7-21.43-22.57,31.59-5.89,64.04-6.99,95.73-.74Z"/>
  <path class="st0" d="M679,891.96c15.95,16.68,33.19,32.2,49,49,.81.86,5.53,4.21,2.98,5.02l-126.42-49.55-2.56-4.47h77Z"/>
  <path class="st0" d="M2113.99,1515.94l-25.71-4.29,2.12-70.3,23.57-23.41c4.45,32.8,5.92,65.2.01,98Z"/>
  <path class="st0" d="M1616,1829.92c-17.82,28.39-41.27,49.06-67,69.96-3.44-4.25-15.99-15.97-14.79-20.57l48.79-49.4h33Z"/>
  <path class="st0" d="M1608,1357.91l44.97-70c15.97-13.29,19.46,1.31,30.99,11.03l-34.82,33.14c-4.93,5.91-13.24,30.51-17.13,32.98-5.42,3.44-17.75-6.59-24-7.14Z"/>
  <path class="st0" d="M1760,1529.93l58.02,128.98c-.81,2.55-4.16-2.17-5.02-2.98-18.16-17.11-34.96-35.74-53-53v-73Z"/>
  <path class="st0" d="M1423.91,596l8.1,23.96c-23.1-.11-67.09,21.32-87.69,14.68-11.63-3.75-4.47-19.2-6.33-28.68,2.48-2.48,40.85,2.83,48.85,1.83,6.16-.77,35.52-12.96,37.07-11.79Z"/>
  <path class="st0" d="M1126,690c.4,2.1-.75,3.63-1.57,5.38-5.33,11.44-31.51,53.68-39.55,62.46-3.03,3.31-12.82,11.23-16.83,9.22-3.02-1.51-16.9-15.74-15.17-19.09,4.03-7.83,26.77-24.77,33.98-32.15l17.06-33,22.07,7.17Z"/>
  <polygon class="st0" points="862 1417.94 735.01 1473.96 732.01 1472.94 787 1417.94 862 1417.94"/>
  <path class="st0" d="M950,1000.96c-1.13-7.22-11.62-24.67-10.16-31.71l22.11-9.25,17.93,78.82-4.08,14.94-25.8.2c-1.81-16.24,2.45-37.43,0-53Z"/>
  <path class="st0" d="M1103.33,1308.61c2.47,2.51,7.27,10.58,6.41,13.91l-18.46,17.27c-19.37-21.58-36.09-41.36-65.13-50.04.13-4.9,5.04-24.46,10.54-23.61l66.65,42.46Z"/>
  <path class="st0" d="M1786.01,995.95c2.68,2.68-3.1,40.87-1.88,48.89,1.01,6.62,12.56,29.91,11.62,33.91l-20.79,11.05c-2.66-.26-6.94-21.48-7.99-25.82-3.21-13.32-14.92-54.52-8.65-64.7,4.07-6.61,20.09-2.02,27.69-3.33Z"/>
  <path class="st0" d="M1500,257.99v77l-51.01,50.99-1.01-3c15.36-37.62,29.55-75.7,44.52-113.47,1.44-3.64,2.62-12.82,7.5-11.51Z"/>
  <path class="st0" d="M1710.01,760l-8.18,21.81c-2.05.73-3.98-.05-5.9-.73-4.68-1.65-58.5-35.39-62.4-39.08-2.35-2.21-9.68-13.62-8.58-16.08l18.06-17.91c19.19,22.46,37.47,43.42,67.01,51.98Z"/>
  <path class="st0" d="M2064.01,597.99l-8.02,30-75.94-15.01c10.35-9.51,18.91-21.38,31.26-28.45l52.71,13.47Z"/>
  <polygon class="st0" points="756 1433.96 724.48 1463.56 671.99 1451.93 681.3 1422.13 756 1433.96"/>
  <path class="st0" d="M1343,1441.94c-5.81.99-24.07,11.44-29.69,9.81l-11.31-21.79,79.02-17.64,14.72,3.88.26,25.74c-16.03,1.91-37.74-2.59-53,0Z"/>
  <path class="st0" d="M2159.86,1217.79c-6.79-.02-21.32,13.71-25.86,11.31-3.04-1.61-37.67-50.84-40.13-56.01-1.16-2.43-2.59-4.1-1.86-7.12l42.02,2.96c3.03,7.18,28.89,44.59,25.83,48.87Z"/>
  <path class="st0" d="M2055,1155.95c-15.3-15.99-31.83-30.89-47-47-.81-.86-5.53-4.21-2.98-5.02l128.98,52.02h-79Z"/>
  <polygon class="st0" points="1225.99 1747.93 1223.67 1791.6 1175.96 1817.06 1162.15 1790.14 1225.99 1747.93"/>
  <path class="st0" d="M1510,257.99l47.06-26.08c4.93-.05,13.05,20,15.15,25.1l-62.21,44.98v-44Z"/>
  <path class="st0" d="M644,881.96h-41c-11.39-14.98-19.44-32.67-29.04-48.96l25.13-13.06,44.9,62.02Z"/>
  <path class="st0" d="M974,517.98l-56.02-126.98c.81-2.54,4.16,2.18,5.02,2.98,17.48,16.46,33.65,34.4,51,51v73Z"/>
  <path class="st0" d="M1793.83,1719.77l-29.54-8.98,11.73-72.85c3.47-.9,4,1.44,6,2.98,3.14,2.4,25.24,24.63,25.69,26.42l-13.88,52.43Z"/>
  <path class="st0" d="M969.78,336.2c2.12,3.02-9.47,65.36-11.72,72.87-2.49,8.33-4.53-.62-6.94-3.14-4.32-4.52-20.44-18.36-22.12-22.01-3.85-8.34,10.59-44.3,12.91-55.12l27.87,7.39Z"/>
  <path class="st0" d="M1334.02,523.97l-22.02-105.97c5.87,1.13,25.66-3.03,27.72,3.26,2.02,14.95-1.79,33.09.4,47.59,1.28,8.46,16.51,36.69,15.5,41.87l-21.6,13.25Z"/>
  <path class="st0" d="M1236,1712.92c16-15.3,30.89-31.83,47-47,.86-.81,4.21-5.53,5.02-2.98l-52.02,128.98v-79Z"/>
  <path class="st0" d="M813,1051.95c8.59-1.45,34.98-16.66,41.83-16.11l11.17,22.08-104,22.02v-28c15.46-1.83,36.28,2.48,51,0Z"/>
  <path class="st0" d="M1698,647.95l60.86-89.9c3.27,4.36,18.83,14.93,16.26,19.91-4.58,8.9-25.07,19.96-31.99,30.14-5.27,7.77-16.86,42.35-21.12,45.01l-24.01-5.16Z"/>
  <path class="st0" d="M1036.01,1399.95l-59.01,91.95c-3.98-5.84-19.54-14.4-16.07-21.92,3.25-7.03,25.61-20.42,31.98-30.13,4.07-6.21,16.47-41.77,19.38-43.61l23.72,3.71Z"/>
  <path class="st0" d="M1923,995.96c-4.5.93-19.69,9.23-26.5,11.5-5.63,1.88-11.12,4.49-17.22,4.67-2.5-5.61-7.71-11.36-9.66-16.83-.74-2.08-2.8-2.01.32-4.38l103.03-20.97,1.02,26.02c-14.78,2.1-37.29-2.84-51,0Z"/>
  <path class="st0" d="M900,635.94l19-19.93c2.4,0,28.1,29.97,33.98,33.98,7.43,5.07,38.92,14.88,42.11,19.96,2.84,4.52-2.7,16.64-4.09,22.02l-91-56.04Z"/>
  <path class="st0" d="M1834,1411.96c1.58,2.19-15.48,21.41-19.98,19.09-8.24-4.26-22.51-25.76-32.1-32.03-6.44-4.21-42.22-17.13-43.77-19.27l5.88-23.81,89.97,56.02Z"/>
  <polygon class="st0" points="2067.97 830.01 2058.77 856.1 1987.92 842.63 1990.02 815.96 2067.97 830.01"/>
  <path class="st0" d="M1197.73,332.24l-9.75,71.72-26.81-1.76c-2.55-1.84-1.12-6.34-.91-8.91.62-7.51,10.67-64.63,12.76-67.34,3.72-4.82,19.02,5.99,24.71,6.29Z"/>
  <path class="st0" d="M1073.89,1613.76l-61.35,41.87c-8.33,2.13-9.74-16.33-14.31-21.07l55.19-42.4c5.42-1.56,22.82,18.2,20.47,21.6Z"/>
  <path class="st0" d="M2000,1383.91l-24.07,9.02-41.01-55.09c-1.1-1.42-.8-2.38-.06-3.86,1.13-2.27,18.58-16.6,21.18-15.17l43.96,65.11Z"/>
  <path class="st0" d="M1660,436.03c20.29-10.4,38.11-28.16,57.35-39.68,2.41-1.44,7.58-5.63,9.59-2.39,2.32,5.24,11.26,19.02,8.15,24-17.05,8.13-37.63,31.77-53.78,38.53-4.16,1.74-14.46-9.89-17.28-13.53-.98-1.26-4.48-6.29-4.03-6.92Z"/>
  <path class="st0" d="M736.15,664.14c7.5-1.16,18.34-10.86,24.95-6.34,8.02,15.42,32.13,37.6,37.92,52.27,3.38,8.56-13.9,14.37-18.02,21.86-11.51-18.33-33.66-40.49-42.68-59.28-1.32-2.74-3.18-5.2-2.17-8.51Z"/>
  <path class="st0" d="M746.01,1231.95c-22.34-2.78-46.52-5.56-68.39-10.63-2.39-.56-11.23-1.59-11.48-4.34,4.12-5.61,5.6-22.13,12.92-23.14,18.92,4.96,45.98,4.17,63.84,10.19,1.92.65,4.24.5,4.89,3.05l-1.78,24.86Z"/>
  <path class="st0" d="M1575.99,1645.94c-5.83,21.92-5.57,51.49-12.54,72.43-.93,2.79-1.57,5.7-4.41,7.28l-22.77-10.86c4.95-19.95,5.08-43.79,10.24-63.33.57-2.17,1.84-6.47,4.37-6.85l25.11,1.34Z"/>
  <path class="st0" d="M1396,1578.93c-.13-.55-3.16-3.29-4.06-5.94-3.89-11.35-9.44-22.26-12.01-34.06.24-4.58,20.09-15.03,22.07-13.01l20.04,102.98-26.03,1.03c-2.29-14.06,3.09-38.35,0-51Z"/>
  <path class="st0" d="M1822.01,361.99c.49,5.29.1,3.24-2.99,3.96-27.73,6.47-57.09,6.94-82.84,19.95l-28.18-41.89,114.01,17.99Z"/>
  <path class="st0" d="M2029.99,1477.94c-5.18.57-3.18-.03-4.05-2.93-7.67-25.51-5.54-56.02-19.45-80.11l41.49-30.96-17.99,114Z"/>
  <path class="st0" d="M999.71,1664.18c1.55,7.69,29.46,37.46,26.27,41.74l-113.97-20.02,87.7-21.72Z"/>
  <path class="st0" d="M1221.99,236c2.25,2.28-32.52,48-35.68,53.3-2.59,4.35-6.85,19.79-10.19,21.73l-48.12-7.06,94-67.97Z"/>
  <path class="st0" d="M686,683.95l21.97-113.96c6.71,28.29,8.28,57.79,19.76,84.78-10.73,8.59-21.76,17.11-33.15,24.79-2.76,1.86-4.97,4.91-8.59,4.39Z"/>
  <path class="st0" d="M2155.98,879.96c-25.33-14.94-46.84-36.38-75.12-45.88l7.16-50.12,67.96,95.99Z"/>
  <path class="st0" d="M653.84,1214.12c-2.29,14.01-2.86,28.96-5.83,42.83-.58,2.72.23,5.04-3.01,6.95l-67-93.94c3.64-3.04,62.93,46.01,75.84,44.15Z"/>
  <path class="st0" d="M1608,1745.95l-93.99,65.96c-2.38-2.4,31.68-46.81,34.77-52.21,3.75-6.54,4.59-14.73,9.2-20.88,4.1-2.57,42.04,6.32,50.02,7.13Z"/>
  <path class="st0" d="M1820,1167.95l25.98,41.03-3.02,3.04-102.96-40.09c-.58-.74,2.62-3.98,3-3.98h77Z"/>
  <path class="st0" d="M896,1227.97l103.97-44.02c.83,3.91-.89,5.38-2.88,8.1-3.67,5.02-47.04,48.76-50.49,49.57-13.8-3.28-31.02-4.56-44.23-9.05-2.52-.86-5.84-1.44-6.37-4.6Z"/>
  <path class="st0" d="M1837.99,817.99l-103.98,45.96c-.87-3.76,2.12-4.74,3.99-6.99,4.76-5.76,46.12-47.64,49.44-48.63,16.89-.01,33.97,6.35,50.56,9.66Z"/>
  <path class="st0" d="M1224,1397.94v77c-10.67,7.46-22.21,16.14-33.41,22.59-2.44,1.41-8.03,5.92-10.62,3.38,12.41-31.04,23.09-64.7,37.15-94.89,1.69-3.62,1.81-9.47,6.88-8.08Z"/>
  <path class="st0" d="M1682.01,885.95l26.86-81.88c2.12.56,29.3,18.91,31.08,20.95,1.62,1.86,2.92,2.73,1.82,5.59l-59.77,55.35Z"/>
  <path class="st0" d="M1573.98,1495.93l-45.96-105.99,55.61,55.43c-.1,16.85-6.87,33.83-9.66,50.56Z"/>
  <path class="st0" d="M1051.99,1163.96l-25.17,79.93c-3.75,1.12-35.3-21.2-34.68-24.68l59.85-55.25Z"/>
  <path class="st0" d="M1045.99,897.97l-3.31,5.67-72.66,36.32c-.74-11.85-6.64-26.61-7.23-37.97-.1-1.89-1.46-3.51,1.11-5.09l82.09,1.08Z"/>
  <path class="st0" d="M1281.96,1421.88l-41.02,6.17,1.08-82.11c4.18,2.34,6.68,7.91,9.02,11.96,8,13.88,24.28,42.61,29.41,56.6.89,2.43,2.16,4.65,1.52,7.37Z"/>
  <path class="st0" d="M1765.99,1109.94l6.02,42.01-84.01-2.02c9.2-7.3,21.48-13.5,31.96-19.02,5.49-2.89,44.03-23.04,46.03-20.97Z"/>
  <path class="st0" d="M1490.02,703.96l-37.21-71.86c-1.38-2.45-1.09-3.54,1.21-5.11,2.05-1.4,31.15-6.73,35.27-6.92,2.26-.11,4.32-.42,5.8,1.78,2.49,3.69-3.96,64.93-1.03,75.18l-4.05,6.92Z"/>
  <path class="st0" d="M1163.97,553.98l44.03,103.97c-3.75.88-4.76-2.09-7-3.98-17.59-14.73-33.87-35.41-50.68-51.4,3.76-14.98,5.28-30.88,9.63-45.69.85-2.9-1.15-3.49,4.02-2.91Z"/>
  <path class="st0" d="M1588,1363.96c1.13,1.49-14,23.41-16.36,26.6-1.67,2.25-6,10.31-8.57,9.33l-57.06-59.93,82,24Z"/>
  <path class="st0" d="M1512,572.97c12.41-7.5,25.98-18.91,38.62-25.38,1.64-.84,4.22-3.44,5.4-.6l-44.03,104.97v-79Z"/>
  <path class="st0" d="M1227.99,709.96l-79.99-24.01c-4.07-4.72,19.25-28.87,20.23-35.74,1.29-.76,3.01-.43,4.4.05,3.02,1.05,29.93,28.86,34.39,33.67l20.96,26.02Z"/>
  <path class="st0" d="M994,879.96h-80c-4.37-13.75-17.38-25.44-22.89-38.11-.75-1.73-2.6-5.08-.09-5.91l102.98,44.02Z"/>
  <path class="st0" d="M937.72,1053.67l-23.73.29,2.02-81,3.21-4.85c2.37-.54,4.71-.54,6.85.78,2.25,1.38,12.77,30.13,13.46,34.54,1.02,6.54,1.62,48.1-1.81,50.24Z"/>
  <path class="st0" d="M1689.4,1308.15c4.51-1.18,19.85,13.64,17.72,17.77l-57.18,55.11c-5.1,1.33-10.49-2.08-9.66-7.62.37-2.48,12.7-28.29,14.85-31.35,2.65-3.78,31.94-33.3,34.27-33.91Z"/>
  <path class="st0" d="M1086.98,666.36l8.55,6.52c.32,2-13.46,30.25-15.86,33.76-2.61,3.82-31.03,33.08-33.69,34.45-5.08,2.62-15.35-13.05-19.95-16.12l60.94-58.61Z"/>
  <path class="st0" d="M1016.97,1296.51c10.44,6.74,25,9.64,34.9,16.56,2.82,1.98,30.21,30.87,31.25,32.89,2.62,5.08-13.05,15.35-16.12,19.95l-53.88-56.09c-5.33-5.84-1.93-9.7,3.85-13.31Z"/>
  <path class="st0" d="M1667.28,684.12l58.61,60.85c-4.06,4.4-5.3,7.79-11.88,6.18-3.88-.95-27.94-13.51-31.87-16.3-11.68-8.3-20.19-24.92-32.09-33.87l17.24-16.85Z"/>
  <path class="st0" d="M1421.71,572.26l2.04,11.47c-11.32,2.79-26.31,12.32-37.28,13.82-13.06,1.79-34.06-4.4-48.49-1.56l.02-26,83.7,2.27Z"/>
  <path class="st0" d="M1395.72,1454.22l2.28,23.69-86.01-1.97.29-11.73c26.86-11.63,54.39-16.67,83.44-9.99Z"/>
  <path class="st0" d="M1795.99,995.95l21.9-1.21,4.07,2.26c-6.61,23.48,2.22,55.39-1.96,77.96-1.13,6.07-5.48,5.62-10.74,4.77l-14.88-37.31,1.61-46.46Z"/>
  <polygon class="st0" points="1234 1483.93 1292 1485.95 1234 1543.93 1234 1483.93"/>
  <path class="st0" d="M988,1297.94h-80c-.87-3.49,1.44-4,2.99-6.01,3.39-4.43,35.17-36.27,37.73-35.84l39.28,41.85Z"/>
  <path class="st0" d="M1828,751.99c-12.85,13.89-25.94,28.8-41,40.05-3.35,0-34.48-35.15-39.02-41.05l80.02,1Z"/>
  <path class="st0" d="M1094,643.97v-80l41.96,41c-13.83,13.17-26.05,28.27-41.96,39Z"/>
  <polygon class="st0" points="1886 1157.95 1828 1157.95 1828 1099.95 1886 1157.95"/>
  <polygon class="st0" points="1500 563.97 1444 563.97 1500 505.98 1500 563.97"/>
  <path class="st0" d="M1817.72,1149.66l-27.45,2.02-14.13-51.53,21.9-9.34c6.36,9.85,10.14,20.85,14.46,31.64,1.06,2.65,4.36,4.46,5.08,6.92.8,2.74,1.08,18.79.14,20.29Z"/>
  <path class="st0" d="M1568,1827.92c.87,3.49-1.44,4-2.99,6.01-3.93,5.13-36.18,36.64-39.8,35.9l-31.22-41.92h74Z"/>
  <path class="st0" d="M1641.99,1405.95l-2.98,77.98-38.87-40.71c9.43-9.04,17.87-19.87,27.83-28.3,1.8-1.52,12.69-10.5,14.02-8.96Z"/>
  <path class="st0" d="M1110.06,673.89c5.4-14.67,11.72-47.79,25.99-55.05,4.91-2.5,18.34,12.07,21.64,16.42.92,4.91-20.49,43.16-25.11,44.44l-22.52-5.81Z"/>
  <path class="st0" d="M1603.25,1368.3l22.47,8.58c-9.72,18.7-10.32,42.19-28.7,54.7-5.57-4.23-19.48-13.07-19.05-20.45.29-5.08,21.06-42,25.28-42.82Z"/>
  <path class="st0" d="M1017.99,1281.95l-44.61-14.38-13.34-14.63,17.9-17.98c6.26-2.37,37.9,19.01,45.2,22.97l-5.14,24.02Z"/>
  <path class="st0" d="M1494,573.97v28l-48.7,13.79-11.43-22.61c20.12-6.97,37.81-22.73,60.13-19.18Z"/>
  <polygon class="st0" points="1854.01 313.99 1847.01 367.97 1794 312.01 1854.01 313.99"/>
  <path class="st0" d="M1291.71,1434.23l10.29,21.67c-19.83,5.99-39.76,24.35-61.13,16.16l1.12-25.14c15.86-6.14,32.38-12.6,49.72-12.7Z"/>
  <path class="st0" d="M1718.03,765.96c19,9.11,45.22,10.44,55.82,30.73l-17.28,17.02c-17.18-3.46-31.21-14.61-45.69-23.68l7.14-24.07Z"/>
  <path class="st0" d="M564,1223.95l-6.09-1.35-35.77-37.92c-.89-5.13,35.97-30.21,41.85-34.72v74Z"/>
  <path class="st0" d="M2079.99,1451.95l-2.01,59.99-50.01-6.97c-3.46-2.59-.66-2.88,1.03-5.03,7.94-10.07,34.96-37.32,44.99-45.01,2.01-1.54,2.54-3.88,6-2.98Z"/>
  <path class="st0" d="M940,1735.92h-57l-2.17-4.08c2.7-14.16,3.13-28.72,5.13-42.96.42-2.97-.06-4.98,3.04-6.92l51,53.96Z"/>
  <path class="st0" d="M917.99,897.95c6.56,1.09,22.88-2.37,27.07,1.95,3.39,3.48,13.76,40.18,13.04,45.01s-19.72,14.96-23.11,11.11c-7.22-19.84-20.9-35.79-17-58.07Z"/>
  <polygon class="st0" points="656 537.98 710 544 656 597.97 656 537.98"/>
  <polygon class="st0" points="1241.99 221.98 1166.01 219 1209 178.03 1241.99 221.98"/>
  <polygon class="st0" points="908 891.96 905.98 947.96 850 891.96 908 891.96"/>
  <path class="st0" d="M2213.99,867.92c-6.81.6-40.75,33.6-43.98,30.03l2.01-73.99c10.71,11.93,31.36,26.41,40.03,38.95,1.16,1.68,2.73,2.1,1.94,5.01Z"/>
  <path class="st0" d="M975.99,741.96l-59.99-81.97,65.1,39.96c3.46,5.43-7.2,33.39-5.11,42.01Z"/>
  <polygon class="st0" points="1288.02 547.98 1307.98 447.99 1323.65 522.8 1288.02 547.98"/>
  <path class="st0" d="M1943.99,961.98c-.44,3.42-7.51,3.9-10.34,4.64-20.56,5.33-41.81,8.79-62.56,13.4-7.47-1-20.63-27.99-27.09-34.03l99.99,16Z"/>
  <polygon class="st0" points="889.99 1103.94 792.01 1083.97 864.75 1068.4 870.83 1074.14 889.99 1103.94"/>
  <path class="st0" d="M1429.98,1599.93c-3.91-.7-3.25-4.24-4.06-6.92-2.41-7.96-14.97-63.54-14.02-67.66l34.08-23.42-16,98Z"/>
  <polygon class="st0" points="1818 1387.92 1752.99 1348.04 1760.02 1305.94 1818 1387.92"/>
  <path class="st0" d="M1086,1419.91l-81.99,54,40.03-63.1c2.13-1.12,32.46,3.96,36.78,5.31,2.23.7,4.83.7,5.18,3.79Z"/>
  <path class="st0" d="M1729.99,575.98l-37.97,60.99c-8.65,4.25-31.74-4.7-42.02-5.03l79.99-55.97Z"/>
  <path class="st0" d="M1091.99,1287.93c-7.25-2.75-52.59-29.96-53.73-33.34-2.93-8.7,11.96-33.86,11.76-44.64l41.97,77.98Z"/>
  <path class="st0" d="M1360,1403.96c-.3,3.04-2.98,3.08-5.11,3.87-6.11,2.28-53.86,12.86-57.47,11.8-4.62-2.29-23.08-38.14-21.41-39.68l83.99,24.01Z"/>
  <path class="st0" d="M1014,931.98c-10.9,24.9-14.88,56.84-25.81,81.16-1.07,2.37.95,3.62-4.18,2.82l-12.11-62.59,42.1-21.39Z"/>
  <polygon class="st0" points="1439.81 628.11 1460 669.95 1374.01 643.95 1439.81 628.11"/>
  <polygon class="st0" points="1181.99 707.99 1102 749.95 1136.32 694.23 1181.99 707.99"/>
  <path class="st0" d="M1642,759.99l55.11,34c1.75,2.85-11.8,43.99-14.11,43.94l-41-77.94Z"/>
  <path class="st0" d="M1722.01,1115.94l27.97-83.97,13.68,62.81c-.73,3.14-35.5,19.2-41.65,21.16Z"/>
  <path class="st0" d="M1632,1299.96c-6.98,8.15-27.33,49.74-34.01,53.06-7.7,3.82-33.82-11.43-43.99-11.1l2.58-4.46,75.42-37.5Z"/>
  <path class="st0" d="M1750,985.96h-42l55.98-70c-6,23.34-13.3,45.65-13.98,70Z"/>
  <path class="st0" d="M1406,1365.94l70.02,54.98c-23.57-4.12-45.38-16.24-70.02-12.98v-42Z"/>
  <path class="st0" d="M1155.99,1293.95l10,87.97c-5.36,1.13-3.44-1.41-4.96-3.94-11.47-19.08-19.58-40.08-37-55.04,8.9-7.4,17.02-19.16,25.95-26.01,2.01-1.54,2.54-3.88,6-2.98Z"/>
  <path class="st0" d="M1580.02,755.96l-10-87.99c14.98,17.9,21.72,41.45,39.84,57.27l-29.84,30.72Z"/>
  <path class="st0" d="M1328,641.97v42l-70-55.98c14.89,1.52,28.94,8.98,43.52,11.46,8.78,1.49,17.83-.87,26.48,2.52Z"/>
  <path class="st0" d="M1723.98,1229.91c-2.67,3.14-32,15.73-38.65,20.37-4.62,3.22-14.46,15.74-18.33,15.74l-30.98-27.1,87.02-12.93.95,3.93Z"/>
  <path class="st0" d="M1098,811.94l-88,10c18.51-14.7,42.18-20.6,57.27-39.83,3.28-.58,26.87,25.19,30.72,29.83Z"/>
  <path class="st0" d="M1026,1063.95l-55.98,70c5.44-23.34,16.97-45.38,13.98-70h42Z"/>
  <path class="st0" d="M1328,569.97v26.01c-8.83,0-16.91.66-25.63-1.38-5.57-1.3-44.41-16.9-48.36-19.64-2.98-2.06-.37-4.99,1-4.99h73Z"/>
  <path class="st0" d="M1129.99,1425.92c-4.03.87-5.35-.89-8.08-2.9-16.88-12.37-30.77-36.77-47.87-50.09l18.96-16.96c20.44,18.11,27.82,45.13,36.99,69.94Z"/>
  <path class="st0" d="M1609,622.01l50.85,53.23-17.11,16.58c-3.49.62-16.25-15.9-18.24-19.36-3.46-6.01-16.48-36.39-17.64-42.39-.75-3.91-1.84-5.33,2.14-8.07Z"/>
  <path class="st0" d="M938.01,1063.94c3.6,23.76-7.73,42.15-15.67,63.35-2.85,1.68-3.21,14.58-7.31,12.64-3.45-1.64-2.87-5.83-3.13-8.88-1.98-22.35,3.24-44.79,2.09-67.11h24.02Z"/>
  <path class="st0" d="M966.01,785.95c-1.13-5.31.44-4.38,2.47-6.58,5.31-5.77,46.12-45.8,49.41-46.62l18.07,16.22c-14.06,17.43-39.45,28.48-60.53,35.43-3.2,1.05-5.9,2.21-9.42,1.56Z"/>
  <path class="st0" d="M1767.99,1261.95c.87,4.04-.89,5.34-2.9,8.08-3.61,4.93-41.9,42.68-45.69,44.45-1.81.84-3.35,1.93-5.34.56l-13.91-14.37c14.34-23.72,44.29-28.16,67.84-38.71Z"/>
  <path class="st0" d="M1822,909.96v73c-6.18,4.24-17.88-.84-26.01,1.01.35-4.95-.49-10.17-.07-15.1.83-9.81,14.46-45.52,19.69-54.3,1.62-2.72,2.41-5.36,6.4-4.6Z"/>
  <path class="st0" d="M1481.99,1473.96c.55,5.19-2.87,5.6-6.89,6.08-22.19,2.63-46.77-3.27-69.1-2.12l1.99-23.99c27.48-4.27,48.88,12.82,74,20.03Z"/>
  <path class="st0" d="M954,1169.99c-3.7,4.35-9.08,18.68-12.6,21.35-6.15,4.65-23.92,7.91-31.38,12.61-2.34-17.92,4.4-34.65,12.97-49.95l31.01,16Z"/>
  <path class="st0" d="M1171.98,1473.93c-16.16-9.98-19.99-25.1-27.79-41.03l33.79-12.98c10.87,21.49,1.37,33.89-6,54.01Z"/>
  <path class="st0" d="M1545.99,1481.92c-16.81,2.04-32.56-4.34-47.16-11.94-1.41-2.21,11.04-27.81,13.15-29.16,4.22-2.7,19.26,6.53,22.07,10.07,1.67,2.1,13.18,29.94,11.94,31.04Z"/>
  <path class="st0" d="M1556.07,627.91l-4-24.76,12.9-27.15c14.27,10.7,19.17,24.65,24.96,40.85l-33.86,11.07Z"/>
  <path class="st0" d="M1816,1219.97c1.72,2.36-13.38,15.19-16.08,16.89-7.76,4.88-18.02,6.22-25.89,11.08l-9.91-32.76c18.37-13.29,33.81-2.08,51.87,4.79Z"/>
  <path class="st0" d="M961.98,801.96l7.79,33.78c-18.79,8.9-35.33,1.3-51.73-8.77,12.03-12.29,26.89-21.45,43.95-25Z"/>
  <path class="st0" d="M1235.85,578.15c1.7,2.4-12.08,32.06-16.52,31.62-1.87-.18-16.48-9.68-18.26-11.87-5.88-7.22-7.64-21.78-13.07-29.9,18.51-2.68,31.55,3.11,47.85,10.15Z"/>
  <path class="st0" d="M1823.99,845.97c3.01,18.58-4.27,31.41-10.02,47.99l-31.97-14.03c-.89-1.19,9.01-19.9,10.54-21.43,1.2-1.2,30.31-13.79,31.45-12.53Z"/>
  <path class="st0" d="M1208,229.99c-3.19,5.2-31.08,25.81-34.65,25.62l-41.35-25.62h76Z"/>
  <path class="st0" d="M2162,863.96c-3.76.85-3.87-1.26-5.67-3.33-2.56-2.96-19.84-28.2-20-29.99l25.67-42.67v76Z"/>
  <polygon class="st0" points="973.98 1753.92 920 1697.94 961 1705.92 973.98 1753.92"/>
  <polygon class="st0" points="1816 351.97 1774.79 344.19 1762.02 295.99 1816 351.97"/>
  <path class="st0" d="M2040,1471.91l8.47-41.52,47.51-12.46c.92,3.93-2.03,4.74-4.17,6.81-13.56,13.1-31.99,33.29-45.8,44.2-2.01,1.59-2.57,3.87-6.02,2.96Z"/>
  <path class="st0" d="M687.68,617.64l-47.67,12.32,53-53.98c1.83,13.86-4.61,27.73-5.33,41.65Z"/>
  <path class="st0" d="M575.97,1259.94l-3.97-2.95,2.02-73.04,24.04,33.07c.85,8.02-20.63,32.47-22.09,42.92Z"/>
  <path class="st0" d="M1604,1819.9l-75.99-2.97c6.17-4.37,27.1-22.89,32.98-22.87,14.88,6.44,30.66,15.2,43.01,25.84Z"/>
  <path class="st0" d="M903.99,1009.96c1.22,1.42-.55,24.43-2.54,27.44-.93,1.41-23.61,14.69-25.46,13.71-3.15-1.66-11.84-19.05-10-21.14,7.5,3.11,35.79-22.56,37.99-20.01Z"/>
  <path class="st0" d="M1039.98,1391.95l-21.98-6.02,10.03-43.98c22.15,14.23,19.49,27.32,11.96,50Z"/>
  <path class="st0" d="M1000,697.96l6.03-23.99c5.24,5.86,43.96,9.49,43.94,13l-19.4,16.7-30.56-5.72Z"/>
  <path class="st0" d="M1352,1487.95c27.18-4.43,31.5,7.06,43.96,26.98l-20.84,10.94-23.12-37.92Z"/>
  <path class="st0" d="M1718,664c-6.37,11.28-7.89,24.35-10.06,36.94-.49,2.82,1.88,5.88-2.91,5.01-3.62-4.43-9.85-8.5-13.01-12.98-7.85-11.09,1.77-22.24,2.06-34.93l23.92,5.95Z"/>
  <path class="st0" d="M1686.01,1363.93c-2.21-2.47,16.08-17.53,19.1-18.02,4.09-.65,27.85,4.24,28.75,7.27l-7.02,20.59-40.83-9.84Z"/>
  <path class="st0" d="M1381.98,561.97l-25.99-2.99-15.87-26.84,19.93-9.32c4.69,14.7,17.24,24.72,21.93,39.14Z"/>
  <path class="st0" d="M1870,1017.92c-13.56,3.65-25.37,12.15-36.01,21.07l-3.93-2c4.73-5.75-.34-20.05,2.35-24.63.78-1.33,23.53-15.05,26.28-14.24l11.31,19.8Z"/>
  <path class="st0" d="M565,893.96c4.91,1.52,3.32,23.15,1.98,28.02-2.49,0-33.56-20.09-36.88-23.12-2.79-2.54-.52-4.9.9-4.9h34Z"/>
  <polygon class="st0" points="1609.99 1643.94 1578.02 1695.91 1588.27 1644.19 1609.99 1643.94"/>
  <path class="st0" d="M1498,185.99v37c0,4.74-24.01.04-28.02-.02.05-1.95,18.46-29.71,21.18-32.82,2.01-2.3,3.07-4.91,6.84-4.16Z"/>
  <path class="st0" d="M2038,813.94l-48.09-8.89-3.9-23.08c2.05-2.26,48.03,27.61,51.99,31.97Z"/>
  <path class="st0" d="M1977.98,1291.95l14,57.99c-12.14-11.45-19.41-28.12-29.72-41.36-.27-1.74,13.31-18.43,15.72-16.62Z"/>
  <path class="st0" d="M747.98,1267.94l-49.98-31.98,48.03,8.95c4.19,3.55,1.06,17.27,1.95,23.03Z"/>
  <path class="st0" d="M1147.92,403.89c-6.65-1.17-12.91,1.71-18.92,2.12-3.17.22-3.38.29-3.03-3.04l30.02-48.98-8.06,49.9Z"/>
  <path class="st0" d="M872.01,385.97l-8-45.98c3.47-.9,4,1.44,6,2.98,8.25,6.34,15.74,17.16,23.95,24.01-2.93,2.07-19.28,21.77-21.95,18.99Z"/>
  <path class="st0" d="M756.01,757.96l-11.99-57.99,27.7,39.48c1.33,3.68-13.82,20.51-15.71,18.5Z"/>
  <path class="st0" d="M1690,402c-6.42,5.6-31.15,25.6-37.83,27.08-5.67,1.26-13.87-10.75-18.16-14.11l55.99-12.97Z"/>
  <path class="st0" d="M1499.99,351.99c-.58,5.78,1.78,21.83-2.49,25.5l-41.5,16.46c12.03-11.55,25.06-29.07,37.99-38.99,2.01-1.54,2.54-3.88,6-2.98Z"/>
  <path class="st0" d="M1099.99,1635.92l-57.98,11.99,41.3-27.57c4.26-1.27,19.16,13.32,16.68,15.58Z"/>
  <path class="st0" d="M1869.99,1707.91c-2.53,2.82-25.03-22.56-27.84-25.26l18.87-20.71,8.98,45.98Z"/>
  <path class="st0" d="M2052,522l-27.27,27.83c-3.6.63-16.58-15.02-18.71-18.88,14.63-4.93,30.6-8.15,45.98-8.96Z"/>
  <path class="st0" d="M730,1519.91l-45.99,8.01c-.9-3.47,1.44-4,2.98-6,6.34-8.25,17.16-15.74,24.01-23.95l19,21.94Z"/>
  <path class="st0" d="M1236.02,1697.92l.32-25.67,41.64-18.33c.88,3.75-2.09,4.76-3.98,7-11.16,13.32-25.62,24.8-37.98,36.99Z"/>
  <path class="st0" d="M1266,1823.92c-8.61,13.38-16.59,29.02-28,40v-40h28Z"/>
  <polygon class="st0" points="904 1049.95 904 1084.95 900.03 1097.94 881.83 1061.22 904 1049.95"/>
  <path class="st0" d="M1090,1405.92l-40.01-9.99,6.03-25.98c12.51,10.74,24.55,22.42,33.98,35.97Z"/>
  <path class="st0" d="M798,1407.94c3.43-4.42,13.84-17.02,18.97-17.21l43.03,17.21h-62Z"/>
  <polygon class="st0" points="1427 1487.93 1441.99 1491.91 1405.2 1509.77 1392 1487.93 1427 1487.93"/>
  <path class="st0" d="M1683.75,654.22l-.67,9.84-6.05,13.9c-11.36-11.69-24-22.28-33.03-35.96l39.75,12.22Z"/>
  <path class="st0" d="M1982,1109.95c10.47,12.17,14.57,30.55,22.03,44.97-.02,1.69-19.59,6.05-22.03.03v-45Z"/>
  <path class="st0" d="M1737.87,1341.86c-1.55,1.13-16.85-3.68-19.88-4.99-2.47-1.07-4.86.07-3.97-3.9l35.96-33.02-12.11,41.91Z"/>
  <path class="st0" d="M986.02,747.97l10.13-39.84c1.97-1.7,22.91,3.14,24.88,5.83l-35.01,34.01Z"/>
  <path class="st0" d="M737.98,935.96l-43.98-43.98c6.77,1,20.15-2.39,25.03,1.95l18.95,42.02Z"/>
  <path class="st0" d="M1454,409.98c-1.09-5.81,1.69-3.19,4.4-4.52,13.1-6.41,26.83-12.56,40.58-17.51,1.52.12,2.76,20.01-1.98,22.02h-43Z"/>
  <path class="st0" d="M984,455.98c3.99,3.19,17.67,14.49,17.62,18.6-4.69,10.89-8.17,22.38-12.69,33.32-.99,2.41-2.06,8.01-4.93,8.07v-60Z"/>
  <path class="st0" d="M1832,999.96v-50c9.17,10.41,14.58,25.08,21.81,37.03l-21.81,12.96Z"/>
  <path class="st0" d="M2169,1153.95c-2.04-1.49-2.17-1.75-2.18-4.08-.02-7.12,2.46-16.19,1.2-23.92,11.01,8.54,24.56,14.87,35.45,23.42,1.63,1.28,3.65-.08,2.53,4.58h-37Z"/>
  <path class="st0" d="M1342,559.97h-50l37.02-21.61c2.48.19,12.71,17.44,12.98,21.61Z"/>
  <path class="st0" d="M2040,1155.93c-6.82-1-20.07,2.4-25.02-1.96l-16.96-40.02,41.98,41.98Z"/>
  <polygon class="st0" points="872 1399.92 824.04 1380.94 839 1365.98 872 1399.92"/>
  <path class="st0" d="M1282,1639.93l-45.98,22c-.55-7.16-5.45-16.19.98-22h45Z"/>
  <path class="st0" d="M1909.99,666c1.78,2.46-11.91,16.32-14.72,15.83l-31.27-31.83,45.99,16.01Z"/>
  <polygon class="st0" points="752 891.96 752 937.96 730 891.98 752 891.96"/>
  <path class="st0" d="M1750,1593.93c-6.85-4.38-12.2-11.97-16.07-19.08l16.07-40.92v60Z"/>
  <path class="st0" d="M1936,641.97c-3.33,4.15-12.33,15.55-17.05,16.03l-42.95-16.03h60Z"/>
  <path class="st0" d="M1725.98,1567.92c-2.45,1.78-16.32-11.9-15.83-14.72l31.84-31.27-16,45.99Z"/>
  <path class="st0" d="M994.02,525.98c3.41-11.61,7.78-29.18,13.57-39.41,6.11-10.79,11.91,4,18.37,8.41l-31.94,31Z"/>
  <path class="st0" d="M2167.99,1667.94c2.79,2.66-18.2,21.35-19.96,19.99l-8.02-25.99,27.98,6Z"/>
  <path class="st0" d="M1627.99,1679.91c-4.61-.55-25.68,2-25.94-2.98l14.95-22.97,10.99,25.95Z"/>
  <polygon class="st0" points="1636.02 403.98 1646.99 375.99 1663.96 394.98 1636.02 403.98"/>
  <path class="st0" d="M738,1275.92l-25.98,10.02.92-24.06c2.1-2.71,2.49-1.87,5.05-.96,2.03.72,21.6,13.45,20.01,15Z"/>
  <path class="st0" d="M370,1117.97c1.72,2.23-24.4,17.75-25.98,15.97.03-8.77-.93-17.57,2.01-25.98l23.97,10.02Z"/>
  <path class="st0" d="M593.99,385.97l-27.98-6.98,19-16.96c2.02.15,10.5,22.44,8.98,23.94Z"/>
  <polygon class="st0" points="745.99 755.96 720.04 744.97 739.01 727.98 745.99 755.96"/>
  <path class="st0" d="M1100,1645.95l-10.02,25.98c-1.96,1.75-17.26-15.41-17.97-17.03-.94-2.18.22-3.38,2.46-3.44l25.52-5.51Z"/>
  <path class="st0" d="M2013.99,1301.97c2.6,3.61-17.9,20.17-19.98,17.96l-4-25.98,23.98,8.02Z"/>
  <path class="st0" d="M1283.99,2.01c.9.81-8.09,19.21-9.51,21.41-1.25,1.93.21,3.59-4.44,2.56l-12.03-23.97h25.98Z"/>
  <path class="st0" d="M2023.99,763.97l-2.01,25.99-23.94-15c.04-2.2,25-12.04,25.95-10.99Z"/>
  <path class="st0" d="M1131.99,369.99c1.32,1.17-9.74,19.32-11.41,21.47-1.28,1.65.03,3.66-4.55,2.51-1.87-8.92-8.59-16.64-8.02-25.98l23.98,2Z"/>
  <path class="st0" d="M729.99,1797.93c-1.88,7.1-3.19,14.57-5.47,21.57-.86,2.63.79,5.3-3.5,4.4l-16.99-16.98c0-2.23,24.7-10.16,25.95-8.99Z"/>
  <path class="st0" d="M2389.99,939.95c-1.98,2.03-23.98-9.36-23.95-10.99l23.94-15v25.99Z"/>
  <path class="st0" d="M2029.99,243.97l-23.98,8.01,6.01-27.98c3.4,2.33,20.1,17.05,17.97,19.97Z"/>
  <path class="st0" d="M1437.99,2.01c2.6,2.31-17.04,20.22-19.97,21.99l.85-20.13c2.56-3.68,14.48-1.24,19.12-1.86Z"/>
  <path class="st0" d="M2038.02,1767.92l15.94,15-12.96,12.96c-4.99.11-2.44-23.55-2.98-27.96Z"/>
  <path class="st0" d="M2137.99,353.97l-25.98-.98,14.99-14.97c4.14,5.01,11.98,8.47,10.99,15.95Z"/>
  <path class="st0" d="M2390.01,1075.94l-.02,18c-1.96,2.25-20.04-14.35-21.98-17l22-1Z"/>
  <path class="st0" d="M365.99,973.95l-20,.02.03-20.01c2.24,2.53,23.31,17.01,19.97,19.99Z"/>
  <path class="st0" d="M622,1695.94l-13.27,13.83-12.71-10.88c-.84-4.53,1.98-2.76,4.95-2.97,6.94-.51,14.09.34,21.03.02Z"/>
  <path class="st0" d="M695.99,254l-.98,25.98-12.87-14.72c1.54-2.1,11.7-13.68,13.84-11.26Z"/>
  <path class="st0" d="M1316.01,2045.92l-18-.02c-2.83-2.52,15.15-17.31,17-19.98l1,20Z"/>
</svg>