<svg xmlns="http://www.w3.org/2000/svg" width="2732" height="2048" viewBox="0 0 2732 2048">
  <defs>
    <style>
      .cls-1 {
        fill: #b7fe0e;
        fill-rule: evenodd;
      }
    </style>
  </defs>
  <path id="Color_Fill_1" data-name="Color Fill 1" class="cls-1" d="M1705,0l20,2c1.73,15.427.63,42.878-3,57q-4.995,3-10,6l-7-2c-1.67-2-3.33-4-5-6-5.31-11.53-2.72-42.225,0-56ZM1519,2c31.57,1.291,40.43,5.115,55,22,0.23,9.319-1.67,11.917-5,17-2.67,1-5.33,2-8,3-17.36-7.521-30.58-26.925-43-40C1518.33,3.333,1518.67,2.667,1519,2Zm158,7,8,1c1.67,2,3.33,4,5,6,5.39,19.365,3.93,52.525-1,72-5.36,4.134-6.96,6.876-17,7-0.67-1-1.33-2-2-3-11.05-11.821-5.78-69.567,2-81C1673.67,10.333,1675.33,9.667,1677,9ZM1519,20c10.88,4.529,57.65,47.559,53,60-2.42,6.617-5.43,8.435-15,8-12.73-8.116-49.16-40.438-50-58,1.96-4.066,2.85-6,7-8C1515.67,21.333,1517.33,20.667,1519,20ZM1030,38c18.85-.23,82.48,58.11,49,70-11.95-4.216-57.95-48.173-55-59C1024.77,42.563,1026.57,41.4,1030,38Zm197,4q5.505,2,11,4c6.86,18.513,4.05,59.45,0,77-32.37,22.609-25.87-54.169-20-75Zm415,0c27.76-.173,17.92,76.31,10,81-2.7,2.439-4.63,2.88-10,3-2.33-1.333-4.67-2.667-7-4-4.9-16.923-5.73-63.414,3-78C1639.33,43.333,1640.67,42.667,1642,42ZM895,48h3c8.08,5.858,40.673,36.556,36,49l-7,7h-9c-13.185-6.1-32.357-27.18-39-40Zm618,18c16.38,0.149,52.45,40.58,58,53q-1.005,5-2,10c-1.67,1.333-3.33,2.667-5,4-17.32-.134-58.13-41.725-59-58C1507.38,70.336,1509.29,69.118,1513,66Zm98,7c6.08,0.5,8.69,1.749,11,6,6.26,8.66,1.29,56.606,1,70-13.89,11.235-27.55,38.362-46,19,0.33-3,.67-6,1-9q10.005-10.5,20-21c7.42-21.7-3.45-46,6-62C1606.33,75,1608.67,74,1611,73Zm-419,1,9,1c9.77,7.351,10.19,73.616-1,80-28.4,24.91-18.12-64.184-15-76C1187.33,77.334,1189.67,75.667,1192,74ZM874,81c14.487,0.449,63.207,46.875,57,62-1.871,4.644-3.883,7.329-10,8-10.984-4.873-56.756-48.029-54-59C868.019,85.552,870.339,84.456,874,81Zm158,1c13.4,2.083,57.29,48.387,55,63-3.09,4.154-5.81,5.812-11,8-10.4-4.158-57.8-48.243-55-61C1022.17,86.674,1027.96,84.641,1032,82Zm787,7,6,1c16.16,7.171,10.22,71.98,2,85l-9,1c-18.72-4.4-13.14-60.542-8-81Zm-815,13c7.12,0.766,10.61,3.592,13,9,5.07,17.391,4.23,68.634-7,75-5.71,4.027-10.976,1.034-15-2-5.572-18.312-3.655-57.078,1-77Q1000,104.5,1004,102Zm154,3,9,1,6,6c8.04,16.525,1.9,63.717-6,76l-11,2q-3.495-4-7-8c-6.3-15.08-.29-66.245,5-75C1155.33,106.333,1156.67,105.667,1158,105Zm223,1c24.78,0.024,60.42-2.043,73,11-0.33,2.666-.67,5.334-1,8q-3.495,3.5-7,7c-17.14,8.4-66.34.824-77-7-0.33-3-.67-6-1-9,1.62-3.2,1.85-4.189,5-6Q1377.005,108,1381,106Zm131,6c11.8,0.592,55.88,42.7,58,51q-1.5,19.5-3,39c-4.47,3.276-6.29,5.421-14,6-4.22-2.717-6.71-3.192-9-8V172c-14.85-11.318-29.08-28.68-40-44-0.06-7.5,1.38-9.768,4-14C1509.33,113.333,1510.67,112.667,1512,112Zm241,2,9,2,3,5c4.2,16.356-41.88,55.488-56,60C1675.79,168.864,1741.71,121.6,1753,114Zm-51,1,11,1c4.05,3.85,6.19,5.525,7,13-11.39,17.713-55.97,69.025-93,45l-3-9q2.505-5,5-10c8.23-2.039,22.85,2.011,32-2Q1681.505,134,1702,115Zm81,5,10,1,6,4c2.85,25.735,5.27,70.027-11,81-3.33-.667-6.67-1.333-10-2C1767.37,187.52,1771.27,131.522,1783,120Zm-909,8c15.944,0.34,56.775,42.218,58,57l-7,10-10-1c-10.1-4.46-43.482-38.837-48-49v-9Zm157,2c13.54,0.888,54.66,43.839,56,57q-2.505,4.5-5,9c-3.33.667-6.67,1.333-10,2-9.31-3.959-48.62-42.973-51-52C1018.45,136.32,1026.43,133.035,1031,130Zm-60,6c5.4,0.293,9.667.835,12,4,4.161,5.646,3.514,60.166,0,70l-28,28-12-2-4-6v-9l20-23c3.422-15.246-1.2-42.784,4-58Zm155,0,9,2c8.82,11.238,13.01,50.954,6,72-3.09,9.274-27.07,34.972-40,30-5.87-2.648-8.16-7.241-8-16,5.04-10.585,15.18-16.14,22-25-0.49-22.581-2.14-49.125,7-62Zm283,5c23.59-.4,58.16-3.85,74,6,1.31,4.448,1.93,6.93,1,12-5.76,7.619-65.99,12.189-76,4-5.36-2.316-7.61-5.634-8-13,0.33-.333.67-0.667,1-1Q1405.005,145,1409,141Zm344,12,12,5c5.11,21.92,8.65,78.793-16,79-2.33-1.333-4.67-2.667-7-4-5.27-20.848-2.66-56.759,2-76ZM781,169c15.237-.755,27.357-1.123,32,9,2.014,6.656-.265,11.585-3,16-13.16,3.216-47.132,6.082-58,0l12-13Zm92,5c11.19,0.371,53.662,41.69,56,50,3.566,12.672.348,34.85-5,44-8.031,2.12-12.854,1.768-19-2-2.26-8.467,2.283-25.84-2-34-7.115-13.555-42.366-28.232-38-47q0.5-3,1-6Zm570,0c24.83-.691,65.82-4.095,73,14-0.73,5.9-2.45,7.342-5,11-13.86,4.1-72.41,3.492-78-8-2.33-7.652.61-10.652,4-15Zm-412,1c22.62,4.4,39.92,35.268,54,50q-1.005,20-2,40c-2.94,3.724-5.86,4.422-10,7l-12-5c-1.61-7.083,1.56-24.549-2-33-4.24-10.054-30.85-30.4-40-46,0.67-2.333,1.33-4.667,2-7Q1025.995,178,1031,175Zm191,2,8,1c1.67,2,3.33,4,5,6,0.67,1.667,1.33,3.333,2,5-3.89,10.691-41.41,50.948-51,54-14.53,4.625-39.1.089-43-8-11.94-19.987,18.84-20.073,36-19C1190.39,200.865,1206.12,187.752,1222,177Zm47,0c6.14,0.657,8.1,2.481,12,5,0.67,1.667,1.33,3.333,2,5-2.47,15.482-41.92,55.808-59,57q-4.005-4-8-8V226C1230.25,207.063,1249.44,190.818,1269,177Zm44,3,8,1q3.495,3.5,7,7c-0.63,16.7-43.3,56.986-60,58q-4.005-4-8-8c0.33-3,.67-6,1-9C1270.29,209.756,1297.19,193.779,1313,180Zm45,2,10,1,6,5c-0.3,15.543-47.78,63.028-61,58-5.36-2.316-7.61-5.634-8-13C1316.27,213.732,1339.54,194.529,1358,182Zm361,2c7.32,1.025,9.68,3.411,14,7,1.45,13.071,3.88,59.589-1,70-3.74,7.986-24.46,25.949-35,27-4.56-2.932-7.57-3.814-10-9-3.53-14.315,13.4-22.733,20-31,0.3-14.965-4.06-49.065,5-59C1714.11,185.9,1715.8,185.936,1719,184Zm-56,3c18.12-.169,39.88,21.81,39,43-0.33.667-.67,1.333-1,2-6.4.8-13.68,1.6-19-1-8.18-3.574-29.96-22.573-25-35ZM790,202c19.5-.576,54.34-4.777,56,17l-8,8c-18.826,5.262-52.867,3.234-71-1-3.371-4.551-5.549-5.957-6-14l4-7Zm680,6h69c8.53,10.95,26.71,18.819,28,36-2.18,6.289-7.4,13.668-15,11-12.06-3.229-14.7-17.51-25-21l-56-2c-5.08-3.587-8.17-6.967-9-15A37.05,37.05,0,0,1,1470,208Zm-444,3c6.29,1.8,14.69,10.154,16,17-13.41,15.159-50.268,24.609-58-4C992.014,207.965,1013.78,220.611,1026,211Zm790,13c5.78,0.771,7.25,2.555,11,5,1.22,4.233,3.14,10.18,1,15-4.2,9.71-35.79,40.08-45,45-10.91,5.828-35.61,1.491-46-1-1.67-2-3.33-4-5-6q1.005-6.5,2-13c12.58-8.245,28.36.007,39-6C1788.76,254.107,1799.76,234.735,1816,224Zm44,2c6.67,0.186,10.52,1.584,13,6,2.1,2.351,3.11,5.1,2,8-2.35,11.149-46.26,54.165-58,51-5.03-.968-6.91-2.135-9-6V275C1816.85,256.548,1843.19,237.317,1860,226Zm45,2c10.66-.247,15.6,4.011,16,14-6.09,12.54-42.09,49.913-58,51-4.92-2.019-6.72-3.639-10-7C1853.41,259.641,1889.57,241.484,1905,228Zm47,1c9.58,0.513,14.57,4.2,15,14-6.95,12.045-43.9,51.886-59,53-5.27-2.575-8.17-4.992-11-10C1899.69,268.725,1938.12,238.088,1952,229Zm-290,5,12,2c7.87,12.059,1.78,31.636,7,46,6.37,17.548,41.99,11,37,41-2.83,4.213-8.22,8.91-14,7-23.5-5.383-63.11-57.677-46-94C1659.33,235.333,1660.67,234.667,1662,234Zm-860,1c23.176-.487,56.966-3.043,72,7,1.159,3.7,2.716,6.909,1,11l-7,7c-15.577,8.129-68.434.775-76-7q0.5-4.5,1-9C795.208,238.98,797.849,237.938,802,235Zm224,14c24.34,2.554,23.09,28.464,53,29,7.17-10.172,22.59-8.809,36-5,5.73,7.9,5.33,14.044,0,22-21.92,5.952-45.1.209-70,0-9.1-10.55-27.13-19.031-29-36C1018.84,253.48,1021.42,252.557,1026,249Zm158,1c13.05,2.913,15.91,18.241,27,22,18.78,6.369,45.15-3.656,61,4,1.98,5.012,3.69,6.509,4,14-6.52,9.415-56.94,13.4-75,7-9.81-3.479-27.59-22.623-29-35,2.18-3.493,2.32-5.834,6-8Zm237,8,7,1c3.98,2.886,5.5,4.324,6,11-5.13,14.034-43.58,53.4-61,54-5.81-3-6.74-5.514-10-11C1371.39,291.555,1401.27,268.916,1421,258Zm41,2c11.93-.739,17.53,2.18,18,13-13.67,20.963-34.12,35.265-52,52-8.57.082-11.19-1.878-16-5-0.33-2.666-.67-5.334-1-8C1413.4,298.6,1451.12,268.974,1462,260Zm47,2c7.73-.115,8.97,1.153,13,4,0.33,0.667.67,1.333,1,2-0.33,3.666-.67,7.334-1,11-5.03,10.716-44.42,48.457-59,49C1434.79,311.835,1496.84,270.954,1509,262Zm43,1,38,1q3.495,3.5,7,7-0.495,6-1,12c-9.02,10.756-19.7.29-34,5-19.84,6.532-24.59,39.866-50,41-2.33-1-4.67-2-7-3l-3-6C1505.1,295.53,1536.03,276.178,1552,263Zm77,2,11,2c1.67,2,3.33,4,5,6-0.53,17.084-14.14,22-22,32,0.23,20.674,2.23,40.939-2,58-4.99,3.574-8.6,6.194-16,5-8.77-6.623-13.02-63.847-5-77Q1614.505,278,1629,265Zm-788,4c15.472-.324,51.283-2.938,60,3,9.722,6.069,22.011,20.154,26,32-2.658,7.81-4.6,9.976-12,13-13.248-2.007-17.475-14.1-26-21-21.286.438-51.47,1.062-64-8q-0.5-4-1-8l4-8Zm812,20,21,21c-0.67,2.333-1.33,4.667-2,7-7.62,2.27-14.69,2.351-18-5C1651.38,307.2,1651.15,295.075,1653,289Zm-628,6,6,1c14.48,7.5,1.45,22.167,8,38,7.98,19.279,38.41,20.786,39,49-1.33,2.333-2.67,4.667-4,7l-9,1C1043.92,388.051,986.166,319.086,1025,295Zm157,2c21.95,7.176,6.39,19.658,13,38,4.89,13.574,45.75,34.38,39,52l-6,7c-14.76-.281-55.7-40.925-59-52-3.47-11.631.75-38.232,7-42Zm593,2,8,1q10.995,10,22,20c20.16-.242,41.87-0.545,58,3,1.67,2,3.33,4,5,6-0.33,3-.67,6-1,9l-6,6c-6.25,3.263-59.76,4.131-69,1-9.72-3.294-26.55-22.1-27-35,1.66-4,2.31-5.939,6-8C1772.33,301,1773.67,300,1775,299Zm-726,1,32,2v9c-3.17,4.369-5.73,6.5-13,7C1060.01,314.615,1052.01,308.283,1049,300Zm194,5,58,3c3.28,4.467,5.42,6.291,6,14-2.11,4.418-3.48,6.888-8,9-10.29,5.839-65.05,1.293-74-4q-1.005-5.5-2-11c1.33-2.333,2.67-4.667,4-7Zm331,11,10,1c11.99,9.826,7.24,61.952,4,78l-6,6-9-1C1555.57,391.767,1564.37,325.116,1574,316Zm-797,4,9,1,7,6q-0.5,5-1,10c-5.251,11.181-44.256,48.208-59,49l-9-7C724.548,357.662,763.065,331.289,777,320Zm852,1c26.33-.635,34.54,12.487,45,27,0.28,8.653-1.07,12.239-4,17-0.67.333-1.33,0.667-2,1-16.47.159-29.93-13.556-37-23C1628.09,337.487,1628.32,326.208,1629,321Zm-807,1c9.09-.213,10.367,1.514,15,5,2.919,14.78-43.984,64.792-60,58l-6-5q0.5-4.5,1-9C780.729,352.8,806.374,334.341,822,322Zm47,1c7.639,0.762,10.394,3.569,15,7q0.5,4.5,1,9c-12.909,17.639-34.406,40.774-55,50-6.889-.853-9.059-3.487-13-7C817.477,355.47,853.893,337.232,869,323Zm41,2c15.724-.378,36.2-1.681,46,4l3,13-4,7-35,3c-16.706,9.519-25.7,41.517-52,37l-6-6C862.621,363.238,898.831,339.457,910,325Zm159,2,39,2c3.83,5.356,6.51,8.5,6,16-5.34,7.957-36.26,14.091-44,9l-15-13Q1062.005,334,1069,327Zm-83,1c5.276-.244,9.353-0.1,12,2,20.19,9.983-8.373,29.152-14,36,0.2,20.039,1.8,43.388-2,60l-12,6c-13.315-5.683-19.79-62.984-10-79Zm160,1,5,1c5.65,2.322,7.34,5.906,11,10-1.51,15.016-15.49,17.465-21,28-10.72,20.5,13.03,70.907-20,66-8.12-6.239-12.82-69.983-3-83Q1131.995,340,1146,329Zm119,9c22.28,2.44,56.06-2.925,71,7l3,11c-1.62,3.2-1.85,4.189-5,6-9.06,8.913-80.51,9.454-81-14,1.5-3.5,1.98-5,5-7C1260.33,340,1262.67,339,1265,338Zm507,8c7.52-.267,11.15.643,14,5,3.73,6.868-1.53,21.045,2,31q19.995,21.5,40,43c-0.14,7.746-2.12,11.376-5,16-0.67.333-1.33,0.667-2,1-14.71-.151-54.15-38.7-58-49-3.92-10.486-.68-32.614,1-40Q1768.005,349.5,1772,346Zm-230,1c7.78-.119,9.73,1.28,14,4,5.25,20.736,2.8,56.216-2,75l-6,5c-8.16.2-10.56-1.18-15-4C1526.78,403.3,1528.16,358.476,1542,347Zm326,5c11.56,2.724,22.69,2.134,31,7q1.005,5,2,10c-1.62,3.2-1.85,4.189-5,6-12.96,12.39-71.86,3.619-80-5,0.33-3.333.67-6.667,1-10C1827.28,347.054,1852.45,357.815,1868,352Zm-848,18c14.6,0.587,57.22,44.684,59,58-1.33,2.333-2.67,4.667-4,7l-10,2c-10.78-1.644-56.83-47.316-52-60Q1016.5,373.5,1020,370Zm156,2c14.59,0.227,61.63,47.073,56,61l-6,7c-19.84-.415-52.57-40.243-59-56,0.54-5.43,1.2-6.875,5-9C1173.33,374,1174.67,373,1176,372Zm116,0c24.66-.48,63.89-4.441,77,9-0.33,3.666-.67,7.334-1,11-9.2,17.9-73.6,6.7-83-3C1284.53,378.147,1286.17,376.24,1292,372Zm373,1,37,4c1.33,1.666,2.67,3.334,4,5,0.28,7.752-.57,12.586-3,17l-36,4c-15.51,9.475-26.06,35.71-46,39-4.44-2.831-7.49-4.456-11-8C1610.2,412.1,1650.26,383.373,1665,373Zm-153,4,6,1c1.67,1.333,3.33,2.667,5,4v65c7.45,15.69,10.92,62.779,1,80l-11,3q-4.005-2.5-8-5c-4.09-14.453,1.4-35.443-1-53-2.04-14.941-7.7-27.043-6-47,1.5-17.578-2.86-39.6,10-46C1509.33,378.333,1510.67,377.667,1512,377Zm226,0c11-.255,15.97,4.3,16,15-5.05,9.977-18.43,14.6-22,24-6.45,16.977,8.45,53.682-7,63-3.22,2.685-5.68,2.369-10,2-1.67-1-3.33-2-5-3-3.82-12.011-7.6-63.623-1-76Q1723.505,389.5,1738,377Zm-804,1h8c12.321,14.979,12.8,68.954,0,86l-10-1c-3.559-1.423-4.21-1.78-6-5C916.543,441.37,926.143,386,934,378Zm1078,4c17.37,0.331,69.59,51.318,51,69l-10-1c-11.24-5.276-48.23-44.105-49-59C2006.46,386.94,2008.57,384.988,2012,382Zm-159,5c25.31-.944,81.93-7.748,77,19-11.39,14.017-64.03,6.7-81,2l-3-11C1848.02,392.081,1849.64,390.278,1853,387ZM902,408l8,1c14.2,6.853,8.643,60.355,5,78-4.992,3.71-6.736,5.9-16,6l-6-4c-4.291-17.184-3.083-55.448,1-74Zm1293,2c16.23,7.353,30.46,27.683,25,54q-4.005,3.5-8,7c-6.66,2.014-11.59-.265-16-3C2192.16,451.471,2192.73,426.591,2195,410Zm-1175,4c14.32,1.207,55.03,44.246,56,59q-4.005,5-8,10c-14.76-.118-59.72-45.886-57-57C1012.32,418.607,1015.08,417.513,1020,414Zm154,3c15.57,0.609,56.75,44.425,57,61-0.67,1.333-1.33,2.667-2,4-3.61,1.879-8.02,4.2-13,2-10.25-4.7-53.7-46.569-48-61Zm998,2c7.19,0.013,10.48,1.346,13,6,5.39,10.2,3.85,71.235-4,76l-6,3c-6.73-.695-9.72-2.9-12-8-5.26-18.826-3.23-52.867,1-71Q2168.005,422,2172,419Zm-286,1c28.6-.566,62.11-3.242,77,10-0.54,25.149-61.06,17.484-81,12-1.33-1.666-2.67-3.334-4-5C1877.49,425.366,1879.4,424.239,1886,420Zm-118,1c25.52,0.706,44.21,34.365,58,49q-1.005,6.5-2,13c-4.33,2.965-6.45,4.688-14,5-20.32-10.651-34.92-34.537-50-51,0.33-3.333.67-6.667,1-10Q1764.5,424,1768,421ZM580,423c13.261,0.96,56.713,45.442,58,58-2.638,7.017-5.07,11.111-14,12-13.966-10.9-51.162-40.048-53-60A39.657,39.657,0,0,1,580,423Zm192,4h8c11.156,14.394,11.851,66.671,1,84H768l-4-2C757.671,484.645,759.929,440.524,772,427Zm911,0c25.58,1.091,19.38,69.39,9,84l-9,2q-4.005-2.5-8-5c-5.73-19.357-3.97-62.592,4-79C1680.33,428.333,1681.67,427.667,1683,427Zm327,2,9,1c11.57,5.2,62.18,51.037,42,66l-9-1c-9.51-4.348-52.76-45.89-47-60C2006.67,433,2008.33,431,2010,429ZM869,439l10,1c9.1,16.608,8.379,67.782-2,84-30.741,7.4-20.517-63.577-13-82Zm453,1c13.67,2.551,53.9,44.769,55,60-1.33,2.333-2.67,4.667-4,7l-10,2c-21.26-10.814-36.09-34.337-52-51C1310.91,445.977,1315.04,444.6,1322,440Zm815,10,9,1c4.32,1.816,6.16,3.669,8,8,4.26,14.951.12,63.99-6,73-3.33.667-6.67,1.333-10,2-3.2-1.622-4.19-1.849-6-5-9.03-9.644-3.2-68.441,2-77Zm-486,8c6.89,0.136,8.07,1.5,12,4,5.01,15.344,8.81,82.232-12,81-4.76-.282-6.09-1.8-8-5C1631.18,519.526,1641.06,467.309,1651,458Zm-912,1c24.123,0.321,19.411,75.29,8,83-27.21,17.744-18.85-61.484-15-77Zm279,0,5,1q22.5,22,45,44c19.55,9.324,29.91,20.856,44,35,7.77,7.8,22.8,24.931,5,33-14.45,2.821-27.85-18.133-35-27-15.44-19.146-79.29-47.413-71-81C1013.33,462.334,1015.67,460.666,1018,459Zm158,2c23.74,8.889,38.12,35.607,54,53q-1.005,6-2,12l-6,5-7-1c-14.43-6.169-52.84-44.017-48-63Zm592,3,6,1c10.43,4.339,49.79,45.036,51,58-2.83,4.441-4.46,7.5-8,11-16.46-.331-57.55-43.288-59-58,1.57-4.555,2.02-6.767,6-9C1765.33,466,1766.67,465,1768,464ZM579,469c14.524,0.892,55.087,43.209,56,58l-5,9c-17.792,3.459-58.989-41.407-60-57C572.591,473.864,574.881,472.405,579,469Zm1429,6c19.04,0.28,51.23,39.487,59,53-0.99,7.057-3.43,11.463-9,14-14.19,3.3-52-41.981-57-54C2001.85,481.111,2004.49,478.941,2008,475Zm-530,3,10,1c11.75,5.94,13.64,79.919-10,82l-6-4c-5.81-19.156-5.09-62.876,4-78C1476.67,478.667,1477.33,478.333,1478,478Zm630,3c2.33,0.667,4.67,1.333,7,2,9.67,14.577,7.14,57.815,4,77-9.38,5.738-22.19,27.386-35,24-7.14-1.543-8.58-4.9-11-11,2.01-13.248,14.1-17.475,21-26-0.42-21.2-1.04-51.5,8-64Zm-788,5c13.44,1.69,56.68,45.947,57,61-14.91,24.2-69.55-34.085-65-55Q1316.005,489,1320,486Zm-614,3,6,1c12.679,5.326,20.8,89.173-10,83-14.177-10.781-9.044-69.508-1-82Zm911,1,10,1c1.33,0.667,2.67,1.333,4,2,5.66,19.736,3.31,53.1-1,74-5.01,7.5-17.77,10.215-22,0C1601.13,542.874,1604.91,501.117,1617,490Zm-357,19c7.04,0.066,8.96,1.5,13,4,4.55,11.454,9.56,69.632-4,78l-3,1c-10.29-23.9-23.52-44.394-11-80C1256.67,511,1258.33,510,1260,509Zm189,0c18.67,3.094,14.95,59.325,10,79-1.67,1.333-3.33,2.667-5,4-9.06.387-13.24-1.091-16-7-6.48-14.6-2.54-54.245,1-70Q1444,512,1449,509Zm317,1,7,1c9.2,4.228,53.43,48.163,49,60q-3.495,4-7,8c-21.68-.29-50.28-38.788-58-55C1758.01,516.044,1761.48,514.138,1766,510ZM580,514c17.621,4.874,48.166,40.051,54,58-1.758,4.616-2.836,7.7-7,10H617c-9.945-4.443-62.761-53.578-43-65Zm1293,2c27.43-.584,64.47-3.032,78,11-0.33,3.333-.67,6.667-1,10-12.8,7.162-75.87,12.179-84-4C1861.61,524.81,1866.89,519.645,1873,516Zm134,4c14.76,0.41,50.18,38.441,58,49,0.21,14.328.82,31.737-2,43-4.54,3.114-6.9,4.847-15,5-2.33-1.333-4.67-2.667-7-4q-1.5-17.5-3-35c-9.52-16.706-41.52-25.7-37-52ZM671,522l9,1,6,6c3.077,5.716,4.106,60.3,1,69l-15,16c-6.047,5.757-20.21,18.54-28,5a11.063,11.063,0,0,1-2-12l20-22c-0.246-20.016-.7-42.108,3-58Zm1532,0q5.505,2.5,11,5,1.005,5,2,10c-12.06,24.041-57.06,66.513-94,45-1.44-6.292-3.4-14.906,2-19,8.42-6.382,24.66,3.287,34-2C2175.55,551.066,2183.18,531.789,2203,522Zm43,2,8,1q4.005,3.5,8,7c-0.33,15.827-42.29,57.065-57,58l-3-1c-4.36-2.856-9.71-8.339-6-16C2204.54,554.505,2230.48,536.554,2246,524Zm49,0c37.02,7.7-26.24,62.9-37,66-9.62,2.772-15.72-2.954-19-7C2240.77,564.65,2280.58,532.51,2295,524Zm-978,9c15.3,0.483,57.11,42.451,58,57l-6,10-8,1c-12.48-8.383-51.17-42.079-52-59,1.33-2.333,2.67-4.667,4-7C1314.33,534.333,1315.67,533.667,1317,533Zm1008,4q8.505,8.5,17,17c-3.2,10.385-34.04,38.539-48,39-5.56-2.516-11.98-8.463-8-17C2293.03,560.95,2312.59,547.338,2325,537Zm-1097,3,8,1c7.57,3.423,9.53,18.252,5,27-6.72.364-18.54,1.307-22-2V548Zm184,0c8.4-.05,11.18,1.953,16,5,2.8,11.086,3.52,56.949-1,70-5.09,14.693-30.98,35.236-45,20,0.33-16.4,12.58-20.587,20-30-0.77-18.191-2.94-48.507,5-62C1408.67,542,1410.33,541,1412,540Zm494,9,68,3c4.34,2.882,10.21,8.832,7,16-6.86,14.268-62.07,9.229-80,4-1.98-5.012-3.69-6.509-4-14,1.62-3.2,1.85-4.189,5-6C1903.33,551,1904.67,550,1906,549Zm-837,2c9.77,1.662,51.53,42.147,54,51,2.41,8.623-3.67,12.753-7,16-16.66-.348-56.14-42.228-57-58,0.33-1,.67-2,1-3Zm-625,5c21.792-.354,57.494-2.579,73,7q0.5,4.5,1,9c-4.4,18.686-60.574,13.122-81,8-3.276-4.467-5.421-6.291-6-14C434.521,559.6,437.487,559.408,444,556Zm132,5,10,1c9.116,3.947,40.646,36.343,45,45,5.736,11.406,1.4,34.989-1,46l-6,5-13-2c-8.462-12.672-.154-28.381-6-39-9.708-17.634-35.589-22.571-39-47A40.48,40.48,0,0,1,576,561Zm191,1c11-.222,16.95,2.931,17,14-7.99,19.109-33.612,39.678-50,51-14.7.162-28.733,1.332-40-1l-5-7c-1.77-6.083.181-10.285,2-15,8.239-2.62,22.4,1.767,33-2Zm45,2,13,2c2.864,4.229,4.56,6.811,5,14-13.689,19.888-33.492,33.906-51,50l-10-1-6-6C763.351,596.35,797.018,578.11,812,564Zm48,1c47.938,2.39-28.889,66.088-42,67-4.555-1.572-6.767-2.018-9-6-2.308-2.557-2.71-4.054-3-9C816.546,597.789,841.925,577.191,860,565Zm44,2,9,1,8,7c-0.312,19.367-41.281,55.856-59,58l-10-9v-8C870.629,601.951,886.34,582.584,904,567Zm276,7c24.51-.425,60.92-3.524,77,6,0.33,0.667.67,1.333,1,2-0.33,3.666-.67,7.334-1,11q-3.495,4-7,8c-20.55.58-68.91,3.816-76-10-1.87-6.773,1.05-11.4,4-16C1178.67,574.667,1179.33,574.333,1180,574Zm366,0h6c12.48,13.521,48.57,39.357,50,60-2.62,5.205-8.33,11.155-15,9-11.42-2.744-50.28-45.7-52-59A44.063,44.063,0,0,1,1546,574Zm190,4c6.8,0.113,9.95,1.582,14,4,5.32,20.578,4.11,64.619-5,79-3.7,1.159-6.91,2.716-11,1-3.11-1.334-3.25-1.377-5-4-9.55-13.7-4.63-59.585,0-76C1731.33,580.667,1733.67,579.333,1736,578Zm-420,1c25.52,0.107,45.55,35.113,57,51,0.43,15.795,3.86,53.144-19,44-13.06-5.225-1.98-23.257-7-37q-19.5-20.5-39-41c0.33-3.333.67-6.667,1-10Q1312.5,582.5,1316,579Zm194,2c7.67,0.438,9.62,2.75,14,6,0.75,17.2-37.94,50.441-51,60-18.64.406-35.12-1.549-44-11,0.69-26.158,17.76-9.991,36-16C1471.55,617.843,1499.02,588.132,1510,581Zm425,1c28.56-.587,61.45-2.521,77,10v8c-14.25,12.274-69.8,13.206-86,0,0.33-3.333.67-6.667,1-10C1929.08,585,1930.89,584.77,1935,582Zm-336,1,11,1q3.495,4.5,7,9c-1.76,10.222-7.83,14.344-14,20-7.28-1.778-13.88-9.849-18-15C1587.74,590.52,1593.57,587.672,1599,583Zm48,1c10.35-.007,14.28,4.377,14,15-4.86,11.684-47.35,54.487-60,49v-1C1612.6,614.3,1619.98,602.97,1647,584ZM471,590c20.748-.575,67.948-4.816,75,9,2.777,5.3.882,10.412-2,15-21.031,6.089-69.334,5.839-82-7q0.5-5,1-10l4-6Zm1690,6,8,1q10.005,9.5,20,19l57,3c4.95,3.529,7.55,6.768,8,15-1.33,2.333-2.67,4.667-4,7-10.34,3.108-61.51,5.062-72-1q-13.005-13.5-26-27c0.05-8.047,2.01-10.4,5-15C2158.33,597.333,2159.67,596.667,2161,596Zm-1094,1c13.06,1.144,54.68,43.7,56,57-0.33,1-.67,2-1,3l-6,5c-11.94,6.028-62.16-44.2-57-57Q1063.005,601,1067,597Zm467,4c4.53,0.859,2.98-.116,5,3l3,10c-11.7,8.011-10.32,18.067-18,30-3.67,1.326-8.5,3.144-12,2l-9-4c-0.67-2-1.33-4-2-6C1507.42,620.6,1522.63,611.629,1534,601Zm-373,3,9,1c1.33,0.667,2.67,1.333,4,2,6.06,23.208,4.67,68.033-6,82-8.25,4.2-16.7,19.174-28,16-7.96-.91-10.48-4.852-11-13,5.68-8.493,19.67-17.442,22-27,5.26-21.6-2.89-43.756,6-59C1158.33,605.333,1159.67,604.667,1161,604Zm26,0c18.46,1.688,7.86,10.042,13,23l9,13c-0.66,5.731-1.57,8.178-5,11-2.14,4.194-8.26,6.861-14,4-1.33-.667-2.67-1.333-4-2C1182.45,639.527,1182.12,617.1,1187,604Zm26,4c19.88-.55,67.34-4.442,75,8,3,6.234.09,13.434-4,16-13.27,8.422-69.96.467-78-5q-1.005-5-2-10Zm492,1,9,2c8.07,11.817,9.34,75.352-2,82-5.58,4.663-13.18.891-17-2-4.66-17.36-8.41-70.776,6-79C1702.33,611,1703.67,610,1705,609Zm276,6c56.38-.883,52.71,2.732,81,29-0.33,3.666-.67,7.334-1,11q-4.005,4-8,8c-16.11-.614-19.57-13.571-29-21-20.22.205-43.19,1.848-60-2-5.21-7.073-6.82-12.137-2-20Q1971.5,617.5,1981,615Zm-440,6c17.07,0.088,58.01,44.211,59,60-3.41,2.964-7.08,10.02-14,9-9.44-1.393-51.38-47.351-52-60Q1537.5,625.5,1541,621ZM508,623c24.578-.891,70.724-6.579,71,18-1.622,3.2-1.849,4.189-5,6-9.443,8.06-68.86,1.741-77-3q-1-5.5-2-11l5-8Zm-44,1c17.093,0.282,58.032,42.879,58,61-13.9,21.334-64.26-37.16-66-52C458.873,628.708,459.975,627.083,464,624Zm264,12c19.045,0.841,17.19,17.085,30,22,16.346,6.271,44.69-2.308,62,4,1.921,3.694,4.349,8.786,2,14-5.443,10.374-18.048,4.919-32,7-32.348,4.826-75.6-10.821-70-40Zm201,2c27.2-.584,63.1-3.382,76,11-0.33,2.666-.67,5.334-1,8-7.134,9.473-74.355,11.925-81,1-5.068-5.395-2.261-12.98,1-18Zm341,29c-0.33,2.666-.67,5.334-1,8q-19.005,19-38,38l-12-1q-6.495,4-13,8c-1.33-1.333-2.67-2.667-4-4-5.77-15.708,34.63-40.9,43-51-4.9-1.7-7.27-4.257-10-8-0.09-8.623,2.16-12.4,8-15,11.56-4.742,60.67-.887,72,2,2.92,4.22,4.6,5.678,5,13-2.11,4.418-3.48,6.888-8,9C1302.43,671.31,1282.68,667.276,1270,667Zm401-26,9,2c7.92,11.571,11.55,71.511-1,80-2.93,2.251-4.59,2.8-10,3-2.33-1.333-4.67-2.667-7-4C1655.75,700.443,1656.28,649.931,1671,641Zm-605,1c11.18,0.6,50.9,41.6,54,50,4.2,11.381.26,31.754-2,42-1.67,1.333-3.33,2.667-5,4l-10-1-6-6q-1.005-14.5-2-29c-5.99-12.045-42.51-32.455-39-48C1057.14,645.865,1060.52,645.472,1066,642Zm1099,0q4.005,2,8,4c2.96,12.407,3.35,30,6,41-5.69,4.4-8.86,11.233-17,13-12.11-10.5-19.29-36.088-8-55Zm48,8c23.16-.445,67.75-3.788,75,13-0.33,1.667-.67,3.333-1,5q-4.005,3.5-8,7c-19.66,5.552-62.69,2.68-75-5-2.26-7.6-1.97-11.417,2-17C2208.33,652,2210.67,651,2213,650ZM547,655l56,3,15,17c5.474,5.523,10.721,7.945,12,18-2.932,4.557-3.814,7.574-9,10-14.315,3.526-22.733-13.4-31-20-15.055-.309-49.049,4.074-59-5-7.126-4.239-5.583-15.227,1-19C535.6,656.152,542.083,656.918,547,655Zm922,0,8,1c8.18,3.329,16.05,12.263,21,19v3h-5c-18.21-3.723-39.83,9.383-29-20C1465.67,657,1467.33,656,1469,655ZM346,664c21.629,0.855,48.759-1.481,60,10q-0.5,5.5-1,11c-8.168,10.551-44.855,8.513-62,5V666Zm1195,2,8,1c18.61,8.557,35.07,35.427,49,50,0.37,7.69-.3,11.329-5,14-17.75,14.394-31.39-22.6-42-27-2.33,1.667-4.67,3.333-7,5-23.23,7.627-68.62-4.92-76-15-0.33-1.333-.67-2.667-1-4,12.9-13.1,44.15-6,67-5C1530,674.627,1533.58,670.463,1541,666Zm374,1,11,2c9.74,14.113-4.73,22.732-14,32-16.67,16.667-61.68,81.042-84,83-3.67-1.687-5.99-2.5-8-6-2.1-2.351-3.11-5.1-2-8,3.81-16.055,23.63-26.539,34-37,6.64-6.7,8.12-17.412,14-25C1877.67,692.941,1898.52,677.235,1915,667Zm46,1c7.27,0.978,11.43,3.276,14,9,0.33,2,.67,4,1,6-6.39,12.628-45.52,52.78-62,50q-3.495-3.5-7-7C1907.58,705.7,1946.42,677.269,1961,668ZM467,670c11.178,1,49.7,40.994,53,50v18c0,20.091-1.87,30.353-20,26-6.433-9.772.472-22.206-5-35-5.57-13.023-43.61-33.415-37-51C460.275,673.163,462.808,672.752,467,670Zm1539,0c10.35-.007,14.28,4.377,14,15-7.12,11.475-43.8,50.36-58,52-3.85-2.5-5.84-2.617-8-7-0.33-2.333-.67-4.667-1-7C1955.64,707.659,1993.1,678.251,2006,670ZM656,671l9,1c4.213,2.831,8.91,8.217,7,14-2.314,10.437-42.925,47.844-53,50-12.343,2.641-36.842.786-41-6q-1-4.5-2-9c1.957-4.066,2.851-6,7-8,14.161-7.385,34.64,1.815,47-7,6.176-4.4,2.666-13.737,7-20Zm306,0c25.913-.508,61.54-2.824,75,8-0.33,3.666-.67,7.334-1,11-7,14.314-75.137,11.339-82-1l-3-8C954.809,675.292,955.863,674.5,962,671Zm1085,1c15.52-.379,34.85-1.371,45,4,2.14,6.989,4.99,14.45-2,19-7.97,5.186-22.56-1.452-33,2-20.26,6.7-21.53,38.68-50,39-2.33-1.333-4.67-2.667-7-4-0.33-3-.67-6-1-9C2002.54,702.069,2034.15,685.943,2047,672Zm-411,1,9,1c25.7,18.48-.47,112.424-31,101l-9-7c0.66-20.076,15.36-17.483,21-30q1.005-28.5,2-57Q1632.005,677,1636,673Zm-358,1c22.4,0.5,48.66-.8,68,3,6.72,11.536,17.26,20.488,25,32-1.36,7.875-5.58,12.138-14,13-10.63-5.509-16.06-17.108-25-22h-52l-8-2c-1.33-1.667-2.67-3.333-4-5,0.33-3.333.67-6.667,1-10Zm848,0c10.25,0.067,14.61,5.271,15,15-10.7,15.156-28.89,22.732-29,48,10.16,7.194,8.79,22.715,5,36-6.14,4.361-10.47,5.361-19,3-11.42-17.181-3.36-48.383-3-73C2105.85,694.314,2115.17,683.155,2126,674Zm72,4,9,1c5.35,2.578,6.01,6.159,8,12-9.39,22.028-33.64,36.365-50,52-21.1.65-38.98,1.2-47-12q2.505-6,5-12c7.1-1.6,24.52,1.544,33-2C2165.07,713.21,2188.3,686.208,2198,678Zm46,1c7.83,0.114,9.52,2.057,14,5q1.005,5,2,10c-8.46,16.346-34.37,42.064-51,50-6.81,1.831-10.49-1-15-4C2188.25,718.693,2230.31,690.7,2244,679Zm50,0,6,1c4.73,3.385,7.24,6.452,8,14-10.15,12.4-44.74,53.916-63,51-4.15-3.086-5.81-5.815-8-11C2246.74,711.192,2273.78,691.94,2294,679Zm44,2c5.88,0.654,9.59,1.761,12,6,2.08,2.454,2.81,7.416,1,11-5.06,12.88-57.65,70.912-69,39C2290.3,714.644,2318.53,692.725,2338,681Zm-1143,2,19,1c-3.32,9.746-13.45,13.105-18,24l-14-2c-2.75-3.99-4.38-5.335-5-12,0.33-1,.67-2,1-3q3.495-3.5,7-7Zm-471,1c7.752-.281,12.586.574,17,3q1,16,2,32c6.084,19.535,32.425,28.981,41,48-2.155,6.364-3.851,8.981-8,13-15.514.029-58.777-43.617-61-55q2-18.5,4-37Zm-173,4,23,1c0.744,6.192,1.523,13.545-1,19-3.574,8.179-22.573,29.964-35,25-5.111-2.166-7.652-4.979-10-10C533.71,707.876,548.831,704.441,551,688Zm227,3c24.611-.456,60.064-3.217,75,7q1,4.5,2,9-2.5,4-5,8c-15.031,4.6-71.082,7.012-79-6q-1-3.5-2-7C771.6,696.525,773.713,694.6,778,691Zm-401,7c22.17-.394,60.005-6.356,60,20l-3,2c-11.821,11.052-69.567,5.782-81-2-1.191-3.765-2.858-7.705-1-12l6-6Zm1081,39c-0.73-15.024-.92-30.314,9-35l7-1c4.07,1.957,6,2.851,8,7,3.45,6.7,1.29,17.3,1,27h-2ZM999,704c21.12-.224,46.3-1.206,63,3,3.37,4.551,5.55,5.957,6,14-1.33,2.333-2.67,4.667-4,7-19.73,5.637-67.469,5.007-80-5-0.543-5.964-.312-7.841,1-13C989.222,707.263,993.543,706.461,999,704Zm1089,3c3.94,4.176,1.57,25.034,0,32h-8c-5.36-2.316-7.61-5.634-8-13C2075.78,717.419,2081.7,712.9,2088,707Zm-548,6,10,1c8.81,6.352,46.81,44.217,46,53-1.37,14.911,2.7,34.464-8,40h-10c-14.35-6.925-1.52-22.789-8-38C1563.23,753.108,1511.3,732.616,1540,713Zm193,0c6.91,1.217,10.42,2.385,13,8,0.67,3,1.33,6,2,9-4.54,8.52-41.71,44.884-50,48-11.42,4.293-31.96.26-42-2-1.33-1.667-2.67-3.333-4-5,0.33-3.333.67-6.667,1-10l6-6,29-2C1702.93,745.126,1715.85,723.24,1733,713Zm315,0,15,14q-1.005,18.5-2,37c-2.69,5.641-6.85,6.863-13,9-14.73-6.292-11.79-28.589-14-44Q2041.005,721,2048,713ZM651,716c4.513,0.215,5.391.708,8,2,2.27,7.623,2.351,14.688-5,18-4.605,2.607-18.614,3.5-23,0Zm38,0c10.419-.425,14.211,1.21,19,6-0.086,19.882-14.8,25.594-23,38l-22,1q0.5-9.5,1-19Zm1088,0,8,1q3.495,3.5,7,7c0.33,2,.67,4,1,6-8.36,12.43-41.09,49.9-58,51C1708.62,766.069,1765.16,725.124,1777,716Zm-557,1c10.63,3.494,18.84,11.262,24,20l-15,18c-7.6-2.7-22.4-18.156-20-27C1210.66,719.909,1213.76,720.244,1220,717Zm604,0,7,1c23.03,10.684-35.09,65.7-53,62l-6-5C1772.4,749.867,1807.86,728.248,1824,717ZM813,724c23.9-.51,59.924-2.3,72,10,0.222,7.416-.677,10.234-5,13-16.341,10.778-78.958,4.9-80-14l4-6Zm456,3,11,3,3,6c-3.89,23.293-30.85,35.63-44,51-0.67-.333-1.33-0.667-2-1,0.56-13.445-1.23-17.65-7-24C1238.61,747.923,1255.03,736.041,1269,727Zm-335,2c17.158-.015,64.081,50.366,55,60-22.671-7.861-60.474-23.24-63-51C928.375,733.336,930.288,732.118,934,729Zm379,0c4.73-.058,6.66.13,9,2l6,5c-0.44,18.109-41.46,53.014-56,59l-4-1q-4.005-3.5-8-7c0.33-3,.67-6,1-9C1270.22,758.408,1296.35,742,1313,729Zm46,1c17.33-.478,32.24-0.246,42,6q1.005,5,2,10c-1.66,4-2.31,5.939-6,8-8.28,4.105-21.01-1.746-30,1-14.53,4.438-35.48,45.775-54,39-5.18-2.346-6.76-5.739-7-13C1319.3,761.271,1338.55,742.434,1359,730Zm-962,1c16.29-.454,62.486-2.056,68,7,2.439,2.7,2.88,4.633,3,10l-4,7c-16.76,4.856-63.624,5.839-78-3q-1-5.5-2-11l4-7Zm1036,1c7.27,0.126,11.41,2.275,14,7,2.44,2.7,2.88,4.633,3,10q-10.995,12-22,24-1.005,27.5-2,55c-3.84,5.286-7.39,7.232-17,7-1.67-1.667-3.33-3.333-5-5-4.38-7.488-5.09-64.807,0-72Q1418.505,745,1433,732Zm-404,4c40.3-.95,85.56,3.031,89,38-10.54,25.858-29.51-2.222-39-10-19.95-.559-50.11,1.328-62-6-1.35-4.552-2.02-7.727-1-13q4-3.5,8-7Zm427,6c22.45-.6,45.29-2.139,56,9-0.33,3-.67,6-1,9-5.02,9.521-55.43,11.678-68,5q5.505-5.5,11-11Q1455.005,748,1456,742Zm-841,3c17.084,0.531,22,14.137,32,22,20.614-.386,46.019-4.05,60,4,1.638,3.962,4.166,6.984,3,11-1.1,5.422-2.559,7.009-7,9-5.6,3.165-17.342,2-26,2l-42-2c-8.605-3.555-26.708-24.274-28-35C609.233,750.566,611.223,748.592,615,745Zm1544,6,10,1,21,21c17.73,8.045,45.02-5.249,63,7,1.14,11.275-2.64,13.3-8,20-44.65,3.209-68.2,2.462-88-24-3.6-4.817-10.51-7.738-7-17C2152.28,754.385,2155.24,753.9,2159,751ZM846,756l63,4c7.5,5.008,10.215,17.771,0,22-23.983,6.833-66.116,3.253-77-9q0.5-5,1-10l5-5Zm373,8c16.37,2.658,13.92,20.112,13,39q19.005,20,38,40c-0.33,3-.67,6-1,9-8.52,19.254-26.24-.238-34-8-18.87-18.877-37.32-34.97-27-76Q1213.505,766,1219,764Zm-797,2c49.259-1.235,69.431-4.607,90,24,2.791,3.882,8.395,6.6,5,14l-7,9-9-1-21-20c-21.172-7.274-53.6,9.042-63-9q-1-4-2-8Zm1556,5c45.85-.136,68.63,1.677,83,34-1.23,8.748-5.84,10.487-11,15-15.95-1.6-18.15-17.994-31-22-22.36-6.974-67.57,11.758-63-19C1961.88,771.45,1967.78,774.73,1978,771ZM934,773c11.052,1.205,15.22,7.667,21,14q-0.5,2.5-1,5l-14,13c-7.338-3.4-10.11-8.354-15-14C924.749,779.392,927.915,777.83,934,773Zm539,1c19.44-.532,62.28-3.243,69,10,7.65,26.759-75.75,18.366-82,9-2.85-4.285-1.41-8.878,0-14,1.67-1.333,3.33-2.667,5-4Zm-94,8,9,2c8.13,10.733,14.58,92.6-11,83q-3.495-3.5-7-7C1360.92,838.387,1367.32,791.616,1379,782Zm-82,1h3q1.995,7,4,14c-0.33.333-.67,0.667-1,1-6.75.335-16.29,0.853-20-2C1288.81,793.611,1294.43,788.661,1297,783Zm397,4c16.18,2.465,16.03,15.476,27,21,16.07,8.094,75.98-10.517,64,20-0.67,1.333-1.33,2.667-2,4-10.18,3.058-64.07,5.789-74,2-6.97-2.657-26.79-27.4-24-36q1.995-4.5,4-9Zm-725,1,8,1c5.178,2.04,10.014,8.124,8,14-2.795,11.569-48.007,52.754-61,51-4.951-3.529-7.546-6.768-8-15C929.136,818.969,951.154,803.6,969,788Zm48,2h6c2.84,3.438,9.72,7.521,9,14-0.99,8.842-47.757,51.645-60,52l-9-7q0.5-5,1-10C973.368,819.565,1000.41,803.11,1017,790Zm42,2,9,1c4.95,2.28,5.92,4.921,8,10-2.2,18.422-21.21,24.442-30,37,13.69,18.829,2.7,72.568-10,82l-4,1c-12.83-12.617-6.49-44.531-5-67a22.626,22.626,0,0,1-13,1c-3.94-2.836-8.12-9.427-5-16C1016.92,822.8,1044.56,805.1,1059,792Zm-447,1c7.327-.014,13.972-0.153,17,4,5.978,8.2-2.373,20.647,1,31,6.459,19.823,39.874,24.712,41,50l-3,7-10,3c-18.828-11.664-68.835-46.186-52-87Zm493,0c15.32,0.984,33.9.936,44,7v13c-9.61,11.146-22.46.461-38,7-13.05,5.49-27.8,30.563-44,40l-9-4c-0.67-1.667-1.33-3.333-2-5C1051.7,833.9,1094.23,803.092,1105,793Zm78,3,8,1c4.25,4.021,6.5,5.839,7,14q-10.995,12-22,24c-6.42,21.651,8.51,81.772-24,60-3.38-11.588-6.24-57.187-1-71C1155.48,812.194,1171.96,802.05,1183,796Zm975,3,11,2c5.62,8.01,5.33,21.443,5,36,12.51,9.223,37.29,29.348,39,48-1.96,4.066-2.85,6-7,8-2.33.667-4.67,1.333-7,2-19.72-12.877-73.5-55.842-46-94ZM667,800c24.973-.446,59.977-4.257,75,6v11c-8.233,17.433-74.884,8.628-84-1q0.5-5,1-10Zm630,5,48,2v1c-0.33.667-.67,1.333-1,2-14.83,4.137-7.67,13.6-17,21-10.56,4.384-32.07.474-36-8-0.67-2.666-1.33-5.334-2-8Q1293.005,810,1297,805Zm171,0,21,1v1q-3.495,6.5-7,13C1476.71,816.205,1470.78,811.317,1468,805Zm740,1c21.44-.888,86.61-7.113,76,19l-6,6c-17.52,9.159-63.86,1.776-76-6q-1.005-5.5-2-11Q2204.005,810,2208,806Zm-702,1c39.3-1.1,93.78,3.518,87,42-3.33,4.552-6.33,6.594-14,7q-11.505-10.5-23-21l-61-5c-3-4.087-4.57-4.7-5-12,1.96-4.066,2.85-6,7-8Zm-161,7,11,1c1.67,2,3.33,4,5,6,5.13,11.873,1.17,54.629-2,70-4.11,5.788-9.79,8.1-19,6C1330.31,879.186,1332.16,826.159,1345,814Zm-979,2c9.319-.233,11.917,1.669,17,5q1,5.5,2,11l-39,40-2-1C344.675,839.864,349.043,829.779,366,816Zm48,1,8,1c3.935,1.515,5.16,2.329,7,6q0.5,4.5,1,9c-8.063,12.754-42.943,52.179-61,49-4.069-3.107-5.044-5.611-7-11C371.5,849.208,396.553,831.549,414,817Zm46,2,11,2,3,5c3.827,14.97-41.79,58.164-57,59l-7-4c-1.249-3.933-3.085-9.334-1-14C415.37,853.735,447.369,828.009,460,819Zm45,1c12.833,0.931,40-1.194,44,9,8.15,20.766-19.641,18.5-35,17-11.394,14.827-28.653,29.064-44,40-11.226.491-15.986-3.252-16-14C464.9,850.988,488.41,835.854,505,820Zm958,0,8,1c11.01,4.777,29.51,24.137,33,36l-15-4q-7.005,4-14,8c-8.11-1.872-20.51-20.123-21-31C1456.59,824.864,1458.88,823.405,1463,820Zm-883,3,12,2c3.674,4.983,5.562,7.82,5,15l-21,23q-1,28-2,56c-3.546,4.961-7.188,8.143-15,9l-7-4c-5.721-21.2-2.157-49.058-2-73Zm1331,0,12,2,6,9c-5.11,14.078-43.43,53.2-60,54q-4.995-4-10-8c0.33-2.333.67-4.667,1-7C1868.42,854.128,1894.44,834.624,1911,823Zm47,2,9,1c1.67,1.667,3.33,3.333,5,5,0.33,2.333.67,4.667,1,7-5.1,10.256-48.31,55.327-62,50-1.33-.667-2.67-1.333-4-2-1.19-3.765-2.86-7.705-1-12C1915.44,854.3,1940.48,837.319,1958,825Zm47,0,7,1c16.9,18.6-33.47,60.4-50,66-6.2-2.175-8.11-3.9-12-8C1950.52,861.8,1989.39,834.919,2005,825Zm43,2c13.57-.509,36.49-1.27,42,7,1.46,1.784,2.1,4.435,3,7-1.89,5.734-2.76,8.563-8,11-8.62,3.99-19.19-2.6-30,1-13.82,4.6-33.65,45.712-52,39q-3.495-3-7-6C1996.97,860.66,2032.38,839.88,2048,827Zm76,3c6.11,0.438,9.62,1.771,12,6,12.58,13.715-14.37,22.534-18,33-6.73,19.406,4.31,46.788-5,62-25.14,8.467-21.04-13.683-21-39q0.495-16.5,1-33C2096.79,848.334,2114.54,835.985,2124,830Zm-323,1c6.89,0.377,9.74,2.338,14,5,4.2,21.15,3.56,64.621-5,79-0.67.333-1.33,0.667-2,1l-11-1q-4.005-3.5-8-7c-0.48-24.51-2.06-60.808,8-76ZM697,832c24.649-.292,51.408-0.95,71,4l5,6c0.155,7.919-1.273,10.588-4,15-19.1,5.114-71.949,6.648-79-8V839Zm994,3,8,1c9.58,7.067,7.68,21.008,7,36-9.75-3.324-13.11-13.455-24-18q1.005-7,2-14C1686.33,838.333,1688.67,836.667,1691,835Zm-480,4c19.04,0.35,65.23,48.148,54,66-17.32,3.895-65.28-40.793-61-61C1206.33,842.333,1208.67,840.667,1211,839Zm1030,0c24.71-.283,49.37-0.5,70,4,2.92,4.22,4.6,5.678,5,13-0.33,1-.67,2-1,3-9.21,12.149-68.85,7.728-80,1C2230.57,848.853,2233.01,845.209,2241,839Zm-499,3c15.35-.251,31.6-1.538,44,3-1.67,17.215-22.46,11.453-34,22-8.23-.351-11.13-2.75-16-6-1.22-3.848-2.97-8.511-1-13C1737.03,844.1,1738.59,844.292,1742,842Zm-430,2c6.92-.141,9.57.652,12,5,10.62,12.162,3.9,68.229-3,79-3.33.667-6.67,1.333-10,2-17.04-8.924-12.2-69.5-3-84C1309.33,845.333,1310.67,844.667,1312,844Zm-185,3,8,1c12.18,5.864,12.79,82.151-7,84-2.33-.667-4.67-1.333-7-2C1110.5,914.252,1114.01,856.834,1127,847Zm-176,1c0.527,0.092,35.346,19.511,37,21,0.578,11.8-.617,15.9-10,20-11.819-4.758-32.3-22.886-35-36Zm493,10,10,1,6,6c3.35,14.205-43.91,58.04-59,59l-6-3-3-10C1402.71,888.172,1426,873.84,1444,858Zm279,70-8-1q-19.005-19-38-38c0.33-3,.67-6,1-9,0.2-7.2-5-10.831-8-15,1.49-3.067,1.11-3.215,4-5,15.5-5.683,40.95,34.676,51,43,1.7-4.9,4.26-7.274,8-10,8.2,0.24,10.35,2.669,15,6,2.96,20.531,4.2,63.175-5,77-3.33.667-6.67,1.333-10,2-4.42-2.114-6.89-3.48-9-8C1718.69,960.433,1722.72,940.685,1723,928Zm-233-68,10,1c4.45,4.2,6.74,6.2,7,15-10.17,18.259-36.71,38.314-54,50q-6.495-2.5-13-5C1433.96,901.089,1476.72,870.537,1490,860Zm-695,1c23.177-.388,58.242-4.225,74,5l3,11q-2.5,4-5,8c-14.614,4.248-35.29-1.5-53,1-19.638,2.777-36.008,9.086-62,5-20.5-3.222-42.849-2.715-28-24C745.024,865.8,782.362,871.69,795,861Zm742,0,7,1,6,6c4.2,16.178-43.99,61.247-61,58-3.81-3.08-4.28-5.652-6-11C1495.67,893.2,1515.38,873.947,1537,861Zm232,1c5.9,0.732,7.34,2.455,11,5,4.7,15.984,5.73,71.818-6,79-6.21,3.152-13.68.347-16-4-4.44-6.936-3.19-62.81,0-71C1760.08,865.661,1764.38,864.825,1769,862Zm-188,1,41,3c1.84,3.78,4.38,9.994,3,14-1.1,5.422-2.56,7.009-7,9l-31,1q-19.995,19-40,38c-8.99.344-13.08-1.41-16-7-0.67-2.333-1.33-4.667-2-7A203.694,203.694,0,0,1,1581,863Zm-648,2c16.619,4.615,45.994,38.509,56,52,0.312,18.365-1.667,35.154-11,44l-9-1c-14.3-7.363-1.644-20.218-7-35-6.878-18.985-36.327-24.463-39-49C925.656,869.434,927.308,868.437,933,865Zm726,1c5.33,1.07,8.48,2.1,11,6,2.64,3.824,2.33,5.764,2,11q-9.495,9.5-19,19l-18-15C1638.94,876.878,1650.26,871.559,1659,866ZM610,867l12,1c11.537,8.534,47.312,42.287,48,59-14.778,25.74-65.971-33.988-66-54Zm1545,6c17.59,0.806,51.15,40.818,58,55l-6,12-8,1c-16.93-10.884-51.13-34.7-53-59Zm117,0c26.65-1.1,92.52-6.347,71,24-19.92,5.567-58.73,3.327-76-1C2259.56,885.949,2261.36,878.322,2272,873ZM529,874l7,1,5,6c7.028,12.124.226,71.976-8,76-4.914,1.455-8.968.4-13-1-4.613-9.438-7.042-60.071-2-74C519.648,877.448,525.094,876.4,529,874Zm1295,2,20,2c3.13,3.942,8.13,8.834,5,16l-3,5c-6.64,1.856-17.59,3.128-24,0C1821.7,891.206,1821.26,880.752,1824,876Zm-731,2,11,1c5.71,10.485,10.42,53.576,3,68q-5.505-5.5-11-11l-12-2C1083.4,911.488,1081.83,888.738,1093,878Zm974,3c7.5-.058,9.77,1.381,14,4,5.94,19.065,7.13,64.035-3,78-3.33.667-6.67,1.333-10,2q-4.995-3.5-10-7c-2.26-20.8-4.37-58.782,5-75C2064.33,882.333,2065.67,881.667,2067,881Zm-855,2,7,1c12.63,5.587,41.56,41.228,49,54-1.63,5.726-2.22,9.357-7,12-2.19,1.75-2.69,1.753-7,2-13.19-6.388-51.34-42.157-52-59C1204.83,887.349,1206.96,886.343,1212,883Zm-16,3h3q-1.995,8-4,16c1.11,4.039,9.38,7,8,13-1.84,7.959-20.33,20.512-31,21q-4.005-2.5-8-5c-1.19-3.765-2.86-7.705-1-12C1169.22,904.34,1186.25,897.475,1196,886Zm430,3c2.33,0.667,4.67,1.333,7,2,7.75,15.7,27.91,19.453,30,41l-3,6-10,3c-17.87-11.53-35.04-27.74-47-45,0.33-.333.67-0.667,1-1C1614.5,895.658,1622.56,895.676,1626,889Zm-610,3h4v5c-2.97,13.89,7.18,45.41-21,28-1.191-3.765-2.858-7.705-1-12Zm-187,3c19.336,0.361,64.67-5.756,72,9,2.271,4.648,1.261,7.208,0,12-16.264,8.873-68.729,7.937-81-4C819.6,900.14,822.2,899.3,829,895Zm319,6q7.005,3.5,14,7c-3.79,5.328-8.95,11.945-16,14Q1147.005,911.5,1148,901Zm-655,4,8,1c19.209,13.9,2.67,119.83-17,76q-0.5-32-1-64C484.583,911.7,488.429,908.422,493,905Zm586,27c-17.52.647-28-.522-36-9-0.28-8.584,1.33-12.384,7-15,6.7-3.453,17.3-1.29,27-1Q1078.005,919.5,1079,932Zm744-23c19.28-.321,41.1-0.9,55,4l3,11c-1.33,2.333-2.67,4.667-4,7-13.12,5.295-70.07,8.858-78-4v-4C1811.62,920.752,1816.2,916.58,1823,909ZM610,910c19.6,1.746,44.864,38.986,57,52,0.082,8.567-1.878,11.191-5,16l-5,2c-13.571-2.232-54.831-44.747-55-61l4-7Zm1425,1,10,1c1.67,2,3.33,4,5,6,5.84,12.772,2.23,55.953-1,71-3.53,4.951-6.77,7.546-15,8-2.33-1.333-4.67-2.667-7-4-5.28-16.822-6.36-62.846,3-79C2031.67,913,2033.33,912,2035,911Zm-431,7,8,1c9.49,4.308,52.51,47.932,48,60l-6,7c-18.16-.439-53.01-41.422-59-56,0.33-1.333.67-2.667,1-4Q1600.005,922,1604,918Zm548,0,9,1c10.63,4.947,50.04,46.9,48,60q-3.495,3.5-7,7c-16.71-.618-57.21-43.316-58-60Q2148.005,922,2152,918Zm-455,8,10,1c15.5,7.019,9.66,60.111,6,77-11.54,6.72-20.45,17.25-32,25-6.37-1.17-9.69-3.82-12-9-2.87-16.6,15.38-19.69,21-30V938c0.67-2.666,1.33-5.334,2-8C1693.67,928.667,1695.33,927.333,1697,926Zm-835,2c20.669-.12,53.7-4.287,70,5,2.936,7.982,2.411,15.62-5,19-6.709,3.136-63.284,2.962-70-1-3.769-2.224-5.383-7.424-6-13C854.809,932.292,855.863,931.5,862,928Zm346,1c15.83,0.971,56.9,44.189,58,60l-3,6-10,3c-22.93-10.756-37.1-33.928-53-52q1.005-7,2-14Zm-749,7,8,1,7,7c8.04,17.185.95,66.17-7,77H455c-12.244-9.91-7.353-61.107-3-79Zm626,4,7,1q11.505,10.5,23,21l55,2c6.74,4.8,7.9,11.928,5,21-39.06,14.465-96.9.754-101-33,1.86-3.991,3.16-6.874,7-9C1082.33,942,1083.67,941,1085,940Zm508,1q7.005,8.5,14,17l-15,4q-0.495-6.5-1-13C1591.67,946.334,1592.33,943.666,1593,941Zm409,2,10,1c1.67,1.667,3.33,3.333,5,5,3.87,13.35,1.8,70.68-6,76-2.8,2-9.09,2.92-13,1C1979.98,1016.77,1990.98,951.244,2002,943Zm-432,4c3.33,0.667,6.67,1.333,10,2,7.92,11.1,5.4,37.831,3,54h-3c-3.06-16.423-13.5-8.275-21-18-4.69-11.315.95-28.853,6-36Zm-963,9c16.656,0.8,58.5,44.2,59,61-14.223,27.08-67.9-39-65-55Zm873,3c22.51-.483,50.14-1.616,64,7q1.005,5,2,10c-1.62,3.2-1.85,4.189-5,6-10.17,8.885-68.89,3.452-79-3-1.16-3.7-2.72-6.909-1-11C1465.05,959.484,1470.72,962.318,1480,959Zm-587,1c51.008-.819,71.151,2.276,92,33-0.065,8.9-2.365,9.33-6,14-0.667.33-1.333,0.67-2,1-16.4-.33-20.587-12.576-30-20-18.191.772-48.507,2.938-62-5l-3-5c-0.082-8.567,1.878-11.191,5-16Zm1259,3,6,1c12.82,6,49.8,42.71,50,61-1.4,2.6-1.61,3.33-4,5-2.37,1.59-3.62,1.81-8,2-11.17-4.17-56.85-48.031-52-61Q2148.005,967,2152,963Zm-548,1c24.81,1.872,72.91,59.32,50,95-3.33.67-6.67,1.33-10,2-2.67-1.33-5.33-2.67-8-4-1.85-8.19,1.63-23.52-1-32-4.51-14.54-45.77-35.217-39-54C1598.15,966.588,1600.17,966.53,1604,964Zm191,2,10,1c4.98,3.8,6.32,7.685,6,17-12.1,18.47-33.29,34.03-51,47-15.33.42-53.88,3.7-44-19,5.49-12.621,22.98-2.37,37-7Zm46,1,8,1q4.005,3.5,8,7c-0.32,15.9-42.48,57.44-58,58l-9-6c-0.33-2.67-.67-5.33-1-8C1803.23,999.158,1822.46,982.569,1841,967Zm46,2c11.63-.616,16.26,2.714,17,13-6.65,10.215-48.19,57.35-62,52-4.77-1.91-8.68-6.9-7-12C1838.69,1005.86,1873.31,977.291,1887,969Zm45,0c8.38-.061,10.45,1.816,15,5,5.72,15.355-31.52,49.88-44,58-10.38,6.75-21.6,2.14-22-11C1891.92,999.785,1915.32,984.942,1932,969Zm-850,18c7.67-.159,11.36,1.141,14,6,4.09,8.4-2.14,24.19,2,32,9.52,17.97,37.69,25.7,39,51C1121.35,1103.22,1041.59,1020.05,1082,987Zm422,6c21.94-.241,47.22-1.316,66,3q3,3.5,6,7c0.39,9.06-1.09,13.24-7,16-8.16,3.73-58.68.53-71-2-4.22-5.51-7-9.52-5-19Q1498.505,995.5,1504,993Zm-364,2c15.63-.629,78.34-3.781,69,18l-7,7c-20.65,8.81-70.92,3.82-78-10,0.7-6.73,2.9-9.72,8-12C1134.67,997,1137.33,996,1140,995Zm-303,18c6.1,0.33,8.278,1.75,12,4,0.667,3.33,1.333,6.67,2,10-10.924,21.22-34.318,36.06-51,52-3.333-.33-6.667-0.67-10-1-4.09-2.77-8.633-7.59-7-13C786.54,1050.5,823.874,1020.36,837,1013Zm44,0c4.919-.14,7.568.06,10,2,21.792,10.43-35.964,67.63-57,63-3.89-3-5.378-5.55-6-12C841.055,1046.64,861.807,1026.15,881,1013Zm45,2q6,1,12,2c2.626,3.88,4.233,5.74,5,12-8.8,12.53-41.787,51.16-59,52-2.333-1.33-4.667-2.67-7-4q-1-5.505-2-11C885.273,1046.13,908.82,1028.52,926,1015Zm-396,1c15.438,0.3,63.023,47.79,58,61-2.316,5.36-5.634,7.61-13,8-14.931-8.42-55.189-45.07-49-67C527.333,1017.33,528.667,1016.67,530,1016Zm441,1c15.935-.43,33.34-0.75,43,5,2.05,7.89,2.83,16-4,20q-15.5.495-31,1c-13.607,4.44-33.52,44.77-51,38l-7-6q0.5-6,1-12C931.841,1042.74,957.583,1033.98,971,1017Zm80,2c8.1,1.62,9.29,5.2,13,11-4.52,21.93-22.02,18.39-22,48-3.16,13.88,1.57,31.9-5,43-0.67.33-1.33,0.67-2,1-3.33-.33-6.67-0.67-10-1-13.22-6.1-13.06-61.76-5-78C1031.03,1037.76,1040.37,1026.17,1051,1019Zm-328,2c3.666,0.33,7.334.67,11,1,12.633,6.33,14.469,94.47-14,82-1.667-1.67-3.333-3.33-5-5-3.4-11.87-2.042-67.48,4-74C720.333,1023.67,721.667,1022.33,723,1021Zm1351,1c15.25,0.49,56.89,45.88,58,62-15.65,21.32-65.72-33.88-66-53Q2070.005,1026.5,2074,1022Zm-527,4c23.94-.73,52.88-3.8,61,12-0.67,2.67-1.33,5.33-2,8-10.99,8.32-92.69,14.54-83-11l7-7Q1538.505,1026.995,1547,1026Zm722,0c6.48,0.03,8.68.83,11,5,9.19,10.64,3.61,60.08,0,75q-3.495,3-7,6h-8q-3.495-4.005-7-8c-8.37-17.09-.82-66.35,7-77C2266.33,1026.67,2267.67,1026.33,2269,1026Zm-1100,1q31.995,1.995,64,4c5.79,4.11,8.1,9.79,6,19C1216.07,1063.09,1113.94,1050.36,1169,1027Zm586,13c16.4,0.33,20.59,12.58,30,20,14.98-.68,55.46-4.27,62,7,5.72,6.12,1.52,13.91-2,19-9.95,2.56-23.6,1.67-34,0h-32c-14.6-3.29-26.06-22.36-33-34,2.02-5.22,4.07-7.14,7-11C1753.67,1040.67,1754.33,1040.33,1755,1040Zm-606,5c4.83,3.02,4.4,10.12,9,13,5.39,3.37,11.29-.01,15,5,4.2,10.63.38,32.02-8,36-2.67.67-5.33,1.33-8,2-4.22-2.72-6.71-3.19-9-8C1143.3,1081.7,1146.77,1056.04,1149,1045Zm325,5c18.97,1.35,61.7,45.78,56,66l-11,3c-13.84-6.65-51.68-42.62-53-60l3-6C1470.67,1052,1472.33,1051,1474,1050Zm-781,1c2,0.33,4,.67,6,1,13.582,5.97,16.353,95.78-11,84q-3.5-2.505-7-5c-0.875-19.89-2.231-52.39,2-72Q688,1054.995,693,1051Zm1543,7c2,0.33,4,.67,6,1q3,3.495,6,7v30c1.89,19.59,5.73,50.2-17,46-7.62-5.76-12.19-65.99-4-76C2229.28,1061.16,2231.81,1060.75,2236,1058Zm-668,1q30.99,1.005,62,2c7.24,3.53,29.97,26.53,27,36-1.39,3.89-2.56,6.06-6,8-2.7,2.44-4.63,2.88-10,3-9.93-5.69-15.22-15.27-24-22q-27.495-1.005-55-2-3-3.495-6-7c-1.51-5.12-.34-9.64,1-14Q1562.505,1061.005,1568,1059Zm-1038,3c16.534,0.63,56.993,43.42,58,60q-4,4.005-8,8c-3-.33-6-0.67-9-1-10.163-4.79-47.645-44.39-49-57q0.5-1.5,1-3Q526.5,1065.505,530,1062Zm548,0c17.89,0.44,53.08,41.62,59,56-0.33,1.33-.67,2.67-1,4-2.09,5.23-8.76,10.38-16,7-9.68-4.35-52.66-47.55-48-60Q1075,1065.505,1078,1062Zm121,0c22.85-.44,56.54-2.01,71,7,8.02,29.97-57.86,21.85-79,16-4.14-5.26-8.35-14.41,0-19C1193.67,1064.67,1196.33,1063.33,1199,1062Zm876,6c13.46,2.22,54.83,44.92,55,61-1.96,4.07-2.85,6-7,8-16,3.58-48.07-40.17-58-51-0.08-8.57,1.88-11.19,5-16C2071.67,1069.33,2073.33,1068.67,2075,1068Zm-1066,52c2.67,0.33,5.33.67,8,1l38,38q-0.495,6-1,12,4.005,6.495,8,13l-4,4c-15.71,5.77-40.9-34.63-51-43-1.7,4.9-4.26,7.27-8,10-8.623.09-12.4-2.16-15-8-5.395-12.89-.022-67.53,5-75q5-1.005,10-2c4.42,2.11,6.89,3.48,9,8C1013.11,1087.22,1009.27,1107.05,1009,1120Zm-350-37c2.666,0.33,5.334.67,8,1q3,3.495,6,7c5.554,10.71,1.462,64.7-4,74q-5.5,1.005-11,2c-2.333-1.33-4.667-2.67-7-4-5.624-18.05-7.688-63.27,3-78C655.667,1084.33,657.333,1083.67,659,1083Zm477,3c1.33,0.67,2.67,1.33,4,2q-0.495,9.495-1,19c-0.67-.33-1.33-0.67-2-1q-6-7.995-12-16Q1130.505,1088.005,1136,1086Zm619,1c2.67,0.33,5.33.67,8,1,13.95,7.34,2.09,20.09,7,35,6.43,19.55,36.6,24.37,39,50-3.15,4.73-4.54,6.64-9,10-16.28-2.78-47.69-39.37-57-52C1742.54,1112.07,1744.15,1095,1755,1087Zm446,3c6.85,0.07,10.48.95,13,5,3.25,5.24,2.31,67.24-1,73q-5.505,3-11,6c-5.9-.73-7.34-2.45-11-5-5.05-17.65-4.37-62.42,5-77C2197.67,1091.33,2199.33,1090.67,2201,1090Zm-389,4c16.19-.58,73.85-4.69,68,16-1.33,2.67-2.67,5.33-4,8-19.57,4.92-53.23,4.22-74-1-1.33-1.67-2.67-3.33-4-5-0.24-10.19,2.11-12.39,7-17C1807.33,1094.67,1809.67,1094.33,1812,1094Zm-339,2c15.39,1.22,56.39,43.39,57,59q-2.505,4.005-5,8c-3.76,1.19-7.71,2.86-12,1-10.37-4.48-44.2-42.87-49-54q1.995-5.505,4-11C1469.67,1098,1471.33,1097,1473,1096Zm-515,5q6,0.495,12,1c13.925,10.73,6.548,70.97-1,82q-5,1.005-10,2-4-4.005-8-8C944.583,1162.81,951.661,1108.06,958,1101Zm666,0c9.35,4.57,11.13,9.39,24,13,0.85,25.38,4.46,50.71-15,57-2.33-1.33-4.67-2.67-7-4C1620.96,1150.78,1622.09,1120.39,1624,1101Zm-1095,6c15.564,2.39,58.562,43.96,56,61-3.333,4.6-6.078,6.75-14,7-10.12-4.48-49.421-42.55-52-53C516.773,1112.98,524.645,1109.9,529,1107Zm548,0c23.75,2.7,36.88,31.04,52,44-0.33.67-.67,1.33-1,2-12.78-.6-18.51.64-24,7-1-.33-2-0.67-3-1-9.44-14.09-29.78-21.57-32-42,1-2.33,2-4.67,3-7C1073.67,1109,1075.33,1108,1077,1107Zm477,5q5.505,1.005,11,2c2.97,4.33,4.69,6.45,5,14-6.13,11.44-23.98,30.15-37,34q1.995-7.5,4-15c-3.07-3.8-7.98-9.48-7-14C1535.54,1124.02,1545.15,1117.85,1554,1112Zm519,0c2,0.33,4,.67,6,1,13.61,9.3,48.39,41.75,49,62l-4,4c-2.8,2-9.09,2.92-13,1-10.76-5.04-48.46-44.38-49-59,1.33-2,2.67-4,4-6C2068.33,1114,2070.67,1113,2073,1112Zm-1209,1c17.429,0.55,61.382-4.05,70,9l-3,3c-21.921,11.07-44.123,21.62-77,10q-1.5-5.505-3-11C854.427,1117.27,857.477,1116.59,864,1113Zm-239,1c21.331,0.41,18.688,39.4,15,62-3.1,19-17.016,39.95-36,42q-4.5-2.505-9-5-1.5-5.505-3-11,11-11.505,22-23c6.637-19.65-4.15-46.64,5-62Zm974,2q6,1.005,12,2c10.48,15.79,6.55,71.73-5,83C1578.89,1201.21,1587.08,1127.24,1599,1116Zm54,0c14.89-.72,30.35-0.85,35,9,0.33,2.33.67,4.67,1,7-1.96,4.07-2.85,6-7,8-5.78,3.62-23.69,2.56-27-1Q1654,1127.495,1653,1116Zm-237,2c2,0.33,4,.67,6,1,18.99,9.02,8.57,74.44-1,85-7.5.06-9.77-1.38-14-4-5.33-19.69-5.7-64.66,4-80C1412.67,1119.33,1414.33,1118.67,1416,1118Zm305,1,11,3c1.88,3.61,4.2,8.02,2,13-3.33,8.18-12.26,16.05-19,21h-3v-5c2.63-9-.57-17.91-2-25Q1715.505,1122.505,1721,1119Zm-536,1c3.33,0.33,6.67.67,10,1q3.495,4.005,7,8c0.33,1.67.67,3.33,1,5-20.68,27.2-41.21,60.19-93,48-11.85-23.86,9.85-25.3,35-24Q1164.995,1138.995,1185,1120Zm985,0c19.49,4.89,12.63,54.3,12,77-11.25,8.78-18.8,27.1-37,28-4.42-2.11-6.89-3.48-9-8-0.67-1.67-1.33-3.33-2-5,4.73-11.82,18.5-16.67,22-27q1.005-27.99,2-56C2161.46,1124.41,2164.88,1123.04,2170,1120Zm-936,1c6.76,0.12,9.16,1.5,13,4,0.33,0.67.67,1.33,1,2-0.33,3.33-.67,6.67-1,10-6.5,15.08-48.52,61.39-66,43C1181.31,1158.81,1219.06,1129.85,1234,1121Zm45,1q6,1.995,12,4,1.5,4.995,3,10c-8.81,13.72-40.16,51.2-59,52q-4.005-2.505-8-5c-1.19-3.76-2.86-7.71-1-12C1231.61,1158.11,1266.55,1130.44,1279,1122Zm47,2c9.49,0.23,13.36,3.88,14,13-13.96,22.35-32.83,36.08-52,53q-7.005-1.005-14-2-1.5-5.505-3-11C1281.03,1156.48,1306.34,1135.11,1326,1124Zm370,1c19.93,3.22,10.31,47.28,9,67,7.13-2.51,11.71-1.51,17,2,1.16,4.03,2.9,8.6,1,13-7.93,18.25-35.53,35.88-50,49-7.69.37-11.33-.3-14-5-12.83-15.82,20.88-33.62,27-43C1669.26,1187.8,1686.24,1137.58,1696,1125Zm-113,1c2.62,2.83,1.47,17.23,1,21h-1q-6.495-3.495-13-7Q1576.5,1132.995,1583,1126Zm259,1c22.85-.54,58.13-2.47,70,9-0.33,3.33-.67,6.67-1,10-6.4,12.64-60.32,7.7-76,4-2.77-3.58-6.76-7.79-5-13,0.33-1.67.67-3.33,1-5Q1836.505,1129.495,1842,1127Zm-918,5c3.666,0.33,7.334.67,11,1q3.5,3.495,7,7c5.9,13.69-.874,71.89-9,76-7.034,2.02-11.376-.98-16-4-4.21-21.21-3.565-64.61,5-79C922.667,1132.67,923.333,1132.33,924,1132Zm545,10c3.33,0.33,6.67.67,10,1,13.2,6.13,49.09,40.39,50,58q-3.495,4.005-7,8c-18.61-.07-61.34-43.99-58-62Zm-391,4q9.495,7.5,19,15c-3.08,9.33-26.52,30.16-35,15-1.98-2.62-2.89-5.04-2-8C1061.83,1157.85,1071.7,1151.98,1078,1146Zm-187,1q9,0.495,18,1c1.66,5.07,2.41,19.53-1,23-5.651,2.73-16.7,1.02-20-2-4.188-2.43-7.868-8.79-5-15C885.149,1149.59,887.174,1149.53,891,1147Zm676,1c3.33,0.67,6.67,1.33,10,2,20.98,30.75.61,107.76-36,101-4.55-3.33-6.59-6.33-7-14q10.995-12,22-24C1562.99,1189.08,1550.16,1161.2,1567,1148Zm-1174,1c24.908-.24,52.842-1.32,72,3,3.558,5.02,5.622,9.04,4,17-9.9,12.06-63.374,7.21-79,3q-3-4.995-6-10,0.5-3,1-6Q389,1152.505,393,1149Zm988,1c4.92-.14,7.57.06,10,2,8.27,5.65,8.44,69.21,1,77l-5,5c-9.06.39-13.24-1.09-16-7-3.7-7.57-.45-59.12,2-71Q1377.005,1153,1381,1150Zm-852,3c10.7,1.68,53.188,42.4,56,51,4.73,14.47.006,39.13-8,43-19.987,11.94-20.073-18.84-19-36-12.564-9.26-37.284-29.21-39-48C521.834,1157.35,523.961,1156.34,529,1153Zm191,2c3,0.33,6,.67,9,1l7,6c-0.28,14.72-40.976,55.71-52,59-11.631,3.47-38.232-.75-42-7-4.11-5.3-2.635-14.52,3-18,9.394-5.8,21.818,2.57,32-1Q698.5,1175.005,720,1155Zm1217,0c23.64-.48,58.41-1.86,73,8,2.91,8.62,2.85,11.28-2,18h-65c-16.04,7.33-62.51,11.11-80,1q-1.5-5.505-3-11,2.505-4.005,5-8C1888.33,1157.17,1920.24,1166.11,1937,1155Zm-1172,2c3.333,0.33,6.667.67,10,1l7,6c-0.327,18.07-42.61,57.6-60,59-4.651-3.24-10.669-8.81-7-17C722.637,1187.93,749.578,1168.26,765,1157Zm47,2q6,1.005,12,2c7.97,16.57-42.57,67.75-59,61-2-1.67-4-3.33-6-5C759.538,1198.3,798.611,1167.78,812,1159Zm941,0c14.55,5.22,28.82,21.39,36,34-1.32,3.83,0,2.08-3,4l-10,3c-8.02-11.58-19.52-11.08-31-19-0.33-3.67-.67-7.33-1-11C1745.47,1163,1748.03,1162.28,1753,1159Zm-897,1c45.129,0.05-24.743,69.15-47,63q-3-4.995-6-10C812.816,1190.11,838.624,1175.89,856,1160Zm1214,0c21.59,3.29,71.51,50.06,56,87q-3,4.005-6,8-6-.495-12-1c-13.31-6.98-1.37-19.87-6-34-6.49-19.82-39.95-24.61-41-50,1-2.33,2-4.67,3-7Zm191,2c11.24-.54,16.58,2.59,17,13-8.59,19.86-34.36,40.55-51,53l-39-3c-3.28-4.47-5.42-6.29-6-14,2.72-4.22,3.19-6.71,8-9h28Zm48,1c6.66,0.16,9.05,1.61,13,4q1.005,6.495,2,13c-8.3,12.77-39.04,42.63-53,49-3.33-.67-6.67-1.33-10-2-1.33-1.67-2.67-3.33-4-5C2257.5,1200.04,2294.64,1174.02,2309,1163Zm44,2c3.33,0.33,6.67.67,10,1l6,6c-0.33,3-.67,6-1,9-5.35,11.52-42.29,49.33-57,50q-4.5-3.495-9-7C2302.3,1198.39,2337.47,1177.57,2353,1165Zm-1327,11c9.68,3.42,13.11,13.46,24,18,0.18,9.04-1.75,11.99-5,17-3.7,1.16-6.91,2.72-11,1C1022.47,1207.25,1024.96,1187.45,1026,1176Zm1360,0c2.67,3.73,1.04,8.27,1,15-0.14,25.17-8.1,36.19-27,42-8.44-3.01-10.78-5.82-14-14C2353.83,1201.63,2372.8,1188.55,2386,1176Zm-1038,4c2.33,0.33,4.67.67,7,1l7,7c5.85,20.73,4.09,62.57-5,76-2.67.67-5.33,1.33-8,2C1329.52,1256.37,1333.99,1193.02,1348,1180Zm-368,1c6.76,0.15,9.939,1.27,13,5,4.194,2.14,6.861,8.26,4,14-0.667,1.33-1.333,2.67-2,4-13.571,3.57-35.915,3.87-49-1C947.666,1185.78,968.464,1191.55,980,1181Zm-553,1c17.863-.49,62.74-4.37,70,8,24.149,26.89-74.3,22.48-80,9v-10C420,1185.14,422.564,1184.54,427,1182Zm827,5c12.83,3.27,26.07,21.04,22,36-4.43,3.07-6.09,4.77-14,5-11.41-5.8-30.38-24.08-34-37C1240.16,1194.19,1245.15,1195.65,1254,1187Zm218,0c11.39,1.59,53.54,42.35,55,52q-1.5,20.505-3,41c-23.86,11.85-25.3-9.85-24-35q-19.005-19.995-38-40c0.33-3,.67-6,1-9C1465.21,1190.98,1467.85,1189.94,1472,1187Zm189,2c4.92-.14,7.57.06,10,2l3,3c3.26,3.53,3.26,8.44,2,14q-24.495,23.505-49,47-20.505-1.995-41-4c-1-1.67-2-3.33-3-5v-11c9.59-11.07,22.54-.48,38-7C1629.93,1224.23,1651.75,1197.16,1661,1189Zm307,0c27.15-.91,74.65-8.29,75,19-1.33,2-2.67,4-4,6-19.47,5.41-54.15,2.89-73-1l-7-7c-0.2-8.16,1.18-10.56,4-15C1964.67,1190.33,1966.33,1189.67,1968,1189Zm-820,3h6q11.505,10.995,23,22c22.18,6.48,48.19-2.54,64,8,0.33,2.67.67,5.33,1,8q-2.505,4.005-5,8c-37.8,11.37-105.25.8-98-39Q1143.5,1195.505,1148,1192Zm606,0c3,0.33,6,.67,9,1l6,6c-0.33,3.33-.67,6.67-1,10-4.16,9.02-48.99,51.32-59,48-4.91-2-9.65-7.72-8-13C1705.25,1227.69,1740.7,1202.31,1754,1192Zm49,1c6.02,1.09,8.79,3.12,11,8,0.67,2.67,1.33,5.33,2,8-13.14,20.03-35.15,35.4-53,51-2.67-.33-5.33-0.67-8-1-5.18-2.04-10.01-8.12-8-14C1750.87,1229.78,1789.16,1201.22,1803,1193Zm-843,20c27.355,2.03,55.76-2.6,71,9,4.24,8.45,18.85,16.71,16,28q-1.995,4.5-4,9c-3,.67-6,1.33-9,2-8.23-5.4-15.3-17.34-23-21-17.2-8.17-46.464,2.65-63-7-0.667-3.33-1.333-6.67-2-10,1-2.33,2-4.67,3-7Zm354,0q6.495,1.005,13,2c14.32,38.51,1.96,97.14-33,101q-4.995-3-10-6-1.005-5.505-2-11,10.995-12,22-24,1.005-27.495,2-55Q1310.005,1216.505,1314,1213Zm-855,2c17.784-.35,62.36-4.3,70,9,2.083,2.38,3.116,6.17,2,9-1.309,4.84-2.828,6.14-7,8-17.292,7.69-85.452,4.57-76-18l6-6C455.666,1216.33,457.334,1215.67,459,1215Zm946,1c14.17,0.52,25.54.24,35,6,10.33,26.94-30.38,24.14-53,19v-1c0.33-.67.67-1.33,1-2C1402.3,1234.28,1397.8,1225.89,1405,1216Zm593,7c26.17-.55,63.04-4.35,76,9-0.33,3.33-.67,6.67-1,10-9.91,12.13-62.12,7.25-78,4l-6-6c0.33-3,.67-6,1-9Zm-1316,5c15.043,1.44,17.413,15.54,28,21,17.408,8.99,87.573-12.14,62,25-8.866,2.63-67.44,5.94-78-1q-11.5-13.995-23-28,0.5-3,1-6C674.322,1233.35,677.906,1231.66,682,1228Zm567,0q7.5,7.005,15,14v1h-19c-0.67-.33-1.33-0.67-2-1v-3C1246.09,1236.18,1247.06,1231.95,1249,1228Zm974,7c2.67,0.33,5.33.67,8,1q10.5,10.005,21,20c21.27,7.3,46.15-1.94,62,6q1.5,5.505,3,11-2.505,4.005-5,8h-71C2226.32,1273.56,2205.51,1249.32,2223,1235Zm-1078,5c26.66,0.77,9.09,19.79,17,39,7.69,18.68,38.23,21.55,39,48l-5,5C1179.55,1346.15,1106.27,1269.74,1145,1240Zm646,3c8.44,2.52,11.04,8.21,16,14,0.36,11.22-2.54,14.72-10,18-10.43-1.35-14.43-7.9-20-14C1779.23,1252.5,1786.79,1249.9,1791,1243Zm-1298,4c43.973-1.36,63.167-.18,82,25,3.6,4.81,10.524,7.75,7,17-2.648,5.87-7.241,8.16-16,8-10.585-5.04-16.14-15.18-25-22-22.581.49-49.125,2.14-62-7-1.067-9.81,1.131-15.61,9-19C489.666,1248.33,491.334,1247.67,493,1247Zm706,0c21.68-.22,72.79-5.19,75,15-0.67,2.33-1.33,4.67-2,7-15.84,10.53-71.71,6.55-83-5,0.33-3,.67-6,1-9C1192.34,1250.33,1195.46,1250.17,1199,1247Zm230,3q10.005,0.495,20,1c-0.33.67-.67,1.33-1,2q-7.995,6-16,12C1430.97,1258.12,1428.09,1255.76,1429,1250Zm-18,3c2.67,0.33,5.33.67,8,1,5.18,2.35,6.76,5.74,7,13-14.07,21.65-54.68,70.7-95,45-0.67-3.33-1.33-6.67-2-10,1.66-4,2.31-5.94,6-8,8.4-3.99,20.84,1.92,30-1C1376.93,1289.2,1398.48,1261.77,1411,1253Zm48,0c1.67,0.33,3.33.67,5,1,5.23,2.09,10.38,8.76,7,16-4.34,9.65-47.67,52.61-60,48q-3.495-3-7-6C1404.55,1291.68,1444.43,1262.35,1459,1253Zm574,2c55.34-.89,69.58.14,92,33-0.5,8.38-3.34,10.25-7,15-20.52-.53-19.48-17.35-33-22-21.51-7.39-44.58,5.84-61-5C2019.82,1263.78,2022.57,1260.28,2033,1255Zm-291,4c23.28,6.03,61.51,24.48,64,51-1.33,2.33-2.67,4.67-4,7q-5.505,1.005-11,2c-12.12-5.19-49.47-42.6-51-57C1740.67,1261,1741.33,1260,1742,1259Zm-249,2c1.01,1.42,7.73,25.96,8,27-8.93,10.94-24.95,31.24-42,33-2.33-1-4.67-2-7-3-1.67-3.33-3.18-5.31-2-9C1453.21,1288.51,1481.18,1274.82,1493,1261Zm130,2c18.87,0.78,16.99,15.47,29,21,19.94,9.18,48.7-3.28,64,8,0.33,0.67.67,1.33,1,2-0.33,3-.67,6-1,9-7.7,10.53-59.4,12.54-76,5l-25-28C1612.34,1270.93,1617.42,1266.8,1623,1263Zm-724,1q5,1.005,10,2c4.058,5.61,8.151,11.09,3,19q-19.5,18.495-39,37-2,7.005-4,14-16.5,15.495-33,31c-10.365,10.26-22.022,19.56-35,6q0.5-3,1-6,22-22.5,44-45C857.431,1297.52,877.832,1278.51,899,1264Zm967,0,27,3q3.495,4.005,7,8c0.23,8.21-1.07,10.68-4,15-21.95,3.33-51.68,2.49-73-2-4.76-3.48-6.83-6.73-7-15,1.67-2.33,3.33-4.67,5-7Q1843.5,1264.995,1866,1264Zm-922,3c3.333,0.33,6.667.67,10,1l6,6c-0.348,16.62-42.319,56.13-58,57-4.712-2.65-6.535-5.11-9-10C896.273,1304,931.181,1277.58,944,1267Zm47,0c2.666,0.33,5.334.67,8,1,20.96,16.29-40.66,67.61-52,63q-3.5-3.495-7-7-0.5-3-1-6C952.618,1298.18,972.472,1282.06,991,1267Zm965,1c15.27-.02,58.66,43.75,61,55q-1.995,18.495-4,37c-1.67,1.33-3.33,2.67-5,4-7.75.28-12.59-.57-17-3q-1.995-18-4-36c-9.48-15.45-35.71-26.08-39-46C1950.83,1274.56,1952.46,1271.51,1956,1268Zm-917,1,37,3c1.33,1.67,2.67,3.33,4,5-0.33,3.33-.67,6.67-1,10l-6,6q-14.505,1.005-29,2c-5.87,3.1-57.7,71.4-60,23C993.9,1299.94,1020.54,1278.59,1039,1269Zm-416,1c7.476,0.21,9.621,2.16,14,5,10.243,38.98-.947,95.6-36,99-6.351-3-9.558-5.97-10-15,6.593-11.94,35.679-27.26,28-47C611.745,1298.2,607.793,1279.91,623,1270Zm488,2c8.23,0.06,12.4,2.35,15,8,4.4,18.07-14.94,19.07-20,30-10.85,23.43,8.34,48.09-10,65-3-.33-6-0.67-9-1-10.54-7.77-12.54-59.32-5-76Zm-428,3,6,3c10.38,7.18,4.485,28.37,9,39l-15,18-7-6q-3.5-4.005-7-8,1-19.5,2-39Q677,1278.505,683,1275Zm547,6c16.84-.28,46.14-4.13,59,2l-11,11q-1.005,6-2,12c-25.44.84-50.69,4.52-57-15C1222.73,1285.53,1224.4,1284.6,1230,1281Zm990,2c3.33,0.33,6.67.67,10,1,13.04,6.87,1.01,21.4,7,35,7.97,18.1,37.17,24.64,38,49-2.11,4.42-3.48,6.89-8,9C2248.12,1381.46,2186.47,1310.61,2220,1283Zm-155,3c1.33,0.33,2.67.67,4,1q-0.495,9.495-1,19l-26,26c-8.65.28-12.24-1.07-17-4-0.33-.67-0.67-1.33-1-2-0.01-19.83,14.84-25.64,23-38Q2056,1286.995,2065,1286Zm217,4c22.36,2.06,65.2-7.89,66,17-1.33,2.33-2.67,4.67-4,7-14.53,4.44-69.33,8.51-77-4-2.44-2.7-2.88-4.63-3-10,1.33-2.33,2.67-4.67,4-7Zm-780,3c8.22,1.93,23.45,18.25,21,27-1.59,7.66-4.48,7.6-10,11-11.49-1.75-20.21-11.61-25-20Q1495.005,1302,1502,1293Zm365,5c21.21-.29,42.37.06,59,4,3.29,4.39,5.45,5.32,6,13l-7,7c-17.55,8.62-68.88,1.39-78-8-0.22-7.42.68-10.23,5-13Zm-1432,1c2.333,0.33,4.667.67,7,1l7,6c-0.023,17.77-43.5,59.64-59,61q-4.5-2.505-9-5C376.81,1342.59,419.482,1307.52,435,1299Zm45,3c2.333,0.33,4.667.67,7,1,3.782,3.63,5.676,5.59,8,11-5.769,13.98-46.425,56.26-63,54l-7-6c-0.333-2.67-.667-5.33-1-8C439.894,1335.05,458.052,1314.73,480,1302Zm44,1c7.476,0.21,9.621,2.16,14,5,4.424,15.19-37.714,57.8-50,61-6.863,1.79-10.653-2.86-14-5-0.667-3.33-1.333-6.67-2-10C482.7,1333.56,506.738,1317.44,524,1303Zm43,2c24.142-1.26,57.881-.19,42,24-7.154,1.73-24.517-1.63-33,2-18.892,8.09-26.4,43.57-53,38-2.634-3.6-6.536-8.22-5-13C523.009,1335.45,553,1318.38,567,1305Zm78,3c10.012,0.02,14.617,4.37,15,14-3.863,7.98-9.457,14.72-17,19h-1C641.862,1330.97,641.847,1315.68,645,1308Zm974,2c3.33,0.33,6.67.67,10,1l6,6q1.005,14.505,2,29c9.28,17.62,31.97,25.4,40,46-2.6,9.3-5.2,13.9-17,14-8.89-4.74-44.62-41.24-48-50-4.35-11.26-.23-32.07,2-42C1615.67,1312.67,1617.33,1311.33,1619,1310Zm463,0c6.56-.33,15.44-0.75,19,2q-11.505,10.5-23,21c-1.67-1-3.33-2-5-3-0.33-3-.67-6-1-9C2073.14,1312.79,2076.1,1313.13,2082,1310Zm-1316,1c6.081,0.5,8.691,1.75,11,6,2.1,2.35,3.107,5.1,2,8-1.675,10.69-47.487,56.76-60,52C694.51,1364.84,755.015,1318.53,766,1311Zm497,0c3.67,0.33,7.33.67,11,1,0.25,11.66-.77,21.48-3,30-2,1.67-4,3.33-6,5h-7c-4.07-1.96-6-2.85-8-7-3.75-6.56-1.59-19.95-1-27Q1256.005,1312,1263,1311Zm-547,1c8.3-.23,11.412,1.17,16,4,0.333,0.67.667,1.33,1,2,0.333,17.56-42.6,58.64-54,58-20.424-1.15-40.688,5.01-42-16,8.757-14.31,20.2-3,38-9C683.35,1348.19,706.941,1319.62,716,1312Zm1398,0c25.02-1.56,53.35,1.02,36,24-14.93,1.19-38.14-1-48,6-9.63,6.84-4.72,25.08-25,34h-11c-3.05-3.8-7.95-8.19-6-14,4.54-18.58,34.92-38.51,49-49C2110.67,1312.67,2112.33,1312.33,2114,1312Zm-1305,2c3,0.33,6,.67,9,1q3.5,3.495,7,7c-0.585,20.3-39.42,48.73-54,58-9.425-1.03-14.615-4.8-15-15C766.932,1344.13,791.258,1328.58,809,1314Zm335,0c19.01,1.49,25.29,20.58,37,30,10.54-5.01,47.24-11.28,62-4q4.5,4.995,9,10c4.82,2.4,8.91-.13,12,4,0.33,1.33.67,2.67,1,4-12.62,12.83-44.53,6.49-67,5,2.51,7.13,1.51,11.71-2,17-4.03,1.16-8.6,2.9-13,1-9.81-4.1-48.65-45.35-49-58,1.62-3.2,1.85-4.19,5-6C1140.67,1316,1142.33,1315,1144,1314Zm1042,0c2.67,0.33,5.33.67,8,1,5.44,2.35,7.02,5.18,10,10-4.7,13.76-14.15,15.23-21,25-0.67,3.33-1.33,6.67-2,10h-21c-0.67-.33-1.33-0.67-2-1-0.8-6.4-1.6-13.68,1-19C2164.2,1329.03,2176.91,1321.4,2186,1314Zm-514,4c24.9-.45,61.35-3.73,76,7a33.555,33.555,0,0,1-1,13c-14.58,9.91-64.3,8.61-80,1l-3-12c1.33-2.33,2.67-4.67,4-7C1669.33,1319.33,1670.67,1318.67,1672,1318Zm-615,4c24.34,0.51,17.72,72.24,8,84-5.96.54-7.84,0.31-13-1C1040.15,1387.74,1043.18,1332.83,1057,1322Zm1263,1c18.56-.61,64.01-4.55,61,17-0.64,4.56-3.4,6.31-7,8-20.31,5.93-72.08,6.14-78-10-0.33-2.67-.67-5.33-1-8,1-.67,2-1.33,3-2C2303.22,1323.34,2312.46,1325.83,2320,1323Zm-949,3c23.13,3.35,19.27,21.98,50,22,13.51,3,31.18-1.41,42,5,0.33,0.67.67,1.33,1,2-0.33,3.33-.67,6.67-1,10-4.25,9.14-60.3,14.66-76,7-8.46-4.13-24.16-25.17-26-36Zm91,55c0.33-2.67.67-5.33,1-8l38-38q6,0.495,12,1,6.495-4.005,13-8l4,4c5.74,15.65-34.65,40.92-43,51,5.2,1.85,6.71,4.48,10,8v6c-2.11,4.42-3.48,6.89-8,9-12.89,5.39-67.53.02-75-5-0.67-3.33-1.33-6.67-2-10,2.11-4.42,3.48-6.89,8-9C1429.22,1376.89,1449.05,1380.73,1462,1381Zm430-51c18.61-.11,61.56-3.19,69,9,0.67,2.33,1.33,4.67,2,7q-2.505,4.5-5,9c-23.01,6.7-73.06,5.51-81-10,0.67-3,1.33-6,2-9C1882.83,1333.55,1887.34,1332.35,1892,1330Zm-356,10c9.04-.18,11.99,1.75,17,5,1.21,4.61,1.85,7.06,1,12q-3.495,3-7,6c-8.07,3.52-22.05,1.8-29,1C1521.32,1354.25,1531.45,1350.89,1536,1340Zm53,2q6,2.505,12,5c0.67,3,1.33,6,2,9-5.68,8.49-19.67,17.44-22,27-5.26,21.61,2.87,43.71-6,59-7.59,2.52-10.42,3.04-17-1-2.94-10.16-5.89-64.08-2-74C1559.82,1357.24,1579.61,1347.14,1589,1342Zm523,2c17.78,1.13,17.25,16.02,29,21,20.54,8.7,45.02-5.77,64,8,0.86,7.12.71,12.87-5,16-5.41,4.4-63.53,4.55-71,1q-13.5-15.495-27-31c0.67-3,1.33-6,2-9Q2108.005,1347,2112,1344Zm-1546,4c20.1,2.79,22.069,38.52,12,55l-12,3c-12.544-6.07-10.161-31.85-13-45Q559.5,1354.505,566,1348Zm1147,2c25.98-.57,53.2-1.42,67,10v7c-1.04,5.12-1.84,6.07-6,8-13.38,7.1-73.65.75-77-5-4.66-5.58-.89-13.18,2-17Zm-692,3c3.67,0.33,7.33.67,11,1,14.23,6.97,11.31,75.11-1,82-2.67,1-5.33,2-8,3C1005.45,1427.58,1010.82,1364.69,1021,1353Zm1195,3c15.09,0.07,61.65,48.55,59,59-1.04,5.12-1.84,6.07-6,8h-10c-9.06-3.63-51.61-47.57-49-57C2210.94,1360.01,2212.7,1359.24,2216,1356Zm124,0q24.495,1.005,49,2c0.9,7.85,2.78,21-3,25-16.19,6.19-52.39-.99-60-9,0.33-3.67.67-7.33,1-11l6-6C2335.33,1356.67,2337.67,1356.33,2340,1356Zm-1196,2c13.19,3.74,52.97,44.29,54,60q-3.495,4.5-7,9c-3.33-.33-6.67-0.67-10-1-11.09-5.22-48-44.65-49-59Zm799,6q21,1.005,42,2c10.55,3.37,29.47,25.37,27,39-3.33,4.6-6.08,6.75-14,7-9.94-5.07-14.74-18.53-24-22-19.98-7.48-47.11,4.1-63-5-1-2.67-2-5.33-3-8q1.995-4.5,4-9C1918.81,1366.12,1935,1367.22,1943,1364Zm-683,4h3c7.72,5.46,8.59,12.87,5,22-3.89,1.85-5.77,2.8-12,3-8.57-4.35-16.5-12.54-22-20v-3h5C1245.9,1372.36,1255.35,1372.59,1260,1368Zm-806,4c22.166-.2,49.065-1.92,68,2q4,4.005,8,8c0.115,7.73-1.153,8.97-4,13-18.312,5.57-57.078,3.65-77-1C441.8,1384.2,444.856,1378.07,454,1372Zm915,2c2.67,0.33,5.33.67,8,1l7,7q1.005,15.495,2,31c9.19,16.23,36.58,24.18,38,47-0.33,1-.67,2-1,3l-6,6q-6-.495-12-1c-17.88-8.5-34.74-34.22-46-50C1358.3,1398.26,1357.44,1381.77,1369,1374Zm377,9c20.01-.37,48.11-1.87,63,5l3,12c-1.33,2.67-2.67,5.33-4,8-19.84,5.66-65.47,4.17-79-5-1.31-4.45-1.93-6.93-1-12C1732.94,1384.67,1737.59,1386.26,1746,1383Zm-126,1c2,0.33,4,.67,6,1,9.25,6.19,51.63,45.5,47,58l-7,7c-2,.33-4,0.67-6,1-12.53-8.42-49.89-40.91-51-58C1612.04,1387.82,1615.03,1387.16,1620,1384Zm-941,1c16.022,0.61,19.6,13.6,29,21,19.3-.35,49.327-3.18,62,4,1,1.67,2,3.33,3,5q-0.5,4.5-1,9c-4.877,9.07-63.95,13.97-77,6q-12.5-13.005-25-26c-0.174-6.51-.2-7.55,1-13Zm312,0c2.666,0.33,5.334.67,8,1,9.42,7.09,11.89,74.32,1,81-5.395,5.07-12.98,2.26-18-1-5.373-18.87-4.421-64.06,4-78Zm1117,5c8.08,0.03,11.27,2.04,16,5,2.49,8.76-1.61,27.79,3,36,9.83,17.5,35.51,22.77,39,47-1.67,2.33-3.33,4.67-5,7-4.23,1.22-10.18,3.14-15,1-9.85-4.26-39.96-35.64-45-45-5.83-10.84-1.49-35.64,1-46C2104,1393.33,2106,1391.67,2108,1390Zm-575,2c3,0.33,6,.67,9,1,1.33,0.67,2.67,1.33,4,2,3.45,13.26,3.69,36.34-1,49-18.47-1.69-7.84-10.04-13-23l-9-12c0.38-6.27,1.42-9.06,5-12Zm-410,6c5.36,0.24,5.48.36,8,3-7.87,22.63-23.28,60.47-51,63-2.33-1.33-4.67-2.67-7-4q-1.005-5.505-2-11C1080.19,1428.03,1106.07,1411.99,1123,1398Zm1040,0c24.04-.28,50.53-0.67,70,4,1.85,3.59,4.3,8.13,3,12q-1.995,4.5-4,9c-22.04,5.33-78.78,8.66-79-16,1.62-3.2,1.85-4.19,5-6C2159.67,1400,2161.33,1399,2163,1398Zm-945,3c7.38,2.54,8.99,4.33,13,10-5.22,14.55-21.39,28.82-34,36-5.4-1.84-6.8-6.23-7-13,11.7-8.01,10.32-18.07,18-30,1-.67,2-1.33,3-2C1213.33,1401.67,1215.67,1401.33,1218,1401Zm40,0c16.31-.36,33.47,1.5,43,8,1.19,3.76,2.86,7.71,1,12-7.24,14.06-20.11,2.1-35,7-19.09,6.28-24.48,36.33-49,39-5.1-1.99-7.72-3.11-10-8C1205.49,1443.1,1248.27,1413.43,1258,1401Zm-768,3c42.4-.81,75.772,2.76,89,31,1.831,6.81-1,10.49-4,15-3.765,1.19-7.705,2.86-12,1q-11.5-10.005-23-20c-13.358-3.08-51.61,5.28-59-7-2.439-2.7-2.88-4.63-3-10C481.269,1407.59,483.752,1407.38,490,1404Zm652,0c11.51,2.05,56.65,49.48,54,60-2.2,6.77-6.32,9.69-15,10-9.45-5.33-54.32-49.33-50-61C1133.61,1407.34,1136.73,1406.92,1142,1404Zm192,1h9q3.495,4.005,7,8c-0.33,16.4-12.58,20.59-20,30,0.5,15.49,3.91,41.51-2,56-2.01,4.84-4.49,5.9-8,9-8.57.08-11.19-1.88-16-5-2.76-10.8-2.61-63.88,2-72Q1320,1418,1334,1405Zm116,9c22.27-.85,83.59-6.43,77,17-1.55,4.58-2.82,6.07-7,8-16.55,4.84-69.64,3.43-76-7v-11Q1447,1417.505,1450,1414Zm416,1c7.96,1.01,9.86,4.48,14,9v8c-19.81,15.08-32.01,40.52-57,50q-6-4.005-12-8C1811.19,1445.9,1847.61,1426.56,1866,1415Zm44,1,12,3c1.86,4.44,3.4,5.56,4,12-7.37,13.51-40.57,45.76-55,52-3.33-.67-6.67-1.33-10-2-1.67-2-3.33-4-5-6C1856.56,1454.45,1895.56,1425.47,1910,1416Zm43,2c3.33,0.33,6.67.67,10,1,4.37,3.32,5.98,6.09,6,14-10.47,21.15-32.63,35.38-49,51q-6.495-1.005-13-2c-2.97-4.33-4.69-6.45-5-14C1912.63,1447.73,1936.57,1433.05,1953,1418Zm72,2q6,1.005,12,2c4.83,3.5,6.95,6.47,7,15-7.44,15.4-18.71,3.14-36,9l-43,40q-6-1.005-12-2l-5-5c0.33-15.09,39.12-54.56,50-58Q2011.5,1420.505,2025,1420Zm49,3c7.46-.12,11.38,1.3,14,6a11.046,11.046,0,0,1,2,12Q2080,1452,2070,1463c0.24,20.13.53,41.95-3,58-2,1.67-4,3.33-6,5-7.69.37-11.33-.3-14-5-3.63-5.39-5.19-65.67-1-73C2051.34,1438.67,2064.96,1428.99,2074,1423Zm-458,7c15.16,0.33,60.6,46.45,56,59-2.11,4.57-4.61,5.81-9,8-13.08-2.38-53.37-42.8-54-58Q1612.5,1434.5,1616,1430Zm-939,1c25.294,0.64,9.706,17.76,16,37,6.547,20.01,43.342,25.45,38,54l-6,6c-3.333-.33-6.667-0.67-10-1q-24-24-48-48c-0.377-15.45-1.631-35.48,4-45Zm1526,0c22.3-.43,52.17-0.65,66,8v12c-1.33,2-2.67,4-4,6-25.83,2.85-69.99,5.32-81-11q1.995-6,4-12Zm-1074,4c7.32,1.84,13.61,9.94,18,15-3.4,7.34-8.35,10.11-14,15-11.22.36-14.72-2.54-18-10C1116.36,1444.76,1122.97,1440.51,1129,1435Zm-398,4c24.169-.42,62.748-2.65,75,10,0.1,6.22-.549,12.43-4,15-9.4,7.01-73.407.53-79-4-2.972-2.41-3.027-6.46-3-12Zm636,8c12.88,1.7,55.43,45.11,56,59-1.33,2.33-2.67,4.67-4,7q-5.505,1.005-11,2c-12.39-6.26-50.29-41.84-51-58q2.505-4.005,5-8C1363.67,1448.33,1365.33,1447.67,1367,1447Zm116,0c24.02-.46,60.06-1.88,75,8,0.33,3,.67,6,1,9q-2.505,4.5-5,9c-21.21,4.21-64.61,3.57-79-5-0.33-.67-0.67-1.33-1-2,0.33-3.67.67-7.33,1-11C1477.06,1450.24,1479.13,1449.75,1483,1447Zm-1052,8c2.666,0.33,5.334.67,8,1,5.226,2.09,10.381,8.76,7,16-6.147,13.17-27.159,32.35-40,39q-8-7.995-16-16v-4C404.474,1480.16,416.529,1466.49,431,1455Zm847,1c9.06-.39,13.24,1.09,16,7,4.65,15.75,3.33,50.53-1,69-3.18,4.34-5.98,6.31-13,7-15.35-10.13-12.42-56.92-7-79C1274.67,1458.67,1276.33,1457.33,1278,1456Zm185,0c3.01,1.28,2.25.63,4,3,10.75,22.25,21.75,43.67,10,77l-11,3c-2.33-1.33-4.67-2.67-7-4C1452.39,1518.37,1451.78,1468.65,1463,1456Zm-989,2c3.666,0.33,7.334.67,11,1l8,6v4c-7.073,10.99-46.333,57.12-59,54-6.448-1.02-7.544-3.34-11-7C423.909,1496.53,460.983,1468.72,474,1458Zm48,0c8.669,0.35,10.192,3.28,15,7l-1,10c-4,9.09-46.882,52.17-58,48q-4-3.495-8-7C470.548,1496.63,508.35,1467.04,522,1458Zm63,2c8.96,0.93,18.89,2.39,25,6,1.922,7.53,1.428,11.49-1,18-8.492,3.71-26.313-1.95-35,3-16.855,9.61-25.941,28.6-44,39-9.926-.66-14.284-5-14-16,5.51-8.46,41.616-46.62,50-49C573.088,1458.99,578.69,1462.66,585,1460Zm61,3c2.333,0.67,4.667,1.33,7,2q3,4.995,6,10c-2.015,13.28-14.14,17.4-21,26,0.389,21.07,1.009,51.52-8,64-6.4,1.49-11.125,2.65-15-3-8.639-11.87-5.418-56.57-2-74l27-24C642,1463.67,644,1463.33,646,1463Zm1459,2c15.29-.1,61.52,46.24,58,58-0.72,5.18-1.25,5.97-5,8-2.35,2.1-5.1,3.11-8,2-10.95-1.87-54.13-46.44-51-58C2100.13,1469.61,2101.97,1468.17,2105,1465Zm119,0c23.99-.24,50.57-1.43,71,3,3.28,4.47,5.42,6.29,6,14-8.9,16.3-70.93,12.73-86,3-0.33-3-.67-6-1-9C2215.63,1468.8,2218.78,1468.34,2224,1465Zm-1307,4c19.345,0.31,55.848,41.36,58,59q-4.5,4.995-9,10h-8c-15.085-19.78-40.523-32.02-50-57C910.435,1475.09,912.849,1472.9,917,1469Zm-157,3,68,3c4.764,3.48,6.83,6.73,7,15-1.622,3.2-1.849,4.19-5,6-6.194,5.2-61.9,2.55-73,0q-3.5-4.005-7-8c0.333-2.67.667-5.33,1-8C753.275,1475.16,755.808,1474.75,760,1472Zm351,2c2.67,0.33,5.33.67,8,1,1.67,1.33,3.33,2.67,5,4,1.98,18.18,6.96,62.15-3,73l-6,6c-8.21.23-10.68-1.07-15-4-3.33-21.95-2.49-51.68,2-73Q1106.5,1477.505,1111,1474Zm909,0c3.33,0.33,6.67.67,10,1,11.67,11.24,9.34,69.3,1,82-3.33.67-6.67,1.33-10,2-3.2-1.62-4.19-1.85-6-5C2002.57,1540.99,2011.45,1482.19,2020,1474Zm-403,1c23.55,5.53,28.8,31.83,47,42q7.005,1.995,14,4,19.995,21,40,42c7.36,9.91,4.38,18.87-3,26-2-.33-4-0.67-6-1q-22.5-22.005-45-44c-20.39-9.4-21.6-15.53-36-29-8.47-7.93-20.83-13.96-22-29C1609.04,1479.74,1611.17,1478.46,1617,1475Zm-126,5c6.72-.36,18.54-1.31,22,2,2.57,5.74.37,15.16-1,20-3.94,3.13-8.83,8.13-16,5-1.67-1-3.33-2-5-3C1489.14,1497.36,1487.87,1486.41,1491,1480Zm-240,7c2.33,0.67,4.67,1.33,7,2,8.81,16.21,7.94,68.73-4,81-3.33-.33-6.67-0.67-10-1-10.79-5.26-10.23-74.07,2-80C1247.67,1488.33,1249.33,1487.67,1251,1487Zm114,5c16.51,3.83,58.79,43.98,55,64-3,3.89-5.55,5.38-12,6-10.26-6.6-57.36-48.15-52-62C1358.28,1495.16,1360.81,1494.75,1365,1492Zm622,12c8.05,0.05,10.4,2.01,15,5,5.06,23.42,7.18,83.72-18,79-11.17-8.8-11.15-73.62,1-82Zm-1312,1c16.787,1.17,49.453,41.49,56,55-1.086,6.63-3.517,9.06-7,13-19.5-.28-51.087-39.22-59-53C665.987,1511.45,669.533,1508.91,675,1505Zm122,0c19.542,0.41,80.6-6.3,69,21-0.667,1.33-1.333,2.67-2,4-21.439,6.03-62.879,2.68-80-4a20.582,20.582,0,0,1-2-15Zm279,0c2.67,0.33,5.33.67,8,1l6,6c7.42,17.88,1.91,55.81-2,72q-3.495,3-7,6c-2.33-.33-4.67-0.67-7-1l-6-6C1059.38,1565.45,1066.61,1514.12,1076,1505Zm1028,6c14.98-.01,55.12,41.22,58,52,1.85,6.91-2.82,10.77-5,14-3,.67-6,1.33-9,2-12.54-6.09-49.91-42.09-51-58A27.686,27.686,0,0,1,2104,1511Zm-1516,3c2.333,0.33,4.667.67,7,1q3.5,3.495,7,7c6.517,13.39,1.285,65.24-4,74-3.537,1.28-7.674,2.92-12,1-3.632-1.5-5.188-2.64-7-6-5.091-8.96-1.407-59.02,1-70Q584,1517.505,588,1514Zm327,0c18.194,0.45,52.988,40.82,59,55-0.4,6.38-1.592,9.59-6,12-2.557,2.31-4.054,2.71-9,3-13.138-6.82-46.032-41.04-52-55C907.746,1520.71,910.485,1518.21,915,1514Zm595,3c2.33,0.33,4.67.67,7,1,14.4,6.36,52.8,44.08,48,63q-4.995,3-10,6c-22.7-9.73-37.51-35.48-53-53q1.005-6,2-12C1506,1520.33,1508,1518.67,1510,1517Zm-295,1c3,0.67,6,1.33,9,2,5.71,8.52,7.39,31.24,5,47-2.72,17.95,18.6,90.31-5,102-4.48,2.63-8,1.43-13,0-5.57-12.74.57-33.87-2-52-3.13-22.09-14.8-72.28-1-96C1210.33,1520,1212.67,1519,1215,1518Zm642,5c7.32-.25,10.97.66,15,3,4.64,17.39,5.86,73.34-7,81-3.36,2.29-7.46,2.02-12,1C1843.72,1591.21,1843.61,1536.47,1857,1523Zm-812,12c3,0.67,6,1.33,9,2,7.8,11.37,11.08,73.5-3,82-2.33.67-4.67,1.33-7,2q-4.5-2.505-9-5C1027.91,1591.47,1030.29,1544.87,1045,1535Zm908,1c7.32-.25,10.97.66,15,3,6.65,25.04,6.55,75.55-13,83C1939.98,1611.17,1938.33,1550.39,1953,1536Zm-590,3c20.27,0.97,45.84,38.12,58,51,0.83,48.48-74.87-28.09-62-49C1360.33,1540.33,1361.67,1539.67,1363,1539Zm-806,5c6.734,0.7,9.722,2.9,12,8,5.194,18.8,3.106,52.43-1,71-4.551,3.37-5.957,5.55-14,6-2.333-1.33-4.667-2.67-7-4-5.053-20-5.465-57.95,1-77Q552.5,1546.005,557,1544Zm113,8c20.024,0.33,46.942,36.33,58,49q-0.5,6-1,12l-5,6c-3-.33-6-0.67-9-1-12.426-5.81-48.918-42.06-49-60Zm1155,3c7.34-.26,10.44.47,13,5,5.14,6.14,2.53,60.98,0,72l-8,8c-2.67-.33-5.33-0.67-8-1-14.09-6.74-9.03-58.71-5-78Q1821.005,1558,1825,1555Zm279,0c11.93,1.61,58.73,48.61,56,59q-1.995,4.5-4,9c-3,.67-6,1.33-9,2-12.04-6.95-51.89-43.9-53-59C2096.76,1560.44,2099.27,1558.48,2104,1555Zm-1187,5c18.355,1.77,43.685,38.5,55,51l-1,10-6,6c-26.761-.35-44.849-33.97-59-49q1-6.495,2-13Q912.5,1562.5,917,1560Zm591,3c14.68,0.46,62,46.91,56,62l-5,5c-2.33.33-4.67,0.67-7,1-12.93-6.55-50.61-43.41-51-61,0.67-1.33,1.33-2.67,2-4C1504.67,1565,1506.33,1564,1508,1563Zm156,2c20.11,0.59,48.78,39.51,58,54-0.98,7.27-3.28,11.43-9,14-2,.33-4,0.67-6,1-12.71-6.43-52.81-45.33-50-62Zm-655,2c3,0.33,6,.67,9,1,10.44,5.5,4.91,18.93,7,33,4.74,31.79-11.21,74.52-40,69-4.6-3.33-6.752-6.08-7-14,5.092-9.78,18.537-14.71,22-24,6.26-16.79-1.736-45.87,4-62C1005.67,1569,1007.33,1568,1009,1567Zm-488,9c7.624-.09,10.649,1.36,15,4,3.608,16.51,3.2,41.53,1,58h-1q-7-6.495-14-13c-5.984-11.75-14.175-19.85-10-41Q516.5,1580,521,1576Zm1269,8c8.35-.37,13.13.88,16,6,9.55,16.31,4.25,79.81-16,80C1777.38,1655.32,1777.38,1600.79,1790,1584ZM669,1597c17.227,0.08,57.958,43.82,59,60-1.809,3.07-2.779,5.16-6,7-2.269,1.82-3.457,1.91-8,2-10.616-4.4-56.2-48.53-51-62Q666,1600.505,669,1597Zm111,5c23.571-.53,61.69-2.91,74,9q-0.5,5.505-1,11c-0.667,1.33-1.333,2.67-2,4-26.216,6.89-72.718,5.39-83-12v-1C771.9,1607.76,774.5,1605.7,780,1602Zm132,4c13.991,0.4,53.59,39.74,57,50,3.584,10.78.681,31.49-1,39l-7,6c-6.656,2.01-11.585-.27-16-3q-0.5-16.005-1-32-20-21.495-40-43,1-6,2-12C908,1609.33,910,1607.67,912,1606Zm196,0c7.19,1.54,9.89,3.71,14,8,0.03,15.4-43.69,58.79-55,61q-18.495-1.995-37-4c-1.33-1.67-2.67-3.33-4-5-0.28-7.75.57-12.59,3-17l34-3Q1085.5,1626.005,1108,1606Zm398,2c19.5,0.43,52.67,40.49,59,56-0.54,5.43-1.2,6.88-5,9-2.83,2.56-5.27,3.01-11,3-17.62-9.12-44.07-36.49-51-56C1500.17,1613.8,1501.9,1611.89,1506,1608Zm158,2c14.52,2.32,57.74,45.82,55,62l-10,7c-16.39-6.31-47.76-39.88-56-55q1.995-5.505,4-11C1659.33,1612,1661.67,1611,1664,1610Zm-59,3c5.48,0.9,7.46,2.57,11,5,3.38,11.92,5.15,69.41-2,79q-14.505,10.995-29,22c-8.75-1.07-11.74-5.63-15-12,2.49-14.82,18.42-17.38,22-30,5.37-18.93-3.49-46.34,5-61C1599.67,1615,1602.33,1614,1605,1613Zm-421,4c28.45-.55,19.99,77.04,7,83h-10c-1.67-1-3.33-2-5-3C1169.61,1674.83,1171.86,1628.68,1184,1617Zm573,0c3.67,0.33,7.33.67,11,1,5.3,9.71,12.76,62.58,4,77q-13.005,12.495-26,25c-6.51.17-7.55,0.2-13-1-13.1-18.19,5.32-24.93,15-37-0.2-20.1-1.83-43.25,2-60C1752.33,1620.33,1754.67,1618.67,1757,1617Zm-944,18c19.029-.53,62.857-3.58,71,8,17.742,25.69-88.747,28.36-82-1C805.109,1638.23,808.679,1637.62,813,1635Zm338,12c3,0.33,6,.67,9,1,12.84,9.89,8.53,62.2,4,79-2,1.67-4,3.33-6,5-3.33-.33-6.67-0.67-10-1-12.12-9.9-7.25-62.17-4-78Q1147.495,1650,1151,1647Zm224,1c21.02-.94,82.15-4.29,71,22l-5,5c-13.07,3.81-71.13,1.98-76-6-2-2.8-2.92-9.09-1-13C1366.59,1651.12,1370.5,1650.79,1375,1648Zm129,6c14.72,0.28,55.72,40.98,59,52,3.42,11.5-.78,38.25-7,42-5.27,4.2-14.54,2.57-18-3-5.53-8.89,2.69-20.67-1-32-4.29-13.18-46.08-34.31-39-52Q1501,1657.505,1504,1654Zm156,3c28.01-.32,73.97,55.54,54,93-35.74,10.54-11.81-19.05-22-37l-38-38c-0.28-8.65,1.07-12.24,4-17C1658.67,1657.67,1659.33,1657.33,1660,1657Zm192,1c10.69-.34,13.2,1.92,18,7-0.41,14.87-38.38,50.14-49,58-22.24.98-47.79,5.69-48-17,1.33-2.33,2.67-4.67,4-7,7.74-1.95,23.49,1.26,33-2Zm49,1c3,0.67,6,1.33,9,2l5,5c-0.48,26.59-36.86,44.76-52,59-8.06-.38-12.41-3.16-15-9v-9C1860.96,1688.4,1882.41,1672.04,1901,1659Zm42,3q6,0.495,12,1c2,1.67,4,3.33,6,5-0.33,3-.67,6-1,9-5.58,12.4-51.19,61.97-66,42C1894.53,1700.76,1930.84,1672.01,1943,1662Zm51,0h6c4.64,4.55,7.58,4.63,8,14-4.6,10.56-48.52,56.19-62,51q-3.495-3-7-6c0.33-3.33.67-6.67,1-10C1948.48,1693.28,1976.58,1671.32,1994,1662Zm-1115,6c19.288-1.18,40.285.23,36,20-10.781,14.18-69.508,9.04-82,1-0.667-3.33-1.333-6.67-2-10,1.622-3.2,1.849-4.19,5-6C844.965,1664.98,866.322,1672.77,879,1668Zm242,11c16.7,2.91,17.36,29.01,14,50q-1.005,13.005-2,26c-3.36,8.42-24.48,26.84-35,28q-5.505-3.495-11-7c0.55-20.53,17.33-19.3,22-33,6.99-20.5-5.34-43.61,4-60C1115.67,1681.67,1118.33,1680.33,1121,1679Zm289,2c18.58,0.87,52.59-.75,66,7,1,1.67,2,3.33,3,5,0.27,7.52-.64,11.15-5,14-4.47,3.03-66.48,4.29-74,0-4.41-2.51-6.56-8.26-7-15,1.62-3.2,1.85-4.19,5-6C1401.22,1683,1405.51,1683.02,1410,1681Zm-346,1c19.73,0.1,25.56,14.89,38,23q0.495,10.995,1,22h-20q-12.495-13.5-25-27c-0.28-8.65,1.07-12.24,4-17C1062.67,1682.67,1063.33,1682.33,1064,1682Zm593,10c8.33,1.75,15.57,9.2,20,15-1.67,2-3.33,4-5,6q-4.5,4.005-9,8-19.5-1.005-39-2a54.793,54.793,0,0,1-7-13c0.67-2,1.33-4,2-6C1626.89,1696.01,1652.67,1695.69,1657,1692Zm-782,10c42.154-.99,89.981-2.11,92,36-1.687,3.67-2.5,5.99-6,8a11.044,11.044,0,0,1-12,2q-11-10.005-22-20c-20.016.25-42.108,0.7-58-3l-5-6q1-6.495,2-13Q870.5,1704.005,875,1702Zm562,13c20.76-.35,54.55-2.91,70,6q1.005,5.505,2,11c-1.33,2.33-2.67,4.67-4,7-18.05,5.62-63.27,7.69-78-3-0.67-3.33-1.33-6.67-2-10C1428.26,1719.44,1430.7,1718.52,1437,1715Zm-412,2c20.63,4.03,40.88,35.05,52,50,1.05,12.76,4.32,39.36-5,45-7.19,4.97-13.57-.43-18-4-1.27-15.93.86-39.2-7-49-7.71-9.61-23.86-3.2-33-24v-11Q1019.5,1720.505,1025,1717Zm188,2c11.04-.21,12.83,2.59,17,9-3.31,21.69-50,71.53-87,56q-4.005-3-8-6,0.495-6,1-12c7.14-13.32,19.65-1.22,34-6Q1191.495,1739.5,1213,1719Zm49,1c2.67,0.33,5.33.67,8,1,6.07,2.65,8.43,8.82,7,16-9.29,13.6-41.74,48.42-62,49l-4-4c-2-2.8-2.92-9.09-1-13C1216.65,1755.14,1248.62,1728.91,1262,1720Zm42,3c8.57-.08,11.19,1.88,16,5,0.67,2.33,1.33,4.67,2,7-5.01,13.73-45.84,55.42-64,52-1.67-2-3.33-4-5-6C1249.47,1765.2,1293.23,1732.87,1304,1723Zm48,1c2.67,0.33,5.33.67,8,1q4.005,3.495,8,7v7c-7.84,12.3-46.89,52.77-64,50-2-1.67-4-3.33-6-5C1298.65,1763.26,1337.39,1733.38,1352,1724Zm-287,5q6,1.995,12,4c2.11,5.54,5.82,19.79,1,26q-10.5-11.505-21-23c1-1.67,2-3.33,3-5C1061.67,1730.33,1063.33,1729.67,1065,1729Zm594,1c11.99,0.52,19.56,8.96,24,17v1q-16.005-1.005-32-2v-8Zm157,1c14.29,1.81,18.03,13.84,27,21,21.07-.39,51.52-1.01,64,8,0.67,2,1.33,4,2,6-0.67,2.33-1.33,4.67-2,7-13.9,9.32-55.5,8.17-77,4-5.74-9.34-27.39-22.19-24-35C1807.63,1734.8,1810.78,1734.34,1816,1731Zm-348,18c42.43-.89,87.48.73,92,37-2.18,3.49-2.32,5.83-6,8-2.71,2.7-4.86,3.49-10,4q-12-10.995-24-22c-19.7-5.55-46.02,3.93-61-5C1454.28,1757.79,1456.71,1755.69,1468,1749Zm170,1c36.12-.34,74.92,7.47,78,39-2.31,4.63-4.14,6.9-9,9-2,.33-4,0.67-6,1-11.89-6.56-27.44-35.6-47-28-11.11,5.66-21.38,8.24-37,4-4.36-6.14-5.36-10.47-3-19C1620.41,1751.85,1629.07,1753.43,1638,1750Zm-820,2q5.5,1.005,11,2c3.1,4.12,5.089,5.14,6,12-11.067,13.84-40.113,51.16-60,53-5.067-3.34-7.118-4.38-10-10C767.03,1791.95,805.5,1762.35,818,1752Zm45,3c8.047,0.05,10.4,2.01,15,5,3.212,15.83-39.494,56.91-51,60-6.89,1.85-10.792-2.81-14-5q-1-4.5-2-9C821.248,1785.39,845.392,1768.81,863,1755Zm50,1c5.921,1.54,8.12,3.8,12,7l-1,10c-5.223,11.11-42.791,47.72-57,49q-4.5-2.505-9-5-0.5-4.5-1-9C861.083,1790.47,896.865,1764,913,1756Zm45,1c13.818-.24,26.228.58,37,3l5,6c-0.031,8.08-2.039,11.27-5,16-8.834,2.96-27.847-1.51-36,3-17.634,9.75-22.575,35.53-47,39-5.064-3.78-12.719-9.92-8-20,6.492-14.68,32.655-38.18,47-45C953.333,1758.33,955.667,1757.67,958,1757Zm73,3c7.38,1.06,9.49,3.56,14,7,0.33,3,.67,6,1,9l-21,24c-0.5,20.83,2.54,49.76-8,63-7.45.88-12.75,0.82-16-5-4.24-5.23-4.585-63.86-1-71Q1015.5,1773.5,1031,1760Zm629,16q5.505,2.505,11,5c1.79,7.38-1.55,24.18,2,33,5.27,13.12,45.03,31.51,38,51-12.82,26.18-55.67-32.88-64-42C1646.31,1801.18,1645.48,1783.61,1660,1776Zm154,2c24.5,1.65,8.08,18.05,14,36,5.64,17.11,32.38,26.04,40,48-1.95,5.25-3.05,8.61-8,11h-9c-6.79-3.13-46.13-42.59-48-49-3.71-12.7-.37-34.79,5-44C1810,1779.33,1812,1778.67,1814,1778Zm55,8c23.3-.43,54.25-2.77,69,6,1.28,3.54,2.92,7.67,1,12-1.82,4.32-3.67,6.16-8,8-14.77,4.16-53.68,1.08-68-2l-7-7c0.33-2.67.67-5.33,1-8l7-7C1865.67,1787.33,1867.33,1786.67,1869,1786Zm-691,6c12.37,4.78,17.47,14.63,27,22,23.45-.49,51.87-1.13,64,10,0.33,1.67.67,3.33,1,5q-1.995,4.5-4,9c-21.2,5.72-49.06,2.16-73,2-8.53-10.95-26.71-18.82-28-36,1.99-5.1,3.11-7.72,8-10C1174.67,1793.33,1176.33,1792.67,1178,1792Zm233,9c44.41-.01-26.07,65.44-46,65-2.6-1.4-3.33-1.61-5-4-1.59-2.37-1.81-3.62-2-8C1366.65,1831.97,1393.66,1815.19,1411,1801Zm47,1h7q3,4.005,6,8v9c-4.76,10.09-44.52,47.59-57,49-5.12-2.27-6.62-4.28-10-8C1404.99,1838.38,1443.36,1813.08,1458,1802Zm45,2c2.33,0.33,4.67.67,7,1,4.6,3.33,6.75,6.08,7,14-7.35,15.44-38.87,44.79-55,52-6.52-.73-9.73-3.07-12-8C1446.74,1846.76,1490.16,1811.57,1503,1804Zm43,1c16.35-.66,37.71-3.05,43,8,11.94,19.99-18.84,20.07-36,19-9.26,12.56-29.21,37.28-48,39C1477.04,1857.08,1534.36,1814.88,1546,1805Zm77,2c2.67,0.33,5.33.67,8,1,5.15,2.58,11.44,11.61,7,20q-10.5,10.005-21,20c-8.16,17.57,5.62,45.19-7,63-11.27,1.14-13.3-2.64-20-8C1586.38,1842.67,1589.33,1834.64,1623,1807Zm81,0c15.72-.44,31.58-0.52,41,5,2.04,7,2.5,13.37-1,19-12.41,2.96-30,3.35-41,6q-6.495-7.005-13-14v-3Q1697.005,1813.505,1704,1807Zm74,3c7.48,0.21,9.62,2.16,14,5,1.19,3.76,2.86,7.71,1,12l-20,23c-3.38,13.41,5.45,51.5-7,59-2.7,2.44-4.63,2.88-10,3-2.33-1.33-4.67-2.67-7-4C1735.4,1862.87,1753.06,1828.31,1778,1810Zm-803,1c7.792-.33,11.112.5,14,5,9.355,13.29,3.41,65.95-3,77q-5.5,1.005-11,2-4-2.505-8-5c-4.576-20.04-4.8-62.03,4-77C972.333,1812.33,973.667,1811.67,975,1811Zm60,4c16.77-.39,45.95,22.39,40,37-2.17,5.11-4.98,7.65-10,10-13.92-4.69-15.19-14.07-25-21-3.33-.67-6.67-1.33-10-2v-21c0.33-.67.67-1.33,1-2C1032.33,1815.67,1033.67,1815.33,1035,1815Zm873,4c20.75-.22,38.87-0.96,57,3,3.18,4.31,5.31,5.66,6,13-1.33,2.67-2.67,5.33-4,8-13.28,3.53-72,6.08-78-4l-3-9c2.11-4.42,3.48-6.89,8-9Q1901.005,1820,1908,1819Zm-733,21c3,0.67,6,1.33,9,2,6,8.47,4.68,20.4,4,34,15.54,12.18,26.57,29.62,40,44-0.02,7.17-1.48,9.85-4,14-3.33.67-6.67,1.33-10,2-19.34-9.91-39.28-34.04-52-51l3-39Q1169.995,1843,1175,1840Zm-231,2q6,1.995,12,4c5.522,21.03,6.014,69.1-7,82-3.333-.33-6.667-0.67-10-1-2-1.33-4-2.67-6-4-2.5-23.4-4.208-63.81,6-79C940.667,1843.33,942.333,1842.67,944,1842Zm282,5c17.99-.72,84.3-3.74,74,20-4.83,11.12-66.59,7.01-80,3q-1.995-6.495-4-13,2.505-4.005,5-8C1222.67,1848.33,1224.33,1847.67,1226,1847Zm428,3c13.01,0.36,54.06,42.03,57,52,1.98,6.71-2.96,10.8-5,14-3.33.67-6.67,1.33-10,2-16.39-8.49-42.05-34.3-50-51-1.83-6.81,1-10.49,4-15C1651.33,1851.33,1652.67,1850.67,1654,1850Zm274,2q25.995,0.495,52,1v1q-6,6.495-12,13c-12.31,6.28-19.65,15.4-42,11q-3.495-4.005-7-8c-2.01-6.66.27-11.59,3-16C1924,1853.33,1926,1852.67,1928,1852Zm-121,1c3.33,0.33,6.67.67,10,1,9.07,4.07,52.17,46.86,48,58q-3.495,4.005-7,8c-15.92-.33-57.06-42.25-58-57Q1803.5,1858.005,1807,1853Zm-235,5c6.29,1.02,8.77,3,11,8,5.78,18.85,5.62,85.8-18,76l-6-6c-9.15-17.52-1.73-63.92,6-76C1567.33,1859.33,1569.67,1858.67,1572,1858Zm152,2c7.73-.12,8.97,1.15,13,4,5.94,18.63,6.63,74.84-10,82-1.67-.33-3.33-0.67-5-1q-3.495-4.005-7-8C1708.57,1914.52,1712.29,1869.87,1724,1860Zm-707,8c8.01-.44,12.22.13,15,5,1.82,2.27,1.91,3.46,2,8-5.2,12.1-44.888,51.02-59,53q-4.5-3.495-9-7C966.178,1906.03,1003.48,1878.79,1017,1868Zm45,2c17.37-1.02,53.98-4.59,44,18-6.74,13-21.35,1.22-35,7-12.93,5.47-33.63,43.7-51,37l-7-7C1009.56,1908.76,1051.28,1880.03,1062,1870Zm-151,1c21.895,3.91,16.045,60.81,11,82-4.467,3.28-6.291,5.42-14,6-3.2-1.62-4.189-1.85-6-5-9.37-10.02-2.833-71.68,3-81C907,1872.33,909,1871.67,911,1871Zm227,1c8.37-.03,10.31,1.92,15,5,1.19,3.76,2.86,7.71,1,12q-10.005,10.5-20,21c-7.79,22.65,3.09,46.8-7,63-6.22,1.52-9,1.55-15,0-4.01-6.18-8.06-63.88-3-74Q1123.505,1885.5,1138,1872Zm118,10c21.81-.58,66.73-5.84,74,9,1.89,3.27,1.71,4.93,1,9-7.94,11.03-88.21,16.21-83-11Q1252.005,1885.505,1256,1882Zm280,8c2.33,0.33,4.67.67,7,1,15.84,7.57,7.72,64.77,3,80-5.09,1.92-8.52,3.25-15,2-10.63-7.94-9.74-73.88,1-80C1533.33,1892,1534.67,1891,1536,1890Zm119,5c12.11,3.25,58.14,49.01,55,61-1.75,6.67-6.22,9.4-14,10-12.44-10.18-53.94-44.62-51-63Q1650,1899,1655,1895Zm152,2c17.05,2.19,53.76,42.66,59,58-2.2,4.3-3.3,10.32-8,12-11.79,4.21-63.26-49.62-57-62Q1804,1901,1807,1897Zm-515,17c23.26-.45,57.21-1.02,71,9,0.33,3,.67,6,1,9-1.62,3.2-1.85,4.19-5,6-10.24,9.37-60.46,3.53-75,0q-3-3.495-6-7c-0.09-9.47,2.21-10.13,6-15,0.67-.33,1.33-0.67,2-1C1288,1914.67,1290,1914.33,1292,1914Zm-123,1c16.37,0.5,57.04,42.2,58,58-1.33,2.33-2.67,4.67-4,7-3.93,1.25-9.33,3.09-14,1-10.59-5.05-42.93-40.81-48-52,0.67-3.33,1.33-6.67,2-10C1165,1917.67,1167,1916.33,1169,1915Zm333,5c3,0.33,6,.67,9,1,12.08,9.92,7.18,63.32,3,79q-4.995,3-10,6c-2-.33-4-0.67-6-1C1483.68,1994.16,1490.07,1927.95,1502,1920Zm-418,2c5.8,0.05,10.61.7,13,4,3.54,4.89,3.7,69.83-1,76-2.51,3.29-7.11,3.94-13,4-2.33-1.33-4.67-2.67-7-4-4.43-14.49-8.49-69.34,4-77C1081.33,1924,1082.67,1923,1084,1922Zm564,19c16.28-.19,62.68,47.47,60,58-0.77,6.44-2.57,7.6-6,11-17.94,0-60.5-43.96-61-61Q1644.5,1945,1648,1941Zm158,2c2.67,0.33,5.33.67,8,1,13.04,6.14,32.38,27.23,39,40q-7.005,7.5-14,15c-1,.33-2,0.67-3,1-11.28-3.4-40.91-35.62-38-51Q1802.005,1946,1806,1943Zm-754,10h9c8.67,16.14,9.64,68.15-1,84-3.76,1.19-7.71,2.86-12,1l-6-6c-5.28-19.2-3.52-54.01,1-72Q1047.5,1956.505,1052,1953Zm115,7c16.3,0.34,57.39,42.25,58,58-14.36,30.42-68.68-41.88-65-50C1161.84,1963.41,1163.46,1962.7,1167,1960Zm-151,24c9.06-.39,13.24,1.09,16,7,5.46,12.31,2.09,41.33,0,56-7.78,1.1-21.07,2.73-25-3C1000.81,2027.81,1007.99,1991.61,1016,1984Zm151,21c20.77,0.75,34.85,27.7,47,39-0.33.67-.67,1.33-1,2-23.36-.1-61.54-5.63-55-29C1159.24,2009.82,1162.5,2008.64,1167,2005Z"/>
</svg>
