<?xml version="1.0" encoding="UTF-8"?>
<svg id="Layer_0_xA0_Image" xmlns="http://www.w3.org/2000/svg" version="1.1" viewBox="0 0 2732 2048">
  <!-- Generator: Adobe Illustrator 30.0.0, SVG Export Plug-In . SVG Version: 2.1.1 Build 123)  -->
  <defs>
    <style>
      .st0 {
        fill: #ffc225;
        stroke: #000;
        stroke-miterlimit: 10;
        stroke-width: .25px;
      }
    </style>
  </defs>
  <path class="st0" d="M2293.99,1504.01l-206.91,238.07c-87.74,73.57-166.68,164.98-254.08,237.92-2.25,1.88-3.24,4.84-6.99,3.99l14.96-20.02c74.01-75.72,139.59-163.28,212.98-239.02,63.6-65.64,141.86-133.73,210.02-195.98,7.31-6.67,15.67-14.83,23.02-20.98,2.25-1.88,3.24-4.84,6.99-3.99Z"/>
  <path class="st0" d="M887.98,1952l-10.01-6.97c-162.93-137.49-315.09-285.87-457-445-1.84-2.06-14.29-16.57-12.95-18.03l265.77,235.21c64.31,74.63,135.7,143.26,201.23,216.77,1.8,2.02,14.32,16.61,12.95,18.03Z"/>
  <path class="st0" d="M910,66.02l-229.95,259.03c-80,67.74-152.99,150.13-233.05,216.95-2.25,1.88-3.24,4.84-6.99,3.99l207.9-239.08,254-238,8.1-2.88Z"/>
  <path class="st0" d="M2328,565.98c-4.37-.2-8.78-4.27-12.03-6.95-87.4-72.43-167.1-154.97-254.96-227.04l-215.01-233.97c1.74-1.56,10.17,5.42,12.03,6.95,75.55,62.47,145.16,132.75,221.03,194.97l248.95,266.03Z"/>
  <path class="st0" d="M1683.98,2018.03l-15.01,3.95c-131.56,6.51-260.14,19.44-392.06,16.11-66.46-1.68-133.37-6.14-199.84-8.16-6.19-.19-63.11,1.54-63.1-2.92,13.29-4.58,27.29-2.17,41-3.02,153.43-9.54,295.8-19.04,450.1-14.06,54.72,1.76,115.8,1.93,169.93,6.07,3.15.24,5.96,1.42,8.97,2.04Z"/>
  <path class="st0" d="M373.97,1339.98l-3.95-15.01c-6.65-130.8-19.39-258.86-16.11-390.06,1.68-67.13,6.08-134.7,8.16-201.84.65-21.03-2.43-42.63,2.92-63.1l21.08,328.94-12.11,341.07Z"/>
  <path class="st0" d="M1721.99,20.01c3.18,2.42.01,3.64-2.95,4-6.76.82-17.07,1.56-24.06,1.97-21.85,1.27-44.1.77-65.96,2.04-105.8,6.14-212.05,16.86-318.1,14.06-41.77-1.1-84.06-4.58-125.84-6.16-44.38-1.69-88.83-.67-133.09-4.94-1.33-4.63,4.28-2.88,6.98-2.99,104.97-4.15,211.36-17.5,315.95-17.9,83.41-.32,166.84,5.11,250,7.99,32.29,1.12,64.79.7,97.07,1.93Z"/>
  <path class="st0" d="M2371.99,1377.99c-2.42,3.18-3.64.01-4-2.95-2.15-17.66-.95-36.48-2.01-54.02-5.77-95.78-11.87-192.01-18.05-287.93l12.09-325.09c3.62.75,3.73,3.93,4.06,6.92,10.82,100.5,8.11,205.53,19.73,306.29-3.22,86.45-6.89,173.24-9.88,259.7-1.12,32.29-.7,64.79-1.93,97.07Z"/>
  <path class="st0" d="M1054,1777.98c-1.91,1.71-11.1-6.27-13.05-7.93-73.62-62.44-140.49-145.92-213.98-210.02-55.8-75.23-127.84-144.15-182.92-219.08-2.85-3.88-6.67-7.61-6.04-12.94l8.08,2.9,208.94,207.06,198.97,240.01Z"/>
  <path class="st0" d="M2097.99,719.99c-.23.27-5.93,2.09-6.99.21-66.73-72.87-145.85-137.3-212.02-210.17-66.09-72.77-124.73-155.94-190.92-229.08l-6.03-10.95,225.01,217.97c58.09,75.18,124.74,144.08,182.92,219.08,1.61,2.08,9.41,11.31,8.04,12.94Z"/>
  <path class="st0" d="M2122,1340.02c-70.37,74.65-143.93,146.25-213.92,221.06l-230.08,191.93-7.96-2.01,208.66-212.3c77.42-60.19,149.01-128.44,226.35-188.65,4.96-3.86,10.7-10.26,16.95-10.03Z"/>
  <path class="st0" d="M613.99,1333.99l-3.99-2.96c-1.16-87.39-1.38-174.71-1.91-262.12-.65-105.64,12.43-225.75,23.93-331.9.28-2.55.69-13.74,4.96-12.99,3.53,2.32,2.86,5.36,3.14,8.88,7.51,94.63-2.78,198.68,1.98,294.19l-28.09,306.91Z"/>
  <path class="st0" d="M1678,1778.02l-6.93,4.05c-86.07,1.05-172.07,1.31-258.16,1.84-107.8.68-225.51-13.41-333.91-23.92-6.43-.62-13.17-.9-11.01-7.99l301.09-2.09,308.92,28.1Z"/>
  <path class="st0" d="M1667.99,290.01l-.88,6.1-6.01,1.99c-97.14-3.34-195.11,3.73-292.1.78-100.05-3.05-203.53-23.12-304.08-26.8l-6.92-4.06,315.08-4.1,294.91,26.09Z"/>
  <path class="st0" d="M614.01,709.99c-.86-3.75,2.11-4.74,3.99-6.99,62-74.38,145.9-140.35,209.02-214.98l230.96-193.05c1.8-2.53,5.73.66,6.02,2.07.4,1.94-22.52,26.37-25.94,30.02-127.25,135.88-263.51,253.08-407.1,370.9-2.14,1.75-15.54,13.48-16.94,12.04Z"/>
  <path class="st0" d="M2101.99,1324.01l-8.02-1.16-.85-295.85c9.62-101.24,17.39-202.73,26.86-304.02.22-2.36.62-8.95,4-8.97l4.1,317.07-26.09,292.93Z"/>
  <path class="st0" d="M913.99,1917.99c-1.43,1.4-14.03-9.26-16.02-10.96-67.45-57.59-143.68-123.53-207.03-184.97-75.54-73.27-152.3-163.46-223.98-242.02-6.85-7.5-14.52-15.32-20.98-23.02-1.88-2.25-4.85-3.25-3.98-7l265.07,239.91,187.93,204.07,18.96,24.02Z"/>
  <path class="st0" d="M942,100.02l-227.95,251.03-240.03,220.95,2.88-8.1,200.3-223.7c84.28-73.46,163.41-152.81,246.77-227.23,2.06-1.84,16.57-14.29,18.03-12.95Z"/>
  <path class="st0" d="M2291.99,597.99l-6.99-3.99c-81.54-81.25-175.87-153.96-257.06-234.94-65.04-64.87-123.32-140.26-188.96-205.04l-18.96-24.02c1.41-1.39,15.93,11.16,18.02,12.96,67.5,58.03,143.51,123.35,207.03,184.97,74.56,72.33,151.38,162.28,221.97,240.03,6.63,7.3,14.96,15.77,20.98,23.02,1.87,2.25,4.85,3.23,3.99,6.99Z"/>
  <path class="st0" d="M1679.99,1976.02c0,3.37-6.65,3.81-8.98,3.99-94.37,7.42-189.75,7.3-283.93,16.07l-371.09-15.1c-1.33-4.64,4.3-2.87,6.99-2.98,138.75-5.61,277.62-16.36,415.94-11.92,80.45,2.58,160.84,5.03,241.07,9.94Z"/>
  <path class="st0" d="M2262,1478.02l-203.2,229.77-264.77,242.2,14.95-20.03c138.92-156.7,283.45-306.85,441-445l12.03-6.95Z"/>
  <path class="st0" d="M413.99,672.01l16.14,356.99-14.15,307c-3.64-.75-3.71-3.93-4.05-6.93-3.41-30.18-2.18-65.23-3.95-96.05-5.14-89.69-12.88-175.81-10.06-266.1s8.21-173.38,12.16-259.84c.47-10.18-1.33-22.41-.09-32.12.37-2.92,1.52-6.2,3.99-2.95Z"/>
  <path class="st0" d="M2323.98,1377.99l-3.96-17.01c-1.15-89.47-8.84-178.61-12.1-267.9-4.65-127.24,6.9-253.66,10.1-381.08,3.76.79,3.62,3.95,4.03,6.95,2.01,14.73,1,29.33,1.97,44.03,6.74,102.41,14.98,205.21,11.9,307.94-3.07,102.49-7.35,204.53-11.94,307.07Z"/>
  <path class="st0" d="M1719.99,68.02l-17.01,3.96c-128.24,2.57-255.92,15.31-383.9,11.94-87.82-2.31-175.37-6.03-263.09-10.94-1.36-4.73,4.35-2.75,7.02-2.95,99.79-7.69,200.15-10.05,299.99-17.62l356.99,15.62Z"/>
  <path class="st0" d="M2059.99,1311.99l-10.15-6.92.08-276.15c13.53-96.1,16.95-193.87,30.03-289.97.41-3,.27-6.16,4.03-6.95l2.1,299.08-26.09,280.91Z"/>
  <path class="st0" d="M1653.99,332.01c-.07,5.18-3.23,10.53-8.87,10.11l-272.2-.04c-97.66-12.58-196.2-18.54-293.96-30.07-2.99-.35-6.09-1.61-2.95-4l297.07-2.09,280.91,26.09Z"/>
  <path class="st0" d="M972,134.02l-238.2,258.77-229.77,205.21,2.88-8.1c62.96-66.43,123.02-135.58,186.13-201.87,84.6-88.89,183.26-164.86,271.97-250.03l7-3.98Z"/>
  <path class="st0" d="M2025.3,1681.3l-261.28,234.7,2.88-8.1c80.92-78.65,152.59-170.48,232.3-249.7,54.1-53.76,119.31-107.85,176.77-159.23,17.59-15.73,35.99-30.61,53.04-46.96l-.92,7.08-202.79,222.21Z"/>
  <path class="st0" d="M940,1887.98c-1.52,1.44-12.08-7.29-14.03-8.95-76.22-65.06-145.79-138.78-222.02-203.98l-227.95-255.03c3.75-.87,4.76,2.09,7,3.98,6.79,5.72,14.35,12.88,21.02,18.98,76.97,70.42,163.74,145.98,236.02,219.98,67.19,68.79,127.4,148.11,194.99,217.01l4.95,8.03Z"/>
  <path class="st0" d="M2257.98,630l-264.03-244.95-178.98-199.02-18.96-24.02c1.42-1.38,14.08,9.27,16.02,10.96,70.45,61.62,152.75,133.88,218.02,199.98,71.95,72.86,146.94,161.33,214.98,239.02,4.29,4.9,10.68,12.02,12.95,18.03Z"/>
  <path class="st0" d="M455.98,1332c-3.63-.75-3.72-3.93-4.05-6.93-.88-8.05-1.45-19.67-1.91-28.09-4.98-92.58-5.27-185.46-12.18-278.01l18.18-344.97c3.64.75,3.72,3.93,4.05,6.93,3.08,27.38.78,61.92,1.84,90.16,3.57,94.28,11.11,189.51,8.1,283.94-2.94,92.14-9.88,184.6-14.04,276.98Z"/>
  <path class="st0" d="M1676,1936.02c-5.04,7.12-18.66,3.41-26.98,4-63.48,4.48-128.43,7.61-192.04,9.96-145.1,5.34-287.12-8.15-432-13.98-2.7-.11-8.32,1.66-6.99-2.98l367.11-13.12,290.9,16.12Z"/>
  <path class="st0" d="M1717.99,114.02l-26.91,4.06c-111.97-.42-225.06,11.91-336.11,9.93-97.39-1.73-194.53-12.19-292.01-14.01l-2.97-4,331.1-14.1,326.89,18.12Z"/>
  <path class="st0" d="M2281.99,717.99l14.1,331.09-19.08,324.94c-4.87-40.68-3.37-82.1-4.92-123.1-3-79.62-9.57-160.7-8.09-239.94,1.81-96.78,12.05-193.23,14.01-290.01l3.99-2.97Z"/>
  <path class="st0" d="M1067.99,1735.99l-6.99-3.99c-64.74-70.7-141.86-133.32-206.02-203.97-61.34-67.54-115.6-145.06-176.98-213.02l-.02-6.04,9.14.92,195.92,196.07,184.96,230.02Z"/>
  <path class="st0" d="M2058.01,739.98c-.3.34-7.68,1.71-9.05.21l-197.99-198.16-184.95-230.03,213.01,207.97,177.05,212.95c1.75,1.23,2.7,6.21,1.93,7.06Z"/>
  <path class="st0" d="M887.3,539.3c-62.19,57.31-144.83,119.71-212.35,172.65-6.33,4.96-13.2,11.76-20.95,14.03l203.97-209.01,223.03-184.97c3.28,4.43,3.94,8.28,1.11,13.09-6.02,10.26-33.29,31.19-43.18,40.85-50.56,49.44-100.27,106-151.65,153.35Z"/>
  <path class="st0" d="M1652.01,1715.99c.47-2.85-1.98-6.34-1.55-8.75.88-4.91,39.97-38.72,46.59-45.19,50.69-49.57,100.52-100.25,149.65-151.35l233.28-188.7c.87,3.75-2.09,4.76-3.98,7-58.9,70.06-138.22,131.82-197.98,202.02-73.47,55.75-141.63,123.85-215.07,178.93-1.89,1.42-9.35,7.55-10.94,6.04Z"/>
  <path class="st0" d="M683.7,740.33l.28,290.66-28,270-3.96,17.01-4.02-290.99,26-284c1.16-6.63,4.9-5.07,9.7-2.68Z"/>
  <path class="st0" d="M1659.99,1738.02l-34.91,4.06-242.16-.17c-96.55-7.15-197.3-11.34-293.94-23.89-1.61-.21-9.42-1.54-8.96-2.99l3.97-6.04,287.1-1.07,288.91,30.1Z"/>
  <path class="st0" d="M1032,202.02l-239.97,251.01-236.02,202.96c-.86-3.75,2.11-4.74,3.99-6.99,9.72-11.66,24.07-25.49,34.98-37.02,59.82-63.29,123.14-134.87,185.98-194.02,78.27-73.67,164.73-139.21,242.95-213.05l8.1-2.88Z"/>
  <path class="st0" d="M2189.98,688l-256.03-244.95-197.95-229.03,24.03,18.95c65.18,68.91,142.64,129.9,208.07,197.93,70.08,72.88,145.58,162.99,210.94,241.06,1.75,2.09,12.35,14.52,10.95,16.03Z"/>
  <path class="st0" d="M549.99,682.01c.49,29.64-.59,59.41-.07,89.07,1.51,86.19,9.16,178.08,6.16,264-3.34,95.85-13.11,197.67-20.07,293.93-.14,1.96-1.35,9.05-3.01,9.01-.04-10.79-2.67-22.34-3.08-32.94-3.95-100.53-2.63-201.39-6-302.16,7.26-93.92,13.07-187.99,20.06-281.94.91-12.28-.27-23.29,2.09-35.97.61-3.27-1.31-3.46,3.92-3Z"/>
  <path class="st0" d="M1680,1859.98c-10.49-1.68-21.07,1.68-30.92,2.1-75.11,3.2-150.92,2.6-226.16,3.84-72.93,1.2-135.48-3.37-207.94-7.9-63.65-3.97-127.71-6.22-190.97-13.01,2.27-3.33,5.46-2.87,8.88-3.12,26.12-1.89,55.54.67,82.19.19,85.53-1.54,176.74-9.08,262-6.16,80.74,2.76,164.95,12.46,245.94,18.06,15.79,1.09,34.62.23,50.05,1.95,3,.33,6.17.42,6.93,4.05Z"/>
  <path class="st0" d="M1704.02,1848c-.87-3.75,2.09-4.76,3.98-7,70.48-83.86,161.33-159.13,232.95-243.05l237.03-205.95-2.88,8.1c-76.69,73.33-145.04,159.47-222.04,231.96-71.18,67.01-152.4,135.05-227.02,198.98-2.06,1.76-21.08,18.01-22.01,16.97Z"/>
  <polygon class="st0" points="1000 1835.98 975.97 1817.03 765.95 1617.05 544 1362.02 564.03 1376.97 800.05 1604.95 1000 1835.98"/>
  <path class="st0" d="M2203.99,712.01l8.15,317.01c-12.68,109.28-10.11,223.12-22.07,332.05-.33,3-.43,6.17-4.05,6.93-.5-12.96.58-26.11.06-39.08-2.78-69.54-5.21-140.27-6.16-209.84-1.57-113.99,7.82-222.62,16.06-336.1,1.64-22.59,1.21-45.51,4.04-67.99.34-2.73,1.41-6.36,3.97-2.97Z"/>
  <path class="st0" d="M1711.98,204.03c.48,3.47-4.54,1.88-6.96,1.97-80.33,3-161.64,4.97-241.94,6.08-123.27,1.7-243.25-8.71-366.1-18.06-14.25-1.09-28.84-.04-42.97-3.01,2.27-3.32,5.46-2.87,8.88-3.12,101.2-7.29,206.81.44,308.11-8.08l340.98,24.21Z"/>
  <path class="st0" d="M1003.98,164c.83,3.91-.88,5.38-2.88,8.1-7.89,10.73-25.17,24.32-35.15,34.85-69.11,72.88-137.25,146.71-206.89,219.11-76.81,63.35-147.85,133.99-224.05,197.95-2.04,1.71-3.46,5.69-6.02,2l210.94-227.08,264.06-234.92Z"/>
  <path class="st0" d="M2205.99,1422.01c.86,3.76-2.12,4.74-3.99,6.99-62.56,75.44-143.2,143.69-205.92,220.08-89.07,73.63-170.59,156.75-259.08,230.92-2.25,1.88-3.25,4.85-7,3.98-2.49-2.3,36.49-39.18,40.05-42.93,67.88-71.44,135.99-151.69,206.89-219.11,71.35-67.84,151.18-127.43,222.05-195.95l6.99-3.99Z"/>
  <path class="st0" d="M2228,661.98c-3.75.87-4.76-2.09-7-3.98-6.52-5.48-14.66-13.06-21.02-18.98-77.29-71.93-151.38-147.46-229.96-218.04l-206.01-234.97c3.75-.87,4.76,2.09,7,3.98,6.54,5.5,14.61,13.04,21.02,18.98,69.16,64.1,136.96,129.76,206.02,193.98l229.95,259.03Z"/>
  <path class="st0" d="M969.98,1864l-234.03-218.95-227.95-257.03c3.75-.87,4.76,2.09,7,3.98,20.14,16.94,37.88,37,56.97,55.03,62.44,58.99,132.82,118.77,192.02,179.98,66,68.24,124.51,148.58,191.04,216.96l14.95,20.03Z"/>
  <path class="st0" d="M1677.99,1896.01c3.25,2.47-.04,3.62-2.95,3.99-9.14,1.17-20.55-.55-30.12-.09-111.1,5.39-222.89,11.36-333.94,6.1-98.4-4.66-196.94-10.14-295-17.02,28.78-4.84,58.02-2.06,87.1-2.92,89.28-2.62,187.27-11.31,276-8.16,77.13,2.74,154.83,11.43,231.94,16.06,22.22,1.33,44.71,1.9,66.97,2.03Z"/>
  <path class="st0" d="M492.02,1336l-10.1-321.08,21.08-340.94c5.03,28.73,2.11,58.03,2.92,87.1,2.47,89.02,10.95,185.4,8.16,274-2.75,87.63-12.92,178.05-18.06,265.94-.63,10.68,3.39,27.59-4,34.98Z"/>
  <path class="st0" d="M1717.99,158.01l-2.95,3.99-347.82,9.8c-101.34-6.21-202.79-15.28-304.24-19.79-2.68-.12-8.33,1.65-6.98-2.99l310.67-10.27,351.33,19.26Z"/>
  <path class="st0" d="M2243.99,714.01c-2.78,7.09-.09,12.42.1,18.91,2.79,96.79,4.55,193.54,9.51,290.08l-20.59,352.99c-5.92-13.48-2.37-32.02-2.93-47.07-2.92-79-6.68-158.83-8.16-237.84-2.31-122.8,10.73-249,18.07-372.12.24-4.02-1.54-5.77,4-4.95Z"/>
  <path class="st0" d="M2151.99,715.99c-3.75.86-4.75-2.11-6.99-3.99-80.59-67.35-153.02-162.78-234.02-231.98l-200.97-234.01c1.45-1.34,15.97,11.12,18.03,12.95,69.81,62.26,133.37,132.42,203,195l220.96,262.02Z"/>
  <path class="st0" d="M1023.98,1804l-219.01-207.97-222.95-264.03c7.18,7.05,15.72,13.17,23.03,19.95,138.52,128.31,265.08,268.96,387.98,412.02l30.95,40.03Z"/>
  <path class="st0" d="M2141.98,1362l-4.05-6.93c1.35-105.35-1.61-210.82.18-316.16,1.17-69.03,8.8-138.71,13.87-207.93,2.8-38.27,2.78-77.34,9.02-115,5.19,32.02,2.16,64.7,2.92,97.1,1.81,77.26,7.6,154.92,2.1,231.93-7.55,105.72-16.18,211.32-24.04,316.98Z"/>
  <path class="st0" d="M575.99,1331.99c-2.48,3.24-3.62-.04-3.99-2.95-1.82-14.23.58-33.09.09-48.12-2.67-81.79-9.67-172.61-6.16-254,4.1-95.07,16.35-194.59,24.07-289.93,1.08-13.34.53-28.93,1.94-42.06.32-2.99.44-6.17,4.06-6.92l2.1,339.08-22.09,304.91Z"/>
  <path class="st0" d="M1673.99,1816.01c3.24,2.48-.04,3.62-2.95,3.99-13.67,1.75-31.69-.58-46.12-.09-33.63,1.15-68.21,3.39-101.84,4.16-160.16,3.69-309.24-10.87-468.1-24.06-7.78-.65-20.42,3.07-24.98-4l341.08-2.1,302.91,22.09Z"/>
  <path class="st0" d="M1704,250.02c-1.19,4.46-5.39,3.81-8.89,4.09-100.79,8.02-212.29-6.14-314.2-.21-101.96-6.16-205.8-10.59-307.88-19.92-2.16-.2-13.04-1.97-13.04-2.98,31.96-5.38,64.72-2.16,97.1-2.92,87.78-2.06,167.88-6.6,255.93-.1,97.03,7.16,194.02,14.48,290.98,22.04Z"/>
  <path class="st0" d="M1060,240.02c-28.98,31.29-60.16,60.5-90.05,90.93-3.03,3.08-4.87,7.03-7.89,10.11-109.86,111.64-220.86,212.42-340.03,313.97-10.9,9.29-22.26,18.8-34.01,26.97-.87-3.75,2.09-4.76,3.98-7,8.67-10.31,21.34-22.91,30.98-33.02,59.9-62.89,119.84-130.43,184.03-187.97,76.57-68.62,161.67-144.59,242.04-207.96,3.01-2.37,6.98-6.03,10.95-6.03Z"/>
  <path class="st0" d="M2145.99,1368.01c.86,3.75-2.11,4.75-3.99,6.99-19.44,23.25-44.98,45.8-66.06,67.94-48.94,51.43-96.29,105.98-148.91,153.09-81.85,73.28-167.75,142.33-251.02,213.96-.87-3.75,2.09-4.76,3.98-7,23.71-28.18,57.63-57.02,84.06-83.94,51.07-52.03,101.53-105.15,153.92-156.08l228.02-194.96Z"/>
  <path class="st0" d="M1087.99,1697.99l-6.99-3.99c-62.2-66.24-133.74-128.33-194.02-195.97-55.64-62.43-103.73-135.59-159.98-198.02l-.97-4.97,6.7-2.71,184.31,189.65,168.02,207.98,2.94,8.04Z"/>
  <polygon class="st0" points="2010 753.98 1998.93 754.15 1816.97 566.03 1646.01 352.01 1654.09 354.91 1847.03 549.97 2010 753.98"/>
  <path class="st0" d="M1646.01,1696.01l-2.97,3.99-272.12.08-263.8-28.05c-2.61-.32-1.45-9.44,2.17-9.75l163.63,3.8c31.35.73,62.81-.65,94.17-.17l278.93,30.1Z"/>
  <path class="st0" d="M695.99,1302.01l-3.99-2.97c3.52-89.01-4.66-181.53-.08-270.12,4.42-85.52,21.03-175.58,28.1-261.92.24-2.94-1.63-5.82,2.93-4.96,1.68,1.42,4.98,2.21,6.05,3.96,2.07,3.39,1.26,34.2,1.08,41.09-1.91,72.52-4.97,145.2-4,218l-30.1,276.93Z"/>
  <path class="st0" d="M2039.99,1304.01c4.75,5.18-19.75,22.72-23.04,25.94-57.66,56.3-113.42,114.61-170.92,171.08l-208,166.97c-6.28-14.02,3.45-14.45,11.03-21.94,118.62-117.2,244.54-238.24,380.02-335.98,1.89-1.36,9.4-7.71,10.91-6.07Z"/>
  <path class="st0" d="M913.31,571.31c-60.16,53.58-141.23,119.35-206.38,166.62-1.98,1.43-11.76,11.13-12.91,5.05-.9-4.76,22.86-22.87,27.04-26.92,56.55-54.72,110.59-112.13,166.92-167.08l207.03-166.94c5.91,5.25,5.08,8.68.09,14.06-18.56,20-44.19,40.51-64.14,59.85-39.02,37.82-77.47,79.59-117.64,115.36Z"/>
  <path class="st0" d="M1629.99,378.01l-2.31,7.68-2.61.46c-32.71-.63-65.44.31-98.15-.06-57.05-.66-114.68-4.37-171.9-4.1l-265.03-27.99v-5.98s284.99,2.01,284.99,2.01l255.01,27.99Z"/>
  <path class="st0" d="M2013.99,1286.01l-6.1-.9c-1.92-1.63-1.73-3.78-1.99-6.01-3.02-26.09-.31-66.56.02-94.19,1.65-139.87,12.65-279.07,30.1-417.9.44-3.5,2.25-21.03,4.98-20.98,3.64,2.4,2.82,5.29,3.09,8.87,6.55,88.78-7.93,184.53-2.01,274.17l-28.1,256.93Z"/>
  <polygon class="st0" points="814.01 1264.04 821.4 1260.3 825.05 1261.85 981.03 1425.97 1123.1 1610.06 1119 1619.96 960.98 1456.02 814.01 1264.04"/>
  <path class="st0" d="M1919.99,785.97c-.52.73-9.68,3.18-11.06.18l-147.95-154.13-147.93-192.08c-2.2-2.59-1.18-9.25,1.98-9.93,2.68-.58,23.39,21.19,27.02,24.94,95.1,98.13,176.43,192.02,258.74,301.26,3.37,4.47,21.49,26.51,19.2,29.77Z"/>
  <path class="st0" d="M779.65,1267.62l-9.66,1.37,6.03-237.97,27.98-227.03,11.13,1.88c1.77,2.52,1.12,34.89.95,41.21-1.47,56.49-5.22,113.12-4.1,169.9l-32.33,250.64Z"/>
  <path class="st0" d="M1148.24,1576.24c41.53,1.24,83.29.58,124.84,1.67,102.96,2.72,222.16,13.27,323.59,32.41,4.95.94,17.57,1.78,17.28,8.68-.17,4.18-17.23,3.22-21.04,3.07-58.53-2.33-117.2-4.62-176-4-89.5-5.24-178.26-21.5-267.62-30.38l-3.07-2.87,2.01-8.59Z"/>
  <path class="st0" d="M1929.99,1246.01c-17.43-1.08-10.04-8.62-9.9-18.93.97-70.1,2.09-139.88,3.93-210.06l30.22-233.78,9.73-5.25-4.01,232.97-29.98,235.04Z"/>
  <path class="st0" d="M772.01,777.98c-.62-3.74,2.6-5.77,4.94-8.03,51.93-50.3,108.73-108.41,163.02-154.98,57.26-49.12,123.38-91.93,181.37-140.65,4.62-4.74,9.88-.22,10.36,5.05.4,4.32-6.86,6.88-9.73,9.6-49.89,47.22-100.16,101.86-151.95,146.05-58.72,50.11-127.15,93.79-186.92,143.2l-11.1-.24Z"/>
  <path class="st0" d="M1588.01,462.01l-1.8,10.82-101.13-2.91c-120.1,5.01-237.41-18.94-356-32-5.16-.79-7.82-4.73-7.07-9.91l230.97,4.02,235.04,29.98Z"/>
  <path class="st0" d="M1962.01,1270.02l-2.9,8.09-165.08,156.91-183.92,142.19c-3.57.92-6.73-4.91-6.22-8.12.47-5.26,6.74-6.82,10.14-10.06,48.99-46.77,98.94-100.37,149.95-144.06,59.04-50.57,127.93-94.28,187.82-144.38l10.21-.58Z"/>
  <path class="st0" d="M1954.4,771.56c-.62-.36-2.34-4.76-4.29-6.62-53.53-51.04-100.95-108.5-154.06-159.99l-167.1-209.07,1.06-7.87c3.45-.9,4,1.42,6,2.97,11.31,8.77,20.11,22,29.93,32.07,48.07,49.27,95.89,98.77,144,148l156.01,197.95c-2.14,3.37-8.56,4.32-11.56,2.56Z"/>
  <polygon class="st0" points="1629.99 1661.99 1371.02 1657.98 1124.02 1627.03 1127.22 1619.87 1362.98 1624.02 1628 1655 1629.99 1661.99"/>
  <path class="st0" d="M732.01,761.98c-2.14-3.04,1.38-5.76,3.29-7.69,60.03-60.52,124.45-116.96,184.68-177.32l194-150.97.18,11.06-177.15,168.94-197.59,156.56c-1.32,1.2-7.19-.28-7.41-.58Z"/>
  <path class="st0" d="M1609.99,420.01l-1.78,8.82-247.19-4.85-253-29-4.02-5.94c1.41-6.76,23.74-1.11,28.91-.95,70.06,2.17,140.05.68,210,4,84.97,4.03,169.54,17.91,254.1,27.9,4.27.5,8.7-.23,12.97.03Z"/>
  <path class="st0" d="M770.01,1278.01c.42-.53,7.96-2.7,9.01-.2l156,162.16,169.94,212.07-1.99,7.94c-4.8.94-31.94-31.92-36.92-37.04-46.63-47.95-99.2-97.12-143.08-146.92-47.25-53.63-95.67-120.84-139.77-178.23-2.08-2.71-14.49-18.14-13.19-19.78Z"/>
  <path class="st0" d="M771.69,784.32c1.8,2.93.55,59.72.39,68.76-.97,55.66-5.64,111.91-4.11,167.89l-29.94,263.6-8.02,3.41,4.01-260.97,29.99-245.01,7.68,2.31Z"/>
  <path class="st0" d="M2001.37,1293.43c-63.93,55.66-121.48,122.34-185.34,177.6-59.6,51.57-128.03,96.46-188.19,147.81-5.01,6.15-11.16-.99-8.02-5.85l177.18-168.99,195.12-154.88c5.28-4.78,15.15-4.24,9.26,4.31Z"/>
  <path class="st0" d="M1998.03,762.01l6.08.88c5.13,3.77-.01,20.28-.19,26.03-2.23,70.72-.55,141.39-4,212-4.24,86.65-17.67,173.83-27.84,260.16-.98,8.34-3.17,7.69-9.1,2.94l4.94-245.1,30.11-256.91Z"/>
  <path class="st0" d="M1922,1254.03l-173.98,164.99-160.07,118.06c-2.55-4.06-5.64-9.95-2.11-14.15l143.21-132.88,181.04-139.11,11.9,3.09Z"/>
  <path class="st0" d="M865.4,1240.39c3.41-.02,9.1,6.9,11.63,9.58,42.17,44.76,89.74,94.26,128.91,141.09,46.52,55.62,87.1,118.51,133.83,174.26,3.54,4.55,1.13,9.2-2.83,12.68l-161.74-170.21-121.17-160.79,11.37-6.61Z"/>
  <path class="st0" d="M1574,504.01l-3.8,12.74-3.12,1.4-202.06-8.17-223.7-29.9-3.31-10.06c17.65.37,35.42-.53,53.08-.1,61.11,1.48,122.57,7.29,183.89,6.11l199.03,27.98Z"/>
  <path class="st0" d="M1147.96,512.01c.18,4.87,6.18,8.91,2.22,13.03l-144.15,133.98-183.12,138.97-8.89-2.02c-1.92-2.67,17.75-20.97,20.94-24.03,96.71-92.73,196.07-181.13,306.38-257.62l6.63-2.32Z"/>
  <path class="st0" d="M1596.01,1579.99l-242.98-8.02c-59.16-12.58-125.32-13.37-183.8-26.26-3.61-.8-7.26-.19-7.35-4.67-.1-4.83,1.92-10.2,7.31-10.4,15.13,2.61,30.53.89,45.78,1.37,30.38.96,61.58,2.29,92.1,3.9,94.44,4.97,187.85,20.65,281.8,32.2,6.38.85,7.8,6.17,7.13,11.87Z"/>
  <polygon class="st0" points="1921.99 796.01 1915.97 1030.97 1887.99 1230.01 1875.95 1227.05 1873.89 1221.11 1882.03 1021.03 1912.03 799.52 1921.99 796.01"/>
  <path class="st0" d="M1759.3,640.7l120.59,160.48c-7.74,13.58-15.49,4.64-22.92-3.15-43.9-46.04-84.79-95.21-128.91-141.09l-134.31-175.87,2.28-11.06c3.73-.61,5.76,2.61,8.02,4.94,52.64,54.22,101.36,113.04,155.25,165.75Z"/>
  <path class="st0" d="M812.01,1253.99l8.01-242.97,29.02-193.07c4.68,1.32,12.51,3.02,12.79,8.9l-7.86,186.13-30.26,235.74-11.71,5.27Z"/>
  <path class="st0" d="M1159.36,556.27c6.76-1.85,10.45,10.03,6.8,14.79l-134.13,121.96-167.02,122.82-8.09-3.79c-2.42-3.67,3.65-7.84,6.03-10.11,46.09-43.88,94.94-85,140.11-129.89l156.3-115.79Z"/>
  <path class="st0" d="M1836,821.98l-11.39,3.69-124.55-134.73-122.26-163.82c-4.32-5.33,1.65-9.59,2.23-15.11,1.27-.95,20.67,19.53,23,21.97,79.99,83.53,160.59,174.9,224.6,271.4,1.99,3,10.64,14.03,8.37,16.61Z"/>
  <path class="st0" d="M1881.99,814l-1.91,57.08c-3.8,113.9-13.4,223.45-34.18,335.82l-2.89,5.04-13.14-5.16c2.64-31.85,2.61-63.85,4.14-95.76.66-13.76,1.13-28.13,2-42,5.24-83.65,21.43-166.41,32.37-249.63,1.79-4.88,9.2-5.7,13.6-5.39Z"/>
  <path class="st0" d="M1867.47,1234.3c2.76-1.37,13.22,1.81,11.58,5.7l-145.02,135.02-162.07,118.08c-2.34-4.21-7.86-9.91-4.13-14.15,40.89-35.55,78.99-74.81,120.15-109.99,56.11-47.96,120.44-90.09,179.5-134.67Z"/>
  <path class="st0" d="M1155.98,1535.99c-2.69,1.91-20.96-17.73-24.03-20.94-40.76-42.52-78.99-87.69-119.89-130.11l-113.15-152.97c-1.6-4.41,12.43-11.28,16.23-6.11l118.8,131.21,122.22,163.78c3.7,4.88,1.07,9.99-.18,15.15Z"/>
  <path class="st0" d="M1575.6,1526.39l2.39,11.6-194.97-6.01c-62.22-13.03-134.54-13.77-195.54-28.45-10.42-2.51-6.5-8.35-2.16-15.63l157.66,6.11,232.62,32.37Z"/>
  <path class="st0" d="M1549.67,561.66l-180.41-7.91-207.88-29.69-5.37-14.04c69.51,3.76,138.97,5.52,208.73,8.24l185.83,28.16c7.19,2.93.72,10.22-.9,15.24Z"/>
  <path class="st0" d="M940.17,1208.19c5.74-1.53,11.28-7.03,16.93-2.3l112.84,127.17,107.09,147.04-6.07,15.91c-2.63.59-9.9-7.76-11.99-9.98-79.89-84.8-151.52-172.6-216.68-269.31l-2.12-8.53Z"/>
  <path class="st0" d="M865.48,1231.48c-.92,1.11-10.7,5.36-11.47,4.51l6.01-194.97,31.12-203.1c5.82,1,13.55,1.52,12.97,8.97l-8.37,183.86-30.26,200.74Z"/>
  <polygon class="st0" points="1841.99 830.01 1831.97 1018.97 1803.63 1192.62 1799.1 1196.03 1785.87 1190.78 1796.03 1015.03 1824.38 837.38 1841.99 830.01"/>
  <path class="st0" d="M1796,839.97l-13.36,5.72-3.68-1.52-114.91-129.22-105.03-145.07c-3.67-3.37,4.02-17.82,5.98-17.85l122.94,135.02,108.06,152.91Z"/>
  <polygon class="st0" points="949.84 858.17 937.74 1040.74 907.98 1214.98 894.01 1219.99 902.24 1033.24 932.41 855.41 934.99 852.05 949.84 858.17"/>
  <path class="st0" d="M1557.6,1482.39l4.39,15.6-184.96-8.02c-56.59-12.09-114.73-17.1-171.39-28.63-3.62-.74-10.04.08-9.58-4.24.49-4.55,3.77-14.62,8.94-15.16,13.08,1.75,26.89,3.3,40.03,4.04,37.82,2.13,76.27,2.7,113.96,6.04,66.6,5.9,132.38,21.58,198.63,30.37Z"/>
  <path class="st0" d="M1839.99,1220.03l-2.12,4.85c-47.21,38.18-89.78,85.24-136.93,123.07-45.17,36.24-97.51,66.81-143,103.06l-4.7.89c-3.11-.9-8.86-13.73-5.46-16.96,45.47-36.1,86.04-78.6,131.27-114.88,46.43-37.25,97.96-68.66,145.06-105.11l15.88,5.08Z"/>
  <path class="st0" d="M1540,590.03l-4.97,14.01-5.92,2.07c-56.36-5.58-113.81-4.46-170.08-10.14-60.03-6.06-119.38-22.81-179.67-27.9l-7.35-18.05,188.97,10.01,179.03,30Z"/>
  <path class="st0" d="M896.11,829.86l1.22-6,137.71-123.82,147-103.15c3.31,5.26,8.75,12.24,4.11,18.25l-131.2,114.81-141.52,102.59c-5.89,3.29-11.47-1.66-17.31-2.67Z"/>
  <path class="st0" d="M1201.97,640.01c-.38,6.79,7.4,12.78,2.17,19.13-40.53,31.08-77.07,69.62-117.2,100.81-41.43,32.19-89.72,58.58-131.56,90.62-3,2.93-17.35-4.12-17.35-5.56l132.13-115.83c41.46-23.25,82.45-64.65,123.12-86.88,2.86-1.56,5.26-2.83,8.68-2.28Z"/>
  <path class="st0" d="M1549.64,596.42c35.33,46.39,79.63,87.86,115.19,133.74,30.37,39.18,55.26,82.99,86.15,121.88,4.89,7.02-11.52,13.06-16.03,10.14l-107.79-124.35-86.19-125.94c.35-5.98,1.79-19.44,8.66-15.47Z"/>
  <path class="st0" d="M1796,1202.02c1.8,2.36-4.38,7.53-5.97,9-75.58,69.94-156.18,132.87-241.39,190.61-2.44,1.65-12.92,9.61-14.61,8.36l-5.64-15.39,1.4-3.67,119.25-102.89,129.58-88.54c5.94-3.5,11.44,1.94,17.38,2.52Z"/>
  <path class="st0" d="M1515.73,649.73c-5.49.51-11.19.55-16.72.25-44.55-2.45-95.72-5.26-139.75-10.24-53.23-6.02-108.22-23.39-161.79-29.75l-7.46-15.98,180.76,12.22,147.82,26.18,3.37,2.57-6.23,14.74Z"/>
  <path class="st0" d="M1184.26,1451.71c-4.01-6.59-10.09-13.98-15.23-19.74-65.66-73.55-122.45-142.3-177.47-224.53-2.21-3.3-11.03-13.58-7.56-16.42,3.27-2.68,13.43-6.7,17.07-3.18,33.54,41.25,73.7,80.18,105.76,122.32,30.68,40.32,55.56,85.49,86.17,125.95,2.86,4.61-1.72,19.59-8.73,15.59Z"/>
  <path class="st0" d="M1797.99,848.01l-12.25,178.74c-11.08,48.12-14.21,100.6-25.78,148.27-.61,2.53,1.55,3.46-2.89,2.95-5.45-.62-16.1-4.1-15.18-10.85l10.14-148.08,29.96-162.04c-.45-4.77,14.38-10.68,16-8.98Z"/>
  <path class="st0" d="M991.49,876.51c2.46,2.45.77,23.1.49,28.47-2.22,42.15-4.86,92.3-10.22,133.78-6.54,50.64-21.96,102.46-28.66,153.39l-14.05,9.86c-3.24-2.2-2.69-3.16-2.6-6.4,1.49-55.41,10.93-112.61,11.81-168.35l27.77-157.26,15.47,6.51Z"/>
  <path class="st0" d="M1214.03,1415.95c-1.81-2.58,5.27-16.77,9.18-17.51l157.76,11.58,153.07,28.93c6.14,2.47,15.57,16.6,3.97,16.18-52.02-1.88-113.47-5.36-165-11.16-52.44-5.9-106.6-20.28-159-28.02Z"/>
  <path class="st0" d="M1217.97,678c.34,6.97,8.78,17.12,4.2,23.1-32.5,24.41-61.3,53.84-93.23,78.84-40.33,31.57-86.05,58.1-127.04,89.01l-21.9-2.97,2.87-8.12c71.01-61.72,142.59-118.64,220.5-171.5,2.43-1.65,12.93-9.62,14.61-8.36Z"/>
  <path class="st0" d="M1035.67,894.31l-9.93,128.44c-11.12,47.84-14.54,100.4-26.38,147.71-3.05,12.2-8.88,8.49-18.38,15.5-3.79-2.57-3.24-6.98-3.12-10.98,1.44-47.7,12.09-97.73,12.16-145.94l24.32-139.68,2.63-3.28,18.7,8.24Z"/>
  <path class="st0" d="M1207.86,1411.89l-5.54-.29c-31.74-42.69-69.8-80.6-102.24-122.68-27.11-35.17-49.86-73.81-77.05-108.96l-.95-5.85c6.9-1.07,14.37-8.84,20.97-4.25,26.69,33.61,58.9,65.35,84.9,99.19,29.89,38.89,55.33,83.74,85.06,123.07l-5.16,19.79Z"/>
  <path class="st0" d="M1755.99,1184.02c.7,3.5-1.81,4.93-3.96,7.01-32.48,31.38-82.07,71.87-118.2,99.8-35.52,27.47-75.96,50.96-111.87,78.22l-4.96-1.05-6.67-15.38,1.46-3.7c35.8-27.45,68.58-60.55,104.37-87.75,38.03-28.9,80.28-52.69,117.94-82.21l21.88,5.06Z"/>
  <path class="st0" d="M1692.28,881.81c-25.59-35.72-58.3-67.06-85.12-101.97-29.09-37.86-53.93-80.92-82.85-119.16-5.57-3.74,2.37-24.68,4.69-24.64,34.91,41.96,73.73,81.71,106.96,125,23.62,30.77,52.9,71.9,73.29,104.7,1.21,1.95,5.2,6.56,3.82,8.3l-20.79,7.77Z"/>
  <path class="st0" d="M1719.98,1162l-20.08-7.32c3.46-44.5,4.61-91.2,10.35-135.43,6.27-48.34,19.66-97.36,26.12-145.88l18.58-9.38,2.26,4.11c-2.32,6.13-.89,12.58-1.23,18.88-2.35,43.41-6.63,94.9-12.02,137.98-5.68,45.41-17.98,91.51-23.98,137.03Z"/>
  <path class="st0" d="M1527.99,1413.99l-154.74-12.24-139.83-24.17c-7.99-2.82,2.78-20.98,7.63-21.69l125.69,10.36,148.92,27.08c5.94-.78,14.12,18.96,12.33,20.65Z"/>
  <path class="st0" d="M1506,672.01c-2.21,5.82-4.51,18.8-11,19.99l-133.77-10.23-143.75-26.25c-3.06-.38-11.5-17.41-11.44-18.53.08-1.43,2.23-2.23,4.09-2.19,5.58.13,12.88.87,18.85,1.22,43.86,2.53,94.5,6.55,137.98,12.02,46.54,5.85,92.46,18.1,139.03,23.98Z"/>
  <path class="st0" d="M1066.01,899.97l1.94-5.03c29.32-21.46,55.01-48.29,84.22-69.78,11.79-8.68,102-68.35,108.42-68.54,3.11-.09,27.41,4.09,27.38,6.38-37.83,28.4-73.87,62.34-112.13,89.83-26.89,19.32-56.98,34.78-83.92,54.11-9.61,4.26-16.81-5.65-25.9-6.97Z"/>
  <path class="st0" d="M1631.99,943.99c-1.9,2.37-8.51-5.55-9.93-7.05-42.71-44.75-92.51-116-124.89-169.11-11.58-19.01-17.81-21.42-5.14-43.83,2.5-1.83,9.08,5.97,11,7.97,17.97,18.64,42.99,50.05,58.92,71.08,26.92,35.54,49.63,76.18,73.45,113.5l-3.4,27.43Z"/>
  <path class="st0" d="M1238.04,1325.99c-20.97-31.86-50.33-59.11-72.9-90.12-22.83-31.36-40.99-66.79-63.57-98.41-3.81-9.9,1.82-22.95,2.46-33.45.84-.85,6.9,5.9,7.92,7.05,26.02,29.19,60.08,71.4,82.93,103.07,19.88,27.56,35.94,60.32,56.14,87.98,1.81,4.25-8.48,27.17-12.98,23.88Z"/>
  <path class="st0" d="M1483.51,1304.5l8.48,23.48-114.79-10.19c-33.92-12.66-86.54-12.38-118.34-25.66-2.3-.96-4.37-2.06-5.95-4.05l-14.89-22.09,138.79,14.19,106.71,24.3Z"/>
  <path class="st0" d="M1670,1150.02l-88.12,74.85c-32.89,15.38-68.87,51.37-100.71,65.27-10.68,4.66-22.12-1.44-33.15-2.15-1.03-3.93,1.63-3.86,3.36-5.62,23.89-24.28,79.8-66.52,108.77-87.23,27.77-19.86,59.38-36.97,88.53-54.71l21.33,9.59Z"/>
  <path class="st0" d="M1495.99,783.99c-47.31-8.23-97.28-8.77-144.48-16.5-31.8-5.21-64.55-15.92-96.51-21.49-6.19.41-11.98-23.05-10.99-23.99,78.82,2.02,155.86,17.37,232.47,34.51,5.08,1.76,21.92,24.75,19.51,27.47Z"/>
  <polygon class="st0" points="1125.99 896.01 1111.77 1032.77 1088.07 1140.62 1064.01 1147.99 1074.2 1035.2 1102.12 911.12 1125.99 896.01"/>
  <path class="st0" d="M1608.01,1153.99c7.77-46.8,8.8-96.07,16.26-142.72,5.4-33.78,16.58-67.8,21.74-101.78l23.97-9.49c-2.07,78.34-16.66,154.81-34.09,230.89,1.77,6.7-26.63,24.47-27.89,23.09Z"/>
  <path class="st0" d="M1509.99,1371.99l-132.74-12.24c-41.01-9.94-85.6-13.72-126.27-23.78-2.33-.58-3.6,1.49-3.01-2.95,3.78-6.66,3.74-19.19,12.99-19.2l109.78,10.44,129.87,26.13,9.37,21.61Z"/>
  <path class="st0" d="M1223.97,1369.99l-4.84-2.12c-25.78-35.51-57.81-66.98-83.97-102.03-24.58-32.95-45.48-70.72-70.2-103.83-3.36-7.42,13.02-7.12,16.97-11.16l3.08.96c25.44,32.36,55.63,63.25,79.77,96.41,23.12,31.76,43.09,68.09,65.77,100.41,3.11,7.42-6.1,13.71-6.58,21.36Z"/>
  <path class="st0" d="M1714,1168.02c.74.99-5.68,6.71-7.05,7.92-55.58,49.39-134.71,112.79-199.14,148.86-2.8,1.57-3.92,4.4-6.74,1.17-2.68-3.06-8.39-16.43-6.15-19.95,32.44-23.65,61-53.12,93.26-76.86,32.72-24.08,70.82-44.16,103.8-68.36l22.03,7.22Z"/>
  <path class="st0" d="M1669.94,891.92c-7.31.21-14.57,8.89-21.02,4.22-23.08-29.93-51.21-58.24-73.76-88.3-25.01-33.35-45.71-72-70.16-105.96-3.7-4.09,5.79-23.9,7.99-23.84,26.6,35.81,59.16,68.61,85.83,104.13,17.36,23.12,57.47,77.36,68.84,101.15,1.34,2.81,3.08,5.22,2.27,8.6Z"/>
  <path class="st0" d="M1713.99,882.01c-.18,5.62.38,11.34,0,16.97-5.22,76.53-16.17,161.28-34.3,235.72-.84,3.45-.25,9.84-4.61,9.29-2.24-.29-19.02-8.07-19.12-9.12,7-39.8,6.51-81.84,12.29-121.62,5.71-39.3,18.5-79.8,24.71-119.29-.38-5.32,20.2-12.87,21.04-11.94Z"/>
  <path class="st0" d="M1022,881.98c-.69-3.51,1.82-4.93,3.97-7.02,25.32-24.49,67.63-58.2,96.2-79.8,33.59-25.4,72.3-46.41,105.9-72.14l6.05-.17,6.1,20.21c-32.13,23.43-60.5,52.13-92.38,75.77-32.87,24.36-70.2,44.78-103.78,68.33-8.16,3.29-13.82-5.65-22.05-5.18Z"/>
  <path class="st0" d="M1077.72,912.27c-4.53,42.21-5.53,86.59-12,128.45-4.6,29.75-14.18,85.36-23.38,112.62-3.63,10.75-12.21,10.69-22.33,12.65,5.7-43.6,6.2-89.37,12.22-132.76,5.85-42.16,18.96-84.71,23.78-127.25l21.71,6.28Z"/>
  <path class="st0" d="M1485.83,714.17c2.18,3.2-5.83,20.71-8.7,21.17-39.37-5.68-80.68-5.95-119.89-11.59-40.7-5.86-81.97-18.67-122.77-25.1l-8.47-20.65c87.61,4,174.33,17.28,259.83,36.16Z"/>
  <path class="st0" d="M346,1366l256.02,274.98-14.05-9.95c-79.75-73.67-162.77-143.86-241.97-218.03v-47Z"/>
  <path class="st0" d="M1261.99,2000.01c3.25,2.47-.04,3.62-2.95,3.99-7.41.95-16.4-.54-24.12-.09-103.22,6.06-206.43,13.16-310.02,18.19-9.61-1.29-28.86-26.49-36.89-34.08l373.99,11.99Z"/>
  <polygon class="st0" points="391.99 917.99 388 915.04 369.9 582.89 371.89 576.89 403.98 544 391.99 917.99"/>
  <polygon class="st0" points="1710 2046 1983.98 1790 1965.03 1814.03 1757 2046 1710 2046"/>
  <path class="st0" d="M2330.01,1503.99l15.97-373.98,19.55,338.76c-10.39,9.27-18.74,23.97-29.52,32.24-2.01,1.54-2.54,3.88-6,2.98Z"/>
  <path class="st0" d="M1848,61.98l-375.99-15.96,338.76-19.46c7.16.8,30.67,28.97,37.23,35.42Z"/>
  <path class="st0" d="M2388,682l-256-273.98c5.33,1.59,11.8,7.28,16.03,10.95,81.14,70.58,159.61,144.54,239.97,216.03v47Z"/>
  <polygon class="st0" points="1026 4 751.02 258.02 977 4 1026 4"/>
  <path class="st0" d="M1954,1758.02l-4.95,8.03-223.94,244.06c-8.3,4.86-32.26-3.97-43.1-2.12l271.99-249.97Z"/>
  <polygon class="st0" points="1053.99 42.02 782.01 289.99 786 283 1010.95 37.82 1053.99 42.02"/>
  <path class="st0" d="M2349.98,710l-247.96-271.99,252.16,228.95c1.33,2.15-2.46,41.75-4.2,43.05Z"/>
  <path class="st0" d="M452,552.02l-16.99,367.97c-5.85-10.11-2.37-25.29-2.93-37.07-4.82-101.28-11.37-202.4-14.24-303.98l34.16-26.91Z"/>
  <path class="st0" d="M1840,107.98l-367.99-17.96c20.23-1.43,40.72-1.02,60.97-2.04,85.93-4.33,171.94-9.82,258.1-11.9,6.04-.15,11.53-2.87,17.96-2.23,9.15.9,24.71,26.17,30.95,34.13Z"/>
  <path class="st0" d="M2284.01,1495.99l17.97-365.98c2.33,33.61,2.32,67.41,3.94,101.07,3.49,72.66,7.76,145.15,10,218,.23,7.32,5.31,17.53.05,23.89l-31.96,23.02Z"/>
  <path class="st0" d="M634,1609.98l-20.03-14.95-232.07-211.91c-5.1-8.75,3.5-32.12,2.11-43.11l249.99,269.97Z"/>
  <path class="st0" d="M1261.99,1956.01c3.25,2.47-.04,3.62-2.95,3.99-9.71,1.24-21.94-.55-32.12-.09-100.45,4.57-201.13,11.27-302.02,14.18-3.93.27-5.49-1.69-8-4-3.1-2.86-22.53-27.85-20.89-30.09l365.97,16.01Z"/>
  <path class="st0" d="M1821.99,153.99l-253.07-11.91c-29.72-4.57-60.24-2.36-89.93-6.1-2.73-.34-6.36-1.41-2.97-3.97,8.28-.47,16.79.59,25.07.07,88.23-5.46,177.47-5.91,266-8,8.6-.2,20.32-4.94,28.88-1.05,2.21,1,20.31,21.39,23.05,24.95,1.55,2.01,3.87,2.54,2.98,6Z"/>
  <path class="st0" d="M497.99,570.01l-21.97,345.99c-5.17-106.02-7.5-212.49-10.04-319.02l1.03-2.97,30.98-24Z"/>
  <path class="st0" d="M1258,1915.98l-66.92,4.1c-84.32-1.3-168.85,7.21-253.05,4.88l-26.02-30.96,345.99,21.97Z"/>
  <path class="st0" d="M428,1321c.17-.68,3.24-3.47,3.96-3l230,257c.11,1.7-1.91,3.01-4.96,1.01-4.43-2.9-15.86-14.35-21.03-18.98-65.48-58.73-132.48-122.9-196-184-4.44-4.27-9.04-8.55-12.57-13.66-2.42-2.6.6-5.37.6-6.37,0-7.84-1.52-25.93,0-32Z"/>
  <path class="st0" d="M2305.99,729.99l-231.98-257.98c3.75-.85,4.75,2.1,6.99,3.99,27.79,23.32,52.56,50.29,78.97,75.03,48.53,45.47,97.7,90.3,146.14,135.86,6.24,10.88-2.62,30.6-.12,43.1Z"/>
  <path class="st0" d="M1074,86.02l-260,231.96c18.15-25.24,41.86-45.47,63.03-67.95,51.4-54.6,101.44-110.5,153.86-164.14,10.86-6.24,30.63,2.62,43.11.13Z"/>
  <path class="st0" d="M1665,1964l-2.02-4,257-230c1.48,1.61-4.57,9.11-6.03,10.95-16.58,20.78-38.71,39.59-56.98,59.02-51.7,55.03-102,111.46-155.07,165.16-2.08,1.66-4.17-1.13-4.9-1.13h-32Z"/>
  <path class="st0" d="M2259.99,1134.01c.47,8.28-.59,16.79-.07,25.07,5.39,87.09,6.35,176.53,8,264,.17,8.84,5.81,24.51-.51,32.35l-29.38,24.57,12.06-222.92c2.11-39.12,1.07-81.41,5.93-120.1.34-2.73,1.41-6.36,3.97-2.97Z"/>
  <path class="st0" d="M551.61,1314.46l170.39,201.52-8.1-2.88-168.01-165.99c-5.65-9.83,1.74-22.47.12-33.12l5.6.47Z"/>
  <path class="st0" d="M1057.99,160.01l-209.98,185.98c-.85-3.75,2.1-4.75,3.99-6.99,14.2-16.93,34.32-33.7,50.06-49.94,41.32-42.64,81.82-86.21,122.84-129.16,9.64-5.54,22.36,2.22,33.1.11Z"/>
  <path class="st0" d="M2187.99,736.01l-173.97-204.01c60.67,54.71,116.46,114.93,176.11,170.91,4.03,6.87-2.49,24.41-2.14,33.1Z"/>
  <path class="st0" d="M2231.99,713.99c-3.48.91-4-1.46-6-2.98-13.35-10.16-31.18-35.7-42.96-49.04-41.78-47.33-85.55-93.57-126.06-141.94-3.7-4.42-9.36-10.57-10.95-16.03l186.08,178.89c5.27,9.11-2.27,20.83-.11,31.1Z"/>
  <polygon class="st0" points="690 1543.98 682.99 1540 501.81 1365.03 504.02 1334 690 1543.98"/>
  <path class="st0" d="M1257.99,1828.01l-2.95,3.99c-64,.97-128.13-1.28-192.12-.09-4.73.09-9.1,2.06-13.84,2.16-9.18.21-35.62,1.83-41.14-3.02l-15.93-23.05,265.98,20Z"/>
  <polygon class="st0" points="1678.01 1887.98 1885.98 1702 1883.1 1710.1 1709.03 1890.19 1678.01 1887.98"/>
  <path class="st0" d="M1757.99,195.99c-17.54-1.56-35.42-.95-52.97-2.01-64.68-3.92-129.31-9.92-194.04-13.96-9.47-.59-24.82,3.26-30.98-4l259.02-4.04,2.97,1.03,16,22.98Z"/>
  <path class="st0" d="M537.99,634.01l-16.98,277.98c-3.32-2.27-2.87-5.46-3.12-8.88-2.56-36.29-1.33-75.64-1.98-112.02-.83-46.15,1.13-92.2-2.08-138.15l24.15-18.92Z"/>
  <path class="st0" d="M2196.01,1415.99c1.55-17.54.96-35.42,2.01-52.97,3.86-64.69,9.93-129.31,13.96-194.04.59-9.47-3.26-24.82,4-30.98l4.13,255.1-3.99,8.01-20.1,14.88Z"/>
  <path class="st0" d="M583.99,650.01l-20.98,265.98c-3.32-2.27-2.87-5.46-3.12-8.88-4.21-59.3,1.32-125.79.19-186.19-.28-14.81-4.23-32.61-2.19-48.02,1.23-9.25,17.43-19.24,26.09-22.88Z"/>
  <path class="st0" d="M1253.99,1870.01c3.24,2.48-.04,3.62-2.95,3.99-36.64,4.68-80.82-5.09-117.95,2.08-32.03.43-64.15-.83-96.16-.16-11.83.24-25.33,3.92-38.02,2.18-8.47-1.16-17.38-17.12-22.9-24.08l277.99,15.99Z"/>
  <path class="st0" d="M2150.01,1399.99l23.97-265.98,1.97,244.94c.16,4.62-24.38,22.88-25.94,21.04Z"/>
  <path class="st0" d="M1741.99,241.99l-265.98-23.97,247.01-2.04c3.78.72,21.43,23.65,18.97,26.01Z"/>
  <path class="st0" d="M1077.99,204.01l-203.99,173.97,172.91-176.11c6.52-3.82,22.92,1.87,31.09,2.14Z"/>
  <path class="st0" d="M1859.98,1670c.87,3.75-2.09,4.76-3.98,7-15.92,18.93-38.41,37.79-56.06,55.94-36.71,37.75-72.95,76.37-110.84,113.16-3.87,4.3-33.12-.17-33.07-3.1l203.94-173Z"/>
  <path class="st0" d="M1077,1788l-16.99-19.01c64.7,2.61,129.98,11.35,195.03,15l2.96,4.01h-181Z"/>
  <path class="st0" d="M604,735l17.03-16.98,3.05,5.03c-7.91,62.3-8.72,125.68-16.06,188-.43,3.69.58,3.2-4.01,2.96v-179Z"/>
  <path class="st0" d="M1676,1767.98l151.98-127.98c.87,3.75-2.09,4.76-3.98,7-35.33,42-84.45,79.26-120.9,121.1-7.9,4.54-18.74,1.03-27.11-.13Z"/>
  <path class="st0" d="M1057.99,280.01l-151.99,127.97,124.89-126.09c7.27-4.18,18.75-.91,27.1-1.88Z"/>
  <path class="st0" d="M1659,262c2.36.67,16.85,17.63,14.98,20l-195.98-20h181Z"/>
  <polygon class="st0" points="2130 1318 2110 1331.98 2130 1134 2130 1318"/>
  <path class="st0" d="M751.98,1486l-125.98-123c-7.12-8.3-3.51-19.52-1.98-29l127.96,152Z"/>
  <path class="st0" d="M2111.99,715.99l-127.97-151.99,120.76,118.22c10.51,9.47,6.76,21.05,7.21,33.77Z"/>
  <polygon class="st0" points="1649 306 1663.96 323 1658.99 326.13 1476 306 1649 306"/>
  <path class="st0" d="M2086,1305c-.86,4.06-13.07,14.3-16.98,15.03-3.41.64-3.14-.18-3.1-3.07l20.08-182.96v171Z"/>
  <path class="st0" d="M662.01,1310.01c3.33-.76,4.05,1.07,5.95,3.03,39.61,40.72,72.48,96.04,113.04,136.96v5.96s-119.11-122.84-119.11-122.84c-4.86-7.24.28-15.42.12-23.11Z"/>
  <path class="st0" d="M936,439.98l122.94-122.14c2.7-2.74,23.15.39,23.02,3.16l-145.96,118.98Z"/>
  <path class="st0" d="M1955.96,594.02c.25.22.9,3.92,2.91,6.02,38.34,40.17,80.4,77.13,116.66,119.19l-1.54,18.76-7.12-1.86-114.86-139.15c-1.4-3.36,2.73-4.04,3.94-2.96Z"/>
  <path class="st0" d="M1654.01,1729.99l7.04-9.94,136.93-112.05-3.98,7-116.89,115.09c-7.24,4.87-15.41-.28-23.1-.11Z"/>
  <path class="st0" d="M667.99,728.01c-.15,4.95.37,10,0,14.97-4.13,54.34-9.92,111.84-15.9,166.1-.33,2.99-.44,6.17-4.06,6.92l2.02-172.96c-.38-3.5,16.69-16.49,17.95-15.03Z"/>
  <path class="st0" d="M1257.99,1740.01c3.24,2.48-.04,3.62-2.95,3.99-11.33,1.45-30.04.38-42.12.08-4.73-.12-9.11-2.08-13.84-2.16-38.53-.66-77.14.64-115.66.11l-11.41-18.02,185.98,16Z"/>
  <path class="st0" d="M1643.99,367.99c-49.68-4.9-99.36-10.62-149-15.97-6.67-.72-17.36,2.9-20.99-3.99l154.95,2.03c4.21-.57,16.54,16.64,15.04,17.94Z"/>
  <path class="st0" d="M2043.99,1132.01c-1.07,50.93-2.86,101.79-2.03,152.95-.54,4.28-14.64,18.38-17.95,15.03l15.98-165.03,4-2.95Z"/>
  <path class="st0" d="M1097.99,362.01l-131.97,109.99c-3.22-3.49,14.77-15.79,17.03-17.95,31.98-30.46,62.27-63.96,95.99-92.01l18.95-.03Z"/>
  <path class="st0" d="M2029.99,753.99l-6.91-2.08-103.06-129.91c13.14,11.75,25.76,24.29,38.03,36.95,9.62,9.93,70.82,72.41,71.9,78.1.98,5.12-.52,11.59.03,16.95Z"/>
  <path class="st0" d="M1770,1578.02l-110.88,108.08c-7.08,4.96-15.2-1.14-23.11-.12l134-107.96Z"/>
  <polygon class="st0" points="711.34 1296.69 813.98 1426 705 1313.95 706.02 1294 711.34 1296.69"/>
  <path class="st0" d="M709.99,748.01l-16.98,169.98c-4.21-2.65-1.81-4.59-1.71-7.51,1.24-36.53,1.2-73.06,2.78-109.4.86-19.75-7.3-44.94,15.91-53.07Z"/>
  <path class="st0" d="M1260,1698.02c-1.03,4.12-2.95,3.21-5.96,3.14-49.66-1.01-99.33-2.14-148.99-3.22-6.66-1.26-10.61-11.11-15.05-15.93l170,16Z"/>
</svg>