<?xml version="1.0" encoding="UTF-8"?>
<svg id="Layer_0_xA0_Image" xmlns="http://www.w3.org/2000/svg" version="1.1" viewBox="0 0 2732 2048">
  <!-- Generator: Adobe Illustrator 30.2.1, SVG Export Plug-In . SVG Version: 2.1.1 Build 1)  -->
  <defs>
    <style>
      .st0 {
        fill: #fff200;
      }
    </style>
  </defs>
  <path class="st0" d="M1292,2048c-11.78-2.9-9.56-18.97-4.05-26.51,3.86-5.28,27.3-22.85,34.23-28.31,5.98-4.72,20.41-10.79,21.78-18.22,1.11-6.02,2.2-25.17,2.19-31.97-.02-13.08-3.8-30.54-4.22-43.89-.58-18.19,3.04-48.02.08-64.08-1.92-10.39-14.16-4.4-15.88,6.11-2.14,13.07,2.12,28.31,1.96,41.97-.06,4.72-2,9.1-2.16,13.83-.36,10.7,2.33,29.02-2.18,37.82-1.05,2.05-11.91,12.6-14.71,15.2-22.64,21.1-49.71,40.47-73.04,61.05-8.12,6.03-.61,30.48-5.87,34.13-2.71,1.88-15.01,1.79-17.16-1.08-2.26-3.02-2.79-23.46-2.2-28.09,1.28-10.02,9.44-17.34,16.18-24.01,19.44-19.21,45.22-35.97,65.08-54.92,5.12-4.89,12.73-11.07,13.86-18.14,3.89-24.48-1.59-49.58-2.05-73.88-.28-14.93,9.17-21.78,19.22-30.95,5.17-4.72,24.08-20.44,29.81-20.04,3.25.23,32.53,20.65,36.12,24,23.61,22.01,1.86,75.29,12.92,102.56l85.13,61.39,4.54,7.48c-2.89,15.13,3.61,34.11-.91,48.23-2.3,7.17-7.91,8.64-14.69,5.33-10.68-5.23,4.44-39.59-4.56-50.44-3.58-4.32-23.96-14.12-30.46-18.52-19.18-12.97-37.27-27.44-57.01-39.55-12.96-15.73-1.88-73.46-6-95.44-1.02-5.46-8.43-10.86-13.94-11.04l2.37,144.61c2.79,9.16,53.11,28.67,60.58,39.42,4.08,5.87,3,24.33.78,30.69-1.09,3.12-5.66,3-7.74,5.27h-6c-3.78-5.63-.76-12.83-2.4-18.6-2.5-8.75-47.57-28.96-56.61-36.76-5.76-.34-49.45,32.43-51.89,39.44-2.19,6.28,1.57,12.89-5.09,15.92h-6Z"/>
  <path class="st0" d="M1414,2048h-116c6.66-3.03,2.9-9.64,5.09-15.92,2.44-7.01,46.14-39.78,51.89-39.44,9.05,7.8,54.12,28.01,56.61,36.76,1.65,5.77-1.37,12.97,2.4,18.6Z"/>
  <path class="st0" d="M2388,1160c1.74,4.12,1.26,16.53-1.95,19.04-5.14,4.01-29.22,2.61-35.45-.65-25.33-13.26-56.13-68.52-79.89-88.09-3.13-1.71-6.21-3.61-9.83-4.17-7.46-1.15-27.79-1.83-35.87-1.72-13.24.17-36.66,6.32-48.15,1.74-7.73-3.08-37.59-35.58-38.83-43.3-.7-4.38.18-6.26,1.84-10.01,1.25-2.82,17.29-24.46,20.19-27.79,24.17-27.78,72.73-2.89,103-15l67.46-88.52c6.2-4.31,13.6.48,18.71.28,12.88-.5,26.02-5.54,38.43,2.52,4.71,30.67-36.92,4.9-51.54,16.78-6.11,4.96-16.1,26.28-21.65,34.35-12.42,18.04-25.75,35.67-38.53,53.47-16.73,11.69-71.62,1.12-94.55,5.55-5.97,1.15-9.44,7.64-9.36,13.52l144.66-2.32c4.84-1.65,26.1-44.73,31.66-52.34,12.5-17.1,21.18-9.8,39.4-9.06l2.28,15.74c-8.45.19-17.73-2.01-24.05,4.95l-29.55,53.74c13.14,20.36,25.78,50.65,52.72,53.16,6.42,17.24-12.93,21.07-24.19,12.2-5.45-4.29-19.61-22.61-24.88-29.11-6.92-8.55-12.05-18.42-19.39-26.61-11.16,1.33-23.28-2.51-33.67-2.52-13.89-.01-31.8,3.82-45.92,4.27-19.45.62-43.71-2.36-62.18-.18-3.51.41-6.94.51-6.99,5.1.05,4.54,8.71,10.54,13.2,10.89,30.36-2.11,60.42-.98,90.79,1.21,28.18,27.19,53.09,57.91,77.3,88.7,1.24,1.14,4.7,4.2,5.8,4.2h29Z"/>
  <path class="st0" d="M2042.35,1718.36c-2.53,17.38-12.98,47.42-7.95,64.24,1.39,4.65,16.7,13.15,1.04,19.91-9.08,3.92-18.98-9.42-19.3-17.66-.37-9.72,2.97-32.3,4.1-43.6.88-8.79,6.27-18.34,2.67-27.17-5.53-13.56-44.52-43.57-56.94-55.05-12.5-11.55-24.37-23.49-37.04-34.96-5.17-4.68-5.68-12.33-14.81-9.96-6.75,18.94,20.72,33.3,32.9,45.86,5.99,6.17,31.84,33.49,32.88,39.12,1.24,6.76.37,20.36.08,27.88-1.13,29.22-6,58.84-8.04,88.04-1.31,14.71,28.24,20.51,17.11,33.03-15.44,17.36-39.11-17.11-37.17-33.04l7.67-107.56c-2.05-9.85-30.73-36.06-39.51-44.48-7.25-6.96-22.16-14.88-25.12-24.89-2.39-8.1.42-50.8,4.95-57.22,1.56-2.21,5.05-3.58,7.64-4.36,5.84-1.75,31.73-6.12,37.8-6.36,27.77-1.1,55.12,51.45,78.17,63.55l111.48-15.63,5.21,2.78c8.75,15.95,28.78,21.58,33.15,40.21-16.18,24.2-32.3-23.23-46.41-25.09l-107.74,19.99c-5.45-.76-24.83-18.81-30.15-23.95-9.2-8.89-30.6-38.07-42.14-39.89-5.35-.84-16.64-.55-10.93,6.96l100.1,95.91c18,4.73,62.13-19.44,76.44-12.53,7.49,3.61,26.27,26.83,12.19,31.35-8.7,2.8-12.44-11.26-21.59-11.55l-60.73,16.11Z"/>
  <path class="st0" d="M800,455.98c1.27-8.78-8.4-10.92-13.1-15.89-28.53-30.21-58.13-59.19-88.97-87.13-8.2-3.75-54.76,15.79-68.91,15.16-11.91-.53-16.85-14.4-24.76-21.54l7.1-12.4c7.27-1.89,12.51,14.62,21.6,12.01l58.17-16.06c5.84-5.22,12.54-54.1,9.97-62.26-1.93-6.12-16.04-13.98-2.61-20.41,7.33-3.51,13.91,1.21,17.25,7.79,8.44,16.58-5.74,59.6-4.79,78.68,29.93,33.36,63.91,62.95,97.15,93.03,3.8,3.44,4.51,9.7,11.88,9.04.34-3.08,2.06-5.94,2.15-9.09.33-11.36-24.63-28.09-33.16-36.89-6.68-6.89-33.16-34.75-34.6-41.48,1.42-23.73,1.89-47.76,3.65-71.52,1-13.54,8.78-41.78,1.98-52.04-2.62-3.95-17.3-15.47-17.5-17.95.85-4.28,9.12-11.96,12.86-12.61,5.8-1.01,25.47,20,26.53,26.7,5.98,37.77-9.93,84.53-5.4,123.4,1.69,6.63,30.53,33.92,37.48,40.52,6.61,6.27,23.38,15.93,25.54,24.46,2.38,9.39.4,42.86-1.94,53.08-1.74,7.59-6.6,9.12-13.45,10.55-10.94,2.28-35.76,6.58-45.59,3.35-22.41-7.37-51.9-58.2-67.69-60.4l-109.36,15.6c-5.74-1.14-15.32-14.51-20.43-19.71-6.32-6.44-15.78-11.05-19.16-21.05,12.79-32.56,31.04,22.27,49.07,21.3,29.96-4.68,62.26-14.89,92.24-17.98,4.76-.49,10.77-.85,15.38.21,3.56.82,24.31,19.37,28.51,23.48,8.13,7.94,31.85,39.19,41.98,40.07,3.52.31,7.24-2.28,10.93-1.99Z"/>
  <path class="st0" d="M1943.41,455.36l95.13-99.94c4.72-11.25-16.06-54.88-14.73-70.45.92-10.73,29.52-35,33.79-15.66,1.51,6.85-12.16,7.95-11.71,21.61l16.1,58.08c17.46,4.94,44.79,12.6,62.59,8.57,6.33-1.43,14.22-15.04,20.39-1.54,4.47,9.8-7.52,19.38-16.07,19.87-9.24.54-34.62-2.99-45.68-4.13-8.8-.9-17.6-6.84-27.18-2.75-2.06.88-23.72,21.47-27.06,24.93-11.09,11.46-21.12,26.24-31.94,38.06-11.51,12.57-27.8,25.09-38.04,37.95-6.99,8.78,5.71,11.54,12.89,6.93,12.77-8.19,32.24-33.3,45.08-44.97,7.29-6.62,15.44-12.54,22.46-19.54,39.24-.97,78.58,3.58,117.58,7.69,21.34-.81,21.88-36.44,40.7-8.81-6.72,13.77-18.99,26.96-34.94,28.45-31.31,2.92-73.43-7.81-105.75-7.89-14.99-.04-18.24,9.49-26.88,17.23-5.39,4.83-10.76,8.24-16.18,13.88-8.85,9.22-21.61,31.28-33.81,34.19-8.49,2.02-52.47-.35-57.7-5.58-3.45-15.89-11.76-41.28-6.54-56.66,6.58-19.34,49.63-46.27,60.07-65.96l-15.6-111.5c7.93-7.27,32.69-37.82,41.5-38.61,3.67-.33,10.98,7.73,9.92,11.77-2.9,10.98-31.4,20.79-31.96,38.39-.38,11.87,9.02,40.45,11.62,54.56,1.74,9.41,8.46,42.86,6.94,49.66-1,4.47-3.57,8.28-6.4,11.76-11.75,14.45-30.19,27.79-42.78,41.23-7.72,8.24-22.35,21.02-10.23,31.68l4.44-2.53Z"/>
  <path class="st0" d="M1524,39c-3.22,11.3-66.97,59.57-80.03,71.97-9.69,9.2-14.79,13.64-16.05,27.95-2.27,25.69,3.59,51.54,1.19,77.19-2.46,7.98-37.9,38.03-46.12,38.01-8.42-.02-42.16-26.29-45.09-35.02-6.71-19.97,3.61-77.56-4.12-89.88l-89.41-66.59,1.82-58.41,14.64,1.56,3.02,49.36,88.19,60.35c1.43,3.08,3.35,6.21,3.82,9.64,3.59,25.84-3.73,57.11.61,81.39,1.49,8.33,6.61,13.77,15.51,13.47,1.75-6.42-2.09-13.59-2.06-19.08.1-19.37.4-38.32,0-57.82-.31-15.11,3.02-54.27-.33-65.67-3.03-10.31-50.84-28.43-59.65-38.35-7.32-8.25-8.74-46.05,12.19-36.18,3.65,2.54.89,12.93,2.27,17.71,2.48,8.55,47.02,28.43,56.6,35.34,20.71-13.44,51.51-25.99,53.27-53.65,18.29-5.97,22.42,13.67,13.13,25.14-5.29,6.53-27.44,22.93-35.57,29.41-6.04,4.81-18.73,9.76-20.91,17.12-3.93,29.12,1.8,58.05,3.16,86.96.78,16.57-1.96,36.29-.18,52.18,1.05,9.34,8.1,7.83,12.24,2.05,4.48-6.26.88-64.73,1.77-78.23.49-7.53,2.51-15.31,3.12-22.88l88.98-77.02c10.8-16.63-10.76-45.96,23.99-30.01-1.54,8.59,2.11,24.61,0,32Z"/>
  <path class="st0" d="M749.3,1659.3c15.53-18.24,33.41-33.79,49.65-51.34l-.84-15.08-5.85-.59-95.22,99.74c-1.97,4.08-1.24,8.27-.56,12.49,2.41,15.08,15.6,45.48,15.27,58.54-.27,10.79-29.59,36.89-33.79,15.79-1.32-6.62,11.54-7.34,11.71-19.82l-16.61-59.1c-24.16-5.36-54.94-18.75-75.78-.08-4.25-3.19-9.81-8.16-8.48-13.91,4.76-17.36,38.53-11.45,52.18-9.92,8.25.92,31.73,7.38,36.97,4.98,1.61-.74,23.09-20.87,26.1-23.95,11.47-11.77,21.8-26.89,32.92-39.08,9.3-10.2,33.32-29.4,39.12-38.87,1.46-2.38,3.32-4.37,1-7.19-4.33-3.41-9.74-2.59-14.21-.01-9.81,5.67-33.83,35.13-44.86,45.13-4.36,3.95-21.62,19.77-25.49,20.6-23.75-1.56-47.73-1.99-71.52-3.65-11.42-.8-36.41-6.74-45.58-5.58-11.87,1.5-21.25,22.33-26.17,21.45-3.99-3.8-11.95-8.88-11.38-14.75.52-5.31,21.37-24.06,27.22-24.99,37.66-5.95,84.37,10.6,122.99,4.99,2.27-.7,23.64-19.78,26.94-23.06,8.55-8.49,29.25-37.57,38.37-39.63,9.02-2.04,53.66-.5,59.55,5.61,1.37,1.42,2.17,3.48,2.6,5.4,1.66,7.48,6.03,31.12,6.3,37.87.94,24.34-44.49,53.56-58.9,72.65-9.26,12.28.61,32.31,2.77,47.31,3.39,23.57,6.27,47.76,7.85,71.32-6.95,6.68-32.81,37.58-40.63,37.36-2.62-.07-6.95-3.81-7.96-6.01-6.08-13.23,29.69-27.99,30.99-41.12l-20.15-101.85c-1.07-10.9,8.37-15.69,13.47-21.67Z"/>
  <path class="st0" d="M568.75,971.23c6.38,5.76,29.09,30.1,29.09,37.77,0,5.3-24.44,38.32-29.94,41.9-18.51,12.07-69.44,1.15-92.49,5.51l-69.45,90.55c-7.97,1.23-55.19,2.74-57.67-1.24-.49-4.44-1.96-13.81,2.99-15.43l47.86-2.14,56.02-83.98c10.11-14.71,29.4-4.45,44.06-9.96,18.83.14,56.74,10.89,64.8-11.15-5.19-6.9-13.27-.81-19.11-.97-20.87-.56-37.07-.4-57.82,0-17.66.35-50.42-3.05-65.65.35-2.6.58-4.53,1.72-6.33,3.67-9.77,10.57-25.43,51.98-35.99,58.01s-43.35,3.92-32.8-15.82c7.8-1.39,15.18,2.2,21.86-3.12,7.94-6.34,22.51-44.09,31.13-54.18-.07-5.48-32.32-48.69-38.7-50.57-7.09-2.1-20.18,2.11-15.75-12.48,3.41-11.24,17.95-8.88,25.36-3.08,5.19,4.06,20.51,23.7,25.74,30.21s14.12,24.15,20,26.04c15.59.48,31.44,1.58,47.14.99,13.12-.49,28.67-3.55,41.84-4.16,16.51-.77,38.85,2.42,54.15.1,8.16-1.24-.8-14.07-6.11-13.96-32.15-1.29-64.84,2.98-96.49-3.51-18.74-20.6-37.26-41.46-55.49-62.51-8.24-9.51-16.93-28.05-30.12-29.92-9.1-1.29-16.48,4.11-24.56-.42-5.74-23.12,13.34-21.79,30.75-19.74,9.99,1.18,28.54,21.83,35.98,30.02,12.21,13.43,23.66,30.34,35.95,44.05,10.55,11.77,14.88,20.56,31.95,22.05,25.24,2.21,50.76-2.81,75.98-1.98,6.53,1.19,8.09,5.73,11.86,9.13Z"/>
  <path class="st0" d="M1744.01,1926.01c2.21-2.16,37.75,27.3,42.55,30.43,10.7,6.98,16.03,13.04,29.96,11.09,4.08-.57,33.07-10.8,33.47-12.56l-43.04-36.92c-30.26-22.69-61.1-43.82-89.99-68.01-4.7-3.94-13.15-7.4-16.8-11.19-7.6-7.89-.11-16.84-2.15-26.85,3.41-3.57,33.81,18.91,38.62,22.36,9.09,6.52,19.79,14.54,28.31,21.69,10.86,9.09,19.54,21.37,31.91,27.91,7.04-1.52,6.5-31.5,3.26-37.07l-82.03-68.11c-.42-2.08,10.62-17.38,15.8-13.82l63.12,51.06c1.97,2.48,2.06,2.31,3.99-.03,4.97-6.05,6.9-34.95,3.97-41.95l-49.03-43.13c-1.32-3.22,11.54-15.04,13.05-15.03,13.86,7.17,23.74,18.99,35,29.15,5.01,4.52,13.92,9.39,18.13,13.87,12.95,13.76,2.81,47.15,1.92,64.13-.77,14.59.69,29.36-.05,43.95-1.18,23.21-11.76,24.69,8,44.05,14.7,14.41,35.1,30.16,53.99,37.97-16.64,20.86-37.55,31.76-62.93,39.03-30.09,8.63-34.26-2.04-56.14-19.93l-22.88-42.09Z"/>
  <path class="st0" d="M1689,4c6.42,1.22,45.69,20.3,51.06,24.94,9.01,7.78,11.31,22.51,11.91,34.08,1.08,20.94-11.59,36.05-12.96,56.97-9.55-19.68-2.95-63.35-19.98-78.02-3.9-3.36-32.54-18.58-35.02-15.96l23.01,194.01-19,13.97c-5.89-27.84-12.13-56.43-14.11-84.91-.49-7.11,2.69-33.03-3.19-34.92-6.84-2.09-21.95,11.71-24.84,16.73-4.27,7.44-.81,44.83.12,56.09,1.59,19.07,5.6,38.06,7.08,57.11-1.2,2.36-18.85,2.48-20.75-.46l-8.34-82.69c-.29-7.98-12.86,2.21-15.83,4.23-8.63,5.87-20.43,14.62-20.37,25.81.04,6.49-.19,16.17.1,21.93.28,5.6,5.86,37.3,4.1,39.1l-20.11-1.29c-4.11-17.07-3.42-34.32-3.92-51.7-.24-8.53-4.5-14.6-.47-24.51,4.71-11.55,37.89-33.92,48.52-43.48,9.07-8.16,16.96-17.78,25.95-26.05,6.29-5.79,20.62-12.69,23.13-20.87,2.53-8.23-1.4-48.61-3.36-58.86-1.64-8.57-4.23-13.64-7.75-21.25,10.47,1.37,25.17-1.87,35,0Z"/>
  <path class="st0" d="M1079.99,2043.99c-9.18-.57-21.13,2.66-30.02,1.22-10.1-1.64-54.65-22.13-59.99-30.19-2.71-4.1-4.67-11.64-5.47-16.53s-2.38-19.25-2.25-23.59c.3-9.76,17-31.15,11.74-44.89,5.15-1.43,4.79,4.18,5.41,7.51,3.07,16.5,3.1,49.53,10.85,63.21,5.97,10.53,30.47,19.12,41.72,23.26l-24.56-193.4c2.34-3.68,17.32-17.3,20.55-14.59,5.65,30.13,11.21,60.42,14,91.02.55,5.97-2.24,27.41,3.12,28.96,6.37,1.84,25.58-17.75,26.77-25.09,2.86-17.61-6.26-45.06-3.9-63.86l-5.98-43.04,20.24,1.16,9.78,84.85c4.8,4.71,29.01-17.49,32.95-22.04l-.97-71.97,16.74.28,2.94,3.06c3.27,13.78,1.53,27.71,2.35,41.64.43,7.28,4.27,19.38,3.9,25.91-.88,15.37-40.19,41.51-51.95,52.08-7.64,13.88-42.3,33.26-47.43,44.56-3.78,8.34.18,40.38,1.71,51.22s3.14,19.21,7.74,29.24Z"/>
  <path class="st0" d="M2388,1345c-1.05,5.46-14.22,34.2-17.64,40.36-8.62,15.5-13.21,20.06-31.37,22.63-24.71,3.5-29.59-3.33-50.88-9.1-5.49-1.49-13.56,1.11-16.11-4.87,18.11-5.03,54.2-2.94,69.85-11.17,12.78-6.73,18-27.47,25.18-38.88l-2.19-3.86c-30.41,4.21-61.15,5.99-91.57,10.17-27.89,3.83-51.25,9.32-80.25,11.75-5.34.45-12.77,4.3-17.1,3.13-7.34-1.98-11.57-13.79-17.88-18.15,0-3.89,48.42-11.84,55.22-12.74,21.4-2.86,43.18-4.59,64.75-4.26,2.44-11.49-14.2-28.72-24.92-30.08l-104.94,9.92c-.95-6.74-5.93-16.63,2.32-20.37,26.4-6.46,53.83-5.92,80.58-9.46,2.69-.36,3.54,1.05,2.98-3.01-.65-4.69-19.72-28.74-23.9-30.13l-72.13,1.11,1.99-19.99,72.07-5.23c15.25,2.72,32.82,32.14,42.92,43.26,8.84,9.74,19.19,18.23,28.05,27.95,10.53,11.54,16.35,29.39,34.16,29.85,10.88.28,46.78-3.55,57.38-6.25,4.87-1.24,7.65-6.58,13.43-5.57-1.3,9.87,1.78,23.75,0,33Z"/>
  <path class="st0" d="M2311.44,625.41c-4.16,3.29-19.96,8.29-26.78,12.25-5.24,3.05-9.82,6.76-14.64,10.34-3.21-3.82,37.32-48.9,39.52-59.45,3.46-16.61-5.47-31.55-10.55-46.57l-122.43,153.73c-6.38-1.15-13.21-.91-19.57-1.73-2.33-.3-4.02.86-2.93-2.92,2.38-8.24,26.44-40.18,33.16-48.86,5.64-7.29,11.78-15.3,17.76-22.24,4.4-5.1,22.46-19.27,20.91-24.71-2.12-7.39-33.07-7.48-38.92-1.3-21.18,27-45.68,51.12-64.12,80.19-4.96.78-17.03-10.58-14.53-16.69l50.71-61.46.99-5.97c-14.35-3.08-30.07-6.72-44.6-2.14l-42.67,47.96-14.36-12.83c-.02-3.97,44.92-54.28,53.06-58.6,18.86-3.57,37.52,2.73,55.5,3.66,14.6.76,29.43-.73,44.06-.06,16.47.76,25.35,9.77,40.11-3.95,6.24-5.8,29.62-34.85,33.78-42.22,2.82-5,4.99-10.01,5.16-15.86,19.12,10.31,28.25,27.79,35.47,47.5,5.06,13.82,11.83,29.17,6.97,43.96-1.02,3.11-18.47,25.93-21.02,27.95Z"/>
  <path class="st0" d="M462,652.02c-6.3,7.69-20.18,4.88-28.75,6.23-8.99,1.41-33.33,4.56-40.01,7.99-11.63,5.98-20.87,29.77-25.23,41.75l193.95-22.95,14.04,18.94c-2.43,3.32-71.73,13.21-81.01,14-12.9,1.1-26.46-2.12-38.93,2.09-3.11,4.56,12.35,23.18,17.2,25.67,9.69,4.97,42.95,1.31,55.73.24,19.09-1.59,38.06-5.28,57.07-7.15,2.94,2.12,3.96,19.17-1.45,20.77l-84.56,11.37c-.01,2.08,17.19,25.44,19.96,28.01,10,9.29,15.11,3.11,24.99,2.99,3.38-.04,6.75,2.16,10.01,2.03,5.58-.23,39.4-5.6,41-4.02l-.12,19.91c-2.71,2.78-68.3,6.74-77.33,4.54-16.57-9.1-25.34-27.05-37.53-40.46-8.95-9.84-19.4-18.43-28.05-27.95-17.76-19.54-12.86-31.03-43.96-30-10.38.34-43.1,3.22-51.49,6.5-3.88,1.51-5.01,6.06-9.51,5.47.46-9.4-2.92-23.02-1.24-32.05.96-5.18,7.07-18.97,9.52-24.65,3.52-8.15,12.77-27.8,19.01-32.99,7.65-6.37,33.93-9.72,43.81-8.37,11.98,1.64,28.58,14.33,42.9,12.1Z"/>
  <path class="st0" d="M989.99,121.99c-2.5,2.46-29.38-20.79-33.36-23.62-4.48-3.19-20.42-15.11-24.04-15.95-17.34-4.01-30.74,6.24-46.59,9.6l.96,6.02,150.65,115.34-.26,21.64-5.47,2.15c-21.15-14.62-43.04-28.75-62.81-45.23-6.15-5.12-23.38-24.87-28.48-25.66-10.75-1.68-10.44,27.74-5.49,35.63,4.73,7.54,42.43,38.47,51.91,46.09,3.87,3.11,31.01,20.27,30.97,23-6,4.4-7.46,15.16-16.46,12.64l-67.58-50.72c-4.34,3.43-6.86,34.6-4.41,40.56,1.03,2.49,24.14,23.58,28.45,27.54,6.63,6.09,15.1,12.05,22.02,17.99l-14.75,14.85-56.32-49.79c-4.76-24.65,1.84-50.26,3.15-75,.81-15.21,1.77-33.06,2.06-48.03.42-22.29-23.68-30.52-37.22-44.97l-26.9-17.06c8.12-6.8,15.57-18.08,24.58-23.43,12.93-7.68,47.77-19.96,62.3-17.48,6.11,1.04,27.32,17.75,31.12,22.87,5.25,7.08,8.53,19.99,13.59,28.41,1.56,2.6,10.26,10.76,8.38,12.6Z"/>
  <path class="st0" d="M579.98,1354c3.83,4.78-16.49,31.19-20.35,36.63-15.66,22.09-34.06,41.88-51.25,62.4.61,8,34.93,10.08,40.65,1,20.49-27.15,45.81-50.4,63.01-80.02,2.33-1.59,17.27,11.56,15.21,16.04l-53.25,67.92c2.31,2.97,37.25,7.15,41.97,4.98,2.71-1.24,21.41-20.97,25.06-24.93,3.34-3.62,19.79-25.98,21.97-25.98l12.71,14.6-49.14,56.91c-24.6,3.62-49.12-2.36-73.49-3.64-11.3-.59-22.83.44-34.16.16-14.23-.34-21.96-7.44-34.9,4.94-5.17,4.94-34.39,40.51-36.51,45.49-1.62,3.79-.19,13.35-4.48,11.48-3.08-1.35-19.77-16.75-21.94-20.07-5.93-9.09-20.94-48.79-21.16-59.01-.34-16.13,17-30.09,27.04-40.93l39.02-19.96c-7.35,14.36-19.5,25.31-28.44,38.54-13.98,20.68-17.3,23.87-8.13,49.02,1.29,3.53,5.89,17.21,9.55,16.41,42.12-46.82,75.01-100.58,114.87-149.15,7.67-7.3,17.94,1.27,26.14-2.84Z"/>
  <path class="st0" d="M1700.97,1420.11c5.09-.44,19.54,21.42,24.04,25.88,14.55,14.39,33.95,27.05,49.02,40.98,26.29,24.31,51.2,50.19,76.13,75.88,6.67,15.52-10.12,48.61-7.84,61.68,2.31,13.2,61.22,38.12,34.35,53.32-10.42,5.89-21.38-14.18-28.65-20.86-57.81-53.16-116.74-104.32-174-158-5.29-4.96-32.41-21.97-23.97-27.92.57-.4,12.27-5,12.96-5.01,4.2-.06,57.48,46.18,65.01,52.93,29.81,26.68,56.9,56.57,86.87,83.12,11.95,9.24,14.54-28.61,12.05-34.06-48.96-41.64-92.79-88.56-140.95-131.05l14.96-16.87Z"/>
  <path class="st0" d="M1302.01,1540h21.98c-.11,7.64.22,15.33,0,22.98-1.62,56,7.04,116.84,5.8,173.8-.32,14.64-12.93,21.99-23.97,30.04-4.84,3.53-24.88,13.99-26.81,17.19-4.32,7.17,3.43,42.14.95,54.95-1.63,8.43-13.52,11.3-18.9,4.98-4.71-5.54-.66-26.09-.98-35.02-2.9-81.43-9.42-162.45-12-244-.18-5.84-5.21-20.3-.17-24.01l16.11,4.07,10.06,111.94c.45,30.7-1.62,61.65,1.82,92.18.34,3.02.23,5.05,3.14,6.91,2.41.47,28.64-16.86,28.91-23.06-3.9-64.23-4.51-128.52-5.94-192.96Z"/>
  <path class="st0" d="M1883.99,1145.99l5.15-20.11,109.77-7.97c24.32-.98,49.91,1.61,74.06.06,5.91-.38,25.2-1.22,25.08-6.94-.07-3.4-16.15-25.66-19.44-26.67l-194.63,5.64-1.48-19.1c.82-4.64,19.6-2.93,24.47-2.91,52.67.26,106.58-3.79,160.11-3.92,4.69-.01,8.74-2.18,13.63-1.97,21.42.92,33.94,36.98,47.28,50.89,11.53,4.43,53.49-6.73,60.2,1.79,2.96,3.75,2.74,10.44-.05,14.35-5.26,7.37-27.3,2.37-37.22,2.77-60.49,2.43-121.41,9.65-181.83,12.16-28.35,1.18-56.86-1.71-85.09,1.91Z"/>
  <path class="st0" d="M912.02,444l-5.74,31.11,1.96,5.59c16.09,16.66,34.97,30.41,51.79,46.27,29.13,27.46,55.88,57.62,87.03,82.98l.82,4.87-14.85,13.3c-5.02.05-18.26-20.48-22.95-25.2-13.99-14.06-33.59-26.43-48.11-39.89-24.84-23.03-47.32-48.79-72.81-71.19-14.55-18.65,5.4-48.8,2.43-70.41-3.51-11.73-62.08-35.22-30.47-51.48,9.7-1.4,19.59,16.37,26.85,23.09,42.19,39.04,87.82,75.12,130.05,113.95,23.6,21.7,44.45,46.33,69.95,66.08,1.11,4.94-12.62,6.6-15.34,10.7l-2.55-.65c-20.46-19.04-43.33-35.44-64.11-54.08-23.83-21.37-46.23-47-69.94-68.06-3.04-2.7-21.54-19.19-24.01-16.97Z"/>
  <path class="st0" d="M788,1479.98c9.84.47,28.4,9.24,36.78,3.8,40.68-48.51,86.73-91.97,129.22-138.88,5.25-3.02,6.44,4.73,9.13,7.05,2.37,2.04,10.26,2.54,7.92,8.09-1.25,2.97-28.5,25.91-34.08,31.94-12.99,14.05-24.82,31.74-37.94,46.06-21.91,23.9-46.83,45.3-69.07,68.94-21.93,5.09-42.91-7.77-64.54-6.56-11.6,7.26-28.59,40.8-42.21,39.59-29.2-2.6,11.69-35.17,17.81-41.96,23.68-26.3,46.16-53.82,69.94-80.06,33.97-37.47,70.27-72.96,102.49-112.03l3.56-1.52c3.32.49,10.3,15.59,8.05,19.5-21.33,22.18-39.22,47.5-60.05,70.1-18.25,19.81-40.38,37.89-58.06,57.94-3.4,3.85-21.68,24.83-18.97,28.01Z"/>
  <path class="st0" d="M1821.75,743.71c-9.03,2.28-8.63-9.2-13.02-14.76,20-24.97,40.39-51.29,62.25-74.99,24.46-26.53,51.95-48.89,74-78,1.52-2.01,4.69-2.63,2.06-6.01-2.66-3.42-32.23-8.44-37.65-4.08-40.78,49.1-87.43,92.86-130.39,140.08-5.44-4.53-6.39-12.82-15-11.99-.61-3.11.33-4.62,1.9-7.07,4.3-6.72,22.73-19.95,30.15-27.85,13.53-14.4,25.46-32.37,38.92-47.08,22.19-24.25,47.36-46.15,70.29-69.71,12.66-6.63,47.85,7.47,63.29,7.45,10.93-6.59,30.28-41.53,42.44-41.56,5.44-.01,10.76,5.68,11.03,11.04.34,6.69-23.16,26.24-29.05,32.78-35.03,38.89-68.49,79.55-103.94,118.06-22.5,24.43-48.49,45.96-67.28,73.69Z"/>
  <path class="st0" d="M1470.48,503.53c-3.8-3.74-1.87-22.38-2.5-28.5-1.92-18.55-5.12-37.37-5.96-56.04-1.87-41.6,3.4-83.76-4.1-124.93-4.12-2.81-30.83,15.57-31.37,23.18,5.76,63.44,2.83,127.26,7.45,190.78-4.69-2.46-23.05,2.89-24.1-1.32,5.02-39.89-1.33-79.8-3.99-119.61l.95-85.21c13.32-16.72,33.61-24.99,50.13-37.85,1.2-2.2,1.16-4.57,1.19-6.99.13-11.61-9.11-46.23.66-53.17,5.89-4.18,15.6-2.76,17.1,5.19,2.2,11.69-.72,30.99-.03,44.03,2.78,51.88,8.01,104.07,10.16,155.84,1.33,31.96-2.16,64.23,3.68,95.92-1.25,6.31-17.76.19-19.28-1.31Z"/>
  <path class="st0" d="M851.99,904.02l-4.25,17.72c-3.7.22-7.35,1.59-10.99,2-24.33,2.74-53.32,5.32-77.67,6.33-41,1.71-82.45-3.2-123.08,3.93-1.72,1.91,14.03,25.45,16.97,28,7.84,6.81,32.84.22,43.95-.1,42.74-1.24,85.45-.49,128.17-1.84,5.56-.17,24.92-5.94,26.78,1.16.65,2.46-1.75,5.61-1.68,7.97.21,7,5.78,11.8-5.14,12.94-10.2,1.06-29.21-2.63-42.12-2.23-45.87,1.41-84.85,5.55-131.92,4.49-7.29-.16-14.61,3.22-23.58,1.17-14.27-3.26-29.87-40.78-41.44-50.56-10.21-4.72-45.93,8.03-57.94-.04-15.14-27.27,30.99-18.04,47.05-18.89,72.3-3.83,143.64-7.86,216-10,6.29-.19,38.59-5.28,40.91-2.06Z"/>
  <path class="st0" d="M1895.4,400.63c18.74,16.29-26.46,38.23-31.4,52.45-2.44,17.66,14.39,48.68,5.79,63.7l-136.69,137.3c-8.73,11.1-16.58,1.28-23.02-6.95l90.88-93.19c11.4-11.2,46.52-36.38,48.93-51.05,1.4-8.51,1.49-35.56-12.99-26.99-10.43,6.17-38.42,39.21-49.84,50.15-18.28,17.53-38.02,34.18-56.11,51.89-16.9,16.56-31.21,35.48-49.95,50.02-4.07-4.37-6.07-11.32-12.99-12-2.78-3.94,12.4-13.25,15.04-15.91,58.11-58.51,118.16-123.96,178.92-179.08,4.26-3.86,22.93-20.91,26.15-21.99,2.98-.99,5.01-.32,7.27,1.65Z"/>
  <path class="st0" d="M1023.72,1398.25c1.05,1.82.21,4.01-.72,5.73-4.8,8.88-24.01,19.97-28.95,31.06-22.23,18.54-40.51,40.81-61,61-21.89,21.56-64.48,42.58-43.09,79.1,3.48,2.17,7.64-2.23,10.08-4.12,15.82-12.25,33.65-34.49,48.91-49.09,17.62-16.86,36.68-32.86,54.11-49.89,5.95-5.81,47.82-53.65,52.89-50.03.76,5.42,4.82,8.63,9.79,10.22,3.65,6.23-11.16,13.99-14.78,17.7-56.67,58.1-117.2,122.66-176.92,177.08-5.94,5.42-25.2,25.08-31.96,22.04-15.75-7.08-2.53-21.34,4.95-29.06,5.24-5.41,24.1-18.09,25.04-25.11-2.32-20.08-9.95-39.41-8-59.85l146.98-146.57,12.69,9.77Z"/>
  <path class="st0" d="M1314.42,271.6c15.68,12.26,39.17,20.45,49.21,37.86-3.26,21.42.54,42.09.45,63.62-.14,34.39-2.38,69.41-2.18,104.01.07,12.56,5.35,26.01.08,38.92-5.5-5.01-17.22,4.15-19.72-3.33-1.88-5.6,1.89-10.84,1.74-15.68-1.35-43.89-2.69-87.89-2.08-132.08.23-16.93,7.54-39.74-5.07-54.77-5.06-6.03-23.22-19.93-24.95-5.25-5.37,45.63,1.86,103.33-1.82,150.18-4.34,19.09,3.28,42.64-.09,61.91-1.45,8.26-12.8,1.17-19.98,5,1.25-22.82-1.18-45.93-1.26-68.65-.19-54.74,3.24-109.65,3.34-164.43.04-22.88-3.57-46.68.04-69.77.41-2.62,1.25-5.03,2.82-7.19,31.48-9.24,14.65,41.77,19.46,59.65Z"/>
  <path class="st0" d="M857.73,1030.27l2.03,16.57c-1.64,6.87-14.75.97-18.86,1.08-56.93,1.48-114.23,3.55-171.38.6-11.09,1.62-17.98,6.78-24.01,15.98-2.83,4.32-7.92,11.65-1.5,14.46,51.47,1.82,103.37,2.69,155.07,2.95,4.33.02,8.3,2.14,12.01,2.16,15.02.08,34.12-4.5,49.91-2.08,1.89.29,4.12.81,4.49,2.92l-1.48,17.1-76.93-.1c-63.63,2.22-126.7-4.83-190.16.17-13.64-5.22-52.85,6.14-41.58-19.66,3.84-8.78,48.7-1.69,58.67-5.41,9.46-9,27.11-47.16,39.1-49.05,5.21-.83,10.46,2.08,15.8,2.12,49.96.38,100.21.06,150.19.02,12.29,0,26.19-5.66,38.63.18Z"/>
  <path class="st0" d="M751.47,492.36c4.29-.89,5.89-.66,9.65,1.54,8.17,4.79,27.25,31.62,34.32,33.74,17.58,3.14,47.12-13.07,62.52-6.59,4.41,1.85,12.26,14.62,16.98,19.02,22.51,20.95,44.4,42.12,66.11,63.89,19.64,19.7,39.17,39.52,59.07,58.96,5.43,6.31-4.35,11.48-7.08,17.26l-2,1.48-136.38-135.31c-6.97-6.48-33.51-6.31-37.8,1.62l1.03,5.11,152.12,157.88-13,13.01c-15.34-17.21-33.74-31.78-49.8-48.17-48-48.99-111.35-106.98-154.23-157.77-6.69-7.92-19.73-21.88-1.51-25.67Z"/>
  <path class="st0" d="M1371.99,1533.99l16.86-1.76c5.51,1.31,2.74,28.35,3.07,34.85,1.9,36.72.16,73.2,0,109.83-.06,13.4-2.06,40.17.5,51.66,1.6,7.17,20.05,24.79,26.45,23.34,3.72-.85,4.93-11.42,5.21-14.84,4.79-57.55-.12-127.72-.08-186.08,0-7.22,3.94-16.74,2.01-24.99,5.18,3.98,18.29-1.51,19.69,3.27,2.54,7.11-1.63,16-1.51,21.93.55,27.4-.03,54.38-.28,81.7-.55,59.56,4.71,127.98.16,186.16-.32,4.14-1.49,17.35-5.34,18.69-4.25,1.47-14.76-.18-16.4-5.09-3.57-10.64,3.25-47.32-1.3-54.7-10.07-8.88-45.88-25.22-48.61-37.39l-.44-206.59Z"/>
  <path class="st0" d="M1875.99,1000c16.1,2.08,33.55-2.03,48.91-2.1,31.31-.15,62.88,2.16,94.01,2.18,29.11.02,68.98,8.61,75.21-28.95l-224.12-5.15v-19.98c2.21-2.08,20.73,1.64,24.99,1.59,82.63-.95,184.82-5.96,266.07.33,5.42.42,19.22,1.59,20.63,7.46.96,4.02-2.86,12.95-7.09,14.23-12.01,3.62-42.83-3.38-52.63,1.37-9.83,9.02-27.04,46.68-39.03,48.97l-201.97.06-4.1-1.93-.9-18.08Z"/>
  <path class="st0" d="M1764,1336.03c6.99-.22,9.32-5.18,13.05-10.04,25.98,23.02,52.33,48.04,74.9,75.06,35.31,38.45,76.08,72.47,112.15,109.85,4.68,4.85,29.26,32.55,29.62,36.44-15.58,29.58-39.23-18.36-55.16-27.05-16.37-.11-49.8,13.76-63.66,5.82-3.85-2.2-7.3-9.67-10.84-13.16-42.56-41.93-85.78-83.41-128.03-125.97l-3.55-6.01,12.5-13.09,133.19,132.96c10.99,9.83,25.31,7.94,37.87,2.21l1-7.02-153.04-159.98Z"/>
  <path class="st0" d="M509.42,450.59c15.35,21.03,32.58,44.28,54,58.98,13.75-.93,27.83-.69,41.56-1.59,23.21-1.52,49.45-7.42,72.12-8.06,2.96-.08,5.75.14,8.39,1.6l64.49,67.5-14.98,10.92c-20.55-18.79-34.56-44.83-60.1-57.84l-117.5,7.49c-5.67-5.53-12.58-10.33-18.2-15.8-4.72-4.59-17.66-22.53-21.16-24.85-2.58-1.71-3.26-1.09-5.11.99-7.65,18.5,5.02,21.01,11.03,35.11-.19,8.44-15.66,8.81-17.56,11.37-.87,1.17-4.23,25.71-4.22,28.81,0,13.63,12.52,20.71,19.76,29.82,31.26,39.31,62.25,78.89,95.01,116.98,5.23,15.71-6.22,18.14-16.03,8.04l-111.07-136.93c-6.66-17.81,4.31-56.18,6.12-76.17.69-7.64-.14-16.1.05-23.95.24-10.02,4.06-16.38-1.79-27.63,3.02-5.36,9.87-9.47,15.19-4.8Z"/>
  <path class="st0" d="M384,1248c8.06,18.74,13.36,14.95,28.92,18.07,15.29,3.07-.38,16.93,1.84,23.97,1.63,5.18,19.78,25.41,25.13,27.07,7.28,2.25,15.63.09,23.09.91,39.35,4.33,78.68,9.63,118.04,13.96,8,.88,38.9.67,41.99,5.99,9.01,15.54-18.65,12.34-27.99,12-51.64-1.86-107.08-13.36-159.06-16.95-5.37-1.82-9.08-5.1-13.01-8.99-21.92-21.73-39.91-55.11-62.01-77.99l-12.7-4.3,3.07-15.86c20.7,1.32,42.99,5.78,63.6,6.23,8.47.18,15.45-.44,22.57-5.41,25.73-23.4,46.14-60.51,70.42-83.79,12.78-12.26,18.98-5.12,33-4.84,23.09.46,46.17-1.33,69.07,1.93l-3.98,18c-27.51-.74-57.27-6.55-83.86,1.13l-77.15,88.85h-61Z"/>
  <path class="st0" d="M2374.54,803.44c3.71,2.99,11.74,1.33,13.28,5.82,1.21,3.52-.22,12.04-4.31,13.4-5.16,1.72-37.52-4.36-46.42-4.75-10.37-.46-31.89-1.95-39.55,4.05l-76.94,89.62-94.58-1.6c-.11-7.12,5.74-10.72,2-17.98,28.29-2.42,57.2,7.17,84.75-2.26,18-18.81,32.88-40.41,50.21-59.79,4.56-5.1,23.56-26.85,27.54-28.46,15.27-6.19,40.22,2.81,56.53.49,8.08-1.15-4.37-15.08-7.51-16.54-6.83-3.18-17.54.96-21.72-4.27-6.53-8.18,4.39-16.54,3.3-21.38-1.01-4.5-19.88-25.16-24.64-27.29-2.99-1.34-8.12-2.16-11.5-2.5-50.92-5.1-102.86-7.51-153.72-14.28-8.49-1.13-24.54-1.38-19.96-13.21l6.09-4.05,180.68,16.44c14.96,3.84,44.55,50.29,55.99,64.01,3.03,3.63,19.23,23.49,20.48,24.5Z"/>
  <path class="st0" d="M918.78,1653.35c.3.6,3.17.54,3.32,1.74.19,1.79-.12,3.41-1.04,4.97-2.16,3.67-23.12,19.03-28.12,23.89-9.87,9.58-19.66,19.37-27.15,31l7.88,117.57c-2.08,10.49-32.62,31.23-40.67,41.48-1.69,2.15-4.49,2.44-1.03,5.04,5.31.79,12.41,3.12,17.61,1.71,7.74-2.11,11.79-12.19,17.38-12.65,10.27-.84,8.24,13.86,14.38,17.58,4.58,2.77,30.6,4.55,35.81,2.48l137.71-112.3c24.19-5.08,13.04,9.73,3.19,19.17-39.63,37.97-90.82,71.1-132.56,107.44-18.08,5.91-56.38-4.45-76.49-6.44-6.23-.62-34.43-3.5-38.07-3.16-4.24.39-7.47,6.55-13.56,5.26-2.73-.58-6.46-10.12-4.42-14.14,1.27-2.52,36.96-29.1,43.1-34.96,19.08-18.22,17.02-21.3,16.05-48.11-.94-26.03-6.95-53.88-8.05-79.93-.2-4.68-.93-10.68,1.01-14.95l67.96-64c3.22,3.02,3.74,7.28,5.78,11.31Z"/>
  <path class="st0" d="M1500,1786c1.49,27-5.2,53.8.43,80.57l89.36,78.64c7.17,12.46-1.88,44.05.21,59.82.28,2.08-.49,4.3,2.97,2.94,18.77-7.34,11.86-21.66,19.01-35.05,7.02-4.29,14.04,6.07,20.53,4.73,2.99-.62,24.88-18.63,26.39-21.76,4.79-9.92,2.04-24.38,3.13-34.87,5.08-49.19,12.18-98.24,16.45-147.55,3.09-7.38,11.84-8.08,14.62.43,3.24,9.91-2.15,31.76-3.07,43.12-3.8,46.63-7.77,93.64-13.87,140.13-14.43,21.24-37.73,33.11-57.09,48.91-5.69,4.64-28.24,22.75-31.18,26.82-2.42,3.35-1.08,9.43-5.12,10.88-5,1.79-12.53.57-13.7-5.5.68-19,10.77-65.25,2.69-81-2.11-4.12-20.64-19.78-25.72-24.28-21.13-18.71-45.27-35.15-65.16-54.84-3.44-15.56.75-32.1,1.21-47.05.36-11.59-2.34-36.59.21-45.79,1.71-6.16,12.09,3.5,17.71.71Z"/>
  <path class="st0" d="M1939.47,152.55c1.98,1.91,5.81,10.29,2.73,12.53-19.9,17.57-47.41,32.55-59.74,56.38,1.05,21.13,1.86,42.44,3.55,63.53.96,12.02,8.14,48.03,4.47,56.5-1.92,4.44-15.03,16.3-19.43,20.56-15.47,15.01-32.2,29.32-48.08,43.93-4.02,1.68-3.35-6.72-6.08-9.98-1.06-1.27-3.19-1.78-4.83-2.11l-.04-2.84c14.15-14.24,33.21-26.69,46.02-42,8.66-10.35,12.62-13.6,11.94-28.02-1.35-28.51-6.89-57.41-7.97-86.05-.27-7.15-.34-14.44.39-21.57,2.31-7.79,31.81-28.61,38.61-37.39,1.55-2,3.86-2.55,2.97-6-6.12-1.78-12.13-3.07-18.57-1.59-7.87,1.8-11.21,12.31-18.31,11.67-9.56-.87-8.06-14.55-13.09-17.12-5.67-2.9-29.78-4.05-36.13-2.09l-134.08,109.92-10.7,5.28-6.83-5.52c-1.86-6.62,7.08-13.31,11.69-17.6,40.02-37.21,88.94-69.42,130.12-105.88,23.42-5.26,46.1,2.55,68.94,4.88,12.7,1.29,34.39,4.26,46.08,3.78,6.09-.25,10.1-9.25,16.36-3.2Z"/>
  <path class="st0" d="M1144,47c.01-.54,1.77-1.21,1.73-2-3.74-7.28-15.24,3.89-17.47,8.26-4.09,8.03-.2,14.61-4.13,21.86-8.09,4.52-15.7-4.46-22.6-2.77-4.92,1.21-25.01,18.25-26.64,23.54-2.25,7.28-.09,15.64-.91,23.09-4.33,39.36-9.45,78.7-13.96,118.04-1.03,8.94-.67,34.01-4.22,39.77-3.21,5.2-8.77,5.84-12.83,1.23-.78-62.15,10.59-124.17,15.94-186.11,1.64-4.75,12.81-15.09,17.06-18.94,20.52-18.62,50.41-34.49,69.08-54.92,6.22-6.81,6.75-25.36,21.05-6.99l-5.97,71.81c1.75,11.17,19.18,24.4,27.84,32.15,20.31,18.18,42.86,34.77,64.08,51.92,7.75,10.39,2.04,21.59,1.87,31.97-.39,22.43,1.23,44.83-1.93,67.07l-16.08-2.92c-2.43-1.97-2.03-5.34-2.09-8.07-.31-13.96,3.79-32.97,3.43-47.66-.47-18.97.18-23.35-13.22-36.36-9.66-9.38-80.03-64.11-80.03-69.97.25-17.99-.34-36.01,0-54Z"/>
  <path class="st0" d="M2226.38,1599.62c-2.07-1.2-24.04-31.94-29.35-37.65-3.36-3.62-19.69-20.75-22.44-21.56-11.11-.48-22.45-.89-33.57-.39-30.66,1.39-61.96,9.49-92.5,6.46l-62.51-65.51c-.67-2.86,13.57-11.34,15.98-10.09,19.91,18.81,34.22,44.52,59.45,56.73l115.12-9.23c6.52,1.86,43.16,45.86,45.41,43.63,7.66-19.66-4.04-23.67-10.08-38.9.77-9.22,14.77-8.02,16.33-10.28,3.47-5.03,4.9-30.99,3.28-37.32l-112.41-137.57c-9.24-14.3,3.32-20.48,15.98-7.99,26.91,26.56,62.04,74.18,86.86,105.14,4.6,5.74,21.69,25.93,23.15,30.85,5.71,19.25-2.78,47.86-4.83,67.35-1.21,11.5-5.11,38.02-4.23,47.67.39,4.25,6.43,8.05,5.71,11.8-.8,4.13-11.5,9.13-15.36,6.89Z"/>
  <path class="st0" d="M1501.53,745.53c-3.51,3.51-17.59,4.33-20.54-1.51-2.92-20.5-3.71-44.96-9.22-64.78-6.47-23.29-52.75-36.58-58.86-57.14-3.5-11.79-.72-44.67-.83-59.17-.1-13.47-4.2-24.11.85-38.99,3.76-11.07,21.06-11.34,23.02-.87,4.41,23.58-3.9,58.23.95,83.05,8.44,11.21,21.6,18.32,32.1,27.98,2.34.33,4.02-1.33,4.69-3.41,2.02-6.3-3.19-31.02-3.67-39.7-1.23-22.33-.84-45.16-1.57-67.53,1.76-11.72,19.57-9.17,22.67.44,2.74,8.48.39,25.16.9,35.1,2.54,49.26,9.7,99.52,12.06,147.94.34,7.01,1.16,34.9-2.56,38.61Z"/>
  <path class="st0" d="M860.49,958.5c5.55-6.38,76.51.31,89.64-3.37l27.69-32.37c.7-2.13-1.31-3.87-3.13-4.44-7.33-2.29-32.16,3.14-41.71,3.66-22.35,1.22-45.2,1.16-67.59,1.53-12.67-2.45-6.49-21.13,4.04-23.08,27.58-2.32,56.05-.69,83.55-2.45,31.95-2.05,64.1-8.43,95.94-10.06,8.3-.42,26.73-1.23,34.03.14,10.36,1.94,8.84,22.03,3.78,23.67l-71.48,10.52c-2.77,1.89-4.99,4.32-7.2,6.8-10.7,12-29.22,46.58-43.9,50.1-13.89,3.32-41.53.67-57.22.78-13.3.1-46.3,7.81-48.26-13.21-.17-1.8.8-7.03,1.83-8.21Z"/>
  <path class="st0" d="M1165.99,675.98c1.84-2.51-6.03-9.16-7.96-11.01-21.35-20.41-53.52-41.66-72.04-64.51-9.05-11.17,4.04-20.74,14.08-17.64,2.68.83,23.81,20.32,27.96,24.15,10.28,9.51,19.5,20.83,29.94,30.06,33.66,29.75,70.94,55.36,102.9,87.08,8.64,9.21-3.53,26.74-14.91,20.93-2.36-1.21-4.14-6.27-7.26-8.75-7.54-5.98-43.73-32.72-50.22-33.93-20.6-.45-56.53,13.45-74.6,4.75-9.89-4.76-15.95-16.69-23.86-24.14-10.7-10.08-43.67-34.95-45.68-48.46-1.12-7.5,9.38-18.95,16.81-12.68,13.64,9.57,46.99,54.19,60.33,57.66,4.44,1.16,43.18-1.72,44.51-3.52Z"/>
  <path class="st0" d="M1071.43,1128.35c6.81-2.04,18.64,7.12,18.64,12.65,0,3.73-40.73,47.53-43.64,60.42-4.51,19.9,13.5,55.24,4,76.01l-59.47,62.53c-10.12,13.81-33.65,6.77-25.94-9.91,2.45-5.3,26.52-24.26,33.04-30.99,3.72-3.84,24.24-26.37,25.07-28.95,1.57-4.89-1.41-38.33-4.16-42.07-2.23-3.04-5.02-.49-6.8,1.13-8.41,7.66-17.1,21.92-25.13,30.87-8,8.93-38.67,43.66-46.31,47.7-1.86.98-3.53,2.24-5.77,2.24-6.79-.15-10.8-12.71-8.56-18.54l145.05-163.08Z"/>
  <path class="st0" d="M1494.7,1311.3c6.68,5.41,43.56,33.08,48.71,34.28,21.04,4.9,59.09-14.56,79.32-3.31,8,4.45,13.85,15.83,20.17,21.83,10.37,9.83,42.35,33.97,46.2,45.79,3.37,10.34-4.7,22.89-13.74,17.91l-62.88-59.36-42.48,3.58c-1.05,5.69,3.47,8.6,6.96,12.02,9.03,8.87,21.72,16.41,31.07,24.93,14.25,12.97,26.46,28.27,41.74,40.25,7.24,12.24-6.02,20.77-17.26,15.26-20.36-16.04-37.17-36.46-56.48-53.51-35.27-31.13-76.72-57.09-105.99-93.92-.13-4.66,7.43-13.01,11.91-14.25,7.75-2.14,9.43,5.8,12.75,8.5Z"/>
  <path class="st0" d="M1755.47,702.34c9.02-1.89,18.84,4.78,16.24,14.21-1.27,4.64-29.73,28.16-35.76,34.39-3.14,3.24-22.24,23.52-22.9,25.09-1.47,3.47.68,42.07,1.9,44.02,1.65,2.65,2.81,1.83,5.21,1.13,5.05-1.48,23.41-27.23,28.82-33.22,6.44-7.11,40.39-44.78,45.06-46.95,10.48-4.86,17.64,5.78,15.63,15.53-17.77,22.36-40.17,42.24-58.69,63.41-24.46,27.97-46.03,57.67-72.07,83.93-4.85,4.89-10.1,15.42-16.84,17.3-6.28,1.75-17.75-8.7-15.78-15.77.5-1.79,19.8-23.84,23.35-28.81,4.72-6.61,19.24-25.69,20.02-32.15,1.45-11.98-6.69-39.79-7.61-53.51-.44-6.49-.49-13.53,2.42-19.51l56.5-59.5c3.48-2.89,10.38-8.75,14.51-9.61Z"/>
  <path class="st0" d="M1253.7,1302.28c3.66,24.49,4.26,50.66,12.23,74.88,18.61,22.89,59.27,30.79,58.17,65.9-.35,11.25-.09,19.04-.02,29.85s1.95,48.97-3.93,56.22c-6.39,7.87-20.06,5.41-21.24-7.05-1.86-19.73,2.95-46.02,1.16-67.16-1.95-22.98-20.27-25.94-35.11-40.9-4.06-.53-2.6.16-2.96,2.93-2.25,16.94,3.37,35.13,4.09,51.95.58,13.57,2.1,46.3-.14,58.03-2.25,11.78-19.1,6.26-21.07-.76-4.1-26.18-1.19-53-2.89-79.16-3.09-47.65-13.59-95.3-9.11-143.15l20.83-1.59Z"/>
  <path class="st0" d="M1873.52,1072.47c3.36,3.38,3.74,17.26-1.05,19.5-24.73,2.47-53.02-2.68-77.48.02-17.6,1.94-16.55,9.76-25.7,21.3-3.34,4.22-10.08,4.75-11.32,13.7-.57,4.09.32,2.63,2.98,3.01,16.77,2.37,35.24-3.38,51.96-4.09,19.83-.84,39.96.54,59.8.36l2.99,2.99c1.54,7.76.51,14.8-7.14,18.3-25.7,3.39-51.93.82-77.56,2.44-32.57,2.07-65.42,8.52-97.94,10.06-7.5.35-42.93,1.13-46.13-2.03-3.03-2.99-4.01-12.7-2.62-16.72,2.66-7.7,12.77-3.62,17.74-4.26,14.57-1.88,34.5-4.26,48.43-7.58,29-6.92,36.62-59.78,70.45-61.6,8.12-.44,14.61,2.29,22.06,2.29,5.67,0,10.67-2.25,15.92-2.27,10.86-.03,48.07-2.02,54.61,4.55Z"/>
  <path class="st0" d="M1841.4,331.43c-3.9,4.88-21.13,16.15-27.43,21.55-4.41,3.78-16.52,19.92-21.73,16.77-1.23-7.44-7.59-6.57-12.2-10.74,15.76-11.38,30-24.56,42.48-39.54l-.53-33.46-9.09,1.9-53.9,48.06c-3-1.67-2.42-5.96-4.09-7.94-2.29-2.71-7.17-.57-7.96-5.83-.96-6.44,23.17-21.77,29.08-27.17,13.19-12.04,24.99-25.75,38.93-37.07l-.98-25.96-7.08,1.9-107.41,88.59c-4.85,1.97-14.85,2.77-19.5.52-2.38-1.15-8.39-11.84-7.98-13.95,1.1-5.65,12.28-1.32,16.12-1.9,6.3-.97,33.28-27,40.93-33.1,24.48-19.51,49.88-37.99,73.89-58.11,7.25-6.08,41.62-40.85,47.77-39.64,2.82.56,10.05,8.46,9.07,12.29-1.54,6.01-24.25,16.09-25.89,28.3-3.56,26.49,9.21,71.26,10.24,100.07.16,4.55.27,10.71-2.73,14.47Z"/>
  <path class="st0" d="M943.67,1680.36c.81.49,1.28,4.26,3.17,5.77,2.57,2.05,8.74.72,7.15,4.84-1.07,2.76-36.76,27.84-40.95,37.06s1.01,26,.97,35.95c3.67.46,6.27-2.07,8.96-4.02,17.38-12.58,35.5-31.79,52.06-45.95,4.13-1.65,3.51,5.66,5.97,8.04,3.32,3.2,8.5-.55,7,6.89-.94,4.68-24.33,20.86-30.03,26.03-12.19,11.04-22.93,23.81-35.97,34.01-6.37,8.08-.49,17.55-1.99,27.02l9.1-1.9,108.09-87.89c12.59-6.58,26.05,1.41,24.81,15.78-21.13-4.56-30.7,12.43-45.05,23.96-39.81,31.95-78.29,66.49-118.01,97.99-6.63,5.26-16.47,14.02-21.94,2.01-5.44-11.94,26.12-22.21,25.1-36.96l-11.95-98.3c-.43-15.15,20.61-26.05,31.87-35.66,4.56-3.89,14.84-18.79,21.64-14.67Z"/>
  <path class="st0" d="M2132.14,863.83c1.41-7.46.34-10.96-2.13-17.82,19.7,1.51,38.94,4.7,58.59,1.59l21.44-24.58c.8-4.88-2.22-2.43-5.04-2.95-23.51-4.33-51.04-4.86-74.99-6.09-.58-.42,3.52-5.31,3.78-7.45.59-4.85-9.56-12.52,7.19-12.73,24.35-.31,54.66,6.35,79.92,6.11,9.15-.45,31.41-22.11,14.21-24.02-25.19-2.8-50.76-5-76.12-7.88-17.11-1.94-41.9-1.33-57.52-4.48-14.08-2.83-22.01-16.84-13.33-29.42,8.21-1.89,8.45,7.12,14.4,10.35,2.62,1.42,9.51,2.93,12.7,3.3,58.78,6.82,118.85,8.43,177.75,14.25,8.75.86,20.13,2.95,16.68,14.55-3.59,12.07-33.7-3.66-42.65,7.43l-67.19,82.88c-7.7,4.71-22.2-.45-30.84-.87-12.27-.6-25.11,1.82-36.84-2.19Z"/>
  <path class="st0" d="M706.62,602.56c-2.27,3.11-1.68,11.4-5.59,9.42-1.28-.65-10.91-16.46-14-20.01-4.29-4.93-12.04-13.01-17.01-16.99-14.15-11.37-22.87-4.19-40.08-4.04l-.98,5.1c15.51,15.3,27.43,34,41.95,50.09,1.92,2.12,4.13,3.7,7.08,3.92v2.94c-9.14,4.17-9.48,16.85-20.15,8.17-3.97-3.23-8.78-12.6-12.81-17.17-8.82-9.99-19.56-18.83-28.1-27.9-13.39-14.22-13.12-27.23-40.74-17.9-4.31,6.39,11.89,18.15,15.76,22.89,24.58,30.11,47.24,61.84,72.85,91.15,7.45,15.95,2.45,25.3-14.78,27.78,4.69-23.22-8.18-26.82-19.96-41.05-29.61-35.75-56.92-73.58-87.03-108.97-8.87-10.43-38.54-29.29-12.31-37.67,20.35,17.85,15.59,27.15,46.27,25.67,31.09-1.5,62.36-10.71,93.61-9.56l39.12,42.86c5.52,10.41-.44,7.65-3.1,11.29Z"/>
  <path class="st0" d="M2085.99,1330c-6.09,22.28,8.38,26.99,19.96,41.05,29.23,35.47,56.17,72.95,86.11,107.89,6.39,7.45,34.79,27.67,17.95,36.12-12.87,6.46-22.44-26.58-37.02-25.16l-105.5,11.77-6.53-3.63-38.95-46.92c4.4-3.79,9.15-4.54,8.05-11.67l4.95-1.49c6.26,10.37,26.11,37.25,37.09,40.95,10.26,3.46,23.47.04,33.92-.92,2.55-2.65-7.89-14.13-10.06-16.94-9.02-11.72-21.84-27.47-31.86-38.15-2.26-2.41-4.58-4.58-8.08-4.93v-3.93c11.17.42,7.08-11.37,14.92-10.02,5.29.91,29.81,33.37,35.98,40.07,3.33,3.61,8.27,5.78,12.12,9.88,7.98,8.48,7.17,18.08,21.92,18.96,3.43.21,18.39-.65,19.04-3.96l-90.45-113.52c-5.47-15.72-.64-25.56,16.43-25.44Z"/>
  <path class="st0" d="M1124,121c2.23,10.21,76.94,59.51,86.95,73.03l-2.96,65.97c-7.97-2.37-12.48.88-19.98,1.99,2.33-15.96,7.14-38.78,3.57-54.57-1.9-8.41-18.99-21.17-26.54-25.42-2.96.61-4.53,21.96-5.02,27.01-1.31,13.41-3.19,30.93-3.63,44-.07,2.07,2.24,6.39,1.61,6.97h-19.93c-3.75-9.22,1.44-19.62,1.91-29.01.69-13.96-.39-28.08-.06-42.06.17-7.19,3.58-14.04,2.03-21.88-1.05-5.32-18.03-20.92-21.94-17.05l-14.5,142.52c-4.25,14.71-18.27,21.03-29.48,8.49,18.08-12.41,12.15-22.38,13.98-39.98,4.1-39.33,10.55-78.6,13.97-118.03,1.31-15.07-.31-40.7,2.46-53.54,1.97-9.14,11.59-10.18,17.55-4.45v36Z"/>
  <path class="st0" d="M1528.01,1787.99c7.21,2.59,11.6,2.51,17.97-1.99-1.49,19.7-4.69,38.94-1.58,58.6,1.11,3.88,20.4,20.65,24.58,21.43s2.51-.83,2.96-3.05c4.62-23.03,4.35-51.3,6.08-74.98l19.05,1.9c3.1,5.05-2.59,36.7-3.05,45.11-.54,9.96.21,20.07.07,30.06-.12,7.97-4.35,11,.18,19.67,1.79,3.44,16.93,17.24,19.71,15.24,4.25-40.36,9.26-80.69,14.01-121.01,1.63-13.85-1.8-41.87,22.55-36.58,16.75,3.64-.34,12.03-3.38,17.75-5.47,10.3-2.1,25.53-3.17,36.83-3.16,33.36-9,66.6-11.96,100.04-.92,10.4-1.2,64.76-5.88,68.11-31.08,7.93-4.52-26.33-18.1-42.17l-82.91-67.16-2.12-6.73,5-61.08Z"/>
  <path class="st0" d="M465,1268c8.24-2.35,56.57-72.27,67.01-82.99,9.54-8.9,34.08-2.08,47.01-1.03,5.59.45,23.48-2.16,24.69,3.19.35,1.55-1.75,4.69-1.37,7.42.46,3.35,4.47,5.52,3.64,9.4-15.94-2.02-51.83-9.92-64.08.92-3.56,3.15-17.77,19.3-15,23.18,1.47,2.05,43.9,5.44,50.1,5.9,8.87.66,18.16,1.32,26.98.02-3.65,4.67.39,15.95-.84,18-4.08,6.83-21.37.28-28.18.02-13.99-.54-28.06.34-42.06.06-21.38-.43-28.12-7.59-40.91,16.89,8.53,7.88,20.76,4.01,30.98,5.05,38.38,3.91,76.63,9.84,115.14,12.86,12.45,5.72,16.72,18.59,6.85,29.12-4.12.98-7.68-8.52-11.01-10.96-7.71-5.65-21.46-2.1-30.94-3.06-57.12-5.76-113.94-16.43-171.62-16.38-6.82-2.01-7.56-13.76-2.4-17.6h36Z"/>
  <path class="st0" d="M1671.5,624.5c1.51,1.5,2.08,4.43,2.4,6.55l-69.85,75.96c.33,6.04,35.38,5.94,41.44,3.48s35.3-34.26,42.57-41.43c4.12-4.07,5.74-10.23,11.85-12.18,10.55-3.37,14.06,3.08,17.89,11.84-6.05,5.37-10.29,12.55-15.7,18.38-11.03,11.89-29.25,33.7-41.44,42.56-32.68,23.76-61.8-3.3-84.15,5.86-4.79,1.96-26.25,24.91-31.53,30.45-6.59,6.91-22.16,30.5-30.43,31.76-8.9,1.36-10.91-10.95-6.68-16.9,12.08-12.9,21.22-28.07,32.2-41.78,27.08-33.81,49.63-54.02,81.97-82.03,8.41-7.29,31.72-34.14,41.11-34.97,2.38-.21,6.67.77,8.36,2.45Z"/>
  <path class="st0" d="M1129.99,1340.02c-13.76-2.79-27.99-7.35-41.39-.42-8.74,4.52-31.99,30.63-40.65,39.35-4.56,4.58-8.15,13.6-15.4,14.74s-16.81-8.6-13.62-15.62c18.28-16.18,34.44-42.34,53.05-57.09,32.61-25.86,66.07,1.6,86.44-7.47,5.45-2.42,25.05-23.63,30.61-29.48,7.55-7.94,21.7-29.8,31.07-33.1,5.09-1.79,9.79,5.82,9.77,10.08-.03,8.63-41.82,54.57-49.81,64.05-5.1,6.04-9.17,14.31-14.1,19.9-25.92,29.35-60.72,51.59-87.99,80-34.92,1.96-4.15-20.59,5.06-30.93,8.09-9.08,16.53-20.51,24.88-29.12,3.76-3.88,26.17-18.82,22.09-24.88Z"/>
  <path class="st0" d="M1603.52,1162.39c4.01-.33,5.27.74,8.37,2.71,28.42,18.13,53.66,47.36,82.13,65.87l74.9,85.12c2.91,5.63.76,13.03-6.05,13.97-9.72,1.33-11.66-7.86-17.08-12.85-17.36-16-35.16-34.95-52.01-49.99-2.52-2.25-8.18-7.55-10.73-3.16-18.73,46.34,28.42,61.95,51.92,91.98,5.33,6.7-5.86,18.81-11.68,17.64-5.33-1.07-25.5-23.45-31.27-28.7-12.21-11.13-25.9-17.9-34.1-33.9-12.87-25.14,1.25-49.56-.42-75.59-1.65-6.16-18.88-22.24-24.45-27.54-7.53-7.15-34.79-27.01-38.04-33.97-3.42-7.32,1.59-11.01,8.51-11.58Z"/>
  <path class="st0" d="M872.47,1099.54c-4.51-4.37-3.01-14.9,4.58-15.48,24.1,1.45,48.04-1.99,72.04-2.15,9.21-.06,17.08,4.09,26.91.08,3.86-4.28-23.67-34.32-31.89-33.09-16.37-3.44-61.06,6.51-74.12.12-7.06-3.46-3.09-14.81-1.78-20.79,7.73,1.22,16.16-1.79,23-2.02,4.42-.15,8.74,2.27,13.78,1.98,22.84-1.32,36.8-8.24,60.38,1.44,22.47,9.23,37.16,48.58,52.05,51.95,16.75,3.79,79.28-5.72,86.68-.69,5.52,3.75-.76,16.31-7.52,16.69-22.19.57-43.79,6.26-65.79,8.23-35.12,3.15-68.43.55-103.81-1.79-11.38-.75-47.35,2.47-54.51-4.48Z"/>
  <path class="st0" d="M1363.89,524.1c-1.31,9.08,1.56,18.23,1.92,26.68.14,3.18-2.17,7.28-1.89,12.12,1.28,22.44,8.85,39.08-2.28,61.73-9.42,19.18-32.65,26.54-45.7,40.3-11.77,12.4-4.35,47.31-3.85,63.98.26,8.59,3.44,36.28-6.65,34.79-5.38-1.78-9.52-5.59-11.02-11.13-.85-22.14-6.27-43.82-8.23-65.79-3.13-35.11-.57-68.37,1.79-103.81.78-11.71-2.65-44.34,3.86-52.14,4.02-4.81,14.12-5.6,15.62,2.6,5.08,27.88.23,61.35.44,89.5.13,17.96,16.5,3.64,23.16-2.88,18.34-17.96,11.18-25.78,10.86-46.97-.29-19.35-8.04-60.7,21.97-48.98Z"/>
  <path class="st0" d="M1011.02,674.4c11.89,7.88,20.55,19.21,30.95,28.63,27.46,24.87,43.18,28.37,40,71.94-.92,12.55-8.29,29.4-2.99,41.03,7.84,17.2,61.79,52.36,62.8,63.34.6,6.53-14.49,8.68-18.54,4.4l-83.26-66.72c-16.54-16.37-29.84-35.53-44.95-53.05-9.8-11.36-41.11-31.49-23.62-45.71l6.04,1.22,69.88,66.23c8.15,2.78,9.03-20.93,8.81-26.73-.2-5.22-1.8-11.19-4.44-15.68-8.37-14.26-48.54-39.5-52.92-53.25-2.64-8.28,7.14-11.36,12.24-15.65Z"/>
  <path class="st0" d="M1861.52,948.48c2.96,2.96,4.36,13.54-.81,15.24-5.85,1.92-21.91-.15-29.69.31-20.38,1.21-45.36-.28-64.12,1.88-17.17,1.98,7.79,26.01,14.08,30.11,10.06,6.56,49.83,4.3,64.09,4.08,6.78-.11,11.33-3.98,18.44-.62,8.83,4.17,5.48,12.92,4.3,20.34-5.08-.28-9.94,1.74-14.85,2.16-18.3,1.55-63.22,4.18-79-.94-23.48-7.63-29.73-29.12-44.95-45.05-20.74-21.69-63.05-2.76-90.06-5.96-18.59-2.2-11.36-16.94,4.57-19.5,69.18-11.11,139.68-11.75,209.51-4.53,2.57.27,6.69.68,8.49,2.48Z"/>
  <path class="st0" d="M1372.34,1523.64l-4.42-58.56c-.45-21.36-.41-36.84,15.02-53.14,14.55-15.37,40.52-22.44,43.07-44.93,1.45-12.79-7.35-77.24-1.75-80.74,10.15-6.35,16.3,9.2,17.53,16.96,8.58,54.12,10.09,101.48,6.24,155.8-1.34,18.98.35,41.2-5.09,58.9-20.3,14.03-14.15-16.62-14.95-28.9-1.38-21.27.36-46.53-1.88-66.12-1-8.74-3.67-7.82-9.96-3.76-7.56,4.88-21.87,17.42-23.68,26.32-2.62,12.86-.78,41.05-.55,55.62.11,7.07,3.85,10.74.57,18.4-3.72,8.69-12.57,7.74-20.15,4.17Z"/>
  <path class="st0" d="M1504,1082.02c13.43,4.16,35.66,8.3,47.01,15.97,15.3,10.33,31.33,35.27,47.08,46.9,8.59,9.06-12.89,25.07-20.09,28.12-10.42,4.42-47.79,9.28-58.11,6.1-8.61-2.65-33.65-35.61-41.84-44.16-27.36-28.57-70.31-63.28-93.07-92.93-1.54-2.01-3.88-2.54-2.98-6,13.53.18,23.41-2.51,34.98,6,22.98,16.9,51.63,52.94,73.96,74.04,5.54,5.24,37.92,36.12,40.94,37.06,6.78,2.09,23.99.97,30.7-1.52,15.99-5.92-23.22-31.38-27.63-35.55-11.16-10.53-20.49-22.86-30.95-34.03Z"/>
  <path class="st0" d="M1354,1011.98c-1.48,1.8-30.23.82-33.91-3.07-26.43-24.83-50.64-52.13-77.04-76.96-7.66-7.21-32.06-31.71-38.93-35.06-8.09-3.94-19.91-2.65-28.65-.43-21.85,5.55,15.93,28.39,21.49,33.58,11.81,11.03,21.87,23.31,33.03,34.97.28,1.57-1.76,1.12-3.01,1.03-5.9-.42-37.58-11.64-42.89-15.12-6.04-3.97-41.57-39.61-46.07-45.92-1.42-2-3.15-3.76-3.6-6.3-.76-8.13,19.82-21.68,27.15-24.13,11.84-3.95,43.77-8.89,54.55-3.68,12.24,5.91,31.28,33.21,41.83,44.17,31.53,32.75,65.33,63.39,96.05,96.92Z"/>
  <path class="st0" d="M1367.99,1005.99c-11.91-5.17-22.08-18.17-23.76-31.22-2.56-19.85,2.09-51.66,1.86-73.86-.05-4.72-2.07-9.1-2.16-13.84-.34-17.32,3.59-61.11-4.22-73.78-2.93-4.76-21.97-21.13-26.68-15.27-9.28,11.54,5.18,47.97,1.06,63.06l-4.06,26.9c-3.53-14.69-17.84-30.49-19.85-45.16-1.06-7.75-1.08-66.94.82-70.83,4.14-8.53,29.72-2.41,37.11.91,9.29,4.18,39.34,26.93,41.48,36.52,4.87,21.79-5.59,54.38-1.49,77.66-1.48,22.13-.91,45.63,0,67.84l-.1,51.07Z"/>
  <path class="st0" d="M1422.02,1162l22.77,43.73.21,70.28c-11.61,11.99-34.73,2.62-46.81-5.2-15.89-10.29-34.37-23.12-34.36-43.82,0-15.88,3.86-35.85,4.26-51.91,1.1-44.3-1.01-88.79-.06-133.08,7.91,6.7,20.18,16.33,21.85,27.13,4.74,30.67-1.04,78.69.05,111.95.14,4.26,1.88,8.06,2.06,11.94.51,10.98-1.98,29.69.91,39.09,2.41,7.86,18.72,17.85,26.14,21.37l4.56-4.9-1.57-86.58Z"/>
  <path class="st0" d="M1621.53,948.47c4.85,4.84,1.66,26.94-.66,33.39-3.8,10.58-28.44,41.93-39.24,44.76-15.57,4.09-45.33-2.27-62.55-2.71-44.29-1.13-88.8,1.03-133.08.06,6.13-6.66,16.05-20.43,25.11-21.87,30.35-4.8,78.9,1.07,111.97-.03,4.73-.16,9.1-1.93,13.84-2.16,13.7-.68,35.84,3.92,45.93-6.07,3.17-3.14,15.44-19.95,12.97-23.68l-90.84-2.18c13.08-5.61,32.56-19.81,46.15-21.87,14.83-2.24,31.65,1.45,45.88,1.87,7.16.21,16.6-5.45,24.53.47Z"/>
  <path class="st0" d="M1347.99,1024.01c2.19,1.94-13.74,17.48-16.07,18.91-4.17,2.58-10.31,4.28-15.15,4.86-19.99,2.4-49.8-2.12-71.86-1.86-4.73.06-9.11,2.08-13.84,2.16-17,.3-62.11-3.36-74.49,3.51-5.02,2.78-22.95,24.31-15.11,28.44h88.51s-41.44,21.52-41.44,21.52c-20.66-1.96-52.31,4.19-71.58.48-9.4-1.81-6.25-23.53-4.53-30.58,2.71-11.08,29.34-46.61,41.01-48.99,23.06-4.7,55.18,5.48,79.62,1.45l114.91.11Z"/>
  <path class="st0" d="M1380.02,1010c-1.67-1.37-.35-23.21.39-26.58,2.35-10.83,48.48-50.9,59.64-62.36,10.32-10.6,50.34-49.87,54.74-59.26,5.51-11.78,1.65-23.54-.97-35.61-10.93-7.42-31.69,28.45-37.73,34.9-5.76,6.15-19.3,18.23-26.06,23.94-1.58,1.33-4.01,5.24-6,2,6.27-11.93,7.87-26.35,13.6-38.4,8.91-18.72,26.45-29.46,40.43-43.57,7.03-7.1,8.2-17.43,21.46-11.54,5.47,2.43,16.57,19.55,18.4,25.59,3.83,12.66,8.29,43,2.89,54.69-5.24,11.34-41.35,38.21-52.82,49.18-21.75,20.81-42.62,42.71-64.03,63.97-2.13,2.11-22.28,24.4-23.92,23.05Z"/>
  <path class="st0" d="M1305.31,1165.28c1.04-.89,4.65-9.45,4.71-2.27-6.96,19.29-9.57,36.93-23,53.01-8.62,10.33-21.19,19.23-31.08,28.92-7.66,7.5-10.33,19.44-23.8,7.9-15.93-13.66-24.24-55.59-19.21-74.9,2.85-10.91,42.39-40.73,53.09-50.91,30.58-29.1,58.41-61.24,89.95-89.03-.47,7.98.98,16.69-.44,24.54-2.59,14.23-48.6,53.1-61.59,66.41-13.73,14.07-37.95,36.66-48.99,51.01-6.38,8.28-7.42,12.54-7.05,23.11.17,4.67,1.51,21.13,6.73,20.65,17.02-5.05,22.1-22.67,32.28-33.79,6.69-7.32,20.33-17.75,28.39-24.64Z"/>
  <path class="st0" d="M623,1162c-1.2-.2-7.51-3.1-8.06-3.92-8.38-29.07,49.39-16.53,66.19-16.02,58.38,1.79,116.65,3.02,175,6.81,3.2,2.23,3.33,17.65-1.38,18.98l-106.87-2.95c-17.87,9.85-33.97,42.81-54.87,43.25-23.76-4.48-50.17.29-73.58-4.58-8.37-1.74-8.46-7.93-7.15-15.28,3.28-5.28,68.21-.29,80.25-2.74,8.26-1.68,17.72-11.34,21.22-18.84l-2.76-4.7h-88Z"/>
  <path class="st0" d="M1967.31,1460.7c-20.49-17.46-37.99-40.95-56.28-60.73-30.77-33.28-62.03-66.07-92.09-100.01-4.52-4.92,10.13-16.83,13.1-15.08,20.42,28.84,49.1,51.07,72.01,78.08,11.1-.04,24.59,2.86,35.06,3.11,12.25.29,19.64-6.71,32.79,3.04,11.21,19.47,40.01,37.9,50.2,55.79,3.51,6.16,3.3,13.56-3.49,16.83-1.66.54-3.09-.04-4.65-.53-11.08-3.49-40.79-43.46-54.04-52.12-8.13-5.31-25.83-9.29-31.8.14l65.06,68.68-.1,8.08c-2.9,5.79-13.53,4.72-18.57,2.51-4.58-2.01-4.79-5.76-7.19-7.8Z"/>
  <path class="st0" d="M1230,279c2.46-11.61,16.71-11.14,20.96-.96,2.65,6.35,1.32,37.76,1.13,47.04-.1,4.73-2.01,9.1-2.16,13.84-1.82,56.74-3.44,113.19-5.97,170.03-2.75,11.29-11.95,5.17-19.95,5.05l3.58-106.58c-9.98-21.47-37.4-32.38-43.63-54.39,4.49-24.15-.94-52.09,4.49-75.6,3.13-13.55,17.58-9.51,17.58-4.42v76c0,6.15,12.99,20.79,19.92,22.14l4.08-2.14v-90Z"/>
  <path class="st0" d="M902.09,763.93c-.52-3.41-1.84-6.29-4.07-8.94-19.7-23.35-46.98-45.16-67.27-68.73-12.08-6.22-44.19.06-59.63-2.37-10.68-1.68-17.1-16.48-24.09-23.91-7.58-8.06-36.52-34.02-37.05-43.14-.49-8.35,9.03-11.56,15.14-6.93,13.36,9.26,40.95,47.54,53.4,52.59,5.47,2.22,30,4.93,27.2-5.16-1.57-5.67-29.68-28.02-35.77-34.27-5.24-5.38-27.03-28.86-28.47-33.67-4.09-13.68,14.18-12.06,23.52-5.37,17.16,12.28,44.17,48.92,59.98,66.02,30.78,33.28,62,66.12,92.15,99.99,2.38,4.57-11.35,16.51-15.03,13.91Z"/>
  <path class="st0" d="M1005.92,1586.05c-4.52-.82-7.53,1.58-10.92,3.95-10.28,7.2-26.5,29.62-37.95,40.05-3.08,2.8-19.8,18.33-21.09,18.92-12.43,5.78-17.89-8.4-12.07-18.09l170.75-156.59,13.32,12.71-78.93,75.03c-.01,10.51-2.8,23.16-3.11,33.06-.32,10.26,6.62,22.86-2.85,32.98l-57.92,52.07-9.73,1.52-5.17-5.1c-1.29-11.33,10.45-16.18,16.79-22.51,18.04-18.06,49.21-38.55,38.87-68Z"/>
  <path class="st0" d="M1771.43,368.41c10.48-2.37,15.09,1.04,11.68,11.69-1.67,5.23-37.86,36.08-45.16,44.85-4.59,5.51-9.09,10.59-10,17.99-.73,5.93-2.28,22.63,6.19,20.23,5.81-1.64,36.43-37.59,44.81-45.23,3.07-2.8,19.81-18.36,21.09-18.96,7.76-3.63,14.72,3.96,13.97,11.82-.7,7.29-23.4,27.92-29.98,34.23-45.28,43.32-94.39,82.9-138.92,127.08-8.64,6.14-12.5-3.08-16.92-9.43l78.3-77.18,2.55-61.45c13.46-11.72,25.67-25.21,38.94-37.06,4.26-3.81,19.47-17.66,23.46-18.56Z"/>
  <path class="st0" d="M2121.49,861.51c-6.61,5.71-52.67-.03-64.59.41-17.12.63-28.27,5.48-36.48,21.11,1.84,3.83,4.59,4.56,8.49,5.07,14.66,1.92,32.63-2.31,48.19-2.19,12.33.1,26.48,3.68,39.49,2.5,12.24,7.07,1.64,21.04-9.78,21.41l-227.48-9.73c-5.96-5.35-.46-13.27-1.33-20.08l50.9,4.08,59.19-.97,44.94-41.06c23.77,3.08,57.05-1.56,79.48,2.43,10.23,1.82,14.74,7.56,8.96,17.04Z"/>
  <path class="st0" d="M1506.02,1678.01l-2.97,96.13c-2.8,8.94-16.43,3.12-19.53-4.66-1.8-76.44,6.82-153.72,8.48-230.48-.3-7.51,18.64-6.54,19.77-1.84l-3.85,47.76.49,59.67c6.38,6.21,11.45,14.1,17.54,20.46,8.33,8.71,22.67,15.73,24.1,27.9-2.83,22.81.84,52-2.23,73.86-2.3,16.39-16.81,20.84-19.62,2-4.27-28.58,16.78-80.47-22.18-90.8Z"/>
  <path class="st0" d="M1090,479.97c-8.8-.83-11,10.68-16.05,13.14-6.36,3.1-25.81-20.44-31.49-25.12-13.66-11.25-29.51-20.61-42.49-32.96-8.67-14.63-52.74-40.8-55.62-54.49-1.5-7.16,5.09-17.57,11.69-15.79,1.94.52,28.16,21.02,31.98,24.22,7.52,6.3,32.44,33.67,39.4,34.74,10.77,1.66,7.5-23.37,5.07-29.22-1.58-3.8-22-23.73-26.47-27.53-7.14-6.06-25.85-16.01-30.16-21.83-7.66-10.34,6.69-22.61,16.88-14.88,14.63,16.92,51.19,35.63,62.17,53.81,9.79,16.2-1.02,46.13,4,65.02l31.08,30.87Z"/>
  <path class="st0" d="M784.01,833.99c-1.1,5.67,2.91,23.7-3.29,25.73-32.19-.27-63.66,6.27-95.72,8.29-13.19.83-28.37,1.43-42.02,1.97-16.73.66-48.61,3.11-31.66-21.66,16.73-.21,33.15-5.04,49.69-6.3,7.58-.58,43.77,3.82,44.46-4.99-2.54-7.12-11.23-18.9-18.89-20.62-6.93-1.56-24.24-2.7-31.67-2.49-17.56.5-35.38,10.64-52.63,3.79-1.87-9.98-.22-17.82,10.82-19.6,15.14-2.45,64.49-7.78,77.73-5.92,22.39,3.14,35.19,38.02,51.06,42.93,12.99,4.01,28.56-3.18,42.12-1.12Z"/>
  <path class="st0" d="M767.99,1360.02c-1.72-2.53-25.8-2.89-29.96-.99-3.36,1.54-21.59,19.01-25.06,22.94-6.7,7.6-20.09,31.85-27.03,35.05-9.65,4.44-19.78-6-12.83-16.92,7.77-12.22,43.95-56.39,54.96-63.03,15.93-9.62,47.3,1.24,66-4.28l26.93-30.76c3.27,9.04,18.58,12.15,14,21.93-2.07,4.42-20.25,21.22-24.95,27.07-21.55,26.81-47.86,62.21-71.95,86.05-10.66,10.56-27.31,19.47-29.82-1.67,10.2-11.99,18.51-25.47,28.7-37.46,4.82-5.67,35.12-31.9,31.02-37.95Z"/>
  <path class="st0" d="M2029.99,1208.01c2.42,29.68,36.31,27.8,58.98,25.96,8.83-.72,38.3-10.24,43.18-2.64,4.53,7.06,1.1,17.08-7.2,18.62-18.59,3.45-66.61,8.82-83.85,5.94-18.86-3.15-36.66-43.14-54.1-44.07-5.79-.31-33.72,5-37,2.16,4.2-6.94-1.28-15.65,1.29-21.49,3.17-7.2,32.14-3.79,39.68-4.52,28.32-2.73,51.4-4.55,80.01-5.99,11.92-.6,53.7-11.28,56.98,5.08.83,4.15,1.1,10.89-3.34,12.55-7.54,2.83-34.27,5.59-43.64,6.36-16.89,1.39-34.15-1.2-50.99,2.03Z"/>
  <path class="st0" d="M1209.52,1783.53c-4.21,3.72-14.22,3.77-17-3.05-2.55-6.26-5.84-33.35-6.49-41.5-.62-7.65,2.06-51.58-5.07-52.98-26.15,10.18-24.81,34.64-22.93,58.97,1.11,14.34,16,47.28-7.06,45.19-12.62-1.14-7.75-10.76-8.99-19.14-3.14-21.25-9.75-52.79-5.53-73.56,3.45-16.96,35.74-31.96,43.16-48.91l-1.6-42.54c6.23,4.13,14.81.39,20.66,2.32,8.59,2.85,4.55,30.1,5.35,38.65,2.64,28.23,4.56,51.44,5.99,80.01.59,11.79,8.89,48.25-.5,56.55Z"/>
  <path class="st0" d="M1692.67,1581.32c27.64,22.71,56.27,44.04,82.38,68.63,4.07,3.83,15.49,14.84,16.61,19.59,1.92,8.12-6.25,16.79-15.1,13.01-3.92-1.67-25.67-19.39-30.59-23.52-7.66-6.43-31.15-32.35-37.89-34.26-9.51-2.69-9.06,18.38-7.98,24.14,1.31,7.02,21.56,26.71,27.87,32.12,12.48,10.69,55.46,30.5,19.47,40.66-3.52-.55-49.81-39.07-55.48-44.66-26.65-26.29-11.55-33.2-13.91-64.1-1.78-23.35-19.09-25.46-32.03-41.93,8.09-3.66,9.85-14.76,18.86-15.1,2.28.22,20.18,16.82,24.13,20.16,1.71,1.44,2.33,4.18,3.64,5.26Z"/>
  <path class="st0" d="M1557.99,441.99c-7.98-5.26-22.61,4.53-25.58-5.41-2.17-7.26-.61-27.31-1.57-36.86-3.32-33.14-7.38-65.65-8.81-98.74-.29-6.68-1.05-30.41,2.46-34.48,5.23-3.45,16.97-4.64,19.12,2.9.68,16.68,5.11,33.07,6.4,49.64,1.03,13.26-3.24,29.28,2.08,42.9,4.54,3.1,22.28-12.99,23.52-17.34,1.48-5.17,2.68-25.52,2.48-31.68-.37-11.3-11.5-46.61-2.93-52.76,7.24-4.58,16.55-1.22,18.42,7.27l6.25,79.4c-2.34,19.03-24.73,28.6-35.87,42.13-15.3,18.58-4.16,31.39-5.97,53.04Z"/>
  <path class="st0" d="M1968.08,689.91c22.84,8.55,38.63-5.85,52.94-21.89,6.81-7.63,21.92-33.87,29.05-37.09,9.02-4.07,17.27,9.44,12.91,17.02-11.97,11.88-20.96,27.65-31.96,40.07-4.2,4.74-19.81,21.5-23.97,24.03-17.27,10.49-46.17-3.86-65.62,4.38-4.92,2.09-24.11,33.27-29.4,29.55-.41-9.72-17.45-10.68-11.85-20.63,4.15-7.38,17.81-19.01,23.75-26.42,16.98-21.19,30.96-36.96,49.09-56.91,8.47-9.33,29.94-41.86,41.97-41.89,5.09-.08,13.65,7.79,12.7,12.58-10.72,11.48-18.58,25.37-28.67,37.31-4.93,5.83-36.78,32.92-30.94,39.89Z"/>
  <path class="st0" d="M1798.15,1676.13c3.88-2.83,26.23,16.18,30.79,19.93,6.68,5.51,45.26,40.66,46.65,45.35l2.49,53.67-8,79.67c2.08,23.72,35.88,32.48,40.94,43.28,4.5,9.61-9.7,18.83-19.74,13.68-8.72-4.47-38.08-28.65-40.39-37.68l4.83-136.58-67.57-66.18,10.01-15.14Z"/>
  <path class="st0" d="M346.29,775.7c-6.13-32.28,33.2-21.69,52.73-27.72,15.73.14,16.06,9.68,23.95,18.04,26.85,28.45,55.02,55.71,81.06,84.94,30.26,2.78,60.66.54,90.73-2.5,8.54,3.76,1.97,13.73,6.94,20.61-.25,3.03-29.71,6.43-34.73,6.91-20.5,1.97-42.85,1.23-63.44,1.66-3.65-.85-34.86-29.61-39.59-34.59-15.31-16.13-41.07-56.67-57.29-66.71-19.93-12.35-40.51,4.61-60.38-.63Z"/>
  <path class="st0" d="M1211.09,1790.81c2.82.42,4.41,3.66,4.86,6.26,1.85,10.64,3.42,28.94,4.03,39.96.98,17.72-.31,35.83-.39,53.57-13.66,14.95-26.58,30.73-41.56,44.44-15.08,13.8-44.25,31.75-56.06,45.94-15.85,19.06,2.52,47.66-2.25,61.75-2.15,6.37-18.31,2.96-21.57-1.87-3.9-5.78-7.58-49.34-5.26-56.95,1.9-6.22,26.72-24.75,33.13-30.87,23.17-22.11,46-44.7,68.93-67.06.44-29.41-.03-59.12-3.04-88.9,1.45-8.47,12.74-3.55,19.17-6.26Z"/>
  <path class="st0" d="M2080.57,518.59c2.38-2.06,5.42-2.28,8.4-2.59,14.36-1.51,35.7-2.53,50.12-2.08,23.85.74,54.88,9,77.63,7.96,21.79-.99,32.01-27.71,44.62-41.67,10.61-.53,17.41,9.4,13.58,19.71-2.77,7.45-30.86,40.26-38.39,41.76-45.63-4.15-91.45-2.33-137.07-5.35-15.9,16.74-32.85,32.69-48.48,49.65-15.49,16.8-10.03,26.28-32.88,5.06,17.98-26.56,40.81-49.04,62.48-72.44Z"/>
  <path class="st0" d="M2388.01,1271.99c-.45,5.61,2.13,19.98-4.45,22.69-4.3,1.77-28.66,4.94-34.58,5.29-6.91.41-14.24.64-21.04-.95-9.4-2.2-9.3-9.17-14.91-15.04l-83.05-86.94-90.68,2.72c-4.93-1.66-3.27-16.26-5.24-21.67,32.97-5.57,66.6-7.86,100.06-5.2,29.66,20.75,49.53,50.4,72.86,77.14,6.44,7.39,19.11,24.42,28.15,25.85,18.02,2.85,35.12-4.5,52.89-3.89Z"/>
  <path class="st0" d="M1541.74,255.76l-18.5,2.1-2.88-3.23c-4.49-31.34-6.72-63.15-5.59-94.67,13.08-15.49,26.21-31.28,41.19-44.98,15.56-14.23,44.45-32.22,56.92-47.08,14.6-17.41,2.79-40.81,1.27-60.6,1.45-4.67,14.43-4.08,18.45-2.88,6.23,1.85,8.37,22.33,9.14,28.85,1.07,9.02,3.13,27.04-.92,34.59-3.14,5.87-25.4,21.87-31.89,28.1-23.09,22.17-46.26,44.46-68.54,67.46-.37,16.5-.93,33.17-.49,49.67.18,6.65,5.43,40.55,1.83,42.68Z"/>
  <path class="st0" d="M867.31,314.69c-1.36-1.65-4.5-2.06-6.2-4.75-4.97-7.87-3.72-52.98-3.19-65.02.95-21.31,8.79-53.87,5.91-73.75-3.34-23.09-35.42-29.43-40.89-41.2-2.88-6.21,6.91-13.23,12.23-13.98,7.1-1,18.59,8.71,24.67,13.18,6.33,4.66,22.09,17.02,23.74,24.25l-2.54,140.55,65.03,63.04-10.08,14.08c-2.68,1.88-4.96.52-7.45-.59-6.66-2.96-33.6-26.99-40.56-33.47-7.53-7.02-14.12-14.42-20.66-22.34Z"/>
  <path class="st0" d="M655.43,1529.41c-8.3,6.78-55.46,5.26-68.52,4.67-20.81-.94-54.42-9-73.79-5.95-20.55,3.24-33.2,39.79-40.49,41.69-5.43,1.41-14.44-9.97-14.68-15-.28-5.87,30.95-44.45,37.45-46.39l141.19,3.17,62.45-65.75c3.82-.39,18.15,9.98,16.74,14.8l-60.35,68.77Z"/>
  <path class="st0" d="M871.4,1148.4l153.59,3.6c11.36,1.14-.47,20.96-5.98,22-33.59-1.46-68.69,1.91-102.09.07-4.91-.27-28.55-7.03-28.87-1.09-.12,2.22,11.31,13.9,13.93,16.04,25.27,20.65,58.53,5.17,88.08,13.92,4.54,2.08-6.03,14.33-8.01,16.1-9,8.05-22.49,1.7-33.06.98-12.54-.86-30.14-.26-41.88-2.12-8.89-1.4-40.12-33.64-42.21-41.87-1.51-5.96.13-25.75,6.51-27.62Z"/>
  <path class="st0" d="M1241.5,524.48c2.26,3.06,2.32,6.81,2.58,10.43,2.12,28.93-3.01,59.42-4.17,88-.71,17.45,2.87,44.49.08,60.08-1.84,10.24-20.75-1.78-21.95-8.04,1.35-33.58-1.94-68.64-.12-102.04.28-5.18,6.66-25.81,1.03-26.93-39.84,19.71-22.46,66.47-28.96,102.01-28.12-6.07-19.43-20.46-18-41.01.84-12.03.25-42.07,5.17-50.83,1.69-3.01,32.82-31.62,35.35-32.65,8.29-3.36,20.67-1.75,28.99.97Z"/>
  <path class="st0" d="M924.02,790.01c-12.63,38.57,16.46,52.17,37.01,75.96,3.04,3.52,16.65,18.35,12.98,22.02-8.41-1.77-16.99,4.77-23.9-1.1-7.53-12.5-45.99-46.99-48.01-57.99-1.37-7.47-.94-41.59,1.23-48.58,1.93-6.21,16.15-19.34,21.98-19.92,7.55-.75,14.17,12.12,18.64,16.65,17.69,17.9,32.2,34.87,49.02,52.98,5.98,6.44,46.38,43.42,44.16,48.02-22.08,16.2-26.67-.67-39.08-13.1-20.33-20.37-40.67-38.01-60.01-59.99-2.39-2.72-9.91-17.87-14.02-14.95Z"/>
  <path class="st0" d="M1811.98,1258c3.63-14.02,1.41-30.45-6.31-42.67-7.57-11.98-20.21-20.25-29.72-30.28-3.24-3.42-18.36-20.14-15.95-23.03,8.13-1.03,17.3-4.64,25.11-.12l42.88,49.11c2.11,2.86,4.83,7.02,5.55,10.44,1.02,4.92-1.08,44.28-2.43,48.66-1.41,4.59-15.91,17.49-20.18,17.95-3.61.39-7.31-1.74-9.97-4.03-19.44-16.77-40.07-44.91-57.94-64.06-9.96-10.67-37.15-33.01-43.13-42.87-5.19-8.58,6.37-12.53,13.36-13.05,10.98-.83,17.9,14.37,24.69,21.01,20.73,20.27,40.41,38.16,60.01,59.99,4.49,5,5.86,14.38,14.03,12.96Z"/>
  <path class="st0" d="M1223.56,1356.49c2.62,3.41,6.53,19.69,1.33,23.41-26.41,21.37-47.58,48.67-72.87,71.12-3.71,3.3-19.02,11.16-18.02,15.94,17.06,8.46,35.97,1.29,50.01-9.95,7.32-5.86,38.79-43.82,45.9-38.97,2.04,6.97,4.27,18.9.22,25.09l-56.03,45.97c-14.53.06-46.68,4.96-58-4.22-3.53-2.87-12.65-15.23-12.16-19.82.71-6.78,20.83-20.69,26.14-25.99,18.38-18.37,34.84-32.69,53.95-50.05,9.24-8.4,24.13-27.53,32.96-33.22,1.96-1.26,4.92-1.46,6.57.68Z"/>
  <path class="st0" d="M1512.04,693.98c-9.59-23.23-2.11-22.78,11.01-35.93,25.67-25.71,50.33-52.57,78.91-75.05-40.94-20.65-64.41,30.07-93.26,48.76-6.06.57-8.87-22.69-2.73-26.81,23.76-13.01,42.79-47.95,71.09-47.06,8.65.27,26.07,1.01,33.82,2.22,7.31,1.14,23.43,18.68,20.19,25.81-2.66,5.86-21.51,19.62-27.05,25.08-18.17,17.91-35.28,32.82-54.04,49.96-8.66,7.92-22.57,25.75-30.87,31.13-2.42,1.56-4.01,2.54-7.06,1.88Z"/>
  <path class="st0" d="M1747,848l-3.08-5.01c10.67-25.63,29.82-14.71,51.1-13.01,12.61,1.01,26.63-1.85,38.82,3.18,4.21,1.74,34.07,32.84,35.27,36.73,1.73,5.59,1.79,26-3.03,29.18-53.38,3.2-106.71-1.97-160.13-4.02-3.73-2.3,2.39-13.35,4.33-15.78,2.67-3.34,4.6-4.47,8.85-5.15,9.21-1.46,26.63,2.02,37.97,1.96,10.12-.05,21.23-3.87,31.99-2.18l56.91,4.07c4.96-4.76-20.48-24.64-26.33-26.65-1.57-.54-13.91-3.34-14.66-3.34h-58Z"/>
  <path class="st0" d="M1544,1403l4.71-2.77c26.01,10.5,15.15,30.93,13.31,52.79-1.05,12.47,2.18,26.58-3.59,38.41-2.02,4.14-34.8,34.62-38.35,35.73-4.02,1.26-26.66-1.61-27.8-3.44l3.73-161.72c31.53.71,19.59,30.39,19.9,51.1.15,10.23,3.79,21.17,2.17,31.98l-4.07,56.91c14.58.42,29.99-26.74,29.99-38.99v-60Z"/>
  <path class="st0" d="M1153.99,469.99c-1.39,1.5-12.16-7.39-14.02-8.96-14.93-12.65-28.93-27.35-43.7-40.28-6.64-14.99,3.77-42.45-1.78-56.23-1.52-3.78-44.6-40.65-51.55-46.45-5.77-4.82-26.45-17.32-29.07-20.92-6.16-8.48,3.91-20.64,12.65-18.85,3.06.63,8.46,4.84,11.31,6.88,28.32,20.3,53.38,45.77,81.09,66.91,9.27,14.27-8.58,46.39,8.03,67.97,5.34,6.94,26.8,21.76,28.03,23.97,3.77,6.82-.99,18.52-.99,25.98Z"/>
  <path class="st0" d="M1910,1264.02l74.31-4.96c13.48,1.8,30.49,34,41.21,38.41,10.46,4.3,22.87-.79,33.5-1.45,14.2-.88,29.94-.75,43.95-2.05,15.55-1.45,42.21-15.38,36.98,10.98-1.44,7.24-8.95,7.75-15.17,8.82-35.34,6.12-72.09,6.39-107.71,10.2-11.34-2.18-27.49-39.31-50.01-42.02-13.89-1.67-27.86,2.02-41.67,1.68l-15.38-19.61Z"/>
  <path class="st0" d="M1127.99,1568.01l5.4,72.73c-1,2.8-2.12,6.41-4.03,8.64-7.26,8.46-24.46,19.35-31.41,27.56-9.28,10.97-2.74,25.72-1.97,38.07.91,14.46.76,29.54,2.05,43.95,1.49,16.69,15.61,41.59-10.59,38.65-6.68-.75-8.23-9.14-9.28-14.8-3.77-20.32-6.45-50.79-8.14-71.85-.95-11.84.11-23.97-1.96-35.81,1.33-9.69,16-16.53,22.99-23.11,10.02-9.44,17.63-16.41,19.02-30.98,2.26-23.6-12.24-42.07,17.91-53.07Z"/>
  <path class="st0" d="M823.99,785.99l-74.93,3.98c-19.78-9.6-28.18-40.56-52.06-40.13-16.93.3-40.68,2.6-57.96,4.2-9.37.86-30.66,7.14-38,6.09-8.29-1.19-9.54-19.38-.54-22.62l115.63-12.65c25.22,14.05,28.9,42.98,62.89,43.32,22.1.22,34.37-13.42,44.98,17.82Z"/>
  <path class="st0" d="M814,1238.02l-49.21,57.76c-3.52,2.23-23.89,2.44-29.82,2.38-13.97-.15-22-7.77-34.94,4.88-12.37,12.09-32.14,37.57-43.99,52.01-5.14,6.26-11.48,19.88-16.65,24.37-6.59,5.71-18.53-6.4-17.42-14.24.72-5.1,37.67-50.54,44.08-58.11,9.97-11.76,21.11-23.06,31.19-34.79,9.63-4.98,40.58,2.65,55.33-.69s28.17-31.22,35.44-34.54c8.1-3.7,17.55,1.64,25.98.98Z"/>
  <path class="st0" d="M1922.01,811.99l1.9-7.09,46.08-51.92c12.85-1.62,26.16-1.23,39.1-1.08,12.31.15,14.09,5.18,25.71-6.12l62.13-75.92c6.53-5.06,17.84,5.27,16.73,12.66-21.19,34.13-50.12,63.42-75.68,94.44-29.6,3.76-49.77-10.49-74.04,13.96-4.97,5.01-12.76,19.7-17.98,22.07-6.62,3.02-16.2-2.93-23.94-1Z"/>
  <path class="st0" d="M1632.28,254.27c5.28-2.28,16.68-4.4,20.78-.32,8.56,8.5,9.1,101.15,14.53,118.62-1.64,12.68-33.72,27.57-40.03,43.99-6.05,15.75-1.54,31.48-.4,47.53l-18.15,17.88-3.1-6.86-3.47-69.68c1.49-6.4,28.91-28.39,35.63-34.36,2.4-3.05,3.74-8.26,4-12.11.94-14.22-2.65-46.11-4.08-61.92-.65-7.17-7.8-39.41-5.7-42.76Z"/>
  <path class="st0" d="M1583,1578.04l55.96,50,.09,53.85c2.35,3.62,4.84,7.1,7.86,10.2,11.01,11.29,32.2,28.17,45.07,38.93,6.96,5.82,26.17,16.64,30.18,21.87,3.9,5.08-1.51,13.94-6.19,16.1-7.62,3.51-13.98-2.01-19.8-6.16-27.98-19.95-52.78-45.01-79.95-66.05-9.97-17.45,10.89-43.4-10.18-69.82-5.48-6.87-24.94-19.93-26.6-23.45-1.91-4.05.36-25.63,3.56-25.46Z"/>
  <path class="st0" d="M1129.42,1526.42c10.85-2.48,24.38-1.68,31.46,7.71,16.99,22.52-15.27,10.04-25.45,12.29-8.5,1.88-49.2,41.91-51.9,50.13-5.75,17.5,7.85,36.75-5.51,52.49-24.8,17.25-45.87,47.14-70.21,63.79-5.49,3.75-12.32,8.63-19.01,3.36-12.31-9.71,11.2-21.56,17.22-27.15,11.71-10.89,22.31-23.08,33.95-34.05,5.02-4.74,14.13-8.64,17.76-14.24,9.99-15.39-1.33-44.34,8.48-59.52,2.57-3.98,11.73-8.39,15.8-12.2,9.69-9.06,36.83-40.19,47.39-42.61Z"/>
  <path class="st0" d="M1890,1259c.9,4.17,42.98,47.34,48.56,49.44,15.45,5.82,35.03-6.37,49.35,2.65,19.71,22.97,43.99,43.67,63.11,66.89,6.51,7.91,16.19,17.32,7,27.05l-6.92,1.02-70.56-73.6c-15.67-6.71-42.6,2.71-56.69-7.31-5-3.55-10.15-14.11-14.83-19.17-8.65-9.36-34.94-31.64-38.52-41.47-5.3-14.57-.84-33.04,15.36-37.71l4.14,2.2c1.27,8.8-1.74,21.92,0,30Z"/>
  <path class="st0" d="M1143.45,268.36c17.77-5.15,10.65,14.61,10.47,22.56-.39,17.32.67,34.74.06,52.06-.63,17.85-8.87,23.09,4.07,39.97,6.85,8.93,26.6,23.31,28.05,33.94,1.1,8.04-2.02,14.78-2.19,22.03-.56,23.72,6.68,60.15-14.92,75.08-7.89,5.46-28.73,4.83-26.98-2.95.98-4.34,20.55-16.18,23.11-26.91,2.07-8.65,2.2-51.83.4-60.68-3.26-15.99-31.76-26.2-33.65-40.35,1.32-29.8-.44-62.58,2.13-92.07.61-7.03,1.8-20.46,9.42-22.67Z"/>
  <path class="st0" d="M757.42,1206.43l69.66,1.5c19.99-1,46.74,23.98,27.71,41.99-15.84-10.72-13.18-22.07-35.71-23.99-9.83-.83-47.43-1.43-55.18.96-12.68,3.91-23.1,30.8-37.01,32.99-29.87-.63-62.21.48-91.86-1.92-12.37-1-31.48-3.54-22.07-20.01,5.54-4.99,15.34-.1,21.95.12,16.64.54,33.41-.66,50.06-.06,7.83.28,19.34,4.43,27.06,3.2,17.63-2.82,30-27.62,45.38-34.79Z"/>
  <path class="st0" d="M1603,502c3.45-.89,45.84-42.44,47.49-46.51,6.03-14.88-4.38-41.27,5.82-54.18,24.33-18.29,46.43-48.07,70.7-65.3,8.69-6.17,16.32-9.97,22.7,1.42,2.09,8.29-14.32,16.48-19.74,21.55-12.37,11.57-23.63,24.41-35.95,36.05-3.91,3.7-10.27,6.53-13.8,10.2-13.26,13.81-5.57,38.89-8.34,55.67-1.52,9.2-11.94,12.45-17.9,18.09-11.08,10.47-33.42,37.11-45.93,42.06-16.51,6.53-37.78,1.27-38.04-19.04,9.13-1.53,24.91,2.1,33,0Z"/>
  <path class="st0" d="M1575.44,1530.41c3.52-.47,18.51,3.6,18.52,6.59l-23.55,24.41c2.91,20.19-8.12,55.53,2.67,72.51,6.77,10.64,29.64,19.3,30.95,35.03-4.09,32.14.39,66.04-4.21,97.88-1.41,9.72-8.09,18.89-17.86,12.21l-2.07-5.91,3.64-95.67c-2.63-12.75-25.23-27.14-32.43-39.54-5.85-10.08.3-37.94,1.01-50.85.64-11.86-2.75-22.62.31-35.64,1.59-6.74,16.35-20.12,23.02-21.01Z"/>
  <path class="st0" d="M2009.45,788.47c33.3,3.57,70.46-1.63,103.08,4.01,10.87,1.88,16.31,10.82,8.19,19.25l-101.31-3.29c-16.05,5.12-32.19,35.41-48.35,35.63-11.97.16-29.49-3.43-42-4.16-20.36-1.19-33.4,7.32-49.1-12.85-5.53-7.1-8.21-11.44-5.04-21.14,6.31-19.33,21.2,15.45,30.5,15.68,20.28-2.77,53.15,8.07,70.5-2.66,11.68-7.22,18.58-27.35,33.53-30.46Z"/>
  <path class="st0" d="M676.49,644.5c1.49-1.51,4.44-2.07,6.56-2.4l70.2,73.65c15.44,7.66,34.13,1.91,49.63,4.37,11.37,1.8,17.08,16.29,24.09,23.91,15.53,16.87,55.47,44.03,34.08,70.03-2.66,3.23-12.32,11.8-16.13,6.03-3.01-12.6,4.88-21.1-2.09-33.92-2.88-5.3-24.8-27.18-30.79-33.21-5.27-5.31-11.23-11.98-18.96-13.04-14.48-1.98-35.97,4.44-48.09-3.91l-68.71-75.27c-3.07-3.92-3.18-12.79.21-16.23Z"/>
  <path class="st0" d="M545,1078l3.06,4.97-2.38,14.69c-2.72,4.25-35.8-4.58-42.15,4.32l-77.65,94.92c-9.87,7.99-61.45-.42-76.4-.89-3.73-2.04-4.67-10.02-1.69-13.19,6.54-8.08,55.93,3.83,68.17-1.85l74.03-97.97c1.27-1.24,6-5,7-5h48Z"/>
  <path class="st0" d="M528.49,418.5c3.46-3.35,8.66-2.92,12.61-.63,9.91,5.76,32.25,41.3,40.31,43.71l127.43-15.52c3.98.23,6.3,2.74,9.2,4.9,4.2,3.12,25.47,24.07,28.06,27.94,5.22,7.81-9.27,16.47-14.71,14.85-7.3-2.17-13.44-25.52-30.33-25.8-32.96,3.28-69.3,10.49-102.08,12.03-10.3.49-23.16,2.11-31.07-4.89-6.81-6.03-28.88-31.44-34.74-39.26-3.23-4.31-9.95-12.23-4.68-17.32Z"/>
  <path class="st0" d="M1314,201c-1.71,5.5-15.34,2.33-19.56.54l-2.34-38.64c-27.27-24.92-61.69-46.53-88.13-71.87-6.42-6.15-11.18-8.69-12.09-17.91-1.96-19.79,3.9-41.51,2.57-61.68.37-7.32,10.67-10.04,15.69-6.57,6.03,4.18-4.35,58.74.88,69.11,18.98,11.94,37.12,25.38,54.82,39.18,6.82,5.32,48.17,37.54,48.17,41.83v46Z"/>
  <path class="st0" d="M2001.34,1554.29c6.61-.66,18.36,27.28,29.57,25.8,31.11-1.32,63.3-7.93,94.11-10.06,6.23-.43,30.31-1.97,34.57-.77,3.11.88,5.17,2.58,7.53,4.63,6.95,6.03,28.57,31.11,34.82,39.18,1.65,2.13,5.16,6.25,5.71,8.46,1.6,6.44-5.17,14.52-11.61,11.55-11.76-5.43-33.86-46.09-47.14-47-34.04,7.96-68.96,10.86-103.66,14.17-10.98,1.05-16.67,7.24-27.35-1.15-3.67-2.88-5.21-7.61-7.91-10.08-5.86-5.36-26.46-18.25-21.02-27.02.71-1.14,10.97-7.57,12.37-7.71Z"/>
  <path class="st0" d="M1965.48,184.3c1.73-.34,3.37-.6,5.09,0l4.45,3.71-.03,9.98-41.88,36.13-3.03,7.06,15.51,127.43c-14.05,10.43-37.21,57.25-47.37,20.82,4.72-8.53,16.84-12.83,21.79-20.4,7.7-11.78,1.06-21.74.03-34.04-.99-11.79-.98-24.31-2.05-35.95-2.07-22.41-8.26-44.86-5.57-67.61,1.13-3.82,48.64-46.24,53.07-47.11Z"/>
  <path class="st0" d="M825.35,1644.29c4.29-.39,11.21,10.34,12.44,14.42-8.38,12.12-25.16,15.48-25.94,32.25-1.19,25.45,8.29,63.3,10.13,90.05.64,9.23,2.4,33.41-1.97,40-3.28,4.93-40.21,38.03-46.13,41.88-9.49,6.18-18.32-3.16-14.94-10.82,2.41-5.45,33.98-27.66,40.84-35.3,11.91-13.24,2.5-21.21.43-35.99-4.53-32.32-6.4-65.13-11.9-97.32.75-4.26,33-38.82,37.03-39.18Z"/>
  <path class="st0" d="M1422,1847c1.76-5.95,15.33.79,20.01-1.01,2.52,13.45-6.46,27.85,1.08,39.91l86.93,71.07c6.9,7.14,15.56,12.66,14.12,24.01-4.38,18.36.62,42.12-4.57,59.59-2.62,8.82-17.86,7.32-17.59-5.53.27-12.82,3.55-29,4.1-41.96,1.06-25.05-14.02-24.76-31.87-38.29-24.55-18.61-48.4-38.25-72.21-57.79v-50Z"/>
  <path class="st0" d="M2188,970l2.22-19.77c14.06-2.51,27.81,6.84,40.49-2.52l79.4-96.6,5.31-2.68,69.28,3.87c5.87,1.85,5.59,17.64-5.61,17.81s-28.38-3.59-40.11-4.07c-5.27-.22-14.44-1.05-18.96,1l-73.14,96.86c-1.27,1.66-6.55,6.11-7.89,6.11h-51Z"/>
  <path class="st0" d="M1473.99,195.99c-8.79-3.57-12.11-1.43-19.98,2-.18-11,.17-22.05.08-33.07-.03-4.3-2.19-8.32-2.15-11.98.15-11.39,26.95-35.66,36.03-43.97,17.69-16.18,50.95-37.62,64.85-55.15,13.35-16.85,8.83-28.04,7.17-47.83l18.08.93c4.95,3.27,6.04,39.58,2.77,46.93l-103.77,94.22c-6.95,10.56-1.18,34.99-3.08,47.92Z"/>
  <path class="st0" d="M538.01,917.99l1.98,20c-11,.13-22.05-.09-33.07-.08-8.39,0-11.3,4.36-20.77-1.08-32.32-18.55-63.43-77.48-94.25-101.74-13.17-8.61-27.55-4.24-41.9-3.09l.97-18.03c3.06-5.18,40.86-7.04,47.77-1.71,20.43,21.19,38.44,46.31,58.23,67.76,5.96,6.47,30.64,33.05,35.92,36.08,8.24,4.73,43.28.03,45.12,1.88Z"/>
  <path class="st0" d="M856,365.98c-2.24.43-6.02.89-7.54,2.48-2.59,2.7-.86,11.42-5.42,9.53-3.56-1.47-8.32-10.71-11.93-14.08-6.7-6.23-22.77-14.72-24.67-23.33-4.55-20.6.36-43.27,1.56-63.6s5.98-53.93,4.02-71.99-15.99-25.5-27.97-35.99c7.63-5.9,8.33-17.29,19.84-9.91,4.53,2.91,26.58,22.48,27.72,26.32,1.43,4.81.6,15.9.39,21.57-1.36,36.42-11.43,86.84-5.87,121.91,1.63,10.26,32.89,33.11,29.88,37.09Z"/>
  <path class="st0" d="M2245.43,1134.59c-15.12-8.08-33.03-3.39-49.42-4.61,2.14-7.42,3.66-11.76-2.01-17.97,15.37,3.25,39.91-6.07,53.49-.51,5.96,2.44,24.32,20.75,29.54,26.47,21.77,23.86,41.34,52.4,65.11,74.89,12.14,8.78,28.13,4.6,41.93,3.98,3.31,2.42,2.77,14.98.13,18.35-2.15,2.75-25.52,4.78-31.11,4.91-6.83.16-12.51.58-17.78-4.41l-89.88-101.1Z"/>
  <path class="st0" d="M1943.42,1889.38c-3.26,2.64-7.52,3.42-11.37,1.66-2.33-1.06-22.87-20.02-25.09-23-1.78-2.39-4.02-4.35-4.59-7.5l7.67-137.58c-1.59-13.47-22.1-25.27-29.99-36.07l9.97-14.88c3.81-2.86,11.33,10.73,13.89,13.08,8.45,7.75,23.1,13.98,25.62,26.38,1.99,9.79,1.02,32.67.44,43.52-1.35,25.01-8.11,57.75-7.97,82.01.12,21.93,13.05,29.32,27.91,42.22.22,1.08-5.47,9.33-6.5,10.16Z"/>
  <path class="st0" d="M2026.04,511.99c-.57-7-7.02-8.19-12.03-10.98,12.16-7.99,26.85-35.04,39.85-38.15,10.16-2.43,33.8-1.42,45.12-.84,24.36,1.25,56.39,8.11,80.01,7.97,20.91-.13,32.18-11.26,42.17-28.14,4.02-.82,13.91,8.79,14.62,11.56,1.11,4.34-14.88,22.65-18.77,26.61-6.22,6.34-10.17,10.25-19.93,10.05-20.24-.41-44.97-5.08-66.01-6.15-22.56-1.14-45.46-.67-68.04-1.88l-37,29.95Z"/>
  <path class="st0" d="M720,1546.02c.82,3.05-.84,3.33-1.98,5.01-2.91,4.3-16.48,18.38-21,23-3.76,3.85-9.12,10.38-14.44,11.56-26.02,5.75-62.61-1.9-89.6-3.56-13.07-.81-34-3.42-45.98-2.02-14.95,1.75-27.07,14.8-33.03,27.99-30.95-11.5,1.14-36.23,15.46-47.57,48.94-.45,97.73,9.36,146.54,4.54l31.05-28.95c3,5.49,5.84,10.37,12.99,10.01Z"/>
  <path class="st0" d="M1279.99,1852.01c-3.17,15.71,6.82,41.04-.24,54.74-2.64,5.12-25.84,26.92-31.72,32.28-17.69,16.13-53.33,39.67-66.85,57.15-10.69,13.83-8.15,29.54-5.19,45.81l-19.71-.27c-1.99-1.24-6.66-41.32-2.03-46.47l102.88-93.12c9.11-11.03,3.19-34.47,4.85-48.15l18-1.98Z"/>
  <path class="st0" d="M511.99,1372.01c1,4.67-.57,3.21-2.57,4.48-22.8,14.5-45.73,11.35-72.18,7.27-17.29-2.67-21.82-6.35-33.19-18.81-9.43-10.34-56.3-70.63-57.92-80.07-.71-4.14.1-8.67-.12-12.86l9.98,5,64.18,81.82c29.97,6.39,61.19,11.2,91.82,13.18Z"/>
  <path class="st0" d="M1616.01,2045.99c-.94-6.17,4.87-10.26,9.04-13.94,22.95-20.29,53.06-37.15,75.67-58.53,9.32-29.54,9.58-62.84,16.27-93.5,3.09,5.1,8.73,11.93,10.81,17.19,4.25,10.77.65,50.94-2,63.6-3.59,17.17-12.21,22.76-24.84,33.16-9.85,8.11-64.64,50.69-72.07,51.93-4.12.69-8.69-.12-12.88.1Z"/>
  <path class="st0" d="M1724,171.98c3.73-5.9,3.12-13.21,5.56-19.42,4.04-10.26,49.25-47.93,59.89-50.11,5.24-1.07,12.1-.7,17.53-.42,13.54.68,89.41,10.4,96.93,15.06,3.55,2.2,6.66,7.17,10.05,9.91-3.43,4.45-9.9,3.28-14.93,2.96-27.4-1.74-58.74-10.35-86.06-11.92-4.53-.26-9.07-.4-13.56.39l-75.41,53.56Z"/>
  <path class="st0" d="M1119.99,4.01c2.32,1.96-7.42,10.57-9.03,11.95-24.16,20.48-52.05,37.31-75.63,58.58l-4.88,8.91c-2.02,26.72-8.57,52.86-10.44,79.58-.21,2.97,1.55,5.79-2.97,4.95-2.11-4.43-6.66-9.49-8.49-13.52-6.02-13.21-2.65-43.78-.3-59.23,3.59-23.54,7.88-25,24.85-39.15,11.37-9.49,56.86-46.91,66.99-51.01,6.24-2.53,13.46-.5,19.91-1.06Z"/>
  <path class="st0" d="M2262.01,1569.99l11.52-112.54-53.52-75.44c6.07,2.47,14.39,2.9,19.98,5,8.53,3.21,39.68,39.88,44.87,49.13,5.42,9.66,5.58,15.93,5.11,26.84-.88,20.77-6.94,72.28-12.5,91.48-1.93,6.67-7.29,16.5-15.46,15.52Z"/>
  <path class="st0" d="M822.01,1920.02c3.2-4.42,50.37,4.73,59.25,5.72,21.67,2.42,47.01,9.95,65.4-2.09,21.04-13.77,41.71-33.92,63.33-47.65-1.29,26.69-21.48,40.99-41.03,55.95-19.68,15.05-24.05,15.85-49.91,14.02-27.55-1.95-57.85-9.27-85.56-12.44l-11.46-13.51Z"/>
  <path class="st0" d="M471.98,478.01l1.89,10.67-12.64,100.92,3.85,10.33,50.9,68.08c-5.37-3.65-12.29-2.91-17.97-5-12.25-4.51-34.76-31.56-42.85-43.16-10.78-15.47-10.42-23.96-9.14-42.81,1.31-19.31,6.72-68.61,12.5-85.5,1.85-5.39,7.15-12.9,13.45-13.52Z"/>
  <path class="st0" d="M2387.99,775.99c-3.68.45-6.34-1.88-8.8-4.18-19.21-17.98-37.99-54.35-57.25-74.75-14.71-15.58-29.82-10.24-48.71-13.29-17.05-2.76-33.83-7.81-51.22-8.76,8.94-4.72,16.62-11.81,26.98-13.01,9.46-1.1,27.97.83,38,2.01,24.02,2.82,28.73,2.81,44.96,21.04,9.17,10.31,54.74,68.76,56.14,77.85.62,4.01-.52,8.9-.1,13.08Z"/>
  <path class="st0" d="M1612.18,1157.82c2-9.71-9.46-15.55-11.24-19.86-1.1-2.65,1.26-6.2-.38-11.35-2.42-7.59-18.84-27.46-26.93-29.27-17.61-3.93-16.23-4.59-32.27-11.68-9.06-4-16.9-6.79-26.42-9.61-2.87-.85-3.53,1.22-2.92-4.01,8.01-2.63,16.59-2.42,24.98-2.01,10.06.49,48.92,4.27,54.9,9.09l43.69,54.31-1.45,25.74-21.95-1.35Z"/>
  <path class="st0" d="M1126.59,1115.37c5.6,3.15,29.54,7.22,35.89,6.22,9.33-1.47,10.6-7.94,16.96-11.14,14.46-7.27,38.13-9.2,52.54-20.44.5,3.69-2.04,6.29-4.02,8.96-4.86,6.59-47.21,43.18-53.38,44.61-11.09-.14-22.53-.7-33.58-1.59-9.17-.74-33.25-2.55-40.51-5.49-4.03-1.63-17.38-14.81-16.28-19.09.66-2.57,14.34-13.44,16.75-13.44,3.17,0,6.45,4.66,10.43,5.64,3.66.9,8.05-.36,11.34.73,2.5.82,2.76,4.43,3.85,5.04Z"/>
  <path class="st0" d="M1504.02,958c-.5-3.69,2.04-6.29,4.02-8.96,5.55-7.52,47.94-43.68,55.41-44.64l67.14,6.03c4.58,1.02,19.07,14.22,19.52,18.67.5,4.9-10.75,14.52-15.18,14.97s-9.01-3.55-13.31-4.71c-2.92-.79-6.29,1.02-8.24.35-3.03-1.04-2.88-5.59-8.34-7.73-7.33-2.88-28.45-5.37-35.99-3.92-5.64,1.08-8.23,7.78-13.61,10.39-14.7,7.12-36.97,8.94-51.41,19.57Z"/>
  <path class="st0" d="M1459.58,1265.59c2.95-3.18,5.28-34.49,4-40.17-1.55-6.85-8.54-9.34-11.06-14.94-1.81-4.01-1.79-9.81-3.59-14.41-4.76-12.15-9.92-24.04-14.91-36.07,1.69-1.8,15.16,10.01,17.04,11.94,5.99,6.16,35.14,42.09,36.19,47.99l-5.34,64.95c-1.36,8.86-13.15,16.6-19.17,22.96-3.26.57-16.16-14.59-16.15-16.86,0-1.36,4.25-4.93,5.03-8.4.95-4.26-.72-12.16,1.29-14.74,1.47-1.88,5.69-1.19,6.68-2.26Z"/>
  <path class="st0" d="M1319.98,1168c4.9,17.71.24,35.44-1.97,53.01-1.08,8.58,2.08,18.17-4,26l-52.05,43.95c-8.19.56-30.42,5.64-29.85-5.66.99-19.62,3.51-13.97,15.76-20.43,9.06-4.77,10.09-4.24,18.14-7.7,14.48-6.23,32.81-21.4,29.25-38.74l24.72-50.42Z"/>
  <path class="st0" d="M1414,843c.05-.91,1.87-3.3,2.08-5.92,1.04-12.72-1.67-28.03,7.85-38.15,4.26-4.52,48.77-41.03,51.96-42.04,6.73-2.14,15.75-.66,22.83-.61l2.99,3c2.54,22.05-.83,17.59-14.43,25.01-11.58,6.32-6.59,3.36-17.12,6.69-6.88,2.18-28.08,19.2-29.75,26.44-3.88,16.88-3.68,14.82-10.17,29.83-3.81,8.81-7.68,22.68-11.76,30.21-1.28,2.37.06,3.33-4.48,2.55.51-12.26-.69-24.74,0-37Z"/>
  <path class="st0" d="M1123.6,892.42c1.07,1.56.46,6.14,1.9,9.04,1.94,3.9,7.47,7.05,8.16,9.95,2.8,11.7.61,13.38,10.38,25.55,13.95,17.36,13.27,11.12,30.48,15.52,4.86,1.24,19.48,10.88,26.13,13.87,7.59,3.41,15.75,5.37,23.33,8.65-2.27,3.33-5.47,2.86-8.88,3.12-13.71,1.04-37.96-.54-51.85-2.36-5.75-.75-16.25-2.72-20.62-6.39-5.57-13.22-39.7-41.67-42.21-52.78-1.8-7.99.41-18.26-.43-26.59,4.8.28,21.13-1.2,23.61,2.43Z"/>
  <path class="st0" d="M1281.73,781.85c-.71.73-4.53-.95-5.83,1.42-2.31,4.2-6.34,30.12-5.77,35.5,1.21,11.51,6.92,9.98,10.51,15.78,5.13,8.3,9.57,31.22,14.99,42.82,1.81,3.86,4.1,7.09,6.37,10.61-4.01,1.05-5.44-1.35-8.08-2.9-7.47-4.4-35.17-36.82-40.78-45.22-2.26-3.38-4.24-6.99-5.06-11.04,4.37-18.38.14-54.74,6.95-70.79.97-2.29,15.65-16.1,17.97-16.1,4.5,1.34,14.18,10.94,14.58,15.38.34,3.74-4.13,8.06-5.15,12.13-.86,3.44.24,11.44-.7,12.41Z"/>
  <path class="st0" d="M1939.52,1194.5c1.99,2.31,4.04,13.96.53,16.56-14.82,9.07-33.1,2.97-49.09,4.9-23.16,2.79-30.88,34.76-50.94,42.04.35-7.65-.5-15.45-.12-23.1.19-3.93,3.59-6.6,3.22-8.99-.6-3.85-14.45-24.61-13.1-25.89l82.91-8.09c5.97.76,22.86-1.77,26.6,2.58Z"/>
  <path class="st0" d="M1601.99,551.99c-3.08,2.73-29.34-2.48-34.8-1.97-5.97.55-22.11,12.75-23.16,11.98-1.53-7.53-3.1-15.37-4.01-23.01-1.8-15.11-3.43-34.88-3.99-50.01-.25-6.56-1.41-33.13,1.96-35.99,1.59-1.35,8.74-3.23,10.98-3.01,15.5,1.56,8.12,48.58,12.55,59.51,4.27,10.53,29.62,26.21,37.5,36.5,1.54,2.01,3.88,2.54,2.98,6Z"/>
  <path class="st0" d="M1163,1498c.55-.01,1.82,1.74,4.97,1.2,3.88-.67,21.86-13.13,24.01-11.2,2.08,18.19,4.71,36.75,6,55.02.9,12.76,3.63,34.45,2.11,46.07-1.22,9.37-10.4,11.81-18.13,7.93-9.23-4.64-4.85-38.22-5.97-48.02-2.29-20.06-28.02-30.54-39.01-44.99-1.53-2.01-3.87-2.51-2.99-6.01,9.64-.16,19.34.22,29,0Z"/>
  <path class="st0" d="M1197.99,522.01c2.23,1.99-13.62,17.04-15.9,19.13-2.63,2.41-6.81,2.29-8.25,4.18-2.62,3.45-5.48,18.47-7.65,23.93-.81,2.04,1.08,3.43-3.15,2.73-19.41-16.43-40.51-31.56-59.07-48.95-8.81-8.25-30.03-23.51-13.03-33.17,12.26-6.97,30.23,18.93,38.06,26.14,17.45,16.04,47.42,4.36,68.98,6.02Z"/>
  <path class="st0" d="M1869.99,853.99c-3.29,3.69-22.85-22.11-25.23-23.75-6.98-4.81-17.95-3.69-24.71-9.23-.19-4.19,46.32-57.92,52.92-65.04,7.75-8.34,18.83-22.88,29.19-9.12,8.72,11.58-21.9,33.65-28.15,42.16-12.93,17.58-2.41,44.6-4.02,64.98Z"/>
  <path class="st0" d="M894,819c0,.75-2.4,2.43-1.7,5.48.8,3.48,11.18,18.52,11.54,20.74.4,2.44-1.12,3.63-3.15,4.47l-103.36,6.39c-18.23-34.06,37.48-19.39,54.58-25.17,15.03-5.08,27.18-33.96,42.09-40.91-.08,9.64.11,19.34,0,29Z"/>
  <path class="st0" d="M869.96,1194.01c.33.29.36,3.52,1.94,4.98,4.75,4.39,16.16,18.55,18.21,19.88,5.6,3.64,19.43,4.76,25.87,8.1l-68.04,80.04c-4.18,2.74-13.02-1.03-14.94-5.01-7.64-15.82,26.31-34.67,32-48.01,7.71-18.09-1.13-39.98.99-58.99l3.97-.99Z"/>
  <path class="st0" d="M1645.6,1559.57c-14.59,8.52-37.02-28.96-50.71-33.47-19.36-6.38-39.33,3.28-58.88-1.1,6.28-5.66,11.66-12.47,17.89-18.15,2.54-2.32,6.54-2.3,7.59-3.36,2.52-2.55,6.14-27.51,9.51-27.46,27.51,23.19,58.34,44.63,80.73,72.62-.08.76-5.59,10.6-6.13,10.92Z"/>
  <path class="st0" d="M1869.99,85.99c-29.91-.25-63.08-7.63-93.04-4.04-8.76,1.05-14.05,7.34-20.93,12.05-3.16-4.24,9.84-26.96,13.97-31.01,9.64-4.65,69.57,1.76,82.07,5.95,7.21,2.41,15.87,9.2,17.93,17.05Z"/>
  <path class="st0" d="M1057.99,4.01l-2.06,6.93c-14.34,10.45-64.09,48.6-69.02,62.98-1.77,5.16-.02,15.02-4.89,18.07-2.92-10.57-14.95-28.07-6.9-37.88,5.94-7.24,27.74-25.74,35.92-32.07,14.48-11.2,27.45-21.72,46.95-18.03Z"/>
  <path class="st0" d="M1759.4,1995.43c-18.96,13.46-50.32,52.11-74.45,50.71-7.61-.44-11.82-1.85-5.46-8.22,16.67-16.7,53.91-38.04,66.56-58.86,3.62-5.95,4.1-14.25,3.97-21.05,9.22,5.37,15.9,29.33,9.38,37.43Z"/>
  <path class="st0" d="M433.98,1408.03c-.07,2.63-5.41,4.44-7.57,5.39-7.21,3.18-20.46,8.84-27.53,4.69-18.97-25.65-55.93-48.68-52.88-84.1,3.85-.69,5.41.63,8.12,2.86,5.08,4.18,15,20.57,20.84,27.16,7.14,8.05,28.94,33.43,36.02,37.98s15.33,3.55,23,6.01Z"/>
  <path class="st0" d="M2387.99,715.99c-3.53.72-4.92-1.82-7.02-3.96-14.52-14.91-44.7-61-62.5-67.5-6-2.19-12.41-1.97-18.47-3.52,7.87-7.07,27.76-14.49,37.11-9.11,7.98,11.79,19.93,20.35,28.83,31.16,12.43,15.1,26.01,32.23,22.05,52.93Z"/>
  <path class="st0" d="M980,1956.02c-3.52,9.78-8.71,30.83-21.18,31.97-4.51.41-8.98-2.01-13.74-2.08-16.43-.24-75.34,1.25-79.11-20.89-.75-4.39,2-3.1,5.08-3.1,7.84,0,17.94,3.47,25.98,4.05,12.88.93,57.12,3.96,66.41.47,3.33-1.26,14.7-12.22,16.56-10.42Z"/>
  <path class="st0" d="M436,635.98c-2.65,2.08-25.6-8.92-28.54-11.89-6.93-7.03-1.52-15.2-1.38-23.01.34-19-.37-42.18,5.55-60.44,2.74-8.46,9.57-12.22,15.36-18.6,6.13-.14-.68,28.55-.98,32.98-.99,14.82-4.48,55.98.86,67.1,2.38,4.95,7.35,8.49,9.12,13.86Z"/>
  <path class="st0" d="M2327.49,1424.5c6.93,7.2-.31,71.7-3.98,84.01-1.2,4.03-14.86,20.59-17.5,17.48.32-29.32,8.09-64.03,4.08-93.08-1.05-7.59-7.56-12.13-10.09-18.89,3.04-2.21,25.17,8.07,27.49,10.48Z"/>
</svg>