<?xml version="1.0" encoding="UTF-8"?>
<svg id="Layer_0_xA0_Image" xmlns="http://www.w3.org/2000/svg" version="1.1" viewBox="0 0 2732 2048">
  <!-- Generator: Adobe Illustrator 30.2.1, SVG Export Plug-In . SVG Version: 2.1.1 Build 1)  -->
  <defs>
    <style>
      .st0 {
        fill: #6b74b7;
      }
    </style>
  </defs>
  <path class="st0" d="M1245.01,138.83c27.25-2.7,53.19-5.27,79.14-7.84.14-.73.27-1.46.41-2.19-4.99-2.23-9.97-4.48-14.97-6.69-5.48-2.42-10.99-4.8-16.48-7.2-5.19-2.27-10.38-4.53-15.57-6.8-5.49-2.4-11.37-4.19-16.37-7.37-4.23-2.69-11.64-.43-13.23-7.53,19.1-3,37.72-5.91,56.34-8.83-17.02-11.12-35.28-18.72-54.56-29.15,4.06-1.59,5.69-2.76,7.35-2.8,39.65-.89,79.31-1.66,118.96-2.41.94-.02,1.89.39,3.29.7,0,11.88.18,23.73-.05,35.58-.29,15.33-.87,30.65-1.43,45.97-.15,4.16.46,7.5,4.06,10.5,20.47,17.04,40.72,34.36,61.24,51.76-.89,11.29-43.66,174.12-48.33,181.81-1.26-2.95-2.52-4.98-3.01-7.17-7.33-32.82-14.58-65.65-21.81-98.49-6.16-27.96-12.25-55.94-18.41-83.9-.54-2.43-1.44-4.78-2.88-9.45-24.65,73.18-47.4,144.6-72.74,215.46-5.66-28.1-8.03-56.34-11.59-84.41-3.56-28.08-6.64-56.22-9.84-84.34-3.22-28.33-6.34-56.68-9.52-85.2Z"/>
  <path class="st0" d="M889.66,1465.95l-107.69,168.7c.5.59,1,1.18,1.5,1.77,66.9-33.72,133.81-67.44,200.16-100.88,1.33.93,1.71,1.07,1.83,1.32.12.27.11.75-.06.97-52.37,66.38-104.77,132.74-157.39,199.41-21.27-17.45-41.93-34.39-62.58-51.32-.61.41-1.21.83-1.82,1.24,10.4,26.53,20.8,53.06,31.92,81.45-17.33-12.56-32.73-23.74-48.14-34.91-.64.39-1.29.78-1.93,1.17,6.3,18.6,12.6,37.2,19.57,57.77-3.56-1.61-5.45-1.95-6.61-3.06-28.93-27.59-57.79-55.26-86.64-82.93-.47-.45-.72-1.11-2.33-3.64,1.78-1.12,4.3-2.19,6.18-3.95,17.73-16.64,35.29-33.47,53.07-50.07,3.63-3.39,5.8-6.63,5.3-12.01-2.44-26.18-4.5-52.39-6.8-79.89,26.2-15.46,53.04-31.4,79.99-47.16,26.76-15.65,53.26-31.79,80.3-46.95.72.99,1.44,1.98,2.16,2.97Z"/>
  <path class="st0" d="M2232.31,1250.34c-8.06,26.7-15.6,51.68-23.15,76.66l2.18,1.31c20.29-19.54,40.57-39.09,60.86-58.63.38.34.76.68,1.14,1.02-4.51,18.54-9.02,37.08-13.54,55.62.55.44,1.09.88,1.64,1.32,7.78-6.26,14.96-13.28,22.58-19.75,7.51-6.39,14.34-13.64,23.44-18.64-5.08,20.78-13.8,40-21.25,59.67-7.51,19.83-15.33,39.54-23.26,59.9-16.52-7.35-31.97-14.22-47.42-21.1-9.13-4.07-18.36-7.92-27.32-12.33-4.68-2.31-8.49-2.08-13.09.34-23.26,12.24-46.69,24.17-70.83,36.6-48.51-36.75-97.35-73.75-146.15-110.81-.6-.45-.58-1.72-1.34-4.26,34.05,4.81,66.79,11.58,99.7,17.17,33.09,5.62,66.1,11.77,99.14,17.68.36-.62.72-1.24,1.08-1.85-57-49.09-114-98.17-171-147.26.45-.83.9-1.67,1.35-2.5,81.66,23.25,163.31,46.5,245.23,69.83Z"/>
  <path class="st0" d="M571.88,1272.42c12.54-3.84,177.87-26.24,184.79-24.86-.78,4.24-4.63,5.45-7.4,7.39-49.14,34.4-98.33,68.72-147.5,103.08-2.88,2.01-5.62,4.22-8.43,6.34.21.66.42,1.32.62,1.98,74.66-5.55,149.31-11.09,223.97-16.64.27.89.55,1.78.82,2.67-36.84,20.89-73.96,41.28-110.95,61.9-37.17,20.72-74.37,41.41-111.55,62.11-12.96-24.22-25.45-47.55-37.93-70.88-.71.13-1.42.25-2.13.38-.32,14.4-.62,28.8-.95,43.2-.32,13.99-.68,27.99-1.06,43.67-11-17.88-20.96-34.08-31.68-51.5-3.46,7.62-2.09,14.22-2.71,20.52-.66,6.63-.99,13.29-1.43,19.94-.43,6.52-.8,13.05-1.31,21.34-2.56-2.14-4.13-2.83-4.64-3.98-16.19-36.54-32.28-73.13-48.34-109.72-.37-.85-.26-1.91-.45-3.51,2.32-1.01,4.63-2.11,7.01-3.03,21.77-8.33,43.46-16.9,65.4-24.78,6.95-2.49,10.74-6.14,12.89-13.36,7.24-24.21,15.25-48.19,22.96-72.27Z"/>
  <path class="st0" d="M747.8,868.53c-81.69-23.26-163.38-46.52-245.22-69.83,8.04-26.51,15.8-52.11,23.57-77.71-.57-.35-1.13-.71-1.7-1.07-20.58,19.82-41.15,39.64-63.45,61.11,5.11-21.23,9.62-39.93,14.12-58.63-.59-.35-1.18-.7-1.78-1.05-15.04,12.99-29.66,26.51-45.98,38.45,13.76-40.6,29.07-80.03,44.7-119.61,25.03,11.19,49.13,21.68,72.95,32.79,6.15,2.87,10.86,2.46,16.67-.63,22.58-12,45.41-23.51,68.2-35.23,18.35,11,143.79,106.96,148.66,114.53-23.03-2.68-44.52-7.4-66.15-11.18-22.3-3.89-44.57-7.92-66.86-11.84-21.92-3.86-43.84-7.67-66.33-10.57,10.31,10.73,21.59,20.11,32.67,29.71,11.58,10.04,23.22,20.01,34.83,30,11.36,9.78,22.72,19.56,34.08,29.34,11.61,10,23.25,19.96,34.84,30,11.18,9.69,22.57,19.15,33.52,29.08-.45.77-.9,1.55-1.34,2.32Z"/>
  <path class="st0" d="M1845.13,583.32c36.03-56.44,72.06-112.87,108.1-169.31-.48-.52-.97-1.04-1.45-1.55-66.99,33.79-133.99,67.57-202.49,102.12.75-2.9.71-4.53,1.49-5.51,51.07-64.51,102.2-128.96,153.3-193.44,1.02-1.29,1.67-2.87,2.43-4.22,21.85,17.95,42.33,34.78,62.81,51.61.6-.33,1.2-.66,1.8-.99-9.71-26.7-20.76-52.93-29.43-80.03,15.45,11.25,30.9,22.51,46.35,33.76.55-.33,1.1-.67,1.65-1-6.39-18.83-12.78-37.66-19.08-56.21,1.52-.82,1.79-1.03,2.1-1.12.29-.08.75-.17.91-.02,29.02,27.45,58.03,54.92,87.01,82.42,1.4,1.33,2.55,2.92,4.19,4.83-6.81,6.47-13.27,12.63-19.75,18.76-13.06,12.37-26.04,24.83-39.26,37.03-3.73,3.44-5.33,6.74-4.81,12.12,2.5,26.16,4.44,52.37,6.66,79.51-53.08,31.15-106.34,62.89-159.97,93.98-.85-.91-1.7-1.82-2.56-2.74Z"/>
  <path class="st0" d="M1709.25,1798.1c-5.29-74.76-11.36-149.47-16.5-224.24.88-.26,1.75-.52,2.63-.77,41.29,74.17,82.58,148.34,123.97,222.67-24.4,13.05-47.73,25.53-71.07,38.01.11.68.22,1.36.33,2.04,14.36.31,28.73.62,43.09.94,14.02.31,28.04.63,42.26,1.72-16.5,10.17-32.55,20.56-48.88,30.51.24.71.48,1.42.72,2.13,19.61,1.26,39.22,2.53,58.83,3.79.16.89.32,1.78.48,2.67-12.17,6.97-25.45,11.76-38.19,17.58-12.71,5.82-25.56,11.33-38.37,16.94-13.01,5.7-26.04,11.37-39.63,17.3-6.49-16.89-12.57-32.68-18.63-48.49-3.57-9.32-7.32-18.59-10.54-28.03-1.69-4.94-4.68-7.4-9.59-8.93-25.07-7.8-50.04-15.91-74.96-23.88-6.31-25.88-26.25-176.8-24.12-185.16,7.43,6.83,11.84,15.36,17.4,22.94,5.71,7.78,11.1,15.81,16.62,23.73,5.53,7.92,11.05,15.85,16.58,23.76,5.34,7.65,10.69,15.28,16.03,22.93,5.53,7.92,11.04,15.85,16.56,23.77,5.53,7.92,11.05,15.84,16.59,23.75,5.47,7.8,10.96,15.58,16.44,23.37.65-.35,1.31-.71,1.96-1.06Z"/>
  <path class="st0" d="M2196.67,1100.77c-58.82-15.29-117.75-30.59-176.65-45.97-1.06-.28-1.88-1.47-4.51-3.62,34.06-8.72,66.87-15.05,99.41-22.45,32.6-7.4,65.29-14.39,97.94-21.56.04-.8.08-1.6.11-2.39-71.06-23.44-142.12-46.88-213.18-70.32.1-.96.2-1.93.3-2.89,84.03-9.99,168.11-19.51,252.81-29.37,2.68,27.04,5.31,53.56,7.94,80.08.76.13,1.53.26,2.29.39,5.79-13.25,11.52-26.54,17.4-39.75,5.63-12.65,10.98-25.44,18.14-37.33,2.93,18.86,5.85,37.72,8.78,56.58.66.1,1.32.19,1.99.29,8.7-17.65,17.41-35.3,27.16-55.06,1.5,4.06,2.59,5.67,2.63,7.31.93,39.31,1.76,78.62,2.56,117.94.03,1.24-.49,2.49-.85,4.17-22.57-.58-44.83-1.14-67.09-1.73-3.33-.09-6.69-.06-9.98-.53-7.58-1.07-12.85,1.41-17.88,7.64-15.67,19.44-32.12,38.26-49.33,58.58Z"/>
  <path class="st0" d="M2134.98,1627.27c-3.16,7.81-76.08,85.3-87.97,94.33-17.77-18.8-35.78-37.46-53.26-56.6-4.98-5.45-9.87-7.6-17.31-6.84-25.14,2.56-50.35,4.44-76.43,6.65-31.26-53.13-62.89-106.48-94.59-160.86,5.81-1.53,8.39,1.53,11.21,3.33,51.11,32.58,102.17,65.23,153.26,97.84,2.66,1.7,5.46,3.18,9.5,3.52-11.29-22.46-22.56-44.92-33.86-67.37-11.23-22.3-22.53-44.57-33.75-66.87-11.24-22.34-22.69-44.59-33.73-67.03.74-.54,1.48-1.08,2.21-1.62,66.65,52.82,133.29,105.64,199.82,158.36-17.41,21.22-34.25,41.75-51.09,62.28.31.58.63,1.16.94,1.74,5.31-1.98,10.63-3.93,15.93-5.96,5.29-2.02,10.55-4.11,15.82-6.16,5.58-2.17,11.18-4.32,16.76-6.5,5.27-2.06,10.41-4.61,15.83-6.08,5.34-1.45,9.62-6.49,16.35-5.4-11.75,16.06-23.02,31.46-34.29,46.86,20.08-3.87,38.53-11.66,58.65-17.66Z"/>
  <path class="st0" d="M835.19,384.35c30.77,52.55,61.71,105.38,92.59,158.26.38.66-.09,1.82-.31,4.43-10.65-5.54-19.66-12.09-29.06-17.95-9.33-5.82-18.55-11.81-27.81-17.72-9.54-6.1-19.09-12.19-28.63-18.3-9.54-6.1-19.08-12.21-28.62-18.31-9.26-5.92-18.53-11.83-27.8-17.74-9.52-6.07-19.03-12.15-29.39-17.62,32.77,67.84,66.99,134.79,101.32,203.36-8.17-3.21-193.23-149.14-201.99-158.55,16.93-20.67,33.88-41.35,50.83-62.04-.4-.54-.8-1.09-1.21-1.63-26.56,10.43-53.13,20.86-79.69,31.29l-.77-1.19c11.36-15.58,22.72-31.16,35.51-48.69-21.63,5.77-39.92,14.23-60.12,19.45,3.28-7.72,69.52-78.46,87.25-93.8,1.56,1.38,3.31,2.72,4.8,4.29,16.97,17.88,34.03,35.69,50.77,53.79,4.01,4.34,7.91,5.74,13.91,5.16,25.81-2.5,51.68-4.34,78.43-6.49Z"/>
  <path class="st0" d="M1523.45,404.91c23.26-81.69,46.52-163.38,69.83-245.24,26.68,8.07,52.26,15.82,77.85,23.56.33-.55.66-1.1.98-1.65-19.83-20.59-39.65-41.17-59.48-61.76.29-.39.57-.77.86-1.16,18.74,4.53,37.48,9.06,56.23,13.6.35-.59.69-1.19,1.04-1.78-13.13-14.81-26.26-29.62-40.64-45.84,4,0,5.95-.51,7.47.08,36.66,14.15,73.28,28.42,109.9,42.69,1.2.47,2.29,1.24,4.04,2.2-4.52,10.14-8.96,20.08-13.4,30.03-6.66,14.9-13.23,29.84-20.04,44.67-1.79,3.9-2.24,7.17-.09,11.26,12.38,23.58,24.48,47.3,37.2,72-36.94,48.98-74.26,98.59-111.69,148.11l-2.24-.8c-.17-2.02-.79-4.12-.45-6.05,10.66-60.34,21.43-120.67,32.15-181,.63-3.54,1.05-7.12.66-11.23-8.04,7.06-14.6,15.24-21.48,23.11-7.24,8.28-14.37,16.66-21.54,24.99-6.96,8.08-13.9,16.18-20.86,24.26-6.96,8.08-13.92,16.16-20.89,24.24-6.96,8.08-13.92,16.16-20.88,24.24-7.18,8.34-14.35,16.67-21.53,25.01-6.85,7.95-13.7,15.9-20.55,23.85-.82-.46-1.63-.93-2.45-1.39Z"/>
  <path class="st0" d="M1121.06,1930.31l-55.6-13.43c11.27,17.26,25.98,30.91,37.07,47.87-40.18-13.59-79.18-29.18-119.16-44.6,1.23-3.09,2.09-5.47,3.12-7.78,10.04-22.51,20.05-45.02,30.22-67.47,1.74-3.85,2.42-7.13.27-11.23-12.36-23.59-24.45-47.32-37.23-72.16,36.76-48.9,74.14-98.42,112.16-148.78,3.54,4.41,2.19,7.72,1.66,10.69-8.1,45.9-16.31,91.79-24.49,137.68-3.03,17.02-6.05,34.04-8.29,51.63,8.24-6.41,14.32-14.77,21.12-22.41,7.31-8.21,14.38-16.64,21.56-24.97,6.95-8.08,13.9-16.18,20.85-24.26,7.17-8.33,14.36-16.65,21.54-24.99,6.96-8.08,13.91-16.17,20.86-24.25,7.17-8.34,14.33-16.69,21.52-25,6.86-7.93,13.76-15.82,21.4-24.61.6,7.91-62.28,231.71-68.8,246.94-25.58-7.76-51.18-15.54-76.79-23.31-.36.54-.72,1.08-1.08,1.61,9.99,10.45,19.99,20.89,29.98,31.34,9.76,10.2,19.52,20.41,29.63,30.3-.51.4-1.02.8-1.53,1.19Z"/>
  <path class="st0" d="M2179.1,643.04c.46-28.22.93-56.44,1.39-84.66l1.49-.13c9.94,16.16,19.88,32.31,29.82,48.47.72-.12,1.44-.24,2.16-.36,1.29-19.57,2.59-39.15,4.02-60.79,2.69,2.83,4.35,3.89,5.01,5.39,16.18,36.54,32.25,73.13,48.32,109.72.25.57.14,1.3.26,2.67-9.07,3.5-18.31,7.1-27.58,10.64-16.17,6.18-32.35,12.36-48.55,18.47-3.9,1.47-6.63,3.38-8.03,7.89-7.88,25.43-16.17,50.73-24.67,77.16-60.75,8.56-122.18,17.49-184.68,25.74.67-5.91,4.62-7.05,7.3-8.93,44.48-31.17,89.04-62.22,133.57-93.31,7.81-5.46,15.6-10.96,23.4-16.44-.24-.64-.47-1.29-.71-1.93-37.63,2.81-75.26,5.64-112.89,8.44-37.3,2.77-74.61,5.51-112.32,6.93,73.72-42.72,147.92-84,222.3-125.33,12.94,24.18,25.42,47.51,37.91,70.83.83-.16,1.66-.32,2.49-.48Z"/>
  <path class="st0" d="M915.39,253.39c24.52-13.1,47.65-25.46,72.1-38.53-8.12-3.55-15.31-1.91-22.19-2.33-7.31-.45-14.66-.28-21.99-.38-7-.1-14-.21-20.99-.3-7.04-.09-14.07-.16-21.22-1.82,16.22-9.96,32.45-19.91,50.49-30.99-21.47-4.07-41.63-1.83-61.67-5.67,5.51-5.79,87.73-43.29,115.84-53.17.89,1.91,1.94,3.84,2.72,5.87,8.84,23,17.8,45.96,26.32,69.08,2.05,5.57,5.2,8.55,10.82,10.29,24.77,7.64,49.43,15.66,74.91,23.79,8.41,60.08,16.86,120.39,25.24,180.7.16,1.12-.48,2.34-1.19,5.48-8.86-9.25-14.27-19.05-20.76-27.97-6.47-8.89-12.63-18-18.93-27.02-6.48-9.29-12.96-18.59-19.44-27.88-6.48-9.29-12.97-18.58-19.45-27.87-6.3-9.01-12.61-18.02-18.9-27.03-6.42-9.19-12.84-18.4-19.25-27.59-.74.22-1.49.43-2.23.65,5.56,74.73,11.11,149.45,16.65,223.95-1.21.38-1.52.54-1.84.57-.3.02-.78,0-.88-.18-41.33-73.74-82.64-147.5-124.16-221.65Z"/>
  <path class="st0" d="M521.18,1044.02c71.43,23.57,142.85,47.13,214.28,70.7-.1.94-.2,1.89-.31,2.83-84.32,9.76-168.64,19.53-253.12,29.31-2.74-27.61-5.36-54-7.97-80.39-13.83,25.26-24.68,51.59-37.62,77.38-2.95-18.74-5.89-37.49-9.1-57.89-2.14,2.72-3.73,4.16-4.61,5.95-6.47,13.15-12.77,26.38-19.19,39.55-1.39,2.85-3.02,5.57-4.48,8.25-1.39-.61-1.72-.71-2-.89-.25-.17-.61-.4-.63-.64-.26-2.3-.6-4.6-.65-6.91-.92-39.27-1.8-78.55-2.7-118.52,3.38-.2,5.93-.55,8.47-.48,23.98.62,47.97,1.12,71.94,2.09,6.26.25,10.42-1.5,14.48-6.44,16.27-19.81,33.01-39.22,50.26-59.6,59.42,15.4,119.46,30.96,179.92,46.63-1.61,5.13-4.95,4.74-7.61,5.33-41.93,9.28-83.87,18.54-125.81,27.77-18.86,4.15-37.73,8.24-56.59,12.41-2.25.5-4.42,1.32-6.63,1.99-.11.52-.22,1.04-.33,1.56Z"/>
  <path class="st0" d="M1341.5,1673.42c14.56,66.01,28.89,130.96,43.38,196.63,4.12-1.96,4.16-5.52,5.1-8.34,21.49-65.14,42.92-130.31,64.39-195.46,1.09-3.31,2.39-6.55,3.6-9.82.84.11,1.67.22,2.51.33,9.76,84.17,19.51,168.33,29.35,253.17-27.03,2.71-53.6,5.37-80.16,8.03-.16.72-.32,1.43-.48,2.15,26,11.37,51.99,22.74,77.99,34.11-.19.47-.37.93-.56,1.4-18.8,2.96-37.6,5.91-58.36,9.18,3.3,2.24,4.93,3.66,6.81,4.58,13.17,6.44,26.42,12.7,39.55,19.21,2.73,1.35,6.49,1.78,7.65,7.09-42.42,1.85-84.41,2.49-127.17,2.98.76-25.89,1.08-50.79,2.44-75.63.51-9.21-1.82-15.37-9.2-21.25-18.99-15.15-37.25-31.23-57.01-47.97,15.27-58.61,30.1-118.27,46.38-177.57.24-.87,1.8-1.38,3.8-2.8Z"/>
  <path class="st0" d="M893.35,702.87c-14.86,21.04-29.72,42.08-44.13,62.48-5.34.22-6.24-2.77-7.26-5.61-3.5-9.71-6.73-19.53-10.6-29.09-1.42-3.52-3.73-7.23-6.67-9.49-29.35-22.52-58.91-44.75-88.43-67.04-.94-.71-2.06-1.18-3.1-1.76l-1.38,1.46c26.03,29.5,52.05,59,78.51,89-5.13,2.19-7.09-1.24-9.42-3.08-50.98-40.3-101.82-80.78-152.96-120.88-7.56-5.93-13.23-12.66-17.55-21.15-9.21-18.11-19.01-35.92-28.53-53.87-1.52-2.86-2.84-5.83-5.16-10.63,9.4,1.22,17.11,2.1,24.78,3.23,17.46,2.57,34.91,5.27,52.36,7.91,5.63.85,10.8,2.36,15.61,5.91,55.75,41.19,111.64,82.19,167.47,123.26,1.49,1.1,2.83,2.39,4.5,3.81-3.34,3.41-5.39.6-7.39-.44-29.55-15.37-59.06-30.83-88.6-46.24-3.15-1.64-6.4-3.07-10.38-3.44,1.81,1.58,3.54,3.26,5.45,4.71,27.39,20.69,54.87,41.26,82.15,62.09,4.25,3.24,8.5,4.67,13.75,4.59,8.66-.13,17.33.12,25.99.4,3.21.11,6.39.76,9.59,1.17.46.9.91,1.81,1.37,2.71Z"/>
  <path class="st0" d="M995.76,1661.09c29.8-26.29,59.6-52.59,89.87-79.3,2.71,4.8-.78,6.5-2.31,8.44-29.49,37.41-59.09,74.73-88.67,112.08-12.62,15.93-25.17,31.91-37.89,47.75-2.02,2.52-4.48,5.02-7.27,6.54-22.24,12.07-44.6,23.92-66.97,35.77-1.64.87-3.59,1.14-6.55,2.04,1.39-9.46,2.62-17.94,3.89-26.41,2.72-18.11,5.32-36.23,8.32-54.3.57-3.44,2.23-7,4.3-9.83,41.3-56.46,82.73-112.82,124.18-169.17,1.09-1.48,2.69-2.59,5.33-5.09-1.07,9.57-6.34,15.39-9.44,22.08-3.36,7.24-7.28,14.22-10.98,21.31-3.54,6.79-7.11,13.57-10.66,20.35-3.7,7.08-7.39,14.17-11.07,21.26-3.45,6.65-6.89,13.32-10.33,19.98.57.34,1.14.68,1.71,1.02,1.8-2.14,3.69-4.2,5.37-6.42,20.08-26.58,40.04-53.25,60.24-79.73,3.4-4.46,5.18-8.92,4.98-14.59-.31-8.65-.09-17.32.17-25.98.09-3.12.95-6.22,1.61-10.29,3.25,1.6,5.43,2.35,7.23,3.62,17.46,12.23,34.91,24.48,52.2,36.95,2.15,1.55,3.37,4.39,5.03,6.64-2.34,1.6-4.48,3.7-7.05,4.7-8.99,3.5-18.26,6.32-27.15,10.05-3.78,1.59-7.73,4.14-10.19,7.34-22.72,29.59-45.13,59.42-67.61,89.19-.59.78-1,1.68-1.5,2.52.4.5.8,1,1.2,1.5Z"/>
  <path class="st0" d="M1764.81,411.86c-2.2,2.69-3.94,4.67-5.53,6.78-20.28,26.86-40.46,53.79-60.88,80.55-3.42,4.48-5.17,8.96-5.03,14.61.21,8.65-.08,17.33-.37,25.99-.11,3.19-.82,6.37-1.27,9.67-7.55-1.99-57.13-36.21-65.14-44.57-.17-4.58,3.65-5.07,6.62-6.18,9.35-3.5,18.87-6.58,28.12-10.35,3.52-1.43,7.28-3.66,9.53-6.59,23.11-30.14,45.94-60.5,68.82-90.82.52-.69.75-1.62.1-3.46-29.99,26.46-59.98,52.91-90.86,80.15-1.53-5.65,1.76-7.6,3.6-9.93,29.31-37.14,58.71-74.22,88.09-111.32,12.41-15.67,24.77-31.39,37.27-46.99,2.03-2.54,4.35-5.21,7.14-6.72,22.54-12.24,45.2-24.24,67.86-36.26,1.39-.74,3.04-.99,5.86-1.87-1.1,8.45-1.97,15.96-3.07,23.43-2.62,17.79-5.36,35.56-8.03,53.34-.85,5.64-2.56,10.75-6.1,15.53-40.97,55.48-81.76,111.1-122.64,166.66-1.26,1.71-2.91,3.13-4.36,4.65-.85-.76-1.15-.93-1.32-1.19-.17-.25-.33-.59-.28-.86.1-.64.22-1.32.51-1.89,17.32-33.4,34.66-66.8,51.97-100.2.11-.2-.15-.59-.6-2.13Z"/>
  <path class="st0" d="M1880.25,687.49c9.52-8.47,19.49-16.44,29.24-24.66,9.68-8.16,19.41-16.26,29.11-24.39,9.9-8.3,19.79-16.61,28.82-26.32-1.98.8-4.09,1.37-5.91,2.44-29.58,17.37-59.08,34.87-88.73,52.13-4.31,2.51-6.98,5.76-8.77,10.3-3.29,8.36-6.83,16.64-10.52,24.83-1.28,2.84-3.34,5.34-5.48,8.67-1.98-2.11-3.27-3.12-4.1-4.43-11.8-18.55-23.61-37.09-35.19-55.77-1.4-2.26-1.45-5.36-2.12-8.07,2.78-.64,5.56-1.85,8.32-1.81,7.32.11,14.67.43,21.94,1.27,9.33,1.08,17.34-1.18,25.44-6.1,27.91-16.91,56.2-33.19,84.34-49.73,2.25-1.32,4.42-2.8,7.91-5.01-5.02-1.56-8.1.59-11.08,1.6-30.89,10.48-61.72,21.14-92.58,31.71-3.03,1.04-6.15,1.78-10.4,2.99,1.52-5.54,5.43-6.21,8.28-7.8,47.38-26.49,94.8-52.9,142.22-79.32,7.56-4.21,15.35-8.08,22.65-12.71,10.02-6.36,20.58-9.96,32.57-10.78,21.25-1.46,42.43-4,63.65-6.03,1.57-.15,3.18.2,5.72.38-1.21,2.67-1.92,4.77-3.03,6.63-12.51,20.85-24.96,41.73-37.75,62.41-2.18,3.52-5.43,6.83-8.95,8.98-59.72,36.4-119.56,72.6-179.41,108.79-1.46.89-3.31,1.14-4.98,1.68-.4-.63-.81-1.25-1.21-1.88Z"/>
  <path class="st0" d="M2267.3,1183.9c-16.39,4.12-31.16,7.87-45.95,11.55-10.01,2.49-20.12,4.6-30.05,7.39-6.03,1.69-11.63,1.37-17.64-.12-66.22-16.38-132.49-32.58-198.73-48.88-2.33-.57-4.52-1.69-6.51-3.73,38.43,1.33,76.46,5.93,115.12,6.77-2.46-.86-4.86-1.91-7.38-2.56-32.53-8.44-65.1-16.73-97.6-25.3-5.13-1.35-9.65-1.15-14.48.98-7.91,3.49-15.98,6.64-24.06,9.75-2.97,1.15-6.16,1.76-9.36,2.64-1.41-8.87,12.27-70.37,17.52-78.67,2.05,1.45,4.35,2.58,6,4.33,7.08,7.52,13.74,15.44,21.03,22.73,2.9,2.9,6.78,5.58,10.68,6.62,35.67,9.58,71.44,18.79,107.19,28.07,1.24.32,2.57.32,4.2-.31-35.08-18.65-71.06-35.44-107.5-53.88,4.5-3.3,7.57-1.2,10.44-.39,49.31,13.96,98.59,28.01,147.88,42.02,15.68,4.46,31.4,8.8,47.04,13.4,3.1.91,6.32,2.31,8.81,4.32,19.91,16.16,39.67,32.52,59.44,48.85.97.8,1.7,1.9,3.88,4.4Z"/>
  <path class="st0" d="M475.32,1221.8c3.43-2.71,5.7-4.61,8.07-6.36,18.22-13.46,36.53-26.79,54.63-40.4,4.68-3.52,9.58-5.72,15.33-6.59,68.46-10.35,136.91-20.79,205.36-31.16,1.68-.25,3.44-.03,5.34,1.18-37.52,13.93-75.83,24.86-113.15,38.97,29.62-4.13,59.24-8.26,88.86-12.41,6.59-.92,13.15-2.42,19.77-2.73,7.5-.36,13.23-3.12,18.23-8.69,5.33-5.94,11.22-11.39,17.06-16.84,2.29-2.14,5.1-3.71,9.08-6.54,1.18,5.82,2.11,9.92,2.83,14.05,3.32,19.02,6.66,38.03,9.75,57.09.43,2.63-.52,5.48-.83,8.23-2.81-.47-5.84-.42-8.38-1.51-7.95-3.41-15.86-6.97-23.51-11-5.87-3.09-11.71-3.99-18.25-3.04-26.03,3.78-52.09,7.3-78.14,10.92-7.58,1.05-15.18,2.03-22.75,3.16-3.83.57-7.61,1.43-11.26,3.56,39.98,2.53,79.96,5.06,119.94,7.6.1.74.2,1.47.3,2.21-1.84.72-3.64,1.88-5.54,2.1-47.95,5.58-95.91,11.04-143.87,16.58-20.17,2.33-40.32,4.85-60.5,7.13-2.89.33-6.06.36-8.8-.46-24.87-7.43-49.68-15.07-74.5-22.68-1.21-.37-2.32-1.07-5.07-2.37Z"/>
  <path class="st0" d="M1890.93,1772.98c-3.62-1.94-5.97-3.07-8.19-4.4-19.98-12.02-40.03-23.91-59.8-36.26-4.05-2.53-7.88-6.25-10.36-10.31-36.25-59.42-72.25-118.99-108.29-178.54-.79-1.31-1.29-2.81-2.2-4.83,4.68-1.06,5.73,2.43,7.37,4.38,21.45,25.49,42.8,51.06,64.18,76.61,2.12,2.54,4.33,5.01,7.66,6.92-.99-2.14-1.81-4.38-3-6.41-17.53-29.87-35.18-59.67-52.59-89.61-2.67-4.59-5.99-7.62-10.91-9.53-8.37-3.25-16.61-6.87-24.79-10.59-2.79-1.27-5.24-3.3-8.76-5.57,3.25-2.47,5.21-4.19,7.37-5.57,17.42-11.09,34.88-22.12,52.33-33.16,1.13-.71,2.22-1.5,3.41-2.08,4.62-2.26,7.11-1.09,7.3,3.93.19,4.98-.22,9.99-.59,14.97q-1.79,23.84,10.05,44.05c15.34,26.13,30.68,52.27,46.04,78.4,1.67,2.84,3.46,5.62,6.67,7.83-13-38.04-25.99-76.09-39.39-115.29,6.05.88,6.56,4.98,8.12,7.75,24.56,43.88,49.01,87.82,73.49,131.74,8.27,14.83,16.59,29.64,24.76,44.53,1.4,2.55,2.73,5.42,3.03,8.26,2.72,25.83,5.21,51.68,7.71,77.54.12,1.23-.28,2.52-.62,5.23Z"/>
  <path class="st0" d="M843.42,275.54c4.41,2.44,6.73,3.64,8.95,4.98,19.68,11.86,39.31,23.82,59.06,35.58,4.7,2.8,8.33,6.23,11.2,10.99,35.6,59.04,71.36,117.99,107.04,176.99,1.12,1.85,1.81,3.96,2.57,5.67-.75.79-.92,1.14-1.18,1.21-.29.08-.72.02-.96-.16-.8-.57-1.66-1.11-2.28-1.84-24.03-28.53-48.04-57.09-72.06-85.63-.19-.22-.53-.3-2.1-1.15,1.49,3.29,2.32,5.64,3.55,7.75,17.37,29.59,34.88,59.08,52.1,88.75,2.69,4.63,6.09,7.52,10.97,9.43,8.37,3.27,16.64,6.83,24.81,10.55,2.76,1.26,5.11,3.4,7.9,5.31-10.94,10.17-60.65,40.56-68.43,41.73-.36-2.46-1.08-4.92-1.02-7.38.23-10.33.89-20.64.94-30.97.02-3.49-.48-7.48-2.18-10.42-19.02-32.86-38.32-65.56-57.57-98.28-.31-.54-.96-.87-2.19-1.07,11.54,37.96,25.42,75.18,37.92,114.14-5.68-1.49-6.48-5.36-8.1-8.26-31.5-56.41-62.79-112.94-94.52-169.22-4.91-8.71-7.4-17.47-8.11-27.31-1.23-17.27-3.36-34.47-5-51.71-.56-5.9-.81-11.82-1.33-19.69Z"/>
  <path class="st0" d="M854.57,1361.78c-30.22,25.36-60.44,50.71-90.66,76.07l.93,1.48c2.71-1.51,5.45-2.98,8.12-4.55,29.01-17.06,57.96-34.22,87.04-51.13,5.41-3.15,9.39-6.89,11.57-12.96,2.81-7.82,6.3-15.41,9.71-23,1.3-2.9,3.19-5.53,4.89-8.42,6.5,5.27,39.75,57.25,43.33,67.76-3.25.51-6.26,1.42-9.25,1.37-10-.15-19.99-.85-29.98-.87-3.5,0-7.5.47-10.43,2.17-32.6,18.83-65.04,37.94-97.5,57.01-.97.57-1.73,1.51-1.91,3.63,37.56-12.84,75.11-25.67,113.46-38.78-.31,5.84-4.28,6.25-6.84,7.69-40.99,22.95-82.04,45.78-123.08,68.63-17.46,9.73-34.88,19.54-52.42,29.12-3.42,1.87-7.27,3.63-11.07,4.03-25.18,2.65-50.4,4.92-75.61,7.27-1.29.12-2.62-.13-4.95-.27.89-2.45,1.3-4.58,2.35-6.33,12.67-21.15,25.32-42.31,38.28-63.29,2-3.24,5.12-6.2,8.39-8.19,59.49-36.2,119.07-72.24,178.66-108.28,1.59-.96,3.43-1.53,5.15-2.28.6.71,1.21,1.41,1.81,2.11Z"/>
  <path class="st0" d="M2137.4,1515.3c-2.6,0-4.56.25-6.45-.04-24.02-3.64-48.06-7.2-72.03-11.18-4.4-.73-9.09-2.41-12.66-5.01-56.22-41.05-112.28-82.32-168.4-123.5-1.57-1.15-3.44-1.89-4.34-3.84,7.74-1.22,12.62,3.65,18.32,6.24,6.05,2.75,11.83,6.1,17.74,9.18,5.91,3.08,11.82,6.13,17.73,9.21,5.9,3.08,11.79,6.19,17.69,9.27,5.9,3.08,11.8,6.17,17.72,9.23,5.76,2.98,11.54,5.94,18.22,7.33-2.81-2.18-5.6-4.39-8.44-6.53-26.59-20.05-53.27-39.99-79.73-60.23-4.78-3.65-9.48-5.51-15.52-5.27-8.64.35-17.32.11-25.98-.18-3.03-.1-6.02-1.12-10.09-1.93,2.13-3.61,3.3-5.94,4.78-8.05,11.67-16.63,23.41-33.21,35.13-49.81.96-1.36,1.81-2.83,2.93-4.04,3.35-3.62,6.26-3.29,8.17,1.48,3.47,8.64,6.91,17.35,9.53,26.27,2.28,7.79,6.76,13.17,13.21,17.95,26.76,19.82,53.21,40.07,79.8,60.13,1.99,1.5,4.18,2.72,7.02,3.32-24.95-30.15-51.02-59.23-76.68-88.64l1.94-1.97c2.07,1.3,4.28,2.42,6.19,3.92,53.56,42.36,107.09,84.74,160.57,127.2,2.27,1.8,4.44,4.1,5.8,6.62,12.04,22.25,23.91,44.6,35.76,66.96.88,1.66,1.27,3.59,2.06,5.9Z"/>
  <path class="st0" d="M766.08,900.3c-39.48-3.46-78.96-6.92-118.45-10.38-.09.52-.19,1.04-.28,1.56,6.33,1.7,12.65,3.44,18.99,5.09,29.63,7.73,59.29,15.35,88.88,23.25,5.73,1.53,10.8,1.59,16.32-1.02,7.81-3.69,15.97-6.69,24.08-9.71,2.91-1.08,6.11-1.36,10.19-2.21-.39,3.65-.42,5.9-.89,8.05-4.38,19.83-8.83,39.64-13.27,59.45-.44,1.95-.86,3.92-1.51,5.8-1.63,4.76-4.39,5.7-8,2.27-4.1-3.89-8.2-7.94-11.44-12.53-9.16-12.96-21.69-19.09-37.04-22.59-31.46-7.19-62.55-16.01-93.79-24.14-1.23-.32-2.5-.48-4.33.71,36.2,17.75,72.39,35.49,110.22,54.04-5.71,3.12-8.98.78-12.08-.09-61.82-17.48-123.57-35.24-185.44-52.52-9.88-2.76-18.25-7.14-25.99-13.8-15.15-13.04-30.8-25.48-46.22-38.21-2.51-2.07-4.88-4.3-8.3-7.33,3.19-1.18,5.14-2.11,7.19-2.62,23.9-5.96,47.79-11.98,71.76-17.64,3.68-.87,7.94-.81,11.62.09,67.92,16.53,135.8,33.24,203.68,49.94,1.52.37,2.97,1.04,4.45,1.58-.12.99-.23,1.98-.35,2.97Z"/>
  <path class="st0" d="M1961.54,827.26c1.99-.56,3.94-1.4,5.97-1.64,32.73-3.9,65.46-7.74,98.2-11.57,32.4-3.8,64.82-7.46,97.21-11.44,9.07-1.12,17.63-.76,26.47,2.17,18.94,6.3,38.18,11.72,57.28,17.55,3.78,1.15,7.49,2.55,12.37,4.22-2.12,2.23-3.38,4.01-5.04,5.24-19.53,14.49-39.02,29.03-58.78,43.19-3.6,2.58-8.23,4.42-12.61,5.11-67.74,10.6-135.53,20.96-203.31,31.33-2.71.42-5.5.35-8.51-.71,18.23-7.9,37.2-13.2,55.94-19.17,18.67-5.95,37.36-11.84,55.97-19-1.59-.07-3.21-.39-4.76-.17-35.27,4.97-70.52,10.12-105.82,14.87-5.68.77-9.86,2.98-13.7,7.03-5.95,6.28-12.19,12.31-18.52,18.22-2.25,2.1-5.12,3.53-9.08,6.19-2.3-12.46-4.32-23.15-6.22-33.85-2.1-11.8-4.1-23.61-6.13-35.42-.17-.98-.31-1.98-.41-2.97-.78-7.95,1.03-9.43,8.18-6.28,7.61,3.36,15.26,6.71,22.57,10.66,7.64,4.13,15.1,5.08,23.86,3.74,35.21-5.37,70.54-9.9,105.83-14.77.84-.12,1.64-.52,2.48-1.54-39.68-4.17-79.59-5.19-119.27-8.83-.05-.72-.1-1.45-.15-2.17Z"/>
  <path class="st0" d="M1267.66,1754.75c17.47-35.61,34.95-71.22,53.11-108.22,3.03,5.09,1.08,8.11.26,11.01-15.89,56.07-32.47,111.95-47.46,168.25-5.89,22.11-14.75,41.56-30.67,58.14-9.67,10.07-17.91,21.5-26.83,32.28-2.06,2.49-4.33,4.82-7.21,8.01-1.2-3.23-2.18-5.25-2.71-7.39-5.81-23.26-11.73-46.5-17.14-69.85-1.08-4.66-1.08-10.02.04-14.67,16.29-67.32,32.85-134.57,49.4-201.82.45-1.83,1.45-3.52,3.12-5.15,1.92,13.03-.84,25.84-1.68,38.68-.89,13.63-2.44,27.21-3.63,40.81-1.16,13.24-2.22,26.48-2.26,40.02.79-2.34,1.72-4.64,2.34-7.02,8.9-34.16,17.7-68.34,26.71-102.46,1.26-4.76,1.2-8.99-.79-13.54-3.61-8.23-6.88-16.62-10.09-25.01-1.12-2.94-1.66-6.1-2.73-10.17,3.25,0,5.19-.34,6.97.05,20.81,4.61,41.59,9.32,62.38,14.02.97.22,1.93.52,2.89.8,7.02,2.06,7.74,4.24,2.87,9.24-2.09,2.15-4.19,4.39-6.65,6.05-17.28,11.7-25.41,28.33-29.64,48.52-5.79,27.67-13.86,54.87-20.92,82.28-.55,2.14-.82,4.36-1.22,6.54.51.2,1.03.4,1.54.6Z"/>
  <path class="st0" d="M1491.89,423.15c2.75-39.18,6.99-78.25,10.26-119.84-1.59,2.84-2.13,3.62-2.49,4.48-.51,1.23-.97,2.49-1.3,3.77-8.83,34.15-17.55,68.34-26.55,102.45-1.27,4.8-1.04,8.95.93,13.44,3.61,8.23,6.9,16.6,10.09,25,1.1,2.9,1.52,6.07,2.55,10.38-4.47-.5-7.38-.56-10.16-1.18-20.14-4.49-40.27-9-60.35-13.77-2.58-.61-5.51-2.28-6.85-4.37-.61-.96,1.87-4.55,3.62-6.24,6.72-6.47,13.56-12.82,20.66-18.87,4.49-3.83,7.2-8.22,8.67-14.03,9.43-37.05,19.18-74.02,27.12-111.79-17.75,36.21-35.5,72.42-54.04,110.24-3.13-5.67-.78-8.94.09-12.03,17.47-61.81,35.21-123.54,52.49-185.4,2.76-9.87,7.06-18.28,13.74-26.02,13.27-15.38,25.91-31.3,38.85-46.96,1.87-2.26,3.94-4.35,6.75-7.44,1.15,2.95,2.13,4.85,2.63,6.87,5.96,23.89,11.94,47.78,17.66,71.73.81,3.39.98,7.3.16,10.65-16.6,68.23-33.38,136.41-50.17,204.59-.41,1.67-1.39,3.2-2.1,4.79l-2.28-.48Z"/>
  <path class="st0" d="M1181.51,309.52c-4.21,40.53-5.71,81.01-9.06,121.34-.86.05-1.72.09-2.57.14-.58-2.75-1.37-5.47-1.7-8.24-7.24-61.87-14.43-123.74-21.64-185.61-.69-5.96-1.53-11.9-2.06-17.87-.2-2.26-.17-4.72.48-6.86,7.49-24.87,15.11-49.69,22.76-74.52.45-1.45,1.4-2.75,2.62-5.07,2.48,3.03,4.41,5.19,6.12,7.5,13.48,18.22,26.77,36.57,40.45,54.64,3.77,4.99,5.85,10.27,6.77,16.31,10.32,68.16,20.7,136.32,31.02,204.48.26,1.74.03,3.55-1.02,5.57-8.21-18.39-13.27-37.75-19.46-56.71-6.27-19.18-12.17-38.48-19.75-57.31,3.48,25.03,6.96,50.06,10.45,75.09,1.7,12.2,3.67,24.38,5.05,36.61.63,5.6,2.46,10.07,6.62,13.98,6.55,6.16,12.79,12.67,18.93,19.24,2.08,2.23,3.46,5.1,5.33,7.93-13.42,4.91-71.46,14.17-79.6,12.48.97-3.1,1.62-6.2,2.89-9.02,3.69-8.2,7.5-16.35,11.5-24.4,2.3-4.63,3.28-9.2,2.55-14.43-5.07-35.95-9.95-71.92-14.94-107.88-.35-2.5-1.15-4.94-1.74-7.42Z"/>
  <path class="st0" d="M1565.17,1916.96c-2.42-2.84-3.75-4.22-4.88-5.75-14.45-19.56-29-39.05-43.17-58.81-2.59-3.61-4.5-8.2-5.19-12.58-10.66-68.08-21.07-136.2-31.5-204.32-.34-2.24-.29-4.55-.44-7.22,5.3.43,4.55,4.79,5.37,7.34,9.81,30.76,19.36,61.6,29.02,92.41,1.24,3.97,2.75,7.85,5.72,11.34-1.35-9.85-2.67-19.7-4.05-29.54-3.81-27.03-7.82-54.04-11.34-81.12-.7-5.39-2.89-9.26-6.6-12.87-6.21-6.03-12.27-12.23-18.21-18.53-2.18-2.31-3.85-5.12-6.18-8.29,2.76-1.19,4.44-2.31,6.27-2.63,21.64-3.77,43.3-7.48,64.98-11.02,2.36-.39,4.92.41,7.39.66-.31,2.76,0,5.79-1.05,8.22-3.99,9.15-8.73,17.99-12.54,27.21-1.57,3.79-2.53,8.4-2,12.41,4.94,37.29,10.26,74.53,15.49,111.79.09.64.44,1.24,1.41,1.94,2.92-12.86,2.3-26.13,3.57-39.17,1.29-13.25,1.71-26.59,2.53-39.89.82-13.23,1.66-26.46,4.4-40.13.72,1.76,1.89,3.46,2.11,5.28,3.28,27.1,6.45,54.22,9.63,81.34,4.49,38.36,8.88,76.73,13.51,115.08,1.05,8.71.9,16.99-1.91,25.52-6.35,19.28-11.93,38.81-17.87,58.23-1.16,3.79-2.55,7.51-4.46,13.1Z"/>
  <path class="st0" d="M1506.88,1193.57c3.39,5.49.06,8.71-1.62,11.95-12.54,24.25-25.31,48.38-37.89,72.61-3.98,7.66-7.27,15.68-11.55,23.15-1.65,2.89-4.92,5.14-7.91,6.93-54.88,32.81-110.05,65.12-164.57,98.51-11.87,7.27-21.69,8.47-34.86,3.89-35.5-12.36-71.59-23-107.44-34.35-1.75-.56-3.44-1.33-7.28-2.84,4.05-1.54,5.91-2.68,7.88-2.93,60.08-7.66,120.16-15.3,180.27-22.77,8.8-1.09,16.06-3.96,22.95-10.17,50.98-45.93,102.36-91.42,153.63-137.03,2.61-2.32,5.38-4.47,8.38-6.96Z"/>
  <path class="st0" d="M1449.6,613.93c-3.94,2.59-6.22,4.27-8.65,5.66-52.61,30.15-105.21,60.33-157.93,90.3-6.04,3.44-10.24,7.65-13.3,14.04-29.97,62.47-60.24,124.8-90.45,187.15-1.54,3.19-3.33,6.26-6.2,11.62-1.3-4.17-2.52-6.1-2.37-7.91,2.63-30.54,5.44-61.06,8.21-91.59.33-3.65,1.34-7.38.91-10.93-1.23-10.14,3.6-17.45,9.36-25.11,39.27-52.2,78.28-104.6,117.17-157.08,3.12-4.21,6.36-5.82,11.46-6.24,42.5-3.52,84.97-7.35,127.45-11.06.61-.05,1.26.31,4.35,1.15Z"/>
  <path class="st0" d="M1020.81,1257.26c2.73.52,5.51.87,8.19,1.59,58.77,15.94,117.56,31.85,176.27,47.98,6.37,1.75,12.01,1.7,18.35-.52,65.63-23.02,131.37-45.76,197.08-68.56,3.33-1.15,6.74-2.08,10.11-3.12,2.04,4.94-1.47,6.21-3.49,7.92-12.7,10.77-25.59,21.32-38.28,32.1-15.46,13.13-30.65,26.6-46.33,39.47-2.78,2.28-7.3,2.79-11.14,3.37-23.04,3.49-46.1,6.77-69.16,10.1-43.82,6.33-87.64,12.58-131.43,19.07-3.92.58-6.81.41-9.99-2.29-33.55-28.37-67.22-56.59-100.86-84.85.23-.76.45-1.52.68-2.29Z"/>
  <path class="st0" d="M1715.99,792.38c-3.89-.78-5.77-1.05-7.59-1.54-59.09-16.05-118.19-32.05-177.22-48.3-7.33-2.02-13.88-1.94-21.2.64-64.98,22.88-130.09,45.39-195.17,67.98-3.6,1.25-7.31,2.17-10.98,3.24-.46-.75-.93-1.49-1.39-2.24,2.35-2.44,4.49-5.11,7.07-7.27,23.97-20.14,48.63-39.51,71.77-60.56,10.31-9.38,21.31-12.82,34.39-14.65,61.97-8.67,123.85-17.94,185.75-27.06,5.05-.74,9.25-.86,13.78,3,32.44,27.66,65.21,54.93,97.85,82.36.69.58,1.05,1.53,2.94,4.4Z"/>
  <path class="st0" d="M1019.45,792.46c.82,3.37,1.68,5.84,2,8.37,4.94,38.63,9.81,77.27,14.7,115.91,2.84,22.46,5.78,44.9,8.51,67.37.71,5.85,3.04,10.46,7.03,14.91,46.63,52.13,93.08,104.43,139.55,156.7,2.29,2.57,4.35,5.34,6.61,8.14-4.83,3.26-7.43.16-10.13-1.24-28.96-15.03-57.58-30.74-86.91-44.99-10.21-4.96-16.58-11.85-22.11-21.24-32.77-55.66-65.91-111.11-99.12-166.51-2.45-4.09-2.99-7.5-1.56-11.99,13.01-40.91,25.83-81.87,38.74-122.81.17-.54.89-.9,2.7-2.63Z"/>
  <path class="st0" d="M1777.34,1106.05c-2.26-3.75-3.98-6.49-5.58-9.29-30.14-52.6-60.33-105.16-90.3-157.86-3.13-5.5-7.14-9.08-12.8-11.8-62.71-30.19-125.32-60.58-187.95-90.94-3.15-1.53-6.18-3.32-9.34-5.03,2.45-4.65,5.78-3.27,8.46-3.05,18.59,1.54,37.15,3.37,55.74,4.92,17.89,1.5,35.83,2.58,53.69,4.33,3.28.32,6.66,2.5,9.44,4.57,45.2,33.57,90.31,67.27,135.45,100.93,9.61,7.17,19.15,14.46,28.91,21.42,3.31,2.36,4.63,5.04,4.97,9.06,3.65,43.14,7.51,86.26,11.26,129.4.04.51-.6,1.07-1.94,3.34Z"/>
  <path class="st0" d="M957.09,1105.81c3.75,2.69,6.35,4.44,8.83,6.35,47.98,37.06,95.98,74.09,143.84,111.3,5.24,4.07,10.51,6.1,17.2,6.46,70.5,3.87,140.99,8.02,211.48,12.15,2.44.14,4.84.82,7.63,1.31-1.92,5.76-6.64,5.4-10.09,6.5-29.8,9.51-59.93,18.09-89.43,28.45-11.98,4.21-22.51,3.77-34.39.68-61.84-16.09-123.84-31.55-185.82-47.11-4.12-1.03-7.09-2.51-9.19-6.57-19.97-38.76-40.14-77.42-60.23-116.12-.13-.25.02-.65.17-3.42Z"/>
  <path class="st0" d="M1448.95,1434.58c2.52-3.48,4.32-6.12,6.27-8.65,36.84-47.69,73.64-95.42,110.65-142.99,4.27-5.49,6.46-10.98,6.82-18.05,2.27-44.22,5.01-88.41,7.59-132.62,1.43-24.59,2.81-49.19,4.29-73.78.24-3.94.87-7.86,1.34-11.98,5.34.06,5.24,4.03,6.14,6.88,7.02,22.2,13.87,44.46,20.93,66.66,4.03,12.66,8.57,25.16,12.39,37.88.87,2.9.23,6.52-.54,9.61-13.21,52.59-26.55,105.15-39.86,157.72-3.51,13.87-7.21,27.69-10.49,41.61-.83,3.54-2.17,5.88-5.49,7.59-39.03,20.13-78,40.38-117,60.58-.22.11-.59-.07-3.03-.45Z"/>
  <path class="st0" d="M1134.73,677.84c-.52,2.72-.86,5.5-1.58,8.16-15.93,58.78-31.84,117.58-47.99,176.3-1.76,6.39-1.71,12.03.5,18.35,23.02,65.65,45.77,131.38,68.58,197.1,1.15,3.32,2.19,6.67,3.47,10.57-5.94.92-7.47-2.99-9.58-5.49-17.81-21.15-35.45-42.44-53.25-63.59-5.56-6.6-11.83-12.63-17-19.51-2.19-2.91-2.81-7.26-3.39-11.07-3.49-23.04-6.77-46.11-10.1-69.17-6.33-43.82-12.58-87.65-19.09-131.45-.59-3.94-.37-6.85,2.3-10,28.37-33.56,56.61-67.24,84.88-100.89.75.23,1.5.45,2.25.68Z"/>
  <path class="st0" d="M1776.58,942.5c-2.47-1.83-4.98-3.61-7.42-5.49-48-37.08-96.03-74.12-143.93-111.33-4.93-3.83-9.82-5.93-16.22-6.27-56.57-3.05-113.11-6.45-169.66-9.74-12.31-.72-24.62-1.37-36.92-2.16-4.26-.27-8.51-.89-13.18-1.39.73-5.56,4.93-5.43,8.05-6.42,20.63-6.56,41.31-12.95,61.92-19.54,13.93-4.45,27.73-9.33,41.73-13.55,2.9-.88,6.54-.19,9.63.59,55.22,13.89,110.41,27.91,165.61,41.88,10.01,2.53,19.95,5.43,30.07,7.37,6.54,1.25,10.24,4.54,13.22,10.35,18.67,36.47,37.68,72.77,56.55,109.14.84,1.63,1.41,3.4,2.1,5.1-.52.49-1.03.98-1.55,1.47Z"/>
  <path class="st0" d="M1145.92,1003.13c-1.26-3.21-2.73-6.35-3.76-9.63-9.48-30.16-18.01-60.66-28.74-90.36-4.28-11.86-3.51-22.02-.56-33.45,15.96-61.87,31.54-123.83,47.09-185.8,1.13-4.48,2.73-7.68,7.1-9.93,38.16-19.69,76.21-39.6,114.32-59.39.77-.4,1.84-.22,4.8-.5-2.77,3.9-4.63,6.72-6.69,9.39-36.85,47.7-73.66,95.44-110.69,143.01-4.29,5.52-6.39,11.04-6.78,18.1-3.83,70.49-8,140.97-12.11,211.44-.13,2.18-.74,4.33-1.12,6.49-.95.22-1.91.43-2.86.65Z"/>
  <path class="st0" d="M1227.37,854.77c-1.92-5.26,1.03-8.12,2.58-11.12,14.73-28.39,30.17-56.42,44.11-85.19,5.09-10.5,12.15-17.15,21.85-22.86,55.41-32.62,110.57-65.67,165.78-98.64,3.52-2.1,6.61-3.75,11.1-2.32,40.91,13.11,81.89,25.99,122.83,38.98,1.08.34,2.01,1.18,4.64,2.78-3.81.87-5.86,1.52-7.95,1.78-62.11,7.99-124.21,16.02-186.34,23.78-5.47.68-9.14,3.44-12.89,6.78-45.04,40.13-90.11,80.23-135.17,120.34-7.97,7.09-15.89,14.23-23.93,21.24-1.82,1.58-4.02,2.72-6.61,4.44Z"/>
  <path class="st0" d="M1580.19,959.44c2.41,2.47,4.99,4.8,7.2,7.44,20.76,24.76,40.91,50.06,62.47,74.09,7.45,8.3,10.36,16.95,11.84,27.22,9.18,63.92,18.5,127.81,27.95,191.69.75,5.06-.26,8.76-3.59,12.69-27.14,32.01-54.06,64.21-81.07,96.33-.97,1.15-2.22,2.06-4.95,2.3.59-2.69,1.06-5.42,1.78-8.08,15.78-58.13,31.48-116.28,47.5-174.35,2.12-7.7,2.08-14.46-.64-22.17-22.93-64.96-45.41-130.08-68.01-195.16-1.16-3.34-2.08-6.76-3.11-10.15.88-.62,1.76-1.24,2.63-1.86Z"/>
  <path class="st0" d="M1263.44,1220.18c-2.11.38-4.26,1.25-6.32,1.07-30.86-2.72-61.7-5.57-92.55-8.39-1.66-.15-3.35-.63-4.97-.45-13.16,1.46-23.06-4.54-33.23-12.26-50.17-38.06-100.74-75.59-151.42-112.98-5.38-3.97-7.9-8.22-8.41-14.61-2-25.24-4.24-50.45-6.41-75.68-1.31-15.27-2.68-30.53-3.96-45.8-.18-2.12-.02-4.27,1.87-7.01,1.66,2.63,3.43,5.19,4.97,7.88,29.98,52.31,60.01,104.59,89.8,157.01,3.45,6.07,7.68,10.23,14.06,13.29,62.45,29.97,124.77,60.23,187.1,90.44,3.41,1.65,6.69,3.59,10.03,5.4-.19.69-.37,1.38-.56,2.07Z"/>
  <path class="st0" d="M1539.37,883.1c3.18,1.39,6.45,2.59,9.52,4.19,28.95,15.08,57.59,30.79,86.95,45.01,9.06,4.39,14.44,10.42,19.26,18.57,33.05,55.92,66.36,111.69,99.66,167.46,2.27,3.8,4.03,7.12,2.47,11.99-13.14,40.89-26,81.87-38.98,122.81-.28.89-.98,1.64-2.13,3.48-.93-2.4-1.91-3.95-2.13-5.6-8.05-62.42-16.13-124.84-23.87-187.31-.72-5.85-3.5-9.77-7.08-13.79-46.33-52-92.63-104.03-138.91-156.07-2.34-2.64-4.5-5.44-6.74-8.16.66-.86,1.32-1.71,1.98-2.57Z"/>
  <path class="st0" d="M1287.05,1433.84c2.67-1.65,5.29-3.38,8-4.94,52.59-30.14,105.15-60.33,157.84-90.3,5.48-3.12,9.16-6.99,11.91-12.69,30.31-63.01,60.83-125.93,91.37-188.83,1.47-3.03,2.01-7.03,7.73-9.01,0,3.98.23,7.1-.04,10.18-2.85,32.51-6.43,64.98-8.33,97.55-.67,11.39-4.99,19.77-11.45,28.36-38.23,50.86-76.29,101.85-114.06,153.06-4.01,5.43-8.36,7.74-14.67,8.25-25.23,2.03-50.44,4.26-75.66,6.43-15.6,1.34-31.19,2.72-46.79,4.04-1.61.14-3.25.02-4.87.02-.32-.7-.65-1.4-.97-2.11Z"/>
  <path class="st0" d="M1163.6,500.75c7.08-4.55,82.55-17.97,121.53-22.13,2.06-.22,4.23.55,7.83,1.07-8.55,11.41-16.24,21.67-24.72,32.99,3.35.63,5.41,1.25,7.5,1.37,38.24,2.12,76.49,4.16,114.73,6.3,3.1.17,6.16.97,9.38,2.67-7.68,5.95-16.95,6.98-25.48,9.81-8.84,2.93-17.87,5.29-26.8,7.97-8.75,2.62-17.47,5.33-26.21,8-.01.7-.03,1.4-.04,2.1,37.45,9.36,74.91,18.72,112.36,28.08l.15,2.32c-2.92.7-5.8,1.68-8.75,2.05-37.65,4.79-75.32,9.45-112.96,14.28-4.73.61-8.15-.39-11.36-4.18-2.73-3.22-6.34-5.83-9.9-8.2-39.42-26.13-78.9-52.16-118.35-78.24-2.73-1.8-5.35-3.75-8.91-6.26Z"/>
  <path class="st0" d="M1593.81,509.21c3.52,1.28,5.91,1.61,7.64,2.86,31.28,22.66,62.5,45.41,93.65,68.25,1.65,1.21,2.65,3.33,4.85,6.21-14.07,2.09-26.7,3.96-40.84,6.05,2.42,3.2,3.96,5.56,5.81,7.64,24.85,27.82,49.75,55.59,74.59,83.41,2.31,2.58,4.29,5.46,6.42,8.2-.52.71-1.03,1.43-1.55,2.14-2.5-1-5.12-1.76-7.48-3.03-19.05-10.26-38.04-20.64-57.07-30.94-2.8-1.51-5.71-2.81-10.03-2.82,19.89,33.1,39.77,66.2,59.66,99.29-.37.43-.73.87-1.1,1.3-1.6-.62-3.47-.89-4.77-1.9-31.07-24.06-62.05-48.23-93.14-72.26-3.74-2.89-5.77-5.95-5.16-10.94.39-3.2-.19-6.62-.84-9.83-9.69-47.94-19.48-95.87-29.2-143.81-.57-2.8-.85-5.66-1.46-9.82Z"/>
  <path class="st0" d="M991.64,1354.76c24.11,13.01,48.21,26.02,72.32,39.03.48-.46.96-.93,1.45-1.39-20.02-33.32-40.03-66.64-60.05-99.95.55-.48,1.11-.97,1.66-1.45,1.83,1.02,3.83,1.83,5.47,3.1,30.29,23.48,60.48,47.07,90.84,70.45,4.6,3.54,6.25,7.28,6.62,13.28.64,10.55,3.02,21.02,5.12,31.44,8.12,40.14,16.43,80.24,24.62,120.37.58,2.83.67,5.75,1.21,10.69-3.95-1.88-6.65-2.69-8.81-4.26-30.48-22.1-60.91-44.29-91.28-66.54-1.96-1.43-3.4-3.57-6.36-6.76,14.72-2.27,27.6-4.26,42.21-6.51-15.88-17.74-30.53-34.07-45.14-50.43-14.26-15.97-28.69-31.81-42.79-47.9.97-1.05,1.94-2.1,2.9-3.15Z"/>
  <path class="st0" d="M1206.31,550.84c-21.02,17.12-42.04,34.23-63.06,51.35.18.63.37,1.26.55,1.9,19.17-1.55,38.06-5.51,57.12-8.02,19.18-2.53,38.19-6.46,58.12-6.29-1.7,1.29-3.28,2.8-5.12,3.85-33.54,19.13-67.16,38.13-100.63,57.39-4.54,2.61-8.06,2.59-12.93.61-6.69-2.71-13.99-4.07-21.13-5.47-44.41-8.7-88.85-17.24-133.27-25.87-2.15-.42-4.24-1.2-8.32-2.38,3.24-2.93,5.03-5.13,7.31-6.53,32.05-19.69,64.16-39.3,96.31-58.84,2.11-1.28,4.61-1.91,8.91-3.64-3.6,14.56-6.72,27.18-10.19,41.2,4.35-1.3,7.43-2.08,10.42-3.13,34.54-12.1,69.06-24.27,103.62-36.34,3.58-1.25,7.35-1.95,11.03-2.9.43,1.04.85,2.09,1.28,3.13Z"/>
  <path class="st0" d="M1929.99,1036.18c.42,3.91,1.05,5.61.7,7.07-9.34,38.84-18.77,77.66-28.27,116.46-.27,1.11-1.46,1.99-3.14,4.16-7.18-11.97-13.87-23.12-21.56-35.92-10.42,21.58-19.8,41.31-29.44,60.92-9.45,19.24-17.75,39.08-28.42,57.69-.84-.16-1.68-.31-2.52-.47-.15-2.3-.64-4.63-.41-6.89,2.16-20.87,4.48-41.72,6.67-62.59.43-4.12.55-8.28.81-12.42-.68-.23-1.35-.45-2.03-.68-22.81,30.85-45.62,61.7-68.43,92.54-.57-.18-1.14-.37-1.71-.55,0-2.02-.45-4.17.07-6.05,10.27-37.57,20.72-75.1,30.9-112.69,1.27-4.7,3.46-7.36,8.14-8.9,4.02-1.32,7.81-3.64,11.36-6.03,38.96-26.25,77.85-52.6,116.77-78.9,2.94-1.99,5.97-3.84,10.51-6.76Z"/>
  <path class="st0" d="M1598.16,640.68c-2.83-.59-5.69-1.03-8.48-1.79-35.62-9.71-71.2-19.58-106.87-29.12-6.61-1.77-11.37-4.35-12.9-11.7-.64-3.06-3.11-5.8-4.96-8.55-26.27-38.9-52.58-77.77-78.86-116.65-2.03-3-3.93-6.1-6-9.34,4.09-4.4,8.44-1.83,12.25-.95,19.77,4.58,39.46,9.48,59.18,14.28,15.19,3.69,30.4,7.34,45.56,11.13,3.02.75,5.89,2.09,11.03,3.95-13.27,7.97-24.44,14.68-37.24,22.36,9.38,4.52,17.04,8.23,24.7,11.92,8.09,3.9,16.19,7.79,24.29,11.68,7.8,3.75,15.59,7.5,23.39,11.24,8.1,3.89,16.3,7.58,24.27,11.72,7.4,3.84,15.78,6.11,21.7,13.13-27.55,0-54.52-4.84-83.58-6.51,7.64,8.44,16.01,13.04,23.42,18.78,7.89,6.12,16.03,11.91,24.06,17.85,7.76,5.74,15.53,11.48,23.29,17.22,7.65,5.66,15.3,11.31,22.95,16.97-.4.79-.8,1.58-1.19,2.37Z"/>
  <path class="st0" d="M1527.84,1498.73c22.15-17.96,43.49-35.26,64.83-52.56-.29-.6-.58-1.19-.86-1.79-38.39,5.72-76.79,11.43-115.18,17.15-.26-.69-.51-1.37-.77-2.06,1.64-1.29,3.15-2.82,4.95-3.85,33.53-19.16,67.12-38.21,100.61-57.43,4.41-2.53,8.04-2.35,13.02-.82,11.69,3.6,23.79,6.01,35.83,8.37,39.18,7.67,78.42,15.1,117.62,22.67,2.54.49,5,1.44,9.22,2.69-2.9,2.78-4.62,5.12-6.91,6.52-32.34,19.87-64.75,39.62-97.18,59.33-1.85,1.13-4.12,1.57-8.08,3.03,3.43-14.18,6.49-26.8,9.96-41.15-5.49,1.76-9.2,2.85-12.83,4.12-34.23,12-68.43,24.06-102.68,35.98-3.15,1.1-6.43,3.81-11.54-.19Z"/>
  <path class="st0" d="M1799.34,1315.35c-34.08,30.05-66.06,59.29-98.7,88.06-3.93-4.8-.75-7.11.45-9.37,10.18-19.08,20.59-38.05,30.91-57.06,1.56-2.89,2.99-5.85,3.91-9.53-17.31,8.81-33.65,19.11-50.23,28.98-16.75,9.97-33.41,20.1-50.1,30.16-.49-.47-.98-.94-1.47-1.41.7-1.55,1.13-3.31,2.15-4.62,24.05-31.06,48.12-62.11,72.37-93.02,1.85-2.36,5.17-5.22,7.7-5.12,15.28.6,29.58-4.36,44.19-7.2,37.22-7.23,74.31-15.19,111.46-22.81,3.09-.63,6.26-.89,9.77-1.37-1.51,8.24-33.72,54.42-68.94,99.65-1.66,2.13-3.82,3.88-7.22,7.28-2.21-15.02-4.07-27.69-6.26-42.6Z"/>
  <path class="st0" d="M835.14,884.21c7.82,13.11,14.41,24.16,21.77,36.5,2.05-3.77,3.66-6.44,5.01-9.23,16.02-33.27,32-66.57,48.03-99.84,1.52-3.16,3.39-6.15,5.37-9.7,4.37,3.34,2.77,6.87,2.48,9.81-2.14,21.52-4.5,43.02-6.77,64.53-.31,2.95-.57,5.91-.98,10.21,7.43-5.4,10.76-12.64,15.52-18.6,4.78-5.98,9.15-12.27,13.7-18.43,4.75-6.43,9.49-12.86,14.23-19.28,4.55-6.16,9.1-12.32,13.65-18.47,4.68-6.33,9.37-12.66,15.86-18.36,0,1.65.36,3.39-.05,4.92-10.31,37.87-20.78,75.69-31.01,113.58-1.35,5.02-3.75,7.99-8.83,9.54-3.71,1.14-7.19,3.37-10.46,5.57-39.2,26.4-78.34,52.9-117.51,79.36-2.93,1.98-5.96,3.83-10.71,6.87,0-4.45-.48-7,.07-9.31,8.94-37.19,18-74.35,27.12-111.5.52-2.13,1.74-4.09,3.52-8.17Z"/>
  <path class="st0" d="M1787.47,801.16c5.66,38,11.32,75.99,17.27,116-2.81-2.17-4.36-2.81-5.01-3.96-19.86-34.7-39.68-69.42-59.3-104.26-1.29-2.29-1.77-5.7-1.19-8.27,2.6-11.63,6.23-23.05,8.56-34.73,8.21-41.15,16.02-82.37,24.02-123.56.36-1.88,1.02-3.69,2.08-7.46,2.84,2.89,5.17,4.54,6.55,6.77,19.89,32.36,39.67,64.79,59.4,97.25,1.12,1.84,1.52,4.11,2.92,8.06-14.21-3.42-26.86-6.47-41.18-9.92,14.43,42.81,29.49,83.43,43.35,124.65-5.57,1.69-6.68-1.86-8.36-3.91-13.51-16.51-26.88-33.13-40.31-49.7-2.07-2.56-4.25-5.03-6.37-7.55-.8.2-1.61.4-2.41.59Z"/>
  <path class="st0" d="M1355.54,1586.85c-9.82,1.07-79.48-14.6-119.43-26.24-2.34-.68-4.53-1.87-8.92-3.71,13.1-7.86,24.31-14.58,36.42-21.84-39.83-19.71-78.51-38.84-117.15-58.04-.25-.12-.03-1.2-.03-3.12,27.37,1.37,54.45,5.81,82.23,7.01-7.04-6.95-15.15-12.46-22.96-18.32-7.72-5.8-15.54-11.48-23.31-17.22-8.04-5.94-16.09-11.86-24.1-17.82-7.59-5.65-15.15-11.34-22.72-17.01.31-.6.62-1.21.93-1.81,1.75.15,3.58.03,5.24.48,37.57,10.24,75.11,20.59,112.69,30.79,4.82,1.31,8.33,3.16,9.76,8.57.99,3.73,3.32,7.21,5.53,10.48,26.42,39.23,52.94,78.39,79.41,117.58,1.98,2.92,3.76,5.98,6.41,10.21Z"/>
  <path class="st0" d="M960.74,1414.1c-2.87-3.08-5.14-4.85-6.55-7.15-19.69-32.07-39.28-64.21-58.81-96.38-1.25-2.06-1.82-4.55-3.43-8.74,14.34,3.59,26.73,6.7,40.71,10.2-.9-3.56-1.38-6.26-2.27-8.81-12.39-35.52-24.87-71-37.24-106.52-1.12-3.22-3.44-6.46-.91-11.12,7.92,6,12.58,14.05,18.47,20.92,6.07,7.08,11.75,14.49,17.65,21.72,5.81,7.13,11.68,14.21,19.23,20.47-5.72-38.4-11.43-76.79-17.15-115.18.71-.25,1.41-.49,2.12-.74,1.28,1.68,2.76,3.23,3.8,5.05,19.16,33.55,38.22,67.15,57.44,100.66,2.53,4.41,2.39,8.02.83,13.02-3.63,11.69-6.03,23.8-8.39,35.84-7.67,39.2-15.09,78.45-22.67,117.67-.48,2.5-1.5,4.89-2.83,9.1Z"/>
  <path class="st0" d="M852.64,798.01c2.68-9.11,40.61-63.05,69.74-100,1.52-1.93,3.54-3.46,6.8-6.6,2.3,14.76,4.29,27.57,6.57,42.16,33.93-29.93,65.93-59.16,100.08-89.27.5,10.34-4.97,15.39-7.81,21.4-2.98,6.31-6.59,12.33-9.92,18.47-3.33,6.14-6.68,12.28-10,18.43-3.26,6.03-6.5,12.08-9.02,18.89,34.13-18.88,67.11-39.33,100.49-59.05.49.59.97,1.17,1.46,1.76-.87,1.57-1.56,3.28-2.65,4.68-23.87,30.79-47.83,61.52-71.64,92.36-2.85,3.69-5.68,6.06-10.79,5.47-3.53-.41-7.28.23-10.82.94-47.94,9.69-95.87,19.49-143.8,29.22-2.5.51-5.08.67-8.69,1.14Z"/>
  <path class="st0" d="M1842.23,978.73c-11.1,37.36-19.32,75.08-29.53,112.25l-2.55-.17c-1.28-9-2.66-17.99-3.81-27.01-3.95-31.03-7.75-62.07-11.76-93.09-.68-5.27-.51-9.58,4.36-13.2,3.08-2.29,5.35-5.86,7.53-9.15,26.11-39.4,52.13-78.87,78.2-118.3,1.94-2.94,4.08-5.75,7.6-10.69,1.7,5.17,3.08,8.01,3.56,11,5.86,36.8,11.61,73.61,17.31,110.44.37,2.4.05,4.9.05,9.77-12.25-9.11-22.66-16.86-34.54-25.69-.84,12.42-1.67,22.88-2.24,33.36-1.63,29.92-3.11,59.84-4.77,89.75-.17,2.98-1.11,5.93-3.04,8.92-10.38-25.74-16.88-52.34-26.36-78.2Z"/>
  <path class="st0" d="M867.5,992.07c5.47,12.59,8.22,26.14,12.34,39.19,4.18,13.22,7.97,26.57,11.93,39.86l1.98-.13c9.38-37.53,18.76-75.07,28.64-114.63,1.84,3.03,3.03,4.12,3.19,5.35,4.89,38.63,9.61,77.29,14.56,115.92.78,6.06.38,10.91-5.23,14.81-2.85,1.98-4.7,5.53-6.7,8.56-26.09,39.43-52.12,78.9-78.2,118.34-1.93,2.93-4.1,5.7-7.04,9.77-1.58-3.63-2.77-5.56-3.28-7.66-4.63-18.95-18.08-113.02-17.22-120.89,6.76,1.62,10.91,7.05,16.18,10.58,5.47,3.66,10.62,7.82,17.56,12.99.56-6.49,1.09-11.26,1.36-16.05,2.01-35.57,3.94-71.15,5.97-106.72.17-3.04.81-6.06,1.23-9.09.91-.07,1.82-.14,2.73-.21Z"/>
  <path class="st0" d="M1334.64,1524.43c26.34-9.37,53.39-15.57,79.54-26.12-37.77-9.45-75.54-18.89-113.31-28.34.03-.63.06-1.25.09-1.88,1.69-.64,3.34-1.63,5.09-1.86,36.65-4.68,73.3-9.28,109.96-13.87,2.64-.33,5.33-.36,7.95-.79,3.95-.66,6.9.42,9.73,3.47,3.12,3.36,6.78,6.36,10.61,8.9,39.4,26.14,78.88,52.14,118.33,78.21,2.67,1.76,5.19,3.76,9.79,7.12-5.56,1.76-8.99,3.31-12.58,3.91-17.4,2.9-34.84,5.56-52.26,8.29-17.43,2.73-34.85,5.5-52.29,8.14-3.54.54-7.15.59-11.58.93,1.29-7.96,6.99-11.97,10.44-17.26,3.59-5.51,7.78-10.64,12.82-17.43-6.41-.58-11.2-1.16-16-1.43-35.57-2.01-71.15-3.93-106.71-6-3.04-.18-6.82,1.24-9.61-3.98Z"/>
  <path class="st0" d="M1740.15,1397.57c15.04-14.71,28.51-27.9,42.73-41.82.84,1.76,2.64,4.12,3.09,6.72,3.29,19.08,14.14,33,28.68,45.07,10.74,8.92,20.38,19.15,30.54,28.76,2.33,2.21,4.79,4.27,8.6,5.54-9.34-22.87-18.68-45.73-28.02-68.6.47-.36.93-.72,1.4-1.09,1.4.92,3.11,1.57,4.11,2.81,1.66,2.05,2.94,4.43,4.24,6.75,27.85,49.27,55.68,98.55,83.49,147.84,1.52,2.69,2.77,5.52,4.15,8.28-.68.62-1.36,1.23-2.04,1.85-52.04-29.98-104.08-59.96-156.08-90.01-1.22-.7-1.91-2.31-2.86-3.5,3.17-3.64,5.9-1.58,8.51-.61,16.84,6.26,33.67,12.58,50.5,18.87,2.69,1.01,5.4,1.98,8.87,1.71-1.88-2.13-3.67-4.35-5.66-6.37-15.15-15.46-30.43-30.8-45.47-46.37-3.84-3.98-8.08-6.54-13.45-7.96-8.23-2.17-16.29-5.01-25.36-7.87Z"/>
  <path class="st0" d="M882.87,606.28c7.23,24.24,17.6,46.73,26.19,69.88-.76.42-1.51.84-2.27,1.26-1.75-2.13-3.85-4.07-5.2-6.43-29.38-51.82-58.68-103.69-87.95-155.56-.73-1.3-1.02-2.85-2.05-5.85,3.44,1.28,5.57,1.75,7.37,2.79,49.05,28.19,98.08,56.41,147.07,84.72,2.74,1.58,7.32,2.42,4.98,8.91-21.9-8.16-43.48-16.2-65.06-24.24-.28.43-.55.87-.83,1.3,1.58,1.88,3.05,3.86,4.76,5.61,15.37,15.7,30.9,31.25,46.12,47.09,3.86,4.01,8.22,6.38,13.42,7.98,8.14,2.5,16.82,3.6,25.64,9.04-13.9,14.59-27.58,28.21-41.69,42.18-4.96-6.27-6.07-12.6-7.56-18.57-2.6-10.36-7.82-18.52-15.86-25.71-16.08-14.37-31.44-29.55-47.09-44.4Z"/>
  <path class="st0" d="M1602.59,497.66c-.93-22.92-1.87-45.84-2.8-68.76-.48-.1-.95-.2-1.43-.3-1.15,2.22-2.45,4.38-3.43,6.67-8.75,20.5-17.62,40.96-26,61.61-1.65,4.07-1.95,8.96-1.8,13.43.24,6.96,1.49,13.89,2.11,20.85.16,1.84-.46,3.74-.94,7.15-18.68-7.67-36.76-14.39-56.15-23.59,7.14-6.03,12.65-11.21,18.71-15.65,6.46-4.73,10.4-10.72,13.12-18.2,6.68-18.45,13.98-36.68,20.98-55.02,1.14-2.98,2.06-6.05,2.33-9.53-18.37,16.85-35.75,34.41-54.06,51.13-.9-5.63,2.67-8.83,5.39-12.32,34.42-44.09,68.89-88.14,103.36-132.18,2.18-2.78,4.49-5.46,7.74-7.82,1.02,15.7-2.47,30.75-4.07,45.94-1.64,15.55-3.95,31.02-5.98,46.53-1.98,15.18-3.68,30.4-6.03,45.52-2.34,15.03-2.9,30.44-6.71,45.19-1.45-.22-2.89-.43-4.34-.65Z"/>
  <path class="st0" d="M1103.48,1733.08c7.74-59.53,15.47-119.07,23.31-178.59.18-1.35,1.68-2.53,3.81-5.58.98,4.05,1.93,6.3,2.02,8.59.7,17.63,1.21,35.27,1.84,52.9.11,3.17.52,6.34,2.28,9.69,1.02-1.91,2.2-3.76,3.04-5.74,8.74-20.51,17.18-41.14,26.25-61.51,3.25-7.3,1.7-14.33,1.16-21.54-.47-6.21-1.11-12.41-1.86-20.76,19.81,7.26,37.27,14.9,55.88,22.59-1.75,2.6-2.91,4.39-4.15,6.11-.38.52-.97.92-1.53,1.27-16.48,10.15-25.16,25.53-30.75,43.61-4.31,13.95-10.32,27.39-15.55,41.06-.92,2.39-1.74,4.82-1.06,8.34,17.5-17.42,35.01-34.83,52.51-52.25.61.39,1.23.77,1.84,1.16-.57,1.86-.72,4.01-1.78,5.53-3.24,4.63-6.81,9.03-10.3,13.49-32.19,41.18-64.38,82.36-96.58,123.54-2.41,3.08-4.89,6.11-7.35,9.16-1.02-.35-2.03-.71-3.05-1.06Z"/>
  <path class="st0" d="M905.17,1282.53c-8.88-.69-15.48-.85-21.97-1.79-9.16-1.32-17.55-.28-26.09,3.84-17.09,8.25-34.62,15.59-51.95,23.33-2.98,1.33-5.91,2.77-8.77,4.91,12.37,2.08,24.76,1.16,37.08,1.36,12.15.2,24.3.07,38.27.09-3.41,4.95-6.61,5.2-9.77,5.58-44.64,5.42-89.28,10.84-133.92,16.28-13.23,1.61-26.44,3.3-39.67,4.88-2.5.3-5.04.28-7.37.39-.33-1.02-.5-1.33-.51-1.65-.02-.31.02-.77.21-.92,46.59-36.12,93.2-72.21,139.82-108.3,1.05-.81,2.17-1.56,3.34-2.18.53-.28,1.27-.21,1.92-.22.31,0,.65.13.92.3.28.17.5.44,1.65,1.5-3.35,6.96-9.83,11.7-14.9,17.48-5.06,5.76-10.44,11.23-15.67,16.83-5.41,5.78-10.81,11.57-15.26,18.87,2.65-.99,5.33-1.92,7.95-2.98,20.08-8.08,40.11-16.31,60.26-24.22,5.15-2.02,9.09-5.03,12.53-9.34,5.31-6.66,10.02-13.94,18.01-20.51,8.49,18.46,15.43,36.21,23.9,56.45Z"/>
  <path class="st0" d="M790.83,1008.81c-20.5,10.3-41.86,18.94-62.18,30.74,2.47.13,4.94.36,7.41.37,22,.15,43.99.14,65.99.48,5.57.09,10.35-1.22,15.11-4,7.09-4.14,14.48-7.77,21.81-11.66,3.17,7.3,4.1,41.83,1.86,59.61-2.85-.92-5.87-1.18-7.98-2.7-16.09-11.64-34.11-13.29-53.19-11.73-14.26,1.17-28.63.98-42.96,1.46-2.23.07-4.44.44-7.16,2.34,22.46,9.45,44.92,18.9,68.23,28.71-3.73,3.71-7.03,2.2-9.93,1.48-7.11-1.75-14.13-3.87-21.19-5.82-48.45-13.44-96.9-26.86-145.34-40.33-3.1-.86-6.12-2.04-11.07-3.7,3.32-1.84,4.97-3.24,6.87-3.75,54.96-14.85,109.94-29.65,164.96-44.31,2.65-.71,6.34-3.68,8.75,2.79Z"/>
  <path class="st0" d="M1052.72,337.12c1.9,2.17,3.92,4.24,5.67,6.52,33.74,43.8,67.45,87.63,101.16,131.46,1.42,1.84,3.03,3.65,3.94,5.73.48,1.11-.34,2.79-.94,6.43-17.96-16.71-34.6-32.19-51.24-47.67-.49.34-.98.68-1.48,1.02.71,2.41,1.22,4.89,2.15,7.2,8.17,20.39,16.26,40.82,24.76,61.08,1.59,3.78,4.47,7.29,7.49,10.15,4.82,4.57,10.32,8.42,15.4,12.72,1.9,1.61,3.46,3.63,6.42,6.81-18.89,7.95-36.43,15.33-54.61,22.98-2.78-6.89-1.57-12.58-.59-17.83,2.16-11.62.35-22.08-4.84-32.76-9.16-18.83-17.24-38.18-26.61-59.2-2.78,9.83-1.24,17.92-1.53,25.85-.3,8.32-.09,16.65-.09,24.98,0,8.15,0,16.29,0,26.54-4.79-3.77-5.24-6.85-5.62-10-5.36-43.95-10.72-87.9-16.09-131.85-1.69-13.88-3.41-27.76-5.06-41.64-.3-2.53-.34-5.09-.5-7.63.74-.29,1.48-.57,2.22-.86Z"/>
  <path class="st0" d="M758.59,825.35c17.44,17.54,34.88,35.07,52.32,52.61-.58.79-1.16,1.57-1.75,2.36-2.92-1.69-6.09-3.06-8.72-5.11-45.97-35.84-91.87-71.77-137.79-107.68-1.76-1.37-3.58-2.67-4.75-5.25,31.5,1.43,62.13,6.18,92.82,10.21,30.23,3.97,60.67,6.99,90.57,14.17-7.16,4.52-14.79,3.09-22.13,3.6-7.97.56-15.97.87-23.96,1.06-7.61.17-15.23.04-22.85.04-.16.66-.33,1.31-.49,1.97,1.75,1.08,3.39,2.41,5.25,3.21,21.11,9.06,42.18,18.19,63.44,26.88,3.76,1.54,8.35,1.69,12.51,1.5,6.97-.31,13.9-1.51,20.86-2.13,1.84-.16,3.74.42,7.29.87-7.54,18.55-14.72,36.22-22.66,55.73-3.53-3.5-6.48-5.56-8.29-8.35-9.52-14.68-23.15-22.97-39.63-28.13-14.26-4.47-28-10.61-41.99-15.95-2.99-1.14-6.08-2.04-9.13-3.06l-.94,1.45Z"/>
  <path class="st0" d="M1414.45,1662.65c12.16-21.97,20.37-45.32,30.9-67.59.89.23,1.77.46,2.66.69-.43,3.02-.54,6.13-1.35,9.04-15.59,56.48-31.25,112.94-46.96,169.39-.57,2.06-1.8,3.93-2.89,6.26-3.62-5.68-47.17-161.61-48.77-174.11-.18-1.42.48-2.94.81-4.73,5.01.56,5.43,4.43,6.69,7.15,6.99,15.11,13.76,30.32,20.67,45.47,1.31,2.87,2.89,5.62,5.77,8.12.25-2.46.68-4.92.72-7.38.33-21.66.44-43.32.96-64.97.12-5.26-1.24-9.72-3.77-14.17-4.24-7.47-8.22-15.09-13.28-24.45,21.08-2.07,40.35-.73,61.71-1.23-2.28,5.28-3.23,9.12-5.36,12.14-9.99,14.14-11.63,29.73-10.3,46.52,1.42,17.88,1.26,35.89,1.79,53.84Z"/>
  <path class="st0" d="M853.41,1579.91c1.65-6.55,81.38-147.77,88.9-157.73.87-1.16,2.41-1.81,5.83-4.28-.72,4.64-.7,7.04-1.47,9.15-5.86,15.94-11.9,31.81-17.84,47.71-1.38,3.69-2.63,7.43-4.66,13.17,3.16-2.38,4.94-3.45,6.39-4.86,15.97-15.6,31.82-31.33,47.87-46.85,3.95-3.82,6.7-7.94,8.07-13.38,2.1-8.31,4.94-16.44,7.51-24.77,7.6,3.54,37.64,32.97,42.97,42.05-4.41,1.61-8.52,3.69-12.87,4.58-13.96,2.85-24.72,10.12-33.95,20.98-10.56,12.42-22.35,23.8-33.57,35.66-2.25,2.38-4.37,4.89-6.11,8.15,23.46-7.47,45.56-18.34,68.66-26.41.42.75.84,1.5,1.26,2.24-2.46,1.91-4.73,4.15-7.41,5.67-51.29,29.07-102.63,58.07-153.98,87.03-1.55.87-3.42,1.18-5.59,1.89Z"/>
  <path class="st0" d="M2075.86,1288.71c-59.93-7.99-119.86-15.97-179.78-24.07-.87-.12-1.55-1.71-3.74-4.28,24.46-3.11,47.51-1.54,70.53-5.26-2.83-1.38-5.62-2.88-8.51-4.12-17.44-7.45-35.15-14.33-52.26-22.46-9.6-4.56-18.96-5.16-29.04-3.62-5.81.89-11.74,1.07-17.82,1.59,1.02-9.45,17.07-48.52,23.03-55.82,4.39,5.1,9.07,9.74,12.78,15.04,5.8,8.28,13.54,13.09,22.96,16.44,18.17,6.46,36.07,13.72,54.08,20.64,2.4.92,4.83,1.78,7.84,1.88-16.89-18.44-34.54-35.95-51.98-53.66l1.61-2.12c2.47,1.23,5.24,2.08,7.37,3.75,46.99,36.64,93.92,73.37,140.83,110.13,1.19.93,2.06,2.29,3.07,3.45l-.98,2.51Z"/>
  <path class="st0" d="M1740.03,650.77c-6.67-3.61-34.07-30.1-42.46-41.16,2.73-1.29,5.1-3.08,7.72-3.55,18.99-3.43,33.11-13.95,45.14-28.65,8.84-10.8,19.16-20.4,28.78-30.57,2.19-2.32,4.22-4.78,5.42-8.55-22.92,9.34-45.83,18.68-70.67,28.81,2.45-6.94,6.92-8.45,10.63-10.55,35.65-20.21,71.34-40.35,107.02-60.51,13.34-7.54,26.68-15.08,40.05-22.59,2.85-1.6,5.78-3.04,10.61-5.57-1.18,3.87-1.42,6-2.4,7.7-28.37,49.41-56.8,98.78-85.3,148.12-1.47,2.55-2.28,6.55-8.42,4.86,7.2-22.25,16.48-43.4,24.65-67.59-3.71,2.97-5.69,4.3-7.36,5.94-15.73,15.38-31.31,30.91-47.18,46.14-4.02,3.86-6.37,8.24-7.98,13.45-2.52,8.14-3.58,16.83-8.25,24.28Z"/>
  <path class="st0" d="M1366.83,497.98h-59.53c1.42-3.69,1.98-6.91,3.7-9.32,10.42-14.64,12.53-30.89,11.17-48.36-1.22-15.6-1.06-31.31-1.56-46.96-.07-2.22-.44-4.43-2.22-7.03-4.72,11.19-9.46,22.37-14.16,33.57-4.76,11.31-9.48,22.64-15.86,33.85-.35-1.61-1.14-3.28-.95-4.83.36-2.95,1.18-5.86,1.97-8.75,14.93-53.92,29.87-107.83,44.85-161.74.93-3.36,2.21-6.63,4.57-9.91,17.17,58.67,33.23,117.26,48.38,176.1.22.84-1.16,2.09-2.69,4.65-6.9-10.76-10.62-21.69-15.53-31.97-4.98-10.45-9.67-21.05-16.11-31.4-.26,2.04-.74,4.07-.76,6.11-.18,22.33-.16,44.67-.51,67-.09,5.56,1.09,10.41,3.96,15.13,3.11,5.12,5.88,10.45,8.57,15.81,1.11,2.22,1.63,4.74,2.72,8.04Z"/>
  <path class="st0" d="M1938.2,734.73h-73.94c1.91-5.48,5.65-4.92,8.65-5.31,19.47-2.52,38.96-4.94,58.45-7.34,36.33-4.48,72.67-8.95,109.01-13.39,4.51-.55,9.04-.87,13.32-1.27.41,1.44.57,1.76.58,2.08.01.31-.01.76-.21.91-46.57,36.07-93.16,72.11-139.76,108.15-1.05.81-2.15,1.58-3.31,2.21-.53.29-1.26.25-1.9.25-.3,0-.63-.19-.91-.37-.28-.18-.5-.44-1.35-1.22,2.7-7.46,9.58-11.85,14.56-17.65,4.99-5.8,10.43-11.22,15.65-16.82,5.43-5.83,10.85-11.67,17.72-19.08-4.08,1.07-6.22,1.39-8.18,2.18-21.3,8.56-42.64,17.05-63.81,25.95-3.77,1.59-7.3,4.5-10.07,7.58-5.96,6.62-11.35,13.75-18.33,22.35-9.22-19.2-16.3-37.09-23.74-56.14,3.51-.39,5.67-.95,7.77-.8,7.63.55,15.24,1.52,22.88,1.93,2.88.16,6.09-.15,8.69-1.29,22.26-9.73,44.41-19.7,66.6-29.59.87-.39,1.76-.71,2.65-1.07-.34-.76-.68-1.51-1.01-2.27Z"/>
  <path class="st0" d="M1684.63,1712.89c-9.79-8.11-111.05-140.5-113.45-147.46,3.51-3.39,5.35.23,7.27,2,12.48,11.52,24.83,23.17,37.24,34.76,2.86,2.67,5.81,5.26,9.95,7.06-.9-2.71-1.66-5.48-2.72-8.13-8.07-20.06-16.32-40.06-24.24-60.18-1.9-4.83-4.71-8.51-8.67-11.81-6.78-5.65-14.67-10.18-20.82-18.74,18.41-7.74,36.01-15.14,54.64-22.98.56,3.22,1.62,5.47,1.2,7.4-4.34,19.79-.24,37.86,9.29,55.51,6.78,12.55,11.82,26.04,17.7,39.09,1.01,2.25,2.35,4.35,5.29,6.12v-73.21c.82-.2,1.64-.4,2.46-.61.86,2.05,2.21,4.02,2.5,6.15,2.02,14.84,3.86,29.7,5.69,44.56,5.13,41.61,10.24,83.22,15.32,124.84.55,4.55.81,9.14,1.36,15.64Z"/>
  <path class="st0" d="M1943.92,1040.14c20.64-9.48,41.29-18.96,61.93-28.44-.02-.51-.05-1.03-.07-1.54-2.06-.29-4.11-.82-6.17-.85-22.3-.34-44.61-.79-66.92-.72-4.41.01-9.11,1.45-13.16,3.34-8.03,3.75-15.69,8.27-25.2,13.38-1.47-21.27-.64-40.53-.99-61.9,6.89,3.34,12.12,5.3,16.74,8.22,10.54,6.65,21.66,8.83,34.14,7.98,20.24-1.37,40.56-1.46,62.86-2.16-3.08-2.01-4.61-3.37-6.4-4.13-18.08-7.65-36.2-15.17-54.29-22.8-2.86-1.21-5.59-2.73-8.38-4.11.24-.79.47-1.57.71-2.36,3.02.42,6.13.5,9.05,1.31,56.44,15.57,112.85,31.22,169.25,46.9,2.14.59,4.12,1.72,6.28,3.59-29.51,10.08-59.65,17.44-89.58,25.5-29.43,7.92-58.73,16.57-88.45,23.33l-1.35-4.54Z"/>
  <path class="st0" d="M2308.73,669.88c1.62,4.93,2.65,8.04,4,12.15-3.5,1.53-6.69,3.04-9.98,4.33-25.72,10.1-51.41,20.28-77.23,30.12-5.86,2.23-8.91,5.4-10.28,11.83-3.58,16.89-8.11,33.59-12.49,51.29,3.64,1.58,6.84,3.09,10.14,4.37,31.04,12.03,62.06,24.12,93.19,35.93,5.33,2.02,8.82,4.97,11.22,10.26,6.05,13.34,12.71,26.4,19.07,39.6,1.39,2.88,2.56,5.88,4.5,10.39-38.4,2.53-75.21,4.98-112.03,7.3-1.46.09-2.99-1-6.22-2.17,3.02-2.98,5.07-5.29,7.41-7.26,17.6-14.79,35.26-29.51,52.87-44.28,2.46-2.06,4.76-4.31,8.17-7.41-36.96-13.13-72.61-25.79-108.69-38.61.39-3.01.45-5.28,1-7.41,5.5-21.27,11.24-42.48,16.52-63.8,1.36-5.5,4.23-8.35,9.4-10.3,29.59-11.15,59.07-22.62,88.63-33.85,3.23-1.23,6.79-1.58,10.8-2.48Z"/>
  <path class="st0" d="M1904.09,1802.44c-2.06-39.67-4.02-77.39-6-115.47,3.33-.99,5.76-2.05,8.29-2.41,20.78-2.9,41.61-5.47,62.35-8.61,7-1.06,11.71.91,16.53,6.11,20.6,22.25,41.65,44.08,62.52,66.09,9.08,9.57,9.03,9.76-2.73,18.31-2.42-2.41-4.99-4.9-7.47-7.47-19.18-19.92-38.42-39.8-57.46-59.86-3.72-3.92-7.31-6-13.02-5.01-17.37,3.02-34.82,5.53-53.39,8.42-.11,3.64-.36,7.15-.28,10.65.73,32.65,1.37,65.3,2.4,97.94.22,7.06-1.26,12.51-6.37,17.86-11.71,12.25-22.64,25.24-34.51,38.63-1.96-2.19-3.83-3.56-4.74-5.4-15.08-30.44-30.08-60.92-44.96-91.45-1.17-2.4-1.39-5.27-2.05-7.91.65-.5,1.3-1.01,1.95-1.51,25.77,13.42,51.55,26.83,78.96,41.1Z"/>
  <path class="st0" d="M854.24,1817.96c35.8-17.07,69.92-33.33,104.49-49.82,2.06,2.76,3.8,4.71,5.1,6.92,10.96,18.65,21.65,37.46,32.86,55.96,2.98,4.91,2.84,8.83.57,13.84-13.05,28.79-25.78,57.72-38.74,86.55-1.42,3.16-3.66,5.96-5.77,9.32-4.13-1.99-7.33-3.54-11.48-5.55,1.37-3.53,2.54-6.86,3.94-10.08,11.14-25.63,22.21-51.3,33.6-76.82,2.24-5.02,2.37-8.93-.69-13.75-9.59-15.13-18.68-30.58-28.16-46.23-4.05,1.63-7.42,2.88-10.7,4.32-30.43,13.45-60.87,26.88-91.24,40.48-4.8,2.15-9,2.72-14.19.75-14.3-5.44-28.86-10.17-43.3-15.23-2.46-.86-4.83-1.98-8.41-3.46,5.44-8.85,12.57-15.34,18.68-22.58,6.44-7.63,13.16-15.03,19.76-22.53,6.38-7.25,12.61-14.63,19.17-21.71,6.36-6.86,11.48-15.08,20.67-19.73-.31,29.43-4.06,58.24-6.16,89.34Z"/>
  <path class="st0" d="M2145.37,487.93c-39.76,2.06-77.45,4.01-116.39,6.03-1.69-11.52-3.32-22.25-4.82-33.01-1.69-12.19-2.74-24.51-5.07-36.57-1.43-7.38.04-12.27,5.69-17.47,22.29-20.52,44.07-41.59,66.04-62.45q9.63-9.14,18.76,1.99c-2.32,2.44-4.67,5.11-7.21,7.56-19.41,18.73-38.7,37.58-58.38,56.01-5.55,5.2-8.23,9.9-6.45,18.06,3.11,14.27,4.54,28.91,6.77,43.37.34,2.22,1.18,4.37,1.95,7.16,3.54,0,6.81.07,10.07-.01,32.62-.75,65.24-1.38,97.85-2.41,7.07-.22,12.52,1.25,17.81,6.41,9.99,9.76,20.82,18.66,31.25,27.97,2.39,2.13,4.59,4.48,8.21,8.04-34.16,17.14-67.22,33.28-100.32,49.31-1.51.73-3.68.09-7.44.09,14.01-26.91,27.4-52.65,41.68-80.09Z"/>
  <path class="st0" d="M2111.1,1433.2c2.86-2.09,4.83-3.82,7.05-5.12,18.67-10.96,37.48-21.68,56.02-32.86,4.53-2.73,8.18-2.96,12.93-.8,29.12,13.19,58.37,26.07,87.52,39.19,3.13,1.41,5.84,3.75,9.06,5.86-2.07,4.2-3.64,7.38-5.61,11.38-3.37-1.34-6.42-2.45-9.39-3.74-25.64-11.16-51.38-22.13-76.83-33.72-5.96-2.71-10.24-2.18-15.54,1.19-14.58,9.28-29.49,18.03-44.96,27.4,1.33,3.43,2.37,6.48,3.67,9.42,13.45,30.46,26.81,60.96,40.53,91.3,2.67,5.91,2.95,11.02.63,17.11-5.11,13.36-9.45,27.02-14.17,40.54-.96,2.76-2.17,5.44-3.56,8.89-9.56-4.19-15.48-12.01-22.76-17.96-7.73-6.32-15.08-13.12-22.59-19.72-7.26-6.38-14.72-12.55-21.7-19.21-6.76-6.45-15.44-11.14-21.4-21.94,31.18,1.5,59.99,5.36,90.78,7.25-16.85-35.44-33.17-69.76-49.67-104.46Z"/>
  <path class="st0" d="M1611.98,1859.81c-8.95,23.11-17.49,45.13-26.01,67.16-4.93,12.73-9.67,25.54-14.87,38.16-1.16,2.81-3.38,5.94-5.97,7.26-15.71,8.04-31.66,15.62-47.55,23.29-1.13.55-2.5.59-4.86,1.11-2.98-12.97-2.4-25.88-3.38-38.6-1-12.95-2.38-25.9-2.69-38.88-.3-12.64-3.27-25.36.26-38.49,20.34,21.37,38.38,44.26,58.64,67.57,13.1-36.86,25.74-72.42,38.59-108.57,2.97.22,5.63.02,8.08.65,21.27,5.52,42.43,11.47,63.78,16.62,5.92,1.43,8.03,4.91,9.89,9.78,11.03,28.94,22.08,57.87,33.33,86.71,4.23,10.84,3.94,13.95-9.58,15.65-1.2-2.79-2.58-5.75-3.77-8.77-10.23-26.03-20.58-52.02-30.49-78.17-2.12-5.6-5.25-8.54-11.02-9.85-17.15-3.91-34.22-8.21-52.39-12.63Z"/>
  <path class="st0" d="M552.58,1261.35c-.53,3.59-.7,6.52-1.42,9.32-5.35,20.61-11.02,41.15-16.12,61.83-1.37,5.54-4.15,8.3-9.35,10.26-28.97,10.89-57.81,22.14-86.72,33.22-12.48,4.78-12.59,4.67-16.47-8.92,2.51-1.16,5.08-2.5,7.77-3.56,26.32-10.39,52.57-20.93,79.03-30.93,5.99-2.26,9.06-5.41,10.44-11.67,3.71-16.87,8.04-33.6,12.37-51.38-3.08-1.36-5.94-2.75-8.9-3.9-31.34-12.16-62.65-24.4-94.09-36.3-5.73-2.17-9.25-5.37-11.77-11.01-5.84-13.06-12.45-25.78-18.68-38.66-1.39-2.88-2.5-5.9-3.74-8.86,9.15-3.67,107.75-9.65,115.68-7.17.27,4.05-3.31,5.38-5.64,7.35-17.57,14.82-35.23,29.52-52.84,44.29-2.47,2.07-4.77,4.34-8.23,7.5,36.89,13.1,72.45,25.73,108.67,38.6Z"/>
  <path class="st0" d="M1122.84,188.57c1.56-3.61,3.11-6.87,4.41-10.23,11.16-28.86,22.7-57.58,33.16-86.7,3.57-9.93,9.18-15.89,18.73-19.94,14.04-5.95,27.55-13.15,42.1-20.22,1,2.68,2.27,4.64,2.41,6.67,2.26,33.88,4.39,67.77,6.46,101.66.15,2.47-.48,4.99-.77,7.72-4.97.41-6.32-3.19-8.27-5.5-14.83-17.55-29.52-35.21-44.29-52.81-2.06-2.45-4.32-4.74-7.51-8.23-13.21,37.13-25.94,72.93-38.81,109.1-4.15-.88-7.04-1.37-9.88-2.11-20.28-5.29-40.5-10.79-60.84-15.85-5.39-1.34-8.43-3.88-10.42-9.19-11.1-29.59-22.6-59.03-33.83-88.58-1.24-3.27-1.61-6.87-2.51-10.91,4.18-1.51,7.51-2.72,11.92-4.31,1.56,3.5,3.12,6.66,4.4,9.92,10.11,25.7,20.32,51.36,30.12,77.18,2.22,5.85,5.16,9.1,11.63,10.43,14.65,3.03,29.08,7.1,43.62,10.66,2.53.62,5.16.79,8.19,1.23Z"/>
  <path class="st0" d="M2296.95,1195.18c-29.4-26.52-57.5-51.87-86-77.58,1.7-2.89,2.8-5.25,4.33-7.28,13.04-17.29,26.29-34.42,39.16-51.84,3.35-4.53,7.02-6.2,12.61-6,31.3,1.13,62.61,1.88,93.92,2.88,12.33.39,12.6.9,9.89,14.68-3.05,0-6.3.06-9.55,0-27.65-.55-55.31-.95-82.95-1.82-6.32-.2-10.47,1.44-14.16,6.82-8.67,12.63-18.03,24.78-27.07,37.16-1.34,1.83-2.45,3.82-4.87,7.66,2.98,2.18,6.19,4.04,8.82,6.53,23.7,22.46,47.22,45.13,71.01,67.49,4.65,4.37,7.31,8.84,7.49,15.42.4,14.31,1.54,28.61,2.31,42.91.16,2.95.02,5.91.02,9.9-3.05-.42-5.62-.37-7.91-1.14-31.54-10.65-63.05-21.4-94.54-32.21-2.62-.9-5.02-2.48-9.86-4.93,15.53-7.08,29.69-10.18,43.31-14.69,13.89-4.6,27.9-8.85,44.05-13.94Z"/>
  <path class="st0" d="M576.41,439.97c9.9,4.96,83.24,70.03,87.39,77.92-15.09,1.28-29.33-1.83-43.62-2.65-14.56-.84-29.08-2.54-45.53-4.03,4.87,13.15,10.95,24.01,16.13,35.24,5.29,11.48,10.93,22.81,16.37,34.22,5.44,11.39,10.82,22.81,16.57,34.91-2.23,1.8-4.05,3.66-6.21,4.93-18.92,11.16-37.97,22.11-56.83,33.38-4.48,2.68-8.27,2.78-13.04.62-29.11-13.16-58.37-25.98-87.51-39.07-3.13-1.41-5.77-3.88-8.85-6,2.09-4.18,3.7-7.4,5.56-11.12,3.08,1.18,5.84,2.12,8.5,3.28,25.63,11.16,51.35,22.11,76.78,33.71,6.61,3.01,11.52,2.4,17.42-1.37,14.27-9.14,28.92-17.69,43.91-26.78-.99-2.78-1.69-5.24-2.71-7.56-13.81-31.37-27.55-62.77-41.63-94.02-2.35-5.21-2.84-9.68-.8-15.11,5.14-13.7,9.66-27.63,14.49-41.45,1.06-3.04,2.38-5.99,3.61-9.05Z"/>
  <path class="st0" d="M1606.67,70.07c-12.5,36.53-24.41,71.42-36.44,106.27-.48,1.38-2.02,2.39-4.27,4.94-10.77-28.6-17.82-57.16-28.11-86.01-26.39,29.3-51.73,57.43-77.36,85.89-3.09-1.9-5.41-3.08-7.46-4.63-17.03-12.85-33.88-25.92-51.07-38.54-4.87-3.58-6.51-7.5-6.31-13.41,1.02-30.98,1.65-61.97,2.43-92.95.31-12.44.6-12.67,14.51-11.09.14,2.68.46,5.54.42,8.39-.44,28.33-.77,56.65-1.57,84.97-.18,6.32,1.44,10.4,6.82,14.12,14.23,9.83,27.99,20.35,42.68,31.13,2.8-2.75,5.39-5.18,7.84-7.74,23.02-24.1,46.12-48.13,68.92-72.43,3.97-4.23,8.12-6.22,13.81-6.45,14.65-.6,29.28-1.62,43.92-2.41,2.94-.16,5.9-.02,11.24-.02Z"/>
  <path class="st0" d="M523.98,826.39c-28.49,10.17-56.61,17.55-85.81,27.73,29.31,26.39,57.37,51.67,85.84,77.31-1.6,2.75-2.67,5.12-4.2,7.15-13.04,17.28-26.32,34.37-39.16,51.8-3.37,4.58-7.06,6.15-12.57,5.98-31.29-.97-62.59-1.65-93.88-2.44-12.3-.31-12.71-.83-10.75-14.91,3.01,0,6.21-.05,9.41,0,28.3.47,56.61.84,84.91,1.53,5.5.13,9.23-1.25,12.54-5.96,10.13-14.43,20.76-28.51,31.78-43.51-2.85-2.89-5.5-5.7-8.29-8.37-23.85-22.77-47.63-45.6-71.66-68.18-4.17-3.92-6.29-7.85-6.49-13.69-.53-15.3-1.79-30.58-2.7-45.86-.15-2.53-.02-5.08-.02-9.44,36.66,12.11,71.77,24.1,106.77,36.43,1.27.45,2.11,2.12,4.3,4.44Z"/>
  <path class="st0" d="M1197.05,1953.84c26.55-29.47,51.89-57.61,77.58-86.13,3.21,2.14,5.74,3.64,8.07,5.4,16.74,12.66,33.33,25.51,50.22,37.97,4.74,3.5,6.84,7.17,6.6,13.26-1.2,30.96-1.94,61.93-2.84,92.9-.04,1.33-.04,2.67-.14,3.99-.64,8.1-1.35,8.68-9.96,8.2-.99-.06-1.98-.25-4.22-.56-.13-3.32-.44-6.82-.38-10.32.52-27.65.9-55.3,1.82-82.93.23-6.78-1.92-10.94-7.47-14.78-14.19-9.83-27.93-20.32-42.32-30.91-2.97,2.93-5.59,5.39-8.06,7.98-23.01,24.09-46.05,48.16-68.93,72.38-3.63,3.85-7.31,5.9-12.86,6.09-15.64.53-31.25,1.84-46.88,2.77-2.23.13-4.48-.18-6.69-.28-.09-6.7,26.91-90.96,33.77-105.54.76-1.61,2.42-2.8,4.78-5.43,10.46,28.62,17.74,56.85,27.92,85.96Z"/>
  <path class="st0" d="M1793.94,113.75c-1.84,4.49-3.28,8.17-4.85,11.78-10.65,24.42-21.04,48.97-32.18,73.17-3.2,6.96-2.76,12.1,1.39,18.33,7.56,11.37,14.26,23.29,21.37,34.96,1.71,2.8,3.57,5.51,5.65,8.71,3.47-1.43,6.53-2.62,9.52-3.95,30.16-13.32,60.38-26.52,90.41-40.13,6.25-2.83,11.69-3.04,18.05-.61,13.06,4.98,26.39,9.25,39.59,13.87,3.04,1.07,5.99,2.39,8.98,3.6-3.35,7.06-57.42,70.49-71.47,84.03-1.3,1.25-3.16,1.93-6.24,3.75-1.26-15.86,1.8-30.13,2.65-44.45.86-14.58,2.5-29.11,3.99-45.78-35.78,17.06-69.85,33.32-104.63,49.9-2.08-2.87-3.97-5.07-5.42-7.54-10.81-18.38-21.38-36.9-32.38-55.16-2.92-4.85-3-8.86-.7-13.94,13.17-29.13,26.01-58.42,39.1-87.59,1.29-2.88,3.51-5.35,5.45-8.25,4.07,1.83,7.35,3.3,11.74,5.27Z"/>
  <path class="st0" d="M633.74,1712.55c-3.39-3.9-5.76-6.63-8.62-9.92,2.73-2.79,5.19-5.42,7.78-7.91,20.14-19.41,40.28-38.82,60.49-58.15,3-2.87,5.44-5.52,4.68-10.23-2.98-18.35-5.71-36.73-8.69-56.09-4.04,0-7.61-.07-11.17.01-32.96.73-65.91,1.36-98.86,2.35-6.41.19-11.27-1.34-16.02-5.87-10.11-9.65-20.81-18.68-31.33-27.89-2.47-2.17-5.21-4.03-9.44-7.27,19.04-10.96,36.83-18.83,54.22-27.43,17.04-8.43,33.96-17.21,50.83-24.74,1.53,1.93,1.77,2.16,1.91,2.45.14.29.28.65.24.96-.08.65-.15,1.34-.44,1.91-12.87,24.77-25.76,49.52-39.5,75.9,39.2-.48,77.04-4.41,115.34-5.1.87,2.86,1.83,4.97,2.14,7.17,2.97,21.42,5.62,42.89,8.85,64.28.96,6.4-1.05,10.51-5.62,14.78-22.64,21.12-44.97,42.59-67.49,63.84-2.57,2.42-5.67,4.29-9.29,6.99Z"/>
  <path class="st0" d="M830.98,246.76c1.98,39.63,3.86,77.38,5.8,116.21-11.34,1.7-21.74,3.32-32.17,4.8-13.18,1.86-26.42,3.38-39.56,5.49-5.39.87-9.33.1-13.29-4.13-22.05-23.61-44.42-46.92-66.6-70.41-1.99-2.1-3.38-4.77-6-8.55,3.46-2.55,6.63-4.89,10.44-7.69,2.37,2.31,5,4.74,7.48,7.31,19.19,19.9,38.48,39.7,57.42,59.83,4.33,4.6,8.27,6.28,14.74,5.02,14.69-2.85,29.59-4.59,44.4-6.85,2.58-.39,5.1-1.16,7.39-1.69,0-13.88.18-27.17-.04-40.45-.39-23.98-1.07-47.95-1.44-71.92-.04-2.83.15-6.48,1.8-8.41,12.52-14.63,25.44-28.93,38.73-43.89,6.72,6.06,8.5,14.04,12.19,20.8,3.66,6.71,6.81,13.71,10.19,20.58,3.53,7.17,7.08,14.32,10.62,21.49,3.39,6.87,7.06,13.61,10.06,20.64,2.98,6.97,8.55,13.14,8.44,23.61-27.49-14.25-53.25-27.6-80.61-41.78Z"/>
  <path class="st0" d="M1932.29,1719.54c10.6-2.61,20.61-5,30.59-7.56,4.28-1.1,7.46-.46,10.46,3.33,19.82,25.1,39.87,50.03,59.81,75.04.37.47.37,1.23.78,2.74-4.36,3.38-9,6.97-14.46,11.2-2.4-2.65-4.67-4.9-6.65-7.38-14.16-17.69-28.49-35.25-42.24-53.25-4.57-5.98-9.1-8.24-17.06-3.94.56,27.8,1.14,56.37,1.75,86.23-4.9,2.01-10.24,4.2-15.62,6.41-3.07-8.33-8.84-98.71-7.35-112.81Z"/>
  <path class="st0" d="M2191.52,1453.91c-3.11,2.15-6.03,4.16-9.34,6.45,11.79,26.72,23.31,52.83,35.21,79.82-4.17,3.83-8.25,7.58-12.33,11.32-5.48-5.13-41.95-78.19-50.25-100.69,10.08-7.39,20.43-14.98,31.19-22.87,30.7,16.88,60.96,33.52,91.89,50.54-3.3,5.79-6.19,10.89-9.76,17.15-26.09-13.34-50.8-28.15-76.61-41.72Z"/>
  <path class="st0" d="M896.22,1924.9c14.17-25.76,27.92-50.76,41.9-76.17-2.05-3.03-4.04-5.97-6.43-9.5-26.65,11.76-52.75,23.27-79.76,35.19-3.97-4.13-7.98-8.3-13.23-13.76,34.82-16.86,68.22-33.02,102.06-49.4,7.91,10.79,15.35,20.94,23.29,31.77-16.69,30.37-33.3,60.61-50.48,91.89-5.86-3.39-11.13-6.43-17.35-10.02Z"/>
  <path class="st0" d="M1883.22,174.56c4.18,4.44,7.77,8.25,11.3,12.01-5.02,5.78-76.46,41.59-100.78,50.68-6.78-9.31-13.81-18.89-20.74-28.54-2.8-3.9.24-6.96,1.92-10.03,13.58-24.82,27.25-49.6,40.89-74.38,1.74-3.16,3.53-6.29,5.73-10.21,5.93,3.46,11.21,6.54,16.95,9.89-1.89,3.77-3.26,6.73-4.83,9.58-10.77,19.53-21.59,39.03-32.36,58.56q-4.93,8.94,2.7,17.39c25.95-11.45,52.09-22.98,79.23-34.95Z"/>
  <path class="st0" d="M1438.58,9.65c6.87.96,12.66,1.77,19.23,2.69-.17,3.88-.14,7.13-.49,10.33-2.49,22.47-5.11,44.93-7.57,67.4-1.03,9.43-.9,9.44,9.09,14.49,19.67-20.6,39.56-41.45,59.75-62.6,5.47,2.43,10.49,4.67,15.51,6.9-3.39,7.5-60.34,72.68-74.16,85.17-9.37-5.71-18.88-11.71-28.6-17.34-4.04-2.34-4.02-5.64-3.62-9.4,1.55-14.55,3.01-29.1,4.63-43.64,1.95-17.47,4.02-34.93,6.23-53.99Z"/>
  <path class="st0" d="M2176.02,454.42c-38.9,2.24-75.65,4.35-113.12,6.5-3-12-5.79-23.19-8.61-34.38-1.04-4.1,1.82-6.06,4.42-8.14,11.43-9.16,22.87-18.31,34.31-27.46,13.76-11.01,27.51-22.03,42.32-33.89,4,5.27,7.68,10.12,11.94,15.73-2.98,2.57-5.35,4.76-7.87,6.77-17.68,14.13-35.41,28.22-53.1,42.35q-7.57,6.05-3.53,16.61c28.22-.58,56.77-1.17,86.19-1.78,2.03,5.08,4.06,10.18,7.06,17.69Z"/>
  <path class="st0" d="M2332.33,701.74c1.74,6.81,3.2,12.51,4.86,18.98-3.66,1.25-6.67,2.43-9.76,3.33-21.71,6.28-43.44,12.47-65.15,18.75-9.16,2.65-9.14,2.71-9.91,14.05,26.53,10.3,53.37,20.73,80.76,31.36-.27,6-.52,11.49-.84,18.64-36.44-12.03-71.19-24.62-106.67-36.9,1.78-11.94,3.52-23.04,5.04-34.18.7-5.13,4.66-5.94,8.49-7.05,19.47-5.65,38.95-11.26,58.43-16.9,11.13-3.22,22.26-6.46,34.77-10.09Z"/>
  <path class="st0" d="M2257.6,1117.68c6.27-10.31,12.17-19.89,17.94-29.56,1.75-2.92,4.02-4.14,7.41-3.75,32.05,3.68,64.12,7.3,96.17,10.97.64.07,1.24.45,2.98,1.12-.69,5.5-1.41,11.29-2.22,17.77-2.48.13-4.7.55-6.85.31-23.48-2.57-46.97-5.05-70.4-8.01-7.18-.91-12.49.06-15.04,9.51,9.74,9.3,20.22,19.32,30.71,29.33,10.34,9.87,20.68,19.74,31.71,30.27-2.37,5.24-4.74,10.48-7.86,17.37-28.86-25.71-56.54-50.37-84.56-75.33Z"/>
  <path class="st0" d="M1622.06,1882.58c11.19,1.75,21.28,3.8,31.48,4.76,6.22.58,8.4,3.73,9.9,9.09,6.75,24.02,13.78,47.95,20.71,71.92,1.93,6.67,3.84,13.35,6,20.89-6.46,1.78-12.38,3.42-18.91,5.22-1.32-4.01-2.45-7.08-3.35-10.22-6.18-21.41-12.29-42.84-18.47-64.26-2.82-9.77-2.86-9.76-14.33-10.42-5.05,13.03-10.19,26.32-15.34,39.6-5.17,13.32-10.34,26.63-15.55,40.03h-19.24c12.63-36.3,24.81-71.27,37.11-106.61Z"/>
  <path class="st0" d="M1296.34,2039.33c-7.39-.95-12.91-1.65-19.5-2.5.62-6.96,1.05-13.16,1.75-19.34,2.26-19.83,4.32-39.68,7.1-59.44,1.07-7.61-2.34-11.07-9.51-13.66-19.61,20.54-39.53,41.41-59.81,62.65-5.54-2.47-10.58-4.71-15.64-6.97,3.38-7.19,63.73-75.87,74.41-84.82,9.61,5.82,19.47,11.84,29.39,17.76,3.6,2.15,3.28,5.36,2.89,8.76-2.95,25.77-5.88,51.55-8.81,77.32-.74,6.51-1.47,13.03-2.28,20.22Z"/>
  <path class="st0" d="M402.38,1345.8c-1.48-5.23-3.06-10.85-5-17.73,28.35-8.26,55.95-16.3,83.65-24.36.75-3.78,1.39-6.97,2.23-11.19-27.01-10.5-53.84-20.93-80.68-31.36v-16.97c8.04-.06,88.72,27.08,106.63,35.78-1.69,11.1-3.24,22.53-5.36,33.86-.39,2.08-2.81,4.79-4.83,5.39-31.24,9.23-62.56,18.16-93.87,27.11-.56.16-1.27-.23-2.77-.53Z"/>
  <path class="st0" d="M1413.07,1023.25h165.76c-1.02,17.46-1.97,33.78-4.8,51.93-11.89-9.65-22.3-18.1-32.7-26.55-.39.28-.79.56-1.18.84,1.81,4.77,3.62,9.54,6.25,16.46-44.02-12.98-86.25-25.42-128.45-37.95-2.03-.6-3.79-2.09-5.68-3.16.27-.52.53-1.05.8-1.57Z"/>
  <path class="st0" d="M580.78,597.85c-9.83,7.18-19.02,13.69-27.98,20.51-3.78,2.88-6.77,1.23-10.05-.58-13.98-7.73-27.98-15.43-41.97-23.13-14.25-7.85-28.51-15.69-43.79-24.1,3.4-5.84,6.49-11.14,9.92-17.03,3.58,1.79,6.54,3.15,9.39,4.72,19.81,10.93,39.59,21.93,59.4,32.86,8.18,4.51,8.21,4.46,16.76-3.02-11.42-25.88-22.94-52-34.86-79.03,4.1-3.93,8.25-7.92,13.75-13.21,16.78,34.63,32.82,67.73,49.43,102.02Z"/>
  <path class="st0" d="M441.62,943.24c2.19-3.16,4.05-5.84,6.29-9.08-2.41-2.54-4.55-4.98-6.89-7.22-16.35-15.63-32.74-31.21-49.12-46.82q-7.21-6.87-3.07-15.97c.94-2.06,2.16-4,3.22-5.94,6.97,2.75,71.44,58.91,84.83,73.88-5.8,9.56-11.81,19.41-17.74,29.31-2.16,3.61-5.49,3.2-8.81,2.85-14.22-1.48-28.44-2.96-42.65-4.53-16.52-1.82-33.03-3.72-49.55-5.63-1.58-.18-3.12-.68-5.28-1.18.73-6.22,1.41-12.01,2.26-19.21,29.02,3.19,57.27,6.3,86.52,9.52Z"/>
  <path class="st0" d="M1342.34,1197.26c-4.7,1.8-9.41,3.61-14.6,5.6,1.19-12.98,35.45-127.05,40.24-133.82.72,1.77,1.73,3.07,1.73,4.37-.14,52.29-.36,104.57-.62,156.86,0,1.6-.59,3.21-1.1,5.85-16.3-1.39-32.43-2.76-49.25-4.19,1.47-8.09,7.75-12,11.66-17.38,4.02-5.54,8.64-10.65,12.99-15.95-.34-.44-.69-.89-1.03-1.33Z"/>
  <path class="st0" d="M803.95,329.14c-11.91,2.97-22.56,5.61-33.19,8.3-3.17.8-5.78.45-7.99-2.33-20.47-25.86-41-51.67-61.5-77.5-.17-.21-.1-.6-.24-1.7,4.37-3.35,9.05-6.95,14.53-11.16,2.49,2.81,4.73,5.13,6.74,7.63,14.16,17.69,28.25,35.44,42.4,53.14,6.05,7.57,6.09,7.54,16.82,3.86-.63-28.46-1.28-57.28-1.93-86.61,5.79-2.08,10.91-3.91,17.72-6.36,2.26,38.39,4.42,75.1,6.64,112.71Z"/>
  <path class="st0" d="M1131.18,58.72c6.22.4,11.68.74,18.77,1.19-12.56,36.13-24.63,70.87-37,106.46-11.96-1.79-23.42-3.3-34.76-5.4-2.09-.39-4.82-2.86-5.43-4.91-9.21-31.26-18.11-62.61-27.04-93.96-.15-.54.28-1.24.72-2.96,5.12-1.26,10.76-2.65,17-4.19,1.18,3.07,2.27,5.41,2.98,7.87,6.52,22.35,12.96,44.73,19.45,67.09,2.64,9.09,2.67,9.08,13.98,9.57,10.21-26.33,20.53-52.92,31.33-80.77Z"/>
  <path class="st0" d="M559.29,1594.99c38.38-3.03,75.36-4.58,112.87-6.88,2.84,11.72,5.45,22.68,8.18,33.6.82,3.3-.03,5.71-2.71,7.85-25.71,20.52-51.38,41.11-77.97,62.41-4.11-5.38-7.83-10.23-11.94-15.6,2.94-2.58,5.31-4.83,7.85-6.86,17.41-13.93,34.86-27.81,52.28-41.71q7.95-6.34,4.7-17.34c-28.56.65-57.39,1.3-86.75,1.97-2.13-5.72-4.04-10.83-6.5-17.43Z"/>
  <path class="st0" d="M1397.91,993.75c4.6-8.1,109.77-112.87,119-118.94,10.35,12.25,20.76,24.58,32.06,37.95-7.39,3.79-14.4,2.78-21.01,3.61-6.57.83-13.16,1.48-20.49,2.29,3.17,5.67,10.13,3.83,14.22,8.97-7.45,5.34-15.81,8.97-23.63,13.42-8.09,4.61-16.35,8.91-24.53,13.35-8.47,4.61-16.93,9.22-25.4,13.84-8.17,4.45-16.24,9.12-24.55,13.3-8.05,4.05-15.35,9.93-25.67,12.22Z"/>
  <path class="st0" d="M1218.35,1174.71c-10.81-12.8-21.26-25.16-32.73-38.73,14.58-4.38,28.38-2.75,43.41-6.36-6.05-2.72-10.5-4.71-16.67-7.48,10.57-7.34,21.04-12.02,30.93-17.62,10.14-5.74,20.46-11.16,30.7-16.73,10.24-5.56,20.44-11.2,30.73-16.67,10.08-5.36,19.82-11.5,32.02-16.5-3.9,8.45-100.58,105.79-118.4,120.09Z"/>
  <path class="st0" d="M1562.74,1105.86c-7.24,14-14.64,28.34-23.09,44.7-8.58-12.97-13.66-25.47-22.13-36.61v15.29c-9.26-3.76-104.34-80.96-108.48-87.64.19-.23.34-.52.57-.69.25-.18.64-.43.87-.36,2.51.79,5.07,1.49,7.49,2.51,47.78,20.14,95.54,40.32,143.28,60.53.5.21.73,1.07,1.5,2.28Z"/>
  <path class="st0" d="M1172.43,1106.84c-5.19-16.37-10.13-31.97-15.88-50.1,14.93,4.36,27.45,8.01,39.97,11.66.33-.43.65-.86.98-1.29-3.17-3.66-6.34-7.31-9.74-11.23,13.5-3.88,130.6-15.76,138.4-13.98-1.54,4.16-5.57,4.45-8.57,5.69-42.44,17.48-84.92,34.85-127.41,52.22-5.5,2.25-11.04,4.38-17.74,7.04Z"/>
  <path class="st0" d="M1446.98,828.34c15.7,8.14,30.26,15.69,47.05,24.39-13.95,7.5-25.76,13.85-37.58,20.2.05.47.11.94.16,1.41h14.39c.6,1.27.79,1.56.86,1.88.07.3.14.74-.01.93-27.22,34-54.45,67.98-81.72,101.93-1.02,1.27-2.36,2.31-3.66,3.32-.46.36-1.25.3-2.55.58,0-1.38-.38-2.75.05-3.79,20.8-49.93,41.67-99.84,63-150.87Z"/>
  <path class="st0" d="M1243.53,1194.94c11.55-6.24,23.09-12.48,34.64-18.72-.08-.54-.17-1.08-.25-1.61-4.94-.25-9.89-.51-16.78-.86,6.66-8.35,12.34-15.52,18.07-22.65,5.84-7.27,11.71-14.51,17.57-21.77s11.71-14.52,17.57-21.77c5.86-7.25,11.56-14.64,17.64-21.71,5.87-6.83,10.45-14.96,19.06-21.27-1.07,9.42-58.59,147.29-64.44,155.46-14.3-7.38-28.69-14.8-43.07-22.23,0-.95,0-1.91,0-2.86Z"/>
  <path class="st0" d="M1325.4,1007.62c-7.07-.54-138.1-54.52-153.68-63.49,7.5-14.54,15.04-29.14,23.47-45.49,8.86,12.63,13.59,25.73,22.56,36.52v-14.28c.91-.35,1.2-.5,1.52-.57.31-.08.76-.24.93-.1,33.52,26.83,67.03,53.69,100.52,80.56,1.29,1.04,2.56,2.14,3.66,3.38.61.69.86,1.71,1.2,2.61.09.24-.12.58-.19.88Z"/>
  <path class="st0" d="M1562.64,942.65c5.13,16.21,10.06,31.79,15.74,49.75-15.32-4.53-28.18-8.32-41.04-12.12-.29.37-.58.75-.87,1.12,3.43,3.61,6.87,7.22,10.39,10.92-7.67,4.05-129.11,16.78-137.65,14.64,5.12-4.93,124.34-55.03,153.43-64.3Z"/>
  <path class="st0" d="M1399.78,1234.72c4.39-14.8,8.21-27.66,12.03-40.53-.39-.27-.78-.54-1.17-.81-3.62,3.5-7.24,6.99-10.95,10.58-4.19-8.16-16.76-129.28-14.47-137.41,4.69,4.95,58.26,133.13,63.77,153.03-15.63,5.22-31.2,10.78-49.21,15.14Z"/>
  <path class="st0" d="M1335.27,813.73c-4.5,15.33-8.27,28.22-12.05,41.1.42.27.83.54,1.25.81,3.61-3.51,7.22-7.02,12.19-11.85,3.05,16.96,3.98,32.39,5.65,47.72,1.66,15.21,3.75,30.4,4.94,45.65,1.19,15.26,4.64,30.43,3.72,47.38-6-7.08-58.13-131.93-65.21-154.99,15.4-5.43,31.06-10.24,49.5-15.82Z"/>
  <path class="st0" d="M1257.41,845.01l4.19,39.29c.5.06,1,.11,1.5.17,2.13-4.6,4.25-9.21,7.25-15.68,22.27,41.02,43.62,80.31,64.88,119.65.69,1.29.47,3.07.73,5.04-6.84-3.53-110.77-107.51-118.35-118.36,12.44-10.48,24.95-21.02,37.47-31.56.78.49,1.56.97,2.34,1.46Z"/>
  <path class="st0" d="M1398,1055.33c8.02,3.89,106.65,102,119.66,118.35-12.51,10.53-25.05,21.09-39.33,33.11-3.03-15.26-2.98-28.77-6.35-42.42-2.09,4.56-4.19,9.13-7.08,15.44-6.9-10.93-11.95-21.24-17.49-31.24-5.65-10.2-11.19-20.46-16.76-30.7-5.57-10.24-11.25-20.43-16.66-30.76-5.27-10.06-11.8-19.56-15.98-31.78Z"/>
  <path class="st0" d="M1194.86,999.18c-1.83-4.5-3.66-9-6.35-15.62,24.14,6.11,46.03,13.14,68.05,19.66,22.03,6.53,44.3,12.38,68.09,20.64-9.11,3.13-152.4,3.49-168.32,1.16.46-16.23,2.03-32.46,4.27-50.84,12.5,8.67,22.17,18.11,34.25,25Z"/>
  <path class="st0" d="M1367.25,813.52c16.26.22,32.47,2.01,51.16,4.2-9.83,12.02-18.16,22.2-26.49,32.39.29.51.57,1.03.86,1.54,4.62-1.77,9.23-3.53,15.54-5.95-3.6,16.49-8.81,31.09-12.97,45.95-4.13,14.74-8.55,29.4-13.09,44.01-4.55,14.64-7.58,29.81-14.5,45.33-2.77-8.9-2.83-155.52-.5-167.47Z"/>
</svg>