<?xml version="1.0" encoding="UTF-8"?>
<svg id="Layer_0_xA0_Image" xmlns="http://www.w3.org/2000/svg" version="1.1" viewBox="0 0 2732 2048">
  <!-- Generator: Adobe Illustrator 30.2.1, SVG Export Plug-In . SVG Version: 2.1.1 Build 1)  -->
  <defs>
    <style>
      .st0 {
        fill: #767461;
      }
    </style>
  </defs>
  <path class="st0" d="M1088.87,1328.81c-2.31-4.16-4.46-7.88-6.48-11.67-29.35-54.95-58.44-110.04-88.26-164.73-5.57-10.21-8.87-20.06-8.97-31.73-.15-17.31-1.88-34.59-2.63-51.9-.13-3.07.44-6.75,2.08-9.22,32.24-48.58,64.7-97.02,97.1-145.5,7.78-11.64,15.4-23.38,23.35-34.89,2.56-3.7,5.95-6.83,10.36-11.79,12.62,26.52,23.57,51.73,34.94,76.74,11.43,25.13,22.79,50.28,34.45,76.02,3.28-.62,6.16-1.06,8.99-1.71,37.65-8.62,75.28-17.36,112.96-25.81,4.5-1.01,7.82-2.93,10.85-6.31,15.57-17.38,31.36-34.55,46.92-51.93,2.29-2.56,3.8-5.82,6.36-9.83,7.04,3.09,14.76,6.48,23.2,10.18,1.53-3.42,2.94-6.32,4.14-9.31,13.1-32.78,26.14-65.59,39.28-98.35,1.42-3.54,3.38-6.86,6.02-12.17,3.05,4.02,5.14,6.35,6.75,8.97,9.44,15.32,19.27,30.43,27.95,46.16,6.21,11.25,16.53,14.58,27.53,17.33,1.67.42,3.72-.7,6.9-1.4-.69,3.16-.86,5.7-1.79,7.92-5.77,13.83-11.57,27.65-17.71,41.33-1.28,2.85-3.7,5.39-6.1,7.5-12.26,10.74-24.69,21.28-37.46,32.25,3.08,8.02,6.02,15.66,9.09,23.66-13.9,5.67-26.98,11.32-40.32,16.31-5.7,2.13-8.68,5.04-8.8,11.4-.13,6.83-1.25,13.64-2.05,21.6-9.38-3.71-18.82-7.45-28.97-11.46-4.12,3.46-8.73,6.77-12.58,10.82-2.1,2.21-3.72,5.54-4.15,8.56-1.51,10.55-2.73,21.16-3.38,31.79-.25,4.13.5,8.73,2.18,12.5,17.42,38.91,35.07,77.72,52.88,116.46,1.64,3.56,2.41,6.36,1.02,10.26-15.61,43.93-31.01,87.93-46.49,131.91-.43,1.22-1.14,2.34-.94,1.93-26.06,7.93-50.77,15.45-76.97,23.42-2.62-18.83-5.11-36.76-7.69-55.29h-193.58Z"/>
  <path class="st0" d="M1343.37,647.48c-5.81,13.49-12.44,27.29-23.33,39.2-20.14-6.59-40.02-13.09-59.9-19.59-12.34-4.04-24.73-7.96-37-12.2-4.51-1.56-8-1.26-11.95,1.87-29.24,23.19-58.66,46.16-86.86,68.28-1.53,9.97-2.73,18.73-4.23,27.44-4.9,28.56-10.06,57.07-14.73,85.66-.9,5.51-2.95,9.33-8.09,11.35-17.7,6.94-28.13,20.63-37.38,36.74-27.89,48.53-56.87,96.42-85.45,144.55-1.66,2.8-3.45,5.52-5.76,9.2-3.62-4.68-6.42-8.58-9.49-12.25-19.5-23.23-38.87-46.58-58.75-69.48-5.22-6.02-7-11.97-6.72-19.8,2.27-62.61,4.16-125.24,6.14-187.87,1-31.65,2.29-63.29,2.64-94.94.08-7.06,2.54-10.81,7.84-14.51,19.12-13.36,38-27.07,56.97-40.64,2.17-1.55,4.27-3.2,6.52-4.63,31.78-20.12,59.4-44.91,83.64-73.64,8.8-10.43,18.53-20.08,27.79-30.13,2.55-2.77,4.79-4.41,9.34-3.74,24.38,3.57,48.85,6.51,73.3,9.62,12.89,1.64,25.78,3.29,38.69,4.69,5.58.6,9.62,2.87,13.43,7.21,37.13,42.36,74.48,84.52,111.85,126.67,3,3.39,6.55,6.28,11.47,10.94Z"/>
  <path class="st0" d="M809.54,1033.27c23.48-15.88,46.6-31.61,69.86-47.14,3.8-2.54,6.81-4.95,4.33-11.13,5.76,1.61,9.65,2.81,11.44,7.97.82,2.36,3.14,4.23,4.89,6.23,17.32,19.81,34.71,39.56,51.94,59.45,3.04,3.51,5.43,7.59,8.12,11.4.98-.54,1.97-1.07,2.95-1.61-30.52,138.01-61.03,276.01-91.09,411.93-11.21,6.6-20.75,12.22-31.61,18.61-.85-4.55-1.73-7.95-2.1-11.41-7.29-67.19-14.53-134.39-21.78-201.59-4.04-37.41-8.86-74.75-11.76-112.24-1.3-16.8,1.23-33.89,2.07-50.85,1.12-22.62,2.35-45.24,3.39-67.86.17-3.58-.39-7.2-.67-11.77Z"/>
  <path class="st0" d="M1860.96,508.09c4.03,16.42,7.51,30.6,10.98,44.78.71,2.91,1.12,5.93,2.15,8.72,2.48,6.77,1.89,12.92-.15,20.06-4.02,14.03-6.01,28.65-8.82,43.03-4.15,21.24-8.31,42.49-12.41,63.74-.3,1.53-.2,3.13-.36,6,16.06-5.15,31.11-9.97,47.26-15.15.82,3.59,1.77,6.33,2.04,9.14,3.58,36.81,7.14,73.61,10.48,110.44.49,5.4,1.9,9.11,7.2,11.83,18.93,9.71,37.58,19.98,56.77,30.26-.22,4.09-4.24,5.16-7.01,7.05-24.51,16.7-49.1,33.28-73.66,49.9-3.03,2.05-6.03,4.15-9.21,6.33-.22,2.96-.44,5.85-.7,9.27-5.54-1.45-5.28-6.03-6.17-9.47-4.59-17.73-8.92-35.53-13.39-53.29-.96-3.83-2.09-7.61-3.25-11.81-33.6-6.6-66.87-13.14-99.66-19.58-4.61-5.92-4.85-11.52-2.84-18.15,9.31-30.58,18.17-61.3,27.15-91.98.65-2.2,1-4.49,1.74-7.86-3.48.59-6.32.85-9.04,1.58-31.85,8.52-63.72,16.95-95.46,25.85-5.73,1.61-10.9,5.23-16.98,8.25-.47-2-1.11-4.67-1.41-5.96,3.84-4.47,7.24-7.61,9.66-11.39,24.61-38.45,49.05-77,73.55-115.52,3.46-12.9,14.36-19.24,23.79-26.83,24.93-20.05,49.91-40.04,74.92-60,3.56-2.84,7.38-5.34,12.84-9.26Z"/>
  <path class="st0" d="M793.33,1147.91c-9.9-10.79-18.06-19.4-25.8-28.38-1.38-1.6-1.82-4.91-1.29-7.09,2.12-8.68,5.22-17.13,7.05-25.86.74-3.54.05-8.01-1.54-11.29-4.5-9.28-10.06-18.04-14.7-27.26-2.22-4.39-5.47-6.27-9.96-7.16-5.49-1.09-10.92-2.5-16.98-3.9,8.98-28.26,17.08-55.95,26.73-83.09,4.35-12.21,4.35-22.56-1.78-34.01-6.11-11.41-10.91-23.59-15.45-35.75-3.29-8.81-9.93-14-17.15-18.76-4.91-3.23-5.13-2.9-7.01-6.75,1.58-5.62,3.36-10.18,4.12-14.91,3.95-24.66,7.67-49.37,11.38-74.07.49-3.23.48-6.54.8-11.19,52.21-26.58,105.2-53.55,160.03-81.47-.7,25.71-3.59,49.61-5.49,73.57-1.89,23.91-3.94,47.82-5.92,71.72-2,24.24-4.36,48.46-5.9,72.73-1.51,23.79-5.36,47.48-4.68,72.94-1.58,1.24-4.36,3.55-7.27,5.68-19.36,14.17-38.55,28.59-58.25,42.28-7.25,5.04-10.4,10.36-10.26,19.52.52,33.32.06,66.66-.08,99.99-.01,3.5-.33,6.99-.6,12.5Z"/>
  <path class="st0" d="M934.8,1417.47c21.28,14.11,40.34,26.89,59.59,39.39,4.07,2.64,5.73,5.63,5.94,10.49,1.77,41.26,3.8,82.52,5.73,123.77.22,4.66.19,9.34.59,13.98,1.01,11.94.64,23.57-1.69,35.58-5.19,26.78-8.76,53.88-12.79,80.87-3.29,22.03-6.28,44.1-9.46,66.15-.23,1.63-.82,3.23-1.43,4.77-9.67,24.81-19.35,49.62-29.09,74.41-.7,1.77-1.92,3.34-2.75,4.74-4.65.35-5.26-3.11-6.47-5.65-4.59-9.61-8.89-19.37-13.58-28.93-1.71-3.48-4.48-6.44-6.22-9.91-1.29-2.56-2.33-5.54-2.4-8.35-.36-13.31-.09-26.65-.58-39.95-.25-6.89-.93-13.91-2.58-20.59-16.36-66.24-32.92-132.43-49.55-198.6-4.7-18.7-9.93-37.26-14.64-55.95-.72-2.84-1.88-6.4,1.84-9.73,7.95,16.57,24.19,24.23,36.01,36.4,5.04,5.19,10.18,6.85,16.81,3.54,2.33-1.16,4.93-1.78,7.72-2.75,6.28-37.52,12.51-74.77,19.02-113.66Z"/>
  <path class="st0" d="M2101.8,646.98c15.6,5.85,30.63,11.27,45.46,17.17,4.86,1.93,8.56,1.55,12.97-1.29,19.61-12.63,39.42-24.95,59.21-37.29,3-1.87,6.28-3.29,11.11-5.78,3.21,29.58,4.29,57.71,6.41,85.75.18,2.41-.85,4.91-1.47,8.17-15.35-2.26-29.81-4.18-44.18-6.6-5.42-.91-10.35-.72-15.62,1-36.42,11.84-72.92,23.44-109.41,35.07-1.76.56-3.69.57-6,.91.8-16.87,1.53-33.08,2.33-49.29,1.87-37.95,2.9-75.96,6.06-113.8,1.32-15.78-2.55-28.03-11.63-40.42-12.99-17.72-24.43-36.57-36.83-54.73-4.57-6.69-6.65-13.47-5.31-21.59,1.08-6.55,1.46-13.26,1.6-19.91.07-3.3-1.1-6.63-1.96-11.31,1.49-.55,4.04-2.08,6.72-2.37,25.81-2.76,51.65-5.22,77.46-7.96,24.51-2.61,49-5.5,73.51-8.17,7.6-.83,8.88.21,8.98,7.92.29,21,.87,42.01.16,62.99-.21,6.17-3.77,12.49-6.72,18.27-23.81,46.57-47.85,93.02-71.79,139.52-.44.85-.53,1.87-1.05,3.77Z"/>
  <path class="st0" d="M966.81,1179.78c6.78-1.72,8.87,2.26,11.17,5.97,10.7,17.28,21.42,34.54,32.14,51.81,22.49,36.23,45.22,72.33,67.28,108.82,4.36,7.2,8.96,9.88,17.33,9.84,52.99-.24,105.99.03,158.98.28,4.77.02,9.54,1.11,15.86,1.9-1.87,5.26-2.97,8.95-4.47,12.48-13.15,30.96-26.38,61.89-39.55,92.84-2.46,5.78-4.76,11.64-7.6,18.62-3.17-.98-6.56-1.87-9.84-3.07-15.64-5.71-31.3-11.37-46.84-17.36-4.32-1.67-8.02-1.58-12.38-.1-20.18,6.86-40.47,13.38-60.74,19.96-9.12,2.96-12.12,1.81-16.76-6.9-8.6-16.18-17-32.46-25.47-48.71-15.4-29.54-31.13-58.91-46.09-88.67-12.86-25.57-24.33-51.84-37.48-77.25-4.71-9.1-6.34-17.34-4.37-27.29,3.16-16,5.19-32.22,7.73-48.34.25-1.59.7-3.15,1.1-4.85Z"/>
  <path class="st0" d="M1336.84,787.65c.28,4.59.22,8.53.81,12.36,5.6,36.19,11.34,72.35,16.93,108.54.52,3.38.36,6.87-.7,10.76-8.48-6.49-11.22-16.78-18.32-25.11-11.09,6.7-22.09,13.35-33.99,20.54.72,8.38,1.94,16.9,2.03,25.44.08,8.23,3.24,16.45,1.47,25.98-24.77-25.87-48.32-50.48-72.84-76.09-10.28,10.14-20.12,19.85-30.36,29.95,10.8,19.09,22.55,37.05,33.79,57.39-10.97,0-19.8.15-28.61-.13-1.64-.05-3.78-1.42-4.74-2.83-10.9-15.92-21.71-31.9-32.31-48.03-2.51-3.83-4.66-8.08-6.06-12.42-10.95-33.88-21.65-67.85-32.54-101.76-1.4-4.35-3.45-8.5-5.92-14.5,17.04-26.73,34.86-54.75,52.85-82.67.9-1.4,3.25-1.87,6.2-3.45,22.09,39.52,43.95,78.61,66.87,119.6,9.78-27.22,16.97-53.29,25.55-78.85,6.93,1.09,36.76,18.68,59.87,35.27Z"/>
  <path class="st0" d="M1990.41,832.65c-7.19-2.8-5.86-7.71-5.98-11.78-.97-33.65-1.79-67.3-2.69-100.96-.09-3.52-.4-7.04-.61-10.56-.66-.23-1.32-.47-1.98-.7-6.62,10.14-13.15,20.34-19.88,30.4-6.67,9.97-12.61,20.51-20.08,29.89-.66-.36-1.32-.72-1.98-1.09-1.74-19.97-3.47-39.94-5.23-59.9-.34-3.88.7-8.65-5.94-8.38,1.92-5.18,3.59-9.69,5.34-14.42,2.47-1.17,6.06-1.8,7.98-3.93,17.13-19.08,33.96-38.42,51.62-58.53-10.78-17.96-21.5-35.81-32.81-54.66-2.39,2.58-4.21,4.3-5.76,6.24-19.78,24.72-39.52,49.48-59.3,74.21-1.9,2.38-3.03,6.14-7.75,4.85,4.6-17.87,9.15-35.43,13.64-53.01,4.29-16.78,8.2-33.66,12.96-50.3,1.87-6.54.63-11.31-3.37-16.45-6.55-8.41-12.44-17.32-18.78-25.9-2.33-3.15-5.14-5.95-8.4-9.67,1.28-1.17,2.6-3,4.39-3.92,20.73-10.68,41.56-21.14,62.27-31.86,3.41-1.77,6.06-5.06,9.53-6.66,3.6-1.66,7.74-2.12,13.59-3.59-2.02,3.8-3.09,5.81-4.39,8.25,1.58,2.21,3.23,4.67,5.02,7.03,22.6,29.71,45.15,59.46,67.9,89.05,2.85,3.71,3.52,6.84,2.92,11.67-3.3,26.78-5.83,53.65-8.64,80.49-4.38,41.75-8.8,83.49-13.14,125.24-.52,5.03-2.4,9.05-5.27,13.46-6.89,10.55-12.28,22.09-18.31,33.21-2.17,4-4.44,7.95-6.86,12.27Z"/>
  <path class="st0" d="M2265.44,719.33c-4.68-24.72-6.14-49.91-9.31-74.84-3.13-24.63-5.7-49.34-8.74-76-4.24,3.28-7.07,5.37-9.79,7.59-25.28,20.66-50.51,41.38-75.85,61.98-2.88,2.34-5.36,6.04-10.46,5.01-1.41-4.55,1.53-7.77,3.12-11.14,20.59-43.67,41.19-87.34,62.07-130.87,3.29-6.86,4.58-13.56,4.24-21.12-.92-20.6-1.22-41.24-1.79-62.51,1.57-.22,3.46-.92,5.23-.67,27.36,3.86,54.67,8.22,82.09,11.59,10.74,1.32,18.25,6.66,24.61,14.47,10.73,13.17,21.22,26.53,31.91,39.74,4.42,5.47,7.87,12.29,16.75,12.81-8.28,5.37-17.66,5.54-26.44,7.64-9.39,2.24-18.91,3.88-28.37,5.83-9.08,1.88-18.15,3.83-28.29,5.98,1.21,5.6,2.08,10.7,3.42,15.68,8.2,30.54,16.31,61.11,24.9,91.54,2.18,7.74,1.28,13.84-3.37,20.52-15.99,22.96-31.4,46.32-47.07,69.51-1.8,2.66-3.85,5.14-5.79,7.7-1.03-.14-2.05-.29-3.08-.43Z"/>
  <path class="st0" d="M1340.14,703.61c6.1-16.51,11.73-31.74,17.01-46.05,15.73.9,30.55,1.92,45.4,2.5,4.7.18,8.21.8,10.02,5.94.95,2.68,3.38,4.88,5.28,7.18,16.82,20.25,33.59,40.56,50.57,60.68,6.66,7.89,13.58,15.58,20.81,22.95,25.66,26.18,51.47,52.23,77.33,78.22,2.91,2.92,6.52,5.14,11.21,8.78,5.24,24.15,19.24,46.71,29.72,70.75,2.85,6.53,3.54,12.17.97,19.04-6.42,17.15-12.02,34.6-17.99,51.91-.29.85-.98,1.55-2.38,3.7-2.02-3.5-3.78-6.1-5.1-8.9-6.24-13.26-12.13-26.69-18.67-39.8-1.98-3.97-5.11-7.79-8.63-10.49-11.34-8.71-23.11-16.87-33.29-24.22-.7-10.56-1.3-19.63-1.91-28.9-9.52-3.6-18.08-7.25-26.91-10.03-5.58-1.75-8.88-5.07-11.59-10.01-10.42-18.98-21.12-37.81-31.75-56.68-1.58-2.81-3.34-5.52-5.9-9.72-10.44,20.4-20.23,39.56-30.06,58.78-6.35.17-8.39-2.97-8.94-8.44-2.33-23.2-5.17-46.35-7.25-69.57-.66-7.4-2.97-13.04-8.43-18.29-16.79-16.15-33.07-32.84-49.54-49.3Z"/>
  <path class="st0" d="M1963.38,990.69c1.37-2.88,2.66-5.81,4.13-8.65,11.47-22.18,22.83-44.42,34.58-66.45,2.74-5.14,3.23-9.53,1.04-15-5.44-13.59-10.34-27.4-15.36-41.16-1.06-2.91-3.6-6.17,1.97-9.22,2.47,2.5,5.32,5.08,7.82,7.96,30.25,35.05,60.4,70.19,90.72,105.18,2.84,3.28,6.65,5.72,11.11,9.46.6,3.05,2.37,7.9-3.14,11.4-.91.58-1.08,2.37-1.5,3.63-8.38,25.27-16.76,50.54-25.11,75.82-.3.91-.38,1.89-.9,4.61,12.96-5.7,24.14-12.47,35.71-18.39,11.68-5.98,23.04-12.61,34.9-18.19l1.79,1.64c-2,5.33-3.56,10.88-6.07,15.96-13.3,26.85-26.87,53.56-40.29,80.35-1.87,3.73-5.65,7.61,1.34,10.81-7.44,3.27-102.97,10.16-122.67,9.28-.92-1.35-2.19-2.86-3.05-4.57-.88-1.75-1.35-3.71-1.74-4.84,3.06-5.11,6.03-9.47,8.41-14.14,14.53-28.47,28.94-57,43.36-85.52,1.48-2.92,2.82-5.92,4.53-9.53-9.32-7.17-18.27-14.03-27.2-20.91-7.13-5.48-14.41-10.78-21.31-16.53-3.69-3.07-7.19-4.05-11.58-.88-.49-.71-.98-1.43-1.47-2.14Z"/>
  <path class="st0" d="M2325.04,519.92c2.88,6.72,9.05,8.27,14.8,10.54,19.21,7.57,38.38,15.23,57.58,22.82,2.94,1.16,5.96,2.14,9.6,3.44-2.31-29.31-9.8-56.07-17.92-84.54,1.67-1.17,3.66-3.43,6.04-3.99,2.07-.48,5.2.27,6.79,1.68,3.91,3.49,6.94,7.94,10.77,11.52,20.69,19.35,41.48,38.59,62.33,57.77,2.68,2.46,5.84,4.4,9.08,6.81-2.91,4.84-4.58,8.03-6.62,10.96-43.12,62.14-86.27,124.27-129.44,186.37-5.98,8.6-6.18,8.6-15.15,3.76-11.14-6-22.31-11.96-33.33-18.2-4.64-2.63-9-5.28-14.61-1.06-1.17-4.97,1.53-7.23,3.56-9.64,18.67-22.18,37.27-44.42,56.17-66.39,3.84-4.47,5.03-8.44,3.61-14.35-8.74-36.24-17.07-72.58-25.42-108.91-.54-2.37-.07-4.98-.07-7.48.75-.38,1.49-.76,2.24-1.14Z"/>
  <path class="st0" d="M2509.52,588.55c2.6,3.88,5.12,6.85,6.77,10.23,12.72,25.99,24.28,52.62,38.33,77.87,6.42,11.54,5.93,20.53,1.53,31.97-8.95,23.26-16.47,47.08-24.65,70.64-.82,2.35-2.11,4.54-3.12,6.67-12.71-8.69-24.7-16.88-37.46-25.6-23.82,25.93-46.87,51.9-70.04,77.04-4.04-5.05-6.81-9.32-10.36-12.81-8.55-8.39-17.38-16.5-26.25-24.55-3.11-2.82-6.67-5.15-10.16-7.81,1.95-6.64,126.44-194.85,135.42-203.66Z"/>
  <path class="st0" d="M1644.26,997.06c-.71-2.48-1.66-4.91-2.08-7.44-4.56-27.23-9.05-54.48-13.49-81.73-.31-1.93-.3-3.98-.06-5.93,4.99-39.96,10.03-79.91,15.08-119.85.17-1.31.47-2.6.62-3.4,36.24-16.47,72.09-32.76,110.09-50.03-2.88,19.8-9.05,36.22-13.42,53.05-4.41,16.99-9.29,33.87-14.24,51.82,41.6,8.67,82.16,17.13,121.33,25.3,1.71,9.45,3.03,17.51,4.65,25.51,2.04,10.11,4.38,20.16,6.42,30.26.41,2,.06,4.16.06,7.97-3.58-2.61-5.71-3.98-7.63-5.59-9.93-8.37-19.84-16.77-29.67-25.25-3.1-2.68-6.3-4.06-10.61-4.52-37.72-4.03-75.41-8.46-113.11-12.73-2.94-.33-5.92-.34-9.42-.52-1.12,2.89-2.29,5.56-3.2,8.32-11.3,34.46-22.55,68.94-33.88,103.38-1.3,3.95-3.08,7.74-4.63,11.61-.94-.08-1.87-.15-2.81-.23Z"/>
  <path class="st0" d="M1579.95,571.34c-7.25,3.04-14.76,5.58-21.66,9.27-6.7,3.57-16.21,2.99-18.84,12.78-24.27-3.44-47.99-6.78-71.7-10.16-27.04-3.86-54.06-7.84-81.11-11.53-3.62-.49-7.43.41-12.46.75-2.11-2.58-5.09-6.13-7.98-9.75-33.46-41.94-67-83.83-100.25-125.94-4.67-5.91-9.55-8.72-17.32-9.35-59.44-4.87-118.82-10.3-178.22-15.61-2.54-.23-5.03-.94-9.08-1.73,2.23-3.08,3.41-5.32,5.13-6.98,9.12-8.79,18.43-17.37,27.55-26.16,2.35-2.26,4.54-2.94,7.96-2.55,24.49,2.73,49.01,5.14,73.53,7.56,25.2,2.49,50.4,4.89,75.61,7.28,7.18.68,14.38,1.18,19.71,1.61,3.22,5.28,4.87,9.2,7.55,12.21,36.14,40.56,72.48,80.95,108.59,121.53,3.99,4.48,8.31,6.92,14.24,8.09,56.53,11.1,113,22.5,169.49,33.84,3.08.62,6.11,1.45,9.16,2.19.04.89.07,1.78.11,2.67Z"/>
  <path class="st0" d="M1989.68,320.8c36.05-10.68,73.3-21.71,111.15-32.92,27.89,36.52,55.3,72.42,82.66,108.25-2.66,4.9-6.74,3.34-10.06,3.37-24.31.23-48.63.27-72.95.38-19.65.08-39.31.4-58.96.14-7.25-.1-13.6,1.66-20.01,4.83-29.53,14.62-59.2,28.99-88.83,43.42-3.15,1.54-6.42,2.84-11.79,5.2,1.47-4.21,1.91-6.27,2.86-8.05,19.38-36.08,38.85-72.1,58.21-108.19,2.64-4.92,4.77-10.12,7.71-16.42Z"/>
  <path class="st0" d="M1903.42,232.6c-8.23-28.96-18.53-56.6-26.78-86.97,13.04,2.51,22.99,7.69,33.39,11.37,10.66,3.78,21.18,7.97,31.75,12,10.45,3.98,20.89,7.99,31.18,11.92-8.52,23.1-16.69,44.84-24.47,66.71-1.54,4.32-3.67,7.08-7.53,9.77-37.15,25.89-74.02,52.18-111.08,78.21-4.01,2.82-5.04,6.65-6.06,10.93-11.29,47.25-22.7,94.47-33.96,141.72-1.56,6.55-3.85,12.41-8.38,17.71-6.91,8.09-13.06,16.83-19.41,25.39-1.55,2.09-2.63,4.53-3.93,6.81-1.07-.62-2.14-1.23-3.21-1.85-.2-2.35-.84-4.76-.54-7.04,5.42-40.58,10.95-81.14,16.46-121.7,3.72-27.37,7.79-54.7,10.98-82.13,1.13-9.76,4.08-16.59,13.7-20.85,8.43-3.73,16.17-9.18,23.85-14.4,27.81-18.88,55.47-37.98,84.05-57.59Z"/>
  <path class="st0" d="M1816.96,491.54c14.34-40.9,28.27-80.33,41.91-119.86,2.54-7.36,6.15-13.54,11.5-19.31,19.94-21.47,39.3-43.49,59.03-65.15,22.62-24.83,45.4-49.51,68.14-74.21,1.75-1.9,3.8-3.51,6.31-5.8,3.15,2.53,6.02,4.68,8.72,7.02,16.12,13.95,32.17,27.97,48.3,41.91,5.28,4.56,9.66,11.86,19.44,4.25-.04,1.08-.07,2.15-.11,3.23-1.32,1.52-2.39,3.42-4.01,4.5-8.03,5.34-16.09,10.63-24.39,15.54-2.44,1.44-5.63,1.78-8.54,2.24-20.71,3.28-41.41,6.61-62.16,9.56-4.86.69-7.44,2.91-9.75,7.08-29.74,53.55-59.96,106.84-89.26,160.63-4.39,8.05-9.22,12.43-17.78,14.71-13.49,3.59-26.67,8.33-40.02,12.47-2.19.68-4.57.77-7.33,1.2Z"/>
  <path class="st0" d="M1610.92,555.2c-6.13,4.26-9.78,1.24-13.21.17-40.36-12.6-80.65-25.44-120.95-38.22-17.77-5.64-35.54-11.28-53.31-16.92-1.9-.6-3.85-1.84-5.7-1.71-8.75.64-13.5-4.97-18.93-10.55-39.05-40.11-78.4-79.93-117.51-119.98-3.77-3.87-7.85-5.46-13.08-6.1-46.27-5.72-92.51-11.66-138.76-17.6-2.47-.32-4.88-1.1-9.47-2.17,5.87-3.42,10.06-5.5,13.87-8.13,12.05-8.34,24.05-16.78,35.88-25.43,4-2.92,7.59-3.89,12.73-2.73,40.59,9.19,81.29,17.86,121.87,27.07,3.83.87,7.63,3.88,10.48,6.83,27.32,28.28,54.43,56.76,81.6,85.18,9.9,10.36,18.76,22.09,30.03,30.65,11.24,8.54,24.89,13.93,37.52,20.63,45.3,24.06,90.62,48.08,135.9,72.16,3.38,1.8,6.54,4.03,11.05,6.83Z"/>
  <path class="st0" d="M1640.49,533.57c-2.1,0-4.34.47-6.26-.12-2.16-.67-4.04-2.27-6.02-3.5-62.74-39.14-125.48-78.29-188.22-117.44-4.2-2.62-8.63-4.79-10.3-10.21-.62-2.01-2.97-3.51-4.58-5.19-32.09-33.39-64.25-66.72-96.22-100.24-4.13-4.33-8.51-6.71-14.47-7.67-32.21-5.21-64.35-10.84-96.52-16.27-2.55-.43-5.16-.46-8.36-.73v-15.52c7.91,1.96,11.27-3.33,13.61-8.94,1.76-4.22,4.36-5.38,8.37-5.12,14.9.98,29.8,2.19,44.72,2.87,22.96,1.04,45.95,1.69,68.92,2.54,2.28.08,4.56.37,5.36.43,3.75,4.96,6.35,9.1,9.62,12.62,30.6,32.97,61.86,65.35,91.74,98.95,13.13,14.76,27.67,27.71,42.34,40.65,46.47,41,93.08,81.85,139.61,122.79,2.67,2.35,5.13,4.92,7.69,7.39-.35.9-.7,1.79-1.05,2.69Z"/>
  <path class="st0" d="M1001.99,1878.35c.69-3.08,1.18-6.21,2.09-9.22,16.3-53.87,32.94-107.63,48.74-161.64,3.22-11.01,3.46-22.92,4.77-34.45.9-7.94,1.06-15.96,1.9-23.91,1.17-11.09.02-21.59-3.76-32.31-14.06-39.89-27.32-80.05-41.1-120.04-1.83-5.3-2.01-10.08-.36-15.43,4.22-13.68,7.97-27.5,11.99-41.24.43-1.46,1.34-2.78,2.69-5.5,2.04,3.18,3.68,5.15,4.69,7.4,26.51,58.93,52.92,117.91,79.45,176.83,1.74,3.86,1.8,7.24.65,11.39-18.47,66.76-36.77,133.56-54.89,200.41-1.2,4.43-2.92,7.62-6.54,10.54-13.5,10.87-26.64,22.17-39.97,33.24-2.43,2.02-5.1,3.75-7.67,5.61-.89-.56-1.78-1.11-2.67-1.67Z"/>
  <path class="st0" d="M1716.62,534.13c-3.08-8.06-5.58-15.56-8.78-22.74-3.18-7.14-3.73-15.54-10.32-21.19-1.15-.99-.64-4.35-.33-6.54,6.01-42.19,12.1-84.36,18.17-126.54,1.94-13.51,5.67-27.08,5.24-40.52-.36-10.94,4.84-17.93,9.98-25.71,13.6-20.56,27.3-41.04,41.1-61.46,2.88-4.26,4.55-8.59,4.96-13.8,1.39-17.93,3.16-35.82,4.9-53.72.31-3.22,1.21-6.38,2.08-10.77-6.86-8.47-14.73-17.5-21.74-27.15-3.6-4.96-8.96-1.02-13.28-4.4,2.21-2.79,4.37-5.53,7.15-9.03,4.61,4.91,10.73,4.13,16.91,3.48,15.23-1.6,30.5-2.89,45.71-4.71,3.99-.48,7.81-2.43,12.81-4.06.74,2.53,1.85,5.52,2.49,8.6,4.1,19.88,7.08,40.08,12.55,59.57,2.98,10.6.65,16.75-6.18,24.82-25.41,29.98-49.61,60.98-74.48,91.41-4.19,5.12-6.4,10.59-7.4,17.01-10.81,69.74-21.75,139.46-32.67,209.18-1.03,6.59-2.97,12.78-8.87,18.26Z"/>
  <path class="st0" d="M1055.36,491.6c6.41-4.81,4.95-10.35,3.24-16.27-2.58-8.95-4.71-18.04-6.73-27.13-1.72-7.75,1.72-12.16,9.56-12.05,17.66.26,35.31.88,52.96,1.18,3.22.05,6.45-.81,9.69-1.17,1.89-.21,3.85-.56,5.7-.31,34.63,4.78,69.24,9.7,103.87,14.41,3.37.46,6.91-.32,11.69-.61,2.04,2.41,4.84,5.66,7.57,8.96,33.73,40.85,67.49,81.68,101.12,122.62,3.48,4.23,7.42,7.25,12.41,9.56,14.19,6.59,28.06,13.88,42.25,20.49,4.09,1.9,8.79,3.17,13.28,3.42,22.62,1.27,45.27,2.02,67.89,3.15,6.12.31,11.95.44,16.69-4.34.48-.49,1.74-.21,3.5-.37-1.13,5.04-3.03,8.13-7.26,10.98-7.32,4.92-13.75,11.17-22.68,18.64-11-.44-24.93-.98-38.87-1.56-2.33-.1-4.67-.67-6.97-.5-15.8,1.21-30.01-3.75-44.09-10.26-13.29-6.15-26.97-11.45-40.57-16.89-5.68-2.27-10.38-5.53-14.68-9.93-37.95-38.86-76.14-77.48-114.02-116.41-4.76-4.89-9.69-6.92-16.4-7.52-33.17-2.96-66.31-6.37-99.42-9.91-6.71-.72-12.35.44-17.59,4.72-6.9,5.64-13.88,11.21-21.18,16.3-2.42,1.69-5.93,1.8-8.94,2.63-.67-.61-1.34-1.23-2.01-1.84Z"/>
  <path class="st0" d="M1224.18,1512.08c4.35-10.14,8.17-18.97,11.94-27.83,10.04-23.58,19.99-47.2,30.15-70.73,1.33-3.09,1.52-8.09,6.46-7.68,4.61.38,4.78,5.09,5.75,8.41,8.48,29.15,22.29,55.41,43.36,78.62-9.94,11.18-21.88,19.11-32.43,30.13-6.32-4.94-12.48-9.76-19.38-15.16-.94,2.45-1.9,4.36-2.41,6.4-3.71,14.85-7.24,29.75-11.02,44.58-2.7,10.59-4.02,11.29-14.58,8.52-23.18-6.08-46.39-12.04-69.48-18.43-6.51-1.8-10.92-1.23-15.36,4.64-8.83,11.68-18.56,22.67-28,33.88-1.62,1.92-3.65,3.49-5.85,5.57-10.53-25.37-20.75-49.81-30.77-74.32-2.53-6.18-1.76-7.99,4.77-10.69,20.3-8.4,40.75-16.43,61.04-24.86,3.71-1.54,6.09-.09,9.18,1.44,18.44,9.15,37.02,18.02,56.65,27.52Z"/>
  <path class="st0" d="M474.77,1419.83c-5.61,6.15-9.83,10.3-13.51,14.88-19.41,24.14-38.61,48.46-58.09,72.54-4.1,5.06-6.97,10.18-7.8,16.82-.98,7.9-3.13,15.66-4.62,23.5-.42,2.19-.33,4.48-.52,7.45,13.2,2.05,25.96,4.04,39.2,6.1-.13.9.14,2.54-.55,3.27-14.56,15.49-29.22,30.88-43.92,46.35-17.34-10.26-34.15-20.23-50.97-30.17-11.18-6.61-22.38-13.19-33.57-19.78q-8.62-5.08-18.48-3.95c2.22-3.48,3.68-6.27,5.59-8.7,27.16-34.57,54.51-69.01,81.49-103.72,5.09-6.54,10.07-10.38,19.1-11.39,20.47-2.27,40.7-6.7,61.03-10.25,5.57-.97,11.13-2.09,16.73-2.9,2.39-.34,4.86-.06,8.88-.06Z"/>
  <path class="st0" d="M1398.73,890.47c-8.79,8.46-18.21,17.03-29.62,27.26-1.37-6.62-2.34-10.35-2.9-14.14-5.62-38.23-11.27-76.45-16.64-114.71-.95-6.78-3.58-11.36-9.71-14.91-12.68-7.34-24.96-15.39-37.24-23.39-9.05-5.89-19.42-10.1-26.06-21.11-9.19,21.88-17.86,42.55-27.26,64.95-20.62-30.27-39.99-58.72-59.93-88.01,10.1-4.26,19.19-8.1,28.28-11.94,3.07-1.29,6.24-2.38,9.19-3.91,8.29-4.3,16.56-5.03,25.93-3.07,20.2,4.23,40.64,7.3,61.01,10.66,4.86.8,8.39,2.86,11.55,6.81,18.54,23.16,37.18,46.23,56.19,69,4.96,5.95,7.53,12.14,8.08,19.77,1.99,27.92,4.26,55.81,6.57,83.7.32,3.83,1.47,7.6,2.57,13.02Z"/>
  <path class="st0" d="M1631.18,115.7c16.38-.44,28.13-10.21,41.79-13.52.28-2.61.48-4.47.7-6.52,1.41.08,2.63-.24,3.25.24,9.52,7.29,18.89,14.77,28.45,22.01,4.21,3.18,2.46,7.46,2.03,11.04-1.75,14.55-4.07,29.02-6.17,43.53-7.73,53.4-15.46,106.8-23.19,160.2-2.34,16.15-4.06,32.42-7.13,48.43-3.58,18.69-.96,37.19.1,55.74,1.72,29.94,3.84,59.86,5.7,89.79.11,1.74-.61,3.53-.95,5.29-.7.18-1.4.36-2.1.54-1.35-2.74-2.89-5.41-4.03-8.23-10.92-26.84-21.39-53.87-32.85-80.48-3.86-8.97-4.7-17.21-3.21-26.81,11.31-72.73,22.03-145.56,33.19-218.31.87-5.64.15-10.27-2.41-15.24-9.89-19.26-19.5-38.67-29.13-58.06-1.53-3.09-2.68-6.36-4.03-9.63Z"/>
  <path class="st0" d="M2156.05,995.53c-14.56,8.11-27.76,15.45-42.15,23.46-.61-9.47-1.16-17.54-1.63-25.62-1.03-17.96-2.03-35.93-3.02-53.89-.28-5.11-1.44-9.37-5.82-13.06-32.63-27.47-65.02-55.23-97.5-82.88-1.97-1.68-4.09-3.19-6.83-5.32,8.36-12.09,16.58-23.98,25.49-36.88,2.88,3.07,5.6,5.82,8.15,8.72,36.35,41.26,72.74,82.48,108.93,123.88,4.52,5.17,9.56,8.92,15.87,11.57,22.11,9.29,44.09,18.87,66.1,28.39,2.97,1.29,5.84,2.82,8.63,4.19-2.41,7.53-69.04,98.9-78.38,107.83-4.77-3.28-4.72-8.09-4.29-13.09,1.81-21.24,3.6-42.49,5.38-63.73.33-3.91.61-7.83,1.06-13.56Z"/>
  <path class="st0" d="M1617.25,475.8c-1.66-1.23-3.56-2.34-5.08-3.83-9.27-9.11-18.68-18.09-27.55-27.59-3.02-3.23-5.54-7.56-6.68-11.81-5.67-21.23-10.57-42.66-16.26-63.88-2.02-7.51.3-14.52.95-21.64,4.02-44.45,8.64-88.85,12.73-133.3.4-4.37-.5-9.38-2.36-13.36-10.03-21.41-20.51-42.61-30.97-63.82-1.72-3.49-4.1-6.65-6.6-10.63,1.99-1.34,3.99-2.97,6.23-4.14,10.02-5.27,20.17-10.31,30.15-15.65,3.42-1.83,6.5-4.3,10.85-7.23,1.43,2.77,3.23,5.75,4.58,8.93,9,21.14,17.91,42.32,26.85,63.49.65,1.53,1,3.29,1.99,4.57,7.72,9.95,5.79,20.73,3.77,32-9.98,55.72-19.5,111.52-29.34,167.27-1.37,7.74-.9,14.86,1.9,22.36,8.64,23.07,16.71,46.35,24.82,69.62.86,2.46,3.79,5.16.02,8.67Z"/>
  <path class="st0" d="M2148.73,917.52c17.26-13.92,33.38-26.92,49.51-39.93-.24-.71-.48-1.42-.73-2.13-27.25,1.43-54.53,2.45-83.25,5.69-1.06-1.18-3.33-3.54-5.42-6.06-20.2-24.36-40.32-48.78-60.58-73.09-3.73-4.48-7.98-8.53-12.95-13.8,12.15-11.1,24.54-22.43,38.06-34.78,18.66,35.38,36.87,69.91,55.29,104.82,43.81-12.21,86.42-25.97,129.74-37.65,1.95,10.35-9.91,105.39-13.68,113.55-13.19.93-84.21-10.8-95.99-16.62Z"/>
  <path class="st0" d="M1970.83,872.47c4.74,4.08,2.98,7.82,1.66,11.6-6.23,17.91-12.49,35.81-18.56,53.77-1.45,4.29-2.22,8.8-3.56,14.23-1.37.65-3.7,1.88-6.13,2.88-23.4,9.59-46.86,19.02-70.18,28.78-5.84,2.44-11.37,2.82-17.44,1.24-56-14.61-112.05-29.08-168.06-43.67-3.09-.8-6-2.29-10.96-4.22,3.37-2.65,5.05-4.49,7.14-5.52,10.43-5.17,20.97-10.13,31.47-15.17,2.4-1.15,5.4-1.73,7.1-3.54,6.98-7.39,14.73-4.87,22.89-2.91,44.65,10.68,89.37,21.02,134,31.77,6.7,1.61,11.49.84,16.84-4.08,21.57-19.83,43.65-39.09,65.57-58.52,2.64-2.34,5.48-4.44,8.21-6.62Z"/>
  <path class="st0" d="M866.52,599.24c15.65,10.25,30.57,20.02,46.32,30.33-2,1.59-3.84,3.31-5.92,4.66-58.66,38.14-117.29,76.34-176.12,114.22-6,3.86-9.59,8.57-12.14,14.99-11.65,29.41-23.56,58.72-35.46,88.03-1.16,2.86-2.05,6.33-5.67,6.81.02-20.19,1.2-40.07-.3-59.75-1.16-15.2,1.93-28.7,7.92-42.19,1.81-4.09,1.65-9.03,3.36-13.19,1.3-3.17,3.65-6.3,6.34-8.44,30.28-23.99,60.76-47.73,91.09-71.66,24.07-18.99,47.99-38.17,71.99-57.25,2.58-2.05,5.24-4.01,8.59-6.57Z"/>
  <path class="st0" d="M2581.94,748.85c1.1,53.14,2.2,106.28,3.3,159.5-22.28-.66-43.12,3.79-65.64,4.56-8.61-17.59-17.48-35.71-26.78-54.69-11.03,2.75-21.84,5.44-32.7,8.15-2.25-13.47-13.75-17.39-23-24.96,2.29-1.93,4.29-3.94,6.6-5.5,13.52-9.14,27.17-18.08,40.63-27.32,3.41-2.34,6.25-5.49,10.52-9.33,14.57,4.26,30.42,8.9,46.89,13.72,12.96-21.98,24.5-44.1,37.11-65.55,1.02.47,2.04.94,3.06,1.42Z"/>
  <path class="st0" d="M1687.28,1064.29c4.05-1.68,7.01-3.04,10.07-4.15,15.02-5.43,30.06-10.78,45.09-16.17,1.57-.56,3.44-.78,4.63-1.8,8.44-7.21,17.12-3.53,25.98-1.1,33.36,9.17,66.81,17.98,100.12,27.34,5.92,1.66,9.77.71,14.14-3.48,19.69-18.89,39.7-37.45,59.64-56.09.63-.59,1.7-.73,2.47-1.04,3.8,2.45,1.26,4.73.11,6.85-14.46,26.61-29.01,53.16-43.43,79.79-2.8,5.17-5.17,10.57-8.19,16.78-45.4-9.32-91.15-18.71-138.18-28.36-1.19,8.71-2.3,16.46-3.28,24.22-.79,6.27-1.29,12.58-2.17,18.84-.53,3.75.98,8.79-3.9,10.44-5.69,1.93-7.11-3.89-9.61-6.89-13.87-16.61-27.43-33.48-41.11-50.24-3.75-4.59-7.56-9.14-12.38-14.96Z"/>
  <path class="st0" d="M466.89,1564.33c-19.7-12.46-38.11-24.1-56.22-35.56,4.67-4.69,8.89-8.13,12.13-12.32,16.32-21.06,32.36-42.32,48.57-63.47,1.18-1.54,2.72-2.92,4.35-3.99,7.82-5.09,15.69-10.1,23.64-14.98,1.56-.96,3.57-1.18,5.22-1.69,3.7,4.6.56,8.12-.93,11.54-7.84,18.02-15.89,35.95-23.85,53.91-1.34,3.03-2.63,6.09-4.46,10.32,16.63,18.42,33.51,37.12,50.37,55.8-19.11,20.12-37.58,39.57-57.44,60.48-20.45-4.98-43.65-6.41-67.48-14.34,7.08-8.09,15.02-11.6,21.91-16.41,6.83-4.77,13.88-9.22,20.82-13.82,7.21-4.78,14.42-9.56,23.36-15.49Z"/>
  <path class="st0" d="M1669.11,1040.26c-6.97-8.3-15.35-15.81-21.3-26.59,3.03-2.35,5.48-4.45,8.14-6.25,14.03-9.56,28.16-18.98,42.15-28.59,4.31-2.96,8.32-6.35,13.33-10.2,25.53,5.93,52.08,12.07,78.62,18.27,26.24,6.12,52.48,12.26,78.7,18.48,4.65,1.1,8.71.75,13.35-1.22,17.14-7.29,34.56-13.93,51.93-20.68,2.2-.85,4.69-.95,7.05-1.39.43.72.86,1.43,1.28,2.15-2.29,2.52-4.36,5.29-6.91,7.51-13.55,11.82-27.23,23.49-40.83,35.26-5.27,4.56-10.43,9.23-16.22,14.37-15.65-3.31-31.85-6.72-48.05-10.15-27.02-5.72-54.06-11.32-81.03-17.25-5.8-1.28-10.91-.69-16.38,1.5-20.68,8.26-41.5,16.16-63.83,24.81Z"/>
  <path class="st0" d="M1466.3,131.22c2.21,4.97,3.53,9.04,5.69,12.6,10.88,17.95,21.94,35.79,33.04,53.6,2.6,4.17,5.63,8.07,9.14,13.08-11.77,51.7-23.33,104.53-35.72,157.07-5.89-.36-6.35-3.57-6.56-7.02-.39-6.32-.86-12.63-1.19-18.95-1.1-21.3-2.26-42.59-3.1-63.9-.15-3.87.7-7.93,1.85-11.67,3.03-9.84,6.47-19.56,10.02-30.12-2.47-2.53-4.93-5.15-7.48-7.65-24.29-23.78-48.64-47.5-72.81-71.39-2.39-2.36-5.29-5.85-5.19-8.71.18-5.1,5.71-4.77,9.41-5.51,15.02-3,30.11-5.66,45.14-8.57,3.56-.69,6.97-2.16,10.54-2.76,2.68-.45,5.5-.09,7.22-.09Z"/>
  <path class="st0" d="M810.28,589.8c11.32,2.65,21.17,4.96,31.18,7.31.74,6.45-3.29,9.64-7.66,12.85-45.06,33.18-89.99,66.53-135.16,99.54-6.71,4.91-11.42,10.59-14.59,18.26-7.75,18.77-15.99,37.33-24.19,55.9-2.07,4.68-3.1,9.19-2.4,14.45,1.64,12.2,2.68,24.49,3.86,36.75.25,2.55.04,5.15.04,9.74-13.24-8.25-24.45-16.59-35.3-24.05,4.79-21.79,9.52-42.44,13.83-63.18,2.62-12.62,4.3-25.45,7.09-38.03.61-2.74,3.87-5.19,6.38-7.16,30.91-24.27,61.92-48.42,92.9-72.61,19.16-14.96,38.32-29.94,57.49-44.89,2.6-2.03,5.28-3.95,6.53-4.89Z"/>
  <path class="st0" d="M1448.23,253.64c-.96,5.82-1.95,9.56-2.13,13.34-.71,14.96-1.13,29.93-1.74,44.9-.1,2.52-.61,5.02-1.04,8.44-5.5-2.31-7.52-6.44-9.79-10.27-10.04-16.87-20.13-33.71-30.03-50.67-2.45-4.19-5.57-7.16-9.93-9.35-20.51-10.3-40.96-20.74-61.31-31.36-4.47-2.33-8.4-2.63-13.25-1.08-15.78,5.05-31.72,9.57-47.54,14.28-3.63-5.37-6.92-10.23-10.8-15.97,2.5-2.54,4.53-5.8,7.46-7.38,29.6-15.9,59.35-31.53,89.08-47.2.83-.44,1.86-.49,2.05-.54,3.15,4.45,5.5,9.01,8.95,12.48,25.37,25.46,50.97,50.7,76.46,76.05,1.62,1.61,2.94,3.54,3.59,4.33Z"/>
  <path class="st0" d="M1906.23,1136.37c1.77-3.41,3.36-6.26,4.77-9.2,14.76-30.94,29.52-61.87,44.18-92.85,2.56-5.4,4.6-11.05,6.93-16.56,1.13-2.68,1.79-6.03,7.12-4.39-18.79,56.91-37.55,113.73-56.6,171.43-4.04-.45-7.61-.62-11.09-1.27-35-6.52-69.98-13.12-104.97-19.69-10.39-1.95-11.43-3.01-12.14-13.58-.87-12.95-1.78-25.91-2.36-38.88-.41-9.16.92-10.17,9.63-7.69,34.23,9.75,68.43,19.63,102.65,29.44,3.78,1.09,7.6,2.07,11.88,3.23Z"/>
  <path class="st0" d="M475.32,1649.17c-14.05,15.66-26.2,29.2-38.22,42.61-25.98-8.83-51.47-17.35-76.83-26.23-5.16-1.81-9.17-1.66-13.93,1.36-21.35,13.53-42.97,26.63-64.45,39.96-3.05,1.89-5.83,4.21-8.73,6.34-3.84-3.75-15.71-38.81-17.34-52.14,32.54-12.08,65.42-24.29,96.91-35.98,5.31,2.2,9.15,4.64,13.3,5.37,30.78,5.4,61.62,10.45,92.44,15.63,4.8.81,9.58,1.75,16.87,3.09Z"/>
  <path class="st0" d="M706.97,1691.13c30.26-66.19,59.41-129.95,88.89-194.43,1.39,1.07,3.22,1.88,4.13,3.29,9.06,13.98,17.82,28.15,27,42.04,2.63,3.98.92,6.85-.82,10.08-8.05,14.96-16.09,29.92-24.14,44.88-14.35,26.7-28.94,53.28-42.88,80.18-3.52,6.78-8.15,9.83-15.38,10.54-8.61.85-17.16,2.33-25.76,3.34-2.8.33-5.67.05-11.05.05Z"/>
  <path class="st0" d="M2102.5,746.01c5.69,6.07,11.29,12.18,17.03,18.15,8.31,8.65,16.58,17.33,25.16,25.7,2.19,2.14,5.54,4.59,8.25,4.47,24.9-1.11,49.78-2.75,75.9-4.32v-47.37c2.98-.35,5.74-.91,8.51-.97,12.99-.28,25.98-.24,38.96-.75,4.02-.16,7.99-1.71,13.26-2.92-.1,1.82.27,4.27-.42,6.38-5.68,17.4-11.62,34.71-17.34,52.09-1.25,3.8-3.31,6.07-7.31,7.23-37.39,10.85-74.77,21.78-112.07,32.95-5.15,1.54-8.01.38-10.59-4.15-14.34-25.17-28.79-50.27-43.4-75.29-2.56-4.39-2.01-7.4,4.05-11.2Z"/>
  <path class="st0" d="M501.12,1621.61c2.92-3.67,5.03-6.58,7.39-9.27,15.15-17.28,30.12-34.74,45.69-51.63,5.24-5.68,6.29-10.21,3.07-17.51-13.71-31.06-26.71-62.43-39.95-93.7-1.14-2.69-2.14-5.43-3.69-9.38,8.26-2.19,15.82-4.18,23.12-6.12,16.62,33.17,32.75,65.58,49.15,97.85,2.38,4.68,2.24,8.43,0,13.06-9.46,19.43-18.57,39.03-28.16,59.31,14.12,15.43,28.16,30.77,43.68,47.72-3.82,0-5.97.49-7.8-.07-29.25-9.03-58.47-18.18-87.68-27.37-1.19-.37-2.2-1.3-4.8-2.89Z"/>
  <path class="st0" d="M724.87,1480.13c-9,7.53-18.31,11.7-26.9,16.9-8.53,5.17-17.21,10.08-26.21,15.32,0,3.89-.02,7.52,0,11.15.2,27-.57,54.05,1.07,80.96.7,11.52-2.45,20.45-7.89,29.61-4.08,6.87-7.89,13.91-11.6,20.99-1.51,2.89-2.64,6.03-3.59,9.17-1.46,4.87-1.33,4.91-8.92,4.56,4.93-9.83,3.1-20.14,2.79-30.28-1.59-52.63-3.38-105.26-5.04-157.89-.2-6.23-.03-12.47-.03-19.46,3.06.35,5.29.36,7.39.87,20.72,4.99,41.41,10.11,62.13,15.06,4.9,1.17,9.93,1.82,16.78,3.04Z"/>
  <path class="st0" d="M698.99,1509.97c19.04-4.8,37.71-9.52,56.4-14.17.49-.12,1.16.5,2.68,1.2-.35,2.16-.37,4.74-1.2,7.03-20.87,57.6-41.82,115.17-62.81,172.72-.96,2.63-2.46,5.07-4.29,8.79-1.71-2.77-2.89-4.23-3.59-5.89-6.02-14.35-6.41-28.82-4.1-44.35,6.09-40.83,10.61-81.89,15.79-122.85.08-.62.53-1.19,1.13-2.48Z"/>
  <path class="st0" d="M559.29,1440.53c22.7,4.23,45.41,8.47,68.77,12.82-.76,4.86-1.38,9-2.07,13.13-4.84,29.19-1.37,58.51-1.05,87.76.34,31.31,1.56,62.61,2.39,93.91.1,3.61.71,7.42-4.29,10.08-1.66-1.7-3.65-3.28-5.08-5.27-8.75-12.17-17.18-24.57-26.16-36.56-2.93-3.91-2.09-7.34-1.06-11.23,4.59-17.38,8.97-34.81,13.81-52.12,1.41-5.06.91-9.6-.1-14.63-5.71-28.5-16.64-54.53-34.67-77.52-4.43-5.65-8.02-11.96-12-17.97.51-.8,1.01-1.6,1.52-2.4Z"/>
  <path class="st0" d="M331.03,1862.23c17.08-1.96,33.4-3.84,50.94-5.85,1.18,9.31,2.54,19.42,3.72,29.56,2.61,22.48,5.11,44.98,7.69,67.47.92,8.02,1.02,15.57-3.98,22.86-3.91,5.7-6.18,12.5-9.31,18.76-1.14,2.27-2.64,4.36-4.87,8.01-2.29-8.77-8.61-11.75-14.24-15.39-4.08-2.63-5.96-5.93-7.42-10.85-6.68-22.61-14.38-44.91-21.54-67.38-.88-2.77-.93-5.87-.96-8.82-.1-12.3-.04-24.6-.04-38.37Z"/>
  <path class="st0" d="M355.46,1733.13c-19.62,14.85-38.09,28.82-57.62,43.6-8.29-14.91-13.64-29.7-19.95-43.51,24.04-12.99,47.09-25.36,70.02-37.95,3.67-2.01,6.94-2.48,11.2-2.19,19.24,1.3,38.53,1.8,57.8,2.64,3.49.15,6.96.54,10.76,1.68-9.11,7.43-12.19,18.05-17.1,27.4-4.87,9.27-11.85,17.71-13.06,29.9-2.45-.52-5.09-.5-7.1-1.61-11.57-6.42-23-13.1-34.94-19.97Z"/>
  <path class="st0" d="M445.28,1977.84c-13.05-11.91-25.03-23.25-37.49-34.03-4.93-4.26-6.97-9-7.67-15.33-2.42-21.79-5.36-43.51-8.18-65.26-.37-2.89-1.18-5.73-1.95-9.34,9.19-5.75,18.36-11.49,28.4-17.77,1.26,3.17,2.2,5.11,2.83,7.15,10.71,34.92,20.93,70.01,32.37,104.69,3,9.08,3.85,16-3.34,22.9-2.2,2.11-3.61,5.05-4.96,6.99Z"/>
  <path class="st0" d="M948.01,1884.51c2.32-4.51,3.89-7.31,5.24-10.21,8.96-19.3,18.08-38.52,26.69-57.97,3.6-8.14,8.13-15.05,15.86-19.8,4.23-2.6,7.92-6.06,12.01-8.91,2.59-1.81,5.47-3.22,9.78-5.71-.26,4.02,0,6.23-.6,8.18-9.65,31.45-19.39,62.87-29.19,94.27-.68,2.17-1.5,4.64-3.06,6.14-9.79,9.42-19.8,18.6-29.82,27.93-10.18-3.7-19.81-7.2-29.86-10.85-.16-2.95-.46-5.53-.4-8.09.29-10.97.52-21.95,1.16-32.9.21-3.59-2.06-9.03,3.52-10.1,5.27-1.01,5.61,4.76,7.52,7.88,3.73,6.12,6.97,12.53,11.15,20.15Z"/>
  <path class="st0" d="M323.11,1846.69c-7.24-13.07-14.44-26.07-21.22-38.32,15.96-13.66,31.67-25.82,44.72-40.9,2.57-2.97,5.13-3.87,8.59-1.83,11.1,6.54,22.21,13.05,34.31,20.16.9,13.73-7.36,28.06-4.17,44.53-20.07,5.28-40.45,10.63-62.24,16.36Z"/>
  <path class="st0" d="M601.48,775.59c1.98,4.2,3.31,6.35,4.04,8.69,9.42,30.14,19.27,60.17,27.82,90.56,2.67,9.5,6.7,17.9,11.56,26.18,17.52,29.83,35.07,59.64,52.56,89.48,1.58,2.7,4.52,5.24,1.48,9.42-1.28-.96-2.73-1.68-3.7-2.81-28.49-32.98-56.9-66.03-85.42-98.99-2.51-2.9-5.65-5.25-9.51-8.78-1.55-7.57-1.52-105.65,1.17-113.74Z"/>
  <path class="st0" d="M1003.92,1768.54c0-2.76,0-6.02,0-9.28-.03-11.99,1.39-24.2-.43-35.91-3.21-20.72,2.12-40.04,6.58-59.66,5.16-22.7,10.37-45.39,15.58-68.08.27-1.17.79-2.28,1.98-5.65,2.2,4.12,3.72,6.41,4.71,8.92,4.53,11.44,9.06,22.89,13.25,34.45.96,2.66.97,5.83.78,8.72-.81,11.95-2.16,23.88-2.74,35.84-.4,8.16-3.79,15.12-6.65,22.5-7.57,19.54-14.38,39.37-21.5,59.08-.79,2.19-1.55,4.39-2.42,6.55-1.56,3.85-4.3,4.74-9.14,2.5Z"/>
  <path class="st0" d="M765.73,1702.74c1.26-4.26,1.76-8.2,3.5-11.48,20.71-39.05,41.58-78.03,62.53-116.95,1.42-2.64,3.86-4.73,7.15-8.66,5.66,13.16,10.47,24.33,15.22,35.38-19.69,34.29-39.15,68.26-58.71,102.18-4.33,7.51-5.28,7.77-13.6,5.11-5.01-1.6-9.94-3.43-16.09-5.58Z"/>
  <path class="st0" d="M991.8,1443.3c-21.08-13.01-42.17-26.01-64.3-39.67,9.02-32.56,19.52-65.28,28.9-98.34.88.1,1.77.21,2.65.31.62,1.67,1.37,3.31,1.84,5.03,10.61,39.17,21.25,78.33,31.71,117.54,1.16,4.34,1.3,8.96,1.92,13.44-.91.56-1.81,1.12-2.72,1.68Z"/>
  <path class="st0" d="M2212.43,778.69c-24.72-2.69-51.05-1.48-58.49,3.37-3.49-3.91-7.07-8.01-10.74-12.03-7.4-8.1-14.85-16.16-22.26-24.25-1.57-1.71-3.31-3.33-4.6-5.23-2.07-3.06-1.37-5.99,1.98-7.37,3.9-1.61,8.05-3.35,12.17-3.6,25.88-1.59,51.79-2.8,77.69-4.06.87-.04,1.78.66,2.96,1.14.89,16.53,1.81,33.03,2.61,49.55.04.82-.88,1.69-1.33,2.49Z"/>
  <path class="st0" d="M390.53,2024.82c.46-9.52,16.32-58.27,20.67-63.9,12.7,14.76,25.39,29.52,39.07,45.42,6.9-15.13,10.73-30.08,17.22-43.8.8.14,1.6.28,2.4.42.69,2,1.82,3.96,2.01,6,1.32,14.26,2.42,28.53,3.65,42.8.3,3.46.15,6.34-3.41,8.53-13.01,8-25.84,16.29-37.63,23.76-4.9-2.99-8.43-5.82-12.44-7.44-10.44-4.23-21.09-7.93-31.54-11.8Z"/>
  <path class="st0" d="M1378.78,1365.2c12.81,14.6,25.46,28.92,38.36,44.37-5.19,3.63-9.19,6.43-13.66,9.56,1.32,2.31,2.58,4.5,4.56,7.96-5.77,6.47-11.76,13.47-18.08,20.15-3.34,3.53-6.87,1.7-9.53-1.17-4.07-4.39-7.8-9.1-11.65-13.7-10.06-11.99-20.22-23.9-30.14-36.02-5.97-7.29-5.19-10.21,3.34-14.2,12.01-5.62,24.09-11.11,36.81-16.96Z"/>
  <path class="st0" d="M1504.83,378.5c8.53-32.16,16.93-63.86,25.38-95.74,3.15-.38,5.66-.68,9.33-1.13,3.61,46.12,7.17,91.65,10.88,138.99-2.8-1.72-4.7-2.47-6.07-3.79-12.91-12.41-25.72-24.92-39.52-38.34Z"/>
  <path class="st0" d="M1750.3,128.79c1.14,5.1,2.39,10.17,3.39,15.3,1.79,9.13,3.26,18.33,5.19,27.43.79,3.69,2.44,7.2,5.81,11.23-2.98,4.95-6,9.87-8.94,14.84-7.27,12.31-14.5,24.65-21.75,36.98-7.25,12.32-14.45,24.69-21.83,36.93-1.58,2.62-2.23,6.48-8.02,6.65.24-3.26.11-6.36.74-9.31,4.56-21.46,10.57-42.71,13.58-64.37,3.28-23.57,14.78-43.83,22.56-65.58,1.36-3.81,4.47-7,6.78-10.48.83.12,1.66.25,2.48.37Z"/>
  <path class="st0" d="M278.07,1567.28c16.94,11.37,33.64,22.75,50.56,33.79,4.24,2.76,9.21,4.39,14.4,6.79-.63.73-1.5,2.64-2.93,3.26-24.11,10.38-48.29,20.62-72.48,30.82-1.13.48-2.53.31-5.06.57-.12-4.88-.23-9.35-.35-13.81-.25-8.6-.58-17.19-.72-25.79-.03-1.59.43-3.31,1.09-4.78,4.36-9.7,8.82-19.35,13.33-28.98.37-.78,1.42-1.24,2.16-1.86Z"/>
  <path class="st0" d="M908.8,1797.35c-1.94-2.33-3.17-3.14-3.42-4.19-23.28-94.38-46.49-188.78-69.62-283.2-.25-1.03.5-2.31.96-4.2,4.96,2.77,5.33,7.32,6.45,11.18,8.33,28.78,16.51,57.61,24.74,86.42,14.9,52.19,29.69,104.4,44.79,156.53,2.19,7.57,3.44,14.62.2,22.19-1.8,4.2-2.44,8.9-4.09,15.26Z"/>
  <path class="st0" d="M1295.52,1427.06c4.74-10.54,17.95-15.57,19.4-28.46,6.02,2.99,43.09,43.22,51.77,56.28-5.07,12.23-10.24,24.71-15.42,37.2-6.11-3.72-41.58-45.07-55.75-65.03Z"/>
  <path class="st0" d="M672.33,675.92c-.14-1.79-.32-2.3-.17-2.42,10.41-8.53,11.48-20.88,13.63-32.84.38-2.09,1.45-4.56,3.02-5.85,19.77-16.22,39.69-32.25,59.28-48.08,12.03,3.52,22.07,12.14,36.29,9.91-1.88,2.31-3.4,5.08-5.71,6.83-3.65,2.77-7.99,4.6-11.74,7.26-25.21,17.91-50.25,36.05-75.56,53.81-5.05,3.55-8.39,9.51-15.03,10.8-1.19.23-2.39.34-4.02.57Z"/>
  <path class="st0" d="M727.59,979.02c-2.57-3.07-4.43-4.55-5.34-6.49-15.72-33.26-31.95-66.29-47.35-99.77,9.02.09,16.71-.04,24.38.4,1.89.11,4.55,1.64,5.38,3.27,11.67,22.8,22.82,45.86,34.71,68.53,3.25,6.2,3.2,10.88-.83,16.4-3.84,5.25-6.91,11.06-10.94,17.66Z"/>
  <path class="st0" d="M877.22,1719.34c-16.98-1.77-33.01-3.53-49.06-5.06-4.6-.44-9.28-.03-13.89-.45-2.3-.21-4.51-1.41-8.86-2.87,12.2-6.74,16.89-17.15,23.7-25.76,6.79-8.6,13.06-17.62,19.69-26.35,1.88-2.48,3.07-6.15,7.51-5.28,4.63.91,5.01,4.7,5.94,8.21,2.05,7.7,4.14,15.39,6.25,23.07,2.28,8.33,4.67,16.62,6.87,24.97.81,3.06,1.22,6.22,1.85,9.52Z"/>
  <path class="st0" d="M1230.63,905.17c17.21,21.98,34.28,43.01,51.41,65.64-11.84,4.94-22.93,4.47-33.31,7.26-13.02-17.95-25.68-35.39-39.08-53.86,6.78-6.15,13.27-12.04,20.98-19.04Z"/>
  <path class="st0" d="M1404.02,1387.42c-6.69-10.15-12.65-19.62-19.08-28.77-2.79-3.97-3.28-7.33-1.44-11.93,3.45-8.64,5.95-17.65,9.14-26.4,2.79-7.64,5.2-8.1,11.3-2.35,4.36,4.11,8.62,8.34,12.66,12.76,1.47,1.6,2.82,3.84,3.08,5.92,1.06,8.58,1.78,17.21,2.4,25.83.16,2.24.3,5.19-.93,6.69-5.39,6.57-10.97,13.05-17.14,18.23Z"/>
  <path class="st0" d="M751.49,1099.04c-5.07.66-8.22-.76-10.54-4.76-15.34-26.44-30.83-52.79-46.19-79.22-.77-1.33-.87-3.04-1.31-4.65,3.76-2.21,5.99-.27,7.99,2.01,17.33,19.73,34.64,39.47,51.87,59.29,1.2,1.38,2.48,3.57,2.25,5.17-1.08,7.47-2.68,14.87-4.07,22.17Z"/>
  <path class="st0" d="M1420.25,1317.37c-8.05-5.21-15.16-9.81-21.7-14.04,2.58-7.72,4.93-14.2,6.9-20.8,3.71-12.45,7.15-24.97,10.8-37.43,1.11-3.78,2.04-8.05,7.68-6.69,1.89,6.56-.66,66.58-3.68,78.96Z"/>
  <path class="st0" d="M1320.48,959.29c-5.01-1.95-6.16-5.35-6.89-9.55-3.24-18.76-3.35-18.74,12.79-27.92,3.69-2.1,7.38-4.21,11.97-6.82,4.08,6.94,7.72,13.14,11.15,18.96-10.09,8.8-19.67,17.17-29.02,25.33Z"/>
</svg>