<?xml version="1.0" encoding="UTF-8"?>
<svg id="Layer_0_xA0_Image" xmlns="http://www.w3.org/2000/svg" version="1.1" viewBox="0 0 2732 2048">
  <!-- Generator: Adobe Illustrator 30.2.1, SVG Export Plug-In . SVG Version: 2.1.1 Build 1)  -->
  <defs>
    <style>
      .st0 {
        fill: #478eb0;
      }
    </style>
  </defs>
  <path class="st0" d="M1708,2047.92c-2.37-.27-7.45-3.51-11.75-2.25l-5.66-19.78-146.59-31.02,2.91-7.04,114.72-115.34-29.71-153.68c-1.16-6.43,2.2-8.16,7.11-10.88,1.3,7.11,15.36,7.12,17.98,11.88.83,1.5-1.21,4.61-.63,6.67,1.01,3.66,7.47,5.73,5.63,11.43l-8.04,1.03,25.71,139.51-103.68,105.43,127.92,27.1c5.3,3.06,11.45,29.84,10.08,36.92-1.97-.13-4.06.22-6,0Z"/>
  <path class="st0" d="M1732,2047.92l-12.48-47.53-119.51-24.48,2.98-6,90.69-91.44c-3.99-38.61-18.38-77.65-23.48-115.77-.47-3.52-1.55-5.02,2.81-4.83,10.83.48,25.01,9.97,36.79,10.24l.21,15.82-15.99-2.01c2.85,34.04,12.89,67.18,17.98,100.97-10.28,12.31-21.73,25.1-32.98,37.05-11.39,12.1-28.36,25.47-38.04,37.95-1.55,2-3.87,2.55-2.98,6l95.04,21.97c11.88,7.32,13.33,46.42,16.97,60.04l-10.02,2.01h-8Z"/>
  <polygon class="st0" points="1632 0 1671.99 129.98 1529.23 98.47 1455 171.96 1446.94 153.96 1523.45 80.29 1641.99 99.98 1612.08 4.94 1630 0 1632 0"/>
  <path class="st0" d="M1102,2047.92l-38-129.01,140.9,31.07c11.56-5.33,70.94-73.22,76.07-72.04,3.02,3.18,7.53,14.56,6.11,17.94l-74.49,71.66-9.3.17-111.28-19.75,30.03,96.95-14.03,3.03h-6Z"/>
  <path class="st0" d="M1394,2047.92h-22l.86-7.98-75.91-15.97-24.87-81.25c-2.53-5.27,14.84-21.62,15.9-20.8l23.86,89.16,90.2,23.8c4.79,2.8-7.57,9.51-8.04,13.04Z"/>
  <path class="st0" d="M994,2047.92h-14c-5.81-13.61,1.87-13.44,4.98-20.03,4.96-10.51-9.05-38.71-9-50.99.03-8.42,6.53-15.06,8.04-22.97,2.75.21,3.17,2.92,4.07,4.9,4.72,10.36,21.07,58.62,21.86,68.34.92,11.4-11.59,11.29-15.96,20.76Z"/>
  <path class="st0" d="M542,493.98l-109.97,71.21c-3.83,1.25-30.88-13.88-31.78-15.45-3.31-5.77,9.53-11.04,12.73-15.3l14.52,9.2,5.9-1.18,115.47-76.62,9.13-1.87,2.43,171.6,126.23,82.75c18.46,10.32-3.73,18.34-14.53,18.78-3.56.14-9.1-8.38-16.1-5.14l3.08-10.03-117.09-80.96v-146.99Z"/>
  <path class="st0" d="M838,1849.93l69.11,107.92c3.42,10.76-10.84,24.85-16.18,34.08-26.15-11.56-.82-23.22-3.88-31.88l-81.05-126.1,170.66-2.34,87.24-130.19c3.44-3.48,9.28-5.71,11.69-.07.41.96,4.36,16.78,4.33,17.69-.14,4.01-9.33,9.32-5.94,16.89-3.57,1.32-5.25-3.54-6.99-3.52-7.17.06-69.93,105.39-82,117.53h-147Z"/>
  <path class="st0" d="M1042.32,21.66c4.25,6.38,133.42,22.14,149.68,33.37l-119.67,122.35,30.77,158.54c-1.22,9.28-24-5.07-24.74-6.29-1.08-1.78.12-6.26-1.36-9.61-2.07-4.69-12.45-8.66,3.03-8.04l-25.53-140.77,100.53-101.21,2.98-6-124.02-24.98c-11.13-4.1-11.64-26.5-13.97-37.02l18.12.88,4.2,18.78Z"/>
  <path class="st0" d="M2389.74,695.71l-20.39,6.71-32.4,145.56-122.4-117.68-157.1,29.31c-10.68-.57,2.58-21.78,5.45-23.86,2.68-1.94,5.82.76,8.99-.69,5.63-2.57,7.1-12.42,9.14,2.95l139.86-26.07,104.11,103.99,29.15-128.81,35.83-11.15-.24,19.73Z"/>
  <path class="st0" d="M1928,215.99h-169l-88.01,131.98-10.82,1.83-5.33-19.71,8.16-18.07,5.8,3.89,81.21-116.91,147.99.97-71.65-111.47c-1.32-6.29,14.29-26.61,18.66-32.47l12.79,13.25c.73,4.22-13.05,14.08-8.82,20.58l76.71,115.44,2.31,10.69Z"/>
  <path class="st0" d="M653.81,1312.14l-140.43,25.48-105.37-105.67-27.1,129.91c-3.03,5.22-29.5,8.71-36.91,10.07l2.1-19.88,16.53-2.46,2.99-3,28.02-137.97,5.34-8.62,121.14,118.98,155-30.84,6.82,6.78c.03,1.48-8.01,16.27-8.93,17.07-3.95,3.45-12.68.76-16.03,7.93l-3.19-7.77Z"/>
  <path class="st0" d="M2176,1413.95l-134.1-87.3,2.06-9.75c5.47-.6,12.66-4.19,17.62-4.61,6.12-.51,9.85,8.73,18.43,5.68l-5.05,8,118.02,82-.95,147.97,109.49-71.59c10.47-2.65,25.03,12.31,34.51,16.61l-13.31,12.69-18.74-8.95-123.26,81.01-4.71-2.77v-168.99Z"/>
  <path class="st0" d="M710,1255.93l127.99-25.97c1.21,5.19-1.55,3.49-3.78,5.15-6.97,5.18-14.9,8.93-21.74,14.31l-125.93,34.18-4.53-2.71,52.02-163.88-98.88-105.2-1.18-6.87,15.42-4.6,104.32,111.06-43.71,144.53Z"/>
  <path class="st0" d="M877.58,500.39l-6.55,153.61-131.02,68,1.25,4.14,100.58,64.99,3.19,6.81c-9.41-4.26-20.99-3.86-30.45-7.55-24.45-9.52-73.15-41.16-97.92-56.08-2.52-1.52-16.65-9.51-16.61-11.35l154.98-80.97,2.98-145.01,4.63-4.73,14.94,8.13Z"/>
  <path class="st0" d="M1625.99,1709.93l-164.94-52.03c-2.76.29-10.33,6.77-13.08,9.01-28.42,23.14-64.14,71.31-92.13,89.87-2.44,1.62-4.58,3.63-7.83,3.16-8.74-20.77,1.24-24.71,14.93-38.05,24.32-23.72,57.2-56.03,83.03-76.96,2.99-2.42,6.02-4.86,9.49-6.58l144.52,43.59-25.97-127.98c6.69,7.56,15.3,18.7,18.94,28.04,10.48,26.88,26.89,89.03,32.13,117.86.61,3.37,1.31,6.64.89,10.09Z"/>
  <path class="st0" d="M1899.99,515.99c1.67,1.62-6.63,18.28-10.98,18l-149.02-5-73-133-68.09,105.89c-1.34,3.56-4.77.23-4.83-.87-.22-3.66,8.61-30.05,10.91-35.06,13.19-28.84,39.39-71.75,56.71-99.3,1.39-2.21,4.38-10.01,7.31-8.66,9.28,4.28,67.14,136.08,81,153.01l150.01,4.98Z"/>
  <path class="st0" d="M2051.99,765.98l-51.59,166.71,100.6,105.27.99,5.97c-7.32.73-15.92,7.51-22.12,1.15l-99.47-108.39,43.58-144.72-125.97,25.99c-1.19-5.43,1.64-3.41,3.97-4.94,7.27-4.79,14.53-9.9,22.44-13.63l127.57-33.41Z"/>
  <path class="st0" d="M1136.01,368l25.98,125.97c-4.13.9-4.55-2.1-6.45-4.53-3.93-5.03-11.87-18-14.14-23.86-10.39-26.85-26.68-89.24-31.99-118.07-.45-2.46-2.86-4.35.56-6.55,7.25-4.66,145.01,47.42,164.75,50.62l110.29-103.57,5.16,21.04-111.11,102.17-143.05-43.21Z"/>
  <path class="st0" d="M1136.04,1545.96c3.48-.1,4.25-1.13,3.82,2.8-.83,7.5-4.28,21.96-7.07,28.97-13.81,34.74-46.48,72.87-61.81,108.27l-4.01,4-82.96-153.06-149.99-5.96,9.32-17.1,151.34,6.4,72.32,131.63,69.04-105.94Z"/>
  <polygon class="st0" points="1880.33 1406.27 1875.99 1557.93 1857.92 1548.6 1862.98 1395.92 1995.96 1324.95 1888 1251.97 1922.78 1260.17 2034 1324.97 1880.33 1406.27"/>
  <path class="st0" d="M2202,1396.95l-101.96-68,38-20.06,8.04,10.06-11.12,13.01,84,58.02,3.06,107.95,83.09-51.89c17.52-2.84,39.01,21.94,54.92,28.92l-12.69,14.7c-10.52-3.52-33.47-25.7-43.37-22.93l-98.01,64.22-3.97-2.03v-132Z"/>
  <path class="st0" d="M1873.99,187.97l-135.59,2.44-65.42,101.57c-3.99.78-2.44-.86-3.41-2.54-3.01-5.18-16.93-29.35-17.25-32.82-.29-3.21,7.29-10.2,10.73-10.73,5.27-.8,6.26,14.98,11.98,10.13l57.44-82.56,107.52-3.48-51.96-85.16c-.67-3.13-.03-5.81,1.06-8.74,1.09-2.93,27.25-43.87,29.9-43.87,4.24,4.08,13.85,7.34,12.76,14.33-1.24,7.97-24.58,31.64-22.84,39.63l65.09,101.8Z"/>
  <path class="st0" d="M1003.8,2.21l12.27,46.72,117.92,25.09-2.98,6-90.54,91.21,25.51,120.76-42.08-13.31.1-14.69,18.02.97-18-99.91c.48-2.5,28.21-32.08,32.94-37.09,11.32-11.96,28.54-25.59,38.04-37.96,1.54-2.01,3.88-2.54,2.98-6l-97.39-20.62c-10.21-6.98-10.79-47.01-16.62-59.36l19.82-1.82Z"/>
  <path class="st0" d="M2387.82,642.14l2.16,19.81-47.64,10.37-24.36,119.64-97.43-93.67-120.54,23.66,13.25-39.73,14.75-.25-1.98,17.99,98.96-20c7.56.77,47.99,44.68,56.99,53.03,5.54,5.13,14.49,13.74,20.01,17.98,2.01,1.54,2.54,3.88,6,2.98,7.16-27.58,9.42-64.19,18.53-90.46,2.04-5.87,4.51-9.19,10.52-11.47,4.66-1.77,48.64-11.35,50.77-9.89Z"/>
  <path class="st0" d="M633.99,1325.96l-13.25,41.72-12.74.28,2-17.99-101.07,19.17-80.9-75.18-21.95,97.07c-6.6,10.12-45.08,11.35-57.17,16.48l-4.85-19.49,48.01-11.45,23.94-118.6,6,2.98,93.21,90.53,118.76-25.51Z"/>
  <path class="st0" d="M532,650.98l101.98,68.05c.65,2.71-1.53,3.39-3.27,4.66-2.14,1.57-26.64,14.83-28.67,15.49-1.55.5-2.96,1.13-4.63.53l-9.33-10.52c.89-4.19,13.21-6.72,11.9-13.18l-83.57-54.44-2.43-109.58-85.14,51.97c-12.72,2.07-40.05-23.79-52.99-29.12l11.13-16.66,41.67,25.39,103.35-67.58v134.99Z"/>
  <path class="st0" d="M996,1859.93l67-103.96,20.09,37.99-12.01,9.96-7.11-11.98-5.01,1.94-54.94,81.06c-36.58,3.58-73.26,3.15-110,3-3.37,2.91,43.83,67.78,47.6,75.38,12.51,25.22-13.32,41.38-24.81,62.45l-14.52-8.12-.35-2.63c3.25-10.16,26-34.55,23.72-43.58l-65.64-101.52h136Z"/>
  <path class="st0" d="M1721.99,175.98l-184.75-43.54-130.24,125.51c-2.27,0-5.13-14.21-5.11-17.08.05-7.35,5.45-6.52,9.21-10.77,7.31-8.27,12.58-12.74,19.95-20.05,33.68-33.4,67.64-66.49,101.88-99.3l181.68,43.63c4,.95,8.23,20.8,7.37,21.6Z"/>
  <path class="st0" d="M798,1539.96l-12.99,15.99-181.04-2.98-97-159.16c-1.42-4.09,7.87-24.22,14.03-15.86l94.97,157.02,182.03,4.99Z"/>
  <path class="st0" d="M851.99,453.97l-16.14-10.93,3.14-181.07,161.85-98.02c6.49,2.56,21.53,8.58,11.04,14.91l-154.89,95.11-5,180Z"/>
  <path class="st0" d="M1329.99,1791.94c-.37,7.1,4.87,14.59.11,21.1l-127.49,124.56-183.15-43.65-5.46-20.02,184.55,41.66,125.44-120.68,6-2.98Z"/>
  <path class="st0" d="M2216.01,1377.94l43.14-184.07c-32.16-37.01-68.91-69.98-102.18-105.88-5.13-5.53-13.75-14.5-17.98-20.01-1.54-2.01-3.88-2.54-2.98-6,7.1.37,14.59-4.87,21.1-.11l122.56,127.54-42.17,181.05c-.15,5.93-20.08,8.86-21.5,7.48Z"/>
  <path class="st0" d="M517.99,669.98l-42.02,184.88,124.02,130.11c-6.04,2.54-14.92,7.19-21.08,3.12l-124.59-129.52,43.94-184.35,19.73-4.24Z"/>
  <path class="st0" d="M1908,1690.94l4.08-2.15,14.05,6.37-1.63,106.27-94.39,67.61-2.11,4.86,87.96,47.03-9.98,12.09-4.5.63c-11.82-10.2-113.96-54.4-115.48-60.74-.76-3.2,2.72-4.05,4.63-5.34,38.27-26.01,79.68-47.65,117.37-74.63v-102Z"/>
  <path class="st0" d="M2131.68,496.31l95.48,157.61c2.77,7.13-4.43,14.22-8.19,20.05l-7.79-8.18-91.58-151.4-181.6-4.42,9.32-15.66c8.38,1.33,18.47-2.36,25.76-2.4,4.78-.03,9.08,2.16,13.82,2.16,48.39-.01,96.64-.73,144.76,2.24Z"/>
  <path class="st0" d="M1718.01,1877.9c-2.76-3.82,12.99-12.71,16.16-14.8,46.37-30.59,96.71-56.03,142.83-87.17,5.75-37.23,2.1-75.41,2.92-113.08.1-4.73,2.03-9.1,2.16-13.83.52-18.3-1.37-36.87.9-55.07l16.54,13.22c-3.93,7.98.59,15.25.55,21.86-.03,4.81-2.14,9.08-2.16,13.82-.25,48.42,1.48,96.83-2.93,145.06l-161.64,97.59-15.34-7.61Z"/>
  <path class="st0" d="M2035,483.98l-2.7-4.63c3.18-4.47,2.61-12.59,8.67-13.4l104.55,1.36,69.48,98.66,47.02-89.99,15.82,10.21-63.82,121.78-76.03-123.99h-103Z"/>
  <path class="st0" d="M704,1565.94c.9.81-6.37,18.7-10.99,18.01l-103.68-2.34-68.35-97.68-47.01,88.01-15.68-8.32,62.69-121.69,78.02,124.01h105Z"/>
  <polygon class="st0" points="826 359.99 807.92 352.65 810.99 245.98 907.96 176.99 820.07 127.11 830.95 114.24 949.96 176.99 826 256.99 826 359.99"/>
  <polygon class="st0" points="2239.66 1104.24 2311.68 1181.35 2292.02 1299.95 2386.84 1269.89 2391.14 1288.07 2262.02 1329.95 2293.86 1186.83 2220.01 1110.95 2239.66 1104.24"/>
  <path class="st0" d="M474,719.99l-32.05,142.87,72.03,74.12c1.91,4.5-14.2,6.31-17.07,8.5l-74.12-78.44,21.19-117.07-97.99,28-2.14-16.78,130.13-41.21Z"/>
  <path class="st0" d="M2030,241.97c-16.38.29-32.85-1.68-49.1-3.92-3.15-.43-3.28-.3-2.88,2.9l74.43,119.59,1.19,7.91-77.57,116.59c-5.01,5.25-13.43,2.28-20.06,2.92l79.35-125-93.35-142.97,70.56,4.42,17.43,17.55Z"/>
  <path class="st0" d="M829.99,435.97l-124.97-79.34-143.01,93.34,4.03-66.95c.34-3.71,17.85-21.35,19.95-19.03l-3,49.98,127.53-75.7,115.58,76.63c6.43,5.07,3.34,13.87,3.9,21.08Z"/>
  <path class="st0" d="M2389.99,937.96c-3.22.74-4.09-1.11-6.05-2.93-10.18-9.44-18.75-25.76-29.92-35.06l-36.09,144.92-139.39,28.6-14.5-12.53,144.17-33.79,34.79-165.16,45.15,50.8,1.84,25.14Z"/>
  <path class="st0" d="M1281.99,2.01c1.29,4.67-1.19,3.37-2.55,4.56-3.24,2.86-36.89,29.53-35.44,31.4l144.17,35.33,27.93,139.8c.03,6.75-7.14,10.11-11.13,14.87l-33.43-143.51-167.5-35.47,51.21-44.75,26.74-2.24Z"/>
  <path class="st0" d="M1529.99,1997.94c.71,3.51-1.81,4.93-3.96,7.02-14.19,13.73-32.04,25.72-46.06,39.94l-25.96,1.02c-1.3-4.68,1.22-3.38,2.55-4.56,8.91-7.91,20.14-15.3,28.49-23.38,2.34-2.26,5.56-4.32,4.94-8.04l-142.04-32.96-29.11-139.01c-1.14-8.09,7.63-12.69,12.16-18l32.95,145,166.04,32.97Z"/>
  <path class="st0" d="M569.99,989.94l-143.73,30.28-32.28,167.73c-5.43-3.96-10.44-9.05-15.01-13.97-5.45-5.87-28.28-30.54-30.72-35.28-4.18-8.14-2.42-19.94-1.26-28.74,10.6,10.05,19.2,24.58,29.38,34.62,1.76,1.73,1.69,4.38,5.62,3.36l35.16-143.83,137.96-28.25c4.21-1.48,16.81,11.51,14.88,14.08Z"/>
  <path class="st0" d="M780,1561.96l-79.98,124.98,93.97,142.98-68.57-4.41c-4-.05-21.9-17.32-19.41-19.57,12.55.89,26.5,3.45,38.91,4.07,3.05.15,12.53,1.69,11.06-3.04l-75.57-123.72,78.61-119.3,20.99-1.99Z"/>
  <path class="st0" d="M2150.02,1685.94c-.53-15.77,1.78-31.51,3.89-47.12.43-3.21.33-3.18-2.93-2.91l-125.52,75.78-117.55-78.65c-6.06-4.62-3.58-12.46-3.9-19.09l126.68,77.59,141.29-93.6c2.1,2.84-2.4,64.54-4.45,70.52-1.66,4.83-13.24,13.65-17.51,17.47Z"/>
  <path class="st0" d="M841.75,1242.11l76.25,136.7-90.32,152.8-23.67,2.32,95.24-152.99-74.92-128.44c-2.02-7.59,12.16-8.7,17.42-10.4Z"/>
  <path class="st0" d="M1407.99,266l38.45,175.54,147.56,38.46-6.11,17.88-153.47-40.33-42.29-168.84c-1.99-7.06,5.38-14.56,10.23-19.36,1.76-1.74,1.69-4.38,5.62-3.36Z"/>
  <path class="st0" d="M2126,1063.94l-175.58,38.42-38.47,147.57-17.08-5.88,41.14-153.07,169.56-42.67c3.95-1.69,21.43,14.34,20.42,15.64Z"/>
  <path class="st0" d="M1892.25,805.73l-76.24-134.75,92.4-154.57,23.57-2.42-96,153.11,75.8,131.91c-.21,2.9-16.56,8.62-19.53,6.72Z"/>
  <path class="st0" d="M1878,1587.92l-153.36-95.58-128.55,74.72-5.99.81c-.51-4.76-4.61-10.3-4.18-14.93.71-7.79,119.87-69.85,135.08-78.84l152.12,89.73c6.13,5.93.24,16.8,4.89,24.09Z"/>
  <polygon class="st0" points="1143.97 479.99 1149.85 499.79 1013.34 575.54 862.03 484.96 858.02 459.98 1010.98 555.84 1143.97 479.99"/>
  <polygon class="st0" points="1328.02 1783.93 1289.03 1607.91 1141.99 1569.94 1148.08 1549.96 1300.14 1592.8 1343.07 1767.86 1328.02 1783.93"/>
  <path class="st0" d="M608,987.94l176.8-41.75,37.63-144.78c3.09-7.53,13.56,2.36,18.66,4.47l-41.06,151.12-169.33,42.9c-9.79,1.3-14.07-9.77-22.69-11.96Z"/>
  <path class="st0" d="M530.02,683.98l15.52,14.54-34.78,144.52,95.43,101.88c1.68,2.67-.01,18.38-3.21,19.04l-112.3-116.94,39.35-163.03Z"/>
  <path class="st0" d="M2113.7,530.29l86.3,143.66-21.59-.4-76.81-127.15c-15.49-1.31-31.16.22-46.68-.34-4.73-.17-9.1-2.02-13.84-2.16-24.19-.73-54.92,2.87-78.03-1.97-3.2-.67-11.9-10.29-13.04-12.97-1.74-4.07,2.8-2.82,4.95-2.97,20.16-1.47,40.19,1.74,59.95,2.08,32.96.58,66.05-1.81,98.78,2.23Z"/>
  <path class="st0" d="M1028.01,1861.91c-1.75-2.43,10.95-15.53,14.56-15.55,48.61,10.95,96.68,26.02,145.99,33.2l99.49-94.69,17.94,4.09c-35.15,39.38-76.06,73.34-113.43,110.6l-164.56-37.65Z"/>
  <path class="st0" d="M1015.98,192c1.66,6.71,4.78,16.6-.86,22.11l-124.15,75.85c-4.65,45.97-3.71,92.73-4.94,139.05l-15.03,12.93c-6.61-6.09-1.16-15.44-.91-22.87,1.57-46.33-.75-92.78,2.93-139.06l142.96-88.01Z"/>
  <path class="st0" d="M1706.01,186c3.23,3.41-10.83,18.99-16.71,15.91l-141.85-33.62-98.33,93.81c-6.37,4.73-13.81-1.31-21.1-.12-.9-3.47,1.44-4,2.98-6,6-7.82,18.4-18.74,25.96-26.04,28.48-27.51,58.42-53.62,86.45-81.63l162.61,37.69Z"/>
  <path class="st0" d="M555.6,1374.37l76.71,127.26,138.64,4.37c4.96-.39,15.57,15.6,13.04,17.94l-161.58-4.41-86.24-140.79c-1.06-6.85,15.24-5.06,19.43-4.36Z"/>
  <polygon class="st0" points="1865.99 1607.95 1864.08 1749.02 1861.04 1769.97 1718.01 1855.92 1720.02 1834.95 1844.99 1757.93 1849.96 1617.35 1865.99 1607.95"/>
  <path class="st0" d="M2130.01,1085.95c7.86-1.46,8.82,5.82,12.96,10.04,33.96,34.62,68.22,69.01,100.55,105.19l-40.52,162.73-12.05-9.95-.86-6.72,33.6-141.89-94.73-101.45,1.06-17.94Z"/>
  <path class="st0" d="M2138,1657.94v41c0,1-12.92,14.16-15.99,10.99-.96-6.41,2.72-12.64,2.06-18.96-.31-2.93.86-3.51-3.03-3.01l-96.03,57.86-111.8-64.08c-4.75-3.54-3.94-15.39-3.2-20.84.37-2.77-1.11-3.46,2.96-2.93l116.04,65.22,109-65.25Z"/>
  <path class="st0" d="M533.99,961.94l-128.75,35.82-29.26,122.19c-3.45.89-3.99-1.43-5.99-2.98-12.35-9.56-28.14-26.31-23.97-43,3.05-3.43,14.44,12.88,16.03,14.91s1.33.55,2.96-.92l27.46-109.55,124.81-32.4c4.58-.11,19.78,11.37,16.72,15.92Z"/>
  <path class="st0" d="M823.67,368.31l2.32,21.66-4.61-.36-116.24-63.69-109.14,64.05c2.69-17.85-3.95-40.98,13.02-51.98,4.53-.84,2.76,1.98,2.97,4.95.45,6.23-1.18,13.02.99,19.02l96.02-59.29,114.66,65.62Z"/>
  <path class="st0" d="M1463.99,2015.95c.76,3.33-1.07,4.05-3.02,5.95-3.28,3.18-23.46,22.29-25,22.99-5.28,2.39-12.3.54-17.95,1.03l13.98-19.98-109.15-25.85-33.87-125.95c-.27-5.35,13.12-21.77,16.65-12.83l36.39,125.61,121.98,29.03Z"/>
  <path class="st0" d="M2041,253.99c2.18.62,9.9,11.01,12.96,13-5.66,6.93-14.51-.48-21.95,1.01l.41,4.57,56.88,94.4-68.68,114.63-18.6.38,63.86-119-63.87-108.98c10.31,1.87,30.1-2.53,39,0Z"/>
  <path class="st0" d="M733.99,1795.92c-17.85-2.69-40.98,3.95-51.97-13.02-.84-4.53,1.98-2.76,4.95-2.97,5.47-.4,11.96,1.15,17.02-.99l-57.9-95.98,64.93-113.01c3.67-2.25,22.61-6.23,22.94-1.02l-65.62,116.33,65.66,110.66Z"/>
  <path class="st0" d="M2387.99,973.95l-17.97-13.98-27.3,110.17-126.16,33.39-16.56-12.59,3.43-4.54,126.14-34.86,31.43-123.53c12.35,13.58,31.65,24.68,26.99,45.95Z"/>
  <path class="st0" d="M1318,4.02l-16,17.96,110.96,28.06,33,123.21c1.32,8.62-8.19,12.8-12.99,18.73l-38.95-129.01-122.04-28.98,1.88-7.11c16.53-10.19,20.96-28.39,44.13-22.85Z"/>
  <path class="st0" d="M1604.02,1599.94l-3.67-15.45,1.6-3.47,121.21-69.11,134.83,88.99c-.35,1.32-13.02,10.38-15.88,8.1l-119.47-76.74-118.62,67.69Z"/>
  <path class="st0" d="M811.72,1258.24l68.15,122.72-84.98,132.87-4.85,2.1-7.27-16.01,76.53-120.95-67.04-114.37c-.52-5.74,15.25-7.13,19.47-6.35Z"/>
  <path class="st0" d="M1924.14,791.92l-69.74-124.58,88.57-133.34c3.82,4.25,10.38,9.86,8.24,16.01l-75.28,119.11,67.99,115.87-19.79,6.93Z"/>
  <path class="st0" d="M887.46,440.27c8.96-2.47,108.17,69.54,125.54,75.59l116.01-67.83c2.31.13,5.24,14.33,5.04,16.97-.54,7.11-109.46,63.32-123.05,72.23l-134.96-88.25c.02-.72,10.59-8.48,11.42-8.71Z"/>
  <path class="st0" d="M1443.66,272.31l32.74,143.29,129.59,32.41-8.27,17.81-137.87-38.69-33.75-154.28c-.78-6.55,13.64.48,17.56-.54Z"/>
  <path class="st0" d="M2121.99,1083.97c.83.82-1.37,16.94-5.35,17.63l-138.6,31.4-32.57,125.43-4.47,5.35-13.23-8.74,36.22-138.08,157.99-32.98Z"/>
  <path class="st0" d="M614.01,965.96c.18-5.63-1.6-15.66,4.5-18.61l138.55-31.32,32.95-130.06c2.02-1.93,15.59,5.72,17.04,8.03,3.82,6.1-32.61,122.97-37.02,139.01l-156.02,32.96Z"/>
  <polygon class="st0" points="1308 1777.93 1289.97 1774.53 1259.65 1634.29 1128.05 1598.95 1136.25 1584.17 1274.96 1621.98 1308 1777.93"/>
  <path class="st0" d="M1235.99,733.96l-20.03,3.2-99.64-62.52-2.29-135.62c1.49-7.69,17.1-11.99,22.97-17.03l-2.02,146,96.88,59.11,4.12,6.86Z"/>
  <polygon class="st0" points="1019.68 1275.63 879.41 1277.99 866.01 1253.96 1011.59 1257.53 1074.97 1155.97 1079.56 1176.44 1019.68 1275.63"/>
  <polygon class="st0" points="1885.98 1215.95 1784.55 1112.26 1672.47 1139.52 1666.05 1136.97 1676.53 1121.34 1792.56 1094.25 1891.07 1190.04 1885.98 1215.95"/>
  <path class="st0" d="M1067.99,909.98c1.06.97-6.54,18.24-10.81,18.17l-113.94,27.37-97.35-94.44c-4.81-3.8,2.93-29.08,5.11-29.07l98.91,104.88,118.08-26.91Z"/>
  <path class="st0" d="M1559.99,505.99l-104.92,101.89c-1.95,5.18,24.21,92.28,26.41,107.6.42,2.94,1.73,8.21-.47,10.47-6.16-4.65-15.44-5.59-18.01-13.99l-26-112.24,95.08-98.82,27.91,5.08Z"/>
  <path class="st0" d="M1175.99,1543.93c-.52-3.54-.1-4.38,2.09-6.91,21.2-24.45,55.82-50.6,79.95-74.05,7.43-7.22,14.92-14.53,21.66-22.42l-27.62-113.71c-.92-3.97,1.77-3.47,4.5-2.47,3.86,1.42,13.31,7.45,14.94,11.06l26.16,115.06-92.56,95.55c-9.19,5.58-19.3-2.8-29.12-2.11Z"/>
  <path class="st0" d="M1857.68,772.3l12.31,23.66-147.67-3.66-61.32,101.63c-2.89.06-8.83-18.25-6-21.84l63.03-99.09,139.65-.71Z"/>
  <path class="st0" d="M1596.01,1525.93l3.67-144.67-101.68-65.29c7.9-1.79,15.29-6.69,23.47-2.48l98.2,61.79.34,135.68c-.43,4.99-22.21,16.84-24,14.98Z"/>
  <path class="st0" d="M809.56,973.52l30.47-105.55c2.39-1.74,15.51,10.89,15.54,14.56-8.61,17.39-21.88,98.01-32.5,107.5-2.67,2.39-5.1,2.72-8.18,3.82-35.19,12.65-80.11,15.65-116.19,28.03-9.63.95-14.27-10.86-22.66-14.92l133.52-33.44Z"/>
  <polygon class="st0" points="1365.65 1699.54 1348.02 1715.93 1316.02 1582.92 1211.15 1552.06 1210.02 1547.98 1226.61 1536.32 1333.14 1567.8 1365.65 1699.54"/>
  <path class="st0" d="M1867.99,547.99l-69.58,117.29,51.25,94.04.33,4.64c-6.93-.92-17.16,2.84-21.79-3.19l-52.2-97.66,66.96-111.17,25.02-3.96Z"/>
  <path class="st0" d="M1107.99,541.99c1.34,1.48-1,19.86-5.2,21.78l-95.63,52.19-114.83-68.29-.31-25.68,116.97,71.93,99-51.92Z"/>
  <path class="st0" d="M1387.99,334l30.36,133.65,105.66,28.35c3.38,3.58-11.93,15.95-16.73,15.93-2.68-.01-6.71-1.85-9.7-2.54-30.55-7-61.29-19.01-92.07-25.91l-4.5-3.5-31.11-127.1c-1.46-4.66,16.07-21.01,18.1-18.89Z"/>
  <polygon class="st0" points="905.62 1286.33 956.89 1378.05 957.97 1386.78 890.98 1497.93 866.01 1499.93 937.35 1382.93 884.01 1283.96 905.62 1286.33"/>
  <path class="st0" d="M1843.99,1525.93l-117.13-69.98-95.93,51.94c-4.05.58-2.56-.16-2.93-2.9-.8-5.9-1.46-16.48,4.06-19.98,28.84-12.95,57.42-35.65,85.85-48.15,4.59-2.02,7.48-3.78,12.95-2.89l110.7,69.43,2.44,22.54Z"/>
  <path class="st0" d="M2057.98,1040l-1.13,4.08-130.84,30.9-31,105c-2.49,3.2-2,1.33-4.02,0-5.05-3.35-13.37-11.88-10.6-18.49,11.88-29.18,15.5-66.64,26.99-95.13,1.42-3.53,2.29-6.05,5.56-8.44l126.48-31.51,18.55,13.61Z"/>
  <path class="st0" d="M2143.99,1585.95c-.79,6.52-3.39,12.37-8.11,16.87-12.19,11.63-80.94,56.51-97.28,64.72-4.65,2.34-7.81,4.93-13.6,4.58l-125.02-87.16,13.44-8.74,6.02,1.22,109.91,76.19,87.95-59.38,26.69-8.29Z"/>
  <path class="st0" d="M806,1799.91l-16.11-5.42-67.58-101.85c-3.37-5.34-3.39-12.01,0-17.39l81.71-119.29c.97-.67,15.14,15.56,11,19.86l-76.36,111.13c0,5.16,51.12,72.08,57.71,85.62,4.74,9.74,4.09,18.82,9.63,27.35Z"/>
  <path class="st0" d="M1387.98,251.99l-19.6-7.38-24.67-134.34-102.53-18.46-24.2-13.83,15.7-5.87c36.54,11.4,84.58,12.06,119.79,24.4,2.91,1.02,5.57,1.9,7.58,4.42l27.93,151.04Z"/>
  <path class="st0" d="M836,463.95l-15.3,9.81-115.72-77.69-87.18,58.73c-7.81,2.49-15.86,4.15-23.79,6.24-5.4,1.43,1.27-13.09,4.07-13.96,34.01-17.41,69.88-52.91,103.23-68.77,2.46-1.17,4.57-2.8,7.55-2.31l127.14,87.96Z"/>
  <path class="st0" d="M1365.92,1800.03l24.45,137.53,103.24,19.76,24.39,12.63-10.39,6.59c-38.26-8.93-86.63-11.85-123.67-23.55-3.44-1.09-6.63-2.04-9.11-4.89l-28.85-149.14,19.95,1.06Z"/>
  <path class="st0" d="M1943.43,252.57c19.31,34.57,48.55,67.27,67.4,101.59,2.16,3.93,5.45,7.83,5.16,12.69l-87.95,125.12-9.02-13.98,76.9-114.99-58.92-89-6.98-26,13.41,4.58Z"/>
  <polygon class="st0" points="1249.83 738.15 1251.77 751.73 1129.01 815.98 1123.99 913.97 1106.28 909.69 1110.52 798.49 1224.61 743.59 1249.83 738.15"/>
  <path class="st0" d="M1091.84,910.17l-41.16,134.84,64.35,70.96c4.24,8.76-8.17,8.83-14.06,11.32l-74.85-80.22,42.44-121.56,11.47-18.69,11.83,3.36Z"/>
  <path class="st0" d="M1631.53,922.28c1.58-.16,3-.41,4.39.62l72.13,78.17c.49,3.03-.7,5.71-1.42,8.54-7.57,29.7-26.92,82.09-39.11,110.88-4.93,11.65-11.21,29.58-25.25,16.53l41.64-132.15-65.82-74.03c-.92-4.11,10.34-8.25,13.44-8.56Z"/>
  <path class="st0" d="M1158.41,1263.53l94.59,4.43,5,3.05c-2.62,4.98-2.97,13.94-8.97,14.97l-106.92-5.13-55.08-112.91c-3.66-12.6-14.56-32.9,8-26l63.38,121.6Z"/>
  <path class="st0" d="M2140,1045.94l4.27-19.71,136.8-26.2,19.46-102.54,13.49-22.54,5.85,13.76c-11.53,36.58-12.14,84.8-23.99,120.13-1.06,3.16-2.03,5.17-4.75,7.25l-151.12,29.86Z"/>
  <path class="st0" d="M593.99,1003.98l-3.14,18.22-136.4,26.23-19.42,99.56-15.01,27.95-5.03-14.18c11.02-36.9,12.13-84.14,23.94-119.86,1.55-4.7,3-7.85,6.92-11.08l148.13-26.84Z"/>
  <path class="st0" d="M1577.67,786.3l-99.68-6.34c-.32-6.13,2.38-16.98,9.38-17.55l104.65,4.54,56.95,117.04c4.21,11.46,10.98,28.66-7.95,24.04l-63.36-121.73Z"/>
  <path class="st0" d="M1625.67,1249.64l-119.72,57.27-17.03,4.33-6.89-13.18,122.98-64.09,7-100.02c1.96-1.94,16.84,5.24,17.7,9.38l-4.04,106.3Z"/>
  <path class="st0" d="M1250.35,1313.6c-1.89-3.21,1.4-12.45,4.97-13.44l133.58,39.83,72.22-63.95c4-.9,8.47,10.47,8.5,13.32.07,6.38-69.2,67.31-78.88,76.2-46.84-16.84-95.86-29.54-140.38-51.96Z"/>
  <path class="st0" d="M1266.58,754.57l78.47-70.63c38.72,14.92,84.58,25.15,122.01,41.98,3.09,1.39,18.35,9.38,18.78,11.26l-6.77,12.34-132.21-41.4-73.87,65.82c-2.35.05-11.31-16.12-6.42-19.37Z"/>
  <path class="st0" d="M985.99,1001.97l-13.66,62.54,45.63,44.45-65.92,16.04c-4.87,4.09-13.36,46.03-17.94,56.06-.9,1.97-1.33,4.69-4.07,4.9-.9-10.85-10.43-30.13-9.14-40.08.5-3.89,12.02-36.48,13.98-38.05l39.13-7.87c3.9-3.4-25.46-23.53-25.02-32.2.86-17.03,14.46-42.5,16.87-60.46l20.15-5.32Z"/>
  <path class="st0" d="M1594.01,693.96l38.02,2.98,31.13,55.01c1.36,6.53-6.88,12.59-10.16,17.98l-34.33-53.63-64.66,1.66,35.86-58.98-27.86-57,34.85,20.13c4.05,10.94,20.14,30.74,16.08,41.76-1.28,3.49-21.13,28.31-18.93,30.08Z"/>
  <path class="st0" d="M1805.99,863.98c.08,14.63,9.68,27.6,7.12,42.08-.9,5.08-10.98,33.99-13.94,36.07l-39.16,7.86c5.27,9.94,26.87,21.45,25.96,32.73-1.34,16.58-14.88,41.49-16.93,59.28l-19.02,3.96,13.67-60.59c-1.46-6.16-35.85-32.49-42.7-41.38-1.55-2.01-3.87-2.54-2.98-6l63.97-13.03c6-3.73,13.86-47.9,18.5-57.5,1.32-2.73,2.16-4.11,5.51-3.47Z"/>
  <path class="st0" d="M1789.99,1217.97c1.45,1.45-17.67,34.68-19.4,36.1-2.1,1.72-35.52,17.75-37.6,17.75l-34.97-21.87-2.35,39.68-55.19,30-18.46-7.73,1.23-4.09,52.33-30.28-1.57-65.58,58.99,35.97,56.99-29.97Z"/>
  <path class="st0" d="M1292.02,631.98c8.18-4.06,25.39-25.98,32.7-25.94,14.39.08,41.93,14.76,57.9,16.32,6.25,3.6,5.34,13.23,7.37,19.61l-62.6-13.67-44.39,47.64-15.41-67.53-61.58-18.45c.28-3.07,3.04-3.05,5.11-3.86,6.15-2.41,27.88-8.46,33.66-8.04,3.65.26,38.95,12.23,40.21,13.95l7.04,39.98Z"/>
  <path class="st0" d="M1453.99,1373.96l14.47,67.54c16.87,6.47,40.84,9.01,56.73,16.26,1.75.8,6.14.8,2.81,4.16-1.33,1.35-34.37,9.54-36.71,9.4s-38.11-12.01-39.93-13.23l-9.38-40.14-29.22,25.54c-9.9-3.81-59.66-13.7-63.69-19.62-1.53-2.25-4.17-16.66-3.06-17.92l62.08,14.92,39.85-43.99,6.05-2.93Z"/>
  <path class="st0" d="M1105,1353.95l-32.64-55.52c-1.7-6.69,4.88-13.39,8.66-18.47,3.07-.77,4.14,2.68,5.38,4.59,5.05,7.8,24.55,45.93,29.58,48.42l64-1.01-35.58,57.29,29.57,55.71c1.89,5.89-32.89-14.93-34.89-17.1-1.62-1.76-18.52-35.32-18.81-37.4l21.72-36.51h-37Z"/>
  <path class="st0" d="M1131.93,306.08l.05,2.87c-3.28,2.54-15.59,18.71-19.96,15.03l-23.54-144.77,98.57-99.17,8.92-16.04,5.08,21.93-94.74,99.5,20.01,117.27,5.6,3.37Z"/>
  <path class="st0" d="M1038,760.97l57.36-32.6,16.6,10.6-52.98,32.96,1,66.03-57.1-36.01-58.88,28c6.8-8.53,12.52-26.12,19.9-33.08,2.87-2.7,32.2-17.99,35.6-18.57,11.24-1.94,26.76,18.13,38.49,19.67v-37Z"/>
  <path class="st0" d="M425.52,1190.26c2.26-.26,3.89-.22,5.54,1.55l98.47,93.75,115.04-20.03,6.42-7.54,16.96,18.96-9.53,4.43-136.54,21.47-101.77-100.03-12.09-5.87c-.02-1.48,15.27-6.44,17.48-6.69Z"/>
  <path class="st0" d="M1623.99,1725.92l21.64,144.57-98.72,99.35c-5.28,3.24-1.87,15.29-8.9,14.09l-3.01-21.96,94.51-99.27-21.58-117.21-5.9-4.55c7.02-5.64,11.74-16.61,21.96-15.02Z"/>
  <path class="st0" d="M1051.99,1697.95c1.77,1.48-5.01,10.55-6.36,12.62-24.27,37.33-53.83,71.53-78.06,108.92l-142.67.35-14.9,6.08c-.98-.96,7.97-17.12,8.97-18.01,4.36-3.9,19.09-1.5,26-2,3.96-.29,7.68-1.88,11.94-2.06,17.11-.75,96.22,3.05,104.54-2.46l65.59-95.6-1.04-9.84,25.98,2Z"/>
  <path class="st0" d="M585.68,476.3c4.51,46.58-.71,93.99,4.78,140.22l96.44,67.66,9.09-.2-2,23.99-8.7-2.3-112.27-81.73-.98-141.02-6.05-14.93,19.68,8.29Z"/>
  <path class="st0" d="M2328,849.99c.59,5.27-.1,3.16-2.94,4.02-5.88,1.77-15.75,5.39-21.01,2.96l-97.94-93.89-118.83,20.81-1.28,6.08-2.97-.02-15.02-18.95c.62-3.01,10.5-3.8,13.6-4.42,43.09-8.66,87.51-13.48,130.95-20.24l101.35,98.71,14.09,4.94Z"/>
  <path class="st0" d="M2170,1581.92c-5.82-1.78-20.92-7.1-22.01-12.97-3.11-16.77.62-49,.09-68.09-.13-4.73-2.01-9.1-2.16-13.83-.59-18.31,1.44-36.85-.9-55.09l-95.63-66.56-9.37.57c.71-4.64-2.28-24.96,3.03-26l117.97,83.99,2.9,145.1,6.09,12.89Z"/>
  <path class="st0" d="M1923.99,224c1.08,1.07-7.54,20.84-13.03,19.95l-136.56,2.46-66.36,100.35,1.96,5.21h-26s1.09-7.9,1.09-7.9l81.34-113.63,144.63-2.39,12.94-4.04Z"/>
  <path class="st0" d="M1605.99,1721.96c2.03,2.67-9.62,14.9-14.45,11.63l-126.14-41.36-102.45,99.66-14.95.03,114.94-119.31,143.04,49.35Z"/>
  <path class="st0" d="M1709.5,362.5l60.47,120.51,140.98,1.02c4.08-.11,14,11.06,11.03,13.95l-163.67,1.68-66.27-136.73c-1.71-5.81,14.8-2.7,17.45-.43Z"/>
  <path class="st0" d="M2031.99,1349.96c-.16,5.97,1.9,13.27-4.05,16.93l-119.61,59.38-.37,140.63c0,3.56-12,15.23-13.95,13.03l-1.04-164.01,139.01-65.97Z"/>
  <path class="st0" d="M1385.99,258l-113.4,117.69-144.55-50.7c4.87-4.9,8.41-11.17,16.44-8.6l124.57,40.93,103.86-100.42,13.09,1.1Z"/>
  <path class="st0" d="M2133.98,1043.96l-117.69-113.44,50.73-144.54c4.16-1,11.26,12.34,8.58,16.46l-41.21,124.26,101.13,102.5-1.55,14.77Z"/>
  <path class="st0" d="M669.98,1263.95c-2.94,2.68-13.11-10.8-11.67-14.47l41.39-128.08-99.66-102.48-.03-12.95,16.02,10.96,103.57,102.29-49.61,144.73Z"/>
  <path class="st0" d="M977.67,1550.28l64.32,137.65-15.67-.32-60.29-120.69c-14.22-2.33-28.8-.32-43.11-.89-4.73-.19-9.11-2.03-13.84-2.16-25.57-.72-60.31,3.38-84.19.19-4.29-.57-11.29-5.35-12.88-9.13-1.71-4.08,2.78-2.81,4.95-2.97,12.52-.92,27.48-1.66,39.95-2.08,40.13-1.34,80.63.89,120.75.42Z"/>
  <path class="st0" d="M839.99,469.99l1.03,164-137,65.98,1.95-17.03,119.7-59.29,2.37-142.63c-.27-3.29,10.02-13.21,11.95-11.03Z"/>
  <path class="st0" d="M923.5,420.28l89.48,57.87,11.71-2.47,81.28-54.88c3.51-2.75,19.95,6.72,19.98,8.19l-114.82,70.99-102.19-67.97,14.55-11.73Z"/>
  <path class="st0" d="M1486.45,403.54c-6.64-39.21-19.74-81.53-24.34-120.69-.56-4.78,2.95-2.93,6.38-2.35,4.75.8,13.19,2.41,15.08,6.93,6.37,17.74,10.79,90.84,20.38,101.62,2.03,2.28,4.61,3.74,7.59,4.41l96.97,19.03c6.82,2.93,6.77,12.24,9.5,18.47-.61,4.34-11.19.62-14.03.06-39.37-7.75-78.35-18.85-117.52-27.47Z"/>
  <path class="st0" d="M1610.01,1621.91c-2.45-3.36,6.84-8.52,8.95-10.02,32.25-22.85,70.41-42.71,104.06-63.88l102.99,68.95-16.64,12.66c-15.99-7.56-77.62-60.05-90.39-59.84-11.37.18-75.47,51.94-90.95,59.12l-18.01-6.99Z"/>
  <polygon class="st0" points="1271.99 1769.93 1252.26 1765.68 1230.19 1658.75 1123.38 1636.01 1118.01 1615.95 1249.02 1645.92 1271.99 1769.93"/>
  <path class="st0" d="M2112,1119.97l-5.46,20.02c-29.73,7.57-63.63,9.05-92.98,16.53-3.81.97-9.98,2.49-12.52,5.48-8.77,10.34-14.56,86.97-21.41,104.58-1.23,4-20.11,8.72-21.62,7.36l30.96-130.01,123.03-23.96Z"/>
  <path class="st0" d="M772.03,1483.94l-9.14-18.16c7.05-15.99,59.07-76.62,59.27-88.8s-51.78-77.26-59.83-92.33l10.67-18.66,70.93,112.95-71.9,105.01Z"/>
  <path class="st0" d="M1963.97,565.98l7.22,18.04-54.08,78.06-4.26,12.97,58.81,88.42c.79,3.77-6.63,19.47-10.64,18.5l-69.18-113.02,67.11-101.01,5.02-1.95Z"/>
  <polygon class="st0" points="775.99 773.98 745.21 906.18 622.01 929.95 629.31 908.28 724.8 891.77 733.92 886.89 755.97 781.43 775.99 773.98"/>
  <path class="st0" d="M1155.99,931.96l-16.02-4.96-1.98-4,6.35-104.71c15.17-2.8,112.53-53.14,117.76-49.48,2.47,1.73,5.94,13.59,1.94,16.18l-103.06,50.94-4.98,96.02Z"/>
  <polygon class="st0" points="1282.09 807.9 1274.51 795 1277.98 788.95 1355.08 721.91 1473.94 769.1 1468.02 781.06 1461.53 781.61 1353.27 744.37 1289.1 806.07 1282.09 807.9"/>
  <path class="st0" d="M1127.75,1126.2l50.56,105.44,95.7,4.33-2.98,16.1c-4.24,4.61-52.38-1.42-62.05-2.08-15.66-1.07-31.51.72-47.03-2.97l-49.67-112.5c-2.91-6.51,12.67-10.08,15.46-8.3Z"/>
  <path class="st0" d="M1125.87,924.12l-37.9,112.8,64.01,70.08c2.06,4.96-13.44,4.35-12.08,10.91-2.17,1.36-14.6-11.5-16.93-13.91-20.52-21.23-38.67-45.52-58.64-67.32l45.69-118.7,15.84,6.15Z"/>
  <path class="st0" d="M1262.15,1281.78c-1.58-2.2,3.9-15.98,8.45-15.52l110.35,37.72,70.07-63.98,9.02,14.98-81.01,72.18-116.88-45.39Z"/>
  <polygon class="st0" points="1573.5 802.48 1624 919.95 1610.6 923.66 1607.03 922.03 1556.03 816.94 1464.99 813.98 1460.06 810.99 1465.16 795.86 1573.5 802.48"/>
  <polygon class="st0" points="1595.99 1119.96 1590.16 1229.11 1472.12 1279.87 1468.15 1264.14 1575.67 1213.64 1578.01 1117.96 1595.99 1119.96"/>
  <polygon class="st0" points="1610.32 1125.66 1647.6 1011.23 1584.08 942.84 1597.37 932.23 1669.9 1012.86 1625.8 1126.75 1621.09 1129.97 1610.32 1125.66"/>
  <path class="st0" d="M1904,253.99c.12,11.35-14.37,9.35-10.01,23.99-6.85.51-1.98-5.05-10.87-6.11-28-3.36-62.35,4.5-91.11,3.13l-52.95,77.14c-2.8-1.38-20.84,2.75-19.04-3.11l64.97-95.03h119Z"/>
  <path class="st0" d="M2138,1559.94c-10.26,1.69-11.16-11.02-24-10.02l6.15-6.91-3.18-93.03-74.96-51.04-1.03-22.97,90.93,59.06c1.64,1.25,6.08,6.65,6.08,7.92v117Z"/>
  <path class="st0" d="M1209.99,125.99l-9.04-.18-62.63,67.64,17.21,90-15.51,16.54c-7.07-38.03-19.08-76.01-21.61-114.59l82.62-83.39,4.89,3.16c-4.16,9.8,1.27,12.53,4.07,20.82Z"/>
  <path class="st0" d="M1595.99,1749.94l21.7,110.52-84.69,87.43c-8.1-5.66,1.32-16.13-8.96-22.97l2.92-2.79c1.71.81,3.67,1.9,5.59,1.48,7.29-1.6,54.1-60.72,64.97-68.91l-17.62-87.88c-1.55-4.48,14.04-19.01,16.09-16.87Z"/>
  <path class="st0" d="M1015.4,251.39l-94.97,57-.46,100.55c.45,5.06-17.6,15.46-19.95,13.03l4.96-128.02,112.04-57.96-1.61,15.39Z"/>
  <path class="st0" d="M757.5,1474.46l8.49,17.48-129.67-4.32-56.32-113.65c6.03-.12,13,1.02,16.94,6.04l55.04,90.95c15.66,4.36,98.26-3.53,105.51,3.5Z"/>
  <path class="st0" d="M598,487.98c12.46-.13,5.4,14.73,21.99,10.01.93,5.93-5.35,3.59-6.15,8.93-1.44,9.61,2,19.15,2.24,27.98.6,21.77-1,43.47,2.95,65.05l74.04,49.95c4.71,4.47,3.67,14.23,1.41,19.62-.9,2.15.24,3.16-3.25,2.26l-93.23-62.8v-121Z"/>
  <path class="st0" d="M2289.99,861.95c-4.82,2.23-10.08-.93-14.53.32-3.66,1.03-4.77,6.62-9.45,5.68l.2-11.06-68.11-61.83-89.22,17c-4.82,1.34-17.96-12.45-14.89-16.08l110.55-21.69,82.46,81.65,2.97,6Z"/>
  <path class="st0" d="M832,1793.93c-2.23-7.24,5.24-7.03,6.97-10.03,2.03-3.53-.28-9.11,4.06-11.95,4.39-1.29,2.73,3.65,4.87,4.99,6.4,4.02,23.37-.91,31.01-1.09,21.79-.52,43.44.61,65.07-2.93l50.41-76.56,21.59,2.56-59.92,91.51c-.97,1.15-4.01,3.5-5.07,3.5h-119Z"/>
  <path class="st0" d="M1675.98,217.99c-.59,7.25-8.12,11.56-14.71,9.86l-104.03-25.41-73.31,70.6-19.92-4.08,91.77-88.01c38.21,8.11,76.83,29.46,114.2,38.19,2.5.58,3.85-.53,6-1.15Z"/>
  <path class="st0" d="M1270,1777.95l-1,5.98-90.43,83.65-120.57-37.68c2.83-5,8.29-10.22,14.46-9.57l106.09,25.26,73.5-70.73,17.95,3.07Z"/>
  <polygon class="st0" points="856 811.99 895.02 827.95 963.36 901.68 1043.39 882.5 1059.96 892.97 957.41 921.67 856 811.99"/>
  <path class="st0" d="M1579.99,513.99c-5.23,10.86-9.86,31.14-16.88,40.09-12.04,15.35-43.38,37.91-59.13,52.86-2.66,2.53-13.13,12.21-13.66,14.42l19.2,80-10.49,14.58-28.73-102.53,109.69-99.44Z"/>
  <path class="st0" d="M565.96,715.99c.52.44,6.16,10.34,5.7,12.41l-25.71,106.47,71.11,73.15-3.07,19.96-8.07-2.92-81.62-88.53,37.73-119.36,3.94-1.17Z"/>
  <path class="st0" d="M1877.99,811.98c1.08,5.71-1.53,3.22-4.37,4.53-42.25,19.46-62.3,11.08-106.54,9.38-9.52-.37-19.27.09-28.77.41l-41.3,69.69-19.01,3.97,53.3-93.66,146.68,5.69Z"/>
  <path class="st0" d="M1579.98,1535.94c-3.09-.5-3.77-3.73-4.94-6.04-19.73-38.63-10.27-64.06-8.95-104.88.3-9.2-.02-18.56-.41-27.75l-68.74-43.26-4.91-20.07,92.99,53.98-5.03,148.01Z"/>
  <path class="st0" d="M1156.02,1533.94c3.89-10.68,9.05-30.66,15.95-39.03,13.39-16.24,41.68-36.31,58.06-51.94,4.74-4.52,9.72-9.2,13.65-14.48l-17.77-79.64,9.09-16.9,4.96,7.04c2.55,28.61,19.77,61.49,23.6,88.44.44,3.06,1.14,6,.07,9.07l-107.6,97.43Z"/>
  <path class="st0" d="M467.99,1181.97l1.86,11.14,67.59,60.53,90.01-17.21,14.5,14.53c-1.33,2.24-2.98,2.24-5.06,2.9-20.74,6.65-72.34,16.9-94.4,19.58-4.39.53-8.7,1.31-13.09.11l-85.4-84.59c4.04-5.01,10.98-.5,14.61-1.3,3.43-.75,4.72-6.77,9.37-5.68Z"/>
  <path class="st0" d="M1878,1235.93l-39-15.98-66.35-71.7c-10.72-3.68-63.37,17.24-79.92,17.58-4.47.09-19.6-8.01-16.72-11.84l102.54-25.69,99.45,107.65Z"/>
  <path class="st0" d="M1055.99,1147.96l-1.55,9.43-49.76,84.24-148.67-5.7,18.05-8.92c20.9-12.07,44.68-5.75,66.96-5.08,17.96.54,35.73-.62,53.57,2.06l43.29-70.63,18.11-5.4Z"/>
  <polygon class="st0" points="1243.99 713.96 1150.99 661.99 1156.02 513.99 1172.05 550.93 1169 652 1237.05 693.93 1243.99 713.96"/>
  <path class="st0" d="M2171.98,1333.95c-5.36-3.44-9.19-10.31-7.86-16.72l25.56-103.88-70.68-71.44,3.02-21.94,89.58,93.26-39.62,120.73Z"/>
  <path class="st0" d="M1833.98,1625.95l-4.17,128.79-111.78,57.19,1.95-15.02,95.06-56.94.96-101.04c-.09-3.85,16.51-14.01,17.99-12.98Z"/>
  <path class="st0" d="M2152.8,671.31c.77,1.08,4.02-.4,3.19,2.64l-16.06-2.91-57.92-94.08-102.6-.95-9.4-16.97c5.38-6.52,13.89-1.21,20.91-.98,35.06,1.15,70.05.27,105.09,2.91l56.78,110.35Z"/>
  <polygon class="st0" points="1659.58 1267.55 1570.54 1317.7 1548.04 1304.95 1639.02 1257.98 1646.02 1151.96 1661.88 1181.08 1659.58 1267.55"/>
  <path class="st0" d="M1437.99,697.96l-98.55-29.7-79.42,67.71c1.83-9.14,4.63-21.36,9.97-29.01,7.35-10.56,42-43.83,52.97-53.03,3.27-2.74,6.5-5.58,10.38-7.46l96.6,26.58c5.3,3.07,6.68,18.68,8.06,24.92Z"/>
  <path class="st0" d="M1185.98,742.01l-1.22,4.1-88.39,44.25-9.37,105.6c-3.98-6.45-11.76-17.94-12.89-25.11-2.53-16.1-1.69-62.68-.2-79.96.28-3.31.33-6.57,1.92-9.58l87.68-49.02,22.47,9.73Z"/>
  <polygon class="st0" points="1042 953.98 1009.91 1052.67 1080 1131.94 1048.98 1121.98 989.95 1058.86 1016.3 961.26 1019.38 958.34 1042 953.98"/>
  <path class="st0" d="M1717.54,1089.51c-1.46,1.22-17.58,4.45-21.52,5.5-2.49.66-2.54,2.29-1.99-1.99,2.48-19.1,31.87-84.48,29.57-95.59l-67.58-81.46c9.76,4.9,21.88,5.63,30.99,11.98,19.37,13.5,38.79,45.77,58.53,61.25l-28.01,100.31Z"/>
  <path class="st0" d="M1239.99,1303.97l-27.11,13.86-86.89-.86c-14.71-25.02-31.05-49.87-44.33-75.67-7.77-15.09-9.92-17.63,2.34-32.35,1.76-2.12,2.95-4.23,4.96-.94l45.14,86.87,105.91,9.1Z"/>
  <path class="st0" d="M1465.4,1343.36c-4.68,6.56-45.43,45.19-53.38,51.61-2.8,2.26-7.67,6.61-11.09,6.94l-95.54-26.35c-7.17-4.34-5.08-15.92-9.33-22.64l4.08-2.18,94.59,30.81,78.28-67.59c1.09,4.96-5.14,25.93-7.61,29.4Z"/>
  <path class="st0" d="M1649.98,843.96c-1.39,1.07-5.41-5.11-6.37-6.61-7.56-11.88-37.88-81.63-43.6-84.4l-104-7.98,29.11-14.89,84.86,2.89,49.18,84.93c3.47,10.2-7.84,16.63-9.19,26.05Z"/>
  <path class="st0" d="M2238.23,454.22c4.2-2.35,14.03,7.11,13.51,10.39l-38.73,69.36-55.02-82.98-67.97-3.99,5.2-11.15,71.46-1.54,44.33,61.63,27.23-41.72Z"/>
  <path class="st0" d="M1595.72,2.29l22.28,77.69-96.61-19.67c-17.33,11.66-29.41,29.8-46.37,41.7-6.68,4.68-8.68-4.2-8.08-9.96l48.52-49.74,76.55,11.66-11.53-49.07c.74-4.18,11.78-3.26,15.25-2.62Z"/>
  <polygon class="st0" points="2336 1247.93 2390 1237.95 2389.8 1253.76 2312.01 1273.94 2332.01 1178.99 2289.9 1133.06 2288 1125.98 2301.93 1124.91 2349.71 1171.3 2336 1247.93"/>
  <path class="st0" d="M1144.01,1993.94l9.99,51.98-15.8-.2-20.18-77.79,95.05,21.26,49.93-45.22c2.93,2.57,5.46,6.96,5.05,10.89-.37,3.6-45.73,51.89-49.28,52.58l-74.77-13.51Z"/>
  <path class="st0" d="M423.99,773.98l-20.17,95.01,2.08,6.08c6.29,9.49,39.06,36.6,42.08,43.91,1.36,3.29-9.24,6.97-11.04,6.94-5.65-.08-43.2-43.9-52.5-49.17l13.53-76.79-51.97,11.99,1.94-17.04,76.04-20.94Z"/>
  <path class="st0" d="M643.99,1599.95l-5.34,14.06-70.64,1.03-45.02-63.1-27.03,43.98c-2.54,1.74-11.84-7.46-11.92-10.93l38.95-69.02,53.02,80.94,67.98,3.02Z"/>
  <path class="st0" d="M1955.68,1752.25c.65,1.05,2.2,20.91,2.41,24.6.86,15.06.07,31.98-1.11,47.06l-60.97,43.05c-1.24,4.99,37.12,23.98,42,30.05l-10.63,10.62-69.33-38.68,82.1-53.86,3.87-67.13,11.66,4.3Z"/>
  <path class="st0" d="M875.98,178.03l-1.24,4.13-78.88,50.69c-4.87,22.05-3.83,44.7-3.87,67.14l-12.04-2.96-3.02-71,63.03-45.04-43.93-30,8.17-10.85,71.78,37.89Z"/>
  <path class="st0" d="M1924,1438.95c.23-1.36,2.17-4.12,3.45-5.09l99.05-48.02,1.53-3.86c6.89,2.46,2.49,12.16-.05,16.97l-85.01,46.99-2.94,102.61c-5.36,3.03-9.06,10.16-16.04,9.41v-119Z"/>
  <path class="st0" d="M1783,467.98c-2.37-.51-6.25-4.15-7.44-6.56-14.33-32.42-33.8-63.73-47.95-96.05-.71-1.62-3.48-4.2-.58-5.42l15.19,3.27,46.1,86.43,100.7,2.31,12,12.01-2.02,4h-116Z"/>
  <path class="st0" d="M755.7,1298.31l47.09,69.84c3.46,6.37,4.95,14.12.92,20.52l-48.71,63.23-10.74-14.59,35.61-58.36-37.53-66.34,7.96-14.32h5.41Z"/>
  <path class="st0" d="M940.01,410.02l16.5-7.69,56.14,35.29,63.32-36.82c6.73-2.14,12.88,4.51,18.03,8.23.71,2.85-2.56,4.3-4.16,5.81-7.27,6.83-57.73,41.07-66.76,45.24-3.57,1.65-10.37,4.31-14.06,3.92-8.59-.92-54.5-43.68-66.89-49.13l-2.12-4.83Z"/>
  <path class="st0" d="M1983.96,751.96l-4.85-2.1c-11.75-23.33-35.71-46.44-47.12-68.88-3.04-5.97-5.83-13.74-1.74-19.75l48.78-63.25c2.94-.65,11.65,11.2,10.73,14.52l-35.36,58.15,37.27,67.82-7.7,13.48Z"/>
  <path class="st0" d="M1605.54,378.44c.82.68,7.67,21.03,1.48,19.57-26.03-8.08-60.45-7.99-85.49-16.55-6.07-2.07-11.32-6.47-13.08-12.92-6.31-23.03-4.78-54.59-10.45-78.54,5.84.56,14.01-2.35,17.85,3.14,6.25,8.94,11,61.44,16.12,65.88l73.57,19.42Z"/>
  <path class="st0" d="M1225.57,1674.36l10.42,85.58-17.92-2.07-14.52-67.47-74.31-20.26-3.24-18.2c14.69,2.14,94.44,13.3,99.57,22.41Z"/>
  <path class="st0" d="M2102.01,1155.95l-2.44,17.59-67.21,14.77-18.51,75.48-19.84,2.14c7.44-26.44,7.87-61.4,16.17-86.8,1.43-4.36,3.81-7.84,6.67-11.33l85.15-11.86Z"/>
  <path class="st0" d="M2088.02,807.97c4.33,3.29,12.33,8.62,11.67,14.47l-27.24,94.28,68.51,71.28c1.96,3.26,2.03,20.01-1.96,19.92l-86.04-87.74,35.06-112.21Z"/>
  <path class="st0" d="M739.99,781.98l-14.87,86.1c-.99,3.31-3.79,9.59-6.22,11.78-8.58,7.75-71.72,10.07-86.88,14.1l3.15-18.23,67.01-16.59,18.9-71.09,18.92-6.06Z"/>
  <path class="st0" d="M1717.42,1586.37c4.06-.93,8.64-1.16,12.51.66l64.03,49.91-11.95,9.98-59.15-35.04-66.22,37.66-16.6-10.6,77.38-52.57Z"/>
  <path class="st0" d="M645.98,1239.95c-5.03-3.31-11.26-7.86-9.89-14.7l25.58-93.85-68.73-71.49,1.07-17.94,87.65,87.42-35.68,110.56Z"/>
  <path class="st0" d="M2146,395.97l39.53,3.49c7.56,4.33,20.63,34.9,27.48,34.58l3.96-4.04,9.09,11.06-14.05,27.99c-2.13,1.44-4.68-2.7-5.97-4.11-7.1-7.79-25.82-41.08-32.07-43.92l-55.98-3.03c-3.63-3.73,22.66-49.2,24.03-57.98,2.96-2.15,15.03,11.5,15.64,15.32l-11.66,20.65Z"/>
  <path class="st0" d="M805.99,478.02c3.03,4.32-14.06,13.36-18,12.92l-75.66-56.27c-3.04-1.78-7.96-4.1-11.4-3.83-8.98.71-58.28,44.1-70.89,50.03l-12.06-3.91,89.02-65.09,11.64,4.47,87.35,61.68Z"/>
  <path class="st0" d="M585.99,1035.97c.67,5.14-2.03,19.82-7.32,21.65-16.67,4.92-90.26,7.81-99.71,16.29-2.43,2.18-3.54,4.45-4.46,7.54-6.92,23.33-6.36,54.87-12.93,79.07l-9.5,6.57-4.01-2.11,17.97-105.99,9.16-4.84,110.79-18.18Z"/>
  <path class="st0" d="M955,1581.94l54.99,105.01c-5.1,1.6-14.35,2.85-17.78-2.22l-48.19-85.8-96.98-1.02c-4.97-.97-11.67-10.78-13.04-15.96h121Z"/>
  <path class="st0" d="M1930.24,1571.71c-3.44-5.99,11.26-12.98,16.26-13.48,25.38,14.3,50.29,41.62,74.86,55.35,3.7,2.07,7.23,4.41,11.69,4.53l71.08-49.2,13.82,4.03-87.19,64.45-11.86-3.38-88.66-62.31Z"/>
  <path class="st0" d="M2285.99,881.98l-16.57,107.42c-3.6,2-6.84,4.9-10.91,6.08-22.88,6.63-74.84,13.68-99.76,16.22-3.59.37-7.15.43-10.73.25l7.39-19.59c27.89-6.67,59.43-6.82,87.05-12.95,14.08-3.12,15.52-3.02,18.94-17.06,5.1-20.9,4.78-54.1,11.51-72.48,2.05-5.6,7.22-8.32,13.08-7.9Z"/>
  <path class="st0" d="M1908.11,461.89l-7.22-13.73,57.15-79.12,3.02-12.11-49.56-69.56,3.49-13.37,62.33,81.65c3.99,4.95,3.63,11.91.39,17.07l-61.67,86.31-7.94,2.86Z"/>
  <path class="st0" d="M1267.97,1983.93l20.03,59.98-19.21-1.79-6.82-22.2-31.37,25.67-41.58-7.71-1.02,8.05c-23.63,5.19-17.68-14.08-25.67-29.44l2.77-4.42,59.45,9.48c5.06-1.51,30.8-30.43,38.41-35.66,1.69-1.16,1.99-2.78,5-1.96Z"/>
  <path class="st0" d="M810,610.98c-.23,1.36-2.17,4.12-3.45,5.09l-101.56,49.89-.6-12.6,88.6-51.39.98-100.57,16.04-11.41v121Z"/>
  <path class="st0" d="M1336.47,239.53c-3.94-3.19-12.37-84.38-14.91-96.1l-6.04-10.96-86.05-14.46-5.47-12,102.49,14.49,7.56,4.44,21.83,114.28-3.04,4.61-16.38-4.3Z"/>
  <path class="st0" d="M825.96,1585.95l7.75,18.56c-7.89,14.18-60.08,72.95-59.87,84.47s42.24,57.88,48.68,71.61l-.57,11.96-4.96,1.44-62.55-86.6c1.01-3.59,1.65-7.4,3.19-10.82,4.92-10.97,53.3-78.32,62.41-87.57,1.9-1.93,2.58-3.81,5.92-3.03Z"/>
  <path class="st0" d="M558.39,1627.53c6.95-.26,13.71,2.06,20.53,2.49,6.76.43,38.02-2.41,39.08,2.97l-27,56.9-13.06-15.04,10.05-22.91-39.99-3.01-23.98-34.16-6.76,3c-12.62-9.08-9.57-11.5-3.6-23.19,1.53-2.99,8.01-15.36,11.3-14.65l33.43,47.58Z"/>
  <polygon class="st0" points="2387.99 1103.97 2385.07 1124.03 2363.98 1130.98 2387.61 1161.49 2380 1203.94 2388.02 1203.94 2387.73 1218.69 2356.01 1229.95 2365.52 1169.18 2327.99 1125 2387.99 1103.97"/>
  <path class="st0" d="M379.99,819.98l-9.68,60.54,37.65,42.45-59.95,22.99.91-20.07,23.04-8.92-25.38-30.28,7.44-41.7-7.09-.91c-8.02-20.97,19.09-20.72,33.06-24.1Z"/>
  <path class="st0" d="M1996.01,1803.94l-3.51,37.49-34.49,24.54,3.53,6.98c-3.6,3.53-8.03,11.57-13.54,10.19-2.19-.55-24.27-11.98-25.06-13.15l1.15-4.97,46.92-33.08,3-58,57.98,27.02c.8,2.96-1.97,3.27-3.34,4.63-14.89,14.8-16.6,4.39-32.65-1.65Z"/>
  <path class="st0" d="M811.79,178.2l-.2,5.47c-7.37,6.99-43.15,26.24-46.57,32.35-5.88,10.51-.95,55.94-3.04,57.98-7.78,0-16-4.46-23.34-7.65-5.21-2.26-36.61-16.94-36.61-19.35l15.25-12.71,22.7,9.7,2.42-39.6,34.69-22.37-2.96-6.77c12.22-19.6,22.38-.71,37.66,2.95Z"/>
  <path class="st0" d="M1467.8,6.2c.75.61,3.23,15.82,4.15,18.88.67,2.25-1.33,3.55,3.02,2.89l28.47-23.61,43.54,7.66-.97-8.01,16.78-.14,9.22,32.11-60.27-8.95-39.73,35.96-5.96.98-20.06-58.95,21.83,1.18Z"/>
  <path class="st0" d="M1399.68,1810.27c5.75,28.67,6.82,59.6,12.96,88.02,1.32,6.12,1.58,12.06,5.92,17.05l86.03,14.56c1.66.42,7.44,11.21,3.41,13.08-30.31-6.24-64.54-6.88-94.45-13.6-11.11-2.49-13.92-3.53-17.01-14.99-6.03-22.34-15.49-78.53-16.62-101.42-.12-2.34.07-4.71.08-7.03l19.67,4.33Z"/>
  <path class="st0" d="M1152.02,303.99c-1.59-2.98,8.34-13.35,12.41-11.65l94.31,27.27,71.3-68.58c3.26-1.96,20.01-2.03,19.92,1.96l-87.74,86.04-110.2-35.05Z"/>
  <path class="st0" d="M1584,1745.96c-3.83,6.09-8.86,11.78-16.77,9.89l-91.79-25.62-71.49,68.77-19.95-1.08,87.45-87.69,112.55,35.74Z"/>
  <path class="st0" d="M1460.17,1245.81l-6.18-15.82,85.04-40.01,3.26-80.74,3.8-2.45,10,2.09c2.18,1.48,1.73,3.8,2,5.99,2.03,16.01,1.29,53.4-.02,70.17-.45,5.69-1.71,11.38-3.11,16.89l-94.8,43.89Z"/>
  <path class="st0" d="M1545.67,836.3l43.83,92.69-14.54,8.69-42.95-84.73-82.02-3c-1.24-1.24,1.51-16.96,6.98-16.02l88.7,2.36Z"/>
  <path class="st0" d="M1458.01,799.99l-6.95,17.69-87.78-31.3-60.34,55.54c-2.58.98-8.85-9.24-9.06-11.05s-.03-3.45,1.08-4.92l64.45-59.67,98.59,33.71Z"/>
  <path class="st0" d="M1869.99,1141.95c-2.19,2.31-19.6-16.38-22.04-18.94-15.62-16.3-30.74-33.48-46.02-50.13l-74.9,15.11,3.4-17.6,75.66-19.36,66.98,69.01-3.08,21.91Z"/>
  <path class="st0" d="M1097.99,587.99l-3.71,94.62,63.7,41.4-1.24,4.09c-6.74,1.75-11.01,8.99-18.63,4.78l-62.19-36.25,2-99.32,20.07-9.33Z"/>
  <polygon class="st0" points="1039.59 1315.53 941.31 1313.64 930.01 1293.96 1026.69 1297.74 1069 1233.99 1077.71 1250.45 1039.59 1315.53"/>
  <polygon class="st0" points="1145.2 934.12 1158.01 939 1159.71 942.56 1129.95 1028.86 1183.93 1089.1 1172.96 1097.98 1108.31 1032.67 1145.2 934.12"/>
  <path class="st0" d="M1435.74,1208.23c2.24,4.95,6.72,10.12,3.26,15.72l-63.95,59.33-96.94-33.44c-1.05-1.18,1.9-18.62,6.73-17.86,15.59,2.59,76.52,32.3,87.64,29.61,10.1-2.45,45.75-43.3,56.42-51.73l6.85-1.62Z"/>
  <path class="st0" d="M1286,1199.98l-5.32,16.07-90.76-3c-11.2-26.59-26.04-51.69-38.27-77.73-1.85-3.94-6.84-14.13-4.76-17.37,1.5-2.35,13.54-8.56,16.12-4.01,8.43,12.05,30.95,75.43,39.08,80.94,10.25,6.94,67.85,1.87,83.91,5.1Z"/>
  <path class="st0" d="M1007.99,961.97l-4.41,17.59-74.19,18.09-68.39-69.62c1.8-4.12,1.71-22.84,9.03-19.1l63.41,66.66,74.55-13.62Z"/>
  <path class="st0" d="M1279.87,819.82l-83.42,38.61-4.47,83.53c-25.68,2.77-14.28-25.09-13.91-40.91.43-18.26-.69-36.62.15-54.86l94.83-43.96,6.81,17.59Z"/>
  <polygon class="st0" points="1591.76 1113.71 1576.26 1109.69 1605.7 1019.37 1550.03 958.97 1563.03 950.53 1625.7 1015.37 1591.76 1113.71"/>
  <path class="st0" d="M1321.54,1388.4c5.26,5.4,14.41,62.5,19.45,73.61l-70.93,68.93-20.06-5.02c-.76-3.33,1.07-4.05,3.03-5.95,21.64-21.02,45.26-40.15,66.04-62.11l-15.1-72.89c.17-3.01,15.77,1.57,17.57,3.43Z"/>
  <path class="st0" d="M1638.01,1461.94l1.6-96.6c-.5-2.13-2.16-3.05-3.68-4.32-7.78-6.44-55.84-32.47-57.55-35.38-.85-1.45-.5-3.77-.17-5.49,6.09-.82,11.18-7.89,17.15-4.73l62.33,37.84.28,93.65c.66,4.48-18.89,16.25-19.95,15.03Z"/>
  <path class="st0" d="M1803.99,753.96l-96.58-2.03-39.36,61.09c-5.72,3.76-12.87-13.95-8.51-18.48l35.8-60.65,95.68.07c4.71-.16,14.37,18.76,12.98,20Z"/>
  <path class="st0" d="M1484.01,521.99c1.46,7.86-5.82,8.82-10.04,12.96-18.86,18.51-38.05,36.6-56.94,55.07-4.76,6.22,17.67,76.09,11.94,75.99l-16.58-7.42-18.03-74.24,69.7-65.43,19.96,3.07Z"/>
  <path class="st0" d="M380.46,968.41l-25.45,93.54c-12.67-8.88-11.88-17.49-11-31.98l7.97,1.99,15.97-77.04,83.45-26.58,18.56,14.63-89.5,25.45Z"/>
  <path class="st0" d="M1681.97,451.99l48.35,93.66,105.68,4.35-6.97,12.01c-6,5.4-19.04.22-26.05,0-27.01-.87-54.03-1.26-80.99-3.01l-51.17-91.01c-3.19-4.06,8.37-18.03,11.16-16Z"/>
  <path class="st0" d="M2109.99,1713.95c3.2,15.48-5.22,20.56-15.02,29.97l-3.96-5.97-66.03,43.35-77.01-40.33-3.96-21.96,4.07-2.21,78.58,44.71,83.33-47.55Z"/>
  <path class="st0" d="M675.99,1601.95l-45.56,81.32,47.55,79.69c.53,4.1-.2,2.58-2.94,2.97-14.98,2.15-17.47-6.12-27.03-15.01l5.96-3.98-39.69-58.28-2.25-7.58,40.29-78.82,23.67-.32Z"/>
  <path class="st0" d="M2085.59,299.69l-3.68,1.31,42.08,65.99-40.29,78.68-23.68,2.31,44.01-82.8-48.02-83.17c15.49-3.22,20.57,5.22,29.99,15.01l-.4,2.67Z"/>
  <path class="st0" d="M789.99,331.98l-81.18-44.01-81.82,48.01c-4.61-10.08,1.72-24.48,11.04-29.14,4.16-2.08,5.81,4.41,9.86,2.28l62.77-40.69,77.36,40.54,1.96,23.02Z"/>
  <path class="st0" d="M1993.99,839.98l-30,102.95,70,76.04c-15.36,9.09-18.93,1.68-29.02-8.98-20.05-21.18-38.57-44.05-58.58-65.3l29.13-98.2c.24-4.8,17.27-7.61,18.47-6.51Z"/>
  <path class="st0" d="M1841.99,1491.93c-1.41,1.64-16.29-7.85-14.11-12.91l5.95-101.75,88.11-48.49c5.66-2.51,12.98,1.55,16.09,6.14,1.55,2.29,3.02,1.4-.08,3.97l-90.98,49.02c-5.18,34.48-1.2,69.42-4.99,104.01Z"/>
  <path class="st0" d="M1186.46,415.53l-1.48-17.52,101.55,29.67,77.45-69.69c-.51,6.57,4.69,13.33.16,19.14l-77.08,68.07-100.61-29.68Z"/>
  <path class="st0" d="M1362.01,2.01l-1.4,5,2.77,2.59,74.18,14.84,26.34,84.65-14.93,16.89-27.01-88.94-91.96-23.06c7.72-13.83,17.68-12.79,32.01-11.97Z"/>
  <path class="st0" d="M2386.91,995.11c.48.69,2.71.72,3.05,2.27l.04,22.6-5-1.4-2.59,2.77-16.45,73.57-81.24,24.99c-3.92.6-22.4-12.74-17.6-16.01l88.44-24.4,22.46-91.53c2.47-2.37,7.65,5.33,8.89,7.14Z"/>
  <path class="st0" d="M742.01,1207.94l29.54-102.74-69.53-74.27c-.67-4.18.61-2.37,2.71-3.18,12.51-4.88,15.43.93,23.33,9.16,20.74,21.6,40.64,45.64,59.98,68.11l-28.47,97.51c-3.02,7.48-10.91,5.36-17.56,5.42Z"/>
  <path class="st0" d="M1549.67,1634.28c.47.71,4.42,17.9-.62,15.64l-99.72-29.49-76.34,69.45c-2.41-.17-6.79-14.6-3.17-17.05l77.65-68.5,102.2,29.94Z"/>
  <path class="st0" d="M796.01,710l92.98-50.04,3.02-101.97c1.87-2,14.56,5,14.01,8.97l-4.99,105.04-91.03,49.18c-3.7,1.8-16.3-8.02-13.99-11.18Z"/>
  <path class="st0" d="M1015.68,1490.27l47.44,89.64c3.74,7.27-4.02,9.67-5.16,16.02l-5.66-3.29-48.62-90.37-103.67-2.34,7.4-14.02,108.27,4.36Z"/>
  <path class="st0" d="M1653.99,238c2.02,2.26-9.42,13.78-13.02,13.99l-73.59-15.68-49.47,46.74-19.91-3.08c-2.14-2.35,14.33-17.54,16.94-20.04,16.32-15.62,34.67-29.38,50.46-45.65l88.59,23.72Z"/>
  <path class="st0" d="M2177.72,1220.3c-6.7,25.71-12.35,52.41-20.73,77.64-.97,2.93-2.35,13.59-5.96,12l-11.24-10.96,15.85-73.61c-4.92-13.58-47.05-42.95-47.39-54.32-.14-4.49,3.5-10.3,3.78-15.08l7.11,1.86c16.91,19.04,33.62,38.42,50.76,57.24,2.26,2.48,4.74,4.03,7.83,5.23Z"/>
  <path class="st0" d="M1217.44,1766.3c3.83-1.14,20.59,1.42,20.52,4.63l-67.41,62.67-88.54-24.7,10.9-12.17,75.18,16.13c8.98-6.36,42.58-44.55,49.35-46.56Z"/>
  <path class="st0" d="M627.6,1376.37l42.43,64.56,66.59,1.41,11.4,16.57c-4.53,6.28-11.42,1.26-17.03,1.06-25.67-.92-51.38-1.03-77-2.99l-43.93-78.08c-1.64-5.51,14.82-2.5,17.55-2.52Z"/>
  <polygon class="st0" points="1803.99 1643.95 1798.99 1737.93 1720.01 1781.92 1719.79 1764.86 1782.99 1723.93 1785.97 1653.35 1803.99 1643.95"/>
  <path class="st0" d="M2123.99,671.96l-16.92.07-39.39-63.73-70.35-2.66c-3.26-1.11-11.47-15.57-9.32-17.66l92.1,2.93,43.88,81.05Z"/>
  <path class="st0" d="M582.02,737.98l13.23,12.93c-.93,16.27-18.79,62.62-14.85,75.65,2.84,9.39,40.05,34.87,44.55,47.53,2.11,5.94.25,14.93-3.98,19.88l-62.68-67.43,23.73-88.55Z"/>
  <path class="st0" d="M1015.99,268l-1.85,17.13-63.15,40.85-1.3,68.7-16.7,11.27c-6.22-4.49-1.21-11.38-1-16.97.96-25.65.77-51.35,3-76.99,23-12.7,47.37-30.08,70.93-41.06,3.3-1.54,6.11-3.57,10.07-2.92Z"/>
  <path class="st0" d="M1043.99,736.01c3.25,4.71-15.78,11.99-17.45,14.51-2.68,4.04-1.38,14.77-3.53,19.44-4.98-1.95-13.2-9.85-18-9.86-5.38,0-12.1,8.07-19,5.88-.19-5.79-.19-19.41-3.04-23.98-2.29-3.68-15.86-6.19-15.07-11.03.77-5.93,13.05-9.35,15.08-13.01,2.51-4.53.36-11.87,1.01-17.03.25-2.02-.48-4.32,2.98-2.94,12.76,5.11,18.68,17.5,36.05,4.03,1.94,1.37,2.6,2.61,2.99,4.94,2.8,16.55-4.7,21.71,17.98,29.04Z"/>
  <path class="st0" d="M1431.99,1447.96c.35,17.03,5.02,23.62,22.01,26.01,2,2.65-12.73,16.24-13.68,21.44-1.1,6.05,2.78,11.63,3.5,17.37-5.35,6.95-13.78-1.06-22.39,1.56-3.94,1.2-12.34,14.33-15.4,11.59-2.19-16.48-3.79-26.47-21.93-30.09-3.61-5.27,11.62-14.57,13.47-19.15l-3.54-20.75c2.12-2.11,17.09,3.58,21.04,3.08,4.26-.54,14.72-13.46,16.95-11.08Z"/>
  <path class="st0" d="M1111.99,1367.96c2.34,2.05-9.26,14.76-9.24,18.99.01,4.41,10.74,14.85,5.32,18.06-3.94,2.34-20.07.97-23.68,3.32-2.04,1.33-4.47,14.63-11.37,15.71-4.29.67-7.52-12.56-13.03-15.07s-12.32-.49-17.97-1.03c-3.05-2.97,9.64-16.55,9.85-20.93.2-4.06-7.98-19.03-5.85-21.05l23.59-.43,11.41-17.54c9.39,12.04,12.88,21.8,30.99,19.97Z"/>
  <path class="st0" d="M1663.96,623.99c5.46,16.27,14.82,16.47,30.04,18.01-9.68,14.85-13.31,23.18-4,39.96-6.88.52-18.44-1.32-24.51,2.01-3.29,1.8-7.14,17.15-12.44,16-5.09-2.88-8.82-14.98-13.03-17-5.86-2.81-13.67,1.76-17.98-3.98,12.5-13.3,9.35-19.76,3.95-34.99l21.98-3.04c5.11-2.24,10.88-20.45,15.99-16.96Z"/>
  <path class="st0" d="M1334.49,545.5c2.4,2.56,16.68,5.94,17.51,9.52-13.43,15.37-16.96,17.84-10.02,38.95-1.24,1.25-17.43-4.57-22.52-3.68-5.88,1.04-11.05,10.43-14.44,9.68-6.57-13.86-3.43-23.4-23.03-24.01-3.34-3.94,11.83-17.13,13.16-21.89,1.52-5.45-4.5-13.87-3.16-20.08l20.61,1.68,14.37-11.68c4.18.92,4.13,17.89,7.52,21.51Z"/>
  <path class="st0" d="M1747.99,1281.95l2.99,24.02,17.02,11c1.21,5.1-14.31,11.13-15.56,13.38-1.58,2.86-.25,14.92-2.45,19.59-2.51,2.27-15.75-9.08-19.41-9.67-4.92-.79-19.32,7.05-20.56,5.66-.27-7.02,1.18-16.31-2.4-22.6-3.89-6.83-17.79-7.46-15.69-14.33.49-1.61,15.24-8.04,17.07-11.07,2.62-4.35.29-12.85,1.02-17.98l19.34,9.58,18.64-7.59Z"/>
  <path class="st0" d="M935.99,1049.97l-3.51,22.77,11.52,15.2-19.98,5.03-6.04,16.99c-3.81,2.74-17.64-12.84-21.23-13.53-4.39-.85-14.71,5.58-20.74,3.53-.93-7.03,3.27-13.91,2-20.91-1.04-5.71-7.33-8-10.01-12.09-1.12-1.71-3.44-2.04-.03-4.04,10.85-6.37,25.23-.2,28.07-22.96,3.09-2.36,13.27,12.42,19.45,13.66,7.29,1.47,13.64-2.88,20.51-3.66Z"/>
  <path class="st0" d="M1667.76,2.24l46.23,145.74c-.8.81-19.3-4.33-21.01-5.96-2.42-2.32-7.81-21.45-9.51-26.49-12.3-36.59-23.31-74.56-33.47-111.52l17.76-1.77Z"/>
  <path class="st0" d="M991.99,161.97c-8.42.45-13.68,10.59-22.02,7.16l-123.89-63.23c-1.24-6.88,5.99-10.32,9.97-15.01l131.34,64.71,4.6,6.36Z"/>
  <path class="st0" d="M1867.99,985.95c-16.99,1.23-26.3,6.8-30.02,24.01-1.12.83-14.41-14.65-19.28-15.45-4.85-.79-14.42,5.42-20.69,3.44-1.37-1.29,4.4-16.98,3.99-20.97-.56-5.51-11.01-9.97-10-17,4.06-1.03,17.16-2.51,19.53-4.48,3-2.5,2.74-14.42,7.47-17.5,1.36,0,14.22,12.52,18.53,13.56,7.52,1.82,21.71-7.58,21.7.51,0,5.03-4.19,13.68-2.94,18.43,1,3.81,14.53,12.27,11.71,15.44Z"/>
  <path class="st0" d="M1889.99,1943.96c1.7,2.36-10.98,15.63-14.08,15.14l-133.91-71.14,17.98-9.2,130.01,65.19Z"/>
  <path class="st0" d="M2387.99,1305.95c-1.41,7.31,6.48,16.67-2.53,20.47l-141.45,45.52,7.45-24.02,136.53-41.97Z"/>
  <path class="st0" d="M1085.99,2045.91l-19.79-.19-46.19-143.78c1.98-1.75,21.82,3.05,23.66,7.32l42.32,136.65Z"/>
  <path class="st0" d="M434.37,1537.58c-1.6-2.71.27-6.36,1.2-9.08,11.66-33.84,45.2-91.31,63.47-124.61,1.24-2.26-.14-4.88,3.94-3.93l10.24,19.98-64.27,123.95c-.61,5.11-14.12-5.54-14.58-6.31Z"/>
  <path class="st0" d="M2289,502.02l12.11,12.02-68.11,135.9c-1.52-.03-14.53-19.7-10.14-23.98l66.14-123.94Z"/>
  <polygon class="st0" points="489.99 677.98 484.7 700.14 346.01 741.98 347.19 723.75 489.99 677.98"/>
  <path class="st0" d="M1952,871.99l-21.67,78.53,63.77,68.35,1.91,7.09-14.98,2.02-68.66-73.44c-1.07-3.07-.36-6.01.08-9.07.92-6.46,15.01-50.44,18.01-56.03,2.04-3.81,18.02-20.33,21.54-17.44Z"/>
  <path class="st0" d="M784.02,1177.96l21.69-78.59-64.72-69.39-2.98-6c6.75-.51,14.83-4.76,21.14-.15l64.53,71.53c-9.99,28.23-10.47,67.19-39.66,82.6Z"/>
  <path class="st0" d="M1673.97,503.99l36.34,69.67c8.38-.8,16.51,1.94,24.61,2.4,23.07,1.31,51.55-1.11,74.12,1.91,2.24.3,4.09-.74,2.94,2.97-.96,3.09-7.33,12.48-10.96,13.05l-100.69-4.34c-11.32-28.03-34.38-50.56-30.32-82.7.35-2.78,1.07-5.78,3.97-2.96Z"/>
  <path class="st0" d="M848.01,721.96c-.66-4.63,7.91-7.57,11.39-9.6,8.02-4.68,55.76-28.55,57.61-32.38,2.27-12.18.4-24.71,1.01-36.99.81-16.26.59-33.8,2-49.99.24-2.71,1.04-14.53,4.95-13,.84.33,9.38,6.85,10.18,7.82,5.44,6.61.88,9.87.76,17.07-.49,28.43-.45,57.8-4.28,85.7l-2.85,3.15c-27.59,10.49-49.18,33.96-80.77,28.21Z"/>
  <path class="st0" d="M1035.54,1460.4c8.25,22.66,26.17,43.27,30.63,66.54l-2.18,18.99-39.96-71.01-102.02-4.99c3.58-3.95,7.94-15.64,12.98-16.05,3.15-.26,7.75,2.04,11.93,2.16,12.64.37,83.44.64,88.62,4.36Z"/>
  <path class="st0" d="M1888,1327.97l-69.04,39.94-4.97,100.03c-2.26,2.33-18.13-7.09-16.09-12.89l5.08-97.12,58.5-31.48,26.52,1.52Z"/>
  <path class="st0" d="M1519.99,1607.93l-76.75-21.55-74.24,67.51c-11.18-15.41-.68-21.87,9.95-32.01,19.41-18.51,40.4-35.82,60.45-53.66,3.14-.81,56.68,16.41,62.01,19.3,3.03,1.65,21.1,17.94,18.58,20.4Z"/>
  <path class="st0" d="M1367.99,395.99c.4,6.37,4.58,13.21.11,19.11l-73.05,66.22c-28.14-11.28-62.06-11.91-81.03-38.36-.39-5.3.86-2.01,3.41-1.41,12.64,2.99,68.19,22.16,75.13,20.11l75.42-65.67Z"/>
  <path class="st0" d="M2389.99,1373.94l-12.11-7.14-105.68,32.2-24.19-9.08,2.52-4.44,131.35-40.63c12.57,3.15,7.09,19,8.12,29.1Z"/>
  <path class="st0" d="M487.99,1389.96l-62.21,122.76c-11.82,12.55-18.76-4.72-27.74-11.78l13-4.96,51.43-97.55,25.51-8.48Z"/>
  <path class="st0" d="M2335.99,549.97c-5.01-.23-10.12-.78-12.93,4.07l-51.57,97.43-25.47,8.5,64.95-126.01c6.95-10.08,27.29,14.12,25.02,16.01Z"/>
  <path class="st0" d="M1715.99,2.01l-5.64,12.42,31.4,106.65-10.78,22.9-42.9-133.25c-.12-13.5,19.26-7.59,27.92-8.72Z"/>
  <path class="st0" d="M894.33,67.67l98.25,52.22,9.41,26.1-121.91-63.06c-14.08-10.82,4.2-17.96,10.92-26.88l3.33,11.63Z"/>
  <path class="st0" d="M1842.02,1993.93l-1.31-12.19-98.62-52.89-10.08-24.9,125.09,63.87c9.33,9.51-8.49,19.56-15.07,26.1Z"/>
  <path class="st0" d="M488,660c-.22,2.66-2.84,3.25-4.87,4.1-38.68,16.12-87.17,23.53-126.67,39.53-15.48,2-9.42-17.54-10.45-27.64l12.46,5.68,104.72-31.63,24.8,9.96Z"/>
  <path class="st0" d="M1018,2045.9c.79-3.02,4.78-4.29,5.68-7.42,3.75-13.09-28.05-90.98-31.17-109.9l12.5-24.64,42.18,134.99c-.29,11.48-21.42,5.74-29.19,6.98Z"/>
  <path class="st0" d="M1887.99,282c2.55,2.5-8.5,18.77-10.99,21.95-4.24-10.37-9.33-4.09-17.92-3.88-16.87.42-33.84-.86-50.68.33l-34.41,52.57-19.98-1,43.98-67,90.01-2.98Z"/>
  <path class="st0" d="M497.99,1173.97c-.32,2.79-1.98,4.15-.19,7.04,2.13,3.45,42.63,41.85,45.64,42.65l61.76-11.6,12.79,15.87-79.94,15.07-64.01-62.05,23.95-6.99Z"/>
  <path class="st0" d="M2259.99,869.95l-21.97,6.03c.32-3.48-.12-6.06-1.9-9.13-7.38-12.7-34.94-27.87-44.01-41.78l-62.88,12.49-13.18-14.59,80.51-16.68,61.48,58.65,1.96,5.01Z"/>
  <path class="st0" d="M1213.99,132l4.02,21.98c-9.93-1.83-10.12,5.21-14.98,10.04-6.44,6.4-33.33,31.17-34.62,37.43l11.43,59.69-15.82,14.84-14.91-80.1c18.93-18.04,38.46-45.2,58.88-60.9,2.01-1.54,2.54-3.88,6-2.98Z"/>
  <path class="st0" d="M626,501.98l19.89,12.98c-2.67,2.27-3.63,4.42-4.01,7.91-2.12,19.34,1.61,41.72,3.13,61.1,4.03,6.68,41.56,24.06,48.96,33.04,3,3.64,2.68,13.25,2.03,18.01-.38,2.75,1.13,3.46-2.96,2.93l-67.04-44.97v-91Z"/>
  <path class="st0" d="M2107.58,1454.35l1.39,91.62-18.97-11.04.22-2.79c7.64-.17,1.87-10.97,1.69-17.1-.48-16.3,1.39-32.85-.93-49.07l-52.65-34.32,2.65-21.67,66.6,44.39Z"/>
  <path class="st0" d="M1571.99,1773.94l13.72,78.54-63.68,65.44-4.01-24.01,7.05.26c5.64-13.39,36.42-32.75,40.06-44.14,3.91-12.23-8.89-48.7-10.37-63.16,1.08-3.24,14.9-15.55,17.24-12.92Z"/>
  <path class="st0" d="M846,1765.93l10.04-19.98,3.78.22c.2.93.05,2.8.63,3.18,6.18,4.04,54.74-1.59,65.57-2.4l36.92-51.16c3.01,1.26,21.26-2.58,19.04,3.12l-46.98,67.03h-89Z"/>
  <path class="st0" d="M1446,836l-4.11,13.86-70.47-23.63-53.41,46.75-5.88.88c-6.25-12.71-4.34-13.14,4.83-21.94,6.68-6.4,46.78-44.93,50.53-45.65,11.34-2.18,63.4,27.4,78.52,29.73Z"/>
  <path class="st0" d="M1295.81,1181.76l-83.85-2.77-31.11-77.05,10.52-5.75,3.59,1.78,29.07,62.94c13.29,2.72,27.5,4.17,40.99,5.01,8.78.55,24.57-1.72,31.69.31,6.1,1.73-1.8,11.38-.91,15.52Z"/>
  <polygon class="st0" points="1421.97 1173.96 1427.07 1187.99 1368.07 1243.12 1290.07 1213.85 1295.15 1197.89 1363.05 1223.29 1421.97 1173.96"/>
  <path class="st0" d="M1230.33,880.29l-4.34,75.67c-1.6.09-3.2.02-4.81-.16-2.2-.24-7.75-1.6-9.2-2.83-6.21-5.27,2.83-72.15.29-84.74l76.8-31.8,6.29,12.58-65.03,31.28Z"/>
  <path class="st0" d="M2106.36,911.59c11.09,8.86,22.41,18.55,32.69,28.32,3.38,3.21,14.4,13.1,14.47,16.59.05,2.3-2.47,17.19-6.5,15.44l-62.71-61.27,28.72-74.76c5.19,1.91,10.95,7.07,10.91,12.77-.06,10.98-21.02,57.05-17.58,62.9Z"/>
  <path class="st0" d="M623.98,1213.95c-2.37,1.73-13.66-9.06-13.6-12.6l18.95-60.44c-.73-6.82-42.21-36.07-46.33-45-2.8-6.07,1.45-11.63,1.01-17.96l7.09,1.91,58.61,57.5-25.73,76.58Z"/>
  <path class="st0" d="M1315.99,242.02l-61.26,65.58-76.69-28.6c4.7-3.84,8.14-11.25,14.73-10.99,13.26.54,40.54,15.84,54.78,17.64,1.7.22,3.31.72,5.01.05l43.45-46.81,19.99,3.13Z"/>
  <path class="st0" d="M1523.5,870.48l32.22,74.83c1.12,4.13-12.57,7.67-15.48,6.41l-28.51-65.48-75.73-4.28,3.15-14.11c13.29,2.29,77.8-3.66,84.34,2.63Z"/>
  <path class="st0" d="M1523.73,1096.23c-1.15,12.52,3.42,79.69-2.21,85.25l-77.35,30.32c-.96-5.17-6.98-10.44-2.2-14.85l63.07-28.96,4.97-76.03,13.72,4.26Z"/>
  <path class="st0" d="M780,596.98l-71.05,34.96c-5.16,1.56-3.54-16.81-1.72-18.17l55.75-29.8c2.04-3.39,1.28-23.44,1.1-29.07-.59-17.69-10.44-37.76,11.84-46.05l4.08,2.14v86Z"/>
  <path class="st0" d="M1180.92,946.44c3.62,1.63,13.31,3.11,12.82,8.15l-25.42,66.09,49.61,54.41c.75,3.36-8.85,8.33-11.3,8.55-5.72.51-50.6-52.02-58.37-59.09l32.66-78.11Z"/>
  <path class="st0" d="M1555.99,1767.96c1.73,2.36-9.04,13.65-12.6,13.59l-60.44-18.95-42.94,46.35-20.02-1.03,4.96-10.03,54.48-55.67,76.55,25.73Z"/>
  <path class="st0" d="M1529.03,964.53l58.4,60.41c-4.97,8.7-28.69,75.66-32.68,76.88-2.88.88-13.22-2.33-12.73-6.71l23.69-67.73-46.74-51.42c-3.73-7.02,4.99-9.05,10.07-11.42Z"/>
  <path class="st0" d="M1875.6,420.4l7.43,11.61-2.3,3.7-85.46,2-35.27-72.68c1.07-5.29,15.82-2.01,18.99.96,7.01,6.57,19.37,42.7,27.22,52.77.92,1.18,1.47,2.55,3.13,2.93l66.26-1.3Z"/>
  <polygon class="st0" points="942 1611.94 973.99 1685.93 956.98 1683.96 927.68 1628.27 861.42 1629.97 852.23 1616.65 855 1611.94 942 1611.94"/>
  <path class="st0" d="M2029.99,1417.96c.72.72-1.34,15.98-2.45,17.53-2.49,3.47-49.78,24-57.21,28.78l1.68,64.7c-.03,3.74-13.74,13.32-16.01,10.97l-1.03-88.01,65.59-32.41,9.43-1.55Z"/>
  <path class="st0" d="M1797.99,599.99l-37.54,61.32,31.5,65.73c1.7,6.06-14.45,1.35-16.45.44-9.81-4.51-24.86-51.23-34.67-61.43l-.86-4.94,38.92-61.3,19.09.19Z"/>
  <path class="st0" d="M1663.99,487.99l-2.47,32.51-38.02,62.97c-4.77,4.61-62.16,2.65-73.5,4.5,2.34-29.92,41.45-13.72,61.59-18.41l46.75-78.23,5.64-3.34Z"/>
  <path class="st0" d="M1904,1319.93c-4.96-.09-10,.32-14.98,0-30.38-1.99-55.08-26.8-81.16-40.84l-3.85-73.13c29.59,6.16,13.38,40.75,19,61.97l80.99,51.99Z"/>
  <path class="st0" d="M1458,514c2.66,2.94-11.46,12.88-14.6,13.61l-68.93-22.08-15.53-75.52c3.55-.6,11.6-12.3,14.1-8.06l17.05,68.95,67.91,23.1Z"/>
  <path class="st0" d="M938.01,1449.94c-.54-2.86.5-4.91,1.56-7.42,6.93-16.4,27.53-37.19,35.56-54.44l-33.12-67.13c8.47-1.79,16.08-3.36,21.68,4.32,3.56,4.88,31.65,58.23,31.62,61.7l-38.14,61.14-19.15,1.83Z"/>
  <path class="st0" d="M1972,1029.94l-69.98,15.04-24.02,69.73-3.96,1.24-9.65-14.59,22.63-69.38c1.89-2.01,4.48-2.29,6.93-3.07,9.61-3.1,52.73-13.26,61.11-13.12,10.04.16,12,6.86,16.95,14.16Z"/>
  <path class="st0" d="M1361.6,1544.36l14.6,70.63c1.82,4.39-12.41,14.24-14.18,12.94l-14.29-69.72-71.72-25.26,16.75-11,68.84,22.41Z"/>
  <path class="st0" d="M1071.98,599.98l-1.95,19.03-65.04,32.84c-3.69,0-60.37-36.37-61.96-39.89-1.32-2.9-3.32-19.57,1.94-17.95l60.03,37.84,66.99-31.87Z"/>
  <path class="st0" d="M1791.47,1434.45c4.64,4.7-.06,15.72-.46,21.48l-60.02-39.29-68.98,31.3,3.29-18.18,65.69-33.11,60.48,37.81Z"/>
  <path class="st0" d="M764.01,1017.97l68.68-13.83,24.29-68.19c2.49-3.22,2-1.32,4.01,0,3.99,2.63,10.57,9.29,8.66,14.46l-21.62,66.58-71,16.97c-4.46.27-15.33-13.95-13.02-16Z"/>
  <path class="st0" d="M1549.99,1461.95c-.72,5.16,4.9,13.58,3.07,17.94-3.32,7.92-31.15,28.55-35.11,39.15,4.75,30.28,14.97,59.31,20.57,89.39.49,2.63,3.77,3.91-1.49,3.49-5.83-6.78-17.64-17.03-21.15-24.85-8.61-19.16-9.45-49.72-17.03-70.18.26-3.73,36.24-42.61,42.13-48.97,1.45-1.57,6.92-7.92,9.01-5.97Z"/>
  <path class="st0" d="M1955.99,851.98c-1.58,5.05-9.85,11.76-13.96,15.02s-8.4,6.29-12.61,9.39l-70.47,16.66c-2.9-.36-31.4-26.62-36.01-31.03-2.61-2.5-19.08-17.68-16.94-20.04,5.16.72,13.58-4.9,17.94-3.07,9.11,3.82,27.96,34.55,39.02,35.23l93.02-22.17Z"/>
  <path class="st0" d="M780.01,1195.94c1.52-4.9,9.98-11.96,13.96-15.02,3.25-2.49,8.18-6.97,11.57-8.43,19.11-8.24,49.04-9.19,69.43-16.55,20.22,13.75,37.23,32.21,54.99,49.01-4.43,3.92-14.76,6.38-19.91,4-7.9-3.65-29.76-34.45-36.92-34.86l-93.12,21.85Z"/>
  <path class="st0" d="M1196.02,435.98l23.47,25.51,16.51,71.46-48.97,53.01c-3.23-.73-5.77-14.21-4.07-17.92,4-8.76,30.48-27.84,34.91-38.94l-21.84-93.13Z"/>
  <path class="st0" d="M929.98,843.97l-16.06-9.33c-1.8-11.89,3.97-46.46-2.98-54.6-25.34-17.01-53.1-30.67-78.48-47.54-2.09-1.39-5.4-1.98-.48-3.56,2.01-.64,29.32,1.11,32.12,1.95l62.9,39.1,2.99,73.99Z"/>
  <path class="st0" d="M1185.99,1461.96c1,.87-6.95,14.9-9.3,15.67-10.61,3.51-47.34-3.8-54.19,2.83l-50.48,81.48,2.89-36.09,37.5-61.48,73.58-2.41Z"/>
  <path class="st0" d="M1792,1199.98c.99,1.29-3.27,3.65-4.6,4.37-5.57,3.02-54.54,23.35-57.56,22.7l-55.23-35.69-12.58-31.4,73.81,47.09c5.3,1.15,25.74-14.53,33.29-15.03,7.68-.51,15.48,6.8,22.87,7.97Z"/>
  <path class="st0" d="M1062,1133.99c.58,5.17,0,3.17-2.91,4.03-26.5,7.78-55.97,10.58-82.62,18.39-6.98,21.84-7.05,40.33-34.45,43.54l25.27-62.17c2.65-1.92,58.63-13.55,63.96-13.64,9.57-.16,21.08,8.6,30.76,9.86Z"/>
  <path class="st0" d="M1257.97,719.97c-5.14.58-3.18,0-4.03-2.91-7.67-26.08-9.88-55.73-18.09-81.94l-33.77-12.23-10.07-22.91,62.96,26.02c.78,18.36,13.45,46.04,13.08,63.04-.18,8.14-9.45,21.76-10.08,30.92Z"/>
  <path class="st0" d="M1791.99,849.98l-25.47,62-63.54,13.05-30.97-12.07,85.57-19.4c8.37-20.56,6.67-41.7,34.41-43.58Z"/>
  <path class="st0" d="M1323.94,229.91c-7.14,3.09-20.67,3.29-24.49-4.38-4.12-8.28,2-9.65,2.34-14.42.91-12.73-9.51-38.67-10-52.91-11.11-2.66-47.3-2.03-53.6-9.4-1.15-1.35-7.01-13.95-6.18-14.8,15.15,6.88,65.76,3.5,75.14,13.84,7.45,8.22,6.79,47.27,9.36,60.64,1.66,8.63,6.81,13.22,7.43,21.43Z"/>
  <path class="st0" d="M1504.01,729.96l45.68-73.43c1.22-7.68-14.46-26.14-15.17-33.85-.37-3.97,9.16-24.5,11.45-22.7l23.72,62.54-35.65,54.5-30.05,12.93Z"/>
  <path class="st0" d="M1061.4,858.57c.89,1.16,12.09,24.82,12.57,26.44.83,2.8-.19,3.56-2.93,2.93l-72.52-45.63c-8.57-1.24-27.02,15.53-33.51,15.53-1.1,0-16.5-6.34-18.46-7.41-2.3-1.26-3.38.1-2.54-4.43l61.06-23.88,56.33,36.45Z"/>
  <path class="st0" d="M1541.99,1449.94c-10.15-5.64-57.5-20.07-61.62-27.36-1.71-3.01-13.7-59.89-13.44-63.69.51-7.28,9.72-20.07,9.09-28.94l5.53,3.45,17.52,80.48c3.93,5.86,29.45,8.54,34.9,13.1,2.13,1.78,9.38,21.56,8.03,22.95Z"/>
  <path class="st0" d="M1232,1317.97l-47.59,75.33c-.88,5.14,15.08,26.31,15.57,33.8.22,3.45-8.16,24.39-11.96,20.85l-22.9-62.05c12.33-13.23,23.28-42.74,35.85-53.98,3.09-2.77,29.69-15.08,31.03-13.95Z"/>
  <path class="st0" d="M1988.53,1553.41c2.91,4.67,38.29,23.14,44.47,29.94,4.45,0,33.75-29.28,40.47-31.11,4.22-1.16,15.92,3.32,18.53,7.68-17.09,4.85-48.54,44.43-64.9,42.08-13.08-1.88-45.69-44.79-64.8-44.33-5.88-9.44,15.89-23.41,23.91-12.89,2.1,2.76,1.05,6.58,2.32,8.64Z"/>
  <path class="st0" d="M2258,889.99c-1.9,5.43-2.99,11.56-3.71,17.27-1.81,14.29-1.75,34.19-4.7,47.3-.71,3.18-5.84,10.05-8.47,11.53-11.3,6.32-47.14,3.91-61.97,8.03-4.86,1.35-9.7,6.48-13.06,7.01-8.18,1.3-9.8-23.4,3.93-26.35,3.79-.82,7.67,3.54,14.87,3.25,4.88-.2,45.27-7.53,47.16-9.01l8.34-52.66,17.62-6.36Z"/>
  <path class="st0" d="M1901.83,429.8c-17.55,2.7-25.82-25.1-4.86-27.84l28.74-44.69c-1.01-5.09-28.25-31.31-30.6-39.24-1.25-4.22,4.94-13.07,4.91-18.04,11.59,16.07,29.25,32.97,39.64,49.33,4.84,7.62,6.71,12.48,2.09,21.41-7.04,13.58-29.84,31.47-36.55,45.44-2.05,4.27-2.43,9.08-3.37,13.62Z"/>
  <path class="st0" d="M774.01,489.99c.96,13.02-14.55,21.32-25.8,15.78-1.21-1.54.87-6.73-.61-9.41s-40.39-25.78-46.24-30.06l-39.42,30.75-17.94-5.1,52.03-42.93c4.56-1.94,11.29-1.82,15.89.04,11.58,4.68,34,30.21,46.22,37.77l15.87,3.16Z"/>
  <path class="st0" d="M847.58,1643.55c-1.81,1.25-5.52-.34-9.68,3.3-2.17,1.9-27.77,39.72-27.98,42.24,1.79,12.1,27.67,32.61,29.7,42.33.99,4.75-3.78,10.23-3.63,15.26l-3.96,1.24c-6.06-16.14-43.04-46.82-41.99-62.87.51-7.76,32.86-39.99,38.84-51.23,2.06-3.88,4.58-15.26,5.27-15.73,8.45-5.81,23.41,18.51,13.42,25.45Z"/>
  <path class="st0" d="M1433.51,1820.43c7.84,7.25.46,13.21.28,20.44-.35,13.68,8.61,34.07,8.55,48.7l50.35,6.67,9.3,17.68c-19.81-5.53-47.56-2.53-66.5-8.48-3.09-.97-8.07-3.67-9.63-6.37-6.11-10.54-4.25-48.86-8.34-63.66-1.57-5.7-5.61-9.17-7.58-14.42,4.07-5.98,19.41-4.4,23.57-.56Z"/>
  <path class="st0" d="M502.47,1100.43l-7.79,51.12-15.69,8.4,7.16-66.84c2.29-7.92,9.49-11.53,17.03-12.96,21.51-4.08,46.79.16,66.18-11.86,11.33-1.03,5.86,28.46-7.82,25.3-2.41-.56-3.6-3.5-8.24-3.56-4-.04-48.98,8.59-50.84,10.4Z"/>
  <path class="st0" d="M895.99,819.96l-13.72-4.26c-2.05-3.21,2.55-14.25-3.19-17.81l-102.68-70.24c-3.58-5.88,8.62-11.74,13.5-8.67l105.18,68.91c7.42,8.35-.37,22.1.91,32.06Z"/>
  <path class="st0" d="M1786,139.99c-14.23-32.21-44.69-56.07-1.02-82.02l-12.67,26.66c11.13,21.44,32.24,44.83,41.79,66.26,1.06,2.38,2.69,3.96,1.89,7.09l-79.99-4.01,4.53-11.42,4.47-2.56h41Z"/>
  <path class="st0" d="M1576.48,540.45c2.99-2.64,12.98-1.79,17.11-2.89l73.41-105.54c4.37,3.83,9.06,9.33,5.49,15.35l-69.53,106.63-3.77,1.89-25.26-2.84c-2.89-1.55,1.66-11.82,2.55-12.6Z"/>
  <path class="st0" d="M388,1413.95c3.17-7.21,25.23-7.04,28.2-11.26l20.8-82.7,53,58.93c-3.17,3.26-9.64,6.01-13.92,4.1-4.02-1.8-20.43-20.47-27.05-25.1-1.7-1.19-1.99-2.77-5.02-1.97-1.79,1.61-8.71,39.6-12.42,46.59-.91,1.72-11.74,11.41-12.59,11.41h-31Z"/>
  <path class="st0" d="M1838.01,1229.95c18.61-2.52,12.28,14.62,18.9,22.09l99.78,68.22,3.3,4.67c-.33,1.37-8.13,5.78-9.85,6.09-6.71,1.21-100.94-65.09-113.71-74.27l1.58-26.79Z"/>
  <path class="st0" d="M1557.96,1503.96c7.86,14.28.88,13.76-5.79,24.84l23.06,123.03-2.27,4.08-12.6-5.32-26.29-125.94c-.65-2.66.35-3.8,1.95-5.66,2.13-2.47,19.64-16.7,21.94-15.02Z"/>
  <path class="st0" d="M736.01,1231.94l3.3-14.09,121.92-25.71c7.05-6.47,26.04,16.06,26.69,18.93.91,4.04-8.07,6.98-10.95,8.3l-15.87-9.5-125.09,22.08Z"/>
  <path class="st0" d="M1998,817.98l-3.36,14.04-125.95,25.87c-5.29.61-21.26-17.58-22.68-20.95-1.41-3.35,1.39-2.71,2.52-3.41,14.97-9.25,13.39,5.68,24.03,5.83l125.43-21.38Z"/>
  <path class="st0" d="M978,46c8.47,5.32,5.38,23.04,13.37,27.63l80.63,18.39-59.96,55.98c.25-3.49-3.34-6.65-3.76-9.5-1.22-8.27,31.18-34.59,29.72-36.48-11.78-4.05-60-11.4-60-27.02v-29Z"/>
  <path class="st0" d="M997.99,1893.94l-5.34,14.06-44.65,1.95c4.21,10.55,25.35,37.31,25.71,46.87.64,16.78-12.41,25.03-23.69,35.11l11.64-28.5-43.65-71.48,79.98,2Z"/>
  <path class="st0" d="M1173.53,396.47l26.67,128.62-.64,4.48-20.58,16.31c-13.46-12.83,3.19-17.71,3.11-28.77l-22.08-123.12,13.52,2.48Z"/>
  <polygon class="st0" points="1162.01 1495.95 1158.08 1509.02 1141.01 1511.96 1072.84 1611.78 1067.03 1615.94 1060.9 1604.06 1132.4 1494.36 1162.01 1495.95"/>
  <path class="st0" d="M2252,1441.95c3.47,3.56,39.63-23.37,48.94-23.65,15.05-.44,23.91,13.65,33.06,23.63l-28.02-11.15-71.97,43.16,4-79.99c1.21-1.25,13.99,4.49,13.99,7.01v41Z"/>
  <path class="st0" d="M499.99,575.99l-2,77.99c-4.25.4-12.12-.75-13.66-5.33-1.82-5.41-.79-40.56-2.35-42.67-17.77,6.06-41.57,31.61-60.73,21.74-1.26-.65-20.6-17.5-21.24-18.77-1.61-3.19,1.15-3.52,4.16-2.16,5.09,2.3,19.09,13.34,23.99,12.27l71.82-43.08Z"/>
  <path class="st0" d="M2345.99,633.99c.9,5.1-.79,3.6-3.99,4.89-4.2,1.7-22.06,5.4-23.59,7.52l-18.42,81.57c-2.11,1.99-8.39-5.25-10.04-6.94-15.71-16.13-29.83-34.22-45.91-50.05l14.03-5.98,30.93,28.94c3.36.11,11.23-43.7,16.12-49.84,10.33-13,26.61-5.7,40.87-10.11Z"/>
  <path class="st0" d="M1723.98,1901.93l3.1,12.04c-6.47,10.38-20.79,19.82-27.1,28.94-1.17,1.69-2.79,1.98-1.97,5.01,12.1,2.81,25.82,5.52,37.51,9.5,23.49,7.99,20.53,16.41,21.19,38.99.08,2.9,2.52,4.86-1.71,7.51l-10.13-27.85-80.82-21.14,52.86-51.1,7.08-1.91Z"/>
  <path class="st0" d="M1677.38,696.35l59.35-.11,11.22,20.75c-6.02,6.61-15.39,1.16-22.87.91-12.53-.42-25.24.16-37.77.4l-18.31,25.65c-20.3-17.79-5.03-31.94,8.38-47.58Z"/>
  <path class="st0" d="M1352.01,1435.96l23.02,5.96,6.15,33.13c-.5,3.22-42.08,42.57-45.78,42.52-2.81-.04-20.22-6.73-19.37-10.57l41.02-39.11-5.03-31.92Z"/>
  <path class="st0" d="M1062,704.97l25.96,18c-5.15,3.14-15.15,11.58-20.84,11.02-3.25-.32-27.36-16.71-28.25-19.83l1.45-58.86,21.68-11.32v61Z"/>
  <path class="st0" d="M1695.58,1332.35l.03,60.21c-.82,4.38-22.27,12.79-23.61,11.38l1.61-58.61c-14.21-16.82-43.4-15.45-6.95-31.05l28.91,18.07Z"/>
  <path class="st0" d="M1050,1329.95c.45-3.65,15.54-27.87,17.98-25.99l9.6,20.65-20.96,28.98-59.28-1.55-9.34-22.08h62Z"/>
  <path class="st0" d="M1420,537.99c.72,3.54-1.89,4.86-3.95,7.03-11.56,12.18-28.03,23.29-38.95,36.85l4.89,32.1-21.52-6.47c-1.18-9.55-9.35-28.51-4.58-36.63,6.9-11.76,30.95-26.53,40.16-37.92,7.47-3.44,15.6,5.83,23.94,5.04Z"/>
  <path class="st0" d="M1853.98,1075.95c-3.02.82-3.31-.79-5-1.97-12.05-8.36-26.46-28.12-36.98-39.12l-33.98,5.08,5.82-21.16,35.23-7c2.88,1.8,38.8,37.66,39.98,40.23,3.2,6.95-4.43,16.6-5.06,23.93Z"/>
  <path class="st0" d="M955.99,1009.97c.45,27.36-17.48,24.39-38.54,27.7-2.81-.74-39.13-36.94-41.59-40.63-4.22-6.34,4.61-18.25,7.13-25.06l41.07,43.04,31.93-5.04Z"/>
  <path class="st0" d="M1223.81,1086.1l20.51,45.53c23.46-2.12,47.88,7.2,69.67-3.66l-2.01,17.97-79.99,1.02c-2.64-1.66-3.72-4.35-5-7-2.28-4.69-16.83-42.48-17.01-45.19-.52-7.56,7.71-8.46,13.83-8.68Z"/>
  <path class="st0" d="M1527.98,1089.97l-13.8-4.2,15.36-50.57c-16.39-13.32-27.86-40.15-49.54-43.25-2.4-2.22,8.94-12.46,11.9-13.21,3.86-.97,51.07,48.21,57.76,54.65l-.08,7.06-21.61,49.51Z"/>
  <path class="st0" d="M1301.88,866.02c.16,3.73,4.18,7.75,4.14,11.04-.08,7.37-38.53,18.26-45.05,24.89.77,22.74-7.81,47.23,3.01,68.01l-16.12-.86c-3.67-2.56-1.45-29.65-1.79-36.21-.55-10.58-5.21-33.57-1.05-42.88,3.23-7.23,47.15-19.93,56.85-23.99Z"/>
  <path class="st0" d="M1490,1079.98l-1.04,79.94c-3.32,7.49-45.16,16.84-53.99,23.78-2.19-.15-7.68-11.52-5.19-14.81,5.05-6.65,41.37-15.67,43.84-22.31,5.5-14.75,4.03-53.95-3.61-68.61l19.99,2.01Z"/>
  <path class="st0" d="M1422.02,921.97c.52-3.9-2.05-18.68,2.89-19.51l77.7-.1,4.3,3.7,18.94,50.71-13.89,6.37c-5.98-8.17-15.75-41.56-23.46-44.66-12.87-5.18-53.98-4.93-66.48,3.5Z"/>
  <path class="st0" d="M1413.99,1151.92c-9.27,2.4-13.9,12.68-19.94,19.09-4.56,4.84-32.56,33.67-35.48,34.56-3.22.98-5.84.62-9.03-.13-3.55-.83-46.91-20.04-47.48-22.61l7.14-12.62c11.86,1.75,38.41,18.3,48.68,14.73,5.45-1.89,38.6-35.25,41.22-40.9,1.08-2.33.82-5.51.92-8.07,2.75-2.98,10.92,11.73,13.96,13.04l.02,2.92Z"/>
  <path class="st0" d="M1221.96,964.07l-16.02,48.77c.01,1.73,1.17,2.87,1.96,4.23,1.83,3.13,28.34,31.09,32.06,33.93,4.72,3.61,9.8,7.03,16.04,6.98.99.94-9.86,11.38-13.35,11.69-2.38.21-31.46-27.58-35.7-31.66-9.5-9.13-23.75-18.5-20-32.12,1.07-3.9,18.28-42.32,20.06-43.96,5.1-4.72,9.28,1.33,14.96,2.13Z"/>
  <path class="st0" d="M1431.84,864.17c1.51,2.1-1.8,13.46-6.83,13.89-9.54.81-34.27-15.05-45.73-15.68-5.75,1.15-45.55,39.56-45.3,49.59-2.94,2.71-9.54-9.48-11.81-11.29-.71-3.96,51.42-57.22,55.27-58.37,2.38-.7,4.7-.76,7.05.08,5.49,6.79,45.27,18.87,47.35,21.79Z"/>
  <path class="st0" d="M2356.02,847.97c-.64-2.75-1.01-4.77-.75-7.64,2.23-24.7,16.04-92.94,23.66-116.42,1.04-3.19,3.57-10.87,8.03-9.93,2.9,1.85,2.78,3.9,3.12,6.89,4.29,37.4-13.49,85.21-20.09,122.1l-13.98,4.99Z"/>
  <path class="st0" d="M1059.28,2.28c5.79-1.58,28.37-.72,35.48-.04,27.63,2.66,58.15,14.57,86.25,17.75,6.01,1.98,13.85,17.62,3.41,16.72-38.59-3.34-82.36-19.76-121.44-24.7-4.43-.62-9.46-8.16-3.7-9.73Z"/>
  <path class="st0" d="M426.01,523.97c-.9-3.46,1.43-4,2.98-6,23.75-30.9,66.76-49.18,97.15-73.01,3.17-2.78,15.38,4.01,15.87,6.06.49,3.05-2.37,4.14-4.16,5.81-25.75,24.15-73.5,42.76-101.26,66.94l-10.57.21Z"/>
  <path class="st0" d="M2192,1599.92c-.78-3.75,1.89-4.83,4.15-6.82,28.04-24.59,72.46-43.57,101.91-68.1,2.64-2.11,9.23-1.23,9.92,1.97.58,2.65-24.14,26.56-28.16,29.8-20.85,16.81-48.79,29.02-69.95,46.16l-17.88-3.02Z"/>
  <path class="st0" d="M379.99,1201.97l-26.8,130.17-7.18,1.8c-3.78-42.53,9.97-82.71,16.94-124.09-.62-5.08,16.12-8.85,17.04-7.88Z"/>
  <path class="st0" d="M1868.01,84.01c3.77-.87,4.74,2.13,6.99,3.99,30.66,25.16,48.41,63.07,71.52,94.65,2.87,2.95-3.76,16.9-5.56,17.34-3.34.62-3.87-2.7-5.43-4.53-24.79-29.1-43.32-72.04-67.75-102.37l.22-9.07Z"/>
  <path class="st0" d="M1675.49,2038.44c1.12,1,3.41,6.64,2.5,7.48-32.59,2.53-62.88-3.61-94.37-10.61-15.57-3.46-40.32-2.66-37.61-23.37l129.48,26.5Z"/>
  <path class="st0" d="M797.69,1850.3l70.27,108.73-2.97,6.85c-32.92-27.29-51.85-63.77-75.46-98.53-3.74-5.1,1.34-21.13,8.16-17.06Z"/>
  <path class="st0" d="M948,659.98c23.25,8.17,21.61,28.99,19.02,50.02l-58.03,31.27-15.01-8.32c-.52-3.41,2.65-3.9,4.67-5.33,14.86-10.56,34.66-17.21,49.35-28.65v-39Z"/>
  <path class="st0" d="M1692.41,605.55c6.78.69,13.85.73,20.68.51,6.55-.21,14.07-5.26,18.88.91l-13.29,16.68-36.7,1.34-31.04-58.87,10.08-16.14,31.4,55.57Z"/>
  <path class="st0" d="M1495.99,1567.93l-62.79-17.74-26.2,27.71c-2.32.1-5.23-16.7-5.01-18.93.17-1.78,20.52-27.14,22.04-28.09,6.45-4.06,55.09,16.28,65.9,18.14,5.37,3.81,4.85,12.75,6.07,18.91Z"/>
  <path class="st0" d="M824,1151.94l17.24-61.05c-.76-5.33-31.35-25-27.23-28.92,6.99,0,13.8-3.35,20.93-1.98,3.41.66,27.32,20.85,27.05,26.73l-19.01,61.21-18.98,4Z"/>
  <path class="st0" d="M1004,1443.95c5.59-24.56,29.6-20.16,49.68-19.67l29.89,59.01-10.55,14.68-30.07-54.17c-1.68-2.71-3.36.15-3.95.15h-35Z"/>
  <path class="st0" d="M1842,1315.98c2.62,3.78-51.46,29.09-54.15,32.81-5.4,7.46.12,29.57.14,39.14-2.24,2.32-16.58-8.48-18.13-10.85-1.94-2.96-4.63-31.99-3.47-35.76,2.14-6.97,50.47-25.87,59.1-33.09l16.51,7.74Z"/>
  <path class="st0" d="M1329.99,471.99c8.28,23.44-8.59,31.62-21.17,47.67l-66.85-21.09-.94-16.62,61.6,16.16c5.96-7.42,13.9-17.41,21.36-23.15,2.01-1.54,2.54-3.88,6-2.98Z"/>
  <path class="st0" d="M1909.99,895.98l-16.02,60.93,26.03,28.02c-19.6,13.57-36.16-7.79-47.61-21.57l20.07-62.93,17.54-4.45Z"/>
  <path class="st0" d="M2128,1285.93c-3.64,2.3-15.98-13.47-17.2-16.98l9.11-30.09c-9.9-17.07-30.09-24.36-17.87-46.89,3.05-.66,4.65.32,7.06,1.88,2.74,1.77,30.02,31.35,30.61,33.54l-11.71,58.53Z"/>
  <path class="st0" d="M608.01,763.98c29.97,11.17,4.81,33.34,6.75,47.06.5,3.57,21.52,21.93,22.87,28.41.84,4.03-3.68,15.18-6.66,18.51-4.36,1.04-31.73-32.22-35.96-37.75l13.01-56.24Z"/>
  <polygon class="st0" points="986.32 340.29 983.01 376 965.06 385.98 961.9 379.08 965.84 333.32 1015.98 302 1015.02 326.01 986.32 340.29"/>
  <path class="st0" d="M1106,1783.91l15.45-15.69,31.55,8.91,28.41-22.91c7,1.25,23.87,3.46,16.72,12.84l-35.06,30.1-57.06-13.25Z"/>
  <path class="st0" d="M721.5,1410.46c2.23,2.16,10.02,17.94,3.2,19.32l-46.71-2.82-31.99-50.99c29.49-5.81,25.62,11.73,39.33,29.65,7.47,2.23,31.93.73,36.17,4.84Z"/>
  <path class="st0" d="M1771.99,1663.93l-2.41,51.6-51.57,30.39c.22-5.63-.97-19.27,2.51-23.47,2.89-3.5,25.3-10,27.49-14.01,4.97-18.77-3.73-44.73,23.98-44.51Z"/>
  <path class="st0" d="M1627.98,263.99c1.95,3.24-12.3,15.21-15.25,17.6l-29.79-9.46c-18.38,8-27.26,33.8-48.95,14.81l37.47-34.55,56.51,11.6Z"/>
  <path class="st0" d="M2087.99,673.96c-27.56,5.1-24.81-15.07-38.46-30.66l-35.54-4.32-7.99-15.96c1.37-7.12,44.43-.53,52.02-.07l29.98,51Z"/>
  <path class="st0" d="M2317.45,629.4c-1.14.96-18.35,7.94-20.59,8.46-3.07.71-3.27.13-2.83-2.84l37.96-70.05c7.59-3.12,34.57,2.2,31.08,12.89-3.96,12.13-13.98,5.57-20.21,9.98-7.62,5.39-18.26,35.55-25.41,41.57Z"/>
  <path class="st0" d="M2389.7,1411.64c-5.83,9.25-20.12-6.58-22.64-6.92-8.75-1.18-36.05,11.92-48.04,11.36-3.37-.16-24.72-8.15-21.01-12.11l74.89-22.07c9.05,3.52,23,19.92,16.81,29.75Z"/>
  <path class="st0" d="M1825.48,1986.42c4.92,5.11,1.78,33.74-9.58,34.72-13.26-3.35-7.75-18.18-11.87-22.25-7.75-7.65-33.27-16.22-40.88-25.12-1.96-2.29-9.98-21.01-9.14-21.84l71.47,34.48Z"/>
  <path class="st0" d="M1756.01,1.99c3.89,11.99-4.48,14.54-7.06,20.06-3.78,8.09,11.14,40.25,10.81,51.02-.08,2.63-5.28,13.33-6.87,16.9-.69,1.55-.52,5.76-3.86,4-3.5-1.84-21.81-66.06-24.89-75.11,7.33-10.23,17.78-20.06,31.87-16.87Z"/>
  <path class="st0" d="M979.98,98l-71.65-36.31c-.99-8.84-2.59-31.12,8.96-33.37,12.06-2.34,9.49,16.75,12.72,20.68,6.7,8.15,35.49,17.93,42.07,25.93,2.01,2.45,9.26,21.36,7.9,23.08Z"/>
  <path class="st0" d="M439.99,1411.96l-34.97,70.01c-13.19,4.79-26.88,3.74-34.64-9,4.87-11.85,10.03-7.17,18.2-9.43,8.63-2.39,21.11-36.23,27.95-43.05,1.81-1.81,22.21-9.7,23.45-8.53Z"/>
  <path class="st0" d="M438,643.95l-75.09,23.93c-8.18-3.57-24.72-20.56-18.03-30.03,10.19-7.99,17.74,6.14,25.86,6.06,21.34-.2,47.36-23.36,67.26.04Z"/>
  <path class="st0" d="M1347.99,451.99l14.52,63.48,27.48,10.53c1.73,2.36-6.92,10.92-9.44,11.65-5.47,1.59-34.39-9.09-36.18-13.04l-10.43-59.52c.15-3.49,11.77-15.17,14.04-13.1Z"/>
  <path class="st0" d="M1757.99,603.99l-33.66,55.48,11.67,30.49c-22.83,5.61-25.37-18.36-31.66-34.49.62-2.96,32.08-47.85,34.52-49.63,5.02-3.65,13.09-1.29,19.13-1.85Z"/>
  <path class="st0" d="M1787.99,1413.94c-3.01.72-4.7-.69-7.12-1.86-8.63-4.15-45.44-31.16-49.88-31.44l-28.98,11.3c.48-4.5-1.06-10.52.31-14.68,1.58-4.81,30.35-16.11,35.73-14.48,2.83.86,47.42,30.64,48.94,33.17,2.6,4.32.32,12.86,1,17.98Z"/>
  <path class="st0" d="M1389.53,1522.42l11.99,62.29c-1.52,3.15-12.35,14.43-15.51,11.23l-12.98-62.04-28.99-12.97,12.86-10.9,32.63,12.38Z"/>
  <path class="st0" d="M1497.81,1077.82l-19.67-7.11,5.57-23.3c-1.06-3.93-12.52-12-15.71-16.47-7.08-9.92,3.28-13.85,4.03-24.97,3.03-.82,3.31.79,5,1.97,3.85,2.67,26.85,23.75,28.98,27.01,10.36,15.86-3.66,28.05-8.2,42.87Z"/>
  <path class="st0" d="M1031.98,655.98c-.47,4.75.86,10.47.02,15-1.27,6.87-25.59,13.2-32.7,16.58l-52.37-35.61,1.08-17.97,55.42,33.7,28.54-11.7Z"/>
  <path class="st0" d="M1422.01,894l-6.09,19.89c-8.01,2.16-17.51-7.52-24.45-5.62-5.84,1.6-19.85,18.73-22.42,19.02l-18.96-7.42c-.82-2.95.29-4.66,1.82-7,2.29-3.52,28.84-28.99,31.99-30.01,12.87-4.15,25.44,9.11,38.12,11.14Z"/>
  <path class="st0" d="M1430.01,935.98c20.43,1.35,46.3-11.83,58.41,10.58,1.21,2.23,6.91,16.92,7.24,18.91,1.62,9.84-9.07,10.88-16.45,14.35l-11.11-20.93-30.1-1.9-7.97-21.01Z"/>
  <path class="st0" d="M1865.98,1047.96c-21.47-11.44-7.17-28.55.1-44.91l61.02-12.26,12.86,12.18c.07,4.59-55.5,12.34-61.89,16.07-5.39,3.14-9.85,22.42-12.09,28.92Z"/>
  <path class="st0" d="M1455.99,1085.97c-1.03,14.51,6.02,35.78.49,49.47-4.45,11.01-26.2,15.13-36.4,18.49l-8.09-19.95,21.73-8.3,1.26-29.73,21-9.98Z"/>
  <path class="st0" d="M1238.93,970.43l18.92,8.74-7.59,21.37c13.22,14.98,28.23,21.25,10.69,41.42-2.28.54-33.58-28.22-34.53-31.41-3.61-12.11,5.59-30.06,12.51-40.13Z"/>
  <path class="st0" d="M978.01,1443.94c-3.01-2.57,31.08-48.53,32.01-55.14s-11.72-27.3-10.01-28.83c5.02.38,11.36-1.23,16,.98,3.99,1.9,14.71,29.16,13.64,33.48-.73,2.94-32.05,48.02-34.56,49.71-5.32,3.58-10.84-1.33-17.08-.2Z"/>
  <path class="st0" d="M1314.01,1155.93l6.02-21.98,22.7,7.59,24.22-19.54,18.99,8.94c.15,2.4-30.22,33.67-33.34,34.6-15.47,4.61-24.55-7.57-38.59-9.61Z"/>
  <path class="st0" d="M1278,912.97c2.51-8.88,27.62-13.91,35.04-18.75l9.12,20.51-19.12,9.28-3.32,31.68-21.72,6.28v-49Z"/>
  <path class="st0" d="M796.01,1043.98l60.8-14.21,14.19-27.77,10.74,11.38c-1.93,6.77-9.7,31.87-15.17,34.15l-57.55,10.43c-3.52-.27-14.89-11.39-13.02-13.98Z"/>
  <path class="st0" d="M2092.01,1193.95c5.15,23.2-19.08,17.41-33.69,24.33l-8.24,34.74-20.06,2.92,16.26-57.72,45.74-4.27Z"/>
  <path class="st0" d="M1061.99,390.02c.64,2.87-.28,3.24-2.07,4.88-2.89,2.65-46.17,26.74-48.94,26.51-4.7-5.16-35.96-25.03-34.89-30.21,12.91-18.77,23.23,2.41,35.88,5.98,9.35,2.64,23.55-14.32,33.03-17.17l16.99,10.01Z"/>
  <path class="st0" d="M1257,1113.96c-10.64-3.05-14.12-24.38-18.69-33.4l1.62-3.57,15.17-7.05c5.59.07,8.09,15.35,11.29,19.65l31.69,3.3,7.13,16.93-2.21,4.14c-12-2.19-35.68,2.96-46,0Z"/>
  <path class="st0" d="M1723.37,1628.25c2.11-.18,32.64,23.47,33.68,25.69,2.5,5.35-2.6,9.32-7.19,11.02-7.71,2.86-22.12-13.1-30.85-14.33l-28.15,17.37-18.82-11.06,51.33-28.69Z"/>
  <path class="st0" d="M1998.03,719.97l-27.37-50.99c-.01-2.27,25.87-35.12,28.3-35.12,4.31,0,9.31,6.7,9.07,10.93-.46,7.8-11.57,18.3-13.22,25.19-2.21,9.19,15.19,22.48,16.79,32.68l-13.57,17.31Z"/>
  <path class="st0" d="M1198.01,1747.94l-15.82-.2-9.5-31.98c-21.43-5.82-38.9-.42-36.68-29.81l56.06,16.92,5.94,45.08Z"/>
  <path class="st0" d="M737.97,1329.96l25.61,50.69-26.65,35.31-10.91-10.96,15.32-28.04-17.23-30c.17-3.75,10.08-19.76,13.86-16.99Z"/>
  <path class="st0" d="M1600,361.97l-55.98-15c-5.31-3.75-5.33-36.88-7.17-45.04,23.22-12.58,17.47,25.48,25.18,31.04l31.94,8.06,6.04,20.94Z"/>
  <polygon class="st0" points="689.63 849.61 644.01 855.96 644.26 841.23 675.65 831.63 682.98 797.95 703.04 792.07 705.23 796.13 689.63 849.61"/>
  <path class="st0" d="M725.99,1323.96c-1.02,11.31-10.89,8.3-16.56,10.42-2.88,1.08-4.27,4.36-6.84,5.16-7,2.18-18.1-1.75-24.61,1.39-8.94,4.32-10.18,34.89-29.98,27,3.78-17.02,7.19-33.85,18.42-47.54l59.57,3.57Z"/>
  <path class="st0" d="M1067.98,381.99c-12.32-.74-8.24-7.83-10.41-14.58-.9-2.8-4.35-4.19-5.17-6.83-2.18-7.04,1.88-21.27-1.38-26.62-1.88-3.09-25.9-13-26.7-14.29-1.55-2.5.31-10.13-.31-13.69,10.87.71,42.19,8.2,47.01,17.98,1.46,2.96-.86,56.08-3.03,58.02Z"/>
  <path class="st0" d="M654,526.98c.08-.54,2.35-5.15,2.97-4.96l14.61,8.36,1.41,33.6c16.47,14.6,27.85,9.37,22.94,34.95-.37,1.93,1.16,4.26-2.89,3.01-2.05-.63-33.62-22-35.54-23.9-1.12-1.1-3.5-3.88-3.5-5.07,0-13.44-1.8-33.64,0-46Z"/>
  <path class="st0" d="M869,1737.94l-2.77-4.71c6.76-20.6,23.53-11.18,40.44-13.62,4.58-1.57,12.12-20.01,16.35-23.66,4.81-4.14,16.23,1,22.97.98-5.14,6.2-24.71,41.01-30.99,41.01h-46Z"/>
  <path class="st0" d="M701.99,783.96c-11.02,4.88-10.8-2.61-16.02-4.97-3.8-1.72-8.28-.24-12-1.99-3.47-1.65-9.39-15.11-15.42-16.73-12.53-3.35-32.35,18.03-42.52-1.3,14.24-9.72,29.06-20.05,46.74-20.52l39.22,45.51Z"/>
  <path class="st0" d="M1100.03,1775.93c-6.35-16.72-19.82-29.13-18.1-48.57l43.07-37.38c9.54,8.8-2.16,13.66-4.05,18.02-1.1,2.55,1.16,5.3.07,7.88-1.84,4.39-17.74,15.08-18.28,19,1.47,13.47,16.11,34.14-2.73,41.06Z"/>
  <path class="st0" d="M1635.91,274.05c6.04,16.94,18.17,28.38,17.9,47.64-6.67,1.53-41.93,39.98-45.8,36.29-4.73-11.03,2.29-10.52,4.92-16.07,1.45-3.05.68-6.78,2.14-9.85,2.32-4.87,15.54-12.99,16.6-17.47,2.56-10.77-19.37-37.64,4.23-40.54Z"/>
  <path class="st0" d="M1676.45,1683.53c.57.96,4.32,1,5.25,3.64,2.31,6.57-2.11,21.3,1.27,26.79,4.12,6.7,39.86,14.25,25.87,29.77-16.55-4.67-33.31-6.78-45.81-19.67l2.99-58.12c14.32.04,7.72,13.04,10.44,17.59Z"/>
  <path class="st0" d="M2037.17,1264.06c7.63-2.31,9.2,5.34,12.89,6.94,2.54,1.1,5.3-1.16,7.88-.07,5.05,2.12,13.26,16.61,19.85,18.08,13.17-.88,33.72-15.97,40.22,1.89-11.11,6.78-33.43,22.6-46.57,18.69-7.24-2.16-28.98-34.8-37.43-40.66-.53-1.93,1.66-4.4,3.16-4.86Z"/>
  <path class="st0" d="M2085.99,679.98c-.51,10.95-7.59,42.23-18.01,46.96-12.64,5.74-43.28-3.3-57.97-.98-.87-12.33,8.52-8.25,14.73-10.32,2.83-.94,2.56-5.17,4.66-5.72,5.97-1.55,24.7,1.99,28.29-.28,7.6-12.11,10.53-32.03,28.31-29.66Z"/>
  <path class="st0" d="M594,1201.93c-12.15.43-38.08,10.8-48.58,7.63-2.17-.66-29.58-27.88-32.43-31.58-1.54-2-3.87-2.54-2.98-5.99,21.98-12.48,23.86,8.48,36.89,16.08s37.39-14.87,47.1,13.87Z"/>
  <path class="st0" d="M2224,877.95c-4.48-.74-12.64,4.25-16.09,2.95-4.68-1.77-18.45-21.53-23.13-22.44l-29.39,5.19c-3.3-1.15-16.07-15.27-13.38-17.66l46.54-7.72c2.26.6,31.64,29.64,33.54,32.61,1.58,2.45,2.5,3.98,1.9,7.08Z"/>
  <path class="st0" d="M2165.99,911.98l-7.85,30.79c-8.5,5.19-7.06-5.47-10.07-9.88-4.4-6.44-20.56-17.43-23.11-22.98-3.92-8.52,12.12-35.39,13.06-45.93,26.23,6.53,4.3,33.43,8.91,43.91,4.51,10.24,11.15,6.57,19.06,4.09Z"/>
  <path class="st0" d="M1545.99,1797.94l7.68,46.6c-.55,2.34-29.72,31.36-33.66,34.4-2.01,1.55-2.54,3.87-6,2.98-9.32-21.04,8.49-26.76,19.51-41.22l-5.32-29.42,17.79-13.34Z"/>
  <path class="st0" d="M876.4,1641.5c5.35,3.35,33.67-2.54,38.3.57l21.29,41.85c-29.24,13.65-22.43-32.44-49.91-25.87-.06,4.59.22,10.48-6.06,9.89l-14.06-27.04c-.71-3.87.55-2.46,2.59-3.39,7.8-3.58,5.54,2.55,7.84,3.99Z"/>
  <path class="st0" d="M749.49,573.47l-38.59,18.53-4.58-3.33c-9.46-15.6,26.4-27.26,27.71-32.09.49-1.78.41-11.19-.3-12.33l-9.71-5.25,27-16.94,4.49,6.97c-12.17,6.95-.7,39.13-6.02,44.44Z"/>
  <path class="st0" d="M1288.02,234.02l-2.31,7.68c-15.32-.78-22.79,17.27-33.12,26.03l-46.59-13.77c2.06-4.75,7.67-13.3,13.1-14.02,12.27-1.63,33.32,14.85,39.01-3.06l-4.1-10.88,34.01,8.02Z"/>
  <path class="st0" d="M1867,311.99l2.02,3.96c-8.05,22.23-26.82,6.1-41.47,14.08-6.45,3.51-9.8,22.8-20.43,24.08-2.97.36-18.32,1.73-17.16-3.15l27.04-38.98h50Z"/>
  <path class="st0" d="M1190.02,249.98l-7.66-46.55,36.61-35.43c14.63,19.25-9.52,26.34-17.02,41.09l3.73,29.57-15.66,11.32Z"/>
  <path class="st0" d="M1479.99,1821.92c-1.87,1.73-23.66-4.17-27.6-5.48-2.65-.88-5.25.83-4.45-3.53,1.23-8.2,7.05-4.33,11.05-6.78,7.23-4.43,17.88-22.4,23.57-24.74l45.44,15.59c-8.68,24.59-31.99,1.62-45.95,8-11.64,5.32-.12,15.16-2.06,16.95Z"/>
  <path class="st0" d="M2080,1471.95v54c-2.6.55-15.22-5.6-15.67-6.32-1.61-2.52.27-19.32-.33-24.68-2.72-24.36-39.13-18.92-23-48.96l39,25.96Z"/>
  <path class="st0" d="M570.02,1137.96c-1.49-1.99,3.95-23.91,5.37-27.61,2.15-5.64,5.78-8.92,9.74-2.39,1.36,2.25-1.61,5.64-.24,7.97,2.34,3.98,23.57,17.87,26.19,24.08l-16.08,45.9-12.2-12.87c1.33-14.77,12.62-31.15-3.78-40.69l-9,5.6Z"/>
  <path class="st0" d="M1817.6,364.4c2.34,1.37,14.17,24.57,18.38,26.59,11.4,5.48,13.63-1.37,15.01-11l19.01,29.97c-7.34,4.68-10.63-1.45-15.09-1.9-11.5-1.14-23.49,1.52-34.93-1.06-1.91-1.16-19.52-36.79-20-40.03-.6-4.07.34-2.62,2.96-2.99,2.72-.38,12.92-.6,14.66.42Z"/>
  <path class="st0" d="M2027.99,1455.96c-.56,5.47,1.44,13.04-.98,18-4.44,9.13-50.61,21.32-15.02,34.98l-28.95,17.02c-6.64-4.67.19-8.66,1.07-14.9.97-6.87-1.83-31.51.22-34.79l43.66-20.31Z"/>
  <path class="st0" d="M1790,1239.95v48l28.01,15.02-17,10.85c-2.67,0-28.23-13.92-29.02-15.36-2.67-4.91-2.99-29.25-1.51-35.02.51-1.99,11.69-17.64,13.84-20.16,1.79-2.09,1.93-4.17,5.67-3.33Z"/>
  <path class="st0" d="M1629,601.98l18-27.96c14.18,13.14,7.46,29.64-3.3,42.66-5.87,7.1-27.61,6.81-36.28,4.88-3.98-.89-18.73-11.76-22.89-15-1.66-1.29-3.64.07-2.53-4.58h47Z"/>
  <path class="st0" d="M1883.99,903.98c.02,24.05-19.54,24.34-38.55,27.69-19.49-14.86-28.74-28.44-29.42-53.7l35.43,31.67,32.54-5.66Z"/>
  <path class="st0" d="M917.98,1169.96l-35.37-31.68-32.59,7.67c-.75-.75,5.48-18.59,6.96-20.01,3.57-3.41,29.47-10.35,34.86-6.94,17.39,11,27.13,30.43,26.14,50.96Z"/>
  <path class="st0" d="M1514,1473.97l-31.63,33.41,5.61,34.56-18.71-5.81c-2.16-7.41-11.13-28.04-8.31-34.13.78-1.69,19.31-22.08,21.14-22.95,7.2-3.46,23.49-4.34,31.9-5.08Z"/>
  <path class="st0" d="M1265.59,512.38c1.26.9,9.26,27.06,9.47,29.4.39,4.53-18.66,26.63-23.56,28.69-7.59,3.19-21,2.94-29.48,5.5-.9-3.47,1.43-4,2.98-6,4.62-6,27.73-25.31,28.7-29.38l-7.68-32.59,19.58,4.39Z"/>
  <path class="st0" d="M946,772.97c-2.57-20.55-19.21-15.3-28.02-29.98,16.94-13.8,30.73-.97,46.06,8.39-1.38,10.4,2.05,25.46-.51,35.11-1.52,5.71-13.02,18.56-17.52,23.48-1.04-11.73,1.43-25.57,0-37Z"/>
  <path class="st0" d="M1152,1445.95h-37c-15.24,0-18.18,18.02-26.02,28.02-4.48-.18-10.99-14.24-10.9-17.05.06-1.71,13.99-27.06,15.91-27.99,22.64-3.51,43.62-2.51,58.01,17.01Z"/>
  <path class="st0" d="M1017.99,1155.97l-31.98,51-34.01-1.03c3.63-5.93,12.05-4.9,16.89-10.09s20.71-35.88,23.52-37.47l25.58-2.41Z"/>
  <path class="st0" d="M1887.96,334l15.7,24.66c-8.19,13.29-15.08,27.45-23.25,40.74-.95,1.55.66,3.4-3.39,2.57l-14.88-24.78c.74-3.07,9.36-5.4,11.91-8.69,8.46-10.97-5.67-29.53,13.91-34.5Z"/>
  <path class="st0" d="M746,515.95l-26.82,14.19c-3.4-3.96-4.62-9.98-9.29-13.04-10.65-6.98-24.43,5.3-32-10.07.79-5.78,17.73-14.69,23.1-18.34,4.44,1.9,46.96,24.43,45.01,27.26Z"/>
  <path class="st0" d="M2222,901.96c-.18,7.03-.66,26.91-6.09,30.91-7.65,5.63-37.52,8.44-47.89,13.08l6.06-29.96c26,11.05,25.77-16.12,47.93-14.04Z"/>
  <path class="st0" d="M567.99,1103.97l-6.07,27.9c-6.11,1.67-12.84-2.58-18.45-1.61-10.25,1.76-14.82,23.28-30.53,15.73l3.26-29.83,51.79-12.19Z"/>
  <path class="st0" d="M1235.99,673.96c-2.84.55-4.93-.51-7.42-1.56-3.68-1.56-41.38-25.63-42.69-27.82-5.52-9.2.95-24.51.14-34.61,5.88,3.38,5.04,9.98,9.88,15.1,6.11,6.48,34.6,20.5,37.08,24.92,1.25,2.22,3.88,23.06,3.01,23.97Z"/>
  <path class="st0" d="M860.58,1680.5c-5.82,7.02-.32,17.84-1.78,23.52-.92,3.59-7.16,10.8-11.64,10.06-1.51-.25-15.61-20.92-14.35-26.13,2.66-10.99,20.2-29.35,23.22-42l17.76,25.01c0,3.02-11.4,7.36-13.21,9.54Z"/>
  <path class="st0" d="M1550,1403.95v34c-7.18-.31-6.01-8.81-10.98-14.02-7.23-7.57-32.22-18.01-37.16-24.84-3.64-5.04-2-18.84-.87-25.13l49.01,29.99Z"/>
  <path class="st0" d="M1025.99,871.95l-56.56,11.66-4.86-2.25-18.56-23.37c6.4.38,9.76,5.9,16.72,5.85,10.27-.07,38.67-10.83,46.04-9.39,1.25.24,19.09,14.97,17.22,17.5Z"/>
  <path class="st0" d="M1990,1531.97l25.95-14.03c6.27,27.19,31.81,5.49,42.03,24.96l-25,16.97c-2.35-.08-38.31-20.65-40.9-23.02-1.8-1.65-2.7-2-2.08-4.89Z"/>
  <path class="st0" d="M1446.01,1823.94l29.18,7.91c1.68,2.14-5.01,15.44,1.91,23.98,2.82,3.47,7.52,3.82,10.43,9.56,11.35,22.43-16.71,11.74-28.58,8.59l-12.94-50.04Z"/>
  <path class="st0" d="M1534,604c-14.27,17.65,5.16,44.43,3.09,61.02-.46,3.67-15.85,19.87-17.06,18.95l-12.02-56.97c.34-5.04,23.88-25.08,26-23Z"/>
  <path class="st0" d="M1787.99,1189.95c-5.64,1.39-10.51-4.87-14.95-5.12-10.94-.63-33.32,9.74-45.95,9.19l-19.06-15.05,57.05-14.2c2.9,2.28,25.53,22.72,22.9,25.19Z"/>
  <path class="st0" d="M1782,841.97l-2.55,4.47c-21.05,5.2-25.51,33.74-40.39,45.68-5.78-.77-12.56.63-18.1-.15-2.47-.35-3.76.98-3-3.03,1.68-8.88,25.61-36.91,31.04-46.97h33Z"/>
  <path class="st0" d="M1275.55,174.44l14.45,49.53-29.74-6.23c-1.86-6.03,2.29-11.75.9-17.73-2.22-9.51-11.52-10.52-14.62-17.55-9.2-20.89,17.98-9.72,29.01-8.02Z"/>
  <path class="st0" d="M1202.02,1445.95c-.03-6.43,4.13-10.12,4.16-16.97.07-14.18-12.07-40.01-5.07-50.93,2.71-4.24,8.6-7.98,11.89-12.05,2.84,1.93,3.12,4.97,4.05,7.91,2.47,7.85,10.12,42.55,8.96,48.96-1.4,7.68-18.35,17.57-23.98,23.09Z"/>
  <path class="st0" d="M1447.99,1063.97c4.62,19.22-12.61,18.41-26.68,22.13-4.33-3.63-2.04-6.57.69-10.11-14.17-3.73-19.66-15.62-33.02-2.09-19.57-26.63,7.4-22.59,25.41-15.33,5.52,2.22,17.76,11.45,22.66,11.36s5.85-6.81,10.93-5.95Z"/>
  <path class="st0" d="M1366.02,947.96c-.6.98,6.07,20.83,7.02,21.96,2.9,3.47,14.34,3.36,14.67,6.98l-6.65,14.75c-16.01,1.52-28-36.73-29.15-49.61l-11.91-.1,8.58-11.69,24.52,11.66-2.12,6.23-4.97-.19Z"/>
  <path class="st0" d="M1441.68,1024.25c-1.81-1.1-20.01,4.78-21.2,6.19-1.85,2.17-2.21,10.23-2.48,13.53-2.01,1.95-15.75-3.28-17.53-6.93-1.37-9.59,16.62-18.29,24.16-21.46,4.04-1.7,24.13-6.38,25.1-7.9l.29-11.71c20.8,6.53,6.04,20.29.07,33.07l-6.17-.07-2.23-4.72Z"/>
  <path class="st0" d="M1421.8,944.17l8.2,27.78-11.84.07c-.43,6.06-8.03,13.65-8.03,18.96,0,5.37,7.19,8.82,5.85,14.95l-14.66,3.83c-15.35-4.33,7.75-47.1,12.47-55.17l-.7-2.7c-4.56-1.9-5.99-2.46-5.09-7.92l13.81.2Z"/>
  <path class="st0" d="M1283.99,1051.95c-20.31-6.04-2.79-21.48.11-33.95,9.63-1.12,6.2,8.4,10.62,7.72,1.65-.25,18.06-5.57,18.81-6.2,2.1-1.76,3.19-12.16,4.49-15.55l15.14,5.92c6.98,9.76-17.16,21.32-24.08,24.16-10.41,4.27-28.6,2.11-25.1,17.9Z"/>
  <path class="st0" d="M1314.01,973.87c13.96,5,18.62,12.6,32.89,2.11l7.09,15.94c-11.45,6.3-21.78,2.98-33.38-1.58-5.15-2.02-19.59-11.87-21.96-12.11-4.31-.43-5.73,6.82-10.63,5.71l-1.83-10.65,26.69-11.28c5.4,3.24,1.85,7.11,1.13,11.85Z"/>
  <path class="st0" d="M1384.26,1107.7l11.74.28-8.97,11.51-25-11.6c-2.31-7.63,6.15-5.98,6.01-10.74-.07-2.15-5.67-17.98-6.98-19.26-3.51-3.41-11.46-.38-12.95-5.16l4.01-14.69c22.02.42,26,33.08,32.14,49.66Z"/>
  <path class="st0" d="M1325.29,1098.62c.76.94,3.02,5.01,2.71,5.32l-13.74,1.78-8.16-26.53c2.03-5.48,8.02-1.09,10.02-2.19,1.43-.78,9.76-17.97,9.46-19.68-.38-2.17-8.54-12.09-7.59-13.32l14.8-5.87c1.28.31,5.75,6.56,6.21,7.99,3.2,9.97-12.58,39.43-18.87,48.9.14,1.42,4.07,2.27,5.15,3.6Z"/>
  <path class="st0" d="M2387.98,889.96c-1.68,1.24-26.63-28.1-28.05-30.95-.77-1.55-3.49-2.2.04-4.08,20.57-10.94,36.82,16.66,28.01,35.03Z"/>
  <path class="st0" d="M1994,207.97c-13.59.22-27.56-.11-41.02-1.99-2.45-.34-3.79,1.03-3.02-3.01,4.28-22.54,38.57-14.26,44.04,5Z"/>
  <path class="st0" d="M2184,1651.94v-29c0-1.47,1.61-10.78,2-14.03.25-2.07-.45-4.33,2.96-2.95,24.49,9.92,13.07,35.31-4.97,45.98Z"/>
  <path class="st0" d="M742.01,1839.94c6.15,2.69,43.7.03,43.94,4.97-6.27,21.96-40.18,16.04-43.94-4.97Z"/>
  <path class="st0" d="M376,1193.94c-24.66,8.14-33.48-12.4-29.98-33.97,4-.5,6.62,3.38,9.01,5.96,2.89,3.13,22.98,25.77,20.97,28.01Z"/>
  <path class="st0" d="M1539.65,2033.55c-.49.83-14.14,11.69-15.06,11.96-6.37,1.86-15.74-.44-22.58.4-1.29-4.67,1.2-3.37,2.55-4.56,4.07-3.59,26.61-25,28.47-25.42,5.05-1.12,8.17,14.98,6.62,17.62Z"/>
  <path class="st0" d="M551.99,397.99c-2.92,7.27.25,42.91-5.03,44-1.24.25-12.18-5.8-12.54-6.41-.97-1.66-.93-17.65-.38-20.55.79-4.18,15.9-19.35,17.95-17.03Z"/>
  <path class="st0" d="M1231.99,4.03c2.95,3.23-1.58,3.69-2.55,4.54-8.21,7.26-16.99,15.71-25.44,22.44-2.14,1.7-2.5,4.51-5.01,1-9.02-12.64,5.44-29.02,18.01-30.1,2.86-.25,13.66.67,14.99,2.12Z"/>
  <path class="st0" d="M2283.99,1405.96c4,3.27-17.73,16.29-19.98,13.98v-15.99s19.98,2.01,19.98,2.01Z"/>
  <path class="st0" d="M2287.99,647.99c.82.8-3.01,14.55-3.75,17.27s1.37,5.6-3.22,4.7l-10.99-10.98c2.42-2.3,15.08-13.79,17.96-10.99Z"/>
  <path class="st0" d="M1753.96,108.01l10.03,19.97-16,.02c-.8-2.39.44-24.75,5.97-19.99Z"/>
  <path class="st0" d="M1011.99,108.01l-8.99,13.95c-2.51-1.73-15.24-15.88-12.99-17.95l21.98,4Z"/>
  <path class="st0" d="M1743.98,1945.93l-21.97-6.99,10.85-10.94c3.34,2.06,13.61,14.68,11.12,17.93Z"/>
  <polygon class="st0" points="972.01 1921.94 983.91 1920.75 987.95 1923.04 983 1941.89 972.01 1921.94"/>
  <path class="st0" d="M448.02,1401.95c-.27-5.96.93-12.44,3.09-17.97.99-2.53-.07-4.9,3.87-4.01l9.03,10.92-15.98,11.06Z"/>
  <path class="st0" d="M470.01,643.99c-6.71.26-13.91.14-20-3l19.97-13.01.03,16.01Z"/>
  <path class="st0" d="M1360,1001.98c13.43-1.8,14.51,4.69,7,13.94l-7-13.94Z"/>
  <path class="st0" d="M1388,1033.99c2.88,3.52-7.34,7.42-8.94,7.99l-5.04-12.01,13.99,4.02Z"/>
  <path class="st0" d="M1369.97,1033.97l4.02,13.98-9.86-2.12c-1.28-1.99,1.52-15.83,5.84-11.86Z"/>
  <path class="st0" d="M1389.99,1017.97l-1.9,9.14-12.09-1.17c-4.06-3.97,11.92-7.92,13.99-7.97Z"/>
  <path class="st0" d="M1357.97,1043.96c-3.22,2.4-8.89-6.93-7.98-9.98l11.98-4.02-4.01,13.99Z"/>
  <path class="st0" d="M1372,1017.94l7-13.94,4.84,8.75c-.73,3.2-8.53,5.75-11.84,5.19Z"/>
  <path class="st0" d="M1357.84,1008.08c7.65,15.39-.07,12.67-9.83,4.86-1.93-3.9,7.62-5.33,9.83-4.86Z"/>
  <path class="st0" d="M1357.99,1027.95l-13.99,2,2.01-9.99c.88-.81,14.03,2.81,11.98,7.99Z"/>
</svg>