<svg xmlns="http://www.w3.org/2000/svg" width="2732" height="2048" viewBox="0 0 2732 2048">
  <defs>
    <style>
      .cls-1 {
        fill: #7bae2c;
        fill-rule: evenodd;
      }
    </style>
  </defs>
  <path id="Color_Fill_1" data-name="Color Fill 1" class="cls-1" d="M1498,3h26c-4.24,12.4-28.78,22.936-41,28-52.53,21.765-159.43,25.622-225,14v1c9.71,22.9,30.89,41.562,45,61,28.75,39.62,28.88,64.842,86,79,0.33,0.667.67,1.333,1,2v4l-91,46v-5c8.63-21.309-.89-52.921-8-74-17.15-50.86-43.55-87.027-79-119-11.37-10.258-28.07-19.619-36-33,0.67-1,1.33-2,2-3h1c68.56,6.306,145.8,2,217,2ZM1024,5l57,5c10.32,1.211,18.96-6.212,28-3l30,25c54.9,41.285,119.91,140.879,95,241-8.51,6.1-57.28,34.79-64,34v-1c8.23-11.859,8.11-32.489,11-49,14.79-84.6-16.07-166.788-61-203-14.12-11.377-30.88-35.848-55-30q15.495,24.5,31,49c20.5,33.765,51.59,109.1,41,164-5.44,28.18-16.04,51.812-26,75-12.37,28.788-21.74,38.025-49,52-7.5,3.847-12.61,9.358-23,8-8.43-7.634,6.63-37.837,12-47,12.66-21.62,26.9-42.194,34-70q3-23.5,6-47c2.09-11.384,5.44-28.284,3-43-6.53-39.416-12.49-86.174-33-113C1052.51,40.894,1020.36,21.556,1024,5Zm617,3c5.45-.275,10.24-0.187,13,2Q1647,23,1640,36l-6,23q-33,18-66,36c0.34-9.881,4.21-28.04,0-34-0.67.667-1.33,1.333-2,2l-36,27c-21.63,12.7-44.08,25.9-65,37l-33,14q-13.995,20-28,40h-5c-12.7-9.147-18.84-34.189-27-48q-11.505-15-23-30c0.33-.667.67-1.333,1-2l51-8c62.79-12.46,94.04-20.5,140-48q28.5-17.5,57-35C1611.5,5.319,1628.84,13.064,1641,8Zm97,12c1.67,1,3.33,2,5,3,8.28,31.863-11.83,60.539-20,87q-6,30-12,60c-5.47,32.884,15.22,72.523,12,92q-15.495,6-31,12c-13.92-20.762-37.99-85.661-31-124,4.16-22.842,13.39-44.986,21-64q8.505-20.5,17-41Zm41,1c58.77,44.69,24.25,136.32-20,172-9.35,7.544-15.01,18.978-29,22-0.67-.333-1.33-0.667-2-1-1.78-15.293-7.34-25.287-9-38,18.26-25.521,45.83-42.152,56-76C1784.08,69.783,1763.44,45.245,1779,21ZM950,22c19.834,1.15,41.667,3.891,55,12,37.33,22.707,63.94,96.846,48,159l-3,2c-7.28-3.587-30.3-14.811-34-22-4.45-9.246.9-21.624-1-34q-4-23.5-8-47C996.749,66.751,947.3,41.805,950,22ZM920,50c24.275,1.675,25.451,24.5,35,41,22.813,39.415,39.617,79.442,74,107,9.37,7.509,44.27,25.116,49,33,3.01,8.187-7.11,25.3-11,32-22.32-1-41.28-15.31-56-25-45.619-30.027-61.668-45.046-84-99-5.707-13.789-15.688-28.168-18-45Q914.5,72,920,50Zm922,12c13.87,3.54,22.83,25.574,32,35,7.05,7.25,24.65,16.383,29,25q3.495,37,7,74c7.84,51.225-36.51,136.228-59,165q-22.5,19-45,38c-9.76.262-69.44-17.456-71-21,56.08-17.9,123.39-103.152,139-164,7.13-27.794,10.97-96.269-12-109-3.02,1.259-1.2-.018-3,2q-7.5,33-15,66c-24.07,75.985-63.53,129.318-135,159-34.9,14.5-82.26,32.187-114-1v-4c25.78-17.743,62.88-20.605,94-34,43.18-18.583,87.98-56.6,112-95,13.07-20.892,30.63-46.986,36-73C1841.19,104.684,1833.5,77.3,1842,62ZM1622,80h3l3,2q-4.005,15.5-8,31c-6.39,37.889.19,83.077,9,112,6.48,21.26,21.99,37.957,28,57a143.81,143.81,0,0,0-29,18l-7-1c-24.49-11.983-76.16-132.007-54-181C1572.62,105.573,1610.16,90.234,1622,80ZM849,103c0.212,0.091,23.789,47.706,24,49q-10.5,36-21,72c-8.191-6.491-13.684-20.4-24-24l-1,1c0,36.835-11.51,62.005-20,90q-4,18.5-8,37l-11,26c-2.307,17.525,14.4,36.044,7,51-3.47-.079-92.231-21.434-93-22,25.709-35.166,55.617-67.987,74-110,12.58-28.75,19.642-62.705,29-94q4-18,8-36Zm653,44c11.46,3.27,4.49,18.761,7,31,4.96,24.16,10.96,47.341,19,69,15.85,42.681,49.88,89.333,83,116,7.43,5.979,42.53,30.59,42,37q-19.995,11-40,22c-9.23,1.938-19.38-4.727-26-7q-14.505-3.5-29-7-21-30-42-60l3-3c13.02-4.881,31.16,7.611,42,0-8.29-14.9-24.15-24.409-37-35q-15-20.5-30-41c-5.84-9.287-19.39-45.9-26-51-14.9-11.5-41.97-9.791-53-25,0.33-.667.67-1.333,1-2q24-13.5,48-27Q1483.005,155.5,1502,147Zm450,23c18.99,8.075,34.74,36.64,49,51l133,132c13.04,10.531,60.37,48.042,65,62-0.33.333-.67,0.667-1,1-70.63-4.28-129.98-66.934-169-106-15.61-15.631-37.4-32.052-46-54h-2q-6,39.5-12,79c-4.92,21.162-16.8,40.579-12,68,3.31,18.9,15.05,30.491,17,47-1.75,1.257-2.91,2.738-7,2-6.73-1.214-91.8-32.54-92-33,32.85-13.026,62.51-76.209,72-114q2.505-26,5-52C1956,226.549,1943,190.109,1952,170ZM881,173h3c8.127,6.475,10.694,18.713,17,27,14.718,19.342,36.12,39.848,56,54a262.721,262.721,0,0,0,58,31l32,9q-4.995,18-10,36c-47.1,13.519-120.738-38.285-143-60-8.673-8.46-23.92-17.672-27-31Q874,206,881,173ZM754,191l4,2c-7,71.6-65.517,127.521-106,168-15.6,15.6-32.108,37.408-54,46v2l79,12c21.152,4.913,40.532,16.81,68,12,18.943-3.317,30.391-15.039,47-17,1.256,1.748,2.739,2.911,2,7-1.165,6.45-32.774,91.9-33,92-12.959-32.821-76.289-62.489-114-72l-52-5-83,1v-1c7.617-17.872,54.685-50.48,70-67C637.791,310.822,704.426,256.674,754,191Zm650,11h4c13.02,33.243,49.24,49.8,58,87h-5c-30.93-9.028-89.05,9.263-111,17-82.01,28.906-144.04,70.941-193,132-7.97,9.942-13.89,21.223-23,30l-19-2c-1.64,5.214-3.65,6.773-7,10l-6-2v-4q30.99-68.992,62-138c2.44-2.464,64.49-38.381,67-39,0.33,0.333.67,0.667,1,1q-3.495,17-7,34h1q73.5-42,147-84C1385.99,234.071,1392.17,213.5,1404,202ZM845,305c9.38,2.351,41.444,31.624,54,39,33.589,19.73,71.9,27.583,117,37,21.36,4.461,108.65-4.5,111-3-8.19,72.415-66.92,84.649-134,61v-4c8.52-6.2,27.64-18.336,31-29H958l-65-14c-7.5-2.362-16.246-11.955-26-10-17.2,3.448-33.791,15.051-52,21l-2-1C815.5,374.431,831.91,324.367,845,305Zm587,40h59c8.36,2.88,38.05,47.6,46,57-1.26,3.023.02,1.2-2,3-8.71,2.514-25.22-3.211-34-5-24.92-5.075-60.34-9.4-89-5-26.72,4.105-54.45,3.844-78,11-61.44,18.667-117.04,63.252-144,117,20.49-3.92,28.44-15.324,42-25l63-36c41.87-17.91,101.06-40.727,162-29l75,19q16.005,6.5,32,13c7.75,1.456,10.78-4.454,18-2,6.69,3.3,21.73,30.987,16,36l-45,13q-10.005-5-20-10c-30.32-9.695-98.29-29.377-140-23-95.87,14.655-132.69,32.724-199,73-13.17,8-16.71-13.951-42,5-1.18-3.823-1.65-3.757-4-6,0.13-28.774,20.53-53.309,33-72,42.38-63.542,95.75-98.682,177-124C1378.52,348.6,1411.4,353.022,1432,345Zm574,15q42.99,31,86,62c32.58,19.315,75.46,28.22,115,40l40,9c3.7,1.586,38.86,35.5,40,39q-13.995,4.5-28,9l-21,12-72-21c6.52-8.1,20.41-13.72,24-24h-2l-44-6c-23.2-7.074-47.26-12.08-73-20q-16.005-6.5-32-13c-17.13-4.158-34.68,7.4-50,9-1.33-1-2.67-2-4-3,0.61-19.042,10.05-37.735,15-54Zm-298,33c28.63,0.113,49.45,13.659,79,17v3c-0.33.667-.67,1.333-1,2l-27,16v2c30.07,7.447,64.75,14.414,96,24q32.49,10,65,20c21.04,3.963,37.32-12.125,56-6-1.09,25.95-7.97,85.668-19,104-1.33-1-2.67-2-4-3-6.67-13.558-23.25-23.151-35-32-54.86-41.307-112.62-63.932-197-78l-102,1c-6.22,1.375-14.78,6.588-24,3-5.31-3.048-6.76-9.872-11-14-4.73,1.753-8.14,2.659-13,2-0.33-1-.67-2-1-3-0.33-1.333-.67-2.667-1-4ZM813,414c26.017,1.094,85.634,7.946,104,19l-3,4c-10.235,5.05-17.18,16.308-24,25-45.843,58.42-78.34,123.316-87,220q1,44.5,2,89c1.371,6.309,6.553,14.854,3,24-3.048,5.312-9.872,6.762-14,11,1.753,4.734,2.659,8.139,2,13l-4,2-5-2L749,714q-7.5-17.5-15-35c-1.531-14.583,15.816-53.489,18-76,10.015,3.108,17.441,18.554,21,28h2c8.806-52.511,31.283-105.863,43-156C823.222,452.655,806.454,433.822,813,414Zm163,41,73,10v1q-35.49,28-71,56c-67.382,54-118.913,153.816-91,272l2-1c1.971-7.605,6.726-12.987,9-19q0.5-12.5,1-25,5.5-23.5,11-47c16.431-52.73,43.652-100.565,76-138,21.26-24.6,61.95-48.4,93-62l33-14c4.34-3.3,4-9.895,9-13,9.76-3.895,27.13,5.4,37,8,0.67,1.333,1.33,2.667,2,4-6.7,13.547-19.24,25.37-22,42-28.84,5.042-56.17,25.212-77,40-88.174,62.59-122.787,128.784-153,250-19.656,6.287-18.812,8.52-24,26-2.746-1.443-3.813-1.286-8-2-17.14-23.3-22.621-55.673-29-90C822.261,619.871,907.079,512.342,976,455Zm1012,16c20.6,1.8,87.33,21.108,97,33q-14.505,18.5-29,37c-20.18,30.323-34.57,66.155-43,108-5.54,27.512-10.32,65.282-5,98,1.59,9.759,7.81,32.023,4,38-43.93-4.639-45.31-12.447-63-43q-5.505-7.5-11-15c-4.5-11.706,4.8-33.918,7-43,2.61-10.735.96-25.616,7-33,15.03,5.954,16.73,26.2,32,31v-2c6.39-13.75-3.4-40.165-1-56q7.5-36.5,15-73c2.39-7.587,11.87-16.141,10-26C2004.48,506.4,1987.61,491.473,1988,471ZM537,479c60.076-1.225,131.5,33.064,166,60l38,45c0.218,9.712-17.374,69.23-21,71-18.346-57.286-99.409-121.129-160-138-31.858-8.871-85.382-8.916-111,6-1.171,4.255-2.754,4.881,0,8l66,15c79.576,25.276,125.868,61.974,159,135,17.1,37.688,23.363,49.843,10,92-3.392,10.7-3.212,16.909-12,22l-7-4c-33.645-113.588-78.4-189.241-182-233-20.628-8.713-61.54-.306-79-10v-4l48-40,12-17Zm1137,21c105.39-2.382,179.8,50.975,232,104q14.505,15,29,30c2.13,7.063-9.92,71.83-11,73q-28.5-36-57-72c-29.04-36.157-76.76-71.926-126-87-27.35-8.372-54.02-7.508-87-12-19.51-2.657-40.73,5.9-58,9,0.33,0.667.67,1.333,1,2,92.84,24.416,187.14,43.316,239,108,16.55,20.641,31.38,44.737,45,68,13.77,23.514,13.84,38.842,35,56q-4.5,18.5-9,37c-1.33.667-2.67,1.333-4,2-13.99-6.327-25.09-19.183-42-22-5.03-28.794-25.19-56.208-40-77-62.7-88.035-128.84-122.758-250-153-6.45-19.964-6.69-16.9-26-24,0.67-.667,1.33-1.333,2-2-1.75-17.816,68.91-32.04,90-36Zm-300,20c51.2-1.22,92.48,12.057,132,24,13.66,4.128,38.71,3.366,46,14,8.01,13.059-13.59,42.417-23,47l-36-16q-32.49-11-65-22c-97.96-24.686-176.1,12.712-225,57l-6,1c-0.67-.333-1.33-0.667-2-1-6.92-66.149,73.36-89.385,126-100Zm777,5c19.25-.121,51.46,6.6,66,15v1c-0.33.667-.67,1.333-1,2l-27,17c-18.97,14.465-39.11,35.49-53,55-13.04,18.318-23.26,38.372-32,61q-4.005,14.5-8,29c-11.42-4.256-21.85-6.168-34-8l-3-5c-3.39-11.844,2.44-26.94,5-37C2078.74,597.048,2106.78,553.028,2151,525Zm-987,37,6,1c10.53,8.45,18.95,33.889,15,50-90.73,31.652-166.27,78.616-203,164-6.97,16.2-10.82,35.346-14,55-1.522,9.4.428,20.142-2,27-2.123,1.3-1.447,1.23-5,2-40.694-30.261-21.2-79.525-2-119C1005.27,646.855,1078.93,616.646,1164,562Zm1126,6c18.8-.306,32.78,5.028,49,9,0.33,2,.67,4,1,6-11.59,25.113-97.23,57.808-124,79-15.74,12.459-33.41,33.707-44,51-4.71,7.7-5.27,18.348-13,23-8.3,3.1-25.28-7.094-32-11,1.22-22.361,15.24-41.148,25-56,23.1-35.152,42.5-61.367,83-79ZM417,578c53.2-.948,131.253,42.41,140,82l-2,2c-14.316,2.482-24.894,7.44-37,9-25.521-18.168-42.307-45.8-76-56-26.888-8.143-57.735,13.681-79-4C376.942,593.054,394.889,588.577,417,578Zm916,13c55.15-1.352,102.62,10.385,139,29,11.47,5.872,31.54,11.42,34,26q-7.995,12-16,24h-4c-6.24-8.449-17.8-16.813-31-18v1c0.67,0.667,1.33,1.333,2,2,13.68,27.671,30.8,27.637,17,64-2.74,7.212-2.8,13.272-10,16-6.84-38.165-52.29-100.5-80-119C1371.65,607.754,1341.33,603.061,1333,591Zm238,2c110.74,19.091,165.99,81.334,216,161,8.66,13.795,42.11,58.561,40,74-8.26,10.307-33.98,19.4-50,15-37.47-103.9-103.77-217.883-244-217-2.2-2.965-2.85-2.4-4-7C1539.72,604.944,1553.29,600.669,1571,593Zm792,14c1.67,0.333,3.33.667,5,1-3.63,68.708-42.39,91.56-101,104-16.78,3.56-61.08,7.991-72-4,3.55-7.206,14.89-30.337,22-34,12.81-6.015,57.06-1.558,75-7,26.23-7.956,33.99-23.856,48-44Q2351.505,615,2363,607ZM1440,887c34.19-.586,60.16-13.912,88-18-8.44,23.929-98.67,63.818-131,69q-4.005-3-8-6c-2.91-36.884,19.23-69.059,26-103,13.39-67.133-23.17-134.9-56-161-17.63-14.014-47.9-42.9-80-26,0.67,0.333,1.33.667,2,1,54.05,40.606,82.47,86.1,50,170-7.55,19.515-12.41,40.742-31,49-8.75-4.2-13.38-17.079-14-29,18.39-23.914,41.17-48.055,35-91-0.67-.333-1.33-0.667-2-1-19.55,15.766-24.46,45.475-46,60q-26.49-60.493-53-121c-4.35-10.947-10.71-18.7-11-34,5.21-10.077,11.48-11.253,21-17,47.54-28.692,105.77-14.211,143,13,33.37,24.394,85.27,96.188,71,161q-11.505,37-23,74l3,1c5.9,1.726,10.73-.8,16,2v7ZM375,644c27.6-.293,48.458,13.454,70,21l57,13c21.827,3.965,53.393.968,73-4,9.8-2.484,17.659-8.868,29-7q6,15.5,12,31c-20.645,13.876-85.85,37.967-124,31-50.442-9.212-118.966-30.057-130-79l3-2Zm1151,0c107.03-.553,137.01,133.893,97,227-20.86,48.542-70.92,61.483-114,88v3q5.505,4.5,11,9c-1.88,7.895-5.29,5.889-2,12q21.495,15.5,43,31,14.505,7.5,29,15c-0.33.67-.67,1.33-1,2-36.78-1.49-130.29-27.12-141-49-0.33-1.667-.67-3.333-1-5,14.53-20.776,41.86-26.787,64-40,48.58-29,86.71-69.3,102-131,11.37-45.885-7.63-101.915-39-114v1c30,74.62-30.74,130.2-75,153-13.01,6.7-49.86,29.859-67,14,0.89-10.506,6.99-24.281,15-28l24-1c24.32-4.594,52.14-18.7,62-38-0.33-1-.67-2-1-3-25.85,1.13-42.49,10.774-74,11C1474.81,765.123,1499.73,662.468,1526,644Zm-337,10c2.67,1,5.33,2,8,3,2.5,9.411,8.31,23.115,5,31-13.87,1.256-28.48,2.341-36,10v1c34.39,1.254,48.89,5.646,60,32,2.95,6.991,7.24,11.658,6,19h-1c-22.69-14.564-93.5-35.523-135-28-22.51,4.08-38.59,16-59,20q4.995-6,10-12c15.84-7.483,39.03-32.034,57-43l52-25Zm1189,27,7,1q-2.505,28.5-5,57c-1.21,10.32,6.21,18.961,3,28q-7.995,9.5-16,19c-32.17,42.425-65.63,69.409-118,92-21.03,9.07-103.66,32.428-132,14-9.55-6.206-12.63-24.413-18-35-4.88-9.622-14.24-16.328-17-28,23.39,3.1,46.82,9.032,73,13,74.28,11.259,153-29,182-65,10.78-13.385,29.43-26.19,31-48l-3-6c-47.1,26.7-131.98,88.38-212,72-25.38-5.2-47-14.335-68-23-34.94-14.418-42.17-19.178-59-52-3.8-7.413-9.52-12.677-8-23,1.33-1.333,2.67-2.667,4-4,39.58,4.605,66.53,34.624,102,47,62.32,21.743,164.22,10.648,210-18Q2356.005,701.5,2378,681Zm-730,14c27.79,13.438,65.76,81.505,78,113,4.78,12.292,12.87,35.254,7,47q-14.505,3.5-29,7c-0.67-.667-1.33-1.333-2-2-1.26-13.874-2.34-28.48-10-36h-1c-1.13,34.483-5.64,48.954-32,60-6.95,2.912-11.56,7.6-19,6v-1c15.66-21.5,36.03-100.353,27-141Q1657.505,721.5,1648,695ZM621,733h2c7.357,7.678,12.625,20.8,19,29-1.488,19.607-29.345,28.793-43,37-17.236,10.36-110.995,42.033-141,23-9.026-5.726-13.257-20.81-19-30-5.507-8.813-15.054-15.972-17-28l2-2,31,8C511.063,779.467,598.552,759.837,621,733Zm-270,3,27,14,23,6,36,66c-9.881-.343-28.039-4.212-34,0l29,38c12.743,21.535,25.94,44.155,37,65l14,33,40,28q0.5,2.5,1,5c-26.01,17.63-54.886,31.41-79,50-0.667-.33-1.333-0.67-2-1q-3.5-22.005-7-44-4-27.5-8-55c-8.516-33.43-24.75-64.783-41-92l-36-61q0.5-15,1-30C350.775,750.158,348.966,742.451,351,736Zm386,0h3l9,17c15.738,25.433,15.711,24.724,6,56q-2.5,11.5-5,23l-61,42-3-2c0.235-14.985,6.105-31.808,1-43l-3,1c-26.279,25.774-48.64,50.793-81,71-11.984,7.483-27.535,9.678-40,18-15.718,10.493-12.265,44.618-28,56l-2-1c-10.3-31.57-38.568-53.728-44-90,7.217-3.5,13.316-.122,24-2l56-13C633.157,848.079,708.733,792.248,737,736Zm376,12c68.4,3.851,120.04,19.778,150,62,12.4,17.468,24.24,58.555,39,71h2l9-11c7.89,1.877,5.89,5.291,12,2q14.505-20,29-40,8.505-16,17-32h1v2c8.81,26.5-34.87,133.615-48,140-1.67.333-3.33,0.667-5,1-20.39-14.253-25.95-40.364-39-62-29.87-49.5-68.87-88.355-132-104-45.89-11.372-101.92,7.621-114,39h1c73.17-29.5,127.75,29.59,152,71,4.9,8.373,30.19,60.605,15,70-8.3,2.662-24.98-7.216-28-14q-1.005-14.5-2-29c-4.65-19.641-19.47-52.593-39-57-0.33.333-.67,0.667-1,1,1.13,25.871,10.77,42.642,11,74q-59.49-23-119-46c-10.25-4.421-30.232-8.115-36-17-8.462-13.035,5.213-42.114,10-51,16.57-30.751,43.6-53.047,80-64Zm803,12c19.84,1.625,34.92,16.058,51,23,17.06,7.363,85.45,31.5,93,42q9.495,18.5,19,37l18,27c-0.33.333-.67,0.667-1,1l-34-7v1q42,73.493,84,147c10.58,13.84,32.08,17.06,42,32-1.26,3.02.02,1.2-2,3-12.88,12.81-68.97,55.61-85,58,6.68-109.96-42.8-191.542-91-252-24.55-30.789-60.8-51.745-88-80l3-18a34.009,34.009,0,0,1-11-8C1914.67,764,1915.33,762,1916,760ZM835,789c10.224,2.289,16.7,37.858,19,48-15.421,15.841-19.672,53.2-25,78-18.3,85.18,1.145,177.62,35,235q16.5,26.49,33,53c-7.573,14.22-9.619,21.98,2,35-3.823,1.18-3.757,1.65-6,4-29.6-.27-56.106-21.65-75-35-65.439-46.24-105.964-103.85-125-197-3.257-15.939-12.758-91.309-6-111,2.925-8.523,47.514-37.93,57-46,3.023,1.259,1.2-.018,3,2q-2.5,17-5,34c-5.287,24.8-9.487,61.175-5,90,4.581,29.43,4.865,58.78,13,84,18.59,57.64,63.7,111.28,115,137-3.975-19.07-13.69-26.54-23-39a336.4,336.4,0,0,1-38-66c-17.98-41.97-41-101.636-29-163l16-66,16-40c1.451-7.311-4.4-10.974-2-18C810.141,798.887,826.968,795.473,835,789Zm1004,17c31.44,0.288,59,23.815,79,38,61.8,43.824,101.07,101.077,120,188,3.89,17.85,13.83,97.09,7,117-2.92,8.51-47.52,37.94-57,46-3.02-1.26-1.2.02-3-2-2.51-8.7,3.2-25.12,5-34,5.06-24.94,9.41-60.32,5-89-4.11-26.72-3.84-54.45-11-78-18.93-62.275-63.39-115.731-117-144,3.96,20.69,15.28,28.357,25,42,14.32,20.1,28.4,44.263,38,68,16.68,41.243,38.39,97.8,27,157q-9.495,37.5-19,75-6.495,16.005-13,32c-1.61,7.69,4.45,10.78,2,18-3.29,6.66-30.91,21.83-36,16q-6.495-22.5-13-45c8.97-9.22,10.68-26.19,15-40,27.2-86.95,16.95-179.037-15-253q-21.495-37.5-43-75c11.78-11.2,6.69-22.189-2-33C1836.82,808.822,1836.76,808.353,1839,806Zm543,28c1.33,1,2.67,2,4,3-9.99,111.261.88,233.69,1,345-12.43-4.25-22.93-28.73-28-41-21.74-52.61-25.64-159.345-14-225-22.05,8.24-40.07,28.588-58,42-40.17,30.054-68.44,30.2-83,89-0.67.33-1.33,0.67-2,1h-4q-22.995-45.5-46-91h5c22.71,9.225,55.09-1.989,77-9C2303.74,925.683,2336.01,878.835,2382,834ZM902,836c19.054,1.68,35.442,12.309,45,24q-9,21-18,42c-16.309,39.545-35.7,97.064-25,157,5.731,32.11,13.431,63.24,28,87,8.684,14.16,33.2,30.27,34,49h-3c-38.29,7.33-52.98-19.66-66-42-39.04-67-40.391-154.516-19-239C883.832,890.965,886.4,850.35,902,836Zm868,16c14.64,2.524,31.73,1.971,42,9,12.08,8.264,17.49,24.964,25,38,34.26,59.488,39.63,144.63,20,222-4.45,17.54-14.49,81.71-25,89-11.51,7.28-42.07-12.23-46-21-2.29-13.89,14.71-37.63,20-51,13.66-34.5,31.65-84.43,23-137-6.12-37.2-11.87-70.085-28-97-10.01-16.7-29.14-29.831-36-48,0.33-1,.67-2,1-3Zm-541,98c-0.36-31.324-8.37-64.208-19-87v-1h4c14.31,20.625,80.06,110.708,60,139-36.9,2.91-69.07-19.234-103-26-67.16-13.394-134.89,23.155-161,56-14.027,17.64-43.02,47.75-26,80,0.333-.67.667-1.33,1-2,41.89-55.77,84.59-80.86,170-50,19.52,7.05,40.88,12.72,49,31-4.49,8.52-17.07,13.33-29,14-22.73-17.24-49.14-43.32-91-35-0.33.67-.67,1.33-1,2,15.6,19.63,45.49,24.49,60,46q-60.495,26.49-121,53c-10.97,4.32-18.83,10.71-34,11-10.077-5.21-11.253-11.48-17-21-29-48.05-13.931-105.3,13-143,23.87-33.413,96.59-85.178,161-71q36.99,11.5,74,23c0.33-1,.67-2,1-3,1.4-5.587-.83-10.685,2-16h7ZM345,866c11.755,4.02,20.5,26.1,26,37,24.9,49.319,26.751,163.78,16,229h1c21.291-9.07,39.14-28.6,57-42q20-10.995,40-22c25.093-15.27,31.639-39.39,44-68,4.943,1.14,48.773,81.54,51,91h-5c-21.244-8.59-53.006.82-74,8-51.549,17.62-85.825,43.81-119,79-10.551,11.19-19.59,28.01-33,36-1-.67-2-1.33-3-2C353.2,1099.64,345.1,978.3,345,866Zm1158,232c0.3,34.64,14.88,60.5,18,89-1-.33-2-0.67-3-1-17.17-24.07-69.57-96.14-65-133,1.67-2,3.33-4,5-6,34.56-2.7,66.15,17.58,97,25,68.28,16.43,140.24-21.35,167-55,11.17-14.05,47.68-53.648,25-80v2c-41.74,56.115-88.08,82.27-173,49-14.87-5.827-36.43-11.227-44-24-7.66-12.922,15.86-19.356,27-20,22.4,17.236,49.39,43.606,91,35,0.02-3.789-.56-3.61-3-7-19.7-7.7-44.85-24.2-56-41,39.02-8.958,122.38-70.408,160-62,75.58,99.935-18.11,210.18-107,233-47.6,12.22-94.53-11.02-128-23-0.67,1-1.33,2-2,3-1.73,5.9.8,10.73-2,16h-7ZM984,884c10.178,1.424,20.49,9.789,28,15v4c-7.87,8-16.754,17.648-18,32h1l2-2c26.7-13.016,47.02-41.028,80-9-0.33.667-.67,1.333-1,2-44.12,11.383-94.665,46.491-118,80q-12,25.5-24,51h-1C931.671,988.528,948.612,917.472,984,884ZM628,924h3c-6.65,109.49,42.21,190.62,90,251,24.782,31.31,61.447,52.37,89,81q-1,9.495-2,19c4.928,1.64,6.843,3.81,10,7q-1,3-2,6h-4q-68.493-30.495-137-61c-11.52-9.35-27.06-50.26-40-65,0.333-1.33.667-2.67,1-4q17,3.495,34,7v-1c-14.345-30.67-34.246-56.7-51-85q-16.5-30.99-33-62c-10.012-12.96-30.475-19.149-42-31C548.1,972.937,613.677,935.007,628,924Zm1169,67c5.78,6.3,1.9,39.24,0,49-6.13,31.54-26.61,119.74-53,124l-24-15v-5c8.48-6.26,16.92-17.62,18-31h-1l-2,2c-24.55,11.98-28.23,31.63-61,18-7.79-3.24-13.76-3.61-19-9q26.49-13.005,53-26C1751.73,1070.72,1776.36,1042.28,1797,991Zm489,16c8.71,7.03,12.1,74.38,16,91,14.82,63.1,50.6,105.59,77,156,2.83,5.41,3.12,55.05,1,58q-14.505-7.5-29-15-10.005-2.505-20-5l-36-66c9.76,0.38,27.95,4.36,34,0l-2-2q-13.005-16.995-26-34c-13.12-22.13-26.59-45.5-38-67q-7.005-16.5-14-33c-8.32-11.99-48.54-19.11-37-37C2231.39,1047.87,2275.3,1021.53,2286,1007Zm-1143,10c35.93,2.44,130.79,28.37,141,49,0.33,1.67.67,3.33,1,5-14.61,20.89-41.89,26.56-64,40-47.36,28.79-84.48,66.94-101,126-13.02,46.54,5.19,106.36,38,119-29.69-74.81,28.81-130.17,75-154,15.4-7.94,43.62-26.18,66-16,1.25,10.37-5.39,26.19-14,30q-14.505,1.005-29,2c-19.71,4.67-52.61,19.42-57,39l1,1c25.89-1.13,42.57-10.77,74-11q-22.995,59.49-46,119c-5.4,12.47-8.43,31.68-21,37-23.08,6.27-48.63-11.64-61-21-56.98-43.1-66.6-111.1-41-194,17.65-57.17,71.6-70.45,118-99v-3l-11-8c1.45-9.02,5.17-6.6,2-13q-19.995-14.505-40-29l-30-15c-2.45-2-1.08-.57-1-3v-1Zm1053,56c8.54,5.24,49.05,82.93,45,93-107.1,10.52-206.65,67.51-246,146-1.67-.33-3.33-0.67-5-1q-10.995-19.995-22-40c-1.78-8.48,3.96-17.02,6-23q4.005-16.005,8-32,30.495-21,61-42c0.67,1,1.33,2,2,3,4.97,13.22-7.58,31.19,0,42,15.13-8,24.12-24.48,35-37q22.995-16.5,46-33,23.505-12,47-24C2183.71,1109.17,2184.53,1087.27,2196,1073Zm-665,17c9.88,1.4,23.31,7.12,27,15q0.495,12,1,24c4.18,22.02,19.03,57.3,40,62l1-1c-1.13-25.77-10.77-42.53-11-74q60.495,23.505,121,47c12.24,5.35,29.77,7.63,35,20,7.14,26.33-14.54,52.23-25,66-33.55,44.16-97.09,59.97-166,41-17.4-4.79-33.46-6.78-47-15-26.3-15.98-44.73-45.02-59-73-5.64-11.06-9.03-27.12-18-35l-11,11c-8.23-1.87-5.7-5.16-12-2q-15.495,21.495-31,43-7.5,14.505-15,29c-0.67-.33-1.33-0.67-2-1,1.49-36.72,27.18-130.31,49-141,1.67-.33,3.33-0.67,5-1,20.82,14.57,26.67,41.9,40,64,29.36,48.66,68.95,86.57,131,102,46,11.44,101.91-7.6,114-39-76.21,30.11-130.95-29.94-155-77-8.11-15.87-21.54-36.54-17-61C1527.67,1092.67,1529.33,1091.33,1531,1090Zm-239,71q-31.995,4.995-64,10c-7.76,2.38-17.47,8.69-25,8v-1c25.41-25.56,58.54-41.27,95-56,13.56-5.48,32.63-14.56,44-7,7.33,31.12-17.11,69.37-24,98-16.62,69.06,21.87,141.09,56,168,11.41,9,57.18,46.84,79,24-62.57-19.46-76.99-106.91-51-173,7.26-18.46,12.31-38.15,30-46,8.45,4.6,13.24,17.13,14,29-17.22,22.38-43.59,49.44-35,91,0.67,0.33,1.33.67,2,1,19.55-15.77,24.44-45.46,46-60q11.505,24.99,23,50,15.495,36.99,31,74c3.98,10.02,9.63,16.86,10,31-25.84,50.14-120.16,33.2-158,8-18.66-12.43-30.13-29.65-43-48-48.27-68.81-40.5-108.06-11-190-1-.67-2-1.33-3-2-5.59-1.44-10.93.71-16-2v-7Zm-737-11c20.591-.09,43.107,1.66,60,6q17.5,31.5,35,63l-61-12c-78.343-14.48-163.419,25.63-194,64-11.068,13.89-35.009,30.21-29,54q24.5-15.495,49-31c35.218-21.49,112.358-52.55,169-40,22.2,4.92,41.41,13.54,60,21,37.485,15.05,45.111,20.09,63,55,4.643,9.06,10.356,14.64,4,25h-1c-27.017-3.1-49.326-21.45-69-33-23.678-13.9-93.063-32.88-134-26-38.851,6.53-85.013,12.09-112,32-10.618,7.83-34.422,41-48,38q2-27.99,4-56-1.5-13.005-3-26,14-18,28-36c28.544-38.5,70.509-66,120-83Zm534,7c3.17,2.9,2.45.52,1,5-9.95,30.72-19.32,62.05-26,100-7.27,41.29,14.41,63.12,20,91h-1q-5.505-4.995-11-10l-21-24c-17.18-23.25-59.433-85.37-54-123l2-3c9.66-2.45,20.78-7.21,30-6,3.82,13.22,2.41,28.78,11,37h1C1043.76,1168.28,1052.67,1176.76,1089,1157Zm678,30c6.77,0.78,7.02,2.92,11,6q9,14.505,18,29c6.38,25.82-12.1,58.74-20,77-28.98,66.94-75.95,106.11-135,143-11.22,7.01-67.65,46.1-78,43-11.9-5.91-19.88-34.81-16-50,90.75-31.19,166.39-78.9,203-164C1760.6,1246.36,1757.66,1214.56,1767,1187Zm-821,16c2,0.33,4,.67,6,1,12.725,10.58,18.074,41.23,25,57,15.284,34.8,38.07,73.37,66,96,27.81,22.54,56.41,46.3,95,58,17.06,5.17,49.88,1.79,65,11v4q-15.495,11.505-31,23c-23.71,8.66-56.71-8.86-74-16-70.98-29.3-111.479-76.37-150-138-7-11.19-46.137-67.64-43-78C911.937,1207.77,931.717,1209.24,946,1203Zm901,0c30.1,10.6,50.1,119.23,41,169-14.72,80.46-49.47,128.33-91,180l-41,41q-36.495-4.995-73-10v-1q21.495-16.005,43-32c42.32-33.18,86.76-78.45,109-131,13.42-31.7,13.76-65.47,19-107,2.46-19.52-5.89-40.69-9-58-0.67.33-1.33,0.67-2,1-1.96,7.47-6.74,13-9,19q-0.495,12.495-1,25-4.5,19.995-9,40c-17.04,55.88-43.95,107.53-79,146-22,24.15-59.43,45.33-90,60q-17.505,7.5-35,15c-4.34,3.3-4,9.9-9,13-9.76,3.9-27.13-5.4-37-8-0.67-1.33-1.33-2.67-2-4,6.33-13.99,19.18-25.09,22-42,34.39-5.46,66.46-31.67,90-50,80.55-62.71,111.24-124.76,140-240C1838.2,1225.26,1847.71,1224.21,1847,1203Zm374,20c15.32-.17,38.13-2.95,50,2,10.07,4.2,33.08,44.88,39,56-0.67,1.67-1.33,3.33-2,5q-12-3.495-24-7c-36.22-7.91-85.84-1.66-115,7-23.09,6.86-40.68,22.59-61,29a144.213,144.213,0,0,0-18-29c0.33-2.33.67-4.67,1-7,10.04-19.99,64.93-43.56,91-50Zm-282,4h3c9.73,10.14,10.42,28.67,16,43l39,96c3.14,13.41-15,58.57-17,79h-3c-1-.67-2-1.33-3-2q-7.5-13.005-15-26h-2c-12.29,53.65-34.07,108.26-44,161-3.98,21.14,12.13,37.3,6,56-25.81-.97-86.05-7.95-104-19,1-1.33,2-2.67,3-4,12.22-6.04,20.91-20.52,29-31,42.85-55.54,66.9-114.55,81-201q-0.495-51-1-102c-1.12-5.14-7.6-14.59-4-24q7.5-5.505,15-11c-1.75-4.73-2.66-8.14-2-13C1937,1228.33,1938,1227.67,1939,1227Zm-1111,3c15.51,5.06,25.408,19.02,43,22,5.849,36.84,34.336,69.96,54,95,61.03,77.71,124.41,107.19,236,135,2.1,7.9,2.36,12.63,7,19q9.495,2.505,19,5c-1.44,2.75-1.29,3.81-2,8-21.51,15.84-51.78,21.76-83,28-113.145,22.6-194.252-30.49-255-79-12.8-10.22-42.242-33.81-49-48-2.891-10.4,5.509-66.27,9-74h1q16,21.495,32,43c43.019,55.28,93.737,100.29,173,120,17.84,4.44,48.28,12.52,71,9,18.49-2.87,35.59-7.05,52-10-0.33-.67-0.67-1.33-1-2-7.6-1.97-12.99-6.73-19-9q-12.495-.495-25-1-27-6.495-54-13c-48.734-15.29-93.237-42.89-129-72-26.339-21.44-48.776-63.22-64-95q-7-16.5-14-33c-3.3-4.34-9.895-4-13-9C813.3,1260.07,822.991,1235.55,828,1230Zm1232,23c16.06,6.67,22.3,48.37,28,68,10.78,37.11,31.22,63.85,52,91,23.45,30.63,76.5,68.66,117,81,20.32,6.19,54.15-2.26,71,7v4q-22.995,19.005-46,38c-5.45,5.73-7.99,17.1-16,20l-36,3c-73.96,12.66-149.09-17.71-196-52-17.4-12.72-28.91-32.83-43-49-0.26-9.76,17.46-69.44,21-71,17.83,55.7,99.63,122.43,159,138,33.76,8.86,85.1,9.67,112-6,0.67-2.67,1.33-5.33,2-8-104.53-11.75-190.71-61.24-225-145-15.41-37.63-26.86-50.32-13-94C2050.81,1265.99,2051.16,1259.6,2060,1253ZM719,1263c72.81,5.38,85.049,68.67,62,134h-4c-6.166-8.47-18.425-27.66-29-31-4.945,15.53,3.462,40.26,1,57q-6.5,33.495-13,67c-2.74,9.07-14.035,22.68-12,33,3.752,19.03,19.271,30.8,20,54-18.646-1.6-88.272-21.34-96-32v-3q12-14.505,24-29a314.288,314.288,0,0,0,45-103c6.145-25.93,13.285-60.4,8-93Zm781,35c28.12,13.52,90.02,36.32,136,28,22.62-4.09,38.58-15.65,59-20v1q-4.995,5.505-10,11l-24,21c-22.73,17.19-85.93,59.35-123,54-5.91-4.84-11.22-26.02-8-33,13.71-.72,28.89-2.47,36-10v-1c-34.98-1.13-48.5-5.64-60-32C1503.01,1310.14,1498.33,1305.6,1500,1298Zm-927,13c11.809,0.52,23.284,7.06,32,12-1,22.06-15.355,41.34-25,56-29.977,45.55-45.146,61.7-99,84-13.782,5.71-28.172,15.7-45,18q-21.5-4.995-43-10c-5.012-23.06,30.177-31.37,45-39,42.132-21.69,80.016-42.45,108-78Q559.5,1332.505,573,1311Zm692,2c9.79,6.76,13.87,30.5,20,41l30,45c13.75,18.19,32.78,35.44,55,45q14.505,6,29,12v1c-68.54,1.33-139.5-15.58-173-51,1.42-10.18,9.79-20.49,15-28h4c8,7.87,17.65,16.75,32,18v-1l-3-3C1255.84,1353.11,1239.65,1361.91,1265,1313Zm950,6c55.47-1.24,155,34.61,154,81-1,.67-2,1.33-3,2-41.29,4.65-91.56-24.02-136-32-21.76-3.91-53.38-.98-73,4-9.78,2.48-17.56,8.88-29,7-4.89-8.99-14.12-24.98-9-34q19.5-7.995,39-16ZM479,1333c19.758-.29,40.463.01,56,4l2,3c-3.522,7.14-14.975,30.33-22,34-9.246,4.45-21.624-.9-34,1q-23.5,4.005-47,8c-25.322,10.28-50.225,59.69-70,57,3.6-63.8,36.5-86.75,87-102Q465,1335.5,479,1333Zm156,10q18.5,4.995,37,10c13.383,46.69-38.317,120.98-60,143-8.51,8.64-17.652,23.92-31,27q-33-7.005-66-14v-4q14-8.505,28-17C591.9,1450.59,613.429,1408.75,635,1343Zm1574,34c16.33,1.59,20.02,16.01,30,24,15.97,12.79,31.89,26.56,54,33,28.72,8.37,51.41-12.24,76,3-44.32,59.14-136.57,23.93-172-20-7.58-9.4-18.95-14.91-22-29l2-2C2189.16,1384.18,2201.6,1383.47,2209,1377Zm-675,46c4.55,4.56,3.52,10.97,2,19-6.57,34.61-20.19,39.88-46,54-70.68,38.68-168.04,37.3-251,12-17.16-5.24-52.95-6.3-61-21,1.85-18.44,12.54-34.63,24-44,31.1,6.1,66.78,29.12,102,38,98.09,24.72,176.04-12.66,225-57C1530.67,1423.67,1532.33,1423.33,1534,1423Zm-760,50q23.5,21,47,42c37.081,26.52,82.768,48.53,132,62,40.96,11.21,86.33,2.42,127,9,21.08,3.41,40.38-10.49,57-4,5.36,3.11,6.48,10.01,11,14,5.7-2.55,10.66-4.21,14,1,0.87,3.15.3,3.18-1,6-57.52,12.16-112.97,61.72-170,44-9.867-3.07-40.937-3.84-46-12q14-9.495,28-19v-1c-52.511-8.8-105.9-31.28-156-43-22.521-5.27-41.144,11.56-61,5C757.474,1542.98,768.251,1502.71,774,1473Zm805,18c19.28,26.3-40.9,92.12-53,109-41.88,58.41-110.14,86.13-197,100-12.95,2.07-73.84,7.89-88,3-8.64-2.98-37.9-47.45-46-57,1.26-3.02-.02-1.2,2-3q16.995,2.505,34,5c24.98,5.13,61.03,9.51,90,5,26.45-4.12,53.72-3.91,77-11,62.38-19.01,115.68-63.27,144-117-20.46,4.27-28.35,15.25-42,25l-63,36c-41.76,17.85-101.9,41.31-163,29q-34.5-8.505-69-17-19.005-7.5-38-15c-6.72-.98-10.26,4.3-17,2-7.34-3.99-17.59-24.71-19-34,1-.67,2-1.33,3-2q22.5-6.495,45-13c15.87,15.45,53.14,19.66,78,25,84.12,18.07,176.01-.64,233-34q27.495-16.995,55-34C1556.96,1499.46,1568.88,1504.92,1579,1491ZM494,1517l71,21c-5.206,10.02-19.122,13.1-23,24,0.333,0.33.667,0.67,1,1,43.079,0,89.733,16.87,127,28q13,5.505,26,11c17.467,1.96,36.183-14.34,51-7-0.086,3.18-21.59,92.44-22,93-38.683-28.25-74.142-60.1-122-79-59.961-23.68-120.976-21.07-158-69l1-3C464.123,1534.17,481.08,1525.81,494,1517Zm1474,16c7.88,4.1,8.3,14.8,15,20,31.3,24.3,67.91,44.98,114,54,19.82,3.88,116.54-2.08,123,4l-46,43q-67.995,68.49-136,137c-10.69,13.24-48.81,61.32-63,66l-1-1c5.37-86.97,107.05-170.92,160-216v-1q-42-6.495-84-13c-14.88-3.67-30.91-14.43-50-12l-34,6c-9.21,3.62-17.25,11.91-27,12-0.33-2-.67-4-1-6C1949.66,1596.22,1956.55,1564.79,1968,1533Zm-344,39c2,0.67,4,1.33,6,2v4q-30.99,69-62,138c-2.35,2.38-64.57,38.4-67,39l-1-1q3.495-16.995,7-34h-1l-147,84c-13.84,10.58-16.48,32.83-32,42-3.02-1.26-1.2.02-3-2-23.67-23.3-41.43-54.77-59-84l1-1c109.48,6.65,190.6-42.23,251-90,31.29-24.75,52.39-61.46,81-89q9.495,1.005,19,2C1618.64,1576.79,1620.65,1575.23,1624,1572Zm-865,24c8.15,0.3,97.483,31.83,98,33-32.927,12.97-62.449,76.21-72,114q-2.5,25.5-5,51,0.5,42,1,84c-10.319-3-62.646-62.5-72-74q-87.991-84.495-176-169,0.5-1.5,1-3h1c67.647,6.6,154.769,83.46,189,126q13,16.995,26,34h1c0.333-.67.667-1.33,1-2q5.5-38.49,11-77,6.5-24.495,13-49C779.759,1636.76,755.38,1607.92,759,1596Zm904,0c24.97-.3,54.77,5.53,76,13v4c-8.47,6.17-27.66,18.42-31,29,15.46,4.89,40.25-3.53,57-1q33.495,6.495,67,13c9.03,2.73,22.63,14.04,33,12,19.03-3.75,30.8-19.27,54-20-1.81,20.76-20.99,87.23-33,97-9.65-3.73-14.14-13.39-22-19-19.72-14.09-44.28-29.15-68-38-57.33-21.38-120.8-21.53-190-14l-1-1c1.08-12.67,7.2-44.69,16-51C1634.02,1610.66,1653.03,1608.26,1663,1596Zm-544,30c53.49,1.8,77.75,38.89,97,75-0.67,1-1.33,2-2,3-12.88-.29-34.57-7.11-43-1,6.96,13.18,22.14,24.42,34,33,14.27,10.31,26.59,32.95,36,48q12,23.505,24,47c15.79,10.69,40.29,9.46,52,24-0.33.67-.67,1.33-1,2-19.3,6.45-73.73,49.34-92,42-7.23-72.94-27.71-118.15-61-165-7.9-11.11-14.7-24.38-25-33-19.14-16.01-42.25-31.3-60-49v-3Q1098.505,1637.5,1119,1626Zm818,17c3.09,0.08,92.5,21.63,93,22-37.86,51.91-71.53,95.38-93,166q-9.495,37.995-19,76-12,11.505-24,23c-4.51,5.69-6.22,12.46-14,15q-4.5-13.995-9-28l-12-21q10.005-36,20-72c1,0.33,2,.67,3,1,4.62,6.95,13.57,20.26,22,23v-2q3-22.005,6-44c8.04-26.69,14.15-57.71,24-86q4.5-9.495,9-19c4.13-17.1-7.4-34.62-9-50C1935,1645.67,1936,1644.33,1937,1643Zm-1011,6c24.91-.14,47.4,12.08,71,18v3c-55.6,17.88-122.478,99.66-138,159-8.847,33.82-9.6,85.14,6,112,2.666,0.67,5.334,1.33,8,2,11.436-100.42,59.986-190.8,140-224,14.73-6.11,56.38-27.57,76-23q13.005,4.995,26,10c11.04,3.51,17.38,3.16,22,13-13.18,20.95-55.64,21.93-81,31-35.01,12.53-62.185,35.73-89,57-25.612,20.32-61.128,76.86-71,112-5.668,20.17,2.858,50.86-6,67h-4q-19-22.995-38-46c-5.817-5.25-17.138-8.09-20-16l-3-36c-13.033-76.18,19.5-154.3,56-201Q903.5,1668,926,1649Zm761,26q4.995,1.995,10,4v1c-3.11,26.27-20.72,47.98-32,67-14.53,24.5-34.18,94.24-27,137,6.47,38.48,12.29,84.26,32,111,7.81,10.6,40.98,34.53,38,48q-27.99-1.995-56-4l-26,3c-9.09-1.75-15.43-12.13-22-17-42.67-31.64-69.59-65.83-92-118-9.05-21.06-32.48-103.6-14-132,6.25-9.6,24.65-12.28,35-18,9.34-5.17,16.48-14.28,28-17v3c-34.61,90.07-1.75,209.07,52,252,14.03,11.21,30.05,34.78,54,29v-1c-47.51-84.35-100.98-153.19-52-272,7.81-18.95,13.45-36.11,25-51C1649.1,1688.27,1673.67,1682.31,1687,1675Zm12,41c55.02-.94,156.96,55.25,166,93,2.99,12.47-5.57,27.31-8,37l-6,27c-1.96,2.07-.37,1.04-4,2h-1c-23.04-43.53-59.08-75.47-101-100-13.69-8.01-50.08-13.19-60-21q4.995-18,10-36C1696.33,1717.33,1697.67,1716.67,1699,1716Zm-596,32c3,0.33,6,.67,9,1,32.89,31.99,54.98,82.88,55,147q-1.005,16.5-2,33c-4.23,10.14-44.84,33.02-56,39-1.67-.67-3.33-1.33-5-2v-1c14.87-82.58,8.82-140-29-197,0.33-1,.67-2,1-3C1086.26,1761.99,1097.34,1755.91,1103,1748Zm-68,26c2.67,1,5.33,2,8,3,9.59,29,22.02,60.67,28,96,5.46,32.23-25.68,113.66-38,130-6.17,8.19-30.36,22.59-41,25-0.667-.33-1.333-0.67-2-1-10.851-31.38,10.83-62.47,19-89l12-60c5.4-32.6-15.23-72.47-12-92Q1022,1780,1035,1774Zm630,11c18.77,0.93,35.12,12.12,48,20,49.81,30.49,67.86,47.23,92,104q8.505,19.5,17,39c3.66,15.95-5.78,35.31-9,49-21.83,4.78-26.32-22.4-34-36-22.72-40.23-40.17-82.08-75-110-7.9-6.34-47.13-29.21-50-34C1650.9,1808.7,1661.09,1791.72,1665,1785Zm-236,25h4v5c-9.23,22.71,1.99,55.09,9,77,22.36,69.87,69.11,101.95,114,148-0.33,1-.67,2-1,3q-57.99-1.005-116-2-115.485,1.995-231,4c4.09-11.96,25.9-20.41,37-26,49.37-24.88,163.74-26.76,229-16-9.92-26.15-34.68-45.2-49-68-9.05-14.41-14.24-34.32-27-45-6.14-5.14-55.5-31.25-56-33C1364.78,1834.92,1407.2,1833.02,1429,1810Zm-430,23c1.67,0.67,3.33,1.33,5,2,2.47,14.26,7.43,25.03,9,37-18.253,25.57-45.759,42.12-56,76-8.293,27.44,13.23,57.25-4,79C874.624,1968.12,952.457,1868.92,999,1833Zm683,20c7.1,3.5,30.35,15.03,34,22,4.32,9.15-.91,21.59,1,34q4.005,23.505,8,47c9.24,22.71,23.19,28.92,42,42q7.995,12,16,24c-0.33,1.33-.67,2.67-1,4-68.77-3.61-91.57-42.35-104-101C1674.11,1906.64,1670.83,1865.96,1682,1853Zm-354,13c5.77,0.61,5.63,1.62,9,4,5.7,27.17,30.66,55.3,46,75-0.33.67-.67,1.33-1,2q-25.5,4.005-51,8-29.49,4.995-59,10c-41.38,13.4-76.43,36.45-111,57q-13.5,7.995-27,16c-8.17,2.97-54.3,1.29-56,0q7.005-13.005,14-26,3-11.505,6-23l66-36c-0.38,9.76-4.36,27.95,0,34l38-29c21.28-12.5,44.2-26.81,65-37q16.5-7.005,33-14Q1314,1886.5,1328,1866Z"/>
</svg>
