<?xml version="1.0" encoding="UTF-8"?>
<svg id="Layer_0_xA0_Image" xmlns="http://www.w3.org/2000/svg" version="1.1" viewBox="0 0 2732 2048">
  <!-- Generator: Adobe Illustrator 30.2.1, SVG Export Plug-In . SVG Version: 2.1.1 Build 1)  -->
  <defs>
    <style>
      .st0 {
        fill: #96967b;
      }
    </style>
  </defs>
  <path class="st0" d="M1012.89,1644.58c-22.63,21.39-44.84,42.39-68.06,64.34-25.68-25.22-50.74-49.82-76-74.62,41.12-42.85,81.41-84.82,122.56-127.69,50.44,52.2,100.27,103.76,150.1,155.33.62-.32,1.24-.64,1.86-.96-.45-8.47-1.74-17-1.16-25.4,1.2-17.27-5.56-29.56-18.05-41.66-48.59-47.06-96.05-95.3-143.92-143.11-2.78-2.78-5.44-5.69-8.18-8.57,14.56-17.84,28.49-35.2,42.91-52.15,1.57-1.85,6.01-2.16,8.95-1.8,15.53,1.92,30.95,5.12,46.52,6.26,14.14,1.04,25,6.99,35.24,16.19,13.62,12.24,29.38,22.34,41.79,35.64,12.4,13.28,21.8,29.37,32.51,44.22,10.53,14.59,20.87,29.32,31.69,43.7,4.01,5.33,5.8,10.64,5.73,17.37-.35,32.66-.22,65.32-.26,97.98,0,3.56,0,7.13,0,11.53h73.63v-23.48c-4.52-.37-9.04-.91-13.58-1.08-11.32-.42-22.66-.56-33.98-1.02-8.15-.33-10.06-1.96-10.35-10.12-.67-18.98-1.67-38-1.17-56.97.49-18.68-4.06-34.76-15.45-50.01-13.93-18.65-25.61-38.97-38.7-58.26-4.4-6.49-6.79-12.86-4.64-20.52,2.6-9.22,0-16.15-7.06-23-12.89-12.52-24.84-26.04-36.87-39.42-3.67-4.08-7.51-5.68-12.97-5.65-31.33.16-62.66,0-93.98-.09-3.57-.01-7.14-.3-11.9-.51,1.23-35.01,2.43-69.12,3.65-103.92,3.84-.3,6.74-.72,9.64-.72,49.66.04,99.32.25,148.97.04,5.21-.02,7.9,2.57,10.89,5.68,20.12,20.88,40.27,41.73,60.33,62.66,2.29,2.4,4.07,5.29,6.46,8.45,29.41-24.83,57.38-48.44,86.14-72.71-1.48-26.79-3.03-54-4.41-81.21-.11-2.17.37-4.66,1.41-6.54,13.78-24.74,27.69-49.4,41.62-74.05.6-1.06,1.68-1.85,3.55-3.85.8,3.17,1.71,5.15,1.74,7.15.86,59.32,1.61,118.63,2.47,177.95.07,4.98-.97,8.89-5.24,12.13-43.58,32.98-87.05,66.09-130.57,99.15-.77.58-1.76.88-3.71,1.83-2.28-2.27-4.9-4.62-7.23-7.23-25.07-28.1-50.2-56.15-75.02-84.48-4.54-5.18-9.26-7.44-16.17-7.68-26.64-.92-53.25-2.49-79.88-3.76-3.62-.17-7.26-.02-11.91-.02v37.3c4,0,8.51.1,13.02-.02,21.32-.53,42.65-1.01,63.96-1.79,5.07-.19,8.76,1.21,12.32,4.92,21.69,22.6,43.5,45.09,65.52,67.37,4.07,4.11,5.39,8.03,3.33,13.33-2.76,7.1-1.1,13.02,3.36,19.36,15.7,22.36,30.52,45.33,46.17,67.72,5.18,7.41,7.75,14.73,7.58,23.92-.45,23.98.08,47.99.21,71.98.02,3.29,0,6.57,0,10.91,11.54.93,22.37,1.83,33.21,2.65,4.32.33,8.67.31,12.98.71,6.91.65,8.19,1.84,8.12,8.6-.18,17-.69,33.99-.91,50.98-.06,4.87-1.79,7.51-7.02,7.38-41.31-1.09-82.62-2.12-123.92-3.22-.94-.03-1.87-.56-3.9-1.21-.2-2.87-.68-6.06-.6-9.24.83-33.98,1.61-67.97,2.79-101.94.21-6.03-1.09-10.86-4.6-15.74-17.69-24.63-35.05-49.49-52.7-74.14-2.46-3.43-5.72-6.41-8.99-9.12-13.87-11.47-27.95-22.67-41.79-34.17-4.26-3.54-8.79-5.65-14.31-6.34-12.19-1.53-24.32-3.46-36.78-5.28-3.81,5.07-7.36,9.8-11.2,14.91,1.94,2.42,3.41,4.56,5.18,6.42,47.73,50.27,95.41,100.59,143.35,150.65,4.31,4.5,6.17,8.91,6.11,14.93-.12,12.33.04,24.67.5,36.99.78,21.3,1.83,42.59,2.88,63.88.18,3.73.96,7.44-4.9,10.01-18.95-18.63-37.82-38.19-56.89-57.53-19.42-19.7-38.56-39.68-58.25-59.11-19.43-19.16-39.41-37.78-59.88-57.33-24.42,26.04-50.09,53.43-75.39,80.42,8.3,7.89,16.15,15.35,24.99,23.75,20.2-20.48,42.02-42.61,63.9-64.79,47.78,46.57,94.87,92.28,141.66,138.3,6.27,6.16,12.63,9.42,21.58,10.32,40.09,4.05,80.1,8.94,120.14,13.53,9.4,1.08,10.11,1.96,8.92,11.2-3.54,27.42-7.08,54.83-10.69,82.24-.24,1.86-1.01,3.66-1.95,6.95-7.19-5.74-10.31-13.14-14.87-19.3-4.73-6.38-9.09-13.04-14.03-20.19-9.51,5.26-18.45,10.28-27.47,15.15-8.91,4.81-17.36,10.58-26.96,14.42-3.03-5.66.78-7.84,3.02-10.3,13.9-15.28,27.94-30.45,41.9-45.68,2.2-2.4,4.21-4.97,7.35-8.71-12.73-2.14-24.08-4.13-35.45-5.94-29.59-4.7-59.22-9.19-88.76-14.17-3.22-.54-6.36-3.29-8.92-5.68-34.82-32.54-69.53-65.21-104.27-97.83-2.64-2.48-5.37-4.87-8.6-7.8Z"/>
  <path class="st0" d="M1492.28,645.87c2.5,2.68,5,5.28,7.4,7.97,25.27,28.38,50.57,56.72,75.73,85.21,3.28,3.71,6.66,6.06,11.81,6.28,29.96,1.31,59.92,2.84,89.88,4.26,1.27.06,2.55-.26,4.78-.51.54-12.01,1.06-23.83,1.66-37.16-4.26,0-7.76-.08-11.26.01-21.99.6-43.98,1.1-65.96,1.98-5.79.23-9.96-1.38-14.02-5.63-21.18-22.17-42.53-44.19-64.14-65.94-4.51-4.54-6.73-8.77-4.1-14.83,2.98-6.86.88-12.42-3.26-18.39-16.71-24.1-32.86-48.58-49.43-72.77-2.98-4.34-4.26-8.61-4.27-13.88-.05-26-.46-51.99-.78-77.99-.04-3.26-.31-6.52-.51-10.46-10.15-.74-19.71-1.42-29.28-2.14-5.98-.45-11.95-1-17.94-1.44-3.83-.28-6.52-1.86-6.42-6.04.44-19.6.99-39.19,1.48-58.45,8.16-2.41,123.9-.27,134.32,2.42.14,3.19.48,6.73.4,10.25-.75,33.32-1.44,66.65-2.48,99.96-.21,6.66,1.26,12.09,5.21,17.57,17.37,24.04,34.29,48.41,51.57,72.51,2.65,3.7,6.11,6.96,9.63,9.89,13.85,11.49,27.94,22.7,41.8,34.18,3.97,3.29,8.1,5.34,13.35,5.99,12.51,1.56,24.95,3.7,37.52,5.63,3.94-5.27,7.5-10.03,11.38-15.22-2.1-2.45-3.92-4.77-5.93-6.89-47.97-50.51-95.91-101.06-144.09-151.37-3.7-3.86-4.43-7.67-4.53-12.43-.59-27.32-1.25-54.64-2.07-81.95-.21-6.98-1.36-13.94-1.55-20.92-.08-2.9,1.25-5.84,2.53-11.25,16.7,15.79,30.72,30.74,45.14,45.27,14.55,14.67,28.99,29.46,43.48,44.19,14.26,14.5,28.34,29.17,42.81,43.45,14.69,14.49,29.75,28.6,45.52,43.72,24.83-26.49,50.47-53.85,76.94-82.09-7.98-8.17-15.73-16.09-24.13-24.69-22.26,22.64-43.88,44.62-65.97,67.09-5.49-5.49-10.09-10.21-14.81-14.82-42.96-41.88-86.01-83.68-128.81-125.72-4.8-4.72-9.85-7.33-16.44-8.05-31.46-3.42-62.9-7.03-94.35-10.6-9.6-1.09-19.21-2.13-28.78-3.42-9.96-1.35-10.34-1.85-9.02-12.14,2.21-17.18,4.62-34.33,6.9-51.5,1.27-9.58,2.38-19.18,3.71-28.74.3-2.15,1.22-4.21,2.13-7.23,7.43,5.43,10.52,12.92,15.1,19.15,4.52,6.15,8.7,12.56,13.66,19.76,18.12-9.99,35.98-19.83,53.39-29.43,4.15,3.18,2.47,5.41.62,7.45-6.04,6.67-12.15,13.28-18.23,19.91-9.02,9.82-18.08,19.6-27.06,29.46-1.93,2.12-3.62,4.46-6.28,7.77,13.31,2.27,25.3,4.42,37.33,6.33,28.61,4.55,57.27,8.84,85.83,13.66,3.52.59,7.08,3.27,9.82,5.83,34.85,32.52,69.55,65.2,104.3,97.82,2.62,2.46,5.36,4.79,8.6,7.67,22.59-21.35,44.77-42.31,67.94-64.2,25.97,25.22,50.96,49.88,76.02,74.59-41.02,42.74-81.32,84.73-122.51,127.66-50.34-52.08-100.01-103.49-150.85-156.09-.4,3.55-.92,5.63-.82,7.68.64,12.98,1.22,25.97,2.32,38.92.25,3.01,1.85,6.37,3.86,8.66,4.82,5.5,10.25,10.47,15.44,15.65,47.18,47.1,94.36,94.19,141.54,141.3,2.56,2.56,5.03,5.21,8.01,8.3-15.18,18.32-29.99,36.19-45.44,54.83-15.11-2.11-30.82-5.37-46.66-6.25-18.7-1.04-32.57-9.7-46.8-21.04-25.27-20.13-47.35-42.55-64.95-69.73-11.4-17.6-24.29-34.25-36.79-51.11-3.37-4.54-4.72-9.09-4.69-14.71.22-33,.14-66,.16-99,0-3.59,0-7.18,0-11.8h-73.36v23.44c14.1.68,27.98,1.45,41.88,2,15.41.61,15.37.52,15.77,15.78.61,23.32,1.43,46.64,1.82,69.97.1,5.92,1.53,10.86,4.83,15.81,15.53,23.29,30.38,47.04,46.26,70.07,6.1,8.84,9.08,17.62,6.51,27.91-1.73,6.91.34,11.74,5.28,16.77,13.07,13.31,25.72,27.06,38.17,40.97,4.34,4.84,8.81,6.99,15.48,6.93,30.66-.3,61.33-.04,91.99.01,3.58,0,7.16,0,12.16,0-1.15,35.22-2.25,69.29-3.39,104.1-4.27.21-7.51.52-10.74.51-49-.02-98-.19-146.99,0-5.28.02-8.64-1.9-12.04-5.45-20.03-20.97-40.19-41.82-60.33-62.68-2.26-2.35-4.7-4.53-7.62-7.32-28.39,23.98-56.33,47.57-84.29,71.19.9,25.39.79,50.45,3.2,75.27.84,8.65-1.57,14.61-5.24,21.15-11.4,20.34-22.84,40.67-34.32,60.97-1.56,2.76-3.4,5.36-5.1,8.04-.69-.12-1.37-.24-2.06-.36-.42-2.72-1.17-5.44-1.21-8.17-.84-58.66-1.57-117.31-2.44-175.97-.08-5.07,1.3-8.86,5.49-12.03,44.13-33.36,88.17-66.83,132.25-100.26.25-.19.62-.23,2.42-.86Z"/>
  <path class="st0" d="M1375.89,1664.53c-4.73,37.81-9.38,74.99-14.12,112.88,11.74,1.91,22.41,3.64,33.98,5.52,4.77-31.54,9.37-61.96,14-92.59,62.67,9.15,123.92,18,185.14,27.06,22.88,3.39,22.85,3.61,43.1-7.83,31.03-17.55,62.06-35.11,93.08-52.66,2.03-1.15,4.11-2.21,6.11-3.41,4.3-2.59,7.54-1.8,9.73,2.84.71,1.5,1.61,2.92,2.4,4.38,12.25,22.54,24.51,45.08,36.73,67.63,1.5,2.77,2.81,5.63,3.45,9.37-15.79-2.58-29.77-9.6-45.92-14.08-8.58,18.44-17.18,36.92-25.65,55.15-5.74-1.12-5.02-4.22-4.68-7.23,1.93-16.88,3.84-33.76,5.75-50.64.85-7.56,1.68-15.13,2.63-23.73-2.93.97-5.09,1.39-6.98,2.35-34.79,17.57-69.5,35.3-104.38,52.68-3.26,1.62-7.66,1.95-11.37,1.51-28.44-3.38-56.85-7.12-85.27-10.71-22.43-2.84-44.86-5.62-68.44-8.58-5.77,30.46-11.44,60.4-17.05,90.05-7.75,1.5-91.06-10.06-105.54-14.47,7.9-57.48,15.81-115.06,23.93-174.12,36.07,5.53,71.2,12.38,106.45,18.4,35.33,6.03,70.59,12.43,105.89,18.66.38-.65.76-1.3,1.14-1.95-2.61-3.29-5.18-6.61-7.83-9.86-6.32-7.75-12.85-15.33-18.93-23.26-3.06-3.99-6.58-5.98-11.56-6.73-27.99-4.23-55.94-8.76-83.9-13.17-47.05-7.42-94.09-14.83-141.13-22.28-.94-.15-1.82-.69-3.57-1.37,1.39-22.96,2.79-46.06,4.23-69.97,2.02-1.22,4.47-2.86,7.07-4.24,16.78-8.9,33.64-17.63,50.34-26.67,4.55-2.46,8.95-3.78,14.21-3.4,21.93,1.58,43.89,2.83,65.84,4.26,1.96.13,3.96.51,5.83,1.13,34.47,11.38,68.89,22.92,103.42,34.11,4.84,1.57,7.85,4.35,10.67,8.27,19.66,27.32,39.48,54.53,59.26,81.76,1.92,2.64,4,5.16,6.43,8.29,20.26-14.39,39.98-28.39,60.24-42.78-5.03-6.88-9.51-12.99-14.61-19.97-9.58,6.39-18.63,12.44-27.69,18.48-4.71,3.15-9.47,6.23-14.11,9.47-4.42,3.08-8.07,2.21-11.27-1.81-1.25-1.56-2.45-3.16-3.67-4.74-14.43-18.75-28.97-37.42-43.22-56.32-3.74-4.96-8.02-8.38-13.94-10.57-27.48-10.18-54.74-20.95-82.26-31.05-6.99-2.57-12.77-5.83-15.22-13.02-3.59-10.51-11.34-14.05-21.73-15.6-16.45-2.47-32.75-6.02-49.01-9.58-6.69-1.47-11.91-.35-17.52,3.81-25.45,18.83-51.22,37.23-76.89,55.75-2.11,1.52-4.39,2.8-7.52,4.78-19.4-28.68-38.54-57-58.17-86.04,3.21-2.55,5.94-4.88,8.84-6.98,39.66-28.75,79.41-57.39,118.93-86.34,4.05-2.97,7.52-3.2,12-2.39,30.47,5.57,60.97,10.96,91.46,16.38,1.27.23,2.59.18,4.53.3.87-2.5,1.91-4.88,2.52-7.35,7.59-30.71,14.99-61.47,22.78-92.13,1.36-5.36.84-9.17-2.78-13.62-13.46-16.54-25.6-34.23-39.86-50.02-7.53-8.34-10.16-16.93-11.2-27.35-2.42-24.19-5.51-48.31-8.29-72.47-.07-.6.34-1.25.63-2.24,4.66-.71,5.88,3.45,7.83,6.05,20.45,27.16,40.76,54.41,61.13,81.63,14.37,19.21,28.67,38.49,43.21,57.57,3.53,4.64,4.57,8.86,2.79,14.7-15.65,51.28-30.98,102.66-46.42,154-.47,1.58-1.23,3.07-2.15,5.34-2.5-.27-5.08-.32-7.55-.86-38.73-8.38-77.46-16.77-116.15-25.35-4.16-.92-7.5-.94-11.25,1.55-25.55,16.94-51.25,33.66-76.89,50.46-.82.54-1.54,1.22-3.32,2.63,7.02,10.24,13.86,20.22,21.08,30.76,3.42-2.39,6.15-4.16,8.72-6.13,17.45-13.39,34.99-26.68,52.21-40.36,4.89-3.88,9.56-4.98,15.63-3.89,29.82,5.39,59.68,10.58,89.58,15.5,6.6,1.09,11.12,3.5,12.65,10.37,1.54,6.92,6.45,9.88,12.97,12.16,27.67,9.66,55.11,19.97,82.72,29.8,5.27,1.87,9.09,4.78,12.37,9.31,15.05,20.78,30.39,41.36,45.64,61.99,1.96,2.65,4.04,5.21,6.73,8.66,10.61-6.65,20.97-13.1,31.29-19.63,16.38-10.36,14.4-9.82,24.4,4.74,7.16,10.44,14.38,20.85,21.52,31.31,1.84,2.7,3.5,5.52,5.11,8.07-5.01,6.2-97.28,70.8-109.92,76.99-2.03-2.55-4.4-5.19-6.4-8.08-19.32-27.97-38.66-55.92-57.76-84.04-3.18-4.68-6.97-7.58-12.3-9.34-26.24-8.69-52.41-17.58-78.57-26.52-7.88-2.69-15.71-4.79-24.2-5.02-16.98-.46-33.94-1.83-50.92-2.62-3.24-.15-6.93-.24-9.71,1.1-12.57,6.07-24.88,12.67-37.41,19.14v19.18c3.05.76,6.13,1.72,9.29,2.3,68.77,12.7,137.56,25.32,206.3,38.19,2.86.53,5.94,2.81,7.8,5.16,7.86,9.92,15.13,20.32,22.94,30.28,12.95,16.51,26.15,32.83,39.25,49.22.83,1.04,2.03,1.9,2.54,3.06,1.12,2.55,1.91,5.25,2.83,7.89-2.67.6-5.47,2.05-7.99,1.67-16.46-2.49-32.87-5.38-49.29-8.13-61.09-10.26-122.18-20.51-183.28-30.75-.97-.16-1.98-.02-4.48-.02Z"/>
  <path class="st0" d="M715.51,1078.62c7.38,23.56,14.52,46.33,22.01,70.23,7.8-2.43,14.94-4.66,22.73-7.09-.48-3.05-.64-5.62-1.32-8.06-3.56-12.83-7.32-25.61-10.86-38.45-2.37-8.58-1.57-10.17,7.04-13.26,22.56-8.11,45.1-16.29,67.81-23.99,7.55-2.56,13.34-6.48,18.31-12.84,17.64-22.58,35.96-44.64,53.64-67.19,4.41-5.63,9.25-9.55,16.39-9.87,10.74-.49,17.01-5.89,21.72-15.62,7.54-15.57,16.4-30.51,25.18-45.44,2.99-5.09,3.27-9.55,1.47-15-9.7-29.41-19.13-58.9-28.65-88.37-1.11-3.44-2.16-6.91-3.67-11.78,33.38-9.64,66.13-19.09,99.69-28.78,1.28,2.75,2.6,4.95,3.37,7.33,15.52,47.83,30.86,95.71,46.6,143.46,1.62,4.92.12,8.31-1.93,12.13-13.5,25.26-27,50.53-40.49,75.81-1.56,2.93-3.04,5.91-4.91,9.55,2.04,1.59,3.92,3.36,6.06,4.69,27.16,16.9,54.42,33.63,81.47,50.69,4.41,2.78,7.98,3.2,12.88,1.33,20.23-7.7,40.64-14.9,60.96-22.36,2.78-1.02,5.36-2.61,8.13-3.66,2.04-.77,4.41-1.88,6.36-1.49,28.42,5.6,56.79,11.43,85.17,17.24.89.18,1.68.84,2.92,1.49-1.96,4.51-6.37,4.65-9.85,5.84-41.89,14.36-83.83,28.59-125.76,42.85-12.61,4.29-25.27,8.45-37.81,12.94-5.11,1.83-9.47,1.67-14.09-1.55-44.55-31.06-89.2-61.99-133.83-92.95-1.09-.76-2.32-1.33-4-2.28,2.47-4.62,4.2-8.11,6.16-11.47,19-32.5,37.98-65.01,57.14-97.41,2.7-4.56,3.77-8.69,2.26-14.05-7.85-27.88-15.33-55.87-22.97-83.81-.6-2.18-1.5-4.27-2.53-7.15-11.8,3.45-23.19,6.78-35.27,10.3.72,2.99,1.11,5.52,1.95,7.89,7.64,21.67,15.21,43.37,23.17,64.92,2.02,5.46,1.82,9.91-.96,15.09-14.66,27.29-29.16,54.67-43.31,82.23-2.87,5.59-6.53,7.93-12.46,7.5-6.94-.51-11.61,2.57-15.85,8.14-17.97,23.59-36.46,46.79-54.56,70.28-3.2,4.15-6.79,6.76-11.83,8.39-24.71,7.99-49.3,16.35-73.93,24.61-3.09,1.04-6.13,2.24-9.91,3.63,3.22,13.09,6.09,25.7,9.44,38.19,4.23,15.75,3.44,14.64-11.05,18.85-12.47,3.62-24.87,7.47-37.33,11.15-3.43,1.01-6.94,1.78-11.5,2.93-13.39-43.14-26.02-85.63-38.62-128.73,4.85-1.66,7.91-2.83,11.04-3.76,32.23-9.6,64.45-19.23,96.74-28.65,5.68-1.66,9.93-4.39,13.52-9.3,17.9-24.48,36.17-48.68,54.25-73.03,1.76-2.37,3.45-4.93,4.52-7.66,7.04-17.98,13.82-36.07,20.89-54.05,2.02-5.13,2.63-10,1.43-15.52-1.98-9.1-3.61-18.33-4.46-27.6-.61-6.6-3.13-10.49-9.67-11.83-3.21-.66-6.31-1.81-10.01-2.9-1.7,2.71-3.39,5.11-4.78,7.66-33.21,61.19-66.44,122.37-99.45,183.67-2.28,4.24-5.06,6.48-9.47,7.86-9.85,3.08-19.64,6.38-29.32,9.96-22.16,8.19-44.26,16.57-66.36,24.94-6.34,2.4-6.3,2.5-12.17-1.54,37.67-72.48,75.41-145.09,113.76-218.87-34.77-16.32-68.93-32.35-103.54-48.59-5.51,10.57-10.55,20.23-15.94,30.56,28.33,14.15,55.9,27.93,83.88,41.91-8.47,17.17-16.4,33.23-24.33,49.29-21.52,43.61-42.96,87.26-64.63,130.79-2.94,5.91-4.03,11.28-2.6,18.02,8.54,40.39,16.57,80.89,24.69,121.37,2.03,10.14,1.92,10.3-8.38,12.27-26.49,5.06-53,10.03-79.53,14.92-2.4.44-4.95.06-9.95.06,10.77-14,20.21-26.26,30.23-39.29-15.28-14.17-30.29-28.09-45.11-41.84,3.44-5.51,6.64-2.95,9.44-1.71,10.95,4.88,21.81,9.97,32.72,14.94,11.16,5.09,22.33,10.14,35.39,16.07-1.26-9.32-2.17-17.01-3.37-24.65-5.15-32.9-10.53-65.76-15.39-98.7-.57-3.87.86-8.48,2.58-12.18,19.98-42.87,40.21-85.62,60.36-128.41,1.55-3.29,3.01-6.63,4.96-10.94-27.02-14.77-53.77-29.39-80.22-43.84.93-8,36.48-81.51,46.23-96.04,52.45,25.39,104.98,50.82,158.52,76.74-34.06,64.11-67.59,127.23-101.92,191.85,3.58-.77,5.69-.96,7.59-1.69,11.2-4.28,22.25-8.98,33.56-12.92,5.86-2.04,9.15-5.71,11.87-11.07,32.62-64.5,65.43-128.91,98.19-193.34,1.79-3.53,3.66-7.02,5.88-11.27,22.02,8.7,43.56,17.21,66.14,26.14,1.79,9.72,3.74,20.13,5.6,30.56,1.99,11.15,3.84,22.32,5.87,33.45.91,5.03,1.22,9.92-1.41,14.57-.32.57-.46,1.25-.7,1.87-8.28,20.72-14.67,42.48-25.37,61.86-10.54,19.09-25.45,35.77-38.44,53.5-8.46,11.56-17.09,23.01-25.31,34.75-3.6,5.14-7.86,8.34-13.97,10.26-31.13,9.77-62.13,19.97-93.17,30.05-3.72,1.21-7.36,2.65-11.67,4.22Z"/>
  <path class="st0" d="M818.55,1647.16v-48.79c-19.99-2.53-40.21-5.08-60.5-7.65-.03-5.97,3.49-6.14,6.68-6.79,19.59-3.94,39.17-7.91,58.75-11.88,4.22-.86,8.42-1.79,13.77-2.93-1.99-2.55-3.33-4.7-5.06-6.44-27.52-27.62-55.14-55.13-82.54-82.86-2.1-2.12-3.26-5.64-3.86-8.7-8.75-45.11-17.32-90.26-25.96-135.4-1.06-5.54-2.24-11.05-3.53-17.4-3.19.15-6.08.08-8.9.44-25.44,3.26-50.86,6.64-76.3,9.9-7.28.93-7.85.53-9.11-6.79-5.28-30.86-10.48-61.73-15.66-92.6-.21-1.28-.03-2.62-.03-4.63,57.26-10.3,114.47-20.58,173.12-31.13,6.08,35.91,10.34,71.46,15.42,106.87,5.1,35.55,10.08,71.11,15.34,108.27,2.45-2.8,4.08-4.28,5.24-6.07,6.54-10.05,12.65-20.41,19.56-30.2,3.66-5.18,3.84-10.21,2.9-16-5.71-35.17-11.28-70.37-16.9-105.56-6.2-38.81-12.41-77.61-18.59-116.42-.2-1.27-.03-2.61-.03-4.63,22.57-5.8,45.01-11.57,68.04-17.49,1.4,1.16,3.27,2.49,4.91,4.07,14.38,13.9,28.65,27.91,43.11,41.72,3.25,3.11,5.34,6.45,6.44,10.87,5.29,21.33,10.91,42.58,16.3,63.88.64,2.55.9,5.26.89,7.89-.06,35.33-.31,70.66-.22,105.99.02,5.65-1.49,10.12-4.82,14.64-19.76,26.83-39.29,53.84-58.89,80.79-1.95,2.68-3.82,5.43-6.47,9.21,19.55,14.54,38.92,28.94,59.37,44.15,4.92-6.77,9.48-13.04,14.58-20.06-11.19-8.8-21.63-16.98-32.05-25.19-13.43-10.58-14.96-9.22-4.02-24.95,12.94-18.6,25.53-37.44,38.53-56,3.57-5.1,5.45-10.23,5.7-16.56,1.17-30.3,2.95-60.58,4.08-90.88.22-5.91,2.67-9.94,6.4-13.99,11.34-12.3,11.1-12.35,8.87-29.04-2.08-15.52-3.93-31.07-5.57-46.63-.74-7.02-3.3-12-9.44-16.33-25.06-17.66-49.66-35.97-74.4-54.07-2.87-2.1-5.59-4.4-8.98-7.09,21.62-27.73,42.62-54.66,63.92-81.98,3.47,2.25,6.02,3.75,8.39,5.47,39.86,29.04,79.67,58.16,119.61,87.09,3.52,2.55,5.37,5.19,5.96,9.56,3.62,27.07,7.52,54.1,11.35,81.13.74,5.25,1.58,10.49,2.54,16.8,9.07-.46,17.94-.77,26.78-1.4,25.26-1.8,50.5-3.89,75.77-5.48,5.49-.35,8.98-2.05,12.07-6.81,11.8-18.16,24.86-35.54,35.86-54.16,5.46-9.25,12.49-14.38,21.8-18.41,19.86-8.61,39.41-17.93,59.1-26.94,2.99-1.37,6.04-2.62,9.03-3.91,3.17,3.75.13,5.93-1.41,8.14-9.71,13.94-19.56,27.8-29.36,41.69-23.82,33.77-47.72,67.48-71.36,101.36-3.55,5.08-7.36,7.78-13.82,7.9-53.65.99-107.29,2.27-160.94,3.44-1.62.04-3.25-.24-6.04-.46-1.26-11.28-2.63-22.39-3.73-33.53-2.98-30.17-5.84-60.35-8.74-90.53-.45-4.71-1.39-8.76-5.64-12.11-23.55-18.57-46.82-37.5-70.21-56.28-1.27-1.02-2.73-1.79-4.74-3.11-7.47,9.68-14.75,19.11-22.6,29.27,2.55,2.03,4.69,3.96,7.04,5.58,18.66,12.85,37.25,25.82,56.14,38.33,5.28,3.49,7.51,7.75,8.33,13.76,4.13,30.36,8.37,60.71,13.01,91,.86,5.63.41,9.76-4.63,12.79-7.02,4.21-8.74,10.46-8.91,18.49-.6,29.32-2.11,58.61-2.97,87.93-.15,4.96-1.65,8.84-4.5,12.77-15.06,20.77-29.93,41.69-44.83,62.58-2.09,2.93-4.01,5.98-6.5,9.72,9.82,8.22,19.23,16.08,28.62,23.94,14.48,12.12,13.72,9.87,2.44,24.67-7.68,10.07-15.39,20.12-23.14,30.13-1.98,2.56-4.18,4.95-7.12,8.42-35.73-27.23-70.81-53.96-106.69-81.29,2.71-3.93,4.6-6.94,6.75-9.75,20.43-26.75,40.82-53.53,61.46-80.12,3.67-4.73,5.35-9.45,5.39-15.48.18-29.99.85-59.99,1.12-89.98.04-4.23-.77-8.56-1.82-12.68-4.47-17.42-9.29-34.74-13.73-52.16-1.45-5.67-3.9-10.35-8.26-14.4-9-8.37-17.62-17.14-26.53-25.87-6.12,1.92-11.77,3.69-18.21,5.7,1.23,10.3,2.29,20.13,3.6,29.94,8.3,62.4,16.62,124.8,25.1,187.17.55,4.03-.31,7.04-2.62,10.15-4.17,5.62-8.2,11.35-12.09,17.16-15.19,22.69-30.3,45.44-45.44,68.17-2.16,3.24-3.57,7.46-10.32,6.33-7.06-39.98-12.31-80.77-18.64-121.37-6.35-40.71-12.2-81.49-18.38-122.97-38.1,7.33-74.88,14.41-112.38,21.62,1.81,11.84,3.45,22.57,5.21,34.04,30.96-5.16,61.08-10.18,92.2-15.37,1.63,8.93,3.22,17.28,4.66,25.65,10,58.09,20.06,116.17,29.81,174.3.95,5.69,3.28,9.71,7.4,13.46,29.34,26.69,58.55,53.52,87.8,80.31,1.97,1.8,3.98,3.56,5.85,5.45,5.28,5.33,5.38,6.59,0,12.3-14.39,15.29-28.88,30.49-43.33,45.72-5.05,5.32-10.05,10.68-15.18,15.92-1.07,1.09-2.6,1.72-5.53,3.59Z"/>
  <path class="st0" d="M763.96,622.54c73.24-36.57,146.46-73.13,220.81-110.26-18.57-33.69-36.8-66.77-55.22-100.2-10.53,5.26-20.25,10.13-30.82,15.41,14.65,28.21,28.85,55.54,43.21,83.2-18.04,9.48-35.11,18.44-52.17,27.41-42.17,22.17-84.29,44.42-126.54,66.42-5.65,2.94-9.18,6.85-11.79,12.66-16.5,36.77-33.31,73.4-50.1,110.04-1.74,3.8-4.06,7.34-6.58,11.84-29.91-14.25-58.89-28.06-89.22-42.52,7.68-6.53,15.9-6.57,23.1-9.05,7.51-2.59,15.2-4.68,23.6-7.22-1.4-7.28-2.68-14.07-4.01-20.85-1.34-6.86-3.04-13.68-3.98-20.59-.89-6.57-4.6-13.06-1.51-20.73,7.31,3.88,8.81,11.13,12.38,16.73,3.58,5.61,6.61,11.57,9.89,17.37,3.44,6.09,6.87,12.19,10.32,18.28,3.25,5.74,6.51,11.46,10.58,18.62,2.46-4.24,4.34-7.17,5.92-10.25,17.28-33.81,34.43-67.69,51.93-101.38,1.51-2.9,4.94-5.17,7.97-6.84,41.69-23.05,83.47-45.95,125.22-68.9,3.17-1.74,6.27-3.58,10.4-5.95-13.3-28.07-26.35-55.61-39.28-82.88,5.86-5.7,78.71-44.54,93.97-50.29,27.43,51.2,54.89,102.45,82.9,154.75-21.23,11.98-43.1,21.5-64.39,32.12-21.46,10.7-43.11,21.04-64.66,31.56-21.51,10.49-43.01,21.01-66.08,32.28,3.47,1.41,5.35,2.41,7.35,2.95,11.25,3.06,22.61,5.7,33.75,9.11,6.56,2.01,11.94.9,17.96-2.2,63.98-32.92,128.1-65.57,192.19-98.28,3.52-1.8,7.11-3.47,11.45-5.59,12.62,19.9,25.03,39.45,37.88,59.69-.91,2.19-1.89,4.97-3.18,7.6-8.33,17.06-16.89,34.02-25.01,51.18-2.39,5.06-5.45,9.03-10.45,11.49-.3.15-.55.37-.84.53-22.32,12.44-41.59,30.23-66.2,38.61-23.96,8.15-48.13,15.68-72.23,23.38-10.45,3.34-20.98,8.91-31.47,8.91-10.14,0-20.28-5.84-30.41-9.14-24.38-7.93-48.76-15.87-73.15-23.8-2.51-.82-5.07-1.51-8.74-2.6-8.79,22.76-15.6,45.89-24.04,69.74,7.92,2.64,15.01,5,22.79,7.59,1.32-2.68,2.64-4.87,3.52-7.23,4.65-12.48,9.11-25.04,13.79-37.51,3.1-8.27,4.89-9.17,13.55-6.66,23.98,6.97,47.96,13.95,71.86,21.2,5.64,1.71,10.78,1.9,16.54.29,28.54-7.99,57.24-15.4,85.77-23.43,6.84-1.93,12.99-2.19,19.14,1.5,1.14.68,2.5.99,3.6,1.72,6.5,4.33,12.5,3.6,19.47.09,16.65-8.39,33.66-16.08,50.73-23.61,5.37-2.37,8.25-5.76,10.01-11.28,9.4-29.51,19.11-58.92,28.76-88.34,1.21-3.69,2.73-7.29,4.34-11.56,33.02,12,65.1,23.66,97.94,35.6-1.37,4.47-2.37,7.91-3.48,11.32-14.99,45.9-30.1,91.76-44.88,137.73-1.69,5.24-4.36,8.36-9.24,10.69-25.86,12.32-51.59,24.92-77.35,37.46-3.22,1.57-6.35,3.33-9.89,5.19,1.07,3.09,1.8,5.6,2.78,8.01,11.81,28.99,23.78,57.93,35.38,87,2.18,5.47,5.17,8.29,11.03,9.84,20.92,5.52,41.43,12.86,62.56,17.26,10.14,2.11,16.35,7.25,22.62,14.16,15,16.54,30.24,32.86,45.35,49.31,2.16,2.35,4.07,4.91,6.1,7.38-.33.6-.67,1.2-1,1.8-2.72-.49-5.53-.71-8.15-1.51-55.69-17.16-111.35-34.44-167.06-51.53-5.54-1.7-9.15-4.43-11.12-10.14-17.52-50.67-35.26-101.27-52.9-151.9-.63-1.82-.86-3.77-1.42-6.36,3.48-1.65,6.69-3.28,9.98-4.73,34.47-15.12,68.91-30.3,103.47-45.21,5.56-2.4,9.03-5.55,11.2-11.5,9.23-25.35,19.06-50.47,28.65-75.69,1.29-3.4,2.47-6.85,4.14-11.5-11.81-4.29-23.19-8.42-35.51-12.89-1.35,4.26-2.5,7.63-3.5,11.05-6.2,21.09-12.48,42.15-18.47,63.29-1.47,5.19-4.08,8.54-9.05,10.94-28.19,13.62-56.31,27.42-84.28,41.48-5.22,2.62-9.42,2.52-13.71-1.07-5.94-4.97-12.09-4.96-19.43-2.73-27.72,8.41-55.68,16.05-83.46,24.27-5.38,1.59-10.15,1.61-15.51-.14-24.38-7.94-48.88-15.51-73.34-23.21-3.16-.99-6.33-1.92-10.33-3.13-2.04,4.67-4.09,9.13-5.95,13.67-4.03,9.87-8,19.76-11.91,29.67-1.7,4.32-4.14,6.61-9.15,4.79-17.53-6.34-35.12-12.54-52.67-18.85-.9-.32-1.62-1.11-2.69-1.87.89-3.21,1.5-6.08,2.46-8.83,12.52-35.84,25.08-71.67,37.64-107.49.33-.94.74-1.86,1.11-2.78,2.82-7.01,3.2-7.32,10.17-4.95,12.92,4.41,25.78,9.01,38.66,13.55,20.42,7.19,40.88,14.27,61.21,21.69,4.99,1.82,9.48,1.83,14.49.24,29.21-9.23,58.52-18.17,87.73-27.4,3.72-1.17,7.25-3.2,10.57-5.31,15.46-9.85,30.74-19.97,46.24-29.75,4.4-2.78,7.6-6.14,9.81-10.87,4.38-9.35,8.97-18.61,13.89-27.68,2.38-4.39,2.47-7.95-.82-11.79-2.57-2.99-4.75-6.32-7.48-10.02-3.61,1.62-6.9,3.03-10.13,4.57-62.22,29.72-124.46,59.41-186.58,89.32-4.37,2.1-7.99,2.13-12.34.71-11.07-3.63-22.19-7.15-33.4-10.32-21.46-6.07-42.99-11.87-64.5-17.77-3.73-1.02-8.25-.93-8.99-8.2Z"/>
  <path class="st0" d="M1978.15,1214c34.89,16.38,68.6,32.2,103.55,48.61,5.26-10.07,10.4-19.89,15.98-30.57-28.36-14.16-55.93-27.93-83.95-41.92,5.43-10.95,10.43-21,15.4-31.07,24.61-49.89,49.12-99.82,73.92-149.61,2.85-5.73,3.66-11.03,2.37-17.22-8.35-40.1-16.52-80.23-24.65-120.37-.7-3.46-.68-7.07-1.1-11.77,32.35-6.02,63.88-11.9,97.92-18.24-8.13,16.39-20.3,26.98-28.92,41.13,3.39,3.16,6.72,6.28,10.06,9.38,9.54,8.83,19.14,17.59,28.59,26.51,2.24,2.12,5.94,3.67,4.17,9.38-3.27-.99-6.66-1.63-9.71-3.01-18.52-8.35-36.96-16.88-55.45-25.32-2.98-1.36-6.04-2.52-9.75-4.05,0,2.97-.29,5.22.04,7.37,6.11,38.81,12.4,77.59,18.3,116.42.49,3.2-1.05,7.03-2.52,10.17-19.73,42.25-39.62,84.43-59.46,126.63-1.96,4.17-3.86,8.38-6.28,13.65,27.49,15,54.49,29.72,82.25,44.87-16.15,32.46-31.67,63.67-47.43,95.36-53.04-25.67-105.34-50.98-158.94-76.92,6.1-13.56,13.35-25.77,19.85-38.32,6.59-12.72,13.43-25.31,20.16-37.95,6.89-12.94,13.78-25.87,20.67-38.81,6.73-12.64,13.48-25.28,20.19-37.93,6.7-12.62,13.36-25.26,20.83-39.39-3.92,1.09-6.4,1.58-8.71,2.46-9.96,3.8-19.73,8.14-29.85,11.43-7.52,2.45-12.03,6.84-15.59,13.93-32.5,64.56-65.36,128.95-98.13,193.37-1.62,3.19-3.46,6.26-5.23,9.45-22.42-8.91-44-17.48-65.99-26.22-4.04-22.84-8.21-45.75-12.02-68.72-.45-2.71.62-5.89,1.67-8.59,7.99-20.48,16.12-40.9,24.29-61.3.98-2.44,2.23-4.85,3.78-6.96,21.04-28.78,42.22-57.46,63.2-86.29,3.08-4.23,6.61-6.85,11.72-8.47,31.75-10.04,63.38-20.45,95.05-30.75,3.14-1.02,6.26-2.09,10.68-3.56-6.63-23.9-14.25-47.03-21.98-70.75-8.05,2.64-15.23,4.99-23.23,7.61,3.77,13.48,7.18,26.26,10.94,38.95,5.16,17.42,5.65,16.82-12.12,23.11-21.03,7.44-42.01,15.04-63.12,22.26-5.91,2.02-10.41,5.17-14.31,10.09-18.19,23-36.82,45.65-54.95,68.71-4.61,5.86-9.59,9.92-17.19,10.42-2.64.17-5.23,1-7.86,1.42-4.21.67-7,2.73-9.14,6.68-9.67,17.87-19.54,35.64-29.65,53.26-2.74,4.78-2.88,9.01-1.18,14.16,9.78,29.73,19.27,59.56,28.82,89.37,1.09,3.39,1.92,6.87,3.13,11.21-33.46,9.65-65.98,19.03-99.58,28.73-1.36-3.29-2.76-6.15-3.74-9.16-15.31-47.19-30.43-94.45-46.03-141.55-1.66-5.01-.09-8.28,1.91-12.06,13.62-25.58,27.27-51.15,40.88-76.73,1.55-2.91,2.96-5.88,4.64-9.25-2.82-1.94-5.18-3.71-7.67-5.26-26.31-16.36-52.76-32.51-78.87-49.18-5.46-3.48-9.79-3.5-15.58-1.27-19.88,7.67-40.44,13.75-59.82,22.48-9.41,4.23-17.46,3.92-26.65,1.99-23.13-4.88-46.35-9.36-69.52-14.05-1.82-.37-3.57-1.1-5.66-1.75,1.55-5.11,5.77-5,8.91-6.08,41.26-14.14,82.57-28.16,123.87-42.21,13.87-4.72,27.8-9.29,41.59-14.24,4.54-1.63,8.24-1.25,12.16,1.49,45.12,31.41,90.3,62.74,135.45,94.12.78.55,1.32,1.45,2.57,2.86-1.62,2.95-3.28,6.13-5.08,9.22-19,32.5-37.9,65.06-57.14,97.42-3.33,5.6-4.07,10.49-2.25,16.85,7.7,26.89,14.81,53.94,22.15,80.93.61,2.24,1.35,4.43,2.41,7.85,6.1-1.59,12.08-3.06,18-4.73,5.73-1.61,11.4-3.44,17.97-5.43-1.07-3.6-1.85-6.71-2.92-9.72-7.46-21.03-14.84-42.09-22.56-63.02-2-5.41-1.78-9.81,1.03-15.01,14.72-27.26,29.16-54.67,43.37-82.2,2.62-5.09,5.9-8,11.49-7.52,8.78.75,13.75-4.08,18.68-10.57,17.34-22.82,35.25-45.19,52.7-67.93,3.22-4.19,6.93-6.72,11.87-8.33,24.38-7.94,48.68-16.11,73-24.22,3.4-1.14,6.76-2.43,10.79-3.88-3.6-14.54-7.03-28.36-10.44-42.18-2.47-10-2.12-10.76,7.29-13.6,14.67-4.41,29.36-8.75,44.07-13.02,2.78-.81,5.69-1.17,9.08-1.84,1.21,3.03,2.34,5.36,3.08,7.81,11.14,36.98,22.25,73.98,33.3,110.99,2.85,9.55,2.77,9.69-6.65,12.51-32.85,9.84-65.7,19.7-98.62,29.31-5.71,1.67-9.9,4.44-13.47,9.32-17.71,24.2-35.83,48.1-53.61,72.26-2.69,3.66-4.68,7.97-6.38,12.22-6.54,16.39-13.05,32.81-19.07,49.39-1.64,4.5-2.58,9.77-2.02,14.46,1.49,12.54,3.97,24.95,6.19,38.17,5.82,2.05,11.67,4.11,18.2,6.41,2.01-3.55,3.84-6.65,5.55-9.81,33.02-60.91,66.06-121.82,98.95-182.81,1.72-3.19,3.61-5.26,7.06-6.31,5.73-1.74,11.4-3.72,17.02-5.79,26.87-9.87,53.72-19.78,80.56-29.72,3.7-1.37,7.31-3.8,11.94.8-4.82,12.15-11.94,23.68-17.97,35.71-6.12,12.21-12.58,24.25-18.88,36.36-6.46,12.41-12.89,24.83-19.35,37.24-6.31,12.11-12.64,24.21-18.94,36.33-6.3,12.12-12.56,24.25-18.86,36.37-6.29,12.1-12.6,24.18-19.54,37.5Z"/>
  <path class="st0" d="M1013.55,352.7c5.31-2.54,8.61-4.04,11.84-5.68,33.52-17.09,67.01-34.25,100.6-51.21,2.14-1.08,5.11-1.1,7.6-.79,48.58,6.09,97.14,12.31,145.71,18.45,3.24.41,6.53.39,10.59.61,5.69-30.14,11.29-59.79,16.83-89.12,8-1.78,89.07,9.28,105.6,14.25-7.89,57.43-15.8,114.97-23.91,173.99-71.74-11.83-142.25-25.17-214.45-37.35,2.23,3.31,3.5,5.55,5.11,7.53,7.55,9.32,15.31,18.48,22.74,27.9,3.07,3.89,6.53,5.97,11.58,6.75,73.06,11.31,146.09,22.82,219.12,34.32,2.92.46,5.78,1.3,9.47,2.14-1.48,23.37-2.94,46.53-4.44,70.36-2.18,1.3-4.66,2.9-7.25,4.28-10.29,5.49-20.59,10.96-30.92,16.34-8.85,4.61-17.34,11.08-26.77,13.1-9.43,2.01-19.83-.45-29.8-1.03-3.32-.19-6.65-.98-9.95-.86-25.48.97-49.25-6.21-72.93-14.5-22.31-7.82-44.85-14.98-67.39-22.12-5.36-1.7-9.18-4.47-12.47-9.06-19.39-27.1-39.04-54.01-58.62-80.98-1.94-2.67-4-5.26-6.77-8.88-19.94,14.16-39.62,28.13-60.13,42.7,4.82,6.77,9.18,12.88,14.16,19.86,3.59-2.22,6.92-4.15,10.13-6.27,9.99-6.63,19.9-13.39,29.92-20,7.59-5.01,9.28-4.79,14.81,2.34,15.31,19.76,30.63,39.51,45.65,59.48,3.79,5.04,8.26,8.23,14.11,10.4,27.48,10.19,54.78,20.86,82.3,30.92,7.07,2.58,12.31,6.34,15,13.36,3.55,9.25,9.9,13.48,20.07,14.85,17.46,2.35,34.74,6.24,51.95,10.1,5.81,1.3,10.05.27,14.73-3.15,25.81-18.9,51.8-37.56,77.74-56.27,2.12-1.53,4.39-2.86,6.47-4.21,5.92,4.93,50.23,69.22,58.86,85.36-1.97,1.73-3.97,3.81-6.28,5.48-40.19,29.15-80.51,58.14-120.53,87.52-4.82,3.54-9.2,3.01-14.04,2.15-27.87-4.93-55.72-9.98-83.59-14.93-3.51-.62-7.08-.87-11.28-1.36-3.82,15.59-7.45,30.41-11.09,45.23-4.54,18.43-8.98,36.88-13.73,55.26-1.17,4.55-.68,7.91,2.4,11.74,13.79,17.14,26.33,35.36,41.09,51.58,7.68,8.44,9.54,17.33,10.67,27.48,2.28,20.53,4.83,41.02,7.21,61.53.47,4.08.7,8.19,1.04,12.29-.76.29-1.51.57-2.27.86-1.9-2.03-4.01-3.9-5.67-6.11-34.97-46.67-69.84-93.42-104.88-140.03-3.29-4.38-4.65-8.54-3.04-13.85,15.83-52.26,31.59-104.55,47.39-156.82.27-.91.86-1.72,1.75-3.47,3.36.51,6.92.84,10.39,1.6,37.08,8.1,74.16,16.25,111.22,24.44,4.64,1.03,8.84,1.56,13.31-1.41,25.53-16.96,51.24-33.65,76.89-50.45.83-.54,1.59-1.19,3.1-2.33-7.15-10.47-14.03-20.54-21.23-31.09-3.26,2.38-5.96,4.26-8.57,6.26-17.7,13.61-35.45,27.15-53.03,40.92-4.22,3.3-8.16,4.48-13.7,3.46-30.79-5.65-61.63-11.01-92.53-15.98-5.88-.95-9.04-3.4-10.42-8.83-1.89-7.48-6.86-11.14-14.14-13.66-27.06-9.35-53.83-19.56-80.86-29.02-6.34-2.22-10.73-5.8-14.59-11.16-14.6-20.28-29.58-40.29-44.44-60.39-1.96-2.66-4.05-5.22-6.77-8.72-5.52,3.39-10.84,6.61-16.12,9.9-7.91,4.94-15.81,9.91-23.69,14.91-3.45,2.19-6.79,3.17-9.57-.84-11.17-16.11-22.27-32.26-33.21-48.13,5.29-7.02,101.13-73.6,110.76-77.01,1.95,2.61,4.19,5.4,6.22,8.33,19.11,27.7,38.26,55.38,57.21,83.19,3.15,4.62,6.78,7.62,12.23,9.42,28.78,9.49,57.39,19.47,86.14,29.04,4.32,1.44,9.05,1.95,13.63,2.24,17.96,1.11,35.93,2.16,53.91,2.75,4.42.14,9.27-.78,13.29-2.6,9.69-4.4,18.91-9.83,28.52-14.43,4.52-2.16,6.61-5.01,6.18-10.06-.33-3.9-.07-7.85-.07-12.43-15.73-2.99-30.69-5.9-45.68-8.66-56.33-10.36-112.66-20.71-169.03-30.9-4.29-.77-7.25-2.52-9.75-5.99-6.24-8.64-12.6-17.22-19.19-25.59-14.41-18.32-29.02-36.5-43.51-54.76-2.56-3.23-6.77-6-2.89-12.38,80.55,12.77,161.33,27.13,243.41,40.2,4.76-37.97,9.38-74.86,13.97-111.54-6.97-3.4-23.46-6.48-33.95-6.36-4.51,30.06-9.04,60.25-13.71,91.41-8.01-1.06-15.47-1.96-22.9-3.03-59.33-8.59-118.67-17.11-177.96-25.97-5.72-.85-10.23.11-15.08,2.88-34.43,19.65-68.97,39.12-103.47,58.65-2.32,1.31-4.6,2.7-6.97,3.91-6.88,3.49-7.77,3.32-11.63-3.69-10.28-18.68-20.42-37.43-30.62-56.16-3.35-6.14-6.78-12.24-9.96-18.47-.8-1.56-.74-3.56-1.41-7.1,16,5.62,30.58,10.74,45.77,16.08,9.56-18.56,16.95-37.69,26.62-55.95,5.9,2.79,4.27,6.85,3.91,10.11-2.13,19.2-4.51,38.37-6.74,57.56-.53,4.58-.79,9.19-1.31,15.38Z"/>
  <path class="st0" d="M1709.72,1531.2c65.35-31.91,129.82-63.39,194.29-94.87-.05-.64-.11-1.28-.16-1.92-15.57-4.09-31.07-8.48-46.76-12.01-2.98-.67-6.92,1.7-10.09,3.32-58.49,29.76-116.92,59.61-175.37,89.44-9.47,4.83-18.96,9.62-29.09,14.75-12.69-19.98-25.13-39.57-38.01-59.84.72-1.73,1.6-4.19,2.74-6.52,8.63-17.66,17.43-35.23,25.89-52.97,2.1-4.41,4.9-7.63,9.04-10.2,18.11-11.25,36.06-22.76,54.12-34.1,2.51-1.58,5.17-3.1,7.97-4,33.91-10.9,67.9-21.59,101.78-32.59,5.03-1.63,9.41-1.65,14.46.03,31.91,10.62,63.92,20.93,95.91,31.31,3.1,1.01,6.27,1.81,10.22,2.94,7.82-23.11,15.47-45.73,23.29-68.84-6.89-4.62-14.73-5.82-23.15-8.34-2.52,6.68-4.97,13.12-7.38,19.57-3.03,8.11-5.98,16.25-9.05,24.35-3.5,9.26-4.63,9.93-14,7.2-23.66-6.89-47.33-13.74-70.87-21.01-6.33-1.96-12.09-1.96-18.43-.19-28.53,8-57.21,15.49-85.72,23.54-6.2,1.75-11.81,2.08-17.14-1.57-9.6-6.58-18.49-5.47-28.57-.05-14.94,8.03-30.62,14.7-46.15,21.57-5.34,2.36-8.14,5.82-9.92,11.39-9.5,29.82-19.4,59.52-29.19,89.25-1.02,3.1-2.21,6.15-3.8,10.53-32.64-11.83-64.69-23.43-97.25-35.23.62-3.36.82-5.97,1.61-8.39,15.58-47.81,31.33-95.56,46.7-143.43,1.47-4.59,4.48-6.25,8.04-7.98,26.06-12.68,52.13-25.33,78.19-38,2.97-1.44,5.88-2.99,9.4-4.79-.91-2.74-1.58-5.22-2.54-7.57-11.91-29.31-23.96-58.57-35.7-87.94-2.02-5.06-4.7-7.92-10.22-9.39-20.91-5.57-41.43-12.87-62.57-17.21-10.82-2.22-17.45-7.78-24.14-15.22-14.7-16.36-29.77-32.39-44.64-48.6-2.12-2.31-3.95-4.87-5.92-7.31.41-.7.82-1.4,1.23-2.1,3.32.82,6.69,1.48,9.95,2.49,51.85,16.03,103.73,31.99,155.52,48.22,20.94,6.56,16.63,2.12,24.12,23.44,15.78,44.93,31.51,89.87,47.23,134.82,1.32,3.76,2.48,7.58,4.04,12.4-3.23,1.64-6.31,3.38-9.53,4.8-34.76,15.28-69.48,30.63-104.36,45.62-5.66,2.43-9.08,5.73-11.22,11.53-10.61,28.7-21.58,57.27-32.94,87.26,11.85,4.25,23.24,8.34,35.36,12.68,1.22-3.38,2.35-6.06,3.17-8.83,6.46-21.7,13.08-43.36,19.14-65.17,1.6-5.76,4.65-8.99,9.8-11.49,27.88-13.51,55.7-27.13,83.37-41.04,5.1-2.56,9.22-2.99,13.6.8,6.2,5.36,12.73,4.97,20.39,2.63,27.7-8.45,55.66-16.07,83.44-24.27,5.04-1.49,9.53-1.4,14.49.22,24.38,7.94,48.84,15.64,73.28,23.37,3.43,1.08,6.94,1.88,11.17,3.02,4.8-11.91,9.37-23.28,13.96-34.65,1.24-3.09,2.48-6.18,3.76-9.26,1.65-3.96,4.37-5.75,8.71-4.2,18.15,6.46,36.3,12.91,54.16,19.26.25,8.08-37.54,117.58-43.87,127.29-3.14-.92-6.61-1.78-9.97-2.96-31.72-11.18-63.46-22.3-95.09-33.72-5.65-2.04-10.7-2.07-16.39-.25-27.59,8.83-55.34,17.17-82.91,26.05-5.9,1.9-11.61,4.85-16.9,8.13-14.72,9.14-29.11,18.8-43.76,28.04-4.38,2.76-7.62,6.13-9.86,10.85-5.28,11.12-10.91,22.08-16.75,33.81,3.46,4.97,7,10.06,10.85,15.6,3.24-1.34,5.99-2.34,8.62-3.59,63.11-30.15,126.24-60.28,189.25-90.63,3.73-1.8,6.73-1.79,10.38-.61,9.5,3.07,19.04,6.07,28.65,8.78,23.37,6.6,46.8,13.01,70.2,19.53,3.98,1.11,8.93,1.13,8.94,8.48-72.82,36.36-146.02,72.91-220.53,110.11,18.35,33.61,36.57,66.6,55.22,100.15,10.56-5.24,20.3-10.07,30.83-15.29-14.59-28.07-28.8-55.4-43.29-83.27,4.65-2.42,8.41-4.36,12.16-6.34,55.13-28.99,110.22-58.08,165.46-86.87,6.27-3.27,10.38-7.37,13.29-13.87,16.31-36.48,33.04-72.79,49.62-109.15.97-2.12,1.91-4.26,2.88-6.37,1.85-4.02,4.71-5.42,8.88-3.4,1.2.58,2.4,1.15,3.61,1.73,24.06,11.46,48.12,22.89,72.15,34.41,2.49,1.19,4.78,2.83,7.16,4.26-.05.8-.11,1.6-.16,2.39-14.76,4.45-29.52,8.9-45.33,13.67,3.94,20.4,7.8,40.44,11.64,60.32-6.61,2.15-7.42-2.39-9.07-5.29-10.07-17.65-20-35.38-30-53.07-1.79-3.17-3.71-6.28-6.03-10.2-1.43,1.93-2.71,3.24-3.51,4.79-18.06,35.28-35.96,70.63-54.25,105.79-1.65,3.16-5.36,5.67-8.66,7.5-41.67,23.09-83.43,46-125.17,68.96-3.16,1.74-6.27,3.56-10,5.69,13.31,28.16,26.35,55.73,39.98,84.57-31.87,16.88-62.96,33.06-94.34,49.26-27.93-52.12-55.26-103.14-83.55-155.93Z"/>
  <path class="st0" d="M1846.58,473.19c23.17-24.43,45.31-47.76,67.44-71.1.74.28,1.49.56,2.23.85,1.62,15.62-1.36,31.43.29,47.85,20.2,2.52,40.22,5.01,60.35,7.52.31,6.53-4.27,6.26-7.37,6.94-11.05,2.45-22.18,4.52-33.29,6.74-10.45,2.09-20.91,4.13-31.34,6.29-2.17.45-4.25,1.36-7.17,2.31,2.21,2.54,3.8,4.6,5.62,6.43,27.28,27.38,54.67,54.67,81.79,82.21,2.31,2.35,3.67,6.18,4.32,9.55,7.04,36.29,13.83,72.62,20.74,108.93,2.67,14.04,5.44,28.07,8.44,43.47,30.76-3.9,61.24-7.76,92.97-11.78,5.98,35.5,11.75,69.81,17.66,104.9-58.17,10.44-115.31,20.7-173.91,31.22-5.83-36.06-10.22-71.58-15.32-106.98-5.11-35.49-10.02-71.01-15.29-108.4-2.58,3.12-4.11,4.63-5.24,6.38-6.71,10.34-13.18,20.84-20.07,31.06-2.81,4.17-3.58,8.16-2.78,13.12,11.76,72.65,23.36,145.33,34.96,218.01.52,3.24.63,6.54.99,10.49-22.85,5.89-45.29,11.67-68.29,17.6-1.99-1.79-4.24-3.71-6.37-5.76-13.66-13.2-27.18-26.55-40.99-39.59-3.83-3.61-6.01-7.59-7.24-12.67-4.64-19.09-9.86-38.04-14.4-57.15-1.51-6.37-2.28-13.08-2.29-19.63-.05-33,.39-65.99.34-98.99-.01-6.31,1.56-11.41,5.34-16.51,19.62-26.52,38.94-53.27,58.33-79.95,1.92-2.64,3.66-5.4,6.07-8.98-19.8-14.73-39.17-29.13-59.26-44.07-4.95,6.86-9.39,13-14.21,19.68,2.44,2.17,4.54,4.21,6.81,6.01,9.66,7.66,19.39,15.23,29.07,22.88,8.71,6.89,8.93,8.11,2.92,17.04-5.03,7.46-10.14,14.87-15.22,22.29-8.86,12.92-17.61,25.91-26.66,38.69-3.2,4.52-4.8,9.12-5.05,14.72-1.33,30.29-3.15,60.57-4.46,90.86-.3,6.79-2.36,12.22-7.46,16.64-1.75,1.52-3,3.62-4.77,5.1-4.33,3.61-4.99,7.99-4.25,13.38,2.62,19.14,5.17,38.3,7.08,57.51.62,6.26,2.93,10.26,7.96,13.87,25.45,18.26,50.67,36.84,75.96,55.33,2.65,1.94,5.19,4.01,8.69,6.72-21.39,27.44-42.39,54.37-63.94,82.02-3.16-2.04-5.95-3.64-8.54-5.52-39.87-29.03-79.64-58.2-119.66-87.02-4.45-3.2-5.55-6.84-6.19-11.64-4.02-30.04-8.22-60.06-12.4-90.08-.23-1.62-.82-3.19-1.49-5.71-2.56,0-5.11-.16-7.63.02-31.9,2.38-63.78,4.96-95.69,7.08-5.35.36-8.21,2.47-11.02,6.77-11.67,17.85-24.97,34.76-35.19,53.37-5.76,10.49-13.94,15-23.55,19.36-19.41,8.81-38.73,17.81-58.11,26.7-2.98,1.37-6.04,2.54-9.28,3.9-2.74-4.28.66-6.53,2.35-8.96,12.59-18.03,25.31-35.98,37.99-53.95,20.74-29.41,41.54-58.78,62.18-88.27,3.44-4.91,6.93-8.17,13.63-8.29,53.32-.96,106.62-2.28,159.94-3.46,1.97-.04,3.94.24,7.14.46.99,8.13,2.13,16.25,2.95,24.4,3.4,33.81,6.76,67.62,9.97,101.45.4,4.21,1.46,7.46,4.96,10.24,24.27,19.27,48.4,38.73,72.58,58.11.5.4,1.19.58,2.91,1.38,7.28-9.43,14.72-19.07,22.6-29.29-3.26-2.39-5.83-4.39-8.51-6.23-18.41-12.64-36.78-25.33-55.29-37.8-4.44-2.99-6.81-6.38-7.56-11.96-4.11-30.36-8.61-60.67-13.22-90.96-.98-6.48-.4-11.71,5.79-15.41,5.94-3.56,7.72-8.99,7.85-15.99.53-29.32,1.74-58.63,2.49-87.95.13-5.19,1.39-9.5,4.52-13.8,15.31-21,30.31-42.23,45.41-63.39,1.92-2.69,3.76-5.45,6.17-8.95-4.89-4.18-9.59-8.26-14.35-12.28-7.13-6.02-14.3-12-21.47-17.97-3.1-2.58-5.23-5.53-2.27-9.37,11.8-15.29,23.7-30.5,35.61-45.7.35-.44,1.18-.5,2.47-1,2.37,1.63,5.14,3.38,7.74,5.37,29.96,22.81,59.9,45.65,89.84,68.49,1.59,1.21,3.19,2.41,4.71,3.71,2.42,2.08,2.58,4.55.82,7.1-1.51,2.19-3.18,4.28-4.8,6.39-20.26,26.46-40.44,52.99-60.88,79.31-3.69,4.76-5.33,9.54-5.34,15.54-.06,30.33-.53,60.66-.66,90.99-.02,3.9.83,7.88,1.81,11.69,4.49,17.41,9.35,34.73,13.67,52.18,1.34,5.42,3.65,9.79,7.7,13.59,7.05,6.61,14.02,13.33,20.63,20.37,4.1,4.37,8.14,6.38,13.97,3.57,2.96-1.43,6.28-2.13,9.81-3.28.09-2.03.48-4,.23-5.89-6.17-46.89-12.42-93.77-18.64-140.65-3.15-23.77-6.14-47.57-9.58-71.3-.55-3.79.4-6.38,2.39-9.16,4.65-6.51,9.35-12.99,13.79-19.63,14.64-21.86,29.17-43.79,43.77-65.68,2.29-3.44,3.61-8.38,10.91-6.41,12.07,80.34,24.21,161.24,36.34,241.97,7.52,1.13,96.72-15.21,112.42-20.52-1.58-10.58-3.17-21.3-4.92-33.06-16.41,2.73-31.75,5.3-47.11,7.84-15.01,2.48-30.02,4.94-45.36,7.47-4.02-23.51-7.83-45.78-11.63-68.06-7.52-43.99-15.09-87.96-22.51-131.97-.93-5.52-3.38-9.64-7.57-13.45-30.11-27.32-60.04-54.86-89.98-82.36-2.88-2.65-5.49-5.58-9.35-9.53Z"/>
  <path class="st0" d="M1069.66,201.28c-4.38,21.45-8.53,41.82-12.75,62.51-17.18-5.71-33.19-11.04-50.43-16.77-9.14,18.26-18.15,36.24-27.19,54.29-14.14-4.15-27.55-7.93-40.85-12.04-5.89-1.82-6.91-3.5-4.97-8.6,11.64-30.48,23.47-60.89,35.3-91.3.33-.85,1.28-1.46,2.45-2.74,19.6,3.32,39.5,6.69,60.6,10.26,1.16-11.39,2.22-21.81,3.39-33.3,43.43,7.87,86.81,15.72,131.48,23.81,2.01-15.15,3.92-29.49,5.9-44.41h43.06c-4.78,25.93-9.33,50.64-14.12,76.64-43.95-6.12-87.58-12.19-131.87-18.35Z"/>
  <path class="st0" d="M1697.16,229.36c10.68-11.31,20.68-21.9,31.28-33.12,11.04,8.24,22.31,16.65,34.55,25.79-19.15,18.19-37.4,35.52-56.69,53.84-31.72-30.6-63.46-61.22-95.91-92.52-15.66,14.47-30.99,28.62-46.88,43.3-10.45-14.56-20.44-28.47-31.09-43.3-17.86,9.26-35.45,18.38-53.83,27.92-5.52-7.14-10.96-14.16-16.39-21.19-3.05-3.95-6.19-7.84-9.13-11.88-4.5-6.19-4.37-7.51,2.26-11.83,25.95-16.89,51.99-33.64,78.01-50.42,1.37-.88,2.89-1.52,4.44-2.32,14.67,14.69,29.12,29.17,44.4,44.47,7.9-8.78,14.89-16.54,22.69-25.2,30.37,31.75,61.04,63.8,92.3,96.48Z"/>
  <path class="st0" d="M476.81,1087.91c-10.79-4.69-20.42-8.88-30.85-13.42,20.86-38.76,41.77-77.62,63.36-117.75-13.92-6.64-27.24-12.99-41.24-19.67,4.49-13.02,8.97-26.04,13.94-40.48,23.45,12.1,45.49,24.68,68.73,37.01-19.42,39.87-38.62,79.29-58.36,119.82,18.72,10.52,37.09,20.84,55.65,31.27-10.77,14.63-20.78,28.24-31.62,42.96,14.5,14.24,28.86,28.35,43.46,42.69-10.04,13.42-18.23,27.39-29.17,41.19-28.37-23.06-55.62-45.21-83.37-67.76,9.88-18.74,19.32-36.63,29.46-55.86Z"/>
  <path class="st0" d="M2065.81,1457.5c17.59-5.61,33.68-10.74,50.69-16.17-3.33-20.11-6.57-39.68-9.9-59.82,14.01-5.01,27.72-9.94,41.45-14.81,3.87-1.37,6.54.04,7.69,3.96,1.13,3.83,2.08,7.71,3.11,11.57,6.79,25.4,13.6,50.8,20.35,76.21.84,3.17,1.35,6.43,2.23,10.67-18.51,9.13-36.9,18.2-56.12,27.68,5.74,9.83,11.04,18.89,16.94,28.98-39.71,19.14-79.67,38.41-120.45,58.07,7.47,13.62,14.46,26.34,21.91,39.93-11.23,7.94-22.75,16.08-35.21,24.88-11.34-23.7-22.2-46.42-33.68-70.42,38.86-21.16,78.03-41.41,117.52-62.73-8.95-19.57-17.61-38.49-26.54-58.01Z"/>
  <path class="st0" d="M1197.72,1935.35c-15.49-14.51-30.47-28.54-46.09-43.17-6.72,7.59-13.68,15.46-21.41,24.19-30.31-31.7-60.82-63.6-92.26-96.47-5.5,5.68-10.75,11.01-15.9,16.44-5,5.26-9.9,10.62-15.47,16.6-11.12-8.32-22.17-16.58-34.54-25.83,18.92-18.05,37.08-35.39,56.09-53.53,8.62,6.35,15.78,14.6,23.67,21.98,8.28,7.74,16.29,15.76,24.43,23.63,7.91,7.65,15.83,15.27,23.75,22.9,7.9,7.6,15.8,15.2,24.56,23.63,15.63-14.43,30.91-28.54,46.86-43.26,10.53,14.65,20.53,28.57,31.1,43.28,18.01-9.35,35.61-18.49,53.84-27.95,9.01,11.68,17.96,23.16,26.76,34.76,2.8,3.68,1.64,6.85-2.07,9.26-5.59,3.63-11.19,7.24-16.78,10.86-19.02,12.32-38.02,24.65-57.06,36.94-3.32,2.14-6.76,4.11-9.49,5.75Z"/>
  <path class="st0" d="M1765.14,1862.68c-20.85-3.56-40.76-6.95-62.12-10.6-1.12,11.03-2.17,21.39-3.36,33.13-21.24-3.02-42.8-7.69-64.5-11.44-21.93-3.79-43.79-7.95-66.92-12.18-2,15.37-3.91,30.03-5.8,44.56h-43.12c4.74-25.93,9.25-50.63,14.03-76.74,43.93,6.12,87.55,12.2,131.94,18.38,4.31-21.18,8.46-41.57,12.71-62.49,17.35,5.73,33.64,11.11,50.51,16.68,9.19-18.38,18.07-36.14,27.14-54.27,14.19,4.2,27.9,8.08,41.49,12.36,5.72,1.8,6.18,3.6,3.38,10.96-8.41,22.09-16.94,44.13-25.45,66.18-3.11,8.06-6.27,16.09-9.92,25.47Z"/>
  <path class="st0" d="M669.14,591.56c-17.94,5.73-34.03,10.86-50.72,16.19,3.36,20.35,6.6,39.91,9.89,59.84-13.75,4.91-26.81,9.76-39.99,14.21-6.37,2.15-7.92,1.12-9.88-5.89-3.31-11.86-6.36-23.79-9.51-35.69-4.43-16.73-8.88-33.45-13.26-50.19-.82-3.14-1.37-6.35-2.16-10.05,18.71-9.25,36.81-18.2,56.06-27.71-5.68-9.83-10.91-18.87-16.77-29.02,39.31-18.95,79.3-38.24,120.33-58.02-7.38-13.45-14.36-26.17-21.91-39.92,11.33-8,22.78-16.08,35.22-24.86,11.45,23.92,22.3,46.59,33.74,70.47-39.01,20.78-77.91,41.49-117.63,62.64,9.03,19.7,17.69,38.6,26.59,58Z"/>
  <path class="st0" d="M684.02,1599.25c-11.57,2.63-21.51,4.89-32.66,7.42-5.94-43.68-11.92-87.66-18.02-132.59-15.14,2.85-29.4,5.54-44.71,8.42-4.06-13.01-8.18-26.18-12.71-40.69,25.61-4.78,50.98-6.58,77.29-11.02,7.75,43.69,15.39,86.81,23.28,131.29,20.94-2.33,41.6-4.64,63.18-7.04v53.06c20.28,3.08,39.87,6.06,60.02,9.13.31,14.85.78,29.1.82,43.36.02,6-1.54,7.06-8.41,6.69-26.28-1.41-52.55-2.92-78.82-4.42-6.3-.36-12.59-.81-20-1.29-3.04-20.46-6.05-40.71-9.26-62.31Z"/>
  <path class="st0" d="M2184.18,1115.46c19.44-39.9,38.63-79.31,58.37-119.83-18.5-10.38-36.65-20.57-55.63-31.22,10.64-14.48,20.77-28.28,30.36-41.33-14.22-14.71-28.01-28.97-42.34-43.8,8.83-12.83,17.2-25.12,25.73-37.29,2.09-2.98,5.01-2.92,7.87-.82,1.07.79,2.12,1.62,3.15,2.46,23.02,18.7,46.05,37.38,69.04,56.12,2.03,1.66,3.83,3.61,6.45,6.11-9.53,18.22-19.03,36.38-28.97,55.38,10.26,4.43,19.64,8.48,30.32,13.1-2.63,7.68-7.71,14.97-11.71,22.72-4.12,7.99-8.48,15.86-12.74,23.78-4.1,7.63-8.22,15.25-12.32,22.87-4.27,7.92-8.54,15.83-12.79,23.75-4.24,7.89-8.45,15.8-13.34,24.94,13.77,6.52,27.12,12.83,41.16,19.47-4.49,13.21-8.95,26.31-13.87,40.77-23.21-12.56-45.55-24.64-68.74-37.19Z"/>
  <path class="st0" d="M2041.84,388.37c2.95,20.06,5.9,40.04,9.02,61.22,10.94-2.35,21.16-4.54,32.7-7.02,5.95,43.56,11.94,87.44,18.07,132.39,15.49-2.91,29.72-5.57,44.76-8.4,4.07,13.2,8.14,26.38,12.67,41.07-25.91,3.5-50.78,6.86-77.09,10.42-8.65-43.25-15.13-86.86-23.69-131.08-21.2,2.39-41.87,4.72-63.19,7.12v-53.14c-20.01-3.05-39.6-6.04-59.75-9.11-.41-14.41-.97-28.31-1.14-42.21-.08-6.62,1.15-7.99,7.43-7.68,31.6,1.54,63.19,3.33,94.78,5.09,1.59.09,3.14.76,5.41,1.33Z"/>
  <path class="st0" d="M825.53,1678.04c7.11-6.49,13.41-12.24,20.62-18.82,32.61,31.19,65.5,62.63,98.87,94.55,23.83-24.33,47.08-48.08,71-72.5,3.13,2.21,5.98,3.78,8.3,5.93,33.49,31.02,66.91,62.1,100.32,93.21,1.41,1.31,2.51,2.96,3.85,4.55-10.86,9.73-21.4,19.18-32.63,29.25-24.24-21.87-48.13-43.42-71.72-64.69-11.21,10.88-21.65,21.13-32.22,31.24-10.48,10.02-19.44,21.7-32.25,30.88-44.56-44.37-88.62-88.26-134.15-133.6Z"/>
  <path class="st0" d="M1606.37,264.16c11.01-9.87,21.37-19.17,32.72-29.34,24.11,21.78,47.96,43.32,72.38,65.38,20.95-21.18,41.48-41.94,62.93-63.63,45.28,45.1,89.55,89.19,134.67,134.13-3.35,3.52-6.3,6.53-9.14,9.64-2.91,3.19-5.7,6.49-9.22,10.52-18.25-15.71-34.2-32.11-50.79-47.78-16.45-15.54-32.73-31.26-49.64-47.44-2.71,2.51-5.17,4.61-7.42,6.91-19.37,19.75-38.67,39.57-58.07,59.29-6.24,6.34-7.28,6.41-13.89.29-33.99-31.47-67.91-63.04-101.83-94.59-.94-.88-1.63-2.03-2.69-3.37Z"/>
  <path class="st0" d="M543.53,847.81c4.12,2.21,7.26,4.01,10.49,5.62,23.86,11.85,47.76,23.65,71.61,35.51,9.73,4.84,9.79,4.94,5.08,15.09-18.62,40.19-37.28,80.36-55.96,120.53-1.22,2.62-2.77,5.08-4.21,7.7-12.64-7.32-24.63-14.26-37.72-21.83,12.24-29.98,26.48-58.83,39.28-89.36-26.34-13.21-52.39-26.26-79.66-39.93,28.55-57.14,57.08-112.68,85.48-168.9,9.09,2.43,16.52,7.08,25.11,11.99-19.81,41.16-39.41,81.87-59.5,123.6Z"/>
  <path class="st0" d="M784.94,473.46c-13.97-27.48-27.82-52.75-41.07-79.45,57.07-29.23,112.39-57.55,168.15-86.11,6.59,6.74,8.77,15.51,14.1,24.03-40.84,21.98-80.83,43.51-121.33,65.31,1.86,3.85,3.19,6.83,4.7,9.72,12.63,24.2,25.33,48.38,37.94,72.59,4.33,8.32,4.08,9.31-4.28,13.98-39.54,22.07-79.13,44.07-118.72,66.05-1.95,1.08-4.12,1.78-6.24,2.67-6-13.46-11.74-26.35-17.84-40.06,28.47-16.41,56.32-32.46,84.59-48.75Z"/>
  <path class="st0" d="M2007.52,549.82c15.32-1.53,29.12-2.91,43.8-4.38,6.79,31.9,13.41,63.02,20.21,94.95,29.55-3.43,57.99-10.43,88.36-13.57,10.07,62.73,19.96,124.31,29.92,186.29-2.49.87-4.27,1.79-6.16,2.11-6.52,1.12-13.08,2.03-20.82,3.21-9.24-44.96-16.01-89.87-25.13-135.06-4.67.6-8.57.97-12.44,1.62-25.94,4.35-51.85,8.83-77.8,13.13-10.59,1.75-11.18,1.28-13.2-9.02-6.85-34.95-13.63-69.92-20.45-104.88-1.59-8.17-3.27-16.32-4.81-24.5-.61-3.19-.97-6.43-1.48-9.9Z"/>
  <path class="st0" d="M1950.16,1575.52c13.25,27.42,28.08,52.27,40.44,79.76-56.33,28.85-111.88,57.29-167.8,85.93-6.19-7.02-8.82-15.26-13.6-23.74,19.86-12,40.33-22.08,60.31-33.02,20.07-10.99,40.3-21.71,60.91-32.79-15.81-30.31-31.16-59.73-46.92-89.95,3.05-2.28,5.43-4.51,8.2-6.06,39.51-22.07,79.07-44.06,118.64-66.03,1.99-1.11,4.16-1.9,6.4-2.92,5.92,13.31,11.66,26.24,17.84,40.13-28.23,16.28-56.06,32.33-84.42,48.68Z"/>
  <path class="st0" d="M597.22,1366.11c18.42-3.07,35.78-5.93,53.12-8.87,12.8-2.17,25.57-4.47,38.36-6.64,8.71-1.48,9.75-.91,11.48,7.78,6.7,33.62,13.26,67.26,19.87,100.89,2.56,13.03,5.07,26.06,7.75,39.8-14.68,1.57-28.71,3.07-44.12,4.72-6.76-31.7-13.45-63.08-20.36-95.44-29.28,4.8-57.97,9.5-88.02,14.42-10.53-63.14-20.31-125-30.15-187.68,9.32-1.61,17.4-3.01,26.94-4.65,9.14,44.97,16.12,89.83,25.13,135.66Z"/>
  <path class="st0" d="M1265.79,285.77c-2.52.61-4.49,1.67-6.31,1.45-48.46-5.81-96.9-11.74-145.69-17.7,3.12-14.77,5.99-28.32,9.12-43.1,32.16,2.26,63.93,6.92,96.96,9.73,1.36-8.19,2.73-15.93,3.91-23.7,2.74-18.1,5.33-36.21,8.14-54.3.49-3.16,1.74-6.2,2.86-10.07,62.11,9.71,123.46,19.29,185.2,28.94,1.65,9.06-1.49,17.25-2.53,26.49-3.68,0-7.24.4-10.68-.06-40.56-5.49-81.1-11.11-121.66-16.67-.97-.13-1.97-.02-4.44-.02-4.94,32.91-9.91,65.93-14.88,99Z"/>
  <path class="st0" d="M1313.47,1871.75c1.49-9.72,2.76-18.1,4.19-27.42,45.89,6.19,90.61,12.23,136.56,18.43,5.1-33.92,10.06-66.96,15.22-101.26,51.3,5.28,101.26,12.11,151.88,17.97-3.26,14.92-6.26,28.66-9.5,43.46-32.35-3.37-64.04-6.67-96.87-10.08-4.5,29.23-8.92,57.96-13.56,88.14-63.11-9.38-124.69-19.38-187.92-29.23Z"/>
  <path class="st0" d="M2164.53,1016.81c12.6,7.33,24.84,14.46,37.85,22.03-13.18,29.58-26.14,58.66-39.48,88.58,2.77,1.64,5.16,3.26,7.72,4.54,20.24,10.13,40.55,20.15,60.77,30.33,3.47,1.75,6.64,4.11,10.74,6.68-28.46,56.13-56.56,111.56-85.13,167.91-8.94-2.51-16.41-7.12-25.13-11.91,19.89-41.35,39.58-82.29,59.51-123.72-3.7-2-6.55-3.64-9.48-5.1-24.15-12-48.32-23.95-72.46-35.97-9.25-4.6-9.69-5.47-5.6-14.32,19.14-41.39,38.39-82.74,57.64-124.08.82-1.75,2.02-3.33,3.04-4.98Z"/>
</svg>