<?xml version="1.0" encoding="UTF-8"?>
<svg id="Layer_0_xA0_Image" xmlns="http://www.w3.org/2000/svg" version="1.1" viewBox="0 0 2732 2048">
  <!-- Generator: Adobe Illustrator 30.2.1, SVG Export Plug-In . SVG Version: 2.1.1 Build 1)  -->
  <defs>
    <style>
      .st0 {
        fill: #bcaa94;
      }
    </style>
  </defs>
  <path class="st0" d="M1951.55,814.15c.88-3.5,1.75-7.39,2.84-11.22,12.76-44.84,25.59-89.67,38.3-134.53,1.63-5.74,2.68-11.64,4.03-17.45,1.01-4.35,2.99-5.47,7.15-3.76,2.14.88,4.12,2.18,6.15,3.33,78.83,44.7,157.65,89.4,236.48,134.1,1.16.66,2.33,1.29,3.47,1.99,8.48,5.2,9.19,7.54,4.1,15.97-17.2,28.54-34.49,57.01-51.75,85.51-29.86,49.3-59.72,98.6-89.59,147.9-1.21,1.99-2.37,4.02-3.63,5.98-2.49,3.87-5.53,4.53-9.11,1.41-1.5-1.32-2.97-2.68-4.43-4.04-37.23-34.84-74.4-69.75-111.75-104.46-5.63-5.23-8.97-11.12-10.55-18.66-6.61-31.62-13.62-63.16-20.46-94.73-.49-2.27-.79-4.59-1.26-7.35Z"/>
  <path class="st0" d="M1917.38,1304.86c.81-2.66,1.61-6.59,3.18-10.18,13.21-30.21,26.66-60.32,39.77-90.58,2.39-5.51,6.27-9.23,10.77-12.75,35.44-27.71,70.88-55.43,106.24-83.24,6.52-5.13,12.79-10.59,18.99-16.11,2.99-2.66,5.36-2.39,7.4.73,1.27,1.93,2.11,4.15,3.08,6.27,37.5,82.48,75,164.96,112.5,247.44.69,1.52,1.43,3.01,2.05,4.55,3.67,9,2.81,11.32-6.43,15.21-84.73,35.67-169.47,71.3-254.23,106.91-9.1,3.82-10.7,2.92-12.61-6.93-9.86-51.01-19.69-102.03-29.51-153.05-.44-2.28-.68-4.61-1.2-8.26Z"/>
  <path class="st0" d="M1276.08,1633.48c26.32,2.65,49.52,4.97,72.71,7.32,9.28.94,18.53,2.44,27.83,2.8,7.38.29,13.4,2.91,19.34,6.93,38.63,26.13,77.34,52.14,116.08,78.11,5.22,3.5,10.75,6.55,16.17,9.76,4.01,2.38,4.51,4.33,1.55,7.89-1.48,1.78-3.34,3.25-5.06,4.82-66.88,61.16-133.76,122.32-200.64,183.48-.74.67-1.46,1.36-2.21,2.02-8.47,7.46-10.62,7.4-17.85-.95-20.07-23.17-40.1-46.37-60.13-69.57-39.18-45.4-78.36-90.81-117.53-136.22-1.52-1.77-3.07-3.51-4.56-5.31-2.95-3.56-2.58-6.66,1.41-9.14,1.98-1.23,4.02-2.36,6.06-3.49,44.32-24.48,88.59-49.02,133.01-73.31,5.07-2.77,10.93-4.09,13.82-5.14Z"/>
  <path class="st0" d="M817.73,744.09c-.99,3.08-1.82,6.68-3.27,9.99-13.36,30.51-26.67,61.04-40.46,91.35-2.08,4.58-6,8.78-10.01,11.96-36.84,29.15-73.92,58.01-110.86,87.03-4.95,3.89-9.56,8.21-14.31,12.35-3.4,2.96-5.63,2.76-8.06-1.02-1.07-1.67-1.74-3.59-2.56-5.41-37.47-82.48-74.93-164.96-112.4-247.44-.55-1.21-1.14-2.41-1.67-3.63-4.37-10.24-3.56-12.48,6.53-16.74,28.23-11.91,56.49-23.75,84.73-35.62,55.57-23.36,111.14-46.72,166.71-70.08,1.23-.52,2.45-1.05,3.7-1.51,7.16-2.64,8.87-1.94,10.45,5.39,2.45,11.39,4.55,22.86,6.75,34.31,7.79,40.55,15.57,81.11,23.34,121.66.44,2.28.85,4.57,1.38,7.4Z"/>
  <path class="st0" d="M757.97,1455.14c-1-15.41-.26-16.24,11.9-14.72,50.88,6.38,101.74,12.89,152.64,19.09,6.98.85,12.62,3.39,17.77,8.02,24.26,21.85,48.56,43.64,73.04,65.24,4.49,3.96,6.88,8.72,8.85,14.11,16.63,45.67,33.35,91.31,50.07,136.94,1.37,3.75,2.78,7.49,4.47,11.1,3.23,6.9,2.6,8.26-5.25,9.29-8.58,1.13-17.19,2.11-25.79,3.08-49.63,5.59-99.27,11.14-148.9,16.73-32.76,3.69-65.51,7.42-98.27,11.14-1.32.15-2.64.38-3.97.5-10.93,1.01-13.16-.67-14.09-11.39-2.18-25.22-4.2-50.45-6.32-75.67-4.49-53.43-9.01-106.86-13.49-160.28-.98-11.62-1.87-23.24-2.67-33.19Z"/>
  <path class="st0" d="M1655.18,347.05c4.03-1.05,7.05-2.23,10.16-2.58,49.3-5.6,98.62-11.07,147.93-16.61,41.37-4.64,82.73-9.33,124.1-13.99,1.99-.22,3.98-.49,5.97-.56,7.96-.25,10.1,1.5,10.79,9.46,2.68,30.86,5.25,61.73,7.86,92.59,4.43,52.44,8.86,104.87,13.29,157.31.76,8.96,1.61,17.91,2.28,26.88.65,8.73-.88,10.33-9.28,9.3-47.92-5.9-95.84-11.85-143.75-17.86-24.51-3.08-18.72.41-40.13-18.73-20.11-17.99-40.09-36.13-60.44-53.86-5.77-5.03-9.36-10.86-11.92-17.93-16.44-45.39-33.08-90.7-49.72-136.02-1.93-5.25-4.24-10.36-7.14-17.42Z"/>
  <path class="st0" d="M1616.5,329.61c-3.25,2.4-5.65,4.61-8.42,6.14-45.73,25.34-91.52,50.56-137.27,75.88-5.76,3.19-11.63,4.09-18.23,3.38-30.46-3.28-60.95-6.34-91.45-9.17-8.84-.82-16.55-3.37-24.01-8.46-39.61-27.03-79.5-53.67-119.32-80.41-3.3-2.22-6.78-4.19-10.24-6.16-4.97-2.82-5.35-4.72-1.45-9.04,1.33-1.48,2.92-2.73,4.39-4.08,66.62-60.92,133.24-121.85,199.86-182.77,1.23-1.12,2.43-2.28,3.7-3.36,7.4-6.26,9.95-6.14,16.46,1.39,60.11,69.57,120.19,139.16,180.24,208.78,1.89,2.19,3.42,4.67,5.73,7.87Z"/>
  <path class="st0" d="M736.9,1401.49c-5,2.69-8.34-1-11.9-3.01-53.64-30.32-107.23-60.72-160.83-91.1-25.5-14.45-50.99-28.92-76.47-43.4-2.31-1.31-4.72-2.56-6.76-4.23-3.17-2.59-4.21-5.95-2.13-9.78,1.27-2.34,2.68-4.6,4.06-6.88,46.58-76.92,93.17-153.84,139.76-230.76,1.04-1.71,2.08-3.42,3.14-5.11,2.47-3.92,5.53-4.52,9.13-1.53,1.54,1.27,2.98,2.66,4.44,4.03,37.46,35.05,74.87,70.17,112.45,105.09,5.14,4.78,8.26,10.23,9.7,16.96,6.76,31.58,13.48,63.16,20.49,94.69,1.36,6.1.88,11.71-.81,17.6-13.42,46.72-26.71,93.47-39.99,140.23-1.62,5.69-2.88,11.49-4.3,17.22Z"/>
  <path class="st0" d="M811.98,535.34c2.12-10.61,4.23-21.4,6.43-32.16,16.51-80.58,33.04-161.17,49.56-241.75.33-1.63.53-3.3,1.02-4.89,2.14-6.96,4.5-8.54,11.77-6.93,15.93,3.53,31.81,7.29,47.7,11.01,73.28,17.18,146.55,34.38,219.82,51.56,13.54,3.18,13.78,3.6,7.77,16.44-21.46,45.86-43.02,91.67-64.33,137.59-3.24,6.99-7.93,11.94-14.57,15.75-27.75,15.9-55.37,32.02-82.94,48.24-4.76,2.8-9.57,4.2-15.06,4.39-49.29,1.72-98.57,3.57-147.86,5.44-4.3.16-8.59.71-12.86,1.23-5.18.62-6.64-.61-6.45-5.93Z"/>
  <path class="st0" d="M1922.9,1514.13c-3.19,15.74-6.41,31.73-9.68,47.71-15.08,73.71-30.2,147.42-45.24,221.13-3.83,18.79-3.92,18.97-21.89,14.75-86.86-20.4-173.7-40.83-260.56-61.24-1.94-.46-3.93-.76-5.84-1.34-3.94-1.2-5.21-3.9-3.84-7.73.78-2.19,1.78-4.31,2.76-6.42,21.47-45.83,43.05-91.61,64.32-137.54,3.39-7.32,8.14-12.55,15.11-16.54,27.18-15.53,54.25-31.26,81.17-47.24,6.27-3.72,12.59-5.35,19.79-5.58,46.28-1.44,92.56-3.1,138.83-4.78,6.31-.23,12.59-1,18.89-1.52,5.24-.43,6.59.9,6.17,6.32Z"/>
  <path class="st0" d="M1341.28,1951.18c3.19-4.16,5.48-8.2,8.73-11.2,66.14-61.01,132.41-121.88,198.57-182.86,4.04-3.73,7.78-4.88,13.42-3.51,89.01,21.56,178.08,42.85,267.14,64.2.65.16,1.32.21,1.96.38,3.02.75,6.44,1.93,5.62,5.53-.41,1.79-3.55,3.65-5.79,4.24-29.27,7.84-58.61,15.45-87.93,23.13-129.18,33.85-258.36,67.71-387.55,101.56-4.06,1.06-8.15,3.11-14.19-1.46Z"/>
  <path class="st0" d="M755.83,1708.67c.05,1,.45,2.15.08,2.96-.99,2.18-2.31,4.21-3.49,6.3-1.82-1.16-4.27-1.91-5.36-3.56-7.36-11.1-14.4-22.41-21.6-33.63-80.96-126.14-161.94-252.26-242.89-378.4-1.98-3.08-4.1-6.13-5.56-9.46-1.46-3.36.79-6.56,4.24-5.73,4.45,1.07,8.85,2.88,12.85,5.13,52.86,29.66,105.65,59.45,158.46,89.2,24.08,13.57,48.1,27.26,72.32,40.57,6.14,3.37,8.95,7.33,9.51,14.68,5.45,72.4,11.37,144.77,17.13,217.15,1.45,18.26,2.79,36.53,4.18,54.8.05,0,.1,0,.15-.01Z"/>
  <path class="st0" d="M492.81,714.5c6.24,1.94,8.09,7.5,10.4,12.54,27.05,59.01,54.06,118.04,81.09,177.07,9.98,21.79,19.8,43.66,30.06,65.32,2.72,5.75,2.5,10.2-.88,15.7-47.64,77.42-95.07,154.98-142.55,232.5-.7,1.14-1.14,2.59-2.13,3.34-1.71,1.3-3.75,2.16-5.65,3.2-1.06-2.14-3.1-4.31-3.01-6.4.61-15.64,1.62-31.26,2.53-46.89,2.46-42.22,4.92-84.45,7.38-126.67,3.72-63.83,7.48-127.67,11.16-191.5,2.4-41.56,4.64-83.13,7.08-124.69.28-4.72-1.05-10.22,4.52-13.53Z"/>
  <path class="st0" d="M1890.35,1780.8c1.31-6.8,2.65-14,4.1-21.18,16.58-82.27,33.24-164.51,49.64-246.81,1.38-6.94,4.43-10.83,11.11-13.57,83.47-34.34,166.8-69,250.2-103.49,3.71-1.53,8.24-5.64,11.52-.49,2.81,4.41-2.43,7-4.75,9.85-102.51,125.37-205.11,250.67-307.7,375.98-1.69,2.06-3.14,4.44-5.2,6.03-1.62,1.25-4.14,2.27-6.01,1.95-1.13-.19-1.9-3.1-2.6-4.87-.35-.89-.2-1.97-.3-3.38Z"/>
  <path class="st0" d="M843.51,260.16c0,5.14.76,9.86-.11,14.24-17.45,87.14-35.17,174.22-52.51,261.39-1.47,7.39-4.56,11.38-11.59,14.27-83.12,34.18-166.11,68.69-249.14,103.1-2.45,1.02-4.9,2.26-7.48,2.71-4.08.72-6.38-2.51-4.51-6.19.88-1.74,2.4-3.16,3.67-4.7,102.95-125.76,205.89-251.53,308.92-377.23,2.9-3.54,4.84-9.18,12.75-7.6Z"/>
  <path class="st0" d="M2260.51,1078.85c-4.29,75.49-8.57,150.98-12.88,226.47-.44,7.65-.84,15.31-1.69,22.92-.22,1.99-1.67,4.88-3.21,5.39-1.49.49-4.35-1.09-5.65-2.59-2.12-2.47-3.72-5.49-5.1-8.49-36.92-80.51-73.71-161.08-110.81-241.5-3.15-6.83-3-11.88.99-18.36,47.36-76.83,94.41-153.86,141.61-230.79,1.95-3.18,3.2-8.63,8.27-6.99,5.21,1.68,2.64,6.82,2.43,10.52-3.52,63.19-7.11,126.38-10.71,189.56-1.02,17.96-2.15,35.91-3.22,53.87-.01,0-.02,0-.04,0Z"/>
  <path class="st0" d="M1979.82,346.9c-.29-3.65-.93-7.32-.72-10.94.09-1.64,1.56-4.03,2.96-4.54,1.29-.47,3.57.81,4.96,1.9,1.23.97,1.81,2.74,2.71,4.14,87.59,136.5,175.17,272.99,262.76,409.49,1.62,2.52,3.52,4.93,4.7,7.64.71,1.64,1.1,4.7.2,5.47-1.44,1.24-4.3,1.92-6.12,1.38-3.77-1.11-7.39-2.96-10.85-4.9-60.09-33.78-120.14-67.61-180.2-101.43-16.25-9.15-32.28-18.73-48.85-27.25-7.91-4.07-10.6-9.52-11.17-18-2.23-33.22-5.1-66.41-7.7-99.61-4.26-54.45-8.48-108.9-12.72-163.35,0,0,.02,0,.03,0Z"/>
  <path class="st0" d="M1178.74,296.73c-3.62-.88-5.88-1.44-8.15-1.98-87.43-20.94-174.86-41.88-262.28-62.84-2.58-.62-5.26-1.15-7.61-2.3-1.22-.6-2.49-2.48-2.5-3.79,0-1.26,1.32-2.98,2.53-3.7,1.66-.99,3.76-1.26,5.69-1.77,157.17-41.22,314.34-82.42,471.51-123.63,2.26-.59,4.51-1.48,6.79-1.59,2.14-.1,5.91.23,6.15,1.13.58,2.17.19,5.2-1.03,7.11-1.93,3.02-4.7,5.57-7.38,8.04-49.02,45.15-98.07,90.25-147.12,135.37-16.19,14.89-32.32,29.83-48.6,44.61-2.56,2.32-5.8,3.89-8.01,5.34Z"/>
  <path class="st0" d="M1648.81,325.61c-5.77.99-8.13-3.01-10.91-6.27-21.01-24.56-42.02-49.13-63.01-73.7-37.66-44.08-75.32-88.17-112.98-132.25-1.3-1.52-3.03-2.85-3.8-4.6-.85-1.91-1.73-4.75-.88-6.18.7-1.19,3.86-1.07,5.96-1.21.9-.06,1.84.69,2.77,1.06,152.02,59.3,304.04,118.59,456.06,177.89,1.24.48,2.48.97,3.7,1.51,2.96,1.33,7.48,2.29,6.09,6.35-.81,2.38-4.73,4.75-7.56,5.2-11.83,1.89-23.77,3.09-35.68,4.47-61.54,7.16-123.08,14.3-184.62,21.43-18.53,2.15-37.07,4.22-55.14,6.27Z"/>
  <path class="st0" d="M801.85,1760.95c4.23-5.34,9.69-5.76,14.87-6.37,30.09-3.57,60.2-6.97,90.3-10.46,49.95-5.78,99.89-11.58,149.84-17.36,8.6-1,17.26-1.63,25.8-2.98,6.35-1.01,10.46,1.14,14.58,6,37.49,44.2,75.22,88.2,112.88,132.26,20.78,24.31,41.54,48.63,62.3,72.95.65.76,1.31,1.51,1.96,2.27,2.31,2.75,6.06,5.63,3.21,9.41-2.94,3.89-6.74.56-9.95-.69-151.06-58.86-302.11-117.76-453.14-176.73-4.43-1.73-9.82-2.33-12.65-8.29Z"/>
  <path class="st0" d="M885.86,1003.66c0,9.99-.37,19.99.12,29.95.38,7.62-2.37,11.61-9.42,15.22-30.51,15.63-60.57,32.13-90.82,48.28-11.54,6.16-12.38,6.07-22.03-2.21-39.43-33.82-78.84-67.65-118.26-101.48-1.26-1.08-2.59-2.11-3.75-3.29-4.73-4.86-4.72-7.17.1-11.59,1.47-1.35,3.13-2.48,4.72-3.69,41.62-31.63,83.24-63.26,124.87-94.87,10.43-7.92,11.75-7.94,21.25.46,30.42,26.92,60.75,53.95,91.26,80.77,3.14,2.76,4.12,5.6,4.07,9.52-.16,10.98-.05,21.96-.05,32.94-.68,0-1.37,0-2.05,0Z"/>
  <path class="st0" d="M1329.41,426.93c-.39.96-1.55,4.06-2.87,7.09-16.09,36.93-32.29,73.81-48.21,110.82-1.65,3.83-3.87,5.89-7.65,6.97-21.77,6.19-43.54,12.4-65.26,18.74-3.88,1.13-6.59.75-9.75-2.35-25.47-24.92-51.2-49.59-76.83-74.34-9.62-9.3-9.79-10.1-4.6-22.55,19.74-47.31,39.51-94.62,59.26-141.93.9-2.15,1.63-4.39,2.76-6.42,2.92-5.23,5.29-5.85,10.52-2.91,1.45.81,2.77,1.84,4.14,2.79,43.78,30.38,87.56,60.76,131.31,91.17,3.75,2.61,8.43,4.68,7.16,12.92Z"/>
  <path class="st0" d="M1258.34,1609.23c-1.33,2.05-3,5.15-5.19,7.82-1.2,1.46-3.3,2.2-5,3.24-44.35,27.04-88.71,54.08-133.06,81.12-1.71,1.04-3.37,2.17-5.17,3.03-5.44,2.58-7.67,1.79-10.27-3.66-.85-1.79-1.39-3.74-2.05-5.63-17.33-49.65-34.66-99.31-51.97-148.97-4.04-11.59-3.54-13.18,6.88-19.33,35.28-20.81,70.63-41.48,105.85-62.37,3.31-1.96,6.06-1.85,9.37-.64,21.26,7.78,42.54,15.47,63.83,23.16,3.65,1.32,5.87,3.13,6.62,7.59,5.98,35.45,12.34,70.83,18.58,106.23.4,2.29.85,4.57,1.56,8.41Z"/>
  <path class="st0" d="M1746.54,724.62c16.48-33.93,32.61-67.15,48.76-100.37,6-12.35,7-12.67,20.88-11.5,45.79,3.84,91.59,7.51,137.39,11.25,6.31.52,12.61,1.01,18.91,1.65,9.53.97,11.04,3.02,8.33,12.17-6.71,22.66-13.6,45.26-20.42,67.88-8.65,28.68-17.28,57.36-25.95,86.03-3.59,11.86-5.31,12.79-17.9,11.55-39.76-3.95-79.52-7.82-119.3-11.57-3.85-.36-7.1-.94-9.42-4.41-13.48-20.22-27.05-40.38-40.56-60.58-.36-.53-.43-1.25-.7-2.08Z"/>
  <path class="st0" d="M1477.13,442.05c-.17-4.88,1.6-8.48,5.79-10.95,6.02-3.54,11.94-7.27,17.91-10.91,38.94-23.73,77.88-47.46,116.83-71.19,1.42-.87,2.82-1.78,4.26-2.61,8.76-5.05,11.27-4.27,14.59,5.21,17.93,51.19,35.8,102.39,53.62,153.62,3.14,9.03,2.25,11.12-7.2,16.68-31.55,18.58-63.55,36.44-94.55,55.88-11.66,7.32-21.33,8.69-33.91,3.06-16.05-7.19-33.01-12.38-49.64-18.23-4.79-1.68-7.42-3.92-8.36-9.59-5.53-33.48-11.66-66.87-17.57-100.29-.64-3.6-1.19-7.22-1.76-10.69Z"/>
  <path class="st0" d="M1849.45,1045.44c0-11.66.01-23.31,0-34.97,0-4.02,1.54-6.42,5.44-8.46,31.58-16.52,62.99-33.38,94.46-50.12,11.32-6.02,12.34-5.9,22.04,2.42,39.21,33.64,78.41,67.28,117.61,100.93,10.49,9,10.4,10.64-1,19.31-28.65,21.78-57.32,43.55-85.97,65.32-13.27,10.08-26.51,20.19-39.81,30.23-8.74,6.6-10.75,6.63-18.96-.64-27.21-24.07-54.32-48.25-81.47-72.39-3.24-2.88-6.25-6.11-9.82-8.49-4.26-2.83-4.97-6.51-4.86-11.17.25-10.65.08-21.32.08-31.98.76,0,1.52,0,2.28,0Z"/>
  <path class="st0" d="M1405.68,1622.42c.1-.3.8-2.87,1.84-5.28,16.43-37.84,32.94-75.65,49.3-113.52,1.48-3.42,3.63-5.19,7.11-6.18,21.75-6.2,43.46-12.57,65.2-18.84,3.61-1.04,6.65-1.14,9.92,2.06,25.93,25.37,52.14,50.47,78.22,75.69,8.09,7.82,8.38,9.47,3.95,20.12-19.96,47.91-39.95,95.81-59.92,143.71-.64,1.54-1.21,3.11-1.95,4.59-3.38,6.71-6.1,7.61-12.56,3.27-12.16-8.16-24.12-16.61-36.15-24.96-32.54-22.58-65.09-45.15-97.6-67.78-3.72-2.59-8.48-4.6-7.35-12.88Z"/>
  <path class="st0" d="M1842.63,1490.09c-26.29.6-52.59,1.26-78.89,1.79-11.55.23-13.35-1.16-15.73-11.95-8.83-39.96-17.52-79.95-26.49-119.88-.81-3.62-.62-6.36,1.63-9.24,14.16-18.09,28.26-36.22,42.35-54.37,2.43-3.13,4.95-4.3,9.35-3.65,35.55,5.27,71.15,10.16,106.75,15.1,11.2,1.55,12.84,2.74,15.41,13.51,12.22,51.13,24.36,102.28,36.5,153.42.46,1.94.87,3.92,1.03,5.9.36,4.34-1.5,7.05-6.05,7.42-1.99.16-3.99.17-5.99.22-26.63.65-53.25,1.29-79.88,1.94,0-.07,0-.14,0-.2Z"/>
  <path class="st0" d="M918.49,1436.15c-51.76-4.15-103.52-8.27-155.27-12.47-10.08-.82-11.89-3.24-9.08-12.61,15.69-52.26,31.47-104.49,47.31-156.7,2.43-8.02,4.26-9.37,13.12-8.67,17.58,1.4,35.14,3.17,52.69,4.9,23.52,2.31,47.01,4.9,70.55,6.92,4.87.42,7.92,2.06,10.56,6.01,12.19,18.28,24.57,36.43,36.9,54.61,2.33,3.44,3.47,6.36,1.21,10.89-15.6,31.26-30.76,62.74-46.05,94.16q-6.76,13.88-21.94,12.96Z"/>
  <path class="st0" d="M893.15,557.32c25.96,0,51.92.06,77.88-.03,12.07-.04,13.45.75,16.1,12.74,8.34,37.67,16.19,75.46,25.08,113.01,2.1,8.88.37,14.89-5.17,21.6-12.5,15.13-24.43,30.75-36.27,46.42-3.47,4.59-7.01,5.74-12.73,4.89-33.57-4.98-67.21-9.47-100.82-14.14-1.98-.27-3.93-.79-5.92-.91-7.85-.47-11.62-4.75-13.31-12.31-4.78-21.42-10.05-42.74-15.12-64.1-6.99-29.45-13.97-58.91-20.96-88.36-.38-1.62-.87-3.21-1.19-4.85-1.48-7.78.36-10.11,8.56-10.73,2.32-.18,4.66-.13,6.99-.17,25.63-.45,51.25-.91,76.88-1.36,0-.57,0-1.14,0-1.7Z"/>
  <path class="st0" d="M904.42,1006.53c0-9.32.44-18.68-.13-27.97-.56-9.06,3.22-13.99,11.5-17.39,32.64-13.4,65.08-27.28,97.59-40.97,6.44-2.71,12.95-5.28,19.32-8.14,4.19-1.88,7.74-1.24,10.99,1.78,1.95,1.81,3.87,3.66,5.73,5.56,29.37,29.97,58.73,59.95,88.09,89.94,1.4,1.43,2.79,2.87,4.17,4.31,3.12,3.24,2.91,6.53-.04,9.7-1.58,1.7-3.32,3.27-5.08,4.78-31.33,26.91-62.65,53.81-94.01,80.68-8.15,6.98-10.14,7.28-19.52,2.09-37.86-20.97-75.63-42.1-113.54-62.97-4.08-2.25-5.73-4.89-5.64-9.43.2-10.65.07-21.31.07-31.97.17,0,.34,0,.51,0Z"/>
  <path class="st0" d="M1051.58,902c-7.64.39-9-.36-13.82-10.69-18.13-38.92-36.07-77.94-54.42-116.76-2.47-5.22-1.21-8.63,1.82-12.65,12.04-15.95,24.09-31.88,35.77-48.09,4.52-6.27,9.48-8.12,17.09-6.28,35.91,8.67,71.92,16.91,107.89,25.31,4.21.98,8.41,2.02,12.62,3.02,10.56,2.5,11.55,3.55,13.19,14.44,1.93,12.84,3.81,25.68,5.69,38.53,4.38,29.97,8.77,59.94,13.1,89.92,1.48,10.25.05,12.02-10.69,12.95-14.59,1.27-29.2,2.36-43.81,3.53-27.22,2.18-54.43,4.36-84.43,6.76Z"/>
  <path class="st0" d="M1291.02,1234.61c1.52,1,3.57,1.72,4.61,3.18,1.72,2.4,2.96,5.19,4.11,7.94,15.78,37.77,31.53,75.56,47.26,113.35,4.38,10.53,4.09,12.37-4.12,20.03-31.66,29.53-63.43,58.93-95,88.55-3.15,2.96-6.07,3.6-9.88,2.31-20.49-6.94-40.96-13.92-61.48-20.75-6.47-2.15-8.15-7.02-8.65-13.11-1.76-21.57-3.74-43.12-5.55-64.68-1.69-20.24-2.99-40.52-5.05-60.72-.73-7.18,1.8-11.24,7.92-14.26,39.99-19.75,79.92-39.63,119.88-59.44,1.78-.88,3.68-1.49,5.94-2.4Z"/>
  <path class="st0" d="M1696.14,924.24c-19.62-3.29-36.7-6.12-53.76-9.02-25.6-4.34-51.19-8.72-76.79-13.07-1.31-.22-2.65-.31-3.96-.54-11.14-1.97-12.3-3.44-9.67-14.62,9.68-41.15,19.66-82.22,29.18-123.41,1.73-7.49,6.01-10.55,13.02-11.38,39.67-4.72,79.34-9.5,119.01-14.25.66-.08,1.38.02,1.98-.21,12.44-4.63,19.27,1.59,25.62,11.64,9.06,14.34,19.21,28.02,29.37,41.62,4.73,6.33,4.56,11.72.58,18.24-21.87,35.81-43.52,71.74-65.18,107.68-2.78,4.61-5.83,8.28-9.39,7.31Z"/>
  <path class="st0" d="M1177.84,729.1c2.2-11.44,4.35-22.88,6.6-34.3,6.43-32.66,13.02-65.28,19.2-97.99.94-4.96,2.83-7.59,7.61-9.05,20.38-6.19,40.7-12.59,61-19.04,5.06-1.61,9.15-.37,12.71,3.28,1.39,1.43,2.69,2.95,4,4.46,26.55,30.76,52.94,61.65,79.77,92.17,5.27,6,5.8,10.98,2.18,17.83-20.54,38.85-40.76,77.87-61.17,116.79-4.37,8.34-6.65,9.05-14.86,4.07-36.73-22.26-73.35-44.72-110.07-67-4.37-2.65-7.28-5.78-6.96-11.22Z"/>
  <path class="st0" d="M1556.97,1319.55c-.46,2.96-.82,5.94-1.4,8.88-8.06,41.15-16.28,82.28-24.07,123.48-1.13,5.96-4.15,8.36-9.39,9.95-19.11,5.79-38.22,11.62-57.17,17.91-7.51,2.49-12.6.41-17.48-5.33-17.91-21.05-36.07-41.89-54.14-62.81-8.92-10.33-17.87-20.65-26.77-31.01-6.87-7.99-7.01-8.99-2.13-18.57,4.39-8.6,8.94-17.11,13.41-25.67,15.28-29.2,30.55-58.41,45.83-87.61,1.23-2.36,2.44-4.74,3.83-7,1.83-2.98,4.48-3.86,7.71-2.38,2.11.97,4.23,1.95,6.21,3.16,35.84,21.81,71.63,43.69,107.51,65.44,4.53,2.74,8.3,5.63,8.03,11.57Z"/>
  <path class="st0" d="M1673.58,1147.88q18.52-1.24,25.61,14.03c17.38,37.44,34.62,74.94,52.28,112.25,2.41,5.09,1.76,8.47-1.37,12.59-12.07,15.92-24.21,31.81-35.74,48.11-4.82,6.81-10.29,8.48-17.97,6.6-18.74-4.61-37.56-8.94-56.35-13.34-21.06-4.93-42.06-10.19-63.24-14.55-8.53-1.76-12.31-5.72-13.5-14.33-4.79-34.62-10.14-69.16-15.28-103.73-1.27-8.56-2.7-17.1-3.8-25.68-1.25-9.7-.1-11.24,9.52-12.12,20.89-1.91,41.79-3.64,62.7-5.35,19.58-1.6,39.17-3.08,57.14-4.48Z"/>
  <path class="st0" d="M1830.26,1043.2c0,9.66-.4,19.34.13,28.96.44,7.94-3.03,12.31-10.04,15.21-22.46,9.27-44.81,18.8-67.21,28.21-15.34,6.45-30.69,12.88-46.04,19.31-11.45,4.8-11.75,4.79-20.7-4.32-22.4-22.81-44.75-45.66-67.13-68.5-7.22-7.37-14.46-14.74-21.67-22.12-9.08-9.29-9.11-10.5.55-18.82,25.23-21.73,50.53-43.38,75.81-65.06,6.82-5.85,13.81-11.54,20.41-17.63,4.63-4.27,9.36-4.52,14.63-1.87,2.38,1.2,4.68,2.54,7.01,3.84,36.36,20.23,72.66,40.57,109.16,60.56,4.59,2.52,6.04,5.51,5.97,10.28-.15,10.65-.05,21.31-.05,31.96-.28,0-.56,0-.83,0Z"/>
  <path class="st0" d="M1006.74,1313.14c-1.04-.7-3.68-1.66-5.04-3.54-13.06-18.09-25.87-36.34-38.82-54.51-2.64-3.7-2.47-7.48-.73-11.33.95-2.11,2.26-4.07,3.46-6.06,20.84-34.47,41.92-68.8,62.38-103.5,4.5-7.63,9.62-9.74,17.92-8.29,43.28,7.53,86.62,14.71,129.92,22.11,8.39,1.43,9.64,3.81,7.32,13.67-6.63,28.18-13.38,56.33-20.07,84.5-3.08,12.95-6.41,25.85-9.12,38.87-1.52,7.33-5.51,10.76-12.78,11.61-25.13,2.94-50.22,6.14-75.33,9.19-17.84,2.17-35.7,4.25-53.54,6.38-1.32.16-2.63.43-5.56.91Z"/>
  <path class="st0" d="M1577.78,740.22c1.55,6.57-2.91,9.76-8.32,12.45-17.9,8.87-35.76,17.81-53.65,26.7-21.46,10.67-42.92,21.35-64.42,31.94-9.1,4.48-11.18,3.85-15.12-5.52-16.64-39.58-33.06-79.26-49.72-118.84-2.42-5.74-1.32-10.31,2.86-14.5,1.18-1.18,2.4-2.31,3.62-3.44,31.23-29.02,62.51-57.99,93.6-87.15,3.33-3.12,6.15-4.26,10.59-2.71,20.12,7,40.28,13.88,60.53,20.48,6,1.96,8.56,5.84,9.08,11.67.76,8.62,1.55,17.24,2.27,25.87,2.89,34.18,5.75,68.35,8.67,103.05Z"/>
  <path class="st0" d="M1151.46,1439.26c1.29,8.11-1.83,12.51-7.7,15.84-36.2,20.55-72.3,41.29-108.49,61.85-7.67,4.35-9.47,4.07-15.95-1.81-21.7-19.71-43.34-39.5-64.95-59.31-6.33-5.8-6.46-6.12-3.22-13.71,15.4-36.14,31-72.2,46.28-108.39,2.43-5.75,6.02-7.75,12.08-8.17,40.2-2.79,80.38-5.94,120.57-8.96,10.39-.78,12.13.46,13.06,11.31,1.75,20.24,3.15,40.51,4.66,60.77,1.28,17.27,2.5,34.55,3.66,50.58Z"/>
  <path class="st0" d="M1293.1,552.71c1.11-3.23,1.78-5.79,2.85-8.18,16.9-37.64,33.81-75.28,50.82-112.87,3.63-8.02,5.45-9.1,13.8-8.2,28.79,3.09,57.57,6.25,86.33,9.58,9.78,1.13,9.88,1.36,12.14,11.22,8.45,36.97,16.62,74.01,25.37,110.92,1.72,7.24-.02,11.61-5.59,16.25-30.2,25.13-60.1,50.6-90.11,75.95-1.53,1.29-3.04,2.59-4.65,3.77-3.81,2.79-7.37,2.67-10.52-1.1-.64-.77-1.31-1.51-1.96-2.27-24.33-28.69-48.7-57.35-72.94-86.12-2.26-2.68-3.75-6.01-5.53-8.94Z"/>
  <path class="st0" d="M1376.13,1625.95c-31.44-3.51-60.87-6.89-90.32-9.97-5.59-.58-8.2-3.2-9.38-8.43-8.63-38.29-17.32-76.57-26.17-114.82-1.46-6.32.34-10.46,5.35-14.64,30.44-25.35,60.61-51.02,90.87-76.58,1.52-1.29,3.06-2.57,4.67-3.74,3.45-2.5,6.78-2.49,9.78.78,1.35,1.47,2.64,3,3.93,4.52,23.47,27.67,46.76,55.5,70.54,82.9,5.9,6.79,6.55,12.66,2.84,20.71-16.72,36.25-32.92,72.75-49.36,109.13-4.41,9.75-5.83,10.62-12.74,10.13Z"/>
  <path class="st0" d="M779.22,1125.05c.9-1.28,2.39-3.59,4.08-5.74.58-.74,1.63-1.12,2.49-1.63,33.44-19.95,66.92-39.82,100.26-59.92,5.18-3.12,9.32-3.3,14.59.02,34.38,21.6,68.97,42.85,103.43,64.32,8.19,5.1,8.65,7.09,3.65,15.2-19.71,32.03-39.61,63.94-59.23,96.02-3.77,6.17-8.31,8.47-15.65,7.63-40.33-4.63-80.71-8.85-121.07-13.23-10.62-1.15-12.15-2.47-14.36-13.01-5.72-27.35-11.36-54.72-17.01-82.08-.4-1.95-.63-3.94-1.2-7.56Z"/>
  <path class="st0" d="M1733.54,1496.26c.08,5.6-2.93,8.34-6.98,10.6-11.34,6.32-22.59,12.81-33.88,19.22-14.18,8.06-28.35,16.15-42.57,24.15-7.67,4.31-7.84,4.37-13.96-.97-29.37-25.61-58.61-51.36-88.06-76.89-4.86-4.21-6.22-8.28-4.58-14.76,9.89-39.04,19.25-78.21,28.89-117.31,2.39-9.69,4.15-10.71,14.09-8.31,36.23,8.75,72.42,17.69,108.68,26.34,6.95,1.66,10.99,5.17,12.45,12.37,8.29,40.77,16.8,81.49,25.24,122.23.27,1.3.54,2.6.69,3.33Z"/>
  <path class="st0" d="M1798.68,807.84c20.69,2.22,40.22,4.28,59.74,6.43,21.83,2.41,43.66,4.87,65.48,7.38,10.22,1.18,11.66,2.47,13.72,12.47,5.76,28.03,11.45,56.07,17.13,84.11,1.72,8.47,1.75,8.74-5.29,12.96-33.4,20.02-66.92,39.83-100.26,59.95-5.57,3.36-9.98,3.26-15.53-.23-33.81-21.26-67.84-42.17-101.75-63.26-9.64-5.99-9.92-7.43-3.82-17.33,19.22-31.16,38.53-62.27,57.68-93.47,3.32-5.4,6.78-10.03,12.9-9.01Z"/>
  <path class="st0" d="M1192.4,586.38c-.42,1.95-.79,3.91-1.26,5.85-9.36,38.12-18.73,76.24-28.1,114.35-.08.32-.21.63-.29.95-2.94,11.24-4.13,12.01-15.09,9.36-19.07-4.62-38.13-9.3-57.2-13.96-16.8-4.11-33.55-8.48-50.43-12.21-7.53-1.66-11.22-5.47-12.76-13.09-8.11-40.11-16.67-80.12-24.95-120.19-1.92-9.28-.88-11.18,7.62-16.04,24.85-14.19,49.73-28.33,74.64-42.43,7.97-4.51,8.13-4.51,14.81,1.32,29.09,25.39,58.15,50.82,87.17,76.29,2.94,2.58,6.57,4.91,5.86,9.79Z"/>
  <path class="st0" d="M1895.23,1291.27c-22.41-1.98-44.63-3.91-66.84-5.93-17.24-1.57-34.45-3.45-51.7-4.79-5.99-.46-9.61-2.55-11.96-8.39-15.13-37.67-30.62-75.2-45.87-112.82-3.78-9.32-2.96-10.97,6.68-14.94,34.47-14.17,69.02-28.15,103.43-42.48,6.71-2.8,11.84-2.09,17.23,2.86,30.43,27.9,61.09,55.56,91.58,83.39,6.77,6.18,7.04,7.97,3.16,16.56-11.9,26.39-23.91,52.74-35.86,79.11-1.98,4.37-3.79,8.9-9.85,7.42Z"/>
  <path class="st0" d="M1583.81,610.06c-2.09-7.57,2.19-12.93,10.24-17.44,34.26-19.17,68.25-38.84,102.36-58.3,11.43-6.52,12.1-6.43,21.65,2.28,20.42,18.61,40.83,37.23,61.21,55.88,7.41,6.78,7.42,6.88,3.49,16.08-14.9,34.88-29.98,69.67-44.64,104.65-2.8,6.67-6.65,9.72-13.94,10.21-39.18,2.61-78.34,5.62-117.51,8.47-1.99.15-4,.29-5.98.19-5.9-.31-7.61-1.71-8.29-7.73-.74-6.61-1-13.27-1.5-19.91-2.31-30.86-4.63-61.73-7.08-94.38Z"/>
  <path class="st0" d="M897.66,949.83c-2.84-1.87-6.68-3.79-9.76-6.55-17.36-15.53-34.55-31.27-51.79-46.94-12.81-11.64-25.67-23.23-38.41-34.94-7.21-6.63-7.61-8.45-3.58-17.38,11.76-26.08,23.6-52.12,35.5-78.14,3.82-8.36,3.97-8.6,12.65-7.85,38.79,3.36,77.55,6.96,116.33,10.34,5.98.52,9.41,3.15,11.71,8.88,15.12,37.66,30.61,75.17,45.86,112.78,3.58,8.82,2.77,10.6-6.2,14.3-34.75,14.34-69.54,28.58-104.32,42.82-2.14.88-4.4,1.48-8,2.68Z"/>
  <path class="st0" d="M1667.85,938.21c-3.72,4.11-5.65,6.74-8.07,8.82-28.23,24.38-56.54,48.66-84.78,73.03-3.43,2.96-6.43,4.82-11.57,3.17-4.22-1.35-9.2-.51-13.84-.31-21.62.9-43.24,2.02-64.87,2.85-12.1.47-13.7-.82-16.9-12.14-2.81-9.93-5.04-20.04-8.37-29.78-2.63-7.69-.2-12.68,5.8-17.21,11.17-8.42,22.14-17.09,33.19-25.66,10.26-7.96,20.58-15.85,30.75-23.92,3.58-2.84,7.11-4.29,11.9-3.49,38.07,6.4,76.18,12.52,114.24,19,3.65.62,6.99,3.09,12.51,5.65Z"/>
  <path class="st0" d="M1552.54,779.4c5.06-.05,6.92,1.81,6.53,5.53-.24,2.31-.84,4.59-1.38,6.86-8.28,35-16.61,69.98-24.82,104.99-1.25,5.33-2.15,10.35-9,11.56-2.34.41-4.33,2.96-6.42,4.61-18.55,14.69-37.05,29.42-55.62,44.07-8,6.31-10.37,6.39-18.39.21-8.71-6.71-17.08-13.87-25.86-20.47-5.26-3.96-6.89-8.71-5.11-14.83,7.89-27.18,15.69-54.39,23.87-81.48.84-2.78,3.58-5.75,6.22-7.09,34.45-17.49,69.03-34.72,103.63-51.92,2.33-1.16,5.01-1.62,6.35-2.03Z"/>
  <path class="st0" d="M1198.15,1135.85c-13.06-2.15-24.56-4.03-36.05-5.95-26.6-4.44-53.2-8.92-79.8-13.36-4.6-.77-10.32-.93-11.88-5.83-1.75-5.52,4.25-7.71,7.57-10.59,26.16-22.72,52.51-45.21,78.68-67.92,5.17-4.49,9.8-6.53,17.55-5.92,15.17,1.19,30.58-.67,45.9-1.27,10.98-.43,21.97-.98,32.95-1.27,8.14-.21,10.62,1.47,12.98,9.33,3.35,11.16,6.21,22.46,9.47,33.65,1.85,6.36-.28,10.96-5.32,14.78-7.7,5.84-15.28,11.82-22.92,17.74-13.95,10.82-27.86,21.69-41.89,32.41-2.53,1.93-5.55,3.22-7.25,4.19Z"/>
  <path class="st0" d="M1543.91,1272.48c-.15,1.18-.21,2.86-.6,4.46-.96,3.99-3.27,5.74-7.3,3.77-2.09-1.02-4.08-2.23-6.07-3.44-30.71-18.65-61.4-37.33-92.14-55.94-4.67-2.83-9.09-5.29-8.16-12.2.36-2.64-1.7-5.64-2.74-8.44-8.23-22.13-16.52-44.24-24.69-66.39-3.15-8.53-2.27-11.2,5.66-16.61,9.07-6.19,18.49-11.87,27.4-18.26,5.78-4.14,10.83-3.89,16.43,0,11.75,8.16,23.64,16.12,35.47,24.16,11.01,7.48,21.97,15.02,33.05,22.4,3.55,2.36,5.5,5.18,6.15,9.59,5.59,37.84,11.41,75.64,17.16,113.45.15.99.22,1.98.38,3.46Z"/>
  <path class="st0" d="M1359.89,1124.09c5.32.28,10.66.95,15.97.77,9.01-.31,13.87,3.64,16.75,12.28,6.73,20.22,13.23,40.64,21.87,60.06,6.8,15.26,5.26,27.59-2.92,41.86-15.56,27.14-29.16,55.41-43.62,83.19-2.43,4.66-4.31,11.22-10.12,11.29-6.62.08-6.6-7.42-8.54-11.98-13.57-31.87-26.84-63.87-40.28-95.8-2.23-5.29-4.88-10.21.38-15.53,1.66-1.67,1.73-4.95,2.44-7.52,6.25-22.46,12.45-44.93,18.73-67.38,2.92-10.44,4.69-11.69,15.34-11.61,4.66.04,9.33,0,13.99,0,0,.12,0,.24,0,.36Z"/>
  <path class="st0" d="M1373.47,924.06c-5,0-10,.14-14.99-.03-10.39-.34-12.29-1.71-15.91-11.69-7.27-20.04-14.43-40.12-21.64-60.18-1.8-5.02-3.28-10.17-5.44-15.03-2.12-4.77-1.32-8.8,1.01-13.25,17.16-32.75,34.16-65.6,51.2-98.42.31-.59.46-1.33.91-1.77,2.98-2.87,5.73-7.53,9.1-8.05,4.59-.71,5.18,5.18,6.66,8.7,13.97,33.15,27.81,66.36,41.78,99.51,2.13,5.05,4.12,9.7-.4,14.68-1.42,1.56-1.56,4.32-2.19,6.55-6.42,22.76-12.8,45.53-19.22,68.29-3.18,11.28-5.03,12.62-16.92,12.12-4.66-.2-9.31-.57-13.97-.87,0-.19,0-.38,0-.57Z"/>
  <path class="st0" d="M1175.96,1263.17c.75-3.33,1.58-7.24,2.5-11.13,7.82-33.06,15.69-66.1,23.45-99.17,1.32-5.61,2.16-11.14,9.51-12.26,2.02-.31,3.73-2.66,5.56-4.11,18.54-14.69,37.06-29.41,55.63-44.08,8.4-6.64,10.96-6.72,19.27-.29,8.43,6.53,16.54,13.48,25.1,19.83,6.01,4.46,7.18,9.65,5.12,16.59-7.78,26.18-15.31,52.42-22.86,78.67-1.17,4.05-3.18,6.95-7.18,8.93-34.32,17.01-68.55,34.22-102.83,51.3-2.06,1.03-4.33,1.84-6.58,2.2-5.02.8-6.86-.96-6.68-6.48Z"/>
  <path class="st0" d="M1191.91,766.32c5.35,2.06,8.51,2.78,11.15,4.37,31.93,19.27,63.78,38.68,95.67,58.03,3.8,2.3,7.13,4.44,6.44,10.03-.33,2.69,1.47,5.71,2.5,8.5,8.08,21.86,16.24,43.68,24.31,65.54,4.05,10.96,3.32,13.09-6.61,19.73-8.3,5.56-16.85,10.77-24.94,16.62-5.95,4.31-11.3,4.57-17.36.41-22.79-15.64-45.66-31.18-68.59-46.62-3.63-2.44-5.45-5.49-6.07-9.73-5.45-36.89-11.06-73.75-16.42-110.65-.65-4.45-.09-9.07-.09-16.23Z"/>
  <path class="st0" d="M1076.43,917.9c2.42-.62,5.12-1.71,7.9-1.95,37.51-3.25,75.04-6.35,112.55-9.56,4.59-.39,8.31-.04,11.08,4.57,1.42,2.36,4.58,3.75,7.06,5.4,19.68,13.12,39.41,26.18,59.09,39.32,8.53,5.69,9.31,7.87,5.87,17.42-3.72,10.34-7.99,20.49-11.49,30.9-2.28,6.8-6.84,9.38-13.49,9.58-27.65.8-55.3,1.57-82.95,2.5-4.39.15-7.52-1.43-10.52-4.49-26.59-27.13-53.3-54.16-79.95-81.24-3.05-3.1-5.88-6.4-5.15-12.45Z"/>
  <path class="st0" d="M1522.76,1033.16c12.65,0,25.31.2,37.95-.1,5.31-.12,9.4.92,13.33,4.96,26.01,26.74,52.28,53.23,78.46,79.8,3.27,3.32,7.53,6.9,5.81,11.81-1.71,4.88-7.36,3.61-11.46,3.96-35.17,2.96-70.36,5.72-105.54,8.62-6.06.5-11.79,1.3-15.64-5.38-1.35-2.34-4.75-3.51-7.24-5.17-19.14-12.72-38.3-25.39-57.42-38.14-8.19-5.46-9.3-8.4-6.1-17.46,3.66-10.35,7.85-20.52,11.44-30.9,2.29-6.62,6.59-9.38,13.47-9.52,14.32-.3,28.62-.99,42.93-1.51,0-.33,0-.65,0-.98Z"/>
</svg>