<?xml version="1.0" encoding="UTF-8"?>
<svg id="Layer_0_xA0_Image" xmlns="http://www.w3.org/2000/svg" version="1.1" viewBox="0 0 2732 2048">
  <!-- Generator: Adobe Illustrator 30.2.1, SVG Export Plug-In . SVG Version: 2.1.1 Build 1)  -->
  <defs>
    <style>
      .st0 {
        fill: #848070;
        stroke: #000;
        stroke-miterlimit: 10;
        stroke-width: .25px;
      }
    </style>
  </defs>
  <path class="st0" d="M1732,0c22.35,52.36,44.68,104.72,67.05,157.07,13.34,31.23,26.82,62.4,40.05,93.67,1.72,4.07,6.04,8.52,2.6,12.93-4.04,5.18-9.34,1.15-13.78-.35-50.77-17.17-101.48-34.52-152.21-51.8-3.09-1.05-6.2-2.04-10.43-3.43-14.06,45.65-27.92,90.68-42.21,137.07-11.28-2.17-22.77-4.38-35.69-6.87.35-2.91.37-6.75,1.32-10.34,10.05-37.62,20.27-75.21,30.41-112.8,1.2-4.44,2.27-8.93,3.55-14-3.73-1.31-6.77-2.47-9.88-3.44-53.05-16.59-106.1-33.2-159.2-49.67-6.01-1.87-11.3-3.98-12.44-12.31,2.79-1.94,5.87-4.31,9.17-6.33,67.09-40.95,134.21-81.84,201.28-122.81,3.01-1.84,5.61-4.37,8.4-6.58,24,0,48,0,72,0Z"/>
  <path class="st0" d="M1002,2048c-1.23-3.42-2.28-6.92-3.71-10.25-34.18-79.91-68.41-159.81-102.63-239.7-.92-2.14-2-4.23-2.72-6.44-1.94-5.97.58-9.08,6.83-8.02,3.58.61,7.03,2.02,10.49,3.2,49.48,16.88,98.94,33.78,148.42,50.66,3.13,1.07,6.31,1.97,10.8,3.36,14.41-45.2,28.05-90.23,42.08-136.27,11.97-1.41,22.86,7.37,36.46,4.27-1.62,17.09-7.36,31.6-11.08,46.53-3.87,15.5-8.32,30.86-12.47,46.3-4.05,15.07-8.04,30.16-12.32,46.26,3.99,1.4,7.6,2.8,11.3,3.96,52.75,16.5,105.49,33.03,158.29,49.36,5.77,1.78,10.56,3.94,12.24,11.69-2.91,2.11-6.12,4.8-9.66,6.96-66.53,40.62-133.1,81.17-199.63,121.79-3.05,1.86-5.81,4.22-8.7,6.35h-74Z"/>
  <path class="st0" d="M1094,0c2.71,2.22,5.19,4.83,8.17,6.61,64.04,38.31,128.14,76.52,192.23,114.76,2.29,1.37,4.7,2.58,6.79,4.2,4.04,3.13,3.94,7.07-.41,9.52-2.56,1.45-5.57,2.14-8.43,3.03-50.89,15.77-101.79,31.51-152.68,47.27-3.15.98-6.27,2.07-10.47,3.46.89,3.32,1.52,6.44,2.54,9.42,13.84,40.31,27.64,80.63,41.73,120.85,1.65,4.7.36,6.88-3.65,8.52-3.7,1.51-7.48,2.85-11.1,4.53-5.05,2.33-9.99,4.9-15.95,7.86-3.97-.67-4.22-5.26-5.57-8.76-11.24-29.22-22.36-58.48-33.55-87.71-4.39-11.47-8.86-22.92-13.57-35.11-3.56,1.03-6.67,1.8-9.71,2.83-53.01,17.86-106.03,35.72-159,53.71-5.68,1.93-10.89,2.94-16.63-2.54,1.16-3.5,2.23-7.56,3.83-11.4,32.14-77.17,64.37-154.3,96.48-231.48,2.66-6.38,4.65-13.04,6.95-19.57,27.33,0,54.67,0,82,0Z"/>
  <path class="st0" d="M1640,2048c-2.85-2.14-5.54-4.55-8.58-6.36-63.49-37.95-127.02-75.83-190.54-113.73-2-1.19-4.29-2.11-5.91-3.7-1.71-1.69-4.1-4.26-3.79-6.03.35-2.03,3.09-4.06,5.26-5.24,2.58-1.41,5.65-1.92,8.52-2.8,50.28-15.51,100.56-31.01,150.84-46.54,3.15-.97,6.24-2.13,10.6-3.63-15.38-44.96-30.63-89.53-46.24-135.15,8.78-7.56,22.26-7.39,30.44-16.11,5.56.92,5.84,5.55,7.19,9.05,14.22,36.99,28.31,74.04,42.45,111.07,1.41,3.69,3,7.3,4.9,11.9,4.1-1.26,7.84-2.32,11.51-3.56,52.06-17.59,104.12-35.17,156.15-52.87,5.92-2.01,11.49-3.57,17.38,2.39-.66,2.23-1.23,5.09-2.33,7.72-35.25,84.54-70.55,169.06-105.85,253.59h-82Z"/>
  <path class="st0" d="M0,812c3.26-1.53,6.72-2.73,9.75-4.63,60.91-38.28,121.76-76.65,182.65-114.97,2.64-1.66,5.75-5.45,8.48-1.75,1.27,1.72-.06,6.22-1.38,8.88-21.07,42.7-42.35,85.3-63.56,127.93-43.01,86.45-85.99,172.92-129.09,259.33-1.68,3.37-4.54,6.15-6.85,9.21,0-94.67,0-189.33,0-284Z"/>
  <path class="st0" d="M2732,1238c-10.49,6.39-21.06,12.65-31.46,19.19-52.75,33.17-105.46,66.41-158.18,99.63-1.41.89-2.69,2.08-4.2,2.67-3.32,1.29-6.2-1.17-5.33-4.61.48-1.89,1.67-3.61,2.56-5.4,62.62-125.88,125.24-251.75,187.85-377.63,2.95-5.93,5.84-11.89,8.76-17.84v284Z"/>
  <path class="st0" d="M886,2048c-.67-1.84-1.11-3.8-2.05-5.49-14.38-25.91-28.81-51.78-43.27-77.64-1.11-1.99-2.49-3.83-3.98-6.09-3.74,1.14-7.23,2.11-10.66,3.25-54.93,18.29-109.86,36.61-164.79,54.91-2.83.94-5.66,2.09-8.58,2.51-1.27.18-3.42-.91-3.99-2.03-.56-1.11-.15-3.48.75-4.41,2.3-2.36,5.03-4.33,7.72-6.28,68.37-49.78,136.76-99.54,205.14-149.32,3.5-2.55,6.75-5.45,10.39-7.77,3.91-2.49,6.21-1.38,7.3,2.81,1.33,5.1,2.44,10.3,4.26,15.23,21.19,57.1,42.5,114.15,63.81,171.2,1.16,3.1,2.62,6.08,3.94,9.12h-66Z"/>
  <path class="st0" d="M1848,0c3.05,5.9,5.96,11.87,9.17,17.68,11.77,21.28,23.63,42.51,35.49,63.75,1.6,2.86,3.36,5.63,5.4,9.05,3.81-1.19,7.26-2.21,10.67-3.35,54.65-18.23,109.29-36.49,163.94-54.71,3.15-1.05,6.34-2.11,9.6-2.61,1.27-.19,3.46.87,3.97,1.95.53,1.13.06,3.48-.87,4.42-2.31,2.35-5.07,4.29-7.75,6.25-68.42,49.83-136.85,99.64-205.27,149.47-2.69,1.96-5.16,4.27-8.01,5.96-2.31,1.37-5.04,2.05-6.93,2.78-6.43-17.73-12.29-34.24-18.4-50.67-17.41-46.82-34.93-93.61-52.35-140.43-1.15-3.08-1.78-6.35-2.66-9.53,21.33,0,42.67,0,64,0Z"/>
  <path class="st0" d="M1400,0c8.96,26.14,17.65,52.37,27.04,78.36,3.1,8.58,3.4,16.42.84,25.18-16.49,56.56-32.62,113.24-48.87,169.87-1.46,5.11-2.58,10.34-4.51,15.26-.62,1.59-3.35,2.34-5.12,3.48-.84-1.62-2.07-3.15-2.44-4.87-.89-4.15-.91-8.53-2.1-12.57-15.18-51.4-30.44-102.77-45.86-154.1-1.77-5.9-2.55-11.49-.92-17.55,9.07-33.75,17.98-67.55,26.96-101.33.16-.62.64-1.15.98-1.73,18,0,36,0,54,0Z"/>
  <path class="st0" d="M1334,2048c-5.64-17.03-11.24-34.07-16.93-51.08-3.06-9.15-5.8-18.44-9.51-27.32-3.27-7.84-3.03-15.13-.7-23.15,16.24-55.89,32.19-111.87,48.2-167.84,1.37-4.79,2.35-9.7,3.82-14.46,1.03-3.35,1.6-7.4,6.62-7.59.7.66,1.99,1.31,2.03,2.02,1.06,18.53,8.62,35.41,13.64,52.89,11.21,39,22.96,77.84,34.76,116.67,2.12,6.99,2.14,13.48.25,20.49-8.9,33.08-17.49,66.24-26.19,99.37h-56Z"/>
  <path class="st0" d="M992,0c-11.9,29.63-23.87,59.23-35.67,88.9-14.89,37.41-29.65,74.88-44.47,112.33-.86,2.17-1.66,4.36-2.65,6.47-1.94,4.12-4.91,5.17-8.9,2.73-1.99-1.22-3.99-2.41-5.96-3.65-56.97-35.74-113.88-71.57-170.99-107.08-6.12-3.81-9.2-9.03-12.35-16.16,2.36-.63,4.41-1.8,6.25-1.54,3.25.47,6.4,1.75,9.56,2.79,52.12,17.27,104.24,34.56,156.36,51.83,3.12,1.03,6.27,1.95,9.81,3.05,1.77-2.72,3.5-5.12,4.96-7.66,23.56-40.99,47.1-81.98,70.55-123.02,1.58-2.76,2.36-5.97,3.51-8.97,6.67,0,13.33,0,20,0Z"/>
  <path class="st0" d="M1744,2048c26.77-67.77,53.52-135.55,80.35-203.3,3.46-8.74,5.39-9.2,14.19-3.68,54.43,34.12,108.83,68.3,163.25,102.46,1.69,1.06,3.32,2.24,5.09,3.15,7.52,3.87,13.73,8.95,16.59,17.79-.63,2.87-2.87,3.69-5.85,2.91-2.57-.67-5.07-1.63-7.59-2.47-52.42-17.4-104.85-34.8-157.27-52.18-3.43-1.14-6.91-2.11-11.33-3.45-26.61,46.49-53.02,92.63-79.43,138.76h-18Z"/>
  <path class="st0" d="M938,0c-.88,2.39-1.38,5.01-2.69,7.14-16.9,27.44-33.89,54.82-50.92,82.18-5.49,8.83-6.48,9.19-16.08,5.66-34.59-12.72-69.17-25.48-103.71-38.34-2.25-.84-4.11-2.71-6.12-4.08C770.23,35.29,779.63,17.93,788,0,838,0,888,0,938,0Z"/>
  <path class="st0" d="M1796,2048c18.32-29.67,36.6-59.37,54.98-89,4.98-8.02,6.24-8.4,15.48-4.98,31.13,11.54,62.23,23.18,93.35,34.74,3.41,1.27,7.06,1.99,10.33,3.53,2.4,1.13,4.37,3.17,6.05,4.45-11.13,17.2-21.04,33.47-28.19,51.27h-152Z"/>
  <path class="st0" d="M1624,0c-2.6,2.01-5.07,4.24-7.83,5.99-44.61,28.36-89.25,56.66-133.88,84.98-.84.53-1.68,1.07-2.54,1.59-7.91,4.73-9.34,4.28-13.11-4.5-1.96-4.58-3.7-9.26-5.55-13.89-8.66-21.59-17.36-43.16-25.97-64.77-1.22-3.06-2.08-6.26-3.11-9.4,17.33,0,34.67,0,52,0,4.12,11.7,13.32,19.84,19.82,30.29,21.44-9.68,41.89-18.89,62.31-28.18.78-.36,1.25-1.39,1.87-2.11,18.67,0,37.33,0,56,0Z"/>
  <path class="st0" d="M1112,2048c16.15-10.49,32.24-21.09,48.48-31.45,30.28-19.32,60.65-38.49,90.99-57.72,1.97-1.25,3.88-2.6,5.95-3.65,5.03-2.57,6.99-1.97,9.61,2.9.94,1.75,1.6,3.65,2.34,5.5,10.16,25.3,20.35,50.58,30.42,75.91,1.07,2.7,1.49,5.66,2.21,8.5h-50c-6.91-9.62-13.82-19.23-20.9-29.1-14,6.24-27.04,11.94-39.99,17.87-7.79,3.56-15.41,7.47-23.11,11.23h-56Z"/>
  <path class="st0" d="M1986,0c6.53,5.55,13.07,11.09,19.16,16.27-.27,8.21-3.98,11.74-11.2,13.52-29.38,7.24-58.63,15.04-87.93,22.62-7.01,1.81-7.05,1.79-10.63-4.89C1886.92,31.69,1878.47,15.84,1870,0c38.67,0,77.33,0,116,0Z"/>
  <path class="st0" d="M748,2048c-4.39-3.54-8.82-7.04-13.17-10.63-2.75-2.27-6.04-4.04-4.54-8.87,1.4-4.5,3.29-7.63,8.38-8.51,4.89-.85,9.65-2.47,14.47-3.73,24.77-6.43,49.54-12.84,74.31-19.27,8.46-2.2,8.51-2.23,12.4,5.13,8.08,15.28,16.1,30.58,24.15,45.88h-116Z"/>
  <path class="st0" d="M1304,0c-6.76,21.17-13.46,42.35-20.36,63.47-.83,2.54-2.68,4.75-3.81,6.68-30.89-21.59-61.61-41.1-91.77-61.42-4.11-2.77-8.05-5.81-12.07-8.73,42.67,0,85.33,0,128,0Z"/>
  <path class="st0" d="M1432,2048c4.14-13.63,8.24-27.26,12.44-40.87,2.15-6.98,4.32-13.96,6.81-20.82,1.02-2.8,2.9-5.29,4.11-7.44,8.93,6.2,16.67,11.75,24.6,17.04,22.93,15.31,45.96,30.47,68.87,45.79,2.62,1.75,4.79,4.18,7.17,6.3h-124Z"/>
  <path class="st0" d="M748,0c-9.59,21.46-19.18,42.92-28.8,64.37-.54,1.2-1.06,2.64-2.04,3.36-1.19.88-3.11,1.83-4.25,1.44-1.21-.42-2.63-2.39-2.63-3.68,0-2.57.71-5.2,1.49-7.69C717.81,38.51,723.92,19.26,730,0c6,0,12,0,18,0Z"/>
  <path class="st0" d="M1988,2048c1.05-3.09,1.85-6.3,3.18-9.26,7.05-15.75,14.24-31.44,21.38-47.15.69-1.51,1.26-3.09,2.1-4.51,1.87-3.14,2.44-9.12,7.77-6.73,4.81,2.15,1.97,7.1.87,10.66-4.11,13.31-8.6,26.51-12.76,39.81-1.77,5.65-3.04,11.46-4.54,17.19h-18Z"/>
  <path class="st0" d="M2044,0c1.02,3.83,2.39,7.62,2.93,11.52.31,2.22-.74,4.63-1.17,6.95-2.03-.65-4.62-.73-6-2.06-5.46-5.26-10.54-10.91-15.76-16.41,6.67,0,13.33,0,20,0Z"/>
  <path class="st0" d="M690,2048c-.79-3.82-1.86-7.6-2.23-11.46-.19-1.94.9-4,1.41-6,2.01.64,4.55.73,5.92,2.03,5.17,4.93,9.97,10.25,14.9,15.43h-20Z"/>
  <path class="st0" d="M318.22,1968.01c-6.39,1.65-11.94,3.92-17.64,4.42-47.46,4.18-94.95,8.03-142.42,11.98-47.48,3.95-94.95,7.93-142.44,11.82-3.53.29-7.11.04-12.41.04,1.47-5.33,2.2-9.41,3.7-13.19,17.23-43.33,34.57-86.61,51.89-129.9,54.19-135.43,108.37-270.86,162.56-406.3.62-1.54.86-3.35,1.84-4.6.91-1.16,2.64-2.47,3.87-2.35,1.25.12,3.09,1.75,3.37,3.01,1.33,5.84,2.24,11.77,3.24,17.68,15.88,94.25,31.75,188.51,47.62,282.77,12.05,71.6,24.11,143.19,36.13,214.8.43,2.58.39,5.25.71,9.82Z"/>
  <path class="st0" d="M619.46,66.3c1.96,5.96-2.17,6.93-5.32,8.58-20.37,10.64-40.76,21.26-61.13,31.9-132.01,68.89-264.01,137.79-396.03,206.67-2.92,1.52-5.98,2.8-9.02,4.22-5.89-3.55-9.33-8.39-11.86-14.43C99.49,215.65,62.73,128.13,26.02,40.6c-5.75-13.71-4.76-14.89,9.72-13.89,46.2,3.2,92.42,6.23,138.63,9.33,55.52,3.72,111.04,7.48,166.56,11.17,44.88,2.99,89.77,5.88,134.66,8.85,45.55,3.02,91.09,6.08,136.64,9.17,2.54.17,5.05.74,7.24,1.06Z"/>
  <path class="st0" d="M2729.13,52.82c2.49,6.35-.37,11.13-2.31,15.99-20.49,51.34-41.02,102.66-61.54,153.99-50.57,126.46-101.15,252.91-151.72,379.36-.62,1.55-.91,3.33-1.88,4.6-.9,1.17-2.54,2.54-3.78,2.47-1.24-.07-2.87-1.59-3.46-2.87-.8-1.75-.77-3.88-1.1-5.85-10.42-61.73-20.86-123.45-31.25-185.19-12.33-73.23-24.61-146.46-36.91-219.69-5.9-35.14-11.83-70.27-17.67-105.41-1.31-7.91-1.24-8.07,5.87-11.32,2.65-1.21,5.63-2.1,8.53-2.35,34.19-2.92,68.39-5.68,102.58-8.52,45.15-3.75,90.29-7.55,135.43-11.32,17.26-1.44,34.52-2.94,51.79-4.3,2.53-.2,5.12.27,7.43.42Z"/>
  <path class="st0" d="M2712.89,2022.19c-5.51,0-9.42.22-13.29-.03-47.21-3.1-94.42-6.28-141.62-9.41-34.24-2.27-68.49-4.46-102.73-6.74-55.85-3.72-111.7-7.51-167.55-11.22-44.88-2.98-89.77-5.9-134.65-8.84-10.97-.72-21.96-1.23-32.91-2.18-1.91-.17-3.67-2.02-5.5-3.1,1.23-1.75,2.08-4.22,3.77-5.13,14.66-7.9,29.48-15.51,44.24-23.22,137.62-71.8,275.25-143.6,412.86-215.4,14-7.3,16.76-6.38,22.93,8.31,29.4,70.01,58.76,140.04,88.14,210.06,7.6,18.12,15.31,36.19,22.8,54.36,1.44,3.49,2.08,7.31,3.51,12.53Z"/>
  <path class="st0" d="M498.86,993.55c5.43,0,9.08.05,12.73,0,39.32-.6,78.65-1.18,117.97-1.84,13.79-.23,13.62-.3,14.61,13.2.53,7.18,1.78,14.3,2.89,22.88-3.97.58-8.37,1.58-12.81,1.82-40.27,2.13-80.54,4.13-120.81,6.18-2.27.12-4.53.38-8.08.69,0,3.96-.03,7.5,0,11.04.63,55.32,1.27,110.65,1.9,165.97.05,4.31.44,8.54-2.94,12.21-2.8,3.04-5.35,3.7-8.56,1.08-2.84-2.32-5.64-4.68-8.42-7.07-73.09-62.73-146.18-125.46-219.22-188.25-4.46-3.83-8.4-8.27-13.16-13.01,2.65-2.87,4.42-5.2,6.59-7.1,75.71-66.33,151.45-132.61,227.19-198.9,1-.88,1.96-1.83,3.07-2.56,4.61-3.08,8.29-1.62,9.36,3.95.5,2.58.26,5.31.22,7.97-.83,53.65-1.69,107.31-2.53,160.96-.05,3.25,0,6.5,0,10.8Z"/>
  <path class="st0" d="M784.88,1700.86c-102.83-8.31-206.05-16.64-309.27-25.07-3.55-.29-7.01-1.66-11.59-2.79.5-3.87.67-7.38,1.44-10.77,19.78-87.37,39.63-174.73,59.46-262.09,2.43-10.72,4.66-21.49,7.41-32.12.67-2.59,2.68-6.24,4.68-6.68,2.06-.46,5.1,2.11,7.25,3.91,1.73,1.45,2.77,3.71,4.12,5.62,30.52,43.31,61.04,86.62,91.58,129.92,2.08,2.95,4.29,5.8,6.78,9.16,38.38-28.8,76.16-57.15,114.7-86.08,7.99,8.58,16.01,17.18,24.93,26.75-2.27,2.28-4.72,5.25-7.65,7.62-30.03,24.35-60.13,48.6-90.21,72.89-3.6,2.91-7.18,5.86-11.58,9.45,2.46,3.53,4.58,6.75,6.88,9.85,33.02,44.38,66.04,88.77,99.14,133.09,3.53,4.73,6.63,9.29,1.92,17.32Z"/>
  <path class="st0" d="M1948.29,598.55c10.52-11.45,23.6-20.03,35.46-29.96,12.26-10.26,24.84-20.15,37.28-30.2,12.15-9.81,24.31-19.61,37.12-29.94-2.63-3.68-4.85-6.9-7.19-10.03-32.82-44.1-65.62-88.21-98.53-132.24-3.77-5.04-6.75-9.9-3.28-16.63,1.03-.33,2.3-1.15,3.5-1.05,102.92,8.33,205.83,16.71,308.74,25.18,2.9.24,5.72,1.46,9.55,2.49-.55,4.22-.74,8.13-1.6,11.88-21.86,96.43-43.76,192.86-65.84,289.24-.88,3.82.06,9.55-5.66,10.59-5.37.97-7.24-3.97-9.64-7.37-30.94-43.81-61.8-87.67-92.7-131.52-2.1-2.98-4.3-5.88-6.98-9.55-2.96,2.01-5.7,3.71-8.26,5.65-34.04,25.67-68.11,51.31-102.02,77.15-3.45,2.63-5.84,2.58-8.49-.46-2.84-3.27-5.51-6.69-8.45-9.87-3.78-4.08-7.76-7.98-13.01-13.34Z"/>
  <path class="st0" d="M1945.34,1712.36c-3.54-6.32.11-9.81,2.85-13.48,14.36-19.22,28.75-38.41,43.13-57.61,17.78-23.74,35.55-47.47,53.32-71.21,2.19-2.92,4.35-5.87,7.37-9.95-38.87-27.34-77.43-54.46-116.35-81.83-.7-6.39,4.71-10.34,7.26-15.52,2.61-5.28,5.51-10.42,8.8-16.59,3.58-1.66,6.49,1.89,9.63,3.92,26.29,17.01,52.5,34.16,78.74,51.24,10.29,6.7,20.61,13.37,31.61,20.51,2.42-3.24,4.64-6.06,6.71-8.99,32-45.11,64.02-90.2,95.91-135.39,3.61-5.12,7.25-9.5,14.25-8.64,4.64,7.25,74.27,300.38,74.44,314.45-3.48.75-7.18,1.94-10.96,2.28-48.1,4.38-96.22,8.6-144.33,12.94-50.76,4.57-101.51,9.25-152.27,13.81-3.52.32-7.09.04-10.1.04Z"/>
  <path class="st0" d="M683.01,489.01c39.17,27.55,77.76,54.69,117.39,82.56-5.59,10.07-11.26,20.29-17.68,31.85-2.63-1.27-6.2-2.55-9.3-4.56-31.04-20.11-62-40.35-92.99-60.54-5.55-3.61-11.14-7.16-17.28-11.1-2.54,3.42-4.74,6.28-6.83,9.22-32,45.12-64.03,90.23-95.94,135.41-3.62,5.13-7.2,9.67-15.35,7.77-.82-2.33-2.05-5-2.71-7.81-23.1-97.2-46.15-194.42-69.21-291.63-.23-.97-.6-1.92-.72-2.91-1.79-13.98.31-12.77,10.28-13.67,84.62-7.65,169.22-15.46,253.83-23.22,14.6-1.34,29.2-2.67,43.8-3.97,1.99-.18,4.02-.43,5.98-.22,4.51.47,6.47,3.58,4.57,7.72-1.23,2.68-3.2,5.05-4.99,7.45-31.75,42.42-63.52,84.83-95.28,127.24-2.37,3.16-4.65,6.38-7.57,10.4Z"/>
  <path class="st0" d="M2236.04,819.49c78.66,67.53,157.47,135.16,236.2,202.88,2.68,2.31,4.63,5.46,7.44,8.84-2.82,2.87-4.95,5.34-7.37,7.47-75.18,65.85-150.39,131.67-225.59,197.49-.5.44-.93,1.05-1.52,1.29-2.6,1.07-5.52,3.28-7.8,2.77-3.81-.86-3.73-4.94-3.69-8.35.39-29.98.75-59.96,1.15-89.94.36-26.65.77-53.3,1.14-79.95.02-1.62-.22-3.23-.43-6.12-47.41-.15-94.52.91-142.99,2.07-.75-5.96-1.49-11.73-2.21-17.51-.72-5.83-1.43-11.67-2.31-18.93,2.48-.49,5.5-1.46,8.56-1.62,39.92-2.11,79.84-4.09,119.76-6.14,4.24-.22,8.46-.69,13.38-1.1,0-5.16.04-9.44,0-13.71-.63-54.63-1.24-109.27-1.99-163.9-.08-5.97.43-11.29,8.28-15.54Z"/>
  <path class="st0" d="M2346.25,581.05c32.81,10.41,64.83,20.59,96.87,30.73,26.02,8.23,52.06,16.41,78.09,24.62,2.54.8,5.3,1.27,7.51,2.63,1.7,1.04,2.69,3.22,4,4.9-1.81,1.19-3.49,2.8-5.47,3.46-1.81.6-3.96.2-5.95.2-88.28.09-176.56.19-264.83.27-1.66,0-3.37.15-4.96-.22-3.09-.73-4.25-2.59-3.28-5.92,12.64-43.4,25.55-86.72,37.73-130.24,34.27-122.45,68.22-244.98,102.34-367.47.98-3.51,2.19-7.01,3.79-10.27.5-1.01,2.69-1.65,4.06-1.58.81.04,2.14,1.78,2.18,2.79.14,3.3-.01,6.65-.4,9.93-4.2,35.38-8.46,70.75-12.73,106.12-5.03,41.65-10.08,83.3-15.12,124.95-5.75,47.6-11.5,95.2-17.25,142.8-2.2,18.18-4.41,36.36-6.54,54.55-.26,2.26-.04,4.57-.04,7.75Z"/>
  <path class="st0" d="M643.31,231.51c0-5.11.03-9.07,0-13.02-.46-57.31-.94-114.62-1.39-171.93-.02-2.99-.16-6.04.33-8.96.22-1.3,1.72-3.1,2.89-3.33,1.23-.24,3.42.77,4.05,1.88,1.46,2.56,2.34,5.49,3.26,8.33,26.45,81.03,52.88,162.06,79.33,243.09,1.03,3.16,2.41,6.23,3.19,9.45.57,2.35.4,4.87.54,6.95-87.54,2.56-173.88,7.18-260.27,10.6-84.23,3.33-168.43,7.31-252.64,10.98-5.32.23-10.66.29-15.99.33-2.69.02-6.15-.12-5.81-3.58.17-1.7,3.24-4.02,5.34-4.48,15.94-3.46,31.96-6.56,47.97-9.71,110.75-21.81,221.49-43.61,332.24-65.41,18.6-3.66,37.2-7.3,56.95-11.18Z"/>
  <path class="st0" d="M315.3,808.84c-2.71-3.83-4.76-6.82-6.92-9.74-34.42-46.65-68.89-93.25-103.19-139.98-2.46-3.35-8.55-7.18-3.63-11.66,3.98-3.62,7.73,1.84,10.98,4.18,71.55,51.71,143.04,103.51,214.47,155.39,2.37,1.72,4.01,4.43,5.76,6.42-7.76,5.76-14.51,10.48-20.95,15.59-128.67,102.09-257.3,204.23-385.96,306.33-3.39,2.69-6.85,5.32-10.53,7.57-1.05.64-3.54.4-4.33-.43-.85-.89-1.18-3.38-.53-4.41,1.76-2.78,4.07-5.24,6.33-7.67,82.95-89.39,165.92-178.76,248.89-268.13,16.3-17.56,32.6-35.14,49.6-53.46Z"/>
  <path class="st0" d="M2419.79,1240.53c2.41,3.39,4.47,6.37,6.63,9.29,34.23,46.37,68.48,92.73,102.69,139.12,1.97,2.67,3.89,5.41,5.5,8.3.51.92.37,3.02-.3,3.57-1.1.9-3.22,1.75-4.3,1.26-2.99-1.35-5.77-3.25-8.45-5.19-67.71-49.07-135.4-98.17-203.11-147.25-3.77-2.74-7.74-5.21-11.4-8.08-1.96-1.53-3.45-3.65-4.98-5.32,13.2-10.28,25.74-19.9,38.12-29.72,123.19-97.76,246.35-195.55,369.53-293.32,3.12-2.48,6.33-4.92,9.75-6.94,1.11-.65,4.04-.4,4.38.3.71,1.46.91,3.87.13,5.2-1.49,2.54-3.76,4.64-5.79,6.83-97.24,104.77-194.49,209.53-291.73,314.31-2.23,2.4-4.31,4.95-6.65,7.64Z"/>
  <path class="st0" d="M1999.36,1744.55c8.5,0,14.75.22,20.99-.03,52.28-2.13,104.56-4.3,156.84-6.54,72.25-3.09,144.5-6.3,216.76-9.38,42.95-1.83,85.91-3.52,128.87-5.21,3.57-.14,7.16.28,10.63.43,1.91,7.01-2.8,7.27-6.52,8.03-13.38,2.75-26.78,5.34-40.18,7.97-114.05,22.43-228.11,44.86-342.16,67.29-15.03,2.96-30.07,5.89-45.1,8.87-2.24.45-4.44,1.15-7.65,2,0,3.68-.02,7.25,0,10.83.43,57.99.89,115.99,1.24,173.98.03,4.36,1.64,9.4-3.19,12.7-5.8-1.21-5.92-6.22-7.17-10.03-14.95-45.57-29.74-91.19-44.61-136.79-12.49-38.31-25.07-76.59-37.49-114.93-.93-2.87-.85-6.06-1.26-9.21Z"/>
  <path class="st0" d="M487.16,1402.95c-3.41,11.21-6.49,20.62-9.14,30.15-43.6,156.55-87.14,313.11-130.72,469.66-1.16,4.16-2.45,8.32-4.13,12.28-.49,1.16-2.65,2.42-3.83,2.24-1.18-.18-2.64-1.98-2.98-3.32-.47-1.86-.16-3.97.08-5.94,6.25-51.59,12.59-103.16,18.81-154.75,5.71-47.29,11.27-94.6,16.95-141.9,5.52-45.97,11.09-91.94,16.63-137.91.16-1.3.18-2.61.31-4.72-2.69-1.04-5.34-2.22-8.09-3.09-56.18-17.84-112.37-35.64-168.55-53.47-2.85-.9-5.78-1.75-8.35-3.2-1.07-.61-1.75-2.74-1.73-4.16.02-.88,1.6-2.34,2.63-2.49,3.28-.46,6.62-.57,9.94-.57,84.65-.1,169.3-.16,253.95-.24,3.66,0,7.34-.37,10.99-.15,2.45.15,4.85,1.04,7.2,1.59Z"/>
  <path class="st0" d="M683.57,1110.95c18.75-.7,37.03-1.37,55.31-2.06,2.66-.1,5.32-.45,7.98-.38,3.08.08,5,1.75,5.02,4.99.05,7.9.02,15.81.02,24.82-23.68,1.94-46.43,3.8-69.49,5.68,0,4.01,0,7.24,0,10.46,0,5.2,2.61,8.43,7.06,11.07,17.76,10.52,35.34,21.35,52.99,32.07,1.14.69,2.29,1.37,3.41,2.08,3.62,2.3,8.67,4.3,7.48,9.41-1.18,5.06-6.6,3.49-10.29,3.67-36.92,1.78-73.86,3.41-110.79,5.02-26.29,1.15-52.58,2.18-78.86,3.33-10.83.47-12.81-1.21-13.01-12.28-.82-45.96-1.58-91.92-2.32-137.87-.11-6.58-.01-13.16-.01-20.98,2.83-.46,6.26-1.41,9.72-1.51,61.92-1.8,123.85-3.5,185.78-5.2,1.99-.05,4.05-.2,5.97.22,4.14.9,5.23,4.1,2.43,7.36-1.72,2-3.93,3.58-5.99,5.27-15.98,13.07-31.85,26.3-48.06,39.09-5.19,4.1-6.96,8.45-4.33,15.75Z"/>
  <path class="st0" d="M1992.26,1330.86c1.48-1.88,2.08-2.66,2.69-3.43,6.03-7.54,6.08-14.84,1.79-23.8-8.18-17.09-14.92-34.88-22.23-52.39-1.03-2.46-2.53-4.93-2.7-7.46-.18-2.67.98-5.44,1.55-8.16,2.43.59,5.25.58,7.23,1.86,15.66,10.13,31.16,20.5,46.71,30.8,36.92,24.47,73.84,48.95,110.76,73.42,2.22,1.47,4.53,2.83,6.64,4.45,5.14,3.95,5.66,6.42,2.51,11.84-1.17,2.01-2.63,3.85-3.97,5.76-26.54,37.94-53.08,75.86-79.6,113.82-3.19,4.57-6.19,9.28-9.78,14.67-3.18-1.84-6.08-3.28-8.73-5.09-50.91-34.71-101.8-69.45-152.64-104.26-3.13-2.14-8.37-3.67-7.18-8.48,1.36-5.49,6.97-3.95,11.06-4.21,20.61-1.28,41.22-2.62,61.85-3.48,6.88-.29,11.41-2.53,13.22-10.22-18.45-12.41-37.09-24.95-56.37-37.93,5.34-7.66,9.82-14.18,14.4-20.63,2.26-3.19,5.06-2.5,7.88-.76,6.52,4.02,13.03,8.06,19.56,12.06,11.6,7.11,23.2,14.2,35.33,21.62Z"/>
  <path class="st0" d="M1073.88,400.75c7.82,21.44,15.42,42.27,23.31,63.92-9.04,3.2-16.73,6.24-24.64,8.44-1.48.41-4.73-2.13-5.71-4.05-2.72-5.31-4.66-11.03-6.94-16.57-5.83-14.11-11.68-28.22-17.99-43.45-4.75,2.11-9.27,3.39-12.87,5.96-2.36,1.69-4.16,5.06-4.89,8.01-5.11,20.68-9.75,41.49-14.86,62.17-1.19,4.82-.71,12.24-7.78,12.2-5.55-.04-5.5-6.85-7.04-10.93-21.45-57.03-42.7-114.14-64-171.23-.93-2.5-1.9-4.98-2.68-7.52-2.04-6.62-.98-8.82,5.53-11.53,2.15-.89,4.4-1.52,6.61-2.28,42.81-14.75,85.63-29.48,128.43-44.26,5.64-1.95,11.18-4.18,18.15-6.8,1.7,3.5,3.85,7.04,5.22,10.86,14.2,39.48,28.27,79,42.38,118.51,6.27,17.56,12.57,35.11,18.85,52.67.56,1.57,1.42,3.11,1.57,4.72.23,2.46.91,5.69-.3,7.31-2.29,3.05-5.41.94-7.95-.69-18.51-11.87-37.12-23.58-55.41-35.78-5.78-3.86-10.71-4.39-17,.33Z"/>
  <path class="st0" d="M1648.04,1805.91c-1.24-2.53-2.93-5.28-4-8.26-20.89-58.28-41.72-116.58-62.51-174.89-1.29-3.62-4.28-7.87-.4-11.04,4.06-3.32,7.37,1.08,10.49,3.06,17.73,11.21,35.47,22.43,52.89,34.11,5.57,3.74,10.24,3.86,16.03-.24-.65-2.39-1.15-4.93-2.03-7.32-6.05-16.57-12.21-33.1-18.26-49.67-2.54-6.95-2.22-7.54,4.76-9.97,4.4-1.53,8.83-2.99,13.26-4.42,7.49-2.43,7.88-2.34,11.02,5.22,6.65,15.98,13.15,32.02,19.77,48.02,1.24,3.01,2.74,5.92,4.28,9.22,2.02-.75,3.52-1.38,5.07-1.87,7.98-2.5,12.09-7.43,13.78-16.11,3.89-19.91,9.09-39.56,13.76-59.32.23-.97.35-1.97.63-2.93,1.05-3.55,2.03-7.68,6.44-7.91,4.24-.22,4.83,3.98,5.95,7,22.48,60.18,44.94,120.36,67.34,180.57,3.42,9.2,2.37,11.29-7.24,14.63-32.7,11.36-65.43,22.61-98.16,33.89-17.26,5.95-34.51,11.9-52.87,18.23Z"/>
  <path class="st0" d="M1135,1822.12c.83-4.15,1.28-7.7,2.27-11.08,17.13-58.78,34.3-117.55,51.6-176.29,1.13-3.83.83-9.83,6.67-9.67,4.85.13,5.08,5.58,6.48,9.12,7.57,19.19,15.16,38.38,22.33,57.73,2.37,6.4,5.84,10.14,13.67,9.64,1.08-3.23,2.34-6.59,3.32-10.03,4.36-15.37,8.62-30.76,12.95-46.14q2.65-9.44,12.44-6.31c5.66,1.81,11.32,3.62,18.02,5.76-3.25,23.31-11.16,45.25-15.12,68.67,3.17.88,5.99,1.58,8.75,2.45,5.59,1.76,9.94.33,14.41-3.65,15.67-13.95,31.68-27.51,47.62-41.15,2.5-2.14,5.13-4.37,8.09-5.68,4.37-1.93,7.33.52,6.71,5.17-.3,2.29-1.11,4.52-1.73,6.76-16.66,59.95-33.32,119.91-49.99,179.86-.45,1.6-.91,3.2-1.42,4.78-2.51,7.7-4.51,8.9-12.57,6.5-19.45-5.8-38.85-11.78-58.27-17.71-26.73-8.16-53.45-16.37-80.2-24.49-4.73-1.44-9.56-2.54-16.04-4.25Z"/>
  <path class="st0" d="M1870.04,552.55c-17.7,13.85-35.19,27.53-53.23,41.64-6.85-6.61-11.35-14-16.24-20.97-2.21-3.15,1.08-5.4,3.35-7.34,11.66-9.94,23.34-19.86,35.01-29.79,4.27-3.63,8.53-7.26,12.57-10.71-.52-1.39-.64-2.07-.99-2.61-5.53-8.55-12.69-12.01-23.42-10.59-19.13,2.54-38.45,3.59-57.69,5.26-1.33.12-2.66.23-3.99.3-3.71.2-7.92.55-9.55-3.53-1.81-4.53,2.61-6.32,5.32-8.47,50.03-39.83,100.09-79.62,150.19-119.36,7.92-6.28,9.94-6.01,16.14,2.17,24.93,32.93,49.75,65.93,74.63,98.89,7,9.27,14.06,18.48,21.84,28.7-1.98,1.93-4.07,4.37-6.55,6.3-49.25,38.13-98.54,76.19-147.83,114.27-1.32,1.02-2.56,2.36-4.07,2.84-1.74.57-4.21,1.09-5.49.27-1.23-.79-1.8-3.31-1.84-5.08-.04-1.92.86-3.86,1.37-5.79,5.26-19.95,10.32-39.96,15.89-59.83,1.83-6.53,1.38-11.71-5.43-16.56Z"/>
  <path class="st0" d="M710.66,1532.8c2.71-2.45,4.97-4.77,7.51-6.73,48.99-37.89,98-75.74,147.02-113.6,1.05-.81,2.02-1.91,3.22-2.32,2.05-.7,5.52-1.97,6.12-1.21,1.37,1.74,2.29,4.79,1.77,6.91-4.8,19.38-9.94,38.67-14.98,57.98-.59,2.25-.91,4.62-1.81,6.74-2.79,6.59-.94,11.52,5.63,15.87,17.29-13.6,34.71-27.3,52.91-41.62,7.2,6.97,11.64,15.06,17.52,22.18-3.9,7.62-11.01,11.16-16.51,16.25-5.86,5.42-12.14,10.39-18.21,15.59-5.78,4.95-11.54,9.94-17.89,15.41,2.44,2.93,4.62,5.3,6.51,7.87,3.31,4.5,7.4,5.53,13,4.98,21.2-2.1,42.45-3.69,63.7-5.24,4.68-.34,11.04-2.57,13.04,3.67,1.6,5.02-4.35,6.88-7.52,9.41-48.68,38.83-97.45,77.53-146.21,116.26-1.56,1.24-3.08,2.57-4.77,3.63-4.74,2.96-7.41,2.57-11.28-1.72-1.78-1.97-3.3-4.18-4.91-6.3-26.86-35.63-53.7-71.26-80.58-106.88-3.98-5.28-8.11-10.45-13.3-17.11Z"/>
  <path class="st0" d="M681.16,556.99c3.02,1.72,5.92,3.12,8.55,4.92,50.92,34.7,101.8,69.44,152.69,104.18,1.38.94,3.01,1.68,4.03,2.92,1.37,1.67,3.62,4.6,3.08,5.47-1.15,1.84-3.81,3.65-5.97,3.8-21.93,1.51-43.87,2.91-65.83,3.79-6.78.27-11.66,2.04-14.14,9.7,1.58,1.33,3.39,3.16,5.47,4.56,14.63,9.87,29.34,19.63,43.99,29.48,6.68,4.49,6.77,5.08,2.11,11.64-3.99,5.6-8.11,11.1-12.69,17.36-20.31-12.46-39.81-24.42-59.12-36.27-1,.66-1.68.92-2.09,1.4-6.96,8.13-7.71,16.2-2.78,26.33,8.29,17.04,14.92,34.88,22.25,52.38.9,2.15,2.39,4.28,2.5,6.47.14,2.71-.88,5.48-1.4,8.23-2.44-.51-5.29-.38-7.26-1.63-11.25-7.13-22.29-14.58-33.4-21.95-41.91-27.79-83.82-55.58-125.73-83.38-2.22-1.47-4.5-2.88-6.58-4.53-3.39-2.69-3.83-6.12-1.72-9.77,1.33-2.3,2.96-4.43,4.49-6.61,24.81-35.48,49.64-70.95,74.44-106.44,4.75-6.79,9.38-13.66,15.14-22.05Z"/>
  <path class="st0" d="M1496.54,347.79c-3.27,11.31-6.6,22.77-9.89,34.24-2.2,7.68-4.28,15.39-6.5,23.06-2.18,7.55-2.63,7.75-10.47,5.32-4.45-1.38-8.91-2.73-13.34-4.19-6.51-2.15-6.92-2.67-5.38-9.21,3.9-16.52,7.98-32.99,11.96-49.49.92-3.83,1.72-7.69,2.77-12.42-5.07-1.07-9.58-2.84-14.01-2.67-3.2.12-6.77,2.27-9.37,4.46-16.55,13.95-32.86,28.19-49.29,42.29-3.46,2.97-6.81,6.64-13.28,3.41.51-3.26.71-6.79,1.63-10.12,16.84-60.95,33.75-121.88,50.69-182.8,3.01-10.83,4.8-11.84,15.6-8.56,45.54,13.83,91.05,27.74,136.58,41.6,4.73,1.44,9.52,2.71,15.28,4.33-.25,2.4-.13,4.98-.81,7.32-17.67,60.71-35.42,121.4-53.16,182.09-.37,1.28-.61,2.72-1.39,3.72-1.13,1.46-2.89,3.78-4.03,3.59-1.88-.32-3.95-2.02-5.09-3.71-1.46-2.15-2.08-4.87-3.05-7.35-7.24-18.61-14.69-37.15-21.6-55.88-2.42-6.55-6.01-9.98-13.86-9.05Z"/>
  <path class="st0" d="M2051.03,938.07c-21.92.8-44.1,1.61-67.76,2.47-.1-9.55-.54-18.09-.13-26.59.18-3.72,4.02-3.74,7.07-3.96,17.28-1.29,34.56-2.63,51.83-3.97,3.57-.28,7.13-.63,11.38-1.01-.58-5.52-.37-10.31-1.78-14.57-.9-2.72-3.85-5.21-6.47-6.84-18.11-11.25-36.4-22.23-54.59-33.36-2.54-1.56-5.29-3.05-7.28-5.19-3.51-3.77-2.03-7.66,3.01-8.66,1.29-.26,2.66-.19,3.99-.25,62.6-2.69,125.2-5.38,187.8-8.06,2-.09,4-.18,6-.16,8.11.1,9.94,1.7,10.16,9.96.6,23.32,1.07,46.65,1.49,69.98.48,25.99.83,51.99,1.31,77.98.07,3.94.49,7.88.83,13.08-3.36.5-6.45,1.27-9.56,1.37-38.98,1.26-77.95,2.43-116.93,3.6-22.99.69-45.97,1.43-68.96,1.94-3.68.08-8.77,2.01-10.41-3.18-1.54-4.9,3.42-6.72,6.32-9.12,15.93-13.16,31.85-26.35,48.06-39.16,5.43-4.29,7.58-8.84,4.63-16.31Z"/>
  <path class="st0" d="M2201.27,1075.33c0,12.84.03,24.46,0,36.08-.12,37.64-.25,75.29-.41,112.93-.04,8.66-.65,9.24-8.96,8.92-65.91-2.56-131.81-5.12-197.71-7.75-3.84-.15-7.65-.99-11.04-1.45-1.86-5.82,2.05-7.58,4.65-9.85,16.55-14.47,33.19-28.84,49.78-43.27,2.48-2.15,4.83-4.45,8.31-7.66-3.35-.58-5.42-1.17-7.5-1.27-13.31-.62-26.63-1.1-39.94-1.69-9.68-.42-11.71-1.95-12.16-11.75-.26-5.68-3.62-11.67.04-16.83,18.45-1.1,36.28-2.17,56.21-3.36-3.39-3.05-5.08-4.88-7.06-6.32-14.52-10.62-29.12-21.12-43.62-31.76-2.84-2.08-5.32-4.64-9.12-7.99,3.34-1.57,5.17-3,7.14-3.23,4.29-.51,8.64-.44,12.97-.54,61.94-1.4,123.89-2.82,185.84-4.14,4.14-.09,8.3.58,12.58.91Z"/>
  <path class="st0" d="M570.97,1345.62c3.11-2.35,5.34-4.23,7.75-5.84,54.84-36.67,109.69-73.31,164.54-109.96.55-.37,1.07-.8,1.65-1.12,2.78-1.54,5.71-5.19,8.71-2.03,1.48,1.56,1.16,5.56.57,8.22-4.82,21.78-9.92,43.5-14.89,65.25-.71,3.1-1.19,6.26-2.16,11.46,4.61-2.8,7.43-4.37,10.12-6.16,10.54-7.01,20.97-14.19,31.59-21.09,5.93-3.86,8.34-3.63,13.12,1.31,4.54,4.69,8.67,9.78,12.96,14.67-15.05,12.48-29.02,24.06-44.5,36.9,4.22.46,6.64.94,9.05.94,18.33.05,36.66-.06,54.99.06,3.42.02,8.1-1.56,9.55,3.07,1.46,4.66-3.45,5.95-6.13,8-51.63,39.44-103.34,78.79-155.04,118.15-1.33,1.01-2.62,2.07-4.02,2.97-5.13,3.28-5.89,3.08-9.49-1.9-27.7-38.36-55.41-76.71-83.1-115.07-1.53-2.13-2.93-4.35-5.27-7.83Z"/>
  <path class="st0" d="M1289.4,338.58c3.5,12.42,7.01,24.84,10.51,37.26.63,2.24,1.32,4.47,1.91,6.72,2.4,9.07,1.6,10.91-6.68,14.84-3.61,1.71-7.24,3.39-10.96,4.83-5.78,2.23-6.03,1.66-8.22-4.3-5.72-15.51-11.82-30.88-19.63-46.11-1.9,5.57-3.85,11.11-5.68,16.71-4.65,14.24-9.14,28.52-13.91,42.72-1.07,3.2-2.99,6.12-5.66,11.45-2.52-4.76-4.15-7.1-5.06-9.69-22.05-62.8-44.02-125.63-65.96-188.46-.93-2.68-1.33-5.54-2.08-8.73,13.59-4.33,26.22-8.32,38.82-12.39,34.2-11.05,68.38-22.15,102.58-33.21,8.8-2.84,9.44-2.6,11.87,6.01,18.19,64.36,36.33,128.74,54.47,193.11.18.64.49,1.32.43,1.94-.26,2.43-.65,4.86-.99,7.28-2.15-.35-4.4-.41-6.43-1.12-1.84-.64-3.44-1.99-5.15-3.02-17.97-10.81-35.94-21.64-53.92-32.43-2.81-1.69-5.71-3.23-8.57-4.84-.56.48-1.12.95-1.69,1.43Z"/>
  <path class="st0" d="M990.45,1547.71c1.76,2.95,3.89,5.74,5.23,8.87,8.55,19.88,16.91,39.84,25.36,59.76,1.28,3.03,2.72,5.99,4.74,10.43,1.7-3.15,3.08-5.13,3.9-7.32,4.68-12.46,9.14-25.01,13.85-37.46,3.06-8.1,5.07-9.25,13.51-7.65,5.77,1.1,11.44,2.71,17.42,4.15-4.82,18.89-9.35,36.66-14.47,56.72,4.88-3.28,7.64-5.01,10.26-6.91,13.75-9.97,27.46-20,41.22-29.97,2.15-1.56,4.28-3.27,6.68-4.31,3.47-1.5,6.07.55,5.53,4.24-.33,2.28-1.23,4.48-1.9,6.71-18.67,62.16-37.32,124.33-56.03,186.48-1.02,3.39-2.5,6.65-3.95,10.48-15.38-5.02-29.83-9.72-44.27-14.45-31.95-10.47-63.89-20.95-95.83-31.42-.63-.21-1.29-.35-1.92-.57-8.25-2.86-8.5-3.26-5.54-11.33,7.23-19.69,14.53-39.35,21.79-59.02,15.68-42.47,31.34-84.94,47.06-127.4,1.22-3.29,2.82-6.44,4.24-9.66,1.04-.12,2.08-.25,3.12-.37Z"/>
  <path class="st0" d="M1445.6,1710.74c-3.94-14.03-7.89-28.05-11.8-42.09-3.36-12.04-2.92-12.99,8.59-18.15,3.64-1.63,7.34-3.14,11.07-4.54.85-.32,1.95.04,3.21.1,6.62,16.89,13.25,33.8,20.52,52.33,1.67-3.4,2.84-5.22,3.49-7.21,5.83-17.71,11.52-35.47,17.41-53.17,1.08-3.26,1.03-8.19,5.78-8.26,4.94-.07,4.64,5.09,5.75,8.23,21.55,61.26,42.97,122.57,64.36,183.89,1.18,3.37,1.96,6.89,3.15,11.16-4.79,1.59-8.78,2.95-12.78,4.25-41.52,13.4-83.04,26.8-124.56,40.19-1.9.61-3.78,1.3-5.7,1.85-7,2.02-8.03,1.59-10.02-5.33-4.43-15.36-8.67-30.77-13.01-46.16-13.65-48.4-27.37-96.78-40.87-145.22-1.06-3.81-5-8.85-.17-11.65,2.19-1.26,7.33,1.4,10.54,3.28,18.38,10.81,36.58,21.93,54.85,32.91,2.81,1.69,5.7,3.23,8.55,4.84.55-.42,1.1-.84,1.66-1.25Z"/>
  <path class="st0" d="M898.81,513.69c12.16,9.59,22.34,17.52,32.42,25.57,12.92,10.31,16.41,8.84,5.19,27.09-1.81,2.94-4.05,5.61-6,8.28-8.79-5.73-16.49-10.84-24.29-15.81-7.48-4.77-15.06-9.4-24.28-15.14,1.39,5.05,2.13,8.18,3.11,11.24,5.32,16.46,10.71,32.91,16.05,49.36.72,2.22,1.65,4.42,1.96,6.7.57,4.27-2.25,6.18-6.15,4.18-2.06-1.05-3.87-2.58-5.79-3.9-53.09-36.78-106.2-73.55-159.25-110.39-3.13-2.17-5.9-4.84-9.07-7.47,12.65-17.31,24.61-33.66,36.55-50.02,16.88-23.13,33.74-46.27,50.62-69.4,6.09-8.34,6.2-8.38,14.65-1.72,51.52,40.6,103.05,81.19,154.49,121.89,2.91,2.3,8.26,3.86,6.74,8.78-1.5,4.88-6.78,3.17-10.48,3.52-21.54,2.05-43.1,3.83-64.66,5.75-3.13.28-6.25.78-11.83,1.49Z"/>
  <path class="st0" d="M1919.51,1682.59c-14.09-8.26-166.92-129.79-171.02-135.73,2.16-5.08,7.01-4.13,11.05-4.5,23.21-2.12,46.43-4.08,69.64-6.11,1.51-.13,3-.49,6.54-1.08-4.42-3.55-7.41-5.99-10.44-8.38-9.41-7.42-18.91-14.75-28.24-22.27-6.27-5.05-6.89-7.41-2.72-14.42,3.15-5.3,4.78-11.81,10.4-15.17,15.54,9.86,30.82,19.56,46.09,29.26.51-.39,1.02-.78,1.53-1.18-.83-3.08-1.52-6.21-2.5-9.24-5.4-16.79-10.89-33.55-16.31-50.33-1.08-3.34-3.32-6.78-.16-9.78.74-.38,1.02-.6,1.34-.67.31-.07.75-.12.98.04,55.95,38.44,111.89,76.9,167.82,115.37,2.19,1.51,4.33,3.1,6.37,4.8.71.6,1.05,1.64,1.9,3.04-30.62,41.93-61.33,83.98-92.27,126.35Z"/>
  <path class="st0" d="M1673.33,247.18c29.7,9.75,58.12,19.1,86.55,28.41,17.72,5.81,35.47,11.55,53.19,17.35,10.68,3.49,10.7,3.53,6.91,13.81-16.93,45.94-33.88,91.88-50.82,137.81-5.76,15.62-11.53,31.25-17.31,46.87-.81,2.19-1.42,4.5-2.56,6.49-1.86,3.25-5.1,3.5-7.17.48-1.49-2.16-2.41-4.74-3.45-7.19-8.86-20.85-17.67-41.71-26.52-62.56-.77-1.82-1.68-3.59-3.12-6.67-1.53,3.08-2.78,5.14-3.6,7.36-4.66,12.48-9.14,25.03-13.83,37.5-3.25,8.63-4.94,9.54-14.31,7.61-5.72-1.18-11.93-1.06-16.71-5.12,4.67-17.86,9.25-35.39,14.36-54.95-4.02,2.4-6.26,3.51-8.25,4.96-14.85,10.74-29.61,21.61-44.52,32.28-2.72,1.95-5.99,3.14-11.23,5.81.72-5.35.72-8.23,1.51-10.88,19.11-63.81,38.3-127.6,57.52-191.37.74-2.47,2-4.78,3.36-8Z"/>
  <path class="st0" d="M534.42,816.49c10.22,0,18.84-.29,27.44.05,59.91,2.34,119.81,4.77,179.71,7.33,3.63.15,8.86-1.95,10.42,3.21,1.46,4.83-3.61,6.63-6.43,9.11-16.01,14.08-32.17,27.98-48.25,41.98-2.44,2.12-4.7,4.46-8.53,8.12,5.31.48,8.78.95,12.26,1.08,11.98.44,23.98.63,35.95,1.18,8.87.41,10.29,1.79,11.47,10.44.79,5.82,1.2,11.7,1.85,18.2-19.39,1.15-37.52,2.23-57.26,3.41,2.26,2.45,3.43,4.2,5.03,5.37,15.04,11.02,30.21,21.88,45.22,32.96,2.98,2.2,7.55,3.6,6.58,8.72-.28.47-.42.78-.63,1.03-.21.24-.47.53-.74.59-1.61.31-3.23.76-4.86.79-68.27,1.49-136.53,2.95-204.8,4.38-.97.02-1.99-.25-2.91-.57-.59-.2-1.05-.76-1.5-1.1v-156.28Z"/>
  <path class="st0" d="M1930.47,748.3c15.1-12.51,28.84-23.89,44.06-36.5-4.06-.59-6.15-1.16-8.25-1.17-18.65-.05-37.31.08-55.96-.04-3.36-.02-6.71-.95-11.12-1.62,1.57-2.88,1.99-4.69,3.12-5.55,56.03-42.79,112.12-85.51,168.93-128.79,3.49,4.85,6.13,8.55,8.79,12.23,25.77,35.62,51.54,71.24,77.32,106.85,1.17,1.62,2.38,3.21,3.56,4.82,2.38,3.24,2.3,6.12-1.24,8.49-1.66,1.11-3.33,2.21-4.99,3.32-54.27,36.26-108.54,72.54-162.84,108.77-2.9,1.94-6,3.58-8.96,5.34-4.69-4.27-2.75-8.23-1.91-11.93,5.19-22.72,10.47-45.41,15.69-68.12.43-1.86.55-3.79,1.07-7.48-8.99,6-16.68,11.14-24.37,16.27-6.09,4.07-12.21,8.11-18.26,12.24-3.03,2.07-6.26,2.94-9.2.44-6.02-5.14-11.4-10.89-15.45-17.57Z"/>
  <path class="st0" d="M1781.58,939.1c.29,4.35.68,7.26.64,10.17-.19,15.66-.59,31.31-.67,46.97-.02,4.92.61,9.86,1.17,14.76.57,5.02-2.24,7.89-7.45,7.46-3.94-.33-7.91-.64-11.86-.64-22.9.02-45.81-.07-68.71.29-18.32.28-36.63,1.13-54.94,1.77-1.6.06-3.2.37-5.24.62v12.37c3.06.36,5.63.84,8.21.94,27.63,1.09,55.26,2.24,82.89,3.12,15.62.5,31.26.42,46.88.82,8.75.22,8.39.53,8.04,9.13-.78,19.3-1,38.63-1.61,57.94-.11,3.41-1,6.79-1.68,11.1-5.19-1.54-8.95-2.62-12.69-3.76-89.45-27.37-178.91-54.73-268.35-82.13-3.16-.97-6.44-1.89-9.28-3.51-2.73-1.55-2.24-4.91.66-6.23,1.49-.68,3.19-.9,4.79-1.34,93.65-26.04,187.31-52.09,280.97-78.12,2.16-.6,4.4-.94,8.21-1.73Z"/>
  <path class="st0" d="M1082.63,1337.02c-2.72-3.27-5.18-5.84-7.2-8.72-9.38-13.35-18.61-26.81-27.99-40.17-1.89-2.7-3.7-5.92-6.37-7.51-4.23-2.52-4.03-5.56-3.15-8.65,5.54-3.95,10.67-7.45,15.64-11.17,30.58-22.88,61.13-45.8,91.67-68.73,2.9-2.18,5.66-4.56,9.19-7.41-2.66-3.42-5.02-6.47-7.88-10.15-41.52,25.99-80.66,54.63-121.45,82.23-5.32-7.96-10.01-15.07-14.8-22.1-4.68-6.88-9.71-13.55-14.15-20.58-4.5-7.12-11.16-13.06-13.21-22.4,2.83-1.22,5.13-2.41,7.55-3.24,90.03-30.96,180.06-61.9,270.12-92.76,4.08-1.4,8.34-4.82,12.83-.73-2.67,7.35-167.17,216.14-190.79,242.1Z"/>
  <path class="st0" d="M1332.06,1135.36c2.53,8.13-8.41,289.98-11.57,308.84-3.05-.57-6.21-.78-9.11-1.76-13.25-4.46-26.38-9.33-39.67-13.66-6.56-2.14-13.37-3.52-20.1-5.09-4.25-.99-6.36-4.91-4.78-8.96,2.04-5.2,4.13-10.39,5.81-15.71,9.6-30.39,19.14-60.79,28.57-91.23,2.83-9.15,5.21-18.44,8.05-28.57-4.55-1.3-8.22-2.34-12.68-3.62-8.8,23.8-17.22,46.89-25.87,69.89-8.47,22.54-13.99,46.21-24.77,68.13-23.89-10.32-48-16.59-70.79-26.05,2.47-7.69,156.03-229.39,170.97-247.41,1.37-1.65,3.38-2.77,5.93-4.8Z"/>
  <path class="st0" d="M1693.51,1278.74c-13.99,18.3-26.91,35.2-39.83,52.09-.61.79-1.2,1.6-1.83,2.37-5.33,6.53-6.51,6.5-11.75-.46-24.46-32.46-48.89-64.94-73.33-97.4-32.86-43.64-65.75-87.27-98.55-130.96-2.45-3.26-4.28-6.99-6.4-10.5l1.54-2.15c2.94.63,6.02.91,8.81,1.95,34.35,12.69,68.67,25.47,102.98,38.27,57.08,21.3,114.15,42.62,171.22,63.95,1.77.66,3.44,1.59,6.37,2.96-2.26,3.55-3.95,6.64-6.04,9.42-9.2,12.26-18.62,24.34-27.72,36.68-2.9,3.94-5.15,8.37-7.51,12.69-2.44,4.48-6.63,5.21-10.44,1.83-3.19-2.84-6.43-5.65-9.91-8.11-30.65-21.66-61.35-43.26-92.05-64.83-4.06-2.86-8.26-5.52-13.36-8.91-2.5,3.68-4.81,7.07-7.49,11,19.67,15.5,38.79,30.46,57.78,45.57,18.91,15.05,39.54,27.94,57.51,44.54Z"/>
  <path class="st0" d="M1507.96,635.42c24.61,8.96,47.38,17.23,70.11,25.59.75.28,1.13,1.54,1.99,2.78-1.09,1.85-2.11,3.89-3.4,5.73-54.86,78.35-109.75,156.68-164.66,234.99-1.71,2.44-3.44,4.98-5.66,6.9-2.37,2.06-5.33.65-5.82-2.49-.2-1.29.06-2.65.12-3.98,2.87-65.93,5.74-131.85,8.6-197.78,1.4-32.29,2.79-64.59,4.19-96.88.06-1.3.25-2.6.53-5.37,3.7.65,7.16.82,10.33,1.88,14.83,5,29.55,10.35,44.39,15.32,4.65,1.56,9.55,2.46,14.37,3.44,5,1.02,6.76,4.61,4.62,9.4-1.61,3.6-3.12,7.27-4.28,11.03-11.49,37.12-22.91,74.27-34.33,111.41-1.16,3.77-2.15,7.58-3.45,12.19,4.33,1.3,8,2.41,12.44,3.75,18.37-45.68,33.31-92.04,49.91-137.93Z"/>
  <path class="st0" d="M1651.97,712.31c2.68,2.95,5.29,5.3,7.28,8.09,8.1,11.4,15.85,23.05,24.05,34.38,3.85,5.32,8.36,10.15,12.66,15.13,2.57,2.98,2.6,8.03-.76,9.41-11.37,4.69-18.67,14.93-28.91,20.88-27.78,16.12-50.92,38.37-76.81,56.97-2.92,2.1-5.65,4.46-9.06,7.18,2.87,3.69,5.23,6.73,8.18,10.52,20.95-14,41.3-27.73,61.78-41.25,20.1-13.27,38.55-29.07,59.83-40.58,14.68,21.54,28.63,41.99,42.07,61.7-.74,1.8-.84,2.11-1,2.4-.16.29-.31.71-.56.8-93.39,32.3-186.78,64.58-280.17,96.85-1.26.43-2.53.82-3.83,1.12-.63.14-1.34.12-1.97,0-.63-.12-1.23-.43-1.81-.73-.27-.14-.45-.46-1.72-1.83,1.55-2.46,3.11-5.51,5.19-8.14,34.11-43.08,68.28-86.12,102.46-129.15,26.31-33.12,52.64-66.21,78.98-99.3.99-1.24,2.16-2.33,4.14-4.44Z"/>
  <path class="st0" d="M1407.54,1442.99c-.36-4.47-.7-7.06-.75-9.66-1.61-94.97-3.2-189.94-4.77-284.91-.05-2.99-.22-6.05.31-8.96.68-3.73,4.01-4.5,6.55-1.64,1.31,1.48,2.19,3.34,3.29,5,54.36,81.89,108.73,163.77,163.06,245.67.34.51.29,1.26.72,3.29-2.79,1.3-5.78,3.11-9.01,4.12-13.67,4.27-27.47,8.13-41.11,12.48-5.94,1.9-11.65,4.56-17.4,7.01-4.32,1.84-7.97.16-9.15-4.29-1.44-5.4-2.78-10.85-4.58-16.14-12.15-35.85-24.41-71.67-36.65-107.49-1.16-3.4-2.48-6.74-3.99-10.83-4.46,1.59-8.06,2.87-12.18,4.34.88,3.81,1.48,7.02,2.37,10.14,7.15,25.32,14.24,50.65,21.59,75.91,4.55,15.65,9.64,31.14,14.26,46.77,2.51,8.52,2.18,8.19-6.1,10.51-18.28,5.12-36.42,10.71-54.64,16.02-3.39.99-6.9,1.56-11.83,2.65Z"/>
  <path class="st0" d="M1088.6,709.15c3.09,3.54,4.69,5.16,6.05,6.96,57.12,75.81,114.21,151.63,171.3,227.45,1.8,2.39,3.9,4.66,5.17,7.32.83,1.75.41,4.09.67,7.97-97.11-36.2-192.63-71.81-289.46-107.91,2.28-3.99,3.72-7.22,5.78-9.98,9.76-13.08,19.77-25.97,29.52-39.06,2.34-3.14,4.17-6.7,5.99-10.2,2.36-4.54,6.41-5.44,10.22-2.19,3.5,2.98,7,6,10.75,8.65,30.64,21.66,61.33,43.25,92.02,64.83,3.8,2.67,7.7,5.19,12.52,8.44,2.57-3.65,4.92-6.97,7.71-10.94-19.9-15.68-39.28-30.83-58.52-46.15-18.84-15-39.54-27.7-56.96-44.23,16.03-20.68,31.21-40.26,47.25-60.97Z"/>
  <path class="st0" d="M1251.44,1024.46c-2.26,2.58-2.77,3.73-3.55,3.95-97.4,27.27-194.82,54.47-293.65,82.06-.68-4.03-1.78-7.38-1.73-10.71.21-15.32.89-30.64,1.07-45.96.06-5.24-.69-10.5-1.3-15.72-.59-5.04,2.37-8.19,7.41-7.46,1.62.24,3.21,1.09,4.8,1.07,44.52-.8,89.05-1.68,133.57-2.59.59-.01,1.17-.54,2.36-1.12v-12.19c-24.75-1.06-48.97-2-73.18-3.17-24.16-1.17-48.46,1.05-73.38-2.24.35-6.36.8-11.92.95-17.49.45-16.65.73-33.31,1.18-49.96.25-9.3,1.27-10.02,9.9-7.38,91.36,27.96,182.73,55.93,274.07,83.97,3.58,1.1,6.92,2.97,11.48,4.97Z"/>
  <path class="st0" d="M1253.42,627.12c22.42-6.66,43.71-13.04,65.03-19.29,8.71-2.55,9.44-1.88,9.59,7.73.83,50.61,1.63,101.22,2.49,151.84.75,44.62,1.59,89.23,2.3,133.85.07,4.08,1.47,8.67-2.02,11.53-1.23.24-1.55.36-1.87.34-.32-.02-.76-.07-.94-.29-1.48-1.75-3.06-3.43-4.32-5.32-55.03-82.85-110.03-165.72-165.85-249.83,3.86-1.75,6.59-3.35,9.54-4.27,14.29-4.47,28.69-8.6,42.94-13.19,5.61-1.8,10.97-4.39,16.38-6.76,3.95-1.73,7.99.24,9.09,4.48,1.49,5.73,2.86,11.51,4.76,17.11,11.79,34.9,23.71,69.75,35.62,104.61,1.38,4.05,3.02,8.02,4.84,12.83,4.19-1.52,7.8-2.83,12.39-4.5-6.81-24.25-13.53-47.84-20.03-71.49-6.39-23.21-15.98-45.56-19.93-69.39Z"/>
  <path class="st0" d="M912.49,1180.3c-2.17-6.75-4.17-12.97-6.42-19.95-3.27.92-6.07,1.51-8.73,2.49-24.99,9.24-49.96,18.55-74.93,27.84-1.56.58-3.08,1.41-4.7,1.67-2.47.41-5.01.43-7.52.62-.02-2.8-.81-5.87.07-8.35,10.37-29.19,21-58.28,31.54-87.41,8.73-24.11,17.44-48.23,26.17-72.35.79-2.19,1.21-4.66,2.51-6.49,1.43-2.02,3.58-4.63,5.61-4.81,1.84-.17,4.66,2.16,5.82,4.12,4.24,7.16,7.98,14.62,11.88,21.97,16.88,31.78,33.75,63.56,50.64,95.33.77,1.44,1.71,2.8,3.02,4.95,7.74-1.67,15.45-3.4,23.18-4.98,6.93-1.41,8.62-.69,10.58,5.51,2.12,6.66,3.92,13.44,5.44,20.26,1.38,6.15.13,8.37-5.84,10.79-7.39,2.99-14.92,5.63-23.39,8.79v10.85c0,27.33,0,54.66,0,81.99,0,3,.03,6,0,9-.15,12.46-2.37,13.81-13.36,7.81-40.95-22.33-81.89-44.68-122.76-67.17-2-1.1-3.27-3.54-4.87-5.35,2.05-1.47,3.9-3.48,6.19-4.32,26.58-9.74,53.23-19.29,79.86-28.92,3.07-1.11,6.09-2.37,10-3.9Z"/>
  <path class="st0" d="M1827.25,1165.83c-2.3,6.97-4.36,13.18-6.76,20.46,4.4,1.34,8.08,2.55,11.81,3.59,25.34,7.09,50.69,14.11,76.01,21.26,3.31.94,6.45,2.48,11.65,4.52-3.89,3.49-6,5.86-8.56,7.6-47.41,32.2-94.88,64.33-142.34,96.47-1.1.75-2.19,1.55-3.38,2.14-6.65,3.31-10.41.91-9.48-6.66,2-16.2,4.5-32.33,6.77-48.49,3.93-28.04,7.84-56.09,11.73-84.13.18-1.28.02-2.6.02-4.67-6.78-3.02-13.76-6.04-20.66-9.22-7.28-3.35-8.03-4.89-5.49-12.3,2.05-5.98,4.28-11.92,6.81-17.72,2.81-6.45,4.9-7.33,11.73-5.66,3.88.95,7.71,2.12,11.56,3.16,3.83,1.03,7.67,2.02,12.07,3.18,2.32-3.04,4.56-5.87,6.68-8.78,17.25-23.72,34.48-47.45,51.71-71.17.59-.81,1.16-1.63,1.75-2.43,7.16-9.67,9.76-9.54,14.83,1.08,9.04,18.94,17.93,37.95,26.92,56.92,11.13,23.48,22.34,46.92,33.38,70.44.89,1.89.73,4.26,1.07,6.41-2.43.23-5.07,1.21-7.25.59-27.23-7.73-54.4-15.69-81.58-23.57-3.45-1-6.93-1.88-11-2.98Z"/>
  <path class="st0" d="M1607.69,657.43c-14.44-19.9-28.32-39.04-42.21-58.18-5.68-7.82-11.39-15.62-17.06-23.45-7.97-11.01-7.06-13.26,6.75-15.1,22.78-3.04,45.6-5.81,68.4-8.72,22.8-2.91,45.59-5.91,68.4-8.72,2.39-.29,4.91.45,7.37.72-.69,2.68-.7,5.81-2.16,7.99-15.75,23.54-31.73,46.93-47.62,70.37-1.83,2.7-3.51,5.5-5.52,8.68,5.84,4.28,11.17,8.19,17.21,12.62,2.35-3.33,4.49-6.2,6.47-9.18,14.76-22.2,29.47-44.43,44.28-66.6,1.92-2.87,4.33-5.4,6.49-8.05,6.1,3.18,5.93,8.44,7.16,12.66,15.29,52.43,30.39,104.92,45.53,157.4.83,2.88,1.93,5.73,2.31,8.68.78,6.06-2.71,8.68-8.48,6.55-2.18-.81-4.22-1.99-6.31-3.01-36.23-17.67-72.45-35.34-108.69-53.01-3.26-1.59-6.56-3.11-10.47-4.96-5.24,5.85-10.25,11.56-15.38,17.16-5.82,6.35-7.07,6.45-14.08,1.1-4.5-3.43-8.96-6.94-13.26-10.63-6.27-5.37-6.61-7.57-2.26-14.43,4.09-6.45,8.41-12.76,13.13-19.89Z"/>
  <path class="st0" d="M1091.05,1418.05c-6.07-4.4-11.37-8.24-17.29-12.53-2.27,3.13-4.26,5.68-6.05,8.36-14.96,22.46-29.84,44.97-44.87,67.38-1.92,2.87-3.33,8.05-7.52,6.57-2.49-.88-4.3-5.44-5.24-8.68-15.74-54.02-31.29-108.09-46.89-162.16-.28-.96-.68-1.89-.89-2.86-.78-3.58-2.29-8.01,1.51-9.97,2.24-1.15,6.36,0,9.05,1.3,37.49,18.1,74.88,36.4,112.3,54.64,3.23,1.58,6.51,3.07,10.26,4.83,5.67-6.34,10.86-12.36,16.29-18.16,4.78-5.11,6.16-5.26,11.81-1.08,5.35,3.96,10.6,8.1,15.6,12.49,5.34,4.7,5.54,6.74,1.68,12.89-4.24,6.74-8.73,13.32-13.43,20.44,2.25,3.21,4.28,6.19,6.4,9.11,17.22,23.73,34.46,47.44,51.7,71.16.98,1.35,1.99,2.68,2.92,4.05,5.42,7.94,4.13,10.83-5.6,12.09-46.24,5.99-92.48,11.92-138.73,17.88-1.65.21-3.31.62-4.95.56-3.91-.14-5.35-2.47-3.66-6,.85-1.78,2.21-3.32,3.33-4.97,15.34-22.6,30.69-45.2,46.02-67.81,1.86-2.75,3.65-5.55,6.27-9.54Z"/>
  <path class="st0" d="M1656.35,1409.1c-6.06,4.35-11.37,8.16-17.56,12.59,7.43,9.48,14.34,18.32,21.28,27.13,6.81,8.63,13.68,17.21,20.48,25.85,6.91,8.79,14.1,17.38,20.2,25.75-2.62,5.56-6.2,4.75-9.41,4.65-39.62-1.26-79.25-2.57-118.87-3.86-15.32-.5-30.63-.99-45.95-1.48-3-.1-5.99-.17-8.99-.3-3.76-.16-8.29-.58-8.96-4.64-.41-2.49,2.06-6.06,4.16-8.26,28.82-30.06,57.8-59.96,86.74-89.91,2.5-2.59,4.91-5.26,7.65-8.22-4.17-7.15-8.09-13.68-11.82-20.32-3.97-7.07-3.7-8.17,3.12-12.95,4.36-3.05,8.85-5.95,13.34-8.8,8.71-5.53,10.2-5.3,16.55,2.51,4.6,5.65,9.12,11.37,14.02,17.49,6.03-1.91,11.69-3.68,17.33-5.51,25.97-8.41,51.94-16.83,77.9-25.25,1.27-.41,2.5-.94,3.78-1.3,9.34-2.65,11.54-.62,9.7,9.2-7.99,42.54-16.04,85.06-24.06,127.59-.8,4.25-1.38,8.56-2.41,12.75-.43,1.74-1.82,4.63-2.7,4.6-1.96-.07-4.04-1.4-5.75-2.67-1.28-.95-2.04-2.6-3.06-3.91-16.75-21.58-33.51-43.15-50.27-64.72-1.83-2.35-3.74-4.64-6.47-8.03Z"/>
  <path class="st0" d="M1347.46,1459.71c.9-8.74,1.6-16.34,2.49-23.93.81-6.89,1.87-7.92,8.8-7.95,6.32-.03,12.67.13,18.97.64,7.85.64,9.7,2.73,10.15,10.59.25,4.32.28,8.66.44,12.98q.39,10.67,10.18,13.84c28.49,9.26,56.98,18.52,85.47,27.78,14.36,4.67,14.75,6.44,3.56,17.01-33.18,31.34-66.34,62.69-99.61,93.93-1.75,1.65-4.51,3.61-6.5,3.32-3.85-.56-3.09-4.46-3.18-7.36-.83-27.64-1.62-55.27-2.45-82.91-.11-3.6-.39-7.19-.64-11.49h-21.27c0,3.5-.12,7.03.02,10.56,1.07,26.29,2.2,52.58,3.31,78.87.1,2.33.43,4.69.18,6.98-.48,4.41-2.97,5.66-6.91,3.48-2.02-1.12-3.81-2.68-5.65-4.11-44.16-34.37-88.31-68.75-132.47-103.13-.79-.61-1.59-1.22-2.37-1.83-2.92-2.29-6.66-4.96-4.83-8.8,1.07-2.25,5.08-3.82,8.02-4.35,40.94-7.42,81.93-14.6,122.91-21.86,3.58-.63,7.14-1.42,11.37-2.28Z"/>
  <path class="st0" d="M1380.08,441.41c2.73,1.42,5.76,2.47,8.15,4.33,45.54,35.32,91,70.74,136.48,106.15,1.05.82,2.15,1.61,3.03,2.6,4.15,4.67,3.18,8.82-2.89,10.17-9.41,2.1-18.97,3.58-28.48,5.26-34.43,6.07-68.86,12.1-103.29,18.17-1.6.28-3.16.83-5.68,1.51-.64,6.83-1.21,13.73-1.95,20.6-1.17,10.87-2.21,11.72-13.12,11.12-5.65-.31-11.31-.67-16.96-1.06-5.08-.36-7.86-2.94-8.11-8.23-.4-8.3-.99-16.58-1.54-25.63-8.17-2.74-16.29-5.52-24.45-8.18-23.43-7.61-46.88-15.17-70.32-22.75-1.58-.51-3.18-.99-4.73-1.59-7.82-3.02-8.59-6.16-2.35-12.1,34.78-33.05,69.65-65.99,104.57-98.88,1.29-1.21,4.31-2.62,4.94-2.09,1.52,1.3,2.84,3.65,2.95,5.65.68,12.3,1.03,24.63,1.43,36.95.63,19.62,1.21,39.24,1.84,59.63h21.51c-.08-33.13-3.24-66.47-3.36-99.83l2.33-1.8Z"/>
  <path class="st0" d="M960.4,871.35c6.9,3.01,13.92,5.95,20.83,9.13,7.23,3.32,7.73,4.59,5.03,12.36-1.97,5.65-4.02,11.29-6.33,16.81-2.92,7-5.04,8.1-12.3,6.31-7.7-1.9-15.33-4.13-23.49-6.35-2.4,3.24-4.58,6.11-6.7,9.03-17.43,23.97-34.85,47.94-52.27,71.92-1.17,1.62-2.25,3.32-3.56,4.82-4.38,5.06-7.3,4.82-10.69-.86-1.02-1.71-1.77-3.58-2.62-5.38-19.65-41.51-39.3-83.03-58.96-124.54-.57-1.2-1.38-2.32-1.75-3.57-.97-3.34.5-5.32,3.89-5.17,2.27.1,4.51,1.03,6.73,1.67,26.54,7.65,53.07,15.31,79.61,22.96,2.85.82,5.74,1.52,9.78,2.59,2.28-6.74,4.45-13.14,6.83-20.15-4-1.27-7.09-2.35-10.24-3.23-25.95-7.28-51.93-14.47-77.85-21.85-3.27-.93-8.49-.61-8.34-5.28.08-2.43,3.51-5.29,6.05-7.03,47.07-32.04,94.23-63.94,141.37-95.86,1.1-.75,2.16-1.88,3.36-2.09,2.77-.48,6.05-1.42,8.26-.37,1.34.64,1.77,4.73,1.45,7.12-3.69,27.71-7.59,55.4-11.47,83.09-2.17,15.49-4.46,30.97-6.59,46.47-.31,2.25-.04,4.57-.04,7.46Z"/>
  <path class="st0" d="M1078.72,640.05c6.27-4.64,11.59-8.57,17.41-12.88-7.43-9.4-14.43-18.26-21.44-27.12-6.83-8.62-13.73-17.18-20.48-25.86-6.85-8.82-14.3-17.24-21.89-28.56,6.07-.72,9.76-1.61,13.42-1.51,26.98.72,53.96,1.6,80.94,2.51,28.64.97,57.28,2.04,85.92,3.06,2,.07,4.13-.3,5.97.28,2.69.84,6.4,1.75,7.36,3.74.84,1.74-.9,5.53-2.57,7.54-4.03,4.86-8.69,9.2-13.09,13.75-25.24,26.12-50.48,52.24-75.7,78.38-2.28,2.36-4.41,4.86-6.74,7.44,4.32,7.36,8.49,14.17,12.34,21.16,3.09,5.6,2.78,7.3-2.23,10.92-5.39,3.9-10.99,7.55-16.68,11.01-6.38,3.88-8.84,3.41-13.61-2.35-4.87-5.89-9.55-11.93-14.71-18.4-3.02.77-5.88,1.34-8.64,2.23-29.15,9.42-58.28,18.91-87.43,28.34-13.14,4.25-15.09,2.64-12.59-10.74,8.09-43.21,16.28-86.4,24.44-129.59.31-1.64.63-3.27,1.03-4.89.74-3-.68-7.9,3.83-7.92,2.44-.01,5.38,3.21,7.27,5.62,17.1,21.74,34.01,43.62,51,65.45,2.02,2.6,4.15,5.11,6.84,8.41Z"/>
  <path class="st0" d="M1822.47,868.66c2.3,7.1,4.31,13.33,6.66,20.56,16.66-6.13,32.5-12.04,48.39-17.8,15.5-5.61,30.67-12.22,46.32-16.71,3.95,5.12,1.24,8.78-.02,12.3-10.79,30.1-21.7,60.15-32.58,90.21-7.82,21.61-15.63,43.22-23.46,64.82-.91,2.51-1.83,5.01-2.78,7.49-1.23,3.22-2.97,6.85-6.77,6.08-2.34-.47-4.78-3.33-6.05-5.71-19.52-36.4-38.86-72.91-58.25-109.38-1.86-3.51-3.79-6.98-6.25-11.5-7.18,1.58-14.22,3.21-21.29,4.66-9.6,1.97-10.83,1.23-13.55-8.03-1.41-4.79-2.72-9.61-3.94-14.46-2.33-9.22-1.43-11.07,7.16-14.42,6.81-2.66,13.69-5.14,21.67-8.13,0-3.55,0-7.12,0-10.68,0-30.33-.03-60.66.02-90.98.02-12.47,2.25-13.8,13.2-7.84,40.96,22.31,81.89,44.65,122.78,67.09,1.83,1.01,3.11,3.04,4.64,4.59-1.79,1.67-3.3,4.12-5.42,4.9-26.26,9.63-52.62,19.01-78.94,28.49-3.42,1.23-6.8,2.61-11.54,4.43Z"/>
  <path class="st0" d="M2421.95,686.98c-4.95,3.4-9.64,6.37-14.06,9.69-41.52,31.2-83.06,62.36-124.38,93.8-5.61,4.27-11.33,6.48-18.22,6.7-21.96.7-43.91,1.6-65.87,2.39-41.58,1.49-83.17,2.96-124.76,4.44-1,.04-2,.21-2.99.13-2.92-.24-6.58.17-7.05-3.82-.42-3.56,2.95-3.5,5.38-4.53,3.62-1.53,7.1-3.55,10.35-5.78,43.61-29.98,87.29-59.88,130.64-90.24,6.98-4.89,14.16-6.88,22.24-7.32,25.26-1.37,50.52-2.79,75.78-4.19,33.9-1.88,67.8-3.78,101.7-5.61,3.77-.2,8.08-1.68,11.23,4.32Z"/>
  <path class="st0" d="M937.71,431.52c-15.59-16.08-34.16-27.81-51.28-41.33-17.24-13.62-34.87-26.76-52.32-40.1-12.7-9.71-25.29-19.55-38.14-29.06-4.74-3.51-8.02-7.69-10.14-13.17-22.05-57.12-44.21-114.2-66.34-171.29-1.3-3.37-3.23-6.78,1.35-10.38,4.57,3.49,9.07,7.18,13.82,10.51,41.69,29.27,83.3,58.65,125.25,87.56,7.59,5.23,12.11,11.58,15.17,20.06,20.07,55.73,40.44,111.34,60.73,166.99,1.48,4.06,3.22,8.02,4.55,12.13.93,2.86,1.64,5.95-2.66,8.08Z"/>
  <path class="st0" d="M2017.48,1918.32c-.69,1.01-1.32,2.92-2.49,3.36-1.21.45-3.25-.09-4.42-.92-45.39-32.13-90.63-64.47-136.15-96.42-6.92-4.86-11.35-10.56-14.18-18.43-19.96-55.47-40.19-110.84-60.36-166.23-1.71-4.69-4.03-9.19-5.31-13.98-.58-2.17-.12-5.9,1.34-7.04,2.78-2.17,4.31.96,6.08,3.03,2.56,2.99,5.47,5.76,8.59,8.16,42.04,32.25,84.07,64.52,126.31,96.51,6.39,4.84,10.62,10.51,13.47,17.95,21.38,55.65,43.01,111.21,64.55,166.79.84,2.17,1.56,4.38,2.57,7.23Z"/>
  <path class="st0" d="M316.2,678.16c6.67,0,12.6.08,18.53-.01,51.27-.8,102.55-1.51,153.82-2.58,7.74-.16,14.07,1.86,20.41,6.16,49.31,33.47,98.76,66.72,148.18,100.03,4.13,2.79,8.54,5.22,12.37,8.37,1.42,1.17,1.54,3.92,2.25,5.94-2.03.31-4.1,1-6.1.86-3.94-.28-7.83-1.42-11.76-1.52-51.59-1.35-103.19-2.8-154.79-3.67-11.11-.19-20.51-2.99-29.82-9.07-48.49-31.69-97.28-62.91-145.91-94.38-3.33-2.16-8.35-3.37-7.17-10.11Z"/>
  <path class="st0" d="M2061.55,1252.66c2.97-.39,5.02-1.03,6.98-.83,4.89.5,9.74,1.89,14.62,2.02,53.92,1.46,107.84,2.83,161.77,3.95,6.47.13,11.45,2.82,16.5,6.07,29.37,18.95,58.75,37.88,88.13,56.83,20.98,13.53,42.02,26.98,62.87,40.71,2.79,1.84,6.95,5.59,6.51,7.56-1.2,5.3-5.93,1.6-9.22,1.65-3.33.05-6.66.03-9.99.1-50.6.96-101.21,1.77-151.8,3.03-8.44.21-15.36-1.88-22.29-6.58-49.56-33.69-99.32-67.07-148.92-100.7-5.06-3.43-11.73-5.15-15.18-13.8Z"/>
  <path class="st0" d="M1797.93,431.68c7.86-9.53,10.19-21.07,14.05-31.92,16.06-45.14,32.01-90.32,47.76-135.57,2.18-6.26,5.58-11.07,10.64-15.18,47.02-38.23,93.96-76.55,140.94-114.83,1.54-1.26,3.09-2.72,4.89-3.38,1.3-.48,3.54-.31,4.41.54.84.83.97,3.06.54,4.4-8.31,26.3-16.9,52.51-25.13,78.83-8.44,26.99-16.8,54.01-24.68,81.17-2.26,7.81-6.38,13.43-12.67,18.32-46.79,36.37-93.45,72.92-140.12,109.43-3.41,2.66-6.57,5.65-10.04,8.21-2.88,2.13-5.99,4.66-10.58-.03Z"/>
  <path class="st0" d="M718.01,1918.8c-4.02.18-5.27-2.32-4.2-5.65,8.03-24.99,16.18-49.94,24-75,8.92-28.58,17.75-57.2,26.13-85.94,2.09-7.18,5.94-12.22,11.67-16.68,47.04-36.59,93.96-73.33,140.9-110.04,3.93-3.07,7.54-6.62,11.73-9.25,1.79-1.12,4.7-.47,7.1-.62-.4,2.06-.48,4.26-1.28,6.15-1.66,3.94-4.11,7.57-5.53,11.57-17.66,49.87-35.29,99.74-52.63,149.72-2.63,7.57-6.76,13.34-12.92,18.33-46.3,37.52-92.44,75.24-138.66,112.86-2.27,1.85-4.77,3.43-6.32,4.54Z"/>
  <path class="st0" d="M312.34,1366.17c2.18-3.82,2.69-5.83,3.98-6.77,5.62-4.12,11.62-7.71,17.19-11.89,39.42-29.59,78.85-59.18,118.06-89.05,5.91-4.5,11.93-6.38,19.24-6.61,60.92-1.92,121.84-4.11,182.75-6.21,4.29-.15,8.61-.56,12.86-.18,1.41.13,3.05,2.16,3.74,3.71.27.59-1.61,2.6-2.88,3.35-5.96,3.52-12.36,6.37-18.05,10.27-42.59,29.17-85.08,58.49-127.5,87.9-4.83,3.35-9.74,5.23-15.65,5.54-60.19,3.22-120.38,6.62-180.57,9.92-3.56.2-7.15.03-13.19.03Z"/>
  <path class="st0" d="M1175.87,447.51c-1.68-4.87-3.12-9.23-4.69-13.53-7.19-19.7-14.49-39.36-21.61-59.07-3.2-8.86-2.57-10.03,6.25-13.02,6.3-2.14,12.84-3.68,18.94-6.28,5.61-2.39,8.43-.44,11.6,4.4,1.61,2.45,2.43,5.45,3.44,8.26,7.29,20.37,14.54,40.75,21.81,61.13,1,2.79,2.05,5.56,3.51,9.5,3.99-1.13,7.72-2.03,11.35-3.23,38.86-12.87,77.69-25.83,116.57-38.65,4.79-1.58,10.78-5.62,14.23.84,2.86,5.36-3.51,7.96-6.56,10.93-39.37,38.34-78.97,76.44-118.29,114.83-4.96,4.85-9.89,6.76-16.81,6.13-65.33-5.91-130.68-11.55-196.02-17.26-1-.09-1.99-.19-2.99-.23-3.99-.14-7.61-1.37-8.09-5.76-.49-4.49,3.79-4.98,6.78-5.96,30.98-10.2,61.99-20.29,93-30.4,19.3-6.29,38.62-12.54,57.91-18.87,3.1-1.02,6.1-2.35,9.7-3.75Z"/>
  <path class="st0" d="M873.75,670.41c-15.71-10.56-30.32-20.39-44.95-30.21-7.19-4.83-14.49-9.5-21.54-14.51-5.16-3.67-5.52-5.56-2.03-10.72,4.29-6.34,8.85-12.51,13.51-18.58,3.83-4.98,6.28-5.52,12.01-2.86,2.39,1.11,4.56,2.73,6.76,4.23,17.88,12.2,35.74,24.44,53.61,36.64,2.72,1.86,5.5,3.61,8.96,5.87,2.34-3.03,4.62-5.77,6.69-8.67,23.89-33.27,47.75-66.57,71.64-99.84,1.74-2.43,3.26-5.3,5.6-6.94,1.84-1.28,5.05-1.75,7.16-1.05,1.22.4,2.25,3.94,1.97,5.86-1.66,11.19-3.72,22.32-5.68,33.47-7.87,44.92-15.84,89.82-23.53,134.76-1.2,7.02-3.9,11.86-10.36,15.71-56.06,33.42-111.89,67.21-167.8,100.88-7.24,4.36-11.55,5.04-13.32,1.77-2.7-4.98,1.75-8.02,4.11-11.29,29.99-41.6,60.1-83.12,90.18-124.66,2.14-2.95,4.22-5.93,7.01-9.85Z"/>
  <path class="st0" d="M1519.51,1609.9c-9.43,3.07-18.24,5.89-27.02,8.79-33.83,11.2-67.64,22.45-101.48,33.61-2.81.93-5.81,1.95-8.68,1.85-5.09-.17-6.82-4.26-3.76-8.28,1.4-1.84,3.21-3.38,4.89-5,39.51-38.25,79.11-76.4,118.43-114.83,5.21-5.1,10.25-7.22,17.64-6.54,52.75,4.84,105.54,9.27,158.31,13.82,10.95.94,21.92,1.81,32.87,2.7,2.32.19,4.66.25,6.98.53,3.7.44,7.75.94,8.48,5.47.84,5.2-3.74,5.51-7.07,6.61-25.94,8.53-51.9,17.01-77.85,25.49-24.69,8.07-49.39,16.09-74.08,24.19-2.47.81-4.82,1.97-7.98,3.29,1.24,3.77,2.25,7.22,3.48,10.58,7.56,20.64,15.24,41.23,22.75,61.89,3.22,8.85,2.58,10.08-6.17,13.09-6.3,2.17-12.62,4.28-19.01,6.16-6.48,1.91-9.02.8-12.22-5.13-1.1-2.03-1.73-4.32-2.51-6.52-7.28-20.39-14.53-40.78-21.83-61.16-1.21-3.38-2.63-6.68-4.2-10.63Z"/>
  <path class="st0" d="M1588.23,461.55c15.85,5.08,30.39,9.77,44.96,14.41,27.6,8.78,55.2,17.53,82.81,26.3,1.27.4,2.49.96,3.78,1.28,4.1,1.02,8.31,2.63,7.94,7.49-.42,5.49-5.63,4.62-9.38,5.16-54.71,7.85-109.44,15.55-164.12,23.57-7.84,1.15-13.72-.42-19.86-5.8-48.11-42.15-96.54-83.92-144.85-125.84-2.75-2.39-5.71-4.75-7.73-7.7-1-1.46-.69-4.58.23-6.3.61-1.13,3.46-1.72,5.15-1.47,2.92.44,5.72,1.72,8.57,2.64,48.15,15.56,96.29,31.12,144.44,46.65,3.45,1.11,6.97,2.03,11.12,3.22,1.08-3.14,2.15-5.86,2.95-8.67,6.22-21.76,12.34-43.56,18.61-65.3,2.77-9.6,3.83-10.08,13.4-7.06,5.71,1.8,11.4,3.68,17.07,5.64,8.37,2.89,9.87,5.49,7.63,14.16-1.83,7.09-4.11,14.06-6.17,21.08-5.42,18.49-10.82,36.99-16.54,56.54Z"/>
  <path class="st0" d="M1877.22,699c2.62,3.66,4.88,6.9,7.22,10.09,24.08,32.73,48.19,65.45,72.23,98.2,1.95,2.66,4.12,5.41,5.07,8.47,1.48,4.75-2.05,7.73-6.85,6.12-2.19-.73-4.2-2.01-6.25-3.1-48.85-25.88-97.64-51.84-146.58-77.54-6.13-3.22-9.27-7.3-10.84-14.17-14.51-63.61-29.41-127.13-44.16-190.68-.6-2.58-1.44-5.31-1.12-7.83.25-2.02,1.71-4.81,3.35-5.46,1.45-.58,4.25.9,5.79,2.24,1.97,1.7,3.28,4.16,4.85,6.31,30.21,41.45,60.42,82.91,90.64,124.36,1.93,2.64,4.01,5.17,6.39,8.23,12.29-9.62,24.08-18.83,35.86-28.06,8.92-6.98,17.73-14.1,26.76-20.94,5.69-4.31,7.15-4.08,11.45,1.5,4.48,5.8,8.73,11.78,12.9,17.8,3.76,5.43,3.5,8.48-.99,13.15-1.6,1.67-3.59,2.96-5.44,4.38-17.41,13.42-34.84,26.83-52.23,40.27-2.6,2.01-5.07,4.18-8.06,6.65Z"/>
  <path class="st0" d="M1834.56,1408.58c-11.18,15.55-21.68,30.12-32.15,44.71-15.72,21.92-31.42,43.87-47.15,65.79-2.9,4.04-5.48,8.76-12.89,6.07,0-3.17-.51-6.73.08-10.1,9.66-55.43,19.55-110.81,29.07-166.26,1.01-5.9,3.61-9.45,8.56-12.42,56.83-34.09,113.58-68.32,170.35-102.52,4.32-2.6,8.61-5.88,13.72.96-9.67,16.5-22.14,31.57-33.36,47.45-11.34,16.05-23.02,31.86-34.53,47.78-11.49,15.87-22.96,31.76-34.81,48.16,2.89,2.2,5.12,4.06,7.52,5.68,18.78,12.65,37.63,25.22,56.39,37.9,8.37,5.65,8.48,6.61,2.58,14.89-3.67,5.15-7.37,10.29-11.21,15.32-4.44,5.81-7.06,6.39-13.59,3.09-2.07-1.04-3.92-2.51-5.85-3.83-17.86-12.23-35.72-24.48-53.59-36.7-2.73-1.87-5.54-3.62-9.14-5.97Z"/>
  <path class="st0" d="M857.84,1349.99c-21.83-29.68-42.94-58.38-64.05-87.07-6.12-8.32-12.34-16.56-18.3-24.98-3.43-4.85-3.24-4.98.8-12.22,2.84,1.26,5.86,2.38,8.69,3.88,49.44,26.15,98.81,52.43,148.33,78.43,5.85,3.07,8.91,7.03,10.38,13.44,14.51,63.25,29.27,126.44,43.93,189.66.75,3.23,1.74,6.57,1.52,9.78-.13,1.84-2.16,4.16-3.94,5.04-1.13.56-3.78-.69-5.03-1.89-2.13-2.05-3.73-4.67-5.49-7.09-29.82-40.9-59.62-81.81-89.44-122.72-2.12-2.91-4.3-5.77-6.81-9.15-3.01,2.08-5.49,3.61-7.78,5.4-17.31,13.54-34.57,27.16-51.88,40.7-9.71,7.6-10.28,7.48-17.77-2.8-3.33-4.58-6.72-9.12-9.93-13.78-3.93-5.7-3.79-8.22.79-13.1,1.58-1.68,3.56-3,5.4-4.42,17.4-13.43,34.82-26.83,52.22-40.26,2.6-2.01,5.08-4.16,8.36-6.85Z"/>
  <path class="st0" d="M1183.35,1603.88c-1.79,5.95-3.47,11.28-5,16.66-5.48,19.22-10.84,38.46-16.37,57.66-2.56,8.89-3.96,9.58-12.83,6.85-6.36-1.96-12.71-4-18.98-6.25-6.03-2.16-7.24-4.06-6.67-10.42.23-2.62,1.1-5.2,1.84-7.75,6.43-22.06,12.91-44.11,19.35-66.17.55-1.87.96-3.79,1.71-6.76-3.59-1.27-6.89-2.54-10.25-3.61-39.34-12.56-78.69-25.09-118.03-37.63-2.22-.71-4.93-.92-6.5-2.35-1.98-1.8-3.44-4.51-4.18-7.09-.18-.63,3.22-3.06,5.19-3.4,11.49-1.96,23.03-3.61,34.57-5.25,45.84-6.5,91.7-12.87,137.52-19.52,5.12-.74,8.89.34,12.73,3.68,50.29,43.74,100.68,87.38,151.03,131.06,1.51,1.31,3.4,2.53,4.16,4.22.87,1.93,1.56,4.84.68,6.4-.77,1.36-3.89,2.16-5.83,1.94-3.26-.37-6.42-1.68-9.59-2.7-48.16-15.59-96.31-31.21-144.47-46.78-3.09-1-6.27-1.73-10.1-2.77Z"/>
  <path class="st0" d="M1974.84,1020.67c17.78-.58,33.72-1.09,49.65-1.63,9.65-.33,19.3-.87,28.95-1.04,8.33-.15,9.51.94,9.73,8.82.2,6.99.14,13.99-.06,20.98-.19,6.7-2.13,8.93-8.57,10.05-2.6.45-5.31.32-7.97.4-22.3.64-44.61,1.27-66.91,1.92-2.28.07-4.56.28-7.91.5-.2,4.18-.57,8.03-.55,11.87.2,40.96.49,81.93.66,122.89.02,4.79,1.79,11.23-4.56,12.85-7.04,1.79-7.2-5.72-9.14-9.65-24.32-49.24-48.28-98.67-72.62-147.91-3.09-6.25-3.14-11.41-.41-17.79,25.35-59.38,50.4-118.9,75.55-178.37,1.17-2.76,1.98-5.88,3.85-8.05,1.5-1.74,4.36-3.02,6.63-3.05,1.08-.02,2.73,3.24,3.18,5.23.57,2.54.19,5.3.19,7.96.1,50.62.2,101.25.3,151.87,0,3.6,0,7.19,0,12.17Z"/>
  <path class="st0" d="M760.01,1028.53c-5.09,0-9-.13-12.91.02-21.3.82-42.61,1.7-63.91,2.56-10.39.42-11.27-.41-11.33-11.13-.03-6.33-.11-12.66.06-18.99.17-6.44,1.55-8.22,7.77-9.56,3.22-.7,6.61-.77,9.93-.86,20.65-.58,41.3-1.06,61.94-1.62,3.64-.1,7.27-.4,12.31-.69,0-3.94.02-7.47,0-10.99-.23-40.64-.48-81.29-.7-121.93-.02-3.32-.27-6.76.52-9.92.48-1.91,2.53-4.34,4.28-4.74,1.55-.35,4.06,1.44,5.41,2.95,1.5,1.67,2.16,4.09,3.18,6.18,23.99,49.05,47.85,98.18,72.14,147.09,3.61,7.27,3.72,13.25.54,20.66-25.17,58.76-49.97,117.68-74.88,176.55-1.17,2.76-1.96,5.85-3.78,8.1-1.46,1.79-4.39,3.69-6.34,3.38-1.6-.25-3.28-3.5-3.88-5.71-.68-2.49-.19-5.29-.19-7.95-.06-50.64-.11-101.28-.17-151.92,0-3.56,0-7.13,0-11.48Z"/>
  <path class="st0" d="M493.56,1741.17c4.87.72,8.13.95,11.26,1.71,40.4,9.83,80.78,19.73,121.15,29.65,11.67,2.87,12.19,3.53,11.74,15.6-1.36,36.25-2.77,72.49-4.3,108.73-.1,2.4-1.37,4.75-1.96,6.64-50.28-11.2-100.02-19.54-149.46-29.45-.33-.07-.66-.09-.99-.15-11.52-2.12-11.24-2.07-9.14-13.61,5.54-30.44,10.77-60.93,16.21-91.38,1.57-8.79,3.45-17.53,5.47-27.75Z"/>
  <path class="st0" d="M254.73,1302.91c-4.96-5.91-8.76-10.88-13.01-15.44-30.21-32.38-60.53-64.67-90.77-97.03-2.64-2.82-4.95-5.94-7.14-8.59,29.04-27.99,57.24-55.23,85.52-82.38,3.05-2.92,6.56-5.37,10.49-8.55,2.89,2.94,5.31,5.11,7.39,7.57,27.12,32.02,54.2,64.06,81.25,96.13,7.22,8.56,7.2,9.12.39,17.79-22.64,28.78-45.28,57.57-68.06,86.24-1.6,2.01-4.37,3.1-6.06,4.26Z"/>
  <path class="st0" d="M285.36,432.36c23.8-3.26,45.84-6.24,67.86-9.29,16.15-2.24,32.28-4.72,48.45-6.79,4.51-.58,9.16-.09,14.48-.09.58,3.21,1.36,6.05,1.57,8.94,3.2,42.83,6.34,85.66,9.46,128.5.59,8.08-.61,9.7-9.69,12.24-31.4,8.79-62.83,17.48-94.24,26.23-3.84,1.07-7.57,2.65-11.46,3.38-2.89.55-5.97.11-9.09.11,1.59-16.44-2.09-31.04-3.8-45.78-4.25-36.7-9.01-73.34-13.49-110.02-.31-2.5-.04-5.06-.04-7.44Z"/>
  <path class="st0" d="M2449.69,1617.07c-44.19,4.51-86.59,12.74-130.59,17-.69-4.13-1.46-7.25-1.71-10.41-2.46-31.85-4.84-63.7-7.23-95.55-.7-9.29-1.46-18.58-2.04-27.88-.88-14.24-.82-14.26,12.43-17.95,31.4-8.74,62.81-17.45,94.2-26.22,3.51-.98,6.89-2.48,10.41-3.4,4.34-1.12,6.65.51,7.02,4.39,1.63,17.17,2.98,34.37,5.01,51.5,3.96,33.37,8.32,66.68,12.44,100.03.32,2.56.04,5.18.04,8.49Z"/>
  <path class="st0" d="M2480.77,746.39c4.18,5.2,7.41,9.78,11.19,13.84,30.64,32.87,61.41,65.63,92.08,98.49,2.6,2.79,4.77,5.99,7.03,8.87-32.39,30.17-62.66,60.92-95.14,90.87-3.22-3.04-5.75-5.02-7.78-7.42-27.35-32.24-54.65-64.52-81.9-96.85-6.79-8.05-6.74-9.23.14-17.91,21.08-26.62,42.12-53.26,63.41-79.72,3.09-3.84,4.2-10.28,10.98-10.18Z"/>
  <path class="st0" d="M2265.1,178.35c-3.91,21.57-7.49,41.17-11,60.78-3.4,19.01-6.72,38.03-10.08,57.04-.17.98-.3,1.98-.55,2.94-2.29,8.98-3.05,9.51-12.44,7.22-40.74-9.95-81.47-19.95-122.2-29.97-11.43-2.81-11.84-3.3-11.37-14.73,1.25-30.62,2.61-61.23,3.88-91.85.23-5.65.06-11.33.46-16.97.19-2.72,1.3-5.37,2.01-8.13,20.35,7.09,40.57,9.14,60.34,13.18,30.66,6.26,61.44,11.91,92.15,17.91,3.11.61,6.11,1.78,8.81,2.59Z"/>
  <path class="st0" d="M672.59,1748.77c-43.42-9.14-85.11-17.92-126.8-26.68-26.71-5.61-53.43-11.15-80.14-16.77-2.59-.55-5.29-1.09-7.6-2.29-1.11-.58-2.14-2.78-1.93-4.04.2-1.17,1.95-2.66,3.26-2.94,2.22-.48,4.63-.24,6.95-.09,48.19,3.03,96.38,6.09,144.58,9.13,37.23,2.34,74.45,4.66,111.68,6.98,1.99.12,4,.11,5.99.29,9.14.8,10.4,2.39,8.15,11.38-11.21,44.88-22.51,89.74-33.79,134.6-5.36,21.3-11.06,42.53-15.91,63.95-1.67,7.36-5.64,12.23-11.52,17.31-1.41-1.81-3.17-3.09-3.46-4.66-.54-2.9-.27-5.97-.26-8.96.26-55.29.53-110.58.8-165.88.02-3.58,0-7.16,0-11.34Z"/>
  <path class="st0" d="M2464.5,690.88c3.3,5.67-.73,8.37-2.89,11.33-17.48,23.95-35.1,47.8-52.68,71.68-15.8,21.47-31.6,42.93-47.38,64.41-1.95,2.66-3.78,5.42-6.04,8.68,2.51,2.88,4.84,5.64,7.25,8.31,44.47,49.18,88.96,98.35,133.41,147.55,2.21,2.44,4.35,5.03,5.95,7.88.55.97-.29,3.22-1.17,4.34-.55.69-2.64.85-3.6.37-2.05-1.01-3.91-2.49-5.69-3.96-67.26-55.65-134.5-111.31-201.74-166.98-1.54-1.27-3.1-2.54-4.5-3.96-2.56-2.59-2.44-5.4-.01-7.94,1.84-1.92,3.95-3.58,5.99-5.28,51.64-43.16,103.36-86.23,154.82-129.61,5.5-4.64,11.39-5.88,18.28-6.8Z"/>
  <path class="st0" d="M2451.16,1399.82c-.69,5.89-5.36,5.89-8.89,7.03-30.44,9.78-60.92,19.45-91.38,29.14-23.17,7.37-46.35,14.7-69.51,22.09-3.12.99-6.17,2.21-10.16,3.65,1.24,12.43,2.39,24.62,3.69,36.8,4.33,40.42,8.7,80.83,13.07,121.24,1.9,17.56,3.93,35.1,5.68,52.67.37,3.73,2.44,9.42-2.57,10.47-6.14,1.28-5.69-5.4-6.65-9.12-21.49-83.2-42.81-166.43-64.15-249.66-.33-1.29-.57-2.61-.88-3.9-2.43-10.05-1.43-11.35,9.25-12.09,7.31-.5,14.62-1.06,21.94-1.56,60.18-4.09,120.36-8.07,180.53-12.38,7.71-.55,13.97,1.56,20.03,5.64Z"/>
  <path class="st0" d="M452.99,1212.37c-2.87,2.99-4.89,5.53-7.33,7.58-52.89,44.27-105.89,88.42-158.66,132.84-4.51,3.8-9.63,3.99-14.62,5.14-2.76.64-4.36-1.96-3.13-4.6,1.39-2.98,3.42-5.69,5.39-8.36,32.17-43.75,64.38-87.48,96.57-131.22,2.56-3.48,5.1-6.97,8.29-11.33-2.56-3.01-4.99-6.03-7.58-8.9-44.47-49.19-88.97-98.35-133.45-147.53-1.79-1.97-3.88-3.82-5.1-6.11-.75-1.41-.79-4.29.13-5.18,1.01-.97,3.67-.91,5.29-.35,1.78.62,3.23,2.27,4.77,3.54,67.26,55.65,134.53,111.3,201.76,166.99,2.48,2.05,4.62,4.51,7.66,7.51Z"/>
  <path class="st0" d="M463.92,587.33c-2.36-22.2-4.6-43.37-6.87-64.54-4.34-40.4-8.71-80.81-13.05-121.21-.96-8.94-1.92-17.89-2.8-26.84-.19-1.95-.52-4.08.06-5.85.41-1.24,2.13-2.44,3.5-2.81.87-.24,2.67.8,3.17,1.73,1.08,2.01,1.72,4.29,2.3,6.53,21.73,84.49,43.44,168.98,65.14,253.48.33,1.29.64,2.59.85,3.91,1.01,6.43.12,7.79-6.11,8.72-3.62.54-7.29.82-10.94,1.06-66.15,4.43-132.3,8.92-198.47,13.06-4.62.29-9.56-1.62-14.07-3.28-3.57-1.31-3.61-4.86-.27-6.72,2.29-1.28,4.95-1.93,7.48-2.73,52.67-16.76,105.35-33.49,158.02-50.26,3.78-1.2,7.49-2.62,12.07-4.24Z"/>
  <path class="st0" d="M2059.02,109.99c4.75,1.53,4.32,5.14,4.34,8.38.04,6.99-.07,13.98-.12,20.98-.36,49.61-.72,99.22-1.07,148.84-.03,3.64,0,7.27,0,11.85,8.7,1.93,17.04,3.87,25.41,5.63,60.89,12.79,121.79,25.54,182.68,38.34,3.71.78,9.42.54,8.72,5.89-.72,5.54-6.21,3.51-9.94,3.28-49.84-3.08-99.68-6.21-149.52-9.39-36.88-2.35-73.75-4.75-110.63-7.21-12.52-.84-13.18-1.79-10.18-13.75,13.38-53.24,26.8-106.48,40.2-159.72,3.09-12.26,6.52-24.45,9.09-36.81,1.53-7.34,5.91-11.98,11.02-16.31Z"/>
  <path class="st0" d="M2398.12,345.22c8.16-.03,9.84,5.04,11.38,10.29,7.21,24.59,14.44,49.18,21.66,73.77,14.36,48.86,28.74,97.71,43.07,146.57,2.46,8.37,2.11,10.39-4.28,12.9-2.89,1.13-7.1.38-10.21-.81-24.87-9.51-49.64-19.3-74.4-29.09-5.52-2.18-13.15-3.35-15.71-7.51-2.52-4.08-.17-11.42.65-17.25,8.41-60,16.92-119.99,25.49-179.97.44-3.08,1.6-6.06,2.37-8.89Z"/>
  <path class="st0" d="M605.43,106.34c8.23,3.08,9.96,7.89,9.42,15.3-2.14,29.55-3.56,59.14-5.23,88.72-.48,8.58-.45,8.69-8.75,10.16-62.57,11.11-125.14,22.19-187.74,33.16-3.42.6-7.04.08-10.37.08-1.79-5.61.04-9.13,4.06-11.82,1.38-.93,2.74-1.89,4.11-2.83,62.07-42.5,124.14-85.01,186.22-127.5,2.72-1.86,5.56-3.55,8.27-5.27Z"/>
  <path class="st0" d="M279.52,818.11c-5.2,8.31-138.6,145.78-145.51,149.82-5.58-3.49-5.02-8.37-3.1-13.74,6.98-19.43,13.9-38.88,20.83-58.32,18.55-52.06,37.09-104.13,55.65-156.19,1.21-3.41,2.56-6.76,3.68-9.68,8.26-3.19,12.71-.27,16.83,6.33,16.58,26.56,33.67,52.8,50.54,79.17.52.81.75,1.8,1.08,2.61Z"/>
  <path class="st0" d="M2127.09,1829.77c13.29-2.41,26.66-4.89,40.05-7.25,51.45-9.03,102.91-18.02,154.37-27.03.98-.17,1.99-.7,2.92-.57,2.73.39,6.83.14,7.84,1.75,2.11,3.34.26,6.99-2.91,9.47-1.83,1.43-3.8,2.7-5.72,4.01-61.52,42.13-123.05,84.27-184.58,126.4-1.92,1.32-3.78,2.75-5.81,3.89-5.47,3.07-12.5-.44-13.26-6.66-.24-1.96-.02-3.99.1-5.98,1.92-31.56,3.85-63.13,5.8-94.69.04-.63.42-1.24,1.18-3.35Z"/>
  <path class="st0" d="M337.09,1704.11c-8.05-.7-9.96-4.92-11.46-10.07-9.49-32.58-19.17-65.11-28.75-97.66-11.83-40.22-23.63-80.44-35.44-120.66-.66-2.23-1.48-4.45-1.82-6.74-.84-5.56,4.82-10.94,10.36-9.81,2.25.46,4.39,1.53,6.56,2.38,27.58,10.79,55.15,21.6,82.72,32.4,7.74,3.03,7.89,3.05,6.69,11.65-5.55,39.88-11.19,79.75-16.8,119.62-3.1,22.08-6.15,44.16-9.34,66.23-.6,4.13-1.74,8.18-2.72,12.65Z"/>
  <path class="st0" d="M2523.65,1319.28c-8.27,2.32-12.68-.19-16.63-6.57-15.78-25.46-32.13-50.55-48.26-75.79-4.27-6.69-4.28-6.73,1.32-12.53,43.93-45.49,87.88-90.98,131.82-136.46,1.16-1.2,2.13-2.76,3.54-3.48,2.16-1.1,5.3-2.87,6.76-2.07,1.83,1.01,3.01,4.27,3.29,6.69.25,2.12-1.03,4.47-1.81,6.66-25.67,72.07-51.35,144.14-77.05,216.19-.89,2.48-1.98,4.89-2.99,7.35Z"/>
  <path class="st0" d="M432.21,1912.3c10.19,1.25,19.41,2.44,28.64,3.5,51.29,5.87,102.59,11.71,153.89,17.55,12.58,1.43,25.16,2.85,37.73,4.3,1.98.23,4.11.24,5.84,1.06,1.25.59,2.67,2.35,2.67,3.59,0,1.24-1.48,3.31-2.64,3.58-3.2.73-6.56.94-9.87.96-63.65.32-127.3.58-190.94.85-26.32.11-52.65.19-78.97.32-8.04.04-8.71-1.2-6.29-8.4,8.69-25.88,17.17-51.83,25.61-77.79,14.2-43.7,28.26-87.45,42.54-131.12,1.12-3.44.93-9.55,6.29-8.63,6.41,1.1,3.28,7.13,2.93,10.83-4.85,50.73-9.98,101.44-15,152.16-.85,8.58-1.53,17.17-2.42,27.24Z"/>
  <path class="st0" d="M89.12,1193.25c3.71,3.44,6.61,6.15,9.54,8.84,50.35,46.13,100.71,92.26,151.05,138.39,2.21,2.02,4.66,3.91,6.35,6.31.88,1.25,1.1,4.15.26,5.12-.95,1.09-3.78,1.64-5.18,1.03-3-1.31-5.67-3.43-8.37-5.37-67.26-48.53-134.49-97.08-201.76-145.59-5.93-4.28-12.1-8.24-18.06-12.47-4.1-2.91-4.21-5.9-.41-8.64,46.16-33.32,92.35-66.61,138.51-99.94,14.04-10.14,28-20.4,42.01-30.57,1.88-1.36,3.78-2.78,5.88-3.7.98-.43,3.03-.2,3.57.52.87,1.13,1.65,3.33,1.1,4.33-1.4,2.58-3.45,4.83-5.43,7.06-37.8,42.61-75.64,85.19-113.44,127.8-1.75,1.97-3.34,4.08-5.64,6.9Z"/>
  <path class="st0" d="M2500.29,1639.48c-.4-3.34-.53-5.96-1.05-8.51-13.98-68.8-28-137.59-42-206.39-.53-2.6-1.18-5.24-1.13-7.85.02-1.36,1.35-3.73,2.27-3.82,1.64-.15,4.19.58,4.96,1.82,1.73,2.77,2.75,6.02,3.78,9.16,20.36,61.95,40.65,123.93,61.04,185.88,7.8,23.7,15.81,47.32,23.69,70.99,1.84,5.52.47,7.58-4.99,7.57-73.92-.09-147.83-.19-221.75-.3-2.32,0-4.74.21-6.94-.37-1.31-.34-2.99-1.93-3.16-3.15-.17-1.21,1.03-3.36,2.18-3.87,2.7-1.2,5.7-1.77,8.61-2.41,55.57-12.19,111.16-24.35,166.73-36.55,2.26-.5,4.45-1.26,7.74-2.21Z"/>
  <path class="st0" d="M2645.9,855.81c-15.43-14.15-29.9-27.43-44.39-40.7-38.58-35.34-77.17-70.68-115.76-106.03-2.21-2.03-4.67-3.88-6.43-6.26-1-1.35-.79-3.59-1.13-5.43,2.11-.36,4.5-1.53,6.25-.9,2.73.98,5.07,3.11,7.49,4.86,53.51,38.61,106.98,77.26,160.51,115.83,19.73,14.22,39.6,28.24,59.38,42.39,4.63,3.31,4.44,5.59-.21,8.93-30.29,21.79-60.57,43.59-90.79,65.48-29.41,21.31-58.71,42.78-88.17,64.03-3.15,2.28-6.8,7.8-10.91,2.93-3.46-4.11,1.99-6.99,4.39-9.71,37.53-42.44,75.18-84.78,112.79-127.15,2.17-2.44,4.21-5,6.96-8.28Z"/>
  <path class="st0" d="M2302.71,136.68c-19.57-2.28-37.7-4.43-55.85-6.51-50.97-5.83-101.94-11.63-152.91-17.45-5.29-.6-10.65-.92-15.83-2.05-1.64-.36-3.42-2.76-3.89-4.55-.22-.85,2.31-3.26,3.88-3.58,3.22-.65,6.62-.45,9.95-.46,83.65-.22,167.31-.41,250.96-.65,6.32-.02,12.63-.46,18.95-.6,5.51-.12,7.03,2.14,5.31,7.39-22.89,69.93-45.76,139.87-68.65,209.8-.83,2.52-1.51,5.17-2.85,7.41-.66,1.1-2.84,2.15-4.01,1.87-1.24-.3-2.43-2.06-3.02-3.44-.47-1.1-.06-2.61.07-3.93,4.76-48.07,9.54-96.14,14.28-144.22,1.24-12.57,2.33-25.15,3.61-39.04Z"/>
  <path class="st0" d="M234.18,409.78c2.84,14.33,5.53,28.3,8.38,42.25,11.65,57.06,23.35,114.11,35.02,171.17.6,2.93,1.28,5.9,1.33,8.86.02,1.35-1.26,3.72-2.22,3.86-1.62.25-4.29-.38-5.04-1.57-1.73-2.75-2.74-6.01-3.77-9.15-27.15-82.5-54.26-165.02-81.41-247.52-1.14-3.47-2.7-6.8-3.79-10.29-1.47-4.71.35-6.92,5.17-6.91,73.24.2,146.48.37,219.72.56,2.66,0,5.41-.35,7.96.2,1.63.35,2.97,2.06,4.44,3.16-1.31,1.64-2.38,3.62-4.02,4.81-1.22.88-3.2.7-4.82,1.06-56.54,12.47-113.09,24.94-169.63,37.43-2.21.49-4.37,1.23-7.32,2.07Z"/>
  <path class="st0" d="M1387.57,719.99c0,21.98.07,43.97-.03,65.95-.05,10.85-1.92,12.58-12.79,13.02-6.97.28-13.94.74-20.91,1.01-5.68.21-7.21-1.88-6.49-7.88.43-3.61.63-7.27.56-10.9-.81-42.62-1.7-85.25-2.56-127.87-.05-2.66-.21-5.34-.05-7.99.28-4.76,2.91-7.45,7.72-7.22,8.98.42,17.97.87,26.91,1.79,4.61.47,8.04,6.25,8.14,13.15.14,10.32-.04,20.65-.06,30.98-.02,11.99,0,23.98,0,35.97h-.44Z"/>
  <path class="st0" d="M1128.35,1321.99c1.82-3.86,2.86-7.4,4.91-10.2,26.31-35.98,52.72-71.89,79.2-107.75,4.86-6.59,7.53-7.08,14.17-2.95,7.03,4.37,13.96,8.91,20.82,13.55,3.45,2.34,3.44,5.83.53,9.18-3.02,3.48-6.14,6.93-8.78,10.7-24.17,34.65-48.24,69.36-72.35,104.05-1.33,1.91-2.6,3.87-4.06,5.68-2.93,3.64-6.53,4.75-10.41,1.69-7.05-5.56-14.05-11.21-20.75-17.17-1.66-1.48-2.13-4.3-3.28-6.78Z"/>
  <path class="st0" d="M997.67,1132.37c-.08-6.07,3.78-10.55,10.61-12.8,14.83-4.89,29.74-9.58,44.62-14.32,27.24-8.67,54.48-17.35,81.73-25.96,10.35-3.27,12.36-2.14,16.15,8.25,2.38,6.53,4.95,13,7.41,19.51,1.83,4.84.28,7.53-4.61,8.6-4.5.98-9.06,1.91-13.41,3.41-39.9,13.8-79.75,27.72-119.61,41.59-2.51.87-4.99,1.88-7.57,2.52-3.77.93-6.99-.67-8.06-4.13-2.84-9.2-5.1-18.57-7.27-26.66Z"/>
  <path class="st0" d="M1153.12,704.63c8.42,1.69,12.34,6.38,16.1,11.67,24.5,34.4,49.18,68.68,73.78,103.01,7.09,9.89,6.71,11.63-3.21,19.25-5.25,4.03-10.27,8.37-15.45,12.5-3.93,3.14-7.08,2.41-9.6-1.93-1.98-3.42-3.91-6.9-6.29-10.04-25.48-33.69-51.05-67.31-76.58-100.95-1.61-2.12-3.33-4.17-4.76-6.41-3.33-5.23-2.98-8.24,2.19-11.79,7.93-5.44,16.17-10.43,23.8-15.31Z"/>
  <path class="st0" d="M1484.13,829.2c4.49-5.61,8.25-9.79,11.44-14.37,24.17-34.63,48.22-69.34,72.31-104.02,1.33-1.91,2.54-3.92,4.05-5.68,3.66-4.25,6.7-4.91,11.19-1.52,6.9,5.2,13.54,10.76,20.04,16.45,3.37,2.95,3.58,8.61.93,13.71-1.06,2.05-2.59,3.85-3.97,5.73-25.41,34.56-50.81,69.12-76.25,103.66-6.57,8.92-8.9,9.26-17.86,3.27-6.06-4.05-12.33-7.79-18.27-12.01-1.67-1.19-2.51-3.56-3.62-5.23Z"/>
  <path class="st0" d="M1014.76,888.5c3.85,1.07,6.11,1.6,8.32,2.33,41.35,13.7,82.69,27.41,124.03,41.16,9.81,3.27,11.01,5.64,8.33,15.4-1.93,7.02-3.75,14.07-5.7,21.09-1.32,4.77-4.28,5.83-8.92,3.88-5.47-2.29-11.03-4.46-16.7-6.18-39.12-11.91-78.29-23.68-117.44-35.51-2.23-.67-4.49-1.27-6.65-2.11-4.41-1.71-6.31-4.92-4.61-9.47,3.14-8.41,5.91-17.05,10.11-24.92,1.62-3.03,6.7-4.21,9.24-5.67Z"/>
  <path class="st0" d="M1515.24,1195.62c1.49.92,3.25,1.44,4.11,2.61,12.49,17.14,24.66,34.52,37.32,51.53,16.08,21.62,32.57,42.93,48.83,64.42,6.76,8.93,6.34,10.98-3.21,17.22-5.01,3.27-10.08,6.47-15.17,9.62-6.55,4.06-11.51,3.49-16.69-1.98-1.36-1.44-2.4-3.18-3.56-4.81-25.01-34.87-50.03-69.74-75.01-104.62-6.96-9.71-6.62-11.46,2.62-18.62,5.49-4.26,10.77-8.81,16.24-13.11,1.22-.96,2.83-1.44,4.52-2.27Z"/>
  <path class="st0" d="M1724.38,885.17c1.81,1.8,5.05,3.55,5.9,6.1,2.82,8.5,5,17.24,7.02,25.98,1.31,5.7-3.64,8.08-7.12,10.85-1.71,1.37-4.29,1.68-6.5,2.39-41.17,13.15-82.33,26.3-123.51,39.4-10.05,3.2-12.22,2.1-15.77-7.41-2.55-6.83-5.18-13.63-7.71-20.46-1.64-4.43-.25-7.21,3.86-8.36,7.63-2.13,15.34-4.05,22.82-6.64,37.08-12.8,74.09-25.79,111.13-38.7,2.82-.98,5.68-1.82,9.88-3.15Z"/>
  <path class="st0" d="M1718.39,1160.1c-1.64-.49-3.88-1.08-6.07-1.81-41.65-13.78-83.31-27.54-124.94-41.39-9.75-3.24-10.62-5.37-7.71-15.53,2.01-7.01,3.75-14.09,5.73-21.11,1.06-3.76,3.42-5.53,7.48-4.22,22.71,7.34,45.38,14.83,68.16,21.94,23.16,7.23,46.45,14.02,69.65,21.11,10.1,3.09,11.07,5.25,7.31,15.16-2.24,5.9-5.08,11.63-6.79,17.67-1.86,6.6-6.85,7.32-12.83,8.16Z"/>
  <path class="st0" d="M1347.65,1328.45c0-21.99-.06-43.99.03-65.98.04-10.46,1.77-12.03,12.18-12.44,7.29-.29,14.57-.83,21.87-1.11,4.41-.17,6.58,2.4,6.29,6.78-.37,5.6-.91,11.22-.8,16.82.79,41.65,1.73,83.29,2.61,124.94.04,2,.08,4,.01,6-.15,4.86-2.92,7.58-7.55,7.48-8.99-.2-18-.63-26.94-1.55-5.1-.52-8.59-6.42-8.66-13.96-.11-10.99.18-21.99.22-32.99.05-11.33.01-22.66.01-33.99h.72Z"/>
</svg>