<?xml version="1.0" encoding="UTF-8"?>
<svg id="Layer_0_xA0_Image" xmlns="http://www.w3.org/2000/svg" version="1.1" viewBox="0 0 2048 2732">
  <!-- Generator: Adobe Illustrator 30.2.1, SVG Export Plug-In . SVG Version: 2.1.1 Build 1)  -->
  <defs>
    <style>
      .st0 {
        fill: #582e91;
      }
    </style>
  </defs>
  <path class="st0" d="M1753.62,2095.64c-7.23,15.3-9.57,30.91-17.61,44.99-13-15.54-25.08-29.99-38.11-45.58-1.13,3.39-2,5.35-2.42,7.39-3.23,15.96-6.5,31.91-9.44,47.93-.69,3.76-2.3,6.72-5.81,7.05-2.02.19-4.71-1.79-6.33-3.52-3.56-3.79-6.63-8.05-9.91-12.11-.7.24-1.4.48-2.09.72,3.11,61.34,5.62,122.72,9.5,184.01,3.64,57.36,8.93,177.92,6.59,185.19-5.74-6.37-11.94-2.79-17.97-1.09-28.52,8.06-57,16.27-85.5,24.38-3.15.9-6.37,1.52-10.74,2.54-1.4-3.99-2.92-7.53-3.91-11.22-48.67-181.4-97.31-362.81-145.93-544.23-15.43-57.58-30.82-115.16-46.25-172.74-.77-2.87-1.74-5.68-2.74-8.95-11.78-1.98-23.4-5.14-35.81.45-1.26-3.02-2.54-5.27-3.15-7.69-5.54-21.96-10.82-43.98-16.52-65.89-1.23-4.73-.95-7.92,3.05-11.34,5.98-5.11,11.24-11.06,16-15.86,6.23,3.74,10.95,7.18,16.15,9.6,189.67,88.24,379.38,176.39,569.13,264.47,5.19,2.41,10.82,3.87,17.59,6.25-2.97,18.72-7.06,38.3-12.32,59.37-16-9.89-30.77-19.03-46.73-28.89-.93,10.6-1.71,19.41-2.53,28.83,8.04,1.74,15.36,3.32,22.54,4.87-2.17,32.08-4.28,63.21-6.43,95.01,8.08,2.98,15.79,5.82,23.93,8.82.73,7.72-4.01,13.8-6.32,20.51-2.49,7.23-5.45,14.33-8.62,21.3-2.94,6.46-3.72,14.22-10.45,19.15-8.1-4.05-11.83-11.87-17.38-17.78-5.69-6.07-10.84-12.65-16.24-19-5.32-6.26-10.66-12.51-16.95-19.88-7.23,11.94-13.68,22.61-20.66,34.13-3.63.4-4.73-3.66-6.54-6.55-15.57-24.85-31.05-49.75-46.58-74.62-1.88-3.01-3.85-5.96-6.49-10.03Z"/>
  <path class="st0" d="M529.02,2031.45c4.26,4.17,7.46,7.95,11.28,10.95,147.46,115.96,294.96,231.89,442.61,347.62,4.51,3.54,6.15,7.26,6.52,12.51,1.35,19.61,2.89,39.2,4.4,58.8,4.5,58.13,9.02,116.25,13.53,174.37.1,1.33.26,2.66.31,3.99.26,7.66-1.18,9.44-8.88,10.04-9.3.72-18.62,1.19-27.93,1.72-39.25,2.21-78.51,4.37-117.76,6.59-34.59,1.96-69.2,3.75-103.77,6.12-8.38.57-14.87-1.34-22.04-5.99-30.46-19.75-61.5-38.63-92.34-57.8-6.46-4.02-12.99-7.94-20.07-12.26-10.47,15.26-20.58,30-30.69,44.74-5.59-.49-4.72-5.25-5.5-8.33-8.94-35.17-16.92-70.61-26.7-105.54-6.49-23.17-6.55-46.7-7.67-70.22-3.43-71.89-6.53-143.79-9.7-215.69-2.34-53.26-4.57-106.53-6.89-159.79-.48-10.98-1.14-21.96-1.65-32.94-.15-3.14-.99-6.61,2.95-8.89Z"/>
  <path class="st0" d="M275.22,2020.37c10.07-20.48,20.15-40.96,30.82-62.67-4.88.91-6.89,4.01-9.29,6.22-57.4,52.79-114.75,105.63-172.12,158.46-1.72,1.58-3.46,3.13-5.16,4.73-3.16,2.96-6.36,3.28-10.83-.7,3.64-10.92,7.47-22.41,11.83-35.47-3.93,1.61-6.59,2.49-9.06,3.75-21.34,10.95-42.64,21.96-63.96,32.95-2.07,1.07-4.08,2.41-6.29,3.02-1.68.46-4.92.48-5.19-.2-.72-1.83-.8-4.38-.07-6.22.95-2.41,2.89-4.44,4.46-6.6,27.33-37.8,54.72-75.57,81.94-113.46,2.4-3.35,3.34-7.72,5.55-11.24,1.87-2.98,4.29-5.8,6.99-8.06,43.29-36.02,86.68-71.93,130.04-107.87,86.2-71.46,172.4-142.92,258.61-214.38,7.48-12.39,21.36-13.46,32.97-18.48,1.76-.76,4.13-.11,6.33-.11-7.97,46.17-15.76,91.37-23.57,136.56-11.69,67.59-23.4,135.19-35.12,202.77-6.26,36.09-12.6,72.16-18.79,108.26-.49,2.87-.38,5.92-.05,8.83,6.3,55.27,12.62,110.53,19.05,165.79,7,60.21,14.17,120.41,21.16,180.63,6.34,54.59,12.55,109.2,18.8,163.8.78,6.86,1.48,13.72,2.31,21.53-3.35-.17-5.51-.22-7.67-.4-13.94-1.16-27.91-2.16-41.82-3.61-5.86-.61-10.89-.37-13.42,6.57-3.54-4.03-6.41-7.28-9.9-11.25,7.35-3.7,5.11-10.44,4.84-16.77-1.01-23.3-1.93-46.61-2.93-69.92-.14-3.15-.56-6.28-1.05-11.47-9.93,15.98-10.54,34.28-24.61,47.15-2.24-3.94-4.2-6.88-5.68-10.05-12.66-27.17-25.13-54.43-37.91-81.54-2.15-4.56-5.52-8.54-9.58-14.66,1.79-15.14,3.83-32.63,5.95-50.12,1.53-12.56,3.27-25.1,4.71-37.67.34-2.92.33-6.04-.33-8.89-22.48-97.67-45.06-195.31-67.66-292.95-.21-.91-.87-1.71-2.42-4.68.58,15.15.95,28.1,1.58,41.05,1.61,32.95,3.39,65.89,5.01,98.84,3.27,66.56,6.48,133.13,9.7,199.69.56,11.65,1.02,23.3,1.53,34.96.04,1,.47,2.21.05,2.95-.87,1.53-2.18,2.82-3.32,4.2-1.21-1.35-2.88-2.52-3.51-4.11-.85-2.11-.92-4.55-1.29-6.85-7.64-47.68-15.27-95.36-22.91-143.04-9.59-59.85-19.19-119.69-28.78-179.54-4.43-27.62-8.77-55.26-13.38-82.84-.95-5.68-2.95-11.18-4.46-16.76-.71-.05-1.41-.1-2.12-.15Z"/>
  <path class="st0" d="M1338.66,2640.65c-14.97,0-29.6-.35-44.2.09-18.31.56-36.62,1.54-54.9,2.82-6.56.46-10.77-1.76-13.87-7.34-2.24-4.03-5.04-7.75-8.1-12.37-12.1,5.72-23.89,10.93-35.33,16.83-7.9,4.07-15.84,5.68-24.79,5.74-35.32.24-70.63,1.21-105.94,1.89-3.55.07-7.1,0-9.73,0-.87-24.59-1.57-47.76-2.54-70.92-1.6-38.28-3.38-76.56-5.05-114.83-.74-16.98-1.18-33.97-2.23-50.93-.41-6.65,1.5-10.83,7.13-14.91,88.72-64.37,177.24-129.02,265.81-193.6,29.88-21.79,59.78-43.56,89.63-65.38,3.71-2.71,7.21-5.72,11.97-9.51,1.76,3.86,3.66,7.15,4.81,10.68,17.59,53.8,35.08,107.62,52.59,161.44,4.74,14.56,8.3,29.65,14.52,43.55,6.37,14.22,6.74,28.77,7.25,43.62,2.56,74.26,5.11,148.51,7.69,222.77.36,10.49.43,10.44-9.66,11.86-6.59.93-13.24,1.68-19.71,3.19-3.73.87-7.15,3.09-12.46,5.49-5.49-2.44-7.7-10.39-12.35-16.11-4.59-5.66-8.57-11.81-13.48-18.67-12.94,4.68-25.87,8.82-38.27,14.18-3.91,1.69-6.65,1.8-9.98.49-1.91-12.94-11.36-21.55-17.17-33.89-15.3,10.91-29.77,21.24-45.34,32.34,7.36,7.7,14.21,14.8,20.97,21.98,2.17,2.31,5.54,4.26,2.72,9.5Z"/>
  <path class="st0" d="M721.92,383.06c9.35,24.79,18.7,49.58,28.11,74.5,25.93,3.52,51.33,6.97,76.73,10.4,10.23,1.38,20.43,3.36,30.71,3.97,27.26,1.62,54.16,5.72,81.08,10.01,57.23,9.12,114.51,17.94,171.77,26.89,32.91,5.14,65.81,10.3,98.72,15.41,7.2,1.12,14.77,1.48,16.95,10.66-4.85,5.63-210.95,124.82-219.01,126.77-10.79-16.42-21.48-32.67-32.36-49.22-1.96.92-3.19,1.32-4.22,2.02-22.63,15.31-45.88,29.82-67.53,46.42-8.67,6.64-17.7,9.9-27.48,12.58-77.09,21.09-154.21,42.07-231.32,63.05-3.43.93-6.95,1.5-11.45,2.46-2.91-12.91-5.68-24.82-8.27-36.76-9.81-45.24-19.51-90.5-29.37-135.72-1.57-7.19-1.66-12.83,3.23-19.96,10.52-15.32,19.09-32.04,27.61-48.63,4.08-7.95,10.8-13.28,16.04-20.02,21.68-27.89,43.39-55.76,65.27-83.5,3.4-4.31,7.77-7.86,11.69-11.76,1.04.15,2.09.29,3.13.44Z"/>
  <path class="st0" d="M604.02,860.63c-11.84-3.11-20.42-9.69-32.32-13.58,23.29,51.68,45.65,101.31,68.18,151.3-2.05,1.86-3.51,4.33-5.39,4.71-8.78,1.76-17.66,3.17-26.56,4.16-1.94.22-4.25-1.63-6.2-2.85-30.79-19.25-61.51-38.63-92.37-57.77-4.81-2.98-7.72-6.87-9.97-11.94-21.64-48.69-42.86-97.59-65.48-145.83-11.04-23.54-15.68-48.63-22.26-73.3-7.55-28.31-14.61-56.75-21.67-85.19-.84-3.37-1.24-7.28-.4-10.58,15.8-62.63,31.89-125.19,47.69-187.82,1.83-7.25,4.7-13.73,8.81-19.9,14.22-21.35,28.19-42.87,42.45-64.2,2.91-4.36,4.46-8.55,3.71-13.93-1.15-8.24-.93-16.7-2.5-24.83-1.14-5.91.82-9.25,5.06-12.74,16.22-13.33,32.23-26.91,48.32-40.4,42.89-35.98,85.78-71.96,128.69-107.93,3.02-2.53,6.15-4.93,9.08-7.27,7.26,5.47,38.22,44.47,40.17,50-4.4,4.21-8.89,8.02-12.82,12.34-25.11,27.61-50.2,55.25-75.05,83.1-4.38,4.9-8.23,10.5-11.28,16.33-31.39,59.89-62.65,119.85-93.74,179.9-6.97,13.47-9,28.27-8.95,43.75,3.19-4.81,6.38-9.62,10.39-15.64,8.39,6.56,16.38,12.38,23.72,18.93,1.42,1.27.89,5.56.22,8.18-4.88,19.03-9.92,38.02-15.16,56.95-1.47,5.33-1.21,10.25.2,15.57,21.61,81.07,43.07,162.19,64.53,243.3.4,1.52.41,3.14.91,7.21Z"/>
  <path class="st0" d="M839.9,253.61c-12-6.91-24.01-13.82-36.59-21.07,4.79-7.43,12.52-7.15,18.5-9.91,6.23-2.87,12.87-4.85,21.83-8.14-17.49-6.36-32.66-11.88-48.5-17.64.99-6.96,1.9-13.36,2.99-21.06-17.76,2.41-34.43,4.68-48.99,6.66-14.87-13.69-28.33-26.02-41.71-38.44-2.81-2.61-5.3-5.55-9.24-9.71,5.18-1.64,8.49-2.9,11.9-3.74,47.21-11.59,94.48-22.92,141.62-34.8,11.87-2.99,23.24-.12,34.69.95,51.73,4.86,103.41,10.31,155.11,15.55,7.29.74,14.6,1.36,21.87,2.22,2.95.35,6.04.73,8.74,1.87,34.97,14.74,69.87,29.66,104.82,44.44,23.62,9.98,46.91,20.95,71.11,29.26,13.49,4.63,23.72,12.57,34,21.36,33.95,29,67.95,57.95,101.89,86.97,2.91,2.49,5.51,5.33,8.86,8.6-14.17,7.26-27.09,13.88-40.92,20.96,1.36,10.47,2.7,20.76,4.32,33.28-4.28-2.78-7.32-4.36-9.9-6.5-37.42-31.09-74.87-62.15-112.07-93.5-6.87-5.79-13.9-9.09-23.04-10.11-34.09-3.79-68.08-8.46-102.11-12.78-.97-.12-1.96-.02-4.88-.02,2.97,2.56,4.62,4.27,6.54,5.58,17.91,12.17,35.9,24.24,53.79,36.44,2.82,1.92,5.29,4.36,9.65,8.01-20.09,1.53-37.57,2.85-57.72,4.38,8.58,8.15,15.38,14.6,22.36,21.22-10.05,10.93-19.48,21.08-28.78,31.35-2.43,2.68-4.88,5.5-6.58,8.65-2.37,4.37-5.04,4.42-8.9,2.16-10.9-6.4-21.88-12.65-32.86-18.9-1.93-1.1-4-1.96-7.25-1.76,3.03,4.41,6.05,8.83,9.86,14.38-2.23,3.09-4.83,6.81-7.55,10.43-5.2,6.93-10.45,13.82-15.73,20.69-5.23,6.79-5.27,6.8-12.94,3.18-57.22-27.01-114.44-54.03-171.66-81.05-19.88-9.39-39.78-18.72-59.61-28.2-3.41-1.63-8.58-2.35-7.89-7.62.69-5.31,5.75-4.59,9.55-5.18,13.74-2.14,27.5-4.21,41.25-6.31.07-.71.13-1.41.2-2.12Z"/>
  <path class="st0" d="M675.73,1040.01c.77,12.27,1.58,25.08,2.48,39.35,4.01-2.87,6.82-5.03,9.78-6.97,3.18-2.08,5.77-6.63,10.32-4.38,4.89,2.41,2.32,7.09,1.85,10.77-1.76,13.87-3.84,27.7-5.72,41.55-.54,3.95-.83,7.93-1.37,13.15,10.03,3.49,20.2,7.04,31.4,10.94-4.28,12.28-8.4,24.07-12.42,35.6.3.96.3,1.88.72,2.16,8.55,5.76,12.43,15.05,17.98,23.16,19.74,28.87,39.83,57.49,59.76,86.23,2.04,2.95,3.87,6.04,6.4,10-8.21,1.6-8.15,7.28-8.66,12.93-6.52,70.96-13.13,141.91-19.71,212.87-1.45,15.58-2.74,31.18-4.35,46.75-.7,6.79.23,13.04,2.75,19.45,16.71,42.43,33.2,84.95,49.61,127.5,1.32,3.43,5.07,7.17,1.29,10.99-3.66,3.7-7.63.2-11.18-.78-12.83-3.55-25.48-7.72-38.29-11.33-4.96-1.4-10.17-1.9-16.99-3.12-1.31-2.57-3.48-6.61-5.44-10.75-27.86-58.64-55.38-117.44-83.76-175.83-6.03-12.4-10.3-25.02-13.59-38.23-11.41-45.86-22.66-91.77-34.68-137.47-2.76-10.48-3.73-20.8-3.95-31.45-1.26-62.28-2.64-124.56-4.02-186.84-.23-10.3.44-20.27,3.06-30.49,6.38-24.81,11.36-49.97,16.9-74.99.29-1.3.46-2.63.79-3.92,2.33-9.05,5.31-10.46,13.41-6.31,2.37,1.21,4.66,2.57,7,3.85,9.32,5.08,18.64,10.15,28.62,15.6Z"/>
  <path class="st0" d="M1273.08,2096.01c1.17,6.82-3.2,9.34-6.67,12.3-31.91,27.25-63.86,54.47-95.8,81.7-46.9,39.97-93.8,79.93-140.71,119.88-2.49,2.12-5.1,4.08-7.01,5.6-36.97-28.57-73.21-56.62-109.5-84.62-61.71-47.6-123.45-95.16-185.17-142.75-2.11-1.63-4.46-3.07-6.15-5.06-1.13-1.33-2.11-3.73-1.66-5.18.45-1.41,2.68-2.58,4.37-3.17,1.48-.52,3.29-.13,4.95-.07,93.85,3.57,187.7,7.2,281.56,10.71,64.57,2.41,129.14,4.64,193.72,6.95,19.64.7,39.28,1.36,58.91,2.19,3.17.13,6.3,1.03,9.14,1.52Z"/>
  <path class="st0" d="M727.35,350.72c-2.08,3.03-3.75,6.48-6.31,9.04-40.67,40.85-81.45,81.59-122.21,122.35-1.88,1.88-3.59,4.07-5.78,5.48-1.41.9-4.15,1.47-5.24.7-1.56-1.11-2.87-3.54-2.96-5.47-.1-2.17,1.26-4.42,2.01-6.63,17.49-51.72,35.07-103.41,52.39-155.18,2.2-6.57,5.48-11.79,10.82-16.26,37.02-31.04,73.84-62.31,110.83-93.39,3.04-2.55,6.12-8.09,10.77-4.52,3.8,2.92.07,7.42-1.08,11-5.72,17.74-11.68,35.41-17.52,53.11-1.13,3.42-2.13,6.89-3.33,10.8,2.6,1.45,4.78,2.87,7.11,3.95,72.93,33.48,145.86,66.96,218.85,100.31,3.85,1.76,8.16,3.12,12.35,3.44,29.22,2.27,58.48,4.06,87.7,6.4,6.28.5,10.46-1.24,14.77-5.84,32.59-34.76,65.45-69.26,98.24-103.82,2.7-2.85,5.55-5.56,7.73-7.73,19.14,6.77,37.22,13.17,56.27,19.91-1.76,2.95-2.65,4.98-4.01,6.62-44.54,53.95-89.17,107.83-133.59,161.88-2.53,3.08-5.03,4.85-8.74,5.8-15.15,3.89-30.21,8.15-45.39,11.94-7.78,1.94-15.56,1.2-23.22-1.41-74.03-25.31-148.04-50.66-222.15-75.7-10.21-3.45-19.49-7.99-28.17-14.38-16.36-12.05-33.11-23.56-49.72-35.27-2.7-1.9-5.48-3.69-8.23-5.54-.73-.53-1.45-1.06-2.18-1.6Z"/>
  <path class="st0" d="M1332.25,709.29c-13.28-1.15-25.43-2.2-38.46-3.32,2.18-11.68,4.14-22.03,6.05-32.4,4.04-21.94,8.06-43.88,12.09-65.82.3-1.63.46-3.35,1.09-4.85,1.45-3.43,4.67-4.05,7.01-1.14,1.63,2.02,2.67,4.57,3.72,7,5.43,12.52,10.77,25.09,16.18,37.62,1.3,3.02,2.75,5.98,4.21,9.16,9.28.59,18.13,1.15,28.38,1.8-1.12-10.05-2.01-19.2-3.19-28.31-4.23-32.69-8.58-65.37-12.82-98.06-1.15-8.83-.26-9.96,8.71-12.41,3.53-.96,7.09-1.83,10.62-2.82.59-.17,1.07-.72,2.67-1.85-6.26-21.48-12.65-43.37-19.19-65.81-4.95,1.57-9.22,2.92-14.74,4.67-10.44-28.82-20.71-57.15-30.93-85.36,3.93-5.55,7.99-7.1,13.96-4.41,8.8,3.96,18.06,6.9,26.72,11.12,3.17,1.55,5.84,5.15,7.57,8.44,21.65,41.29,42.91,82.79,64.69,124.01,5.08,9.61,7.78,19.07,8.16,30.13,2.71,79.24,6.35,158.46,9.03,237.7.38,11.1-2.4,22.41-4.45,33.49-6.32,34.04-12.96,68.02-19.6,102-.88,4.49-2.47,8.85-3.84,13.64-6.37,0-12,.2-17.6-.03-28.62-1.16-57.23-2.49-85.85-3.6-2.93-.11-5.94.56-8.84,1.22-41.86,9.6-83.71,19.23-125.53,28.98-3.5.81-6.98,2.13-10.15,3.81-20.01,10.59-39.99,21.24-59.85,32.12-4.72,2.59-8.74,2.06-14.34-1.17,7.08-11.79,10.32-24.98,25.24-31.26,55.23-23.26,110.02-47.58,165.11-71.19,6.43-2.75,9.89-6.29,11.47-13.24,11.63-50.95,23.65-101.82,35.53-152.72.44-1.89.63-3.83,1.17-7.15Z"/>
  <path class="st0" d="M754.97,756.17c6.85-11.84,12.84-22.53,19.27-32.94.98-1.59,3.9-2.31,6.07-2.79,40.29-9,80.73-17.39,120.82-27.19,10.29-2.51,19.17-1.92,28.9.95,41.52,12.22,83.18,23.97,124.74,36.06,5.27,1.53,10.18,1.8,15.63.74,40.21-7.78,80.46-15.35,120.75-22.7,5.12-.93,10.67-.95,15.81-.09,36.13,6.02,72.2,12.38,108.28,18.66.62.11,1.16.61,2.99,1.6-2.76,17.8-7.96,35.55-12.05,53.51-4.05,17.8-8.34,35.55-12.61,53.71-19.17,2.09-37.64,4.15-56.13,6.11-39.42,4.17-78.84,8.27-118.26,12.4-.66.07-1.47-.09-1.97.23-8.52,5.47-16.32,1.16-24.33-1.59-33.7-11.56-67.41-23.1-101.2-34.38-4.95-1.65-10.36-2.54-15.59-2.68-34.98-.98-69.96-1.67-104.94-2.44-5.33-.12-10.01-.81-14.73-4.5-4.83-3.77-11.4-5.3-17.16-7.93-2.9-1.33-5.67-2.92-9.91-5.13,7.2-9.45,13.56-17.83,19.96-26.18,2.8-3.65,6.76-3.67,10.87-3.49,19.31.86,38.62,1.62,57.93,2.47,26.3,1.15,52.6,2.21,78.88,3.68,4.8.27,9.88,1.51,14.2,3.6,26.38,12.77,52.59,25.89,78.83,38.95,3.62,1.8,6.8,2.88,11.26,1.66,51.68-14.22,103.45-28.11,155.19-42.1,1.26-.34,2.5-.78,5.21-1.64-2.62-1.34-4.01-2.4-5.58-2.79-8.73-2.16-17.67-3.59-26.2-6.35-12.14-3.93-23.99-3.46-36.36-1.12-35.66,6.73-71.43,12.94-107.21,19.03-3.97.68-8.43-.27-12.44-1.32-22.23-5.79-44.38-11.89-66.58-17.81-21.56-5.74-43.1-11.55-64.73-16.96-5.04-1.26-10.55-1.94-15.68-1.38-37.75,4.11-75.41,8.99-113.19,12.79-17.19,1.73-34.57,1.59-51.87,2.1-1.74.05-3.52-1.34-6.87-2.72Z"/>
  <path class="st0" d="M604.15,2080.01c.67-5.7,1.17-12.3,2.37-18.78.34-1.82,2.74-3.26,4.24-4.84.19-.2.64-.14.95-.25q20.4-6.77,38,6.18c122.24,90.18,244.47,180.37,366.71,270.55,3.2,2.36,6.45,4.66,10.43,7.53,2.86-2.2,5.71-4.33,8.5-6.55,82.29-65.66,164.62-131.26,246.74-197.13,6.75-5.41,13.4-7.87,21.91-7.03,9.93.99,19.96,1.01,29.92,1.83,7.49.62,8.33,2.14,6.7,9.69q-4.42,20.48-21.76,32.95c-96.03,69.01-192.06,138.02-288.1,207.02q-10.25,7.37-20.64-.35c-130.61-97.35-261.2-194.71-391.85-292.02-3.9-2.91-8.28-5.19-14.11-8.8Z"/>
  <path class="st0" d="M1454,911.69c-.53-5.47-1.85-10.97-1.47-16.35,3.61-50.17,7.12-100.35,11.58-150.44,1.17-13.13,5.55-25.98,8.48-38.95,4.33-19.16,8.62-38.33,13.05-57.46,1.31-5.66,1.1-10.82-1.11-16.45-33.21-84.61-66.29-169.28-99.03-254.08-2.43-6.3-2.3-13.64-3.02-20.53-.48-4.63-.49-9.32-.5-13.98-.02-6.77,1.49-8.78,7.8-8.71,8.99.1,18.02.45,26.92,1.58,2.73.35,5.73,3.14,7.51,5.61,5.65,7.83,10.78,16.03,16.11,24.09,22.05,33.34,44.15,66.66,66.08,100.08,2.14,3.25,3.74,7.04,4.77,10.81,12.96,47.19,25.73,94.44,38.7,141.63,1.2,4.36,3.9,8.31,5.08,12.67.81,3,.8,6.52.14,9.59-8.56,39.36-17.31,78.69-26,118.02-.43,1.95-.95,3.89-1.24,5.86-3.62,24.34-12.42,46.54-25.17,67.67-14.27,23.65-26.89,48.3-40.32,72.47-1.64,2.95-2.42,7.17-8.35,6.88Z"/>
  <path class="st0" d="M607.43,1025.25c-3.51,9.31-6,16.46-8.89,23.43-6.75,16.27-8.47,33.12-8.36,50.7.47,76.63.2,153.26.2,229.89v13.95c-5.08-2.33-8.84-3.38-11.81-5.52-18.65-13.43-37.11-27.13-55.67-40.69-4.53-3.31-6.9-7.8-8.42-13.11-16.67-57.9-33.46-115.76-50.13-173.65-.72-2.49-1.12-5.24-.92-7.81,3.46-44.49,7.02-88.98,10.65-133.46.17-2.11,1.28-4.15,2.11-6.71,44.46,21.33,88.13,42.29,131.25,62.98Z"/>
  <path class="st0" d="M1336.41,2042.14c-18.34,1.92-36.19,3.84-54.04,5.66-51.03,5.21-102.06,10.4-153.1,15.58-45.73,4.64-91.47,9.26-137.2,13.86-1.64.17-3.34.34-4.96.11-65.27-9.18-130.51-18.52-195.79-27.61-65.64-9.14-131.31-18.04-196.98-27.02-3.57-.49-7.17-.75-11.59-1.21-2.97-11.82-5.93-23.57-9.3-36.96,4.96-.11,8.13-.52,11.23-.2,47.38,4.91,94.74,9.96,142.12,14.9,41.08,4.29,82.18,8.46,123.26,12.73,42.41,4.4,84.81,8.92,127.22,13.24,9.86,1,19.64,1.54,29.7.73,31.54-2.54,63.18-3.96,94.78-5.76,68.53-3.89,137.05-7.75,205.58-11.61,8.98-.51,17.96-1.06,26.95-1.36,2.48-.08,4.99.64,9.26,1.25-11.02,10-3.23,22.1-7.14,33.65Z"/>
  <path class="st0" d="M1324.87,1878.75c-1.09,2.86-1.61,5.4-2.91,7.43-12.92,20.2-26.1,40.23-38.9,60.51-3.07,4.86-7.37,6.22-12.42,7.07-35.12,5.9-70.23,11.89-105.35,17.8-57.44,9.67-114.9,19.27-172.32,29.01-4.68.79-8.85,1.75-13.14-1.76-2.12-1.73-5.63-1.8-8.54-2.52-90.5-22.23-181-44.44-271.49-66.7-6-1.48-11.9-4.04-17.5,1.23-1.8-6.86,5.73-25.37,12.98-34.22,20.5,4.46,40.52,8.92,60.6,13.16,65.78,13.92,131.57,27.75,197.35,41.65,6.54,1.38,12.89,1.93,19.63.4,102.57-23.26,205.24-46.07,307.7-69.77,13.22-3.06,26.27-3.3,39.46-4.23,1.21-.09,2.47.46,4.85.95Z"/>
  <path class="st0" d="M1319.82,1301.53c.27-.94.23-2.63,1.05-3.35,5.95-5.28,6.52-12.97,8.82-19.75,28.16-82.89,56.18-165.83,84.02-248.83,2.43-7.23,6.07-12.93,11.98-17.79,13.62-11.2,26.85-22.87,40.2-34.39,3.84-3.32,6.33-2.74,8.01,1.66,7.57,19.88,14.61,40,23.15,59.46,4.65,10.61,4.35,19.45-.06,30.15-35.89,87.11-71.47,174.35-106.25,261.91-4.57,11.52-11.44,17.69-21.49,23.69-12.59,7.52-22.14,8.4-33.06-2.71-4.43-4.5-7.81-8.19-8.89-14.46-1.75-10.16-4.25-20.19-6.42-30.28-.35-1.62-.65-3.26-1.05-5.3Z"/>
  <path class="st0" d="M636.85,1511.92c3.49-.78,6.11-.35,6.95,4.3.82,4.52,2.15,9.02,3.8,13.32,18.72,48.82,37.46,97.64,56.45,146.35,2.25,5.78,5.44,11.45,9.25,16.34,37.07,47.59,74.36,95.01,111.58,142.48,3.24,4.14,7.43,8.09,2.5,15.06-3.11-1.07-6.46-2.05-9.69-3.36-75-30.41-149.98-60.87-225-91.24-5.7-2.31-11.66-3.98-18.52-6.28.24-1.73.31-4.29.96-6.69,19.08-70.04,38.25-140.06,57.31-210.11,1.71-6.3,2.81-12.76,4.41-20.17Z"/>
  <path class="st0" d="M769.26,1736.47c5.66-3.2,9.8-.75,13.74.18,28.17,6.67,56.26,13.65,84.38,20.49,28.77,7,57.87,12.89,86.23,21.29,19.14,5.66,38.4,6.51,57.86,7.65,29.91,1.76,59.84,3.27,89.73,5.36,8.63.6,16.1-.75,23.73-5.09,20.26-11.5,40.91-22.32,61.45-33.31,3.04-1.63,6.37-2.73,9.74-4.15,3.16,6.02.2,9.27-2.56,12.58-12.79,15.35-25.58,30.7-38.36,46.05-12.79,15.35-25.7,30.6-38.29,46.12-3.43,4.23-7.23,6.04-12.64,6.6-29.13,3.03-58.17,7.11-87.35,9.46-12.11.98-24.51-1.17-36.73-2.37-24.18-2.36-48.32-5.21-72.51-7.49-8.83-.83-16.41-3.21-23.51-9.08-14.87-12.31-30.24-24.05-45.87-35.38-12.54-9.08-23.23-19.75-32.64-31.98-9.94-12.93-20.54-25.36-30.72-38.1-2.1-2.63-3.68-5.69-5.68-8.83Z"/>
  <path class="st0" d="M1119.86,1557.36c-10.77,7.71-20.36,14.58-28.92,20.71-9.57-9.05-18.66-17.64-27.26-25.77.83-5.79,2.07-11.48,2.41-17.22,3.82-63.84,7.52-127.69,11.22-191.53,1.51-25.94,1.93-51.99,4.68-77.79,3.39-31.87-2.6-62.98-5.09-94.37-2.23-28.21-5.51-56.34-8.16-84.52-.76-8.04,3.98-26.57,8.21-32.09,4.68,2.35,9.58,4.8,14.38,7.21.77-.23,1.54-.24,2-.63,10.45-8.73,11.16-8.36,15.83,4.11,11.25,30.03,19.2,60.91,24.41,92.5.96,5.81.62,11.87.51,17.8-1.19,60.29-2.15,120.59-3.84,180.86-.93,33.29-3.1,66.54-4.79,99.8-1.61,31.6-3.31,63.2-5.01,94.8-.14,2.63-.49,5.25-.58,6.13Z"/>
  <path class="st0" d="M1306.17,1326.85c0,34.97,0,69.95,0,104.92,0,4.61.31,9.08-3.73,12.85-1.99,1.86-2.5,5.35-3.56,8.15-17.07,45.14-34.15,90.28-51.1,135.46-1.49,3.98-1.93,8.34-3.28,12.39-.42,1.26-2.32,2.97-3.35,2.85-1.61-.2-4.09-1.53-4.39-2.81-4.67-19.91-14.98-37.6-22.12-56.52-1.57-4.16-2.01-7.73-.81-12.35,8.22-31.56,15.89-63.26,23.68-94.93.47-1.92.66-3.95.69-5.93.63-41.63,1.39-83.25,1.68-124.89.06-8.22-.98-16.61-2.76-24.64-5.31-24.04-11.23-47.95-16.91-71.91-.54-2.27-1.29-4.51-1.55-6.81-.65-5.65,1.77-8.14,7.4-7.35,5.27.74,10.47,1.93,15.7,2.95,20.24,3.97,40.46,8.05,60.73,11.87,3.59.68,5.4,2.15,5.33,5.78-.05,2.66-.14,5.33-.14,7.99,0,34.31,0,68.61,0,102.92-.5,0-1,0-1.49,0Z"/>
  <path class="st0" d="M1165.34,1562.26c-4.75-19.58-9.19-37.9-13.92-57.41,2.52-4.16,5.74-9.48,9.49-15.67,1.88,1.48,4.02,2.44,5.07,4.09,11.62,18.26,23.09,36.62,34.5,55.01,1.01,1.63,1.56,3.64,1.92,5.56,5.7,30.75,11.28,61.51,17.02,92.25,1.25,6.69,1.79,12.83-2.75,18.89-3.11,4.15-5.81,5.66-10.82,3.61-7.31-2.99-14.88-5.36-23.43-8.38-1.9-10.67-3.97-22.29-6.36-35.73-5.29,7.94-11.67,8.57-18.5,8.67-19.32.27-38.63.81-57.94,1.29-3.24.08-6.47.39-11.73.72,5.81,7.34,10.6,13.41,15.4,19.48-3.34,6.35-9.92,7.4-14.29,11.22-8.24,7.19-16.34,7.11-26.32,2.57-20.36-9.26-15.72-3.36-24.28-23.43-4.76-11.16-11.35-16.88-23.17-20.02-17.93-4.77-35.07-12.42-52.74-18.23-21.71-7.12-41.09-18.44-59.74-31.33-8.18-5.65-16.71-10.8-26.56-17.13.5-5.94,1.12-13.3,1.89-22.36,4.94,2.02,8.45,2.92,11.38,4.75,7.69,4.8,15.89,6.6,24.77,5.3,7.49-1.09,13.72.77,18.63,6.81,6.4,7.86,14.75,11.01,24.88,12.54,44.38,6.67,88.63,14.23,132.95,21.35,2.85.46,6.13.77,8.74-.16,21.58-7.74,43.05-15.78,65.9-24.24Z"/>
  <path class="st0" d="M663.28,898.99c2.69-9.05,4.88-16.01,6.79-23.05.98-3.6,2.85-5.14,6.64-6.2,26.6-7.42,53.13-15.09,79.55-23.11,7.86-2.38,14.77-2.49,22.94.07,20.62,6.46,41.74,11.29,62.67,16.75,35.74,9.33,71.47,18.67,107.22,27.94,5.95,1.54,12.15,2.31,17.89,4.37,2.69.97,4.65,4.11,6.81,6.39,1.82,1.91,3.35,4.11,5.19,5.99,26.32,26.9,52.65,53.79,79.03,80.63,2.99,3.05,6.23,5.86,9.66,9.07-3.71,7.83-6.8,15.74-12.94,22.25-26.63-24.49-52.74-48.59-79-72.54-2.84-2.59-6.26-4.96-9.84-6.26-39.7-14.49-79.45-28.85-119.3-42.93-4.86-1.72-10.4-2.3-15.6-2.2-51.61,1-103.21,2.28-154.82,3.42-3.83.08-7.67-.34-12.9-.59Z"/>
  <path class="st0" d="M1173.67,1692.44c6.08,2.32,11.49,4.02,16.54,6.45,2.39,1.15,5.48,3.51,5.8,5.69.61,4.13-3.76,3.89-6.49,4.32-10.85,1.74-21.74,3.23-32.62,4.8-18.13,2.6-36.2,6.08-54.43,7.47-11.8.9-23.86-.95-35.74-2.14-20.55-2.06-41.07-4.48-61.57-6.95-4.56-.55-9.22-1.42-13.49-3.04-51.99-19.74-103.92-39.65-155.88-59.51-9.29-3.55-9.47-3.71-6.02-12.9,6.6-17.59,4.57-16.59,22.35-12.82,17.27,3.66,34.59,7.05,51.85,10.75,4.54.97,8.98,2.5,13.37,4.04,38.04,13.3,76.02,26.77,114.13,39.88,4.85,1.67,10.39,2.41,15.5,2.07,37.9-2.55,75.77-5.48,113.66-8.29,1.33-.1,2.66-.15,3.99-.19,10.3-.33,11.94,1.53,10.25,11.4-.45,2.59-.7,5.21-1.2,8.98Z"/>
  <path class="st0" d="M1283.74,1818.1c-35.72,9.05-70.51,17.85-105.29,26.66-4.12,1.04-8.43,3.09-11.95-2.79,1.43-3.17,2.95-6.81,4.69-10.33,22.82-46.31,45.73-92.57,68.41-138.95,2.15-4.4,3.24-9.4,4.26-14.24,5.15-24.39,10.11-48.81,15.19-73.48,6.93-1.68,12.81.89,18.39,3.42,1.7.77,2.84,4.3,3.01,6.65.59,8.3.73,16.64.88,24.97.98,56.31,1.92,112.63,2.84,168.94.05,3.23-.28,6.48-.41,9.15Z"/>
  <path class="st0" d="M1117.74,1059.54c3.22-2.26,5.89-4.19,8.62-6.03,15.75-10.6,31.45-21.27,47.33-31.68,2.67-1.75,6.01-2.85,9.18-3.38,34.49-5.75,68.99-11.38,103.52-16.86,2.79-.44,6-.19,8.65.76,32.59,11.7,65.12,23.57,97.64,35.48,2.04.75,3.85,2.16,7.16,4.07-4.04,4.95-7.03,9.8-11.2,13.18-1.82,1.47-6.35.67-9.19-.35-17.23-6.19-34.34-12.74-51.49-19.16-3.08-1.15-6.19-2.22-10.15-3.64-.61,11.59-1.36,22.45-1.65,33.32-.1,3.96-1.21,6.79-4.12,9.58-11.79,11.3-23.37,22.81-34.88,34.39-2.53,2.55-5.03,3.85-8.75,3.64-12.64-.7-25.3-1.03-37.95-1.61-4.61-.21-8.17-1.64-12.19-4.99-7.57-6.32-16.68-10.95-25.53-15.54-6.03-3.13-8.69-7.19-9.02-14.02-.39-7.92-2.09-15.78-3.36-24.63,2.46-1.33,4.87-2.93,7.51-4,10.2-4.12,11.3-3.69,16.45,5.65.96,1.75,2.23,3.4,2.84,5.27,3.95,12.22,13.23,16.01,24.93,19.44,13.76,4.03,22.48,1,32.15-8.99,7.87-8.12,11.85-15.43,10.38-26.89-1.42-11.08-3.87-15.48,13.69-13.05,7.55,1.05,15.22,1.26,23.06,1.04-10.17-4.15-19.12-11.49-31.56-9.01-29.71,5.92-59.5,11.5-89.31,16.92-6.9,1.25-12.24,4.1-16.88,9.41-6.57,7.52-14.26,14.08-20.62,21.75-6.55,7.91-15.91,7.41-24.36,9.53-1.37.34-4.39-2.6-5.38-4.64-2.15-4.42-3.47-9.25-5.52-14.98Z"/>
  <path class="st0" d="M690.83,968.47c1.06-8.26,1.91-16.48,3.31-24.6.33-1.9,2.22-4.04,3.97-5.1,14.82-8.91,29.72-17.69,44.76-26.23,2.14-1.21,5.14-1.24,7.74-1.24,33.65-.03,67.3-.07,100.95.22,4.17.04,8.49,1.5,12.46,3.01,35.15,13.39,70.04,27.53,105.49,40.07,10.04,3.55,17.18,9.2,24.02,16.5,17.08,18.24,34.39,36.26,51.49,54.48,2.21,2.35,4.45,5.11,5.45,8.09,4.84,14.52,9.28,29.18,13.8,43.81.28.9.04,1.95.04,4.44-8.66,3.41-17.77,7.22-27.08,10.47-1.55.54-4.41-.88-5.83-2.25-1.58-1.52-2.24-4.02-3.23-6.12q-6.54-13.87,8.02-19.41c-1.53-2.6-2.88-5.2-4.51-7.61-13.46-19.85-27.06-39.61-40.39-59.54-2.92-4.36-6.57-7.18-11.28-9.32-27.27-12.42-54.43-25.08-81.69-37.52-2.96-1.35-6.26-2.29-9.49-2.63-37.76-3.95-75.54-7.66-113.29-11.67-7.23-.77-13.54.37-19.99,3.98-16.85,9.43-34.03,18.27-51.09,27.33-3.83,2.03-7.63,4.34-13.62.82Z"/>
  <path class="st0" d="M1142.33,1095.65c1.44,1.29,2.42,2.15,3.38,3.03,13.74,12.74,28.66,22.46,47.14,28.43,22.81,7.36,44.64,10.55,68.2,4.89,18.06-4.34,36.73-6.12,55.07-9.34,3.43-.6,6.93-2.15,9.85-4.09,15.55-10.27,30.91-20.82,46.36-31.24,2.61-1.76,5.3-3.42,9.24-5.96.43,3.61,1.33,5.64.74,7.04-10.68,25.07-21.54,50.06-31.75,73.67-18.4,4.82-35.58,8.68-52.34,13.9-15.26,4.75-30.39,5.94-46.14,3.78-13.5-1.86-27.15-2.59-40.7-4.17-3.51-.41-7.2-1.53-10.26-3.29-17.01-9.76-33.9-19.73-50.67-29.9-2.04-1.24-3.45-3.9-4.6-6.18-3.13-6.24-5.96-12.63-8.91-18.96-5.15-11.07-4.89-12.24,5.39-21.61Z"/>
  <path class="st0" d="M1417.91,952.89c-2.95,8.98-5.89,17.93-8.52,25.93-23.26-3.73-45.37-6.29-67-11.03-19.45-4.26-38.28-2.06-57.38.8-22.39,3.36-44.84,6.25-67.2,9.83-5.06.81-10.31,2.82-14.63,5.58-27.21,17.4-54.32,34.99-81.15,52.97-6.27,4.21-11.28,5.19-18.12,1.35-11.91-6.7-13.33-2.73-10.5-20.2.71-4.37,2.45-7.14,6.04-9.57,17.36-11.79,34.51-23.88,51.87-35.66,2.94-1.99,6.44-3.57,9.9-4.32,55.29-12,110.61-23.87,165.95-35.64,3.15-.67,6.68-.98,9.77-.29,25.98,5.81,51.9,11.9,77.83,17.94.58.14,1.05.75,3.12,2.31Z"/>
  <path class="st0" d="M1094.94,1752.92c4.69,1.3,9.49,2.33,14.04,4.02,2.27.84,4.08,2.9,6.1,4.4-1.51,1.96-2.99,3.95-4.57,5.85-.39.47-1.2.58-1.74.95-12.39,8.69-25.05,10.21-40.32,6.6-39.2-9.25-78.92-16.29-118.35-24.58-5.33-1.12-10.73-3.56-15.23-6.66-19.76-13.6-39.19-27.66-58.75-41.55-8.11-12.84-16.24-25.67-24.25-38.58-.29-.47.69-1.72,1.25-3,1.3.3,2.61.39,3.72.9,44.55,20.32,89.06,40.73,133.66,60.95,3.83,1.74,8.2,2.82,12.41,3.14,32.23,2.46,64.48,4.65,96.72,6.94,2.99.21,6.06.22,8.93.95,2.36.6,4.48,2.15,6.7,3.28-1.78,2.11-3.19,4.8-5.41,6.21-4.75,3-9.92,5.33-14.91,7.94,0,.74,0,1.48,0,2.22Z"/>
  <path class="st0" d="M1012.74,1078.8c-1.01,2.61-1.33,4.18-2.14,5.42-4.01,6.13-8.77,11.86-12.05,18.34-3.3,6.51-7.95,8.69-14.89,9.38-33.81,3.36-67.58,7.08-101.34,10.95-4.84.55-9.07.08-13.55-1.75-29.59-12.11-59.25-24.04-88.88-36.02-1.85-.75-3.69-2.12-5.55-2.16-8.65-.2-12.21-6.31-16.18-12.61-15.27-24.24-30.84-48.3-46.29-72.43-2.49-3.88-5.66-7.61-2.61-13.81,5.15,0,10.91-.85,16.22.31,3.42.75,6.76,3.99,9.17,6.91,17.83,21.58,35.49,43.3,53,65.14,2.81,3.51,5.84,6,10.08,7.6,22.44,8.45,44.83,17.02,67.13,25.84,5.49,2.17,10.83,2.7,16.57,1.92,32.34-4.4,64.65-9.05,97.07-12.83,10.76-1.25,21.78-.2,34.26-.2Z"/>
  <path class="st0" d="M1020.8,1063.52c-9.24,2.15-17.21,4.24-25.28,5.8-4.58.88-6.09-3.31-8.05-6.28-11.03-16.67-22.23-33.23-32.87-50.15-3.62-5.76-8.18-8.79-14.5-10.99-41.38-14.38-84.64-20.7-127.13-30.31-3.93-.89-7.05-.14-10.41,1.54-10.13,5.06-20.39,9.86-30.48,14.98-4.71,2.39-9.19,3.02-14.37,1.38-4.67-1.48-9.67-1.91-14.4-2.77-3.48-8.29-6.79-16.19-10.56-25.18,3.65-2.09,7.14-3.76,10.27-5.94,14.54-10.11,30.29-10.71,47.43-8.58,30.39,3.76,61.02,5.66,91.53,8.48,3.57.33,7.23,1.16,10.55,2.5,25.95,10.43,51.82,21.08,77.75,31.55,4.11,1.66,7.49,3.62,9.98,7.66,12.38,20.15,25.08,40.1,37.63,60.15.85,1.36,1.39,2.91,2.93,6.17Z"/>
  <path class="st0" d="M892.11,1468.62c-.95,2.48-1.9,5.27-3.07,7.96-6.01,13.72-12.43,27.28-18.07,41.16-15.55,38.23-30.85,76.55-46.01,114.93-1.41,3.56-1.45,7.79-1.52,11.72-.19,10.91-.07,21.82-.07,34.21-5.57-1.12-11.31-1-15.43-3.52-3.04-1.86-4.82-6.98-5.68-10.96-1.74-8.09-2.68-16.38-3.5-24.62-.28-2.84.36-5.95,1.25-8.72,9.35-29.16,18.83-58.29,28.33-87.4.82-2.52,1.93-4.97,3.17-7.32,11.64-22.1,23.29-44.19,35.1-66.2,1.35-2.52,3.31-5.14,5.67-6.62,7.86-4.91,10.81-3.98,19.82,5.4Z"/>
  <path class="st0" d="M809.53,982.71c3.96-.52,9.09-1.78,14.21-1.71,6.93.09,13.87,7.6,14.58,14.83.78,7.94,1.74,15.88,2.05,23.84.24,5.93,2.87,8.86,8.52,10.29,7.4,1.88,14.75,4.1,21.86,6.85,5.02,1.94,8.72.88,12.84-2.15,12.06-8.85,24.34-17.41,36.58-26.02,8.59-6.04,8.75-6.13,16.92.99,4.65,4.05,10.64,6.93,13.32,14.24-2.39,2.01-4.74,4.22-7.33,6.12-16.62,12.2-33.4,24.19-49.87,36.58-4.63,3.48-9.11,4.65-14.77,3.66-10.47-1.82-21.04-3.11-31.57-4.59-3.73-.52-6.19-2.15-8.84-5.31-7.01-8.38-14.87-16.09-22.83-23.61-4.24-4-6.23-8.3-5.78-14.03.26-3.31.09-6.65.09-9.97,0-9.52,0-19.03,0-30.02Z"/>
  <path class="st0" d="M1207.96,1005.96c-.6-3.67-1.06-6.24-1.44-8.82-.75-5.13,1.08-8.03,6.56-9.1,16.01-3.13,31.89-6.97,47.94-9.85,6.13-1.1,12.62,0,18.91-.46,29.51-2.14,57.49,3.17,84.29,15.81,10.21,4.82,21.14,8.08,31.72,12.12,2.11.8,4.11,1.88,7.31,3.36-4.93,8.74-12.36,14.16-18.81,21.02-7.24-2.78-14.05-5.37-20.84-8.02-19.85-7.76-39.64-15.67-59.57-23.21-3.91-1.48-8.44-2.49-12.53-2.11-24.21,2.26-48.37,4.98-72.55,7.59-3.25.35-6.46.97-10.97,1.67Z"/>
  <path class="st0" d="M687.17,1003.1c8.17-2.52,11.23,2.04,14.51,6.3,20.51,26.63,41.2,53.11,61.46,79.93,5.05,6.68,10.72,10.88,18.97,13.08,25.37,6.78,50.53,14.37,75.77,21.65,4.33,1.25,8.3,2.48,7.23,8.62-1.51,8.65-3.1,9.96-11.83,7.88-27.81-6.62-55.62-13.23-83.38-20.07-2.32-.57-4.66-2.48-6.24-4.39-22.89-27.71-45.8-55.4-68.33-83.4-6.73-8.37-6.31-19.11-8.16-29.6Z"/>
  <path class="st0" d="M1010.04,1128.07c-.74,7.65-5.51,7.68-8.93,8.97-25.5,9.61-51.19,18.73-76.55,28.68-12.91,5.07-26.1,7.43-39.79,8.19-8.96.5-17.91,1.28-26.85,2.08-4.65.41-8.84.02-10.34-5.29-.98-3.5,2.51-9.55,6.33-11.53.88-.45,1.85-.75,2.8-1.02,22.64-6.42,44.66-14.95,68.27-18.05,24.37-3.2,48.59-7.64,72.89-11.4,3.73-.58,7.56-.41,12.17-.63Z"/>
  <path class="st0" d="M907.74,1003.59c-2.6,2.91-3.76,4.85-5.45,6-8.77,5.97-17.64,11.81-26.56,17.56-4.47,2.88-21.85,1.59-25.44-2.06-1.51-1.53-2.37-3.94-2.97-6.1-1.42-5.11-2.9-10.25-3.56-15.48-.33-2.59.38-5.87,1.81-8.05,7.32-11.12,7.45-11.03,19.93-6.67,13.41,4.7,26.83,9.39,42.25,14.8Z"/>
  <path class="st0" d="M1262.77,1055.43c-1.76,2.74-3.13,5.35-4.93,7.62-11.76,14.77-6.64,13.48-24.85,8.24-.32-.09-.62-.24-.94-.34-12.31-3.88-16.86-9.63-18.14-22.51-.36-3.68,1.11-5.7,4.61-6.37,9.77-1.9,19.53-3.92,29.35-5.51,1.99-.32,5.36.35,6.2,1.72,3.25,5.32,5.74,11.12,8.71,17.15Z"/>
  <path class="st0" d="M1546.81,1155.18c5.44.49,6.11,3.53,5.38,7.11-.14.68-2.4,1.7-3.09,1.36-3.53-1.75-4.34-4.57-2.3-8.46Z"/>
</svg>