<?xml version="1.0" encoding="UTF-8"?>
<svg id="Layer_0_xA0_Image" xmlns="http://www.w3.org/2000/svg" version="1.1" viewBox="0 0 2732 2048">
  <!-- Generator: Adobe Illustrator 29.8.4, SVG Export Plug-In . SVG Version: 2.1.1 Build 6)  -->
  <defs>
    <style>
      .st0 {
        fill: #c35b26;
        stroke: #000;
        stroke-miterlimit: 10;
        stroke-width: .25px;
      }
    </style>
  </defs>
  <path class="st0" d="M1156,2047.97c-.27-.02-2.23-1.9-4.84-2.09-11.43-.81-27.46-.4-38.04-2.04-16.72-2.6-16.66-38.4-9.54-51.29,29.94-54.24,127.98-35.56,152.09,16.74,4.76,10.33,9.62,31-5.1,34.25-5.1,1.12-45.35,1.4-49.24.1-6.22-2.08-4.57-12.66-6.26-17.74-7.75-23.26-47.7-20.44-49.16-4.83-1.32,14.16,41.12,12.16,16.09,26.89-1.98-.09-4.03.11-6,0Z"/>
  <path class="st0" d="M1062.2,768.17l5.58.04c1.62,5.32,13.54,31.19,19.19,29.77l25.05-35.99c8.21,6.29,17.76,19.12,19.5,29.47,2.08,12.37-1.73,22.64-1.39,33.21.66,20.61,18.8,50.33,31.91,66.26,3.82,4.64,8.78,8.84,13.23,12.9,5.19.9,31.59-32.53,30.75-40.81-1.46-14.34-50.35-11.54-61.81-11.27l-3.85-38.33c3.04-5.45,8.99-8.55,12.51-13.56s6.69-18.64,11.05-19c3.37-.28,6.04,3.91,8.04,6.19,5.14,5.86,19.81,30.31,25.06,32.93,3.13,1.56,2.74-1.43,3.41-2.54,3.35-5.59,11.12-30.25,14.82-31.33,8.5-2.47,29.27,36.15,41.78,37.49,4.51-.36,10.64-18.55,12.79-22.77,1.07-2.09-1.05-3.78,4.15-2.84l22.03,71.98c-41.14-5.89-80.34,33.83-87.49,71.52-.85,4.5,1.6,15.46-3.54,14.52-7.24-4.83-14.03-10.05-21.63-14.38-7.44-4.24-28.72-17.03-35.28-18.71-11.47-2.94-22.31,6.7-25.61-6.4-3.67-14.53-1.87-14.84-12.41-27.59-26.04-31.52-78.58-74.76-121.41-53.32-9.5,4.76-20.68,18.83-31.16,17.95-5.26-.44-42.7-16.1-48.53-19.52-4.73-2.78-28.36-23.91-28.65-27.41-.45-5.28,18.04-17.1,23.7-18.68-7-20.44-29.38-31.19-.72-45.67,6.68-3.37,13.71-2.55,20.17,1.28,10.13,6,5.27,17.13,7.08,26.92,2.33,12.58,8.64,24.39,9.63,37.36,2.42,2.06,28.44-4.53,31.75-9.09,3.47-11.26-27.99-36.22-30.86-42.79-1.86-4.25.22-9.81-2.96-13.04-1.35-1.37-26.86-11.8-32.68-15.32-9.88-5.99-18.37-13.46-27.35-20.61,6.14-8.17,15.47-12.6,22.95-19.02,11.55-9.93,9.76-9.49,23.73-18.27,15.29-9.61,21.96-33.44,31.66-48.34,7.62-11.73,18.67-23.28,27.26-34.74,5.6-7.47,26.28-43.56,34.55-41.74,3.79.83,19.38,17.07,25.15,20.79,13.91,8.98,31.41,14.11,45.33,24.67,28.98,21.98,62,79.2,35.4,112.71-8.53,10.74-32.37,31.8-45.5,34.5-22.77,4.69-64.02-9.74-72.03-33.08-11.44-33.32,22.49-62.76,54.53-52.52,10.44,10.31-13.93,49.39,19.83,43.93,31.81-5.14,6.88-58.93-14.29-67.47-18.58-7.49-39.63-4.67-57.34,3.84-56.11,26.95-34.15,119.46,17.37,140.13,10.75,4.31,33.97,12.57,35.58-4.2Z"/>
  <path class="st0" d="M1867.76,834.24l-3.71,31.69,33.06,10.04c2.04,3.26-2.19,23.98-5,27.13-2.6,2.93-14.9,7.63-18.66,6.61-1.45-.39-18.97-15.55-23.61-18.56-3.29-2.13-27.07-15.37-28.64-15l-15.04,26.64c1.3,5.67,31.03,10.67,37.06,11,5.04.27,9.34-3.2,15.33-1.42,3.82,1.13,6.58,7.53,12.46,7.5,4-.02,8.77-4.97,13.39-6.48,17.2-5.6,35.36-10.64,53.61-9.41,1.28,8.55-1.91,16.63-2.17,24.97-.52,16.88-1.36,17.07-3.72,32.16-3.7,23.7,7.11,37.34,11.28,58.47,4.45,22.54,10.41,59.07,12.33,81.65.41,4.79.78,9.71-.02,14.47-8.89,4-18.76,1.48-28.2,2.81-16.64,2.34-35.66,13.26-52.74,15.26-36.75,4.31-101.97-9.4-108.26-53.3-1.88-13.14,1.37-44.13,7.09-55.87,10.44-21.41,53.89-38.87,75.73-28.96,21.18,9.61,26.83,35.91,17.02,55.71-22.56,45.53-32.61-1.18-43.7-5.04-19.73-6.87-33.17,21.8-12.54,36.54,37.66,26.92,78.73,2.27,89.29-38.46,14.64-56.51-57.83-99.97-107.02-85.01-12.66,3.85-21.38,12.15-32.21,18.88-1.81,3.16,7.69,12.27.83,15.66-11.05-4.98-22.66-9.35-35.03-7.93,2.82,14.42,1.38,30.95,8,43.97-11.34.15-25.59-1.75-35.41-7.57-9.8-5.81-17.59-20.78-27.59-28.41-15.91-12.14-42.05-18.34-62.03-19.97-7.37-.6-23.38-2.96-22.55,6.36.99,11.04,1.49,46.54,16.41,45.65,8.81-.52,36.64-26.44,41.52-35.66,5.56-3.23,30.34,18.61,32.62,23.65,2.44,5.4.06,11.38,1.2,16.8,1.64,7.82,6.29,14.83,5.84,23.15l-52-3.98,12,37.98c-2.82,2.89-46.98-6.06-54.12-1.12-6.1,4.23,2.52,20.47,4.47,25.81,1.09,2.98,2.42,2.32-1.35,5.26l-65.01-31.98c5.94-12.7,17.88-22.71,22.98-35.99,8.98-23.36-.86-65.91-16.98-85.06-2.68-3.19-7.47-1.52-6.01-6.9,13.36-2.48,65.45-12.51,73.45-20.56,5.34-5.37.43-15.63,14.66-10.55,4.44,1.58,7.09,6.26,11.85,8.14,3.98,1.57,12.43,2.67,16.97,3.03,35.66,2.8,98.7-.48,118.37-35.78,8.78-15.76,5.89-40.66,18.81-49.19,4.03-2.66,40.8-17.85,45.38-18.62,5.23-.88,38.59-2.86,40.28-.23Z"/>
  <path class="st0" d="M1433.98,1185.99c2.92,14.16,12.45,64.86,22.06,72.95,5.99,5.04,13.26,1.87,8.4,14.48-4.19,10.87-9.24,11.14-10.51,27.49-2.8,36.1.9,101.5,37.39,120.75,12.97,6.84,38.25,5.64,45.6,14.4,2.36,2.82,19.86,43.3,20.61,47.39.95,5.15,2.66,40.26.45,42.54l-30.09-5.16-10.15,32.88c-16.97-.77-31.15,2.24-34.93-17.66-1.93-10.13,9.78-16.98,16.03-26.24,2.74-4.06,17.72-30.24,17.32-32.65-6.05-1.97-24.79-16.68-29.99-13.03-3.2,11.54-6.56,23.39-7.63,35.4-.44,4.97,2.36,8.95,1.09,14.99-1.11,5.29-7.5,8.45-7.6,12.39s5.45,10.67,6.92,15.11c5.63,17.03,10.15,35.98,9.05,53.96-2.1,2.07-24.03-3.81-29.02-4-16.01-.6-15.51-.97-30.46-3.53-21.39-3.67-41.3,10.47-62.08,12.97l-87.03,12.18c-8.71-2.57-4.54-17.69-5.46-24.61-6.21-46.58-26.72-61.58-9.85-115.91,14.11-45.41,47.01-58.09,92.34-46.58,41.96,10.65,65.7,92.92,10.03,100.93-13.39,1.93-19.24.2-30.31-6.65-36.92-22.84,5.83-30.35,9.41-42.23,4.77-15.86-13.47-26-26.71-20.73-13.11,5.22-21.7,35.97-21.03,49.18.65,12.89,13.32,29.05,23.5,36.62,72.25,53.68,145.99-54.64,99.52-117.52-8.21-11.11-10.5-6.81-22.87-6.15,3.25-11.88,9.38-23.32,8.01-35.99l-43.99,6c-1.04-1.2,1.74-19.34,2.54-22.44,5.97-23,38.64-34.62,46.55-61.45,1.58-5.38.04-10.39,1.05-14.94,3.6-16.16,8.23-29.77,5.86-47.16-48.47,1.84-69.97,2.44-31.03,46.03,4.43,4.96,16.12,10.82,14.73,16.49-1.01,4.09-20.01,26.29-24.28,28.04-5.68,2.34-8.63-.81-13.85-.17-7.51.92-15.41,5.12-22.51,7.61-7.15-1.3.45-27.54.91-33.03.58-6.93-.31-14.04.01-20.97l-34.93,14c-2.94-1.8-2.79-3.93-3.15-6.9-1.81-15.15,6.74-35.19-.02-51.03-3.43-2.41-22.17,7.23-26.88,7.96-3.05.47-3.49.07-2.97-2.98l34.96-65.01c11,11.51,27.49,24.57,43.92,26.05,18.37,1.65,45.47-1.43,61.69-10.47,3.77-2.1,17.51-14.96,19.37-13.6Z"/>
  <path class="st0" d="M1335.99,628c3.42,3.51-12.62,31.05-6.06,37.12,1.42,1.01,29.9-2.8,34.63-3.57,2.45-.4,8.68-5.98,9.43-.53.16,1.13-2.96,17.58-3.69,20.27-5.24,19.29-17.95,22.08-29.35,34.65-2.01,2.22-16.09,23.89-16.54,25.46-1.16,4.01.09,8.81-.92,13.08-2.12,9.02-15.47,50.66-.64,51.33,4.88.22,30.32-2.98,35.73-4.24s12.72-7.1,10.62-13.62c-1.8-5.59-16.44-23.9-21.15-29.01-5.28-5.73-12.99-9.41-15.79-15.58.33-2.16,21.26-27.19,23.78-28.33,5.45-2.47,12.76-.32,18.79-1.21,7.71-1.13,13.84-7.65,21.28-4.96,5.39,3.76-8,42.3-4.1,51.12,8.79,1.52,32.09-15.56,38.12-11.15,5.31,3.88-2.13,29.27-2.21,36.25-.07,6.13,3.29,12.39,2.07,18.92,11.26,1.94,19.9-5.13,30-8-.42,11.25-8.96,19.29-13.7,29.28-6.1,12.83-9.26,27.47-19.32,38.72-14.97-11.92-29.68-24.79-49.88-26.07-15.95-1.01-45.78,4.39-59.37,12.77-5.36,3.31-8.58,8.54-12.71,11.3-2.04,1.36-1.5,3.17-4.04.02-2.66-14.44-12.32-63.42-21.91-72.09-2.8-2.53-10.04-4.05-10.79-7.14,6.59-14.52,12.49-22.96,13.81-39.73,2.5-31.85-3.21-89.08-30.24-109.9-16.88-13-26.13-9.64-43.97-14.03-16.25-4-20.5-37.87-29.29-50.71l-2.58-44.44,31.82,3.84c8.84-21.27.61-39.05,30.67-31.31,8.8,2.26,11.58,5.68,13.06,14.98,2.09,13.15-6.95,15.25-13.6,25.45-7.12,10.92-13.28,23.73-19.95,35.02l29.97,14.03c3.24-9.44,6.63-19.24,7.79-29.24.88-7.63-1.04-16.99.27-23.73.96-4.91,6.08-5.83,6.14-11.98.05-4.71-10.97-30.31-12.86-39.37-1.89-9.06-3.64-18.36-3.32-27.69,9.22-1.35,17.98,1.75,26.97,2.17,15.21.71,18.23,1.75,32.21,3.66,23.78,3.25,35.59-7.14,56.38-11.28,21.69-4.32,62.03-11.02,83.49-12.51,3.66-.25,12.1-1.09,14.09,1.84,3.01,9.68,1.67,21.17,3.39,30.61,3.73,20.46,14.54,38.29,15.57,60.41,1.48,31.57-12.89,82.8-46.14,94.04-16.71,5.65-52.08,2.51-67.36-6.53-18.13-10.73-31.16-44.85-28.4-65.25,2.78-20.53,26.8-33.53,46.29-30.74,6.35.91,28.02,14.1,30.54,19.64,6.08,13.35-16.22,20.46-22.17,27.77-12.13,14.91,16.28,35.33,32.02,18.04,21.78-23.93,17.42-60.53-7.87-79.87-72.73-55.59-148.5,53.77-99.87,117.85,8.58,11.31,8.52,5.71,20.86,4.15Z"/>
  <path class="st0" d="M1299.99,1183.99c1.21,1.02-12.66,19.78-14.33,22.65-4.77,8.17-21.94,38.84-21.56,46.17.19,3.64,4.05,8.87,2.95,11.25-2.95,6.36-14.68,5.28-20.5,7.47-13.96,5.26-46.88,41.34-55.38,54.62-19.49,30.47-26.68,53.93-6.82,86.47,5.74,9.4,13.01,9.96,11.51,24.14-.4,3.83-15.69,41.93-18.15,45.92-1.86,3.02-25.16,28.54-27.07,29.06-7.73,2.1-17.55-22.94-21.6-23.27-7.43,2.14-25.28,17.44-31.7,15.31-2.61-.87-15.08-19.26-15.14-22.75-.09-5.14,5.91-17.1,11.22-18.64,5.7-1.65,13.21.38,19.41-.59,12.26-1.91,25.88-10.11,39.18-9.84l-8.1-31.92c-4.07-2.91-29.54,14.99-33.98,18.85-3.55,3.09-4.8,8.46-9.13,10.87-4.55,2.55-10.51,1.39-13.98,4.02-1.6,1.22-14.18,30.06-17.98,36.02-5.76,9.06-11.6,17.1-19.84,24.12-6.31-4.68-8.9-12.41-13.98-17.98-11.99-13.14-12.27-12.76-22.11-27.89-10.88-16.75-35.51-23.63-51.57-34.43-9.33-6.27-18.32-15.77-27.51-22.49-7.87-5.75-43.14-27.1-45.07-33.11-2.55-7.98,14.93-22.28,20.08-30.22,15.64-24.15,18.34-42.51,43.14-62.86,42.88-35.19,87.1-39.7,119.7,10.35,16.21,24.89,10.51,57.06-8.66,78.69-17.66,19.93-52.35,16.84-64.57-7.47-2.28-4.54-7.33-26.72-6.11-31.09,5.43-19.53,49.03,10.11,47.55-20.3-1.8-37.03-64.74-14.19-70.97,18.75-18.72,99.01,115.06,105.52,146.05,32.05,6.14-14.57,13.87-32.42-4.92-38.96l29.8-20.28c1.03-6.05-27.18-21.63-31.76-25.79-1.81-1.64-2.7-2.03-2.07-4.89,9.59-3.41,17.04-13.69,27.45-15.57,21.56-3.89,42.51,5.15,66.09-5.95,3.28-1.54,3.86-5.17,5.97-6.54,14.63-9.42,31.47-16.99,40.53-32.98,0-4.14-28.96-26.75-34.01-28.08-4.02-1.06-7.74-2.04-11.26.88-6.92,5.73-6.83,49.7-7.01,59.99l-36.29,3.88c-10.94-7.9-18.71-16.88-32.6-21.59-1.97-2.85-.83-4.81.99-7.2,6.54-8.6,31.53-17.79,38.11-29.88l-35.9-15.09c-4.15-5.95,16.76-18.01,20.96-21.85,3.7-3.39,16.3-15.25,16.66-19.4.67-7.72-16.52-11.65-21.16-14.19-2.29-1.26-3.39.11-2.54-4.43l68.74-21.87c5.37,1.54,2.59,13.69,3.45,18.64,7.1,40.5,45.62,69.04,85.79,69.21Z"/>
  <path class="st0" d="M929.39,999.36c15.56-14.38,1.79-31.76-13.38-38.38-30.34-13.24-57.19-3.24-72.79,25.22-40.92,74.69,68.01,135.93,122.82,90.82,9.4-7.74,7.83-9.45,5.97-21.03l35.99,8-4.97-46.04c11.2,2.23,21.78,2.27,32.04,7.96,10.92,6.07,17.73,19.74,27.98,28.02,15.4,12.44,48.12,20.73,68,22.03,4.61.3,16.39,1.16,17.09-4.91.65-5.68-1.24-25.76-2.3-31.91-1.07-6.24-4.1-15.92-11.31-16.9-8.8-1.19-39.37,29.15-46.49,36.81l-2.14.14c-3.06-.77-27.55-22.2-28.95-25.28-2.23-4.93,1.24-9.02.7-14.4-.62-6.11-10.98-21.11-5.74-24.63l52.08,5.08-14-37.96c18.41-4.86,37.26,5.7,56.1-.94,6.21-3.9-5.29-21.59-6.12-26.06-.77-4.12,1.67-3.46,4.65-2.65,5.09,1.38,49.03,23.54,54.77,27.24,2.45,1.58,5.16,2.75,6.45,5.64-8.24,14.59-21.82,25.97-23.84,43.74-2.86,25.17,2.71,53.8,18.35,73.75,2.87,3.66,7.33,2.6,5.67,9.24-13.45.29-65.81,12.32-73.4,20.6-2.6,2.84-2.78,9.4-7.87,11.11-14-7.41-23.24-12.5-39.66-13.77-32.71-2.55-92.8,3.83-111.94,34.21-10.02,15.9-6.61,28.46-11.61,42.38-4.38,12.2-43.78,22.65-55.91,28.27l-36.33.92-2.44-3.79,5.17-27.9-33.09-9.93c-1.54-13.39-1.52-30.46,14.55-33.65,12.93-2.57,18.11,9.07,27.85,15.24,10.16,6.44,22.34,10.19,31.71,18.2l14.86-28.63c-3-9.93-45.58-7.51-52.49-9.65-2.51-.78-3.72-3.72-5.47-4.55-5.95-2.82-35.71,10.02-45.86,12.03-9.21,1.82-18.62,3.44-28.08,2.94-2.18-2.2,3.98-24.14,4.07-29.11.33-16.65.85-15.19,3.45-30.36,3.67-21.37-9.47-41.39-12.97-62.08-1.65-9.74-1.24-21.51-2.79-31.21-2.09-13.07-10.88-44.92-9.31-55.73.25-1.76.97-5.07,2.95-5.54,9.81-1.91,21.8-.75,31.13-2.44,18.3-3.31,36.03-14.08,56.5-15.49,30.56-2.11,92.03,13.65,98.51,49.43,8.29,45.79-10.28,88.8-60.56,92.49-43.76,3.21-56.91-47.14-27.81-73.79,20.51-18.77,27.26,38.43,50.22,17.21Z"/>
  <path class="st0" d="M1582,598.02l8.15,29.81c4.77,4.03,28.27-11.97,32.81-15.87,4.21-3.63,8.09-11.13,11.12-12.88,4.24-2.45,12.6-1.5,16.07-5.93,2.26-2.88,2.13-8.2,4.1-11.9,3.86-7.26,24.8-46.38,32.48-45.1,6.88,4.86,9.77,12.82,15.23,18.9,10.62,11.84,12.08,13.99,21.18,26.82,13.02,18.36,33.25,21.45,50.7,33.3,8.88,6.03,17.54,15.21,26.35,21.65,14.98,10.94,31.79,20.54,45.51,32.59,3.43,11.45-15.21,23.39-21.33,33.94-14.41,24.83-16.98,40.52-41.41,60.59-41.58,34.15-83.31,40.01-116.9-6.98-19-26.59-14.52-60.65,7.91-84,26.88-27.98,67.73-3.31,68.19,34.05.38,30.84-46.37-6.32-46.33,26,.03,20.99,19.42,22.55,35.28,17.1,41.05-14.1,45.92-55.31,25.24-89.44-29.23-48.23-112.3-27.16-134.69,17.98-3.35,6.76-11.06,31.17-7.33,37.05.83,1.31,10.89,2.19,9.68,7.28-.69,2.88-27.51,13.11-29.95,20.02l35.94,27.98c-6.19,4.33-11.88,9.88-18.62,13.38-22.92,11.9-51.04-2.53-75.93,10.07-3.34,1.69-3.83,5.42-6.72,7.28-14.79,9.52-29.71,16.61-40.56,31.57-.38,2.15,25.6,24.66,29.1,26.47,4.81,2.49,13.8,4.24,17.8.3,3.31-3.26,6.31-36.21,6.55-43.04.17-4.86-4.46-11.46.28-16.12,3.59-2.44,33.97-3.98,38.74-2.51,3.74,1.16,5.19,6.65,8.67,9.34,7.39,5.7,16.41,6.89,22.35,13.26.49,6.07-35.79,25.33-39.61,34.04l34.1,16.2c1.99,9.23-14.91,17.02-21.19,22.75-3.21,2.93-16.71,15.81-16.45,19.08,1.29,6.93,25.42,13.67,25.46,15.98l-69.03,24.65c-4.44-.75-2.56-13.67-3.44-18.14-5.94-30.16-24.24-50.97-52.14-63.86-13.88-6.42-17.29-3.84-30.39-5.64-8.64-1.19,5.61-15.53,7.43-18.62,5.32-9.01,20.5-34.82,22.66-43.32,2.88-11.29-5.89-19.45,5.81-24.21,14.54-5.91,18.22-4.21,32.19-15.81,27.71-22.99,60.89-66.74,54.48-104.57-2.78-16.42-23.11-32.55-22.89-44.13.11-5.89,16.57-45.49,20.49-51.22,2.67-3.91,25.02-28.6,27.66-28.05l18.42,23.75c9.6-1.16,25.29-18.65,34.79-12.84,4.11,2.51,12.64,18.39,11.95,23.82-2.51,19.65-19.85,14.43-34.39,17.74-11.86,2.7-23.55,7.24-35.56,9.47Z"/>
  <path class="st0" d="M1855.83,1245.75l-23.7,14.38c-.6,12.36,20.98,26.57,10.92,37.91-11.07,12.47-24.66,15.63-36.74,2.63.69-21.21-7.77-40.45-12.4-60.64l-29.72,8.14c-7.07,9.9,25.39,37.65,28.67,43.95,2.07,3.97,1.73,10.87,4.18,13.82,1.38,1.67,31.88,14.58,38.81,19.19,3.32,2.21,20.7,15,20.09,17.69-5.84,7.79-14.85,11.92-22,18.07-10.74,9.24-12.36,10.92-24.59,19.41-15.71,10.91-20.75,32.21-30.51,47.49-15.28,23.91-39.16,47-53.74,72.25-2.02,2.59-4.48,4.37-7.99,4.03-2.31-.22-23.24-19.35-29.22-22.98-13.54-8.22-29.05-13.08-42.54-23.46-28.1-21.63-59.45-77.19-35.33-110.65,8.07-11.19,33-32.39,46.36-35.64,22.14-5.39,66.61,10.75,72.69,34.57,7.86,30.82-16.48,53.67-46.33,53.89-20.51.15-6.09-28.17-9.1-38.4-4.14-14.05-26.94-10.44-33.16,2.02-7.21,14.45,9.76,46.09,22.85,54.21,19.4,12.04,51.63,6.78,70.07-5.28,45.52-29.78,24.38-112.04-19.32-133.46-7.12-3.49-29.35-11.22-36.08-7.94-5.68,2.77-3.57,12.46-9.96,10.99-2.99-5.6-13.26-30.14-19.04-30.12-3.42.01-23.55,27.32-24.92,32.93-3.25,4.51-12.82-10.54-14.46-13.41-13.03-22.71-3.2-30.2-5.6-52.4-2.04-18.86-17.85-45.21-30.06-59.94-4.58-5.53-12.23-15.74-19.05-11.16-8.17,5.49-33,35.19-22.06,44.27,10.12,8.4,57.37,3.51,58.98,6.02-.59,11.54,5.06,27.28,1.76,38.41-1.47,4.97-20.63,20.55-19.69,31.32-3.68.9-5.46-.6-8.04-2.78-4.91-4.13-25.7-37.11-28.86-37.1l-18.05,35.97c-4.95,1.15-21.47-23.85-25.86-28.1-3.49-3.38-12.84-11.7-17.12-8.98-3.97,1.76-11.63,27.08-15.96,23.07l-21.68-69.06c.82-4.86,15.88-2.35,20.5-3.1,26.78-4.31,45.57-22.66,58.2-45.8,9.43-17.28,6.69-19.42,8.96-37.07.36-2.79-1.07-3.45,2.97-2.93,12.1,8.02,55.66,37.2,67.86,35.98,4.63-.47,8.56-6.16,13.15-1.03,3.65,4.08,2.99,13.37,5.18,18.87,4.66,11.71,38.6,44.09,49.87,52.13,20.61,14.69,47.69,26.99,72.96,19.01,14.43-4.56,27.6-22.2,40.78-20.89,7.09.7,43.37,15.91,49.9,20.24,4.28,2.84,29.75,25.72,27.17,29.44Z"/>
  <path class="st0" d="M1818.76,1765.24c1.37,1.7,4.36,2.2,5.78,5.17,5.69,11.98-11.03,18.04-16.39,26.84-1.02,5.85,24.27,16.56,16.83,32.7-2.91,6.31-15.3,7.33-16.59,21.53-.99,10.9,8.91,10.1,13.67,15.44,7.88,8.82,3.92,28.14-5.29,34.95-8.1-7.63-18.7-13.5-26.84-20.82-6.87-6.18-23.37-22.17-28.95-29.05-18.19-22.43-4.03-32.56.52-55.53,13.43-67.77-32.7-27.79-62.61-10.42-13.5,2.01-33.62-33.59-34.89-46.05,38.77-8.92,89.34-27.12,93.98-73.04,2.27-22.5-5.35-56.03-31.45-60.49-16.26-2.78-47.95,5.11-44.54,26.4,1.88,11.76,12.85,4.92,18.79,5.31,43.87,2.91,22.4,33.45-.13,49.45-12.25,8.7-21.46,7.2-35.24,1.94-73.4-28.02-24.94-117.51,32.52-130.66,52.76-12.07,79,16,104.9,57.24,5.96,9.49,20.67,35.47,22.72,45.29,3.82,18.23-11.61,21.22-11.58,27.51,1.31,8.93,20.79,23.56,20.13,29.93-.72,7-22.06,24.31-23.83,30.52-1.62,5.69,4.84,11.34,8.48,15.84Z"/>
  <path class="st0" d="M652,726.01c-14.89,30.19-32.07,55.26-28,90.98,3.49,30.63,47.48,70.08,77.87,49.86,14.63-9.73,32.45-43.35,8.81-52.37-8.45-1.11-18.79,28.29-38.15,19.99-15.48-6.63-13.07-48.9-3.53-58.48,2.98-2.99,14.27-9.89,18.43-11.57,88.57-35.79,110.68,111.13,34.65,148.65-28.46,14.04-79.38,3.03-108.61-7.54-19.64-7.1-35.24-10.1-29.49-35.46-7.9-5.16-30.9-2.03-36-5.05-6.16-3.65-3.85-34.44-6.25-42.75l-28.93-4.08c-6.05-4.78-.62-21.08-3.68-28.32-3.51-5.03-23.27,1.77-31.06-4.94-9.39-8.09,3.51-21.7-6.93-33.07-7.24-7.89-12.74-1.83-20.2-1.8-15.39.06-27.26-28.36-19.64-30.16,21.14,1.78,82-10.22,95.62,6.18,4.85,5.84,8.91,19.12,13.47,26.53,7.03,11.43,19.88,33.99,35.62,26.39,7.76-3.75,17-51.12,19.16-61.23,20.32-6.47,37.98,2.73,56.83,8.26Z"/>
  <path class="st0" d="M1521.74,239.74l6.07-34.94c5.28-6.63,34.41-2.35,40.22-5.78,7.47-4.42,1.39-23.01,4.96-29.04,5.03-8.52,26.33-.75,29.12-2.81,5.23-8.96-2.2-24.29,5.79-32.28,7.25-7.24,25.9,2.12,34.07-7.92,5.17-6.34-.31-13.04-.09-19.94.38-11.89,16.92-23.17,28.26-20.19,1.31.95,3.73,27.42,3.95,32.08.56,11.85,1.68,47.01-1.94,56.23-4.62,11.78-24.41,16.86-34.75,23.25s-33.19,21.03-24.41,35.62c2.34,3.88,37.72,13.28,44.9,15.09,5.49,1.38,14.41-.67,17.12,4.88,4.17,8.53-2.34,44.38-8.04,51.99-1.64,2.18-2.61,2.63-5.08,1.22-25.5-13.63-52.47-29.44-82.64-26.94-31.14,2.58-66.06,37.16-58.39,69.89,4.1,17.47,37.74,38.22,53.05,24.79,12.32-10.8-11.39-20.25-16.06-31.77-3.94-9.7-1.62-17.9,8.15-22.15,8.71-3.79,37.88-2.35,45.83,2.16,4.92,2.79,11.51,12.87,13.92,18.08,37.63,81.65-81.32,110.67-133.8,55.8-28.56-29.85-21.16-76.02-10.51-112.62,5.91-20.28,13.12-51.13,40.3-44.69Z"/>
  <path class="st0" d="M2203.51,581.47c4.61-4.53,3.83-14.09,15.4-15.6,7.93-1.03,28.11,2.97,24.71,12.68-.49,1.4-14.93,17.55-17.56,20.49-5.37,5.98-36.09,37.61-40.56,39.43-14.73,5.99-31.05-4.68-45.39-7.59-10.15-2.06-38.64-7.42-40.16,8.18-.94,9.67,25.16,45.13,30.03,55.97-9.46,17.56-28.63,30.01-47.96,32.96-5.93-39.55-27.46-89.59-73.03-93.99-20.57-1.99-50.23,3.81-57.96,25.99-4.95,14.19.61,47.17,18.1,49.89,23.87,3.72,5.54-23.71,17.75-38.02,12.73-14.92,30.37,2.38,39.06,13.18,12.88,16,13.32,25.72,5.06,44.94-26.37,61.41-99.96,28.46-122.43-17.57-33.35-68.32,23.7-113.95,80.08-138.78,18.99-8.36,28.47-14.98,42.35,6.32,5.6-5.34,12.76-8.57,18.94-13.08,4.4-3.2,4.32-9.93,13-8.91,6.69.78,23.99,23.19,30.18,24.1,10.93,1.6,16.1-15.31,23.96-16.13,11.53-1.21,17.37,16.59,22.29,17.88,9.05,2.37,16.73-24.09,32.61-16.77,6.24,2.87,19.64,26.14,31.54,14.44Z"/>
  <path class="st0" d="M1051.71,410.28c-17.02-.48-47.26,3.73-41.29-22.86,1.46-6.5,23.65-28.29,29.68-30.33,23.16-7.87,62.05,15.26,65.78,40.04,9.9,65.69-78.61,122.14-133.33,83.33-14.89-10.56-36.5-40.25-45.58-56.42-3.66-6.52-18.4-35.9-18.95-41.23-1.29-12.57,14.49-18.49,13.73-23.44l-21.08-28.37,25.41-34-17.77-22.29,17.76-23.71c0-5.91-17.43-14.53-18.05-24.14-.79-12.28,15.98-13.3,17.89-26,2.55-16.92-7.89-12.4-13.98-19.79-7.67-9.3-2.32-25.03,5.33-32.96,5.3-1.57,11.81,8.8,15.74,11.89,12.8,10.03,31.92,25.15,42.03,37.97,17.51,22.21,2.42,33.75-2.14,57.91-10.17,53.87,20.49,33.69,48.95,16.95,5.24-3.08,12.2-11.41,17.06-10.94,16.31,9.45,25.03,26.78,32.83,43.45.54,5.62-7.89,4.33-11.71,5.67-31.09,10.85-67.74,21.74-79.46,56.53-11.87,35.23,2.94,84.69,47.91,73.89,15.63-3.75,31.17-13.09,23.25-31.15Z"/>
  <path class="st0" d="M705.8,1470.12c-1.98-1.43-17.02,8.85-19.7,10.96-3.95,3.11-5.68,9.95-11.42,10.48-7.72.71-28.26-25.4-33.63-25.54-8.2-.22-15.95,15.56-24.38,17.62-8.45-.14-17.16-17.35-21.72-17.81-8.31-.84-16.38,17.76-26.14,18.19-10.05.51-18.77-25.05-34.84-17.05-5.65,2.81-7.3,16.26-21.13,16.87-5.24.23-22.63-4.33-22.09-10.84s54.96-62,63.22-64.11c10.88-2.79,33.34,7.85,45.93,10.21,52.94,9.94,31.65-21.8,15.78-49.78-2.97-5.24-10.54-8.72-9.74-16.26.23-2.17,10.76-15.22,13.03-17.1,2.92-2.44,26.58-14.86,30.13-15.88,4.08-1.18,2.38.99,2.94,2.83,10.64,35.19,22.05,78.36,62.41,89.64,25.96,7.26,70.26-.13,71.69-33.54.59-13.67-6.75-39.99-23.28-40.98-16.01-.96-8.59,11.99-9.05,18.74-3.02,43.94-35.72,23.68-50.66-.92-9.85-16.21-.87-37.64,10.03-51.68,32.34-41.68,91.9-6.78,111.89,29.76,33.06,60.41-9.23,104.86-59.73,132.41-6.17,3.36-35.65,17.42-40.54,17.59-6.03.21-17.57-7.28-18.99-13.79Z"/>
  <path class="st0" d="M1212,1807.96l-4.51,37.53-41.61,5.37c-4.91,3.31,1.53,22.88-4.83,29.17-4.7,4.65-21.73.36-28.77,2.23-5.27,8.3.86,23.86-4.14,30.87-7.19,10.08-22.41-2.8-34.03,7.96-8.39,7.77-.02,14.32-.7,21.62-.94,10.16-19.1,23.91-28.92,18.82-4.47-5.18-.08-10.74-.63-16.25-1.68-16.97-3.94-35.17-3.95-52.39-.02-31.21,17.6-29.76,38.67-43.3,61.88-39.78-2.17-42.97-37.74-53.46-4.72-19.63-.45-39.32,10.13-56.08,31.23,19.1,71.29,39.59,107.67,21.59,26.75-13.24,52.35-53.4,25.38-78.69-8.94-8.38-32.79-19.48-42.99-8.93-12.74,13.17,19.54,22.72,17.94,40.22-1.63,17.8-24.71,16.91-37.95,15.72-16.88-1.53-24.46-6.85-31.84-22.16-41.23-85.54,100.12-116.53,144.44-42.44,18.77,31.37,3.62,100.92-12.62,132.66-6.77,13.24-15.93,10.98-29.02,9.97Z"/>
  <path class="st0" d="M2152.1,1179.89l35.95,5.05,4.83,41.16c3.41,4.89,21.47-1.6,29.06,4.94,9.03,7.78.41,22.81,2.94,26.93,4.79,7.79,26.88.7,32.66,6.48,5.59,10.16-.92,21.35,5.57,31.43,7.76,12.05,13.72,2.31,21.58,2.66,10.41.46,23.89,18.42,21.15,29.27-2.35.18-4.89,1.36-7.12,1.41-20.37.44-43.28,3.06-63.62,2.83-3.14-.04-16.33-2.04-19.2-2.96-8.77-2.82-18.56-29-24.25-37.75-38.14-58.69-43.94,7.09-51.91,40.38-20.94,4.9-36.06-2.81-55.73-7.75,5.29-17.61,18.23-33.52,23.45-51.53,5.54-19.08,6.82-38.87-1.7-57.2-10.22-21.98-41.1-46.02-66.22-36.72-17.51,6.48-42.67,47.12-14.51,55.69,6.59-.02,8.86-7.72,13.94-12.26,10.5-9.39,25.34-14.39,32.5,1.58,3.65,8.12,1.52,40.17-3.75,47.17-2.8,3.72-15.71,11.8-20.3,13.7-75.75,31.23-101.86-73.72-62.24-124.23,31.11-39.66,73.38-34.82,118.4-22.73,6.54,1.76,40.29,13.38,43.53,16.47,6.37,6.06,4.65,18.07,5,26.01Z"/>
  <path class="st0" d="M736,961.98l40.01,3.99c-2.43,14.88,5.3,56.45-4.97,66.05-3.91,3.66-28.39,15.29-27.04,20.93,14.78,12.38,36.1,14.4,49.1,29.09,1.78,4.27-5.09,12.34-6.65,17.39s1.77,14.03-5.89,16.22c-9.17,2.63-24.21-8.59-33.67-11.57-38.84-12.23-89.3-15.2-116.94,18.85-27.6,34,6.43,85.3,47.06,89.02,18.93,1.73,43.47-7.52,36.58-30.58-4.61-15.41-25.41,3.67-32.78,4.55-26.53,3.19-25.09-42.28-2.72-56.85,12.38-8.06,49.29-5.7,59.8,4.01,2.84,2.62,13.68,24.9,14.73,29.27,6.66,27.53-11.4,80.64-37.88,93.38-49.62,23.88-94.15-19.27-144.78-16.78,8.95-10.76-.26-25.07.49-31.7.34-2.95,4.31-6.68,5.6-10.22,4.68-12.82,8.87-30.49,9.9-44.09,1.22-16.07-3.44-45.63,5.1-58.9,5.95-9.25,39.91-22.81,48.88-33.29,26.84,10.76,20.61-12.43,24.07-30.79l35.91,3.92c3.73-33.05-3.52-46.4,36.08-31.9v-40Z"/>
  <path class="st0" d="M829.54,536.45c1.59,1.62.86,8.41,4.42,10.57,13.19,8.01,25.25-16.39,32.89-15.18,2.23.36,16.95,26.26,22.15,26.23,7.41-.05,20.22-23.27,31.61-19.76,5.03,1.55,13.29,18.64,16.39,23.67,6.51-3.84,23.46-28.39,29.19-27.1,8.67,1.95,11.1,26.09,23.81,27.15l-.03,2.9-42.08,42.01c-7.39,3.95-36.98-9.02-40.98-2.97l14.79,52.64c-6.74,9.81-21.85,6.49-26.87,19.48-16.28-3.05-17.01-22.95-23.79-36.14-11.27-21.92-47.02-64.3-72.21-67.79-18.79-2.6-38.16-.14-50.77,14.88-21.92,26.09-20.44,67.53,5.88,90.01,12.48,10.67,39.89,10.89,41.48-8.42,1.17-14.11-31.96-7.42-33.59-25.61-1.91-21.21,25.53-36.53,44.72-32.56,12.28,2.54,39.06,33.33,38.82,46.19-.11,5.89-7.31,25.53-10.5,31.22-13.42,24-64.21,46.55-90.91,39.15-53.19-14.73-53.95-82.15-91.92-114.03,4.07-3.78,8.84-4.91,13.05-8.91,4.43-4.22,6.46-11.5,10.11-13.89,4.67-3.06,16.81-5.64,24.14-9.85,21.01-12.09,33.26-28.63,50.63-43.37,21.92-18.59,17.2-12.33,41.58-7.52,5.79,1.14,36.21,5.2,37.99,7.01Z"/>
  <path class="st0" d="M1801.51,330.47c2.18,2.34,2.4,9.19,4.11,12.91,6.82,14.84,18.65,32.19,29.36,44.63,8.3,9.65,31.84,27.23,33,39.17l-13.98,59.8c-28.57,4.64,6.81,30.13,5.86,35.73l-26.02,20.55c-1.87,11.69,28.67,23.63,17.31,36.89l-19.12,14.81,25.49,28.05c-7.66,10.87-22.52,10.04-28.56,22.98-1.58.39-22.14-18.23-24.97-20.98-4.29-4.15-16.56-15.14-18.47-19.54-4.23-9.77,5.55-29.9,4.48-41.47-12.27-3.3-51.06,21.58-59.03,12.01,1.93-7.91-14.1-23.42-14.28-24.97-1.4-12.16,27.38-18.82,37.16-24.22,35.24-19.44,71.19-51.81,65.94-95.61s-80.04-55.33-106.86-17.3c-9.2,13.04-5.04,40.5,11.96,38.15,15.09-2.08,3.25-45.01,36.49-30.43,14.92,6.55,23.44,26.87,19.76,42.51-3.19,13.56-32.52,38.36-46.05,37.97-4.42-.13-24.8-6.74-29.2-8.99-24.27-12.43-49.26-66.97-40.86-93.11,15.74-48.95,76.21-54.43,110.03-85.97,1.68-1.57,2.98-3.68,2.97-6.04,5.39,3.79,5.77,11.42,10.95,16.01,3.62,3.21,10.71,4.5,12.53,6.46Z"/>
  <path class="st0" d="M2084,1437.95c-13.49-2.03-18.5,16.75-24.08,20.94-5.13,3.85-23.21,9.44-32.54,15.46-15.67,10.1-50.38,49.23-63.09,50.56-11,1.15-42.4-12.51-56.26-11.96-11.12-25.28-23.75-7.53-37.02,4.98l-24.21-27.88c-28.01,18.42-25.54,36.45-46.35.46-.71-1.23-.08-3.91-3.41-2.53-7.68,3.19-21.19,28.27-29.71,25.79-4.42-1.28-12.2-28.35-23.32-27.84l42.09-42.85,40.97,2.99c6.34-10.72-21.92-48.75-10.22-58.26,5.25-4.26,19.13-2.89,22.51-13.97,16.94-.56,16.61,19.82,22.28,31.5,10.54,21.69,48.59,67.68,73.32,70.68,25.33,3.08,47.11-.16,59.4-24.69,13.02-26,10.03-58.5-12.32-78.4-11.04-9.83-33.61-14.18-40.54,1.55-10.09,22.89,38.51,11.22,31.58,37.53-5.24,19.89-26.92,28.89-45.96,25.83-11.63-1.86-36.84-32.67-37.2-44.96-.34-11.45,10.8-34.75,19-43.02,10.6-10.68,45.32-28.03,60.3-29.69,67.16-7.43,75.89,83.05,114.79,117.75Z"/>
  <path class="st0" d="M1330.47,315.53l30.67,6.4c1.22,6.84-6.22,31.7-1.27,35.19,30.73,1.36,44.45.09,30.12,34.85,6.52-1.55,13.24,1.93,19,2.02,4.85.07,16.53-5.24,20.13-.13,4.1,5.81-6.99,29.06-3.12,38.14-17.32-3.46-43.62,6.24-59.15.13-8.91-3.5-23.66-32.05-25.86-32.11-10.88,9.15-13.41,24.02-19.97,36-13.5,24.65-13.56,9.86-31,6.73-6.18-1.11-10.34,4.21-13.16-4.7-3.28-10.37,5.46-18.17,8.68-27.52,9.79-28.46,16.86-80.83.13-107.22-34.89-55.04-115.58-13.72-105.2,47.2,3.99,23.39,36.14,27.52,36.72,12.5.49-12.62-27.29-33.99,1.68-43.14,28.24-8.92,49.88,10.48,49.24,39.19-.63,28.24-8.69,41.5-36.08,49.95-27.02,8.34-81.88-10.23-95.68-36.38-25.66-48.63,21.34-96.65,15.66-146.64,10.42,8.41,25.45.85,34.47,2.33,4.05.66,10.12,5.64,14.96,7.22,29.52,9.65,54.65,5.57,83.52,8.48,19.08,1.92,15.14,6.71,22.97,19.03,4.72,7.43,20.87,27.55,22.61,33.57,1.63,5.65-6.22,12.16-.07,18.91Z"/>
  <path class="st0" d="M1307,1655.97c-8.73-2.67,9.27-31.47,1.01-39.99l60.58.4,26.37,31.57c11.27-6.27,20.28-51.52,33.2-49.04,3.71.71,8.69,5.57,13.28,6.62,9.08,2.08,19.21-3.6,17.26,12.1-1.1,8.87-8.5,17.86-11.3,26.74-12.17,38.62-15.8,105.17,28.58,124.62,28.09,12.31,67.39-12.28,76.14-39.91,4.96-15.68,6.21-47.65-15.24-51.01-40.25-6.3.35,30.09-9.93,43.84-14.36,19.22-55.19,6.45-58.82-17.08-1.77-11.46-.46-39.68,6.95-48.79,5.99-7.36,28.15-17.35,37.83-18.15,24.24-2.02,68.75,12.34,82.76,33.41,30.99,46.61-15.68,101.53-14.69,150.69-5.51-1.47-9.94-4.28-15.99-4.21-5.9.07-10.57,4-13.64,3.75-3.49-.28-19.33-9.2-26.89-11.01-30.01-7.18-59.58-.47-88.41-9.59l-31.67-48.49c-1.8-7.42,7.09-11.17.56-18.38-6.01-6.63-22.05-3.21-30.8-6.2l3.89-35.89c-33.21-3.7-45.19,4.1-34.01-36h-37Z"/>
  <path class="st0" d="M2166,810.01c-8.95,9.82-.81,24.03-1.98,32.83-.53,4.02-8.8,19.07-10.72,27.45-6.04,26.31-2.51,48.13-5.31,72.69-1.97,17.29-9.24,14.92-19.88,22.11-6.84,4.62-30.67,23.58-36.65,22.57-2.63-.44-4.91-3.52-8.14-3.28-12.28.9-11.52,24.68-11.31,33.61l-36.1-3.18-5.77,36.3c-10.35,3.52-20.05-2.24-30.13-3.13-3.5,7.03,2.52,36.02-1.87,39.14-6.54,4.65-27.63-11.26-38.13-3.14,3.56-15.65-8.41-55.11,2.9-66.08,5.35-5.2,28.62-14.33,27.23-22.76-.52-3.13-28.92-14.2-33.5-16.78-28.9-16.27-3.15-18.18-8.5-42.15,12.77-8.37,22,2.32,34.32,6.33,41.46,13.48,96.73,19.62,125.53-19.55,15.23-20.71,1.59-58.15-17.04-72.94-13.6-10.8-41.88-18.92-57.65-9.75-9.9,5.75-19.73,23.54-8.44,31.85,12.5,9.2,37.44-29.57,47.24,4.75,5.63,19.73-5.61,44.62-27.1,47.1-10.87,1.25-40.89-.28-48.39-8.6-2.78-3.08-12.44-22.66-13.68-27.31-7.05-26.39,9.94-81.62,35.72-94.45,50.72-25.23,95.83,19.27,147.36,16.38Z"/>
  <path class="st0" d="M943.99,1483.96c13.51,6.18,52.5-22.76,60.94-9.9,1.94,2.96,1.62,8.63,3.51,12.47,2.61,5.32,10.28,7.87,9.66,14.33-.98,10.16-22.99,13.6-30.85,17.35-40.08,19.15-78.49,56.88-71.12,104.62,3.29,21.29,39.42,37.66,58.86,37.28,23.45-.46,69.37-30.28,48.06-56.21-22.09-26.89-20.14,23.35-34.13,26.05-26.85,5.18-44.54-33.7-29.79-55.85,4.02-6.04,24.25-22.56,30.9-25.13,10.74-4.15,31.72,2.68,41.35,8.61,19.26,11.86,39.87,51.07,40.71,73.34,2.22,58.98-75.05,71.95-111.18,103.04-2.62,2.25-3.22,9.78-7.05,4.78-.55-13.2-15.18-15.83-19.95-21.69-3.23-3.96-9.27-21.66-14.28-29.72-13.72-22.05-31.38-33.97-45.57-52.43-14.6-18.97,5.27-47.28,4.27-69.61,1.99-5.66,13.46-1.52,13.59-12.47.1-8.6-12.54-19.19-17.88-25.85l27.81-22.21-21.92-29.79c-.04-7.17,19.12-15.66,24.03-20,.05-3.92-23.44-21.55-25.03-25.05-5.21-11.47,25.48-15.63,28.06-27.91l42.97,43.02-5.98,38.93Z"/>
  <path class="st0" d="M2095.37,443.39c-5.75,6.49-20.58,13.84-27.36,21.61-8.53,9.77-11.33,28.5-20.35,41.65-24.28,35.38-58,47.72-99.04,31.72-25.52-9.95-56.03-37.24-52.47-67.18,1.02-8.59,17.57-38.52,23.99-44.05,20.83-17.98,75.55.15,62.38,28.39-6.36,13.63-50.22,7.95-32.52,33.47,31.41,45.29,88.47-18.67,74.94-58.95-7.87-23.45-37.51-45.61-61.96-48.03-39.37-3.9-65.18,5.26-89.98,35.94-2.89-9.61-21.26-19.24-21.2-26.96.07-8.02,13.99-21.96,18.2-28.98-10.8-.17-33.27,7.48-41.89.87-1.33-1.02-16.56-26.75-17.22-28.8-3.6-11.17,7.43-18.61,16.11-23.42,6.78,0,18.94,19.7,24.4,21.12,6.16,1.6,21.66-17.97,29.59-18.01,10.8-.06,12.7,17.24,21.91,16.32,6.76-.68,20.67-22.6,25.72-21.83,15.57,11.22,31.16,22.83,48,32.11,13.3,7.33,57.43,29.47,70.37,29.79,10.69.27,22.27-8,32.05-4.36,5.88,2.19,16.52,16.38,20.67,21.55l-21.79,27.64c.01,2.14,6.23,9.54,8.13,11.94,4.11,5.19,14.77,10.3,9.31,16.46Z"/>
  <path class="st0" d="M1992.84,1656.81c26.26-33.52,24.29-82.34-4.85-113.82-2.37-2.56-16.78-10.92-13.98-14.97,10.48-.03,19.47-20.49,27-19.9,5.61.44,27.94,19.22,28.97,17.86.08-11.17-7.06-30.5-.86-39.89,1.14-1.73,26.92-17.87,29.51-18.65,9.96-3.01,19.08,7.39,22.7,15.54,0,6.78-19.6,18.79-21.06,24.41-2.08,8,17.08,20.39,17.71,29.72.8,11.89-17.13,13.93-15.73,23.4,1.09,7.35,17.12,17.64,21.27,24.44-9.88,15.25-20.87,29.84-29.86,45.68-8.67,15.28-31.83,58.61-31.82,74.34,0,9.25,6.8,21.05,5.8,27.59-.55,3.55-16.58,20.97-19.67,22.42-11.01,5.16-20.49-18.08-30.96-20.34-8.05,1.08-18.6,21-25.64,19.15-2.97-.78-20.51-25.77-27.49-30.69-19.83-13.99-39.16-13.72-59.66-36.34-37.86-41.77-5.55-130.11,49.36-134.37,12.19-.95,47.26,17.85,53.27,27.75,11.83,19.47.48,66.17-25.37,61.53-20.03-3.59-12.74-61.37-43.56-30.77-22.86,22.7-5.06,46.99,16.21,61.95,31.05,21.84,57.6,10.92,78.71-16.04Z"/>
  <path class="st0" d="M1312.69,1903.27c21.1,19.56,65.55,13.58,87.18-2.44,23.72-17.57,38.18-40.41,39.37-70.21.17-4.2-4.3-19.1,1.66-20.15l31.14,2.46c5.86,3.54,7.17,27.86,7.98,35.03,7.16-4.97,21.18-29.23,29.04-30.03,1.72-.18,31.46,7.39,33.53,8.45,9,4.61,10.77,25.03,3.43,28.59-7.16,3.48-29.87-1.96-33.14,2.86l-5.67,32.33c-6.33,5.03-22.3-1.85-27.39,4.61-4.44,5.63-.45,25.29-1.82,33.18-18.03,2.39-37.36,5.32-54.87,10.13-15.51,4.26-64,20.12-74.2,29.8-6.61,6.28-10.78,22.28-16.94,25.06-3.83,1.72-24.41,1.85-28.57.63-10.69-3.15-1.73-28.97-7.69-37.32l-31.48-2.52c-1.54-2.43,4.08-31.63,3.64-38.46-.76-11.6-9.83-22.1-12.91-33.26-11.87-42.92-.23-81.31,41.3-100.78,49.89-23.4,99.45-9.54,101.86,51.72,1.56,39.65-62,55.27-63.54,25.71-.69-13.29,31.74-44.82-5.58-44.84-47.21-.02-41.25,66.33-16.31,89.45Z"/>
  <path class="st0" d="M1296,238l-34.12-2.88-8.88-33.08c-1.84.14-17.3,25.46-24.43,27.59-4.89,1.46-29.07-4.28-34.56-6.63-11.94-5.13-8.22-16.18-7.13-27.12l33.24-2.76c5.14-3.61,2.21-27.62,7.73-34.27,6.99-8.4,22.57,4.56,27.16-4.85,3.33-6.83-.66-25.03,3.08-33.9,8.15.09,16.37-1.08,24.33-2.68,20.56-4.13,92.31-23.63,104.68-37.32,6.49-7.18,9.51-23.41,20.37-25.71,8.34-1.77,19.39,3.76,28.54,1.61l2.27,35.73,32.88,4.22c1.37,1.89-2.89,20.6-3.13,25.08-1.67,31.02,20.42,52.8,15.98,91.99-6.55,57.8-118.24,95.03-140.57,32.56-2.55-7.14-8.19-29.62-7.4-36.37,2.45-20.97,39.85-44.86,58.04-30.27,20.85,16.72-24.54,48.49,3.35,54.65,48.24,10.66,51.67-46.54,32.96-76.95-19.96-32.44-70.26-27.73-97.34-6.57-12.69,9.92-37.05,38.52-37.05,54.95v33Z"/>
  <path class="st0" d="M582,1095.98c-5.29,11.41-.07,22.51-3.83,33.19l-34.16,8.84,22.02,16.94c15.03,10.71,1.25,35.16-3.36,49.21l-24.4,1.55-2.3-35.7-34.06-4.94-3.79-28.21-33.85-3.15c-6.76-36.51-15.41-81.72-31.91-115.09-9.42-19.06-12.78-13.71-26.24-23.76-12.79-9.55-7.94-22.57-7.27-37l35.26-4.74c5.5-3.83-2.74-28.12,5.89-32.23,2.55-1.21,31.64,4.19,40.81,2.92,10.47-1.45,21.75-10.1,33.11-12.89,30.55-7.48,59.98-3.64,82.12,20.01,28.35,30.28,40.78,102.3-8.04,118.06-6.63,2.14-28.89,7.66-34.82,6.95-21.5-2.56-47.32-41.56-30.08-59.85,15.31-16.25,56.33,31.46,54.94-11-1.29-39.45-46.83-40.03-74.13-26.19-38.86,19.71-32.07,73.34-8.75,102.91,8.89,11.27,37.64,34.17,51.83,34.17h35Z"/>
  <path class="st0" d="M866.02,1687.97c8.49-1.93,35.34-7.45,41.48-1.49,1.52,1.47,17.9,30.82,18,32.83.25,4.95-12.25,18.51-16.45,18.62-10.63.29-19-23.39-27.77-21.66l-26.59,19.29c-9.62.95-14.59-18.53-22.87-16.7-7.78,1.72-18.95,22.61-26.32,20.82-3.74-.91-34.44-23.65-42.15-28.05-13.87-7.92-64.88-34.57-78.12-33.59-11.11.83-20.62,11.08-33.15,2.85-2.2-1.44-16.15-18.27-16.14-19.93l21.56-28.02c-2.42-6.42-21.04-20.26-19.37-25.71,11.18-10.17,27.26-18.17,34.24-31.9,11.19-22.03,16.7-44.53,39.77-60.23,42.6-28.99,126.85,5.3,127.66,58.09.16,10.56-15.13,37.17-22.1,45.47-22.02,26.24-86.88-2.91-62.6-28.6,10.06-10.64,57.28-7.67,22.93-37.11-35.01-30-78.75,29.92-68.47,64.47,15.11,50.77,91.53,65.56,131.4,34.51,4.04-3.14,18.77-20.74,21.98-19.95l21.03,24.94-17.94,31.05Z"/>
  <path class="st0" d="M706.01,524c-2.42,10.33,6.24,30.8.15,39.15-1.08,1.48-29.51,18.6-31.32,18.85-7.04.99-20.34-8.86-20.95-15.12-.82-8.41,22.34-21.64,21.82-27.55-2.38-7.38-19.37-21.68-19.62-28.33-.39-10.58,20.09-12.67,17.08-23.08-2.36-8.14-22.82-19.49-20.95-26.53,10.31-14.08,21.43-28.96,30.11-44.08,7.57-13.18,31.34-59.54,31.76-72.4.38-11.44-10.93-22.39-4.2-34.05.95-1.65,18.2-18.33,19.5-18.67,6.42-1.68,17.86,15.19,22.64,18.73,12.94,9.57,19.1-13.04,30.98-16.45,12.21,11.11,19.33,27.21,34.51,34.98,21.38,10.93,35.19,12.98,53.46,32.54,44.84,48.02-9.13,155.61-69.73,129.73-6.03-2.57-27.59-16.03-31.3-20.7-17.18-21.61,2.25-77.23,29.19-61.17,10.16,6.06,9.18,35.72,21.84,36.32,14.68.7,28.32-21.49,26.89-34.98-1.35-12.77-20.79-32.27-31.76-38.32-33.26-18.37-62.7-2.55-80.94,27.27-16.43,26.86-15.47,68.99,2.88,94.79,3.33,4.68,22.41,21.27,21.87,23.83l-24.99,21.28-28.92-16.05Z"/>
  <path class="st0" d="M2198,843.99v34c7.78,3.3,30.91,1.74,36.05,6.94,5.74,5.8-.66,16.66-.11,22.06,1.31,12.81,33.33,3.14,37.19,8.86,2.26,17.47,5.14,35.2,9.85,52.15,3.77,13.58,21.38,66.83,28.97,75.03,6.58,7.1,21.57,7.95,26.54,19.47,1.76,4.08,0,28.96-2.37,30.61-7.74,3.21-28.08-2.22-33.18,2.82-6.84,6.76,1.18,29.58-6.23,31.9-4.05,1.26-28.31-4.05-35.43-3.74-11.83.53-28.8,12.62-43.18,14.99-29.39,4.83-50.19,3.36-73.04-17.17-29.44-26.46-46.07-100.98-1.8-119.67,10.38-4.38,34.58-10,45.28-7.8,20.38,4.2,45.1,48.72,22.01,61.1-18.18,9.75-53.33-36.2-50.62,11.51,2.38,41.84,57.98,35.68,82.71,16.57,27.77-21.45,19.63-70.69.18-95.48-22.28-28.4-51.06-39.44-86.84-34.17l2.21-35.8,33.79-6.22-27.63-25.42c3.25-23.65,1.73-54.78,35.63-42.56Z"/>
  <path class="st0" d="M1048.5,1979.45c3.58,3.38,10.23,1.51,14.13,2.89,7.79,2.75,4.59,18.03,5.53,24.47,1.94,13.34,12.62,24.94-9.16,27.15-18.66,1.9-53.29,2.66-71.52-.47-19.39-3.32-27.82-21.72-40.42-33.58-17.13-16.14-60.38-39.26-31.12-65.01,5.59-4.92,13.59-7.15,19.14-12.86,18.06-18.62,5.73-38.96,17.17-60.83,8.12-15.52,20.55-14.81,36.26-10.74,26.92,6.97,4.57,22.27-.9,36.1-5.44,13.78-5.28,50.12,10.06,28.06,10.71-15.39,27.03-56.04,33.29-74.7,2.28-6.81.54-19.2,10.09-12,2.15,25.64.47,51.43.88,77.12.08,4.73,2.08,9.11,2.17,13.84.25,14.74-6.11,50.63,4.42,60.57Z"/>
  <path class="st0" d="M1037.37,40.62c11.94,13.1-.56,37.97,3.09,55.92,3.17,15.63,31.65,27.61,30.55,52.51-.51,11.41-22.55,29.99-33.61,26.58-7.44-2.29-7.88-20.4-10.45-27.58-3.77-10.55-13.98-24.64-25.73-25.95-2.16,1.01-3.1,2.54-3.29,4.9-.53,6.4,20.87,61.29,25.14,70.93,2.39,5.4,12.12,19.59,12.62,21.41.98,3.57-.16,4.56-2.73,6.66-4.96,1.02-28.13-26.61-33.9-32.06-16.49-15.56-34.12-29.73-50.07-45.92-8.07-8.19-15.19-23.38-30.18-23.94-8.26-.31-10.11,6.55-14.22,7.64-6.68,1.78-14.58-9.53-19.92-13.38-10.24-7.37-25.39-8.1-14.64-23.35,6.94-9.83,33.32-37.18,42.94-45.04,24.17-19.77,30.8-11.68,57.71-12.71,15.18-.58,56.57-7.74,66.71,3.37Z"/>
  <path class="st0" d="M2270,656c-4.03-4.07-39.5,9.9-46.53,12.46-8.87,3.23-20.39,7.43-28.83,11.17s-25.51,19.19-28.63,7.4c13.29-14.02,27.76-26.97,41.02-41.01,8.81-9.32,17.93-22.2,26.92-31.07,10.59-10.44,34.35-23.39,34.21-40-.06-7.34-6.69-8.12-7.89-12.38-2.14-7.59,6.79-11.39,10.55-16.75,9.87-14.08,10.32-31.04,30.11-15.77,12.05,9.3,46.79,42.85,52.05,55.95,6.19,15.41,1.28,27.88,1.77,42.65.53,16.14,6.64,48.73-.97,62.12-10.1,17.75-38.67,2.51-55.9,6.1-20.22,4.22-34.05,36.06-58.43,30.73-6.04-1.32-18.4-15.44-21.16-20.89-10.32-20.33,14.39-18.86,26.27-23.17,11.22-4.07,26.16-14.35,25.45-27.55Z"/>
  <path class="st0" d="M517.45,1357.46c-3.74,4.08-23.66,6-31.45,9.53-10.21,4.63-16.97,12.28-21.77,22.29-.8,8.77,16.5,2.05,20.83.77,20.7-6.12,52.21-18.45,71.51-28.09,1.5-.75,2.5-5.59,6.7-5.73s5.31,3.04,4.42,6.41-35.05,35.29-40.72,41.31c-8.14,8.63-16.6,20.89-24.92,29.08-11.12,10.94-28.97,19.62-33.1,34.89-4.2,15.51,8.61,15.83,6.84,22.66-2.78,4.55-7.54,7.28-10.62,11.57-5.39,7.51-11.78,26.01-21.22,23.05-3.25-1.02-37.48-31.44-42.01-36.16-11.16-11.65-23.85-27.15-24.11-44.08-.09-6.16,2.25-11.59,2.26-17.88.02-16.44-5.6-55.38.36-67.64,8.84-18.16,31.42-7.04,45.25-6.64,32.09.93,37.09-31.6,65.63-32.18,11.56-.23,34.47,27.72,26.11,36.84Z"/>
  <path class="st0" d="M2326.28,1326.26c7.68-3.92,16.39-1.48,24.56-2.44,6.47-.76,17.62-8.27,23.35-1.03,1.35,1.7,3.66,30.77,3.89,36.11.81,19.56,2.07,47.93-10.1,64.07-4.28,5.68-10.44,8.35-15.04,12.96-11.49,11.52-33.75,39.87-45.04,46.96-25.38,15.95-34.71-22.92-51.21-32.61-17.19-10.09-65.16,3.48-64.83-31.36.08-7.85,1.66-25.82,10.05-28.11,15.03.8,23.51,14.89,39.24,16.99,13.38,1.78,36.02-1.1,16.22-14.21-11.54-7.65-42.09-20.37-56.03-25.97-6.19-2.48-31.05-8.62-32.39-11.64-.88-4.32,4.65-5.66,7.93-6.1,21.65-2.88,62.2-1.6,86.02-1.98,22.47-.36,65.19,12.76,63.36-21.63Z"/>
  <path class="st0" d="M1700.01,1823.98c3.7-.54,5.91.03,9.09,1.89,3.45,2.02,20.1,22.7,25.84,28.15,10.69,10.14,23.43,19.74,34.11,29.89,10.09,9.6,31.02,37.22,42.4,39.59,15.25,3.17,16.45-7.67,21.19-7.25,5.25.46,12.8,11.2,17.48,14.59,10.21,7.41,26.23,6.38,13.87,24.13-6.93,9.95-43.35,47.29-53.31,52.69-18.85,10.22-40.65,4.07-61.78,4.22-16.04.11-43.88,9.47-53.74-8.07-11.43-20.33,13.73-39.19-10.37-67.62-2.13-2.52-5.77-3.6-7.87-6.13-19.07-22.89-17.3-42.59,10.4-55.75,18.85-8.96,16.61,16.57,21.1,28.26,4.24,11.03,14.13,20.37,24.6,25.36,9.03-.45-4.04-32.16-5.51-36.45-3.74-10.89-8.69-24.3-13.14-34.86-2.2-5.21-16.73-30.22-14.35-32.63Z"/>
  <path class="st0" d="M470.01,644.01c-.24,2.17-.17,4.05.94,6.03,4.5,8.01,77.76,37.72,91.77,40.07l3.28,7.87c-18.29.6-36.78-.74-55.07-.07-15.19.56-35.08,4.26-49.91,4.08s-23.24-7.66-40.39-.39c-17.3,7.33-6.83,19.79-13.89,22.11-12.85-3.62-27.92,5.77-37.95,6.26-15.44.76-10.46-32.68-10.69-43.07-.4-17.39-3.46-34.68,3.88-51.96,5.38-12.68,12.9-14.61,21.1-22.9,10.06-10.18,42.34-49.4,53.86-49.78,20.97-.7,25.38,26.59,41.67,36.15,18.48,10.84,37.25-.11,55.28,12.72,12.91,9.18,11.02,21.2,7.63,35.36-5.87,24.52-22.3,4.32-34.12-.87-12.73-5.59-24.33-6.68-37.37-1.6Z"/>
  <path class="st0" d="M1740.58,128.61c-4.72,4.27-25.73,52.01-29.55,61.41-2.39,5.87-5.18,13.04-7.18,18.99-1.65,4.89,1.33,17.25-8.91,13.05-2.34-18.26-.13-36.84-.85-55.15-.58-14.65-4.2-33.7-4.16-48.01.04-14.79,9.43-34.76-2.99-48.84-5.61-6.36-16.79-1.68-18.67-7.33,4.41-10.86-12.61-40.66-2.27-45.74,30.46-.82,62.53-8.32,92.03,1.98l66.46,63.54c18.95,28.78-22.59,34.82-32.16,54.82-11.18,23.36,6.35,66.42-37.09,62.41-39.79-3.68-12.97-22.6-6.82-40.32,3.63-10.46,6.2-25.34-3.4-32.98-1.56.52-3.2,1.06-4.44,2.18Z"/>
  <path class="st0" d="M2226.14,444.13c8.98-6.29,28.29,25.8,33.04,31.68,3.98,4.93,14.52,7.87,11.97,18.24-2.35,9.54-18.83,27.94-28.76,31.33-73.02,24.95-134.66-95.18-87.68-136.68,14.2-12.55,20.84,4.26,29.5,12.08,6.25,5.65,22.67,15.39,21.8,24.1-.87,8.71-12.81,11.11-9.87,29.99,3.47,22.27,40.48,33.15,35.52,10.57-.87-3.96-11.79-16.92-5.51-21.31Z"/>
  <path class="st0" d="M509.99,1603.97c-8.73,8.67-30.58-26.19-35.2-31.79-3.69-4.47-10.06-4.99-10.81-13.41-.98-11.06,19.93-33.96,31.47-36.34,63.2-13.02,113.15,59.01,97.63,115.63-3.03,11.06-13.45,30.34-27.17,25.05l-36.03-34.04c-4.99-5.84,2.99-10.3,5.87-16.34,8.92-18.73-2.71-41.48-23.09-42.23-19.93-.74,1.48,29.36-2.67,33.48Z"/>
  <path class="st0" d="M1947.51,1796.48c14.98-1.91,66.62,5.26,59.69,27.53-1.04,3.35-33.89,38.25-37.15,39.16-7.54,2.1-15.01-14.48-33.68-9.84-22.16,5.5-32.01,38.4-9.51,34.62,5.43-.91,8.36-7.27,16.07-6.07,19.97,3.12-19.83,28.86-23.89,32.14-3.78,3.04-9.98,11.51-13.09,12.94-11.51,5.32-35.02-16.27-38.97-26.97-18.19-49.25,35.09-97.7,80.53-103.5Z"/>
  <path class="st0" d="M2385.53,1193.51c-9.33,3.62-17.66,1.85-25.63,9.37-18.22,17.21-2.07,53.53,11.58,40.55,1.43-1.36,10.17-33.16,17.49-17.42,5.7,12.24-5.38,43.31-4.02,57.92-10.6,10.34-34.13,12.36-47.51,5.6-58.78-29.7-36.03-141.34,22.92-156.18,32.16-8.1,24.28,8.28,25.55,29.71.59,9.91,5.27,20.62-.39,30.45Z"/>
  <path class="st0" d="M1569.3,2.3c13.98-2.51,26.42,1.76,39.72,3.67,6.14.88,15.19-1.93,20.15,1.85,25.83,47.78-22.79,85.22-68.16,82.14-18.1-1.23-51.73-14.4-64.81-27.18s-28.82-38.73-16.23-55.79c10.03,1,51.14-6.63,56.2-.18,5.1,6.51.85,20.17,14.8,29.2,20.15,13.03,50.7-6.83,31.76-17.76-6.67-3.85-18.95-1.47-16.6-13.04l3.15-2.91Z"/>
  <path class="st0" d="M371.55,756.55c44.2-4.84,64.25,42.7,60.43,80.41-2.97,29.37-26.96,71.4-57.48,78.5-5.2,1.21-17.97,2.43-22.41-.55-7.95-5.35-2.67-46.83-3.81-57.65l3.05-2.95c24.4-.04,38.87-18.2,29.05-41.7-3-7.18-10.5-13.69-17.43-6.67-2.67,2.7-7.13,28.9-15.91,18.02-6.03-7.47,3.09-46.26,2-57.94,2.78-6.19,16.25-8.78,22.52-9.47Z"/>
  <path class="st0" d="M819.51,162.51c-8.6-9.9-30.33,14.98-31.6.47-1.05-12.09,32.27-28.46,39.08-39,13.02-9.86,39.28,15.49,42.15,27.88,14.91,64.4-65.2,118.58-121.72,95.72-43.74-17.69-.83-38.62,13.47-59.67,10.47-6.79,15.58,6.31,26.23,7.96,8.3,1.29,17.5-.17,23.9-5.84,5.46-4.83,14.06-21.09,8.48-27.51Z"/>
  <path class="st0" d="M1838.02,799.99l4.1,1.24,7.87,16.72-75.02,30.01c-14.98,9.73-11.11,30.18-19.02,36.98-5.06,4.35-21.99,5.65-32.62,13.38-14.37,10.45-15.41,26.88-34.52,29.48-7.97,1.08-40.1,1.65-43.84-5.79-5.07-10.07,7.55-30.09,13.39-38.66,11.61-17.04,42.23-46.16,61.68-52.32,24.6-7.79,46.03-6.14,62.95-31.02l16.03,26.05c4.47,4.32,25.47-6.3,30.01-10.05,4.34-3.59,8.87-10.28,8.99-16.03Z"/>
  <path class="st0" d="M953.96,1249.96l-4.09-1.23-15.27-26.84c-18.23,1.77-33.23,10.29-39.61,28.08l-10.04-18.01,74.96-31.08c16.39-10.52,10.61-33.94,22.94-39.06,9.73-4.04,18.7-3.54,29.03-10.97,10.67-7.67,14.25-19.95,24.64-27.36,25.85-.24,69.63-14.14,49.2,27.2-10.2,20.63-36.34,47.99-55.89,60.11-24.48,15.18-61.73,7.61-75.86,39.16Z"/>
  <path class="st0" d="M1859.98,1197.98c-.86,4.98-.31,19.84-6.84,19.97-2.25.04-30.34-11.05-35.11-13-17.2-7.05-34.4-21.26-53.7-15.62-6.96,2.03-14.4,10.4-21.33,10.84-8.79.56-23.34-12.73-38.26-13.93-16.35-1.32-23.33,7-38.63-1.39-7.78-4.27-32.19-28.8-29.83-37.42,3.37-12.28,39.7-18.34,50.96-19.19,14.18-1.07,41.51.62,55.15,4.34,21.19,5.78,35.15,25.86,60.52,27.47,5.66.36,19.54-3.47,18.2,1.99l-8.67,29.02c13.01,9.51,32.97,18.22,47.53,6.93Z"/>
  <path class="st0" d="M914.01,889.97l7.73-33.65c-15.16-8.94-30.97-14.66-47.73-6.35,1.61-5.48,2.3-11.63,3.95-17.06.7-2.29-1.41-3.5,3.02-2.94l76.27,31.91c15.87,1.52,27.07-13.75,35.76-13.75,4.28,0,21.19,11.28,30.55,13.27,21.27,4.53,30.81-8.55,50.28,5.74,5.13,3.76,26.23,26.56,25.76,31.51-2.05,21.72-67.29,22.45-82.67,21.39-38.69-2.65-42.72-19.99-71.32-28.68-11.56-3.51-19.81-3.22-31.59-1.41Z"/>
  <path class="st0" d="M1234,1477.96l-34.01-7.1c-10.4,15.61-14.42,28.87-8.01,47.12-4.58-2.71-10.2-2.45-15.02-3.95-2.61-.81-3.18,1.55-3.03-3.05l29.88-74.17c5.88-13.79-11.93-27.7-11.93-37.82,0-8.01,12.55-22.51,13.9-36.22,1.78-18.07-9.26-26.16,3.16-42.84,3.72-5,27.02-27.69,32.04-27.86,9.07,1.21,12.29,9.45,15.09,16.84,9.48,24.97,10.63,68.91,2.03,94.17-8.15,23.93-36.4,44.22-24.1,74.88Z"/>
  <path class="st0" d="M1502.02,569.99c6.82,2.11,28.78,10.29,34.01,7.05,8.1-5.02,14.1-36.57,5.97-45.03l20,5.03-31.91,78.19c-2.8,11.62,13.91,26.05,13.71,35.82-.09,4.36-11.26,19.6-13.29,28.44-3.59,15.61,3.4,27.26,1.04,39.03-1.58,7.87-17.91,24.04-24.51,29.52-8.82,7.32-14.86,12.85-23.57,1.48-15.15-19.78-14.21-83.84-5.55-106.6,5.28-13.89,18.88-26.88,23.51-42.49,3.35-11.26,1.9-19.13.59-30.43Z"/>
  <path class="st0" d="M1591.99,1441.94l-28.15,15.26c3.37,18.3,11.38,31.41,28.15,39.78-4.86,1.71-13.33,11.58-18.1,8.13l-31.01-75.02c-10.07-13.47-29.27-9.3-36.05-17.95-3.81-4.88-3.24-12.02-5.87-18.13-8.56-19.91-13.11-18.53-26.98-31.02-12.61-11.35-11.48-27.78-10.06-44.09.9-10.35,1.65-19.6,14.59-18.5,22.73,1.92,70.88,49.48,79.86,70.19,8.33,19.2,5.57,40.25,20.6,57.4,2.72,3.11,14.94,11.17,13.01,13.95Z"/>
  <path class="st0" d="M1161.98,541.99l31.1,77.93c9.84,11.89,30.81,8.1,36.47,19.53,4.04,8.18,3.8,16.68,9.64,26.36,7.44,12.34,25.98,20.43,29.31,28.69,2.55,6.32,3.31,48.41-1.82,51.64-1.84,1.16-5.47,1.84-7.71,1.92-24.43.9-72.68-48.22-82.03-70.01-10.24-23.87-7.23-54.19-34.89-69.07l27.75-18.35c2.89-8.98-14.86-38.95-27.78-36.67,1.98-3.6,17.44-14.16,19.98-11.98Z"/>
  <path class="st0" d="M951.46,1786.43c5.7-1.16,15.44-.95,21.32-.24,6.28.77,26.44,6.79,32.87,9.13,4.36,1.59,11.14,5.11,9.6,10.7-.88,3.17-21.92,24.8-24.69,25.62-9.74,2.86-24.94-11.82-42.6,1.3-25.95,19.27-17.06,49.17-29.04,68.96-5.23,8.64-21.29,19.68-29.02,26.98-5.68,5.36-9.83,18.78-19.87,14.11-2.67-1.24-13.32-13.11-13.61-16.32-.8-8.81,14.56-17.52,15.16-24.01.57-6.09-10.73-10.6-9.63-25.65,1.65-22.45,28.24-26.63,42.09-37.99,15.67-12.86,27.06-48.45,47.41-52.59Z"/>
  <path class="st0" d="M1861,104.67c3.81,0,16.51,12.37,17.08,16.45,1.4,9.91-10.89,15.77-14.14,23.95-1.06,10.11,16.12,13.97,7.05,34.93-7.21,16.67-28.39,19.95-41.01,30.98-18.28,15.98-25.73,51.62-55.06,53.12-7.77.4-49.38-9.93-53.07-14.95-.97-1.32-1.9-2.52-1.96-4.25-.5-5.52,23.12-28.95,28.77-28.45,3.06.27,8.26,4.28,12.81,5.07,23.67,4.12,37.54-14.41,44.61-34.44,3.96-11.22,4.57-30.8,9.09-38.91,4.63-8.34,21.52-20.04,28.93-27.07,4.16-3.94,10.38-16.42,16.91-16.42Z"/>
  <path class="st0" d="M568.01,1327.99c-9.96-2.65-27.77,3.67-36.07,1.13-8.98-2.74-7.09-11.45-11.89-17.63-13.96-17.99-38.22-13.06-56.01-4.48-11.57,5.58-24.62,19.51-36.99,21.01s-24.66-1.72-36.05-2.04c-15.78-.44-27.48,10.49-24.99-17.04,1.44-15.9,18.17-11.02,30.13-13.82,3.45-11.16,1.34-18.46,12-26,20.72-14.64,39.4,4,59.03,4.67,24.68.85,51.9-21.32,75.91,2.1,4.57,4.46,23.02,34.29,24.43,39.56,1.1,4.09.4,8.4.49,12.53Z"/>
  <path class="st0" d="M2283.28,1510.68c1.74,1.97,3.11,4.34,4.35,6.67-18.13,39.1-30.84,2.58-42.67,2.6-6.38,0-8.78,13.46-29.08,9.13-21.72-4.63-23.37-31.35-36.81-45.17-18.19-18.7-52.15-21.48-50.9-56.6.21-6.05,10.7-45.06,13.88-48.27,1.95-1.96,5.06-3.35,7.89-2.15,1.57.67,23.87,22.09,24.63,23.62,3.73,7.53-2.78,10.73-4.11,16.91-5.15,23.98,12.54,37.31,32.5,44.6,12.72,4.65,30.02,5.04,40.17,9.83,2.53,1.19,36.29,34.45,40.16,38.83Z"/>
  <path class="st0" d="M463.48,514.3c11.01-2.01,18.55,13.08,25.63,13.81,7.06.72,11.38-12.23,26.99-9.27,25.05,4.75,24.61,30.51,38.84,45.22,13.95,14.43,46.39,22.4,50.61,45.39,2.8,15.31-3.53,39.16-9.46,53.61-2.48,6.05-3.74,11.81-12.05,7.92-1.41-.66-21.9-20.08-22.58-21.48-2.82-5.88,4.68-24.34,2.45-36.42-4.61-24.97-48.02-28.76-66.01-33.99-15.7-4.55-34.68-34.95-48.97-45.16l-.63-4.45c3.29-5.32,8.53-13.97,15.19-15.19Z"/>
  <path class="st0" d="M1083.06,23.01c15.33,1.15,10.92,18.17,13.91,29.02,12.1,5.75,26.71,4.12,30.61,21.39,4.56,20.2-9.08,34.46-9.36,51.79-.48,30.01,24.75,54.22-9.26,80.74-4.7,3.67-36.01,20.47-39.93,20.15-1.14-.09-2.21-.25-3.15-.95-1.53-1.1-4.2-33.71-3.03-37.24,2.5-7.56,9.48-5.8,15.02-9.06,20.36-11.96,16.26-35.75,8.5-54.21-5.08-12.09-21.2-29.52-22.41-39.59-1.5-12.54,1.9-24.85,2.13-36.15.33-16.44-11.46-28.02,16.99-25.9Z"/>
  <path class="st0" d="M1670,2023.97c-6.72,1.72-19.2,4.36-25.15.15-8.3-6.53-2.39-19.13-5.84-26.16-3.28-6.68-21.47.36-29.99-20-8.08-19.28,6.5-34.46,7.11-52.98,1.17-35.46-26.93-57.25,14.82-85.06,7-4.66,32.43-19.8,39.18-15.07l1.54,37.8c-1.5,4.38-11.08,5.49-15.59,8.41-21.02,13.62-14.48,38.49-5.51,57.33,7.75,16.26,19.42,21.46,19.42,40.58v55Z"/>
  <path class="st0" d="M2338.47,754.46c-7.76,52.66-43.26,21.43-71.48,21.35-27.25-.07-51.76,20.7-76.03-3.79-4.7-4.75-22.28-34-24.12-39.97-5.76-18.77,26.63-10.69,37.76-11.68,6.31,2.38,5.98,9.98,9.37,14.63,15.68,21.51,35.59,16.6,56.74,6.69,13.04-6.11,22.32-16.6,35.69-20.48,17.1,3.18,40.62-2.2,56.6.77,6.8,1.26,7.87,21.3,3.94,25.94-5.81,6.84-23.58,1.55-28.47,6.53Z"/>
  <path class="st0" d="M2035.99,317.99c-5-4.3-30.65,22.11-38.68,21.58l-35.33-20.59c9.73-18.21,30.69-24.6,45.85-36.15,14.76-11.24,19.69-31.8,39.11-16.77,7.87,6.09,37.62,31.38,41.96,38.07,6.6,10.18-2.94,11.32-2.05,15.99,1.91,10.02,20.13,15.14,9.17,28.92-9.6,12.05-17.08,3.36-28.87,5.08-7.32,1.07-14.49,9.49-21.68,7.59-13.12-3.47-4.45-33.33-9.47-43.7Z"/>
  <path class="st0" d="M396.01,1053.96c1.17,1.75,29.52,4.35,34.85,6.17,12.89,4.4,7.22,11.33,9.61,20.39.96,3.63,8.44,22.64,7.52,23.45-19.62,4.35-37.82-5.63-55.16-7.82-8.36-1.06-33.81,2.08-38.38-2.62-6.95-7.15-4.53-57.71-6.4-70.49,1.76-9.09,10.51-5.55,13.03-8.97,5.28-7.19-3-24.15,11.83-26.17,17.91-2.44,14.69,6.39,24.06,14.12,9.49,7.83,30.47,6.25,20.76,24.72-3.11,5.91-25.51,21.55-21.73,27.22Z"/>
  <path class="st0" d="M698,1728.97l4.79,2.84c8.09-3.85,26.73-22.02,34.22-22.04,6.45-.02,9.82,7.18,15.6,10.59,6.34,3.73,14.36,7.37,21.39,9.63-10.56,17.66-31.09,24.03-45.87,35.1-7.34,5.5-21.46,25.84-30.14,24.04-9.63-2-40.44-35.83-50.87-43.26-6.77-10.48,1.9-11.79.56-18.4-1.64-8.08-17.43-13.94-9.79-26.64,6.37-10.6,23.12-5.42,33.01-6.99,7.19-1.14,14.63-10.13,22.31-4.06,1.05.83,4.81,8.3,4.81,9.18v30Z"/>
  <path class="st0" d="M1447.99,1943.97c5.49,5.78-9.23,53.2-9.97,63.01-1.5,20.09,10.56,32.35-19.06,34.94-12.06,1.06-41.09,3.4-51.85,1.85-11.82-1.71-6.49-9.71-11.09-12.85-7.56-5.17-26.05,2.48-26.13-14.02-.07-14.18,9.65-14.26,15.81-22.23,3.63-4.7,7.27-19.95,10.24-21.77,13.77-8.45,28.1,24.36,42.03,23.06,2.5-8.73,2.54-35.67,8.04-40.98,4.71-4.54,13.81-2.21,20.1-3.9,7.34-1.98,13.82-7.29,21.86-7.13Z"/>
  <path class="st0" d="M2071,1693.97c2.43-.7,3.31-3.85,2.63-6.56-1.78-7.06-21.85-25.63-21.22-32.13l20.66-35.4c2.94-.5,3.92.4,5.88,2.15,14.72,13.13,21,32.37,33.1,46.89,7.17,8.6,23.13,14.27,19.13,27.13-1.36,4.38-41.16,49.05-45.23,50.95-7.2,3.35-9.14-3.53-14.49-2.79-8.49,1.17-13.91,17.23-26.58,9.86-13.29-7.73-5.96-18.29-7-28.87-.86-8.67-11.65-19.48-6.07-26.4.86-1.06,8.3-4.82,9.19-4.82,6.87,0,25.13,1.4,30,0Z"/>
  <path class="st0" d="M660,356c-3.58,3.55,22.97,30.47,22.07,38.91-.43,4.05-9.18,12.07-11.75,16.39-2.22,3.74-5.95,20.03-11.29,18.68-4.04-7.15-11.05-11.85-15.85-18.17-7.35-9.66-11.87-21.75-19.22-30.78-15.09-18.55-32.54-15.21-10.98-41.07,4.34-5.21,34.05-37.69,37.08-39.06,6.64-3,9.08,5.31,14.12,4.21,7.74-1.7,13.41-17.96,24.93-11.23,13.68,8,7.11,20.93,9.02,32.98,1.16,7.3,8.62,12.9,5.57,21.78-3.15,9.2-34.4,3.38-43.7,7.35Z"/>
  <path class="st0" d="M2374.49,1034.46c-5.62,4.77,2.79,26.21-13.47,27.69-16.22,1.48-15.44-10.69-25.13-17.07-5.84-3.85-21.57-5.38-21.85-14.04-.34-10.79,21.5-24.13,25.9-34.07l-42.14-11.8-9.82-41.18c5.16-5.17,53.12,9.33,63.04,9.96,10.72.68,20.47-4.14,29.98,2.02l3.02,8.98c-1.98,11.57,6.51,59.92.04,66.1-2.5,2.39-7.81,1.91-9.58,3.41Z"/>
  <path class="st0" d="M1338.02,52.01l-8.95,42.06-41.06,9.93c-4.34-19.62,5.63-37.83,7.83-55.17,1.77-14-6.57-37.81,11.28-40.72,10.59,1.65,63.59-6.37,67.93-.17,1.7,2.43-.11,6.9,4.07,9.93,5.11,3.69,20.6.94,23.95,6.05,2.01,3.06,1.44,14.34-.11,18.04-1.94,4.61-11.53,9.11-14.68,13.31-6.66,8.88-4.18,29.4-21.02,20.45-4.87-2.59-24.66-27-29.23-23.72Z"/>
  <path class="st0" d="M1910.47,144.47c10.49-10.65,41.05,17.47,43.21,24.98,2.83,9.86-8.13,20.56,5.23,34.63,13.12,13.82,19.65-4.21,31.8,2.17,2.23,1.17,25.62,22.19,26.35,23.81,4.01,8.91-16.33,21.26-23.69,24.3-40.46,16.7-91.06-18.98-93.27-61.65-.24-4.57,8.63-46.49,10.36-48.25Z"/>
  <path class="st0" d="M2385.49,837.49c-1.44,1.48-5.31,1.78-7.37,3.57-8.41,7.31-17.04,20.08-10.23,31.53,4.12,6.93,16.94,2.31,19.62,16.88.95,5.14,1.53,29.2.16,33.18-2.99,8.72-26.24,2.19-33.09-.26-46.04-16.48-51.05-88.11-12.45-117.28,3.07-2.32,29.36-18.55,31.17-18.72,17.31-1.66,11.72,32.82,14.79,42.54-.37,2.71-.67,6.58-2.6,8.56Z"/>
  <path class="st0" d="M823.73,1905.7c-10.74,6.92-39.11-17.61-42.8-25.81-2.41-5.35,6.32-15.33-.51-29.35-10.43-21.42-25.6-2.61-36.38-7.58-1.54-.71-24.31-21.49-25.02-23.03-1.04-2.25-1.54-4.38-1.1-6.86,1.11-7.59,27.59-21.38,35.56-22.63,43.43-6.8,85.56,33.91,80,78.01-.53,4.19-8.13,36.2-9.75,37.24Z"/>
  <path class="st0" d="M1601.49,2039.46c-5.45,5.05-37.23,6.24-44.11,4.13-4.73-1.45-5.62-9.5-10.34-13.66-3.22-2.84-14.1-7.73-18.24-7.88-14.76-.56-14.26,19.15-22.19,21.54-9.23-1.79-33.99,5.89-40.12-.1-5.4-24.32,8.38-52.09,31.54-62.48,27.64-12.4,62.48-11.39,84.02,11.91,4.19,4.54,23.4,35.21,22.95,39.21-.11,1.03-2.74,6.6-3.52,7.33Z"/>
  <path class="st0" d="M575.47,374.25c7.93-1.12,21.62,21.98,23.97,29.3,12.44,38.69-22.76,85.51-62.73,88.31-5.32.37-46.54-8.56-48.76-10.82-3.62-3.67-2.29-12.02-.43-16.55.62-1.51,19.98-23.74,21.34-24.65,7.58-5.07,28.17,6.79,40.03-7.97,8.91-11.09-3.64-19.25.18-29.79,1.49-4.12,22.98-27.36,26.4-27.84Z"/>
  <path class="st0" d="M350.51,1167.48c-2.52-2.61-5.52-37.42-3.51-41.52,3.41-6.95,21.18-3.01,27.45-1.43,50.52,12.69,59.04,87.88,19.38,118.27-3.18,2.44-29.14,18.98-30.94,19.25-17.88,2.67-17.05-36.42-14.92-47.11.9-4.5,12.38-8.02,16.94-15.06,16.94-26.14-6.44-24.15-14.39-32.4Z"/>
  <path class="st0" d="M1267,4c6.16,1.91,1.65,21.54.41,26.41-12.65,49.78-86.68,61.24-117.07,22.25-3.05-3.92-18.1-27.31-19.34-30.77-7.81-21.83,32.39-14.23,43.88-17.93,8.16,1.26,8.28,17.54,24.99,21.14,25.81,5.56,19.49-21.1,31.12-21.1h36Z"/>
  <path class="st0" d="M2191.48,1558.45c5.75-.91,13.6-1.05,19.36-.31,3.5.45,33.23,7.9,35.12,8.88,4.9,2.54,4.71,8.8,3.65,13.51-.75,3.31-23.25,28.71-26.16,29.98-7.62,3.31-10.23-3.08-18.19-2.48-4.65.35-16.11,5.36-19.29,8.89-9.64,10.71,4.07,20.92,1.07,28.91-1.58,4.21-22.84,27.12-26.51,27.84-10.46,2.06-22.6-21.14-25.11-30.11-10.11-36.25,19.3-79.3,56.07-85.11Z"/>
  <path class="st0" d="M1457.46,1046.23c9.84-1.45,26.33,24.6,28.09,33.2,3.82,18.67-1.69,40-17.5,51.59-10.83,7.94-30.83,10.11-33.99-6.09-2.84-14.53,17.03-35.47-3.96-42.1-13.63-4.31-20.8,10.46-26.71,8.95-4.35-1.11-11.81-18.69-11.44-22.73.32-3.47,18.47-19.11,21.97-20.22,10-3.18,18.62,6.17,28.93,5.12,5.98-.61,10.17-7.08,14.62-7.73Z"/>
  <path class="st0" d="M1383.53,975.48c-2.55,3.11-26.86.77-31.02-1.01-8.27-3.53-9.91-17.96-16.61-23.38-12.97-10.5-23.07,2.14-19.67-27.9s29.21-50.11,58.32-44.74c16.32,3.01,26.48,18.97,13.5,32.57-7.34,7.7-24.6,4.74-25.46,20.26-1.03,18.71,23.46,14.72,26.48,20.7,1.98,3.11-4.23,21.9-5.54,23.5Z"/>
  <path class="st0" d="M1423.48,906.46c15.65-2.65,30.57.17,43.18,9.87,20.48,15.76,18.38,47.46-11.21,41.2-7.79-1.65-25-13.88-29.02,3.89-3.48,15.39,9.56,19.51,7.32,27.16-1.67,5.7-16.99,10.86-22.74,11.49-2.4-.23-18.84-21.01-19.69-24.47-1.49-6.03,5.12-15.81,4.87-24.62s-7.22-13.1-6.25-19.86c1.23-8.65,24.74-23.15,33.56-24.65Z"/>
  <path class="st0" d="M1277.45,912.45c14.93-3.12,27.19,6.69,24.13,22.05-1.66,8.35-15.58,20.83-.72,29.61s25.07-10.32,33.17-5.2c2.51,1.59,10.27,20.57,9.09,23.02-6.89,4.55-16.25,16.37-23.71,18.56-6.93,2.04-19.06-7.59-31.94-4.03-3.02.84-5.45,4.5-8.93,5.22-14.58,3.03-30.45-29.94-30.7-42.73-.31-16.29,11.85-42.8,29.61-46.51Z"/>
  <path class="st0" d="M1287.54,1073.53c-7.4,7.65-37.11-1.03-45.42-6.67-16.56-11.25-27.99-39.32-17.86-57.6,8.3-14.97,24.87-14.62,33.44.02,4.64,7.94,2.9,19.49,15.61,20.12,20.79,1.03,16.45-25.44,21.95-27.27l23.81,7.77-2.05,32.1c-5.89,6.74-16.18,7.28-22.12,13.88-5.39,6-4.65,14.84-7.36,17.64Z"/>
  <path class="st0" d="M1441.73,1045.71c-5.04,3.17-21.66-4.33-26.84-7.69-.92-1.46.73-19.96,1.29-22.85,3.48-18.08,14.34-11.13,23.93-22.07,9.5-10.84.34-22.11,22.57-20.95,29.97,1.56,54.76,25.81,51.36,56.89-2.28,20.86-25.64,29.96-36.89,10.8-5.24-8.93-2.21-20.65-18.11-19.98-19.04.8-13.69,23.58-17.31,25.86Z"/>
  <path class="st0" d="M1321.48,1048.26c7.68-1.17,8.18,7.4,11.65,11.59,2.67,3.23,9.67,8.57,10.54,11.57,2.35,8.11-6.19,18.41-5.8,27.53.62,14.63,18.66,13.84-4.04,31.85-21.05,16.71-48.67,18.01-68.81-.83-9.43-8.82-16.25-28.66-2.86-36.83,18.16-11.08,27.03,12.43,41.8,1.78,17.14-12.36-4.63-28.37-3.64-33.65.75-3.98,17.47-12.46,21.16-13.02Z"/>
  <path class="st0" d="M1352.22,1072.22l31.75,2.78c6.55,2.89,10.1,19.15,16.12,23.88,7.74,6.08,20.37-.34,19.97,17.98-.5,22.89-12.91,43.64-34.97,51.21-17.32,5.95-46.59,3.14-43.02-20.95,2.72-18.4,27.68-12.59,29.94-26.25,2.46-14.86-11.56-21.14-24.1-21.8-6.46-9.09,3.27-17.47,4.3-26.85Z"/>
  <path class="st0" d="M1497.15,444.11l72.86,24.92-51.51,52.65-4.52-.56c-1.29-.81-2.04-2.03-2.87-3.26-4.01-5.95-17.2-59.09-17.2-66.98,0-3.05.22-5.26,3.24-6.77Z"/>
  <path class="st0" d="M1208.68,1532.66c2.8-2.5,7.07-4.32,10.34-6.3,9.16.6,19.87,62.88,22.58,73.1l-2.85,4.37-67.85-19.76-6.87-5.1,44.65-46.31Z"/>
  <path class="st0" d="M1903.99,775.98c-25.3-1.91-52.87,3.65-77.15-1.87-1.73-2.12-.49-4.03.04-6.17,1.58-6.33,33-58.84,37.07-61.02,2.82-1.51,5.34-1.72,7.02,1.1l33.03,67.95Z"/>
  <path class="st0" d="M810.03,821.99c3.02-.82,3.32.81,5,1.96,5.13,3.52,42.1,38.9,46,43.98,2.63,3.43,6.78,6.86,3.18,11.16-4,4.78-45.41,14.14-54.19,15.9-5.06,1.01-18.05,5.33-21.17,1.07-2.28-3.11,20-64.87,21.18-74.08Z"/>
  <path class="st0" d="M1685.71,1520.24c4.47,7.81-23.3,17.11-29.75,20.69-5.7,3.16-35.93,23-39.95,19.05l-1.28-64.69c.81-19.95,16.31-8.09,27.32-2.36,5.37,2.8,42.38,25.07,43.66,27.31Z"/>
  <path class="st0" d="M1115.42,488.35c2.47-.16,3.01.65,4.27,2.57-4.33,7.98-.34,16.46-.1,24.07.11,3.46-1.88,7.55-1.78,12,.16,7.52,7.97,38.84-4.43,38.61-7.5-.14-65.26-36.08-65.35-40.6l67.39-36.64Z"/>
  <path class="st0" d="M1943.09,1150.8l4.07,5.32-24.15,71.82-48.03-45.92c-2.4-2.6-5.87-7.04-4.8-10.73,2.04-7.03,62.65-19.08,72.91-20.49Z"/>
  <path class="st0" d="M907.75,1274.23c3.63,5.77-8.11,23.1-11.4,29.1s-24.21,41.86-29.32,40.65l-31.38-56.65-3.64-15.34c8.88,4.32,17.03.44,24.99.4,3.61-.02,7.6,1.84,12.01,1.79,12.35-.14,26.19-5.76,38.74.05Z"/>
  <path class="st0" d="M1565.98,1867.98l5.19,80.09c-5.57,7.52-58.66-5.06-69.14-8.14-.66-3.05.32-4.65,1.88-7.06,4.79-7.39,20.17-19.11,27.13-26.87,8.77-9.77,20.32-27.16,28.91-35.09,1.96-1.81,2.83-3.66,6.04-2.93Z"/>
  <path class="st0" d="M2161.37,1541.39c-4.56,5.46-35.04,26.68-42.32,30.63-2.8,1.52-9.7,5.89-12.13,2.04l-4.91-92.08c12.8-1.18,19.05,14.72,26.9,22.09,10.85,10.19,26.78,18.66,35.01,30.85-.21,2.43-.97,4.58-2.54,6.47Z"/>
  <path class="st0" d="M2287.48,820.41l2.53.44c1.43,1.4,2.47,3.15,3.08,5.05,2.69,8.39-4.54,46.64-7.64,56.55-.92,2.95-1.85,5.67-4.5,7.55l-69.03-60.96c-.22-3.38,2.19-4.51,5.09-5.03,10.62-1.9,28.23.52,40.07.07,9.24-.35,20.91-2.72,30.4-3.66Z"/>
  <path class="st0" d="M1920,283.97c-3.07.32-5.79,2.09-8.97,2.08-15.6-.07-31.88-.96-48.02-.03-5.31.31-38.65,7.18-38.97.99l51.23-59.18c12.54-2.01,39.41,44.92,44.73,56.14Z"/>
  <path class="st0" d="M816.01,1763.98c22.94.02,46.08-.04,68.96-2.04,5.85-.51,25.12-7.86,25.1,1.04l-51.27,58.84c-9.21-2.01-14.27-11.13-19.58-18.07-3.49-4.57-26.48-36.66-23.21-39.77Z"/>
  <path class="st0" d="M1168.01,179.99l-3.72-79.71c3.68-5.91,65.46,5.1,68.78,9.65,2.2,3.02.38,3.09-1.03,5.1-5.84,8.34-19.54,18.59-27.07,26.93-7.69,8.52-21.85,29.36-28.84,35.16-2.7,2.24-4.3,3.54-8.12,2.86Z"/>
  <path class="st0" d="M574.64,506.6c4.56-5.38,41.26-30.55,48.03-32.99,2.09-.76,2-2.78,4.39.32l6.44,87.52c-.59,19.19-26.25-15.52-29.47-18.49-9.69-8.95-22.43-16.78-32.24-25.93l-.91-3.14c1.4-2.29,2.04-5.25,3.77-7.29Z"/>
  <path class="st0" d="M452.02,1157.99l71.97,62.96c-1.17,5.35-32.42,2.51-39.07,2.95-13.2.86-27.98,4.63-41.05,3.21-7.31-5.12,5.43-58.88,8.16-69.12Z"/>
  <path class="st0" d="M473.31,810.4c7.58-.71,14.17,12.1,18.64,16.64,5.73,5.83,40.9,39.15,41.77,42.28.71,2.58.63,4.12-1.66,5.72-9.3-.27-59.57,8.24-63.18,3.07-2.24-10.15.06-20.69-1.08-30.92-1.12-10.03-13.89-34.97,5.52-36.8Z"/>
  <path class="st0" d="M888,327.99c-5.07,5-27.45-19.03-31.98-23.02-4.52-3.99-20.1-12.65-20.09-17.98,0-2.16,17.69-21.19,20.89-25.17,6.16-7.68,17.19-34.69,30.1-19.75,6.2,7.18,1.08,10.89,1.08,14.93v71Z"/>
  <path class="st0" d="M669,1503.97l2.76,4.7c-5.78,6.49-37.76,47.34-42.77,47.38-7.07-4.53-12.94-12.56-20.04-18.04-5.75-4.44-23.61-13.02-25.93-18.07-4.07-8.85,0-17.92,10.23-17.88,2.98.01,5.16,1.9,5.74,1.9h70Z"/>
  <path class="st0" d="M2265.72,1170.28c1.06,6.15-.37,12.5.31,18.68,1.2,10.93,14.55,50.09-4.85,49.06-8.15-.43-25.72-24.92-32.39-31.83-8.88-9.2-22.37-17.32-28.69-28.97,1.35-8.29,29.42-4.79,36.87-5.26,5.32-.33,25.93-6.1,28.75-1.67Z"/>
  <path class="st0" d="M1217.82,1858.16c3.55,2.37,1.82,28.78,2.21,34.78.44,6.9,6.03,23.5,2.18,28.21-4.22,5.15-23.21,2.16-30.99,3.03-9.85,1.1-24.59,10.1-33.14,2.71-13.62-11.78,11.41-25.5,18.98-32.87,11.42-11.11,23.27-22.31,32.96-35.04,1.88-1.12,6.23-1.88,7.81-.82Z"/>
  <path class="st0" d="M2151.51,543.51c-7.33,7.31-70.23-4.78-84.25,2.32-3.05-1.32-3.67-3.72-3.33-6.76.65-5.92,28.29-27.82,31.05-37.1l11.75-9.83c6.7,5.03,11.87,12.65,18.32,17.81,7.68,6.14,39.5,20.58,26.47,33.57Z"/>
  <path class="st0" d="M1559.46,120.47c9.08-1.34,18.09-2.47,21.73,7.47l-.64,5.45c-19.08,17.57-36.38,37.21-54.85,55.31-5.83,5.72-8.95,4.35-9.82-3.6-.82-7.45-4.65-54.87-3.01-57.24,10.98-2.88,24.15-2.58,35.93-4.06,3.93-.49,7.22-2.83,10.65-3.34Z"/>
  <path class="st0" d="M1865.44,1807.39c-3.28,2.71-10,3.39-14.02,2.21-10.65-3.13-3.48-29.9-3.32-38.54.2-11.29.33-22.9,0-34.18-.19-6.48-6-24.56,8-14,14.76,11.13,29.07,26.61,43.76,38.36.31,1.78-19.51,22.7-22.71,26.86s-8.37,16.54-11.69,19.28Z"/>
  <path class="st0" d="M1959.99,816c-8.44,21.16-14.29,43.23-16,66-6.01.99-9.43-4.26-13.01-7.99-14.84-15.43-26.69-34.88-40.92-50.96.36-3.01,1.63-6.07,4.07-7.95,10.93-8.44,51.21,2.31,65.87.9Z"/>
  <path class="st0" d="M1575.99,1615.97l-65.98-17.06,2.86-7.07c8.89-3.99,52.14-45.01,56.11-45.34,19.71-1.65,6,58.44,7.02,69.48Z"/>
  <path class="st0" d="M1160.99,432.04c6.83,7.97,64.72,15.14,64.96,18.94-1.64,2.44-2.85,4.87-4.95,7.02-10.21,10.51-33.55,28.08-46.07,37.93-2.32,1.83-7.38,6.07-9.97,6.08-5.57-1.42-8.36-5.47-9.07-10.91-1.49-11.37.14-42.37,2.09-54.11.39-2.34,1.06-3.57,3-4.94Z"/>
  <path class="st0" d="M795,1166.02l49.97,57.88c1.06,2.78-1.64,8.19-4.13,9.94-5.75,4.05-61.48,1.6-63.97-1.79,3.21-16.08,9.18-31.49,12.62-47.56,1.46-6.84-1.78-13.97,5.5-18.46Z"/>
  <path class="st0" d="M1931.99,1297.95c-10.69-1.76-53.72,32.65-56.95,32.03-3.47-.66-3.27-8.24-3.18-11.03.73-21.68,6.88-45.02,7.01-67.1,4.61-3.34,11.48-2.72,16.24.02,11.22,6.46,24.59,31.48,35.9,40.1l.98,5.97Z"/>
  <path class="st0" d="M855.66,797.62c-2.44,1.33-5.76,2.55-8.53,2.32-11.6-.96-36.39-37.48-45.08-46.96,19.9-10.25,40.15-19.92,56.97-34.94,4.23.2,3.25,18.98,3.07,23.03-.8,17.88-5.57,38.27-6.43,56.54Z"/>
  <path class="st0" d="M1672.01,519.98l-76.67-5.91c-2.52-.59-3.73-8.49-3.4-10.98.81-6.04,43.31-43.98,47.03-43.1,6.96,12.96,13.69,26.11,21.39,38.65,4.17,6.79,13.31,11.71,11.65,21.34Z"/>
  <path class="st0" d="M1062.01,1529.98c2.87-2.78,70.34,4.47,79.1,7.87,1.42,2.02,1.35,6.54.89,9.05-1.8,9.62-36.76,34.7-44.99,43.04-7.63-11.38-12.96-24.17-20.16-35.81-2.44-3.95-17.65-21.42-14.83-24.15Z"/>
  <path class="st0" d="M1345.71,1380.24l-.6,5.85c-1.09,1.11-2.59,1.43-3.94,2.06-2.08.97-42.1,11.67-44.4,11.79s-4.45.24-5.91-1.85c1.53-29.43,6.4-58.73-.85-88.11,9.36,8.66,14.74,21.87,22.35,32.63,9,12.72,20.51,29.17,33.34,37.63Z"/>
  <path class="st0" d="M1627.97,875.98c-5.09.81-4.22-.86-4-4.99,1.05-19.17,10.56-45.44,12.11-67.91.31-4.5-2.73-18.54.96-19.09,7.5,3.13,49.81,24.77,48.81,30.72-19.81,19.83-47.88,33.54-57.87,61.27Z"/>
  <path class="st0" d="M1081.99,945.99c1.15,5.1-1.37,3.5-3.75,5.17-18.03,12.69-48.98,28.98-63.33,44.74-2.25,2.48-3.17,4.73-2.93,8.08-3.48.62-6.3-2.58-7.74-5.25-1.04-1.93-11.41-38.95-11.86-42.27-1.45-10.59,6.19-9.01,14.7-8.57,26.01,1.35,48.33,8.11,74.91-1.91Z"/>
  <path class="st0" d="M1161.4,708.63c8.64,7.38,18.6,26.45,27.52,35.44s22.41,14.51,31.08,23.9c-24.44-3.41-48.2-10.27-72.91-12.06-8.44-.61-21.87,5.62-18.67-6.47l26.87-43.11c2.33-.11,4.38.81,6.11,2.29Z"/>
  <path class="st0" d="M1729.9,1046.05c-.48,9.13,17.06,50.17,10.23,55.08-3.33,2.39-28.5-2.9-35.05-3.23-17.64-.89-33.88.81-51.07,4.07-1.15-5.11,1.38-3.49,3.75-5.17,21.13-14.94,41.98-26.37,62.36-43.73,4.01-3.42,2.6-9.02,9.77-7.02Z"/>
  <path class="st0" d="M1444.01,649.98c2.13,2.09-4.26,45.18-4.13,53.08.2,11.86,5.37,23.2,5.1,34.95-8.7-5.24-12.46-17.6-18.16-25.84-10.79-15.61-23.87-33.79-38.84-45.2-.13-4.24,4.44-5.25,7.55-6.45,5.38-2.08,46.7-12.28,48.48-10.54Z"/>
  <path class="st0" d="M1111.99,1171.99c-2.4,15.25-7.28,29.98-9.72,45.26-2.32,14.57-5.21,32.68-2.28,46.72-1.62.06-3.26.17-4.89-.07-2.33-.34-37.87-20.51-41.01-22.99-2.55-2.02-4.92-3.71-3.87-7.52,13.65-14.52,32.13-23.89,44.61-39.57,1.83-2.3,14.24-25.19,17.16-21.82Z"/>
  <path class="st0" d="M1516.01,1279.99l92,15.03-24.25,43.7c-.96,2.02-2.32,3.38-4.73,3.37-6.71-.03-28.47-32.96-34.95-39.19-6.5-6.26-16.51-10.89-23.52-16.48-2.36-1.88-5.48-2.27-4.55-6.43Z"/>
  <path class="st0" d="M1929.55,570.39c4.62,8.21-3.84,7.37-7.85,10.26-5.19,3.74-11.88,9.14-16.65,13.39-4.46,3.98-15.05,17.71-17,19-8.88,5.87-5.58-21.43-6.08-26.02-1.15-10.4-5.92-24.54-6.02-34.13-.06-6.12,2.81-23.98,11.98-19.98,3.21,1.4,19.51,19.8,24.04,24.1,2.66,2.53,17.04,12.41,17.58,13.37Z"/>
  <path class="st0" d="M851.99,1435.97c-2.94,15.27,12.91,68.1,3.06,78.04-1.83,1.85-3.38,2.34-5.95,2.06-6.3-.67-33.08-33.92-43.04-37.15-7.11-7.97,4.33-8,9.82-12.08,11.97-8.88,20.23-20.96,30.04-29.51,2.25-1.96,3.3-1.5,6.08-1.36Z"/>
  <path class="st0" d="M919.91,462.07c4.85,11.89,16.03,24.4,25,34.02,4.32,4.63,12.58,5.71,11.09,13.9-18.05-5.59-63.88,12.96-77.12,2.16-10.43-8.51,10.18-19.51,16.16-26.12,3.73-4.12,18.84-28.26,24.89-23.95Z"/>
  <path class="st0" d="M1778.01,1539.98c18.34,3.25,63.96-13.1,77.93-2.95,11.13,8.08-10.74,20.07-16.96,26.92-3.72,4.1-16.91,25.22-21.94,24.03-7.47-11.87-16.22-23.95-25.94-34.1-1.8-1.88-16.5-10.85-13.08-13.9Z"/>
  <path class="st0" d="M1292.01,1679.98c2.29-2.58,16.45,13.82,19.05,15.93,8.55,6.95,47.77,28.47,38.08,42.2l-61.21,2.93,4.05-32.09.03-28.97Z"/>
  <path class="st0" d="M711.99,947.99l-43.95,55.02c-4.68,4.91-9.75,6.08-15.76,2.66,1.63-20.11-3.94-41.64-.35-60.85,19.96,2.95,40.04,5.82,60.05,3.17Z"/>
  <path class="st0" d="M1443.99,367.98c-3.83,3.97-17.56-13.21-21.03-15.95-10.61-8.36-34.8-20.6-38.13-34.04-3.88-15.68,16.72-7.66,24.17-7.82,6.22-.13,34.59-4.96,37.05-3.28,4.14,5.05-1.2,12.24-1.84,18.3-1.5,14.33-1.71,28.58-.22,42.78Z"/>
  <path class="st0" d="M2081.72,1042.27c4.92,3.08-.05,19.42.11,24.7.34,11.29,3.22,25.46,4.18,37l-61.99-4,30.03-40.95c6.13-5.61,18.12-22.73,27.67-16.75Z"/>
  <path class="st0" d="M1689.4,268.2c2.42-.89,3.85.73,5.73,1.62,4.2,1.99,28.62,17.36,31.89,20.16,4.26,3.65,6.34,6.68,4.66,12.61-9.94,12.64-26.99,9.82-40.36,17.72-9.57,5.66-16.07,16.36-24.32,23.64-10.79.24,9.86-35.38,11.08-38.88,3.71-10.66,3.63-22.55,6.35-31.65.74-2.47,2.65-4.22,4.97-5.23Z"/>
  <path class="st0" d="M2121.51,1342.48c1.75,1.71,2.38,5.15,1.67,7.56-.47,1.61-15.5,25.85-17.5,28.61-22.75,31.28-25.55-14.72-32.79-28.56-4.01-7.66-24.99-24.17-24.84-27.13.13-2.42,4.05-2.85,6.48-2.58,8.17.9,25.96,12.22,36.44,15.63,5.14,1.67,11.85,3.91,16.96,5.06,4.09.92,9.52-2.56,13.58,1.41Z"/>
  <path class="st0" d="M1067.03,1705.98l4.95,3.08c-3.41,13.07-11.9,24.68-16.08,37.81-3.46,10.87-3.08,22.81-7.87,32.17-2.98,1.85-5.02.95-7.94-.12-3.67-1.35-36.04-22.54-37.15-25.03-6.96-15.66,31.39-19.62,39.77-24.21,9.34-5.12,16.2-16.84,24.33-23.7Z"/>
  <path class="st0" d="M673,1293.98l2.02,4c-2.29,5.06-45.76,19.09-55.56,25.93-3.59,2.5-6.11,13.45-14.67,6.26-2.38-2-12.82-43.95-9.92-50.32,12.51-10.87,37.46,14.13,44.12,14.13h34Z"/>
  <path class="st0" d="M1643.66,1718.33c1.71,1,11.22,31.37,13.99,36.99,2.13,4.33,6.88,12.31,9.57,16.43,3.25,4.98,14.69,9.4,3.39,17.84-10.84-1.9-43.87,15.98-49.65,4.38-5.39-10.83,13.78-32.41,16.14-45.89,1.95-11.15-.23-19.24-1.09-30.11,2.37.28,5.73-.77,7.65.35Z"/>
  <path class="st0" d="M1098,331.99c-4.29.5-5.3.23-7.77-3.23-3.88-5.44-7.03-21.66-10.52-29.48-2.85-6.38-8.26-16.13-12.02-22.07-2.1-3.32-14.89-10.71-4.35-16.89,4.84-2.84,44.44-10.49,48.79-7.45,11.95,8.36-14.12,37.16-14.12,44.12v35Z"/>
  <path class="st0" d="M2117.36,723.31c3.89-2.6,9.37-14.52,15.13-.8,2.61,6.22,8.43,36.18,7.61,42.58-.27,2.12.05,4.62-1.96,6.04-17.79,3.7-29.51-13.36-46.03-16.25-7.41-1.29-31.12,2.66-32.1-1.93-1.6-7.46,27.4-13.99,33.34-16.61,6.74-2.97,17.96-8.99,24-13.03Z"/>
  <path class="st0" d="M685.99,727.98c-4.06,3.93-33.3-12.85-39.99-14.99-7.05-2.25-30.92-4.72-33.1-9.02-1.6-3.16-.54-4.56.63-7.38,1.77-4.29,21.67-34.29,24.52-35.61,15.87-7.34,18.95,26.3,22.85,35.11,1.63,3.67,5.4,8.79,8.08,11.92,3.27,3.83,21.11,16,17.01,19.97Z"/>
</svg>