<?xml version="1.0" encoding="UTF-8"?>
<svg id="Layer_0_xA0_Image" xmlns="http://www.w3.org/2000/svg" version="1.1" viewBox="0 0 2732 2048">
  <!-- Generator: Adobe Illustrator 30.2.1, SVG Export Plug-In . SVG Version: 2.1.1 Build 1)  -->
  <defs>
    <style>
      .st0 {
        fill: #00afe8;
      }
    </style>
  </defs>
  <path class="st0" d="M1393.02,1522.88v-48.3c2.4-.76,4.52-1.7,6.74-2.1,35.87-6.44,68.1-21.08,95.89-44.49,20.79-17.52,36.83-39.15,50.7-62.64,24.28-41.12,29.34-84.81,21.16-131.15-4.11-23.29-10.44-45.93-23.66-65.23-30.67-44.78-66.1-84.86-119.58-103.48-9.35-3.26-19.26-5.17-29.06-6.76-10.95-1.78-11-1.32-11.25-12.87-.38-16.99-.77-33.99-1.22-50.98-.09-3.26-.45-6.5-.73-10.31h-29.31c-.21,3.26-.52,6.46-.6,9.65-.44,17.99-.72,35.99-1.26,53.98-.28,9.3-.46,9.56-9.59,10.22-19.02,1.38-36.36,8.03-53,16.7-22.37,11.67-42.33,26.7-58.92,45.73-12.69,14.56-25.74,29.09-36.21,45.2-10.06,15.47-18.19,32.25-22.12,50.97-6.14,29.28-9.65,58.54-5.12,88.28,1.24,8.16,3.66,16.26,6.44,24.06,12.75,35.79,33.14,66.81,60.57,92.97,21.83,20.83,47.98,34.66,76.64,43.68,10.42,3.28,21.12,5.68,32.23,8.62v47.8c-4.62.34-9.33,1.75-13.55.84-42.23-9.05-83.38-20.79-118.38-47.93-26.77-20.76-45.01-48.15-60.04-77.69-17.77-34.94-30.25-71.87-34.52-111.06-2.83-26.02.19-51.79,5.44-77.38,7.97-38.88,26.3-72.25,52.05-102.1,23.91-27.72,51.79-50.89,81.03-72.53,7.69-5.69,16.56-9.8,26.36-15.48-3.02-125.88-6.07-252.96-9.16-381.75,5.13,1.27,8.89,1.36,11.72,3.03,18.95,11.2,39.37,15.01,61.18,14.26,25.29-.87,50.61-.68,75.92-1.16,2.86-.05,5.84-1.16,8.52-2.32,7.94-3.45,15.7-7.33,23.66-10.73,3.17-1.35,6.69-1.86,11.58-3.16.77,26.74-1.23,51.91-1.54,77.09-.3,25.33-1.17,50.65-1.8,75.97-.63,25.66-1.28,51.31-1.91,76.97-.62,25.32-1.28,50.65-1.85,75.97-.57,25.31-1.05,50.62-1.58,76.45,2.31,1.19,4.66,2.32,6.93,3.59,6.1,3.41,12.57,6.33,18.17,10.43,33.45,24.48,64.91,51.15,90.91,83.77,26.22,32.9,41.35,70.42,47.13,111.89,5.19,37.21,2.05,73.51-9.46,109.49-10.85,33.91-24.97,65.95-45.23,95.31-21.65,31.37-49.94,54.3-85.45,68.08-22.05,8.55-44.37,16.49-67.8,20.46-5.1.86-10.46.13-17.07.13Z"/>
  <path class="st0" d="M1251.45,764.83c-3.38-1.37-6.15-2.19-8.63-3.54-39.19-21.35-78.4-42.68-117.45-64.28-4.24-2.35-8.02-5.94-11.25-9.62-29.03-33.04-58.03-66.11-86.68-99.49-4.8-5.59-9.57-7.8-16.96-7.8-185.94,0-371.88-.2-557.82-.49-103.3-.16-206.6-.65-309.9-.63-7.21,0-11.32-3.13-16.15-7.43-21.92-19.47-44.2-38.54-66.35-57.76-9.31-8.08-18.65-16.13-27.9-24.28-2.35-2.07-4.4-4.48-6.58-6.74.25-.78.5-1.56.75-2.33,3.38-.36,6.76-1.03,10.14-1.04,41.99-.03,83.97.04,125.96.07,312.9.23,625.8.46,938.7.7,2,0,4.03.24,5.99-.04,7.03-1,11.44,1.63,15.54,7.74,14.67,21.84,29.98,43.26,45.28,64.68,3.05,4.27,6.75,8.26,10.77,11.64,21.4,18.04,42.91,35.95,64.59,53.66,5.02,4.1,7.71,8.44,7.74,15.17.22,41.65.8,83.3,1.2,124.95.02,1.87-.53,3.75-.99,6.85Z"/>
  <path class="st0" d="M1483.02,765.38c-.25-5.2-.54-8.08-.51-10.96.51-40.32,1.21-80.63,1.46-120.95.04-6.73,2.42-11.12,7.48-15.24,21.19-17.25,42.23-34.69,63.08-52.35,5.01-4.25,9.62-9.23,13.46-14.56,14.99-20.82,29.82-41.76,44.21-63,4.01-5.91,8.35-8.1,15.46-8.09,110.63.13,221.27-.01,331.9-.09,245.93-.18,491.85-.35,737.78-.53,3.27,0,6.53,0,9.32,0,2.62,5.43-1.22,6.98-3.51,9-11.5,10.13-23.18,20.06-34.7,30.18-21.76,19.12-43.34,38.44-65.3,57.32-2.33,2.01-6.72,2.24-10.16,2.26-37.32.21-74.64.22-111.97.28-251.59.45-503.18.94-754.77,1.15-8.84,0-14.63,2.7-20.3,9.32-28.17,32.91-56.72,65.49-85.36,97.99-3.65,4.15-8.16,7.93-12.98,10.6-37.88,20.97-75.94,41.64-113.95,62.37-2.84,1.55-5.8,2.9-10.64,5.3Z"/>
  <path class="st0" d="M2449.59,728.59c-1.6,1.99-3.02,4.16-4.82,5.93-30.9,30.36-61.87,60.65-92.74,91.04-3.05,3-6.09,4.2-10.53,4.15-153.61-1.58-307.23-2.96-460.85-4.4-35.65-.33-71.31-.73-106.96-1.19-3.76-.05-7.5-.71-13.39-1.3,2.96-4.1,4.39-6.57,6.27-8.63,25.41-27.79,50.99-55.42,76.25-83.35,3.88-4.29,8.07-5.05,13.26-5.04,40.99.1,81.98.07,122.97.09,153.29.05,306.58.09,459.87.14,3.21,0,6.43,0,9.64,0l1.05,2.56Z"/>
  <path class="st0" d="M286.84,726.03c3.29,0,6.58,0,9.88,0,192.23-.06,384.46-.06,576.69-.38,9.74-.02,16.61,2.48,23.21,9.93,22.98,25.92,46.72,51.17,70.07,76.77,2.48,2.71,4.3,6.02,7.73,10.9-6.58.41-10.74.86-14.89.9-96.61.9-193.22,1.72-289.83,2.64-91.94.88-183.89,1.81-275.83,2.91-4.75.06-8.06-1.17-11.4-4.47-30.34-29.96-60.85-59.75-91.26-89.65-2.19-2.15-3.96-4.71-5.93-7.08l1.57-2.46Z"/>
  <path class="st0" d="M159.16,608.72h664.42c2.53,6.02,4.47,11.84,7.31,17.17,10.03,18.82,20.3,37.5,30.62,56.16,3,5.43,6.47,10.61,10.02,16.38-2.64,3.46-6.95,1.87-10.57,1.9-33.66.22-67.33.23-100.99.32-165.98.45-331.97.83-497.95,1.59-9.09.04-15.21-2.46-21.53-8.96-25.78-26.53-52.21-52.42-78.31-78.62-1.21-1.21-1.65-3.18-3.01-5.93Z"/>
  <path class="st0" d="M1909.96,608.71h665.38c-1,2.39-1.31,4.64-2.58,5.92-25.84,25.97-52.04,51.59-77.57,77.86-6.75,6.94-13.26,9.87-23.2,9.8-89.94-.64-179.89-.56-269.83-.81-109.6-.3-219.19-.71-328.79-1.12-3.41-.01-6.81-.53-11.07-.89,13.78-18.33,46.98-81.69,47.66-90.76Z"/>
  <path class="st0" d="M1562.72,1296.7c-16.44,12.77-32.14,24.98-48.69,37.84-3.13-3.33-6.07-5.9-8.36-8.96-16.93-22.71-33.72-45.52-50.58-68.29-1.95-2.64-4.05-5.18-6.7-8.55-5.04,3.99-9.7,7.63-14.3,11.34-4.36,3.51-8.65,7.1-13.52,11.11,18.44,28.58,36.45,56.49,55.07,85.35-44.58,34.37-88.46,68.2-133.5,102.93-13.31-19.43-25.94-37.71-38.33-56.16-1.37-2.04-1.39-4.97-2.25-8.29,27.4-18.04,54.58-35.93,82.61-54.39-7.31-10.01-14.12-19.35-21.63-29.65-28.3,20.14-56.13,39.94-85.1,60.56-30.53-46.21-60.37-92.5-90.72-139,2.49-2.15,4.05-3.81,5.9-5.04,11.93-7.93,23.9-15.81,35.91-23.62,8.12-5.28,9.6-5.08,15.43,2.89,15.35,20.98,30.55,42.06,45.84,63.08,1.93,2.65,4,5.2,6.62,8.58,9.27-7.07,18.14-13.83,27.44-20.93-18.43-27.95-36.35-55.13-54.91-83.28,46.65-33.36,92.58-66.2,139.43-99.7,11.17,16.82,21.78,32.78,33.09,49.8-2.57,2.14-5.12,4.56-7.95,6.58-21.45,15.26-42.96,30.44-64.43,45.67-2.66,1.89-5.22,3.93-8.35,6.3,7.67,11.76,14.91,22.86,22.64,34.71,2.89-1.81,5.4-3.19,7.7-4.86,22.39-16.23,44.75-32.52,67.12-48.79,1.89-1.37,3.84-2.66,5.65-4.12,3.89-3.13,7.24-2.89,10.06,1.4.92,1.39,1.84,2.78,2.76,4.17,26.94,40.91,53.89,81.81,80.81,122.73,1.78,2.7,3.36,5.53,5.23,8.6Z"/>
  <path class="st0" d="M1493.02,486.64c-5.47-5.83-10.19-9.61-13.31-14.42-7.85-12.11-17.77-15.42-32.01-12.32-16.47,3.59-33.47,4.73-51.81,7.13,20.93,48.49,41.43,95.99,62.13,143.93-2.25.97-3.94,1.99-5.77,2.45-22.59,5.74-45.21,11.35-67.79,17.11-4.17,1.06-8.15,2.85-12.32,3.9-2.5.63-5.39,1.19-7.78.56-28.31-7.39-56.56-15.01-84.82-22.58-.31-.08-.57-.32-2.12-1.23,1.14-4.22,2.09-8.95,3.68-13.45,14.59-41.46,29.3-82.88,43.96-124.31,7.77-21.97,15.67-43.9,23.19-65.96,1.89-5.56,4.62-7.81,10.75-7.76,43.98.4,87.96.42,131.94.6,1.92,0,3.84.37,6.94.69.31,25.95-.32,51.47-1.4,76.98-.09,2.11-1.6,4.16-3.44,8.67Z"/>
  <path class="st0" d="M1095.74,706.5c-3.05,6-83.65,93.1-93.69,100.86-2-1.87-4.28-3.69-6.21-5.83-28.93-32.19-57.92-64.33-86.6-96.75-3.85-4.35-6.21-10.06-9.09-15.23-13.29-23.84-26.53-47.7-39.75-71.58-1.51-2.73-2.73-5.61-4.54-9.34,3.15-.29,4.72-.6,6.28-.56,46.93,1.03,93.86,2.21,140.8,3.02,6.55.11,11.03,2.11,15.31,7.17,21.68,25.7,43.7,51.12,65.72,76.54,3.58,4.14,7.78,7.75,11.79,11.7Z"/>
  <path class="st0" d="M1733.61,809.72c-33.44-35.79-64.52-69.04-95.3-101.97,5.81-6.09,11.18-11.27,16.05-16.89,21.15-24.4,42.22-48.88,63.16-73.47,3.48-4.09,7.12-6.14,12.7-6.24,48.27-.88,96.53-2.06,144.79-3.12.63-.01,1.26.33,3.35.91-1.04,2.64-1.76,5.28-3.04,7.6-13.18,23.9-26.86,47.53-39.5,71.71-5.48,10.47-12.4,19.47-20.22,28.12-25.01,27.66-49.85,55.47-74.68,83.29-2.41,2.7-4.3,5.88-7.31,10.06Z"/>
  <path class="st0" d="M1114.62,883.11c-30.08-18.87-59.82-37.53-90.49-56.77,2.53-3.54,3.99-6.04,5.87-8.17,26.96-30.43,53.97-60.83,81.01-91.2,6.1-6.85,6.22-6.86,13.88-1.79,18.56,12.28,37.06,24.63,55.4,36.82-1.69,7.76-57.23,110.49-65.68,121.11Z"/>
  <path class="st0" d="M1619.52,883.26c-22.78-40.29-43.92-80.07-65.99-120.13,21.34-14.19,42.03-27.94,62.49-41.54,7.06,4.01,88.62,95.34,93.62,105.08-29.58,18.58-59.27,37.22-90.12,56.59Z"/>
  <path class="st0" d="M1480.46,794.52c16.43-7.43,33.33-15.07,50.73-22.94,1.58,1.99,3.25,3.58,4.3,5.51,19.3,35.4,38.56,70.81,57.73,106.28,4.26,7.89,3.67,9.58-4.39,12.58-34.66,12.88-69.36,25.64-104.06,38.39-1.81.66-3.77.92-7.03,1.69-.44-3.96-1.24-7.37-1.14-10.75,1.2-37.98,2.56-75.95,3.82-113.93.17-5.27.02-10.54.02-16.84Z"/>
  <path class="st0" d="M1203.46,771.48c17.44,7.87,34.62,15.62,51.32,23.15,0,11.73-.27,22.32.05,32.89.98,32.3,2.22,64.6,3.29,96.9.12,3.5-.2,7.01-.37,11.78-4.21-1.09-7.07-1.58-9.75-2.56-33.74-12.44-67.47-24.91-101.17-37.46-8.71-3.24-9.37-4.87-4.89-13.16,19.16-35.46,38.43-70.86,57.7-106.25.92-1.69,2.26-3.15,3.82-5.29Z"/>
</svg>