<?xml version="1.0" encoding="UTF-8"?>
<svg id="Layer_1" xmlns="http://www.w3.org/2000/svg" version="1.1" viewBox="0 0 1190.55 841.89">
  <!-- Generator: Adobe Illustrator 30.2.1, SVG Export Plug-In . SVG Version: 2.1.1 Build 1)  -->
  <defs>
    <style>
      .st0 {
        fill: #bd70ae;
      }
    </style>
  </defs>
  <path class="st0" d="M1090.21,0c3.87.69,7.72,1.5,11.6,2.05,13.67,1.95,27.35,3.86,41.04,5.68,2.82.37,5.69.3,8.93.46-.29,1.22-.36,2.14-.72,2.92-3.29,6.93-4.88,14.31-4.82,21.88.09,12.45.71,24.89,1.1,37.33.17,5.33.58,10.67.46,16-.25,10.38-5.46,16.09-15.68,17.03-7.54.7-15.06.08-22.34-2.15-10.12-3.11-14.62-9.15-14.55-19.67.03-4.1.64-8.19.71-12.28.05-2.98-.12-6.02-.63-8.96-.72-4.1-3.39-6.76-7.24-8.25-1.02-.39-2.05-.79-3.11-1.04-5.97-1.41-9.31-5.37-10.92-11.08-1.61-5.69-2.82-11.47-2.55-17.39.29-6.42-2.54-10.67-8.09-13.5-3.01-1.54-5.91-3.28-9.69-5.39,1.69-.51,2.49-.71,3.27-1C1062.67.56,1068.78,1.27,1074.59,0h15.62Z"/>
  <path class="st0" d="M972.38,428.54c-1.07-.24-1.73-.33-2.36-.53-7.42-2.37-14.8-4.88-22.27-7.08-5.81-1.71-11.46-3.71-16.68-6.81-8.36-4.96-16.74-9.87-25.01-14.99-2.66-1.64-5.14-3.66-7.38-5.85-3.22-3.13-3.54-6.08-1.61-10.07.59-1.23,1.28-2.42,1.93-3.62,1.88-3.46,1.71-6.89-.47-10.1-1.61-2.37-3.54-4.53-5.23-6.85-2.1-2.87-4.28-5.7-6.09-8.74-2.22-3.71-2.46-7.77-1.03-11.88.49-1.42,1.02-2.84,1.42-4.29,1.04-3.7.88-7.31-.95-10.77-.26-.48-.45-1.01-.77-1.45-6.87-9.23-9.1-20.39-12.88-30.9-2.77-7.72-2.58-15.5-.36-23.41,2.15-7.63,3.99-15.36,5.65-23.11,1.83-8.53.97-16.86-2.72-24.87-2.23-4.85-4.15-9.84-6.28-14.73-2.08-4.78-1.74-9.01,2.38-12.64,4.06-3.57,4.85-8.27,4.77-13.43-.34-22.46-.42-44.92-.84-67.38-.15-8,1.24-15.45,4.96-22.57,3.1-5.94,4.84-12.31,3.23-19.03-.55-2.28-1.85-4.58-3.4-6.37-1.77-2.05-4.03-1.64-5.41.77-.93,1.63-1.63,3.51-1.94,5.35-1.43,8.64-2.78,17.29-3.98,25.97-1.84,13.28-2.78,26.7-6.59,39.65-1.93,6.56-3.96,13.1-5.85,19.67-1.76,6.09-2.46,12.31-2.51,18.66-.06,7.39-.16,14.79-.73,22.15-.31,4.05-1.41,8.08-2.51,12.02-1.13,4.06-3.93,6.48-8.28,6.85-1.09.09-2.19.36-3.26.3-11.77-.69-22.76,2.63-33.65,6.44-4.26,1.49-8.4,3.33-12.67,4.79-2.17.74-4.49,1.3-6.77,1.43-3.74.22-6.02-1.47-6.77-5.18-.56-2.78-.74-5.71-.58-8.55.95-16.4,2.23-32.79,3.06-49.2.72-14.22.9-28.47,1.52-42.69.51-11.8,2.14-23.48,5.57-34.79,1.66-5.46,4.05-10.75,6.59-15.87,3.28-6.62,7.02-13.01,10.62-19.47,2.51-4.5,4.02-9.29,4.37-14.42.41-6.17,3.19-10.77,8.32-14.33,10.89-7.56,22.77-13.06,35.14-17.63,6.92-2.56,13.66-2.06,19.6,2.19,7.55,5.41,14.85,11.21,21.99,17.16,4.06,3.38,6.69,7.94,8.15,13.08,1.95,6.87,5.73,12.71,10.37,17.99,6.63,7.53,12.66,15.48,17.55,24.25.4.72.89,1.38,1.31,2.09,2.84,4.79,7.12,6.39,12.54,6.04,3.66-.24,7.39-.3,11.02.15,5.46.69,8.91,4.16,10.16,9.42.79,3.3,1.24,6.77,1.2,10.15-.11,9.45-.05,18.94-1.01,28.32-.94,9.23-2.98,18.35-4.65,27.5-4.05,22.1-5.07,44.26-2.42,66.64,1.5,12.63,2,25.38,2.94,38.08.23,3.14.39,6.29.66,9.43.08.93.19,1.99.68,2.73,2.74,4.16,3.15,8.97,4.14,13.65,1.19,5.61,2.69,11.15,4.07,16.71,1.48,5.97,3.23,11.88,4.38,17.91,1.54,8.07.03,16.11-1.24,24.09-1.18,7.48-1.16,14.92-.83,22.49.66,15.03,1.16,30.12-1.19,45.1-.22,1.43-.73,2.81-1.14,4.37Z"/>
  <path class="st0" d="M994.93,568.41c-.93,17.24,1.36,34.2,5.2,50.92,3.06,13.37,5.04,26.89,7.03,40.43,2.65,18.05,6.78,35.75,12.89,52.98,2.35,6.64,5.45,12.85,9.85,18.38.85,1.07,1.59,2.23,2.35,3.37,2.91,4.38,3.07,9,.96,13.69-3.54,7.89-9.29,13.51-17.55,16.27-4.8,1.6-9.67,3.05-14.58,4.24-11.45,2.79-21.36,8.34-30.14,16.07-2.26,1.99-4.43,4.1-6.81,5.95-2.04,1.58-4.18,3.16-6.52,4.21-5.02,2.25-8.78.66-10.99-4.41-.7-1.62-1.21-3.36-1.58-5.09-6.12-28.13-14.69-55.55-23.97-82.77-7.59-22.25-12.2-45.18-15.07-68.45-1.41-11.41-1.89-22.92-3.21-34.34-.83-7.19-2.49-14.27-3.64-21.43-.43-2.69-.66-5.44-.65-8.16.03-4.38,2.44-7.28,6.56-8.38,2.88-.77,5.92-1.17,8.9-1.28,14.83-.52,29.02-3.64,42.49-9.94,5.58-2.61,11.23-5.07,16.86-7.58,2-.89,3.99-1.82,6.05-2.55,9.63-3.41,15.21.38,15.61,10.61.11,2.87-.03,5.75-.05,8.63-.01,2.88,0,5.75,0,8.63Z"/>
  <path class="st0" d="M1097.53,480.84c-.86,4.53-1.54,8.7-2.47,12.8-.73,3.19-1.39,6.49-2.74,9.44-4.4,9.62-4.77,19.68-3.23,29.81,2.03,13.39,4.44,26.72,7.01,40.02,5.05,26.21,10.32,52.37,15.49,78.55,1.48,7.51,3.21,14.99,4.33,22.56.61,4.15.17,8.46.21,12.7.07,6.71.08,13.41.26,20.11.13,5.07,2.38,9.19,6.14,12.55,1.33,1.18,2.74,2.34,3.77,3.76.94,1.28,1.72,2.84,2.02,4.38.5,2.54-.68,4.3-3.2,4.89-2.24.53-4.58.86-6.89.9-5.07.08-10.14.03-15.21-.16-7.69-.29-14.58,1.82-20.8,6.35-6.59,4.8-13.81,8.35-21.67,10.59-10.72,3.04-15.24.62-19.43-9.77-1.62-4.02-3.61-8.06-6.26-11.45-5.45-6.96-8.86-14.72-11.08-23.16-4.91-18.7-8.27-37.71-10.76-56.85-1.85-14.25-2.74-28.62-4.31-42.91-1.89-17.28-4.08-34.53-6.07-51.81-.56-4.89-1.04-9.8-1.29-14.72-.26-5.24,2.21-8.97,7.11-10.86,12.62-4.88,24.56-11.44,37.83-14.72,8.5-2.1,15.98-6.38,22.49-12.3,2.64-2.4,5.48-4.56,8.08-6.99,6.06-5.68,13.15-9.77,20.65-13.71Z"/>
  <path class="st0" d="M1063.4,200.03c5.13,2.43,6.05,6.85,6.04,11.47,0,4.09-.43,8.2-.95,12.27-.86,6.72-.89,13.33.85,19.96,1.64,6.26,1.79,12.64,1.53,19.14-.61,15.87-.85,31.75-1.02,47.63-.07,6.07,1.61,11.91,3.55,17.64,2.02,5.99,3.53,12.09,3.69,18.45.04,1.5.3,3.14-.17,4.49-1.72,4.93-.59,9.45.91,14.24,2.09,6.64,1.15,13.57.7,20.4-.29,4.37-.47,8.74-.74,13.11-.41,6.55-.98,13.1-1.26,19.66-.26,6.29-.17,12.59-.35,18.88-.1,3.27-.11,6.6-.76,9.78-1.24,6.07-5.18,8.87-11.33,8.11-3.37-.42-6.74-1.25-9.97-2.32-10.91-3.62-21.88-7.01-33.13-9.48-7.16-1.58-13.56-5.05-19.91-8.59-3.15-1.75-4.61-4.32-3.8-7.83,1.32-5.76.91-11.39-.6-17.04-.64-2.38-.26-4.65,2.21-6.05,2.95-1.67,4.12-4.49,4.03-7.6-.08-2.95-.6-5.96-1.44-8.79-.34-1.16-1.92-2.43-3.15-2.73-1.87-.45-3,1.23-3.51,2.81-.7,2.2-1.39,4.49-1.47,6.76-.14,4.09.18,8.2.33,12.3.14,4.1.47,8.21.41,12.3-.06,3.94-1.47,7.51-4.14,10.47-1.44,1.6-3.21,2.67-5.46,2.06-2.25-.61-3.31-2.43-3.62-4.55-.34-2.28-.63-4.65-.41-6.93.83-8.6,1.18-17.11-.09-25.77-1.23-8.4-.51-16.89.68-25.37,2.76-19.7,2.29-39.26-3.21-58.6-2.5-8.8-4.38-17.79-6.09-26.78-1.67-8.82-.85-17.72.15-26.6.48-4.2.41-8.46.66-12.68.23-3.81.44-7.63.91-11.42.22-1.79,1.19-3.77,3.22-3.7,1.4.05,3.03,1.11,4.08,2.19,1.61,1.65,2.74,3.75,4.18,5.57,5.11,6.47,11.83,10.01,20.04,10.68,4.65.38,8.58-1.32,11.93-4.47,3.36-3.16,5.56-7.08,7.44-11.22,1.02-2.24,1.96-4.56,3.32-6.58,4.45-6.62,12.1-7.52,18.06-2.26,1.03.91,1.95,1.93,3.03,2.77,3.38,2.62,6.95,2.09,8.93-1.68,1.11-2.12,1.65-4.63,1.96-7.03.37-2.84.08-5.75.31-8.61.25-3.11.39-6.36,3.42-8.49Z"/>
  <path class="st0" d="M1152.03,454.06c-3.76,1.37-6.81,2.56-9.9,3.59-4.58,1.53-9.25,1.38-13.76-.07-8.59-2.77-17.15-5.67-25.62-8.79-5.25-1.94-7.3-5.21-6.71-10.88.52-5.02,1.62-9.99,2.63-14.94,2.54-12.49,2.71-25.07.93-37.61-2.47-17.34-5.55-34.59-8.09-51.92-1.47-10.02-2.75-20.08-3.5-30.18-1.43-18.98-2.5-37.98-3.55-56.98-.68-12.35.62-24.61,2.1-36.86,1.19-9.79,1.8-19.63.57-29.5-.64-5.11-2.18-9.87-4.66-14.35-.79-1.44-1.56-2.89-2.3-4.36-1.34-2.64-1.45-5.32.29-7.79,2.48-3.52,2.33-7.14.83-10.93-1.06-2.67-2.12-5.34-3.11-8.04-1.58-4.28-2.44-8.68-2.14-13.28.48-7.57,4.71-11.48,12.33-11,2.57.16,5.18.68,7.63,1.47,8.78,2.82,17.67,3.4,26.78,2.07,2.96-.43,6.01-.27,9.02-.35.82-.02,1.65.04,2.46.18,5.14.84,9.58,2.86,11.42,8.13,1.83,5.24-.09,9.74-3.8,13.45-2.12,2.11-4.64,3.82-6.96,5.74-2.42,2.01-5.04,3.84-7.16,6.13-4.39,4.75-4.75,10.31-1.41,15.87,1.96,3.26,4.72,5.68,8.09,7.37,2.2,1.1,4.45,2.12,6.77,2.96,5.69,2.06,8.45,6.23,9.01,12.07.26,2.73.57,5.46.65,8.19.56,19.17,1.43,38.34,1.46,57.51.02,15.05-1.01,30.11-1.61,45.16-.42,10.54-.85,21.08-1.36,31.61-.62,12.72-1.7,25.43-1.91,38.16-.32,19.58-.09,39.17-.04,58.75,0,3.83.22,7.67.4,11.5.29,6.11-.05,12.36,4.21,17.92Z"/>
  <path class="st0" d="M808.62,640.5c.6-1.2,1.04-2.68,1.95-3.75,1.05-1.22,2.47-2.14,3.82-3.07,2.94-2.01,6.14-3.69,8.86-5.95,8.36-6.95,18.11-10.57,28.59-12.66,1.61-.32,3.21-.69,4.82-1.02,6.46-1.29,12.13-4.11,17.01-8.57,2.83-2.59,5.73-5.11,8.76-7.44,6.71-5.16,10.18-3.06,10.82,4.46.66,7.77,1.35,15.54,2.14,23.3,4.45,44.04,11.29,87.64,23.82,130.21,2.94,10,6.62,19.72,11.21,29.07,1.38,2.81,3.03,5.51,4.75,8.13,2.2,3.36,1.67,6.19-1.78,8.23-.12.07-.24.13-.37.18-9.14,3.29-16.7,9.26-24.75,14.44-9.06,5.84-19.39,8.21-29.94,9.17-7.45.68-13.74-2.36-17.97-8.69-2.5-3.74-4.7-7.72-6.64-11.78-13.86-28.98-24.83-58.98-31.92-90.36-3.81-16.85-6.56-33.84-7.11-51.15-.2-6.36-1.28-12.51-4.36-18.2-.7-1.3-1.05-2.79-1.69-4.55Z"/>
  <path class="st0" d="M1000.52,444.1c-2.44,3.16-4.7,6.17-7.06,9.1-3.86,4.79-5.02,10.55-6,16.38-.09.54-.11,1.09-.17,1.63-1.21,10.52,2.37,16.7,12.22,20.52,2.78,1.08,5.77,1.73,8.73,2.17,5.27.78,9.8-.91,13.11-5.15,2.52-3.23,4.95-6.56,7.09-10.06,4.09-6.69,9.82-11.75,15.88-16.46,3.85-2.99,8.33-4.04,13.19-2.83,1.59.4,3.24.61,4.8,1.1,9.78,3.08,19.64,3.05,29.65,1.25,3.33-.6,6.78-.63,10.18-.7,1.67-.03,3.33.58,3.89,2.44.55,1.84-.46,3.24-1.8,4.26-1.62,1.24-3.34,2.41-5.17,3.31-3.92,1.95-7.9,3.78-11.92,5.53-8.55,3.73-16.6,8.32-24.59,13.15-8.53,5.16-17.57,9.49-26.42,14.12-8.49,4.44-17.08,8.69-25.53,13.2-13.84,7.39-28.73,12.11-43.45,17.26-11.36,3.98-22.79,7.77-34.17,11.66-1.68.58-3.36,1.19-4.98,1.92-7.28,3.28-14.81,5.54-22.75,6.72-6.76,1.01-13.41,2.7-20.11,4.05-6.59,1.32-12.79.67-18.34-3.54-6.87-5.21-6.53-15.54.71-20.28,3.26-2.13,6.75-1.6,9.01,1.61,1.17,1.66,2.01,3.57,2.88,5.42,2.33,4.91,6.19,7.24,11.57,6.63,2.56-.29,5.14-.84,7.56-1.69,5.84-2.06,11.24-5.01,16.1-8.89,3.72-2.97,5.92-6.76,6.29-11.55.24-3.14.64-6.27.71-9.41.12-4.92-2.18-8.61-6.79-10.2-8.62-2.99-17.53-4.3-26.67-3.26-5.93.68-9.31,4.2-10.59,9.88-.45,2-.68,4.05-1.13,6.05-1.49,6.65-6.27,9.13-12.29,5.89-3.18-1.71-5.97-4.3-8.63-6.8-2.22-2.09-2.84-5.05-2.25-8,1.34-6.66.94-13.35.75-20.06-.17-5.85,1.69-8.39,7.41-9.55,5.48-1.12,11.08-1.74,16.64-2.44,3.53-.45,7.1-.57,10.63-.98,5.49-.64,10.73-2.16,15.53-4.98,5.85-3.44,12.08-5.78,18.8-6.81,5.17-.79,9.92-3.04,14.86-4.45,5.93-1.7,11.22-4.68,16.98-6.62,5.44-1.83,10.13-4.78,13.57-9.51.32-.44.74-.81,1.12-1.2,6.73-6.79,10.21-7.49,19.08-4.04,3.68,1.43,7.45,2.63,11.86,4.18Z"/>
  <path class="st0" d="M1154.19,510.39c-.95,14.2-1.78,28.42-2.89,42.61-2.45,31.17-3.84,62.38-2.37,93.61.64,13.65,2.72,27.24,4.18,40.85,1.32,12.27,2.26,24.57,1.29,36.89-.63,8-5.54,12.7-13.4,13.67-.81.1-1.64.13-2.46.08-5.07-.34-6.94-2.36-5.44-7.14,1.67-5.35-.19-9.38-3.38-13.21-3.94-4.73-7.12-9.89-7.36-16.16-.22-5.86-.01-11.77.42-17.63.41-5.45,1.41-10.85,2.07-16.29,1.48-12.19-.5-24-3.79-35.7-3.89-13.83-8.14-27.58-11.37-41.56-6.75-29.3-10.33-59.05-10.75-89.14-.05-3.55.04-7.16.64-10.65,2.06-11.99,12.17-21.97,24.44-23.32,6.47-.71,13.12-.1,19.66.36,5.13.36,8.16,3.66,9.08,8.64.52,2.81.74,5.7.77,8.56.1,8.49.03,16.99.03,25.48.21.01.41.03.62.04Z"/>
  <path class="st0" d="M907.58,28.54c1.9.52,3.88.85,5.7,1.59,9.89,4.03,19.75,8.12,29.59,12.26,27.99,11.77,54.22,26.79,79.95,42.79,5.9,3.67,12.21,6.73,18.52,9.68,4.4,2.05,9.17,2.62,14.06,1.56,1.58-.34,3.28-.35,4.91-.28,4.1.19,6.73,2.64,6.73,6.76,0,2.4-.68,4.85-1.39,7.17-.67,2.21-1.8,4.28-2.66,6.45-1.33,3.38-1.36,6.79.62,9.87,3.3,5.14,3.08,10.31.76,15.66-.54,1.25-.92,2.58-1.44,3.84-1.99,4.8-1.09,9.09,2.17,13.02,1.66,2,3.4,3.96,4.85,6.11,3.41,5.05,3.07,10.31.5,15.59-.24.49-.5,1.03-.9,1.36-1.2.99-2.01,2.92-4.03,2.23-1.93-.66-1.96-2.57-1.99-4.15-.04-2.18.21-4.38.49-6.55.67-5.22-1.55-8.98-5.69-11.9-6.1-4.3-12.85-6.92-20.31-6.83-8.34.1-16.69.67-25.01,1.32-2.53.2-5.1,1.08-7.44,2.11-6.98,3.07-11.16,8.14-11.03,16.19.07,4.24-.2,8.49-.36,12.73-.04,1.09-.12,2.2-.37,3.26-.92,3.84-2.84,4.65-6.28,2.65-3.07-1.79-6.09-3.69-9.16-5.49-3.38-1.99-5.14-4.89-4.88-8.83.26-3.96.72-7.91,1.02-11.86.22-2.86.55-5.75.45-8.61-.38-10.88.95-21.61,2.75-32.28.7-4.16,2.08-8.21,3.34-12.26,1.66-5.36,1.97-10.75.7-16.21-1.47-6.37-5.22-10.93-11.47-12.83-4.02-1.23-8.28-1.68-12.45-2.38-3.5-.59-7.05-.96-10.54-1.6-5.86-1.08-10.3-4.25-13.31-9.41-.76-1.3-1.6-2.55-2.34-3.86-3.18-5.63-6.96-10.81-11.4-15.53-5.02-5.34-8.92-11.43-11.78-18.18-.58-1.36-1.03-2.77-1.54-4.16l.68-1.01Z"/>
  <path class="st0" d="M909.99,3.65c9.12.87,16.46,1.96,23.83,2.2,19.16.62,38.33.89,57.49,1.26,5.2.1,10.41.1,15.61.05,5.88-.06,11.77-.22,17.65-.33,3.29-.06,6.58-.23,9.86-.11,5.19.19,9.37,2.32,11.41,7.31,3.92,9.61,10.02,17.88,15.84,26.34,7.15,10.4,13.4,21.33,18.9,32.67,1.19,2.45,2.24,5.03,2.84,7.67,1.03,4.5-1.12,7.32-5.77,7.3-3.51-.02-7.18-.34-10.5-1.39-5.71-1.81-11.36-4-16.77-6.58-10.62-5.07-20.99-10.67-31.6-15.74-6.16-2.94-12.62-5.23-18.92-7.89-6.55-2.76-13.13-5.46-19.56-8.46-4.58-2.14-9.04-4.59-13.39-7.16-15.61-9.22-32.04-16.66-49.05-22.88-2.09-.76-4.02-1.33-6.33-.74-1.81.46-3.87.49-5.7.12-1.95-.39-4.01-1.14-5.57-2.32-3.86-2.92-3.4-7.66,1.08-9.43,3.22-1.27,6.85-1.51,8.65-1.88Z"/>
  <path class="st0" d="M1105.17,758.8c.51-.57,1.09-1.09,1.53-1.72,3.36-4.83,6.73-9.67,10.03-14.54,2.65-3.9,4.44-4.32,7.28-.8,4.4,5.46,9.88,6.52,16.2,4.8,4.45-1.21,8.82-2.73,13.71-4.26,1.39.48,1.47,2.07,1.51,3.8.17,6.43.44,12.85.61,19.28.05,1.91.22,3.9-.23,5.72-1.29,5.26-1.65,10.46-.71,15.85,1.49,8.48.24,16.92-.99,25.33-.63,4.33-1.29,8.67-2.16,12.95-.4,1.98-1.16,3.95-2.09,5.75-1.85,3.56-6.32,5.38-10.18,4.4-2.18-.55-3.57-2.2-3.3-4.52.22-1.87.73-3.78,1.51-5.5,2.21-4.86,4.65-9.61,6.95-14.43.92-1.93,2.23-3.77,1.79-6.37-2.49-.22-3.47,1.56-4.3,3.13-4.03,7.61-8.65,14.93-11.45,23.16-.54,1.6-1.44,3.07-2.47,5.22-3.07-4.7.03-9.23-1.53-13.41-7.61.6-14.06,5.61-21.62,5.97-.17-.31-.34-.62-.51-.93.82-.78,1.55-1.71,2.49-2.31,2.65-1.69,5.45-3.15,8.09-4.87,5.73-3.73,11.42-7.53,17.08-11.37,1.16-.79,2.11-1.89,3.16-2.84-.16-.24-.32-.49-.48-.73-1.2.52-2.45.93-3.58,1.58-12.2,7.06-24.38,14.18-36.58,21.25-4.03,2.33-8.01,4.76-12.19,6.79-5.26,2.55-10.83,2.82-16.4.98-4.3-1.42-5.4-3.23-3.94-7.4,1.72-4.9,3.63-9.77,5.98-14.38,1.19-2.33,3.4-4.24,5.41-6.05,3.16-2.83,6.52-5.44,9.84-8.08,8.34-6.65,11.6-15.61,12.1-25.93.19-3.95.68-7.89,1.1-11.82.46-4.35.9-8.71,1.56-13.04.37-2.41.91-4.86,1.85-7.09,1.31-3.13,4.82-4.28,7.96-3.01,2.01.81,2.76,2.33,1.85,4.66-1.14,2.93-2.61,5.72-3.84,8.62-.78,1.84-1.39,3.75-2.07,5.63.34.18.68.36,1.02.53Z"/>
  <path class="st0" d="M754.86,170.95c-1.38,1.85-2.81,3.67-4.15,5.55-11.89,16.82-22.05,34.66-31.02,53.17-2.62,5.41-4.42,11.2-6.83,16.72-1.47,3.37-3.13,6.7-5.12,9.77-1.77,2.73-4.35,3.69-5.83,2.65-2.26-1.59-1.65-3.96-.93-5.99,1.38-3.86,2.8-7.74,4.67-11.38,6.55-12.69,11.4-26.03,16.15-39.47,4.97-14.05,11.05-27.7,16.76-41.48,11.64-28.07,23.39-56.09,35.03-84.16,1.83-4.42,3.55-8.92,4.92-13.5,3.31-11,11.28-17.84,20.5-23.64.17-.11.47-.01,1.07-.01-.29.73-.47,1.32-.76,1.85-5.76,10.89-11.62,21.73-17.28,32.67-3.37,6.52-5.72,13.44-5.21,20.89.85,12.32-1.52,24.27-3.58,36.27-2.55,14.83-5.27,29.65-7.42,44.54-1.01,7.02-1.08,14.19-1.22,21.31-.17,8.76-.04,17.54.1,26.3.07,3.96.57,7.92.72,11.88.22,5.77-1.01,7.58-6.38,9.53-1.66.6-3.4,1.09-5.14,1.37-6.93,1.09-13.62,2.96-20.1,5.69-1.99.84-4.15,1.51-6.29,1.75-3.9.44-6.01-1.71-5.53-5.64.26-2.13.86-4.36,1.87-6.24,5.33-9.92,9.24-20.43,13.3-30.9,1.72-4.45,4.26-8.57,6.37-12.87,3.56-7.24,7.1-14.5,10.58-21.78.69-1.43,1.08-3.01,1.61-4.52-.3-.11-.6-.22-.9-.33Z"/>
  <path class="st0" d="M1031.44,828.75c1.77-.61,3.57-1.15,5.31-1.86,6.34-2.57,12.64-5.26,19-7.77,1.94-.77,4.36-2.33,6-.09,1.46,1.98-.58,3.82-1.65,5.48-1.85,2.88-3.9,5.63-5.8,8.48-2.51,3.79-5.85,5.4-10.48,4.91-7.62-.81-15.3-1.11-22.91-1.99-6.89-.8-13.67.08-20.49.58-3.55.26-7.08.73-10.63,1.04-.62.05-1.27-.22-2.26-.4.37-1.08.54-1.98.96-2.75,3.63-6.8,8.11-13.01,13.39-18.63,2.53-2.7,5.03-5.42,7.5-8.18,4.3-4.8,6.95-10.45,8.47-16.67,1.36-5.58,2.7-11.17,4.19-16.72,3.03-11.25,12.55-17.13,23.74-17.1,3.39,0,6.83.58,10.17,1.25,7.44,1.51,14.53.69,21.01-3.24,5.24-3.17,10.2-6.81,15.42-10.34.06.21.37.89.43,1.58.14,1.64.18,3.28.23,4.93.21,6.03-1,11.71-4.34,16.83-2.09,3.2-3.29,6.66-2.73,10.5,1.3,8.86-1.82,15.57-8.92,21.07-5.55,4.3-11.01,8.48-17.59,11.16-8.64,3.52-16.91,7.81-24.52,13.26-1.5,1.07-2.8,2.42-4.19,3.63.23.34.46.68.69,1.02Z"/>
  <path class="st0" d="M878.11,831.63c1.98-.26,3.96-.49,5.94-.8,10.94-1.7,21.09-5.66,30.84-10.78,5.81-3.06,11.59-6.18,17.42-9.2,6.46-3.35,13.24-5.83,20.34-7.52,12.46-2.97,23.66-8.45,33.14-17.21,1.41-1.3,2.88-2.53,4.32-3.79,5.18-4.52,10.99-7.59,18.02-8.07,2.28-.16,4.53-.73,7.33-1.21-.1,1.51-.01,2.71-.28,3.81-.96,3.98-2.13,7.91-3.07,11.9-1.34,5.72-3.85,10.81-7.92,15.07-7.6,7.95-14.05,16.78-20.05,25.96-2.98,4.55-6.64,8.1-12.4,8.39-2.3.12-4.68-.08-6.92-.59-10.06-2.3-20.11-1.68-30.19-.23-17.66,2.53-35.19,2.43-52.44-2.8-1.48-.45-2.9-1.12-4.34-1.68l.26-1.25Z"/>
  <path class="st0" d="M861.8,272.22c2.08,1.16,2.25,2.93,2.36,4.68.24,3.96.35,7.93.65,11.89.87,11.4,3.64,22.1,11.2,31.13,4.32,5.17,5.73,11.02,3.8,17.66-2.47,8.51-.53,16.22,4.66,23.25,1.38,1.87,2.71,3.79,3.94,5.76,2.15,3.43,2.75,7.16,1.47,11.02-.99,2.97-2,5.98-3.46,8.74-1.71,3.23-4,4.09-7.19,2.45-6.12-3.16-12.67-5.1-19.09-7.42-2.54-.92-4.9-2.42-7.23-3.83-3.45-2.09-5.67-5.17-6.28-9.19-.8-5.27-1.51-10.55-2.15-15.85-.45-3.7.93-6.56,3.95-8.89,5.92-4.57,5.41-9.31-1.27-12.87-1.93-1.03-4.02-1.73-5.98-2.71-4.03-2.03-5.5-4.48-4.9-8.95.34-2.54.99-5.15,2.08-7.46,2.09-4.45,4.54-8.72,6.93-13.02.79-1.43,1.87-2.7,2.8-4.05,4.89-7.19,10.92-13.67,13.71-22.34Z"/>
  <path class="st0" d="M756.62,645.95c1.23.93,2.71,1.66,3.64,2.83,3.82,4.82,7.59,9.7,11.15,14.71,7.78,10.93,15.28,22.06,23.17,32.9,3.6,4.95,7.86,9.41,12.3,14.66-.24-4.97-4.5-13.46-33.92-68.37,4.24-1.26,8.32-2.77,12.53-3.64,4-.83,7.52.89,10.59,3.44,7.4,6.14,12,13.9,12.63,23.58.68,10.3,3.05,20.25,5.08,30.32,2,9.9,3.06,20.01,4.07,30.08.99,9.91,3.18,19.46,7.23,28.52,3.46,7.74,7.31,15.31,10.88,23.01,1.49,3.22,2.89,6.5,4.01,9.86.53,1.57,1.14,3.85-.92,4.75-1.81.79-3.02-1.02-3.9-2.33-3.05-4.54-6.25-9.02-8.87-13.81-12.36-22.57-24.64-45.19-35.22-68.68-2.08-4.62-4.39-9.13-6.63-13.67-3.23-6.55-7.27-12.54-12.25-17.9-6.99-7.52-11.86-16.38-15.89-25.74-.5-1.15-.6-2.48-.89-3.72.4-.26.79-.52,1.19-.78Z"/>
  <path class="st0" d="M198.29,573.41c.42,1.62.99,3.21,1.23,4.85.21,1.48.06,3.01.07,4.51.07,7.83,3.2,14.18,8.79,19.66,3.09,3.02,5.45,6.78,8.14,10.21.32-.24.65-.48.97-.71-.97-.25-1.93-.5-2.9-.75-5.05-1.32-8.56.34-11.55,4.69-4.41,6.41-6.03,13.69-7.37,21.12-.27,1.48-.5,2.97-.86,4.43-.8,3.29-2.3,4.74-5.77,4.71-7.5-.06-14.76-1.66-21.17-5.57-2.54-1.55-4.33-4.41-6.26-6.83-.93-1.15-.01-2.6,1.5-2.39,1.32.18,2.67.65,3.85,1.28,4.03,2.13,8.33,2.37,12.77,2.35,3.64-.02,5.99-1.69,7.38-4.84,1.87-4.25,3.58-8.58,5.4-12.86,1.28-3.01,2.53-6.05,3.98-8.98.92-1.85,1.15-3.55.36-5.49-.82-2.02-1.48-4.12-2.11-6.21-.87-2.85-2.85-4.16-5.7-4.57-3.11-.44-6.21-1.01-9.29-1.6-4.95-.93-8.53-3.93-10.69-8.24-5.6-11.18-9.62-22.79-11.48-35.33-2.31-15.65.17-30.84,2.18-46.16.75-5.69,1.08-11.47,2.26-17.07.84-3.95,2.32-7.93,4.33-11.43,4.52-7.86,14-11.06,22-7.94.48.19.91.52,1.73,1.02-.87.75-1.46,1.41-2.19,1.86-14.33,8.73-25.27,29.52-19.61,48.4.82,2.75,1.45,5.58,2.47,8.25,4.36,11.46,6.56,23.41,8.55,35.45.89,5.38,2.3,10.71,3.98,15.9.85,2.63,2.51,5.19,4.39,7.25,3.09,3.4,5.6,2.62,7.05-1.73.81-2.43,1.72-4.82,2.58-7.23l.98-.02Z"/>
  <path class="st0" d="M286.59,327.67c-3.76,1.21-7.52,2.43-11.28,3.62-6.69,2.13-11.02,6.34-12.26,13.48-.75,4.31-1.55,8.63-2.62,12.87-2.28,9.04-7.92,15.11-17.13,16.81-6.53,1.21-10.14,5.57-13.63,10.3-5.55,7.53-6.4,16.07-4.99,25.07,2.14,13.57,3.25,27.26,2.02,40.94-.93,10.33-2.67,20.63-4.69,30.81-1.9,9.59-7.24,17.73-13.08,25.35-2.15,2.81-5.52,4.91-8.7,6.67-5.94,3.29-10.1,8-12.31,14.29-1.07,3.05-1.55,6.36-1.89,9.6-.31,2.98-.05,6.02-.09,9.04-.03,1.74-.02,3.53-1.81,5.12-1.75-2.97-2.69-6.12-3.05-9.22-.56-4.86-.55-9.81-.53-14.71.02-5.45,3.17-9.58,6.62-13.3,3.15-3.4,6.73-6.44,10.24-9.49,7.67-6.66,12.87-14.7,15.15-24.75,2.39-10.55,5.02-21.04,5.51-31.9.37-8.13-.66-16.11-2.95-23.93-2.63-9-2.88-17.77,2.38-26.11,1.6-2.53,2.69-5.38,4.02-8.08,2.75-5.55,2.98-11.37,1.44-17.22-1.66-6.34-3.4-12.69-5.55-18.89-3.88-11.2-1.16-21.27,4.59-30.96.48-.81,1.13-1.6,1.87-2.17,7.61-5.8,14.5-12.63,23.23-16.84,3.68-1.78,7.59-3.11,11.41-4.6.31-.12.76.11,1.71.28-.81,1.05-1.28,2.02-2.05,2.61-4.32,3.35-8.53,6.89-13.12,9.84-8.11,5.21-15.15,11.21-19.05,20.35-2.81,6.59-3.57,13.17-.9,19.94,1.98,5.01,2.7,10.29,3.42,15.58.6,4.41,2.01,5.26,6.06,3.41,9.64-4.4,16.96-10.98,19.69-21.7.51-1.99,1.41-3.92,1.62-5.93.4-3.86,2.42-6.67,5.27-8.94,3.31-2.64,6.75-5.13,10.22-7.56,2.96-2.08,6.27-2.58,9.8-1.66,1.78.46,3.6.8,5.4,1.19,0,.27,0,.53-.01.8Z"/>
  <path class="st0" d="M587.49,546.82c.13-.76.11-1.16.27-1.47,3.24-6.49,2.97-12.98-.19-19.35-3.17-6.37-4.01-13.15-2.93-19.98,1.03-6.58.67-13.04.08-19.56-.11-1.22-.3-2.51-.05-3.68,1.61-7.43.29-14.68-1.13-21.95-1.64-8.41-1.88-16.72.66-25.15,1.36-4.51,1.3-9.45,1.88-14.2.16-1.33.3-2.67.52-4.59.76.89,1.32,1.38,1.67,1.99,4.99,8.48,9.94,16.99,14.93,25.48,1.73,2.95,3.55,5.85,5.3,8.78,2,3.36,2.54,7.03,1.25,10.67-1.85,5.25-1.06,9.93,1.08,15.03,4.9,11.65,4.98,23.68,1.08,35.71-4.2,12.96-12.79,22.77-22.78,31.55-.34.3-.87.39-1.64.72Z"/>
  <path class="st0" d="M1008.83,239.16c-4.5.33-6.34-3.54-9.98-4.33-.45.32-1.1.77-1.73,1.23-1.69,1.22-3.16.77-4.26-.78-2.54-3.56-5.03-7.15-7.42-10.82-.65-1-.99-2.25-1.23-3.44-.24-1.15.15-2.4,1.5-2.38.58,0,1.3,1.08,1.67,1.82.42.83.36,1.92.82,2.7.44.74,1.3,1.23,1.96,1.83,3.2-3.39,3.07-5.21-.55-7.13-2.5-1.33-5.14-2.42-7.79-3.43-2.32-.88-3.66-3.17-2.84-5.52.26-.75.83-1.39,1.28-2.12-.8-2.03-2.97-3.85-.49-6.25.6-.58.09-2.31.09-3.55,2.18-1.23,3.67-.38,4.75,1.16,2.51,3.59,4.91,7.24,5.67,11.72.23,1.34.93,2.6,1.41,3.89.36,0,.72,0,1.08,0,.4-1.04,1.08-2.06,1.15-3.11.28-4.53,1.95-8.43,4.61-12.08,3.68-5.05,3.84-10.97,3.63-16.91-.04-1.09-.35-2.16-.45-3.25-.67-7.22,4.83-12.34,11.83-10.54,3.58.92,6.56.63,9.86-.9,2.14-1,4.74-1.35,7.15-1.38,6.56-.08,13.13.15,19.7.27,1.37.03,2.77-.03,4.09.24,3.63.74,5.1,5.22,2.72,8.1-1.2,1.45-3.24,1.47-3.97-.39-1.09-2.79-3.07-3.09-5.53-3.06-4.92.07-9.86-.21-14.75.16-4.56.35-8.14,3.9-9.16,8.65,1.3.17,2.59.59,3.82.46,4.53-.48,8.6.67,12.67,2.59,3.06,1.45,6.43,2.25,9.7,3.23,1.74.52,3.47.93,4.36,2.72.92,1.86.92,3.44-1.84,4.39-2.32-3.14-5.94-3.42-9.66-3.83-2.11-.23-4.12-1.37-6.17-2.09-1.8-.63-3.57-1.51-5.42-1.8-4.29-.68-7.07,2.51-6.08,6.75.25,1.06.58,2.11.93,3.14.58,1.7,1.69,2.17,3.52,1.86,2.52-.43,5.11-.42,7.65-.75,1.75-.22,3.47-.68,5.21-1.03,2.14-.43,4.26-1.12,6.42-1.24,4.75-.26,6.69,2.4,5.38,7.06-.17.61-.5,1.17-.94,2.16-.69-.83-1.09-1.31-1.48-1.8-1.98-2.46-2.58-2.68-5.61-1.8-1.44.42-2.84,1-4.28,1.42-2.5.73-4.96,1.24-7.66.7-1.46-.29-3.25.17-4.68.78-1.38.59-1.31,2.38.11,2.81,1.63.5,3.48.7,5.18.51,5.86-.65,11.09.99,16.06,3.89,2.67,1.56,3.76,3.92,3.29,6.92-.11.69-.73,1.65-1.3,1.8-.57.15-1.78-.39-2-.91-1.48-3.58-4.67-3.78-7.79-4.32-4.31-.74-8.53-1.77-13-1.12-2.63.38-5.01.99-7.29,2.42-4.44,2.79-8.46,5.97-11.66,10.42.89.79,1.67,1.48,2.63,2.34-2.03,3.76-6.21,6.52-4.91,11.89Z"/>
  <path class="st0" d="M144.17,453.54c.21,2.29.81,4.62.56,6.86-.77,6.78-1.84,13.42-4.61,19.86-4.38,10.19-9.04,20.23-13.9,30.18-2.43,4.99-2.82,10.19-1.58,15.61,1.65,7.19,5.13,13.53,8.82,19.79,1.49,2.53,3.12,4.99,4.69,7.48.32-.13.65-.27.97-.4-.29-1.38-.51-2.77-.87-4.13-1.05-3.97-1.93-8-3.3-11.86-1.89-5.34-.39-10.08,2.42-14.41,2.5-3.84,4.15-7.97,5.81-12.17,1.25-3.16,2.96-6.15,4.65-9.11.61-1.08,1.76-1.85,2.66-2.76.32.17.63.34.95.51-.43,1.63-.8,3.29-1.31,4.89-3.86,12.12-4.85,24.66-5.23,37.26-.28,9.27,2.12,17.9,6.92,25.82,3.41,5.62,6.72,11.32,10.55,16.64,3.02,4.19,6.67,7.96,10.28,11.69,1.01,1.04,2.83,1.62,4.35,1.78,2.15.23,4.37,0,6.54-.26,6.03-.73,10,3.34,8.74,9.28-.57,2.66-1.33,5.35-2.48,7.81-3.98,8.49-10.55,13.69-20.13,13.76-3.43.03-6.92-1.37-10.28-2.46-2.03-.66-3.92-1.84-5.72-3.03-.98-.65-2.04-1.91-.98-3.09.54-.61,1.98-.76,2.93-.59,1.32.23,2.54.96,3.82,1.45,5.27,2.02,10.6,1.88,16.73.54-3.05-1.08-5.39-1.91-8.37-2.97,4.07-2.69,10.33-1.8,9.74-8.62-.81-.18-1.56-.42-2.34-.51-3.84-.41-7.07-2.19-9.88-4.65-6.26-5.5-11.13-12.02-14.04-19.92-1.51-4.11-3.12-8.18-4.72-12.26-1.29-3.29-3.48-5.5-7.14-6.02-2.42-.35-4.28-1.68-5.82-3.54-7.22-8.74-13.13-18.23-16.24-29.21-.92-3.24-1.35-6.72-1.4-10.1-.16-11.78,2-23.23,6.8-33.97,2.03-4.54,5.06-8.82,8.4-12.53,5.53-6.15,9.8-12.78,11.47-20.95.13-.64.45-1.24.69-1.85.29.05.59.1.88.16Z"/>
  <path class="st0" d="M256.25,415.94c.49,2.6,1,5.19,1.46,7.79,1.64,9.43,3.63,18.82,4.8,28.31,2.23,18.15-2.04,34.69-14.66,48.24-4.99,5.35-11.25,9.55-17.14,14-5.35,4.04-11,7.67-16.47,11.55-6.21,4.4-9.82,10.52-11.64,17.81-.66,2.65-1.49,5.27-2.11,7.93-.31,1.36-.31,2.79-.52,4.97,1.72-.74,2.72-1.02,3.56-1.56,2.42-1.54,4.78-3.18,7.17-4.78,10.22-6.84,21.74-9.55,33.77-10.11,11.02-.51,21.95-1.37,31.85-6.64,4.79-2.55,9.18-5.93,13.56-9.18,4.95-3.67,9.77-7.53,13.48-12.55.49-.66.82-1.44,1.22-2.17.36.24.72.47,1.08.71-.19.78-.25,1.61-.58,2.33-2.73,6-7.39,10.41-11.97,14.97-6.83,6.78-15.11,10.89-24.21,13.25-7.93,2.06-16.03,3.54-24.1,5-11.11,2.01-21.94,4.89-31.89,10.3-4.28,2.33-8.1,5.53-12.09,8.38-1.33.95-2.5,2.13-3.85,3.05-1.74,1.18-3.21,2.44-3.85,4.6-.28.94-1.16,1.86-2,2.45-1.87,1.3-3.65.89-4.27-1.23-1.32-4.49-2.03-9.12-.32-13.69.86-2.3,2.27-4.4,3.05-6.72,1.12-3.34,2.33-6.75,2.71-10.21.67-6.11,2.55-11.52,7.21-15.63,3.38-2.98,6.87-5.88,10.56-8.45,11.46-7.96,21.37-17.51,29.99-28.45,7.32-9.3,12-19.71,14.4-31.38,1.48-7.16,2.06-14.34,2.53-21.55.23-3.5-.63-7.06-1-10.6-.36-3.51-.71-7.02-1.06-10.53.45-.07.89-.14,1.34-.21Z"/>
  <path class="st0" d="M848.21,336.29c-1.92,2.78-4.62,3.39-7.45,3.34-4.09-.07-7.88-1.49-11.05-3.93-1.32-1.01-1.99-3.14-2.5-4.9-1.38-4.71-.81-9.46-.03-14.23,1.69-10.34,4.35-20.31,9.52-29.54,1.52-2.72,2.41-5.8,3.46-8.77,2.13-6.02,5.09-11.54,9.67-16.04,3.63-3.57,4.83-7.82,4.2-12.74-.24-1.9-.38-3.82-.68-5.71-.58-3.65-1.84-5.04-5.51-4.44-7.27,1.19-14.5,2.73-21.64,4.52-7.55,1.89-14.96,4.36-22.5,6.33-2.62.68-5.45,1.91-8.09-.56-.56-.53-2.15-.22-3.17.05-5.81,1.53-11.67,2.95-17.38,4.8-8.72,2.82-17.35,5.94-26,8.96-11.39,3.97-22.99,7.12-34.77,9.71-9.53,2.09-18.41,6.15-27.34,9.99-3.77,1.62-7.45,3.55-11.36,4.73-10.22,3.11-18.47,9.38-26.62,15.89-.67.54-1.43.97-2.14,1.45-.25-.18-.5-.35-.75-.53.49-1.16.85-2.4,1.48-3.48,2.75-4.74,6.61-8.4,11.42-10.95,11.5-6.1,23.23-11.68,35.7-15.57,10.05-3.14,20.06-6.43,30.1-9.62,4.95-1.58,9.95-3.03,14.89-4.65,9.88-3.25,19.7-6.64,29.59-9.84,5.19-1.68,10.49-3.04,15.71-4.65,2.06-.64,3.97-1.75,6.03-2.37,4.04-1.2,8.11-2.32,12.21-3.27,4.26-.99,8.65-1.46,12.84-2.65,8.72-2.49,17.53-4.25,26.55-5.15,5.59-.56,11.02-1.92,15.87-5.74,1.4,5.33,2.8,10.27,3.99,15.27,1.25,5.24-.57,10.32-1.06,15.47-.68,7.14-3.68,13.16-9.08,17.86-7.79,6.78-12.64,15.32-15.74,25.05-1.45,4.56-3.33,8.98-5.01,13.47-1.61,4.3-2.44,8.7-1.72,13.29.81,5.18,4.25,8.49,9.52,9.05,1.9.2,3.83.09,5.75.11,1.03.01,2.06,0,3.08,0Z"/>
  <path class="st0" d="M636.7,322.51c.71-3.96,3.37-6.62,6.47-8.87,4.75-3.45,9.75-6.59,14.38-10.2,8.13-6.34,17.33-10.33,27.1-13.28,4.71-1.43,9.38-3.02,13.95-4.83,9.54-3.76,19.61-4.89,29.62-6.37,7.3-1.08,14.58-2.4,21.92-3.12,6.36-.63,12.78-1.94,19.18-.32,2.14.54,4.68.45,6.35,3.31-12.11,1.49-23.2,5.21-33.84,10.24.06.36.11.72.17,1.08,3.34,0,6.7-.16,10.03.04,5.18.31,10.35.87,15.52,1.33,3.54.32,7.08.88,10.63.91,5.05.05,9.77,1.27,14.28,3.33,2.55,1.16,5.16,2.48,6.05,6.32-2.9-.71-5.41-1.15-7.8-1.95-7.73-2.6-15.76-3.37-23.8-3.92-2.7-.19-5.46.44-8.18.42-6.27-.06-12.55-.54-18.81-.4-9.93.23-19.36,1.84-28.1,7.53-7.34,4.78-13.36,10.81-19.68,16.63-3.97,3.65-7.44,3.01-10.39-2.2,4.63-5.24,10.11-9.7,15.67-14.12,5.53-4.4,12.49-6.65,18.04-11.58-.74-.3-.98-.5-1.18-.46-12.95,2.39-25.51,5.64-37.09,12.49-6.52,3.86-13.92,6.3-21.03,9.09-4.87,1.9-9.6,3.93-13.83,7.07-1.48,1.1-3.25,1.8-4.88,2.68-.24-.28-.48-.56-.72-.84Z"/>
  <path class="st0" d="M702.43,623.75c1.98.21,4,.26,5.95.65,8.76,1.75,17.59,2.57,26.51,2.8,7.8.2,15.59.7,23.39,1,6.36.25,12.52-.94,18.62-2.65,13.51-3.78,25.79-9.81,36.37-19.17,6.09-5.39,13.08-9.32,20.44-12.82,6.37-3.03,12.91-3.83,19.73-4.22,4.63-.26,9.31-.65,13.82-1.65,2.84-.63,5.67-2.12,8.03-3.87,3.54-2.62,3.41-5.92-.2-8.4-2.45-1.68-5.25-2.95-8.03-4.05-7.82-3.09-15.08-7.14-21.82-12.16-4.83-3.6-8.58-8.12-11.13-13.5-1.14-2.39-1.65-5.18-1.93-7.85-.21-2.03.65-3.99,3.04-5.08.47.76.94,1.41,1.28,2.11,3,6.3,7.37,11.45,12.65,15.97,11.67,9.99,10.58,12.04,31.42,17.35,2.64.67,5.23,1.66,7.71,2.79,2.99,1.35,3.71,2.8,2.83,5.93-.54,1.93-1.44,3.92-2.69,5.47-7.29,9.07-16.32,14.9-28.45,14.69-3.15-.05-6.31-.08-9.45.06-5.43.25-10.63,1.6-15.12,4.69-6.54,4.49-13.36,8.75-19.17,14.08-10.43,9.57-22.66,14.77-36.34,16.78-13.01,1.91-26.15,3.05-39.31,1.97-11.77-.96-23.31-3.26-34.38-7.54-1.44-.56-2.79-1.37-4.18-2.06.13-.45.26-.89.39-1.34Z"/>
  <path class="st0" d="M581.3,416.35c1.69,7.86,1.62,15.08-.41,22.11-2.52,8.71-2.2,17.26.15,25.88,1.32,4.84,1.42,9.63.03,14.57-.67,2.38-.59,5.21-.05,7.65,1.28,5.71,1.41,11.29.32,17.07-1.57,8.28-.92,16.35,3.88,23.67,2.06,3.14,2.07,6.75,2.11,10.31.02,1.83-1.05,2.61-2.88,2.72-2.54.15-4.59-.53-5.96-2.77-.43-.7-.9-1.38-1.24-2.12-4.42-9.7-8.81-19.42-13.24-29.12-1.48-3.23-3.06-6.42-4.62-9.61-1.14-2.33-1.78-4.79-.18-7.02,4.41-6.14,3.24-12.73,1.82-19.35-.52-2.4-1.34-4.73-2.12-7.07-.99-2.98-.99-5.94.13-8.84,1.19-3.06,2.35-6.14,3.81-9.07,3.29-6.61,6.62-13.21,10.22-19.66,1.58-2.84,3.8-5.33,5.82-7.9.45-.57,1.31-.81,2.39-1.43Z"/>
  <path class="st0" d="M212.4,437.68c-4.64,1.51-5.25,2.12-6.49,6.7-.39,1.45-.7,2.93-.93,4.42-.21,1.34-.27,2.7-.47,4.78-.85-1.02-1.52-1.47-1.68-2.07-1.99-7.23-3.95-14.48-5.81-21.75-.42-1.64-.43-3.39-.72-5.85,4.35,2.86,4.81,7.69,8.07,10.31,1.56-1.28.66-2.51.22-3.48-.89-1.99-2-3.9-3.13-5.77-1.7-2.81-2.41-5.84-1.9-9.06,1.37-8.68,3.12-17.26,8.03-24.78,3.06-4.69,2.98-9.22-.3-13.74-1.05-1.44-1.93-3.01-3.07-4.37-3.72-4.43-4.92-9.68-5.18-15.26-.14-3.01.05-6.05-.33-9.03-.51-3.91-1.3-7.8-2.25-11.62-.55-2.19-.9-4.22-.07-6.41,1.49-3.88,2.15-7.87,1.67-12.07-.43-3.76.33-7.4,2.12-10.73,2.76-5.13,4.17-10.67,5.46-16.29,1.33-5.82,4.75-10.39,9-14.41.26-.25.75-.26,1.27-.43.9,1.88-.6,3.11-1.12,4.52-2.32,6.28-4.74,12.52-7.11,18.79-.13.35-.11.75-.16,1.15,4.48-.47,9-4.43,11.2-9.04,1.45-3.04,3.08-6.29,5.5-8.5,5.37-4.9,10-10.07,11.26-18.5,1.8,3.39,1.78,5.92.76,8.29-1.01,2.36-2.38,4.61-3.82,6.75-1.94,2.88-4.11,5.61-6.17,8.41l.57.58c2.22-1.48,4.41-3.02,6.68-4.42,4.07-2.51,8.14-5.03,12.32-7.34,1.91-1.05,4.1-1.41,6.57.25-6.86,2.68-12.29,7.03-18.13,10.73-8.59,5.45-16.52,11.62-23.29,19.34-6.73,7.68-9.46,16.15-7.02,26.15.36,1.46.68,2.95,1.25,4.33,2.38,5.71,2.17,11.4.45,17.26-1.99,6.76,1.17,12.06,5.27,17.55,2.16-3.69-1.22-7.06.75-10.96,1.13,1.79,2.15,3.01,2.74,4.41.95,2.26,1.69,4.63,2.4,6.98,2.09,6.87,1.59,13.49-1.86,19.88-1.43,2.64-2.64,5.41-3.76,8.19-3.45,8.61-3.01,17.41-1.05,26.26.73,3.3,1.5,6.6,2.25,9.86Z"/>
  <path class="st0" d="M142.59,637.53c4.92-.86,8.47,2.35,13.49,2.57-1.36-1.73-2.12-2.99-3.16-3.95-3.02-2.78-6.08-5.52-9.25-8.12-3.18-2.6-6.53-4.99-9.76-7.53-7.22-5.7-12.96-12.7-16.72-21.05-4.1-9.1-7.65-18.45-11.34-27.73-1.66-4.18-1.58-8.58-1.12-12.98.06-.62.43-1.21.95-1.83.13,5.89,3.19,10.54,5.78,15.43,2.56,4.83,4.62,9.92,7.1,14.79,3.22,6.34,6.52,12.64,9.99,18.84,2.17,3.88,5.4,6.86,9.24,9.17,1.76,1.06,3.45,2.22,5.14,3.39,6.19,4.28,11.44,9.49,14.58,16.39,3.51,7.7,9.45,12.16,17.34,14.5,4.6,1.36,9.14,2.81,14.04,2.75,6.87-.08,11.83-2.92,14.43-9.45.81-2.03,1.49-4.13,2.48-6.08,1.54-3.04,3.1-6.09,4.99-8.9,1.55-2.3,2.34-4.5,1.72-7.29-.42-1.92-.35-3.95-.49-5.74,2.46-.99,3.56.31,4.26,1.55,2.03,3.55,4.07,7.14,5.63,10.91.99,2.4.96,5.1-2.02,6.99-.75-1.26-1.43-2.38-2.28-3.81-3,4.1-5.26,8.01-3.2,13.17,1.05,2.63.04,4.87-2.32,6.37-12.28,7.8-25.02,12.16-39.62,6.4-8.1-3.19-15.81-6.85-22.5-12.49-1.67-1.41-3.55-2.57-5.27-3.92-.68-.54-1.19-1.29-2.12-2.33Z"/>
  <path class="st0" d="M678.12,602.48c1.2.5,2.43.96,3.61,1.51,13.11,6.07,26.95,9.98,40.9,13.4,9.69,2.37,19.08-.25,28.03-3.87,9.69-3.91,17.63-9.96,23.77-18.81,8.5-12.25,17.84-23.93,26.92-35.78,6-7.83,12.01-15.63,16.91-24.23,3.32-5.83,8.06-10.33,13.82-13.76,5.19-3.09,10.32-3.26,15.47.08,1.57,1.02,3.23,1.89,4.77,3.34-.67-.04-1.36.02-2-.14-7.32-1.81-13.85-.43-19.41,4.78-5.14,4.81-9.12,10.39-12.59,16.58-6.28,11.21-13.09,22.14-20.04,32.95-2.1,3.27-5.17,6.05-8.22,8.54-7.14,5.83-13.88,12.01-19.38,19.44-3.74,5.06-8.57,8.99-14.12,11.61-3.98,1.88-8.6,2.86-13.02,3.27-15.06,1.4-29.78-1.05-44.21-5.14-7.59-2.15-14.09-6.62-20.27-11.46-.51-.4-.89-.98-1.34-1.47.14-.28.27-.56.41-.85Z"/>
  <path class="st0" d="M83.08,485.97c4.11,6.12,6.09,13.45,11.3,18.94-.41-4.61-.29-9.15-2.23-13.56-2.19-4.98-3.71-10.27-5.45-15.44-.29-.87-.23-1.85-.38-3.13,2.38.84,2.55,2.95,3.49,4.43.93,1.46,1.81,2.96,2.71,4.45.29-.1.57-.19.86-.29-.53-2.58-1.08-5.15-1.59-7.73-.94-4.69-2.1-9.35-2.73-14.08-.73-5.46,2.1-15.6,5.13-19.63,2.41,2.38.72,6.16,3.08,8.72,2.82-5.97,4.08-11.88,1.99-18.2-1.68-5.07-.56-9.4,3.46-13.01,3.32-2.98,6.54-6.05,10.42-9.65.12,1.56.34,2.22.18,2.77-1.29,4.52-1.72,9.11-1.64,13.81.06,3.37-1.18,5.2-3.78,5.46-1.58.16-3.26-.58-5.02-.94-.62,2.26.3,4.7,1.27,7.11.51,1.27,1.18,2.48,1.63,3.77.95,2.73.9,5.45-.88,7.83-1.87,2.51-3.87,4.94-5.94,7.29-.79.89-1.94,1.46-3.17,2.35.14,4.45.38,9.01,1.67,13.53,1.58,5.52,2.83,11.13,4.17,16.71.25,1.06.21,2.18.41,3.25.34,1.84-.57,2.78-2.22,3.06.87,4.2,1.67,8.21,2.53,12.22.58,2.73.35,5.19-2.07,7.02-1.28.97-1.35,2.11-.96,3.63,1.73,6.75,3.37,13.52,4.93,20.31.36,1.58.54,3.28.41,4.89-.36,4.53.56,8.43,4.95,10.96-1.77,1.89-3.43,1.26-5,.44-4.29-2.24-6.01-6.15-6.71-10.67-.08-.54-.11-1.1-.05-1.64,1.21-10.07-2.38-19.15-5.93-28.21-1.55-3.95-3.42-7.77-5.15-11.64-2.14-4.76-3.3-9.78-3.67-15.12Z"/>
  <path class="st0" d="M176.49,299.55c.07,4.85-3.42,9.2-1.79,14.22,2.72-1.1,6.7-4.97,7.75-8.44,2.03-6.66,6.09-12.23,9.31-18.24,2.1-3.92,3.87-5.61,7.27-7.61-1.77,3.96-3.34,7.49-5.08,11.4,1.51-.29,2.61-.5,3.84-.74.12.59.39,1.12.24,1.3-1.45,1.78-2.8,3.71-4.51,5.22-4.5,3.96-5.86,9.58-8.14,14.73,2.59-1.99,5.3-3.84,7.72-6.01,2.38-2.13,4.47-4.58,6.92-7.13,1.01,1.65.67,2.9.14,4.15-1.28,3.02-2.54,6.06-3.84,9.07-.99,2.3-2.78,3.81-5.21,4.21-4,.66-6.21,2.98-7.39,6.74-.47,1.51-1.41,2.98-2.45,4.2-5.64,6.55-7.93,14.2-7.92,22.73,0,3.28-.24,6.56-.52,9.83-.34,3.94-1.8,7.5-4.55,10.34-4.57,4.71-9.16,9.42-14.02,13.81-5.91,5.33-11.73,10.7-16.25,17.32-.22.32-.62.52-1.53,1.26,2.62-6.81,4.78-13.08,9-18.28,4.1-5.06,8.51-9.88,12.81-14.84-1.46.16-2.9.32-4.22.46-1.15-1.82-.23-2.99.79-3.84,1.35-1.12,2.93-1.98,4.44-2.9,1.51-.92,3.17-1.65,4.57-2.71,3.84-2.92,4.24-4.17,2.5-8.66-1.21-3.14-.8-6.12,0-9.23,1.16-4.59,2.24-9.21,3.02-13.87.28-1.64-.15-3.55-.73-5.15-.94-2.56-1.01-5.02-.39-7.64,1.4-5.93,4.13-11.12,8.23-15.69Z"/>
  <path class="st0" d="M296.9,377.26c.12,5.83-4.36,10.4-3.22,16.26,2.59-1.42,3.62-3.26,3.94-5.99.3-2.49,1.21-5.02,2.37-7.27,2.71-5.28,6.44-9.8,11.05-13.62,3.51-2.9,7.06-5.6,11.56-6.83,1.7-.46,3.3-1.3,4.9-2.07,4.42-2.14,7.38-5.53,8.83-10.26.39-1.26,1.02-2.45,1.75-4.17,1.86,2.52.81,4.8.73,7.65,1.68-1.17,3-1.96,4.18-2.93,1.47-1.22,3.15-2.38,4.17-3.93,4.94-7.48,13.21-9.81,20.53-13.59,1.04-.54,2.25-.75,3.47-.92-8.02,7.9-15.91,15.85-25.28,22.12-3.3,2.21-6.36,4.77-9.71,6.89-5.31,3.36-10.69,6.62-16.17,9.67-4.17,2.32-7.62,5.52-10.4,9.17-3.54,4.65-6.74,9.63-8.73,15.26-1.07,3.04-2.61,5.92-3.34,9.42,1.11-1.03,2.11-2.25,3.38-3.02.77-.47,1.95-.25,2.95-.34,0,.88.32,1.96-.06,2.61-3.32,5.54-7.77,10.02-13.88,12.24-5.48,1.99-5.58,1.7-9.3,5.85-.72-1.31-1.4-2.53-2.02-3.65-4.55-.14-7.12,2.41-13.92,9.78-2.15-1.61-1.58-3.93-1.39-5.95.45-4.86,1.75-5.89,6.56-6.9,3.72-.78,7.43-1.77,10.96-3.16,3.13-1.23,4.96-3.64,4.45-7.43-.36-2.7-.2-5.47-.33-8.2-.3-6.51,5.23-14.61,11.98-16.67Z"/>
  <path class="st0" d="M160.41,438.02c1.02,2.85,1.85,5.78,3.13,8.51,1.25,2.69,2.96,5.17,5.26,7.58.1-.81.42-1.66.27-2.42-.77-3.89-1.63-7.76-2.51-11.63-.88-3.85-.51-7.54.74-11.29,2.81-8.48,7.28-15.87,13.67-22.13,1.91-1.87,3.57-4.01,5.97-5.61-.36.74-.7,1.49-1.08,2.22-1.35,2.52-3.12,4.89-3.99,7.56-1.78,5.45-3.22,11.03-4.52,16.62-1.56,6.68-.43,13.34.63,19.97.24,1.48.4,2.98.47,4.48.15,3.43-1.16,6.1-4.18,7.88-6.87,4.04-11.31,10.16-14.78,17.16-1.32,2.66-2.04,5.32-1.61,8.29.75,5.28-.62,10.31-2.05,15.31-.05.18-.43.26-.78.45-1.6-3.34-.5-7.56-3.45-11.14-1.22,1.46-2.21,2.5-3.03,3.67-3.69,5.25-7.65,10.34-10.9,15.86-3.95,6.73-7.04,13.88-6.31,22.05.08.88-.11,1.78-.18,2.69-.52-.07-.94-.03-.99-.15-2.68-6.32-4.75-12.32-1.33-19.47,3.79-7.93,8.28-15.41,12.66-22.97,1.17-2.02,3.25-3.63,5.19-5.05,1.74-1.28,3.16-2.64,3.65-4.74,1.11-4.69,3.72-8.56,6.99-11.9,3.74-3.83,5.29-8.22,4.67-13.43-.65-5.43-1.38-10.85-2.08-16.27-.08-.63-.15-1.27-.22-1.9.24-.07.48-.14.71-.21Z"/>
  <path class="st0" d="M306.18,312.38c2.01,1.25,3.5,2.9,5.14,3.05,3.76.35,7.75.67,11.07-1.87,1.84-1.41,3.58-2.97,5.21-4.62,6.03-6.09,12.9-10.3,21.61-11.69,4.37-.7,8.64-2.59,12.71-4.48,5.48-2.54,7.52-6.7,6.77-12.73-.29-2.29-.84-4.57-1.4-6.81-1.01-4.04-.17-5.3,4.58-5.99-.23,1.12-.39,2.11-.63,3.07-1.12,4.4-.12,5.83,4.3,6.05.54.03,1.08.07,2.24.15-1.05,2.23-1.97,4.19-3.06,6.52,1.39.67,2.56,1.24,4.01,1.94-.81.71-1.65,1.33-2.36,2.07-1.69,1.76-3.69,3.36-4.89,5.42-2.47,4.26-5.93,6.99-10.49,8.68-5.77,2.14-11.59,4.23-17.09,6.94-4.12,2.04-7.8,5-11.61,7.64-.87.6-1.62,1.51-2.18,2.42-1.49,2.45-.93,4.28,1.58,5.78.89.53,1.76,1.1,2.69,1.69-2.42,2.77-4.82,3.07-7.06.93-.97-.93-1.66-2.16-2.41-3.29-1.93-2.87-3.79-3.6-6.93-2.24-2.12.91-4.09,2.19-6.11,3.35-2.73,1.56-5.41,3.22-8.19,4.69-1.31.7-2.76,1.18-4.2,1.58-2.98.82-5.18,0-6.96-2.77-1.46-2.26-3.41-4.3-5.48-6.05-6.64-5.63-12.73-5.69-19.69-.42-2.45,1.85-4.86,3.74-7.61,5.28,3.11-7.01,6.28-13.87,14.27-16.7,3.11-1.1,5.95-.8,8.55,1.13,2.08,1.55,4.05,3.26,6,4.97,1.95,1.72,3.86,3.5,5.71,5.32,2.07,2.03,4.35,3.4,7.35,2.42,3.13-1.03,3.61-3.89,4.16-6.56.32-1.56.29-3.18.42-4.87Z"/>
  <path class="st0" d="M103.61,517.95c3.06-.57,3.41-2.68,3.45-5.2.09-5.33-.02-10.7.66-15.97,1.09-8.44,4.34-16.02,10.18-22.45,1.79-1.97,3.22-4.45,4.22-6.93,1.91-4.75,4.17-9.3,7.61-13.05,3.53-3.84,4.12-8.16,3.18-12.97-.45-2.28-.87-4.57-1.45-6.82-2.59-10-.33-19.1,5.7-27.15,3.68-4.9,8.15-9.2,12.3-13.74.34-.37.89-.54,1.85-1.09-.18,1.17-.09,1.96-.41,2.52-1.69,2.97-3.44,5.92-5.24,8.82-3.27,5.26-5.97,10.73-7.51,16.79-1.32,5.21-.89,10.36.22,15.46,3.59,16.51-3.12,29.4-14.32,40.58-3.6,3.6-6.42,7.53-7.81,12.32-1.41,4.85-2.65,9.8-3.36,14.79-.59,4.15-.48,8.43-.36,12.65.15,5.74.5,11.47.97,17.2.22,2.71.99,5.37,1.38,8.07.25,1.74.56,3.57.29,5.26-.16.98-1.29,2.29-2.22,2.54-.94.24-2.56-.34-3.19-1.12-1.55-1.91-2.61-4.1-1.87-6.81,1.83-6.68.7-12.99-2.65-18.97-.53-.95-1.03-1.93-1.47-2.93-.15-.35-.08-.8-.16-1.79Z"/>
  <path class="st0" d="M661.69,383.8c1.19.81,2.48,1.5,3.55,2.44,4,3.53,8,7.08,11.86,10.77,1.36,1.3,2.51,2.91,3.45,4.56,3.69,6.4,7.27,12.86,10.86,19.32,6.08,10.94,10.81,22.42,13.47,34.69.49,2.26.75,4.6.89,6.91,1.87,30.73-2.54,60.11-19.24,86.69-2.82,4.5-6.34,8.56-9.62,12.76-.78,1-1.89,1.74-2.85,2.59-.27-.22-.54-.44-.8-.65.78-1.18,1.55-2.36,2.34-3.53,10.5-15.59,18.95-32.2,21.84-50.91,2.21-14.3,4.01-28.76,1.68-43.32-.71-4.45-.74-9.02-1.56-13.44-1.79-9.65-5.6-18.64-10.36-27.12-4.15-7.38-9.04-14.35-13.71-21.43-3.47-5.25-7.14-10.37-10.67-15.59-.81-1.2-1.39-2.55-2.08-3.83.31-.31.63-.62.94-.92Z"/>
  <path class="st0" d="M1011.92,446.37c9.77-.08,17.95,7.78,18.14,17.41.19,10.13-7.92,18.4-18,18.36-9.81-.03-17.76-7.85-17.92-17.61-.16-9.89,7.87-18.08,17.79-18.16Z"/>
  <path class="st0" d="M241.01,408.5c-.74,3.33,1.28,5.67,2.38,8.38.94,2.31,1.33,5.03,1.22,7.54-.14,3.25-1.01,6.47-1.58,9.71-.72,4.05-.64,8.09.02,12.16,2.42.6,3.63-.73,4.37-2.38.78-1.72,1.17-3.62,1.78-5.43.5-1.49,1.07-2.95,1.99-5.43,1.07,1.74,1.85,2.52,2.04,3.42,1.83,8.78.31,17.13-3.56,25.11-.2.42-.79.65-1.68,1.36-1.47-2.99-2.81-5.71-4.57-9.29.72-.35,1.67-.82,2.63-1.28-.14-.25-.27-.49-.41-.74-2.21.18-4.42.35-6.92.55-.45,3.65.73,6.55,3.37,9.07,1.45,1.38,2.96,2.9,3.79,4.66,1.69,3.6.34,7.07-1.71,10.06-2.13,3.11-4.72,5.9-7.28,9.04-.24-.59-.59-1.06-.48-1.21,2.86-4.05,2.32-8.65,1.81-13.08-.56-4.86-1.56-9.58-4.34-13.95-2.53-3.98-2.56-8.88-2.64-13.54-.15-8.21-.11-16.42-.27-24.63-.06-2.87-.55-5.72-.73-8.59-.41-6.36.22-12.57,2.78-18.49,1.41-3.26,2.77-6.53,4.2-9.9,4.04-.72,7.52,1.5,12.08,1.52-2.91,2.02-5.18,3.66-7.5,5.2-2.68,1.78-4.32,4.13-4.4,7.44-.02.68-.28,1.35-.3,2.03-.47,15.02-.93,30.03-1.41,45.81,2.41-1.73,2.49-3.62,2.61-5.24.51-6.81.86-13.63,1.19-20.45.1-2.18-.14-4.38-.06-6.57.04-.97.48-1.92.74-2.88.28,0,.56,0,.85,0Z"/>
  <path class="st0" d="M256.6,520.24c13.18-10.43,19.69-24.25,23.05-40.15.29.64.87,1.31.82,1.92-.33,3.81-.27,7.75-1.32,11.37-3.18,11.01-7.7,21.4-16.42,29.37-.27.24-.38.66-.7,1.25,4.36-.22,7.86-2.08,11.14-4.25,5.15-3.4,10.04-7.1,13.39-12.53,1.11-1.8,2.98-3.15,4.57-4.63,1.36-1.27,2.82-2.44,4.59-3.96-.55,3.44-1.39,6.36-3.23,8.92-6.11,8.44-13.47,15.47-22.82,20.27-6.81,3.5-14.17,3.96-21.61,3.84-7.28-.11-14.06,1.29-20.33,5.25-5.65,3.58-11.55,6.77-17.37,10.07-.74.42-1.71.45-3,.77,1.75-4.36,2.98-8.4,4.98-12.03,1.12-2.02,3.27-3.79,5.36-4.91,7.23-3.88,14.64-7.42,21.99-11.07.19-.09.51.08,1.12.2-1.17,3.46-4.6,4.75-6.7,7.44,2.37,1.13,4.43-.27,6.55-.61,4.71-.78,7.93-3.18,9.4-7.98.85-2.76,2.38-2.89,4.56-.82.68.65,1.25,1.41,2,2.27Z"/>
  <path class="st0" d="M224.87,647.94c5.6,2.14,11.4,4.02,14.59,9.9,1.81,3.33,4.29,6,7.24,8.28,1.07.83,2.08,1.67,3.69.82.72-.38,1.89-.15,2.78.09,2.37.65,4.74,1.37,7.04,2.22,11.15,4.09,22.27,5.03,33.65.67,3.66-1.4,7.68-1.87,11.56-2.66.84-.17,1.78.11,3.37.24-.97,1.14-1.45,1.88-2.1,2.4-.63.5-1.4.9-2.17,1.14-11.46,3.61-22.74,8.12-35.12,7.21-.95-.07-1.92-.02-2.87.01-.22,0-.43.2-1.19.59,3.43,1.18,6.46,2.25,9.5,3.27,7.58,2.54,15.19,3.99,23.36,3.03,7.58-.89,15.31-.54,22.97-.72.89-.02,1.78.09,3.5.18-3.51,3.49-7.85,2.94-11.44,5.09,3.86.81,7.41,1.56,10.96,2.3.04.18.07.36.11.55-1.24.21-2.48.54-3.73.61-16.31.97-32.26-.95-47.71-6.36-11.57-4.05-22.64-9.07-31.54-17.85-2.23-2.21-4.28-4.61-6.31-7.01-3.09-3.66-6.1-7.39-9.12-11.11-.57-.7-1.06-1.48-1.58-2.22.18-.23.37-.45.55-.68Z"/>
  <path class="st0" d="M506.77,306.86c1.23-.18,2.48-.6,3.69-.51,4.5.34,8.99.92,13.49,1.28,6.69.54,13.38,1.35,20.07,1.37,12.31.04,24.18,2.45,36.04,5.4,18.43,4.58,34.68,13.07,49.28,25.21,8.49,7.06,16.36,14.53,22.59,23.69,1.84,2.7,4.21,5.04,6.3,7.58.93,1.13,1.78,2.32,2.23,4.12-.83-.22-1.8-.24-2.47-.69-8.86-5.98-17.25-12.25-23.73-21.17-14.83-20.41-35.47-31.16-60.4-34.02-6.52-.75-13-1.86-19.52-2.67-6.52-.81-13.05-1.52-19.59-2.17-7.12-.71-14.03-2.3-20.81-4.56-2.3-.76-4.68-1.27-7.03-1.89-.05-.32-.1-.65-.15-.97Z"/>
  <path class="st0" d="M708.96,321.45c4.23,0,8.47-.1,12.7.02,6.69.19,13.42.2,20.06.92,3.44.37,6.76,2.03,10.07,3.3,1.15.44,2.09,1.45,3.12,2.2-.11.28-.21.57-.32.85-.72,0-1.45.02-2.17,0-14.5-.51-28.99-1.22-43.5-1.42-4.3-.06-8.7,1-12.9,2.11-7.47,1.98-14.95,3.11-22.7,2.93-4.63-.11-9.32.25-13.91.93-10.02,1.49-19.94.45-29.88-.61-.82-.09-1.58-.66-3.05-1.32,1.16-.47,1.62-.83,2.05-.8,9.09.59,18.01-1.1,27-1.89,8.32-.73,16.63-1.57,24.95-2.13,8.56-.57,16.34-2.99,23.15-8.39,8.15-6.46,17.51-9.23,27.89-9.21,9.74.02,19.42.56,29.06,1.88.45.06.86.39,2.14.99-18.89,1.36-37.18.7-53.77,9.63Z"/>
  <path class="st0" d="M120.23,360.98c-.22,2.36-.29,4.74-.68,7.07-.68,4.12-.73,8.19.67,12.17.48,1.35,1.28,2.59,1.97,3.96,2.46-.79,3.34-2.49,4.14-4.2.5-1.06.53-2.15-.74-2.82-1.77-.92-1.64-2.41-1.68-4.17-.18-7.16.45-14.22,2.01-21.2.62-2.79,1.46-5.54,2.36-8.25.26-.8,1.05-1.42,1.76-2.34,1.42,1.4.91,2.82.73,4.05-.61,4.33-1.36,8.65-2.05,12.97-.51,3.16-.66,6.25,1.75,9.19.39-.76.79-1.29.94-1.88,1.91-7.69,3.62-15.43,5.77-23.05.76-2.69,2.43-5.16,3.91-7.59.53-.87,1.71-1.36,2.59-2.02.21.2.42.39.63.59-.31.85-.61,1.69-.93,2.53-2.65,6.96-3.78,14.2-4.48,21.59-.56,5.83-1.32,11.73-2.87,17.35-.94,3.42-3.48,6.42-5.48,9.5-.88,1.36-2.15,2.48-3.32,3.63-4.34,4.24-7.22,9.05-7.77,15.36-.45,5.12-1.85,10.16-2.92,15.72-2.33-3.02-.75-6.07-1.22-8.84-.47-2.75-.61-5.57-.97-9.09-5.12,4.92-8.91,10.02-14.12,13.67-.57-2.36.87-3.78,2.03-5.08,3.08-3.44,4.68-7.1,4.12-11.93-.49-4.26,1.1-8.36,2.88-12.26.23-.51.38-1.06.57-1.59.42.16.84.32,1.27.48,1.1,3.62,2.2,7.24,3.34,11,3.98-2.41,5.07-4.59,3.23-7.98-4.8-8.84-1.96-17.28.76-25.79.11-.34.5-.6.75-.9.35.04.7.09,1.06.13Z"/>
  <path class="st0" d="M104.59,485.79c-.29-1.24-.88-2.5-.83-3.73.23-4.95-1.42-9.4-3.13-13.9-.96-2.52-1.48-5.21-2.07-7.84-.13-.57.24-1.26.38-1.92,2.13-.15,2.73,1.29,3.36,2.64.81,1.73,1.45,3.56,2.36,5.24,1.16,2.17,2.95,2.25,4.53.33.17-.21.39-.43.44-.68.94-4.08,3.84-6.77,6.56-9.67,2.55-2.71,3.56-5.95,2.63-9.83-.68-2.85-.7-5.86-1.12-9.77,3,2.39,2.15,5.76,4.86,8.09-.1-2.03-.06-3.42-.25-4.77-.61-4.19-1.55-8.35-1.89-12.57-.28-3.38-.22-6.87.3-10.21.71-4.58,1.96-9.09,3.05-13.6,1.22-5.03,3.81-9.27,7.18-13.2,4.18-4.87,8.24-9.87,11.93-15.12,4.54-6.45,4.4-13.58,1.89-20.79-.69-2-1.7-3.93-.77-6.54,2.83,2.21,4.42,4.64,5.04,7.66,1.55,7.52.6,14.77-2.91,21.54-2.32,4.49-4.91,8.88-7.79,13.03-7.43,10.73-11.54,22.66-12.98,35.49-.4,3.58.05,7.45,1.02,10.93,1.56,5.62,1.32,10.8-1.6,15.82-1.99,3.42-3.54,7.34-6.27,10.03-5.51,5.42-8.35,12.07-10.78,19.09-.52,1.49-1.17,2.92-1.77,4.38-.46-.04-.91-.08-1.37-.13Z"/>
  <path class="st0" d="M143.79,479.12c.34-1.21.64-2.49,1.07-3.73,1.63-4.64,3.16-9.33,5.01-13.89,1.54-3.78,1.08-7.24-1.84-9.78-4.61-4.01-6.82-8.7-6-14.77-2.28-10.14.31-19.24,6.05-27.6,2.16-3.15,4.4-6.26,6.84-9.2,1.13-1.36,2.66-2.83,5.41-1.37-.85,1.34-1.56,2.56-2.37,3.72-1.87,2.69-4.02,5.22-5.6,8.07-1.23,2.23-2.04,4.78-2.57,7.29-.93,4.4-1.58,8.86-2.21,13.32-.53,3.74-1.28,7.55,1.44,11.8,1.04-8.28,5.13-15.05,5.01-22.99-.16-10.65,6.53-16.92,15.18-21.56.71-.38,1.7-.24,2.98.39-.79.82-1.63,1.59-2.36,2.46-2.26,2.71-4.63,5.35-6.67,8.22-1.78,2.51-2.56,5.51-2.17,8.59.77,6.07-.7,11.66-3.15,17.12-.73,1.62-1.33,3.3-2.04,4.93-1.42,3.31-1.59,6.59-.03,9.93.69,1.48,1.2,3.05,1.73,4.6,1.04,3.01.99,5.57-1.41,8.3-1.9,2.17-2.67,5.33-3.99,8.03-1.14,2.33-2.18,4.73-3.57,6.9-.93,1.45-2.28,2.9-4.75,1.24Z"/>
  <path class="st0" d="M666.93,569.95c1.8,1.2,1.04,2.36.31,3.32-1.8,2.41-3.68,4.77-5.6,7.09-15.45,18.78-34.02,33.57-55.88,44.32-10.38,5.1-21.11,9.08-32.3,11.83-2.78.68-5.66,1.04-8.51,1.28-13.1,1.06-26.2,2.05-39.3,3.01-4.42.32-8.85.48-13.47.03.9-.43,1.79-.91,2.71-1.29,7.84-3.21,16.17-3.97,24.48-4.85,13.74-1.46,27.58-2.3,40.99-5.96,21.44-5.86,40.74-15.88,57.8-30.16,8.63-7.22,16.9-14.8,23.46-24.06,1.38-1.95,2.91-3.95,5.32-4.56Z"/>
  <path class="st0" d="M320.08,280.32c1.09-.42,2.15-1.01,3.28-1.23,13.12-2.62,24.27-9.03,34.22-17.75.21-.18.43-.34.61-.55,5.02-5.58,11.22-6.44,18.01-4.26,2.7.87,5.41,2.02,7.79,3.54,3.6,2.3,7.17,4.53,11.34,5.63.62.17,1.18.6,2.21,1.15-1.2.7-2.05,1.2-3.04,1.78.5.3.92.67,1.42.81,3.81,1.08,7.68,2.01,11.45,3.21,2.88.91,3.3,2.86.96,4.66-1.82,1.4-3.86,2.82-6.02,3.42-9.12,2.55-16.26,8.29-23.46,13.98-.5.39-1.04.73-1.76.87,3.71-8.65,10.63-14.08,19.46-18.79-2.62-.86-4.38-.67-6.1,0-2.17.84-4.26,1.87-6.43,2.7-1.18.45-2.47,1.41-3.78-.1,1.04-3.56,5.67-3.04,7.21-6.28-3.89-2.56-8.5,2.31-12.24-1.45,1.42-3.51,5.33-3.49,8.01-5.82-3.52-3.19-7.21-5.16-12.11-3.76-4.17,1.19-8.04,3.01-10.92,6.23-5.3,5.95-12,8.93-19.69,10-6.73.93-13.47,1.74-20.2,2.6l-.22-.6Z"/>
  <path class="st0" d="M271.33,337.08c.18.83.35,1.58.51,2.31,2.1.74,4.93-.4,5.21-2.56.34-2.58,1.97-3.49,3.96-4.1,2.69-.82,5.45-1.61,8.72-.31-1.17,1.02-2.02,1.76-2.74,2.38,4.3,0,8.53.1,12.75-.03,3.51-.1,6.73-.89,8.89-4.18.69-1.05,2.05-2.04,3.26-2.31,3.54-.77,7.16-1.15,10.75-1.69.13.32.25.64.38.96-1.36.91-2.72,1.82-4.74,3.16,6.52,1.08,12.37.43,18.12-.59,5.92-1.05,11.82-2.37,17.61-3.98,5.71-1.59,11.29-3.68,17.27-4.92-1.18.83-2.33,1.71-3.55,2.47-9.93,6.11-20.75,9.93-32.2,11.74-11.89,1.88-23.82,3.62-35.8,4.66-9.63.84-17.59,4.73-24.85,10.64-1.7,1.38-3.35,2.84-4.89,4.39-1.8,1.81-3.87,2.96-7.04,3.44.54-2.29.9-4.36,1.53-6.34,1.16-3.64,2.76-7.1,3.01-11.04.12-1.93.98-4.04,3.84-4.1Z"/>
  <path class="st0" d="M267.84,425.71c4.1.55,4.39,3.63,5.1,6.01.76,2.55.88,5.3,1.37,8.53,3.49-4.05,2.88-9,5.08-13.14.14.68.39,1.35.4,2.03.06,6.3.16,12.54-3,18.4-2.06,3.83-1.56,4.64,2.77,8.08.97-2.05,1.9-4.01,2.97-6.26,2.03,4.85.16,11.63-4.04,14.36-.82-1.99-1.59-3.89-2.48-6.06-1.71,1.25-1.64,2.97-1.64,4.46,0,14.67-5.59,27.42-13.31,39.46-1.74,2.72-1.83,2.83-1.59,6.73,2.48-2.12,4.67-3.99,7.08-6.05-.44,3.87-4.02,9.41-6.67,10.57-1.48.65-2.93.77-4.01-.81-.46-.67-.96-1.31-1.44-1.97-2.98.3-4.11,2.4-5.26,4.66-1.03,2.02-2.4,3.87-4.33,5.61v-3.46h-9.4c.85-1.17,1.16-2.08,1.78-2.39,12.45-6.07,20.18-16.27,26.04-28.48,5.39-11.24,6.61-23.08,6.43-35.2-.09-6.01-.99-12-1.48-18-.18-2.25-.25-4.52-.38-7.08Z"/>
  <path class="st0" d="M189.86,398.34c-.75-1.51-1.5-3.02-2.34-4.69-2.66-.2-4.33,1.35-5.62,3.33-4.18,6.41-8.29,12.87-12.44,19.3-.12.18-.41.25-1.32.78.39-2,.53-3.55,1.03-4.96.4-1.13,1.2-2.14,1.92-3.14,2.92-4.04,5.09-8.43,6.27-13.27,1.37-5.62,4.58-9.78,9.49-12.83,5-3.1,5.85-5.33,3.83-11-3.6-10.12-4.12-20.57-3.89-31.14.04-1.74,0-3.49,0-5.44-3.14.19-3.6,2.65-4.66,4.36-1.13,1.81-1.97,3.81-3.37,6.59-.49-1.73-.93-2.53-.91-3.33.08-4.24,1.49-8.01,4.19-11.31,2.6-3.17,5.12-6.41,7.71-9.59.93-1.14,1.81-2.51,4.25-1.74-.12,1.28.05,2.78-.42,4.03-2.42,6.4-2.23,12.74-.66,19.34,1.16,4.88,1.75,9.97,1.91,14.99.2,6.29,1.94,11.81,5.94,16.64.52.63,1.08,1.25,1.51,1.94,1.45,2.31,1.2,3.62-.96,5.23-.66.49-1.4.86-2.07,1.33-3.52,2.43-5.83,5.69-6.86,9.87-.39,1.6-1.03,3.15-1.55,4.72h-.99Z"/>
  <path class="st0" d="M949.06,443.3c-1.34.45-2.46.83-3.57,1.2-2.51-2.67-5.83-3.16-9.02-3.8-7.11-1.43-14.29-2.5-21.35-4.09-15.23-3.42-29.24-9.89-42.59-17.84-5.81-3.46-10-8.45-12.64-14.7-.27-.63-.55-1.25-.83-1.88-2.19-4.99-4.07-10.18-8.84-13.59.17-.25.35-.5.52-.74,1.03.38,2.16.61,3.08,1.16,6.25,3.76,12.05,8.08,16.66,13.83,1.37,1.71,2.77,3.39,4.1,5.13,8.46,11.05,19.72,17.52,33.21,20.34,6.69,1.4,13.49,2.42,20.06,4.25,5.9,1.64,11.58,4.07,17.29,6.33,1.7.67,3.56,1.55,3.91,4.4Z"/>
  <path class="st0" d="M913.5,519.07c0,2.42.25,4.16-.04,5.81-1.61,9.24-10.02,17.18-18.91,18.02-8.02.76-12.85-3.52-13.06-11.55-.25-9.49,4.82-18.05,12.87-21.67,2.81-1.26,5.69-2.03,8.73-.76,3.16,1.32,5.08,3.67,5.58,7.05.48,3.31-1.03,5.24-4.37,5.68-.94.12-1.91-.05-2.86-.03-3.51.07-6.02,2.21-6.58,5.57-.5,2.98,1.67,4.89,4.46,3.73,1.21-.5,2.37-1.44,3.22-2.45,2.39-2.83,4.57-5.8,8.37-6.99.79-.24,1.35-1.21,2.61-2.42Z"/>
  <path class="st0" d="M376.5,311.62c3.84,6.27,10.38,3.61,16.21,5.74-2.86,1.36-5.08,2.26-7.63,2.54-5.58.61-10.17-.77-13.7-5.51-2.9-3.89-3.8-3.81-8.71-.89,1.68.5,3.23.97,4.87,1.46-.31.6-.41,1-.55,1.02-4.88.58-9.05,2.78-13.22,5.25-3.62,2.14-7.64,3.51-12.14,3.93-.31-1.29-.55-2.29-.87-3.58-2.41.27-4.81.54-7.21.81-.12-.17-.24-.34-.36-.51.73-.61,1.38-1.36,2.19-1.81,10.97-6.18,22-12.28,34.02-16.27,1.43-.47,2.92-.81,4.27-1.45,3.73-1.78,7.57-2.23,11.6-1.45,3.01.58,5.68-.18,8.06-2.11,1.47-1.2,3.02-2.3,4.53-3.44,2.5,3.15,2.37,4.66-.7,6.57-1.98,1.23-3.94,2.38-4.98,5.14,3.3.81,6.94-.08,9.83,2.19-2.76,1.08-5.31,2.14-7.9,3.06-4.13,1.48-6.23.81-9.8-3.03-1.19.47-2.42,1.04-3.7,1.42-1.27.38-2.59.57-4.13.9Z"/>
  <path class="st0" d="M294.49,259.39c6.67-2.72,13.33-5.46,20-8.15,14.16-5.72,28.87-5.52,43.65-3.74,3.25.39,6.38,1.86,9.76,2.89-.51.58-.68.93-.83.92-4.73-.34-9.17,1.07-13.7,2.06-2.33.51-4.95.56-7.27.05-8.15-1.78-15.98-1.21-23.74,1.91-3.66,1.47-7.53,2.43-11.31,3.62-.13.04-.27.04-.4.08-2.92.91-6.9,9.98-5.37,12.63.44.76,1.73,1.44,2.64,1.44,1.46,0,2.94-.52,4.37-.96,6.42-1.95,12.91-2.21,19.47-.91.48.1.93.34,2.28.86-1.54.41-2.22.72-2.91.75-4.2.18-7.99,1.57-11.64,3.59-3.22,1.78-6.48,3.61-9.92,4.86-7.09,2.56-12-1.63-10.99-9.12.2-1.49.57-2.95.86-4.43,1.11-5.77.72-6.38-4.78-7.49l-.17-.85Z"/>
  <path class="st0" d="M210.11,445.34c1.74,1.12,1.87,2.76,2.09,4.32.81,5.85-.43,11.42-2.29,16.93-.56,1.66-.9,3.4-1.28,5.12-.61,2.81-1.01,5.67-1.76,8.43-2.41,8.8-7.23,15.83-15.19,20.62-2.68,1.61-5.18,3.6-7.5,5.71-4.33,3.95-6.94,8.77-6.6,14.86.04.64-.1,1.3-.21,2.73-.83-1.12-1.37-1.63-1.62-2.25-1.08-2.66-2.07-5.36-3.08-8.04-1.1-2.92-1.12-5.86-.35-8.87.75-2.91,1.42-5.85,1.98-8.81,1.44-7.52,5.25-13.74,10.35-19.27.25-.27.64-.41,1.31-.82.18,3.28-1.75,5.56-2.51,8.18-.84,2.89-1.8,5.74-2.59,8.64-.75,2.73-1.35,5.49-1.39,8.48.71-1.11,1.4-2.23,2.12-3.34,1.41-2.19,3.35-3.62,6-3.83,6.21-.48,9-4.61,10.53-9.96.67-2.36.96-4.82,1.45-7.24,1.31-6.55,4.62-12.28,7.59-18.12,1.99-3.91,3.36-7.76,2.55-12.18-.06-.31.21-.68.41-1.3Z"/>
  <path class="st0" d="M202.95,385.38c-.62,2.7-1.23,5.41-1.86,8.11-2.13,9.18-4,18.43-7.68,27.19-1.18,2.81-1.17,5.84-.53,8.88.88,4.14,1.38,8.38,2.4,12.48.88,3.55,1.92,7.14,3.48,10.43,2.41,5.08,2.71,10.01.08,14.96-2.46,4.64-4.04,9.52-5.07,14.66-.42,2.08-1.52,4.08-2.59,5.96-.36.64-1.69,1.22-2.36,1.03-.62-.17-1.28-1.39-1.31-2.17-.06-1.33.19-2.74.62-4.01,1.46-4.27,2.92-8.54,4.64-12.71,1.85-4.46,1.38-8.33-1.5-12.3-7.13-9.82-9.27-20.88-5.42-32.32,4-11.9,9.08-23.43,13.73-35.1.73-1.84,1.68-3.6,2.53-5.4.27.1.54.2.82.3Z"/>
  <path class="st0" d="M425.49,662.39c-5.14-.78-9.25-.17-13.28,1.31-1.24.46-2.7.62-4.02.51-2.65-.22-4.04.93-4.87,3.36-.52,1.52-1.45,2.92-2.32,4.3-.22.35-.89.4-1.73.74-.17-1.18-.34-2.06-.4-2.94-.07-.95,0-1.92-.05-2.87-.45-7.46-3.99-9.71-11.66-7.07,4.07,3.75,7.99,7.53,6.52,14.56-1-1.21-1.55-1.73-1.92-2.35-.91-1.52-1.66-3.15-2.62-4.64-1.99-3.07-4.82-4.78-8.55-4.86-2.05-.05-4.12.07-6.15-.16-2.7-.3-3.49-1.24-3.78-3.96-.07-.68-.05-1.37-.08-2.05-.1-2.62-1.35-4.42-3.86-5.22-2.99-.95-6.02-1.82-9.03-2.71-.97-.29-1.95-.54-2.9-1.35.45-.11.91-.35,1.36-.32,6.01.4,12.04.65,18.01,1.37,2.65.32,5.33,1.33,7.71,2.58,3.43,1.8,6.93,2.56,10.69,1.92,5.23-.89,10.07-.07,14.55,2.81,2.76,1.78,5.91,1.88,9.04,2.31,2.65.37,5.24,1.32,7.79,2.21.55.19.8,1.25,1.56,2.53Z"/>
  <path class="st0" d="M315.29,666.14c2.82-.36,5.93,1.62,8.82-1.18-.83-.47-1.45-.93-2.14-1.2-3.55-1.4-7.14-2.71-10.68-4.13-1.55-.62-3.46-.78-3.59-3.3-.03-.55-2.25-1.26-3.52-1.42-6.58-.84-9.97-2.67-14.76-8.42,3.12.14,5.66,1.13,8.1,2.37,2.07,1.06,3.99,2.47,6.26.28.4-.39,1.58-.15,2.34.04,2.12.52,4.27,1.03,6.31,1.81,1.54.59,4.03.59,3.13,3.57-.1.33,1.01,1.2,1.69,1.57,4.7,2.57,9.49,4.87,15.49,3.62-.06.92-.11,1.63-.17,2.42,4.01,2.32,7.9,1.05,11.45-1.03,3.13-1.83,5.93-2.39,9.25-.66,1.86.97,4.02,1.36,6.09,2.39-3.6.97-5.58,3.33-7.19,6.32-.72,1.33-2.28,2.21-3.97,3.77-.14-1.68-.21-2.63-.32-3.86-1.39.64-2.68,1.07-3.79,1.78-4.32,2.74-8.99,4.56-13.91,5.94-2.65.74-4.77.33-7.02-1.49,2.23-2.48,6.13-2.63,7.99-6.37-4.08,1.16-7.74,2.77-11.47.76-1.6-.86-3.19-1.74-4.78-2.62.13-.32.26-.65.4-.97Z"/>
  <path class="st0" d="M210.53,335.05c-2.68-1.48-3.16-3.31-3.21-5.26-.2-7.83,1.69-14.91,7.44-20.61,3.65-3.62,7.45-7.02,12.08-9.61-2.41,4.05-5.49,7.67-6.66,12.79,2.14-.29,3.08-1.61,3.88-2.89,2.41-3.85,5.82-6.47,9.78-8.53,4.49-2.35,8.94-4.75,13.4-7.15,2.7-1.45,5.53-2.19,8.65-2.16,5.04.04,6.4-1.38,6.51-6.22.07-3.36.76-4.31,2.99-4.11,2.74.24,5.02,2.91,4.1,5.48-.86,2.41-1.49,4.85-2.17,7.3-.53,1.89-2.09,2.78-4.09,2.82-18.39.38-31.78,10.39-43.86,22.85-2.98,3.08-4.96,6.85-6.47,10.87-.55,1.45-1.46,2.77-2.35,4.44Z"/>
  <path class="st0" d="M309.41,355.9h8.34c.06.16.11.33.17.49-2.7,1.36-5.59,2.46-8.05,4.17-2.43,1.7-4.68,3.82-6.56,6.12-1.93,2.36-3.31,5.16-5.11,8.06-1.14-2.84-1.6-5.41-.24-7.97.93-1.77.46-3.02-.84-4.37-1.42-1.47-2.56-3.2-3.89-4.77-1.83-2.16-2.81-2.27-5.24-.67-.68.45-1.4.91-1.93,1.52-4.46,5.17-10.68,7.44-16.55,10.35-4.02,1.99-7.83,4.39-11.78,6.53-2.83,1.54-5.73,2.96-8.84,4.1,1.3-3.28,3.65-5.67,6.26-7.63,5.11-3.83,9.87-8.28,16.37-9.91,1.34-.34,2.52-1.56,3.61-2.56.79-.72,1.46-1.67,1.94-2.63,3.22-6.42,9.12-7.68,15.46-8.17,1.81-.14,3.22.52,4.22,1.99.54.79.94,1.67,1.45,2.47,1.91,2.98,3.32,3.09,4.86-.15,2.54-5.32,7.44-6.25,12.66-7.82-.19,2.79-2.6,3.43-3.47,5.1-.88,1.68-1.69,3.39-2.86,5.73Z"/>
  <path class="st0" d="M262.38,380c-8.04,9.73-7.59,14.43-8.12,21.62,5.26-1.87,10.27-3.83,14.17-7.9,2.3-2.4,3.09-5.47,3.57-8.58.68-4.42,3.02-7.88,5.97-11,3.65-3.87,8.44-5.12,13.34-6.05.14.26.29.51.43.77-.94.68-1.8,1.55-2.84,2-6.93,3.04-10.08,8.88-11.88,15.76-.17.66-.37,1.32-.46,2-1.11,8.51-6.67,13.63-14.12,16.03-6.85,2.2-9.75,7.76-10.07,13.85-.12,2.3.25,4.63.46,6.94.12,1.33.36,2.66.62,4.5-4.1-.95-4.99,2.71-7.53,4.34,2.08-6.09-.21-12.57,2.33-18.55.89-2.1.28-4.18-.62-6.32-1.36-3.25-2.27-6.69-3.28-10.08-.17-.56.14-1.26.27-2.26,2.82,1.13,2.45,4.36,4.82,5.84.36-7.4-.39-15.07,6.68-20.06,1.89-1.33,3.57-2.87,6.27-2.86Z"/>
  <path class="st0" d="M659.58,590.66c13.94-4.72,26.76-10.21,41.08-10.09,5.58.05,11.22-.46,16.74-1.34,8.02-1.28,14.55,1.24,20.13,6.75,1.84,1.82,3.4,3.93,5.15,5.85,1.56,1.72,3.1,3.47,4.81,5.04,3.06,2.82,6.49,4.55,10.83,2.48-.94,3.64-2.92,5.26-6.42,4.67-2.36-.4-4.81-1.28-6.79-2.61-2.58-1.73-5.09-3.82-7.01-6.25-5.38-6.78-12.56-9.25-20.82-9.81-9.12-.61-18.02.55-26.81,2.79-9.63,2.45-19.45,2.85-29.3,3.15-.24,0-.49-.19-1.58-.64Z"/>
  <path class="st0" d="M266.96,301.7c-3.99,8.53-10.28,14.88-17.15,20.82-3.69,3.19-7.24,6.75-10.07,10.7-4.79,6.69-5.27,14.13-1.61,22.57.91-1.86,1.55-3.11,2.15-4.38,1.85-3.88,4.78-6.61,8.71-8.29.37-.16.79-.24,1.19-.28.25-.02.52.11,1,.23-1.8,4.65-3.49,9.32-5.42,13.88-1.13,2.67-2.93,4.93-5.54,6.42-3.82,2.18-6.34,1.29-7.26-3.03-1.22-5.74-2.24-11.54-2.98-17.35-.65-5.1.92-9.74,4.22-13.73.87-1.05,1.68-2.17,2.65-3.13,8.58-8.45,17.5-16.52,27.69-23.05.78-.5,1.61-.93,2.42-1.39Z"/>
  <path class="st0" d="M232.32,634.37c-1.77,1.3-3.54,2.61-5.32,3.91.05.14.09.29.14.43,1.78-.4,3.56-.83,5.35-1.2,5.81-1.2,10.87.06,14.87,4.67.63.72,1.33,1.39,1.92,2.14,5.52,6.99,13.09,9.78,21.63,9.96,4.98.11,9.12,1.39,12.37,5.25,2.12,2.52,4.87,3.88,8.16,4.29,1.7.21,3.37.75,5.04,1.54-3.49,2.45-7.4,2.69-11.18,1.79-2.86-.68-5.65-2.09-8.15-3.68-3.33-2.11-6.79-3.6-10.68-3.87-4.55-.3-8.45-2.16-12.12-4.64-1.7-1.15-3.32-2.42-4.99-3.62-2.26-1.62-4.7-2.59-7.54-2.94-4.32-.53-8.59-1.5-13.33-2.36,2.74-2.55,6.23-.69,8.89-2.72-2.3-.97-4.44-1.22-6.74-.75-2.27.46-4.56.9-6.87,1.12-1.72.16-3.34-.43-4.06-2.18-.69-1.69-.14-3.28,1.09-4.53,3.03-3.09,6.64-4.51,10.87-3.88.22.42.44.84.66,1.26Z"/>
  <path class="st0" d="M501.15,274.28c-3.75.33-7.49.71-11.25.97-3.96.28-7.93.34-11.87.72-2.82.27-5.43-.18-8.01-1.26-3.65-1.52-7.38-1.86-11.38-.01,3.05.99,6.11,1.97,9.64,3.11-5.76,3.2-25.33,1.04-46.33-4.69.37-.3.62-.66.93-.73,7.49-1.61,15-3.14,22.48-4.8,6.82-1.51,13.66-1.01,20.43,0,9.47,1.41,18.88,3.16,28.32,4.72,1.6.26,3.26.22,4.87.43.78.1,1.53.48,2.3.74-.04.26-.08.53-.12.79Z"/>
  <path class="st0" d="M272.04,301.79c6.11-.62,12.12-.29,17.64,2.89,1.36.79,2.33,2.25,3.47,3.41.79.8,1.59,1.6,3.12,3.15.34-2.2.53-3.33.68-4.46.42-3.23,1.58-4.82,4.61-4.64,5.63.35,10.39-2.08,15.31-4.05,4.57-1.84,9.05-3.88,13.57-5.82.96-.41,1.97-.74,3.69-1.37-1.93,3.68-5.58,4.41-7.47,7.38,3.8-.51,6.93-3.26,11.63-2.43-1.27,1.1-1.91,1.91-2.75,2.35-4.54,2.36-8.55,5.39-11.97,9.21-3.06,3.42-6.71,4.33-11.14,2.92-2.02-.64-4.29-.9-6.41-.78-2.32.14-3.98,1.46-4.52,4.03-.41,1.94-.61,4.29-3.23,4.7-2.56.4-3.96-1.49-5.38-3.15-1.16-1.35-2.21-2.79-3.36-4.14-3.79-4.48-8.5-7.22-14.46-7.63-1.04-.07-2.06-.37-3.09-.56.02-.34.05-.67.07-1.01Z"/>
  <path class="st0" d="M341.11,293.49c1.05-2.38,2.88-2.28,4.64-2.2,3.14.14,5.84-.83,8.12-3.17-3.94,1.45-7.78.7-11.65-.19-3.79-.87-7.6-.87-11.34.37-7,2.32-13.99,4.66-20.99,7-1.48.5-2.95,1.02-4.43,1.53-.14-.26-.29-.52-.43-.79.61-.61,1.13-1.37,1.85-1.79,5.52-3.3,11.03-6.61,16.64-9.75,4.39-2.46,9.18-3.48,14.23-3.22,1.09.06,2.19.05,3.28.13,7.26.53,13.42-1.92,18.72-6.8.77-.71,1.64-1.29,2.69-2.11,1.78,3.35,2.95,6.48,2.71,9.99-.21,3.02-1.35,5.66-3.92,7.34-5.31,3.47-11.23,4.94-17.55,4.66-.83-.04-1.65-.62-2.58-.99Z"/>
  <path class="st0" d="M483.65,671.83c4.03-2,8.35-3.05,12.85-3.37,2.46-.18,4.93-.11,7.39-.21,3.57-.14,6.29-1.54,7.69-5.08.55-1.38,1.29-2.75,2.22-3.9,2.25-2.77,5.16-2.94,7.89-.66,3.42,2.86,3.57,2.93,7.4.65,1.52-.9,2.96-1.99,4.23-3.21,1.16-1.12,2.21-2.48,1.55-4.33-1.46-1.27-2.55-.02-3.74.48-2.9,1.23-4.78.67-6.28-1.86-1.48-2.5-1.11-5.21,1.56-6.25,3.51-1.37,7.29-2.24,11.03-2.77,2.51-.35,4.1,1.9,4.12,4.49.05,6.86-2.71,11.99-8.61,15.71-10.63,6.69-21.87,11.22-34.65,11.16-3.42-.02-6.84.29-10.26.39-1.43.04-2.87-.07-4.31-.11-.03-.38-.07-.76-.1-1.14Z"/>
  <path class="st0" d="M253.04,273.9c5.72-4.29,26.49-12.41,32.41-12.21-2.86,1.36-5.79,2.6-8.58,4.1-2.76,1.49-5.38,3.24-8.04,4.86,2.74,2.7,6.07,4.91,7.85,8.01,1.74,3.03,1.9,6.96,2.63,9.99,3.22,1.34,6.36,2.51,9.38,3.95,1.88.9,3.45.71,4.9-.61,5.78-5.25,12.81-6.84,20.93-7.18-1.87,1.73-3.72,2.4-5.54,3.02-5.69,1.93-10.14,5.29-12.99,10.66-.44.83-1.04,1.63-1.72,2.28-1.54,1.49-3.08,1.52-4.72.13-.73-.62-1.33-1.38-1.97-2.09-1.85-2.06-4.15-3.05-6.92-3-2.05.04-4.11.17-6.16.03-2.4-.17-2.89-1.11-2.56-3.53.33-2.4.57-4.85.53-7.27-.07-3.65-2.13-6.29-5.33-7.66-2.97-1.28-6.18-2.03-9.32-2.87-1.39-.37-2.87-.38-4.79-.61Z"/>
  <path class="st0" d="M163.74,396.92c-2.7-.74-5.1-1.4-8.09-2.22,2.34-1.2,4.42-2.33,6.55-3.34,1.85-.87,3.71-1.84,5.68-2.36,4.86-1.28,6.59-4.79,7.43-10.1-2,.95-3.54,1.58-4.98,2.38-2.99,1.66-5.87,3.54-8.92,5.07-2.26,1.13-4.7,2.08-7.55,1.24.1-2.14,1.67-2.69,2.83-3.46,5.59-3.7,11.12-7.5,16.88-10.93,3.52-2.1,4.85-4.55,4.3-8.74-.56-4.29-.12-8.72-.12-13.24,1.39-.85,2.85-1.73,4.73-2.88,0,1.53.16,2.6-.03,3.61-1.09,5.7.06,11.15,1.7,16.56.24.79.45,1.58.72,2.36,1.66,4.89.59,8.79-3.86,11.78-2.56,1.72-4.09,4.36-5.24,7.21-.56,1.39-1.2,2.76-1.94,4.07-.65,1.15-1.81,2.17-3.02,1.28-2.75-2.03-4.53-.5-6.39,1.27-.29.27-.68.43-.68.43Z"/>
  <path class="st0" d="M340.94,683.98c.43.5.5.64.61.7,5.2,2.87,5.19,3.72-.32,7.57-.81-1.34-1.61-2.67-2.68-4.42-1.21,1.76-2.24,3.26-3.37,4.91-1.04-.61-1.93-1.14-3.13-1.84,2.03-3.47.87-6.35-2.38-9.2,1.97-.75,3.28-1.37,4.65-1.74,3.29-.9,6.66-1.56,9.92-2.55,4.92-1.5,9.34-3.73,12.19-8.38,1.98-3.23,4.95-4.61,8.78-3.57,6.08,1.64,12.2,2.99,18.56,2.86,2.2-.04,4.12.87,4.9,3.04.76,2.12-.01,3.96-1.91,5.54-.98-1.21-1.87-2.31-2.97-3.67-.97,1.32-1.74,2.36-2.65,3.59-2.6-1-5.21-2.07-7.87-3-2.5-.87-5-1.91-7.58-2.26-1.42-.19-3.19.61-4.48,1.45-1.19.79-2.3,2.09-2.85,3.41-1.48,3.56-4.38,4.59-7.78,5.11-2.69.42-5.36.99-8.03,1.55-.48.1-.89.48-1.63.9Z"/>
  <path class="st0" d="M118.81,547.49c.61,1.17,1.14,2.41,1.86,3.51,2.37,3.67,4.62,7.44,7.28,10.88,2.44,3.16,5.53,5.55,9.7,6.44,4.18.89,6.2,4.33,7.68,7.93,1.4,3.41,2.48,6.95,3.67,10.44,4.91,14.41,5.48,13.13,16.7,20.52,1.03.67,2.18,1.2,3.09,2,1.32,1.16,1.12,2.44-.43,3.25-.71.38-1.53.66-2.33.75-2.21.26-3.82,1.23-4.26,3.5-3.52-1.04-3.62-1.34-2.5-6.76-.3-.21-.59-.56-.95-.63-4.63-.97-7.32-4.01-8.85-8.27-1.85-5.14-3.77-10.27-5.48-15.46-2.15-6.55-6.43-11.29-12.01-15.11-3.04-2.08-6.03-4.29-8.75-6.76-4.71-4.27-5.87-9.84-5.36-15.87.31-.13.61-.25.92-.38Z"/>
  <path class="st0" d="M111.87,556.56c2.02.05,2.27,1.6,2.75,2.8,2.26,5.73,6.17,9.93,11.56,12.85,1.68.91,3.24,2.04,4.87,3.06,6.72,4.23,10.54,10.34,11.15,18.21.68,8.68,5.68,13.89,13.08,17.42.35.17.66.42,1.14.73-.8,4.52-5.58,4.77-8.54,7.56-.12-1.52-.36-3.04-.33-4.55.04-1.82-.45-3.23-2.16-4.05-5.53-2.63-7.67-7.72-7.77-13.12-.18-8.97-5.22-14.36-11.9-18.92-2.26-1.54-4.75-2.73-7.05-4.2-5.91-3.79-8.03-9.42-7.68-16.2.01-.27.1-.55.22-.78.12-.23.33-.41.67-.81Z"/>
  <path class="st0" d="M304.08,656.91c-.08,4.49,5.49,3.26,6.89,6.91-.83.07-1.33.19-1.82.13-4.07-.48-8.14-.96-12.2-1.52-3.48-.48-6.51-2-9.2-4.23-2.42-2.01-4.82-4.04-7.27-6.02-2.1-1.69-4.6-2.87-7.22-2.33-6.58,1.36-11.91-1.45-16.76-5.04-4.1-3.04-7.58-6.93-11.79-10.87,1.25.24,1.98.28,2.64.51,2.96,1.05,5.89,2.19,8.86,3.22,3.01,1.04,5.78,2.42,7.99,4.82,2.17,2.35,4.86,2.62,8.24,1.92-1.71-4.04-5.72-5.05-8.2-7.72,7.73,2.1,14.74,5.53,20.83,10.7,1.56,1.33,3.15,2.68,4.44,4.25,3.33,4.03,7.48,5.8,12.66,5.17.4-.05.81.03,1.89.09Z"/>
  <path class="st0" d="M309.46,268.59c2.66-7.95,8.46-11.54,18.16-10.74-1.63,1.23-2.78,2.1-4.4,3.32,3.13.59,4.88-.45,6.57-1.92,3.78-3.27,6.51-3.96,12.5-3.12-2.45,2.02-4.67,3.84-7.44,6.12,3.02.56,5.01.09,6.48-1.66,2.22-2.63,5.02-3.53,8.35-3.59,2.57-.05,5.12-.49,8.28-.81-1.3,1.45-2.21,2.79-3.43,3.74-4.23,3.31-8.87,5.99-14.01,7.57-2,.62-4.39.84-6.41.39-7.79-1.71-15.44-1.86-23.06.79-.45.16-1.03-.05-1.59-.09Z"/>
  <path class="st0" d="M286.71,449.27c-.74-3.55-3.11-3.49-6.56-2.48,2.59-3.54,2.24-6.8,2.58-10.01.39-3.75,1.58-7.43,2.66-11.08.34-1.14,1.43-2.05,2.52-2.89,1.03,4.55-3.02,8.24-1.6,12.6,1.84-1.84,3.5-4.05,5.66-5.49,2.24-1.49,4.92-2.36,7.49-3.27,3.88-1.37,7.01-3.66,9.37-7.01,2.75-3.92,5.48-7.86,8.23-11.78.59-.84,1.2-1.66,1.8-2.48.28.12.56.24.84.36-.79,2.65-1.3,5.43-2.44,7.92-1.7,3.73-3.81,7.27-5.8,10.86-1.75,3.16-4.49,5.07-7.93,6.09-1.83.54-3.67,1.12-5.41,1.88-2.47,1.08-4.14,2.82-5.01,5.58-1.02,3.24-2.63,6.3-3.98,9.44-.32.75-.65,1.5-.97,2.24-.48-.16-.96-.32-1.44-.49Z"/>
  <path class="st0" d="M423.85,345.8c.53,4.65.7,8.49,1.45,12.2,1.12,5.49,2.66,10.88,4.02,16.32.46,1.86.95,3.71,1.31,5.59.34,1.79-.23,3.2-2.51,4.27-.52-1.62-1-3.1-1.48-4.57-1.95-5.98-3.78-12.01-5.94-17.91-.79-2.16-1.5-4.85-4.83-4.82-3.18.02-5.95.54-7.59,3.74-1.81,3.53-3.8,6.96-5.7,10.44-.26.48-.4,1.02-.67,1.5-.65,1.16-1.2,2.89-2.9,2.1-1.6-.75-.92-2.37-.43-3.63,2.74-7.06,6.5-13.57,10.95-19.66,1.42-1.95,3.42-2.96,6.02-2.93,1.4.02,2.82-.75,4.22-1.21,1.22-.4,2.43-.85,4.06-1.43Z"/>
  <path class="st0" d="M453.97,654.22h-18.64c-.32.48.9,2.74-1.41,2.37-1.33-.21-2.64-.55-4.48-.94.64,1.36,1.09,2.33,1.89,4.02-1.47-.59-2.31-.85-3.08-1.25-2.31-1.2-4.48-2.72-6.9-3.63-2.24-.84-4.72-1.05-7.1-1.54-1.84-.38-3.88-.39-5.5-1.21-5.9-2.98-12.14-4.1-18.65-4.17-.81,0-1.62-.09-2.42-.14,0-.25-.01-.38,0-.49.02-.13.03-.35.1-.37.51-.17,1.03-.43,1.54-.44,6.02-.04,12.07-.4,18.06.04,5.15.38,10.24,1.69,15.93,2.68-.57-.91-.86-1.38-1.32-2.11.54-.13,1-.37,1.43-.33,5.99.62,11.99,1.13,17.95,1.98,2.94.42,5.87,1.28,8.66,2.33,1.39.53,2.44,1.95,3.93,3.2Z"/>
  <path class="st0" d="M507.44,273.59c4.31.74,7.97,1.14,11.49,2.04,3.57.91,7.08,2.14,10.49,3.53,8.02,3.28,11.34,10.93,8.65,19.15-1.21,3.7-3.58,5.85-7.47,5.85-4.29,0-8.58-.31-12.93-.88,1.65-2,3.86-2.59,6.03-3.2,1.31-.37,2.69-.51,4.03-.77,3.08-.59,4.74-2.53,5.24-5.54.51-3.05.06-5.89-2.82-7.53-2.96-1.68-6.12-3.03-9.21-4.49-1.95-.92-3.78-.3-5.48.68-3.62,2.09-5.52.37-6.41-2.85-.47-1.7-.92-3.4-1.62-6.01Z"/>
  <path class="st0" d="M193.88,523.89c.2-.43.3-.96.61-1.28,3.65-3.73,7.66-6.95,12.31-9.44,2.23-1.19,4.49-2.74,6.07-4.67,9.88-12.07,15.64-25.87,16.66-41.53.06-.95.14-1.91.31-2.85.07-.36.42-.66.93-1.41,2.81,5.66,1.68,11.13.59,16.51-1.09,5.42-2.52,10.77-4.01,17.03,2.23-3.04,4.01-5.47,5.79-7.89.22.09.44.18.65.27,0,.71.21,1.49-.03,2.11-2.11,5.44-5.1,10.19-10,13.68-3.32,2.37-6.26,5.26-9.43,7.83-2.22,1.8-4.39,3.75-6.87,5.1-4.35,2.37-8.93,4.32-13.57,6.53Z"/>
  <path class="st0" d="M153.94,507.65c.33,1.38.54,1.87.55,2.37.08,8.34.51,16.7.12,25.02-.63,13.14,2.02,25.54,7.01,37.57.56,1.35,1.1,2.71,1.95,4.8-2.36-1.19-2.86-2.89-3.71-4.28-2.19-3.61-4.13-7.41-6.64-10.79-3.95-5.33-5.64-11.23-5.2-17.71.67-9.82,1.56-19.63,2.42-29.43.23-2.59.99-5.03,3.5-7.54Z"/>
  <path class="st0" d="M452.31,299.71c-1.23.42-1.86.8-2.5.82-3.48.11-6.98.03-10.45.24-1.3.08-2.59.68-3.82,1.18-1.72.7-3.34,1.88-5.53.97,1.29-6.76,3.64-12.49,10.46-15.55,4.75-2.14,9.41-4.24,15.41-4.34-1.07,1.17-1.78,1.94-2.68,2.94,2.27-.13,4.32-.25,6.89-.4-2.08,4.65-4.8,7.5-9.44,7.9.56,2.1,1.07,4,1.67,6.26Z"/>
  <path class="st0" d="M417.96,507.53c4.01,1.9,8.21,3.49,11.97,5.8,3.77,2.32,7.1,5.36,10.62,8.08-.16.32-.32.65-.48.97-1.04-.3-2.12-.5-3.11-.92-6.28-2.69-12.5-5.49-18.8-8.13-7.31-3.06-14.78-5.65-22.84-6.06-.01-.29-.02-.58-.04-.86,1.21-.2,2.42-.58,3.64-.58,5.96,0,11.63-1.42,17.25-3.22,2.86-.92,5.77-1.67,8.69-2.37,8.5-2.03,14.56-1.75,23.33,1.08-2.63,1.37-5.2.59-7.6.97-2.56.4-5.15.66-7.71,1.08-2.42.4-4.84.86-7.23,1.41-2.52.59-5,1.32-7.5,1.99-.06.25-.12.5-.19.75Z"/>
  <path class="st0" d="M830.26,356c-2.43,1.44-3.78.85-4.96-.2-.91-.81-1.75-1.75-2.46-2.74-1.35-1.89-2.78-3.77-3.85-5.82-5.3-10.19-13.76-16.86-23.89-21.67-8.03-3.81-16.13-7.5-24.19-11.24-.83-.38-1.64-.8-2.45-1.2l.14-.84c1.5.14,3.01.18,4.49.43,9.04,1.54,17.16,5.5,25.12,9.8,3.85,2.08,7.64,4.28,11.47,6.4,5.32,2.94,9.29,7.11,11.91,12.63,2.37,5,3.7,10.58,8.67,14.44Z"/>
  <path class="st0" d="M396.08,413.77c2.19.21,3.85.36,5.62.53,2.23,2.5,4.57,5.15,6.94,7.78,2.59,2.87,5.49,3.27,8.93.88-.52-8.03,2.41-15.33,5.9-22.52,1.36-2.81,2.24-5.85,3.35-8.78.41-1.09.87-2.17,1.31-3.25.32.06.64.12.96.18-.35,2.41-.46,4.88-1.09,7.2-.93,3.42-2.1,6.78-3.4,10.07-1.86,4.67-2.46,9.47-2.28,14.45.1,2.86.15,5.75-.21,8.58-.48,3.77-1.45,4.15-4.87,2.67-1.37-.6-2.78-1.13-4.22-1.53-8.47-2.36-13.07-8.62-16.93-16.26Z"/>
  <path class="st0" d="M530.24,514.42c-2.41,7.93-5.53,14.14-10.99,19.09-2.69,2.44-5.61,3.98-9.17,3.87-10.24-.33-19.82-2.87-27.47-10.05-4.47-4.2-9.24-7.64-15.05-9.6-.72-.24-1.38-.68-2.01-1.63.68-.09,1.42-.4,2.03-.23,7.04,1.89,13.72,4.52,19.6,8.99,2.81,2.14,5.82,4.07,8.91,5.77,3.28,1.81,6.94,2.35,10.7,2.34,5.27-.02,9.57-1.99,12.89-6.05,2.94-3.59,5.82-7.24,8.74-10.85.33-.4.77-.71,1.82-1.67Z"/>
  <path class="st0" d="M312.45,677.19c4.97,1.98,9.86.3,14.71,2.11-3.06,2.96-6.2,3.25-9.7,2.89-3.92-.4-7.91-.8-11.83-.55-3.93.24-7.81,1.28-11.71,1.96-4.01.71-9.91-.46-13.46-2.74,1.15-1.5,2.9-1.26,4.37-1.63,7.54-1.9,15.1-3.73,22.63-5.64,1.04-.26,2.19-.66,2.95-1.37,3.22-2.99,6.67-2.11,10.59-1.01-1.98,3.22-5.15,4.26-8.56,5.98Z"/>
  <path class="st0" d="M420.93,280.41c3.76-.53,7.7-2.72,9.59,2.56h9.35c-1.22,3.13-4.37,2.82-6.19,4.36-1.94,1.63-3.82,3.33-5.9,5.16-.46-1.02-.89-1.96-1.37-3.04-1.24-.54-3.21,1.12-4.19-1.19-.17-.41-2.03-.39-2.98-.11-1.23.36-2.33,1.18-3.97,2.07.5-1.73.84-2.93,1.19-4.18-4.22-.4-6.21,1.03-12.92,9.24-.07-.99-.12-1.66-.18-2.48-1.3.17-2.58.34-4.47.59.61-1.28.85-2.16,1.38-2.8,4.12-5.05,9.36-8.76,14.88-12.06,2.57-1.54,3.41-1.12,5.78,1.88Z"/>
  <path class="st0" d="M745.2,585.55c1.99-.94,3.48-1.84,5.08-2.36,9.95-3.26,19-8.31,27.87-13.74,4.44-2.72,8.75-5.59,12.21-9.58.67-.77,1.62-1.29,2.87-1.58-.44.75-.83,1.54-1.34,2.23-4.9,6.6-10.01,13.01-16.5,18.16-5.63,4.46-11.61,8.34-19.06,8.72-3.11.16-6.25-.3-9.36-.56-.42-.04-.8-.56-1.77-1.28Z"/>
  <path class="st0" d="M335.62,660.66c.21-1.7.31-2.45.47-3.73-5.37-.99-11.33-.5-16.68-4.98,8.09,1.03,15.31,1.77,22.51-.57-.37-1.18-.63-2.02-.89-2.84.41-.21.67-.46.87-.42,3.88.69,7.72,1.63,11.62,2.06,4.41.48,8.06,2.45,11.48,4.98.75.55,1.66,1.99,1.42,2.59-.88,2.23.17,3.6,1.83,4.92-.18.21-.36.41-.53.62-1.77-.81-3.68-1.41-5.29-2.47-2.08-1.36-3.99-2.51-6.7-2.5-2.37,0-4.73-1.15-7.13-1.58-2.48-.45-4.79,0-7.01,1.47-1.53,1.02-3.45,1.45-5.99,2.45Z"/>
  <path class="st0" d="M162.42,315.29c0,.86.22,1.79-.04,2.55-.65,1.94-1.46,3.84-2.31,5.7-1.56,3.43-2.3,6.99-2.03,11.86,2.45-3.52,4.39-6.3,6.33-9.09.3.13.59.26.89.38-.53,2.13-.89,4.32-1.63,6.38-1.25,3.46-1.75,6.85-.34,10.39.35.87.27,1.89.49,2.82,1.62,6.9-2.16,12.12-9.67,14.17-1.33-2.12.06-3.64,1.22-5.11,2.36-2.99,3.86-6.32,3.95-10.15.04-1.54-.38-3.09-.61-4.79-4.33.59-7.92,2.6-12.61,1.92,1.88-1.91,3.77-2.64,5.56-3.39,1.86-.78,2.53-1.98,2.03-3.86-.76-2.85.16-5.38,1.38-7.89,1.25-2.58,2.35-5.24,3.61-7.82.75-1.54,1.69-2.98,2.54-4.47.42.13.83.26,1.25.39Z"/>
  <path class="st0" d="M730.41,597.72c-.15.14-.36.49-.52.46-14.73-2.65-29.6-2.18-44.45-1.88-.16,0-.32-.39-.76-.95,1.13-.55,2.13-1.2,3.23-1.55,4.93-1.6,9.83-3.38,14.86-4.59,3.54-.85,7.26-1.22,10.91-1.23,4.22-.02,7.93,1.69,11,4.75,1.78,1.78,3.79,3.32,5.73,5Z"/>
  <path class="st0" d="M295.12,269.3c0,.68.11,1.39-.02,2.04-.28,1.35-1.18,1.77-2.45,1.25-.37-.15-.73-.42-.99-.72-1.22-1.48-2.58-1.91-4.3-.79-1.72,1.13-2.35,2.76-1.83,5.01.75,3.25,3.55,5.58,7.03,5.93,1.48.15,3.04.22,4.38.77,1.88.77,1.99,2.63.19,3.31-4.02,1.52-8.26,1.95-12.47.93-.78-.19-1.74-1.5-1.83-2.38-.4-4.15-2.52-7.46-4.72-10.79-2.6-3.93-1.9-5.44,2.61-6.64,2.22-.59,4.42-1.41,6.47-2.45,5.8-2.96,7.79-1.86,7.93,4.52Z"/>
  <path class="st0" d="M368.57,408.87c.45-3.68.86-6.93,1.25-10.1,2.5-.05,2.81,1.55,3.06,2.76.36,1.71.71,3.62.28,5.24-1.17,4.39.6,8.51.51,12.81-2,.38-3.18-1.14-4.57-2.33-2.82-2.41-3.23-2.4-6.59-.13-3.57-3.44-5.05-7.87-5.72-12.62-.1-.7.91-1.56,1.87-3.08-.52-3.16-1.19-7.26-1.86-11.36.27-.14.55-.29.82-.43,1.15,1.56,2.18,3.24,3.48,4.66,1.78,1.95,2.62,4.1,2.9,6.75.31,2.97,1.63,5.64,4.58,7.83Z"/>
  <path class="st0" d="M449.37,659.76c-2.48,2.01-4.15,3.36-6.24,5.06,4.13,1.89,8.24,1.66,12.1,2.45,3.77.77,7.63,1.08,11.72,1.63-2.14,1.45-4.59,1.7-6.92,1.83-9.42.54-18.85.92-28.28,1.31-1.22.05-2.51.03-3.66-.3-.94-.27-2.05-.9-2.48-1.69-.25-.47.45-1.85,1.09-2.36,6.34-5.02,13.35-8.26,22.67-7.93Z"/>
  <path class="st0" d="M474.62,673.67c-2.58.68-5.13,1.68-7.76,1.97-13.44,1.49-26.89,2.89-40.36,4.09-2.65.24-5.51-.15-8.07-.93-5.33-1.61-6.41-5.99-2.73-10.08,1.14-1.27,2.49-2.37,4.34-3.09-.68,1.41-1.49,2.78-2.02,4.24-1.22,3.34-.01,5.38,3.48,5.78,1.61.19,3.27.01,4.91-.08,4.36-.24,8.72-.46,13.08-.79,7.34-.56,14.68-1.22,22.02-1.78,4.31-.33,8.63-.55,12.94-.81.06.49.11.98.17,1.47Z"/>
  <path class="st0" d="M236.14,651.28c6.16-.3,11.28.26,15.35,4.86,1.38,1.56,3.49,2.61,5.44,3.51,2.22,1.02,4.63,1.66,6.98,2.37,6.41,1.93,12.87,3.74,18.58,8.08-3.72,1.22-7.22.41-10.65-.73-3.5-1.17-6.91-2.59-10.4-3.81-3.01-1.05-6.11-1.53-9.29-.83-1.87.41-3.46.09-4.83-1.41-3.22-3.53-6.53-6.98-9.81-10.46-.34-.36-.66-.75-1.37-1.57Z"/>
  <path class="st0" d="M287.77,455.42c.32-.56.54-1.22.97-1.67,3.08-3.2,6.7-5.75,10.92-7.04,2.26-.69,4.89-.7,7.26-.37,6.8.93,12.85-.7,17.98-5.11,4.76-4.09,9.2-8.56,13.77-12.87.93-.88,1.8-1.81,3.12-3.14.8,3.25-.04,5.43-1.57,7.14-8.79,9.83-19.2,17.03-32.47,19.39-1.33.24-2.73.29-4.08.21q-8.8-.55-15.91,3.47Z"/>
  <path class="st0" d="M404.07,568.38c-2.08,4.86-1.5,7.74,2.78,11.81.4.38,1.04.63,1.2,1.08.35.96.87,2.17.56,2.98-.31.79-1.62,1.76-2.4,1.69-2.69-.24-5.44-.61-7.95-1.53-1.13-.41-2.2-2.14-2.48-3.44-.59-2.78-.86-5.67-.86-8.52,0-3.27.41-6.54.71-9.8.16-1.77.3-3.76,2.57-4.1,1.83-.28,3.59,2.02,3.97,4.3.27,1.6,1.04,3.11,1.9,5.54Z"/>
  <path class="st0" d="M493.04,654.12c-2.72,1.29-3.82-.83-5.88-1.97-.39.82-.8,1.68-1.4,2.93-2.27-3.84-4.6-6.11-8.69-4.99.22,1.52.42,2.92.73,5.05-3.62-2.85-7.19-2.37-10.67-2-4.16.43-7.91-.45-11.23-2.95-1.03-.77-1.87-1.79-2.79-2.7.12-.28.25-.57.37-.85,3.5.5,7,.99,10.91,1.55-.42-1.06-.64-1.59-.9-2.23.34-.15.69-.43,1.03-.44,4.93-.06,9.86-.11,14.79-.12,4.59,0,8.69,1.29,11.67,4.97.87,1.07,1.36,2.46,2.05,3.75Z"/>
  <path class="st0" d="M397.82,304.21c3.14-1.69,5.87-2.66,7.94-4.41,2.03-1.72,3.38-4.25,5.07-6.38,1.19-1.5,2.69-1.77,4.37-.82,2.06,1.17,4.23,1.57,6.63,1.73,2.05.13,4.03,1.31,6.3,2.11.47,1.95-.35,3.56-1.93,4.82-1.98,1.58-8.97,4.01-12.23,4.38-.24-.57-.49-1.16-.8-1.87-2.85,1.54-5.61,1.68-8.7.56-1.75-.63-3.91-.11-6.66-.11Z"/>
  <path class="st0" d="M354.82,377.46c1.3.08,1.92.11,2.74.16-.13-3.15-1.69-6.35.36-10.36,1.63,5.07,2.01,10.05,6.3,12.81,4.82-2.56,5.37-2.35,8.6,3.51-.21.08-.55.25-.92.37-.36.12-.73.2-1.44.4.62,3.26,1.23,6.45,1.87,9.79-1.3,1.07-3.47-1.24-4.31.96-.51,1.34-.76,2.78-1.92,4.29-.29-1.06-.96-2.19-.8-3.18.43-2.54-.65-4.41-2.45-5.7-4.32-3.09-5.64-7.88-8.05-13.04Z"/>
  <path class="st0" d="M117.55,577.01c7.72,3.82,15.16,6.89,15.89,16.67.5,6.76,3.31,12.59,8.06,17.48.98,1.01,1.64,2.32,2.44,3.5-.24.25-.47.5-.71.75-.91-.64-1.91-1.17-2.7-1.93-6.87-6.58-12.45-14.1-16.36-22.82-1.98-4.4-4.2-8.69-6.61-13.64Z"/>
  <path class="st0" d="M362.15,373.2c1.09-1.53,1.61-2.27,2.29-3.22-2.07-2.09-5.12-3.52-4.9-7.26.67-.16,1.39-.33,2.4-.57-.57-2.38-1.13-4.74-1.85-7.74,1.25.71,2.04,1.16,3.34,1.91-1.32-6.63,2.12-11.11,5.85-15.61-.32,3.17-.63,6.35-.96,9.63h3.42c-1.24,3.51-2.13,6.77-3.53,9.8-1.32,2.85-.87,5.17.76,7.66,1.47,2.23,2.63,4.66,4.42,7.87-4.26-.94-7.43-1.64-11.23-2.48Z"/>
  <path class="st0" d="M415.23,567.55c2.55.63,6,1.37,9.38,2.36,2.07.6,2.65,2.33,2.01,4.26-1.98,6-6.23,9.81-12.12,11.72-2.52.81-3.96-.59-3.42-3.29.78-3.91,1.19-7.73.22-11.7-.52-2.11.79-3.27,3.94-3.34Z"/>
  <path class="st0" d="M475.14,445.6c1.57-1.69,2.42-2.96,3.58-3.8,4.53-3.29,8.97-6.76,13.78-9.59,9.02-5.29,15.8-4.26,23.43,2.87,3.51,3.28,6.87,6.67,8.9,11.13.26.57.44,1.17.21,2.05-2.37-2.14-4.71-4.29-7.1-6.4-2.05-1.81-4.08-3.65-6.21-5.35-7.32-5.83-14.42-5.5-21.32.95-2.1,1.96-4.1,4.02-6.19,5.99-1.74,1.63-3.75,2.76-6.21,2.8-.62,0-1.25-.27-2.87-.64Z"/>
  <path class="st0" d="M520.66,494.13c-3.63,2.88-6.9,4.8-8.16,8.7.4.51.71,1.18,1.23,1.53,1.65,1.13,3.28,2.56,3.12,4.53-.23,2.79-.38,5.77-2.66,7.98-2.12,2.05-5.49,2.67-7.96,1.38-2.31-1.21-3.73-4.12-2.79-7.07,2.13-6.69,5.76-12.39,12.01-16.03.81-.47,1.76-.75,2.68-1,.49-.13,1.04-.02,2.54-.02Z"/>
  <path class="st0" d="M106.25,432.43c5.08,1.21,7.47-1.71,9.86-4.63.26.14.53.27.79.41-.21,1.23-.25,2.51-.65,3.68-1.28,3.73-1.47,7.51-.77,11.34.5,2.69-.05,5.17-1.3,7.53-1.22,2.3-2.41,4.61-3.76,6.83-.93,1.52-2.12,3.27-4.15,2.6-1.07-.35-2.11-1.73-2.54-2.87-.67-1.82-.67-3.8,1.13-5.23.43-.34.91-.61,1.35-.93,3.87-2.75,4.77-4.95,3.61-9.48-.44-1.71-1.23-3.33-1.87-4.98-.43-1.11-.88-2.22-1.7-4.27Z"/>
  <path class="st0" d="M409.32,393.66c1.57.19,2.74.4,3.92.44,1.61.07,3.24.09,4.85-.02,3.23-.21,4.55,1.03,4.4,4.27-.24,5.12-4.47,10.85-9.38,12.39-1.38.43-3,.53-4.43.3-2.67-.43-3.84-3.1-1.9-4.79,3.47-3.02,3.83-6.34,2.37-10.31-.16-.45.06-1.03.16-2.29Z"/>
  <path class="st0" d="M288.13,376.8c-1.46,3.01-2.81,5.24-3.62,7.64-.81,2.41-1.31,4.98-1.54,7.51-.23,2.57.14,5.18.04,7.77-.17,4.61-3.93,8.97-8.51,9.64-3.5.51-7.05.63-10.59.88-.33.02-.69-.26-1.5-.59.92-.75,1.51-1.42,2.24-1.8,1.69-.88,3.47-1.58,5.18-2.43,5.64-2.8,8.59-7.4,8.89-13.66.2-4.21,1.41-8.03,4.03-11.36,1.24-1.58,2.57-3.06,5.38-3.6Z"/>
  <path class="st0" d="M365.46,560.33c2.64,2.89,2.94,5.5,2.07,8.74-.81,3.04-.64,6.34-.91,9.63-.75-.43-1.75-1.02-3.11-1.81-1.76,4.13,1.92,7.77.42,11.91-3.37-1.52-4.16-5.17-6.52-7.92-1.56,2.55-2.94,4.81-4.79,7.83-.3-1.66-.47-2.48-.6-3.3-.91-5.77,3.07-9.41,6-13.46.55-.76,1.82-1.32,2.8-1.4,2.25-.19,3.04-1.58,3.41-3.45.41-2.1.77-4.2,1.23-6.76Z"/>
  <path class="st0" d="M820.94,328.58c-2.68-3.4-5.25-6.9-8.08-10.16-2.14-2.46-4.73-4.52-6.92-6.94-1.24-1.36-2.77-2.99-2.97-4.65-.45-3.61-2.3-6.35-4.23-9.16-.57-.83-1.07-1.71-1.18-3.08.67.26,1.44.4,2.01.8,5.97,4.22,11.29,8.96,14.25,15.95,1.04,2.46,2.87,4.61,4.44,6.83,2.16,3.05,3.53,6.32,2.69,10.4Z"/>
  <path class="st0" d="M258.94,330.76c-1.32,2.93-3.44,5.03-6.04,6.12-4.52,1.9-8.2,4.83-11.77,8.03-.49.43-1.09.74-1.81,1.22-1.06-1.24-.66-2.42-.26-3.51.55-1.52.96-3.23,1.94-4.45,3.86-4.78,7.86-9.45,11.92-14.07,1.76-2,3.78-3.77,6.29-5.29-.68,1.25-1.35,2.51-2.05,3.74-2.51,4.37-2.38,5.06,1.8,8.2Z"/>
  <path class="st0" d="M479.16,507.89c-16.04-4.26-23.08-19.68-16.03-35.08.23,1.22.5,1.91.46,2.59-.41,7.97,2.79,14.62,7.37,20.83,2.82,3.82,5.47,7.77,8.2,11.66Z"/>
  <path class="st0" d="M410.63,560.78c-.92-2.54-2.72-3.05-4.99-2.76-1.07.14-2.23.24-3.24-.05-.8-.23-1.99-1.05-2-1.63-.02-.86.65-2.21,1.38-2.54,3.37-1.51,6.93-2.83,10.68-2.12,5.82,1.1,10.99,3.44,13.41,9.43.49,1.22.81,2.68.64,3.95-.11.85-1.16,2.12-1.9,2.2-.99.11-2.18-.62-3.1-1.26-.45-.31-.48-1.22-.68-1.87-1.43-4.74-4.06-5.99-8.62-4.1-.37.15-.73.34-1.57.74Z"/>
  <path class="st0" d="M378.66,681.33c-1.47.6-2.45,1-3.5,1.43-1.46-.93-3.01-1.92-4.87-3.1-.4,2.19-.71,3.9-1.1,6.03-.79-.66-1.32-1.13-1.89-1.56-.63-.47-1.29-.91-1.84-1.29-.46.19-.85.22-.94.4-1.7,3.61-4.43,5.02-8.48,5.01-1.85,0-3.71,1.75-5.38,2.62-.83-1.65-1.78-3.51-2.94-5.8,1.69-.38,3.33-.98,5-1.09,4.22-.26,7.15-2.19,9.06-5.98,1.74-3.45,1.85-3.4,5.68-2.84,1.62.24,3.28.35,4.85.78,2.8.76,5.32,1.99,6.35,5.4Z"/>
  <path class="st0" d="M359.74,564.92c-2.31,2.18-3.39,5.23-7.22,7.07,1.68-3.68,2.97-6.51,4.35-9.54-.49-.17-.8-.25-1.08-.4-.2-.11-.35-.31-.14-.11,1.51-4.11,2.91-8.04,4.41-11.92.27-.71.82-1.46,1.45-1.87,3.26-2.1,6.59-4.1,10.08-6.25.49,1.46.15,3.09-.59,4.68-1.75,3.75-2.89,7.62-2.75,12.07-.81-1.53-1.63-3.06-2.91-5.48-1.23,4.73-2.23,8.58-3.3,12.71-.57-.24-1.36-.57-2.31-.97Z"/>
  <path class="st0" d="M376.81,443.14c-2.22-1.14-4.37-2.44-6.66-3.39-2.34-.96-4.83-1.57-7.26-2.33,0-.36-.02-.72-.02-1.08,1.14-.35,2.28-.7,3.59-1.11-2.99-4.94-6.19-9.81-7.45-15.52l.92-.65c1.89,1.97,3.78,3.95,6.13,6.39-.16-2.18-.27-3.62-.41-5.54,2.89,1.31,5.02,2.95,6.6,5.04.79,1.05,1.27,2.98.88,4.18-1.39,4.2.16,7.45,2.57,10.62.64.84,1.14,1.8,1.7,2.71-.19.22-.39.45-.58.67Z"/>
  <path class="st0" d="M397.26,587.88c2.01.93,3.46,1.49,4.8,2.25,1.43.81,2.09,1.93,1.56,3.77-.16.55.88,1.6,1.57,2.21,2.66,2.35,5.4,4.62,8.31,7.09-.28.44-.62.97-1.04,1.62,2.3,1.4,4.59,2.8,7.23,4.4-.79.93-1.34,1.58-1.88,2.22.48,1.25.95,2.49,1.69,4.4-1.41-.34-2.47-.27-2.99-.77-5.31-5.12-10.7-10.18-15.7-15.59-2.6-2.81-4-6.44-3.54-11.6Z"/>
  <path class="st0" d="M275.45,511.99c.17-.82.19-1.62.51-2.29,1.1-2.35,2.27-4.66,3.46-6.96.37-.71.75-1.69,1.37-1.94,2.65-1.06,3.37-3.45,4.21-5.73,2.64-7.14,3.66-14.52,3.16-22.11-.09-1.36-.13-2.72-.16-4.09,0-.22.22-.45.57-1.09.63.77,1.36,1.32,1.64,2.04,1.67,4.27,2.07,8.72,1.83,13.27-.65,12.08-5.99,21.61-15.56,28.87-.16.12-.5.02-1.05.02Z"/>
  <path class="st0" d="M481.1,284.27c.8-.84,1.47-1.89,2.42-2.48,4.82-2.95,9.88-2.98,14.91-.67,2.44,1.12,3.61,3.25,2.83,5.75-1.13,3.65-.41,6.32,2.64,8.62,1.33,1,2.2,2.54.97,4.31-.98,1.41-3.03,1.81-4.81.94-.36-.18-.91-.41-.97-.7-.85-4.17-5.16-6.8-4.7-11.76.29-3.08-1.87-4.63-5.13-4.58-2.53.04-5.06.7-7.58,1.08-.2-.17-.4-.35-.59-.52Z"/>
  <path class="st0" d="M690.51,619.54c-5.65-1.33-11.17-2.93-15.42-7.41-1.59-1.67-3.18-3.36-4.94-4.84-4.82-4.03-8.81-8.8-13.16-13.9.95-.07,1.4-.25,1.64-.1,3.72,2.29,7.68,3.03,12.09,2.87,3.11-.12,6.27,1.02,9.39,2.06-2.89,1.83-6.41-1.01-9.38,1.79,1.79,4.37,3.86,8.54,8.21,11.16,4.04,2.43,8.04,4.94,12.06,7.42-.16.32-.32.63-.49.95Z"/>
  <path class="st0" d="M510.55,646.81c-1.88.39-3.2.62-4.5.94-3.15.76-4.54,2.91-3.8,6.06.31,1.32.97,2.55,1.29,3.87.64,2.6-.75,4.3-3.43,4.11-1.2-.08-2.41-.46-3.53-.92-3.92-1.61-4.32-3.02-1.58-6.18,1.5-1.73,1.8-3.51,1.42-5.67-.89-5.04,1.33-7.48,6.42-7.12,3.13.22,5.73,1.41,7.72,4.9Z"/>
  <path class="st0" d="M370.05,625.7c-.33-1.99-.54-3.29-.85-5.16,3.09,1.81,4.65,4.18,5.36,6.83.73,2.74,2.24,4.09,4.81,4.95,2.4.81,4.64,2.11,7.61,3.5-1.47.55-2.17.81-2.87,1.07v3.27c-2.67-1.48-5-2.76-7.42-4.11-.34.4-.57.67-.8.95-.24.28-.48.55-.86,1-3.34-2.55-6.74-4.85-9.75-7.59-1.17-1.06-1.78-3.04-2.07-4.7-.36-2.12,1.01-2.95,3.09-2.08,1.12.47,2.15,1.17,3.76,2.06Z"/>
  <path class="st0" d="M421.6,385.25c-2.58-1.12-4.14-2.25-5.81-2.43-4.73-.52-9.2,1.34-13.76,2.22-1.04.2-1.74,1.98-2.69,2.94-.98,1-2.07,1.9-3.2,2.91-3.72-6.56-1.77-11.18,4.88-12.68,4.31-.98,8.65-1.24,12.98-.14,3.47.88,6.01,2.85,7.59,7.18Z"/>
  <path class="st0" d="M366.9,621.9c-1.51-1.27-3.02-2.55-4.95-4.18v6.47c-2.9-1.63-2.34-4.77-4.59-6.57-.46,1.75-.86,3.3-1.49,5.7-.68-1.42-1.34-2.17-1.34-2.92-.03-2.72-.07-5.49.37-8.16.22-1.31,1.21-3.08,2.31-3.55,2.71-1.16,4.48-2.92,5.34-6.05,1.32.72,2.36,1.28,3.23,1.76.18,2.09.35,3.96.5,5.84.03.4.22.96.03,1.18-2.57,3.06-.41,5.58.87,8.21.22.46.28,1,.41,1.5-.23.25-.46.51-.69.76Z"/>
  <path class="st0" d="M260.8,277.99c-.89,2.15-1.96,4.03-2.44,6.04-.5,2.08-1.52,3.41-3.43,4.2-6.42,2.65-12.83,5.31-19.25,7.96-.63.26-1.26.52-1.91.7-1.18.34-2.54.81-3.28-.57-.78-1.47.44-2.31,1.51-2.88,2.87-1.53,5.82-2.92,8.73-4.38,3.52-1.76,7.09-3.43,10.51-5.36,1.26-.7,2.58-1.82,3.16-3.08,1.48-3.19,3.72-3.6,6.4-2.64Z"/>
  <path class="st0" d="M420.91,607.09c-1.05-1.86-1.83-3.25-2.62-4.64-.87-1.54-.58-2.93.67-4.06,7.1-6.45,10.44-14.66,11.59-24.07.87,5.15,1.23,10.29.38,15.46-1.1,6.74-4.69,12.08-10.02,17.3Z"/>
  <path class="st0" d="M508.43,449.81c-.52,1.8.34,3.08,1.73,4.19.74.6,1.49,1.22,2.08,1.96,1.98,2.46,1.56,5.32-.98,7.1-2.58,1.81-5.9,1.41-6.93-1.48-1.36-3.8-1.84-7.9-2.68-11.88-.05-.25.06-.54.13-.8.58-2.35,2.42-4.11,4.1-3.95,1.84.19,2.7,1.79,2.56,4.86Z"/>
  <path class="st0" d="M682.38,378.91c10.1,6.48,20.11,13,32.35,14.85-5.31,2.79-10.67,1.72-15.94.03-7.85-2.52-15.21-9-16.41-14.88Z"/>
  <path class="st0" d="M366.15,600.7c-2.27-1.18-3.78-1.96-5.55-2.88-1.2,3.94-2.31,7.89-7.68,7.89-.43-2.89,3.31-3.98,2.94-7.1-1.3.56-2.34,1.01-4.22,1.82.99-1.85,1.63-3.06,2.3-4.32-.45-1.04-1.42-2.2-1.24-3.16.19-1.02,1.51-1.8,2.23-2.77,1.14-1.52,2.19-3.1,3.44-4.89,2,2.5,4.01,5,5.98,7.51.23.3.5.86.37,1.11-1.13,2.23.65,3.88,1.43,6.78Z"/>
  <path class="st0" d="M366.76,530.29c3.13-.98,5.69-1.78,8.6-2.69.72,3.83-.22,7.21-.7,10.91-2.6-.87-4.37.14-5.98,2.13-2.46,3.04-6.03,4.38-9.63,5.69,1.73-3.32,5.57-4.97,6.77-9.04-2.18.42-4.08.78-6.55,1.25,1.64-4.35,7.9-3.38,7.49-8.26Z"/>
  <path class="st0" d="M429.82,437.9c2.76-4.82,5.61-9.6,8.26-14.49,2.1-3.88,5.08-6.69,9.08-8.5,2.93-1.32,5.83-2.72,9.17-3.73-2.91,3.29-5.76,6.62-8.73,9.85-4.16,4.51-8.37,8.98-12.66,13.36-1.46,1.49-3.26,2.66-4.9,3.98-.07-.16-.14-.32-.21-.47Z"/>
  <path class="st0" d="M404.6,404.5c-.58,1.92-1.04,3.45-1.62,5.35-1.52-.2-2.83-.3-4.11-.56-3.52-.73-4.56-1.92-4.92-5.49-.24-2.3-.52-4.61-.63-6.92-.16-3.31,1.41-4.96,4.52-4.93,2.56.02,3.66,1.1,2.89,3.56-1.28,4.04-.27,6.94,3.88,8.99Z"/>
  <path class="st0" d="M395.42,449.66c1.16.1,2.34.1,3.47.32,5.73,1.1,11.43.93,17.09-.43,5.05-1.21,10.09-2.45,15.14-3.65,1.06-.25,2.18-.58,3.23-.47.96.11,1.86.78,2.78,1.2-.6.78-1.12,1.65-1.84,2.3-.48.42-1.24.56-1.89.75-8.06,2.41-16.24,3.8-24.7,2.84-3.67-.41-7.34-.74-11-1.22-.85-.11-1.63-.66-2.45-1.01.05-.22.1-.43.16-.65Z"/>
  <path class="st0" d="M406.58,538.76c3.04-2.66,6.08-5.33,9.12-7.98,2.9-2.53,5.03-1.96,5.77,1.85.75,3.86,1.01,7.81,1.55,12.34-1.42-.59-2.74-1-3.91-1.66-1.54-.87-2.91-2.06-4.47-2.87-2.55-1.32-5.2-2.37-8.07-1.67Z"/>
  <path class="st0" d="M472.39,288.41c-.86,1.17-1.21,1.65-1.68,2.3.81.37,1.6.73,3.01,1.37-3.29,1.97-6.12,3.66-9.07,5.42.55,1.32.93,2.24,1.59,3.84-4.25-.9-7.92-1.67-12.19-2.57.92-.8,1.51-1.22,1.98-1.75,1.25-1.4,2.87-2.66,3.57-4.3,1.14-2.67,3.02-3.75,5.65-3.96,2.04-.16,4.09-.19,7.13-.33Z"/>
  <path class="st0" d="M198.88,643.1c1.02-9.9,1.6-19.72,8.34-28.09,1.22,3.24,2.13,6.06.91,9.02-2.23,5.39-4.52,10.76-6.91,16.09-.5,1.12-1.55,1.99-2.34,2.98Z"/>
  <path class="st0" d="M260.31,395.86c-1.6-5.85-1.43-6.68,2.87-9.78,2.21-1.6,2.75-3.69,2.38-6.08-.85-5.6.3-5.99,5.16-7.25,1.39-.36,2.78-.74,4.87-1.3-.7,1.31-.88,2.19-1.41,2.56-2.78,1.96-3.81,4.79-4.47,7.96-1.18,5.71-4.52,10.01-9.41,13.89Z"/>
  <path class="st0" d="M536.7,492.6c2.01-3.68,4.64-5.47,7.82-6.57,1.29-.44,2.65-.65,3.98-1,4.42-1.15,5.82-3.36,4.88-7.87-.31-1.47-.85-2.88-1.23-4.34-.48-1.85-.45-1.86.9-4.26,3.11,5.18,5.03,10.36,2.6,16.31-.83,2.04-2.14,3.43-4.31,4.02-4.08,1.11-8.15,2.29-12.23,3.42-.5.14-1.05.13-2.41.28Z"/>
  <path class="st0" d="M473,304.55c1-5.22-3.51-3.77-5.59-5.41,3.73-1.73,7.1-3.41,10.57-4.87,2.83-1.19,3.85-.59,3.78,2.45-.05,2.2,1.03,2.94,2.78,3.33,3.7.83,7.42,1.62,11.18,3.15-.81.15-1.63.47-2.43.42-3.28-.19-6.55-.4-9.81-.77-3.44-.39-6.83-.8-10.49,1.7Z"/>
  <path class="st0" d="M409.62,525.84c-2.1,5.58-7.01,9.85-7.35,16.4,1.72.38,3.08.68,5.49,1.21-4.41,3.3-8.05,6.03-11.69,8.75-.25-.22-.49-.45-.74-.67,2.57-9.73,4.93-19.57,14.28-25.69Z"/>
  <path class="st0" d="M433.58,549.14c.16.59.5,1.2.45,1.78-.32,4.12,1.44,7.29,4.04,10.35,4.84,5.71,5.41,12.23,1.8,19.61-.33-1.27-.51-2.07-.74-2.86-.92-3.12-1.2-6.66-2.91-9.25-4.07-6.18-4.41-12.69-2.64-19.63Z"/>
  <path class="st0" d="M439.24,388.89c-.68,2.65-1.51,4.93-1.83,7.28-.83,6.04-2.95,11.61-5.93,16.86-.96,1.7-2.48,3.08-4.07,5-.26-1.07-.54-1.54-.41-1.76,3.1-5.18,3.69-11.04,4.71-16.81.45-2.52,1.22-5.03,2.22-7.39.95-2.26,2.7-3.73,5.3-3.17Z"/>
  <path class="st0" d="M407.29,344.48c-1.89,2.79-3.64,5.69-5.72,8.33-2.27,2.87-3.61,6-4.34,9.58-.89,4.41-2.23,8.74-3.42,13.09-.12.44-.49.8-1.12,1.13-.62-3.09-.67-6.13-.08-9.16.55-2.82,1.38-5.59,1.84-8.41.63-3.85,2.52-6.87,5.44-9.36,2.27-1.93,4.47-3.94,6.7-5.91.23.24.47.48.7.71Z"/>
  <path class="st0" d="M857,524.65c2.64,9.21-.55,15.72-5.6,22.2-.4-.79-.76-1.17-.69-1.43,1.03-3.79,1.17-7.49-.54-11.18-.6-1.3-.46-3.05,1.06-3.52,2.73-.86,4.06-2.95,5.77-6.06Z"/>
  <path class="st0" d="M710.35,530.16c4.61-10.94,13.28-15.93,24.82-16.65-4.34,2.54-8.8,4.9-12.97,7.69-4.11,2.75-7.91,5.96-11.85,8.96Z"/>
  <path class="st0" d="M400.32,285.57c-3.01,1.78-4.76,4.41-6.6,7.13-2.17,3.2-5,5.88-9.49,4.79-.6-.15-1.13-.58-1.62-.84,2.35-2.59,4.44-5.18,6.83-7.46,2.97-2.83,6.87-3.45,10.88-3.62Z"/>
  <path class="st0" d="M271.64,488.62c-.06-.42-.25-.83-.16-1.16,1.36-4.83,2.64-9.69,4.19-14.46.52-1.6,1.51-3.21,2.72-4.37.59-.57,2.34-.51,3.24-.07,1.28.62,1.13,2.01.49,3.22-.06.12-.09.28-.18.36-4.76,4.39-6.5,10.57-9.54,15.98-.12.21-.44.29-.76.5Z"/>
  <path class="st0" d="M294.08,366.76c-5-2.17-8.91-.28-12.77,1.97-.17-.34-.34-.68-.51-1.02,2.7-2.7,5.19-5.67,8.17-8.01,2.39-1.89,5.25-.28,5.55,2.8.11,1.15-.22,2.35-.44,4.27Z"/>
  <path class="st0" d="M403.37,613.76c-5.12-2.71-10.67-15.86-9.48-23.15,3.73,7.87,7.13,15.21,9.48,23.15Z"/>
  <path class="st0" d="M209,359.54c-.99-7.25,1.32-13.79,2.95-20.49.3,2.85.59,5.71.89,8.56.12,1.08.12,2.2.44,3.22,1.24,3.93.48,6.94-4.29,8.71Z"/>
  <path class="st0" d="M414.54,384.84c2.39-.05,4.59,1.67,4.7,3.67.1,1.89-1.77,3.53-4.16,3.66-2.26.12-4.46-1.65-4.64-3.74-.17-1.96,1.65-3.55,4.1-3.6Z"/>
  <path class="st0" d="M151.15,350.06c-1.84-1.27-3.57-2.46-5.27-3.63,2.41-.58,4.41-1.18,6.45-1.51,1.13-.18,2.74-.34,3.37.28.58.57.48,2.31.1,3.31-.9,2.34-2.15,4.55-3.45,7.21-2.04-2.04-.47-3.91-1.19-5.66Z"/>
  <path class="st0" d="M385.96,513.75c7.4-4.22,16.54-3.17,21.37,2.3-3.99-.84-7.41-1.85-10.9-2.22-3.46-.36-6.98-.08-10.48-.08Z"/>
  <path class="st0" d="M185.96,624.21c-1.35,3.66-2.19,7.36-6.64,8.21-2.32.45-4.73,1.42-6.96-1.29,4.61-2.35,8.94-4.55,13.6-6.92Z"/>
  <path class="st0" d="M240.11,405.52c-2.28-8.78.85-15.27,7.65-15.78-.77.78-1.26,1.37-1.83,1.86-2.5,2.12-3.14,4.97-3.14,8.04,0,2.25-.36,4.28-2.68,5.88Z"/>
  <path class="st0" d="M416.3,665.53c-3.53,4.3-8.71,3.97-12.46,7.28.74-6.01,3.86-7.77,12.46-7.28Z"/>
  <path class="st0" d="M291.62,273.44c1.37.75,2.89,1.13,3.59,2.1.65.91.84,2.57.5,3.68-.48,1.59-2.13,1.58-3.46,1.05-.98-.39-2.02-1.02-2.62-1.84-.64-.88-1.35-2.33-1.02-3.12.35-.85,1.87-1.21,3.01-1.86Z"/>
  <path class="st0" d="M409.25,570.15q.48,5.63-.93,8.77c-1.13-2.02-2.3-3.68-2.99-5.52-.36-.96-.24-2.53.35-3.32.93-1.25,2.4-1.03,3.57.07Z"/>
  <path class="st0" d="M401.97,388.03c.08-1.4.86-2.37,2.5-2.43,1.86-.07,3.56,1.77,3.49,3.77-.06,1.55-.74,2.62-2.44,2.66-1.77.04-3.53-1.88-3.55-4Z"/>
  <path class="st0" d="M508.3,466.59c3.28-1.64,5.58,2.88,7.95-.36.28.18.63.28.7.47.52,1.55,1.17,3.36-.32,4.51-1.79,1.39-3.29-.27-4.65-1.24-1.24-.89-2.28-2.07-3.68-3.38Z"/>
  <path class="st0" d="M329.83,690.27c-2.1-.11-4.2-.21-6.78-.34,2.26-2.14,4.21-3.97,6.15-5.8,2.81,2.3,2.88,3.07.63,6.14Z"/>
  <path class="st0" d="M419.27,566.05c-2.47-.32-4.78-.62-7.04-.91.11-3.19.74-4.15,2.44-4.23,2.24-.11,4.18,1.83,4.6,5.14Z"/>
  <path class="st0" d="M406.93,559.79c1.55-.04,2.58,1.16,2.59,3,0,1.82-1.03,3.02-2.59,3-1.49-.01-3.13-1.75-3.05-3.23.07-1.35,1.59-2.73,3.06-2.77Z"/>
  <path class="st0" d="M402.03,397.16c.49-.37,1.26-1.37,2.18-1.54,1.57-.29,3.6,1.91,3.41,3.74-.08.83-.92,2.04-1.67,2.26-1.66.5-3.87-1.79-3.93-4.47Z"/>
  <path class="st0" d="M549.09,526.75c1.49-.07,2.64,1.01,2.64,2.48,0,1.44-1.19,2.67-2.59,2.56-1.39-.11-2.26-.88-2.42-2.31-.16-1.48.88-2.66,2.37-2.73Z"/>
  <path class="st0" d="M543.94,580.32c1.19-.8,1.86-1.61,2.63-1.7,1.28-.15,2.17.8,1.81,2.04-.19.65-1.29,1.44-1.97,1.43-.68,0-1.35-.93-2.46-1.78Z"/>
</svg>