<?xml version="1.0" encoding="UTF-8"?>
<svg id="Untitled_134_xA0_Image" xmlns="http://www.w3.org/2000/svg" version="1.1" viewBox="0 0 2732 2048">
  <!-- Generator: Adobe Illustrator 30.2.1, SVG Export Plug-In . SVG Version: 2.1.1 Build 1)  -->
  <defs>
    <style>
      .st0 {
        fill: #fff6cc;
      }
    </style>
  </defs>
  <path class="st0" d="M1564.54,1106.72c-7.64-3.57-14-6.39-20.2-9.5-4.96-2.49-7.48-6.56-6.38-12.28,6.18-32.08-2.04-62.81-8.43-94.25h-19.93c4.69,23.93,5.18,47.24,4.09,72.71-9.85-6.55-18.52-11.79-26.46-17.97-1.86-1.45-1.7-6.08-1.7-9.24,0-9.31.45-18.61.57-27.92.03-2.31-.39-4.65-.88-6.92-1.96-9.02-3.01-9.38-12.23-8.34-21.51,2.42-41.45,9.41-60.38,19.65-1.75.94-3.61,2.11-5.5,2.27-10.45.91-20.92,1.55-31.34,2.27-.11-.75-.32-1.22-.17-1.39,12.95-15.6,25.48-31.47,45.26-39.45,31.25-12.6,63.55-19.99,97.26-19.75,11.54.08,23.19,2.03,34.56,4.29,12.01,2.38,24.03,5.34,35.54,9.48,23.68,8.51,45.31,21.01,64.46,37.4,43.44,37.18,72.19,83.15,82.36,139.96,1.17,6.54,2.19,13.13,2.96,19.73.28,2.4-.38,4.92-.75,8.8-10.38-3.53-18.95-7.75-26.51-13.43-2.18-1.64-2.32-6.6-2.55-10.09-.94-13.92-1.45-27.87-2.37-41.79-.19-2.89-.74-6.21-2.34-8.49-8.77-12.53-17.88-24.82-26.98-37.11-.87-1.18-2.43-1.85-5.42-4.02,9.01,30.46,13.41,59.48,9.81,90.39-2.91-.56-5.42-.81-7.79-1.55-4.11-1.29-8.06-3.11-12.2-4.29-8.88-2.55-9.12-3-9.17-12.49-.15-31.74-2.39-63.18-13.42-93.39-5.28-14.45-11.74-20.87-28.93-26.54,1.78,5.75,2.83,10.82,4.88,15.45,14.46,32.69,12.71,66.79,9.84,102.02-9.88-1.97-18.33-5.29-26.25-10.07-3.57-2.16-4.41-5.56-4.09-9.5,2.24-27.84-1.43-55.18-7.39-82.27-1.5-6.79-3.88-13.39-5.75-20.11-1.58-5.68-4.67-9.3-11.03-9.78-3.51-.26-6.94-1.52-11.3-2.54,2.34,12.61,4.74,24.24,6.61,35.95,1.94,12.14,3.95,24.31,4.83,36.55.88,12.28-.8,24.47-5.19,37.58Z"/>
  <path class="st0" d="M1522.53,1393.76c-2.05-3.88-3.61-6.24-4.6-8.83-1.54-4.03-2.3-8.4-4.1-12.3-3.37-7.3-.81-12.2,4.5-17.59,9.79-9.91,18.76-20.64,27.99-31.1,1.3-1.47,2.64-3.19,3.17-5.02,4.82-16.68,7.24-33.73,7.9-52.63-7.13,5.77-8.69,13.55-13.07,19.34-4.42,5.84-8.4,12.02-12.97,17.74-4.77,5.97-9.8,11.78-15.12,17.27-5.06,5.22-10.65,9.93-16.71,15.51-1.93-2.62-3.67-4.48-4.82-6.65-2.33-4.39-4.24-9-6.53-13.41-3.15-6.08-2.82-7.35,1.58-12.27,13.28-14.89,27.4-29.19,39.23-45.17,9.21-12.44,15.69-26.94,22.93-40.77,1.37-2.62,1.24-6.44.72-9.53-1.12-6.68-2.95-13.25-4.72-20.88-11.06,18.5-20.03,36.35-31.7,52.22-11.57,15.72-26.66,28.57-42.5,41.38-5.61-8.07-8.87-16.27-11.36-24.78-1.23-4.21.22-7.74,3.73-10.59,22.55-18.32,38.8-41.94,54.86-65.69,1.86-2.75,3.55-5.67,4.9-8.69,7.51-16.81,9.22-13.05-4.15-30.67-10.69,15.26-21.27,30.48-31.97,45.61-9.56,13.51-21.74,24.25-35.66,33.05-1.36.86-3.07,1.16-5.45,2.02-2.59-7.03-5.15-13.79-7.56-20.59-1.93-5.43-.33-9.83,4.38-13.05,26.97-18.42,42.95-45.94,60.99-73.08-5.02-4.43-9.85-8.69-15.06-13.29-12.96,20.52-29.66,36.87-47.93,54.28-2.39-11.45-4.56-21.01-6.32-30.65-.88-4.78,3.27-6.83,6.17-9.49,6.36-5.84,12.7-11.7,18.92-17.68,1.66-1.6,2.95-3.61,4.26-5.54,5.78-8.49,5.4-9.43-2.87-16.03-16.12-12.86-34.36-21.47-53.87-27.67-1.9-.6-4.18-.75-5.62-1.92-8.68-7.02-17.17-14.28-27.47-22.93,7.43-.48,12.64-1.13,17.85-1.1,12.91.07,25.88-1.71,38.52,3.25,42.08,16.53,78.62,40.65,105.97,77.23,23.44,31.34,36.67,66.8,41.4,105.59,4.81,39.49-.78,77.68-14.13,114.86-6.46,17.97-16.74,34-27.35,49.76-2.97,4.41-6.17,8.68-9.42,12.9-1.74,2.25-3.81,4.23-6.88,7.6Z"/>
  <path class="st0" d="M1252.13,1179.12c-15.54-10.9-30.19-21.28-44.95-31.49-13.92-9.62-24.98-21.9-34.08-36.04-1.02-1.58-1.47-3.52-2.53-6.17,7.39-2.63,14.1-5.35,21.02-7.39,4.68-1.38,9.31-.83,12.42,3.82,16.21,24.23,40.18,39.5,63.76,55.22,2.49,1.66,5.06,3.21,7.64,4.73.53.32,1.26.3,2.79.63,3.81-4.28,7.93-8.89,12.47-13.99-20.13-13.06-36.7-29.59-54.42-48.28,4.94-.96,7.98-1.55,11.01-2.14,2.94-.57,6.04-.74,8.79-1.8,10.59-4.1,17.82-1.42,24.23,8.43,6.72,10.33,16.45,18.13,28.89,23.83,8.97-10.63,17.36-21.3,23.04-33.75,4.27-9.36,7.68-19.12,11.45-28.71.85-2.16,1.12-4.76,2.52-6.45,6.71-8.14,13.72-16.04,20.65-24.06.67.68,1.43,1.09,1.47,1.55,1.52,20.21,3.82,40.31-4.74,59.93-13.49,30.88-30.75,59.21-55.23,82.49-23.94,22.77-51.52,39.93-83.71,48.67-12.82,3.48-25.76,7.24-38.88,8.67-22.49,2.45-45.24,3.35-67.69-.68-31.01-5.57-60.92-14.46-87.34-32.49-9.34-6.38-18.6-12.88-27.82-19.45-1.24-.89-1.98-2.49-3.66-4.7,2.48-1.64,4.36-3.39,6.58-4.25,4.64-1.81,9.58-2.86,14.19-4.74,6.44-2.63,11.08-1,16.03,3.85,9.96,9.75,20.58,18.84,31.08,28.02,2.19,1.92,4.89,3.96,7.62,4.44,15.38,2.68,30.83,4.92,46.27,7.24,1.1.16,2.29-.28,3.71-1.25-25.87-15.09-49.56-32.37-68.59-56.72,2.33-1.59,4.32-3.22,6.55-4.4,4.39-2.34,8.96-4.34,13.38-6.63,6.12-3.18,7.09-2.87,12.2,1.74,13.34,12.03,26.78,23.95,40.31,35.76,12.96,11.3,28.21,18.84,43.8,25.67,11.22,4.91,21-.87,31.21-5.46-11.81-6-24.21-11.09-35.27-18.25-10.81-6.99-20.67-15.65-30.2-24.39-9.71-8.91-18.93-18.44-27.57-30.67,8.84-3.56,16.69-6.83,24.63-9.87,4.67-1.78,8.31-.02,11.4,3.74,18.67,22.69,42.45,39.26,66.69,55.22,4.69,3.09,10.08,5.12,15.05,7.81,5.31,2.88,10.06,2.48,14.77-1.4,2.54-2.09,5.55-3.6,9.07-5.83Z"/>
  <path class="st0" d="M1483.51,870.46c2.61,1.8,5,3.38,7.33,5.06,16.46,11.87,33.47,23.08,49.14,35.92,8.34,6.83,14.41,16.45,21.33,24.96,1.39,1.71,1.95,4.09,3.27,6.98-7.6,2.77-14.66,5.54-21.86,7.88-5.08,1.65-9.15-.43-12.07-4.72-18.36-27.03-45.96-42.87-72.95-60.92-4.57,5.14-8.86,9.97-13.36,15.04,20.47,12.93,36.92,29.55,54.21,47.95-11.37,2.37-20.93,4.53-30.56,6.3-4.79.88-6.83-3.27-9.5-6.15-6.09-6.57-12.21-13.14-18.45-19.57-1.6-1.65-3.64-2.91-5.59-4.19-7.65-5.02-8.75-4.68-14.61,2.67-13.06,16.37-22.16,34.74-28.15,54.73-.57,1.91-.81,4.17-2,5.62-7.01,8.6-14.25,17.01-21.92,26.07-.85-1.95-1.42-2.76-1.54-3.64-.23-1.64-.03-3.35-.29-4.98-5.11-32.64,6.7-60.88,22.93-87.92,14.89-24.81,33.32-46.59,56.57-64,31.35-23.47,66.63-37.72,105.5-41.48,19.1-1.85,38.72-2.32,57.75-.17,41.04,4.62,78.87,18.72,111.79,44.49,2.88,2.25,6.1,4.08,8.95,6.36,2.19,1.74,4.05,3.9,6.72,6.52-2.94,2-4.64,3.53-6.62,4.41-2.42,1.06-5.1,1.51-7.63,2.32-16.04,5.14-13.61,7.79-28.14-7.02-8.81-8.98-19.02-16.6-28.65-24.78-.99-.84-2.25-1.51-3.49-1.86-16.72-4.68-33.77-7-51.92-5.91,6.31,3.75,12.76,7.29,18.88,11.31,6.12,4.02,12.09,8.32,17.81,12.89,5.98,4.77,11.79,9.8,17.28,15.12,5.21,5.06,9.92,10.64,15.52,16.72-2.71,2-4.57,3.74-6.75,4.9-4.39,2.34-8.99,4.26-13.41,6.53-6.02,3.1-7.2,2.8-12.22-1.78-12.05-10.98-24.26-21.78-36.42-32.64-12.81-11.45-27.79-19.39-43.09-26.9-6.86-3.37-13.56-5-21.04-2.51-4.86,1.62-9.88,2.78-14.95,5.2,17.67,9.88,36.52,16.94,51.67,30.22,14.77,12.95,28.3,27.1,41.27,42.88-8.1,5.27-16.2,8.74-24.72,11.23-4.21,1.23-7.78-.02-10.65-3.55-18.11-22.29-41.39-38.45-64.85-54.35-3.29-2.23-7.14-3.67-10.38-5.97-11.32-8.06-20.82-4.88-30.16,4.71Z"/>
  <path class="st0" d="M1449.69,827.33c-3.16,7.02-5.52,12.84-8.36,18.42-4.17,8.2-6.86,9.97-16.08,7.78-21.83-5.19-70.4,2.81-92.15,10.13.42,5.94.85,12.07,1.27,18.02,12.09-1.2,23.58-2.79,35.13-3.36,11.58-.57,23.22-.13,36.06-.13-1.27,2.7-1.96,4.72-3.08,6.46-3.25,5.04-7.23,9.69-9.87,15.01-3.3,6.64-8.08,7.51-14.79,6.89-9.24-.85-18.61-.8-27.9-.46-4.5.16-8.95,1.87-13.97,3-.47,13.56,2.05,25.92,6.02,37.83,3.46,10.38,8.34,20.28,12.65,30.38.91,2.14,2.75,4.1,2.97,6.27,1.09,10.78,1.79,21.6,2.74,33.89-2.8-1.89-4.52-2.74-5.86-4.01-7.28-6.85-15.02-13.33-21.49-20.88-5.11-5.96-9.55-12.9-12.66-20.1-13.88-32.19-21.64-65.87-20.42-101.04,1.15-33,8.85-64.46,25.31-93.5,7.41-13.06,14.85-26,24.65-37.5,37.59-44.11,83.92-73.35,141.48-83.52,8.39-1.48,16.92-2.25,26.92-3.56-.63,3.89-.56,6.47-1.5,8.62-1.99,4.57-4.82,8.78-6.73,13.38-2.66,6.4-6.96,8.7-13.96,8.76-13.94.12-27.88,1.17-41.81,2.08-2.9.19-6.25.66-8.51,2.24-12.79,8.97-25.33,18.31-37.9,27.6-.98.72-1.52,2.03-3.69,5.03,30.48-9.1,59.48-13.53,90.48-9.91-.82,3.5-1.39,6.61-2.29,9.62-1.05,3.5-2.55,6.86-3.57,10.37-2.68,9.14-2.85,8.71-12.36,9.24-20.58,1.15-41.28,1.95-61.64,4.89-13.35,1.93-26.32,6.99-39.2,11.41-3.71,1.27-7.09,4.73-9.6,7.98-3.81,4.93-6.73,10.56-8.91,17.69,4.22-1.25,8.64-2.03,12.62-3.81,32.58-14.57,66.73-13.89,101.15-10.76.94.09,1.83.66,3.87,1.44-3.38,8.02-6.57,15.98-10.08,23.79-1.83,4.07-5.33,5.66-9.83,5.28-28.19-2.35-55.85,1.48-83.28,7.44-6.8,1.48-13.36,3.99-20.08,5.87-5.86,1.64-8.88,5.31-9.42,11.4-.28,3.22-1.27,6.38-2.16,10.63,12.4-2.29,23.96-4.65,35.61-6.5,12.14-1.93,24.32-3.94,36.56-4.85,12.3-.91,24.49.84,37.65,5.06Z"/>
  <path class="st0" d="M1259.75,1281.19c3.89-9.43,6.76-16.85,10-24.1,2.07-4.62,5.61-6.84,11.11-6.74,13.27.25,26.7,1.12,39.8-.47,18.77-2.28,37.33-6.43,55.94-9.97,10.6-2.01,17.21-7.9,17.56-19.38.04-1.29.56-2.57,1.13-5-3.35.47-6.13.81-8.89,1.25-20.35,3.24-40.62,7.3-61.09,9.4-10.4,1.07-21.17-1.24-31.74-2.3-2.51-.25-4.9-1.6-8.11-2.71,3.38-7.22,6.26-13.9,9.6-20.34,2.53-4.88,6.59-7.18,12.41-6.03,19.26,3.79,38.48,2.37,57.6-1.11,12.07-2.19,24.08-4.71,36.85-7.23-.32-6.93-.6-13.11-.92-20.1-23.72,5.14-47.28,5.05-72.72,4.65,6.58-9.99,11.76-18.04,17.14-25.96,3.34-4.93,8.37-2.63,12.86-2.63,10.26,0,20.59.68,30.76-.31,11.01-1.08,10.92-2.33,9.67-13.58-2.32-20.88-9.39-40.08-19.11-58.5-1.23-2.32-2.52-4.87-2.76-7.41-.93-9.9-1.44-19.84-2.12-29.78.62-.09,1.52-.5,1.85-.23,17.94,14.99,34.58,30.41,42.6,53.93,9.68,28.38,16.1,57.09,16.13,86.97.01,12.18-2.12,24.49-4.41,36.52-2.23,11.7-5.12,23.4-9.11,34.61-8.46,23.71-20.92,45.35-37.25,64.56-36.57,43.03-81.94,71.56-137.81,82.38-7.51,1.45-15.09,2.59-22.69,3.52-2.06.25-5.13-.13-6.19-1.45-1.01-1.26-.55-4.37.24-6.26,1.79-4.29,4.64-8.15,6.23-12.49,3.07-8.36,8.86-10.86,17.23-9.73,14.41,1.96,28.54-1.17,42.75-2.85.33-.04.67-.07.99-.15,9.33-2.2,38.34-24.09,44.25-33.8-29.2,8.46-58.19,13.38-89.11,9.14.46-2.61.66-5.08,1.36-7.41,1.44-4.76,3.22-9.41,4.74-14.15,1.99-6.25,3.55-7.93,9.9-7.53,20.78,1.3,41.38-.89,61.67-4.49,14.63-2.59,28.77-7.98,43.12-12.18,1.26-.37,2.73-.88,3.51-1.82,5.69-6.78,11.16-13.72,14.23-24.18-20.24,6.59-38.41,15.37-58.54,16.36-19.55.96-39.07.62-60.68-.92Z"/>
  <path class="st0" d="M1356.41,1023.72c-24.55,2.82-47.86,4.44-70.69-7.23-26.07-13.33-50.55-28.43-71.17-49.21-22.11-22.3-38.72-48.36-48.47-78.24-4.83-14.8-8.97-30.15-10.73-45.56-5.97-52.23,1.11-102.34,28.67-148.2,6.85-11.4,14.59-22.26,22.17-33.2,1.37-1.98,4.76-4.82,5.79-4.32,2.26,1.1,4.06,3.87,5.2,6.35,1.52,3.29,1.74,7.21,3.39,10.41,4.53,8.77,1.13,14.52-5.36,20.88-9.71,9.51-18.26,20.2-27.19,30.49-1.26,1.46-2.23,3.37-2.76,5.24-4.6,16.41-7.14,33.11-6.5,50.68,15.55-25.53,32.41-49.81,57.39-68.78,1.7,2.8,3.3,5.15,4.6,7.65,1.85,3.53,3.31,7.27,5.23,10.74,4.55,8.21,4.35,8.52-2.44,15.21-19.77,19.47-37.69,40.45-51.24,64.85-1.78,3.2-3.29,6.54-4.9,9.84-7.27,14.9-7.16,22.8,1.29,40.14,6.32-12.49,11.26-24.69,18.31-35.51,7.21-11.07,15.97-21.28,25-30.99,8.95-9.64,19.08-18.2,30.1-28.55,3.95,9.79,7.25,17.67,10.31,25.63,1.79,4.66.07,8.37-3.69,11.44-22.77,18.61-39.18,42.52-55.33,66.64-.92,1.38-1.73,2.85-2.53,4.31q-9.39,17.17,2.16,34.45c1.63-2.18,3.14-4.13,4.58-6.13,12.03-16.76,23.34-34.1,36.36-50.06,7.02-8.61,16.89-14.92,25.62-22.08,1.67-1.37,4.05-1.88,6.91-3.15,2.6,7.08,5.21,13.48,7.29,20.04,2.07,6.52-.28,11.21-6.04,15.25-26.08,18.29-41.63,45.24-59.05,71.57,5.18,4.67,9.78,8.82,14.83,13.38,12.87-20.2,29.62-36.63,48.14-54.5,1.36,6.82,1.66,12.06,3.47,16.71,4.99,12.82,1.88,21.59-10.05,29.16-9.49,6.02-16.34,15.43-21.58,27.03,10.26,8.79,20.71,16.91,32.78,22.54,9.63,4.49,19.75,7.91,29.66,11.8,2.16.85,4.73,1.21,6.43,2.61,8.13,6.73,16.03,13.75,24.02,20.67Z"/>
  <path class="st0" d="M1252.42,1056.22c14.68-.05,28.04-2.58,40.87-7.21,9.67-3.49,18.91-8.2,28.34-12.34,2.12-.93,4.22-2.35,6.42-2.56,10.24-.95,20.51-1.56,30.74-2.28.21.8.7,1.69.47,1.96-15.25,18.21-31.07,34.94-55.04,42.75-27.15,8.85-54.41,15.55-83.02,15.58-35.24.04-68.72-7.59-99.49-25.1-12.4-7.06-24.9-14.38-35.92-23.35-44.65-36.33-73.99-82.36-85.24-139.27-1.55-7.83-2.69-15.74-3.82-23.65-.88-6.12,1.92-8.48,7.4-6,6.06,2.74,11.84,6.08,17.76,9.13,5.6,2.88,5.42,8.12,4.9,13.07-1.44,13.76.24,27.29,2.6,40.75.72,4.14,1.87,8.59,4.16,11.99,7.24,10.75,15.05,21.14,22.81,31.53,1.65,2.2,4.03,3.86,6.68,5.41-7.9-28.97-12.73-57.96-8.67-88.79,2.65.29,5.22.21,7.55.91,4.77,1.42,9.31,3.68,14.13,4.82,5.51,1.31,8,4.27,7.6,9.85-1.51,20.76.81,41.36,4.41,61.65,2.59,14.63,7.96,28.77,12.19,43.1.46,1.55,1.23,3.37,2.45,4.28,6.8,5.06,13.42,10.54,23.52,13.59-6.36-20.24-15.38-38.37-16.31-58.5-.91-19.57-.87-39.14,1.01-60.04,9.74,2.85,18.42,5.67,26.3,10.6,3.81,2.39,4.83,6.07,4.27,10.42-3.14,24.49,1.14,48.48,5.34,72.4,1.66,9.45,4.78,18.65,7.16,27.98,1.77,6.93,5.77,10.95,13.27,11.23,2.84.1,5.64,1.1,9.44,1.9-.69-3.76-1.23-6.6-1.72-9.45-4.53-26.18-11.88-52.06-8.94-79.04.74-6.82,2.34-13.54,3.78-21.57,8.05,3.75,14.71,6.6,21.13,9.92,5.28,2.73,7.28,7,6.08,13.28-3.69,19.25-2.13,38.48,1.35,57.6,1.79,9.82,3.79,19.6,5.82,29.37.45,2.19,1.39,4.28,2.25,6.84,6.59-.49,12.76-.96,19.13-1.44-5.04-23.64-5.27-46.98-4.41-72.17,9.81,6.45,18.18,11.61,26.16,17.32,4.64,3.33,2.79,8.62,2.02,13.02-1.86,10.67-1.52,21.23.58,31.77.51,2.58,1.43,5.08,2.48,8.72Z"/>
  <path class="st0" d="M2153.61,1337.38c5.51-.59,9.02-1.02,12.54-1.33,57.48-5.17,105.63-28.72,142.24-73.74,9.38-11.54,16.67-24.85,24.27-37.74,5.21-8.85,10.46-18,13.57-27.7,3.62-11.32,5.64-23.3,7.08-35.15,2.75-22.56,3.02-45.24-1.47-67.64-1.27-6.35-3.64-13.02-7.35-18.24-7.31-10.27-15.24-20.3-24.12-29.22-23.45-23.56-50.18-42.73-80.63-56.37-19.38-8.68-40.1-11.77-60.98-14.33-24.05-2.95-47.95-1.44-71.65,2.44-22.7,3.72-42.64,14.74-62.15,26.38-1.14.68-2.16,1.56-3.27,2.29-8.75,5.78-13.25,4.83-18.84-3.96-4.2-6.6-4.01-10.77,2.31-15.61,8.97-6.87,18.16-13.58,27.85-19.35,22.89-13.61,47.52-21.96,74.3-24.33,26.69-2.36,53.15-2.85,79.4,3.31,35.61,8.35,67.11,24.62,96,47.12,46.47,36.19,68.45,85.75,78.86,141.47,6.01,32.21,1.39,63.77-13.41,93.35-6.99,13.97-13.43,28.39-22.03,41.34-30.38,45.74-73.08,72.93-127.53,80.95-12.15,1.79-24.59,1.52-36.79,3.09-13.04,1.68-20.2-5.6-28.2-17.04Z"/>
  <path class="st0" d="M589.31,1358.92c-1.95,3.13-3,5.44-4.6,7.27-15.94,18.23-27.84,38.94-37.82,60.87-7.4,16.27-10.63,33.54-12.64,51.15-3.57,31.32,1.52,61.42,10.33,91.55,13.3,45.45,44.25,76.39,80.52,103.52,9.25,6.92,20.62,7.4,31.47,8.28,39.33,3.17,77.71-1.58,114.99-14.89,20.72-7.4,38.38-19.77,55.41-33.23,20-15.82,37.2-34.37,51.55-55.37,12.18-17.83,18.25-38.35,23.6-59.03.5-1.93.78-3.92,1.22-5.87,2.48-11,12.78-14.94,21.61-7.7,2.34,1.92,3.97,6.41,3.7,9.53-2.71,32.05-11.71,62.32-30.13,88.82-17.74,25.52-38.64,48.3-64.95,65.62-30,19.75-62.64,32.15-98.28,36.53-6.93.85-13.92,1.29-20.88,1.94-26.01,2.42-51.12-1.61-75.52-10.57-18.47-6.78-36.43-14.66-53.2-25.05-33.06-20.47-57.42-47.99-70.65-85.11-6.61-18.55-13.04-37-15.55-56.64-6.62-51.85,5.89-98.42,38.4-139.42,6.82-8.6,14.62-16.41,21.39-25.04,7.93-10.1,17.97-9.02,30.04-7.14Z"/>
  <path class="st0" d="M2144.78,690.46c8.05-10.75,14.89-19.3,21.1-28.28,33.91-49.02,44.25-102.61,30.37-160.65-3.02-12.61-6.69-25.08-10.41-37.51-1.32-4.42-3.26-8.8-5.67-12.73-17.02-27.84-38.13-52.03-64.26-71.79-8.55-6.46-18.02-9.86-28.42-11.16-44.53-5.57-87.83-.08-129.5,16.16-26.12,10.18-47.58,27.84-67.88,46.81-3.16,2.95-5.8,6.44-8.92,9.45-27.12,26.16-42.29,58.5-49.34,95.08-1.86,9.66-4.76,11.65-14.54,10.34-8.84-1.18-12.07-5.06-10.96-14.37,4.4-36.73,15.85-70.59,39.83-99.61,16.19-19.6,33.31-37.99,54.66-52.2,32.56-21.67,68.23-34.21,107.1-38.02,20.65-2.02,41.27-3.12,61.59,2.08,46.95,12.01,90.15,31.12,122.37,68.97,8.53,10.02,15.98,21.51,21.52,33.44,17.8,38.3,28.13,78.24,22.53,121.08-4.34,33.22-17.12,62.8-37.74,89.01-7.4,9.41-15.86,17.98-23.4,27.29-7.92,9.77-17.84,7.79-30.05,6.65Z"/>
  <path class="st0" d="M1053.69,1810.89c.91,3.48,1.84,5.59,1.96,7.74,1.23,23.52,7,46.04,15.36,67.9,3.08,8.05,6.55,16.1,11.01,23.45,21.06,34.67,49.33,61.75,85.8,80.01,13.05,6.54,25.37,14.36,40.28,16.89,30.75,5.21,61.45,7.94,92.28,1.34,5.07-1.09,10.45-2.93,14.55-5.96,10.42-7.7,20.91-15.55,30.1-24.63,23.64-23.37,42.79-50.11,56.54-80.51,8.61-19.04,11.8-39.41,14.4-59.94,3.13-24.7,1.69-49.29-2.4-73.63-3.75-22.32-14.57-42-26.02-61.24-.68-1.14-1.54-2.18-2.27-3.29-6.03-9.05-5.29-13.32,3.27-18.95,6.67-4.39,11.66-4.08,16.43,2.47,7.64,10.47,15.32,21.03,21.67,32.29,12.05,21.38,20.05,44.27,21.33,69.04.84,16.27,2.3,32.61,1.45,48.82-.7,13.51-3.34,27.14-6.91,40.23-8.89,32.51-24.78,61.36-45.71,87.98-26.86,34.16-62.18,54.51-102.34,68.19-23.56,8.02-47.61,12.23-72.61,11.24-15.51-.61-30.53-3.56-44.79-9.21-18.86-7.48-37.46-15.65-54.44-27.09-45.87-30.89-73.73-73.31-81.87-128.13-1.95-13.13-1.75-26.56-3.15-39.79-1.32-12.57,7.23-18,16.09-25.24Z"/>
  <path class="st0" d="M1703.43,1802.6c3.49,2.86,6.74,5.59,10.07,8.21,26.99,21.3,56.25,38.28,90.5,44.5,35.28,6.41,70.29,4.88,104.51-6.81,10.68-3.65,21.77-6.49,31.83-11.41,8.87-4.34,16.78-10.78,24.76-16.77,17.95-13.47,33.53-29.34,47.19-47.19,6.73-8.79,10.14-18.58,11.46-29.35,5.35-43.84-.07-86.44-15.74-127.58-10-26.25-27.57-47.72-46.35-68.16-5.17-5.63-11.1-10.56-16.62-15.87-23.53-22.66-52.2-35.16-83.56-42.37-1.62-.37-3.26-.68-4.88-1.04-10.81-2.41-14.47-11.08-8.91-20.81,2.84-4.97,7.29-4.97,12.15-4.55,17.36,1.51,34.11,5.61,50.48,11.48,27.22,9.76,49.31,26.93,70.32,46.36,32.93,30.46,53.55,67.84,63.84,110.84,7.47,31.22,11.23,63.2,3.29,94.98-11.74,47.01-31.36,89.99-69.18,122.23-8.78,7.48-18.74,14.07-29.12,19.07-33.6,16.18-68.58,26.95-106.64,25.81-37.9-1.14-71.94-12.81-102.2-35.2-12.01-8.88-23.07-19.1-34.11-29.2-7.06-6.45-7.92-16.29-3.08-27.18Z"/>
  <path class="st0" d="M1032.94,247.45c-4.83-3.96-8.06-6.68-11.36-9.3-25.59-20.31-53.36-36.68-85.61-43.53-37.19-7.9-74.16-6.27-110.4,6.02-9.44,3.2-19.7,4.94-28.2,9.78-31.94,18.21-59.08,42.05-79.52,72.94-5.93,8.96-6.54,19.56-7.38,29.75-3.28,40.04,1.6,79.1,15.43,116.92,7.31,19.99,19.39,37.09,32.47,53.59,15.84,20,34.29,37.32,55.3,51.65,18.68,12.74,40.19,19.05,61.93,24.4,1.29.32,2.65.31,3.95.59,8.58,1.84,10.97,4.96,10.05,13.03-1.06,9.35-4.79,13.26-13.29,12.42-31.98-3.14-62.26-12.08-88.69-30.65-25.43-17.87-48.21-38.78-65.45-65.16-19.45-29.78-31.7-62.14-36.13-97.43-3.12-24.91-4.75-49.91,2.01-74.44,12.41-44.98,31.16-86.63,67.64-117.66,9.78-8.32,20.9-15.69,32.5-21.16,38.83-18.32,79.38-28.89,122.91-23.11,31.43,4.17,59.72,15.96,84.92,34.98,10.08,7.61,19.08,16.64,29.09,24.35,10.45,8.04,10.15,18.32,7.83,32.03Z"/>
  <path class="st0" d="M1680.97,237.91c-1.81-12.29-3.1-22.76-4.92-33.14-10.32-58.75-40.88-103.97-91.39-135.58-10.99-6.88-22.32-13.32-33.93-19.07-7.07-3.5-14.83-6.12-22.57-7.69-25.24-5.11-50.75-6.66-76.51-4.64-16.08,1.26-30.27,6.08-42.91,16.57-32.6,27.07-58.08,59.56-75.3,98.21-4.83,10.84-8.25,22.57-10.55,34.24-6.7,33.96-7.55,68.21-.65,102.24,4.21,20.77,14.38,39.28,25.15,57.35.68,1.14,1.55,2.17,2.29,3.27,6.47,9.63,5.36,14.5-4.56,20.1-5.93,3.35-9.69,3.14-14.12-2.27-22.12-27.01-38.37-57.04-42.57-92.1-2.33-19.41-3.21-39.2-2.45-58.72.58-14.79,3.6-29.78,7.63-44.09,9.15-32.44,25.66-60.99,46.96-87.29,26.66-32.92,61.38-52.41,100.59-65.54,15.83-5.3,31.92-8.99,48.62-10.66,25.8-2.58,50.45,1.29,74.28,11.02,8.31,3.39,16.52,7.13,24.53,11.19,62.57,31.73,99.56,81.55,106.98,152.09.97,9.26,1.1,18.61,2.14,27.86,1.43,12.65-6.3,19.28-16.73,26.66Z"/>
  <path class="st0" d="M581.33,711.04c-12.36,1.81-22.56,3.2-32.72,4.8-49.61,7.81-90.03,31.97-121.62,70.47-10.05,12.25-17.57,26.62-25.76,40.32-7.17,11.99-13.67,24.24-16.1,38.42-5.28,30.74-7.96,61.44-1.35,92.27,1.09,5.07,2.89,10.48,5.95,14.55,8.18,10.89,16.45,21.91,26.06,31.5,23.05,22.97,49.1,42.09,79.18,54.91,11.25,4.79,23.19,8.56,35.19,10.9,33.63,6.56,67.55,7.45,101.27.74,21.15-4.21,39.93-14.52,58.3-25.45,1.14-.68,2.17-1.54,3.28-2.29,9.4-6.31,14.75-4.97,19.99,4.97,3.16,5.99,2.57,10.18-3.52,14.72-9.32,6.96-18.78,13.85-28.76,19.8-28.11,16.76-58.85,24.27-91.45,24.7-18.97.25-37.81.35-56.62-3.66-39.68-8.45-74.03-26.66-105.36-52.21-32.3-26.35-51.12-60.72-64.36-99.1-8.24-23.87-12.31-48.28-11.22-73.6.65-15.17,3.64-29.85,9.16-43.79,7.47-18.87,15.61-37.49,27.09-54.45,33.43-49.39,79.56-77.44,139.05-83.16,9.27-.89,18.62-1.05,27.87-2.09,12.81-1.45,18.79,7.02,26.46,16.73Z"/>
  <path class="st0" d="M830.51,785.47c15.56.29,31.14,1.21,46.68.75,38.7-1.13,73.68-14.1,105.39-35.75,34.53-23.57,57.64-56.67,75.48-93.8,9.74-20.26,16.49-41.64,18.32-63.97,2.17-26.61,1.68-53.4-9.16-78.52-10.27-23.81-21.28-47.31-32.44-70.72-4.61-9.67-8.63-19.25-8.61-31.86,37.56,15.35,72.04,32.69,96.01,67.77-9.41,2.06-17.23.72-24.52-3.46-6.81-3.91-13.34-8.32-21.48-11.21,1.37,2.77,2.65,5.59,4.13,8.29,24.07,43.84,34.13,91.15,24.6,139.84-9.85,50.32-31.55,95.78-72.31,130.19-12.23,10.33-23.71,21.29-38.04,28.7-28.22,14.59-58.19,22.66-89.93,23.92-21.7.86-43.25-.21-64.35-6-3.39-.93-6.79-1.86-10.18-2.78.13-.47.27-.93.4-1.4Z"/>
  <path class="st0" d="M693.3,833.79c24.14-15.37,86.92-31.14,114.75-20.44-9.82,16.72-28.76,14.1-45.39,20.99,8.99,2.43,15.99,3.72,22.56,6.19,42.79,16.11,80.5,40.44,105.77,78.76,28.11,42.63,44.87,89.65,40.91,142.37-1.23,16.32-1.92,32.49-6.95,48.16-9.61,29.94-24.73,56.68-46.25,79.71-15.07,16.13-31.03,31.18-50.53,41.97-2.33,1.29-4.59,2.7-6.94,3.96-.51.27-1.25.11-3.34.25,1.68-1.87,2.59-3.27,3.84-4.23,28.99-22.45,51.56-49.88,66.25-83.7,14.42-33.19,19.27-67.61,15.2-103.5-2.92-25.7-9.22-50.55-19.71-74.06-19.41-43.48-49.16-77.58-93.94-96.23-22.71-9.46-46.05-17.43-69.32-25.47-9.58-3.31-18.21-7.74-26.91-14.72Z"/>
  <path class="st0" d="M1980.73,682.58c-15.81,38.14-33.08,72.51-67.69,96.28-2.87-9.65-.86-17.62,3.54-25.12,4.02-6.86,8.48-13.46,11.7-21.45-2.76,1.46-5.58,2.82-8.27,4.4-27.84,16.35-58.24,24.33-90.1,27.11-23.02,2-45.88,1.49-68.23-5.82-26.67-8.72-52.94-18.35-75.78-35.07-9.89-7.24-19.35-15.3-27.93-24.05-14.64-14.93-29.34-29.82-38.74-49.16-13.59-27.98-21.64-57.21-22.88-88.27-.87-21.72.24-43.28,6.05-64.39.93-3.36,2-6.68,4.5-9.58-.46,10.7-1.01,21.4-1.35,32.1-1.43,44.92,12.2,85.23,37.32,122.06,14.91,21.86,34.89,38.42,56.4,53.12,26.38,18.04,55.2,31.15,86.82,36.69,30.24,5.3,60.45,4.49,89.59-6.48,24.94-9.39,49.54-19.65,72.7-33.01,9.33-5.38,19.27-8.43,32.36-9.36Z"/>
  <path class="st0" d="M2042.34,1216.35c-37.73,16.08-74.53,27.74-115.93,20.06,10.56-17.47,29.39-14.95,44.45-21.2-12.51-4.5-24.56-8.27-36.16-13.12-27.74-11.61-51.48-29.25-72.72-50.29-13.37-13.24-23.3-28.81-31.63-45.77-9.88-20.14-18.29-40.65-23.21-62.54-3.67-16.34-5.41-32.81-3.92-49.6.65-7.28.07-14.65.55-21.95,1.57-23.68,9.29-45.54,20.27-66.36,19.75-37.43,47.77-67.07,84.04-88.9,1.99-1.2,4.05-2.29,6.14-3.31.47-.23,1.18.03,2.78.13-1.34,1.54-2.12,2.82-3.23,3.66-47.88,36.36-75.38,84.78-82.86,144.03-2.97,23.5.21,47.28,5.44,70.47,6.35,28.14,16.23,54.99,32.69,78.91,18.02,26.19,40.16,48.05,69.51,61.37,24.26,11.02,48.94,21.02,74.71,28.12,12.24,3.37,19.56,7.55,29.05,16.28Z"/>
  <path class="st0" d="M1559.56,349.67c15.57,37.59,27.92,74.31,19.92,115.84-17.46-10.25-14.86-29.22-21.82-43.69-4.65,19.51-12.2,37.43-21.85,54.44-13.92,24.54-31.19,46.42-52.99,64.51-19.51,16.19-42.59,26.01-65.79,35.09-17.64,6.9-36.13,11.65-55.26,12.85-4.64.29-9.3.59-13.95.51-10.65-.18-21.31-.38-31.94-.97-23.71-1.32-45.57-9.03-66.43-19.9-37.85-19.73-67.68-47.99-89.72-84.52-1.2-1.99-2.33-4.03-3.35-6.12-.23-.47.13-1.23.35-2.77,1.39,1.28,2.57,2.1,3.4,3.18,34.33,44.92,79.29,72.25,135.08,81.61,27.06,4.54,53.85,1.36,80.3-4.35,28.2-6.08,54.88-16.42,78.8-32.87,25.36-17.44,46.48-38.96,59.7-67.1,11.33-24.11,21.28-48.81,28.44-74.56,4-14.38,7.73-21.07,17.11-31.18Z"/>
  <path class="st0" d="M1175.69,1699.35c-16.16-37.65-27.67-74.44-20.18-115.9,17.72,10.49,15.02,29.39,21.58,45.2,1.24-3.78,2.23-6.45,2.99-9.19,13.03-46.86,39.29-85.09,77.19-115.01,19.17-15.13,41.83-24.51,64.82-32.61,8.46-2.98,17.13-5.49,25.84-7.64,15.62-3.86,31.52-4.94,47.61-4.29,19.27.79,38.5.7,57.21,6.97,29.48,9.89,56.07,24.49,78.98,45.61,16.73,15.43,32.11,31.99,43.27,52.04,1.5,2.7,2.81,5.51,2.98,8.93-7.04-7.81-13.91-15.79-21.16-23.4-31.42-32.99-69.94-52.67-114.67-60.29-29.03-4.94-57.8-2.1-86.2,4.59-26.44,6.23-51.59,15.93-74.12,31.38-26.52,18.18-48.58,40.54-61.99,70.25-10.83,23.98-20.72,48.35-27.79,73.78-3.52,12.65-6.95,18.78-16.34,29.56Z"/>
  <path class="st0" d="M1904.1,1263.68c-11.23-.51-22.46-1.33-33.69-1.49-42.97-.61-82.11,11.93-117.47,35.92-34.3,23.27-57.27,56.04-75.32,92.7-9.65,19.6-16.4,40.39-18.67,61.84-2.88,27.18-2.11,54.56,8.29,80.69,9.85,24.75,19.8,49.45,33.16,72.58,5.22,9.05,7.95,18.74,8.88,29.16-25.12-.77-86.37-43.16-95.16-65.88,18.46-4.49,29.78,10.11,45.85,17.12-2.07-4.17-3.31-6.95-4.79-9.61-24.46-44.07-34.37-91.61-24.87-140.73,9.69-50.08,31.12-95.31,71.55-129.45,10.66-9,20.24-19.1,32.64-26.02,27.47-15.33,56.68-24.77,88.11-26.53,24.98-1.4,49.94-1.29,74.29,5.87,2.46.72,4.89,1.57,7.33,2.36-.04.49-.08.97-.12,1.46Z"/>
  <path class="st0" d="M754.51,1366.13c15.72-38.13,33.08-72.71,67.94-96.29,5.18,19.64-10.12,31.11-16.53,46.58,11.89-5.72,22.3-11.56,33.3-15.87,35.96-14.09,73.22-19.69,111.71-14.63,7.54.99,15.01,2.99,22.31,5.2,27.52,8.32,54.12,18.83,77.52,35.95,8.3,6.07,16.07,12.94,23.52,20.04,7.94,7.56,15.56,15.52,22.68,23.85,15.85,18.54,25.37,40.35,32.86,63.4,9.26,28.52,9.64,57.74,8.09,87.05-.64,12.17-4.31,24.19-6.73,36.25-.29,1.45-1.36,2.74-3.09,6.08.64-12.84,1.39-23.39,1.67-33.95,1.31-49.71-14.83-93.86-45.05-132.54-10.31-13.2-23.87-24.25-37.28-34.56-33.03-25.41-70.05-42.82-111.85-47.04-26.55-2.68-53.41-1.69-78.54,9.2-23.8,10.32-47.33,21.31-70.75,32.5-9.4,4.49-18.78,8.13-31.79,8.77Z"/>
  <path class="st0" d="M1953.1,682.26c1.22-5.5,2.27-10.22,3.65-16.39-3.56,1.72-5.72,2.45-7.54,3.69-31.63,21.57-67.39,32.16-104.77,35.7-27.85,2.64-55.83-.95-82.7-10.18-36.84-12.65-69.4-32.11-96.11-60.69-27.56-29.5-44.37-64.49-51.46-104.09-3.47-19.39-5.14-39.03-2.33-58.65,1.77-12.39,4.75-24.6,8.96-36.9,0,2.65,0,5.3,0,7.95.06,16.95-.82,33.98.44,50.84,1.61,21.59,10.73,41.14,20.46,60.12,6.82,13.3,14.32,26.36,22.64,38.76,14.17,21.11,33.93,36.5,55.32,49.62,24.66,15.13,51.69,23.54,80.18,28.92,42.93,8.11,83.41.42,123.07-15.11,9.24-3.62,17.76-9.06,26.64-13.63,10.64-5.48,21.27-10.98,31.98-16.31,1.94-.97,4.24-1.2,6.82-1.9,3.95,8.21,2.57,16.24,1.45,23.94-1.1,7.52-3.17,14.97-5.62,22.18-.92,2.7-3.7,5.93-6.29,6.7-7.83,2.33-15.99,3.58-24.78,5.41Z"/>
  <path class="st0" d="M1768.42,1645.74c-4.32.87-7.48,1.95-10.68,2.06-12.5.45-24.5-2.46-36.13-6.65-2.68-.97-5.73-3.9-6.52-6.55-2.32-7.79-3.58-15.9-5.4-24.57,5.21,1.24,10.16,2.42,16.35,3.9-1.29-3.15-1.72-5.12-2.78-6.64-21.89-31.47-32.58-67.2-36.41-104.57-2.85-27.87.58-55.91,9.65-82.82,12.78-37.91,32.71-71.4,62.42-98.53,31.13-28.42,67.87-45.15,109.51-51.4,30.09-4.52,59.6-2.38,88.74,7.91-2.65,0-5.29.04-7.94-.01-3-.06-6.03.05-8.99-.34-37.2-4.94-71.44,4.5-103.73,22.06-14.88,8.09-29.59,16.78-43.28,26.7-18.56,13.45-32.15,31.76-43.87,51.26-14.74,24.52-23.32,51.17-28.29,79.42-9.86,56.07,3.53,106.86,31.86,154.91,5.22,8.86,9.22,18.45,13.7,27.74.69,1.44.92,3.1,1.78,6.13Z"/>
  <path class="st0" d="M1964.23,786.34c-4.54,4.18-8.96,8.49-13.63,12.53-14.69,12.72-28.4,26.4-37.71,43.6-5.83,10.78-10.75,22.14-15.15,33.59-8.48,22.11-15.69,44.85-17,68.51-1.08,19.54,1.1,39.27,6.04,58.43,7.48,29.02,20.9,54.96,38.11,79.61,24.44,34.99,58.04,57.13,96,73.9,9.07,4.01,18.94,6.24,28.44,9.28,11.4,3.64,22.82,7.19,34.18,10.95,2.1.7,3.93,2.21,6.83,3.89-2.64,3.61-4.35,7.48-7.3,9.68-9.3,6.93-18.99,13.35-28.69,19.71-3.14,2.06-6.48,2.61-10.17-.01-6.46-4.59-13.33-8.61-20.78-13.34,4.13-2.54,8.38-5.16,13.79-8.49-2.8-1.42-4.54-2.83-6.48-3.21-29.57-5.71-56.2-18.1-81.04-34.87-34.33-23.18-59.15-53.9-75.84-91.79-14.23-32.32-20.58-65.87-19.71-101,.69-28.15,8.85-54.44,20.54-79.66,12.22-26.36,30.14-48.76,52.04-67.61,11.03-9.49,23.89-16.87,35.92-25.21.53.5,1.06,1,1.59,1.5Z"/>
  <path class="st0" d="M1211.41,1747.14c-3.59-2.54-7.5-4.16-9.68-7.07-6.94-9.29-13.33-19-19.73-28.68-2.68-4.04-2.03-7.7,1.11-11.81,4.4-5.75,7.79-12.27,12.24-19.49,2.64,4.45,5.19,8.74,8.82,14.86,1.49-4.02,2.8-6.46,3.28-9.04,7.1-37.66,24.89-70.52,49.21-99.11,20.76-24.41,46.62-43.2,76.77-56.03,31.83-13.55,64.57-20.63,99.01-19.54,43.98,1.39,83.16,16.32,118.1,42.87,23.07,17.53,41.41,38.95,53.64,65.66-4.53-5-9.16-9.91-13.57-15.01-12.52-14.47-26.5-27.34-43.45-36.33-10.54-5.59-21.56-10.6-32.87-14.32-16.71-5.49-33.66-10.72-50.89-14.06-29.36-5.68-58.44-1.55-86.69,7.22-23.63,7.34-45.06,19.1-65.58,33.22-33.29,22.89-55.83,53.91-72.19,89.9-5.61,12.33-8.94,25.69-13.28,38.6-3.71,11.02-7.33,22.08-11.11,33.08-.5,1.47-1.66,2.71-3.16,5.08Z"/>
  <path class="st0" d="M1539.81,368.78c-2.93-4.8-5.44-8.91-8.68-14.21-1.37,2.89-2.7,4.67-3.06,6.63-7.05,38-24.65,71.31-49.1,100.3-20.24,23.98-45.37,42.68-74.75,55.53-31.02,13.58-63.02,20.7-96.79,20.99-30.67.26-59.24-8.01-86.67-20.68-26.38-12.19-48.71-30.19-67.65-52-8.86-10.2-15.66-22.19-23.4-33.37.56-.54,1.13-1.09,1.69-1.63,3.17,3.26,6.53,6.36,9.48,9.82,12.82,15.06,26.64,29.11,44.14,38.6,11.36,6.16,23.29,11.45,35.39,16.01,21.83,8.24,44.29,15.39,67.62,16.52,19.87.97,39.89-1.31,59.38-6.45,28.68-7.56,54.4-20.71,78.53-38.07,45.3-32.59,70.7-77.46,84.43-130.31,2.98-11.48,7.63-22.53,12.09-35.49,4.72,3.38,8.86,5.15,11.23,8.27,6.8,8.98,13.02,18.42,19.19,27.86,2.82,4.32,2.17,8.32-1.25,12.69-4.26,5.44-7.4,11.76-11.8,18.98Z"/>
  <path class="st0" d="M746.2,1425.01c-.77-4.35-2.42-8.26-1.91-11.85,1.64-11.48,3.89-22.88,6.31-34.22.97-4.54,3.93-6.84,9.22-7.42,7.13-.77,14.09-3.21,22.04-5.16-1.16,5.19-2.27,10.09-3.68,16.37,3.36-1.41,5.57-1.93,7.32-3.12,30.76-20.92,65.33-31.91,101.77-35.4,32.32-3.09,64.21,1.05,95.09,12.98,33.57,12.98,63.05,31.63,87.48,57.88,28.96,31.11,45.83,68.16,52.14,110.14,4.52,30.04,2.51,59.52-7.21,89.95,0-8.18-.51-14.91.09-21.54,2.5-27.42-1.43-53.68-12.6-78.94-9.85-22.29-20.7-43.97-35.49-63.46-13.68-18.04-31.18-31.84-50.2-43.63-26.07-16.16-54.69-24.78-84.95-30.23-41.75-7.53-80.7,1.04-119.1,15.52-9.58,3.61-18.37,9.34-27.54,14.07-10.34,5.33-20.67,10.69-31.08,15.88-1.99.99-4.35,1.24-7.72,2.16Z"/>
  <path class="st0" d="M643.75,869.52c3.8-5.1,5.56-8.94,8.53-11.16,9.03-6.75,18.45-13,27.87-19.2,4.36-2.87,8.36-2.13,12.72,1.22,5.67,4.34,12.14,7.65,19.01,11.87-4.79,2.91-9.16,5.56-14.37,8.72,2.54,1.32,3.87,2.47,5.35,2.73,35.28,6.25,66.21,22.26,94.37,43.57,19.48,14.74,35.81,32.91,48.59,53.83,24.58,40.23,37.06,83.86,34.84,131.22-2,42.51-16.6,80.47-42.16,114.4-17.92,23.79-40.08,42.52-67.22,55.71,3.84-3.65,7.52-7.48,11.53-10.93,15.25-13.1,29.61-27.08,39.26-44.92,5.84-10.79,10.94-22.08,15.23-33.57,7.93-21.23,14.93-42.9,16.56-65.65,1.77-24.79-1.27-49.3-8.84-72.98-7.65-23.91-19.34-45.7-33.69-66.52-23.16-33.61-54.59-56.16-90.98-72.53-12.66-5.69-26.42-8.93-39.66-13.35-11.6-3.87-23.18-7.81-36.95-12.46Z"/>
  <path class="st0" d="M967.14,403.56c9.94-4.05,18.85-1.83,27.68-.95,2.96.29,5.84,1.33,8.77,1.94,9.99,2.08,18.31,5.23,17.93,18.18-.14,5,2.75,10.09,4.57,16.19-5.61-1.21-10.51-2.26-16.64-3.58,1.21,3.14,1.57,5.09,2.59,6.58,20.49,29.78,31.15,63.38,35.4,98.69,3.48,28.89,1.03,57.89-8.08,85.87-12.26,37.66-31.58,71.06-60.5,98.53-30.09,28.57-65.84,45.85-106.54,53.01-28.21,4.97-56.31,4.86-84.1-3.06-3.36-.96-6.84-1.46-10.12-3.65,3.07,0,6.15-.17,9.21.03,24.01,1.57,48.03,2.4,71.29-5.2,10.4-3.4,20.61-7.59,30.54-12.21,20.86-9.72,41.53-20.27,58.73-35.61,14.37-12.82,26.59-28.01,36.62-44.69,15.8-26.3,24.7-54.74,30.16-85,7.46-41.39-.87-80.06-15.15-118.18-3.71-9.9-9.57-19-14.43-28.47-5.31-10.35-10.68-20.68-15.86-31.1-.98-1.98-1.23-4.32-2.05-7.31Z"/>
  <path class="st0" d="M580.87,370.31c-6.02,8.74-11.88,17.59-18.1,26.19-19.27,26.64-28.41,56.89-32.66,89.07-8.2,62.2,9.6,117.19,46.18,166.85,16.31,22.14,38.13,38.02,62.08,50.98,22.67,12.27,46.32,21.6,72.19,25.24,23.34,3.28,45.97,2.13,67.58-7.34,9.55-4.18,18.14-5.84,27.34.13,2.43,1.58,5.55,2.11,9.61,3.58-2.27,2.15-3.81,4.08-5.78,5.37-2.77,1.81-5.74,3.47-8.84,4.61-40.71,14.99-82.53,21.68-125.6,13.89-30.74-5.56-58.08-19.69-82.11-39.31-28.83-23.55-53.08-51.03-70.49-84.56-13.11-25.25-18.47-51.85-19.95-79.7-2.27-42.63,8.98-81.67,31.08-117.94,12.02-19.73,26.02-37.86,41.83-54.64,1.31-1.39,2.87-2.54,4.31-3.79.44.46.88.93,1.32,1.39Z"/>
  <path class="st0" d="M766.34,1205.48c-1.82,5.9-2.95,12.12-5.57,17.63-14.85,31.29-34.29,59.22-60.29,82.5-26.18,23.44-57.11,36.44-91.2,42.12-47.94,7.99-94.78,3.43-140.12-14.66-15.38-6.14-28.43-15.94-41.15-26.15-39.15-31.44-63.53-71.93-74.02-121.01-4.74-22.19-7.27-44.55-6.37-67.67.74,1.39,1.87,2.7,2.14,4.17,1.67,9.16,3.17,18.35,4.69,27.53,6.82,41,27.81,74.72,55.74,104.11,26.3,27.68,58.25,47.06,95.19,57.87,21.84,6.39,43.84,10.71,66.79,10.35,14.2-.22,27.73-3.29,41.32-6.43,32.56-7.52,62.46-20.74,88.37-42.24,15.41-12.79,27.48-28.17,34.55-46.94,3.68-9.75,8.86-16.89,19.56-19.13,2.8-.59,5.37-2.31,8.04-3.51.77.49,1.54.97,2.31,1.46Z"/>
  <path class="st0" d="M1461.38,2043.73c2-.59,3.96-1.34,6-1.73,12.42-2.38,24.93-4.34,37.27-7.06,34.92-7.7,63.79-26.82,89.56-50.41,29.26-26.79,49.52-59.69,60.77-97.99,5.94-20.23,10.06-40.61,10.39-61.83.32-19.98-4.24-39.03-9.49-57.93-7-25.21-17.82-48.66-33.77-69.72-14.01-18.51-30.83-33.3-52.61-41.54-9.87-3.74-16.6-9.25-19.07-19.69-.66-2.81-2.21-5.41-3.67-8.86,3,0,5.33-.47,7.37.1,4.47,1.25,8.99,2.63,13.15,4.65,29.03,14.06,55.19,32.01,77.54,55.57,27.48,28.97,41.85,63.87,47.14,102.67,6.28,46.05,1.44,91.07-16.43,134.26-7.61,18.4-20.1,33.67-33.04,48.53-30.73,35.26-69.64,56.37-115.15,65.31-17.59,3.45-35.53,5.13-53.34,7.39-4.06.51-8.25.08-12.38.08-.08-.6-.16-1.19-.24-1.79Z"/>
  <path class="st0" d="M2386.35,930.21c-1.8-9.67-3.89-19.29-5.36-29-6.07-40.07-26.03-73.22-52.55-102.54-26.62-29.44-59.42-49.84-97.65-61.25-18.89-5.63-37.93-9.84-57.75-10.75-20.64-.95-40.45,3.2-60.04,8.54-26.2,7.14-50.7,17.93-72.63,34.48-18.55,14-33.3,30.81-41.71,52.46-3.79,9.76-8.9,16.83-19.45,19.27-2.84.66-5.45,2.25-8.56,3.58-2.3-8.23,1.15-15.01,4.6-21.13,9-15.92,18.05-31.91,28.49-46.88,12.84-18.42,29.07-33.95,47.49-46.8,20.76-14.48,44.12-23.35,68.91-27.98,50.31-9.39,99.47-5.11,147.02,14.22,18.14,7.38,33.14,19.67,47.81,32.31,36.56,31.49,57.88,71.74,66.79,118.66,3.28,17.27,4.5,34.93,6.51,52.42.39,3.38.06,6.84.06,10.26-.66.04-1.32.08-1.98.12Z"/>
  <path class="st0" d="M1665.01,471.54c-2.58-4.5-5.83-8.74-7.63-13.54-15.51-41.25-22.23-83.68-13.95-127.4,5.87-31.03,20.47-58.41,40.38-82.64,26.76-32.58,58.73-58.7,97.75-75.73,14.57-6.36,29.81-9.59,45.36-11.18,36.53-3.73,72.48-2.09,106.7,13.33,32.2,14.51,60.98,34.01,86.39,58.5,1.18,1.13,2.13,2.49,2.61,4.74-1.86-.91-3.86-1.61-5.55-2.77-7.14-4.89-14.27-9.8-21.25-14.91-29.44-21.59-63.24-30.71-98.87-33.93-59.61-5.39-112.18,13.1-159.28,48.71-21.09,15.95-36.22,37.08-48.75,60.05-12.5,22.91-22.02,46.84-25.6,73.06-3.09,22.61-2.45,44.69,6.86,65.63,4.86,10.93,6.03,20.76-.39,31.11-1.2,1.93-1.7,4.31-2.52,6.48-.76.17-1.52.34-2.27.5Z"/>
  <path class="st0" d="M2154.34,1678.49c6.77-9.86,13.47-19.77,20.31-29.59,16.55-23.77,25.15-50.47,29.28-78.84.77-5.27,1.62-10.54,2.08-15.84,5.23-59.64-12.97-112.24-48.56-159.38-16.14-21.38-37.59-36.59-60.86-49.35-24.45-13.41-50.18-22.7-78.11-26.06-20.71-2.49-41.1-1.3-59.59,7.75-14.6,7.14-25.96,3.07-39.87-4.7,6.92-3.68,12.41-7.51,18.48-9.67,39.21-13.93,79.49-19.97,120.81-12.83,13.29,2.3,26.47,6.82,38.89,12.21,25.58,11.09,48.27,26.74,67.29,47.39,3.84,4.17,7.73,8.28,11.74,12.28,20.88,20.88,34.48,46.37,46.02,73.1,6.14,14.23,7.86,29.58,9.43,44.79,5.22,50.64-6.16,97.38-35.03,139.36-10.72,15.59-23.12,30.02-34.87,44.89-1.75,2.21-4.11,3.94-6.18,5.89l-1.29-1.41Z"/>
  <path class="st0" d="M1069.03,1577.78c5.75,4.41,8.13,10.78,10.3,16.95,13.7,38.94,19.78,78.9,12.77,119.91-2.27,13.3-6.71,26.51-12.05,38.95-11.14,25.95-26.97,48.93-47.95,68.13-1.97,1.8-4.01,3.53-5.82,5.48-21.09,22.63-47.18,37.86-75.04,50.32-19.8,8.85-41.13,10.81-62.43,12.09-45.23,2.73-86.47-9.81-123.83-34.69-16.29-10.85-31.16-23.84-46.7-35.82-2.35-1.81-4.85-3.43-7.28-5.14.64-.81,1.27-1.61,1.91-2.42,1.8.9,3.73,1.61,5.38,2.74,7.14,4.9,14.26,9.83,21.27,14.91,26.62,19.3,56.89,28.45,89.07,32.68,62.2,8.19,117.2-9.57,166.85-46.19,21.28-15.7,36.78-36.52,49.55-59.45,14.07-25.24,24.09-51.77,27.54-80.76,2.47-20.72.62-40.75-7.55-59.73-4.69-10.9-6.59-20.71.24-31.08,1.06-1.62,1.41-3.7,2.13-5.55.1-.26.49-.42,1.64-1.34Z"/>
  <path class="st0" d="M1187.91,421.52c-7.6,1.98-13.75-1.2-19.58-4.02-21.35-10.33-41.74-22.34-59.54-38.2-7.7-6.86-15.03-14.19-22.06-21.74-23.95-25.74-36.71-56.98-42.43-91.08-8.09-48.31-3.53-95.53,14.99-141.13,7.13-17.55,18.78-32.15,30.84-46.42,31.84-37.68,72.75-59.82,120.83-68.8,16.96-3.17,34.28-4.43,51.46-6.39,3.58-.41,7.24-.06,10.86-.06.11.67.23,1.34.34,2.01-2.95.6-5.89,1.25-8.86,1.8-10.14,1.87-20.32,3.56-30.43,5.58-36.52,7.28-66.7,26.74-93.45,51.33-29.69,27.3-50.22,60.75-61.34,99.88-6.05,21.29-10.06,42.65-9.81,64.91.16,14.21,3.29,27.75,6.43,41.35,7.52,32.58,20.79,62.5,42.33,88.39,12.13,14.58,26.47,26.62,44.32,33.21,11.94,4.41,20.11,11.11,22.98,23.7.42,1.84,1.32,3.57,2.12,5.67Z"/>
  <path class="st0" d="M632.62,1727.04c9.21,5.48,19.19,11.92,29.62,17.52,17.93,9.62,36.56,17.9,56.55,22.08,29.2,6.11,59.02,9.08,88.39,3.84,65.03-11.59,115.91-45.2,150.43-102.28,12.33-20.38,21.65-42.04,27.6-65.08,4.88-18.87,5.14-38.21,4.93-57.56-.03-2.82,0-5.63,0-10.85,11.11,8.87,20.79,15.44,22.42,28.86,2.36,19.41.77,38.61-2.85,57.64-8.88,46.7-31.18,85.96-66.12,118.14-16.89,15.56-36.81,26.4-57.24,36.16-20.48,9.78-42.05,17-64.56,20.41-36.71,5.55-72.33.61-106.9-12.74-22.86-8.83-43.88-21.06-63.41-35.59-7.58-5.64-13.07-14.11-18.86-20.56Z"/>
  <path class="st0" d="M2385.89,1047.59c-20.27-90.23-67.86-158.01-158.08-185.19-89.15-26.86-166.99-.97-232.36,67.2-2.45-14.31-4.2-27.11,6.09-37.55,10.49-10.65,20.9-21.68,32.83-30.57,44.82-33.4,95.58-49.39,151.07-41.23,65.1,9.57,121.41,37.01,160.15,93.08,20.4,29.53,31.8,62.74,38.36,97.78.79,4.24,1.71,8.52,1.87,12.8.3,7.88.09,15.78.09,23.67Z"/>
  <path class="st0" d="M665.43,288.85c-5.56,9.24-11.4,18.33-16.61,27.76-10.33,18.71-19.05,38.23-23.47,59.18-6.15,29.17-9.09,59.01-3.84,88.36,11.63,64.99,45.15,115.92,102.3,150.33,24.75,14.9,50.96,26.46,79.74,30.25,15.39,2.02,31.13,1.33,46.71,1.9,1.55.06,3.09.39,6.11.79-8,11.9-15.91,22.26-30.46,22.3-16.93.05-34.14.28-50.76-2.42-48.25-7.84-89.3-30.08-122.08-66.52-23.31-25.92-38.27-56.66-48.98-89.6-19.68-60.52-10.28-117.58,20.64-172,5.09-8.97,10.66-17.67,16.2-26.38,6.24-9.8,15.18-16.99,24.49-23.94Z"/>
  <path class="st0" d="M1390.53,7.95c-1.4.54-2.76,1.36-4.21,1.57-26.04,3.71-50.17,13.39-73.52,24.79-18.36,8.96-34.07,22.17-48.87,36.11-49.32,46.46-72.42,103.79-67.48,171.36,3.45,47.21,18.71,90.49,50.08,126.97,6.71,7.8,14.33,14.81,21.51,22.21,1.32,1.36,2.52,2.85,4.95,5.61-13.98,2.31-26.35,4.1-36.93-5.32-7.7-6.85-15.23-14.03-21.95-21.82-39.68-45.98-58.41-99.83-51.16-159.82,6.77-56.04,28.63-106.52,71.64-145.76,24.86-22.69,53.79-37.82,85.76-47.5,8.59-2.6,17.37-4.61,26.12-6.61,6.15-1.41,12.37-2.95,18.63-3.39,8.28-.58,16.62-.14,24.94-.14.16.58.33,1.16.49,1.74Z"/>
  <path class="st0" d="M1462.54,1652.88c16.35-4.52,29.27-2.54,41.08,8.42,21.31,19.77,39.13,42.45,50.56,68.8,18.21,41.99,25.76,85.82,14.25,131.56-6.04,24.02-14.16,47.05-25.79,68.96-28.03,52.78-72.25,85.01-128.52,102.01-10.8,3.26-21.9,5.61-32.93,8.07-4.84,1.08-9.84,1.78-14.8,2-7.25.33-14.52.09-21.78.09-.09-.7-.18-1.39-.26-2.09,3.34-.75,6.66-1.57,10.01-2.24,46.55-9.41,86.72-30.5,121.02-63.66,30.24-29.22,49.1-64.5,58.76-104.74,12.13-50.54,3.79-99.08-17.22-145.96-11.66-26.01-29.29-47.42-50.21-66.39-1.17-1.06-2.08-2.39-4.16-4.83Z"/>
  <path class="st0" d="M1878.75,1401.85c9.05-15.36,20.17-23.98,36.47-23.27,16.26.7,32.71,1.02,48.66,3.85,47.49,8.42,87.57,31.12,119.46,67.26,23.02,26.09,37.92,56.94,48.24,90,18.44,59.12,9.61,115.06-20.26,168.37-5.2,9.28-11.04,18.21-16.65,27.26-6.34,10.25-15.71,17.59-25.31,25.04.84-1.59,1.51-3.31,2.56-4.74,15.97-21.71,26.46-46.19,35.01-71.45,3.38-9.98,4.53-20.77,6.1-31.28,2.76-18.49,3.15-37.08,2.1-55.77-1.29-23.05-8.99-44.32-17.63-65.22-17.71-42.79-48.28-74.44-87.53-98.21-19.79-11.98-40.9-20.84-63.24-26.73-18.86-4.97-38.17-5.19-57.5-5.11-2.88.01-5.76,0-10.48,0Z"/>
  <path class="st0" d="M1744.84,513.4c-12.57-8.25-21.78-16.49-22.83-31.06-2.24-31.06,1.51-61.72,12.96-90.27,17.72-44.21,45.54-80.89,88.07-105.16,26.87-15.34,54.92-27.26,85.25-32.9,30.87-5.73,61.59-3.66,91.89,5.01,29.52,8.44,56.11,22.73,80.89,40.39,8.52,6.07,15.6,14.18,23.33,21.36-.38.54-.77,1.07-1.15,1.61-1.5-.74-3.14-1.27-4.47-2.25-21.73-15.92-45.97-27.19-71.46-34.93-27.87-8.46-57.02-11.34-85.99-8.14-74.26,8.18-130.22,45.09-167.47,110.04-13.2,23.01-23.28,47.32-26.67,73.69-1.98,15.39-1.28,31.13-1.81,46.71-.04,1.29-.24,2.58-.55,5.9Z"/>
  <path class="st0" d="M351.13,1001.67c2.19,8.87,4.34,17.76,6.59,26.61,13.3,52.51,43.06,94.52,85.44,126.89,27.18,20.75,58.81,33.81,93.18,38.78,54.63,7.9,105.29-3.91,152.61-31.31,16.55-9.59,30.04-23.08,43.36-36.64,1.62-1.65,3.14-3.42,4.82-5.01.37-.35,1.23-.16,2.39-.27,3.52,13.41,3.3,25.94-6.57,37.18-20.33,23.16-44.45,41.89-72.47,53.9-44.85,19.22-91.41,25.06-139.55,11.35-26.51-7.55-51.64-17.86-74.89-32.44-28.23-17.7-49.77-41.92-66.25-70.8-15.23-26.68-24.09-55.59-29.19-85.59-1.79-10.53-.29-21.62-.29-32.46.28-.06.56-.13.83-.19Z"/>
  <path class="st0" d="M1704.65,477.12c-6.18-8.84-12.99-17.32-18.3-26.65-2.82-4.96-4.53-11.5-4.19-17.17,1.45-23.88,2.53-47.92,6.35-71.48,3.21-19.81,13.57-37.45,24.46-54.31,15.85-24.55,34.17-46.92,59.42-62.45,24.69-15.19,49.89-29.38,78.74-35.54,25.01-5.34,50.04-7.03,75.32-2.29,10.11,1.9,20.52,2.66,30.38,5.42,37.71,10.56,69.21,31.93,97.99,57.79,1.48,1.33,2.75,2.89,4.01,4.44.35.43.31,1.19.74,3.11-2.5-1.52-4.42-2.4-5.99-3.69-32.85-27.05-71.48-38.55-113.04-42.84-33.87-3.49-66.57,1.94-98.12,13.29-40.85,14.7-73.47,41.05-99.93,75.3-25.37,32.85-35.38,71.15-39.02,111.46-1.04,11.48,1.01,23.23,1.68,34.86.2,3.47.54,6.94.82,10.41l-1.32.35Z"/>
  <path class="st0" d="M620.68,333.44c-1.59,2.29-3,4.73-4.79,6.85-23.3,27.75-33.69,61.02-39.66,95.76-3.79,22.02-4.31,44.54-.29,66.66,2.79,15.35,6.23,30.79,11.43,45.46,14.77,41.67,41.33,74.88,76.23,101.68,32.63,25.06,70.64,35.06,110.63,38.66,11.49,1.03,23.25-.97,34.88-1.63,3.54-.2,7.07-.6,11.21.6-4.82,3.19-9.68,6.33-14.46,9.57-4.67,3.16-8.94,7.15-14,9.43-4.72,2.13-10.31,3.71-15.4,3.42-21.92-1.22-43.92-2.28-65.65-5.17-22.17-2.95-41.6-13.81-60.2-25.71-24.63-15.75-46.95-34.17-62.52-59.42-16.47-26.72-31.3-54.15-37.02-85.64-4.53-24.91-3.65-49.64-.4-74.59,3.47-26.61,12.68-50.98,26.69-73.59,10.53-16.99,21.35-33.84,35.65-48.06,1.97-1.96,4.23-3.64,6.35-5.46.44.39.88.78,1.31,1.17Z"/>
  <path class="st0" d="M2384.15,984.67c-.61-3.75-1.38-7.49-1.81-11.27-2.18-19.06-8.1-36.82-16.39-54.16-13.28-27.78-30.88-52.26-53.9-72.47-33.18-29.14-70.91-48.97-115.47-54.85-30.11-3.97-59.69-3.08-89.16,4.26-13.41,3.34-25.49,9.42-37.64,15.73-27.62,14.34-51.67,32.79-70.16,58.08-1.71,2.34-3.81,4.39-7.01,6.01,1.17-5.57,2.43-11.12,3.5-16.71,1.06-5.54,1.14-11.42,3.13-16.58,1.99-5.14,4.96-10.56,9.02-14.14,17.45-15.39,34.68-31.23,53.49-44.83,17.42-12.59,38.42-18.04,59.39-22.43,28.29-5.92,56.69-8.26,85.16-1.43,32.19,7.72,63.71,17.3,90.5,37.86,45.38,34.82,75.45,79.29,84.68,136.52,2.17,13.44,3.42,27.02,4.94,40.56.35,3.16.05,6.4.05,9.6-.78.09-1.55.18-2.33.27Z"/>
  <path class="st0" d="M2114.38,1715.04c4.35-5.85,8.88-11.58,13.02-17.57,19.2-27.82,28.35-59.38,32.32-92.37,1.9-15.75,2.27-32.06.53-47.81-3.52-31.9-11.05-62.93-28.38-90.69-17.47-27.98-38.73-52.23-65.85-71.55-23.14-16.48-49.23-24.5-76.26-30.75-18.67-4.31-37.47-5.67-56.53-2.86-5.89.87-11.9.9-19.68,1.44,2.44-2.13,3.58-3.32,4.9-4.24,4.89-3.43,10.03-6.52,14.72-10.19,9.96-7.8,20.95-10.85,33.59-9.33,11.21,1.35,22.53,2.44,33.81,2.49,21.84.09,42.08,5.81,61.36,15.57,24.55,12.43,47.64,27.25,65.8,48.05,37.53,42.99,60.52,92.31,59.72,150.49-.61,44.3-12.12,85.52-39.02,121.55-8.35,11.19-16.98,22.18-25.66,33.11-1.93,2.43-4.62,4.24-6.96,6.34-.48-.56-.96-1.13-1.44-1.69Z"/>
  <path class="st0" d="M351.01,1064.77c1.31,8.18,2.29,16.43,3.99,24.53,6.72,31.96,22.22,59.78,41.97,85.23,23.76,30.61,54.49,52.46,89.56,68.49,19.04,8.7,39.37,12,59.82,14.94,29.15,4.19,57.88,1.48,85.94-6.68,11.06-3.22,21.51-8.75,31.93-13.88,28.53-14.05,52.93-33.23,71.75-59.13,1.49-2.05,3.19-3.96,6.29-5.24-2.22,11.47-3.86,23.1-6.93,34.33-1.32,4.86-4.8,9.8-8.64,13.18-17.22,15.15-34.21,30.73-52.67,44.25-17.38,12.72-38.37,18.25-59.27,22.74-20.57,4.42-41.45,7.18-62.5,4.78-12.49-1.42-24.93-3.88-37.18-6.77-40.11-9.48-75.4-27.8-104-58.05-30.26-32.01-51.07-68.82-57.36-112.96-2.06-14.46-3.69-28.98-5.36-43.5-.24-2.07.41-4.23.65-6.35.67.03,1.34.06,2.01.09Z"/>
  <path class="st0" d="M1516.7,1650.16c9.78,1.56,19.81,2.24,29.24,5,6.45,1.89,13.35,5.5,17.79,10.39,15.2,16.72,30.41,33.62,43.72,51.83,13.12,17.95,18.81,39.53,23.34,61.15,5.92,28.3,8.01,56.68,1.28,85.18-8.56,36.29-20.49,71.08-45.45,99.88-34.01,39.24-75.25,66.31-127.4,74.45-14.76,2.3-29.64,3.89-44.49,5.61-2.36.27-4.84-.48-7.35-2.7,4.67-.65,9.34-1.31,14.01-1.93,34.69-4.62,64.56-20.54,92.15-40.82,31.22-22.95,53.91-53.19,70.4-88.08,13.78-29.17,18.28-60.34,18.66-92.26.19-16.04-1.26-32.01-5.47-47.49-11.67-42.86-33.42-79.51-68.08-107.94-4.32-3.55-8.56-7.2-12.84-10.8.17-.49.33-.97.5-1.46Z"/>
  <path class="st0" d="M1220.67,399.36c-11.79-2.01-22.38-2.96-32.42-5.83-6.14-1.76-12.66-5.36-16.88-10.06-15.34-17.05-30.78-34.19-44.28-52.68-12.7-17.4-18.2-38.41-22.69-59.33-4.49-20.92-7.12-42.15-4.67-63.53,1.35-11.84,3.76-23.62,6.6-35.21,7.12-29.02,17.74-56.59,36.52-80.3,34.83-43.99,78.83-72.89,134.92-82.18,16.42-2.72,32.72-5.69,50.65-4.29-3.08,3.46-6.45,3.09-9.25,3.39-41.31,4.41-75.82,23.6-107.34,49.25-27.16,22.11-46.25,50.38-61.42,81.55-9.62,19.76-13.29,41.06-16.36,62.54-4.23,29.5-1.53,58.55,6.74,86.97,3.04,10.43,8.27,20.29,13.07,30.13,14.26,29.2,33.68,54.26,60.22,73.45,2.06,1.49,3.75,3.47,6.57,6.13Z"/>
  <path class="st0" d="M1030.61,1572.4c5.25,7.18,10.52,14.33,15.73,21.55,5.06,7.02,7.39,15.22,7.02,23.55-.85,18.92-2.17,37.84-4.18,56.67-2.45,23-12.44,43.38-24.35,62.79-16.17,26.36-35.28,50.23-61.93,66.79-26.63,16.55-54.07,31.34-85.52,37.1-24.89,4.56-49.59,3.77-74.53.54-26.93-3.49-51.75-12.54-74.38-27.13-15.07-9.71-29.27-20.78-43.66-31.51-3.57-2.66-6.37-6.34-9.53-9.55.45-.56.89-1.13,1.34-1.69,2,1.33,4.11,2.51,5.97,4.02,33.33,27.03,72.47,38.35,114.32,42.22,32.4,3,63.88-2.17,94.22-13.01,43.61-15.59,78.33-43.37,105.01-81.1,25.93-36.66,35.93-78.13,35.45-122.45-.1-9.53-1.59-19.05-2.44-28.57.49-.07.98-.14,1.46-.21Z"/>
  <path class="st0" d="M726.09,757.59c.84-.19,1.71-.6,2.53-.53,30.99,2.42,61.02-2.45,90.46-11.83,19.32-6.16,36.35-16.49,51.62-29.54,17.45-14.91,35.07-29.73,48.64-48.6,34.47-47.93,49.1-100.44,37.3-159.23-4-19.94-8.16-39.84-16.45-58.49-5.52-12.44-12.07-24.42-18.19-36.59-1.18-2.34-2.54-4.6-4.21-7.61,1.66-.91,2.95-2.2,4.31-2.27,10.29-.51,20.59-.9,30.9-1.06,4.56-.07,7.24,2.94,8.87,6.9,2.64,6.44,5.21,12.91,8.13,20.17-3.67,1.23-6.98,2.34-10.51,3.52,4.55,10.81,8.81,21.75,13.71,32.39,9.06,19.67,11.65,40.78,15.01,61.83,4.88,30.61.87,60.57-7.12,89.85-6.82,24.99-20.49,46.91-37.31,66.63-14.93,17.5-30.2,34.8-49.76,47.36-36.44,23.38-76.1,36.48-119.77,35.18-12.91-.39-25.8-2.1-38.66-3.54-3.36-.37-6.58-1.98-9.86-3.02.13-.5.25-1.01.38-1.51Z"/>
  <path class="st0" d="M1100.37,1665.46c0-7.23-.01-14.47,0-21.7.05-26.96-5.39-52.96-14.7-78.08-6.05-16.31-15.25-31.06-26.71-44.2-15.31-17.56-30.22-35.54-49.41-49.27-47.75-34.14-100-48.55-158.43-36.9-20.28,4.04-40.48,8.37-59.45,16.75-12.15,5.37-23.81,11.83-35.68,17.82-2.58,1.3-5.12,2.7-9.22,4.87-.77-8.06-1.72-14.81-1.99-21.59-.79-20-1.76-19.98,17.01-27.06,3.1-1.17,6.13-2.5,10.48-4.28.96,3.71,1.81,7.03,2.69,10.45,7.91-2.96,16.23-5.11,23.62-9.02,20.4-10.78,42.46-14.91,64.87-18.76,32.94-5.65,65.21-2.24,96.8,6.64,25.95,7.29,48.53,21.76,68.78,39.53,8.75,7.68,17.15,15.78,25.38,24.03,26.74,26.81,41.05,60.24,50.08,96.22,4.24,16.89,4.41,34.31,3.83,51.64-.34,9.96-1.25,19.91-2.36,29.81-.5,4.49-2.11,8.86-3.22,13.28-.79-.06-1.57-.13-2.36-.19Z"/>
  <path class="st0" d="M665.87,884.8c-2.31,3.79-3.99,6.55-5.78,9.48,13.2,5.34,26.2,10.01,38.67,15.82,9.91,4.61,19.46,10.18,28.66,16.11,8.66,5.58,16.68,12.16,24.96,18.33,17.08,12.71,29.71,29.5,42.02,46.49,27.51,38,34.24,81.7,33.44,127.09-.92,52.18-19.72,97.43-55.79,135.09-10.99,11.48-23.58,21.45-35.67,31.83-2.82,2.42-6.63,3.7-9.99,5.5-.47-.64-.93-1.29-1.4-1.93,2.31-2.09,4.66-4.15,6.93-6.28,25.11-23.61,44.92-51.02,56.98-83.38,5.43-14.57,9.15-29.85,9.35-45.73.13-9.98.98-19.94,1.55-29.91,1.07-18.79-1.04-37.34-5.84-55.41-12.93-48.63-38.13-89.01-80.79-117.29-17.78-11.79-35.61-23.55-55.66-31.17-12.41-4.72-25.2-8.46-37.83-12.61-2.46-.81-4.95-1.49-8.5-2.55,1.57-2.84,2.44-5.29,4.03-7.1,5.25-6.02,10.73-11.84,16.18-17.68,4.32-4.62,9.25-6.06,15.28-3.17,5.97,2.86,12.12,5.37,19.21,8.47Z"/>
  <path class="st0" d="M1488.04,267.4c10.94,7.12,18.71,15.81,26.92,23.93,2.76,2.73,3,6.48,1.35,10.25-2.92,6.67-5.67,13.42-8.79,20.85-3.59-1.91-6.66-3.54-9.35-4.97-7.91,17.81-14.31,36.36-23.97,53.03-15.37,26.53-34.28,50.17-58.59,69.99-35.76,29.15-76.2,42.45-121.47,43.87-20.32.63-40.59,1.11-60.54-4.04-39.55-10.21-74.51-28.55-102.75-58.47-8.43-8.93-16.04-18.66-23.73-28.25-2.36-2.94-3.75-6.65-5.59-10.01l1.75-1.26c2.15,2.22,4.32,4.42,6.44,6.66,24.2,25.47,52.09,45.62,85.27,57.66,18.92,6.86,38.82,8.71,58.86,9.64,24.4,1.14,48.63.76,72.33-5.84,48.52-13.51,88.48-39.16,116.39-82.05,11.28-17.33,22.67-34.6,30.02-54.01,4.94-13.04,8.78-26.49,13.1-39.76.6-1.84,1.19-3.68,2.33-7.18Z"/>
  <path class="st0" d="M1818.2,1645.85c-13.49.62-24.66,1.56-35.81,1.34-2.9-.06-6.88-3.13-8.36-5.89-3.53-6.62-5.88-13.88-8.96-21.53,4.07-1.15,7.14-2.01,10.25-2.89-3.15-8.24-5.59-16.84-9.6-24.64-9.89-19.27-13.98-39.97-17.78-61.04-5.73-31.85-2.51-63.03,4.73-94,2.25-9.62,6.08-19.09,10.53-27.95,18.87-37.65,45.4-69.29,80.58-92.27,38-24.83,80.18-36.96,126.16-32.86,8.61.77,17.26,1.01,25.84,2,4.51.52,8.9,2.14,13.34,3.26-.02.79-.05,1.58-.07,2.37-2.93,0-5.86.11-8.78-.02-28.93-1.23-57.03,3.03-84.53,12.06-18.96,6.23-35.79,16.21-50.81,29-16.96,14.45-34.15,28.76-47.53,46.93-35.91,48.77-51.29,102.4-38.87,162.68,4.17,20.23,8.63,40.42,17.17,59.34,5.19,11.5,11.28,22.6,16.99,33.87,1.32,2.61,2.77,5.16,5.51,10.24Z"/>
  <path class="st0" d="M2125.16,1145.17c-5.41,6.24-9.68,11.63-14.43,16.57-12.71,13.23-10.72,16.6-32,6.53-2.4-1.13-4.9-2.05-7.34-3.1-.29-.12-.49-.42-1.56-1.38,1.54-2.81,3.2-5.85,4.93-9-9.06-3.82-17.97-8.01-27.19-11.39-15.43-5.66-29.95-12.87-43.07-22.81-3.19-2.41-6.34-4.89-9.67-7.09-27.59-18.26-47.67-43.46-64.24-71.44-11.29-19.05-17.28-40.29-20.42-62.24-3.18-22.17-3.8-44.48-2.19-66.75,1.7-23.56,10.12-45.3,19.71-66.66,11.56-25.74,29.05-46.78,50.25-65.01,6.56-5.64,12.96-11.46,19.74-16.82,3.32-2.63,7.33-4.39,12.93-7.65-1.7,5.63-4.95,7.24-7.32,9.49-25.5,24.17-45.66,52.05-57.78,85.2-7.03,19.23-8.87,39.47-9.78,59.84-.98,22.04-1,44.02,4.35,65.53,12.67,50.98,38.55,93.09,83.29,122.35,17.02,11.13,34.01,22.37,53.07,29.69,12.7,4.88,25.81,8.69,38.75,12.97,2.74.91,5.5,1.75,9.98,3.16Z"/>
  <path class="st0" d="M1632.21,1667.3c-2.38-2.53-4.76-5.07-7.16-7.6-23.43-24.79-50.58-44.38-82.56-56.42-14.88-5.6-30.48-9.31-46.69-9.54-9.97-.14-19.94-1-29.9-1.54-18.78-1.02-37.35,1.06-55.39,5.93-48.54,13.1-88.91,38.29-117.07,81.05-11.37,17.26-22.83,34.48-30.31,53.84-4.9,12.69-8.77,25.78-13.07,38.71-.92,2.76-1.68,5.57-2.73,9.09-2.75-1.45-5.01-2.17-6.64-3.6-6.24-5.5-12.32-11.19-18.39-16.88-4.34-4.07-5.62-8.81-3.04-14.46,2.87-6.27,5.53-12.64,8.55-19.59,3.5,2.04,6.27,3.66,9.79,5.72,1.61-4.8,2.91-9.43,4.72-13.87,1.74-4.28,4.42-8.2,5.94-12.54,5.66-16.15,13.27-31.22,23.66-44.85,4.24-5.56,8.52-11.1,12.49-16.85,13.3-19.27,31.55-33.22,50.21-46.66,37.77-27.18,81.15-33.82,126.16-33.12,52.55.82,98.04,19.82,135.9,56.18,11.22,10.78,21.03,23.06,31.15,34.94,2.64,3.09,4.04,7.23,6.01,10.89-.54.39-1.09.78-1.63,1.17Z"/>
  <path class="st0" d="M2008.89,974.35c-2.35-6.59-4.13-11.58-5.91-16.57-2.08-5.83.2-10.78,4.18-14.51,9.68-9.09,19.05-18.81,29.91-26.31,23.79-16.42,49.96-27.43,78.87-32.02,44.32-7.04,87.57-4.55,129.42,12.35,10.44,4.21,20.74,9.2,30.28,15.16,37.8,23.62,68.06,54.4,86.89,95.32,14.36,31.2,23.04,63.79,21.9,98.5-.04,1.22-.3,2.43-2,3.96-.84-3.35-1.72-6.69-2.51-10.06-4.92-21.06-9.53-42.28-19.72-61.58-17.02-32.23-39.17-60.54-69.04-81.67-35.05-24.79-73.52-40.8-117.3-43.16-31.85-1.71-62.35,2.49-92.02,13.9-22.94,8.82-43.23,21.97-62.08,37.52-3.29,2.72-6.53,5.5-10.87,9.17Z"/>
  <path class="st0" d="M2023.78,1803.52c2.01-3.22,4-6.45,6.04-9.66,11.44-17.99,22.64-36.17,29.42-56.52,7.4-22.24,11.28-45.37,11.91-68.66,1.06-39-8.25-76-26.42-110.52-27.17-51.63-68.74-86.72-124.2-104.6-17.65-5.69-35.89-10.22-54.81-9.95-1.65.02-3.32-.27-4.94-.6-.94-.19-1.8-.76-3.83-1.65,2.79-5.58,4.89-11.52,8.51-16.33,2.09-2.77,6.45-4.72,10.07-5.29,14.31-2.27,28.62-.63,42.66,2.25,27.34,5.6,53.26,14.98,75.65,32.13,13.2,10.11,25.94,20.87,38.43,31.86,12.9,11.35,21.83,25.99,30.81,40.39,18.64,29.91,28.69,62.39,31.55,97.77,2.38,29.49-.56,57.87-9.6,85.68-11.61,35.71-30.5,67.15-57.61,93.41-.6.58-1.56.79-2.36,1.17-.43-.29-.85-.58-1.28-.87Z"/>
  <path class="st0" d="M1635.18,382.67c-2.18,19.68-.53,39.2,2.75,58.49,5.68,33.36,17.72,63.99,40.88,89.51,14.09,15.53,27.35,31.82,44.47,44.34,48.56,35.5,101.87,50.8,161.77,38.54,20.56-4.21,41.07-8.75,60.28-17.44,11.49-5.2,22.56-11.35,33.81-17.09,2.59-1.32,5.14-2.72,8.33-4.41.92,3.06,2.02,5.2,2.13,7.39.43,8.31.46,16.64.81,24.96.26,6.13-2.43,10.15-8.08,12.34-6.17,2.39-12.33,4.8-19.15,7.45-1.38-3.76-2.58-7.05-3.48-9.52-19.23,7.19-37.96,16.17-57.69,21.11-29.01,7.26-58.43,10.05-88.95,7.03-53.83-5.32-94.66-32.47-131.01-69.48-28.74-29.27-44.85-65.01-52.62-104.58-3.24-16.52-4.67-33.56-2.04-50.63,1.47-9.49,1.48-19.2,2.59-28.77.39-3.33,2.11-6.51,3.23-9.76.66.17,1.31.34,1.97.5Z"/>
  <path class="st0" d="M1281.68,2039.32c2.83-.73,5.67-1.44,8.49-2.21,16.36-4.45,32.91-8.32,48.99-13.62,8.73-2.87,16.9-7.77,24.93-12.44,51.06-29.72,86.22-72.5,104.42-128.82,17.13-53.03,13.5-105.16-9.34-155.64-8.48-18.75-19.7-36.26-33.83-51.61-2.41-2.61-4.52-5.5-7.47-9.12,5.99-2.19,10.81-4.1,15.73-5.7,6.91-2.25,12.24.86,17.13,5.4,13.03,12.12,23.97,25.87,32.66,41.4,11.63,20.78,20,42.61,23.77,66.33,6.99,43.96,4.39,86.91-12.21,128.47-4.3,10.76-9.47,21.35-15.6,31.17-23.44,37.51-54.08,67.47-94.57,86.3-31.14,14.48-63.78,22.97-98.41,22.47-1.52-.02-3.03-.16-4.55-.25-.05-.71-.09-1.42-.14-2.13Z"/>
  <path class="st0" d="M350.72,936.62c4.18,5.53,3.96,10.34,4.97,14.66,4.87,20.75,9.71,41.53,19.89,60.48,16.76,31.2,38.27,58.75,67.2,79.41,34.36,24.54,72.05,40.42,115.07,43.76,33.03,2.56,64.37-2,95-13.49,22.98-8.62,43.31-21.84,62.16-37.41,3.48-2.87,6.97-5.72,11.34-9.3.97,2.9,1.23,4.49,1.98,5.8,8.28,14.55,1.94,24.72-9.09,34.64-27.94,25.15-59.98,41.99-97.04,48.16-17.02,2.83-34.39,3.86-51.66,4.76-19.84,1.03-39.17-3.41-58.02-8.86-63.29-18.28-109.77-57.44-138.9-116.28-16.05-32.43-24.55-64.27-22.9-106.32Z"/>
  <path class="st0" d="M587.89,1680.32c4.12,2.6,7.18,4.51,10.21,6.46,25.34,16.26,51.59,29.96,81.64,36.11,60.79,12.44,117.7,2.17,169.87-30.05,33.6-20.75,59.72-49.7,77.17-85.9,12.62-26.17,19.69-53.62,21.53-82.52.15-2.32.37-4.65.74-6.94.15-.93.81-1.78,1.62-3.49,5.33,2.59,10.65,4.96,15.77,7.72,4.19,2.26,6.11,6.32,5.93,10.87-.54,13.92-.06,28.06-2.43,41.69-4.84,27.84-14.83,53.99-32.2,76.66-9.91,12.95-20.41,25.49-31.24,37.68-13,14.63-29.72,24.61-46.23,34.64-40.57,24.67-85.39,32.53-131.67,28.24-54.9-5.09-102.19-28.29-140.7-68.34-.17-.17-.02-.64-.02-2.86Z"/>
  <path class="st0" d="M2147.63,368.79c-4.25-2.64-7.48-4.62-10.69-6.64-18.33-11.5-36.69-23.06-57.47-29.69-22.63-7.23-46.02-11.18-69.69-11.65-41.19-.81-80.03,9.73-115.54,30.17-49.69,28.6-83.43,70.65-99.29,126.1-4.84,16.92-8.65,34.22-8.76,52.05-.01,1.56-.59,3.12-1.19,6.15-6.2-3.09-11.93-5.45-17.13-8.67-5.05-3.13-5.57-8.75-5.81-14.17-.95-20.86,2.35-41.11,8.66-60.96,7.77-24.39,18.88-46.88,36.72-65.64,2.05-2.16,3.63-4.76,5.49-7.11,36.06-45.48,83.28-71.54,140.37-79.97,35.14-5.19,69.75-2.57,103.37,9.38,34.37,12.21,64.95,30.52,90.17,57.2.34.36.27,1.1.79,3.45Z"/>
  <path class="st0" d="M877.82,607.98c-2.36,4.89-4.6,10-7.23,14.89-3.09,5.74-8.72,6.76-14.55,7.03-19.5.92-38.51-1.74-57.2-7.35-25.84-7.76-49.79-18.88-69.6-37.74-2.16-2.06-4.76-3.65-7.12-5.49-43.81-34.15-69.66-79.32-79.2-133.46-6.43-36.51-4.83-73.07,7.57-108.56,12.16-34.79,30.4-65.82,57.15-91.52.57-.55,1.5-.74,3.78-1.81-1.82,3.61-2.86,5.9-4.11,8.08-8.45,14.72-17.7,29.04-25.17,44.24-4.93,10.03-8.14,21.12-10.72,32.06-5.74,24.38-8.46,49-6.71,74.28,2.38,34.38,12.84,66.25,29.69,95.57,28.59,49.74,70.84,83.52,126.47,98.94,18.17,5.03,37.14,7.15,56.95,10.83Z"/>
  <path class="st0" d="M1317.61,383.24c-5.06,1.67-8.44,2.25-11.26,3.81-9.28,5.14-16.57,1.95-23.27-4.83-32-32.34-52.11-70.34-55.61-116.31-.4-5.3-1.27-10.57-1.79-15.86-5.93-60.74,11.04-114.18,49.82-161.35,20.3-24.69,44.21-44.37,72.87-57.96,33.26-15.77,67.17-25.4,104.79-22.54-2.98,3.16-6.57,3.13-9.92,3.9-21.4,4.94-42.95,9.64-62.49,20.12-31.5,16.89-59.36,38.56-80.17,67.82-24.47,34.41-40.28,72.13-43.53,115.15-2.47,32.68,2.05,63.69,13.32,94.04,8.55,23.03,21.8,43.32,37.24,62.26,2.9,3.55,5.95,6.98,10.02,11.74Z"/>
  <path class="st0" d="M779.34,1654.84c-9.1,6.37-17.83,9.35-27.03,10.48-2.95.36-6.45-1.46-9.3-3.02-30.69-16.75-58.32-37.28-79.76-65.35-19.97-26.14-34.59-55.05-38.24-87.82-3.58-32.08-4.62-64.44,6.64-95.85,5.61-15.65,8.74-32.4,18.66-46.1,17.84-24.64,37.73-47.57,63.03-64.89,6.61-4.53,15.03-6.43,23.17-8.72-1.06,5.1-4.56,7.99-7.92,10.74-21.82,17.88-36.36,41.48-50.81,65.03-8.8,14.35-12.73,30.71-15.85,47.11-3.79,19.94-7.73,39.85-6.62,60.4,2.23,40.93,17.03,77.06,41.39,109.52,15.06,20.07,31.49,38.88,53.53,51.78,6.6,3.86,13.35,7.47,20.01,11.24,2.74,1.55,5.4,3.21,9.11,5.42Z"/>
  <path class="st0" d="M2004.48,1278.43c5.85,0,11.73-.43,17.54.08,16.12,1.42,31.91-.65,47.61-3.92,11.06-2.3,22.31-4.09,33.06-7.44,23.6-7.34,43.06-22.15,62.86-36.31,20.16-14.42,36-32.56,48.25-53.95,14.95-26.11,23.64-54.2,26.4-84.14.58-6.3,1.45-12.58,1.82-18.89,1.35-23.58-2.45-46.43-10.11-68.71-1.02-2.98-1.6-6.11-2.49-9.55,18.4,1.43,28.33,9.94,32.63,26.06,7,26.21,11.36,52.67,9.71,79.92-2.17,35.96-11.17,70.06-32.4,99.36-20,27.61-43.43,52.25-74.71,67.94-16.36,8.21-31.97,18.47-50.46,21.04-28.41,3.95-57.05,6.31-85.53,1.12-8.55-1.56-16.55-6.17-24.8-9.38.21-1.08.42-2.15.64-3.23Z"/>
  <path class="st0" d="M1997.22,754.09c3.69-3.71,7.18-7.64,11.1-11.09,22.85-20.15,39.39-45.09,52.99-71.88,10.35-20.39,13.13-43.16,16.48-65.55,8.37-55.94-9.48-104.27-43.24-147.9-4.68-6.05-9.59-11.95-14.69-17.66-15.3-17.1-33.75-29.99-54.25-40.08-2.9-1.43-5.66-3.11-8.65-4.77,8.95-10.39,25.67-13.9,36.26-7.96,28.05,15.73,53.91,34.18,74.27,59.57,27.01,33.68,42.62,71.15,44.52,115.05,1.42,32.73-4.39,63.51-14.91,93.92-5.04,14.58-12.15,27.88-22.54,39.6-14.14,15.95-27.82,32.16-44.66,45.55-9.43,7.51-19.95,11.46-30.98,14.9-.56-.57-1.12-1.13-1.68-1.7Z"/>
  <path class="st0" d="M1113.58,1661.82c0,5.58.42,11.2-.08,16.74-1.15,12.72-.18,25.29,2.07,37.78,2.24,12.44,3.61,25.18,7.41,37.15,3.89,12.26,9.15,24.4,15.75,35.43,14.54,24.31,30.23,47.91,52.92,65.84,28.67,22.65,61.3,35.89,97.24,41.14,11.19,1.64,22.51,2.75,33.8,3.3,21.55,1.04,42.37-3.3,62.78-9.87,3.36-1.08,6.71-2.16,10.3-3.32,1.05,13.71-8.52,28.25-19.98,31.6-22.78,6.66-46.09,11.19-69.73,11.42-16.51.16-33.28-1.9-49.52-5.09-23.66-4.64-46.41-12.99-65.78-27.72-27.44-20.86-52.58-44.06-68.27-75.74-7.82-15.8-17.74-30.86-20.27-48.63-4.08-28.73-6.26-57.63-1.39-86.53,1.5-8.89,5.87-16.67,10.65-24.15.7.22,1.4.43,2.1.65Z"/>
  <path class="st0" d="M737.62,435.61c-11.69-14.03-13.4-27.51-4.95-40.79,8.38-13.17,16.83-26.39,26.37-38.72,26.04-33.64,59.68-56.71,100.45-68.97,9.18-2.76,18.77-4.52,28.3-5.73,40.18-5.13,78.99.66,116.57,15.52,13.15,5.2,24.86,12.44,35.57,21.75,16.87,14.67,33.62,29.35,47.06,47.43,6.09,8.19,9.19,17.34,9.78,28.1-3.47-3.37-7.19-6.51-10.36-10.13-20.11-22.93-45.07-39.49-71.83-53.18-20.68-10.58-43.82-13.32-66.56-16.74-51.75-7.78-97.41,7.51-139.15,37.09-8.95,6.34-17.38,13.5-25.61,20.77-17.21,15.2-30.07,33.72-40.21,54.22-1.54,3.11-3.47,6.02-5.44,9.4Z"/>
  <path class="st0" d="M2000.26,1614.11c2.53,7.14,5.81,14.12,7.31,21.47.84,4.15-.16,9.48-2.21,13.27-17.89,33.19-40.31,62.83-71.63,84.52-30.94,21.43-64.54,35.75-103.2,34.86-12.94-.3-26.04,1.18-38.82-.29-24.92-2.85-48.97-10.09-71.56-20.85-10.32-4.91-19.4-12.72-28.41-20-16.09-12.99-30.9-27.31-43.43-43.93-6.39-8.47-9.27-18.07-10.63-28.96,3.48,3.32,7.31,6.36,10.39,10.02,18.35,21.8,42.01,36.79,66.15,50.89,18.67,10.9,40.01,14.11,60.98,17.99,28.22,5.23,56.18,5.22,84.03-2.72,23.63-6.74,45.45-17.1,65.29-31.47,9.42-6.83,18.49-14.22,27.22-21.92,17.2-15.17,30.08-33.68,40.24-54.15,1.54-3.11,3.41-6.06,5.13-9.08,1.05.11,2.11.23,3.16.34Z"/>
  <path class="st0" d="M1621.8,387.4c0-5.9-.27-11.81.05-17.7,1.47-27.33-4.05-53.75-11.65-79.6-3.6-12.25-9.96-24-16.75-34.93-14.05-22.64-29.04-44.67-50.48-61.4-30.76-24-65.74-37.27-104.26-41.76-7.27-.85-14.56-1.63-21.86-2.04-23.57-1.34-46.4,2.47-68.66,10.14-2.96,1.02-6.09,1.55-9.51,2.39,1.32-17.69,9.71-28.3,24.23-32.15,26.82-7.1,53.89-11.86,81.82-10.12,35.92,2.24,70.02,11.17,99.3,32.4,27.87,20.21,52.71,43.84,68.35,75.55,7.65,15.5,17.35,30.19,20.09,47.61,1.9,12.11,2.72,24.42,3.59,36.67,1.13,15.97.74,31.88-1.36,47.83-1.36,10.28-6.31,18.64-10.63,27.46-.75-.12-1.49-.23-2.24-.35Z"/>
  <path class="st0" d="M506.52,1054.57c-11.25-2.21-19.09-5.83-25.87-11.11-2.87-2.23-4.81-6.38-5.93-10.03-7.14-23.33-11.81-47.32-11.91-71.62-.16-41.43,8.8-81.08,33.67-114.98,20.15-27.45,43.64-52.01,75.1-67.4,15.53-7.59,30.2-17.36,47.64-19.97,13.11-1.96,26.42-2.72,39.67-3.69,15.66-1.15,31.26-.46,46.8,1.92,9.33,1.43,17.11,5.98,24.7,12.51-5.78,0-11.56.18-17.33-.03-29.65-1.11-58.35,4.35-86.21,13.77-10.27,3.47-20.03,9.05-29.25,14.89-22.79,14.46-45.08,29.62-61.83,51.49-21.55,28.13-34.4,59.85-39.6,94.71-1.72,11.51-2.87,23.15-3.41,34.77-.99,21.53,3.34,42.34,9.93,62.74,1.08,3.33,2.11,6.67,3.81,12.01Z"/>
  <path class="st0" d="M1149.79,1564.35c-2.26,11.3-5.38,22.51-6.62,33.92-7.27,66.87,7.82,127.1,54.92,177.05,27.2,28.84,59.14,50.68,97.91,60.99,10.85,2.89,22.14,4.79,33.34,5.53,22.98,1.52,45.94.92,68.36-5.56,1.9-.55,3.94-.69,5.92-.8.92-.05,1.86.45,3.94,1-.87,6.41-1.15,13.02-2.88,19.24-.84,3.03-4.02,5.84-6.82,7.76-2.33,1.6-5.6,2.01-8.53,2.55-37.01,6.85-73.69,8.29-110.73-1.71-39.93-10.78-72.83-31.9-100.27-62.12-18.77-20.67-33.79-43.66-41.18-71.05-7.04-26.1-12.62-52.35-11.51-79.65,1.21-29.67,7.45-58.01,20.97-84.58.57-1.12,1.41-2.09,2.13-3.13.35.19.71.38,1.06.57Z"/>
  <path class="st0" d="M766.22,480.29c-5.1-6.76-8.91-11.73-12.63-16.76-2.66-3.59-2.53-7.57-.73-11.36,1.56-3.29,3.43-6.49,5.54-9.46,21.36-30.14,45.88-56.61,78.65-75.26,38.13-21.71,78.54-29.5,121.79-26.08,25.22,1.99,49.32,7.6,71.4,20.28,19.92,11.44,39.48,23.41,56.16,39.51,23.86,23.03,42.19,49.62,52.94,81.18.64,1.88,1.14,3.82,1.65,5.75.06.22-.31.55-.9,1.51-.87-.86-1.81-1.46-2.3-2.33-33.79-58.97-83-97.74-150.24-110.21-47.27-8.77-93.54-2.9-137.01,19.18-32.4,16.46-56.41,41.83-76.15,71.74-2.33,3.53-4.67,7.05-8.16,12.32Z"/>
  <path class="st0" d="M1911.79,422.97c6.8-5.02,12.14-9.46,18.01-13.03,2.18-1.32,5.78-1.27,8.42-.59,3.13.8,6.1,2.67,8.81,4.54,30.98,21.39,58.04,46.24,77.21,79.51,24.5,42.54,31.36,87.67,24.99,135.64-3.39,25.54-12.91,48.32-26.24,70.41-13.25,21.96-28.33,41.93-47.61,58.59-19.8,17.12-41.81,30.77-67.05,38.61-1.79.56-3.67.81-6,.11,1.23-.91,2.41-1.88,3.68-2.72,10.54-6.94,22-12.81,31.48-20.98,32.55-28.05,58.3-60.98,71.31-102.86,10.51-33.82,11.78-67.99,6.42-102.7-4.7-30.45-15.23-58.75-33.8-83.37-16.13-21.39-35.49-39.69-58.67-53.61-3.31-1.99-6.37-4.38-10.96-7.56Z"/>
  <path class="st0" d="M823.16,1625.66c-4.34,3.49-7.11,5.82-9.99,7.99-11.77,8.86-13.99,9.15-26.44.52-30.66-21.26-57.3-46.1-76.18-79.13-23.25-40.69-30.53-83.74-25.33-129.79,2.54-22.51,8.44-43.75,19.44-63.49,14.65-26.3,31.41-51.05,54.68-70.68,20.54-17.33,43.02-31.36,68.92-39.35,1.14-.35,2.3-.64,4.61-1.27-.97,1.96-1.13,3.05-1.72,3.38-57.62,32.39-95.98,79.94-109.88,144.89-11.49,53.67-4.09,105.59,23.88,153.31,16.07,27.42,39.22,48.56,65.99,65.66,3.57,2.28,7.08,4.68,12.03,7.97Z"/>
  <path class="st0" d="M1585.28,485.32c2.46-13.14,5.79-25.69,7.05-38.46,6.68-67.9-10.6-128.07-59.42-177.39-24.2-24.45-52.05-43.26-85.03-54.32-30.5-10.23-61.43-10.64-92.76-6.21-6.24.88-12.36,2.62-18.56,3.84-2.48.49-5.03.65-9.23,1.17,1.19-8.24,1.85-15.42,3.38-22.41,1.05-4.79,5.63-6.59,9.9-7.33,12.77-2.22,25.56-4.69,38.44-5.82,26.35-2.33,52.23-.43,78.13,6.45,40.03,10.63,72.66,32.23,100.03,62.46,17.81,19.67,32.43,41.44,39.76,67.37,7.43,26.31,13.63,52.89,12.66,80.49-1.06,30.27-7.01,59.44-21.12,86.58-.6,1.15-1.36,2.23-2.11,3.29-.15.21-.62.18-1.13.31Z"/>
  <path class="st0" d="M1907.01,1241.54c2.15.53,4.32.98,6.44,1.61,14.42,4.33,29.12,6.97,44.2,7.05,18.97.09,37.97.6,56.74-3.13,35.98-7.14,68.37-21.95,96.12-46.08,29.37-25.54,52.12-55.88,65.22-92.93,12.59-35.61,12.56-71.77,4.95-108.29-.94-4.49-1.88-8.98-3.08-14.73,8.93-.3,16.96-.02,23.97,3.4,3.15,1.54,5.51,6.57,6.46,10.45,5.18,21.12,6.54,42.67,6.7,64.37.16,21.58-5.15,42.19-10.5,62.77-1.74,6.67-5.12,12.97-8.13,19.26-14.44,30.19-34.3,56.01-60.74,76.86-18.26,14.4-37.71,26.17-60.24,32.36-25.39,6.97-50.94,12.64-77.59,11.91-31.08-.86-60.69-7.24-88.44-21.51-.83-.43-1.55-1.08-2.32-1.63.08-.58.16-1.16.24-1.75Z"/>
  <path class="st0" d="M1594.97,1559.06c.98,1.1,1.93,1.93,2.59,2.95,7.09,10.84,13.03,22.66,21.38,32.41,28.43,33.21,62.14,59.1,104.81,71.92,35.22,10.58,70.69,11.43,106.67,4.82,57.29-10.53,99.52-42.49,130.56-90.69,2.29-3.55,4.79-6.98,8.01-11.65,4.93,6.63,9.4,11.97,13,17.84,1.33,2.18,1.33,5.77.68,8.41-.78,3.13-2.62,6.13-4.49,8.84-21.42,30.97-46.2,58.11-79.54,77.23-40.96,23.5-84.32,30.97-130.74,25.6-21.83-2.53-42.65-7.82-61.63-18.78-14.66-8.46-29.25-17.34-42.65-27.63-32.21-24.75-55.31-56.45-68.35-95.17-.42-1.25-.87-2.51-1.09-3.8-.09-.55.39-1.2.78-2.29Z"/>
  <path class="st0" d="M556.76,1064.69c-8.11-1.13-14.65-1.87-21.12-3.01-4.46-.78-6.79-4.23-7.72-8.29-1.77-7.77-3.5-15.58-4.63-23.46-4.55-31.58-3.95-62.72,4.3-93.99,10.74-40.71,32.49-73.97,63.39-101.72,19.76-17.75,41.6-32.25,67.54-39.45,25.36-7.04,50.95-13.09,77.52-12.44,30.98.76,60.8,6.72,88.58,21.08,1.39.72,2.69,1.6,4.99,2.99-1.88.61-2.73,1.21-3.37,1.04-86.75-22.91-162.13-4.01-223.85,62.19-22.73,24.38-39.22,52.97-47.52,85.62-2.44,9.61-4.07,19.59-4.68,29.49-1.46,23.66-.97,47.26,5.6,70.35.7,2.46.56,5.16.99,9.61Z"/>
  <path class="st0" d="M643.59,1347.45c-3.87,5.34-7.77,10.65-11.62,16.01-17.33,24.16-28.5,50.9-34.75,79.97-5.8,26.93-6,54.01,1.09,80.19,11.52,42.56,29.33,82.3,63.62,112.18,13.07,11.38,27,21.7,42.61,29.53,3.16,1.59,6.2,3.42,9.4,5.2-.97,1.34-1.32,2.28-1.69,2.29-12.3.4-24.6,1-36.9.86-3.43-.04-7.13-1.79-10.2-3.59-59.98-35.22-94.51-87.33-103.4-156.37-.51-3.96-1.19-7.9-1.74-11.86-3.88-27.52,2.94-53.53,11.31-79.31,8.17-25.18,22.92-46.43,39.89-66.33,1.27-1.48,2.79-3.27,4.51-3.75,8.85-2.5,17.82-4.62,26.74-6.87.38.61.76,1.23,1.15,1.84Z"/>
  <path class="st0" d="M1690.11,1748.16c5.31,3.85,10.62,7.71,15.95,11.55,24.1,17.38,50.74,28.81,79.84,34.87,39.04,8.13,76.69,4.12,113.23-11.66,20.81-8.98,41.21-18.32,58.98-33.04,20.9-17.31,36.85-38.24,49.88-61.71,1.85-3.33,3.68-6.65,5.53-9.98.65.17,1.31.34,1.96.52.27,2.1.72,4.2.78,6.31.18,6.66-.47,13.41.47,19.95,1.51,10.58-1.61,19.36-7.15,28.2-33.85,54-82.52,85.54-144.97,96.25-11.46,1.97-23.19,4.17-34.68,3.68-14.52-.62-29.17-2.88-43.33-6.24-29.5-7-56.66-19.24-79.34-40.06-1.71-1.57-3.57-3.04-5.55-4.23-4.61-2.76-6.92-6.66-7.9-12.01-1.29-7.07-3.46-13.99-5.25-20.97.51-.48,1.03-.95,1.54-1.43Z"/>
  <path class="st0" d="M627.41,740.86c-6.45,1.05-12.92,2-19.36,3.15-57.53,10.33-104.97,37.57-136.1,87.63-23.65,38.04-38.59,79.84-35.65,125.89,1.1,17.26,3.64,34.44,9.22,50.98,1.14,3.38,1.92,6.88,2.86,10.29-1.33.43-2.19.94-2.41.74-9.03-8.35-18.25-16.52-26.84-25.31-2.61-2.67-4.06-6.9-5.03-10.68-17.34-67.39-3.9-128.13,37.87-183.74,27.82-37.04,65.01-58.33,108.49-70.11,12.42-3.36,25.6-3.95,38.47-5.54,2.15-.27,4.77.31,6.67,1.39,7.43,4.23,14.65,8.82,21.95,13.27-.05.68-.1,1.35-.15,2.03Z"/>
  <path class="st0" d="M1044.83,300.56c-2.58-1.79-5.25-3.45-7.71-5.39-31.39-24.73-67.08-39.38-106.59-44.06-26.4-3.13-52.55-.38-77.73,8.67-10.64,3.82-21.07,8.25-31.5,12.63-42,17.64-72.16,48-93.75,87.52-2.01,3.67-4.08,7.3-7.19,12.84-1.01-4.14-1.79-5.95-1.84-7.77-.28-9.99-.94-20.01-.31-29.95.32-5.06,2.24-10.47,4.86-14.87,35.67-59.76,88.53-92.61,157.28-102.2,42.57-5.94,81.38,4.17,118.27,23.48,13.69,7.17,25.44,18.06,38.01,27.35,1.27.94,2.54,2.45,2.94,3.93,2.38,8.84,4.51,17.76,6.72,26.65-.49.39-.97.78-1.46,1.18Z"/>
  <path class="st0" d="M1083.9,1764.51c1.3,7.8,2.63,15.59,3.88,23.39,4.06,25.34,13.91,48.57,26.7,70.51,12.71,21.82,29.4,40.36,50.24,54.79,8.98,6.22,18.22,12.52,28.2,16.73,19.26,8.11,38.69,16.51,58.86,21.63,32.94,8.35,66.06,5.11,98.53-4.67,4.02-1.21,8.08-2.29,13.11-1.78-1.8,2.21-3.48,4.54-5.42,6.62-5.22,5.6-10.7,10.96-15.8,16.66-4.61,5.15-10.11,8.23-16.85,9.91-67.11,16.79-127.32,3-182.61-38.34-34.75-25.98-55.32-60.72-67.98-100.74-4.65-14.72-5.21-30.75-7.4-46.21-.3-2.15.22-4.81,1.29-6.7,4.21-7.41,8.79-14.61,13.23-21.89.68.03,1.35.06,2.03.1Z"/>
  <path class="st0" d="M1371.78,103.8c1.6-2.05,3.01-4.16,4.73-5.99,3.42-3.64,7.59-6.7,10.42-10.73,8.05-11.46,19.41-16.34,32.66-18.9,62.69-12.13,119.6.24,170.4,39.35,1.58,1.22,3.11,2.52,4.72,3.69,37.13,27.07,56.78,65.3,68.17,108.41,3.11,11.79,3.52,24.31,4.98,36.52.22,1.87-.13,4.15-1.05,5.75-4.41,7.69-9.11,15.21-14.69,24.4-1.01-3.93-1.91-6.26-2.18-8.66-4.21-38.63-18.01-73.59-41.2-104.61-17.18-22.98-38.53-41.6-64.91-53.33-18.19-8.1-36.7-16.15-55.84-21.31-35.23-9.5-70.58-6.34-105.32,4.24-2.86.87-5.73,1.72-8.62,2.44-.43.11-1.05-.56-2.26-1.27Z"/>
  <path class="st0" d="M2107.37,1308.21c8-1.35,16.01-2.68,24-4.05,25.25-4.33,48.55-13.97,70.49-26.86,22.1-12.98,40.69-30.07,55.32-51.17,5.66-8.16,11.33-16.59,15.22-25.66,7.85-18.32,16.09-36.72,21.28-55.87,9.44-34.91,6.23-69.94-4.11-104.39-1.03-3.42-2.02-6.85-3.58-12.15,3.14,1.74,4.85,2.3,6.04,3.41,7.07,6.57,14.44,12.9,20.86,20.08,3.62,4.05,6.67,9.25,8.17,14.46,9.59,33.35,9.18,66.74,1.67,100.66-6.8,30.68-21.3,56.89-39.38,82.08-25.33,35.29-60.51,55.61-100.53,68.33-15.03,4.78-31.41,5.31-47.2,7.65-1.57.23-3.52.02-4.86-.74-7.93-4.53-15.74-9.28-23.59-13.96.07-.6.13-1.21.2-1.81Z"/>
  <path class="st0" d="M2021.82,376.29c3.22-.21,6.38-.51,9.55-.6,5.66-.16,11.42.42,16.97-.43,10.22-1.56,18.75,1.48,27.3,6.84,57.43,35.95,88.79,87.92,98.33,154.64,6.08,42.57-3.89,81.46-23.2,118.4-7.31,13.99-18.41,26.02-28,38.78-1.28,1.7-3.73,2.9-5.88,3.48-7.93,2.13-15.95,3.89-25.59,6.19,1.55-3.06,2.26-5.45,3.72-7.2,16.06-19.15,27.31-40.98,35.55-64.4,14.77-41.98,15.7-84.1.25-126.16-3.33-9.06-7.19-17.92-10.89-26.83-17.76-42.81-48.67-73.34-88.94-95.11-2.92-1.58-5.8-3.22-8.63-4.95-.36-.22-.27-1.17-.55-2.64Z"/>
  <path class="st0" d="M1113.35,487.18c9.05-2.25,15.62,1.32,20.28,7.7,12.89,17.64,22.57,36.81,26.27,58.69,12.96,76.58-11.47,141.49-61.41,198.65-16.9,19.34-38.57,31.51-61.57,41.51-29.04,12.63-59.41,19.51-91.28,17.85-16.86-.87-33.49-3.49-49.63-9.68,2.7,0,5.47-.37,8.1.06,24.22,3.98,47.87.29,71.07-6.13,25.1-6.94,49.43-16.01,70.31-32.37,27.67-21.67,50.45-47.25,65.05-79.65,7.95-17.64,15.84-35.28,19.31-54.44,4.53-25.08,5.22-50.34,1.47-75.57-3.14-21.11-7.74-41.89-16.74-61.44-.65-1.42-.75-3.1-1.22-5.16Z"/>
  <path class="st0" d="M1859.06,848.77c-1.65,1.41-3.22,2.94-4.97,4.21-17.8,12.94-31.6,29.5-42.89,48.17-15.79,26.11-28.58,53.38-31.89,84.27-3.46,32.2-1.59,63.86,9.57,94.51,4.32,11.87,8.74,23.79,14.33,35.1,18.85,38.17,48.41,66.56,84.16,88.68,11.53,7.14,24.24,12.38,36.39,18.52,1.14.58,2.16,1.39,3.61,2.34-5.04,8.13-12.44,10.42-20.7,8.97-20.8-3.64-40.55-10.05-58.3-22.16-49.94-34.07-78.48-82.04-92.07-139.93-4.44-18.89-7.06-38.11-6.05-57.43.65-12.51,2.78-25.23,6.33-37.25,11.61-39.3,30.59-74.53,62.04-101.73,10.53-9.11,22.36-16.72,33.69-24.88,1.73-1.25,4-1.76,6.02-2.61.25.41.5.81.75,1.22Z"/>
  <path class="st0" d="M1905.23,770.51c1.47,9.76-2.65,16.4-9.92,21.52-19.07,13.43-39.89,22.22-63.11,26.04-23.04,3.79-45.54,2.47-68.49-1.16-53.23-8.41-96.79-34.45-134.28-71.62-8.36-8.29-14.71-19.01-20.47-29.45-15.09-27.36-25.05-56.57-28.03-87.86-2.42-25.4,1.19-50.19,7.41-74.66.74.03,1.48.06,2.23.08-.23,3.35-.23,6.74-.73,10.05-3.91,25.67.89,50.49,8.13,74.84,6.85,23.05,15.68,45.34,30.86,64.53,21.38,27.02,46.39,49.5,78.04,64.05,20.95,9.63,42.07,18.67,65.18,21.5,31.03,3.8,61.89,2.79,92.23-5.24,13.42-3.56,26.57-8.15,40.95-12.61Z"/>
  <path class="st0" d="M875.87,1200.48c1.66-1.49,3.21-3.15,5.01-4.45,19.58-14.12,34.24-32.61,46.05-53.3,12.75-22.31,23.89-45.35,27.58-71.3,4.86-34.13,4.02-67.78-7.74-100.53-4.61-12.83-9.32-25.74-15.38-37.92-18.51-37.15-47.36-64.94-82.07-86.77-11.77-7.4-24.76-12.86-37.18-19.23-1.38-.71-2.69-1.56-4.79-2.79,5.72-7.9,13-9.93,21.32-8.61,19.91,3.17,38.75,9.29,55.83,20.45,21.75,14.2,39.68,31.86,54.94,53.1,28.99,40.33,42.59,85.16,45.26,134.24,1.4,25.73-5.42,49.44-14.59,72.73-11.63,29.53-28.65,55.57-52.46,76.87-12.44,11.13-25.86,20.89-41.79,27.5Z"/>
  <path class="st0" d="M1542.99,1515.75c-1.25-1.47-2.6-2.86-3.73-4.41-12.9-17.84-29.41-31.72-48.1-43-24.06-14.51-49.03-26.9-77.34-30.96-34.47-4.94-68.43-3.69-101.42,8.4-12.49,4.58-25.11,9.12-36.93,15.13-37.58,19.1-65.76,48.41-87.55,84.01-7.58,12.39-13.84,25.59-20.69,38.42-7.28-4.34-10.62-11.09-8.71-20.53,3.5-17.31,7.65-34.46,17.22-49.73,13.74-21.9,29.94-41.21,51.14-56.74,26.19-19.18,54.38-33.25,85.71-41.39,21.74-5.65,43.95-8.25,66.25-8.02,11.8.12,23.85,2.92,35.28,6.25,40.42,11.75,76.34,31.36,104.11,63.76,8.42,9.83,15.53,20.79,23.07,31.35,1.4,1.97,1.98,4.52,2.94,6.8-.42.22-.83.45-1.25.67Z"/>
  <path class="st0" d="M1838.94,1247.91c-6.59-.69-13.16-1.58-19.76-2.03-18.79-1.26-37.24,1.38-55.31,6.2-26.82,7.14-52.76,16.48-74.96,33.93-27.35,21.5-49.8,46.94-64.35,78.93-9.26,20.36-17.99,40.88-20.82,63.27-3.96,31.33-2.97,62.49,5.19,93.13,3.57,13.41,8.13,26.56,12.24,39.82-8.76,2.11-15.07-.17-20.84-8.37-12.97-18.46-22.07-38.49-25.99-60.97-4.05-23.26-3.33-46.14.32-69.45,8.37-53.46,33.96-97.62,71.43-135.33,8.53-8.58,19.44-15.22,30.15-21.12,36.88-20.3,76.25-31.35,118.7-28.02,13.2,1.04,26.26,4.04,39.36,6.28,1.83.31,3.52,1.38,5.28,2.1-.21.54-.43,1.08-.64,1.63Z"/>
  <path class="st0" d="M1189.72,530.89c2.97,3.19,4.44,4.44,5.52,5.97,13.94,19.69,32.38,34.38,52.94,46.37,24.84,14.5,50.77,26.32,79.95,29.42,32.54,3.45,64.49,1.69,95.43-9.75,11.84-4.38,23.78-8.77,35.06-14.38,38.1-18.95,66.37-48.58,88.47-84.32,7.66-12.38,13.83-25.67,20.68-38.55,7.33,3.98,10.22,9.92,8.57,20.37-3.03,19.23-8.85,37.51-19.52,54.03-14.05,21.77-31.43,39.92-52.56,55.36-44.55,32.57-94.51,46.61-148.79,46.33-13.35-.07-26.89-4.19-39.98-7.76-21.64-5.91-41.64-15.86-60.34-28.17-26.94-17.72-47.52-41.44-63.57-69.23-.58-1.01-.76-2.25-1.86-5.69Z"/>
  <path class="st0" d="M1144.01,1495.87c.58-4.93,1.24-9.84,1.74-14.78,2.32-22.91-1.24-45.24-7.64-67.09-7.04-24.04-15.81-47.4-31.58-67.45-21.73-27.63-47.23-50.5-79.67-65.08-18.27-8.21-36.53-16.31-56.43-19.65-24.8-4.16-49.71-4.81-74.61-.96-21.11,3.27-41.86,7.95-61.4,16.97-1.11.51-2.5.42-4.27.69-1.99-10.71,3.26-17.17,11.09-22.68,20.31-14.3,42.86-22.17,67.36-25.95,22.17-3.42,43.74-1.05,65.52,2.58,44.72,7.44,82.6,28.41,116.92,57.16,22.14,18.55,36.02,42.46,47.02,68.46,12.52,29.59,18.57,60.47,16.08,92.58-1.05,13.55-4.04,26.95-6.28,40.39-.31,1.84-1.42,3.55-2.16,5.32-.56-.17-1.12-.34-1.68-.52Z"/>
  <path class="st0" d="M1545.86,1646.37c-24.06-3.02-47.93-6.54-72.3-3.33-24.17,3.19-46.25,11.67-68.11,21.67-22.38,10.25-42.06,24.39-59.56,41.38-17.23,16.73-32.48,35.19-42.3,57.8-7.03-.15-12.68-3.07-17.99-6.18-2.07-1.21-3.62-4.69-3.85-7.28-.25-2.77.9-5.91,2.18-8.53,20.65-42.03,50.58-75.46,91.62-98.58,35.02-19.73,72.83-28.71,112.77-28.97,13.63-.09,27.31.96,40.28,5.86,12.08,4.57,17.3,12.28,17.25,26.15Z"/>
  <path class="st0" d="M800.8,710.84c27.94-18.35,51.8-40.07,67.83-68.75,15.68-28.06,26.69-57.99,30.36-90.26,3.69-32.47,2.14-64.43-9.36-96.53,4.86-2.21,9.2-4.48,13.75-6.19,8.08-3.03,11.94-1.72,14.86,6.4,3.7,10.31,7.08,20.85,9.27,31.56,10.31,50.3,4.83,99.01-18.41,144.84-14.7,28.98-33.99,55.01-60.35,74.84-6.3,4.74-13.38,8.86-20.7,11.75-9.84,3.88-18.7.75-27.25-7.66Z"/>
  <path class="st0" d="M745.07,1203.94c6.38-33.14,8.28-65.33-.69-96.95-8.78-30.95-22.13-59.88-42.28-85.34-20.3-25.65-44.07-47.1-74.8-61.67,1.96-5.33,3.46-10.34,5.62-15.06,3.13-6.83,6.67-8.52,13.58-5.47,8.5,3.76,16.89,7.98,24.76,12.91,46.36,29.01,79.07,69.26,95.43,121.49,9.69,30.95,14.27,63.02,9.14,95.66-.82,5.23-2.22,10.42-3.88,15.45-3.85,11.71-12.29,17.65-26.86,18.99Z"/>
  <path class="st0" d="M1054.15,1591.53c-18.57-28.24-40.3-52.13-69-68.17-28.07-15.7-58.03-26.65-90.31-30.36-32.48-3.73-64.45-2.05-96.36,9.23-2.25-4.79-4.58-9.13-6.35-13.68-3.11-8.01-1.88-11.73,6.39-14.73,10.3-3.73,20.84-7.12,31.56-9.31,50.32-10.31,99.05-4.88,144.9,18.4,28.99,14.72,54.94,34.08,74.94,60.33,3.61,4.74,6.86,9.86,9.61,15.15,5.83,11.24,4.41,21.8-5.38,33.14Z"/>
  <path class="st0" d="M1990.31,845.52c-11.58,50.45-4.73,96.98,17.77,141.81,22.38,44.58,54.93,78.76,99.68,102.16-1.74,4.65-3.14,9.05-5.01,13.24-3.59,8.09-7.56,9.9-15.77,6.21-7.87-3.54-15.57-7.6-22.89-12.17-46.39-28.93-79.1-69.13-95.59-121.26-10.2-32.24-14.47-65.65-8.52-99.54,1.02-5.82,2.89-11.69,5.49-16.98,4.5-9.14,12.46-13.25,24.84-13.46Z"/>
  <path class="st0" d="M1934.48,1337.91c-27.91,18.22-51.75,40.01-67.88,68.61-15.8,28.01-26.61,58.02-30.55,90.25-3.98,32.52-1.95,64.46,8.8,95.71-4.84,5.03-10.99,6.77-16.89,8.65-4.88,1.55-8.75-.86-11.14-7.47-3.28-9.06-6.34-18.29-8.4-27.68-11.06-50.47-6.65-99.57,16.16-146.1,14.94-30.46,34.99-57.48,62.39-78.25,5.26-3.99,11.08-7.45,17.08-10.2,10.8-4.96,20.57-2.44,30.44,6.49Z"/>
  <path class="st0" d="M1432.2,283.9c6.09,2.42,10.83,4.02,15.32,6.16,6.32,3.01,7.85,6.29,5.23,12.89-2.44,6.16-5.61,12.07-8.9,17.85-28.6,50.26-70.33,85.07-125.27,102.69-31.9,10.23-65.04,14.41-98.65,8.7-5.53-.94-11.11-2.48-16.23-4.73-10.09-4.42-14.81-12.7-15.31-24.91,24.44,3.02,48.28,6.9,72.63,3.52,24.47-3.4,46.96-11.83,69.12-22.11,22.06-10.23,41.47-24.19,58.82-40.89,17.56-16.9,32.71-35.86,43.23-59.16Z"/>
  <path class="st0" d="M1936.95,547.01c2.41,5.38,4.74,9.77,6.36,14.42,2.43,6.94,1,10.76-6.1,13.47-8.99,3.43-18.22,6.48-27.6,8.57-52.23,11.6-102.86,6.5-150.56-17.95-28.6-14.66-54.35-33.79-73.91-59.92-4.73-6.31-8.79-13.41-11.68-20.73-3.9-9.9-.53-18.69,7.76-27.33,27.23,43.09,64.62,71.69,112.36,87.53,47.35,15.71,94.5,17.22,143.36,1.94Z"/>
  <path class="st0" d="M1263.02,1754.8c23.62,11.58,45.63,23.05,70.13,28.88,24.27,5.77,48.79,4.29,73.91,3.75.88,7.92,1.61,14.46,2.33,21,.4,3.62-1.44,5.63-4.79,6.47-1.61.4-3.23.85-4.88,1-24.97,2.19-49.78,2.2-74.64-2.47-20.89-3.93-40.32-11.31-59.24-20.52-9.66-4.7-11.45-8.64-8.54-19.24,1.57-5.74,3.43-11.4,5.71-18.87Z"/>
  <path class="st0" d="M1957.85,582.12c-8.51-25.44-16.24-48.94-29.37-70.46-13-21.31-31.59-37.26-49.55-54.66,4.98-6.11,9.18-11.19,13.31-16.33,2.61-3.25,5.47-3.29,8.67-.99,1.35.97,2.82,1.78,4.1,2.83,36.58,29.95,64.1,66.25,78.33,111.85,2.55,8.18,1.15,12.59-5.99,17.01-5.86,3.63-12.07,6.68-19.49,10.74Z"/>
  <path class="st0" d="M637,920.53c-11.53,23.13-22.86,45.21-28.72,69.74-5.8,24.28-4.13,48.81-3.74,73.99-9.23.79-17.09,1.45-26.02,2.21-1.02-4.88-2.23-8.94-2.68-13.08-3.29-29.78-1.48-59.37,6.68-88.11,4.42-15.57,11.78-30.33,18.04-45.36,1.96-4.71,6.01-7.41,11.16-6.84,8.57.95,16.69,3.64,25.29,7.44Z"/>
  <path class="st0" d="M856.11,1592.23c-6.13,7.34-11.19,13.4-16.73,20.04-4.37-2.87-8.18-4.87-11.41-7.58-35.19-29.43-61.88-64.79-75.85-109.02-3.07-9.73-1.85-13.81,7.03-19.03,5.4-3.18,11.07-5.91,17.77-9.45,1.28,3.32,2.47,5.84,3.25,8.49,8.34,28.3,19.61,55.24,38.45,78.27,7.74,9.46,17.01,17.67,25.61,26.42,3.67,3.73,7.41,7.4,11.88,11.86Z"/>
  <path class="st0" d="M1935.04,1535.68c7.39,6.19,13.42,11.24,20.22,16.93-2.95,4.47-5.09,8.54-7.98,11.98-29.28,34.82-64.4,61.28-108.25,75.21-10.01,3.18-13.83,2.12-19.13-6.68-2.74-4.55-5.17-9.29-7.61-14.02-.58-1.13-.64-2.54-1.12-4.58,2.51-.92,4.87-1.92,7.32-2.65,26.58-7.97,52.23-18.02,74.27-35.36,8.57-6.74,16.52-14.33,24.4-21.89,5.94-5.7,11.34-11.96,17.88-18.94Z"/>
  <path class="st0" d="M924.97,434.14c-24.89,8.52-48.48,16.04-69.94,29.23-21.28,13.07-37.65,31.23-54.81,49.95-7.33-6.06-13.59-11.23-20.68-17.09,3.39-4.86,5.87-9.12,9.02-12.82,29.01-34.12,63.54-60.28,106.77-73.94,10.91-3.45,14.91-2.33,20.55,7.52,2.96,5.17,5.59,10.52,9.1,17.16Z"/>
  <path class="st0" d="M2131.03,984.87c7.37-.84,13.61-1.56,19.85-2.25,3.89-.43,6.45,1.05,7.17,5.1.52,2.94,1.36,5.87,1.51,8.84,1.2,24.94,1.18,49.71-3.89,74.45-4.05,19.8-11.62,38.06-20.16,56.08-3.89,8.21-8.32,10.35-16.86,8.15-6.63-1.7-13.1-4.06-20.58-6.42,1.74-3.7,2.82-6.39,4.23-8.9,15.45-27.58,25.64-56.93,28.89-88.44.78-7.54-.1-15.25-.15-22.88-.05-7.55-.01-15.1-.01-23.73Z"/>
  <path class="st0" d="M1472.22,294.05c-13.26-6.36-24.45-12.28-36.06-17.19-27.94-11.82-56.84-18.68-87.53-15.65-6.51.64-13.14.09-20.79.09-.8-8.92-1.54-17.02-2.38-26.34,6.6-1.04,12.05-2.31,17.57-2.69,27.08-1.85,53.9-.2,80.4,6.06,17.35,4.1,33.22,11.8,49.12,19.45,5.1,2.46,7.37,7,6.16,12.43-1.71,7.7-4.11,15.26-6.48,23.83Z"/>
  <path class="st0" d="M1552.5,1363.88c51.9-73.17,65.86-151.28,31.85-237.32,3.26,1.2,5,1.68,6.6,2.46,6.29,3.04,12.29,6.88,18.86,9.09,10.37,3.49,13.82,10.63,15.32,20.87,7.7,52.65-3.02,101.99-26.23,149.03-10.88,22.06-27.86,39.49-46.39,55.87Z"/>
  <path class="st0" d="M1592.23,943.4c13.19-4.83,23.74-8.76,34.34-12.53,4.89-1.74,9.33.06,13.07,3,18.31,14.42,36.99,28.58,50.5,47.96,15.63,22.42,29.71,45.69,38.98,71.68,9.22,25.85,10.71,52.5,8.83,79.97-.68-1.77-1.71-3.48-2-5.31-5.5-35.32-16.81-68.61-36.92-98.25-23.36-34.44-52.5-62.69-91.48-79.38-4.49-1.92-8.87-4.12-15.33-7.13Z"/>
  <path class="st0" d="M1707.11,840.13c-72.9-52.27-150.98-66.7-236.97-32.56.76-2.77.98-4.54,1.71-6.07,3.73-7.8,8-15.38,11.29-23.36,2.62-6.35,7.06-9.44,13.46-10.27,26.49-3.4,52.92-5.9,79.46.16,23.4,5.35,46.49,11.25,68.37,21.58,20.24,9.56,45.61,29.11,62.69,50.51Z"/>
  <path class="st0" d="M1285.34,797.04c-3.57-9.96-7.12-19.92-10.73-29.86-2-5.5-1.09-10.63,2.43-15.05,16.17-20.33,32.24-40.74,54.58-55,19.37-12.36,38.86-24.25,60.48-32.6,26.67-10.3,54.31-12.36,82.39-12.19.8,0,1.6.57,2.56,1.8-27.31,5.39-54.02,12.15-79.08,24.45-25.14,12.34-46.55,29.26-66.19,49.1-19.99,20.19-33.32,44.38-44.41,70.2-.68-.28-1.35-.56-2.03-.84Z"/>
  <path class="st0" d="M996.89,915.31c15.06,88.34,60.06,153.49,144.74,190.05-2.81,1.45-4.3,2.44-5.95,3.02-8.15,2.91-16.42,5.5-24.48,8.63-5.88,2.28-11.19,1.73-15.98-2.05-20.42-16.11-40.74-32.32-55.09-54.61-13.55-21.04-26.3-42.39-34.63-66.22-8.96-25.64-10.43-51.98-8.61-78.82Z"/>
  <path class="st0" d="M1265.98,1240.98c-5.77,12.25-10.43,22.14-15.1,32.04-2.96,6.28-8.81,7.84-14.81,8.58-32.24,3.97-64.11,3.85-95.93-4.88-29.5-8.09-57.72-18.33-81.73-37.72-11.04-8.92-21.2-18.93-31.16-29.26,4.23-.78,6.65,1.98,9.3,3.89,27.6,19.91,57.8,34.3,91.18,41.05,41.14,8.32,81.92,7.78,121.6-7.98,4.82-1.91,9.81-3.39,16.65-5.72Z"/>
  <path class="st0" d="M1182.43,684.19c-51.53,73.79-66.17,151.87-33.54,238.07-3.3-1.74-6.57-3.56-9.92-5.2-4.78-2.34-9.44-5.21-14.49-6.69-10.45-3.06-13.76-10.54-14.42-20.32-.45-6.64-1.45-13.25-1.78-19.89-2.77-56.81,11.02-108.96,44.98-155.03,7.47-10.14,16.84-18.88,25.4-28.2,1.03-1.12,2.5-1.84,3.77-2.74Z"/>
  <path class="st0" d="M1256.91,1394.3c89.47-14.17,155.03-58.96,191.42-143.98,1.47,2.3,2.52,3.41,2.98,4.73,2.94,8.48,5.36,17.17,8.75,25.45,2.45,5.97,1.91,11.17-1.82,15.92-14.39,18.35-28.6,37.01-47.95,50.55-21.85,15.29-44.57,29.02-69.82,38.36-26.16,9.68-53.16,11.56-80.61,10.9-.49-.01-.97-.61-2.95-1.95Z"/>
  <path class="st0" d="M1739.29,1068.44c-9.68-61.49-39.28-111.84-84.5-154.89,4.94-4.39,11.29-7.06,17.65-9.25,4.83-1.67,8.11,2.32,10.8,5.59,7.6,9.24,15.18,18.52,22.24,28.18,7.49,10.24,12.76,21.66,17.06,33.66,5.49,15.33,12.3,30.29,14.05,46.63,1.69,15.83,2.42,31.77,3.51,47.67.05.78-.52,1.61-.8,2.41Z"/>
  <path class="st0" d="M1080.64,1135.83c-6.6,3.4-12.97,6.68-20.12,10.37-28.46-23.82-44.35-55.06-55.79-89.27-7.35-21.99-12.32-67.4-7.35-77.84,7.91,62.97,37.86,113.37,83.26,156.74Z"/>
  <path class="st0" d="M1255.77,737.36c-2.35-4.72-4.68-9.09-6.74-13.58-3.06-6.68-2.99-9.03,2.69-13.88,19.25-16.45,38.64-32.52,63.45-40.63,15.48-5.06,30.44-11.58,46.69-14.14,16.47-2.59,33.01-3.19,49.93-1.5-14.17,3.27-28.7,5.48-42.41,10.1-14.43,4.86-28.5,11.23-41.94,18.43-13.16,7.05-25.92,15.17-37.73,24.29-11.75,9.08-22.09,19.98-33.94,30.91Z"/>
  <path class="st0" d="M1649.18,1148.62c4.57,1.36,8.4,2.36,12.13,3.64,9.98,3.42,11.08,5.11,10.49,16.04-2.83,52.18-22.26,97.31-57.7,135.61-4.81,5.2-9.68,10.36-15.65,14.88,37.63-50.33,52.03-107.29,50.74-170.16Z"/>
  <path class="st0" d="M1242.41,1306.16c.16.89.34,1.25.26,1.54-6.43,23.4-4.87,21.81-26.87,20.17-49.33-3.67-91.4-23.68-127.64-56.78-5.31-4.85-10.52-9.81-15.16-15.83,50.29,37.51,107.17,52.13,169.41,50.89Z"/>
  <path class="st0" d="M1491.65,742.64c1.47-4.67,2.63-8.79,4.06-12.82,3.25-9.13,5.03-10.42,15.61-9.59,26.33,2.06,51.57,7.18,76.12,18.37,27.27,12.43,50.29,29.74,71.5,50.19,1.16,1.12,2.03,2.54,2.59,4.44-8.04-2.77-13.92-8.97-21.04-13.14-7.46-4.37-14.89-8.85-22.68-12.55-7.8-3.71-15.91-6.84-24.09-9.63-7.86-2.68-15.93-4.77-23.99-6.81-8.39-2.12-16.8-4.25-25.32-5.65-8.5-1.4-17.13-2.26-25.74-2.71-8.56-.45-17.15-.1-27.03-.1Z"/>
  <path class="st0" d="M1479.23,1311.7c2.44,4.83,4.45,9.4,6.98,13.65,3.17,5.31,1.79,9.68-2.41,13.29-15.41,13.24-30.56,27.18-49.48,35.16-22.03,9.29-44.23,18.73-68.42,21.05-12.9,1.24-25.89,1.71-38.84,2.43-1.19.07-2.43-.59-3.76-2.15,14.15-3.17,28.67-5.24,42.35-9.82,14.43-4.84,28.49-11.29,41.92-18.5,13.15-7.06,25.92-15.18,37.73-24.29,11.73-9.04,22.05-19.9,33.92-30.81Z"/>
  <path class="st0" d="M1138.3,730.05c-39.18,50.45-53.69,107.21-52.45,169.46-6.75-.15-12.66-3.01-18.57-5.54-1.48-.64-2.65-2.77-3.26-4.46-.66-1.81-.79-3.95-.65-5.91,1.75-25.65,5.55-50.52,16.29-74.57,12.16-27.22,27.99-51.33,48.86-72.35,2.39-2.41,4.08-5.95,9.78-6.64Z"/>
  <path class="st0" d="M1351.6,651.36c-20.14,4.91-40.28,8.12-59.13,14.88-18.82,6.75-36.36,17.06-54.42,25.79-.65-.42-1.46-.64-1.71-1.15-6.69-13.27-6.8-13.54,6.83-19.64,33.9-15.16,69.43-22.28,106.61-20.79.52.02,1.03.5,1.82.91Z"/>
  <path class="st0" d="M1092.9,771.24c-11.08,18.15-23.24,34.84-31.9,53.19-8.56,18.12-13.59,37.91-20.15,56.94-16.16-3.86-16.57-4.17-10.96-18.84,12.8-33.48,31.94-62.83,58.13-87.45,1.34-1.26,2.9-2.29,4.88-3.84Z"/>
  <path class="st0" d="M1694.41,1167.36c2.36.75,5.12,1.49,7.78,2.5,6.35,2.4,7.11,3.83,5.26,10.34-.91,3.19-2.09,6.32-3.35,9.39-12.8,31.13-30.66,58.9-54.96,82.36-1.99,1.92-4.26,3.57-7.09,5.92,11.07-18.11,23.05-34.55,31.6-52.61,8.58-18.12,13.74-37.85,20.76-57.9Z"/>
  <path class="st0" d="M1699.05,895.18c1.9-1.64,2.33-2.21,2.91-2.47,3.3-1.49,6.63-2.91,11.1-4.84,2.14,3.11,4.72,6.02,6.35,9.39,11.09,22.93,17.66,47.24,20.54,72.45,1.45,12.68,1.57,25.51,2.29,38.27-.88.11-1.76.22-2.64.33-2.46-13.04-4.09-26.31-7.6-39.06-3.59-13.05-8.31-25.91-13.84-38.27-5.49-12.26-12.62-23.79-19.12-35.8Z"/>
  <path class="st0" d="M1619.61,748.99c-17.77-10.75-34.34-22.68-52.51-31.23-17.81-8.39-37.24-13.34-56.91-20.13,1.4-4.05,2.86-8.29,4.7-13.62,3.09.29,6.44-.05,9.3.96,36.33,12.85,67.87,33.11,94.07,61.49.6.65.87,1.59,1.36,2.53Z"/>
  <path class="st0" d="M1036,1152.76c-.94,1.56-1.03,1.95-1.28,2.1-12.97,7.98-14.26,7.82-20.38-5.89-15.12-33.89-22.37-69.37-20.52-106.55.03-.62.43-1.23,1.47-4.04,1.6,9.26,3.02,16.53,4.1,23.85,4.35,29.4,15.4,56.19,31.23,81.17,1.93,3.05,3.61,6.27,5.38,9.36Z"/>
  <path class="st0" d="M1504.28,1369.62c-2.34,1.92-4.13,3.85-6.31,5.12-27.28,15.85-81.92,26.75-114.32,21.65,7.27-1.29,14.51-2.76,21.8-3.83,29.16-4.27,55.71-15.28,80.53-30.87,3.33-2.09,6.83-3.9,11.2-6.37,2.51,5.07,4.65,9.37,7.1,14.31Z"/>
  <path class="st0" d="M1117.67,1299.18c30.98,26.47,66.83,42.74,107.5,50.14-1.67,5.52-2.46,9.36-3.99,12.87-1.66,3.82-5,3.85-8.45,2.41-10.09-4.21-20.45-7.9-30.2-12.78-22.4-11.23-42.7-25.55-60.3-43.51-2.22-2.27-4.22-4.75-6.32-7.13.58-.67,1.17-1.33,1.75-2Z"/>
  <path class="st0" d="M1049.88,814.19c-1.16,1.91-2.09,4.02-3.53,5.7-12.14,14.22-22.52,29.55-30.74,46.4-3.56,7.3-4.21,7.13-11.36,1.83,9.21-22.84,29.82-36.62,43.59-55.82.68.63,1.36,1.26,2.05,1.89Z"/>
  <path class="st0" d="M1685.28,1234.61c1.52-2.35,2.8-4.9,4.59-7.02,11.23-13.26,20.93-27.49,28.64-43.12,1.63-3.31,2.33-9.42,8.76-6.86,4.04,1.6,4.01,4.2-.75,11.8-3.34,5.33-7.02,10.54-11.13,15.3-8.04,9.32-16.46,18.32-24.78,27.4-1.2,1.32-2.69,2.38-4.04,3.55-.43-.35-.86-.7-1.29-1.05Z"/>
  <path class="st0" d="M1290.51,651.37c-13.03,2.17-26.11,4.04-39.06,6.61-7.46,1.48-14.68,4.19-22.06,6.16-5.98,1.59-6.01,1.47-8.41-5.48,9.59-6.99,46.3-11.45,69.52-7.29Z"/>
  <path class="st0" d="M1577.64,706.67c-2.13-1.34-4.46-2.45-6.36-4.06-13.75-11.68-28.53-21.76-44.8-29.65-3.28-1.59-8.66-2.9-5.67-8.42,2.93-5.39,7.04-1.91,10.19.04,5.36,3.31,10.71,6.79,15.45,10.91,10.99,9.58,21.61,19.58,32.39,29.41l-1.19,1.78Z"/>
  <path class="st0" d="M1444.2,1397.16c3.46-.47,6.9-1.03,10.37-1.38,15.19-1.52,30.19-3.92,44.62-9.11,2.18-.78,4.42-1.4,6.64-2.04,3.4-.99,6.77-1.54,7.98,2.98,1.05,3.93-1.79,5.28-4.78,6.2-2.84.88-5.72,1.97-8.65,2.22-18.75,1.57-37.51,2.94-56.27,4.37.02-1.08.05-2.16.07-3.25Z"/>
  <path class="st0" d="M1740.25,947.9c-.63-4.47-1.06-8.97-1.94-13.39-2.83-14.24-5.81-28.45-8.8-42.66-.41-1.93-1.11-3.81-1.73-5.7-1.11-3.38-1.82-6.69,2.77-7.96,4.72-1.3,5.51,2.54,6.59,5.57,1,2.79,2.03,5.71,2.26,8.63,1.4,18.4,2.58,36.82,3.83,55.23l-2.99.27Z"/>
  <path class="st0" d="M1154.95,1341.53c21.36,14.1,40.73,26.88,60.13,39.68-2.91,6.84-3.4,7.37-8.56,4.48-5.75-3.23-11.45-6.79-16.46-11.04-10.6-9.01-20.75-18.56-31.04-27.94-1.05-.95-1.79-2.24-4.07-5.18Z"/>
  <path class="st0" d="M994.24,1101.38c.55,2.08,1.44,4.13,1.6,6.24,1.37,17.97,4.83,35.49,10.57,52.59,2.49,7.41,1.79,10.1-2.3,10.58-5.78.68-5.71-4.32-6.74-7.93-1-3.51-2.11-7.08-2.36-10.68-1.18-16.86-2.08-33.75-3.09-50.63.77-.06,1.54-.12,2.31-.18Z"/>
</svg>