<svg xmlns="http://www.w3.org/2000/svg" width="3000" height="3000" viewBox="0 0 3000 3000">
  <defs>
    <style>
      .cls-1 {
        fill-rule: evenodd;
      }
    </style>
  </defs>
  <path id="Color_Fill_1" data-name="Color Fill 1" class="cls-1" d="M1801,12l10,1c4.32,15.791,9.03,91.844,4,104l-107,1q-1.5-51.995-3-104Zm45,0c20.24-.148,87.26-0.295,101,6,0.34,29.361,12.72,73.738,6,100l-103-2Q1848.005,64.005,1846,12Zm-183,2,6,1c5.05,18.286,8.85,85.589,4,104l-110,3V18Zm-155,6,21,1c0.17,22.492,6.44,89.764,0,104-23.38.151-91.98,7.771-107,1V24Zm-121,6c0.19,22.323,7.83,89.821,1,105-15.67.243-98.67,4.516-103-1-3.6-8.99-4-88.886-1-100Zm-141,6c1.33,0.667,2.67,1.333,4,2-1.28,14.03,6.14,88.625-2,100l-99,2-3-2q1.005-49.995,2-100h1Zm-149,4,14,1,3,2c-0.23,12.959.16,94.171-5,98-7.21,2.977-97.06,1.63-100-1q0.5-48.994,1-98l3-1Zm1089,84c9.05,3.163,66.28,60.029,74,70v4l-70,67c-15.17-5.855-60.51-56.87-74-71v-1C2132.74,171.8,2176.67,139.066,2186,120ZM765,136c9.448,2.659,71.105,55.914,78,65v2l-73,70h-3c-15.607-20.283-65.624-49.807-74-70ZM1861,256c-1.04-21.872-11.84-93.372-6-107,19.75-.218,88.87-1.988,102,4,0.19,17,10.71,96.222,5,103H1861Zm-78-106,36,1c2.47,26.725,10.51,80.062,4,105-23.28.166-95.75,6.43-110,0q-1.005-52.494-2-105Zm-131,2,23,1c0.33,25.509,11.25,87.492,3,106-23.34.166-96.06,6.283-110,0,3.85-16.215-8.71-97.076,0-104Zm-229,8c21.92-.631,94.08-8.643,109-2,0.18,21.743,4.57,93.666-1,106l-107,1Q1423.505,212.506,1423,160Zm-34,4c0.23,15.733,3.65,95.605-2,102-9,3.613-91.9,6.69-102,4-1.18-16.669-8.19-104.807,6-103Zm-138,3q-0.495,52.494-1,105l-103,1V172c0.67-1,1.33-2,2-3Zm-159,2,21,1V273c-15.79,4.312-97.73,4.276-107,0-3.11-16.2-4.05-88.8,2-102Zm997,44c8.24,1.579,75.3,66.3,77,74q-36,36-72,72l-15-15q-30.495-29.5-61-59C2030.61,260.991,2068.89,232.265,2089,213Zm196,2h4c10.06,25.546,55.73,46.479,71,71-0.33.667-.67,1.333-1,2q-34.5,34-69,68h-2l-73-70ZM867,225c11.938,2.092,73.719,57.128,81,68l-72,72-4-4-76-65v-3Zm-200,4c9.851,2.542,70.583,59.074,78,69l-15,15-59,62h-2l-75-70Zm1195,60,105,2q3.495,53.495,7,107c-16.29.229-100.44,3.788-107-2Q1864.5,342.506,1862,289Zm-44,1,6,1c4.36,15.285,10.09,93.426,6,109H1718q-1.005-53.495-2-107Zm-248,6,110-1q1.005,53.495,2,107l-108,1-3-2Q1570.505,348.506,1570,296Zm-38,0,3,1q0.495,54.5,1,109l-108,1c-0.33-.333-0.67-0.667-1-1V300Zm-173,6,33,1c0.22,19.168,5.83,95.42-1,105-22.14-5.94-83.66-3.1-105,1v-2q0.495-51.995,1-104ZM1144,410q1.5-51.495,3-103l105-2q-0.495,52.494-1,105H1144ZM1008,306l104,2q-0.495,51.5-1,103c-14.6,4.069-51.08,3.716-64-1v-3q10.995-11,22-22l-3-4q-30-26-60-52C1005.72,320.939,1005.55,311.12,1008,306Zm985,2c9.62,3.11,67.03,62.375,75,73v3q-36.99,35.5-74,71-21.495-22-43-44c0.33-1.333.67-2.667,1-4l32-1q-2.505-42-5-84Q1986.005,315,1993,308Zm391,0c8.72,2.264,70.93,60.631,78,70q-35.49,37.5-71,75h-2c-13.6-17.688-68.13-55.868-73-73Q2349.99,344,2384,308Zm-196,3h6q36,35,72,70v2q-36.495,36-73,72h-2l-73-71Q2153,347.5,2188,311ZM974,315c9.9,3.121,74.63,60.217,82,70q-37.995,38-76,76-2.5-2.5-5-5c-10.123-4.81-69.28-58.448-75-68Zm-205,6h3l77,69c-10.638,18.573-59.264,66.659-77,80l-11-11-65-60v-3ZM567,331c12.754,1.824,67.013,57.561,79,69q-0.5,1.5-1,3l-74,78-15-15-59-57v-2Zm1921,70q39,36,78,72v3q-35.49,36-71,72c-12.94-5.471-68.57-59.417-78-72v-3Q2452.49,437,2488,401Zm-200,4c13.63,3.774,64.68,58.339,78,71l-24,24c-3.75,8-41.57,46.172-50,48q-36.99-34-74-68v-3Q2253,441,2288,405Zm-195,2,76,71v3c-17.34,13.266-58.64,67.6-75,72q-37.5-37.5-75-75c0.67-1,1.33-2,2-3Q2057,441,2093,407ZM873,416c9.4,2.426,74.752,61.383,82,71v2l-78,79-77-72v-4Zm-204,8c9.513,3.035,71.54,60.2,79,70v3l-75,77-4-1-73-69C601.5,484.959,654.6,443.658,669,424Zm1220,9h35q22.995,23,46,46-36,34-72,68l-23-2q-2.505-55.494-5-111ZM472,434h3l73,71v2l-72,76c-12.9-3.714-63.1-58.516-75-71Zm1250,1c15.69-.208,107.4-2.035,111,3,3.65,9.215,6.72,96.776,4,107l-113,2c-0.33-1-.67-2-1-3Q1722.505,489.505,1722,435Zm-43,1h3l3,2q1.995,54.5,4,109l-3,1H1573V439Zm-248,3c25.3-.234,88.38-6.45,107,2,0.17,23.475,6.53,93.543,0,108-25.51.234-89.22,6.52-108-2q-1.005-52.494-2-105Zm-92,3,55,1V551l-107-1q-0.495-53-1-106Zm-140,2,53,1V552H1143q1.005-51.995,2-104c0.67-1,1.33-2,2-3Zm-153,1,65,1c-0.05,43.381,5.13,94.643-21,114l-82-74C1014.22,469.776,1035.23,457.966,1046,445Zm1544,52c11.1,3.493,69.76,59.844,79,71-2.56,13.087-57.08,68.584-69,78q-40.5-37.5-81-75Q2554.49,534,2590,497Zm-198,2c9.83,2.957,72.26,62.659,80,73q-5.505,5.5-11,11-31.5,32.5-63,65h-2l-76-73v-3Q2356,535.5,2392,499Zm-399,5c21.96,8.5,56.77,56.785,78,73q-37.5,38.5-75,77l-3-1c-13.11-17.124-69.92-61.3-74-77Q1955.99,540,1993,504Zm200,0h3q36.99,36,74,72v1c-16.42,14.487-58.28,68.536-75,74-9-22.494-69.38-57.088-74-77C2132.38,569.622,2184.26,515.649,2193,504ZM980,513c15.341,1.568,53.51,45.163,67,56q7.995,8,16,16-4.995,5-10,10-33.495,36-67,72l-5-1-77-75v-1Zm-207,8c9.412,2.791,76.626,66.188,79,75l-77,77-76-73v-3Zm-202,7,77,74-73,78h-3l-74-73ZM377,538c11.086,5.264,69.35,61.144,76,72-9.45,12.7-60.916,71.086-74,74l-71-69Zm1459,43c1.33,1.333,2.67,2.667,4,4q2.505,54.5,5,109c-17.19.226-108.17,4.013-115-2q-1.5-54.5-3-109Zm-449,2,9,2V696l-109-1V586Zm232,0c12.13-.252,64.72-2.72,70,2,3.69,9.3,6.71,99.787,4,110H1581l-3-2c-0.15-24.232-8.43-92.522-1-109Zm-188,1,109,1c0.54,16.22,7.37,102.844,2,109-10.31,4.148-99.04,5.5-111,0C1427.37,674.725,1425.39,598.276,1431,584Zm-226,1,48,1c0.27,27.494,6.12,89.937-3,110-13.74.249-62.56,3.368-70-2,5.83-8.364,7.16-7.037,1-15l-36-32c-0.26-11.5-4-54.418,1-60Zm1490,9,76,74c-4.61,12.189-57.36,68.288-69,77q-7.005-7-14-14-31.5-30-63-60Q2660,632.5,2695,594Zm-200,2h3q39,37,78,74v2q-34.995,38-70,76c-9.26-2.653-72.32-64.775-80-75v-3Q2460.5,633,2495,596Zm-200,4q39.99,37,80,74-7.005,7-14,14-30,31.5-60,63h-3q-37.995-38-76-76Zm-201,2c11.2,3.616,69.23,63.3,78,75v2q-37.5,37.5-75,75-7.005-7-14-14-30.99-30.5-62-61v-1Q2057.5,640,2094,602Zm-201,1c11.31,4.347,70.21,63.277,79,75q-33,33.5-66,67l-12,10c-12.35-7.175-43.83-37.727-51-50,0.33-.667.67-1.333,1-2l11-1q-1.5-28-3-56Q1872.505,624.5,1893,603Zm-803,8c15.91,7.213,73.02,60.382,84,75l-3,4q-39,38.5-78,77h-2l-79-75Q1051,651.5,1090,611Zm-213,7c8.236,2.638,76.406,66.157,82,75l-81,82-76-76v-2Zm-204,7,78,74v3l-76,76-32-32-43-42Zm-198,9c9.836,4.669,70.886,64.433,73,74-12.33,13.009-58,70.13-71,74l-72-70v-3Zm-190,6,71,70v2l-70,73h-2c-12.293-16.08-65.176-59.32-69-74C230.642,704.664,270.493,654.536,285,640Zm2510,53c8.9,2.979,61.02,62.37,69,73-5.16,12.385-53.79,68.471-65,77-12.66-5.46-62.29-59.947-72-73C2735.28,748.487,2779.28,713.54,2795,693Zm-195,3h3l76,74c-2.43,9.383-60.29,71.742-70,79l-79-77Q2565,734,2600,696Zm-201,3h3q38.49,37.5,77,75c-4.2,10.953-60.85,69.492-72,78h-3q-38.49-38.5-77-77Q2363,737,2399,699Zm-201,2c15.61,5.054,64.26,60.606,78,75-0.33,1-.67,2-1,3l-73,75h-3q-37.5-38-75-76Q2160.99,739.5,2198,701Zm-203,2q39,36.5,78,73v4l-76,77h-3c-13.69-17.9-70.53-61.245-75-78Q1957,741,1995,703ZM984,718c11.842,4.531,74.2,63.263,83,75-8.15,19.119-62.67,65.42-80,82l-3-1-77-73v-3Zm-208,6,78,74v3l-76,75-77-74v-3Zm-200,6c11.3,8.436,71.682,64.775,75,75-9.748,3.724-68.795,63.986-72,74h-5l-71-74Zm675,0,3,1q-0.495,56.495-1,113h-21c-3.97,10.313-19.32,21.849-28,28h-3q-39.99-39-80-78,30.99-31.5,62-63Zm40,0h105c0.67,0.333,1.33.667,2,1V842c-23,.166-94.45,6.1-108,0C1286.87,825.6,1284.6,741.686,1291,730Zm245,0c2.33,0.667,4.67,1.333,7,2,0.22,16.67,6.57,103.6,1,110l-110-1v-2q-0.495-53.994-1-108Zm44,0,115,3q1.5,55.494,3,111l-116-2v-2C1578.72,831.826,1576.87,741.03,1580,730Zm156,1,84,1q24.495,24.5,49,49v3l-79,77-15-14c-11.62,2.332-31.65,2.056-42-1q-0.495-56.994-1-114ZM380,734c9.62,3.11,67.035,62.375,75,73l-71,75h-1l-73-73Zm-191,6c12.524,1.924,63.182,58.2,72,70-4.954,11.692-58.2,64.151-70,73h-4c-11.183-14.939-51.935-60.807-67-69v-3Zm2514,56c8.29,2.154,70.12,66.444,72,75q-33.495,38.5-67,77h-2q-35.49-36-71-72c1.67-1.667,3.33-3.333,5-5Q2671.5,833.5,2703,796Zm-200,4c12.67,1.93,72.05,62.02,81,74v3q-35.49,39-71,78h-2c-22.89-27.127-60.86-47.264-79-78Q2467.49,838.5,2503,800Zm-203,2c12.2,3.857,71.38,63.618,82,76v2q-36.99,39.5-74,79h-2q-40.5-40.5-81-81C2250.52,854.845,2279.18,829.521,2300,802Zm-204,2c24.53,7.93,53.68,62.585,79,75-3.25,10.8-63.88,73.684-75,82q-4.005-4-8-8-35.49-35-71-70C2029.87,860.125,2079.29,825.9,2096,804Zm-203,4h3l76,75c-0.33,1-.67,2-1,3q-38.49,38-77,76h-2q-37.5-37-75-74C1823.91,866.6,1877.11,828.8,1893,808Zm-800,13c8.79,2.728,79.84,69.2,82,77v1c-24.09,14.259-62.11,70.692-84,77q-39-37.5-78-75v-3Q1052.99,859.5,1093,821Zm-214,4c10.8,3.345,73.688,63.887,82,75l-18,18-60,61c-12.557-4.831-68.942-62.351-79-75v-3Zm-203,3c9.749,3.15,69.906,64.2,78,75l-41,41-34,35-3-1-74-73v-2Zm-199,3h3c9.86,7.365,70.61,66.563,73,75-14.669,11.332-70.039,77.18-80,71l-66-71Zm-194,3h3l72,71v3l-73,74c-24.41-12.823-53.428-51.571-73-72ZM1289,992c-0.17-24.443-6.8-96.8,1-114l109,1q0.495,56,1,112Zm146-114,112,2q0.495,56.495,1,113l-112-2Q1435.505,934.506,1435,878Zm149,2c20.57-.17,99.35-2.212,113,4q0.495,56.994,1,114c-17.14.3-107.79-.752-114-7V880Zm1027,20c10.28,4.9,71.34,66.852,74,77l-70,79c-7.95-4.64-73.5-70.322-76-77Q2575,939.5,2611,900Zm-204,5c12.6,1.936,70.87,63.785,80,76-2.24,12.575-60.26,73.2-72,82l-8-8q-36.99-34.995-74-70v-3Q2369.99,943.5,2407,905Zm-209,2c9.19,1.813,76.29,67.684,84,78q-37.5,41-75,82c-17.28-6.69-66.63-63.93-82-80v-1Q2161.5,946.5,2198,907Zm-203,2q30.99,29.5,62,59c5.98,5.975,19.77,15.488,13,22q-36.495,38.49-73,77c-11.26-8.46-73.08-71.451-77-82Q1957.5,947,1995,909Zm-207,3h3c10.18,7.6,74.03,70.194,76,79q-37.995,39-76,78h-3q-39-38.49-78-77Q1749,952,1788,912Zm-587,13c10.44,3.367,75.05,66.726,84,78-4.28,10.94-71.39,70.21-84,79q-39.99-39.495-80-79Q1160.99,964,1201,925Zm-215,1q40.5,38.5,81,77l-80,77h-2c-15.242-19.95-69.613-58.53-76-78Zm-210,1h3l78,76v3q-38,37.5-76,75h-2q-38-37.995-76-76v-2Zm-199,2,76,74v4q-36.5,36.99-73,74c-1.667-.33-3.333-0.67-5-1q-35.5-36.99-71-74v-2Zm-197,3h3l71,72v4q-21.5,20.5-43,41c-1.333-.33-2.667-0.67-4-1q-0.5-16.005-1-32c-19.884,1.01-67.2,10.59-84,4q-7-6.5-14-13v-3Zm2349,73q49.5,1,99,2c3.8,13.81,5.65,92.29,2,106H2727c-3.98-14.67-4.75-96.62,0-107C2727.67,1005.67,2728.33,1005.33,2729,1005Zm-59,1c8.3-.28,18.68-0.54,24,2q-1.005,51.99-2,104c-24.69.23-85.85,6.24-104-2q0.495-30.99,1-62c0.67-.33,1.33-0.67,2-1q12,10.995,24,22c1.33-1,2.67-2,4-3Zm-156,2c15.61,6.31,29.8,27.2,41,39q-0.495,31.995-1,64l-98-3q-7.995-9-16-18Q2476.99,1049.005,2514,1008Zm350,0q48.99,1,98,2c0.16,21.92,6.28,90.09,0,104-16.34.26-95.2,0.04-99-5C2859.17,1099.61,2860.1,1015.04,2864,1008Zm-557,4,82,79c-9.81,17.94-58.44,70.57-75,83q-40.5-39.99-81-80v-3Q2269.99,1051.505,2307,1012Zm-209,1h3l78,81v2c-17.07,13.9-61,74.45-77,79h-1c-16.28-27.52-65.89-56.51-77-83Q2060.99,1052.505,2098,1013Zm-206,2c15.54,4.64,50.06,48.06,63,61,5.29,5.29,18.72,15.35,14,21q-37.995,39-76,78h-3c-15.01-19.78-68.75-63.04-75-82Q1853.49,1054,1892,1015ZM387,1025c3.666,0.33,7.334.67,11,1,0.229,16.29,3.788,100.44-2,107q-53.495,2.505-107,5c-0.282-15.69-1.226-100.92,4-105Q340,1028.995,387,1025Zm290,3q39,39,78,78c-7.092,12.21-37.893,43.93-50,51-0.667-.33-1.333-0.67-2-1q-0.5-5.505-1-11l-57,3-42-42Q640,1067,677,1028Zm206,0q39.5,39,79,78v2q-37,37.5-74,75c-11.687-3.74-70.928-64.9-80-77v-3Q845.5,1065.5,883,1028Zm211,0q40.5,39.495,81,79v3q-39.99,37.5-80,75h-2l-78-78v-2Q1054.495,1066.51,1094,1028Zm-616,2c12.782,6.17,59.2,58.65,69,72l-2,23q-55.494,2.505-111,5c-0.267-16.48-5.308-43.28,1-57Q456.5,1051.505,478,1030Zm-230,6c4.551-.03,5.9-0.13,8,2q-0.5,50.49-1,101c-20.91,1.39-93.1,11.53-106,6-0.235-20.39-2.168-88.48,4-102Q200.495,1039.505,248,1036Zm1416,0c9.5-.28,22.63-1.02,29,2,10.31,26.51,53.77,47.44,69,73-2.64,8.16-72.29,73.92-82,79l-38-38q-23.505-1.005-47-2c-0.23-16.74-3.9-104.3,2-111Zm-358,1c22.06,1.77,90.27-3.14,106,4,0.28,24.73,2.6,96.42-5,113h-54q-16.005,15.495-32,31h-2q-38.49-39-77-78v-2Q1273.995,1071.01,1306,1037Zm166,2q43.995,0.495,88,1-2.505,55.995-5,112c-24.92,2.31-88.35,8.67-110,3q1.5-57.495,3-115Q1460,1039.505,1472,1039Zm-1369,7q7.5,0.495,15,1c0.2,20.61,3.465,89.2-3,103q-51.495,1.995-103,4c-0.215-20.63-.4-87.03,6-101Q60.5,1049.505,103,1046Zm1894,75,78,81v2l-78,81h-3q-37.995-42-76-84Q1957.5,1161.01,1997,1121Zm208,0c14.56,5.59,53.99,48.64,64,62v71q-56.49-.495-113-1v-21c-9.1-3.34-25.36-20.34-28-30Q2166.49,1161.5,2205,1121ZM780,1131h3l78,79-14,15c2.346,11.7,2.045,31.25-1,42q-56.994.495-114,1v-88Q756,1155.505,780,1131Zm436,1q38.49,40.995,77,82c-0.33,1-.67,2-1,3q-36.99,39-74,78-9-8.505-18-17l-62-65v-3Zm-229,1c8.664,1.71,74.63,66.17,82,76v3l-78,78q-39.5-39.495-79-79v-3Q949.5,1170.5,987,1133Zm799,5c10.58,2.51,58.01,53.4,69,64q6.495,7.005,13,14-7.005,7.5-14,15l-68,62h-2q-39.495-37.5-79-75Q1745.5,1178.01,1786,1138Zm-210,2c8.17,2.64,71.42,68.46,77,78q-38.49,37.5-77,75h-1l-13-10q0.495-49.995,1-100c-8.91.21-20.79-.03-27-3Zm980,112H2448c-0.24-18.99-3.83-102.15,2-109q51,1.005,102,2c1,0.67,2,1.33,3,2Q2555.5,1199.5,2556,1252Zm-175-108c10.48-.27,25.77-1.4,33,2v107c-18.65.27-100.93,4.16-109-3-2.86-6.8-2.13-65.75,1-70,8.68,6.7,7.7,6.63,16,0q15.495-17.505,31-35Q2367,1144.505,2381,1144Zm209,0,103,3q1.005,52.5,2,105H2590V1144Zm243,107c-23.73.21-92.44,4.7-105-1q-0.495-51.495-1-103h101c1,0.67,2,1.33,3,2Q2832.005,1200,2833,1251Zm33-105q49.5,0.495,99,1c0.33,1,.67,2,1,3q0.495,49.5,1,99c-10.7,2.96-94.94,3.37-101-1q-1.005-50.49-2-101C2864.67,1146.67,2865.33,1146.33,2866,1146Zm-2179,8c2.333,0.33,4.667.67,7,1,0.226,17.19,4.013,108.17-2,115l-109,3V1160Zm-161,8q9.5,0.495,19,1,1,56.49,2,113c-1,.33-2,0.67-3,1q-54.495.495-109,1c-0.208-15.69-2.035-107.4,3-111Q482,1164.495,526,1162Zm-146,7q10,0.495,20,1v112q-53.495,1.005-107,2c-1.4-19.78-6.563-96.55-1-109Zm-149,7q12.5,0.495,25,1v110q-52.494,1.005-105,2V1181Q191,1178.495,231,1176Zm-119,7c3.827,1.32,2.08,0,4,3,5.833,13.68,1.148,104.87-2,105-12.052,3.31-96.635,6.12-101,2,5.1-25.68-8.753-83.34,1-105Q63,1185.495,112,1183Zm1188,7q54.495,1.005,109,2c0.25,31.81,4.58,81.61-3,109q-8.505.495-17,1l-67-70h-3c-4.37,5.96-12.18,13.73-20,16-0.33-.67-0.67-1.33-1-2Q1299.005,1218.01,1300,1190Zm147,0q54.495,0.495,109,1-0.495,55.5-1,111c-16.06.25-107.09,5.25-112-1q0.495-54.99,1-110C1445,1190.67,1446,1190.33,1447,1190Zm-338,48c16.35,2.56,67.61,66.63,81,81-0.33,1-.67,2-1,3q-18.495,18-37,36-1.005,23.505-2,47c-16.74.23-104.3,3.9-111-2-4.35-10.77-5.26-86.74-1-96C1051.25,1301.1,1099.24,1251,1109,1238Zm211,4q39,39.495,78,79v2q-38.49,39-77,78h-2l-77-80Q1281,1281.505,1320,1242Zm358,0q39.99,39,80,78-39.495,39-79,78h-2q-39-38.49-78-77Zm214,0c14.02,4.4,61.47,52.26,71,65l-3,105c-18.39.29-105.44,1.9-113-5v-52q-16.005-16.5-32-33v-3Zm944,147H2736c-1-.67-2-1.33-3-2l-3-102c17.48-.49,104.9-8.59,103,6Q2834.5,1339.99,2836,1389Zm138-2c-15.62.31-97,7.14-104,1q-1.005-51.495-2-103c24.12-3.19,78.57-7.2,102-1Q2972,1335.5,2974,1387Zm-381-102c16.3,1.84,95.39-3.7,103,3q0.495,51.99,1,104c-20.03.22-94.63,6.46-105-1Q2592.5,1338.005,2593,1285Zm-254,1q37.5,0.495,75,1c0.23,22.83,7.49,94.14,1,109H2304q0.495-54.495,1-109Q2322,1286.505,2339,1286Zm148,0q34.995,0.495,70,1v107H2449q0.495-53.49,1-107Q2468.5,1286.505,2487,1286Zm-478,115q-0.495-55.995-1-112h29c21.65,0,68.53-6.74,85,1q-0.495,53.49-1,107c-0.67,1-1.33,2-2,3Q2064.01,1400.5,2009,1401Zm151-112c23-.21,94.86-4.87,110,2v105c-0.33.67-.67,1.33-1,2H2158c-0.17-23.04-6.16-94.34,0-108C2158.67,1289.67,2159.33,1289.33,2160,1289Zm-407,9q28.5,1.005,57,2-1.005,54.495-2,109c-30.85.25-83.13,5.01-109-3q-0.495-8.505-1-17l70-67C1764.35,1313.01,1752.06,1307.58,1753,1298Zm-802,3q23.5,0.495,47,1c0.29,16.99-.782,107.58-7,114H880c-0.218-21.25-2.388-98.96,4-113Q917.5,1301.995,951,1301ZM842,1418l-111,3q-0.5-1.5-1-3c5.985-24.07-5.756-98.37,5-113,23.208,2.09,93.913-8.29,110-1ZM677,1306q9,0.495,18,1c0.226,17.08,3.985,107.2-2,114-7.9,3.21-104.755,4.88-108,2q-1.5-54.495-3-109l3-3Q631,1308.495,677,1306Zm-146,5c6.663-.25,13.048.08,17,2-7.657,30.15,10.386,87.39-2,115-24.722-11.08-79.133,6.08-107-1-1.837-19.14-6.05-100.34-1-112Q484.5,1313.005,531,1311Zm-162,6q16.5,0.495,33,1,0.5,54.99,1,110-53.495,1.005-107,2c-3.406-25.86-7.549-85.22-1-110Zm-123,3c5.76-.18,9.73.39,13,2,0.227,18.94,5.063,103.53-1,110-26.644-6.42-79.818,11.77-104,1q-0.5-54-1-108Q199.5,1322.5,246,1320Zm-143,6q8,0.495,16,1,1.5,54.99,3,110H18c-0.154-25.8-10.285-88-2-107Q59.5,1328.005,103,1326Zm1390,121c2.05-12.03,17.88-15.39,15-25q-32.49-31.5-65-63v-20q54.99-.495,110-1-0.495,54.495-1,109c-1,.33-2,0.67-3,1Q1521.01,1447.505,1493,1447Zm80-101,79,76c-0.33,1-.67,2-1,3q-37.995,36.99-76,74h-4q-19.005-21-38-42c0.33-.67.67-1.33,1-2q13.005-.495,26-1-0.495-46.995-1-94Zm-357,1c10.64,3.45,67.29,65.23,76,77v4q-4.5,4.995-9,10-49.995-.495-100-1c0.25,8.18.26,22.73-4,27h-1l-38-41v-2Q1177.995,1384.01,1216,1347Zm206,1,77,77c-2.39,9.16-33.5,37.09-42,42-3.78-6.34-1.56-21.17-3-27q-46.995.495-94,1-7.005-7.5-14-15Q1384,1387,1422,1348Zm1534,73q10.005,0.495,20,1,1.5,53.49,3,107c-25.28.19-85.37,8.43-104,0-0.15-23.35-7.81-91.91-1-107Q2915,1421.505,2956,1421Zm-146,2q15,0.495,30,1l3,108c-22.41.19-93.78,4.99-107-1q-0.495-53.49-1-107Q2772.5,1423.505,2810,1423Zm-146,3q18,0.495,36,1l3,108q-54.495.495-109,1V1427Q2629,1426.505,2664,1426Zm-133,2c10.71-.35,23.64-0.83,30,3,0.23,25.3,6.45,88.38-2,107-17.09.21-100.63,5.6-107,0-4.44-10.98-3.26-98.74,1-108Q2492,1429,2531,1428Zm-223,2q54,0.495,108,1-0.495,54.495-1,109l-110,3c-0.15-22.07-6.87-94.71,1-112C2306.67,1430.67,2307.33,1430.33,2308,1430Zm-42,2c3.69,2.88,4.7,100.81,3,111-16.75.23-104.36,6.81-111,1q0.495-54.99,1-110Q2212.49,1433,2266,1432Zm-156,2q6,0.495,12,1Q2121,1491,2120,1547H2006l3-111Q2059.49,1435,2110,1434ZM1040,1553V1440q55.995,2.505,112,5,1.5,54.99,3,110Q1097.505,1554,1040,1553Zm660-111q54.495,1.005,109,2v112q-55.5-.495-111-1C1697.72,1534.89,1690.91,1450.86,1700,1442Zm-39,1c0.24,16.27,4.69,105.53-1,110-9.14,3.65-101.88,1.17-109-3l3-57h1c8.75,3.29,13.12,11.67,20,17,1-.67,2-1.33,3-2q31.5-32.49,63-65h20Zm-470,1q55.5,0.495,111,1c0.23,16.27,4.87,107.38-1,112q-54-.495-108-1c-1-.67-2-1.33-3-2Q1190.495,1499.01,1191,1444Zm655,1,114,3v112q-55.995-2.505-112-5C1846.32,1537.69,1840.65,1454.86,1846,1445Zm-507,112q-0.495-54.99-1-110,54.495,0.495,109,1c0.33,1,.67,2,1,3q-1.005,27.99-2,56h-4l-17-17c-1,.67-2,1.33-3,2q-31.5,32.49-63,65h-20ZM989,1451c1.333,0.33,2.667.67,4,1q-1,55.995-2,112-56.495.495-113,1,1-55.995,2-112Q934.5,1452,989,1451Zm-161,3h14v2q-1,54.99-2,110h-2q-53,1.005-106,2c-0.333-.33-0.667-0.67-1-1V1457Zm-148,2c6.209-.23,11.4.24,15,2,0.193,24.13,6.255,94.97-1,111-17.7,3.34-97.875,5.47-110,0q0.5-54.495,1-109Q632.495,1458.005,680,1456Zm-157,4c8.777-.28,20.26-0.73,26,2,0.234,25.51,6.52,89.22-2,108-25.025.23-91.865,8.32-108-1-0.234-25.3-6.45-88.38,2-107Q482,1461,523,1460Zm-149,3c10.234-.28,24.984-1.31,32,2v108H300l-3-108Q335.5,1464,374,1463Zm-127,4q8,0.495,16,1,1,54,2,108c-16.677.22-98.9,4.36-105-1-3.155-7.75-4.023-103.71-2-106Q202.5,1468,247,1467Zm-146,2c7.74-.38,19.825-1.63,23,3,4.477,11.15,5.962,97.34,2,106-15.8.24-98.616,2.51-102-2q-1.5-52.5-3-105Q61,1470,101,1469Zm1323,32c9.53,1.72,38.13,33.54,43,42-7.32,4.18-20.62,2.26-27,3q0.495,46.995,1,94l-14,14c-13.65-7.98-71.16-63.64-79-77Zm118,32c1,0.33,2,.67,3,1q0.495,13.005,1,26,46.995-.495,94-1l14,14c-7.86,13.45-63.83,71.27-77,79q-37.995-38.49-76-77v-3Q1521.505,1552.5,1542,1533Zm278,3q19.995,20.505,40,41v2l-77,74c-11.24-4.68-66.5-64.77-75-77,1.54-7.45,6.04-8.14,9-14q49.995,0.495,100,1C1816.82,1554.33,1817.07,1542.12,1820,1536Zm-263,125c-16.09.24-105.24,5.06-110-1-3.37-8.58-1.95-99.43,2-108q28.995,1.005,58,2v4l-17,17c0.67,1,1.33,2,2,3q32.49,31.5,65,63v20Zm1381-99c10.32-.33,37.03-3.45,43,2q1.995,52.5,4,105c-17.94,5.16-85.55,8.87-104,4-0.45-16.59-8.23-101.88-2-109Q2908.49,1563,2938,1562Zm-106,3c6.32-.37,10.54-0.72,13,3,4.36,10.83,4.61,100.12,1,108-27.93-6.59-80.77,12.76-105,2-0.17-24.84-6.07-96.77,0-110Zm-128,5q0.495,54.99,1,110c-32.32.38-75.65,10.19-107,2q-0.495-54-1-108c0.67-1,1.33-2,2-3Q2651.5,1570.505,2704,1570Zm-154,2c3.67,0.33,7.33.67,11,1q1.005,55.995,2,112-54.99,1.995-110,4c-0.33-1-.67-2-1-3V1574Q2500.99,1573,2550,1572Zm-161,3c9.02-.28,21.05-0.83,27,2,0.22,17.24,5.73,104.34-1,112-9.54,3.78-99.32,6.84-110,4V1581c0.67-1,1.33-2,2-3Zm-120,4c0.23,24.9,4.43,99.64-3,116-23.7.14-97.53,7.04-111,1l3-114Zm-254,4q52.5,0.495,105,1-1.5,56.49-3,113-57,1.005-114,2,1.995-57.495,4-115C2009.67,1583.67,2012.33,1583.33,2015,1583Zm-975,5c24.77-.28,97.41-2.61,114,5v54q15.495,16.005,31,32v2q-39,38.49-78,77h-3q-33.495-32.49-67-65Zm152,3,109,3q0.495,8.505,1,17-34.995,33-70,66v4c5.88,4.35,13.75,12.27,16,20-0.67.33-1.33,0.67-2,1q-27.99-1.005-56-2Q1191.005,1645.505,1192,1591Zm658,4c16.74-.23,104.3-3.9,111,2,4.3,10.65,5.1,87.09,1,96-25.18,10.76-49.29,51.67-72,69h-4l-76-82,38-38Q1849.005,1618.5,1850,1595ZM992,1711c-24.117.18-96.746,6.8-114-1q0.5-54.495,1-109,56-.495,112-1Q991.5,1655.5,992,1711Zm686-112c12.61,4.87,70.04,66.75,80,80l-79,79c-11.15-8.41-73.14-70.7-77-81Q1640,1638,1678,1599Zm-886,2q25,0.495,50,1v108c-11.789,2.29-105.968,3.46-111-1q-0.5-52.5-1-105c0.333-.67.667-1.33,1-2Q761.5,1601.505,792,1601Zm528,1c14.24,4.62,67.83,63.2,81,77-0.33,1-.67,2-1,3l-79,76q-39.495-39-79-78v-2Q1281,1640.005,1320,1602Zm-659,1c10.97-.27,27.333-1.6,35,2q-0.5,54-1,108H586c-0.407-22.24-7.555-94.38-1-109Q623,1603.505,661,1603ZM443,1714V1606H551q-0.5,53.49-1,107Q496.506,1713.5,443,1714Zm-36-107c-0.193,33.96-4.468,76.7,2,107h-2q-51.995-.495-104-1V1608Q354.995,1607.505,407,1607Zm-381,6c15.265-.25,99.4-5.85,104,0,3.676,8.91,2.366,100.17,0,102-8.99,3.6-88.886,4-100,1Zm138-2H266c3.2,24.62,9.963,81.16,4,104-14.592.47-97.589,5.9-103-1Q165.5,1662.505,164,1611Zm1357,85q18,0.495,36,1c1.48,13.06,2.76,105.69-3,112H1444q0.495-55.5,1-111Q1483,1697,1521,1696Zm76,2h14q33,34.995,66,70h4c4.37-5.96,12.18-13.73,20-16l1,1q-1.005,28.5-2,57c-0.67.33-1.33,0.67-2,1l-107-3C1590.66,1786.54,1587.75,1706.73,1597,1698Zm1379,6c3.33,0.33,6.67.67,10,1q0.495,52.995,1,106c-15.72,4.32-91.68,9.18-104,4q-0.495-53.49-1-107Q2929,1706.005,2976,1704Zm-1195,1q40.5,40.995,81,82v3q-39.495,39-79,78l-15-15-61-67v-2Q1743.99,1744.505,1781,1705Zm-567,2,81,75q-40.995,39.99-82,80h-3l-78-78Q1172.995,1745.51,1214,1707Zm209,1c7.27,0.8,9.76,4.43,13,9h2q-0.495,49.995-1,100,13.005,1.005,26,2c-1.87,9.9-19.97,20.84-27,30q-6.495,5.505-13,11c-11.42-4.72-66.68-64.61-76-77v-2Zm1405,2q10.5,0.495,21,1v108c-22.2,2.89-84.75,9.3-105,4-0.17-23.28-6.43-95.75,0-110Zm-822,1h3q39.495,39,79,78v3q-28.995,28.5-58,57c-5,5.01-15.21,19.88-21,17l-78-75v-3Q1968.5,1749.51,2006,1711Zm-1004,4c9.67,2.6,71.29,72.25,80,84q-39.495,39.99-79,80-39-40.5-78-81v-2Q963.5,1755.5,1002,1715Zm1677,0q13.995,0.495,28,1,1.005,54,2,108c-14.48,4.46-93.64,10.04-109,6V1718Zm-144,6c9.75-.28,23.41-1.11,30,2,0.21,15.61,2.04,106.4-3,110-9.5,3.77-96.19,6.88-107,4q-1.005-56.49-2-113Zm-132,5q7.005,0.495,14,1,0.495,55.995,1,112c-1,.33-2,0.67-3,1q-54.495,2.505-109,5c-0.23-17.19-4.01-108.17,2-115Q2355.49,1728.005,2403,1726Zm-166,5q15.495,0.495,31,1v88l-49,49h-3q-38.49-39.495-77-79,7.005-7.5,14-15c-2.34-11.66-2.04-31.53,1-42Q2195.49,1732,2237,1731ZM731,1746c16.856-.23,105.269-3.93,112,2q0.5,10.005,1,20c10.429,4.52,21.536,19.07,28,28-4.424,11.51-66.063,74.04-78,83q-31.5-30.99-63-62v-71ZM410,1856c-21.8.27-89.268,3.11-104-5q-0.5-51.495-1-103,52.494,0.495,105,1v107Zm136-109h3c1,0.67,2,1.33,3,2v108c-15.426-1.71-101.152,2.17-106-4-3.476-8.69-3.833-94.48-1-105Q495.495,1747.505,546,1747Zm40,0c17.294-.3,104.156-2.19,109,4,2.841,6.76,2.121,64.76-1,69-9.519-5.83-7.1-7.04-16,0q-15.5,17.505-31,35H586V1747Zm-419,2q52.494,0.495,105,1,0.5,51.495,1,103H172c-1-.67-2-1.33-3-2Q168,1800,167,1749Zm-133,1c17.413,1.84,88.028-6.52,100,2l3,99c-1,.67-2,1.33-3,2q-49.995-.495-100-1V1750Zm1285,60c13.02,7.54,30.82,25.43,39,38q23.505,1.005,47,2c0.23,16.74,3.9,104.3-2,111-10.77,4.35-86.74,5.26-96,1l-69-72v-4Q1278.5,1848.005,1319,1810Zm359,5c9.92,3.21,71.64,66.86,80,78v2l-65,68-105-3c-0.29-18.33-1.87-105.48,5-113q27-.495,54-1Zm226,0,81,78v2q-30,28.995-60,58c-5.01,5.01-15.2,19.88-21,17q-39.495-38.49-79-77v-3Q1864.5,1852.5,1904,1815Zm207,2c14.78,3.24,70.73,63.28,81,77v3l-75,75h-1l-78-78v-2Q2074.5,1854.5,2111,1817Zm-1217,8c11.264,2.02,72.885,69.84,82,82v2q-37.5,39-75,78h-3q-39-40.5-78-81c1.667-1.67,3.333-3.33,5-5Q859.5,1863.005,894,1825Zm212,0h3q37.995,39.99,76,80v2l-78,78h-2q-38.49-39.495-77-79Zm-421,1q41,40.5,82,81v2l-75,79q-9.5-9.495-19-19-31-30-62-60Q648,1867.51,685,1826Zm1609,17c2.9,2.89,2.78,7.28,4,12l56-3q21.495,21,43,42l-75,78q-37.5-36.99-75-74c-0.67-1.33-1.33-2.67-2-4Q2269.5,1868.5,2294,1843Zm-764,1c7.06-.36,20.3-1.51,24,2q-1.005,57-2,114H1440q2.505-55.995,5-112Q1487.5,1846.005,1530,1844Zm1450,1c2.67,0.33,5.33.67,8,1,0.18,20.12.25,87.36-6,101-29.18.48-73.64,12.77-100,6-0.23-21.58-3.44-88.86,3-103Q2932.49,1847.5,2980,1845Zm-136,8c2.33,0.67,4.67,1.33,7,2,0.22,19.81,2,88.85-4,102-16.76.27-96.06,10.9-103,5q0.495-50.49,1-101Q2794.5,1857,2844,1853Zm-139,8c2,0.33,4,.67,6,1,0.29,15.09.98,101.14-4,105-9.31,3.77-95.4,9.48-105,7-0.23-16.29-3.79-100.44,2-107Zm-155,8q7.995,0.495,16,1,0.495,27,1,54l-46,46q-33.99-36-68-72,1.005-11.505,2-23ZM39,1886l98,3c1.734,12.27,4.013,96.34-1,102q-48.994-.495-98-1l-1-3q-0.5-49.5-1-99C37,1887.33,38,1886.67,39,1886Zm227,0c1.666,0.33,3.334.67,5,1,1,0.67,2,1.33,3,2,0.18,21.51,4.472,92.87-1,105-16.2,3.11-88.8,4.05-102-2q-0.5-52.5-1-105Q218,1886.505,266,1886Zm41,2q51.995,0.495,104,1c4.31,15.55,3.116,49.85-1,64h-1q-12-10.995-24-22l-4,3q-26,30-52,60c-8.061.28-17.88,0.45-23-2Q306.5,1940.01,307,1888Zm139,1c23.583,0.1,82.289-3.18,100,5l13,15c-3.061,8.59-65.439,77.88-74,83q-20-19.005-40-38Q445.5,1921.51,446,1889Zm1352,29,68,65q6.495,7.005,13,14-4.995,5.505-10,11-35.49,33.495-71,67h-2l-81-78v-3Q1756.49,1956.005,1798,1918Zm420,1c18.44,6.02,60.2,60.98,79,76q-36.99,39-74,78c-10-3.02-71.87-65.15-80-76v-3Zm202,0h4l72,75v2q-36.495,37.5-73,75c-1-.33-2-0.67-3-1l-74-74v-1Q2382.99,1957.005,2420,1919Zm-408,1c9.59,3.66,76.03,68.78,79,78q-38.49,37.995-77,76-40.5-38.49-81-77Q1972.5,1958.51,2012,1920Zm-804,11h3c10.52,7.86,75.49,70.1,78,79l-78,78h-3q-37.995-38.49-76-77Q1169.995,1971.01,1208,1931Zm-416,2c17.647,5.14,66.266,64.7,83,80q-37,39.99-74,80h-4q-39.5-39-79-78Zm210,0q39,39.99,78,80v2c-19.74,15.09-58.98,69.76-78,76q-38-38.49-76-77Q964,1973.5,1002,1933Zm-417,4q41,38.49,82,77v4q-38,39-76,78c-1-.33-2-0.67-3-1q-38-38.49-76-77C523.52,1995.94,566.055,1955.27,585,1937Zm-201,7,77,76q-3.5,3.495-7,7c-4.869,10.27-56.333,67.09-66,73q-36.5-36.99-73-74v-3Q349.5,1983.505,384,1944Zm2204,7c1.67,0.33,3.33.67,5,1q0.495,16.005,1,32,42-2.505,84-5,7.005,7.5,14,15v2l-73,73-74-74v-1Zm-1172,56v113l-113-3q-0.495-57.495-1-115Q1359,2004.505,1416,2007Zm37-1,111,3q0.495,56.49,1,113-55.995-1.005-112-2V2006Zm258,2c0.18,25.14,6.08,98.39-1,114q-54.495-.495-109-1-0.495-55.995-1-112Q1655.5,2008.505,1711,2008Zm1004,10c12.83,6.7,64.53,59.26,72,72v3c-10.8,11.37-63.37,70.6-74,73l-72-72Q2677.99,2056.005,2715,2018Zm-195,2h3q34.995,36.99,70,74l-12,12q-29.49,31.5-59,63h-3l-72-72v-3Q2483.5,2057.01,2520,2020Zm-404,1c12.05,3.86,70.83,63.76,80,76v3q-37.995,37.5-76,75c-9.19-3.51-75.28-65.64-81-75Q2077.49,2060.505,2116,2021Zm205,0,77,74v2l-75,75h-2l-75-75Q2283.5,2059.005,2321,2021Zm-416,3h3q39.495,37.5,79,75v3l-81,78-3-3c-9.77-4.63-75.56-66.25-78-75C1843.73,2081.57,1894.27,2046.16,1905,2024Zm-800,14c9.2,2.97,70.32,63.75,78,74-3.74,11.69-64.9,70.93-77,80h-3l-75-75,2-2Q1067.5,2076.51,1105,2038Zm-206,1q40,39,80,78c-7.791,16.23-60.438,67.31-76,79h-3l-75-76v-2Zm-208,2c11.114,3.6,74.014,68.75,84,81-0.333.67-.667,1.33-1,2-16.263,4.21-57.6,60.71-75,74-11.16-4.29-72.274-64.43-81-76v-2Zm-205,4c14.588,4.71,68.671,63.04,82,77q-0.5,1.5-1,3-35.5,37.5-71,75h-4q-38-36.99-76-74v-3Q451,2084,486,2045Zm-195,7c10.65,3.45,64.508,60.68,73,72v2q-33.5,39-67,78h-4q-34.5-36.495-69-73Zm2517,65c8.34,1.06,9.88,5.93,15,10,4.61,9.74,47.44,55.32,57,59-2.42,7.29-63.82,70.22-72,75q-34.5-35.49-69-71C2748.27,2168.28,2791.84,2138.17,2808,2117Zm-192,1q36.495,35.49,73,71v5q-34.995,36-70,72h-2q-36-36.495-72-73Q2580.49,2155.5,2616,2118Zm-195,3h5c8.15,21.02,54.44,52.61,70,73v3l-73,73c-13.82-15.34-69.36-59.55-74-75C2358.73,2191.28,2417.8,2131,2421,2121Zm-200,3c25.61,14.49,57.22,52.29,78,74-2.57,9.81-64.26,69.96-75,78q-39-36.99-78-74v-3Zm-208,1c11.47,6.63,77.67,66.55,80,77q-39,39.99-78,80h-2q-39.99-37.5-80-75C1941.15,2187.88,1995.67,2141.58,2013,2125Zm-218,3c10.23,3.09,75.77,67.03,84,78q-30.99,31.5-62,63h-71q0.495-56.49,1-113h19Q1780.505,2142.005,1795,2128Zm-586,11q7.995,7.005,16,14c9.07-1.97,35.16-3.48,41,2q1.005,56.49,2,113h-88l-49-49v-3Q1170,2177.51,1209,2139Zm-207,4h3l76,76v2q-38.49,37.995-77,76-38.5-36.99-77-74v-3Q964.5,2181.51,1002,2143Zm-205,3h3q38,37.995,76,76c-8.724,12.69-64.337,74.18-77,77q-37.5-37.5-75-75Q760.5,2185,797,2146Zm-205,2h3q39,38.49,78,77l-73,76h-3q-38-37.5-76-75Q556.5,2187,592,2148Zm-202,3c18.757,10.97,66.507,59.07,80,77q-6.5,6.495-13,13-29,31.5-58,63h-3q-37.5-36.99-75-74v-3Q355.5,2189.005,390,2151Zm1028,7,3,111h-28c-21,0-73.55,4.44-88-3-0.14-23.65-7.03-97.53-1-111Zm282-2c3.33,0.67,6.67,1.33,10,2,3.63,5.46,1.88,105.95-1,112H1604c-0.67-.33-1.33-0.67-2-1V2158Q1650.99,2157,1700,2156Zm-1500,1c10.726,3.48,64.377,61.5,73,73-4.436,11.62-57.738,68.57-69,77h-2q-33-36.495-66-73Q168,2195.51,200,2157Zm1256,0,110,3q1.005,53.49,2,107c-0.33.67-.67,1.33-1,2H1457C1456.76,2248.6,1449.87,2168.32,1456,2157Zm1257,58c25.9,10.11,46.6,54.89,72,70v4c-19.92,8.1-50.73,55.57-70,71h-2q-34.5-34.995-69-70v-2Q2678.5,2251.505,2713,2215Zm-193,3c16.26,6.22,61.07,55.42,75,70-2.32,8.76-61.35,70.36-71,78q-36-35.49-72-71v-3Zm-196,4q37.995,36.99,76,74l-6,6q-33.99,36.495-68,73l-77-74v-3Q2286.5,2260.005,2324,2222Zm-203,3q38.49,37.995,77,76c-5.48,12.93-63.12,71.01-76,81h-2q-39.495-36.99-79-74v-2Q2080.99,2265.5,2121,2225Zm-215,8c15.29,4.91,67.82,60.94,82,75l-21,21q-28.995,30-58,60c-17.24-8.97-71.05-59.07-83-75Q1865.99,2273.5,1906,2233Zm-801,12c11.23,4.27,45.14,39.52,52,50-2.58,1.45-8.46,2.06-12,3q1.5,27.99,3,56-21,21.495-42,43h-2q-37.995-37.5-76-75Zm-204,2h3q37.5,36.99,75,74-0.5,1.5-1,3-36.5,36.99-73,74h-3c-14.14-18.5-68.64-59.24-74-77Q864.5,2284.01,901,2247Zm-203,2h3l77,76q-19,19.005-38,38-18,18.495-36,37c-1.667-1.67-3.333-3.33-5-5-10.321-4.9-70.43-60.36-74-70Zm-205,3h3q39,37.5,78,75c-0.333,1.33-.667,2.67-1,4-20.145,11.57-53.143,68.53-72,73q-38.5-36.99-77-74v-2Q458.5,2290.005,493,2252Zm-196,3q39,36.99,78,74v2q-35,37.5-70,75-38-36.99-76-74C235.11,2312.88,282.663,2273.71,297,2255Zm1020,49c19.39,5.07,95.4-5.83,104,3,4.68,11.69,6.5,99.16,2,109-17.72.23-106.45,4.72-112-1q-2.505-54.495-5-109Q1311.505,2305,1317,2304Zm183,0c18.12,2.94,51.76-5.82,69,2q0.495,54.495,1,109H1460c-1.13-15.16-6.95-103.34-2-109Q1479,2305,1500,2304Zm104,0q54.495,0.495,109,1v109c-22.24.41-94.4,7.53-109,1V2304Zm147,0c13.61-.25,61.63-3.32,69,2-6.31,9.08-6.78,7.47,0,16q17.505,15.495,35,31c0.26,11.61,3.75,54.7-1,60q-53.49,1.005-107,2,0.495-54.495,1-109C1749,2305.33,1750,2304.67,1751,2304Zm-596,2c17.19-.23,108.17-4.01,115,2q1.5,54.495,3,109H1160Q1157.495,2361.5,1155,2306Zm1462,10c11.85,2.12,67.37,58.63,75,70l-70,76q-37.5-35.49-75-71v-2Zm-193,4h3q36.99,36.495,74,73c-5.29,12.5-60.7,69.78-73,79l-8-8q-33.99-33-68-66Zm-200,7c11.17,4.29,68.38,61.5,77,73v3q-37.5,37.995-75,76c-11.19-4.29-69.45-60.71-78-72v-3Q2186,2365.51,2224,2327Zm-210,6c9.72,3.13,73.15,64.53,81,75v4q-37.995,37.5-76,75c-12.81-2.28-73.1-60.12-82-72Q1975.49,2374.005,2014,2333Zm-1012,14c8.5,1.28,75.4,67.18,79,76q-37.5,36.495-75,73h-2l-75-73v-1Q965.5,2384.5,1002,2347Zm-200,2c22.915,12.25,54.544,65.96,77,72v5c-25.491,10.9-49.989,52.45-73,70h-3q-36.5-36-73-72v-1Q766,2386.01,802,2349Zm-201,3q39.5,36.495,79,73v3q-36.5,36.99-73,74-39.5-36.99-79-74Zm-201,2q40.5,36.99,81,74-36,37.5-72,75h-2c-12.911-15.14-72.667-59.53-76-74Q365.5,2391.5,400,2354Zm2123,63h3q36.495,35.49,73,71l-2,2-70,76h-3q-36-35.49-72-71v-2Q2487.49,2455.005,2523,2417Zm-197,9h3l75,69c-0.64,3.63-.4,3.03-2,5q-36,37.995-72,76h-2l-76-70v-3Zm-204,6,78,72v4q-36.99,37.995-74,76h-3q-39-35.49-78-71v-2Q2083.49,2471.505,2122,2432Zm-214,9h4l80,74Q1973,2535,1954,2555q-32.49-.495-65-1c-0.15-23.3-3.11-82.81,5-100Q1901.005,2447.505,1908,2441Zm-1005,6c20.562,6.72,55.187,58.5,77,73-0.333,1.67-.667,3.33-1,5q-36.5,33.99-73,68-5.5-5.505-11-11-32-30-64-60v-3Q867,2483,903,2447Zm845,109c-0.18-22.24-4.79-95.2,1-108,18.95-.23,98.01-5.13,108,2q-1.005,48.99-2,98c0.44,4.14.31,3.78-2,7Q1800.5,2555.5,1748,2556Zm-142-107q53.49,0.495,107,1v107H1606V2449Zm-144,2c25.51-.23,89.22-6.52,108,2,0.23,24.97,8.06,92.33-1,108-25.3.23-88.38,6.45-107-2C1461.83,2535.35,1455.24,2465.95,1462,2451Zm-958,1c10.014,3.01,71.219,61.6,79,72v3q-35.5,36-71,72c-1-.33-2-0.67-3-1q-37.5-35.49-75-71v-3Q469,2488,504,2452Zm200,0c13.412,2.62,68.952,56.86,78,69v2q-35,36-70,72c-8.428-2.19-70.906-61.68-78-71Q669,2488,704,2452Zm609,0q57,0.495,114,1v108q-55.995,1.005-112,2C1314.84,2541.84,1306.77,2463.53,1313,2452Zm-212,1q12,1.005,24,2,2.505,55.5,5,111-27.495.495-55,1-22.5-22.995-45-46Zm171,0h4c0.33,0.67.67,1.33,1,2q0.495,54.99,1,110c-15.69.21-107.4,2.04-111-3-3.76-9.49-6.87-96.22-4-107Q1217.495,2454,1272,2453Zm1156,66,75,72v2q-35.49,37.995-71,76h-5q-36.495-34.5-73-69Q2390.99,2559.5,2428,2519Zm-201,11,77,71v3q-36.99,37.5-74,75c-9.62-2.49-71.63-60.13-79-70Zm-208,9q40.5,36.495,81,73c-7.78,10.4-67.47,70.48-77,73l-79-70Q1981.5,2577.005,2019,2539Zm-1213,6q38,35.49,76,71-9.5,9.495-19,19c-5.511,11.56-42.623,48.36-54,55q-37.5-35.49-75-71v-2Q770,2581,806,2545Zm199,0c9.12,5.24,41.41,36.95,44,47l-1,1q-16.005.495-32,1,2.5,42,5,84-7.5,7.005-15,14c-11.378-4.91-65.006-61.03-74-73v-3Q968.5,2580.51,1005,2545Zm-397,2c8.7,2.75,74.194,65.74,76,74q-34.5,35.49-69,71c-11.317-4.33-68.616-58.83-77-70Q573,2584.5,608,2547Zm1282,41c20.74-.19,45.39-1.55,63,2-2.62,8.55-15.23,19.98-22,25,1.33,1.67,2.67,3.33,4,5q28.995,25.5,58,51c2.56,5.6,1.15,18.72-1,23q-51.99-.495-104-1C1887.77,2668.11,1881.69,2606.3,1890,2588Zm-34,2c0.15,21.35,2.99,89.44-5,104q-51.495.495-103,1c-0.18-21.55-4.5-92.82,1-105h107Zm-145,1c1.33,0.67,2.67,1.33,4,2q-1.005,51.99-2,104H1608V2592C1620,2595.3,1703.07,2595.88,1711,2591Zm-141,2c1,0.33,2,.67,3,1v106q-53.49,1.995-107,4l-1-1q-0.495-54.495-1-109Q1517,2593.505,1570,2593Zm-241,4c23.87-.24,82.48-5.96,100,2q0.495,52.5,1,105c-27.57,2.61-83.72,7.93-110,1-0.38-32.27-10.19-75.66-2-107C1321.67,2597.67,1325.33,2597.33,1329,2597Zm-101,2q27,0.495,54,1,1.005,53.49,2,107-54.495,1.005-109,2c-1.4-29.87-12.24-81.07-5-109Q1198.995,2599.505,1228,2599Zm-202,3c16.29-.23,100.44-3.79,107,2q2.505,53.49,5,107c-15.49.28-101.01,1.11-105-4C1029.25,2697.86,1023.55,2611.5,1026,2602Zm1302,23c14.86,5.39,64.33,56.44,78,70l-4,4q-34.995,36-70,72h-3q-36.99-34.5-74-69Q2291.5,2663.51,2328,2625Zm-205,11c9.56,2.94,78.73,62.81,81,71q-36.495,34.5-73,69c-1-.33-2-0.67-3-1q-37.995-33-76-66v-3Q2087.49,2671.005,2123,2636Zm-1218,5q38.5,36.99,77,74c-15.121,28.73-50.454,49.35-72,73-1-.33-2-0.67-3-1q-36.5-35.49-73-71v-3Q869.5,2677,905,2641Zm-196,3c9.815,3.15,68.316,59.72,76,70q-35,35.49-70,71c-1.667-.33-3.333-0.67-5-1-9.456-21.32-54.209-48.38-70-69Q674.5,2679.51,709,2644Zm1270,81c6.21-.23,11.4.24,15,2,2.41,17.51,4.59,87.58-2,102q-52.5.495-105,1V2729c0.67-1,1.33-2,2-3Q1934,2725.505,1979,2725Zm-230,108c-0.67-24.84-3.06-103.93,4-104q49.995-1.005,100-2v101c-0.67,1-1.33,2-2,3Q1800,2832.005,1749,2833Zm480-106c9.24,2.39,70.86,59.43,78,69v2q-36.495,33-73,66c-11.39-4.28-69.01-54.49-77-65v-2Q2193,2762.005,2229,2727Zm-533,2q9.495,0.495,19,1c0.28,15.02,5.91,97.58-1,103l-103,3V2734Q1653.5,2731.5,1696,2729Zm-145,5q12.495,0.495,25,1c0.19,22.57,5.2,92.31-1,106q-53.49,1.005-107,2V2737Zm-742,5c9.9,3.15,66.226,59.62,74,70v4c-11.588,8.64-64.631,56.14-69,67-12.373-4.01-63.253-58.68-75-71v-1Q774,2773.5,809,2739Zm610,0c5.76-.18,9.73.39,13,2-6.82,27.16,11.82,80.61,1,105-23.76.17-94.54,6.54-109,0,6.56-27.8-12.7-80.85-2-105Q1370.5,2740,1419,2739Zm-144,3c3.67,0.33,7.33.67,11,1q1.5,52.995,3,106c-16.36.23-104.24,3-108-2-3.69-9.27-6.81-92.46-4-103Q1225.99,2743,1275,2742Zm-237,1q50.49,1.005,101,2c1.04,22.2,11.73,92.11,6,106-20.24.23-88.57,2.12-102-4C1042.72,2824.05,1029.9,2758.35,1038,2743Zm853,119c15.51-.23,93.67-3.59,100,2q-0.495,48.99-1,98c-1,.33-2,0.67-3,1-26.06-6.61-78.34,9.15-101-1q1.005-48.99,2-98C1889,2863.33,1890,2862.67,1891,2862Zm-43,1c1.67,0.33,3.33.67,5,1,0.33,0.67.67,1.33,1,2Q1853,2916,1852,2966h-1q-49.5,1.005-99,2l-2-2c-0.23-17.85-4.76-90.54,2-100Zm-235,111c-0.49-17.21-7.31-97.24,0-105q51-.495,102-1c3.19,24.12,7.19,78.61,1,102Q1664.505,2972,1613,2974Zm-56-102c7.59-.27,16.28-0.27,21,2,0.24,15.57,1.87,99.09-2,102l-105,3c-0.2-13.5-4.51-98.73,1-103Q1514.5,2874.005,1557,2872Zm-140,5h19v2q0.495,51.495,1,103c-25.69.16-88.11,10.23-107,2q-1.5-51.495-3-103Q1372,2879.005,1417,2877Zm-130,4c1.67,0.33,3.33.67,5,1-1.62,17.88,8.84,96.57,1,105-25.42-4.54-83.82,8.57-105-1q-2.505-50.49-5-101l2-2Q1236,2882,1287,2881Zm-240,1c20.75-.22,89.39-3.2,103,3q1.995,51.495,4,103c-20.63.21-87.03,0.4-101-6C1052.52,2952.83,1040.21,2908.44,1047,2882Z"/>
</svg>
