<?xml version="1.0" encoding="UTF-8"?>
<svg id="Layer_0_xA0_Imagen" xmlns="http://www.w3.org/2000/svg" version="1.1" viewBox="0 0 2732 2048">
  <!-- Generator: Adobe Illustrator 30.2.1, SVG Export Plug-In . SVG Version: 2.1.1 Build 1)  -->
  <defs>
    <style>
      .st0 {
        fill: #feeeea;
      }
    </style>
  </defs>
  <path class="st0" d="M1568,2048l-.09-412.86c.26-1.58,15.33-3.59,16.19.16l-.1,412.7h-16Z"/>
  <path class="st0" d="M1166,0v416.01s-12.85.02-12.85.02c-.46-37.68-6.6-77.48-3.27-115.14.64-7.25,6.45-7.8,0-17.79l-.04-278.24,6.16-4.87h10Z"/>
  <path class="st0" d="M1590,2048l-2.03-278.86c.89-7,17.39,11.74,16.13,15.76l.02,259.97-8.12,3.13h-6Z"/>
  <path class="st0" d="M2062,1069l-1.93,2.06c-4.43,2.3-9.6,1.43-10.06-4.07-.5-42.68.61-85.4.08-128.08-.35-28.37-5.45-59.5-2.18-88.01,1.14-9.95,7.12-7.18,14.22-3.67l-2.2,93.4,8.08,3.36v-97c1.26-1.98,2.76-2.59,5-3,9.39-1.72,31.29-.35,42.08-.08,4.73.12,9.11,2.07,13.84,2.16,39.24.77,78.74-2.26,117.71,2.29,56.41,57.54,31.06,151.9-32.61,191.63l-.04-42c50.12-.21,64.47-69.6,15.12-88.1-3.48-1.31-15.99-2.78-16.85-4.16-1.03-1.65.22-8.82-2.54-14.46-18.71-38.32-80.34-36.11-89.77,7.68,1.41,51.97-1.68,104.21-.06,156.15.12,3.84,1.56,7.19,2.1,10.88-8.71,3.14-22.68-3.63-29.06-3.16-5.64.41-18.06,12.62-26.93,9.16-2.18-10.97,7.19-10.37,13.82-15.16,44.66-32.3,32.3-84.81-17.83-100.83v113Z"/>
  <path class="st0" d="M1188,324l1.96-178.59c51.01-45.28,117.9-39.43,168.06,3.56,3.85,3.3,26.83,25.17,23.97,29h-39.99c-3.92-60.28-87.67-60.77-92.95.08-49.74,8.13-58.96,79.94-8.1,93.99l169.03-2.04c2.96,9.3-4.42,21.25-3.91,28.89.38,5.63,16.92,27.16,4.9,27.18-5.36,0-11.13-14.23-15.03-19.03-31.76-38.98-84.69-23.13-95.95,22.95h114v12.01s-226.01,2-226.01,2v-14.02s98.02,2,98.02,2v-7.99h-98.01Z"/>
  <path class="st0" d="M785.73,1638.25l-.03,4.37c-29.18,30.66-.68,83.59,40.83,76.9,7.56-1.22,24.67-12.98,26.46-12.88,2.1.11,6.17,5.12,9.18,6.21,43.52,15.75,86.84-26.83,61.83-67.84-37.78-32.66-71.92-78.81-109.94-110.06-3.03-2.49-5.88-4.82-10.04-4.98-2.41-3.14,20.63-17.31,22.07-18.9,4.31-4.77,7.47-26.64,14.9-25.06,6.91,1.47-.5,19.99-.95,25.01-4.73,52.48,39.04,72.42,83.98,54.96l-79.1-81.99c-2.36-3.59,2.71-7.72,6.22-8.08l160.89,159.04-10,6.19-64.96-68.62-6.08,3.48,66.89,72.73-127.08,122.8c-54.74-2.56-99.02-40.97-111.48-93.82-1.64-6.94-10.07-65.98-.29-65.67l26.73,26.21Z"/>
  <path class="st0" d="M1977.99,435.99c-3.46.89-3.99-1.44-6-2.98-2.92-2.25-23.56-22.61-23.85-24.29,34.9-37.66-5.94-96.55-52.89-74.48-3.92,1.84-9.62,7.79-12.21,7.79-2.85,0-8.78-5.66-12.99-7.07-40.45-13.58-81.1,26.99-60.96,66.96,38.7,33.78,73.85,80.87,112.82,113.21,3.94,3.27,11.51,2.01,7.69,8.51-1.83,3.11-19.62,12.43-21.71,15.23-4.1,5.49-4.6,20.26-12.88,25.09-9.75-6.62-.17-19.36.79-29.17,4.67-47.86-46.36-72.12-85.78-50.76l79.06,80.01c2.85,4.06-1.81,10.03-6.07,10.02l-159.14-160.89,10.1-4.32,59.96,64.23,7.05,2.91,2.07-6.03-67-68.97,124.85-121.1c8.63-5,32.55,2.55,42.16,6.06,58.9,21.48,85.49,91.24,74.94,150.04Z"/>
  <path class="st0" d="M1918.01,1461.99l68.89-66.11,4.09-1.95,121.96,126.1c2.06,81.57-82.9,128.2-156.97,115.97-.41-3.08.02-4.66,1.89-7.12,4.4-5.78,20.31-15.17,25.41-22.67,35.52,28.3,86.92,1.87,78.25-44.74-1.37-7.35-11.52-18.82-11.52-22.46,0-2.91,5.61-8.73,7.03-12.96,14.41-42.97-34.38-85.41-73.06-55.06-27.15,21.3-81.72,77.89-105.03,104.97-3.37,3.91-4.38,8.48-7.95,12.02-4.51.06-14.61-21.21-17.58-23.38-3.18-2.32-26.87-6.72-25.41-13.55,1.6-7.47,20.13.48,24.97.99,50.04,5.21,76.9-39.57,55.07-83.09l-5.12,1-76.93,77.2c-1.79.77-10.72-4.09-7.71-7.77l158.43-159.21c2.74,2.29,8.63,5.64,6.4,9.83l-65.31,62.99.2,9.01Z"/>
  <path class="st0" d="M780,414.02c2.42,2.44-26.68,25.8-29,29.92-45.46-39.96-105.71,20.01-65.21,66.77-31.14,41.41,16.03,97.88,62.08,70.16,33.64-37.22,76.75-71.11,109.17-108.82,2.57-2.99,4.76-5.92,4.98-10.05,5.56-4.28,17.85,21.47,20.04,22.93,2.84,1.9,30.09,6.01,23.93,15.04-3.12,4.57-23.27-3.24-29.24-3.72-47.04-3.78-72.4,48.17-47.75,85.71l79.02-79.07c3.31-2.4,8.04,2.86,8.04,6.11l-157.06,159.07-8.94-7.07,67.98-66c3.99-3.43-4.35-9.45-7.1-5.12l-67.04,65.34c-7.67-3.2-10.62-10.92-15.84-16.27-30.67-31.36-69.32-66.04-97.08-98.92-2.21-2.62-10.43-12.28-10.48-14.55,5.48-81.01,84.13-125.02,159.51-111.46Z"/>
  <path class="st0" d="M1545,1706c4.47,1.25,1.65,11.59-.23,12.12l-93.53-2.24c-1.93.56-4.04,9.13-.23,10.12h97l-4.44,179.58c-8.12,4.67-15.23,11-23.52,15.46-48.18,25.87-101.62,14.19-142.06-20.01-8.85-7.48-22.28-20.19-25.98-31.02h39l2.64,3.36c3.79,57.91,88.73,56.8,91.25-1.48,50.16-9.36,60.62-78.83,9.23-95-49.84,1.65-106.05-5.22-155.21-.98-5.31.46-8.42,1.11-12.88,4.1-2.29-9.28,2.45-20.87,2.12-28.97-.18-4.36-14.05-28.52-5.15-28.98,5.17-.27,15.85,21.05,20.23,25.74,31.28,33.5,84.29,12.01,92.79-29.79h-116l3-12h222Z"/>
  <path class="st0" d="M674,1092v-114l12,3v223h-12.01s2.01-93,2.01-93c-.44-5.68-5.21-5.31-10-5v98l-177.97-3.03c-39.79-43.31-39.78-102.04-8.48-150.43,9.22-14.26,25.99-36.18,42.45-40.55v37c-7.05,5.1-15.54,4.14-23.42,8.58-39.9,22.5-24.55,88.19,23.37,86.47,6.43,55.23,89.6,59.7,94.14-.97,3.48-46.5-2.85-97.21.01-144.18l-2.15-13.95c7.57-4.25,19.78,3.04,27.15,2.77,4.75-.17,27.09-15.8,28.91-6.68,1.37,6.84-16.45,13.76-21.84,18.13-37.53,30.43-19.47,87.58,25.83,94.83Z"/>
  <polygon class="st0" points="2106 1254 2105.02 1093.98 2277.98 1190.04 2276.75 1194.13 2177 1254 2106 1254"/>
  <polygon class="st0" points="2129.99 498.01 2101.55 612.55 2053.02 663.64 1938.02 552.97 2129.99 498.01"/>
  <path class="st0" d="M1138,1764l157.04-2,3,3.03-97.06,168.96c-3.87.9-2.5-1.1-3.5-2.5-21.63-30.16-37.74-67.91-59.47-98.49v-69Z"/>
  <path class="st0" d="M1841.98,1596.01l52.02,189.97c-38.89-6.4-77.01-18.39-115.43-27.55l-50.53-49.43,113.94-112.99Z"/>
  <path class="st0" d="M796.01,1499.99l-190,50,27.13-113.85,48.13-50c5.57-.97,71.88,68.33,81.67,77.91,3.09,3.02,7,4.89,10.11,7.89,3.95,3.82,26.56,24.27,22.96,28.04Z"/>
  <path class="st0" d="M628,796l.98,160.02-170.98-96.05c-.72-3.62,1.79-4.95,4.12-6.85,7.3-5.92,89.34-57.12,94.88-57.12h71Z"/>
  <polygon class="st0" points="1596 286 1435.98 286.98 1535 114.04 1596 215 1596 286"/>
  <polygon class="st0" points="842.01 262.01 957.86 291.14 1005.86 339.27 895 453.96 842.01 262.01"/>
  <path class="st0" d="M1976,845l4.12-2.2,7.91,6.17-2.06,205.88,8.03,1.15v-210h12v212h6v-40c19.78,5.47,9.69,31.07,11.92,46.65l6.08,3.35v-43c0-1.35-18-17.65-18-20v-158c1.43-1.87,2.05-2.55,4.51-2.62,6.76-.18,17.58,3.48,25.5,1.61l1.92,232.64,5.1,3.38c2.52-5.42,4.43-7.15,10.86-5.92,3.95,9.66-1.68,23.85,8.11,29.9v-28l12-2v70l-11.74-.26c-5.98-41.37-37.8-74.63-80.26-77.74v64l-12,2v-289Z"/>
  <path class="st0" d="M1488,312l1.93,7.1c-.1,7.25-16.15,7.63-21.89,9.95-32.35,13.06-54.95,39.06-56.04,74.96h61l3,12h-290l.28-9.71c2.7-1.35,5.68-2,8.7-2.29,44.76-4.25,93.22,1.24,137.94,2.08,17.52.33,43.65,1.93,60.19.02,5.89-.68,7.66-1.65,6.9-8.1h-210l-2-12h211l3-6h-40c1.19-19.92,29.11-9.48,42.99-12.01,3.46-.63,5.6-2.14,5.01-5.99h-43l-18,18h-161l2.02-29.98,230.64-2.36,3.39-4.66c-5.59-1.66-4.71-5.29-3.75-10.71,9.09-5.38,22.72,2.58,27.7-8.27l-24.67-.35-5.33-11.67h70Z"/>
  <path class="st0" d="M1890,583.99c-2.27-27.67,17.65,5.03,29.99,4,3.11-2.98-15.88-17.16-17.06-20.05-.89-2.18.11-11.64,4.04-9.93,6.4,5.49,49.38,44.34,48.71,48.58-.16.98-3.88,8.27-6.55,7.49-35.71-23.53-75.64-24.67-111.13-.05-.79,2.92.79,3.33,1.94,5.01,4.84,7.05,41.98,39.69,42,43.95l-8.68,6.86-203.15-204.6c2.57-4.28,6.63-7.39,10.97-3.37l145.94,146.11,4.01-6.02-146.16-143.99c-2.44-2.98,4.1-9.11,6.53-9.76,10.16-2.73,129.93,133.58,149.62,147.77l4.96-4.96c-2.21-3.4-29.01-26.35-25.98-29.02,21.74-5.48,26.77,25.54,45.98,25.98.88-3.78-2.15-4.73-3.99-6.99-2.18-2.68-24.43-23.23-26.04-23.96-6.49-2.94-16.03.23-22.92-1.08-12.34-2.36-94.63-98.06-113.14-110.85l-1.63-6.85,21.72-15.39,160.9,159.23,9.1,1.89Z"/>
  <path class="st0" d="M863.75,1380.28l199.29,199.74c3.8,4.32-3.52,10.64-7.07,9.05l-148.96-149.03-4.06,5.96,146.14,143.97c3.15,4.92-2.75,9.28-6.37,11.87-29.77-26.79-58.48-56.06-86.77-84.79-9.76-9.91-54.43-61.02-62.99-63.02-2.45-.57-6.45-.72-4.94,2.94l27.97,28.04c-16.87,12.37-28.46-18.52-40.08-24.1-2.94-1.41-5.08,1.25-7.91,1.11-1.37,1.57,27.41,27.39,30.14,28.83,9.39,4.96,21.53.79,28.96,5.04l109.94,110.06c1.96,2.12,1.76,2.4-.32,4.17-3.89,3.29-18.88,16.95-22.69,15.02-1.39-.71-19.77-18.01-23.1-21.08-42.39-39.15-81.1-85.86-123.89-124.11-2.58-2.31-15.98-14.55-17.03-14.98-2.01-.82-3.87,1.58-6.03,1.03l1.93,6.78c-11.8,10.9-18.04-15.58-31.92-10.76,5.47,10.21,24.88,16.6,15.01,29.97l-50.14-47.98c5.32-17.73,13.93-3.99,23.78.34,25.02,11,45.58,12.72,71.31,2.62,4.85-1.9,18.84-8.73,21.94-12.07,2.74-2.94,2.03-1.04.11-3.9-7.73-11.53-36.03-30.86-40.56-41.6-2.69-6.37,2.06-10.13,8.28-9.12Z"/>
  <path class="st0" d="M1943.71,1346.27l-1.61,6.83-146.09,145.92,2.99,4.93c4.36-2.82,26.65-30.55,30.99-25.95,2.29,16.35-16.98,27.21-25.72,39.35l3.69,6.64c10.7-20.24,34.94-24.68,28.08-52.96l110.11-113.93c8.47-7.39,17.92,13.65,23.7,19.61l-159.96,162.17-1.88,9.11c5.35-3.18,10.45-1.9,11.82,4.72-7.05,8.1-15.67,13.22-15.82,25.28,9.93-4.86,20.61-30.01,29.96-13.04l-44.93,47.16c-3.51,4.82-11.11-3.56-11.08-7.09.02-3.26,8.49-13.43,10.39-17.67,13.9-30.95,9.45-68.05-13.36-93.33-3.04,0-36.31,39.93-43.04,43.03-2.2,1.01-3.77,1.54-5.93,0l-3.91-4.32,199.92-203.81,4.56-.72c4.41,2.17,7.54,6.49,3.52,10.88-43.68,42.31-85.5,86.56-129.07,128.96-5.48,5.34-23.17,13.66-14.02,21.94l149.56-147.68,7.11,3.96Z"/>
  <path class="st0" d="M806.23,721.83c-3.31-6.19-5.24-8.34.74-13.88l145.02-142.98-3.02-4.97-6.07,1.9-142.9,145.23-10-6.19,147-148.94-1.97-5.98-26.06,25.97-4.72-3.27c-3.84-12.08,23.41-28.47,26.77-36.68,1.15-2.8-1.29-7.83-4.97-6.02-2.49,10.6-20.86,19.72-24.93,28.09s-.99,21.96-4.99,29.01l-111.11,110.95-19.07-21.06,161.1-164.98c-.05-9.67-3.31-3.13-6.96-4.93-13.98-6.88,15.07-19.96,9.91-31.09l-19.4,17.73-10.54-4.73,44.87-47.12c3.8-5.41,13.63,2.98,12.93,6.83-25.79,31.03-26.31,79.25,1.38,109.2l44.75-42.99,10,6.08c-57.43,58.53-116.66,115.35-174.02,173.95-4.15,4.24-28.08,35.04-33.72,30.89Z"/>
  <path class="st0" d="M722,1204l-30.01-1.99-1.97-229.02-3.01-4.94c-3.28,4.31-7.91,4.42-13,3.97-.2-11,2.78-23.07-7.98-30.01l-.34,26.68-9.67,5.31-2.13-68.76c16.81-9.99,13.77,7.17,18.6,19.29,13.48,33.81,37.39,50.36,72.56,57.44,5.45-21.42,2.05-44.03,2.95-65.98h10.02s2.09,283.11,2.09,283.11c.37,6.69-4.55,8.69-10.17,5.97l-1.93-2.06v-211h-7.99s.82,210.21.82,210.21c-4.93,1.9-11.93,4.06-12.83-3.22l1.66-206.65-5.64-2.34c1.71,3.75-2.02,9.19-2.02,11v29c-15.21-2.98-8.86-21.29-10.03-32.97-.51-5.1-1.43-15.74-7.96-15.02.32,6.3-.44,12.78-.11,19.09.28,5.29,1.3,19.32,2.5,23.5.85,2.95,15.6,17.06,15.6,18.4v161Z"/>
  <path class="st0" d="M1548,1644h-212l1.15,8.03,208.86-2.04v14.02l-207-2-5,5.98c11.56,2.39,23.39,1.16,35.02,2.01,2.98.22,5.79-1.55,4.95,2.97-4.78,11.85-34.24,4.94-46.51,9.04-1.82.61-2.5,4.17-3.48,5.99h29c.86,0,16.19-2.68,16.98-3.02,3.18-1.4,13.49-14.98,15.02-14.98h160c2.04,1.5,2.17,1.75,2.18,4.08.01,4.83-.51,24.35-4.46,25.64-61.16,2.13-122.67-1.85-183.8.2-4.73.16-9.1,1.92-13.83,2.17-5.15.27-35.35-2.03-35.04,2.92l6.07,4.3-1.99,7.82c-10.56,2.78-22.5-3.57-28.11,8.88h28l1.99,9.99c-20.58-2.31-42.89,4.58-63.09,2.11-8.42-1.03-9.11-6.39-4.94-13.14,35.79-3.71,74.67-39.17,76.07-76.01.17-4.56-.35-2.13-2.99-2.99-16.72-5.41-41.8-.08-59.69-1.88l-3.33-10.07,285.09-2.11c10.1,1.12,5.5,4.7,4.91,12.1Z"/>
  <path class="st0" d="M1643,152c1.44.4,2.84,2.67,2.71,4.6-.36,5.5-5.04,16.63-5.68,24.43-3.31,40.38,11.34,75.24,33.59,107.61l-46.6,109.37-19.03,1.99,2.01-248.01h33Z"/>
  <path class="st0" d="M1784.09,1835.92c-18.86-41.16-64.06-67.53-108.65-72.37l-4.43-3.57-42.62-105.49c-2.85-8.91,5.56-12.82,10.6-18.46l172.96,176.97c-4.96,3.45-22.5,26.65-27.87,22.92Z"/>
  <path class="st0" d="M949.97,212c19.81,42.83,67.22,70.06,113.79,74.24l43.94,111.26c.85,6.05-6.37,9.21-9.72,13.61l-173.1-173.14c-1.86-2.33-.22-3.28,1-5.04,1.81-2.63,16.42-17.13,19.09-18.97,1.69-1.16,1.97-2.79,5-1.97Z"/>
  <path class="st0" d="M2240,1268v34c-26.51-4.87-56.13-6.94-82.42.58-19.63,5.62-36.65,18.91-54.34,27.4l-110.28-47.95-.98-16.04,248.01,2.01Z"/>
  <path class="st0" d="M496,746c32,9.78,66.67,7.55,97.35-5.65,13.94-6,25.54-15.82,39.32-21.92l106.15,45.76,5.21,18.79-248.02-.98v-36Z"/>
  <path class="st0" d="M630.51,1328.5l109.45-43.76c5.12-.9,11.72,7.01,16,10.26l-178.56,172.78-21.41-24.75c43.43-23.42,66.94-66.92,74.52-114.54Z"/>
  <path class="st0" d="M1090,1896c6.9-34.14,6.48-67.15-7.65-99.35-5.92-13.5-15.72-24.31-20.32-37.5l45.76-107.91,15.23-3.27.98,248.02h-34Z"/>
  <path class="st0" d="M2157.96,580.01l22,24.99c-43.02,24.05-68.47,66.56-74.93,115.03l-106.96,43.17c-7.2,2.66-13.55-3.6-17.98-8.42l1.81-3.85,176.07-170.92Z"/>
  <path class="st0" d="M761.94,289.97c10.63-16.77,27.56-35.53,49.48-26.39,23.53,9.81,21.35,32.9,7.6,50.43-16.16,20.6-42.91,41.11-60.03,61.97-20.55,16.19-54.16-1.39-48.55-28.53.89-4.29,7.04-11.63,6.86-14.45-.36-5.69-10-8.55-6.41-25.13,5.26-24.3,31.37-29.37,51.05-17.91Z"/>
  <path class="st0" d="M2316.18,1114.17c1.96,17.37,4.99,42.14-12.26,52.75-21.48,13.22-42.54-1.06-45.92-23.92,3.56-28.09-5.05-60.86-2-88.01,2.78-24.83,34.28-39.93,51.69-19.68,4.56,5.3,6.3,15.99,8.3,17.7,6.95,5.95,15.35-.06,23.65,16.35,10.49,20.73-1.85,40.51-23.45,44.8Z"/>
  <path class="st0" d="M1972.31,1760.28c-12.29,17.14-26.69,35.31-50.1,24.51-20.08-9.26-20.01-31.41-8.2-47.78,7.77-10.77,48.22-52.36,58.95-61.05,14.06-11.4,24.85-13.02,40.52-2.43,10.26,6.93,12.48,17.17,10.41,29.38-.9,5.27-5.73,8.72-5.83,12.08-.22,7.57,10.57,9.51,5.37,27.45-7.63,26.35-28.84,24.21-51.12,17.85Z"/>
  <path class="st0" d="M1402.62,58.62c2.4-2.64,13.97-8.3,17.76-9.25,19.87-4.99,31.43,10.67,38.91,26.5,19.73-4.08,49.71-2.96,54.24,21.6,3.93,21.3-8.67,33.12-28.52,36.55-24.68-5.03-82.01,9.74-101.71-2.3-17.19-10.51-19.08-41.75-.06-51.46,4.28-2.18,12.21-1.82,13.87-4.14,1.98-2.77.76-12.25,5.52-17.49Z"/>
  <path class="st0" d="M1338.43,1972.43c-2.79,2.79-.44,14.65-12.53,22.47-20.07,12.98-42.68,1.48-48.19-20.6-20.8-1.86-45.49,6.42-54.66-18.36-6.81-18.41.92-34.78,20.39-39.5,15.14-3.67,86.15-5.03,101.09-1.99,20.93,4.26,29.22,37.73,10.47,51.56-4.95,3.65-15.59,5.42-16.58,6.42Z"/>
  <path class="st0" d="M419.86,994.14c-36.49.54-37.3-54.4-1.97-58.25.49-19.87-5.42-50.24,20.05-56.95,32.12-8.46,38.65,19.11,40.14,43.97,1.58,26.22-.6,54.81-.97,81.19-15.17,27.56-55.66,24.38-57.25-9.97Z"/>
  <path class="st0" d="M629.53,1562.37c7.53-.85,17.41,3.36,23.46,7.63,11.34,8.01,61.14,55.55,67.92,66.09,12.57,19.55-3.88,48.08-27.66,45.82-6.57-.62-14.68-8.08-17.89-7.52-5.16.89-6.73,8.31-18.28,7.7-27.84-1.47-35.17-27.98-25.33-50.67-10.14-10.78-27.93-21.83-27.9-38.43.03-13.46,12.09-29.08,25.69-30.62Z"/>
  <path class="st0" d="M2074.95,366.99c28.57-1.13,40.74,27.51,27.99,51.04,20.49,14.11,43.13,43.46,15.13,63.05-19.85,13.88-36.77-2.33-51.13-15.03-7.35-6.49-54.57-53.18-56.05-57.94-6.85-21.97,10.61-43.83,33.99-39.98,5.16.85,10.32,5.92,14.14,5.79,3.74-.12,9.01-6.66,15.92-6.93Z"/>
  <path class="st0" d="M1949.99,156.04l-288.91,292.1c-4.96,4.25-10.52-.44-14.21-4.11l289.14-295.16,13.99,7.17Z"/>
  <path class="st0" d="M1000.25,1692.25c-.96.95.34,8.03-3.12,9.89l-199.8,197.59-11.09-5.97,288.71-293.93c5.5-4.31,11.23,3.47,15,7.17l-80.85,83.13c-1.92,2.36-7.9,1.18-8.85,2.12Z"/>
  <path class="st0" d="M718,684.02l63.12,64c2.45,4.75-7.67,13.47-12.21,8.1l-67.03-65c-1.86-7.58-7.89-19.06,2.11-22.1-5.73-6.46-1.58-11.23-12.1-13.87l-198.01-196.05c-5.36-6.11,3.55-10.57,6.1-16.15l293.14,291.07c2.05,3.96-7.12,13.21-11.1,11.1-19.55-17.41-37.21-40.43-57.01-57.12-2.24-1.89-3.26-4.85-7-3.98Z"/>
  <path class="st0" d="M2035.42,1379.57c-.58.91-3.61-.31-3.42,1.41,5.73,6.47,1.6,11.24,12.11,13.88l199.73,199.85-7.79,10.36-292.17-287.98c-5.42-6.38,3.16-10.57,7.12-15.05,23.45,20.6,44.39,48.06,67.99,67.96,2.24,1.89,3.26,4.85,7,3.98l-71.07-72.02c-2.92-5.19,2.56-9.02,6.35-11.8l72.82,68.73c2.51,3.59,3.13,17.86,1.31,20.68Z"/>
  <path class="st0" d="M2392,824h-413l-2.68-3.31-.32-12.7,409.2-1.91c6.17.1,6.42,13.24,6.8,17.92Z"/>
  <path class="st0" d="M757.89,1226.12l1.71,9.36-2.91,4.22c-11.88,1.09-23.9-.32-35.78.22-24.74,1.13-51.07,4.41-76.02,2.21-4.23-.37-7.43-4.09-9.49-3.76-1.84.3-3.9,3.37-8.29,3.76-87.86,7.77-187.13-6.15-276.2-.03l-6.03-1.97-2.87-14.11,415.89.1Z"/>
  <path class="st0" d="M1964.01,873.99v16.02l-118.67-1.26c-18.68,2.42-37.63,1.02-56.42,1.16-49.16.39-116.44,8-164.01,2.18-2.14-.26-4.62.08-6.03-1.97l-.88-14.14,346.02-2Z"/>
  <path class="st0" d="M1502.11,1619.89l-2.16-342.76,13.14-2.62,3.01,6.39,1.99,334.19c-.16,11.09-8.85,4.9-15.98,4.8Z"/>
  <path class="st0" d="M1893.71,1343.74c-3.26.1-7.08,5.61-8.69,5.76-5.89.55-73.63-72.89-83.72-82.79-13.23-12.99-29.27-25.71-42.35-38.65-39.89-39.47-79.33-79.51-118.8-119.33l9.13-10.58,242.82,238.75,1.62,6.84Z"/>
  <path class="st0" d="M932.58,783.42c1.27,1.27,5.14,1.1,7.52,3.44,51.87,50.85,103.97,101.4,154.97,153.14l-9.07,11.07-244.13-237.93c-6-7.61,2.96-7.99,7.42-12.98l2.7.72c26.97,23.72,51.54,49.91,77.15,75.03,2.36,2.31,2.14,6.23,3.44,7.52Z"/>
  <path class="st0" d="M1232.01,427.99l2,346.02h-14.02c1.83-17.67-1.61-35.81-2.08-52.92-2.41-87.24,2.76-174.95.18-262.18-.18-6.2-5.46-26.43-.21-30.05l14.14-.88Z"/>
  <path class="st0" d="M1116.01,1157.99l1.99,13.99c-12.3.48-24.77-.55-37.08-.06-93.16,3.71-186.77-.73-280,2-13.97.41-39.64,10.79-27.69-14.04l342.78-1.89Z"/>
  <path class="st0" d="M1608.58,590.58c-1.27,1.27-1.1,5.14-3.44,7.52-50.53,51.48-102.69,101.38-153.11,152.98l-11.1-7.08,237.98-244.12c5.7-5.31,15.29,3.85,12.16,10.08-26.32,24.42-49.91,51.56-74.97,77.18-2.31,2.36-6.23,2.14-7.52,3.44Z"/>
  <path class="st0" d="M1125.43,1459.44c1.76-1.58,2.46-6.39,5.52-9.51,49.56-50.46,100.59-99.5,150.01-150.11,4.2-3.82,8.95,1.16,12.18,4.13l-239.16,247.15c-3.96,2.05-13.21-7.12-11.1-11.1,26.4-24.36,49.96-51.53,75.03-77.15,2.35-2.4,6.13-2.18,7.52-3.42Z"/>
  <path class="st0" d="M1566,340c3.86,19.58,37.26-5.26,31.97,17.97l-19.99,3.05c.15,7.42,10.57,4.23,15.01,4.98,9.9,1.67,3.06,14.05-6.99,10.01l2,7.03,7.9,1.06-.12,9.78c-11.76-.27-5.04,7.8,2.36,9.29l-2.01,9.96-107.22,2.97c-8,.42-7.27-5.72-6.91-12.1l94.02-1.99c-.5-38.63-27.48-67.79-63.9-77.12-9.37-2.4-19.48,2.05-18.12-12.88l100.72-1.73,3.3,9.71-56,3c14.52,13.85,34.85,1.25,52.71,5.29,4.63,1.52,3.21,7.83,3.28,11.72h-32Z"/>
  <path class="st0" d="M664,841c.2,1.58,2.87,4.24,2.02,7,2.08-.05,5.98-6.18,5.98-7v-47l9.9.11,2.11,31.88c1.87.86,5.99-1.77,5.99-2.99v-29l11.13,1.87,1.89,18.15c9.17-.18,1.57-18.07,8.05-20s10.15,6.86,8.94,11.99h5.98s0-10.02,0-10.02l11.9.22.15,4.24c-.61,2.44,4.01,1.96,4.95,1.57,1.56-.65,1.75-13.94,12.11-6.12l2.91,114.11h-10.02s-4.01-96.01-4.01-96.01c-43.35,6.01-76.15,36.73-78.34,81.62l-9.64,2.38-2-98.99,3.02-4.98c1.99-1.04,6.97,1.33,6.97,2.97,0,13.29-1.58,31.51,0,44Z"/>
  <path class="st0" d="M1251.75,1634.26l2.24,9.73-95.99,4.02c3.02,43.24,38.38,77.63,82,77.98l-.03,12.01h-101.99s0-10.01,0-10.01c17.93-.94,36.74,2.57,54.03-2.99.28-7.64-42.5-4.27-49.12-4.9-8.08-.77-7.55-3.9-3.48-10.13l30.58-1.99c-2.49-11.1-29.63-3.56-32.01-5.97v-12.02s20.01,0,20.01,0l-3.35-6.06-16.66.08,1.87-11.13,10.14-.89c-.34-8.25-10.23-4.6-11.85-9.15-3.36-9.41,7.81-8.35,7.87-9.85l-7.72-5.26-.32-11.73,113.76-1.73Z"/>
  <path class="st0" d="M1740,1644.02c-12.87-4.17-38.8,34.9-44.74,33.85l-4.98-6.49,19.71-25.36c-15.53-3.62-22.45,34.45-33.84,11.27l11.84-15.27c-7.14-.72-11.27,6.72-17.01,9.62l-6.94-6.64c0-1.51,10.09-6.34,3.97-10.01-7.27-4.37-4.6,5.21-10.68,2.72-2.25-.92-3.97-2.91-5.22-4.94l2.86-4.82c-1.02-9.01-13.54,4.04-16.06-7.79-1.22-5.71,67.88-72.17,76.49-81.94,4.06-1.06,10.01,3.56,7.71,7.77l-63.07,67.02c29.24,25.55,68.7,28.34,101.43,7.46,3.16-2.02,7.88-7.71,9.93-8.25,4.53-1.19,11.3,4.68,6.73,8.85l-63.15,66.9c-5,4.76-13.55,1.75-9.98-5.96,3.68-7.94,29.93-27.43,35-37.99Z"/>
  <path class="st0" d="M1986,652.02c4.67,18.17,24.39,28.71,35.95,42.98l-8.67,6.86-23.26-19.85c-2.96,15.57,29.82,21.35,10.99,33.95-2.12-2.18-12.42-12.45-15-10.98-7.9,4.52,18.32,15.72,3.02,22.59l-11.01-5.56c-4.51,6.39,4.66,9.23,3.89,12.75-1.67,7.62-10.57,2.39-13.92,4.22l1.56,8.03-6.83,6.84-82.69-76.99,6.92-8.82,71.01,63.95c18.34-28.07,26.25-55.37,13.02-87.97-2.44-6.02-16.33-23.51-16.31-25.01.04-3.82,6.25-10.57,10.44-5.11,17.46,23.03,49.11,42.03,65.96,64.04,4.1,5.35,3.44,5.63-2.34,9.92l-42.73-35.85Z"/>
  <path class="st0" d="M747.98,1398c3.62-14.97-35.76-37.41-34.13-46.83l8.15-4.3c2.78,2.01,21.41,24.05,23.99,21.12,4.45-8.79-19.93-23.78-19.94-26.99l8.68-6.86,15.25,11.86c3.25-11.88-20.24-16.88-2.97-24.06,2.62,0,14.41,12.86,9.85-1.77-3.49-11.19-3.91-9.97,9.16-9.13l1.84-2.15c-4.12-7.34,1.14-16.44,9.24-11l76.59,75.4-4.68,8.68-69.79-63.88c-24.17,22.46-27.54,64.05-12.86,92.56,2.56,4.98,12.64,15.26,13.22,18.71.39,2.3-2.86,8.24-4.63,8.65-4.75,1.11-61.18-60.45-71.06-66.91-4.13-4.5-.71-7.96,3.12-11.05l40.98,37.96Z"/>
  <path class="st0" d="M996,403.98c12.13,5.07,38.83-33.93,43-33.93l6.64,6.93-21.64,25c13.35,5.76,19.17-20.18,28.6-17.77,15.47,3.95-7.09,19.07-5.62,21.79,3.95,7.33,11.81-10.68,18.97-7.1,10.24,5.11-4.51,11.8-1.94,15.09,4.84,6.18,12.22-3.94,12.99-3.95,8.3-.08-1.57,24.25,12.03,12.45,4.44,3.01,9.75,7.49,5.09,12.61l-75.39,76.77-8.67-6.86,63.95-69.93c-30.73-25.71-66.63-26.68-100.65-6.72-7.19,4.22-10.1,13.97-19.32,2.65l66.89-71.18,5.12-1.04,5.89,6.09-35.93,39.11Z"/>
  <path class="st0" d="M2052,1222c-13.77,3.67-6.19,20.98-7.99,32.01l-9.91-.12-2.12-19.89c-8.42,3.51-5.78,12.51-5.97,20.01h-10.02s-1.01-12.03-1.01-12.03l-6.67,2.33-.3,9.71h-10.02s-1.01-8.03-1.01-8.03c-8.62-.03-6.35,7.67-8.11,8.15l-10.89-.12-2.12-112.86,9.21-2.63,2.92,4.47,2,91c43.36-2.28,77.49-36.76,78.85-80.13l11.13-1.88,2.01,102.02h-10.02s-2.01-54.01-2.01-54.01c-15.84,11.89-1.64,36.29-6.16,53.81l-11.82.19v-32Z"/>
  <path class="st0" d="M2110,804l.02-2.97c2.28-1.71,12.06-13.03,12.98-13.03h264c4.67,3.87,4.48,12.42,0,16h-277Z"/>
  <path class="st0" d="M2050.01,1392.01l16.95.03,187.2,184.91c4.04,4.56-5.29,17.46-11.25,11.15l-192.89-196.09Z"/>
  <path class="st0" d="M686,657.98l-16.96-.02-187.17-184.87c-4.63-5.08,1.4-9.66,4.11-14.14l200.02,199.04Z"/>
  <path class="st0" d="M1734.01,341.99c.44-6.45-1.71-16.09,2.59-21.42,1.07-1.33,4.53-2.46,6.44-4.47,58.47-61.44,120.94-119.37,180.23-179.96l9.79,9.86-199.06,195.99Z"/>
  <path class="st0" d="M999.57,1727.59c-.33.57-4.78,2.5-6.63,4.3-60.07,58.57-118.06,119.36-177.85,178.23-3.93,5.43-13.61-3.06-12.94-6.84l196.86-197.27c1.04,4.3,2.25,18.69.56,21.58Z"/>
  <path class="st0" d="M1146,2v280c-6.6.09-8.5-8.4-12.92-12.08l-1.08-262.92c.8-7.13,8.62-4.8,14-5Z"/>
  <polygon class="st0" points="626 1246 613 1260 346 1260 344.21 1249.15 347 1246 626 1246"/>
  <path class="st0" d="M2388,784h-260c.75-6.28,7.11-11.34,12.9-12.1,23.55-3.13,52.13,3.97,76.02-1.98l170.21,1.95.87,12.13Z"/>
  <path class="st0" d="M1608,1786c2.09-2.36,11.23,7.23,11.96,11.04,2.99,15.69-.52,46.14-.04,64.04.14,5.27,2.06,10.12,2.18,15.82,1.14,55.64-1.06,111.47-.08,167.11h-14.01v-258.01Z"/>
  <path class="st0" d="M477.96,474.01l182.04,183.97-19.11-1.87-172.96-173.11c-.11-2.95,7.4-10.8,10.03-8.99Z"/>
  <path class="st0" d="M2076.01,1390.01l12.95.03,177.22,172.94c3.28,3.34-3.39,11.11-7.18,11.09l-180.01-178.06-2.98-6Z"/>
  <polygon class="st0" points="1001.99 1734.01 1001.96 1746.96 825.32 1923.63 818.37 1916.68 994.87 1735.87 1001.99 1734.01"/>
  <polygon class="st0" points="1734.01 315.99 1735.89 296.89 1910 124.93 1917.07 134 1734.01 315.99"/>
  <path class="st0" d="M348,1278v-12.01c76.2-1.89,152.89,2.54,229.08.09,9.1-.29,19.11-3.85,28.91-2.07,2.51,3.7-8.04,13.99-8.99,13.99h-249Z"/>
  <path class="st0" d="M1126,3.99l-1,259.97c-3.95-4.75-10.98-7.95-11.1-14.86l1.98-244.23,10.13-.89Z"/>
  <path class="st0" d="M1775.99,38.01c.15,11.28-11.83,9.47-19.97,13.01-78.03,33.99-118.45,107.78-87.54,191.5,3.99,10.8,18.47,25.29,8.52,33.44-68.14-83.95-9.22-227.88,98.99-237.95Z"/>
  <path class="st0" d="M2125.66,711.64l-9.65,2.35c10.77-106.89,153.23-167.44,237.95-98.99-2,2.84-3.61,3.14-6.94,3.13-4.8-.02-28.89-12.05-37.48-14.67-33.49-10.2-59.79-9.47-92.91,2.16-43.53,15.29-83.86,60.18-90.97,106.01Z"/>
  <path class="st0" d="M617.99,717.96c-88.53,61.67-224.83,7.24-237.98-101.95,12.06.57,12,15.44,16.27,24.71,34.6,74.95,104.31,111.14,185.73,84.3,6.53-2.15,27.35-14.32,28.97-14.33,2.79-.03,8.93,4.52,7.01,7.28Z"/>
  <path class="st0" d="M619.99,1334.01c-12.5,107.72-151.28,167.24-237.98,100.97l3.17-4.88c5.09-1.52,14.97,6.56,20.86,8.86,78.09,30.48,160.57,4.56,195.67-74.25,2.49-5.59,7.71-27.19,8.68-28.31.44-.52,9.26-2.76,9.59-2.39Z"/>
  <path class="st0" d="M960.01,2011.99c-3.08-12.02,13.15-11.3,21.97-15.01,77.22-32.5,114.48-111.6,84.07-192.02-2.23-5.91-13.42-22.58-13.4-23.95,0-.47,3.53-8.36,6.33-6.99,65.89,85.48,8.39,224.16-98.96,237.97Z"/>
  <path class="st0" d="M1680.5,1781.52c-1.59-1.32-3.31-8.7-2.49-9.5,106.04,13.41,168.04,152.91,98.99,237.95-7.97-8.07,3.7-19.67,7.09-28.87,27.47-74.62.5-154.81-72.74-189.44-6.45-3.05-28.69-8.34-30.85-10.14Z"/>
  <path class="st0" d="M1058,275.98c-96.66-8.6-155.91-124.76-116.34-211.32,1.78-3.88,16.94-34.65,20.32-21.56.64,2.47-12.36,28.81-14.51,35.38-24.76,75.64,13.06,155.13,87.45,183.6,10.1,3.87,21.09.75,23.08,13.9Z"/>
  <path class="st0" d="M2353.99,1431.99c-4.29.54-5.3.22-7.76-3.22-4.06-5.69-10.11-27.15-15.19-36.81-34.29-65.17-110.14-91.56-179.5-67.41-11.37,3.96-24.76,17.22-35.52,10.47,1.61-6.26,23.91-16.61,30.63-19.36,85.38-34.96,197.8,21.01,207.33,116.33Z"/>
  <path class="st0" d="M1529.9,426.11c4.84,69.23.64,139.43,2.22,209.02.12,6.81-7.78,8.89-12.1,12.88l-2.03-222.01,11.91.12Z"/>
  <path class="st0" d="M992,871.98l-223.47-.89,1.75-8.81c4.89-.61,9.68-2.04,14.64-2.36,63.68-4.19,133.02,2.43,197.03,1.12l10.04,10.94Z"/>
  <polygon class="st0" points="1740 867.98 1896 708.93 1905.07 716 1759.11 866.11 1740 867.98"/>
  <path class="st0" d="M994,1182.02l-156.72,157.83c-3.06-2.5-9.95-6.5-5.4-10.91l143.01-145.05,19.11-1.87Z"/>
  <polygon class="st0" points="1524.01 1398.01 1683.08 1554 1675 1562.07 1525.89 1415.11 1524.01 1398.01"/>
  <path class="st0" d="M1209.98,652l-157.83-158.72c2.5-3.06,6.5-9.95,10.91-5.4l145.05,145.01,1.87,19.11Z"/>
  <path class="st0" d="M1585,948l-2.02-4c5.86-5.92,6.91-9.24,15.9-10.12,43.44-4.25,99.87.96,144.04,2.2,18.32.52,36.78-.57,55.08-.06-2.06,1.79-12.12,11.98-13,11.98h-200Z"/>
  <path class="st0" d="M1444,1240c7.18.44,12.81,6.23,13.88,13.12,5.85,37.57-4.19,88.89.21,127.98l-2.12,72.9c-3.1-1.17-11.98-10.84-11.98-13v-201Z"/>
  <polygon class="st0" points="1734.01 289.99 1734.04 277.04 1898 112.93 1903.96 119 1740.01 287.01 1734.01 289.99"/>
  <polygon class="st0" points="999.99 1760.01 998.11 1777.11 838.73 1935.86 830 1928.04 999.99 1760.01"/>
  <path class="st0" d="M1107.98,246c-.98.73-11.77-9.22-10.08-12.89l-1.59-225.8c1.28-4.33,8.53-4.69,10.8-1.4,2.74,68.8-.52,138.21.82,207.18.21,10.58,5.13,21.71.06,32.91Z"/>
  <path class="st0" d="M347.99,1296.01v-12.02l239.97,1.01-10.86,10.18c-76.39-3.49-152.59,3.09-229.11.83Z"/>
  <path class="st0" d="M1269.98,790c-4.92-3.69-11.75-8.27-12.08-14.89.49-65.75-1.07-131.64,2.12-197.09,2-2.33,13.8,8.96,12.09,12.89l-2.12,199.1Z"/>
  <path class="st0" d="M1132,1122.02c-3.42,4.84-5.81,12.29-12.9,12.08-66.43-.4-132.97.96-199.1-2.12,3.69-4.92,8.27-11.75,14.89-12.08l197.1,2.12Z"/>
  <path class="st0" d="M1002.01,782.01l20.1,4.88,137.85,140.11c-3.58,4.6-10.64,4.06-15.07,1.1-27.54-25.18-52.78-52.73-78.84-79.15-17.9-18.15-46.45-41.86-61.07-60.93-1.54-2.01-3.88-2.53-2.98-6Z"/>
  <path class="st0" d="M1609.98,658c.41,7-.06,14.55-4.9,20.08l-140.08,139.88c-3.73.08-4.42-14.49-1.11-17.07,49.28-46.96,94.72-98.4,146.09-142.89Z"/>
  <path class="st0" d="M1966,1176v12h-213c-.81,0-9.9-9.77-11-12h224Z"/>
  <polygon class="st0" points="1216 1622 1204 1622 1204 1409 1216 1400 1216 1622"/>
  <path class="st0" d="M1966,1158v10.01c-76.51,2.04-153.25,2.4-229.99,1.98-2.57-2.29,8.96-11.99,10.99-11.99h219Z"/>
  <path class="st0" d="M1271.99,1232.01l-1.88,17.1c-48.61,46.3-93.39,97.06-144.09,140.89l1.87-17.11,138.1-137.9,6-2.98Z"/>
  <path class="st0" d="M1224.24,1621.75l-2.22-229.75c6.53,4.14,12.66,10.53,12.07,18.9l-.08,208.1c-1.07,6.84-4.72,3.64-9.77,2.74Z"/>
  <path class="st0" d="M2388,754v10.01c-80.16-1.54-159.86,3.02-239.99,1.98-2.08-1.76,8.24-11.99,8.99-11.99h231Z"/>
  <path class="st0" d="M1760,1265.98l-17.11-1.87-138.85-141.11c3.58-4.6,10.64-4.06,15.07-1.1,40.96,45.93,92.84,86.97,132.94,133.05,1.15,1.32,8.52,10.61,7.95,11.03Z"/>
  <path class="st0" d="M1638,2044h-10.01c1.54-80.16-3.02-159.86-1.98-239.99,2.29-2.57,11.99,8.96,11.99,10.99v229Z"/>
  <polygon class="st0" points="1132 927.98 1114.89 926.11 978.99 790.01 976.01 784.01 991.06 783.84 1132 927.98"/>
  <path class="st0" d="M1734,1265.98c-7.33,0-15.22,1.5-21-3.98l-139-141.98,17.11,1.87,142.89,144.09Z"/>
  <path class="st0" d="M631.99,657.99c-3.52-.24-7.55.64-10.95-.03-7.3-1.45-92.79-90.82-105.99-104.01-12.38-12.36-28.22-25.13-40.13-37.87-3.92-4.2-14.44-15.23-17.04-19.02-3.74-5.43,2.43-11.25,7.18-7.18l166.93,168.11Z"/>
  <path class="st0" d="M400.01,624.01c6.36-6.68,18.89,24.21,21.15,27.83,31.3,50.23,80.94,69.6,139.28,59.6,7.34-1.26,28.08-9.45,30.6-9.39,3.24.07,4.94,2.96,6.92,4.95-26.71,18.67-72.59,21.63-103.52,13.56-44.65-11.66-88.46-49.46-94.43-96.55Z"/>
  <path class="st0" d="M597.99,1344.01c-2.22,26.3-27.24,55.63-47.05,71.93-39.51,32.51-109.59,42.93-150.9,9.06,2.48-3.59,4.9-3.25,8.77-2.91,14.22,1.26,34.68,12.29,50.48,13.22,47.84,2.81,91.79-24.89,117.53-63.49,2.97-4.45,15.48-33.69,21.17-27.81Z"/>
  <path class="st0" d="M1526.01,1386.01l10.95.03,157.16,152.89c4.4,3.65-1.53,9.12-5.13,9.12l-160.01-156.05-2.98-6Z"/>
  <path class="st0" d="M1210,661.98l-17.11-1.87-152.67-151.51c-1.23-3.45,3.24-9.02,6.5-8.44l163.28,161.82Z"/>
  <path class="st0" d="M1005.98,1182c.32,7.36.95,14.66-4.94,20.04l-147.98,148.08c-2.94,4.37-9.48-1.43-8.9-4.84l161.82-163.28Z"/>
  <path class="st0" d="M1045.52,246.47c2.01,1.95,2.58,6.7,2.47,9.51-4.48,4.38-36.48-15.06-41.82-19.16-47.13-36.25-72.27-92.81-54.23-151.88,1.4-4.6,15.49-40.67,18.16-21.88,1.07,7.5-13.29,41.35-13.73,53.91-1.86,52.9,29.33,96.75,73.01,122.64,4.26,2.52,14.42,5.19,16.14,6.86Z"/>
  <path class="st0" d="M2280,1552.05l-7,9.92-170.96-168.96c-.22-4.34,14.68-.48,17.08.88,52.53,50.85,102.15,104.76,154.83,155.24,1.69,1.62,3.63,2.84,6.04,2.93Z"/>
  <polygon class="st0" points="1730.02 866 1731.89 848.89 1886 696.93 1891.96 703 1730.02 866"/>
  <path class="st0" d="M2333.99,625.98c-4,5.36-23.41-4.53-29.1-5.87-56.95-13.43-106.87,2.23-141.72,50.06-6.69,9.19-12.73,25.2-18.27,31.72-1.99,2.33-7.91,5.83-8.9,1.05s7.06-19.42,9.66-24.29c31.67-59.32,105.39-91.72,169.7-67.01,3.02,1.16,22.06,9.74,18.64,14.34Z"/>
  <path class="st0" d="M1765.48,65.49c-2.26,2.33-16.23,7.42-20.82,10.16-52.84,31.61-75.39,80.85-64.15,142.83,1.29,7.12,12.24,32.25,7.34,35.4l-5.63-.11c-37.86-76.31-1.01-179.52,85.76-197.77.15,2.9-.48,7.42-2.5,9.49Z"/>
  <path class="st0" d="M1052.01,746.01l174.11,168.93c4.65,4.33-3.24,11.79-7.18,7.18l-165.05-163.01-1.88-13.1Z"/>
  <path class="st0" d="M1766.01,1991.99c-3.5-11.46,3.72-21.47,6.24-32.74,6.43-28.68,6.91-42.78-.85-71.67-10.74-39.99-45.97-70.28-83.06-85.92l-.35-7.66c27.19,3.24,58.66,30.67,74.84,52.15,26.61,35.33,33.02,88.81,16.12,129.8-1.03,2.5-8.81,19.91-12.95,16.03Z"/>
  <path class="st0" d="M1290,810l-2.97-.02c-1.35-1.75-9.03-8.26-9.03-8.98v-207c2.23,1.1,12,10.19,12,11v205Z"/>
  <path class="st0" d="M1683.99,1303.99l-174.11-168.9c-4.48-2.92.43-11.76,4.12-10.15l165.11,162.95,4.87,16.1Z"/>
  <path class="st0" d="M1126.02,1418l1.87-17.11,142.08-140.89c1.29,5.62,4.2,11.84.12,17.11l-144.08,140.88Z"/>
  <path class="st0" d="M1152,1102l-.02,2.97c-1.75,1.35-8.26,9.03-8.98,9.03h-205c-1.35-2.47,10.15-12,11-12h203Z"/>
  <path class="st0" d="M2335.99,1425.99c-1.52,1.5-8.52-3.14-10.03-4.95-8.39-10.03-14.88-30.94-24.91-43.09-31.91-38.68-84.3-48.73-131.46-39.35-7.12,1.42-21.79,8.19-26.53,7.51-14.12-2.02,2.91-10.14,7.9-12.14,28.1-11.24,74.85-11.81,103-.93,41.07,15.88,74.12,48.4,82.03,92.95Z"/>
  <path class="st0" d="M1464.02,790l-.2-17.05,144.16-140.95c-.7,5.32,3.94,10.69.18,15.06l-144.14,142.94Z"/>
  <path class="st0" d="M1053.72,1796.29c34.7,76.41.57,180.66-87.71,195.7-6.26-5.59,27.27-20.33,30.6-22.38,50.92-31.33,68.23-84.25,56.79-142.01-2.15-10.87-7.78-20.59-7.39-31.6l7.71.29Z"/>
  <path class="st0" d="M1476,1472l-2.97-.02c-1.35-1.75-9.03-8.26-9.03-8.98v-203l2.97.02c1.35,1.75,9.03,8.26,9.03,8.98v203Z"/>
  <polygon class="st0" points="1816 916 1808 928 1602 928 1611 916 1816 916"/>
  <polygon class="st0" points="1192.01 992.01 1191.13 1000.13 1185.1 1002.1 898.03 1000.97 893.98 995.02 1192.01 992.01"/>
  <path class="st0" d="M1788,999.98l-241.1,2.12c-6.99.35-7.51-4.06-6.91-10.09l233.05-2.05c6.43.17,11.97,4.55,14.95,10.02Z"/>
  <path class="st0" d="M1110.24,1206.27l4.74-.25,3.02,4.95-200.93,203.15c-2.59,4.22-9.42-1.09-8.12-4.12l201.3-203.73Z"/>
  <path class="st0" d="M1397.99,552.01c1.59,83.59-2.06,167.49-.07,251.07.21,8.8,5.28,38.9,1.12,44.96l-6.01,1.98c-2.2-.45-2.98-8.72-3.13-10.93-6.02-90.3,4.78-187.19,0-278.19-.03-4.5,3.03-9.33,8.09-8.89Z"/>
  <path class="st0" d="M1334,613c.32-1.48,6.14-8.97,7-8.96l3,2.96v242c0,3.77-10,3.77-10,0v-236Z"/>
  <path class="st0" d="M1400.01,1197.99l2.04,231.06c1.02,3.28-6.89,18.54-10.04,14.94l-2.02-246h10.02Z"/>
  <path class="st0" d="M1000,880c-3.22,5.16-6.61,9.27-12.9,10.1-42.86,5.72-96.34-6.11-140.02,1.98l-78.23-2.02,1.15-10.06h230Z"/>
  <path class="st0" d="M1821,632.03l4.83,5.25-199.74,201.8c-2.42,2.65-4.5,3.92-8.1,1.92-3.82-2.12.47-4.25,2.01-6.01,62.32-70.75,136.27-134.14,201-202.97Z"/>
  <path class="st0" d="M1194,1048l-.87,8.13-6.03,1.97c-72.44-5.52-154.99,7-226.22.03-6.52-.64-12.06-2.53-12.88-10.12h246Z"/>
  <path class="st0" d="M1512,426v230c-5.16-3.22-9.27-6.61-10.1-12.9-5.72-42.86,6.11-96.34-1.98-140.02,2.19-22.11-2.64-48.69-.01-70.18,1.04-8.53,4.26-7.05,12.1-6.9Z"/>
  <polygon class="st0" points="1126.02 1446 1127.89 1426.89 1270.96 1286.51 1277.09 1289.93 1126.02 1446"/>
  <path class="st0" d="M1681.98,1380l-211.62-206.3c-1.55-10.38,6.36-8.32,11.67-2.73l197.08,196.92,2.86,12.12Z"/>
  <path class="st0" d="M1493.99,1275.99l.99,216.03c-7.42-2.94-13.57-10.83-13.07-18.93l3.97-196.22,8.12-.88Z"/>
  <path class="st0" d="M1607.98,604l-1.87,19.11c-39.56,36.95-75.43,78.12-115.06,114.94-6.22,5.78-16.95,16.53-22.96,21.04-5.66,4.25-10.15,4.48-9.79-3.75l149.67-151.34Z"/>
  <path class="st0" d="M1252,772h-10.01c-.89-71.94-3.02-143.87-1.97-216,3.1,1.17,11.98,10.84,11.98,13v203Z"/>
  <path class="st0" d="M1836,896.02c-4.38,5.36-9.63,13.43-16.89,14.08l-199.11-2.09v-10.02l216.01-1.97Z"/>
  <path class="st0" d="M1113.69,1140.3l2.3,9.69-215.99,1.99c3.69-4.92,8.27-11.75,14.89-12.08l198.8.4Z"/>
  <path class="st0" d="M1263.99,881.99l-9.09-1.89-200.01-199.99-2.88-10.1,6.99,3.99c61.96,66.35,135.65,126.63,196.79,193.21,1.86,2.02,10.8,12.29,8.2,14.78Z"/>
  <path class="st0" d="M1052.01,772.01l8.08,2.9,153.7,154.49c1.22,2.9-2.82,8.96-5.79,7.67l-151.11-148.95-4.88-16.1Z"/>
  <path class="st0" d="M1645.99,708.01c.87,3.77-2.13,4.74-3.99,6.99-6.99,8.5-18.06,19.73-25.95,28.05-45.08,47.51-93.87,91.66-139.02,139.14-5.6,3.62-12.85-.96-7.13-7.29l160.21-161.79,15.88-5.1Z"/>
  <path class="st0" d="M1088,1339.98l172-175.04c2.97-1.29,7,4.76,5.79,7.67l-161.9,164.29-15.89,3.09Z"/>
  <polygon class="st0" points="1788 1265.98 1768.89 1264.11 1628.93 1120 1636 1114.93 1788 1265.98"/>
  <polygon class="st0" points="2128.01 1390.01 2141.11 1391.89 2289.86 1539.27 2282 1547.08 2128.01 1390.01"/>
  <path class="st0" d="M1681.99,1277.99l-160.11-156.93c-4.65-4.33,3.24-11.79,7.18-7.18l152.89,153.16.03,10.95Z"/>
  <polygon class="st0" points="1012.01 1339.99 1220 1126.94 1225.11 1130 1224.12 1135.06 1024.12 1337.12 1012.01 1339.99"/>
  <path class="st0" d="M1966,1206h-195c-.67,0-8.19-7.96-9-9.98,65.37-3.66,131.37-1.34,197.1-2.12,8.01-.42,7.26,5.71,6.9,12.1Z"/>
  <path class="st0" d="M1186,1427c.36-1.27,7.84-7.91,9.98-9,3.53,67.86,1.5,136.02,2.03,204.01h-12.01v-195.01Z"/>
  <path class="st0" d="M948,784.02l19.11,1.87,137.01,139.05c3.98,3.66-.08,6.73-3.39,8.92-52.23-47.88-103.47-98.4-152.73-149.84Z"/>
  <path class="st0" d="M605.99,657.99c-4.93.25-8.54.72-13.1-1.88-8.2-4.67-32.54-33.29-41.84-42.16-35.4-33.79-71.3-67.61-104.84-103.35-1.26-4.81,5.09-11.27,8.85-6.72l150.93,154.11Z"/>
  <path class="st0" d="M1721.99,710.01l-210,211-.09-8.11c48.52-48.8,97.85-96.83,146.15-145.85,11.59-11.76,41.03-48.46,52.84-55.16,3.9-2.22,6.77-2.31,11.1-1.88Z"/>
  <path class="st0" d="M1966,1068v8h-289c-2.12,0-3.81-5.68-3-8h292Z"/>
  <polygon class="st0" points="1324 1622 1319 1623.96 1316 1621 1316 1333 1319.03 1330.01 1324 1333 1324 1622"/>
  <path class="st0" d="M1161.99,1454.01l-1.98,168-13.14-1.88,1.02-151.23c-1.72-4.11,12.15-17.18,14.09-14.89Z"/>
  <path class="st0" d="M1167,1084l2.02,4c-4.09,4.16-7.08,9.05-13.9,8.12l-199.12-2.14c.81-2.02,8.33-9.98,9-9.98h202Z"/>
  <path class="st0" d="M1308,826c-7.39.68-12.77-5.81-12.12-12.88l2.14-199.12c2.02.81,9.98,8.33,9.98,9v203Z"/>
  <path class="st0" d="M1417.99,426.01l2.11,285.09c.11,5.7-2.52,7.79-8.09,6.89-.57-58.98.69-118.07.07-177.07-.36-34.73-6.21-73.25-2.19-108.02.68-5.87,1.65-7.68,8.09-6.89Z"/>
  <path class="st0" d="M1090,6v222c-5.67.19-9.45-8.19-10.09-12.91-5.93-43.74,4.55-100.96.17-146.17l-1.85-60.69,11.77-2.23Z"/>
  <path class="st0" d="M770.32,981.69c-.33-.2-3.92-7.12-1.31-7.7l282.11-2.11c4.84-.5,8.03,1.31,10.84,5.12l-291.64,4.69Z"/>
  <path class="st0" d="M570,1302c-.22,6.05-5.7,9.42-10.89,10.11-43.95,5.81-100.83-4.49-146.19-.19-16.74,1.74-39.4,4.21-56.01,2.18-8.53-1.04-7.05-4.26-6.9-12.1h220Z"/>
  <polygon class="st0" points="1183.99 929.99 1170.89 928.11 1028 782.02 1043.11 783.89 1181.09 921.91 1183.99 929.99"/>
  <path class="st0" d="M1209.98,574l-117.97-119.96,11.97-5.16,103.05,103.08c7.68,6.69,3.55,13.61,2.94,22.04Z"/>
  <path class="st0" d="M1964.01,1231.99c-.19,5.38,2.1,13.22-5.01,14.01-29.99-.69-60.11.89-90.09.08-4.73-.13-9.1-1.99-13.84-2.16-11.01-.41-40.85,2.4-48.19-1.81-2.96-1.7-8.42-9.01-10.89-12.09l168.01,1.97Z"/>
  <polygon class="st0" points="1524.02 1474 1641.12 1590.02 1641.12 1593.98 1633 1601.96 1525.89 1495.11 1524.02 1474"/>
  <path class="st0" d="M2383.69,736.3l2.3,9.69-221.95-.99c9.46-11.98,31.97-6.26,47.04-6.92,4.74-.21,9.11-2.02,13.84-2.16,52.8-1.6,105.98,1.11,158.78.38Z"/>
  <polygon class="st0" points="1550.01 1274.01 1558.09 1276.91 1759.06 1478 1756 1483.02 1552.89 1284.11 1550.01 1274.01"/>
  <path class="st0" d="M1052.02,694l198.01,194.97c4.02,5.74.06,9-6.04,4.04-10.63-8.65-24.54-22.98-35.04-32.96-52.56-49.97-101.54-103.89-154.06-153.94l-2.86-12.12Z"/>
  <polygon class="st0" points="1766 867.98 1910 722.92 1917.86 730.73 1783.11 866.11 1766 867.98"/>
  <path class="st0" d="M1683.99,1353.99l-8.08-2.9-189-189-2.9-8.08c4.04-.87,5.34.89,8.08,2.9,11.82,8.67,27.31,28.08,38.86,39.14,49.96,47.86,99.36,96.61,148.09,145.91l4.95,12.03Z"/>
  <polygon class="st0" points="1588 428 1588 583 1574 596 1574 428 1588 428"/>
  <path class="st0" d="M938,818h-168c.2-5.38-2.13-13.21,5-14l152.11,1.89,10.89,12.11Z"/>
  <polygon class="st0" points="968 1182.02 823.28 1325.85 816.92 1320 950.89 1183.89 968 1182.02"/>
  <path class="st0" d="M1656.01,2042.01h-10.02s1.01-219.97,1.01-219.97c12.06,9.86,6.27,33.49,6.92,49.04.2,4.74,2.03,9.11,2.16,13.84,1.52,52.26-1.32,104.83-.07,157.09Z"/>
  <path class="st0" d="M1706,1265.98l-15.11-1.87-137.9-138.1-2.98-6c3.52.24,7.55-.64,10.95.03,7.09,1.41,90.88,88.21,103.1,100.9,14.16,14.7,27.47,30.6,41.95,45.03Z"/>
  <path class="st0" d="M1326,624v225c0,3.77-10,3.77-10,0v-218c0-.67,5.86-5.49,7.03-6.98l2.97-.02Z"/>
  <path class="st0" d="M1194,1066v10h-219c-.71,0-10.7-7.28-9-10h228Z"/>
  <path class="st0" d="M1001.99,1786.01l-.89,10.1-148.2,150c-2.9.68-9.35-2.95-7.96-6.1,43.49-43.86,87.68-87.03,131.11-130.95,7.87-7.95,13.57-20.29,25.94-23.04Z"/>
  <polygon class="st0" points="1734.02 264 1735.89 248.89 1882.64 102.31 1889.09 105.94 1734.02 264"/>
  <path class="st0" d="M979.03,566.01c2.82-.58,4.2,2.51,5.97,3.99l199.09,196.9-.09,8.11-207.05-202.98c-2.53-1.8.66-5.73,2.07-6.02Z"/>
  <path class="st0" d="M1372,573c.1-.34,4.65-4.96,5-4.96l3,2.96v276l-3.03,2.99-4.97-2.99v-274Z"/>
  <path class="st0" d="M1192,1012l-.89,6.11-6.01,1.99-264.14-.06c-5.37,1.96-15.07-8.04-7.96-8.04h279Z"/>
  <path class="st0" d="M1823.98,1032.04l-.99,3.97c-32.68.46-65.41-.62-98.08-.09-53.36.87-124.04,7.85-176.01,2.18-9.33-1.02-9.63-7.11,0-8.19,48.9-5.48,116.79.68,168.18.18,30.74-.3,65.23-6.05,96.01-2.18,4.51.57,6.82,3.18,10.89,4.14Z"/>
  <path class="st0" d="M1697.99,708.01l-3.99,6.99-187.89,190.11-10.1,2.88,2.9-8.08c52.71-53.27,106.67-105.36,159.14-158.86,5.36-5.46,31.73-40.29,39.94-33.04Z"/>
  <path class="st0" d="M1361.99,1200.01c.57,58.32-.69,116.74-.07,175.07.32,29.96,4.96,61.79,2.18,92.01-.59,6.43-1.61,11.84-8.07,14.9l-2.12-275.1c-.11-5.7,2.52-7.79,8.09-6.89Z"/>
  <polygon class="st0" points="1209.98 624 1066.88 483.98 1066.15 481.28 1072 474.92 1208.11 608.89 1209.98 624"/>
  <path class="st0" d="M1114.01,1339.99l3.99-6.99,152.9-153.09c6.6-4.18,11.75-.74,6.12,6.12-44.02,53.59-104.43,103.53-153.35,152.65l-9.66,1.32Z"/>
  <path class="st0" d="M1237.99,1140.01l-1.89,9.09c-52.33,52.98-106.11,104.59-158.15,157.85-7.78,7.96-18.94,24.33-27.83,30.17-4.45,2.92-6.64,3.66-12.11,2.87l3.99-6.99,187.91-190.09,8.08-2.9Z"/>
  <path class="st0" d="M1619.99,710.01l-156.93,160.11c-3.16,3.83-10.15-.46-7.1-5.12,2.21-3.38,11.48-13.12,15.01-17.03,42.37-46.93,93.01-89.3,135.92-136.08l13.1-1.88Z"/>
  <path class="st0" d="M1735,1132c-1.26-.36-8.88-8.38-6.99-9.99,78.79-1.02,157.39,1.06,236,2v7.99h-229.01Z"/>
  <path class="st0" d="M1269.99,1385.99l-1.98,234.99c-.43,3.49-10.05-.06-8.11-5.88v-218.19c1.22-5.51,3.22-12.66,10.09-10.92Z"/>
  <path class="st0" d="M1816,867.98l120.71-117.82c1.06.18,4.64,3.59,5.41,4.76,5.9,8.97-13,19.04-19.17,25.03-29.07,28.23-57.01,57.68-85.84,86.16l-21.11,1.87Z"/>
  <polygon class="st0" points="1524.02 1424 1669.08 1566 1661.27 1573.86 1525.89 1439.11 1524.02 1424"/>
  <path class="st0" d="M918,1182.02l-119,117.94-8.08-7.93c-2.56-5.67,16.44-18.39,20.13-21.98,30.67-29.86,59.85-62.35,91.98-90.06l14.97,2.03Z"/>
  <path class="st0" d="M1183.99,699.99c-3.77.87-4.74-2.14-6.99-3.99-33.8-27.69-69.95-71.12-100.94-103.06-16.93-17.45-40.3-36.7-55.1-54.9-1.54-1.89-6.68-7-2.96-9.06l8.1,1.92,157.01,158.98.89,10.1Z"/>
  <path class="st0" d="M1044,962h-273l-2.99-3.03,2.99-4.97h266c1.58,0,8.54,5,7,8Z"/>
  <path class="st0" d="M1767.99,978.04c.57,5.13-2.78,5.57-6.89,6.06-24.07,2.86-50.16-1.84-74.02-2.18-48.62-.68-97.31.66-145.93.11l-1.16-8.02,215.12-2.13,12.87,6.15Z"/>
  <path class="st0" d="M1833,1048c3.64.22,7.37-.59,7.99,6.01-94.38-4.58-196.48,9.6-290.09,2.09-6.47-.52-12.77-1.69-5.9-8.1h288Z"/>
  <path class="st0" d="M1417.99,1197.99l2.11,215.11c.15,6.04-5.52,8.9-9.1,12.86l-1.03-226.81,8.02-1.16Z"/>
  <path class="st0" d="M1438,426v269c0,.61-4.07,3.74-5.03,4.98l-2.97.02v-271c0-2.12,5.68-3.81,8-3Z"/>
  <path class="st0" d="M1609.99,686.01l-1.88,13.1-143.11,142.85c-4.6-3.58-4.06-10.64-1.1-15.07l139.1-136.89,6.99-3.99Z"/>
  <path class="st0" d="M1344,1200v289c0,4.92.14,5.75-5.98,9-.27-99.34-3.31-198.52-2.01-298.01h7.99Z"/>
  <path class="st0" d="M1251.99,1154c.88,1.17-.25,5.75-1.89,7.1l-173.98,176.02-12.11,2.87,180.98-186.19c1.06-1.91,6.79-.08,7,.2Z"/>
  <path class="st0" d="M1672,710.02l-180.9,184.08c-5.7,5-12.89-1.21-6.11-6.11l173.9-176.09,13.11-1.87Z"/>
  <polygon class="st0" points="1052.01 720.01 1239.06 904 1236 909.02 1202.95 880.05 1053.89 731.11 1052.01 720.01"/>
  <path class="st0" d="M1839.99,648.01l-3.98,6.99-184.9,185.1-9.09,1.89c-.87-3.77,2.14-4.74,3.99-6.99,20.05-24.43,52.9-54.51,75.95-78.05,36.28-37.04,73.44-73.51,110.65-109.51l7.39.58Z"/>
  <path class="st0" d="M1091.02,1206.06c1.18.08,4.29,3.42.98,4.94-62.89,62.52-123.64,126.88-186.91,189.1l-7.11.91-.02-6.04,193.05-188.91Z"/>
  <path class="st0" d="M1183.99,723.99l-6.99-3.99-173.56-174.6c-1.52-7.92,2.2-10.36,7.57-3.41l171.1,170.9,1.88,11.1Z"/>
  <path class="st0" d="M1552.01,1350.01l6.99,3.99,157.09,158.9c5,5.7-1.21,12.89-6.11,6.11l-156.09-155.9-1.88-13.1Z"/>
  <path class="st0" d="M1524.02,1448l131.83,132.72c-2.67,3.31-6.63,9.91-10.91,5.4l-119.05-121.01-1.87-17.11Z"/>
  <path class="st0" d="M1746,1142h217c3.77,0,3.77,10,0,10h-208c-.67,0-8.21-7.97-9-10Z"/>
  <polygon class="st0" points="1271.99 1208.01 1271.95 1218.96 1126.02 1364 1127.89 1348.89 1265.99 1210.99 1271.99 1208.01"/>
  <path class="st0" d="M1556,614v-186l10.06-1.15c2.49,1.79,1.83,5.37,2.04,8.05,3.14,40.9,2.46,104.81-.12,146.08-.3,4.86-1.44,20.39-2.38,23.62-.88,3.04-6.66,7.7-9.6,9.4Z"/>
  <path class="st0" d="M1803.99,1017.99c-51.65.53-103.4-.64-155.07-.07-32.18.36-67.76,5.92-100.02,2.19-5.87-.68-7.68-1.65-6.89-8.09l76.91-2.09,182.19,1.97,2.88,6.1Z"/>
  <path class="st0" d="M1240,1622v-209c0-3.18,7.1-7.68,10-9v215l-10,3Z"/>
  <path class="st0" d="M956,836h-186v-12.01c49.67,2.16,101.67-2.82,151.1-.08,12.18.67,29.38.1,34.9,12.1Z"/>
  <path class="st0" d="M553.58,1320.44c.55.32,7.75,9.92,5.41,11.57l-207.65-1.93-3.24-6.9,6.79-3.28,198.68.53Z"/>
  <path class="st0" d="M1041.99,1208.01c1.35,7.91-6.41,9.4-11.04,13.94-50.19,49.11-98.86,99.82-148.9,149.09l-8.07,4.07-3.04-5.1,160.96-161.1,10.09-.89Z"/>
  <path class="st0" d="M1379.99,1199.99c.77,85.17,4.12,170.8.97,255.97l-6.94,6.04-2.05-260.85,8.02-1.16Z"/>
  <path class="st0" d="M1731.99,1509.99l-8.08-2.9-171.02-170.98-2.88-10.1,8.08,2.9c48.89,52.84,105.63,101.02,153.96,154.04,4.62,5.06,13.51,14.15,17.04,18.96,2.01,2.74,3.77,4.03,2.9,8.08Z"/>
  <path class="st0" d="M1692,839.98c1.85-7.43,8.35-9.33,13.05-13.92,50.88-49.75,99.78-101.74,151.49-150.53,5.86-3.75,10.49,2.33,4.47,6.49l-153.9,156.09-15.11,1.87Z"/>
  <path class="st0" d="M1072,209c-.59,2.02-10.45,8.67-11.99,6.99l2-204.98,3.02-4.98c1.99-1.04,6.97,1.33,6.97,2.97v200Z"/>
  <path class="st0" d="M579.98,670l-147.48-148.95,3.49-6.08,35.06,30.98,109.05,108.94c4,4.68.94,10.07-.13,15.11Z"/>
  <path class="st0" d="M1681.99,1327.99l-184.02-180.96c-4.02-5.74-.06-9,6.04-4.04,13.13,10.68,30.14,28.58,43.04,40.96,44.85,43.07,87.15,88.9,132.06,131.93l2.87,12.11Z"/>
  <path class="st0" d="M1298,1353c.33-2.23,2.49-6.45,5.99-4.99,2.92,90.29,2.81,181.53.98,271.96l-6.97,4.03v-271Z"/>
  <path class="st0" d="M1209.98,600l-128.1-126.91c-4.58-5.11.3-8.62,4.12-12.17l122.1,121.97,1.87,17.11Z"/>
  <path class="st0" d="M2154.01,1380.01l6,2.98,140.08,141.91c4.17,6.63.77,11.72-6.11,6.11-48.76-39.73-90.91-93.76-138.09-135.91l-1.88-15.1Z"/>
  <path class="st0" d="M1695,1094c-1.67-.48-3.65-3.85-2.99-5.99,9.62-.47,19.45.58,29.07.07,72.49-3.82,159.56-6.09,232.01-2.18,4.07.22,7.94.3,11.74,1.92l1.18,6.18h-271Z"/>
  <polygon class="st0" points="1703.99 1535.99 1680.95 1518.05 1553.89 1391.11 1552.02 1376 1704.56 1528.6 1703.99 1535.99"/>
  <path class="st0" d="M1278,1624v-251c0-.43,4.88-5.74,6.97-4.99,7.04,1.42,1.11,32.82.95,38.91-1.88,69.95,1.49,140.2.19,210.19.11,5.72-2.52,7.77-8.1,6.9Z"/>
  <path class="st0" d="M1168,1445c.32-1.11,10.27-11.03,11.99-8.99.81,62.11-.65,124.09-1.98,186h-10.01v-177.01Z"/>
  <path class="st0" d="M1965.79,1106.18l2.17,4.82c-1.84,2.97-3.85,2.77-6.86,3.09-74.78,8.02-163.84-6.24-240.14-.06-4.2-.32-10.55-1.86-10.98-7.02l255.81-.84Z"/>
  <path class="st0" d="M1192,1030l1.96,5c-1.83,2.97-3.85,2.77-6.86,3.1-76.74,8.2-167.94-6.44-246.22.02-4.98.58-11.18-2.04-10.88-8.12h262Z"/>
  <path class="st0" d="M1362,588v262h-8v-257c0-.61,4.07-3.74,5.03-4.98l2.97-.02Z"/>
  <path class="st0" d="M1789,1224c-1.49-.42-9.54-9.59-11-11.98,61.69-.76,123.26.53,184.76,1.86l3.24,10.12h-177Z"/>
  <path class="st0" d="M1929.7,740.28c1.26,2.1.02,5.08-1.61,6.83l-116.06,115.93c-5.37,5.89-12.68,5.25-20.03,4.95l129.99-131.12,7.71,3.41Z"/>
  <polygon class="st0" points="1743.99 1495.99 1737 1492 1551.52 1307.48 1550.01 1298.01 1557 1302 1742.1 1486.9 1743.99 1495.99"/>
  <path class="st0" d="M944,1182.02l-132.64,129.67c-4.11-1.5-10.33-4.28-5.43-8.76l118.96-119.05,19.11-1.87Z"/>
  <path class="st0" d="M1438,1434l-2.97-.02c-1.17-1.49-7.03-6.32-7.03-6.98v-205l2.97.02c1.17,1.49,7.03,6.32,7.03,6.98v205Z"/>
  <path class="st0" d="M1566,964l.02-2.97c1.49-1.17,6.32-7.03,6.98-7.03h202l2.96,3c-1.55,1.13-6.26,7-6.96,7h-205Z"/>
  <path class="st0" d="M1538,630v-204l10.13.88c4.99,3.45-.03,18.48-.21,24.04-1.76,55.94,1.4,112.21.19,168.19-.04,5.03-4.67,10.85-10.11,10.89Z"/>
  <path class="st0" d="M1466,431c.78-2.75,5.34-3.54,7.99-2.99.44,43.65-.53,87.4-.07,131.07.3,29.18,5.21,60.65,2.21,90.05-.49,4.84-3.55,14.67-10.13,14.87v-233Z"/>
  <path class="st0" d="M1006,926h-231c-3.86,0-6.35-4.44-5.01-7.99,44.99-.48,90.08.57,135.09.07,28.39-.32,61.52-6.41,89.8-1.97,4.76.75,11.43,4.3,11.12,9.88Z"/>
  <path class="st0" d="M1024,944h-253c-2.12,0-3.81-5.68-3-8h253c2.12,0,3.81,5.68,3,8Z"/>
  <path class="st0" d="M1001.42,1810.39c4.15-.92,7.83-1.3,10.54,2.61l-148.96,146.97-4.12-7.95,142.54-141.62Z"/>
  <path class="st0" d="M1456,424v253c0,.62-4.07,3.68-5,4.96l-3-2.96v-250c0-.61,4.07-3.74,5.03-4.98l2.97-.02Z"/>
  <path class="st0" d="M1722,237.98l149.27-147.83,6.7,4.85c-43.9,44.08-88.02,87.95-132.02,131.95-8.85,8.84-7.37,14.97-23.95,11.03Z"/>
  <path class="st0" d="M974,854h-204v-12.01c63.37,4,127.42,1.26,191.1,1.91,5.93.11,9.98,5.56,12.9,10.1Z"/>
  <path class="st0" d="M1682,1823c.47-2.19,5.29-8.13,7.98-9l2.12,221.1-3.13,8.87c-1.99,1.04-6.97-1.33-6.97-2.97v-218Z"/>
  <path class="st0" d="M2165,710c-3.54-.61-6.06-4.72-7-7.98,76.17,1.4,151.86-3.18,228.01-2.03v10.01h-221.01Z"/>
  <path class="st0" d="M1664,1839l9.98-7c-.21,69.56,1.1,139.32-1.9,208.63l-8.08,3.36v-205Z"/>
  <path class="st0" d="M2180,728l-3.99-9.99c70.01.23,140.24-1.12,210,2v7.99h-206.01Z"/>
  <path class="st0" d="M993,552.04c50.42,49.55,99.51,100.48,149.95,150.01,10.28,10.09,34.26,27.75,40.52,39.49,4.41,8.28-.82,11.66-6.47,4.46l-186.69-187.34,2.69-6.62Z"/>
  <path class="st0" d="M1183.99,671.99l-6.99-3.99-145.09-144.9c-5-5.7,1.21-12.89,6.11-6.11l145.09,144.91.89,10.1Z"/>
  <path class="st0" d="M372.01,1450.01c10.21,4.26,24.23,9.51,32.99,15.99,14.95,11.08,66.35,62.85,78.04,77.95,1.5,1.93,5.25,5.43,4.05,8.08l-8.08,7.93-106.99-109.95Z"/>
  <polygon class="st0" points="2364 597.98 2329.95 583.05 2247.93 499 2255.29 490.16 2364 597.98"/>
  <path class="st0" d="M1770,18c-6.81,6.55-25.52,12.97-34.99,14.01-23.69,2.6-88.77,2.92-112.11.08-9.49-1.15-6.73-5.92-6.9-14.1h154Z"/>
  <polygon class="st0" points="1035.99 1810.01 873.96 1973.13 871.82 1964.99 1026.52 1811.52 1035.99 1810.01"/>
  <path class="st0" d="M1861.99,76c.45.32,2.74,8.01.2,9.03l-156.33,154-7.85-1.05,156.89-160.08c1.37-1.62,5.87-2.78,7.09-1.89Z"/>
  <path class="st0" d="M2374,1274v154c-3.47-.53-3.5-3.97-4.55-6.45-2.87-6.75-8.71-21.77-9.46-28.54-2.6-23.69-2.93-88.76-.09-112.1,1.15-9.49,5.92-6.73,14.1-6.9Z"/>
  <polygon class="st0" points="581.98 694 418.94 534 422 528.89 427.06 529.88 580.11 682.89 581.98 694"/>
  <path class="st0" d="M1494,426v214c0,.49-7.36,2.01-6.99,5.99-3.38-2.33-2.83-5.41-3.11-8.89-2.31-28.44,1.84-57.89,2.19-86.02.52-41.68-.57-83.44-.07-125.09h7.99Z"/>
  <path class="st0" d="M981,898c1.26.36,8.88,8.38,6.99,9.99-72.75.57-145.16-3.49-218-2v-7.99h211.01Z"/>
  <path class="st0" d="M1845.3,673.3c-54.05,57.16-114.73,108.9-168.2,166.8l-9.09,1.89,5.94-11.04,173.39-170.64,6.62,2.69c-3.9,2.58-5.83,7.3-8.66,10.3Z"/>
  <path class="st0" d="M1065.99,1208.01l-2.9,8.08-174.09,172.11c-12.47,2.82-4.79-6.56.2-11.99,52.3-56.84,115.51-108.66,167.69-166.31l9.09-1.89Z"/>
  <path class="st0" d="M2154.02,1356l160.1,156.94c4.33,2.75-1.69,11.09-5.12,7.1l-155.19-155.01.21-9.02Z"/>
  <path class="st0" d="M374,773c-1.25,4.07-12.73,4.56-13.49.09,3.66-50.04-2.9-100.62-.5-151.08,4.52-.83,3.19.2,4.47,2.54,1.08,1.98,9.52,23.14,9.52,24.45v124Z"/>
  <path class="st0" d="M1118,2018l-.02,14c-15.1-3.2-33.24-2.48-49.08-2.09-31.43.77-64.37,4.71-96.01,2.2-3.51-.28-7.71.38-8.89-4.08,7.34.59,23.74-10.02,29-10.02h125Z"/>
  <path class="st0" d="M1015.99,1208.01c3.32,2.89-11.21,12.18-13.04,13.94-46.92,44.98-91.28,92.79-137.85,138.15-5.7,5-12.89-1.21-6.11-6.11l143.9-144.09,13.1-1.88Z"/>
  <polygon class="st0" points="941.98 28 925.05 64.05 841 144.07 832.92 136 941.98 28"/>
  <path class="st0" d="M1794.02,2020l15.98-35,80.94-79.13c4.28-4.51,8.24,2.09,10.91,5.4l-107.83,108.72Z"/>
  <path class="st0" d="M1720.01,839.99l150.93-152.11c3.21-3.59,5.48-.91,8.09,2.12l-145.92,148.11-13.1,1.88Z"/>
  <path class="st0" d="M576,1348h-228l.89-6.11,6.01-1.99c67.57,6.01,148.2-7.64,214.21,0,5.89.68,7.66,1.65,6.9,8.1Z"/>
  <path class="st0" d="M1052,6v223c0,.61-4.07,3.74-5.03,4.98l-2.97.02V6h8Z"/>
  <path class="st0" d="M2313.99,1417.99c-15.4-2.26-17.42-15.71-25.16-25.82-21.06-27.47-63.39-43.99-97.61-39.96-10.98,1.29-17.51,8.59-28.66,2.24-2.2-1.25-3.43.16-2.55-4.43,60.66-24.55,131.24,8.22,153.99,67.96Z"/>
  <path class="st0" d="M1039.98,234c-57.16-20.65-83.02-81.89-70.69-139.71,1.25-5.85,3.46-11.91,7.72-16.28,7.2,12.23.04,23.39-.99,35.01-2.8,31.59,10.36,72.22,35.04,92.92,10.53,8.84,26.96,12.26,28.92,28.06Z"/>
  <path class="st0" d="M974,1969.98c5.61-17.16,22.95-19.6,35.05-31.93,22.1-22.53,34.29-59.57,30.73-90.83-1.3-11.44-8.63-19.2-.79-31.21,24.78,45.76,6.86,100.54-29.94,134.04-4.74,4.32-29.16,24.4-35.05,19.93Z"/>
  <path class="st0" d="M1695.97,233.99c-3.3-.88-5.01-8.15-5.87-11.09-17.81-61.09,12.42-120.39,69.87-144.89-1.02,15.52-17.82,18.87-27.81,27.17-22.56,18.74-40.35,60.42-37.91,89.57,1.2,14.36,9.4,25.06,1.71,39.24Z"/>
  <path class="st0" d="M422.01,1417.97c-.55-3.99-.36-3.27,2.47-4.48,11.17-4.78,20.16,1.62,30.54,2.49,36.93,3.12,76.3-11.8,98.64-41.32,7.49-9.89,7.31-20.29,22.32-22.66-20.39,62.51-94.58,87.83-153.97,65.97Z"/>
  <path class="st0" d="M1756.01,1969.99c-4.85-13.58,2.03-22.93,3.42-35.54,3.19-28.85-12.7-71.15-34.49-90.39-10.24-9.03-28.6-13.69-28.93-28.05,52.1,18.82,75.97,69.5,72.07,123.07-.19,2.6-5.31,38.1-12.07,30.91Z"/>
  <path class="st0" d="M435.4,638.59c2.88,3.21,5.87,12.16,9.78,17.23,19.78,25.66,61.13,45.1,93.58,41.92,12.8-1.25,25.82-11.11,37.2-.75-37.62,18.89-84.91,10.94-116.9-15.06-10.3-8.37-35.18-34.27-37.09-46.93-1.05-6.99,11.85,1.83,13.43,3.59Z"/>
  <path class="st0" d="M2314,632.02c-9.74,11.98-26.09,1.18-39.24.24-34.71-2.46-73.67,15.7-94.41,43.07-7.8,10.3-7,18.92-22.32,22.66,20.11-62.62,97.24-90.08,155.98-65.97Z"/>
  <path class="st0" d="M1599.79,1632.23c4.96,4.18.83,87.76,2.17,100.73l-13.94,15.04-2.02-111c.66-6.76,8.58-5.33,13.79-4.77Z"/>
  <path class="st0" d="M2089.99,803.99l-114,2.02-.07-12.69c.64-2.78,8.55-3.25,10.99-3.42,20.55-1.41,66.9-2.63,86.18,0,6.11.83,16.31,7.27,16.9,14.08Z"/>
  <path class="st0" d="M1721.99,356.01l-74.9,80.11-5.68,1.66c-3.37-2.09-8.37-5.92-7.2-10.37,2.33-8.85,60.5-56.66,68.68-69.51l19.1-1.88Z"/>
  <path class="st0" d="M1091.28,1610.15l10.23,8.82-68.41,71.12c-2.79,2-17.2,4.42-19.1,2.95-3.44-2.66-.8-2.81,1-5.04,21.73-26.87,54.62-49.95,76.28-77.85Z"/>
  <path class="st0" d="M760,1244v14h-105c-.78,0-9-9.49-10.98-11.03l-.02-2.97h116Z"/>
  <path class="st0" d="M1148,302v114h-14v-103c0-.78,9.49-9,11.03-10.98l2.97-.02Z"/>
  <path class="st0" d="M1034,6v185l-4.01,2.03c-2.88-2.79-3.59-6.17-4.03-9.99-6-52.66,4.65-116.29-.06-170.14-.11-5.72,2.52-7.77,8.1-6.9Z"/>
  <path class="st0" d="M350,1366v-8h183l2.96,3c-1.28.93-4.34,5-4.96,5h-181Z"/>
  <polygon class="st0" points="1802.01 1280.01 1879.96 1355 1871.98 1363.12 1866.94 1362.12 1802.04 1294.96 1802.01 1280.01"/>
  <polygon class="st0" points="1964 896 1964 910 1867 910 1856 896 1964 896"/>
  <polygon class="st0" points="931.98 770 856.88 695.98 856.88 692.02 865 684.04 930.11 748.89 931.98 770"/>
  <path class="st0" d="M1017.99,1850.01l-4.95,12.03-119.94,120.06c-6.64,4.17-11.72.78-6.11-6.11,18.87-23.21,44.7-43.15,66.07-63.93,18.57-18.07,38.53-42.04,57.94-58.06,2.25-1.86,3.23-4.85,6.99-3.99Z"/>
  <polygon class="st0" points="1496 1620 1484.91 1621.51 1482 1619 1482 1525 1496 1512 1496 1620"/>
  <path class="st0" d="M1845.03,64.01l4.97,3.03-1.9,6.07-129.1,126.86c-5.11-3.09-.27-8.64,1.9-12.06l124.12-123.89Z"/>
  <path class="st0" d="M541.98,676l-10.07-4.91-122-119.99c-4.17-6.64-.78-11.72,6.11-6.11,42.55,34.6,80.64,86.81,123.08,122.92l2.88,8.1Z"/>
  <path class="st0" d="M2192.01,1374.01l9.09,1.89,125.02,123.04c4.22,2.59-1.09,9.42-4.12,8.12l-129.99-133.05Z"/>
  <path class="st0" d="M1622,589.98l74-77.11,11.97,8.13-66.86,67.11c-5.49,3.61-12.76,1.41-19.11,1.87Z"/>
  <path class="st0" d="M1252,428v97c0,.81-9.76,9.88-11.98,11,2.15-13.92-6.42-102.83-.15-107.13l12.13-.87Z"/>
  <path class="st0" d="M869,1140l10.99,11.98c-36.1-.71-71.81,3.49-108,2.03l-1.99-14.01h99Z"/>
  <polygon class="st0" points="1112 1460.02 1039.96 1535.14 1028 1528.93 1092.89 1461.89 1112 1460.02"/>
  <path class="st0" d="M1710.01,2042.01h-10.02s2.02-186,2.02-186l5.64,3.34c-.71,60.89,2.78,121.78,2.36,182.66Z"/>
  <path class="st0" d="M2198,689.98c1.57-4.38,4.71-5.51,8.9-6.08,26.42-3.61,67.71.57,96.19.19,24.54-.33,51.26-5.03,76.02-2.18,9.87,1.14,9.88,9.04,0,10.2-12.44,1.45-24.55-1.89-36.01-2.18-48.29-1.21-96.8,1.09-145.08.06Z"/>
  <path class="st0" d="M1015.99,7.99l-2,162.02h-5.98c-.48-11.63.59-23.46.07-35.09-1.57-35.06-6.28-85.94-2.18-120.01.89-7.36,2.73-7.34,10.09-6.91Z"/>
  <path class="st0" d="M378,776v-106c7.88,1.32,14.04,13.39,14.1,20.9l-2.38,81.82c-1.52,4.63-7.83,3.21-11.72,3.28Z"/>
  <path class="st0" d="M1015,2014c-.54-.13-3.9-2.95-2.03-4.01,16.71-16.59,37.72-8.49,57.95-7.91,15.27.44,30.66-.39,45.93-.21,1.35.24,4.08,10.98.15,12.13h-102Z"/>
  <path class="st0" d="M352.33,1385.7l-2.21-6.52c.91-4.9,29.09-3.45,34.97-3.26,39.25,1.21,80.94-.92,120.01,1.99,3.58.27,6.47-.56,8.87,3.09,0,4.99-30.05,2.66-35.04,2.92-4.73.24-9.11,2.01-13.83,2.17-37.47,1.24-75.29-.84-112.76-.38Z"/>
  <path class="st0" d="M1606,1632l11.9.11c2.78,2.67,2.99,68.24,2.19,76.99-.79,8.67-4.91,16.7-14.09,18.91v-96Z"/>
  <path class="st0" d="M1814.01,1973.99c.86-8.12,1.13-17.92,6.93-24.05l59.1-55c5.37-3,12.75,3.81,8.08,8.13l-74.11,70.93Z"/>
  <polygon class="st0" points="922 76.02 915.13 98.13 855.06 154.12 850.02 155.12 844.92 148 914.91 77.91 922 76.02"/>
  <path class="st0" d="M2070,786h-93l-2.82-3.21.68-6.94c1.16-1.63,8.17-2.93,10.68-3.31,14.66-2.24,52.44-2.16,67.58-.66,8.06.8,14.67,5.92,16.88,14.12Z"/>
  <path class="st0" d="M1829.34,52.31c2.69-.73,6.04.37,6.66,2.73,1.75,6.59-10.95,12.91-15.05,16.91-33.38,32.6-65.8,66.18-99.95,98.01l-2.04-5.99,110.38-111.66Z"/>
  <path class="st0" d="M1015.99,1880.01l-2.9,8.08-108.05,109.4c-17.02-5.29,5.9-17.52,12.01-23.44,29.73-28.8,60.36-64.04,91.94-90.06,2.26-1.86,3.23-4.85,6.99-3.99Z"/>
  <path class="st0" d="M2222.01,1376.01l9.09,1.89,107.02,107.04c4.22,2.59-1.09,9.42-4.12,8.12l-111.99-117.05Z"/>
  <path class="st0" d="M511.99,673.99l-8.08-2.9-108.11-108.08c-2.34-6.84,1.1-9.14,7.3-5.11,13.75,8.93,36.24,38.3,48.85,51.15,15.94,16.25,44.81,40.04,57.14,56.86,2.01,2.74,3.77,4.04,2.9,8.08Z"/>
  <path class="st0" d="M1409.86,1147.83c-27.84,14.63-57.11,22.49-88.95,20.25-12.24-.86-16.1-5.2-5.46-13.77,30.74,5.24,63.49-2.27,89.56-18.28l4.86,11.8Z"/>
  <path class="st0" d="M1681.42,356.43c4.67-1.09,11.32-1.72,14.54,2.57l-65.92,66.07c-3.44,1.55-9.01-4.64-9.5-8.11.24-2.78,30.54-30.88,35.52-35.91,6.48-6.54,16.12-22.48,25.36-24.62Z"/>
  <path class="st0" d="M1424.02,1163.99l-1.67-11.63c19.86-13.14,33.23-32.19,43.36-53.65,4.45-9.43,7.31-33.63,17.91-16.17-4.87,17.57-11.25,33.29-21.97,48.11-4.36,6.02-31.11,37.78-37.63,33.33Z"/>
  <path class="st0" d="M1226.02,966.01c16.53,1.63,9.98,11.13,9.88,20.91-.28,27.2,5.95,52.81,20.05,76.1-10.82,9.48-13.16.85-17.66-8.3-13.24-26.89-17.2-59.12-12.27-88.7Z"/>
  <path class="st0" d="M1311.44,897.4c-24.91,17.75-42.23,44.98-49.53,74.52l-8.03-.79c-6.06-4.15,4.52-25.56,7.07-31.18,7.24-15.92,22.68-36.65,36-48,10.05-8.56,18.28-12.72,14.49,5.45Z"/>
  <path class="st0" d="M2315.99,577.99c-8.44-.03-15.34-2.04-22.04-6.94-19.63-14.35-36.7-43.79-57.05-59.11l-.13-3.97c1.95-5.03,5.29-8.35,10.36-4.11l68.86,74.12Z"/>
  <path class="st0" d="M1423,882l2.74,4.67c-1.09,2.53-2.19,6.02-5.07,7-7.44,2.54-30.3-.42-41.12.88-17.25,2.08-34.91,10.36-50.51,17.44l-2.72-11.7c9.03-3.12,18.23-8.77,27.14-11.82,5.23-1.79,18.98-6.47,23.53-6.47h46Z"/>
  <path class="st0" d="M1510,1082l-12.08-3.33c3.06-33.95-2.8-63.38-18.01-93.51,2.93-2.81,8.04-4.44,11.1-1.19,4.55,4.83,19,42.6,19,49.04v49Z"/>
  <path class="st0" d="M1316.01,1130.01l-2.21,9.77c-22.04-1.41-44.2-13.53-60.85-27.74-4.75-4.05-20.14-18.59-23.05-22.95-4.74-7.09,3-12.33,8.04-10.2,3.89,1.64,14.06,16.59,19.01,21.15,15.03,13.81,39.09,25.76,59.06,29.97Z"/>
  <path class="st0" d="M1507.98,967.97c-15.61,6.95-23.2-14.06-35.32-23.63-7.75-6.11-22.29-14.32-31.29-18.71-9.83-4.79-26.67-3.19-19.23-17.55,21.72,4.38,43.02,14.68,59.89,28.89,4.66,3.92,21.38,19.76,24.08,23.92,1.56,2.41,2.54,4.03,1.88,7.07Z"/>
  <path class="st0" d="M418,1472.02c7.61-.32,15.64.39,22.11,4.87,18.02,12.45,35.85,43.32,54.79,57.24,5.94,5.34-.15,18.94-6.94,10.91l-69.96-73.01Z"/>
  <path class="st0" d="M1728,2039l-4.97,2.99c-3.62-2.34-2.84-5.35-3.13-8.89-4.04-50.32,3.65-104.62,2.11-155.09,1.86-.86,5.99,1.77,5.99,2.99v158Z"/>
  <path class="st0" d="M1107.29,1641.29c-7.57,8.19-18.95,17.12-27.35,25.65-12.26,12.46-18.42,30.01-39.94,25.04l64.01-67.11c4.07-2.25,7.45,3.51,9.84,6.41.26,1.6-5.01,8.33-6.56,10.01Z"/>
  <path class="st0" d="M2384,664v7.99c-54.11.91-108.06-.86-161.99-2-.86-1.86,1.77-5.99,2.99-5.99h159Z"/>
  <path class="st0" d="M1722,36c1.12,4.66-.9,3.3-2.53,4.58-2.43,1.91-12.43,8.61-14.7,8.87l-88.78-3.44v-10.01h106.01Z"/>
  <path class="st0" d="M2356,1380c-6.2-3.95-10.58-12.11-13.06-18.92l2.93-85.95,10.12-3.13v108Z"/>
  <path class="st0" d="M2035.99,1351.99l-69.07-65.99c-1.44-3.32,8.79-11.52,12.18-6.12,8.86,13.2,53.68,47.44,56.49,59.54.95,4.11.33,8.43.41,12.57Z"/>
  <path class="st0" d="M700.02,696l67.83,68.72-5.82,6.35c-2.69,1.19-6.13-2.53-8.08-4.04-17.84-13.82-34.03-37.37-52.06-51.92l-1.87-19.11Z"/>
  <path class="st0" d="M1116,331c.32-1.11,10.27-11.03,11.99-8.99.58,21.63-.71,43.43-.07,65.07.19,6.53,6.21,28.22-1.18,30.68-2.94.98-10.74.07-10.74-2.77v-84Z"/>
  <path class="st0" d="M675,1276c-1.49-.42-9.54-9.59-11-11.98,22.3-.62,44.77.74,67.08.06,5.91-.18,24.43-5.39,28.05-.23,2.11,3.01.82,12.14-2.13,12.14h-82Z"/>
  <path class="st0" d="M2288,642.02c-1.5,1.15-8.83,7.77-9.43,7.91-18.11,4.05-31.59-.73-52.53,9.11-16.52,7.76-24.29,23.4-42.02,26.96-2.89-3.48,16.47-22.22,19.96-25.02,23.4-18.8,54.89-24.16,84.02-18.96Z"/>
  <path class="st0" d="M513,690c-17.73-2.4-43.84-18.92-56.02-31.98-2.32-2.48-9.49-10.28-7.95-14.05,19.36,5.72,29.62,22.53,49.61,30.39,19.19,7.54,34.33,2.32,51.36,11.67.54.78-2.64,3.97-3,3.97-10.24,0-24.47,1.29-34,0Z"/>
  <path class="st0" d="M1702,206v-35c0-17.98,22.5-48.35,35.97-60.03,2.32-2.01,6.93-6.15,10.05-5.95.51,13.97-10.04,18.01-16.85,27.15-9.02,12.1-16.22,26.26-18.65,41.35-1.72,10.69,3.05,28.46-10.52,32.48Z"/>
  <path class="st0" d="M986,1943.98c2.09-15.46,14.94-21.9,22.82-34.15,5.15-8,10.55-20.12,12.62-29.38,2.94-13.16-1.1-31.03,10.54-38.45,5.35,29.27-2.23,58.99-20.96,82.02-2.69,3.31-21.51,22.87-25.02,19.96Z"/>
  <path class="st0" d="M2287.99,1405.99c-17.53-2.9-27.08-19.44-43.24-27.74-18.63-9.57-30.68-7.19-49.31-10.7-1.29-.24-13.29-4.52-9.45-7.54,30.53-6.02,63.21,4.05,86.02,24.97,2.29,2.1,17.84,19.26,15.97,21.01Z"/>
  <path class="st0" d="M1749.99,1944.01c-2.94,3.53-7.68-9.76-7.88-11.13-3.55-24.38-.27-37.77-15.24-60.75-6.33-9.71-19.95-17.41-18.86-30.12,1.81-2.1,17,11.76,19.01,13.97,20.83,22.89,29.04,57.83,22.97,88.03Z"/>
  <path class="st0" d="M984,107c.19-.74,3.4-3.56,3.98-3,7.28,20.44,4.39,41.11,13.64,61.38,7.36,16.13,22.76,24.94,26.41,41.59-3.86,1.52-11.44-5.58-14.05-7.95-10.88-9.87-29.98-39.77-29.98-54.02,0-9.02-1.75-31.1,0-38Z"/>
  <path class="st0" d="M933.99,741.99l-63.95-62.99,6.96-6.97,53.01,50.96c3.92,5.54,4.38,12.46,3.98,19Z"/>
  <path class="st0" d="M448,1408c-3.98-3.16,8.03-7.06,9.53-7.47,14.86-4.08,28.45-1.54,44.45-7.55,19.95-7.49,28.13-22.8,46.99-29.01,1.9,7.51-13.26,20.25-19.14,24.86-8.67,6.8-32.42,19.17-42.83,19.17h-39Z"/>
  <path class="st0" d="M1802.02,1306l61.09,62.02c2.26,4.4-3.78,8.8-7.71,7.77l-51.51-50.67-1.87-19.11Z"/>
  <path class="st0" d="M1964,916v12h-79c-.81,0-9.9-9.77-11-12h90Z"/>
  <path class="st0" d="M1476,1620l-8.84,1.81-3.16-2.81v-76c0-.88,9.25-12.31,12-13v90Z"/>
  <path class="st0" d="M1124.01,1199.99l1.89-9.09c26.34-22.27,49.75-54.5,76.08-75.91,6.89-5.6,10.28-.52,6.11,6.11l-76.01,75.99-8.08,2.9Z"/>
  <polygon class="st0" points="1609.99 848.01 1610.56 855.4 1533.1 934.1 1525.99 935.01 1525.97 928.97 1609.99 848.01"/>
  <path class="st0" d="M1255.68,978.32c.18,12.08.73,24.22,2.87,36.14,2.43,13.48,9.81,25.94,12.56,37.5,1.73,7.29-6.46,8.5-10.88,2.82-9.26-11.91-19.86-63.45-15.94-77.48,1.65-5.89,7.59.27,11.39,1.02Z"/>
  <path class="st0" d="M1490,1074c-17.69,1.11-10.9-21.76-12.51-34.49-2.01-15.88-10.6-30.61-13.65-46.23l6.87-2.9c4.73.86,10.26,17.14,11.85,22.05,1.53,4.69,7.43,25.32,7.43,28.57v33Z"/>
  <polygon class="st0" points="1086 1458.02 1023.98 1521.12 1020.02 1521.12 1014.05 1515 1068.09 1461.09 1086 1458.02"/>
  <path class="st0" d="M1419.27,926.41c10.16-1.96,70.73,38.08,68.73,46.53-.28,1.19-4.57,3.92-5.97,4.29-4.95,1.28-18-13.48-23.07-17.19-13.14-9.61-27.64-17.31-42.92-23.07-4.59-2.79-.69-9.81,3.23-10.56Z"/>
  <path class="st0" d="M1399.98,1120l-.45,11.48c-19,8.23-41.57,15.73-62.44,16.59-3.94.16-18.22,1.2-19.08-3.14-2.35-11.78,17.3-8.25,22.97-8.96,21-2.65,39.35-8.72,59.01-15.97Z"/>
  <path class="st0" d="M1246.01,1074.02c12.86-6.49,23.07,10.25,33.33,17.64,13.2,9.51,25.28,12.68,38.07,19.92,6.41,3.63,5.25,8.45-.87,10.12-9.72,2.66-45.97-21.27-54.57-28.68-2.71-2.34-17.81-16.44-15.97-19Z"/>
  <path class="st0" d="M1317.98,904.01c6.46,13.07-5.05,16.38-11.92,25.05-3.72,4.7-7.73,10.02-10.9,15.1-6.01,9.64-10.88,26.22-16.21,33.81-2.67,3.8-8.51-1.43-9.06-5.02-1.49-9.64,20.75-43.63,28.06-52,2.43-2.78,17.49-18.76,20.03-16.94Z"/>
  <path class="st0" d="M1416,902c2.09,17.61-19.87,11.04-32.45,12.55-15.38,1.85-35.07,12.92-46.55,13.49-8.01.4-1.21-9.36,3.59-12.45,6.07-3.91,37.71-13.59,44.41-13.59h31Z"/>
  <path class="st0" d="M1650,589.98l58.91-60.1c5.02-4.54,13.52.9,9.21,7.18-11.34,16.53-38.36,33.94-51.01,51.05l-17.11,1.87Z"/>
  <path class="st0" d="M1192,972v8h-120c-.81-2.32.88-8,3-8h117Z"/>
  <path class="st0" d="M448.01,1476.01c4.15.33,8.94-.73,12.95.03,10.21,1.94,38.44,41.29,49.16,48.9l1,5.04-6.12,5.97-56.99-59.94Z"/>
  <path class="st0" d="M1412,731l3-2.96c.93,1.28,5,4.34,5,4.96v114l-3.03,2.99-4.97-2.99v-116Z"/>
  <path class="st0" d="M1664,1070.02c-1.63,7.54-8.17,7.52-14.93,8.06-24.24,1.93-76.71,2.76-100.17.03-5.46-.63-9.22-2.45-5.88-8.11l120.99.03Z"/>
  <path class="st0" d="M2285.99,571.99c-4.15-.33-8.94.73-12.95-.03-9.25-1.76-38.86-40.14-48.13-48.03-1.33-7.61.52-12.99,8.19-8.02,6.43,4.17,44.36,42.86,49.91,50.09,1.54,2.01,3.88,2.54,2.98,6Z"/>
  <path class="st0" d="M1463.53,1072.53c5.79,5.62-10.82,33.22-14.7,39.31-8.52,13.39-18.3,23.34-29.83,34.13-12.2-10.8,11.01-26.12,18.62-37.34,7.97-11.75,13.87-25.2,18.48-38.58l7.42,2.48Z"/>
  <path class="st0" d="M1120,1996h-82c1.56-7.94,7.5-11.4,14.88-12.12,19.96-1.96,43.48,1.46,63.84.4,4.63,1.52,3.21,7.83,3.28,11.72Z"/>
  <path class="st0" d="M1322,1200v120c-3.63,1.68-8-6.81-8-9v-111h8Z"/>
  <path class="st0" d="M396,696c8.75-.21,11.4,5.2,12.12,12.88s1.13,59.49-.38,63.87c-1.11,3.21-9.89,6.87-11.74,2.26v-79Z"/>
  <path class="st0" d="M1139.99,1615.99c-3.47.9-4-1.44-6-2.98-14.46-11.1-27.08-32.27-41.72-44.39l-1.34-4.66,8.08-7.93,39.96,42,1.03,17.95Z"/>
  <path class="st0" d="M1554.02,1590.02c18.11.64,39.17-1.34,56.94,2.02,5.46,1.03,8.91,7.7,13,10.96-1.9,2.91-3.84,2.76-6.86,3.1-18.8,2.07-42.14-4.78-61.82-2.39l-2.44-3.81,1.18-9.89Z"/>
  <path class="st0" d="M802,1210v43c0,.86-2.68,16.19-3.02,16.98-.41.94-9.2,9.67-10,10.01-4.53.84-2.75-1.97-2.97-4.95-1.53-20.78,4.55-43.66,1.99-65.04h14.01Z"/>
  <path class="st0" d="M1596.01,434.01c3.47-.9,4,1.44,6,2.98,5.13,3.94,35.53,36.04,38.86,41.14,1.24,1.89,3.27,4.19,2.81,6.58-3.18,4.13-5.35,9.13-10.74,5.42-12.47-8.58-24.22-27.91-35.9-38.16l-1.03-17.95Z"/>
  <path class="st0" d="M1957.99,1252.01c.9,3.47-1.44,4-2.98,6-5.47,7.12-17.96,18.61-24.98,25.01-4.72,4.3-14.7,14.07-18.97,17.04-1.74,1.21-2.74,3.41-5.11,1.01l-5.12-11.09c11.33-4.77,33.35-36.25,42.21-37.94,4.57-.87,10.19.41,14.95-.03Z"/>
  <path class="st0" d="M860,1132h-88l-1.99-9.99c15.65-.35,31.4.39,47.08.07,15.85-.32,32.55-8.86,42.92,9.92Z"/>
  <path class="st0" d="M915.99,106.01c2.42,16.39-1.4,14.67-10.02,22.96-6.29,6.05-36.58,38.7-41.06,39.14-3.24.32-9.38-2.87-7.96-6.1l59.05-55.99Z"/>
  <path class="st0" d="M1260,428h10.01c.35,16.31-.48,32.75-.09,49.08s8.02,28.98-9.92,40.92v-90Z"/>
  <polygon class="st0" points="1190 782.02 1199.03 781.81 1279.99 864.97 1273.34 867.69 1190 782.02"/>
  <path class="st0" d="M2338,1272v82c-7.94-1.56-11.4-7.5-12.12-14.88-2.04-20.77,2.45-43.03,2.41-63.84l2.95-3.05,6.76-.24Z"/>
  <path class="st0" d="M776,795.98l46.9-46.08c4.72-6.64,13.36,5.52,12.24,8.1-10.83,4.99-33.81,36.36-42.18,37.95-5.12.98-11.6-.51-16.96.02Z"/>
  <path class="st0" d="M1182.01,445.99l-.3,10.73-2.62,2.77c-21.15-7.29-55.91,10.04-67.11-14.47l70.03.97Z"/>
  <path class="st0" d="M1820.02,1944c.83-4.48-1.52-14.29.41-17.59.33-.57,4.78-2.51,6.63-4.3,7.07-6.9,35.85-38.8,40.98-41.18,5.13-2.37,11.41,2.43,9.07,7.05l-57.09,56.02Z"/>
  <path class="st0" d="M1945.99,839.99l-14.02-3.02c8.14-23.14-9.69-54.93,16.01-68.97l-1.99,71.99Z"/>
  <path class="st0" d="M1696,54c-1.56,7.94-7.5,11.4-14.88,12.12-21.23,2.09-42.67-3.14-63.89-2-1.94-.56-4.04-9.13-.23-10.12h79Z"/>
  <path class="st0" d="M1485.3,1204.7c16.06,15.59,41,39.6,54.7,56.3,1.85,2.26,4.86,3.22,3.99,6.99l-9.09-1.89-76.99-77.01-1.89-7.09c2.22-.27,3.96-.07,5.99.99s19.8,18.3,23.3,21.7Z"/>
  <path class="st0" d="M1517.99,1267.99l-11.1-1.88c-6.52-8.97-65.85-62.51-64.88-67.08.55-2.61,3.45-2.96,6.13-2.21,4.43,1.24,59.67,56.63,65.86,64.18,1.85,2.26,4.86,3.22,3.99,6.99Z"/>
  <path class="st0" d="M1219.03,780c3.76-.78,13.63,8.11,16.99,10.97,18.76,15.96,35.26,37.62,54.07,53.93l-.1,8.12c-2.3,1.35-6.3-2.58-8.05-3.97-22.01-17.47-41.99-45.58-63.96-64.05-3.21-1.65-.51-4.67,1.04-5Z"/>
  <path class="st0" d="M1395.99,1104.01c.24,3.54.57,6.08-1.98,9-5.47,6.29-49.44,16.49-59.1,17.01-17.1.91-9.09-11.8-3.59-13.69,4.97-1.71,16.23.1,23.16-.84,14.72-2,27.13-11.16,41.51-11.48Z"/>
  <path class="st0" d="M1262.01,981.99c19.19-.78,12.72,17.57,14.51,30.49,1.53,11.03,10.67,25.24,11.46,32.69.39,3.73.36,6.49-3,8.82-6.59,1.35-15.99-26.82-17.53-32.43-1.48-5.4-7.72-37.32-5.43-39.56Z"/>
  <path class="st0" d="M1325.98,920.01c6.53,16.42-.62,14.1-7.06,21.91-3.4,4.12-6.92,9.65-9.75,14.25-5.08,8.25-9.14,22.6-13.37,28.62-1.95,2.78-3.12,3.83-6.76,3.2-5.09-3.4-1.91-9.67-.45-14.42,2.11-6.85,30.35-58.72,37.4-53.56Z"/>
  <path class="st0" d="M933.99,715.99c-3.47.9-4-1.44-6-2.98-15.45-11.85-29.57-32.36-45.07-45.01-1.12-2.59,5.53-8.07,8.08-8.07,5.55,0,37.82,38.22,42.96,45.11l.03,10.95Z"/>
  <path class="st0" d="M1447.99,1062c3.98,3.94-9.49,31.54-12.39,36.6-2.64,4.6-22.27,34.69-27.59,29.41-4.61-16.14,1.75-13.08,8.08-20.9,5.75-7.11,11.36-16.25,15.66-24.36,4.39-8.27,4.19-23.31,16.23-20.76Z"/>
  <path class="st0" d="M1407.31,944.23c12.81-3.99,56.04,25.16,64.65,36.77-13.44,12.55-22.03-6.01-34.12-13.84-5.96-3.85-33.03-14.4-33.83-18.19l3.3-4.74Z"/>
  <path class="st0" d="M1458,1620l-8.75,1.88-3.25-2.88v-58c0-3.12,8.35-10.34,12-11v70Z"/>
  <path class="st0" d="M1802.01,1334.01c3.47-.9,4,1.44,6,2.98,14.79,11.34,28.25,30.94,43.11,43.03l.72,2.7c-3.46,3.95-5.41,9.18-10.91,5.4-12.96-8.91-24.54-28.78-37.05-39.01l-1.88-15.1Z"/>
  <path class="st0" d="M1296,1200c3.79-1.37,8,1.29,8,5v97c-2.32.81-8-.88-8-3v-99Z"/>
  <path class="st0" d="M1267.31,1064.3c11.67-3.74,17.68,9.22,26.04,15.34,8.93,6.53,29.09,12.27,33.74,16.26,5.15,4.42,3.68,10.54-3.58,9.76-10.02-1.07-38.84-17.93-47.34-24.83-3.15-2.55-17.57-13.74-8.86-16.53Z"/>
  <path class="st0" d="M1646,1088l-.02,2.97c-1.24.96-4.37,5.03-4.98,5.03h-97c-.81-2.32.88-8,3-8h99Z"/>
  <path class="st0" d="M1471.99,1067.99c-16.25-.55-10.82-16.65-12.89-28.09-1.65-9.11-13.13-35.52-13.05-38.95.07-3.24,2.96-4.95,4.95-6.92,12.67,5.53,25.84,68.97,20.99,73.96Z"/>
  <path class="st0" d="M1964,934v12h-61c-.73,0-7.23-7.67-8.98-9.03l-.02-2.97h70Z"/>
  <path class="st0" d="M1409.99,920.01c.5,17.15-15.65,10.84-28.1,12.89-6.25,1.03-15.61,4.07-21.85,6.15-4.19,1.39-19.48,12.33-22.03,3.93-2.22-7.3,20.05-14.66,25.55-16.41,14.88-4.73,30.8-7.41,46.43-6.56Z"/>
  <path class="st0" d="M1717.03,1384.01c2.66-.66,5.96,0,8.08,1.89l58.99,59.01c2.3,2.4,3.13,6.31-.1,8.12-4.07,2.29-60.6-57.52-68.01-64.02-3.15-1.55-.56-4.6,1.03-4.99Z"/>
  <path class="st0" d="M1607.03,874.01l4.97,3.03-1.9,6.07c-9.24,6.7-64.36,67.87-69.07,66.89-1.41-.29-4.59-4.22-2.07-6.02l68.07-69.96Z"/>
  <path class="st0" d="M1195.99,1100.01c.87,4.04-.89,5.34-2.9,8.08-9.53,13-49.13,53.28-62.09,63.91-2.26,1.85-3.22,4.86-6.99,3.99l1.88-11.1c21.16-16.45,41.25-46.76,62.02-61.98,2.74-2.01,4.04-3.77,8.08-2.9Z"/>
  <path class="st0" d="M770.01,1014.01c23.66-.29,47.39.32,71.07.09,3.19-.03,26.43-4.77,24.91,2.87-.58,2.94-5.91,4.73-8.89,5.13-15.58,2.06-64.3,1.84-80.2,0-5.87-.68-7.68-1.65-6.89-8.09Z"/>
  <path class="st0" d="M1370,429l4.97-2.99c2.01,1.36,2.59,2.66,3.02,5,2.87,15.85-.17,48.07-.08,66.06.04,8.53,2.43,17.39.08,26.92-1.8-.48-7.98-6.47-7.98-7v-88Z"/>
  <path class="st0" d="M1311.42,1174.44c14.23-3.26,34.57,6.15,49.33,1.7,4.58,1.17,5.56,10.53-1.76,11.85-11.37,2.06-31.31-.46-44.08-.09-5.76.17-18.46,5.78-13.4-5.37,1.74-3.83,5.8-7.16,9.9-8.1Z"/>
  <path class="st0" d="M1019.99,663.99l-11.1-1.88c-6.2-8.39-61.77-58.79-60.88-63.08.45-2.18,3.3-3.47,6.02-2.07,1.28.66,17,15.28,20,18.01,12.47,11.37,31.56,29.32,41.98,42.02,1.85,2.26,4.86,3.22,3.99,6.99Z"/>
  <path class="st0" d="M1057.99,1458.01c.9,3.47-1.44,4-2.98,6-12.07,15.74-33,30.27-46.01,45.93l-6.12-5.97c-1.86-2.33-.22-3.27,1-5.04,2.17-3.16,36.62-37.68,39.01-39.05,5.03-2.88,9.49-1.96,15.1-1.88Z"/>
  <path class="st0" d="M1253.99,1136l-7.09-1.89-42.86-41.1c21.46-16.47,35.67,24.87,51.04,35.08l-1.1,7.92Z"/>
  <path class="st0" d="M1301.99,861.99c6.45,22.18-24.38,33.59-36.01,49-4.94,2.75-11.41.58-9.69-5.66,1.81-6.58,34.28-31.32,38.61-41.43l7.09-1.91Z"/>
  <path class="st0" d="M1205.14,958.05c21.3,1.98,10.12,34.51,9.05,49.16-.23,3.2,2.15,6.5,1.51,9.4-1.16,5.32-10.19,8.75-11.69.38-2.18-12.15-.69-38.5-1.17-53.02-.09-2.82-1.34-3.88,2.29-5.93Z"/>
  <path class="st0" d="M1434.02,1187.99c-9.38-22.97,24.69-34.81,36.04-51.09l9.07,3.06c1.34,2.27-2.78,6.4-4.08,8.09-4.74,6.16-29.4,32.45-35,36.99-2.01,1.62-2.66,3.78-6.02,2.95Z"/>
  <path class="st0" d="M1676,589.98l48.02-49.09c4.62-2.34,9.42,3.94,7.05,9.07-1.13,2.44-35.62,36.81-37.96,38.15-5.53,3.17-10.95,1.75-17.11,1.87Z"/>
  <path class="st0" d="M2322,1270v63l-3,2.96c-1.32-1.8-9-8.19-9-8.96v-57h12Z"/>
  <path class="st0" d="M1529.99,1027.99c-2.77,19.55,4.68,42.17,2.01,61.04-1.04,7.34-12.75-1.66-13.67-4.37-4.31-12.63,3.14-39.26,1.95-53.39l9.71-3.28Z"/>
  <path class="st0" d="M1278,498v-70l10.13.88c6.05,4.15-2.07,50.49-.17,60.08-.77,4.05-5.45,9.36-9.95,9.05Z"/>
  <path class="st0" d="M842,1114h-69l-2.06-1.93c-3.09-8.9.23-9.55,7.97-10.17,17.44-1.39,34.61,3.32,52.05,2.15l11.05,9.95Z"/>
  <path class="st0" d="M1191.99,959.99l-100.98,2.02c-3.34-5.66.43-7.48,5.88-8.11,16.65-1.94,38.64.65,56.19.19,10.26-.27,39.77-9.05,38.91,5.91Z"/>
  <path class="st0" d="M1434.01,860.01c-.54,26.6-43.33,8.47-60.66,12.07-2.23-.52-6.23-11.64-.38-10.08l61.05-1.99Z"/>
  <path class="st0" d="M1485,912.04c8.75,13.19,37.54,29.57,44.04,41.93,3.91,7.44-9.09,6.44-13.15,5.13-4.28-1.38-34.9-35.51-35.68-38.49-1.04-4.03,2.15-6.15,4.79-8.57Z"/>
  <polygon class="st0" points="1678 70 1671 82 1615 82 1612.48 79.08 1614 70 1678 70"/>
  <path class="st0" d="M1746,2039c-1.18,4.14-9.51,4.69-9.9-1.81-.14-2.28,1.9-6.47,2-10.11.72-27.06-1.77-54.24,1.92-81.08,1.46.06,5.98,4.61,5.98,5v88Z"/>
  <path class="st0" d="M2383.99,655.99l-78.97-2.01-15-4.95c2.34-3.53,5.35-2.87,8.88-3.14,25.76-1.97,54.05,1.67,80.11.1,5.66.44,5.34,5.21,4.99,9.99Z"/>
  <path class="st0" d="M1437.82,748.21l2.18,94.79c-.88,4.94-3.2,5.57-7.99,4.99l-2.03-97.01c1.04-6.14,3.27-4.49,7.84-2.77Z"/>
  <path class="st0" d="M1965.99,1033.99l-97.99,1.99c-.32-.24,2.79-6.24,3.99-6.99,8.06-5.07,74.48,1.78,89-.97l5,5.98Z"/>
  <path class="st0" d="M1364,1622h-5.99c2.07-4.84-2.01-12.32-2.01-15v-81l2.97.02c.96,1.24,5.03,4.37,5.03,4.98v91Z"/>
  <path class="st0" d="M1754.01,107.99c-.87-4.04.89-5.34,2.9-8.08,14.24-19.42,42.61-38.21,57.99-58.01,6.64-4.17,11.72-.78,6.11,6.11-6.2,7.63-16.61,16.94-23.96,24.04-8.91,8.6-26.28,26.67-34.96,33.04-2.74,2.01-4.04,3.77-8.08,2.9Z"/>
  <path class="st0" d="M979.98,1940l-1.87,9.11-59.05,59.01c-2.59,4.22-9.42-1.09-8.12-4.12l69.04-64Z"/>
  <path class="st0" d="M1003.03,1372.01l4.97,3.03-1.9,6.07c-8.66,6.38-60.64,63.81-65.07,62.89-1.41-.29-4.6-4.22-2.07-6.02l64.07-65.96Z"/>
  <polygon class="st0" points="451.99 637.99 442.9 636.1 382.88 573.98 382.17 571.28 387 566.03 451.99 637.99"/>
  <path class="st0" d="M1795.99,606.01c.87,4.04-.89,5.34-2.9,8.08-7.14,9.74-48.38,52-58.09,59.91-2.26,1.84-3.22,4.86-6.99,3.99-.43-4.33-.33-7.2,1.88-11.1,2.05-3.6,52.8-54.15,58.02-57.98,2.74-2.01,4.04-3.77,8.08-2.9Z"/>
  <path class="st0" d="M1820.01,1917.99c-.08-5.61-1-10.07,1.88-15.1,1.23-2.15,32.19-33.04,35.05-35.01,1.77-1.21,2.71-2.86,5.04-1l5.97,6.12c-14.31,11.89-27.56,30.99-41.93,42.01-2.01,1.54-2.54,3.88-6,2.98Z"/>
  <path class="st0" d="M872.04,183.99l-3.19-9.94,45.13-44.04c-1.14,4.29,2.54,10.41,1.08,13.95-1.03,2.49-34.56,35.73-38.01,38.09-1.68,1.15-2.09,2.74-5,1.94Z"/>
  <path class="st0" d="M1007.99,1348.01c.87,3.77-2.13,4.74-3.99,6.99-20.47,24.86-50.38,47.29-70.9,73.09-7.83,3.76-10.79,1.57-5.1-5.1,14.17-16.59,55.61-60.11,71.91-72.09,2.74-2.01,4.04-3.77,8.08-2.9Z"/>
  <path class="st0" d="M474,1478.02c4.97.56,8.67-3.04,13.03-.22,3.41,2.21,34.57,33.47,37.09,37.13,3.98,5.81-2.65,10.59-8.08,8.13-2.81-1.28-44.49-43.17-42.04-45.05Z"/>
  <path class="st0" d="M1728.02,702l2.88-8.1c24.69-18.97,45.66-52.38,69.05-70.95,1.76-1.4,5.75-5.31,8.05-3.97l.03,6.05-80.01,76.97Z"/>
  <path class="st0" d="M884,996c.43,6.37-4.37,5.73-8.89,6.11-33.05,2.75-70.31-1.98-103.76-.45l-3.35-5.65h116Z"/>
  <path class="st0" d="M2259.99,571.99c-4.93.25-8.54.72-13.1-1.88-10.8-6.16-27.16-31.04-38.84-39.11l5.97-6.12h3.96s27.04,27.09,27.04,27.09l14.96,20.02Z"/>
  <path class="st0" d="M2284.01,1412.01l9.09,1.89,57,59c4.31,16.54-6.71,5.98-12.15.15-11.57-12.4-22.09-25.83-34.98-37.02l-18.96-24.02Z"/>
  <path class="st0" d="M1396,426v114c-6.37.43-5.73-4.37-6.11-8.89-2.7-32.41,1.93-68.96.45-101.76l5.65-3.35Z"/>
  <path class="st0" d="M350,1402v-7.99c17.04-1.72,34.36,1.41,50.92,2.07,12.27.49,28.75-1.83,40.1-.1,1.87.29,5.76,1.53,4.02,4.02-3.78,5.54-7.81,1.99-10.03,1.99h-85Z"/>
  <path class="st0" d="M1286,1284c-2.32.81-8-.88-8-3v-78l3.03-2.99,4.97,2.99v81Z"/>
  <path class="st0" d="M1628,1106l-.02,2.97c-1.24.96-4.37,5.03-4.98,5.03h-79v-8h84Z"/>
  <path class="st0" d="M1338,1523c.31-3.69,3.93-9.66,2.02-15,1.28-.15,3.98,2.66,3.98,3v110l-3,2.96-3-2.96c1.98-31.78-2.67-66.61,0-98Z"/>
  <path class="st0" d="M990,8h7.99c1.13,31.47-3.42,62.49-2,93.99-9.65-.98-5.99-5.24-5.99-8.99V8Z"/>
  <polygon class="st0" points="1192 936 1190 944 1111 944 1108.01 940.97 1111 936 1192 936"/>
  <path class="st0" d="M1456,766v82l-6.11-.89c-1.93-1.63-1.73-3.79-1.99-6.01-1.48-12.8-1.92-60.23.08-72.12,1.11-6.57,3.3-3.9,8.02-2.98Z"/>
  <path class="st0" d="M1966,1048v5.99c-28.23.66-56.47-.29-84.66-1.24-8.93-.3-13.67,2.03-24.47-.7-3.37-.85-5.82,2.02-4.87-4.05h114Z"/>
  <path class="st0" d="M1692.99,1384.05c.79-.01,5.66,3.82,7.06,4.9,15.09,11.7,59.23,55.92,70.96,71.03,1.65,2.13,5.64,4.54.99,7.03-4.92,2.64-70.08-71.77-80.01-78.02-3.35-1.52-.07-4.94,1-4.95Z"/>
  <path class="st0" d="M1303.99,839.99l-9.09-1.89-52.86-55.1c2.07-2.58,3.08-3.65,6.62-2.69s48.58,46.34,52.43,51.6c2.01,2.74,3.77,4.04,2.9,8.08Z"/>
  <path class="st0" d="M1043.99,663.99c-4.03.86-5.34-.87-8.08-2.9-11.78-8.71-62.29-59.22-71-71-2.02-2.74-3.76-4.05-2.9-8.08l81.98,81.98Z"/>
  <path class="st0" d="M1609,898.04c2.78,2.07,3.43,3.4,3.02,6.93-.98,8.41-49.92,45.82-57.02,56.99l-4.96-4.96,58.96-58.96Z"/>
  <path class="st0" d="M1333.98,940.01c6.93,14.97-4.05,18.49-10.37,28.6-4.79,7.66-7.65,16.5-9.77,25.22l-7.94-.74c-5.23-3.4,7.91-29.98,10.98-35.21,1.91-3.25,13.34-20.55,17.1-17.87Z"/>
  <path class="st0" d="M1122,1968v10h-66c.86-1.78,6.36-10,7-10h59Z"/>
  <path class="st0" d="M1124.01,1149.99l1.88-11.1c7.46-5.23,51.41-51.64,55.08-50.88,1.41.29,4.6,4.22,2.07,6.02l-59.03,55.96Z"/>
  <path class="st0" d="M424,780l-10-2v-64l2.97.02c1.17,1.49,7.03,6.32,7.03,6.98v59Z"/>
  <path class="st0" d="M1282.01,990.01c18.08,0,12.64,17.98,16.11,30.87,1.29,4.79,13.29,23.3,4.85,25.11-9.72,2.09-23.71-46.75-20.96-55.98Z"/>
  <path class="st0" d="M1383.02,1084.44c2.36.16,5.76,5.31,4.87,8.32-1.57,5.3-36.56,16.42-43.12,17.04-4.34.41-9.68,1.54-12.72-2.78,6.52-15.44,21.23-9.63,35.52-14.45,4.1-1.38,14.58-8.19,15.45-8.13Z"/>
  <path class="st0" d="M1401.31,962.19c9.08-2.65,44.8,17.07,50.65,26.81-11.9,11.49-20.39-3.57-30.58-9.38-2.55-1.46-36.16-12.73-20.07-17.43Z"/>
  <path class="st0" d="M1430.01,1056c4.57,4.5-16.6,45.89-22.88,50.13-2.44,1.65-4.07,2.36-7.12,1.88-5.64-16.13,8.7-20.78,15.06-33.94,2.78-5.75,5.1-11.43,5.01-17.98l9.92-.09Z"/>
  <path class="st0" d="M1007.99,1398.01c.34,3.37-.11,6.37-1.51,9.47-2.43,5.38-47.98,49.22-51.45,48.51-1.41-.29-4.6-4.22-2.07-6.02l55.03-51.96Z"/>
  <path class="st0" d="M1491.99,1267.99l-9.09-1.89-52.89-55.07,6.65-2.72c14.99,18.22,36.67,34.81,51.34,52.69,1.85,2.26,4.86,3.22,3.99,6.99Z"/>
  <path class="st0" d="M1728.02,652l1.87-13.11,49.11-46.85c2.58,2.07,3.65,3.08,2.69,6.62-1.88,6.94-46.19,44.41-53.67,53.34Z"/>
  <path class="st0" d="M1401.99,940.01c-.14,15.83-19.34,12.11-30.11,14.87-9.41,2.41-19.68,14.1-25.86,4.03-1.43-6.44,31.62-17.46,37.45-18.43,6.14-1.02,12.36-.34,18.51-.47Z"/>
  <path class="st0" d="M848,1032l-.02,2.97c-1.24.96-4.37,5.03-4.98,5.03h-70l-2.99-3.03,2.99-4.97h75Z"/>
  <path class="st0" d="M1451.99,1059.99c-15.82-2.6-11.87-18.04-14.93-30.05-1.52-5.99-11.42-22.78-7.05-25.93,8.91-6.43,20.49,31.21,21.46,37.52.95,6.15.48,12.31.51,18.47Z"/>
  <path class="st0" d="M1335.8,1078.18c1.37,1.94.29,8.86-2.95,9.62-4.32,1.01-33.83-13.39-38.72-16.93-2.21-1.6-11.96-10.25-10.12-12.85,14.26-7.12,19.65,6.4,30.58,12.39,4.28,2.34,20.56,6.85,21.21,7.77Z"/>
  <path class="st0" d="M1360,428v76l-2.97-.02c-.96-1.24-5.03-4.37-5.03-4.98v-71h8Z"/>
  <path class="st0" d="M1802.01,1358.01c3.47-.9,4,1.44,6,2.98,3.18,2.44,30.07,30.98,31.1,33.03,1.74,3.47-.46,4.75-3.14,7.05-2.16,1.53-3.73,1.01-5.93,0-1.67-.77-25.23-24.36-26.15-25.96-3.17-5.53-1.74-10.94-1.88-17.1Z"/>
  <path class="st0" d="M931.98,692l-37.93-39,5.97-6.12c2.33-1.86,3.27-.22,5.04,1,2.41,1.66,25.14,24.48,25.9,26.16,2.39,5.27.55,12.31,1.02,17.96Z"/>
  <path class="st0" d="M824,1098h-45c-1.47,0-5.84-3.06-8.86-2.12l-.14-9.88h45c.73,0,7.23,7.67,8.98,9.03l.02,2.97Z"/>
  <path class="st0" d="M1964,952v12h-43c-1.02,0-11.55-10.43-8.99-13.99,2.18-.78,4.38,1.99,4.99,1.99h47Z"/>
  <path class="st0" d="M1440,1622c-3.89-.07-10.2,1.35-11.72-3.28,1.08-11.76-3.76-33.25,2.6-42.84.65-.99,7.55-7.8,8.12-7.84,4.93-.34,1,4.71,1,4.96v49Z"/>
  <path class="st0" d="M1424,1171.98l-58.02,1c-.19-4.35,3.79-4.33,6.69-5.31,17.21-5.81,42.33-16.88,51.33,4.31Z"/>
  <path class="st0" d="M1218,1025c.18-.72,3.31-3.51,3.98-3,1.9,13.76,15.27,37.33,9.02,50.04-1.21,2.46-8.81,5.25-10.01,9.94.14-2.98-2.99-8.82-2.99-10.99,0-10.67-2.06-37.87,0-46Z"/>
  <path class="st0" d="M1224.02,962c-2.26-3.02,36.03-43.79,38.98-43.96s2.16,2.98,1.36,5.27c-2.51,7.21-19.15,36.57-25.81,38.39-4.94,1.35-9.63-2.59-14.54.3Z"/>
  <path class="st0" d="M1303.99,1167.99c-3.47.9-4-1.44-6-2.98-6.79-5.21-28.48-24.67-33.08-30.92-2.01-2.74-3.77-4.04-2.9-8.08l35.04,17.94c7.15,6.96,7.88,14.4,6.94,24.04Z"/>
  <path class="st0" d="M1306,428v43c0,.81-9.77,9.9-12,11v-45c0-1.47,3.06-5.84,2.12-8.86l9.88-.14Z"/>
  <path class="st0" d="M1474,921.98c-2.05,1.6-33.78-15.07-37.03-17.96-4.97-4.41-9.33-16.74-6.02-22.03,2.26-3.62,3.1-.56,5.05,1,3.16,2.53,40.15,37.3,38,38.98Z"/>
  <path class="st0" d="M1929.99,1252.01c.9,3.47-1.44,4-2.98,6-8.36,10.9-23.39,21.36-33.76,29.86l-4.32-3.91c-1.53-2.16-1.01-3.73,0-5.93.71-1.54,22.47-23.3,23.96-24.15,5.53-3.17,10.94-1.74,17.1-1.88Z"/>
  <path class="st0" d="M1700.01,589.99c-1.03-3.94,1.63-3.87,3.36-5.62,10.54-10.68,22.81-20.01,32.65-31.49h3.96s5.97,6.12,5.97,6.12c-14.7,11.27-24.76,35.46-45.94,30.99Z"/>
  <path class="st0" d="M1357,876c2.9-.09,13.52-5.35,13,3.98-19.86.39-49.19,24.53-58-3.98,14.96-.33,30.03.45,45,0Z"/>
  <path class="st0" d="M1512,1088.02c-9.91,12.67-22.55,27.76-35,37.98-2.26,1.85-3.23,4.86-6.99,3.99-.68-3.5.93-5.77,2.32-8.66,2.57-5.33,16.01-28.12,19.56-30.44,6.95-4.54,12.11-2.79,20.11-2.87Z"/>
  <path class="st0" d="M1516,968v47c0,1.13,3.04,3.7,1.84,7.68l-5.83,3.32c-.03-12.76-15.37-38.4-8.17-49.16l12.15-8.84Z"/>
  <path class="st0" d="M1364,872h-49c-1.69,0-10.6-6.63-9-10h57l2.86,3.21-1.86,6.79Z"/>
  <path class="st0" d="M1376,1544c6.35,3.12,7.47,6.34,8.12,12.88,2.14,21.52-2.25,43.66-2.13,65.13h-5.99v-78.01Z"/>
  <path class="st0" d="M1886,1016c1.85-4.38,6.58-7.17,11.11-7.89,20.6-3.27,45.97,2.52,66.9,1.89v5.99h-78.01Z"/>
  <path class="st0" d="M1439.03,868.01l39.03,36.93c5.43,3.53-2.91,9.56-6.1,8.13-5.95-8.59-34.34-30.05-35.64-38.49-.55-3.56-.14-4.41,2.71-6.58Z"/>
  <path class="st0" d="M1182,476h-41c-.73,0-7.23-7.67-8.98-9.03l-.02-2.97h47l3,12Z"/>
  <path class="st0" d="M1530,964v58l-8.13-.87c-2.96-2.03-2.5-41.45-1.39-47.64.95-5.29,2.69-11.05,9.51-9.49Z"/>
  <path class="st0" d="M804,795.98l37-35.92,6.08,5.91c-8.34,14.67-23.83,34.82-43.08,30.01Z"/>
  <path class="st0" d="M1297.99,1181.99c-3.77.87-4.74-2.14-6.99-3.99-4.3-3.52-34.04-32.95-34.69-35.34-1.95-7.19,4.21-7.93,9.79-3.75,4.49,3.37,29.71,29.2,31.01,32.98,1.13,3.29,1.05,6.7.89,10.1Z"/>
  <path class="st0" d="M1916,838v-39c0-.81,9.77-9.9,12-11v49l-3.16,2.81-8.84-1.81Z"/>
  <path class="st0" d="M1033.99,1460.01c1.29,4.68-1.2,3.37-2.55,4.56-5.97,5.27-28.13,28.97-31.48,30.49-5.43,2.46-12.06-2.32-8.08-8.13,1.79-2.61,26.16-27.15,28.02-27.84,2.84-1.05,10.13,2.19,14.09.91Z"/>
  <path class="st0" d="M1742.01,1384.01l9.09,1.89c5.18,7.04,49.71,47.1,48.89,51.07-.29,1.41-4.22,4.6-6.02,2.07l-51.96-55.03Z"/>
  <path class="st0" d="M1214,1081c-.39,1.23-7.7,5.38-7.98,5,.34-9.03-5.34-56.46,0-59.99,1.7-1.13,7.98.95,7.98,2.99,0,10.08,2.03,45.63,0,52Z"/>
  <path class="st0" d="M1402,1620h-7.98c-2.4-19.24-2.24-38.59-2.01-57.99,1.75-2.05,9.99,6.38,9.99,6.99v51Z"/>
  <path class="st0" d="M1964,990v7.98c-19.24,2.4-38.59,2.24-57.99,2.01-2.05-1.75,6.38-9.99,6.99-9.99h51Z"/>
  <path class="st0" d="M994,663.98c-4.34.41-7.19.34-11.11-1.87-2.78-1.57-41.01-39.96-43.98-44.02-2.01-2.74-3.77-4.04-2.9-8.08,4.04-.87,5.34.89,8.08,2.9,16.53,12.12,34.04,36.91,49.91,51.07Z"/>
  <path class="st0" d="M1139.98,1588l-35.1-34.02v-3.96s6.12-5.97,6.12-5.97c10.99,14.09,33.53,23.35,28.98,43.95Z"/>
  <path class="st0" d="M1423,1178c1.39.39,6.63,6.56,4.99,7.99-16.6-.45-34.47,4.11-51.09,2.11-7.36-.89-7.34-2.73-6.9-10.1,13.84,2.5,40.99-3.36,53,0Z"/>
  <path class="st0" d="M1210,953.98c9.41-7.42,30.33-38.5,39.86-41.16,7.38-2.05,7.14,4.07,3.23,9.27-3.3,4.39-33.35,33.67-36,33.8-2.23.11-4.64-2.1-7.09-1.92Z"/>
  <path class="st0" d="M1404.01,1042.01c23.35,4.68,1.47,36.6-9.01,45.95-14.8-12.61,13.65-28.4,9.01-45.95Z"/>
  <path class="st0" d="M818.01,1209.99c-1.8,18.33,11.6,42-12,50l1.98-50h10.02Z"/>
  <path class="st0" d="M1431.99,1050c-15.35,1.99-12.66-15.48-16.99-26-2.21-5.37-11.7-12.66-5.85-15.87,17.25-4.73,23.45,29.72,22.84,41.87Z"/>
  <path class="st0" d="M1554.25,1574.24c18.39.78,37.13-9.82,49.71,8.76-4.18,5.82-10.85,1.1-16.87.91-10.58-.33-21.24.71-31.81-.19-4.84-1.39-1.33-6.01-1.03-9.48Z"/>
  <path class="st0" d="M1728.01,625.99c-.17-3.41-.44-6.69,1.03-9.95,1.91-4.24,26.18-29.61,30.87-33.13,2.25-1.69,3.62-3.69,7.06-2.91l2.07,6.03c-11.5,11.59-21.35,25.58-34.04,35.97-2.26,1.85-3.22,4.86-6.99,3.99Z"/>
  <path class="st0" d="M1352.02,986c-12.24-18.94,40.26-31.92,41.97-22.93,1.91,10.05-17.14,10.23-23.41,12.52-6.64,2.43-12.19,7.49-18.56,10.41Z"/>
  <path class="st0" d="M1349.99,1062.02c-1.66,23.21-46.56-4.53-45.88-11.05,10.06-11.67,17.7,2.48,27.39,6.52,5.91,2.47,12.41,2.77,18.49,4.52Z"/>
  <path class="st0" d="M1523.99,1094.01c.87,3.77-2.14,4.74-3.99,6.99-5.32,6.49-26.71,30.7-32.53,33.49-5.52,2.64-10.84,1.06-8.5-4.52.93-2.22,31.82-32.89,33.91-34.07,3.9-2.22,6.77-2.31,11.1-1.88Z"/>
  <path class="st0" d="M1329.98,1008c-23.47-2.42,4.18-47.55,10.96-46,11.09,9.46-3.36,17.91-7.35,28.59-2.04,5.45-2.64,11.69-3.61,17.41Z"/>
  <path class="st0" d="M1328,1039.98c-18.28,11.74-28.99-38.39-23.99-41.97,15.34,1.48,10.91,16.06,15.89,27.09,2.44,5.4,8,8.62,8.1,14.89Z"/>
  <path class="st0" d="M1596.02,462l35.93,35-5.97,6.12c-2.33,1.86-3.27.22-5.04-1-2.25-1.55-23.2-22.61-23.9-24.16-2.25-4.96-.68-10.79-1.02-15.96Z"/>
  <path class="st0" d="M1005.98,1422c2.36,10.58-5.61,17.62-11.93,25.05-2.87,3.38-22.58,23.42-25.02,22.94l-2.03-7.99,38.98-40Z"/>
  <path class="st0" d="M1341.99,1087.99c-1.51-15.23,9.91-10.46,19.65-13.35,6.91-2.06,14.12-8.69,18.28-9.78,2.22-.59,3.4.61,3.89,2.35,4.52,15.96-30.14,23.06-41.82,20.78Z"/>
  <path class="st0" d="M1429.7,994.26l-1.65,6.8c-9.28,6.49-28.17-17.44-40.91-13.07-3.4-.46-.31-8.26,4.29-9.62,12.37-3.65,28.49,9.73,38.27,15.89Z"/>
  <path class="st0" d="M927.28,622.17c2.35-.43,31.33,27.62,35.77,31.78,1.15,1.08,8.91,6.88,4.97,9.08-2.81,1.57-5.68,1.49-8.63.6-7-2.12-29.04-31.07-37.36-36.62l5.25-4.83Z"/>
  <path class="st0" d="M1766.01,1386.01l13.1,1.88,32.88,35.08-7.99,2.03c-9.08-11.26-22.26-20.03-32.05-29.96-2.53-2.56-6.46-4.95-5.95-9.03Z"/>
  <path class="st0" d="M1334,428l6.11.89c3.58,2.61,1.65,36.93,1.8,44.2.07,3.25,4.5,16.7-1.91,13.93-.98-1.5-6-5.33-6-6.02v-53Z"/>
  <path class="st0" d="M2238,573.98c-2.44-.18-4.86,2.02-7.09,1.92-2.73-.13-27.03-23.85-30-27.8-4.18-5.58-3.44-11.74,3.75-9.79,2.36.64,34.85,33.75,33.33,35.67Z"/>
  <path class="st0" d="M498.01,1474.01c4.33-.43,7.2-.33,11.1,1.88,1.67.95,25.81,25.14,27.08,27.09,2.51,3.89-1.24,11.25-7.24,7.08-4.35-3.03-15-14.48-18.99-19.01-1.55-1.76-13.52-15.7-11.94-17.04Z"/>
  <path class="st0" d="M2294,1273c.62-2.17,4.56-3.72,6.97-2.97,7.26,2.27.58,42.14,1.02,49.96l-7.99-1.99v-45Z"/>
  <path class="st0" d="M772,1058v-7.99c14.32-.33,28.74.38,43.09.08,3.25-.07,16.7-4.5,13.93,1.91-1.5.98-5.33,6-6.02,6h-51Z"/>
  <path class="st0" d="M1647,88c4.2.32,11.05,3.96,17,2.02.38.28-4.1,7.98-5,7.98h-45v-10c10.83.6,22.22-.83,33,0Z"/>
  <path class="st0" d="M2052,768h-44c1.01-8.35,23.05-13.67,29.48-13.51,2.73.07,15.48,9.1,14.52,13.51Z"/>
  <path class="st0" d="M1097.99,1660.01c-2.61,17.93-10.82,34.92-31.98,31.98-.9-3.47,1.44-4,2.98-6,4.26-5.56,16.42-17.4,22.01-21.99,2.26-1.85,3.23-4.86,6.99-3.99Z"/>
  <path class="st0" d="M915,154.04c2.78,2.07,3.43,3.4,3.02,6.93-.32,2.72-25.19,28.57-28.96,31.15-4.98,3.4-5.47.4-9.03-3.12l34.97-34.96Z"/>
  <path class="st0" d="M1818.01,1893.99c-.13-2.89-2.38-4.79-1.1-7.91,2.7-6.58,26.99-24.1,32.08-32.05l4.12,7.95c-10.1,8.23-19.07,21.26-29.1,29.03-2,1.55-2.55,3.87-6,2.97Z"/>
  <path class="st0" d="M1636.02,390c1.49-8.41,9.05-29.05,17.4-31.57,2.92-.88,17.8-3.42,15.6,1.58l-33,30Z"/>
  <path class="st0" d="M1624,1667c.18-.72,3.3-3.51,3.98-3,2.92,9.58,10.09,20.68,9.11,31.09-.57,6.09-8.71,8.6-9.13,14.91-.78.54-3.96-2.64-3.96-3,0-9.46-1.83-32.76,0-40Z"/>
  <path class="st0" d="M943.99,663.99c-3.52-.24-7.55.64-10.95-.03-4.48-.89-32.82-24.81-18.04-29.92,1.92,3.81,32.95,26.48,28.99,29.95Z"/>
  <path class="st0" d="M1122,1952v8h-50c-.81-2.32.88-8,3-8h47Z"/>
  <path class="st0" d="M2035.99,1325.99l-6.92-2.06-27.07-29.91c8.13-.05,25.22,7.06,29.98,13,3.6,4.49,1.45,13.34,4.02,18.96Z"/>
  <path class="st0" d="M1790,1386.02c13.23-3.64,27.11,8.68,34.12,18.92,2.73,3.98.19,8.3-3.39,8.92-2.5.44-27.97-22.72-30.73-27.84Z"/>
  <path class="st0" d="M440,778h-8v-50l2.97.02c.96,1.24,5.03,4.37,5.03,4.98v45Z"/>
  <path class="st0" d="M1728.02,602c-4.05-11.48,12.22-28.12,20.92-34.12,5.22-3.6,10.25,2,8.18,6.1-3.39,6.73-23.14,21.21-29.09,28.02Z"/>
  <path class="st0" d="M728,1282c1.1,5.82-1.7,3.19-4.4,4.51-15.64,7.69-30.17,13.4-41.6-4.51h46Z"/>
  <path class="st0" d="M731.99,755.99c-18.11-4.97-35.32-11.71-31.97-33.99,9.21,8.7,19.91,17.21,27.98,27,1.86,2.25,4.86,3.23,3.99,6.99Z"/>
  <path class="st0" d="M1110,340v44c-4.57.79-3.19-.2-4.47-2.56-4.2-7.73-10.34-23.22-6.49-31.41l10.97-10.03Z"/>
  <path class="st0" d="M1324,428v42c-2.03-.79-10-8.33-10-9v-33h10Z"/>
  <path class="st0" d="M1410,1580l2.97.02c1.17,1.49,7.03,6.32,7.03,6.98v32l-4.97,2.99c-.96-1.24-5.03-4.38-5.03-4.99v-37Z"/>
  <path class="st0" d="M1964,972l-.27,6.73-2.73,3.27h-39c.79-2.03,8.33-10,9-10h33Z"/>
  <path class="st0" d="M812,1068c-.79,2.03-8.33,10-9,10h-30c-3.77,0-3.77-10,0-10h39Z"/>
  <path class="st0" d="M1005.98,1448c3.47,11.96-8.97,24.38-17.89,31.09-6.59,4.96-12.56,2.36-9.1-5.08,2.74-5.89,21.63-20.03,26.98-26Z"/>
  <path class="st0" d="M1150,482h29l2.06,1.93c10.27,14.48-31.22,14.02-31.06-1.93Z"/>
  <path class="st0" d="M1910,835c-1.32,5.03-11.24,4.79-12.12,1.77-.81-14.04-1.18-23.28,12.12-30.77-1.36,8.06,1.87,21.89,0,29Z"/>
  <path class="st0" d="M401.99,617.99c-3.35.49-5.9-.66-8.72-2.26-4.2-2.39-20.25-20.74-24.29-25.71-4.96-6.11-1.7-10.07,4.04-6.04,5.81,4.08,19.74,20.68,24.97,27.03,1.86,2.25,4.85,3.23,3.99,6.99Z"/>
  <path class="st0" d="M395.99,1418.01c.62,3.84-1.57,5.35-5,5.98-5.21.95-41.18.36-42.98-2.01-.61-3.84,1.57-5.34,5-5.96,13.3-2.43,29.19,4.17,42.98,2Z"/>
  <path class="st0" d="M1774.02,60c-.46-3.66.02-5.93,1.87-9.11,1.24-2.13,20.36-20.88,23.13-22.87,4.83-3.48,11.4-7.23,10.05,2.04l-35.05,29.94Z"/>
  <path class="st0" d="M975.99,5.99c-.72,14.14-.25,31.19-1.98,45.05-.35,2.8-1.08,5.75-3.98,2.95-3.21-14.69-3.21-32.12-.21-46.82l6.17-1.18Z"/>
  <path class="st0" d="M2332,1432.02c4.36-.42,7.17-.33,11.1,1.88,1.42.8,19.95,21.31,21.98,24.01,3.9,5.18,3.74,11.91-2.09,8.1-10.6-6.92-20.83-25.25-31-33.99Z"/>
  <path class="st0" d="M2217.99,579.99c-7.21,6.29-29.99-19.91-32-26.94,2.2-2.4,2.52-3.9,6.04-2.09,2.18,1.13,19.38,18.87,21.97,22.03,1.85,2.26,4.86,3.22,3.99,6.99Z"/>
  <path class="st0" d="M450,780v-42c7.13.12,7.58,5.38,8.12,10.88.78,7.98,3.19,34.3-8.12,31.12Z"/>
  <path class="st0" d="M1760,1999c.75-3.2,4.08-3.17,6.09-.1,5.34,8.13-2.65,31-.41,41.78-10.11,9.27-5.68-3.25-5.68-5.68,0-8.96-1.68-28.86,0-36Z"/>
  <path class="st0" d="M1906,1252.02c-3.2,4.54-26.28,31.78-29.99,18.92-2.28-7.92,21.11-24.2,29.99-18.92Z"/>
  <path class="st0" d="M2343,632c-.29-.04-6.86-2.27-4.02-4.01,8.42-9.12,35.07,1.18,47.01-1.98.42,11.28-3.87,5.99-6.99,5.99-10.85,0-25.86,1.34-36,0Z"/>
  <path class="st0" d="M519.03,1468.01c10.69-2.64,22.53,21.61,30.94,26.99l-4.96,4.96c-6.7-8.86-21.33-18.27-27.01-26.96-1.66-2.54-2.24-4.18,1.03-4.99Z"/>
  <polygon class="st0" points="1652 114 1615 114 1612.01 109.03 1615 106 1651 106 1653.96 109 1652 114"/>
  <path class="st0" d="M959.98,1990c.46,3.66-.02,5.93-1.87,9.11-2.12,3.65-27.28,27.26-30.11,26l-3.06-5.11,35.04-30Z"/>
  <path class="st0" d="M830,795.98c3.5-5.03,27.11-32.97,29.88-16.73,1.02,6.01-21.69,22.81-29.88,16.73Z"/>
  <path class="st0" d="M1122,1942h-40l.89-6.11c1.45-1.99,44.34-6.89,39.11,6.11Z"/>
  <path class="st0" d="M2278,1270c2.32-.81,8,.88,8,3v34l-3.03,2.99-4.97-2.99v-37Z"/>
  <path class="st0" d="M1139.99,1561.99c-1.93,2.18-20.39-18.57-21.06-20.03-2.25-4.96.52-6.79,4.07-9.92,8.73,9.59,20.44,14.78,16.99,29.95Z"/>
  <path class="st0" d="M1608.25,515.72c-6.5-11.38-15.9-13.97-12.23-29.72l21.82,23.28c.65,3.68-6.22,8.39-9.58,6.45Z"/>
  <path class="st0" d="M836.01,1209.99c-.23,12.76,3.82,28.01-12,32l1.98-32h10.02Z"/>
  <path class="st0" d="M1585.99,1567.99l-31.78-2.18-.4-8.64c11.28-3.28,28.7-2.38,32.18,10.81Z"/>
  <path class="st0" d="M1406,1002.02c-3.29,13.27-20.34,3.99-29.99,5.97,1.05-21.45,17.55-7.91,29.99-5.97Z"/>
  <path class="st0" d="M921,174.04c3.38,2.57,3.85,4,2,7.96-.63,1.35-18.63,19.37-20.91,21.09-5.18,3.9-11.91,3.74-8.1-2.09,5.67-8.68,20.32-18.1,27.01-26.96Z"/>
  <path class="st0" d="M1386.02,1064c-5.03-4.58-3.32-31.75.96-31.95,15.23,5.05,7.1,23.49-.96,31.95Z"/>
  <path class="st0" d="M1379.01,982.05c3.82,2.94,2.36,2.34,1.36,5.28-3.43,10.11-12.94,11.04-19.38,18.64-13.63-14.82,7.99-18.01,18.01-23.92Z"/>
  <path class="st0" d="M1409.99,1037.99c-2.78.43-4.99-.38-7.45-1.53-3.36-1.56-18.1-18.32-16.53-20.44,15.58-7.8,19.39,10.5,23.98,21.97Z"/>
  <path class="st0" d="M1841.99,1844.01c1.88,2.25-2.78,5.53-3.98,6.99-4.43,5.37-13.63,14.58-19,19-2.26,1.85-3.23,4.86-6.99,3.99-4.18-4.69,18.91-27.62,22.99-30.19,1.86-1.18,6.24-.69,6.99.21Z"/>
  <path class="st0" d="M1349.98,986.01c3.46,8.39,1.53,16.47-.05,24.99-.58,3.12,2.05,5.48-2.9,4.99-6.35-.63-8.7-3.94-7.94-10.25.38-3.14,6.18-23.12,10.89-19.72Z"/>
  <path class="st0" d="M1375.98,1044.01c7.19,14.88-10.41,19.17-21.97,21.98-4.18-8.24,19.99-23.46,21.97-21.98Z"/>
  <path class="st0" d="M1326.02,1010c9.27,2.27,13.97,8.5,19,15.97,1.46,2.17,4.31,2.52,2.06,6.09-8.07,12.81-22.89-13.99-21.07-22.06Z"/>
  <path class="st0" d="M1360,1042.02c-4.16,19.46-19.29,7.42-31.99,3.96,7.27-11.48,21.34-2.83,31.99-3.96Z"/>
  <path class="st0" d="M539.03,1460.01c1.62-.33,20.94,19.89,22.01,21.96,1.4,2.72.11,5.57-2.07,6.02-3.23.66-20.25-18.56-21.99-21.98-1.39-2.72-.15-5.55,2.05-6Z"/>
  <path class="st0" d="M2267.99,1268.01c-.41,7.57.64,15.43,0,22.98-.55,6.39-.94,13.2-7.98,11.03-1.62-2.96,1.64-41.29,7.98-34Z"/>
  <path class="st0" d="M1645.99,126.01c-3.25,13.3-24.42,1.46-34,3.98v-5.98s34,2,34,2Z"/>
  <path class="st0" d="M2197.99,587.99c-3.68,3.53-18.63-14.57-21.08-17.89-6.08-8.23-2.08-11.63,5.1-5.1,2.68,2.44,19.15,19.95,15.99,22.99Z"/>
  <path class="st0" d="M904.01,217.99c-2.41-2.26,18.39-22.2,21.85-23.17,3.6-1,3.76-.74,6.1,2.18-3.36,3.47-23.44,25.23-27.95,20.99Z"/>
  <path class="st0" d="M1804.01,1855.99c-4.07-4.46,17.25-21.75,21.03-23.97,2.46-1.44,4.27-2.61,4.95,1.01.71,3.75-23.55,25.62-25.98,22.96Z"/>
  <polygon class="st0" points="1124 1924 1090 1924 1090 1918 1121 1918 1123.98 1921.03 1124 1924"/>
  <path class="st0" d="M468,780v-31l4-2.02c2.37,1.69,5.94,34.43-4,33.02Z"/>
  <path class="st0" d="M937.98,208c2.52,3.19-15.75,24.64-18.95,23.99-2.18-.45-3.47-3.3-2.07-6.02,1.16-2.26,19.76-19.56,21.02-17.97Z"/>
  <path class="st0" d="M1817.99,1818.01c3.64,3.63-18,25.52-21.98,21.98l13.85-19.12,8.13-2.85Z"/>
  <path class="st0" d="M2249.99,1267.99c-.65,4.45,2.15,29.97-2.99,29.97-6.26-7.74-1.65-20.65-2.99-29.97h5.98Z"/>
  <path class="st0" d="M1124,1902c.43,6.4-4.38,5.7-8.89,6.1-5.07.44-22.18,1.66-21.11-6.1h30Z"/>
  <path class="st0" d="M552.01,1454.01c3.83-3.41,22.52,16.21,21.98,18.96-2.54,4.49-6.23,1.63-9.02-.95-1.43-1.32-14.3-16.82-12.96-18.01Z"/>
  <path class="st0" d="M2163.04,573.99c3.82-.54,16.65,13.48,18.97,17,1.69,2.58,2.12,4.39-1.04,4.99-2.25.43-17.3-14.42-18.98-16.99-1.71-2.63-1.99-4.57,1.05-5.01Z"/>
  <path class="st0" d="M490,752v28h-5.99c1.73-8.13-4.98-26.82,5.99-28Z"/>
  <path class="st0" d="M1640,142c-1.18,10.97-19.87,4.26-28.01,5.99v-5.99h28.01Z"/>
  <path class="st0" d="M1623.99,402.01c-3.36,10.53-10.33,15.41-17.95,4.99l17.95-4.99Z"/>
  <path class="st0" d="M1635.99,1630.01c1.82,1.59-9.25,17.09-11.98,13.98l.86-12.12,11.12-1.86Z"/>
  <path class="st0" d="M1127.99,1643.98l-17.99,2,9.29-9.67c2.91-.51,10.95,4.53,8.7,7.67Z"/>
  <path class="st0" d="M1987.99,1264.01l2,15.98c-12.34-1.59-15.87-12.8-2-15.98Z"/>
  <path class="st0" d="M748.02,786l-2-18c10.75,4.24,13.41,12.07,2,18Z"/>
  <path class="st0" d="M762.01,1281.99l-.02,10c-6.56.71-10.85-5.79-15.98-9l16-1Z"/>
  <polygon class="st0" points="1987.98 764.04 1986.99 768.01 1973.99 768.01 1974.02 756 1987.98 764.04"/>
  <polygon class="st0" points="1110.01 418.01 1098 417.98 1109.01 404.01 1110.01 418.01"/>
  <path class="st0" d="M869.79,795.82l-13.78-.81c5.09-8.3,18.91-11.19,13.78.81Z"/>
  <path class="st0" d="M1540.01,954.01c2.49-2.96,14.02,10.38,6.97,11.97-7.66,1.73-7.54-6.83-6.97-11.97Z"/>
  <path class="st0" d="M851.99,1210.01c2.79,2.84-3.59,13.21-7.97,13.99l.93-12.05c.84-2.24,6.39-2.6,7.04-1.94Z"/>
  <polygon class="st0" points="1181.97 502.05 1178.98 510.03 1168 500.02 1181.97 502.05"/>
  <path class="st0" d="M1596.02,514c5.08.96,11.96,12.5,4.95,13.99-6,1.27-5.34-10.41-4.95-13.99Z"/>
  <path class="st0" d="M1892,826.02l-1.99,10.53-5.01,3.4c-8.77-4.31,4.61-16.39,7-13.94Z"/>
  <path class="st0" d="M1293.99,1197.99c-4.05-.51-15.1,2.81-11.97-4.97,2.59-6.44,12.75-1.47,11.97,4.97Z"/>
  <path class="st0" d="M1197.96,951.98l-3.97-.99.02-12.98c10.63,1.89,7.42,6.98,3.95,13.97Z"/>
  <path class="st0" d="M1878,1254.02c-3.43,6.17-7,9.48-13.89,5.83l-.12-5.84h14.01Z"/>
  <polygon class="st0" points="1426 1198.02 1437.96 1199 1429 1207.96 1426 1198.02"/>
  <path class="st0" d="M1307.99,842.01l.02,10-10-.02c-2.34-2,7.95-12.32,9.98-9.98Z"/>
  <path class="st0" d="M1566,1547.98l-11.73-.27-2.27-7.69c6.23-1.2,11.43,2.49,14,7.96Z"/>
  <polygon class="st0" points="1454 852.02 1448.97 860.01 1440.01 852.99 1454 852.02"/>
  <polygon class="st0" points="1137.98 1534 1130.15 1526.73 1135 1520.04 1137.98 1534"/>
  <path class="st0" d="M1193.87,1084.13l2.13,9.85c-6.31,3.07-13.32-9.46-8.99-9.99l6.86.14Z"/>
  <polygon class="st0" points="1539.99 1098.01 1537.03 1109.98 1532.51 1105.03 1539.99 1098.01"/>
</svg>