<?xml version="1.0" encoding="UTF-8"?>
<svg id="Layer_0_xA0_Image" xmlns="http://www.w3.org/2000/svg" version="1.1" viewBox="0 0 2732 2048">
  <!-- Generator: Adobe Illustrator 30.2.1, SVG Export Plug-In . SVG Version: 2.1.1 Build 1)  -->
  <defs>
    <style>
      .st0 {
        fill: #ffe800;
      }
    </style>
  </defs>
  <path class="st0" d="M1902.21,1069.89c-.9-8.6-2.02-16.81-2.49-25.06-.17-3.05.47-6.61,1.99-9.2,6.43-10.89,13.64-21.34,19.97-32.28,3.98-6.87,9.01-12.16,15.99-15.9,4.65-2.5,8.97-5.62,13.92-8.78-1.55-8.06-2.87-15.89-4.61-23.61-.87-3.84-.34-6.71,1.9-10.18,5.41-8.38,9.82-17.4,15.05-25.91,1.99-3.24,4.66-6.47,7.8-8.54,11.09-7.34,22.51-14.17,34.24-21.47-.95-13.44-1.43-26.74-2.99-39.92-.95-8.05,1.06-16.73-4.28-24.12-.73-1.02.03-3.22.3-4.84,2.82-16.74,5.78-33.46,8.42-50.23.43-2.76.03-5.92-.9-8.57-2.66-7.53-5.5-15.03-8.84-22.28-2.34-5.07-2.03-9.46.58-14.21,2.4-4.35,4.32-8.98,6.88-14.38-4.39-4.8-8.82-9.65-13.26-14.49-7.18-7.8-16.85-14.51-20.86-23.7-3.87-8.88-1.99-20.3-2.51-30.62-.85-16.97-1.86-33.94-2.27-50.92-.14-5.95-2.09-9.84-7.08-13.08-6.9-4.47-13.34-9.67-19.75-14.38,5.33-13.04,8.53-15.56,23.59-12.59,46.72,9.2,93.56,17.9,139.96,28.52,30.1,6.89,59.55,16.67,89.19,25.5,4.67,1.39,8.78,4.68,13.18,7.03,48.75,26.08,97.52,52.13,146.25,78.25,2.62,1.4,5,3.28,7.35,5.12,47.01,36.7,94.05,73.37,140.92,110.26,4.33,3.41,8.13,7.85,11.17,12.47,37.15,56.51,73.8,113.36,111.41,169.55,6.95,10.39,12.17,21.19,16.82,32.52,6.32,15.4,12.54,30.85,18.7,46.32,1.15,2.9,1.83,5.99,1.64,9.71-8.66-4.22-13.89-11.8-20.13-18.19-6.27-6.41-12.25-13.12-19.04-20.43-11.32,4.95-22.5,9.85-34.31,15.02,0,8.36-.49,16.62.16,24.79.52,6.52-1.82,10.51-7.06,14.08-9.08,6.19-17.47,13.41-26.69,19.35-3.56,2.3-3.74,8.79-9.34,7.71-3.82-.74-7.59-2.32-11.09-4.09-5.75-2.9-10.7-2.57-15.49,1.95-2.16,2.04-4.99,3.33-7.31,5.22-27.2,22.1-58.51,36.65-90.73,49.53-1.5.6-3.07,1-5.66,1.84-2.71-5.45-5.31-10.67-8.12-16.34-12.49-.75-25.44.12-37.53-2.72-11.73-2.75-22.56-9.31-34.66-14.58-4.18,12.48-8.3,24.04-11.8,35.78-.76,2.57.52,5.83,1.14,8.71,1.44,6.69,3.06,13.35,5.02,21.82-5.93-.74-10.11-1.11-14.22-1.8-52.87-8.91-105.73-17.83-158.58-26.84-4.9-.84-9.77-2.01-14.53-3.46-38.23-11.61-76.45-23.26-114.61-35.09-6.49-2.01-12.86-2.89-19.64-2.08-36.71,4.41-73.43,8.68-110.15,12.96-11.19,1.31-22.4,2.51-33.52,3.75-3.07-16.78-15.88-27.41-21.89-42.49,3.54-5.83,6.96-12.32,11.25-18.17,1.99-2.72,5.41-4.87,8.62-6.16,10.81-4.33,21.84-8.14,32.77-12.18,3.1-1.14,6.15-2.41,9.8-3.85Z"/>
  <path class="st0" d="M1812.44,1171.17c-2.71,6.94-5.33,13.61-8.49,21.7h33.69c.13,7.49.82,14.37.24,21.15-.89,10.44,1.34,19.61,7.74,27.99,2.99,3.92,5.1,8.52,7.67,12.91-2.43,3.58-4.64,6.84-6.74,9.92.21.95.12,1.82.51,2.19,9.02,8.66,9.59,18.03,2.55,28.14-2.26,3.25-1.34,6.1.91,9.08,2.9,3.85,5.41,7.99,9.2,13.7-10.92.45-19.74,1.04-28.56,1.11-8.76.06-17.06,1.68-25.41,4.42-150.29,49.31-300.51,98.83-451.02,147.45-56.04,18.1-112.83,33.89-169.21,50.95-45.58,13.79-91.15,27.61-136.56,41.94-46.1,14.55-93.46,24.03-140.23,35.87-57.13,14.46-114.43,28.3-171.76,41.95-10.3,2.45-21.09,2.9-31.69,3.97-35.8,3.62-71.62,7-107.4,10.76-4.1.43-8.36,2.15-11.91,4.3-6.54,3.97-12.45,8.95-18.94,13.01-2.61,1.63-6.23,3.11-9.07,2.65-17.38-2.82-34.67-6.21-52.14-9.44.25-11.36-7.61-18.28-12.47-26.59-1.06-1.81-4.69-1.96-6.88-3.29-3.29-2-7.24-3.74-9.35-6.7-8.31-11.66-15.98-23.78-23.98-35.66-1.97-2.92-2.49-5.6-1.75-9.27,2.04-10.11,2.72-20.51,5.08-30.53,1.98-8.39.82-15.61-3.59-22.79-7.37-12.01-6.4-24.72-2.51-37.53.36-1.17,1.41-2.14,2.74-4.07,7.24,4.56,10.72,11.95,15.66,17.91,4.86,5.86,9.39,12.01,14.41,18.48,3.69-1.94,6.92-3.57,10.08-5.31,18.67-10.29,37.43-20.44,55.94-31.01,5.21-2.98,9.78-3.66,14.72-.18,11.51,8.13,23.69,7.39,37.04,5.01,14.89-2.65,27.57-9.54,40.58-16.13,4.86-2.46,9.5-4.79,15.15-3,1.22.38,2.65.11,3.98.1,8.99-.09,18.74,1.95,26.75-.9,7.99-2.84,14.26-10.54,21.23-16.19,3.36-2.73,6.39-5.91,9.94-8.35,2.88-1.98,6.17-4.03,9.51-4.55,28.96-4.49,58.02-8.37,86.95-13.05,10.47-1.7,20.72-4.91,30.99-7.72,133.59-36.64,267.17-73.32,400.73-110.06,4.12-1.13,7.96-3.28,12.08-4.41,2.78-.76,5.87-1.01,8.73-.68,11.89,1.38,24.01,5.35,35.54,4.01,11.54-1.34,22.45-7.96,33.69-12.1,100.62-37.07,201.17-74.35,301.97-110.9,16.47-5.97,34.06-8.92,51.22-12.9,23.33-5.42,46.75-10.5,70.14-15.68,1.28-.28,2.66-.5,3.93-.31,14.82,2.2,29.64,4.46,44.44,6.79,1.21.19,2.31,1.07,3.94,1.86Z"/>
  <path class="st0" d="M558.4,1147.53c-3.09-5.71-6.07-11.2-9.32-17.21h-26.24c-1.88-2.99-3.89-5.97-5.69-9.06-16.09-27.64-32.17-55.29-48.17-82.99-1.82-3.16-3.21-6.58-4.6-9.96-11.81-28.64-23.42-57.36-35.5-85.89-2.73-6.45-3.08-11.42,1.58-17.27,6.63-8.32,12.13-17.53,18.35-26.19,2.65-3.68,3.98-7.37,3.77-12.01-.73-16.65-.91-33.32-1.76-49.96-.25-4.87-1.45-9.88-3.22-14.44-5.29-13.66-11.36-27.03-16.51-40.74-1.93-5.13-2.3-10.88-3.06-16.39-.36-2.61-.43-5.44.18-7.97,5.27-21.71-6.95-37.48-17.84-53.79-2.24-3.35-5.22-3.58-8.62-3.73-14.65-.67-29.29-1.46-43.94-2.13-10.84-.49-10.88-.42-14.34-11.08-.79-2.45-1.26-5.01-2.16-8.67h68.5c-7.93-12.76-13.4-24.45-26.59-31.56-41.05-22.14-81.42-45.54-122.04-68.48-3.12-1.76-6.1-3.76-10.04-6.19,1.81-3.21,2.95-5.87,4.64-8.13,18.74-25.11,37.53-50.17,56.41-75.17,1.77-2.34,4-4.46,6.38-6.2,34.98-25.56,69.99-51.08,105.1-76.47,2.57-1.86,5.83-3.15,8.95-3.83,21.15-4.62,42.32-9.18,63.56-13.37,5.48-1.08,11.24-1.21,16.85-1.03,59.3,1.88,118.61,3.5,177.88,6.15,17.88.8,35.67,4.31,53.44,7.01,68.17,10.37,136.23,21.5,204.5,31.16,37.22,5.27,74.78,8.17,112.2,12.1,41.75,4.38,83.48,9.08,125.27,12.97,38.98,3.63,76.35,14.82,114.37,22.97,24.42,5.24,48.99,9.86,73.65,13.8,13.8,2.21,25.98,6.88,37.6,14.7,24.88,16.74,50.34,32.61,75.57,48.83,1.4.9,2.83,1.76,4.21,2.7,2.68,1.84,6.79,3.51,4.83,7.41-.93,1.85-4.81,2.93-7.44,3.1-12.64.8-25.3,1.43-37.95,1.51-3.36.02-7.06-1.53-10.04-3.3-26.62-15.86-53.16-31.86-79.6-48.03-4.71-2.88-9.46-4.19-14.94-4.64-33.21-2.73-66.5-4.95-99.53-9.11-14.09-1.77-26.85,1.7-40.12,3.77-41.47,6.45-83.03,12.43-124.32,19.91-11.39,2.06-21.18.76-31.72-2.65-65.27-21.14-130.68-41.87-195.96-62.98-7.52-2.43-14.52-3.06-22.4-1.53-23.86,4.64-47.89,8.43-71.85,12.57-1.28.22-2.53.62-5.2,1.28,2.65,11.71,5.24,23.18,8.02,35.46-5.36,2.36-10.33,5.03-15.61,6.77-22.51,7.42-42.47,18.9-59.04,36-.46.48-.98.92-1.54,1.28-9.8,6.28-15.44,15.18-17.37,26.66-1.19,7.08-4.37,13.15-10.21,17.72-2.34,1.83-4.22,4.25-6.32,6.4-30.35,31.14-31.38,31.86-47.17,72.7-3.99,10.32-4.42,22.1-5.99,33.27-3.53,25.07-6.67,50.2-10.21,75.26-.44,3.09-1.95,6.23-3.68,8.89-7.62,11.74-15.37,23.39-23.36,34.88-2.71,3.9-3.14,7.75-2.43,12.24,2.72,17.44,5.36,34.9,7.77,52.39.86,6.23,3.39,10.99,8.13,15.32,15.74,14.39,31.01,29.3,46.64,43.82,4.05,3.76,6.79,7.97,8.39,13.25,5.42,17.84,10.97,35.66,16.73,53.39,1.51,4.64,1.55,8.85.35,13.6-5.54,21.96-10.81,43.99-15.92,66.05-.97,4.2-2.58,7.17-6.53,9.28-20.88,11.13-41.63,22.48-62.46,33.7-1.41.76-3.03,1.11-5.27,1.9Z"/>
  <path class="st0" d="M1742.17,990.93c8.65-1.46,112.88,13.84,151.85,22.02,2.06.43,3.97,1.56,8.2,3.27-4.96,2.61-7.88,4.54-11.07,5.76-8.73,3.32-11.35,11.85-15.47,18.73-1.58,2.64.67,7.67,1.38,11.57,1.51,8.28.76,9.48-7.08,12.7-10.15,4.17-20.31,8.34-30.2,13.07-3.03,1.45-6.01,4.31-7.57,7.28-4.33,8.24-7.75,16.96-11.84,25.34-1.88,3.86-.95,6.73,1.23,10.08,5.43,8.36,10.55,16.93,15.6,25.52,1.39,2.36,2.1,5.11,3.59,8.87-11.89-.65-22.05-1.24-32.22-1.76-23.96-1.23-47.92-2.59-71.9-3.54-5.22-.21-10.62.6-15.74,1.77-54.69,12.55-106.77,33.31-159.69,51.38-84.16,28.73-168.11,58.04-252.15,87.1-.94.33-1.93.58-2.81,1.03-9.55,4.83-19.3,5.67-29.88,3.35-5.24-1.15-11.33-.3-16.65,1.11-111.69,29.68-223.44,59.13-334.89,89.66-39.12,10.72-77.37,24.55-116.23,36.26-14.95,4.5-30.46,7.15-45.75,10.49-69.63,15.2-139.29,30.29-208.89,45.61-5.09,1.12-10.16,3.2-14.72,5.77-17.65,9.92-35.1,20.23-53.67,31-4.67-6.11-9.48-12.38-14.27-18.67q-16.57-21.78-15.43-49.01c.04-.98.34-1.94.62-3.43,7.4-3.12,14.94-6.5,22.64-9.47,5.02-1.94,8.8-4.48,9.24-10.41,1.16-15.72,10.75-24.2,24.38-30.61,16.32-7.67,11.63-9.1,26.52.93,11.03,7.44,20.89,8.81,34.17,5.12,49.78-13.81,98.71-30.16,147.76-46.23,18.89-6.19,38.7-9.59,58.11-14.15,34.69-8.15,69.28-16.81,104.14-24.17,53.42-11.27,107.02-21.72,160.59-32.32,42.47-8.4,85.03-16.4,127.49-24.88,5.37-1.07,10.52-3.63,15.53-6.01,10.84-5.13,21.46-10.73,32.29-15.86,4.15-1.97,6.89-4.69,8.74-8.95,7.04-16.19,14.3-32.28,21.63-48.34,1.89-4.13,2.84-8.11,1.05-12.49-.5-1.22-.71-2.57-.9-3.89-1.63-11.35-5.37-21.23-17.25-25.75-.75-.29-1.13-1.56-1.62-2.29.15-.79.05-1.66.43-2.01,10.4-9.8,14.3-20.96,11.74-35.73-3.34-19.32-4.3-39.05-6.05-58.63-.18-1.97.59-4.98,2-5.99,14.04-10.06,28.31-19.79,42.53-29.6.22-.15.65.01,1.61.07,1.21,2.15,2.58,4.59,4.98,8.86,2.92-8.64,5.43-15.69,7.68-22.82,2.5-7.91,5.82-15.16,10.69-22.13,22.31-31.97,44.05-64.34,65.82-96.68,2.55-3.79,4.53-8.15,5.88-12.52,7.4-23.85,14.3-47.87,21.91-71.66,1.97-6.17,1.2-10.54-2.91-15.41-6.44-7.63-12.04-15.96-18.27-23.78-2.91-3.65-3.19-6.88-.82-10.9,4.22-7.14,8.09-14.49,11.77-21.15-1.72-8.94-12.84-10.88-13.67-19.31,17.55-1.75,33.95-3.27,50.33-5.03,29.15-3.13,58.3-6.28,87.41-9.73,5.44-.65,8.39.46,10.8,5.79,19.05,42.2,38.43,84.26,57.68,126.37.54,1.17.78,2.47,1.39,4.5-2.4.67-4.46,1.58-6.59,1.78-6.63.63-13.29,1.3-19.94,1.39-8.57.11-16.2,1.94-23.17,7.46-2.81,2.23-7.42,2.61-11.29,2.97-5.79.54-10.86,2.27-15.83,5.37-16.96,10.59-34.06,20.95-51.28,31.09-4.87,2.87-7.91,6.58-10.11,11.73-17.78,41.66-35.76,83.24-53.75,124.81-1.03,2.38-2.59,4.62-4.27,6.61-4.28,5.11-8.56,10.24-13.22,15-5.21,5.31-8.6,10.38-5.06,18.47,1.27,2.89-.41,7.78-2.05,11.12-7.94,16.14-16.48,31.98-24.44,48.11-2.01,4.06-3.47,8.74-3.78,13.24-1.14,16.95-1.89,33.94-2.32,50.93-.08,2.94,1.44,6.43,3.32,8.79,3.72,4.67,8.52,8.47,12.3,13.1,4.35,5.33,8.7,6.36,15.55,4.23,48.34-15.01,96.93-29.23,145.27-44.25,63.63-19.77,127.65-38.06,192.65-52.77,7.39-1.67,13.24-5.27,19.25-9.75,11.45-8.54,19.44-18.83,21.85-33.1.17-.98.59-1.91.88-2.86,2.63-8.59,7.62-17.3,7.21-25.74-.39-8.01-6.53-15.7-9.95-23.62-1.26-2.91-2-6.05-3.03-9.23Z"/>
  <path class="st0" d="M2338.65,1214.42c1.3-5.38,2.87-8.97,2.91-12.58.1-9.32-.55-18.65-.73-27.97-.07-3.5.34-7,.59-11.41,3.81.66,6.36.87,8.78,1.56,28.11,8.1,56.26,16.09,84.26,24.59,5.46,1.66,9.33.86,13.82-2.23,23.03-15.89,46.33-31.41,69.33-47.35,4.96-3.44,9.44-5.26,15.64-3.7,7.07,1.77,14.55,1.87,21.68,3.47,5.05,1.14,8.08-.58,11.18-4.19,8.9-10.36,18.25-20.35,26.98-30.84,2.4-2.88,3.95-6.89,4.69-10.62,1.87-9.42,3.05-18.98,4.43-27.97,4.54-2.33,6.31.77,8.37,2.66,8.84,8.11,17.57,16.34,26.36,24.5,2.42,2.24,4.92,4.39,7.69,6.85,6.94-3.57,13.62-7.02,21.46-11.05,7.39,14.46,17.97,25.87,20.65,42.22,4.94,30.22,10.35,60.43,17.31,90.24,5.81,24.9,4.5,50.26,7.88,75.24,3.14,23.16-.26,45.74-4.14,68.41-3.6,21.01-6.74,42.09-10.16,63.13-.42,2.61-.95,5.3-2.02,7.69-20.49,45.9-41.07,91.75-61.62,137.62-.54,1.21-.7,2.73-1.53,3.66-10.64,11.9-20.29,25-32.35,35.26-16.95,14.43-35.88,26.53-53.6,40.09-5.33,4.08-9.68,4.98-15.14.96-2.38-1.76-5.31-2.77-7.92-4.23-7.62-4.27-10.78-13.77-7.4-22.05,2.14-5.24,4.04-10.6,6.46-15.7,7.36-15.5,11.25-31.64,12.9-48.85,2.36-24.69,3.15-49.17-.74-73.67-.77-4.85-2.11-9.77-4.09-14.25-10.93-24.66-21.93-49.3-33.34-73.74-5.47-11.71-11.42-23.26-17.96-34.4-19.39-33.04-39.28-65.78-58.72-98.79-3.18-5.4-7.17-9.27-12.55-12.32-20.29-11.49-40.44-23.23-60.62-34.91-3.12-1.81-6.17-3.74-8.73-5.31Z"/>
  <path class="st0" d="M387.26,1066.35c-38.71,18.81-76.62,37.23-115,55.88,3.27,16.55,6.41,32.47,9.65,48.88-15.92,12.76-31.61,25.59-47.67,37.93-2.54,1.95-6.87,2.63-10.22,2.31-14.92-1.43-29.76-3.61-44.67-5.13-4.85-.49-7.89-2.4-10.17-6.67-5.01-9.4-10.69-18.46-15.46-27.98-1.49-2.97-1.52-7.02-1.18-10.48.67-6.95,2.01-13.84,3.15-20.74.58-3.49.15-6.34-2.85-8.89-15.19-12.95-30.23-26.09-45.83-39.61-4.94,7.36-9.46,14.11-13.93,20.78-5.33-2.11-6.86-5.31-7.16-9.69-1.76-26.6-3.82-53.18-5.36-79.79-.26-4.48.84-9.35,2.49-13.57,3.95-10.1,5.56-20.35,5.3-31.19-.32-13.65.2-27.32.34-40.99.03-3.29,0-6.57,0-10.4-2.86.4-4.96.69-7.6,1.06-1.82-7.73-3.94-15.06-5.14-22.54-.55-3.42.24-7.28,1.29-10.67,3.55-11.45,7.79-22.68,11.15-34.18,1.34-4.57,4.54-6.17,8.05-8.09,42.67-23.35,85.31-46.74,127.97-70.11,4.24-2.32,8.49-4.62,12.19-6.63,5.19,7.43,9.58,13.95,14.22,20.3,10.01,13.73,20.54,27.11,30.12,41.13,8.81,12.89,16.92,26.28,24.89,39.72,7.62,12.86,14.66,26.06,22.7,40.45,15.5-12.61,30.28-24.64,46.16-37.56-2.81-1.36-4.35-2.29-6.02-2.88-17.28-6.08-34.51-12.3-51.91-18-3.61-1.18-5.58-2.84-6.97-6.17-7.41-17.84-15.08-35.57-22.41-53.45-3.37-8.22-2.69-10.11,4.13-15.2,13.59-10.13,27.25-20.17,40.51-29.97,1.01.25,1.34.29,1.64.41.3.12.72.23.84.48,26.81,53.24,53.59,106.49,80.37,159.74.9,1.78,1.78,3.58,2.6,5.4.27.59.41,1.28.44,1.93.04.64-.09,1.31-.23,1.95-.06.3-.32.55-.95,1.58-1.77-.19-4.02-.09-6.05-.72-5.72-1.78-11.43-3.65-16.99-5.89-4.11-1.66-7.52-1.25-11.26,1.15-13.18,8.46-26.45,16.78-39.83,24.9-3.89,2.36-5.4,5.14-5.16,9.74,1.03,19.3,1.8,38.61,2.49,57.93.14,3.79,1.24,6.7,5.05,7.54,14.83,3.28,21.97,14.75,29.03,26.53,3.73,6.22,8.13,12.05,13.23,19.51Z"/>
  <path class="st0" d="M1669.53,852.29c-2.33-.79-4.81-1.3-6.98-2.42-20.73-10.68-41.45-21.38-62.04-32.31-2.41-1.28-4.9-3.61-5.96-6.06-18.98-43.68-37.74-87.45-56.54-131.2-.65-1.51-1.14-3.09-1.39-3.76,23.88-43.24,47.35-85.74,71.23-129,2.75,0,6.03-.06,9.31,0,38.31.83,76.63,1.55,114.94,2.68,5.46.16,10.83,2.54,16.31,3.5,31.82,5.58,63.6,11.37,95.51,16.37,10.79,1.69,21.91,1.37,32.89,1.79,15.32.6,30.64,1.14,45.96,1.47,4.33.09,7.82,1.2,10.27,4.88.18.27.45.49.67.74,16.06,17.88,16.6,19.31,20.03,43.83.59,4.24-.89,7.26-3.61,9.79-6.75,6.26-7.11,13.21-4.37,21.66,3.9,12.02,6.99,24.33,9.79,36.66,1.57,6.93,4.42,12.28,10.83,15.74,3.11,1.68,5.76,4.19,8.24,6.04-.31,1.69-.2,2.65-.58,2.92-7.36,5.14-6.55,11.53-4.29,19.24,3.33,11.38,5.78,22.82,19.69,25.67-.44,1.93-.33,3.32-.9,3.71-8.04,5.43-8.77,12.78-7.34,21.77,1.78,11.15,2.16,22.54,2.87,33.84.25,3.94.06,7.99-.61,11.87-1.48,8.6-4.64,17.48,7.57,21.82-7.27,14.4-13.68,27.87-20.93,40.87-1.71,3.07-6.05,5.08-9.59,6.64-7.37,3.25-12.37,8.36-16.18,15.45-6.62,12.31-13.75,24.38-21.13,36.26-3.9,6.27-6.16,12.37-3.6,19.69.64,1.82.44,3.93.68,6.54-10.08,4.86-11.94,15.75-17.07,25.09-14.07-2.27-27.82-4.45-41.56-6.73-35.15-5.84-70.3-11.73-105.44-17.6-1.31-.22-2.62-.69-3.93-.68-7.85.04-11.22-4.46-11.74-11.65-1.1-15.15-8.33-26.9-19.42-36.86-4.57-4.11-8.32-9.13-13.64-15.07,9.74-3.92,17.9-5.64,26.48-4.68,22.51,2.53,45.01,5.1,67.47,8.05,4.63.61,7.46-.6,10.27-4.05,12.65-15.48,25.36-30.93,38.34-46.12,3.13-3.66,3.07-6.9,1.58-10.92-1.95-5.23-3.6-10.57-5.5-16.24,8.63-4.13,16.26,2.22,25.01,0,.31-2.38.83-5.17,1-7.98,2.34-37.58,4.56-75.16,7.05-112.73.33-5.02-.83-8.93-3.88-12.87-13.48-17.37-26.6-35.03-40.22-52.3-2.51-3.18-6.39-5.94-10.21-7.3-32.62-11.62-65.35-22.94-98.14-34.11-3.61-1.23-7.87-1.71-11.63-1.16-22.41,3.27-44.71,7.28-67.15,10.27-6.98.93-9.3,3.88-10.75,10.33-5.69,25.34-12.15,50.5-17.93,75.82-.9,3.94-.66,8.68.65,12.5,11,32.14,22.09,64.25,33.81,96.12,2.94,8,8.31,15.1,12.54,22.62,1.73,3.08,3.42,6.19,5.13,9.29-.63.75-1.27,1.5-1.9,2.25Z"/>
  <path class="st0" d="M1165.08,715.35c11.88-7.91,22.5-14.73,32.77-22.04,2.08-1.48,3.36-4.67,4.1-7.32,1.22-4.36,1.71-8.93,2.35-12.55,13.9,1.6,26.7,3.18,39.53,4.53,36.11,3.8,72.21,7.64,108.35,11.13,5.67.55,8.78,2.48,11.11,7.84,3.3,7.59,7.85,14.64,12.24,22.61-4.83,7.39-9.89,15.11-15.08,23.04,6.01,13.17,11.9,26.08,18.34,40.19-7.82,2.69-14.46,5.85-21.46,7.2-13.1,2.54-21.49,9.4-24.42,22.56-2.39,10.71-10.17,17.56-17.75,24.46-4.73,4.3-6.79,9.32-7.23,15.75-.93,13.62-2.59,27.19-4.09,40.76-.25,2.25-.86,4.62-1.91,6.6-12.98,24.4-26.08,48.75-39.18,73.09-.29.54-.96.88-2.16,1.94-2.62-.63-5.87-1.13-8.9-2.2-5.26-1.85-10.12-1.34-15.54.08-9.29,2.44-15.46,7.57-20.56,15.7-11.86,18.9-24.47,37.33-37.1,55.74-2.94,4.29-6.72,8.3-10.89,11.4-33.39,24.89-66.98,49.52-100.49,74.25-2.92,2.16-5.78,4.41-9.31,7.12,2.45,3.89,4.68,7.43,7.4,11.75,52.57-33.83,104.55-67.28,157.37-101.27,1.52,3.19,2.91,5.04,3.29,7.08,2.67,14.41,5.27,28.83,7.52,43.3.42,2.7-.14,6-1.41,8.42-3.41,6.47-7.71,12.47-11.14,18.94-2.47,4.66-5.77,5.67-10.65,4.84-9.52-1.6-19.14-2.63-28.66-4.21-6.48-1.08-12.27-.09-18.31,2.68-32.7,14.98-65.55,29.62-98.37,44.35-2.97,1.33-6.03,2.48-9.92,4.07-13.2-19.39-26.06-38.28-39.42-57.91,1.13-1.17,2.46-2.97,4.18-4.26,18.93-14.19,37.86-28.38,56.93-42.37,4.44-3.26,7.62-7.14,10.08-12.05,10.58-21.15,21.3-42.23,32.2-63.21,2.55-4.91,3.78-9.73,3.34-15.27-.97-12.29-1.85-24.59-2.19-36.91-.14-5.21.46-10.67,1.92-15.66,6.38-21.71,13.26-43.28,19.81-64.95.74-2.44.96-5.2.73-7.75-2.87-31.85-5.96-63.68-8.74-95.54-.44-5.1-2.97-8.62-6.06-12.19-22.48-25.94-44.85-51.97-67.39-77.85-8.65-9.93-8.55-22.23-11.75-35.81,4.06,1.76,6.14,2.44,7.98,3.52,2.87,1.68,5.91,3.28,8.31,5.52,12.46,11.58,26.87,14.27,43.27,11.21,9.78-1.82,19.87-2.01,29.82-2.94,8.22-.77,8.98-.42,11.3,7.54,4.28,14.7,8.34,29.47,12.52,44.21.9,3.16,1.92,6.29,3.31,10.86Z"/>
  <path class="st0" d="M1350.86,1103.06c1.54-2.65,2.87-5.46,4.66-7.94,9.18-12.68,18.49-25.27,27.73-37.91q6.39-8.74-.15-18.93c1.67-2.71,3.46-5.83,5.47-8.8,10.28-15.16,20.51-30.37,31-45.38,2.86-4.08,4.34-8.14,3.4-13.04-2.31-12.02.84-22.65,6.81-33.24,8.82-15.65,16.42-31.99,24.71-47.94,1.66-3.19,3.53-6.6,6.18-8.88,11.35-9.79,23.01-19.21,34.62-28.7,1.2-.98,2.8-1.49,4.32-2.27,4.32,3.67,1.54,6.95.1,9.98-8.29,17.44-16.72,34.82-25.07,52.23-4.31,8.98-8.56,17.99-12.93,27.19,4.47,6.56,9.32,9.64,17.7,7.21,10.19-2.96,20.9-4.12,31.24-6.64,3.25-.79,6.54-2.97,8.95-5.38,3.5-3.5,6.23-7.79,9.28-11.74q13.32-17.21,14.54-38.59c.11-2,.19-3.99.28-5.99,1-22.9.91-22.99,17.78-38.51,2.18-2.01,5.72-3.42,8.69-3.53,12.98-.47,25.98-.44,38.97-.39,2.18,0,4.69.48,6.47,1.64,15.62,10.13,31.2,20.34,46.58,30.83,3.74,2.55,7.33,5.81,9.91,9.51,17.51,25.15,34.73,50.5,52.05,75.78,2.26,3.29,4.49,6.37,3.83,10.92-.36,2.44.92,5.17,1.63,7.72,3.68,13.14,7.24,26.32,11.22,39.38,1.45,4.77,1.32,8.79-1.01,13.33-8.22,15.99-16.17,32.12-23.91,48.35-2.2,4.61-5.3,7.11-10.13,8.6-41.04,12.63-82.05,25.38-122.98,38.34-4.52,1.43-8.14,1.17-12.28-.95-20.45-10.47-40.93-20.89-61.6-30.91-4.64-2.25-9.99-3.61-15.14-4.14-26.5-2.72-53.06-4.87-79.56-7.61-6.62-.68-12.26.22-17.96,3.81-11.27,7.1-22.87,13.67-34.37,20.39-2.78,1.62-5.71,2.99-8.57,4.47-.81-.75-1.62-1.5-2.42-2.25Z"/>
  <path class="st0" d="M2362.6,1241.37c-25.67,9.54-51.21,18.19-76.07,28.49-25.18,10.44-51.59,15.18-78.07,20.07-38.3,7.08-76.49,14.78-114.87,21.36-25.25,4.33-50.81,6.86-76.14,10.79-10.64,1.65-21.02.72-31.61.26-28.62-1.25-57.27-1.72-85.9-2.42-4.75-.12-9.08.08-11.29-5.73-.95-2.49-4.23-4.1-6.47-6.09-4.21-3.73-8.43-7.45-12.3-10.88,0-1.4-.24-2.19.04-2.69,5.69-10.32,7.12-20.26-.66-30.56-3.52-4.66-5.48-10.51-8.58-16.69,6.59-4.57,12.72-8.82,20.05-13.91-10.9-7.87-20.97-15.14-32.34-23.35v-18.69c-8.94-4.9-17.35-9.47-25.68-14.18-.64-.36-.69-1.77-1.06-2.84,2.33-3.89,6.47-2.99,9.81-3.42,22.1-2.87,44.2-5.71,66.35-8.13,35.42-3.87,70.88-7.34,106.31-11.13,4.8-.51,8.79.6,13.27,2.41,14.18,5.74,28.72,10.6,43.14,15.76,28.52,10.19,57.02,20.47,85.63,30.42,5.26,1.83,10.96,2.68,16.54,3.23,48.05,4.76,96.12,9.31,144.17,14.05,4.25.42,8.54,1.3,12.59,2.65,11.37,3.77,22.61,7.94,33.94,11.85,4.26,1.47,7.92,3.4,9.22,9.37Z"/>
  <path class="st0" d="M785.75,1279.47c-1.7,10.22-3.52,19.69-4.75,29.25-.64,4.96-3.04,7.37-7.51,9.26-31.9,13.45-63.66,27.25-95.58,40.66-3.49,1.47-7.8,1.92-11.61,1.57-14.19-1.32-27.71,1.09-41.27,5.11-20.42,6.06-41.11,11.17-61.59,17.05-5.13,1.47-9.36,1.35-14.26-1.07-17.34-8.56-17.44-8.39-34.95-.85-9.17,3.95-19.9,6.2-26.97,12.53-7.05,6.31-10.34,16.79-15.43,25.35-1.39,2.34-1.84,6.08-7.04,5.12-.73-5.5-1.59-11.28-2.25-17.09-.83-7.28-2.13-14.58-2.08-21.86.08-11.05-3.72-20.69-8.28-30.43-13.69-29.25-26.96-58.69-40.54-87.99-1.51-3.25-3.53-6.43-5.94-9.07-13.25-14.52-26.65-28.9-40.08-43.24-7.24-7.72-8.54-7.78-17.75-1.91-2.25,1.43-4.32,3.4-6.78,4.16-2.57.8-6.02,1.51-8.19.44-16.74-8.19-33.28-16.81-49.85-25.35-.82-.43-1.36-1.42-2.34-2.48,2.81-7.01,11.09-7.92,16.03-14.48-2.6-13.7-5.38-28.33-8.19-43.1,4.89-4.79,79.41-43.46,95.59-49.43,4.92,9.01,8.91,17.55,4.01,28.59-6.06,13.64-10.63,27.95-16.05,42.51,2.85,2.54,5.5,4.99,8.24,7.34,25.06,21.43,50.11,42.88,75.26,64.21,2.19,1.85,4.96,3.28,7.7,4.18,24.99,8.2,50.07,16.09,75.01,24.43,5.04,1.68,9.07,1.45,12.82-2.15,7.43-7.14,16.48-8.61,26.46-9.25,39.85-2.54,79.66-5.79,119.48-8.78.86.75,2.05,1.26,2.27,2.04,3.22,11.57,11.39,16.4,22.76,16.98.33.02.66.12.99.16,19.29,2.04,36.79,8.4,51.85,21,2.99,2.5,6.72,4.12,10.84,6.58Z"/>
  <path class="st0" d="M1516.19,566.54c20.35-4.22,40.79-9.59,61.4-12.72,3.33,5.07.2,7.93-1.58,10.85-5.91,9.66-12.01,19.21-18.04,28.8-12.94,20.6-26.04,41.09-38.69,61.86-3.48,5.71-7.33,8.33-14.3,8.39-76.31.73-152.62,1.87-228.93,2.61-5.42.05-10.81-2.45-16.3-3.17-9.57-1.27-19.2-2.1-28.82-3.07-23.82-2.42-47.65-4.82-72.64-7.34-2.07-8.34-4.19-16.98-6.38-25.61-.97-3.81-1.6-7.8-3.19-11.34-8.17-18.24-16.62-36.35-24.94-54.52-.8-1.74-1.39-3.57-2.45-6.36,11.6-2.28,22.51-4.46,33.43-6.58,27.14-5.25,54.34-10.19,81.38-15.9,7.65-1.62,14.5.56,21.67,1.45,28.1,3.48,56.16,7.2,84.27,10.65,7.47.92,13.82,3.51,19.85,8.23,18.63,14.58,37.84,28.41,56.41,43.06,6.56,5.18,12.48,7.02,20.92,4.8,17.7-4.65,35.62-8.74,53.67-11.62,12.04-1.92,17.61-9.24,21.67-19.2.37-.9.84-1.76,1.58-3.28Z"/>
  <path class="st0" d="M1862.45,828.44c-4.67-3.28-7.68-5.12-10.39-7.34-20.87-17.11-41.03-35.2-62.81-51.06-10.08-7.34-13.91-15.69-15.2-26.92-.88-7.59-2.36-15.15-4.13-22.59-.63-2.64-2.32-5.66-4.46-7.21-12.68-9.16-25.64-17.94-39.09-27.25-8.57,4.44-17.07,8.93-25.65,13.24-3.04,1.53-4.37,3.68-4.41,7.08-.15,15.33-.57,30.66-.55,45.98,0,2.38,1.24,5.24,2.84,7.05,6.4,7.23,13.26,14.06,19.77,21.2,2.56,2.81,5.18,3.53,8.87,2.56,9.66-2.53,19.42-4.67,29.12-7.06,4.13-1.01,7.54-.87,10.79,2.7,23.55,25.88,47.27,51.6,70.9,77.41.84.92,1.28,2.21,2.17,3.81-10.8,11.51-21.59,22.79-32.08,34.34-2.9,3.19-4.91,7.19-8.42,12.44-24.66-2.24-51.07-4.64-76.47-6.95-3.58-6.16-6.31-11.43-9.57-16.34-14.55-21.93-29.22-43.79-43.92-65.62-5.39-8-9.92-16.19-12.88-25.61-6.67-21.28-14.43-42.22-22.06-63.18-2.72-7.47-3.41-14.54-1.22-22.38,4.02-14.42,7.34-29.06,10.55-43.69,1.31-5.97,4.58-9.73,9.36-13.37,10.89-8.28,22.54-13.56,36.41-14.3,8.61-.46,17.25-1.88,25.68-3.79,8.21-1.86,15.71-.33,23.41,2.1,26.04,8.22,52.11,16.32,78.23,24.28,5.27,1.61,8.81,4.26,12.23,8.97,10.17,14,21.27,27.35,32.38,40.65,4.7,5.62,6.44,10.79,5.87,18.69-2.1,29.57-2.55,59.25-3.73,88.88-.15,3.77-.88,7.52-1.59,13.29Z"/>
  <path class="st0" d="M516.82,1152.61c12.07-7.03,21.05-.14,30.28,5.96,4.14,2.74,8.44,5.24,13.37,8.27,18.98-12.41,37.86-24.74,57.22-37.39,16.64,9.4,33.19,18.59,49.52,28.14,2.32,1.36,3.94,4.32,5.27,6.86,4.96,9.43,9.51,19.07,14.54,28.46,2.24,4.18,5.25,7.95,8.6,12.92-2.43,3.84-5.57,8.79-9.35,14.77-11.28-1.64-23.08-3.27-34.85-5.09-18.75-2.9-37.5-5.87-56.22-8.97-4.52-.75-8.23-.21-12.08,2.7-12.74,9.61-25.78,18.82-39.53,28.78-9.32-3.17-19.19-7.22-29.42-9.89-29.87-7.78-55.95-22.06-79.1-42.5-13.21-11.66-27.64-21.97-41.75-32.57-4.63-3.48-6.16-6.43-3.89-12.45,6.22-16.5,11.38-33.39,17.18-50.05,1.5-4.32,2-8.07-.41-12.36-11.22-20.04-22.08-40.28-33.33-60.31-1.34-2.39-3.97-4.4-6.46-5.73-3.75-2.02-7.91-3.29-12.59-5.16-1.41-14.11-2.77-28.32-4.29-42.52-.51-4.75,1.55-7.27,5.79-9.14,14.92-6.6,29.65-13.63,44.58-20.21,8.16-3.6,10.28-2.65,13.61,5.73,12.89,32.49,26.05,64.89,38.2,97.66,3.27,8.82,7.23,17.01,11.96,24.98,15.64,26.35,31.23,52.73,46.86,79.08,1.84,3.1,3.84,6.1,6.32,10.01Z"/>
  <path class="st0" d="M378.26,667.96c-1.23,4.57-3.81,4.23-7.61,3.54-25.85-4.68-51.76-9.03-77.66-13.45-.62-.11-1.3.18-2.88.43,1.32,2.06,2.21,4.01,3.58,5.52,10.99,12.07,22.28,23.87,33.02,36.15,3.52,4.02,7.46,6.21,12.44,7.41,16.82,4.08,33.58,8.41,50.41,12.45,4.72,1.13,7.92,3.19,10.86,7.48,6.31,9.21,13.81,17.6,21.3,26.93-7.76,3.17-14.18-1.74-20.93-2.87-6.81-1.13-13.44-3.32-22.17-5.57,2.59,3.08,3.76,4.82,5.27,6.19,10.38,9.38,20.93,18.58,31.18,28.09,2.29,2.12,4.25,5.05,5.31,7.98,5.06,14.1,10.08,28.22,14.41,42.55,1.69,5.58,1.56,11.73,2.16,17.62,1.16,11.26,2.31,22.53,3.34,33.8.25,2.74.04,5.53.04,10.44-3.71-2.6-5.87-3.47-7.1-5.06-22.43-28.97-44.78-58-67.03-87.12-1.77-2.32-2.88-5.22-3.93-7.99-5.43-14.32-10.71-28.69-16.1-43.02-1.02-2.71-2.33-5.31-3.96-9-25.66,14.77-50.66,29.15-76.84,44.22-7.15-8.99-14.28-17.96-21.83-27.45-22.87,12.07-45.18,23.85-67.51,35.61-21.94,11.55-43.71,23.44-67.99,35.69.46-4.85.26-7.02.94-8.88.79-2.14,2.33-4.02,3.57-5.99,25.46-40.25,50.84-80.55,76.51-120.66,3.41-5.33,5.31-10.58,4.88-16.77-.65-9.29,1.98-17.37,7.05-25.35,11.25-17.7,21.64-35.95,32.43-53.94,5.53-9.22,7.34-9.76,16.56-4.28,36.35,21.62,72.61,43.39,108.97,64.99,6.17,3.67,12.67,6.78,19.3,10.29Z"/>
  <path class="st0" d="M1050.51,1198.07c-5.05.1-8.19.54-11.23.15-16.51-2.14-33.04-4.17-49.45-6.94-6.29-1.06-11.6-.23-17.25,2.44-40.34,19.04-80.77,37.89-121.18,56.76-3.2,1.49-6.53,2.7-9.81,4.05-5-9.87-.98-19.22-1.64-29.94-10.5,7.63-20.81,12.7-25.87,24.94-8.92,21.57-5.78,16.96-25.91,14.35-9.01-1.16-17.61-3-24.14-10.19-9.5-10.46-22.56-12.4-35.51-13.3-7.65-.53-10.8-4.01-13.4-10.61-7.32-18.58-15.44-36.84-23.02-55.32-1.97-4.81-4.8-8.46-9.08-11.46-13.37-9.36-26.34-19.3-39.84-28.46-5.62-3.81-6.95-7.79-5.32-14.24,4.4-17.42,8.17-35,12.3-52.5.58-2.44,1.82-4.71,3.2-8.18,3.42,2.7,6.03,4.57,8.43,6.69,22.45,19.87,44.74,39.93,67.35,59.61,6.22,5.41,13.26,9.91,20.1,14.55,19.26,13.08,40.73,20.41,63.28,25.91,18.58,4.53,36.75,6.95,56.06,6.27,24.83-.88,47.7-5.27,69.37-18.05,17.74-10.46,36.76-18.76,55.26-27.92,7.59-3.76,8.85-3.6,13.25,2.95,13.75,20.45,27.3,41.04,40.89,61.6.88,1.33,1.37,2.9,3.18,6.83Z"/>
  <path class="st0" d="M915.08,1234.33c2.6-1.18,5.19-2.41,7.83-3.56,19.24-8.38,38.55-16.59,57.67-25.24,4.83-2.19,9.27-2.69,14.39-1.69,19.94,3.88,39.93,7.48,59.91,11.16,1.94.36,3.9.58,7.18,1.06,1.57-6.06,3.05-12.05,4.68-17.99,6.61-24.14.27-18.03,24.18-28.27,23.88-10.23,47.9-20.12,71.78-30.35,4.45-1.91,8.53-2.41,13.4-1.44,15.02,2.99,30.18,5.29,45.26,7.98,3.51.63,6.93,1.72,11.45,2.87-1.29,3.28-1.91,5.79-3.18,7.91-17.5,29.13-35.1,58.2-52.62,87.32-1.76,2.93-3.49,4.96-7.4,5.7-36.32,6.84-72.58,13.97-108.84,21.11-33.65,6.63-67.3,13.31-100.9,20.17-5.43,1.11-9.51.96-12.82-4.36-10.22-16.39-20.8-32.57-31.18-48.86-.49-.77-.42-1.88-.76-3.52Z"/>
  <path class="st0" d="M155.33,1198.12c4.75,5.11,8.5,8.81,11.83,12.84,2.92,3.53,6.2,5.59,10.92,5.97,18.92,1.52,37.83,3.24,56.73,5.07,4.34.42,7.69-.9,10.91-3.66,5.54-4.75,11.28-9.27,18.2-14.91,23.45,9.16,47.84,18.69,73.09,28.55,4.95-4.87,10.04-9.89,15-14.78,10.18,7.67,46.57,49.38,49.04,56.33-2.14-.19-4.04-.01-5.73-.55-31.07-9.93-61.99-20.4-93.25-29.69-11.04-3.28-22.94-5.11-34.41-4.96-6.99.09-13.91,5.21-21.43,8.31,5.33,28.77,10.47,56.49,15.74,84.94,12.99,3.65,25.96,6.64,38.45,11,12.06,4.21,23.8,4.61,36.21,2.13,12.39-2.47,25.03-3.68,37.54-5.55,3.03-.45,5.93-1.28,8.01,1.96,5.51,8.61,11.07,17.2,16.76,26.04-6.84,6.57-14.76,9.43-22,13.2-6.18,3.22-10.81,7.25-13.76,13.69-3.05,6.64-7.05,12.84-10.4,19.35-1.92,3.75-4.62,5.28-8.82,4.94-16.6-1.34-33.22-2.4-49.81-3.9-2.77-.25-5.64-1.8-8.05-3.39-14.74-9.72-29.26-19.76-44.04-29.42-7.29-4.77-13.09-10.21-17.61-18.14-11.21-19.66-23.67-38.62-35.91-57.67-17.55-27.32-28.61-57.84-43.14-86.65-1.54-3.05-1.41-5.62.64-8.32,2.79-3.67,5.43-7.45,9.27-12.75Z"/>
  <path class="st0" d="M783.7,539.92c-4.04-6.7-7.45-12.79-11.29-18.59-2.73-4.12-3.01-7.46.17-11.67,17.57-23.31,11.94-19.65,37.2-16.25,25.72,3.46,51.39,7.35,77.14,10.57,32.34,4.04,64.75,7.53,97.11,11.4,3.56.43,7.19,1.37,10.49,2.77,30.33,12.85,60.52,26.04,90.93,38.69,6.69,2.78,11,6.81,13.63,13.43,2.71,6.79,5.91,13.4,9.18,19.94,3.02,6.04,2.57,11.12-1.99,16.45-6.67,7.8-12.69,16.14-19.48,24.9-17.12-2.71-34.75-6.28-52.55-8.03-11.22-1.1-20.14-5.38-28.38-12.4-13.56-11.55-29.05-19.7-45.45-26.55-27.01-11.29-53.68-23.4-80.63-34.85-5.08-2.16-10.71-3.69-16.19-4.12-24.89-1.96-49.81-3.41-74.72-5.06-1.65-.11-3.29-.39-5.17-.61Z"/>
  <path class="st0" d="M781.71,900.16c-2.97,1.83-4.84,3.17-6.86,4.21-15.67,8.09-31.4,16.04-47.03,24.21-5.17,2.7-10.43,3.92-16.29,3.62-20.27-1.03-40.56-1.81-60.84-2.7-1.66-.07-3.34-.15-4.97-.42-6.53-1.08-7.88-2.41-7.62-9.17.56-14.63,1.38-29.25,2.2-43.87,1.71-30.57,3.49-61.13,5.27-91.7.11-1.98.43-3.94.75-6.76,11.58-4.08,22.45-9.08,36.11-6.65,24.18,4.3,48.73,6.5,73.64,9.65.37,2.51.94,4.7.99,6.9.38,16.97.4,33.95,1.14,50.91.24,5.47,1.6,11.15,3.67,16.24,4.89,12.01,10.55,23.7,15.84,35.55,1.33,2.98,2.44,6.06,4.01,9.99Z"/>
  <path class="st0" d="M981.37,1010.09c10.62-6.14,21.3-12.01,31.64-18.44,4.43-2.76,8.61-6.26,12.07-10.17,7.72-8.72,15.2-17.7,22.19-27.01,2.87-3.82,5.34-8.57,6.14-13.22,5.71-33.13,11.13-66.3,16.16-99.54,1.18-7.78.94-15.85.6-23.75-.86-20.29-2.26-40.56-3.19-60.85-.29-6.22-2.25-11.43-5.9-16.51-16.12-22.45-32-45.07-47.8-67.75-2.31-3.31-7.34-6.65-4.12-11.21,2.86-4.06,7.45-.76,11.08.19,29.29,7.73,20.76,1.98,38.52,25.97,16.84,22.75,33.32,45.77,50.07,68.58,3.01,4.1,4.97,8.21,5.72,13.44,3.69,25.69,7.19,51.46,12.25,76.9,2.31,11.6,1.45,21.92-2.35,32.81-4.82,13.81-8.34,28.08-13.05,41.93-1.65,4.84-4.4,9.77-7.92,13.44-21.91,22.82-44.27,45.21-66.26,67.96-3.98,4.12-8.23,6.14-13.85,6.62-11.93,1.02-23.81,2.53-35.72,3.84-2.71.3-5.34.42-6.3-3.25Z"/>
  <path class="st0" d="M812.98,655.05c-16.78,24.98-33.2,49.44-49.74,74.07-11.72-3.97-22.48-7.36-32.99-11.38-2.42-.93-4.89-3.7-5.85-6.2-5.94-15.43-17.39-23.63-33.22-26.38-7.11-1.24-12.88-4.99-18.66-8.98-12.26-8.48-24.65-16.76-38.02-25.82,6.84-7.51,15.02-11.96,22.26-17.48,7.67-5.85,15.59-11.38,23.41-17.05,7.54-5.48,15.08-10.95,22.62-16.43,7.81-5.68,15.5-11.53,23.46-16.98,7.54-5.17,14.18-11.82,23.74-15.74,1.8,3.63,3.35,6.46,4.65,9.4,5.49,12.49,11.05,24.95,16.29,37.54,2.24,5.37,5.34,9.75,9.9,13.43,8.29,6.69,16.28,13.75,24.34,20.71,2.46,2.13,4.76,4.44,7.82,7.31Z"/>
  <path class="st0" d="M448.69,1390.75c-2.77-1.16-5.85-1.89-8.27-3.57-9.54-6.61-18.95-13.41-28.21-20.41-2.02-1.53-3.33-4.1-4.74-6.33-6.54-10.42-12.99-20.9-19.83-31.94-14.94,2.14-29.86,3.5-44.41,6.58-13.12,2.77-25.4,2.17-38-2.28-10.9-3.85-22.25-6.43-33.19-9.51.65-24.85-4.86-48.53-4.9-74.06,3.14,1.62,4.91,2,5.79,3.09,3.23,3.99,7.34,4.41,11.72,3.1,13.13-3.91,25.26-1.14,37.78,3.63,25.19,9.61,50.75,18.23,76.23,27.06,5.36,1.86,8.72,4.72,11.1,10.18,11.96,27.47,24.46,54.71,36.73,82.05,1.47,3.27,2.73,6.64,4.09,9.96-.63.82-1.26,1.64-1.88,2.45Z"/>
  <path class="st0" d="M816.57,944.35c2.01,3.22,4.36,6.27,5.95,9.68,4.48,9.56,11.07,17.12,19.31,23.72,12.47,9.99,24.43,20.63,36.56,31.04,7.18,6.17,7.17,6.23,2.78,14.95-4.64,9.22-9.15,18.51-14.1,27.56-1.48,2.71-3.85,5.44-6.5,6.9-10.5,5.77-21.38,10.84-31.89,16.6-4.45,2.44-7.87,1.9-11.94-.71-30.55-19.6-61.22-39.02-91.81-58.56-1.85-1.18-3.31-2.97-6.43-5.85,3.75-.47,5.79-1.13,7.72-.9,12.89,1.55,25.78,3.16,38.63,5.02,5.88.85,10.95,0,16-3.49,8.21-5.67,16.8-10.82,25.41-15.89,3.89-2.29,5.52-5.16,5.51-9.68-.01-10.32.31-20.65.72-30.97.12-3.01.99-5.99,1.52-8.98.86-.15,1.71-.31,2.57-.46Z"/>
  <path class="st0" d="M808.29,552.42c2.99-.18,5.19-.57,7.35-.4,15.61,1.25,31.21,2.55,46.81,3.99,2.25.21,4.54.94,6.61,1.87,16.43,7.32,32.74,14.9,49.24,22.06,5.16,2.24,9.25,5.09,11.33,10.43,3.56,9.17,10.62,13.5,19.93,16.05,13.15,3.6,26.06,8.16,38.88,12.84,4.87,1.78,9.58,4.55,13.69,7.74,7.37,5.7,14.3,11.99,21.27,18.19,1.99,1.77,3.5,4.09,6.42,7.59-4.38.59-6.53,1.06-8.7,1.13-2.99.1-6-.17-8.99-.15-16.48.13-32.5-1.95-47.65-9.02-28.25-13.19-58.89-16.03-89.17-20.52-4.09-.61-8.32-2.23-11.85-4.41-9.06-5.61-19.04-10.57-26.24-18.09-7.17-7.5-11.58-17.7-16.87-26.92-4.05-7.06-9.44-13.47-12.06-22.37Z"/>
  <path class="st0" d="M1008.71,1026.12c-1.79,2.53-3.38,5.23-5.4,7.55-7.87,9.02-15.71,18.08-23.91,26.79-3.55,3.77-4.76,7.49-3.71,12.57,1.35,6.5,1.73,13.19,3.03,19.7.86,4.3-.6,7.05-4.01,9.23-.84.54-1.62,1.17-2.46,1.7-6.99,4.47-13.59,11.54-21.08,12.67-7.44,1.11-15.81-3.63-23.7-6.04-9.21-2.82-18.42-5.69-27.49-8.93-7.08-2.52-8.25-5.65-2.99-10.8,14.48-14.2,22.2-32.14,29.06-50.53,2.59-6.93,6.49-9.51,13.74-10.06,17.23-1.3,34.38-3.58,51.58-5.33,5.23-.53,10.49-.66,15.74-.97l1.6,2.44Z"/>
  <path class="st0" d="M1546.78,1123.69c-4.67,2.96-6.75,4.54-9.05,5.69-12.21,6.11-24.59,11.91-36.67,18.26-4.66,2.45-8.48,2.02-13.13.09-16.93-6.99-33.95-13.76-51.12-20.14-4.15-1.54-9.08-2.26-13.44-1.72-20.49,2.55-40.9,5.68-61.34,8.61-1.32.19-2.67.77-3.93.61-1.83-.23-3.59-.97-5.38-1.49.66-2.01.69-4.8,2.07-5.92,12.43-10.06,24.99-19.97,37.81-29.54,2.1-1.57,5.63-1.81,8.47-1.7,24.3.99,48.6,2.19,72.89,3.4,2.29.11,4.64.54,6.83,1.23,18.74,5.9,37.46,11.85,56.15,17.91,2.63.85,5.04,2.38,9.85,4.7Z"/>
  <path class="st0" d="M783.5,1326.88c.49-3.21.46-6.38,1.48-9.17,3.67-9.99,7.54-19.91,11.67-29.71,1.24-2.95,3.19-5.88,5.52-8.04,5.36-4.96,11.19-9.43,16.79-14.14,4.31-3.62,8.41-4.63,13.27-.53,3.78,3.2,8.24,5.59,13.22,8.89,6.32-5.07,12.88-10.04,19.08-15.42,3.86-3.35,7.45-3.79,12.61-2.93,14.09,2.36,24.52,8.66,30.39,22.15,2.31,5.32,5.89,10.08,8.85,15.03-7.32,4.78-121.42,33.84-132.89,33.86Z"/>
  <path class="st0" d="M1058.88,1074.56c-3.53-4.73-5.33-6.63-6.53-8.85-4.9-9.08-9.54-18.3-14.44-27.38-1.84-3.41-2.94-6.68-.95-10.36.31-.57.54-1.3.47-1.92-1.58-13.75,7.21-21.53,16.24-29.67,14.6-13.14,28.62-26.91,42.92-40.39,2.3-2.16,4.75-4.16,8.5-7.42.69,4.12,1.51,6.24,1.31,8.27-1.7,17.56-3.53,35.1-5.46,52.64-.25,2.25-.7,4.78-1.94,6.57-12.14,17.49-24.47,34.85-36.71,52.27-.96,1.37-1.63,2.95-3.42,6.24Z"/>
  <path class="st0" d="M1468.29,1154.92c-5.42,2.09-8.57,3.64-11.89,4.53-28.27,7.6-56.55,15.13-84.88,22.48-2.25.58-5.5.45-7.28-.8-18.03-12.66-16.65-8.72-12.32-28.46,2.03-9.23,2.16-9.28,11.6-10.71,15.13-2.3,30.24-4.7,45.39-6.92,2.56-.37,5.43-.69,7.79.07,15.19,4.91,30.3,10.09,45.39,15.3,1.42.49,2.56,1.82,6.21,4.51Z"/>
  <path class="st0" d="M104.67,1106.22c7.96,2.26,31.4,25.07,42.72,41.32-9.18,11.12-6.84,22.73.06,34.48,1.92,3.27,5.11,7.71,1.68,11.04-4.4,4.29-9.95,7.52-15.36,10.55-.99.56-4.29-1.54-5.56-3.17-10.25-13.13-20.3-26.43-30.32-39.74-.95-1.27-1.96-3.01-1.86-4.47.7-10.44-2.69-21.2,3-31.32,1.88-3.35,1.91-7.72,2.99-11.56.69-2.46,1.76-4.81,2.64-7.14Z"/>
</svg>