<?xml version="1.0" encoding="UTF-8"?>
<svg id="Layer_0_xA0_Image" xmlns="http://www.w3.org/2000/svg" version="1.1" viewBox="0 0 2732 2048">
  <!-- Generator: Adobe Illustrator 30.2.1, SVG Export Plug-In . SVG Version: 2.1.1 Build 1)  -->
  <defs>
    <style>
      .st0 {
        fill: #636361;
      }
    </style>
  </defs>
  <path class="st0" d="M793.96,1346.29c5.14-6.34,9.86-12.21,14.62-18.04q10.51-12.9,26.56-9.29c10.7,2.43,22.4,3.08,31.76,8.07,9.05,4.83,15.69,14.19,23.36,21.59,30.71,29.61,61.4,59.25,92.14,88.83,3.64,3.5,6.5,7.07,7.91,12.28,2.38,8.78,7.56,15.77,14.82,21.82,29.94,24.98,59.35,50.59,89.21,75.67,6.33,5.32,11.63,10.99,13.38,19.12,1.67,7.77,6.31,10.52,13.95,11.31,22.19,2.3,44.28,5.67,66.49,7.77,7.33.69,13.27,3.7,19.54,6.67,26.8,12.68,53.64,25.26,80.46,37.89,10.85,5.11,21.5,10.69,32.59,15.21,11.43,4.66,20.33,11.91,28.38,21.19,21.61,24.93,43.84,49.32,65.79,73.95,2.39,2.69,4.55,5.59,7.38,9.08-7.25,9.02-16.23,15.41-24.23,22.78-7.81,7.2-15.87,14.14-23.82,21.19.3.59.61,1.17.91,1.76,17.36-7.34,34.73-14.69,53.11-22.46,1.26,1.53,3.23,3.26,4.39,5.42,32.01,59.57,63.94,119.18,95.85,178.81.6,1.12.84,2.43,1.22,3.55-8.08,5.67-8.98,5.63-14.84-.08-1.18-1.15-2.58-2.1-3.95-3.04-28.03-19.22-56.07-38.43-84.13-57.61-1.03-.71-2.25-1.13-4.94-2.46,1.5,3.68,2.27,6.04,3.39,8.22,10.79,21.05,21.63,42.07,32.46,63.09.76,1.48,1.51,2.97,2.27,4.45,1.68,3.29,4.02,6.95.32,9.93-3.51,2.83-6.14-.77-8.62-2.68-15.3-11.81-30.51-23.74-45.77-35.6-1.52-1.18-3.21-2.15-6.08-4.06.68,2.87.86,4.43,1.41,5.84,7.28,18.59,14.61,37.15,21.93,55.73.36.92,1.24,1.98,1.03,2.73-.51,1.74-1.25,3.63-2.5,4.81-.46.43-3.05-.63-3.98-1.65-2.68-2.92-4.76-6.41-7.51-9.25-46.46-47.8-92.98-95.54-139.5-143.28-2.5-2.56-5.06-5.05-8.94-8.92-13.22,52.55-26.02,103.42-39.11,155.41-1.61-1.07-3.63-1.84-4.77-3.31-1.39-1.79-2.06-4.15-3.01-6.28-10.89-24.32-21.94-48.57-32.56-73-2.71-6.22-6.33-9.94-13-12.29-81.62-28.88-163.12-58.1-244.63-87.29-2.1-.75-4.51-1.79-5.82-3.46-26.44-33.67-61.81-57.61-93.31-85.75-21.84-19.51-45.73-36.69-65.83-58.17-9.07-9.7-18.68-18.98-26.94-29.33-39.29-49.23-78.15-98.8-117.36-148.09-3.65-4.58-8.35-8.57-13.22-11.88-12.4-8.42-25.17-16.29-37.78-24.41-1.64-1.05-3.18-2.24-5.26-3.71,1.09-1.97,1.62-4.03,2.94-5.12,9.51-7.84,19.3-15.36,28.76-23.26,3.84-3.2,6.9-2.66,10.67,0,11.7,8.26,23.59,16.27,35.36,24.45,1.6,1.11,4.01,2.55,4.16,4.03.88,8.82,7.74,13.73,12.59,19.79,38.13,47.6,76.43,95.06,114.85,142.43,3.5,4.31,7.76,8.29,12.37,11.39,52.54,35.31,105.3,70.32,157.78,105.73,6.27,4.23,11.16,4.92,17.56-1.29-3.09-2.14-5.92-4.16-8.81-6.08-56.58-37.68-113.19-75.3-169.69-113.1-4.33-2.9-8.42-6.57-11.66-10.65-40.57-51.19-80.93-102.55-121.47-153.77-2.39-3.02-5.63-5.63-8.97-7.57-15.84-9.2-31.95-17.95-47.74-27.24-3.55-2.09-7.08-5.19-9.1-8.69-5.3-9.19-4.83-9.84,3.39-17.2,6.95-6.22,13.88-12.48,20.68-18.87,4.39-4.12,8.93-5.6,14.32-2.03.82.54,1.8.86,2.71,1.27,10.58,4.75,20.34,9.99,28.88,18.68,17.72,18.05,37.16,34.41,55.63,51.73,5.53,5.19,10.66,10.94,15.24,16.99,31.79,41.97,63.37,84.1,95.11,126.11,1.96,2.6,4.43,5.01,7.13,6.81,57.87,38.74,115.8,77.39,173.73,116.04,1.09.72,2.29,1.28,4.02,2.24,1.37-2.3,2.66-4.46,4.2-7.04-2.42-1.82-4.44-3.51-6.61-4.95-56.47-37.24-112.98-74.41-169.37-111.77-3.77-2.5-7.09-6.02-9.85-9.65-31.87-41.91-63.55-83.97-95.4-125.89-3.19-4.2-6.96-8.02-10.83-11.61-15.4-14.27-30.97-28.36-46.42-42.58-2.1-1.94-3.84-4.27-6.52-7.28,2.99-1.52,4.84-3.22,6.77-3.32,19.3-1.04,38.61-2,57.93-2.45,2.8-.06,6.12,2.19,8.42,4.24,55.61,49.81,111.15,99.69,166.59,149.7,5.36,4.83,10.78,8.77,18.22,9.3,20.22,1.43,34.41,12.28,47.65,27.15,29.48,33.08,60.46,64.82,90.67,97.27,3.86,4.15,7.25,6.18,12.91,3.49,4.69-2.24,9.87-3.46,15.97-5.51-2.87-3.27-4.9-5.78-7.13-8.1-35.65-36.92-71.02-74.13-107.22-110.51-9.48-9.52-17.63-19.79-25.44-30.51-32.94-45.27-65.88-90.54-98.69-135.91-3.8-5.25-8.16-9.42-13.85-12.58-10.48-5.82-20.73-12.07-31.02-18.22-1.92-1.14-3.62-2.64-6.62-4.85Z"/>
  <path class="st0" d="M1054.75,760.87c52.95-.92,104.41-1.82,156.79-2.74,2.29,3-.03,6.68-1.15,10.32-13.67,44.2-27.35,88.4-41.06,132.59-35.13,113.17-70.27,226.34-105.41,339.51-.79,2.54-1.4,5.17-2.48,7.59-.63,1.4-2.18,3.62-3.06,3.5-7.83-1.02-11.03,5.48-15.41,9.51-30.64,28.2-61.06,56.64-91.52,85.05-2.67,2.49-4.97,5.36-7.55,7.93-2.52,2.52-5.14,2.77-7.53-.24-15.33-19.24-30.62-38.52-45.99-57.73-6.24-7.8-12.68-15.45-18.99-23.2-8.59-10.55-8.69-11.78-1.37-23.64,18.2-29.47,36.36-58.97,54.74-88.33,5.49-8.78,9.91-17.77,12.89-27.84,9.33-31.6,19.52-62.95,29.36-94.4,28.44-90.85,56.86-181.7,85.35-272.54.76-2.42,2.09-4.67,2.4-5.34Z"/>
  <path class="st0" d="M840.44,574.5c1.25-5.25,1.68-8.39,2.74-11.3,30.6-84.15,61.18-168.3,92.09-252.33,1.96-5.34,6.33-9.91,10.04-14.47,17.45-21.44,35.06-42.76,52.61-64.12,19.45-23.68,38.92-47.35,58.34-71.06,3.17-3.87,5.96-7.84,12.02-7.4,2.01.15,4.21-1.77,6.27-2.85,36.27-19.02,72.51-38.09,108.82-57.02,2.86-1.49,6.12-2.57,9.31-3.02,33.62-4.72,67.27-9.24,100.91-13.9,20.11-2.79,40.2-5.76,60.32-8.54,2.51-.35,5.12-.05,7.84-.05,1.96,6.85-2.52,9.51-6.47,12.42-22.79,16.79-45.59,33.58-68.39,50.36-43.46,31.99-86.87,64.03-130.43,95.87-5.35,3.91-8.75,8.58-11.26,14.67-35.48,86.19-71.15,172.3-106.8,258.42-1.38,3.33-2.91,6.59-4.37,9.88-25.85,2.09-51.03,4.38-76.25,6-7.67.49-13.02,2.56-16.77,9.8-4.43,8.54-10.13,16.43-15.23,24.63-2.33,3.75-4.31,6.99-10.06,6.05-3.66-.6-7.76,1.37-11.63,2.32-20.31,4.96-40.61,9.97-63.66,15.63Z"/>
  <path class="st0" d="M785.07,849.27c3.66,0,7.32-.09,10.97.02,6.65.19,13.29.57,19.94.73,7.99.19,15.99.16,23.99.39,3.2.09,6.39.61,9.37.91,2.14,6.26-.63,10.68-2.49,15.17-31.27,75.35-62.58,150.68-93.88,226.01-18.78,45.2-38.23,90.14-55.94,135.76-4.8,12.38-11.95,21.66-20.85,30.61-73.29,73.74-146.57,147.48-219.54,221.53-6.61,6.71-13.61,10.83-22.56,13.24-50.15,13.48-100.2,27.37-150.3,41.05-3.38.92-6.92,1.3-10.41,1.93-2.5-5.47.82-7.67,3.44-9.97,10.52-9.23,21.11-18.38,31.67-27.56,71.16-61.87,142.31-123.75,213.5-185.59,4.51-3.92,9.58-7.2,13.94-11.26,2.58-2.4,4.58-5.57,6.31-8.69,47.22-85.02,94.38-170.08,141.54-255.14,31.98-57.68,63.97-115.34,95.85-173.07,2.34-4.23,3.84-8.91,5.74-13.39-.1-.89-.19-1.79-.29-2.68Z"/>
  <path class="st0" d="M1288.45,1600.07c-3.42-1.08-6.57-2.01-9.69-3.06-44.8-15.13-89.47-30.65-134.47-45.16-10.76-3.47-19.84-8.64-28.59-15.39-31.14-24.01-62.32-47.97-93.84-71.47-6.11-4.56-8.52-9.21-7.9-16.66.68-8.2.15-16.5.15-25.68,3.04-.96,6.42-2.13,9.87-3.1,58.64-16.55,117.3-33.06,175.93-49.65,5.33-1.51,10.93-2.19,14.9-7.19,1.62-2.04,5.3-2.53,8.11-3.55,50.08-18.2,100.14-36.43,150.28-54.45,4.27-1.54,9.03-2.34,13.58-2.41,26.32-.36,52.64-.4,78.96-.5.59,0,1.18.52,1.8.81,2.05,4.31-1.38,5.8-3.95,7.85-23.45,18.69-46.76,37.58-70.4,56.03-5.63,4.4-7.94,8.42-6.15,15.91,3.47,14.56,5.59,29.43,8.35,44.16,1.5,8-.16,14.42-6.12,20.74-20.11,21.34-39.56,43.3-59.26,65.03-3.08,3.39-6.79,6.37-5.57,11.94.3,1.36-.97,3.11-1.66,4.62-10.23,22.06-20.46,44.12-30.77,66.14-.81,1.72-2.2,3.17-3.56,5.07Z"/>
  <path class="st0" d="M1049.59,1338.61c4.11-5,7.6-9.83,11.67-14.1,40.67-42.72,81.38-85.39,122.23-127.93,4.79-4.99,7.66-10.22,8.94-17.22,19.49-106.78,39.28-213.5,58.98-320.24,7.49-40.6,14.88-81.22,22.45-121.81.69-3.69,2.39-7.19,4.17-12.36,3.22,3.06,5.35,4.56,6.81,6.55,30.03,41.19,59.94,82.47,90,123.63,2.58,3.53,3.28,6.95,2.73,11.16-7.7,59.11-15.4,118.22-22.88,177.36-3.76,29.72-6.91,59.51-10.75,89.21-.42,3.22-3.1,6.46-5.42,9.09-32.23,36.45-64.57,72.79-96.89,109.15-8.41,9.46-16.93,18.84-25.2,28.43-3.59,4.17-7.74,6.98-12.96,8.84-47.67,17-95.26,34.22-142.92,51.24-3.08,1.1-6.6,3.94-10.96-1Z"/>
  <path class="st0" d="M662.75,1338.56c2.47-4.99,4.01-8.86,6.17-12.34,48.83-79.06,97.74-158.07,146.59-237.12,5-8.09,9.15-16.06,10.85-26.11,3.92-23.26,10.25-46.12,15.63-69.13,23.88-102.1,47.85-204.17,71.47-306.33,1.76-7.6,5.2-11.38,12.56-13.25,20.96-5.33,41.79-11.2,62.69-16.77,9.47-2.52,11.09-1.27,10.02,7.92-5.93,50.6-11.94,101.19-17.91,151.79-.35,2.98-.68,5.96-.94,8.94-1.24,14.31-4.3,28.09-9.12,41.73-34.74,98.23-69.41,196.5-103.23,295.05-4.31,12.56-10.36,23.46-17.57,34.14-31.33,46.37-62.82,92.63-93.84,139.2-5.31,7.98-11.21,11.1-20.71,10.03-21.51-2.41-43.11-4.02-64.66-6.02-1.93-.18-3.82-.8-8.01-1.72Z"/>
  <path class="st0" d="M458.6,1839.22c5.03-5.18,9.26-8.64,12.39-12.91,8.66-11.82,16.85-23.98,25.26-35.98,6.39-9.12,6.46-9.27,17.18-5.62,19.22,6.55,38.36,13.32,57.54,20,9.12,3.17,18.31,6.14,27.31,9.61,3.46,1.33,6.47,3.82,9.68,5.79-.11.88-.22,1.75-.33,2.63-3.59.98-7.12,2.43-10.77,2.85-20.84,2.39-41.71,4.5-62.57,6.77-4.25.46-8.47,1.2-13.71,1.96,2.57,18.61,5.05,36.55,7.6,54.99,14.29,1.58,27.8,3.09,41.32,4.57,1.99.22,3.99.26,5.98.49,17.74,2.08,13.12,4.33,23.01-11.67,15.23-24.65,30.36-49.36,45.3-74.18,3.52-5.85,7.83-10.24,13.81-13.77,39.85-23.56,79.48-47.47,119.19-71.26,9.69-5.81,9.76-5.83,18.17,1.29,23.14,19.59,46.25,39.2,69.33,58.85,8.5,7.24,8.54,7.86,1.33,16.82-15.66,19.46-31.48,38.8-47.04,58.35-3.23,4.06-5.23,9.1-8.5,13.12-1.61,1.98-4.71,3.4-7.33,3.82-18.08,2.87-36.21,5.43-54.33,8.05-10.21,1.48-20.41,3.11-30.66,4.27-5.89.67-10.59,2.89-15.02,6.89-30.89,27.93-62.03,55.58-92.88,83.54-4.51,4.09-9.01,5.95-15.11,5.94-17.32-.03-34.64.55-51.96.9-2,.04-4.43-.61-5.92.29-8.41,5.06-13.56-.92-19.27-5.23-13.83-10.43-27.54-21.02-41.53-31.22-4.67-3.41-6.32-6.74-6.45-13.01-.28-13.59-2.69-27.13-4.33-40.69-2.2-18.18-4.5-36.34-6.71-54.52-.15-1.27.1-2.6.06-1.74Z"/>
  <path class="st0" d="M1289.65,658.85c5.74-1.84,7.15,1.83,9.05,4.32,7.89,10.32,15.65,20.74,23.47,31.12,25.05,33.26,50.19,66.46,75.05,99.86,3.86,5.19,8,7.77,14.64,8.48,24.49,2.63,48.9,6.06,73.34,9.14,10.95,1.38,11.2,1.62,9.41,12.38-16.72,100.49-33.45,200.97-50.12,301.47-1.07,6.43-1.39,12.52.53,19.4,7.05,25.32,12.73,51.02,18.86,76.59.38,1.57.2,3.27.34,5.96-2.69.87-5.34,1.99-8.11,2.58-55.65,11.97-111.31,23.86-166.96,35.81-4.52.97-8.98,2.2-14.7,3.62,0-2.25-.59-4.47.14-6.1,1.06-2.37,3.04-4.34,4.67-6.44,28.63-36.81,57.2-73.68,86.01-110.36,4.13-5.25,6.01-10.69,6.58-17.26,5.05-57.73,10.38-115.43,15.56-173.14,3.12-34.83,6.03-69.68,9.29-104.49.44-4.7-.84-8.4-3.1-12.21-33.91-57.32-67.8-114.65-101.56-172.06-1.48-2.51-1.63-5.79-2.39-8.66Z"/>
  <path class="st0" d="M299.68,1657.99c4.38-13.55,8.33-26.2,12.69-38.72.66-1.88,3.03-3.47,4.97-4.55,18.6-10.41,37.21-20.82,56.01-30.87,3.7-1.98,8.22-2.54,12.43-3.45,18.23-3.91,36.51-7.61,54.73-11.6,7.14-1.57,13.7-.98,20.3,2.36,10.98,5.55,22.19,10.63,33.96,16.22,6.36-5.48,12.66-10.82,18.86-16.27,8.51-7.48,16.85-15.15,25.46-22.51,1.86-1.59,4.5-2.97,6.87-3.14,17.61-1.25,35.25-2.15,52.88-3.21,4.31-.26,7.75,1.02,10.41,4.61,6.95,9.36,14.33,18.43,20.89,28.06,1.75,2.58,2.49,7.28,1.39,10.11-3.73,9.6-8.5,18.79-12.85,28.15-.58,1.25-1.03,2.57-1.26,3.14-6.39-1.59-6.85-5.19-7.38-8.87-1.36-9.5-2.83-18.99-4.32-28.94-9.07-1.43-17.54-3.06-26.08-3.92-2.55-.26-6.03.88-7.86,2.65-8.36,8.12-16.22,16.76-24.4,25.07-2.42,2.46-2.82,4.81-1.68,8.06,5.62,16.01,11.04,32.09,16.77,48.86,13.1-.63,25.99-1.2,38.88-1.87,12.31-.65,24.61-1.58,36.93-2.03,6.48-.24,10.99-2.48,14.77-8.13,9.04-13.49,18.81-26.48,28.61-40.12,1.67.99,3.42,1.47,4.3,2.62,25.71,33.48,51.33,67.02,77.6,101.39-4.03,2.88-6.87,5.03-9.82,7.01-29.07,19.46-58.12,38.94-87.3,58.23-2.28,1.51-5.52,2.37-8.25,2.26-33.29-1.42-66.57-3.13-99.87-4.61-4.03-.18-6.83-1.74-9.37-4.72-16.44-19.27-33.09-38.36-49.36-57.77-2.13-2.54-3.55-6.54-3.56-9.86-.02-9.5-2.24-18.07-6.25-26.74-7.83-16.91-14.56-34.33-21.77-51.54-1.28-3.05-2.66-6.06-4.11-9.36-5.58-.46-10.86-1.04-16.15-1.31-18.64-.95-37.29-1.64-55.92-2.76-5.65-.34-10.24,1.13-14.88,4.27-20.41,13.83-41.01,27.39-61.54,41.04-4.42,2.94-8.84,5.88-15.72,2.75Z"/>
  <path class="st0" d="M1784.46,1046.28c3.63-9.2-.44-17.79-1.27-26.57-.65-6.95-2.03-13.84-3.37-20.7-.72-3.68.28-6.38,2.92-8.92,9.6-9.25,18.92-18.79,28.72-27.81,2.49-2.29,6.26-3.64,9.68-4.42,35.07-7.95,70.14-15.91,105.32-23.32,6.29-1.33,10.01-4.14,12.74-9.59,2.5-4.98,5.63-9.65,8.63-14.7,7.3,2.29,8.51,9.18,13.92,13.67,10.2-1.39,21.36-2.9,32.5-4.44,4.62-.64,9.21-1.49,13.84-1.98,4.58-.48,6.97-2.67,8.06-7.29,4.09-17.49,7.12-14.19,19.09-6.7,1.98,1.24,4.21,2.15,5.96,3.65,7.71,6.61,15.54,6.17,24.86,2.87,8.02-2.83,13.09-6.77,15.55-14.87,1.29-4.24,2.19-9.31,8.9-11.24,2.96,3.11,6.57,6.42,9.6,10.2,2.63,3.29,5.5,4.33,9.56,3.51,8.81-1.79,17.63-3.57,26.53-4.84,4.56-.65,7.03-3,8.99-6.81,2.71-5.26,5.78-10.34,9.5-16.93,4.64,4.42,8.59,7.74,12,11.56,3.05,3.41,6.25,4.67,10.58,3.04,1.86-.7,3.81-1.3,5.77-1.61,11.07-1.77,20.37-5.51,22.82-18.25.37-1.94,2.64-3.51,5.07-6.54,5.09,6.24,9.58,11.74,14.62,17.92,6.1-1.14,12.54-2.34,18.34-3.42,5.12-7.12,2.98-16.41,10.02-22.89,2.25,2.99,4.04,5.59,6.04,8,8.26,9.99,19.1,9.57,26.92-.94,1.35-1.81,2.94-3.43,4.86-5.64,3.27,2.23,6.16,4.21,9.22,6.3,4.95-3.84,9.84-7.63,15.07-11.68,5.08,5.54,9.77,10.5,18.39,5.83,1.25-6.44,2.68-13.81,4.38-22.55,2.84,1.58,5.2,2.46,7.02,3.99,5.34,4.52,10.7,9.06,15.59,14.04,4.46,4.54,9.63,7.37,15.82,7.48,16.55.3,26.9,11.85,38.71,20.77.98.74,1.72,2.03,2.14,3.22,1.02,2.93-.94,13.82-3.63,19.33-2.75-1.64-5.67-2.9-8-4.87-5.86-4.93-11.25-10.44-17.26-15.17-2.35-1.85-5.87-3.06-8.87-3.1-14.64-.21-29.32.78-43.91-.01-15.69-.86-30.31,3.74-45.26,6.74-14.69,2.95-29.25,6.52-43.91,9.57-12.11,2.52-23.58,6.64-35.09,11.21-51.55,20.51-99.54,48.01-148.2,74.23-34.31,18.48-68.63,36.95-102.83,55.63-3.9,2.13-6.97,5.73-10.62,8.38-1.81,1.32-3.96,2.39-6.11,2.97-31.19,8.36-62.4,16.66-93.66,24.8-2.42.63-5.39.49-7.77-.3-18.03-5.93-35.98-12.1-53.92-18.27-1.5-.52-2.81-1.59-4.55-2.61Z"/>
  <path class="st0" d="M1065.03,495.46c1.7-5.12,2.66-8.84,4.13-12.34,32.12-76.78,64.33-153.52,96.36-230.34,2.15-5.15,5.18-9.02,9.52-12.38,66.61-51.63,133.15-103.35,199.7-155.05,2.89-2.25,6.45-4.01,8.54-6.86,5.01-6.83,12.16-7.28,19.44-7.82,30.22-2.23,60.45-4.39,90.68-6.64,50.81-3.78,101.62-7.62,152.44-11.39,13.95-1.04,27.91-1.99,41.87-2.86,2.82-.18,5.68.21,9.57.38-2.79,7.13-7.64,9.07-13.14,10.05-21.96,3.91-43.92,7.8-65.89,11.64-65.91,11.5-131.84,22.91-197.72,34.58-3.68.65-7.63,2.64-10.4,5.16-55.68,50.67-111.2,101.53-166.79,152.3-3.07,2.8-5.04,5.68-5.48,10.11-3.81,38.43-7.94,76.83-11.79,115.26-.42,4.21-1.93,5.95-6.06,7.6-26.88,10.76-53.6,21.94-80.21,33.35-3.03,1.3-5.67,4.55-7.47,7.51-8.99,14.8-18.13,29.55-26.21,44.84-4.52,8.55-10.46,12.05-19.86,11.63-6.22-.28-12.49.7-21.22,1.28Z"/>
  <path class="st0" d="M2133.48,1546.37c.23,2.74.68,5.3.64,7.86-.68,42.97-1.4,85.94-2.2,128.9-.07,3.64-.2,7.41-1.17,10.88-1.66,5.98-.79,10.65,3.74,15.32,5.31,5.48,9.28,12.25,14.58,17.73,7.39,7.66,10.09,16.46,10.49,26.93.93,24.62,2.77,49.21,4.02,73.82.12,2.42-.56,5.43-1.99,7.31-17.81,23.28-35.81,46.41-53.83,69.53-.75.96-2.12,1.42-2.3,1.54-6.97-4.84-13.17-9.5-19.71-13.6-11.28-7.07-22.66-14.03-34.24-20.59-6.63-3.76-10.61-8.2-12.93-16.14-6.34-21.7-14.38-42.91-21.74-64.31-5.63-16.37-11.03-32.82-16.98-49.07-2.79-7.6-2.26-13.57,3.1-20.21,18.41-22.79,36.81-45.64,54.04-69.33,15.27-20.99,28.97-43.12,43.35-64.75,8.11-12.2,16.15-24.46,24.35-36.61,1.74-2.57,2.83-6.38,8.79-5.22Z"/>
  <path class="st0" d="M1975.92,537.95c-58.64,9.12-115.86,22.37-173.72,32.32-.23.04-.66-1.05-1.74-2.88,3.34-1.75,6.46-4.06,9.95-5.13,79.25-24.26,158.55-48.37,237.83-72.55,6.34-1.93,12.51-2.73,19.35-2.67,18.96.18,37.93-1.49,56.9-2.14,3.79-.13,8.09.06,11.38,1.69,27.45,13.6,54.66,27.68,82.07,41.35,5.95,2.97,8.84,7.15,9.84,13.67,3.29,21.39,7.17,42.68,10.45,64.07.74,4.84,2.36,7.5,7.26,9.14,28.7,9.65,57.28,19.67,85.89,29.59.59.2,1.05.77,2.76,2.07-2.14,41.98-4.31,84.8-6.61,127.61-.07,1.35-1.54,2.62-3.04,5.02-2.7-2.45-5.01-4.15-6.83-6.26-7.19-8.31-14.03-16.94-21.44-25.06-3.04-3.33-6.84-6.4-10.89-8.3-13.55-6.38-27.37-12.19-41.09-18.2-1.52-.67-3.29-2.11-4.57-1.78-8.25,2.13-10.11-4.41-13.05-9.33-6.3-10.55-12.43-21.2-19.16-32.72-7.19,3.47-13.98,6.71-20.74,10-6.59,3.2-13.14,6.48-19.73,9.68-2.75,1.33-6.16,2.85-7.83-.63-.79-1.64.5-5.16,1.98-6.86,9.41-10.8,18.93-21.51,28.83-31.86,4.29-4.48,5.71-8.91,5.11-15.17-1.91-19.89-3.1-39.84-4.44-59.78-.26-3.84-1.29-6.79-4.45-9.46-16.79-14.17-33.33-28.66-50.1-42.85-1.56-1.32-4.16-1.92-6.3-1.95-16.32-.24-32.65-.38-48.97-.22-3.57.03-7.22,1.11-10.69,2.18-58.2,17.99-116.39,36.03-174.55,54.14-5.39,1.68-10.66,3.79-15.87,6-4.21,1.78-8.05,2.24-13.12-1.48,6.42-6.83,15.1-6.53,21.79-10.11,7.03-3.77,14.43-6.85,21.67-10.24,7.54-3.53,15.08-7.05,22.62-10.58,7.24-3.38,14.49-6.76,21.72-10.15,7.18-3.37,14.35-6.77,21.52-10.15Z"/>
  <path class="st0" d="M1758.95,1708.2c-13.74-.06-16.35-9.85-19.94-18.91-4.41-11.15-8.94-22.26-13.74-33.24-2.14-4.89-2.06-8.17,2.54-12.06,5.27-4.46,9.3-10.41,13.81-15.76,4.85-5.76,4.87-5.86,11.36-2.42,21.19,11.25,42.34,22.56,63.51,33.83,2.64,1.41,5.26,3.65,8.03,3.88,6.55.54,7.1,4.67,7.44,9.7.59,8.64,1.46,17.26,2.32,25.88.26,2.55.89,5.07,1.5,8.46,11.67-3.49,22.65-6.78,34.04-10.18,5.21,10.14,10.04,19.52,15.42,29.98,6.76-5.58,12.85-10.6,18.93-15.64,10.13-8.41,12.84-7.86,18.09,4.05,16.13,36.57,32.16,73.19,48.34,109.74,1.58,3.57,3.78,6.91,5.96,10.18,2.49,3.74,2.63,9.84.26,13.7-1.87,3.06-3.76,6.19-5.05,9.51-10.1,26.09-20.04,52.24-30.1,78.35-1.39,3.59-3.21,7.02-4.73,10.31-6.9-.77-8.19-5.64-10.11-9.72-15.01-31.96-30.08-63.89-44.78-96-3.32-7.26-7.69-12.51-14.89-16.42-18.44-10.01-36.46-20.8-54.55-31.45-2.78-1.64-5.42-3.87-7.44-6.38-14.65-18.16-29.19-36.39-43.53-54.79-1.65-2.12-2.35-5.34-2.58-8.12-.41-4.92-.11-9.91-.11-16.48Z"/>
  <path class="st0" d="M1792.28,1228.65c-3.16,6.38-7.79,6.99-12.25,7.82-27.5,5.13-55,10.25-82.51,15.34-31.11,5.76-62.21,11.58-93.36,17.09-3.3.58-7.38.2-10.35-1.26-32.26-15.91-64.41-32.06-96.47-48.37-2.37-1.21-4.5-3.92-5.62-6.43-10.31-23.12-20.26-46.4-30.61-69.5-2.4-5.35-1.56-10.46-.55-15.64,6.1-31.38,12.35-62.74,18.52-94.11,10.22-51.96,20.48-103.9,30.54-155.89,1-5.15,1.08-10.58.85-15.85-.76-17.65-1.82-35.28-2.82-52.91-.22-3.95-.69-7.89-1.11-12.67-14.97-1.42-29.49-2.81-44.01-4.17-12.6-1.19-25.2-2.52-37.82-3.44-4.97-.36-9.01-1.99-12.32-5.63-.45-.49-.98-.91-1.47-1.36-10.61-9.63-22.49-18.22-31.48-29.19-8.71-10.62-14.42-23.69-21.5-35.65-26.14-44.15-52.31-88.29-78.45-132.45-2.17-3.66-4.19-7.42-6.55-11.61,2.6-1.68,4.35-3.17,6.36-4.05,8.88-3.87,10.94-3.44,17.16,3.99,15.4,18.4,30.91,36.73,45.95,55.42,5.8,7.21,11,15.02,15.53,23.09,12.73,22.65,24.83,45.66,37.53,68.33,2.34,4.19,5.81,8.09,9.59,11.07,9.15,7.22,18.99,13.57,28.14,20.77,5.29,4.16,11,5.73,17.48,6.23,24.58,1.89,49.15,3.98,73.72,6.02,9.5.79,10.11,1.28,11.4,10.35,3.66,25.72,7.26,51.45,10.78,77.19.35,2.55.49,5.33-.13,7.79-11.22,44.56-23.12,88.95-33.62,133.67-4.4,18.72-5.78,38.13-8.72,57.2-4.22,27.32-8.52,54.63-13,81.91-.84,5.09-.58,9.15,2.19,14.06,8.01,14.2,14.99,28.99,22.09,43.69,2.27,4.71,5.27,7.98,10,10.46,23.9,12.54,47.67,25.31,71.33,38.28,4.93,2.7,9.7,3.58,15.23,3.12,47.81-3.99,95.64-7.8,143.47-11.66,9.3-.75,18.6-1.58,27.91-2.12,2.65-.15,5.35.58,8.95,1.02Z"/>
  <path class="st0" d="M2128.35,1190.43c3.47-.96,6.51-2.03,9.64-2.64,41.79-8.24,83.6-16.42,125.41-24.56,2.59-.5,5.27-.7,7.91-.74,35.97-.56,71.95-1.65,107.91-1.3,14.19.14,28.35,3.44,42.5,5.46,6.59.94,13.09,2.48,19.69,3.34,7.09.93,7.34,6.67,8.96,11.63,1.59,4.85-1.97,6.35-5.06,8.37-17.27,11.32-34.5,22.69-51.71,34.1-3.63,2.4-7.07,4.51-11.88,4.23-3.15-.18-6.43,1.45-9.6,2.43-51.83,16-103.6,32.22-155.54,47.86-9.69,2.92-20.12,3.32-30.13,5.28-38.87,7.6-77.7,15.39-116.56,23.05-4.14.82-8.34,1.29-13.69,2.1-.49-11.46-1.07-21.66-1.3-31.87-.09-3.78,3.23-4.53,6.16-5.43,12.41-3.81,24.68-8.12,37.23-11.39,8.74-2.28,15.01-7.39,21.83-12.96,12.69-10.36,16.5-22.06,11.56-37.48-1.89-5.9-2.16-12.33-3.33-19.48Z"/>
  <path class="st0" d="M2105.29,476.57c-7.93,0-15.88.43-23.78-.09-14.87-.99-28.91,1.77-43.1,6.24-97.81,30.85-195.76,61.28-293.68,91.79-3.62,1.13-7.43,1.65-10.4,2.29-1.62-7.57-2.74-13.96-4.37-20.21-4.03-15.47-8.31-30.87-12.44-46.31-.76-2.83-1.28-5.72-2.1-9.42,4.46-1.78,8.29-3.66,12.32-4.86,104.04-30.99,208.09-61.94,312.17-92.82,11.23-3.33,9.66-4.65,17.37,5.23,14.76,18.92,29.5,37.85,44.15,56.85,2.09,2.71,3.67,5.8,5.48,8.72-.54.86-1.08,1.71-1.62,2.57Z"/>
  <path class="st0" d="M2423.55,910.44c-2.86,20.71-5.67,41.01-8.63,62.36-11.14-2-21.34-3.15-31.14-5.76-13.55-3.61-26.79-3.04-40.41-.59-26.55,4.77-53.24,8.7-79.82,13.33-6.48,1.13-13.03,2.91-19.01,5.59-81.45,36.53-162.8,73.27-244.18,109.95-2.73,1.23-5.43,2.64-8.29,3.44-1.29.36-2.94-.59-4.43-.95.44-1.74.33-4.11,1.44-5.1,2.19-1.95,5.03-3.2,7.65-4.65,43.73-24.19,87.46-48.36,131.19-72.56,3.47-1.92,6.84-4,9.66-7.54-7.99,2.69-15.98,5.37-23.96,8.06-4.73,1.6-9.38,3.54-14.23,4.66-2.17.5-5.7.22-6.89-1.18-2.62-3.07.32-5.41,2.69-7.29,3.92-3.1,7.93-6.09,11.89-9.14,7.07-5.44,14.13-10.88,20.58-17.69-2.36.62-4.78,1.09-7.07,1.89-22,7.72-43.96,15.53-65.96,23.23-7.44,2.6-7.48,2.48-13.13-5.96,2.97-1.84,5.79-3.89,8.86-5.45,24.35-12.37,49.19-23.87,73.02-37.16,25.7-14.34,52.85-24.86,80.36-34.82,36.01-13.04,71.83-26.6,107.84-39.62,4.82-1.74,10.34-2.35,15.5-2.24,15.65.33,31.29,1.28,46.94,1.98,1,.04,2.23.47,2.96.05,7.96-4.58,12.92,1.26,18.55,5.09,8.74,5.94,16.25,13.74,28.02,18.04Z"/>
  <path class="st0" d="M2059.02,1420.48c6.64.4,10.17-4.23,12.73-10.58,3.29-8.16,9.18-15.27,9.06-25.92,2.98,1.59,5.18,2.24,6.65,3.64,4.81,4.6,9.67,9.22,13.87,14.35,2.18,2.66,3.59,6.3,4.34,9.72,7.86,35.76,15.57,71.56,23.08,107.39.53,2.52-.02,6.15-1.55,8.07-14.53,18.17-29.39,36.07-44.11,54.07-1.47,1.8-2.77,3.75-4.03,5.71-9.19,14.25-18.29,28.56-27.6,42.73-1.41,2.14-3.65,3.84-5.75,5.41-20.26,15.19-40.64,30.2-60.8,45.53-4.17,3.17-7.75,3.89-12.79,2.13-7.83-2.74-16.11-4.18-24.03-6.7-5.52-1.76-9.93-1.15-14.75,2.29-12.2,8.7-24.77,16.87-37.22,25.21-.78.52-1.83.66-3.68,1.29-7.16-9.77-10.03-22.08-17-32.18-11.78,5.8-20.91,15.54-34.15,20.29-3.04-13.25.69-25.41-.17-37.75-3.03-1.63-5.87-3.28-8.82-4.74-21.19-10.5-42.55-20.64-63.52-31.56-9.43-4.91-18.82-7.58-29.51-7.12-11.49.5-11.82-.17-15.3-11.23-2.56-8.13-4.97-16.3-7.77-25.52,3.14,0,5.14-.53,6.68.08,48.86,19.43,97.67,38.98,146.53,58.43,3.02,1.2,6.32,2.06,9.55,2.3,19.59,1.45,39.2,2.73,58.8,3.9,2.21.13,4.57-.49,6.72-1.2,22.45-7.37,44.85-14.92,67.34-22.18,4.36-1.41,7.62-3.58,10.19-7.39,7.27-10.76,14.7-21.43,22.26-31.99,2.44-3.41,3.41-6.72,3.21-11.04-.44-9.64-.58-19.36.13-28.97,1.89-25.61-1.98-50.4-9.69-74.7-1.42-4.49-1.06-7.54,2.02-11.7,6.89-9.3,12.52-19.54,19.09-30.08Z"/>
  <path class="st0" d="M1042.83,2025.53c10.55-15.7,20.74-30.85,32.12-47.79-3.75,1.23-5.8,1.57-7.52,2.52-19.24,10.63-38.46,21.3-57.6,32.11-2.83,1.6-5.09,4.19-7.83,6-4.12,2.72-8.34,6.17-13.34,1.09-1.01-6.41,2.08-11.13,6.18-15.81,11.65-13.27,23.01-26.79,34.47-40.23,2.14-2.51,4.16-5.13,5.62-8.99-2.55.89-5.16,1.63-7.63,2.69-27.52,11.85-54.96,23.91-82.6,35.49-5.66,2.37-12.05,3.15-18.18,4.19-1.38.23-3.1-1.51-4.66-2.34.88-1.26,1.65-3.52,2.65-3.62,6.72-.69,8.84-6.56,12.43-10.65,15.18-17.27,30.23-34.64,45.3-52,2.16-2.48,4.19-5.07,6.99-8.46-20.17-23.58-40.17-46.96-59.98-70.12,4.25-7.23,9.1-5.94,14.48-4.09,40.29,13.87,80.64,27.58,120.96,41.37,20.16,6.89,40.33,13.76,60.45,20.77,6.88,2.4,8.3,4.26,6.35,11.08-8.71,30.38-17.81,60.66-26.82,90.96-.16.55-.93.91.02.03-6.27,1.66-11.02,2.44-15.4,4.18-11.76,4.66-23.33,9.8-35.04,14.59-5.73,2.35-5.79,2.19-11.45-2.97Z"/>
  <path class="st0" d="M2063.11,609.85c-6.05.29-11.64.42-17.2.86-39.15,3.1-78.31,6.25-117.46,9.42-13.93,1.13-27.85,2.44-41.8,3.49-9.72.73-10.91-.57-10.61-10.53q.32-10.43,10.61-13.3c59.88-16.88,119.8-33.6,179.6-50.78,14.35-4.12,29.07-2.76,43.5-4.84,10.18-1.47,18.29.46,25.45,8.85,6.42,7.53,14.58,13.62,22.26,20,4.19,3.48,6.09,7.34,6.12,12.86.07,16.98.73,33.96.85,50.94.02,3.16-.77,6.63-2.19,9.44-3.61,7.12-7.9,13.88-11.7,20.91-1.93,3.57-4.24,5.16-8.63,5.11-12.98-.17-25.96.45-38.95.43-2.8,0-5.61-1.39-8.41-2.16-.31-.09-.57-.34-.86-.51q-21.57-13.04-26.23-38.13c-1.33-7.13-2.82-14.24-4.38-22.06Z"/>
  <path class="st0" d="M1677.28,1872.1c-6.99-1.05-8.13-5.52-8.86-10.3-2.81-18.42-5.59-36.85-8.45-55.27-7.82-50.31-15.74-100.61-23.44-150.94-.69-4.51-.45-9.28.1-13.83.91-7.59,2.62-15.09,3.6-22.67.48-3.72.08-7.56.08-13.56.76-.68,3.1-2.92,5.6-4.98,9.25-7.62,18.64-15.06,27.78-22.82,3.9-3.31,8.01-4.25,13.54-3.2,1.41,4.64,3.17,9.27,4.21,14.07,5.53,25.5,14.5,49.75,25.59,73.33,5.94,12.65,11.47,25.5,16.72,38.45,3.09,7.62,6.39,14.65,15.75,16.92-.44,2.7-.59,4.94-1.18,7.04-3.52,12.48-6.94,25-10.89,37.35-.93,2.9-3.41,5.6-5.8,7.68-9.01,7.85-18.28,15.41-27.99,23.53,1.62,5.55,2.79,11.07,4.9,16.21,1.28,3.12,1.42,5.49-.18,8.39-9.5,17.19-18.86,34.45-28.34,51.66-.6,1.1-1.74,1.89-2.73,2.93Z"/>
  <path class="st0" d="M1435.57,1397.02c-8.14-3.58-17.36-1.19-23.09-9.48,1.19-1.95,2.3-4.31,3.89-6.29,12.54-15.56,25.14-31.09,37.81-46.55,6.93-8.45,8.1-8.48,15.09-.34,20.2,23.5,40.41,46.98,60.39,70.66,3.83,4.54,8.14,7.46,13.83,9.08,9.6,2.74,19.07,5.92,28.53,9.11,2.28.77,4.3,2.33,8.81,4.84-5.02,2.23-7.69,4.34-10.47,4.5-12.97.72-25.96,1.01-38.95,1.17-2.04.02-4.61-.94-6.08-2.35-9.61-9.15-18.9-18.65-28.48-27.83-8.9-8.53-18.02-16.83-27.09-25.17-1.89-1.74-4.02-3.23-6.16-4.93-5.14,5.77-6.28,11.53-4.87,18.71,23.3,118.24,46.37,236.52,69.53,354.78,9.66,49.33,19.39,98.65,29.07,147.97.58,2.94,1.43,5.91,1.42,8.86,0,2.06-.7,4.97-2.14,5.92-1.38.91-4.56.45-6.14-.61-2.35-1.6-4.3-4.05-5.86-6.5-3.33-5.21-4.66-11.62-10.71-15.2-1.67-.99-1.91-4.73-2.42-7.29-7.85-39.17-15.66-78.34-23.42-117.53-21.68-109.4-43.33-218.8-65-328.19-2.45-12.39-4.97-24.76-7.49-37.33Z"/>
  <path class="st0" d="M971.22,1389c5.6-1.92,10.28-3.54,14.96-5.12,122.45-41.16,244.99-82.03,367.23-123.77,17.54-5.99,35.25-6.12,53-7.8,23.54-2.22,47.16-3.6,70.77-5.12,3.14-.2,6.71.2,9.49,1.54,9.89,4.78,19.53,10.09,29.26,15.2,2.7,1.42,5.52,2.87,4.97,6.62-.67,4.49-4.42,4.49-7.68,4.69-13.97.84-27.94,1.57-41.92,2.26-30.94,1.53-61.89,2.97-92.83,4.56-2.92.15-5.94.79-8.68,1.81-54.26,20.29-108.35,41.05-162.8,60.84-21.56,7.83-43.88,13.56-65.87,20.19-47.17,14.23-94.39,28.29-141.49,42.76-6.85,2.1-11.98,1.84-16.5-4.1-3.49-4.59-9.67-6.95-11.91-14.56Z"/>
  <path class="st0" d="M1294.19,401.56c4.63-8.24,8.32-14.49,11.72-20.9,17.79-33.55,35.59-67.1,53.17-100.76,2.31-4.43,3.39-9.51,5.22-14.81,7.04-1.43,129.01,12.65,137.17,16.15,2.09,4.8-1.68,7.38-4.15,10.28-20.35,23.81-40.78,47.56-61.19,71.33-3.91,4.55-7.85,9.08-11.71,13.66-3.61,4.28-8.13,6.5-13.69,7.42-34.83,5.77-69.61,11.78-104.44,17.54-3.63.6-7.44.08-12.09.08Z"/>
  <path class="st0" d="M884.53,656.68c23.52-38.58,46.91-76.88,70.18-115.25,2.13-3.52,4.89-4.86,8.83-5.4,40.5-5.6,80.98-11.37,121.47-17.04.54-.08,1.18.49,1.94.84,2.59,3.99-.83,6.77-2.45,9.72-13.44,24.5-27.02,48.92-40.55,73.37-1.77,3.2-3.85,6.29-5.14,9.68-1.49,3.92-4.14,5.32-8,6.42-45.74,12.97-91.42,26.15-137.12,39.28-3,.86-6.16,3.52-9.18-1.62Z"/>
  <path class="st0" d="M808.78,742.04c-3.8.46-7.67.89-11.52,1.41-12.78,1.75-14.27.49-13.32-12.09.87-11.61,1.94-23.2,3.08-36.56,11.18-4.33,23.47-9.09,36.6-14.18.67-3.46,1.41-7.28,2.37-12.22-7.6-1.05-14.67-2.03-21.66-3-3.62-12.1-7.12-23.81-10.83-36.21,29.53-14.09,58.54-27.93,87.42-41.7,4.88,3.37,5.24,7.41,4.56,11.9-6.14,40.49-12.25,80.99-18.37,121.49-1.09,7.24-2.28,14.48-3.22,21.74-1.07,8.32-4.6,14.81-11.67,19.83-21.98,15.65-43.68,31.7-65.52,47.55-2.63,1.91-5.44,3.58-9.42,6.17-1.48-3.47-3.25-5.93-3.53-8.54-1.12-10.59-1.77-21.24-2.61-31.86-.29-3.65,1.71-5.03,4.94-6.31,8.35-3.31,16.49-7.15,24.69-10.85q9.78-4.41,8-16.58Z"/>
  <path class="st0" d="M1456.94,453.1c2.72-1.27,4.6-2.59,6.67-3.05,154.96-34.74,309.93-69.42,464.9-104.11,13.97-3.13,28.33-5.17,41.76-9.84,11.32-3.94,22.11-2.91,33.24-1.76,57.31,5.91,114.61,12.03,171.94,17.76,8.83.88,13.18,7.25,18.21,12.7,2.83,3.06.12,7.29-4.54,7.04-9.3-.5-18.58-1.55-27.86-2.48-44.74-4.48-89.48-9-134.21-13.5-1.66-.17-3.35-.13-4.98-.44-20.28-3.92-40.02-1.76-60.17,2.71-161.21,35.79-322.55,71.01-483.84,106.41q-11.6,2.54-21.14-11.44Z"/>
  <path class="st0" d="M260.28,1588.19c-3.07,1.79-6.07,3.73-9.23,5.34-23.72,12.14-47.17,24.89-71.36,36.03-11.14,5.13-15.54,12.25-14.66,24.37,1.94.53,4.06,1.4,6.25,1.67,49.57,6.26,99.15,12.54,148.75,18.55,5.16.62,10.68.34,15.75-.76,36.77-8.01,73.46-16.35,110.19-24.57,2.6-.58,5.25-1.56,7.83-1.42,2.44.13,5.73.75,7.04,2.42,3.38,4.29,5.87,9.27,8.7,13.96-1.78,1.42-2.45,2.36-3.29,2.57-44.99,10.88-89.99,21.69-134.99,32.56-4.87,1.18-9.28,2.33-14.34-.59-3.19-1.84-7.76-1.45-11.73-1.74-36.89-2.67-73.76-5.69-110.7-7.6-8.64-.45-16.15-2.6-23.77-5.87-19.59-8.4-39.25-16.65-58.85-25.03-2.69-1.15-5.23-2.69-8.87-4.58,5.35-13.04,7.53-26.05,23.75-31.9,35.38-12.77,70.04-27.51,104.99-41.48,7.4-2.96,14.37.63,21.5,1.45,2.54.29,4.87,2.38,7.3,3.65-.08,1-.17,2-.25,3Z"/>
  <path class="st0" d="M1549.79,1147.81c19.06,5.46,37.27,10.72,55.51,15.88,49.98,14.14,99.99,28.19,149.93,42.46,3.49,1,9.39.22,8.5,7.88-2.64.17-5.2.63-7.7.44-31.89-2.41-63.77-4.98-95.67-7.36-35.52-2.65-71.05-5.06-106.56-7.85-2.49-.2-5.44-2.21-7.07-4.26-9.77-12.24-19.07-24.85-28.84-37.08-2.98-3.73-2.18-7.51-1.74-11.38,2.11-18.87,4.34-37.72,6.56-56.58,5.1-43.33,10.22-86.67,15.33-130,1.33-11.25,2.6-22.5,4.05-33.73.24-1.84,1.26-3.59,2.02-5.67,5.21.16,7.71,2.32,7.66,7.24-.03,2.67.01,5.33-.01,8-.65,66.32-1.31,132.63-1.97,198.95-.04,3.98,0,7.95,0,13.05Z"/>
  <path class="st0" d="M1843.95,1225.24c1.63-7.16,6.51-8.68,10.77-11.08,18.98-10.68,40.23-13.56,61.03-17.89,94.52-19.65,189.24-38.42,283.51-59.22,28.29-6.24,56.64-6.43,85-8.54,45.17-3.36,90.5-4.78,135.65-8.4,12.49-1,19.28,4.69,26.03,12.62,4.28,5.03,2.72,8.59-3.88,9.2-7.96.74-15.95,1.17-23.93,1.62-64.19,3.62-128.41,6.83-192.56,11.07-16.84,1.11-33.54,5.06-50.2,8.28-107.22,20.69-214.41,41.55-321.62,62.27-2.93.57-6.06.07-9.79.07Z"/>
  <path class="st0" d="M2075.67,777.1c-112.28-13.99-222.9-29.39-334.88-43.19-3.46-5.09-31.2-123.27-30.39-133.67,6.42-1.39,13.12-3.09,19.92-4.23,7.32-1.22,8.32-.5,10.16,7.2,5.26,22.01,10.33,44.06,15.48,66.1,3.4,14.56,6.81,29.13,10.44,44.61,8.17,1.21,16.29,2.55,24.46,3.61,79.56,10.28,159.13,20.51,238.69,30.78,13.54,1.75,27.07,3.54,40.58,5.47,7.33,1.05,7.86,1.72,7.34,8.91-.31,4.24-1.04,8.45-1.8,14.41Z"/>
  <path class="st0" d="M1687,1046.56c-.51-4.34-1.2-7.41-1.19-10.49.07-27.65.21-55.3.5-82.94.03-2.49.74-5.34,2.09-7.38,9.18-13.87,18.61-27.58,27.25-40.3,7.58-1.35,14.09-2.03,20.34-3.68,71.13-18.74,142.24-37.57,213.3-56.56,5.38-1.44,10.67-3.76,15.52-6.52,25.18-14.33,50.18-28.97,75.32-43.38,3.22-1.85,6.29-5.38,10.61-2.92.38.9,1.01,1.69.82,2.05-5.94,11.46-11.64,22.86-23.24,30.28-20.76,13.27-41.02,27.32-61.61,40.86-2.97,1.96-6.48,3.36-9.93,4.3-71.58,19.62-143.18,39.17-214.81,58.62-6.42,1.74-12.51,3.55-18.19,7.45-5.39,3.69-8.12,8.05-9.42,14.28-5.86,28.02-12.09,55.96-18.03,83.96-1.01,4.74-2.4,8.89-9.34,12.36Z"/>
  <path class="st0" d="M1511.03,278.26c2.34-3.17,3.75-5.63,5.67-7.59,26.4-26.84,52.92-53.57,79.25-80.47,3.59-3.67,7.33-5.02,12.39-4.77,22.96,1.16,45.93,2.02,68.89,3,1.66.07,3.35.06,4.97.39,4.19.85,5.51,3.2,3.95,7.23-.71,1.84-1.91,3.5-2.98,5.18-17.08,27.03-34.32,53.96-51.13,81.16-3.64,5.89-7.78,8.24-14.63,7.55-33.13-3.35-66.29-6.4-99.44-9.63-1.83-.18-3.58-1.04-6.93-2.05Z"/>
  <path class="st0" d="M1288.56,404.02c-2.56,4.89-3.72,7.84-5.49,10.37-18.1,25.91-36.37,51.71-54.4,77.68-2.89,4.16-6.03,5.85-11.24,6.5-30.69,3.83-61.29,8.34-91.93,12.54-4.84.66-9.74.87-16.6,1.45,1.78-4.92,2.53-8.37,4.19-11.32,11.57-20.59,23.41-41.03,34.95-61.64,2.5-4.47,6.24-6.55,10.75-8.19,18.13-6.59,36.42-12.79,54.2-20.23,9.48-3.97,18.87-5.41,28.93-5.51,14.57-.15,29.12-.99,46.64-1.65Z"/>
  <path class="st0" d="M1841.44,114.04c-3.47,27.25-6.82,53.48-10.22,80.18-44.88-6.18-88.82-8.98-133.69-15.37,2.46-8.14,4.43-14.73,6.44-21.3,2.92-9.55,5.99-19.05,8.76-28.64,1.3-4.5,3.76-7.35,8.19-9.22,18.1-7.62,36.04-15.63,54.12-23.28,2.23-.95,5.23-1.42,7.49-.77,15.96,4.62,31.84,9.55,47.72,14.46,3.69,1.14,7.3,2.56,11.18,3.94Z"/>
  <path class="st0" d="M1892.18,64.08c-1.35,2.59-1.6,3.72-2.29,4.28-13.7,11.13-27.46,22.19-41.2,33.27-3.97,3.2-7.98,2.09-12.22.49-16.82-6.35-33.85-12.18-50.49-18.98-7.45-3.05-13.6-2.66-20.73.89-15.2,7.56-30.77,14.39-46.29,21.28-3.42,1.52-7.29,2.02-12.27,3.34,0-4.12-.29-6.69.05-9.18,2.44-18.15,5-36.29,7.54-54.43,1.4-10.03,2.73-11.37,12.66-11.05,29.31.95,58.62,1.96,87.91,3.23,4.53.2,9.16,1.44,13.48,2.96,18.23,6.38,36.37,13.02,54.51,19.65,3,1.1,5.84,2.63,9.36,4.24Z"/>
  <path class="st0" d="M2197.34,715.58c-4.69,12.73-9.38,25.46-14.06,38.17,5.17,11.26,5.19,11.42,16.89,10.02,24.77-2.96,49.54-5.89,74.25-9.29,7.17-.98,13.02-.32,17.57,5.82,1.37,1.84,3.16,3.48,5.03,4.82,17.57,12.52,26.49,31.07,34.94,49.95,2,4.46,1.95,4.48-1.21,10.78-2.78-1.62-5.62-3.05-8.2-4.84-10.41-7.18-20.86-14.3-31.04-21.79-4.31-3.17-8.41-4.21-13.81-3.38-33.53,5.11-67.15,9.69-100.67,14.85-5.87.9-9.24-.47-12.34-5.43-6.32-10.13-13.36-19.8-19.7-29.91-1.21-1.93-1.16-5.17-.62-7.56,2.62-11.67,5.62-23.26,8.45-34.89.91-3.75,2.45-6.04,6.81-7.34,9.22-2.73,18.04-6.78,27.09-10.1,2.88-1.06,5.97-1.54,8.96-2.28.56.8,1.11,1.6,1.67,2.4Z"/>
  <path class="st0" d="M1834.25,667.76c7.01-.09,12.28-.99,17.22-.09,67.82,12.22,135.64,24.41,203.32,37.38,11.64,2.23,22.23.72,34.95-2.09-3.37-1.4-5.23-2.49-7.24-2.97-61.85-14.72-123.72-29.37-185.58-44.05-3.55-.84-7.22-1.53-10.51-3-1.27-.57-2.17-3.12-2.2-4.79-.01-.84,2.23-2.31,3.57-2.45,2.27-.25,4.65.18,6.94.57,59.72,10.25,119.42,20.54,179.14,30.81,17.39,2.99,34.78,5.95,52.18,8.93,2.3.39,4.61.72,6.86,1.3,7.35,1.89,8.29,3.87,5.04,10.36-.3.59-.75,1.12-.98,1.74-4.98,13.38-14.51,18.64-28.75,21.39-19.81,3.83-38.45,3.17-57.97-1.17-67.91-15.11-136.03-29.25-204.05-43.87-3.82-.82-8.71-.42-11.94-8Z"/>
  <path class="st0" d="M610.27,1503.73c-4.06,6.53-8.75,8.91-14.57,10.26-98.29,22.74-196.55,45.61-294.79,68.52-4.78,1.12-9.41,2.9-15.29,4.75-7.26-2.9-15.87-6.09-23.74-10.96,1.65-5.95,6.02-6.05,9.69-6.99,27.42-7.02,54.84-14.01,82.28-20.94,72.63-18.33,145.34-36.39,217.85-55.18,10.53-2.73,19.3-2.65,27.95,3.95,3.09,2.36,6.62,4.13,10.62,6.58Z"/>
  <path class="st0" d="M1460.68,716.9c3.28-4.3,5.25-7.61,7.91-10.23,6.65-6.53,13.47-12.9,20.51-19.01,3.82-3.32,5.74-6.76,5.11-12.05-1.26-10.54-1.92-21.15-2.85-32-15.53-7.1-32.48-9.68-47.37-17.14.68-5.72,4.62-6.53,7.9-7.68,12.23-4.32,24.49-8.57,36.85-12.5,2.65-.84,5.96-.92,8.64-.17,10.89,3.05,21.62,6.66,32.46,9.86,4.19,1.24,5.47,3.71,5.78,7.99,1.46,19.92,3.08,39.82,5.16,59.68.59,5.6-.55,9.5-4.96,13.05-7.52,6.05-14.6,12.64-22.04,18.79-1.94,1.6-4.55,3.33-6.86,3.36-13.3.13-26.6-.2-39.9-.46-1.28-.02-2.54-.57-6.34-1.48Z"/>
  <path class="st0" d="M1593.96,401.26c-30.97,9.03-61.97,17.97-91.54,25.78-8.77-13.54-16.58-25.4-24.2-37.39-10.85-17.08-9.56-10.9-1.99-28.46,3.42-7.93,7.07-15.77,10.85-23.53,3.15-6.47,4.64-6.91,10.65-3.36,4.58,2.7,8.96,5.72,13.43,8.61,25.11,16.25,50.24,32.48,75.31,48.8,2.9,1.88,5.49,4.23,8.23,6.36l-.74,3.19Z"/>
  <path class="st0" d="M1721.86,1058.83c5.49-5.23,9.17-3.76,13.07.01,11.24,10.9,22.73,21.53,33.97,32.43,3.47,3.36,7.05,4.96,12.1,5.54,33.73,3.87,67.37,8.51,101.1,12.41,7.48.86,15.26.35,22.76-.64,11.87-1.57,23.59-4.19,35.41-6.11,3.74-.61,7.61-.41,13.67-.68-2.27,3.64-2.93,6.13-4.46,6.92-16.56,8.56-33.19,16.98-49.97,25.09-2.49,1.2-5.86,1.04-8.78.84-41.53-2.83-83.05-5.81-124.57-8.65-7.61-.52-12.71-3.54-16.17-10.85-7.55-15.94-15.97-31.46-23.98-47.18-1.48-2.9-2.7-5.92-4.15-9.12Z"/>
  <path class="st0" d="M2169.57,336.29c-4.34,1.55-6.77,2.63-9.31,3.27-7.32,1.85-7.99,1.49-11.99-4.93-30.65-49.16-61.07-98.45-92.14-147.35-6.73-10.59-15.72-19.75-23.76-29.5-4.66-5.65-9.5-11.15-14.2-16.77-1.79-2.13-3.23-4.42-.53-6.96,2.4-2.26,4.8-1.72,7.21-.01,1.9,1.35,3.79,2.71,5.71,4.04,11.2,7.79,22.47,15.47,33.53,23.44,2.31,1.67,4.14,4.25,5.64,6.74,31.25,51.91,62.44,103.85,93.58,155.82,2.14,3.58,3.82,7.43,6.25,12.21Z"/>
  <path class="st0" d="M1398.38,481.89c2.44-.15,4.4-.5,6.33-.35,22.9,1.86,45.79,3.87,68.7,5.65,4.57.36,8.05,2.03,11.46,5.12,7.48,6.75,13.83,14.23,19,22.94,10.2,17.18,20.85,34.09,31.39,51.07,2.34,3.77,3.74,7.39,3.09,12.15-.76,5.56.11,11.31-.21,16.96-.44,7.96-2.68,9.77-10.75,9.09-21.64-1.82-19.23.06-19.72-20.47-.09-3.76-1.35-7.88-3.24-11.15-10.65-18.46-21.75-36.66-32.5-55.06-2.5-4.28-5.61-6.88-10.47-8.38-18.77-5.77-37.42-11.92-56.07-18.08-3.9-1.29-8.97-2.04-7-9.48Z"/>
  <path class="st0" d="M2313.28,547.87c-9.73-3-18.25-5.47-26.62-8.37-1.46-.51-2.68-2.72-3.31-4.41-1.15-3.1-1.98-6.36-2.56-9.62-1.02-5.69-4.08-9.93-9.13-12.35-14.22-6.8-19.41-18.18-17.49-33.31,1.12-8.82-2.52-14.78-9.59-20.09-11.97-9-23.16-19.03-34.81-28.46-3.59-2.91-5.54-6.04-5.73-10.9-.32-7.97-1.68-15.89-2.34-23.85-.32-3.9-.06-7.86-.06-11.19,4.26-2.49,6-.68,7.27,1.98,3.15,6.61,5.91,13.44,9.47,19.82,2.37,4.24,5.34,8.46,8.96,11.65,14.47,12.79,29.22,25.28,44.07,37.64,3.05,2.54,5.02,5.08,5.1,9.1.04,1.98.99,3.97.88,5.91-.83,13.97,5.96,23.8,16.35,32.23,12.04,9.76,14.73,24.79,20.13,38.21.42,1.04-.21,2.51-.61,6.01Z"/>
  <path class="st0" d="M1862.11,119.86c4.2-4.98,7.49-9.02,10.93-12.91,5.51-6.21,11.16-12.3,16.68-18.5,2.87-3.22,6.2-4.96,10.58-3.87,15.46,3.83,30.93,7.63,46.36,11.58,1.82.47,3.41,1.83,4.94,2.68-.81,9.09-19.25,54.19-25.37,61.37-21.34-12.06-41.17-26.96-64.12-40.36Z"/>
  <path class="st0" d="M2362.3,646.85c.81,2.91,1.97,5.82,2.4,8.83,3.15,22.08,6.17,44.17,9.18,66.27,3,22.1,5.93,44.21,8.91,66.31.22,1.65.68,3.27.8,4.93.46,6.31-.93,8.09-7.03,7.98-7.65-.13-15.31-.56-22.95-1.1-6.35-.45-7.59-1.62-7.32-7.99.46-10.64,1.34-21.27,2.1-31.89,2.49-34.54,4.99-69.08,7.53-103.61.28-3.8-.6-8.37,6.38-9.72Z"/>
  <path class="st0" d="M2054.08,1409.23c-34.72-3.17-69.44-6.33-104.15-9.53-1.64-.15-3.5-.16-4.83-.95-1.57-.93-3.55-2.53-3.74-4.05-.18-1.39,1.45-3.88,2.86-4.45,8.84-3.59,17.28-7.93,27.36-8.39,27.2-1.26,54.39-3.18,81.54-5.34,7.23-.57,11.68,1.14,15.2,7.83,7.88,14.96,8.22,14.83-6.92,23.19-2.23,1.23-4.71,2-7.08,2.98-.08-.43-.17-.87-.25-1.3Z"/>
  <path class="st0" d="M1863.35,638.98c-12.46,7.39-24.62,14.8-36.99,21.83-4.93,2.8-7.1,1.83-8.59-3.92-2.83-10.9-5.18-21.94-7.66-32.93-.29-1.27-.39-2.69-.14-3.96,2.28-11.59,4.72-23.15,8.44-34.98,13.1,5.14,25.01,9.95,37.03,14.44,4.2,1.57,5.25,4.64,5.54,8.48.76,9.9,1.52,19.8,2.38,31.03Z"/>
  <path class="st0" d="M1918.86,1381.49c3.09-2.21,5.19-4.11,7.63-5.38,18.29-9.56,36.6-19.08,55.02-28.38,2.52-1.27,5.7-1.71,8.58-1.73,23.31-.17,46.63-.2,69.94-.16,8.55.01,13.27,6.95,9.41,14.47-1.03,2.01-4.71,3.37-7.35,3.73-11.54,1.55-23.15,2.64-34.74,3.84-20.2,2.09-40.53,3.33-60.56,6.49-11.02,1.74-21.63,6.4-32.24,10.23-5.19,1.87-9.65,1.97-15.69-3.1Z"/>
  <path class="st0" d="M2057.06,616.29c2.27,15.13,4.28,28.54,6.5,43.35-3.48,0-6.35.55-8.94-.08-32.61-8-65.19-16.14-97.74-24.38-2.58-.65-4.92-2.24-7.86-3.62,3.3-5.14,7.17-5.65,11.15-6.03,25.82-2.52,51.63-5.08,77.46-7.58,6.18-.6,12.37-1.05,19.44-1.65Z"/>
  <path class="st0" d="M2302.25,614.19c-13.15-2.94-24.44-5.66-35.81-7.94-5.44-1.09-7.89-3.78-8.24-9.37-.81-12.94-2.27-25.84-3.01-38.78-.18-3.23,1.38-6.56,2.4-10.98,4.45,1.95,7.46,3.15,10.35,4.56,12.85,6.27,25.66,12.6,38.49,18.91,3.37,1.66,6.91,3.4,5.74,8.07-2.95,11.82-5.79,23.68-9.92,35.52Z"/>
  <path class="st0" d="M2470.48,1122.09c-1.57-3.05-3.49-5.97-4.66-9.16-14.03-38.35-27.91-76.74-41.93-115.09-1.73-4.74-3.01-8.99,4.18-11.39,1.77,2.05,3.85,4.11,5.53,6.46,10.22,14.35,20.5,28.65,30.38,43.23,2.3,3.4,4.02,7.71,4.46,11.77,2.39,22.13,4.35,44.3,6.31,66.48.21,2.36-.6,4.81-.93,7.22-1.11.17-2.22.33-3.33.5Z"/>
  <path class="st0" d="M2034.49,1240.56c3.71-2.46,5.16-3.89,6.89-4.5,10.64-3.73,21.33-7.32,32.04-10.83,1.82-.6,4.49-1.49,5.67-.67,7.05,4.9,13.91,10.1,20.44,15.66.92.78.41,4.67-.72,6.14-3.02,3.92-6.74,7.3-10.18,10.89-.23.24-.53.58-.79.57-8.2-.03-16.43.2-24.6-.35-2.54-.17-4.95-2.44-7.39-3.8-3.43-1.92-6.87-3.83-10.22-5.88-3.23-1.97-6.37-4.11-11.15-7.23Z"/>
  <path class="st0" d="M1309.24,523.5c4.17-7.87,8.63-16.29,13.28-25.06,6.36-2,12.01,1.65,17.86,3.28,18.12,5.05,18.09,5.2,8.89,21.29-3.61,6.32-7.09,12.73-10.93,18.91-3.41,5.49-5.23,5.63-10.09,1.58-.51-.42-.97-.91-1.42-1.39-5.44-5.75-10.88-11.51-17.59-18.62Z"/>
  <path class="st0" d="M1351.34,474.29c10.22,12.18,19.39,23.08,28.51,34,1.48,1.77,3.16,3.52,4.09,5.57,1.48,3.29.54,6.2-3.45,6.39-4.95.23-9.99.13-14.85-.64-1.65-.26-3.79-2.81-4.2-4.66-2.48-11.04-10.06-15.47-20.39-17.1-3.89-.61-7.75-1.9-11.41-3.4-1.89-.78-4.71-2.77-4.65-4.08.12-2.23,1.67-5.41,3.53-6.33,7.36-3.62,15.08-6.51,22.83-9.75Z"/>
  <path class="st0" d="M1391.19,534c-2.2,2.49-3.23,4.23-4.75,5.3-13.56,9.5-27.18,18.91-40.83,28.29-2.4,1.65-4.94,3.92-7.85.81-2.48-2.64-1.75-5.37-.16-8.2,5.35-9.53,10.68-19.06,15.9-28.66,2.52-4.64,6.1-6.78,11.4-5.77,5.85,1.12,11.79,1.89,17.53,3.43,2.89.77,5.41,2.91,8.77,4.81Z"/>
  <path class="st0" d="M1958.93,101.07c5.86.57,9.11.68,12.29,1.24,8.79,1.56,17.52,3.5,26.34,4.92,4.93.8,7.26,3.53,6.51,8.11-1.45,8.8-3.09,17.6-5.39,26.2-1.35,5.03-5.38,5.81-8.97,1.8-9.49-10.6-18.73-21.45-27.75-32.45-1.6-1.95-1.66-5.17-3.02-9.82Z"/>
  <path class="st0" d="M1284.66,537.89c.83-6.24,1.3-12.57,2.7-18.68.46-2,3.11-4.27,5.2-4.85,1.41-.4,4.2,1.5,5.32,3.11,8.7,12.45,17.14,25.07,25.65,37.65,1.12,1.65,2.63,3.22,3.11,5.05.51,1.97.82,5.35-.22,6.07-1.74,1.21-4.6.89-6.99,1.04-.55.03-1.14-.62-1.7-.97-9.23-5.88-18.4-11.86-27.72-17.61-4.16-2.57-5.95-6.03-5.36-10.8Z"/>
  <path class="st0" d="M1994.44,395.73c-6.3,4.26-10.76,7.27-15,10.13-9.88-8.98-18.92-17.22-27.98-25.44-2.83-2.57-5.48-5.15-2.33-9.25,3.34-4.35,10.4-6.49,13.8-3.56,10.01,8.64,19.76,17.59,31.51,28.12Z"/>
  <path class="st0" d="M2023.12,1252.5c2.93,1.23,6.13,2.21,8.95,3.84,2.95,1.7,3.1,4.56.41,6.48-4.55,3.24-9.45,6.01-14.28,8.85-.77.46-2.16.7-2.86.32-7.23-3.97-14.49-7.93-21.47-12.31-1.3-.82-1.45-3.48-2.42-6.03,8.07-5.33,16.88-8.25,25.5-11.28,4.85-1.7,6.91,1.92,6.17,10.12Z"/>
  <path class="st0" d="M1317.96,486.51c.31,2.35,1.19,4.22.61,5.35-3.87,7.61-7.94,15.12-12.23,22.5-.61,1.05-2.86,1.86-4.19,1.66-4.96-.73-9.96-12.45-7.28-16.93,3.46-5.78,7.5-10.9,15.07-11.39,2.49-.16,4.96-.73,8.02-1.2Z"/>
  <path class="st0" d="M661.81,2004.02c-1.79,1.44-2.78,2.83-3.58,2.73-.85-.11-1.77-1.54-2.16-2.57-.15-.4,1.08-1.89,1.66-1.87,1.04.03,2.07.81,4.08,1.71Z"/>
</svg>