<?xml version="1.0" encoding="UTF-8"?>
<svg id="Untitled_227_xA0_Image" xmlns="http://www.w3.org/2000/svg" version="1.1" viewBox="0 0 2732 2048">
  <!-- Generator: Adobe Illustrator 30.2.1, SVG Export Plug-In . SVG Version: 2.1.1 Build 1)  -->
  <defs>
    <style>
      .st0 {
        fill: #67633b;
      }
    </style>
  </defs>
  <path class="st0" d="M2011.98,1250l-2.99-11.99c59.51,39.41,92.25,105.79,121.3,168.7,10.1,21.87,21.81,41.27,27.74,65.27l2.96-9.97,24.98,28.99-17.63,14.17c4.11,20.4,2.33,41.6-8.29,59.84,8.17,5.69,18.6,1.14,27.91,8.03,3.91,2.89,11.82,14.17,6.14,18.05-3.06,2.09-43-1.71-48.56-3.63-33.34-11.52-23.86-74.47-27.75-102.25-2.49-17.76-33.81-52.17-46.75-67.25-21.9-25.51-45.87-49.27-69.98-72.02-9.17-8.65-17.85-16.83-24.05-27.95l9.01,31.97c-6.63,5.1-28.98-23.15-32.4-28.58-9.75-15.5-24.89-54.83-14.51-71.31,4.18-6.64,26.44-25.55,34.04-26.03,15.49-.98,27.96,17.83,38.85,25.93Z"/>
  <path class="st0" d="M1570,1655c2.28-17.93,23.43-63.58,43.1-66.9,8.6-1.45,35.97.7,42.28,6.52,10.05,9.27,8.93,36.76,6.64,49.37l7.95-15.98c10.35,50.79-.11,106.86-14.98,155.98-8.15,26.93-19.71,59.79-30.02,85.98-3.15,8-10.35,16.68-12.94,25.07-1.88,6.08,5.76-.73,7.97.98l-4.01,37.99-23.81-3.83c-1.48,7.9-12.68,18.81-19.23,23.77-5.68,4.3-24.35,11.45-26.03,13.99-2.5,3.79,8.59,13.12,10.59,17.53,5.14,11.36-.66,31.69-11.56,21.56-8.03-16.37-29.36-28.23-29.24-47.7.21-33.9,49.53-61.45,62.88-90.75l6.39-55.61c.51-20.68,1.35-41.28,2.04-61.96.13-3.84,1.99-7.68,2.06-11.94.45-25.24-4.4-50.04-.1-75.08-9.03,5.59-9.85,18.39-15.01,25.97-2.73,4.02-4.97-.81-4.97-2.97,0-9.77-1.17-22.83,0-32Z"/>
  <path class="st0" d="M750,1320c-1.32,3.94,20.25,2.87,14.01,7.99-62.87,10.89-125.87-6.01-185.04-25.95-17.58-5.92-39.56-12.91-56.37-19.63-8.2-3.27-19.04-11.64-27.63-14.38-1.02-.32-3.26-.55-2.95.96l3.98,7-36.09-2.9c-5.26-3.41,4.32-18.32,1.24-23.11-1.59-2.47-6.45-2.57-8.55-4.59-12.84-12.33-22.5-27.06-29.59-43.35-11.11,8.68-17.94,17.17-33.57,13.51-7.72-1.81-9.47-5.34-4.54-11.66,2.64-3.39,32.27-26.66,36-27.98,14.05-4.97,26.84-.12,38.56,7.64,18.01,11.93,49.55,50.53,68,54,38.64,7.26,93.45,7.56,133.52,8.48,3.87.09,7.84,2.16,12.03,2.15,19.05-.02,37.19-8.05,56.98-.19l-15.91-11.06-14.07-4.95c.28-2.95,2.94-3.12,5.08-3.89,24.4-8.77,81.77,11.61,95.82,34,5.38,8.57,3.55,35.91-.42,45.4-2.38,5.69-13.95,12.51-19.49,12.51h-31Z"/>
  <path class="st0" d="M1072,406l-7.98,16c-8.96-53.88,1.57-111.46,17.94-163.04,7.73-24.33,19.15-60.24,29.01-82.99.69-1.6,17.34-27.61,12.04-25.96l-6.99,3.99,3.02-35.99,3.93-3.38c20.88,12.07,26.38-10.98,41.16-21.51,6.57-4.68,17.98-9.68,25.87-11.14,1.96-2.07-12.44-16.52-13.58-21.39-2.21-9.47-1.25-24.25,11.57-19.62,12.73,22.91,36.64,30.03,28.1,60.13-8.66,30.54-56.55,56.85-61.63,84.37-7.16,38.76-7.49,91.58-8.39,131.61-.1,4.3-2.18,8.47-2.16,12.02.13,19.27,7.8,37.39.09,56.9l16.01-27.99c5.2-.61,3.15.07,4.03,2.91,5.43,17.66-2.1,47.68-9.72,64.42-4.3,9.45-19.11,32.65-29.38,34.62-8.11,1.55-35.12.38-42.42-3.34-3.1-1.57-10.53-15.15-10.53-17.62v-33Z"/>
  <path class="st0" d="M1933.79,196.19c1.12,2.76,2.07,5.49,2.03,8.56-.1,8.36-2.6,29.35-3.94,38.13-5.63,36.73-76.82,27.85-102.86,31.14-16.85,2.13-43.96,26.25-57.98,38.02-19.35,16.27-43.04,37.33-61.07,54.93-16.6,16.21-28.19,38.75-49.96,47.05-.48,3.61,4.34,1.81,6.47,1.48,9.68-1.53,17.78-7.31,27.51-7.48-13.94,27.93-62.45,52.79-92.89,47.86-7.68-1.24-27.65-21.96-30.79-29.19-8.72-20.09,11.95-36.44,25.67-47.7-5.51-2.33-10.87,5.87-15.97,7.01-1.39-1.49,8.27-14.64,10.02-16.96,37-49.11,137.32-102.49,194.54-125.46,9.01-3.62,21.98-5.14,31.41-9.6l-9.98-2.97,27.88-24.23,15.34,16.75c21.8-4.69,41.11-.8,60.75,8.48,1.01-16.28,3.16-36.26,23.81-35.81Z"/>
  <path class="st0" d="M1140,1669.98l13.01-5.97c1.36-.43,1.38,1.66.96,2.95-3.82,11.66-30.91,36.34-41.03,44.98-43.43,37.07-108.75,70.34-161.56,92.44-9.13,3.82-21.66,6.96-31.37,9.64l7.97,4.95c-4.96,3.69-24.91,25.54-30.03,22.18l-10.18-16.99c-19.54,6.31-41.87,1.48-60.63-6.06-4.69,1.12-2.69,12.11-3.61,16.43-2.03,9.6-12.98,21.9-23.33,17.25-1.02-1.74,1.62-35.51,2.32-40.27,7.92-54.06,90.01-23.04,121.39-42.61,27.93-17.42,77.37-63.72,102.12-87.88,15.95-15.58,27.07-37.24,47.96-45.05.06-3.86-8.37-1.92-10.5-1.49-6.9,1.4-13.05,5.83-18.55,7.46-9.57,2.83,6.54-16.4,8.08-17.94,16.94-16.91,61.99-38,85.39-29.4,9.32,3.43,29.94,28.22,29.48,38.22-.62,13.28-18.97,28.53-27.88,37.15Z"/>
  <path class="st0" d="M2244,781.98l-5.98-9.98,39.09,5.95-2.78,21.75c16.71,8.96,30.51,27.72,35.7,46.3,14.66-5.31,23.09-21.95,41.08-10.1,1.43,2.1,1.22,4.39.57,6.69-.68,2.38-30.87,27.06-35,29.07-33.17,16.15-66.48-31.7-89.72-49.62-16.73-12.89-50.3-14.26-71.97-16.03-48.81-3.98-97.38-2.38-145.96-4.04,2.16,7.22,14.05,10.3,20.59,13.5,1.1.54,8.11.67,4.39,4.49-5.24,5.38-38.99.72-47.56-1.41-14.82-3.67-51.75-21.4-54.32-37.68-1.47-9.34-.71-33.57,4.12-41.65,8.22-13.73,38.17-11.57,51.75-9.26l-17.98-7.95c49.24-10.13,103.69-.56,151.52,13.44,27.53,8.06,64.66,20.28,91.05,30.95,4.47,1.81,29.53,17.16,31.41,15.56Z"/>
  <path class="st0" d="M756.03,729.98c3.79.34,1.81-6.35,1.45-8.46-1.41-8.33-5.97-15.32-7.47-23.51,24.54,10.96,43.68,45.26,47.74,71.23,3.22,20.59,1.68,27.93-13.72,41.78-29.1,26.19-42.86,7.32-63.03-17.01l6.99,17.99c-42.32-26.4-75.58-74.29-99.02-117.96-9.63-17.95-16.81-36.35-25.24-54.76-9.3-20.32-21.75-38.59-25.74-61.27l-4.95,7.97c-3.28-5.47-26.39-26.97-22.95-31.89l17.32-11.04c-6.06-19.8.21-41.75,6.6-61.04-8.25-1.51-20.21-1.14-27.05-5.97-4.74-3.35-10.7-15.16-5.09-19.18,4.26-3.05,36.82,5.37,44.67,3.59,46.49,17.63,18.02,85.99,34.6,117.4,6.51,12.32,33.29,41.93,43.82,54.18,16.45,19.15,37.44,43.28,55.04,60.96,11.29,11.34,30.61,19.58,36.01,37Z"/>
  <path class="st0" d="M1255.98,78c1.98-5.49-18.19-24.1-5.1-21.9,11.49,1.93,11.64,15.36,20.13,21.89l-4.03-17.97c10.67,3,14.04,12.13,17.05,21.96,4.97,0-1.51-9.02,5-8.02,11.57,1.78,17.57,33.27,17.02,42.96-.92,16.16-12.22,28.83-15.7,43.58l55.97,107.18c14.86,1.65,45.44,2.88,57.56,11.45,9.37,6.62,20.44,42.25,20.29,53.86-.18,13.73-8.37,32.47-20.25,39.93-13.73,8.62-24.24-2.77-37.91-4.89,3.53,5.99,10.8,8.82,16.21,12.82,2.25,1.66,4.97-.03,3.78,5.15-27.51-1.4-51.74-15.61-73.02-31.98l13.03-9.99c-35.94.08-43.36-26.29-50.02-56.01v29.98c-3.93-1.48-5.38-6.53-6.94-10.04-14.09-31.79-24.44-82.19-25.12-116.88-.16-8.06,2.82-17.79,2.07-23.9-1.16-9.44-14.42-19.25-15.95-36.2-1.45-15.97,6.34-29.66,5.88-39.82-.37-8.14-12.7-34.07-12.04-37.95,17.52-11.26,21.3,16.77,32.12,24.78Z"/>
  <path class="st0" d="M710.02,1028l16.99-21.99c10.53,11.19-28.02,77.84-32.99,73.99l-5.01-13.99c-4.91,7.02-3.99,16.71-7.43,24.57-6.88,15.77-35.99,21.92-51.57,25.44-.4,3.77,4.19,1.61,6.4,1.41,8.55-.8,16.87-2.42,25.58-1.41-.21,2.47-2.76,3.35-4.61,4.37-28.15,15.47-88.24,26.41-120.4,27.59-8.45.31-21.62-2.7-27.47-1.62-10.84,2.01-17.16,13.69-34.76,15.38-16.77,1.61-29.86-6.13-41.61-5.61-9.19.4-25.1,10.38-32.6,11.56-3.05.48-5.22.31-6.3-2.99-4.29-13.04,16.78-18.81,23.75-25.71-3.91-3.65-21.3,13.17-20.02,4,1.73-12.42,19.41-14.7,26.02-24l-19.98,7c-.64-11.77,13.34-12.66,19.98-19l-5.97,1.01c-4.16-16.71,29.18-22.52,40.99-22.13,15.87.53,29.15,10.73,43.5,15.85l104.18-54.03c8.77-4.93,4.38-16.92,5.82-26.18,1.78-11.46,5.36-30.45,14.83-37.17,22.37-15.88,60.98-24.34,82.73-3.41,18.54,17.85,4.76,27.18-.05,47.07Z"/>
  <path class="st0" d="M2120.01,1616.02c.15,4.16,23.07,3.79,17.97,9.94-12.62,8.7-24.27-2.28-37.98-1.94,3.57,8.57,19.76,1.9,19.99,11.96-9.8,4.8-16.47-1.05-25.99-1.96l1.99,7.97c-35.57,1.41-53.85-29.58-61.29-60.16l-116.58-36.98c-12.48,9.15-34.36,30.25-50.04,32.31-4.57.6-23.07-5.93-28.06-8.19-24.34-11.04-49.36-39.75-33.15-67.1l29.12-15.85-27.98,2.99c15.38-16.84,46.8-27.22,69.23-28.8,10.74-.75-1.04,10.09-1.24,15.77,2.05,1.96,18-11.88,21.91-13.06,18.44-5.57,33.81,7.67,50.09,13.06l-15.99-17.97c40.58,12.7,76.25,37.22,108.02,64.96,6.34,5.54,13.98,16.87,19.26,20.74,9.04,6.63,22,4.14,34.54,13.46,14.61,10.86,17.3,24.72,26.32,33.68,6.77,6.73,29.88,13.27,34.01,18.02,1.54,1.78,2.69,2.85.94,5.1-8.94,13.07-22.47-.41-35.08,2.04Z"/>
  <path class="st0" d="M1958.02,273.99c4.88-2.91,4.05-11.75,6.34-16.62,1.41-2.99,2.07-4.28,4.64-1.37,8.45,9.61-3.93,24.74-.98,35.99l8.95-19.97c9.9,8.37-.55,18.08-.95,27.97l4.98-5.95c9.44,6.09,2.88,18.53-1.35,26.61-11.18,21.35-32.1,31.75-55.3,35.69l-35.91,117.1c9.09,15.58,34.02,37.77,31.13,57.06-.59,3.94-6.6,19.33-8.59,23.47-11.9,24.72-39.56,46.79-66.86,30.92l-14.09-26.88,2.99,27.98c-19.89-18.78-27.35-49.43-29-75.98l13.99,3.97c-3.34-9.76-13.97-18.32-14.01-28.96-.06-14.58,12.22-29.39,15.99-43.02l-16.99,17.99c-2.3-1.21-.7-6.02-.04-8.04,10.18-31.3,36.65-68.93,58.03-93.97,6.61-7.74,22.79-19.78,27.08-26.92,6.85-11.42,3.17-23.84,15.95-38.05,8.54-9.49,25.38-16.15,32.03-23.97s10.29-25.77,14.96-31.09c3.59-4.09,10.12.48,11.02,5.05,2.09,10.67-3.97,20.62-3.98,31Z"/>
  <path class="st0" d="M2314.01,910.02c-.49,3.63,4.32,1.84,6.09,1.09,4.73-1.99,9.89-6.85,14.91-9.1,5.62,15.79-15.78,17.45-23,27,7.1,3.39,14.23-11.96,19.94-4.02-4.1,8.1-11,13.22-19.94,15.04-.06,4.69,6.13-1.35,6.06,5.02-.14,14.26-35.92,18.17-47.09,16.96-14.28-1.54-25.81-11.08-39.16-15.11l-105.86,56.07-1.96,4.04c-1.3,16.09-3.3,49.04-17.34,58.66-21.62,14.82-59.37,22.06-80.55,3.2-18.09-16.11-6.55-27.99-2.14-46.88-3.8.11-14.24,24.26-17.97,19.99,1.61-20.55,15.33-56.38,30.94-70.04,1.74-1.53,2.2-2.59,5.03-1.96l6,13.99c-.67-34.81,24.07-44.99,54.01-50.01.53-3.33-4.84-2.15-7.06-2.07-2.03.07-27.59,5.09-20.92-1.88,36.36-15.46,73.5-24.84,113.02-28.01,12.45-1,30.34,2.12,41.56-.44,4.91-1.12,8.59-6.26,13.31-8.69,23.84-12.28,40.91.32,61.04-.8,9.85-.55,28.61-12.22,35.76-9.86,15.01,4.95-17.96,27.9-24.68,27.79Z"/>
  <path class="st0" d="M700.46,467.55l116.63,36.36c13.15-9.68,38.36-33.85,55.37-31.51,11.57,1.59,37.27,14.16,45.51,22.63,12.87,13.21,23.51,44.97,4.73,56.69-5.76,3.59-16.15,4.47-20.7,10.27l25.98-2.99c-18.46,20.06-49.33,28.25-75.99,28.99l5.99-13.97c-1.29-1.33-18.55,11.18-22.54,12.42-19.3,6.01-36.36-10.53-53.44-16.41l21.99,18.99c-2.07,2.29-7.4.85-10.05.05-30.01-9.14-76.03-42.96-99.97-64.03-6.18-5.44-13.17-16.34-18.01-19.99-9.01-6.79-23.44-4.64-36.91-15.09-12.74-9.88-16.95-25.32-25.14-32.86-4.99-4.59-31.04-13.94-33.02-17.02l.04-6.11c5-9.67,28.38.6,37.06.01l-20.02-6.95c-2.43-2.04-2.31-2.06.03-4.03,9.63-8.14,24.78,3.14,36,.98l-19.95-8.98c9.52-9.75,19.22.75,29.95.98l-5.98-7.96c10.18-4.47,21.1,1.72,29.82,7.15,20.33,12.65,26.55,30.3,32.63,52.38Z"/>
  <path class="st0" d="M1410,1702.02c5.13,7.05,16.88,4.73,24.55,8.42,13.57,6.53,21.8,35.46,23.47,49.54,3.33.53,2.14-4.83,2.07-7.06-.25-7.72-3.11-15.09-2.07-22.93,1.62.03,2.97,1.79,3.99,2.99,13.41,15.87,26.19,87.93,27.97,110.03,1,12.42-1.81,28.26.13,39.87,1.17,7.02,7.48,11.67,10.24,17.76,10.22,22.5-1.52,39.58-.45,58.29.4,6.97,12.8,36.33,10.1,39.06-16.47,3.72-18.19-12.6-27.01-21.99l5,17.98c-14.43,1.95-17.74-22.14-25.01-25.98-.89-.47-3.4-.4-2.97.98l9.98,19c-14.05.95-13.59-14.18-21-21.98l1,7.98c-9.83,1.68-12.58-5.98-15.54-13.44-10.41-26.27-2.25-47.57,10.66-70.64l-55.32-106.69c-4.45-5.74-18.45-2.53-26.28-3.72-6.23-.95-27.77-6.57-32.29-9.71-3.7-2.58-13.6-23.48-15.3-28.7-7.17-21.92-6.78-49.79,14.21-63.94,17.08-11.52,24.66,2.8,41.85,4.84l-23.99-17.96c27.84-1.28,52.67,14.97,74,31,1.12,4.54-8.94,6.58-11.99,7Z"/>
  <path class="st0" d="M904.03,1491.99c3.65.46,1.73-4.27,1.44-6.43-.97-7.17-4.21-14.09-3.45-21.55,18.68,16.41,26.89,47.19,29.87,71.14.96,7.72-12.18-2.91-15.89-1.12-.94.74,11.4,17.27,12.47,20.51,6.58,20.03-7.42,36.23-14.45,53.47l18.99-19.99c2.45,2.39-.46,7.83-1.48,10.52-12.68,33.51-35.27,66.41-58.5,93.5-6.45,7.53-22.94,19.97-26.78,27.22-7.4,13.95-2.59,24.49-18.17,39.83-18.85,18.56-24.7,10.89-39.55,40.45-2.72,5.41-1.71,15.31-11.22,12.24-11.2-3.61.12-29.54.68-37.76-5.9,1.75-6.31,20.23-8,22-15.09-8.25-1.8-24.86-2-38-6.02,1.36-6.23,18.62-8,19.99-12.84-6.65-1.54-17.86-2-27.99l-1.99,3.98c-13.39-2.56-2.33-23.02,2.36-30.63,13.28-21.54,31.3-23.51,52.59-33.41l34.19-107.86c4.5-12.06-8.62-18.34-14-26.21-7.12-10.42-18.01-26.47-15.02-38.69,5.63-23.05,22.78-54.3,48.88-57.18,29.72-3.28,29.76,7.89,39.03,31.99Z"/>
  <path class="st0" d="M1797.84,586.14l18.16,43.84c-4.8,3.68-22.33-20.01-30.01-15.07-26.52,37.14-56.19,75.76-60,123.08-5.16.59-3.19,0-4.05-2.92-7-23.73-9.62-50.34-9.96-75.07l-21,35.98-3.88-4.01-11.1-30.99-36.21,73.79c-11.3,16.97-16.86-20.24-23.75-24.75-21.37,51.96,21.62,110.76,57.95,145.01,5.48,5.17,20.52,11.63,17.02,18.99-24.79,3.23-64.77-44.4-75.34-64.66-9.57-18.32-21.85-60.01-21.81-80.35s26.12-46.03,41.14-57.02c.99,11.73-1.45,23.08-.98,35.04.09,2.42-1.51,7.44,1.97,6.96l47.02-87.95c4.79-.19,3.15,33.84,7.99,37.95,13.86-14.28,26.34-31.89,39.98-46.02,2.08-2.16,3.51-4.67,7.02-3.96,2.07,2.28-10.8,40.09-11.78,47.2-.4,2.94-1.98,13.58,1.76,14.78,13.35-23.86,28.51-49.94,46.08-70.93,3.36-4.01,17.75-23.29,23.78-18.91Z"/>
  <path class="st0" d="M1776,993.98l95.99-27.97c3.34,3.49-19.91,26.51-21.99,31.97,8.29-.21,16.68.39,24.98,0,10.69-.51,25.74-4.2,36.02-4.14,3.69.02,6.59-.29,8.96,3.16l-41.83,24.13-12.12,10.85c17.4-2.43,101.37-24.61,112.1-17.1,2.42,1.69,2.16,5.27,1.86,7.95-.57,5.12-13.22,37.29-17,39.16-4.58.84-2.71-2.02-2.95-4.98-1.38-16.86,2.99-26.35-16.99-24.97-30.07,2.07-76.71,16.05-103.07,30.93-2.86,1.61-16.78,12.21-17.95,11.03,10.57-24.87,29.67-43.16,45.99-63.97l-42,9.96,17.99-32.99c.45-1.42-1.54-1.23-2.99-1.01-14.51,2.25-75.16,27.86-81.7,25.84-8.72-8.1,7.89-23,5.72-33.81-59.65,27.65-63.83,109.49-59,166.97-7.3,4.59-11.42-9.13-13.05-14.95-13.67-48.85,5.68-111.78,39.1-148.97,18.17-20.22,46.62-18.84,71.97-18.1,3.45,2.58.67,2.88-1.03,5.03-7.81,9.89-19.8,15.55-27,25.98Z"/>
  <path class="st0" d="M930,1086c-4.16-3.67,26.94-25.62,28-29.98l-92.98,26.04-3.01-3.03,21.97-29.02-67.98,3.98c-.79-3.57,1.05-3.95,3.31-5.67,13.03-9.9,36.96-14.26,46.68-30.3-36.48,5.37-72.66,19.57-110.08,15.06-2.33-1.59-1.98-3.18-1.6-5.61.88-5.67,12.37-32.99,15.97-38.17.94-1.36,1.77-3.37,3.69-3.29l4.03,32c46.9-5.1,95.81-14.56,133.97-44-7.21,25.38-28.75,43.32-43.98,63.98,14.56.76,26.25-9.01,39.99-9.97l-16.97,36.01,83.71-27.62,4.62,4.57-11.32,28.05c5.96,2.27,14.93-4.49,19.81-8.19,23.97-18.17,35.25-53.43,39.9-82.1,3.86-23.79,5.05-48.24.37-71.95l4.88-4.78c16.26,21.39,15.39,58.89,10.43,84.4-5.13,26.38-34.12,88.9-61.77,96.23-3.09.82-16.39,3.36-18.64,3.36h-33Z"/>
  <path class="st0" d="M1429.99,1462.01l-6.08-1.36-25.89-28.64,28.01,96.97c-1.76,3.24-3.5,0-5.01-.99-2.95-1.94-25.46-21.81-27.01-19.97l3.98,68c-2.35-.21-4.31,1.07-6.14-1.25-5.75-7.29-12.04-26.4-19.02-36.59-3.63-5.29-6.9-10.99-12.81-14.17,2.84,15.37,25.52,107.2,15.88,113.94l-45.9-15.96c-3.24-2.97.3-3.54,3.02-3.93,9.02-1.31,17.97-2.32,26.89-4.14-2.54-47.31-14.39-94.75-41.9-133.89,24.72,9.29,44.9,28.11,63.98,45.98l-9.97-41.99,33,17.98c1.56.3,1.17-1.78,1-2.97-3.43-23.88-20.1-51.89-25.14-74.89s17.74-3.57,28.13-2.09c7.57,1.07-1.11-12.07-2.19-13.84-16.04-26.26-55.51-38.99-84.37-43.63-24.33-3.91-49.01-5.49-73.26-.64l-3.18-4.88c24.66-18.56,68.4-15.44,97.05-7.09,20.51,5.98,70.26,31.71,79.3,50.7,7.95,16.72,6.42,40.97,7.63,59.36Z"/>
  <path class="st0" d="M1100,1378v-35c0-1.55,3.44-5.75,1.98-9l-48.02,87.99-4.07-1.14-4.89-36.84-40.87,47.13-8.13,2.85c4.38-20.44,15.8-40.69,13-61.98-15.44,23.07-28.92,48.01-46.21,69.79-4.05,5.1-16.16,20.94-21.81,21.44l-5.16-2.58-15.83-42.64c2.71-3.03,21.97,21.82,29.07,16.14,4.65-3.73,26.14-36.29,30.54-43.52,14.83-24.41,25.83-50.28,30.4-78.62,3.9.7,3.27,4.22,4.06,6.91,1.84,6.24,7.91,29.21,7.91,34.09v35c8.07-2.04,19.85-35.93,23-35.96l11.99,37.95,40.95-79.09c10.39-6.67,16.41,26.17,19.08,27.11,3.6,1.27,4.81-7.92,5.52-10.47,13.12-47.22-29.62-103.89-62.51-134.57-6.28-5.86-18.42-9.57-16.02-18.96,55.23,13.59,91.73,81.66,95.95,135.02,2.63,33.22-18.1,48.19-39.96,68.97Z"/>
  <path class="st0" d="M1306,586c3.87-.91,3.85,1.41,5.63,3.37,6.65,7.3,13.1,14.92,19.96,22.04,1.96,2.03,1.99,5.66,6.41,4.57l-28.07-92.95,3.03-3.01,29.01,21.98-3.97-69.99c4.68-1.01,3.21.61,4.48,2.57,10.58,16.46,16.71,39.29,33.49,51.42-8.97-37.33-19.63-75.24-17.98-114.01,17.37,0,32.24,10.43,47.99,16.03-5.59,8.95-32.17-.81-32.08,12.87.07,10.62,6.35,37.56,9.07,49.12,6.73,28.66,16.94,56.6,35.02,79.96-24.58-10.58-44.88-27.72-63.98-45.98l9.97,39.99-36.01-16.97,27.07,85.04-4.03,4.08-26.16-10.03c-2.73-.78-3.65.14-2.83,2.84,14.74,48.54,100.67,60.35,143.05,59.12,7.93-.23,18.28-5.91,24.88.92-4.53,6.35-10.83,7.99-17.99,9.97-41.25,11.45-83.87.93-119.82-20.13-16.48-9.65-37.61-22.08-42.8-41.2-.81-3-3.36-16.45-3.36-18.64v-33Z"/>
  <path class="st0" d="M973.99,576.01l-17.2,25.89c-1.21,4.64,38.89,30.99,45.38,34.93,23.22,14.1,50.25,27.47,77.82,29.18.62,4.79.07,3.2-2.77,4.22-7.12,2.56-26.47,6.43-34.47,7.53-11.8,1.61-26.56.81-38.75,2.27l35.99,23.96-37.98,12c10.98,7.38,75.37,33.04,79.05,39.98,4.47,8.44-17.03,13.12-23.65,16.46-9.52,4.8,12.31,8.98,15.8,9.37,52.95,5.92,108.98-43.41,139.82-81.77,9.77,1.65,1.49,15.32-1.42,20.6-24.04,43.55-87.83,76.13-136.72,77.44-23.32.62-44.84-24.58-60.85-39.05,6.03-6.95,15.22-.14,22.86-.91l21.08-2.07c-11.36-4.11-24.69-10.08-35.34-15.67-8.41-4.42-47.96-25.53-51.69-30.32-1.16-1.49-1.21-2.19-.95-4.03,9.54.32,19.32-.63,28.68-2.32,2.43-.44,9.31-.48,9.3-3.66l-51.94-45.03c2.84-4.1,2.85-1.99,5.43-1.53,13.9,2.5,28.5,10.51,43.77,12.28,3.09.36,13.47,2.09,14.74-1.73-16.69-7.14-87.55-51.62-91.21-65.92,9.56-12.71,30.63-16,45.21-22.1Z"/>
  <path class="st0" d="M1720,1292h-33c-1.55,0-5.75-3.44-9-1.98l87.99,50.99-37.98,5.98c10.99,13.77,26.7,23.19,39.04,34.96,1.76,1.68,13.22,12.04,10.94,14.04-17.34-3.59-33.85-11.09-51.54-13.43-2.68-.35-11.87-2.65-12.43,1.42,14.38,5.37,92.06,56.24,92.1,67.05,0,2.85-1.5,3.34-3.37,4.73-4.24,3.15-39.06,17.81-40.73,16.24l15.77-23.4c.75-1.74-.03-3.01-.72-4.54-2.47-5.51-55.49-39.47-64.3-43.81-17.98-8.85-38.94-15.57-58.76-18.26.7-3.84,4.18-3.3,6.9-4.08,6.08-1.72,31.5-7.9,36.1-7.9h35c-4.29-9.74-35.86-16.95-36.02-24.98,11.03-3.17,21.74-6.52,33.02-9.06,3.08-.69,3.5,1.38,2.99-3.93l-76.08-36.94c-11.78-9.73,14.54-14.04,21.51-18.62,1.9-1.25,3.61.24,2.58-4.45-42.6-17.02-88.96,11.08-120.94,38.03-4.7,3.96-11.11,8.77-15.15,12.85-3.59,3.62-21.05,30.12-25.9,25.08,1.22-21.7,23.66-45.54,39.96-59.01,24.2-20,83.75-42.79,114.57-36.52,9.29,1.89,38.36,25.55,44.47,33.54,1.54,2.02,3.86,2.52,2.99,6.01Z"/>
  <path class="st0" d="M1255.74,843.74l-14.89,6.17.67,7.55,54.44,59.58c5.65,7.87,12.82,15.59,4.16,24.07-18.73,18.34-49.72-5.44-68.76-13.47-32.14-13.55-76.79-36.23-108.28-45.72-13.03-3.93-40.32-4.75-47.98-14.02-17.88-21.63,15.04-34.6,33.02-29.02,41.32,41.47,99.62,54.25,150.91,79.05,5.61-3.07-.17-11.71-3-14.97-11.42-13.16-37.03-23.63-48.89-41.11-17.22-25.38,12.55-23.36,22.78-32.95,4.26-3.99,6.99-25.35,17.14-14.96,1.31,1.34,9.68,28.18,8.68,29.79Z"/>
  <path class="st0" d="M1476.01,917.99c14.53.16,16.24-11.38,23.17-19.81,8.15-9.92,27.86-36.67,40.01-38.13,18.93-2.27,14.83,13.61,21.89,23.86,6.54,9.49,21.23,6.23,18.71,19.9l-27.97,9.29c-9.27-2.01-4.97-19.48-14.49-16.85l-75.33,64.91c-36.85-9.43-8.41-47.25.33-67.82,14.17-33.36,34.54-75.14,45.69-108.31,5.17-15.4,6.25-49.72,20.48-55.51,21.21-8.63,29.38,18.44,24.58,34.57-2.59,8.68-14.54,16.91-19.91,24.09-17.47,23.35-45.07,88.45-54.72,117.28-1.38,4.12-3.05,8.03-2.44,12.54Z"/>
  <path class="st0" d="M1580.01,1054.01l-98.47-6.55c-12.8-5.68-7.52-18.99-.59-27.5,11.19-13.73,33.72-16,49.57-22.43,33.62-13.63,81.77-29.68,112.22-45.78,14.3-7.56,37.15-33.49,53.39-18.91,10.68,9.59-.19,31.97-10.75,37.55-11.12,5.87-20.89,2.28-32.15,3.85-43.77,6.12-89.62,34.08-131.33,48.67-1.72,1.99-2.98,2.4-.99,5.16,6,8.31,39.43-1.57,49.99-2.16,11.52-.64,40.01-2.72,41.02,13.21.62,9.81-9.72,17.12-7.86,29.73.68,4.63,7.86,14.09,2.05,18.29s-22.56-9.16-29.17-11.1c-4.36-7.11,5.49-14.22,3.06-22.04Z"/>
  <path class="st0" d="M1304.23,1263.77c-2-3.19,10.23-29.92,11.73-30.85,7.87-4.86,18.7,11.71,21.7,1.75.98-3.24,2.14-15.34,2.42-19.58,1.02-15.53-.98-69.92,6.07-79.93.87-1.24,1.55-2.44,3.17-2.82,33.02-4.98,34.24,28.16,43.15,50.2,14.07,34.79,28.47,74.62,43.82,108.18,5.89,12.88,27.98,40.26,27.6,50.11-1.14,29.86-42.24,15.91-45.71-10.01-2.64-19.77-1.62-31.29-8.14-51.86-8.84-27.87-24.98-65.84-37.07-92.93-1.59-3.57-2.9-7.32-5.96-10-1.9,1.55-3.41,3.2-4.53,5.41-5,9.88,2.99,34.63,3.61,47.46.49,10.14,2.45,33.25-8.11,38.04-12.34,5.61-21.01-6.55-31.18-6.89-5.21-.17-19.09,9.26-22.56,3.7Z"/>
  <path class="st0" d="M1126.59,1017.44c-8.94-10.86,5.58-23.66,5.49-34.47-.05-6.01-12.19-20.51-.8-22.65,1.46-.27,25.98,11.38,26.92,12.53,6.44,7.92-11.67,17.21,1.22,22.74l89.46,4.53c20.87,5.39,10.33,28.23-3.06,36.7-46.56,19.58-99.85,35.37-145.17,56.83-11.69,5.53-37.41,25.66-45.63,26.44-20.64,1.98-25.03-11.99-16.76-28.84,10.23-20.85,31.64-14.69,50.24-17.76,27.12-4.49,93.73-31.52,119.53-44.47,3.16-1.58,5.77-3.15,7.94-6.02-10.81-10.75-26.36-2.07-38.99-1.03-8.74.72-26.24,2.73-33.95,2.05-4.23-.37-13.91-3.52-16.43-6.59Z"/>
  <path class="st0" d="M1259.99,1130.01c-16.86,1.1-22.5,19.43-32.05,30.93-7.1,8.55-22.51,27.52-33.4,28.65-18.12,1.87-13.64-21.86-26.71-30.41-2.63-1.72-22.88-8.73-10.34-15.2,1.39-.72,24.1-8.15,25.43-8.03,7.54.69,7.33,10.45,9.23,15.9l7.81-.89,69.95-62.1c15.88-5.03,20.51,11.25,21.38,23.85-22.78,65.79-62.92,127.41-74.86,196.72-9.28,14.23-23.68,18.63-31.97,1.13-13.46-28.41,8.55-36.62,22.38-56.72,13.89-20.18,45.11-91.64,52.23-115.77.79-2.69,1.31-5.24.93-8.05Z"/>
  <path class="st0" d="M1610.84,1197.16c-34.26-25.96-85.21-47.93-126.31-62.69-3.43-1.23-6.73-2.85-10.52-2.46-8.06,8.48,31.64,33.05,38.02,38.96,5.83,5.4,18.79,16.81,19.88,24.17,3.12,20.92-16.36,15.23-25.81,23.96-5.09,4.7-6.88,20.75-14.77,18.69-5.96-1.55-8.17-22.48-12.84-28.5.11-9.84,19.73-4.75,16.75-15.35-16.04-21.83-38.54-40.02-55.17-61.01-8.89-11.22-16.24-22.87,2.28-29.57,20.9-7.57,36.23,7.27,54.31,14.98,33.73,14.38,82.25,38.59,115.43,48.57,12.6,3.79,43.42,5.28,49.69,16.31,10.54,18.58-12.53,30.61-28.26,28.34-9.78-1.41-15.32-8.82-22.68-14.4Z"/>
  <path class="st0" d="M1309.32,700.68c10.04,9.98,7.66,32.47,9.19,45.81,11.52,43.37,31.24,84.2,48.51,125.5,4.48,1.08,6.8-7.68,7.07-11.01,1.56-19.08-13.44-58.55-1.05-74.93,10.37-13.72,21.61,1.34,34.02,2.04,6.88.39,19.93-7.15,23.12-2.89,4.36,5.82-3.44,12.88-5.99,18-3.53,7.08-.01,13.99-11.04,12.78-4.36-.48-14.25-8.67-16.86-.68l-6.5,97.49c-6.53,10.3-22.95,3.14-29.86-3.72-9.37-9.31-13.18-32.7-18.4-45.6-13.65-33.77-29.33-79.77-45.16-110.84-7.64-15-27.25-32.65-23.92-49.16,3.91-19.36,26.78-12.83,36.87-2.79Z"/>
  <path class="st0" d="M775.51,1485.52c-3.1,3.09-11.29,2.44-15.51,2.46,5.71-7.67,4.44-15.41-5.99-15.97,2.19,10.07,5.11,21.29-8,23.98l-4.18-21.84-19.48,4.17c-7.04,18.31,6.34,26.29,23.77,22.79,8.84-1.77,21.09-14.17,29.99-8.21,5.86,3.92-5.25,34.84-12.09,38.12-4.64,2.22-11.22.27-16.56,1.44-3.07.67-25.48,8.53-26.49,9.51-2.88,2.78-3.72,12.21-6.97,16.01,8.15-.65,9.95-10.65,16.07-14.91s35.82-13.66,28.93.92c-1.65,3.49-20.81,19.94-25.09,22.92-7.62,5.3-36.89,16.96-35.93,28.07,7.5,4.63,6.82-4.6,10.06-7.94.6-.62,12.94-9.27,14.1-9.9,4.3-2.36,9.53-2.73,13.84-5.14,2.21,2.32-12.74,16.05-15.04,17.94-6.01,4.95-30.27,21.43-36.99,17.12-4.82-9.17,8.87-17.05,12.92-23.18,8.25-12.5-8.38-13.43-17.99-10.53l-2.66-2.45-12.2-54.89h7.97c.18,11.53.49,24.15,12,30-3.81-6.47,5.73-17.07,5.58-19.02-.18-2.51-12.66-9.75-7.57-13.95,17.25-14.24,26.65,4.66,37.29,6.41,1.68.28,13.08-.38,10.7-5.43-15.43,4.83-19.7-6.21-18.01-20.01-6.63,7.38-13.63,3.28-19.97,4.84-5.99,1.47-23.34,12.7-28.78,11.04l-8.33-29.84,11.09-4.04,1.8,18.83c7.05,5.33,11.72-3.07,10.36-9.47-.22-1.03-10.23-4.91-5.95-11.17,1.29-1.89,38.01-14.02,43.79-12.17,3.51,3.14-12.63,11.72-13.97,15.02,1.64,9.12,4.71-.95,6.01-1.9,3.62-2.65,15.45-12.78,16.75-13.34,8.41-3.61,36.24-5.93,43.99-1.55,6.49,3.66,12.44,19.61,6.74,25.29Z"/>
  <path class="st0" d="M1831.99,1629.99c-9.87-2.7-17.98-1.21-17,10,6.48-6.43,25.84-6.66,22,6.03-23.13-1.47-22.89,7.8-13.02,25.08,19.66,2.98,23.17-10.46,19.57-27.64-1.99-9.51-13.98-16.69-7.37-29.28,10.34-.23,21.87,2.46,30.49,8.16,12.73,8.42,5.66,8.9,7.7,18.12,2.23,10.1,8.21,20.62,10.08,31.09l17.56,6.44c-1.62-8.08-10.62-9.26-14.86-14.12-4.91-5.64-12.62-33.21-2.38-31.68,24.66,14.43,29.16,44.01,50.26,61.8l2.65-7.69c-6.83,3.19-26.61-30.44-20.65-30.31,9.6,3.21,37.22,43.43,34.09,49.99l-4.06,3.37c-9.32,1.13-23.51-21.03-29.02-17.33l-2.22,23.8-57.79,12.18,2.32-7.67c10.95-.71,23.87-1.47,29.67-12.3-3.43-.14-7.25.5-10.59-.42-10.35-2.87-7.97-9.04-20.41,4.37-2.29.02-9-14.27-8.92-16.99.23-7.56,21.2-24.39,7.94-32.97,2.1,14.76-5.89,19.99-20.01,18.01l15.05,48.07c-1.61,3.44-27.88,10.97-31.05,9.03l-4-11.11,20.82-1.88c4.61-3.26-3.63-14.92-11.68-7.96-1.69,1.46-4.4,8.72-10.16,1.83-5.8-6.95-11.89-32.41-10.97-42,7.45,2.88,8.43,14.86,16.97,14.01l1-3.98c-4.16-1.09-17.25-14.8-18.88-18.14-2.01-4.13-5.44-27.74-5.2-32.81,1-20.6,32.1-32.38,32.08-5.1Z"/>
  <path class="st0" d="M1190,1856c-2.88-3.83-7.41-14.67-.97-15.99,2.16-.44,14.22,15.32,20.96,11.98l-2.05-13.97-8.69,1.53-4.94-4.84c2.82-7.31,15.03-38.6,22.68-38.73,3.76,5.3-2.07,13.85-.97,18.95.78,3.62,5.79,2.71,5.92.1.03-.64-2.08-3.03-1.78-5.76.64-5.77,1.38-19.36,2.92-23.2,2.2-5.5,21.13-27.35,26.82-29.18,15.35-4.95,35,10.71,17.08,23.09-4.88,1.81-1.54-6.12-6.19-7.78-3.53-1.26-8.47-.66-10.75,2.8,9.24,6.34,16.54,7.23,13.95,20.99-8.37-2.52-13.81-11.82-23.88-9.89,1.26,7.57-10.31,14.24-6.24,20.44,8.64,13.16,25.28,5.36,31.83-5.84,5.08-8.68,3.13-21.07,13.7-26.47,9.14-2.39,20.27,25.76,18.6,34.7-.88,4.73-6,7.21-8.4,11.68-2.26,4.2-13.73,25.11-13.33,27.91l7.71,15.47c-1.92-13.47-1.68-35.15,11.29-43.72,12.53-8.27,9.64,22.53,8.73,30.73-1.02,9.26-6.56,17.86-7.75,28.25-.86,7.53.05,15.22-.23,22.75,9.69-3.9,3.56-9.53,3.97-15,.71-9.45,2.18-22.88,10.01-29v29c0,4.47-8.38,34.52-14.97,33-15.86-20.1,5.36-50.2-29.69-20.28l-47.33-27.76,4.97-7.57c9.55,5.97,16.35,16.15,29.02,13.58-4.41-3.13-7.67-17.55-9.92-19.06-4.44-2.99-15.06,2.26-14.1-3.91,4.41-28.44,31.33-10.25,36-33.01-13.12,14.53-16.09,5.44-29.97,0,1.81,8.42-5.29,10.65-8.43,16.58-2.4,4.53-9.99,26.59-12.74,27.38-7.57-3.08-15.45-6.52-22.83-9.95,16.52,21.98,75.66,50.41,99.83,71.17,4.82,4.14,17.46,13.12,9.03,18.74l-16.85-5.9c7.47,36.86-57.53,97.23-65.45,34.43-2.62-20.77,1.9-43.45,15.18-59.8l-.61-2.59c-22.17-17.71-37.63-51.22-69.13-52.06l.43-11.44,2.61-4.55c8.8,3.07,16.52,8.08,24.96,12Z"/>
  <path class="st0" d="M2142,1156c.48.23,1.09,3.38,2.89,3.46,22.27-11.24,9.91-28.04-7.44-35.92-8.27-3.76-18.45-1.68-21.53-14.47,8.76-5.62,16.41-13.3,27.25-14.88,14.92-2.17,11.55,3.13,22.24,9.4,3.96,2.32,22.75,12.4,25.6,12.31l16.98-7.88c-7.27-1.99-17.77,2.66-23.98,1.15-4.9-1.19-28.81-14.3-22.01-21.16,10.61.82,22.61-1.16,33.01-.01,14.97,1.66,31.39,12.57,48.99,7.99-.37-9.9-8.57-3.71-14.68-4.12-8.61-.57-22.5-2.41-27.31-9.85,20.21-1.04,40.71,1.02,59.08,9.89l.74,7.92c-5.59,8.17-54.84-5.1-18.07,25.12.25,2.89-27.43,47.62-30.78,49.03s-4.89-4.92-4.57-6.69c.4-2.23,10.25-10.92,12.12-15.94,1.43-3.86-.54-7.58,1.48-11.33-4.52.07-6.63,4.02-10.87,6.14-9.02,4.53-10.1-2.56-9.43,14.54l-4.29,3c-26.9-1.64-10.13-31.4-31.41-35.68l7.86,12.98-9.85,16.99c10.66-2.79,10.18,4.22,15.21,7.79,5.38,3.81,26.72,7.79,28.59,13.55,1.04,3.2-10.53,25.27-12.2,26.25-2.73,1.59-10.14.74-11.6-2.59-2.15-4.92,11.26-10.44,11.13-16.9,1.69-7.4-20.17-5.62-13.29,8.64-1.11,1.97-1.88,3.23-4.49,2.98-1.06-.1-16.45-6.25-18.73-7.34-3.07-1.47-19.78-11.68-20.62-13.39-.84-4.3,2.02-3.1,5.03-3.06,6.18.08,16.47,6.35,16.94-3.92-19.69,4.53-39.24-3.49-53.06-17.92-16.07-16.77-2.2-46.78,17.04-27.08-7.61,4.91-10.76,7.61-7.95,17l13.39-13.62c4.08-1.07,7.91-1.21,10.56,2.62-6.41,5.81-12.31,11.51-11.97,20.99,5.01-.42,9.7,1.96,14.01,4.01-5.56-2.7,2.94-17.69,7-19.96,9.34,4.38-.25,23.24-7,19.96Z"/>
  <path class="st0" d="M2036.06,473.92l22.99,4.03,12.94,53.01c-1.57,3.79-6.55,2.45-8.17-.28-4.48-7.54.41-23.24-11.79-28.68,3.12,6.47-6.41,17.08-5.71,20.71.7,3.63,10.08,6.86,7.61,13.19-5.11.23-10.32,5.95-14.92,5.95-9.94,0-25.08-21.12-35-7.88,16.9-1.93,18.83,5.04,20.02,20.02,6.64-5.21,14.16-3.09,21.62-5.35,9.27-2.81,17.61-10.43,28.21-8.49-.19,8.04,12.81,30.44.83,33.56-10.21.93-4.38-6.14-4.83-10.55-2.02-19.63-15.72-8.83-13.59-.36.84,3.34,9.64,3.63,7.71,10.15-1.05,3.55-37.67,15.89-43.96,13.03-3.08-2.66,13.15-11.97,13.97-15.02-1.59-9-4.65.74-6.07,1.85-3.6,2.81-16.21,14.39-17.29,14.8-2.9,1.1-27.96,4.59-31.55,4.48-9.82-.3-18.33-5.68-20.6-15.55-3.41-14.8,2.77-14.44,15.52-16.53-.2,3.61-2.74,6.69-1.73,10.53.79,3.02,10.79,13.24,8.98,3.25-1.65-9.13-6.91-12.41,3.79-19.77l6.56,17.39,3.55,4.56,18.95-7.29-3.37-18.86c-3.87-2.75-18.18-2.3-23.26-1.36-10.36,1.93-17.7,14.28-29.17,7.23-4.4-6.97,6.11-33.21,12.63-37.91,2.7-1.95,7.25.62,11.48-.19,4.02-.77,28.29-8.27,30.44-9.75,4.24-2.91,5.51-13.43,9.16-17.82-4.24-3.97-13.29,14.66-15.42,16.07-6.92,4.6-22.26,6.54-30.59,5.9-5.5-5.64,20.96-27.53,26.1-30.9,11.15-7.33,31.13-12.26,35.9-27.08-10.64-2.39-8.11,5.41-13.21,9.77-6.01,5.15-18.66,11.92-26.78,12.2,9.23-11.78,20.72-21.95,33.96-29.02,4.2-2.24,14.46-8.7,18.12-6.07,8.08,13.85-15.5,19.31-14.02,33.03Z"/>
  <path class="st0" d="M915.99,323.99c-3.03-.22-5.63-1.91-8.76-1.83-2.45.06-11.29.74-11.29,4.87,0,4.6,3.24,8.48,7.43,8.75,5.09.32,5.36-11.58,12.72-6.87,4.39,2.81,13.35,31.91,13.93,38.1.28,2.96,1.2,5.83-2.99,4.97-5.38-2.16-7.72-14.32-15.02-13.97-3.7,3.67,16.68,19.4,17.43,20.54,3.8,5.82,5.9,37.78,3.04,44.92-5.62,14.03-33.27,16.22-28.47-5.47l11.95,1.06,4.02-9.06c-10.67,2.56-18.09,7.49-23.97-5.02l21.15-6.96-5.04-19.14c-17.42-4.83-24.3,5.52-22.01,21.97,1.56,11.19,13.58,20.07,9.89,33.15-9.58,2.23-34.96-4.94-38.99-14.02-2.07-4.66-.24-9.81-1.48-14.52-2.53-9.57-6.55-19.03-9.5-28.5l-18.03-6.95c2.07,8.09,10.59,9.43,15.02,13.97,4.66,4.78,14.04,29.63,5.87,31.99-27.39-9.8-31.54-44.98-53.89-61.94-8.98,9.06,2.91,8.68,7.11,12.85,2.71,2.69,12.88,20.28,13.77,24.25.59,2.6-.29,3.95-2.85,2.84-2.76-1.19-22.09-25.15-24.67-29.34-2.8-4.54-11.94-19.79-6.43-23.76,9.85-5.64,25.18,20.67,31.98,15.02,1.93-7.85,3.09-14.06.08-21.89l58-14.02-.28,7.7c-10.47,4.03-23.69.08-29.71,12.27,5.63-2.48,16.01,6.07,18.65,5.68,4.62-.67,8.97-10.86,14.31-5.64,17.88,17.49-17.45,32.69-.98,47.97-5.64-16.07,6.52-18.94,20.02-20.02-7.5-6.64-3.47-11.41-4.78-18.01-1.49-7.47-8.62-16.58-10.34-23.98-2.85-12.24,19.71-11.24,28.19-15.25,5.59,2.06,5.3,8.41,4.92,13.25Z"/>
  <path class="st0" d="M1550,196c-1.96-8.37-107.56-70.27-117.99-87.04,1.97-12.56,20.55,2.6,21.98,1.03-6.14-23.78,21.11-63.33,45.4-63.43,27.61-.12,22.57,76.14,2.69,88.44,22.14,17.64,38.81,52.68,69.93,52.99,2.42,26.47-5.98,15.5-22.01,8.01,1.06,4.52-1.36,10.99-5,13.96-4.86-5.87-11.58-16.18-20.12-10.03l1.41,9.78c7.78.91,15-2.28,12.9,8.37s-12.63,27.93-20.2,35.91c-3.99-4.79,3.83-22.86-4.98-21.98,1.32,6.06-1.37,11.77-1.81,17.21-.29,3.6,2.18,6.32,1.01,10.81-1.29,4.94-21.89,30.13-26.61,31.56-17.01,5.14-37.38-9.55-17.58-23.57l4.37,8.21,12.62-.23-14.61-12.56.62-11.43c6.33,5.28,12.09,10.79,20.82,11.83l8.96-20.49c-11.05-13.34-24.53-8.42-32.22,5.24-5.56,9.88-3.31,22.69-16.61,27.04-8.36-6.48-19.4-28.17-17.07-38.21.24-1.04,6.63-4.41,9-7.52,1.93-2.53,14.38-27.28,14.37-28.89,0-1.45-3.65-8.37-4.76-10.6-1.32-2.65,1.31-5.52-4.5-4.38-1.43,6.44,2.37,13.05,2.13,18.96-.28,6.86-9.89,27.83-18.91,24.88-5.8-1.9-2.32-32.13-1.11-38.73.92-5.03,4.29-9.3,5.33-14.67,1.81-9.34,3.11-18.88,2.54-28.44l-7.46,4.94c7.31,9.71-2.17,26.03-4.56,37.04-2.98,2.81-3.6-.19-3.97-2.95-1.37-10.09,4.14-43.91,9.11-52.92,11.05-20.03,14.62,22.42,14.97,27.83,9.69.9,14.22-8.6,20.9-13.47l48.98,30.53c-9.97,13.28-19.49-14.16-33.96-6.98,4.39,5.68,7.02,10.4,6,17.98h16c3.69,30.24-29.2,15.13-36,35.99l14.68-7.58,15.28,9.59c-1.29-8.47,6.86-11.85,9.74-17.28,4.49-8.49,6.04-18.85,11.57-26.87,3.52-.74,23.18,9.57,28.72,12.15Z"/>
  <path class="st0" d="M592,892c-3.04-1.26-2.13-4.3-8.15.87-11.31,9.74-3.08,22.56,7.12,29.15,6.28,4.06,30.73,6.95,26.12,17.91-5.21,7.8-27.35,18.73-35.75,15.82-2.78-.96-3.69-5.55-6.61-7.49-8.79-5.83-21.26-9.16-30.06-15.95l-16.66,9.67c6.52,1.32,12.92-2.18,19.01-2.17,11.28.01,36.73,17.7,23.66,21.86-21.26,6.77-57.65-13.57-80.67-9.67,2.44,12.6,9.75,3.84,14.76,3.97,1.17.03,21.62,5.02,22.72,5.53,2.75,1.26,5.21,2.99,4.5,6.48-10.15.69-56.2-4.34-59.83-13.15l1.05-5c8.67-6.91,28.51-.37,31.9-7.8,1.05-9.78-13.86-13.89-12.86-20.6.5-3.32,27.92-47.3,30.75-47.4,2.6-.09,3.48,5.65,2.63,8.58-1.94,6.67-16.42,15.39-11.61,27.38,10.67-10.66,23.22-3.68,19.99-24.01,25.81-.98,17.64,16.98,25.08,29.92,1.4,2.44,9.11,7.6,10.9,6.08,3.12-2.65-5.29-5.76-6.53-8.41-6.06-13.02,9.54-18.1,6.54-21.56-8.15,1.87-10.26-6.18-13.49-8.06-5.22-3.03-29.45-11.15-30.39-15.16l15.19-26.61c3.66-1.44,9.52,1.66,10.67,4.83.95,2.63-11.49,9.31-11.61,14.4-2.14,8.8,9.7,7.42,12.73,2.52,1.64-2.66-.98-8.46.92-11.92,4.86-3.28,36.43,14.08,41.96,19.01.83,4.5-1.96,2.79-4.95,2.98-5.47.36-14.35-2.34-17.04,3.97,6.75-1.37,13.11,1.31,19.21,1.83,3.16.27,6.15-2.05,9.34-1.44,6.85,1.32,30.5,21.72,32.55,29.59,3.69,14.18-9.98,32.59-23.08,17.02-1.79-3.91,6.13-3.28,7.66-8.37,1.15-3.82.72-8.01-2.69-10.59-3.87,8.96-10.16,18.69-20.98,13.98,2.65-9.03,12.18-11.45,10.09-22.9-4.83-1.4-9.46-3.17-14.11-5.09,5.97,4.03-1.88,21.07-6.97,19.99-6.35-5.09-1.72-11.34,1.77-16.25,1.12-1.58,1.52-6.22,5.2-3.74Z"/>
  <path class="st0" d="M1225.99,1314.01c1.73,14.41-11.05,26.5-23.21,31.77-10.47,4.53-18.77,3.27-28.62,11.38-6.86,5.65-10.14,14.26-16.08,19.92-8.51,8.1-20.95,11.38-29.13,20.87-8.76,10.18-13.38,25.15-20.07,35.93-3.95,6.37-21.55,26.48-22.47,29.51-4.47,14.78,4.61,16.88,11.52,25.67,8.02,10.18,16.22,23.95,25.04,32.96,19.13,19.57,46.22,17.39,52.13,51.87,1.71,9.97-.78,21.5,1.8,30.2,3.08,10.39,16.74,17.33,17.27,32.9,1.17,34.62-36.94,68.49-61.24,88.96-7.52,6.34-32.58,27.03-39.79,30.21-6.92,3.05-14.73,2.48-7.17-5.17,12.32-12.48,34.12-25.18,48.05-37.95,14.66-13.44,47.19-49.85,46.05-69.96-.84-14.84-15.1-21.82-17.7-30.53-1.96-6.58,3.12-20.49,1.15-31.08-4.13-22.15-24.96-27.24-40.19-37.8-22.44-15.57-34.77-40.76-51.24-60.68-2.04-2.47-5.91-3.21-7.88-6.19-7.95-12.07,5.99-15.44,11.77-21.81,19.93-21.95,33.34-61.86,52.13-75.87,6.39-4.76,19.57-9.24,24.93-15.07,4.44-4.82,6.61-15.91,13.04-20.96,7.05-5.54,19.76-3.34,27.81-6.19,5.77-2.04,28.54-26.62,32.08-22.9Z"/>
  <path class="st0" d="M1651.76,297.78c-.42.73-11.93,6.02-14.76,8.22-23.72,18.47-75.43,61.47-80.51,91.47-4.51,26.64,13.83,26.44,17.15,40.06,2.22,9.13-8.43,17.14.02,35.82,9.24,20.44,22.62,20.95,38.22,31.78,22.09,15.33,35.08,40.95,51.34,60.57,3.51,4.24,10.34,6.8,9.88,14.48-11.02,12.69-24.25,23.76-33.55,38.37-11.52,18.1-13.15,36.28-31.68,50.32-16.41,12.43-16.66,7.21-30.17,25.83-15.6,21.51-15.38,10.43-35.16,16.84-8.07,2.61-29.35,27.34-34.53,22.45.1-13.01,12.79-25.94,23.96-31.02,12.83-5.83,21.15-2.8,33.11-14.89,4.28-4.33,7.5-11.88,11.93-16.07,7.32-6.91,19.55-11.15,27.08-18.92,10.95-11.3,16.73-29.87,25.08-42.92,7.08-11.07,28.56-27.17,18.22-41.56-1.2-1.67-5.92-3.37-8.43-6.56-8.43-10.66-16.74-24.46-25.92-34.07-23.01-24.09-51.55-18.33-54.8-63.24-.47-6.48,2.17-14.56.99-18.78-2.65-9.43-19.17-19.78-19.23-34.94-.03-6.28,7.44-27.36,10.55-33.49,8.59-16.94,34.54-39.88,49.44-52.56,6.13-5.22,44.63-35.86,48.99-34.98,2.56,1.64,4.33,5.12,2.8,7.78Z"/>
  <path class="st0" d="M836.29,1122.28c16.83-.41,33.55.32,50.17-2.83,22.92-4.34,34.41-16.11,60.34-13.24,8.48.94,17.43,5.75,26.22,5.94,9.91.21,17.46-5.67,28.09-4.28,8.91,1.17,14.23,11.32,21.75,14.28,8.93,3.51,24.25,2.13,34.12,3.88,11.5,2.04.22,10.14-6.42,11.51-27.83,5.71-37.41-15.24-59.54-15.11-6.78.04-14.62,3.69-21.7,3.43-10.24-.38-20.68-6.43-32.32-5.99-16.77.63-35.75,10.21-52.49,13.63-11.78,2.4-32.51-2.02-36.08,13.92-1.42,6.34.35,13.21-.44,19.56-1.52,12.16-5.88,28.52-6.05,40.12-.33,22.63,18.53,33.47,5.07,62.9-5.49,11.99-20.95,21.39-23.94,28.06-4.95,11.06-.45,25.63-10.97,37.03-24.39,26.41-80.23,21.97-113.05,18.89-8.44-.79-44.8-5.24-49.01-8.99-12.06-10.74,15.36-3.39,17.18-3.19,37.24,4.25,84.99,9.56,119.85-5.74,24.25-10.64,12.92-25.97,19.97-42.03,2.22-5.07,16.95-10.02,21.89-18.11,16.13-26.39-4.69-51.7-3.02-79.02l10.38-74.62Z"/>
  <path class="st0" d="M1077.99,883.99c-13.12,1.1-28.67-14.96-32.97-26.01-2.6-6.69-2.16-14.13-5.3-20.7-5.03-10.53-19.7-16.58-27.68-26.32-5.6-6.84-9.06-17.16-15.06-22.94-10.68-10.27-31.7-17.32-44.45-25.55-6.48-4.18-19.16-17.88-24.43-19.57-15.2-4.89-19.57,7.51-29.17,15.05s-24.37,16.15-31.92,24.08c-18.16,19.07-12.43,40.99-46.57,49.43-10.97,2.71-26.32-.38-30.98.85-7.54,1.99-21.57,19.62-34.41,19.76-11.96.13-37.56-11.4-47.08-19.04-15.06-12.07-64.17-66.22-71.66-82.34-1.7-3.66-3.04-6.41-2.31-10.67,4.85-.9,5.03.46,7.71,3.27,10.57,11.07,20.77,28.82,31.25,40.75,16.79,19.09,60.19,63.37,87.75,49.7,5.8-2.88,13.9-13.28,19.21-14.91,7.56-2.32,16.35,4.64,26.93,3.08,26.02-3.86,33.48-32.03,47.2-48.83,13.25-16.23,30.31-24.73,46.36-37.08,5.39-4.15,16.22-19.33,23.65-17.2,11.08,10.4,20.61,22.21,33.27,30.87,14.76,10.11,41.39,17.77,51.7,30.3,6.48,7.86,10.51,20.8,17.88,28.12,5.85,5.82,19.15,9.99,23.17,16.83,4.38,7.46,2.52,18.53,5.45,26.55,4.48,12.22,22.38,18.69,22.44,32.54Z"/>
  <path class="st0" d="M1053.99,306.01c-5.07,38.2-18.27,110.77,5.14,143.86,11.92,16.84,26.17,7.95,38.4,13.6,6.95,3.21,8.3,18.43,23.39,24.61,24.66,10.1,34.57-1.89,56.09-4.05,22.71-2.28,39.08,3.15,60.34,5.81,7.05.88,27.59-2.75,31.66,4.15,1.88,16.91.12,33.71,3.53,50.47,4.15,20.41,15.43,33.84,13.53,56.64-.8,9.61-6.04,18.27-6.23,27.91-.25,12.51,8.87,22.25,1.9,35.74-1.95,3.78-7.07,6.49-9.45,10.55-6.26,10.64-5.53,30.3-6.31,42.71l-8.19-1.21c-5.3-12.48-5.2-25.55-.2-38.2,2.56-6.46,8.16-11.05,10.19-17.79,3.96-13.13-1.88-22.24-1.59-33.6.27-10.47,6.37-22.27,5.93-34.22-.61-16.66-10.64-34.45-13.62-50.5-2.09-11.27,1.89-34.8-14.27-37.41-3.03-.49-6.08,1.33-9.1.95-13.36-1.66-28.99-5.49-42.05-6.11-33.68-1.6-51.18,22.55-84.92-5.1-4.71-3.86-10.37-12.67-13.55-14.45-17.6-9.87-30.54,4.69-45.66-22.34-19.93-35.65-13.58-94.96-6.76-134.82,1.17-6.86,2.65-18.96,11.78-17.2Z"/>
  <path class="st0" d="M1702.71,1221.29c5.17,5.17,12.55,8.24,18.31,14.69,6.71,7.51,11,19.05,18.28,25.72,12.12,11.11,31.13,16.47,44.56,25.44,11.45,7.65,17.41,20.72,33.21,19,7.78-.85,12.08-9.25,17.99-14.09,9.21-7.55,27.14-18.23,34.04-25.96,10.67-11.95,12.22-30.97,28.62-41.38,19.61-12.45,31.84-4.85,48.8-9.2,6.06-1.55,17.72-14.27,25.39-16.6,35.98-10.94,79.65,39.8,100.04,64.14,5.06,6.04,30.95,38.43,30.06,43.9-6.95,8.38-10.66-5.79-14-9.97-19.49-24.34-69.2-87.46-102.98-85.11-13.66.95-21.98,15.82-28.46,17.76-6.34,1.9-21.46-3.09-31.44-1.5-22.95,3.66-30.78,31.52-43.17,46.82-12.88,15.92-30.83,25.14-46.7,37.39-6.95,5.36-14.49,18.46-23.81,17.32-4.22-.52-16.39-16.3-21.42-20.69-17.3-15.1-31.33-18-49.36-28.64-22.54-13.31-18.55-26.05-32.56-39.44-7.91-7.56-24.09-11.31-26-24-.86-5.71.87-10.67-1.19-16.81-3.22-9.63-23.01-23.82-22.89-31.18.04-2.66,1.14-3.28,2.95-4.85,13.35,4.52,25.26,16.61,30.01,29.96,4.12,11.58,1.17,16.71,11.72,27.28Z"/>
  <path class="st0" d="M1475.76,1330.26c7.06,4.37,4.79,31.34,2.37,38.87-2.59,8.03-10.71,14.31-12.02,21.97-1.84,10.76,2.37,21.24,1.98,31.95-.37,10.01-6.2,22.77-5.91,31.78.41,12.93,10.1,31.96,12.93,45.06,2,9.28,1.47,29.37,4.36,35.64,5.36,11.6,20.34,7.3,29.51,8.49,12,1.56,28.73,5.94,40.11,6.04,11.85.1,24.75-7.99,36.43-9.54,15.32-2.03,28.36,3.31,40.32,12.65,4.46,3.49,12.84,15.04,14.2,15.8,8.83,4.98,29.61.9,40.03,11.97,4.19,4.45,15.08,27.21,16.58,33.42,5,20.58.97,96.68-5.22,118.05-2.34,8.08-10.45,19.72-9.38,4.63,1.91-27.19,9.59-56.59,7.95-84.01-.92-15.41-7.36-52.34-20.97-61.03-10.18-6.5-25.43-3.19-33.05-6.95-3.12-1.54-7.24-14.85-14.07-19.93-25.09-18.68-55.93,2.04-84.98.96-10.7-.4-21.95-4.42-32.2-5.79-8.3-1.11-36.83-.43-39.72-6.28-3.19-6.46,1.33-12.55,1.09-18.92-.23-5.94-1.42-17.99-2.31-23.86-3.36-22.09-18.55-43.55-15.27-65.77,1.23-8.34,7.24-19.93,7.39-28.75.1-5.8-5.72-15.84-5.52-23.78.3-11.61,15.32-16.29,17.42-34.16.69-5.88-2.5-35.01,7.99-28.52Z"/>
  <path class="st0" d="M2085.99,709.99c-44.54-3.42-98.78-17.33-140.75,4.25-21.02,10.81-10.55,24.58-16.75,39.25-3.37,7.98-19.91,10.61-25.48,26.52-8.41,24.01,2.21,31.56,4.81,51.15,3.08,23.21-2.83,42.24-5.62,64.2-1.4,11.05,5.59,32.7-11.25,32.72-12.02.01-22.48-1.86-35.72.14-19.66,2.97-42.18,16.71-60.26,15.9-10.84-.48-25.76-8.63-36.09-8.25-5.72.21-17.03,6.97-25.47,5.75-6.65-.97-14.75-11.8-21.41-14.64-13.87-5.91-28.92,1.5-39.96-8,7.78-9.96,26.87-9.13,38.03-6.07,7.72,2.12,16.72,11.77,23.02,12.97,10.92,2.07,23.85-2.66,35.89-1.86,8.84.59,19.94,5.87,27.81,5.76,14.35-.21,33.07-9.88,47.1-12.91,12.46-2.69,39.47.28,43.27-14.8.87-3.45-1.45-6.96-1.03-10.78,1.43-12.88,5.09-27.84,5.84-40.34,1.9-31.81-21.01-49.49,2.37-81.63,4.56-6.27,14.39-12.9,17.21-18.79,5.43-11.34,1.14-25.46,11.36-36.64,7.56-8.28,32.75-18.97,44.01-19.99,37.16-3.37,80.76,1.74,117.04,9.12l2.03,6.95Z"/>
  <path class="st0" d="M834.09,299.91c11.63.39,23.34-.15,34.99.01,14.17.19,26.01,3.38,40.92-2.91,4.96-2.09,7.72-7.62,12.85-7.12l9.13,11.08c-.9,3.8-29.97,9.35-35.55,10.47-33.08,6.63-81.43,17.71-113.7,20.29-28.33,2.27-20.82-8.66-.76-14.72-14.29-11.62-23.03-31.46-21.98-49.96,4-70.45,75.79-2.85,74.08,32.85Z"/>
  <path class="st0" d="M2287.99,1090.01c1.27,7.58-2.62,13.66-5.99,19.97,21.17-1.17,41.2,8.47,53.95,25.07,37.98,49.45-55.25,49.11-78.68,25.09-21.24,20.12-49.67,38.17-55.17,68.98l-14.13-.08c-2.75-2.06-1.92-2.44-1-5.02,1.34-3.73,10.09-16.66,12.96-21.07,20.63-31.66,49.58-76.43,73.23-104.77,4.22-5.06,7.29-9.52,14.81-8.17Z"/>
  <path class="st0" d="M2091.99,489.99c2.62,30.32-8.86,62.01,9.81,88.72-3.56,4.37-7.39,10.24-13.79,9.29-1.81-20.81-33.48-156.83-27.81-165.77,5.49-8.66,13.75,11.61,14.79,15.75,17.37-16.87,35.3-23.15,59.84-19.81,55.15,7.51-12.6,78.79-42.83,71.82Z"/>
  <path class="st0" d="M1969.44,1725.48c-3.01,2.95-11.15,4.73-15.43,4.53,1.18,6.93,8.54,10.22,12.41,16.57,8.05,13.22,9.79,32.5,6.69,47.54-9.16,44.51-56.76-.75-66.86-23.37-2.69-6.03-4.34-21.41-7.53-22.47-5.2-1.73-49.49-.88-57.48-.02-11.73,1.26-18.93,5.03-28.23,11.79-1.32-4.48-13.64-10.18-7.84-14.18l156.09-29.7,9.87,3.8c1.06,1.3-.84,4.68-1.7,5.53Z"/>
  <path class="st0" d="M645.98,1460.01c6.28,17.65,7.16,36.27,10.61,54.41,4.73,24.94,10.89,50.08,14.88,75.12,1.01,6.35,6.45,35.83,2.51,38.45-9.21,4.48-12.28-20.15-15.94-17.98-7.75,13.82-26.99,21.87-43.01,22.13-75.5,1.26-11.78-76.69,28.88-74.23-2.66-28.02,8.37-64.46-11.85-86.91l13.92-10.99Z"/>
  <path class="st0" d="M547.99,820.01c2.38,2.34-12.5,25.76-15.18,29.81-19.07,28.8-48.43,75.06-69.98,100.02-18.49,21.41-19.45,4.89-8.83-11.81-22.21,2.8-45.69-8.56-57.68-27.34-26.35-41.31,37.82-41.41,62.78-32.78,8.08,2.8,12.42,8.43,19.51,9.9,20.18-18.84,50.43-37.97,53.48-67.71l15.91-.08Z"/>
  <path class="st0" d="M1576.3,967.71c-5.73-3.65.47-14.11,4.68-17.74,14.74-12.74,41.22-24.75,58.08-35.92,3.21-2.13,7.48-4.25,8.95-8.03-23.68,4.98-53.71,23.76-77.26,25.82-11.76,1.03-14.22-4.62-7.86-13.96l123.07-34.92c17.31-6.82,56.28-41.64,71.14-40.84,6.26.34,9.15,5.95,2.8,10.79-12.94,9.85-33.52,17.51-48.52,27.47-33.4,22.19-67.66,54.89-100.73,75.27-6.12,3.77-28.42,15.84-34.35,12.07Z"/>
  <path class="st0" d="M1481.98,744.01l-36.95,74.01-11.06,1.01c-5.89-5.61-2.76-11.46.39-17.68,16.7-32.98,45.55-70.06,59.37-104.61,7.51-18.78,6.47-43.85,14.23-63.77,1.85-4.75,6-17.02,12.98-14.95l3.02,6.77c-4.68,18.41-11.82,36.08-15.39,54.8-7.76,40.75-9.4,89.58-19.16,128.84-1.88,7.55-8.32,33.42-19.46,26.64-4.88-5.09-4.24-11.13-3.46-17.54,2.91-23.92,13.76-49.45,15.48-73.51Z"/>
  <path class="st0" d="M1177.67,912.3c1.43,5,.3,11.7-5.07,13.29-16.76,4.97-66.38-17.39-86.59-15.57l75.05,37.93c6.39,5.77.92,15.03-7.58,13.67l-111.47-62.63c-20.4-8.66-59.25-7.25-76.76-19.23-5.12-3.5-6.58-9.9.17-11.45,3.97-.91,48.26,13.11,58.23,15.04,24.19,4.69,51.03,8.39,75.64,12.36,26.86,4.34,53.37,2.92,78.4,16.57Z"/>
  <path class="st0" d="M1294.69,813.31l-44.67-69.3,25.96,79.22-.91,4.75c-4.35,6.18-11.4,5.31-14.78-1.26-12.4-38.17-19.99-81.01-33.33-118.67-6.75-19.06-42.18-56.37-41.14-73.05.19-3.08.45-5.15,3.22-6.99,2.84-.59,6.34,4.19,7.83,6.13,10.39,13.5,18.81,34.73,29.51,50.49,21.31,31.4,51.47,63.78,71.3,94.7,7.68,11.97,27.59,50.46-2.99,33.99Z"/>
  <path class="st0" d="M1159.71,1082.3c1.07,1.71.58,8.05-.14,10.29-3.07,9.54-62.09,38.39-71.57,49.4l79.27-25.91c10.2-.05,11.09,10.36,3.48,15.69l-120.75,33.25c-21.78,9.39-42.02,32.36-64.56,39.43-9.19,2.88-19.2.64-10.19-8.18,8.35-8.17,34.28-18.06,46.19-25.8,34.26-22.28,70.14-57.75,103.86-78.14,2.53-1.53,22.72-11.17,24.63-11.56,2.48-.5,8.67-.21,9.77,1.54Z"/>
  <path class="st0" d="M1484.03,1305.98c3.66.49,1.63-4.15,1.11-6.11-5.04-18.96-24.68-55.3-25.26-72.97-.24-7.19,3.85-14.02,11.24-9.05,8.76,5.9,12.47,40.38,15.86,52.16,6.33,21.99,14.25,53.63,22.02,73.98,5.15,13.5,20.89,29.79,28.61,43.39,4.34,7.65,23.29,40.16,2.35,29.65-10.96-17.11-18.87-34.7-30.33-51.67-22.01-32.58-54.78-67.11-74.41-99.59-7.26-12.02-23.3-43.33,4.67-30.66l44.14,70.87Z"/>
  <path class="st0" d="M1649.99,1139.98l-75.1-37.87c-7.56-9.47-1.8-16.12,9.64-13.79,8.07,1.65,31.58,20.2,40.82,25.32,19.22,10.66,47.15,27.27,66.13,35.87,20.88,9.47,61.97,7.42,79.27,20.73,7.14,5.5,2.77,10.25-5.48,9.65-13.69-1.01-32.38-10.19-46.87-13.3-42.17-9.05-91.07-9.95-132.47-19.53-13.59-3.14-46.98-14.22-18.83-25l82.89,17.91Z"/>
  <path class="st0" d="M1252.02,1306l38.49-75.46c8.51-5.93,15.49.44,13.11,9.97l-62.62,111.49c-5.12,12.95-9.79,71.53-21,77-2.59,1.27-5.23,1.18-7.99,1,1.51-22.75,11.3-42.78,15.44-65.55,7.02-38.64,8.79-85.29,17.54-122.46.93-3.97,8.6-25.57,10.98-27.01,7.26-4.41,13.1,1.03,13.56,8.49l-17.51,82.53Z"/>
  <path class="st0" d="M2226.44,1596.43c-1.36.93-1.59,6.04-4.47,8.54-3.75,3.25-10.38,2.68-14.77,5.24-7.09,4.13-8.15,12.49-22.45,13.71-9.97.85-21.95-2.23-32.28,6.56-1.71,1.46-.95,5.26-3.88,7.65-4.38,3.58-12.12,2.85-16.52,4.95-2.8,1.34-4.36,5.23-8.92,7.06-7.95,3.2-11.49.02-16.26.67-2.04.28-4.58,4.32-7.49,5.6-15.54,6.84-23.15.02-37.93-4.07l-89.47,47.7c-1.99,2.88,7.75,10.03,9.68,13.25,10.13,16.89-5.26,22-5.71,17.7,7.14-23.4-24.18-13.97-22.06-29.97.78-5.87,24.95-14.93,31.42-18.67,17.78-10.3,54.85-36.79,72.59-41.39,14.53-3.77,17.39,4.85,29.04,5.22,10.53.34,13.2-5.76,18.08-6.16,3.57-.29,7.01,2.49,11.47,1.7,4.88-.86,7.94-6.37,11.98-8.2,9.47-4.28,19.64-7.07,28.53-13.46,3.89-2.8,6.1-7.35,7.09-11.93,1.92-1.38,17.69,7.45,27.84,2.85,3.98-1.8,5.48-8.41,8.08-9.92,3.7-2.15,9.3-.49,13.95-4.05,3.96-3.02,3.64-8.25,6-9.99,2.57-1.88,7.85-1.1,10.68-2.84,2.36-1.45,2.32-5.91,4.33-8.12,2.68-2.95,7.58-2.96,9.15-5.38,6.66-10.3-4.03-26.37-1.29-30.69,7.5-3.42,31.27-19.88,37.95-17.9,1.47.44,3.69,2.97,3.16,4.88-1.18,5.62-26.34,12.63-29.01,17-4.22,6.92,4.81,18.6-3.24,30.78-.97,1.47-15.54,18.72-16.63,19.4-3.17,1.98-7.15,1.24-8.67,2.28Z"/>
  <path class="st0" d="M1873.5,110.53c3.19,3.32,11.24,26.14,12.82,27.13,11.63,1.55,21.59-5.04,32.44,2.58,3.03,2.13,3.83,5.8,6.24,7.75,7.08,5.73,20.56,17.69,24.81,25.2,2.45,4.34,1.34,9.47,3.25,12.75,1.39,2.39,7.11,3.78,9.8,8.2,6.86,11.25.25,21.41,1.62,28.62,1.43,7.49,16.93,20.36,19.11,24.64,2.42,4.76,1.35,11.26,2.94,14.1.75,1.34,5.07,1.61,6.63,6.35,1.9,5.78-.07,12.12,1.75,18.25,1.11,3.74,5.63,6.8,6.67,11.31,2.4,10.41-.72,21.6-7.15,29.93l49.61,94.65c1.18.89,10.64-16.63,24.27-14.93,7.44.93,11.7,6.82,2.61,8.83-3.82.85-9.12-.42-12.4,2.62-5.34,4.98-1.91,20.93-15.12,19.22l-60.53-105.73c-3.08-11.32,9.28-21.06,6.82-32.55-.82-3.81-4.81-6.31-5.6-10.53-4.47-24.09-4.33-21.96-16.12-42.4-4.84-8.39-4.31-18.06-17.96-18.55,2.28-9.32,9.31-17.41,4.53-27.51-2.17-4.59-8.54-5.85-10.67-9.31-2.43-3.95-1.27-8.37-3.7-12.3-3.77-6.08-19.1-18.37-23.05-22.95-1.64-1.9-1.53-6.18-3.9-8.1-8.45-6.83-25.06,4.36-30.28.42l-18.59-33.63c.35-5.02,5.49-7.87,9.16-4.05Z"/>
  <path class="st0" d="M1318.34,89.65l98.65,28.39c5.57.61,2.4-10.46,3.12-14.94,1.2-7.42,7.67-14.68,15.88-13.1,1.07,7.58-7.52,9.92-7.98,17.14-.5,7.81,11.22,14.3,3.73,24.6l-6.47.11-111.84-32.29c-9.26-5.15-9.85-22.22-18.66-27.34-3.34-1.94-7.55-1.68-10.64-3.36-4.41-2.41-7.71-9.37-12.64-11.36-10.57-4.27-21.44-5.37-31.88-7.93-3.38-.83-6.48-4.76-10.93-5.01-4.69-.27-9.49,4.37-14.58,3.38-1.34-7.89-6.72-20.08-15.58-21.64-4.47-.78-7.88,1.98-11.46,1.7-3.93-.31-7-5.38-12.23-5.99-4.92-.57-8.63,1.95-11.95,1.81-3.93-.17-6.5-4.95-10.15-5.35-3.68-.41-7.18,3.1-10.09,3.15s-4.8-3.93-9.17-3.38c-7.32.93-15.59,14.75-17.76,21.47l-41.49-9.9-.32-6.57c1.92-7.35,28.72,7.48,34.72,6.51,5.4-1.37,10.11-18.68,24.44-19.86,11.34-.94,33.03-1.43,43.47.41,4.42.78,8.44,6.7,12.69,7.17,3.02.34,6.53-1.79,11.25-1.11,15.47,2.23,17.18,16.14,21.5,18.68.85.5,18.14,4.84,19.12,4.91,12.88.91,20.11,2.48,32.96,7.01,9.08,3.2,12.21,11.58,15.31,12.69,3.89,1.4,7.95-.17,13.39,2.61,7.09,3.6,15.34,19.37,15.58,27.41Z"/>
  <path class="st0" d="M767.36,1802.59c5.32,9.4,2.78,15.42,16.79,18.55,1.5,5.96-8.17,15.59-2.82,28.38,1.77,4.24,9.13,5.06,10.22,6.92,1.2,2.05.33,7.19,1.95,11.05,2.53,6.02,9.25,7.32,11.38,10.62,1.57,2.43,1,6.27,2.98,9.02,2.31,3.21,7.03,3.19,8.77,4.74,2.16,1.91,1.65,5.59,4.23,8.22,9.17,9.37,23.15-3.06,31.12.82,4.41,4.47,21.12,36.1,18.01,39.08-.34.32-6.14.35-7.57-.43-3.35-1.82-10.32-27.66-15.77-29.37-11.6,1.39-22.32,4.81-32.51-3.34-1.9-1.52-14.92-12.59-15.59-13.39-6.41-7.79-12.86-24.87-17.15-30.88-1.46-2.05-6.15-3.08-9.11-7.89-8.21-13.33-.58-21.8-2.58-29.24s-14.92-18.16-17.51-22.66c-7.41-12.87-12.14-34.27-17.66-48.33-6.41-16.3,6.14-28.05,5.18-34.98-.45-3.21-8.46-17.14-10.68-21.53-11.85-23.48-27.38-45.42-37.07-69.95-5.35-1.39-4.13,4.07-7.83,7.1-7.3,5.97-26.46,13.39-22.99-1.1,20.86,5,16.33-19.3,24.27-21.67,12.38-3.69,13.41,10.62,18.24,19,16.14,27.95,33,55.45,47.85,84.15,3.34,12.36-8.01,21.65-5.44,35.41,1.7,9.12,3.36,6.5,4.07,19.94.41,7.87,13.65,25.45,17.22,31.75Z"/>
  <path class="st0" d="M2369.99,730.01c2.41,13.29-7.34,23.66-8.12,36.61,8.24,6.09,18.57,11.15,20.09,22.6.52,3.94-1.19,7.49-.89,11.07.84,9.96,2.16,21.96.61,32.2-.71,4.69-6.67,9.8-7.13,12.79-.5,3.3,2.1,7.48,1.05,13.23-2.51,13.8-17.98,17.62-19.29,19.8-1.1,1.82.07,7-.75,10.22-3.75,14.72-5.1,31.45-12.01,46.03-2.32,4.9-8.71,7.76-10.47,11.53-4.42,9.46-1.08,14.71-13.22,22.78-5.53,3.67-13.1,4.21-15.85,6.15-4.93,3.49-25.58,87.54-30.05,99.98-1.02,5.03,5.77.42,10.79,1.09,7.15.94,19.09,6.04,17.25,14.88-1.58,7.63-13.1-5.99-16.97-6.17-7.95-.38-23.3,17.88-25.03-3.6,14.8-33.37,17.03-77.65,32.22-110.05,5.15-10.97,18.39-8.98,25.89-18.01,4.63-5.58,3.36-9.65,6.07-13.93,2.12-3.34,7.3-4.34,9.6-8.4s12.58-39.46,13.15-44.51c.52-4.62-2.27-8.7-2.73-13.15.99-3.99,18.4-4.74,21.01-17.07,1.29-6.09-1.62-9.17-1.27-13.06.36-4.09,5.29-5.56,6.07-10.08.89-5.2-1.95-10.12-1.42-13.61.44-2.85,4.77-6.49,4.93-10.67.14-3.55-3.45-6.08-3.15-9.33.22-2.39,3.39-4.58,3.17-7.98-.8-12.83-21.64-13.89-21.72-24.26-.03-3.65,8.46-30.21,10.54-33.7,2.29-3.85,3.19-3.84,7.6-3.38Z"/>
  <path class="st0" d="M372.61,1186.58c-5.51,6.99-.54,14.24-1.64,19.68-.77,3.82-6.6,7.33-6.92,12.82-.54,9.32-.46,20.42-.42,29.92.01,3.16-2.12,6.37-1.7,9.9,1.09,9.06,16.87,13.52,20.26,17.98,4.58,6.02-8.38,30.42-9.15,39.16l-9.03,1.96,9.73-34.79c-.94-3.95-19.68-8.61-21.31-24.66-.33-3.23,1.53-6.16,1.37-9.32-1.15-22.81,2.15-37.65,6.66-59.77,2.64-12.96,20.96-18.75,22.97-38.7,2.61-25.88,6.51-26.03,17.45-46.88,2.12-4.03,1.78-9.22,4.28-13.72,6.47-11.61,26.38-15.42,28.46-19.54l28.42-97.59c-11.83-1.68-31.03.48-28.02-17.02,7.23-1.93,9.25,7.46,15.06,8.05,6.58.66,20.44-13.13,26.03-2.02,1.99,3.95-8.25,29.08-10.09,35.97-5.93,22.18-11.76,58.88-21.45,78.55-5.71,11.57-18.33,10-25.66,18.34-5.05,5.75-4.01,10.5-6.97,15.03-2.03,3.11-6.13,4.05-8.65,7.35-5.52,7.26-8.47,26.95-10.38,35.62-1.69,7.66-8.35,12.74-.09,22.13-.16,2.34-15.97,7.47-19.2,11.56Z"/>
  <path class="st0" d="M1661.7,2020.29l.3,7.7-36.12-8.98c-5.42,7.27-15.08,20.38-24.98,20.92-3.16.17-6.28-1.86-9.69-1.75-10.04.32-21.97,1.11-32.03-.18-5.18-.67-7.76-5.09-12.26-5.92-10.7-1.97-16.56,2.61-26.72-7.27-2.88-2.8-5.41-9.43-6.73-10.28-.82-.53-17.75-5.85-18.73-5.94-14.78-1.33-22.15-2.73-36.66-7.67-5.7-1.94-8.02-9.06-11.51-10.49-11.51-4.71-18.2-1.59-25.37-16.62-5.35-11.21,1.4-11.81-11.65-16.32-30.45-10.53-63.68-17.67-94.53-27.51,2.92,10.93-.17,26.78-13.05,29.12l-3.94-4.1c3.38-3.79,9.71-7.97,9.46-13.65-.29-6.63-14.53-17.64-3.5-24.47,3.98-2.47,29.16,8.35,35.98,10.14,22.69,5.95,60.27,11.78,80.49,21.51,11.24,5.41,10.54,22.55,19.62,28.38,3.3,2.12,8.14,2.09,11.76,4.24,4.27,2.54,6.77,8.13,11.59,10.41,5.85,2.77,38.11,12.45,43.5,12.53,4.24.06,8.37-2.11,12.11-3.86,2.97.3,5.84,18.83,14.37,21.37,6.38,1.9,11.8-1.77,15.35-1.12,2.96.54,6.01,6.99,12.41,7.53,4.38.36,8.26-2.33,11.75-1.98,7.92.78,8.23,2.28,19.86,2.15,2.97-.03,6.26,2.35,10.11,1.9,9.56-1.13,13.65-21.79,19.94-21.98l38.87,12.21Z"/>
  <path class="st0" d="M757.99,316.01c-.54,7.58-.1,15.78,7.42,19.57,9.03,4.55,16.68-1.3,14.29,16.13-21.23,7.57-38.91,21.81-58.36,32.63-8.69,4.84-45.34,25.9-51.87,25.25-7.43-.74-17.13-8.84-26.33-7.6-3.96.53-6.57,4.7-10.54,5.61-5.97,1.36-12.38-.44-18.81,1.27-3.62.96-21.41,13.15-25.95,15.97-8.79,5.46-14.29,4.54-18.94,17.12-3.86.9-11.76-9.99-24.4-4.45-5.76,2.53-7.11,9.91-10.47,11.51-4.03,1.92-9-.16-13.19,2.8-3.18,2.25-3.57,8.26-5.33,9.68-2.18,1.77-8.21,1.15-11.43,3.58-2.95,2.22-2.93,6.7-5.12,8.88-2.32,2.31-6.45,1.94-8.81,5.18-7.04,9.69,6.63,24.45-.13,31.89-1.25,1.38-31.53,16.49-33.38,16.64l-6.6-4.67,31.08-19.03c.47-9.41-3.46-17.94.4-27.45,2.28-5.62,8.04-7.01,11.35-10.65,2.43-2.68,2.9-7.13,6.05-9.94,3.66-3.26,8.83-2.89,10.62-4.4,1.69-1.42.94-5.24,3.87-7.65,4.81-3.96,13.27-2.68,16.13-4.34,2.04-1.19,5.06-10.38,12.35-12.64,8.31-2.57,20.65,1.54,24.04.14,1.04-.43,16.91-8.79,17.64-9.5,1.69-1.66.95-5.31,3.84-7.66,4.11-3.34,11.71-3.13,16.48-4.99,2.41-.94,4.42-4.87,8-6.01,5.71-1.81,11.62.19,16.71-1.29s5.35-7.17,16.37-7.74c12.73-.66,21.79,7.18,26.04,7.46,1.52.1,17.7-8.57,21.04-10.27,23.99-12.24,46.77-27.15,70.99-39.03,1.66-2.32-8.19-9.21-9.87-12.17-4.11-7.27-5.99-18.65,4.82-19.83Z"/>
  <path class="st0" d="M1446.01,325.99c4.68.3,3.53.67,3.99-2.96.91-7.15-.68-15.69,0-23.04,5.48-5.22,11.66,13.6,13,18,11.53,37.72,3.59,93.53-41.84,101.94l-3-4.7,9.83-17.21c-16.01,4.81-31.25,9.49-48,5.97l31.1-21.9c24.07-24.64,25.11-60.7,14.92-92.08,16.24,2.19,21.16,21.75,20,35.98Z"/>
  <path class="st0" d="M1920.01,585.99c2.64,2.78,13.98-12.3,17.3-13.68,2.28-.95,5.37-1.61,4.49,2.46-6.6,30.58-43,66.42-74.82,69.19-9.25.81-26.87-1.13-33.03-8.93-1.77-2.25-2.85-1.67.05-4.03,5.03-4.09,15.05-2,17.99-8.98-14.45-4.89-27.97-13.82-35.98-27.04,9.8-1.42,18.85,4.27,28.91,5.08,40.5,3.27,65.44-21.32,84.08-54.06,3.62,5.09,3.75,12.55,2.53,18.54-1.63,8.01-9.26,13.84-11.53,21.44Z"/>
  <path class="st0" d="M742.01,966.01c-1.71,1.68,14.28,40.67,2.01,45.98-14.05-37.43-44.99-55.45-84.99-51.96-9.21.8-17.84,5.61-27.05,4.95,2-6.56,7.5-11.54,13.39-14.61,9.16-4.76,16.53-2.67,24.62-7.38-4.63-2.81-27.92,1.65-27.95-3.99,28.35-25.73,110.88-17.53,119.55,24.46,4.47,21.67-15.36-1.6-19.58,2.55Z"/>
  <path class="st0" d="M882.01,1424.03l34.08,24.88,1.89,7.09c-37.56-16.36-74.34-5.96-98.82,26.18-1.94,2.54-12.05,23.38-15.16,19.82.5-6.6-1.02-14.16.41-20.57,1.02-4.56,13.26-17.73,11.57-19.41l-19.02,15.97c-4.84.93-3.1-3.76-2.51-6.51,7.83-36.23,62.11-81.79,99.55-62.49,19.03,9.81-1.81,11.9-12,15.04Z"/>
  <path class="st0" d="M979.51,557.47c-1.25,1.32-5.08,3.25-6.56.59l-5.94-18.05c-8.81,12.83-15,30.41-31,35.98,20.01-44.06-1.17-93.52-46-110.02-.44-7.28,7.71-6.39,12.98-6,12.28.91,19.64,9.44,29,16.03,3.08-3.41-14.1-18.12-15.99-21-1.74-2.65-1.9-4.75.98-4.94,3.73-.24,20.54,8.52,24.87,11.1,23.25,13.84,44.06,40.36,45.96,68.13.5,7.29-3.44,23.03-8.3,28.18Z"/>
  <path class="st0" d="M1797.99,1474.01c-17.51,46.58,2.39,91.74,48.01,110.02-13.63,11.89-30.35-1.25-41.98-10.03l15.97,23.99c-38.59-5.79-78.47-50.56-71.51-90.51.82-4.7,7.97-22.02,13.49-17.48.88.72,1.51,19.15,8.01,20-2.43-6.79,23.43-41.03,28.01-35.99Z"/>
  <path class="st0" d="M1315.99,1630.01l-7.97,21.99c5.08-5.2,46.14-12.57,45.94-5-31.16,14.44-51.71,40.44-52.12,76.01-.15,12.63,7.37,24.62,5.18,36.98-15.91-8.07-18.42-23.57-19.03-39.98-2.83.25-3.49,8.95-3.73,11.24-.61,5.91-.15,11.82-.24,17.74l-3.97.99c-21.34-37.71-18.47-115.48,35.95-119.97Z"/>
  <path class="st0" d="M1991.97,1038.01c16.4,48.01,64.9,59.68,110.02,46-4.15,16.36-23.43,19.42-37.98,20.01.25,2.83,8.96,3.5,11.24,3.73,6.23.64,12.78-.74,18.74,1.24-26.9,24.37-96.9,19.56-115.7-12.28-2.4-4.07-9.85-21.17-1.64-20.42l17.34,7.7c-3.2-13.32-10.35-29.56-6.04-43.07.89-2.77-1.23-3.55,4.02-2.91Z"/>
  <path class="st0" d="M2224.01,1258.01l1.16,6.17c38.66,6.47,78.14-3.11,116.82-1.19-3.51,3.37-8.36,5.92-13.11,6.89-14,2.85-41.24,5.36-55.9,6.1-9.46.48-48.72.89-54.48-4.49-4.04-7.98-7.33-17.73-8.41-26.61-.33-2.71-.21-3.78,2.87-2.85,9.24,2.81,14.27,8.13,26.06,8.14,47.5.04,98.06-10.77,115.07-61.1,15.29-45.28-17.72-70.39-50.06-94.11l3.18-4.86c14.49-3.73,44.46,28.84,51.19,40.51,15.04,26.1,15.13,52.49-.77,78-29.25,46.93-81.9,56.51-133.6,49.4Z"/>
  <path class="st0" d="M2225.99,504.01c-.17,3.79-1.98,7.95-3.66,11.32-5.92,11.91-40.58,52.45-51.28,62.72-8.03,7.7-20.56,19.57-31.91,17.88-3.98-.59-24.12-12.61-21.13-15.91,10.05-.6,18.99-6.16,26.08-12.92,35.25-33.62,61.21-79.95,35.52-127.7-20.89-38.84-63.43-32.65-100.61-27.38-4.22-9.58,16.71-14.92,24.21-15.8,105.35-12.35,122.52,96.9,60.84,164.84-7.24,7.98-17.66,14.94-24.09,21.91-2.22,2.41-1.23,4.71,1.08,5.04,9.97,1.41,57.8-55.42,65.93-66.03l19.02-17.96Z"/>
  <path class="st0" d="M1149.99,1866.01c-1.21,10.1-7.5,16.04-8.09,26.93-.67,12.36,2.49,36.73,4.69,49.47,10.22,59.17,74.35,97.49,123.43,52.61,11.68-10.68,16.84-26.12,28.96-35.04,6.86,9.43-3.69,24.5-9.96,32.04-28.44,34.21-71.76,46.14-109.69,19.64-43.66-30.51-50.6-76.89-45.82-127.17.94-9.92-6.66-2.71-7.61,4.41-3.77,28.07,2.55,65.39,4.18,94.02l-2.06,17.07c-.84-5.58-4.71-9.53-5.88-15.13-4.44-21.16-9.87-84.75-4-103.72,3.66-11.83,21.67-11.08,31.85-15.13Z"/>
  <path class="st0" d="M1809.96,1796.01l-5.94,4.93c23.83,31.13,57.28,52.7,83.97,81.04-6.13-.08-12.05-2.5-17.02-5.96-16.06-11.2-64.14-51.5-73.09-66.9-2.67-4.6-2.52-8.5-1.43-13.66.73-3.47,12.73-25.85,15.52-20.38.6,4.23,1.71,8.5,3.65,12.3,13.15,25.71,67.41,61.97,97.27,60.7,49.54-2.1,75.11-34.66,71.07-83.04-.23-2.7-8.66-33.71.03-30.05,15.61,6.57,12.46,49.9,9.49,63.51-13.8,63.27-88.74,72.57-137.33,42.34-16.75-10.42-35.16-28.94-46.2-44.82Z"/>
  <path class="st0" d="M617.99,1464.03c.84,4.54-.25,3.17-2.55,4.43-7.67,4.21-14.91,4.48-22.54,11.44-14.07,12.84-39.8,47.14-44.79,65.21-14.37,51.97,17.89,101.23,74.65,96.63,7.49-.61,26.52-7.02,32.08-5.69,4.83,1.15,1.57,6.67-.96,8.83-12.6,10.78-52.16,8.35-67.49,3.71-21.91-6.63-42.05-25.82-47.81-48.19-15.29-59.44,12.06-94.24,53.22-131.6,2.22-2.02,5.01-2.96,4.18-6.8-4.05-3.54-19.42,10.66-23.04,13.94-16.56,14.98-30.84,35.44-45.92,52.08l-17.02,15.96c5.15-18.3,23.23-38.33,36.04-52.94,8.23-9.38,29.5-33.7,40.04-38,11.4-4.65,21.31,8.88,31.91,10.98Z"/>
  <path class="st0" d="M1602,170c7.01-2.86,7.56-15.83,8.08-22.92,2.12-29.02-5.17-60.43-4.08-90.1.09-2.41-1.5-7.44,1.97-6.96,1.42,5.93,4.79,11.04,5.86,17.15,4.31,24.48,8.47,74,4.05,97.72-3.01,16.14-33.96,18.14-33.9,16.1,9.82-13.64,8.83-29.72,8-45.96-1.53-30.02-8.34-63.19-33.33-82.67-31.74-24.73-66.48-24.82-95.7,3.59-5.93,5.76-21.01,30.66-24.03,31.98-.88.38-4.93.83-4.93-.93.96-34.73,50.24-67.18,82.75-64.77,39.52,2.93,85.26,51.14,85.26,90.78v57Z"/>
  <path class="st0" d="M927.96,273.99c-4.7,3.28-7.9-12.78-10.29-16.66-6.19-10.02-40.77-38.02-51.83-44.17-38.19-21.2-97.92-11.94-111.73,33.95-7.24,24.07-1.63,43.02,1.88,66.88-10.19,1.2-15.13-15.26-16-22.98-11.26-100.13,87.12-127.43,154.95-70.95l35.05,33.93c1.01-6.37-1.57-9.47-4.95-14.03-19.93-26.85-57.42-47.9-79.04-73.94,5.34,1.13,12.51,3.02,17.03,5.95,15.78,10.22,64.94,52.88,73.86,68.12,8.14,13.91-4.44,21.5-8.93,33.89Z"/>
  <path class="st0" d="M512,790c6.28-5.44-20.41-7.92-22.92-8.08-29.25-1.97-60.18,5.19-90.1,4.08-2.42-.09-7.44,1.5-6.96-1.97,6.01-.4,11.5-4.99,17.1-5.91,26.51-4.37,73.74-8.02,99.77-4,14.41,2.23,11.62,20.89,17.06,30.91l-4.02,2.12c-6.41-3.86-11.26-6.5-18.82-7.24-20.58-2.02-60.23,2.5-79.07,11.13-29.31,13.43-54.04,52.75-45.07,85.01,7.91,28.42,32.38,41.13,52.99,58.96-6.26,7.08-20.49-.35-26.95-5.01-25.1-18.1-42.8-51.04-38.49-82.47,4.94-36.06,54.6-77.52,90.48-77.52h55Z"/>
  <path class="st0" d="M1863.99,103.98c-1.45,2.06-16.16-.02-22.57,2.46-34.13,13.2-.02,40.92,3.55,61.76-2.64,6.22-7.02,11.43-11.03,16.75-40.79,54.11-79.31,58.42-137.3,84.7-6.37,2.89-37.33,21.13-40.64,18.34,0-4.77,5.77-9.35,9.29-11.69,51.14-34.06,119.72-43.48,158.69-95.29,13.17-17.51-9.43-30.98-13.09-48.88-4.37-21.37,21.72-42.55,41.57-39.74,4.68.66,15.2,6.35,11.53,11.59Z"/>
  <path class="st0" d="M473.59,1286.59c44.81-1.32,71.8,17.5,111.88,32.94,19.34,7.45,40.1,12.51,58.49,21.47.21,7.53-32.38-2.89-35.98-3.98-53.98-16.39-102.79-45.97-161.02-39.06-21.14,2.51-14.08,37.73-27.9,50.1-14.18,12.7-55.92,3.71-57.08-15.23-1.09-17.93,17.35,4.57,21.92,6.24,36.63,13.37,27.84-36.73,40.09-46.08,7.06-5.39,39.18-6.1,49.59-6.41Z"/>
  <path class="st0" d="M1065.61,27.66c-.75,1.29-9.72,5.24-12.49,12.45-14.92,38.84,38.49,28.71,46.73,41.04,1.93,2.88,3.71,15.6,4.12,19.88,4.37,46.18,1.39,59.47-14.48,101.46-7.95,21.05-17.73,41.36-25.53,62.47-1.06,2.87-10.28,41.79-15.95,35.03-.78-12.2,3.94-23.97,7.46-35.52,11.43-37.49,26.28-74.2,38.58-111.42-2.3-13.75,3.91-44.86-2.28-55.82-5.37-9.51-31.87-11.27-42.47-17.53-19.14-11.29-12.37-47.48,4.81-58.59,8.78-5.67,15.73-.73,11.5,6.54Z"/>
  <path class="st0" d="M1079.99,1760.01c4.9,4.21-22.35,19.08-24.65,20.33-35.84,19.53-75.63,34.75-111.39,54.61-6.43,9.28-35.97,31.34-37.64,40.52-3.46,19.02,33.03,37.83,12.37,64-9.88,12.51-44.92,29.11-46.69,4.54,12.59,1.86,31.04-1.55,36.54-14.59,5.82-13.77-20.65-37.71-18.24-49.95.7-3.58,7.15-10.94,9.76-14.42,44.36-59.13,97.18-65.42,160.03-95.97,6.74-3.28,11.59-10.39,19.91-9.07Z"/>
  <path class="st0" d="M631.99,735.99c-6.92,1.19-8.96-4.31-12.01-8.97-32.26-49.25-45.71-120.36-93.03-156.97-22.34-17.28-31.49,7.14-52.4,11.5-22.35,4.66-41.6-23.75-38.41-44.43.88-5.72,4.75-12.75,10.91-7.17-.44,15.84,4.64,39.78,25.48,35.63,18.7-3.73,28.51-26.91,48.5-13.6,58.07,38.67,65.65,86.7,92.62,145.37,2.39,5.19,20.22,36.75,18.34,38.64Z"/>
  <path class="st0" d="M2295.81,1519.79l-8.97-1.71c1.21-11.35.92-21.54-7.78-30.15-18.01-17.81-41.09,17.73-57.54,13.65-3.56-.88-17.52-13.16-21.55-16.56-33.69-28.38-38.79-40.19-56.32-79.68-7.87-17.73-14.21-36.08-22.22-53.78-5.83-12.88-15.8-25.93-17.42-39.56,4.17-4.82,19.03,24.2,20.33,26.65,23.54,44.44,42.39,107.19,81.64,138.36,3.09,2.46,10.06,8.05,13.5,8.68,9.94,1.81,30.09-16.55,42.46-18.9,22.17-4.22,47.27,33.14,33.87,52.99Z"/>
  <path class="st0" d="M2092.01,706.01c11.53-1.13,22.61,2.18,33.61,5.37,49.39,14.34,101.5,45.21,153.35,40.58,33.3-2.97,20.43-23.27,32.63-45.37,9.38-16.97,43.38-13.4,55.5-.7,5.18,5.43,10.78,15.63.18,17.94-8.5-7.1-11.98-14.98-24.31-15.87-32.62-2.34-14.41,47.58-42.14,51.85-17.69,2.73-50.27,4.09-67.83,2.18-21.74-2.36-74.22-29.03-97.96-38.04-11.46-4.35-28.44-7.42-38.18-11.82-3.01-1.36-5.61-2.05-4.85-6.13Z"/>
  <path class="st0" d="M1691.38,1972.62c12.47,13.59,3.8,61.05-21.44,56.45-5.58-7.19,4.94-9.96,8.12-13.99,4.76-6.02,7.72-18.25,5.52-25.67-4.01-13.49-40.43-13.19-47.11-19.88-3.77-3.78-6.16-29.49-6.55-36.45-3.21-56.52,14.6-79.4,33.61-128.55,6.17-15.95,10.24-34.71,16.34-49.66,1.17-2.86,2.75-4.94,5.14-6.86,3.37,10.83-1.09,21.67-4.02,31.98-10.97,38.63-27.79,77.57-40.1,115.9-1.89,11.07-2.32,44.81,1.64,54.58,5.1,12.56,39.48,11.94,48.84,22.15Z"/>
  <path class="st0" d="M714,1362.02c-16.35,17.66-40.2,28.65-59.01,43.97-3.93,8.12,1.38,46.76,10.35,49.76,6.99,2.33,12.2-3.64,18.2-5.21,19.86-5.2,41.98-8.38,62.45-8.55-6.97-20.21-18.83-53.66-6.4-73.4,1.19-1.89,2.36-4.59,4.41-5.59,19.39-9.5,3.5,16.23,2.49,22.49-3.36,20.81,3.57,45.46,15.52,62.48-18.6,9.31-38.67,4.99-58.1,8.93-16.67,3.38-28.59,15.31-45.93,10.13-11.1-11.66-21.84-49.09-14.99-63.05,1.87-3.8,41.82-30.02,48.36-33.64,7.04-3.9,14.24-9.42,22.66-8.32Z"/>
  <path class="st0" d="M665.99,801.99l-72.55-11.69c-13.14,11.24-28.47,26.88-27.13,45.41,25.71,8.49,46.48,26.93,66.69,44.26,7.17-18.07,29.15-55.74,50.52-57.66,4.25-.38,6.55,2.72,10.17,3.97l-.57,5.85c-19.9,3.74-39.48,24.69-47.48,42.52-3.47,7.74-2.24,14.86-6.64,21.3-20.96-9.39-34.3-28.78-54.4-39.57-13.68-7.34-32.48-6.97-30.13-26.85,2.6-22.01,15.96-35,31.48-48.74,20.96,2.06,42.59,5.61,62.89,11.35,1.62.46,22.26,5.57,17.14,9.84Z"/>
  <path class="st0" d="M1791.99,1630c7.92,20.49,4.17,41.35,8.93,62.08,3.76,16.36,21.03,33.1,3.74,45.58-12.99,9.38-39.68,16.46-55.25,11.92-5.28-1.54-22.23-27.5-26.25-33.75-3.44-5.35-22.33-34.14-19.16-37.82,4.25-.57,6.5,3.41,8.82,6.16,12.23,14.55,23.07,37.33,35.14,52.86,7.28,4.47,43.57-1.81,50.08-7.97,5.66-5.35-2.9-15.05-4.65-21.46-5.11-18.65-7.34-38.93-7.71-58.29l-4.34-3.04c-13.85,9.45-61.55,17.12-73.36,4.75-1.7-1.78-4.49-12.56-3.98-13,9.35-.34,15.94,6.07,25.51,7.46,12.62,1.83,31.46-1.1,43.55-5.41,7.74-2.76,11.84-7.3,18.92-10.07Z"/>
  <path class="st0" d="M2168.75,1246.73c-17.24,22.13-15.56,23.58-45.24,18.76-6.99-1.13-55.32-11.91-55.47-16.49,2.71-4.1,4.59-2.77,8.41-2.51,16.23,1.1,50.38,13.76,64.43,11.55,9.47-1.49,33.42-35.85,28.24-44.06-18.6-7.42-34.17-18.14-50.08-30.04-3.99-2.98-12.42-12.32-16.09-13.92-3.2-1.39-2.69,1.11-3.38,2.5-3.18,6.35-4.66,12.61-8.75,19.3-8.31,13.57-28.37,39.32-45.94,32.2-14.81-6,9.06-11.08,14.19-13.95,19.04-10.67,29.33-33.42,34.88-53.18.67-2.37-1.33-3.55,2.79-2.66,16.04,3.43,31.09,23.81,44.99,33.04,10.24,6.79,35.29,14.02,39.3,22.8,1.88,4.1-3.81,25.16-5.99,29.99-2.16,4.78-4.55,4.43-6.29,6.68Z"/>
  <path class="st0" d="M1175.98,1698c1.79,20.73,22.22,38.69,39.94,47.08,7.78,3.68,15.21,3.76,22.07,7.98-6.54,21.17-26.19,32.7-36.84,51.11-6.67,11.53-9.01,33.1-24.15,34.01-3.98.24-23.21-5.23-26.86-7.32-2.13-1.22-23.29-20.08-24.25-21.74-1.31-2.26-1.87-3.34-2.09-6.09-.9-11.1,7.33-45.3,10.77-57.44,1.02-3.6,4.6-19.43,8.42-19.54s2.2,6.06,2.07,8c-1.1,16.23-13.51,51.29-11.07,64.87,1.37,7.63,28.61,26.21,37.19,27.08,11.22,1.13,9.82-9.52,14.44-17.35,3.62-6.14,7.89-12.18,11.93-18.07,3.71-5.42,23.56-28.03,24.14-29.86.49-1.54.33-3.13.31-4.69-18.62-1.83-56.57-29.03-56.13-49.09.13-6.12,4-9.7,10.1-8.93Z"/>
  <path class="st0" d="M1029.99,369.99c-3.75.78-4.83-1.87-6.83-4.15-7.47-8.53-31.54-50.94-36.54-53.95-9.44-5.68-40.42,2.09-50.31,8.4-2.98,4.73,5.37,19.47,6.75,25.65,4.11,18.38,6.63,39.19,6.95,58.05,5.89-1.82,9.62-5.05,15.99-6.99,13.76-4.19,34.03-6.95,48.12-4.12,10.7,2.15,18.7,7.09,15.87,19.11-6.54.89-10.65-4.81-16.36-6.62-21.82-6.91-49.7.19-68.59,12.64-3.02-.66-5.77-14.16-6.44-17.6-3.12-16.07-.81-31.56-5.57-48.45-3.13-11.09-14.05-23.61-8.05-35.98,1.58-3.25,22.39-14.71,26.46-15.53,3.77-.76,25.83-2.61,29.45-2.38,9.89.61,26.36,27.28,31.93,36.1,3.3,5.22,20.93,31.53,17.16,35.82Z"/>
  <path class="st0" d="M2077.44,582.58c1.11.9,13.75,23.08,14.14,24.83.65,2.87,2.66,28.54,2.4,31.4-.28,3.09-1.94,5.93-3.96,8.22-7.24,5.29-63.68,45.46-68.02,40.96l2.46-6.59c8-7.69,53.45-32.73,56.49-39.42,3.35-7.36-2.71-42.81-9.84-48.16-6.51-4.88-16,3.96-22.63,5.67-19.63,5.06-40.57,5.28-60.48,8.54,10.05,15.55,21.33,69.46,1.09,78.08-15.99,6.82-4.36-10.42-2.54-16.55,7.2-24.17-1.07-48.09-12.56-69.53,19.91-7.64,39.65-4.45,60.02-9.01,12.34-2.76,33.32-16.7,43.42-8.44Z"/>
  <path class="st0" d="M1589.39,220.63c3.9,8.11,20.98,15.66,22.04,24.59.88,7.35-7.4,45.82-9.97,55.24-.66,2.42-6.57,26.94-11.45,21.53l11.66-72.54c-6.12-8.97-32.15-29.67-42.29-27.17-4.68,1.15-9.73,17.78-12.99,23.12-9.52,15.62-21.27,30.82-34.38,43.63-1.69,3.93,8.74,4.34,11.99,5.97,8.92,4.5,27.54,16.77,33.99,24.01,7.51,8.43,19.28,29.18,2.03,32.99-4.63-28.11-34.65-50.93-62.03-54.01,3.57-23.13,26.31-35.32,37.27-55.73,5.81-10.81,9.31-33.98,25.21-31.9,5.24.69,24.75,7.17,28.92,10.26Z"/>
  <path class="st0" d="M639.99,771.99c-15.67-5.96-34.32-7.02-49.63-11.35-18.54-5.24-22.29-17.3-45.99-11.27-5.42,1.38-10.12,5.67-15.49,6.51-10.21,1.62-23.14-.82-33.86.14-25.75,2.32-65.87,9.93-90.63,17.37-17.17,5.16-31.15,17.78-50.39,10.59-.7-3.49.88-4.04,3.43-5.55,7.65-4.54,48.7-17.87,59.31-20.69,22.34-5.94,53.01-9.69,76.28-11.72,9.89-.86,22.8,1.58,31.89-.11,6.51-1.21,12.58-8.78,22.03-9.95,26.73-3.3,30.04,7.9,49.1,15,16.08,5.98,40.03.2,43.95,21.03Z"/>
  <path class="st0" d="M1703,1718.04l27.36,42.6c6.05,10.7,6.18,25.63,15.54,34.46,6.7,6.32,16.97,7.38,24.01,11.99,7.49,4.9,15.54,16.66,23.13,22.87,20.48,16.75,50.54,37.55,73.61,50.39,10.84,6.03,29.36,11.19,38.06,17.94,1.93,1.5,9.26,11.61,9.24,12.72-.09,4.97-13.3-1.75-15.34-2.63-39.42-17.02-68.25-35.72-101.57-62.43-9.4-7.54-20.51-20.92-29.18-26.82-16.4-11.16-28.57-6.33-40.24-29.76-4.6-9.24-4.28-17.51-7.83-26.17-6.02-14.67-28.47-28.29-16.8-45.16Z"/>
  <path class="st0" d="M1295.75,1618.23c2.39,4.1-14.72,22.64-18.09,28.43-15.27,26.17-18.98,53.12-17.58,82.44,1.09,22.89-27.8-4.79-33.11-7.09-9.3-4.03,8.07,15.14,7.03,15.96-12.69.33-39.03-15.03-41.6-27.45-.62-3,4.48-22.55,6.6-22.49,3.55,7.54,46.27,39.54,51,35.94-2.63-9.31-1.17-24.82.24-34.75,3.4-23.91,12.59-47.06,29.63-64.49,1.47-8.04-42.41-24.57-49.83-27.75,2.37-3.54,5.31-2.94,8.92-3.14,19.34-1.09,39.81,16.77,56.79,24.37Z"/>
  <path class="st0" d="M674,1358.01c1.13,4.61-.88,3.29-2.53,4.57-6.32,4.95-15.28,7.57-22.12,11.77-15.82,9.71-19.82,11.72-36.73,19.27-26.89,12-16.16,19.09-28.91,35.09-26.7,33.5-53.42,59.44-74.79,99.21-8.12,15.1-10.52,39.57-30.91,42.07l27.15-59.83c22.25-39.02,56-64.88,75.37-104.63,5.03-10.31,17.23-20.23,28.02-23.98,6.98-2.42,13.21-1.8,20.8-5.2,15.39-6.92,24.97-24.82,44.65-18.34Z"/>
  <path class="st0" d="M1033.99,329.99c-3.57.79-3.95-1.06-5.66-3.32-4.03-5.3-8.64-16.62-12.71-23.29-2.99-4.91-8.83-10.01-11.3-14.7-6.37-12.09-4.46-25.56-16.26-35.74-7.6-6.56-15.95-6.29-23.08-10.92-6.68-4.33-14.99-16.13-22.03-21.97-20.79-17.22-52.04-39.55-75.56-52.44-16.08-8.81-41.15-11.5-45.37-31.61,2.9-.58,4.91.64,7.42,1.57,33.56,12.4,68.27,33.59,96.37,55.63,12.55,9.84,31.34,30.42,42.71,37.29,7.62,4.61,15.1,4.37,22.52,9.48,20.16,13.9,16.61,27.99,24.19,45.81,6.42,15.11,25.4,24.81,18.79,44.19Z"/>
  <path class="st0" d="M697,906c26.38,2.65,52.88,13.59,72,31.97,1.45-.03,13.65-21.22,15.35-24.61,3.05-6.1,5.79-19.3,8.61-23.39,5.51-7.99,4.93,12.46,4.55,14.57-1.26,7.1-16.93,39.35-21.75,44.22-8.54,8.64-19.23-7.52-28.38-13.15-15.82-9.72-43.96-18.23-62.42-19.58-6.41-.47-26.1,2.14-27.81,1.74-12.55-2.96,12.28-33.17,14.86-38.75l-18.01,10.97c5.35-26.38,20.63-49.56,49.98-35-3.1,3.52-7.02,6.39-9.93,10.07-9.34,11.81-22.03,26.93-26.06,40.94,9.37.67,19.78-.93,29,0Z"/>
  <path class="st0" d="M1620.01,295.99c6.83-15.91,7.19-37.14,12.51-52.47,4.63-13.33,12.88-16.5,11.6-34.6-.7-9.92-6.78-14.25-8-22.04-1.61-10.25.81-23.13-.14-33.86-2.32-26-9.33-64.37-16.57-89.43-4.89-16.94-21.26-37.07-8.4-53.58,16.66,39.58,28.62,77.9,32.97,121.01,1.57,15.55-.32,38.79,2.11,51.89,1.21,6.51,8.78,12.58,9.95,22.03,3.27,26.51-8.27,28.94-15.06,47.03-5.67,15.09-.45,41.46-20.97,44.01Z"/>
  <path class="st0" d="M1754.01,1618.02l23.98,4.97c-11.36,9.57-36.59,18.31-49.96,9.98-.8-.5-9.65-14.89-10-16.01-1.15-3.71.68-2.65,2.95-2.95,19.06-2.54,38.14-4.35,57.01-8.02.9-3.47-1.44-4-2.98-6-5.54-7.22-13.91-14.2-19.84-22.16-14.91-20-25.74-42.08-25.16-67.84-12.85-.85-26.01,4.57-37.97,9.05-2.84,1.06-19.85,12.53-15.73,2.28,4.58-11.38,45.44-23.97,57.28-24.91,9.9-.79,7.5,19.86,9.3,27.71,4.49,19.6,15.03,38.95,27.19,54.81,3.8,4.96,24.04,24.33,24.04,26.1-.03,8.96-32.66,13.63-40.11,13Z"/>
  <path class="st0" d="M1113.99,1752.01c-5.52,24.99-8.42,51.14-21.53,73.44-7.8,12.94,3.71,24.48,5.42,35.67,6.24,40.82,4.99,78.9,17.06,120.94,3.11,10.84,23.39,48.83,10.04,55.92-3.73,1.98-3.22-4.02-3.91-5.99-13.15-37.54-24.22-64.55-28.8-105.24-2.05-18.2-.04-45.89-4.41-61.59-2.66-9.57-9.96-15.07-9.99-28.15-.05-21.72,11.51-26.65,16.8-41.35s.33-38.04,19.34-43.64Z"/>
  <path class="st0" d="M2062.01,686.03c15.91-3.25,28.92-18.19,42.19-24.83,10.07-5.04,24.84-5.55,33.13-13.87,6.77-6.8,8.43-19.58,12.91-26.09,2.83-4.11,13.01-10.74,17.71-16.29,18.11-21.39,40.78-53.2,54.44-77.56,9.83-17.54,13.16-42.29,33.59-49.39-12.63,40.7-35.3,77.82-62.06,110.92-18.43,22.79-26.79,26.39-39.54,54.46-10.6,23.34-29.39,21.12-47.83,28.17-12.62,4.83-25.92,25.03-41.21,20.1-2.63-.85-3.88-2.88-3.34-5.63Z"/>
  <path class="st0" d="M875.28,1336.72c11.46,11.16,17.96,43.11,20.56,59.09-32.84,2.77-61.39,13.07-86.77,34.25l-22.03,21.92c-10.84-10.07-11.86-26.03-13.05-39.97-2.97-.14-3.48,7.1-3.74,9.23-.52,4.26-.23,8.52-.26,12.76-18.38-17.96-21.88-51.6,8-60-1.16,7.03,6.34,62.02,11.02,61.96,24.73-27.72,54.54-47.74,92.78-50.16,4.02-4.78-11.07-43.94-15.82-50.78-1.29-6.66,7.27-.29,9.31,1.7Z"/>
  <path class="st0" d="M1007.51,416.5c.82.8,11.55,18.53,10.48,19.49-19.82-1.39-42.99,2.92-61.98,9,27.22,25.25,48.56,56.62,50,95.02,10.7-1.18,20.96-4.35,31.02-7.98,6.81-2.45,15.38-8.55,20.01-10,2.65-.84,3.72.27,2.93,2.93-4.55,15.34-47.62,26.36-62.64,27.15-3.2-.75-5.15-27.61-6.74-33.7-4.74-18.14-20.2-43.33-32.65-57.35-3.36-3.78-18.56-15.49-17.94-18.02,10.78-10.71,26.25-9.85,39.98-13.06l-21.97-4c3.03-3.97,10.8-7.98,15.44-9.52,7.02-2.33,28.86-5.05,34.05.05Z"/>
  <path class="st0" d="M2080.01,1131.99c1.36,9.21-2.54,16.38-7.18,23.83-3.06,4.92-11.61,11.5-9.83,16.17l16.99-13.99c.02,24.79-23.19,53.3-47.94,35,6.82-6.01,12.19-13.13,17.6-20.37,2.07-2.77,19.96-27.26,18.36-28.62-38.67-.23-72.8-6.93-102.94-32.07-10.29,14.48-18.68,30.77-23.08,48.06-4.03.57-3.28.32-4.51-2.5-5.82-13.29,16.4-50.14,25.74-61.34,11.3,4.73,19.49,15.03,30.71,20.93,25.16,13.22,58.2,18.03,86.09,14.91Z"/>
  <path class="st0" d="M1486,355c-2.44,24.38-13.85,53.27-31.96,70,12.43,13.7,31.51,17.54,47.44,24.53,2.77,1.21,3.11.26,2.52,4.45-9.18,9.09-55.9-15.57-63.83-25.34-.97-3.71,17.7-26.21,20.9-32.56,12.09-23.9,18.36-57.88,12.93-84.06,15.67-2.26,25.16,8.45,37.01,15.97l-9-15.98c13.59-1.73,39.69,15.11,40.08,28.88.09,3.23-3.28,23.12-8.05,19.09-.36-3.59-2.4-5.79-5.03-7.98-12.05-10.01-29.05-21.46-43.01-28-.72,10.02.98,21.14,0,31Z"/>
  <path class="st0" d="M2096.01,1278.01l52.03,10.95c9.59,5.01,21.52,13.48,32.89,13.13,8.6-.26,15.03-6.84,22.19-7.98,8.58-1.36,18.98.78,27.86-.14,28.24-2.93,66.26-8.97,93.48-16.52,18.6-5.16,39.35-22.15,57.5-10.46-42.48,21.12-86,30.21-132.98,34.98-7.83.8-16.24-.71-24.06-.06-26.93,2.24-34.68,18.29-64.02,8.18-9.34-3.22-14.25-9.66-23.3-12.7-14.83-4.97-38.83-.47-41.59-19.39Z"/>
  <path class="st0" d="M1962.03,635.98l2.24-16.72c1.8-2.8,2.06-4.3,4.69-1.23,7.98,9.29,11.29,29.17,9,40.93-1.25,6.44-13.38,11.71-18.94,15.07-3.49.67-3.12-.04-2.8-2.91.78-6.96.43-10.87-.57-17.8-.84-5.82-5.41-38.63-8.68-39.32-7.49,4.73-13.19,12.52-20.03,17.93-21.95,17.35-45.84,30.67-74.95,30.07-2.57,2.46,12.54,47.65,17.99,53-5.13,3.44-13.14-6.33-15.66-10.34-3.99-6.32-17.91-49.27-14.34-52.69,40.75-.82,81.22-21.38,105.17-54.13,12.87-2.04,14.48,29.8,16.87,38.13Z"/>
  <path class="st0" d="M2257.99,857.99c-20.48,7.02-22.15-5.57-35.05-15.93-21.93-17.6-46.44-11.93-72.02-13.98-20-1.61-40-4.19-59.94-6.06-5.86-.55-43.21,2.8-38.97-11,2.1-6.81,21.91-1.21,27.01-1.04,42.57,1.43,84.94,4.24,127.52,6.48,6.6,1.35,40.58,29.42,48.13,35.87,2.08,1.78,4.19,1.95,3.32,5.66Z"/>
  <path class="st0" d="M1033.99,1658.02c2.94,4.28-10.67,15.83-13.97,19.01-31.18,30.11-66.04,56.63-97.37,86.63-11.97,7.34-28.26,5.21-41.63,6.37-3.74.32-25.14,6.52-24.99.97,7.73-19.58,25.92-10.82,42.79-13.18,18.54-2.59,48.18-36.15,63.15-48.85,18.74-15.91,38.72-30.39,56.11-47.87,5.09-3.21,10.1-5.28,15.91-3.08Z"/>
  <path class="st0" d="M1583.99,1709.99l-8.41,154.59c-6.31,13.48-18.06,23.35-27.53,34.47-1.83,2.15-10.67,18.49-14.03,14.95-7.33-18.53,10.88-25.98,19.98-39,12.51-17.92,8.26-47.42,9.93-68.07,1.61-19.98,4.19-40,6.06-59.94,1.24-13.17-5.59-37.57,14.01-36.99Z"/>
  <path class="st0" d="M1877.99,276.01l-7.32,14.07c-11.51.18-26.37-.44-37.52,2.07-15.12,3.4-85.02,67.85-103.18,82.82-8.08,6.66-17.88,23.68-29.96,14-1.64-7.54,101.82-90.72,113.29-104.67,20.29-7.63,43.3-5.22,64.69-8.29Z"/>
  <path class="st0" d="M618.01,514.01c22.72,2.91,13.95,24.33,16.17,40.81,2.75,20.39,42.48,56.29,56.85,73.15,10.59,12.43,33.35,36.89,41.03,48.96,6.34,9.96,2.21,21.09-9.08,9.09-33.27-35.38-63.81-73.54-96.73-109.26l-8.24-62.74Z"/>
  <path class="st0" d="M1152.01,339.99l8.44-156.54c9.8-18.59,26.35-33.14,39.53-49.45.03,4.59,4.84,10.2,3.73,14.59-.74,2.92-19.06,20.64-22.53,25.58-13.36,19.03-9.23,64.82-11.19,88.81-1.65,20.24-3.14,46.41-6.09,65.91-.91,6.04-5.14,12.23-11.88,11.1Z"/>
  <path class="st0" d="M681.64,1232.34c1.13,1.95.08,5.27.37,7.65l-156.6-8.41c-15.51-10.97-29.89-23.35-44.89-35.01-1.64-1.28-3.66.04-2.52-4.55,4.57-.11,10.27-4.83,14.59-3.73,3.47.88,21.5,21.61,28.67,25.44,18.11,9.69,61.92,6.47,83.72,8.28,19.89,1.65,44.85,3.06,64.08,5.91,2.44.36,11.85,3.15,12.58,4.41Z"/>
  <path class="st0" d="M2115.98,1536l-13.66-9.32c-1.14-12.93.52-31.34-4.62-43.38-7.05-16.52-39.68-46-52.72-61.28-11.56-13.54-31.83-35.35-40.98-49.01-7.12-10.64-3.67-21.37,8.08-10.08,33.85,32.54,63.33,75.67,96.77,109.23,5.46,20.12,4.88,42.85,7.14,63.84Z"/>
  <path class="st0" d="M1758.01,466.02h17.98c3.37-21.16,15.53-44.05,26.4-62.64,9.21-15.76,22.13-34.17,33.67-48.33,9.9-12.15,35.82-34.15,39.06-46.94,3.57-14.14,2.19-24.11,16.87-34.11,1.03,12.08-6.98,22.1-9.51,33.47-1.2,5.39.78,11.39-1.5,16.5s-23.35,22.46-28.91,29.09c-19.21,22.89-47.19,64.75-57.58,92.42-2.44,6.5-6.4,29.04-7.4,30.6-1.94,3.05-19.53-1.66-23.11-3.05-3.23-1.25-6.69-2.8-5.96-7.01Z"/>
  <path class="st0" d="M697.99,1141.99c-8.57,2.52-9.36-10.08-14.93-10.08-41.11,22.33-89.34,32.63-135.98,36.17-11.19.85-25.41-1.74-35.98.02-9.4,1.57-16.47,12.71-25.05,14.95-6.64,1.74-13.34.78-20.05.92,1.11-3.03,7.05-5.43,9.96-7.01,5.71-3.09,12.61-5.19,17.81-8.19,4.33-2.5,12.91-11.67,15.67-12.47,4.28-1.24,15.03,1.99,21.62,1.81,33.91-.94,93.24-12.22,124.29-25.76,5.89-2.57,26.03-16.42,27.64-16.44,5.61-.06,17.89,23.06,14.99,26.07Z"/>
  <path class="st0" d="M975.99,1583.99l-17.98.02c-.09,2.78.24,5.71-.5,8.45-8.65,32.28-38.18,76.45-59.56,102.49-8.91,10.84-27.88,26.64-33.96,36.04-5.69,8.8-2.7,18.85-7.58,28.42-1.04,2.03-12.2,16.95-14.39,14.59,1.56-9.56,6.44-18.84,9.08-27.89,1.88-6.44,1.16-16.11,4.01-21.99s21.11-20.43,26.84-27.16c20.18-23.71,51.75-69.74,61.01-98.99,2.67-8.44,3.35-17.2,5.2-25.78,1.26-1.07,32.42,2.09,27.84,11.83Z"/>
  <path class="st0" d="M820.01,603.99c.64,6.93-1.09,13.46-3.02,20-.67,2.27-2.34,11.72-5.97,9.99-5.87-3.15-1.38-15.65-3.22-17.8-36.93-9.91-74.81-32.3-104.76-56.24-15.79-12.62-35.22-38.58-52.95-43.05-13.58-3.43-23.59-1.72-32.11-16.87,11.76.36,22.36,6.61,33.47,9.51,5.11,1.33,10.68-.53,16.06,1.94,2.69,1.23,16.67,18.24,21.52,22.48,24.18,21.18,75.69,57.01,105.84,66.16,7.99,2.42,16.72,4.13,25.12,3.88Z"/>
  <path class="st0" d="M2118,1549.98c-10.24-.84-20.14-6.93-29.49-9.49-5.86-1.6-17.35-.51-22.44-3.56-2.25-1.35-16.17-18.53-21.12-22.88-23.94-21.02-69.47-51.93-98.98-63.02-10.27-3.86-19.74-4.93-30.01-8.06l-1.62-3.53,5.68-23.45,7.83,3.29.09,13.77c36.21,9.83,73.61,31.63,103.02,54.98,14.05,11.15,36.42,38.89,50.96,43.04,14.53,4.15,26.85,2.53,36.08,18.9Z"/>
  <path class="st0" d="M1275.76,343.76l-25.75,12.23c-2.45-7.29,10.2-11.55,9.71-16.65-18.29-33.74-29.58-76.01-33.7-114.37-1.91-17.79.3-40-2.15-55.85-1.57-10.13-11.88-16.31-14.52-25.48-1.91-6.62-1.45-12.91-1.33-19.65,7.92,7.2,10.74,19.55,16.31,28.67,3.07,5.04,10.13,8.69,11.34,14.81,1.15,5.79-2.08,12.74-1.83,19.55,1.34,36.91,12.66,100.1,29.07,133.05,2.51,5.03,15.18,19.67,12.84,23.67Z"/>
  <path class="st0" d="M2267.99,864.01c1.1,5.32-1.35,3.44-3.94,4.96-5.64,3.32-35.37,21.99-37.48,22.6-9.03,2.6-28.6-.36-39.55.45-17.98,1.33-47.23,6.78-65.1,10.9-24.65,5.7-50.88,15.17-70.96,30.68-1.69-.13-14.52-19.93-15.01-22.58-.61-3.32.14-3.23,3.08-3.1,7.69.36,7.44,5.2,11.93,9.99,35.83-20.11,82.88-32.74,124.04-35.9,14-1.07,33.73,1.79,45.86-.14,15.2-2.42,27.06-23.46,47.11-17.86Z"/>
  <path class="st0" d="M1527.98,1926c-9.61-5.84-11.15-19.99-16.27-28.71-2.73-4.65-9.19-7.89-10.82-13.18-3.14-10.18-.04-29.31-.92-41.08-2.26-30.44-13.4-84.09-26.51-111.49-2.36-4.93-14.66-21.18-14.86-22.51-.77-5.26,19.64-13.88,24.42-17,5.82,6.85-8.67,14.51-8.68,16.96,11.88,17.93,19.76,41.62,25.08,62.6,4.42,17.44,9.11,41.66,10.56,59.44,1.18,14.52-1.9,34.43.49,47.51,2.55,13.91,23.27,28.14,17.51,47.46Z"/>
  <path class="st0" d="M796,843.98c-.52-5.37,0-3.21,2.99-3.94,20.24-4.93,27.8,5.56,46.6,9.36,32.35,6.54,71.91,3.14,102.85,13.15,7.08,2.29,11,7.53,4.58,13.48-3.83,3.54-25.02-2.8-32.3-3.76-26.18-3.44-58.36-2.42-82.69-11.31-13.7-5-26.45-16.02-42.03-17Z"/>
  <path class="st0" d="M834.01,1299.99c4.16-17.79,18.58-17.78,30.74-24.24,31.46-16.7,56.13-48.79,87.42-66.58,4.28-2.43,10.18-7.68,14.84-3.21,2.15,2.06,3.88,7.32,2.11,10.07-1.05,1.64-26.99,18.04-32.06,22.03-32.55,25.64-38.7,35.24-79.01,50.99-3.73,1.46-22.63,12.32-24.03,10.95Z"/>
  <path class="st0" d="M1641.99,1557.99c-18.21-7.25-20.32-27.48-30.36-42.62-19.52-29.43-50.07-53.15-65.05-86.4,10.93-18.95,22.86,10.9,30.63,20.82,17.29,22.08,38.46,41.92,50.34,67.66l14.44,40.54Z"/>
  <path class="st0" d="M1902,750.02c-7.19,17.51-22.19,17.67-35.87,25.11-20.21,10.98-40.88,34.46-59.47,48.53-4.27,3.23-29.68,20.74-32.58,21.57-6.55,1.87-9.93-8.88-7.16-13.25.79-1.24,17.26-10.36,20.91-13.14,23.04-17.55,45.8-42.42,72.21-53.79,13.4-5.77,28.34-9.66,41.97-15.01Z"/>
  <path class="st0" d="M1219.78,1438.21l-12.37,104.2-22.4,53.56c-9.42-18.43,5.45-35.62,8.76-55.2,5.86-34.67,2.5-71.01,14.36-104.69l11.66,2.14Z"/>
  <path class="st0" d="M1095,490.04c.99.06,12.75,12.27,13.91,14.05,3.75,5.72,4.89,13.71,8.31,19.69,17.53,30.59,54.17,59.05,68.44,89.57,2.04,4.36,4.19,8.79-1.68,11.7-10.07,5-14.08-10.11-19.17-16.86-15.17-20.14-37.28-41.29-49.66-62.34-9.72-16.52-11.83-34.18-21.52-50.53-2.74-1.75.25-5.34,1.36-5.27Z"/>
  <path class="st0" d="M1551.99,454c5.89,18.9-5.69,29.93-9.39,47.6-7.42,35.46-3.71,74.87-14.79,110.2-22.56,5.38-9.89-19.64-8.09-33.08,5.77-43.16,2.54-59.95,20.67-101.33,2.78-6.36,4.12-15.32,7.14-20.83,1.28-2.33-.07-3.36,4.47-2.56Z"/>
  <path class="st0" d="M1937.99,1209.99c-16.49,3.61-26.32-4.72-40.43-8.55-24.07-6.53-48.5-4.74-72.32-7.68-8.52-1.05-33.48-4.93-40.25-7.75-7.79-3.25-7.11-12.88.07-14.09,6.01-1.01,29.56,4.85,38.19,5.83,42.76,4.83,54.72,3.03,94.79,21.21,1.91.87,25.04,6.61,19.95,11.03Z"/>
  <path class="st0" d="M739.65,1588.34c6.5,10.18,10.5,21.98,16.74,32.27,10.23,16.87,28.3,38.79,35.4,56.59s-6.21,20.57-16.62,4.63c-17.75-27.17-26.32-64.81-47.15-90.86l11.63-2.63Z"/>
  <path class="st0" d="M1431.73,1898.32c.84,8.89-3.62,12.13-12.16,11.28-19.78-1.97-55-19.72-76.02-26.16-7.88-2.41-15.68-2.8-23.22-4.87-2.73-.75-5.19.57-4.2-3.41,3.78-15.08,32.3,1.07,43.8,3.89,23.85,5.85,49.97,7.04,71.79,19.26Z"/>
  <path class="st0" d="M702.05,452c-1.78-5.58-3.7-11.61,1.42-16.09l94.38-49.09c7.27-2.06,7.52,5.95,4.29,10.34-2.97,4.04-26.16,13.22-32.76,17.23-21.75,13.21-41.72,31.99-67.34,37.62Z"/>
  <path class="st0" d="M514.02,974c19.29.07,2.87,27.78.13,39.15-5.04,20.93-7.64,46.59-15.54,66.46-5.72,14.39-15.37,11.38-16.56-2.36,8.9-35,26.93-67.37,31.97-103.25Z"/>
  <path class="st0" d="M2033.79,1598.21c1.01,4.85,3.38,10.26-1.26,13.88l-96.56,50.93-3.84-2.18c-3.65-13.34,14.05-15.36,23.21-20.51,19.26-10.83,46.08-33.59,65.21-40.78,4.36-1.64,8.64-2.32,13.24-1.34Z"/>
  <path class="st0" d="M1419.99,172.02c-4.64,17.47-24.48,3.31-37.16.14-21.69-5.42-47.83-8.24-68.5-15.5-4.7-1.65-8.06-5.29-12.29-7.62l4.26-8.71c9.01-5.69,71.43,20.85,85.26,25.1,9.34,2.87,18.85,4.77,28.42,6.6Z"/>
  <path class="st0" d="M2243.37,960.2c9.95-.18,9.21,8.97,8.15,16.32-3.56,24.51-21.79,57.72-28.63,83.37-1.52,5.72,1.45,15.13-5.86,16.1-12.33-2.6,3.63-37.82,5.65-46.31,2.01-8.45,1.9-18.38,3.82-26.18s10.81-41.76,16.87-43.3Z"/>
  <path class="st0" d="M2005.99,459.99c-15.84,2.88-17.35-14.45-23.65-25.33-11.24-19.4-30.3-41.48-38.76-61.22-7.31-17.07,4.38-23.28,14.12-10.13,13.6,18.34,25.43,55.01,37.26,76.73,1.99,3.66,13.46,17.63,11.03,19.95Z"/>
  <path class="st0" d="M1201.98,376c9.45,28.82,9.89,57.51-13,79.98-2.69,2.64-27.15,21.75-28.97,20.01,2.43-8.1,9.04-14.46,13.03-21.95,13.26-24.92,20.88-47.12,25.01-75.02.4-2.7.94-6.3,3.93-3.02Z"/>
  <path class="st0" d="M1903.99,1265.99c4.82,35.21,19.18,70.69,42.01,97.99-16.38-2.22-38.56-21.18-45.02-35.96-6.28-14.35-5.63-44.32-1.03-59.1.88-2.84-1.19-3.52,4.04-2.93Z"/>
  <path class="st0" d="M1916.01,816.01c1.59-1.77,15.79,10.77,18.6,12.38,16.07,9.22,44.9,21.44,62.86,25.14,6.36,1.31,13.89-1.82,18.49,3.47-30.08,13.57-57.82,10.7-80.98-12.98-3.16-3.23-21.64-25.05-18.97-28.01Z"/>
  <path class="st0" d="M820,1231.98c-2.85,2.26-21.35-12.66-25.92-15.06-22.6-11.9-45.79-19.3-71.07-22.96-2.73-.4-6.1-.85-3.01-3.93,44.81-18.02,78.45,2.63,99.99,41.95Z"/>
  <path class="st0" d="M833.98,784c-4.03-.81-3.34-4.16-3.97-7.01-4.47-20.26-8.64-37.29-17.67-56.33l-22.33-36.65c22.96,7.54,45.69,28.28,47.96,53.02,1.41,15.37-1.22,31.88-3.99,46.96Z"/>
  <path class="st0" d="M1575.99,1572.01c1.31,1.29-14.47,23.07-16.35,26.63-10.78,20.4-19.88,45.4-21.67,68.36-.23,2.96,1.62,5.81-2.95,4.97-7.94-4.14-7.93-38.61-7.04-46.99,2.05-19.2,23.54-36.88,38.19-47.8,1.77-1.32,8.3-6.66,9.8-5.18Z"/>
  <path class="st0" d="M1125.99,1561.99c-34.98,2.17-70.08,19.39-97.97,40.01-5.07-6.58,23.01-35.63,28.99-39.99,11.93-8.69,29.61-8.76,43.97-7.99,2.6.14,31.57,2.49,25.01,7.97Z"/>
  <path class="st0" d="M1608,488.02c36.48-4.01,71.37-19.61,99.98-42.02-2.41,14.56-24.66,40.44-37.59,45.39-14.47,5.55-37.72,4.78-52.92,2.13-3.17-.55-8.48-1.87-9.48-5.5Z"/>
  <path class="st0" d="M2030.01,1591.99c-4.9.38-8.57,1.26-13.62.79-17.05-1.59-60.45-14.25-78.38-19.8-5.39-1.67-18-4.04-16.01-11.95.74-2.96,3.48-2.73,6.03-2.12,33.33,7.96,66.44,18.68,99.9,26.15l2.07,6.93Z"/>
  <path class="st0" d="M1381.08,1796.04c3.16-.7,4.09,2.64,5.33,4.56,14.61,22.71,33.38,52.55,45.93,76.07,2.69,5.04,8.93,12.99,2.66,17.3-3.94-3.21-7.26-5.3-10.7-9.26-10.16-11.69-32.13-51.79-40.65-67.36-2.74-5.01-12.14-19.18-2.58-21.31Z"/>
  <path class="st0" d="M1933.98,362.01c1.34,4.51,2.18,7.8,1.87,12.68-1.08,17.03-14.9,63.31-20.42,81.75-2.33,7.78-8.54,23.18-13.09,7.08l25.59-98.58,6.05-2.92Z"/>
  <path class="st0" d="M595.92,1041.9c-3.3.68-6.42,1.96-9.28,3.74-18.8,11.73-57.76,38.93-75.85,46.16-4.42,1.77-7.9,2.9-12.8,2.18,2.25-3.89,4.26-8.94,7.52-12.02,8.66-8.19,57.64-35.11,71.15-42.3,4.52-2.4,14.63-9.03,18.42-3.75l.84,5.98Z"/>
  <path class="st0" d="M2235.99,954.01c.23,10.32-8.96,14.05-16.16,18.83-22.92,15.21-48.97,26.89-71.97,42.17-6.96,1.38-9.61-2.06-7.53-8.72,16.28-7.19,31.72-16.89,47.02-25.94,6.87-4.07,44.3-30.43,48.65-26.33Z"/>
  <path class="st0" d="M800.01,1687.99c-1.16-7.89-1.07-13,.23-20.7,3.37-19.88,12.71-53.47,18.74-73.3,2.03-6.67,2.79-16.35,11.99-13.97,4.2,1.09,1.69,3.61,1.34,5.25-5.57,26.65-13.75,60.68-21.31,86.75-1.69,5.83-3.39,15.98-11,15.98Z"/>
  <path class="st0" d="M1298.01,156.01c5.1-5.77,21.88,22.68,23.59,25.39,12.98,20.52,24.1,43,36.4,63.78.22,6.96-5.05,10.03-9.53,3.35-17.38-25.95-31.02-56.88-49.36-82.64l-1.11-9.87Z"/>
  <path class="st0" d="M811.79,480.2c-.04,3.06,2.45,10.97-2.73,9.77l-100.57-25.34-4.5-6.62,14.68-1.87,93.11,24.05Z"/>
  <path class="st0" d="M1567.99,1710.01c-7.75,22.83-29.8,2.79-41.44.44-11.51-2.32-38.23,3.72-36.54-14.44,7.48-1.07,14.15,2.87,21.23,3.74,6.54.8,15.95-.31,21.18.67,10.83,2.02,21.35,13.99,35.57,9.6Z"/>
  <path class="st0" d="M740.02,680c-7.03-18.43,17.55-21.69,27.84-27.13,3.83-2.03,7.31-7.92,11.19-10.81s24.73-17.08,26.94-7.02c.91,4.16-32.34,21.21-34.93,29.03-12.99,2.71-20.56,8.72-31.04,15.94Z"/>
  <path class="st0" d="M1995.99,1370.01c2.22,11.66-8.83,18.76-17.98,22.99-2.75,1.27-6.77.58-9.92,2.08-6.26,2.98-14.9,15.81-25.62,20.37-9.09,3.86-17.19,2.46-8.49-6.48,1.87-1.92,29.41-23.68,31.28-24.71,4.22-2.32,9.22-2.35,13.53-4.47,6.82-3.36,9.81-10.18,17.2-9.78Z"/>
  <path class="st0" d="M1245.99,351.99l-46.58-4.4c-8.6-6.47-16.97-6.83-26.75-9.32-7.32-1.86-5.99-1.56-1.3-8.35,6.77.62,14.68-.97,21.22.5,4.79,1.08,8.05,6.1,12.84,7.16,11.6,2.59,39.52-3.3,40.57,14.41Z"/>
  <path class="st0" d="M1024,1651.98c-7.69,5.67-19.3-5.86-22.85-12.12-2.91-5.15-2.58-11.4-5.41-16.59-5.13-9.39-31.27-25.45-16.73-37.23,6.92,5.64,9.78,14.02,15.05,20.92,3.43,4.49,10.3,8.75,12.8,13.2,5.43,9.63,5.64,23.45,17.14,31.83Z"/>
  <path class="st0" d="M695.99,1146.01c1.04,7.48-2.82,14.14-3.74,21.23-.86,6.63.11,17.69-1.03,22.81-2.36,10.61-7.7,12.93-9.27,28.93-.29,2.91,1.72,5.87-2.91,4.98-11.45-2.39-6.25-21.67-3.43-29.34,1.23-3.34,5.03-5.88,5.97-10.03,2.68-11.86-4.4-37.02,14.41-38.57Z"/>
  <path class="st0" d="M2040.01,901.99c-.06-3.58-.24-7.2.2-10.78,2.29-18.54,5.29-30.25,10.83-47.17,2.04-6.24,1.04-13.95,3.95-20.03,9.08,3.03,8.2,14.57,6.88,22.86-1.08,6.77-6.84,11-7.78,16.21-2.04,11.27,3.17,38.09-14.08,38.9Z"/>
  <path class="st0" d="M1712.01,396.01c8.1-2.18,16.82,5.73,20.9,12.08,3.94,6.15,3.5,12.59,6.24,17.76,4.39,8.31,21.04,16.54,21.01,29.18-.05,20.92-16.12-9.46-18.15-12.03-10.97-13.84-10.08-11.12-18.26-27.74-3.68-7.49-8.67-12.09-11.73-19.25Z"/>
  <path class="st0" d="M1985.99,484.01c2.72,2.7-18.14,25.23-20.94,28.04-3.9,3.91-25.13,23.62-29.1,21.11-2.23-1.41-7.46-13.62-4.17-16.24l54.2-32.91Z"/>
  <path class="st0" d="M750.01,1563.99c-2.72-2.7,18.14-25.24,20.94-28.04,4.05-4.06,17.02-16,21.21-18.82,2.18-1.46,4.51-4.11,6.91-1.32,3.05,3.72,6.72,11.9,4.01,16.21l-53.08,31.97Z"/>
  <path class="st0" d="M1425.8,273.78c-6.23,3.32-12.52-2.06-17.96-5.07l14.19-62.7c2.96-.51,2.49,3.75,2.98,5.96,4.93,21.96.75,39.76.79,61.81Z"/>
  <path class="st0" d="M550.02,969.97c-.33-3.07,5.31-2.83,7.62-3.33,20.33-4.37,36.69-.72,57.05-.34,6.93,2.23.8,17.35-5.74,17.73l-58.93-14.06Z"/>
  <path class="st0" d="M1908,1641.98c-4.28,3.59-28.32-20.9-32.05-24.93s-20.11-21.6-17.83-24.93c6.14-1.41,10.9-6.92,17.04-2.28,8.56,6.46,21.63,43.28,32.85,52.14Z"/>
  <path class="st0" d="M2186,1078.02c-.7,3.84-4.18,3.3-6.91,4.07-13.32,3.74-43.86,2.2-58.1-.07-8.88-1.42-1.05-14.19,4.28-17.65,19.97,5.04,40.04,13.2,60.74,13.65Z"/>
  <path class="st0" d="M1325.52,1778.53c1.55,1.56,1.58,3.66,1.44,5.69-1.11,15.36-13.94,37.49-13.02,54.76l-3.93,3.03c-4.27-22.82-.64-45.19,0-68.01,1.59-1.55,13.5,2.51,15.51,4.53Z"/>
  <path class="st0" d="M875.48,457.53c-5.69.74-11.24,7.16-15.58,1.62l-31.88-53.15c20.58,10.18,32.81,30.55,49.02,45.96l-1.56,5.57Z"/>
  <path class="st0" d="M2276.01,1223.99l1.98-16c22.1,1.38,43.4-7.1,63.99-13.99.11,4.84-6.66,8.31-10.16,10.81-16.24,11.61-35.78,18.3-55.81,19.17Z"/>
  <path class="st0" d="M1198,1997.98c-4.18,4.07-20.11-24.4-21.46-27.52-2.5-5.76-11.34-34.7-8.52-38.46l15.06,3.88c.95,21.54,7.31,42.16,14.92,62.1Z"/>
  <path class="st0" d="M858.63,244.64c-1.52,1.1-2.16,4.98-3.64,5.36l-54.98-35.99c24.05,1.2,48.73,9.56,65.96,26.98-1.63,2.9-5.32,2.18-7.33,3.64Z"/>
  <path class="st0" d="M2148.02,522.01c.4-4.62-1.13-7.6-5.9-8.15l35.86-57.86c-.13,12.38-3.06,25.81-7.62,37.36-1.23,3.12-17.51,33.97-22.34,28.65Z"/>
  <path class="st0" d="M1936,1832.02c-1.07,4.32-2.8,2.78-5.52,2.7-10.1-.3-23.06-3.89-32.44-7.77-3.18-1.32-32.48-16.66-28.05-20.94,6.43.82,7.67-3.78,11-7.98,14.68,16.03,35.08,25.97,55,33.99Z"/>
  <path class="st0" d="M1565.99,115.99l-13.98-2.01c1.02-22.2-9.64-42.68-13.99-63.99,17.81,15.87,28.72,42.1,27.97,65.99Z"/>
  <path class="st0" d="M559.97,1591.99l-3.93-.95c4.43-23.89,9.57-49.54,29.94-65.04-.75,6.53,3.72,7.64,7.99,11-15.34,14.93-25.5,35.6-33.99,55Z"/>
  <path class="st0" d="M460,826.02c-4.61,5.25-4.2,7.54-2.01,13.97-22.27-.77-43.02,8.37-63.98,14.01-.73-4.42,6.2-7.37,9.36-9.63,16.19-11.55,36.38-20.04,56.63-18.35Z"/>
  <path class="st0" d="M618,1481.99c-14.55-3.52-24.59,11.44-12.66,21.69,5.18,1.28,10.24.71,13.67-3.65,6.72,7.07,3.25,14.32-6.13,15.82-33.86,5.4-28.12-38.49-1.36-41.52,5.86-.66,7.11,2.26,6.48,7.65Z"/>
  <path class="st0" d="M910.01,274.01c2.95-14.86-12.88-24.38-21.69-10.59l3.68,14.57-9.98,1.13c-21.15-23.69,13.54-46.48,30.93-23.06,4.48,6.03,9.09,19.83-2.95,17.96Z"/>
  <path class="st0" d="M2243.5,1235.5l.67-14.16-12.14-6.34,5.35-7.09c34.4,2.59,23.45,45.73-9.45,37.13-6.23-1.63-14.54-7.15-6.94-13.01,5.34,7.85,14.6,7.6,22.5,3.46Z"/>
  <path class="st0" d="M1159.99,1876.01c3.22,3.61-5.15,4.11-6.03,8.93-3.88,21.33,16.74,23.71,23.06,5.06,15.36,5.41,1.62,24.82-10.23,25.97-18.7,1.83-28.86-30.52-13.83-40.19,2.1-1.35,6.29-.59,7.01.23Z"/>
  <path class="st0" d="M492.47,812.48c-2.22,2.22-3.67,12.73-2.14,15.2l11.77,5.47-2.63,6.37c-6.45,6.69-33.58-8.84-19.18-28.23,8.3-11.17,28.63-10.5,37.7-.28-3.31,12.02-15.48-8.61-25.53,1.46Z"/>
  <path class="st0" d="M2117.99,573.99v-5.98c15.41.6,24.36-13.29,10.66-23.8l-14.64,3.79-1.69-8.82c39.01-27.02,46.62,36.95,5.66,34.8Z"/>
  <path class="st0" d="M1853.42,1799.39c-10.94,8.57-32.31-1.23-35.01-14.88-1.05-5.3-.97-10.84,5.58-10.51-2.37,26.69,34.53,22.53,20.02-4,17.26-3.67,20.87,20.4,9.41,29.38Z"/>
  <path class="st0" d="M1995.99,464.01c.45,3.07-.03,4.67-1.87,7.11-2.05,2.72-50.38,32.44-57.5,36.5-2.23,1.27-3.61,3.05-6.61,2.37-.69-17.21,16.69-19.24,28.59-26.39,6.89-4.14,22.43-16.43,27.48-18.51,3.32-1.37,6.44-1.37,9.91-1.07Z"/>
  <path class="st0" d="M854,461.98c-18.8,1.2-19.93-16.21-27.66-29.32-3.97-6.74-18.27-25.61-19.47-30.58-.63-2.61-.62-5.49,2.16-6.07,8.1-1.69,37.23,57.78,44.97,65.97Z"/>
  <path class="st0" d="M1576.01,173.99c-1.33-7.37,5.43-5.48,5.93-13.17,1.14-17.7-21.52-20.55-21.97-.82-19.04-8.91-1.93-31.07,16.62-25.58,14.02,4.15,17.95,39.46-.58,39.57Z"/>
  <path class="st0" d="M2205.52,1068.45c1.01.91,1.02,3.49,2.43,4.56-2.46,3.68-4.87,3.09-8.67,2.83-20.18-1.39-45.39-13.93-66.51-15.62l-2.76-4.19c14.11-8.4,22.11.01,35.56,3.4,6.33,1.59,38.23,7.47,39.95,9.02Z"/>
  <path class="st0" d="M1882,1588.02c17.67-2.64,17.04,11.71,23.66,23.32,4.16,7.29,20.63,29.25,21.92,34.1,1.05,3.95.9,6.05-2.58,8.52-5.86-.26-36.62-57.71-43-65.94Z"/>
  <path class="st0" d="M605.99,991.97c-13.73,10.36-24.89.35-39.56-3.41-2.72-.7-46.43-7.79-38.42-14.56,5.51-.09,10.97-.3,16.47.51,11.52,1.69,45.8,9.78,56.45,13.55,2.14.76,4.79.99,5.07,3.9Z"/>
  <path class="st0" d="M1316.01,1863.99l16.98-77.98c13.68,10.67,2.86,22.55-.42,35.56-1.78,7.04-7.26,38.06-9.57,40.43s-3.78,2.3-6.99,1.99Z"/>
  <path class="st0" d="M1413.02,186.02c2.28-.67,6.04.32,6.43,2.89.51,3.37-12.88,59.37-15.12,66.42-.8,2.53-.65,4.98-3.33,6.63-11.84-11.24-3.16-18.25.02-29.94,1.83-6.74,9.6-45.29,12-46Z"/>
  <path class="st0" d="M803.99,1540.01c1.8,16.24-14.3,17.19-25.33,23.65-8.08,4.73-25.22,18.49-31.28,20.91-7.37,2.95-14.02-2.19-5.18-7.37l61.8-37.18Z"/>
  <path class="st0" d="M1162,1922.02c24.43,1.59,26.14-13.94,30.57-32.47.48-1.99.61-6.02,3.41-5.54,10.09,21.14-12.57,62.39-33.98,38.01Z"/>
  <path class="st0" d="M638,1510.02c-5.34,22.89-49.98,34.69-52.02,5l3.98-1c4.58,14.17,20,10.34,30.74,5.69,6.61-2.87,10.9-7.59,17.3-9.68Z"/>
  <path class="st0" d="M1858.01,1805.99c-.62-5.01,4.82-6.42,6.83-10.14,7.47-13.81-4.62-28.24-10.84-39.83,23.71,5.35,33.53,46.4,4.01,49.97Z"/>
  <path class="st0" d="M2264,1229.98c5.71-11.49-4.33-22.18-14.63-26.35l-21.36-7.6c16.16-6.73,45.38,2.38,44.11,22.93-.28,4.51-2.38,11.65-8.12,11.02Z"/>
  <path class="st0" d="M2147.98,535.99c-3.26-.36-2.72-4.52-5.98-6.99-15.6-11.78-30.05,2.64-44,8.98,5.25-23.24,52.98-34.14,49.98-1.99Z"/>
  <path class="st0" d="M469.99,820.01c-1.26,9.48,1.57,16.21,9,22.01l29,9.96c-14.82,9.28-45.53-1.86-45.7-20.96-.04-3.84,2.47-11.95,7.71-11Z"/>
  <path class="st0" d="M1571.98,128c-21.4-7.39-28.84,20.01-30.97,35.99-10.05-10.67-.91-37.41,11.5-42.47,6.9-2.81,18.81-3.56,19.47,6.48Z"/>
  <path class="st0" d="M878,244.02c-18.75,16.32-7.47,33.47,4,49.96-23.74-4.33-34.71-50.82-4-49.96Z"/>
  <path class="st0" d="M1167.98,38c4.21,14.92-2.07,29.97,13.04,40,2.45,5.62-14.37,8-18.16-7.86-2.05-8.6-1.73-25.66,5.11-32.14Z"/>
  <path class="st0" d="M2205.99,1579.99c-9.03-2.3-12.29-12.26-21.19-15.79-7.17-2.85-13.42-.47-18.76-5.2,13.77-19.11,36.53,5.68,39.95,20.99Z"/>
  <path class="st0" d="M423.98,1210c6.03,23.9-27.54,23.76-41.94,15,7.81-5.59,17.04-1.71,27.08-4.88,6.87-2.17,9.48-6.3,14.86-10.11Z"/>
  <path class="st0" d="M567.99,488.01c-7.34,28.54-44.42-15.26-39.98-20,9.64,3.04,13.75,13.58,23.52,17.46,5.62,2.24,10.39,3.12,16.46,2.54Z"/>
  <path class="st0" d="M1924,186.02c-11.08,11.91-20.71,22.53-20.99,39.97-21.27-12.99,4.82-37.49,20.99-39.97Z"/>
  <path class="st0" d="M812.01,1863.99c-2.01-1.87,15.02-18.87,16.48-22.5,1.96-4.9,1.13-7.86,1.56-12.47.27-2.93-1.7-5.84,2.93-4.99,19,13.37-6.82,35.26-20.96,39.97Z"/>
  <path class="st0" d="M824.01,1877.99l16.36-24.6,4.61-15.37c23.29,9.93-17.62,43.14-20.96,39.97Z"/>
  <path class="st0" d="M2354,822.02c5.94,5.63-14.88,3.74-16.98,4.01-3.79.47-7.86,1.21-11.42,2.58-6.17,2.37-9.34,8.36-15.6,9.38-3.07-25.74,27.94-17.91,43.99-15.97Z"/>
  <path class="st0" d="M1149.99,37.99c1.37,6.94,1.18,15.52,2.9,22.12,1.99,7.67,6.87,12.74,9.11,19.87-8.33,1.75-15.85-3.36-17.16-11.86-.46-2.97-.51-16.68-.39-20.51.06-1.73,1.92-14.04,5.54-9.63Z"/>
  <path class="st0" d="M1569.97,2009.99c-5.62,5.41-3.8-14.48-4.19-16.77-.58-3.42-1.47-8.13-2.78-11.22-2.56-6.02-8.31-7.84-8.99-13.99,24.53-4.31,18.73,26.47,15.96,41.98Z"/>
  <path class="st0" d="M2351,802c.71.18,3.5,3.29,3,3.98-12.77,4.1-31.44,1.46-38.98,14.02-7.7-4.86-.04-17.99,5.99-17.99,7.35,0,24.35-1.44,30,0Z"/>
  <path class="st0" d="M379.99,1245.99c-.51-5.35-.03-3.22,3-3.95,13.57-3.29,27.45-1.31,38.98-12.04,6.65,24.31-27.7,16.23-41.98,15.99Z"/>
  <path class="st0" d="M1891.99,209.99c-8.36-.09-9.54-10.13-7.57-16.58,1.14-3.75,24.49-24.78,25.56-23.41-2.41,14.71-20.49,22.91-17.99,39.99Z"/>
  <path class="st0" d="M1590,2009c-.18.71-3.29,3.5-3.98,3-3.4-15.06-2.06-30.35-14.02-41.97,4.66-4.12,18,3.5,18,6.98,0,7.77,1.52,26.04,0,32Z"/>
  <path class="st0" d="M2222,1567.98c-14.14-4.26-23.85-21.68-39.98-17.98,6.83-26.66,33.1,6.71,39.98,17.98Z"/>
  <path class="st0" d="M554,500.02c-2.18,8.26-8.75,9.93-16.59,7.56-2.72-.82-25.52-23.45-23.4-25.57,14.36,4.26,23.39,20.29,39.99,18.01Z"/>
  <path class="st0" d="M423.99,1248.01c5.49,20.81-28.51,19.24-41.98,15.97,5.65-7.25,19.75-2.86,28-6.97l13.98-9Z"/>
  <path class="st0" d="M2194.02,1536c4.19-19.45,24.02-3.18,32.06,4.92,3.31,3.33,12.17,16.47,2.96,11.06-10.65-6.25-20.03-21.04-35.02-15.98Z"/>
  <path class="st0" d="M838,1889.98l13.61-19.37,9.36-18.59,4.73,5.43c4.09,8.28-23.56,36.2-27.7,32.53Z"/>
  <path class="st0" d="M1144,79.98c-21.14,6.85-19.45-28.8-15.97-41.96,2.65-.53,3.13,3.64,3.47,5.47,2.49,13.61.85,25.67,12.5,36.49Z"/>
  <path class="st0" d="M1877.99,197.99c-25.37-5.14,15.84-42.58,17.99-39.99-4.54,14.12-20.41,22.54-17.99,39.99Z"/>
  <path class="st0" d="M542,514.02c-7.41,23.91-43.48-14.47-39.99-18.01,13.44,5.94,23.4,20.65,39.99,18.01Z"/>
  <path class="st0" d="M1608,2010c-6.04.94-3.21-1.47-4.05-4.86-3.3-13.34-1.42-24.84-11.97-36.12,6.72-4.89,16.02,3.68,16.02,9.98v31Z"/>
  <path class="st0" d="M849.98,466.03l-26.55,16.41c-1.54,1.12-6.67,2.34-7.42,1.56-7.16-7.49,25.8-26.17,33.97-17.96Z"/>
  <path class="st0" d="M1374,1799.98c-2.28,3.39-36.58-1.88-33.99-13.96l31.99,6.99c2.3.93,2.71,5.91,1.99,6.98Z"/>
  <path class="st0" d="M2352,784c.94,6.03-1.45,3.22-4.86,4.05-11.72,2.87-27.47,1.65-34.14,13.97l-1.2-12.65c.8-1.18,10.55-5.37,11.2-5.37h29Z"/>
  <path class="st0" d="M1391.51,254.5c1.85,1.8,1.94,6.6,4.48,8.51l-35.95-10.01,3.3-5.12c4.04-1.04,25.32,3.85,28.17,6.62Z"/>
  <path class="st0" d="M2128.01,1051.99l8.02-32.73c18.31-6.59.18,40.79-8.02,32.73Z"/>
  <path class="st0" d="M1917.98,1564.01c9.53,7.11-23.47,27.12-31.99,19.98-1.06-5.31,1.36-3.43,3.95-4.97,3.23-1.91,26.76-15.96,28.04-15.01Z"/>
  <path class="st0" d="M608,996.02c-5.28,11.1-5.04,26.8-13,35.94-8.77-.2-.67-38.03,13-35.94Z"/>
  <path class="st0" d="M1925.98,506c-3.51-5.15-16.48-23.01-17.6-27.41-2.04-8.02,4.57-7.69,9.62-1.58,6.47,7.83,12.93,19.15,7.98,28.99Z"/>
  <path class="st0" d="M808.02,1542c6.38,6.91,14.72,20.08,18.33,28.69,1.01,2.41,1.98,4.57-1.38,5.31-12.35-3.05-20.22-22.05-16.95-34Z"/>
  <path class="st0" d="M981.22,600.17c10.8-3.56,16.82,19.7,9.71,21.82-8.42,2.5-17.99-19.08-9.71-21.82Z"/>
  <path class="st0" d="M1921.31,1040.28c8.53-2.65,22.36,3.6,17.79,13.82-3.32,4.93-20.23-2.34-20.85-9.41-.77-2.1,1.27-3.85,3.07-4.4Z"/>
  <path class="st0" d="M815.86,1007.85c-3.22,4.58-24.43-2.17-21.84-10.79,2.58-8.58,28.55,1.25,21.84,10.79Z"/>
  <path class="st0" d="M953.44,1398.37c6.63-1.45,12.9.35,10.33,8.34-1.7,5.27-21.19,11.6-21.6.57,2.53-3.65,6.86-7.94,11.27-8.91Z"/>
  <path class="st0" d="M1398,451.99c1.17,9.02-1.51,18.74-10.93,22.01-9.43-7.99-1.89-25.69,10.93-22.01Z"/>
  <path class="st0" d="M1347.49,1595.46c-2.27,2.06-6.41,2.71-9.44,2.52-3-8.27-.23-19.22,8.97-22.07l4.75,3.4c1.19,3.72-1.54,13.67-4.27,16.15Z"/>
  <path class="st0" d="M1746.61,1447.35c-5.14-4.46-5.06-13.07-4.6-19.35,17.42-4.54,18.2,31.14,4.6,19.35Z"/>
  <path class="st0" d="M1781.51,636.43c2.93-.45,5.77-1.19,8.55.5,6.24,4.28-2.43,11.52-7.5,12.65-17.51,3.92-14.93-11.02-1.06-13.15Z"/>
  <path class="st0" d="M915.99,278.01c.51,10.58-24.27,16.43-27.97,8.96-.99-3.85,2.94-3.71,5.55-4.36,7.3-1.81,15.22-2.04,22.42-4.6Z"/>
  <path class="st0" d="M622.01,1476.01c10.88-1.42,14.48,27.86,6.99,27.95l-6.99-27.95Z"/>
  <path class="st0" d="M2107.98,546.01l6.01,25.98c-7.16,6.4-19.8-26.06-6.01-25.98Z"/>
  <path class="st0" d="M506.01,841.99c-2.45-2.44,12.23-23.53,15.97-25.99,1.99,10.63-3.97,25.57-15.97,25.99Z"/>
  <path class="st0" d="M1576,176.02c-4.6,10.41-27.08-3.38-26-10.98.52-3.67,2.68-2.3,5.05-1.12,6.86,3.45,12.73,10.93,20.95,12.1Z"/>
  <path class="st0" d="M1846,1760.04l.02,5.95-28.01,3.99c5.66-10.12,17.56-12.75,28-9.94Z"/>
  <path class="st0" d="M2230,1208.02c-1.62,2.21-14.82,27.73-17.99,23.97-.91-10.57,5.55-25.56,17.99-23.97Z"/>
  <path class="st0" d="M1183.99,1885.99c-1.62,1.79-22.93-12.07-23.99-15.97,9.55-1.36,25.72,3.75,23.99,15.97Z"/>
  <path class="st0" d="M1480.01,240.01c7.81-3.53,14.53,1.32,19.95,6.99l-5.38,4.72c-3.93,2.19-17.06-8.4-14.56-11.7Z"/>
  <path class="st0" d="M2007.52,552.5c2.7,2.93,6.49,15.61-.52,15.57-10.6-.06-10.46-27.51.52-15.57Z"/>
  <path class="st0" d="M735.99,1497.99l-9.56-2.45-2.42-15.53c9.98-1.21,12.1,10.39,11.98,17.98Z"/>
  <path class="st0" d="M909.07,380.33l3.01,4.7c-14.05,18.09-31.25.84-3.01-4.7Z"/>
  <path class="st0" d="M1824.01,1667.99c-5.22-11.26,17.64-15.06,17.94-9s-12.79,9.28-17.94,9Z"/>
  <path class="st0" d="M1239.25,1798.15c24.23,2.03,14.16,21.84-3.25,4.83l3.25-4.83Z"/>
</svg>