<?xml version="1.0" encoding="UTF-8"?>
<svg id="Layer_0_xA0_Image" xmlns="http://www.w3.org/2000/svg" version="1.1" viewBox="0 0 4500 1500">
  <!-- Generator: Adobe Illustrator 30.2.1, SVG Export Plug-In . SVG Version: 2.1.1 Build 1)  -->
  <defs>
    <style>
      .st0 {
        fill: #714252;
        stroke: #000;
        stroke-miterlimit: 10;
        stroke-width: .25px;
      }
    </style>
  </defs>
  <path class="st0" d="M0,890c3.32-1.51,6.75-2.81,9.94-4.57,40.27-22.19,80.51-44.45,120.75-66.71,4.05-2.24,7.98-4.68,13.02-7.65,2.07,3.19,4.28,6.35,6.24,9.65,64.14,108.4,128.25,216.81,192.37,325.22,19.85,33.56,39.71,67.1,59.56,100.66,1.53,2.58,3.11,5.14,4.51,7.78,4.39,8.27,3.82,10.51-4.21,15.19-37.14,21.64-74.32,43.22-111.48,64.83-15.56,9.05-31.09,18.13-46.66,27.14-1.98,1.15-4.15,1.96-7.33,3.44-2.05-3.06-4.18-5.86-5.92-8.88-42.19-72.98-84.34-145.99-126.49-218.99-32.32-55.98-64.6-111.98-97.01-167.91-1.94-3.35-4.83-6.14-7.27-9.19,0-23.33,0-46.67,0-70Z"/>
  <path class="st0" d="M4500,612c-2.98,1.36-6.07,2.53-8.93,4.11-37.63,20.73-75.23,41.51-112.82,62.31-5.5,3.04-10.89,6.27-17.48,10.08-1.84-2.71-3.95-5.49-5.72-8.47-45.8-77.38-91.57-154.78-137.35-232.18-38.15-64.5-76.3-128.99-114.45-193.49-1.7-2.87-3.47-5.69-5.06-8.61-4.64-8.51-3.99-10.97,4.47-15.9,52.09-30.33,104.2-60.64,156.32-90.92,8.9-5.17,9-5.12,14.38,4.2,73.77,127.77,147.52,255.54,221.27,383.32,1.82,3.16,3.57,6.37,5.35,9.55v76Z"/>
  <path class="st0" d="M0,542c2.24-2.82,4.89-5.4,6.67-8.48,65.51-113.31,130.95-226.66,196.38-340.02,1.98-3.43,3.77-6.98,6.28-11.63,28.72,16.27,56.47,33.73,84.59,50.54,27.97,16.72,55.84,33.6,84.81,51.05-1.59,3.17-3.18,6.68-5.06,10.02-51.64,91.7-103.31,183.38-154.98,275.06-30.08,53.39-60.13,106.79-90.32,160.11-2.36,4.16-5.73,7.76-8.92,11.99-4.31-2.33-7.53-3.98-10.67-5.78-32.95-18.86-65.87-37.78-98.86-56.58-3.11-1.78-6.61-2.88-9.93-4.29,0-44,0-88,0-132Z"/>
  <path class="st0" d="M4500,962c-68.22,118.19-136.45,236.39-205.41,355.85-56.26-33.43-112-67.62-169.08-101.6,1.37-2.72,2.7-5.66,4.28-8.46,82.22-145.97,164.45-291.93,246.69-437.89.98-1.74,1.87-3.56,3.09-5.13,3.81-4.91,6.28-5.5,11.88-2.33,15.08,8.51,30.04,17.24,45.11,25.78,21.12,11.97,42.28,23.85,63.43,35.77v138Z"/>
  <path class="st0" d="M0,1014c2.23,2.83,4.86,5.43,6.63,8.52,68.67,119.52,137.27,239.09,205.85,358.67,1.62,2.82,2.94,5.82,4.82,9.56-3.75,2.58-6.89,4.89-10.17,6.98-39.29,25.08-78.57,50.19-117.99,75.07-2.84,1.79-6.78,2.53-10.22,2.58-22.31.3-44.63.25-66.94.35-3.99.02-7.98.18-11.98.28,0-154,0-308,0-462Z"/>
  <path class="st0" d="M4500,480c-2.26-3.57-4.66-7.05-6.76-10.71-66.28-115.45-132.54-230.92-198.78-346.39-2.13-3.71-4.01-7.57-6.42-12.15,3.6-2.52,6.7-4.89,9.99-6.98,37.07-23.59,74.33-46.86,111.11-70.9,7.68-5.02,15-7.23,23.97-7.06,22.29.42,44.6.17,66.9.19v454Z"/>
  <path class="st0" d="M0,58c2.97,1.48,6.06,2.77,8.89,4.48,56.53,34.05,113.03,68.14,169.52,102.25,3.34,2.02,6.54,4.25,10.31,6.72-1.71,3.47-2.84,6.17-4.31,8.68C125.07,280.94,65.71,381.74,6.27,482.5c-1.63,2.77-4.16,5.01-6.27,7.5,0-144,0-288,0-432Z"/>
  <path class="st0" d="M4500,1440.01c-2.07-.92-4.26-1.63-6.19-2.79-55.88-33.67-111.74-67.38-167.59-101.1-10.33-6.24-10.35-6.31-4.32-16.57,57.08-96.95,114.18-193.89,171.29-290.82,2.15-3.65,4.53-7.16,6.8-10.73v422Z"/>
  <path class="st0" d="M0,718c9.47,4.83,18.99,9.56,28.4,14.52,30.58,16.13,61.12,32.33,91.66,48.53,3.18,1.69,6.24,3.58,10.26,5.89-2.05,2.29-3.2,4.29-4.93,5.4-40.54,26.08-81.14,52.07-121.75,78.05-1.11.71-2.42,1.08-3.64,1.61,0-51.33,0-102.67,0-154Z"/>
  <path class="st0" d="M4500,786c-43.9-23.67-87.8-47.34-132.67-71.54,2.09-2.1,3.16-3.75,4.68-4.61,42-23.87,84.04-47.66,126.08-71.44.54-.31,1.27-.28,1.91-.41v148Z"/>
  <path class="st0" d="M3021.59,922.41c87.62,152.7,175.25,305.41,263.44,459.1-3.57,2.6-6.56,5.03-9.79,7.09-37.09,23.62-74.38,46.93-111.2,70.96-7.96,5.2-15.63,7.28-24.97,7.24-39.32-.15-78.64.18-117.95.68-9.32.12-17.46-1.86-25.54-6.74-69.57-42.02-139.31-83.75-208.98-125.61-8.66-5.2-8.67-5.36-3.21-14.63,53.9-91.57,107.83-183.13,161.75-274.69,22.48-38.17,44.94-76.36,67.46-114.51,1.8-3.05,3.94-5.91,5.93-8.85,1.02-.01,2.05-.02,3.07-.04Z"/>
  <path class="st0" d="M3015.1,570.06c-5.97-5.87-260.86-449.4-264.3-459.95,2.71-1.89,5.58-4.05,8.6-5.97,39.58-25.28,79.16-50.56,118.84-75.69,2.34-1.48,5.49-2.37,8.28-2.39,44.65-.28,89.29-.32,133.94-.56,6.33-.03,11.59,2.29,16.82,5.43,52.84,31.72,105.72,63.35,158.57,95.05,17.14,10.28,34.24,20.63,51.33,30.99,2.8,1.7,5.47,3.6,8,5.27-2.36,8.8-233.24,400.97-240.07,407.82Z"/>
  <path class="st0" d="M1754.79,1381.78c-2.87,2.08-5.16,3.93-7.62,5.51-40.13,25.65-80.25,51.3-120.49,76.78-2.32,1.47-5.56,2.07-8.38,2.09-43.97.3-87.95.39-131.92.64-6.19.04-11.73-1.43-17.06-4.64-71.07-42.74-142.19-85.4-213.28-128.12-2.2-1.33-4.15-3.08-6.04-4.5,3.3-10.46,234.43-401.94,240.04-406.86.32.02.66,0,.97.07.32.08.68.2.89.43.89.97,1.91,1.88,2.56,3.01,86.2,150.22,172.38,300.45,258.53,450.69.65,1.13.92,2.46,1.8,4.89Z"/>
  <path class="st0" d="M1727.17,162.87c-79.35,134.69-158.28,268.67-237.2,402.65-1.01,1.71-1.87,3.51-3.61,6.82-3.6-5.18-5.61-7.67-7.19-10.42-84.61-147.39-169.19-294.8-253.76-442.21-.83-1.44-1.62-2.91-2.46-4.35-1.99-3.44-1.67-6.31,1.95-8.47,1.43-.85,2.79-1.82,4.2-2.71,39.89-25.44,79.77-50.92,119.75-76.23,2.34-1.48,5.54-2.24,8.34-2.26,44.33-.33,88.65-.44,132.98-.73,6.65-.04,12.27,2.29,17.81,5.61,52.28,31.39,104.61,62.69,156.91,94.05,17.43,10.45,34.82,20.98,52.2,31.53,3.06,1.85,5.96,3.96,10.08,6.71Z"/>
  <path class="st0" d="M2013.14,1475.18c1.14-65.31,2.28-130.44,3.44-196.8,3.75-.17,7.6-.47,11.46-.51,144.9-1.51,289.8-2.99,434.69-4.51,21.32-.22,42.63-.64,63.95-.95,2.33-.03,4.68-.2,6.99.04,6.65.7,8.64,2.72,8.73,9.52.19,14.99.13,29.98.2,44.97.22,45.3.47,90.61.63,135.91.01,3.88-.52,7.76-.85,12.34h-529.24Z"/>
  <path class="st0" d="M4076.62,1473.55h-528.88c-.03-65.07,2.8-130.19,2.85-196.66,4.16-.26,8.3-.71,12.45-.75,88.98-.92,177.97-1.75,266.95-2.69,76.65-.81,153.3-1.73,229.95-2.6.33,0,.67,0,1-.01,15.22-.14,15.86.48,15.93,15.55.24,58.32.5,116.65.68,174.97.01,3.86-.57,7.73-.93,12.19Z"/>
  <path class="st0" d="M1009.44,1475.53H480.5c-.12-3.4-.42-7.2-.35-11.01.98-50.97,2.04-101.93,3-152.9.2-10.58.03-21.17.03-33.08,4.46-.15,8.64-.38,12.83-.42,159.59-1.67,319.18-3.31,478.76-4.97,7.66-.08,15.33-.39,22.99-.31,9.9.1,11.91,2.02,11.94,11.5.18,60.64.29,121.28.39,181.92,0,2.61-.36,5.22-.66,9.27Z"/>
  <path class="st0" d="M3012.1,638.9c88.54-153.38,176.38-305.56,264.28-457.83.18-.09.47-.3.78-.35.32-.05.68-.02.98.1.93.35,1.9.65,2.74,1.16,54.75,32.97,109.48,65.95,165.29,99.58-1.59,3.06-3.27,6.53-5.15,9.88-60.81,107.96-121.65,215.91-182.48,323.86-20.93,37.15-41.79,74.33-62.84,111.41-2.35,4.14-5.74,7.7-9.16,12.19-58.49-33.53-115.85-66.41-174.44-99.99Z"/>
  <path class="st0" d="M1320.01,762.03c56.52,32.41,113.63,65.16,169.77,97.35.44,1.94.54,2.26.58,2.58.04.33.13.7.02.99-.47,1.24-.87,2.53-1.52,3.67-86.87,150.56-173.76,301.12-261.34,452.85-2.8-1.48-5.94-2.94-8.9-4.72-48.52-29.2-97.02-58.44-145.54-87.64-4.54-2.73-9.19-5.27-15.07-8.63,1.83-3.5,3.65-7.21,5.67-10.81,45.76-81.26,91.55-162.51,137.33-243.76,35.8-63.55,71.6-127.11,107.42-190.65,2.58-4.58,4.57-9.82,11.58-11.22Z"/>
  <path class="st0" d="M1504.3,906.5c57.19-31.64,114.24-63.21,172.41-95.4,1.71,2.52,4.04,5.58,5.99,8.87,48.38,81.71,96.72,163.44,145.07,245.17,35.79,60.51,71.58,121.02,107.37,181.53,1.53,2.58,3.13,5.12,4.53,7.77,4.09,7.72,3.53,10.04-3.98,14.42-52.97,30.87-105.96,61.69-158.97,92.49-1.96,1.14-4.13,1.92-7.51,3.47-22.44-38-44.08-76.12-66.05-114.04-22.04-38.06-43.99-76.17-65.98-114.26-21.99-38.09-43.96-76.19-65.96-114.27-21.98-38.05-43.99-76.09-66.93-115.76Z"/>
  <path class="st0" d="M3211.26,809.37c1.68,2.57,3.53,5.2,5.17,7.96,84.8,143.31,169.58,286.63,254.35,429.95,1.02,1.72,2.08,3.42,3.02,5.18,4.31,8.14,3.72,10.42-4.4,15.15-37.98,22.14-75.99,44.21-114,66.31-13.82,8.04-27.63,16.09-41.47,24.09-2.84,1.64-5.77,3.13-7.99,4.34-1.31-.31-1.64-.36-1.95-.47-.31-.11-.64-.23-.88-.43-.5-.42-1.08-.83-1.4-1.38-87.48-151.3-174.94-302.61-263.14-455.21,57.33-31.7,114.55-63.35,172.69-95.5Z"/>
  <path class="st0" d="M1477.8,640.52c88.64-153.56,176.36-305.53,264.79-458.73,2.66,1.41,5.79,2.89,8.74,4.67,48.53,29.21,97.03,58.46,145.55,87.68,4.54,2.73,9.19,5.27,15.05,8.62-1.54,3.06-3.1,6.53-4.95,9.83-32.85,58.35-65.74,116.68-98.61,175.02-48.9,86.79-97.78,173.58-146.68,260.36-2.59,4.6-4.57,9.82-11.53,11.37-56.52-32.41-113.67-65.17-172.35-98.82Z"/>
  <path class="st0" d="M2759.98,1319.42c-55.76-33.57-111.56-67.17-168.58-101.5,1.41-2.88,2.9-6.39,4.76-9.69,41.49-73.72,83.02-147.42,124.55-221.13,40.06-71.09,80.12-142.18,120.18-213.27.82-1.45,1.61-2.91,2.48-4.34,5.19-8.58,7.18-9.18,15.86-4.22,38.45,21.99,76.88,44.03,115.31,66.06,14.45,8.28,28.91,16.54,43.33,24.86,1.98,1.14,3.76,2.62,5.5,3.85-2.05,8.81-236.36,417.39-263.39,459.38Z"/>
  <path class="st0" d="M1293.25,690.7c-2.06-3.24-3.9-5.95-5.56-8.77-84.8-143.35-169.59-286.7-254.38-430.05-1.02-1.72-2.11-3.4-3.03-5.17-3.95-7.62-3.34-9.95,4.28-14.39,52.68-30.68,105.38-61.33,158.1-91.94,2.23-1.29,4.71-2.15,8.38-3.8,44.29,76.31,88.06,152.43,131.98,228.45,43.98,76.11,87.92,152.24,132.45,229.34-2.92,1.82-6.11,4.02-9.48,5.89-48.68,26.93-97.38,53.81-146.06,80.74-5.21,2.88-10.29,5.98-16.67,9.7Z"/>
  <path class="st0" d="M2734,136.03c88.29,152.9,176.17,305.07,264.73,458.43-57.31,31.71-114.56,63.39-172.61,95.5-1.6-2.44-3.48-5.1-5.13-7.89-84.98-143.64-169.95-287.3-254.91-430.95-.85-1.43-1.72-2.85-2.49-4.33-4.24-8.09-3.62-10.42,4.42-15.1,41.16-23.98,82.35-47.92,123.53-71.87,11.81-6.87,23.6-13.75,35.43-20.57,1.7-.98,3.58-1.66,7.04-3.23Z"/>
  <path class="st0" d="M3494.86,24.26h529.44c-1.17,64.98-2.34,130.07-3.54,196.44-3.41.29-7.2.85-11,.89-80.62.86-161.24,1.65-241.86,2.46-85.28.86-170.57,1.73-255.85,2.61-17.3.18-17.37.11-17.42-16.99-.15-57.64-.32-115.27-.44-172.91,0-3.89.4-7.77.66-12.5Z"/>
  <path class="st0" d="M427.66,26.11h529.27c-1.14,65.05-2.29,130.19-3.46,196.58-3.58.3-7.37.85-11.17.89-79.28.85-158.56,1.63-237.84,2.43-86.27.87-172.55,1.75-258.82,2.63-2.33.02-4.67.13-6.99.06-9.42-.3-10.99-1.77-11.04-11.19-.24-49.3-.4-98.6-.6-147.9-.04-10.66-.2-21.32-.16-31.98.01-3.58.49-7.15.81-11.53Z"/>
  <path class="st0" d="M1959.93,25.67h529.62c.11,2.98.4,6.48.33,9.96-.98,51.97-2.04,103.95-3.01,155.92-.18,9.91-.03,19.83-.03,30.85-4.33.3-8.51.79-12.69.84-113.29,1.15-226.59,2.23-339.88,3.36-52.31.52-104.63,1.12-156.94,1.68-2.33.02-4.67.15-7,.01-7.96-.46-9.89-2.32-9.98-10.31-.16-13.66-.11-27.32-.14-40.99-.1-46.32-.2-92.64-.29-138.96,0-3.59,0-7.17,0-12.36Z"/>
  <path class="st0" d="M1053.53,1472.28c-.58-72.71-1.14-143.87-1.7-214.23,4.89-3.86,7.98-1.21,11.05.52,8.7,4.91,17.33,9.96,25.98,14.96,106.74,61.62,213.49,123.23,320.21,184.87,3.33,1.92,6.46,4.18,9.4,6.09-1.36,5.1-4.65,4.84-7.55,4.91-6.66.18-13.33.16-19.99.21-107.61.89-215.22,1.78-322.84,2.67-4.27.04-8.55,0-14.57,0Z"/>
  <path class="st0" d="M19.81,32.93c3.72-.44,7.44-1.23,11.17-1.26,72.96-.72,145.92-1.34,218.87-2.01,40.31-.37,80.62-.81,120.93-1.21,3.93-.04,7.86,0,12.46,0,.46,3.4,1.08,5.9,1.1,8.41.57,66.3,1.09,132.59,1.6,198.89.01,1.66.05,3.34-.1,4.99-.36,3.97-2.7,5.22-6.22,3.87-2.47-.94-4.77-2.35-7.07-3.68C257.72,174.66,142.9,108.38,28.11,42.05c-3.2-1.85-6.03-4.34-9.04-6.53.24-.86.49-1.73.73-2.59Z"/>
  <path class="st0" d="M3450.34,19.91c2.21,10.77,3.3,209.1,1.38,215.82-4.74,2.02-8.13-1.37-11.7-3.43-48.23-27.76-96.43-55.58-144.62-83.4-66.38-38.32-132.75-76.64-199.11-114.99-3.36-1.94-6.57-4.14-11.35-7.18,3.44-1.78,5.18-3.18,7.13-3.57,2.57-.52,5.31-.3,7.97-.32,112.65-.98,225.31-1.96,337.96-2.93,4.22-.04,8.45,0,12.35,0Z"/>
  <path class="st0" d="M1557.77,23.78c4.05-.47,8.09-1.32,12.14-1.36,92.26-.87,184.53-1.65,276.8-2.43,20.98-.18,41.97-.3,62.95-.44,3.61-.02,7.22,0,10.55,0,2.91,9.13,4.4,207.63,1.86,215.8-4.84,2.02-8.18-1.54-11.74-3.59-52.54-30.23-105.01-60.57-157.51-90.87-62.01-35.8-124.04-71.58-186.03-107.41-3.33-1.92-6.46-4.19-9.68-6.29.22-1.14.45-2.27.67-3.41Z"/>
  <path class="st0" d="M4487.8,1466.2c-3.4,1.81-4.92,3.07-6.64,3.42-2.25.46-4.64.23-6.97.25-113.56.94-227.12,1.88-340.68,2.81-3.62.03-7.23,0-10.54,0-2.79-8.56-4.39-205.54-2.02-215.87,5.29-2.07,8.83,1.87,12.66,4.08,57.72,33.2,115.37,66.51,173.03,99.8,56.8,32.79,113.59,65.58,170.37,98.42,3.27,1.89,6.32,4.14,10.79,7.09Z"/>
  <path class="st0" d="M2582.89,1254.98c4.84,2.2,8.77,3.61,12.33,5.66,77.59,44.72,155.14,89.51,232.69,134.29,37.19,21.47,74.38,42.95,111.56,64.45,3.04,1.76,5.94,3.78,10.4,6.63-3.54,1.83-5.29,3.24-7.24,3.62-2.57.5-5.3.22-7.97.24-112.23.93-224.46,1.86-336.69,2.78-4.59.04-9.19,0-15.08,0v-217.69Z"/>
  <path class="st0" d="M3508.97,557.25c-.99-4.24-1.99-6.99-2.23-9.81-7.46-86.89-14.85-173.79-22.11-260.69-.11-1.33,1.48-2.8,2.56-4.71,2.68.91,5.22,1.52,7.55,2.59,81.74,37.35,163.47,74.73,245.14,112.25,3.08,1.41,6.89,3.86,7.83,6.67,1.46,4.39-3.71,5.63-6.59,7.47-24.1,15.46-48.29,30.78-72.45,46.14-49.44,31.44-98.87,62.9-148.35,94.29-3.2,2.03-6.77,3.49-11.35,5.82Z"/>
  <path class="st0" d="M4089.67,604.91c4.59,1.37,7.77,1.91,10.59,3.22,76.99,35.88,153.96,71.83,230.88,107.87,3.06,1.44,5.62,3.94,9.43,6.67-3.37,2.88-5.44,4.94-7.79,6.61-73.03,51.97-146.08,103.91-219.13,155.85-.54.39-1.07.79-1.63,1.16-7.8,5.08-10.79,3.79-11.29-5.36-.84-15.3-1.37-30.63-2.01-45.94-3.02-72.25-6.04-144.49-9.02-216.74-.16-3.89-.02-7.79-.02-13.35Z"/>
  <path class="st0" d="M691.88,1086.36c-4.27,3.5-6.64,5.73-9.28,7.57-69.04,48.32-138.1,96.62-207.17,144.89-10.47,7.32-12.4,6.31-13.58-6.16-5.72-60.33-11.54-120.66-17.31-180.99-2.73-28.51-5.42-57.02-8.11-85.53-.16-1.66-.37-3.34-.23-4.98.46-5.29,3.07-6.86,8.09-4.8,2.15.88,4.14,2.13,6.21,3.21,76.47,39.9,152.95,79.78,229.4,119.71,3.43,1.79,6.68,3.94,11.98,7.08Z"/>
  <path class="st0" d="M1974.43,559.58c-1.01-5.76-1.9-9.24-2.2-12.76-7.25-86.58-14.45-173.16-21.53-259.76-.08-.94,1.48-2.01,2.71-3.57,3.13,1.28,6.2,2.41,9.16,3.77,80.55,36.83,161.09,73.67,241.6,110.58,3.76,1.72,9.75,2.45,9.26,7.56-.28,2.89-4.62,5.92-7.76,7.92-73.29,46.75-146.66,93.38-220.03,140-2.98,1.89-6.17,3.46-11.22,6.26Z"/>
  <path class="st0" d="M996.52,941.69c8.22,91.42,15.87,180.18,23.35,268.96.17,2.05-1.14,4.23-2.11,7.53-3.73-1.48-6.74-2.53-9.63-3.85-81.15-37.09-162.28-74.21-243.41-111.33-1.51-.69-3.1-1.27-4.51-2.14-5.21-3.23-5.41-6.23-.66-9.85,1.58-1.21,3.36-2.16,5.04-3.24,73.05-46.46,146.1-92.93,219.18-139.35,3.23-2.05,6.78-3.6,12.75-6.74Z"/>
  <path class="st0" d="M680.98,407.93c-2.31,1.67-4.36,3.33-6.56,4.73-74.17,47.19-148.36,94.36-222.54,141.53-.84.54-1.66,1.11-2.53,1.6-6.78,3.84-8.78,2.96-9.59-4.65-1.24-11.59-2.29-23.19-3.29-34.8-4.94-57.39-9.84-114.78-14.76-172.17-1.42-16.59-2.97-33.16-4.18-49.77-.24-3.28.8-6.66,1.4-11.11,4.59,1.88,7.64,3,10.59,4.35,80.55,36.81,161.09,73.63,241.6,110.53,4.01,1.84,9.41,2.48,9.88,9.77Z"/>
  <path class="st0" d="M2278.64,414.88c3.54-3.04,5.79-5.32,8.37-7.13,69.3-48.54,138.63-97.03,207.96-145.53.82-.57,1.62-1.18,2.47-1.7,7.25-4.44,9.71-3.18,10.54,5.57,5.46,57.69,10.86,115.39,16.34,173.08,2.96,31.16,6.03,62.32,9.06,93.48.03.33.15.67.1.99-.54,3.79.18,8.72-1.95,11.09-3.37,3.76-7.28-.65-10.56-2.35-52.02-27-103.97-54.13-155.94-81.23-25.1-13.09-50.21-26.15-75.27-39.31-3.4-1.79-6.54-4.07-11.13-6.96Z"/>
  <path class="st0" d="M414.8,895.71c-5.67-2.21-8.76-3.22-11.67-4.58-76.01-35.47-152-70.97-227.99-106.47-.9-.42-1.84-.79-2.73-1.24-8.9-4.51-9.16-7.09-.89-12.98,73.24-52.12,146.51-104.2,219.77-156.28,1.36-.96,2.68-2.03,4.17-2.73,4.41-2.09,7.03-.81,7.98,3.89.32,1.62.26,3.31.32,4.98,2.87,68.86,5.72,137.72,8.59,206.57.79,18.96,1.65,37.92,2.43,56.88.13,3.17.02,6.34.02,11.96Z"/>
  <path class="st0" d="M3758.62,1084.61c-3.67,3.12-5.96,5.39-8.56,7.21-69.08,48.36-138.19,96.67-207.29,144.99-.27.19-.54.39-.82.58-9.65,6.5-11.47,5.79-12.62-5.84-3.85-39.13-7.53-78.29-11.26-117.43-4.43-46.44-8.85-92.89-13.24-139.34-.5-5.31-1.15-10.64-1.07-15.95.07-4.87,2.78-6.42,7.34-4.7,2.17.82,4.17,2.09,6.23,3.16,76.81,40.08,153.63,80.15,230.41,120.28,3.36,1.76,6.41,4.12,10.88,7.03Z"/>
  <path class="st0" d="M1696.21,776.77c4.23-3.38,6.44-5.33,8.82-7.03,72.72-51.75,145.45-103.49,218.22-155.18,3.37-2.39,6.52-6.21,11.51-3.56,2.84,10.13,13.81,274.01,11.37,283.15-3.62-1.26-7.29-2.2-10.67-3.77-46.79-21.76-93.53-43.61-140.29-65.44-29.26-13.66-58.54-27.28-87.75-41.05-3.41-1.61-6.43-4.06-11.21-7.12Z"/>
  <path class="st0" d="M3231.59,774.28c3.32-2.64,5.78-4.78,8.42-6.66,72.51-51.59,145.02-103.17,217.58-154.69,3.11-2.21,6.52-6.58,10.39-3.61,2.21,1.69,2.76,6.41,2.91,9.82,2.46,53.94,4.75,107.89,7.06,161.83,1.41,32.97,2.8,65.93,4.12,98.91.15,3.83-.25,7.68-.42,12.05-2.82-.21-4.61.11-5.95-.51-80.02-37.32-160-74.72-239.95-112.2-1.33-.63-2.11-2.44-4.16-4.93Z"/>
  <path class="st0" d="M1022.63,606.95c4.37,1.33,7.53,1.89,10.33,3.19,76.93,35.86,153.83,71.77,230.69,107.77,3.1,1.45,5.75,3.87,9.69,6.59-3.28,2.85-5.3,4.92-7.63,6.58-73.23,52.13-146.49,104.22-219.75,156.31-1.36.96-2.67,2.04-4.15,2.76-4.78,2.3-7.58.81-8.03-4.64-.66-7.96-1.02-15.95-1.35-23.93-2.99-71.85-5.95-143.71-8.94-215.56-.39-9.31-.98-18.62-1.33-27.93-.12-3.18.25-6.38.47-11.14Z"/>
  <path class="st0" d="M4063.13,940.28c.98,6.63,1.94,11.41,2.37,16.24,3.47,39.17,6.86,78.35,10.25,117.52,3.73,43.16,7.43,86.33,11.11,129.49.35,4.15,2.01,8.73-3.53,11.96-2.7-1.08-5.79-2.17-8.75-3.53-80.3-36.71-160.6-73.41-240.83-110.27-3.69-1.69-8.56-4.27-9.59-7.49-1.67-5.22,4.71-6.38,8.08-8.53,72.77-46.42,145.6-92.72,218.47-138.99,3.46-2.19,7.3-3.78,12.43-6.4Z"/>
  <path class="st0" d="M973.67,259.28c.62,4.11,1.54,8.61,1.97,13.16,7.35,76.95,14.64,153.9,21.92,230.86,1.07,11.28,2.13,22.56,2.9,33.86.63,9.3-2.01,11.05-10.24,6.82-18.96-9.75-37.83-19.7-56.73-29.57-58.79-30.67-117.52-61.45-176.41-91.93-11.98-6.2-12.24-8.2-.85-16.13,68.11-47.4,136.05-95.06,204.1-142.55,3.64-2.54,6.87-6.74,13.34-4.54Z"/>
  <path class="st0" d="M1972.32,953.77c4.35,2.1,7.65,3.58,10.85,5.25,76.74,40.02,153.46,80.05,230.18,120.09,12.17,6.35,12.23,7.48.89,15.41-68.21,47.71-136.41,95.43-204.65,143.09-3.65,2.55-6.97,6.53-13.79,4.11-8.8-93.56-18.27-187.5-26.32-281.58-.14-1.64,1.48-3.44,2.84-6.37Z"/>
  <path class="st0" d="M2527.34,942.34c3.52,8.49,25.73,245.03,25.54,267.61-.02,2.14-1.03,4.28-1.97,7.92-4.33-1.73-7.94-3-11.41-4.59-72.95-33.35-145.88-66.74-218.82-100.12-8.17-3.74-16.45-7.27-24.45-11.34-2.71-1.38-4.71-4.16-7.03-6.3,2.14-2.3,3.91-5.18,6.47-6.81,63.43-40.47,126.95-80.81,190.45-121.18,10.68-6.79,21.31-13.64,32.03-20.36,2.72-1.71,5.7-3.01,9.18-4.83Z"/>
  <path class="st0" d="M3812.64,413.05c4.32-3.46,6.74-5.62,9.39-7.47,68.73-48.11,137.49-96.19,206.24-144.27.82-.57,1.63-1.16,2.47-1.7,8.39-5.45,10.56-4.44,11.53,5.66,6.7,70.26,13.34,140.52,20.02,210.78,1.64,17.23,3.35,34.46,5.03,51.69.19,1.99.48,3.98.53,5.97.08,3.55,1.68,8.24-2.5,9.77-2.47.9-6.35-.72-9.1-2.16-77.96-40.56-155.86-81.23-233.74-121.93-2.83-1.48-5.4-3.45-9.86-6.33Z"/>
  <path class="st0" d="M2556.33,606c4.89,1.94,8.26,3.08,11.47,4.58,75.17,35.08,150.28,70.27,225.51,105.23,12.07,5.61,16.05,7.64,1.91,17.62-71.35,50.34-142.39,101.11-213.6,151.64-3.63,2.57-7.13,7.5-12.21,5.01-5.17-2.54-2.97-8.34-3.16-12.72-3.31-74.25-6.47-148.51-9.63-222.76-.57-13.32-1.07-26.64-1.47-39.97-.07-2.2.58-4.41,1.18-8.62Z"/>
  <path class="st0" d="M3040.35,879.47c-3.67-3.18-.77-6.09.63-8.79,5.52-10.59,11.25-21.07,17.42-32.56-76.41-41.27-152.36-82.29-228.55-123.43,5.46-6.19,137.39-82.58,164.44-95.55,1.92-.92,4.19-1.12,7.26-1.91-.21,9.72-5.98,16.13-9.12,23.47-3.13,7.32-6.86,14.38-10.84,22.63,71.94,38.55,144.06,76.06,215.9,114.58-5.76,7.4-148.4,99.08-157.15,101.56Z"/>
  <path class="st0" d="M1667.86,778.02c-5.73,6.7-146.89,97.59-156.71,101.2-3.17-2.96-1.35-5.9.19-8.78,4.08-7.64,8.24-15.24,12.32-22.89,1.54-2.9,2.96-5.86,5.03-9.98-76.3-41.22-152.25-82.26-228.57-123.5,7.87-7.92,163.53-95.44,170.93-96.55,2.8,3.48-.02,6.3-1.34,9.08-5.58,11.7-11.35,23.31-17.56,35.98,3.44,1.99,6.42,3.85,9.53,5.5,65.37,34.62,130.76,69.21,196.12,103.85,3.42,1.81,6.63,4,10.07,6.09Z"/>
  <path class="st0" d="M4045.66,576.88c-80.53,46.11-161.58,92.51-243.45,139.39-.89-3.2-1.83-5.01-1.83-6.83.2-88.22.47-176.44.75-266.42,4.49,1.79,7.25,2.62,9.75,3.94,75.73,39.98,151.44,80.02,227.15,120.05,3.52,1.86,7.27,3.55,7.63,9.88Z"/>
  <path class="st0" d="M2511.68,578.31c-80.64,46.18-161.67,92.58-242.4,138.82-4.82-3.11-3.14-7.17-3.15-10.53,0-51.29.12-102.59.24-153.88.08-31.97.21-63.95.32-95.92.01-3.27,0-6.55,0-9.34,4.95-3.15,7.83.13,10.83,1.7,30.08,15.77,60.09,31.65,90.11,47.53,44.73,23.65,89.46,47.32,134.19,70.99,4.05,2.15,8.75,3.65,9.86,10.64Z"/>
  <path class="st0" d="M458.54,922.9c80.96-46.36,161.79-92.64,244.36-139.92.45,5.31,1.05,9.04,1.05,12.77-.02,41.97-.11,83.94-.21,125.91-.1,41.3-.22,82.61-.38,123.91-.01,3.19-.39,6.37-.67,10.73-3.66-1.35-6.14-1.95-8.33-3.11-75.97-40.12-151.91-80.29-227.86-120.45-3.54-1.87-7.24-3.55-7.95-9.84Z"/>
  <path class="st0" d="M738.74,1062.23v-280.42c2.36.22,3.84-.06,4.83.51,76.84,44.5,153.65,89.08,230.23,133.52-.52,5.54-4.58,6.48-7.47,8.3-40.26,25.39-80.58,50.69-120.89,76.01-31.29,19.65-62.56,39.33-93.89,58.92-3.77,2.36-7.36,6.18-12.81,3.17Z"/>
  <path class="st0" d="M3512.83,886.48c-.37-3.03-.8-5.28-.89-7.55-3.22-84.6-6.43-169.2-9.55-253.8-.18-4.85-1.6-10.11,2.75-14.16.31-.11.61-.23.93-.31.32-.07.68-.21.96-.11,1.25.43,2.56.78,3.69,1.44,78.36,45.57,156.7,91.16,235.03,136.79.82.48,1.41,1.36,2.05,2.1.18.21.12.62.17.94-5.27,5.88-225.41,132.33-235.13,134.66Z"/>
  <path class="st0" d="M439.59,611.75c80.57,46.9,161.06,93.76,243.26,141.61-4.04,2.87-6.67,5.08-9.6,6.76-39.54,22.75-79.12,45.43-118.69,68.12-32.64,18.72-65.27,37.44-97.93,56.14-3.08,1.76-6.28,3.3-10.83,5.69-.62-4.64-1.3-7.78-1.42-10.94-2.23-60.24-4.38-120.48-6.57-180.71-.89-24.63-1.83-49.25-2.77-73.88-.16-4.3-.94-8.73,4.55-12.78Z"/>
  <path class="st0" d="M991.69,611.43c.66,11.64,1.35,20.88,1.7,30.13,2.9,77.87,5.76,155.74,8.54,233.61.17,4.78,1.75,10.12-4.43,14.76-80.21-46.68-160.9-93.65-243.35-141.63,4.39-3.04,7.32-5.4,10.55-7.26,36.94-21.26,73.92-42.44,110.89-63.63,34.95-20.04,69.9-40.09,104.86-60.1,3.06-1.75,6.25-3.27,11.25-5.88Z"/>
  <path class="st0" d="M2215.19,752.6c-8.77,8.13-228.29,133.59-236.36,135.32-.38-2.51-1.01-4.99-1.11-7.48-1.98-51.24-3.91-102.49-5.84-153.74-1.28-33.94-2.59-67.88-3.79-101.83-.16-4.47-1.39-9.43,4.65-13.41,80.22,46.7,160.91,93.66,242.46,141.13Z"/>
  <path class="st0" d="M2531.29,890.04c-81.37-47.37-161.87-94.23-244.1-142.1,4.02-2.85,6.64-5.03,9.56-6.71,36.37-20.94,72.77-41.81,109.18-62.69,35.82-20.55,71.65-41.09,107.49-61.62,3.09-1.77,6.27-3.38,10.24-5.5.84,3.29,1.8,5.42,1.88,7.59,3.11,88.53,6.16,177.07,9.08,265.61.04,1.33-1.6,2.71-3.31,5.42Z"/>
  <path class="st0" d="M1994.68,583.79c3.38-2.54,5.54-4.42,7.93-5.92,72.17-45.38,144.36-90.72,216.54-136.06,3.64-2.29,7.12-5.22,12.28-2.86v282.03c-4.89-2.36-8.41-3.77-11.65-5.65-48.39-28.07-96.74-56.2-145.1-84.32-23.6-13.72-47.22-27.42-70.81-41.18-2.75-1.61-5.34-3.49-9.2-6.04Z"/>
  <path class="st0" d="M4058.98,609.37c.43,5.43.8,8.62.93,11.82,3.18,84.27,6.34,168.54,9.48,252.81.17,4.56,1.26,9.42-3.14,12.84-7.5-1.96-234.68-133.69-243.51-141.49,3.35-2.29,6.33-4.65,9.58-6.52,61.84-35.52,123.71-70.99,185.58-106.46,10.12-5.8,20.23-11.62,30.37-17.38,2.84-1.61,5.78-3.04,10.72-5.62Z"/>
  <path class="st0" d="M697.87,719.8c-8.06-1.92-224.32-126.82-234.22-134.92-.01-4.7,4.25-5.51,7.12-7.33,28.44-17.99,56.95-35.86,85.44-53.77,42.31-26.59,84.63-53.17,126.95-79.76,1.41-.89,2.81-1.79,4.25-2.64,9.69-5.74,12.27-4.38,12.22,6.88-.36,88.3-.79,176.61-1.22,264.91,0,1.96-.31,3.92-.54,6.62Z"/>
  <path class="st0" d="M2271.62,781.34c2.84.48,4.62.32,5.89,1.06,76.58,44.4,153.11,88.87,231.35,134.32-4.24,3.15-6.88,5.4-9.78,7.23-50.75,31.95-101.54,63.85-152.32,95.75-19.47,12.23-38.94,24.45-58.41,36.67-1.69,1.06-3.37,2.15-5.08,3.18-3.39,2.04-7.2,5.37-10.77,2.31-1.91-1.64-2.02-6.01-2.01-9.15.18-54.32.53-108.64.79-162.97.16-32.66.24-65.32.35-97.98.01-3.21,0-6.43,0-10.42Z"/>
  <path class="st0" d="M3770.39,1055.01c-5.1-2.31-8.1-3.49-10.93-4.98-74.76-39.49-149.5-79.01-224.24-118.55-3.77-1.99-8.12-3.47-9.13-8.5.07-.29.12-.62.22-.94.11-.31.19-.7.42-.87,1.57-1.2,3.08-2.52,4.79-3.5,78.58-44.97,157.18-89.91,235.8-134.82.49-.28,1.28-.03,2.4-.03.49,1.34,1.52,2.84,1.52,4.34-.23,88.5-.54,177.01-.86,267.85Z"/>
  <path class="st0" d="M4042.82,915.49c-3.83,2.81-6.3,4.87-8.99,6.56-71.64,45.05-143.31,90.06-214.99,135.04-3.56,2.23-7.64,6.51-11.52,3.37-2.29-1.85-2.46-7.17-2.45-10.92.23-86.98.62-173.95,1-260.93.01-2.63.26-5.26.49-9.62,4.27,1.88,7.85,3.08,11.05,4.93,38.64,22.37,77.22,44.83,115.81,67.27,33.41,19.43,66.83,38.85,100.22,58.3,2.75,1.6,5.37,3.43,9.38,6.01Z"/>
  <path class="st0" d="M3765.96,717.75c-8.7-1.66-227.73-128.37-235.18-135.45,0-.33-.07-.68.01-.99.08-.31.25-.66.49-.86,1.54-1.25,3.01-2.62,4.68-3.67,73.65-46.27,147.32-92.52,220.99-138.76.84-.53,1.77-.93,2.7-1.28.61-.23,1.29-.28,1.95-.37.33-.04.67-.04.99.02.65.11,1.29.26,3.24.68.28,4.06.86,8.51.84,12.96-.2,80-.47,159.99-.72,239.99-.03,8.97,0,17.93,0,27.73Z"/>
  <path class="st0" d="M734.13,718.71v-273.5c4.02,1.58,6.78,2.37,9.27,3.68,75.73,39.97,151.43,79.99,227.13,120.02,3.5,1.85,7.36,3.47,7.69,9.98-80.33,46.16-161.39,92.46-244.1,139.81Z"/>
  <path class="st0" d="M2234.73,1056.15c-3.86-1.79-6.86-3.02-9.72-4.53-74.46-39.34-148.91-78.69-223.33-118.1-3.98-2.11-8.94-3.38-9.83-8.95,4.86-5.61,233.53-137.09,243.19-139.85,2.17,6.41,2.17,258.38-.32,271.43Z"/>
  <path class="st0" d="M1828.9,1465.45c-48.66,0-97.32,0-145.98,0-2.66,0-5.42.28-7.96-.32-1.64-.39-3.84-1.94-4.18-3.35-.35-1.47.77-4.07,2.08-5,3.78-2.69,8.01-4.74,12-7.14,93.05-56.06,186.1-112.13,279.14-168.2,4.85-2.92,9.65-5.94,14.56-8.76,8.42-4.83,10.97-3.25,11.13,6.77.03,1.67-.02,3.33-.04,5-.63,56.99-1.26,113.98-1.89,170.97-.02,1.67.05,3.34-.08,5-.5,6.49-1.33,7.34-7.8,7.67-2.66.13-5.33,0-8,0-47.66,0-95.32,0-142.97,0,0-.87,0-1.75,0-2.62Z"/>
  <path class="st0" d="M1147.39,26.39c48.31,0,96.63,0,144.94,0,2.66,0,5.4-.26,7.97.27,1.71.35,4.41,1.79,4.49,2.91.14,1.93-1.26,4.06-2.32,5.93-.42.75-1.66,1.03-2.52,1.54-99.92,60.11-199.83,120.24-299.8,180.26-3.45,2.07-6.86,6.62-11.55,3.6-4.43-2.85-2.42-7.96-2.38-12.06.52-57.64,1.19-115.29,1.83-172.93.02-2,.04-4,.12-6,.15-4.02,2.24-6.08,6.29-6.12,2.33-.02,4.66-.03,7-.03,48.65,0,97.29,0,145.94,0v2.62Z"/>
  <path class="st0" d="M2677,26.9c48.31,0,96.62,0,144.93,0,2.66,0,5.4-.23,7.97.31,1.68.36,3.99,1.64,4.42,3.01.45,1.44-.74,3.64-1.71,5.19-.63,1.01-2.16,1.47-3.29,2.15-99.33,59.75-198.65,119.53-298.06,179.16-3.99,2.4-8.39,8.17-13.02,4.24-2.6-2.21-2.39-8.47-2.35-12.9.49-57.31,1.17-114.61,1.81-171.91.03-2.33-.51-4.96.39-6.91.93-2.03,3.03-4.22,5.08-4.86,2.74-.85,5.93-.32,8.93-.29,48.31.5,96.62,1.01,144.93,1.52,0,.42,0,.84,0,1.27Z"/>
  <path class="st0" d="M4055.68,124.02c0-29.65-.06-59.3.03-88.95.03-10.76.38-11.07,11.46-10.96,98.28.91,196.57,1.85,294.85,2.9,3.66.04,8.98-1.88,10.36,3.3,1.54,5.77-4.36,6.56-7.85,8.66-55.63,33.54-111.28,67.05-166.92,100.57-43.09,25.96-86.17,51.92-129.25,77.88-.86.52-1.71,1.03-2.58,1.53-9.82,5.71-12.03,4.46-12.05-6.97-.03-29.32-.01-58.64-.01-87.96.65,0,1.3,0,1.95,0Z"/>
  <path class="st0" d="M290.45,1475.93c-48.99-.54-97.98-1.05-146.97-1.71-3.69-.05-9.02,2.01-10.52-3.04-1.7-5.73,4.22-6.64,7.72-8.74,62.5-37.67,125.03-75.3,187.54-112.95,36.82-22.18,73.62-44.41,110.5-66.49,3.19-1.91,6.76-6.34,10.51-2.84,2.11,1.97,2.49,6.55,2.46,9.95-.5,58.66-1.17,117.31-1.85,175.97-.12,10.75-.63,11.3-11.41,11.19-49.33-.48-98.65-1.04-147.97-1.58,0,.08,0,.16,0,.24Z"/>
  <path class="st0" d="M3516.08,1468.42c-4.78,0-8.7.03-12.62,0-97.56-.85-195.12-1.68-292.68-2.65-3.64-.04-8.91,2.09-10.42-3.15-1.67-5.82,4.16-6.65,7.65-8.75,62.43-37.64,124.88-75.25,187.33-112.86,36.5-21.99,73-43.97,109.5-65.95,1.71-1.03,3.37-2.16,5.14-3.07,5.9-3.04,8.6-1.57,9.19,4.98.12,1.32,0,2.66,0,3.99-.62,58.27-1.23,116.54-1.91,174.81-.05,3.87-.7,7.73-1.17,12.66Z"/>
  <path class="st0" d="M703.91,391.55c-6.78-3.19-14.01-6.53-21.19-9.98-81.94-39.38-163.88-78.77-245.82-118.17-1.8-.87-3.84-1.46-5.32-2.72-1.58-1.34-2.61-3.32-3.89-5.01,1.97-1.41,3.79-3.66,5.95-4.05,4.55-.82,9.28-.75,13.94-.91,42.28-1.48,84.57-2.93,126.85-4.4,38.95-1.35,77.91-2.71,116.86-4.06,2.66-.09,5.33-.27,7.99-.17,6.49.25,7.23,1.01,7.88,7.59.13,1.32.14,2.66.17,3.99.86,41.63,1.7,83.27,2.58,124.9.11,5.05.55,10.17-6.02,12.99Z"/>
  <path class="st0" d="M3481.74,941.03c.31,2.63.75,5.58.97,8.54,4.44,58.12,8.88,116.23,13.28,174.35,2.89,38.19,5.77,76.39,8.52,114.59.24,3.35,2.47,7.98-2.23,9.68-5.14,1.86-6.69-3.09-8.72-6.34-45.75-73.12-91.47-146.27-137.15-219.43-1.55-2.49-2.7-5.23-4.26-8.27,1.99-1.8,3.45-3.61,5.32-4.75,37.27-22.67,74.61-45.24,111.87-67.93,4.02-2.45,7.78-3.71,12.4-.44Z"/>
  <path class="st0" d="M2542.55,1242.46c-.07,7.29-4.05,7.48-8.28,7.63-13.32.46-26.64,1.1-39.96,1.55-69.28,2.34-138.57,4.67-207.85,6.93-7.23.24-14.47.03-22.62.03-.4-4.11-.99-7.65-1.07-11.21-.93-41.65-1.77-83.31-2.68-124.96-.1-4.77-.29-9.45,6.09-12.8,91.54,44,183.88,88.38,276.37,132.83Z"/>
  <path class="st0" d="M3211.13,754.95c-.32-3.45-1.04-5.91-.62-8.15.42-2.19,1.98-4.18,3.07-6.24,39.72-74.72,79.44-149.45,119.21-224.15,1.97-3.7,4.47-7.11,7-11.09,3.54,1.67,6.25,2.79,8.81,4.19,36.82,20.16,73.61,40.38,110.43,60.55,4.14,2.27,8.42,4.29,8.59,9.94-5.07,5.87-245.44,170.34-256.51,174.94Z"/>
  <path class="st0" d="M4076.86,1240.84c0,5.11-1.75,7.1-5.32,7.35-2.66.19-5.32.27-7.99.36-84.57,3.01-169.15,6.01-253.72,9.01-1.66.06-3.33.08-5,.14-4.86.19-7.5-1.86-7.5-7,0-4.33-.34-8.66-.43-12.99-.85-38.64-1.66-77.28-2.52-115.92-.11-5.04-.67-10.18,6.09-13.83,91.74,44.1,184.31,88.6,276.38,132.87Z"/>
  <path class="st0" d="M4089.7,556.56c-1.04-12.64-2.21-25.87-3.22-39.11-6.54-86.37-13.05-172.73-19.58-259.1-.05-.66-.32-1.38-.15-1.98.67-2.36.79-5.77,2.39-6.79,3.08-1.96,5.48.58,7.18,3.33,1.22,1.98,2.49,3.94,3.73,5.92,44.49,71.19,88.97,142.39,133.45,213.58.88,1.41,1.81,2.8,2.63,4.25,4.05,7.12,3.87,8.18-3.35,12.58-36.72,22.32-73.5,44.54-110.21,66.88-3.96,2.41-7.73,3.8-12.87.46Z"/>
  <path class="st0" d="M2555.42,558.23c-1.03-12.5-2.2-25.71-3.21-38.93-4.57-59.8-9.09-119.61-13.63-179.41-2.04-26.91-4.09-53.82-6.12-80.74-.1-1.33-.41-2.74-.08-3.97.39-1.48,1.1-3.68,2.14-3.99,1.61-.47,4.03-.15,5.34.85,1.76,1.35,2.88,3.6,4.12,5.57,45.56,72.9,91.1,145.81,136.64,218.72.71,1.13,1.39,2.28,2.1,3.4,2.57,4.08,2.33,7.51-2.27,9.97-1.17.63-2.28,1.38-3.42,2.07-35.62,21.58-71.25,43.15-106.85,64.76-4.29,2.6-8.43,5.7-14.75,1.7Z"/>
  <path class="st0" d="M144.67,757.75c-.88-3.69-2.05-6.04-1.8-8.22.25-2.17,1.9-4.2,3-6.26,40.04-75.31,80.07-150.61,120.17-225.89,1.81-3.4,4.22-6.49,6.69-10.25,3.76,1.92,6.71,3.34,9.59,4.91,36.22,19.88,72.43,39.77,108.64,59.67,1.75.96,3.62,1.78,5.21,2.96,5.3,3.93,5.32,7.87.14,11.89-1.31,1.02-2.73,1.91-4.11,2.85-78.98,53.93-157.96,107.87-236.96,161.79-2.94,2.01-6.06,3.77-10.57,6.55Z"/>
  <path class="st0" d="M999.25,252.91c4.51-2.86,7.02-1.94,9.01.91,1.34,1.91,2.55,3.9,3.79,5.88,44.84,71.77,89.67,143.54,134.48,215.33,2.07,3.31,3.84,6.82,6.12,10.9-2.97,2.19-5.19,4.09-7.65,5.59-36.16,21.98-72.36,43.88-108.52,65.86-4.09,2.48-8.04,4.93-14.15,1.24-7.79-101.56-15.67-203.96-23.07-305.7Z"/>
  <path class="st0" d="M414.67,943.31c.96,11.45,2.06,23.66,3,35.89,4.63,60.77,9.22,121.54,13.82,182.31,2.01,26.57,4.07,53.13,5.98,79.7.22,3.08,1.96,7.25-2.13,8.89-5.13,2.05-6.88-2.61-8.93-5.89-14.86-23.7-29.65-47.45-44.47-71.17-30-48.02-60-96.03-90-144.05-1.24-1.98-2.54-3.91-3.7-5.94-4.04-7.08-3.84-8.24,3.35-12.61,36.72-22.31,73.5-44.52,110.21-66.84,3.92-2.39,7.64-4.08,12.88-.3Z"/>
  <path class="st0" d="M1036.64,917.89c84.56-57.74,169.21-115.53,253.23-172.9,4.83,2.25,5.32,4.96,3.98,8.11-1.04,2.44-2.38,4.76-3.63,7.12-39.41,74.13-78.81,148.27-118.27,222.37-2.12,3.98-4.76,7.68-7.41,11.9-3.94-1.94-6.93-3.28-9.8-4.85-36.23-19.86-72.43-39.77-108.65-59.64-4.37-2.4-9.25-4.3-9.45-12.11Z"/>
  <path class="st0" d="M1817.24,1015.2c3.57-2.45,5.92-4.24,8.43-5.76,35.88-21.79,71.78-43.54,107.67-65.32,4.29-2.6,8.46-5.73,14.5-1.11,7.67,101.49,15.39,203.67,23.07,305.23-4.25,2.71-6.89,2.4-8.97-.54-1.54-2.17-2.9-4.47-4.31-6.73-44.67-71.48-89.34-142.96-133.98-214.46-2.08-3.33-3.89-6.84-6.41-11.31Z"/>
  <path class="st0" d="M2823.59,744.51c5.49,3.66,4.18,6.95,2.32,10.41-5.84,10.84-11.63,21.71-17.41,32.58-34.7,65.23-69.37,130.48-104.11,195.69-1.97,3.69-4.48,7.08-6.96,10.96-3.9-1.97-6.89-3.36-9.78-4.95-36.19-19.84-72.37-39.7-108.54-59.57-1.75-.96-3.58-1.83-5.17-3.01-5.38-3.98-5.45-7.84-.27-11.83,1.58-1.22,3.29-2.26,4.94-3.39,78.62-53.7,157.25-107.4,235.88-161.08,2.97-2.03,6.06-3.88,9.11-5.82Z"/>
  <path class="st0" d="M4232.1,992.44c-3.58-1.67-6.02-2.64-8.31-3.89-37.11-20.33-74.19-40.7-111.29-61.04-4.13-2.26-8.49-4.27-8.35-11.21,1.99-1.52,4.49-3.61,7.16-5.43,79.51-54.32,159.02-108.64,238.6-162.84,2.98-2.03,6.1-6.72,10.31-3.18,4.2,3.54.44,7.38-1.32,10.71-40.3,75.91-80.66,151.8-121.04,227.67-1.53,2.88-3.46,5.55-5.76,9.21Z"/>
  <path class="st0" d="M1677.35,758.26c-.57-4.98-1.39-7.65-1.01-10.15.33-2.18,1.99-4.16,3.08-6.22,39.68-74.64,79.35-149.28,119.04-223.91q6.41-12.06,18.52-5.42c35.88,19.7,71.75,39.43,107.65,59.1,4.42,2.42,9.12,4.49,8.59,11.89-84.24,57.52-169.04,115.42-255.86,174.7Z"/>
  <path class="st0" d="M3494.01,253.49c2.25-1.34,4.36-3.44,6.77-3.87,4.56-.81,9.28-.75,13.94-.91,81.57-2.84,163.14-5.68,244.72-8.48,14.71-.51,14.72-.44,15.05,14.31.91,40.3,1.81,80.6,2.74,120.91.12,5.01.88,10.17-5.91,14.28-91.64-44.05-184.2-88.53-276.76-133.02-.19-1.07-.37-2.15-.56-3.22Z"/>
  <path class="st0" d="M733.12,1109.95c92.21,44.33,184.56,88.73,276.36,132.87.22,5.04-1.51,7.04-5.1,7.34-2.65.22-5.32.3-7.99.4-84.58,3.01-169.17,6.03-253.76,8.96-3.84.13-7.71-.49-11.9-.78-.33-3.58-.74-6.18-.8-8.78-.91-42.31-1.76-84.62-2.66-126.93-.1-4.71-.48-9.44,5.83-13.07Z"/>
  <path class="st0" d="M2236.77,391.23c-91.9-44.1-184.48-88.54-276.43-132.9.16-5.24,2.33-6.93,5.71-7.27,2.98-.3,5.98-.47,8.98-.57,67.6-2.28,135.2-4.53,202.8-6.81,17.32-.58,34.63-1.34,51.95-1.81,9.81-.27,10.15.16,10.36,9.89.91,42.31,1.77,84.62,2.7,126.93.1,4.77.35,9.44-6.05,12.54Z"/>
  <path class="st0" d="M2234.5,1111.36c.45,4.41.93,6.93.94,9.45.21,41.97.38,83.95.5,125.92.03,10.76-.44,11.22-11.29,11.21-61.96-.02-123.92-.08-185.88-.13-3.25,0-6.5,0-11.81,0,1.61-3.85,2.11-6.29,3.51-8.02,1.41-1.74,3.68-2.8,5.61-4.11,63.34-43.09,126.67-86.17,190.02-129.24,2.15-1.46,4.44-2.69,8.4-5.08Z"/>
  <path class="st0" d="M4089.39,944.05c4.55,2.01,6.99,2.84,9.19,4.1,36.45,20.75,72.88,41.54,109.3,62.34,1.73.99,4.01,1.7,4.96,3.21,1.21,1.93,1.98,4.63,1.72,6.85-.25,2.14-2.02,4.13-3.18,6.14-30.67,53.02-61.35,106.04-92.06,159.04-1.92,3.32-4.18,6.45-6.03,9.29-5.73-1.02-5.65-4.66-5.93-7.9-.94-10.94-1.82-21.9-2.63-32.85-4.33-59.1-8.62-118.2-12.93-177.31-.74-10.21-1.5-20.42-2.42-32.91Z"/>
  <path class="st0" d="M3234.95,807.25c4.04,0,6.56-.49,8.78.12,2.84.79,5.45,2.44,8.15,3.75,67.77,32.73,135.54,65.46,203.29,98.21,2.62,1.27,5.15,2.73,8.61,4.57-1.82,1.98-2.8,3.69-4.27,4.55-37.63,22.08-75.29,44.1-113.01,66.03-7.15,4.15-8.31,3.82-12.54-3.51-31.97-55.38-63.87-110.8-95.75-166.22-.97-1.69-1.58-3.59-3.26-7.51Z"/>
  <path class="st0" d="M2555.83,946.12c3.34,1.37,5.49,2,7.39,3.08,37.04,21.07,74.05,42.17,111.04,63.32,8.48,4.85,8.7,5.57,3.91,13.86-31.48,54.48-63,108.93-94.55,163.36-1.43,2.47-3.25,4.72-4.78,6.9-5.87-1.17-5.63-5.29-5.95-8.74-.92-9.94-1.62-19.91-2.34-29.87-3.59-49.48-7.16-98.95-10.75-148.43-1.3-17.93-2.67-35.86-3.94-53.79-.2-2.82-.03-5.67-.03-9.69Z"/>
  <path class="st0" d="M2572.66,584.72c3.42-2.43,5.17-3.87,7.1-5,36.47-21.34,72.97-42.64,109.46-63.95,1.15-.67,2.34-1.27,3.45-2,4.37-2.87,7.47-1.5,9.75,2.82.47.88,1.03,1.71,1.53,2.58,31.72,55.07,63.43,110.15,95.13,165.23.97,1.69,1.77,3.49,2.66,5.25-3.3,5.19-7.04,2.99-10.57,1.3-13.21-6.31-26.37-12.71-39.55-19.07-56.92-27.49-113.84-54.97-170.74-82.48-2.32-1.12-4.48-2.54-8.22-4.68Z"/>
  <path class="st0" d="M1927.03,303.94c1.02,2.83,2.73,5.6,2.96,8.49,2.8,35.53,5.37,71.09,8.01,106.63,3.09,41.53,6.2,83.05,9.27,124.58.24,3.22.3,6.45.51,10.91-3.34-1.12-5.58-1.48-7.43-2.53-37.35-21.24-74.68-42.52-111.96-63.88-7.93-4.54-8.19-5.45-3.71-13.2,31.82-55.09,63.7-110.15,95.61-165.19,1.13-1.95,2.68-3.65,4.03-5.46.9-.12,1.81-.23,2.71-.35Z"/>
  <path class="st0" d="M4336.07,688.07c-3.41,4.65-6.56,3.15-9.6,1.72-5.73-2.69-11.41-5.48-17.11-8.23-64.49-31.15-128.98-62.3-193.45-93.48-2.59-1.25-5.05-2.78-8.97-4.97,3.61-2.48,5.86-4.26,8.32-5.7,35.94-21.04,71.9-42.05,107.85-63.05,1.44-.84,2.91-1.62,4.34-2.48,3.46-2.1,6.33-1.53,8.53,1.89,1.08,1.68,2.07,3.42,3.07,5.15,31.09,53.99,62.18,107.97,93.25,161.97,1.31,2.28,2.45,4.66,3.77,7.18Z"/>
  <path class="st0" d="M397.23,916.42c-3.06,2.34-4.72,3.9-6.64,5.02-36.8,21.55-73.63,43.07-110.48,64.53-8.21,4.78-9.15,4.54-13.96-3.8-31.62-54.84-63.19-109.7-94.75-164.57-1.14-1.99-1.99-4.14-3.66-7.67,3.11-.44,5.66-1.56,7.65-.93,4.09,1.29,7.91,3.48,11.81,5.36,66.89,32.32,133.78,64.64,200.66,96.98,2.84,1.37,5.56,3.01,9.36,5.08Z"/>
  <path class="st0" d="M391.76,303.84c6.53,4.18,5.45,9.64,5.82,14.38,2.05,25.88,3.89,51.77,5.78,77.66,3.6,49.46,7.2,98.91,10.75,148.37.23,3.16.03,6.34.03,10.83-3.67-1.53-6.12-2.26-8.29-3.5-36.73-20.91-73.44-41.85-110.12-62.86-8.48-4.85-8.65-5.47-3.79-13.88,31.46-54.46,62.96-108.9,94.49-163.32,1.45-2.5,3.28-4.77,5.32-7.68Z"/>
  <path class="st0" d="M1039.87,585.2c3.27-2.41,5.18-4.11,7.35-5.37,36.49-21.36,73.01-42.7,109.54-63.98,8.43-4.91,9.25-4.75,13.98,3.44,31.63,54.79,63.19,109.61,94.77,164.42.5.87,1.23,1.7,1.4,2.63.33,1.83.98,5.01.34,5.33-1.8.91-4.26,1.06-6.34.75-1.89-.28-3.65-1.54-5.45-2.41-68.95-33.3-137.91-66.6-206.85-99.93-2.57-1.24-4.99-2.77-8.74-4.88Z"/>
  <path class="st0" d="M3482.18,553.55c-4.56-2.01-7-2.85-9.21-4.1-36.45-20.74-72.89-41.52-109.29-62.34-9.28-5.31-9.36-5.73-3.78-15.38,30.99-53.6,62.01-107.18,93.06-160.75,1.76-3.03,3.87-5.86,5.65-8.53,6.44,1.83,5.56,6.39,5.85,10.15,1.88,23.9,3.67,47.8,5.45,71.7,3.82,51.46,7.61,102.92,11.4,154.38.31,4.25.5,8.51.87,14.87Z"/>
  <path class="st0" d="M1701.64,810.25c4.88-4.3,8.63-.98,12.26.76,30.31,14.54,60.57,29.19,90.85,43.81,38.67,18.67,77.34,37.34,115.99,56.04,2.63,1.27,5.16,2.76,8.53,4.58-1.65,1.95-2.55,3.76-4.01,4.61-37.62,22.08-75.27,44.09-112.97,66.01-7.15,4.16-8.44,3.79-12.6-3.42-31.96-55.36-63.85-110.76-95.71-166.18-1.09-1.9-1.58-4.14-2.34-6.21Z"/>
  <path class="st0" d="M1022.6,945.9c4.47,2.21,7.13,3.36,9.63,4.79,35.88,20.44,71.75,40.92,107.61,61.4,1.73.99,3.45,2.01,5.16,3.04,3.06,1.85,3.85,4.46,2.33,7.66-.86,1.8-1.91,3.51-2.91,5.24-31.02,53.62-62.04,107.24-93.07,160.85-1.62,2.8-3.39,5.52-5.05,8.2-5.77-.88-6.09-4.47-6.37-8.2-1.19-15.94-2.47-31.88-3.65-47.82-4.58-61.78-9.13-123.56-13.66-185.34-.19-2.55-.02-5.12-.02-9.83Z"/>
  <path class="st0" d="M3562.72,1255.25c-1.21-6.84,3.59-8.39,6.91-10.66,29.67-20.29,59.42-40.45,89.15-60.66,33.3-22.64,66.59-45.31,99.89-67.94,2.69-1.82,5.47-3.5,8.98-5.73.91,2.65,1.99,4.36,2,6.08.24,43.6.42,87.2.48,130.81.01,8.18-.89,9.04-9.36,9.04-63.91,0-127.81-.08-191.72-.17-1.94,0-3.89-.45-6.34-.76Z"/>
  <path class="st0" d="M735.44,389.94c-.39-5.08-.79-7.95-.81-10.82-.21-41.33-.37-82.66-.54-123.99,0-1.67.04-3.33.02-5-.04-4.64,2.46-6.6,6.88-6.59,1.67,0,3.33-.05,5-.05,61.66.07,123.33.14,184.99.2,3.29,0,6.57,0,11.81,0-1.36,3.55-1.72,6.07-3.11,7.7-1.67,1.97-4.2,3.23-6.4,4.72-62.83,42.73-125.66,85.46-188.51,128.17-2.4,1.63-4.97,3.02-9.33,5.64Z"/>
  <path class="st0" d="M495.19,1257.4c-.6-7.3,4.15-8.77,7.53-11.07,44.26-30.19,88.58-60.3,132.88-90.43,18.99-12.91,37.96-25.84,56.98-38.72,2.36-1.6,4.9-2.92,8.31-4.94.61,3,1.29,4.8,1.3,6.6.26,42.93.49,85.87.64,128.8.03,10.05-.54,10.57-10.91,10.56-62.57-.02-125.14-.08-187.72-.17-2.88,0-5.76-.4-9.01-.64Z"/>
  <path class="st0" d="M4008.99,242.45c1.06,6.67-3.3,8.14-6.41,10.28-16.48,11.32-33.04,22.52-49.57,33.76-46.56,31.67-93.12,63.34-139.69,94.99-2.87,1.95-5.92,3.64-10.04,6.16-.6-3.49-1.18-5.31-1.19-7.13-.21-42.99-.39-85.97-.49-128.96-.02-9.35.69-10.03,10.43-10.03,62.98.03,125.96.12,188.94.23,2.59,0,5.18.44,8.03.71Z"/>
  <path class="st0" d="M2474.92,243.88c.5,7.47-4.33,8.87-7.68,11.17-36.32,24.82-72.71,49.54-109.08,74.27-26.73,18.18-53.46,36.36-80.21,54.5-2.58,1.75-5.37,3.19-9.23,5.46-.41-4.25-.86-6.77-.87-9.29-.23-41.67-.41-83.33-.59-125,0-2,0-4,.08-6,.14-3.56,2.06-5.5,5.57-5.77,1.99-.15,3.99-.18,5.99-.18,62,.1,124,.21,185.99.35,3.23,0,6.46.3,10.03.47Z"/>
</svg>