<?xml version="1.0" encoding="UTF-8"?>
<svg id="Layer_0_xA0_Image" xmlns="http://www.w3.org/2000/svg" version="1.1" viewBox="0 0 2732 2048">
  <!-- Generator: Adobe Illustrator 30.2.1, SVG Export Plug-In . SVG Version: 2.1.1 Build 1)  -->
  <defs>
    <style>
      .st0 {
        fill: #4aa2b8;
      }
    </style>
  </defs>
  <path class="st0" d="M1474,0c2.4,2.21,4.62,4.68,7.23,6.6,71.67,52.72,143.41,105.34,215.04,158.12,4.7,3.46,9.64,5.56,15.25,6.8,76.73,16.99,153.43,34.08,230.14,51.15,1.92.43,3.8,1.03,5.42,1.47,2.25,4.91-1.41,7.27-3.47,9.95-23.95,31.18-47.99,62.3-72.08,93.38-1.52,1.96-3.62,3.48-4.87,4.66-6.5-4.65-11.97-8.86-17.71-12.63-70.21-46.06-140.42-92.1-210.76-137.96-4.91-3.2-10.56-5.72-16.22-7.24-69.17-18.48-138.4-36.7-207.61-55-1.61-.43-3.18-1.05-4.82-1.3-5.16-.81-6.95-3.9-7.48-8.94-3.28-31.14-6.81-62.25-10.3-93.37-.4-3.58-1.08-7.13-1.75-11.44-3.49,1.17-6.26,1.96-8.93,3.01-42.19,16.47-84.62,32.36-126.46,49.69-24.26,10.05-47.6,22.36-71.3,33.76-14.99,7.21-29.84,14.73-44.89,21.82-2.47,1.17-5.82,1.64-8.47,1.07-28.96-6.23-57.87-12.74-86.79-19.16-.97-.22-2.13-.02-2.92-.5-1.04-.63-2.58-1.79-2.51-2.6.13-1.41,1.07-2.98,2.14-3.98.88-.83,2.47-.87,3.69-1.41,62.15-27.45,124.3-54.91,186.43-82.42,2.11-.93,4-2.35,5.99-3.54,79.33,0,158.67,0,238,0Z"/>
  <path class="st0" d="M1260,2048c-2.43-2.18-4.69-4.57-7.3-6.5-71.11-52.3-142.28-104.54-213.38-156.85-4.91-3.61-10.01-5.9-16.09-7.24-77.38-17-154.68-34.31-232-51.59-1.49-.33-2.85-1.28-4.21-1.91,2.84-8.41,75.99-103.03,81.96-106.69,5.82,4.18,11.27,8.4,17.02,12.17,70.18,46.04,140.38,92.06,210.7,137.9,4.9,3.2,10.57,5.67,16.23,7.19,69.45,18.61,138.96,36.99,208.46,55.42,10.57,2.8,10.72,2.78,11.98,13.73,3.57,31.1,6.99,62.21,10.5,93.32.25,2.24.72,4.46,1.25,7.7,3.63-1.2,6.74-2.08,9.73-3.24,42.17-16.48,84.53-32.5,126.4-49.71,20.89-8.59,40.92-19.3,61.29-29.16,18.26-8.84,36.39-17.94,54.73-26.61,2.38-1.12,5.78-.93,8.49-.35,28.64,6.11,57.24,12.43,85.85,18.68,1.29.28,2.71.25,3.88.78,2.81,1.26,3.1,4.83.4,6.31-2.31,1.27-4.99,1.82-7.42,2.9-60.29,26.66-120.58,53.34-180.84,80.07-2.02.9-3.75,2.46-5.61,3.71h-242Z"/>
  <path class="st0" d="M2307.43,1329.74c-9.85-.68-121.49-40.73-126.53-44.7,7.07-25.59,14.11-50.79,21-76.04,16.99-62.32,33.85-124.67,50.91-186.96,1.79-6.54,2.28-12.89,1.86-19.66-2.34-37.91-4.3-75.84-6.4-113.76-1.88-33.93-3.74-67.86-5.65-101.79-.51-9.04-.61-9.11,7.54-12.82,27.88-12.7,55.79-25.34,83.68-38.02,3.32-1.51,6.59-3.11,10.56-4.99-1.33-2.22-2.23-4.27-3.59-5.93-29.56-36.09-58.72-72.52-88.96-108.03-15.95-18.74-33.77-35.89-50.82-53.69-12.43-12.98-25.08-25.76-37.39-38.86-1.85-1.97-3.07-5.14-3.34-7.88-2.92-28.83-5.59-57.68-8.34-86.52-.16-1.65-.71-3.31-.58-4.93.25-3.19,3.44-4.59,5.72-2.39,2.37,2.29,4.18,5.16,6.4,7.63,79.4,88.59,158.74,177.22,238.39,265.58,5.28,5.86,5.88,10.47,3.5,17.62-39.62,119.1-78.95,238.3-118.43,357.45-1.93,5.81-2.43,11.38-1.8,17.54,3.81,37.11,7.15,74.27,10.68,111.4,3.85,40.45,7.74,80.9,11.57,121.36.24,2.55.03,5.15.03,8.39Z"/>
  <path class="st0" d="M1367.96,2012.63c-2.66-8.74.55-125.93,3.32-134.66,39.26.23,78.32-3.37,117.46-4.81,32.97-1.21,65.9-3.3,98.85-4.92,19.64-.96,39.3-1.58,58.92-2.77,4.86-.3,9.82-1.72,14.41-3.48,66.2-25.5,132.34-51.16,198.5-76.77.93-.36,1.86-.74,2.79-1.09q10.48-3.98,17.75,3.96c20.23,22.15,40.44,44.31,60.72,66.42,2.45,2.67,5.24,5.04,8.35,8,1.4-1.7,2.98-3.26,4.15-5.08,25.18-39.27,50.78-78.29,75.26-117.99,12.21-19.81,22.43-40.85,33.43-61.4,9.11-17.01,17.94-34.18,27.21-51.1,1.27-2.32,4.13-4.2,6.68-5.33,26.79-11.89,53.66-23.58,80.5-35.34.91-.4,1.75-1.34,2.63-1.35,1.49-.02,3.6.01,4.3.91.75.97.71,3.23.09,4.46-1.47,2.96-3.59,5.6-5.26,8.47-59.38,102.3-118.82,204.56-177.93,307.01-4.22,7.32-8.74,9.92-17.18,9.86-124.65-.92-249.31-1.44-373.97-2.19-7.15-.04-13.61,1.26-20.21,4.14-70.84,30.88-141.78,61.52-212.71,92.2-2.6,1.12-5.35,1.91-8.07,2.86Z"/>
  <path class="st0" d="M749.34,1836.97c19.5,5.14,37.8,9.99,56.11,14.78,27.7,7.25,55.29,15.04,83.17,21.51,21.37,4.96,43.12,8.36,64.73,12.26,21.29,3.83,42.64,7.3,63.9,11.25,2.63.49,5.4,2.47,7.25,4.53,19.57,21.84,38.97,43.83,58.43,65.77.66.74,1.8,1.24,2.1,2.07.51,1.43,1.17,3.37.58,4.47-.54,1.01-2.61,1.31-4.06,1.68-.52.14-1.21-.51-1.85-.65-97.01-20.91-194.02-41.81-291.04-62.71-21.81-4.7-43.57-9.65-65.48-13.88-6.79-1.31-10.04-4.23-12.14-10.87-22.86-72.41-46.05-144.71-69.15-217.04-15.3-47.9-30.66-95.79-45.84-143.72-1.65-5.22-4.21-9.52-7.84-13.61-52.83-59.62-105.53-119.35-158.24-179.07-.83-.94-1.34-2.16-2.56-4.15,2.59-1.36,4.67-2.9,7-3.59,38.96-11.52,77.95-22.94,116.95-34.31,1.8-.52,3.8-.34,4.76-.41,7.35,19.61,14.38,38.51,21.52,57.37,25,66.03,49.97,132.08,75.19,198.03,2.21,5.78,5.47,11.44,9.36,16.24,45.1,55.68,90.43,111.17,135.68,166.73,8.47,10.39,7.28,8.19,1.26,18.89-14.71,26.13-29.59,52.16-44.39,78.24-1.62,2.86-3.11,5.81-5.44,10.17Z"/>
  <path class="st0" d="M404.24,687.64c0,4.37-.17,7.65.02,10.91,2.65,45.56,4.89,91.15,8.26,136.66,1.52,20.54,5.33,40.91,8.06,61.36,2.43,18.15,4.79,36.31,7.22,54.47.4,2.95,1.42,5.88,1.41,8.82-.01,3.11-.09,6.69-1.57,9.25-14.81,25.67-29.87,51.19-44.99,76.68-1.02,1.72-3.13,2.78-4.73,4.15-1.03-1.8-2.78-3.52-2.98-5.41-5.15-50.02-10.07-100.07-15.19-150.09-4.98-48.7-10.18-97.38-15.22-146.08-2.33-22.53-4.21-45.1-6.94-67.58-.81-6.63,1.2-10.23,6.43-13.96,55.59-39.67,111-79.59,166.46-119.45,47.07-33.83,94.11-67.71,141.25-101.44,4.45-3.18,7.77-6.92,10.54-11.64,40.36-68.62,80.86-137.15,121.35-205.68.64-1.07,1.56-1.98,3.33-4.18,2.88,3.36,5.58,6,7.68,9.05,20.71,30.23,41.32,60.53,61.93,90.83,2.56,3.76,4.96,7.63,7.34,11.32-15.95,10.17-29.12,22.32-43.17,33.32-13.9,10.89-27.57,22.07-41.33,33.13-43.38,34.84-86.8,69.63-130.06,104.63-4.3,3.48-8.25,7.79-11.26,12.43-38.62,59.52-77.03,119.17-115.5,178.79-1.26,1.96-2.73,3.81-3.78,5.88-2.49,4.89-5.8,6.03-11.39,4.82-28.63-6.19-57.37-11.88-86.08-17.72-5.43-1.1-10.89-2.08-17.09-3.25Z"/>
  <path class="st0" d="M1367.57,36.26c.61,2.43,1.69,4.59,1.61,6.7-1.54,42.77-2.23,85.57-4.09,128.55-9.95,0-18.48-.32-26.97.05-46.93,2.09-93.86,4.31-140.78,6.58-36.61,1.77-73.21,3.56-109.8,5.64-4.85.27-9.79,1.79-14.37,3.55-66.81,25.73-133.56,51.62-200.33,77.44-11.15,4.31-9.3,5.29-18.35-4.61-20.23-22.14-40.46-44.28-60.7-66.41-2.23-2.44-4.55-4.82-7.5-7.94-2,2.67-3.85,4.86-5.38,7.25-24.64,38.42-49.37,76.78-73.74,115.37-5.85,9.26-10.44,19.31-15.64,28.98-15.13,28.15-30.21,56.33-45.52,84.37-1.29,2.36-3.92,4.51-6.43,5.62-26.8,11.83-53.72,23.39-80.55,35.15-2.8,1.23-5.25,3.15-8.64-.9,2.08-3.56,4.34-7.42,6.59-11.3,20.73-35.73,41.46-71.46,62.19-107.18,38.79-66.84,77.7-133.61,116.18-200.64,3.88-6.76,7.95-9.01,15.58-8.96,110.96.84,221.93,1.37,332.89,1.93,17.66.09,35.86,2.63,52.81-.84,16.6-3.4,31.92-13.01,47.8-19.91,59.87-25.99,119.74-51.98,179.63-77.95.58-.25,1.28-.21,3.51-.55Z"/>
  <path class="st0" d="M2331.13,1360.97c-.62-12.66-1.1-24.54-1.79-36.41-1.8-30.93-3.17-61.9-5.71-92.77-1.99-24.2-5.36-48.29-8.3-72.41-2.41-19.83-4.07-39.84-8-59.38-2.43-12.12.29-21.29,6.56-31.34,13.39-21.46,25.58-43.67,38.4-65.5,1.03-1.76,3.18-4.14,4.73-4.08,3.63.14,2.84,3.59,3.1,6.18,4.36,42.74,8.77,85.48,13.16,128.21,3.57,34.79,7.09,69.58,10.67,104.37,4.44,43.07,8.74,86.15,13.56,129.18.82,7.33-1.32,11.4-7.18,15.6-101.84,72.94-203.51,146.13-305.3,219.14-5.55,3.98-9.75,8.61-13.22,14.52-39.96,68.08-80.13,136.04-120.26,204.01-.66,1.11-1.61,2.05-3.39,4.26-2.59-2.93-5.13-5.27-7.04-8.05-22.24-32.41-44.41-64.88-66.52-97.38-1.39-2.05-2.17-4.51-2.91-6.07,6.2-4.53,11.64-8.19,16.73-12.28,65.75-52.75,131.49-105.52,197.1-158.45,4.56-3.68,8.68-8.29,11.87-13.2,38.99-60.08,77.76-120.3,116.6-180.48,6.33-9.8,6.34-9.74,17.49-7.44,29.67,6.12,59.35,12.22,89.03,18.27,3.17.65,6.42.91,10.58,1.48Z"/>
  <path class="st0" d="M2307.15,718.7c-6.62,5.09-121.74,38.92-129.28,38.35-2.14-6.68-3.96-13.35-6.39-19.78-29.83-78.8-59.7-157.59-89.76-236.3-1.97-5.17-4.97-10.18-8.46-14.49-44.29-54.62-88.75-109.09-133.17-163.6-2.1-2.58-4.08-5.29-6.31-7.75-2.92-3.23-2.97-6.44-.63-9.97,1.1-1.66,1.97-3.48,2.95-5.22,14.8-26.08,29.6-52.15,44.39-78.24,1.62-2.86,3.12-5.78,5.09-9.42-3.46-1.05-6.24-1.98-9.07-2.72-44.13-11.57-88.14-23.63-132.45-34.44-22.28-5.43-45.11-8.64-67.71-12.71-19.64-3.54-39.35-6.76-58.96-10.46-2.6-.49-5.28-2.61-7.14-4.69-19.34-21.59-38.51-43.33-57.75-65.03-1.1-1.24-2.62-2.22-3.36-3.63-1.44-2.76-.02-4.51,2.79-4.92,1.23-.18,2.59.42,3.89.7,117.19,25.23,234.38,50.47,351.57,75.71,1.63.35,3.25,1.08,4.87,1.05,7.58-.15,9.89,4.75,11.83,10.98,9.03,28.93,18.38,57.75,27.59,86.62,28.85,90.41,57.73,180.82,86.44,271.28,2.17,6.84,5.5,12.53,10.26,17.9,51.72,58.37,103.27,116.89,154.84,175.39,1.47,1.67,2.63,3.6,3.93,5.4Z"/>
  <path class="st0" d="M427.85,719.1c1.75-.12,3.15-.62,4.24-.23,40.16,14.27,80.29,28.62,120.39,43.04,1.12.4,1.91,1.72,2.26,2.05-2.9,9.41-5.86,18.12-8.27,26.97-20.93,76.78-41.62,153.63-62.8,230.34-3,10.85-3.75,21.47-3.11,32.52,3.35,58.22,6.53,116.44,9.77,174.66.78,13.94,1.55,27.88,2.39,42.84-34.14,15.56-67.96,30.96-102.55,46.73,1.92,2.72,3.24,4.87,4.82,6.8,28.95,35.31,57.74,70.74,87,105.78,8.94,10.71,19.2,20.32,28.81,30.48,17.41,18.4,34.77,36.84,52.18,55.24,2.29,2.42,4.99,4.48,7.01,7.09,1.9,2.47,4.21,5.33,4.52,8.21,3.24,29.79,6.08,59.62,9.11,89.43.29,2.87.44,5.35-4.03,6.5-2.7-3.04-5.7-6.43-8.72-9.79-78.76-87.84-157.43-175.76-236.44-263.38-5.92-6.56-7.24-11.81-4.42-20.25,39.3-117.83,78.18-235.79,117.31-353.67,2.36-7.12,3.28-14.05,2.54-21.52-4.55-45.75-8.92-91.51-13.29-137.28-3.1-32.5-6.12-65.01-9.12-97.52-.14-1.54.23-3.13.39-5.06Z"/>
  <path class="st0" d="M1469.91,1713.96c-1.96.69-3.93,1.98-5.89,1.98-26.98-.08-53.96-.29-80.93-.65-2.56-.03-5.17-1.12-7.65-2.02-106.64-38.89-213.26-77.82-319.88-116.75-2.78-1.02-5.5-2.22-7.4-2.99-1.95-6.2-3.26-11.63-5.34-16.76-36.54-90.08-73.07-180.16-109.97-270.09-3.31-8.08-2.76-13.81,2.25-20.95,20.29-28.89,39.94-58.22,59.81-87.41,1.82-2.67,2.97-6.18,6.91-5.27,14.15,49.08,28.22,97.87,42.29,146.65,7.47,25.9,14.77,51.86,22.62,77.65,1.69,5.54,4.62,11.1,8.29,15.57,46.68,56.93,93.54,113.7,140.57,170.34,3.02,3.64,7.39,6.79,11.78,8.58,78.88,32.26,157.85,64.27,236.79,96.37,2.02.82,3.85,2.12,5.76,3.19,0,.85,0,1.69,0,2.54Z"/>
  <path class="st0" d="M1856.45,1522.79c-2.33,2.15-4.02,4.09-6.06,5.55-21.13,15.13-42.28,30.24-63.53,45.2-2.37,1.67-5.31,2.69-8.14,3.5-109.17,31.26-218.36,62.44-327.51,93.74-5.47,1.57-9.99,2.63-13.73-3.36-1.43-2.3-4.84-3.39-7.39-4.97-82.91-51.54-165.78-103.16-248.83-154.47-7.05-4.36-9.73-9.15-9.87-17.51-.58-34.98-2.04-69.95-3.09-104.93-.1-3.38-1.87-7.44,3.22-9.94,4.03,3.46,8.05,7.23,12.38,10.6,56.81,44.21,113.68,88.34,170.46,132.59,5.09,3.97,10.44,6.75,16.75,8.36,70.65,18.1,141.25,36.36,211.84,54.69,5.95,1.55,11.5,1.73,17.59.21,82.07-20.45,164.2-40.67,246.31-60.99,2.82-.7,5.6-2.35,9.6,1.73Z"/>
  <path class="st0" d="M972.98,946.43c-2.79,7.01-5.53,13.37-7.88,19.87-24.01,66.36-47.92,132.76-72.01,199.09-2.22,6.11-2.99,12.09-2.58,18.54,3.39,53.18,6.62,106.38,9.9,159.57,1.25,20.28,2.33,40.57,3.97,60.82.36,4.4,2.07,9.1,4.42,12.88,44.51,71.94,89.21,143.76,133.86,215.61,1.5,2.41,2.82,4.94,4.21,7.39-4.95,4.15-7.49.54-10.21-1.48-17.66-13.09-35.06-26.56-53.01-39.24-8.36-5.9-14.68-13.09-20.31-21.48-60.9-90.7-121.98-181.28-182.99-271.9-2.21-3.28-4.27-6.65-5.71-8.9,2.1-6.18,4.14-11.02,5.39-16.06,23.52-94.99,47.04-189.98,70.19-285.06,1.92-7.87,5.78-11.56,13.1-14.11,33.95-11.83,67.73-24.14,101.54-36.35,2.88-1.04,5.58-2.56,8.12.79Z"/>
  <path class="st0" d="M1094.07,729.78c-5.36,3.23-10.3,5.9-14.92,9.03-59.3,40.15-118.52,80.41-177.86,120.51-5.37,3.63-9.58,7.94-13.05,13.42-38.88,61.32-77.85,122.58-116.96,183.76-3.52,5.5-5.48,11-5.93,17.58-3.03,44.86-6.39,89.7-9.63,134.54-2.88,39.86-5.72,79.73-8.63,119.59-.14,1.89-.7,3.74-1.39,7.26-2.56-1.95-4.72-2.81-5.53-4.37-1.36-2.61-1.82-5.68-2.72-8.54-7.2-22.86-14.47-45.69-21.56-68.59-.86-2.77-1.14-5.86-1.04-8.77,2.42-70.58,4.93-141.16,7.42-211.74,1.41-39.95,2.82-79.9,4.28-119.85.22-5.97.71-11.92,1.03-17.1,5.03-3.51,9.56-6.17,13.52-9.51,74.18-62.42,148.4-124.78,222.24-187.6,7.88-6.7,14.53-7.9,24.16-4.91,33.06,10.26,66.38,19.67,99.62,29.33,3.17.92,6.76,1.01,6.92,5.95Z"/>
  <path class="st0" d="M926.2,545.72c14.17-.81,28.35-1.46,42.51-2.47,42.53-3.02,85.06-6.17,127.59-9.28,43.86-3.21,87.69-6.7,131.58-9.52,21.38-1.37,15-4,27.9,12.45,20.77,26.48,41.23,53.2,61.89,79.76,2.1,2.7,4.34,5.07,2.33,8.25-17.72-.8-34.91-1.74-52.1-2.32-60.94-2.05-121.89-4.03-182.84-5.82-4.5-.13-9.33.79-13.53,2.44-69.14,27.09-138.19,54.41-207.31,81.53-5.18,2.03-9.08,5.11-12.61,9.31-54.88,65.31-109.84,130.54-164.82,195.77-1.21,1.44-2.79,2.57-4.33,3.95-4.63-3.11-2.64-6.59-1.51-9.91,5.56-16.4,11.91-32.57,16.52-49.23,5.26-19.01,14.88-34.99,27.04-50.39,64.45-81.57,128.31-163.6,192.38-245.47,2.85-3.64,5.79-7.21,8.69-10.82.21.59.42,1.19.62,1.78Z"/>
  <path class="st0" d="M1413.84,1424.22c29,1.09,56.21,2.21,83.43,3.1,49.95,1.64,99.91,3.08,149.86,4.79,7.17.25,13.69-1.13,20.33-3.77,67.16-26.65,134.38-53.16,201.66-79.49,6.14-2.4,10.89-5.83,15.09-10.83,54.43-64.81,108.99-129.51,163.52-194.23,1.06-1.25,2.15-3.19,3.41-3.36,1.39-.19,4,1.05,4.28,2.14.44,1.68-.48,3.81-1.1,5.66-8.19,24.64-16.37,49.29-24.73,73.87-.93,2.74-2.74,5.3-4.55,7.62-69.77,89.25-139.59,178.46-209.41,267.67-1.84,2.35-3.81,4.58-4.78,5.75-20.39,1.22-39.57,2.18-58.72,3.55-40.87,2.91-81.72,6.05-122.59,9.03-43.86,3.2-87.72,6.26-131.57,9.57-5.03.38-8.79-.22-12.14-4.57-23.15-30.11-46.54-60.03-69.75-90.1-1.23-1.6-1.44-3.99-2.26-6.41Z"/>
  <path class="st0" d="M1762.58,1103c23.48-64.97,46.87-129.67,70.25-194.38,1.13-3.13,1.95-6.42,3.41-9.38,8.08-16.42,8.65-33.62,7.37-51.57-3.78-52.84-6.7-105.75-10-158.63-.93-14.96-1.78-29.94-3.15-44.87-.38-4.11-1.78-8.52-3.95-12.02-44.72-72.24-89.62-144.38-134.48-216.53-.18-.28-.39-.54-.55-.84-1.3-2.42-5.04-4.75-1.49-7.62,3.17-2.56,5.44.83,7.71,2.51,10.72,7.92,21.37,15.94,32.07,23.89,9.9,7.35,19.91,14.56,29.69,22.06,2.56,1.96,4.8,4.55,6.62,7.24,63.35,93.93,126.6,187.93,190,281.82,3.45,5.11,3.72,8.77,1.43,15.08-5.09,14.01-7.75,28.9-11.34,43.45-20.62,83.4-41.32,166.78-61.64,250.26-1.72,7.06-4.85,10.63-11.59,12.98-33.96,11.84-67.77,24.11-101.61,36.31-3.12,1.12-6.06,3-8.75.24Z"/>
  <path class="st0" d="M1992.09,713.89c1.24,2.06,2.94,3.98,3.65,6.21,7.98,25.06,15.89,50.14,23.55,75.3,1.03,3.38.85,7.23.72,10.85-2.56,72.93-5.2,145.86-7.8,218.8-1.45,40.63-2.83,81.26-4.27,121.89-.07,1.98-.34,3.96-.44,5.05-6.63,5.02-12.86,9.33-18.63,14.19-73.43,61.81-146.84,123.63-220.05,185.69-5.5,4.66-10.27,5.75-17.02,3.72-34.76-10.42-69.65-20.44-104.46-30.71-2.55-.75-4.83-2.45-8.18-4.21,8.65-5.54,15.9-9.97,22.94-14.74,57.39-38.86,114.78-77.71,172-116.81,4.78-3.26,9.15-7.82,12.27-12.69,39.38-61.43,78.45-123.05,117.74-184.53,3.52-5.51,5.38-11.08,5.84-17.65,4.33-62.15,8.93-124.28,13.42-186.43,1.58-21.93,3.05-43.87,4.63-65.81.18-2.47.77-4.91,1.17-7.36.97-.25,1.95-.51,2.92-.76Z"/>
  <path class="st0" d="M1291.46,376.39c5.25,3.91,9.25,7.35,13.67,10.11,82.84,51.61,165.68,103.22,248.71,154.52,7.06,4.36,9.93,9.11,10.08,17.46.61,35.97,1.98,71.93,2.95,107.89.06,2.36-.93,4.74-1.75,8.62-5.15-4.58-8.79-8.21-12.82-11.35-57.31-44.62-114.69-89.15-171.98-133.8-4.83-3.76-9.92-6.37-15.88-7.9-70.3-18.01-140.59-36.08-210.81-54.41-7.4-1.93-14.16-1.79-21.51.03-81.41,20.28-162.87,40.32-244.32,60.44-1.29.32-2.56,1.04-3.83,1.04-1.17,0-3.13-.52-3.33-1.21-.4-1.36-.3-3.37.5-4.44,1.14-1.53,3.07-2.48,4.69-3.63,20.62-14.69,41.23-29.4,61.9-44,2.12-1.5,4.58-2.76,7.07-3.47,111.37-31.9,222.76-63.73,334.16-95.55.94-.27,1.96-.28,2.5-.35Z"/>
  <path class="st0" d="M1733.35,856c-6.54-22.62-12.79-44.27-19.05-65.91-15.37-53.08-30.66-106.17-46.24-159.19-1.45-4.94-3.96-9.95-7.21-13.92-46.91-57.18-93.97-114.23-141.21-171.14-3.03-3.65-7.34-6.87-11.73-8.67-79.19-32.41-158.48-64.56-237.74-96.79-1.73-.7-3.32-1.76-4.82-2.57.43-5.6,3.98-4.91,7.34-4.86,21.32.33,42.65,1.11,63.95.69,12.6-.25,24.17,2.26,35.89,6.57,101.87,37.41,203.85,74.54,305.8,111.76,3.1,1.13,6.15,2.4,8.1,3.17,2.39,7,4.11,12.99,6.44,18.74,36.56,90.08,73.12,180.16,109.97,270.12,2.71,6.63,2.45,11.4-1.63,17.29-20.69,29.83-40.99,59.94-61.38,89.98-1.7,2.51-3.09,5.18-6.5,4.75Z"/>
  <path class="st0" d="M1970.52,1532.99c-6.26-2.49-11.35-4.82-16.64-6.56-28.47-9.36-56.98-18.57-85.49-27.82-1.27-.41-2.73-.48-3.8-1.18-2.94-1.93-7.13-3.56-8.22-6.33-1.71-4.37,3.42-5.76,6.28-7.65,41.97-27.75,83.99-55.4,126-83.08,10.57-6.96,21.09-14.02,31.77-20.81,4.64-2.96,7.95-6.67,10.44-11.65,45.97-91.71,92.11-183.33,138.06-275.05,1.88-3.75,3.06-8.12,3.43-12.3,3.38-38.49,6.51-77.01,9.71-115.52,3.73-44.82,7.46-89.63,11.17-134.45,1.32-15.94,2.51-31.88,3.97-47.81.27-2.98,1.54-5.86,2.37-8.9,6.21,1.79,5.58,6.02,5.93,9.41,2.29,22.2,4.36,44.42,6.59,66.63,4.34,43.09,8.74,86.16,13.12,129.25.77,7.62,1.8,15.23,2.26,22.87.22,3.56-.14,7.32-1.06,10.76-27.54,102.24-55.25,204.42-82.65,306.7-1.99,7.44-6.17,12.7-10.95,18.27-15.17,17.71-29.84,35.86-44.71,53.83-36.74,44.43-73.46,88.86-110.23,133.27-2.49,3.01-5.25,5.78-7.38,8.11Z"/>
  <path class="st0" d="M1658.27,416.72c-2.8-1.97-6.1-4.05-9.13-6.47-48.19-38.45-96.37-76.91-144.45-115.5-5.1-4.09-10.35-6.49-16.93-7.47-68.84-10.3-137.62-20.92-206.43-31.44-31.6-4.83-63.24-9.48-94.79-14.63-6.17-1.01-11.83-.44-17.7.95-94.28,22.35-188.57,44.66-282.87,66.97-3.24.77-6.48,1.69-9.77,1.95-1.27.1-3.4-1.18-3.8-2.31-.38-1.07.62-3.25,1.68-4.06,1.8-1.39,4.11-2.13,6.25-3.07,66.14-29.13,132.27-58.29,198.48-87.27,4.15-1.82,8.88-2.92,13.4-3.17,46.91-2.53,93.84-4.83,140.76-7.17,59.57-2.97,119.15-5.87,178.71-8.94,4.8-.25,8.72.77,13.19,2.78,14.87,6.68,30.19,12.36,45.36,18.37,61.61,24.42,123.22,48.82,184.83,73.25,3.36,1.33,6.65,2.81,8.74,3.7,0,19.73,0,38.27,0,56.82,0,18.33,0,36.66,0,54.99,0,4.34.24,8.79-5.53,11.73Z"/>
  <path class="st0" d="M580.59,968.41c23.1-7.4,44.89-14.36,66.67-21.36,13.63-4.38,27.25-8.79,40.84-13.26,3.93-1.29,7.72-2.37,11.77,2.37-.94,2.77-1.99,6.16-3.23,9.47-21.66,57.66-43.28,115.33-65.1,172.92-2.55,6.74-3.37,13.02-2.16,20.31,16.51,99.51,32.62,199.09,49.1,298.61,1,6.04,3.36,12.24,6.54,17.49,50.01,82.63,100.25,165.12,150.44,247.65,1.73,2.84,3.69,5.61,4.95,8.65.62,1.5-.11,3.57-.23,5.38-1.76-.25-3.79-.03-5.22-.86-1.65-.96-2.78-2.81-4.12-4.31-48.36-54.19-96.73-108.36-145-162.63-2.58-2.9-4.88-6.36-6.26-9.96-37.7-98.57-75.26-197.19-112.88-295.79-2.61-6.83-4.03-13.23-2.88-21.06,2.37-16.1,2.65-32.51,3.66-48.8,3.66-59.18,7.24-118.36,10.91-177.54.59-9.55,1.53-19.09,2.2-27.3Z"/>
  <path class="st0" d="M775.1,1344.71c1.15,3.57,2.38,6.93,3.33,10.37,16.47,59.7,32.97,119.39,49.25,179.15,1.73,6.34,4.59,11.42,9.28,16.04,72.35,71.4,144.54,142.95,216.94,214.3,3.9,3.84,8.9,7.04,13.97,9.17,89.34,37.55,178.77,74.88,268.18,112.27,3.07,1.28,6.29,2.37,9.06,4.15,1.29.83,1.66,3.1,2.45,4.72-1.4.66-2.79,1.84-4.2,1.86-2.29.04-4.61-.6-6.89-1.1-70.61-15.32-141.23-30.61-211.82-46.07-4.11-.9-8.3-2.57-11.82-4.86-89.06-58-178.03-116.14-267.05-174.22-4.77-3.11-9.48-5.95-10.97-12.17-.59-2.45-2.7-4.54-4.13-6.8-42.49-66.95-84.98-133.9-127.45-200.86-2.09-3.3-4-6.73-5.68-9.57,4.57-5.71,8.65-10.44,12.33-15.47,17.7-24.21,35.27-48.51,52.92-72.76,2.7-3.71,4.97-8.08,12.3-8.17Z"/>
  <path class="st0" d="M1556.29,1790.4c-3.09-5.15-5.03-8.99-7.51-12.43-17.55-24.31-35.2-48.54-52.83-72.8-1.37-1.89-2.73-3.78-4.1-5.67-2.36-3.24-5.8-7.06-2.84-10.59,1.73-2.07,6.54-2.29,9.92-2.14,55.58,2.4,111.16,4.98,166.73,7.53,1.33.06,2.71-.09,3.99.19,18.04,3.95,33.41-2.26,49.25-10.56,84.65-44.36,169.69-88.01,254.65-131.77,5.77-2.97,10.46-6.78,14.66-11.68,63.14-73.58,126.37-147.07,189.59-220.58,1.95-2.27,3.78-4.72,6.08-6.59,1.27-1.03,3.39-1.01,7.42-2.07-1.95,4.91-2.83,8.25-4.5,11.13-15,25.95-30.13,51.83-45.23,77.72-21.31,36.54-42.53,73.13-64.04,109.55-2.62,4.44-6.28,8.6-10.3,11.85-81.1,65.55-162.38,130.88-243.44,196.48-6.4,5.18-13.09,8.01-21.05,9.91-33.02,7.9-65.84,16.6-98.74,25.03-46.11,11.82-92.22,23.66-138.34,35.46-3.16.81-6.37,1.38-9.36,2.02Z"/>
  <path class="st0" d="M2037.63,607.96c-4.35,5.24-7.92,9.13-11.01,13.36-18.28,25.02-36.43,50.14-54.68,75.18-2.69,3.69-4.98,8.18-12,7.27-1.09-3.18-2.56-6.78-3.58-10.5-16.24-59.07-32.5-118.14-48.53-177.27-1.99-7.33-5.43-13.15-10.87-18.51-71.91-70.89-143.69-141.91-215.36-213.04-4.66-4.62-9.95-7.59-15.83-10.04-89.42-37.35-178.82-74.75-268.23-112.14-2.46-1.03-5.16-1.72-7.27-3.24-1.53-1.1-2.27-3.29-4.65-7.01,5.11.38,7.97.27,10.67.85,71.92,15.58,143.82,31.21,215.7,46.97,3.47.76,6.99,2.21,9.97,4.15,87.37,56.94,174.63,114.03,262.03,170.92,7.62,4.96,13.73,10.43,18.33,18.7,8.9,15.98,19.36,31.09,29.18,46.57,33.56,52.88,67.13,105.77,100.67,158.66,1.94,3.06,3.72,6.22,5.45,9.13Z"/>
  <path class="st0" d="M1177.53,258.84c7.88,10.89,15.04,20.8,22.21,30.7,14.28,19.69,28.58,39.36,42.85,59.06,2.71,3.73,5.98,7.35,2.75,13.47-3.23,0-6.8.14-10.36-.02-61.58-2.75-123.16-5.45-184.73-8.44-7.64-.37-14.22,1.32-20.94,4.81-89.01,46.13-178.09,92.12-267.22,138.02-6.06,3.12-11.03,7.09-15.46,12.25-63.14,73.6-126.38,147.1-189.62,220.62-2.16,2.52-4.36,5.07-6.92,7.14-.87.71-3.1.41-4.31-.21-.72-.38-1.19-2.45-.85-3.44.75-2.17,2.03-4.18,3.21-6.19,36.58-62.73,73.14-125.48,109.84-188.14,2.12-3.63,4.96-7.13,8.22-9.76,81.39-65.74,162.94-131.3,244.28-197.11,6.91-5.59,14.02-8.79,22.76-10.76,26.3-5.93,52.3-13.15,78.42-19.87,52.56-13.52,105.11-27.06,157.67-40.55,3.14-.81,6.38-1.24,8.18-1.58Z"/>
  <path class="st0" d="M1894.56,332.16c5.95-1.24,7.66,3.2,10.14,5.96,22.28,24.77,44.44,49.65,66.62,74.51,25.29,28.34,50.51,56.74,75.92,84.97,4.55,5.05,7.76,10.54,10.17,16.89,36.85,97.11,73.83,194.18,110.9,291.21,2.65,6.94,3.98,13.42,2.66,21.14-1.91,11.1-1.75,22.55-2.45,33.86-4.3,69.82-8.58,139.64-12.91,209.45-.24,3.91-.93,7.78-1.28,10.63-9.64,2.94-18.18,5.43-26.64,8.15-26.3,8.47-52.57,17.02-78.84,25.58-4.15,1.35-8.21,3.05-13.33-.82,1.01-3.6,1.84-7.71,3.3-11.59,21.43-57.03,42.83-114.07,64.55-170.99,2.85-7.48,3.48-14.58,2.2-22.35-16.54-99.85-32.89-199.73-49.5-299.57-.84-5.07-2.98-10.21-5.66-14.63-50.57-83.46-101.33-166.81-151.96-250.24-2.11-3.47-5.82-6.66-3.88-12.16Z"/>
  <path class="st0" d="M531.9,1274.41c-.65-2.22-1.73-4.54-1.98-6.95-3.99-38.43-7.89-76.87-11.77-115.31-3.44-34.13-6.98-68.26-10.07-102.42-.52-5.79.21-11.98,1.72-17.63,27.14-100.96,54.59-201.83,81.6-302.83,2.01-7.53,6.21-12.67,10.95-18.23,15.34-18.01,30.26-36.37,45.34-54.6,36.52-44.17,73.04-88.34,109.58-132.5,2.3-2.78,4.77-5.44,6.42-7.31,35.38,11.54,69.77,22.71,104.12,34,4.6,1.51,10.06,2.11,11.88,9.26-3.29,2.46-6.79,5.37-10.57,7.86-50.34,33.2-100.66,66.42-151.14,99.4-6.92,4.52-11.9,9.94-15.64,17.41-44.83,89.67-89.87,179.23-135.02,268.73-3.24,6.42-4.82,12.88-5.38,19.99-3.58,45.49-7.47,90.97-11.2,136.45-2.97,36.19-5.85,72.38-8.79,108.58-1.32,16.27-2.67,32.54-4.02,48.8-.27,3.28-.17,6.88-6.02,7.31Z"/>
  <path class="st0" d="M1864.74,1741.47c-4.22,2.45-7.33,4.67-10.75,6.18-60.33,26.62-120.79,52.95-180.99,79.85-15.08,6.74-30.1,10.76-46.88,11.4-65.59,2.52-131.13,6.22-196.69,9.55-31.61,1.6-63.22,3.33-94.83,5-10.23.54-19.71.11-29.79-4.51-23.58-10.8-48.14-19.48-72.29-29.03-50.78-20.09-101.57-40.18-152.34-60.3-3.36-1.33-6.62-2.88-8.89-3.87.41-37.55.09-74.08.23-110.61.02-4.53-.93-9.49,5.1-13.12,2.8,1.99,6.06,4.08,9.07,6.48,48.45,38.66,96.91,77.3,145.21,116.13,4.89,3.93,9.99,6.18,16.1,7.11,91.2,13.86,182.38,27.83,273.57,41.77,8.89,1.36,17.74,3.16,26.68,3.92,6.18.52,12.72.57,18.7-.83,95.32-22.29,190.58-44.85,285.86-67.32,3.7-.87,7.55-3.04,12.93,2.21Z"/>
  <path class="st0" d="M1328.55,989.63c-6.06,3.82-10.11,1.98-14.21.81-38.43-10.91-76.9-21.64-115.25-32.83-6.47-1.89-10.86-1.24-16.03,3.43-37.33,33.72-75,67.06-112.47,100.63-3.69,3.31-6.83,7.26-10.05,11.06-30.82,36.33-61.6,72.69-92.39,109.04-1.29,1.52-2.35,3.48-3.98,4.42-1.75,1-4.72,2.07-5.95,1.27-1.86-1.21-3.47-3.94-3.71-6.18-.26-2.47,1.11-5.13,1.84-7.69,20.68-73.37,41.36-146.73,62.05-220.1.27-.96.78-1.88.91-2.85,1.19-8.9,6.11-12.85,15.18-14.03,29.05-3.78,58-8.3,86.99-12.56,38.87-5.71,77.76-11.27,116.58-17.31,7.65-1.19,12.85.2,18.33,6.13,21.03,22.75,42.72,44.88,64.12,67.29,2.65,2.78,4.98,5.86,8.04,9.49Z"/>
  <path class="st0" d="M1398.55,1461.76c-7.18,5.72-7.24,5.8-14.31,1.09-26.89-17.91-53.74-35.89-80.6-53.84-37.94-25.35-75.77-50.88-113.92-75.92-7.79-5.11-10.16-10.31-8.49-19.8,12.01-68.2,23.41-136.5,34.77-204.81.99-5.97,3.63-9.22,9.02-11.77,29.2-13.8,58.21-28,87.34-41.95,3.05-1.46,6.45-2.2,10.29-3.48,1.67,6.73-1.87,10.17-4.32,13.84-19.62,29.35-39.35,58.64-58.98,87.98-4.06,6.07-10.59,12.11-11.06,18.53-.51,6.83,4.58,14.21,7.62,21.17,17.89,40.87,35.87,81.71,53.91,122.51,2.01,4.54,4.39,8.96,6.99,13.19,25.87,41.96,51.83,83.86,77.74,125.8,1.37,2.22,2.48,4.61,3.99,7.45Z"/>
  <path class="st0" d="M1349.6,1073.9c.72,3.72,1.93,7.43,2.08,11.17,1.56,40.27,3.1,80.55,4.24,120.84.18,6.43,2.15,10.08,7.84,13.35,43.58,25.08,86.92,50.57,130.4,75.83,4,2.32,8.37,4.05,12.67,5.81,44.65,18.33,89.33,36.6,133.99,54.93,3,1.23,5.88,2.74,8.63,4.03-1.88,8.85-1.86,9.11-9.24,9.47-17.3.85-34.61,1.45-51.92,2.11-61.25,2.33-122.5,4.5-183.73,7.11-8.89.38-13.83-2.39-17.82-10.56-30.13-61.61-60.59-123.07-91.35-184.37-3.6-7.18-3.25-12.46.55-19.3,15.2-27.36,29.75-55.08,44.62-82.62,1.64-3.03,3.84-5.75,5.78-8.61,1.09.27,2.18.54,3.27.81Z"/>
  <path class="st0" d="M1336.63,587.56c4.87-7.29,8.98-5.06,13.56-1.97,21.53,14.54,43.18,28.91,64.79,43.35,43.49,29.06,86.87,58.27,130.56,87.02,7.5,4.94,9.99,10.16,8.44,19-9.88,56.41-19.34,112.89-28.95,169.34-2.18,12.8-4.55,25.57-6.56,38.4-.63,4.02-2.26,6.51-6.02,8.3-30.95,14.78-61.81,29.75-92.74,44.58-1.94.93-4.23,1.14-6.46,1.72-3.02-4.96-.11-8.17,2.01-11.36,10.34-15.53,20.76-31,31.16-46.49,13.92-20.72,27.83-41.45,41.88-62.36-3.02-6.99-5.88-13.7-8.81-20.37-17.95-40.85-35.86-81.72-53.93-122.52-2.41-5.45-5.43-10.66-8.56-15.74-25.16-40.84-50.42-81.61-75.62-122.43-1.72-2.78-3.2-5.71-4.75-8.48Z"/>
  <path class="st0" d="M1406.66,1059.55c6.09-4.83,10.6-2.03,14.76-.86,35.58,9.97,71.1,20.17,106.65,30.28,5.43,1.55,10.88,3.04,16.65,4.64,2.03-1.63,4.16-3.19,6.12-4.94,37.81-33.7,75.63-67.39,113.37-101.17,3.2-2.87,5.99-6.23,8.78-9.52,31.68-37.36,63.32-74.74,94.98-112.12,1.71-2.01,3.45-3.99,4.96-5.74,8.33,3.6,8.8,4.21,6.64,12-5.77,20.86-11.73,41.66-17.61,62.49-15.01,53.19-30.03,106.37-45.01,159.57-4.38,15.56-3.98,16.25-21.07,18.67-67.26,9.49-134.45,19.51-201.63,29.63-6.02.91-9.84-.45-13.93-4.8-21.93-23.28-44.18-46.27-66.27-69.41-2.43-2.55-4.57-5.38-7.4-8.74Z"/>
  <path class="st0" d="M1792.48,1130.19c4.31,8.01,4.39,8.11-2.2,13.32-24.82,19.64-49.69,39.2-74.54,58.79-36.1,28.46-72.39,56.68-108.15,85.56-8.19,6.61-14.59,7.55-24.07,2.51-60.26-32.06-120.8-63.59-181.38-95.06-6.21-3.23-9.32-7.04-10.2-14.25-3.9-32.05-8.48-64.03-12.75-96.04-.37-2.78-.32-5.62-.47-8.62,6.64-1.38,8.74,2.92,11.27,6.13,16.71,21.18,33.34,42.43,50,63.66,8.43,10.74,17.13,21.29,25.2,32.3,3.62,4.95,7.58,6.35,13.48,5.71,30.46-3.26,60.95-6.2,91.44-9.24,12.92-1.29,25.82-2.95,38.78-3.76,30.18-1.87,58.71-11.5,87.85-18.2,29.51-6.79,58.87-14.28,88.3-21.43,2.51-.61,5.09-.95,7.44-1.38Z"/>
  <path class="st0" d="M1385.54,975.32c-.66-3.73-1.76-7.44-1.91-11.18-1.47-36.95-2.79-73.9-4.14-110.85q-.69-19.09-16.78-28.45c-38.83-22.65-77.62-45.38-116.52-67.92-6.01-3.49-12.35-6.51-18.78-9.16-44.32-18.27-88.7-36.39-133.06-54.56-1.54-.63-3.1-1.23-4.61-1.91-2.57-1.16-4.67-2.63-3.92-6.01.74-3.33,2.59-5.3,6.14-5.39,2-.05,3.99-.15,5.99-.23,75.55-3.06,151.1-6.13,226.65-9.19,1.66-.07,3.36.08,4.99-.2,9.82-1.72,14.88,2.8,19.17,11.59,29.97,61.32,60.36,122.44,90.96,183.45,3.55,7.07,3.25,12.41-.53,19.23-15.04,27.07-29.44,54.49-44.16,81.73-1.81,3.34-4.09,6.42-6.16,9.62-1.11-.19-2.22-.37-3.34-.56Z"/>
  <path class="st0" d="M1352.77,974.21c-3.08-3.23-6.45-6.24-9.2-9.73-24.34-30.86-48.77-61.66-72.66-92.87-4.75-6.21-9.35-7.63-16.8-6.78-34.4,3.92-68.82,8.11-103.35,10.44-37.11,2.51-73.01,10.47-108.83,19.64-29.98,7.68-60.11,14.8-90.19,22.1-3.16.77-6.42,1.11-9.41,1.61-3.67-8.23-3.74-8.31,2.91-13.57,29.79-23.55,59.62-47.05,89.44-70.56,31.39-24.75,62.92-49.31,94.06-74.37,7.19-5.78,12.96-6.78,21.45-2.27,60.57,32.17,121.36,63.95,182.27,95.49,6.67,3.45,9.71,7.45,10.63,14.95,3.87,31.39,8.47,62.68,12.66,94.03.46,3.41.06,6.94.06,10.42-1.01.49-2.03.97-3.04,1.46Z"/>
  <path class="st0" d="M1314.61,1019.28c-.96,6.84-5.84,7.33-9.65,8.74-29.04,10.75-58.12,21.36-87.19,32-9.38,3.43-18.72,6.97-28.16,10.22-4.44,1.52-6.9,3.77-7.97,8.82-10.84,50.79-22.25,101.45-32.88,152.28-2.23,10.66-1.91,21.86-2.74,32.82-3.12,41.18-6.18,82.37-9.43,123.54-.28,3.56,1.36,8.73-4.56,9.6-5.84.85-6.92-3.75-8.45-7.91-27.28-74.03-54.56-148.07-82.02-222.04-2.53-6.82-1.68-11.7,3.68-16.91,50.4-49.01,100.63-98.19,150.79-147.45,3.99-3.92,7.65-4.94,13.28-3.87,31.72,6.04,63.55,11.5,95.32,17.27,3.39.62,6.66,1.91,9.99,2.89Z"/>
  <path class="st0" d="M1419.59,1029.31c2.95-6.94,8-7.51,12.21-9.07,36.86-13.58,73.7-27.23,110.73-40.33,7.26-2.57,10.22-6.5,11.77-13.84,10.02-47.56,20.9-94.93,30.68-142.54,2.86-13.93,3.35-28.39,4.44-42.65,3.04-39.52,5.82-79.06,8.7-118.59.12-1.66-.25-3.58.46-4.93,1.09-2.07,2.59-4.72,4.52-5.38,2.97-1.03,5.86.37,7.01,3.89.62,1.9,1.4,3.74,2.1,5.61,26.85,72.77,53.58,145.59,80.73,218.25,3.16,8.46,1.94,13.94-4.53,20.2-49.52,48-98.79,96.26-147.94,144.64-4.76,4.69-9.2,6.43-15.88,5.15-32.05-6.12-64.18-11.78-96.27-17.68-2.74-.51-5.37-1.66-8.73-2.74Z"/>
</svg>