<?xml version="1.0" encoding="UTF-8"?>
<svg id="Layer_0_xA0_Image" xmlns="http://www.w3.org/2000/svg" version="1.1" viewBox="0 0 2048 2732">
  <!-- Generator: Adobe Illustrator 30.2.1, SVG Export Plug-In . SVG Version: 2.1.1 Build 1)  -->
  <defs>
    <style>
      .st0 {
        fill: #737f99;
      }
    </style>
  </defs>
  <path class="st0" d="M1549.39,2535.37c-90.06-48.33-179.12-96.12-268.96-144.33,2.09-4.11,3.66-7.32,5.35-10.47,65.15-121.54,130.26-243.1,195.56-364.56,4.07-7.58,6.01-15.13,6-23.73-.02-59.65.56-119.3.14-178.95-.06-8.87,2.03-15.98,6.17-23.32,11.62-20.6,22.9-41.38,34.37-62.07,1.55-2.8,3.38-5.45,5.73-9.19,4,5.05,7.32,9.04,10.41,13.19,41.47,55.53,82.55,111.36,124.68,166.38,8.07,10.53,11.13,19.82,9.48,32.98-5.29,41.96-9.18,84.1-13.56,126.17-4.28,41.08-8.47,82.17-12.74,123.25-3.1,29.82-6.16,59.64-9.51,89.43-.38,3.34-2.51,6.48-3.81,9.73-1.36,3.39-2.83,6.75-4.02,10.2-26.99,78.04-53.94,156.09-80.93,234.14-1.16,3.36-2.58,6.63-4.36,11.16Z"/>
  <path class="st0" d="M944.9,520.78c-20.39-6.33-39.38-12.22-58.41-18.13-.66-3.69,2.17-4.04,4.67-5.06,46.84-19.2,93.66-38.47,140.47-57.75,2.72-1.12,5.35-2.48,8.46-3.93-2.82-19.38-5.58-38.4-8.47-58.32,63.82-17.98,126.86-35.73,190.85-53.76-.8-3.28-1.29-6.09-2.17-8.77-9.88-30.05-19.83-60.08-29.7-90.14-.96-2.93-1.53-5.99-2.71-10.66,3.15,1.19,4.49,1.34,5.33,2.06,38.49,33.44,76.93,66.94,115.38,100.42,1.51,1.31,2.94,2.74,4.56,3.9,4.48,3.19,4.99,6.9,3.27,12.15-8.6,26.27-16.76,52.68-25.13,79.02-38.48,121.25-77.06,242.47-115.29,363.8-2.5,7.94-6.56,12.95-13.7,17-18.84,10.68-37.23,22.13-55.83,33.21-2.99,1.78-6.18,3.25-9.68,5.08-2.33-5.99.26-9.52,2.67-13.06,7.5-11.02,15.04-22.01,22.54-33.03,1.85-2.72,3.63-5.5,4.97-9.08-33.23,10.8-65.29,24.51-98.31,36.1-2.16-5.71,1.75-7.05,4.01-8.95,20.93-17.57,41.95-35.03,62.95-52.53,1.54-1.28,2.97-2.72,4.62-3.82,3.47-2.33,4.56-5.3,3.67-9.42-5.87-27.33-11.62-54.69-17.61-82.98-33.02-6.24-65.94-12.46-99.36-18.77-12.69,19.66-25.1,38.91-38.01,58.92-26.63-10.06-53-20.03-80.45-30.4-6.74,6.31-13.74,12.86-20.74,19.42-7.29,6.84-14.47,13.81-21.89,20.5-7.02,6.34-13.22,13.7-21.57,19.09-3.3-4.29-2.12-7.65-.81-11.08,7.85-20.53,15.56-41.12,23.62-61.57,1.15-2.91,3.5-5.74,6.01-7.66,13.88-10.6,25.11-23.77,36.59-36.73,22.76-25.69,45.65-51.28,68.47-76.93,1.95-2.2,3.75-4.54,6.72-8.16Z"/>
  <path class="st0" d="M679.05,2459.81c-4.41-1.75-7.47-2.79-10.38-4.14-124.26-57.41-248.5-114.86-372.8-172.2-5.35-2.47-11.33-3.55-16.83-5.75-4.2-1.69-8.11-4.13-12.8-6.58,1.81-4.47,3.21-8.14,4.78-11.73,37.96-86.99,75.23-174.29,114.13-260.86,29.47-65.58,60.93-130.28,91.71-195.28,21.52-45.45,43.4-90.74,65.12-136.09,1.72-3.59,3.54-7.13,4.57-9.19,10.71-3.86,20.03-7.21,29.74-10.71-.61,15.65-1.35,29.86-1.69,44.08-1.02,42.31-1.81,84.62-2.89,126.93-.12,4.56-.76,9.38-2.43,13.57-20.19,50.74-40.62,101.39-61.01,152.06-.85,2.12-1.93,4.16-3.03,6.5-10.99-4.33-21.48.46-33.14-.24,1.2,3.5,1.83,6.01,2.89,8.32,45.17,98.73,90.36,197.45,135.65,296.12,1.78,3.88,4.21,7.57,6.86,10.94,12.34,15.73,23.86,32.28,37.69,46.6,7.96,8.24,10.27,17.04,11.89,27.18,4.01,24.99,8.26,49.94,12.36,74.91.2,1.2-.15,2.49-.38,5.56Z"/>
  <path class="st0" d="M943.67,367.67c-.71-15.68-1.27-30.96-2.15-46.22-.55-9.51,2.7-14.12,12.09-15.44,19.79-2.78,39.6-5.42,59.4-8.13,16.83-2.3,33.64-4.74,50.5-6.86,5.21-.66,9.2-2.59,12.82-6.57,15.02-16.52,30.65-32.49,45.44-49.21,7.47-8.45,13.58-18.09,20.41-27.12,1.91-2.53,4.18-4.78,7.61-8.65,1.74,4.37,3.25,6.87,3.73,9.55,5.35,30.16,10.56,60.35,15.73,90.54.54,3.15.59,6.39.77,8.56-6.12.65-11.29.58-16.13,1.81-51.98,13.12-103.91,26.43-155.85,39.71-2.85.73-5.67,1.61-9.22,2.62,2.15,20.9,4.25,41.33,6.48,63.02-66.07,24.91-131.96,49.75-200.06,75.42,29.8,12.58,57.43,24.25,87.02,36.74-11.27,11.39-22.04,20.14-32.32,29.39-10.15,9.15-20.46,18.12-30.69,27.17-10.48,9.27-20.97,18.55-31.45,27.83-10.48,9.28-20.96,18.56-31.44,27.84-10.48,9.28-20.96,18.56-31.44,27.83-10.23,9.05-20.48,18.1-30.71,27.16-10.38,9.2-20.75,18.4-30.75,28.6,31.67-.76,62.81-4.83,94.11-7.04,1.85,5.01-2.08,7.02-4.26,9.53-19.48,22.37-39.1,44.61-58.65,66.91-2.17,2.48-4.22,5.06-6.65,7.99,8.45-1.18,159.15-70.75,195.3-89.97-.91-1.89-1.82-3.8-3.68-7.68,3.89,1.02,6.34,1.2,8.34,2.26,10.31,5.45,20.61,10.92,30.68,16.79,4.69,2.73,8.78,3.17,13.97,1.07,34.27-13.86,68.69-27.35,102.99-41.13,3.79-1.52,7.15-4.13,11.32-6.59,2.99,5.63,1.22,11.98,1.57,18,.39,6.65.19,13.33.38,19.99.18,6.3.54,12.59.92,20.95-1.11.86-3.58,2.55-5.79,4.52-30.63,27.24-61.22,54.53-91.85,81.77-3.13,2.79-6,6.39-11.53,4.98-1.06-4.34,2.14-6.85,3.99-9.65,13.25-20,26.67-39.89,40-59.83,1.38-2.07,2.52-4.31,2.79-7.39-2.94,1.93-5.95,3.79-8.82,5.82-39.22,27.65-78.42,55.32-117.61,83-4.35,3.07-8.53,6.51-14.56,4.39-2.23-3.68.81-6.26,2.26-8.94,7.44-13.78,15.12-27.42,22.67-41.14,1.53-2.79,2.83-5.71,2.82-9.77-14.2,11.3-28.38,22.62-42.6,33.89-13.99,11.08-27.79,22.42-42.02,33.25-4.52-4.89-3.37-8.93-2-13.15,3.9-12.04,7.64-24.13,11.43-36.2.97-3.09,1.87-6.2,3.46-11.45-4.4,2.79-7.11,4.36-9.66,6.16-25.31,17.88-50.65,35.72-75.83,53.79-4.77,3.42-9.46,4.85-15.45,5.16-25.28,1.32-50.53,3.4-75.78,5.31-29.24,2.21-58.46,4.53-87.7,6.77-2.28.17-4.59.02-7.57.02-9.08-24.12-18.07-48-27.07-71.89,23.07-14.39,45.34-28.29,68.57-42.79-7.49-31.09-13.71-62.51-22.7-94.73,63.13-42.91,127.46-86.64,193.15-131.29-31.22-9.64-61.35-16.07-91.38-25.65,1.31-2.22,1.81-3.43,2.61-4.36,15.17-17.73,30.47-35.33,45.49-53.18,3.94-4.68,8.65-6.83,14.49-7.78,53.25-8.7,106.47-17.52,159.69-26.34,1.94-.32,4.05-.61,5.69-1.58,21.5-12.68,42.93-25.48,64.65-38.41Z"/>
  <path class="st0" d="M537.46,363.73c25.12,12.42,44.56,31.59,72,37.78,2.08-11.68,4.22-23.3,6.21-34.95,3.93-22.98,7.83-45.96,11.6-68.97.64-3.9.33-7.96.83-11.89.66-5.19,5.02-7.98,9.31-5.23,23.82,15.26,51.89,18.38,77.78,27.67,7.79,2.8,15.85,4.82,25.36,7.67-1.49-17.99-2.88-34.72-4.34-52.26-18.89,2.11-36.06,8.58-55.75,10.55,1.69-3.22,2.1-5.33,3.37-6.24,26.59-18.96,53.21-37.87,80.03-56.5,2.38-1.65,6.23-1.9,9.32-1.69,21.27,1.47,42.52,3.25,63.78,4.9,1.63.13,3.28.02,5.81.02,6.03-11.39,12.2-23.03,18.47-34.85,7.81,1.81,12.99,6.22,17.68,10.59,2.11,1.97,2.35,6.68,2.29,10.12-.16,9.99-.93,19.97-1.4,29.95-.12,2.58-.02,5.17-.02,8.46,3.8-.69,6.72-1.05,9.55-1.76,62.69-15.57,125.38-31.18,188.06-46.82,3.54-.88,7.02-2.04,10.49-3.2,3.25-1.08,6.36-1.73,9.63,1.41-1.05,1.14-1.69,2.38-2.69,2.84-8.45,3.88-17.18,7.21-25.43,11.46-58.93,30.37-117.82,60.79-176.55,91.55-7.35,3.85-13.25,4.66-20.17-.46-5.83-4.32-12.43-7.61-18.95-11.51-.39,11.32,14.75,71.58,20.01,78.56-1.96,1.39-3.77,3.65-5.89,4.02-12.06,2.06-24.27,3.27-36.29,5.49-49.78,9.19-99.49,18.73-149.28,27.88-6.99,1.28-11.56,4.29-15.78,10.26-25.2,35.64-50.96,70.89-76.51,106.29-1.92,2.65-3.66,5.43-6.09,9.06,2.95.87,4.97,1.87,7.05,2.01,21.94,1.52,43.89,2.88,65.83,4.32,6.92.45,14,.31,21.22,5.61-3.36,2.52-6.22,5-9.38,7-57.23,36.05-114.49,72.05-171.75,108.06-6.4,4.02-12.77,8.08-20.46,12.95,19.53,13.27,37.8,25.68,56.98,38.71-11.31,14.87-24.52,26.02-36.39,38.38-11.77,12.26-23.88,24.19-35.85,36.27-12.16,12.26-24.32,24.52-37.11,37.43,15.96,14.42,31.17,28.17,47.07,42.54-.22.49-.44,2.49-1.53,3.24-23.57,16.21-47.28,32.23-70.88,48.4-13.19,9.04-26.2,18.35-39.4,27.38-2.81,1.92-6.11,3.14-11.61,5.91,2.43-14.12,4.6-25.64,6.37-37.23,1.8-11.79,3.21-23.63,4.88-36.12-11.91-4.35-23.11-8.44-34.3-12.52-3.44-1.25-6.81-2.83-10.35-3.66-6.28-1.47-8.99-5.15-8.22-11.5,6.29-5.65,79.42-107.56,85.65-119.55-13.48.13-25.74,6.5-40.87,6.18,21.63-47.1,42.65-92.85,64.67-140.78-17.8,7.4-31.3,17.74-47.55,24.28-1.25-5.85,1.67-9.28,3.59-12.85,14.33-26.72,28.76-53.38,43.16-80.05,13.6-25.19,27.21-50.39,41.07-76.05,6.55,1.02,10.2,6.66,15.08,10.27,5.35,3.95,10.33,8.42,15.48,12.65,4.87,4.01,9.75,8.01,15.99,13.14,11.77-38.4,23.2-75.69,35.13-114.62Z"/>
  <path class="st0" d="M1471.11,696.05c-29.48-11.63-57.49-22.68-86-33.93,1.92,7.73,16.41,33.13,24.42,43.07-31.66,23.75-61.94,49.25-93.34,73.31l-2.17-1.43c.55-2.28.79-4.7,1.7-6.83,6.63-15.64,13.41-31.21,20.09-46.83,1.24-2.9,2.27-5.9,2.74-9.43-43.17,28.06-85.43,57.12-128.11,85.79-4.66-7.21-.37-10.27,2.65-13.57,19.79-21.64,39.65-43.23,59.47-64.84,8.99-9.8,17.95-19.62,27.45-29.99-12.27-8.93-25.8-14.62-38.54-24.21,31.18-30.3,61.43-59.7,91.98-89.38-1.37-3.06-2.45-5.79-3.77-8.39-11.17-21.97-22.38-43.92-33.59-65.87-1.21-2.37-1.95-5.51-3.89-6.88-5.18-3.63-4.45-7.8-3.14-12.96,14.7-57.76,29.21-115.57,43.76-173.36.88-3.5,1.64-7.04,2.45-10.58-37.61-27.83-74.77-55.32-111.88-82.87-.33-.24-.1-1.24-.13-1.99,2.89-4.4,6.71-1.48,9.87-.81,24.09,5.18,48.12,10.64,72.17,16,27.62,6.15,55.26,12.27,82.87,18.47,2.85.64,5.6,1.71,9.69,2.98-4.82,9.39-9.3,18.09-14.19,27.6,28.22,24.84,56.36,49.62,84.6,74.48-17.38,16.74-34.24,32.64-50.64,49-4.11,4.1-7.63,9.27-9.96,14.59-11.62,26.54-22.77,53.28-34.05,79.97-1.26,2.97-2.28,6.05-3.7,9.87h96.64c-10.23,33.87-20.19,66.83-30.52,101.01,27.36,25.59,54.97,51.4,83.19,77.79-1.73,1.5-3.7,3.73-6.12,5.2-39.58,24.01-79.18,47.99-118.91,71.75-4.01,2.4-8.88,3.36-13.71,5.13-1.64-6.13,2.36-7.81,4.74-10.06,17.67-16.72,35.48-33.3,53.24-49.92,3.82-3.58,7.63-7.17,12.63-11.88Z"/>
  <path class="st0" d="M1445.36,476.46c3.39-7.9,89.37-99.25,101.62-108.64,2.79,2.32,5.84,4.73,8.76,7.3,35.22,31.1,70.39,62.26,105.65,93.31,3.13,2.76,6.83,4.87,11.78,8.36-3.74,19.09-7.71,39.56-11.77,60-4.01,20.2-8.11,40.39-12.25,60.99,3.45,1.97,6.24,3.66,9.12,5.2,19.69,10.5,39.3,21.17,59.17,31.32,6.73,3.43,9.56,7.57,9.48,15.48-.69,66.64-.89,133.29-1.33,199.94-.03,4.06-.86,8.11-1.32,12.16-.7.14-1.4.27-2.1.41-1.36-1.6-3.14-3.01-4.01-4.84-12.87-27.07-25.62-54.2-38.41-81.31-1.44-3.04-3.16-5.97.42-8.93.78-.64.86-2.48.78-3.74-.86-14.24-1.81-28.47-2.74-42.7-.67-.17-1.34-.34-2.01-.51-7.25,16.51-14.49,33.02-22.35,50.92-17.73-3.49-36.63-6.93-55.39-10.99-18.38-3.98-37.42-5.41-56.28-13.32,5.61-10.27,13.62-17.29,20.21-25.34,6.54-7.99,13.47-15.67,20.21-23.49,6.95-8.06,13.87-16.14,22.4-26.06-2.7-1.8-5.37-3.17-7.56-5.09-21.02-18.49-41.81-37.24-62.99-55.54-7.85-6.78-10.54-12.55-5.85-23.45,7.08-16.47,13.52-33.21,20.13-49.87.57-1.44.89-3.24.57-4.72-4.11-19.21-8.34-38.39-12.6-57.56-.2-.9-.97-1.68-1.79-3.06-29.34,1.24-58.87,2.48-89.56,3.77Z"/>
  <path class="st0" d="M1551.49,790.9c4.5-.25,7.11-.57,9.72-.51,19.99.46,39.97,1.16,59.96,1.41,7.5.09,12.22,3.92,16.57,9.36,31.83,39.82,63.55,79.74,95.84,119.18,7.1,8.67,10.67,17.06,10.55,28.56-.26,25.97,1.13,51.96,2.03,77.93.2,5.8-.91,10.44-4.66,15.42-7.19,9.55-13.05,20.1-19.4,30.27-18.53,29.67-37.02,59.36-55.55,89.03-1.75,2.8-3.63,5.51-5.87,8.89-2.49-1.18-4.68-2.22-6.46-3.06,0-6.01.45-11.27-.09-16.42-1.29-12.25-3.2-24.44-4.57-36.68-.73-6.54-2.63-12.24-7.91-16.57-18.37-15.06-28.62-34.84-35.78-57.28-8.9-27.89-19.94-55.09-29.94-82.63-1-2.75-1.49-5.77-1.68-8.71-2.14-32.58-4.14-65.16-6.3-97.74-.19-2.94-1.02-5.88-1.9-8.71-3.88-12.39-8.03-24.7-11.78-37.13-1.3-4.32-1.73-8.91-2.79-14.61Z"/>
  <path class="st0" d="M856.58,2159.91c6.63-3.28,11.51-1.58,16.33,2.24,14.37,11.37,28.83,22.64,43.37,33.8,3.38,2.59,7.46,4.28,10.74,6.96,2.45,2,4.56,4.7,6.08,7.49,8.29,15.21,16.34,30.55,24.51,45.82,1.39,2.6,2.96,5.1,5.06,8.7,3.01-3.11,5.5-5.61,7.91-8.19,37.75-40.45,75.41-80.98,113.3-121.29,5.2-5.53,11.13-10.59,17.43-14.8,38.78-25.93,77.75-51.57,116.68-77.27,2.72-1.79,5.57-3.39,8.22-4.99,4,3.54,1.27,5.86-.46,8.06-6.8,8.64-13.72,17.19-20.61,25.77-15.44,19.23-30.89,38.45-46.31,57.7-2.02,2.52-3.87,5.18-6.8,9.13,16.21,1.11,30.91,2.12,45.47,3.12,1.63,5.77-2.66,7.1-5.24,9.18-25.45,20.47-51,40.82-76.52,61.2-32.03,25.59-64,51.24-96.13,76.69-4.89,3.88-8.09,8.24-10,14.3-14.87,47.34-30.11,94.56-45,141.89-1.6,5.1-1.7,10.66-2.57,16.46-4.27-.56-4.77-4.27-5.74-7.11-33.04-97.09-66-194.21-98.96-291.34-.3-.89-.42-1.85-.78-3.51Z"/>
  <path class="st0" d="M587.75,1525.99c6.34-2.52,11.34-4.18,16.02-6.48,4.1-2.02,7.48-1.56,11.2.83,5.29,3.39,10.97,6.18,16.16,9.7,1.67,1.13,2.76,3.63,3.37,5.73,7.54,25.89,15.75,51.63,22.07,77.82,3.41,14.13,3.57,29.05,5.16,43.61,2.57,23.5,5.18,47,7.57,70.53.33,3.22-.45,6.57-.8,9.85-4.01,37.09-8.07,74.18-11.97,111.28-.3,2.9.18,5.99.86,8.86,4.51,19.12,9.1,38.22,13.83,57.29.85,3.42,2.48,6.65,3.9,10.35-1.39,1.58-2.83,3.4-4.46,5.01-20.39,20.14-40.89,40.17-61.15,60.44-3.92,3.92-7.67,5.18-13.27,4.29-13.48-2.14-27.08-3.47-40.65-5-11.42-1.29-12.6-2.79-9.37-13.92,13.17-45.41,26.01-90.92,39.86-136.12,4.5-14.69,3.99-29.59,5.35-44.39,4.43-48.43,8.21-96.93,11.88-145.43.51-6.79-.71-13.78-1.61-20.61-3.15-24.11-6.51-48.19-9.78-72.28-1.43-10.52-2.81-21.05-4.19-31.36Z"/>
  <path class="st0" d="M365.19,1369.61c-7.64-9.31-11.21-21.27-18.98-32.4-5.03,10.29-8.2,20.17-11.59,31.48-9.22-6.25-15.11-15.37-24.41-22.69-6.89,23.87-13.54,46.92-20.07,69.57-6.62.17-7.37-3.25-7.4-7.24-.05-5.33-.1-10.66-.12-16-.08-22-.15-43.99-.23-65.99,0-2.63,0-5.26,0-9.58-11.15,4.18-21.55,6.77-30.22,14-2.91-2.28-2.72-4.42-1.59-7.18,10.18-24.96,20.25-49.97,30.33-74.97.35-.87.4-1.87,1.08-5.21-10.85,8.08-20.35,14.78-29.34,22.21-3.43,2.83-3.34,2.93-8.18,2.13,10.27-22.64,16.84-46.64,25.67-69.81,1.99-5.22,2.07-10.21,1.02-15.62-6.98-35.96-13.79-71.95-20.6-107.94-.55-2.89-.65-5.87-1.1-10.1,7.63-2.6,14.92-5.84,22.55-7.51,11.83-2.59,21.13-8.64,29.94-16.76,30.39-28,61.22-55.51,91.92-83.18,1.71-1.54,3.56-3.12,5.62-4.04,20.06-8.97,40.16-17.83,60.3-26.61,2.14-.94,4.58-1.2,8.59-2.21-1.63,4-2.35,6.11-3.33,8.09-6.5,13.14-13.25,26.15-19.51,39.4-3.61,7.65-8.35,13.49-15.6,18.51-23.55,16.31-45.83,34.47-69.62,50.41-15.7,10.52-26.89,23.07-31.28,41.63-1.44,6.08-4.24,11.83-7.04,19.4,13.25-1.73,25.3-3.31,37.36-4.89.41.72.83,1.43,1.24,2.15-2.01,2.83-3.84,5.81-6.05,8.47-9.82,11.77-19.37,23.8-29.78,35.03-5.43,5.86-6.3,11.42-4.48,18.83,4.21,17.13,7.91,34.4,11.34,51.71.77,3.89,2.25,6.7,5.04,9.26,8.11,7.43,16.03,15.06,24.18,22.45,3.16,2.87,4.6,5.98,4.71,10.41.89,35.31,2.07,70.62,3.06,105.93.08,2.73-.58,5.48-.9,8.23-.84.22-1.68.43-2.52.65Z"/>
  <path class="st0" d="M755.02,888.03c-2.14,3.36-3.94,6.42-5.95,9.33-17.83,25.74-35.61,51.51-53.62,77.13-3.54,5.04-5.89,10.21-6.72,16.34-6.13,45.54-11.79,91.15-18.95,136.53-2.89,18.33-.28,35.75,2.67,53.45,4.43,26.6,8.95,53.18,13.42,79.77.28,1.64-.07,3.94.89,4.82,6.11,5.61,2.72,11.68,1.12,17.56-8.12,29.87-16.33,59.72-24.61,89.55-1.01,3.65-2.6,7.14-4.04,11.04-5.97-1.85-6.26-6.41-7.39-9.84-2.43-7.34-6.8-12.45-13.49-16.44-11.66-6.96-22.86-14.68-35.1-22.64-6.65,13.23-12.84,25.53-19.64,39.06-16.57-12.01-31.84-23.06-47.85-34.66-9.24,12.26-16.13,25.5-25.85,37.68-2.52-2.91-4.24-4.45-5.41-6.33-4.2-6.8-8.31-13.66-12.28-20.6-3.2-5.59-2.71-9.61,2.29-12.89,15.31-10.05,30.72-19.95,46.37-29.45,2.47-1.5,6.41-1.11,9.6-.82,7.28.67,14.51,1.81,23.1,2.94,6.31-15.75,12.68-31.64,19.42-48.46,8.13,3.55,15.49,6.46,22.58,9.95,6.18,3.03,12.32,4.32,19.26,3.46,8.52-1.06,17.16-1.25,26.8-1.89-1.4-3.48-2.19-5.88-3.3-8.1-8-16.1-16.23-32.09-24-48.31-1.61-3.37-2.9-7.81-2.13-11.26,4.38-19.52,1.06-38.28-4.05-57.08-6.54-24.06-12.72-48.22-18.9-72.38-.53-2.06-.27-4.59.42-6.64,9.22-27.49,16.79-55.42,22.75-83.79.58-2.76,2.56-5.25,4-7.8,1.63-2.89,4.22-5.52,4.91-8.59,2-8.91,8.36-14.75,13.32-21.77,10.53-14.9,20.79-30.15,29.5-46.16,9.01-16.57,8.15-17.11,26.63-16.35,13.97.57,27.92,1.35,41.88,2.06.26.01.5.33,2.32,1.61Z"/>
  <path class="st0" d="M524.01,1567.38c14.95,18.14,31.86,31.58,44.8,48.46-.38.76-.77,1.52-1.15,2.27-3.06-.32-6.19-.32-9.16-1.01-9.72-2.29-19.45-4.59-29.03-7.4-3.36-.99-6.56-3.1-9.39-5.28-19.52-15.06-38.92-30.29-58.38-45.44-2.75-2.14-5.61-4.15-9.85-5.19,15.93,37.18,31.86,74.35,48.11,112.28-1.98.39-3.8,1.2-5.49.99-8.59-1.08-17.58-1.18-25.59-4.02-7.97-2.83-12.7-11-19.05-16.61-28.98-25.59-57.66-51.49-86.5-77.24-3.31-2.96-6-5.66-5.5-10.89.33-3.43-1.45-7.1-2.47-10.61-14.67-50.52-29.38-101.04-44.02-151.57-.96-3.31-1.47-6.75-.99-10.69,8.15,5.81,12.37,14.41,17.89,21.91,5.48,7.45,10.63,15.15,15.92,22.75.67-.18,1.34-.36,2.01-.54-2.24-15.35-4.48-30.7-7.06-48.42,16.27,6.45,30.08,12.92,44.51,17.35,14.23,4.36,29.1,6.65,42.14,9.51,9.07,22.1,17.62,42.94,26.18,63.8,12.74,1.49,24.57,2.87,36.52,4.26,4.29,11.83,10.24,22.41,13.83,33.85-.72.57-1.44,1.13-2.16,1.7-3.07-1.36-6.15-2.73-9.22-4.09-1.02,12.33.76,15.76,10.95,21.07,22.45,11.7,44.9,23.39,67.36,35.07,4.38,2.28,8.94,4.32,11.68,10.27-2.65.27-4.78.9-6.78.61-12.53-1.79-25.02-3.8-37.54-5.68-3.48-.52-6.98-.84-12.57-1.49Z"/>
  <path class="st0" d="M273.2,760.44c17.55-2.71,32.35-8.91,48.69-11.47-17.74,33.12-33.03,65.76-49.63,98.01,13.84,16.51,27.47,32.78,40.15,47.91-1.84,6.13-3.62,10.68-4.56,15.39-6.43,31.98-12.73,63.98-18.92,96-.8,4.12-.68,8.41-1.12,14.45-14.46,7.31-32.17,6.56-49.31,12.23-5.81-49.56-11.49-97.97-17.29-147.33-6.78,3.8-7.46,12.07-13.55,16.25-3.29-4.09-1.65-7.66-.91-10.96,10.77-47.72,21.62-95.43,32.45-143.14,2.73-12.01,5.47-24.01,8.14-36.03.56-2.54.82-5.15,1.47-9.31-9.55,6.13-14.5,15.75-24.71,20.87,0-2.94-.4-4.37.06-5.42,22.4-51.93,44.87-103.83,67.22-155.47,21.77-4.7,42.89-9.27,64.02-13.81,1.3-.28,2.64-.55,3.95-.51,3.91.11,5.52,2.44,3.85,5.93-1.13,2.38-2.86,4.49-4.37,6.68-17.22,24.94-34.46,49.86-51.67,74.81-1.62,2.36-3,4.88-4.92,8.03,17.02,2.73,33.51-.04,49.73,3-.61,1.91-.77,2.99-.98,3-7.6.24-11.21,5.33-14.86,11.15-18.74,29.91-37.76,59.65-56.67,89.46-1.76,2.78-3.43,5.62-6.28,10.3Z"/>
  <path class="st0" d="M844.92,156.78c-1.01,8.75-1.87,16.26-2.86,24.86-6.56-.72-12.4-1.22-18.2-2.03-10.55-1.48-21.05-3.39-31.63-4.63-3.44-.4-7.47-.16-10.54,1.28-60.66,28.3-121.22,56.82-181.8,85.3-.29.14-.52.42-1.31,1.07-.81,13.33,4.55,26.84,3,41.67-11.4-.76-17.87-9.96-27.91-12.99-4.24,3.75-8.71,7.68-13.15,11.64-16.43,14.62-32.69,29.44-49.37,43.77-5.18,4.45-7.75,9.46-8.7,16.03-2.73,18.78-5.68,37.54-8.85,56.25-.73,4.32-.11,9.32-4.95,13.68-4.97-7.31-7.09-15.35-10.45-22.73-3.26-7.16-6.15-14.48-9.89-23.36-11.51,13.24-21.91,25.21-32.31,37.19-10.48,12.08-20.95,24.17-31.43,36.26-10.48,12.08-20.93,24.19-31.45,36.24-10.31,11.81-20.35,23.89-30.98,35.39-.71-.52-1.43-1.04-2.14-1.56,0-1.88-.28-3.8.04-5.63,4.14-23.6,8.19-47.22,12.75-70.74.62-3.18,3.47-6.24,5.95-8.7,38.59-38.22,77.29-76.34,115.97-114.48,23.49-23.16,47.11-46.2,70.42-69.55,6.67-6.68,13.92-11.76,22.6-15.74,41.48-19.01,82.67-38.63,123.95-58.07,46.1-21.71,92.16-43.49,138.3-65.11,2.18-1.02,5.14-1.53,7.44-.99,47.01,10.94,93.97,22.08,140.96,33.14,25.28,5.95,50.58,11.81,75.85,17.78,2.76.65,5.42,1.76,8.26,2.71-.95,6.21-5.05,6.51-8.99,7.08-22.41,3.25-44.76,7-67.25,9.62-19.94,2.33-39.11,7.85-58.61,12.02-4.11.88-9,4.01-13.27-2.31,7.7-9.27,19.35-14.35,28.59-24.67-33.38-6.71-65.41-13.14-98.05-19.7Z"/>
  <path class="st0" d="M469.7,1229.37c7.2-7.49,13.72-14.27,20.24-21.06.79.32,1.57.64,2.36.96.64,36.69,1.28,73.37,1.93,111.09-12.82.15-18.62-11.35-28.78-14.13-5.45,13.69-4.68,28.96-12.61,42.96-18.11-16.34-31.25-35.77-49.1-51.97-9.66,16.81-15.78,34.7-26.52,50.47-3.3-9.82-1.24-19.61-1.22-29.27.02-9.99.7-19.98,1.07-29.97.37-9.99.85-19.98,1.03-29.98.18-9.95.04-19.9.04-31-8.14-2.21-17.05-4.63-27.56-7.49-.37-7.11-.59-15.3-1.3-23.45-.7-8.17-1.89-16.3-2.97-25.37,19.56-6.99,38.25-15.46,52.49-32.86-2.59.45-4.6.59-6.47,1.16-7.65,2.33-15.2,4.97-22.89,7.13-3.71,1.04-7.66,1.26-11.45,1.84-1.95-4.77.99-7.16,2.61-9.76,11.46-18.38,23.07-36.67,34.59-55.01,1.73-2.75,3.26-5.63,5.85-10.14-5.03.54-8.49.74-11.88,1.3-8.87,1.44-17.71,3.15-26.59,4.52-3.41.53-7.31,2.1-9.77-2.14,4.68-6.5,101.15-80.04,110.52-83.64-1.05,3.95-1.64,6.99-2.67,9.86-5.16,14.43-10.63,28.74-15.54,43.25-1.32,3.92-1.98,8.5-1.4,12.55,8.01,55.72,16.3,111.4,24.54,167.09.09.59.53,1.14,1.47,3.05Z"/>
  <path class="st0" d="M547.11,1166.9c-5.3,27.35-10.19,52.45-15.04,77.56-2.21,11.44-4.35,22.89-6.52,34.34-.91,4.82-2.64,8.87-9.92,9.43-2.87-43.77-5.74-87.34-8.6-130.9-.66-.17-1.32-.34-1.98-.52-8.09,10.72-16.19,21.45-23.96,31.74-5.8-1.24-7-4.34-6.74-8.42.34-5.32.77-10.64,1.01-15.96,2.16-48.92,4.28-97.85,6.43-146.77.06-1.26.34-2.5.51-3.66,4.56-1.32,5.41,2.36,6.94,4.57,7.75,11.21,15.33,22.54,22.97,33.82.59-.28,1.17-.56,1.76-.85-5.12-12.33-9.88-24.84-15.48-36.95-5.61-12.12-7.8-26.02-18.78-37.27,11.67-15.48,23.78-31.63,36.06-47.66.78-1.02,2.88-1.03,5.7-1.95,6.81,30.7,10.37,61.33,17.08,93.67,4.53-7.94,8.04-14.11,11.65-20.44,5.39,4.96,37.89,72.64,42.83,88.45-6.12,2.86-8.71-3.07-12.55-5.24-4.29-2.43-8.1-5.7-12.12-8.6l-1.64,1.2c17.38,29.8,34.76,59.6,52.68,90.34-11.09,3.11-20.2-3.24-30.48-.83,10.72,25.33,21.38,50.54,32.94,77.87-4.36-1.42-6.42-1.91-8.33-2.75-5.4-2.36-10.92-4.57-16.04-7.45-2.45-1.38-4.35-3.98-6.07-6.34-12.72-17.52-25.32-35.14-37.99-52.69-1.51-2.1-3.27-4.02-6.33-7.74Z"/>
  <path class="st0" d="M1113.45,1775.6c3.92-2.83,6.91-.7,9.81.27,18.32,6.11,36.88,11.62,54.84,18.67,21.08,8.28,42.78,11.8,65.22,13.13,35.92,2.14,71.79,5.06,107.66,7.85,5.59.43,10.34-.87,15.21-3.44,30.64-16.17,61.28-32.34,92.16-48.04,7.99-4.06,13.5-9.13,17.8-17.33,18.54-35.41,38.04-70.32,57.03-105.49,3.95-7.31,7.56-14.85,10.73-22.52,19.22-46.47,38.16-93.06,57.48-139.49,3.64-8.76,5.73-17.55,6.02-27.04,1.47-48.3,3.1-96.59,4.8-144.88,2.36-66.61,4.82-133.21,7.29-199.81.12-3.18.73-6.35,1.28-10.95,2.61,2.01,4.44,2.8,5.31,4.19,6.41,10.18,10.69,20.4,10.27,33.4-1.57,49.29-.99,98.65-2.6,147.93-1.95,59.61-5.28,119.18-8.09,178.76-.12,2.59-.62,5.3-1.59,7.7-20.46,50.64-41.49,101.04-61.22,151.96-5.44,14.03-11.95,27.34-18.8,40.57-17.15,33.13-34.6,66.11-51.73,99.25-3.33,6.45-7.88,11.31-14.03,15.07-27.85,17.04-55.62,34.22-83.39,51.39-6.17,3.81-11.93,6.83-20.05,6.68-14.25-.27-28.56,1.86-42.83,3.08-19.92,1.7-40.03,2.3-59.66,5.69-10.83,1.87-19.2-1-28.25-5.08-39.47-17.8-79.03-35.41-118.53-53.13-4.38-1.96-9.09-3.59-12.15-8.38Z"/>
  <path class="st0" d="M1390.71,2152.46c-3.17-3.88-4.8-5.5-6-7.4-9.07-14.36-18.22-28.67-26.89-43.27-1.44-2.42-1.45-6.33-.8-9.26,7.68-35.13,15.84-70.15,23.32-105.31,2.06-9.7,2.44-19.77,3.38-29.69,2.97-31.5,6.04-63,8.6-94.54.61-7.47,3.34-11.81,10.17-15.22,16.39-8.17,32.31-17.27,48.43-25.97,2.6-1.4,5.29-2.66,7.7-3.86.98.61,2.01.96,2,1.27-.34,10.22-.98,20.44-1.15,30.66-.3,17.9-2.99,35.77-.09,53.73.54,3.35-1.23,7.15-2.21,10.66-19.72,70.53-39.51,141.05-59.2,211.6-1.43,5.11-2.06,10.43-3.34,15.58-.76,3.03-2.08,5.92-3.91,11Z"/>
  <path class="st0" d="M1345.28,935.42c-1.48,6.7-2.16,13.72-4.61,20.05-5.83,15.07-3.18,27.57,7.01,40.25,11.64,14.49,21.44,30.46,31.87,45.91,1.41,2.08,2.18,4.77,2.63,7.29,3.86,21.29,7.58,42.6,11.36,63.91.34,1.92.84,3.81,1.24,5.61,1.27.57,2.16,1.29,3.05,1.31,12.51.34,19.01,6.93,23.54,18.56,9.18,23.56,19.86,46.53,30.19,69.63,1.78,3.99,2.03,7.35.45,11.37-3.28,8.36-6.12,16.9-9.24,25.33-.64,1.74-1.74,3.3-3.21,6.03-6.4-8.24-1.1-17.53-5.22-25.86-2.7,2.37-5.18,4.38-7.46,6.58-17.02,16.42-34.05,32.84-50.95,49.38-3.73,3.65-7.21,5.72-13.05,5.13-8.89-.91-17.96.14-26.95-.08-2.23-.05-4.42-1.78-6.63-2.74,1.15-1.86,1.92-4.19,3.53-5.51,6.92-5.68,14.08-11.05,21.63-16.92-4.19-7.36-7.86-14.43-12.18-21.08-1.47-2.26-4.35-4.1-6.97-5.02-10.05-3.52-20.18-6.86-30.44-9.68-4.04-1.11-8.58-1.31-12.76-.82-14.88,1.73-29.71,3.88-44.54,6.02-2.22.32-4.84.89-6.38,2.31-8.03,7.4-15.78,15.12-23.62,22.72,3.41,8.37,6.47,15.88,9.62,23.6-7.3-.07-24.77-7.91-40.1-17.6-1.9-12.87-3.91-25.31-5.43-37.81-.37-3.06,0-6.84,1.53-9.38,8.06-13.41,16.56-26.56,25.03-39.72.95-1.48,2.66-2.47,4.03-3.68.67.27,1.34.54,2.01.81-.61,3.31-.87,6.74-1.91,9.91-3.64,11.06-6.76,22.4-11.59,32.95-5.18,11.31-2.97,21.03,3.42,32.03,6.54-6,13.25-11.34,18.95-17.6,8.46-9.3,18.18-14.49,31.02-15.44,13.23-.98,26.3-4.03,39.47-5.98,2.52-.37,5.26-.18,7.75.39,14.28,3.27,28.46,6.95,42.78,10,5.2,1.11,8,3.83,10.08,8.45,4.89,10.84,10.15,21.52,15.86,33.54,20.24-17.51,39.5-34.17,59.31-51.31-3.82-13.34-7.5-26.42-11.37-39.45-.43-1.43-1.74-2.86-3.03-3.73-15.14-10.23-30.35-20.35-46.83-31.36-1.2-12.14-2.62-26.02-3.94-39.91-.88-9.28-1.33-18.62-2.59-27.84-.51-3.77-1.97-7.8-4.16-10.88-13.54-18.98-27.32-37.79-41.26-56.47-2.17-2.9-3.12-5.42-2.77-9.04,1.13-11.93,1.75-23.91,2.83-35.85.23-2.48.86-5.77,2.56-7.13,7.21-5.79,15.41-9.92,24.06-12.98.8.6,1.61,1.21,2.41,1.81Z"/>
  <path class="st0" d="M641.76,2075.37c-.49,1.8-.99,3.39-1.35,5.01-2.82,12.67-5.8,25.31-8.34,38.03-1.06,5.31-3.63,8.99-8.11,11.91-15.91,10.36-31.63,20.99-47.53,31.36-7.03,4.58-8.73,4.2-12.27-3.06-16.94-34.7-33.68-69.51-50.67-104.19-2.13-4.35-1.96-7.95.05-12.24,5.37-11.45,10.24-23.13,15.45-34.66,3.29-7.28,4.4-7.89,12.29-6.39,22.89,4.35,45.75,8.85,68.63,13.26,3.74.72,6.66,1.99,8.36,6.03,7.23,17.18,14.79,34.22,22.22,51.32.52,1.2.89,2.48,1.29,3.61Z"/>
  <path class="st0" d="M1443.08,1444.34h24.72c-6.37,24.29-12.49,47.63-18.33,69.91-5.32,1.24-9.86,1.64-13.84,3.33-22.93,9.77-45.7,19.9-68.61,29.71-2.3.98-5.24,1.01-7.81.74-57.93-5.99-115.86-12.03-173.77-18.26-3.03-.33-6.08-2.03-8.76-3.69-5.91-3.66-11.36-8.12-17.41-11.5-15.11-8.44-30.37-16.61-45.74-24.57-4.74-2.45-10.01-3.88-15.88-6.1.95-1.12,1.98-3.07,3.6-4.11,7.55-4.87,15.32-9.4,22.9-14.23,3.87-2.47,7.5-5.31,11.7-8.31,3.41,1.64,3.82,5.64,4.06,8.96,1.09,14.91,9.14,22.23,23.72,23.61,4.58.43,9.09,2.03,13.52,3.46,24.95,8.01,50.44,11.03,76.67,10.83,30.62-.23,61.25,1.32,91.88,1.74,5.52.08,11.25-.96,16.56-2.55,12.1-3.63,24.08-7.72,35.95-12.06,3.59-1.31,7.26-3.49,9.87-6.24,10.1-10.61,19.86-21.54,29.58-32.5,2.14-2.41,3.62-5.41,5.42-8.17Z"/>
  <path class="st0" d="M1206.87,904.48c-3.82,11.84-6.94,22.27-10.71,32.46-.61,1.66-4.02,2.89-6.28,3.16-2.15.26-4.49-.96-6.73-1.6-15.68-4.46-31.47-8.58-47.01-13.49-18.5-5.84-37.17-9.94-56.68-10.31-15.3-.29-30.58-1.68-45.89-2.23-3.86-.14-8.09.36-11.6,1.85-14.37,6.09-28.48,12.76-42.78,19.01-2.63,1.15-5.67,1.38-9.46,2.25,1.82-12.19-8.07-16.96-13.91-24.5,12.16-11.26,24.19-22.65,36.6-33.61,1.83-1.61,5.5-1.84,8.23-1.62,14.59,1.21,29.24,2.2,43.71,4.35,15.54,2.31,30.47-1.44,45.61-3.02,15.58-1.63,31.01-4.23,45.51-10.58,4.66-2.04,9.04-1.13,13.51.71,9.55,3.94,19.13,7.81,29.82,6.98,3.39-.26,5.66,1.35,6.9,4.56,1.2,3.1,2.61,6.12,3.86,9.2,3.13,7.71,5.17,16.37,17.29,16.42Z"/>
  <path class="st0" d="M1403.19,1474.21c-7.4-4.41-8.38-11.22-8.02-18.34.76-14.96,1.8-29.9,2.75-45.29-8.62,0-17.49-.07-26.35.01-54.66.51-108.54,9.57-162.78,14.74-4.97.47-10.51,2.58-15.49-3.04,2.13-1.53,3.69-3.19,5.6-3.93,32.61-12.56,65.24-25.07,97.93-37.43,5.61-2.12,11.41-2.61,17.57-1.48,15.38,2.82,30.85,5.22,46.34,7.37,3.76.52,8.05.23,11.56-1.1,11.5-4.35,22.73-9.43,34.14-14.03,1.96-.79,4.63-1.46,6.44-.78,20.24,7.61,40.38,15.49,60.52,23.35.52.2.82.98,1.71,2.11-6.94,3.52-7.35,10.61-9.13,17.01q-3.75,13.45-17.21,14.71c-3.91.36-7.82.68-12.43,1.09.31-8.83-4.04-16.24-10.07-19.57-5.2-2.87-13.25-.6-20.04-.6-.08.69-.16,1.39-.25,2.08,4.53,1.16,9.05,2.33,14.62,3.75,0,9.01-1.02,18.38.23,27.43,2.14,15.55-7.58,23.46-17.64,31.92Z"/>
  <path class="st0" d="M591.89,1050.73c-9.88-28.02-19.42-55.1-29.44-83.51-6.36,5.45-11.7,10.04-17.05,14.62-.73-.29-1.47-.58-2.2-.87v-55.83c6.7-1.75,14.35-3.71,21.98-5.75,27.32-7.31,54.63-14.64,81.94-21.97,5.36-1.44,10.73-2.72,18.13-1.56-2.31,4.28-3.79,7.44-5.63,10.37-17.86,28.48-35.7,56.98-53.77,85.33-3.54,5.54-5.57,11.14-5.52,17.73.07,9.32-.3,18.63-.5,27.95-.11,5.03-.34,10.01-7.95,13.49Z"/>
  <path class="st0" d="M414.79,1390.07c4.49-9.83,10.14-17.84,16.02-27.3,11.83,6.18,23.42,11.79,34.48,18.31,3.1,1.83,4.53,6.41,6.86,9.63,15.43,21.3,30.9,42.57,46.36,63.85,4.28,5.89,8.13,11.82,10.69,18.91,3.71,10.28,9.36,19.85,13.85,29.87,1.85,4.13,4.9,5.82,8.95,7.05,11.37,3.44,22.65,7.2,35.13,11.21-1.87,1.92-2.83,3.73-4.27,4.26-9.04,3.37-18.21,6.37-27.28,9.66-4.88,1.77-8.95.98-12.88-2.49-6.74-5.94-13.95-11.37-20.53-17.48-2.81-2.61-5.04-6.15-6.66-9.67-5-10.88-9.79-21.87-14.23-33-2.2-5.51-5.83-8.08-11.41-9.83-8.85-2.77-17.3-6.81-25.98-10.18-4.59-1.78-6.23-5.72-7.73-9.82-4.56-12.5-9.36-24.93-13.51-37.57-1.76-5.37-4.81-8.24-10.09-9.64-5.43-1.45-10.72-3.45-17.78-5.77Z"/>
  <path class="st0" d="M1218.89,2530.11c-8.73-14.29-16.21-26.82-24-39.14-3.12-4.93-4.65-9.39-3.36-15.65,1.86-9.07,2.14-18.52,2.45-27.83.18-5.29,1.6-9.75,4.87-13.76.21-.26.4-.53.59-.8,7.1-10.05,12.4-22.44,21.72-29.61,13.27-10.22,29.49-16.61,44.47-24.6.5-.27,1.27-.03,2.35-.03,3.71,3.02,1.13,6.51.05,9.7-6.59,19.56-13.3,39.07-19.97,58.6-8.28,24.26-16.52,48.52-24.86,72.76-1.13,3.28-2.67,6.41-4.32,10.34Z"/>
  <path class="st0" d="M1054.72,1553.41c-14.52-33.49-28.77-66.33-43.56-100.44,1.25-2.01,3.35-5.34,5.4-8.71,12.81-21.04,25.71-42.03,38.34-63.19,2.63-4.41,5.48-8.32,10.15-10.55,16.08-7.68,26-20.43,33.33-36.54,9.37-20.57,20.92-40.14,30.77-60.51,3.78-7.82,8.81-12.87,17.04-15.06,3.37-.9,6.66-2.11,9.98-3.18l1.64,1.67c-1.6,3.71-2.53,7.94-4.91,11.06-17.32,22.71-29.14,48.33-40.44,74.31-11.89,27.34-12.22,27.12-36.22,44.35-3.9,2.8-7.49,6.51-10.14,10.52-10.82,16.39-21.08,33.15-31.86,49.58-2.82,4.3-3.39,8.2-1.99,13.08,6.85,24,13.37,48.09,20.21,72.09,1.45,5.1,3.75,9.95,5.67,14.91,1.3,3.36.93,5.88-3.4,6.63Z"/>
  <path class="st0" d="M920.46,1026.8c9.18-17.59,18.91-36.53,29.01-55.27,1.21-2.24,4.21-4.2,6.76-4.9,33.38-9.21,66.82-18.21,100.28-27.11,2-.53,4.68-.35,6.5.58,22.58,11.45,45.06,23.08,67.53,34.75,1.33.69,2.32,2.03,4.06,3.6-4.63,3.85-8.65,1.65-12.46.43-18.07-5.82-36.29-11.23-54.06-17.86-9.99-3.73-18.83-3.64-28.76.2-13.93,5.38-28.61,8.76-42.63,13.92-8.7,3.2-16.97,7.77-25.02,12.44-2.41,1.4-4.16,5-4.93,7.93-2.02,7.72-3.49,15.6-4.89,23.46-.93,5.22-3.06,9.1-7.94,11.85-6.66,3.75-12.82,8.39-19.35,12.39-6.4,3.92-8.75,2.67-10.24-4.42-.76-3.63-2.26-7.1-3.86-11.98Z"/>
  <path class="st0" d="M1384.66,903.8c-4.41-3.85-4.02-6.69-1.41-9.63,11.06-12.43,22.09-24.87,33.18-37.27.85-.95,2.01-2.06,3.16-2.24,18.38-2.89,33.44-13.54,49.87-21,5.83-2.64,11.49-5,18.68-4.57,9.13.54,18.52-1.47,27.64-3.21,8.69-1.66,15.23-.41,19.89,8.06,2.68,4.88,7.04,8.81,10.48,13.3,1.55,2.01,2.71,4.32,4.83,7.78-10.44,3.57-19.12,8.95-29.86,7.8-11.28-1.21-22.37-1.26-33.55,2.08-18.46,5.52-37.23,10.01-55.8,15.17-4.11,1.14-8.09,2.96-11.89,4.94-11.75,6.12-23.39,12.46-35.23,18.8Z"/>
  <path class="st0" d="M1490.25,1553.18c.84-5.16,1.25-8.3,1.86-11.41,11.96-60.7,23.88-121.41,36.02-182.07,1.15-5.74.34-10.95-.56-16.58-2.77-17.33-11.48-29.43-27.28-37.53-10.58-5.42-20.03-13.04-30.91-20.29,3.75-10.03-3.7-21.5,4.26-32.24,2.72,2.29,4.58,3.64,6.17,5.24,20.2,20.27,40.28,40.65,60.6,60.8,3.83,3.8,4.98,7.18,4.48,12.93-1.39,16.13-1.15,32.4-1.77,48.61-.11,2.93-1.13,5.86-1.93,8.74-14.48,51.55-28.98,103.1-43.54,154.63-.84,2.97-1.07,6.54-7.4,9.16Z"/>
  <path class="st0" d="M1396.06,955.68c.22-7.66,4.13-9.83,8.41-11.96,23.23-11.53,46.71-22.62,69.45-35.04,10.35-5.65,19.63-7.22,30.91-3.56,11.65,3.78,23.92,5.61,35.89,8.46,2.27.54,4.36,1.82,7.25,3.08-5.02,5.7-10.33,3.28-14.97,3.66-4.79.4-9.65.09-14.48.09-.21.76-.42,1.51-.63,2.27,6.69,3.21,13.18,6.99,20.12,9.5,8.25,2.98,11.84,7.92,12.13,16.86.33,10.26,2.61,20.44,3.51,30.7.34,3.87,3.33,9.2-2.36,11.46-4.93,1.95-6.78-3.18-9.22-5.97-10.94-12.53-21.17-25.71-32.63-37.74-10-10.5-22.41-16.08-37.53-11.93-21.48,5.88-42.98,11.68-64.49,17.46-3.41.92-6.89,1.62-11.38,2.66Z"/>
  <path class="st0" d="M1301.33,2323.41c-1.73-4-3.49-7.06-4.42-10.36-3.61-12.8-7.23-25.6-10.21-38.55-.81-3.54-.3-8,1.17-11.35,5.74-13.09,11.8-26.06,18.44-38.72,2-3.82,5.73-7.43,9.56-9.46,14.1-7.46,28.57-14.23,42.93-21.19,1.04-.5,2.33-.48,3.75-.74.35,1.47,1.02,2.59.72,3.25-19.28,41.26-38.63,82.49-58.05,123.68-.48,1.02-1.81,1.64-3.88,3.43Z"/>
  <path class="st0" d="M1343.24,1420.73c3.58,23.27,6.9,44.86,10.33,67.11-19.06,8.56-38.33,7.08-58.59,1.46-2.27-13.37-4.59-27.06-6.91-40.75-.39-2.29-.74-4.59-1.15-6.87-2.18-12.23,4.56-20.41,16.89-20.53,9.63-.1,19.26-.29,28.89-.41,3.25-.04,6.49,0,10.54,0Z"/>
  <path class="st0" d="M903.23,1051.54c2.82-1.79,5.2-3.66,7.86-4.92,4.69-2.22,7.9-.58,8.5,4.59.83,7.2,1.14,14.46,1.66,21.52-10.74,3.64-136.16,12.28-144.7,9.88,2.64-4.99,7.61-5.04,11.78-5.92,17.59-3.72,35.25-7.14,52.88-10.7,3.57-.72,7.11-1.6,12.64-2.85-4.08-1.53-6.35-2.59-8.73-3.24-16.7-4.59-33.43-9.06-50.12-13.66-2.98-.82-5.86-2.01-9.86-3.41,4.49-4.97,8.61-3.08,12.13-2.6,20.13,2.75,40.22,5.79,60.33,8.7,3.91.57,7.84.99,13.19,1.66-8.51-14.21-24.07-21.53-28.63-36.93,8.91,1.07,14.59,6.85,21.16,10.99,6.76,4.26,13.25,8.95,19.88,13.43,6.61,4.46,13.23,8.89,20.02,13.45Z"/>
  <path class="st0" d="M774.09,1646.61c-1.9-2.04-4.02-3.91-5.67-6.14-21.36-28.93-42.58-57.96-64.06-86.8-3.14-4.21-7.3-7.7-11.17-11.33-8.99-8.43-18.09-16.74-27.16-25.08-2.59-2.38-4.97-5.03-2.43-8.58,7.12-9.93,14.46-19.71,22.68-30.85,2.56,3.78,4.28,6,5.65,8.42,14.28,25.2,28.81,50.26,42.67,75.69,13.36,24.51,26.06,49.39,38.95,74.16,1.44,2.76,2.24,5.85,3.33,8.79-.93.57-1.87,1.14-2.8,1.72Z"/>
  <path class="st0" d="M987.17,1124.38c7.79-.72,15.28-1.56,22.8-2.08,21.23-1.47,42.48-2.76,63.71-4.28,2.93-.21,5.85-1.11,8.68-1.98,16.53-5.04,33.03-10.19,49.56-15.24,3.11-.95,6.29-1.64,9.32-2.42,5.08,10.43,3.05,17.25-6.12,21.24-17.37,7.57-34.75,15.13-52.25,22.39-3.21,1.33-7.12,2.14-10.5,1.68-26.02-3.56-51.98-7.52-77.97-11.28-3.77-.55-7.44-.91-7.22-8.04Z"/>
  <path class="st0" d="M988.82,1098.69c2.06-6.16,5.69-6.11,8.66-6.99,34.79-10.36,69.51-20.95,104.42-30.88,9.19-2.61,16.98-7.44,25.18-11.78,3.03-1.6,6.22-2.9,10.44-4.84.17,8.65-6.26,9.68-9.69,13-3.52,3.4-7.65,6.17-13.22,10.56,12.17,2.71,22.68,1.94,32.99,2.86,10.12.91,20.27,1.61,30.33,2.4.39,6.33-2.97,7.35-6.83,7.72-9.95.93-19.9,1.89-29.86,2.68-26.24,2.09-52.52,3.71-78.7,6.26-19.22,1.87-38.32,4.95-57.48,7.41-4.87.63-9.77.97-16.23,1.6Z"/>
  <path class="st0" d="M1276.53,1420.7c3.58,22.79,8.1,45.43,10.37,70.07-15.55-1.25-29.32-2.35-44.01-3.53-2.02-13.59-6.69-26.56-2.47-40.34,1.07-3.49,1.66-7.13,2.55-10.69,3.3-13.22-.04-10.78,15.3-13.98,4.87-1.02,9.81-1.68,14.72-2.44.59-.09,1.26.3,3.54.9Z"/>
  <path class="st0" d="M954.6,1081.05c-3.89,2.52-6.78,4.59-9.85,6.35-21.63,12.42-43.4,24.6-64.87,37.3-5.01,2.96-9.71,7.03-13.4,11.54-20.44,24.97-40.49,50.25-60.76,75.36-2.14,2.65-3.57,6.5-8.13,6.58-2.79-3.98.43-6.42,1.96-8.96,11.19-18.49,22.52-36.91,33.8-55.35,6.6-10.78,13.36-21.46,19.67-32.41,2.13-3.7,4.71-5.96,8.64-7.57,26.77-10.96,53.41-22.21,80.16-33.22,3.41-1.4,6.99-4.32,12.76.38Z"/>
  <path class="st0" d="M1061.23,1003.38c1.6-2.8,3.2-5.59,5.37-9.37-3.37-4.15-7.31-8.58-10.68-13.39-1.3-1.85-2.51-5.23-1.67-6.81,1.87-3.54,5.08-1.6,7.76-.18,5.29,2.8,10.51,5.75,15.89,8.36,4.07,1.98,5.92,4.83,5.77,9.43-.24,7.29-.06,14.59-.06,21.62-17.38,8.47-53.27,11.41-77.43,6.34-2.43-8.85-4.96-18.06-7.78-28.29,7.41-4.61,14.17-10.68,25.77-11.97-2.77,8.75-5,15.81-7.4,23.39,7.97,3.59,15.47,7.49,24.87,6.26-5.29-2.68-10.59-5.37-16.19-8.21,1.68-7.7,7.04-12.26,11.37-17.93,8.59,1.74,15.05,7.13,21.6,11.91,2.05,1.49,1.96,5.91,2.84,8.97-6.26-3.34-9.1,1.77-12.64,5.47,2.42.36,4.78.11,6.7-.94,2.18-1.18,3.97-3.07,5.93-4.66Z"/>
  <path class="st0" d="M926.83,910.58c11.07,7.42,22.3,14.95,34.75,23.3-13.16,10.74-29.19,15.14-41.96,24.93-12.52,9.6-25.01,19.41-39.71,28-1.05-6.57-2.33-11.5.05-16.58,4.61-9.85,9.69-19.53,13.51-29.69,2.8-7.46,8.2-11.66,14.25-15.83,6.26-4.32,12.25-9.03,19.11-14.13Z"/>
  <path class="st0" d="M1337.09,1262.78c-1.68,4.07-4.89,2.9-7.76,2.69-23.66-1.79-47.12-.93-70.18,5.22-3.54.94-7.04,2.01-10.59,2.89-5.12,1.27-9.38-.1-11.86-4.9-5.56-10.79-7.53-10.43,3.63-19.2,13.51-10.62,27-14.39,44.81-12.31,20.27,2.37,35.09,12.95,50.85,23.15.67.43.78,1.71,1.1,2.46Z"/>
  <path class="st0" d="M1462.21,971.72c14.01,2.1,12.28-.62,18.74-13.07-3.15-4.52-6.44-9.24-10.16-14.58,7.82-3.86,14.77-1.46,22.14-2.5,4.03,7.61,8.14,14.8,11.63,22.28.97,2.07.64,5.13,0,7.5-1.38,5.09-3.34,10.02-5.18,15.37-2.28.26-4.54.73-6.81.75-18.33.16-36.67,0-54.99.46-6.1.15-9.46-1.96-10.78-7.76-.37-1.62-.98-3.18-1.52-4.76-4.88-14.26-1.78-20.32,14.34-26.88.3,1.97.98,3.81.78,5.55-1.58,14,8.79,22.15,22.17,17.31l-.36.33Z"/>
  <path class="st0" d="M989.17,1072.25c2.3,5.81-1.61,8.1-4.3,10.74-13.55,13.27-27.27,26.36-40.77,39.68-4.72,4.66-9.25,9.57-13.41,14.74-19.18,23.86-38.17,47.86-57.29,71.76-2.16,2.7-4.68,5.11-7.32,7.98-3.48-3.91-2.09-6.48-.47-8.98,4.34-6.7,8.7-13.39,13.08-20.06,12.21-18.64,24.5-37.24,36.59-55.96,2.48-3.84,4.13-8.21,6.37-12.22.93-1.67,2.1-3.42,3.62-4.49,20.1-14.21,40.27-28.32,60.46-42.4.73-.51,1.86-.44,3.45-.78Z"/>
  <path class="st0" d="M1611.47,1086.71c-5.5,4.07-8.85,1.49-12.21-.58-9.36-5.75-18.56-11.76-28.07-17.23-3.95-2.27-8.39-4.09-12.84-5.03-20.81-4.43-41.68-8.61-62.58-12.6-5.2-.99-10.59-1.23-15.9-1.31-7.1-.1-13.64-1.69-20.87-6.29,2.36-1.38,3.94-2.94,5.73-3.25,6.88-1.18,14.47-.51,20.61-3.22,9.94-4.38,18.78-1.08,27.98.94,15.92,3.5,31.62,8.67,47.71,10.42,11.49,1.25,18.68,7.09,26.09,14.2,6.25,5.99,12.7,11.76,18.97,17.73,1.85,1.76,3.37,3.87,5.38,6.21Z"/>
  <path class="st0" d="M1357.45,1417.99h31.55c.21,2.15.65,4.34.61,6.53-.31,14.97-.96,29.94-.97,44.91,0,5.56-1.65,9.58-6.27,12.56-1.67,1.07-3.1,2.51-4.65,3.77-7.75,6.24-10.21,5.84-14.97-3.12-1.52-2.85-2.49-6.15-2.98-9.36-1.98-12.82-4.17-25.63-5.25-38.54-.44-5.24,1.79-10.7,2.93-16.73Z"/>
  <path class="st0" d="M1471.66,1116.4c-4.26-4.13-6.93-7.4-10.24-9.79-9.96-7.21-20.18-14.05-30.25-21.09-2.65-1.85-5.14-3.92-7.49-5.73,1.98-6.44,5.55-5.64,9.7-3.97,12.32,4.97,24.8,9.56,37.02,14.76,6.05,2.57,11.76,3.36,18.31,2.01,11.37-2.34,22.94-3.73,34.42-5.56,7.46-1.19,14.21.55,20.74,4.27-.42,5.53-4.72,5.56-7.94,6.51-16.88,4.98-33.81,9.79-50.72,14.67-5,1.44-9.99,2.9-13.55,3.93Z"/>
  <path class="st0" d="M1232.5,1430.14c-.49,2.73-.41,5.1-1.35,6.94-4.21,8.25-4.93,17.05-5.12,26.08-.18,8.61-.78,17.22-1.37,25.82-.15,2.2-.94,4.36-1.75,7.92-8.76-2.54-17.01-4.69-25.05-7.46-1.6-.55-3.17-3.4-3.4-5.35-1.2-10.2-1.95-20.46-2.89-30.69-.37-4,.7-7.22,4.62-8.98,10.58-4.76,21.14-9.55,31.76-14.21,1.04-.46,2.45-.06,4.54-.06Z"/>
  <path class="st0" d="M1208.58,972.48c0,11.86.42,22.1-.15,32.29-.37,6.51-11.47,11.19-16.99,7.49-8.28-5.57-16.35-11.46-24.49-17.24q-9.07-6.44-4.64-18.51c14.47-1.26,29.23-2.55,46.27-4.03Z"/>
  <path class="st0" d="M571.64,1465.58c4.29-15.5,7.57-31.66,13.09-47.16.72-.07,1.43-.14,2.15-.21.96,2.15,2.4,4.22,2.79,6.48.84,4.91,1.75,9.94,1.55,14.88-.61,14.99,5.24,27.81,12.4,40.35,2.8,4.91,5.4,9.98,7.48,15.22.68,1.7.09,5.17-1.16,6.03-1.33.92-4.73.45-6.17-.72-3.33-2.69-6.05-6.15-8.97-9.35-7.38-8.11-14.74-16.24-23.16-25.52Z"/>
  <path class="st0" d="M653.27,1489.73c-1.46-4.04-2.78-6.51-3.22-9.13-1.43-8.54-2.96-17.1-3.62-25.72-.51-6.65-2.87-12.05-6.88-17.22-4.78-6.17-8.99-12.79-14.52-20.77,3.79.27,5.74-.06,7.25.6,8.85,3.87,17.57,8.03,26.39,11.96,3.7,1.65,6.33,3.98,5.63,8.32-2.61,16.09-5.36,32.16-8.11,48.23-.1.57-.78,1.03-2.93,3.72Z"/>
  <path class="st0" d="M1036.54,1033.29c-7.41,4.61-61.22,16.65-71.49,16.15-.2-1.38-1.13-3.33-.52-4.34,3.93-6.52,8.1-12.91,12.47-19.15.77-1.11,2.91-2.02,4.27-1.85,17.44,2.16,34.86,4.52,52.28,6.93.83.11,1.54,1.12,3.01,2.26Z"/>
  <path class="st0" d="M608.71,1418.52c3.52,4.63,5.73,7.33,7.71,10.18,4.57,6.56,10.65,12.65,13.06,19.95,2.25,6.8.51,14.91.6,22.44.06,5.33.36,10.65.32,15.98-.01,1.78-.72,3.55-1.35,6.44-1.82-1.51-3.06-2.07-3.54-3.02-5.82-11.6-11.73-23.16-17.12-34.95-1.55-3.39-1.99-7.48-2.16-11.28-.24-5.31.13-10.66.5-15.97.17-2.44.95-4.85,1.98-9.76Z"/>
  <path class="st0" d="M505.28,1389.63c11.68,3.95,43.19,20.8,48.35,25.89-3.55,7.25-11.43,9.43-17.65,15.25-5.75-4.61-11.36-9.09-16.95-13.6-4.38-3.53-8.76-7.07-13.09-10.65-8.42-6.95-8.45-7.5-.65-16.89Z"/>
  <path class="st0" d="M1188.67,1484.38c-9.51-2.24-16.85-4.01-24.21-5.67-3.42-.77-4.95-2.88-5.21-6.27-.49-6.23-1.1-12.45-1.71-19.24,8.2-2.75,15.86-5.32,24.59-8.25,4.23,12.72,4.03,25.15,6.55,39.44Z"/>
  <path class="st0" d="M972.54,1473.39c-.68-9.47-1.61-18.94-1.88-28.43-.07-2.26,1.53-5.08,3.22-6.81,8.37-8.59,17.02-16.9,25.56-25.31,2.19-2.16,4.43-4.07,8.34-1.88-1.37,8.23-7.61,13.72-11.14,20.59-3.79,7.36-7.63,14.69-11.37,22.07-3.46,6.82-5.09,14.63-9.73,20.8-1-.34-2.01-.69-3.01-1.03Z"/>
  <path class="st0" d="M1105.83,1014.07c0-2.85-.66-5.04.12-6.45,3.1-5.67,1.31-10-2.67-14.32-2.85-3.09-5.21-6.63-8.51-10.91,2.72-.92,4.26-2.03,5.47-1.74,5.03,1.19,35.71,21.57,40.28,26.81-11.27,4.23-23.15,2.14-34.69,6.62Z"/>
  <path class="st0" d="M1379.73,992.63c6.53-4.47,12.9-9.21,19.7-13.22,1.66-.98,5.46-.44,7.03.88,7.31,6.14,14.18,12.81,22.76,20.71-3.91.41-6.32,1.21-8.53.81-13.43-2.38-27.53-1.07-40.48-6.03-.16-1.05-.32-2.1-.48-3.15Z"/>
  <path class="st0" d="M1462.58,971.4c-8.5.31-13.33-5.47-19.82-11.46,5.25-4.16,9.65-8.07,14.51-11.26,1.51-.99,4.7-.81,6.39.14,3.66,2.05,6.84,4.94,10.55,7.73-4.37,5.53-8.19,10.36-12,15.19,0-.01.37-.34.37-.34Z"/>
  <path class="st0" d="M1061.23,1003.38c-1.96,1.58-3.75,3.47-5.93,4.66-1.92,1.04-4.28,1.3-6.7.94,3.54-3.7,6.38-8.81,12.64-5.47.01.03-.01-.12-.01-.12Z"/>
</svg>