<?xml version="1.0" encoding="UTF-8"?>
<svg id="Layer_0_xA0_Image" xmlns="http://www.w3.org/2000/svg" version="1.1" viewBox="0 0 2732 2048">
  <!-- Generator: Adobe Illustrator 30.2.1, SVG Export Plug-In . SVG Version: 2.1.1 Build 1)  -->
  <defs>
    <style>
      .st0 {
        fill: #5b5347;
      }
    </style>
  </defs>
  <path class="st0" d="M1646.14,1856.47c2.48-36.88,4.99-72.37,7.15-107.88.42-6.89,2.88-11.55,8.59-15.64,20.32-14.54,40.31-29.56,60.34-44.49,6.62-4.94,13.01-10.19,20.03-15.71,4.59-.01,6.29,4.54,8.75,7.85,33.19,44.67,66.3,89.4,99.43,134.11,11.71,15.8,23.42,31.59,35.13,47.38,1.39,1.87,2.75,3.77,4.1,5.67,2.26,3.17,1.75,6.34-.32,9.28-2.13,3.04-5.05,2.49-8.08,1.41-10.67-3.8-21.37-7.49-32.05-11.27-21.35-7.56-42.75-14.98-63.98-22.87-5.27-1.96-9.2-1.33-13.85,1.58-71.74,44.89-143.62,89.56-215.32,134.53-5.24,3.29-9.37,8.36-13.94,12.69-1.93,1.83-3.44,4.14-5.5,5.79-4.26,3.43-8.33,1.87-9.54-3.57-.42-1.92-.34-3.97-.34-5.96.03-40.66.06-81.32.13-121.98.02-10.74.47-11.24,11.33-11.22,32.33.05,64.65.19,96.98.29,3.91.01,7.81,0,10.92,0Z"/>
  <path class="st0" d="M2072.72,502.44c-34.83,8.79-68.71,17.08-102.41,26.02-8.56,2.27-15,.92-22.09-4.34-21.93-16.29-44.36-31.91-66.62-47.75-2.7-1.92-5.5-3.76-8.4-5.36-6.19-3.39-6.74-4.58-2.66-10.49,7.38-10.69,15.06-21.18,22.6-31.77,36.92-51.84,73.83-103.69,110.76-155.52,1.74-2.44,3.24-5.31,5.57-6.97,1.89-1.35,5.23-2.18,7.24-1.41,1.87.71,3.35,3.66,4.05,5.92.66,2.11.08,4.62.02,6.95-.82,31.65-1.49,63.3-2.61,94.94-.22,6.27,1.52,10.35,6.41,14.44,64.42,53.88,128.6,108.03,193.01,161.92,4.75,3.97,10.73,6.5,16.22,9.56,2.9,1.61,6.2,2.58,8.92,4.43,3.74,2.54,3.64,6.43-.11,8.97-1.88,1.28-4.21,1.96-6.41,2.68-39.27,12.75-78.55,25.5-117.85,38.17-8.29,2.67-9.32,2.13-12.12-6.54-10.13-31.37-20.13-62.79-30.2-94.18-1.09-3.39-2.29-6.74-3.29-9.68Z"/>
  <path class="st0" d="M1103.83,1861.18c24.15-28.89,47.48-56.67,70.61-84.61,3.82-4.62,8.3-5.92,13.99-5.93,27.32-.05,54.65-.29,81.97-.59,4.95-.06,9.95-.41,14.83-1.19,4.44-.71,6.21,1.28,6.68,5.17.24,1.98.17,3.99.19,5.99.7,75.64,1.41,151.27,2.07,226.91.05,5.5,1.65,12.28-5.98,14-6.46,1.45-7.9-5.09-10.54-8.88-17.9-25.69-35.72-51.45-53.22-77.42-3.69-5.48-7.71-8.01-14.45-8.47-83.43-5.7-166.83-11.74-250.25-17.54-4.9-.34-9.91.46-14.82,1.09-3.95.5-7.81,1.94-11.76,2.18-2.34.15-5.84-.51-6.88-2.09-1.08-1.64-.28-4.98.52-7.29.73-2.12,2.54-3.87,3.91-5.76,23.33-32.06,46.66-64.11,69.99-96.17.98-1.35,2.02-2.66,2.93-4.04,2.62-3.96,5.87-3.85,9.43-1.46,1.94,1.3,3.79,2.72,5.67,4.09,25.8,18.9,51.6,37.81,77.42,56.69,2.66,1.95,5.42,3.75,7.69,5.32Z"/>
  <path class="st0" d="M490.07,1032.3c32.01,12.8,63.16,25.26,94.32,37.71,2.16.87,4.29,1.85,6.51,2.54,6.23,1.95,9.57,6,11.62,12.36,8.68,26.93,17.84,53.7,26.92,80.5,1.59,4.68,3.65,9.19,5.87,14.71-.48,4.14-5.02,4.52-8.62,5.74-24.59,8.33-49.23,16.53-73.85,24.78-47.34,15.87-94.68,31.76-142.04,47.6-5.23,1.75-11.08,5.36-15.32-1.06-3.77-5.72,2.07-9.12,4.83-12.77,19.1-25.23,38.27-50.41,57.81-75.3,3.98-5.07,4.61-9.57,3.11-15.55-20.2-80.73-40.14-161.53-60.41-242.25-1.67-6.65-5.18-12.86-8-19.19-1.35-3.03-3.49-5.74-4.56-8.85-1.45-4.18,1.06-7.32,5.53-7.12,2.27.1,4.53.95,6.74,1.67,39.26,12.75,78.52,25.5,117.76,38.32,8.29,2.71,8.7,3.52,5.81,12.39-10.22,31.33-20.55,62.63-30.84,93.94-1.12,3.4-2.21,6.8-3.19,9.81Z"/>
  <path class="st0" d="M653.13,515.26c19.36,30.7,38.03,60.58,57.04,90.24,4.1,6.4,4.99,12.16,2.52,19.57-8.82,26.53-16.95,53.29-25.3,79.98-.99,3.16-1.92,6.37-2.53,9.62-1.32,7.01-2.03,7.74-9.16,5.59-17.84-5.4-35.61-11.04-53.39-16.63-54.94-17.27-109.87-34.55-164.81-51.84-2.54-.8-5.09-1.58-7.61-2.45-3.51-1.21-5.49-3.7-5.66-7.42-.2-4.3,2.93-5.53,6.26-6.52,15-4.46,29.99-8.93,44.98-13.39,17.55-5.22,35.04-10.66,52.69-15.51,5.12-1.41,7.75-4.03,9.66-8.78,31.9-79.03,64.02-157.98,95.77-237.07,2.42-6.02,2.5-12.98,3.63-19.51.4-2.29.36-4.72,1.11-6.88,1.3-3.72,4.89-4.91,7.99-2.46,2.29,1.81,4.11,4.32,5.85,6.72,23.9,32.86,47.76,65.76,71.6,98.66,5.54,7.65,5.48,8.39-2.48,14.15-27.79,20.11-55.66,40.13-83.48,60.2-1.6,1.15-3.09,2.46-4.69,3.74Z"/>
  <path class="st0" d="M2244.73,1016.6c-35.09-14.07-68.69-27.68-102.43-40.94-5.75-2.26-8.01-6.37-9.74-11.63-8.13-24.67-16.33-49.32-24.65-73.92-2.01-5.95-4.33-11.84-7.03-17.51-1.95-4.09-.55-6.34,2.97-7.95,2.11-.97,4.38-1.59,6.59-2.33,71.35-23.94,142.71-47.88,214.06-71.81,2.21-.74,4.49-2.11,6.65-1.95,2.72.19,5.82,1.06,7.9,2.71,2.83,2.26,1.62,5.43-.24,8.06-1.35,1.9-2.8,3.73-4.22,5.58-19.27,25.12-38.42,50.32-57.9,75.28-3.64,4.66-4.43,8.77-2.99,14.53,20.46,81.73,40.57,163.55,61.1,245.26,1.66,6.62,5.78,12.61,8.6,18.97,1.65,3.71,6.3,7.19,2.69,11.65-3.44,4.25-8.03,1.64-12.03.35-20.29-6.52-40.55-13.14-60.82-19.74-18.37-5.98-36.74-11.95-55.09-17.97-9.53-3.12-10.08-4.05-6.98-13.53,10.05-30.7,20.21-61.36,30.3-92.05,1.22-3.73,2.22-7.52,3.26-11.07Z"/>
  <path class="st0" d="M662.46,1546.42c36.92-9.24,72.44-18,107.86-27.15,5.74-1.48,9.52.73,13.67,3.71,22.47,16.12,44.97,32.2,67.54,48.18,3.77,2.67,7.76,5.1,11.89,7.15,4.02,1.99,4.38,4.63,2.43,8.09-.98,1.73-2.21,3.32-3.37,4.95-44.07,61.88-88.14,123.76-132.2,185.63-.97,1.36-1.93,2.71-2.9,4.07-2.48,3.5-5.91,4.2-9.72,2.92-3.59-1.2-3.62-4.42-3.56-7.46.17-9.66.38-19.32.63-28.98.61-24.32,1.1-48.64,1.98-72.95.19-5.21-1.35-8.64-5.32-11.96-65.12-54.58-130.13-109.3-195.23-163.91-3.01-2.53-6.62-4.43-10.13-6.27-3.53-1.85-7.55-2.86-10.86-5-2.22-1.44-5.1-4.35-4.9-6.33.21-2.13,3.56-4.07,5.76-5.82.98-.78,2.47-.93,3.74-1.34,38.64-12.53,77.29-25.08,115.94-37.58,9.62-3.11,10.18-2.87,13.38,7.04,10.14,31.37,20.16,62.77,30.26,94.15,1,3.12,2.18,6.18,3.13,8.87Z"/>
  <path class="st0" d="M2081.95,1533.73c-19.38-30.73-38.08-60.62-57.06-90.33-4.06-6.35-5.15-12.09-2.63-19.56,8.72-25.87,16.71-51.99,24.88-78.05,1.28-4.09,2.41-8.32,2.89-12.56.58-5.13,3.43-5.96,7.63-5.1,1.62.33,3.19.95,4.77,1.45,72.75,22.86,145.51,45.71,218.26,68.58,1.91.6,4.29.82,5.54,2.11,1.92,1.97,4.01,4.65,4.18,7.14.12,1.81-2.44,4.39-4.43,5.57-2.5,1.49-5.64,1.91-8.51,2.77-29.7,8.79-59.34,17.75-89.13,26.22-6.1,1.73-9.33,4.79-11.68,10.63-31.33,77.86-62.99,155.59-94.29,233.46-2.43,6.05-2.95,12.89-4.22,19.39-.57,2.93-.43,6.05-1.33,8.84-1.34,4.16-5.22,5.17-8.71,2.44-1.54-1.2-2.75-2.89-3.91-4.5-24.48-33.7-48.96-67.4-73.37-101.15-4.99-6.9-4.81-7.83,2.94-13.44,26.72-19.35,53.51-38.59,80.26-57.89,2.68-1.93,5.26-3.99,7.94-6.02Z"/>
  <path class="st0" d="M1630.96,187.65c-15.44,18.64-30.46,36.79-45.5,54.92-7.87,9.49-15.93,18.82-23.64,28.44-4.05,5.05-8.62,7.29-15.34,7.24-26.32-.19-52.64.18-78.96.48-7.25.08-14.5.65-23.09,1.05-.51-3.98-1.46-8.07-1.51-12.17-.42-34.98-.64-69.96-.98-104.94-.38-39.31-.82-78.62-1.23-117.94-.02-2-.02-4-.09-6-.17-4.6.5-8.82,5.57-10.54,5.2-1.75,7.05,2.47,9.25,5.67,18.54,26.87,37.16,53.69,55.39,80.77,3.52,5.23,7.21,7.47,13.62,7.9,65.81,4.39,131.59,9.16,197.38,13.85,12.96.92,25.91,1.99,38.86,2.98,12.96,1,25.92,2.04,38.66-1.86,3.5-1.07,7.42-2.41,9.84,1.73,2.3,3.92-.52,6.94-2.65,9.89-5.46,7.57-10.96,15.1-16.45,22.64-18.82,25.86-37.63,51.72-56.47,77.56-6.04,8.28-6.4,8.37-14.91,2.16-26.64-19.45-53.22-38.97-79.84-58.44-2.62-1.92-5.37-3.67-7.91-5.4Z"/>
  <path class="st0" d="M1088.88,192.24c-2.43,37.39-4.84,72.91-6.98,108.45-.39,6.51-2.78,11.01-8.2,14.91-21.88,15.77-43.48,31.94-65.11,48.06-4.24,3.16-8.37,6.55-12.12,10.27-3.24,3.23-5.8,2.54-8.41-.35-1.56-1.72-2.9-3.65-4.28-5.52-44.81-60.47-89.62-120.94-134.41-181.43-1.78-2.4-3.83-4.77-4.87-7.49-2.04-5.35,2.16-10.15,7.76-9.04,2.91.58,5.71,1.79,8.53,2.79,29.5,10.43,59.04,20.74,88.44,31.44,5.55,2.02,9.78,1.66,14.83-1.5,71.4-44.72,142.96-89.18,214.35-133.91,4.97-3.12,9.01-7.76,13.35-11.83,2.42-2.27,4.34-5.12,6.89-7.21,4.2-3.42,8.32-1.65,9.25,3.92.43,2.6.24,5.31.24,7.97,0,39.3-.03,78.61-.05,117.91,0,12.88,0,12.93-12.5,12.9-31.97-.09-63.95-.22-95.92-.34-3.58-.01-7.17,0-10.78,0Z"/>
  <path class="st0" d="M1412.11,1921.05c14.68,0,27.63.14,40.57-.05,9.99-.14,19.97-.88,29.96-1.01,7.18-.1,7.87.66,8.15,8.03.61,15.98,1.14,31.96,1.5,47.95.22,9.67-.72,10.76-10.83,11.14-28.3,1.06-56.6,1.86-84.91,2.79-3.6.12-7.19.38-10.9.57,0,8.16-.04,15.69,0,23.22.06,9.74-.33,10.27-9.78,10.73-10.32.5-20.63,1.04-30.96,1.28-9.3.22-10.67-.83-10.94-9.96-.65-21.29-1.12-42.59-1.26-63.9-.28-44.64-.3-89.29-.42-133.93,0-2-.03-4,.12-5.99.29-3.85,2.34-6.15,6.27-6.47,4.98-.4,9.96-.8,14.95-1.04,16.64-.79,33.28-1.49,49.92-2.26,2.28-.11,4.54-.45,7.39-.75.27-2.82.72-5.37.73-7.93.04-9-.11-17.99-.12-26.99,0-12.46,1.51-14.07,13.51-14.32,60.29-1.25,120.58-2.48,180.87-3.71,2.33-.05,4.66-.06,7-.06,4.9-.01,7.5,2.64,7.65,7.34.53,17.65,1.05,35.29,1.2,52.95.04,5.16-4.12,9.24-9.34,10.08-3.27.53-6.64.48-9.97.55-32.98.68-65.95,1.32-98.93,2.01-3.6.08-7.2.39-11.4.63-.22,3.01-.6,5.56-.56,8.1.21,12.99.59,25.98.8,38.97.17,10.36-.29,10.79-10.45,11.02-19.98.45-39.97.86-59.95,1.33-3.28.08-6.55.34-9.9.52v39.15Z"/>
  <path class="st0" d="M1788.71,369.64c-7.39,10.32-14.11,19.81-20.94,29.22-6.78,9.33-9.25,9.78-18.72,3.2-50.33-35-100.63-70.03-150.92-105.09-8.92-6.22-9.24-7.87-3.16-16.76,7.9-11.55,15.93-23.01,23.94-34.48,7.83-11.21,11.74-11.97,22.74-4.33,27.91,19.39,55.78,38.83,83.68,58.23,3.23,2.25,6.56,4.34,10.6,7,4.42-6.34,8.59-12.26,12.71-18.23,4.54-6.58,9.01-13.21,13.55-19.79,6.69-9.71,6.84-9.74,16.25-3.19,15.86,11.04,31.7,22.1,47.57,33.14,2.98,2.08,6.02,4.07,10.27,6.93,7.66-11.11,14.7-22.18,22.23-33.63-2.42-1.92-4.33-3.65-6.45-5.08-15.76-10.6-31.56-21.13-47.34-31.69-1.94-1.3-3.89-2.57-5.74-3.99-3.16-2.41-3.7-5.14-1.32-8.6,9.82-14.27,19.39-28.72,29.31-42.92,4.22-6.04,6.33-6.19,13.33-1.48,23.21,15.64,46.32,31.42,69.47,47.13,3.56,2.42,7.18,4.75,11.56,7.64,4.71-6.94,9.09-13.52,13.61-20,5.06-7.24,6.02-7.45,13.54-2.51,8.63,5.67,17.18,11.47,25.67,17.35,7.75,5.37,8.19,6.81,3.3,14.48-5.54,8.7-11.33,17.25-17.36,25.62-31.94,44.33-63.98,88.59-95.99,132.87-.98,1.35-1.93,2.72-2.93,4.05-5.62,7.46-6.97,7.83-14.63,2.87-11.74-7.6-23.37-15.4-35.05-23.09-7.22-4.75-14.47-9.46-22.75-14.88Z"/>
  <path class="st0" d="M946.31,1679.29c7.5-10.43,14.23-19.91,21.08-29.3,6.86-9.41,9.04-9.8,18.64-3.12,50.31,35,100.6,70.02,150.86,105.07,9.05,6.31,9.35,7.77,3.21,16.76-8.26,12.1-16.64,24.12-25.08,36.11-6.47,9.19-11.21,9.96-20.79,3.31-28.46-19.74-56.86-39.57-85.3-59.34-2.98-2.07-6.04-4.01-9.92-6.58-6.26,9.12-12.24,17.82-18.21,26.52-3.39,4.94-6.63,10-10.2,14.81-4.11,5.56-5.58,5.82-11.44,1.77-16.99-11.73-33.88-23.61-50.82-35.42-2.95-2.06-5.95-4.04-9.63-6.53-7.53,11.44-14.63,22.24-22.13,33.62,2.12,1.74,3.95,3.5,6.03,4.9,16.58,11.16,33.23,22.2,49.79,33.39,8.16,5.51,8.24,6.22,2.97,14.03-8.2,12.14-16.43,24.27-24.68,36.38-7.2,10.57-7.85,10.68-18.8,3.24-22.87-15.52-45.73-31.07-68.61-46.58-2.97-2.02-6.08-3.83-9.72-6.11-4.95,7.3-9.49,14.2-14.25,20.94-4.17,5.89-5.32,6.21-11.27,2.34-9.77-6.36-19.44-12.87-28.96-19.6-5.71-4.04-6.13-5.69-2.41-11.54,6.07-9.54,12.39-18.94,18.99-28.12,31.72-44.06,63.56-88.03,95.36-132.03.98-1.35,1.92-2.72,2.93-4.05,5.7-7.56,6.8-7.88,14.57-2.83,14.52,9.44,28.93,19.04,43.4,28.56,4.41,2.91,8.85,5.78,14.4,9.39Z"/>
  <path class="st0" d="M1859.98,1627.23c-7.47-10.16-14.62-19.77-21.62-29.48-6.19-8.6-5.94-11.14,2.22-17.33,49.62-37.67,99.27-75.29,148.97-112.86,7.02-5.31,9.1-5.02,14.73,2.21,9.41,12.09,18.64,24.33,27.8,36.62,6.05,8.12,5.39,13.23-2.72,19.41-28.08,21.41-56.26,42.7-84.39,64.04-2.63,1.99-5.19,4.06-8.6,6.73,4.14,5.53,8.01,10.78,11.97,15.96,5.87,7.67,11.9,15.23,17.69,22.96,5.03,6.71,4.91,7.85-1.68,12.88-16.95,12.94-34,25.74-50.98,38.63-2.08,1.58-3.98,3.38-6.78,5.78,8.48,10.59,16.68,20.84,25.35,31.67,20.5-16.08,40.31-31.62,60.44-47.41,2.52,2.41,4.35,3.78,5.71,5.52,9.88,12.58,19.7,25.19,29.45,37.86,6.29,8.18,6.11,9.5-2.26,16.03-22.59,17.63-45.24,35.17-67.85,52.77-2.57,2-5.02,4.16-8.14,6.75,5.4,6.96,10.55,13.4,15.49,20,4.46,5.95,4.46,6.87-1.15,11.42-9.05,7.34-18.26,14.51-27.58,21.52-5.74,4.31-7.18,4.26-11.7-1.17-7.03-8.43-13.83-17.07-20.32-25.92-31.72-43.25-63.3-86.6-94.93-129.91-1.18-1.61-2.37-3.22-3.54-4.84-7.13-9.89-7.15-10.19,2.07-17.6,14.8-11.89,29.68-23.7,44.5-35.57,2.56-2.05,5-4.24,7.84-6.66Z"/>
  <path class="st0" d="M641.83,1306.57c12.01-3.92,22.73-7.43,33.46-10.91,11.77-3.82,13.98-2.86,17.87,8.31,20.14,57.88,40.23,115.76,60.31,173.66,3.5,10.09,2.79,11.61-7.54,15.31-13.79,4.95-27.64,9.76-41.5,14.49-10.22,3.49-14.78,1.35-18.34-8.82-11.44-32.69-22.75-65.43-34.13-98.14-1.29-3.71-2.74-7.37-4.44-11.93-9.4,3.32-18.12,6.38-26.82,9.47-6.59,2.34-13.12,4.85-19.77,7.03-7.05,2.31-8.58,1.58-11.07-5.5-7.08-20.1-14-40.26-21.01-60.39-.86-2.47-1.93-4.88-3.36-8.48-12.66,4.74-24.94,9.34-37.87,14.18,1.63,4.74,2.94,8.8,4.41,12.79,6.18,16.89,12.46,33.74,18.59,50.65,3.42,9.44,3.04,10.07-6.66,13.56-13.47,4.86-26.94,9.72-40.43,14.54-12.03,4.31-12.71,3.98-17.17-8.34-9.39-26-18.75-52.01-28.13-78.01-1.21-3.36-2.51-6.68-4.05-10.77-8.3,3.04-15.7,5.86-23.16,8.46-7.6,2.65-8.64,2.33-11.33-4.66-4.18-10.88-8.15-21.84-11.93-32.87-2.21-6.45-1.64-8.1,4.99-10.59,15.26-5.73,30.64-11.2,46.11-16.32,47.42-15.71,94.91-31.2,142.37-46.78,1.9-.62,3.81-1.2,5.71-1.82,4.63-1.51,7.75,0,9.45,4.59,1.85,5,3.79,9.96,5.67,14.95,6.46,17.1,12.92,34.19,19.78,52.34Z"/>
  <path class="st0" d="M443.69,742.35c-8.42-2.4-15.76-4.4-23.04-6.6-8.91-2.69-9.27-3.25-6.94-11.78,2.89-10.6,5.83-21.19,9.03-31.7,2.21-7.24,3.58-8.16,10.88-6.37,10.01,2.45,19.96,5.22,29.77,8.36,52.95,16.98,105.85,34.12,158.77,51.2,2.22.72,4.42,1.5,6.64,2.18,4.85,1.48,5.99,4.86,4.78,9.37-2.08,7.72-4.22,15.42-6.35,23.12-3.36,12.2-6.75,24.39-10.07,36.6-.77,2.84-1.3,5.74-2.02,8.98,2.17.95,3.88,1.88,5.7,2.47,8.87,2.88,17.77,5.64,26.65,8.49,12.76,4.11,13.71,5.91,9.84,18.69-17.37,57.36-34.76,114.72-52.14,172.08-.58,1.91-1.06,3.86-1.76,5.73-2.32,6.21-4.33,7.69-10.49,5.93-16.32-4.67-32.59-9.55-48.76-14.76-7.24-2.33-9.32-7.69-6.83-16.04,7.14-23.93,14.42-47.82,21.63-71.73,3.93-13.04,7.84-26.1,11.93-39.72-2.42-1.14-4.33-2.35-6.42-2.98-12.75-3.86-25.54-7.56-38.3-11.39-10.52-3.16-10.8-3.7-7.73-13.84,6.08-20.08,12.2-40.14,18.26-60.22.66-2.18,1.01-4.46,1.73-7.72-12.72-3.53-25.11-6.97-38.15-10.59-.98,2.32-2.05,4.27-2.65,6.37-5.32,18.56-10.55,37.15-15.83,55.73-.73,2.56-1.37,5.17-2.37,7.63-1.29,3.15-3.57,4.6-7.16,3.54-16.92-5.01-33.91-9.8-50.77-14.99-6.15-1.89-7.07-3.96-5.36-10.68,2.06-8.06,4.58-16,6.9-24,6.75-23.34,13.49-46.67,20.62-71.34Z"/>
  <path class="st0" d="M785.82,253.04c-5.38-6.9-10.56-13.35-15.52-19.97-4.32-5.77-4.28-7.13,1.12-11.51,9.06-7.34,18.25-14.52,27.58-21.5,5.47-4.09,7.43-3.96,11.78,1.27,7.02,8.44,13.84,17.06,20.33,25.91,32.5,44.33,64.86,88.76,97.27,133.15,1.57,2.15,3.2,4.27,4.64,6.51,2.09,3.26,1.78,6.36-1.22,8.92-3.29,2.81-6.68,5.51-10.06,8.22-15.32,12.26-30.65,24.51-46.45,37.15,1.91,2.93,3.4,5.44,5.11,7.8,5.09,7.01,10.3,13.93,15.39,20.93,7.19,9.89,6.89,12.38-2.56,19.58-13.77,10.51-27.62,20.91-41.43,31.38-33.19,25.15-66.37,50.3-99.56,75.46-1.59,1.21-3.19,2.41-4.79,3.61-9.65,7.21-10.71,7.09-18.28-2.81-8.5-11.11-16.92-22.29-25.38-33.43-.4-.53-.83-1.05-1.21-1.59-5.37-7.61-4.68-12.89,2.85-18.74,10.53-8.17,21.21-16.13,31.83-24.18,20.16-15.29,40.32-30.57,61.09-46.33-1.51-2.47-2.66-4.74-4.17-6.73-7.47-9.81-15.03-19.54-22.56-29.3q-8.28-10.73,2.16-18.62c15.41-11.65,30.83-23.3,46.22-34.98,2.63-2,5.19-4.1,8.64-6.84-8.51-10.64-16.75-20.94-25.45-31.82-3.37,2.58-6.25,4.73-9.08,6.95-14.93,11.74-29.79,23.56-44.79,35.2-7.11,5.52-7.95,5.3-13.54-1.86-9.43-12.08-18.87-24.15-28.21-36.3-6.22-8.09-6-9.71,2.23-16.12,22.59-17.62,45.24-35.16,67.86-52.75,2.6-2.03,5.12-4.16,8.16-6.65Z"/>
  <path class="st0" d="M2092.96,742.41c-11.88,3.92-22.91,7.6-33.96,11.21-10.88,3.55-13.19,2.47-16.97-8.42-20.12-57.88-40.21-115.78-60.26-173.69-3.57-10.3-2.84-11.87,7.25-15.47,13.49-4.82,27.03-9.48,40.58-14.13,11.57-3.97,15.75-2.04,19.71,9.29,11.54,33.01,22.97,66.06,34.47,99.09,1.08,3.09,2.3,6.13,3.78,10.03,8.93-3.11,17.35-6.01,25.75-8.98,6.59-2.33,13.12-4.85,19.74-7.12,8.42-2.89,9.58-2.39,12.48,5.86,5.31,15.08,10.47,30.21,15.71,45.32,2.58,7.45,5.22,14.88,8.08,23.03,13.09-4.93,25.14-9.47,37.85-14.25-.98-3.29-1.66-6.1-2.65-8.8-6.64-18.14-13.39-36.24-20.02-54.39-3.62-9.91-3.42-10.22,6.14-13.68,14.09-5.11,28.16-10.27,42.28-15.31,10.25-3.66,11.38-3.1,15.21,7.44,9.42,25.99,18.76,52.01,28.16,78.01,1.35,3.73,2.84,7.4,4.63,12.06,7.81-2.78,15.19-5.48,22.62-8.03,8.53-2.92,9.3-2.6,12.46,5.81,3.63,9.66,7.14,19.38,10.55,29.12,3.23,9.23,2.87,10.33-6.68,13.97-12.12,4.63-24.35,8.99-36.67,13.05-49.34,16.27-98.74,32.37-148.12,48.53-1.9.62-3.77,1.35-5.7,1.85-6.99,1.8-8.64,1.13-11.31-5.85-7.04-18.34-13.86-36.78-20.81-55.16-1.17-3.09-2.51-6.1-4.28-10.39Z"/>
  <path class="st0" d="M2291.59,1306.61c8.46,2.47,16.11,4.58,23.69,6.93,7.42,2.3,8.27,3.49,6.38,10.57-2.92,10.93-6.11,21.8-9.46,32.61-2.31,7.44-3.87,8.43-11.77,6.12-21.07-6.17-42.1-12.52-63.02-19.18-41.56-13.23-83.03-26.71-124.54-40.09-.95-.31-1.88-.68-2.82-1-9.78-3.33-10.29-4.24-7.53-14.49,2.16-8.04,4.5-16.02,6.7-24.05,3.68-13.43,7.31-26.88,11.18-41.13-9.11-2.99-17.57-5.77-26.05-8.55-4.11-1.35-8.34-2.42-12.33-4.06-5.62-2.31-7.04-5.13-5.91-10.96.44-2.28,1.27-4.48,1.95-6.71,17.37-57.35,34.73-114.7,52.1-172.05.39-1.27.79-2.55,1.23-3.8,2.55-7.25,4.31-8.27,11.81-6.67,1.95.42,3.83,1.13,5.74,1.71,12.12,3.64,24.11,7.75,36.38,10.77,13.17,3.24,15.36,10.49,11.42,22.09-7.29,21.42-13.31,43.27-19.85,64.94-4.22,14-8.42,28-12.84,42.68,2.62,1.14,4.85,2.38,7.25,3.1,11.79,3.55,23.63,6.95,35.45,10.43q13.08,3.85,8.97,17.27c-5.63,18.47-11.25,36.94-16.85,55.42-.85,2.81-1.53,5.67-2.63,9.75,13.09,3.56,25.74,7.01,39.09,10.65,1.64-5.26,3.09-9.62,4.35-14.03,4.82-16.97,9.51-33.98,14.38-50.94,2.68-9.32,3.47-9.7,12.59-7.07,14.71,4.24,29.43,8.47,44.11,12.84,9.51,2.83,10.23,4.08,7.55,13.43-7.8,27.2-15.73,54.37-23.58,81.55-1.08,3.76-2,7.56-3.16,11.94Z"/>
  <path class="st0" d="M1323.7,247.51c0,10.4-.03,20.31,0,30.22.06,18.52.08,18.57-18.03,18.94-58.62,1.21-117.23,2.37-175.85,3.55-2,.04-4,.14-6,.08-7.7-.23-9.4-1.58-9.67-9.41-.49-14.31-.59-28.64-.85-42.96-.03-1.67-.15-3.33-.11-5,.21-8.89,3.8-12.75,12.71-12.99,22.98-.63,45.96-1.12,68.94-1.59,14.32-.29,28.65-.43,42.97-.68,1.6-.03,3.19-.39,5.7-.71,0-5.91.13-11.46-.03-17.01-.28-9.99-.85-19.97-1.09-29.96-.24-10.12.53-10.94,10.5-11.16,20.32-.43,40.64-.7,60.95-1.08,2.94-.05,5.88-.35,9.76-.59.81-13.57-.6-26.62-1.58-40.49-3.86,0-7.1-.11-10.33.02-18.97.72-37.94,1.53-56.92,2.25-9.66.37-10.4-.36-10.72-9.62-.51-14.98-1.08-29.96-1.53-44.94-.34-11.04.69-12.14,11.55-12.49,25.97-.84,51.94-1.61,77.91-2.47,5.64-.19,11.26-.63,17.65-1,0-7.94.05-15.46-.01-22.97-.08-10.22.34-10.8,10.42-11.17,10.65-.38,21.31-.74,31.97-.81,7.12-.05,8.2.84,8.95,7.78.79,7.27,1.31,14.62,1.33,21.93.15,58.63.14,117.26.21,175.89.02,14.49.05,14.43-14.18,15.01-18.31.75-36.61,1.58-54.91,2.44-2.94.14-5.86.6-9.71,1.01Z"/>
  <path class="st0" d="M1745.14,1144.85c2.08-7.49,3.83-13.79,5.82-20.95-4.05-1.54-7.36-2.85-10.71-4.06-42.92-15.48-85.86-30.88-128.73-46.52-3.85-1.41-9.43-3.62-10.25-6.57-1.45-5.21,4.9-7.22,8.54-9.52,14.65-9.24,29.55-18.09,44.48-26.88,6.11-3.6,6.93-3.39,11.06,2.97,5.08,7.81,9.96,15.77,14.46,23.93,2.58,4.69,5.95,7.49,11.06,9.21,17.98,6.07,35.88,12.41,53.68,19,4.28,1.58,7.43,1.15,11.03-1.45,7.84-5.65,15.9-10.99,23.93-16.35,8.05-5.36,10.79-4.83,15.86,3.72,6.97,11.74,13.84,23.56,20.32,35.58,2.72,5.05,6.24,8,11.77,9.66,8.91,2.68,17.49,6.41,26.33,9.34,3.61,1.19,4.77,3.31,4.24,6.69-.25,1.63-.84,3.21-1.35,4.8-7.03,21.88-14.01,43.77-21.13,65.62-2.99,9.19-3.26,9.63-12.47,6.94-25.24-7.38-50.35-15.2-75.51-22.85-9.55-2.9-19.27-8.48-28.62-7.92-9.73.59-19.14,7.03-28.62,11.06-10.11,4.31-20.13,8.84-30.22,13.2-10.69,4.62-14.46,3.12-19.37-7.85-6.12-13.68-12.45-27.29-18.01-41.19-2.61-6.53-6.67-9.97-13.24-12-14.64-4.5-29.14-9.46-43.56-14.63-4.85-1.74-8.7-1.31-13.13,1.28-14.37,8.41-28.98,16.42-43.5,24.58-2.32,1.31-4.59,2.75-7,3.85-6.12,2.81-8.43,1.66-9.35-5.25-1.55-11.55-2.71-23.16-4.03-34.74-1.67-14.56-3.34-29.12-5-43.69-.15-1.32-.29-2.65-.37-3.98-.6-9.36,1.18-10.86,9.99-7.97,21.2,6.96,42.36,14.02,63.54,21.04,59.42,19.71,118.85,39.42,178.28,59.11,2.79.93,5.66,1.62,9.77,2.78Z"/>
  <path class="st0" d="M1743.7,899.86c-2.57-7.15-4.8-13.34-7.34-20.4-4.76,1.31-8.87,2.39-12.94,3.57-43.51,12.59-87,25.22-130.52,37.78-4.01,1.16-8.14,3.56-13.24-.69,1.2-4.21,2.1-9.05,3.92-13.51,6.03-14.81,12.31-29.51,18.64-44.19,3.72-8.64,4.26-8.9,13.5-5.24,8.35,3.31,16.59,6.95,24.75,10.72,4.18,1.93,8,2.15,12.47.76,18.44-5.75,36.95-11.29,55.54-16.52,4.44-1.25,6.63-3.5,8.01-7.72,2.99-9.18,6.37-18.24,9.73-27.29,3.16-8.51,6-9.99,14.3-6.47,12.88,5.46,25.61,11.28,38.28,17.19,4.75,2.22,9,2.96,14.26,1.07,9.06-3.26,18.52-5.4,27.73-8.24,3.58-1.1,5.83-.09,7.25,3.14.8,1.83,1.39,3.74,2.01,5.64,6.83,20.89,13.66,41.78,20.47,62.68.72,2.21,1.47,4.43,1.98,6.7.75,3.36-.22,5.71-3.85,6.91-5.35,1.78-10.53,4.08-15.87,5.89-27.74,9.44-55.48,18.93-83.31,28.09-5.42,1.79-9.1,4.58-11.94,9.59-9.36,16.52-19.08,32.84-28.8,49.16-5.13,8.61-9.16,9.71-18.02,4.68-13.91-7.89-27.77-15.87-41.44-24.17-4.98-3.02-9.43-3.61-15.03-1.71-15.14,5.13-30.43,9.82-45.77,14.32-4.6,1.35-7.32,3.75-9.24,8.09-7.03,15.83-14.38,31.52-21.62,47.25-.97,2.12-1.86,4.29-3.03,6.3-3.17,5.48-5.73,6.02-9.91,1.51-19.25-20.79-38.44-41.62-57.45-62.62-5.66-6.25-4.39-8.76,5.29-11.84,50.46-16.06,100.93-32.1,151.39-48.14,31.42-9.99,62.84-19.99,94.25-30.01,1.54-.49,3-1.23,5.54-2.29Z"/>
  <path class="st0" d="M1133,705.16c-5.9,4.55-11.33,8.75-17.18,13.27,2.09,3.31,3.75,6.12,5.58,8.81,25.61,37.79,51.24,75.57,76.86,113.34,1.12,1.65,2.35,3.25,3.37,4.96,4.38,7.28,2.94,10.17-5.86,10.07-9.31-.11-18.6-1.1-27.9-1.81-8.64-.66-17.27-1.37-25.89-2.26-3.2-.33-6.34-1.25-10.57-2.12.42-7.58.74-14.48,1.22-21.37.23-3.32.55-6.66,1.2-9.92,1.6-8.05-.64-14.66-5.57-21.29-10.12-13.64-19.65-27.73-28.97-41.94-3.3-5.03-6.99-7.09-13-6.88-8.98.32-17.99-.13-26.98-.51-8.96-.38-11.27-2.91-10.41-11.79,1.27-13.26,2.7-26.52,4.41-39.73.8-6.18.56-11.43-3.78-16.72-5.88-7.18-10.55-15.35-15.94-22.94-2.19-3.09-1.76-5.5.82-7.86.98-.9,2.05-1.71,3.12-2.49,19.11-13.94,38.22-27.9,57.38-41.78,2.09-1.52,4.51-2.59,7.56-4.3,4.2,5.03,8.39,9.62,12.1,14.56,17.81,23.71,35.67,47.39,53.11,71.38,4.22,5.81,8.99,9.03,16.03,10.42,17.64,3.47,35.15,7.62,52.7,11.55,10.72,2.4,13.16,6.12,10.86,16.98-3.31,15.64-6.62,31.28-10.25,46.85-1.07,4.56-.76,8.23,2.08,12.14,9.81,13.47,19.44,27.07,28.9,40.78,2.7,3.92,5.94,5.7,10.62,6.19,15.57,1.61,31.11,3.56,46.66,5.43,4.63.56,9.29,1.03,13.84,2.01,3.53.77,4.89,3.3,3.36,6.83-.66,1.52-1.6,2.92-2.41,4.37-12.75,22.64-25.51,45.28-38.27,67.92-.98,1.74-1.86,3.57-3.07,5.14-3.38,4.4-6,4.56-9.47-.05-6.42-8.51-12.49-17.29-18.7-25.95-43.68-60.94-87.35-121.88-131.04-182.81-1.92-2.67-4-5.22-6.49-8.45Z"/>
  <path class="st0" d="M1602.11,1343.96c6.12-4.84,11.29-8.93,17.14-13.55-2.22-3.47-4.08-6.52-6.08-9.48-25.61-37.76-51.28-75.48-76.79-113.3-2.45-3.63-7.85-7.62-4.16-12.03,2.02-2.42,7.95-2.4,12.02-2.13,17.27,1.17,34.52,2.75,51.76,4.39,6.88.66,7.79,1.64,7.4,8.91-.5,9.3-1.37,18.59-2.55,27.83-.63,4.9.07,8.94,3,13.09,11.16,15.76,22.14,31.66,32.86,47.72,2.57,3.84,5.52,5.13,9.87,5.2,9.99.16,19.98.61,29.96,1.09,8.12.39,10.16,2.21,9.53,10.4-1.12,14.6-2.68,29.18-4.49,43.72-.62,5.01.4,8.84,3.42,12.88,5.76,7.72,10.84,15.95,16.42,23.82,2.16,3.05,1.9,5.5-.68,7.88-1.22,1.13-2.57,2.12-3.91,3.1-18.57,13.54-37.12,27.1-55.74,40.57-7.76,5.62-8.24,5.86-14.17-1.85-17.67-22.95-35.87-45.58-52.08-69.53-9.18-13.56-20.16-20.62-35.99-22.88-14.13-2.01-28.01-5.85-41.94-9.1-8.49-1.98-11.08-5.73-9.38-14.32,3.11-15.67,6.52-31.28,10.12-46.85,1.43-6.2.92-11.27-3.2-16.66-9.5-12.43-18.36-25.35-27.21-38.26-2.9-4.23-6.35-6.13-11.46-6.64-17.89-1.79-35.73-4.02-53.59-6.1-1.98-.23-4.01-.38-5.89-.97-3.9-1.2-5.41-3.74-3.41-7.64,1.06-2.07,2.32-4.04,3.46-6.07,11.94-21.17,23.87-42.35,35.81-63.53.98-1.74,1.89-3.53,2.97-5.2,4.27-6.63,7.11-6.85,11.8-.41,11.37,15.62,22.55,31.37,33.8,47.07,38.03,53.05,76.06,106.11,114.11,159.15,2.11,2.94,4.35,5.79,7.28,9.66Z"/>
  <path class="st0" d="M990.07,903.75c-2.15,7.42-4.05,13.99-6.13,21.19,4.69,1.8,8.65,3.4,12.67,4.85,41.66,15.02,83.34,30.02,125.01,45.02,1.25.45,2.63.71,3.73,1.4,2.97,1.85,7.42,3.32,8.36,5.97,1.71,4.81-3.94,6.43-6.9,8.45-7.96,5.45-16.41,10.18-24.68,15.17-6.85,4.13-13.64,8.34-20.59,12.31-6.74,3.85-7.88,3.7-12.04-2.71-5.07-7.81-9.86-15.83-14.41-23.96-2.41-4.3-5.44-7.17-10.21-8.78-18.29-6.2-36.56-12.49-54.66-19.23-4.46-1.66-7.47-.79-10.97,1.68-7.88,5.58-15.89,11-23.94,16.33-7.59,5.03-10.58,4.51-15.29-3.38-7.18-12.01-14.08-24.19-20.87-36.41-2.54-4.57-5.6-7.64-10.92-9.2-8.93-2.61-17.48-6.46-26.35-9.3-5.18-1.65-5.85-4.56-4.34-9.12,3.03-9.17,5.86-18.4,8.82-27.59,4.5-13.94,8.96-27.9,13.6-41.8,2.66-7.95,3-8.37,11.39-5.86,30.94,9.23,61.9,18.44,92.62,28.37,8.87,2.87,16.35,2.77,24.77-1.31,15.28-7.39,31.03-13.81,46.62-20.55,10.2-4.42,13.95-2.97,18.62,7.41,6.43,14.27,12.88,28.54,18.86,43,2.24,5.42,5.61,8.44,11.14,10.19,14.92,4.72,29.76,9.7,44.5,14.97,5.16,1.85,9.39,1.53,14.14-1.24,14.38-8.4,28.98-16.42,43.5-24.59,2.03-1.14,4.03-2.37,6.13-3.37,6.69-3.18,8.93-2.01,9.83,5.36,2.01,16.53,3.89,33.08,5.83,49.62,1.12,9.59,2.26,19.19,3.36,28.78.27,2.32.67,4.65.59,6.96-.17,5.1-2.07,6.68-6.94,5.67-2.92-.6-5.73-1.74-8.57-2.69-78.38-26-156.76-52.01-235.14-78.01-3.15-1.05-6.31-2.06-11.15-3.63Z"/>
  <path class="st0" d="M991.21,1148.78c2.62,7.18,4.88,13.36,7.42,20.34,3.57-.84,6.74-1.45,9.82-2.34,44.47-12.86,88.92-25.8,133.43-38.55,3.88-1.11,9.08-4.83,11.81-.28,1.67,2.79.22,8.27-1.26,11.97-6.43,16.08-13.27,32-20.19,47.88-3.03,6.96-3.84,7.29-11.41,4.37-8.69-3.35-17.29-6.99-25.73-10.92-4.53-2.11-8.7-2.35-13.44-.89-18.14,5.6-36.31,11.09-54.57,16.28-4.66,1.33-7.27,3.67-8.73,8.28-2.71,8.57-5.88,16.99-8.96,25.45-3.94,10.83-6.17,11.79-17.03,7.01-12.2-5.36-24.4-10.73-36.44-16.43-4.79-2.27-9.05-2.73-14.22-.9-8.45,2.99-17.26,4.97-25.88,7.49-6.23,1.82-7.57,1.49-9.65-4.61-4.84-14.18-9.41-28.46-14.06-42.71-3-9.18-6.09-18.34-8.89-27.58-2-6.59-1.86-7.29,4.52-9.58,23.5-8.43,47.1-16.58,70.67-24.78,9.44-3.28,18.85-6.68,28.41-9.54,4.87-1.46,7.88-4.25,10.35-8.56,9.44-16.48,19.11-32.83,28.79-49.17,5.38-9.08,9.52-10.26,18.79-5,13.62,7.73,27.22,15.51,40.56,23.71,5.26,3.23,9.96,3.94,15.89,1.91,14.49-4.95,29.15-9.44,43.85-13.75,5.53-1.62,9.03-4.4,11.39-9.86,6.88-15.89,14.34-31.53,21.59-47.27.97-2.11,1.88-4.28,3.09-6.26,2.16-3.55,5.05-4.11,8.3-1.4,1.01.84,1.77,1.99,2.67,2.97,17.82,19.39,35.66,38.75,53.45,58.16,8.19,8.94,7.68,10.94-3.59,14.53-79.02,25.15-158.06,50.28-237.08,75.43-4.09,1.3-8.15,2.73-13.67,4.59Z"/>
  <path class="st0" d="M1599.05,702.83c-6.54-4.38-12.24-8.2-18.36-12.3-2.56,3.13-4.69,5.63-6.7,8.22-28.43,36.57-56.8,73.19-85.36,109.67-2.29,2.92-5.86,4.84-8.83,7.22-1.96-3.24-4.83-6.26-5.72-9.77-4.34-17.1-8.3-34.31-12.09-51.55-1.72-7.84-1.29-8.46,6.35-10.48,8.68-2.3,17.46-4.29,26.27-6.01,5.52-1.08,9.63-3.48,13.06-8.12,11.09-15.01,22.44-29.83,33.99-44.48,2.99-3.79,3.91-7.1,2.38-11.74-3.02-9.17-5.58-18.49-8.18-27.79-2.41-8.62-.87-11.41,7.85-13.46,9.4-2.21,18.81-4.85,28.36-5.83,14.16-1.46,25.07-7.05,32.32-19.63,2.64-4.57,6.73-8.28,9.55-12.77,2.98-4.75,6.12-4.26,9.93-1.5,8.64,6.26,17.28,12.5,25.92,18.75,11.34,8.21,22.74,16.32,33.98,24.67,5.76,4.28,6.02,5.12,1.86,11.23-13.52,19.81-27.27,39.46-40.98,59.13-6.1,8.75-12.1,17.58-18.57,26.05-3.33,4.36-3.99,8.74-3.42,13.98,2.02,18.55,3.84,37.12,5.48,55.71.98,11.12-1.78,14.36-12.92,15.55-15.57,1.66-31.15,3.29-46.76,4.49-5.48.42-9.23,2.4-12.44,6.87-9.32,12.99-18.8,25.9-28.67,38.48-3.51,4.47-3.98,8.77-2.91,13.93,3.51,16.96,6.85,33.95,10.26,50.94.39,1.96,1.01,3.9,1.16,5.87.47,5.98-1.47,7.77-7.61,6.61-11.13-2.11-22.21-4.45-33.31-6.7-15.99-3.24-32.01-6.41-47.98-9.78-9.87-2.08-10.67-4.25-4.68-12.39,44.82-60.94,89.69-121.85,134.53-182.78,7.26-9.86,14.49-19.74,22.21-30.25Z"/>
  <path class="st0" d="M1045.13,1407.04c15.46-21.99,30.37-43.2,45.3-64.4,5.75-8.17,11.35-16.47,17.43-24.39,3.68-4.8,5.12-9.62,4.43-15.7-2.07-18.2-3.59-36.46-5.46-54.68-1.21-11.78,1.12-14.94,12.99-16.26,16.22-1.81,32.44-3.6,48.69-5.07,4.41-.4,7.31-2.16,9.86-5.66,9.81-13.46,19.73-26.84,29.85-40.07,2.88-3.76,3.64-7.26,2.61-11.97-3.57-16.26-6.64-32.63-9.89-48.95-.39-1.96-.79-3.92-1.1-5.89-1.58-9.87-.06-11.3,9.84-9.29,25.13,5.09,50.25,10.18,75.38,15.27.65.13,1.31.23,1.97.33,10.25,1.61,11.56,5.21,5.25,13.72-49.59,66.91-98.86,134.06-148.23,201.13-2.36,3.21-4.66,6.47-7.81,10.83,6.04,4.18,11.85,8.2,18.07,12.51,2.62-3.18,4.77-5.66,6.78-8.25,28.01-36.04,56-72.09,83.99-108.14,1.63-2.1,3.13-4.35,5-6.23,3.93-3.95,6.84-3.47,8.99,1.6,1.42,3.35,2.42,6.91,3.26,10.45,3.62,15.22,7.18,30.46,10.64,45.72,1.97,8.66,1.57,9.52-7.09,11.82-8.68,2.3-17.44,4.44-26.29,5.94-5.42.92-8.91,3.55-12.08,7.8-11.16,14.95-22.42,29.83-34.02,44.44-3.34,4.21-3.79,7.85-2.1,12.77,2.91,8.5,5.18,17.21,7.62,25.86,2.81,9.99,1.59,12.28-8.72,14.64-13.63,3.12-27.31,6.05-41.05,8.65-4.58.87-7.72,2.74-10.47,6.57-5.43,7.56-11.53,14.65-17.24,22.02-3.98,5.14-5.2,5.68-10.47,2.07-8.24-5.65-16.24-11.65-24.34-17.51-11.34-8.2-22.71-16.35-33.97-24.66-2.55-1.88-4.69-4.31-7.6-7.02Z"/>
  <path class="st0" d="M1457.22,861.3c-3.55,2.13-5.87,3.83-8.43,5.01-23.89,11.03-47.82,21.97-71.75,32.92-2.11.97-4.24,2.04-6.49,2.56-3.5.8-5.96-.66-6.3-4.42-.27-2.98-.13-5.99-.11-8.99.55-82.32,1.11-164.63,1.66-246.95.03-3.94,0-7.88,0-12.47h-22.03c-.31,4.93-.7,9.17-.84,13.42-1.5,45.3-2.91,90.6-4.55,135.89-.13,3.73-.6,8.84-2.97,10.79-3.82,3.12-7.4-1.71-10.14-3.99-14.33-11.94-28.31-24.32-42.34-36.62-1.18-1.03-1.85-2.65-3.42-5,6.91-8.02,13.53-16.27,20.79-23.91,5.12-5.38,7.61-10.99,7.54-18.62-.15-17.99.38-35.99,1.08-53.97.18-4.6-1.22-7.43-4.78-10.03-7-5.11-13.75-10.54-20.6-15.85-10.61-8.23-10.76-10.08-1.48-20.4,8.69-9.67,17.36-19.35,26.19-28.89,3.07-3.31,4.84-6.53,4.71-11.44-.24-9.64.87-19.3.85-28.95,0-5.4,2.57-7.14,7.27-7.15,24.99-.05,49.99-.08,74.98-.1,4.77,0,7.26,1.84,7.19,7.2-.1,8.64.6,17.29.74,25.94.41,25.99.82,51.98.96,77.98.03,5.7,1.75,10.08,5.61,14.3,12.59,13.77,24.89,27.81,37.23,41.81,7.05,7.99,6.89,12.23-.98,19.39-11.83,10.76-23.74,21.45-35.82,31.94-3.77,3.28-5.87,6.67-5.86,11.91.03,16.33-.26,32.66-.77,48.98-.16,5.14,1.47,8.75,5.28,12.17,13.39,12.02,26.57,24.28,39.73,36.56,2.56,2.39,4.65,5.29,7.81,8.95Z"/>
  <path class="st0" d="M1369.45,1419.96h21.62c.33-3.29.79-6.15.89-9.02,1.48-46.62,2.88-93.23,4.39-139.85.14-4.44-1.17-9.62,5.35-12.71,3.08,2.11,6.83,4.21,10.04,6.94,12.68,10.8,25.24,21.74,37.74,32.75,6.43,5.67,6.59,6.38,1.27,12.95-5.86,7.24-12.06,14.22-18.36,21.09-3.08,3.36-4.7,6.84-4.77,11.54-.29,18.99-.68,37.98-1.6,56.94-.28,5.77,1.68,9.23,6.15,12.43,7.59,5.42,14.88,11.25,22.18,17.06,6.81,5.42,7.29,8.2,1.61,14.76-9.38,10.83-19.02,21.43-28.82,31.88-3.66,3.89-5.29,7.89-5.17,13.31.2,9.3-.68,18.62-.65,27.93.01,4.3-1.77,6.16-5.72,6.42-2.32.16-4.66.14-6.99.15-21.99.04-43.98.13-65.96.09-10.12-.02-10.64-.12-10.89-10.51-.8-32.3-1.45-64.61-1.5-96.92-.01-8.29-2.31-14.42-7.99-20.4-11.69-12.31-22.69-25.29-33.94-38.02-8.69-9.83-8.46-13.1,1.61-22.16,11.39-10.25,22.71-20.59,34.34-30.57,4.18-3.58,5.85-7.44,5.78-12.91-.18-15.65-.07-31.32.38-46.97.17-5.82-1.48-9.96-5.91-13.86-12.25-10.79-24.1-22.02-36.1-33.09-1.71-1.58-3.49-3.1-5.11-4.78-5.44-5.66-4.97-8.24,2.37-11.61,22.39-10.3,44.81-20.51,67.23-30.73,3.63-1.66,7.25-3.4,11-4.73,4.07-1.44,6.46.43,6.85,4.61.22,2.31.04,4.66.02,6.99-.44,83.29-.89,166.58-1.32,249.86-.02,3.56,0,7.13,0,11.14Z"/>
  <path class="st0" d="M1326.65,360c.44,7.75,1.03,14.04,1.09,20.33.06,6.35-1.13,7.46-7.49,7.85-3.65.22-7.33.12-10.99.06-57.64-.94-115.28-1.9-172.92-2.84-3.91-.06-7.81,0-12.93,0,0,9.79,0,18.68,0,27.58,0,4,.36,8.05-.15,11.98-.32,2.42-1.39,5.3-3.12,6.88-18.69,17.07-37.58,33.92-56.41,50.84-.74.67-1.45,1.39-2.25,1.98-5.8,4.31-9.24,4.23-13.58-1.45-15.59-20.37-31.02-40.88-46.35-61.45-4.13-5.54-3.81-7.31,1-12,2.14-2.09,4.58-3.87,6.93-5.73,29.52-23.38,59.04-46.75,88.56-70.12,1.83-1.45,4.32-2.53,5.37-4.41,4.51-8.13,11.88-7.96,19.73-8.09,73.3-1.24,146.59-2.69,219.89-4.11,3.93-.08,7.86-.41,12.83-.68,0-5.32-.13-9.9.03-14.47.3-8.66,2.18-10.83,10.48-11.25,8.98-.46,17.99-.67,26.98-.59,7.61.07,11.74,3.91,12.07,11.61.61,14.31.92,28.65.99,42.97.04,7.77-2.77,10.4-11.08,10.91-15.96.98-31.94,1.68-47.91,2.6-6.59.38-13.16,1.02-20.76,1.63Z"/>
  <path class="st0" d="M1545.7,363.66c-7.73,10.65-14.89,20.25-21.72,30.07-2.9,4.17-6.17,5.77-11.46,6.22-22.56,1.93-45.05,4.65-67.57,7.08-2.32.25-4.63.69-6.95.77-7.76.28-10.73-1.93-10.92-9.5-.63-25.65-1.01-51.3-1.25-76.96-.06-6.89,1.92-8.58,10.23-9.04,15.64-.86,31.29-1.43,46.94-2.04,24.3-.96,48.61-1.85,72.92-2.78,2.33-.09,4.97.42,6.93-.5,7.99-3.75,13.63.27,19.82,4.61,60.29,42.27,120.7,84.36,181.08,126.49,2.99,2.09,6.02,4.12,9.99,6.84,3.12-4.14,5.97-8.12,9.01-11.93,5.32-6.65,8.18-7.19,15.17-2.55,7.22,4.79,14.34,9.72,21.36,14.79,6.93,5.01,8.01,10.03,3.41,17-7.53,11.4-15.23,22.68-23.04,33.88-5.51,7.9-9.02,8.49-17.53,3.07-16.01-10.21-31.93-20.57-47.9-30.83-2.76-1.77-5.63-3.36-9.12-5.44-3.94,6.02-7.41,11.63-11.2,17.03-3.7,5.28-5.19,5.53-10.6,2.09-3.09-1.96-6-4.2-8.93-6.41-46.03-34.69-92.05-69.4-138.08-104.1-3.16-2.39-6.36-4.73-10.59-7.86Z"/>
  <path class="st0" d="M794.24,650.91c7.16,9.87,13.33,18.96,20.15,27.55,4.28,5.39,5.25,10.18,3.51,17.23-5.32,21.65-9.36,43.62-13.9,65.46-.34,1.63-.61,3.28-1.04,4.88-2.31,8.71-5.13,10.56-13.54,8.03-23.6-7.09-47.15-14.31-70.68-21.62-8.67-2.69-9.64-4.26-7.24-13.04,7.73-28.26,15.7-56.46,23.56-84.68,3.22-11.55,7.99-22.94,9.18-34.69,1.2-11.89,8.05-17.69,16.4-23.97,57.53-43.23,114.87-86.71,172.27-130.11,2.87-2.17,5.67-4.45,8.88-6.97-3.4-4.89-6.62-9.11-9.4-13.62-3.59-5.82-3.18-8.67,2.09-12.92,7-5.65,14.19-11.06,21.45-16.38,7.41-5.43,12.29-4.87,17.93,2.24,8.29,10.44,16.42,21,24.46,31.62,5.97,7.89,5.58,11.42-1.97,17.65-14.64,12.09-29.41,24.04-44.1,36.06-2.56,2.09-5.05,4.27-8.22,6.95,5.54,7.24,10.87,14.22,16.87,22.07-4.53,3.66-8.14,6.95-12.11,9.73-48.27,33.87-96.6,67.65-144.9,101.48-2.97,2.08-5.87,4.27-9.65,7.03Z"/>
  <path class="st0" d="M690.63,817.12c-5.87-2-10.64-3.39-15.23-5.25-6.55-2.66-7.92-5.54-5.98-12.45,2.43-8.65,4.94-17.29,7.73-25.83,2.62-8.02,7.16-10.44,15.22-8.2,13.14,3.66,26.26,7.45,39.32,11.41,8.79,2.67,10.61,5.82,8.32,14.83-4.84,19.03-9.96,37.99-14.94,56.98-.67,2.57-1.2,5.17-2.09,9.01,5.38,1.56,10.62,3.15,15.9,4.59,10.79,2.94,11.49,3.82,7.84,14.49-15.84,46.29-31.83,92.53-47.76,138.8-4.86,14.13-9.68,28.28-14.72,42.99,2.74,1.22,5,2.46,7.41,3.26,8.53,2.83,17.02,5.82,25.69,8.16,6.35,1.71,9.53,5.26,12.1,11.45,8.42,20.28,17.85,40.15,26.89,60.17,1.1,2.43,2.38,4.79,3.22,7.31,2.23,6.67.82,10.19-5.78,12.51-24.18,8.48-48.43,16.78-72.72,24.97-6.3,2.13-8.03,1.17-11.01-4.84-1.03-2.08-1.72-4.32-2.54-6.51-13.23-35.56-26.46-71.13-39.68-106.69-.93-2.5-1.22-5.61-2.92-7.37-6.92-7.18-3.64-14.5-1.31-22.14,21.38-70.03,42.65-140.09,63.94-210.15,1.05-3.45,1.89-6.97,3.1-11.5Z"/>
  <path class="st0" d="M2011.97,1191.09c-5.69-1.61-11.05-3.15-16.43-4.65-10.17-2.83-10.8-3.61-7.33-13.86,8.74-25.88,17.73-51.67,26.62-77.49,11.28-32.75,22.57-65.5,33.83-98.26.64-1.86,1.09-3.78,1.96-6.82-4.1-1.47-8.01-2.96-11.97-4.28-7.9-2.63-15.93-4.9-23.7-7.88-2.8-1.07-6.1-3.25-7.27-5.79-10.45-22.68-20.48-45.56-30.63-68.39-.54-1.22-1.13-2.42-1.56-3.68-2.24-6.6-.92-9.87,5.85-12.32,14.09-5.1,28.3-9.89,42.47-14.77,9.13-3.15,18.26-6.3,27.43-9.36,9.68-3.23,11.42-2.56,15,6.87,8.61,22.74,17.03,45.55,25.5,68.34,5.57,14.99,11.1,29.99,16.65,44.98.46,1.25.67,2.74,1.5,3.68,6.75,7.74,3.9,15.69,1.33,24.09-21.47,70.06-42.72,140.19-64.02,210.3-.87,2.86-1.65,5.75-2.76,9.67,4.35,1.59,8.6,3.16,12.86,4.7,9.09,3.27,10.58,5.86,8.01,14.89-2.19,7.69-4.54,15.33-6.95,22.95-2.99,9.42-7.23,11.98-16.37,9.43-13.15-3.67-26.25-7.53-39.3-11.56-8.05-2.48-9.85-5.91-7.68-14.37,5.14-20,10.47-39.95,15.69-59.93.49-1.88.77-3.83,1.3-6.49Z"/>
  <path class="st0" d="M961.25,1604.11c-3.63,4.8-6.63,9.19-10.07,13.21-4.44,5.19-7.3,5.64-12.91,1.93-8.06-5.32-16.04-10.78-23.8-16.51-5.24-3.87-6.39-9.42-2.8-14.9,8.2-12.54,16.61-24.95,25.32-37.14,4.04-5.66,8.02-5.95,14.71-1.7,15.75,9.99,31.37,20.17,47.05,30.26,3.35,2.16,6.74,4.25,10.31,6.5,7.45-5.95,9.03-16.49,18.54-22.29,53.48,40.3,107.1,80.71,161.71,121.87,6.57-9.07,13.09-17.41,18.86-26.24,4.3-6.58,9.06-9.79,17.55-10.35,22.9-1.53,45.69-4.76,68.53-7.15,11.52-1.21,13.58.72,13.82,12.14.48,22.64.93,45.29,1.38,67.93.27,13.63-.23,14.32-13.49,14.92-39.26,1.78-78.52,3.44-117.79,5.14-2.33.1-5.07-.59-6.92.4-7.45,3.99-12.49-.37-17.99-4.22-60.59-42.37-121.22-84.66-181.85-126.97-3.23-2.26-6.54-4.4-10.17-6.83Z"/>
  <path class="st0" d="M1986.86,780.35c-5.94,2.24-11.19,4.25-16.46,6.19-9.28,3.43-10.47,2.99-13.55-6.64-4.46-13.96-8.62-28.01-12.89-42.02-13.51-44.28-27-88.55-40.53-132.82-.95-3.12-2.15-6.18-3.57-10.21-10.57,3.37-20.78,6.15-30.62,9.9-7.38,2.81-13,2.54-20.2-2.03-18.54-11.77-38.04-22.04-57.14-32.92-2.32-1.32-4.76-2.49-6.84-4.12-4.05-3.18-4.86-6.94-2.22-11.42,2.36-4.01,5.24-7.71,7.91-11.53,11.46-16.38,22.92-32.76,34.41-49.12,6.98-9.93,8.29-10.28,18.31-3.66,32.51,21.52,64.95,43.13,97.41,64.71,2.22,1.48,4.28,3.76,6.7,4.26,8.23,1.69,10.42,7.77,12.79,14.67,24.01,69.92,48.25,139.77,72.45,209.63,1.18,3.42,2.55,6.77,4.2,11.12,5.03-1.54,9.66-3.11,14.37-4.37,8.19-2.18,10.62-.93,13.59,7.12,3,8.12,5.96,16.27,8.58,24.51,2.54,7.97.22,12.79-7.64,15.72-12.79,4.78-25.65,9.37-38.57,13.79-8.7,2.97-11.94,1.39-15.38-7.33-6.97-17.66-13.74-35.39-20.64-53.08-1.3-3.34-2.84-6.58-4.47-10.36Z"/>
  <path class="st0" d="M1793.23,1590.12c3.36,4.73,6.18,8.43,8.7,12.33,4.26,6.6,3.88,9.85-1.98,14.53-7.03,5.61-14.17,11.09-21.46,16.35-6.76,4.87-11.89,4.1-17.18-2.57-8.49-10.7-16.86-21.5-25.07-32.42-5.46-7.26-4.95-10.82,2.33-16.85,14.63-12.11,29.41-24.04,44.11-36.06,2.56-2.1,5.05-4.28,8.49-7.22-2.81-3.55-5.36-6.89-8.03-10.14q-10.04-12.27,3.25-21.66c10.35-7.29,20.73-14.54,31.1-21.79,38.21-26.74,76.43-53.47,114.64-80.22,2.67-1.87,5.22-3.92,8.59-6.47-6.71-9.26-12.83-18.31-19.61-26.83-4.52-5.67-5.57-10.75-3.75-18.18,5.47-22.3,9.6-44.93,14.24-67.43.34-1.63.47-3.33,1.01-4.89,2.04-5.96,5.23-7.8,11.57-6.19,5.48,1.39,10.82,3.32,16.23,4.98,17.83,5.46,35.67,10.88,53.49,16.35,11.36,3.49,12.22,4.88,9.03,16.37-10.5,37.86-21.1,75.69-31.66,113.53-.54,1.92-1.77,3.97-1.48,5.76,1.62,9.92-5.53,13.95-11.88,18.75-58.76,44.36-117.49,88.78-176.22,133.19-2.62,1.98-5.12,4.11-8.47,6.8Z"/>
  <path class="st0" d="M1407.52,1689.16c0-7.39.02-13.36,0-19.33-.04-8.14.75-9.06,9.11-9.39,3.99-.16,7.99-.02,11.99.06,56.63,1.08,113.26,2.18,169.89,3.26,3.94.08,7.89,0,13.18,0,.07-8.18.91-15.79.02-23.2-1.73-14.39,2.54-24.67,14.62-33.85,15.85-12.05,29.77-26.63,44.61-40.03,8.41-7.59,11.57-7.26,18.46,1.83,14.09,18.58,28.11,37.22,42.11,55.87,6.74,8.98,6.6,10.55-2.48,17.77-30.77,24.47-61.62,48.84-92.43,73.25-2.09,1.65-4.9,2.93-6.1,5.08-3.93,7.08-10.24,7.13-17.07,7.25-74.62,1.29-149.24,2.72-223.85,4.13-2.94.06-5.87.33-10.12.58,0,4.99.16,9.54-.04,14.08-.4,8.97-2.61,11.21-11.34,11.49-8.32.27-16.66.45-24.98.45-9.41,0-12.88-3.16-13.28-12.18-.59-13.31-1.11-26.63-1.4-39.95-.21-9.88,2.03-12.39,12.04-13.06,18.61-1.26,37.25-2.18,55.87-3.27,3.59-.21,7.17-.53,11.21-.84Z"/>
  <path class="st0" d="M748.19,1268.76c6.44-2.51,11.67-4.62,16.95-6.59,8.74-3.26,9.87-2.87,12.81,6.3,4.88,15.21,9.45,30.53,14.12,45.81,13.33,43.61,26.64,87.23,39.98,130.84.86,2.81,2,5.54,3.28,9.02,10.82-3.48,21.33-6.49,31.55-10.29,6.79-2.52,12.01-1.93,18.46,2.06,18.68,11.55,38.06,21.98,57.15,32.86,2.31,1.32,4.74,2.5,6.87,4.07,5.12,3.78,5.88,7.33,2.24,12.79-5.91,8.87-12.16,17.51-18.27,26.24-8.21,11.73-16.38,23.5-24.67,35.18-5.58,7.87-7.24,8.35-15.38,3.05-17.03-11.08-33.87-22.45-50.79-33.69-16.64-11.06-33.29-22.12-49.93-33.17-1.66-1.11-3.21-2.84-5.03-3.19-8.68-1.67-10.76-8.43-13.19-15.49-24.25-70.52-48.65-140.98-73.02-211.45-.86-2.48-1.91-4.9-3.33-8.5-4.88,1.51-9.49,3.05-14.17,4.36-8.05,2.25-10.82.92-13.7-6.91-2.99-8.12-5.81-16.31-8.5-24.53-2.66-8.13-.66-12.76,7.19-15.7,13.09-4.91,26.26-9.6,39.48-14.14,8.09-2.78,11.3-1.24,14.59,7.03,7.13,17.94,14.01,35.98,21.03,53.97,1.19,3.05,2.54,6.03,4.25,10.08Z"/>
  <path class="st0" d="M1390.58,1635.72c-.39,2.5-.66,3.78-.78,5.08q-1.15,12.68-13.36,12.76c-10.66.06-21.32.16-31.99.12-9.11-.04-11.22-1.62-12.33-10.6-.94-7.59-1.17-15.28-1.56-22.93-1.15-22.63-2.25-45.25-3.31-67.89-.46-9.73.49-10.8,10.67-10.72,20.32.15,40.65.58,60.97.77,4.63.04,9.31-.09,13.88-.76,4.99-.74,6.95,1.52,6.89,5.95-.09,6.99-.53,13.98-.8,20.97-.06,1.6,0,3.21,0,5.78,4.44.28,8.31.68,12.19.73,43.64.66,87.29,1.25,130.93,1.9,10.74.16,11.21.61,11.19,11.43-.02,12.99-.14,25.99-.33,38.98-.04,2.98-.37,5.98-.86,8.92-.64,3.82-3.08,5.77-6.99,5.68-6-.13-11.99-.25-17.98-.48-48.61-1.88-97.21-3.8-145.82-5.68-3.27-.13-6.55-.02-10.59-.02Z"/>
  <path class="st0" d="M1085.65,1499.65c3.55,2.77,6.12,4.84,8.76,6.82,35.43,26.56,70.87,53.1,106.31,79.66,7.74,5.8,7.97,6.74,2.53,14.25-8.2,11.32-16.53,22.56-24.87,33.78-1.38,1.86-3.02,3.54-4.67,5.16-3.07,3.02-6.3,3.27-9.76.47-4.4-3.56-8.91-6.98-13.36-10.48-38.71-30.5-77.4-61-116.12-91.48-2.34-1.84-4.78-3.54-7.64-5.64-2.4,2.72-4.55,5.2-6.75,7.64-4.53,5.02-5.69,5.36-10.8,1.77-10.62-7.47-21.16-15.06-31.6-22.77-5.99-4.43-6.24-5.65-3.42-12.61.99-2.44,2.43-4.73,3.87-6.95,15.21-23.46,30.47-46.9,45.71-70.34.91-1.4,1.8-2.8,2.75-4.17,2.5-3.61,5.64-4.51,9.41-2.01,2.5,1.65,4.92,3.41,7.31,5.22,15.96,12.01,31.88,24.08,47.87,36.05,2.64,1.98,5.5,3.7,8.39,5.3,5.17,2.86,5.87,4.36,2.47,9.08-5.05,7-10.53,13.69-16.39,21.26Z"/>
  <path class="st0" d="M990.16,543.7c-2.54-4.18-4.36-7.35-6.36-10.41-2.25-3.45-1.62-6.31,1.57-8.65,11.27-8.27,22.61-16.46,33.85-24.77,3.51-2.59,6.73-2.51,9.86.44,2.41,2.27,4.97,4.43,7.05,6.98,17.87,21.94,35.68,43.94,53.44,65.97,6.61,8.19,6.46,9.61-2.14,15.72-14.11,10.03-28.4,19.8-42.53,29.8-7.26,5.14-14.35,10.52-22.69,16.66-8.69-5.54-11.56-17.06-20-25.56-2.65,1.79-5.59,3.69-8.44,5.7-36.21,25.48-72.41,50.98-108.61,76.47-8.43,5.94-8.99,5.9-14.97-2.35-8.21-11.32-16.46-22.61-24.44-34.09-6.3-9.08-5.74-11.46,3.39-17.58,43.71-29.25,87.45-58.47,131.17-87.7,3.01-2.01,6-4.05,9.83-6.64Z"/>
  <path class="st0" d="M1745.18,1505.4c2.17,3.71,3.72,6.62,5.51,9.37,2.67,4.09,2.18,7.27-1.91,10.2-10.82,7.75-21.61,15.57-32.21,23.61-4.27,3.24-7.86,2.88-11.51-.58-1.92-1.82-3.92-3.61-5.58-5.65-18.05-22.22-36.07-44.46-54.03-66.75-6.6-8.2-6.46-9.55,2.16-15.66,17.11-12.12,34.37-24.03,51.51-36.1,2.97-2.09,5.82-4.4,8.47-6.88,4.62-4.31,6.23-4.43,10.06.87,4.86,6.72,9.35,13.7,14.44,21.22,2.76-1.66,5.29-2.99,7.61-4.62,36.21-25.46,72.4-50.95,108.59-76.44,1.36-.96,2.66-2.01,4.05-2.92,5.39-3.49,6.83-3.44,10.7,1.71,6,7.98,11.68,16.19,17.51,24.3,2.91,4.05,5.96,8.02,8.74,12.16,6.3,9.36,5.94,11.37-3.28,17.55-30.41,20.38-60.85,40.72-91.29,61.06-14.39,9.62-28.79,19.21-43.17,28.84-1.91,1.28-3.71,2.73-6.39,4.7Z"/>
  <path class="st0" d="M1874.86,805.4c-2.78-9.2-5.22-17.48-7.77-25.73-11.51-37.23-23.05-74.45-34.56-111.68-2.81-9.09-2.43-9.95,6.59-12.91,12.97-4.26,26-8.37,39.01-12.51,1.58-.5,3.2-.95,4.84-1.25,7.4-1.35,9.3-.33,11.48,7.21,5.94,20.47,11.71,40.99,17.5,61.51,8.78,31.09,17.51,62.2,26.29,93.29.97,3.44,2.08,6.83,3.25,10.66,4.44-.97,7.99-1.62,11.47-2.55,3.86-1.02,6.65.01,7.92,3.86,4.5,13.59,8.95,27.21,13.33,40.84,1.18,3.68-.13,6.53-3.54,8.36-2.91,1.57-5.73,3.41-8.79,4.6-26.4,10.24-52.83,20.38-79.28,30.48-9.7,3.7-11.28,3.02-14.36-6.86-6.24-20.03-12.21-40.15-18.39-60.2-1.07-3.47-2.4-6.89-3.95-10.17-2.71-5.72-2.32-7.2,3.92-9.33,5.35-1.83,10.87-3.15,16.3-4.76,2.51-.74,4.99-1.62,8.75-2.86Z"/>
  <path class="st0" d="M793.49,1234.93c-4.42,1.04-7.66,1.72-10.85,2.56-4.78,1.27-7.45-.44-8.94-5.22-3.98-12.71-8.15-25.37-12.53-37.95-1.6-4.58-.68-7.76,3.49-10.06,2.61-1.44,5.14-3.11,7.89-4.17,26.72-10.32,53.48-20.53,80.23-30.77.93-.36,1.84-.81,2.79-1.08,6.11-1.73,7.72-1.04,10.08,4.64,1.02,2.45,1.69,5.05,2.47,7.6,5.34,17.52,10.6,35.07,16.05,52.55,1.86,5.97,4.24,11.79,6.88,19.04-7.78,7.8-20.51,5.83-30.5,11.96.77,2.87,1.52,6.04,2.47,9.14,13.04,42.33,26.11,84.66,39.16,126.99,3.2,10.38,3.06,10.68-7.38,14.05-12.36,3.99-24.73,7.96-37.13,11.84-2.83.89-5.78,1.5-8.73,1.92-3.79.55-6.47-.99-7.57-4.84-.64-2.24-1.32-4.47-1.95-6.71-13.86-49.04-27.7-98.07-41.57-147.1-1.25-4.43-2.67-8.82-4.36-14.37Z"/>
  <path class="st0" d="M1649.4,549.38c-3.45-2.75-5.98-4.88-8.62-6.86-35.2-26.38-70.41-52.74-105.62-79.1q-9.16-6.86-2.19-16.43c7.48-10.22,14.96-20.43,22.53-30.59,1.78-2.39,3.78-4.64,5.87-6.76,3.05-3.07,6.39-3.21,9.8-.45,1.82,1.46,3.67,2.87,5.51,4.32,40.57,31.97,81.14,63.94,121.72,95.9,2.87,2.26,5.79,4.44,9.6,7.36,2.5-2.75,5.04-5.21,7.18-7.98,2.95-3.81,6.03-4.87,10.19-1.83,11.03,8.06,22.11,16.05,33.24,23.98,3.52,2.51,4.59,5.62,2.9,9.52-1.32,3.04-2.63,6.13-4.42,8.9-15.36,23.8-30.79,47.55-46.28,71.26-5.84,8.95-7.14,9.25-15.55,3-16.58-12.33-32.97-24.91-49.53-37.26-3.42-2.55-7.11-4.87-10.95-6.72-4.01-1.93-4.62-4.5-2.55-7.99,1.18-1.99,2.74-3.77,4.17-5.61,4.07-5.24,8.16-10.46,13-16.66Z"/>
  <path class="st0" d="M1955.65,1191.5c3.81,1.68,6.74,3.22,9.83,4.28,4.66,1.6,6.31,4.37,4.74,9.19-4.24,12.98-8.36,26-12.51,39.01-1.27,3.99-3.75,6.24-8.13,5.7-2.95-.36-5.95-.6-8.81-1.36-28.02-7.41-56.02-14.87-83.99-22.43-9.06-2.45-9.91-3.83-6.97-12.64,6.76-20.22,13.83-40.33,20.66-60.52,1.27-3.74,2.08-7.65,2.93-11.52,1.1-5,2.46-5.97,7.65-4.67,2.25.56,4.4,1.53,6.6,2.32,5.92,2.14,11.83,4.28,18.65,6.75,1.34-3.35,2.65-6.27,3.68-9.28,14.46-42.23,28.87-84.47,43.31-126.71,3.11-9.09,4.08-9.7,12.81-6.88,13.31,4.3,26.56,8.8,39.83,13.23,1.26.42,2.53.84,3.73,1.42,6.81,3.3,7.79,5.33,5.2,12.62-4.45,12.56-9.15,25.03-13.76,37.53-14.18,38.44-28.37,76.88-42.54,115.32-.92,2.48-1.69,5.02-2.91,8.64Z"/>
  <path class="st0" d="M828.57,903.25c-1.72,4.63-3.17,8.29-4.44,12.02-14.1,41.29-28.16,82.59-42.24,123.88-3.3,9.66-3.87,9.98-13.54,6.83-12.67-4.12-25.31-8.32-37.94-12.54-2.2-.74-4.39-1.58-6.47-2.62-4.45-2.23-6.54-5.44-4.25-10.55,1.36-3.03,2.28-6.26,3.43-9.38,17.4-47.19,34.8-94.37,52.19-141.56,1.36-3.7,2.59-7.45,4.14-11.93-3.84-1.66-7.08-3.17-10.4-4.47-4.05-1.59-5.84-4.12-4.39-8.54,4.24-12.98,8.51-25.95,12.56-38.99,1.44-4.64,4.31-6.47,8.93-5.95,2.97.33,6,.46,8.87,1.22,27.36,7.25,54.7,14.58,82.03,21.98,10.52,2.85,11.25,4.16,7.67,14.78-6.5,19.25-13.26,38.41-19.76,57.65-1.37,4.05-2.23,8.29-3.1,12.49-1.02,4.93-2.41,5.97-7.55,4.81-1.94-.44-3.78-1.27-5.66-1.94-6.25-2.24-12.51-4.48-20.05-7.19Z"/>
  <path class="st0" d="M1344.77,413.6c.43-4.64.86-8.22,1.08-11.82.24-4.04,2.26-6.11,6.3-6.13,14-.06,27.99-.07,41.99-.17,4.35-.03,6.88,1.97,7.73,6.17.6,2.92,1.49,5.84,1.65,8.79,1.53,28.28,3.01,56.56,4.34,84.85.54,11.48-.54,12.54-12.29,12.36-20.66-.32-41.31-.91-61.97-1.3-3.31-.06-6.65.07-9.92.52-6.9.95-8,.23-8.05-6.96-.05-5.99.34-11.99.42-17.99.03-2.25-.24-4.5-.41-7.43-4.07-.19-7.64-.44-11.22-.5-43.98-.67-87.96-1.3-131.94-1.96-9.8-.15-10.44-.69-10.48-10.01-.05-14,.07-27.99.13-41.99,0-1.33-.02-2.68.17-3.99,1.04-7.43,2.81-9.1,10.42-8.87,15.99.47,31.97,1.1,47.95,1.74,38.95,1.55,77.91,3.14,116.86,4.7,1.97.08,3.95.01,7.26.01Z"/>
  <path class="st0" d="M976.77,765.9c0-10.16.05-19.07-.01-27.97-.07-11.65.01-23.32-.48-34.95-.16-3.8-1.32-7.84-3.08-11.22-3.84-7.37-8.46-14.33-12.59-21.55-3.5-6.13-3.46-10.18,1.72-14.1,8.21-6.22,17-11.68,25.73-17.16,3.69-2.31,7.26-.88,9.59,2.51,9.78,14.28,19.47,28.63,29.01,43.07.99,1.5,1.3,3.79,1.13,5.65-1.63,17.52-3.62,35.01-5.01,52.55-.29,3.72.68,8.02,2.43,11.33,9.47,17.95,19.32,35.71,29.15,53.47,4.02,7.27,3.75,8.41-3.94,11.6-8.3,3.44-16.62,6.82-24.89,10.34-6.68,2.85-13.2,3.2-20.36,1.1-55.21-16.26-110.51-32.22-165.77-48.33-9.9-2.88-10.54-3.97-8.99-14.1,1.15-7.57,2.35-15.13,3.71-22.66,1.88-10.43,6.4-13.32,16.87-10.71,37.78,9.41,75.53,18.89,113.3,28.32,3.53.88,7.09,1.61,12.49,2.82Z"/>
  <path class="st0" d="M1203.54,585.65c13.4-18.67,26.07-36.16,38.49-53.84,1.41-2,1.71-4.97,1.99-7.54.91-8.27,1.48-16.58,2.37-24.86.89-8.26,3.88-11.33,12.16-11.3,8.98.03,17.98.59,26.93,1.37,6.21.54,8.15,2.62,8.02,9.12-.34,16.65-1.02,33.29-1.83,49.92-.1,2.07-1.42,4.4-2.83,6.03-11.56,13.29-23.4,26.34-34.83,39.74-2.22,2.6-3.84,6.3-4.32,9.69-2.86,20.1-5.42,40.25-7.83,60.41-1.02,8.52-2.12,9.5-10.73,7.43-8.41-2.02-16.82-4.07-25.25-6.03-7.39-1.71-13.16-5.39-17.93-11.59-34.71-45.15-69.67-90.1-104.55-135.11-1.02-1.32-2-2.67-3.06-3.94-3.45-4.13-2.72-7.77.99-11.37,6.45-6.26,12.6-12.85,19.16-18.99,7.53-7.05,12.41-6.61,19.15,1.41,25.71,30.6,51.36,61.24,77.06,91.85,1.91,2.27,3.97,4.42,6.85,7.61Z"/>
  <path class="st0" d="M1835.72,1004.13c7.35,10.11,14.11,19.51,20.97,28.83,6.32,8.59,11.47,18.64,19.47,25.2,7.7,6.32,18.38,9,27.75,13.29,8.23,3.77,10.08,7.31,7.27,15.68-2.75,8.2-5.89,16.29-9.21,24.28-2.48,5.98-4.89,7.24-10.88,5.16-15.73-5.44-31.38-11.14-46.95-17.04-2.22-.84-4.33-3.04-5.6-5.14-9.28-15.36-18.2-30.94-27.59-46.23-1.61-2.62-4.64-4.78-7.49-6.16-18.28-8.86-36.66-17.5-55.08-26.09-7.54-3.51-7.98-4.6-3.58-11.74,4.72-7.66,9.47-15.29,14.1-23.01,3.74-6.23,8.8-10.41,15.81-12.91,53.95-19.22,107.82-38.69,161.73-58.05,10.9-3.91,11.34-3.69,16.8,6.97,3.03,5.93,6.07,11.86,9.01,17.84,5.79,11.77,4.32,15.83-7.53,20.62-36.43,14.73-72.88,29.41-109.31,44.14-3.01,1.22-5.92,2.65-9.67,4.34Z"/>
  <path class="st0" d="M1242.12,1475.91c-21.43,7.1-41.36,13.57-61.16,20.41-2.93,1.01-5.61,3.43-7.82,5.77-5.71,6.05-11.02,12.48-16.63,18.62-5.36,5.87-9.29,6.64-15.58,2.11-7.56-5.44-14.77-11.39-21.85-17.44-4.22-3.61-4.6-6.62-1.04-11.32,10.24-13.54,20.76-26.88,31.38-40.13,1.28-1.6,3.75-2.65,5.85-3.13,17.16-3.93,34.41-7.45,51.51-11.63,3.6-.88,7.25-3.39,9.88-6.11,14.11-14.6,27.93-29.49,41.8-44.33,4.88-5.22,6.52-5.37,11-.2,6.1,7.04,12,14.27,18.14,21.28,4.8,5.48,7.34,11.6,7.52,18.99.58,23.63,1.49,47.26,2.2,70.89,1.03,33.95,2.04,67.9,2.96,101.85.29,10.76-.09,11.08-10.54,12.81-7.55,1.25-15.09,2.68-22.68,3.56-11.16,1.3-14.54-1.64-15.3-12.6-2.73-39.19-5.43-78.38-8.19-117.57-.25-3.57-.85-7.12-1.44-11.85Z"/>
  <path class="st0" d="M1734.24,732.92c21.73,6.92,42.28,13.55,62.92,19.9,2.33.72,5.22.14,7.75-.37,8.48-1.72,16.9-3.75,25.36-5.52,6.87-1.44,11.16.45,13.32,6.97,3.03,9.15,5.32,18.55,7.81,27.88,1.26,4.74-.99,7.97-5.34,9.27-16.58,4.96-33.21,9.76-49.89,14.33-1.92.53-4.48-.4-6.49-1.26-16.52-7-32.9-14.33-49.52-21.09-3.14-1.28-7.25-1.11-10.7-.49-19.65,3.54-39.25,7.38-58.85,11.2-7.92,1.54-9.14.7-9.85-7.64-.76-8.96-1.44-17.92-2.17-26.88-.56-6.85.92-13,4.9-18.83,32.68-47.84,65.2-95.8,97.81-143.69,5.62-8.25,6.61-8.48,15.39-4.08,7.14,3.58,14.3,7.14,21.3,10.99,9.16,5.05,10.45,9.83,5.02,18.55-20.96,33.63-42,67.2-62.99,100.8-1.87,3-3.55,6.12-5.77,9.98Z"/>
  <path class="st0" d="M1492.48,573.01c7.18-2.36,13.1-4.31,19.02-6.26,13.28-4.36,26.52-8.82,39.85-13.01,4.62-1.45,8.3-3.78,11.38-7.55,4.84-5.92,10.01-11.59,15.16-17.26,6.24-6.87,10.46-7.29,18-1.58,5.84,4.42,11.48,9.1,17.15,13.74,7.96,6.51,8.28,8.36,2.19,16.3-9.12,11.89-18.41,23.65-27.63,35.46-.61.79-1.11,1.8-1.92,2.27-1.92,1.13-3.89,2.43-6.01,2.92-17.47,4.06-35.01,7.8-52.44,12.03-3,.73-6.03,2.85-8.21,5.12-14.09,14.63-27.99,29.44-41.85,44.29-5.72,6.14-6.92,6.26-12.23.04-6.05-7.09-12.11-14.18-18.17-21.27-4.47-5.23-6.67-11.08-6.87-18.18-1.61-56.58-3.5-113.16-5.29-169.73-.08-2.66-.2-5.33-.11-7.99.13-3.8,2.05-6.27,5.9-6.91,10.17-1.69,20.31-3.75,30.55-4.86,7.84-.84,11.8,3.27,12.43,11.93,1.63,22.25,3.04,44.51,4.58,66.76,1.42,20.57,2.9,41.13,4.5,63.73Z"/>
  <path class="st0" d="M1000.92,1316.24c-10.25-3.38-19.33-6.44-28.47-9.36-10.14-3.25-20.24-6.69-30.53-9.39-4.31-1.13-9.17-1.29-13.58-.62-7.88,1.2-15.57,3.54-23.41,5.06-7.69,1.5-11.36-.43-13.76-7.83-2.77-8.54-5.09-17.24-7.11-25.99-1.47-6.33-.24-8.58,6.04-10.49,15.92-4.84,31.93-9.39,47.99-13.72,2.26-.61,5.23.11,7.52,1.07,16.55,6.93,32.95,14.2,49.53,21.05,2.55,1.05,5.88,1.07,8.67.57,20.31-3.63,40.59-7.46,60.85-11.37,7.49-1.44,8.91-.64,9.49,6.65.77,9.62,1.46,19.25,2.19,28.88.52,6.88-1.28,12.85-5.29,18.7-32.38,47.24-64.51,94.65-96.73,142-6.38,9.38-6.8,9.48-16.79,4.45-6.54-3.3-13.1-6.57-19.55-10.03-10.2-5.48-11.49-10.13-5.47-19.78,20.62-33.05,41.3-66.07,61.94-99.1,1.93-3.09,3.77-6.23,6.49-10.74Z"/>
  <path class="st0" d="M1531.6,1463.24c-10.04,13.96-18.76,27.35-28.8,39.67-8.85,10.86-13.62,22.5-13.22,36.46.11,3.62-.71,7.28-1.19,10.91-1.01,7.57-3.9,10.46-11.72,10.47-8.98,0-17.98-.42-26.94-1.07-5.81-.42-7.99-2.48-7.89-8.17.32-17.3,1.03-34.6,1.79-51.9.08-1.76,1.25-3.76,2.47-5.15,11.58-13.26,23.48-26.25,34.81-39.71,2.59-3.07,4.24-7.54,4.82-11.58,2.88-20.09,5.24-40.25,7.81-60.38.8-6.3,2.41-7.59,8.34-6.21,10.04,2.34,20.05,4.83,30.04,7.38,5.63,1.44,10.18,4.41,13.83,9.14,35.61,46.11,71.34,92.12,106.99,138.2,6.11,7.9,6,8.71-1.01,15.83-5.61,5.69-11.18,11.42-17.01,16.89-7.54,7.08-12.54,6.78-19.13-1.05-25.5-30.32-50.93-60.7-76.4-91.04-2.12-2.52-4.34-4.95-7.61-8.66Z"/>
  <path class="st0" d="M899.49,1044.93c-8.63-11.81-17.27-22.03-24.09-33.35-9.93-16.48-23.62-27.06-41.72-33.21-12.13-4.13-13.09-7.72-8.69-19.67,2.64-7.19,5.46-14.31,8.13-21.48,1.86-5,5.53-6.74,10.31-5.06,16.32,5.76,32.57,11.72,48.77,17.81,1.63.61,3.07,2.43,4.03,4.04,9.05,15.12,17.8,30.42,27.07,45.39,1.96,3.17,5.3,6.05,8.67,7.7,18.23,8.95,36.65,17.51,55.05,26.12,7.1,3.32,7.59,4.46,3.59,11-4.69,7.67-9.53,15.25-14.11,22.99-3.88,6.56-9.08,10.93-16.47,13.56-53.64,19.05-107.18,38.41-160.74,57.67-1.88.68-3.78,1.28-5.65,1.98-4.13,1.54-7.19.25-9.15-3.57-4.56-8.89-9.42-17.65-13.44-26.77-3.56-8.06-1.21-12.43,7.7-16.04,36.41-14.75,72.85-29.42,109.27-44.14,3.37-1.36,6.68-2.87,11.47-4.94Z"/>
  <path class="st0" d="M1758.3,1283.27c0,17.81.58,34.12-.19,50.36-.59,12.53,1.89,23.59,9.49,33.62,2.8,3.69,4.91,7.92,7.14,12.01,3.09,5.69,2.7,10.27-2.44,14.07-8.02,5.92-16.5,11.26-24.99,16.51-4.7,2.9-8.22.3-10.92-3.67-5.25-7.71-10.07-15.74-15.76-23.1-9.38-12.15-15.78-24.21-11.34-40.79,2.96-11.05,1.95-23.15,2.93-34.76.43-5.15-.41-9.71-3.01-14.31-9.82-17.39-19.3-34.97-28.96-52.45-3.41-6.18-3.01-7.92,3.28-10.56,8.9-3.73,17.88-7.26,26.79-10.97,6.37-2.65,12.62-2.97,19.39-.98,55.24,16.23,110.54,32.22,165.81,48.34,10.18,2.97,10.59,3.74,9.01,13.93-1.22,7.89-2.23,15.83-3.82,23.65-2.09,10.29-5.92,12.57-16.19,10.02-38.76-9.6-77.51-19.27-116.26-28.88-2.85-.71-5.75-1.19-9.96-2.04Z"/>
</svg>