<?xml version="1.0" encoding="UTF-8"?>
<svg id="Layer_0_xA0_Image" xmlns="http://www.w3.org/2000/svg" version="1.1" viewBox="0 0 2048 2732">
  <!-- Generator: Adobe Illustrator 30.2.1, SVG Export Plug-In . SVG Version: 2.1.1 Build 1)  -->
  <defs>
    <style>
      .st0 {
        fill: #816b7d;
      }
    </style>
  </defs>
  <path class="st0" d="M1022.42,1917.14c-3.59,1.36-6.28,2.51-9.05,3.41-64.61,20.93-129.25,41.79-193.83,62.83-4.96,1.61-9.62,1.15-14.58.77-19.6-1.5-39.22-2.67-58.84-3.89-58.19-3.63-116.38-7.23-174.57-10.87-2.95-.18-5.88-.63-9.92-1.08-2.54-32.51-5.07-64.88-7.59-97.12,27.78,3.72,54.46,7.31,81.15,10.86,47.86,6.37,95.73,12.72,143.6,19.09,21.79,2.9,43.56,5.89,65.37,8.64,3.56.45,7.36.31,10.88-.38,44.76-8.76,89.49-17.67,134.24-26.53,2.29-.45,4.61-.73,6.89-1.2,4.12-.85,7.4.58,9.35,4.1,5.63,10.14,11.03,20.41,16.91,31.38Z"/>
  <path class="st0" d="M1175.86,1513.29c19.91,18.21,39.89,36.49,61.38,56.15-10,1.66-18.27,2.18-25.99,4.51-13.69,4.13-23.56.16-33.3-10.06-12.6-13.23-26.88-24.86-40.89-37.59-2.19,1.48-4.24,2.86-6.82,4.61,17.5,16.95,34.41,33.34,52.23,50.6-3.12,1.33-4.73,2.47-6.45,2.68-11.57,1.38-23.19,2.37-34.74,3.9-5.6.74-9.22-.81-12.51-5.61-8.27-12.09-17.15-23.77-25.75-35.64-2.56-3.54-5.14-6.89-10.98-5.55,8.76,17.71,21.44,32.81,29.38,50.82-8.08,2.06-37.38.31-50.88-2.74-5.24-13.54-10.6-27.42-16.23-41.96-23.69,6.2-46.71,12.23-70.67,18.5-2.59-7.99-4.78-14.78-7.16-22.11,4.22-2.08,7.38-3.78,10.66-5.23,31.68-13.98,63.4-27.85,95.04-41.92,4.82-2.14,9.48-4.81,13.86-7.77,31.73-21.46,63.35-43.08,95.05-64.59,9.09-6.17,9.51-6.05,17.63,1.9,9.05,8.86,18.21,17.6,27.02,26.69,3.67,3.78,7.79,5.86,12.87,6.81,50.39,9.44,100.76,18.96,151.13,28.49,3.88.73,7.72,1.67,13.01,2.82-2.26,1.89-3.4,3.32-4.88,4.01-20.8,9.75-41.72,19.26-62.42,29.22-4.15,2-7.48,1.34-11.4.13-31.48-9.73-63-19.35-94.52-28.96-3.36-1.02-6.8-1.78-10.66-1.45,9.45,7.26,20.3,11.62,30.69,16.79,11.03,5.49,22.16,10.76,33.25,16.14,10.73,5.21,21.45,10.42,33.66,16.35-3.03,1.34-4.54,2.31-6.17,2.67-20.17,4.37-40.44,8.29-60.49,13.16-6.99,1.7-11.95.19-17.37-3.96-18.5-14.19-37.27-28.03-55.97-41.97-3.09-2.3-6.23-5.87-10.62.17Z"/>
  <path class="st0" d="M515.3,1754.7c23.67-21.98,46.52-43.2,69.82-64.84,2.33,1.43,4.59,2.63,6.66,4.11,21.69,15.47,43.44,30.87,64.96,46.59,4.86,3.55,9.25,5.27,15.48,3.91,7.36-1.61,15.06-1.7,22.61-2.45,4.17,5.98,8.38,11.94,12.51,17.95,2.44,3.54,4.76,7.16,7.83,11.78,3.78-3.65,7.09-6.76,10.31-9.96,3.06-3.04,6.04-6.17,9.42-9.63,14.02,10.04,27.88,19.63,41.34,29.76,5.41,4.07,10.53,5.89,17.41,4.66,10.11-1.82,20.39-2.8,30.64-3.6,2.68-.21,5.7,1.21,8.26,2.5,14.54,7.34,28.99,14.88,44.13,22.68,7.76-6.9,15.42-13.71,23.16-20.59,31.29,8.41,62.39,16.81,93.53,25.1,5.03,1.34,7.15,4.07,6.57,9.37-.76,6.9-1.05,13.85-1.57,21.14-3.36.24-5.97.55-8.58.59-49.63.72-99.27,1.12-148.89,2.25-19.07.44-37.77-1.18-56.52-4.39-44.29-7.58-88.67-14.66-133.01-21.95-5.51-.91-11.05-1.51-15.15-6.24-1.41-1.63-4.05-2.2-6.15-3.21-34.49-16.62-68.99-33.23-103.48-49.85-3.27-1.57-6.48-3.25-11.29-5.67Z"/>
  <path class="st0" d="M403.94,1624.81c-.65,3.58-.89,7.3-2.01,10.72-9.61,29.42-19.21,58.85-29.22,88.14-2.24,6.54-2.3,11.67,2.31,17.34,6.05,7.43,11.15,15.64,17.07,24.12,9.63-2.83,18.72-6.03,28.06-8.11,15.08-3.35,27.42-10.55,38.43-21.52,15.08-15.04,31.36-28.88,47.15-43.21,2.42-2.2,4.97-4.25,7.45-6.36,7.73,8.6,7.89,9.75,1.51,17.83-20.23,25.62-40.63,51.11-60.69,76.86-3.17,4.07-5.78,9.02-7.16,13.97-11.44,41.04-22.44,82.19-33.81,123.24-1.53,5.52-1.17,10.18,1.41,15.29,10.33,20.52,20.35,41.19,30.45,61.82.93,1.91,1.63,3.93,3.31,8.05-3.66-2.08-5.4-2.77-6.79-3.89-47.3-38.46-94.52-77.01-141.9-115.37-4.28-3.46-5.07-6.73-3.94-11.99,8.49-39.36,16.61-78.81,24.95-118.21.54-2.55,1.49-5.16,2.87-7.35,23.98-38.02,48.05-75.98,72.14-113.94,1.85-2.92,3.93-5.69,5.91-8.53.84.36,1.68.72,2.53,1.08Z"/>
  <path class="st0" d="M1303.41,2025.95c1.93-4.96,3.1-8.22,4.45-11.41,20.38-48.14,40.71-96.3,61.28-144.36,2.62-6.13,3.05-11.77,1.68-18.32-12.42-59.64-24.52-119.35-36.69-179.04-.91-4.45-2.73-9.13,2.76-13.13,28.11,9.9,56.6,19.94,86.09,30.33,1.69,22.16,3.99,44.29,4.94,66.49,1.23,28.96,1.27,57.96,2.06,86.94.25,9.01-.88,17.09-5.01,25.63-9.13,18.85-16.45,38.57-24.49,57.95-7.92,19.06-15.73,38.18-23.84,57.16-1.2,2.81-3.3,5.95-5.85,7.34-20.16,11.02-40.53,21.67-60.86,32.37-1.32.7-2.89.93-6.52,2.06Z"/>
  <path class="st0" d="M550.27,1330.19c-26.11-11.95-49.94-22.75-73.66-33.8-5.29-2.47-10.15-3.06-16.08-2.06-18.05,3.03-36.26,5.09-54.4,7.54-1.54.21-3.06.56-7.01,1.29,39.61,30.84,77.53,60.38,115.95,90.29-1.67,17.32-3.34,34.69-5.05,52.46-26-24.16-51.94-46.71-77.48-69.71-17.57-15.83-35.33-31.46-52.82-47.38-4.6-4.19-9.39-6.56-15.75-7.46-47.79-6.73-95.51-13.99-143.3-20.76-4.35-.62-9.29.36-13.53,1.85-17.9,6.28-35.62,13.05-53.43,19.6-2.94,1.08-5.97,1.9-8.96,2.84-.3-.6-.61-1.2-.91-1.8,1.6-1.38,3.04-3.01,4.81-4.12,25.65-16.13,51.33-32.22,77.08-48.21,2.17-1.35,4.8-2.28,7.33-2.7,23.96-4.01,47.94-7.98,71.95-11.66,3.79-.58,7.82.26,11.73.58,9.62.79,19.22,1.76,28.84,2.47,49.15,3.64,98.3,7.3,147.47,10.78,21.07,1.49,21.07,1.3,32.07,18.86,7.07,11.29,14.18,22.56,21.23,33.86,1.01,1.62,1.83,3.37,3.92,7.25Z"/>
  <path class="st0" d="M1379.24,1318.51c-19.57,13.12-38,25.47-57.61,38.61-1.27-3.8-2.54-6.38-2.97-9.1-4.5-28.61-9-57.21-13.09-85.88-.57-4,.35-8.64,1.88-12.45,9.18-22.85,18.66-45.59,28.29-68.26,1.38-3.25,3.71-6.31,6.21-8.85,19.63-19.94,39.33-39.81,59.21-59.5,2.72-2.7,6.28-5.33,9.89-6.22,31.97-7.96,64.03-15.52,96.07-23.18.63-.15,1.32-.02,2.11-.02,6.91,5.21,13.93,10.5,22.21,16.75-3.98,2.68-6.78,4.8-9.78,6.56-25.84,15.18-51.67,30.37-77.6,45.39-5,2.9-9.03,6.39-12.29,11.27-17.56,26.32-35.27,52.53-53.22,78.59-3.47,5.03-4.46,9.95-3.95,15.88,1.76,20.21,3.13,40.46,4.62,60.42Z"/>
  <path class="st0" d="M1174.57,1081.63c-1.82-19.11,2.14-37.48,1.03-56.59-3.28.56-6.17.84-8.96,1.55-20.65,5.25-41.25,10.69-61.93,15.82-5.49,1.36-9.27,4.14-12.43,8.91-20.97,31.67-42.23,63.15-63.28,94.76-2.56,3.85-4.68,8.06-6.55,12.31-23.81,53.92-47.53,107.89-71.31,161.83-1.05,2.38-2.33,4.66-3.88,7.71-3.42-3.64-1.13-6.71-.33-9.46,9.34-31.96,18.8-63.88,28.21-95.81,1.58-5.37,3.06-10.77,3.29-17.04-2.22,2.58-4.5,5.11-6.64,7.76-24.9,30.86-49.76,61.76-74.69,92.6-2.18,2.7-4.75,5.09-7.75,8.28-2.54-5.78,1.11-8.27,2.88-11.03,32.13-50.25,64.21-100.52,96.72-150.52,9.67-14.87,17.89-30.23,23.96-46.94,8.64-23.78,18.31-47.18,27.27-70.85,2.26-5.97,5.67-10.11,11.52-12.91,14.12-6.75,27.94-14.12,42.02-20.95,3.49-1.69,7.48-3.15,11.28-3.26,39.95-1.22,79.91-2.14,119.88-3.14-1.39,7.79-43.37,80.9-50.33,86.97Z"/>
  <path class="st0" d="M546.22,1668.5c1.63-2.7,3.18-5.46,4.92-8.09,9.01-13.61,17.94-27.26,27.18-40.71,2.79-4.06,4.01-8.13,3.9-13.02-.24-11.31-.08-22.62-.08-34.99-7.2-2-14.34-3.39-21.03-5.96-14-5.38-27.46-4.66-41.68-.09-18.35,5.9-37.21,10.21-55.88,15.11-3.33.87-6.79,1.28-10.93,2.03.71-5.97,4.76-6.8,7.66-8.48,24.49-14.19,49.22-27.96,73.49-42.5,8.02-4.8,15.67-7.27,25.13-6.26,13.89,1.48,27.92,1.52,41.88,2.5,3.15.22,6.54,1.2,9.27,2.78,31.98,18.52,63.86,37.21,95.74,55.92,2.41,1.41,4.57,3.24,6.84,4.88-.12.72-.24,1.44-.36,2.16-4.37.66-8.76,1.94-13.11,1.84-10.36-.23-19.29,3.15-28.26,8.11-37.87,20.95-75.99,41.46-114.03,62.09-3.01,1.63-6.17,3-9.26,4.49-.47-.6-.93-1.2-1.4-1.8Z"/>
  <path class="st0" d="M784.32,1723.3c-2.25,2.67-4.78,5.64-7.27,8.65-2.74,3.3-5.53,4.47-9.2,1.08-8.81-8.13-17.69-16.19-26.7-24.1-3.66-3.22-7.42-6.56-11.68-8.82-13.81-7.35-27.88-14.21-41.83-21.29-1.67-.85-3.24-1.89-6.15-3.59,2.74-1.04,4.07-1.7,5.49-2.06,23.22-5.91,46.47-11.67,69.64-17.77,4.2-1.11,7.41-1.21,11.03,1.7,21.25,17.11,42.67,34,64.49,51.33-1.36,2.43-2.58,4.62-3.98,7.12,1.25.22,2.25.73,3.01.48,8.54-2.79,17.02-5.75,25.55-8.56,13.53-4.47,9.64-6.24,21.16,5.01,4.49,4.38,8.94,8.82,13.6,13.42,9.8-4.78,19.03-9.27,27.86-13.58,20.9,8.98,41.31,17.75,62.27,26.76v25.01c-3.23-.19-6.43-.09-9.53-.61-17.4-2.9-34.78-5.9-52.14-8.99-5.37-.95-10.59-1.4-15.42,1.79-3.88,2.57-7.31,2.08-10.89-.9-4.09-3.4-8.75-6.12-12.78-9.58-4.51-3.87-8.83-4.52-14.61-2.54-16.05,5.51-32.33,10.34-48.53,15.4-2.81.88-5.69,1.53-9.83,2.62-3.3-8.26-6.81-16.04-9.5-24.09-2.28-6.84-5.99-11.73-14.06-13.87Z"/>
  <path class="st0" d="M891.74,944.82c-3.55,9.29-6.89,18.31-10.49,27.21-.67,1.67-2.18,3.26-3.71,4.28-16.08,10.67-32.24,21.21-48.37,31.79-7.64,5.01-23.45,5.04-31.02-.27-14.72-10.32-29.32-20.8-43.94-31.27-1.59-1.14-3.36-2.4-4.28-4.04-5.5-9.84-10.76-19.81-16.61-30.67,3.36-2.03,6.31-3.99,9.41-5.66,12.01-6.47,23.93-13.15,36.18-19.14,5.93-2.9,9.44-6.84,10.65-13.25.68-3.58,1.92-7.06,2.98-10.56q2.97-9.84,13.62-10.95c6.59-.68,13.18-1.31,20.51-2.04,2.08,8.28,4.08,16.23,6.26,24.89,8.9,2.32,17.81,4.83,26.83,6.91,5.75,1.33,10.28,3.76,13.79,8.81,5.69,8.17,12.02,15.89,18.2,23.95Z"/>
  <path class="st0" d="M873.5,901.3c-9.95-2.76-19.4-5.37-29.57-8.19,1.68-4.04,2.83-7.09,4.21-10.04,8.48-18.09,17.14-36.1,25.45-54.28,2.43-5.31,5.59-9.52,10.38-12.99,17-12.31,33.71-25.02,50.63-37.45,2.64-1.94,5.68-3.42,8.69-4.77,20.96-9.41,41.93-18.82,62.98-28.03,5.36-2.34,9.57-5.54,12.94-10.43,7.55-10.98,15.32-21.82,23.45-32.37,3.8-4.93,5.97-10.19,7.15-16.18,3.36-16.98,6.87-33.94,10.43-50.88.56-2.68,1.74-5.23,4.56-7.77.5,1.35,1.29,2.67,1.46,4.07,3.32,28.45,6.5,56.91,9.89,85.35.56,4.67-.64,8.2-3.67,11.81-9.2,10.97-18.02,22.27-27.06,33.39-1.24,1.53-2.81,2.8-4.31,4.1-1,.87-2.13,1.6-3.22,2.36-15.01,10.47-29.12,22.7-45.28,30.91-15.86,8.06-33.55,13.01-50.9,17.53-17.24,4.49-28.29,16.89-40.65,27.78-2.57,2.27-3.73,6.22-5.31,9.51-7.34,15.25-14.59,30.53-22.24,46.57Z"/>
  <path class="st0" d="M578.6,585.7c.95,3.34,2.08,6.64,2.83,10.02,4.32,19.49,8.63,38.98,12.77,58.51,1.33,6.3,3.66,11.87,7.75,16.99,8.73,10.92,17.17,22.09,25.4,33.39,3.64,5,8.11,8.55,13.51,11.44,24.07,12.87,48.06,25.89,71.96,39.07,3.68,2.03,6.92,4.96,10.08,7.8,13.87,12.46,27.62,25.07,41.48,37.54,1.43,1.29,3.34,2.04,6.31,3.81-7.82,9.47-15.9,18.42-24.37,28.33-7.47-6.94-14.79-12.75-20.94-19.61-15.78-17.63-34.91-29.34-57.82-35.07-17.83-4.46-32.67-13.76-45.8-26.7-11.84-11.67-25.1-21.88-37.31-33.19-4.26-3.95-8.04-8.88-10.66-14.06-7.21-14.24-13.6-28.9-20.53-43.29-1.84-3.83-2.44-7.28-.93-11.4,6.97-19.06,13.68-38.22,20.6-57.3.82-2.27,2.35-4.29,3.55-6.43.71.05,1.41.1,2.12.15Z"/>
  <path class="st0" d="M550.7,674.91c1.41,2.94,2.94,5.82,4.2,8.82,5.17,12.27,9.88,24.75,15.52,36.79,3.79,8.09,5.18,16.3,5.29,25.08.19,14.98.94,29.96,1.28,44.94.12,5.52,1.7,10.25,4.9,14.83,7.62,10.92,15.02,22,22.15,33.25,3.04,4.79,6.9,7.59,12.26,9.33,26.59,8.62,53.04,17.66,79.64,26.23,5.76,1.86,9.68,4.7,12.52,10.25,5.92,11.54,12.65,22.67,18.94,34.03,1.35,2.43,2.28,5.08,4.07,9.17-5.07-.96-8.26-1.39-11.35-2.18-28.38-7.2-56.78-14.35-85.08-21.83-4.34-1.15-8.71-3.32-12.27-6.05-17.43-13.39-34.42-27.36-51.93-40.63-6.18-4.68-9.88-9.91-11.57-17.62-3.7-16.89-8.29-33.59-12.73-50.31-2.57-9.7-3.86-19.3-3.14-29.5,1.84-25.9,2.69-51.87,4.03-77.81.12-2.28.96-4.53,1.46-6.8.59.01,1.19.02,1.78.03Z"/>
  <path class="st0" d="M881.82,1374.46c-4.99,5.45-8.76,2.16-12.17.95-25.74-9.08-51.42-18.35-77.09-27.65-37.55-13.6-75.07-27.31-112.64-40.85-2.74-.99-5.81-1.31-8.74-1.45-35.6-1.78-71.21-3.45-106.82-5.18-3.13-.15-6.25-.49-9.37-.74-.1-.73-.21-1.45-.31-2.18,20.04-7.07,40.07-14.13,60.11-21.2-.07-.58-.13-1.15-.2-1.73-7.24-2.09-14.46-4.23-21.71-6.26-23.72-6.64-47.43-13.35-71.22-19.74-5.06-1.36-9.01-3.71-12.61-7.44-24.97-25.92-50.09-51.69-75.1-77.56-2.17-2.24-3.95-4.85-6.56-8.1,5.92-1.81,8.13,1.82,10.73,3.77,28.51,21.41,56.97,42.88,85.31,64.5,5.39,4.11,11.1,7,17.58,9.02,43.55,13.55,87.05,27.26,130.49,41.13,6.93,2.21,13.69,5.13,20.25,8.3,59.96,28.99,119.86,58.11,179.77,87.2,3.23,1.57,6.41,3.25,10.3,5.22Z"/>
  <path class="st0" d="M1652.82,1227.38c2.59-4.32,4.38-7.44,6.3-10.49,16.11-25.65,32.07-51.41,48.52-76.84,3.93-6.08,4.93-11.19.59-17.14-1.16-1.58-1.98-3.5-2.58-5.39-3.01-9.48-11.7-9.9-19.23-11.63-1.85-.43-4.67,1.96-6.6,3.57-5.79,4.85-11.36,9.96-17.79,15.66-2.84-5.31-5.14-9.6-7.76-14.49-2.52.73-5.02,1.23-7.35,2.16-23.47,9.4-46.89,18.94-70.4,28.26-2.78,1.1-5.68,4.04-9.88.46,1.64-1.84,3.07-3.86,4.9-5.4,12.99-10.94,25.94-21.93,39.18-32.56,3.23-2.6,7.31-4.62,11.32-5.7,23.45-6.31,46.98-12.31,70.53-18.24,2.4-.6,5.21-.54,7.63.03,11.65,2.76,23.28,5.66,34.82,8.83,2.71.74,5.59,2.27,7.49,4.29,7.76,8.24,15.06,16.9,22.74,25.21,3.13,3.39,3.78,6.54,1.64,10.76-7.55,14.83-14.84,29.79-22.27,44.67-.73,1.46-1.61,2.95-2.76,4.08-20.22,19.8-40.48,39.55-60.76,59.28-.69.67-1.66,1.06-1.5.96-8.92-3.44-17.09-6.6-26.77-10.34Z"/>
  <path class="st0" d="M547.46,1641.08c-6.4-8.87-12.21-16.91-18.47-25.58-10.74.6-21.65,1.22-33.92,1.9,1.28,7.53,2.42,14.22,3.73,21.95,7.64.44,15.1.86,23.25,1.33v33.54c-13.08,1.28-26.38,2.58-40.44,3.96v-14.89c-14.84,1.84-28.89,3.57-42.52,5.26-2.75,5.18-.16,7.34,3.46,9.2,9.47,4.88,18.9,9.83,28.31,14.82,2.87,1.52,5.62,3.26,8.5,4.95-4.66,6.09-53.13,40.45-65.09,46.12,2.21-7.35,3.86-13.97,6.22-20.34,2.19-5.91,2.12-11.5.52-17.54-4.78-18.01-9.01-36.17-13.85-54.16-1.29-4.79-.75-8.2,2.9-11.59,5.37-4.98,10.34-10.39,15.6-15.49,1.28-1.25,3.03-2.01,5.62-3.68v19.37h41.25c-2.5-9.54-6.09-17.5-10.07-26.29h-25.52c2.74-2.85,3.83-4.27,5.19-5.31,1.3-1,3-1.47,4.36-2.42,17.94-12.55,37.59-16.61,59.43-14.57,19.52,1.82,39.26,1.32,58.91,1.88,2.29.06,4.57.3,6.9.45-1.26,7.2-16.38,36.76-24.3,47.14Z"/>
  <path class="st0" d="M492.79,2335.17c-1.21-1.14-2.58-2.05-3.46-3.3-46.19-66.05-92.47-132.05-138.4-198.29-8.2-11.82-17.31-22.64-27.37-32.87-54.44-55.34-108.77-110.78-162.94-166.38-5.5-5.64-9.89-12.4-14.51-18.84-14.18-19.75-28.17-39.65-42.39-59.37-3.37-4.68-5.54-9.42-6.39-15.31-3.91-27.01-8.38-53.94-12.58-80.91-.28-1.78-.04-3.65-.04-6.08,4.76,1.03,4.84,4.26,5.63,6.96,7.21,24.59,14.31,49.22,21.76,73.74,1.51,4.99,3.77,9.98,6.71,14.26,15.67,22.78,31.56,45.4,47.63,67.9,3.45,4.83,7.81,9.04,11.99,13.29,58.4,59.38,116.79,118.78,175.35,178,6.62,6.69,12.17,13.92,17.03,21.94,33.81,55.84,67.78,111.58,101.77,167.3,6.07,9.95,12.49,19.68,18.65,29.57,1.46,2.34,4.5,4.47,1.55,8.35Z"/>
  <path class="st0" d="M628.43,314.74c2.45-2.11,4.18-3.93,6.22-5.29,18.28-12.21,36.52-24.49,55.02-36.35,4.07-2.61,9-4.41,13.77-5.27,33.09-5.96,66.23-11.62,99.38-17.2,2.78-.47,6.05-.35,8.63.67,30.66,12.04,61.07,24.76,91.91,36.3,15.55,5.82,29,13.88,41.26,25.14,25.76,23.66,52.38,46.38,78.56,69.58,2.5,2.22,6.21,3.81,6.45,8.77-4.47.23-7.01-2.62-9.82-4.52-34.52-23.29-68.91-46.76-103.55-69.86-5.41-3.61-11.67-6.46-17.94-8.15-32.46-8.72-65.08-16.86-97.59-25.44-5.68-1.5-11.03-1.55-16.71-.27-48.06,10.81-96.14,21.52-144.23,32.19-3.34.74-6.82,2.42-11.37-.31Z"/>
  <path class="st0" d="M213.77,1244.57c2.1-1.87,4.06-3.94,6.31-5.6,47.51-34.94,94.85-70.1,142.73-104.53,10.98-7.9,20.11-16.92,28.27-27.53,24.37-31.7,49.15-63.08,73.79-94.57,1.99-2.54,4.16-4.92,7.35-8.68.72,3.84,1.24,5.93,1.49,8.05,1.7,14.55,3.39,29.11,4.98,43.68.63,5.75,2.64,10.77,5.85,15.66,17.71,27.03,35.19,54.21,52.71,81.36,1.69,2.61,3.1,5.4,5.13,8.97-5.46.3-7.23-2.91-9.47-4.98-19.84-18.3-39.55-36.75-59.42-55.01-3.1-2.85-7-4.81-10.2-7.57-1.57-1.36-2.85-3.47-3.44-5.48-2.15-7.26-3.95-14.63-6.3-23.52-2.95,3.82-5.02,6.31-6.87,8.95-15.1,21.56-30.05,43.22-45.34,64.65-2.39,3.35-5.87,6.3-9.46,8.34-54.5,30.83-109.12,61.47-163.69,92.18-4.28,2.41-8.45,5.03-12.67,7.56-.59-.64-1.18-1.28-1.76-1.92Z"/>
  <path class="st0" d="M891.39,1707.65c-3.54-5.4-6.42-9.77-9.83-14.97,10.71-5.68,20.54-11.19,30.68-16.07,2.76-1.33,6.5-1.19,9.71-.9,33.47,3,66.93,6.14,100.39,9.29,22.86,2.16,45.7,4.49,68.56,6.52,3.22.29,6.61-.34,9.81-1.07,32.08-7.35,64.13-14.8,96.29-22.25,6.06,6.64,11.99,13.15,19.04,20.88-9.47,2.07-17.66,3.86-25.86,5.65-29.24,6.38-58.4,13.22-87.77,18.92-12.98,2.52-26.4,2.96-39.65,3.94-25.55,1.88-51.11,3.56-76.68,5.04-3.07.18-6.44-1.03-9.35-2.32-17.03-7.54-34.05-15.14-50.89-23.09-4.68-2.21-8.48-2.34-13.04.16-6.67,3.65-13.71,6.61-21.41,10.26Z"/>
  <path class="st0" d="M460.49,886.48c.98,2.34,2.12,4.63,2.92,7.04,15.32,45.79,30.5,91.63,46,137.36,1.77,5.22,4.6,10.38,8.07,14.66,22.47,27.69,45.17,55.2,68.04,82.57,3.56,4.26,7.99,8.05,12.64,11.11,60.41,39.75,120.93,79.32,181.41,118.95,2.09,1.37,4.07,2.91,6.1,4.38-.16.67-.33,1.34-.49,2.01-4.06-.33-8.14-.49-12.18-1-18.17-2.32-36.31-4.94-54.51-7.01-4.54-.52-8.05-1.83-11.47-4.89-31.8-28.44-63.47-57.03-95.73-84.93-17.13-14.81-35.45-28.24-53.04-42.53-3.79-3.08-7.18-6.85-10.09-10.79-16.97-23.06-33.79-46.24-50.5-69.49-1.66-2.32-2.53-5.35-3.24-8.19-11.89-47.48-23.72-94.98-35.5-142.49-.52-2.1-.48-4.34-.71-6.51.75-.08,1.51-.17,2.26-.25Z"/>
  <path class="st0" d="M1072.52,748.93c-1.64,10.46-3.22,20.93-4.92,31.38-2.67,16.42-5.32,32.85-8.22,49.23-.63,3.53-1.97,7.03-3.51,10.3-8.95,18.96-17.98,37.88-27.24,56.69-1.18,2.4-3.47,4.86-5.86,5.97-23.23,10.82-46.52,21.5-69.97,31.83-3.76,1.65-8.41,1.96-12.6,1.81-13.97-.5-27.92-1.49-41.88-2.3-1.31-.08-2.75.06-3.91-.42-3.46-1.45-11.92-19.38-11.01-23.28.9-3.85,2.04-7.65,3.27-12.17,4.69-.57,9.23-1.28,13.79-1.64,17.26-1.36,34.53-2.48,51.78-3.98,3.52-.31,7.24-1.3,10.32-2.98,17.27-9.35,34.32-19.1,51.57-28.48,4.06-2.21,6.5-5.1,8.15-9.43,8.42-22.07,17.06-44.06,25.75-66.03,5.38-13.59,14.34-25.03,21.52-37.54l2.97,1.06Z"/>
  <path class="st0" d="M801.79,2164.39c2.4-.75,4.75-1.76,7.2-2.2,56.35-10.15,112.71-20.24,169.06-30.34,19-3.41,38.06-6.57,56.98-10.39,4.69-.95,9.36-3.41,13.35-6.18,64.01-44.48,127.91-89.12,191.83-133.72,2.46-1.72,4.76-3.87,7.48-4.92,1.59-.61,3.87.55,7.26,1.18-2.96,3.6-4.7,5.95-6.68,8.1-24.39,26.45-48.77,52.92-73.33,79.22-2.34,2.51-5.81,4.01-8.84,5.83-2.57,1.54-5.28,2.83-7.89,4.3-34.82,19.61-69.61,39.27-104.5,58.77-3.1,1.73-6.71,3.03-10.22,3.48-60.44,7.7-120.9,15.22-181.36,22.82-17.51,2.2-35,4.55-52.51,6.73-2.41.3-4.89.04-7.34.04-.17-.9-.34-1.81-.51-2.71Z"/>
  <path class="st0" d="M811.33,494.32c23.06,3.64,44.59,7.05,66.54,10.52-11.52,65.6-23.09,131.52-34.86,198.55-5.17-.24-9.93-.45-15.63-.71-5.35-69.42-10.65-138.29-16.05-208.35Z"/>
  <path class="st0" d="M71.22,1705.8c-1.1-3.01-2.35-5.95-3.27-8.99-15.68-51.61-31.29-103.24-47.01-154.83-1.66-5.45-2.14-10.64-1.42-16.48,2.66-21.48,4.63-43.05,6.52-64.62.57-6.5,2.25-12.09,6.2-17.49,21.25-29.04,42.17-58.32,63.24-87.5,1.89-2.62,4.03-5.06,7.01-8.78,4.02,5.77,7.31,10.5,10.92,15.67-2.76,3.66-5.07,6.85-7.51,9.94-18.98,24.08-37.85,48.24-57.08,72.12-4.08,5.07-5.63,9.97-4.76,16.41,4.45,33.01,8.58,66.05,12.83,99.09,5.02,38.98,10.06,77.95,15.08,116.92.93,7.27,1.79,14.55,2.66,21.82.31,2.59.96,5.35-3.39,6.72Z"/>
  <path class="st0" d="M1244.11,1242.68c-6.11-11.68-12.21-23.36-18.33-35.04-6.19-11.8-12.44-23.56-18.58-35.38-6.04-11.63-12.52-23.06-18.47-35.89,6.49-.46,7.64,3.61,9.58,6.24,16.04,21.7,31.95,43.5,47.94,65.23,1.88,2.55,4,4.93,6.88,8.45,3.73-18.88,2.82-36.81,6.62-54.03.74-.05,1.49-.1,2.24-.14.74,2.71,1.83,5.39,2.17,8.15,3.98,32.05,7.84,64.12,11.77,96.17.4,3.29.79,6.64,1.71,9.81,6.73,23,13.31,46.05,20.59,68.88,1.97,6.18,6.15,11.66,9.25,17.34-12.89,8.52-25.52,16.87-39.19,25.91-.58-4.37-1.36-7.58-1.38-10.79-.2-24.98-.44-49.97-.19-74.94.05-4.68-2.2-7.4-4.75-10.43-17.19-20.37-34.39-40.74-51.56-61.12-2.11-2.5-4.07-5.13-6.17-7.8,8.32-4.14,8.74-3.99,14.26.8,7.78,6.74,15.71,13.31,23.57,19.95.68-.46,1.36-.91,2.04-1.37Z"/>
  <path class="st0" d="M796.48,1056.38h21.37c1.51,55.32,3.01,110.36,4.55,166.58-20.66,1.73-40.4-.46-61.65-.22,11.98-55.76,23.8-110.82,35.73-166.36Z"/>
  <path class="st0" d="M1319.29,1886.68c0-2.36-.44-4.82.07-7.06,3.79-16.55,7.67-33.07,11.75-49.55,1.17-4.7,1.04-8.93-.62-13.59-10.54-29.46-20.9-58.99-31.04-88.59-1.86-5.42-5.02-8.9-9.76-11.9-18.02-11.39-35.82-23.12-53.68-34.76-2.71-1.77-5.27-3.76-8.92-6.39,2.44-1.1,3.71-2.04,5.09-2.24,14.83-2.15,29.7-4.02,44.5-6.32,5.18-.81,8.53.35,11.78,4.83,16.07,22.09,32.6,43.84,48.77,65.85,1.84,2.51,2.95,5.85,3.52,8.96,5.15,28.16,10.16,56.34,15,84.56.46,2.68.41,6.18-.95,8.32-9.68,15.15-19.77,30.04-29.7,45.04-.92,1.39-1.59,2.94-2.37,4.42-1.14-.52-2.28-1.04-3.42-1.57Z"/>
  <path class="st0" d="M1914.06,1199.43c11.33,14.11,22.37,27.82,33.33,41.6.76.95.94,2.37,1.9,4.94-50.27,18.01-100.69,34.4-151.65,52.19-4.21-7.03-8.23-13.77-12.76-21.34,2.73-2.32,4.93-4.79,7.63-6.4,39.16-23.31,78.39-46.5,117.62-69.7.82-.49,1.85-.62,3.93-1.29Z"/>
  <path class="st0" d="M1858.48,1182.49c-37.85,27.64-74.89,54.7-112.56,82.2-8.41-4.88-17.13-9.96-26.84-15.6,3.59-3.03,6-5.22,8.57-7.21,18.18-14.02,36.28-28.15,54.66-41.9,7.31-5.47,13.35-11.78,18.3-19.44,7.19-11.15,14.91-21.97,22.84-33.57-12.11-12.72-23.87-25.09-36.39-38.24,8.55,1.49,53.48,23.47,73.49,35.67-.68,12.54-1.39,25.71-2.06,38.08Z"/>
  <path class="st0" d="M897.12,530.05c16.59,12.74,31.28,24.01,46.6,35.77-24.23,47.69-48.27,95.01-72.89,143.47-5.45-3.21-9.9-5.84-15.04-8.87,13.62-56.13,27.16-111.97,41.33-170.37Z"/>
  <path class="st0" d="M1534.48,1643.4c-11.69,14.39-19.83,29.19-29.25,43.12-3.54,5.24-6.88,10.6-10.36,15.88-3.04,4.63-5.63,9.2-11.77,11.23-4.49,1.48-8.09,5.67-12.08,8.68-7.17,5.41-14.28,10.9-21.51,16.23-2,1.48-4.3,2.55-8.13,4.77.21-20.19,5.39-38.14,6.28-57.04-23.95-9.13-47.68-18.17-71.41-27.21.12-.86.24-1.71.36-2.57,52.27-4.34,104.54-8.67,157.86-13.09Z"/>
  <path class="st0" d="M812.87,699.37c-6.04,1.02-9.96,1.75-13.91,2.3-1.6.22-3.26.04-5.9.04-16.9-51.19-33.75-102.24-50.89-154.18,16.23-7.43,31.5-14.42,48.12-22.04,7.59,58.47,15.03,115.73,22.58,173.88Z"/>
  <path class="st0" d="M695.39,947.86c.83,5.87,1.42,10.08,2.15,15.23-52.02,7.62-103.49,15.16-156.4,22.91-3.43-19.5-6.72-38.23-10.31-58.67,55.73,6.54,109.9,13.54,164.56,20.52Z"/>
  <path class="st0" d="M810.8,300.15c12.67,4.81,25.33,9.61,37.78,14.33,6.98,56.18,13.91,111.91,20.81,167.44-7.49,3.19-12.56,3.09-35.14-.47-2.06-19.29-4.14-38.75-6.2-58.21-3.37-31.78-6.59-63.58-10.21-95.33-.55-4.85-2.79-9.53-4.4-14.23-1.37-4-2.95-7.93-4.44-11.9.6-.54,1.2-1.09,1.8-1.63Z"/>
  <path class="st0" d="M1028.35,619.1c-11.55,18.68-22.91,37.06-34.28,55.46,5.26,8.29,10.23,16.13,15.29,24.12-23.08,21.8-45.76,43.21-69.39,65.52-6.79-8.74-12.82-16.49-19.24-24.76,20.31-18.03,39.94-35.45,60.16-53.4-2.78-6.26-5.2-12.39-8.19-18.23-2.15-4.2-2.05-7.95-.45-12.3,8.29-22.49,16.3-45.09,24.53-67.61,1.19-3.24,1.63-7.49,8.11-7.54,7.48,12.35,15.34,25.32,23.46,38.73Z"/>
  <path class="st0" d="M462.29,2005.76c4.55-5.2,8.37-2.53,11.93-1.24,20.95,7.6,41.67,15.87,62.81,22.86,13.7,4.53,26.26,10.95,38.69,18.02,66.25,37.65,132.58,75.15,198.87,112.72,3.09,1.75,6.09,3.68,11,6.65-3.64,1.69-5.48,3.31-7.1,3.12-2.54-.3-4.96-1.79-7.39-2.85-25-10.92-50.06-21.68-74.94-32.87-12.69-5.71-25.29-11.72-37.5-18.38-62.22-33.94-124.29-68.13-186.41-102.25-3.16-1.73-6.24-3.6-9.96-5.77Z"/>
  <path class="st0" d="M797.06,1262.88c.66-.9,1.26-2.09,2.18-2.93,1.47-1.34,3.07-2.57,4.74-3.66,30.2-19.64,54.49-45.22,76.97-73.21,40.64-50.61,82.51-100.24,123.9-150.26,2.02-2.44,4.27-4.7,7.95-6.16-.41,1.6-.44,3.44-1.28,4.76-23.44,36.77-46.94,73.5-70.5,110.19-1.79,2.79-4.06,5.27-6.15,7.86-23.62,29.28-47.3,58.52-70.82,87.88-3.44,4.29-7.26,7.36-12.54,9.27-15.32,5.55-30.45,11.65-45.69,17.4-2.84,1.07-6.12,3.83-8.75-1.15Z"/>
  <path class="st0" d="M1939.88,1446.84c-1.66,1.43-3.23,2.98-4.99,4.27-68.11,49.57-136.26,99.08-204.31,148.74-5.5,4.02-11.19,6.57-17.92,7.82-48.41,8.99-96.77,18.27-145.16,27.41-2.99.56-6.06.69-9.09,1.02-.21-.9-.43-1.79-.64-2.69,3.19-1.15,6.32-2.48,9.56-3.43,45.67-13.29,91.39-26.44,137.02-39.89,5.64-1.66,11.23-4.21,16.2-7.37,70.83-44.97,141.54-90.11,212.3-135.18,1.78-1.14,3.8-1.91,5.71-2.85.44.71.87,1.42,1.31,2.13Z"/>
  <path class="st0" d="M767.91,1052.93c5.01,3.17,9.69,6.12,14.94,9.43-14.43,43.65-28.67,86.74-42.94,129.91-7.89-3.18-31.04-21.65-42.56-33.59,16.46-39.18,42.79-72.04,70.56-105.75Z"/>
  <path class="st0" d="M1505.05,1068.01c-2.2-.67-4.58-1.02-6.59-2.06-38.94-20.32-77.81-40.77-116.78-61.02-3.13-1.63-6.9-2.44-10.46-2.79-33.78-3.41-67.57-6.66-101.36-9.91-3.98-.38-8.12-.26-9.29-6.21,2.36-.79,4.74-1.76,7.21-2.4,27.71-7.13,55.47-14.03,83.1-21.43,6.43-1.72,11.17-.66,16.5,3.28,38.02,28.1,76.24,55.93,114.48,83.74,6.72,4.89,13.81,9.25,20.69,13.92,1.24.84,2.27,1.99,3.4,3-.3.63-.59,1.26-.89,1.89Z"/>
  <path class="st0" d="M1324.48,2335.27c-3.36-8.85,3.71-297.88,6.62-307.1,1.39,3.81,2.51,5.84,2.86,8,5.36,32.86,9.47,65.98,16.37,98.51,3.92,18.48-.51,35.53-2.96,52.99-6.67,47.48-14.19,94.83-21.42,142.23-.28,1.83-.96,3.59-1.46,5.39Z"/>
  <path class="st0" d="M749.53,722.63c-16.16-40.14-31.91-79.26-48-119.23,10.12-4.56,19.45-8.76,29.22-13.16,1.34,2.36,2.62,4.24,3.54,6.28,15.18,33.71,30.33,67.44,45.44,101.18,4.27,9.54,4.07,10.06-5.21,14.17-7.88,3.49-15.84,6.82-24.99,10.75Z"/>
  <path class="st0" d="M926.51,1570.04c13.58-5.9,25.95-11.27,39-16.94,1.36,3.66,2.61,6.67,3.59,9.77,4.82,15.22,9.37,30.54,14.46,45.67,1.66,4.94,4.14,9.8,7.16,14.05,9.66,13.56,19.79,26.78,29.63,40.21,2.04,2.79,3.63,5.91,6.6,10.81-9.09,0-15.94.14-22.79-.02-26.54-.65-19.06,4.11-32.25-19.57-13.6-24.43-26.79-49.08-40.13-73.65-1.57-2.89-3.01-5.86-5.28-10.31Z"/>
  <path class="st0" d="M619.12,324.57c-1.43,2.04-2.75,4.17-4.29,6.12-29.48,37.35-59.08,74.61-88.4,112.09-5.08,6.49-9.55,13.61-13.34,20.94-13.9,26.89-27.37,53.99-41.05,80.99-1.41,2.78-3.09,5.43-6.35,7.54,0-1.72-.4-3.55.06-5.13,9.26-31.93,18.58-63.84,28.03-95.72.72-2.43,2.16-4.81,3.78-6.8,20.61-25.28,41.73-50.14,61.78-75.86,8.14-10.44,17.39-18.91,28.4-25.92,8.41-5.36,16.45-11.31,24.73-16.88,1.71-1.15,3.78-1.76,5.69-2.63.32.42.65.83.97,1.25Z"/>
  <path class="st0" d="M1298.09,1655.91c-5.39-28.89-10.54-56.51-15.91-85.33,14.72-4.87,29.38-9.72,45.41-15.03,6.33,30.19,12.54,59.85,18.98,90.59-16.92,3.41-33,6.65-48.49,9.77Z"/>
  <path class="st0" d="M913.72,735.73c-8.66-8.55-16-15.74-23.24-23.01-1.36-1.36-2.33-3.11-4.01-5.4,21.08-33.05,42.13-66.05,63.66-99.81,7.8,5.09,14.93,9.74,23.25,15.17-19.51,37.51-39.12,74.31-59.65,113.04Z"/>
  <path class="st0" d="M293.99,1902.89c-26.5,3.76-51.99,7.37-77.47,10.98,5.8-8.21,14.39-11.81,21.94-16.83,7.74-5.14,15.73-9.9,25.23-15.84-6.41-2.13-11.48-2.4-16.46-2.92-15.57-1.63-31.14-3.24-46.73-4.65-5.52-.5-9.65-2.01-9.86-9.2h56.98c-2.96-3.48-4.59-5.68-6.5-7.6-22.81-22.9-45.68-45.74-68.5-68.63-2.46-2.47-4.7-5.16-7.69-8.46,5.91-2.19,8.02,1.58,10.52,3.57,24.46,19.56,48.88,39.17,73.15,58.97,9.07,7.4,18.2,14.63,29.11,19.09,4.49,1.84,6.71,4.95,7.84,9.47,2.57,10.27,5.37,20.48,8.43,32.04Z"/>
  <path class="st0" d="M542.22,433.81c5.58-5.08,11.13-10.13,17.8-16.19.96,3.69,1.83,5.73,1.98,7.83,1.32,17.91,2.36,35.84,3.87,53.73.38,4.52,1.54,9.18,3.36,13.33,5.61,12.78,11.86,25.28,17.56,38.02,2.39,5.33,5.81,9.5,10.39,13.07,7.61,5.92,14.84,12.33,22.47,18.23,3.69,2.86,5.65,6.13,5.94,10.84.48,7.58,1.43,15.14,2.33,24.14-2.99-1.5-5.11-2.12-6.68-3.41-13.12-10.75-26.23-21.53-39.11-32.55-2.68-2.29-4.87-5.43-6.54-8.57-9.48-17.92-18.82-35.92-27.98-54.01-1.27-2.52-1.65-5.65-1.82-8.54-.84-14.28-1.42-28.57-2.2-42.85-.22-3.95-.82-7.88-1.37-13.07Z"/>
  <path class="st0" d="M674.34,1106.04c-9.04-9.05-17.21-17.22-26.12-26.13,25.38-20.79,50.82-41.62,77.16-63.19,5.09,4.63,9.94,8.97,14.72,13.4,4.84,4.48,9.59,9.05,15.44,14.58-27.54,20.81-54.24,40.98-81.2,61.35Z"/>
  <path class="st0" d="M932.65,970.68c-.39-1.74-.59-2.09-.51-2.37,3.66-13.9,3.67-13.95,17.97-13.84,26.94.2,53.89.44,80.83.71,3.28.03,6.55.32,11.59.59-8.02,19.63-16.26,37.85-25.06,57.45-29.03-14.56-57.34-28.76-84.82-42.54Z"/>
  <path class="st0" d="M850.46,1047.56c1.5,3.45,2.74,5.75,3.51,8.18,9.25,29.11,18.33,58.27,27.71,87.33,1.73,5.37,1.38,9.11-3.32,12.96-11.53,9.45-22.61,19.44-34.65,29.89-.72-2.38-1.59-4.03-1.68-5.73-2.07-36.82-3.77-73.66-6.26-110.45-.56-8.33,1.32-14.08,8.55-18.08,1.71-.95,3.26-2.17,6.14-4.11Z"/>
  <path class="st0" d="M888.57,888.2c3.4-5.16,6.8-10.32,10.81-16.4,5.78.37,12.06.38,18.22,1.26,12.77,1.81,24.56-.13,36.99-4.26,16.68-5.54,29.72-13.87,37.62-29.75,1.46-2.94,3.61-5.54,6.13-9.34-8.29-3.1-16.1-6.03-24.13-9.04,5.35-6.42,54.02-36.05,63.33-38.58-.62,2.51-.91,4.67-1.68,6.65-7.31,18.92-14.55,37.86-22.18,56.64-1.42,3.5-4.14,6.64-6.81,9.43-15.75,16.5-37.39,22.28-57.33,31.14-.3.13-.64.24-.96.26-19.49,1.56-38.98,3.1-58.47,4.65-.52-.89-1.03-1.78-1.55-2.66Z"/>
  <path class="st0" d="M776.84,800.42c4.64-1.04,7.51-1.64,10.36-2.33,4.11-1,6.81.52,9.22,4,5.7,8.2,11.75,16.16,17.72,24.18,1.95,2.61,4.06,5.1,6.59,8.26,9.62-10.29,18.62-20.07,27.79-29.67,8-8.38,5.88-9.51,18.28-3.46,2.05,1,4.01,2.21,6.53,3.61-1.15,2.34-1.9,4.48-3.13,6.3-12.13,17.93-24.49,35.71-36.45,53.75-3.63,5.48-7.92,7.48-14.3,6.24-4.86-.94-9.86-1.2-15.25-1.82-8.97-22.65-17.89-45.16-27.36-69.05Z"/>
  <path class="st0" d="M679.55,547.66c7.86,30.34,15.52,59.91,23.31,90.01-6.93,3.48-13.34,6.69-19.57,9.82-6.3-5.31-42.67-59.47-46.26-68.66,4.94-6.21,32.83-26.96,42.52-31.17Z"/>
  <path class="st0" d="M644.37,672.68c8.63-7.82,16.71-15.15,25.63-23.23,21.53,24.68,43.06,49.35,65.25,74.78-7.6,8.02-16.42,13.24-25.25,20.7-21.83-23.79-43.17-47.66-65.62-72.25Z"/>
  <path class="st0" d="M588.66,733.77c2.56,2.48,5.21,4.89,7.68,7.46,10.59,11.04,21.23,22.03,31.61,33.27,3.78,4.1,7.99,6.55,13.52,7.59,9.06,1.69,18.01,4.04,27.81,6.3-3.19,6.52-9.11,6.43-13.51,8.59-4.76,2.34-9.82,4.06-14.74,6.08-4.86,1.99-9.71,4.02-14.97,6.2,2.99,10.06,5.77,19.4,8.74,29.4-11.93-3.1-20.51-8.34-25.32-18.58-.56-1.19-1.49-2.2-2.23-3.3-5.55-8.26-12.88-15.89-16.14-24.98-3.14-8.76-2.08-19.02-2.85-28.62-.76-9.45-1.49-18.9-2.24-28.35.88-.36,1.76-.71,2.64-1.07Z"/>
  <path class="st0" d="M584.16,1427.08c3.91,30.34,7.97,61.77,12.18,94.43-6.67-4.65-56.17-72.61-63.2-85.97-.83-1.57-.76-3.62-.28-6,14.23,10.81,24.57,25.42,38.36,36.72-4.96-18.03-6.11-37-19.06-52.42-10.44-12.44-19.06-26.41-28.44-39.74-1.85-2.62-3.47-5.4-5.19-8.1,4.81-3.78,7.24-.83,9.74,1.93,7.37,8.14,14.74,16.27,22.11,24.4,8.04,8.87,16.01,17.81,24.18,26.57,2.39,2.56,5.35,4.59,9.59,8.17Z"/>
  <path class="st0" d="M891.55,1017.11c12.77,23.89,24.94,46.67,37.52,70.2-9.21,9.02-18.09,17.72-28.31,27.73-13.41-26.05-25.98-50.46-39.16-76.07,9.38-7.45,19.14-14.08,29.95-21.86Z"/>
  <path class="st0" d="M953.18,1663.76c-26.73,3.62-52.62,7.12-78.64,10.65.93-7.07,32.59-67.65,40.14-77.14,5.19,4.2,33.55,52.85,38.5,66.49Z"/>
  <path class="st0" d="M1048.02,400.74c1.39,2.46,2.95,4.83,4.14,7.38,14.04,30.19,28.11,60.36,41.92,90.65,1.73,3.79,2.67,8.18,2.92,12.35,2.94,48.21,5.7,96.42,8.44,144.64.18,3.08-.14,6.18-.23,9.27-.88.11-1.75.22-2.63.33-.76-2.93-1.82-5.82-2.24-8.79-6.08-43.86-12.03-87.73-18.14-131.58-.64-4.58-1.78-9.14-3.15-13.57-10.2-33.08-20.53-66.12-30.77-99.18-1.05-3.39-1.81-6.87-2.7-10.32.81-.39,1.61-.78,2.42-1.17Z"/>
  <path class="st0" d="M1953.98,1430.59c.25-4.19.12-6.51.56-8.71,2.77-14.01,5.44-28.05,8.62-41.98,1.89-8.25,1.99-16.26.46-24.58-5.22-28.43-10.13-56.91-15.08-85.39-.59-3.37-.67-6.83-.99-10.25.74-.25,1.47-.5,2.21-.75,1.45,1.92,3.15,3.7,4.31,5.78,8.27,14.78,16.49,29.59,24.55,44.49,1.04,1.92,1.4,4.39,1.49,6.63,1.02,25.25,1.99,50.5,2.78,75.76.08,2.44-.47,5.43-1.88,7.3-7.19,9.57-14.73,18.87-22.21,28.21-.75.94-2,1.48-4.82,3.49Z"/>
  <path class="st0" d="M640.78,1040.2c-5.75-9.31-11.1-17.99-16.58-26.87,25.05-12.12,49.26-23.85,74.39-36.01,6.7,8.84,13.22,17.43,20.58,27.15-26.56,12.1-52.11,23.75-78.39,35.73Z"/>
  <path class="st0" d="M456.38,867.89c-6.41-11.8-16.42-21.8-14.74-37.4,1.13-10.53.53-21.25.8-31.88.06-2.54.51-5.08,1.02-9.86,6.37,6.06,11.4,10.85,17.48,16.64.53-5.68.93-10.03,1.35-14.59,6.31,2.93,18.81,16.5,27.69,29.76-5.42,15.29-10.89,30.75-16.37,46.2-.57.07-1.14.13-1.71.2-2.17-9-4.34-17.99-6.5-26.99-.61-.07-1.22-.15-1.83-.22-1.55,9.12-3.1,18.23-4.65,27.35l-2.55.8Z"/>
  <path class="st0" d="M889.76,1383.81c40.21,38.05,80.42,76.11,121.22,114.72-6.34,7.67-12.28,14.87-19.44,23.54-.97-3.64-1.79-5.13-1.67-6.54.78-9.02-3.2-15.49-9.35-21.89-26.02-27.09-51.56-54.63-77.27-82.01-4.7-5-13.76-20.9-13.48-27.83Z"/>
  <path class="st0" d="M900.63,1003.21c6.38-8.57,12.45-16.74,19.32-25.98,16.47,14.97,32.08,29.17,48.14,43.78-6.19,9.88-12.11,19.33-18.72,29.88-16.57-16.2-32.18-31.47-48.75-47.67Z"/>
  <path class="st0" d="M1265.74,1397.83c6.65,16.77,13.45,33.92,20.54,51.77-3.32,0-5.63.32-7.83-.05-11.14-1.87-22.28-3.74-33.33-6.04-2.62-.55-5.75-2.22-7.16-4.36-5.8-8.85-11.03-18.08-16.42-27.09,6.49-5.12,33.49-13.88,44.2-14.23Z"/>
  <path class="st0" d="M467.8,562.58c3.77,33.81,7.55,67.63,11.27,100.96-10.8,8.22-20.94,15.94-33.19,25.26,6.39-43.58,12.46-84.91,18.52-126.23,1.13,0,2.27,0,3.4.01Z"/>
  <path class="st0" d="M1298.35,1933.43c-11.81,9.1-22.3,17.2-32.85,25.22-.26.2-1.15-.43-3.1-1.22,3.39-7.89,9.42-13.97,14.1-20.82,4.69-6.87,9.76-13.47,14.66-20.19,5.06-6.92,10.13-13.84,16.38-22.38,5.18,10.43,9.88,19.11,13.71,28.16.84,1.99-.79,5.8-2.41,7.9-3.1,4.03-3.06,7.55-.84,11.89,2.72,5.3,4.84,10.9,7.57,17.16-4.65,2.32-8.96,4.48-13.77,6.88-4.54-11-8.78-21.3-13.45-32.61Z"/>
  <path class="st0" d="M647.05,847.56c7.06,1.23,14.11,2.45,21.17,3.69,8.17,1.44,16.29,3.27,24.51,4.18,4.08.45,8.48-.27,12.49-1.35,10.16-2.75,18.08-7.9,18.5-19.93.04-1.14,1.11-2.24,2-3.91,7.47,2.98,12.43,6.95,13.07,15.56.61,8.15,2.42,16.21,3.91,25.63-12.07.36-22.86,3.85-33.53.53-19.95-6.2-39.64-13.2-59.43-19.92-1.13-.38-2.09-1.23-3.13-1.86.14-.87.29-1.74.43-2.62Z"/>
  <path class="st0" d="M454.99,745.31c-1.85,8.77-3.71,17.53-5.56,26.3-.61,0-1.22-.02-1.82-.03-.5-1.66-1.38-3.31-1.46-4.99-.71-15.31-.98-30.64-2.01-45.93-.46-6.89,1.05-12.32,6.49-16.69,1.77-1.42,3.02-3.47,5.45-6.35,4.26,6.72,8.3,13.09,12.33,19.45,3.9,6.17,7.79,12.35,11.69,18.53-2.6,6.22-4.98,12.05-7.46,17.84-2.28,5.31-4.66,10.57-7,15.85-.89-.06-1.78-.11-2.67-.17-2.12-7.96-4.24-15.93-6.36-23.89l-1.6.07Z"/>
  <path class="st0" d="M1040.15,600.57c7.24-14.51,14.14-27.76,20.45-41.29,2.03-4.36,3.04-9.38,3.59-14.2,1.01-8.72,1.33-17.53,1.94-26.3.66-.14,1.33-.28,1.99-.43,1.05,1.73,2.54,3.34,3.09,5.22,3.36,11.47,6.58,22.98,9.66,34.53.47,1.78.69,4.11-.07,5.65-7.65,15.47-15.51,30.82-23.36,46.19-.43.85-1.24,1.51-2.28,2.74-5.05-4.07-9.87-7.96-15.02-12.11Z"/>
  <path class="st0" d="M960.4,837.28c-2.28-5.08-4.59-10.25-6.91-15.42.63-.61,1.27-1.22,1.9-1.83,10.38,3.59,20.19,8.55,31.09,13.79-10.73,12.06-19.5,23.72-36.17,28.26-16.88,4.6-32.61,2.81-50.88,0,5.56-6.87,10.16-12.56,15.56-19.24,9.37,11.55,20.49,11.65,32.62,7.37,5.83-2.06,6.82-2.51,12.79-12.93Z"/>
  <path class="st0" d="M711.11,1611.91c1.19-1.57,1.6-2.62,2.36-3.02,5.54-2.97,11.16-5.81,17.45-9.06,23.96,19.45,47.93,38.91,71.9,58.38-.46.7-.92,1.4-1.38,2.1-30.01-16.08-60.02-32.16-90.34-48.4Z"/>
  <path class="st0" d="M1035.43,938.09c4.89-15.98,9.67-31.52,14.42-47.08,3.5-11.46,7.29-22.84,10.35-34.41,1.84-6.96,5.07-11.41,13.56-11.31-.23,2.15-.17,4.36-.74,6.39-7.63,27.24-15.34,54.45-23.03,81.67-.09.32-.13.66-.22.97-2.82,9.33-3.94,9.71-14.34,3.76Z"/>
  <path class="st0" d="M776.33,902.95c-17.58-6.97-35.15-13.94-52.73-20.91,9.46-5.11,19.32-2.38,28.53-5.23,1.32-12.7-4.37-24.89-1.25-37.69,6.63,9.38,9.68,20.35,14.09,30.64,4.44,10.37,8.46,20.91,12.67,31.38-.43.6-.87,1.21-1.3,1.81Z"/>
  <path class="st0" d="M669.07,830.9c4.95,1.91,9.08,3.15,12.87,5.06,4.46,2.25,8.18,1.78,11.86-1.44,3.45-3.03,7.06-5.88,10.67-8.87-1.7-6.2-3.23-11.75-5.11-18.58,8.88,2.44,12.9,8.43,18.03,12.84.8.68,1.29,2.64.91,3.62-2.57,6.57-3.34,13.72-11.12,17.74-17.31,8.94-17.09,9.38-35.62,2.6-1.83-.67-3.6-1.51-5.91-2.49.32-1.82.44-3.39.9-4.86.48-1.54,1.3-2.97,2.51-5.63Z"/>
  <path class="st0" d="M801.01,1289.69c3.15,1.2,6.55,1.95,9.39,3.66,14.2,8.55,28.27,17.32,42.35,26.07,8.71,5.41,8.87,6.45,2.84,14.37-.8,1.05-1.47,2.21-2.9,4.38-18.44-15.57-35.95-30.35-53.46-45.14.59-1.11,1.18-2.23,1.77-3.34Z"/>
  <path class="st0" d="M800.82,794.29c14.71.55,29.42,1.11,44.7,1.68-4.6,7.16-18.1,19.06-27.48,24.4-6.15-7.79-13.38-14.9-18.65-23.53.48-.85.95-1.7,1.43-2.55Z"/>
  <path class="st0" d="M659.18,841.16c-9.63-6.03-15.21-14.09-22.76-20.96,6.54-7.23,14.18-11.35,22.76-17.76v38.72Z"/>
  <path class="st0" d="M680.67,807.91c5.65.52,9.19.85,13.22,1.23.84,5.85,1.58,11.04,2.26,15.79-9.44,7.7-14.92,8.28-21.9-3.94,3.89-2.93,9.64-5,6.41-13.07Z"/>
  <path class="st0" d="M924.36,836.37c1.22-1.1,2.06-2.14,3.14-2.8,3.08-1.86,6.26-3.56,9.65-5.47,3.6,1.79,7.78,3.31,6.7,8.24-.93,4.26-3.47,7.17-8.75,7.83-6.09.76-9.43-.93-10.74-7.81Z"/>
  <path class="st0" d="M680.8,797.32c-2.82,8.75-3.64,16.83-13.55,18.21-5.75-9.3-5.21-11.33,4.19-15.21,2.56-1.06,5.29-1.71,9.36-3Z"/>
  <path class="st0" d="M953.33,837c.1,2.06,1.07,5.13.11,5.94-1.54,1.3-4.34,1.11-6.61,1.54-.34-.63-.68-1.27-1.02-1.9,1.6-2.17,3.2-4.34,4.8-6.51.91.31,1.81.62,2.72.92Z"/>
</svg>