<?xml version="1.0" encoding="UTF-8"?>
<svg id="Layer_0_xA0_Imagen" xmlns="http://www.w3.org/2000/svg" version="1.1" viewBox="0 0 2732 2048">
  <!-- Generator: Adobe Illustrator 30.2.1, SVG Export Plug-In . SVG Version: 2.1.1 Build 1)  -->
  <defs>
    <style>
      .st0 {
        fill: #fff4f1;
      }
    </style>
  </defs>
  <path class="st0" d="M1096,2047.88c-.35,0-3.12-2.1-6.76-2.15-39.73-.55-79.55.7-119.25.16l-1.95-152.96,21.23-22.9c2.32-.41,10.73,8.16,10.73,8.85v148.99l150.92-1.92c11.5,7.11,28.47,6.44,33.08,21.92-29.29-.28-58.71.37-88,0Z"/>
  <path class="st0" d="M1226,1363.92l11.92-31.08,52.68-3.32,21.4-20.6-61.99-3.01,20.02-47.97,43.39,37.77c7.87,2.12,25.25-27.63,33.18-25.55,15.96,4.18-13.92,25.82-16.71,30.67-5.98,10.41,0,55.57.2,70.01,1.24,89.62-1.03,179.38-.2,268.98l-217.88,2.09,11.26-29.71,171.85-4.15-3.15-266.11c-6.24,5.79-18.97,14.53-20.08,22.89-5.78,43.34,4.6,99.44.02,144.18l1.21,75.04-139.12,3.86,14.99-33.99h91l-2.02-155.99-19.98,19v112.99c-18.51-2.16-38.88,4.58-57.04,2-2.61-.37-3.6,1.07-2.98-3,.35-2.28,10.01-27.83,11.01-29.02,2.91-3.48,8.91-1.69,13.02-1.98-3.53-40.18,20.35-73.19,32.25-109.74,6.64-.8,20.08.03,25.67-3.33,3.09-1.86,13.61-17.48,18.07-20.93h-32Z"/>
  <path class="st0" d="M1650,1141.93l-48-21.03,37.78-42.37c1.67-6.33-23.42-25.25-27.73-31.6l7.22-6.85c5.17-.91,19.34,22.59,29.62,23.96,20.77,2.77,43.4-1.92,64.01-2.2,90.33-1.25,180.79,1.14,271.11.08l1.98,217.99-29.72-11.27-4.26-172.73-266.01,4.03c5.79,6.23,14.53,18.97,22.89,20.08,42.74,5.7,98.06-4.54,142.19-.02l76.93-2.09,1.98,139.99-32.12-13.21-2.16-92.49-153.71,1.74,17,19.98h115v60c-12.22-5.69-37.28-6.15-34-24-38.92,3.11-71.45-19.55-106.59-31.88-6.26-4.99-1.37-17.27-4.45-24.08-.52-1.16-16.82-17.53-17.99-18.02-4.53-.84-2.75,1.97-2.97,4.95-.59,8,2.68,19.34-3.15,24.91-1.41.34-24.78-9.31-26.83-10.9-9.15-7.12-.83-39.6-4.43-51.57-1.15-3.83-17.66-22.62-23.6-23.4v62Z"/>
  <path class="st0" d="M1128,1185.93c-9.69-14.63-30.51-27.32-40.04-40.96-1.24-1.78-3.58-2.58-1.04-5.1l47.06-17.92,2.88,56.11,39.79,1.79,3.34,12.07-39.12,3.89-235.88,236.18-154.96-151.06c.01-1.65,25.59-15.92,29.91-12.03l124.77,116.87,185.27-191.83c-10.82,1.1-23.97-3.26-32.99,3.99l-152.27,155.85-98.72-96.82,31.94-12.1,65.06,63.03,109-111.96h-29l-78.27,79.85-40.86-36.72-1.87-7.11c8.88.39,23.73-12.13,31.07-11.99,4.52.09,6.43,7.49,11.54,5.76,24.05-29.03,62.81-35.19,95.36-51.04l3.98.18c2.23,1.75,14.06,13.07,15.06,13.07h29c.7-6.74-23.1-21.73-19.99-25.98l31.04-11.35c5.8,3.89,34.41,35.32,37.95,35.32h31Z"/>
  <path class="st0" d="M1212,832.95l-12,3.01-3.88-37.13-235.98-236.14,150.86-156.68c1.74.01,15.52,27.5,12.03,31.9l-116.88,122.77,191.84,185.25-1.88-29.1-157.96-154.16,97.83-100.71,11.1,31.9-62.93,66.82,111.84,107.26-1.88-29.1-78.07-77.89,41.98-42.03c4.69,13.13,22.27,30.43,6.02,40.03l23.68,26.28,29.83,72.05c.62,6.97-13.54,15.97-13.54,17.66v31c5.94-2.23,20.15-23.8,25.89-19.9l11.54,28.93-35.43,37.97v31l45.98-41.99,18.02,49.98-57.99,2.01v39Z"/>
  <path class="st0" d="M1536,1246.93l239.86,238.26-153.83,156.71-11.1-29.94,119.04-123.05-191.96-186.99v29l159.96,155.99-93.91,98.04-6.03.95-9.09-31.92,63.03-65.07-111.96-108.99v29l77.85,78.27c.47,2.71-32.09,37.49-36.83,40.75-1.69,1.16-1.97,2.79-5,1.97-1.28-8.51-11.58-21.34-12.06-29.18-.39-6.44,6.53-8.05,5.9-11.54-.3-1.68-19.15-20.61-22.29-25.85-11.87-19.78-18.69-49.77-29.24-70.96-2.86-8.9,11.37-13.45,13.25-19.87,2.37-8.08-.38-20.29-1.61-28.59l-22.95,19.99c-1.76-.42-15.66-29.41-11.17-33.07,3.25-5.79,34.14-33.45,34.14-35.92v-31c-15.97,8.94-29.19,30.53-42.97,40.02-1.69,1.16-1.97,2.78-5.01,1.97l-18.02-47.98,55-2.02,5-3v-38c0-3.97,12-3.97,12,0v32Z"/>
  <path class="st0" d="M1646,853.95h29c33.23-34.04,65.69-69.23,98.95-103.05,18.42-18.73,37.2-38.35,57.05-55.01l98.96,95.07c.02,2.15-28.35,13.86-32.51,12.72-8.73-2.39-58.15-62.98-66.17-61.57l-107.27,109.85h29c5.53,0,64.89-72.99,78-78.07,12.59,11.01,26.09,22.41,38.05,34.02,2.33,2.26,5.55,4.29,4.94,8.02-9.87,1-25.71,14.39-34.56,11.71-3.03-.92-4.98-6.11-8.16-5.55-1.68.29-18.9,18.83-25.49,22.65-20.08,11.65-48.34,17.71-69.3,28.89-9.27,1.85-15.04-11.96-23.51-13.61s-18.36,1.37-26.96,1.97l21.99,23.95c-9.41,1.56-26.7,15.05-35.06,10.18-6.1-3.56-31.3-34.15-35.93-34.15h-31c9.78,15.1,32.67,28.96,42.02,43,1.42,2.13,3.15,1.44-.03,3.99l-47.98,19-2.01-59.99h-42v-12h35l238.27-239.84,154.73,152.81-27.95,12.14-125.06-119-185,191.89Z"/>
  <path class="st0" d="M750,767.96c6.73,4.09,28.43,6.47,30.01,14.99l1.98,169.01,268-2.02c3.26-2.83-19.79-20.67-23.03-21.94l-220.97,1.97-1.98-138c1.77-1.88,31.44,10.2,33.99,14.99v88.99h156l-21.04-21.95-109.09,1.08c-1.5-1.04-3.74-30.89-3.95-36.04-.26-6.33-.69-16.15.08-22.12.35-2.76-1.09-3.51,2.91-2.89l30.82,12.19.53,10.45,3.01,3c38.28-4.24,70.04,19.7,104.74,31.26,3.26,2.71,1.47,17.9,5.13,24.87,3.2,6.07,14.95,14.24,20.85,18.15v-32l31.73,12.27,2.67,52.32,20.61,23.39,3-61.98,47.95,20.99c-5.53,7.31-35.99,34.48-37.67,40.43-3.61,12.75,40.93,26.59,18.71,40.51l-26.04-23.89c-107.24,1.96-214.83-2.74-322.04-.14-4.68.11-11.24,4-13.9.1-.04-2.57-3.01-7.44-3.01-9v-208.99Z"/>
  <path class="st0" d="M1484,741.96l-18.02,47.99-45.27-37.83-29.98,27.69-8.62-6.86c4.95-9.28,22.77-20.66,24-29.89-2.32-106.62,2.7-213.59,0-320.17-.2-7.81-6.48-13.71,4.81-15.01,31.97-3.69,76.48.59,110.18.18,31.96-.39,67.99-6.23,99.95-2.09,2.76.36,3.5-1.09,2.9,2.92l-11.25,27.17-172.69,3.9,3,267.98c5.68-7.49,19.89-15.68,21.11-24.88,3.5-26.26-1.87-55.83-2.19-82.02-.55-45.68.59-91.43.07-137.08l135.05-1.99c2.61.37,3.6-1.07,2.98,3-.59,3.8-11.21,28.02-13.29,28.74l-90.73,2.27v153.99c5.86-1.37,21.04-16.27,21.96-21.04-.66-28.63,1.03-57.42.13-86.03-.25-8.09-5.89-18.47.92-24.92h59c-7.81,12.28-6.67,38.65-26.01,33.99,5.44,38.76-18.56,71.15-31.01,105.98-5.58,8.11-17.56,1.35-24.99,5.01-3.23,1.59-12.44,17.39-17.97,20.03l32,3.02-12.98,29.99-51.61,2.39-23.41,23.59h62Z"/>
  <path class="st0" d="M1677.99,1719.89l-263.98,4.02c.54,3.69,1.98,7.04,2.1,10.88,2.68,85.83-2.18,172.16-.15,258.04l-29.94,31.04-2.03-331.99,262.97-1.95c1.85.35,25.42,21,28.11,23.89,1.82,1.97,3.67,2.83,2.93,6.05Z"/>
  <path class="st0" d="M656,753.96l181.86-190.72-191.86-190.26v-43l237.86,233.26-181.72,185.85c-2.32,1.79-11.03,4.86-13.14,4.86h-33Z"/>
  <path class="st0" d="M700.01,1039.93l2.08,261.08c-1.63,11.96-21.66,26.57-30.07,34.91l-4.01-263.99c-89.8-.98-179.34,1.1-268.97,1.97l-31.06-30.93,332.03-3.03Z"/>
  <path class="st0" d="M2339,975.94l29,29.98-334.01,2.03c-1.29-74.94,1.72-150.13.09-225.08-.24-10.9-4.25-24.32-2.04-35.87,1.54-8.04,23.22-27.94,30.94-33.06l3.02,262h273Z"/>
  <path class="st0" d="M674,1745.9l233.27-237.84,188.73,184.84v38c0,.29,4.27,4.96-2,4.02l-187-182.97-192,193.95h-41Z"/>
  <path class="st0" d="M2088,1717.9l-236.07-232.99,185.07-188.99h38c.82,0,3.5-5.15,2.98.97l-181.95,188.02,191.97,189.99v43Z"/>
  <path class="st0" d="M2062,303.98l-235,236.06-185.16-180.9c-.79-1.12-3.84-13.12-3.84-14.16v-31l190.73,181.84,190.27-191.84h43Z"/>
  <path class="st0" d="M1349.99,24.01l2.02,333.98c-74.96,1.16-150.13-1.55-225.09-.09-12.5.24-31.19,6.32-42.83-1.01-8.55-5.38-18.26-20.06-28.05-25.91l4.95-3.01,259.02-1.98c.98-89.79-1.1-179.33-1.97-268.95.83-4.33,22.24-24.66,27.38-30.48,1.19-1.35-.11-3.84,4.56-2.55Z"/>
  <path class="st0" d="M2016,297.98h-41l-149.73-143.85-136.23,139.89c-5.98,6.8-16.75,1.82-23.07,4.93-3.19,1.57-3.67,7.46-7.29,8.71-4.33,1.48-19.18,1.55-22.67-2.71-1.25-5.98,64.59-66.13,69.95-78l.04-14.97c17.67,2.15,15.69-.36,24.98-10.02,26.12-27.17,52.7-54,79.08-80.91,3.51-3.58,7.92-13.12,12.95-13.12l193,190.05Z"/>
  <path class="st0" d="M423.51,1106.39l4.51,211.53c45.16-4.17,91.48-1.29,137.07-1.91,15.4-.21,53.02-6.36,65.66.17,3.91,2.02,6.93,8.3,10.65,9.35,4.67,1.32,9.75-.72,14.58,1.42,6.42,2.85,19.19,17.46,5.12,19.07-28.68,3.29-65.12-3.52-94.05,1.95-5.68,1.07-7.77,7.15-12.32,9.81l-17.63-9.95-139.22,3.21-3.86-271.1c3.21-3.62,25.39,25.18,29.5,26.44Z"/>
  <path class="st0" d="M759,1749.9l150,145.96c42.78-42.57,84.32-86.28,127.05-128.9,4.97-4.95,7.41-12.91,15.36-14.64,5.32-1.15,12.05.87,16.62-1.38,3.19-1.57,3.67-7.46,7.29-8.71,5.68-1.95,16.22.69,22.67-.31,2.53,2.45-6.96,13.61-8.96,16.02-17.49,21-42.46,40.23-59.99,62l-1.04,15.95-19.09,3.91-96,100.2-194.9-190.1h41Z"/>
  <path class="st0" d="M642,375.98v39l-145.92,151.99,142.03,137.89c5.99,10.42-4.91,20.66,11.92,26.53-.61,4.34,2.1,23.48-3.06,24.57-12.47-10.6-25.14-21.71-37-32.96-6.73-6.39-33.34-35.91-39.01-36.98-4.6-.87-10.19.43-14.97-.03.14-4.1.19-8.13-.85-12.16-3.08-11.97-68.47-68.49-82.19-81.8-3.67-3.56-21.02-19.75-21.02-23.05l190.07-192.99Z"/>
  <path class="st0" d="M1311.99,50.01c.9,3.47-1.44,4-2.98,6-3.35,4.36-24.35,25.23-28.06,25.94-39.32.72-78.72-.78-118.04-.04-24.56.46-58.62-.32-82.01,1.98-2.2.22-4.54-.02-6.03,2.05l3.08,197c-.76,6.15-10.17,9.51-11.56,14.44-1.32,4.68.71,9.75-1.43,14.57-.79,1.78-15.16,17.81-18.03,12.09l-2.99-101-10.09-10.21c-1.01-6.38,7.26-8.81,9.11-12.88,4.44-9.78-.82-35.57-1.05-46.88-.66-33.07,1.58-66.19-1.93-99.09l272-3.98Z"/>
  <path class="st0" d="M2094,1632.91c24.31-26.26,49.05-52.36,73.95-78.05,8.89-9.18,70.86-68.11,69.91-73.67l-140.77-137.36c-5.49-5.77-1.65-14.5-3.05-20.51-.5-2.16-8.07-3.52-9.63-8.82-1.94-6.61-2.26-26.53,8.68-18.68l66.99,65,19.92,3.08.03,12.97,103.81,102.31-189.86,194.71v-41Z"/>
  <path class="st0" d="M2338.01,697.95l.99,271.95-28.95-33-2.03-204.95-200.97,1.97c-5.93-.53-9.99-10.62-14.43-11.66-3.75-.87-7.24,3.14-12.55.76-3.69-1.66-9.94-11.3-14.05-14.09-1.72-7.64,21.98-4.63,26.97-4.99,3.96-.29,7.68-1.88,11.94-2.06,17.76-.77,46.36,3.03,62.04.04,5.78-1.1,9.5-8.63,14.05-11.87l15.91,10,141.1-2.1Z"/>
  <path class="st0" d="M1687.99,1723.91l2.06,100.93,11.95,12.11c.9,3.62-7.55,7.84-8.96,10.97-5.14,11.36.68,74.22,1.05,90.88.16,7.56.86,52.59-.96,55.21l-271.13,3.85,31.04-29.93,206.97-4.03-1.97-198.95c.53-5.93,10.62-9.99,11.66-14.43.87-3.75-3.14-7.24-.76-12.55,1.21-2.69,16.08-17.1,19.04-14.05Z"/>
  <path class="st0" d="M1660,1743.9c.87,3.49-1.44,4-2.99,6.01-3.2,4.18-22.4,23.28-26.05,23.95l-162.97,4.03v160.99l-29.98,29c1-51.61-1.38-103.46-.1-155.07.12-4.73,2.01-9.1,2.16-13.83.48-14.43-2.42-37.28-.08-50.08.41-2.24,1.02-3.74,3-5h217Z"/>
  <path class="st0" d="M2120,923.95h163c6.82,8.26,17.67,15.72,24.01,23.99,1.54,2.01,3.88,2.54,2.98,6l-221.99-1.99v-219.99c4.9.15,8.89,5.66,12.05,8.95,2.92,3.04,17.44,19.66,17.9,22.1l2.04,160.95Z"/>
  <polygon class="st0" points="1984 305.98 1826.9 462.08 1670.01 305.99 1713.97 309.01 1829 420.05 1945 305.98 1984 305.98"/>
  <polygon class="st0" points="614 1123.93 451 1123.93 424 1095.94 645 1095.94 648 1098.94 648 1314.92 644 1316.94 618.03 1286.89 614 1123.93"/>
  <polygon class="st0" points="2086 1639.9 1929.93 1482.91 2085.99 1327.93 2082.97 1369.89 1971.93 1486.91 2086 1600.91 2086 1639.9"/>
  <polygon class="st0" points="1064 1741.9 1023 1741.9 906.73 1628.05 791 1741.9 752 1741.9 909 1585.84 1064 1741.9"/>
  <polygon class="st0" points="650 721.96 650 680.96 763.86 561.24 650 448.97 650 407.98 805.86 566.69 650 721.96"/>
  <polygon class="st0" points="1296 303.98 1074 303.98 1105.04 274.03 1268 271.98 1268 108.99 1296 82 1296 303.98"/>
  <path class="st0" d="M941.03,306.47l118.09,115.52c1.33,1.51.79,2.43,0,3.97-1.29,2.5-17.9,18.08-20.12,18.09l-118.27-109.92-114.74,114.97c-1.51,1.33-2.43.79-3.97,0-2.6-1.34-20.08-19.94-20.09-22.12l116.09-118.11c4.87-2.51,16.21,14.1,22.71,14.98l20.3-17.37Z"/>
  <path class="st0" d="M1929.4,1600.12c3.94-1.03,20.04,14.83,22.72,18.73,1.21,1.77,2.86,2.71,1,5.04l-118.12,116.08-20-15.99c-4.92,3.45-16.42,20.24-22.95,17.02l-116.13-116.09,18.09-20.12h3.97s117.02,109.18,117.02,109.18l114.4-113.85Z"/>
  <path class="st0" d="M2178,1201.93v28l-168,2v-30l164.01-5.99-2.01-164h29c.43,0,2.26-2.99,2.98-2l2.02,166.99-3.28,4.72-24.72.28Z"/>
  <path class="st0" d="M1544,381.98l-4.87-162.12-161.9.25c-4.24-1.15-3.17-27.09-3.24-32.13l170.02-2,2.01,27.99,27.11,1.89,2.87,166.12h-32Z"/>
  <path class="st0" d="M1190,1665.9l5.99,164,164.01-2.01v34h-167c-6.87-4.74.34-23.49-4.87-27.13l-26.14-.86-1.99-168h30Z"/>
  <path class="st0" d="M726,847.95l-164.01,3.99,2.13,162.77c-1.19,4.4-28.81,3.08-34.12,3.23v-169.99l27.14-3.86.85-26.14c38.97-.72,78.11.96,117.09.09,4.73-.11,9.1-2.03,13.84-2.16,11.18-.33,27.73-1.93,37.08,3.08v29Z"/>
  <path class="st0" d="M767,1331.96c3.29,4.96,22.78,18.77,20.12,23.95l-109.19,117.01,113.14,111.04c1.55,2.15,1.03,3.73,0,5.92-.63,1.35-18.58,22-20.07,22l-118.1-118.01c-3.68-7.42,15.8-17.85,14.96-22.67l-17.71-18.55,116.86-120.68Z"/>
  <path class="st0" d="M1963.27,438.12l119.81,117.81-15.15,21.03,18.03,20-117.24,118.85c-1.94.34-24.32-18.66-19.79-23.81l108.92-116.76-114.97-111.29v-3.97s20.39-21.87,20.39-21.87Z"/>
  <path class="st0" d="M920,1009.94l4.01,166-24.02,1.99-.86,24.13c-1.1,1.58-32.36,3.72-38.04,3.96-44.2,1.79-88.87-1.5-133.08-.08v-32l164-2v-161.99h28Z"/>
  <path class="st0" d="M1218,383.98l2.87,164.12c1.43,2.05,3.88,1.71,6.03,1.97,34.3,4.14,82.79-1.17,118.01-2.18,5.76-.17,32.69-.8,35.21.96l1.88,29.14-166.02,4-1.98-26.02-26.02.02c-.44-8.29.61-16.8.09-25.09-2.44-39.43-6.67-101.77-2.18-140.01.34-2.91.25-5.14,3.1-6.9h29Z"/>
  <path class="st0" d="M1825.4,1230.14l122.56,118.78-22.96,21.07-118-112.13-111.02,111.18c-5.13,2.64-16.24-14.09-21.1-17.13l111.17-119.08c7.2-3.59,15.27,13.17,20.94,13.17l18.4-15.86Z"/>
  <path class="st0" d="M809.27,678.11l118,113.7,110.77-110.91c5.06-4.3,22.03,15.36,22.03,18.06l-112.07,118.13-20.73-14.99-20,17.71-118.39-117.87c-2.57-4.99,16.69-19.38,20.39-23.84Z"/>
  <path class="st0" d="M1354,1471.91l161-4,4.72,3.28.27,20.73c1.89,1.89,24.51-3.37,28.01,2.99v168.99h-32l-2-163.99h-160v-28Z"/>
  <path class="st0" d="M1039.4,1332.14c3.39-.89,18.71,13.24,22.63,16.76,33.15,29.81,63.08,63.99,97.03,93.06,4.12,6.57-13.75,17.82-12.92,22.68l15.93,18.28-119.35,120.85c-1.94.34-24.32-18.66-19.79-23.81l110.92-116.76-110.94-111.23c-1.54-3.41,13.68-19.09,16.48-19.82Z"/>
  <path class="st0" d="M1693,444.01c3.29,4.96,22.78,18.77,20.12,23.95l-113.08,117.01,111.03,111.03c3.37,7.29-11.85,16.43-16.34,21.81l-119.84-111.87v-3.96s15.03-17.01,15.03-17.01l-17.77-18.27,120.86-122.68Z"/>
  <polygon class="st0" points="2008 843.95 2008 872.95 2001.1 876.05 1841.99 877.94 1844 1037.94 1814 1037.94 1810 876.94 1813.28 872.23 1835.13 870.08 1836 843.95 2008 843.95"/>
  <path class="st0" d="M1366,4c-2.41,3.06-9.11,11.72-12.02,12.98-6.38,2.76-10.72-1.06-16.91,7.07l-317.07,5.95v70c-3.49.87-4-1.44-6.01-2.99-4.08-3.13-28.31-27.6-28.96-30.75,2.78-10.44-5.5-53.77.99-59.24,2-.31,5.75-3.02,6.98-3.02h373Z"/>
  <path class="st0" d="M2386,641.96l.98,380c-3.22-.7-10.97-7.77-11.95-10.04-2.72-6.29.73-10.75-7.2-16.9l-5.82-317.07-70-2c-.91-3.47,1.45-3.99,2.98-6,7.02-9.17,22.81-17.55,30.01-27.99h61Z"/>
  <path class="st0" d="M2313,1429.92c6.2,6.14,46.67,40.29,44.08,46.03l-267.06,267.95c-2.9-14.62,4.13-22.3,7.87-35.11l218.03-227.87c.02-3.18-39.3-37.64-44.93-44.99-1.54-2.02-3.86-2.52-2.99-6.01h45Z"/>
  <path class="st0" d="M962,1925.89v43c0,3.2-41.8,45.07-45,45.07l-269.02-267.04c-.04-1.55,16.24-1.57,18.71-.71,3.82,1.33,3.78,9.19,14.34,7.48l228.24,218.06,52.73-45.85Z"/>
  <path class="st0" d="M466,617.96h-48c-.33,0-.59-3.7-2.87-6.04-6.01-6.18-37.21-31.29-37.2-36.96l1-2.96,267.05-268.02c-.62,5.71,1.25,13.25-.38,18.59-1.33,4.37-8.63,7.21-7.41,16.46l-218.02,228.22c-.73,3.99,37.43,37.61,42.85,44.69,1.54,2.02,3.86,2.52,2.99,6.01Z"/>
  <path class="st0" d="M1774,74c.18-.28,3.76-.64,6.04-2.87,7.02-6.84,30.23-33.29,35.97-36.25,1.54-.79,2.46-1.33,3.97,0l268.02,267.08c-5.94-.97-15.38,1.44-20.6.07-1.85-.48-3.25-8.02-12.46-5.86l-229.93-220.14-51,47.96v-50Z"/>
  <path class="st0" d="M441,1371.92l2.02,4-34.25,31.53-58.9-.4-1.59-2.41-1.26-378.72c3.49,1.11,12.97,9.62,14.05,12.08,1.99,4.52-.82,7.05-.51,9.1.34,2.18,4.88,1.94,5.49,4.24,1.47,5.53-.59,18.61-.14,25.69,2.15,33.59,3.3,68.2,4.17,101.83,1.65,64.4.37,128.73,3.92,193.07h67Z"/>
  <path class="st0" d="M1750,2043.88l-380.02.98c1.02-3.41,9.8-13.11,12.1-14.08,3.94-1.67,6.76,1.28,8.82.82,2.41-.54,2.24-5.18,4.5-5.77,5.59-1.46,18.59.56,25.69.14,33.61-2.02,68.2-3.31,101.84-4.16,63.73-1.62,127.42-.28,191.06-3.93l2.04-69.98,33.98,33v63Z"/>
  <path class="st0" d="M1164.01,1859.88c.44,8.29-.61,16.8-.09,25.09,2.41,39.03,6.37,97.92,2.18,136.01-.33,3.03-.19,4.96-3.1,6.86l-26.96-29-2.03-106.96-106.97,1.97-31.03-28.98c-.84-4.53,1.97-2.75,4.95-2.97,16.77-1.23,35.22-1.64,51.95-2.08,36.97-.99,74.13.91,111.09.07Z"/>
  <path class="st0" d="M1036,167.99l-1.9,7.1-113.37,114.75-118.73-119.85h39c9.94,8.12,74.36,74.78,79.72,73.86l74.28-75.86h41Z"/>
  <path class="st0" d="M2369.99,1225.94l-25.4,30.02-109.71,3.84,1.08,105.08c-.74,3.84-21.46,24.49-25.96,28.04-2.15,1.7-2.45,4.48-5.03,1.03l-2.98-166.03,168-1.98Z"/>
  <polygon class="st0" points="1932 1877.89 1893 1877.89 1814.98 1804.25 1739 1881.89 1701 1881.89 1698.87 1877.82 1815 1759.83 1932 1877.89"/>
  <path class="st0" d="M2222,459.97v37c0,5.52-68.25,69.17-75.96,80l77.96,74v43l-121.86-115.27,112.76-116.81,7.1-1.9Z"/>
  <path class="st0" d="M514,1589.91v-39c0-5.43,67.87-67.44,73.86-79.72l-77.86-74.27v-41l7.1,1.9,114.97,113.09-118.07,118.99Z"/>
  <path class="st0" d="M1570,22c3.49-.87,4,1.44,6.01,2.99,3.11,2.38,22.96,22.34,23.58,24.42l2.4,108.59,106.97-1.97,29.04,28.92c-1.84,2.9-3.9,2.79-6.9,3.13-34.61,3.9-85.03.95-122.01,1.99-11.88.33-29.24,1.93-39.08-3.08V22Z"/>
  <polygon class="st0" points="364 821.95 393.41 792.36 500.01 789.96 498.04 685 528.98 653.94 532 821.95 364 821.95"/>
  <path class="st0" d="M2232,693.96c-1.3-9.64.53-13.73,6.06-20.94,25.21-32.89,68.81-63.38,95.98-96.01l1.94-5.01c-2.4-.15-4.34-1.3-6.03-2.92-34.5-32.83-66.7-68.2-102.17-100.08,1.18-9.53-5.58-11.74-7.34-18.47-1.2-4.57-1.73-13.59-1.42-18.58l150.84,149.29-106.86,112.72h-31Z"/>
  <path class="st0" d="M504,1355.92c0,3.49.48,7.06-.49,10.51-4.24,15-84.87,82.98-100.58,103.43-1.15,1.5-3.26,2.36-2.79,4.78l105.97,104.16c3.95,14.5,13.53,22.21,9.87,39.11l-149.82-151.28,104.84-110.7h33Z"/>
  <path class="st0" d="M1764,2l1.96,154.95c-36.46,48.27-28.67.97-29.87-28.04-.2-4.73-2.03-9.11-2.16-13.83-.9-30.96.84-62.12.08-93.08h-143c-1.11,0-3.44,3.03-7.54,1.76-2.32-.72-4.06-4.09-6.98-5.25-10.16-4.04-20.38-4.93-26.49-16.51h214Z"/>
  <path class="st0" d="M1698,1887.89c3.53.27,7.56-.64,10.95.05,6.6,1.32,72.11,71.03,83.99,82,3.18,2.94,24.12,22.09,25.78,21.8l104.21-105.92c14.38-5.29,22.09-13.3,39.07-9.91l-153,150.04-111-107.06v-31Z"/>
  <path class="st0" d="M2390,1207.93v210.99c-1.76,2.85-3.99,2.76-6.9,3.1-29.67,3.48-76.12,1.26-108.02,1.98-12.66.28-25.38-.29-38.04-.13l-25-22.95c0-.97,9.57-9,10.96-9h147v-142.99c0-15.72,1.83-8.17,3.88-14.5,1.24-3.82.25-8.15,2.57-13.06,1.49-3.16,9.47-13.36,13.56-13.44Z"/>
  <path class="st0" d="M363.99,657.95l2.15,151.11c-7.53,5.94-4.35,12.42-7.18,18.85-.55,1.24-13.32,15.9-14.95,14.03l1.98-213.99,152.97-1.95c3.86.74,23.42,19.94,22.94,22.72-1.9,11-41.34,6.75-50.98,7.15-4.74.2-9.11,2.03-13.84,2.16-30.97.9-62.13-.83-93.09-.09Z"/>
  <path class="st0" d="M1036,159.99c-3.53-.27-7.56.64-10.95-.05-7.43-1.49-80.17-79.81-93.99-92-4.61-4.07-10.12-7.02-14.05-11.91l-105.96,108.1c-12.44,2.91-22.47,11.89-37.06,8.84L925.27,22.14l110.73,106.85v31Z"/>
  <path class="st0" d="M919.27,366.12l98.87,92.76.97,5.07-20.12,21.98-78-74.03-75.94,74.19c-1.72,1.95-2.7,2.21-5.04,1-1.2-.62-18.52-17.93-19.14-19.13-.79-1.54-1.33-2.46,0-3.97l98.39-97.87Z"/>
  <path class="st0" d="M1716.28,1589.65c-2.36-4.13,16.75-26.24,20.45-25.6l78.27,73.77,75.04-74.98c5.23-4.31,24.03,17.49,24.03,20.06l-99.07,99.06-98.72-92.32Z"/>
  <path class="st0" d="M1516,241.99l4,139.99h-32l-2-107.99h-109c-4.91-7.22-4.85-25.02,0-32h139Z"/>
  <path class="st0" d="M834,1014.94c2.6-9.29,22.85-2.77,29.98-2.98l2.12,133.08-3.1,6.9h-137v-34h108v-102.99Z"/>
  <polygon class="st0" points="1020 1747.9 911 1859.96 794 1745.9 835 1745.9 909 1817.86 981 1747.9 1020 1747.9"/>
  <path class="st0" d="M1130,236.99c-.73,3.39-20.12,23.04-23.99,26.01-2.01,1.54-2.54,3.88-6,2.98l-2.02-155.99,164-3.98c.9,3.47-1.44,4-2.98,6-6.86,8.95-18.63,17.04-26.01,25.99h-100l-3,3v95.99Z"/>
  <path class="st0" d="M644,675.96l-112.14-105.15,2.05-5.95,108.1-113.91,4,2.02v38l-71.86,74.27c4.68,11.74,69.86,66.7,69.86,71.72v39Z"/>
  <polygon class="st0" points="2150 1031.94 2150 1173.93 2010 1175.93 2010 1143.93 2118 1141.93 2118 1031.94 2150 1031.94"/>
  <polygon class="st0" points="482 1261.93 581 1261.93 610 1291.91 453.99 1293.94 450.02 1129.94 479.59 1159.34 482 1261.93"/>
  <path class="st0" d="M1357,1557.91c-5.03-1.55-3.13-23.05-2.13-28.13l139.14-3.88c.54,28.98-.72,58.1-.09,87.09.1,4.73,2.03,9.1,2.16,13.83.33,11.83,1.94,29.05-3.08,39.08h-31l-2-107.99h-103Z"/>
  <path class="st0" d="M1729.4,482.18c4.67-1.23,24.91,19.9,24.45,22.51l-73.71,78,70.92,71.31c3.37,7.29-11.85,16.43-16.34,21.82l-100.8-94.86,95.47-98.78Z"/>
  <path class="st0" d="M1001,1371.95l100.86,95.24-96.83,100.23c-2.97.25-23.91-18.66-22.82-24.11l73.75-76.4-72.5-73.65-.54-3.39,18.08-17.93Z"/>
  <path class="st0" d="M2090,1597.91v-41l70.07-74c-4.49-11.56-68.07-65.1-68.07-70v-41l111.85,108.72-113.85,117.27Z"/>
  <path class="st0" d="M1942,301.98h-43l-72.27-69.85c-1.45-.25-19.92,16.25-22.75,18.83-7.11,6.47-45.51,49.03-48.97,49.03h-39l108.73-111.85,117.27,113.85Z"/>
  <path class="st0" d="M805.27,1372.07l22.58,22.58-73.71,78,74.96,75.33c3.14,6.34-14.28,19.4-18.37,23.8l-100.58-99.12,95.13-100.57Z"/>
  <path class="st0" d="M1274,491.97h105c7.26,7.58.17,18.9.98,27.98-33.63,1.82-67.39,1.05-101.06,1.93-11.7.31-28.46,6.36-38.92-.92v-136.99c10.72.33,24.67-6.3,34,1v106.99Z"/>
  <path class="st0" d="M1606,1808.9c4.91-3.43,25.27-29.23,30-24.98-3.54,4.06,0,7.41,0,8.98v146.99l-161.99,1.99c-.9-3.47,1.44-4,2.98-6,2.39-3.11,22.34-22.96,24.42-23.58,30.68-4.11,67.94,1.18,97.69-2.31,2.91-.34,5.14-.25,6.9-3.1v-97.99Z"/>
  <path class="st0" d="M1923.4,478.19c6.88-1.85,89.86,88.58,102.56,98.78l-96.96,99.06c-2.57,0-24.38-18.79-20.07-24.03l73.03-75.04-77.1-76.99c-1.22-2.74,15.4-20.95,18.53-21.79Z"/>
  <polygon class="st0" points="847 638 925 712.03 1001 639.89 1019.51 658.99 923.37 757.69 824.04 660.96 847 638"/>
  <polygon class="st0" points="1872 1037.94 1867.99 897.94 2007.98 895.97 2010.01 929.96 1900 931.95 1900 1037.94 1872 1037.94"/>
  <path class="st0" d="M1811.27,1290.07l97.84,95.87c1.33,1.51.79,2.43,0,3.97-1.7,3.29-19.83,20.82-23.1,19.13-1.11-.57-15.31-13.63-18.04-16.09-19.92-17.93-37.14-39.08-57.25-56.88l-74.69,72.93c-4.82,2.18-16.74-13.41-19.12-17.19l94.36-101.74Z"/>
  <path class="st0" d="M726,903.95l-109.13,3.87c-.91,26.94-1.78,54.25-.96,81.2.27,8.91,6.13,21.18-.92,28.92h-29v-141.99c32.84-3.79,66.04-1.07,99.08-1.92,12.3-.32,29.84-6.39,40.92.92v29Z"/>
  <path class="st0" d="M2153,785.95l-27-27.98,155.06-2.13,4.93,162.09c-3.47.9-4-1.44-6-2.98-8.95-6.86-17.04-18.63-25.99-26.01v-99.99l-3-3h-98Z"/>
  <path class="st0" d="M1248,1665.9l1.99,110c27.62-.74,55.46.93,83.09.07,8.55-.26,19.95-6.02,26.92.92v29h-142l-2-139.99h32Z"/>
  <path class="st0" d="M1628.01,213.98l1.71,164.72c-2.02,6.17-24.35,2.46-30.44,3l-2.41-1.59c-2.38-42.82.14-86.21-.79-129.2-.17-7.86-5.69-28.36-.13-33.97,5.5-5.55,24.17-1.92,32.06-2.96Z"/>
  <polygon class="st0" points="724 761.96 724 795.95 558 795.95 558 763.96 724 761.96"/>
  <path class="st0" d="M2010,1253.93l165.67-1.68c.29,1.45,2.33,3.95,2.33,4.68v29h-168v-32Z"/>
  <path class="st0" d="M2101.03,614.44c3.73,4.51,25.19,17.51,22.09,23.51l-117.1,115.13c-4.08-6.4-22.65-17.35-19.08-25.08l114.1-113.56Z"/>
  <path class="st0" d="M727,1293.96c4.33,6.45,19.13,16.18,22.12,21.98.79,1.54,1.33,2.46,0,3.97l-114.12,114.08-24.95-21.07,116.95-118.96Z"/>
  <path class="st0" d="M1659.27,1642.05l117.84,113.87c1.33,1.51.79,2.43,0,3.97-2.99,5.8-17.78,15.53-22.12,21.98l-116.12-115.97c-2.57-4.99,16.69-19.38,20.39-23.84Z"/>
  <polygon class="st0" points="979.27 268.13 1097.96 384.98 1075 406.05 956.04 290.98 979.27 268.13"/>
  <polygon class="st0" points="1138 1667.9 1140 1833.89 1106 1833.89 1106 1667.9 1138 1667.9"/>
  <polygon class="st0" points="2262 1199.93 2230 1199.93 2226 1034.94 2229.28 1030.22 2258.13 1030.81 2262 1199.93"/>
  <polygon class="st0" points="1544 161.97 1379 165.99 1374.28 162.71 1375.87 132.87 1542.13 130.87 1544 161.97"/>
  <path class="st0" d="M633.27,1510.06l119.79,113.89c3.56,7.75-14.97,18.62-19.03,25.04l-121.15-115.09c-2.57-4.99,16.69-19.38,20.39-23.84Z"/>
  <path class="st0" d="M2001.4,400.19c8.17-2.2,106.6,105.41,122.56,116.78l-22.96,21.07-120.12-114.08c-1.87-2.33-.22-3.28,1-5.04,1.44-2.1,18.22-18.37,19.52-18.73Z"/>
  <path class="st0" d="M1969.4,1638.12c5.17-1.35,20.01,15.58,22.67,20.79l-115.28,120.91c-1.72.36-20.59-17.37-21.91-19.93-.79-1.54-1.33-2.46,0-3.97l114.52-117.8Z"/>
  <polygon class="st0" points="1192 1917.89 1192 1885.89 1355.1 1883.79 1361.13 1885.76 1361.72 1912.61 1357 1915.89 1192 1917.89"/>
  <polygon class="st0" points="508 1017.94 476 1017.94 473.99 847.94 504.09 848.89 506.01 852.93 508 1017.94"/>
  <path class="st0" d="M859,268.02l22.96,22.96-116.96,120.96c-2.96-6.07-25.3-17.78-22.12-23.94l116.12-119.98Z"/>
  <path class="st0" d="M1374.1,107.89l-1.23-28.02,2.4-1.6c8.73.95,17.23-1.9,25.64-2.36,36.71-2,75.24-.74,112.16-1.83,6.53-.19,28.2-6.23,30.64,1.2-.54,6.1,3.17,28.42-3,30.44l-166.62,2.17Z"/>
  <path class="st0" d="M2174,865.95h47l35,34h-111c-2.85-1.76-2.76-3.99-3.1-6.9-2.8-23.84,1.04-55.11.18-80.18-.29-8.54-3.78-17.72-2.07-26.91,3.47-.9,4,1.44,6,2.98,3.8,2.92,27.99,27.5,27.99,30.01v47Z"/>
  <path class="st0" d="M2039.4,360.19l123.72,113.8c1.68,3.27-15.87,21.44-19.14,23.1-7.51,3.82-107.59-105.2-123.1-115.13-2.5-4.86,14.78-17.79,18.52-21.77Z"/>
  <path class="st0" d="M591.4,1552.12c2.01-.53,2.85-.06,4.56.72,1.36.62,18.82,17.05,22.07,20.04,32.57,29.91,61.5,64.05,95.04,93.06,3.57,7.73-13.32,17-17.03,23.04l-123.1-113.11c-4.39-4.51,16.59-23.25,18.47-23.74Z"/>
  <path class="st0" d="M448,847.95l2.12,168.76c-.89,3.28-25.02,4.6-28.25,2.36l-5.87-166.12,3-5h29Z"/>
  <polygon class="st0" points="1592 873.95 1590.1 1035.04 1587 1041.94 1558 1041.94 1560 873.95 1592 873.95"/>
  <path class="st0" d="M2314,1029.94c-1.64,9.9,1.63,19.63,2.08,28.92,1.79,36.54.75,73.54,1.83,110.16.28,9.48,6.2,22.75-.92,30.92h-31l-2-169.99h30Z"/>
  <path class="st0" d="M1419,759.99l116.12,117.98c2.67,5.18-16.83,18.99-20.12,23.95l-116.12-117.97c-2.67-5.18,16.83-18.98,20.12-23.95Z"/>
  <path class="st0" d="M650.01,645.95c.9-12.48-1.78-34.65,3.02-45.96,2.6-6.11,29.96-26.69,30.76-31.31-2.12-11.78-28.94-27.93-31.38-36.12-1.2-4.01-2.13-26.8-2.49-33.5-.12-2.28-.6-13.14,1.1-13.1l78.84,78.74-79.85,81.26Z"/>
  <polygon class="st0" points="819.03 228.48 841.96 250.99 723 371.94 702.04 350.98 819.03 228.48"/>
  <path class="st0" d="M1223.74,1148.21l111.32,115.76c1.56,2.15,1.02,3.72,0,5.92-1.17,2.55-17.24,18.75-21.05,17.16-40.38-36.82-77.78-77.9-114.09-118.11,2.49-5.04,18.63-23.68,23.82-20.72Z"/>
  <path class="st0" d="M2011.27,1678.05c2.08-.36,22.16,17.52,19.84,21.84l-112.53,119.79c-3.71.95-21.94-16.36-23.71-19.8-.79-1.54-1.33-2.46,0-3.97l116.39-117.87Z"/>
  <polygon class="st0" points="2084 1563.91 2005.93 1484.91 2084 1401.92 2084 1446.92 2050.03 1480.91 2084 1516.91 2084 1563.91"/>
  <polygon class="st0" points="1192 1943.89 1362.01 1941.88 1361.13 1970.01 1192 1975.89 1192 1943.89"/>
  <path class="st0" d="M1384,833.95l-166.01-1.99-1.12-30.14,6.03-1.96c48.59,3.39,106.56-3.6,154.2,1.99,2.91.34,5.14.25,6.9,3.1v29Z"/>
  <path class="st0" d="M987.99,1741.89c-12.48-.9-34.65,1.78-45.96-3.02-6.06-2.57-26.84-30.04-31.3-30.82l-34.14,31.44-48.59,2.39,80.72-79.83,79.26,79.84Z"/>
  <path class="st0" d="M1609.27,1056.08c1.32-.23,19.78,15.23,20.87,16.76,1.26,1.77,2.77,2.79.97,5.07l-117.13,113.13c-5.14,2.7-19.01-16.85-23.95-20.12l119.24-114.85Z"/>
  <path class="st0" d="M1492,1802.9c1.62-5.25,26.76-2.54,33.08-2.92,4.73-.28,9.12-2.01,13.83-2.16,22.29-.75,44.79.72,67.07.09.94,3.85-1.41,3.85-3.36,5.62-9.45,8.6-18.96,16.96-27.63,26.37h-49v49l-34,33v-108.99Z"/>
  <path class="st0" d="M1223,855.98c3.29,4.97,22.79,18.77,20.12,23.95l-118.12,113.97-20.08-17.93.04-6.02,118.04-113.97Z"/>
  <polygon class="st0" points="1906 307.98 1827 386.05 1746 307.98 1791 307.98 1825 341.94 1861 307.98 1906 307.98"/>
  <polygon class="st0" points="1518 1217.93 1518 1247.93 1350 1245.93 1350 1213.93 1518 1217.93"/>
  <path class="st0" d="M1242,246.99c-1.76,2.85-3.99,2.76-6.9,3.1-23.21,2.72-53.77-.98-78.18-.18-8.18.27-16.95,3.72-25.77,2.11l-1.19-5.03,31.46-28.59,46.6-.4c1.41-14.09-3.06-37.26,3.09-49.9,3.66-7.52,24.42-22.74,30.9-30.1v108.99Z"/>
  <path class="st0" d="M1178,1007.94l-3.99,166c-4.28-2.2-29.55,4.38-30.04.83l2.03-166.83h32Z"/>
  <path class="st0" d="M592,1149.93l1.98,113.99-31.09-31.89-.89-48.11h-41c-9.08,0-34.2-26.01-41-34h112Z"/>
  <path class="st0" d="M779.4,192.2c6.03-1.58,17.25,15,22.56,18.79-35.39,35.96-69.26,73.39-103.91,110.05-3.03,3.2-12.01,14.14-16.04,12.07-3.44-1.77-22.07-19.68-17.03-25.08l114.41-115.82Z"/>
  <path class="st0" d="M1364.01,1995.87c-.29,6.7,1.92,29.3-5.28,31.73l-164.85,1.4-1.88-29.14,172.02-4Z"/>
  <path class="st0" d="M2049.4,1716.11c3.7-.97,20.03,14.48,21.73,17.83.76,1.48,1.06,2.42-.05,3.85l-119.07,119.22c-3.04-4.86-19.78-15.97-17.14-21.1l114.52-119.8Z"/>
  <polygon class="st0" points="2369.89 1030.04 2372.01 1199.94 2343.87 1199.06 2338 1032.93 2339.87 1028.81 2369.89 1030.04"/>
  <polygon class="st0" points="392 849.95 396 1019.94 367 1019.94 362 849.95 392 849.95"/>
  <polygon class="st0" points="1542 20 1542 50 1372 54 1372 22 1542 20"/>
  <path class="st0" d="M2079.28,320.13l119.79,113.9c3.55,7.8-13.35,16.96-17.06,23.08l-123.12-115.15c-2.93-5.69,17.19-16.42,20.39-21.83Z"/>
  <path class="st0" d="M553.29,1592.22l121.77,113.72c3.74,8.09-16.51,16.82-20.06,23.92l-118.76-115.28c-4.7-6.5,12.78-17.17,17.05-22.36Z"/>
  <path class="st0" d="M1520,1413.92v28l-166.01,4.01c.29-10.12-3.3-19.84-2-30.02l168.01-1.99Z"/>
  <path class="st0" d="M975.99,1007.95c.47,8.29-.56,16.79-.07,25.07,2.32,38.87,6.69,100.37,2.18,138-1.52,12.7-17.33,2.09-27.81,4.63l-2.07-6.88-2.24-157.69,30.02-3.14Z"/>
  <path class="st0" d="M1077.4,718.17c4.72-1.23,19.99,14.98,24.55,18.79-13.9,10.75-112.44,121.94-119.94,118.11-2.4-1.23-16.04-15.82-16.04-18.08l1.84-4.16,109.58-114.65Z"/>
  <path class="st0" d="M1749.4,1194.14c4.64-1.22,21.22,15.14,19.68,19.68-31.5,33.87-63.19,67.61-95.03,101.15-3.66,3.85-16,18.14-20.04,16.07-2.8-1.44-20.85-17.77-19.13-21.1l114.52-115.8Z"/>
  <path class="st0" d="M1078.04,1289.94l119.03,114.02c3.52,7.62-13.86,17.74-18.07,23.92l-118.13-113.96,17.17-23.99Z"/>
  <path class="st0" d="M1657.74,757.68l-6.85-1.63c-34.15-33.82-67.46-68.56-101.84-102.14-3.17-3.09-10.56-6.77-12.18-9.96-2.63-5.17,14.31-16.44,17.14-21.11l119.12,111.16c3.05,6.01-14.1,17.08-15.39,23.68Z"/>
  <polygon class="st0" points="1786 871.95 1790.01 1037.95 1758 1039.94 1758 871.95 1786 871.95"/>
  <path class="st0" d="M1034,1007.94l2.01,139c-1.12,6.06-24.13,15.22-30.99,17.01-2.36-18.19-.39-36.79-.94-55.1-.91-30.11-5.72-63.89-2.18-94.01.34-2.91.25-5.14,3.1-6.9h29Z"/>
  <path class="st0" d="M1217,633.96c-4.85-1.35,1.06-22.43-1.01-28.01l164.14-3.12,1.59,2.41c-1.26,7.41,2.06,17.98,1.9,24.21-.06,2.46-.75,3.08-2.62,4.51h-164Z"/>
  <polygon class="st0" points="1722 1179.95 1720.1 1187.03 1615 1293.89 1592.03 1270.93 1688.08 1170.86 1722 1179.95"/>
  <path class="st0" d="M1228.01,659.97l154.13-1.14,1.59,29.85-1.59,2.41-137.14,2.88c-5.79-.82-18.38-32.64-16.98-34Z"/>
  <path class="st0" d="M1012.01,867.93l106.01-111.09c5.19-2.67,18.1,16.04,23.11,19.14l.71,2.69-93.88,98.28c-9.35,4.33-25.74-8.28-35.95-9.02Z"/>
  <path class="st0" d="M1525.03,669.96l110.05,103.96c4.36,6.79-15.64,19.49-19.1,25.15l-101.02-95.18c-2.73-4.52,7.83-33.42,10.07-33.93Z"/>
  <polygon class="st0" points="1352 1358.92 1358.9 1355.82 1492.66 1355.84 1508.02 1386.9 1352 1389.92 1352 1358.92"/>
  <path class="st0" d="M1119.4,1250.14c6.75-1.81,89.54,85.53,101.67,95.84,1.39,3.3-9.47,33.89-12.08,33.9l-110.96-108.96,21.37-20.79Z"/>
  <path class="st0" d="M1700,1039.94l-1.96-136.95c1.96-10.21,24.16-12.2,30.97-18.99,2.89,1.86,2.76,3.85,3.08,6.85,4.27,39.21-1.46,89.25-.18,130.17.11,3.42,4.79,18.92-.91,18.92h-31Z"/>
  <path class="st0" d="M1330,433.97h45c.52,0,4.71,2.04,5.06,3.38l1.95,30.62-86.02,2-2-88.02c7-.19,14.08.26,21.1.11,4.66-.1,11.04-4.23,12.62,1.2.22.76,2.29,14.91,2.29,15.7v35Z"/>
  <polygon class="st0" points="963.06 1407.92 1025.86 1467.19 965 1529.83 941.93 1506.91 975.86 1468.64 942.49 1432.95 963.06 1407.92"/>
  <path class="st0" d="M1773.74,639.69c-2.1,1.22-5.11,0-6.85-1.62l-56.97-57.09,58.11-63,25.82,23.27-33.64,38.12c-2.04,7.74,29.7,28.84,31.57,36,1.35,5.16-11,14.52-14.9,18.57-1.57,1.63-2.81,5.56-3.14,5.75Z"/>
  <path class="st0" d="M2010,951.94l-.27,33.75-51.73,2.25v43c0,1.08-3.09,4.45-2,7h-32l-2-86h88Z"/>
  <path class="st0" d="M778,1011.94l34.01-2.01,2,86.01-86.78,2.11c-4.41-1.2-3.08-28.9-3.24-34.13l54.01-1.99v-50Z"/>
  <polygon class="st0" points="1809.06 1365.92 1873.96 1426.92 1852.72 1449.8 1849.47 1449.62 1811 1415.98 1775 1449.88 1752.9 1429.86 1752.75 1425.87 1809.06 1365.92"/>
  <path class="st0" d="M927.74,681.68c-2.12,1.21-5.1,0-6.85-1.62l-58.75-57.37,21-24.69,40.12,33.83,36-31.73,23.86,19.86-55.39,61.72Z"/>
  <path class="st0" d="M1440,1662.9c.09.65,2.33,1.48,2.02,2.98-6.25,1.48-32.14,4.47-35.14.15l-2.87-52.12h-47l-3-3v-31c21.63-.6,43.45.77,65.08.08,7.04-.22,15.42-5.49,20.92.92,2.48,25.57-3.34,57.22,0,82Z"/>
  <path class="st0" d="M979.62,500.32c4.3,7.44-14.28,20.22-18.89,25.5l-40-35.71c-5.23-.93-31.73,33.96-38.13,35.64-5.83,1.53-19.31-16.54-24.11-20.76l58.79-60.88,62.34,56.2Z"/>
  <path class="st0" d="M1853.27,1522.06c2.25-.39,23.74,19.35,22.51,24.45l-58.79,59.36-62.86-61.23c-.4-2.3,17.55-21.86,22.46-20.51l38.4,35.75,38.27-37.82Z"/>
  <polygon class="st0" points="1462 383.98 1433 383.98 1430 380.98 1430 329.98 1374 327.98 1374 298.98 1377 295.98 1459 295.98 1462 298.98 1462 383.98"/>
  <path class="st0" d="M1710,145.99c-3.49.87-4-1.44-6.01-2.99-2.98-2.28-20.95-20.32-21.58-22.42l-.43-42.57c-3.4-3.24-37.49-.41-44.55-2.45-2.37-.68-33.34-26.37-33.39-28.57,1.9-2.91,3.84-2.77,6.86-3.1,16.25-1.79,37.15.59,54.18.18,13.54-.33,32.58-6.42,44.92.92v100.99Z"/>
  <path class="st0" d="M725,929.95c5.52,1.7,2.07,23.14,3.07,28.63-.4,1.32-4.52,3.37-5.07,3.37h-51v53c-3.13,4.57-27.53,3.94-30.13,2.13l-1.59-2.41c2.93-24.55-5.14-54.3-2.38-77.82.34-2.91.25-5.14,3.1-6.9h84Z"/>
  <polygon class="st0" points="2096 1031.94 2096 1117.94 2008 1119.94 2008 1087.94 2062.01 1085.95 2064 1031.94 2096 1031.94"/>
  <path class="st0" d="M1306,1719.9h54v32l-85.13.13-2.59-84.84c1.92-5.85,24.02-3.13,29.85-2.41l3.87,55.12Z"/>
  <path class="st0" d="M1785,1885.89c6.12,1.74,23.82,30.91,29.71,29.83,15.99-9.85,24.59-29.22,44.52-31.61,10.77-1.29,22.03.57,32.76-2.22,1.53,1.34-7.43,12.2-8.96,14.02-11.4,13.47-28.26,29.9-40.98,43.02-3.16,3.26-20.11,21.27-22.78,20.8l-71.27-73.85h37Z"/>
  <path class="st0" d="M488,681.96c.87,3.49-1.44,4-2.99,6.01-2.28,2.98-20.32,20.95-22.42,21.58l-42.6.4-2.39,46.61-28.58,31.41-3.02-106.01h102Z"/>
  <polygon class="st0" points="988 161.97 951.9 163.11 921 132.02 884.57 163.56 842 165.97 915 89.92 988 161.97"/>
  <polygon class="st0" points="1887.27 516.11 1947.86 575.24 1888.73 637.82 1866.14 616.69 1901.84 576.67 1866.14 538.69 1887.27 516.11"/>
  <path class="st0" d="M1392,809.95l105.86,108.72c-5.94,4.77-18.3,23.81-25.81,20.34l-76.09-78.08c-2.19-2.23-3.95-9.26-3.95-11.98v-39Z"/>
  <path class="st0" d="M847,1409.95c3.82,5.44,22.39,18.47,20.79,24.56-1.99,7.57-36.11,30.05-33.57,39.99l35.75,36.41-22.96,22.96-59.07-60.96,59.07-62.96Z"/>
  <path class="st0" d="M1343.99,1237.92l-105.06-104.03c-3.32-4.8,15.94-23.46,19.08-25.08,2.34-1.21,3.32-.96,5.04,1l77.9,80.15,3.03,47.95Z"/>
  <path class="st0" d="M506,1440.92c-1.49,5.25-27.74,23.5-29.86,31.72.49,2.75,26.32,26.08,29.32,32.8,5.25,11.76.67,29.6,4.52,42.46l-7.09-1.89-70.35-69.11,73.44-72.97v37Z"/>
  <polygon class="st0" points="2230.02 643.96 2228.88 609.86 2259.96 576.97 2228.41 542.56 2227.02 499.95 2302.12 570.94 2230.02 643.96"/>
  <path class="st0" d="M1052,1971.89h31c2.17,0,15.58,2.75,18.16,3.84,7.84,3.3,24.25,21.4,30.84,28.14l-106,2.02v-101.99c3.49-.87,4,1.44,6.01,2.99,2.97,2.27,21,20.37,21.62,22.45l-1.63,42.56Z"/>
  <path class="st0" d="M2246,1365.92l27.44-27.63,40.55,1.62,2.91-46.09,28.11-33.85c2.9,1.89,2.77,3.84,3.1,6.86,1.85,16.86-.62,38.52-.18,56.18.32,12.92,6.4,31.22-.92,42.92h-101Z"/>
  <path class="st0" d="M1232,1005.94v116.99c-9.11,11.49-19.75,21.47-29.43,32.44-1.19,1.35.11,3.84-4.56,2.55-1-50.12,1.04-100.04,1.98-149.99l32.01-1.99Z"/>
  <path class="st0" d="M1467,1159.93c8.02,10.65,22.21,17.8,30.01,27.98,1.54,2.01,3.88,2.54,2.98,6l-149.99-1.99v-32h117Z"/>
  <path class="st0" d="M1154,999.94l107-105.96c2.96,6.07,25.3,17.78,22.12,23.94l-82.05,80.19c-.44.25-9.56,1.82-10.07,1.82h-37Z"/>
  <path class="st0" d="M1384,855.95c-1.05,6.89,5.73,29.23.13,33.13-38.91,3.13-77.78-1.2-116.72-1.54l-33.41-31.59h150Z"/>
  <path class="st0" d="M1536,891.95v146.99l-3,3h-31l2.05-118.58c9.3-9.35,18.59-18.91,27.38-28.85,1.2-1.35-.14-3.81,4.57-2.56Z"/>
  <path class="st0" d="M1579.99,1047.95l-104.01,105.1c-1.51,1.34-2.43.79-3.97,0-1.93-.99-20.1-18.67-20.1-20.11l82.12-81.96,45.95-3.03Z"/>
  <path class="st0" d="M1264,747.96l-9.99-29.99,126.83-2.13c3.18.55,3.58,27.77,3.16,32.12h-120Z"/>
  <path class="st0" d="M1635.42,1148.2c5.03,1.07,29.65,9.48,28.5,14.6l-88.92,89.2c-1.37,0-20.02-15.32-21.2-17.03-1.24-1.79-1.9-2.28-.34-4.39l81.96-82.38Z"/>
  <path class="st0" d="M1072.08,889.85l1.82-7.01,84.12-86.01c1.51-1.33,2.43-.79,3.97,0,2.25,1.16,20.08,18.08,20.08,20.12l-82.03,84.06-27.95-11.16Z"/>
  <path class="st0" d="M1644,922.95c.94-3.1,27.87-13.1,29.99-11l2.02,128.01c-5.14-2.27-32.01,4.65-32.01-1.01v-115.99Z"/>
  <path class="st0" d="M1350,1301.93l118.74-1.74,13.22,28.74c-1.87,2.89-3.85,2.76-6.86,3.08-26.53,2.88-60.46-.96-88.18-.18-9.9.28-21,4.2-31.64,1.8-5.65-1.85-2.5-25.11-5.28-31.71Z"/>
  <path class="st0" d="M1090.01,1007.93l1.67,116.68c-1.15,3.37-26.2,13.77-28.53,13.2-2.92-.71-2.97-4.37-3.24-6.79-2.96-26.39,1.01-60.53.18-88.17-.31-10.3-3.94-21.84-2.07-32.9l31.99-2.03Z"/>
  <path class="st0" d="M1502.03,727.96l93.89,88.99-20.92,22.96-82.8-81.32c-3.75-6.86,9.32-21.92,9.83-30.63Z"/>
  <path class="st0" d="M1233.98,1319.93l-7.08-1.91-86.03-84.11.04-3.93c5.15-4.12,14.73-23.28,22.15-18.18l80.01,78.19-9.09,29.92Z"/>
  <path class="st0" d="M1161.98,499.96l-31.53-63.44c.94-13.96-2.87-34.46-.45-47.55.42-2.28.69-4.05,3.28-4.72,6.09.54,28.42-3.17,30.44,3l-1.74,112.7Z"/>
  <path class="st0" d="M728,1227.93l114,2.02c-.47,2.99-3.77,3.73-5.96,5.02-5.76,3.39-53.89,26.96-57.04,26.96h-51v-34Z"/>
  <path class="st0" d="M849.98,799.95l-63.83-23.14c-9.97-10.42-28.32-22.22-36.27-33.79-1.45-2.11-2.49-2.15-1-5.04,1.62-3.14,20.28-22.4,25.08-19.08l76.02,81.06Z"/>
  <path class="st0" d="M1884,1249.95c24.43,7.93,56.24,14.69,76.02,30.95,4.01,3.29,26.05,25.19,26.05,28.02-3.2,4.82-15.53,19.77-20.09,22.12-1.54.79-2.46,1.33-3.97,0l-78.02-81.09Z"/>
  <path class="st0" d="M2008,819.95h-114c-.97-4.72.61-3.21,2.58-4.49,7.01-4.52,50.38-25.73,56.87-27.06,10.44-2.13,26.3-.02,37.63-.36,3.41-.1,16.92-4.51,16.92.91v31Z"/>
  <path class="st0" d="M1651.27,406.12l22.79,20.86-79.06,80.95c-3.98-2.8-2.11-2.73-1.56-5.46,1.75-8.68,17.78-52.53,22.14-59.91,2.43-4.12,33.18-36,35.69-36.44Z"/>
  <polygon class="st0" points="1141.99 1541.92 1119.71 1606.62 1083 1643.87 1060.04 1620.91 1141.99 1541.92"/>
  <path class="st0" d="M1572,1549.91c4.72-.97,3.22.61,4.49,2.58,4.31,6.69,25.83,52.4,27.04,58.89,2.02,10.84.09,25.91.48,37.51.09,2.8,4.5,15.02-1.01,15.02h-31v-113.99Z"/>
  <path class="st0" d="M1353,1133.93c-4.57-1.41-4.2-28.99-1.13-31.13l64.75,1.5,22.5,25.56-2.13,4.07h-84Z"/>
  <path class="st0" d="M1290,1007.94l-2.41,64.59c-1.35,4.55-23.36,23.54-29.59,23.41v-85l3-3h29Z"/>
  <path class="st0" d="M1493.99,1047.95c.9,3.47-1.44,4-2.98,6-4.07,5.3-12.1,13.78-16.96,19.04-12.79,13.84-26.88,26.7-41.32,38.81l-20.81-20.86,46.11-43.95,35.96.97Z"/>
  <path class="st0" d="M1447,1041.94c-5.97-1.85-1.06-14.13-.91-18.92.37-12.06-2.32-35.08.81-45.19,2.51-8.13,21-20.4,28.09-25.91l1.02,90.01h-29Z"/>
  <path class="st0" d="M1245,1001.94c-.54-.08-5.25-2.42-4.99-2.99l62.99-62.97,20.85,22.69-46.85,43.27c-10.01-1.04-22.38,1.42-32,0Z"/>
  <path class="st0" d="M1303.96,1067.95c4.43,13.84,36.36,35.77,41,46.02,4.58,10.1-3.25,26.72-.97,37.95l-63.76-61.35c-1.09-2.84.18-3.73,1.82-5.59,4.3-4.87,14.78-10.57,19.01-17l2.91-.03Z"/>
  <path class="st0" d="M1384,915.95v32l-64.13-2.87c-5.22-5.16-23.9-21.86-23.89-28.11l88.02-1.02Z"/>
  <path class="st0" d="M1453.38,963.35c-4.2,4.76-14.22,10.55-18.65,16.45-3.12.55-43.41-42.22-44.32-45.26-1.32-4.44-.84-34.68,1.61-36.58l62.17,58.97,1.26,2c-.31,1.64-.96,3.17-2.07,4.43Z"/>
  <path class="st0" d="M1835.99,1463.95l-15.7,21.31c-.41,4.82,12.84,12.43,14.78,16.69,3.54,7.76-15.65,19.4-20.07,25.92l-22.85-23.24,15.7-21.48-15.68-15.95,17.87-23.28,25.95,20.02Z"/>
  <path class="st0" d="M1405.9,385.87l-25.66,2.35c-2.63,4.14,5.66,18.83-.12,22.89l-30.12,2.88c2.82-7.33-6.26-31.22,1.28-33.72l23.84-2.15.75-25.26,31.25,1-1.23,32.02Z"/>
  <path class="st0" d="M925.74,603.69c-5.74,3.32-21.25-17.37-25.6-21l15.91-21.68-17.57-18.07,20.79-20.83,22.8,22.85-16.04,20,15.99,15.97-16.28,22.76Z"/>
  <path class="st0" d="M2012,1005.94v26.01c1.87,1.88,24.5-3.37,28,2.99v29h-34l-1.87-25.13-24.14-.86-1.99-32.01h34Z"/>
  <path class="st0" d="M727.62,986.32l2.38,25.63,23.92-1.91,2.09,31.91-32.02,2-1.99-28.02c-6.1-2.16-21.64,5.14-25.13.12l-2.04-30.24c3.26-4.48,26.64-1.09,32.78.5Z"/>
  <path class="st0" d="M1386,1635.91v32l-26.01,1.99.02,26.02c-6.31.09-12.66-.2-18.99,0-2.54.08-13.02,4.12-13.02-1.01v-31l26.01-1.99.21-23.8,31.78-2.21Z"/>
  <polygon class="st0" points="1808.98 556.33 1829 573.93 1848.72 556.11 1869.85 576.69 1847.02 599.61 1827.27 584.11 1809.28 599.82 1788.15 580.69 1808.98 556.33"/>
  <path class="st0" d="M887.29,1450.23l19.71,15.65c1.66,0,11.89-13.59,15.04-15.03,6.48-2.95,20.07,13.56,25.91,18.06l-21.23,22.85-21.44-15.71-18.27,17.82-21.12-20.93,21.41-22.72Z"/>
  <path class="st0" d="M1107.99,1971.88c-3.47.9-4-1.44-6-2.98-10.47-8.03-38.69-36.5-46.99-47.01-1.69-2.15-4.49-2.45-1.03-5.03,8.17.76,51.93-5.72,55.16-1.1l-1.14,56.11Z"/>
  <path class="st0" d="M512,1509.91v-76c4.41.24,8.72,4.28,12.03,6.97,9.76,7.95,22.17,20.46,30.04,30.02,0,3.09-20.22,22.64-24.04,26.03-4.83,4.28-12.07,10.67-18.03,12.97Z"/>
  <path class="st0" d="M1854,1879.89h-78c-.87-3.49,1.45-4,2.99-6.01,3.9-5.1,32.2-36.04,36.01-36.05l5.14,2.93c7.46,13.01,22.21,21.81,30.87,33.11,1.54,2.02,3.86,2.52,2.99,6.01Z"/>
  <polygon class="st0" points="1626 79 1630 76.98 1681.98 129.02 1667 133.99 1626 133.99 1626 79"/>
  <polygon class="st0" points="420 765.96 422.99 759.94 474.98 709.94 478 765.96 420 765.96"/>
  <polygon class="st0" points="2316 1283.95 2260.02 1339.92 2257.99 1281.92 2316 1283.95"/>
  <path class="st0" d="M2222,615.96c-5.67-4.49-42.46-35.24-41.85-38.72,12.98-14.14,26.73-27.49,41.85-39.27v78Z"/>
  <path class="st0" d="M958,169.99c.87,3.49-1.45,4-2.99,6.01-3.74,4.89-32.78,36.55-35.8,35.9-8.92-13.46-24.87-23.68-34.23-35.9-1.54-2.02-3.86-2.52-2.99-6.01h76Z"/>
  <path class="st0" d="M1801,307.98l-2.76-4.7,28.73-35.42c2.28,0,32,28.7,33.01,31.15,1.39,3.34-1.31,2.7-2.53,3.41-1.54.9-9.86,5.56-10.45,5.56h-46Z"/>
  <path class="st0" d="M2089,1453.95l34.85,29.24c-4.53,5.55-25.77,32.8-30.87,32.83-4.84.03-8.53-12.83-9.04-17.06-.83-6.98-1.11-31.68.11-38,.65-3.38,2.47-4.96,4.95-7.02Z"/>
  <path class="st0" d="M1532,1885.89c-6.4-6.32,26.75-42.32,32.9-46.1,3.66-2.25,8.1-4.57,9.07,1.08,1.03,5.96,5.23,40.12,3.71,42.68-1.44.3-3.94,2.34-4.67,2.34h-41Z"/>
  <path class="st0" d="M1156,164c8.32-.33,16.76.39,25.09.07,13.33-.51,31.39-8.86,17.82,13.83-2.46,4.11-29.75,33.49-32.05,34-9.19,2.05-8.18-40.87-10.86-47.9Z"/>
  <path class="st0" d="M506,1187.93c6.32-6.75,40.93,28.39,45.09,33.91,5.95,7.89,3.56,7.99-4.62,9.51-12.11,2.25-25.18,1.49-37.18,4.72-1.17-.17-3.3-4.83-3.3-5.14v-43Z"/>
  <path class="st0" d="M2228.01,813.94l1.99,46.01c-21.94.66-34.3-24.67-49.99-37.04-.51-2.3,1.33-3.94,3.37-4.59,4.32-1.37,43.04-5.97,44.63-4.39Z"/>
  <path class="st0" d="M641.13,532.05c13.1-2.93,6.95,49.34,10.39,56.68l-4.77,5.13-36.71-28.89,31.09-32.92Z"/>
  <path class="st0" d="M876.02,1745.94c5.2-1.03,9.52-3.5,14.97-4.05,8.71-.89,31.85-1.75,40.08-1.06,2.93.25,5.08,1.88,6.89,4.06l-28.95,36.97c-2.12.07-28.96-25.55-31.11-28.86-1.56-2.42-2.54-4.01-1.88-7.06Z"/>
  <path class="st0" d="M1082,1779.9v53l-3,3h-29c1.16-7.88-2.11-21.02,1.04-27.96.73-1.61,22.38-25.17,23.87-26.13,2.46-1.59,3.99-2.45,7.1-1.9Z"/>
  <path class="st0" d="M630,1353.92c.87,3.49-1.44,4-2.99,6.01-3.43,4.48-33.43,34.06-36.01,34.06l-22.96-21.07c6.43-5.71,15.82-19,24.96-19h37Z"/>
  <path class="st0" d="M1038,287.98c-1.66,2.28-40.07-35.49-40.07-39l19.1-23.03c4.23,0,20.97,18.52,20.97,23.03v39Z"/>
  <path class="st0" d="M1717.96,1823.9l-19.55-19.41-2.4-42.58c3.11-.58,4.63.3,7.09,1.9,2.99,1.94,34.33,32.93,34.76,35.37l-19.89,24.73Z"/>
  <path class="st0" d="M2143.27,654.11c2.03-.36,19.02,16.13,20.85,18.79,3.45,5.02-6.77,14.05-11.12,17.06-9.74,6.75-34.45,4.37-47.04,5.03-3.46-2.58-.66-2.88,1.03-5.03,9.75-12.37,25.5-23.92,36.28-35.85Z"/>
  <path class="st0" d="M2178,1309.92l2,31.99c-7.88-1.13-21.13,2.11-27.97-1.03-2.75-1.26-28.08-24.71-29.06-26.96l2.02-4h53Z"/>
  <path class="st0" d="M612,737.96h-56v-32c7.44,1.06,19.37-1.99,25.96,1.04,4.02,1.85,23.75,20.64,27.05,24.95,1.54,2.02,3.86,2.52,2.99,6.01Z"/>
  <path class="st0" d="M1654,213.99l31.99-2c-1.2,8.74,2.6,21.32-1.88,29.11-.88,1.53-22.21,24.45-24.1,25.9-2.01,1.54-2.51,3.86-6.01,2.99v-56Z"/>
  <path class="st0" d="M1418,1045.96l-24.77,25.88c-28.93-34.15-9.97-40.18,24.77-25.88Z"/>
  <path class="st0" d="M1316.01,1043.93c1.57-7.21-5.99-30.82-.07-35.14,44.82,3.66,34.33,24.36.07,35.14Z"/>
  <path class="st0" d="M1373.48,1048.46c3.85,3.19,10.71,22.24,14.52,27.45l-36.01,2.02c.11-11.07,5.17-42.97,21.48-29.47Z"/>
  <path class="st0" d="M1318,1003.92c-3.64-4,19.95-24.27,23-27.95,27.87,33.19,13.44,41.18-23,27.95Z"/>
  <path class="st0" d="M1384,971.94l-6.95,28.05c-2.27,3-12.53,3.08-15.24.65-3.25-2.9-13.11-23.37-13.81-28.7h36Z"/>
  <path class="st0" d="M1420,1003.94v36c-46.16-3.28-34.06-24.28,0-36Z"/>
  <path class="st0" d="M1345.98,1075.93l-25.89-25.12c-.69-3.09,19.88-14.73,23.09-14.91,19.36-1.13,4.85,30.82,2.8,40.04Z"/>
  <path class="st0" d="M1388.01,973.95c3.01-2.73,24.23,22.35,27.95,24.99l-25.33,14.68c-19.17-6.92-2.63-25.57-2.62-39.68Z"/>
</svg>