<?xml version="1.0" encoding="UTF-8"?>
<svg id="Untitled_185_xA0_Image" xmlns="http://www.w3.org/2000/svg" version="1.1" viewBox="0 0 2732 2048">
  <!-- Generator: Adobe Illustrator 30.2.1, SVG Export Plug-In . SVG Version: 2.1.1 Build 1)  -->
  <defs>
    <style>
      .st0 {
        fill: #62b2a4;
      }
    </style>
  </defs>
  <path class="st0" d="M1938,1259.99c.1-2.24.39-3.99-.93-6.05-2.95-4.63-59.95-26.41-70.89-33.11-10.27-6.29-49.65-44.54-53.27-54.73s-5.97-42.63-6.89-55.11c-6.25-84.98,4.59-170.7-5.35-255.7-.27-9.85,17.58-17,24.53-11.47,7.55,6,4.89,68.38,4.87,81.27-.05,42.93-1.26,86.59-.16,130,2.04,80.85-6.19,116.88,74.72,155.28,25.43,12.07,73.76,21.22,69.4,58.69-2.5,21.45-37.85,22.47-47.77,3.7-6.33-11.97.42-13.96,11.73-12.75Z"/>
  <path class="st0" d="M1601.99,454.01c-2.79-.64-3.3.4-5.05,1.93-8.95,7.82-22.7,51.54-30.59,65.41-7.3,12.83-44.92,53.12-58.29,57.71-11.41,3.93-41.75,5.94-55.08,6.92-55.96,4.08-110.74-1.64-166.06-.06-29.08.83-58.85,5.63-87.95,5.68-11.84.02-18.26-19.61-12.49-25.13,9.98-9.54,95.28-2.25,114.62-2.37,36.2-.22,73.64-3.34,109.82-4.18,39.72-.93,73.82,8.03,107.78-20.22s45.32-107.92,76.5-119.5c40.44-15.01,41.18,40.08,18.87,46.96-10.16,3.13-13.18-4.05-12.09-13.16Z"/>
  <path class="st0" d="M1128.01,456.01c-5.2,6.04,24.08,65.82,25.82,79.16,1.71,13.15,3,38.71,2.25,51.91-1.53,26.95-17.34,42.08-34.14,61.87-40.07,47.19-87.31,87.31-130,132-16.26,17.03-32.79,40.54-49.85,56.13-9.83,8.99-28.29-1.38-25.74-11.56s23.4-26.12,30.7-33.47c52.04-52.37,105.81-104.11,155.98-158.02,36.69-39.43,32.1-75.74,15-123.06-8.55-23.66-26.77-48.67-16.97-74.91,12.17-32.6,53.01-12.9,46.88,18.89-1.02,5.26-5.06,8.28-10.51,6.77-3.57-.99-4.71-6.66-9.41-5.71Z"/>
  <path class="st0" d="M1602.05,1593.98l5.03-1.95c4.18-6.31-25.02-66.86-26.91-81.2-1.8-13.6-2.15-61.03,2.98-72.68,3-6.81,24.59-31.65,30.9-39.1,56.05-66.18,125.48-120.23,179.82-188.18,4.74-6.53,22.1.79,23.81,6.54,3.94,13.27-22.49,32.26-30.73,40.53-51.51,51.65-104.06,103.05-153.98,156.02-38.61,40.98-32.82,77.62-15.01,127.06,8.4,23.33,25.92,47.17,15.51,73.44-12.73,32.11-55.86,7.21-46.59-20.59,2.93-8.78,13.27-9.91,15.16.1Z"/>
  <path class="st0" d="M798.01,1263.99c4.13.39,8.04-.05,12.09-.89,20.57-4.29,46.63-22.12,67.08-24.92,12.62-1.73,39.02-2.85,51.91-2.26,5,.23,18.71,1.75,22.84,3.16,6.97,2.38,42.05,32.84,50.1,39.9,56.41,49.43,108.49,108.24,163.95,160.05,10.04,9.38,26.55,13.49,13.78,31.73-7.21,10.3-16.54,2.05-23.78-3.73-33.06-26.38-69.15-72.01-100.92-103.08-25.37-24.81-56.64-56.31-83.02-78.98-40.94-35.17-76.68-25.51-123.06-9.01-22.84,8.12-51.52,27.82-75.98,12.05-29.77-19.19,9.19-60.91,32.13-37.99l-7.1,13.96Z"/>
  <path class="st0" d="M1559.33,574.31c8.4-2.79,14.75,3.87,20.7,8.66,33.07,26.64,68.99,71.88,100.92,103.08,12.04,11.76,26.75,23.34,39.08,34.92,36.62,34.39,58.59,72.89,116.73,66.78,35.64-3.74,77.42-35.21,110.26-31.75,26.92,2.83,35.37,30.83,11.99,46.01-15.24,9.89-41.23.39-21.05-15.01-1.54-1.9-2.32-2.82-4.93-3.07-12.56-1.21-60.31,25.57-80.24,27.86-15.53,1.78-58.93,2.71-72.21-3.36-6.87-3.14-25.62-19.52-32.61-25.39-61.86-51.98-118.29-116.33-177.94-172.06-5.04-4.71-20.21-12.59-19.56-19.64.25-2.72,6.21-16.14,8.86-17.02Z"/>
  <path class="st0" d="M1132.01,1595.99c2.96.77,3.3-.69,5.04-1.94,10.54-7.59,25.02-58.37,36.07-73.93,5.85-8.23,24.92-28.04,32.85-35.15,25.83-23.21,52.34-19.16,85.01-20.99,81.08-4.55,162.91,1.28,244.04-6.18,10.5-1.13,17.12,13.36,14,22.2-2.9,5.95-25.19,8.09-32,8.14-71.73.51-144.56-1.58-216.05-.13-32.98.66-57.14-.71-84.49,21.48-34.23,27.77-45.23,106.89-76.5,119.5-38.29,15.45-42.9-38.77-20.1-46.1,12.14-3.9,13.14,2.46,12.12,13.1Z"/>
  <path class="st0" d="M796.01,790.01c-.73,4.59,3.65,6.39,6.6,8.38,18.13,12.24,47.63,17.81,67.26,30.74,10.31,6.79,48.28,43.61,52.08,53.92,2.84,7.68,5.17,34.21,6.03,43.97,5.73,65.25.61,134.23,1.94,200.06.41,20.23,3.9,43.77,4.25,63.92.26,15.04-21.3,22.32-26.69,10.52-1.24-2.72-3.59-22.44-3.62-26.5-.52-72.38,1.93-145.71.24-217.95-.77-32.89.64-54.29-20.11-82.07-27.14-36.32-94.85-41.2-115.98-70.02-14.92-20.36-8.03-42.47,19.01-41.94,19.23.38,37.25,29.43,8.99,26.96Z"/>
  <path class="st0" d="M1581.42,540.38c3.01-.9,6.13-.65,9.14.02,14.62,3.29,62.97,67.13,81.53,76.51,35.19,35.07,99.1,117.94,147.42,124.58,55.56,7.63,125.67-57.4,169.51-11.51,8.37,8.76,25.78,27.35,9.49,35.53-17.82,8.95-18.04-22.05-39.65-25.38-60.9-9.37-117.63,64.19-183.82,13.82-30.71-23.37-56.73-58.97-84.06-85.94-32.44-32.02-80.13-69.16-108.01-103.99-4.76-5.95-13.18-20.18-1.56-23.64Z"/>
  <path class="st0" d="M760.67,1301.33c3.23,3.2,12.25,7.4,16.81,8.19,31.04,5.4,72.84-20.79,102.92-28.12,69.37-16.89,95.89,30.61,138.55,72.65,26.97,26.58,53.81,54.13,81,81,11.24,11.11,57.93,50.47,59.71,62.43,2.35,15.83-13.58,13.64-23.67,5.54-21.83-17.52-52.17-50.16-73.05-70.95-38.15-38-99.79-120.25-154.14-125.84-53.41-5.49-118.64,62.2-164.73,10.71-8.38-9.36-25.46-27.88-6.16-34.06,14.95-4.79,15.2,10.96,22.78,18.45Z"/>
  <path class="st0" d="M1297.63,1502.53c6.92-.12,11.77,1.62,17.28,1.56,62.08-.69,124.03-1.62,186-2.17,11.89-.11,43.94-1.69,53.03,3.14,10.53,5.6,6.41,19.42-6.91,20.98-25.39,2.97-61.34-.26-88.12-.12-10.45.06-22.36,2.16-34.01,2.18-56.67.1-152.27-18.98-192.86,30.95-31.28,38.48-35.75,116.12-99.13,113.03-4.66-.23-24.4-2.87-26.93-5.06-5.23-4.52-1.9-21.57,6.97-22.17s17.46,5.79,31.1,2.21c26.76-7.02,47.57-75.38,61.55-98.45,22-36.27,51.07-45.37,92.02-46.08Z"/>
  <path class="st0" d="M1849.52,1234.49c2.81,4.89,4.1,11.7.58,16.62-32.43,31.6-63.12,64.84-95.05,96.94-33.52,33.7-97.83,80.24-104.54,129.47-8.38,61.51,72.65,141.21-7.13,182.87-8.94,4.67-14.22,3.74-17.85-6.94-5.52-16.21,14.46-13.65,22.16-26.75,18.24-31.03-19.73-90.68-25.45-123.94-6.45-37.5,5.16-59.35,29.7-85.81,37.13-40.04,80.55-79.81,119.11-118.89,11.9-12.06,55.49-61.75,66.87-65.25,4.18-1.28,7.98-.81,11.6,1.68Z"/>
  <path class="st0" d="M1629.52,382.47c4.22,4.02.37,18.22-3.49,20.6-5.37,3.31-19.74-4.28-30.14-2.19-39.41,7.9-53.65,94.41-85.22,122.8-32.75,29.46-68.54,20.17-107.58,20.23-66.91.1-146.52,8.14-212.19,2.19-21.64-1.96-20.61-21.78,2.09-24.11,40.13-4.12,96.22-.2,138.09-.07,52.85.17,135.93,14.7,172.92-32.92,23.16-29.82,40.04-109.99,85.05-113.06,5.59-.38,37.52,3.72,40.47,6.53Z"/>
  <path class="st0" d="M885.54,1213.54c-2.49,2.56-10.18,3.34-13.54,1.5-4.08-3.08-5.47-7.08-6.05-11.99-2.9-24.85.28-59.92.13-86.13-.07-11.1-2.16-23.7-2.18-36.01-.1-54.1,16.66-147.05-25.86-187.95-27.18-26.15-109.49-43.06-117.59-82.41-2.73-13.29-3.04-60.22,20.11-48.11,12.15,6.35,1.09,22.59,3.89,36.11,6.34,30.63,78.76,50.55,104.17,67.82,31.75,21.57,38.13,44.01,39.38,80.6,2.4,69.81,1.07,141.55,2.07,211.94.15,10.38,1.59,48.33-4.54,54.62Z"/>
  <path class="st0" d="M929.31,753.31c17.15-17.83,34.17-35.8,51.64-53.36,36.49-36.69,108.34-87.63,105.04-144.89-2.46-42.82-53.14-109.73-18.09-148.15,8.65-9.48,35.49-32.54,41.16-10.95,4.18,15.92-12.89,13.78-20.74,25.37-21.6,31.92,21.91,95.6,25.43,131.92,3.32,34.3-6.99,52.63-28.73,76.78-23.56,26.17-54.15,51.51-79.08,76.92-28.69,29.26-63.34,72.94-93.93,98.07-11.22,9.22-30.49,21.84-29.21-3.09,13.31-14.58,26.48-29.83,40.11-44.06,1.96-2.04,4.74-2.86,6.38-4.57Z"/>
  <path class="st0" d="M1855.42,832.27c9.38-2.38,14.69,11.11,14.55,18.75-.57,45.99.27,92,.11,138.05-.18,49.49-11.43,109.28,16.31,153.52,26.95,42.99,111.3,45.66,127.15,94.85,3.25,10.1,1.61,35.17-2.01,45.08-3.74,10.25-23.58,5.84-23.66-5.46-.06-7.8,5.48-12.22,3.67-23.58-5.85-36.53-86.86-54.33-114.47-77.55-40.81-34.32-28.94-76.7-28.96-123.04-.03-64.25-8-140.84-2.19-204,.52-5.65,3.23-15.04,9.52-16.63Z"/>
  <path class="st0" d="M885.99,400.01l.29-18.73c2.27-6.95,33.01-1.85,40.14-.7,68.9,11.17,117.82,63.08,134.23,129.77,13.92,56.55-2.98,94.82-44.7,132.75-6.04,3.01-19.07-12.42-17.73-17.69.73-2.84,9.87-9.86,12.62-13.58,49.2-66.36,26.46-137.34-33.89-185.77-27.25-21.87-56.36-27.3-90.95-26.05Z"/>
  <path class="st0" d="M1719.43,1406.28c1.74-.48,3.4-.63,5.13,0,20.74,17.45,8.69,18.08-1.39,31.89-47.68,65.27-25.27,136.41,33.89,183.77,25.36,20.3,43.82,25.12,76.27,27.32,4.47.3,9.6-3.44,13.88.6,2.62,5.27,5.06,17.5-1.78,20.71-2.31,1.09-24.35-.14-28.41-.6-22.57-2.55-46.09-11.01-65.64-22.36-60.87-35.35-104.8-134.01-68.27-199.49,3.67-6.57,31.04-40.38,36.32-41.84Z"/>
  <path class="st0" d="M1750.61,675.41c-7.75-7.07,8.43-20.07,14.28-19.52,2.52.24,32.67,24.23,41.76,28.47,87.64,40.85,195.38-46.86,185.58-140.11,22.33-5.21,22.74-.25,21.75,20.74-3.79,80.33-72,148.84-151.22,156.77-49.7,4.98-78.3-12.86-112.14-46.35Z"/>
  <path class="st0" d="M2153.59,1128.45c3.24,1.88,12.12,13.02,7.4,17.55-11.61,8.77-20.67,18.89-33.15,26.84-57.91,36.9-126.62,31.34-183.69-4-46.8-28.98-61.35-69.25-57.88-123.57l3-3c1.77-.58,3.8-.22,5.63-.38,20.97-1.84,13.88,4.72,15.56,16.44,11.9,82.97,68.94,119.32,150.62,113.73,31.58-2.16,47.83-11.25,71.86-30.14,4.91-3.86,13.66-17.54,20.65-13.49Z"/>
  <path class="st0" d="M1347.71,1567.72c-43.09.06-79.77,14.25-104.53,50.46-36.9,53.97-31.88,128,10.83,176.81,6.93,7.92,18.97,11.13,1.08,23.12-7.22,4.84-16.38-7.91-21.03-13.18-58.14-65.81-50.93-186.54,20.07-239.81,27.57-20.68,57.4-21.21,90.43-22.86,8.3,2.19,6.06,19.23,3.16,25.44Z"/>
  <path class="st0" d="M1386.41,482.44c4.47-3.68,9.51-.01,14.27-.59,91.87-11.22,132.66-93.48,109.63-179.14-6.5-24.17-24.44-41.46-40.36-59.71,12-20.21,17.47-13.71,30.01.06,52.29,57.42,52.07,136.73,13.67,201.56-22.96,38.77-54.76,59.47-100.53,61.47-21.68.94-35.01,3.48-26.68-23.65Z"/>
  <path class="st0" d="M579.31,916.71c-4.1-3.51-8.94-3.4-6.53-10.79,2.12-6.5,34.34-30.01,41.87-34.27,47.02-26.56,89.79-26.12,139.76-9.07,47.78,16.3,88.38,51.75,93.55,104.45.4,4.11,1.71,33.32,1.23,35-2.97,10.27-17.1,5.31-24.31,2.09.59-92.82-78.91-140.6-165.37-125.6-24.31,4.22-39.77,14.43-58.45,29.55-4.32,3.5-12.6,15.39-17.87,13.84-2.03-.6-2.5-4.01-3.88-5.18Z"/>
  <path class="st0" d="M802.81,1380.82c-36.38,27.93-57.84,61.94-60.06,108.52-.53,11.12,7.15,18.3-11.84,16.8-5.07-.4-8.53-.07-10.05-6.06-.42-1.65.81-21.61,1.17-25.05,3.02-29.25,15.71-59.41,33.15-82.86,36.47-49.03,126.72-83.57,184.18-54.52,9.29,4.7,39.84,28.93,44.75,37.24,3.02,5.1,2.86,6.82-1.07,11.17-13.83,15.33-15.7,3.98-26.38-3.71-48.53-34.98-104.74-39.23-153.84-1.52Z"/>
  <path class="st0" d="M1531.5,1420.51c2.96,2.85,7.9,16.64,6.24,21.24-.72,1.16-21.26,4-24.77,4.23-46.75,3.11-98.12-3.51-146.06-2.06-25.17.76-59.4,1.77-83.9,4.1-23.05,2.19-33.14,9.46-59.51,3.47-25.59-5.81-14.69-13.12-13.5-33.5,10.67.31,20.33,5.19,30.92,6.09,73.1,6.18,154.05-7.79,228.15-1.99,17.05-1.59,34.95-3.54,52.01-4.15,3.07-.11,8.2.46,10.41,2.58Z"/>
  <path class="st0" d="M973.84,868.18c-8.7,38.61-6.3,79.29-5.93,118.92.05,5.71,2.13,10.62,2.18,15.82.5,59.42-2.17,118.97,4.1,178.1,1.59,6.55-15.13,15-19.23,14.93-7.85-.12-8.46-18.5-8.93-24.97-3.4-46.26,3.49-98.4,2.06-146.06-1.1-36.95-6.07-73.83-9.87-110.13-1-9.54.98-43.35,8.64-48.94,5.9-4.31,19.81,1.09,26.99,2.33Z"/>
  <path class="st0" d="M1541.38,610.19c4.84-1.19,28,20.29,32.65,24.79,31.74,30.69,60.7,64.7,92.92,95.08,26.34,24.84,54.62,46.92,82.1,69.9,8.09,6.76,27.2,27.48,28.67,37.54,1.01,6.92-19.29,20.54-23.77,17.63-1.28-.83-8.89-16.08-12-20.07-10.97-14.08-26.61-26.4-39-39-48.57-49.37-98.28-97.71-148.92-145.08-15.03-14.07-33.76-17.33-12.65-40.79Z"/>
  <path class="st0" d="M1200,637.97c-9.45,2.71-19.63,9.52-27.04,15.98-41.23,35.98-86.24,86.77-125.01,126.99-24.18,25.09-47.7,51.11-70.85,77.18-4.12,4.2-20.6-1.78-23.31-5.01-4.03-4.82,5.78-15.08,9.18-19.14,29.74-35.55,71.68-67.46,104.05-101.95,26.26-27.97,50.72-57.93,74.15-87.85,6.42-8.2,31.33-30.7,41.54-29.67,6.52.66,14.52,17.27,17.28,23.46Z"/>
  <path class="st0" d="M1759.44,1190.38c23.29.88,28.82,4.93,13.59,23.65-29.23,35.92-73.5,69.17-106.05,103.95-26.24,28.03-50.04,58.38-74.14,87.86-6.74,8.24-34.3,33.63-44.83,27.18-3.72-2.28-9.03-16.66-13.97-20.01,9.11-6.3,18.31-9.56,27.01-16.95,40.53-34.39,87.11-87.58,125.01-126.99,24.83-25.82,48.43-52.96,73.38-78.67Z"/>
  <path class="st0" d="M977.15,1192.1c3.38-.78,16.51,24.1,20.86,28.88,53.98,59.27,124.56,122.6,183.95,178.05,4.99,4.65,18.99,12.26,20.02,18.04,1.06,5.95-2.54,19.21-7.99,22.1-3.74,1.99-20.4-12.92-24.04-16.13-34.56-30.62-67.38-71.56-101.94-104.06-25.24-23.72-52.56-45.26-79.03-66.97-8.62-7.07-32.65-31.92-31.07-42.9.42-2.9,16.96-16.48,19.22-17Z"/>
  <path class="st0" d="M1523.98,632.01c-10.98-2.24-22.16-7.1-33.55-7.46-80.99-2.54-165.9,1.11-247.52,3.37-23.23.64-41.99,13.91-46.84-18.71,1.16-3.76,12.97-4.95,16.85-5.28,45.02-3.85,91.25,3.35,136.15,2.15,41.92-1.12,84.79-6.44,125.94-10.06,9.31-.82,47.13-.06,52.02,7.94,3.81,6.25-3.16,20.62-3.05,28.05Z"/>
  <path class="st0" d="M1760,1181.99c1.45-10.95,7.02-22.41,7.46-33.54,3.12-78.22-1.03-168.14-3.38-247.53-.33-11.28-7.99-34.83,2.06-41.79,16.05-11.13,20.48-4.79,21.93,11.8,3.88,44.33-3.33,89.92-2.15,134.15,1.14,42.58,6.38,86.14,10.06,127.94,1.03,11.66.58,33.43-3.84,44.13-6.86,16.62-19.07,2.42-32.15,4.84Z"/>
  <path class="st0" d="M2186.7,909.3c41.28,42.67,56.56,91.18,51.04,151.44-1.44,15.69-22.93,86.29-35.77,92.24-8.07,3.74-17.86-4.1-17.83-11.98.02-5.34,15.01-27.72,18.25-35.62,25.58-62.52,15.35-138.4-37.43-183.34-12.77-10.87-32.1-19.94-43.97-30.02-10.53-8.94-.16-14.88-.99-26.03,28.67,3.01,48.06,24.05,66.7,43.31Z"/>
  <path class="st0" d="M859.52,344.53c10.26-1.32,17.71-.53,16.46,12.28-1.33,13.57-31.4,15.67-43.37,20.81-47.48,20.4-78.07,51.98-94.66,101.34-13.24,39.4-5.09,70.45,3.5,109.79-.69,6.63-13.01,11.22-18.23,15.17-19.31-24.11-19.84-67.23-17.3-96.98,6.05-70.74,83.12-153.33,153.59-162.4Z"/>
  <path class="st0" d="M1495.4,188.57c6.21,7.26-1.78,19.04-10.35,19.22-8.35.18-24.13-12.98-33.08-16.76-50.72-21.46-95.1-20.89-144.69,3.26-36.9,17.97-52.76,46.55-74.51,79.52-7.94,5.2-15.68-3.74-24.77-1.82,3.2-15.06,11.63-31.69,21.17-43.82,55.48-70.56,143.65-93,227.36-59.69,6.86,2.73,35.29,15.9,38.87,20.09Z"/>
  <path class="st0" d="M615.99,1184c-51.74-12.29-95.58-64.39-111.01-113.98-7.62-24.48-10.55-63.62-6.73-88.78,2.17-14.29,24.28-83.71,37.17-86.97,29.41,7.02,7.14,27.22.21,42.36-27.11,59.21-22.21,139.08,27.7,185.04,7.79,7.18,52.23,35.36,53.69,38.31,3.43,6.92-2.59,16.26-1.03,24.02Z"/>
  <path class="st0" d="M2011,1444.03c9.35,9.85,14.34,26.34,16.49,39.48,14.02,85.58-30.05,167.77-108.1,204.89-9.52,4.53-47.32,20.65-55.39,16.65-17.4-25.51,18.33-25.92,35.36-32.68,62.86-24.97,109.55-85.71,104.61-155.33-.96-13.48-11.43-48.76-10-57.93,1.2-7.66,12.97-8.5,17.03-15.07Z"/>
  <path class="st0" d="M695.48,1516.31c17.33-3.09,20.5,31.69,26.15,45.06,20.13,47.66,54.54,78.37,103.81,94.19,37.29,11.97,70.22,2.56,107.16-5.23l15.36,18.68c-.02,5.57-40.62,16.1-47.21,16.76-90.22,9.04-166.85-36.95-201.69-119.82-3.37-8.03-15.28-37.43-12.14-43.91,2.03-2.42,5.47-5.16,8.56-5.71Z"/>
  <path class="st0" d="M1526.01,1776c4.75,4.65-14.12,37.08-18.36,42.66-61.61,81.09-171.94,100.18-258.99,47.68-7.09-4.28-12.34-5.23-10.29-14.88,4.75-22.4,37.73,3.37,49.1,8.07,59.63,24.64,138.19,15.7,181.36-35.69,5.98-7.12,30.65-47.29,33.18-48.82,6.03-3.66,16.76,2.68,24,.99Z"/>
  <path class="st0" d="M1788.01,378.04c12.11-5.67,25.82-11.74,39.2-13.83,96.76-15.08,184.91,42.81,214.83,134.75,2.47,7.59,11.32,27.47,1.98,32.04-21.56,10.55-22.67-23.39-27.63-36.38-19.29-50.57-56.17-86-108.47-101.53-36.52-10.84-68.65-1.72-104.8,4.93-5.38.55-16.12-18.54-15.1-19.98Z"/>
  <path class="st0" d="M2044.62,1552.58c4.36-5.31,14.16-4.9,20.47-4.65,13.77.56,37.47,4.09,51.66,6.32,17.34,2.73,31.24,5.9,31.43,26.75.16,17.41-17.69,68.51-33.44,76.73-9.12,4.76-29.82-4.07-39.77-7.7-8.31-3.03-45.24-18.12-47.97-24.08-2.79-6.1,1.41-19.67,8.47-21.63,13.6-3.78,51.25,15.5,65.51,13.79,3.87-.47,9.78-13.57,10.61-17.57,5.94-28.75-49.23-20.83-64.36-30.76-5.69-3.73-6.83-12.05-2.6-17.2Z"/>
  <path class="st0" d="M1467.33,1878.33c8.97-3.13,15.85,1.75,21.71,7.64,6.95,6.99,38.83,47.54,42.69,55.31,13.61,27.4-33.41,49.01-54.16,55.28-15.51,4.69-29.79,9.95-39.94-5.18-6.21-9.26-30.81-65.99-29.67-74.28,1-7.26,15.31-13.2,22.02-10.1,3.44,1.59,10.28,13.21,12.88,17.15,4.22,6.41,18.88,35.66,22.01,38,6.01,4.5,26.97-5.45,28.76-11.6,5.01-17.18-22.06-39.15-28.59-54.57-2.21-5.22-5.2-15.05,2.31-17.66Z"/>
  <path class="st0" d="M2254.5,981.47c-1.35-1.29-5.8-12.53-5.72-14.5.47-11.65,48.13-33.73,58.38-40.93l.58-2.66c-9.01-26.19-13.05-32.72-38.8-17.43-9.29,5.51-39.45,35.44-47.97,18.06-3-6.85,1.4-15.02,6.03-20s47.86-38.06,54.36-41.64c12.03-6.63,21.51-6.26,31.71,3.56,13.58,13.08,35.98,62.28,30.03,80.2-1.67,5.03-26.68,17.86-33.14,20.84-8.04,3.71-36.32,15.58-43.49,16.65-3.74.56-9.14.56-11.98-2.14Z"/>
  <path class="st0" d="M1269.52,169.52c-8.28,8.28-19.9-2.2-25.47-8.57-6.53-7.45-38.09-47.14-40.49-53.51-7.7-20.41,7.02-31.21,22.4-40.48,14.45-8.7,56.02-28.53,68.95-12.88,2.81,3.4,13.08,23.39,15.45,28.55,4.15,9.04,17.13,42.28,15.63,50.29-1.27,6.76-13.43,11.81-19.44,9.6-11.31-4.17-28.95-47.47-38.57-57.66-1.94-1-19.58,6.31-21.96,8.17-22.5,17.56,39.72,60.26,23.49,76.49Z"/>
  <path class="st0" d="M1997.29,272.71c5.82,6.39,5.29,11.4,3.8,19.4-1.79,9.56-24.5,67.96-30.28,71.68-6.11,3.93-20.34,1.12-22.48-5.1-5.32-15.47,12.62-52.15,13.84-69.43-9.55-3.42-19.46-12.19-29.66-7.75-19.03,8.29-7.94,68.7-29.51,68.7-9.19-.54-13.19-10.84-13.05-19.11.21-12.9,5.69-50.36,8.61-63.55,3.4-15.34,9.23-23.72,26.45-23.72,16.78,0,60.98,16.45,72.29,28.88Z"/>
  <path class="st0" d="M785.48,1688.5c8.7,9.01-12.86,58.65-11.62,72.3,45.53,27.19,36.91-19.44,45.11-46.82,7.76-25.91,26.34-17.29,25,9.01-.72,14.2-5.04,52.43-8.86,65.13-5.34,17.76-21.77,17.55-37.59,15.37-15.59-2.15-62.43-20.1-65.17-37-.72-4.46,7.89-31.14,10.1-37.04,3.09-8.21,15.29-36.44,19.82-42.17,5.94-7.52,17.86-4.32,23.21,1.21Z"/>
  <path class="st0" d="M481.53,1068.47c3.72,3.72,5.77,16.13,1.85,20.95-7.45,9.16-52.53,28.7-55.03,32.93,8.08,66.16,52.12-1.6,74.7-2.51,15.74-.64,13.4,17.47,3.93,26.14-6.72,6.16-49.66,39.5-55.83,42.18-5.65,2.45-13.67,2.9-19.68,1.35-17.57-4.54-40.49-59.89-41-77.06s21.42-24.1,34.8-30.17c10.29-4.67,48.16-21.89,56.25-13.81Z"/>
  <path class="st0" d="M623.46,390.38c9.17-1.97,32.91,6.96,42.51,10.66,7.89,3.04,38.54,16.6,41.84,22.27,3.46,5.95-1.42,18.56-7.19,20.3-15.29,4.61-50.48-11.63-67.3-13.41-32.41,45.91,20.6,38.1,47.11,46.39,21.04,6.58,14.02,24.88-5.3,25.5-18.95-7.07-74.25-2.28-84.91-19.29-3.16-5.04-2.9-19.56-2.23-25.8,1.57-14.62,20.07-63.29,35.48-66.61Z"/>
  <path class="st0" d="M1182,304.01c-19.56-1.12-54.28-8.54-67.99,9-7.18,9.19-10.33,24.16,1.87,30.11,9.41-.23,20.47,2.62,29.21,2.96,8.58.33,19.76-5.77,28.8,1.03,5.1,3.84,5.75,18.86,1.61,22.41-2.41,2.06-56.03,10.66-62.51,10.67-8.53,0-28.44-1.68-32.78-9.41-5.85-10.43-2.36-18.36-2.23-27.8.21-15.7-1.07-53.86,12.13-63.85,18.53-14.04,51.01-3.08,72.9-1.14,5.32.47,13.32-1.14,17.69.3,7.48,2.48-1.02,19.32,1.29,25.72Z"/>
  <path class="st0" d="M2029.47,734.47c14.4-2.6,61.2.93,75,6.05,26.17,9.71,11.48,57.45,9.54,78.49-.46,4.99,1.61,17.68-1.89,20.11l-23.27-.99c-.85-19.05,8.18-55.22-10.19-67.81-10.39-7.12-23.27-9.68-30.26,3.09,1.02,9.75-2.16,20.65-2.41,29.59-.24,8.39,5.42,15.76-.24,25.76-3.79,6.71-18.54,7.55-22.82,3.3-2.94-2.93-11.16-55.56-11.09-63.08.05-4.49,2.19-20.75,3.66-24.46,2.11-5.33,8.47-9.05,13.96-10.04Z"/>
  <path class="st0" d="M985.26,1669.17c1.23-.96-.12-5.36,4.79-2.22,6.7,4.29,18.3,22.02,26.9,29.1,12.33,10.15,23.6,16.44,38.96,6.87,37.48-23.36-66.34-59.11-15.01-79.02,2.93.3,43.46,29.68,48.15,34.06,14.57,13.6,26.31,25.46,12,44.09-6,7.81-42.5,39.23-50.93,43.07-33.71,15.37-55.09-42.75-77.19-59.16-3.19-6.91,7.62-13.1,12.33-16.79Z"/>
  <path class="st0" d="M1693.43,300.4c6.35-.87,17.7,4.29,22.61,8.56l47.47,58.07-18.22,14.76c-15.75-16.22-42.73-55.55-68.31-33.8-5.75,4.89-8.71,10.09-5.49,17.49,1.01,2.32,15.39,18.4,18.41,21.62,5.22,5.57,18.5,12.2,19.78,20.35.94,6.01-9.52,17.91-14.69,17.89-2.85-.01-42.38-28.13-47.02-32.31-6.04-5.46-21.72-22.4-21.7-30.03.02-10.36,10.88-19.32,17.69-26.02,8.29-8.16,39.53-35.21,49.46-36.57Z"/>
  <path class="st0" d="M2023.49,1284.48c4.22-1.12,8.49-.9,12.63.41,11.09,3.52,55.62,55.64,55.6,68.1-.03,21.36-30.09,37.27-44.67,49.05-5.54,4.48-15.32,18.07-22.1,17.9-4.89-.84-15.79-14.75-14.78-18.6,17.36-13.36,57.85-45.4,32.68-69.22-20.36-19.26-42.64,29.51-56.3,33.52-7.53,2.21-19.62-5.8-20.22-12.99-.65-7.76,46.57-65.37,57.15-68.19Z"/>
  <path class="st0" d="M709.01,628.67c4.79-.29,14.32,13.64,16.91,18.12-18.39,14.44-58.11,44.54-33.96,70.24,18.43,19.6,43.19-29.18,59.5-34.77,5.67-.8,16.41,8.49,16.4,14.75-8.19,16.04-44.19,69.5-62.65,68.91-10.64-.34-30.93-23.25-38.24-31.89-16.84-19.9-34.29-38.02-12.05-62.1,8.9-3.56,50.48-43.03,54.09-43.25Z"/>
  <path class="st0" d="M1552.29,1769.71l-.29-23.7c20.74-.28,59.38,9.11,71.74-13.27,23.83-43.15-47.86-22.98-61.74-29.73-6.32-3.07-3.79-16.64-3.73-22.74,1.51-2.33,48.15-9.94,54.66-10.35,44.33-2.77,47.09,4.62,45.06,47.06-.49,10.23-2.2,29.61-4.9,39.1-9.23,32.42-46.49,18.36-70.11,15.94-10.14-1.04-21.07,2.09-30.69-2.31Z"/>
  <path class="st0" d="M646.01,1209.99c-.95,22.89-9.92,69.82,23.19,73.86s12.32-48.14,19.79-63.86c3.28-6.9,20.04-8.38,23.97-1.96,1.57,2.57,8.54,43.18,9,49,1.92,24.17,3.9,48.77-26.98,48.95-12.82.07-39.12-1.9-51.77-4.21-41.1-7.5-26.4-41.51-23.25-70.81.87-8.09-1.31-17.8.48-25.52,3.18-13.69,15.55-3.12,25.57-5.46Z"/>
  <path class="st0" d="M1545.48,1792.33c12.41-2.44,52.07,18.06,63.86,25.33,12.54,7.74,19.4,13.49,14.76,29.45-4.24,14.57-24.09,50.56-35.03,60.96-19.19,18.24-43.19-14.29-58.09-26.04-5.14-4.05-25.19-14.16-26.72-19.43,5.41-44.27,56.93,16.08,73.69,8.39,15.31-7.03,10.73-22.53.07-32-7.76-6.9-43.67-22.65-45.08-24.93-4.61-7.47,4.71-20.18,12.54-21.72Z"/>
  <path class="st0" d="M940.99,1691.03c4.06,0,7.95,1.25,11.17,3.82,9.26,7.4,28.8,64.3,27.74,75.9-.75,8.21-4.98,12.49-11.8,16.36-13.86,7.85-62.05,22.5-76.21,17.99-16.57-5.28-12.37-37.55-13.92-50.06-1.74-14-7.41-27.52-5.69-41.76,32.45-25.08,30.18,46.12,40.65,56.8,4.79,4.88,23.29,2.97,26.18-5.95,5.96-18.4-8.59-47.02-13.22-65.08.48-5.61,10.31-8.02,15.1-8.01Z"/>
  <path class="st0" d="M1153.43,136.42c19.05-4.29,29.34,14.09,41.62,23.52,11.39,8.74,23.98,15.79,34.68,25.41-2.17,43.42-49.72-6.53-67.23-9.07-7.23-1.05-18.32,13.29-15.69,21.79,5.54,17.92,51.64,30.56,56.3,37.93,3.29,5.21-5.27,18.04-10.53,19.58-3.92,1.15-11.22.81-15.42.24-7.85-1.08-55.89-25.21-61.23-30.75-12.91-13.39-.04-38.03,7.71-52.42,4.31-8,21.89-34.44,29.79-36.22Z"/>
  <path class="st0" d="M2038.71,1438.71c8.3-9.14,45.6-20.58,58.87-24.13,13.79-3.69,23.66-5.01,32.13,8.72s23.34,65.19,17.26,78.68c-6.59,14.63-37.82,10.77-49.94,12.06-14.44,1.54-53.99,18.43-44.63-12.65,1.85-6.15,30.34-13.54,38.03-15.95,11.36-3.55,26.56-.88,25.16-17.84-1.5-18.14-15.32-17.11-30.07-15.08-8.5,1.17-40.48,14.17-44.12,13.25-9.43-2.38-9.17-19.93-2.69-27.06Z"/>
  <path class="st0" d="M567.29,1277.29c-12.28,11.18-33.71-.51-46.64-6.94-10.17-5.06-40.04-22.81-42.31-33.82-3.26-15.82,20.67-34.47,29.61-45.58,7.57-9.4,16.03-35.72,31.15-27.04,19.19,11.01-12.6,47.7-18.64,61.58-4.14,15.4,15.49,25.95,28.56,14.53,10.53-9.19,25.65-48.33,30.99-51.14,7.26-3.81,18.37,7.38,19.61,14.63,1.12,6.58-2.31,16.09-4.65,22.46-2.84,7.73-23.06,47.1-27.69,51.31Z"/>
  <path class="st0" d="M671.65,528.45c5.76-.28,6.96-.57,9.89,5,14.4,27.35-44.31,26.68-57.45,35.64-5.76,3.93-5.07,13.02-3.18,19.02,7.16,22.86,52.04-.74,66.6-3.69,17.08-3.47,16.62,20.28,2.37,30.45-8.9,6.35-43.82,17.93-55.42,20.58-12.46,2.85-21.99,1.98-29.27-9.63-8.09-12.89-18.89-53.69-19.25-68.93-.63-26.47,42.82-20.96,60.87-23.09,7.67-.91,16.91-4.97,24.85-5.35Z"/>
  <path class="st0" d="M2179.53,766.36c13.23-1.73,73.98,31.31,76.47,44.71,3.44,18.51-18.72,34.53-28.83,47.09-11.53,14.32-21.28,47.1-39.23,16.76-1.14-11.34,26.09-43.48,27.72-54.4,1.45-9.76-12.94-18.48-22.15-16.06-17.23,4.53-30.17,50.87-37.48,54.59-13.83,7.04-21.1-9.84-20.05-22.04.76-8.73,19.99-47.87,25.62-56.4,4.05-6.12,10.24-13.24,17.92-14.24Z"/>
  <path class="st0" d="M1861.51,337.53c-34,19.38-28.89-57.04-43.38-60.73-4.69-1.2-16.69,1-20.12,4.22-13.07,12.26,9.75,55.73,10.11,71.65-16.08,11.84-27.69,3.09-35.12-12.67-6.37-13.52-21.83-58.35-14.78-70.77,7.51-13.24,75.46-31.35,88.57-23.03,11.43,7.25,9.84,43.25,11.4,56.6.94,8,9.25,28.83,3.31,34.72Z"/>
  <path class="st0" d="M1105.3,1300.7c-28.82-27.45-57.38-55.31-86.25-82.75-9.26-8.8-24.81-14.03-24.16-29.93,17.47-8.22,18.02-14.76,24.11-31.97,3.61,2.28,2.23,6.88,4.1,9.86,5.2,8.28,19.31,6.16-2.65,19.02l4.46,9.18c53.48,54.5,111.86,104.23,166.14,157.85,10.84,10.71,33.85,29.15,21.91,46.03-2.22,3.14-8.5-1.4-10.84-3.1-28.86-20.91-69.3-67.97-96.82-94.18Z"/>
  <path class="st0" d="M1717.98,892c-6.29,1.42-3.34-5.52-6.57-9.45-1.76-2.15-7.76-3.49-8.91-7.51,0-6.69,10.3-6.87,11.4-10.25l-3.03-8.68-183.9-176.09c-8.85-8.48-8.46-18.89-4.96-30.02,7.27-5.16,35.81,31.14,40.99,35.99,51.75,48.46,102.69,96.97,153.94,146.06,7.07,6.77,18.99,11.6,22.18,21.88,3.96,12.76-8.98,9.74-14.87,17.34-3.91,5.05-5.32,14.46-6.28,20.74Z"/>
  <path class="st0" d="M1522,1399.97c-10.2,5.51-17.04,1.71-27.03,1.85-79.33,1.15-159.96,4.76-240.05,6.09-11.63.19-24.22,6.53-35.04-3.26-1.3-6.74,4.29-13,3.72-19.17-.74-8.05-8.59-13.76-9.58-21.48,4.03-.79,5.26,3.68,9.03,4.02,10.53.93,20.04-8.95,11.83,14,8.65,8.9,20.47,3.89,30.05,3.88,76.08-.09,155.04-7.1,230.07-5.49,14.01.3,24.48,4.5,27.01,19.56Z"/>
  <path class="st0" d="M1526.03,1372c8.53-1.03,14.34-7.33,20.02-12.95,56.56-56.01,108.63-117.71,164.66-174.34,9.61-8.66,18.51-12.18,30.47-4.79,1.42,1.83-2.65,8.26-4.08,10.18-10.31,13.83-31.45,30.25-44.12,43.87-49.11,52.79-98.02,105.79-147.96,158.04l-13.81,5.73c-8.14-15.04-12.98-19.96-30.23-23.74l16-14.13c4.77-.04,8.74,7.83,9.05,12.12Z"/>
  <path class="st0" d="M1008.05,892.03c-5.5,11.24-1.91,20.67-1.96,30.89-.32,76.06,7.46,155.21,5.5,230.08-.37,14-6.48,22.36-19.56,27-.5-5.06-3.52-9.85-3.64-14.97-1.98-83.59-2.89-169.39-4.3-254.1-.19-11.22-6.64-24.23,3.92-34.05,16.6,5.09,25.31,3.71,39.01-6.85,3.31,3.65-2.72,7.63-3,11.06-.43,5.28,5.9,12.39-4.66,14.62l-11.31-3.66Z"/>
  <path class="st0" d="M1515.83,644.21c-6.58,18.95-3.34,21.04,4.23,36.77,1.34,2.78,3.02,1.67-1.05,4.98-5.16-6.6-13.71-3.08-20.8-4.16-3.76-11.24,9.49-16.98-9.4-19.61l-255.86,5.85c-12.48.05-30.47-20.2-9.97-22.05,19.65-1.77,42,.85,62.1.09,62.31-2.36,123.37-2.95,186-4,14.55-.24,30.42-6.42,44.75,2.13Z"/>
  <path class="st0" d="M1205.75,652.24c4.23,18.59,13.78,16.54,27.46,21.56,2.78,1.02,3.4-.71,2.8,4.19-15.55-1.46-15.87,26.66-27.1-.11l-5.43.59c-61.75,58.62-119.17,123.04-178.19,184.82-9.65,8.68-18.43,11.59-31.11,6.53-1.05-3.41-.04-6.02,1.72-8.93,6.51-10.76,36.29-35.22,47.13-46.86,47.35-50.87,93.66-103.83,142.92-153.08,5.69-5.69,10.92-10.01,19.8-8.71Z"/>
  <path class="st0" d="M1743.98,869.99c4.22,23.3,1.03,47.44,1.94,71.09,2.52,66.03,4.05,131.81,6.06,197.94.21,6.99,2.28,30.22-5.33,32.72-7.05,2.31-11.62-4.1-17.49-3.73s-20.19,12.34-23.16,9.97c7.95-11.03-2.17-33.29,19.01-20.03l4.79-11.14-5.8-255.81c.59-11.37,8.71-19.81,19.98-21.01Z"/>
  <path class="st0" d="M2007.43,1646.33c6.61-1.92,27.26,9.34,33.91,13.33,6.99,4.2,35.58,24.29,38.22,29.78,12.55,26.18-12.88,52.49-33.73,65.38-14.06,8.69-27.51,15.14-41.92,2.27-9.31-8.31-29.88-31.86-37.85-42.15-4.98-6.42-11.61-15.05-7.64-23.4,7.34-15.41,19.97-5.01,28.64,2.4,6.74,5.76,27.43,31.49,30.98,33.01,11.24,4.79,33.01-7.69,31.18-19.04-1.14-7.04-17.35-25.94-23.39-30.74-10.21-8.11-36.16-15.03-18.39-30.84Z"/>
  <path class="st0" d="M713.34,284.73c7.14-.06,13.55,3.62,18.64,8.29,6.23,5.72,42.31,46.15,44.5,51.48,4.23,10.3-2.39,22.91-13.03,21.18-15.56-2.53-38.81-41.63-49.38-44.87-7.85-2.41-27.07,8.84-28.12,16.3-1.26,8.96,16.02,29.03,23.1,34.84,7.87,6.45,29.45,12.81,23.52,25.51-5.31,11.37-26.97-1.33-35.21-5.82-9.91-5.4-27.89-18.21-36.39-25.61-31.19-27.16,24.52-81.06,52.37-81.3Z"/>
  <path class="st0" d="M1352.41,131.56c-7.01-3.99-17.98-60.46-18.39-70.58-1.53-37.81,42.89-37.96,70.39-32.38,13.06,2.65,27.82,7.02,29.64,22.36,1.97,16.64.02,48.85-2.03,66.06-1.43,11.97-7.78,23.93-21.53,17.51-15.59-7.28-3.2-55.05-7.38-68.62-3.01-9.78-24.58-13.39-32.98-8.8-3.89,2.96-7.46,26.56-7.55,32.45-.17,11.12,7.78,27.88,5.05,37.04-1.62,5.43-11.03,7.34-15.2,4.97Z"/>
  <path class="st0" d="M473.51,1026.48c2.93,4.82,3.97,9.43-.4,13.64-8.68,8.37-59.1,17.78-72.1,18.05-17.62.36-28.06-13.57-30.79-29.38-3.46-20.03-1.63-67.71,24.75-70.83,16.76-1.98,48.45.19,65.81,2.28,8.45,1.02,18.35,4.7,18.34,14.77,0,13.65-17.71,14.59-28.03,15.08-15.6.73-42.06-8.92-49.51,6.5-13.51,27.96,9.45,33.59,32.87,32.87,9.59-.29,31.92-10.09,39.06-2.98Z"/>
  <path class="st0" d="M691.51,1614.38c4.86-.93,10.04-.22,13.42,3.69,16.67,19.3-34.7,45.61-39.42,56.43-5.24,12.02,6.04,33.38,19.34,31.52,3.68-.51,23.04-14.58,26.23-17.94,6.86-7.22,15.93-32.22,26.97-29.27,4.36,2.12,8.32,4.44,7.97,10.01-.22,3.5-13.57,29.22-16.42,33.79-3.61,5.77-17.72,26.43-21.55,30.45-5.37,5.64-19.57,7.82-27.08,7.02-16.25-1.74-46.63-35.47-51.4-50.63-5.15-16.33.59-23.03,11.38-33.5,7.96-7.73,42.76-40.07,50.56-41.57Z"/>
  <path class="st0" d="M1990.46,387.5c-5.47-6.12,9.83-33.61,13.93-40.1,4.71-7.46,9.52-11.22,14.48-17.52,6.98-8.86,3.85-14.99,18.65-19.34,12.22-3.59,19.74-1.99,30.34,4.59,18.42,11.45,49.02,46.5,35.05,68.8-3.43,5.48-26.43,25.6-32.89,31.1-9.79,8.33-24.21,24.61-38.04,17.97-13.46-6.46,1.05-24.09,6.99-31.02,6.64-7.74,30.36-24.22,32.16-29.89,3.2-10.08-9.81-31.61-21.17-29.2-3.51.75-21.73,14.01-24.94,17.13-6.85,6.66-21.59,42-34.56,27.48Z"/>
  <path class="st0" d="M2331.52,990.38c44.59-6.51,45.84,93.78,7.53,101.65-18.47-2.71-37.61-.5-56.02-2.07-10.55-.9-28.04-2.92-27.24-16.96,1.27-22.03,53.54-9.89,68.3-11.89,11.46-3.63,18.8-29.61,7.8-36.01-6.61-3.84-30.68-5.74-38.69-4.88s-19.72,7.3-27.26,4.96c-6.97-2.17-8.27-10.95-4.13-16.37,2.2-2.87,34.45-12.88,40.07-13.91,9.56-1.76,20.14-3.13,29.63-4.52Z"/>
  <path class="st0" d="M1365.53,1991.53c3.34-3.33,6.58-26.67,6.62-32.49.11-15.42-13.15-32.98,1.26-42.77,2.75-.75,8.15.25,10.11,2.22,2.51,2.52,12.76,37.07,13.97,43.02-.55,20.67,12.17,34.88-6.19,51.8-16.41,15.11-81.95,14.22-90.36-13.24.5-19.3-.64-42.14,1.09-61.03.91-9.96,3.78-26.92,16.62-26.52,18.32.58,13.58,39.46,13.33,52.46-.15,7.74-5.13,12.42,1.06,20.98,4.72,6.52,26.49,11.54,32.48,5.57Z"/>
  <path class="st0" d="M771.59,588.41c14.56-1.21,16.35,14.07,23.58,23.42,40.89,52.91,110.01,73.22,170.17,38.52,4.32-2.49,22.21-16.42,23.65-16.42,5.44,0,14.4,12.5,12.71,18.63-1.87,6.79-23.2,18.85-29.95,22.2-71.75,35.59-157.1,5.22-201.39-58.13-2.76-3.94-14.5-19.53-10.62-23.73,3-2.4,8.13-4.18,11.84-4.49Z"/>
  <path class="st0" d="M1805.59,1360.59c64.1-6.87,137.34,24.62,167.19,83.62,4.31,8.52,5.23,13.9-5.91,15.66-18.55,2.93-19.06-12.57-28.91-24.82-39.32-48.94-103.7-69.48-162-40.09-6.75,3.4-24.34,17.89-27.41,18.74-7.46,2.08-15.03-8.15-16.51-14.75,14.36-20.48,49.2-35.75,73.56-38.36Z"/>
  <path class="st0" d="M1799.81,416.19c13.71,24.95-11.32,28.7-26.75,41.87-14.06,12-39.22,46.2-44.1,63.9-12.01,43.59.69,90.78,29.12,125.04.05,3.85-12.33,13.12-16.61,12.75-7.21-.99-18.25-19.8-21.82-26.41-37.76-69.97-10.89-157.49,51.68-203.01,4.56-3.32,23.72-17.52,28.47-14.15Z"/>
  <path class="st0" d="M1240.27,290.27c30.69,2.92,15.53,22.78,13.75,40.75-2.34,23.57,3.13,64.33,15.14,84.82,21.9,37.34,63.85,61.95,106.91,65.08,7.41,30.29-14.91,23.72-34.5,18.51-86.4-22.94-131.95-127.45-101.3-209.16Z"/>
  <path class="st0" d="M1478.55,1753.46c-7.31-7.06.2-21.65,1.21-30.7,6.95-62.21-18.77-124.47-81.32-146.2-9.09-3.16-34.89-5.49-38.48-7.53-5.06-2.87-2.84-19.65,2.03-22.04,7.97-3.93,27.33,1.39,36.04,3.99,82.59,24.66,126.61,127.69,96.99,207.08-2.06,3.76-14.81-3.01-16.46-4.6Z"/>
  <path class="st0" d="M824.28,1014.29c4.76-1.14,19.68-.2,21.44,4.98,2.77,65.97-58.37,124.45-119.65,137.8-25,5.45-59.87,5.69-84.58-1.57-3.48-1.02-6.34-2.68-8.63-5.52,4.47-29.22,23.97-13.69,42.17-12.01,29.12,2.68,68.72-4.13,92.8-21.14,33.64-23.76,52.73-61.83,56.45-102.55Z"/>
  <path class="st0" d="M1974.71,1113.29c27.24,28.62,88.76,35.51,120.24,10.66,13.89-10.96,23.64-38.11,36.63-7.26-36.43,58.4-130.74,56.47-176.57,11.3-15.26-15.04-32.32-55.64-30.55-76.52.96-11.38,16.6-12.68,23.56-8.5,2.9,1.74,6.43,33.68,9.03,40.98,2.55,7.17,12.48,23.9,17.66,29.34Z"/>
  <path class="st0" d="M934.47,1631.54c-2.55-3.21-3.32-15.44-1.43-19.52s24.1-17.02,29.91-22.07c15.9-13.82,38.82-45.67,43.73-66.27,6.39-26.79,3.78-59.09-6.96-84.4-3.48-8.2-21.49-33.28-21.78-36.42-.64-7.17,11.7-14.54,18.62-12.52s23.28,33.8,26.41,41.69c26.3,66.53-2.7,145.63-59.1,186.83-4.66,3.4-25.01,18.21-29.39,12.68Z"/>
  <path class="st0" d="M1912.01,1034.01c-28.31,2.6-26.01-5.05-21.03-28.03,19.45-89.68,126.03-141.46,210.15-108.01,3.04,4.82-5.17,18.2-11.5,18.7-15.63-1.46-32.65-7.2-48.54-6.69-12.9.41-47.78,7.41-59.17,12.95-38.52,18.72-70.21,67.75-69.91,111.09Z"/>
  <path class="st0" d="M623.29,943.28c-1.98,1.75-4.39,3.08-6.68,4.41l-2.56-.55c-24.82-14.83,6.45-35.94,21.31-44.79,55.43-33,144.37-8.23,166.52,54.77,3.49,9.92,12.82,41.41,5.18,48.92-3.54,4.08-19.89,1.51-22.14-1.96-2.03-60.92-42.82-98.57-104-94.17-34.41,2.48-36.27,14.51-57.62,33.37Z"/>
  <path class="st0" d="M781.7,1501.71c-24.47,3.9-23.12-6.32-21.44-26.45,6.13-73.62,91.33-129.79,159.78-98.3,9.3,4.28,43.69,21.86,37.03,35.05-.74,1.47-12.23,9.9-14.02,9.96-4.45.15-26.11-18.83-33.69-22.33-50.91-23.49-122.62,16.11-127.23,71.68-.46,5.55,3.77,27.74-.44,30.4Z"/>
  <path class="st0" d="M1475.29,272.7c59.22,65.98,25.29,177.04-64.84,192.74-21.89,3.81-32.45,3.15-24.01-22.98,34.63-3.65,66.57-12.22,83.91-45.1,13.74-26.06,18.22-70.11.52-95.23-4.2-5.95-26.77-24.27-26.39-29.16l14.45-12.93c3.89-.11,13.31,9.26,16.35,12.66Z"/>
  <path class="st0" d="M1952,548c27.91-5.89,24.24,9.64,21.75,30.75-7.44,63.09-77.36,114.99-140.2,100.69-11.9-2.71-57.79-25.4-57.53-38.5,17.39-25.64,24.69-5.92,42.13,3.9,30.13,16.96,58.5,16.54,88.44-1.24,14.45-8.58,45.4-39.36,45.4-56.6v-39Z"/>
  <path class="st0" d="M1349.78,1584.21c-.08,5.9,2.25,18.23-2.58,21.98-2.46,1.91-29.56,4.78-36.8,7.2-48.49,16.28-69.65,75.49-52.5,121.69,6.36,17.14,22.83,25.02,32.17,39.91-13.66,30.06-35.75-3.41-44.91-19.16-31.5-54.13-9.33-141.01,51.28-164.41,8.92-3.44,47.31-14.31,53.35-7.22Z"/>
  <path class="st0" d="M895.6,458.6c19.86-1.86,40.36-.28,56.42,12.38,25.01,19.71,41.28,51.56,28.96,83-4.22,10.76-12.49,23.89-24.95,14.97-1.85-1.33-18.19-21.01-18.94-23.04-4.98-13.53,12.27-18.5.6-38.61-11.81-20.36-29.79-1.92-42.27-5.68-2.41-.73-23.52-19.8-25.16-22.88-9-16.92,13.99-19.09,25.33-20.15Z"/>
  <path class="st0" d="M1843.71,1629.7c-32.79,7.32-71.95-5.23-94.73-29.68-40.13-43.08-52.83-95.55-18.59-146.63,5.06-7.54,14.37-23.61,24.71-17.49,21.4,12.65-4.42,29.91-11.47,44.74-8.35,17.58-11.23,36.52-6.7,55.43,8.37,34.94,41.13,71.09,78.39,73.79,18.76,1.36,35.67-11.78,28.39,19.85Z"/>
  <path class="st0" d="M1404.48,280.49c14.39-14.46,53.7,32.66,57.98,46.06,8.72,27.33,1.21,64.99-21.5,83.4-9.38,7.61-39.14,22.28-42.1,2.16-.67-4.55,1.46-26.61,3.2-31.06,3.65-9.28,7.85-5.52,14.69-9.31,8.53-4.72,14.04-14.96,13.37-24.71-1.1-15.9-22.26-16.61-26.31-25.84-2.64-6.02-3.37-36.64.68-40.71Z"/>
  <path class="st0" d="M893,440c-4.57-1.41-3.11-14.43-2.73-18.73,2.23-6.47,26.78-3.76,32.49-3.03,41.06,5.26,69.6,29.68,88.28,65.73,23.77,45.89,14.85,100.68-26.39,131.75-4,.35-14.73-12.42-14.61-16.77.1-3.87,7.07-8.4,9.61-12.3,21.59-33.07,28.36-59.84,9.44-96.73-8.56-16.69-40.49-49.92-60.08-49.92h-36Z"/>
  <path class="st0" d="M685.59,926.59c24.58-2.36,56.7,6.58,70.46,28.36,6.81,10.77,17.97,36.51-2.98,38.04-5.59.41-23.07-.86-28.2-2.85-12.49-4.86-6.69-22.36-24.8-27.19-27.35-7.3-23.95,21.77-37.96,26.15-5.45,1.7-33.58,2.03-37.29-.91-15.99-12.65,27-50.32,38.55-55.84,7-3.35,14.58-5.03,22.23-5.77Z"/>
  <path class="st0" d="M1915.41,526.4c20.41-6.21,19.65,35.82,18.55,48.56-3.45,40.01-46.2,73.1-86.08,66.14-10.3-1.8-30.94-10.66-27.06-23.19,1.78-5.76,25.95-26,31.85-25.47,6.97.63,10.21,7.59,24.2,5.42,30.05-4.66,9.99-33.22,13.97-45.95,1.08-3.46,21.61-24.62,24.57-25.52Z"/>
  <path class="st0" d="M1770.71,1567.29c-13.22-14.65-22.28-36.54-20.78-56.39,1.05-13.89,12.62-43.82,29.97-29.8,2.88,2.33,18.41,21.7,19.29,24.87,2.07,7.45-4.3,9.55-5.27,16.93-1.03,7.76-.25,13.74,4.09,20.09,13.55,19.85,28.83-.91,43.97,6.04,1.57.72,19.76,17.1,20.93,19.05,6.66,11.16,1.58,18.97-10.35,21.46-29.46,6.16-61.19.63-81.85-22.26Z"/>
  <path class="st0" d="M1329.42,1724.56c3.73,4.53,6.29,38.6.25,45.08-15.58,9.52-50.87-31.03-56.07-44.25-11.56-29.41-.59-76.28,28.53-92.27,9.33-5.12,29.94-13.07,33.43,2.29,1.41,6.2-1.27,33.91-5.61,37.53-5.65,4.71-12.73,1.92-19.96,12.04-19.86,27.75,10.77,29.07,19.43,39.57Z"/>
  <path class="st0" d="M871.6,1406.51c13.54-1.07,50.06,8.46,41.35,27.46-1.35,2.94-23.12,21.03-26.42,21.7-11.26,2.29-21.48-14.13-39.57.29-13.91,11.09-2.36,23.4-1.94,35.83.29,8.43-34.02,52.64-42.14,18.34-11.47-48.44,16.45-99.5,68.73-103.62Z"/>
  <path class="st0" d="M1977.42,1056.43c4.26-1.25,29.95,1.36,34.07,3.08,8.53,3.58,5.07,17.94,20.72,25.26,27.38,12.82,27.8-21.02,39.21-24.36,2.06-.6,28.34-2.41,31.04-2.04,32.48,4.45-14.03,48.19-25.86,55.22-31,18.45-86.95,8.08-102.05-27.14-3.61-8.41-9.51-26.4,2.87-30.02Z"/>
  <path class="st0" d="M665.52,1545.53c-2.6,2.61-29.22,8.52-36.01,10.98-8.78,3.18-26.1,8.49-27.34,18.61-5.96,48.45,62.46,3.12,76.4,5.24,7.1,1.08,12.34,10.9,7.62,16.82-1.77,2.22-45.1,22.58-51.14,24.87-9.54,3.62-31.77,12.26-40.21,6.11-11.08-8.07-26.8-68.54-19-79.31,3.55-4.89,24-11.26,30.62-13.38,10.36-3.32,36.98-11.31,46.58-11.12,10.98.21,20.69,12.92,12.47,21.18Z"/>
  <path class="st0" d="M485.48,945.46c-1.95,1.8-5.39,2.6-8.01,2.17-16.58-9.44-72.3-20.59-81.06-37.1-6.05-11.4,9.88-40.06,16.78-50.35,2.02-3.01,17.47-22.56,18.81-23.23,9.03-4.52,36.84,10.91,46.05,16.01,10.08,5.59,51.11,27.56,30.75,40.82-9.83,6.41-26.89-9.29-37.45-14.12-7.4-3.39-26.39-11.85-33.3-8.65-1.69.78-9.07,8.53-9.64,10.4-9.04,29.75,46.66,35.41,58.51,48.68,3.85,4.31,2.33,11.87-1.44,15.37Z"/>
  <path class="st0" d="M1941.53,1706.49c5.53,18.93,37.37,68.18,32.1,86.08-4.57,15.52-64.2,29.13-78.22,25.02-7.12-2.09-13.62-21.09-15.98-28.01-4-11.7-13.94-47.33-10.54-57.7,3.38-10.29,17.14-11.31,22.11.13,7.77,17.9,9.11,66.6,39.59,57.58,27.09-8.02-8.85-62.59-6.62-76.48,1.16-7.21,11.46-11.52,17.56-6.61Z"/>
  <path class="st0" d="M1498.49,167.52c-8.52-8.46,7.93-25.87,11.86-34.17,6.46-13.66,19.16-36.09,3.06-45.75-26.04-15.63-37.97,33.66-46.31,48.51-6.78,12.06-16.58,14.98-23.06.95,6.9-15.06,24.14-82.38,41.06-85.09,14.72-2.36,69.03,27.42,70.95,41.14,1.54,11.05-26.87,61.65-35.18,70.77-5.24,5.75-16.56,9.43-22.39,3.64Z"/>
  <path class="st0" d="M2251.35,1102.26c2.44-.8,4.73-.35,7.16.15,11.04,2.25,36.23,11.95,47.43,16.66,6.88,2.89,29.82,13.55,32.6,19.41,6.45,13.62-13,45.96-21.7,57.36-8.69,11.41-12.16,19.64-27.24,15.57-11.41-3.08-64.27-31.08-67.18-40.82-1.18-3.94-.9-8.75.58-12.6,6.53-13.27,30.11,6.78,37.65,10.37,13.24,6.3,40.11,18.55,46.53-2.28,8.44-27.36-51.49-36.19-59.33-46.91-3.39-4.64-1.91-15.13,3.49-16.89Z"/>
  <path class="st0" d="M1235.52,1880.48c9.22,9.24-8.72,30.77-13.24,40.8-5.1,11.33-16.37,34.47.23,41.19,32.67,13.21,40.09-59,56.45-59.67,4.49-.18,10.48,3.58,11.12,8.33.32,2.36-12.45,39.97-14.55,45.4-3.76,9.74-15.65,39.6-26.76,40.9-14.24,1.67-68.9-28.36-69.92-42.38-.81-11.12,27.75-61.56,36.27-70.94,4.92-5.41,14.71-9.35,20.4-3.64Z"/>
  <path class="st0" d="M835.62,230.4c1.51-.05,2.93-.57,4.3.51,10.65,4.69,29.77,72.29,27.23,83.07-2.23,9.49-12.47,16.25-20.26,8.11-10.21-10.66-10.08-73.04-40.99-63.21-27.68,8.81,4.63,60.16,5.77,77.7-3.31,6.64-9.25,8.88-16.39,7.14l-2.31-1.71c-5.72-22.39-37.38-63.55-30.54-86.62,4.5-15.19,59.09-24.57,73.2-25Z"/>
  <path class="st0" d="M2127.57,418.43c13.93-1.38,18.62,10.04,23.39,21.61,4.11,9.97,13.58,49.17,9.62,57.42-5.04,10.53-61.08,25.21-73.83,26.3-11,.94-16.02-.04-20.34-11.06-1.18-12.47,36.41-18.69,47.52-23.76,12.98-5.92,26.13-10.36,18.26-28.14-12.21-27.6-70.35,15.99-81.24,5.25-2.77-2.73-4.18-10.53-2.01-14.08,1.17-1.9,34.78-18.11,39.71-20.3,9.31-4.14,29.44-12.29,38.92-13.22Z"/>
  <path class="st0" d="M1981.52,1468.48c1.99,2.06,6.16,29.65,6.45,34.54,4.49,74.58-41.78,142.71-114.44,161.49-5.91,1.53-11.46,4.52-17.28,1.22v-17.46c66.52-21.49,115.15-73.23,107.73-147.25-.75-7.52-9.58-26.85-2.64-31.18,3.74-2.33,16.55-5.12,20.18-1.36Z"/>
  <path class="st0" d="M1250.53,283.5c-7.3-7.51,7.92-25.69,13.53-32.44,51.08-61.49,145.48-79.21,209.7-27.67-2.31,25.96-38.12,1.95-54.2-1.95-54.25-13.17-102.21,3.43-137.52,45.61-4.68,5.59-12.53,24.74-20.56,22.67-.61-.16-10.53-5.77-10.97-6.22Z"/>
  <path class="st0" d="M1485.38,1766.58c1.21,1.43,1.9,3.04,2.32,4.86.59,7.56-25.73,36.14-32.65,42.62-52.98,49.57-137.94,58.01-194.84,10.66,1.57-5.33,6.82-12.62,12.79-12.56,4.67.05,30.99,12.09,39.47,14.37,56.29,15.12,102.02.03,139.48-43.57,5.84-6.79,12.07-24.89,22.57-22.67,1.64.35,9.84,5.09,10.86,6.29Z"/>
  <path class="st0" d="M729.33,1512.33c4.25-1.44,11.66-1.01,14.79,2.55,3.57,4.05,12.27,29.01,16.84,37.16,25.28,45.05,67.29,70.8,119.94,70.03,16.15-.23,44.91-17.64,45.01,9.21.04,9.26-17.02,11.66-25.13,12.51-81.22,8.5-153.6-35.03-174.22-115.39-1.24-4.82-3.65-13.91,2.76-16.08Z"/>
  <path class="st0" d="M877.75,382.24c9.08,22.09-7.71,20.88-22.47,28.04-52.29,25.37-86.03,65.61-85.36,126.62.11,9.94,8.21,32.85,5.8,39.82-1.69,4.89-18.22,7.02-21.87,4.4-27.93-88.33,30.35-188.98,123.89-198.88Z"/>
  <path class="st0" d="M565.33,918.21c5.31-1.77,14.23,5.7,14.74,10.87.44,4.52-12.36,31.11-14.63,39.36-14.24,51.7-.66,105.3,41.61,139.52,8,6.48,27.41,11.96,24.08,24.07-6.33,22.99-22.8,6.94-34.06-2.09-61.07-48.91-80.76-132.56-39.39-201.28,1.62-2.69,5.13-9.62,7.66-10.46Z"/>
  <path class="st0" d="M2115.32,904.42c62.17,34.29,95.28,103.03,79.75,173.65-1.85,8.39-19.98,52.07-26.44,53.74-5.19,1.34-12.62-7.45-12.76-12.73-.18-6.57,10.14-26.66,12.66-35.56,14.62-51.82,3.47-105.15-38.5-140.55-15.19-12.81-44.47-18.02-14.71-38.56Z"/>
  <path class="st0" d="M1841.6,404.6c65.41-4.93,131.21,27.73,157.36,89.43,2.7,6.37,13.41,35.55,10.18,40.1-2.31,3.24-15.4,2.79-18.2-.08-3-3.07-11.25-27.16-14.58-33.42-26.49-49.74-73.92-78.17-131.34-72.63-13.96,1.35-32.77,14.9-34.91-7.26-1.51-15.71,18.44-15.18,31.49-16.16Z"/>
  <path class="st0" d="M2109.46,862.52c2.6,2.72,2.96,7.72,1.11,10.95-6.81,14.87-35.37-.22-47.59-1.44-50.45-5.06-91.56,11.31-130.85,41.11-8.9,6.75-32.09,32.67-38.74,35.42-11.6,4.79-15.49-11.36-12.5-20.67,2.65-8.22,34.55-31.15,43.27-36.72,58.64-37.46,97.52-48.02,168.32-34.66,3.83.72,14.64,3.58,16.97,6.01Z"/>
  <path class="st0" d="M945.52,708.49c6.29,11.3-7.18,23.53-18.51,23.52-32.02,0-104.56-18.77-130.84-37.19-16.81-11.78-51.02-48.75-61.85-66.15-3.72-5.98-11.29-20.39.69-22.7,18.52-3.56,23.97,23.37,33.03,34.98,29.46,37.73,74.45,56.78,121.15,62.85,9.76,1.27,52.69,1.19,56.32,4.69Z"/>
  <path class="st0" d="M1801.42,1318.43c9.31-2.13,39.97,2.37,50.69,4.47,66.57,13.05,108.97,38.13,146.72,95.28,5.73,8.67,14.65,26.97-3.68,25.8-11.77-.75-21.46-27.31-29.18-36.93-29.06-36.25-68.24-53.54-113.5-60.5-18.56-2.85-34.18-.78-51.45-2.55-22.71-2.32-11.89-22.76.41-25.57Z"/>
  <path class="st0" d="M1457.01,1537.03c13.61.06,30.99,25.19,38.66,36.31,41.59,60.35,52.95,103.12,39.82,177.15-1.63,9.19-5.31,21.95-17.44,16.48-14.38-6.48.75-34.12,1.94-45.99,5.64-56.52-13.96-97.1-48.04-139.92-5.12-6.44-27.77-27.76-29.19-33.01-1.84-6.81,8.26-11.04,14.25-11.01Z"/>
  <path class="st0" d="M600.46,1477.54c8.17,7.95,57.57,1.16,61.2,11.79,4.68,13.68-5.63,17.14-16.88,18.45-21.2,2.48-68.36,4.48-73.89-21.67-2.43-11.47.97-45.87,5.15-57.07,3.09-8.3,11.88-10.33,20.03-10.1,11.05.32,63.85,9.13,72.49,13.5,5.8,2.93,7.01,6.64,3.22,12.33-8.48,12.74-46.54-3.24-61.26,2.75-8.86,3.61-17.37,22.9-10.05,30.02Z"/>
  <path class="st0" d="M1055.39,1444.24c13.62-3.39,19.08,16.45,18.7,26.83-1.22,33.95-18.84,103.64-40.16,129.87-9.78,12.03-61.09,60.13-73.86,62.27-11.21,1.88-14.95-11.98-8.15-20.28,3.31-4.04,21.52-11.71,27.88-16.11,42.1-29.11,63.37-82.4,67.93-132.07.94-10.25-3.43-47.74,7.65-50.5Z"/>
  <path class="st0" d="M1773.5,386.39c12.53-2.44,16.17,9.01,10.28,18.4-2.84,4.53-32.24,19.55-40.83,27.16-47.32,41.96-57.13,106.32-57.35,166.65-8.98,13.42-23.89.44-25.24-12.14-1.23-11.47,4.91-42.82,7.78-55.32,12.23-53.19,22.09-76.59,62.8-113.2,7.07-6.36,35.37-30.16,42.55-31.56Z"/>
  <path class="st0" d="M523.45,750.39c8.97-2.01,13.86,1.4,19.59,7.58s42.67,58.02,43.01,63.21c.75,11.66-13.82,9.84-21.12,2.9-12.72-12.1-31.07-53.31-54.82-30.96-17.19,16.17,26.64,41.63,29.61,56.37,1.35,6.7-4.29,12.6-10.66,12.69-11.42.16-46.8-37.55-51.84-48.37-3.32-7.13-4.74-14.03-2.11-21.7,2.84-8.26,39.99-39.82,48.35-41.7Z"/>
  <path class="st0" d="M1609.18,138.83c6.66,5.16,31.56,35.95,33.68,43.14,1.14,3.84-4.17,13.69-7.03,16.86-5.92,6.56-52.88,39.04-61.45,42.64-10.35,4.35-15.21-6.01-10.9-15.01,7.38-15.4,53.42-25.85,38.27-55.21s-42.93,22.49-58.91,24.69c-10.17,1.4-14.48-4.56-11.98-13.95,2.31-8.68,38.96-44.13,47.74-48.38,13.21-6.39,19.71-3.19,30.57,5.22Z"/>
  <path class="st0" d="M2201.42,1188.38c12.82-3.82,32.37,17.34,40.63,26.57,12.01,13.41,27.05,28.75,14.81,46.92-5.1,7.57-40.16,37.38-47.98,38.16-4.9.48-12.43-4.54-15.96-7.95-8.4-8.11-24.36-31.95-31.37-42.63-5.89-8.98-25.29-37.48,3.03-29.02,15.27,4.56,29.16,59.32,59.36,36.53,12.76-9.63-.65-22.66-8.01-31.89-4.62-5.8-33.73-30.96-14.52-36.68Z"/>
  <path class="st0" d="M1209.45,280.29c24.57,3.16,10.01,25.14,7.11,39.26-11.44,55.71,11.82,104.9,45.51,147.39,5.38,6.79,26.57,26.01,28.95,31.1,1.3,2.78,1.69,5.21.04,7.97-4.63,5.6-10.59,6.93-17.57,5.57-9.32-1.82-28.25-26.98-34.31-35.75-14.1-20.43-40.78-67.06-43.16-90.84-2.02-20.24-.79-74.17,4.87-93.09,1.48-4.97,3.66-9.26,8.56-11.6Z"/>
  <path class="st0" d="M967.41,234.6c10.21,7.34,2.13,44.21,0,55.82-1.09,5.97-6.47,36.77-9.33,38.67-2.89,1.92-7,1.24-10.05-.13-17.09-7.65,9.45-55.36-9.32-68.68-5.94-4.22-16.13-7.9-22.62-3.19-12.08,8.77.14,52.81-15.51,62.58-20.67,6.23-17.5-43.37-16.67-54.75,1.05-14.39,3.88-34.14,21.21-36.79,10.09-1.54,54.82,1.1,62.29,6.47Z"/>
  <path class="st0" d="M1779.31,1718.17c22.05,2.79,11.44,22.53,10.71,36.85-.81,15.94-4.08,34.42,15.44,38.52,26.42,5.55,18.48-33.81,20.72-50.36,2.52-18.61,21.11-18.55,23.64,0,2.1,15.4,2.59,54-4.72,66.92-7.29,12.9-22.63,12.49-36.09,11.87-7.75-.36-38.62-4.36-42.81-9.18-1.11-1.28-3.38-6.45-3.74-8.26-2.17-11.15,7.23-61.04,10.87-74.2.99-3.57,2.04-11.04,5.98-12.16Z"/>
  <path class="st0" d="M1169.4,1825.43c-11.24,14.06-56.33,29.17-33.41,55.58,13.66,15.74,35.27-14.59,47.07-22.95,7.18-5.09,11.61-9.56,19.95-2.08,3.72,9.5-.49,15.15-5.99,22.04-7.38,9.25-35.87,37.31-46.47,39.52-21.02,4.39-38.56-20.28-49.38-35.71-9.56-13.63-14.44-19.98.13-33.53,5.92-5.5,55.27-40.14,60.69-41.47,11.24-2.77,12.81,11.84,7.41,18.6Z"/>
  <path class="st0" d="M843.46,1100.31c2.85-.59,5.47-.88,7.6,1.63,5.55,10.1,5.1,17.15-2.01,26.11-17.28,21.77-94.46,65.25-122.07,67.93-16.06,1.56-88.75.02-99.8-8.16-4.37-3.23-4.72-10.6-1.36-15.01,8.06-10.55,36.9,3.68,49.42,4.94,48.16,4.87,90.07-13.71,127.41-42.1,8.13-6.18,35.2-34.19,40.8-35.35Z"/>
  <path class="st0" d="M2074.54,546.51c1.29-1.43,8.37-4.08,10.59-4.38,13.81-1.88,54.62-2.19,66.29,3.45,18.36,8.87,13.45,45.96,10.06,62.91-3,15-5.09,22.04-22.39,21.57-8.84-.24-72.12-10.96-75.3-14.86l-1.84-4.27c1.7-20.59,25.3-9.58,38.96-8.84,12.45.67,26.06,2.79,32.81-9.34,20.83-37.45-44.18-20.78-57.63-29.83-4.71-3.16-5.25-12.3-1.55-16.4Z"/>
  <path class="st0" d="M1785.38,623.4c-2.66,3.14-12.33,8.38-16.45,10.68-6.92,0-20.11-33.47-21.95-40.06-14.99-53.77,9.82-119.93,63.89-139.96,18.11,29.31,5.97,24.96-11.83,39.98-30.66,25.88-38.32,62.39-23.39,99.3,3.13,7.75,15.43,23.3,9.73,30.06Z"/>
  <path class="st0" d="M2035.59,926.59c11.99-1.2,36.64-1.24,46.4,6.44,4.16,3.28-3.61,20.81-6.82,23.13-7.31,5.27-20.14-1.14-28.4-1.9-28.32-2.6-61.44,12.39-77.25,36.26-5.77,8.7-15.21,41.23-18.32,43.67-4.93,3.87-18.29-.15-24.36-2.05,4.85-56.6,52.75-99.92,108.76-105.55Z"/>
  <path class="st0" d="M807.77,1016.21c-.83,33.04-24.18,69.25-51.93,86.62-28.4,17.78-74.71,28.46-104.99,11.19-1.26-1.99,4.87-15.67,6.34-17.85,7.72-11.5,15.15-3.04,25.84-2.2,34.19,2.69,68.17-9.63,85.35-40.61,4.38-7.89,11.34-34.13,14.58-37.42,4.6-4.68,18.81-1.03,24.83.27Z"/>
  <path class="st0" d="M922.18,1593.82c-13.71-29.38-2.82-24.59,14.76-39.88,22.43-19.5,34.61-50.94,28.58-80.46-2.24-10.97-18.55-38.74-17.63-44.43.74-4.56,15.98-14.44,20.79-12.87,3.19,1.05,14.62,25.19,16.3,29.84,13.12,36.41,8.75,72.32-10.64,105.32-10.86,18.49-29.6,40.74-52.16,42.48Z"/>
  <path class="st0" d="M1361.28,1584.24c16.72-5.68,62.11,24.67,73.75,37.73,24.7,27.74,43.66,86.26,21.03,119.14l-21.74-10.44c2.5-25.14,6.51-40.53-2.79-65.2-14.13-37.45-40.05-44.59-74.58-57.44-1.96-3.19.56-22.51,4.34-23.79Z"/>
  <path class="st0" d="M817.53,572.31c7.7-.84,20.16,22.97,27.53,29.63,17.76,16.06,45.63,24.8,69.43,21.54,16.77-2.3,32.13-14.39,48.25-19.07,14.08,13.88,20.4,18.64.63,29.95-18.52,10.6-48.92,17.42-70.12,15.39-35.36-3.39-86.96-31.4-95.04-68.44.89-3.15,15.91-8.63,19.33-9Z"/>
  <path class="st0" d="M1299.4,316.57c5.17,6.03-.94,17-1.37,24.46-3.32,57.71,26.72,85.31,79.62,99.3.8,5.74,1.84,23.55-4.97,25.44-3.52.98-27.15-7.26-32.04-9.42-24.28-10.74-46.9-31.59-58.4-55.6-12.16-25.38-20.76-68.99-2.93-92.6,2.68-.78,18.18,6.19,20.09,8.41Z"/>
  <path class="st0" d="M1815.55,1400.55c32.46-3.51,65.89,5.02,91.41,25.49,6.88,5.52,34.52,33.73,30.2,41.96-28.87,21.7-30.13-4.76-46.17-19.99-24.33-23.09-59.7-28.41-90.34-16.38-7.56,2.97-23.65,14.97-30.64,11.44-.83-.42-11.55-13.57-11.79-14.47-2.35-8.87,28.83-21.43,35.84-23.55,5.68-1.72,15.65-3.87,21.5-4.5Z"/>
  <path class="st0" d="M556.02,900c2.16-9.1-11.94-14.17-12.17-15.18-1.45-6.39,5.12-10.97,9.21-14.75,36.74-34.01,65.42-39.13,108.31-57.69,18.82-8.14,25.49-24.61,26.63-44.37l21.02,7.95c3.57,6-1.06,21.98-3.48,28.59-11.2,30.63-29.82,25.11-55.51,34.49-16.06,5.87-51.36,21.72-64.06,31.94-3.53,2.84-28.28,30.27-29.95,29.02Z"/>
  <path class="st0" d="M2028.01,540.01c9.77,3.7,9.45,3.05,17.89.9,8.93-2.27,6.51,15.56,6.07,22.06-3,44.98-18.89,80.36-37.79,120.2-2.2,15.62,4.34,31.56,15.77,41.83l-20.88,9.06c-20.09-14.17-28.94-38.67-17.41-61.4,14.85-29.26,38.29-71.95,38.49-105.63.05-9.12-3.39-17.79-2.15-27.03Z"/>
  <path class="st0" d="M2179.98,1150c1.04,18.97,23.83,8.37,2.96,27.94-35.17,32.98-75.85,47.31-119.97,64.03-10.06,10.59-16.64,25.17-14.98,40.02l-21.04-7.97c-4.99-21.74,5.63-48.5,27.96-56.12,30.46-10.39,69.11-19.96,95.12-40.88,3.92-3.16,27.06-29.62,29.96-27.02Z"/>
  <path class="st0" d="M1242,1835.97c-6.84.93-12.02,4.48-12.17,11.84-3.44,1.04-5.99.04-8.93-1.71-7.59-4.52-36.84-44.6-41.93-54.06-10.19-18.94-21.14-66.45-35.1-76.9-8.62-6.45-23.01-11.28-33.87-11.15l8.79-20.18c18.99-4.57,47.94,6.16,54.66,25.75,11.08,32.33,20.38,71.75,42.6,99.4,6.84,8.51,17.93,15.07,24.01,21.99,1.53,1.74,2.58,2.23,1.94,5.03Z"/>
  <path class="st0" d="M1069.98,362c3.77,19.71,16.84,19.36-5.34,33.64-34.19,22.01-40.12,6.2-67.89-7.39-17.12-8.38-63.75-25.35-81.78-26.21-5.65-.27-32.73,4.75-32.92-1.02,6.63-6.22,1.77-11.88,2.79-19.11,4.31-5.94,59.04,3.05,68.76,5.5,8.9,2.24,19.11,6.76,27.75,10.25,18.03,7.26,38.15,22.63,57.49,20.17,11.74-1.49,22.24-8.62,31.14-15.82Z"/>
  <path class="st0" d="M706,1510c-7.59-5.77-13.43-3.58-21.92-2.04-.93-3.61-2.24-7.13-2.27-10.96-.12-14.53,5.74-48.01,9.63-62.56,5.33-19.95,29.07-56.76,30.47-71.69.67-7.16-3.55-20.28-6.93-26.74-2.97-5.68-7.99-8.14-8.98-14,6.8,1.5,13.12-6.64,17.49-7.73,7.34-1.84,17.65,17.11,20.22,23,13.99,32.15-2.87,36.53-14.67,62.75-3.54,7.87-23.04,60.06-23.04,64.96v45Z"/>
  <path class="st0" d="M1586.68,331.32c7.5,7.5,26.6,14.17,37.31,12.69l-6.43,21.54c-10.03,3.54-22.34-.33-32.08-4.03-28.21-10.73-22.3-24.17-29.95-48.05-6.15-19.17-26.64-61.72-39.47-76.53-3.85-4.44-21.03-18.2-21.82-20.18-2.62-6.59,5.99-3.99,9.89-9.72,1.44-2.12,2.01-4.51,1.9-7.05,3.65-3.24,16.14,10.8,19,13.98,23.91,26.57,35.38,52.99,48.47,85.53,3.71,9.22,6.37,25,13.18,31.82Z"/>
  <path class="st0" d="M1852,1686c.5,4.04-3.4,7.77-3.55,11.35-.23,5.45,9.13,12.22-7.42,12.86-19.63.77-60.06-8.25-78.99-15.24-13.66-5.04-44.33-23.43-55.2-24.88-7.35-.98-14.62,1.76-21.35,4.39-8.15,3.19-13.53,8.89-21.47,11.51,1.65-10.88-11.55-15.36-2.89-25.88,5.61-6.81,30.75-18.16,39.69-17.92,14.01.37,25.45,12.99,37.23,18.78,8.46,4.15,64.58,25.03,70.97,25.03h43Z"/>
  <path class="st0" d="M1070,330c-12.9-12.21-35.27-24.96-53.34-25.36-16.09-.36-27.43,23.91-6.72,30.57,11.76,3.78,10.8-22.01,27.04-5.2,11.44,11.84-2.12,30.65-17.71,29.88-27.13-1.35-53.97-25.99-41.02-54.63,12.55-27.77,41.43-33.31,68.33-22.84,5.3,2.06,23.42,12.96,23.42,18.58v29Z"/>
  <path class="st0" d="M2070,1304.02c18.05,5.63,77.04-19.84,56.12-43.14-3.92-4.37-18.03-4.22-21.18,1.09-4,6.73,8.48,21.52-13.97,20.21-9.63-.56-15.38-14.73-14.4-22.95,1.28-10.73,23.46-21.24,32.91-22.74,56-8.89,60.22,65.26,11.04,85.04-27.19,10.94-34.63,5.46-50.52-17.5Z"/>
  <path class="st0" d="M1651.29,250.71c9.87,9.77,20.07,32.08,18.58,46.06-1.38,12.97-13.7,15.62-20.87,25.19l-7.9-34.06c-5.11-5.64-7.51-16.34-12.97-21.03-9.95-8.54-29.77-6.01-28.12,9.93,2.39,23,21.45-.96,24.08,18.1,1.03,7.47.66,14.17-6.63,17.55-26.08,12.06-38.79-20.77-39.51-41.56-1.21-34.67,50.49-42.79,73.34-20.18Z"/>
  <path class="st0" d="M1087.99,1728.01c.26,4.85-.58,9.95.23,14.77,1.74,10.37,14.75,40.41,25.2,42.78,20.13,4.58,26.66-8.42,16.58-24.69l-12.96,1.26c-8.23-.9-10.37-20.47.47-25.63,32.85-15.64,54.25,48.67,24.36,68.36-21.51,14.17-50.71,5.56-64.68-15.05-16.29-24.03-18.68-48.26,10.81-61.81Z"/>
  <path class="st0" d="M1666.02,1720c8.07,5.98,15.86,13.79,25.39,17.59,3.78,1.51,18.04,5.8,21.73,6.33,14.67,2.11,32.08-13.34,18.93-25.01-16.41-14.56-14.57,7.22-26.6,4.79-18.98-3.83-11.52-31.1,3.65-33.57,28.97-4.72,63.21,25,46.56,56.55-13.6,25.76-41.77,30.05-67.03,19.68-25.15-10.32-26.47-20.58-22.62-46.36Z"/>
  <path class="st0" d="M671.99,1322.01c2.35,1.98-10,12.84-11.66,15.32-4.41,6.62-11.34,26.09-12.21,33.87-2.59,23.39,24.46,30.85,29.44,11.33,3.27-12.81-5.48-7.41-8.61-12.49-5.01-8.12,5.32-17.06,12.5-19.74,39.54,4.88,14.47,61.34-11.33,66.8-28.3,5.98-52.01-24.89-49.87-51.86,2.38-29.91,20.3-49.82,51.74-43.24Z"/>
  <path class="st0" d="M663.98,746c-11.71-7.11-54.48,12.95-57.56,23.41-4.19,14.21,4.07,27.5,19.05,21.07,12.28-5.27,1.6-15.24,4.76-20.25,24.89-11.51,39.02,17.36,17.64,32.64-30.07,21.48-68.11,11.28-67.65-29.65.45-40.43,65.54-75.1,83.76-27.22Z"/>
  <path class="st0" d="M2062,725.98c2.5-4.91,7.77-7.68,10.86-12.12,7.79-11.15,19.21-38.86,10.82-50.56-11.14-15.54-25.23-7.34-27.52,9.39l11.86,10.22c-6.68,25.7-37.43,15.05-35.87-7.63.97-14.21,16.42-40.05,31.33-42.81,42.98-7.94,62.44,43.1,42.13,78.12-13.07,22.54-20.33,16.53-43.6,15.38Z"/>
  <path class="st0" d="M1117.53,26.53c24.76-3.5,45.79,14.2,48.25,38.68.99,9.86-.54,25.46-12.38,26.57-1.81-.48-12.61-11.33-13.11-13.23-1.82-6.89,6.25-13.92-2.23-23.6-15.67-17.9-37.83,4.29-26.95,20.96,6.83,10.47,14.75,3.48,22.86,7.12,2.39,1.08,15.85,15.63,15.65,17.99-19.37,17.89-64.98,9.34-67.53-20.27-1.56-18.15,16.16-51.5,35.44-54.22Z"/>
  <path class="st0" d="M866.43,1857.6c-1.7-2.9,1.86-27.29,4.54-27.52,38.95,13.44,56.03,59.26,9.01,76.89-23.42,8.78-45.86,8.29-55.55-18.4-8.63-23.78,6.36-57.24,33.7-55.73,2.82,2.04,2.55,16.21,1.48,19.77-2.15,7.14-15.39,4.92-15.65,18.33-.6,31.77,43.05,20.25,32.51-4.43-2.48-5.8-9.28-7.62-10.04-8.92Z"/>
  <path class="st0" d="M394.59,1277.44c12.75,15.47,38.73,1.97,30.29-19.44l18.26-15.91c6.82-1.52,11.11,27.32,10.74,32.62-1.24,17.58-14.12,34.81-32.95,35.38-13.2.4-48.41-16.89-50.82-31.21-3.06-18.25,1.92-33.99,16.9-44.87,12.82-9.31,39.53-13.18,48.92,2.84-4.3,3.55-11.92,14.69-16.96,15.16-4.59.43-9.18-3.53-15.53-1.64-8.83,2.63-15.41,19.12-8.85,27.07Z"/>
  <path class="st0" d="M1609.52,1938.5c25.53-3.05,46.59,15.5,41.99,42.03-2.14,12.32-17.2,39.23-30.63,41.36-17.3,2.74-31.94-.98-42.53-15.24-9.88-13.3-15.28-42.31,2.37-50.5,1.59.28,12.99,12.21,13.82,14.43,2.6,6.91-8.15,12.54,2.47,23.42,23.29,23.87,43.42-21.37,17.1-27.21-4.84-1.07-10.18.86-12.22.12-2.67-.96-16.81-16.02-15.77-19.66,1.13-3.95,18.93-8.22,23.41-8.76Z"/>
  <path class="st0" d="M2339.44,770.56c-4.95-4.97-18.1-6.22-24.24-2.35-8.99,5.67-2.29,18.38-7.06,24.94-2.36,3.24-17.21,15.7-21.13,10.83-8.01-9.96-5.97-41.03,2.09-51.86,19.65-26.42,74.93-3.61,76.95,24.94,2.45,34.7-38.07,58.93-65.95,37.7-1.09-3.68,10.88-16.33,13.94-17.86,5.63-2.81,11.07,11.01,23.87-3.96,5.73-6.69,8.8-15.05,1.51-22.37Z"/>
  <path class="st0" d="M1875.99,216.01l-.07-22.66c.92-3.82,12.48-1.01,13.9-12.47,4.72-38-43.86-21-31.56,1.86,2.39,4.43,9.41,7.15,9.77,8.68.69,2.84.55,18.34-.05,21.58-1.49,8.14-7,4.45-12.07,2.08-42.22-19.74-38.87-65.05,7.98-76.16,13.53-3.21,23.99-4.54,35.09,5.1,25.69,22.32,13.61,73.28-23,72Z"/>
  <path class="st0" d="M2182.7,1555.31c-4.36-4.69-8.57-13.66-6.44-20.02,1.53-4.56,16.34-4.31,20.43-2.97,4.98,1.64,4.83,15.69,18.28,15.76,38.55.21,9.69-59.06-16.32-22.31l-24.65-1.77c6.79-37.67,54.32-60.22,73.72-16.71,6.27,14.06,12.04,32.51,2.27,45.7-16.92,22.87-48.48,22.54-67.29,2.32Z"/>
  <path class="st0" d="M560,515.99l-22.69-.31c-8.06-15.67-18.12-18.13-33.5-8.87-7.05,11.88,3.3,32.79,18.22,28.34,6.44-1.92,11.31-10.53,14.91-11.18l21.74-.07c6.41,1.52-2.03,14.99-3.85,17.94-15.22,24.63-47.2,35.28-64.44,6.77-7.97-13.18-15.73-38.12-6.4-51.61,21.64-31.25,73.6-19.13,76.01,18.99Z"/>
  <path class="st0" d="M2090.57,942.61c1.69-1.42,4.22-2.51,6.42-2.42,5.16.22,28.33,18.08,33.07,22.74,33.04,32.55,38.25,74.55,22.9,117.03-1.86,5.14-10.84,26.76-14.37,27.77-5.44,1.57-14.11-5.49-14.66-10.82s7.4-13.93,9.5-20.49c12.41-38.65,1.7-81.19-31.61-105.27-3.95-2.86-15.92-7.56-16.89-9.12-3.05-4.94,1.79-16.2,5.63-19.44Z"/>
  <path class="st0" d="M597.38,940.19c4.3-1.11,14.66,9.12,14.65,12.77-.01,3.04-7.71,11.6-9.61,16.45s-2.93,10.98-3.86,16.14c-8.55,47.91,11.95,81.31,53.28,103.75-4.6,15.33-6.72,25.05-23.33,15.17-42.19-25.1-63.93-72.43-51.54-120.5,1.83-7.09,15.22-42.45,20.4-43.78Z"/>
  <path class="st0" d="M1284.37,1797.66c-2.71-4.67,6.64-17.57,10.55-17.7,3.37-.11,13.33,7.68,18.53,9.59,48.54,17.89,96.35-3.25,118.58-48.67,5.07-2.67,18.43,5.81,19.7,10.56,2.23,8.32-21.61,34.35-28.67,40.6-31.36,27.77-68.41,32.81-107.57,19.47-3.93-1.34-30.26-12.39-31.11-13.86Z"/>
  <path class="st0" d="M1952.27,541.74c-4.61-30.28-31.24-61.45-60.37-70.64-23.27-7.34-41.33-4.16-64.57,1.03-9.62-16.75-9.08-23.63,10.18-27.61,42.99-8.87,90.98,6.45,114.53,44.43,4.59,7.41,18,35.09,19.54,42.53,3,14.44-9.13,10.46-19.33,10.27Z"/>
  <path class="st0" d="M1371.55,230.56c11.76-1.24,22.69.04,34.13,2.76,8.23,1.96,35.27,12.03,41.75,16.24,10.18,6.59-3.11,20.79-12.01,18.07-2.75-.84-4.88-4.66-8-6.05-36.23-16.12-83.96-7.83-109.37,23.48-7.38,9.09-10.49,25.23-22.09,22.06-24.81-6.79-5.38-27.42,5.01-39.14,18.75-21.17,42.05-34.4,70.57-37.42Z"/>
  <path class="st0" d="M884,419.99c4.55,25.27.57,16.8-15.43,23.58-40.03,16.97-63.74,55.27-58.35,99.21,2.27,18.47,15.95,28.48-18.34,26.33-16.46-50.05-1.57-106,45.52-132.71,5.91-3.35,43.26-19.87,46.6-16.41Z"/>
  <path class="st0" d="M783.67,1508.36c8.4,48.25,54.07,80.34,103.15,73.47,7.21-1.01,12.54-6.37,19.9-5.68,17.97,24.61.04,28.22-21.75,29.83-43.96,3.24-84.3-12.37-105.81-52.14-3.7-6.84-15.1-31.27-16.35-37.76-2.14-11.1,13.44-10.53,20.86-7.72Z"/>
  <path class="st0" d="M1850.26,1627.72l.62-17.84c38.51-8.11,73.91-44.36,75.14-84.97.41-13.47-4.49-26.39-5.77-39.58,18.63-12.89,23.04-10.61,27.15,10.25,12.46,63.31-25.54,118.98-87.89,133.12-3.6.82-5.95.87-9.26-.99Z"/>
  <path class="st0" d="M411.47,734.48c9.32-1.51,24.47,1.4,32.42,6.62,14.59,9.57,21.55,41.98,3.38,50.74-.98-.17-13.7-12.58-14.25-13.88-2.6-6.1.65-13.26-7.93-18.06-15.63-8.75-30.87,7.79-23.2,21.2,8.62,15.05,22.13.9,28.76,3.1l11.43,14.8c-10.34,17.83-38.42,17.53-53.07,4.98-24.95-21.37-8.01-64.57,22.46-69.5Z"/>
  <path class="st0" d="M2241.31,496.7c6.57,5.9,14.36,23.57,14.75,32.4,1.12,25.48-26.43,48.79-51.18,41.02-19.8-6.22-41.24-39.26-3.92-32.08,6.3,1.21,7.87,8.97,17.86,7.95,19.76-2.03,19.66-32.17.18-32.22-15.19-.04-13.11,16.19-18.28,18l-20.71-1.78c-3.79-31.42,37.32-54.83,61.3-33.29Z"/>
  <path class="st0" d="M873.92,188.08l.09,23.93c-40.43,4-60.42-51.15-21.37-70.37,52.79-25.98,90.5,52.94,32.63,69.96-2.83-1.11-5.01-3.56-5.28-6.63-.06-.76.87-14.48,1.04-15.23,1.71-7.17,10.71-6.98,6.06-21.85-9.22-29.5-56.47,13.27-13.18,20.19Z"/>
  <path class="st0" d="M2313.47,1236.48c61.2-9.81,58.65,88.38-8,77.05-22.2-3.77-31.67-25.33-27.05-46.1,3.4-15.31,16.43-7.83,21.68,1.47,3.98,7.05,1.09,15.62,11.15,20.84,18.08,9.39,29.96-13.14,18.86-24.84-10.92-11.51-18.08,2.95-24.8.93l-13.16-15.11c-1.02-5.84,16.47-13.47,21.32-14.25Z"/>
  <path class="st0" d="M1612.41,90.43c4.7-2.69,16.76,2.27,20.69-10.32,8.51-27.23-29.37-29.65-29.22-9.09.04,5.71,5.43,9.69,3.84,15.53l-14.71,13.35c-38.24-34.93,8.66-89.89,51.04-54.95,18.78,15.48,18.34,48.59-1.06,63.03-13.05,9.72-49.44,7.55-42.09-6.01,4.4-.97,10.79-11.14,11.51-11.55Z"/>
  <path class="st0" d="M1854,1837.99c-.87,6.79,1.48,16.34-.4,22.61-2.21,7.37-11.84,4.5-5.38,20.21,12.09,29.42,54.27-11.85,12.05-21.06l1.75-21.71c53.47-2.63,55.93,72.65.27,74.82-46.12,1.8-60.21-71.02-8.3-74.86Z"/>
  <path class="st0" d="M554.01,1517.99c4.93,41.56-50.91,59.96-69.65,20.65-8.09-16.98-5.99-36.22,7.79-49.49,21.76-20.95,57-12.26,61.94,17.79l-5.07,5.13c-4.6-2.81-12-.32-15.29-1.1-4-.96-5.91-5.94-10.78-6.92-14.99-3.01-27.01,8.78-19.39,23.4,8.43,16.17,26.22,6.93,28.3-8.57l22.14-.88Z"/>
  <path class="st0" d="M1301.37,1202.29c2.26-.54,19.69,2.02,25.73,1.8,5.68-.2,10.6-2.04,15.82-2.17,32.69-.84,65.29,1.1,97.75,4.42,4.33,4.47,16.83,23.8,6.32,25.66-7.86,1.39-25.14.34-34.07.09-30.5-.88-61.37-4.17-91.94-6.06-6.02-.37-31.42,2.9-30.71-4.68,3.59-4.44,5.73-17.78,11.1-19.06Z"/>
  <path class="st0" d="M1187.48,954.49c3.34,2.8.2,24.01.44,30.6,1.22,32.81,3.21,64.59-.18,97.65-.39,3.82-1.73,13.83-3.57,16.43-2.69,3.8-19.91,12.58-23.43,5.92-3.74-7.08,1.04-38.38,1.34-48.01.4-12.67-.79-25.52-.16-38.16,1.16-23.58,5.58-47.2,4.09-70.92,1.41-1.38,19.83,5.12,21.47,6.5Z"/>
  <path class="st0" d="M1123.39,1957.34c-7.17,4.82-14.6-.5-20.22,8.83-11.78,19.56,11.57,32.24,22.76,22.75,12.41-10.53-1.01-20.22.28-25.5l15.08-13.25c18.72,9.25,17.77,35.86,6.69,50.82-11.28,15.22-27.66,16.86-44.57,10.6-40.41-14.95-31.88-80.9,13.54-77.65,6.74.48,19.47,3.78,16.78,12.7-.21.71-9.73,10.29-10.35,10.71Z"/>
  <path class="st0" d="M1561.99,939.97c-7.46.34-14.8,8.36-21.94,5.06-22.12-23.75-47.28-45-69.08-69-3.63-4-26.14-29.48-26.68-31.47-.99-3.64,4.81-21.79,7.65-23.63,2.36-2.44,3.37-.06,5.09,1.04,15.62,9.95,23.96,25.24,35.94,38.06,22.56,24.14,45.61,47.68,67.13,72.87l1.89,7.07Z"/>
  <path class="st0" d="M1283.9,1227.91c-8.06,5.51-37.18-33.88-42.87-39.94-22.65-24.12-45.57-47.66-67.07-72.93-6.43-8.31,12.64-8.38,17.42-12.71l2.57.57c22.07,23.84,47.25,45.07,69.09,69.08,4.02,4.42,25.76,28.68,26.6,31.45,2.55,8.4-3.68,16.71-5.73,24.49Z"/>
  <path class="st0" d="M1571.85,1113.86l-113.82,105.17-6,.97-5.1-21.92c31.13-32.42,61.87-64.8,95.96-94.18,5.23-5.91,32.65,3.36,28.96,9.95Z"/>
  <path class="st0" d="M1276.26,830.28c7.47-4.37,10.02,13.01,13.43,17.08l-.59,2.58c-21.14,19.63-39.11,42.3-60.05,62.11-4.81,4.55-38.41,34.42-41.01,35.15-5.95,1.68-27.15-4.45-23.08-13.19,1.15-2.47,20.21-20.56,23.99-24.07,27.24-25.33,55.32-50.35,84.13-73.95,1.98-1.62,2.74-5.45,3.19-5.71Z"/>
  <path class="st0" d="M1567.99,1101.99l-22.07-9.33c.83-46.92-2.01-94,3.07-140.67l21.96-11.99c2.63.52,5.21,20.87,5.22,25,.1,35.99-5.15,81.45-8.15,118.02-.51,6.28.3,12.7-.03,18.97Z"/>
  <path class="st0" d="M1444,824.01c1.81,1.87-5.83,20.54-9.32,21.67-46.94.25-94,1.89-140.71-2.65-3.24-1.62-12-22.98-9.97-25.02,20.34-3.91,39.29,1.25,59.02,1.97,15.96.59,32.15-.9,48.06-.06,17.57.93,35.2,5.47,52.92,4.09Z"/>
  <path class="st0" d="M767.45,1012.54c9.16,11.39-4.22,21.12-16.39,21.57-19.81.73-45.72-3.36-65.97-4.19-17.29-.71-42.02,2.05-57.91-.1-19.63-2.65-25.31-24.07-6.29-25.94,43.56,4.31,91.16-.73,134.16,4.06,2.93.33,10.82,2.62,12.4,4.59Z"/>
  <path class="st0" d="M1371.41,268.43c5.84-1.72,17.77-2.19,16.68,6.47l-4.21,139.98c-2.44,14.93-17.52,14.54-24.84,3.07-1.27-36.16,3.17-72.98,4.2-109.29.28-9.83-5.94-36.08,8.17-40.23Z"/>
  <path class="st0" d="M947.49,599.48c-4.5,4.26-16.08,3.2-20.53-1.44-21.29-23.98-42.23-48.46-63.93-72.07-6.51-7.08-27.35-22.97-28.67-31.39-1.58-10,9.29-21.96,19.54-13.46s18.13,21.51,27.07,30.91c19.3,20.27,48.91,45.49,65.02,66.98,4.69,6.26,8.25,14.08,1.5,20.48Z"/>
  <path class="st0" d="M1786.53,1450.51c15.05-15.94,32.22,14.71,40.44,23.52,23.16,24.81,46.44,49.56,69.92,74.06,7.67,7.38,0,24.39-9.59,23.49-9.03-.85-27.52-28.44-34.28-35.61-10.48-11.12-67.76-66.14-69.03-75.12-.42-2.94.49-8.17,2.54-10.34Z"/>
  <path class="st0" d="M1348.49,1779.52c-1.38-1.37-2.25-4.72-2.39-6.71-1.27-17.13,3.44-34.64,3.99-51.72.55-17.19-3.44-84.47,3.81-94.18,8.48-11.34,23.5.44,23.96,12.25-1.94,29.17-4.44,58.57-5.94,87.76-.61,11.93,2.95,40.82-2.96,49.04-4.17,5.79-15.35,8.67-20.47,3.56Z"/>
  <path class="st0" d="M933.34,1440.5c10.79-.54,16.01,16.5,7.73,23.59-20.27,19.78-42.24,37.79-63.1,56.88-8.55,7.82-32.67,36.82-42.63,36.51-7.51-.23-19.41-8.39-13.49-16.56,28.24-26.46,56.85-52.53,85.2-78.87,7.28-6.77,14.6-20.97,26.29-21.56Z"/>
  <path class="st0" d="M1968.48,1037.53c-6.69-11.88.42-20.96,12.63-23.45,29.17,1.95,58.62,4.62,87.81,6,11.25.53,45.83-3.23,52.02,3.98,3.35,3.92,4.61,13.69,2.08,17.95-5.15,8.68-48.02.21-57.93-.1-26.22-.84-56.71,2.63-82.09.1-5.08-.51-9.96-2.35-14.51-4.48Z"/>
  <path class="st0" d="M1911.38,496.58c2.81,3.42,3.88,8.93.74,12.52-27.66,25.68-55.44,51.25-83.18,76.84-7.21,6.65-14.89,20.96-26.13,22.08-12.95,1.28-16.92-14.2-8.81-23.02,19.83-19.55,41.54-37.18,62.03-55.97,11.1-10.18,40.4-50.65,55.35-32.45Z"/>
  <path class="st0" d="M1554.46,769.58c1.17,2.07,9.41,4.85,12.37,4.47,6.79-.87,13.03-12.17,21.73-9.76,6.18,1.71,15.24,14.99,13.1,22.27-.4,1.36-16.85,19.85-18.96,21.14-5.98,3.67-13.97,5.42-20.78,3.39-8.67-2.57-38.82-31.76-39.88-40.27-1.69-13.52,18.32-47.55,33.07-38.94,21.58,12.61-8.38,24.06-.64,37.7Z"/>
  <path class="st0" d="M1681.51,942.52c12.72-1.69,29.7-1.35,26.14,16-3.08,15.01-26.78,4.48-27.53,18.37-.96,17.67,22.44,11.62,26.92,19.06,2.3,5.33,1.38,23.92-4.3,25.77-2.55.83-26.1,2.47-29.27,1.83-21.91-4.47-22.93-32.09-21.53-50.64,1.52-20.1,9.68-27.75,29.58-30.4Z"/>
  <path class="st0" d="M1590.52,1023.49c-4.04-4.3-3.33-18.96-.39-24.35,4.95-6.96,25.3-1.74,25.99-16.08.79-16.56-17.74-7.64-23.17-13-9.73-21.43,4.08-23.27,22.13-22.12,18.54,1.18,29.72,9.91,30.92,29.11.54,8.64-2.03,32.7-6.3,39.65-3.72,6.04-8.13,7.85-14.87,9.13-8.09,1.53-28.51,3.83-34.3-2.33Z"/>
  <path class="st0" d="M1203.29,877.29c-1.44,1.66-10.71,8.12-12.59,8.31-7.18.72-16.96-17.55-27.71-7.66-15.04,13.84,16.55,18.91,1.94,36-11.49,13.44-36.64-19-37.02-31.01-.51-16.19,27.74-43.61,43.08-45.01,15.52-1.42,47.1,22.34,32.29,39.38Z"/>
  <path class="st0" d="M1314.6,709.4c3.81,3.21,13.12,1.78,16.42-1.39,6.77-6.49-2.21-32.66,27.1-23.13,12.81,4.17,9.8,38.61,1,47.23-9.54,9.34-50.78,10.57-61.91,3.67-10.46-6.48-21.86-51.57-.13-51.91,18.42-.29,9.08,18.41,17.52,25.52Z"/>
  <path class="st0" d="M1123.51,790.34c9.31-1.55,28.96,18.15,30.37,26.77.56,3.43.57,8.36,0,11.78-1.57,9.52-28.77,37.42-37.82,40.23-14.79,4.59-53.74-19.79-38.17-36.23,13.47-14.22,18.92,12.52,34.09,4.08,1.47-.82,5.87-8.02,5.93-9.96.26-7.47-13.47-12.31-9.53-25.58,1.22-4.12,11.07-10.42,15.13-11.09Z"/>
  <path class="st0" d="M1075.32,1032.68c8.58,9.08,9.52,51.15,3.53,61.17-9.14,15.28-63.99,23.95-49.04-9.04,4.55-5.72,23.78,1.1,24.29-13.7.69-19.86-19.18-7.8-25.88-18.31-5.09-7.98-1.93-25.09,8.9-26.61s30.35-1.83,38.2,6.49Z"/>
  <path class="st0" d="M1530.64,1172.62c1.99-2.44,11.16-8.82,14.36-8.83,7.8,0,14.84,15.62,26.11,8.35,17.68-11.41-17.33-23.69-.53-37.52,9.32-7.67,19.67,3.56,25.47,10.33,8.23,9.61,12.27,16.24,9.49,29.6-2.44,11.69-30.84,36.53-42.77,37.37-13.41.95-45.13-23.34-32.12-39.31Z"/>
  <path class="st0" d="M1501.42,786.43c19.65-4.49,32.6,9.16,43.61,23.55,6.53,8.54,10.53,13.43,9.07,25.1-1.03,8.24-19.16,29.32-27.58,30.58s-16.46-10.94-20.24-17.15l-.06-3.08c5.01-6.75,16.48-18.9,7.7-26.34-12.27-10.38-18.58,7.36-26.74,6.95-6-.3-14.11-7.89-12.37-14.08s20.39-24.11,26.61-25.53Z"/>
  <path class="st0" d="M1439.38,1314.63c12.41,11.26,20.86,62.87-12.1,47.55-5.01-3.56-.19-22.8-10.34-24.27-21.99-3.17-10.68,21.49-22.97,27.05-5.47,2.48-20.28.67-23.01-4.92-.77-1.58-3.14-23.87-2.88-26.78.58-6.6,5.3-15.65,11.19-18.98,10.02-5.67,51.68-7.29,60.11.36Z"/>
  <path class="st0" d="M1315.48,746.49c12.36-1.93,41.98.44,49.66,11.37,5.33,7.58,8.2,36.73.79,43.08-5.14,4.4-21.28,4.15-25.96.09-4.11-3.56.39-25.09-12.91-25.18-16.71-.12-10.02,18.02-15,23.22-25.14,13.83-23.15-19.63-19.13-35.13,2.66-10.25,12.77-15.92,22.55-17.44Z"/>
  <path class="st0" d="M1395.67,1248.35c.94,7.56,1.69,24.1,11.61,25.13,20.59,2.14,4.73-28.73,25.57-27.46,17.93,1.1,13.11,42.02,1.11,50.93-11.39,8.45-53.44,7.37-63.33-3.57-5.75-6.36-9.96-41.83-.65-46.41,3.82-1.88,23.74-1.64,25.69,1.38Z"/>
  <path class="st0" d="M1617.42,1180.44c18.12-5.29,55.7,20.43,39.68,35.67-13.67,13-21.61-13.71-34.24-4.27-18.49,13.82,15.67,24.14.14,40.17-8.93,9.21-14.44,9.37-23.94,1.93-8.52-6.67-20.17-18.99-19.03-30.75.92-9.49,28.61-40.19,37.39-42.75Z"/>
  <path class="st0" d="M1205.53,1184.42c8.94-2.19,20.18,7.26,22.12,15.1,2.07,8.4-12.83,15.31-9.33,27.06,13.95,20.22,20.8-10.36,36.81-.69,16.97,10.24-16.62,41.63-35.67,37.66-13.86-2.89-41.36-33.74-39.43-48.38.89-6.77,19.08-29.17,25.5-30.75Z"/>
  <path class="st0" d="M1141.68,1078.33c3.07,1.82,5.28,14.08,2.47,18.34-3.93,5.97-29.95,4.44-36.74,2.92-23.87-5.35-22.02-62.01-7.38-72.56,8.03-5.79,38.26-8.44,44.12-.17,2.76,3.89,2.95,18.92.87,23.16-3.37,6.85-25,1.26-26.49,15.26-1.74,16.42,18.47,10.28,23.15,13.07Z"/>
  <path class="st0" d="M1174.61,1313.42c-11.17-13.79,13.79-20.03,5.53-32.55-11.4-17.28-21.15,6.74-34.69,2.79-4.15-1.21-12.64-12.82-13-17-.6-7,20.09-27.26,28.69-28.54,15.8-2.35,38.32,18.53,46.87,30.88,14.82,21.4-18.48,62.83-33.39,44.42Z"/>
  <path class="st0" d="M1677.48,1044.49c12.12-1.91,35.79-2.59,34.71,14.53-.85,13.55-14.33,9.48-22.73,13.44-5.21,2.46-11.76,10.81-4.14,13.22,6.71,2.12,23.3-2.78,27.64,4.36,3.67,6.02,4.7,20.73-3.44,24.49-9.67,4.46-47.63.19-52.47-10.57-4.78-10.63-3.53-46.42,5.87-54.03,2.31-1.87,11.42-4.93,14.56-5.43Z"/>
  <path class="st0" d="M1303.52,1369.5l-23.59,1.57c-8.41-5.55-2.47-46.04,4.27-53.88,7.58-8.82,43.83-5.85,53.67-.05,13.65,8.05,16.3,53.11-4.91,52.64-16.18-.36-7.8-31.16-21.92-29.92-9.75.86-1.82,23.03-7.51,29.64Z"/>
  <path class="st0" d="M1628.25,841.74c5.75,9.01,23.36-15.78,28.72-15.76,5.13,1.91,16.51,9.56,17.09,15.1-1.89,14.36-32.97,38.64-46.61,34.53-9.8-2.96-33.96-31.51-33.07-42.09,1.14-13.55,28.89-44.11,41.59-28.48,9.31,11.46-11.69,23.95-7.71,36.71Z"/>
  <path class="st0" d="M1101.51,1172.37c11.23-.94,37.04,28.04,38.46,38.8,2.02,15.31-16.91,31.77-29.28,38.4-28.62-8.95-7.6-20.08-5.1-31,6.78-29.67-22.6,3.16-26.69,3.53-4.96.44-16.24-8.15-16.95-13.21-1.78-12.6,28.54-35.59,39.56-36.51Z"/>
  <path class="st0" d="M1455.54,678.47c7.21,7.48,2.07,47.99-5.59,54.48-9.89,8.37-49.72,5.78-57.99-5.91-7.41-10.47-9.45-44.78,7.21-46.99,21.6-2.87,9.69,29.99,23.82,30.02,11.79.02,4.09-24.89,9.3-31.78,7.86.51,16.1-4.65,23.25.19Z"/>
  <path class="st0" d="M1150.19,1157.79c7.14,10.13,22.21-12.27,28.45-11.37,3.68.53,13.38,10.31,13.02,14.26-3.84,9.49-22.75,30.65-32.79,31.31-5.64.37-18.71-8.59-23.52-12.33-37.07-28.82-14.07-47.12,13.66-69.73,9.15,4.38,18.79,15.55,13.96,26.04-1.89,4.1-18.03,14.37-12.77,21.83Z"/>
  <path class="st0" d="M1553.48,1252.42c15.53-3.08,33.84,17.18,38.57,30.4-10.74,30.88-24.66-5.1-43.1,5.14-6.46,8.97,32.81,21.95,7.17,39.15-16.37,10.99-41.43-26.73-40.1-39.92,1.03-10.21,26.91-32.66,37.46-34.76Z"/>
  <path class="st0" d="M1183.42,718.27c11.84-3.03,36.95,32.16,36.05,42.43-.94,10.83-31.22,38.01-42.32,37.28-11.77-.77-31.79-20.95-34.75-32.66,7.94-28.51,34.93,7.66,42.74-3.18s-22.29-17.81-13.24-33.25c.83-1.42,10.2-10.28,11.52-10.62Z"/>
  <path class="st0" d="M1051.82,964.18l-27.84-3.15c-4.75-2.81-5.28-18.51-3-23.06,5.11-10.19,48.24-3.46,55.09,4.97,6.95,8.54,5.18,47.19-2.97,55.17-7.37,7.22-38.06,9.44-45.97,3.77-4.3-3.09-5.59-12.06-2.96-16.57,6.59-11.29,30.38-2.73,27.64-21.12Z"/>
  <path class="st0" d="M1396.57,758.55c3.93-4.79,25.64-8.37,32.35-8.63,14.15-.55,30.42,2.71,32.95,19.21.84,5.48,2.32,28.45,2.04,33.76-.72,13.68-22.07,9.99-27.97,4.17-4.65-4.59.43-28.44-8.97-29.2-17.99-1.46,2.42,31.2-24.04,28.26-15.1-1.68-13.1-39.35-6.36-47.56Z"/>
  <path class="st0" d="M1583.78,890.21c-12.46-5.33-17.72,11.65-26.78,11.65-5.81,0-12.75-7.38-13.03-13.04-.43-8.76,22.42-29.62,31.19-30.79,12.67-1.69,40.8,22.17,42.71,35.11,1.44,9.77-1.13,15.5-6.83,22.91-2.86,3.72-21.05,21.76-24.15,22.06-6.52.63-17.15-12.31-17.06-19.16.13-9.55,19.89-16.46,13.95-28.74Z"/>
  <path class="st0" d="M1613.82,1087.82c8.34-12.41-21.68-14.81-27.53-16.11l1.67-18.76c4.01-4.05,24.73-3.62,31.13-3.03,15.16,1.41,16.34,4.31,19.95,18.05,11.45,43.64-6.34,56.14-48.14,52.14-9.57-.92-11.52-2.83-10.73-12.82,2.24-28.22,28.92-12.41,33.66-19.47Z"/>
  <path class="st0" d="M1474.75,1267.2c-6.45-5.19-11.95-14.38-19.74-19.22-6.07-9.33,10.61-21.06,17.98-21.1,10.71-.05,18.37,20.57,27.14,14.26,9.07-11.72-11.02-19.99-10.24-28.04.48-4.98,10.84-13.79,16.16-12.31,3.31.92,23.91,21.05,25.68,24.45,6.51,12.5-2.78,23.5-10.71,32.78-14.6,17.08-26.38,25.18-46.27,9.17Z"/>
  <path class="st0" d="M1122.51,971.51l25.1,4.88c7.36,23.18-7.42,24.71-26.69,23.68-21.59-1.16-25.02-8.34-26.89-29.1-1.32-14.72-1.88-37.83,17.08-40.85,5.3-.84,28.62-2.29,33.77-2.03,14.72.75,10.62,26.82,1.71,29.5-8.38,2.52-32.45-1.27-24.08,13.91Z"/>
  <path class="st0" d="M1272,1241l3.31-2.68c6.32-.77,18.95-1.16,23.66,3.71,6.81,7.05-1.51,23.41,8.29,29.84,15.15.69,7.97-23.35,12.7-26.9,4.97-3.73,17.9-3.5,21.05,3.03,2.98,6.19,1.89,38-3.57,43.44-6.8,6.77-38.54,8.01-47.98,6.1-7.36-1.49-17.46-11.23-17.46-18.54v-38Z"/>
  <path class="st0" d="M1233.41,774.43c6.06-1.4,13.76-1.04,19.33,1.82,1.51.78,23.39,20.57,25.27,22.71,6.94,7.9,3.42,12.55-4.16,17.89-22.14,15.59-27.73-15.05-37.83-9.98-13.7,6.87,9.31,22.29,9.3,28.13-1.96,5.42-8.06,13.36-14.15,13.04-7.65-.41-30.8-24.89-30.96-33-.2-9.63,24.07-38.5,33.2-40.61Z"/>
  <path class="st0" d="M1298,858.02c24.96.59,50.11-.84,75.08-.1,4.73.14,9.1,1.96,13.84,2.16,7.12.3,42.04-2.33,43.09,2.97-4.66,9.03-5.28,21-17.12,22.83-29.64,4.59-67.26-5.95-98-1.77-10.64-1.28-11.51-18.18-16.88-26.1Z"/>
  <path class="st0" d="M1533.99,956.01l-2.3,126.67-4.59,3.33c-7.88-3.76-19.89-4.32-20.97-15.14l2.86-102.88,25-11.98Z"/>
  <path class="st0" d="M1437,858.04c14.66,17.43,32.44,31.38,48.03,47.93,5.44,5.78,10.58,14.06,15.94,20.06,6.39,7.14,18.18,15.85,23.1,22.91,1.44,2.07,2.95,2.14,1,5.12-1.81,2.78-21.89,11.12-25.81,5.67l-72.93-78.35,10.67-23.34Z"/>
  <path class="st0" d="M1299.98,1189.99c-3.03.82-3.31-.8-5-1.97-14.23-9.85-31.04-34.88-46-46-4.95-13.06-33.68-32.79-37.99-42.03s16.66-13.7,23.61-11.59c7.4,2.25,40.62,43.04,48.38,51.62,5.44,6.01,25.37,22.15,24.72,28.45-.64,6.28-7.47,14.45-7.72,21.52Z"/>
  <path class="st0" d="M1297.98,866c9.06,22.45,8.49,25.03-7.95,41.03-20.26,19.72-43.55,36.55-62.64,57.53l-24.45-8.51c-2.57-2.6-.42-3.24,1.17-4.95,7.05-7.56,18.03-16.05,25.95-24.05,16.1-16.29,29.16-27.04,45.98-42.02,3.96-3.52,18.02-21.83,21.95-19.03Z"/>
  <path class="st0" d="M1531.78,1092.21l-.18,5.47c-15.93,9.48-26.4,26.83-39.58,39.34-10.26,9.74-23.38,18.53-34.05,27.95-4.91,4.33-16.31,21.26-21.76,16.8-.77-.63-6.14-17.74-6.18-19-.23-6.64,9.32-15.24,13.95-19.79,15.7-15.45,34.09-28.81,50.11-43.89,16.86-15.88,9.66-19.91,37.7-6.87Z"/>
  <path class="st0" d="M1225.5,970.49c8.04,8.73,1,60.56.42,74.43-.52,12.53.5,25.23.17,37.77l-23.11,11.27c-6.62-6.53-.89-16.5-.89-24.86-.01-27.41-.11-46.36,1.89-74.12.42-5.87-2.64-33.67,4.09-32.11,3.83,3.35,14.58,4.53,17.43,7.62Z"/>
  <path class="st0" d="M1435.99,1191.99c-21.8-3.83-43.15.69-64.97,0-10.33-.33-23.54-3.21-34.04-3.96-8.92-.63-19.62,1.17-28.02-.02-2.61-.37-3.6,1.07-2.98-3,.48-3.11,6.58-17.51,8.87-19.16,9.81-7.06,59.54-.46,74.06.23,9.99.47,25.34-1.82,34.11-.11,4.9.96,14.39,24.67,12.97,26.02Z"/>
  <path class="st0" d="M1333.44,292.29c5.27-1.47,9.62,1.44,10.51,6.77-3.59,26.82,5.51,67.97-.88,93-4.05,15.84-17.02,15.29-22.11,0-3.8-11.4-5.5-42.38-5.04-55.16.4-11.19,4.78-41.05,17.53-44.61Z"/>
  <path class="st0" d="M641.45,1048.45c10.23-2.37,79.77-2.12,91.43-.32,18.53,2.87,17.82,17.95-.46,23.29-17.72,5.17-56.6,6.08-74.48,1.65-11.61-2.88-37.85-19.67-16.49-24.62Z"/>
  <path class="st0" d="M1907.75,1521.74c-13.68,3.16-16.53-7.66-23.7-14.8-13.25-13.19-38.35-32.52-48.04-45.96-3.61-5-5.84-10.53-7.62-16.38,8.25-22.62,39.59,8.97,49.64,18.37,15.23,14.24,38.72,36.12,29.72,58.77Z"/>
  <path class="st0" d="M943.49,1486.4c8.92-1.8,13.69,3.28,12.18,12.09-1.29,7.58-24.29,34.65-30.87,41.3-8.85,8.94-40.2,37.98-52.84,25.25-10.01-10.08,13.47-23.11,19.12-28.97,11.17-11.59,37.91-46.75,52.4-49.68Z"/>
  <path class="st0" d="M829.24,526.11c8.43-2.57,16.34,10.69,20.7,14.94,13.67,13.34,36.21,31.18,47.07,44.93,7.52,9.52,16.8,28.64-3.83,25.96-13.82-1.79-55.2-42.77-62.22-55.91-3.29-6.15-12.18-26.73-1.72-29.92Z"/>
  <path class="st0" d="M1847.44,482.46c4.91-1.03,13.35-1.7,16.76,2.38,7.82,9.37-15.1,22.7-20.28,28.08-11.89,12.35-39.12,49.27-55.7,50.08-16.3.81-5.71-20.48-.18-27.96,10.67-14.42,42.37-49.01,59.4-52.58Z"/>
  <path class="st0" d="M1990.62,995.42c-5.8-6.79-.5-12.41,5.99-15.81,10.81-5.66,56.92-6.92,70.37-5.59,10.26,1.02,34.34,7.38,33.14,20.97-.98,11.15-24.32,4.96-31.02,4.91-16.98-.11-68.33,7.38-78.47-4.49Z"/>
  <path class="st0" d="M1399.41,1646.33c10.78-3.25,14.27,7.27,15.7,15.57,3.74,21.67,9.05,79.78-11.23,92.98-17.94,11.67-11.79-20.09-11.78-27.78.05-19.74-3.85-41.25-2.18-60.18.52-5.91,3.08-18.66,9.49-20.59Z"/>
  <path class="st0" d="M1309.13,906.08c5.09-1.16,11.6,17.92,9.92,21.87l-49.06,53.04c-4.23,4.01-25.15-4.47-27.06-6.92s-.98-3.46,1.03-5.1l65.17-62.89Z"/>
  <path class="st0" d="M1411.99,900.01c-1.42,5.92-4.22,18.38-10.03,20.95-2.53,1.12-22.15,2.85-26.88,3.12-16.46.93-33.25-.9-49.73,0-1.91-.46-9.25-19.82-9.42-23.04-.23-4.22.1-2.61,3.01-3.05,28.54-4.25,63.92,4.19,93.05,2.02Z"/>
  <path class="st0" d="M1248.02,1083.96l1.21-4.09c6.26-1.75,15.53-8.89,22.21-6.39,2.52.94,34.36,31.48,39.61,36.47,3.18,3.02,14.64,13.26,14.85,16.95l-9.87,22.16c-1.72,1.25-9.23-5.43-11.08-7.01-15.2-13.01-38.53-40.07-52.15-55.95-1.17-1.37-3.02-1.96-4.78-2.15Z"/>
  <path class="st0" d="M1491.99,1067.99c-1.57,1.66-19.03-4.47-20.97-8.01-.75-1.37-2.87-24.58-3.1-28.9-.86-15.78.5-31.96.4-47.76,1.55-3.51,21.09-11.61,22.62-11.32,2.53.48,2.9,4.67,3.16,6.9,3.25,28.43-3.8,60.38-2.11,89.09Z"/>
  <path class="st0" d="M1492,1074.02l-1.91,7.08-66.11,61.93c-3.92-6.88-10.34-14.58-6.93-22.95,6.28-15.42,40.37-36.44,48.96-53.13,7.11-4.46,17.79,8.02,25.99,7.07Z"/>
  <path class="st0" d="M1485.99,969.97c-8.42,1.78-14.68,9.27-23.96,4.99l-53.2-53.09,9.1-20.94c2.38-2.44,3.37-.19,5.11,1.02,11.52,8.03,52.78,51.1,60.98,63.02,1.16,1.69,2.79,1.97,1.97,5Z"/>
  <path class="st0" d="M1242.02,1076l1.01-96.03c7.04,3.02,19.45,3.8,22.09,11.91,5.78,17.8-3.84,51.67,2.72,71.26.83,6.53-24.46,14.06-25.82,12.85Z"/>
  <path class="st0" d="M1409.76,1124.23l10.25,25.75h-96.01c-.63-6.94,4.34-21.5,11.42-23.57l74.34-2.19Z"/>
  <path class="st0" d="M1230.22,684.23c5.58.45,23.51-2.92,25.49,3.04,1.92,8.27-3.89,32.55-9.76,37.68-13.62,11.88-69.76-10.57-45.08-27.09,9.46-6.33,15.64,7.07,20,6.11l9.35-19.75Z"/>
  <path class="st0" d="M1029.27,1136.29c7.82-2.59,37.84,4.78,40.34,13.1,4.48,14.9-3.83,39.67-17.02,48.4-5.13,1.35-11.18-7.47-14.29-11.07,14.49-21.63,4.12-16.76-11.99-28.04.07-5.18-2.79-20.49,2.95-22.39Z"/>
  <path class="st0" d="M1490.17,693.85l22.41-5.59c15.75,13.87,22.47,16.28,2.1,29.42-6.17,3.98-17.95,10.15-25.25,7.94-14.98-4.52-38.31-58.75-6.82-49.21,6.84,2.07,5.03,11.9,7.56,17.44Z"/>
  <path class="st0" d="M1491.32,1322.32c12.29-1.17,22.12-1.12,33.42,3.94,8.42,3.76,18.35,8.88,13.76,19.23-7.94,17.88-19.34-1.08-25.22.62-9.92,15.33-8.46,24.74-31.4,19.01-6.58-7.31,2.48-40.42,9.45-42.81Z"/>
  <path class="st0" d="M1239.49,1322.35c16.11-2.46,36,42.21,26.64,48.77-2.45,1.72-13.36,1.54-16.15-.1-5.09-3-2.51-15.99-7.11-16.92l-19.58,7.58c-4.46-4.31-16.05-12.44-15.44-18.64s25.24-19.71,31.64-20.69Z"/>
  <path class="st0" d="M1701.54,1124.49c11.56-1.4,18.44,3.77,14.18,16.24-1.89,5.51-14.43,3.79-16.87,7.14-4.48,6.14,6.39,14.9,4.89,20.71-.62,2.42-14.08,16.52-18.33,15.2-6.26-1.64-18.11-22.72-19.01-29.3-2.17-15.95,21.21-28.3,35.14-29.99Z"/>
  <path class="st0" d="M1688.12,879.83l18.97,8.09.93,24.1c-10.18,1.56-38.36-1.75-42.98-12.04-6.87-15.31,12.57-67.93,30.7-38.55l-7.62,18.41Z"/>
  <path class="st0" d="M1038.01,901.97l-7.47-21,18.19-16.83c6.53,1.15,22.62,30.1,20.98,36.46-.2.76-8.66,11.12-9.9,12.21-6.49,5.69-29.49,16.33-36.59,11.08-9.61-16.36-1.62-20.75,14.79-21.92Z"/>
  <path class="st0" d="M1575.24,1532.19c6.25-.95,7.19,19.43,12.5,23.14l-.65,2.74c-18.43,4.67-34.19,23.16-50.71,29.44-12.1,4.6-17.83-5.95-10.36-16.51,3.15-4.46,46.12-38.34,49.23-38.81Z"/>
  <path class="st0" d="M1900.01,1244.01l-16.01,62.49-3.86,2.66c-9.5,2.77-13.46-3.35-14.26-12.04-.51-5.52,5.39-56.72,7.03-59.21,4.87-7.38,19.86,8.63,27.11,6.1Z"/>
  <path class="st0" d="M1899.03,804.5c3.84.3,6.46,11.3,8.59,14.88,5.05,8.48,22.2,31.08,24.02,38.14,3.15,12.26-11.56,15.21-21.62,5.46-3.66-3.55-32.99-41.72-33.69-44.42-2.13-8.22,17.93-9.94,22.7-14.06Z"/>
  <path class="st0" d="M1148.05,490.07c13.83-.22,48.02-33.18,58.6-29.86,7.36,2.31,5.55,13.25,2.45,17.91-2.32,3.49-43.62,35.95-47.01,37.05-1.56.51-3.25,1.26-4.89.74l-9.16-25.84Z"/>
  <path class="st0" d="M1578.01,517.98l11.11-26.09c9.38,7.48,58.05,11.63,61.91,18.07,1.95,3.25,1.88,10.18-.98,13.09-8.23,8.38-58.97-3.49-72.04-5.07Z"/>
  <path class="st0" d="M1156,1530.01c2.64,2.72-8.38,23.96-10.99,27.94-15.42-11.31-39.83-8.59-56.13-15.84-13.2-5.87-6.03-19.26,6.28-19.97l60.84,7.86Z"/>
  <path class="st0" d="M809.42,1180.31c6.02-1.5,10.29.71,14.58,4.69,4.85,4.51,32.2,40.27,34.49,45.68.81,1.91,2.01,2.54-.29,4.39l-21.59,8.61-3.61-1.59c-3-16.11-27.45-38.34-30.05-51.94-.66-3.45,3.21-8.85,6.48-9.84Z"/>
  <path class="st0" d="M836.25,803.76l15.53-62.56c9.81-4.69,17.2,1.21,17.88,11.75-4.57,13.44-1.92,46.79-8.03,57.67-4.51,8.04-18.44-6.59-25.38-6.87Z"/>
  <path class="st0" d="M1394,940l-8.34,23.66c-6.85.91-41.28,4.97-43.89,1.16.12-3.8-12.1-24.82-4.77-24.82h57Z"/>
  <path class="st0" d="M1452,1050l-23.01-7.99c-2.83-13.72-4.53-28.19-2.03-42.04l20.97-9.1,4.07,2.14v57Z"/>
  <path class="st0" d="M1400.02,942c3.04-.81,3.32.81,5.01,1.97,4.74,3.26,34.69,30.99,37.07,34.93,6.37,10.51-12.99,12.67-20.69,14.8-5.11-6.98-30.15-22.94-29.11-30.19.83-5.83,8.35-14.34,7.73-21.51Z"/>
  <path class="st0" d="M1307.52,1056.4c3.32-.46,5.12-.92,8.43.61,1.54.71,24.33,21.48,25.05,23.02,3.51,7.56-4.24,19.14-8.03,25.97l-42.89-39.13c-.98-4.39,13.96-9.99,17.44-10.47Z"/>
  <path class="st0" d="M1329.98,948c-.27,8.31,8.2,14.14,5.69,22.57-.8,2.69-21.44,25.53-24.63,27.62-6.2,4.05-17.44-6.07-25.02-6.21-.63-3.06.32-4.64,1.89-7.07,1.8-2.78,32.24-33.22,35-35,2.45-1.58,3.98-2.5,7.08-1.91Z"/>
  <path class="st0" d="M1450,1058.03c1.76,2.27-35.27,39.45-38.97,42-1.69,1.16-1.99,2.78-5,1.96l-7.63-22.72c.35-1.8,21.98-25.9,24.51-27.39,9.29-5.48,18.21,4.77,27.1,6.16Z"/>
  <path class="st0" d="M1401.99,1107.99l-56.75,1.57c-8.57-2.54,2.97-20.38,5.17-25.13,8.79-.97,17.72-.28,26.57-.43,7.83-.13,10.12-6,16.72,3.32,1.55,2.19,9.13,19.93,8.3,20.67Z"/>
  <path class="st0" d="M1284.01,1057.99c1.7-5.98-3.27-59.63,1.13-60.06l21.88,10.04,3.04,37.04c.12,6.04-25.02,14.07-26.05,12.98Z"/>
  <path class="st0" d="M777.68,1239.7c-.57.9-4.71,1.22-6.35,2.55-2.75,2.23-13.07,13.75-15.32,11.75.83-9.97-15.91-36.29-10.21-43.19,2.66-3.22,16.82-6.3,20.29-3.91,2.27,1.56,14.49,28.26,11.59,32.81Z"/>
  <path class="st0" d="M1977.98,794c2.01,19.93,28.8,48.63-6.67,49.78-2.52-.71-18.01-28.76-14.42-33.87l21.1-15.91Z"/>
  <path class="st0" d="M1962,1292.02c-5.72,6.61-13.83,34.41-18.85,38.14-5.41,4.01-17.58-1.95-20.24-6.19-1.87-2.98,6.56-29.62,9.98-32.16l29.11.21Z"/>
  <path class="st0" d="M1573.48,1614.4c12.6-2.58,12.89,13.52,24.48,18.6-6.73,3.37-39.39,17.35-44.05,14.14-2.16-1.49-6.57-16.13-5.02-19.11,1.36-2.61,21.2-12.94,24.59-13.63Z"/>
  <path class="st0" d="M1181.75,402.26c1.22,5.52,6,14.7,3.35,19.75-.96,1.83-21.95,12.64-25.06,13.22-10.05,1.87-8.69-5.63-13.17-11.09-2.9-3.53-14.64-7.16-5.43-11.7,3.41-1.68,22.46-7.92,26.92-9.06,4.42-1.13,8.82-2.26,13.39-1.11Z"/>
  <path class="st0" d="M1101.66,1590.36l-1.67,27.63-36.77-16.2c-7.88-4.2,1.36-21.2,7.83-21.83,3.41-.33,29.24,8.07,30.61,10.4Z"/>
  <path class="st0" d="M774.01,757.99l18.9-40.19,3.72-1.49c25.46,6.32,12.53,25.54,4.44,41.91l-2.03,1.16c-8.62-3.98-16.05-4.42-25.03-1.38Z"/>
  <path class="st0" d="M1634.5,459.48l-1.71-4.47c.67-2.83,2.73-5.16,3.11-8.13.55-4.34-2.65-16.64,1.09-16.84l38.85,21.26c1.08,3.66-7.62,17.55-11.23,18.47l-30.11-10.29Z"/>
  <path class="st0" d="M1351.81,1031.82l-23.75,8.14-4.05-25.95c6.22.48,34.49,8.22,27.79,17.81Z"/>
  <path class="st0" d="M1403.59,998.32c.88,1.5.54,3.76.2,5.47-26.7,15.03-39.3,10.97-18.82-17.43,2.78,2.06,17.81,10.58,18.62,11.96Z"/>
  <path class="st0" d="M1353.97,1018.01l-23.91-8.09c-2.22-4.28,11.16-21.5,12.97-21.9,4.84-1.06,16.97,24.01,10.94,30Z"/>
  <path class="st0" d="M1407.99,1009.99l4,23.99c-3.44,2.44-32.9-5.41-29.99-15.95l25.99-8.05Z"/>
  <path class="st0" d="M1380.06,1032.05l25.95,9-15.01,20.92c-2.43,0-15.69-25.63-10.94-29.92Z"/>
  <path class="st0" d="M1351.48,1036.36c17.29-2.97,2.48,25.81-2.46,25.75-1.58-.02-18.44-11.42-19.01-15.08.28-1.16,19.52-10.34,21.47-10.67Z"/>
  <path class="st0" d="M1375.08,980.32l2.56,4.25c-4.29,9.34-3.62,21.06-14.67,25.33l-10.84-22.77,22.94-6.82Z"/>
  <path class="st0" d="M1358.01,1067.99c-.3-6.62,5.84-30.8,14.85-27.94,1.99.63,11.46,20.45,8.29,24.08l-23.14,3.85Z"/>
</svg>