<?xml version="1.0" encoding="UTF-8"?>
<svg id="Layer_0_xA0_Image" xmlns="http://www.w3.org/2000/svg" version="1.1" viewBox="0 0 2732 2048">
  <!-- Generator: Adobe Illustrator 30.2.1, SVG Export Plug-In . SVG Version: 2.1.1 Build 1)  -->
  <defs>
    <style>
      .st0 {
        fill: #63433a;
      }
    </style>
  </defs>
  <path class="st0" d="M1430,2048c-1.92-3.86-4.03-7.64-5.72-11.61-10.44-24.49-20.86-49-31.06-73.59-1.34-3.24-1.76-7-1.94-10.56-.47-9.54-.57-19.11-.84-29.6-10.58,2.29-19.9,4.7-29.36,6.21-5.79.92-11.98,1.49-17.68.46-109.39-19.64-218.74-39.54-328.09-59.4-1.49-.27-2.93-.8-4.46-2.82,1.99-.2,3.98-.65,5.96-.58,65.56,2.6,131.12,5.2,196.67,7.9,38.93,1.6,77.86,3.3,116.78,5.08,9.7.44,19.13-.19,28.65-2.63,24.49-6.28,49.15-11.94,73.75-17.79,2.8-.67,5.68-.96,9.21-1.55.57,17.47,1.19,34.06,1.62,50.65.32,12.32.75,24.65.49,36.97-.25,11.47,1.66,22.45,4.76,33.42,5.52,19.53,10.66,39.17,15.91,58.78.67,2.49,1.03,5.07,1.59,7.92-8.52.96-16.38,1.85-24.24,2.74h-12Z"/>
  <path class="st0" d="M1074,2048c-1.63-2.88-3.42-5.68-4.88-8.64-23.97-48.66-47.91-97.33-71.82-146.02-1.26-2.56-2.22-5.26-2.08-8.73,1.48,1.45,3.24,2.71,4.39,4.38,34.43,50.26,68.83,100.54,103.12,150.9,1.6,2.36,2.21,5.39,3.28,8.11h-32Z"/>
  <path class="st0" d="M1024,2048c-3.18-12.54-6.63-25.02-9.48-37.64-8.08-35.71-15.94-71.48-23.82-107.24-.61-2.77-.74-5.64.51-9.04,1.08,2.17,2.38,4.26,3.21,6.53,16.81,45.61,33.62,91.22,50.24,136.89,1.18,3.23.93,6.98,1.34,10.49h-22Z"/>
  <path class="st0" d="M1565.23,2044.98c1.26-12.17,2.19-23.05,3.55-33.87,3.27-26.11,5.85-52.19,5.7-78.62-.41-75.96-.03-151.93.03-227.9,0-3.92,0-7.84,0-12.7-16.85,3.71-32.41,7.08-47.94,10.58-66.88,15.07-133.88,29.68-200.57,45.57-22.25,5.3-43.79,13.7-65.5,21.13-78.42,26.83-156.77,53.85-235.15,80.78-3.03,1.04-6.15,1.81-9.97,1.2,1.65-1.16,3.17-2.56,4.95-3.45,92.79-45.96,185.51-92.08,278.55-137.53,10.23-5,22.29-6.41,33.62-8.95,83.13-18.67,166.27-37.34,249.5-55.55,8.24-1.8,17.16-.58,25.76-.61,3.45-.01,5.57,1.9,6.11,5.38,1.44,9.15,4.05,18.29,4.14,27.46.83,90.62,1.3,181.25,1.65,271.87.03,6.89-.99,13.95-2.68,20.64-5.61,22.27-11.71,44.41-17.71,66.58-2.51,9.26-2.62,9.28-12.3,8.96-6.88-.23-13.75-.62-21.74-.98Z"/>
  <path class="st0" d="M2387.68,826.53c-4.44-.27-7.73-.33-10.99-.7-19.84-2.29-39.67-4.72-59.52-6.95-5.95-.67-11.95-1.13-17.93-1.14-84.3-.14-168.6-.18-252.9-.25-3.28,0-6.55,0-10.54,0,.3,3.52.23,6.11.78,8.56,18.41,81.83,36.45,163.75,55.65,245.39,5.01,21.29,13.52,41.76,20.66,62.53,26.82,78.07,53.73,156.11,80.58,234.17.94,2.74,1.58,5.58,2.36,8.38-.63.31-1.25.63-1.88.94-1.76-3.19-3.65-6.32-5.27-9.59-34.27-69.23-68.51-138.48-102.76-207.73-8.86-17.91-17.37-36-26.69-53.66-6.29-11.92-10.25-24.4-13.14-37.47-18.86-85.14-37.83-170.26-57.04-255.32-2.27-10.03-1.35-19.87-.82-29.79.1-1.94,2.6-4.91,4.51-5.4,7.68-2,15.56-4.46,23.38-4.53,91.96-.82,183.92-1.32,275.88-1.63,7.53-.03,15.24,1.22,22.58,3.05,21.96,5.48,43.78,11.48,65.63,17.39,9.24,2.5,9.21,2.7,8.61,12.42-.41,6.6-.7,13.21-1.12,21.32Z"/>
  <path class="st0" d="M2228.78,1606.07c-2.5-2.93-4.78-5.31-6.73-7.94-29.05-39.18-61.98-74.83-96.83-108.92-44.07-43.11-87.21-87.16-130.76-130.8-2.54-2.54-5.19-4.98-8.36-8.02-2.12,2.89-3.98,5.12-5.52,7.55-44.18,69.81-88.35,139.63-132.46,209.48-2.84,4.49-5.38,9.2-7.72,13.98-43.56,89.17-87.06,178.36-130.59,267.54-1.69,3.46-3.53,6.83-5.31,10.25-.64-.27-1.27-.53-1.91-.8.54-2.37.87-4.81,1.64-7.09,33.04-97.77,66.1-195.52,99.26-293.25,1.27-3.73,3.13-7.35,5.24-10.69,49.38-77.95,98.71-155.94,148.47-233.65,4.91-7.67,12.49-13.66,18.92-20.34,2.9-3.02,5.88-1.84,9.01,0,8.34,4.88,16.18,10.18,23.16,17.11,63.32,62.98,126.94,125.66,190.27,188.63,5.82,5.79,10.91,12.58,15.16,19.61,11.54,19.1,22.49,38.55,33.59,57.91,4.77,8.31,4.69,8.52-2.45,15.05-5.14,4.7-10.38,9.29-16.09,14.38Z"/>
  <path class="st0" d="M1032.38,190.92c-.74,2.75-1.33,5.55-2.24,8.25-32.78,97.13-65.56,194.25-98.44,291.35-1.26,3.73-3.13,7.35-5.25,10.69-49.54,78.22-99.18,156.38-148.7,234.61-5.84,9.22-14.23,15.57-22.4,22.59-10.57-5.38-19.98-11.13-28.17-19.28-63.54-63.2-127.39-126.1-190.94-189.3-5.82-5.78-10.89-12.58-15.14-19.62-11.53-19.1-22.46-38.56-33.56-57.92-4.73-8.24-4.67-8.3,2.51-14.89,5.1-4.68,10.25-9.3,17-15.42,1.44,2.47,2.28,4.3,3.46,5.87,3.01,3.99,6.27,7.78,9.26,11.79,23.98,32.09,50.82,61.57,79.4,89.67,47.51,46.72,94.25,94.22,141.32,141.38,2.56,2.56,5.23,5.02,8.39,8.05,2.05-2.89,3.83-5.19,5.38-7.63,44.18-69.79,88.35-139.59,132.46-209.42,2.66-4.21,5.08-8.6,7.27-13.08,43.87-89.73,87.68-179.49,131.52-269.24,1.54-3.14,3.22-6.21,4.84-9.32l2.01.86Z"/>
  <path class="st0" d="M1948.38,163.58c-1.46,1.39-2.58,2.58-3.83,3.61-2.83,2.32-5.68,4.63-8.62,6.83-34.76,25.99-66.72,55.05-97.1,86.07-45.23,46.17-91.36,91.47-137.17,137.08-2.59,2.57-5.73,4.59-9.46,7.53,3.53,2.8,5.37,4.55,7.47,5.88,70.92,44.9,141.85,89.78,212.82,134.6,3.93,2.48,8.12,4.57,12.3,6.62,89.46,43.7,178.93,87.36,268.4,131.05,2.88,1.41,5.66,3.03,9.91,5.33-5.25,1.91-8.28-.31-11.34-1.34-64.98-21.9-129.94-43.86-194.9-65.81-30.9-10.44-61.84-20.77-92.69-31.39-5.28-1.82-10.47-4.32-15.19-7.3-76.01-48.07-151.86-96.39-227.95-144.33-10.68-6.73-19.09-15.33-27.58-25.88,4.77-7.98,8.55-16.76,15.42-23.71,64.69-65.37,129.34-130.78,194.16-196.01,5.09-5.12,11.05-9.64,17.25-13.36,19.43-11.63,39.15-22.78,58.79-34.05,8.86-5.08,8.92-5.04,15.84,2.47,4.06,4.41,8.06,8.88,12.05,13.36.43.48.63,1.16,1.45,2.74Z"/>
  <path class="st0" d="M806.77,1908.86c-7.3-7.96-13.78-15.02-20.75-22.61,2.36-2.24,4.19-4,6.05-5.74.48-.45,1.03-.84,1.57-1.24,40.93-30.09,77.68-64.8,113.18-101.03,41.74-42.6,84.32-84.39,126.57-126.48,2.58-2.57,5.54-4.78,9.05-7.78-3.14-2.45-4.97-4.14-7.04-5.45-70.64-44.72-141.3-89.42-211.99-134.07-3.93-2.48-8.1-4.62-12.28-6.66-89.75-43.87-179.52-87.69-269.28-131.55-2.9-1.42-5.7-3.04-8.06-6.33,2.27.47,4.62.72,6.8,1.46,97.78,32.97,195.56,65.97,293.29,99.07,4.04,1.37,7.88,3.55,11.51,5.85,77.38,49.03,154.65,98.22,232.12,147.11,8.42,5.31,14.39,12.74,21.05,19.68,2.93,3.05,2.05,5.82.17,8.98-4.93,8.3-10.13,16.21-17.07,23.19-62.98,63.31-125.65,126.93-188.64,190.24-6.01,6.05-13.13,11.26-20.44,15.7-18.22,11.06-36.83,21.46-55.31,32.09-3.14,1.8-6.39,3.4-10.51,5.58Z"/>
  <path class="st0" d="M746.15,1269.3c-10.68,3.19-20.65,6.31-31.54,6.33-90.3.18-180.6.68-270.89.79-8.53,0-17.27-1.24-25.57-3.28-21.32-5.25-42.46-11.25-63.66-17.02-8.71-2.37-8.81-2.46-8.44-11.62.29-7.19-.2-14.5,1.62-22.35,14.68,1.66,28.51,3.17,42.33,4.79,21.82,2.55,43.58,4.99,65.67,4.89,76.97-.34,153.94-.05,230.91,0,3.97,0,7.93,0,12.67,0-.15-2.5,0-4.37-.4-6.11-18.5-82.49-36.48-165.11-55.95-247.37-5.8-24.51-15.66-48.07-23.87-71.99-25.51-74.3-51.12-148.56-76.67-222.84-1.16-3.38-2.07-6.86-3.51-11.66,5.06,2.05,5.6,5.84,7,8.68,32.11,64.73,64.14,129.5,96.18,194.26,9.3,18.8,18.16,37.85,28.04,56.34,9.98,18.66,16.57,38.2,21.07,58.89,18.12,83.25,36.95,166.35,55.53,249.51,2.22,9.94,1,19.73-.52,29.78Z"/>
  <path class="st0" d="M1169.67,4.42c-.73,7.74-1.27,14.61-2.06,21.45-2.22,19.18-4.58,38.35-6.81,57.53-.35,2.97-.46,5.98-.46,8.97-.07,84.96-.12,169.93-.17,254.89,0,2.63,0,5.26,0,8.98,3.57-.33,6.43-.29,9.14-.9,81.83-18.4,163.74-36.42,245.39-55.62,21.28-5.01,41.74-13.6,62.5-20.73,78.07-26.82,156.11-53.71,234.17-80.56,2.44-.84,4.95-1.49,8.68-2.61-1.71,5.14-5.57,5.59-8.41,7-42.34,21.05-84.71,42.03-127.08,63-42.67,21.12-85.52,41.9-127.95,63.5-16.78,8.54-34.1,14.43-52.44,18.45-82.89,18.21-165.64,37.05-248.56,55.14-10.18,2.22-21.06,1.27-32.15,1.81-3.74-10.05-6.87-19.15-6.92-28.79-.5-93.96-.83-187.92-1.08-281.88-.01-4.26.7-8.64,1.78-12.78,6.06-23.18,12.32-46.32,18.57-69.45,2.51-9.28,2.57-9.23,12.33-8.61,6.9.44,13.81.78,21.53,1.21Z"/>
  <path class="st0" d="M1719.15,225.73c-1.69,7.98-5.2,15.3-9.17,22.43-36.33,65.17-72.67,130.34-109.01,195.5-33.1,59.35-66.3,118.64-99.14,178.12-4.02,7.28-8.68,11.19-17.13,13.03-81.32,17.71-162.52,35.95-243.76,54.01-2.22.49-4.5.7-7.53,1.16-8.4-22.98-16.7-45.69-25.31-69.25,3.36-1.17,5.7-2.25,8.15-2.81,84.05-19.22,168.09-38.48,252.2-57.43,7-1.58,11.71-4.63,15.9-10.49,75.26-105.53,150.72-210.91,226.15-316.31,2.21-3.09,4.6-6.05,6.9-9.08l1.74,1.12Z"/>
  <path class="st0" d="M554.41,1340.42c6.34-3.85,13.21-6.6,20.42-8.65,93.47-26.56,186.93-53.13,280.4-79.68,44.81-12.73,89.66-25.33,134.41-38.28,6.59-1.91,11.77-1.47,17.7,2.32,70.12,44.88,140.41,89.49,210.65,134.19,2.47,1.57,4.8,3.39,7.77,5.49-10.35,22.28-20.54,44.21-31.3,67.38-4.26-2.44-7.65-4.23-10.89-6.26-70.77-44.48-141.59-88.87-212.18-133.64-8.05-5.11-15.26-7.2-25-5.51-61.97,10.76-124.07,20.79-186.12,31.08-54.5,9.04-109,18.09-163.49,27.14-10.5,1.75-20.99,3.59-31.51,5.29-3.42.55-6.89.79-10.33,1.17-.17-.68-.34-1.37-.51-2.05Z"/>
  <path class="st0" d="M1683.53,1837.74c-4.59-6.79-7.16-14.52-9.39-22.37-14.29-50.28-28.51-100.58-42.79-150.87-24.74-87.11-49.43-174.24-74.37-261.29-2.07-7.24-1.61-12.86,2.63-19.45,44.26-68.99,88.15-138.21,132.15-207.36,1.96-3.07,3.99-6.1,6.71-10.24,22.3,10.34,44.44,20.6,67.67,31.38-2.5,4.37-4.28,7.79-6.33,11.05-44.86,71.37-89.64,142.79-134.8,213.97-4.67,7.36-5.73,14.12-4.31,22.49,10.66,62.7,20.95,125.46,31.37,188.2,10.36,62.41,20.75,124.81,31.11,187.22.92,5.53,1.68,11.08,2.52,16.62-.72.22-1.44.44-2.17.66Z"/>
  <path class="st0" d="M1701.98,890.46c23.32-8.52,45.77-16.72,69.37-25.34,1.12,3.46,2.2,6.09,2.83,8.82,17.95,78.53,35.85,157.08,53.8,235.62,1.93,8.43,2.22,18.03,6.69,24.84,4.46,6.79,13.12,10.92,20.14,15.94,101.31,72.56,202.66,145.06,303.99,217.59,2.89,2.07,5.7,4.25,8.07,7.27-8.09-.6-15.14-3.78-21.93-7.56-41.04-22.83-82.05-45.72-123.07-68.6-84.07-46.89-168.09-93.87-252.28-140.54-7.02-3.89-10.57-8.5-12.32-16.49-17.84-81.63-36.15-163.15-54.3-244.71-.42-1.9-.56-3.86-.98-6.84Z"/>
  <path class="st0" d="M1015.18,1822.63c3.2-7.15,5.89-14.58,9.68-21.39,56.65-101.84,113.44-203.61,170.2-305.39,13.13-23.56,26.45-47.01,39.24-70.76,3.33-6.19,7.74-9.09,14.39-10.55,81.24-17.91,162.43-36.03,243.65-54.06,2.58-.57,5.24-.76,9.17-1.32,8.39,22.88,16.79,45.78,25.55,69.67-7.09,1.82-12.77,3.43-18.52,4.74-80.47,18.3-160.94,36.64-241.46,54.7-7.68,1.72-12.71,5.44-17.27,11.83-74.82,104.96-149.88,209.75-224.89,314.57-2.27,3.17-4.7,6.24-7.05,9.35-.89-.46-1.79-.93-2.68-1.39Z"/>
  <path class="st0" d="M2181,709.27c-7.6,2.88-15.05,6.32-22.84,8.55-65.28,18.72-130.62,37.23-195.96,55.78-72.06,20.46-144.14,40.81-216.15,61.44-7.24,2.07-12.87,1.49-19.44-2.72-69.27-44.43-138.77-88.49-208.2-132.66-2.78-1.77-5.49-3.66-9.29-6.2,10.36-22.35,20.62-44.49,31.4-67.76,4.57,2.69,7.96,4.58,11.25,6.65,71.64,45.05,143.32,90.02,214.79,135.33,6.48,4.11,12.51,5.09,19.72,3.89,92.28-15.39,184.58-30.66,276.88-45.99,37.44-6.22,74.87-12.53,112.31-18.76,1.58-.26,3.2-.23,4.8-.33.24.93.49,1.85.73,2.78Z"/>
  <path class="st0" d="M1032.8,1158.64c-22.95,8.39-45.62,16.67-69.65,25.45-1.27-4.84-2.36-8.53-3.21-12.27-18.85-82.76-37.73-165.52-56.39-248.32-1.56-6.91-4.69-11.65-10.57-15.84-105.53-75.23-210.9-150.69-316.29-226.12-3.08-2.2-6.03-4.58-8.5-7.71,8.26.67,15.3,3.98,22.15,7.8,72.73,40.54,145.46,81.09,218.18,121.64,52.36,29.2,104.67,58.48,157.15,87.47,6.59,3.64,10.33,7.96,12,15.6,17.72,80.97,35.83,161.85,53.8,242.76.64,2.87.83,5.83,1.34,9.54Z"/>
  <path class="st0" d="M1052.34,211.31c2.58,6.66,5.71,13.17,7.66,20.01,39.39,138.25,78.6,276.56,118.09,414.78,2.13,7.45,1.15,13.03-2.98,19.48-44.37,69.26-88.45,138.71-132.61,208.11-1.77,2.78-3.65,5.48-6.12,9.18-22.37-10.37-44.52-20.63-67.78-31.41,2.71-4.54,4.63-7.93,6.7-11.22,45.01-71.62,89.98-143.26,135.17-214.76,3.97-6.27,5.31-11.92,4.02-19.5-14.29-83.99-28.11-168.06-42.05-252.1-7.35-44.32-14.71-88.65-22.01-132.98-.48-2.89-.51-5.86-.75-8.79.89-.27,1.77-.53,2.66-.8Z"/>
  <path class="st0" d="M1247.72,248.31c17.81-3.89,34.37-7.42,50.89-11.12,35.39-7.93,70.71-16.23,106.19-23.76,10.03-2.13,20.5-2.23,30.78-3.07,44.47-3.65,88.95-7.19,133.41-10.86,48.12-3.97,96.23-8.04,144.34-12.04,1.83-.15,3.69-.02,6.7-.02-7.56,4.12-499.88,117.39-518.06,119.4-1.28-100.82-1.89-201.51-1.94-303.33h34.01c1.91,12.39,3.87,25.15,5.84,37.91,2.43,15.78,4.91,31.56,7.24,47.36.48,3.27.5,6.63.5,9.95.06,45.97.08,91.95.11,137.92,0,3.58,0,7.17,0,11.67Z"/>
  <path class="st0" d="M2206.58,682.87c-149.32-93.78-298.65-187.55-447.45-281-.26-1.18-.37-1.49-.39-1.8-.02-.32-.07-.77.11-.95,68.76-69.76,137.53-139.5,206.32-209.23,1.83-1.86,3.86-3.53,6.26-5.7,7.49,8.36,14.74,16.45,22.61,25.23-.95,1.39-2.72,4.15-4.66,6.78-15.02,20.38-30.04,40.76-45.14,61.09-1.97,2.65-4.31,5.06-6.65,7.41-32.47,32.57-64.93,65.13-97.51,97.59-2.57,2.57-5.94,4.34-9.75,7.07,4.22,3.16,6.16,4.82,8.28,6.17,40.15,25.63,80.35,51.18,120.46,76.88,6.69,4.29,13.31,8.82,19.37,13.93,74.62,62.95,149.13,126.03,223.66,189.09,1.99,1.68,3.91,3.43,5.87,5.14-.47.77-.94,1.53-1.41,2.3Z"/>
  <path class="st0" d="M650.16,1190.35c-101.38.64-201.9,1.28-303.51,1.92-1.32-11.48-.87-22.28-.83-34.1,8.48-1.38,16.57-2.76,24.67-4.01,20.39-3.14,40.79-6.27,61.2-9.27,3.6-.53,7.3-.51,10.95-.52,45.65-.06,91.3-.07,136.95-.1,3.29,0,6.58,0,10.92,0-.51-3.82-.7-7-1.39-10.07-10.91-48.71-22.27-97.32-32.59-146.16-2.94-13.91-3-28.45-4.18-42.72-5.64-68.37-11.19-136.75-16.84-205.13-1.56-18.92-3.41-37.81-5.03-56.72-.28-3.28-.04-6.61,1.18-10.53.77,2.08,1.8,4.09,2.29,6.23,16.35,71.38,32.65,142.77,48.95,214.16,21.93,96.05,43.87,192.1,65.78,288.15.57,2.5.84,5.07,1.46,8.86Z"/>
  <path class="st0" d="M977.6,1649.09c-71.51,72.29-142.2,143.75-213.84,216.18-8.27-7.93-16.06-15.4-24.33-23.31,2.11-3.17,3.8-5.93,5.71-8.53,15.18-20.67,30.36-41.34,45.64-61.94,1.97-2.66,4.41-4.98,6.76-7.34,32.47-32.56,64.97-65.09,97.45-97.64,2.51-2.52,4.89-5.17,7.83-8.3-3.38-2.36-5.97-4.33-8.71-6.07-39.03-24.91-78.13-49.71-117.07-74.75-8.08-5.2-15.97-10.82-23.31-17.01-73.11-61.64-146.08-123.44-219.09-185.2-2.73-2.31-5.42-4.68-8.25-7.12.99-.79,1.22-1.06,1.52-1.19.28-.12.71-.21.92-.08,147.85,92.73,295.68,185.47,443.5,278.24,1.37.86,2.57,1.97,5.28,4.08Z"/>
  <path class="st0" d="M526.91,419.86c8.28-7.32,16.22-14.33,25.05-22.13,1.55,1.05,4.56,2.96,7.43,5.06,20.4,14.99,40.79,29.99,61.11,45.09,2.65,1.97,4.99,4.4,7.34,6.74,32.79,32.71,65.56,65.44,98.35,98.15,2.29,2.29,4.73,4.43,7.64,7.14,2.25-3.25,4.2-5.87,5.95-8.61,24.74-38.74,49.34-77.58,74.25-116.21,5.93-9.19,12.41-18.11,19.45-26.47,61.62-73.12,123.43-146.09,185.2-219.09,1.65-1.95,3.51-3.72,5.34-5.65.66.72.95.93,1.08,1.22.11.25.18.66.05.87-92.38,147.29-184.78,294.57-277.19,441.84-1.22,1.94-2.66,3.73-3.98,5.56-7.12-3.99-202.08-195.65-217.08-213.52Z"/>
  <path class="st0" d="M1991.58,1413.94c72.96,72.19,144.41,142.89,216.63,214.34-8.02,8.33-15.52,16.12-23.36,24.26-2.96-1.95-5.48-3.46-7.85-5.19-20.94-15.37-41.87-30.75-62.73-46.22-2.65-1.97-4.94-4.45-7.3-6.8-32.54-32.47-65.06-64.96-97.61-97.43-2.55-2.54-5.2-4.97-8.3-7.93-2.34,3.48-4.24,6.17-6.01,8.95-24.91,39.01-49.72,78.09-74.78,117.01-5.38,8.35-11.22,16.49-17.62,24.08-62.05,73.6-124.26,147.06-186.45,220.55-1.62,1.92-3.45,3.65-6.87,7.24.84-3.53.83-4.85,1.42-5.8,93.27-148.54,186.58-297.05,280.81-447.05Z"/>
  <path class="st0" d="M2202.38,1376.16c-39.29-171.92-78.57-343.84-117.84-515.66,6.97-2.34,290.95-4.46,304.05-2.42v32.62c-4.35.86-9.41,2.06-14.54,2.84-23.04,3.5-46.08,6.93-69.14,10.26-3.6.52-7.3.54-10.96.55-45.98.07-91.96.09-137.94.12-3.62,0-7.24,0-12.03,0,.69,3.84,1.1,6.66,1.71,9.43,10.93,49.05,22.06,98.06,32.69,147.17,2.03,9.37,2.23,19.16,3.03,28.77,2.98,35.84,5.8,71.7,8.79,107.54,3.66,43.8,7.45,87.59,11.15,131.39,1.26,14.93,2.43,29.87,3.57,44.82.06.77-.57,1.6-.87,2.4-.56.06-1.12.12-1.68.18Z"/>
  <path class="st0" d="M1016.12,1859.37c171.77-39.25,343.55-78.51,514.31-117.53,1.5.8,1.84.9,2.06,1.13.23.23.47.57.47.86.69,97.59,1.37,195.18,2.02,292.78.02,2.32-.21,4.64-.46,6.95-.06.59-.64,1.13-1.3,2.23h-32.24c-1.54-9.6-3.13-19.03-4.56-28.48-2.8-18.43-5.58-36.86-8.2-55.32-.56-3.93-.56-7.97-.56-11.95-.07-45.65-.09-91.3-.12-136.94,0-3.58,0-7.16,0-11.97-4.82.86-8.35,1.36-11.82,2.14-48.39,10.82-96.7,22.01-145.2,32.28-12.94,2.74-26.47,2.79-39.74,3.89-36.18,3-72.37,5.82-108.54,8.84-51.44,4.31-102.86,8.74-154.29,13.1-3.91.33-7.83.52-11.75.77-.03-.93-.06-1.85-.09-2.78Z"/>
  <path class="st0" d="M2160.65,1361.44c-1.46-.99-3.03-1.86-4.37-2.99-88.86-75.55-177.67-151.14-266.6-226.6-4.58-3.89-7.1-8.14-8.43-14.02-20.09-88.63-40.4-177.2-60.73-265.78-1.25-5.43-1.15-10.44,1.7-15.41,2.14-3.75,3.51-7.95,5.76-11.62,1.29-2.11,3.36-4.45,5.56-5.16,12.9-4.12,25.95-7.78,41.02-12.2-1.95,7.01-2.99,12.42-4.97,17.46-2.44,6.23-2.18,12.17-.69,18.54,20.48,87.85,40.88,175.73,61.14,263.63,1.55,6.7,4.41,12.09,9.21,17.15,73.19,77.1,146.19,154.37,219.22,231.62,1.22,1.29,2.16,2.84,3.24,4.27-.35.38-.71.75-1.06,1.13Z"/>
  <path class="st0" d="M568.81,1347.13c1.69-.33,3.36-.82,5.06-.96,69.39-5.55,138.78-11.03,208.16-16.62,46.47-3.74,92.95-7.55,139.4-11.58,6.68-.58,12.16.89,17.79,4.44,75.78,47.82,151.53,95.69,227.68,142.91,11.6,7.19,13.09,18.38,16.81,29.09.53,1.52-.6,3.9-1.51,5.59-5.85,10.84-11.84,21.61-17.85,32.37-.42.76-1.4,1.2-3.15,2.64-2.83-5.22-5.66-9.95-7.99-14.91-2.49-5.3-6.06-9.16-11.11-12.3-77.53-48.16-154.96-96.47-232.4-144.78-4.27-2.66-8.42-4.7-13.81-4.84-100.92-2.64-201.84-5.5-302.76-8.3-8.06-.22-16.12-.4-24.19-.6-.04-.72-.09-1.44-.13-2.16Z"/>
  <path class="st0" d="M1045.13,226.01c.83,8.71,1.76,17.4,2.47,26.12,5.33,65.38,10.63,130.77,15.91,196.16,3.51,43.48,6.86,86.98,10.53,130.45.57,6.69-1.03,12.13-4.59,17.76-47.82,75.76-95.69,151.5-142.89,227.65-7.23,11.67-18.57,12.78-29.2,16.64-1.28.46-3.33-.38-4.73-1.15-11.37-6.25-22.67-12.62-33.96-19.02-.46-.26-.57-1.12-1.25-2.59,5.13-2.77,10.22-5.77,15.54-8.3,4.7-2.23,8.05-5.47,10.8-9.91,48.54-78.06,97.17-156.07,145.87-234.03,2.74-4.39,4.02-8.8,4.16-14.02,2.13-83.59,4.43-167.18,6.69-250.77.62-22.98,1.23-45.96,1.9-68.93.06-2.06.55-4.1.84-6.15.63.03,1.27.06,1.9.09Z"/>
  <path class="st0" d="M1572.92,512.24c4.06,7.67,6.66,13.41,10.04,18.65,2.26,3.5,5.11,7.09,8.57,9.26,78.47,49.13,157.04,98.11,235.7,146.94,3.18,1.97,7.39,3.07,11.17,3.19,43.95,1.47,87.9,2.69,131.86,3.95,64.27,1.84,128.53,3.65,192.8,5.5.96.03,1.9.41,4.95,1.11-3.86,1-5.8,1.8-7.8,1.97-19.91,1.72-39.82,3.35-59.73,4.97-47.46,3.88-94.91,7.77-142.37,11.6-36.18,2.92-72.36,5.75-108.54,8.64-12.61,1.01-25.23,1.94-37.82,3.25-4.87.51-8.95-.24-13.19-2.91-77.77-49.01-155.59-97.93-233.51-146.68-5.33-3.33-6.98-8.29-9.56-13.33-5.31-10.34-4.27-19.31,2.18-28.8,5.36-7.9,9.42-16.7,15.28-27.33Z"/>
  <path class="st0" d="M860.26,1240.38c2.12-6.83,3.49-11.96,5.31-16.93,2.01-5.49,2.15-10.7.79-16.52-20.91-89.43-41.56-178.93-62.47-268.36-.93-3.97-3.13-8.15-5.92-11.12-72.87-77.35-145.9-154.55-218.9-231.78-2.02-2.14-4.02-4.31-5.22-7.68,1.74.98,3.7,1.71,5.2,2.99,88.59,75.28,177.13,150.64,265.77,225.87,4.51,3.83,7.55,7.88,8.88,13.78,19.98,88.28,40.06,176.54,60.38,264.75,1.6,6.96,1.29,13-2.3,19.03-1.02,1.71-1.94,3.53-2.56,5.41-2.19,6.69-6.84,9.97-13.61,11.55-9.06,2.12-17.91,5.12-26.89,7.63-2.13.59-4.38.74-8.44,1.38Z"/>
  <path class="st0" d="M1584.42,1531.91c-7.55-2.28-12.91-3.65-18.1-5.53-5.51-1.99-10.73-2.08-16.53-.72-89.46,20.91-178.95,41.65-268.48,62.24-5.25,1.21-8.92,4.05-12.58,7.51-69.48,65.71-139,131.39-208.51,197.07-9.37,8.85-18.76,17.68-29.53,25.43.88-1.42,1.59-2.99,2.66-4.25,74.45-87.6,148.97-175.12,223.29-262.82,6.06-7.15,12.52-11.54,22.01-13.66,86.4-19.33,172.73-39,258.93-59.24,13.28-3.12,22.2,3.94,32.36,8.95,1.43.71,2.25,3.23,2.8,5.07,3.72,12.4,7.29,24.85,11.69,39.95Z"/>
  <path class="st0" d="M1151.96,517.35c6.46,1.98,11.65,3.2,16.53,5.18,5.88,2.38,11.55,2.1,17.56.7,88.47-20.59,176.95-41.1,265.46-61.55,5.68-1.31,10.31-3.74,14.62-7.82,77.58-73.57,155.29-147.01,232.99-220.46,1.19-1.12,2.48-2.14,4.76-2.58-.72,1.52-1.14,3.29-2.19,4.53-75.7,89.09-151.46,178.13-227.18,267.21-3.3,3.89-6.74,6.67-12.12,7.89-89.24,20.19-178.43,40.63-267.62,61.09-5.46,1.25-10.5,1.08-15.39-1.85-1.99-1.19-4.09-2.35-6.29-3.02-7.08-2.16-10.8-6.76-12.45-14.02-2.06-9.07-5.15-17.9-7.62-26.88-.64-2.33-.63-4.84-1.05-8.41Z"/>
  <path class="st0" d="M1690.17,1823c-.53-3.47-1.28-6.92-1.55-10.41-3-37.53-5.85-75.07-8.9-112.59-4.32-53.13-8.78-106.24-13.16-159.36-2.02-24.57-3.85-49.15-6.09-73.7-.47-5.19,1.71-8.95,4.2-12.9,28.03-44.56,56.04-89.14,84.06-133.7,20.22-32.16,40.78-64.1,60.47-96.58,6.91-11.41,18.5-11.72,28.79-15.53,1.02-.38,2.65.31,3.77.92,11.95,6.49,23.86,13.06,37.64,20.63-6.3,3.5-10.94,6.37-15.84,8.72-5.56,2.67-9.73,6.38-13.06,11.74-48.14,77.57-96.44,155.04-144.82,232.47-2.76,4.42-4.06,8.81-4.2,14-1.85,69.3-3.85,138.59-5.84,207.88-1.09,37.98-2.23,75.95-3.37,113.93-.04,1.46-.41,2.91-.62,4.36-.5.04-.99.08-1.49.12Z"/>
  <path class="st0" d="M1604.77,1609.71c-5.82-.84-11.94-2.09-18.12-2.49-5.54-.36-11.34-.68-16.68.53-88.92,20.13-177.8,40.43-266.62,60.97-6.65,1.54-13.3,4.41-19.11,8-83.85,51.8-167.56,103.82-251.31,155.79-2.93,1.82-5.93,3.53-9.38,4.56.43-4.52,3.98-5.98,6.59-8.05,61.35-48.6,122.77-97.12,184.17-145.66,21.69-17.14,43.41-34.24,65-51.5,4.25-3.4,8.69-5.76,14.06-6.98,89.87-20.44,179.71-41.01,269.56-61.56,10.23-2.34,19.62,1.97,29.32,3.71,1.22.22,2.59,2.23,3.03,3.67,3.68,12.07,7.17,24.21,10.65,36.34.13.47-.48,1.15-1.17,2.67Z"/>
  <path class="st0" d="M1950.91,1268.84c-4.03,3.23-6.17,5.35-8.67,6.87-10.82,6.54-18.3,15.84-24.95,26.55-46.25,74.39-92.97,148.48-139.32,222.81-3.61,5.8-6.44,12.45-8.01,19.09-22.83,96.51-45.38,193.09-68.03,289.64-.64,2.73-1.7,5.35-4.25,7.8-.11-1.69-.48-3.42-.29-5.08,5.28-45.64,10.65-91.27,15.95-136.9,4.96-42.66,9.87-85.32,14.8-127.99,2.14-18.52,4.32-37.04,6.37-55.57.68-6.11,3.03-11.38,6.29-16.56,47.71-75.83,95.46-151.63,142.72-227.74,6.39-10.3,16.03-15.63,25.3-21.89,1.49-1.01,4.67-.81,6.42.08,11.53,5.86,22.88,12.06,35.66,18.89Z"/>
  <path class="st0" d="M1123.18,1608.07c-4.63-6.08-8.41-10.6-11.69-15.45-3.81-5.63-8.56-9.94-14.35-13.56-76.8-48.01-153.47-96.21-230.32-144.14-5.8-3.62-12.45-6.49-19.09-8.06-95.2-22.48-190.47-44.68-285.72-66.96-3.97-.93-7.89-2.07-11.83-3.11.18-.9.35-1.8.53-2.7,8.29.8,16.61,1.46,24.88,2.43,50.58,5.88,101.16,11.83,151.73,17.76,50.58,5.93,101.16,11.83,151.72,17.93,3.47.42,7.07,1.89,10.06,3.76,78.47,49.09,156.87,98.32,235.3,147.48,8.94,5.6,12.48,15.33,18.25,23.34.72,1,.42,3.33-.24,4.62-6.04,11.77-12.26,23.44-19.23,36.68Z"/>
  <path class="st0" d="M782.05,1264.41c1.06-7.91,2.2-14.01,2.61-20.16.37-5.54.91-11.36-.29-16.68-20.13-88.98-40.45-177.92-61.03-266.8-1.61-6.96-4.66-13.91-8.43-20.01-51.64-83.64-103.53-167.12-155.34-250.66-1.81-2.93-3.39-6-5.84-10.35,5.89,1.31,7.28,5,9.36,7.63,52.36,66.1,104.65,132.25,156.94,198.4,13.23,16.73,26.33,33.57,39.76,50.14,3.9,4.81,6.35,9.92,7.71,15.9,19.5,85.71,38.81,171.47,58.98,257.02,3.05,12.95,2.35,24.92-.66,37.24-.55,2.26-2.36,5.29-4.28,5.95-12.48,4.26-25.16,7.97-39.5,12.39Z"/>
  <path class="st0" d="M1611.73,441.03c3.01,3.7,4.71,5.34,5.88,7.31,7.16,12.07,17.64,20.25,29.46,27.6,74.13,46.08,147.98,92.62,222.04,138.81,5.24,3.27,11.3,5.77,17.32,7.19,96.88,22.87,193.81,45.5,290.72,68.22,2.71.63,5.31,1.72,7.72,4.19-1.41.16-2.86.59-4.23.43-39.37-4.5-78.74-9.03-118.11-13.61-37.05-4.32-74.08-8.74-111.13-13.07-30.76-3.59-61.56-6.91-92.28-10.81-5.39-.68-11.02-2.8-15.65-5.69-76.87-47.99-153.52-96.33-230.45-144.22-9.71-6.04-14.1-15.67-20.26-24.19-.95-1.31-1.02-4.14-.26-5.64,5.98-11.77,12.26-23.39,19.23-36.53Z"/>
  <path class="st0" d="M2178.31,1369.34c-1.93-2.22-3.96-4.37-5.79-6.67-65.72-83.11-131.39-166.25-197.18-249.31-4.04-5.1-6.51-10.47-7.96-16.85-20.09-88.28-40.35-176.52-60.74-264.73-2.54-10.99,1.05-21.08,3.23-31.42.28-1.32,1.91-2.94,3.25-3.37,12.56-4.05,25.2-7.86,39.39-12.23-.63,5.99-.79,10.23-1.58,14.36-1.77,9.26-1.68,18.17.5,27.57,20.48,88.19,40.49,176.49,60.89,264.7,1.31,5.68,4.13,11.24,7.23,16.25,51.69,83.57,103.54,167.04,155.33,250.55,2,3.23,3.84,6.57,5.75,9.85-.78.44-1.55.87-2.33,1.31Z"/>
  <path class="st0" d="M1127.71,439.25c8.27,1.1,14.75,2.32,21.27,2.71,5.55.33,11.36.58,16.72-.63,89.57-20.36,179.1-40.91,268.59-61.63,5.38-1.25,10.68-3.78,15.41-6.7,83.84-51.86,167.59-103.89,251.37-155.85,3.21-1.99,6.56-3.77,9.84-5.65l1.52,2.23c-2.88,2.4-5.72,4.87-8.66,7.2-80.22,63.45-160.53,126.78-240.58,190.45-9.64,7.67-19.75,12.47-31.81,15.18-85.4,19.19-170.7,38.84-255.96,58.64-11.04,2.56-21.11-.63-31.4-2.95-1.99-.45-4.21-3.29-4.92-5.49-3.81-11.67-7.19-23.49-11.38-37.49Z"/>
  <path class="st0" d="M1038.12,207.57c-.94,8.89-1.81,17.78-2.84,26.65-4.43,38.03-8.9,76.06-13.39,114.09-5.07,42.98-10.19,85.96-15.25,128.94-2.26,19.18-4.29,38.39-6.73,57.54-.49,3.81-1.71,7.86-3.73,11.1-49.09,78.52-98.35,156.92-147.51,235.4-5.61,8.96-15.24,12.6-23.29,18.31-1.07.76-3.45.62-4.74-.05-11.73-6.04-23.36-12.29-36.69-19.36,6.08-4.65,10.56-8.42,15.39-11.67,5.65-3.79,9.96-8.54,13.58-14.33,48.03-76.82,96.26-153.52,144.2-230.4,3.62-5.8,6.46-12.46,8.03-19.11,22.49-95.24,44.69-190.54,66.98-285.83.94-4.01,2.06-7.97,3.1-11.95.96.22,1.92.44,2.89.66Z"/>
  <path class="st0" d="M1723.26,181.65c-8.94,0-17.9.29-26.83-.05-51.59-1.96-103.17-4.07-154.75-6.13-48.25-1.93-96.5-3.96-144.77-5.69-5.89-.21-11.96.6-17.72,1.92-26.59,6.11-53.1,12.58-79.65,18.89-1.87.45-3.79.71-6.37,1.19-.31-3.12-.74-5.65-.8-8.18-.68-29.97-1.23-59.95-2.03-89.91-.13-4.93-.9-9.94-2.14-14.72-5.62-21.57-11.53-43.07-17.3-64.61-.85-3.16-1.54-6.37-2.29-9.49,6.58-2.8,22.62-3.86,37.3-2.47,1.22,2.59,2.71,5.52,3.99,8.53,10.87,25.4,21.75,50.78,32.46,76.25,1.11,2.63,1.4,5.75,1.45,8.66.17,9.62.07,19.25.07,30.3,6.04-1.1,11.17-1.6,16.05-3.01,14.62-4.2,28.92-4.33,44.09-1.45,79.12,14.97,158.41,29.07,237.65,43.45,24.23,4.4,48.48,8.7,72.71,13.07,3.14.57,6.25,1.32,9.37,1.99-.17.49-.33.98-.5,1.47Z"/>
  <path class="st0" d="M519.49,1368.19c1.57,1.35,3.29,2.56,4.68,4.07,70.27,76.1,140.58,152.17,210.68,228.42,8.43,9.17,17.57,16.99,28.34,23.3,19.82,11.61,39.27,23.85,58.86,35.85,2.8,1.71,5.51,3.56,8.96,5.8-1.9,2.4-3.31,4.5-5.03,6.31-20.25,21.19-40.62,42.26-60.75,63.56-4.07,4.31-7.74,9.16-10.74,14.27-11.15,18.93-21.94,38.07-32.9,57.12-1.79,3.11-3.73,6.14-6.2,10.2-9.69-9.01-18.59-17.29-27.67-25.73,6.52-16.17,12.75-31.55,18.92-46.96,5.2-12.96,10.24-25.99,15.59-38.9,1.1-2.65,2.96-5.13,4.95-7.23,6.84-7.21,13.88-14.22,21.83-22.3-9.09-5.81-17.27-11.33-25.75-16.35-5.3-3.14-9.25-7.26-12.73-12.29-63.09-91.19-126.27-182.31-189.42-273.45-1.04-1.51-1.89-3.15-2.83-4.72.4-.32.81-.64,1.21-.96Z"/>
  <path class="st0" d="M2213.86,681.97c-1.03-1.71-1.8-3.65-3.12-5.09-71.81-77.91-143.63-155.82-215.63-233.55-5.12-5.53-11.24-10.39-17.62-14.43-21.39-13.52-43.12-26.52-64.71-39.75-2.82-1.73-5.56-3.57-8.99-5.78,1.88-2.31,3.34-4.37,5.07-6.17,19.8-20.72,39.77-41.26,59.37-62.17,5.17-5.52,9.76-11.79,13.64-18.3,10.93-18.3,21.33-36.91,31.99-55.37,1.61-2.79,3.45-5.45,5.86-9.23,8.74,8.12,16.74,15.5,24.69,22.96,3.11,2.92,1.48,6.05.21,9.18-5.14,12.64-10.23,25.31-15.34,37.97-5.48,13.58-10.86,27.21-16.53,40.72-1.24,2.95-3.15,5.79-5.34,8.12-6.81,7.26-13.9,14.26-21.52,22.02,9.74,6.2,18.82,11.72,27.59,17.7,3.47,2.37,6.85,5.35,9.23,8.77,63.88,91.91,127.63,183.91,191.39,275.91.89,1.28,1.54,2.71,2.3,4.07-.84.8-1.68,1.59-2.52,2.39Z"/>
  <path class="st0" d="M2200.11,950.14c15.1-.5,29.05-.91,42.99-1.44,22.58-.85,45.46.15,67.66-3.23,21.9-3.33,43.11-11.15,64.64-16.94,4.07-1.1,8.21-1.93,13.65-3.19v37.8c-2.29,1.1-5.45,2.78-8.74,4.18-24.8,10.57-49.59,21.17-74.48,31.52-3.25,1.35-7.04,1.73-10.6,1.9-9.56.46-19.14.55-29.65.82,2.49,11.58,4.89,21.89,6.83,32.29.71,3.8,1,7.92.32,11.69-19.6,109.07-39.35,218.11-59.11,327.15-.5,2.74-1.48,5.39-3.05,7.83,0-10.84-.32-21.7.06-32.52.97-27.29,2.29-54.57,3.39-81.86,2.71-67.22,5.3-134.45,8.12-201.67.54-12.75-.51-25.09-3.78-37.51-6.18-23.48-11.45-47.21-17.09-70.84-.38-1.59-.63-3.2-1.16-5.96Z"/>
  <path class="st0" d="M2134.44,1704.29c-8.1-3.23-15.49-6.16-22.86-9.12-21.01-8.43-42.04-16.79-62.97-25.39-2.94-1.21-5.62-3.39-7.97-5.6-7.03-6.59-13.83-13.41-21.75-21.15-5.9,9.21-11.11,17.94-16.96,26.23-2.99,4.23-6.59,8.41-10.8,11.34-91.35,63.54-182.82,126.89-274.28,190.27-1.52,1.06-3.17,1.94-4.75,2.9-.47-.5-.93-1-1.4-1.51,2.4-2.32,4.76-4.68,7.21-6.94,77.37-71.42,154.79-142.8,232.05-214.34,4.8-4.45,8.99-9.82,12.49-15.38,13.82-22,27.24-44.25,40.83-66.39,1.69-2.76,3.55-5.42,5.63-8.59,2.83,2.56,5.07,4.49,7.21,6.53,20.45,19.59,40.78,39.32,61.41,58.72,5.04,4.73,10.77,8.92,16.71,12.45,18.61,11.05,37.49,21.66,56.24,32.48,2.83,1.63,5.53,3.48,9.48,5.97-8.8,9.48-17.04,18.37-25.51,27.51Z"/>
  <path class="st0" d="M534.68,1099.7c-4.97,0-8.27-.06-11.56,0-29.32.61-58.65,1.18-87.97,1.96-4.27.11-8.6.89-12.75,1.98-21.58,5.65-43.1,11.51-64.65,17.28-3.48.93-6.99,1.79-11.46,2.93-.63-11.8-1.23-22.69-1.78-33.58-.22-4.25,2.94-5.46,6.12-6.79,10.45-4.37,20.86-8.83,31.27-13.28,15.92-6.81,31.79-13.74,47.79-20.36,2.94-1.21,6.38-1.58,9.6-1.65,9.61-.21,19.22-.07,30.14-.07-2.35-10.92-4.77-20.52-6.38-30.26-.9-5.47-1.45-11.33-.49-16.72,19.72-109.79,39.67-219.54,59.61-329.29.21-1.16.78-2.25,2.68-3.43.21,2,.67,4,.6,5.99-2.58,65.27-5.17,130.53-7.85,195.8-1.6,38.96-3.29,77.91-5.1,116.86-.47,10.06.3,19.8,2.83,29.64,6.21,24.18,11.79,48.53,17.56,72.82.67,2.84,1.02,5.75,1.79,10.17Z"/>
  <path class="st0" d="M574.87,372.41c8.1-8.72,15.37-16.43,22.5-24.26,3.21-3.52,6.41-2.17,9.96-.72,17.57,7.19,35.18,14.26,52.79,21.36,8.65,3.49,17.37,6.79,25.92,10.5,2.94,1.28,5.85,3.15,8.07,5.43,6.73,6.92,13.12,14.17,20.76,22.51,4.87-7.33,8.93-12.49,11.96-18.2,6.11-11.49,15.08-19.7,25.74-27.05,88.35-60.88,176.47-122.11,264.67-183.22,1.77-1.23,3.7-2.23,6.72-2.01-1.91,1.96-3.73,4.02-5.74,5.87-76.41,70.54-152.79,141.1-229.31,211.52-7.43,6.84-13.76,14.28-18.94,22.98-12.44,20.9-25.29,41.55-38.01,62.28-1.71,2.79-3.57,5.48-5.85,8.96-2.38-2.08-4.36-3.68-6.19-5.43-20.47-19.59-40.79-39.33-61.45-58.71-5.53-5.18-11.71-9.88-18.21-13.77-18.29-10.95-36.91-21.35-55.38-32-2.87-1.65-5.67-3.42-10.02-6.05Z"/>
  <path class="st0" d="M1214.34,666.04c2.6,6.56,4.95,12.38,7.21,18.24,5.98,15.51,11.68,31.14,18.01,46.51,2.41,5.86,1.92,10.27-1.56,15.65-22.56,34.94-44.74,70.12-67.05,105.23-13.38,21.06-26.75,42.13-40.14,63.19-1.77,2.78-3.63,5.51-5.94,8.99-22.99-9.82-45.78-19.57-69.35-29.64,1.41-2.99,2.27-5.39,3.59-7.5,44.49-71.07,89.19-142.01,133.35-213.28,5.69-9.19,13.24-6.69,21.89-7.39Z"/>
  <path class="st0" d="M1609.98,924.27c23.53-9.44,46.31-18.59,70.28-28.21,1.16,3.42,2.45,6.33,3.15,9.37,18.71,81.35,37.33,162.73,56.07,244.07,1.23,5.36.72,9.7-3.65,13.48-2.22,1.92-3.86,4.53-5.98,7.09-10.87-4.81-20.85-9.22-30.83-13.63-11.26-4.98-22.42-10.18-33.8-14.86-5.48-2.25-8.13-5.61-9.41-11.51-10.52-48.42-21.38-96.77-32.16-145.14-4.41-19.79-8.9-39.56-13.65-60.65Z"/>
  <path class="st0" d="M1468.33,781.39c9.82-22.92,19.48-45.46,29.51-68.87,3.25,1.6,5.92,2.64,8.31,4.14,70.78,44.33,141.42,88.88,212.42,132.85,9.24,5.72,6.59,13.24,7.39,21.34-2.4,1.16-4.65,2.43-7.04,3.35-19.54,7.55-39.15,14.94-58.64,22.61-4.65,1.83-8.46,2.17-13.01-.74-58.89-37.6-117.9-75.02-176.87-112.51-.54-.34-.91-.94-2.08-2.18Z"/>
  <path class="st0" d="M1006.17,879.41c22.39,9.94,44.21,19.74,66.15,29.27,4.34,1.88,5.51,5.07,6.42,9.18,6.17,27.92,12.54,55.8,18.78,83.7,8.64,38.61,17.24,77.23,25.82,115.86.49,2.22.61,4.53,1.02,7.64-23.13,9.26-46.12,18.47-70.01,28.04-1.11-3.94-2.02-6.69-2.67-9.5-18.5-80.35-36.73-160.77-55.74-241.01-2.65-11.19,2.56-16.59,10.23-23.17Z"/>
  <path class="st0" d="M1610.81,1125.5c22.58,9.67,45.13,19.32,68.7,29.41-1.6,3.22-2.64,5.89-4.13,8.27-44.37,70.84-88.84,141.62-133.11,212.52-2.98,4.78-6.29,7.39-11.97,6.92-2.94-.24-5.92-.04-9.39-.04-.94-1.92-2.1-3.9-2.91-6-7.68-19.87-15.24-39.78-23-59.62-1.68-4.29-2.07-7.88.66-12.14,37.82-59.21,75.47-118.54,113.17-177.82.17-.26.52-.4,1.99-1.49Z"/>
  <path class="st0" d="M1467.85,1267.23c9.58,23.97,18.69,46.73,28.15,70.39-3.67,1.07-6.42,2.03-9.24,2.67-80.7,18.56-161.44,36.99-242.08,55.8-7.44,1.74-12.8.78-17.54-5.02-1.24-1.51-3.05-2.55-4.78-3.96,1.12-3.05,1.88-5.52,2.92-7.87,8.2-18.56,16.76-36.97,24.54-55.71,2.75-6.62,6.85-9.61,13.61-11.09,60.75-13.33,121.43-26.92,182.14-40.42,7.09-1.58,14.19-3.06,22.27-4.8Z"/>
  <path class="st0" d="M1009.69,1177.25c22.8-8.75,45.41-17.56,68.16-25.99,2.34-.87,5.93-.21,8.24,1.04,6.13,3.33,11.87,7.38,17.78,11.13,51.18,32.5,102.36,65,153.54,97.5,2.79,1.77,5.53,3.63,9.38,6.16-9.86,23.07-19.7,46.07-29.9,69.93-4.29-2.5-7.44-4.22-10.48-6.12-68.31-42.8-136.45-85.9-205.09-128.16-10.22-6.29-13.68-13.29-11.64-25.49Z"/>
  <path class="st0" d="M1266.86,781.16c-9.05-22.58-18.28-45.59-27.98-69.79,4.35-1.24,7.69-2.36,11.11-3.14,79.4-18.19,158.89-36.06,238.15-54.84,11.35-2.69,17.61,1.08,24,9.63-.48,1.42-.94,3.31-1.71,5.05-8.75,19.77-17.67,39.47-26.23,59.31-2.03,4.7-4.7,7.4-9.88,8.55-68.18,15.08-136.31,30.33-204.47,45.52-.61.14-1.3-.11-2.98-.29Z"/>
  <path class="st0" d="M1306.88,874.93c-5.97-14.18-12.08-28.71-18.74-44.53,56.93-12.95,112.25-25.54,168.84-38.41-.73,3.42-.88,5.63-1.66,7.59-5.58,13.9-11.37,27.72-16.9,41.64-1.46,3.68-3.32,5.99-7.54,6.92-39.98,8.81-79.92,17.84-119.87,26.77-.93.21-1.95.03-4.13.03Z"/>
  <path class="st0" d="M1138.93,1125.15c4.4-2.14,6.99-3.54,9.69-4.69,12.87-5.48,25.79-10.84,38.64-16.36,3.5-1.5,6.49-2.36,10.24.04,34.8,22.27,69.73,44.34,104.6,66.49.54.34.9.96,2.43,2.65-5.71,13.92-11.69,28.48-18.31,44.59-49.43-31.12-97.7-61.5-147.3-92.73Z"/>
  <path class="st0" d="M1428.19,1174.45c5.91,14.03,11.83,28.1,18.29,43.46-18.69,6.14-37.61,9.1-56.11,13.63-18.42,4.51-36.99,8.4-55.49,12.57-18.68,4.21-37.37,8.42-57.24,12.9.81-3.35,1-4.95,1.58-6.4,5.69-14.21,11.51-28.38,17.15-42.61,1.44-3.65,3.4-6.09,7.53-7,40.28-8.9,80.54-17.95,120.81-26.93.61-.14,1.3.13,3.48.39Z"/>
  <path class="st0" d="M1560.82,1105.78c-31.17,49.51-61.31,97.4-92.03,146.19-1.7-2.23-3.14-3.49-3.82-5.08-6.04-14.07-11.89-28.23-17.95-42.3-1.55-3.59-2.08-6.65.24-10.28,22.24-34.81,44.33-69.72,66.49-104.58.33-.52.99-.84,2.63-2.19,13.94,5.72,28.53,11.71,44.44,18.24Z"/>
  <path class="st0" d="M1174.7,1103.3c-5.01-11.2-38.54-160.73-37.86-168.81,12.21,4.93,23.9,10.78,36.26,14.32,13.3,3.8,18.56,11.64,21.12,24.91,6.63,34.29,14.92,68.26,22.53,102.36.57,2.56.96,5.16,1.62,8.74-14.52,6.14-28.82,12.19-43.68,18.47Z"/>
  <path class="st0" d="M1430.04,876.69c6.18-15.09,12.07-29.47,17.93-43.77,7.71,2.18,137.03,82.94,146.13,91.15-1.01.82-1.83,1.83-2.89,2.29-14.68,6.3-29.49,12.31-44.06,18.87-5.25,2.37-8.83.19-12.84-2.36-28.11-17.86-56.26-35.65-84.4-53.48-6.42-4.07-12.81-8.19-19.87-12.7Z"/>
  <path class="st0" d="M1516.7,964.04c14.59-6.1,29.13-12.19,44.91-18.8,12.9,56.71,25.52,112.21,38.4,168.83-3.06-.54-4.67-.56-6.07-1.12-14.5-5.81-28.94-11.76-43.44-17.54-3.68-1.47-5.77-3.57-6.68-7.73-8.69-39.59-17.62-79.12-26.46-118.67-.28-1.25-.34-2.54-.65-4.97Z"/>
  <path class="st0" d="M1218.74,961.6c-14.43-5.92-28.54-11.71-41.87-17.18-.67-1.24-.89-1.51-.96-1.82-.07-.31-.1-.7.02-.99.49-1.22.88-2.52,1.58-3.62,28.91-45.95,57.84-91.88,86.8-137.8.5-.79,1.4-1.32,2.66-2.45,1.05,1.39,2.23,2.47,2.8,3.8,6.14,14.39,12.08,28.87,18.32,43.21,1.6,3.68,1.8,6.63-.48,10.2-22.04,34.53-43.91,69.16-65.87,103.75-.51.8-1.4,1.37-2.99,2.88Z"/>
  <path class="st0" d="M1317.95,1158.43c.33-2.86.23-4.2.66-5.33,5.06-13.36,10.31-26.65,15.24-40.05,1.42-3.87,3.76-5.92,7.68-6.87,14.85-3.6,29.67-7.29,44.46-11.13,4.18-1.08,7.17-.35,8.94,3.79,5.2,12.14,10.42,24.28,16.27,37.93-31.56,7.33-61.95,14.39-93.26,21.66Z"/>
  <path class="st0" d="M1236.51,1083.4c16.94-7.59,31.67-14.36,46.59-20.69,2-.85,5.35-.19,7.38.98,13.55,7.8,26.93,15.91,40.34,23.96,3.02,1.81,5.4,3.99,3.78,8.06-5.02,12.62-10.01,25.26-15.54,39.21-27.61-17.23-54.2-33.83-82.55-51.51Z"/>
  <path class="st0" d="M1415.93,914.2c27.9,17.4,54.2,33.8,82.02,51.14-4.81,2.4-7.65,3.93-10.57,5.26-10.88,4.95-21.83,9.76-32.68,14.77-3.84,1.77-7.14,2.28-11.12-.2-12.68-7.91-25.67-15.33-38.42-23.13-6.03-3.68-6.32-4.68-3.75-11.33,4.51-11.69,9.26-23.3,14.53-36.52Z"/>
  <path class="st0" d="M1255.2,1068.29c-7.38-31.86-14.39-62.1-21.7-93.63,3.4.76,5.29.95,7.01,1.6,12.44,4.69,24.83,9.52,37.29,14.19,3.92,1.47,6.92,3.33,8,7.91,3.51,14.88,7.23,29.71,11.12,44.5,1.24,4.73,0,7.61-4.5,9.49-11.91,5-23.75,10.16-37.22,15.94Z"/>
  <path class="st0" d="M1257.11,976.07c17.4-27.89,33.84-54.23,51.41-82.38,5.07,11.14,9.24,20.07,13.2,29.09,2.93,6.67,8.17,13.64,7.69,20.14-.51,6.91-6.4,13.49-10.18,20.08-4.46,7.79-9.09,15.48-13.79,23.12-4.15,6.73-5.02,7.1-11.96,4.42-11.71-4.52-23.33-9.27-36.38-14.48Z"/>
  <path class="st0" d="M1479.72,980.79c7.29,31.46,14.31,61.72,21.67,93.46-3.86-.92-6.02-1.19-8-1.94-12.15-4.57-24.18-9.46-36.41-13.77-4.66-1.64-6.95-4.33-8.07-9-3.33-13.91-7.08-27.72-10.45-41.62-1.88-7.75-1.24-8.82,6.24-12.1,11.22-4.91,22.5-9.67,35.03-15.04Z"/>
  <path class="st0" d="M1477.72,1073.09c-17.11,27.46-33.56,53.87-50.55,81.13-1.7-2.41-3.02-3.79-3.77-5.43-5.67-12.4-11.13-24.89-16.87-37.25-1.83-3.95-1.97-7.22.45-11.11,7.73-12.42,15.02-25.12,22.63-37.62,4.2-6.9,4.85-7.14,11.9-4.36,11.67,4.59,23.25,9.39,36.2,14.64Z"/>
  <path class="st0" d="M1323.83,912.26c31.37-7.28,61.67-14.3,93.37-21.65-.73,3.52-.87,5.4-1.51,7.1-4.69,12.46-9.62,24.84-14.16,37.36-1.65,4.54-4.32,6.94-9.04,8.06-13.93,3.29-27.74,7.06-41.65,10.44-7.62,1.85-8.92,1.12-12.14-6.3-4.87-11.23-9.58-22.54-14.86-35Z"/>
  <path class="st0" d="M829,116.21c7.75-7.4,14.82-14.74,22.65-21.16,1.7-1.39,6.29,0,9.25,1,34.35,11.56,68.64,23.3,102.95,34.98,16.68,5.68,33.38,11.32,50.05,17.04,2.97,1.02,5.84,2.33,10.4,4.18-9.01,1.29-185.26-31.49-195.29-36.04Z"/>
  <path class="st0" d="M344.94,763.5c0-10.98-.02-20.51,0-30.04.01-4.24,3.53-5.28,6.44-6.72,11.91-5.9,23.87-11.72,35.8-17.59,36.68-18.04,73.36-36.1,110.05-54.13,2.91-1.43,5.91-2.67,9.86-2.84-1.02,1.27-1.81,2.88-3.1,3.77-51.02,34.96-102.07,69.86-153.15,104.73-1.32.9-2.92,1.41-5.91,2.81Z"/>
  <path class="st0" d="M1713.34,1894.92c63.82,11.99,127.64,23.97,190.9,35.85-7.75,8.61-14.96,16.61-22.49,24.96-56.37-19.21-112.58-38.36-168.79-57.52.13-1.1.25-2.2.38-3.3Z"/>
  <path class="st0" d="M1629.22,1.95c10.15,0,19.43-.25,28.68.19,2.1.1,4.44,2.24,6.04,4.01,1.5,1.66,2.19,4.07,3.22,6.16,23.35,47.46,46.7,94.91,70.02,142.38,1.37,2.79,2.44,5.73,4.44,10.48-7.79-6.32-108.54-153.23-112.39-163.22Z"/>
  <path class="st0" d="M2226.97,1395.77c53.65-36.69,107.31-73.38,162.57-111.17,1.36,12.6.38,23.29.3,34.6-53.76,26.45-107.36,52.81-160.95,79.17-.64-.87-1.28-1.73-1.92-2.6Z"/>
  <path class="st0" d="M2237.79,678.94c11.99-63.84,23.98-127.68,36.21-192.78,2.85,2.07,4.79,3.13,6.29,4.62,4.72,4.69,9.05,9.79,13.95,14.27,3.81,3.48,3.98,6.8,2.35,11.48-8.55,24.48-16.73,49.08-25.09,73.62-9.1,26.75-18.25,53.48-27.4,80.21-1.04,3.04-2.28,6.02-3.43,9.03l-2.88-.46Z"/>
  <path class="st0" d="M497.08,1370.45c-11.98,63.79-23.97,127.58-36.05,191.9-2.29-.99-3.37-1.14-3.99-1.76-6.78-6.85-13.49-13.77-20.89-21.35,19.21-56.41,38.44-112.89,57.67-169.37,1.08.2,2.17.39,3.25.59Z"/>
  <path class="st0" d="M888.69,58.56c25.48,13.92,125.8,78.89,130.35,85.25-49.15-21.63-97.79-44.39-146.41-66.87,1.31-6.46,5.05-10.69,16.06-18.38Z"/>
  <path class="st0" d="M344.51,704.88c0-7.09.23-12.36-.06-17.6-.33-5.82,2.44-8.13,7.88-9.27,19.82-4.15,39.57-8.68,59.34-13.07,26.91-5.96,53.82-11.93,80.73-17.88,1.57-.35,3.17-.52,5.58-.9-1.6,4.99-5.61,4.95-8.62,6.06-34.26,12.67-68.56,25.26-102.84,37.87-10.28,3.78-20.54,7.64-30.85,11.37-3.03,1.1-6.17,1.9-11.16,3.42Z"/>
  <path class="st0" d="M417.68,1520.9c-2.71-2.53-4.91-4.44-6.95-6.52-3.21-3.27-6.3-6.66-10.02-10.61,28.16-44.35,55.97-88.11,84.5-131.39-.34,7.55-60.25,138.25-67.53,148.52Z"/>
  <path class="st0" d="M2248.13,676.24c21.87-49.58,44.76-98.69,68.31-149.5,6.59,6.75,11.84,12.12,16.85,17.24-3.39,9.53-78.89,127.76-85.16,132.26Z"/>
  <path class="st0" d="M2237.25,1399.81c50.33-18.48,100.66-36.96,152.24-55.9v25.25c-50.3,11.6-101,22.7-151.7,33.78-.18-1.04-.35-2.09-.53-3.13Z"/>
  <path class="st0" d="M1865.66,1974.35c-5.31,4.65-8.8,7.71-12.3,10.77-1.98,1.73-3.98,3.43-6.94,5.98-43.67-27.78-87.33-55.56-132.32-84.18,5.39-2.14,8.28.47,11.13,1.78,27.83,12.77,55.59,25.69,83.38,38.55,15.4,7.13,30.83,14.2,46.22,21.37,2.91,1.35,5.68,3,10.83,5.74Z"/>
  <path class="st0" d="M1746.63,157.09c-6.61-7.7-57.5-145.66-57.94-154.95h23.53c11.37,51.17,22.64,101.94,34.41,154.95Z"/>
  <path class="st0" d="M1272.4,1270.77c3.2,1.79,4.87,2.34,6.03,3.43,10.56,9.95,22.44,9.5,35.96,7.01,41.82-7.7,83.87-14.16,125.83-21.05,1.81-.3,3.72-.04,7.22-.04-2.35,1.73-3.25,2.88-4.36,3.14-61.04,14.26-122.09,28.45-185.36,43.16,4.73-13.19,9.14-24.23,14.67-35.66Z"/>
  <path class="st0" d="M2256.07,677.64c30.24-39.24,60.48-78.48,91.3-118.46,3.48,3.28,6.13,5.66,8.63,8.19,2.3,2.32,4.43,4.8,5.73,6.21-34.96,35.43-69.42,70.35-103.88,105.27l-1.77-1.21Z"/>
  <path class="st0" d="M476.34,1369.55c-1.39,7.81-81.81,112.81-90.31,119.59-4.29-4.78-8.68-9.68-14.06-15.68,34.63-34.48,69.5-69.2,104.37-103.91Z"/>
  <path class="st0" d="M1750.48,150.37c-6.33-48.87-12.67-97.73-19.21-148.2h20.57c2.5,7.29,2.98,136.44.76,148-.71.07-1.42.13-2.12.2Z"/>
  <path class="st0" d="M1085.71,914.88c12.78,5.14,23.39,9.4,35.35,14.21-3.47,5.75-6.1,11-9.58,15.6-3.35,4.42-3.79,8.86-2.92,14.06,7.8,46.28,15.48,92.59,23.15,138.89.26,1.56.03,3.2-.9,4.97-15.61-61.65-30.03-123.53-45.1-187.72Z"/>
  <path class="st0" d="M1462.66,778.45c-6.08-3.89-10.95-6.71-15.48-10-4.04-2.93-8-3.69-13.02-2.84-46.62,7.84-93.29,15.41-139.95,23.04-1.45.24-2.94.24-4.42.35-.12-.72-.25-1.45-.37-2.17,61.83-14.51,123.66-29.01,186.83-43.84-.87,3.34-1.1,4.9-1.68,6.32-3.72,9.23-7.52,18.42-11.91,29.13Z"/>
  <path class="st0" d="M1254.55,1247.78c-53.83-33.36-107.67-66.72-163.25-101.16,11.66-6.39,22.67-10.19,34.5-15.25,1.51,6.16,3.25,11.47,4.02,16.93.81,5.75,3.57,9.51,8.25,12.84,37.45,26.65,74.75,53.5,112.07,80.31,1.97,1.41,3.75,3.08,5.62,4.62-.4.57-.81,1.14-1.21,1.71Z"/>
  <path class="st0" d="M1590.55,1137.75c-33.37,53.84-66.74,107.67-101.39,163.57-5.39-12.68-9.93-23.37-14.93-35.14,6.27-1.53,11.28-3.19,16.42-3.89,6.06-.84,10.11-3.64,13.68-8.67,26.78-37.72,53.82-75.26,80.8-112.84,1.14-1.58,2.42-3.06,3.64-4.58.59.52,1.19,1.04,1.78,1.55Z"/>
  <path class="st0" d="M1143.99,911.99c33.49-54.05,66.99-108.1,101.57-163.91,5.97,12.22,10.54,22.96,14.64,35.06-6.08,1.42-11.44,3-16.91,3.87-5.27.84-8.91,3.16-12.08,7.62-26.8,37.71-53.84,75.24-80.83,112.81-1.43,2-3.07,3.85-4.61,5.76-.59-.41-1.18-.81-1.77-1.22Z"/>
  <path class="st0" d="M1649.05,1134.18c-12.83-5.19-23.48-9.5-35.28-14.27,3.63-5.86,6.43-11.02,9.85-15.74,2.96-4.09,3.58-8.07,2.74-13.04-7.32-43.65-14.39-87.33-21.53-131.01-.71-4.34-1.42-8.68-2.13-13.02.83-.14,1.67-.28,2.5-.43,14.45,61.81,29.25,123.53,43.86,187.51Z"/>
  <path class="st0" d="M345.99,660.53v-20.75c6.97-2.08,134.08-2.55,147.15.13-15.5,4.94-31.82,5.4-47.76,7.82-16.43,2.49-32.97,4.28-49.46,6.39-16.38,2.09-32.75,4.2-49.93,6.41Z"/>
  <path class="st0" d="M1642.93,903.63c-11.39,4.72-21.99,9.11-33.83,14.01-1.57-6.47-3.24-11.75-4.05-17.17-.85-5.72-3.73-9.4-8.38-12.71-37.98-27-75.81-54.23-113.68-81.39-1.33-.95-2.6-1.97-3.86-2.93.34-.58.42-.87.61-1.01.24-.19.69-.45.85-.35,52.97,32.59,105.92,65.2,158.84,97.86,1.04.64,1.74,1.82,3.49,3.69Z"/>
  <path class="st0" d="M1020.39,135.78c-39.08-30.11-78.15-60.23-118.38-91.23,5.64-5.65,10.4-10.42,14.03-14.05,35.56,35.09,70.45,69.52,105.34,103.94-.33.45-.65.9-.98,1.34Z"/>
  <path class="st0" d="M1711.7,1913.89c8.36,3.09,112.27,82.56,120.41,91.64-4.85,4.76-9.74,9.56-13.89,13.64-35.39-34.98-70.33-69.5-106.53-105.28Z"/>
  <path class="st0" d="M2389.4,1388.54v21.84c-16.62,1.26-33.09.23-49.51.37-16.29.14-32.58-.13-48.87-.16-16.35-.04-32.7,0-49.12-1.45,48.65-8.13,97.44-14.36,147.5-20.59Z"/>
  <path class="st0" d="M981.67,2045.82v-146.52c.56-.13,1.12-.27,1.68-.4.72,2.21,1.82,4.36,2.11,6.62,5.89,45.49,11.69,91,17.49,136.51.12.95-.1,1.95-.22,3.79h-21.06Z"/>
  <path class="st0" d="M2386.19,1005.52c2.89,7.41-1.2,9.75-5.39,12.08-14.24,7.92-28.21,16.37-42.78,23.63-9.03,4.5-13.81,10.61-16.67,20.44-9.76,33.5-20.68,66.66-31.08,99.97-1.51,4.85-2.61,9.81-10.2,8.2.72-2.98,1.27-5.82,2.1-8.58,10.92-36.29,22.04-72.51,32.67-108.88,1.95-6.68,5.44-10.78,11.41-13.98,17.29-9.28,34.32-19.03,51.47-28.56,2.54-1.41,5.17-2.64,8.49-4.33Z"/>
  <path class="st0" d="M660.88,1758.39c-6.05-2.75-6.91-6.01-5.45-10.95,4.92-16.58,9.12-33.37,14.35-49.84,2.71-8.53,1.96-15.57-2.36-23.55-16.95-31.3-33.14-63.01-49.75-94.49-2.35-4.45-4.15-8.42,1.49-12.56,1.35,2.08,2.85,4.06,4.02,6.22,18.44,34.28,36.91,68.55,55.13,102.94,1.74,3.28,3.4,7.79,2.54,11.06-6.18,23.45-13.02,46.72-19.97,71.18Z"/>
  <path class="st0" d="M1385.89,2043.06c-5.97,3.01-8.75-.18-11.24-4.7-8.51-15.45-17.5-30.64-25.61-46.29-3.69-7.12-8.78-10.58-16.33-12.85-34.09-10.22-67.99-21.04-101.94-31.73-4.5-1.42-10.44-1.88-8.37-10.1,2.49.54,5.02.91,7.44,1.63,36.96,11.07,73.9,22.2,110.85,33.29,4.53,1.36,8.47,3,11,7.66,10.8,19.88,21.94,39.58,32.92,59.37.61,1.11.84,2.43,1.28,3.73Z"/>
  <path class="st0" d="M1512.91,112.43c-22.74-6.87-44.66-13.5-66.59-20.11-17.82-5.38-35.68-10.63-53.44-16.21-2.98-.94-6.69-2.57-8.1-5.01-12.29-21.24-24.13-42.75-36.15-64.25,7.18-2.88,7.72-2.86,11.2,3.23,6.93,12.13,14.6,23.96,20.19,36.69,6.41,14.6,16.44,22.11,31.86,26.3,31.41,8.53,62.25,19.19,93.36,28.84,4.74,1.47,8.81,3.02,7.68,10.53Z"/>
  <path class="st0" d="M633.86,317.53c3.09-6.89,7.49-6,12.24-4.63,16.92,4.89,33.96,9.36,50.76,14.64,6.88,2.17,12.43,1.53,18.8-1.88,31.93-17.12,64.13-33.75,96.2-50.61,4.44-2.34,8.75-5.28,13.07,1.34-2.49,1.53-4.88,3.16-7.41,4.52-33.38,17.95-66.84,35.74-100.1,53.9-6.03,3.29-11.39,3.94-17.97,1.94-19.07-5.81-38.32-11-57.5-16.47-2.51-.72-4.94-1.67-8.1-2.75Z"/>
  <path class="st0" d="M2101.12,1731.48c-2.72,6.14-6.23,6.43-11.09,4.99-17.85-5.26-35.88-9.91-53.67-15.32-5.95-1.81-10.73-1.04-16.07,1.79-32.6,17.29-65.35,34.28-97.99,51.49-4.46,2.35-8.46,4.22-12.26-1.82,2.5-1.53,4.87-3.16,7.4-4.51,33.67-18.1,67.44-36.04,100.99-54.36,5.42-2.96,10.18-3.5,16.02-1.77,19.42,5.78,38.98,11.11,58.48,16.66,2.5.71,4.91,1.69,8.2,2.84Z"/>
  <path class="st0" d="M454.75,878.8c-.65,3.08-1.01,5.66-1.75,8.12-11.09,36.98-22.23,73.95-33.33,110.93-1.36,4.54-3.04,8.4-7.73,10.95-19.61,10.64-39,21.68-58.5,32.52-1.38.77-3.01,1.08-4.57,1.62-2.89-6.11.4-8.79,4.93-11.28,16.04-8.83,31.87-18.07,48.04-26.65,5.47-2.9,8.38-6.71,10.16-12.55,10.67-35.02,21.69-69.94,32.57-104.9,1.4-4.5,2.43-9.29,10.19-8.75Z"/>
  <path class="st0" d="M2115.66,482.33c-2.02-3.42-3.77-6.17-5.3-9.03-17.66-32.85-35.16-65.79-53.03-98.53-3.27-5.99-4.19-11.31-2.15-17.97,5.85-19.09,11.02-38.39,16.51-57.59.78-2.73,1.86-5.37,2.86-8.22,6.72,2.88,5.97,7.27,4.58,12.07-4.8,16.63-9.13,33.41-14.36,49.9-2.39,7.54-1.77,13.62,2.04,20.67,17.08,31.65,33.51,63.65,50.26,95.48,2.26,4.3,4.64,8.33-1.4,13.23Z"/>
  <path class="st0" d="M1535.75,41.93c10.24,6.12,12.65,14.41,12.19,23.89-.58,11.95-2.41,24.62,5.69,35.5,3.82,5.14,3.16,10.65-.32,15.81-1.84,2.72-4.26,4.86-1.98,8.84.78,1.37-.57,4.59-1.83,6.32-1.17,1.61-3.73,3.5-5.27,3.2-1.59-.31-3.14-2.95-3.86-4.89-.64-1.73-.14-3.88-.14-6.77-4.85-1.8-9.91-3.69-16.05-5.97-1.55-12.2,1.57-24.47,10.7-34.73,3.02-3.4,4.03-6.65,3.45-10.79-1-7.19-2.16-14.37-2.97-21.59-.3-2.67.21-5.44.38-8.83Z"/>
  <path class="st0" d="M553.66,1600.71c-4.03-10.01.98-16.38,3.33-22.99.81-2.29,5.79-2.78,7.9-5,5.26-5.53,10.18-11.41,14.77-17.5,1.68-2.23,1.84-5.55,3.13-8.16,1.71-3.45,3.06-8.08,5.96-9.73,5.71-3.24,12.39-4.49,17.15-9.84,1.8-2.02,5.7-2.76,7.91.37,2.11,2.99.53,5.66-1.95,7.81-.99.86-1.97,1.72-3.58,3.14,2.3,5.18,4.61,10.39,7.32,16.47-8.47,8.93-18.85,16.41-32.93,16.55-4.17.04-6.89,1.64-9.2,4.77-4.32,5.85-8.62,11.71-13.11,17.43-1.69,2.15-3.88,3.9-6.71,6.69Z"/>
  <path class="st0" d="M853.95,264.81c-6.27,2.92-11.17,5.2-17.06,7.95-9.1-8.12-16.41-18.6-16.68-32.63-.09-4.61-1.93-7.52-5.29-10-5.86-4.32-11.8-8.52-17.56-12.98-1.97-1.53-3.49-3.66-5.45-5.76,10.15-4.02,18.94.17,24.87,7.2,7.75,9.18,15.87,18.84,28.89,21.48,2.49.5,5.62,1.47,6.97,3.3,5.05,6.85,7.32,15.39,12.82,22.11.73.9-.15,4.61-1.21,5.13-1.68.82-4.57.74-6.17-.23-1.81-1.1-2.77-3.61-4.15-5.57Z"/>
  <path class="st0" d="M466.79,851.68c-2.04,5.35-3.98,10.44-6.17,16.21-12.32,1.24-24.44-1.59-34.41-10.73-3.36-3.08-6.62-4.09-10.78-3.52-7.2.99-14.39,2.13-21.61,2.94-2.66.3-5.41-.16-8.6-.29,2-6.81,6.4-8.66,11.14-10.67,4.25-1.8,7.94-5.3,12.6-1.18,12.04-.92,24.7,1.97,35.56-6.18,1.74-1.31,4.43-2.45,6.42-2.13,8.38,1.36,15.92,5.96,24.62,6.6,1.13.08,2.78,3.54,2.74,5.4-.02,1.21-2.52,2.93-4.19,3.4-2.11.59-4.51.14-7.33.14Z"/>
  <path class="st0" d="M1194.42,1925.18c5.57,2.01,11,3.97,16.94,6.11-.56,6.11-.1,12.95-2.04,19.02-1.84,5.75-5.67,11.15-9.65,15.84-2.94,3.47-3.9,6.75-3.3,10.87,1,6.88,2.2,13.73,3.08,20.63.34,2.7.06,5.48.06,8.75-9.73-4.32-13.85-14.16-12.73-22.1,1.7-12.07,2.09-24.56-4.85-35.52-3.67-5.78-4.03-11.1-.37-16.69,1.8-2.75,4.4-5.06,2.15-8.89-.52-.9-.06-2.65.43-3.81,1.27-3.02,2.39-6.83,6.72-5.99,3.77.73,3.71,4.14,3.59,7.23-.05,1.28,0,2.57,0,4.54Z"/>
  <path class="st0" d="M2350.15,1192.56c-3.69,9.91-12.09,10.21-17.96,14.02-.47.31-1.44.37-1.9.09-8.22-5.05-16.77-1.28-25.19-1.02-5.42.17-10.48,1.08-14.66,5.12-1.31,1.26-3.68,2.25-5.44,2.08-9.2-.9-17.45-5.62-26.56-7.13-.96-.16-2.41-2.87-2.08-3.91.49-1.57,2.14-3.39,3.68-3.88,2.1-.66,4.56-.16,7.83-.16,2.04-5.2,4.1-10.47,6.6-16.84,11.96-.71,24.49,1.72,34.6,11.26,3.34,3.15,6.63,4.05,10.75,3.46,6.87-.98,13.72-2.17,20.61-3.03,2.76-.34,5.6-.06,9.72-.06Z"/>
  <path class="st0" d="M2180.66,448.75c3.95,6.57,1.71,10.91-.05,15.65-1.63,4.39-1.81,9.37-8.08,9.63-7.83,9.16-18.78,16.1-20.66,29.5-.26,1.87-1.31,3.75-2.39,5.36-.89,1.33-2.35,3.23-3.58,3.25-8.58.09-12.37,9.04-20,10.48-1.57.29-4.24-.64-4.98-1.86-.77-1.29-.42-4.01.51-5.37,1.24-1.8,3.53-2.88,4.93-3.94-1.16-4.11-1.62-7.13-2.88-9.76-1.2-2.5-3.23-4.6-4.95-6.94,8.96-9.97,19.44-16.91,33.06-17.33,4.54-.14,7.55-1.78,10.06-5.19,4.3-5.86,8.57-11.74,13.02-17.49,1.53-1.97,3.54-3.57,5.99-5.98Z"/>
  <path class="st0" d="M1943.75,1838.2c-10.05,4.23-16.22-1.36-23.11-2.89-.53-.12-1.18-.82-1.34-1.38-2.77-9.85-11.98-13.69-18.73-19.7-2.77-2.46-7-3.25-10.49-4.95-3.2-1.56-7.73-2.53-9.15-5.14-3.47-6.35-5.89-13.18-10.77-18.84-1.12-1.3.26-4.74.48-7.2,2.41.39,4.96.43,7.18,1.3,1.36.53,2.21,2.34,3.9,4.28,5.1-2.23,10.32-4.51,16.49-7.2,9.12,8.09,15.61,18.8,16.68,32.69.23,2.94,1.74,6.51,3.89,8.43,5.65,5.04,12.03,9.26,18,13.95,2.14,1.68,3.96,3.76,6.97,6.67Z"/>
  <path class="st0" d="M2137.82,523.09c6.16-1.76,9.32-.15,11.38,3.99.59,1.19,1.25,2.34,1.88,3.52,22.46,41.87,44.93,83.74,67.37,125.62,3.9,7.27,3.84,7.3-2.33,12.28-26.02-48.33-51.96-96.5-78.3-145.4Z"/>
  <path class="st0" d="M515.68,676.08c-15.94,53.08-31.61,105.29-47.43,157.99-6.77-3.17-6.29-7.42-4.7-12.62,9.26-30.25,18.29-60.56,27.42-90.85,4.9-16.26,9.93-32.48,14.7-48.78,1.36-4.65,2.96-8.13,10-5.74Z"/>
  <path class="st0" d="M1716.2,172.79c-52.85-15.85-105.23-31.55-158.15-47.42,1.77-4.82,4.68-6.14,8.61-5.67,1.64.2,3.24.73,4.83,1.21,45.87,13.81,91.75,27.64,137.62,41.46,4.44,1.34,9.18,2.42,7.08,10.42Z"/>
  <path class="st0" d="M1011.48,175.87c-48.25,25.98-96.44,51.92-145.03,78.09-2.77-6.88.65-9.68,5.4-12.19,16.16-8.54,32.24-17.24,48.35-25.89,26.66-14.3,53.33-28.57,79.95-42.93,4.43-2.39,8.45-4.3,11.33,2.92Z"/>
  <path class="st0" d="M1723.44,1873.23c48.31-26.02,96.43-51.94,145.09-78.15,2.1,4.76,1.24,7.85-2.04,10.24-1.6,1.17-3.48,1.94-5.24,2.88-41.61,22.35-83.23,44.69-124.85,67.03-1.76.94-3.5,1.97-5.36,2.66-3.45,1.27-5.56-.36-7.6-4.66Z"/>
  <path class="st0" d="M1019.11,1876.35c52.63,15.79,104.98,31.5,157.64,47.31-4.97,6.76-5,6.88-12.21,4.73-28.32-8.47-56.61-17.02-84.91-25.55-18.44-5.56-36.85-11.23-55.34-16.63-4.95-1.45-7.66-3.53-5.18-9.85Z"/>
  <path class="st0" d="M518.65,1380.21c26.28,48.83,52.2,97,78.4,145.68-7.03,2.02-9.83-.94-12.22-5.47-9-17.08-18.19-34.06-27.32-51.07-13.7-25.52-27.42-51.02-41.09-76.54-2.14-4-5.38-8.21,2.23-12.59Z"/>
  <path class="st0" d="M2219.39,1372.84c15.69-52.85,31.37-105.12,47.43-158.02,7.13,4.21,5.75,8.96,4.28,13.8-5.7,18.76-11.36,37.53-17.02,56.3-8.15,27.05-16.24,54.11-24.45,81.13-1.29,4.23-1.86,9.79-10.24,6.79Z"/>
  <path class="st0" d="M1555.66,1434.29c-10.44-4.19-22.47-5.47-26.69-19.56-2.51-8.39-6.83-16.25-11.09-26.11,8.74,0,15.92-.33,23.03.22,1.94.15,4.71,2.62,5.34,4.59,4.09,12.88,7.7,25.92,11.47,38.91-.68.65-1.37,1.3-2.05,1.95Z"/>
  <path class="st0" d="M1003.44,1174.9c0,8.73-.05,15.34.02,21.94.04,3.4-1.29,5.75-4.64,6.7-12.4,3.52-24.8,7.04-37.23,10.47-.82.23-1.84-.29-4.13-.71,4.61-10.63,5.25-22.59,18.9-26.88,8.69-2.73,16.87-7.1,27.08-11.52Z"/>
  <path class="st0" d="M1790.31,1181.59c-6.66,2.67-13.28,5.45-20.02,7.9-1.37.5-3.31.05-4.79-.5-10.8-4.08-21.54-8.3-33.86-13.07,5.98-6.13,10.96-11.6,16.4-16.56,1.29-1.18,4.63-1.57,6.2-.75,12.23,6.4,24.25,13.18,36.34,19.84-.09,1.05-.18,2.09-.27,3.14Z"/>
  <path class="st0" d="M942.06,869.32c12.68-5.95,22.12-13.35,35.09-6.56,7.82,4.09,16.44,6.66,25.99,10.42-7.03,6.57-13.19,12.31-20.11,18.77-12.56-6.93-25.75-14.22-40.97-22.63Z"/>
  <path class="st0" d="M1522.71,601.41c5.97,10.62,13.28,20.15,6.45,33.06-4.11,7.76-6.65,16.35-9.76,24.21-6.72-6.08-12.98-11.74-19.65-17.78,7.15-13.52,14.53-26.61,22.96-39.5Z"/>
  <path class="st0" d="M1732.29,873.96v-27.18c14.11-4.12,28.36-8.28,43.47-12.69,0,2.76.54,5.05-.11,6.94-1.5,4.39-3.4,8.68-5.5,12.83-1,1.98-2.47,4.29-4.33,5.17-10.75,5.05-21.68,9.72-33.53,14.95Z"/>
  <path class="st0" d="M1211.01,1447.32c-4.71-10.3-12.18-19.77-5.23-32.7,4.16-7.74,6.66-16.38,10.47-26.04,6.1,6.05,11.45,10.89,16.13,16.3,1.29,1.49,1.64,5.21.7,7.01-6.25,12.01-12.96,23.77-19.53,35.61-.85-.06-1.7-.12-2.55-.19Z"/>
  <path class="st0" d="M1179.27,615.13c10.35,3.63,21.9,4.95,26.33,18.36,2.87,8.69,7.07,16.93,11.06,26.26h-27.02c-4.13-14.36-8.28-28.78-12.43-43.2.69-.48,1.37-.95,2.06-1.43Z"/>
  <path class="st0" d="M1371.68,1033.34c9.35,3.9,16.59,6.92,25.13,10.48-3.83,7.17-7.44,13.9-12.24,22.88-5.45-11.79-9.55-21.32-12.89-33.35Z"/>
  <path class="st0" d="M1370.24,1013.61c-3.18-7.46-6.35-14.92-9.94-23.33,7.83-2.42,15.19-4.7,22.54-6.98.58.67,1.17,1.33,1.75,2-4.09,9.45-8.19,18.89-12.28,28.34-.69-.01-1.39-.02-2.08-.04Z"/>
  <path class="st0" d="M1387.43,995.56c6.73,3.61,13.46,7.21,20.18,10.81-.06.82-.12,1.65-.17,2.47-9.35,3.71-18.7,7.43-28.19,11.2-.73-6.66.48-10.25,8.18-24.48Z"/>
  <path class="st0" d="M1356.01,1022.09c-7.19,3.01-14.38,6.01-22.73,9.5-2.43-7.82-4.69-15.07-7.6-24.43,12.06,3.48,20.99,8.62,30.5,12.34l-.16,2.6Z"/>
  <path class="st0" d="M1326.45,1040.68c10.59-4.22,19.94-7.95,29.29-11.68.61.52,1.21,1.03,1.82,1.55-2.92,7.38-5.84,14.76-9.03,22.79-7.72-3.25-14.87-6.13-22.08-12.66Z"/>
  <path class="st0" d="M1338.1,1005.21c4.1-7.55,7.66-14.08,12.52-23.04,4.73,11.77,8.52,21.18,12.88,32.03-9.95-1.21-16.72-5.87-25.4-8.99Z"/>
  <path class="st0" d="M1406.28,1041.54c-9.23-4.04-18.46-8.08-27.7-12.12-.02-.7-.04-1.41-.06-2.11,7.41-3.17,14.83-6.34,23.24-9.94,2.44,7.96,4.7,15.32,6.96,22.69-.81.5-1.62.99-2.44,1.49Z"/>
  <path class="st0" d="M1364.31,1034.25c3.7,8.83,6.7,15.97,10.25,24.45-7.71,2.43-14.95,4.71-22.51,7.1.14-7.61,4.19-18.09,12.26-31.54Z"/>
  <path class="st0" d="M1200.87,1098.69c7.32-3.03,12.38-5.12,18.37-7.59,1.71,7.79,3.16,14.41,4.61,21.04-.55.38-1.09.75-1.64,1.13-6.45-4.4-12.89-8.8-21.35-14.58Z"/>
  <path class="st0" d="M1407.98,858.82c7.6-1.29,15.19-2.59,24.69-4.2-2.8,6.87-4.84,11.91-7.35,18.08-6.54-4.17-12.23-7.8-17.92-11.42.2-.82.39-1.63.59-2.45Z"/>
  <path class="st0" d="M1201.94,984.36c-1.43-7.65-2.86-15.31-4.7-25.13,6.94,2.78,11.93,4.78,18.23,7.3-4.08,6.6-7.61,12.3-11.13,17.99l-2.41-.16Z"/>
  <path class="st0" d="M1511.71,935.07c7.58,5.21,13.95,9.59,22.05,15.16-6.64,2.97-11.58,5.18-17,7.6-3.54-6.99-4.56-13.91-5.05-22.76Z"/>
  <path class="st0" d="M1293.17,857.87c3.1,7.29,5.22,12.26,7.85,18.45-7.68,1.64-14.19,3.03-20.69,4.42-.41-.57-.82-1.14-1.24-1.7,4.21-6.34,8.43-12.68,14.07-21.17Z"/>
  <path class="st0" d="M1537.68,1089.73c-7.41-2.99-12.39-5-18.41-7.43,4.32-6.65,7.98-12.28,11.64-17.9.64.07,1.29.14,1.93.21,1.44,7.48,2.88,14.95,4.84,25.13Z"/>
  <path class="st0" d="M1441.66,1190.96c-3.06-7.16-5.1-11.93-7.71-18.03,7.66-1.71,14.42-3.23,21.19-4.74.37.55.73,1.09,1.1,1.64-4.4,6.37-8.79,12.75-14.58,21.13Z"/>
  <path class="st0" d="M1329.5,1189.71c-9.89,1.79-17.49,3.17-26.98,4.89,2.67-6.9,4.6-11.89,6.8-17.59,7.57,3.03,12.96,7.31,20.18,12.69Z"/>
</svg>