<?xml version="1.0" encoding="UTF-8"?>
<svg id="Layer_0_xA0_Image" xmlns="http://www.w3.org/2000/svg" version="1.1" viewBox="0 0 2732 2048">
  <!-- Generator: Adobe Illustrator 30.0.0, SVG Export Plug-In . SVG Version: 2.1.1 Build 123)  -->
  <defs>
    <style>
      .st0 {
        fill: #4d426a;
        stroke: #000;
        stroke-miterlimit: 10;
        stroke-width: .25px;
      }
    </style>
  </defs>
  <path class="st0" d="M1417.96,1140.02c.18,6.4,6.22,7.47,9.35,10.68,62.28,63.94,103.81,139.96,153.87,213.13,81.97,119.8,166.7,237.73,247.99,358.01,6.3,9.27,15.93,13.23,24.84,19.22-8.06,15.64-12.48,16.8-26.03,5.97-67.91-86.02-131.57-177.51-193.61-268.39-50.78-74.4-97.8-151.44-150.35-224.63l174.92,376.06c17.95,33.37,36.23,66.82,53.41,100.59,12.99,25.53,26.35,64.12,41.25,86.75,4.49,6.82,10.91,11.69,16.36,17.61l-9.93,10.05c-5.05,2.18-22.08-23.1-26.44-27.65-81.99-160.66-163.36-321.72-237.96-486.04-25.58-56.35-58.54-123.62-79.18-180.82-1.12-3.1-2.54-6.1-2.49-9.51l3.99-1.01Z"/>
  <path class="st0" d="M1251.99,1070.01c.87,3.76-2.13,4.74-3.99,6.99-50.65,61.34-160.79,120.9-228.64,167.36-117.79,80.66-233.92,163.78-352.07,243.93-5.99,7.23-13.64,13.95-15.32,23.7-31.33-12.04,1.68-37.65,16.2-48.82,76.78-59.03,166.62-117.81,247.19-172.81,74.41-50.79,151.03-98.4,224.63-150.35l-377.36,175.62c-33.6,18.56-67.68,36.75-101.92,54.08-25.38,12.85-66.05,27.11-88.11,41.89-6.39,4.28-9.18,8.48-13.8,14.26-6.06,1.9-8.39-8.15-12.71-10.87l24.12-21.78c223.28-115.79,449.59-226.06,681.76-323.22Z"/>
  <path class="st0" d="M1594,909.98l372.72-174.26c43.47-22.55,86.77-45.5,130.57-67.43,19.1-9.57,46.88-19.07,64.1-29.9,6.91-4.34,10.93-9.96,15.61-16.35l10.86,11.24-24.46,23.12c-219.98,114.86-443.85,222.01-671.96,320.04l-9.43,1.55c17.77-17.41,37.12-39.19,56.17-54.81,49.27-40.41,117.86-77.58,171.65-114.35,112.17-76.66,228.14-154.49,338-234,13.86-10.03,29.83-18.97,34.27-36.74,29.31,7.81,7.83,26.83-5.15,39.86-158.65,114.1-320.93,222.84-482.94,332.04Z"/>
  <path class="st0" d="M1254,974.02c-5.36,7.76-20.74,2.04-28.92,1.9-87.91-1.46-168.78-25.24-254.66-41.34-145.94-27.36-292.78-54.24-439.26-76.42l-15.15,3.84-.76-18.21c14.52-6.32,31.89-5.43,47.5-3.55,94.8,11.43,202.77,34.43,297.66,52.34,86.58,16.34,172.58,36.35,259.13,52.88l6.44-1.44c-46.11-16.45-93-31.34-139.06-47.95-120.46-43.46-239.53-86.9-361.35-126.65-26.42-8.62-66.32-27.92-91.48-32.52-8.06-1.47-16.01-.85-24.1-.9v-16.02s38.12,2.9,38.12,2.9c238.27,75.4,473.89,158.57,705.89,251.13Z"/>
  <path class="st0" d="M2219.99,1186.01l-.27,19.71c-12.67,6.08-26.77,4.35-40.46,4.02-189.73-32.07-378.65-67.98-567.25-105.72l135.91,49.06c116.36,41.97,231.5,84.34,349.12,122.88,30.36,9.95,78.15,32.01,106.42,37.56,17.25,3.39,25.62-10.83,20.53,16.49l-30.82-2.18c-239.39-74.87-475.69-158.73-708.62-251.35l-2.54-4.47c19.13-1.29,38.17.83,57.01,1.97,75.65,4.58,155.49,27.35,230.61,41.39,131.54,24.6,263.92,50.68,395.96,72.04,19.88,3.22,34.89,7.45,54.4-1.41Z"/>
  <path class="st0" d="M1321.99,909.99c-3.66.79-4.84-1.95-7.01-3.96-66.41-61.68-117.71-157.28-169.35-232.66-75.33-109.96-151.54-224.69-230-332-10.72-14.66-18.39-26.13-35.6-34.37,13.05-25.19,32.04-2.02,43.9,12.06,63.32,75.11,114.06,174.28,176.5,251.5l151.54,227.43c.61-3.37-1.06-5.85-2.23-8.74-13.3-32.88-32.67-69.26-48.03-101.96-62.22-132.41-125.75-263.81-191.43-394.57-13.28-26.43-22.21-57.89-44.14-77.99l9.13-10.58,25.12,26.46c109.83,220.02,227.68,442.22,319.35,670.65,1.17,2.91,2.95,5.26,2.25,8.74Z"/>
  <path class="st0" d="M1671.89,168.1l-2.78,36.01c-74.39,236.73-156.93,470.7-249.02,700.98l-6.08,4.9c3.66-25.29.02-51.4,2.25-76.73,5.77-65.68,30.53-149.73,43.12-216.88,24.36-130.02,52.6-265.68,72.04-395.96,2.63-17.61,4.16-30.95-1.41-48.41,5.02.61,12.08-1.21,16.67.32,9.14,3.05,6.05,37.86,5.07,46.41-10.76,94.25-34.52,203.22-52.33,297.67-16.32,86.6-35.76,172.69-52.87,259.14l.45,8.46c44.41-131.17,96-260.02,141.04-390.98,13.46-39.14,24.52-79.24,37.42-118.58,7.78-23.73,25.17-59.94,29.67-82.34,1.74-8.66.58-17.42.89-26.12l15.88,2.1Z"/>
  <path class="st0" d="M1206,1875.98c-17.41,2.51-21.99,4.61-23.97-15.01,13.4-111.22,33.74-222.92,54.6-333.34,16.37-86.63,36.83-172.81,51.35-259.62l-140.02,384.95c-13.32,39.23-24.49,79.23-37.42,118.58-6.83,20.77-32.82,80.55-32.72,97.47.03,4.48,2.27,8.52,2.17,12.98l-17.16-1.89,1.33-28.93c74.45-238.95,157.64-475.01,250.87-707.13l4.94-6.04c1.31,19.13-.82,38.18-1.96,57.02-4.47,74.15-25.74,147.49-39.44,220.56-26.94,143.73-50.59,288.1-78.36,431.68l5.78,28.72Z"/>
  <path class="st0" d="M1231.99,879.99c-3.92.89-4.73-2.06-6.8-4.18-33.59-34.3-64.84-78.3-93.1-117.36-116.79-161.41-222.67-332.37-341.27-492.27-7.14-9.63-17.08-25.92-28.82-28.2-2.18-2.35,8.67-14.32,15.93-11.05,4.19,1.88,25.53,26.69,30.01,32.12,35.33,42.81,71.06,94.8,103.69,140.31,87.94,122.67,172.64,248.52,255.63,374.37,6.31,9.56,69.08,101.8,64.73,106.25Z"/>
  <path class="st0" d="M1223.99,1160.01l-4.59,6.39c-190.04,161.29-414.25,285.35-612.06,435.94-9.71,7.39-22.29,16.68-27.38,27.66-5.25-3.45-11.07-7.88-10.03-14.88.64-4.31,23.94-24.79,29.13-29.06,103.52-85.14,232.5-169.93,344.31-245.69,78.94-53.49,162.03-111.25,242.8-161.2,4.78-2.95,35.3-21.5,37.82-19.16Z"/>
  <path class="st0" d="M1512.01,887.99l37.05-35.93c123.4-91.24,250.33-177.85,376.31-265.69,66.42-46.31,139.48-91.83,203.26-140.74,9.13-7,20.95-14.87,25.41-25.62,2.59-1.83,12.45,7.42,11.71,12.53-.79,5.45-24.98,26.62-30.79,31.42-43.75,36.14-98.46,73.43-145.14,106.86-114.13,81.73-231.22,160.5-348.37,237.63-32.04,21.09-64.95,44.71-97.6,64.4-9.54,5.76-20.98,13.3-31.83,15.15Z"/>
  <path class="st0" d="M1504.02,1168c12.33,14.31,28.17,28.63,39.92,43.06,22.66,27.82,46.38,62.73,67.69,92.31,115,159.67,222.31,325.15,336.71,485.29l23.53,24.3c-3.03,5.65-5.43,10.2-12.76,9.1-5.45-.81-27.25-26.08-32.14-32.04-111.98-136.39-215.1-301.47-312.93-449.07-27.23-41.09-57.43-80.5-83.66-122.34-6.96-11.11-20.3-30.01-24.82-41.18-1.28-3.17-1.96-6.01-1.54-9.44Z"/>
  <path class="st0" d="M1372.02,826c2.72-18.11.49-36.89,2.01-54.97,2.71-32.38,10.93-72.78,16.23-105.77,32.06-199.36,74.84-397.21,107.49-596.52l-1.23-27.83c23.35-15.88,18.55,30.07,17.46,44.06-4.43,56.92-19.01,127.89-28.55,185.45-24.04,145.08-52.44,290.1-82,434-6.15,29.95-12.01,63.16-19.56,92.44-2.38,9.22-4.72,23.09-11.83,29.14Z"/>
  <path class="st0" d="M1167.99,1016.03c7.34,7.22-19.41,1.93-20.91,1.89-47.58-1.38-94.45-8.88-141.54-16.46-192.15-30.91-387.12-78.42-579.08-104.92-14.37-1.98-30.53-4.96-44.44-.54l.26-14.72c.67-2.59,2.44-2.86,4.72-3.28,7.93-1.46,30.99-.63,39.97.04,56.97,4.25,127.81,19.07,185.4,28.6,141.84,23.47,283.42,51.08,424,80,44.02,9.06,88.34,17.52,131.62,29.4Z"/>
  <path class="st0" d="M2353.99,1154.01c.27,5.86.61,12.54-3.96,17.02-4.72,2.79-40.55-.44-48.77-1.28-47.9-4.86-102.04-14.23-150.01-21.99-159.79-25.84-319.2-58.12-477.63-90.37-29.57-6.02-74.44-12.36-101.23-22.77-3.35-1.3-7.14-1.8-6.38-6.6,12.82,1.55,26.13,3.06,39.01,3.97,38.73,2.74,77.21,8.19,115.72,14.28,196.77,31.09,396.33,80.34,592.76,107.24,13.29,1.82,27.34,4.32,40.48.51Z"/>
  <path class="st0" d="M1363.99,1224.01c-3.99,19.62-1.99,41.43-4.02,60.96-3.22,30.97-13.31,62.46-14.2,93.8-28.38,196.61-81.91,396.49-107.22,592.78-1.64,12.69-4.4,25.93-.56,38.44-7.32.1-16.22,2-17.94-7.04,4.69-73.29,16.52-146.88,28.48-219.4,24.48-148.42,53.91-296.74,84.09-443.91,6.41-31.24,12.55-70.37,21.95-100.05.42-1.31,5.17-20.39,9.42-15.56Z"/>
  <path class="st0" d="M1182,879.98c-33.74,5.07-51.62-24.85-81.14-31.84l-561.06-357.11c-3.42-5.04,7.57-16.75,13.6-11.51,203.07,127.29,407.78,252.16,607.64,384.43,7.07,4.68,15.81,9.23,20.96,16.02Z"/>
  <path class="st0" d="M1554.01,1168.01c9.25,2.32,19.46,1.19,28.39,4.59,18.41,7.02,32.49,26.27,52.92,28.98l559.82,356.42c2.31,4.35-7.03,17.03-12.5,12.5-208.95-130.67-418.57-260.28-624.52-395.63l-4.11-6.87Z"/>
  <path class="st0" d="M1515.96,837.99l-3.97-.99c-4.14-33.09,25.32-50.47,32.3-79.7l356.95-561.19c4.47-1.34,15.34,8.49,11.76,13.76l-397.04,628.12Z"/>
  <path class="st0" d="M1223.99,1210.01c-1.62,9.63-1.55,20.86-5.01,29.97-6.12,16.13-24.77,30.26-26.34,48.01-120.43,181.28-229.07,370.82-349.8,551.84-1.98,2.97-7.93,14.13-10.93,13.37l-10.96-9.17,3.46-8.64c87.62-138.61,172.45-279.07,260.76-417.22,42.38-66.3,86.87-140.18,132.48-203.52,1.79-2.49,2.11-5.55,6.34-4.64Z"/>
  <path class="st0" d="M1133.99,1052.01c1.01,4.33-2.41,4.44-4.56,6.42-24.17,22.28-47.84,14.69-74.47,29.53l-650.03,145.74-4-15.82,9.78-4.17c240.73-55.43,481.03-112.9,723.27-161.71Z"/>
  <path class="st0" d="M2331.89,816.06c1.46,5.51,5.22,14.28-1.27,17.56-242.46,55.8-484.26,114.9-728.61,162.37-1.4-5.24,2.07-3.54,3.77-5.17,24.21-23.12,48.66-14.64,75.74-30.3l650.37-144.46Z"/>
  <path class="st0" d="M1175.8,58.21l164.19,731.78c-3.3,3.35-18.15-18.36-19.48-21.5-7.24-17.14-4.56-41.57-16.56-55.41l-144.11-648.11c-.46-9.31,9.02-7.24,15.96-6.77Z"/>
  <path class="st0" d="M1426.79,1331.26c.14.51,2.72,1.05,3.05,2.29l146.02,653.21-14.73,4.98-2.72-3.15c-55.39-243.19-115.48-485.67-162.39-730.59,22.9,17.42,23.63,47.06,30.77,73.26Z"/>
  <path class="st0" d="M1125.99,881.99c-149.01-62.8-296.56-129.29-444.63-194.35-57.91-25.44-117.08-48.31-174.08-75.92-5.01-2.43-33.29-15.71-33.25-18.72l11.38-12.74c19.44,1.04,33.29,15.22,49.87,23.46,43.62,21.65,90.26,39.75,134.74,59.26,135.61,59.51,272.16,116.94,407.95,176.05,14.03,6.5,22.66,17.06,32.94,27.06,2,1.95,18.45,12.64,15.08,15.9Z"/>
  <path class="st0" d="M1608,1168.02c17.57,4.48,34.6,12.48,51.36,19.62,135.73,57.89,270.18,119.35,405.29,178.71,61.82,27.16,127.89,50.21,187.12,82.88,13.91,7.68,5.87,11.49-3.04,20.36-16.39-.82-27.28-13.89-39.33-20-23.8-12.06-51.37-22.99-76.04-33.96-157.6-70.02-317.17-135.89-475.32-204.68-19.93-10.7-34.29-27.27-50.04-42.94Z"/>
  <path class="st0" d="M1510.01,783.99c63.64-152.54,131.84-303.29,198.35-454.63,12.89-29.34,24.25-59.38,37.29-88.71,16.04-36.08,32.57-72.1,50.17-107.4,3.58-5.05,15.22,7.55,15.89,10.16,2.86,11.25-15.39,32-20.06,41.24-12.01,23.83-23.03,51.33-34.01,75.99-69.92,157.06-135.08,316.37-204.21,473.79-9.98,16.84-23.16,31.78-36.62,45.38-2.08,2.1-2.86,5.09-6.8,4.18Z"/>
  <path class="st0" d="M1694.01,1962l-19.69-.33c-9.42-14.73-9.14-31.1-14.25-46.74-7.43-22.72-17.91-46.85-26.57-69.43-62.28-162.43-129.34-323.19-192.85-485.15-4.74-18.88-4.26-37.62-5.25-56.79-.16-3.14-3.09-4.56,1.6-7.53,62.98,153.09,121.45,308.15,181.5,462.46,22.33,57.38,47.99,113.94,67.54,172.46,1.6,4.8,10.46,28.48,7.97,31.04Z"/>
  <path class="st0" d="M1223.99,1266.01c1.71,1.93-13.33,35.9-15.64,41.34-64.26,151.78-131.53,303.17-198,454-23.21,52.66-46.71,105.63-73.33,156.58l-14.62-13.2c-.41-2.07,5.17-15.73,6.63-18.7,91.92-187,169-381.86,253.2-572.8,9.73-16.68,22.32-29.25,35.37-42.63,1.96-2.01,1.95-5.66,6.39-4.59Z"/>
  <path class="st0" d="M2303.94,698.06l1.12,17.96c-13.73,11.73-29.72,10.38-45,15.03-21.09,6.42-45.48,17.36-66.55,25.45-163.86,62.91-326.07,130.55-489.56,194.44l-28.96,5.23-34.95-1.18c12.4-7.66,27.71-13.01,41.46-18.5,141.09-56.34,283.44-109.86,425.04-164.96,52.15-20.29,103.51-42.96,156.43-61.57,5.9-2.08,38.56-14.2,40.98-11.9Z"/>
  <path class="st0" d="M1299.99,751.99c-5.16,1.38-5.86-5.98-7.45-9.52-62.59-139.6-115.08-295.41-171.04-438.97-6.25-16.03-14.4-31.91-20.47-47.53-21.55-55.45-43.4-111.16-61.04-167.96l18.01-1.06c12.56,12.32,11.06,29.16,15.94,44.11,8.07,24.73,19.16,50.91,28.56,75.44,62.11,161.97,129.36,322.13,192.13,483.87,5.98,20.66,2.89,40.69,5.35,61.62Z"/>
  <path class="st0" d="M1093.99,1092.01c1.1,5.32-1.35,3.44-3.94,4.96-8.68,5.1-22.35,10.03-32.08,14-154.01,62.77-310.43,122.4-465.47,182.53-52.69,20.43-105.72,40.56-159.34,58.29l-2.85-3.09c-8.33-26.78,25.82-24.6,41.69-29.69,26.9-8.63,55.8-21.24,82.5-31.5,160.48-61.69,319.32-127.99,479.47-190.53,14.5-4.5,27.39-2.64,41.03-2.8,6.16-.07,12.43-3.42,18.99-2.16Z"/>
  <path class="st0" d="M1168,1220.02c-12.01,16.89-24.38,33.3-38.95,48.03-37.04,37.45-80.66,72.38-119.08,108.92-103.16,98.11-203.9,198.84-308.03,295.97-6.33,7.41-10.93,17.37-11.97,27.06l-17.72-8.32c1.38-21.5,17.8-32.46,30.8-45.63,129.86-131.65,266.74-255.88,400.92-383.08,18.43-10.93,37.34-30.5,55.74-40.26,2.74-1.45,4.6-3.56,8.28-2.7Z"/>
  <path class="st0" d="M1568.01,829.99c-1.71-1.67,9.37-15.33,11.2-17.78,36.28-48.64,99.78-96.32,144.82-139.18,106.47-101.32,212.55-204.14,316.33-307.67l5.67-17.35c2.01-1.51,16.47,8.87,16.03,13.08.57,5.99-12.49,25.85-17.04,30.94s-9.85,7.64-14.07,11.93c-129.17,131-265.38,254.58-398.92,381.08l-64.01,44.97Z"/>
  <path class="st0" d="M1562.02,1224c11.37,8.63,27.44,17.92,37.79,27.18,46.44,41.55,94.81,104.26,139.16,150.84,94.53,99.3,190.39,198,286.92,295.08l17.17,6.86c-5.98,25.81-25.09,12.32-39.09,1.06-50.44-40.57-93.77-103.55-144.03-145.97-87.34-108.66-216.86-207.77-292.4-323.6-1.4-2.15-7.1-9.61-5.53-11.45Z"/>
  <path class="st0" d="M1171.99,823.99l-36.99-25.99c-139.8-151.82-281.81-302.75-428.51-447.49-5.87-2.94-17.69-1.06-13.46-10.46,9.42-20.92,26.71-3.27,38.99,4.93,127.14,133.61,261.01,262.58,383,401,17.76,20.15,36.81,44.06,51.42,66.58,1.36,2.09,7.13,9.76,5.54,11.44Z"/>
  <path class="st0" d="M1389.7,62.3c4.01,9.17,7.49,18.47,8.37,28.63,5.22,60.34-1,134.78-2.15,195.99-2,106.19-5.44,211.92-10,318-1.91,44.43-.94,83.19-10.48,127.52-.82,3.82-1.07,10.06-5.42,11.56-3.57-22.38-6.4-44.33-6.1-67.08.06-4.72,2.05-9.1,2.17-13.84,4.38-186.89,12.47-375.16,14.09-562.09.11-12.6-5.08-22.93-10.15-33.92l19.68-4.77Z"/>
  <path class="st0" d="M1088,1021.98c-23.41,3.32-45.29,6.46-69.08,6.1-35.07-.53-70.67-3-106-4-156.02-4.43-313.9-11.8-469.91-12.26-13.34-.04-22.34,5.37-33.98,10.21-10.63-22.61,4.98-26.25,24.01-27.99,59.94-5.48,134.98.91,195.89,2.05,67.58,1.27,134.65,3.69,202,6,80.25,2.75,164.78-.87,243.48,14.52,4.35.85,11.67.62,13.6,5.38Z"/>
  <path class="st0" d="M2327.99,1027.99l2.07,15.03c.14,1.84-.93,2.78-2.04,4-11.14,12.29-84.21,9.26-103.11,9.07-117.96-1.21-236.15-5.98-353.84-10.16-49.38-1.75-101.09-.35-150.16-3.84-7.94-.56-71.59-9.64-72.94-13.1-1.81-4.67,4.75-2.52,7.07-2.9,51.58-8.46,100.29-1.47,151.86,0,139.33,3.98,278.78,6.13,418.16,7.84,24.65.3,51,4.79,75.92,2.09,10.45-1.13,16.93-8.34,26.99-8.02Z"/>
  <path class="st0" d="M1363.95,1983.93c-17.52,5.49-20.63,2.12-24.96-13.92-7.94-29.39-1.17-70.6-.91-100.93,1.31-153.14,4.44-305.29,12-458,.55-11.21-.9-22.89-.06-34.06,1.82-24.29,9.82-48.69,12-73.02,3.99.82,3.39,4.11,3.96,7.02,9.71,49.86,1.39,101.52-.06,151.89-4.01,139.32-6.08,278.8-7.84,418.16-.31,24.74-4.58,50.85-2.06,75.89,1.05,10.42,6.45,17.2,7.93,26.95Z"/>
  <path class="st0" d="M1824,1413l-4.95,2.97-69.08-56.95c-36.91-34.02-60.22-71.46-105.88-96.12-12.51-6.76-32.61-12.55-43.09-20.91-8.63-6.89-14.4-22.29-22.91-31.09-11.51-11.9-29.93-21.17-40.09-34.89,23.22,4.25,43.27,21.41,63.4,33.58,72.98,44.1,142.39,94.7,216.43,137.57,4.4,3.92,10.34,8.24,11.14,14.54.79,6.25-4.97,15.54-4.97,19.29v32Z"/>
  <path class="st0" d="M1195.99,873.99c-.76.71-16.96-6.45-19.35-7.63-88.19-43.84-170.8-118.61-259.6-164.4-19.18-16.22-7.51-22.09-5.58-43.51.62-6.85-2.73-16.15.55-24.45,3.22-.69,4.6.55,7.04,1.96,17.07,9.89,51.22,40.62,66.98,55.02,34.68,31.71,56.37,68.01,98.63,91.37,13.76,7.61,40.16,16.43,50.34,25.66,7.9,7.17,12.36,19.63,19.99,28.01,9.79,10.75,24.7,18.87,35.05,28.95,2.56,2.49,6.48,4.93,5.96,9.02Z"/>
  <path class="st0" d="M1215.99,1196.01c-4.41,20.85-19.14,37.52-29.61,55.37-37.66,64.24-80.93,126.05-121.24,188.76-6.44,10.02-19.64,39.96-29.65,44.37-7.77,3.42-25.23-3.02-35.05-3.97-6.54-.64-16.53,2.07-24.44-.54l24.05-34.93c15.31-12.89,25.44-30.61,38.91-45.09,30.38-32.66,62.34-49.61,85.37-90.63,10.42-18.55,17.37-45.1,33.79-58.21,24.23-19.33,30.98-29.82,51.46-50.54,1.96-1.98,1.94-5.67,6.39-4.59Z"/>
  <path class="st0" d="M1323.99,426.01c.96,13.72,4.68,27.37,5.99,41.02,1.63,17.04,3.24,38.77,4.11,55.89,1.7,33.58-5.35,68.44-2.07,102.07,3.03,31.02,22.69,58.81,23.84,89.84-9.74,26.3-2.68,54.2.14,81.16-5.7.74-6.39-5.21-8.05-8.93-7.85-17.63-18.11-62.76-22.63-83.37-13.56-61.7-24.25-124.56-37.83-186.17-3.16-14.32-18.29-48.6-6.52-59.56,3.38-3.15,8.97-4.23,12.87-7.13,9.24-6.88,16.04-15.6,24.16-21.84,2.01-1.54,2.54-3.88,6-2.98Z"/>
  <path class="st0" d="M1137.98,1036c3.87,4.6-15.32,10.65-17.56,11.42-47.74,16.43-103.55,22.41-152.8,33.2-51.65,11.32-102.87,24.76-154.68,35.43-13.39-.56-15.81-14.48-22.98-23-4.85-5.76-18.07-15.84-19.83-22.19-1.09-3.93,4.54-3.67,7.46-4.25,25.17-5.04,61.35-7.27,87.44-8.59,34.37-1.74,71.62,5.56,105.77,1.77,40.48-4.5,72.84-35.78,116.12-17.72l51.07-6.07Z"/>
  <path class="st0" d="M1758,568c3.3,3.18-18.55,30.69-22.06,34.94-12,14.52-28.14,33.36-40.91,47.09-20.74,22.3-50.26,41.44-68.98,65.02s-30.28,68.01-50.18,83.82c-10.29,8.17-17.75,11.2-27.92,22.08-4.12,4.4-24.83,32.77-26.95,33.01-5.52.65,1.32-12.53,1.95-14.02,18.81-45.14,61.11-96.29,87.88-138.11,21.13-33,41.56-66.38,62.77-99.23,6.49-10.05,16.42-36.27,28.77-39.27,6.91-1.68,17.34,4.67,22.63,4.67h33Z"/>
  <path class="st0" d="M1410.01,1622l-9.61-111c2.96-39.73,7.14-74.11-3.41-113-3.89-14.36-17.49-41.66-18.55-53.46-.79-8.74,4.87-21.89,5.63-31.47,1.56-19.86-4.54-41.12-4.05-61.07,7.02,5.67,10.04,17.91,12.5,26.48,27.43,95.45,38.25,198.42,65.44,294.55,4.74,18.68-14.28,22.95-26.9,33.04-3.41,2.72-17.34,19.91-21.05,15.94Z"/>
  <path class="st0" d="M1596.01,1011.99c-.97-5.22,1-3.52,3.98-4.91,6.05-2.83,15.85-5.74,22.49-7.6,82.67-23.26,173.54-37.8,258.05-55.95,11.44-2.46,21.89-8.6,34.5-9.48,22.99-1.6,17.55,7.21,29.03,20.91,6.92,8.26,16.12,14.65,21.91,24.05.04,5.73-47.61,6.54-52.94,7.02-18.61,1.68-39.79,5.51-58.24,5.78-28.19.41-57.2-6.52-85.54-3.56-26.61,2.79-61.99,23.7-82.5,25.1-9.45.65-21.86-4.64-31.67-5.42-19.17-1.52-39.82,4.18-59.06,4.06Z"/>
  <path class="st0" d="M2133.99,1445.98l-23.01-17.98c-3.61-8.32,22.17-.97,25.6.42,9.28,3.77,14.74,11.97,22.61,15.38,6.82,2.95,36.47,4.67,22.71,15.11-16.89,12.81-95,8.09-115.87.05-42.63-16.41-106.48-56.69-145.09-82.91-4.09-2.78-29.65-21.53-24.94-26.04,25.34-1,43.1,24.89,63.35,37.63,17.4,10.95,47.45,25.93,66.68,33.32,16.03,6.17,63.16,24.27,77.44,26.54,11.06,1.76,19.74-2.18,30.52-1.53Z"/>
  <path class="st0" d="M1225.98,419.99c-3.44.68-4.98-1.78-7.03-3.94-10.78-11.39-9.76-52.33-13.88-70.12-4.79-20.68-16.49-53.14-25.36-72.64-6.83-15.02-26.4-58.47-34.67-69.33-5.33-7.01-14.14-12.57-21.02-17.96,1.54,10.78,6.03,18.91,1.97,29.99-2.56,2.34-10.28-9.2-11.63-11.35-8.9-14.26-6.02-22.13-10.24-35.76-3-9.71-13.53-15.98-12.06-26.81,4.29-6.21,25.61,9.34,29.97,12.91,61.41,50.33,71.06,96.71,88.99,171.01,4.66,19.31,12.08,46.42,14.74,65.26.67,4.72,3.2,26.6.22,28.75Z"/>
  <path class="st0" d="M1515.67,1630.35c1.64.98,7.11,17.76,7.81,21.17,3.47,16.98,2.95,35.35,7.1,52.9,4.98,21.03,15.21,50.14,24,70,6.8,15.38,27.49,60.26,36.37,71.63,5.57,7.13,13.96,12.47,21.03,17.95-3.5-10.13-4.98-19.14-3.97-30.01,3.8-3.69,11.65,8.84,13.29,11.71,7.59,13.27,5.71,21.99,9.66,34.33,2.96,9.23,13.55,16.47,11.03,27.95-9.98.18-20.42-6.88-28.01-12.97-49.5-39.68-63.85-73.29-81-133-8.14-28.34-16.57-66.81-22.05-95.95-2.26-12.02-3.78-23.79-2.92-36.08,2.37.31,5.77-.77,7.66.36Z"/>
  <path class="st0" d="M2208,780.02c-9.47,3.15-16.82,4.78-27.04,3.97-2.97-.23-5.78,1.58-4.94-2.96,5.7-6.25,13.48-11.58,21.43-14.58,9.46-3.56,18.63-2.87,26.64-5.36,5.49-1.71,11.45-9.43,17.33-10.71,16.47-3.57,7.52,11.73,2.24,20.29-9.26,15.01-56.46,58.59-72.32,65.68-42.94,19.17-114.51,36.02-161.24,44.76-10.91,2.04-28.59,5.98-38.09-.13-2.8-13.71,60.18-15.8,70.1-17.86,38.82-8.06,105.64-37.54,140.54-57.46,10.79-6.16,17.13-16.64,25.35-25.63Z"/>
  <path class="st0" d="M1041.99,1554.01c8.96,9.4-33.27,55.12-39.59,65.39-21.22,34.44-45.14,95.1-55.82,134.18-4.04,14.79-1.34,23.68-.56,38.41l15.3-21.67,6.67-2.31c.44,10.11-2.43,21-6.91,30.06-3.32,6.7-10.21,12.26-12.64,17.36-2.1,4.41-6.95,40.78-16.57,21.69-9.03-17.92-8.07-86.64-1.98-106.24,4.43-14.28,15.04-28.74,21.82-42.18,19.17-37.97,40.78-75.89,64.64-111.36,2.69-4.01,20.61-28.61,25.64-23.34Z"/>
  <path class="st0" d="M528,1267.98c8.92-.31,17.17-5.51,26.04-3.03,2.58.72,4.81.58,3.95,4.02-8.52,8.6-17.75,13.6-29.46,16.55-5.01,1.26-10.37.14-16.18,1.82-7.44,2.15-41.71,29.25-23.93-3.94,7.91-14.76,57.31-62.82,72.21-69.79,37.97-17.75,90.5-27.75,131.49-36.51,20.87-4.46,41.19-13.07,62.99-13.2,7.25-.04,9.83,5.13,3.65,9.84-12.68,9.66-52.35,9.39-70.45,13.55s-46.42,14.23-64.26,21.74c-16.49,6.94-64.01,28.22-76.7,37.3-7.14,5.11-12.78,15.37-19.33,21.65Z"/>
  <path class="st0" d="M1790,258c-8.1,7.93-10.25,19.43-21.98,24-.82-10.25.52-20.69,4.96-30.02,3.2-6.73,10.67-12.52,13.45-18.55,2.82-6.11,3.62-25.85,10.64-27.39,5.45-1.2,10.46,18.49,10.95,22.95,2.8,25.74,2.24,77.12-7.67,100.36-19.23,45.13-53.51,99.93-81.08,140.92-3.16,4.7-25.51,37.31-27.34,20.76-1.41-12.72,30.93-46.44,38.92-59.18,20.35-32.46,32.15-65.85,44.24-101.76,2.03-6.03,14.92-35.08,14.92-37.08v-35Z"/>
  <path class="st0" d="M972,1474.02c-9.05,19.45-24.2,34.7-26.27,56.71-51.47,71.93-114.76,137.46-156.15,215.91-1.2,2.27-1.6,4.83-1.59,7.37-2.37,2.1-14.89-6.07-15.75-9.39,9.25-27.39,25.2-51.9,42.14-75.25,47.56-65.54,102.75-125.96,150.82-191.18l6.81-4.17Z"/>
  <path class="st0" d="M918,627.98c-13.74-3.48-25.5-15.62-38.17-20.81-6.3-2.58-14.23-1.49-20.14-5.86-57.84-38.8-111.96-92.62-169.85-130.15-15.95-10.34-34.87-18.51-51.83-27.2,3.52-10.05,4.37-16.36,16.05-13.01,17.96,5.14,49.93,26.81,65.77,38.22,59.98,43.2,136.17,102.02,191.12,150.88,2.52,2.24,5.71,4.81,7.05,7.93Z"/>
  <path class="st0" d="M600,602l23.04,17.97-1.97,5.73c-12.11-1.79-21.1-3.82-31.75-10.02-4.43-2.58-6.88-6.63-12.58-9.42-6.9-3.37-21.25-4.46-24.73-7.27-11.2-9.03,16.8-14.53,22.9-15.05,22.18-1.89,71.33-2.22,91.04,5.11,42.85,15.94,102.92,54.37,141.87,80.13,5.54,3.66,25.52,17.42,28.29,21.71,1.83,2.82,4.59,9.49-1.14,9.18-19.13-1.01-45.6-30.1-63.15-40.89-13.54-8.32-34.4-18.48-49.12-24.88-9.76-4.24-83.04-32.28-87.72-32.28h-35Z"/>
  <path class="st0" d="M1764.02,576c6.54-20.26,23.25-35.57,25.18-57.8,39.53-57.47,92.41-111.78,130.43-169.57,10.81-16.43,20.32-36.64,28.4-54.63,4.1,2.61,13.6,6.03,14.08,11.03.39,4.04-18.82,41.42-22.51,47.58-56.73,70.22-110.03,151.02-169.67,218.33-1.63,1.84-3.47,4.44-5.92,5.06Z"/>
  <path class="st0" d="M2089.71,1619.74c-1.82,1.07-3.96-.08-5.74-.64-18.94-6.05-51.14-26.38-67.8-38.27-65.21-46.56-126.05-103.61-191.12-150.88l-7.04-9.94c18.19,9.82,33.81,23.95,55.14,25.84,58.53,39.61,114.2,95.18,173.01,132.99,13.22,8.5,39.16,17.52,49.79,26.23,3.86,3.17-6.18,10.24-6.25,14.69Z"/>
  <path class="st0" d="M1331.99,425.99c-5.55.97-3.36-1.16-4.5-4.38-4-11.29-5.56-27.75-10.03-38.07-4.08-9.43-8.15-8.98-10.89-23.11-12.94-66.68-13.51-140.32-27.16-206.84-3.72-18.14-11.26-37.06-17.11-54.65.29-3.01,14.95-7.53,18.74-2.96,1.67,2.01,15.19,43.96,16.46,49.53,3.81,16.65,5.88,38.4,8.26,55.74,10.24,74.65,15.5,150.16,26.24,224.74Z"/>
  <path class="st0" d="M2295.99,919.99l1.86,17.87c-27.04,8.01-52.87,18.09-81.06,21.93l-250.79,28.19c.63-3.68,4.11-3.36,6.73-4.25,10.81-3.68,26.34-5.07,36.41-9.59,6.55-2.95,7.59-7.51,16.36-9.64,63.67-15.4,143.19-14.22,208.98-27.02,20.82-4.05,40.62-13.57,61.5-17.49Z"/>
  <path class="st0" d="M1404.02,1624c3.78.63,3.26,4.21,4.22,6.76,6.52,17.48,6.35,35.37,19.35,50.65,11.31,68.31,14.16,141.31,27.01,208.99,3.83,20.18,11.7,39.3,17.07,59.04l-1.6,3.58c-7.03.77-12.37,5.94-16.5-1.59-9.35-17.01-17.87-57.15-21.05-76.94l-28.49-250.49Z"/>
  <path class="st0" d="M767.99,1060.01c1.02,5.66-1.34,3.28-4.38,4.5-17.32,6.92-36.13,5.8-50.75,19.35-70.24,13.45-147.94,14.14-217.35,28.65-17.71,3.7-37.1,11.99-54.56,17.42l-3.19-17.04,51.79-18.34,278.44-34.54Z"/>
  <path class="st0" d="M1463.91,1592.09l1.77,13.56c-13.17,8.23-39.28,23.43-35.25,40.93,22.48,44.18,69.32,95.45,73.65,146.34,3.35,39.41-10.19,59.88,9.59,98.41,3.75,7.3,33.01,46.1,28.33,50.65-5.94,1.08-8.48-3.45-11.93-7.05-14.85-15.48-37.39-52.9-39.85-74.15-2.05-17.68,1.41-37.68-.46-55.54-5.84-55.65-37.18-85.3-60.1-129.9-7.3-14.22-18.95-34.82-8.77-49.45,1.33-1.92,32-30.8,34.01-31.99,3.07-1.82,5.42-2.6,9.01-1.81Z"/>
  <path class="st0" d="M975.49,1488.49c9.77-2.48,42.42-.31,53.5,1.52,2.61.43,5.36,1.56,4.81,4.74-6.42,15.46-18.08,6.25-30.83,5.29-18.45-1.39-26.47-3.12-32.84,15.09-16.39,46.81-15.75,107.59-49.1,148.9-25.19,31.2-51.97,36.35-64.05,79.95-3.72,13.44-4.32,30.8-8.87,43.13-3.91,10.61-10.46,13.1-9.96.19.95-24.22,10.98-68.68,26.84-87.32,7.6-8.93,18.6-15.62,26.97-25.03,33.18-37.31,41.08-73.31,52.6-119.4,3.98-15.92,13.54-62.65,30.94-67.06Z"/>
  <path class="st0" d="M901.99,690l-14.13-5.39c1.27-14.37,11.26-45.33-3.13-54.35-51.73-17.7-117.3-19.04-160.76-55.24-27.24-22.7-32.41-47.53-70.37-59.63-14.89-4.75-32.1-5.42-46.7-9.29-5.12-1.36-13.09-3.76-10.91-10.1,26.82.64,57.87,4.55,81.97,17.03,18.07,9.36,29.69,28.13,45.1,40.9,17.06,14.14,54.27,34.02,75.34,40.66,23.85,7.51,88.95,11.8,102.51,33.49,8.67,13.87-.62,45.4,1.09,61.91Z"/>
  <path class="st0" d="M2139.99,1548.03c1.53,5.78-6.78,5.97-10.68,5.84-21.94-.72-64.58-10.71-82.31-23.88-11.49-8.53-22.51-24.28-34.06-33.94-17.05-14.25-53.94-34.29-74.99-41.01-23.72-7.57-92-12.98-104.77-35.22-5.45-9.5-1.09-12.35-1.09-20.76,0-7.06-1.45-35.44.85-39.14,2.76-4.44,11.51,1.66,12.67,5.43,4.07,13.31-12.07,45.16,5.65,54.37,50.89,15.92,118.98,19.09,160.77,55.23,17.79,15.39,31.48,41.13,52.17,51.83,23.93,12.38,51.56,10.67,75.8,21.22Z"/>
  <path class="st0" d="M2285.99,850.01c4.01,3.73-18.95,20.43-22.16,22.82-48.04,35.58-59.01,24.39-112.79,29.21-18.97,1.7-59.06,14.97-76.4,23.6-22.68,11.3-71.31,54.86-96.71,49.59-12.93-2.68-33-33.32-43.9-42.27-1.03-4.54,9.37-7.08,12.67-6.75,11.53,11.34,22.63,39.26,42.19,35.73,43.9-22.25,95.79-69.28,146.15-73.91,38.5-3.53,60.97,9.9,98.75-9.25,8.35-4.23,46.29-34.29,52.21-28.77Z"/>
  <path class="st0" d="M1195.03,106.01c7.68-1.51,38.15,48.97,41.9,58.06,11.49,27.82,4.76,44.72,7.32,72.68,1.82,19.83,14.56,60.5,23.38,78.62,12.52,25.71,54.86,69.99,50.26,99.51-1.71,10.98-33.38,32.27-41.23,42.84-7.81,2.13-8.01-8.5-5.63-13.69,3.02-6.59,32.18-20.62,34.66-33.5,2.12-10.98-30.03-53.6-37.32-65.9-16.06-27.14-36.73-63.61-38.46-95.53-1.19-21.9,5.09-44.54,1.18-67.19-4.13-23.94-25.11-42.04-34.58-61.42-1-2.05-6.31-13.52-1.49-14.47Z"/>
  <path class="st0" d="M450.01,1199.99c-.23-3.37.41-6.74,2.6-9.41,5.91-7.18,38.62-28.47,48.04-32.93,30.19-14.28,45.76-7.27,76.31-9.69,22.41-1.77,62.88-14.68,83.11-24.89,24.39-12.31,69.15-53.27,96.79-48.98,12.1,1.88,33.56,31.98,42.84,41.23,2.12,7.66-9.18,8.42-13.71,5.65-4.05-2.47-13.24-19.43-18.95-25.03-16.11-15.81-20.52-9.03-37.66.45-41.83,23.15-86.11,62.31-136.43,65.57-21.91,1.42-46.89-5.55-69.09-1.09-27.41,5.51-47.75,31.96-73.87,39.11Z"/>
  <path class="st0" d="M1759.44,545.41c7.96-6.39,14.07-53.71,17.16-65.82,7.77-30.51,18.29-71.34,38.38-95.62,24.38-29.46,49.53-35.31,62.02-75.98,5.81-18.92,4.58-40.1,16.01-55.95,4.38-.15,2.94,15.44,2.74,18.71-1.44,22.7-10.85,58.98-24.91,77.08-7.73,9.95-19.9,17.25-28.77,27.23-42.35,47.62-41.57,91.55-59.06,146.94-4.34,13.74-12.01,38.2-28.45,39.57-7.89.66-37.27-.49-45.63-1.47-11.58-1.35-6.58-12.84.08-14.09,13.61-2.56,37.97,9.43,50.45-.59Z"/>
  <path class="st0" d="M2217.99,695.97l28,10.06c-4.21,18.65-23.44-3.49-34.03-1.16l-293.99,136.1-33.96,9.01,335-167.94c5.66,3.61-1.66,8.98-1.02,13.92Z"/>
  <path class="st0" d="M1194,507.98l-6.39-4.59-161.6-333.38,9.29,3.8c4.99.46,11.7-22.48,12.71-27.82l9.3,6.95c-1.56,10.21-12.21,18.45-8.38,29.05l133.42,288.63,11.64,37.34Z"/>
  <path class="st0" d="M1608.02,536l118.41-352.57,5.54-3.43,4.95,9.51,26.09-11.47,3.11,5c1.04,10.99-22.73,9.95-27.74,18.33l-113.37,308.63-16.99,25.99Z"/>
  <path class="st0" d="M852,1201.98l-337.99,164.01c7.38-17.33-11.89-16.94-24-22.02l.89-6.07c5.27-7.2,24.26,6.55,31.26,7.16l296.46-137.45c9.12-1.94,18.98-6.54,27.94-8.19,3.08-.57,4.03-2,5.45,2.56Z"/>
  <path class="st0" d="M2202,1392.03l12.02,28.95-11.74.74-9.72-25.75-308.56-112.97c-7.58-5.42-16.66-8.46-24.24-13.82-2.37-1.68-4.91-.06-3.75-5.17l355.95,122.99-9.96,5.03Z"/>
  <path class="st0" d="M1127.99,1514.01l-122.99,355.95-4.89-9.12-30.1,9.15c-4.35-17.77,20.34-12.16,26.46-22.52,38.95-96.03,68.37-198.55,108.04-293.96,4.78-11.5,10.15-24.59,17.1-34.9,1.73-2.57,2.27-5.46,6.38-4.6Z"/>
  <path class="st0" d="M1707.99,1877.99l-11.81-1.86-10.11,24.95c-17.29-.58.33-20.17,1.58-28.56-38.58-95.37-90.33-188.14-130-283.16-6.63-15.88-13.71-32.01-15.63-49.35l165.97,337.99Z"/>
  <path class="st0" d="M542.51,653.49l305.45,111.55c8.89,4.22,17.65,8.94,26.08,14,2.53,1.52,5.07-.4,3.95,4.96l-355.98-120.01,10.15-7.2-10.07-27.64c13.69-12.2,14.91,19.93,20.42,24.35Z"/>
  <path class="st0" d="M900,1410.02c-14.44,15.75-29.61,31.14-45.01,45.97-39.13,37.67-84.92,71.17-111.32,119.66-9.52.78-18.62-4.8-14.59-15.57,2.36-6.31,21.5-30.66,26.98-37.03,30.2-35.1,94.09-90.6,135.28-110.72,2.85-1.39,5.27-2.95,8.67-2.31Z"/>
  <path class="st0" d="M2005.4,478.59c5.87,6.72-7.45,21.78-11.77,28.04-22.97,33.25-56.11,57.16-83.8,86.2l-73.82,47.16c-.86-3.76,2.12-4.74,3.99-6.99,36.45-43.84,92.48-80.83,129.03-124.97,6.59-7.96,16.52-28.93,21.56-33.45,4.03-3.61,11.95.74,14.81,4.01Z"/>
  <path class="st0" d="M1971.99,1085.99c-3.18-2.62.23-3.64,2.97-3.99,17.75-2.27,47.17-.43,66.13-.09,37.94.68,86.9,6.85,123.67,1.86,8.72-1.18,26.09-7.85,32.39-7.68,6.48.18,8.69,13.17,5.86,17.94-2.18,3.67-39.26,9.44-46.05,9.95-29.82,2.22-78.13,1.5-107.76-2.18-24.98-3.1-51.59-13.89-77.22-15.8Z"/>
  <path class="st0" d="M981.99,555.99c-2.11,2.27-14.2-11-16.04-12.94-34.99-36.75-81.41-94.51-120.11-123.89-5.61-4.26-25.56-14.85-28.01-18.04-4.52-5.88,3.7-16.95,9.13-17.09,3.67-.09,33.05,21.81,37.99,26.02,41.68,35.55,79.25,81.65,107.89,128.11,1.63,2.65,10.54,16.33,9.16,17.82Z"/>
  <path class="st0" d="M1296.48,1859.53c-2.07-2.19-8.03-40.6-8.46-46.56-3.77-52.6,1.76-127.97,17.68-178.27.84-2.66.69-6.09,4.27-6.71-.36,24.32.52,48.74.1,73.08-.64,37.37-6.7,85.33-1.88,121.71.88,6.66,8.09,28.11,7.37,31.97-.98,5.27-15.35,8.74-19.09,4.77Z"/>
  <path class="st0" d="M1752.01,1492.01c2.09-2.29,14.22,11.03,16.04,12.94,34.93,36.65,72.81,83.02,109.92,116.08,6.79,6.05,37.58,24.58,39.07,26.98,3.26,5.24-2.21,15.46-8.12,16.06s-32.09-19.23-37.87-24.12c-43.3-36.66-87.95-90.81-115.86-140.14-1.43-2.53-3.87-4.42-3.19-7.79Z"/>
  <path class="st0" d="M763.99,964.03c2.87,2.87-.18,3.62-2.96,3.98-4.94.62-12.91.32-18.13.09-49.59-2.21-113.28-7.68-161.98-4.17-11.35.82-36.2,9.08-43.89,8.19-6.77-.78-9.31-16.47-1.59-19.69,5.6-2.33,26.6-5.24,33.85-6.14,27.88-3.48,80.95-2.77,109.47-.04,27.22,2.6,57.64,14.25,85.24,17.79Z"/>
  <path class="st0" d="M1427.97,419.99c-2.87,2.87-3.62-.18-3.98-2.96-.62-4.94-.32-12.91-.09-18.13,2.19-49.17,7.88-113.83,4.17-161.98-.6-7.79-10.27-43.87-7.85-46.73,16.03-4.33,17.4-3.57,21.18,11.4,8.34,33.09,7.54,98.41,4.35,133.14-2.52,27.42-14.05,57.58-17.77,85.25Z"/>
  <path class="st0" d="M2002.01,1745.99c12.91-3.35,9.54-33.42,27.95-20.99l-44.22,88.72c-10.32,2.85-6.82-2.91-9.54-6.39s-11.36-3.96-15.96-14.74c-5.97-13.98,8.93-11.9,9.7-12.64.49-.47-.23-9.31.53-12.48,4.7-19.59,18.18-37.06,27.47-54.56,24.28-1.75.24,28.71,4.07,33.09Z"/>
  <path class="st0" d="M646.01,1658.01c4.03,15.58,28.49,7.5,23.98,27.98l-88.76-42.21c-2.75-1.31-4.05-3.6-3.09-6.59.39-1.21,16.38-17.07,17.96-18.08,15.7-9.97,13.58,5.1,17.82,7.97,3.09,2.09,10.15.27,14.63,1.37,3.68.91,8.91,3.64,12.81,5.19,5.8,2.32,34.01,17.6,36.8,21.2,4.88,6.31-1.3,10.55-7.35,11.13-9.42.9-15.56-8.36-24.79-7.97Z"/>
  <path class="st0" d="M2121.72,422.3c-.7-.6-13.71-1.47-18.17-2.85-7.1-2.2-43.7-20.77-46.57-25.44-1.58-2.57-1.62-5.47-.04-8.05,10.34-9.51,21.34,6.25,33.06,4.02-8.01-14.24-29.63-6.44-23.98-27.98l91.05,45.94-1.01,5.12c-8.07,4.32-21.1,28.21-31.18,17.06-2.57-2.84-2.61-7.35-3.15-7.82Z"/>
  <path class="st0" d="M2327.99,1085.99c2.27-11.32-13.73-25.76-1-34.01,2.03-1.31,1.5-3.19,4.04-.02l30.62,91.51c1.47,9.93-6.87,4.65-10.65,4.94-7.45.56-16.25,3.84-23.67-.73s-.94-11.64-1.81-16.44c-.34-1.89-6.51-7.79-8.29-11.47-3.57-7.39-18.25-49.61-17.04-54.61,1.03-4.26,10.69-4.06,13.83-2.17,6.3,3.8,4.72,22.41,13.97,23Z"/>
  <path class="st0" d="M409.51,902.48c5.87,5.67-1.1,12.12-.97,14.55.06,1.13,10.15,13.94,12.43,19,3.03,6.72,13.93,41.57,13.12,46.92-2.57,16.99-24.26-7.08-21.92-17.75l-6.16-1.18c-.11,12.9,17.9,28.52-2,33.99l-30-97.99c8.9,2.78,28.16-4.63,35.5,2.47Z"/>
  <path class="st0" d="M1491.99,30.01c-2.11,10.54,2.36,20.39-.12,30.87-3.03,12.79-13,4.09-18.49,5.42-2.47.6-6.27,6.13-9.96,8.13-13.41,7.26-36.3,13.81-51.37,16.74-12.33,2.4-10.25-11.52-.58-16.69,5.21-2.79,16.38-2.27,16.52-10.46-14.37-.78-21.19,13.04-33.98,1.95l2.07-4.88,95.9-31.08Z"/>
  <path class="st0" d="M1330,1958c8.31,17.79-23.78,19.05-23.96,25.01-.23,7.62,23.82-6.07,26.54-4.74l7.41,9.72-97.98,30.01c3.02-9.58-4.71-31.81,5.99-37.05,6.94-3.39,9.8,3.35,12.73,2.87,1.79-.29,5.67-5.77,8.6-7.49,17.81-10.51,40.16-16.17,60.67-18.33Z"/>
  <path class="st0" d="M757.52,236.65c.8.98.13,3.77.95,4.74,2.8,3.3,12.62,5.85,16.52,14.71,6,13.63-9.57,12.68-10.81,14.09-.67.77-.74,14.37-2.65,20.35-4.91,15.39-17.39,30.38-23.78,45.2-21.27-.18-8.8-15.86-4.84-25.82,3.27-8.21-2.37-10.2-7.33-1.32-5.51,9.87-2.8,20.54-19.59,17.39l43.01-90c1.51-3.15,6.84-1.37,8.5.66Z"/>
  <path class="st0" d="M1175.74,1842.28l2.33,28.76-2.04,4.09c-11.13.41-23.53,1.6-34.8,3.12-5.84.78-19.08,5.82-22.3,5.65-2.63-.14-4.65-3.19-5.95-3.23-.89-.03-7.63,5.24-10.98,6.35-6.42,2.13-15.2,3.37-21.99,4.99-3.28-8.11,5.12-8.66,5.73-11.1,1.08-4.34-5.84-20.1,3.63-27.02,7.03-4.69,9.8,2.01,13.28,1.76,2.03-.14,5.4-2.96,8.46-3.55,9.97-1.91,18.64-2.86,28.91-2.07l.94,3.96c5.1-2.85,30.61-18.4,34.78-11.69Z"/>
  <path class="st0" d="M2105.99,558.01c.39.36-1.12,4.09,1.25,6.15,1.5,1.31,6.72,2.08,9.45,4.16,6.74,5.14,12.66,11.08,19.86,16.13s17.96,5.73,15.47,15.52c8.6-.87,20.09,5.24,26.71,10.3,12.87,9.85-5.95,8.16-6.7,8.62-2.9,1.76-5.87,10.87-12.53,13.59-17.27,7.05-12.76-3.51-15.86-8.09-.4-.6-9.85-3.62-13.12-5.9-6.52-4.55-12.06-10.78-18.5-15.49l5.99-1.01c-5.49-8.43-32.16-7.78-35.65-17.39-2.52-6.94,5.76-9.12,10.66-14.57,2.94-3.26,8.45-16.27,12.98-12Z"/>
  <path class="st0" d="M589.62,1416.49c2.22,2.14-.12,6.66,2.32,8.43,2.92,2.12,8.76,2.65,12.74,5.4,6.03,4.16,10.59,10.91,17.31,14.7l-5.97,4.95c7.41,1.59,43.94,8.69,36.13,20.56-1.27,1.94-9.02,6.99-12.16,10.45s-3.24,11.3-10.05,10.11c-1.31-9.44-6.2-6.08-10.65-9.34-9.93-7.27-28.16-19.06-36.01-25.63-2.01-1.68-.6-5.05-2.45-6.31-2.5-1.71-8.71-1.51-12.25-3.39-5.14-2.74-10.99-8.48-16.56-11.46.46-7.72,7.66-2.97,10.13-4.02,3.45-1.48,16.19-25.4,27.48-14.47Z"/>
  <path class="st0" d="M507.71,736.35c.7.42.72,4.39,3.51,5.36,6,2.1,26-3.08,28.6,7.67,1,4.11-3.64,6.27-3.77,9.6-.26,6.75,8.13,19.47,6.1,34.17-.53,3.87-4.25,2.75-4.28,3.93-.15,7.53,19.18,25.13,12.03,36.85-12.54-4.08-22.3,1.52-33.92.06,3.76-7.89-.82-13.7-1.79-21.19-1.64-12.64-.47-25.86-6.28-38l4.09-3.76c-2.09-3.51-5.71-7.25-7.04-11.02-1.43-4.05-8.87-30.74,2.74-23.67Z"/>
  <path class="st0" d="M2217.99,1214.01c-3.6,7.66,1.17,11.41,1.92,17.09,3.13,23.64,4.47,39,10.69,61.29.81,2.91,4.37,18.67,3.38,19.6-7.72,3.33-8.95-5.11-10.82-5.44-5.58-.97-18.6,5.77-25.31-3.41-5.04-6.88,1.12-8.97,1.4-12.19.21-2.39-4.17-6.92-4.83-10.4-1.49-7.9-.95-18.25-2.42-26.55l5.96-.97c-5.73-11.78-15.43-23.23-13.98-37.05l34-1.98Z"/>
  <path class="st0" d="M961.99,209.98c-4.15,13.36,18.73,20.05,15.71,32.62-1.55,6.46-9.63,4.31-11.35,5.73-.55.45-1.8,8.34-3.55,11.47-1.86,3.31-13.07,17.02-15.82,18.18l-4.95-3.97c-3.11,7.5-7.11,38.83-18.66,35.8-1.52-.4-17.14-19.38-23.32-20.82,8.2-4.22,9.93-11.99,15.13-18.83,4.05-5.32,18.01-26.35,19.9-28.17,2.06-1.98,5.79-1.44,7.11-3.27,1.58-2.19,1.35-7.71,2.83-10.72,1.25-2.54,8.45-17.15,9.31-17.66,1.9-1.12,5.3-.04,7.66-.36Z"/>
  <path class="st0" d="M1834,1763.98c-2.58-.09-5.01-.02-6.93,2.04-7.64,8.21-21.35,35.68-28.13,41.99-2.05,1.91-5.72,1.52-6.51,2.4-.64.71-1.71,9.52-3.63,13.39s-5.84,9.76-8.32,13.62c-1.74,2.73-.22,3.44-5.46,2.55-4.88-2.73-.64-6.76-1.97-9.92-1.61-3.83-11.12-9-13.53-14.56-6.71-15.49,4.03-11.17,8.08-13.87,1.61-1.07,11.74-29.45,21.41-31.62l1.01,5.99c3.68,5.1,10.44-43.52,22.02-37.14,1.05,7.73,26.75,20,21.96,25.12Z"/>
  <path class="st0" d="M1655.99,158.01c2.45,6.75-5.34,6.79-6.03,9.39-2.08,7.83,5.38,31.2-10.84,28.59-2.52-.41-4.72-3.14-6.17-3.24-2.5-.17-6.88,4.15-10.4,4.82-7.89,1.49-18.25.94-26.55,2.42l-.96-5.95c-5.47,3.65-33.43,21.64-36.88,10.68-1.43-4.54,5.14-20.33-1.95-27.76l3.06-2.75c18.51-.14,37.52-4.71,55.95-7.98,10.1-1.79,9.71-2.15,19.16-4.84,3.22-.92,20.31-4.64,21.62-3.36Z"/>
  <path class="st0" d="M1678,751.98l143.98-137.98c-2.29,15.8-9.23,41.03-20.93,52.05l-123.05,85.93Z"/>
  <path class="st0" d="M1056,1298.02l-141.98,135.98c.68-13.46,6.4-32.07,13.6-43.38,8.13-12.78,96.92-73.84,115.75-86.25,3.8-2.51,7.87-6.35,12.63-6.35Z"/>
  <path class="st0" d="M1778,1477.98c-16.84-.08-34.21-8.21-49.02-15.96-27.22-39.73-57.6-77.57-84.57-117.43-1.86-2.75-4.89-4.97-4.4-8.58l137.99,141.97Z"/>
  <path class="st0" d="M1093.98,714l-135.97-143.99c16.99,2.85,34.22,8.96,48.83,18.15,23.65,39.32,62.44,78.39,84.47,117.53,1.55,2.75,3.44,4.72,2.67,8.31Z"/>
  <path class="st0" d="M953.98,996.03c.48,3.48-4.54,1.88-6.96,1.97-27.5,1.03-54.82-1.61-81.94-2.08-36.39-.63-73.03,2.2-109.07-2.91,15.67-10.81,35.46-22.57,55.08-21.08l142.9,24.09Z"/>
  <path class="st0" d="M1341.99,1438.01l-6.96,195.97c-10.38-12.81-17.99-30.57-21.19-46.98,10.73-46.54,12.92-98.19,24.1-144.15.83-3.4-1.96-5.82,4.05-4.85Z"/>
  <path class="st0" d="M1977.99,1054.01c.86,4.11-2.03,4.64-4.6,6.38-6.95,4.7-34.71,17.77-42.37,17.8-46.33-8.44-93.03-14.77-139.43-22.8-2.71-.47-10.72-.3-9.6-4.37l196,2.99Z"/>
  <path class="st0" d="M1395.97,611.98c-3.48.48-1.88-4.54-1.97-6.96-1.05-28.16,1.6-56.16,2.08-83.94.63-35.71-2.33-71.75,2.91-107.07,11.06,15.31,22.67,35.46,21.07,55.07l-24.09,142.91Z"/>
  <path class="st0" d="M1520,1140c.62,3.4-.74,4.16-3.48,5.52-3.13,1.55-29.1,6.29-33.6,6.5-28.62,1.34-37.25-19.57-57.04-32.89-11.81-7.95-40.4-18.7-48.03-30-4.66-6.9,1.54-18.7,8.67-21.6,5.85-2.38,23.54-.67,30.04.92,4.27,1.04,28.37,11.95,23.43,17.55-32.14-10.14-36.23,3.33-12.93,23.95,17.2,15.22,38.01,30.06,61.94,30.06h31Z"/>
  <path class="st0" d="M1252,1175c-.18.72-3.31,3.51-3.98,3-5.2-25.08-14.38-42.84.31-66.67,5.81-9.42,16.44-17.1,22.55-25.45,7.95-10.86,13.74-27.31,21.44-38.56,6.89-10.07,16.42-20.28,28.78-9.42,10.6,9.3,1.17,45.06-7.11,55.09-2.04,2.47-4.32,5.62-7.98,5l3.75-25.74c-7.61-3.52-12.1-3.04-18.76,1.75-3.75,2.7-29.68,35.7-31.8,40.2-2.38,5.06-7.2,25.8-7.2,30.8,0,7.36,1.44,24.35,0,30Z"/>
  <path class="st0" d="M1560,1000.02c-8.59,15.31-20.84,38.58-38.05,44.93-13.32,4.91-31.71,3.01-46.43,5.57-15.51,2.7-40.08,14.05-54.67,13.32-6.78-.34-11.79-14.09-10.5-20.37,2.6-12.62,37.89-32.88,51.65-29.46l-19.49,18.96c3.63,9.95,10.67,11.47,20.44,11.05,30.68-1.33,49.4-6.28,72.9-25.18,4.15-3.34,19.78-22.28,24.17-18.81Z"/>
  <path class="st0" d="M1274.01,1035.99c-1.95-8.11,3.88-5.56,7.89-9.06,2.2-1.93,9.39-8.19,9.79-10.22-1.83-13.6-15.93-11.47-26.66-10.68-28.65,2.11-42.62,5.16-64.87,23.13-8.11,6.55-14.45,17.25-24.16,20.82-3.89-4.28,22.53-36.97,28.12-40.86,17.7-12.35,33.29-7.09,52.36-9.64,12.01-1.61,52.51-18,61.49-12.49,4.83,2.96,6.73,12.42,5.94,17.87-2.1,14.53-35.42,31.45-49.91,31.13Z"/>
  <path class="st0" d="M1357.67,958.31c3.25,5.14-1.6,19.91-7.7,22.66-7.09,3.2-28.12.54-35.95-1.99-2.59-.84-23.95-11.52-20.01-14.97l26.11,1.11c7.03-10.98-5.57-20.62-13.17-27.08-21.34-18.13-37.58-28.07-66.57-29.61-8.56-.45-17.63,4.35-26.38-1.42,7.76-4.79,22.07-7.93,31.23-8.77,36.27-3.33,39.08,14.34,64.14,31.38l48.29,28.69Z"/>
  <path class="st0" d="M1378.63,977.36c-2.3-1.93-13.36-16.84-15.02-19.97-1.56-2.93-12.51-32.99-3.59-26.42l13.95,18.09c14.47-.77,12.78-14.79,12.11-26.14-1.74-29.41-6.39-46.24-25.24-68.75-5.37-6.41-13.36-9.8-16.91-17.13-1.12-2.31-2.58-4.92,1.06-4.99,1.94-.04,29.14,18.99,32.1,21.87,18.04,17.56,12.57,35.38,15.13,56.87,1.53,12.78,8.84,27.86,11.28,40.72.71,3.77,2.91,16.62,2.56,19.38-1.41,11.08-19.07,13.49-27.42,6.48Z"/>
  <path class="st0" d="M1377.99,1117.99c-4.78,5.61-11.73-25.15-24.81-15.81-8.34,5.95-3.96,25.16-2.9,34.53,3.2,28.11,7.64,38.84,25.72,60.28,4.95,5.87,15.11,9.36,15.99,18.99-1.89,1.84-27.88-15.36-30.99-17.99-22.57-19.12-14.81-41.38-19.47-66.53-2.13-11.49-17.39-47.97-11.72-56.55,17.84-26.96,52.57,23.84,48.17,43.07Z"/>
  <path class="st0" d="M1487.98,872c2.56,21.08,11.85,41.81,1.12,62.11-5.81,11-17.65,19.56-24.76,29.24-7.4,10.08-11.96,22.74-18.73,33.27-7.89,12.25-13.04,25.33-29.05,15.82-13.78-8.18-4.58-42.57,3.05-53.83,2-2.95,3.79-7.33,8.38-6.6l-1.75,25.76c11.35,4.53,15.45,0,22.78-7.75,19.58-20.66,33.83-44.09,34.85-73.33.28-8.13-3.77-12.24-.08-21.92,1.03-2.72-.68-3.41,4.19-2.77Z"/>
  <path class="st0" d="M1715.99,770.01c.84,3.84-1.96,4.78-4.18,6.8-35.16,31.93-74.22,67.34-110.87,97.13-3.74,3.04-23.27,19.45-26.94,16.04,1.07-5.51,5.28-11.92,8.37-16.61,15.75-23.91,97.4-94.56,123.99-102.01,3.19-.89,6.25-1.81,9.62-1.36Z"/>
  <path class="st0" d="M1162,1158.02c-5.39,10.41-11.27,21.08-18.97,30-21.71,25.15-82.9,77.34-113.07,88.93-3.86,1.48-7.63,3.38-11.94,3.04-.71-3.51,1.8-4.94,3.96-7.02,25.12-24.25,53.42-45.4,80.05-67.95,7.08-5.99,53.5-52.13,59.98-47Z"/>
  <path class="st0" d="M1621.98,1374c-30.28-27.41-54.56-60.93-80.95-92.03-5.06-5.96-11.85-11-16.98-17.02-4.19-4.93-26-29.65-22.03-34.95,8.07,4.8,16.65,9.02,24,14.98,23.24,18.84,87.17,91.81,95.03,118.96.97,3.35,1.23,6.61.92,10.06Z"/>
  <path class="st0" d="M1233.99,817.99c-25.01-7.58-39.98-30.03-56.92-48.06-19.65-20.9-43.95-46.46-57.44-72.56-3.27-6.32-6.8-14.24-7.62-21.36,2.17-2.34,18.78,15.58,21.02,17.96,21.21,22.59,39.87,48.41,59.94,72.06,4.19,4.94,45.99,46.97,41.02,51.96Z"/>
  <path class="st0" d="M1793.99,1088.03c2.8,2.92-.17,3.62-2.96,3.97-8.42,1.07-23.2.49-32.12.08-26.55-1.22-53.45-5.94-79.94-8.06-21.31-1.71-47.46,1.58-68.21-5.8-2.84-1.01-3.36.6-2.78-4.2,26.39-9.16,50.39-4.82,77.1-3.92,27.05.91,54.19,2.02,81.31,8.5,9.46,2.26,18.35,6.6,27.59,9.44Z"/>
  <path class="st0" d="M1317.97,1266.01c1,.96,5.7,23.73,6.01,27.01,2.95,31.01-3.55,127.09-18.94,153.03-1.3,2.18-2.03,5.49-5.02,5.96-1.99-38.58,4.91-76.74,7.96-115.02,1.64-20.57-1.44-45.19,4.68-65.4.49-1.63,1.69-9.04,5.31-5.57Z"/>
  <path class="st0" d="M1435.99,598.01c-1.36,43.17-6.48,86.01-9.97,129.01-.48,5.86.26,56.93-7.02,56.94-2.85-1.92-3.11-4.99-4.04-7.92-10.09-31.87-1.42-120.53,7.61-154.46.53-2,8.66-29.21,13.41-23.57Z"/>
  <path class="st0" d="M940.01,959.97c-7.12-7.26,19.37-1.93,20.91-1.89,37.67,1.09,72.72,4.79,110.1,7.9,5.7.47,54.93-.07,54.94,7.02-1.92,2.85-4.99,3.11-7.92,4.04-31.66,10.02-113.91,1.65-147.69-6.39-10.68-2.54-20.22-6.8-30.34-10.68Z"/>
  <path class="st0" d="M1283.98,650l-67.97-171.99c6.46,1.74,15.3,2.06,20.72,6.26,7.57,5.87,21.98,53.11,25.12,64.88,8.83,33.12,13.02,67.75,22.13,100.85Z"/>
  <path class="st0" d="M1453.97,1400.01l66.02,169.98c-15.13.44-22.52-2.22-28.96-16.02-6.39-13.71-14.44-40.42-18.45-55.55-8.5-32.11-11.26-65.95-22.62-97.38l4-1.02Z"/>
  <path class="st0" d="M1161.99,1350.01l-72.99,167.95c-13.12-13.08-13.19-20.18-6.41-36.37,18.57-44.41,50.05-85.72,74.44-127.64,1.52-2.62-.34-5.03,4.97-3.93Z"/>
  <path class="st0" d="M1744.01,941.99l4.9-6.08c53.84-20.12,108.78-38.38,160.44-63.62l4.39,2.64c-3.23,16.48-4.91,21.14-20.39,27.42-48.12,19.51-100,24.5-149.34,39.64Z"/>
  <path class="st0" d="M1860,1300.02c3.09,3.4-10.65,12.17-13.95,13.05-17.35,4.65-51.32-21.29-68.66-27.46l-85.39-55.59,168,70Z"/>
  <path class="st0" d="M1041.98,820l-167.97-72.99c8.59-9.92,16.81-13.53,30.05-10.07,8.46,2.21,39.3,18.33,48.55,23.44,25.94,14.34,59.82,36.52,84.78,53.22,2.59,1.73,5.47,2.25,4.59,6.39Z"/>
  <path class="st0" d="M1575.97,699.99l-3.77-2.76,74.78-165.23c8.36,8.95,11.27,17.81,8.08,30.06-2.21,8.46-19.4,39.89-24.71,49.28-17.05,30.12-40.46,56.74-54.37,88.65Z"/>
  <path class="st0" d="M992,1108.02l-169.99,67.97c-.37-11.65,3.17-21.56,13.97-27.01,10.39-5.24,35.55-12.97,47.59-16.41,35.52-10.16,72.85-14.48,108.43-24.55Z"/>
  <path class="st0" d="M450.68,1033.37c4.6,6.59,4.74,9.18,8.19,14.77,4.15,6.72,28.94,37.71,19.97,44.09l-14.79.74c-11.27-10.19-23.65-19.01-35.11-29-.85-.74-10.8-6.4-1.9-6.03,5.57.23,7.94,3.84,12.97,4.05l-7.99-11.97,15.98,5.98c-2.49-14.92-27.47-27.52-28-6-3.93,3.74-10.28-11.38-7.03-18,2.1-4.28,17.25-10,22.03-10.03,11.49-.06,10.97,4.65,15.69,11.4Z"/>
  <path class="st0" d="M2053.67,1610.32l6.32,54.61-5,1.09-4.96-12.01-.03,12-5.84-.13c-2.6-3.64.45-13.48-6.13-11.89-5.04,17.97-.65,30.84,19.97,24.01-.09,23.95-32.86,15.99-37.14,2.06-3.88-12.61,13.61-55.3,15.31-70.9,4.59-6.87,11.87-.92,17.5,1.14Z"/>
  <path class="st0" d="M2292.46,691.52c-6.65-7.44-6.44-36.7-17.56-37.62-9.2-.76-25.61,19.32-23.91,28.09l8.99-6c.41,5.52,15.11,21.32,8.03,27-6.23,9.03-36.73-7.38-39.47-11.53-7.89-11.93,14.89-31.11,23.43-38.49,13.68-11.81,23.94-23.5,36.44-2.39,2.8,4.73,12.21,30.43,12.81,35.39.79,6.47-5.09,9.66-8.77,5.54Z"/>
  <path class="st0" d="M697.48,441.46c-5.41,4.36-10.48.31-15.5-2.45l-5.96-57c3.9-4.86,8.47,13.81,8.01,15.98l1.99-15.98c7.2-.45,6.29,9.1,8.01,13.98,3.32.03,3.87-6.75,3.99-8.98.33-6.32.9-14.87-6.07-18.02-7.15-3.23-7.78,2.36-13.94,3-2.58-26.74,35.31-15.68,37.67,1.49.51,3.72-3.76,19.24-6.72,22.49l-11.48,45.49Z"/>
  <path class="st0" d="M501.99,643.97l-11.95-4.97c5.14-6.84,2.7-27.28,17.84-21.95,9.79,3.44,17.83,34.43,11.22,41.06s-48.84,3.84-59.67,1.45c-22.02-4.85,4.53-47.56,10.49-58.64l5.05-.91,3.04,4.88c-.29,10.05-20.13,30.98-15.11,39.13,5.75,9.33,30.79,3.79,39.08-.05Z"/>
  <path class="st0" d="M2009.99,332.01c1.87,7.14-12.02,7.36-12.01,8.99l11.98,4c-2.9,6.46-15.18,1.81-13.97,8.99,17.27,4.94,34.18.02,24.02-19.98l16.02,7.4c.86,23.87-9.23,34.28-32.81,28.37-4.19-1.05-7.13-4.02-11.09-4.91-8.26-1.85-42.14-5.06-43.83-14.14-.48-2.56,4.3-11.31,7.08-12.35,13.3-4.99,39.74-2.73,54.61-6.37Z"/>
  <path class="st0" d="M1400.01,1967.99l3.97-13.99-9.97,5.99c-.73-6.08,1.5-11.01,5.98-15-9.86-.8-22.79,11.77-17.03,23.04,2.3,4.5,11.16,2.79,9.02,6.94-1.97,3.81-12.01,5.85-15.92,4.07-8.99-4.09-13.36-25.78-8.23-33.72,2.77-4.29,18.61-9.08,22.85-11.64,8.85-5.35,33.65-27.8,43.44-20.8,1.82,3.17,4.22,9.66,2.89,13.03-1.03,2.6-26.39,34.4-29.98,38.12-2.08,2.15-3.51,4.67-7.02,3.96Z"/>
  <path class="st0" d="M1746.47,120.46c-7.26,13.24-2.63,24.37,1.56,37.52l3-10.02c5.24.42,25.03,4.58,25.16,10.98.09,4.54-4.2,12.02-8.28,13.96-1.8.86-25.65,7.02-27.04,6.94-14.2-.8-11.57-35.1-10.85-44.83,1.55-21.12,2.4-32.19,27.08-25.12,5.43,1.55,35.95,15.93,34.89,21.07-2.96,14.27-38.42-19.54-45.52-10.51Z"/>
  <path class="st0" d="M724,1715.98c3.48-5.84,11.63-8.15,17.99-8l-15.98-1.99c-.78-8.54,11.38-4.99,13.97-9.96-16.07-5.39-33.64-2.5-25.99,17.96-26.16-.41-15.27-30.92,1.46-37.7,9.66.29,19.36,5.66,27.66,7.61,14.64,3.43,60.36,5.56,35.51,27.73l-54.62,4.36Z"/>
  <path class="st0" d="M1710.02,1906l5.97,11.99c-8.34-2.42-7.31,3.69-12.92,6.04-13.61,5.69-19.87-2.7-15.57-15.46.63-1.86,11.35-20.61,12.39-21.66,10.86-11.02,19.43,3.55,25.11,9.1,6,5.87,29.21,26.52,28.56,34.66-.59,7.33-9.48,13.33-15.48,16.42-5.49,2.83-38.29,15.99-40.07,7.89-2.32-10.56,39.12-11.58,40.1-22-2.03-14.96-15.81-21.3-28.09-26.97Z"/>
  <path class="st0" d="M1367.49,103.49l-57.45,33.62c-7.49,3.6-12.32-3.01-12.2-10.17.14-8.35,27.44-35.95,33.19-44.92,8.28-3.47-4.43,17.43-3.01,17.98,5.38-2.92,5.82-11.84,13.97-9.99l-5.97,15.99c8.14-4.09,20.04-11.33,17.13-22.09-2-7.39-11.18-4.41-11.14-11.89,22.41-9.3,32.23,12.99,25.48,31.48Z"/>
  <path class="st0" d="M434.01,1356l7.66.35c7.22,7.45,7.8,38.98,17.61,39.14,11.53-2.12,25.13-16.2,23.73-27.47l-9,3.98c-1.61-8.48-10.71-14.14-7.77-25.75,11.05-7.89,43.04,7.79,41.77,20.56-.73,7.37-33.28,38.49-40.51,41.68-21.56,9.51-31.87-37.91-33.49-52.49Z"/>
  <path class="st0" d="M2269.57,954.42c6.29,10.8,36.28,25,40.41,34.61,3.46,8.04-14.14-4.54-15.98-3.01l7.99,11.97-13.98-3.98c-2.28,2.28,7.81,14.5,11.4,15.57,18.16,5.4,13.89-11.53,17.59-11.54,15.98,18.5-5.77,31.6-23.96,27.91-7-1.42-5.31-5.78-8.31-9.77-5.36-7.15-4.4-8.2-7.93-13.99-8.44-13.81-40.37-46.95-7.24-47.77Z"/>
  <path class="st0" d="M1026,141.98l-5.71-4.24c-2.51-8.47,4.48-5.79,5.25-6.41,1.49-1.22,1.46-4.02,4.93-5.83,3.17-1.65,9.75-3.14,13.51-2.59,12.36,5.9-5.32,43.8-18.7,42.54-5.56-.52-19.76-14.59-24.34-19.4-5.55-5.82-19.64-21.33-18.96-28.84,1.33-14.59,38.57-23.17,50.84-27.02l3.24,4.85c-.04,10.66-37.84,10.72-39.69,20.22-1.96,10.04,19.18,27.67,29.62,26.73Z"/>
  <path class="st0" d="M987.69,1929.68c6.89-4.25,5.16-35.2-3.67-39.67l-2.97,11.94c-4.12-3.41-22.89-4.85-23.07-12.85-.3-13.24,43.3-29.93,46.12-8.19,1.25,9.62,1.5,51.44-4.99,57.2-9.59,8.51-42.31-6.13-51.02-13.18-5.86-4.75-5.85-11.52,1.99-10.12,9.68,1.73,30.14,19.5,37.62,14.88Z"/>
  <path class="st0" d="M2258.01,1447.99c-1.43-16.62,14.52-26.71,15.12-41.99-4.61-9.06-34.06-7.41-39.13,1.98l9.96,2.99c-4.92,6.75-.57,19.06-12.58,22.72-5.68-2.41-9.8-3.74-12.4-9.66-3.33-7.58-9.93-28.62-1.76-33.82,6.75-4.3,59.72-3.99,64.65,2.93,5.24,10.05.16,20.73-3.5,30.23-1.85,4.8-13.26,31.56-20.35,24.63Z"/>
  <path class="st0" d="M681.98,506c-4.65.88-3.18-.39-4.42-2.58-5.1-8.97-7.77-20.7-16.57-27.42l5,19.98c-7.18,1.08-10.31-6.13-15-9.98-5.96,23.29-16.07-13.89-19.99-13.97-8.05,5.91-6.26,11.3-5.01,19.95l-20-2,.33-4.66c7-4.46,21.78-37.45,27.76-36.49,25.16,15.11,60.92,17.65,47.89,57.17Z"/>
  <path class="st0" d="M850,1713.98c-11.73,2.05-23.31,9.17-31.99,17.03l21.98-5c-.05,7.72-6.78,10.96-11.98,15l7.98,5.96-19.97,14.06c-2.04,5.22,14.66,7.49,17.97,4.98l-2.01,19.99-39.59-24.35.07-6.11c10.07-11.55,14.91-43.47,30.97-47.11,7.25-1.64,22.76-2.08,26.58,5.56Z"/>
  <path class="st0" d="M1918,316.02l-21.99,5.97c.06-7.73,6.78-10.95,11.98-15l-9.97-3.96,21.94-16.03c-3.57-8.03-17-1.66-19.03-4.9l1.08-20.09,33.85,21.12,7.58,7.84c-14.56,22.91-20.14,65.86-57.4,46.03l31.96-20.98Z"/>
  <path class="st0" d="M1488,1878.02l-9.98,35.98,13.96-20,2.04,17.99,7.97-1.99-3.98,25.98c9.63,1.34,11.87-3.59,16.99-9.95,3.85,3.79,8.65,8.04,11.08,12.92.77,1.56,3.49,2.18-.04,4.08-1.94,1.05-40.85,8.93-43.23,8.87-1.71-.04-2.92-.26-3.81-1.88-7.33-25.86-31.79-62.86,9-72.01Z"/>
  <path class="st0" d="M1255.72,98.29c7.36,26.99,31.55,60.79-7.71,73.7l7.97-35.98c-3.01-.31-9.46,23.14-13.97,17.98l-.03-19.98c-4.35,1.63-2.52,8.02-9.97,5.98-2.97-6.87,10.96-27.69,1.43-27.61-10.38.09-8.92,9.09-9.47,9.62-3.81,3.62-17.19-10.7-15.97-15.97l47.72-7.74Z"/>
  <path class="st0" d="M2293.79,913.8c-28.68,4.55-60.68,32.87-73.78-9.79l37.98,9.97-16.04-9.01c-9.88-2.8-.72-7.13,5.15-7.12,4.21,0,6.98,2.02,10.9,2.13l-5.99-9.97,27.98,3.98c-.72-6.32-2.92-12.71-9.72-14.23l-.37-2.72c.76-5.92,11.32-10.1,16.08-13.03l7.81,49.8Z"/>
  <path class="st0" d="M516,1143.98l-37.99-7.96,19.98,10.97c-2.21,5-15.24,2.47-19.99,3.03l3.99,9.97-25.97-5.99c.01,3.6-.28,9.84,1.8,12.72,1.59,2.21,9.26,1.44,8.17,6.25-.71,3.15-16.41,12.85-17.98,11.02l-7.86-47.82c28.75-5.92,60.2-32.2,75.85,7.81Z"/>
  <path class="st0" d="M2072.04,1573.99l3.94-.96-5.96-21.02c2.1-2.38,14.7,10.33,14.01,13.97l1.94-8.85c1.22-9.59,16.44,15.71,16.07,18.85,9.15-.92,8.58-11.1,5.97-17.97l21.99,2.01c-8.15,8.6-16.43,30.05-23.95,37.03-2.07,1.92-3.31,3.66-6.56,2.66-24.2-14.97-62.45-19.41-45.47-57.71l18.01,31.98Z"/>
  <path class="st0" d="M2276.03,744l7.95-8-3.97,41.99c8.31,2.61,19.37-28.59,23.99-23.97-5.03,9.89-10.45,20.55-9.98,31.97,3.07-1.92,7.27-9.31,8.46-12.51,2.04-5.45-.15-12.96,5.49-15.48,7.37,15.1-6.23,22.27-7.96,35.99l9.98-9.02c3.35,1.74-.68,6.11-.09,9.86.86,5.42,7.48,5.98.09,13.14l7.99,3.99c-5.15,1.93-10.89,1.58-16.09,2.93-5.56,1.44-12.6,7.79-16.93,3.15-1.83-1.97-10.85-30.96-12.07-35.95-1.47-6.04-8.74-45.99-6.89-48.09,5.06-.25,9.28,5.43,10.02,9.99Z"/>
  <path class="st0" d="M1648,1935.98l7.99,6.01c-14.66.87-27.38-7.94-41.98-3.98-3.42,3.11,17.75,15.56,20.01,17.04.99.65,7.82,1.8,3.96,4.94-1.63,1.33-26.22-11.91-31.99-9.97,4.67,8.36,14.81,9.71,23.1,11.96,3.22.88,5.91-2.13,4.89,4.01-15.26,4.03-22.42-7.58-35.99-7.97l10,9.96-12.88-2.06-4.1,4.17-7-4.09c-.05,3.68.5,8.82-4,10,1.85-7.66-11.13-31.47-6.05-35.02,1.44-1.01,29.3-9.36,33.56-10.45,6.01-1.53,42.07-8.94,45.51-8.59,13.73,1.4-5.76,13.02-5.04,14.03Z"/>
  <path class="st0" d="M2209.99,1456.01l-1.99,13.97,11.99-.99c-8.51,12.05-27.11,14.2-31.98,29l31.98-5.98c1.03,5.16-1.08,3.5-3.89,5.01-2.11,1.14-28.81,10.29-24.08,14.98,4.8-2.15,9.91-2.07,14.79-4.19,2.23-.97,15.43-12.65,13.16-4.85-3.48,11.96-20.77,11.27-29.95,17.07.23,5.23,14.48-3.04,13.95,2.97-.13,1.43-6.38,3.93-8.1,5.93-3.33,3.88,1,9.28-9.86,7.09l5.98,7.01-2.94,2.94c-4.71-6.76-27.92-12.37-26.75-20.49.28-1.94,15.63-30.07,18.07-34.13,2.83-4.72,20.32-31.2,22.71-33.29,2.52-2.19,3.44-2.59,6.92-2.06Z"/>
  <path class="st0" d="M1841.99,203.99l-5.97-31.99c6.64,5.71,8.34,16.18,13.01,24.05,1.52,2.57-.37,5.05,4.96,3.94.42-10.44-5.34-19.58-11.98-27,14.99-2.25,14.2,18.2,21,27l3.97-12c3.25,6.9,3.85,11.11,12.95,10.08l.09,7.94,7.96-6c1.87,2.47-13.53,26.93-17.36,29.81-5.24,1.31-60.64-33.69-67.57-39.86-2.45-2.18-5.69-4.1-5.03-7.94l13.97,1.98-.99-11.99c13.2,8.34,14.89,28.93,31,31.98Z"/>
  <path class="st0" d="M1161.74,107.75c-27.18,8.53-55.15,16.72-83.73,18.24-1.54-6.94,4.09-7.26,7.95-10.99l-7.96-6.98c14.68-3.62,30.98,9.69,43.96.98l-25.95-18.01c11.18-2.66,20.15,9.63,31.99,6.99-1.84-3.66-7.25-6.62-10.89-8.09-1.54-.62-23.68-4.54-11.86-7.67,11.37-3,21.53,8.95,32.76,9.75l-9.99-11.97c7.34,5.19,14.64-1.32,17.04-1.34,1.94-.02,3.38,4.59,6.94,3.32l1-7.98,8.75,33.74Z"/>
  <path class="st0" d="M469.99,1314l-7.69-.29-2.33-7.7-4.1,1.15-1.89,6.84c-10.35-6.55,6.66-36.13.01-44-4.69-1.28-3.38,1.26-4.56,2.57-6.11,6.79-8.14,12.07-12.45,19.49-1.52,2.62.34,5.03-4.97,3.93.94-10.29,8.71-18.89,9.92-29.09.47-3.93-.53-3.03-3.89-2.88-4.07,7.37-5.84,13-8.02,21.09-.87,3.24,2.12,5.9-4.01,4.89-3.22-13.73,6.1-21.61,7.97-33.99l-9.97,7.99c-1.15-6.65,6.07-13.03-2.11-15.03l4.1-8.94-10-.04,1.97-3.01c7.95,1.46,28.28-10.87,33.06-4.99,1.73,2.13,9.12,28.53,10.38,33.61,3.81,15.27,6.34,32.75,8.58,48.41Z"/>
  <path class="st0" d="M525.99,580.01c-1.48-1.35-12.56,5.21-9.97-.99,3.8-9.08,31.04-14.76,29.97-29.02l-31.98,5c8.77-6.82,23.48-7.88,29.99-16.99-11.73-2.79-19.92,9.49-29.99,8.99,2.63-3.33,4.11-7.7,8.12-9.88,3.53-1.92,26.37-5.66,21.85-11.13l-10.97,2.01-.99-3.97,9.63-4.34.32-6.69,6.03-1.03-3.98-5c.02-8.05,11.52,3.57,14.56,5.45,6.54,4.04,15.12,2.07,13.07,12.1-.73,3.56-12.82,25.83-15.58,30.54-3.53,6.04-19.52,31.05-23.22,34.78-9.23,9.3-10.27-1.69-6.85-9.83Z"/>
  <path class="st0" d="M935.99,1867.99l-13.98-1.98,1,9.98c-6.3-1.39-22.57-36.77-29-29.98l5.98,31.98c-5.32,1.01-3.48-1.13-4.89-4-1.11-2.27-9.94-28.96-15.1-23.97,2.28,4.58,2.45,9.8,4.51,14.47.66,1.5,12.44,16.91,4.51,13.5-11.51-4.96-10.79-21.84-18.04-29.97,1.68,27.62-4.47-1.2-14.98,4.01l-.02-8.01c-18.72,9.22-6.45-1.71-1.11-10.13,4.1-6.46,3.04-15.34,13.61-13.55,2.72.46,25.91,13.47,30.15,16.02,4.5,2.71,34.03,22.6,35.48,24.52,1.84,2.44,2.32,4.04,1.87,7.11Z"/>
  <path class="st0" d="M1589.99,850.01c2.03,1.88-10.51,13.71-12.38,16.6-5.15,7.94-8.27,23.84-12.2,28.82-2.45,3.09-57.17,48.5-60.68,50.28s-9,4.39-11.85.37c-5.49-7.77,7.7-11.8,11.19-15.02,8.82-8.15,29.61-28.96,35.95-38.04,3.99-5.71,4.25-11.88,8.89-17.11,3.4-3.84,27.44-19.35,33.3-22.7,2.52-1.44,4.43-3.85,7.79-3.19Z"/>
  <path class="st0" d="M1146.02,1200c-2.43-3.06,12.45-18.85,15.06-23.92,3.45-6.71,5.3-18.41,9.56-23.45,5.43-6.43,26.2-19.95,34.31-26.68,5.54-4.6,27.61-30.1,35.09-25.04,8.88,6.01-6,13.95-9.09,17.04-9.12,9.14-30.62,29.63-36.97,39.03-3.66,5.43-3.35,10.33-6.85,15.15-6.2,8.55-32.19,19.48-41.11,27.87Z"/>
  <path class="st0" d="M1332.02,1306c1.51-13.16-2.52-24.4-6.45-36.57-1.12-3.48-4.39-6.24-5.08-8.91-1.55-5.99,3.92-77.01,5.99-85.05.8-3.1,2.58-7.6,6.53-7.59,11.33.05,3.09,21.67,3.01,27.13-.13,10.19.71,34.14,1.94,44.04.95,7.71,6.17,11.7,6.22,19.93.03,6.01-5.87,33.72-7.86,40.33-.81,2.68-.76,6.09-4.28,6.7Z"/>
  <path class="st0" d="M1405.81,879.79c-2.03,1.44-8.45.45-9.61-3.09-.56-1.72,1.97-29.55,1.89-35.78-.21-17.21-.22-33.95-8.15-49.86l11.07-47.05c2.35,6.96,2.01,15.01,3.93,22.05,2.23,8.23,11.04,22.86,11.12,28.88.19,13.21-4.74,32.23-6.04,46.08-.69,7.34,1.39,34.79-4.21,38.77Z"/>
  <path class="st0" d="M1289.84,899.85c-7.56,5.39-15.92-12.85-19.86-16.83-14.8-14.95-32.54-32.24-52.07-39.93l-25.9-41.08c7.93,3.14,12.8,9.89,20.66,14.32s20.92,7.01,26.38,11.62c9.3,7.85,23.14,29.51,31.92,40.08,3.98,4.79,28.52,24.94,18.87,31.82Z"/>
  <path class="st0" d="M1086.02,991.97l25.62-5.34c24.56-15.8,46.58-7.13,73.38-4.66,7.33.68,37.14-2.68,38.88,7.24s-16.62,4.75-20.82,4.69c-15.28-.2-43.18-.35-57.13,3.04-4.24,1.03-6.99,5.1-12.93,5.13-10.84.06-34.02-10.5-47.01-10.11Z"/>
  <path class="st0" d="M1541.98,1248c-5.81-4.69-10.89-9.67-17.38-13.6-8.55-5.18-22.78-8.1-28.7-13.3-9.73-8.54-22.82-28.99-31.95-40.05-7.8-9.44-21.88-16.91-19.94-31.05,12.48-2.9,14.72,9.75,21.9,17.09,6.57,6.71,24.29,23.96,31.1,28.9,6.16,4.46,14.42,5.5,18.89,9.11,1.62,1.31,21.25,30.72,23.41,34.59,1.54,2.75,3.44,4.72,2.67,8.31Z"/>
  <path class="st0" d="M1648.01,1056.01c3.09,2.53-.03,3.64-2.97,3.99-4.96.59-9.55-.23-15.14.89-10.52,2.12-18.02,8.12-25.84,10.16s-75.47-3.12-84.59-5.53c-8.93-2.35-12.42-12.47-.5-12.4,20.55.13,42.92,3.74,63.86.7,7-1.02,10.76-5.72,18.12-6.04,12.7-.55,32.82,9.44,47.06,8.22Z"/>
  <path class="st0" d="M1409.98,1220c-6.58-.61-10.97-16.78-12.34-17.64-3.42-2.14-12.47,1.71-16.23-7-1.77-4.09,2.95-5.29,2.34-9.87-.86-6.46-17.11-33.74-20.72-43.53-4.06-11.01-6.65-22.5-9.02-33.96,3.51-.71,4.94,1.81,7.02,3.96,19.05,19.72,29.48,43.01,39.06,68.94,4.4,11.92,8.89,26.56,9.89,39.09Z"/>
  <path class="st0" d="M1535.99,1130.03c.37,9.92-15.65-.56-20.9-.03-4.82.49-9.28,8.16-15.84,5.86-3.52-1.23-2.31-6.93-6.56-9.55-8.18-5.04-34.33-10.58-46.04-15.96-4.21-1.94-28.52-15-28.6-17.36,2.87-4.51,4.53-2.23,7.97-2.05,25.75,1.39,48.76,8.92,72.47,19.56,12.47,5.59,24.32,15.31,37.51,19.52Z"/>
  <path class="st0" d="M1561.99,982.01c.08,7.76-11.14,7.43-14.94,12.04-3.26,3.95-3.58,16.76-10.33,17.75-2.56.37-4.56-4.11-9.22-3.54-3.71.45-32.15,16.72-40.45,19.79-7.98,2.95-23.05,8.34-30.98,9.08-15.22,1.42,5.01-9.8,7.75-12.31,17.81-16.35,23.83-16.81,46.17-25.83,3.69-1.49,6.37-4.58,10.02-5.98,5.01-1.91,40.35-12.42,41.99-10.99Z"/>
  <path class="st0" d="M1283.99,1012.01c.95,4.21-2.25,4.48-4.55,6.43-21.54,18.24-40.47,28.5-67.48,38.51-12.54,4.65-27,7.5-39.94,11.04-4.01-3.78,15.65-12.12,16.92-14.06,1.67-2.53,1.38-7.2,3.31-10.69,5.76-10.41,10.15-1.59,13.86-2.13,6.35-.93,33.49-17.07,43.38-20.64,4.83-1.75,32.45-10.28,34.51-8.47Z"/>
  <path class="st0" d="M1301.99,1076.01c-3.64,11.02-.21,23.44-2.93,34.05-4.66,18.23-24.91,62.56-35.88,78.18-1.68,2.39-.07,4.89-5.17,3.75-1.4-6.61,4.33-12.89,3.94-18.86-.37-5.66-7.93-11.86-5.82-17.88,1.21-3.45,6.62-2.72,8.84-5.28,2.53-2.93,11.94-35.04,15.32-42.68,4.59-10.37,11.41-19.49,15.57-30.05l6.14-1.23Z"/>
  <path class="st0" d="M1478.02,896.01l-7.81.18c-7.41,24.14-16.1,55.18-31.62,75.29-1.29,1.68.02,3.65-4.58,2.51,2.39-9.72-.88-23.5.82-32.07,1.53-7.71,14.78-38.33,18.81-47.28,5.78-12.85,13.26-28.12,22.34-38.64,3.15,6.51-3.94,17.13-3.6,20.69.4,4.17,9.19,11.39,5.63,19.31Z"/>
  <path class="st0" d="M1336.48,845.51c3.95,3.7,18.95,1.34,16.98,11.1-.5,2.48-3.66,3.11-2.69,7.38,1.1,4.87,7.39,11.86,9.59,16.65,8.74,18.94,17.18,38.39,19.63,59.35-3.5.71-4.94-1.8-7.02-3.96-17.52-18.23-27.5-39.88-36.53-63.47-4.2-10.98-9.97-28.51-12.2-39.83-.93-4.74,2.45-2.93,4.82-.79,4.21,3.81,5.12,11.41,7.42,13.57Z"/>
  <path class="st0" d="M1240.01,913.99c.31,2.57-1.27,6.47,1.17,8.26,5.06,3.72,34.82,11.21,44.19,15.39,7.63,3.4,19.22,9.37,26.03,13.97,2.57,1.74,5.46,2.27,4.6,6.38-8.99-3.11-23.39.99-30.49-.34s-26.4-11.7-34.94-15.21c-17.26-7.1-37.36-12.19-50.56-26.42,6.2-2.69,16.65,4.18,20.67,3.51s11.3-9.12,19.33-5.54Z"/>
  <path class="st0" d="M1699.99,654.01l-101.97,125.99c2.38-8.04,6.64-17.08,10.26-24.72,16.1-33.91,29.87-40.58,54.8-65.2,9.93-9.81,18.65-22.66,29.92-32.08,2.25-1.88,3.24-4.84,6.99-3.99Z"/>
  <path class="st0" d="M1357.98,688c-4.8-5.54-7.51-15.83-10.02-22.96-14.33-40.72-7.56-55.88-7.87-96.13-.09-12.49-6.46-29.31.92-40.89l16.97,159.99Z"/>
  <path class="st0" d="M1031.99,1034.02c-.05,3.13-5.94,3.54-8.49,4.48-49.38,18.23-60.33,13.31-110.6,13.41-13.04.03-30.7,6.54-42.89-.92l161.98-16.97Z"/>
  <path class="st0" d="M1138,1270.02c-9.49,15.04-15.66,37.02-26,50.98-10.39,14.02-27.69,25.68-40.09,37.91-9.27,9.13-19.16,24.37-29.81,32.19-2.72,2-4.19,3.71-8.1,2.88l94.06-116.92,9.94-7.04Z"/>
  <path class="st0" d="M1737.98,1358l-125.96-104c12.8,7.36,27.17,11.72,40.02,18.96,19.72,11.13,66.08,59.14,81.97,78.03,1.89,2.25,4.85,3.25,3.98,7Z"/>
  <path class="st0" d="M1121.99,793.99c-18.91-7.83-37.81-16.9-54.94-28.04l-71.05-73.93,125.99,101.97Z"/>
  <path class="st0" d="M1396,1522c-3.91-.8-3.53-4-4.01-6.99-7.04-43.29-14.22-106.38-16.05-149.97-.07-1.68.06-3.38.08-5.04.45-.62,2.38,1.02,3,1.98,1.73,2.66,16.98,46.43,16.98,49.02v111Z"/>
  <path class="st0" d="M1864,996c3.38,2.54-.24,3.64-2.98,3.98-51.15,6.42-102.9,8.97-153.98,16.09l-3.04-4.05,49-16.02h111Z"/>
  <path class="st0" d="M1227.98,434l4.01-10.01c-.93,13.81,9.34,31.14,9.66,43.62.11,4.42-2.96,6.09-2.98,7.44-.03,1.96,4.59,3.38,3.32,6.94-10.42-4.8-17.43-10.32-29.98-8l5.98-6.02c-1.23-4.3-9.98.55-5.37-7.53.38-.67,5.27.49,3.38-4.42l-9.99-2.15c4.2-8.26-3.72-6.96-6-10.89-3.39-5.85,8.77,1.81,5.97-3.95-1.12-2.3-12.69-10.33-9.97-13.02l19.98,11.98c.32-5.69-5.18-11.69,1.01-15.95l10.98,11.96Z"/>
  <path class="st0" d="M426.59,1173.53c1.11,1.08,3.59-.71,6.07,2.9s9.42,24.81,7.19,27.42l-39.84,8.14c-3.29-7.58,3.9-10.1,4.19-12.9.81-7.97-5.4-21.21-.37-27.91,1.32-1.76,4.54-.62,5.6-1.65,1.47-1.44.69-6.72,3.7-7.45,9.07-2.21,11.7,9.71,13.46,11.43Z"/>
  <path class="st0" d="M1923.99,209.98c-4.48,13.75,19.13,19.27,21.16,29.91.43,2.27-2.45,3.85-2.38,5.06.09,1.75,3.58,3.82,3.2,5.91-.18.99-8.04,6.54-9.33,6.74-2.93.45-5.27-2.83-7.88-3.05-2.78-.24-5.6,1.72-9.25,1.12-5.44-.89-15.71-8.69-21.67-10.95-.82-3.85,14.37-30.3,17.14-32.74,2.93-2.59,5.47-2.17,9.01-2Z"/>
  <path class="st0" d="M815.57,1150.51c.58.34.3,3.79,1.38,3.51l7.06-3c-3.06,9.98-10.07,17.53-8.02,28.98l-7-5.98-1,6.01-7.97-4.01-3.02,8.16c-8.62-.24-6.57,1.94-12.02,7.83l-1.98-5.98-15,9.98c-3.37-3.28,15.49-13.94,11.98-19.98l-13.98,1.98,10.01-12.97c.06-3.03-12.59,2.44-10.03-5.01,9.23,2.36,44.1-12.74,49.58-9.5Z"/>
  <path class="st0" d="M2148.95,1554.62c2.46-.27,27.81,14.85,30.09,17.34,9.59,10.55-2.94,8.02-6.09,9.88-5.96,3.53-9.5,15.23-17.55,18.71-6.8,2.94-19.96,1.44-20.61-7.55-.16-2.25,2.25-5.31,2.54-8.28.22-2.21-1.31-4.76-.88-7.25.56-3.19,10.04-22.58,12.5-22.85Z"/>
  <path class="st0" d="M838,1804.03c1.2,1.62-15.7,30.08-18.26,32.71-11.04,11.36-8.01-5.81-9.52-7.83-2.97-3.99-16.68-11.13-19.3-17-1.63-3.63,1.64-10.29-1.02-14.8,3.25,1.03,6.96-5.07,7.43-5.16,5.1-1.01,8.02,3.35,9.68,3.32,1.38-.03,3.15-3.04,5.63-2.91,5.38.28,18.19,11.54,25.35,11.67Z"/>
  <path class="st0" d="M1190.32,61.72c3.39,2.07,33.27-9.6,31.93,6.01l7.76.28c.6,15.36-8.54,11.73-11.61,14.39-1,.87-.11,4.85-3.53,7.44-1.51,1.15-22.27,8.35-23.56,7.99-5.24-1.48-12.15-37.41-10.4-39.87l6.03-1.9,3.38,5.66Z"/>
  <path class="st0" d="M593.03,446.29c10.85,8.2,3.95,12.58,3.79,18.73-.03,1.14,2.47,2.69,2.26,5.1-.23,2.74-9.3,21.87-11.06,22.99-6.11,3.9-30.11-15.36-36.01-20.15-1-4.67,8.34-5.08,12.14-7.82,4.73-3.42,8.93-13.98,13.93-16.2,4.91-2.18,10.24,2.3,14.94-2.65Z"/>
  <path class="st0" d="M1868.02,1314l7.97-3.99-1.99,7.97,11.8-3.87c1.49,8.64,5.72,3.56,12.2,3.91l-5.99,5.96c6.19.94,16.54-3.01,19.99,4l-22,2.04,9.99,13.97-15.99-1.97,5.99,8.99c-.15,1.92-3.26,1.14-4.6.61-2.49-1-32.06-19.82-34.18-21.85-4.2-4.01-1.66-9.52-9.2-7.78l1.17-4.1c10-2.36,17.47-5.57,23.84-13.88l1.01,9.99Z"/>
  <path class="st0" d="M1954.01,871.99l15.99.03-11.96,10.98,9.95,6.99c-13.64-2.27-26.59,6.52-39.25,7.87-6.52.69-12.29-2.27-18.74.13,5.76-8.84,9.47-17,8.01-27.97l7.97,5.98,6.01-8.01,1,6.01,5.04-10.01,5.8,1.9,7.16-7.89v6.01s15-11.99,15-11.99c1.41,9.33-11.27,11.45-11.97,19.99Z"/>
  <path class="st0" d="M2336.01,838.01c3.17,8.31-5.01,8.42-5.85,11.21-1.11,3.7,5.24,23.13.94,28.92-1.38,1.85-5.6,1.13-6.72,2.35-1.03,1.12.97,10.9-11.06,3.19-3.8-2.44-2.75-5.68-4.43-7.64-1.93-2.26-5.47-1.34-7.06-3.34-1.3-1.64-8.56-25.46-7.74-26.58l41.92-8.11Z"/>
  <path class="st0" d="M1671.99,480.01l.98,20.02c3.39,6.11,8.24-10.56,13.02-8.02l-1.92,13.02,3.94,1.99,5.03-5.01c8.31-3.56-5.02,12.7-5.86,14.15-2.39,4.14-13.71,26.38-15.61,27.43-2.17,1.2-6.13-.4-7.4.63-.68,3.84,1.59,6.88-4.14,5.78l-2.54-12.47-9.47-13.52,8-.03-1.99-7.97,7.98,1.98-4.12-10.86,4.26-2.33-2.13-10.77,5.96,3.97c3.89-5.15-1.59-19.27,6.01-17.97Z"/>
  <path class="st0" d="M856,1857.98c-10.41-2.92-18.49,6.11-22.42,14.59-7.21,15.58.05,38.94,13.42,49.43,4.28,3.36,20.35,7.94,14.85,15.85-5.51,7.94-34.2-11.81-33.88-21.83l-1.99,7.98c-5.97-5.52-10.14-18.42-10.14-27,0-15.67,20.79-59.76,40.16-39.02Z"/>
  <path class="st0" d="M1545.8,1952.19l8.19,39.82c-7.1,2.71-7.51-3.82-10.89-4.2-9.27-1.04-18.82,5.74-27.94-.04-2.95-1.87-2.83-7.6-9.11-5.8-.82-17.69,6.32-12.05,11.72-16.21.23-.18-1.96-3.4,1.02-5.8s24.65-9.46,27.02-7.77Z"/>
  <polygon class="st0" points="1086.01 1525.99 1079.98 1526.01 1082 1531.99 1074 1532.01 1078.02 1543.98 1071.98 1544.02 1073.98 1556 1068.02 1550.01 1065.98 1569.99 1061.98 1548.01 1048.01 1557.99 1049.99 1542.01 1040.01 1545.99 1064.18 1504.04 1069.98 1506.03 1073.01 1498.01 1086.01 1525.99"/>
  <path class="st0" d="M417.98,1252c-4.48-2.38-7-7.49-12.87-7.72-24.08-.92-41.02,21.22-39.92,44,.38,7.9,7.45,19.57.81,22.78-9.26,4.47-13.61-15.99-13.85-22.36-.27-7.37,3.67-13.48,3.83-20.68l-8,8.97c2.61-17.77,13.34-29.89,30.07-35.93,16.44-5.93,34.5-10.39,39.93,10.95Z"/>
  <path class="st0" d="M885.99,727.99c4.13.39,9.36-2.29,8.02,4-12.54-2.35-18.14,8.04-28,12l1.97-9.99-7.97,3.99-.03-7.99-10.86,4.12-2.33-4.27-8.78,2.15,3.97-5.97c-5.15-3.89-19.27,1.59-17.97-6.01l19.98-.02c2.97-2.49-9.89-11.65-9.95-12.99-.22-4.7,14.05.11,15.94,1l-2.99-11.99c5.4,6.9,39.36,21.84,40.6,27.21.32,1.38-1.94,4.52-1.6,4.77Z"/>
  <path class="st0" d="M1521.99,1576.01l-5.99,7.97,7.99,3-5.97,5c10.45-.38,8.02,10.77,15.97,12.07l-1.01,3.99-4.95.94,11.98,15.01-19.98-13.98-.03,15.99-12.97-10.01-2.01,10.01-10.92-39.2-.09-18.78c9.37,3.11,17.38,9.97,27.98,8Z"/>
  <path class="st0" d="M1596,1974.02c-23.83,23.65,8.01,54.03,34.68,53.22,5.74-.18,20.18-7.26,23.17-3.08,7.32,10.24-18.42,15.84-24.86,15.82-7.5-.02-13.93-4.52-20.99-5.96l12,6c2.51,8.56-16.3-.81-18.72-2.31-13.75-8.54-23.31-35.25-21.43-50.82.88-7.3,9.31-11.33,16.14-12.88Z"/>
  <path class="st0" d="M534.02,514c1.38-9.45-1.12-13.32-7.98-19.04-18.21-15.18-44.99-5.12-58.06,12.01-2.87,3.76-3.72,16.08-11.92,12.13-9.79-4.71,4.36-23.32,9.93-28.11,5.76-4.95,12.19-8.76,20-9.01-2.39-5.82-11.37,1.58-15.01,2.03l-2.97-3.98c19.41-8.14,34.72-9.11,53.38,1.59,13.32,7.64,25.79,17.67,12.64,32.38Z"/>
  <path class="st0" d="M1140.02,76c-.53-6.03,7.45-7.3,7.99-13.03.59-6.28-3.15-17.8-6.96-23.01-9.78-13.34-25.42-19.89-41.89-17.79-6.52.83-16.84,8.95-19.24-1.18,9.28-16.32,33.47-12.27,48.08-5.01l-13.99-8,2.98-3.93c18.72,6.75,29.05,15.34,35.13,34.84,5.58,17.93,7.88,29.76-12.09,37.11Z"/>
  <path class="st0" d="M1908.02,135.99l-.05-8.96,4-1.02c7.22,15.6,8.93,32.22,1.16,48.12-1.55,3.18-12.89,19.81-15.16,20.85-6.66,3.05-13.14-1.21-19.96-.99l16.02-6.95c16.01-16.33,12.2-43.36-3.96-58.1-7.3-6.66-22.26-7.54-15.8-18.68,8.33-5.35,34.14,15,33.76,25.74Z"/>
  <path class="st0" d="M2376.02,786c4.64-1.5,4.82-6.91,6.45-10.53,1.16-2.59,3.5-6.39,3.58-.44-3.92,23.58-24.61,35.17-47.06,36.94-13.41,1.06-18.8-.04-19.99-13.95,26.72,20.02,54.39-13.25,50.85-40.85-.81-6.34-7.86-14.48-.61-18.99,13.02-4.26,13.69,24.25,12.29,32.36-.98,5.71-4.99,9.9-5.49,15.47Z"/>
  <path class="st0" d="M2248.01,1568.03c3.18,5.99,13.44-4.97,17.98-1.03-15.62,12.84-32.94,10.75-49.87,1.89-14.22-7.44-24.9-15.58-18.1-32.86,4.11,1.73,1.84,9.5,4.59,13.39.43.61,10.7,8.42,11.95,9.03,18.14,8.86,40.93-1.12,52.3-16.56,4.75-6.45,3.06-15.53,13.25-10.99,5.68,17.73-16.13,34.76-32.1,37.14Z"/>
  <path class="st0" d="M1897.99,113.99c-9.56-2.63-16.62-10.66-27.72-7.71l-4.21,24.79c-3.84,2.92-9.31,2.05-13.16,4.83-7.48,5.41-8.71,24.48-26.87,8.95-.35-1.61,17.02-25.3,18.92-26.89,4.7-3.92,12.28-3.67,12.81-4.2,1.36-1.36-1.22-10.76,7.66-15.34,14.55-7.49,28.37.78,32.56,15.56Z"/>
  <path class="st0" d="M2278.01,1555.99c-.58-6.96,6.22-11.09,7.54-17.46,4.54-21.82-17.94-9.59-25.14-14.93-1.68-1.24-1.97-9.16-4.32-12.7-6.66-10.04-21.84-7.39-10.06-28.9l29.69,23.27c1.86,12.09,6.99,8.55,13.38,12.62,15.27,9.71,3.79,33.96-11.1,38.1Z"/>
  <path class="st0" d="M1100,4.02c-7.09,7.48-20.54,4.39-25.68,15.27l13.61,21.73c-9.63,11.15-2.12,18.82-4.93,30.99l-14.98,7.99c1.95-10.51-4.96-25.32-4.02-34.83.5-5.04,6.15-9.01,5.7-11.82-.86-5.41-8.95-5.77-3.85-18.49,5.84-14.56,21.03-14.57,34.14-10.84Z"/>
  <path class="st0" d="M2387.97,755.99c-6.22,1.47-3.37-6.31-5.53-11.44-1.7-4.04-4.21-9.67-7.78-12.35-10.25-3.3-18.14,14.04-23.33,13.53-2.98-.29-6.22-4.96-10.47-5.69-13.67-2.35-22.71,9.72-28.87-14.02,9.75-.18,21.6-4.04,31-4.18,11.93-.18,9.66,2.3,24.14.23,19.5-2.79,27.26,17.95,20.83,33.93Z"/>
  <path class="st0" d="M422,1323.99c-10.46-1.99-25.38,4.98-34.82,4.01-4.79-.49-8.19-5.2-10.18-5.32-5.81-.37-12.53,12.11-26.03-.64-9.35-8.83-4.31-33.44-.99-30.03.86,7.3,3.8,22.9,11.96,25.21,9.13,2.58,14.7-14.15,22.98-13.33,4.29.43,5.77,5.72,10.11,6.14,12.31,1.21,24.51-10.7,26.97,13.96Z"/>
  <path class="st0" d="M836.01,1934.01c1.87-1.84,17.74,13.18,27.52,8.67,6.48-3.68,2.28-23.03,6.36-25.79,2.39-1.62,7.42-.08,11.25-2.75,7.99-5.56,8.25-25.19,28.82-9.15-7.67,5.36-13.53,21.31-19.8,26.17-4.12,3.19-9.44,2.49-12.32,5.68-3.46,3.83-1.46,10-8.38,13.61-14.43,7.52-29.21-1.72-33.46-16.45Z"/>
  <path class="st0" d="M1665.99,1969.99c.03,11.27,5.97,26.07,3.93,36.91-.58,3.1-3.75,5.46-3.84,8.09-.19,5.11,6.43,8.52,3.04,19.11-4.46,13.9-21.43,12.41-33.1,11.89-1.01-5.65,1.32-3.29,4.38-4.5,6.95-2.74,15.71-3.09,19.31-10.93,2.18-7.97-6.9-11.06-10.58-16.68-6.52-9.96,1.57-7.73,2.89-14.95,2.29-12.53-10.44-25.22,13.97-28.93Z"/>
  <path class="st0" d="M458,494.02c1.1.86-13.17,15.8-8.57,25.44,3.76,7.89,12.57,3.29,19.53,4.58,8,1.49,5.71,7.9,8.98,13.02,6.3,9.89,21.05,8.41,12.05,28.92-3.11.67-4.62-.36-7.06-1.91-4.34-2.75-21.35-16.53-23.77-20.23-1.56-2.38-.57-6.64-3.14-8.86-1.7-1.46-6.11-1.64-8.72-3.28-22.12-13.79,4.7-42.42,10.72-37.7Z"/>
  <path class="st0" d="M553.99,933.99l-3.99-9.97c11.16,4,24.39-2.14,27.2,11.89,2.53,12.61-11.66,7.01-20.17,8.12-7.52.98-20.17,5.5-26.5,2.52-7.77-3.67-2.3-7.17-3.16-11.21s-5.76-8.8-3.36-15.34c13.67-2.39,17.06,14.72,29.98,13.99Z"/>
  <path class="st0" d="M749.72,1522.26l-.72,5.73c-9.31,4.97-19.84,29.64-27.02,33.01-10.78,5.07-8.77-5.42-10.28-6.69-2.1-1.76-15.98,1.77-13.7-10.29l29.99-6.05c1.63-6.68-6.97-4.03-9.98-6.96,2.44-4.24,8.69-3.56,11.4-5.61,1.65-1.24,2.02-5.16,4.52-6.44,6.13-3.15,10.48.84,15.78,3.3Z"/>
  <path class="st0" d="M2021.85,488.25l.39,5.38c1.16,1.21,10.18-.06,12.78,4.34,9.69,16.41-26.8,3.63-27.01,18.02l7.98,3.98c-9.05-.02-13.27,12.96-22.01,11.18-19.87-4.04-3.17-13.43,1.97-20.2,7.02-9.25,12.2-25.96,25.9-22.7Z"/>
  <path class="st0" d="M1458.01,211.99l9.98-3.98c-4.96,15.35,3.04,25.44-17.96,28,.07-9.56-8.3-45.04-4.22-50.87l1.46-1.32c9.97,6.02,14.42-5.93,21.5-3.67,12.76,4.07-16,25.98-10.76,31.84Z"/>
  <path class="st0" d="M2183.99,1125.99c-12.19-5.34-27.28,1.03-27.11-18.03l38.18-5.94,11.06.88,1.73,2.42c-3.99,9.76,6.81,13.63,3.22,22.74-2.42,3.3-3.78,1.33-6.49.4-7.65-2.62-13.41-11.58-21.58-14.41-6.02,3.86,2.1,6.86,1,11.94Z"/>
  <path class="st0" d="M1407.83,234.23l-5.62-3.32-.2-44.91c4.25-.4,12.12.75,13.66,5.33-.74,15.35,2.12,29.78,7.89,44,.87,8.45-13.81,13.34-18.56,18.63-6.54-3.66,4.56-17.4,2.83-19.73Z"/>
  <path class="st0" d="M1901.41,1666.56c7.82,9.33-1,11.15-2.84,13.98-2.14,3.31-1.04,12.66-9.49,13.45-8.46-1.91-.9-29.75-13.07-29.99l-2.98,7.97c-5.95-11.42-22.91-19.69-4.29-29.85,6.28,9.14,26.97,17.63,32.67,24.43Z"/>
  <path class="st0" d="M1285.99,1814c-3.72,12.78,6.87,35.88,3.6,46.58-3.05,10-9.25,1.91-10.63,1.86-1.54-.05-4.98,8.03-13.68,5.33-9.88-3.06,11.21-21.81,12.69-26.8,2.35-7.91-10.76,2.27-11.96,1.03,5.35-14.13-1.92-29.3,19.98-27.99Z"/>
  <path class="st0" d="M857.98,386l3.01-9.99c6.87,12.08,21.55,18.71,6.01,31.96-5.17-9.26-39.94-24.67-36.93-34.78,1.02-3.43,6.79-2.49,7.62-3.48,1.44-1.72-1.53-9.8,4.27-12.76,13.88-7.09,5.42,27.38,16.02,29.05Z"/>
  <path class="st0" d="M795.99,1544.03c4.36,4.48-13.38,7.6-15,9.86-.68.95,1.14,3.97-.79,7.12-1.14,1.86-23.56,27.94-25.08,29.12-2.38,1.84-4.36,2.94-7.19.97-12.09-14.84,5.14-16.39,10.15-24,2.84-4.31,5.32-9.81,8.73-15.19,1.9-3.01.94-7.56,3.96-10.12,6.03-5.1,18.3,1.19,25.22,2.23Z"/>
  <path class="st0" d="M595.99,989.99l-18.87-6.13-3.95,5.65c-6.3-3.36-44.47,5.06-45.1-2.48-.04-.45,3.1-7.35,3.8-8.16,5.27-6.09,19.35-1.12,26.75-2.91,1.46-.35,5.32-2.55,12.28-4.04,5.53-1.18,8.76-6.97,16.04.15,1.28,1.25,10.09,16.87,9.04,17.92Z"/>
  <path class="st0" d="M1896.01,1612.02l6.73-1.58c5.39,7.89,25.47,20.03,29.36,26.46,4.61,7.61-1.5,10.6-8.69,10.83-4.32-1.11-11.95-13.24-16.37-15.87-2.55-1.53-5.34.09-6.93-.91-2.63-1.66-11.44-7.43-13.16-8.89-9.73-8.23-.31-16.04-.95-26.04,3.43-3.7,11.34,12.49,10,16.01Z"/>
  <path class="st0" d="M1971.35,495.41c-.42.72-3.18,1.12-4.18,2.67-2.67,4.15-.09,10.32-8.6,11.52-2.98.42-14-2.48-17.66-3.54-9.79-2.84,10.5-11.51,15.1-10.07-1.02-2.91-2.62-4.57-1.13-7.91,3.25-7.3,21.23-20.17,25.11-29.09,9.12-4.13,12.04,3.51,9.61,11.6-1.67,5.57-10.77,7.89-13.69,12.32-2.49,3.79-2.09,8.23-4.55,12.51Z"/>
  <path class="st0" d="M849.57,426.41c5.61,3.74.16,22.19-2.56,27.58-6.3-2.34-6.4-15.39-8.89-17.13-1.16-.81-4.56,2.04-9.18-.67-2.69-1.58-29.17-26.93-28.84-28.95,11.76-14.76,18.42,3.1,26.82,8.83,3.51,2.39,10.51,5.99,15.2,8.88,2.16,1.33,5.91.45,7.43,1.46Z"/>
  <path class="st0" d="M1331.99,1796.01l-5.99,19.98,6.14,1.1,1.87,44.92c-2.89-.19-6.24.54-8.99-.01-10.7-2.15-3.7-16.42-5.12-24.9-.98-5.82-8.68-20.72-7.98-25.96.84-6.3,19-16.34,20.08-15.13Z"/>
  <path class="st0" d="M2176.54,1072.65c-3.98,1.85-12.59,5.71-18.11,6.94-12.55,2.8-14.32-12.33-20.42-19.57,7.58-1.26,13.62,2.57,19.91,5.95.29-1.58.69-4.12,2-4.97,4.49-2.94,34.25-.11,42.77-2.72,6.78,2.23,1.75,12.02-3.25,14.32-5.32,2.44-15.89-3.21-22.89.05Z"/>
  <path class="st0" d="M1408,886.02c-1.5,4.48-.36,9.9.54,14.44,2.13,10.7,13.32,40.67,11.04,48.11-1.84,6.03-6.93,7.12-10.42,1.25-2.92-4.9-12.17-31.32-12.99-37.01-1.58-11.07-1.81-26.11,11.83-26.81Z"/>
  <path class="st0" d="M1234.19,995.7c-.63-.6.55-7.32-5.22-7.67l1.97-3.46c11.01-.46,22-3.41,32.7-5.92,8.68-2.04,19.09-8.2,27.32-6.67,5.91,1.1,7.27,7.99,3.05,11.05-.69.5-13.27,4.92-16.05,5.94-7.32,2.68-39.08,11.26-43.78,6.74Z"/>
  <path class="st0" d="M1493.99,955.97c-2.33-.44-3.39.88-4.62,2.51-6.65,8.8-14.42,21.95-20.18,31.71-3.28,5.56-2.83,14.75-10.64,17.38-6.15,2.07-10.17.99-9.6-5.77,7.31-13.37,20.85-53.33,40.13-49.48,2.34.47,4.55.74,4.9,3.65Z"/>
  <path class="st0" d="M1439.72,1136.4c-1.39,1.67,2.39,15.76-2.69,13.59-8.23-7.11-19.02-14.19-28.41-19.6-6.14-3.55-22.8-8.88-24.27-13.77-2.07-6.88-.25-11.65,7.48-9.47,18.06,5.1,33.64,17.9,47.89,29.26Z"/>
  <path class="st0" d="M1285.98,1042.03c2.03,2.78-14.64,36.31-17.99,40.96-6.17,8.56-15.02,17.54-26,13l22.38-34.62c5.58-9.29,5.81-25.18,21.61-19.34Z"/>
  <path class="st0" d="M1502.01,1054.02l-1.71,3.67c3.11,1.51,6.59,1.84,5.68,6.3-12,.8-26.33,3.78-38.08,6.92-5.79,1.54-12.26,6.54-17.09,7.08-9,.99-18.54-6.81-7.7-11.87,19.22-8.97,37.24-14.55,58.89-12.1Z"/>
  <path class="st0" d="M1296.02,898c10.06,7.52,21.76,16.14,32.56,22.42,8.02,4.66,35.63,10.77,17.33,22.75-9.89-6.04-24.49-9.8-33.83-16.25-1.76-1.22-16.6-13.97-17.2-14.93-1.65-2.67,2.42-10.1,1.13-13.98Z"/>
  <path class="st0" d="M1337.48,1157.54c-.29.49-8.22,8.19-9.47,6.45-.79-13.36-4.28-28.2-7.72-41.28-1.99-7.59-8.9-15.3-5.3-22.69,1.69-3.47,7.19-6.15,9.98-1.98,5.43,12.02,19.18,48.35,12.51,59.5Z"/>
  <path class="st0" d="M2063.53,526.36c5.81-1.43,14.94,3.59,13.58,9.82-.86,3.94-21.66,26.78-25.97,25.78-4.47-7.78-10.06-10.21-17.1-14.97,8.55-2.74,22.96-19.03,29.49-20.64Z"/>
  <path class="st0" d="M1847.8,1692.19c.42.27,2.29,7.01,3.79,9.22,3.09,4.54,13.52,16.11,14.11,20.04.4,2.65-3.22,12.33-4.94,12.7-4.81,1.04-19.84-10.41-23.67-14.27-2.59-2.61-1.75-8.37-6.96-8-2.53-4.1,7.57-7.9,9.67-11.1,2.36-3.61,1.26-12.9,8-8.59Z"/>
  <path class="st0" d="M2177.99,1181.99c2.82-9.82.2-14.76-1.98-23.98,10.98,4.96,39.64,1.06,41.72,15.46,1.91,13.23-31.25,9.5-39.74,8.53Z"/>
  <path class="st0" d="M1233.99,1834.01l-7.08,35.9c-2.66,3.97-10.72,5.27-15.05,3.23-3.15-2.23-3.86-31.53-1.82-37.1,9.24,2.24,15.11-1.23,23.95-2.02Z"/>
  <path class="st0" d="M685.92,1488.04c-.38,11.74,11.5,6.56,14.07,14.93-11.75,3.36-26.93,26.77-39.17,17.21-10.77-8.42,14.9-26.69,20.3-32.19l4.8.05Z"/>
  <path class="st0" d="M1523.74,176.29c.63,6.49,5.12,36.11-.94,37.6-5.7-5.32-23.91,5.95-21.92-1.95,8.16-12.83-1.75-43.59,22.86-35.66Z"/>
  <path class="st0" d="M900.89,335.21c.71,1.21,4.96.7,2.96,5.62-8.69,4.22-8.98,12.47-15.83,17.17.16-10.4-15.44-20.05-17.63-27.44-.9-3.01-.07-13.08,1.86-14.28,7.76-4.84,24.91,12.59,28.64,18.94Z"/>
  <path class="st0" d="M555.99,866l2,23.98c-10.54-3.24-46.21-.31-39.79-18.74,10.34-8.65,25.76-2.92,37.78-5.25Z"/>
  <path class="st0" d="M1845.99,228.01l-1.54,7.06c9.34,9.6,11.78-2.77,19.55-5.06l-2.12,6.89,3.92,1.25.2,3.81c-20.48,15.82-48.9-2.27-51.58-25.45-.99-8.59,6.79-12.26,10.74-6.56,1.68,2.43-1.88,6.66-.88,10.61.38,1.48,8.41,9.89,9.79,10.52,6.1,2.78,6.43-3.18,11.94-3.06Z"/>
  <path class="st0" d="M1625.78,1921.79l-9.78,2.22v-8.03s-18.74.29-18.74.29l-3.29,9.73c-11.88-11.07-15.93-4.38-13.99,9.99l-10.13-5.11c-2-16.08,15.59-25.62,29.75-26.43,7.27-.42,32.03,7.83,26.17,17.35Z"/>
  <path class="st0" d="M468,1274.02c10.35,3.66,10.57-19.03,7.74-21.78-1.12-1.09-7.91.73-9.7-3.25l6.11-4.17c-.23-9.46-8.51-9.47-16.15-8.85l5.14-10.14c24.28,1.77,32.58,30.32,21.26,49.55-5.92,10.05-12.92,12.46-14.4-1.37Z"/>
  <path class="st0" d="M2181.98,1483.99c-2.47,1.79-6.81-9.12-17.06,1.92-7.03,7.57-3.91,7.89-.93,16.08h-10c-1.93,9.07,3.38,11.82,8.01,17.99l-13.07.24c-12.06-12.38-.61-36.7,12.54-43.75,9.66-5.18,28.05-9.31,20.51,7.53Z"/>
  <path class="st0" d="M1160.41,117.4c.77.52,4.36-1.67,5.56,1.69-2.22,20.23-23.63,28.68-42.03,23.97-11.32-2.9-24.97-15.26-5.96-19.06l1.88,9.15,16.87.58,3.28-9.72c2.38-2.69,8.31,12.86,15.03,2,3.54-5.73-3.49-10.12,1.96-13.97,1.87,1.04,2.11,4.48,3.41,5.36Z"/>
  <path class="st0" d="M572.01,546.01l7.96,2.01c5.82-10.94-4-11.19-5.96-20.01l5.7,1.57,3.25-3.56c15.69,12.86,5.44,38.7-10.95,47-11.05,5.6-29.04,7.36-17.02-8.98l5.98,5.61c10.65-7.27,17.29-10.38,11.03-23.64Z"/>
  <path class="st0" d="M2268.01,798.01l-6,8.96c3.87,5.93,9.53,5.44,15.98,5.04,2.33,5.07-3.92,3.51-3.83,4.87l1.83,5.11c-27.89,3.44-35.48-33.79-20.91-51.89,5.91-7.34,9.2-4.41,12.87,2.92-13.74,2.92-15.52,27.3.06,25Z"/>
  <path class="st0" d="M1253.77,1184.21c3.43,3.93-18.57,40.67-22.93,45.63-2.01,2.28-3.06,4.95-6.82,4.16,2.39-20,5.2-38.6,19.13-53.95l10.63,4.17Z"/>
  <path class="st0" d="M1550,1146c-.33-1.01-.65-4.15,1.03-4.03,11.04,4.64,40.04,12.98,47,21,2.56,2.95,3.32,7.18,5.93,10.07,4.42,4.9,15.05,7.65,16.03,14.95-3.92,3.74-56.3-37.05-64.15-40.91-2.3-1.13-4.77-.61-5.84-1.08,2.18,6.75,25.84,11.34,25.99,21.99-9.77.39-54.13-11.23-54.04-20.99,5.17-1.68,4.45-3.85,4.05-9.02,8.73-.32,16.23,4.64,24,8.02Z"/>
  <path class="st0" d="M2168.26,434.28c6.18-3.61,23.17,15.91,16.72,25.61-6.29,9.47-11.04,2.99-14.49,2.58-3.09-.37-5.66,1.38-8.56.69-1.63-.39-11.87-7.43-11.89-8.15,4.84-1.92,16.9-19.95,18.22-20.72Z"/>
  <path class="st0" d="M1615.99,976.01c.93,4.28-2.19,4.53-4.65,6.33-14.15,10.38-28.62,20.65-47.28,19.6l-1.62-10.73c.42-2.42,3.02-3.72,5.01-4.77,4.47-2.38,46.53-12.11,48.54-10.43Z"/>
  <path class="st0" d="M1637.99,422.01l-25.96,77.97c-3.24-19.89.64-51.19,13.11-67.85,1.26-1.68,10.72-12.47,12.85-10.13Z"/>
  <path class="st0" d="M1346.01,827.99l-13.81,1.87c-4.76-12.14-8.8-24.95-11.28-37.78-.83-4.3-3.95-12.82.08-16.04,12.61,15.16,23.82,31.53,25.01,51.95Z"/>
  <path class="st0" d="M908.3,1834.22l3.8-1.24-.4-3.66c-.97-2.89-11.81-12.89-14.72-12.66-2.13.17-3.39,4.53-6.97,3.32l-.29-7.68c-.4-.65-5.59-2.28-6.79-2.19-7.33.53-4.28,9.03-10.91,7.89l-1.08-9.94c10.25-13.56,35.9-3.96,43.47,8.53,5.46,9.01,10.42,31.7-5.48,21.47l-.64-3.83Z"/>
  <path class="st0" d="M1403.53,1220.47c2.73,2.96,14.2,49.51,12.46,51.52-3.75.78-4.83-1.87-6.83-4.15-11.64-13.3-16.65-28.18-21.14-44.86l11.05-4.12,4.46,1.62Z"/>
  <path class="st0" d="M1147.99,1022.01c-.89,9.9-15.53,10.99-23.25,11.73-12.47,1.2-28.93,1.92-41.67,2.37-5.94.21-11.46-.22-17.06-2.14l49.24-11.72,32.73-.25Z"/>
  <path class="st0" d="M1509.99,816.01c-1.06,20.26-4.85,38.57-18.95,53.81l-8.72-4.11c-1.42-1.6-.23-9.21.6-11.81,1.24-3.89,17.27-29.13,20.64-33.34,1.88-2.36,2.27-5.48,6.43-4.55Z"/>
  <path class="st0" d="M1170,479.98c-2.14,2.17-11.34-8.09-13.02-9.96-8.08-8.94-20.13-25.08-23.58-36.42-1.43-4.71-6.44-23.02-.39-25.59l36.99,71.97Z"/>
  <path class="st0" d="M1970,1293.98c-15.48-3.18-31.18-10.69-45.88-15.1-9.54-2.86-24.32-1.21-32.12-10.86,26.8.14,62.53.47,78,25.96Z"/>
  <path class="st0" d="M1169.99,1045.99c-2.21,7.76,3.05,6.55,3.99,10.98-3.14,8.54-44.32,13.76-53.97,17.02-.42-3.38-.31-4.47,2.02-6.96.94-1.01,21.15-13.72,23.29-14.71,7.82-3.6,16.47-4.2,24.66-6.34Z"/>
  <path class="st0" d="M1603.99,1639.99c-5.67,1.03-3.28-1.37-4.5-4.39-4.14-10.3-11.73-24.92-17.13-34.96-5.67-10.53-15.89-19.12-16.34-32.64,20.22,18.49,41.47,42.3,37.97,71.99Z"/>
  <path class="st0" d="M824,1222.02c2.8,2.47-32.35,30.23-36.64,32.34-3.65,1.79-35.61,12.92-35.32,4.64l71.96-36.98Z"/>
  <path class="st0" d="M1366.03,806c.19-4.15-4.57-6.12-5.59-9.44-2.64-8.54-5.23-53.55-4.54-63.66.23-3.42-.19-6.62,3.12-8.88,3.54,16.74,9.61,33.83,10.96,51.02.22,2.77,1.39,34.72-3.94,30.97Z"/>
  <path class="st0" d="M557.49,1584.25c4.19-.47,5.61,2.79,7.86,3.1,6.19.84,12.64-2.14,18.66,5.69.51,2.15-17.09,20.13-19.41,20.74-10.88,2.86-24.97-27.53-7.11-29.54Z"/>
  <path class="st0" d="M402.71,855.3c3.52,4.43,11.19,9.03,7.39,17.76l-29.22-.94c-1.58-2.28-1.45-13.79-.51-16.77.18-.57,7.54-8.63,8.09-8.86,9.83-4.03,11.25,5.03,14.25,8.8Z"/>
  <path class="st0" d="M1939.68,1808.4c1.88,1.12,11.81,17.37,18.27,18.76.75,3.46-12.67,15.91-15.16,16.38-.92.17-12.01-1.53-12.47-1.96-.56-.53-.1-3.17-1.09-4.76-.57-.93-3.31-1.01-3.33-1.95-.04-2.62,3.02-5.15,3.52-8.12.39-2.33-1.76-4.58-.44-8.58,1.36-4.1,6.01-12.55,10.71-9.76Z"/>
  <path class="st0" d="M841.99,778.03c.58,2.53-3.89,3.32-5.51,3.52-7.8.95-33.92-2.63-42.11-4.9-5.15-1.43-33.55-15.73-28.34-22.64l75.97,24.02Z"/>
  <path class="st0" d="M1177.3,1231.3c-1.26,1.3-21.3,18.96-17.28,9.73.81-1.87,5.19-4.55,6.86-7.15,13.11-20.41,24.59-41.5,45.1-55.88.47,5.57.28,9.6-2.26,14.72-2.72,5.51-26.76,32.73-32.43,38.57Z"/>
  <path class="st0" d="M1215.99,1980.01l1.18,30.09c-11.91,9.19-37.13-5.95-26.19-18.14,2.67-2.97,7.37-1.09,8.75-2.34.88-.81-.47-4.45,1.44-5.81.8-.57,14.32-4.37,14.82-3.8Z"/>
  <path class="st0" d="M1212,898.03l-4.26,11.67c-5.61,4.96-45.33-20.08-49.74-27.68,10.36.6,23.87,2.11,33.6,5.38,8.52,2.86,12.06,8.82,20.4,10.63Z"/>
  <path class="st0" d="M1573.99,806.01l-26.03,40.95c-2.93,2.14-23.35,25.94-25.95,23.03-.28-3.84.41-7.58,1.85-11.13,2.35-5.78,28.93-36.3,34.84-42.16,1.5-1.49,13.91-12.08,15.29-10.69Z"/>
  <path class="st0" d="M1098.01,1625.99c4.91-10.2,5.9-21.37,9-31.98,1.26-4.31,4.52-8.81,6.09-13.91,2.81-9.14,1.69-23.66,10.89-30.09-.76,23.21-.02,50.24-16.03,68.95-1.37,1.61-7.93,9.22-9.94,7.04Z"/>
  <path class="st0" d="M1518,38c10.07-.03,26.53-3.25,27.78,10.91.86,9.72-5.04,8.32-8.31,10.97-1.71,1.38-2.14,4.05-3.57,4.93-3.95,2.44-11.21,2.91-15.9,3.18v-30Z"/>
  <path class="st0" d="M1983.99,788.01l-26.58,16.4c-17.66,2.83-27.74,19.35-45.41,21.57,16.87-21.24,42.97-41.47,71.99-37.97Z"/>
  <path class="st0" d="M794.25,239.72c-1.21-7.62-10.68-10.71-14.23-14.77-9.95-11.37,26.18-30.27,27.67-9.39.28,3.95-2.32,5.15-2.67,7.46-1,6.62,1.09,17.58-10.76,16.7Z"/>
  <path class="st0" d="M1585.98,1232c-22.86-13.08-40.46-27.64-59.79-45.19-2.22-2.02-5.01-2.96-4.18-6.8,3.47.02,7.15-.45,10.57.41,3.24.82,47.16,38.88,50.52,43.48,1.99,2.72,3.72,4.18,2.88,8.1Z"/>
  <path class="st0" d="M1211.99,869.99c-3.47.53-6.26-.39-9.45-1.54-6.35-2.29-36.83-29.81-43.59-36.41-4.29-4.18-8.78-8.22-10.95-14.03,23.25,10.74,42.35,26.88,60.69,44.29l3.3,7.68Z"/>
  <path class="st0" d="M1586,1026c.66-2.14,3.19-4.81,4.99-6.01,6.68-4.49,35.83-5.77,45.92-6.08,8.11-.25,20.52-.88,28.13.09,3.63.46,3.25-.69,2.96,3.99-11.65-2.5-29.04,8.01-39,8.01h-43Z"/>
  <path class="st0" d="M2345.63,1203.71c-.56.3-10.82-1.69-11.25-2.07-1.16-1.03-.72-5.92-2.26-8.24-3.04-4.58-10.53-7.17-8.12-17.39l29.08-.1c1.54,2.5,1.63,15.87.61,18.78-.2.57-7.53,8.74-8.06,9.03Z"/>
  <path class="st0" d="M1366,1244c2.71-3.39,9.19,9.64,9.59,11.42.98,4.28,2.41,26.75,2.41,31.58v37c-5.16.39-3.36.36-3.94-3.01-1.4-8.06-8.06-29.48-8.06-33.99v-43Z"/>
  <path class="st0" d="M897.99,1886.03c1.26,8.55-14.83-.99-19.99,1.99,2.38,4.84,10.06,4.73,7.99,11.97l-11.99-1.97,5.99,11.97c-8.61-.47-15.72-5.92-15.71-15,.02-10.95,14.92-17.38,1.76-25.99,12.07-9.43,16.98,18.37,31.95,17.03Z"/>
  <path class="st0" d="M1389.99,806.01l4,53.98c-3.46.9-4-1.43-6-2.98-2.91-2.24-15.79-14.1-16.11-16.07-.91-5.59,6.83-14.1,9.86-20.21,2.53-5.1,1.88-15.78,8.25-14.73Z"/>
  <path class="st0" d="M1535.99,884.01c3.27,3.26-29.77,37.19-32.99,41.95-2.48.15-3.09-14.97-3.05-16.86.09-4.41-.73-8.97.92-13.24l35.13-11.85Z"/>
  <path class="st0" d="M525.99,524.01c1.59,10.72-7.64,10.62-12.81,16.18-4.32,4.66-4.96,11.73-10.19,15.8l.99-19.99-8.98,7.96-1.01-11.95c-2.39-2.52-10.93,10.58-12,2.95-.46-3.29,6.05-11.53,9.42-12.55,12.72-3.81,21.15,7.3,23.61,7.27,1.53-.02,6-8.1,10.97-5.67Z"/>
  <path class="st0" d="M1267.54,886.39l.45,5.61-28.01-.98-13.98-35c5.02-3.85,34.04,27.87,41.53,30.37Z"/>
  <path class="st0" d="M425.99,1303.99c-7.49-.06-7.13-10.79-13.02-13.97-6.86-.71,3.06,10.41-4,11.97-4.01.89-5.27-5.1-4.99-7.99-8.15-2.06.17,16.03-9.8,9.85-1.55-.96-2.35-9.73-1.84-12.37,2.46-12.64,16.75-10.65,21.71-14.43,2.96-2.25,1-8.68,4.95-11.01,6.66,5.74,1.08,15.07,1.89,22.05.37,3.26,6.4,14.51,5.1,15.9Z"/>
  <path class="st0" d="M1688.25,194.37l-1.28,5.75-12.88-2.28c2.28-6.22-3.63-25.75,3.17-27.67,1.55-.44,14.2,2.33,16.26,3.32,12.51,6.06,9.7,21.41-5.26,20.88Z"/>
  <path class="st0" d="M1507.99,1193.99c-1.38,1.47-14.01-9.31-16.02-10.96-6.66-5.45-16.86-13.57-22.6-19.4-1.72-1.75-4.39-1.68-3.36-5.62l29.15-.24,12.83,36.22Z"/>
  <path class="st0" d="M1586,1045.98l-54,4c4.85-4.12,15.83-21.81,20.95-21.94l33.04,17.94Z"/>
  <path class="st0" d="M1233.99,1124.01c-2.17,7.13,4.2,25.01-.48,29.51l-35.51,10.46c9-11.58,18.87-25.55,28.97-36.01,2.08-2.16,3.51-4.67,7.02-3.96Z"/>
  <path class="st0" d="M1361.39,1204.59c6.41,7.52-3.04,12.22-5.78,18.01-2.5,5.29-3.6,11.41-5.6,16.43-.93,2.34,1.53,3.78-3.98,2.96l-4.02-51.98,19.38,14.58Z"/>
  <path class="st0" d="M531.51,690.63c3.23,1.26,5.8,9.9,7.22,12.69,1.08,2.13,8.66,5.24,2.31,12.7-2.44,2.87-22.37,3.07-25.16,1.11-7.57-5.32,4.18-30.97,15.63-26.5Z"/>
  <path class="st0" d="M1867.99,181.99c-11.22,2.5-12.54-9.34-18.93-14.05-3.96-2.92-9.79-2.69-13.05-6.95l19.98,1c1.39-5.88-6.15-4.57-7.97-9.02-2.69-6.55,11.19-.19,11.97-.98l-5.99-11.97c13.45-.81,18.05,7.59,15.15,20.11-.97,4.2-6.79,11.37-6.69,12.89.16,2.46,6.94,4.6,5.54,8.97Z"/>
  <path class="st0" d="M2339.97,744.01c3.27,10.23,4.42,19.15-6.54,24.41-3.56,1.71-10.07,1.86-12.25,3.35s-.29,11.51-6.15,10.22c-6.37-1.39-.78-16.37-1.09-20.76-.34-4.94-4.71-9.78-3.93-15.22,3.48-4.09,9.49,14.44,13.97,13.99l.03-12.01,6.17,1.18,3.79,6.81c2.32-3.73-.47-13.59,6-11.98Z"/>
  <path class="st0" d="M1726.44,1830.42c.41-.76,8-5.32,9.52-3.57.96.47,14.65,14.21,15.1,15.19,4.49,9.7-16.86,18.97-27.21,12.98-3.37-6.25.45-10.94,2.02-16.21.75-2.5-.7-6.06.57-8.39Z"/>
  <path class="st0" d="M1007.53,219.49c-6.64,7.13-19.74-6.74-23.65-12.43-6.55-9.52,18.99-17.87,26.14-14.19,5.43,4.51-2.22,19.92-2.49,26.63Z"/>
  <path class="st0" d="M2230.01,1511.99l10.97-6.01-.98,10,11.99-3.97c1.24,10.28-8.07,17.35-18.08,15.2-4.87-1.04-10.29-6.64-13.23-6.9s-6.42,5.14-10.67,3.68c-1.78-10.86,8.09-10.65,12.86-16.13,3.34-3.85,3.87-10.38,8.14-13.85l-1,17.98Z"/>
  <path class="st0" d="M1201.99,998.01c1.29,1.1-11.54,16.8-12.9,18.07-11.64,10.91-24.16-10.82-39.09-10.11-2.94-2.92.22-3.61,2.98-3.96,16.24-2.03,32.79-1.77,49.01-4.01Z"/>
  <path class="st0" d="M1645.99,1966.01c3.09,2.94-11.09,10.09-11.97,13.02-1.02,6.71,8.61-2.46,9.97,4,1.08,5.09-8.08,3.05-6,8.96l9.97,3.01c-17.01,14.01-25.44-2.91-28.21-18.75l-9.74-.27c.51-10.41,13.77-4.59,20.3-5.11,6.07-.49,10.06-4.09,15.68-4.87Z"/>
  <path class="st0" d="M1107.44,52.58c5.66,4.65,5.9,18.61,6.65,19.32,1.13,1.06,9.64-1.73,11.87,3.1-5.95,9.2-13.15,2.71-20.9,2.89-5.96.14-10.98,4.53-17.06,4.09l14-13.96-12.01-.03.14-5.83,7.83-3.16c-1.07-4.2-12.27-1.15-9.94-5.97,2.43-5.03,15.56-3.62,19.42-.45Z"/>
  <path class="st0" d="M565.85,1393.79l-20.62,16.11c-9.39-8.24-11.91-18.08-9.19-29.86,10.51.86,29.33-.29,29.81,13.75Z"/>
  <path class="st0" d="M2170.38,654.35c6.92-1.23,14.02-16.15,20.35-14.23,5.98,1.81,11.34,19.5,8.2,25.84-4.2,8.37-34.86-.74-28.56-11.61Z"/>
  <path class="st0" d="M1060,1850v28c-12.37.82-23.35-2.38-27.86-14.72,7.13-7.57,17.08-17.5,27.86-13.28Z"/>
  <path class="st0" d="M2212.75,1354.76c-2.61,2.47-1.68,6-7.7,5.3-5.47-3.98-5.58-9.94-7.63-13.53-.7-1.22-4.3-1.35-5.16-3.77-5.53-15.46,20.27-11.71,28.9-8.86,1.38,9.85-2.07,14.84-8.41,20.86Z"/>
  <path class="st0" d="M1290.06,107.94c-2.75-1.96-.07-9.5,1.95-11.91l-7.97-3.02c0-3.31,31.31-14.59,36.49-15.53,9.55-1.74,2.86,5.47-.47,9.59-3.73,4.62-24.65,24.68-29.99,20.88Z"/>
  <path class="st0" d="M2076.01,1619.98v8.02s7-3.95,7-3.95c1.67,1.56,2.96,1.99,2.71,4.61-.3,3.21-12.18,26.65-14.76,31.39-1.23,2.26.15,4.88-3.93,3.93-6.81-3.24-1.43-36.2-1.01-43.96l9.99-.04Z"/>
  <path class="st0" d="M1204.02,1278c1.29-9,8.73-19.29,13.93-27.05,10.15-15.15,22.17-29.53,32.03-44.95.5,3.45-.42,6.26-1.54,9.44-1.45,4.15-15.31,35.54-16.7,37.3-3.34,4.24-8.26,4.62-11.82,8.18-5.54,5.54-8.84,13.06-15.9,17.07Z"/>
  <path class="st0" d="M1186,904.02l-5.5,2.61c-12.26-8.2-35.68-11.08-44.49-21.64-1.86-2.23-2.1-5.87-3.96-8.04-4.46-5.18-14.54-8.22-18.04-14.94,3.63-.59,5.99.39,9.15,1.83,21.44,9.79,39.73,32.44,62.84,40.17Z"/>
  <path class="st0" d="M1321.98,812c-2.99-.51-3.85-3.67-4.97-6.01-3.13-6.49-15.44-37.76-14.93-42.76.37-3.7,3.02-7.13,3.28-10.48.45-5.8-2.66-14.68-3.35-20.74l5.97,5.01,14,74.98Z"/>
  <path class="st0" d="M1155.99,1070.02c-.07,2.63-5.42,4.45-7.58,5.39-5.15,2.25-32.66,13.61-35.92,14.23-9.21,1.74-26.66-6.08-38.48.35-1.48-5.46,7.94-6.37,11.57-7.42,21.93-6.36,47.85-7.3,70.41-12.55Z"/>
  <path class="st0" d="M1445.95,1942.05c2.82,4.04-4.48,11.55-3.95,11.93l7.99.03c4.57,4.09-16.36,11.05-18.95,12.03-6.57,2.47-14.04,5.23-21.03,5.95-4.17-3.98,24.02-28.77,28.58-30.55,1.9-.74,6.81-.18,7.36.61Z"/>
  <path class="st0" d="M1487.96,841.98l-3.65-2.64c1.08-5.2,18.91-43.6,21.9-46.14,1.9-1.61,5.49-1.82,7.88-4.12,5.72-5.5,9.2-12.7,15.89-17.09-7.35,26.28-31.84,44.71-42.02,69.98Z"/>
  <path class="st0" d="M2008,325.98c-2.72,3.62-36.85,2.21-42.56-.41-8.5-3.91-1.04-11.7,6.56-9.58l-4.04-6.95c-.24-3.09-.38-3.53,2.81-2.83,3.76.83,38.98,17.44,37.22,19.78Z"/>
  <path class="st0" d="M1659.99,960.01c.97,5.55-1.16,3.37-4.38,4.5-23.85,8.42-51.28,7.64-75.6,15.48-1.04-5.19,1.14-3.49,3.9-5,3.15-1.73,32.94-14.01,35.54-14.53,11.67-2.37,27.4,4.22,40.54-.45Z"/>
  <path class="st0" d="M769,1722l2.06,1.93c3.06,6.65.12,10.49-7.06,10.09l3.98,5c.45,3.31.11,3.23-3.02,3.04-5.89-.35-27.02-10.07-32.35-13.68-2.58-1.75-5.44-2.26-4.61-6.39h41Z"/>
  <path class="st0" d="M2301.97,942.01l14.03,39.97c-4.21,3.2-30.89-24.11-31.7-29.41-1.36-8.85,6.94-7.37,11.68-2.57-.05-3.68.81-8.82,5.99-7.99Z"/>
  <path class="st0" d="M438.02,1098l-.98,8.04c-1.77,2.2-2.4,2.48-4.06,0-2.19-3.28-14.39-38.48-12.96-40.02,3.77-.87,4.74,2.13,6.99,3.99,4.81,3.96,26.7,24.91,24.13,29.97l-4.39,3.9-8.72-5.87Z"/>
  <path class="st0" d="M1431.99,1317.99c-5.4.92-3.46-.98-4.53-4.35-7.92-24.86-8.06-52.53-15.44-77.64,3.23.8,4.39,4.61,5.72,7.26,2.26,4.52,13.07,30.49,13.82,34.2,1.64,8.04-1.72,13.91-1.73,21.53-.01,6.07,3.48,12.49,2.16,19Z"/>
  <path class="st0" d="M670,425c-1.44,8.54-12.79,6.87-12.02-3.02l-8,.99,16.05-38.97c.76-.57,3.98,2.62,3.98,3,0,10.78,1.62,28.37,0,38Z"/>
  <path class="st0" d="M2131.99,1480.01l6,25.98c-3.64,3.6-30.17-18.82-31.97-23.02-3.52-8.2,13.27,5.11,15.05,5.11,5.44.02,4.74-9.12,10.92-8.07Z"/>
  <path class="st0" d="M1165.98,140.01l4.01,37.98c-7.24,1.87-5.95-14.44-8.05-15.97-5.11-.42-10.15,4.77-13.9-1.02,5.82-1.42,13.18-24.39,17.94-20.99Z"/>
  <path class="st0" d="M912,1764.02l-8.17,16.71c.33,1.97,10.04,3.79,8.16,9.26l-25.98,4c-3.55-3.41,15.97-24.35,19.38-27.51,2.22-2.06,1.29-3.62,6.61-2.46Z"/>
  <path class="st0" d="M2212,826c1.06-6.01,17.12-5.12,18.01-6.01.34-5.14-4.75-10.21.99-13.95l21,11.99c2.86,3.75-8.99,7.97-10.99,7.97h-29Z"/>
  <path class="st0" d="M1566,1870l7.89,17.15,12.13-.13c-2.88,3.15-13.8,28.3-17.95,19.6.92-2.64-2.07-6.31-2.07-7.62v-29Z"/>
  <path class="st0" d="M1827.96,285.98c-8.73,7.76,1.93-16.81,4-16.84l-9.96-9.12,24.95-6.02,2.18,4.08c-4.6,9.46-12.17,15.59-19.19,22.97-1.48,1.56-1.71,4.69-1.99,4.94Z"/>
  <path class="st0" d="M627.99,567.99l-16.92-8.04-2.87,6.86-6.19,1.2-4-26.01c2.04-2.24,19.54,12.59,22.02,14.96,1.68,1.61,10.13,8.98,7.96,11.02Z"/>
  <path class="st0" d="M521.99,1222.01c1.71,7.8-16.25,5.6-18,8.01l2,11.97c-3.25-1.66-21.66-9.82-22.04-10.99s-.63-4.84,1.22-5.17l36.82-3.81Z"/>
  <path class="st0" d="M1515.5,864.51c9.35,10.1-16.39,30.71-19.49,27.48-4.12-5.17,11.28-27.81,13.93-29.1,1.48-.72,4.58.55,5.56,1.61Z"/>
  <path class="st0" d="M1157.45,1024.45c4.36-1.01,26.04-2.59,24.55,4.53-1.39,5.39-26.19,9.63-28.7,8.85-6.5-2.04-4.09-11.47,4.15-13.38Z"/>
  <path class="st0" d="M1233.34,1158.29c5.64-1.55,7.89,3.45,6.34,8.31-5.68,3.34-12.4,21.33-18.66,19.39-10.7-6.53,6.53-26.1,12.31-27.69Z"/>
  <path class="st0" d="M1375.49,1212.51c1.3,1.34,7.93,27.12,3.27,29.63-13.76,3.1-13.4-23.75-10.74-32.15.97-.66,6.39,1.39,7.47,2.51Z"/>
  <path class="st0" d="M1367.99,838.01c-15.06,1.21-9.19-7.58-10.46-14.52-.93-5.06-4.64-9.71-3.52-15.47,20.06-2.84,12.88,16.72,13.98,30Z"/>
  <path class="st0" d="M1554.02,1023.97c-.62-12.65,9.98-9.11,18.56-10.38,3.37-.5,9.09-7.09,11.17-.31,4.55,14.84-20.22,12.82-29.73,10.69Z"/>
  <path class="st0" d="M1233.99,895.99c-12.32,3.16-11.62-3.9-17.2-7.78-4.12-2.86-14.21-1.79-9.84-10.24,7.18-13.88,30.28,14.92,27.04,18.02Z"/>
  <path class="st0" d="M1527.47,1164.5c5.21,4.95-2.98,11.62-7.65,10.61-3.3-.72-20.37-17.35-19.81-20.08,2.04-10.05,15.14,3.3,17.3,4.66,2.99,1.89,8.29,3.04,10.16,4.82Z"/>
  <path class="st0" d="M1756,202.02c-2.63,10.26-10.22,19.3-8.89,29.97l-13.1,4c-4.48-7.35,17.57-38.16,21.99-33.97Z"/>
  <path class="st0" d="M512.01,1333.99c-1.03-5.18,1.12-3.49,3.9-5,5.96-3.24,13.54-4.02,18.68-6.89,4.17-2.33,3.77-10.46,15.4-1.07,2.06,9.01-31.2,15.1-37.98,12.96Z"/>
  <path class="st0" d="M544.01,636.01c2-1.92,18.45,7.77,22.04,9.13,2.6.99,16.08-.64,13.96,9.81s-27.95-8.33-31.82-12.15c-2.1-2.08-5.09-2.87-4.18-6.8Z"/>
  <path class="st0" d="M1061.98,168c-.43,12.44,18.02,27.14,9,37.99-10.03,3.07-13.88-28.32-13-35.01.36-2.72,1.24-6.04,4-2.98Z"/>
  <path class="st0" d="M1675.98,1880c-7.41-3.62-7.11-15.18-10.36-20.7-2.65-4.51-8.25-1.51-4.71-11.37,2.64-7.37,5.33-7.88,9.52-1.35,6.52,10.15,5.91,21.83,5.56,33.42Z"/>
  <path class="st0" d="M2192,1411.98c-9.34,1.01-16.67-5.12-24.6-8.42-5.42-2.26-11.72,2.19-11.39-11.55,15.42-2.39,26.01,10.31,35.99,19.97Z"/>
  <path class="st0" d="M999.99,1812.01c1.63,14.83-8.44,27.79-19.97,35.99-1.15-8.55,7.36-17.02,8.92-23.78,1.67-7.26-4.67-9.15,11.05-12.21Z"/>
  <path class="st0" d="M2224,716.02c-4.27,6.84-16.88,6.91-22.7,10.35-5.58,3.29-1.67,8.42-15.3,3.61.84-16.44,25.94-13.77,38-13.96Z"/>
  <path class="st0" d="M1525.99,1895.99c-5.47,1.08-3.43-1.38-4.85-4.04-5.01-9.4-15.77-26.22-8.14-35.91,6.28,14.65,16.61,22.6,12.99,39.95Z"/>
  <path class="st0" d="M675.99,539.99c-8.66-3.22-14-7.08-23.98-6.99l-12-14.99c11.75,5.56,34.33,6.2,35.98,21.98Z"/>
  <path class="st0" d="M1873.99,296.01c-1.58,6.99-11.49,37.68-18.99,37.95-7.03.25,2.15-11.52,2.59-13.37.87-3.66-.09-7.58.74-11.26l15.66-13.32Z"/>
  <path class="st0" d="M2240,866.02c-4.84,5.9-35.38,22.35-39.98,12.95l21.4-12.55,18.58-.4Z"/>
  <path class="st0" d="M1223.99,191.99c-7.19.44-5.63-8.19-8.23-12.75-1.79-3.14-6.75-5.79-7.45-8.63-.95-3.83,3.64-13.26,1.71-18.6l13.04,23.93.93,16.05Z"/>
  <path class="st0" d="M881.99,1716.01c.39,5.36-3.5,8.92-5.14,13.84-1.26,3.77.03,8.74-1.87,12.13-1.02,1.82-10.62,7.27-12.96,10.02-1.59-2.04,9.21-37.83,19.97-35.99Z"/>
  <path class="st0" d="M2096,1529.98c-4.89,1.94-44.6-13.83-37.99-19.97,6.37,3.14,21.45,4.73,26.01,6.97,2.12,1.04,8.21,10.84,11.98,13Z"/>
  <path class="st0" d="M536,1171.98c-8.43-2.4-20.58,11.06-23.22,11.56-3.36.64-11.93-3.3-16.77-1.56,9.36-7.28,29.81-20.9,39.99-10Z"/>
  <path class="st0" d="M1610.05,2001.97l-3.05-5.93c-3.75,4.3-8.15,9.37-12.96,2.97,6.5-10.96,16.74-18.96,23.64-3.64l-4.71,6.62h-2.92Z"/>
  <path class="st0" d="M2343.37,781.54c-.22.42-3.36.57-3.47,1.5-.65,5.46,8.54,9.91,1.1,14.92l-10.01-7.97c-7.97-17.38,18.49-19.92,12.38-8.45Z"/>
  <path class="st0" d="M1125.55,48.64c.44.25.3,3.46,1.46,3.44,3.33-.05,5.36-4.93,11.97-4.09l1.05,5.02c-6.91,3.59-6.47,11.66-16.61,8.64-9.03-2.68-5.95-17.56,2.13-13.01Z"/>
  <path class="st0" d="M857.51,1874.49c6.86,6.9-1.44,21.57-9.09,12.58l1.59-7.07-11.99-3.04c-1.38-3.9,9.8-4.79,11.24-4.79,2.65,0,6.37.42,8.25,2.31Z"/>
  <path class="st0" d="M403.38,1258.6c6.26,7.41-4.04,19.35-11.41,14.43s5.96-6.08,4.02-10.01c-1.43-2.88-8.02-1.51-5.97-7.99,2.34-6,11.22,1.04,13.36,3.57Z"/>
  <path class="st0" d="M2231.81,1534.19l-.75,7.92-7.05-.11c.98,20.78-13.19,10.42-7.03-6,4.38-4.57,9.42-4.35,14.83-1.8Z"/>
  <path class="st0" d="M517.99,495.99c3.12,13.58,3.23,23.51-14.04,19.05l-1.93-6.02,9.06-2.83.93-10.2h5.98Z"/>
  <path class="st0" d="M1885.99,160.01l-1.99,7.97,10.05.97,1.94,7.04-17.7-.27c-3.91-8.83-4.49-17.5,7.7-15.7Z"/>
  <path class="st0" d="M1220.01,2027.99c-1.24-10.34,2.29-15.16,13.01-14.15,20.17,1.9-11.37,15.93-13.01,14.15Z"/>
  <path class="st0" d="M559.45,1624.35c4.12-1.23,7.73-.12,11.31,1.91,7.28,4.15,7.05,12.96-.63,10.66-6.39-1.91-24.48-8.45-10.67-12.57Z"/>
  <path class="st0" d="M1979.99,1816.01l-6.98,21.94c-13.11-4.97-4.69-22.15,6.98-21.94Z"/>
  <path class="st0" d="M765.84,212.13c5.19,10.73.76,20.84-11.84,19.86l6.11-19.91,5.73.05Z"/>
  <path class="st0" d="M375.49,878.51c4.2,3.65,3.97,17.83-3.46,19.49l-8.03-18.95c.81-4.11,9.53-2.24,11.49-.54Z"/>
  <path class="st0" d="M2363.98,1152l6.01,19.99c-14.34,3.42-20.11-17.38-6.01-19.99Z"/>
  <path class="st0" d="M1509.41,22.37c8.05-2.13,8.09,7.17,1.2,11.23-5.89,3.47-12.62,3.55-16.58-2.6,0-.88,14.45-8.38,15.37-8.63Z"/>
  <path class="st0" d="M2160.01,412.01c1.34-1.42,32.59,7.61,14.02,13.2-6.87,2.07-16.27-5.45-14.02-13.2Z"/>
  <path class="st0" d="M1814.01,150.01c2.78-2.64,19.09,9.5,18,14.95-2.56,12.77-20.07-12.98-18-14.95Z"/>
  <path class="st0" d="M492.01,577.99c-1.61-1.58,14-27.33,19.95-12.99l-19.95,12.99Z"/>
  <path class="st0" d="M919.98,1900c-5.91-.69-24.57-17.42-12.95-19.99,3.6-.8,14.9,17.53,12.95,19.99Z"/>
  <path class="st0" d="M2303.99,721.99c.85,4.47,4.5,24.13-2.99,23.97-6.75-.15-2.11-17.47-1.06-21.05.86-2.94-1.1-3.47,4.05-2.92Z"/>
  <path class="st0" d="M1649.26,1954.14c2.23-.64,20.73,2.34,20.7,4.86-6.11,9.2-34.52-.87-20.7-4.86Z"/>
  <path class="st0" d="M2241.99,1472.01c2.02,1.96-11.03,20.54-17.98,15.98-3.5-6.75,16.4-17.52,17.98-15.98Z"/>
  <path class="st0" d="M1065.99,91.99c-.59-5.23.09-3.16,2.93-4.04,3.84-1.19,17.35-4.34,19.05,1.08,3.61,11.52-16.53,1.93-21.98,2.96Z"/>
  <path class="st0" d="M1899.99,165.99c-5.81.91-4.17-4.93-9.19-7.78-4.79-2.72-12.15-.07-10.8-6.19,12.24-4.1,20.8.19,19.99,13.97Z"/>
  <path class="st0" d="M437.99,1304.01c.95.99-1.45,19.81-4.99,21.95-3.89.04-7.05-25.85,4.99-21.95Z"/>
  <path class="st0" d="M1136,38.03c1.43,7.07-5.09,2.14-9.61,3.31-4.56,1.18-8.06,5.01-12.37,6.66.15-14.76,10.99-14.65,21.98-9.97Z"/>
  <path class="st0" d="M2350.02,794c2.03-9.04.41-15.31-6.02-21.98,14.61-1.57,17.98,15,6.02,21.98Z"/>
  <path class="st0" d="M853.99,1892.01c-4.55,13.94-19.81,3.86-19.98-8,8.09,1.83,9.73,10.86,19.98,8Z"/>
  <path class="st0" d="M385.99,1256.01c-4.68,10.16.91,13.34,4,21.98-1.82,1.78-12.84-5.24-12.05-9.09-.67-4.8,1.96-13.43,8.06-12.88Z"/>
  <path class="st0" d="M971.89,192.07c4.04,5.82-1.32,17.5-8.86,15.93-6.08-1.27,3.87-11.46,2.79-14.81l6.07-1.12Z"/>
  <path class="st0" d="M1669.56,154.46c10.47-.38,5.08,9.25-2.53,9.73-13.5.85-10.79-9.25,2.53-9.73Z"/>
  <path class="st0" d="M1619.99,2002.01c3.57,17.33-26.42,12.91-19.97,3.99,9.57,5.96,12.07-1.57,19.97-3.99Z"/>
  <path class="st0" d="M507.99,492.01c1.48,5.95-4.99,3.8-6.99,7.97-1.81,3.77.27,9.06-4,11.98-8.31-9.39-.36-20.58,10.99-19.95Z"/>
  <path class="st0" d="M2235.99,1315.99l2,16c-11.81,1.62-15.06-17.33-2-16Z"/>
  <path class="st0" d="M2239.97,1538.01c.99,4.42,3.11,7.34,1.07,11.94-1.87,4.21-13.91,11.24-15.04,4.09,8.6-.92,7.84-7.53,9.99-13.07.93-2.39-1.5-3.75,3.99-2.96Z"/>
  <polygon class="st0" points="1076.01 1886.01 1075.97 1891.93 1060.01 1895.99 1061.88 1886.88 1076.01 1886.01"/>
  <path class="st0" d="M500.01,734c1.96-3.98-8.33-16.56-.98-17.99,7.3-1.42,11.43,18.65.98,17.99Z"/>
  <path class="st0" d="M1773.99,1842.01l-4.23,13.73-7.75.26c-1.24-9.23,1.85-15.27,11.98-13.99Z"/>
  <path class="st0" d="M2184.01,618.01c1.18-1.22,16.92,4.73,15.98,8.96-1.76,7.95-18.91-.39-15.98-8.96Z"/>
  <path class="st0" d="M549.99,1431.99l-12.75-5.84c-9.03-6.97,15.38-13.57,12.75,5.84Z"/>
</svg>