<?xml version="1.0" encoding="UTF-8"?>
<svg id="Layer_0_xA0_Image" xmlns="http://www.w3.org/2000/svg" version="1.1" viewBox="0 0 2732 2048">
  <!-- Generator: Adobe Illustrator 30.2.1, SVG Export Plug-In . SVG Version: 2.1.1 Build 1)  -->
  <defs>
    <style>
      .st0 {
        fill: #61bc4d;
      }
    </style>
  </defs>
  <path class="st0" d="M1154.05,0c3.95.41,7.9,1.12,11.86,1.17,60.98.77,121.95,1.45,182.93,2.14,3.95.04,7.91,0,12.1,0,2.47,8.31,1.64,15.71.34,24.53-36.78-.63-73.3-1.24-109.83-1.87-36.32-.62-72.63-1.25-108.95-1.88-36.55-.63-73.1-1.26-110.29-1.9v116.73c14.89,1.81,29.85,3.62,46.32,5.63-7.28,7.91-13.71,14.91-20.8,22.62,7.36,7.08,14.09,14,21.36,20.28,2.23,1.92,5.92,2.75,9.02,2.96,18.28,1.22,36.58,2.1,54.88,3.12,1.98.11,3.95.37,6.66.63-2.55,7.6-8.92,11.61-13.43,16.97-4.68,5.57-9.79,10.78-15.46,16.96,11.18,10.79,21.74,21.29,32.72,31.32,1.88,1.71,5.56,1.92,8.43,2,11.99.34,23.99.32,35.98.51,50.64.82,101.29,1.65,151.93,2.52,3.92.07,7.83.5,13.05.86,1.2,67.85.73,134.99,1.37,202.92-3.67.37-6.55.9-9.43.92-68.98.37-137.96.61-206.94,1.12-6.58.05-10.7-1.58-12.62-8.33-1.61-5.67-4.21-11.06-6.72-17.48h180.26c.26-.74.42-1.05.46-1.37.04-.29.06-.71-.11-.87-82.24-81.27-164.5-162.52-246.78-243.75-1.63-1.61-3.45-3.01-5.75-4.99-7.03,7.88-13.84,15.52-21.83,24.47-2.07-4.39-3.65-7.46-4.99-10.63-26.69-63.17-53.38-126.33-79.95-189.55-2.41-5.73-3.91-11.84-5.83-17.77,70,0,140.01,0,210.01,0Z"/>
  <path class="st0" d="M940.04,2048c-2.12-2.5-4.09-5.15-6.38-7.49-92.37-94.28-184.77-188.54-277.16-282.81-2.09-2.13-4.07-4.36-6.43-6.91,3.92-7.34,10.18-11.99,17.14-17.24,76.4,79.03,152.53,157.79,228.05,235.92,27.57-27.61,54.57-54.66,82.63-82.76-8.38-10.56-17.8-22.45-28.41-35.83,10.69-.42,20.08-.79,30.4-1.19,0-10.63.36-20.55-.22-30.41-.17-2.87-2.62-5.94-4.73-8.31-11.3-12.7-22.84-25.19-34.24-37.8-2.12-2.34-3.97-4.92-7.06-8.78,16.02-.95,30.12-1.78,44.8-2.64,0-8.87-.79-17.19.17-25.31,1.87-15.94-4.46-27.06-15.68-38.3-40.73-40.8-80.36-82.71-120.39-124.22-2.73-2.83-5.28-5.84-8.52-9.44,47.68-48.27,94.94-96.11,142.61-144.37,2.44,1.99,4.57,3.45,6.38,5.24,49.07,48.5,98.13,97.02,147.15,145.57,7.42,7.35,7.39,7.42,3.13,17.23-1.98,4.57-4.07,9.1-6.13,13.63-.12.26-.49.4-1.91,1.48-42.05-42.6-84.25-85.34-126.45-128.08-.67.24-1.34.47-2.02.71.84,118.31,1.68,236.62,2.53,355.95,11.57-.6,21.73-1.12,33.36-1.72-1.53,4.19-2.54,7.24-3.75,10.22-26.91,66.33-53.82,132.66-80.87,198.93-1.3,3.19-3.98,5.81-6.01,8.7h-2Z"/>
  <path class="st0" d="M1508.07,2048c-3.94-.42-7.88-1.17-11.83-1.21-36.99-.39-73.98-.66-110.98-.96-3.62-.03-7.25,0-11.17,0-2.86-8.16-1.85-15.56-.3-24.38,109.64.74,219.07,4.07,329.3,5v-116.4c-14.75-1.78-29.71-3.58-46.31-5.59,7.1-7.84,13.24-14.63,20.37-22.5-7.62-7.46-14.99-15-22.8-22.05-1.66-1.5-4.93-1.54-7.49-1.67-17.3-.9-34.61-1.62-51.92-2.45-2.9-.14-5.79-.47-9.74-.8,3.23-7.83,9.36-12.03,13.9-17.39,4.72-5.58,9.81-10.85,15.32-16.89-10.8-10.42-21.18-20.71-31.96-30.56-1.89-1.73-5.44-2.21-8.25-2.29-23.65-.65-47.31-1.13-70.96-1.56-40.32-.74-80.64-1.4-120.95-2.14-2.93-.05-5.85-.44-10.06-.77v-203.53c3.53,0,6.82.02,10.11,0,66.99-.43,133.97-.87,200.96-1.3,2-.01,4,.04,6-.03,4.88-.17,8.16,1.7,9.85,6.58,2.14,6.21,4.72,12.26,7.52,19.42-20.89,0-40.7.04-60.51-.01-20.33-.05-40.66-.21-60.99-.26-19.83-.05-39.65,0-60.36,1.83,84.11,82.89,168.23,165.79,253.18,249.51,7.5-8.12,14.56-15.77,22.38-24.24,1.79,3.55,3.22,6.03,4.33,8.66,28.01,66.22,56.01,132.45,83.88,198.73,1.18,2.8,1.04,6.15,1.51,9.25h-282.01Z"/>
  <path class="st0" d="M1782.08,0c-.69,3.19-.94,6.55-2.13,9.54-25.91,64.58-51.91,129.12-77.93,193.65-1.09,2.69-2.48,5.27-4.26,9.02-7.47-6.35-14.17-12.05-21.47-18.27-84.66,84.32-169.02,168.33-255.16,254.11h176.13c-.62,12.23-6.1,18.04-16.39,18.21-64.97,1.05-129.94,2.09-194.91,3.13-3.56.06-7.12,0-11.98,0-.66-68.03-1.3-134.77-1.95-202.26,4.18-.41,7.05-.88,9.93-.95,63.62-1.55,127.25-3.14,190.88-4.43,6.54-.13,11.24-2.01,15.53-6.96,8.04-9.26,16.64-18.04,25.37-27.41-10.08-11.27-19.58-21.89-29.93-33.47,3.22-.65,5.27-1.36,7.36-1.45,18.63-.84,37.27-1.72,55.92-2.22,5.04-.13,8.82-1.48,12.2-5.34,5.7-6.49,11.87-12.56,18.69-19.68-7.25-7.04-14.21-13.8-22.73-22.07,9.97-1.91,17.84-1.16,25.59-1.61,7.58-.44,15.16-.93,23.04-1.42V20.77c-28.2-1.43-55.68.86-83.15,1.03-27.99.17-55.97.84-83.96,1.27-27.65.43-55.31.78-82.96,1.27-27.57.48-55.14,1.09-83.45,1.66V4.4c4.24-.19,8.11-.48,11.99-.52,105.96-.9,211.93-1.76,317.89-2.7,4.62-.04,9.24-.77,13.85-1.18,22.67,0,45.34,0,68,0Z"/>
  <path class="st0" d="M952.04,2048c14.07-35.25,28.12-70.52,42.23-105.75,12.63-31.53,25.34-63.03,38.04-94.53,1.34-3.31,2.89-6.54,4.94-11.13,7.63,6.47,14.35,12.18,21.67,18.39,84.79-84.44,169.19-168.49,253.59-252.55-.27-.62-.54-1.23-.81-1.85h-176.4c3.46-6.12,5.79-10.72,8.62-14.99.96-1.45,3.1-2.35,4.89-2.95,1.52-.5,3.3-.22,4.97-.24,65.99-.88,131.98-1.76,197.97-2.61,2.63-.03,5.26.26,7.31.37.75.69,1.01.9,1.23,1.14.22.25.53.51.58.8.3,1.62.76,3.25.77,4.88.36,63.66.68,127.32.96,190.98,0,.94-.49,1.88-1.03,3.81-2.94.25-6.13.68-9.33.76-49.31,1.29-98.62,2.52-147.93,3.8-15.33.4-30.66.76-45.96,1.56-2.97.16-6.57,1.55-8.63,3.62-9.38,9.44-18.31,19.33-28.15,29.86,9.7,11.04,19.21,21.86,30.02,34.16-12.3.77-22.72,1.54-33.15,2.03-9.65.45-19.32.78-28.98.82-5.68.03-10.17,1.67-14.02,6.11-5.62,6.47-11.78,12.47-18.41,19.39,7.29,7.38,13.97,14.14,21.95,22.22-16.58,2.31-32.1,1.11-48.34,2.54-.91,39.76.79,78.92,1.14,119.45,55.87.72,111.32-1.61,166.78-2.24,55.27-.62,110.53-1.77,166.55-2.7v20.84c-3.98.4-8.1,1.15-12.23,1.18-65.66.48-131.32.86-196.98,1.28-11.33.07-22.67.15-33.99.4-3.29.07-6.57.74-9.85,1.13h-160.01Z"/>
  <path class="st0" d="M2369.91,688.8h-116.75c-1.79,14.95-3.57,29.72-5.56,46.37-7.79-6.98-14.77-13.24-22.43-20.11-7.23,7.31-14.4,14.15-21.01,21.5-1.74,1.94-2.3,5.4-2.48,8.21-1.18,18.29-2.08,36.59-3.13,54.89-.12,2.17-.58,4.32-1.16,8.42-11.69-10.59-22.18-20.09-33.59-30.43-10.53,10.97-20.89,21.65-31.05,32.51-1.22,1.31-1.64,3.56-1.99,5.46-.36,1.94-.19,3.99-.22,5.99-.95,60.99-1.88,121.98-2.88,182.97-.08,4.88-.64,9.75-1.04,15.58h-202.94c-.25-2.87-.74-6.06-.76-9.25-.37-68.66-.69-137.33-.98-205.99-.04-9.35.07-9.38,9.04-12.98,5.19-2.08,10.43-4.02,16.56-6.38v180.08c.67.31.94.49,1.24.56.3.07.76.19.91.04,12.27-12.22,24.6-24.4,36.76-36.73,70.63-71.63,141.22-143.29,212.51-215.65-8.24-7.35-15.84-14.13-24.79-22.12,36.39-17.05,72.84-30.2,108.36-45.49,35.68-15.36,71.35-30.73,108.7-46.81.63,5.14,1.42,8.53,1.4,11.92-.3,51.66-.64,103.33-1.11,154.99-.64,69.66-1.39,139.32-2.13,208.98-.12,11.33-.4,22.66-.68,33.99-.07,2.94-.39,5.87-.63,9.38h-23.86c1.9-110.19,3.79-219.39,5.69-329.9Z"/>
  <path class="st0" d="M1755.51,199.17c0,11.22-.34,20.55.2,29.83.17,2.94,2.17,6.19,4.22,8.52,11.25,12.74,22.8,25.22,34.2,37.83,2.18,2.41,4.17,4.98,7.37,8.84-15.53,2.8-29.83.92-44.48,2.86-.29,2.68-.79,5.21-.78,7.73.02,9.67.56,19.35.19,28.99-.27,7.19,2.07,12.4,7.15,17.62,43.25,44.42,86.21,89.12,129.23,133.76,2.71,2.81,5.2,5.84,8.3,9.33-47.83,48.42-95.05,96.22-142.63,144.37-2.45-2.02-4.31-3.32-5.91-4.9-49.31-48.74-98.59-97.51-147.9-146.25-8.74-8.64-6.33-8.76-3.02-16.3,2.01-4.57,3.97-9.16,6.02-13.72.25-.57.86-.98,2.04-2.27,42.12,42.67,84.2,85.29,126.12,127.75.84-.34,1.16-.43,1.43-.6.25-.16.62-.42.62-.63-.66-116.65-1.34-233.29-2.06-349.94,0-1.26-.5-2.52-.83-4.09h-32.06c1.3-3.69,2.23-6.75,3.43-9.71,26.78-66.03,53.59-132.04,80.39-198.06.5-1.23.92-2.51,1.51-3.7,2.72-5.55,4.9-5.91,9.74-1.55,1.24,1.11,2.35,2.37,3.51,3.56,92.4,94.27,184.8,188.53,277.18,282.81,2.07,2.11,3.99,4.37,6.27,6.89-3.64,7.31-9.86,11.6-16.76,17.28-25.82-26.2-51-52.66-76.42-78.88-25.29-26.08-50.51-52.24-75.76-78.37-25.47-26.35-50.93-52.7-75.5-78.13-27.49,27.56-54.65,54.8-82.68,82.91,7.9,9.94,17.3,21.77,27.58,34.71-10.73.54-20.14,1.01-29.92,1.5Z"/>
  <path class="st0" d="M812.16,1029.23c0,3.42-.02,6.38,0,9.35.43,67.64.87,135.29,1.31,202.93q.08,11.85-10.58,16.09c-4.63,1.84-9.31,3.58-13.81,5.3-.5-.33-.8-.48-1.05-.69-.24-.21-.52-.44-.63-.73-.24-.61-.47-1.24-.53-1.88-.09-.99-.06-2-.05-3,.36-57.64.71-115.28,1.06-172.93,0-.32-.17-.64-.27-.96-.29-.13-.58-.31-.89-.37-.3-.06-.75-.11-.91.06-82.93,83.84-165.84,167.69-249.58,252.38,8.18,7.48,15.88,14.52,24.23,22.16-2.59,1.53-4.36,2.87-6.34,3.71-67.13,28.43-134.28,56.83-201.44,85.19-8.95,3.78-10.54,2.57-10.44-8.23.67-74.31,1.37-148.61,2.11-222.92.58-58.31,1.22-116.62,1.87-174.93.03-2.92.39-5.83.64-9.43h23.37c.66,55.09-1.46,109.87-2.17,164.66-.71,54.6-1.77,109.2-2.68,163.59,7.85,2.17,105.92,2.6,116.82.58,1.66-14.5,3.36-29.25,5.24-45.7,7.81,7.11,14.77,13.44,22.51,20.49,7.41-7.49,14.82-14.57,21.65-22.17,1.72-1.91,2.02-5.49,2.18-8.34.94-17.3,1.63-34.61,2.45-51.91.14-2.88.55-5.74,1.05-10.82,12.57,10.21,22.5,20.74,34.16,30.49,10.48-10.92,20.75-21.32,30.57-32.13,1.71-1.89,2.08-5.48,2.15-8.3.67-26.98,1.16-53.97,1.66-80.95.69-36.98,1.33-73.96,2.01-110.94.05-2.63.33-5.26.5-7.74,8.07-2.84,188.25-4.65,203.81-1.91Z"/>
  <path class="st0" d="M2105.18,1413.84c-15.36,0-29.66-.37-43.92.28-3.35.15-7.03,3.27-9.74,5.87-44.94,43.17-89.75,86.49-134.62,129.74-2.82,2.72-5.89,5.17-9.37,8.2-48.37-47.81-96.18-95.05-144.52-142.83,2.75-3,4.87-5.48,7.16-7.79,47.57-48.11,95.16-96.2,142.75-144.28q8.42-8.51,19.62-3.69c4.49,1.93,8.94,3.95,14.86,6.57-43.63,43.05-86.35,85.2-129.07,127.35.31.66.63,1.33.94,1.99,118.09-.84,236.19-1.67,354.93-2.51v-33.03c3.95,1.46,7.03,2.52,10.04,3.74,66.02,26.78,132.02,53.57,198.03,80.36,1.54.63,3.17,1.11,4.6,1.93,3.74,2.13,4.15,4.49,1.36,7.99-1.24,1.55-2.79,2.86-4.22,4.26-94.48,92.62-188.97,185.24-283.47,277.85-2.11,2.07-4.39,3.97-7.64,6.9-5.55-5.49-10.84-10.71-17.17-16.97,79.86-77.2,158.57-153.28,236.38-228.49-27.65-27.6-54.86-54.75-82.85-82.68-10.09,8.02-21.77,17.3-34.81,27.66-.52-10.35-.98-19.68-1.5-30.06-10.86,0-21.07-.3-31.24.21-2.54.13-5.24,2.56-7.38,4.47-12.67,11.33-25.18,22.84-37.77,34.25-2.41,2.18-4.98,4.18-9.05,7.58-1.97-15.87-.85-30.15-2.34-44.86Z"/>
  <path class="st0" d="M642.25,306.08c5.75,6.02,10.9,11.4,16.75,17.52-79.54,76.88-158.3,153.01-236.37,228.46,27.49,27.45,54.55,54.47,82.79,82.69,10.34-8.23,22.19-17.65,35.51-28.26.51,10.54.97,19.88,1.46,29.93,10.98,0,21.54.31,32.05-.23,2.5-.13,5.06-2.9,7.23-4.85,12.4-11.13,24.67-22.41,37.03-33.59,2.34-2.12,4.89-4.02,8.89-7.28.95,16.06,1.78,30.13,2.64,44.74,2.99.24,5.55.64,8.11.63,9-.02,18.02-.59,26.99-.17,8.23.39,14.24-2.25,20.27-8.13,43.86-42.86,88.1-85.33,132.24-127.9,2.85-2.75,5.86-5.33,9.64-8.75,48.2,47.61,96.01,94.83,144.35,142.58-1.86,2.36-3.25,4.52-5.02,6.31-48.73,49.31-97.49,98.58-146.28,147.84-6.71,6.78-6.79,6.74-15.45,3.03-5.4-2.32-10.77-4.72-17.32-7.6,43.54-42.96,86.16-85.02,129.02-127.32-8.11-2.63-340.51-1.01-356.6,1.69.54,9.98,1.08,20.12,1.69,31.4-3.5-.94-6.04-1.34-8.37-2.29-67.27-27.25-134.52-54.54-201.75-81.88-8.56-3.48-8.87-5.55-1.83-12.46,42.81-42.03,85.67-84.01,128.51-126,51.65-50.63,103.29-101.27,154.95-151.88,2.55-2.5,5.24-4.86,8.87-8.23Z"/>
  <path class="st0" d="M2391.54,1440.48c-71.59-28.83-141-56.78-211.98-85.36,6.58-7.79,12.26-14.5,18.58-21.98-84.2-84.53-168.2-168.85-252.2-253.18-.71.26-1.41.51-2.12.77v175.69c-4.55-2.26-7.33-3.82-10.24-5.06-5.98-2.53-7.87-6.75-7.92-13.34-.24-36.99-.98-73.97-1.57-110.95-.46-28.65-.98-57.31-1.42-85.96-.16-10.36.12-10.67,10.51-10.74,60.98-.37,121.97-.7,182.95-1.01,2.62-.01,5.24.3,8.85.52.34,3.12.85,5.96.92,8.8,1.55,63.29,3.16,126.58,4.4,189.88.14,7.25,1.94,12.53,7.6,17.29,9.14,7.67,17.61,16.14,26.76,24.64,11.15-9.88,21.79-19.31,33.51-29.69.67,3.32,1.35,5.34,1.44,7.38.83,18.64,1.74,37.27,2.21,55.92.13,5.1,1.69,8.78,5.47,12.13,6.45,5.73,12.54,11.86,19.52,18.54,7.13-7.28,13.92-14.21,20.7-21.14.69.29,1.38.58,2.07.87.73,15.4,1.46,30.8,2.26,47.46,40.03-.54,79.23-1.06,119.52-1.6,1.41-28.07-.92-55.56-1.06-83.04-.14-27.99-.83-55.97-1.26-83.96-.43-27.65-.79-55.31-1.27-82.96-.49-27.57-1.09-55.14-1.66-83.45h21.63c2.35,137.54,2.04,274.57,3.8,413.55Z"/>
  <path class="st0" d="M1802.94,1764.95c-14.37,15.73-27.1,30.24-40.52,44.07-5.57,5.74-8.16,11.45-7.28,19.48.79,7.2.17,14.55.17,22.66h32.23c-10.8,13.94-22.45,24.2-33.16,37,28.4,27.86,56.59,55.52,85.69,84.08,77.43-80.09,154.44-159.75,231.58-239.56,5.25,5.14,9.85,9.64,14.46,14.15-3.35,6.47-273.93,282.59-287.82,293.72-5.71-7.13-87.52-199.8-88.22-208.23,8.21-.76,16.45-1.53,24.61-2.29,2.2-7.23,4.32-329.49,2.35-357.96-4.22.1-6.05,3.64-8.4,5.99-36.35,36.23-72.62,72.55-108.93,108.82-2.54,2.53-5.23,4.91-9.15,8.58-1.76-6.28-3.4-11.15-4.39-16.16-.33-1.67.68-3.84,1.64-5.45.99-1.68,2.65-2.97,4.04-4.4,45.51-46.86,91.02-93.71,136.55-140.55,2.07-2.13,4.29-4.1,6.33-6.04,6.63,3.47,136.29,130.25,144.39,141.24-2.76,3.21-5.56,6.77-8.67,10.05-42.69,44.94-85.35,89.91-128.27,134.64-4.79,4.99-6.86,9.9-6.4,16.77.81,11.9.81,23.85,1.17,36.29,15.5,1.04,29.88,2.01,45.98,3.1Z"/>
  <path class="st0" d="M791.7,968.14v-173.95c6.95.08,11.31,3.99,15.47,7.43,1.83,1.51,2.3,5.36,2.37,8.17.36,14.99.35,29.99.56,44.99.7,49.98,1.44,99.97,2.14,149.95.06,3.94,0,7.88,0,11.52-8.22,2.55-190.02,4.5-201.88,2.28-.27-2.64-.74-5.52-.82-8.4-1.31-49.63-2.55-99.27-3.84-148.91-.4-15.32-.76-30.65-1.56-45.96-.16-2.98-1.51-6.61-3.58-8.65-9.46-9.36-19.36-18.26-30.07-28.22-10.98,9.81-21.76,19.43-34.01,30.37-.77-12.68-1.54-23.45-2.04-34.23-.45-9.65-.79-19.32-.83-28.98-.02-5.4-1.86-9.45-5.94-13.05-6.44-5.67-12.46-11.83-19.54-18.64-7.08,7.45-13.64,14.35-21.68,22.81-2.05-9.62-1.87-17.41-2.11-25.15-.23-7.59-.41-15.18-.63-23.29h-119.76c-.76,56.2,1.6,111.65,2.23,167.09.63,55.24,1.76,110.47,2.69,166.43h-21.9c-1.07-137.32-2.13-274.16-3.19-411.06,7.66.47,196.86,75.78,210.4,83.61-3.55,8.33-11.72,13.17-16.89,21.75,83.96,84.28,168.04,168.69,252.13,253.1.76-.34,1.52-.67,2.28-1.01Z"/>
  <path class="st0" d="M663.44,316.34c-5.6-5.22-10.36-9.66-16.04-14.96,96.79-98.32,193-196.05,290.37-294.96,30.02,70.48,59.43,139.54,89.54,210.23-10.36.83-19.08,1.53-28.56,2.28v357.81c3.79-.21,5.62-3.69,7.97-6.03,36.36-36.24,72.64-72.55,108.95-108.84,2.52-2.52,5.12-4.95,8.66-8.36,1.47,4.33,2.4,7.38,3.54,10.35,2.29,5.94.96,10.37-3.75,15.05-18.18,18.12-35.89,36.7-53.77,55.11-27.64,28.45-55.27,56.91-82.92,85.35-2.29,2.35-4.73,4.55-6.94,6.67-6.91-3.65-134.34-128.07-144.69-141.25,2.82-3.19,5.72-6.66,8.83-9.94,42.72-44.93,85.38-89.92,128.33-134.63,5.07-5.28,7.31-10.39,6.64-17.65-1.07-11.55-1.28-23.18-1.9-35.61-14.59-.94-28.77-1.85-44.17-2.83,1.79-2.66,2.78-4.62,4.21-6.19,12.34-13.55,24.66-27.13,37.22-40.49,3.65-3.88,5.55-7.8,5.24-13.3-.47-8.26-.12-16.57-.12-26.28h-29.93c-.3-.75-.59-1.5-.89-2.25,9.53-12.13,21.26-22.4,31.5-34.93-28.52-27.97-56.77-55.68-85.65-84-77.61,80.28-154.66,159.98-231.65,239.63Z"/>
  <path class="st0" d="M2149.04,625.73c1.34,1.46,2.76,2.87,4.01,4.4,4.31,5.26,9.44,7.58,16.57,6.87,7.84-.78,15.82-.18,24.63-.18v-31.21c8.53,4.23,13.3,10.66,19.1,15.74,5.75,5.04,11.21,10.4,17.81,16.57,27.9-28.47,55.52-56.65,84.01-85.72-2.96-3.03-5.58-5.86-8.35-8.54-73.57-71.1-147.16-142.18-220.72-213.29-3.54-3.42-6.84-7.09-10.42-10.8,4.93-5.06,9.28-9.54,13.12-13.48,1.3-.11,1.64-.18,1.97-.15.32.02.72.04.95.22,1.81,1.43,3.72,2.77,5.36,4.38,95.7,94.18,191.38,188.39,287.09,282.62-5.6,4.99-191.28,85.04-207.88,89.69-3.97-8.2-.59-17.56-3.7-27.08h-357.8c5.38,8.17,13,13.98,19.48,20.77,6.9,7.23,14.1,14.17,21.17,21.24,6.83,6.83,13.67,13.67,20.5,20.5,6.83,6.83,13.67,13.67,20.5,20.5,7.07,7.07,14.15,14.13,21.21,21.21,6.76,6.78,13.5,13.57,21.34,21.46-6.38,1.81-11.06,3.25-15.81,4.44-4.8,1.2-7.23-2.54-10.03-5.26-20.59-19.94-41.14-39.92-61.7-59.89-26.06-25.31-52.13-50.61-78.17-75.93-2.58-2.51-5.04-5.15-8.56-8.76,47.38-48.1,94.25-95.67,141.9-144.04,3.92,3.5,7.13,6.23,10.18,9.12,45.18,42.93,90.4,85.81,135.4,128.92,4.7,4.5,9.31,6.7,15.85,6.2,8.96-.69,17.98-.48,26.98-.8,3.24-.11,6.46-.63,10.16-1.01.94-14.89,1.84-29.05,2.84-44.83,14.34,12.54,27.5,24.05,40.65,35.55.11.16.24.35.38.55Z"/>
  <path class="st0" d="M585.83,1424.35c-4.85-8.91-11.55-13.86-22.48-12.48-7.14.9-14.49.17-22.55.17v30.91c-8.62-3.74-13.21-10.41-19.05-15.45-5.78-4.99-11.21-10.36-17.74-16.44-28,28.56-55.65,56.78-84.21,85.91,80.02,77.34,159.67,154.34,241.44,233.38-5.4,5.16-10.27,9.8-15.89,15.18-99.32-97.77-197.04-193.96-295.86-291.24,70.55-30.04,139.62-59.45,209.99-89.41.97,10.34,1.79,19.09,2.68,28.52h359.03c-7.8-9.43-16.41-16.96-24.33-25.07-8.15-8.34-16.48-16.52-24.72-24.77-8.48-8.48-16.97-16.97-25.45-25.45-8.25-8.25-16.5-16.49-24.74-24.75-8.15-8.17-16.29-16.36-25.84-25.94,6.26-1.71,10.53-3.37,14.94-3.89,2.58-.3,5.44,1.03,8.04,1.99,1.15.42,1.96,1.76,2.91,2.69,47.34,45.98,94.68,91.95,141.99,137.95,1.87,1.82,3.51,3.87,6.18,6.83-46.91,48.13-93.97,95.54-141.6,143.97-3.69-3.31-6.89-6.04-9.94-8.94-44.93-42.71-89.92-85.36-134.65-128.28-5.74-5.51-11.37-8.12-19.44-7.24-11.16,1.23-22.46,1.29-34.43,1.89-.95,14.71-1.87,28.82-2.87,44.24-2.69-1.87-4.59-2.9-6.14-4.31-8.65-7.83-17.14-15.83-25.84-23.59-2.95-2.63-6.37-4.71-9.58-7.05,0,0,.17.68.17.68Z"/>
  <path class="st0" d="M1906.93,1025.05h-193.38c-.37-3.28-.93-6.12-.98-8.96-.67-41.65-1.18-83.31-1.99-124.96-.12-6.13,1.48-9.9,7.54-12.26,13.96-5.43,27.79-11.24,41.48-17.33,6.06-2.69,10.04-1.72,14.76,3.15,33.38,34.49,67.08,68.66,100.69,102.92,2.5,2.55,5.12,4.97,8.92,8.65,1.83-12.24.49-23.04.65-33.75.16-10.99-.11-22-.16-32.99-.06-11-.09-22-.14-33-.04-11-.1-22-.12-33-.02-10.95,0-21.9,0-33.38,7.12-2.85,13.83-5.53,20.6-8.24,3.1,9.66,4.98,213.77,2.14,223.15Z"/>
  <path class="st0" d="M1367.26,1566.02v-195.53c3.03-.3,5.29-.7,7.55-.74,41.64-.68,83.29-1.33,124.93-1.93,10.23-.15,10.28-.08,14.07,8.93,5.56,13.19,10.78,26.53,16.66,39.58,2.73,6.06,1.97,10.03-2.97,14.81-34.72,33.59-69.12,67.52-103.62,101.35-2.49,2.45-4.89,4.99-8.65,8.85h166.73c2.68,6.65,5.49,13.6,9.01,22.3-75.31.8-148.99,1.59-223.72,2.39Z"/>
  <path class="st0" d="M1122.99,780.65c-6.29,6.54-12.25,12.78-18.26,18.98-24.58,25.35-49.15,50.7-73.77,76.02-6.63,6.82-6.71,6.81-15.43,3.26-13.26-5.39-26.5-10.81-39.71-16.3-8.62-3.59-8.6-3.66-8.52-13.25.37-47.96.74-95.93,1.1-143.89.03-3.53,0-7.05,0-10.58-.69-.3-1.38-.59-2.06-.89-38.23,38.69-76.47,77.39-115.41,116.81-7.05-2.99-13.95-5.93-20.94-8.9,4.2-7.71,148.19-154.55,154.52-158.45,46.06,45.63,91.87,91.01,138.49,137.2Z"/>
  <path class="st0" d="M1884.93,1238.28c7.1,3.15,13.69,6.07,21.85,9.68-52.68,53.7-104.3,106.31-155.7,158.71-7.32-4.25-130.5-126.91-138.95-138.02,1.93-2.13,3.85-4.4,5.91-6.52,28.51-29.42,57.03-58.83,85.58-88.22,7.28-7.5,7.33-7.5,17.21-3.47,12.64,5.15,25.27,10.32,37.86,15.56,3.04,1.27,5.95,2.86,9.55,4.61-.61,54.62-1.22,109.07-1.85,166.13,11.83-10.64,20.87-20.61,30.37-30.08,9.91-9.87,19.68-19.89,29.51-29.84,9.6-9.72,19.14-19.49,28.8-29.14,9.64-9.63,19.41-19.13,29.85-29.4Z"/>
  <path class="st0" d="M1201.83,623.85c38.99-38.26,77.68-76.22,116.08-113.9-.47-1.25-.53-1.61-.72-1.86-.18-.23-.51-.48-.77-.48-53.96-.02-107.93-.02-163.18-.02-2.62-6.49-5.41-13.4-8.25-20.44,10.26-2.86,213.24-4.73,222.74-2.25v194.02c-3.87.24-7.11.58-10.36.63-40.66.63-81.32,1.23-121.98,1.82-9.95.15-10,.16-13.95-9.18-5.45-12.88-10.86-25.78-16.21-38.71-1.25-3.02-2.18-6.18-3.38-9.64Z"/>
  <path class="st0" d="M1591.03,485.23c53.74,52.71,106.45,104.41,158.23,155.19-46.22,46.58-91.65,92.38-137.67,138.77-.75-.55-2.71-1.66-4.29-3.18-30.4-29.45-60.67-59.04-91.23-88.33-4.79-4.59-6.15-8.47-3.33-14.74,5.87-13.05,10.96-26.45,16.44-39.68,3.85-9.28,3.91-9.32,13.79-9.22,47.99.51,95.99,1.06,143.98,1.59,3.54.04,7.09,0,10.63,0,.33-.66.66-1.32.99-1.98-38.96-38.46-77.91-76.91-117.36-115.85,3.19-7.33,6.18-14.21,9.81-22.57Z"/>
  <path class="st0" d="M1123.89,1269.47c1.65,1.46,3.68,3.14,5.57,4.97,29.41,28.52,58.82,57.06,88.2,85.61,7.98,7.76,7.97,7.8,3.8,18-5.04,12.32-10.1,24.63-15.2,36.94q-4.09,9.88-14.44,9.77c-47.97-.38-95.93-.74-143.9-1.1-3.28-.02-6.56,0-12.36,0,8.62,9.6,16.6,16.85,24.17,24.45,7.76,7.79,15.62,15.47,23.45,23.19s15.67,15.43,23.49,23.14c7.83,7.72,15.61,15.48,23.48,23.15,7.85,7.65,15.78,15.22,23.94,23.08-3.34,7.74-6.3,14.6-9.95,23.05-53.9-52.87-106.52-104.49-158.22-155.21,46.31-46.67,91.73-92.44,137.96-139.03Z"/>
  <path class="st0" d="M850.16,1074.41c0,3.28-.02,6.55,0,9.83.35,47.95.71,95.91,1.04,143.86.08,11.81.5,10.48-9.5,14.42-3.09,1.22-6.18,2.44-9.33,3.48-.86.28-1.92-.07-3.99-.2-.78-73.46-1.57-146.85-2.35-219.9,7.77-2.66,181.4-3.27,195.6-.92.21,1.71.61,3.61.64,5.51.68,41.96,1.34,83.91,1.95,125.87.15,10.46.08,10.5-9.64,14.6-12.57,5.31-25.15,10.58-37.76,15.79-3.03,1.25-6.18,2.22-9.85,3.52-38.34-39.09-76.49-77.99-114.64-116.89-.72.34-1.44.68-2.16,1.02Z"/>
  <path class="st0" d="M1358.13,1566.78h-210.34c4.05-7.67,6.75-14.02,10.66-19.5,1.44-2.02,5.74-2.78,8.75-2.8,27.31-.21,54.62-.12,81.93-.13,15.99,0,31.97,0,47.96,0,3.26,0,6.53,0,11.28,0-6.2-9.53-14.16-15.45-20.84-22.47-6.66-6.99-13.64-13.67-20.49-20.49-7.08-7.05-14.16-14.1-21.24-21.15-6.84-6.82-13.63-13.69-20.53-20.44-7.12-6.97-14.35-13.83-21.89-21.07,10.75-23.86,21.1-46.84,31.83-70.66,40.61,1.36,81.1,2.72,121.4,4.08,2.42,8.16,3.7,185.73,1.53,194.62Z"/>
  <path class="st0" d="M1139.85,485.42c2.41,8.32,5.04,14.82,5.88,21.54.34,2.73-2.68,6.46-5.05,8.86-24.37,24.62-48.92,49.07-73.42,73.56-8.2,8.2-16.39,16.41-25.63,25.65,11.18,2.12,21.01.86,30.75,1.08,9.66.23,19.32.02,28.98,0,9.99-.02,19.99-.03,29.98-.05,9.66-.02,19.32-.04,28.98-.05,9.95,0,19.91,0,30.66,0,9.07,23.91,18,47.45,27.24,71.82-29.9,28-59.7,55.9-90.2,84.46-46.37-46.03-92.16-91.47-138.9-137.87,50.11-49.54,99.71-98.58,150.73-149.02Z"/>
  <path class="st0" d="M823.96,1014.68c.51-69.62,1.02-138.79,1.54-209.9,4.93,2.52,8.38,4.21,11.75,6.03,3.21,1.73,6.33,3.61,10.25,5.85v147.29l1.82,1.06c2.49-2.36,5.05-4.67,7.47-7.1,29.87-29.94,59.71-59.91,89.58-89.86q7.54-7.56,16.93-3.36c17.6,7.92,35.2,15.85,52.78,23.81,2.4,1.09,4.7,2.39,7.87,4.02-1.36,40.4-2.72,80.89-4.08,121.21-7.27,2.37-183.97,3.36-195.91.95Z"/>
  <path class="st0" d="M1757.62,645.99c49.84,50.41,98.64,99.76,148.83,150.53-8.99,2.76-16.1,4.94-23.98,7.36-34.8-34.8-69.58-69.57-104.14-104.13-.99.35-1.35.4-1.6.59-.23.17-.43.47-.49.75-.15.64-.3,1.3-.3,1.96-.06,47.61-.1,95.23-.16,142.84,0,.32-.18.64-.42,1.47-1.37.75-2.99,1.91-4.79,2.6-19.9,7.57-39.88,14.95-59.71,22.69-4.67,1.82-7.76,1.48-11.35-2.4-25.54-27.63-51.33-55.03-77.02-82.53-.67-.72-1.12-1.63-2.21-3.26,45.32-45.7,90.72-91.47,137.34-138.47Z"/>
  <path class="st0" d="M1499.98,680.74c-41.24-1.31-81.76-2.61-123.18-3.92v-194.74h208.57c-1.13,7.49-3.72,12.79-10.64,22.13h-146.86c-.12,4.82,3.53,6.6,5.88,8.95,30.12,30.16,60.34,60.22,90.53,90.32q7.31,7.29,2.96,16.99c-8.89,19.69-17.8,39.37-27.25,60.26Z"/>
  <path class="st0" d="M1691.6,1432.5c-3.26,0-6.53,0-9.79,0-42.64.09-85.28.2-127.92.28-9.84.02-9.87-.01-13.43-9.44-7.06-18.68-13.95-37.42-21.21-56.02-1.7-4.35-1.32-7.27,2.19-10.53,27.83-25.83,55.52-51.82,83.27-77.74.47-.44,1.14-.65,1.72-.96,6.66,3.82,132.52,128.36,138.58,137.45-49.25,48.69-98.65,97.54-149.45,147.76-2.71-8.8-4.97-16.15-7.39-23.99,35-35.01,69.78-69.79,104.55-104.57l-1.14-2.23Z"/>
  <path class="st0" d="M1115.38,1264c-46.31,46.68-91.55,92.28-137.83,138.93-49.54-50.11-98.57-99.69-148.89-150.58,8.18-2.44,14.69-4.56,21.3-6.28,4.45-1.16,6.45,2.79,8.93,5.25,21.97,21.85,43.92,43.72,65.74,65.71,10.76,10.85,21.23,21.99,31.26,32.4,1.98-.63,2.3-.68,2.56-.83.27-.15.67-.37.71-.61.18-.98.35-1.97.35-2.96.02-47.3.02-94.59.04-141.89,0-.32.17-.64.7-2.47,22.63-8.6,46.15-17.54,70.66-26.85,27.89,29.78,55.79,59.57,84.47,90.19Z"/>
  <path class="st0" d="M1781.2,1188.44c-23.79-10.76-46.46-21.01-69.85-31.58,1.29-40.89,2.57-81.41,3.89-123.15h194.84v209.11c-8.58-1.29-14.62-5.96-20.74-9.99-1.49-.98-1.46-4.86-1.48-7.41-.12-16.32-.06-32.64-.06-48.96,0-27.31,0-54.62,0-81.93,0-3.21,0-6.41,0-9.62-.71-.33-1.41-.65-2.12-.98-11.57,11.17-22.78,22.72-34.16,34.09-11.78,11.77-23.51,23.59-35.28,35.38-11.5,11.53-23.02,23.04-35.03,35.05Z"/>
  <path class="st0" d="M601.26,1020.85h-222.57c3.37-6.21,207.29-195.9,219.01-203.82.29.12.61.22.88.38.27.16.7.4.7.61.92,65.3,1.82,130.6,2.68,195.91.03,1.93-.38,3.86-.71,6.92Z"/>
  <path class="st0" d="M1574.89,256.18c-67.43,2.27-134.78,1.53-203.59,2.66-1.17-74.89-.85-148.91-1.28-222.42,1.29-.66,1.57-.89,1.89-.94.3-.05.72-.04.95.13,1.06.77,2.2,1.48,3.08,2.43,66.22,71.67,132.43,143.36,198.6,215.08.34.36.16,1.2.36,3.05Z"/>
  <path class="st0" d="M671.07,320.87c99.52,3.86,199.04,7.71,297.98,11.55.7,1.35.92,1.62.98,1.92.06.32.07.74-.09.98-.93,1.35-1.77,2.79-2.9,3.95-45.83,46.91-91.68,93.79-138.25,141.4-53.17-52.64-105.86-104.81-158.56-156.98.28-.94.56-1.88.84-2.83Z"/>
  <path class="st0" d="M1906.4,1568.22c53.5,52.99,105.97,104.95,158.18,156.65-.7,1.39-.83,1.7-1,1.97-.17.26-.38.67-.6.69-1.65.17-3.31.41-4.96.34-97.2-3.92-194.39-7.86-291.58-11.85-.48-.02-.93-.73-2.49-2.04,47.19-48.29,94.3-96.49,142.46-145.77Z"/>
  <path class="st0" d="M663.93,1720.75c3.88-99.54,7.76-199.09,11.62-298.3,1.33-.39,1.65-.52,1.97-.56.31-.04.76-.1.94.07,46.55,45.2,93.09,90.42,139.6,135.66,1.64,1.6,3.05,3.43,5.32,6.01-52.31,52.85-104.43,105.5-156.55,158.15-.97-.34-1.93-.69-2.9-1.03Z"/>
  <path class="st0" d="M2059.44,627.63c-7.46-3.96-139.26-132.01-147.24-142.74,52.02-52.54,104.13-105.18,156.25-157.81.77.28,1.54.57,2.3.85-.6,50.01-3.64,99.97-5.22,149.96-1.58,49.74-4,99.45-6.08,149.74Z"/>
  <path class="st0" d="M1364.09,1790.19v223.45c-6.68-4-198.03-210.24-204.51-220.62,8.54-1.61,16.7-.74,24.73-.98,8.66-.26,17.33-.2,25.99-.27,8.33-.06,16.66-.09,25-.17,8.66-.09,17.33-.21,25.99-.36,8.33-.15,16.66-.41,24.99-.56,8.33-.15,16.66-.23,24.99-.31,8.66-.08,17.33-.14,26-.17,8.32-.03,16.63,0,26.82,0Z"/>
  <path class="st0" d="M2135.94,1233.77c-2.22-69.73-1.61-137.11-2.68-205.72h223.12c.14.41.3.69.31.98.02.32.03.78-.16.96-71.04,65.93-142.09,131.84-213.15,197.73-1.68,1.55-3.55,2.9-7.44,6.05Z"/>
  <path class="st0" d="M678.17,472.48c-3.85-.82-6.37-1.36-9.64-2.05-1.73-48.04-3.45-95.79-5.18-143.93,5.96-.18,7.91,3.83,10.48,6.46,32.89,33.53,65.67,67.16,98.48,100.77,14.19,14.54,28.39,29.08,42.56,43.64,2.49,2.56,4.85,5.24,7.14,7.72-7.35,10.11-133.31,132.62-140.77,136.69-1.93-8.43-.9-16.67-1.22-24.77-.32-8.32-.2-16.65-.34-24.98-.14-8.33-.34-16.65-.56-24.97-.2-7.99-.51-15.98-.67-23.97-.16-8.33-.23-16.65-.27-24.98-.04-8.3,0-16.61,0-25.61Z"/>
  <path class="st0" d="M1912.46,1562.88c45.74-44.72,90.92-88.89,136.15-133.02,1.05-1.03,2.66-1.48,5.64-3.07,2.91,50.75.82,100.23,3.73,149.98,2.72.63,5.18,1.2,8.65,2.01,1.75,47.75,3.51,95.49,5.27,143.45-6.04.88-7.86-3.52-10.4-6.1-25.7-26.11-51.24-52.37-76.83-78.6-21.63-22.17-43.27-44.34-64.88-66.53-2.27-2.33-4.37-4.82-7.34-8.11Z"/>
  <path class="st0" d="M601.58,1028.28c-.74,66.21-1.45,130.61-2.17,195.13-5.7,1.31-7.47-2.67-9.86-4.97-31-29.77-61.9-59.64-92.83-89.48-2.38-2.3-4.83-4.53-7.65-7.16-2.5,1.68-4.83,3.25-7.65,5.14-35.27-32.81-70.27-65.37-105.52-98.16,4.29-4.24,8.5-2.76,12.23-2.73,54.3.55,108.6,1.26,162.91,1.9,12.99.15,25.99.22,38.98.32,3.26.02,6.53,0,11.57,0Z"/>
  <path class="st0" d="M2066.74,320.12c-1.23,2.96-1.41,4.41-2.22,5.21-52.33,51.24-104.72,102.44-156.89,153.44-8.55-5.29-132.7-132.33-137.34-140.74,25.37-2.02,50.16-1.58,74.9-2.05,24.63-.46,49.25-.89,74.31-1.34.77-3.06,1.38-5.5,2.3-9.16,47.64-1.76,95.45-3.53,144.94-5.37Z"/>
  <path class="st0" d="M1167.2,253.12c34.31-35.6,68.61-71.2,103.25-107.15-1.78-2.45-3.27-4.5-4.74-6.52,5.3-8.62,92.12-101.42,99.79-106.07,1.2,25.48.12,50.2-.03,74.89-.15,24.63-.81,49.26-1.13,73.9-.32,24.88-.51,49.77-.76,75.96-65.7.15-130.32-.95-194.93-2.16-.48-.95-.97-1.89-1.45-2.84Z"/>
  <path class="st0" d="M1369.05,2014.71c.88-74.34,1.77-148.67,2.65-222.68,9.54-2.2,189.03.07,195.2,2.14.08.3.21.6.24.9.04.32.08.7-.05.98-.28.6-.62,1.18-1.04,1.69-.62.78-1.31,1.51-2,2.23-32.77,34.07-65.55,68.13-98.31,102.2-.22.23-.32.58-.67,1.24,1.45,1.95,3,4.04,5.18,6.97-32.67,35.13-65.41,70.34-98.15,105.54-1.02-.41-2.03-.81-3.05-1.22Z"/>
  <path class="st0" d="M815.16,1714.41c-.67,3.43-1.16,5.93-1.78,9.1-47.97,1.72-95.68,3.44-143.4,5.16-.4-.76-.8-1.52-1.2-2.28,2.47-2.8,4.76-5.78,7.42-8.38,39.27-38.4,78.6-76.76,117.91-115.13,11.17-10.9,22.33-21.82,34.54-33.75,9.48,9.57,18.52,18.65,27.5,27.79,9.11,9.25,18.17,18.55,27.25,27.83,9.31,9.52,18.61,19.05,27.92,28.57,9.08,9.28,18.18,18.54,27.23,27.85,8.9,9.17,18.02,18.16,26.1,28.79-25.33,2.76-50.1,2.12-74.8,2.91-24.59.78-49.2,1.04-74.69,1.54Z"/>
  <path class="st0" d="M2246.29,927.44c2.69-2.11,4.73-3.72,7.22-5.68,35.23,32.77,70.26,65.35,105.29,97.93-.16.75-.33,1.5-.49,2.25-2.64.35-5.28,1.03-7.91,1-56.96-.66-113.92-1.43-170.88-2.09-14.63-.17-29.26-.03-45.21-.03-1.01-13.94-.21-26.8-.23-39.61-.01-12.99.16-25.98.27-38.97.11-13.32.2-26.65.4-39.97.2-12.99.55-25.98.8-38.97.25-12.77.08-25.55,1.77-38.79,37.3,33.47,72.51,68.15,108.97,102.93Z"/>
  <path class="st0" d="M1367.72,1136c2.67,3.85,4.31,6.77,6.47,9.25,20.6,23.6,41.37,47.06,61.88,70.75,3.42,3.95,6.47,8.54,8.51,13.33,17.01,39.81,33.75,79.74,50.54,119.64,1.13,2.68,1.97,5.48,3.41,9.56-44.68,1.2-88.24,2.37-131.07,3.52-.98-.89-1.24-1.08-1.45-1.32-.21-.25-.5-.53-.54-.83-.24-1.97-.6-3.94-.59-5.92.05-70.99.13-141.97.25-212.96,0-.57.56-1.15,2.59-5.02Z"/>
  <path class="st0" d="M1701.73,893.55c1.14,45.09,2.24,88.82,3.35,133.12h-223.79c1.78-2.66,2.6-4.69,4.07-5.99,25.45-22.46,50.96-44.86,76.55-67.17,2.46-2.15,5.39-3.97,8.4-5.25,41.65-17.63,83.35-35.13,125.04-52.65,1.48-.62,3.06-1,6.37-2.08Z"/>
  <path class="st0" d="M1030.67,884.97c4.97,1.78,8.05,2.73,11,3.96,40.84,16.98,81.7,33.91,122.44,51.11,4.79,2.02,9.38,5.01,13.35,8.4,23.56,20.08,46.91,40.39,70.31,60.65,2.65,2.3,5.16,4.76,8.9,8.22h-226.01v-132.34Z"/>
  <path class="st0" d="M1447.08,1105.21c3.1,0,5.62-.14,8.13.02,32.57,2.11,65.14,4.21,97.69,6.49,4.25.3,8.68.96,12.59,2.54,41.68,16.8,83.28,33.81,124.89,50.79,1.51.61,2.92,1.44,4.38,2.17-3.16,6.68-80.42,88.95-89.74,95.93-52.31-52.31-104.53-104.53-157.94-157.93Z"/>
  <path class="st0" d="M1287.04,943.53c-4.8,0-9.71.26-14.59-.04-29.58-1.86-59.16-3.75-88.72-5.9-4.9-.36-9.97-1.34-14.5-3.16-41.38-16.64-82.67-33.52-123.97-50.36-1.8-.73-3.46-1.8-6.39-3.35,30.67-32.33,60.84-64.13,90.21-95.09,52.83,52.81,105.18,105.15,157.96,157.91Z"/>
  <path class="st0" d="M1451.74,948.86c52.93-52.41,105.87-104.82,159.84-158.27,30.88,31.43,61.27,62.36,92.76,94.4-4.47,2.1-7.31,3.58-10.26,4.79-40.91,16.86-81.79,33.79-122.8,50.41-5.11,2.07-10.82,3.22-16.34,3.66-32.18,2.55-64.39,4.77-96.6,7.07-1.87.13-3.75.02-5.63.02-.33-.7-.66-1.4-.99-2.09Z"/>
  <path class="st0" d="M1283.4,1100.12c-52.92,52.39-105.83,104.79-159.8,158.22-30.88-31.43-61.26-62.35-92.39-94.04,3.33-1.83,5.44-3.28,7.76-4.24,42.13-17.4,84.26-34.82,126.48-52,4.21-1.71,8.96-2.49,13.53-2.85,32.19-2.52,64.39-4.82,96.6-7.15,2.25-.16,4.52-.02,6.79-.02.35.69.69,1.39,1.04,2.08Z"/>
  <path class="st0" d="M1361.79,1137.34c-.54,74.41-1.09,148.81-1.63,223.06-7.9,2.39-121.59,1.89-131.25-.63.73-2.39,1.27-4.86,2.23-7.16,17.5-42.08,35.01-84.15,52.64-126.18,1.39-3.32,3.22-6.63,5.55-9.35,22.11-25.77,44.39-51.4,66.56-77.13,1.08-1.25,1.6-2.97,2.38-4.47,1.18.62,2.35,1.24,3.53,1.86Z"/>
  <path class="st0" d="M1506.67,688.73c-1.38,3.84-2.34,6.93-3.58,9.9-16.99,40.88-33.99,81.76-51.1,122.59-1.52,3.63-3.31,7.38-5.84,10.34-22.1,25.81-44.39,51.45-66.66,77.12-1.05,1.21-2.34,2.2-3.39,3.18-.71-.34-1.04-.45-1.31-.64-.24-.17-.6-.43-.6-.65.1-72.61.21-145.23.37-217.84,0-1.6.44-3.2.65-4.61,7.46-2.06,113.43-1.63,131.46.61Z"/>
  <path class="st0" d="M1480.96,1030.26c74.45.55,148.91,1.11,224.7,1.67-.53,44.04-1.05,87.17-1.58,131.35-3.36-.93-5.89-1.36-8.2-2.32-42.13-17.49-84.24-35.02-126.31-52.65-3.32-1.39-6.66-3.21-9.37-5.54-25.29-21.7-50.45-43.54-75.62-65.38-1.69-1.46-3.08-3.26-4.61-4.9.33-.74.66-1.49.99-2.23Z"/>
  <path class="st0" d="M1507.14,1361.16c-2.02-4.12-3.32-6.42-4.31-8.84-17.26-41.86-34.55-83.71-51.63-125.65-1.71-4.21-2.6-8.93-2.95-13.49-2.59-33.21-4.95-66.43-7.36-99.65-.09-1.29-.01-2.58-.01-3.67.74-.35,1.03-.54,1.35-.61.29-.06.74-.13.89.03,51.7,51.94,103.39,103.9,155.04,155.89.89.89,1.43,2.13,2.62,3.97-30.94,30.4-61.73,60.66-93.64,92.01Z"/>
  <path class="st0" d="M1291.98,940.3c-52.41-52.92-104.81-105.84-158.27-159.82,31.34-30.79,62.24-61.22,94.05-92.42,1.98,3.67,3.4,5.81,4.36,8.14,17.31,41.85,34.6,83.71,51.74,125.63,1.48,3.62,2.43,7.64,2.74,11.54,2.56,32.55,4.93,65.11,7.31,97.67.19,2.64.03,5.3.03,7.95-.65.44-1.3.88-1.96,1.31Z"/>
  <path class="st0" d="M1033.52,1155.24c-1.2-44.51-2.37-88.03-3.54-131.35,7.4-2.45,205.28-3.37,223.98-1.08-1.88,2.38-3.12,4.55-4.89,6.11-25.24,22.26-50.52,44.48-75.91,66.57-2.7,2.35-6.02,4.21-9.34,5.61-40.47,17.14-80.99,34.16-121.51,51.17-2.39,1-4.92,1.67-8.79,2.96Z"/>
  <path class="st0" d="M1237.06,690.34c44.94-1.14,88.18-2.24,131.27-3.34,2.23,7.31,2.98,207.95.87,223.66-2.08-1.52-4.08-2.51-5.44-4.05-22.49-25.49-44.94-51.01-67.25-76.64-2.35-2.7-4.18-6.03-5.59-9.35-17.13-40.47-34.15-80.99-51.15-121.52-.98-2.34-1.52-4.87-2.71-8.75Z"/>
  <path class="st0" d="M1511.32,695.73c32.28,30.61,64.11,60.8,95.04,90.14-52.77,52.77-105.16,105.16-157.58,157.58-.13-1.29-.7-3.74-.55-6.14,2.05-33.24,4.12-66.48,6.41-99.7.27-3.9,1.48-7.87,2.96-11.52,16.71-41.35,33.56-82.65,50.4-123.95.74-1.82,1.8-3.51,3.31-6.4Z"/>
  <path class="st0" d="M1128.52,1262.76c53.24-53.24,105.45-105.44,157.78-157.78.18,1.45.78,3.61.64,5.73-2.14,33.56-4.34,67.12-6.67,100.67-.25,3.59-.97,7.31-2.31,10.63-16.84,41.66-33.82,83.26-50.8,124.86-.71,1.75-1.73,3.37-3.29,6.37-32.53-30.87-64.29-61-95.35-90.48Z"/>
  <path class="st0" d="M1956.05,946.72c1.51-58.74,3.01-117.47,4.54-176.96,3.74-.57,6.93-1.51,10.1-1.47,50.3.69,100.6,1.5,150.89,2.33,1.87.03,3.74.54,7.55,1.12-57.52,59.5-113.86,117.79-170.2,176.07-.96-.37-1.93-.73-2.89-1.1Z"/>
  <path class="st0" d="M1443.24,1613.51c7.32,0,12.58-.11,17.84.02,50.92,1.26,101.83,2.52,152.75,3.9,9.52.26,10.09.76,9.97,9.45-.7,50.93-1.56,101.85-2.39,152.78-.02,1.25-.4,2.48-.55,3.37-.8.42-1.06.65-1.35.69-.32.05-.78.07-.97-.11-57.06-54.93-114.11-109.88-171.14-164.85-1.13-1.09-1.98-2.48-4.16-5.25Z"/>
  <path class="st0" d="M1607.64,425.23c3.23-7.06,110.06-111.28,119.78-116.6,1.37,81.54,2.72,162.53,4.07,242.93-1.42.77-1.69,1-1.98,1.04-.31.05-.78.04-.97-.15-39.15-40.89-78.29-81.79-117.4-122.72-1.35-1.41-2.42-3.09-3.51-4.51Z"/>
  <path class="st0" d="M650.4,664.59c83.24-1.13,164.13-2.85,247.35-3.97-3.28,3.9-4.72,5.98-6.51,7.69-39.05,37.18-78.13,74.34-117.25,111.46-6.57,6.24-7.24,6.3-13.7-.36-35.24-36.31-70.39-72.69-105.55-109.08-1.11-1.14-1.94-2.55-4.34-5.74Z"/>
  <path class="st0" d="M1966.63,1263.95c7.59,4.26,108.99,108.07,116.44,118.72-9.19,2.59-234.59,6.32-245.04,3.58,43.21-41.09,85.76-81.56,128.6-122.3Z"/>
  <path class="st0" d="M1007.85,1741.6c-1.43-82.79-2.83-163.75-4.22-244.14,1.53-.74,1.82-.97,2.13-1.01.3-.04.75-.02.93.17,38.67,40.38,77.34,80.76,115.97,121.17,1.81,1.89,3.41,3.97,5.65,6.59-1.9,2.48-3.4,5.04-5.45,7.03-36.81,35.71-73.68,71.35-110.55,106.99-.7.68-1.59,1.15-4.47,3.19Z"/>
  <path class="st0" d="M1114.63,262.69c58.82,56.9,116.12,112.32,173.37,167.79,1.03,1,1.52,2.56,3.25,5.6-60.32-1.55-118.95-3.05-177.26-4.55-3.29-9.14-2.78-125.41.65-168.84Z"/>
  <path class="st0" d="M779.03,1102.32c-1.45,58.7-2.9,117.4-4.38,176.95-3.74.46-6.6,1.16-9.45,1.11-51.58-.73-103.15-1.55-154.73-2.37-.64-.01-1.28-.31-1.92-.47-.13-.31-.3-.6-.37-.91-.07-.3-.16-.76,0-.92,54.42-56.58,108.87-113.14,163.33-169.68,1.58-1.64,3.44-3.01,5.16-4.51l2.35.8Z"/>
  <path class="st0" d="M1591.21,422.64c4.9,5.26,9.53,10.23,14.16,15.2-.33.77-.67,1.54-1,2.32-54.57.07-109.12,2.17-166,1.45,3.37-3.85,5.09-6.1,7.09-8.05,42.87-41.95,85.83-83.81,128.6-125.86,4.14-4.07,8.37-5.89,14.12-5.69,10.22.34,20.46.1,31.2.1.34,3.11.73,5.35.79,7.6.69,25.98,1.18,51.97,2.09,77.94.21,5.91-1.52,10.01-6.14,13.69-8.27,6.6-16.12,13.74-24.92,21.32Z"/>
  <path class="st0" d="M905.2,1387.48c-5.01,0-7.59.03-10.17,0-59.32-.69-118.64-1.49-177.96-1.95-7.22-.06-12.68-1.93-17.58-7.32-6.47-7.12-13.65-13.59-20.91-20.72,1.94-2.44,3.39-4.58,5.14-6.43,17.65-18.63,35.49-37.08,52.93-55.9,4.32-4.66,8.71-6.34,14.93-5.63,10.5,1.19,21.09,1.67,32.62,2.53v-19.94c1.27-.77,1.53-1.01,1.84-1.1.29-.09.76-.16.93,0,37.99,36.88,75.96,73.77,113.9,110.7,1.13,1.1,1.93,2.54,4.33,5.76Z"/>
  <path class="st0" d="M2089.98,1276.47c-5.32.37-9.6.84-13.88.95-24.3.64-48.61,1.09-72.91,1.85-4.77.15-8.22-1.21-11.26-4.91-7.13-8.69-14.55-17.15-22.32-26.25-5.01,4.57-10.23,9.32-15.45,14.08-.71-.28-1.42-.55-2.13-.83-.68-54.6-1.35-109.2-2.05-165.8,3.41,2.47,5.33,3.49,6.78,4.96,42.87,43.79,85.67,87.65,128.57,131.41,3.25,3.31,4.86,6.75,4.74,11.45-.26,10.61-.08,21.24-.08,33.09Z"/>
  <path class="st0" d="M1635.4,1607.38h-21.5c3.74-7.48,104.87-111.5,115.52-119.14.35,2.53.9,4.63.88,6.72-.65,61.25-1.31,122.5-2.15,183.75-.04,3.09-.76,7.03-2.72,9.08-8.03,8.39-16.67,16.2-25.68,24.79-1.46-1.11-3.67-2.47-5.51-4.21-18.85-17.85-37.55-35.88-56.54-53.59-4.33-4.04-6.01-8.23-5.34-14.04,1.22-10.54,1.96-21.14,3.04-33.36Z"/>
  <path class="st0" d="M1950.55,756.69v20.27c-1.44.59-1.74.79-2.06.82-.3.03-.73,0-.93-.19-37.66-36.67-75.3-73.35-112.92-110.06-1.14-1.11-2.03-2.46-3.93-4.8,3.51-.42,5.92-.98,8.32-.96,60.91.64,121.81,1.39,182.72,1.97,4.64.04,8.25,1.22,11.47,4.66,7.27,7.76,14.81,15.27,22.85,23.49-1.3,1.71-2.65,3.88-4.37,5.7-17.85,18.85-35.87,37.54-53.57,56.53-3.99,4.28-8.05,6.29-13.93,5.61-10.52-1.22-21.09-1.94-33.66-3.05Z"/>
  <path class="st0" d="M1296.49,1610.95c-2.94,2.16-6.2,4.01-8.79,6.54-41.73,40.65-83.45,81.32-124.95,122.2-4.85,4.77-9.69,7.37-16.59,7.08-9.88-.43-19.8-.11-30.44-.11-.36-3.68-.88-6.91-.97-10.15-.68-25.62-1.17-51.25-1.99-76.87-.16-4.89,1.68-8.14,5.27-11.1,8.66-7.16,17.16-14.52,26.06-22.09-4.77-5.15-9.58-10.35-14.4-15.55.35-.75.7-1.5,1.05-2.26,54.59-.87,109.18-.76,163.77-1.42.66,1.24,1.32,2.48,1.98,3.72Z"/>
  <path class="st0" d="M1035.68,335.77c4.39,4.08,8.78,8.1,13.1,12.2,15.92,15.12,31.69,30.41,47.8,45.33,4.53,4.2,6.74,8.39,5.98,14.75-1.25,10.52-1.68,21.13-2.53,32.79,6.89.26,13.91.53,20.92.8.32.76.64,1.52.95,2.27-38.11,39.07-76.42,77.93-115.97,118.35-.71-4.27-1.37-6.36-1.35-8.45.66-60.89,1.42-121.77,2.04-182.66.05-4.97,1.28-8.94,5.03-12.4,7.81-7.2,15.36-14.68,24.01-23Z"/>
  <path class="st0" d="M783.45,952.68c-3.02-2.73-5.49-4.73-7.69-6.98-41.42-42.35-82.75-84.8-124.3-127.02-4.32-4.39-6.39-8.77-6.16-14.91.38-10.2.1-20.42.1-31,2.18-.35,3.76-.79,5.34-.83,26.95-.72,53.9-1.29,80.84-2.14,5.08-.16,8.83,1.13,12.09,5.2,6.85,8.55,14.09,16.79,21.79,25.89,5-4.52,10.36-9.37,15.72-14.21.76.36,1.51.71,2.27,1.07v164.94Z"/>
  <path class="st0" d="M1475.27,1902.94c34.51-36.32,68.19-71.78,102.08-107.45,3.9,2.82,4.61,6.15,4.49,9.91-.11,3.33-.09,6.66-.13,9.99-.8,62.63-1.58,125.26-2.4,187.89-.07,5.17-.3,10.34-2.32,15.9-33.67-38.48-67.35-76.95-101.73-116.24Z"/>
  <path class="st0" d="M515.3,469.16c52.01,3.45,102.94,6.82,154.83,10.26,1.34,49.83,2.66,98.9,4.04,150.1-4.45-2.46-7.71-3.41-9.78-5.53-49.13-50.23-98.14-100.58-147.14-150.93-.6-.62-.82-1.6-1.94-3.91Z"/>
  <path class="st0" d="M2245.69,916.4c-35.88-34.08-71.36-67.78-107.08-101.71,2.98-4.21,6.74-4.51,10.77-4.46,68.65.93,137.31,1.83,205.96,2.77,1.94.03,3.88.38,6.05.61-4.18,6.63-94.11,86.46-115.72,102.78Z"/>
  <path class="st0" d="M812.15,1877.63c3.53-52.76,6.93-103.69,10.41-155.73,49.82-1.35,98.93-2.68,148.07-4.01,1.16,5.85-2.23,8.59-5.34,11.61-39.84,38.79-79.64,77.61-119.46,116.43-8.82,8.6-17.61,17.23-26.47,25.79-1.8,1.73-3.87,3.18-7.21,5.91Z"/>
  <path class="st0" d="M1259.92,145.99c-34.57,36.39-68.25,71.84-102.16,107.53-4.37-3.22-4.15-7.13-4.11-11.09.37-35.33.63-70.66,1.04-105.99.37-31.99.91-63.99,1.36-95.98.05-3.2,0-6.4,0-9.61.76-.3,1.52-.6,2.27-.9,33.61,38.39,67.22,76.78,101.59,116.03Z"/>
  <path class="st0" d="M1923.04,170.64c-3.56,53.43-6.96,104.62-10.42,156.58-49.95,1.23-98.76,2.43-147.83,3.64-1.49-5.71,1.99-8.38,5-11.31,32.18-31.36,64.33-62.74,96.5-94.11,16.2-15.8,32.41-31.59,48.64-47.37,2.05-2,4.22-3.87,8.1-7.43Z"/>
  <path class="st0" d="M2061.2,1419.27c4.37,2.54,7.55,3.59,9.63,5.72,49.13,50.22,98.14,100.55,147.14,150.88.64.66.98,1.62,2.33,3.96-52.19-3.48-103.26-6.88-155.43-10.36-1.22-49.85-2.42-98.94-3.68-150.21Z"/>
  <path class="st0" d="M489.55,1132.59c35.84,34.05,71.24,67.68,106.9,101.56-3.38,4.93-7.73,4.26-11.93,4.22-33.28-.32-66.56-.53-99.84-.93-34.28-.4-68.55-.96-102.82-1.47-2.62-.04-5.23-.22-8-.34,3.15-6.15,94.84-87.76,115.69-103.03Z"/>
  <path class="st0" d="M2219.67,470.47c-50.42,51.87-100.85,103.74-151.27,155.61-.82-.33-1.64-.66-2.47-.99,1.36-49.23,3.59-98.43,5.07-148.13,50.04-3.16,98.72-6.23,147.4-9.3.42.94.85,1.88,1.27,2.82Z"/>
  <path class="st0" d="M1257.33,1909.04c-33.23,37.7-65.51,74.32-97.79,110.94-.77-.28-1.54-.55-2.31-.83-1.68-24.02-.79-48.15-1.34-72.21-.56-24.31-1.08-48.63-1.3-72.94-.22-24.13-.05-48.26,1.73-73.34,33.45,35.9,66.91,71.79,101,108.38Z"/>
  <path class="st0" d="M2143.87,1235.66c35.86-33.41,71.73-66.82,108.31-100.9,37.26,32.83,74.12,65.11,110.56,97.44-.93,1.56-1.06,1.85-1.26,2.1-.2.25-.42.51-.69.67-.28.16-.63.26-.96.26-68.89.98-137.79,1.96-206.68,2.93-2.63.04-5.26,0-7.89,0-.46-.83-.93-1.66-1.39-2.49Z"/>
  <path class="st0" d="M515.45,1578.52c50.47-51.92,100.94-103.83,151.4-155.75.82.34,1.65.67,2.47,1.01-1.74,48.98-3.48,97.95-5.26,148.16-25.38,1.56-50.19,3.02-74.98,4.62-24.3,1.57-48.58,3.9-72.93,4.08l-.71-2.12Z"/>
  <path class="st0" d="M967.96,326.26c-49.07-1.74-98.14-3.49-146.99-5.22-3.47-20.22-10.29-141.19-8.1-149.27,52.39,50.91,104.3,101.35,156.21,151.79-.37.9-.75,1.8-1.12,2.7Z"/>
  <path class="st0" d="M1921.52,1876.41c-51.9-50.44-103.79-100.87-155.69-151.31.36-.8.71-1.61,1.07-2.41,49.02,1.74,98.03,3.48,148.2,5.27,3.13,49.42,6.23,98.32,9.33,147.22-.97.41-1.94.82-2.91,1.23Z"/>
  <path class="st0" d="M1478.31,139.74c39.54-47.38,91.79-105.45,99.52-110.11,2.42,72.85,1.94,145.1,3.68,216.64-1.41.87-1.66,1.12-1.95,1.17-.31.06-.67-.03-.98-.13-.3-.1-.62-.26-.83-.48-32.06-34.29-64.1-68.58-96.14-102.9-1.11-1.18-2.02-2.54-3.31-4.18Z"/>
  <path class="st0" d="M591.47,813.15c-35.95,33.48-71.89,66.97-108.47,101.04-37.18-32.74-74.02-65.19-110.86-97.63.28-.77.56-1.54.84-2.3,72.49-2.53,145.03-1.88,217.53-3.78.32.89.64,1.78.96,2.67Z"/>
  <path class="st0" d="M368.48,692.9h106.38c-3.73,7.42-84.53,94.8-101.55,110.13-2.86-6.74-6.89-96.04-4.83-110.13Z"/>
  <path class="st0" d="M1587.42,28.27c38.45-1.49,74.82-2.89,111.82-4.33v107.03c-.92.4-1.2.59-1.51.63-.32.04-.77.04-.97-.15-35.26-32.85-70.5-65.72-105.72-98.61-.9-.84-1.55-1.94-3.62-4.57Z"/>
  <path class="st0" d="M1765.17,1888.34c49.62-1.62,99.25-3.24,149.17-4.88-2.55,6.84-59.79,70.03-74.81,82.77-25.05-25.16-50.16-50.4-75.28-75.63.31-.75.61-1.5.92-2.26Z"/>
  <path class="st0" d="M893.31,83.92c26.01,25.7,51.01,50.41,75.83,74.93-7.33,2.84-111.83,7.47-148.13,6.36-.13-.31-.3-.6-.38-.92-.08-.3-.2-.73-.06-.92,1.59-2.1,3.1-4.28,4.89-6.21,22.81-24.67,45.67-49.3,67.86-73.24Z"/>
  <path class="st0" d="M2308.3,551.49c-25.22,25.5-49.94,50.49-74.66,75.49-2.93-6.64-8.12-124.94-6.55-149.27,6.19,2.47,71.29,61.61,81.21,73.78Z"/>
  <path class="st0" d="M2363.89,1246.27c1.41,36.15,2.83,72.29,4.23,108.23-7.92,2.37-87.24,3.09-107.05,1.21-.13-.31-.3-.6-.39-.92-.08-.3-.22-.75-.08-.91,15.31-16.64,30.57-33.33,45.98-49.87,18.31-19.65,36.76-39.18,55.15-58.76.72.34,1.43.68,2.15,1.02Z"/>
  <path class="st0" d="M425.98,1496.23c25.05-24.93,50.17-49.93,75.29-74.93.8.31,1.61.61,2.41.92,1.62,49.61,3.25,99.21,4.89,149.3-7.35-3.44-74.48-64.84-82.58-75.29Z"/>
  <path class="st0" d="M1148.04,2020.76c-38.3,1.4-74.69,2.73-111.79,4.09v-107.56c7.55,3.97,94.04,83.96,111.79,103.47Z"/>
  <path class="st0" d="M2307.82,1495.71c-26.61,26.15-52.85,51.93-79.09,77.71-.72-.19-1.44-.39-2.15-.58-.18-3.73-.64-7.48-.49-11.2,1.3-33.22,2.7-66.43,4.1-99.64.53-12.6,1.15-25.19,1.74-37.93,6.47,2.27,58.49,51.43,75.89,71.63Z"/>
  <path class="st0" d="M2364.53,804.91c-8.15-4.86-91.09-93.73-102.75-109.3,6.19-2.45,90.35-4.39,103.7-2.19.81,36.6-1.08,73.37-.95,111.49Z"/>
  <path class="st0" d="M427.38,553.22c26.59-26.12,52.82-51.88,79.6-78.19,1.18,2.24,2.3,3.36,2.26,4.43-1.85,48.45-3.81,96.89-5.76,145.48-6.6-2.24-58.29-51.01-76.1-71.72Z"/>
  <path class="st0" d="M1698.29,1916.75c.61,36.39,1.18,70.24,1.77,104.83h-111.47c-1.05-5.22,2.7-7.02,5.17-9.31,15.6-14.49,31.31-28.88,46.98-43.31,15.91-14.65,31.82-29.31,47.76-43.93,2.6-2.38,5.38-4.56,9.8-8.28Z"/>
  <path class="st0" d="M1036.67,131.5V26.65c36.51-.89,73.25,1.08,111.87.9-2.39,3.42-3.46,5.74-5.2,7.34-33.75,31.16-67.57,62.25-101.42,93.32-1.1,1.01-2.55,1.62-5.25,3.29Z"/>
  <path class="st0" d="M817.63,1884.55c3.16-1.03,4.72-2.03,6.23-1.97,48.07,1.97,96.14,4.03,144.53,6.1-3.34,7.07-58.4,64.72-72.23,75.8-25.72-26.17-51.51-52.42-78.54-79.93Z"/>
  <path class="st0" d="M473.98,1355.29h-103.52v-111.37c3.02,1.71,5.26,2.38,6.62,3.85,31.86,34.52,63.62,69.12,95.37,103.74.58.63.71,1.68,1.54,3.77Z"/>
  <path class="st0" d="M1766.18,157.86c23.87-24.47,47.74-48.95,72.23-74.05,26.55,27.03,52.32,53.28,78.1,79.52-.29.75-.57,1.5-.86,2.25-24.7,1.43-49.38-1.62-74.06-2.12-24.87-.5-49.72-2.17-74.58-3.33-.28-.76-.55-1.51-.83-2.27Z"/>
  <path class="st0" d="M1007.42,353.81c-2.21-9.68-1.41-99.06,1.03-107.83,32.48,1.56,65.18,3.12,98.45,4.72-3.75,7.27-88.79,95.1-99.48,103.12Z"/>
  <path class="st0" d="M2097.1,1244.65c6.29,3.37,66.46,63.87,75.34,76-24.13,21.95-48.35,43.99-72.16,65.64-1.45-.55-1.77-.61-2.01-.78-.27-.19-.63-.46-.66-.72-.3-2.96-.75-5.93-.77-8.9-.32-43.27-.58-86.53-.8-129.8,0-.48.69-.96,1.06-1.44Z"/>
  <path class="st0" d="M1663.64,219.51c22.45,24.68,44.51,48.92,66.56,73.17-.35.81-.69,1.62-1.04,2.43-47.07.84-94.14.92-141.7,1.35,3.12-7.29,59.43-63.87,76.17-76.94Z"/>
  <path class="st0" d="M697.8,1385.2h-108.66c1.55-33.8,3.04-66.55,4.65-101.57,9.37,6.86,15.51,14.18,22.37,20.62,6.8,6.39,13.4,12.99,20.08,19.51,6.92,6.75,13.81,13.52,20.72,20.28,6.67,6.53,13.42,12.98,20,19.59,6.65,6.68,13.99,12.77,20.84,21.56Z"/>
  <path class="st0" d="M637.91,663.16c.66,46.97,1.32,93.94,1.97,140.22-1.48.88-1.75,1.13-2.06,1.2-.3.07-.77.08-.96-.1-7.84-7.62-15.77-15.14-23.44-22.93-17-17.25-33.88-34.63-51.4-52.57,24.93-22.69,49.2-44.78,73.47-66.87l2.41,1.06Z"/>
  <path class="st0" d="M1072.21,1828.94c-13.04-11.36-62.77-67.15-66.3-74.81,47.46-.67,94.4-1.34,141.96-2.01-3.26,7.64-59.3,64.02-75.66,76.82Z"/>
  <path class="st0" d="M2146.14,665.19c-1.58,32.96-3.14,65.43-4.81,100.31-10.88-8.8-18.79-17.55-27.26-25.66-8.67-8.3-17.2-16.73-25.78-25.12-8.35-8.15-16.68-16.31-25.02-24.47-8.49-8.31-16.96-16.62-25.9-25.38,7.47-2.68,95.71-2.19,108.76.32Z"/>
  <path class="st0" d="M1727.27,1802.9c-33.13-1.55-65.79-3.09-99.08-4.65,5.04-9.18,93.17-98.99,99.74-102.19,1.95,6.41,1.62,89.01-.66,106.84Z"/>
  <path class="st0" d="M545.88,1336.2c13.67-13.41,27.27-26.75,40.43-39.66,1.48,3.98-.23,65.48-2.62,73.99-6.42-2.89-31.39-25.67-37.82-34.33Z"/>
  <path class="st0" d="M1729.42,222.31v57.5c-.28.13-.57.32-.88.41-.3.09-.78.22-.91.08-15.15-15.81-30.3-31.62-45.39-47.48-2-2.1-3.72-4.48-6.99-8.46,18.78-1.19,35.72-2.45,54.16-2.05Z"/>
  <path class="st0" d="M2190.56,712.46c-8.93,11.82-35.17,37.49-43,41.68.93-25.76,1.84-50.68,2.76-76.06,2.16.43,3.34.3,3.92.83,12,11,23.93,22.08,36.33,33.55Z"/>
  <path class="st0" d="M568.65,716.19c-2.58-7.95-3.83-40.72-2.29-53.38h59.28c-19.33,19.17-37.86,36.16-57,53.38Z"/>
  <path class="st0" d="M1678.98,1846.92c-11.75-8.94-37.17-35.04-40.93-42.49,25.65.88,50.63,1.74,76.18,2.61-3.38,7.53-22.84,29.24-35.24,39.88Z"/>
  <path class="st0" d="M1096.41,244.53c-24.97-.92-49.94-1.83-75.47-2.77.57-2.24.52-3.39,1.07-3.99,11.03-11.98,22.13-23.89,34.18-36.87,14.09,13.93,27.68,27.35,41.26,40.78-.35.95-.7,1.9-1.05,2.85Z"/>
  <path class="st0" d="M1442.14,955.64c-3.38-3.36-5.08-4.75-6.42-6.43-5.18-6.51-9.91-13.4-15.46-19.57-4.23-4.7-4.08-8.92-1.83-14.38,8.35-20.29,16.29-40.74,24.45-61.11.91-2.27,2.25-4.37,4.42-6.29-.86,35.34-2.62,70.43-5.16,107.78Z"/>
  <path class="st0" d="M1468.35,1025.48c1.39-11.79,2.62-23.61,4.33-35.35.27-1.83,2.37-4.11,4.19-4.9,23.42-10.24,46.94-20.25,70.46-30.26.42-.18,1.16.37,3.06,1.04-26.78,23.96-53.05,47.47-79.33,70.98-.9-.5-1.81-1.01-2.71-1.51Z"/>
  <path class="st0" d="M1184.49,1093.19c27.17-24.3,53.3-47.68,80.64-72.14.59,3.31,1.31,5.06,1.13,6.71-1.1,9.9-2.51,19.77-3.61,29.68-.37,3.33-1.72,5.36-4.89,6.71-22.92,9.77-45.78,19.7-68.69,29.5-.75.32-1.83-.15-4.58-.46Z"/>
  <path class="st0" d="M1437.57,1204.64c-9.9-5.25-68.49-71.56-71.27-78.52,1.72-.13,3.29-.5,4.8-.33,11.19,1.29,22.37,2.69,34.22,4.14,10.79,25,21.52,49.86,32.25,74.71Z"/>
  <path class="st0" d="M1368.97,923.76c-11.82-1.39-23.65-2.63-35.43-4.32-1.88-.27-4.31-2.19-5.08-3.95-10.23-23.45-20.23-47.01-30.22-70.57-.2-.47.28-1.23.83-3.31,24.1,26.93,47.64,53.25,71.19,79.57-.43.86-.87,1.72-1.3,2.58Z"/>
  <path class="st0" d="M1292.86,1094.09c2.68,1.82,3.94,2.31,4.67,3.23,6.4,8.07,12.58,16.3,19.09,24.28,2.45,3,2.59,5.73,1.22,9.13-9.17,22.78-18.24,45.59-27.38,68.39-.34.85-1.04,1.54-3.1,4.49.02-19.86,1.39-37.39,2.43-54.92,1.05-17.72,2-35.44,3.08-54.59Z"/>
  <path class="st0" d="M2111.05,1384c18.16-16.89,36.31-33.79,54.76-50.95,3.11,7.15,4.88,37.98,3.28,52.91-18.89,1.26-37.93.66-56.97.88l-1.08-2.84Z"/>
  <path class="st0" d="M1298.58,951.56c-10.86,8.41-20.19,15.82-29.78,22.85-1.49,1.09-4.53,1.21-6.36.5-23.52-9.19-46.96-18.61-70.39-28.02-.45-.18-.65-1-.96-1.52,7.43-1.82,94.85,2.81,107.49,6.18Z"/>
  <path class="st0" d="M1468.87,1072.34c25.6,10.18,50.75,20.19,75.9,30.2-.14.76-.27,1.52-.41,2.28-35.28-1.02-70.48-3.55-106.13-6.87,9.69-9.58,20.16-17.41,30.64-25.6Z"/>
  <path class="st0" d="M1057.32,1825.46h-51.71c-.15-18.76-.82-37.72-.02-56.67.76-.34,1.53-.68,2.29-1.02,17.02,18.27,34.04,36.53,51.06,54.8-.54.96-1.08,1.93-1.63,2.89Z"/>
  <path class="st0" d="M2247.42,805.74c-14.74-21.31-28.15-42.28-42.07-63.33,7.81-2.45,31.74-3.28,43.12-1.82,2.23,8.52,1.82,56.22-1.05,65.15Z"/>
  <path class="st0" d="M900.51,1802.73c25.11,2.71,49.22,8.69,73.82,13.48-3.46,7.19-18.5,23.71-29.78,32.83-15.07-14.76-29.78-30.06-44.04-46.3Z"/>
  <path class="st0" d="M1758.47,232.22c11.23-11.77,20.97-21.98,31.6-33.12,15.51,15.69,30.41,30.83,45.22,46.05-.5.84-.99,1.69-1.49,2.53-24.39-5.01-48.78-10.02-75.33-15.47Z"/>
  <path class="st0" d="M1149.05,144.67c-21.5,14.61-42.33,28.19-65.11,42.99v-44.17c8.67-2.08,56.07-1.64,65.11,1.18Z"/>
  <path class="st0" d="M1790.69,1850.11c-11.18-10.13-21.37-19.37-31.8-28.83,7.29-5,65.51-19.26,76.88-18.95-15.18,16.09-29.63,31.4-45.08,47.78Z"/>
  <path class="st0" d="M900.05,246c14.46-15.35,28.91-30.7,44.34-47.08,10.82,9.74,21.2,19.1,31.75,28.6-6.42,4.97-54.84,17.51-76.09,18.48Z"/>
  <path class="st0" d="M528.65,740.62c-13.21,21.5-26.42,42.99-39.64,64.49-.82-.23-1.64-.46-2.45-.69-.64-20.95-1.29-41.91-1.98-64.35,14.55-.81,28.5-1.58,42.44-2.36.54.97,1.08,1.94,1.62,2.9Z"/>
  <path class="st0" d="M588.91,1491.91c-15.34-14.49-30.69-28.98-46.95-44.34,9.95-10.93,19.38-21.27,30.44-33.41,7.62,26.94,12.8,51.88,18.75,76.63-.75.37-1.49.75-2.24,1.12Z"/>
  <path class="st0" d="M1587.86,143.35c21.06-.59,42.12-1.18,64.21-1.8.8,14.92,1.54,28.65,2.29,42.62-7.88-1.1-52.09-27.12-66.5-40.82Z"/>
  <path class="st0" d="M2248.78,1244.4c.59,21.43,1.17,42.3,1.73,62.87-7.57,2.83-34.81,4.12-42.59,2.31,1.96-8.62,34.14-60.57,40.86-65.18Z"/>
  <path class="st0" d="M2146.15,556.91c15.38,14.52,30.76,29.04,47.12,44.48-9.69,10.68-18.96,20.89-28.76,31.69-1.65-1.77-3.27-2.71-3.58-3.97-5.73-23.52-11.3-47.08-16.9-70.62.71-.52,1.42-1.05,2.13-1.57Z"/>
  <path class="st0" d="M1148.68,1905.4c-22.17.69-43.11,1.34-65.48,2.04-1.62-14.48-1.1-28.51-2.26-42.65,7.64.96,58.93,31.74,67.74,40.61Z"/>
  <path class="st0" d="M2159.77,1415.23c12,11.45,22.05,21.05,32.01,30.55-4.24,7.17-37.71,40.37-47.4,46.65,4.36-25.89,10.21-50.09,15.39-77.2Z"/>
  <path class="st0" d="M1651.26,1863.03v41.91c-6.51,2.14-54.12,2.12-63.23-.18,4.71-5.73,53.47-38.14,63.23-41.72Z"/>
  <path class="st0" d="M575.29,633.54c-11.86-11.34-22.03-21.06-33.06-31.6,15.85-15.55,30.86-30.27,45.87-45,.75.36,1.51.72,2.26,1.08-3.82,24.55-9.73,48.72-15.07,75.52Z"/>
  <path class="st0" d="M486.38,1308.26v-63.42c.72-.27,1.44-.54,2.16-.8,13.93,20.62,27.44,41.51,42.44,64.22h-44.6Z"/>
  <path class="st0" d="M1373.8,1013.97c7.07-17.48,14.13-34.96,21.21-52.47,6.83,3.17,27.15,21.17,34.4,30.53-17.5,9.5-36.05,15.9-53.88,23.89l-1.74-1.96Z"/>
  <path class="st0" d="M1299.69,1002.4c20.1,8.02,38.07,15.19,56.44,22.51-5.66,5.39-41.94,21.38-54.25,24.08-.7-14.87-1.39-29.59-2.19-46.59Z"/>
  <path class="st0" d="M1343.15,958.64c14.85-.62,29.49-1.23,45.93-1.92-6.72,20.12-14.78,37.77-21.92,56.12-5.27-5.15-21.21-41.23-24.02-54.2Z"/>
  <path class="st0" d="M1339.29,1089.21c-11.91-10.87-22.62-20.66-33.34-30.44,5.1-5.62,42.26-22.28,55.62-24.91-6.95,18.61-14.28,36.12-22.29,55.35Z"/>
  <path class="st0" d="M1356.96,1018.19c-17.43-7.04-34.86-14.07-52.32-21.12,3.4-7.61,23.09-29.25,31.45-34.19,7.68,17.93,15.29,35.69,22.9,53.45-.68.62-1.36,1.24-2.03,1.85Z"/>
  <path class="st0" d="M1377.89,1022.09c18.45-7.83,36.02-15.29,55.37-23.49.75,16.13,1.42,30.71,2.1,45.35-7.75,0-45.57-14.41-57.46-21.86Z"/>
  <path class="st0" d="M1391.96,1090.23c-15.29.71-29.71,1.38-45.86,2.12,6.73-20.31,14.8-37.96,21.92-56.31,5.31,5.17,21.45,41.77,23.94,54.18Z"/>
  <path class="st0" d="M1377.71,1030.61c17.69,7.11,35.38,14.23,54.76,22.02-10.85,11.87-20.79,22.75-31.93,34.93-9.87-18.77-16.39-37.28-24.49-55.09.55-.62,1.11-1.24,1.66-1.86Z"/>
  <path class="st0" d="M2204.7,1299.94v-58.69c12.24-1.04,24.25-.39,38.64.26-12.86,20.86-24.6,39.93-36.35,58.99-.76-.18-1.52-.37-2.29-.55Z"/>
  <path class="st0" d="M1150.43,1861.55v36.35c-8.66-2.37-52.97-29.63-59.11-36.35h59.11Z"/>
  <path class="st0" d="M530.62,747.28v60.01h-35.96c1-7.03,25.79-48.67,35.96-60.01Z"/>
  <path class="st0" d="M1803.57,1769.74c10.77,9.97,19.26,17.82,27.79,25.71-6.55,4.49-57.69,16.85-69.05,15.98,14.83-14.98,28.48-28.77,41.27-41.69Z"/>
  <path class="st0" d="M1584.65,186.6v-37.09c21.17,11.6,39.95,24.12,60.22,36.34-8.34,2.61-48.62,2.88-60.22.75Z"/>
  <path class="st0" d="M970.74,235.37c-3.76,7.36-29.61,33.86-42.3,43.71-8.32-8.33-16.77-16.78-26.75-26.76,24-6.86,46.21-11.14,69.05-16.95Z"/>
  <path class="st0" d="M585.83,1424.35s-.16-.68-.17-.68c4.35,4.98,8.46,10.2,13.1,14.9,7.71,7.8,15.75,15.25,24.67,23.82-9.51,9.43-18.02,17.86-28.02,27.78-6.68-23.66-11.33-45.53-16.76-69.01,3.41,1.51,5.3,2.35,7.18,3.19Z"/>
  <path class="st0" d="M2149.04,625.73c-.15-.2-.27-.39-.38-.55-2.78-3.67-5.23-7.64-8.39-10.94-8.89-9.3-18.06-18.32-26.45-26.77,8.81-9.28,16.9-17.81,24.98-26.32,3.95,5.22,15.46,50.45,16.59,66.08-2.29-.54-4.32-1.01-6.35-1.49Z"/>
  <path class="st0" d="M1301.22,941.6c-1.6-27.57-3.2-55.13-4.8-82.7.59-.23,1.18-.45,1.78-.68,1.12,1.29,2.67,2.41,3.28,3.91,7.28,17.84,14.51,35.71,21.5,53.66.86,2.21,1.37,5.99.15,7.33-6.15,6.78-12.93,12.99-19.49,19.4-.81-.31-1.62-.62-2.43-.93Z"/>
  <path class="st0" d="M1379.42,918.75c18.22-20.47,36.44-40.93,54.66-61.4.6.3,1.19.59,1.79.89-.11,1.69.23,3.57-.39,5.04-7.49,17.8-15.14,35.52-22.69,53.29-1.24,2.92-2.56,5.26-6.35,5.2-8.54-.15-17.09-.05-25.64-.05-.46-.99-.92-1.98-1.38-2.98Z"/>
  <path class="st0" d="M1532.92,1094.13c-20.65-8.8-41.3-17.6-61.98-26.42v-31.2c9.64,4.15,15.23,11.68,22.13,17.41,7.41,6.16,14.58,12.63,21.6,19.24,6.63,6.25,14.5,11.29,19.79,18.89l-1.54,2.09Z"/>
  <path class="st0" d="M1433.51,1105.18c2.24,29.79,4.08,57.24,4.88,85.97-5.86-5.73-20.23-39.21-27.95-63.67,6.5-7.34,13.78-14.2,23.07-22.29Z"/>
  <path class="st0" d="M1201.82,1093.9c4.98-4.4,49.74-23.12,60.85-25.75,8.04,7.12,15.4,13.64,23.06,20.42-7.86,3.44-76.87,7.5-83.91,5.33Z"/>
  <path class="st0" d="M1324.93,1127.93h30.03c-1.56,7.89-8.03,11.51-12.13,16.71-4.52,5.73-9.66,10.98-14.53,16.44-4.65,5.21-9.27,10.44-13.94,15.64-4.58,5.1-9.2,10.17-14.49,16.01-.57-7.72,13.53-43.25,25.06-64.79Z"/>
  <path class="st0" d="M1470.33,981.9c-7.04-7.32-13.81-14.35-20.97-21.79,9.51-3.2,72.59-7.08,83.73-5.5-3.81,4.58-31.89,16.84-62.76,27.29Z"/>
  <path class="st0" d="M1263.91,981.05v30.48c-7.58-2.89-58.32-47.75-63.87-57.02,22.57,8.2,42.73,17.87,63.87,26.54Z"/>
  <path class="st0" d="M1639.35,1861.35c-6.87,8.36-44,33.51-53.14,36.43,0-6.52,0-12.67,0-18.83s0-11.76,0-17.6h53.14Z"/>
  <path class="st0" d="M930.87,1769.56c12.76,13.37,24.32,25.48,35.88,37.6-.42.77-.83,1.55-1.25,2.32-10.04,0-19.7-3.24-29.52-4.94-10.04-1.74-20.03-3.81-32.27-6.16,5.62-5.97,9.8-10.42,13.99-14.86,4.1-4.35,8.2-8.69,13.17-13.96Z"/>
  <path class="st0" d="M1804.24,279.22c-11.9-12.37-22.53-23.4-33.12-34.47-.89-.93-1.49-2.13-2.27-3.26,6.22-2.53,46.9,4.22,60.98,10.08-.68,1.14-1.16,2.38-2,3.26-7.57,7.9-15.2,15.74-23.59,24.39Z"/>
  <path class="st0" d="M2204.4,804.38c0-15.93-.02-31.82.06-47.71,0-.78.94-1.55,1.45-2.33,5.79,3.89,30.22,38.8,34.89,49.7-7.33,2.41-28.53,2.58-36.4.34Z"/>
  <path class="st0" d="M530.7,1244.02v51.34c-8.22-3.65-10.21-10.72-14.19-15.9-4.05-5.26-7.52-10.96-11.24-16.46-3.86-5.72-7.72-11.44-11.68-17.32,7.28-2.71,24.83-3.39,37.12-1.66Z"/>
  <path class="st0" d="M595.17,561.48c8.86,8.76,17.48,17.27,26.88,26.56-12.71,12.26-24.79,23.91-37.82,36.48-.96-2.8-2.05-4.3-1.82-5.55,3.31-18,6.79-35.97,10.3-53.93.17-.88,1.08-1.61,2.45-3.56Z"/>
  <path class="st0" d="M2113.94,1460.1c11.96-11.51,23.99-23.09,36.53-35.16,2.35,8.11-3.68,44.92-9.29,60.88-6.13-2.62-19.95-15.56-27.24-25.71Z"/>
  <path class="st0" d="M1148.04,187.41c-12.6,1.78-43.31.97-50.34-1.25,3.32-5.65,38.37-30.21,50.34-35v36.26Z"/>
  <path class="st0" d="M1463.34,1027.3h-24.33v-31.75c7.93-3.49,16.72-7.36,25.51-11.23,2.9,6.04,2.3,27.58-1.17,42.97Z"/>
  <path class="st0" d="M1437.63,957.31c-6.35,6.93-11.66,12.72-17.54,19.14-7.88-7.54-15-14.34-22.88-21.88,3.59-9.16,7.26-18.52,11.67-29.74,10.44,11.79,19.57,22.1,28.76,32.48Z"/>
  <path class="st0" d="M1297.47,1091.33c6.18-6.68,11.51-12.45,17.46-18.89,7.99,7.55,15.16,14.32,23.06,21.79-3.53,8.97-7.22,18.35-11.66,29.63-5.77-6.36-10.38-11.36-14.89-16.45-4.61-5.2-9.12-10.49-13.98-16.09Z"/>
  <path class="st0" d="M1434.05,1095.04c-6.53-6.34-12.18-11.82-18.48-17.95,7.44-7.85,14.23-15.01,21.84-23.05,8.86,3.5,18.23,7.19,28.67,11.3-4.45,7-10.53,10.57-15.48,15.18-5.07,4.74-10.43,9.17-16.55,14.51Z"/>
  <path class="st0" d="M1300.99,953.97c6.25,6.1,12.05,11.77,18.5,18.08-7.54,7.91-14.33,15.02-21.77,22.83-9.17-3.61-18.53-7.29-29.95-11.79,12.02-10.54,22.39-19.63,33.22-29.13Z"/>
  <path class="st0" d="M1364.92,1120.19c-.2-2.66-.53-5.55-.59-8.44-.1-4.89-.03-9.78-.03-15.87h32.26c3.43,7.9,7.34,16.9,11.27,25.96-7.66,2.54-30.11,1.59-42.91-1.66Z"/>
  <path class="st0" d="M1369.97,928.62v24.4h-31.31c-3.55-8.09-7.48-17.02-11.48-26.14,8.41-2.04,30-1.04,42.79,1.74Z"/>
  <path class="st0" d="M1270.27,1021.87h25.86v31.55c-7.83,3.42-16.82,7.35-27.26,11.92-1.67-15.31,1.99-28.75,1.4-43.47Z"/>
  <path class="st0" d="M1375.57,951.58v-23.93h24.04c-1.29,8.86-5.55,15.92-9.26,23.05-1.96,3.77-6.03,3.65-14.79.88Z"/>
  <path class="st0" d="M1296.22,1016.41h-25.65v-24.64c8.5,2.28,15.7,6.1,22.93,9.7,1.36.68,2.38,3.07,2.6,4.79.41,3.18.12,6.45.12,10.15Z"/>
  <path class="st0" d="M1464.43,1031.97v24.43c-8.92-1.17-15.92-5.63-23.19-9.13-3.26-1.57-3.2-4.85-1.33-14.54,7.54-1.96,15.38-.38,24.52-.76Z"/>
  <path class="st0" d="M1293.77,1086.71c-6.09-6.15-11.33-11.44-17.35-17.52,7.48-2.96,14.68-6,22.04-8.58,1.51-.53,3.81.27,5.41,1.11,2.94,1.55,5.61,3.6,8.49,5.5-6.02,9.15-12.1,14.44-18.59,19.49Z"/>
  <path class="st0" d="M1440.55,962.08c6.71,6.49,12.11,11.72,18.47,17.87-7.84,2.95-15.14,5.88-22.59,8.34-1.51.5-4-.26-5.34-1.31-2.55-2-4.6-4.64-7.37-7.56,6-6.19,11.62-11.98,16.83-17.34Z"/>
  <path class="st0" d="M1412.97,1080.37c6.03,6.08,11.56,11.65,18.1,18.25-5.94,5.96-11.42,11.45-18.3,18.35-3.42-8.88-6.48-16.35-9.06-23.98-.49-1.44.5-3.91,1.6-5.26,2.04-2.51,4.66-4.55,7.66-7.36Z"/>
  <path class="st0" d="M1304.06,950.79c6.56-6.68,11.77-11.99,17.61-17.94,5.25,7.72,7.23,15.71,9.97,23.29.49,1.36-.72,3.82-1.85,5.17-2.05,2.45-4.64,4.46-6.91,6.55-6.35-5.76-12.13-11.01-18.82-17.08Z"/>
  <path class="st0" d="M1359.58,1121.47h-24.4c1.71-4.73,3-8.9,4.71-12.89,1.68-3.94,2.85-9.1,5.94-11.15,3.3-2.18,8.59-1.33,13.75-1.89v25.92Z"/>
</svg>