<?xml version="1.0" encoding="UTF-8"?>
<svg id="Layer_0_xA0_Image" xmlns="http://www.w3.org/2000/svg" version="1.1" viewBox="0 0 2048 2732">
  <!-- Generator: Adobe Illustrator 30.2.1, SVG Export Plug-In . SVG Version: 2.1.1 Build 1)  -->
  <defs>
    <style>
      .st0 {
        fill: #747061;
      }
    </style>
  </defs>
  <path class="st0" d="M811.82,403.69c4.53,1.01,8.72,1.84,12.85,2.89,14.84,3.79,29.64,7.75,44.51,11.44,3.73.92,7.66,1.06,12.71,1.72,1.24,1.7,3.26,4.31,5.1,7.04,23.9,35.33,47.66,70.76,71.77,105.94,4.13,6.02,6.52,12.27,7.27,19.32,3.34,31.47,6.68,62.94,9.94,94.42,2.26,21.87,4.33,43.77,6.65,65.63.38,3.56,1.64,7.03,2.21,9.34-3.17,8.32-6.28,15.65-8.79,23.17-9.49,28.43-18.78,56.93-28.18,85.39-.93,2.82-2.05,5.57-2.81,7.61-5.89,2.47-11.15,4.41-16.17,6.84-17.39,8.41-34.41,17.68-52.16,25.25-10.84,4.62-15.25,11.65-14.6,24.08,80.31,25.64,161.07,51.41,242.44,77.39,1.19-3.04,2.38-5.34,3.01-7.77,8.56-32.87,17.12-65.74,25.45-98.67.86-3.4.94-7.32.2-10.75-19.97-93.13-40.09-186.22-60.19-279.32-3.41-15.81,1.08-31.04,3.63-46.38.24-1.44,2.55-3.43,4.09-3.63,11.16-1.39,22.38-2.39,33.96-3.54,1.54,4.63,2.83,8.33,4.02,12.07,19.61,61.56,39.27,123.1,58.68,184.73,1.65,5.24,2.26,11.07,2.07,16.58-1.78,51.96-3.79,103.91-5.82,155.86-1.62,41.63-3.38,83.25-5,124.88-.24,6.19-.03,12.4-.03,19.93-2.87-.79-6.24-1.53-9.47-2.65-72.71-25.13-145.41-50.3-218.1-75.48-37.13-12.86-74.21-25.88-111.43-38.5-6.01-2.04-9.08-4.73-10.29-11.36-2.14-11.76-5.74-23.26-8.67-34.89-.56-2.21-.81-4.5-1.29-7.31,3.08-2.11,6.01-4.23,9.04-6.17,31.69-20.33,63.3-40.8,95.2-60.8,6.02-3.77,8.57-7.78,8.84-15.01,2.27-60.61,4.93-121.21,7.64-181.8.28-6.25-1.22-11.32-4.67-16.65-21.56-33.28-43.1-66.58-63.74-100.43-4.63-7.59-10.28-12.5-17.59-16.58-10.18-5.68-19.93-12.17-30.32-17.44-8.9-4.51-15.04-10.7-17.39-21.4,4.78-7.75,9.97-16.17,15.42-25.02Z"/>
  <path class="st0" d="M518.24,1109.82c-1.35.1-3.53.27-4.71.36-2.64-6.16-4.5-11.74-7.29-16.81-22.01-39.96-44.28-79.77-66.22-119.78-3.18-5.8-7.02-10.19-13.03-13.02-3.97-1.87-8.91-3.32-7.35-9.96.34-1.44-2.46-3.72-3.96-5.49-87.26-102.46-174.55-204.91-261.81-307.37-2.09-2.45-3.97-5.09-5.4-6.93,4.62-3.61,8.99-6.15,12.23-9.72,8.96-9.86,17.56-20.05,26.03-30.33,2.44-2.95,3.77-6.79,5.97-9.98,1.42-2.05,3.16-4.47,5.32-5.34,27.46-11.11,55.02-22,82.58-32.87,1.77-.7,3.78-.8,5.25-1.09,19.94,41.54,39.64,82.59,59.36,123.63,38.79,80.73,77.54,161.47,116.51,242.12,3.14,6.51,7.35,12.63,11.85,18.32,8.06,10.18,16.35,20.23,25.18,29.74,15.54,16.73,27.78,35.62,38.8,55.49,2.19,3.95,1.14,7.02.31,10.4-6.02,24.57-12.27,49.08-18.2,73.67-1.04,4.31-.88,8.92-1.41,14.95Z"/>
  <path class="st0" d="M1240.18,2579.85c-7.75,7.12-14.08,14.74-22.08,20.01-2.64-6.48-4.7-12.56-7.51-18.26-169.87-344.87-339.78-689.71-509.83-1034.49-2.92-5.92-2.51-10.28-.12-16.54,4.63-12.16,12.33-19.65,24.34-23.71,4.7-1.59,8.96-4.41,13.56-6.37,2.94-1.25,6.12-1.95,10.13-3.19,163.91,361.01,327.48,721.27,491.51,1082.56Z"/>
  <path class="st0" d="M1266.91,1466c-5.09-3.29-9.5-6.57-14.29-9.17-18.73-10.16-37.59-20.1-56.38-30.16-2.9-1.55-5.71-3.26-8.79-5.03,3.83-10.2,7.49-19.94,11.43-30.42-16.72-3.23-32.97-.82-49.63-6.43,6.82-16.75,15.67-31.85,23.22-49.68-6.24,1.81-10.82,3.43-15.53,4.45-14.03,3.02-25.68,10.13-36.74,19.12-20.16,16.38-40.93,32.03-61.48,47.93-3.11,2.41-6.43,4.56-9.28,6.57-5.59-2.61-5.91-6.74-5.64-11.31.88-14.96,1.57-29.94,2.41-44.91,1.6-28.6,3.34-57.2,4.8-85.81.43-8.36,3.46-15.19,8.76-21.66,19.42-23.71,38.5-47.7,57.67-71.62,4.56-5.69,8.97-11.5,13.83-17.75,12.52.87,25.5,1.44,38.38,2.86,3.64.4,7.65,2.55,10.39,5.08,23.5,21.7,46.79,43.62,70,65.63,2.32,2.2,4.26,5.16,5.42,8.14,17.38,44.68,34.64,89.41,51.72,134.2.94,2.48,1.07,6.07-.02,8.39-12.5,26.5-25.31,52.86-38.09,79.22-.52,1.08-1.67,1.85-2.14,2.35Z"/>
  <path class="st0" d="M1131.85,1375.09v32.86c13.62-2.86,26.43-3.31,39.39-9.74.64,2.38,2.02,4.69,1.65,6.67-1.42,7.71-3.39,15.31-5.28,23.46,25.29,15.65,49.81,30.82,74.27,45.96-2.85,6.36-6.63,6.17-11.26,4.66-16.14-5.27-32.35-10.34-48.55-15.45-2.8-.88-5.65-1.59-9.76-1.03,5.87,7.6,11.75,15.2,18.26,23.62-5.16,2.88-10.21,5.71-16.5,9.22,58.94,48.95,117.28,97.39,175.99,146.15-1.32,2.79-2.4,5.07-4.11,8.67-54.14-34.79-107.72-69.21-161.3-103.64-.49.51-.98,1.03-1.48,1.54,38.55,49.05,77.1,98.09,115.84,147.37-4.96,5.84-10.3,9.04-16.79,11.23-17.35,5.86-34.49,12.32-51.73,18.51-2.77,1-5.61,1.8-9.8,3.13,1.34-7.58-2.8-12.23-6.14-17.28-36.34-55.07-72.65-110.16-108.99-165.23-1.97-2.98-4.05-5.9-6.72-9.77-10.04,14.54-19.43,28.14-28.39,41.11-10.68-9.13-20.27-17.71-30.3-25.75-4.79-3.84-7.29-8.15-7.71-14.29-1.44-20.94-3.08-41.87-4.93-62.78-.45-5.09.68-8.75,4.64-12.25,30.97-27.36,61.77-54.93,92.65-82.39,1.43-1.27,3.23-2.12,7.02-4.55Z"/>
  <path class="st0" d="M904.09,889.05c4.26-2.36,8.48-4.8,12.78-7.08,23.27-12.29,46.48-24.71,69.92-36.68,5.36-2.74,7.85-6.25,8.53-12.09,4.11-35.41,7.54-70.93,13.04-106.13,3.31-21.2-2.22-40.98-5.31-61.17-6.26-40.82-13.44-81.5-20.2-122.24-1.26-7.62-.28-9.25,7.98-10.26,15.54-1.9,31.14-3.34,46.71-4.91,3.85-.39,8.86-2.11,11.27-.37,2.26,1.63,1.86,7.04,2.51,10.8,16.76,97.49,33.46,194.99,50.33,292.45,1.45,8.4,1.07,17.26,5.94,24.99.94,1.5.16,4.52-.57,6.58-8.61,24.16-17.29,48.29-26.12,72.36-2.77,7.56-4.73,8.24-14.12,5.45-28.41-8.45-56.8-16.98-85.18-25.52-22.64-6.81-45.27-13.67-67.89-20.54-3.12-.95-6.19-2.1-9.28-3.16-.11-.83-.22-1.67-.33-2.5Z"/>
  <path class="st0" d="M1116.44,165.01c-3.21,2.27-5.85,4.25-8.6,6.07-52.17,34.69-104.4,69.28-156.45,104.14-6.02,4.03-11.36,5.3-18.55,3.32-21.83-6.01-43.88-11.2-65.83-16.77-9.46-2.4-9.89-3.24-8.25-13.23,5.64-34.51,12.09-68.93,16.4-103.6,1.37-11.06,5.76-16.81,14.4-22.32,25.84-16.48,51.3-33.58,76.72-50.71,4.46-3.01,8.75-4.1,13.98-3.55,19.22,2.01,38.47,3.65,57.68,5.76,3.05.33,6.42,1.76,8.78,3.71,20.02,16.56,39.88,33.31,59.67,50.16,1.61,1.37,2.81,3.71,3.3,5.8,2.35,10.04,4.39,20.14,6.75,31.22Z"/>
  <path class="st0" d="M571.43,1393.61c1.13-1.92,2.93-5.27,5.01-8.43,5.23-7.96,12.1-14.96,14.6-25.58,23.56-3.75,47.48-7.56,71.41-11.38-20.16-10.24-41.5-16.63-62.93-24.86,0-10.85-.09-21.48.07-32.11.03-2.21.4-4.81,1.61-6.54,11.05-15.78,22.33-31.42,33.37-46.87,32.16,14.14,63.74,28.02,95.75,42.09.88,11.46.61,22.94,2.91,33.89,2.73,12.97,1.1,24.91-3.96,36.62-3.15,7.28-2.39,13.79.48,21.03,7.59,19.2,14.38,38.71,21.69,58.02,1.47,3.88,3.86,7.42,6.49,12.37-7.56,15.38-15.82,31.81-24.88,48.95-3.5-4.01-5.58-7.01-8.26-9.33-8.33-7.22-14.54-15.35-13.78-27.16.08-1.2-.81-2.47-1.81-5.26-4.35,6.74-8.08,12.48-11.77,18.26-3.76,5.9-7.34,11.92-11.25,17.72-2.12,3.14-2.28,5.87-.39,9.2,3.29,5.79,6.33,11.73,9.25,17.71,3.56,7.3,1.33,11.44-6.67,12.23-12.93,1.28-25.9,2.17-38.82,3.56-4.44.48-8.77,1.99-14.29,3.3-.83-1.05-2.58-2.95-3.96-5.1-7.2-11.22-14.31-22.49-21.42-33.76-2.08-3.3-5-6.49-1.39-10.64.5-.58.23-1.94.12-2.92-1.48-12.91-2.89-25.82-4.62-38.69-.29-2.17-1.84-4.24-3.07-6.19-6.55-10.44-12.99-20.97-19.9-31.17-2.09-3.09-5.55-5.26-9.62-8.98Z"/>
  <path class="st0" d="M1203.58,1782.35c3.1-6.04,7.34-7.59,12.78-7.68,17.32-.31,34.64-.81,51.95-1.55,3.51-.15,7.32-.97,10.39-2.6,22.35-11.88,44.56-24.03,66.79-36.14,1.67-.91,3.16-2.16,5.4-3.71-8.62-9.95-16.86-19.49-25.14-29.01-8.52-9.81-17.12-19.55-25.6-29.4-8.15-9.47-16.71-18.62-24.38-28.48.5-.74,1.01-1.48,1.51-2.22,6.26,2.05,12.96,3.27,18.7,6.31,26.49,14.02,52.71,28.56,79.03,42.9,3.19,1.74,6.44,3.37,10.85,5.66-.51-3.18-.58-5.33-1.21-7.31-4.14-13.01-9.18-25.78-12.48-38.99-9.87-39.44-25.02-77.11-37.67-115.62-1.25-3.8-2.45-7.62-4.3-13.35,3.63,1.46,5.11,1.89,6.43,2.61,25.42,13.89,50.67,28.11,76.36,41.5,4.97,2.59,7.62,5.3,9.27,10.41,11.05,34.21,22.37,68.34,33.59,102.5,4.16,12.65,8,25.42,12.52,37.94,2.31,6.41,1.99,12.13-.54,18.34-9.07,22.19-17.94,44.46-26.62,66.81-1.41,3.63-1.43,7.79-2.28,12.82-1.32.08-3.85.48-6.36.35-46.25-2.32-92.5-4.73-138.75-6.99-3.86-.19-7.77.65-11.66.83-1.94.09-4.03.16-5.82-.43-23.07-7.64-46.1-15.39-69.12-23.17-1.16-.39-2.14-1.34-3.66-2.32Z"/>
  <path class="st0" d="M1276.41,2319.71c-10.09-8.72-19.61-16.96-30.22-26.14,6.67-5.65,13.11-11.11,20.47-17.35-9.95-9.56-21.34-16.98-31.43-26.45,7.95-10.72,15.7-20.98,23.23-31.41,2.64-3.65,6.5-6.76,5.72-12.23-.18-1.27,1.28-3,2.34-4.2,20.49-23.24,41.03-46.44,61.59-69.61.62-.7,1.62-1.06,2.84-1.82,4.52,2.59,4.04,7.35,4.46,11.31,2.38,22.52,4.49,45.07,6.66,67.61.77,7.95,2.84,16.08,1.92,23.84-1.63,13.76.95,27.12,1.48,40.66.18,4.5,2.01,7.34,5.49,9.9,21.2,15.59,42.24,31.4,63.5,46.91,3.14,2.29,7.03,3.73,10.75,5.03,36.76,12.87,73.56,25.61,110.34,38.43,3.65,1.27,7.23,2.77,12.61,4.84-3.35,2.37-4.89,4.03-6.78,4.7-21.03,7.43-42.11,14.72-63.2,21.98-1.85.64-3.98,1.42-5.77,1.07-35.36-6.89-71.38-7.02-107.06-10.63-34.12-3.45-68.36-5.83-102.54-8.74-3.53-.3-7.04-1-9.95-1.42,7.9-22.23,15.52-43.69,23.54-66.27Z"/>
  <path class="st0" d="M1236.98,1841.96c2.33-3.31,3.42-5.33,4.98-6.9,1.12-1.13,2.85-1.66,4.32-2.45,29.1-15.66,29.08-15.52,66.32-10.1,41.5,6.03,83.06,11.73,124.56,17.72,3.68.53,7.2,2.21,11.66,3.63-1.8,4.72-3.05,8.09-4.36,11.43-19.65,50.21-39.23,100.44-59.04,150.59-2.92,7.39-6.61,14.52-10.47,21.47-7.27,13.1-15.3,25.78-22.33,39-7.13,13.4-16.28,24.88-27.41,35.19-18.81,17.43-36.98,35.54-55.47,53.31-2.21,2.12-4.7,3.95-8.53,7.14-1.86-15.99-2.73-29.87-5.29-43.43-2.15-11.39.25-20.57,7.43-29.41,5.2-6.39,9.29-13.69,14.15-20.98-3.63-5.2-7.09-10.03-10.41-14.97-4.78-7.1-4.7-8.49,1.59-14.38,20.44-19.11,40.94-38.15,61.47-57.15,1.94-1.79,4.28-3.14,7.58-5.52-18.26-14.8-34.91-28.29-52.63-42.65,16.83-17.22,33.21-33.97,50.77-51.94-33.41-13.39-65.33-26.18-98.88-39.62Z"/>
  <path class="st0" d="M897.24,2114.22c3.95,11.3,2.71,21.16,5.67,31.47,9.71-.68,19.72-.54,30.36-5.63,8.92,19.54,17.84,39.08,27.06,59.28-4.27,3.42-8.56,6.86-12.74,10.21,8.18,18.23,1.36,35.77-.67,53.23-4.94,42.31-11.43,84.44-15.67,126.81-2.68,26.79-2.42,53.88-3.53,80.83-.3,7.29-.81,14.58-1.27,22.65-6.83,2.1-13.35,4.44-20.03,6.08-21.74,5.35-41.53,16-62.71,22.85-3.97,1.28-7.86,4.15-13.23.34,1.5-2.69,2.88-5.55,4.61-8.19,4.56-6.96,9.09-13.96,13.99-20.68,2.67-3.66,3.13-6.85,1.07-10.99-2.8-5.61-4.96-11.55-7.91-18.58,18.33-11.09,37.37-20.36,55.89-31.18-3.2-10.19-6.3-19.64-9.09-29.19-1.02-3.48-3.48-4.51-6.46-5.36-9.26-2.62-18.5-5.31-27.26-7.83-2.38-13.14-4.62-25.47-7.07-38.98,12.25-9.03,25.31-18.65,39.19-28.88-7.23-24.55-14.43-49.03-22.13-75.2-11.96,10.07-23,19.37-34.9,29.39-4.4-.87-10.66.54-16.1-4.09.71-3.12,1.42-6.25,2.33-10.25-7.2-4.25-14.54-8.58-22.48-13.26,3.98-5.12,8.36-7.58,13.58-8.96,7.72-2.04,15.36-4.38,23.1-6.34,4.41-1.12,6.47-3.48,7.34-8.11,2.85-15.04,6.18-29.98,9.47-44.93.63-2.87,1.22-6.13,2.95-8.32,14.82-18.79,29.9-37.37,46.65-58.2Z"/>
  <path class="st0" d="M633.01,570.98c2.82-4.21,4.51-6.98,6.44-9.57,22.52-30.16,45.15-60.23,67.54-90.48,3.56-4.81,7.59-7.78,13.48-9.27,19.35-4.92,38.63-10.14,57.8-15.73,6.35-1.85,11.56-1.04,16.94,2.52,11.38,7.54,22.98,14.75,34.43,22.19,1.91,1.24,3.99,2.65,5.18,4.5,7.01,10.86,12.96,22.51,20.84,32.67,10.27,13.22,14.43,27.35,15.03,44.1,1.25,34.92,4.52,69.78,6.85,104.67.33,4.88.05,9.79.05,16.34-4.13-2.84-7.2-4.96-10.28-7.07-18.13-12.42-36.27-24.85-54.41-37.26-13.74-9.41-27.62-18.61-41.17-28.29-6.14-4.38-12.65-6.9-20.04-8.13-36.12-6.01-72.19-12.25-108.27-18.47-2.89-.5-5.7-1.48-10.41-2.73Z"/>
  <path class="st0" d="M1094.57,1080.44c-.41,8.67-.67,16.59-1.19,24.49-.54,8.31-2.11,16.63-1.77,24.89.28,6.76-2.4,11.07-6.71,15.6-14.69,15.45-29.12,31.15-43.51,46.88-2.23,2.44-3.74,5.55-6,8.99-69.15-40.28-136.06-79.26-203.46-118.51,1.1-3.46,1.84-6.28,2.89-8.99,5.8-14.89,11.72-29.73,17.49-44.63,2.6-6.72,4.96-13.54,7.82-21.39,77.49,24.02,155.53,48.2,234.44,72.66Z"/>
  <path class="st0" d="M1187.29,1004.04c1.51-22.04,3.05-41.48,4.13-60.95,3.08-55.55,5.94-111.12,8.95-166.68.88-16.3,2.21-32.58,2.83-48.89.18-4.81-.57-9.99-2.28-14.47-24.06-63.17-48.36-126.24-72.59-189.35-.59-1.53-1.06-3.1-1.86-5.49,3.82-2.93,7.65-5.85,12.64-9.67,3.55,6.77,6.88,12.42,9.56,18.36,23.83,52.82,47.52,105.7,71.37,158.51,1.73,3.83,4.68,7.1,6.45,10.92,1.17,2.51,1.81,5.55,1.7,8.32-.78,18.64-1.78,37.27-2.81,55.9-2.49,44.91-5.05,89.81-7.57,134.72-.35,6.23-.67,12.45-.16,19.11,7.74-8.65,14.58-17.83,20.49-27.63,1.24-2.05.93-5.18.94-7.81.5-73.31,1.02-146.62,1.25-219.93.01-4.74-1.62-9.84-3.72-14.17-21.57-44.32-43.4-88.52-65.13-132.76-3.5-7.13-6.89-14.31-10.51-21.85,4.66-4.88,9.17-9.61,14.29-14.98,1.44,1.64,3.2,3.03,4.17,4.85,26.85,50.23,53.65,100.48,80.34,150.8,1.34,2.52,2.06,5.62,2.19,8.48,3.72,81.21,7.32,162.43,10.95,243.64.16,3.61.45,6.8-2.15,10.26-25.41,33.83-50.52,67.89-75.77,101.84-2.04,2.75-4.47,5.2-7.7,8.92Z"/>
  <path class="st0" d="M747.26,2025.6c54.23,14.87,107.32,29.43,161.81,44.38-3.72,4.38-6.42,7.56-9.49,11.17,2.17,2.86,4.31,5.68,7.18,9.45-1.97,2.64-3.92,5.57-6.18,8.24-18.29,21.62-36.49,43.3-55.06,64.67-4.16,4.78-6.36,9.88-7.37,15.93-2.03,12.15-4.35,24.24-6.52,36.36-.79,4.42-1.91,8.02-7.35,9.3-23.33,5.46-46.56,11.34-69.84,17.02-1.25.31-2.6.19-3.26.23-7.68-11.38-15.03-22.28-22.08-32.73,1.99-4.28,4.13-7.97,5.48-11.92,6.57-19.21,12.84-38.52,19.44-57.72,1.57-4.58,1.88-8.7.55-13.52-5.84-21.17-11.09-42.51-16.86-63.7-1.3-4.77-1.18-9.01.64-13.53,2.97-7.37,5.62-14.87,8.89-23.62Z"/>
  <path class="st0" d="M1178.42,388.28c-19.53,41.92-38.03,81.64-57.18,122.76-5.68.66-12.87,1.6-20.07,2.31-35.47,3.52-70.95,6.84-106.39,10.57-7.33.77-12.36-.99-17.2-6.93-19.35-23.77-39.26-47.09-58.91-70.62-2.03-2.43-3.7-5.16-6.53-9.16,4.91-1.46,8.15-2.76,11.52-3.36,80.93-14.59,161.88-29.1,242.83-43.62,3.41-.61,6.83-1.11,11.94-1.94Z"/>
  <path class="st0" d="M1190.51,1988.93c17.05,13.31,31.08,28.32,51.07,37.44-2.43,2.76-5.35,6.08-9.12,10.36,4.18,7.31,8.27,15.2,13.07,22.63,4.11,6.36,5.02,11.99,1.81,19.41-7.13,16.48-12.87,33.56-19.63,50.21-2.25,5.54-2.08,9.81,1.57,14.71,6.13,8.23,11.58,16.96,17.51,25.78-12,16.67-23.63,32.83-35.49,49.3,1.51,2.49,2.73,4.8,4.23,6.9,7.27,10.2,5.41,8.55-.1,17.28-2.46,3.9-5.03,7.73-8,12.27,11.68,8.55,20.78,19.31,33.96,25.79-.19,3.17-1.67,4.56-5.42,4.92-6.15.59-12.23,2.03-19.67,3.34,2.42,3.34,3.76,5.47,5.37,7.37,8.21,9.64,16.32,19.36,24.81,28.74,3.88,4.28,4.51,8.28,2.35,13.59-5.64,13.84-10.85,27.85-16.63,42.83-9.74-.7-19.59-1.36-29.43-2.12-8.3-.64-16.6-1.31-24.88-2.14-9.4-.94-10.33-1.91-9.59-11.09,2.08-25.55,4.34-51.09,6.53-76.64,3.06-35.83,6.87-71.62,8.85-107.51.97-17.51-1.36-35.22-2.4-52.83-1.65-27.92-3.47-55.84-5.22-83.76-.67-10.64-1.18-21.29-2.11-31.9-.43-4.92-.07-8.5,4.65-11.86,4.73-3.36,8.06-8.68,11.89-13.01Z"/>
  <path class="st0" d="M900.4,1795.52c-.8-.08-3-.29-4.24-.41-2.35-6.72-3.93-13-6.65-18.73-27.03-57.18-54.25-114.26-81.38-171.39-1.64-3.45-2.98-7.03-5.35-12.66,5.38.69,8.51.92,11.57,1.52,27.75,5.5,55.52,10.86,83.18,16.78,6.01,1.29,10.88.37,16.21-2.15,32.81-15.49,65.71-30.78,98.6-46.1,3.26-1.52,6.61-2.83,10.05-4.29,3.36,4.41,1.74,7.9-.24,11.46-5.49,9.9-10.91,19.83-16.38,29.75-32.95,59.77-65.95,119.5-98.76,179.34-2.72,4.96-4.2,10.61-6.61,16.87Z"/>
  <path class="st0" d="M538.48,1037.7c7.68-7.13,16.17-15.01,25.29-23.47,4.34,4.34,9.03,8.97,13.65,13.67,7.93,8.08,16.01,16.03,23.63,24.4,3.74,4.1,7.68,5.33,13.15,5.01,44.54-2.64,89.09-5.01,133.64-7.41,3.57-.19,7.15-.03,11.64-.03v118.33c-3.75-1.01-7.19-1.8-10.55-2.86-50.75-16.07-101.54-32.03-152.19-48.43-8.4-2.72-15.7-3.15-23.83.84-10.44,5.12-21.43,9.11-32.21,13.53-3.01,1.23-6.12,2.24-11.21,4.08.84-5.02.87-8.53,2.04-11.6,2.86-7.45,5.88-14.89,9.55-21.96,3.23-6.23,3.93-12.4,2.97-19.22-1.98-14.12-3.55-28.29-5.58-44.87Z"/>
  <path class="st0" d="M1006.11,1395.93c.35,1.28,1.29,3.42,1.48,5.62,1.44,16.91,2.8,33.82,4.05,50.75.77,10.39-1.64,13.04-12.02,13.79-66.05,4.79-132.09,9.58-198.14,14.38-7.25.53-14.49,1.09-19.95,1.51-6.27-8.87-11.83-16.22-16.78-23.95-2.04-3.18-4.07-7.25-3.9-10.81.83-17.6,2.4-35.16,3.8-53.95,4.26-.17,8.41-.58,12.54-.48,71.54,1.78,143.07,3.67,214.62,5.36,4.25.1,8.53-1.28,14.3-2.22Z"/>
  <path class="st0" d="M649.99,961.52c6.71-11.49,12.68-21.7,19.32-33.08,30.62,7.13,62.26,14.49,95.21,22.16-.4,8.69-.66,17.21-1.2,25.71-1.23,19.56-2.63,39.11-3.88,58.66-.23,3.58-1.2,5.51-5.42,4.56-17.15-3.88-34.46-7.11-51.48-11.48-14.3-3.67-27.96-3.14-42.04,1.17-13.01,3.99-26.46,6.57-39.73,9.71-2.86.68-5.79,1.09-8.9,1.67-3.32-5.1-6.88-9.56-9.33-14.56-5.03-10.24-13.04-16.17-23.8-19.36-6.31-1.86-12.28-4.86-18.3-7.3,2.11-13.4-1.62-25.57-4.56-37.55-1.47-5.99-.46-9.89,2.23-14.75,7.42-13.38,14.41-27,21.46-40.59,1.33-2.57,2.13-5.42,3.35-8.59,7.22,3.39,11.57,9.88,17.11,14.91,5.67,5.14,10.99,10.67,16.46,16.02,5.23,5.12,10.46,10.25,15.7,15.37,5.47,5.33,10.95,10.65,17.79,17.3Z"/>
  <path class="st0" d="M1182.38,1824.95c39.82,20.71,77.68,41.13,115.38,61.18-11.22,16.09-21.79,31.24-32.81,47.06,17.97,13.75,35.35,27.05,53.5,40.93-1.59,1.85-3.01,3.97-4.86,5.59-11.27,9.88-22.73,19.55-33.92,29.52-3.8,3.39-6.98,7.46-11.29,12.13-26.52-15.35-53.76-31.13-81.27-47.06-7.02,6.87-13.63,13.35-20.99,20.54-2.66-2.36-5.18-3.94-6.81-6.17-8.05-11.01-15.87-22.19-24.37-34.15,1.99-2.46,3.87-5.06,6.04-7.41,14.44-15.68,28.82-31.42,43.5-46.88,4.02-4.24,5.42-8.25,4.48-14.23-2.64-16.76-4.49-33.65-6.52-50.51-.34-2.79-.05-5.65-.05-10.54Z"/>
  <path class="st0" d="M869.41,683.27c-3.65,3.46-7.34,5.97-9.71,9.4-6.76,9.8-12.98,19.98-20.37,31.49-80.32-23.38-161.75-47.63-244.15-71.95,1.41-2.9,2.15-4.97,3.32-6.75,11.75-17.79,23.65-35.48,35.29-53.34,2.23-3.42,3.49-7.46,5.31-11.45,7.6.92,224.71,97.67,230.31,102.6Z"/>
  <path class="st0" d="M944.69,412.83c.91-3.24,1.58-6.56,2.78-9.68,1.17-3.05,2.88-5.89,3.27-10.17-5.77,3.95-11.36,8.21-17.36,11.78-5.91,3.51-10.26,10.83-19.31,8.72-.97-8.7,6.85-14.3,7.26-22.49-14.5,4.01-24.97,16.89-42.95,17.42,4.38-7.19,7.71-12.67,11.05-18.15-.27-.46-.55-.91-.82-1.37-5.96,2.55-11.85,5.3-17.9,7.61-5.64,2.16-10.71,6.61-17.65,5.62-1.53-6.68,4.97-8.8,6.19-14.15-8.16-1.59-15.22,6.07-24.9,3.8,12.65-15.81,13.9-33.89,16.6-50.74,1.91-.5,2.62-.95,3.14-.78,22.52,7.26,45.17,4.08,67.83.96,30.01-4.13,58.14-13.89,84.77-28.18,4.55-2.44,9.35-4.44,16.4-7.76-1.43,7.46-1.58,12.86-3.53,17.5-4.11,9.77-1.33,16.73,6.05,23.69,8.56,8.08,17.83,10.85,26.1,3.02,9.71-9.18,21.98-9.78,33.2-13.93,6.13-2.27,12.47-3.95,20.75-6.54,6.21,4.53,14.71,9.87,22.05,16.48,3.23,2.91,3.89,8.55,6.13,12.72,3.23,6-1.92,8.9-4.08,13.13-3.58,7-9.41,9.02-16.57,10.76-10.58,2.57-20.73,6.89-31.11,10.29-3.37,1.1-6.91,1.66-11.91,2.82.61-5.48,1.06-9.54,1.52-13.67-16.16,3.59-29.82,12.01-43.83,19.71-3.89,2.14-8.16,3.61-13.68,6,.43-9.83,7.67-14.71,9.5-23.4-15.38,7.88-29.67,15.19-44.96,23.03v-10.07c-.77.07-1.79-.12-2.45.28-7.39,4.51-14.69,9.18-22.1,13.66-2.37,1.43-4.99,2.44-7.5,3.64-.66-.52-1.31-1.03-1.97-1.55Z"/>
  <path class="st0" d="M1005.83,1323.93v59.47c-3.52.26-6.68.75-9.83.7-51.61-.92-103.21-1.9-154.81-2.88-24.64-.47-49.27-.97-73.91-1.43-3.29-.06-6.58,0-10.37,0-4.28-9.51-8.89-18.38-12.2-27.71-1.45-4.09-.72-9.18-.14-13.71.67-5.25,2.23-10.4,3.47-15.57,2.03-8.45,2.77-9.2,11.52-8.91,24.63.81,49.25,1.75,73.87,2.73,46.58,1.85,93.15,3.73,139.73,5.66,10.58.44,21.15,1.08,32.68,1.67Z"/>
  <path class="st0" d="M533.02,876.67c20.63-24.54,40.03-47.62,60-71.36,60.38,19.8,120.59,39.54,181.45,59.49-1.24,3.22-1.83,5.4-2.87,7.35-8.95,16.72-17.94,33.43-27.01,50.09-4.71,8.65-5.53,8.98-14.94,6.5-60.13-15.89-120.26-31.81-180.39-47.72-5.03-1.33-10.04-2.68-16.24-4.34Z"/>
  <path class="st0" d="M552.58,1149.31c17.34-7.25,34.47-14.41,50.33-21.04,5.53,2.82,9.7,5.43,14.21,7.16,41.04,15.74,82.12,31.39,123.25,46.88,4.35,1.64,9.13,2.14,14.91,3.44-7.31,26.63-15.99,53.58-24.75,82.38-32.25-18.75-62.91-36.58-94.21-54.77-16.17,14.55-32.12,28.9-48.04,43.22-12.01-36.08-23.6-70.92-35.71-107.27Z"/>
  <path class="st0" d="M756.28,1266.31c4.62-5.55,8.73-9.9,12.15-14.75,3.01-4.27,6.35-5.82,11.69-5.44,33.2,2.36,66.42,4.34,99.64,6.48,38.2,2.46,76.39,4.96,114.58,7.45,2.99.19,6.01.17,8.95.66,3.16.53,5.67,2.14,5.61,5.88-.24,15.21-.52,30.43-.8,46.82-82.44-2.21-163.81-4.39-246.27-6.6-1.92-13.98-3.75-27.36-5.56-40.5Z"/>
  <path class="st0" d="M1060.32,1605.01c.24,1.5.91,3.08.66,4.5-21.9,126-43.87,251.98-65.83,377.96-.86.16-1.73.31-2.59.47-1.63-2.63-3.44-5.16-4.87-7.89-11.88-22.7-23.61-45.49-35.61-68.13-1.9-3.58-4.89-6.57-8.28-11.02.06-.65-.26-3.14.53-5.2,36.09-94.44,72.27-188.85,108.56-283.22,1.13-2.94,3.66-5.34,5.54-8,.63.17,1.26.35,1.9.52Z"/>
  <path class="st0" d="M828.04,311.37c-13.15-23.22-27.38-46.24-40.21-70.03l1.78-1.76c3.22,1.81,6.43,3.66,9.68,5.41,12.6,6.8,25.54,13.05,37.76,20.47,18.47,11.2,38.24,17.54,59.45,21.69,20.61,4.04,40.54,6.05,61.02.47,8.97-2.44,18.23-3.94,27.45-5.25,5.57-.79,9.96-3.14,14.22-6.58,23.06-18.64,46.28-37.09,69.31-55.76,5.94-4.81,11.64-9.97,17.07-15.36,31-30.73,61.85-61.61,92.86-92.32,2.79-2.76,4.95-7.61,10.34-5.52.46.82,1.17,1.54,1.03,1.93-4.75,12.74-9.7,25.3-19.16,35.61-37.61,41-75.13,82.1-112.51,123.32-5.5,6.07-9.79,13.22-15.22,19.37-2.46,2.79-6.05,5.34-9.59,6.29-43.07,11.61-86.19,23.03-129.4,34.1-4.56,1.17-9.97.59-14.64-.57-15.83-3.92-31.49-8.53-47.25-12.74-4.11-1.1-8.36-1.68-14-2.78Z"/>
  <path class="st0" d="M1027.59,1203.64c-6.12,17.37-11.7,33.23-17.74,50.4-78.58-8.29-157.88-16.66-237.47-25.06,0-3.68-.35-6.32.06-8.84,1.87-11.5,3.88-22.98,5.97-34.45,1.57-8.61,3.41-10.02,12.13-9.07,18.21,1.99,36.4,4.14,54.6,6.21,38.72,4.41,77.44,8.79,116.15,13.2,21.45,2.44,42.9,4.92,66.3,7.6Z"/>
  <path class="st0" d="M802.46,794.64c-1.8,4.36-2.9,7.42-4.3,10.32-5.35,11.09-10.94,22.06-16.11,33.23-1.69,3.65-2.36,7.77-3.59,11.99-6.54.03-220.82-68.29-228.09-73.33,3.1-1.71,5.83-3.11,8.46-4.7,14.81-8.94,29.64-17.86,44.36-26.97,2.73-1.69,4.95-4.2,8.35-7.15,62.76,18.61,126.36,37.47,190.92,56.61Z"/>
  <path class="st0" d="M793.61,1573.89c-2.66-25.23-5.27-49.93-7.98-75.56.98-.27,3.06-1.32,5.16-1.35,24.99-.35,49.99-.45,74.98-.87,4.15-.07,6.76,1.58,9.38,4.47,6.72,7.4,13.81,14.46,20.52,21.87,2.81,3.1,5.75,4.44,9.67,2.81,9.8-4.08,21.83-2.23,29.35-12.65,6.34-8.79,14.16-16.51,22.95-26.55,15.38-1.73,33.47-3.77,52.74-5.94,1.06,7.17,2.08,13.6,2.94,20.06.87,6.6,1.64,13.22,2.35,19.85.9,8.36-.38,10.49-8.73,12.88-17.93,5.12-35.92,10-53.89,14.98-3.53.98-7.16,1.66-10.59,2.9-29.21,10.57-59.89,12.19-90.37,15.02-15.59,1.45-31.2,2.71-46.76,4.37-3.39.36-6.64,2.06-11.7,3.71Z"/>
  <path class="st0" d="M620.74,676.37c72.17,18.54,144.18,37.03,217.22,55.79-10.53,16.55-20.24,31.81-30.44,47.84-5.86.13-219.99-60-230.21-65.48,14.02-13.11,28.97-24.51,43.43-38.16Z"/>
  <path class="st0" d="M906.71,2640.66c7.52,6.69,14.76,11.04,24.36,12.1,16.85,1.85,33.58,4.86,50.31,7.68,3.85.65,9-.05,10.62,6.64-2.48.95-4.72,2.2-7.12,2.67-16.66,3.23-33.3,6.6-50.05,9.23-5.07.8-10.49-.43-15.72-1-25.8-2.82-51.6-5.72-77.39-8.63-2.96-.33-5.9-.94-7.48-1.2-7.33-9.54-13.69-18.4-20.75-26.66-2.42-2.83-3.42-5.27-3.23-8.8,1.48-26.92,2.8-53.86,4.32-80.78.18-3.19,1.26-6.33,2.08-10.25,3.02.72,5.3.89,7.24,1.79,12.67,5.91,25.27,11.93,37.85,18.03,2.05,1,4.17,2.22,5.72,3.84,16.97,17.84,33.83,35.77,51.45,54.45-3.98,6.8-7.93,13.56-12.21,20.88Z"/>
  <path class="st0" d="M744.26,1962.33c5.6-3.6,9.98-6.42,15.14-9.74-2.54-5.2-4.92-9.88-7.14-14.64-3.55-7.59-3.21-9.05,2.27-15.06,5.88-6.45,11.99-12.46,21.78-13.61.63-10.35,1.23-20.24,1.88-31.07,2.49.99,4.5,1.27,5.81,2.38,24.63,20.94,49.19,41.97,73.72,63.03,1.18,1.01,1.91,2.54,3.03,4.08-5.73,8.32-15.77,4.08-23.73,8.77,11.1,12.11,21.77,23.75,32.2,35.13-1.55,5.55-5.13,6.39-9.4,6.61-7.96.4-15.9,1.09-24.83,1.72,2.81,14.58,10.93,27.07,13.38,43.2-11.97-3.94-20.73-9.91-30.02-14.66-9.49-4.85-18.87-9.93-28.29-14.93-9.31-4.94-18.61-9.89-28.64-15.23-.02,9.35,8,15.7,5.51,25.48-2.65-1.22-4.53-1.71-5.95-2.81-7.65-5.91-15.29-11.83-22.72-18.01-6.43-5.35-6.31-9.39.18-14.35,6.01-4.59,12.17-8.99,18.96-13.99-4.6-4.3-8.38-7.84-13.14-12.28Z"/>
  <path class="st0" d="M941.29,2133.87c-9.81,1.31-19.92,2.66-31.54,4.21.24-4.34-.05-7.84.71-11.09,2.22-9.38,4.67-18.72,7.41-27.97,1.67-5.64,1.89-10.92-.39-16.48-2.77-6.75-3.34-15.3-7.95-20.13-4.58-4.8-13-5.92-19.72-8.69-2.39-.98-4.73-2.07-8.39-3.69,5.08-6.55,9.66-12.45,14.6-18.81-3.46-5.43-6.41-11.05-10.31-15.91-3.44-4.28-4.42-8.56-3.71-13.82,1.64-12.2,2.84-24.46,4.5-36.66.41-3.04,1.87-5.95,2.84-8.91l2.41-.27c1.83,3.33,3.81,6.58,5.45,9.99,32.32,67.17,64.38,134.46,97.09,201.44,5.42,11.09,8.34,21.86,7.81,34.16-.62,14.62.03,29.29.12,43.94.02,3.21,0,6.42,0,11.22-3.23-1.74-5.14-2.25-6.29-3.48-7.73-8.27-15.4-16.6-22.85-25.12-1.63-1.87-2.57-4.5-3.34-6.94-8.88-27.89-17.66-55.81-26.5-83.71-.29-.92-1-1.71-1.96-3.29Z"/>
  <path class="st0" d="M916.33,2599.28c8.56-4.71,15.38-8.45,22.19-12.19-.16-.66-.32-1.33-.48-1.99-11.13-.92-22.25-1.88-33.38-2.76-4.31-.34-8.64-.6-12.96-.75-5.39-.18-7.75-2.89-7.6-8.24.09-3.32-.2-6.65-.38-9.98-.46-8.2-.47-8.23-8.58-10.97-5.36-1.81-10.85-3.26-16.09-5.36-6.36-2.55-6.69-5.66-1.56-9.97,7.57-6.38,15.65-10.96,26.19-9.57,15.28,2.02,27.85-2.49,37.22-15.47,3.61-5,8.71-8.93,14.12-14.33,2,3.98,3.58,6.74,4.82,9.65,10.27,24.19,20.62,48.35,30.61,72.66,1.98,4.82,4.8,8.48,8.7,11.76,23.67,19.95,47.24,40.02,70.83,60.07.71.6,1.17,1.51,2.13,2.8-1.94,2.55-3.87,5.1-6.5,8.56-6.89-2.78-13.85-4.96-20.2-8.3-14.58-7.65-29.85-10.15-46.21-9.06-13.6.9-27.29.4-40.94.5-3.19.02-6.38,0-9.57,0-.36-.69-.71-1.39-1.07-2.08,4.74-4.66,9.48-9.31,14.83-14.57-8.52-9.92-16.85-19.63-26.11-30.43Z"/>
  <path class="st0" d="M1130.32,1056.38c-3.04,1.07-6.02,2.27-9.08,3.15-8,2.3-16.29,3.83-24,6.85-7.4,2.89-13.87,1.9-21.03-.64-85.07-30.15-170.18-60.18-255.39-89.92-7.2-2.51-11.02-6.25-12.36-13.61-1.25-6.86-3.61-13.52-5.04-20.35-1.05-5.02,1.06-6.95,6.03-5.52,5.43,1.55,10.69,3.72,16.02,5.63,97.83,35.01,195.67,70.01,293.47,105.1,4.39,1.58,10.16,1.79,11.38,9.32Z"/>
  <path class="st0" d="M1106.55,114.51c-2.81-2.01-5.73-3.89-8.43-6.05-17.41-13.97-34.84-27.92-52.1-42.07-3.8-3.11-7.58-4.48-12.6-4.59-17.98-.4-35.96-1.28-53.92-2.29-5.27-.3-9.64,1-14.09,3.75-24.09,14.87-48.31,29.53-72.51,44.22-2.97,1.8-6.11,3.31-9.45,5.1-2.3-6.92-.46-11.88,1.34-17.29,6.61-19.82,18.83-34.31,36.98-44.85,13.49-7.83,25.86-17.62,38.57-26.77,3.96-2.85,7.9-4.36,12.87-4.29,19.32.29,38.78-1.1,57.93.75,15.27,1.48,28.07,11.12,40.87,19.37,1.26.81,1.87,2.72,2.61,4.2,10.52,20.8,21.05,41.6,31.47,62.45,1.08,2.16,1.47,4.65,2.19,6.99-.58.46-1.15.92-1.73,1.39Z"/>
  <path class="st0" d="M1036.25,1593.63c1.66,8.04-92.6,266.89-99.46,279.07-1.48-2.05-3.03-3.6-3.88-5.47-6.07-13.34-11.95-26.76-17.98-40.11-2.31-5.12-4.86-10.13-7.72-16.07,1.37-2.53,3-5.75,4.81-8.88,37.53-64.86,75.03-129.75,112.75-194.51,3-5.16,7.62-9.38,11.48-14.03Z"/>
  <path class="st0" d="M766.85,1701.14c1.32,2.09,2.86,4.07,3.92,6.28,29.35,61.81,97.48,219.84,98.25,228.04-4.45,2.02-6.61-1.78-9.11-3.93-18.17-15.65-36.23-31.43-54.32-47.17-8.04-7-15.78-14.38-24.21-20.87-6.15-4.73-8.48-10.49-8.92-17.9-1.22-20.27-2.82-40.53-4.25-60.79-1.71-24.25-3.47-48.49-5.05-72.75-.22-3.42.44-6.9.69-10.36,1-.19,2.01-.37,3.01-.56Z"/>
  <path class="st0" d="M479.46,906.17c-7.68-.58-8.66-5.23-10.39-8.98-14.37-31.13-28.68-62.29-43-93.44-38.37-83.48-76.71-166.97-115.15-250.42-2.18-4.73-5.09-9.12-8.05-14.36,1.22-1.87,2.36-4.61,6.23-1.72,10.13,7.55,21.35,12.68,33.6,16.03,3.02.83,5.81,4.88,7.38,8.09,1.98,4.05,2.24,8.91,3.86,13.18,40.3,106.1,80.68,212.17,121.02,318.25,1.49,3.92,2.68,7.95,4.49,13.37Z"/>
  <path class="st0" d="M1089.39,322.04c.85-4.19,1.49-7.36,2.1-10.34-19.38,8.95-38.82,17.93-60.24,27.82,1.27-9.77-3.07-18.25,4.36-25.54,1.33-1.3,2.03-3.48,2.5-5.38,2.45-9.83,8.79-16.56,16.35-22.97,18.79-15.93,37.09-32.44,55.56-48.74,4.18-3.69,8.26-7.49,13.41-12.17,6.14,8.56,12.21,16.76,17.98,25.17,2.16,3.14-.03,5.62-2.33,7.77-6.52,6.12-13.04,12.24-20.11,18.86,4.84,8.79,9.95,16.95,13.94,25.61,3.68,7.99,12.24,14.41,9.43,25.5-17.91-1.9-35.15-3.73-52.94-5.61Z"/>
  <path class="st0" d="M1151.92,296.45c-1.33-1.17-1.69-1.34-1.81-1.61-3.27-7.26-8.61-14.38-9.16-21.85-.52-7.06,3.68-14.61,6.37-21.73,2.11-5.61,1.24-9.9-2.7-14.43-5.42-6.23-10.16-13.05-15.56-20.11,22.79-32.33,45.32-64.31,67.48-95.76,5.37.17,5.93,3.02,5.81,6.23-.21,5.65-.43,11.3-.82,16.94-1.7,24.55-3.38,49.1-5.29,73.64-.27,3.51-1.03,7.34-2.76,10.33-12.17,21-24.64,41.83-37.08,62.68-1.13,1.89-2.73,3.49-4.46,5.68Z"/>
  <path class="st0" d="M1393.26,1515.77c-3.91-1.73-6.92-2.85-9.73-4.34-8.52-4.52-16.76-9.61-25.49-13.65-6.75-3.12-9.84-8.06-11.7-14.9-6.61-24.37-13.55-48.66-20.48-72.95-1.26-4.4-3.07-8.64-5.05-14.14,13.26-12.68,27.72-25.55,42.94-37.89,4.48,7.81,30.3,145.24,29.5,157.87Z"/>
  <path class="st0" d="M1301.78,1170.01c-17.43,10.99-33.66,21.23-50.51,31.85-4.18-5.32-7.81-9.97-11.48-14.61-11.13-14.09-22.27-28.17-33.4-42.25-1.44-1.83-2.96-3.6-4.28-5.52-4.26-6.22-3.66-8.98,3.25-12.41,16.07-7.98,32.24-15.77,48.38-23.61,5.91-2.87,11.86-5.64,18.55-8.82,9.99,25.52,19.6,50.08,29.49,75.36Z"/>
  <path class="st0" d="M970.92,1178.92c-2.86,6.07-6.35,4.83-9.52,4.3-32.19-5.36-64.36-10.83-96.56-16.14-23.32-3.85-46.67-7.49-69.99-11.28-.54-.09-.98-.82-2.18-1.89,6.45-18.3,13.01-36.92,20.13-57.11,53.61,27.48,105.62,54.74,158.12,82.12Z"/>
  <path class="st0" d="M1150.38,1097.45c35.66-25.72,70.59-50.61,106.57-76.34,3.04,22.59,5.82,43.15,8.67,64.31-4.21,1.81-8.1,3.46-11.98,5.17-21.9,9.64-43.88,19.09-65.62,29.05-7.3,3.35-12.88,3.47-18.51-3.11-5.53-6.45-12.03-12.08-19.12-19.07Z"/>
  <path class="st0" d="M847.94,2679.08c9.62,1.22,19.08,2.31,28.51,3.62,19.09,2.67,38.14,5.69,57.27,8.03,4.76.58,9.89-.4,14.66-1.5,31.41-7.24,62.77-14.71,94.15-22.07,2.21-.52,4.49-.75,7.34-1.21,4.45,7.73,6.03,16.06,8.49,25.03-2.97,1.14-5.26,2.42-7.7,2.89-34.59,6.68-69.18,13.34-103.83,19.7-4.08.75-8.73.53-12.69-.65-26.42-7.9-52.73-16.2-79.09-24.34-4.17-1.29-8.51-2.28-7.11-9.51Z"/>
  <path class="st0" d="M779.06,1110.19c.72-40.34,1.42-79.68,2.15-120.17,20.62,4.96,41.19,11.51,63.24,18.42-20.98,34.23-41.25,67.3-61.59,100.33-.38.62-1.7.67-3.8,1.42Z"/>
  <path class="st0" d="M1335.12,1262.43c9.3,25.15,18.41,49.78,27.5,74.35-7.09,6.08-13.42,11.87-20.14,17.17-6.5,5.12-11.5,12.64-20.35,14.83-.95-2.03-1.88-3.04-1.69-3.75,2.38-9.08-2.84-15.97-6.58-23.25-6.81-13.27-13.76-26.47-21.21-40.75,13.44-12.22,27.12-24.64,42.46-38.59Z"/>
  <path class="st0" d="M858.66,2280.84c1.57,14.21,3.01,27.29,4.46,40.47-3.29,1.29-5.36,2.28-7.54,2.92-18.81,5.56-37.62,11.12-56.46,16.56-9.73,2.81-11.33,1.85-12.74-7.59-2.14-14.41-4.13-28.85-6.34-44.45,25.96-3.86,51.41-5.02,78.62-7.92Z"/>
  <path class="st0" d="M1313.06,1187.45c5.63,21.38,10.97,41.24,15.93,61.19.51,2.06-.5,5.61-2.08,6.9-8.77,7.12-17.79,13.95-27.02,20.46-4.65,3.28-7.09,2.31-9.55-2.3-8.73-16.42-17.5-32.81-26.22-49.24-1.53-2.89-2.89-5.87-4.8-9.78,14.76-9.78,30.26-17.31,45.26-25.66,2.11-1.17,4.99-.97,8.47-1.57Z"/>
  <path class="st0" d="M1268.53,922.19c.34,2.85,1.16,5.67.92,8.41-1.84,21.2-3.9,42.38-5.84,63.57-.32,3.5-1.52,6.07-4.78,8.1-25.12,15.65-50.1,31.53-75.18,47.25-1.76,1.1-3.96,1.5-5.73,2.14-.68-.98-.92-1.22-1.03-1.51-.12-.3-.29-.77-.16-.96,29.04-41.75,58.11-83.48,87.2-125.2.36-.52.93-.99,1.5-1.25.57-.27,1.27-.25,3.1-.56Z"/>
  <path class="st0" d="M804.83,2400.62c23.25,1.94,44.72,3.74,66.49,5.56,2.35,7.95,4.58,15.5,7.19,24.32-20.49,11.11-41.24,21.07-63.1,32.1-4.61-20.94-7.7-40.71-10.58-61.98Z"/>
  <path class="st0" d="M1200.87,2575.25c-4.51,2.34-8.01,4.16-12.48,6.48-1.55-2.58-3.23-4.91-4.44-7.45-31.97-67-63.91-134.02-95.82-201.06-1.8-3.78-4.61-7.62-.66-12.04,4.39,0,4.88,3.97,6.28,6.61,10.24,19.44,20.29,38.98,30.41,58.49,24.84,47.88,49.68,95.76,74.5,143.64.74,1.43,1.25,2.98,2.22,5.33Z"/>
  <path class="st0" d="M1135.19,1090.58c3.25,6.16,6.01,11.41,9.44,17.92-11.62,11.23-25.95,18.65-40.24,29.16-.67-4.28-1.4-6.72-1.38-9.15.1-9.31.51-18.61.68-27.91.11-6.2.02-12.41.02-19.73,5.56-1.84,12.11-4.07,18.69-6.17,10.75-3.44,21.49-6.95,32.34-10.06,1.73-.49,4.02.97,6.05,1.53-.75,1.95-.95,4.55-2.35,5.74-7.33,6.21-14.96,12.07-23.27,18.67Z"/>
</svg>