<?xml version="1.0" encoding="UTF-8"?>
<svg id="Layer_0_xA0_Image" xmlns="http://www.w3.org/2000/svg" version="1.1" viewBox="0 0 2732 2048">
  <!-- Generator: Adobe Illustrator 29.8.4, SVG Export Plug-In . SVG Version: 2.1.1 Build 6)  -->
  <defs>
    <style>
      .st0 {
        fill: #4d2e1f;
        stroke: #000;
        stroke-miterlimit: 10;
        stroke-width: .25px;
      }
    </style>
  </defs>
  <path class="st0" d="M1062,2048h-10c-8.97-3.82-10.96-11.72-16.98-18.02-5.46-5.71-11.57-10.07-16.83-15.16-2.14-2.07-5.08-2.88-4.17-6.81,18,3.96,34.98,14.01,45.64,29.33,1.96,2.82,4.98,7.21,2.34,10.66Z"/>
  <path class="st0" d="M1678,0l10.14,4.87,32.84,35.15c-15.39-.95-44.76-18.46-48.7-33.5-1.15-4.38.62-4.57,3.72-6.52h2Z"/>
  <path class="st0" d="M1584,0c2.8,4.55,2.83,3.44-.48,6.6-3.03,2.89-12.83,10.74-16.5,11.43-2.59.49-4.08-.33-3-3,1.2-2.99,9.16-4.83,2.99-8.98-6.84,3.61-12.41,11.13-21,9.94-1.15-9.71,10.14-11.34,15.99-15.99h22Z"/>
  <path class="st0" d="M1150,2048c-3.77-4.5.07-4.16,2.57-6.42,4.71-4.25,10.45-9.24,16.41-11.6,3.86,5.03-3.42,8.22-4.98,12,10.24,1.51,15.2-11.02,25.99-9.97,1.6,9.15-8.96,9.2-11.99,15.99h-28Z"/>
  <path class="st0" d="M686,445.98c28.64-7.94,41.07-38.24,56.35-60.63,12.02-17.62,29.75-25.16,49.65-31.33-9.34,9.9-21.11,16.22-29.96,27.02-7.85,9.59-13.91,22.36-21.21,32.79-3.41,4.87-10.05,7.23-8.83,14.16l41.73,3.75c3.15-11.17,6.79-22.31,9.34-33.67,2.49-11.09.34-27.17,8.91-34.07,6.53,21.22-3.35,42.94-1.01,64.03l5.03-1.03,23.99-22.99c-2.11,7.5-6.85,21.54-11.94,27.04-3.52,3.79-8.64,4.68-12.85,7.21-3.85,2.32-1.43,7.55-9.26,4.61l-1.95,9.15-5.97-6c.41,2.8-2.59,11.85-5.02,11.85-1.12,0-4.56-6.41-10.98.14l3.97-15.99-42.86-6.18c-2.11,4.63-1.68,7.09-7.13,9.16,26.16,15.94,42.06,41.82,61.29,64.71,26.51-15.41,50.93-30.74,81.27-38.14,1.84-.45,4.7-3.72,3.46,1.47-.51,2.13-6.59,12.72-8.12,13.89-25.52,8.53-50.78,19.19-71.89,36.12-.85,4.13,1.94,3.38,4.86,2.87,7.32-1.28,40.47-25.58,44.85-12.62,2.95,8.72-3.02,13.6-8.74,18.71-3.83-3.02,5.3-15.12-1.99-14.02-4.4.66-26.19,12.5-28.1,16.01-4.43,8.12,15.07,12.18,1.96,21.98l-35.89-21.99c-5.63-.06-7.31,8.27-10.09,11.9-10.19,13.3-12.13,7.57-6.89-5.86-2.38-2.44-35.48,16.01-39.98,4.01l35.99-12.05c-5.61-6.95-13.83-7.01-2.03-12.98l-3-3,2.07-4,8.96,1.98-1.99-7.97,15.99,3.97c3.02-2.32-48.5-52.36-53.53-53.62-8.31-2.07-21.5,12.9-29.42,17.69-36.4,22-53.92,5.27-82-18.11-16.26-13.54-31.29-30.68-48.06-43.99-2.85-5.26.18-10.93,6.02-12.02,27.94,17.5,49.98,47.77,80.98,60.06,1.06-1.18-.9-22.17.04-26.96.87-4.44,5.07-5.62,5.94-10.06,2.51-12.82-.76-29.72,2.93-45.07,8.4-34.95,53.25-43.86,81.1-54.9,5.7-2.26,11.48-7.28,18.04-9.96,3.46-1.41,21.05-8.92,19.09-.97-18.39,25.49-45.26,42.8-68.18,63.98-2.91,6.35,5.44,21.19,6.52,29.46,2.03,15.49-2.48,28.1-11.47,40.47Z"/>
  <path class="st0" d="M873.99,1569.99c-27.04-7.45-3.85,17.88,1.98,29.09,6.72,4.26,14.02-13.18,22.17-3.85,2.03,8.99-25.27,32.9-19.73,42.39,2.13,3.64,20.7,6.53,17.57,16.38l-11.97-3.99c1.36,13.96,8.69,25.26,5.97,39.99-8.17-9.01-9.76-24.82-16.01-35.98l-9.97,8-.02-6.03-7.96,4.02,1.98-11.98-7.98,3.98,3.98-17.98-20.03,14.95c-6.28,7.12-36.34,33.93-35.56,41.72,9.67,18.28,29.74,33.85,29.73,56.31,0,25.85-40.02,62.27-57.17,80.97-7.78,8.48-17.4,30.37-28.68,14.75,2.35-11.6,67.53-75.15,59.7-82.71-8.21-1.07-19.23,1.48-26.96-.04-4.44-.87-5.62-5.07-10.06-5.94-19.04-3.74-40.89,3.69-59.96-10.04-22-15.84-27.44-44.32-36.66-67.34-5.9-14.73-17.88-27.8-16.33-44.65,9.71,5.48,18.25,13.03,26.03,20.95,8.68,8.84,34.56,44.65,42,48.08,5.99,2.76,17.94-4.9,25.84-6.12,17.08-2.65,27.18,2.16,42.1,9.08,6.6-6.51-32.11-37.94-37.33-41.65-12.06-8.56-27.46-13.09-36.66-25.34-2.54-3.38-19.33-35.42-17.99-36.98,3.07-3.59,4.43,2.99,5.17,3.77,7.16,7.58,12.21,17.41,19.86,24.18,13.62,12.05,35.57,20.1,48.94,34.04-2.16-9.41,10.23-37.05,4.07-43.06-2.66-2.6-26.52-8.87-31.94-10.05-6.21-1.35-33.96-1.99-34.06-7.9,2.4-3.66,5.3-2.81,8.87-3.09,18.35-1.44,36.69,4.72,55.08,4.07-2.08-13.02-16.57-17.68-23.97-27.02-.39-5.24.81-2.08,3.43-1.43,11.06,2.74,19.39,6.43,26.22,15.78,1.97,2.69,3.44,9.26,4.9,10.26,3.32,2.28,7.02-3.22,4.26,6.51l7.18,1.93-3.99,5.95,11.95,5.02c-4.73,3.31-3.41,6.18-1.97,10.99l-12.85-3.88-2.84,3.19-4.44,39.58,10.11,7.11c4.21-11.5,15.69-23.79,24.97-32.05,11.66-10.38,27.53-17.51,37.2-28.99-14.59-27.37-32.07-53.45-38.14-84.94,1.77-1.91,14.04,7.04,15.7,9.28,5.6,7.5,12.89,33.15,19.24,44.76,2.19,4,15.01,25.85,18.04,25.92,3.08-2.4,3.01-2.5,2.13-6.05-2.06-8.36-19.3-28.3-16.84-38.51,4.55-9.92,20.51-5.37,21.7,4.59Z"/>
  <path class="st0" d="M433.99,950.01c3.54,31.58-1.5,62.97-3.69,94.56,1.72,5.92,24.93,13.42,31.69,20.44s12.71,21.37,14.04,30.97c2.75.02,4.15-5.88,4.88-8.07,8.53-25.57-5.41-54.93-8.38-79.42-1.81-14.92,4.57-31.11,10.05-45.03,1.05-2.67.33-6.41,4.41-5.48-.11,12.52-3.9,24.18-2.94,36.99,1.34,17.97,10.33,38.07,9.98,57.02,5.66-5.81,33.77-19.74,33.93-26.94.22-9.97-38.67-56.91-35.95-59.04,13.78-4.16,41.25,45.9,45,45.94,11.32-9.48.56-25.53,3.02-37.96,13.49,13.93,12.66,24.36,8.48,41.52-.47,1.94,1.1,4.5.86,5.6-.95,4.33-9.81-1.16.64,12.87l-7.99-1.96,5.95,11-11.92,6.98-4.07-11.99c-5.87,6.12-30.93,19.86-34.17,24.93-2.2,3.45,1.18,8.98.21,13.07,29.8-10.39,58.61,1.14,88.07,1.07,8.92-29.83,14.02-62.27,33.89-87.06.68,6.04,4.73,12.27,3.68,18.5-1.39,8.26-14.62,31.4-18.19,43.97-2.91,10.25-6.27,20.74-5.46,31.52,4.06.76,4.79-1.83,6.14-4.84,4.09-9.16,7.1-41.96,22.52-36.86,6.17,3.67,5.52,11.55,5.31,17.71l-11.96-7.99c-.85,6.47-11.65,31.55-6.13,35.11,2.83,1.83,18.03-.63,16.11,9.83-.75,4.08-35.21,6.4-41.15,10.95-5.93,4.54,3.89,18.75,1.14,26.09-6.44.67-6.25-6.68-8.98-9.98-8.4,10.36-10.35,27.51-25,31.98l15.99-35.97-11.99,1.97,2.01-7.97c-.75-.64-8.2,1.67-6-2.99,1.8-3.79,7.45-3.46,7.97-7.01l-7.95-3.02c.07-3.28,18.85-7.07,13.95-10.99-26.01,1.17-52.26-5.26-77.53,2.45-5.46,9.34-3.21,20.41-4.97,30.03-9.6,52.46-52.47,45.06-94.47,47.53-8.16.48-41.09,5.15-45.64,2.14l-3.17-8.83c.72-2.55,4.76-4.37,7.24-4.89,23.36-4.95,53.21-1.74,77.32-6.68,5.61-1.15,12.81-2.91,17.2-6.76-.03-1.73-16.1-14.48-18.07-17.89-2.37-4.1-1.4-8.14-3.77-12.23-4.34-7.46-19.05-19.22-24.94-27.06-13.69-18.2-12.79-28.45-8.58-50.23,4.09-21.16,19.16-48.7,27.32-70.68.97-2.6,8.65-22.56,14.07-16.91Z"/>
  <path class="st0" d="M1995.99,1496.01l-3.99,11.97c13.94-.62,25.61-8.44,39.99-5.97,1.03,5.67-1.36,3.28-4.39,4.5-10.3,4.14-21.28,7.33-31.59,11.52l9.95,6.97-7.96,3.02,3.99,7.97-9.99.03,1.99,5.97-15.98-3.98c-1.45,1.5,7.3,12.09,8.95,14.03,5.46,6.4,37.91,39.22,43.15,41.02,7.12,2.45,30.15-19.9,39.9-24.02,4.78-2.02,14.06-4.86,19.07-5.08,30.52-1.39,76.55,55.76,101.03,72.97l1.95,4.09c.12,1.16-.57,1.98-1,2.94-.41.91-4.17,4.75-5.04,5.13-7.17,3.17-65.88-59.33-82.02-59.07-2.62,8.44-.66,19.18-2.09,26.92-.81,4.4-4.95,6.87-5.82,12.18-5.27,32.02,8.59,45.56-23.15,70.85-18.97,15.12-35.86,16.88-56.93,25.07-13.21,5.14-25.21,16.53-40.01,14.96-.54-3.25,1.53-5.41,3.15-7.83,14.95-22.4,47.02-40.49,65.91-60.22-6.65-23.52-13.43-46.44,2.93-67.92-2.8-.51-4.95.58-7.43,1.54-28.73,11.21-41.38,61.95-68.54,77.47-8.98,5.13-19.02,7.92-28.01,12.97-.91-3.93,2.02-4.74,4.17-6.81,7.01-6.71,17.8-11.47,23.77-20.23l32.03-46.95c-9.72,2.31-34.98-9.83-42.08-5.09-1.99,1.33-7.94,24.59-8.93,29.06-2.13,9.58-2.65,27.47-5.38,34.62-1.05,2.74-2.58,3.96-5.58,3.4-5.48-20.26,2.8-40.41,3.84-60.73l-4.82-3.25-25.03,23.98c.58-7.88,5.08-18.83,10.3-24.68,6.29-7.04,15.72-6.31,17.85-15.2l5.83,1.88.02-8,7.98,4.01,3.23-9.61,12.78-.38-4,15.97c5.5.47,11.61-.7,16.99.03,13.77,1.86,22.42,10.51,30.98-5.02-26.47-15.09-40.39-40.61-59.39-62.73-17.63,6.22-32.85,19.21-50.61,26.69-10.39,4.37-25.08,9.37-35.95,10.05,3.83-4.24,4.34-11.4,9.21-14.78,7.03-4.89,31.1-11.17,41.53-16.47,4.13-2.1,26.88-15.6,28.28-17.72,1.34-2.04,1.07-3.8.95-6.03-3.83-3.93-44.75,30.37-49.7,12.55-1.88-6.76,4.26-12.44,8.72-16.55l1.97,13.97c5.27-2.35,31.78-14.21,30.24-20.08-.7-2.67-14.01-15.08-4.11-17.87,4.93-1.39,30.57,19.72,37.93,21.48,4.13-.34,10.37-20.58,18.96-19.49Z"/>
  <path class="st0" d="M1418,198c-1.32,2.84-9.25,6.11-12.04,6.97-16.38,5.05-15.34,2.26-29.3-.38-4.3-.81-7.75,5.05-9.62-2.6l-9.04,4,1.99-5.97-11.99,3.98c2.11-8.37-5.3-4.4-8-9.97l13.96-7.02c-7.58-3.3-20.75-30.17-23.95-32.15-3.43-2.12-9.7,2.84-14-.85,9.85,30.6-.61,59.35-1.75,89.73,30.17,7.4,63.93,13.54,87.73,34.25-5.56-1.44-12.25,3.95-16.7,3.51-5.04-.5-31.24-14.7-40.24-17.56-11.61-3.7-23.9-6.25-35.98-7.91l-2.11,3.99c4.26,6.22,39.99,7.13,43.13,21.09l-1.05,4.91c-4.24,5.37-10.46,6.64-17.04,5.98-1.84-6.88,11.57-6.8,7.05-12.05-2.78-3.23-23.32-8.27-28.08-8.11-11.74.42-4.14,12.01-8.83,15.31h-8.31s-10.07-40.92-10.07-40.92l-24.69,3.75-2.11-3.98,11.02-4.98c-6.03-7.28-16.51-8.87-23.86-14.14-3.46-2.48-14.13-13.45-3.52-10.49,4.58,1.28,29.42,15.51,31.39,13.6l-1.98-11.98,7.97,3.99,3.02-7.96,6.01,7.95,3.99-5.95c5.78,2.42,4.58,12.99,10.99,11.95-.2-23.9,2.92-47.12-.03-70.95-2.18-11.66-28.44-9.17-38.46-11.54-57.29-13.56-35.58-91.89-45.33-134.64.3-6.78,14.04-12.79,15.63.29,1.3,10.7,4.04,92.82,13.2,92.82,6.49-3.37,14.92-15.2,19.89-18.08,4.1-2.37,8.13-1.41,12.22-3.78,11.21-6.48,22.84-27.19,39.42-32.58,30.7-9.98,57.49,8.84,83,19.93,8.47,3.68,37.27,9.96,40.45,17.56,1.84,4.4-8.44,4.91-10.89,5.07-28.76,1.87-57.17-4.16-85.77-3.77-5.95,6.46-7.28,15.17-12.86,23.13-8.08,11.52-22.18,20.71-36.46,20.55-.83,5.16.51,3.11,2.83,4.18,31.04,14.31,68.62-9.42,95.68-7.69,3.72.24,34.43,10.5,37.52,12.48.91.58,2.15,1.81,1.98,3-2.07,1.5-28.47-3.67-34.45-3.44-18.92.73-39.52,12.73-59.54,9.47l25.19,35.83c2.66.64,28.98-15.33,33.42-18.22,4.19-2.73,23.99-21,27.37-17.61.45,6.99-8.04,13.57-12.94,18.04-10.07,9.21-22.76,15.74-32.07,25.95l2.02,4h35Z"/>
  <path class="st0" d="M2194,1074c-5.83-3.84-9.36-14.33-10-20.99-.71-7.4,1.37-25.15,6.07-28.02l-4.06-8.98,5.97,1.99-3.97-13.98c5.72,1.18,6.23-2.03,8.99-5.98l7.98,11.9c5.91-6.95,27.11-17.24,31.25-22.87,2.77-3.77-1.47-8.68,1.77-13.05-1.31-1.03-27.93,4.15-33,4.15-9.28,0-51.79-9.27-55.02-7.27-10.2,28.42-14.53,58.39-31.49,84.53-1.26,1.94.22,3.57-4.47,2.59,1.17-5.55-3.52-11.4-3.02-16.25.67-6.48,11.94-25.91,15.04-34.72,2.25-6.41,10.54-33.21,10.02-38.03-.37-3.43-2.43-5.58-6.03-4.99-2.23,8.61-9,41.17-17.89,43.17-10.4,1.5-13.24-10.74-12.12-19.17l11.96,9.99,8.14-34.78c-7.85-3.72-18.07.06-16.13-13.2,8.18-2.17,34.71-4.66,40.04-8.99,2.24-1.82,2.02-3.18,1.91-5.76-.25-5.99-9.7-35.33,3.92-12.49l4.11,1.22c4.64-11.98,11.16-23.65,21.04-31.98.15,12.54-11.21,23.97-13.03,36.97l12.02-.96-4,7.96,7.99,1.01-9.98,8.99,7.97,2.99-13.97,9.01c12.28,1.48,72.74,5.13,79.02-1.95,5.95-24.2,3.55-57.53,30.97-69.03,22.74-9.54,65.59-8.16,90.98-9.02,5.81-.2,17.95-4.7,23.14-1.1,3.17,2.2,3.19,11.36-1.42,12.82-6.08,1.92-25.92,3.48-33.72,4.28-21.07,2.17-42.94-.2-62.98,8.04-2.43,3.29,15.42,16.99,17.74,21.23,2.54,4.66,2.26,9.7,5.33,14.67,8,12.93,30.76,24.51,32.98,43.02,4.16,34.78-10.68,52.52-23.01,81.09-3.49,8.08-8.77,34.92-16.07,37.94-4.41,1.83-4.91-8.44-5.07-10.89-1.92-29.4,4.09-58.43,4.19-87.77-22.14-8.53-42.87-20.81-44.1-47.32-3.58-4.17-7.3,9.98-7.52,11.49-4.65,31.58,12.48,61.05,11.04,85.03-.24,3.93-10.5,36.45-12.49,39.51-.59.91-1.8,2.15-3,1.98-1.93-2.68,3.6-28.09,3.43-34.44-.51-19.7-12.3-39.27-9.46-59.55l-35.43,24.96c-.18,2.47,16.83,31.1,19.8,35.67,5.15,7.94,15.77,14.96,15.64,25.34-5.97,6.32-39.17-41.59-43.01-45.99l-4.98,3v33Z"/>
  <path class="st0" d="M1404,1758.02l-9.03,9.99c2.47,3.52,23.62,9.74,28.3,9.94,13.42.56,2.93-20.41,16.79-17.13l11.86,42.34,26.06-3.15c.83,6.5-7.09,5.04-9.95,8.99,10.04,9.64,25.7,10.57,31.95,24.01-1.5,2.86-5.18,0-7.07-.93-9.1-4.42-17.59-10.21-27.88-12.12l-1.04,10.02-7.98-2-2.99,6-7-7.99-3.98,7.98-8.02-13.98c-1.22,13.31-5.9,71.17,2.78,78.2,23.99,5.58,57.1,4.08,68.69,31.31,8.94,20.99,7.71,67.43,8.53,91.47.22,6.56,4.47,14.04.99,21.04-1.3,1.42-3.1,2.58-4.93,3.14-3.48,1.06-6.46,1.67-7.75-2.48-1.97-6.33-3.49-25.73-4.31-33.69-2.24-21.75-.09-44.11-8.04-64.98-1.03-1.07-19.07,16.95-20.91,18.07-4.05,2.47-8.55,2.27-13,5-15.52,9.55-25.64,32.78-49.06,34.93-29.64,2.72-50.43-12.33-75.04-22.97-9.32-4.03-36.3-9.14-39.94-18.07-.84-4.58,2.02-2.71,4.97-2.95,7.4-.61,14.67-.9,22.01-2.21l69.65,5.95c12.63-22.11,22.22-43.73,51.34-45.79.6-2.75-2.08-2.14-3.99-2.95-34.15-14.36-67.43,9.77-97.01,6.98-3.86-.36-35.6-10.67-36.98-12.04-1.06-1.05-1.49-4.22,2.51-3.52,6.22,1.08,14.48,3.24,20.51,3.52,23.62,1.1,45.49-8.95,68.98-9.98l-21.03-31.98-3.87-2.02c-3.26-.07-24.58,12.4-28.94,15.17-5.98,3.8-26.6,22.99-32.16,18.82,10.14-18.98,31.25-28.06,45.98-43.01.86-3.52-1.31-3.19-3.9-3.96-10.93-3.21-20.88,2.54-32.06.98-1.03-5.17,1.11-3.49,3.9-5,4.26-2.31,14.77-6.45,19.33-6.9,9.87-.96,16.06,6.78,24.75,1.88l.04,6.03,9.96-6.01-1.98,7.98,11.01-5.93c3.82,3.19,1.21,9.23,7.44,8.06,8.64,4-12.44,6-10.41,10.84,7.35,4.19,19.71,29.6,23.97,32.17,2.72,1.64,8.43-2.05,11.99-1.13-7.12-29.7.17-58.81,3.17-88.11-30.17-8.17-61.09-14.58-87.16-32.89,19.79-11.38,40.18,7.71,60.43,13.57,10.44,3.03,22.75,5.66,33.55,5.43,6.15-5.1-22.18-10.37-23.95-11.03-22.57-8.41-30.83-22.01-.04-22.94Z"/>
  <path class="st0" d="M1932,287.98c9,2.99,20.83.48,28.97,2.05,4.42.85,5.61,5.08,10.05,5.95,18.38,3.6,39.29-4.95,57.98,8.02,23.01,15.96,29.3,47.99,38.6,71.4,5.32,13.38,16.22,25.51,16.38,40.6-2.63,2.67-14.54-7.8-17.04-9.94-19.32-16.46-33.75-42.07-53-59.13-15.45,3.69-25.6,9.06-42.95,7.08-10.21-1.17-16.09-6.58-24.99-9.99,5.09,17.95,22.62,31.02,37.37,41.61,12.12,8.7,29.96,15.42,38.65,27.35,2.43,3.34,17.22,33.55,15.97,35.01-3.01,3.52-4.42-2.85-5.2-3.74-6.22-7.1-11.21-15.42-17.81-22.23l-50.97-34.01-3.09,42.08c1.76,2.65,31.45,9.85,36.96,11.02,8.33,1.78,24.19-.66,28.13,7.87.2,7.9-55.26-3.19-60.88-2.93l-2.28,4.02,25.13,25.91c-12-1.44-24.55-7.44-31.75-17.28-1.67-2.28-1.48-5.62-2.88-8.11-1.2-2.13-8.02-1.48-3.34-8.59l-10.02-3.02,5.98-1.98-11.99-5.04.17-3.87,3.84-1.06-3.19-4.94,2.17-4.06,13,3.97,6.15-40.79-9.14-7.22c-9.31,11.33-17.72,23.46-28.99,33.02-6.44,5.47-33.86,21.17-35.13,26.79,14.85,27.92,29.63,51.44,37.57,82.73.67,2.64,3.79,3.83-1.43,3.43-20.24-9.23-20.58-31.61-29.94-50.07-5.14-10.13-12.84-21.1-20.12-29.89-4.72-1-3.33,4.01-2.48,6.49,3.32,9.69,20.36,27.58,14.54,39.47l-4.42,3.72c-6.83.4-12.55-3.69-16.59-8.71,2.95-3.33,14.94,2.5,14.01-3.98-.38-2.62-13.05-25.88-14.35-26.65-6.47-3.77-14.01,10.94-23.66,3.61l22-39.07c-.14-6.84-20.5-8.69-20-18.9l13.97,3.99c-2.24-13.59-10.11-25.75-7.97-39.99,4.38-.79,4.7,1.95,5.95,5.03,3.73,9.26,5.3,19.94,10.07,28.95,5.86,1.59,4.39-6.83,9.93-7.99l3.15,5.84,6.88-1.83-1.97,11.99,7.97-3.99-3.98,15.98c1.31,1.42,16.13-11.28,18.02-12.96,7.12-6.31,16.82-15.85,23-23,1.97-2.28,11.48-13.05,11.96-14.06,5.2-11.05-12.39-23.46-17.85-32.1-28.65-45.37,19.63-80.91,47.9-111.84,4.92-5.38,13.23-21.34,21.01-19.18,2.79.77,5.88,2.79,5.97,6.07.29,10.73-57.98,63.04-60.01,81.06Z"/>
  <path class="st0" d="M1163.98,176c.1-19.36-12.88-32.58-27.32-43.66-30.06-23.06-64.14-28.29-97.26-7.95-30.9,18.98-41.02,48.45-39.41,83.59-9.7-1.07-8.16-17.13-7.96-24.98,1.13-44.16,17.98-83.21,65.48-92.5,37.24-7.28,73.57,15.79,98.47,41.49-2.21-10.71-11.53-23.75-18.32-32.66-28.51-37.4-58.45-55.47-101.49-26.17-45.54,31-59.38,75.02-54.18,128.82-10.9.23-11.25-12.36-11.96-21.02-3.19-38.93,10.1-76.59,37.98-103.96,9.3-9.13,21.73-14.91,31.47-22.43,1.68-1.29,3.65.02,2.51-4.58-23.83-2.58-24.11-8.02-43.04,7.94-9.29,7.83-17.92,20.94-26.03,27.97-2.52,2.19-3.37,2.63-6.91,2.07-3.05-22.63,13.65-29.68,25.99-43.97l-32.12-2.89-.9-11.16c2.7-2.95,6.24-3.57,9.99-4,49.39-5.64,95.77-1.91,142.08,15.99,49.67,19.21,63.02,48.85,67.97,100.02,3.54,36.63,2.4,54.24-39.48,43.49-34.1-8.75-67.7-32.89-100.58-5.52-12.74,10.61-18.55,22.96-27.95,36.01-12.9-9.44,7.35-33.8,15.06-42.9,41.25-48.72,94.36-33.25,137.92,2.94Z"/>
  <path class="st0" d="M424,644c-19.47-3.69-17.4-32.56-14.01-47.99l-25.27,21.66-7.75-3.65.12-9.93,55.97-60.04c34.32-19.91,74.14-48.65,115.96-44.05,16.62,1.83,48.47,23.18,61.93,34.06,24.77,20,40.18,35.66,4.84,56.73-27.82,16.59-73.14,26.22-77.57,64.43-2.02,17.44,1.26,32.27,5.78,48.78l-10.2-1.23c-17.81-42.7-14.52-92.57,28.87-117.1,16.98-9.6,38.67-15.61,58.33-15.65l.99-3.97c-14.24-10.51-25.45-11.43-42.95-10.01-83.45,6.77-110.65,97.18-49.04,150.98-4.5,3.81-6.98,1.82-10.97-1-67.6-47.66-57.3-141.81,26.96-159.03l40-6.96c-31.41-7.97-92.39-18.1-114,12.96-10.69,15.37-15.64,53.56-13.95,71.98,3.56,38.96,27.25,64.28,53.93,90.03l-5.26,4.67c-53.32-29.61-76.92-96.26-54.71-153.65-.87-.84-19.34,10.42-21.04,11.94-2.26,2-6.95,8.62-6.95,11.05v55Z"/>
  <path class="st0" d="M386,1429c-1.14,6.96-8.53,5.83-14.14,4.13-6.43-9.24-1.29-20-1.68-28.13-2.1-43-5.69-55.86,6.83-98.99,20.41-70.33,51.2-93.55,125.9-94.11,13.38-.1,25.55-1.15,28.69,15.6,3.6,19.22-17.77,58.89-21.12,79.98-5.64,35.61,19.41,56.12,47.35,71.73l-2.05,6.62c-13.8.31-26.34-9.66-36.72-17.88-46.68-36.92-40.72-83.54-8.72-128.6,1.57-2.21,12.75-12.23,4.77-11.26-20.59,2.5-36.02,20.24-46.72,37.32-38.98,62.22,11.18,133.32,81.61,126.61v5.98c-6.55.39-12.24,2.19-19.01,2.14-41.96-.31-77.4-10.41-93.35-52.77-16.57-44,7.65-80.02,36.35-111.33-9.88,2.47-21.53,10.89-29.83,17.15-18.82,14.2-44.9,40.14-44.02,65.52.73,20.96,28.67,56.43,45.19,68.96,29.01,22,63.54,24.83,98.65,22.35.65,6.14-1.64,8.14-7.15,9.83-19.28,5.91-57.89.75-76.2-7.48-26.95-12.11-53.07-37.27-64.67-64.34l-5.5,30.49c.88,3.33,13.28,18.04,16.5,21.53,3.81,4.13,27.05,22.09,23.02,25.96-20.59,3.29-30.08-15.32-43.99-25.99-1.02,8.95,1.4,20.46,0,29Z"/>
  <path class="st0" d="M2326,1452l23.43-19.72,8.75,2.55c4.92,6.07-1.82,13.77-6.09,18.26-35.37,37.13-58.45,63.06-107.33,84.67-54.87,24.26-97.48,2.89-136.78-36.74-19.31-19.48-6.33-31.99,12.63-43.41,21.01-12.66,59.64-24.13,71.1-46.9,5.31-10.54,5.73-35.79,4.11-47.53-.75-5.48-9.02-16.8-2.59-18.96l6.96,1.07c2.5,4.87,4.95,9.79,6.39,15.13,4.59,17.03,6.75,43.72.96,60.14-14.96,42.42-54.54,54.8-95.54,60.44,6.4,4.61,13.93,11.25,21.95,12.23,5.25.64,25.07-.64,30.83-1.43,77.05-10.5,97.96-99.6,41.23-148.82-2.19-5.32,6.67-2.52,9.09-1.07,18.72,11.23,42.25,47.35,44.69,69.31,7.55,67.88-53.5,96.01-111.78,95.78,30.13,12,91.81,19.69,113.98-10,13.32-17.83,17.09-60.13,13.47-81.44-4.56-26.91-16.36-42.45-33.51-62.49-3.82-4.46-15.14-13.43-16.99-17.02-1.43-2.77-.22-5.4,2.14-6.01,4.8-1.24,18.88,11.17,22.93,14.95,40.5,37.78,49.07,86.55,34,139.02,5.49-4.94,16.3-9.07,20.98-14,10.94-11.51,5.85-48.35,5.96-64.03l5.09-1.04c1.32.73,9.94,13.2,9.94,14.07v33Z"/>
  <path class="st0" d="M1773,2006c3.49.98,6.83,8.48,4.07,12.03-8.69,9.92-20.96,3.4-30.07,3.8-39.41,1.75-50.87,5.78-90.99-4.84-66.03-17.47-92.24-37.57-99.99-108.01-.95-8.64-3.7-31.8-.12-38.09,7.63-13.4,23.72-11.43,36.62-8.41,45.48,10.65,80.29,42.67,118.31-8.67,2.59-3.49,14.51-30.97,17.24-14.76,1.68,10-13.44,30.07-20.12,37.88-39.64,46.4-93.47,33.01-134.95-2.93-5.07,16.07,12.56,32.81,24.06,41.94,38,30.18,86.92,29.63,118.89-9.01,16.74-20.24,18.06-39.42,20.07-64.93,2.24-.37,3.74,0,5,1.98,1.76,2.75,1.56,39.06.97,44.99-2.78,28.02-24.81,55.09-50.63,65.37-43.91,17.48-81.51-8.49-113.33-36.35-1.84,2.23,18.14,30.05,21.14,33.84,18.43,23.23,44.28,47.38,76.26,36.58,28.3-9.56,63.85-44.69,72.47-73.53,5.93-19.81,5.51-45.29,6.1-65.88,7.46-4.36,9.31,5.95,10.01,11.99,2.61,22.71-.07,53.34-10.24,73.75-12.6,25.27-37.07,51.25-63.74,61.27l21.26,5.77c10.51,2.42,18.43-5.6,25.77-11.74,8.64-7.23,16.62-19.55,24.03-25.97,2.52-2.18,3.38-2.62,6.91-2.07,4.56,23.28-14.05,29.2-25.99,43.99h31Z"/>
  <path class="st0" d="M988,1968c-7.56,20.47-32.94,16.72-50,14.02,3.1,6.28,31.01,26.6,19.7,33.68-10.23,6.4-26.71-16.6-33.68-22.73-33.33-29.3-58.15-57.12-73.58-100.42-15.86-44.53-3.83-72.65,23.61-107.49,3.56-4.52,21.46-25.23,24.83-27.17,5.1-2.93,11.76-2.69,17.22-.99,13.29,4.13,34.57,56.23,43.84,70.15,22.86,34.31,52,29.83,88.04,20.96,2.83,15.87-29.32,19.06-41.02,19.96-63.51,4.88-89.1-41.75-95.96-97.96-3.21,3.22-6.58,7.32-8.64,11.35-7.57,14.78-1.34,51.96,5.57,67.7,16.89,38.42,66.35,56.59,105.14,41.02,12.76-5.12,26.87-22.54,35.95-26.06,2.72-1.05,3.47.39,3,3-.79,4.38-27.92,31.17-33.04,34.97-40.68,30.28-100.65,14.82-120.71-31.28-8.96-20.6-12.54-42.33-13.27-64.71-5.14,8.1-7.1,21.75-8.47,31.53-8.22,58.94,5.29,91.43,68.49,96.43,42.3,3.34,71.39-13.03,101.02-40.92,3.22-3.03,16.68-23.41,15.79-6-.3,5.88-20.44,25.19-25.81,29.98-10.05,8.96-18.32,16.01-30.98,21.02-30.03,11.89-66.69,14.06-97.03,1.95l15.03,23.95c1.32,1.1,8.79,4.05,9.95,4.05h55Z"/>
  <path class="st0" d="M2363.52,616.49c1.83,1.86,2.2,5.86,2.48,8.47,5.43,49.96,2.36,93.95-15.08,140.95-21.7,58.45-66.81,72.11-125.9,72.26-8.34.02-12.86-1.6-17.88-8.29-7.2-9.61-3.28-21.19-.59-32.34,7.24-29.96,30.84-67.3,9.46-96.54-9.7-13.26-25.79-24.17-39.96-32,9.51-12.9,30.65,4.53,39.99,11.97,50.45,40.23,38.51,95.08-.03,139.01,19.37,3.26,36.58-15.67,46.88-30.1,30.18-42.26,19.83-96.42-25.04-122.71-16.4-9.61-35.44-8.57-53.83-11.19l2.34-5.64c45.22-4.38,90.27,2.58,110.05,48.27,19.09,44.12-6.51,83.86-36.39,115.37,26.63-11.27,70.23-44.72,73.77-75.2,3.52-30.32-29.2-68.66-53.93-83.62-28.09-16.99-57.68-17.05-89.84-17.18,1.62-9.62,6.01-9.31,14.93-10.06,64.23-5.38,99.3,17.31,132.58,69.5,1.27,1.98-.19,3.57,4.48,2.57-1.73-10.89,5.93-19.1,2.51-29.42-1.54-4.64-13.49-18.36-17.47-22.6-2.53-2.7-25.83-21.48-23.02-23.96l21.83,3.15,22.14,22.83,2.29-33.7c3.72-2.09,10.04-3.05,13.25.21Z"/>
  <path class="st0" d="M1796,66c-3.04-6.9-30.47-24.37-18.63-32.15,12.78-6.4,19.94,10.8,27.34,17.45,9.53,8.56,23.39,17.31,32.39,26.61,25.95,26.84,60.4,92.81,54.43,130.61-3,18.99-32.51,60.56-46.21,74.8-10.6,11.02-24.53,14.61-35.31,1.67-22.49-26.99-31.22-85.34-72.93-89.07-16.71-1.49-33.52.05-49.07,6.08l-.99-8.11c2.86-6.52,26.81-10.96,34-11.87,22.58-2.86,38.45-2.06,58.31,9.64,30.02,17.68,41.07,55.7,43.65,88.33,17.7-14.14,14.28-38.45,10.42-58.4-8.68-44.83-44.72-71.53-90.37-67.56-25.27,2.19-39.68,16.74-58.04,31.93l-2.99-4.93c15.15-14.64,29.56-34.33,49.47-42.55,51.83-21.4,103.52,10.02,113.54,63.5l6.96,40c8.06-31.45,17.23-83.35-8.18-108.78-16.18-16.19-62.47-20.07-84.2-16.62-34.76,5.52-60.51,27.6-82.59,53.37-12.21-9.53,14.83-31.93,22.97-38.99,35.68-30.9,81.41-36.59,126.02-22.98l-13.09-21.89c-8.44-9.08-51.73-5.94-64.89-4.11-3.01-5.79,12.19-15.99,14.99-15.99h33Z"/>
  <path class="st0" d="M867.98,898l4.04,56c10.63-10.14,5.92-29.48,1.99-41.99,18.01,2.07,17.32,26.37,12.98,39.97-2.11,6.62-10.56,17.2-10.91,23.12-.4,6.71,3.23,20.29,3.91,27.92.72,8.12-1.27,17.87.45,25.55,2.27,10.16,22.83,17.24,32.01,19.99,36.14,10.82,94.04,18.88,132.8,25.2,5.64.92,11.4-.34,17.3.71,12.03,2.14,13.66,16.36,24.77,21.22,5.95,2.6,10.96,1.92,16.67,4.31l.03-16.01c-1.07-1.07-31.26,3.38-25.14-8.04,1.98-3.69,24.72-9.73,31.22-12.86,9.73-4.7,30.73-22.26,39.11-23.07,10.34-1.01,38.18,19.94,50.83,24.95,41.48,16.42,105.71-1.95,149.12-8.84,11.15-1.77.12,8.01-3.33,10.69-23.64,18.38-76.08,14.46-104.34,21.66-7.58,1.93-15.33,14.67-23.69,18.31-4.81,2.09-30.46,8.08-31.92,1.89-2.3-9.12,10.4-17.66,4.27-25.81-1.84-2.45-22.91-17.18-26.78-19.23-22.34-11.81-25.3,5.71-45.03,12.68-3.75,5.98,5.84,37.63,3.67,48.7-.89,4.55-3.59,4.6-7.02,6.93l-5.05-17.89c-15.96.25-26.15-5.88-38.06-15-2.27-1.74-3.07-5.24-5.39-7.11-10.16-8.24-33.07-6.05-46.99-8.45-38.55-6.66-90.85-14.43-127.58-24.42-33.8-9.2-23.26-46.04-25.92-70.08-1.03-9.31-6.63-17.85-7.75-28.25-1.22-11.34,1.07-50.37,5.26-60.25,1.2-2.84.41-3.04,4.47-2.5Z"/>
  <path class="st0" d="M1493.99,520.01c.6,3.89-1.55,5.33-5.02,5.96-16.79,3.04-34.48.16-50.95,4.06-.48,2.88,3.53,2.78,5.59,3.35,14.8,4.16,22.02,1.44,36.39-1.37-1.2,16.4-25.26,15.14-37.29,12.29-9.38-2.23-16.25-8.85-25.71-10.4l-55.59,4.51c-2.69.77-7.54,6.35-9.11,8.89-14.46,23.33-28.34,122.9-34.06,155.94-.95,5.47.29,10.96-1.09,16.91-2.93,12.56-26.8,19.63-24.65,38.95,26.25,15.52,7.11-24.87,22.5-23.22,6.09.65,8.37,18.13,11.29,24.84,4.72,10.83,24.82,37.91,25.68,44.46,1.58,11.96-17.43,34.69-22.94,46.86-18.23,40.27-2.06,110.31,6.55,153.41,2.26,11.31-10.27-2.35-12.45-5.57-9.81-14.47-13.89-52.7-16.8-71.2-1.36-8.68-.92-25.09-2.74-31.26-1.2-4.07-14.29-13.96-17.94-22.06-2.92-6.48-8.09-27.21-2.75-31.57,6.11-4.99,17.48,7.63,23.04,5.33,3.2-1.33,19.8-23.65,22.11-28.05,12.66-24.09-6.36-24.91-12.29-46.82-7.45-4.73-55.54,17.43-55.76-4.21l17.06-3.96c2.62-9.18,3.57-19.06,8.53-27.47s16.92-14.67,19.47-24.53c2.51-9.69,1.54-25.15,3.48-36.52,6.4-37.49,14.79-75.89,22.91-113.09,2.82-12.92-.6-18.03,10.47-29.53,19.66-20.41,37.55-8.41,58.92-11.1,7.33-.92,15.3-5.85,22.64-7.34,23.71-4.83,46.62,2.3,70.51,3.53Z"/>
  <path class="st0" d="M1632.01,1469.99c-5.35-5.41,31.27-36.1,33.97-43.02,3.35-8.6-15.33,5.45-16.95,7.06-3.8,3.78-18.43,31.49-16.17,9.92,2.47-23.57,28.73-30.04,47.02-37.06l35.07-40.92c1.96-4.6,1.37-9.76.56-14.5-3.89-22.91-59.49-95.73-75.88-120.1-6.06-9-23.54-27.37-23.85-36.33-.19-5.41,2.21-9.92,1.81-15.45-.65-9.1-6.43-13.89-9.64-21.58-28.09,12.69,7.5,18.82,3.94,30.77-7.03,8.7-16.61-1.99-24.54-5.13-5.31-2.1-10.84-4.06-16.32-5.68-10.05-2.97-31.06-4.76-38.09-9.91-7.89-5.78-15.29-48.41-21.98-62.02-11.85-24.1-69.56-66.01-93.51-82.49-2.1-1.44-21.13-10.41-17.44-13.54,27.87-2.6,53.01,20.73,74.62,36.35,6.26,4.53,23.29,20.72,27.4,22.6,6.86,3.14,19.95-.37,30.37,3.63,4.42,1.7,23.9,15.12,22.81,19.49-2.23,8.95-19.1,7.66-20.92,15.29-.48,2.01,3.25,27.15,4.25,31.08,6.45,25.5,21.05,17.88,42.21,25.09,7.01-1.33,22.05-30.9,30.14-35.64,3.14-1.85,5.63-3.23,9.16-.95,6.09,3.95-6.72,12.85-5.74,17.75.5,2.51,11.75,15.41,13.24,22.75s-.33,14.55.45,21.55c1.78,15.96,17.65,26.44,26.83,39.17,22.32,30.95,42.8,64.38,63.51,96.49,7.77,12.05,15.06,13.57,13.72,32.29-1.69,23.58-26.31,32.79-36.97,49.13-18.32,28.09-20.56,35.08-49.26,56.74-2.02,1.52-12.2,8.8-13.82,7.16Z"/>
  <path class="st0" d="M1104,580.02c3.96,3.07-33.93,37.77-35.98,43.01-3.59,9.2,17.37-7.2,19.06-8.95,4.85-5.01,8.76-10.86,8.93-18.09,4.91-1.7,6.14,5.5,5.88,8.82-1.83,22.83-27.39,30.98-45.75,36.33l-36.66,43.4c-3.53,8.21,3.63,23.55,7.46,31.52,13.75,28.63,45.24,67.84,64.23,95.77,4.98,7.33,28.43,36.16,28.75,41.27.36,5.65-3.03,11.75-1.8,19.78.93,6.05,7.16,19.63,13.84,16.12,16.47-8.66-4.86-16.23-7.14-22.87-6.99-20.41,17.85-2.49,24.09-.06,12.6,4.91,46.39,9.93,53.02,14.98,9.68,7.38,15.28,59.43,33,79,21.46,23.7,67.61,54.82,95.07,73.01,2.31,1.53,5.16-.49,3.97,4.92-11.94,12.63-62.94-27.38-73.78-35.19-6-4.32-22.38-19.98-26.26-21.74-14.66-6.6-26.25,1.78-43.78-12.22-26.68-21.31,7.76-15.64,9.83-27.92,1.27-7.54-4.59-42.2-11.16-46.75-2.65-1.84-32.63-8.59-35.39-7.86-9.31,4.96-25.16,35.47-32.84,37.49-3.44.9-8.69-2.56-7.82-5.89l8.71-12.91c-5.09-6.29-10.44-12.6-12.93-20.54-3.94-12.52-.36-24.31-4.76-35.24-3.35-8.33-13.9-15.03-19.46-22.54-27.29-36.83-50.43-79.07-78.15-115.85-13.46-34.95,16.09-44.58,31.8-65.81,4.47-6.04,6.38-13.62,10.36-19.64,8.54-12.93,28.2-29.91,40.99-39.01,4.31-3.06,8.94-6.87,14.65-6.33Z"/>
  <path class="st0" d="M1626.27,935.74c13.93-.91,25.21,4.74,35.81,13.18,2.79,2.22,3.87,6.29,7.19,8.81,12.05,9.12,26.3,4.8,39.51,6.49,38.25,4.87,84.38,16.96,122.76,25.24,11.68,2.52,16.03-.73,26.24,9.76,19.47,20.01,7.74,38.46,10.39,59.63.91,7.28,5.75,15.29,7.31,22.67,3.5,16.55.49,42.05-1.69,59.3-.84,6.66-6.35,16.72-7.82,6.21-1.28-9.07-.97-45.5-2.95-49.05-4.01-7.16-6.95,12.94-7.05,15.11-.43,9.84,3.76,15.67,4,24.91-16.28-5.37-15.65-25.37-12.28-39.28,2.31-9.54,8.71-14.45,10.36-23.68l-4.44-57.66c-3.27-10.96-46.29-20.57-57.22-22.78-41.7-8.44-84.97-13.84-126.99-21.01-10.81-2.68-12.81-23.71-36.41-23.65-5.27.01-3.61,11.94-2.12,14.18,3.7,5.53,19.28-5.59,24.18,3.86,5.04,9.71-15.37,11.48-21.82,14.29-11.97,5.22-41.03,26.72-48.77,27.37s-35.33-19.17-45.46-23.65c-27.45-12.15-52.53-8.93-82-5.95-25.13,2.55-49.97,8.88-75.02,11.96-.66-3.85,2.59-5.75,5.04-7.94,21.35-19.09,75.4-17.21,103.06-22.94,13.06-2.71,16.35-14.24,27.08-18.92,8.92-3.89,20.93-4.83,30.53-3.93,6.7,9.64-9.96,19.01-2.65,27.57,6.02,7.05,32.41,25.47,41.77,24.19,1.81-.25,30.46-17.57,30.96-19.33.65-10-8.81-43.53-3.95-49.86,10.38-13.5,10.64,13.82,12.42,14.9Z"/>
  <path class="st0" d="M1474.01,1279.99l-17.12,3.9c-1.13,8.27-2.23,16.35-6.09,23.91-7.99,15.62-20.53,15.05-22.78,37.22-5.28,52.25-17.58,103.47-26.51,155.49-12.6,34.31-43.86,22.14-70.35,25.65-8.91,1.18-18.15,6.83-28.19,7.81-7.89.77-59.69-2.65-62.97-6.01-3.9-3.98,7.47-5.52,9.21-5.73,15.2-1.82,31.46,1.67,46.79-2.25.62-4.86-.02-3.17-2.79-4.21-12.34-4.61-27.11-1.27-39.21,2.21,4.49-18.64,28.51-17.34,43.11-12.11,6.44,2.31,14.1,9.7,19.99,10.04,6.78.39,20.25-3.22,27.91-3.9,13.59-1.21,26.24,4.52,35.86-8.14,14.84-19.52,26.79-109.88,32.48-139.52,2.46-12.82,4.01-25.93,5.04-38.96,11.23-12.01,22.61-15.51,23.61-34.42.22-4.18.03-2.55-2.97-3-23.42-3.56-4.75,14.54-14.98,25.11h-6.16c-5-8.63-6.04-18.61-10.16-27.84-6.9-15.48-20.45-28.15-25.78-44.43,8.34-21.24,24.46-38.98,30.63-61.21,4.35-15.66,1.19-49.2-.64-66.57-2.61-24.82-9.36-50.16-11.95-75.03,22.81,15.84,23.58,51.51,27.65,77.33,1.64,10.38,1.05,23.69,3.19,32.81,3.63,15.47,23.93,19.08,23.32,48.87-.43,20.76-18.78-.71-27.25,4.85-5.04,3.31-23.37,29.66-24.55,35.64-2.03,10.28,12.85,27.44,18.95,36.16,14.53,5.01,50.38-15.59,52.68,6.33Z"/>
  <path class="st0" d="M1381.99,1058.01c1.82,28.37-22.82,55.63-39.16,77.82-4.11,5.58-17.58,18.41-19.32,22.68-3.21,7.91-.59,17.77-2.88,27.12-1.75,7.12-15.91,31.35-24.39,26.1-1.57-.97-4.58-15.12-7.18-17.79-5.22-5.35-42.38,2.14-49.01,7.11-8.08,6.05-7.5,27.64-11.86,37.63,1.62,5.45,31.72,21.78,35.94,28.17,2.38,3.6,2.88,7.28.93,11.21-3.88,5.94-11.86-7.16-16.07-7.41-7.81,4.17-13.67,10.1-22.54,12.78-11.88,3.59-22.76.66-33.24,4.76-11.05,4.33-17.4,14.86-26.55,21.45-36.88,26.59-76.98,49.17-113.16,76.84-13.98,3.5-27.5,2.67-39.37-5.62-9.28-6.49-14.64-18-23.18-24.82-9.13-7.28-19.87-9.61-29.99-18.01-5.6-4.65-38.97-43.12-38.9-47.06.1-5.79,8.39,1.18,9.76,2.21,11.79,8.88,21.46,23.4,35.21,30.79.55-12.34-15.63-25.41-27.01-28.01,1.59-12.36,19.16-3.09,24.98,2.04,11.2,9.87,13.96,23.85,18.99,37.01,12.3,6.26,33.73,34.18,44.13,37.92,7.13,2.57,23.54-3.79,30.65-7.19,31-14.85,81.08-54.86,111.88-76.12,5.48-3.78,15.74-14.36,19.91-16.15,10.28-4.42,28.54,7.89,41.51-8.45,3.24-4.07-5.69-9.95-9.06-11.11-9.42,4.06-9.38,17.33-22.99,14.08-1.49-10.71,6.42-17.17,10.03-26.96,4.3-11.64,9.84-47.49,15.06-52.94,5.58-5.83,49.11-13.59,62.99-21.01,27.49-14.69,68.18-77.52,87.56-104.44,1.79-2.49,2.11-5.55,6.34-4.64Z"/>
  <path class="st0" d="M1811.99,759.99c-4.1,4.33-35.41-32.52-42.97-34.02-1.42-.28-3.46-.35-3.01,1.02,7.19,11.43,15.81,24.12,29.98,27.04-4.88,10.01-18.35,3.13-24.99-2.03-12.67-9.85-14.57-25.64-20.95-39.05-17.72-9.22-33.71-39.76-54.57-36.46-23.77,3.76-93.81,57.31-118.11,73.89-7.13,4.86-26.79,22.49-31.4,24.59-8.35,3.81-16.88-1.44-24.44-.61-4.32.48-20.3,7.41-19.39,12.37l9.12,9.13c2.8.5,21.2-27.15,24.42-10.57.33,1.69-11.83,25.84-13.72,31.68-3.32,10.3-6.36,36.89-10.97,43.03-4.69,6.23-40.7,12.35-51.52,16.48-27.11,10.38-47.64,37.92-65.42,60.58-14.01,17.85-25.99,37.52-40.04,54.94-5.34-25.4,17.95-50.88,32.34-70.63,3.9-5.36,23.83-27.57,24.6-29.4,3.2-7.57,1.8-22.71,4.37-31.63,1.64-5.68,13.88-23.11,19.67-23.57l4.51,1.69c3.9,7.07,2.75,18.97,13.38,19.25,9.87.26,40.94-4.82,45.94-13.86,1.55-2.8,7.71-32.13,6.9-34.5-5.13-7.98-43.88-27.18-36.8-37.39,6.05-6.44,12.64,6.13,17.73,5.7,3.6-.31,14.43-10.98,23.21-12.78,22.54-4.63,23.46,4.23,45.06-12.94,39.92-31.74,83.67-58.84,125.66-88.34,13.82-7.11,29.2-3.11,41.22,5.57,9.29,6.71,14.34,18.18,23.17,24.83,7.51,5.65,17.56,8.41,25.65,14.35,8.49,6.24,33.7,34.41,38.65,43.35,1.53,2.76,3.48,4.64,2.68,8.3Z"/>
  <path class="st0" d="M800.02,1274.01c7.73-1.54,15.01-5.37,23-5.98,26.07-1.99-7.58,9.71-10.54,11.51-.96.58-11.15,9.73-11.49,10.42-2.76,5.59-5.96,35.3-7.63,44.41-2.39,13.09-7.69,18.6-3.99,33.27,2.59,10.29,11.82,24.35,20.6,30.36l9.02-15.96c5.58-.15.62,18.03-.4,21.56-5.54,19.33-25.31,39.26-28.12,49.88-1.15,4.33-1.29,25.01-.07,29.11,2.7,9.09,62.4,44.95,74.25,53.75,25.31,18.78,59.67,48.37,64.86,81.14,2.52,15.92-4.18,51.99-8.89,68.15-4.23,14.51-20.36,31.82-18.25,46.84.84,5.99,6.18,11.06,5.62,17.51-13.31,5.91-19.9-9.47-20.18-20.99-.28-11.89,9.07-59.27,14.53-69.64,8.8-16.73,20.1-14.1,14.76-39.47-1.16-5.51-10.29-24.03-14.1-27.89-12.17-12.34-8.37-3.77-18.16-21.84-8.25-15.24-73.99-51.84-92.65-67.35-15.14-12.59-17.67-11.74-16.17-33.77,2.04-29.89,17.32-31.96,26.11-51.86,7.1-16.08-9.89-19.85-17.88-30.43-14.63-19.36.09-55.81,3.5-77.97,1.06-6.87,1.04-41.26,7.26-42.76,4-.96,5.32,5.3,4.99,8Z"/>
  <path class="st0" d="M1942.01,1257.99l1.14-10.11c-9.76-4.05-20.95-9.56-25.15-19.86,1.79-1.44,30.1,13.45,39.92,9.06,3.41-1.52,16.36-13.32,21.45-16.71,7.66-5.1,32.83-18.82,36.68-23.85,4.27-5.57,14.12-36.15,9.94-40.51l-17.98,3.98c-4.26-4.49,12.95-14.47,16.64-16.34,18.08-9.2,41.31-8.36,54.75-15.25,2.96-1.52,18.5-16.08,19.57-18.44,5.9-13.03-11.85-75.14-14.42-93.5-4.52-32.24-7.08-74.69,12.59-102.33,8.64-12.14,40.99-34.38,54.79-41.21,21.43-10.6,46.01-7.9,53.06-36.9,10.73,4.51,10.23,11.78,5.45,21.41-5.47,11.01-55.48,46-67.9,48.1-18.84,3.18-24.73-3.48-36.17,17.83-11.91,22.2-4.09,27.53-6.37,45.47-.93,7.3-6.45,7.87-6.01,20.12,1.36,37.45,17.88,76.08,20.01,114.12.68,12.18-9.64,21.66-19.05,28.89-17.04,13.1-52.52,12.44-57,17-4.07,4.14-1.04,25.45-2.43,33.57-4.05,23.75-33.86,34.07-51.39,46.61-5.75,4.11-36.7,34.35-42.12,28.86Z"/>
  <path class="st0" d="M2093.99,1484.01c3.62,13.36-9.46,19.93-21.01,20.16-10.62.21-54.65-7.72-64.57-11.58-19.06-7.42-17.65-23.84-44.97-18.14-2.48.52-24.17,10.08-25.97,11.5-4.2,3.33-6.69,12.6-10.99,16.11-5.33,4.35-12.05,3.4-17.35,8.09-5.45,4.83-18.01,22.39-22.77,29.23-9.1,13.06-43.88,72.69-55.78,76.22-8.65,2.57-30.4-.59-39.18-4-11.6-4.52-27.85-23.28-36.43-23.78-10.88-.64-18.45,15.56-27.17,21.01-20,12.52-54.41-1.22-77.06-4.57-7.96-1.18-37.81-.32-40.68-7.32-2.98-7.27,5.18-4.18,5.93-4.93-.51-6.82-3.44-11.78-4.08-18.91-.2-2.27-1.04-18.19,4.05-13.08,2.17,13.46,8.62,22.28,17.45,32.02,22.15-2.01,54.77,14.76,75.1,11.5,12.51-2,20.68-12.33,31.46-17.56,2.81-4.04-25.56-16.51-9.04-15.94,9.84.34,27.56,6.87,36.4,11.62,8.29,4.46,21.09,17.21,28.56,19.44,4.97,1.48,23.98,1.9,28.68.5,11.78-3.5,46.6-64.16,56.54-77.46,24.21-32.39,57.91-66.28,101.85-62.11,30.99,2.94,49.35,14.96,75.64,24.36,15.61,5.58,20.37,1.64,35.37-2.36Z"/>
  <path class="st0" d="M1590.02,447.98c-1.75,10.85-9.25,19.94-18,26.02,1.14-13.99,10.37-21.36,7.86-36.89-1.06-6.55-15.62-22.53-20.34-29.66-8.07-12.2-13.51-28.17-26.91-35.09-10.5-5.42-22.95-7.11-34.64-6.34l3.99,17.97c-12.03-4.84-19.41-23.9-22.9-36.08-4.15-14.46-2.74-31.96-12.99-43.01-9.85-10.61-16.37-13.96-30.86-12.65-31.01,2.81-64.3,15.5-96.26,17.73-65.88,4.59-90.2-10.69-121.36-66.6-7.4-13.27-8.92-32.42-16.93-42.85-4.18-5.44-21.41-12.16-20.65-15.47,2.91-12.62,21.47-3.96,27.94,1.96,8.16,7.47,37.52,50.27,39.56,60.44,1.78,8.91-.52,20.12,5.49,28.51s31.45,18.38,41.98,18.18c6.01-.11,11.45-3.25,17.87-2.13,6.31,1.1,7.23,6.44,18.04,6.02,37.74-1.45,76.52-18.3,114.16-20.07,15.55-.73,30.76,15.95,36.71,29.22,5.18,11.55,5.48,40.41,10.06,45.94,4.44,5.37,24.27,1.91,32.68,3.32,24.28,4.06,37.31,37.14,50.64,55.36,6.59,9.01,20.92,21.36,25.31,30.71,1.78,3.79,2.38,4.74-1.63,7.4l-8.81-1.96Z"/>
  <path class="st0" d="M1117.99,458.02c2.75,8.7,6.34,17.58,6.09,26.93-.05,1.69.8,7.03-3.05,5.03-3.8-1.97-9.03-30.82-24.09-33.92-19.01,2.76-50.43-13.12-66.97-11.26-13.13,1.47-26.01,12.42-35.93,20.2l15.95,12.01c-12.94,3.39-29.15-3.34-40.74-9.26-21.52-10.97-32.56-30.24-61.7-19.7-.75.27-8.96,10.29-10.38,12.1-32.75,41.85-62.69,111.21-118.74,125.26-19.13,4.79-54.69-2.72-73.98-8.86-22.13-7.04-37.25-26.85-62.42-10.55l-1.13-11.97c5.23-3.75,9.45-7.28,16.05-8.09,14.18-1.73,65.72,6.75,77.73,14.38,7.61,4.83,11.78,14.17,22.5,15.6,9.47,1.26,34.02-8.09,41.35-13.86,4-3.14,6.79-12.71,10.03-15.49,3.63-3.11,11.31-2.84,15.31-5.71,20.24-14.55,48.45-72.65,68.18-95.82,11.41-13.4,19.29-12.82,36.93-11.02,23.51,2.4,40.91,27.37,52.22,28,7.47.42,19.25-17.83,27.39-22.45,20.93-11.87,46.29.58,68.66,4.18,12.17,1.96,32.72.62,43.23,4.77,8.65,3.42,6.43,9.9-2.48,9.49Z"/>
  <path class="st0" d="M1163.99,1576.01c-4.76,12.49-9.08,23.03-9.43,36.76.39,3.48,15.65,21.4,19.07,26.6,6.26,9.5,15.54,28.46,23.7,34.3,10.1,7.22,26.36,10.23,38.65,10.33l-3.99-16.96,4-2.05c5.71,2.41,16.85,26.47,18.95,33.06,3.78,11.85,3.88,29.55,8.62,39.38,1.7,3.51,17.58,18.42,20.48,19.64,1.38.58,15.47-.98,18.69-1.32,56.93-6.09,141.24-41.49,187.19,9.32,21.85,24.16,27.88,48.35,40.02,75.98,6.1,13.9,14.21,14.62,26.01,21.95-7.28,11.01-19.3,7.91-28.06.1-9.05-8.06-38.66-51.44-41.02-62.98-2.09-10.19,1.3-18.91-5.97-28.03-4.95-6.21-27.06-16.04-34.89-17.27-8.47-1.34-14.16,2.99-20.77,2.54-4.82-.33-9.41-4.43-14.38-5.22-27.11-4.3-69.48,12.01-98.16,15.59-25.23,3.14-34.89,8.06-51.54-13.89-15.48-20.41-9.53-31.83-15.67-52.33-4.91-16.36-21.84-7.38-33.79-8.6-23.97-2.45-34.46-31.81-46.89-48.73-6.84-9.31-26.15-28.21-29.77-36.23-1.21-2.68-2.09-5.42-.08-7.97,3.26-5.11,7.27,2,8.03,1.99,1.7-.02,11.45-27.4,20.99-25.96Z"/>
  <path class="st0" d="M790,801.98c5.93-2.76,28.82,15.75,26,18-13.86-2.41-24.94-12.32-39.96-6.94-11.49,15-46.56,27.14-56.72,39.5-8.42,10.25-10.77,28.49-11.31,41.46l19.99-3.97c-5.41,11.11-23.23,18.41-34.93,22.05-23.98,7.45-45.61,3.61-58.5,31.16,1.22,5.09,1.18,10.31,1.73,15.49,6.37,59.92,43.11,145.11-13.35,191.22-8.08,6.6-30.58,21.96-39.58,26.42-19.09,9.46-48.14,7.95-51.39,35.63-13.47.55-11.52-14.48-5.98-23s50.73-40.55,60.57-43.44c10.5-3.08,21.32-.26,31.37-6.63,8.22-5.22,20.03-30.75,20.09-39.89.03-5.55-3.78-12.43-3.37-17.78.36-4.76,4.45-8.09,5.25-12.36,4.78-25.73-12.01-70.68-15.6-98.17-1.14-8.7-4.44-29.64-1.25-36.68.67-1.47,15.72-16.38,17.97-18.03,16.02-11.79,28.24-8.91,45.51-12.48,22.91-4.74,10.08-21.3,12.85-37.12,3.89-22.17,35.55-35.45,52.46-47.57,8.28-5.94,28.5-26.12,36.09-27.96,8.59-2.08,6.56,6.75,2.08,11.11Z"/>
  <path class="st0" d="M1939.31,650.69c3.27,3.61,10.58,10.18,12.25,12.75,13.56,20.79.17,47.8-3.36,69.77-2.14,13.33-.76,33.31-4.59,45.41-1.08,3.42-3.4,3.85-6.6,3.37l-4-7.97c-9.11,6.98-20.16,6.3-31.02,5.96,5.62-7.04,16.24-7.68,23.87-13.11,12.91-9.19,8.09-11.54,10.36-23.64,2.13-11.33,12.28-47.89,11.4-55.7-.72-6.37-17.46-39.94-23.6-35.53l-7.05,13.98c-4.44.84-2.86-1.99-3.02-5.01-.64-11.93,5.64-26.31,11.27-36.76,9.94-18.47,22.85-22.85,20.52-46.97-1-10.37-2.8-14.68-10.73-21.25-27.02-22.35-61.21-37.82-88.05-61.95-45.83-41.19-49.89-71.85-32.37-130.48,5.55-18.58,20.55-29.17,16.94-50.1-.98-5.69-4.97-9.9-5.5-15.46,11.17-2.5,18.21,4.44,19.86,15.12,2.05,13.26-5.98,61.35-11.77,73.97-8.93,19.44-23.71,14.89-15.55,43.35,1.28,4.46,7.95,20.22,10.53,23.47,4.22,5.33,13.75,7.97,17.02,12.98,2.24,3.45,1.81,7.56,3.46,10.54,9.32,16.79,46.41,34.7,62.26,45.74,6.64,4.62,42.76,31.14,44.71,35.29,4.06,8.68,1.46,31.86-1.96,41.1-4.11,11.12-23.98,31.48-24.58,37.55-.84,8.51,5.77,9.65,9.32,13.57Z"/>
  <path class="st0" d="M606,807c2.41-15.43,21.68-47.53,32.06-59.94,18.96-22.67,77.13-63.56,106.72-62.84,33.75.82,13.29,27.26,13.62,44.81.45,23.76,26.97,27.5,43.63,36-10.42,26.96-42.06-.08-53.99-13.03-5.65,9.25-16.45,16.28-23.98,25.06-12.49,14.55-42.17,60.68-45.6,78.4-1.6,8.27,2.96,24.74-8.46,22.55l-.02-8.01-13.99,3.97c2.48-7.93,11.93-10.76,9.99-19.97l-9.03,3.96c-2.49.82-4-.5-2.95-2.95,3.21-7.45,21.53-12.45,17-23.01l-9,3.98c-2.63-11,12.62-12.63,17.98-21l-9.97,3.01c-1.07-10.94,13.01-10.77,17.97-19.01l-11.98-1.98c4.63-8.07,15.09-8.57,21.05-12.95,7.07-5.21,18.06-21.61,26.92-29.08,6.95-5.86,15.16-11.96,23.7-15.29l6.32-41.67c-7.17.46-15.13-1.19-22.09.89-8.18,2.46-34.23,21.33-42.54,27.46-31.7,23.39-57.42,50.14-72.92,87.08-2.56,6.09-2.91,14.4-5.97,20-1.29,2.35.08,3.35-4.48,2.55.98-9.01-1.35-20.36,0-29Z"/>
  <path class="st0" d="M785.97,1242c7.07,22.69-31.16,32.3-47.96,26.01-2.75,28.59,1.46,58.21,8.97,86.01,2.96,10.96,6.73,24.02,11.96,34.04,4.91,9.39,19.2,18.99,12.05,25.91l-8.98-5.96-3.02,11.96-7.03-21.94c-6.08,1.14-.46,13.95-7.95,11.99l-2.04-30-5.96,9.03c-6.79,5.35-2.3-24.47-2.04-27.04l-7.96,10c-5.25-10.43,4.13-17.16,1.96-27.99l-9.97,7.99c-2.86-8.73,4.95-16.55,5.56-23.45.99-11.06-2.61-28.47-1.65-41.62.67-9.13,3.32-18.1,5.07-26.99l-24.03-31.94c-13.16-3.15-22.84,46.8-24.38,55.59-7.34,42.03-7.87,85.37,9.66,125.17.71,1.61,15.38,22.99,6.78,19.23-9.09-3.98-19.65-19.04-24.08-27.93-23.16-46.4-17.27-96.61-2.36-144.48,3.91-12.56,14.78-33.35,27.51-38.53,15.73-6.4,20.07,15.25,28.89,24.97,22.3,24.55,35.28,3.57,61-.02Z"/>
  <path class="st0" d="M1149,1786c-48-8.07-89.3-61.4-110.61-101.39-7.87-14.77-13.67-30.31-10.35-47.57,3.52-18.26,32.96-3.11,44.98-3.45,24.24-.68,24.75-28.45,36.11-43.73,23.18,7.75,1.94,43.42-13.13,51.2,15.8,24.65,46.75,45.39,72.66,59.27,18.62,9.97,24.15,10.72,44.22,13.78,11.45,1.75,11.5,8.89-.88,7.89l5.99,13.98-21.97-11.99,2.99,13.99-20.05-17.96c-7.43-2.19,1.53,9.59,1.04,9.95-13.83,3.46-13.46-18.54-23.99-16.99l3.98,9c-10.45,1.61-9.2-13.03-17.02-17.97l-3.97,11.94c-14.46-29.12-42.54-43.27-58.3-71.66l-40.69-6.31c-2.87,22.54,14.54,44.35,27.21,61.79,24.19,33.3,53.5,62.3,92.78,77.22,5.79,2.2,17.75.39,18,9-8.92-1.04-20.51,1.43-29,0Z"/>
  <path class="st0" d="M1124.01,396.01c-34.11-4.38-92.11,3.7-122.12,20.88-8.1,4.63-13.12,14.88-23.89,13.09l6-9.96c-1.63-1.24-14.06,1.28-12.01-6.01,4.57-.65,17.9-1.07,19.99-5.04,2.63-5.01-12.14-.96-9.97-8.96,10.09-2.05,23.71,5.79,29.99-3.99-.64-.66-12.3-.31-9.98-4.99,3.6-7.26,21.33,1.22,27.97-1.05l-9.99-4c5.56-9.12,18.93.5,27.99-2l-7.98-9.97c1.86-1.64,18.93,5.28,23.16,5.83,12.34,1.59,23.12-2.03,33.74-1.91,10.81.12,24.68,4.8,35.71,5.75l31.37-24.65c-11.86-16.69-32.57-18.79-51.62-22.39-39.5-7.48-76.72-9.58-115.46,3.27-9.82,3.26-20.55,11.59-28.3,13.71-13.26,3.62,9.86-17.75,12.4-19.61,15.09-11.05,49.59-20.29,68.25-21.75,27.16-2.12,91.77,9.67,112.77,26.72,39.76,32.29-18.71,32.73-23.61,58.52-1.24,6.5.81,12.45,2.59,18.51,1.65,5.65,12.39,23.59,7.11,27.09-15.64,10.39-33.34-35.13-24.1-47.08Z"/>
  <path class="st0" d="M1998,779.98c-1.79-10.99.64-22.65-.25-34.72-1.62-21.81-12.39-68.18-22.97-87.03-4.72-8.41-13.86-12.59-12.76-22.22l9.97,3.99c.53-.55,1.39-17.45,6.01-12l4.04,22c4.8,4.75,4.85-11.12,6-11.99,9.17,7.08-1.16,21.45,6,31.98l4-9.98c12.32,1.52.92,19.31,4,27.98,4.91-.78.51-11.97,7.97-9.98l-1.97,25.99c4.57-2.41,2.83-7.88,9.97-5.99-11.92,29.94.78,59.02-9.85,89.12,9.4,10.42,14.55,20.49,21.43,32.32.71,1.22.07,3.92,3.41,2.53,14.07-5.86,19.76-38.03,22.4-51.62,8.08-41.65,9.87-84.15-6.41-124.33-3.55-8.75-12.61-16.99-9.97-26.03,25.38,17.52,38.92,57.11,40.98,87.02,1.86,27.07-10.52,95.16-28.93,115.02-24.96,26.92-28.65-1.69-42.03-16.07-9.14-9.83-13.6-11.66-27.55-9.49-5.77.9-30.12,13.77-32.53,9.61-4.91-24.95,30.98-28.18,49.06-26.12Z"/>
  <path class="st0" d="M2063.98,1170.01l2.04,9.99,11.97-5.99-9.98,21.98c30.89-11.42-9.68,11.93-5.02,22l8.02-5.94,2.97,4.91-19.98,18.05c3.58,3.68,12.09-8.42,11.97-.04l-19.97,16.04c.9,3.16,14.71-4.73,11.97,1.96-4.66,6.67-14.33,7.62-19.91,12.1-8.46,6.79-18.28,21.74-28.05,29.95-6.96,5.86-15.15,11.96-23.7,15.29.41,14.54-1.69,27.94-6.32,41.67,5.47-.36,11.5.73,16.87-.11,10.64-1.66,46.84-27.18,56.96-35.04,33.17-25.72,62.05-60.66,70.19-102.83,5.33-.54,3.21-.04,3.93,2.98,8.61,35.89-27.06,86.19-54.13,107.84-14.28,11.42-57.73,37.48-74.85,39.14-52.97,5.15-12.16-32.95-26.15-57.8-6.54-11.63-30.01-16.03-40.81-23.15,12.5-23.52,41.03-1.23,52.96,12.62,27.05-20.97,61.21-66.19,70.47-99.19,1.39-4.95,2.17-31.13,8.53-26.44Z"/>
  <path class="st0" d="M1611.99,1654.01c30.08,2.78,59.83-1.82,88.85-10.17,9.06-2.61,24.82-6.96,32.56-11.44s12.12-15.14,22.59-14.39l-3.98,11.98,11.98,3-23.98,7.04,13.98,7.95-29.99,2.05,8.01,3.98v5.98s-28.02-1.97-28.02-1.97l9.04,5.96-2.11,3.99-24.92-3.96,10,9.96c-8.88,2.62-17.96-4.83-25.26-5.33-12.01-.82-28.15,2.3-41.71,1.33-8.24-.59-18.18-2.67-26.06-5.32-9.83,10.53-20.58,17.2-32.92,24.34,6.83,6.75,10.63,12.61,19.92,16.04,46.28,17.08,118.84,18.84,163.82-2.26,5.48-2.57,13.06-12.7,18.18-5.78-10.71,12.32-20.23,20.14-35.24,26.72-46.59,20.41-90.03,13.96-137.14-.29-15.48-4.68-41.56-17.43-39.41-36.29,1.09-9.55,18.93-13.89,26.84-21.14,20.37-18.66,1.65-39.06-3.01-59.98,25.84-6.02,30.2,29.29,28,47.99Z"/>
  <path class="st0" d="M1524,325.98l-5.99-11.97c8.73,1.1,12.52,12.03,21.99,9.97l-5.97-9.02c-.61-2.76.11-3.74,2.93-2.93,9.16,2.64,12.45,19.62,23.03,16.98l-3.98-11c10.99-.76,12.51,14.58,21,19.98l-3-11.98c11.16.08,11.28,14.21,19,19.98l.98-10.98,3.97-.99c5.03,21.14,22.35,28.28,35.12,41.9,7.85,8.37,14.21,19.74,20.93,29.07,14,.9,26.76,2.01,39.98,7,3.48-20.21-6.24-32.79-16.36-48.62-24.09-37.73-56.31-72.13-98.25-89.75-7.7-3.23-17.29-2.36-23.37-8.63,30.26-9.4,70.64,13.29,92.93,33.07,20.3,18.01,59.2,76.32,59.04,102.93-.21,33.71-24.01,15.43-42.95,14.89-29.02-.83-26.52,25.8-40.03,44.09-21.24-12.06-.77-43.72,14.96-52.97-30.52-35.19-76.75-68.35-124.03-73.93v-6.13s8.07-.96,8.07-.96Z"/>
  <path class="st0" d="M1501.99,530.01c.4,4.82-4.6,6.46-6.42,10.56-2.41,5.43-2.4,12.01-4.61,17.39-1.43,3.48-12.31,22.82-10.95,24.03,41.11,1.48,18.61-49.66,61.09-50.08,13.05-.13,4.73,24.11,1.26,31.45-9.57,20.18-29.94,29.57-51.28,30.72-14.79.8-42.88-9.76-44.77,9.45-.67,6.85,15.26,12.62,21.71,15.46,4.84,2.12,18.35,2.47,15.01,9.05-6.77,11.02-20.85,2.62-30.39-1.68-7.05-3.18-31-15.47-30.59-23.37,5.72-5.99,16.09,5.56,13.96-6.97l-18.01-2.01c-.94,16.21-.94,32.78-2.04,48.98-1.37,20.21-11.14,36.4,12.02,50.08-7.2,14.64-9.7,3.65-14.68-.36-10.67-8.58-17.87-9.47-19.14-25.97-1.71-22.08,12.28-54.36,11.88-75.79-.17-9.16-8.46-10.46-8.03-18.93,8.15-2.09,14.13,5.22,19.97,7.01,23.7,7.29,44.72,5.12,58.91-17.14,8.65-13.58,4.8-33.92,25.11-31.87Z"/>
  <path class="st0" d="M1151.38,552.65c4.51,3.91,11.87,17.33,13.65,23.32,6.61,22.14,1.55,38.08-13.1,54.98-6.47,7.47-30.4,24.1-29.98,31.88,1.4,25.89,43.3-7.23,48.03-2.81-.67,3.36-.79,9.73-2.04,12.45-.95,2.08-28.01,12.96-32.31,14.18-4.91,1.4-9.32,1.16-14.21,1.85s-11.32,7.06-13.42-4.45c5.39-.72,8.9-4.2,7.98-10.03-2.17-2.18-21.23,9.68-14.59,14.11l49.6,55.88c8.87,9.43,29.49-3.88,27,13.99-22.08-1.17-32,8.33-49.05-9.95-13.41-14.38-28.38-46.79-41.92-58.08-6.49-5.41-15-1.41-17.03-8.94,11.83-7.63,21.51-6.97,32.93-17.09,14.59-12.94,17.86-27.06,14.58-46.46-2.31-13.68-20.85-22.75-6.5-37.47,4.71-2.26,4.85,11.43,5.95,14.01,5.03,11.83,14.51,23.53,15.05,37.97,29.07-17.54-3.31-41.35.09-62.87,1.39-8.8,9.52-10.92,12.17-18.93,1.47-1,5.63,1.18,7.11,2.45Z"/>
  <path class="st0" d="M1663.93,1364.11l-.18,5.66c-28.06,6.72-51.28,25.13-47.22,56.72,2.16,16.78,21.29,28.25,6.47,43.47l-19.99-49.97c-2.49-3.96-7.48,3.22-8.71,5.31-11.89,20.17,11.5,34.24,8.63,55.03-.36,2.61-10.39,16.77-11.28,17.29-8.8,5.11-21.29-20.36-22.77-27.49-9-43.43,21.96-54.94,44.79-82.74-6.2-24.52-32.62-.69-47.67,2.61.57-3.87-.93-9.19-.09-12.65.41-1.71,28.1-13.16,32.08-14.34,3.43-1.02,22.72-5.2,24.55-4.69,12.46,3.45-2.03,8.75-3.62,11.63-3,13.36,15.61-2.05,15.17-4.88l-48.05-58.1c-7.73-11.59-32.77,1.51-27.16-15.07l27.87-3.22c5.66.43,15.2,8.13,19.23,12.36,12.93,13.56,29.36,48.29,41.85,58.15,4.82,3.81,10.69,2.97,16.09,4.94Z"/>
  <path class="st0" d="M1032.56,1304.54c-3.14,2.46-2.06,19.73-7.54,17.44-7-2.92-6.17-13.99-8.55-19.46-11.51-26.52-42.76-36.34-68.34-23.38-2.77,1.4-4.35,5.51-7.56,6.49-5.52,1.69-16.67-.08-16.57-7.61,11.18,1.02,17.61-7.57,24.55-10.45,4.43-1.84,9.36-2.32,13.95-4.04,2.61-.98,12.75-3.27,11.47-6.49-.92-2.31-7.92-6.62-10.51-7.48-24.17-8.02-44.14,27.02-66.6.59-6.62-7.79.68-11.01,6.88-15.39,39.22-27.69,71.7,2.33,95.12,33.4,5.57,4.5,11.28-.48,16.82-2.45,3.84-6.2-9.93-33.64-13.69-40.65.81-4.31,10.2-1.87,12.55-.58,3.94,2.17,11.81,22.72,13.55,28.44,2.09,6.91,9.32,27.8.88,31.07l-5.27-7.69c-17.01-5.32.97,16.27,5.02,15.55l57.33-48.79c5.82-8.35,6.51-17.43,3.99-26.96l8.69-1.97c6.39,3.25,1.57,9.87,1.98,14.55.93,10.78,5.59,14.06-1.81,25.23-12.33,18.62-49.02,35.1-66.34,50.63Z"/>
  <path class="st0" d="M1819.99,1056.01c2.09,8.14-5.23,14.15-7.01,19.97-6.61,21.59-4.79,42.98,15.15,56.9,13.44,9.38,34.39,4.26,33.86,25.12l-51-21.98c-4.17,26.28,16.69,26.51,33.12,34.87,15.66,7.97,14.84,16.34,15.7,32.91-33.66,4.38-59.13-19.52-61.77-52.82-.72-9.05,4.51-40.14-.01-43.98-17.37-14.75-27.14,23.26-30.04,35.01-24.29-9.71,8.22-46.26,14.34-61.66l9.68-.31-1.74,10.63,5.73,3.34.1-19.08-77.15-4.95c-9.35.07-13.58,9.01-20.22,13.88l-6.58-5.11c5.2-5.01,12.29-18.26,16.47-22.12,14.08-12.97,69.98,5.11,90.38,5.54,10.2.21,12.01-4.92,21-6.15Z"/>
  <path class="st0" d="M1322.71,1357.29c3.57,3.11,10.86,6.48,13.34,9.66,11.61,14.86-5.34,67.45-6.16,88-.5,12.51,5.91,12.35,6.1,23.04-2.43,2.54-18.23-7.87-21.96-9.02-22.6-6.98-44.1-.67-56.91,19.17-7.65,11.85-3.53,32.44-23.12,31.86-1.23-6.06,4.42-8.13,6.16-12.82,4.57-12.32,6.56-27.13,15.82-38.18-42.08-8.69-21.42,58.72-67.8,46.82-4.28-27.62,16.96-56.35,45.02-59.6,9.78-1.13,47.55,2.08,51.83-2.16,18.78-18.6-32.18-24.49-35.03-31.08-.73-2.61,8.65-8.43,9.26-8.57,2.6-.56,28.29,10.53,32.5,12.81,4.61,2.5,25.54,15.05,20.21,20.77l-10.82-1.93c-9.88,10.34,10.9,7.94,16.84,7.95.47-9.62-.65-19.47-.09-29.09.81-14.06,6.48-39.21,4.04-51.88-1.44-7.48-14.05-14.51-14.07-18-.02-2.72,3.99-7.36,6.84-6.88,3.39.58,5.73,7.16,7.99,9.13Z"/>
  <path class="st0" d="M936.28,941.72c4.87,1.02,10.55,5.89,14.81,2.49,6.83-10.68,13.12-22.2,14.91-34.93,3.05-5.57,11.85,5.3,11.62,9.37-.11,2.04-8.8,21.83-10.56,25.41s-12.69,22.61-14.61,23.88c-11.19,7.48-6.34-7.17-7.38-9.91-.55-1.45-4.24-5.51-6.1-2.07l-.98,18.04c15.49,1.12,31.54.92,46.98,2.02,22.25,1.58,35.22,11.07,52.03-11.99l6.96,6.96c-14.47,11.91-13.6,25.87-35.29,26.85-18.33.83-69.81-15.72-82.16-10.35-3.05,1.33-6.54,7.1-9.48,6.49-8.37-1.72,5.1-19.16,6.04-21.92,7.45-21.72,1.12-43.44-17.61-56.53-14.22-9.94-33.47-4.58-33.45-25.53l49.05,21.94c6.51,1.91,1.52-14.65-.24-17.78-7.83-13.94-41.71-12.55-44.7-31.3-.95-5.94.35-12.8-.13-18.89,20.4-1.69,42.94,9.97,53.68,27.34,11.47,18.56,4.03,49.26,6.61,70.39Z"/>
  <path class="st0" d="M1760,790.02c19.99,28.14,42.39-6.59,66.57.41,2.04.59,14.97,10.99,15.28,12.85-18.23,25.57-52.56,28.04-76.81,8.68-10.58-8.44-18.94-21.83-28.03-30.01-2.14-1.93-4.17-3.34-7.24-3.02-26.22,2.72,6.4,43.17,2.21,47.07-3.87-.09-8.44.81-12.02-.96s-14.1-30.83-15.41-36.59c-1.82-7.99-5.77-20.98,3.42-24.44l3.96,9.06,6.07-2.11-11.01-14.92c-13.23,12.78-27.24,24.76-40.98,36.99-15.06,13.41-26.11,15.05-22.01,40.99h-10.02c-1.31-28.78-7.06-33.66,16.18-52.84,15.78-13.03,36.71-23.91,52.73-37.28l3.12-15.89c11.62-1.37,10.02,13.33,13.12,19.87,8.85,18.65,28.93,30.49,49.7,27.96,16.19-1.98,29.43-21.22,43.13-6.83l-51.95,21.02Z"/>
  <path class="st0" d="M1195.98,552c-4.85-3.05-7.24-10.24-9.7-15.28-8.06-16.58-19.84-42.94-23.39-60.61-9.08-45.22,22.55-94.02,22.89-143.3.02-3.34-5.46-18.92-.79-18.76,34.04,20.54,31.5,64.11,24.46,98.41-2.12,10.34-7.03,19.28-9.34,28.66-8.9,36.06-13.2,74.62-4.13,110.89Z"/>
  <path class="st0" d="M1580.02,568c11.83-39.88,27.16-87.48,65.29-109.69,6.79-3.96,17.18-6.13,24.05-9.95,25.74-14.34,52.13-33.54,70.62-56.35,11.66,39.07-23.95,70.66-53.72,89.25-8.36,5.22-17.69,8.04-25.31,12.69-31.84,19.38-59.92,43.03-80.92,74.06Z"/>
  <path class="st0" d="M896,1196.02c-6.96,5.49-17.13,9.98-25.28,13.7-14.17,6.47-35.78,16.24-50.6,19.4-41.91,8.94-80.92-16.35-123.37-20.87-12.69-1.35-26.93-3.12-38.73,1.75,7.25-25.52,41.09-33.07,64.97-31.97,25.01,1.15,42.43,9.25,64.99,14.99,34.33,8.74,73.6,11.2,108.02,3Z"/>
  <path class="st0" d="M2000,1397.98c-39.76,9.59-70.81-24.9-89.63-55.35-24.34-39.38-39.83-76.32-82.42-101.66-1.09-.65-7.7-1.86-3.94-4.96,2.59-2.14,56.3,21.01,62.7,24.27,47.43,24.18,49.48,59.3,77.65,98.35,10.64,14.75,21.82,27.52,35.63,39.35Z"/>
  <path class="st0" d="M997.96,1655.98c-3.35,2.9-3.45-.61-4.08-2.98-9.41-35.1,26.84-67.85,53.5-84.62,9.32-5.86,19.06-8.8,27.95-14.05,31.69-18.7,59.62-44.16,80.64-74.34-8.32,24.3-16.98,52.71-30.38,74.6-24.87,40.65-82.67,52.15-118.59,87.41-3.26,3.2-8.16,13.2-9.05,13.97Z"/>
  <path class="st0" d="M1551.99,1733.99c-39.16-15.52-32.65-75.45-23.89-108.89,1.45-5.53,5.1-10.09,6.5-15.5,8.97-34.62,15.04-77.2,3.4-111.58,4.49-.94,4.52,2.13,6.08,4.9,10.5,18.64,28.47,61.48,29.88,82.11,1.94,28.17-6.86,41.41-13.8,66.13-7.22,25.67-12.77,56.58-8.17,82.83Z"/>
  <path class="st0" d="M911.99,810.03c.51,3.52-4.59,2.05-6.53,1.53-21.7-5.83-64.88-23.96-81.48-38.53-19.74-17.32-21.47-30.37-33.22-50.78-14.44-25.08-31.87-51.29-54.71-69.25,18.12-9.4,41.41,2.07,55.98,13.98,31.01,25.34,41.78,65.59,66.04,95.96,10.27,12.86,29.93,33.62,43.26,42.74,3.02,2.06,7.06,3.66,10.67,4.35Z"/>
  <path class="st0" d="M2078,840.02c-18.38,38.03-70.95,32.84-105.68,24.66-8.11-1.91-14.93-5.9-22.27-7.73-34.25-8.55-76.1-14.54-110.03-2.95-1.11-5.49,1.39-3.43,4.04-4.85,35.11-18.83,77.99-37.91,118.45-28.65,9.14,2.1,18.27,7.9,27.48,10.52,27.14,7.72,60.09,13.51,88.02,9Z"/>
  <path class="st0" d="M792.07,1360.08c.46-.54,10.87-1.75,13.93-3.09,13.52-5.88,18.91-23.02,27.95-34.05,13.05-15.9,30.31-29.8,48.06-39.97l-14.12-.08c-27.57,7.63-27.09,16.84-44.95,33.05-4.31,3.91-22.5,18.01-21.69,4.5s8.03-9.72,15.78-16.41c7.26-6.26,13.09-20.07,21.95-26.05l27-9.96c-23.04-6.93-46.37-5.58-70.12-6.89l-3.87-25.12,37.99-4-9.99,11.98,64.01,19.99c-11.86-21.32-19.68-40.43-48-28,2.8-6.13,23.08-19.1,27.94-17.08,7.29,3.03,27.73,37.42,35.02,45.14,4.38,4.64,19.71,11.35,18.94,14.8-2.4,10.81-16.8,4.61-21.92,5.96-22.43,5.93-59.46,65.34-81.31,78.87-5.72,3.54-12.76,5.47-19.43,6.17-3.53-.85-4.26-8.49-3.17-9.76Z"/>
  <path class="st0" d="M1941.69,680.3l1.46,7.78c-13.22,2.85-19.66,5.18-28.01,16.05-13.67,17.78-21.24,32.59-40.18,47.82-7.24,5.82-16.64,9.34-22.96,16.02,11.31-.24,25.34-4.22,35.05-9.93,17.33-10.18,25.21-34.97,46.94-36.04,2.56,18.13-7.85,15.56-16.98,24-7,6.47-11.21,17.56-20.03,23.97-8.44,6.14-17.26,6.4-26.98,9,21.01,11.27,47.04,7.65,70.1,9.89l1.89,25.12c-12.48-2.36-23.69.04-35.99,1.98l9.97-9.96-65.98-22.01c12.7,20.8,18.88,39.96,48,30-22.11,22.58-26.53,19.39-43.96-3.06-12.12-15.62-17.51-31.9-38-39.96,6.48-10.9,16.27-4.89,25.87-8.09,21.03-7.01,56.98-63.98,78.19-77.81,6.05-3.94,14.43-6.14,21.59-4.8Z"/>
  <path class="st0" d="M1528.02,500c14.71-13.06,20.09-31.99,20.06-51.09,0-4.74-2.19-9.05-2.14-13.81.06-5.65,3.54-29.34,12.22-21.83,9.19,7.96,2.54,13.87,1.78,23.63-1.07,13.74,4.98,27.07.54,40.55-2.24,6.8-10.1,10.95-10.46,18.53,21.99-8.88,38.03-27.67,54.94-43.52l19.04,14.61-23.02,28.92-1.95-13.97-59.02,30.99c14.25,3.27,32.52,13.26,44.78.78,4-4.07,5.02-10.73,9.19-13.78.75,10.67-.79,22.9-7.98,31.11-27.33.74-53.49-12.75-79.99-3.13-4.19-12.77,7.57-15.28,10.88-22.1,10.72-22.03-2.58-83.49,1.28-110.72.73-5.16,6.98-19.26,12.8-19.25l5.03,3.12c.73,3.57-6.6,10.86-7.52,14.44-3.81,14.86,4.14,27.78,5.49,41.53,2.09,21.24-.87,44.4-5.96,64.98Z"/>
  <path class="st0" d="M1205.98,1550c-8.05,6-14.67,20.11-17.42,29.55-5.64,19.32,7.21,42.59-7.6,58.45-15.38-7.44-5.16-17.32-4.86-27.06.46-14.74-7.91-26.4-.53-42.36,2.23-4.83,8.78-8.25,8.42-14.57-6.38-6.15-49.78,40.83-53.39,41.78s-18.71-11.99-18.72-14.76l23.13-29.02c2.91,1.67-4.93,16.7,1.96,13.97,6.47-2.57,17.26-11.3,24.98-15.03,10.24-4.96,21.15-9.62,32.05-12.97.58-5.17,0-3.18-2.91-4.03-12.6-3.68-31.75-9.46-41.1,1.03-3.98,4.46-3.83,13.53-9.97,13.01l7.95-29.02c19.65-1.56,39.84,3.28,59.27,6.81,4.44,1.38,19.75-7.42,21.83-3.85,6.14,10.56-9.57,15.87-12.17,23.95-5.09,15.88-.98,30.14-.81,45.02.04,3.76-2.4,7.82-2.25,12.1.84,22.84,13.44,55.67-10.56,70.85l-4.81-4.83c16.24-18.34,5.8-29.79,3.75-48.23-2.61-23.46-1.13-47.83,3.77-70.79Z"/>
  <path class="st0" d="M1624.02,1510c.28,11.57,5.67,29.26,12.31,38.67,6.2,8.78,36.67,28.16,33.63,40.22-2.07,3.65-3.21,2.31-5.97,2.27-13.81-.21-9.64-6.24-16.95-15.19-8.38-10.25-25.6-16.63-30.11-29.89-.63-1.86-2.09-23.82-6.92-18.07-4.72,23.1-7.25,46.36-6,70.02-5.89-2.3-22.06,4.55-25.13.1.98-12.55-.67-23.76-2.86-36.11,3.57-.6,7.76,13.42,11.01,8.03,2.44-4.04,3.56-16.61,5.54-22.46,4.52-13.34,10.94-26.2,15.42-39.56-1.44-1.49-29.62,17.13-31.01,19.97-3.71,7.58.88,19.91,1,28.02-5.95-5.45-18.05-20.3-15.71-28.59,1.41-5.03,41.17-30.77,47.57-36.57l11.19-16.9c9.67,1.45,5.79,17.62,7.85,24.18,2.75,8.77,34.5,38.66,43.09,46.91,15.02,14.41,45.27,29.01,38.09,54.04l-6.17.04c-2.96-24.47-17.41-25.17-32.85-37.15-18.67-14.49-33.21-33.05-47.03-51.95Z"/>
  <path class="st0" d="M839.98,790.03c-1.01,6.54-16.03-3.38-13.96,2.93,3.76,11.45,17.6,31.34,23.44,44.57,2.02,4.57,3.37,9.63,4.56,14.46,5.14-4.91,10.52-28.33,9.6-34.59-1.29-8.85-22.82-18.23-19.61-21.4l30.06,9.35c1.81,27.26-14.67,55.42-2.08,80.63-12.29,3.49-14.05-5.66-21.27-9.71-12.34-6.93-53.68-4.58-69.82-4.35-21.02.3-44.26,8.92-62.05-7.95l2.31-8.06c7.76,1.55,11.18,7.1,19.77,8.13,14.5,1.74,25.65-5.07,39.97-6.12,20.32-1.49,41.55.55,61.07,6.08,1.21-5.19-1.54-3.49-3.77-5.15-6.99-5.2-19.65-12.26-28.09-13.96-18.6-3.75-39.99,6.26-56.12-5.91,6.95-14.83,13.94-7.56,24.91-6.9,14.38.87,28.07-5.16,42.19-.17,3.78,1.34,16.69,12.09,18.9,10.08-8.05-14-17.83-28.29-28.91-40.07-3.64-3.87-15.17-9.32-15.17-14.91l16.79-18.84c8.38,8.65,14.98,18.09,27.27,21.87Z"/>
  <path class="st0" d="M1109.98,538c.47-11.6-5.09-27.78-11.59-37.39-9.37-13.85-33.85-22.94-32.38-42.6,15.2-1.67,17.48,10.78,26.94,20.04,5.41,5.29,13.25,9.88,19.08,14.92l11.95,29.01c7.6-22.7,5.81-46.15,6.29-69.7l25.75-2.29c-.28,12.16-.57,24.49,3.99,35.99l-11.98-9.98-20.01,63.99c21.41-9.14,40.92-19.47,28-45.98,4.16-.93,4.55,2.19,6.43,4.55,4.96,6.2,9.82,14.35,11.29,22.24-1.18,4.81-41.34,30.01-47.52,36.41-4.01,4.15-8.03,16.11-13.22,16.88-8.5,1.26-5.18-15.87-5.4-18.64-1.86-23.05-75.83-67.61-83-91.02-1.13-3.68-3.1-10.35-.75-13.47,7.66-10.14,9.36,8.53,11.36,12.84,6.23,13.41,16.88,14.02,26.68,21.32,5.58,4.15,20.31,17.62,25.22,22.78,8.73,9.18,14.76,20.5,22.89,30.09Z"/>
  <path class="st0" d="M2015.96,1191.95c-3.01,4.06-19.25-7.79-27.02-8.04-8.44-.27-16.45,4.96-24.1,5.92-24.08,3.02-49.07.33-72.83-3.81,8.07,8.25,26.76,17.7,37.96,19.19,14.98,1.98,34.35-5.85,50.01,2.83-2.01,19.05-16.92,8.03-26.98,7.96-7.64-.05-20.08,4.03-27.8,3.82-11.41-.32-19.93-8.59-29.17-13.82,7.75,22.81,27.42,38.72,43.19,55.9l-14.57,17.92c-6.12,1.61-18.75-20.09-28.62-19.86l1.02-4,12.96,1.04c-12.9-18.73-22.26-39.67-30.02-61-3.29,1.74-4.21,10.32-5,13.96-3.06,14.13-7.43,22.62,4.98,33.07,4.09,3.45,9.57,4.37,12.04,8.94-6.18-.63-30.03-2.87-31.79-9.29,1.54-27.45,12.34-53.68,3.8-80.68,11.91-3.69,15.43,10.51,23.87,13.11,3.58,1.1,16.86,2.68,21.13,2.85,23.96.99,78.39-8.18,96.36-.34,4.33,1.89,14.66,8.83,10.58,14.32Z"/>
  <path class="st0" d="M1739.99,494.01c.79,15.2-21.84,16.94-31.81,23.17-4.04,2.52-21.01,18.48-25.23,22.77-15.47,15.7-27.76,34.42-40.95,52.03,14.62-3.33,31.33-4.55,45.38-9.6,8.24-2.96,35.93-18.09,42.51-23.49,5.93-4.87,7.57-11.26,14.71-15.29,8.73-4.93,17.46-3.46,25.45-6.55,4.52-1.75,6.76-6.05,8.99-7.02,8.79-3.85-5.89,16.8-9.02,16.99l7.98-1c2.71,12.06-13.38,12.56-21.97,16.02l5.98,5.95-11.98,2.05,4,5.97-11.94,2.11,1.55,4.66-2.91,2.95c-25.65-1.96-42.12,14.79-66.6,19.4-17.6,3.31-36.25.15-51.14,10.87l-.96-5.95-9.99-.03,26.81-30.17c22.76-42.48,50.76-77.44,101.17-85.81Z"/>
  <path class="st0" d="M1116,1434.02l-1.99,5.97h6.91s1.07,3.98,1.07,3.98c-32.58,21.07-41.32,62.4-71.96,87.06-15.71,12.64-34.88,17.14-53.05,24.92-8.07-6.59,5.49-13.71,11.25-16.73,28.12-14.72,40.07-24.34,60.57-49.43l23.19-33.79c-11.99,5.08-26.18,5-38.4,8.58-11.12,3.26-40.54,19.13-49.42,26.58-5.99,5.02-7.49,10.82-15.11,14.89-11.64,6.22-25.07,2.1-35.03,13.95-.67-8.67,6.69-13.49,11.97-19.01l-6.99,2.98-3.08-5,.99-3.06,21.09-7.93-5.99-4.97,11.99-3.02-3.99-7.98,13.99-.03-3.99-7.97c25.18,2.74,44.42-14.28,67.58-19.42,19.59-4.34,39.41-2.91,58.4-10.58Z"/>
  <path class="st0" d="M1868,912.02c11.99,9.07,27.53,22.09,41.45,27.53,19.8,7.73,37.15,10.09,57.55,10.45,17.05.3,25.75,17.18,42.99,17-5.88,5.6-14.51,5.22-21.98,5.03l7.98,1.99-5.28,7.66-19.68-7.7-1.03,6.04-9.02-5.99-.98,5.97c-6.24,1.12-9.02-4.25-13-7.97l-1.99,7.95c-18.93-19.75-43.39-21.82-65.63-36.33-14.36-9.37-25.87-24.95-43.38-27.65-2.62-5.11,4.56-3.46,4-4.97l-5.98-9c29.55,9.38,61.98-9.74,89.28-11.32,7.37-.43,28.08.5,35.54,1.48s39.23,13.99,45.14,18.86c3.91,3.22-2.38,6.11-5.21,6.37-11.22,1.06-24.37-10.07-35.7-11.46-31.22-3.83-64.15,2.71-95.05,6.07Z"/>
  <path class="st0" d="M1314.02,404l4-8c11.5,4.86,1.67,17.11-2.01,25.01l7.98,1-6.02,9.96,6,2.99-7.97,8.05c-2.06,5.43,8.07.53,5.97,5.95-.89,2.3-11.64,12.7-14.4,17.61-7.17,12.76-9.05,27.13-17.2,40.8-10.04,16.86-27.63,28.72-32.42,48.61-5.17,1.09-3.01-1.26-4.96-3.99l-6.99,5.99c5.48-42.18-17.49-79.93-11.85-122.83,2.03-15.45,14.39-33.49,19.78-48.23l4.05.12c6.57,9.39-5.41,27.18-7.51,36.4-3.21,14.08-1.38,34.87-2.46,49.51l9.95,51.01c6.43-14.66,18.16-25.9,24.06-40.95,3.65-9.28,10.16-31.01,11.44-40.56,1.34-9.96-1.14-20.22,2.06-29.94s16.47-16.82,14.48-30.53c6.47,4.12,3.25,15.56,4,21.99Z"/>
  <path class="st0" d="M1897.99,1397.99c-17.23-3.52-17.79-26.15-27.94-39.04-17.81-22.62-46.48-42.59-70.03-58.95,3.61,29.43,13.32,59.88,31.1,83.88,4.55,6.14,14.39,12.43,17.73,18.27,5.97,10.42,2.83,26.14,13.14,34.86-6.9,3.1-12.69-4.84-17-9l1,7.98c-12.05,1.62-10.51-14.84-15.98-21.01l-6,5.03-2.04-12-5.96,4-2.04-14-4.98,3.96c-5-7.83-2.39-17.91-5.56-28.41-3.52-11.67-11.34-21.66-14.85-35.15-5.34-20.57-1.29-41.5-12.57-59.44l5.95-.96.04-10c7.12,5.43,11.35,12.82,18.15,18.83,15.5,13.69,36.94,22.31,52.79,35.21,24.51,19.95,39.31,44.59,45.03,75.95Z"/>
  <path class="st0" d="M1479.99,1491.99l1,6,9-5.98c-9.32,28.77,9.78,60.63,11.32,87.27.5,8.59-.67,32.36-2.22,40.81-.7,3.83-15.15,38.45-16.94,40.67-4.77,5.94-7.27-1.62-7.01-7.03.62-12.98,9.15-21.78,10.68-32.91,1.13-8.24,1.66-27.57,1.42-36.16-.55-19.53-5.4-39.41-8.24-58.65-9.11,12.12-20.18,26.03-25.97,40.03-3.49,8.43-12.4,37.08-12.92,45.25-.45,6.99,2.46,11.06,1.05,18.78-1.89,10.33-10.32,16.05-13.64,24.45-2.01,5.09.64,12.95-5.51,11.47l-2.04-19.99-1.99,6.01-7.74-5.3,7.77-17.71-6.01-1.01,6-11.98-6-2.99,7.97-8.04-7.97-3.96c20.1-17,21.43-41.38,35.15-62.86,11.49-17.98,20.29-21.74,28.64-43.37,1.03-2.67-.81-3.46,4.19-2.81Z"/>
  <path class="st0" d="M766,1075.98l-1.98-7.98,10.99,7.99,1.01-7.99,10.99,7.99c2.26,1.02-1.31-7.68,3.96-5.97,4.22,1.37,14.18,12.36,20.39,15.62,9.97,5.23,21.14,6.37,31.98,12.02,20.44,10.66,33.52,31.59,56.66,36.36l-5.98,5.95,7.99,6.01c-6.94,1.74-14.66-1.94-20.77-1.77-45.56,1.27-70.49,25.91-121.75,7.31-4.9-1.78-30.45-12.22-29.46-16.5,2.28-9.94,30.92,5.61,35.44,6.52,5.93,1.19,22.75,2.36,29.47,2.54,23.84.61,47.74-3.75,71.08-8.11-12.48-10.16-28.33-21.91-43.45-27.52-8.17-3.03-29.55-9.26-37.71-10.29-8.89-1.11-18.11,1.1-26.98-1.02-9.89-2.37-19.04-16-31.85-15.17,3.33-6.95,13.69-3.09,19.99-4l-5.99-4.02,1.92-5.03c4.96-4.51,21.34,9.3,24.07,7.05Z"/>
  <path class="st0" d="M889.98,620l-1.98-5.98c11.65-2.34,13.35,11.3,16.03,19.98l7.96-3.98.03,11.99,7.97-3.99.03,13.99,7.97-3.99c-3.57,21.1,9.37,35.04,15.5,51.5,8.41,22.56,3.97,48.27,14.41,69.6l-5.89.89-.04,10c-6.67-4.56-10.04-11.45-16.15-16.83-28.4-25-68.05-36.23-86.17-73.83-5.33-11.06-7.81-23.47-13.6-34.36,6.63-8.32,13.07,3.56,16.29,9.68,11.44,21.79,16.81,32.68,35.86,50.14,3.13,2.86,44.08,35.47,45.77,33.21-2.12-29.28-13.47-60.38-31.11-83.87-15.84-21.1-13.81-9.46-21.72-38.28-1.67-6.08-6.63-9.76-7.13-15.85l15.96,9.99Z"/>
  <path class="st0" d="M1203.53,564.51c6.53,8.37-5.04,41.44-6.95,53.07-3.69,22.55-8.06,46.52-6.56,69.39,2.14,32.54,15.62,55.03,4.93,88.97-8.82,27.99-12.08.15-12.93-12.96-.77-11.74,1-24.37-.05-35.95-2.76-30.69-10.05-53.78-5.96-86.01,2.46-19.35,13.07-39.87,17.51-58.49.54-2.28.77-29.86,10-18.02Z"/>
  <path class="st0" d="M1327.99,1318.01c4.3,4.14-37.05,45.2-41.01,49.97-13.3,16-23.66,34.26-38.95,49.05-20.1,19.44-42.01,27.2-65.4,40.6-3.8,2.17-22.58,19.7-24.63,9.33s30.08-25.28,37.46-30.5c19.69-13.92,42.68-29.46,58.48-47.52,22.81-26.06,35.27-64.07,74.05-70.93Z"/>
  <path class="st0" d="M1800.62,1229.36c-7.32-6.29-18.27-28.57-24.99-38-9.07-12.72-20.36-30.25-30.61-41.39-26.81-29.11-76.8-42.16-83-85.98,17.64,6.83,28.94,24.12,43.03,35.95,21.05,17.67,45.05,31.79,62.89,53.11,15.31,18.29,22.28,39.81,34.38,59.62,3.91,6.39,17.33,13.54,8.63,21.34-1.33.26-8.83-3.36-10.33-4.64Z"/>
  <path class="st0" d="M1129.99,1202.03c1.38,4.99-3.48,5.06-7.18,5.74-17.62,3.26-34.73.73-51.79,2.25-32.99,2.93-56.68,10.45-91.12,5.08-16.25-2.54-35.89-11.73-52.18-15.82-6.09-1.53-12.1-.65-17.81-2.29-10.49-3.01-.33-11.29,8.98-11.06,21.93.53,57.16,13.72,82.37,15.81,37.26,3.09,75.34-14.23,108.86-6.86,7.4,1.63,12.87,5.09,19.88,7.15Z"/>
  <path class="st0" d="M1408.01,729.99c-2.45-2.39,6.25-12.73,8.05-14.93,8.99-11.01,21.72-21.9,30.97-33.03,23.24-27.95,34.64-50.26,67.09-70.91,11.32-7.2,27.42-12.79,38.57-19.43,4.95-2.94,17.83-18.16,22.37-11.73,1.93,2.74.55,4.95-.58,7.5-3.24,7.35-64.81,45.28-77.53,56.49-31.6,27.85-44.82,76.66-88.94,86.04Z"/>
  <path class="st0" d="M1074,983.98c-3.65.46-5.94,0-9.11-1.87-10.72-6.3-23.8-23.48-33.94-32.06-21.33-18.05-45.79-32.43-63.97-54.03-15.31-18.19-22.08-38.57-33.69-58.31-4.65-7.91-13.78-10.85-11.28-21.7,8.82-8.88,32.22,34.83,36.36,40.62,9.32,13.05,21.03,31.04,31.58,42.42,27.31,29.45,73.88,41.47,84.05,84.93Z"/>
  <path class="st0" d="M1532.03,1485.99c-7.5-4.85,4.08-41.46,5.43-49.54,2.83-16.95,8.57-43.27,8.7-59.42.31-37.49-23.89-80.92.84-114.99,7.43-.08,4.58,36.49,5.02,42.94,2.15,31.14,10.53,62.73,7.95,93.99-1.81,21.99-12.36,43.55-17.5,64.5-.8,3.28-.39,29.03-10.44,22.52Z"/>
  <path class="st0" d="M1828,852.02l-1.88,9.09c-2.32,1.6-9.9,1.14-13.19.95-26.94-1.52-60.87-14.79-89.95-16.04-39.2-1.69-82.83,24.06-118.94-1.03-.07-7.53,38.27-4.54,44.94-5.02,30-2.17,59.9-10.09,90.1-8.06,30.68,2.06,58.17,18.89,88.92,20.11Z"/>
  <path class="st0" d="M1081.99,305.99c-8.23,7.37-43.51-29.02-52.12-34.86-8.65-5.87-28.64-18-37.78-22.22-9.89-4.57-27.25-2.81-24.1-14.9l38,7c-11.46-9.62-26.01-10.68-39.98-13.03.25-9.65,13.37-5.05,19.98-6-2.38-5.6-26.18-4.04-19.07-14.06,6.79-9.56,35.29,8.59,42.04,14.12,15.77,12.92,56.88,58.19,69.01,74.99,1.95,2.69,4.49,5.28,4.02,8.96Z"/>
  <path class="st0" d="M657.99,716.01c-5.16,15.65-30.22,10.47-42.97,12.01-17.88,2.17-43.93,7.46-61.05,12.95-9.04,2.9-19.69,16.34-27.93,8.03l27.95-20.98c-11.52-3.65-27,14.99-32.97,16.01-9.72,1.66,6.03-15.11,4.98-16.01-5.3-.06-7.5,5.6-13.14,5.97-15.91,1.02,3.32-15.93,11.16-18.96,10.98-4.25,22.01-1.88,33.08-5.1l100.89,6.08Z"/>
  <path class="st0" d="M1767.99,1813.99c-13.4,2-25.2-3.68-37.98-5.97-.2,2.61,4.19,3.62,6.28,4.68,10.12,5.15,20.09,8.69,31.7,7.31l-1.95,7.04-16.07,1.95c36.74,7.94,14.86,19.87-8.62,8.64-10.53-5.04-20.19-15.42-28.38-23.62-15.97-15.97-44.2-45.47-56.94-63.06-1.95-2.69-4.49-5.28-4.02-8.96,7.77-7.22,45.88,31.35,54.12,36.86,7.31,4.89,29.15,18.19,36.52,21.48,9.02,4.03,23.41,2.28,25.34,13.64Z"/>
  <path class="st0" d="M1063.97,1734.01c8.52,16.31,5.76,34.81,8.28,52.74,3.5,24.88,11.48,52.47,23.75,74.21-4.89,6.84-8.04-.6-12.05-3.91l-13.93-23.04c-5.16,10.04,18.03,34.9,17.93,37-.45,9.32-15.7-4.71-17.93-7.01l7.97,17.08c-2.59,11.16-16.05-5.13-18.39-9.67-6.75-13.07-5.82-33.95-5.69-48.48.17-18.9,2.86-38.66,4.08-57.94.18-2.79-2.23-37.51,5.99-30.97Z"/>
  <path class="st0" d="M2178.01,1320.03c-.26,4.01,6.01,1.6,8.01,1,9.09-2.72,23.07-14.37,26.95-15.06,9.72-1.73-5.99,15.1-4.97,16.02,4.17.43,17.94-13.26,20-4.95,1.19,4.78-5.81,10.25-9.33,12.63-22.77,15.35-81.67,6.22-109.68,4.36-5.68-.38-29.89,2.03-30.97-3.05,6.04-12.74,22.08-7.73,32.97-8.99,20.98-2.43,51.85-7.38,71.5-14.5,7.78-2.82,21.61-18.61,25.5-6.52-7.9,8.96-18.46,15.71-29.97,19.07Z"/>
  <path class="st0" d="M1675.99,314.01c-6.79,2.06-8.48-5.7-9.88-11.13-4.02-15.67-1.88-34.24-5-50.99-1.95-10.49-7.18-31.56-10.45-41.55-2.97-9.06-12.71-15.84-10.65-26.33,2.29-2.56,11.91,9.03,13.65,11.33l12.32,20.65c-.93-7.05-3.45-15.92-6.88-22.09-1.58-2.85-17.7-18.5-8.06-17.97,7.65.42,8.87,6.9,14.93,10.08l-7.97-21.99c3.16-3.27,13.22,7.67,14.86,10.12,10.71,15.98,7.35,37.49,7.15,54.89-.34,28.52-2.19,56.54-4.03,84.99Z"/>
  <path class="st0" d="M2152.02,659.99l9.54-17.43,1.4-16.6,7.04-1.94,1,17.98c4.94-6.31,2.11-15.12,10.01-19.95,8.89,5.87,4.09,19.99.13,28.09-7.27,14.84-43.15,46.49-57.1,58.9-11.92,10.61-24.96,20.42-37,30.96-4.17-2.86-1.97-2.93-1.55-5.45,2.1-12.75,29.12-38.45,38.17-51.89,4.5-6.68,15.49-24.46,18.77-31.23,2.95-6.1,5.78-28.88,12.56-27.4,7.9,1.72-3.3,29.8-2.95,35.98Z"/>
  <path class="st0" d="M649.99,1310.01c6.32,6.22-28.13,41.52-32.81,48.17-7.1,10.08-18.1,27.61-23.59,38.41-5.16,10.14-3.99,27.81-15.58,27.41l5-35.98c-5.06,5.9-8.11,14.5-10.11,21.89-1.69,6.23,1.6,16.33-6.87,16.1l-4-19.98-4.25,19.75-7.77.25c-2.13-15.69,2.59-26.89,12.04-38.96,13.49-17.22,61.64-60.8,79.86-74.14,2.74-2,4.04-3.77,8.08-2.9Z"/>
  <path class="st0" d="M1183.42,937.44c-5.72,6.9-53.32,26.77-57.41,22.55.64-9.78,1.19-24.33,6.29-32.7,1.49-2.44,29.59-27.85,31.63-28.48,19.97-6.14,28.5,27.77,19.49,38.62Z"/>
  <path class="st0" d="M758,1508.02l-20,17.96,23.98-11.98-11.98,15.98c7.95.36,12.73-6.7,21-6.16,3.04.2,9.37,1.7,6.05,6.23l-91.04,51.94c-.95-5.31,2.51-7.88,5.98-11l-3.92-3.87,11.92-12.13-13.97,5.01c-1.37-1.45,4.58-9.49,5.99-10.99,7.68-8.19,29.45-24.96,39.38-30.62,7.95-4.52,17.48-8.97,26.61-10.37Z"/>
  <path class="st0" d="M1584.71,1136.71c-7.71,6.64-6.55,15.42-21.56,13.2-16.64-2.47-13.34-22.94-13.74-35.34,15.59-15.47,36.89-20.58,57.66-26.33,1.91,1.28,2.73,2.09,2.83,4.53.09,2.04-4.45,24.47-5.4,26.73-2.96,7.07-14.08,12.31-19.78,17.22Z"/>
  <path class="st0" d="M1491.79,1238.21c.32,1.71.69,4.06-.16,5.49-.68,1.15-20.77,14.2-22.19,14.74-11.69,4.45-32.54-2.87-46.02-.85-19.56-12.96-3.47-32.8,11.43-41.42,21.39,2.41,38.38,12.45,56.94,22.04Z"/>
  <path class="st0" d="M1305.59,831.56c-21.3,1.19-43.99-8.75-61.08-21.03-1.01-.72-4.01-.36-2.5-3.51.71-1.48,22.79-16,25.41-16.6l42.69.48c20.53,12.4,6.2,27.81-4.52,40.65Z"/>
  <path class="st0" d="M1583.04,900c4.29-1.05,18.33,21.5,19,26.94,1.07,8.62-.17,22.27.05,32.16.21,9.12-7.37,19.01-17.09,19.01-6.76,0-24.62-14.37-25.17-21.09-1.39-16.84,13.45-43.45,23.21-57.02Z"/>
  <path class="st0" d="M1303.99,1265.99c-1.37,1.19-22.29-2.29-25.72-3.25-14.13-3.94-12.88-9.3-21.26-18.75-7.24-8.17-16.72-9.4-14.98-22.81,1.88-14.52,21.32-17.44,32.93-15.13,12.83,2.55,27.19,47.15,29.02,59.94Z"/>
  <path class="st0" d="M1143.41,1072.41c10.28-3.06,30.92,10.46,32.21,19.01s-18.15,58.61-24.63,58.55c-5.88-8.24-18.49-20.81-19.13-31,4.59-12.49-3.69-42.02,11.55-46.55Z"/>
  <path class="st0" d="M1432.01,782.01c11.37,2.94,24.6,1.86,34.02,8.96,2.34,1.76,25.73,27.78,26.51,29.61,3.47,8.22-3.46,19.14-11.95,21.01-4.12.91-20.98,2.42-23.68.6-12.09-8.16-24.52-45.51-24.9-60.18Z"/>
  <path class="st0" d="M2050,468.02l-7.99,10.99,4.1,2-10.1,12,11.98-3c1.4,1.35-4.61,9.49-6,10.98-8.53,9.1-32.16,26.69-43.35,32.65-5.99,3.19-14.12,6.05-20.63,8.35l19.99-19.97-24.98,12,12.98-16c-2.22-1.82-23.93,14.53-27.98,4.96-.73-1.73-.97-5.55,2.51-5.45l89.47-49.51Z"/>
  <path class="st0" d="M1262,1849c.77-8.68,3.75-21.23,6.12-29.88,1.98-7.23,6.14-13.8,7.9-21.11,3.57-.46,1.95,4.5,1.74,6.73-.65,6.86-3.12,13.82-1.74,21.24l8-25.99c6.82-7.34,1.59,21.37,5.95,19.99,2.43-7.01,4.46-22.59,13-24.02,3.47-.58,3.11.12,3.11,3.08l-24.1,100.94c-10.75-.85-4.28-13.5-4.01-19.98l-4,9.99c-6.49-2.67-3.38-11.96-4-17.99l-7.98,11.99c.72-11.37-.99-23.77,0-35Z"/>
  <path class="st0" d="M594,935.98l-27.99-1.96,27.98,8c.47,3.48-4.55,1.88-6.97,1.98-5.66.22-11.37-.17-17.01.02l22.08,10.89c4.69,4.05,6.02,7.35-1,9.09l-99.1-27.03c-1.88-5.83,15.75-1.84,18-3l-7.99-5.96,19.99-.04-13.99-6c1.18-4.43,5.39-3.83,8.89-4.08,17.6-1.28,55.25,5.03,71.07,13.14,2.3,1.18,5.54,1.85,6.04,4.94Z"/>
  <path class="st0" d="M1923.99,1705.99l-13-9.98-1.96,7.97-11.01-9.98,3.95,9.04c3.18,10.51-16.54-10.57-17.92-12.09-14.89-16.38-27.85-35.43-34.03-56.95l19.96,22-12-24.98,16,12.98c2.77-3.41-15.02-24.22-4.95-29.99l54.96,91.98Z"/>
  <path class="st0" d="M2193,1130c-7.3-.63-19.65-3.11-27.01-4.99-2.8-.71-26.79-8.89-23.99-10.99l28.02.98-28.01-10.01,19.98-1.01c-2.23-4.29-20.1-7.8-21.64-10.31-1.08-1.76-1.73-9.27,2.68-7.74,31.76,12.84,66.21,15.48,98.93,25.11l2.03,2.94-15.99,2.04,3.98,5.97-17.98.03,11.99,7.98c-10.74-.66-22.38.91-33,0Z"/>
  <path class="st0" d="M1458.02,167.99l5.95-7.98.05,17.99,6-12c3.65.75,3.7,3.93,4.04,6.91,1.18,10.27-2.31,36.8-4.62,47.53-2.17,10.11-7.9,19.28-9.47,29.56-3.39-.11-4.25,1.33-3.54-2.53,1.16-6.29,1.76-9.88,1.56-16.5-.07-2.41,1.49-7.45-1.98-6.97l-6.04,25.98-3.95-21.97c-4.2,8.83-5.04,26.29-18.02,23.97l26.01-103.98c7,3.44,3.06,13.8,4,19.99Z"/>
  <path class="st0" d="M823.98,352l-1.98-5.98c7.59-1.32,10.1,7.15,15.98,9.98l-5.98-11.98c5.05-3.78,24.45,20.53,27.95,25.03,10.22,13.16,20.55,28.38,24.03,44.94-7.18-4.33-9.93-19.87-19.97-19.01l13.99,24.99c-3.69,3.5-13.26-15.76-17.98-15.98.74,5.21,13.08,26.59,7.96,29.99-7.25,4.82-9.33-10.88-10.97-14-13.69-26.12-32.89-49.08-46.98-75.03.91-9.06,10.16,6.3,13.95,7.04Z"/>
  <path class="st0" d="M1820,936v5.99c11.95-1.21,17.21,2,25.02,9.99,1.88,1.92,10.77,12.81,11.49,14.51,3.7,8.85-2.67,17.51,12.33,15.43,3.04-.42,21.75-5.65,25.25-6.83,6.1-2.05,9.65-9.82,15.81-12.29,14.55,3.65-6.57,16.76-12.54,19.56-3.34,1.57-32.4,11.74-34.21,11.63-12.97-.79-12.74-16.71-17.44-24.69-1.33-2.26-14.74-16.36-16.59-17.41-6.79-3.87-18.7.22-20.81-11.36-1.95-10.73,6.04-13.34,14.68-14.52,2.83-.39,22.41-2.02,23.55-1.71,3.11.83,5.81,5.73,8.47,7.72l-2.02,4h-33Z"/>
  <path class="st0" d="M958.01,744.01c4.3-3.15,21.81,24.01,29.97,21.98,1.38-7.51-7.16-9.74-9.09-15.87-1.57-4.99-.02-25.5,1.49-30.72,1.41-4.88,9.53-5.78,7.31-13.95-1.71-6.31-12-8.2-17.13-11.02-3.65-2.01-6.77-6.39-10.45-7.55-4.4-1.38-20.56-.56-22.11-2.91-1.21-1.83.2-6.92,3.29-7.81,3.58-1.02,20.2,3.15,24.67,4.86,5.16,1.97,30.53,14.74,31.64,18.36,3.89,12.66-6.42,17.1-7.67,27.56-.56,4.72-.74,17.63.09,22.01,1.32,6.95,14.71,13.45,4.88,24.96-6.19,7.24-13.71,2.56-19.92-1.93-8.1-5.86-21.78-17.4-16.99-27.98Z"/>
  <path class="st0" d="M1647.99,614.01c4.99,4.72-24.87,23.68-21.98,31.98,6.3,1.12,10.34-7.26,14.02-8.96,4.31-1.99,23.23-1.65,28.51-.58,20.48,4.16,12.57,23.78,29.76-11.16,1.35-2.74,5.02-4.91,6.19-7.81,2.61-6.48.11-16.08,2.46-19.54,2.4-3.52,7.99-2.3,8.87,1.32.69,2.86-3.84,22.12-5.42,26.13-3.22,8.19-10.88,15.75-12.63,25.37-10.61,12.54-19.27.28-28.66-2.87-6.87-2.3-18.66-3.08-25.68-1.48-5.81,1.32-9.68,8.53-14.68,9.08-6.1.68-14.52-5.65-14.23-12.15.32-7.05,22.54-35.55,33.48-29.34Z"/>
  <path class="st0" d="M1086.01,1433.99c-2.88-3.93,24.92-21.96,21.98-29.97-7.26-1.93-9.72,6.98-14.02,8.94s-25.04-.05-30.56-1.37c-7.33-1.75-12.59-14.38-20.29-3.46-5.31,16.24-17.67,25.35-16.06,43.94-12.03,6.43-5.7-18.96-4.05-24.05,2.07-6.38,6.92-12.1,9.99-18.01,2.49-4.79,2.24-13.74,8.37-15.61,14.26-4.36,17.44,6.31,27.54,7.69,4.59.63,19.73.7,24.05-.13,4.98-.95,7.27-6.49,12.5-7.61,6.51-1.4,13.64,2,14.6,8.77,1.31,9.22-21.65,38.22-34.04,30.87Z"/>
  <path class="st0" d="M1456,1512v-33c0-1.22-4.12-3.85-5.99-2.99.4,8.63.35,16.47-5.91,23.09-1.27,1.35-14.16,12.03-15.34,12.66-9.03,4.75-20.81-.43-18.69,15.07.64,4.71,4.18,8.18,5.48,12.62.98,3.34-.05,7.46.95,11.05,1.65,5.97,17.39,17,11.5,21.49-4.92,3.75-16.99-14.42-18.8-18.18-1.54-3.2-11.27-32.83-11.17-34.65.65-11.75,15.21-11.68,22.77-15.37,5.05-2.47,17.72-13.4,19.71-18.29,2.77-6.82-.25-17.6,10.6-19.51,8.24-1.45,13.56,2.99,14.79,11.12.41,2.7,1.97,24.17,1.71,25.41-.77,3.78-6.67,11.37-11.6,9.47Z"/>
  <path class="st0" d="M1746.01,1284.01c-.62,5.84,7.16,8.06,8.95,12.03,2.05,4.55,1.59,22.87.57,28.49-1.35,7.43-10.94,14.68-8.63,19.42,4.23,6.79,11.85,6.98,17.82,10.33,3.67,2.06,5.39,6,10.12,7.88,6.87,2.73,14.05,1.78,21.16,1.86v7.98c-9.67.68-19.56-.88-28.59-4.4-5.85-2.28-27.97-13.55-29.94-18.12-4.78-11.06,12.86-27.06,8.1-48.05-1.8-7.92-14.48-15.27-6.46-25.3,4.27-5.34,10.42-4.73,16.03-2.27,1.64.72,21.09,16.95,21.82,18.16,2.29,3.78,1.97,11.28-1.98,13.95-5.06-3.57-22.75-27.25-28.99-21.95Z"/>
  <path class="st0" d="M1278,538v29c0,.87,2.23,6.34,4.97,4.98,4.53-2.25,2.44-11.29,3.91-16.1.78-2.56,17.63-18.26,20.36-19.64,6.24-3.15,16.55-.64,18.47-7.68,1.25-4.6-8.74-25.45-8.7-32.58-.98-3.79-18.28-17.8-7.99-19.97,10.04-2.12,25.45,42.71,27.11,51.03.8,17.69-16.6,13.76-27.16,20.95-2.29,1.56-11.56,11-12.74,13.26-3.58,6.86-4.53,28.86-20.18,21.78-9.31-4.21-14.59-46.39,1.94-45.02Z"/>
  <path class="st0" d="M880,1114h29c.67,0,8.47-1.84,6.98-4.97-2.43-5.11-12.96-1.44-19.09-4.92-1.72-.98-17.14-18.53-17.85-20.15-2.43-5.57.52-14.14-6.4-17.74-9.07,2.65-23.7,4.48-31.81,7.63-5.23,2.03-16.92,19.16-20.82,9.14-1.76-4.51.95-4.15,2.43-5.61,2.92-2.88,11.6-8.54,15.47-10.44,5.07-2.48,30.72-11.39,35.08-11.12,13.3.8,11.16,15.15,15.24,22.95,1.06,2.04,13.54,14.95,15.63,16.37,6.25,4.26,13.37,2.51,18.03,5.97,4.3,3.2,6.19,14,2.16,17.97-5.61,5.52-44.32,10.6-44.06-5.07Z"/>
  <path class="st0" d="M1601.99,674.01c-2.59,12.9-17.33,17.51-24.86,28.12-6.16,8.68-12.82,34.96-22.57,37.58-10.54,2.83-15.8-9.82-14.19-18.21.62-3.22,14.18-31.08,16.54-33.59,5.34-5.7,12.13-7.45,19.55-8.47,2.6-.36,3.97-3.75,3.53,1.54-14.17,7.08-23.84,23.24-27.5,38.51-2.57,10.72,2.22,11.62,7.23,3.23,3.03-5.09,3.75-11.93,6.54-17.46,7.69-15.27,20.39-24.3,35.74-31.24Z"/>
  <path class="st0" d="M1022.02,810.01l17.3,19.67c10.4,4.47,20.99,10.91,32.67,10.31,5.62-4.77-26.61-15-28.7-16.28-6.07-3.72-23.69-24.09-25.32-30.69-1.3-5.26,6.55-.93,7.86.16,4.1,3.41,7.18,10.9,11.1,14.9,10.45,10.65,38.63,18.43,43.22,24.76,6.91,9.53-1.88,20.29-12.96,19.15-2.11-.22-31.34-12.57-33.94-14.24-8.38-5.4-11.69-18.3-11.23-27.74Z"/>
  <path class="st0" d="M1762,931.98c-14.25-4.58-41.24.75-52.75,9.88-2.31,1.83-1.07,3.78-1.24,6.13,10.39,1.21,18.56-6.82,27.56-9.42,16.56-4.8,28.05.18,44.44,1.44,1.15,4.4-1.85,4.85-5.49,5.46-9.38,1.57-17.22-2.23-27.31-1.25-13.39,1.3-36.8,17-47.88,9.93-6.53-7.01-2.33-16.23,4.75-21.07,2.8-1.91,28.02-12.02,31.42-12.66,9.96-1.86,20.87,3.3,26.5,11.55Z"/>
  <path class="st0" d="M1460.02,1420c4.78-20.26-.23-38.57-12.02-55.02l-3.97,2.11c-.73,8.97,5.86,15.35,8.54,23.35,4.88,14.55,3.64,26.1-.47,40.67-.77,2.72-.24,6.2-4.08,6.9-4.55-11.3.93-20.85-.24-32.78-1.28-13.01-26.97-57.49,2.77-50.81,8.75,1.97,21.93,36.14,21.37,44.35-.45,6.59-6.37,17.19-11.9,21.24Z"/>
  <path class="st0" d="M1714,1237.98l-17.34-17.64-32.65-12.33c.32,12.35,18.85,11.86,28.65,18.33,10.93,7.21,18.16,20.09,25.32,30.68-10.64,3.59-13.53-9.45-18.91-15.09-12.5-13.09-32.47-14.92-42.11-23.88-11.68-10.86-.46-21.99,13.88-19.96,2.99.42,27.73,11.45,30.59,13.48,9.84,6.95,9.86,15.87,12.56,26.42Z"/>
  <path class="st0" d="M1273.98,630c.95,5.83-2.14,11.34-2.14,17,0,5.98,11.21,38.1,17.13,36.99,4.37-2.93,1.89-3.72,1.22-7.13-1.68-8.44-7.69-14.98-9.3-22.75-2.99-14.43.5-28.11,3.14-42.11,9.46,7.9,1.81,23.12,4.22,36.75,2.07,11.68,16.22,33.74,8.71,43.2-18.49,23.29-47.71-51.85-22.98-61.95Z"/>
  <path class="st0" d="M1035.5,1094.5c6.54,13.18,1.19,18.26-10.12,23.88-14.98,7.45-39.91,17.09-51.38-.36,11.53,4.34,43.25-2.69,51.46-10.52,1.96-1.87,3.04-7.04-.49-7.51-4.68-.62-22.65,10.74-30.09,11.88-13.57,2.07-27.66-1.55-40.87-3.9,7.85-9.84,25.58-2.31,38.82-4.15,10.34-1.44,34.14-16.73,42.67-9.33Z"/>
  <path class="st0" d="M1154,1369.98c5.65-7.95,12.87-7.56,18.41-16.57,2.82-4.57,15.36-30.41,8.56-33.39-3.03-1.33-4.66,4.14-5.67,6.21-5.41,11.17-6.73,22.31-16.23,31.84-2.25,2.25-20.1,15.31-22.11,15.9-2.86.85-3.5-.24-2.99-2.99,1.16-6.33,17.51-15.81,22.86-23.15,6.34-8.68,14.45-36.5,24.29-37.9,26.54-3.76,3.6,49.64-9.73,56.46-5.36,2.75-11.36,4.01-17.4,3.58Z"/>
  <path class="st0" d="M1712.01,4.02c10.98-6.03,12.12,4.4,19.91,7.06s37.43,4.6,39.6,16.14c1.03,5.48-1.05,16.86-8.41,16.86-18.89,0-45.72-21.91-51.09-40.07Z"/>
  <path class="st0" d="M1844,1988.02c.58,12.95-8.4,7.67-15.01,9.79-12.6,4.04-25.67,22.58-42.74,17.91-6.94-13.56-14.19-14.94,4.38-24.08,17.54-8.63,34.88-9.33,53.36-3.62Z"/>
  <path class="st0" d="M346.48,668.42c.53-.9,4.13-1.36,6.02-4.89,3.35-6.28,2.75-16.21,4.88-23.16,4.64-15.15,10.06-23.95,26.74-17.49,6.83,22.37-15.51,48.05-35.13,57.07-3.32-2.1-4.33-8.44-2.51-11.53Z"/>
  <path class="st0" d="M1766,1193.98c-20.53-4.02-38.67-21.52-52.05-36.93-4.2-4.83-26.42-32.37-21.94-37.04,16.75.21,20.61,16.54,29.94,27.04,6.31,7.1,14.97,15.52,22.02,21.98,8.86,8.11,20.55,10.08,22.02,24.96Z"/>
  <path class="st0" d="M2383.43,1370.35c5.61-1.45,8.01,3.62,6.35,8.37-.92,2.63-5.52,3.35-7.42,6.63-4.95,8.57-3.91,31.98-13.34,40.67-3.87,3.57-21.29,1.79-20.94-6.77.61-14.9,20.49-45.07,35.35-48.91Z"/>
  <path class="st0" d="M955.56,42.4c6.05,10.5-21.52,19.95-29.04,21.13-5.66.89-35.17,1.47-36.51-4.55-1.64-7.4,12.61-6.59,16.08-7.88,11.2-4.17,20.93-17.08,35.89-18.32,7.87-.65,6.4,7.25,13.58,9.63Z"/>
  <path class="st0" d="M387.42,1436.23c8.45-2.28,16.34,18.82,17.99,25.36,3.34,13.19,4.4,29.21-4.38,40.3l-6.17-3.89c5.18-15.13-26.3-40.41-17.87-53.98.34-.55,9.8-7.61,10.43-7.78Z"/>
  <path class="st0" d="M2333.02,548.02l6.04,1.93c-.56,20.42,18.87,30.69,20.59,51.51l-12.91,12.41c-19.03-3.04-24.02-62.85-13.72-65.85Z"/>
  <path class="st0" d="M1666.08,865.88l.18-5.64c14.62-9.07,31.23,1.6,46.84,1.83,6.6.1,54.91-9.69,54.86.93-4.27,3.15-11.29,6.24-16.32,7.64-16.54,4.6-45,3.12-62.42,1.15-7.42-.84-15.65-4.54-23.13-5.91Z"/>
  <path class="st0" d="M1043.99,927.99c-16.86,2.55-22.23-16.13-31.94-27.04-5.95-6.68-14.37-14.97-21.1-20.91-8.58-7.57-21.51-9.18-20.95-24.03,33.01,8.81,59.88,42.19,73.98,71.98Z"/>
  <path class="st0" d="M968.01,1184.02c25.26-10.48,59.4-10.71,86.09-5.12,13.03,2.73,25.7,11.05,4.92,13.16-14.45,1.46-34.26-5.19-52.11-4.16-11.92.69-34.91,10.61-38.9-3.88Z"/>
  <path class="st0" d="M1021.99,2045.99c-9.29,3-11.33-4.55-16.08-6.9-9.66-4.77-29.3-2.99-39.01-13.01-5.64-5.82.74-12.51-.91-20.09,23.48-1.29,51.04,16.71,55.99,40Z"/>
  <path class="st0" d="M1529.97,1425.99c-4.61,3.1-12.08-34.81-12.13-38.97-.14-13.71,2.12-47.2,7.15-59.02.98-2.31,1.86-4.45,4-5.96,13.4,12.61,1.18,33.03.93,49.05-.17,10.69,9.37,48.64.05,54.9Z"/>
  <path class="st0" d="M1198.01,1421.99c7.82-26.25,42.46-60.98,66.89-72.1,7.5-3.41,8.29,1.5,5.57,7.58-3.29,7.35-31.58,25.5-40.53,35.48-9.75,10.87-16.11,30.03-31.94,29.04Z"/>
  <path class="st0" d="M1464.01,699.99c-.7-17.1,19.73-23.76,31.04-33.94,15.02-13.5,22.17-34.06,40.93-40.05.77,4.13-.83,7.13-2.22,10.76-6.39,16.64-36.03,44.83-51.1,54.9-5.55,3.71-11.7,8.55-18.65,8.33Z"/>
  <path class="st0" d="M1207.97,624.01c10.03,25.92,10.82,58.92,5.12,86.09-.69,3.3-3.64,16.91-8.07,15.9-10.2-2.33-1.52-32.18-1.06-39.03,1.21-18.01-4.75-36.53-4.1-49.95.12-2.42,4.18-16.79,8.11-13.01Z"/>
  <path class="st0" d="M851.99,100.01c-3.98,14.46-10.95,28.6-13.47,43.51-1.31,7.72,3.02,22.06-6.51,22.47-.18-5.64.21-11.36-.01-17.01-.1-2.43,1.51-7.44-1.98-6.97-2.55,8.33.36,27.5-10.01,29.98-1.67-1.96,8.71-46.41,10.51-50.47,1.14-2.58,18.83-24.3,21.47-21.51Z"/>
  <path class="st0" d="M1655.99,4.01c1.02,5.15-1.08,3.5-3.89,5.01-11.73,6.29-24.31,10.93-35.56,18.52-3.88,2.62-14.95,14.45-17.55,14.41-1.07-.02-4.35-3.43-1-4.95l16-14.98c-5.92-2.1-27.37,18.89-29.98,15.97-2.12-2.38.45-4.79,2.44-6.59,2.67-2.42,35.25-23.52,37.62-24.32,8.21-2.79,22.93-2.43,31.92-3.06Z"/>
  <path class="st0" d="M510,1559.98c-6.31.22-12.7-.24-19.02.02-2.43.1-7.44-1.51-6.97,1.98,8.7.69,19.94,1.9,27.98,5.12,3.21,1.29,4.89-.21,4,4.89-15.24-2.9-34.49-4.76-48.88-10.1-4.12-1.53-24.88-17.32-25.07-18.89-.52-4.38,5.47-1.27,6.88-.95,9.72,2.22,18.93,7.23,28.68,9.35,11.2,2.44,26.96-.14,32.41,8.57Z"/>
  <path class="st0" d="M1137.99,2008.01l-15.99,19.97c2.39,2.18,23.41-18.92,29.99-15.97.64,2.93-.3,3.23-2.1,4.88-2.53,2.31-39.44,25.49-41.8,26.2-8.72,2.59-19.02-.82-28.07,2.9-.87-4.12,2.03-4.64,4.6-6.38,15.57-10.52,28.42-16.19,45.29-28.71,2.74-2.03,4.06-3.75,8.09-2.9Z"/>
  <path class="st0" d="M2387.99,1311.99c-5.32,1.1-3.44-1.35-4.96-3.94-6.46-10.98-11.01-22.86-18.22-33.86-4.51-6.88-14.73-11.97-11.82-20.18l16.99,15.99c-1.83-9.15-9.91-14.73-13.66-23.34-.81-1.87-3.69-6.98.68-6.62,2.51.21,27.09,38.68,28.09,41.87,2.55,8.13,2.52,21.36,2.9,30.08Z"/>
  <path class="st0" d="M383.98,796l-19.96-18c1.15,9.38,12.54,17.06,15.56,25.42.91,2.51.89,6.27-2.56,4.56-3.35-1.66-28.71-41.58-29.03-48.98l1.01-22.97c6.31,10.56,10.93,22.07,17.39,32.57,5.67,9.22,15.41,17.27,17.59,27.39Z"/>
  <path class="st0" d="M2291.98,504.04c1.47,1.66.83,4.33-2.88,3.89-18.35-2.17-41.73-18-63.1-13.94-3.27-2.44.04-3.62,2.95-3.99,6.78-.87,14.41,1.48,21.03-.99-6.74-4.42-16.06-3.99-23.95-6.08-2.39-.63-7.51.07-6.02-3.9s4.6-1.62,7.04-1.23c26.57,4.24,40.44,5.65,59.99,24.25,1.56,1.48,4.69,1.71,4.94,1.99Z"/>
  <path class="st0" d="M1884.02,1950c1.92-13.63,8.36-26.16,11.43-39.55.57-2.49,3.29-32.89,6.53-28.45.21,6.31-.22,12.7.02,19.02.09,2.41-1.5,7.44,1.97,6.96,1.61-4.6,4.54-31.64,9.03-31.94s1.32,5.64,1.1,7.03c-4.1,25.63-7.19,51.3-30.08,66.93Z"/>
  <path class="st0" d="M1575.99,1795.98c-4.82,6.52-31.71-8.09-36.98-11.99-10.66-7.88-21.83-21.97-20.99-35.99,3.84-.83,4.78,1.96,6.8,4.18,12.05,13.27,20.7,23.88,36.54,33.46,2.54,1.54,18.22,5.48,14.64,10.33Z"/>
  <path class="st0" d="M1770.01,405.99c5.77-25.44-.01-49.37-6-73.98,7.09-7.9,19.7,34.52,19.99,39.03.69,10.4-1.9,32.38-13.99,34.95Z"/>
  <path class="st0" d="M1215.98,302c-11.8-11.75-23.14-26.58-37.31-35.67-6.71-4.3-15.23-5.2-20.63-11.33,9.26-8.02,30.96,4.84,38.91,11.05,10.57,8.25,21.79,21.67,19.03,35.95Z"/>
  <path class="st0" d="M747.99,621.99c-24.53-5.36-48.28-.52-71.98,6-8.26-8.19,31.56-19.63,37.04-19.99,10.85-.71,32.16,1.35,34.94,13.99Z"/>
  <path class="st0" d="M2134.03,816.01c14.31,2.03-3.21,31.98-8.38,38.64-5.77,7.44-22.78,21.7-32.59,19.33-.65-.16-3.96-2.88-2.1-4,19.37-11.89,36.55-32.16,43.06-53.98Z"/>
  <path class="st0" d="M643.99,1176.01l-29.95,31.03c-8.39,7.42-8.28,23.2-18.02,26.96-6.6-4.95,9.52-35.6,13.97-41,7.2-8.72,22.08-19.06,33.99-16.99Z"/>
  <path class="st0" d="M963.99,1644.01c-3.79,24.92-.55,48.48,8,71.98-7.79,7.62-19.13-25.98-19.82-31.16-1.55-11.59-1.75-36.42,11.82-40.82Z"/>
  <path class="st0" d="M2059.99,1420.01c-.41,11.74-23.7,18.59-33.21,19.77-14.1,1.75-31.42,1.35-40.77-10.79,8.41-2.06,16.42,1.25,25.05,1.12,16.6-.25,33.24-5.43,48.93-10.1Z"/>
  <path class="st0" d="M915,78c.65-.03,2.2-2.5,3.96-2.04,3.56,4.78-9.11,9.49-12.98,11.02-11.9,4.69-23.36,6.45-36.08,4.14-2.09-.38-11.27-2.58-9.88-6.08,2.01-5.06,11.48-9.44,16.97-9.2,2.67.12,5.27,2.17,6.01,2.17,10.6,0,21.43.5,32,0Z"/>
  <path class="st0" d="M2311.46,520.58c9.35,8.99-2.46,43.96,4.53,57.41-5.13,1.17-3.49-1.41-5.17-3.75-10.54-14.76-13.87-36.95-7.82-54.24,1.84-3.29,6.45-1.34,8.45.58Z"/>
  <path class="st0" d="M344.01,719.99c-3.43-18.28,14.15-22.93,24.07-32.91,2.65-2.67,11.86-16.91,12.92-17.04,4.88-.59-.86,12.89-1.47,14.5-5.52,14.66-19.07,34.19-35.52,35.46Z"/>
  <path class="st0" d="M2389.99,1330c3.13,16.88-10.93,22.34-22.07,30.92l-15.91,17.07c2.85-19.6,16.6-45.55,37.98-47.99Z"/>
  <path class="st0" d="M424.6,1529.35c-9.24-8.15-2.57-25.98-2.44-36.32.1-8.03-2.82-15.06-2.14-23.03,13.63,6.11,19.5,60.81,9.01,61.89-1.33-1.06-3.16-1.42-4.43-2.54Z"/>
  <path class="st0" d="M1814,1971.98c5.53-7.07,18.5-12.68,27.17-13.81,7.39-.97,45.58-1.48,28.75,10.76-9.51,6.92-23.98.98-34.95.91-7.08-.05-13.79,3.14-20.97,2.14Z"/>
  <path class="st0" d="M2347.03,1266.01c5.26-1.09,23.39,28.34,26.02,33.94,1.77,3.77,11.37,24.45,3.92,26.04-4.2.9-10.08-18.67-12.64-23.32-5.01-9.09-17.1-21.08-19.46-30.58-.89-3.58-.92-3.65,2.16-6.07Z"/>
  <path class="st0" d="M1889.99,1888.01c3.77,9.85-9.56,66.36-20.96,63.98-2.71-.57-2.86-3.22-2.01-5.93,1.65-5.24,6.12-11.41,7.99-18.05.78-2.75,7.43-48.49,14.98-40Z"/>
  <path class="st0" d="M2293.56,518.41c1.14,2.01,1.96,8.88-2.51,7.55-6.2-1.85-14.28-7.69-22.17-9.84-12.6-3.45-29.01-1.76-38.84-11.12-.22-7.18,34.47.46,38.38,1.58,4.34,1.25,23.66,9.22,25.14,11.83Z"/>
  <path class="st0" d="M442.64,1531.37c-1.91-2.05-5.32-8.29.36-7.4,7.47,1.17,21.5,8.69,30.9,11.12,3.84.99,31.73,2.01,30.08,9.88-1.36,6.51-28.7-.56-34.01-1.95-7.81-2.04-21.82-5.75-27.33-11.65Z"/>
  <path class="st0" d="M361.82,724.16c-2.48,12.04,33.63,52.07,28.17,57.83-4.6.83-6.15-1.16-9.06-3.92-7.37-6.99-22.57-33.53-24.45-43.55-1.09-5.8-2.9-12.73,5.34-10.36Z"/>
  <path class="st0" d="M1065.99,2035.99v-5.95c17.47-.94,29.37-14.41,42.62-22.43,4.63-2.8,13.48-8.65,17.35-2.61-15.26,15.18-37.32,32.22-59.97,30.99Z"/>
  <path class="st0" d="M1661.55,12.39c5.2-.54,9.05,2.94,4.37,6.53-3.53,2.71-13.48,4.67-18.56,7.44-8.96,4.88-23.47,18.85-31.27,20.77-12.33,3.04-1.69-9.43,2.91-13.14,10-8.07,29.81-20.28,42.56-21.6Z"/>
  <path class="st0" d="M867.99,98.01c-2.79,11.11-7.7,21.11-10.68,32.3s-.34,23.94-10.31,31.65c-3.51-2.42-3.18-5.1-3.05-8.87.25-6.94,4.41-26.56,6.6-33.54,1.14-3.64,11.44-27.46,17.44-21.54Z"/>
  <path class="st0" d="M1144.44,2030.38c-1.15,1.91-1.76,6.75,2.53,5.6,3.27-1.38,9.84-14.02,14.99-6.98-13.96,11.25-24.53,20.59-43.95,16.99-.75-3.31,1.06-4.06,3.02-5.96,4.34-4.22,24.55-17.2,30.31-19.71,1.86-.81,6.98-3.69,6.62.68-.25,3.04-12.82,8.22-13.52,9.38Z"/>
  <path class="st0" d="M349.96,774.02l24.02,37.02c1.4,3.62-2.78,3.73-4.98,3.01-1.98-.65-6.36-15.68-12.99-14.04l9.99,17.97c-2.77,2.63-18.95-19.26-19.57-21.41-1.79-6.24.36-14.91-.44-21.56l3.97-.99Z"/>
  <path class="st0" d="M815.99,172.01l-5.98-.02c-1.18-.99,6.36-16.85.96-19.97-5.1-.12-2.71,9.54-3.97,14.07-.99,3.56-.56,4.66-4.99,3.9,2.53-7.36,2.07-25.86,5.84-31.14,2.06-2.89,12.99-8.84,16.13-12.85l-7.99,46.01Z"/>
  <path class="st0" d="M511.99,1586.03c.08,3.49,1.14,4.25-2.81,3.83-16.12-1.75-33.06-5.09-39.17-21.85l45.02,9.98-2.06,4.01c-1.91.27-19.04-6.89-18.93-1l17.95,5.03Z"/>
  <path class="st0" d="M1923.99,1876.01c1.43,7.46-5.78,15.96,1.02,21.98,2.73-3.92-1.12-18.66,6.98-17.98-1.04,18.9-2.17,32.37-19.97,41.99.73-12.65,3.08-29.97,7.05-42.02,1.14-3.45.11-4.78,4.92-3.97Z"/>
  <path class="st0" d="M2266,479.98c-8.43-.73-38.09-3.24-43.95-7.03-2.07-1.34-2.45-2.55-2.04-4.94,2.41-2.21,21.44,7.64,20-2-5.84-.04-14.89.01-18.01-5.99,18.46.81,33.81,3.04,44,19.96Z"/>
  <path class="st0" d="M2387.99,1273.99c-2.32,2.89-8.55-7.87-9.62-9.37-5.97-8.43-14.4-20.8-16.36-30.61,7.82.05,7.12,14.7,15.98,13.98,2.6-2.62-11.52-13.21-7-17.98,13.6,13.08,20.08,24.41,17,43.98Z"/>
  <path class="st0" d="M1618,4.02c-10.74,10.05-25.92,21.36-39.99,25.97l13.98-15.98c-.61-2.96-22.43,14-17.98,5.01.48-.96,15.57-11.91,17.26-12.75,8.33-4.16,17.78-1.7,26.72-2.25Z"/>
  <path class="st0" d="M2243.99,457.99l-25.99-4.01c1.56-7.27,13.65-.08,11.99-7.95-5.64-1.52-11.48-2.19-17.07-3.99-2.13-.69-8.56-1.58-6.91-5.01,9.64-13.69,43.42,15.66,37.97,20.96Z"/>
  <path class="st0" d="M1934.01,1901.99l4.02-25.98c8.48-2.17-.22,10.56,6.94,9.97,4.86-3.07,2.26-23.64,10-21.97,12.09,2.6-9.81,39.73-20.96,37.98Z"/>
  <path class="st0" d="M361.99,827.99l-11.97-5.99c-1.43,8.86,8.93,12.99,10.01,21,.5,3.74-.09,2.91-3.08,3.02-13.95.55-14.21-29.72-12.94-40.01,3.17-3.72,20.43,19.55,17.98,21.98Z"/>
  <path class="st0" d="M515.99,1594.01c1.21,9.05-11.53,2.38-9.99,9.97l20.83,3.84,1.18,6.17c-9.11.14-15.12,1.49-23.01-3.99-2.14-1.49-17.17-16.07-14.99-17.99l25.98,2Z"/>
  <path class="st0" d="M2389.98,1244c-1.92,1.42-15.06-16.14-15.95-19.03-2.41-7.87,10.62,2.18,11.97,1.02-2.86-8.31-11.26-14.44-9.99-23.97,17.01,4.79,17.44,27.78,13.96,41.99Z"/>
  <path class="st0" d="M799.99,148.01c1.47,1.51-1.06,20.82-2.95,24.03-3.97,6.71-5.57-8.11-6.03-10.03l-10.01,23.95c-4.21.05-3.63-16.24-1.96-19.92,1.12-2.48,17.84-21.22,20.95-18.03Z"/>
  <path class="st0" d="M1884.02,645.96c.82-13.87,13.15-24.58,26.34-26.63,1.85-.29,7.86-2.09,7.6,1.67-.13,1.81-9.47,5.22-12.01,7.95-6.45,6.91-6.8,23.36-21.93,17.01Z"/>
  <path class="st0" d="M753.99,1130.01c-24.58.4-7.74-17.67-7.98-32.02,21.32.33,5.62,18.76,7.98,32.02Z"/>
  <path class="st0" d="M1763.47,1562.53c-2.73-2.72-9.92-3.5-14.55-8.45-13.68-14.58,6.04-15.33,15.94-3.94,4.21,4.84,12.89,30.44,5.13,24.89-3.43-2.8-4.02-10.01-6.52-12.5Z"/>
  <path class="st0" d="M692.01,920.01c5.52.17,11.42,4.34,16.9,3.92,2.79-.21,27.15-10.2,24.98,2.84-1.75,10.54-40.92,7.99-41.88-6.76Z"/>
  <path class="st0" d="M980.01,1514.02c4.45-.86,7.34-3.18,11.95-1.08,2.25,1.03,16.61,18.44,15.19,21.09-9.82,18.24-22.63-12.22-27.13-20.01Z"/>
  <path class="st0" d="M1471.99,350.01c-8.98,14.95,4.64,25.1-1.85,39.12l-6.97.99c-8.11-12.23-5.96-34.54,8.82-40.11Z"/>
  <path class="st0" d="M1294,404.02c-1.95,18.14-19.84,5.38-32,7.97l3.22-14.12,28.78,6.16Z"/>
  <path class="st0" d="M965.97,474.01c-.58,18.14,29.96,15.59,22.11,33.1-14.49,1.71-26.19-17.06-26.14-30.07.01-3.95.19-3.23,4.04-3.02Z"/>
  <path class="st0" d="M2041.99,1127.99c-5.14.6-9.84-2.25-14.93-2.09-7.52.23-15.87,8.11-23.08,1.11-9.91-9.62,13.92-11.97,20.9-10.88,2.92.45,21.11,8.29,17.11,11.86Z"/>
  <path class="st0" d="M1987.98,952l-10.09-5.33c1.68-9.13-.95-38.26,14.11-25.67,7.09,5.93-5.07,23.13-4.02,31Z"/>
  <path class="st0" d="M1856.02,1410c-5.47-10.69,8.25-18.01,16.93-24.06,7.1-4.94,10.98,7.33,8.09,12.03-1.57,2.55-23.6,13.29-25.02,12.02Z"/>
  <path class="st0" d="M849.99,1402.01c1.45,16.38-16.48,29.18-31.98,27.98.37-6.51,8.7-6.77,12.92-12.06,5.64-7.08,4.79-18,19.06-15.91Z"/>
  <path class="st0" d="M1754,535.98l-11.66,1.75c-2.38-7.94-25.22-24.8-6.86-27.45,7.99-1.15,15.58,18.92,18.52,25.7Z"/>
  <path class="st0" d="M1264.02,1700c-.29-5.84,2.42-11,2.08-16.93-.24-4.19-9.25-26.39,2.92-24.6,10.91,1.61,8.36,38.35-5.01,41.53Z"/>
  <polygon class="st0" points="1469.89 1651.94 1440.05 1643.01 1447.21 1634.46 1473.93 1640.98 1469.89 1651.94"/>
  <path class="st0" d="M877.98,638.01c.6,4.02,3.58,7.97,1.08,11.97-1.37,2.19-20.45,15.65-22.95,13.92l-3.25-11.9,25.12-13.99Z"/>
  <path class="st0" d="M1004,1999.98c-11.85-.07-30.45,2.88-33.99-11.96,12.84-5.66,25.84,1.98,33.99,11.96Z"/>
  <path class="st0" d="M966,60.01c1.66,16.2-19.09,15.25-29.98,19.99-1.28-1.27,11.71-16.76,12.58-17.38,3.93-2.82,12.56-2.6,17.4-2.6Z"/>
  <path class="st0" d="M1890,660.02c6.53,5.98-17.36,3.74-20.06,3.04-13.07-3.38-16.68-18.54-5.37-16.77,6.79,1.06,15.32,15.6,25.44,13.73Z"/>
  <path class="st0" d="M844.01,1387.98c2.78-5.59,13.19-4.26,18.13-3.11,10.71,2.48,23.88,17.47,8.85,17.33-8.01-.08-15.79-15.97-26.98-14.22Z"/>
  <path class="st0" d="M1004.02,502c10.67,5.2-1.15,34.85-10.96,31.98-12.46-3.64,12.55-25.34,10.96-31.98Z"/>
  <path class="st0" d="M395.96,659.98l-3.97-.99c-1.39-5.9.04-34.38,10.99-30.98,9.21,10.35-3.81,21.86-7.01,31.97Z"/>
  <path class="st0" d="M1731.98,1546c-5.58,6.17-4.11-16.12-3.56-18.58,1.29-5.77,7.28-10.86,12.6-12.98,14.67,10.77-10.68,18.66-9.05,31.56Z"/>
  <path class="st0" d="M1800,1970.02c-2.86,5.47-23.68,26.07-29.09,18.07-8.31-12.29,21.84-17.89,29.09-18.07Z"/>
  <path class="st0" d="M1482,398.02c-4.73,11.71-22.1,24.88-33.1,14.03-.27-10.29,12.16-7.19,19.22-8.93,5.04-1.24,8.84-4.78,13.88-5.1Z"/>
  <path class="st0" d="M1254.01,1649.99c-.49-11.63,28.95-22.81,31.98-12.97,3.26,10.61-17.45,8.48-22.59,9.38-3.36.59-5.56,4.31-9.39,3.59Z"/>
  <path class="st0" d="M2331.99,622c-16.09,3.42-17.79-18.13-17.97-29.99l15.59,15.38,2.38,14.61Z"/>
  <path class="st0" d="M2340.03,1388.02l2.88,22.22-9.93,11.69c-11.96-11.01,3.26-22.88,7.05-33.91Z"/>
  <path class="st0" d="M757.58,941.5l-4.62,2.02c-7.94-1.1-7.35-26.59-10.93-33.52,10.35,7.38,20.45,17.97,15.56,31.5Z"/>
  <path class="st0" d="M1994,1137.98c-11.23,1.26-25.05-28.9-14.92-31.96,12.3-3.71,7.32,25.95,14.92,31.96Z"/>
  <path class="st0" d="M1732,50.02c11.79.75,26.07-5.18,31.89,8.75-7.78,12.28-24.47-1.43-31.89-8.75Z"/>
  <path class="st0" d="M413.49,1428.53c2.71,2.6,9.42,26.34,8.5,27.46l-15.4-12.55c-7.5-9.26-3.33-24.72,6.9-14.91Z"/>
  <path class="st0" d="M1285.99,346.01l-2.9,8.08-17.08,15.9c-1.28-5.8,13.38-30.39,19.98-23.98Z"/>
  <path class="st0" d="M2045.99,941.99c-6.39,3.24-26.35-17.65-23.98-19.98,4.79-.07,29.41,14.66,23.98,19.98Z"/>
  <path class="st0" d="M975.99,1558.01c.98,5.58-1.2,3.35-4.38,4.5-5,1.8-22.43,6.95-25.59.46-1.07-3.95,4.75-4.45,7.16-4.77,7.35-.98,15.37.26,22.81-.19Z"/>
  <path class="st0" d="M1469.99,1680.01c1.22,1.09-12.79,27.68-19.98,23.98-3.82-3.96,10.24-18.58,13.4-21.51,1.62-1.5,3.86-4.92,6.58-2.47Z"/>
  <path class="st0" d="M851.99,1438.01c2.16,2.06-9.63,30.53-13.98,25.98,2.99-9.31.47-26.67,13.98-25.98Z"/>
  <path class="st0" d="M1795.99,499.99c-9.21,1.05-18.81,3.34-28.1,1.41-3.34-.69-4.63-.65-1.89-3.37,1.93-1.91,32.08-9.19,29.99,1.96Z"/>
  <path class="st0" d="M714,1125.98c-5.85,2.23-26.93-12.4-25.99-16.95.47-2.3,3.18-3.24,5.98-2.06,5.42,2.29,15.1,14.43,20.01,19.01Z"/>
  <path class="st0" d="M833.98,634c-6.09-1.87-9.68-28.18-7.97-29.99,14.03-1.29,5.98,21.11,7.97,29.99Z"/>
  <path class="st0" d="M1436.01,1701.99c2.75-11.5,12.08-20.43,21.97-25.99,1.99,2.23-14.5,27.83-21.97,25.99Z"/>
  <path class="st0" d="M2043.99,955.99c-2.07,2.27-25.27-15.37-23.98-21.98,1.66-1.65,29.09,16.39,23.98,21.98Z"/>
  <path class="st0" d="M1900.01,1416.01c4.75-5.45,13.83,27.64,6.96,29.98-7.95,1.72-3.76-24.47-6.96-29.98Z"/>
  <path class="st0" d="M1787.99,489.99c-7.39-.86-14.73.65-21.98,1.06-3.45.19-5.1,2.46-7.97-2.05.03-1.83,34.89-13.88,29.95.99Z"/>
  <path class="st0" d="M2052,1086.02c-2.32,5.63-21.79,20.22-25.98,10.95-1.36-3.02,9.79-7.16,12.02-7.94,4.57-1.6,8.91-3.65,13.96-3.01Z"/>
  <path class="st0" d="M1305.99,1707.99c-2.74,3.04-21.31-20.92-10.99-25.95,3.32.12,12.69,24.06,10.99,25.95Z"/>
  <path class="st0" d="M1892.02,1422.01l5.97,19.02-2.99,12.93c-6.94-9.34-5.37-21.51-2.98-31.95Z"/>
  <path class="st0" d="M953.99,507.99c-1.9,1.67-15.34-3.17-18.43-4.59-3.04-1.4-8.83-2.86-7.55-7.39,9.26.66,24.25.16,25.98,11.98Z"/>
  <path class="st0" d="M707.29,1102.71c2.72,2.48,4.79,8.02,8.7,10.3-6.67,5.3-28.33-17.17-25.99-18.99,6.09-.44,12.97,4.74,17.29,8.69Z"/>
  <path class="st0" d="M709.99,950.01c5.59,4.72-23.94,13.41-25.97,13.99,2.77-10.82,15.64-15.83,25.97-13.99Z"/>
  <path class="st0" d="M1441.99,365.99c-4.22,5-15.03-22.61-13.98-25.98,3.35-3.53,19.07,19.95,13.98,25.98Z"/>
  <path class="st0" d="M1884.01,609.99c-2.41-2.38,6.75-24.4,11.97-25.99-.25,8.56-.19,27.18-11.97,25.99Z"/>
  <path class="st0" d="M1808,1550.03c-1.1,4.38-2.83,2.75-5.51,2.69-8.42-.18-21.33-1.46-20.47-12.71l25.99,10.02Z"/>
  <path class="st0" d="M1297.99,348.01c-1.79,11.19-10.7,18.71-19.97,23.99-1.92-2.19,12.07-26.59,19.97-23.99Z"/>
  <path class="st0" d="M841.97,596.01c2.37,2.24,2.59,22.62,2.03,27.03-.35,2.75-1.38,6.16-3.99,2.97.28-9.33-5.7-18.11-2.26-27.18.78-2.06,1.04-5.82,4.21-2.82Z"/>
  <path class="st0" d="M970,1548.02c-3.08,6.21-28.75,9.04-32,5.96-.62-4.85.02-3.17,2.78-4.2,9.19-3.43,19.67-1.17,29.22-1.76Z"/>
  <path class="st0" d="M1303.62,1674.45c1.7,1.1,10.11,15.3,3.38,17.51l-8.78-15.21c-1.62-3.81,3.47-3.55,5.4-2.3Z"/>
  <path class="st0" d="M717.99,956.01c-.78,8.67-10.98,10.79-17.98,9.98-1.45-6.4,15.79-11.86,17.98-9.98Z"/>
  <path class="st0" d="M955.99,514.03l-4.6,5.68c-4.62-2.2-13.65-2.78-13.38-9.7l17.98,4.02Z"/>
  <path class="st0" d="M1795.99,1539.99l-14.8-3.82-1.18-6.16c6.8.14,17.66.84,15.98,9.98Z"/>
  <path class="st0" d="M2033.99,1087.96c-32.65,15.84-9.28-9.84-1.97-4.99l1.97,4.99Z"/>
  <path class="st0" d="M1435.99,375.99c-6.41,1.47-11.87-15.86-9.98-17.98,7.07-1.91,11.86,15.82,9.98,17.98Z"/>
  <path class="st0" d="M861.99,1436.01c1.88,2.16-2.91,19.89-9.98,17.98-1.19-1.3,3.51-19.85,9.98-17.98Z"/>
  <path class="st0" d="M1881.99,596.01c1.26,3.92-3.41,17.79-6.99,17.95-5.61.25.24-19.81,6.99-17.95Z"/>
  <path class="st0" d="M1867.82,615.85l-5.81.15c-1.18-7.33,1.29-12.75,7.97-16l-2.16,15.85Z"/>
  <path class="st0" d="M1313.99,1677.99c-7.72,1.8-10.33-8.02-9.98-13.98,5.55-1.7,12.12,11.89,9.98,13.98Z"/>
  <path class="st0" d="M944.01,522.01l15.95,4.99c.08,5.36-17.44,2.96-15.95-4.99Z"/>
  <path class="st0" d="M2021.99,1078.01c1.69,5.55-11.85,12.11-13.98,9.98-1.72-8.54,8.06-9.64,13.98-9.98Z"/>
  <path class="st0" d="M864.01,1447.99l4.99-15.95c6.29,5.04,3.05,15.9-4.99,15.95Z"/>
  <path class="st0" d="M714.01,969.99c-2.89-2.58,12.32-14.62,13.98-6.96l-13.98,6.96Z"/>
  <path class="st0" d="M1425.96,370.02l6.03,13.97c-8.54.91-10.97-5.74-10-12.98l3.97-.99Z"/>
  <path class="st0" d="M1775.98,1525.99v-5.98c5.95-.48,11.92.16,15.98,4.99l-15.98.99Z"/>
</svg>