<?xml version="1.0" encoding="UTF-8"?>
<svg id="Layer_0_xA0_Image" xmlns="http://www.w3.org/2000/svg" version="1.1" viewBox="0 0 2048 2732">
  <!-- Generator: Adobe Illustrator 30.2.1, SVG Export Plug-In . SVG Version: 2.1.1 Build 1)  -->
  <defs>
    <style>
      .st0 {
        fill: #00aeef;
      }
    </style>
  </defs>
  <path class="st0" d="M1123,1525.66c-2.09-2.39-3.93-4.5-6.49-7.44,8.73-6.43,17.52-11.65,26.61-16.3,3.16-1.62,5.84-.16,6.65,3.64.33,1.55.63,3.11,2.74,5.16,1.14-2.77,2.97-5.46,3.32-8.33,2.22-18.52,4.22-37.07,6.05-55.64.55-5.61.59-11.31.38-16.95-.82-20.98-2.14-41.94-2.69-62.93-.4-15.21-4.96-29.51-8.27-44.09-2.8-12.34-5.66-24.68-9.08-36.86-4.64-16.48-6.87-33.14-6.18-50.28.38-9.65-.56-19.34-.18-28.99,1.21-29.93-2.64-58.96-12.25-87.48-3.1-9.2-2.53-19.69-3.21-29.62-.88-12.96-1.08-25.98-2.11-38.93-.36-4.49-1.62-9.21-3.69-13.2-16.08-31.04-32.46-61.92-48.7-92.88-.25-.48.07-1.27.18-2.72,1.64,0,3.69-.63,4.99.1,11.93,6.64,23.76,13.46,35.54,20.38,1.95,1.15,3.71,2.8,5.21,4.53,15.93,18.39,31.7,36.91,47.72,55.22,3.22,3.68,4.59,7.52,5.39,12.35,4.32,25.95,9.05,51.84,13.99,77.68.85,4.43,2.89,8.85,5.26,12.74,6.93,11.38,14.49,22.38,21.42,33.76,2.35,3.86,4.26,8.27,5.19,12.68,7.26,34.55,14.31,69.14,21.24,103.75,1.52,7.61,3.96,14.63,8.13,21.26,9.03,14.37,17.61,29.02,26.65,44,10.22.42,20.42,1.13,30.62,1.04,2.56-.02,5.32-2.33,7.6-4.1,14.74-11.44,29.27-23.17,44.12-34.46,4.15-3.16,8.94-5.8,13.83-7.62,23.41-8.71,46.76-17.64,70.49-25.42,48.93-16.04,94.65-39.39,141.12-61.06,3.67-1.71,7.05-5,9.45-8.35,9.5-13.25,18.64-26.77,27.71-40.32,1.41-2.1,1.97-4.87,2.54-7.42,8.54-38.36,17.01-76.73,25.54-115.09.48-2.16,1.33-4.24,2.3-7.27,2.56,1.6,4.63,2.48,6.18,3.93,7.07,6.59,13.94,13.4,20.98,20.01,3.85,3.61,7.9,7,12.84,11.36-.59,14.17-1.23,29.4-1.92,45.98,8.3.64,16.08,1.23,25.21,1.94,8.06,9.36,17.17,19.52,25.76,30.11,4.66,5.74,9.51,9.89,17.48,9.23,3.24-.27,6.59.7,10.1,1.14,5.73,8.49,11.46,16.97,16.35,24.21-4.56,11.56-8.76,21.91-12.74,32.35-7.82,20.51-2.96,16.32-24.25,21.39-110.79,26.4-221.64,52.58-332.46,78.86-3.13.74-6.19,1.77-9.32,3.52,9.48,2.95,19.79,1.19,29.95,5.22-1.46,1.69-2.06,2.98-3.05,3.45-18.09,8.48-36.29,16.71-54.3,25.35-4.73,2.27-9.18,5.38-13.22,8.74-8.66,7.21-16.97,14.83-24.76,23.57,2.25-.93,4.58-1.72,6.75-2.82,38.33-19.43,76.78-38.63,114.85-58.56,7.92-4.14,15.77-6.35,24.43-7.41,41-5.03,81.96-10.34,122.94-15.56,1.62-.21,3.21-.58,5.69-1.03-1.44-6.74-2.8-13.1-4.41-20.62,3.58-.94,6.63-1.86,9.74-2.53,52.11-11.15,103.78-23.96,154.71-39.72,6-1.86,9.52-4.58,11.61-10.63,5.08-14.77,10.86-29.3,16.46-44.19-2.4-2.72-4.53-5.24-6.78-7.66-81.92-88.57-164.29-176.75-245.57-265.91-30.5-33.45-58.23-69.42-87.74-103.79-15.53-18.08-28.69-37.41-38.48-59.19-5.98-13.31-13.03-26.14-19.39-38.77,3.36-6.52,8.88-5.68,13.62-5.87,10.32-.41,21.72,10.83,20,20.83-1.71,9.88,2.25,15.95,8.8,22.52,104.67,105.09,209.1,210.41,313.67,315.59,6.63,6.67,12.92,13.47,16.71,22.17,2.2,5.03,5.68,8.14,11.25,8.47,16.58,1,28.87,9.57,40.32,20.97,14.39,14.34,30.02,27.42,44.82,41.36,4.23,3.99,8.43,5.95,14.25,5.03,4.89-.77,9.89-.82,15.71-1.26,3.68,10.56,8.15,20.13,4.56,31.78-4.01,13.02-6.69,26.46-9.82,39.74-1.33,5.63-3.67,10.48-7.84,14.71-10.74,10.93-20.97,22.38-31.83,33.2-3.12,3.11-7.39,5.7-11.6,6.99-42.98,13.2-85.94,26.48-129.16,38.82-12.97,3.7-26.79,4.36-40.16,6.77-50.15,9.02-100.16,18.93-150.48,26.84-14.3,2.25-26.63,7.48-39.05,13.64-32.23,15.98-64.36,32.18-96.61,48.12-5.22,2.58-9.41,5.92-13.01,10.52-15.19,19.43-30.69,38.61-45.87,58.05-3.24,4.15-6.06,8.79-8.27,13.57-14.7,31.74-29.05,63.63-43.86,95.32-2.77,5.93-3.99,10.99.55,16.4,1.25,1.49,1.94,3.47,2.8,5.06-3.53,20.18-17.61,26.53-36.49,28.19-5.55-8.31-11.23-16.81-17.05-25.52-2.77,0-5.49.42-8-.12-2.35-.51-4.83-1.64-6.63-3.21-4.52-3.93-9.05-7.96-12.89-12.53-3.89-4.64-8-7.8-14.26-6.23-2.25-5.22-4.32-10.01-5.48-12.69-7.07-2.36-12.42-3.57-17.22-5.9-5.76-2.79-11.23-5.78-17.96-4.86-3.59.49-6.12-.98-8.34-4.13-4.38-6.23-9.26-12.13-14.08-18.04-5.78-7.1-5.78-8.12.73-14.94,1.81-1.9,3.57-3.85,5.46-5.89Z"/>
  <path class="st0" d="M156.02,1152.55c3.71,0,6.49-.53,8.99.09,10.93,2.71,18.67-1.61,26.46-9.2,16.94-16.51,34.86-32.01,52.18-48.12,3.57-3.32,7.18-5.75,12.11-6.09,1.64-.11,3.23-.95,4.87-1.06,12.68-.83,21.76-6.17,26.44-18.74,1.52-4.09,5.52-7.41,8.78-10.69,105.87-106.71,211.74-213.42,317.82-319.91,6.14-6.17,9.87-12.14,7.99-20.9-1.48-6.93,1.15-11.65,6.86-16.1,6.72-5.23,13.42-6.82,21.34-4.57,3.94,1.12,5.51,3.5,3.97,7.5-.36.93-.84,1.81-1.29,2.7-10.48,20.83-20.9,41.69-31.5,62.46-1.49,2.93-3.69,5.54-5.79,8.1-29.36,35.83-58.4,71.94-88.31,107.31-15.91,18.81-33.35,36.32-50.09,54.42-70.39,76.08-140.79,152.17-211.18,228.26-1.81,1.96-3.54,4-5.44,5.86-2.49,2.44-2.62,5.02-1.4,8.18,5.52,14.29,10.98,28.61,16.23,43,1.3,3.57,3.63,5.3,7.03,6.28,29.44,8.48,58.72,17.59,88.36,25.3,23.5,6.11,47.44,10.5,71.17,15.72,2.52.55,4.94,1.53,8.1,2.52-1.45,6.86-2.81,13.24-4.35,20.53,10.24,1.39,19.72,2.77,29.22,3.97,34.38,4.31,68.76,8.58,103.14,12.81,6.3.77,11.99,2.52,17.81,5.55,39.91,20.72,80.11,40.89,120.23,61.21.83.42,1.82.49,4.63,1.22-2.41-2.68-3.65-4.24-5.07-5.62-15.84-15.51-33.36-28.39-54.28-36.48-11.16-4.32-21.86-9.82-32.72-14.88-1.07-.5-1.84-1.64-4.16-3.8,10.86-3.63,21.06-2.6,31-5.44-1.97-.72-3.9-1.64-5.93-2.13-114.37-27.2-228.72-54.46-343.16-81.35-8.1-1.9-12.92-5.15-15.21-13.27-2.44-8.63-5.89-16.99-9.17-25.36-1.55-3.94-3.72-7.64-6.24-12.72,4.97-7.57,10.56-16.1,16.38-24.96,1.36-.24,3-.85,4.59-.75,12.08.71,20.56-4.58,27.4-14.41,5.5-7.89,12.48-14.74,18.71-22.13,2.5-2.97,4.91-4.39,9.33-3.91,5.51.59,11.23-.77,17.72-1.36.25-2.57.76-5.09.7-7.6-.3-10.99-.93-21.98-1.07-32.97-.04-2.73.41-6.4,2.14-8.08,9.52-9.25,19.49-18.04,29.35-26.94,2.13-1.92,4.42-3.67,7.89-6.54,1.35,4.36,2.51,7.33,3.19,10.39,8.18,37.07,16.18,74.18,24.54,111.22.97,4.31,3.44,8.43,5.88,12.22,7.93,12.33,16.28,24.39,24.22,36.71,2.83,4.39,6.4,7.36,11.12,9.54,29.04,13.39,57.65,27.78,87.08,40.24,24.81,10.5,50.53,18.85,75.86,28.1,16.27,5.94,32.62,11.66,48.81,17.8,4.27,1.62,8.43,3.96,12.05,6.74,15.08,11.55,29.99,23.33,44.83,35.19,3.57,2.85,6.71,4.1,11.68,3.23,6.41-1.12,13.19-.39,19.8-.06,5.04.25,7.74-2.17,10.15-6.31,8.21-14.11,16.88-27.95,25.1-42.05,2.14-3.67,3.91-7.8,4.77-11.95,7.6-36.52,14.89-73.09,22.46-109.61.79-3.8,2.38-7.59,4.33-10.95,3.84-6.62,7.81-13.24,12.44-19.32,10.74-14.15,16.58-29.89,18.9-47.52,2.73-20.78,6.81-41.38,10.47-62.03.38-2.15,1.48-4.43,2.9-6.1,16.84-19.8,33.77-39.53,50.8-59.16,1.68-1.94,4.15-3.28,6.43-4.6,10.65-6.19,21.39-12.25,32.04-18.44,2.37-1.37,4.55-3.11,6.89.19-11.3,21.74-22.65,43.5-33.93,65.28-6.12,11.83-14.17,23.15-17.64,35.73-3.47,12.56-3.13,26.41-2.98,39.68.24,21.64-3.85,42.33-10.85,62.59-3.19,9.24-4.17,18.69-4.22,28.46-.13,27.99-.67,55.98-1.21,83.97-.06,3.28-.98,6.57-1.76,9.8-6.09,25.25-12.92,50.35-18.1,75.79-2.83,13.92-3.11,28.39-4.12,42.64-.97,13.63-2.28,27.32-1.85,40.93.57,18.27,2.62,36.49,4.13,54.72.52,6.31,1.14,12.62,2.1,18.87.47,3.04,1.81,5.94,3.14,10.11q6.28-12,16.65-5.79c6.48,3.9,12.91,7.9,20.04,12.28-2.76,3.07-4.66,5.18-6.86,7.64,1.98,2.15,3.97,4.34,5.99,6.5,5.49,5.87,5.62,7.64.97,13.56-5.13,6.52-10.01,13.26-15.49,19.46-1.7,1.92-5.07,3.53-7.56,3.38-6.74-.41-12.22,2.18-17.99,4.98-4.8,2.33-10.13,3.56-17.44,6.02-1.06,2.5-3.1,7.3-5.37,12.66-6.14-1.53-10.4,1.38-14.21,6.14-2.89,3.61-6.98,6.25-9.96,9.79-3.65,4.34-7.46,7.33-13.54,5.95-3.6-.82-5.37,1.73-7.03,4.37-3.56,5.63-7.38,11.11-10.76,16.84-2.2,3.73-4.88,4.33-9.1,4-8.79-.7-16.24-4.77-22.5-9.91-3.94-3.23-5.89-9.5-7.41-14.78-.74-2.58.94-6.44,2.63-8.99,3.12-4.71,3.11-8.72.71-13.87-15.2-32.61-30-65.4-45.09-98.06-1.93-4.19-4.46-8.21-7.3-11.85-15.83-20.19-31.75-40.32-47.91-60.26-2.62-3.23-6.23-6.04-9.95-7.92-38.67-19.5-77.4-38.87-116.27-57.96-4.26-2.09-9.44-2.39-14.25-3.26-17.04-3.11-34.1-6.05-51.14-9.15-41.94-7.63-83.72-16.35-125.87-22.61-30.56-4.54-58.98-15.78-88.42-23.79-20.56-5.59-40.9-12.01-61.2-18.49-4.2-1.34-8.45-3.91-11.57-7.03-10.85-10.83-21.1-22.25-31.81-33.21-3.89-3.98-6.16-8.49-7.42-13.79-3.07-12.96-5.65-26.09-9.7-38.75-3.8-11.87-.37-22.12,4.06-33.03Z"/>
  <path class="st0" d="M1020.41,1563.03c-4.6,6.52-7.6,10.77-11.33,16.06,4.16,3.2,8.05,6.19,13.89,10.68-4.91,2.98-8.32,5.04-11.72,7.1,4.25,8.37,7.67,15.1,11.2,22.07-2.33,2.18-4.19,3.93-6.37,5.96,1.21,4.12,2.49,8.21,3.6,12.35.6,2.24,1.98,5.09,1.16,6.74-3.82,7.69.98,13.26,4.06,20.67,3.89-6.57,8.38-11.21,5.63-19.22-1.21-3.53.86-8.39,2.03-12.48,1.52-5.3,4.23-10.56-4.42-12.8,3.88-8,7.17-14.78,11.35-23.38-3.33-1.87-6.84-3.85-11.86-6.67,5.94-4.8,9.76-7.89,13.93-11.25-3.44-4.95-6.42-9.25-9.39-13.52,2.44-4.87,6.38-5.42,10.25-3.52,14.17,6.95,27.72,2.9,41.55-1.25,18.12-5.44,18.19-5.16,34.54,5.46,30.45,19.78,60.91,39.54,91.36,59.33q9.72,6.32,5.33,17.43c-5.26,13.32-10.28,26.74-15.91,39.9-2.15,5.03-1.61,8.62,1.94,12.61,4.87,5.47,9.33,11.31,13.82,17.1,1.74,2.24,3.09,4.78,5.22,8.11-10.08,3.79-16.39-5.09-26.44-4.32-1.09,1.36-3.01,4.08-5.25,6.52-8.8,9.56-17.68,19.05-26.56,28.54q-27.84,29.77-62.73,49.95c-8.06,4.67-8.72,5.06-13.85-2.35-7.53-10.87-17.53-17.77-29.64-22.45-8.37-3.24-16.5-7.15-24.58-11.09-3.94-1.92-7.38-1.97-11.36-.09-12.65,5.96-25.5,11.49-38.13,17.5-2.89,1.37-5.44,3.76-7.68,6.12-3.2,3.37-5.91,7.21-8.94,10.75-5.15,6.02-5.61,6.18-12.44,2.18-11.5-6.73-22.96-13.53-34.27-20.57-3.05-1.9-5.71-4.57-8.2-7.21-16.2-17.24-32.31-34.57-48.45-51.86q-6.68-7.16-16.06-3.49-7.64,2.98-14.42,2.32c5-12.57,16.09-20.33,22.62-32.16-5.52-13.98-11.24-28.48-16.96-43-1.22-3.1-2.26-6.27-3.63-9.3-1.54-3.41-.37-5.76,2.45-7.67,1.66-1.12,3.35-2.18,5.03-3.27,33.53-21.77,67.12-43.44,100.52-65.41,5.19-3.42,9.8-4.64,15.76-2.44,6.23,2.3,12.94,3.27,19.17,5.55,9.16,3.34,18.06,3.77,27.12-.04,2.13-.9,4.47-1.73,6.73-1.77,2.69-.05,5.39.77,10.35,1.59Z"/>
  <path class="st0" d="M1865.32,1065.1c-24.11-13.74-46.75-28.07-69.1-41.3.95-9.92,1.93-18.73,2.61-27.56,1.5-19.6,3.39-39.19,4.1-58.82.75-20.6.15-41.25.42-61.87.46-34.65,1.51-69.31,1.54-103.96.01-12.25-2.05-24.53-3.49-36.76-6.43-54.58-12.9-109.16-19.58-163.71-.68-5.53-2.39-11.07-4.42-16.29-9.65-24.83-19.62-49.54-29.38-74.33-3.53-8.95-3.37-9.08,6.75-12.59,1.8,2.01,3.84,4.13,5.71,6.39,17.4,21.07,34.82,42.12,52.07,63.31,2.25,2.77,3.95,6.13,5.28,9.47,8.38,21.04,17,41.99,24.63,63.3,2.99,8.35,3.77,17.52,5.25,26.36,4.07,24.31,7.87,48.66,12.05,72.94.71,4.13,2.36,8.26,4.31,12,5.24,10.01,10.87,19.81,17,30.87,8.55,0,17.18.19,25.8-.11,2.89-.1,5.82-1.22,8.58-2.28,10.27-3.92,20.42-8.13,30.73-11.95,3.03-1.12,6.51-2.16,9.6-1.77,18.5,2.34,36.95,5.07,55.4,7.81,1.39.21,2.62,1.49,5.67,3.31-3.98,1.81-6.4,3.22-9.01,4.03-8.9,2.78-17.93,5.14-26.77,8.08-3.35,1.11-7.15,2.65-9.32,5.21-17.32,20.3-38.58,36.49-57.15,55.47-4.43,4.53-8.68,9.29-13.53,13.32-5.56,4.61-7.68,10.3-8.45,17.26-4.03,36.41-8.24,72.8-12.62,109.17-3.9,32.41-8.09,64.78-12.23,97.16-.28,2.18-1.31,4.26-2.45,7.85Z"/>
  <path class="st0" d="M255.32,1023.39c-22.63,13.66-45.57,27.5-70.11,42.31-1.18-5.65-2.23-9.36-2.71-13.14-6.4-50.55-12.79-101.11-19.01-151.68-2.11-17.19-3.91-34.42-5.44-51.67-.5-5.68-2.48-9.98-6.59-13.92-11.06-10.61-20.95-22.63-32.89-32.08-14.47-11.45-26.06-25.5-39.13-38.17-2.49-2.42-5.97-4.18-9.31-5.3-8.84-2.95-17.87-5.31-26.77-8.07-2.64-.82-5.11-2.18-7.65-3.29.02-.79.05-1.58.07-2.37,2.23-.71,4.41-1.75,6.7-2.09,17.13-2.56,34.25-5.14,51.43-7.3,3.43-.43,7.28.33,10.59,1.52,9.71,3.49,19.42,7.09,28.79,11.37,11.35,5.18,22.96,2.03,34.46,1.9,1.7-.02,3.91-2.37,4.97-4.18,5.71-9.77,11.28-19.64,16.57-29.65,1.36-2.57,1.77-5.71,2.25-8.65,4.93-30.24,9.76-60.49,14.69-90.73.43-2.61,1.03-5.25,1.99-7.71,8.19-21.11,16.41-42.2,24.81-63.23,1.45-3.63,3.41-7.24,5.87-10.27,16.81-20.69,33.81-41.22,50.76-61.79,2.09-2.53,4.31-4.95,6.99-8.03,3.05,1.64,5.8,3.13,9.05,4.88-1.33,3.85-2.29,6.97-3.48,10-7.43,18.9-14.3,38.06-22.56,56.6-8,17.95-11.44,36.64-13.62,55.94-6.17,54.61-12.88,109.15-19.28,163.73-.66,5.6-.87,11.3-.78,16.95.74,48.64,1.28,97.29,2.55,145.92.75,28.6,2.63,57.18,4.19,85.75.27,4.9,1.49,9.75,2.56,16.44Z"/>
  <path class="st0" d="M985.22,2072.62c-1.64-3.49-2.89-5.34-3.4-7.38-3.72-14.86-7.99-29.63-10.6-44.68-1.26-7.28.4-15.15,1.26-22.69,2.08-18.2,4.32-36.38,6.81-54.52.64-4.69-.09-8.65-3.32-11.94-8.73-8.9-10.53-19.41-10.25-31.69.62-26.63-.29-53.3-.83-79.95-.11-5.61,1.63-9.65,4.97-14.35,9.91-13.94,23.03-22.66,38.92-27.94,3.15-1.04,6.12-2.62,9.16-3.98,5.16-2.31,10.26-2.15,15.41.14,9.43,4.2,19.16,7.82,28.25,12.64,4.49,2.38,7.76,7.01,11.75,10.43,10.63,9.15,13.73,20.38,12.84,34.41-1.49,23.58-1.83,47.31-1.04,70.93.37,11.06-1.72,20.02-9.16,27.9-3.95,4.18-4.83,9.04-4.08,14.72,2.61,19.81,4.78,39.68,7.37,59.49,1.09,8.34,1.25,16.41-1.13,24.66-3.12,10.87-5.38,21.98-8.11,32.97-.77,3.08-1.89,6.07-3.14,10.03-7.25-4.48-8.37-11.44-11.59-16.88-3.19-5.4-5.85-11.11-9.31-17.77-4.59,3.82-8.53,7.11-12.96,10.8-2.65-1.83-5.25-3.63-7.94-5.48-1.99,1.74-3.95,3.47-6.55,5.75-4.4-3.54-8.67-6.96-13.25-10.64-7.58,10.95-11.23,23.64-20.09,35.03Z"/>
  <path class="st0" d="M1785.7,1017.11c-4.37-2.05-7.36-3.12-9.99-4.75-16.69-10.35-33.33-20.78-49.9-31.31-2.2-1.39-4.16-3.3-5.89-5.26-8.34-9.49-16.67-18.99-24.73-28.71-1.55-1.86-2.81-4.79-2.64-7.11,1.52-20.51,3.46-41,5.15-61.5.71-8.62,1.69-17.28,1.56-25.91-.19-12.59-.69-25.24-2.08-37.75-5.32-47.96-11.07-95.87-16.57-143.81-.31-2.7.28-5.51.58-10.27,3,2.74,4.55,3.77,5.56,5.19,1.15,1.6,1.96,3.48,2.68,5.34,12.37,32.12,34.06,58.5,53.18,86.46.54.78,1.43,1.32,2.57,2.35,5.7-8.21,4.79-19.31,12.36-27.41,2.05,2.02,3.94,3.31,5.04,5.08,3.86,6.22,6.93,12.99,11.24,18.85,7.74,10.53,8.75,21.81,8.32,34.63-.9,26.57.11,53.21.73,79.82,1.05,44.93,2.42,89.86,3.58,134.79.08,3.15-.41,6.32-.77,11.29Z"/>
  <path class="st0" d="M265.41,1017.76c-.52-6.02-1.2-9.81-1.12-13.57.68-28.99,1.47-57.98,2.31-86.96.96-33.32,2.18-66.63,2.89-99.95.25-11.63-.45-23.29-1.19-34.91-.4-6.17.12-11.63,3.7-17.04,5.32-8.05,9.79-16.66,14.72-24.97,1.47-2.47,3.27-4.75,5.68-8.2,8.48,8.02,7.82,18.94,13.28,28.43,6.61-7.4,11.4-15.64,16.89-23.31,5.82-8.13,11.76-16.2,17.07-24.66,5.11-8.14,9.56-16.69,14.15-25.15,4.52-8.33,7.36-17.59,13.03-25.39,5.14,2.47,3.58,6.17,3.28,9.17-1.47,14.58-3.13,29.15-4.81,43.71-4.77,41.37-9.91,82.7-14.13,124.13-1.03,10.13.86,20.56,1.5,30.85,1.17,18.96,2.4,37.91,3.6,56.87.08,1.33-.22,2.82.27,3.97,4.39,10.38-1.7,16.6-7.65,24.24-13.11,16.84-28.35,30.61-47.11,40.78-8.77,4.75-16.93,10.62-25.42,15.9-2.75,1.71-5.67,3.15-10.92,6.04Z"/>
  <path class="st0" d="M1011.11,2142.55c5.96,18.86,8.26,38.67,14.03,59.77,1.39-4.19,2.38-6.51,2.91-8.92,3.25-14.62,6.37-29.27,9.6-43.9.6-2.73.22-6.27,5.56-6.83.5,2.3,1.5,4.67,1.44,7.02-.61,24.62-1.52,49.24-2.02,73.86-.15,7.24.96,14.49,1.14,21.75.16,6.57-.09,13.15-.33,19.72-.08,2.31-1.2,4.69-.84,6.87.26,1.54,1.98,3.31,3.49,3.99.94.42,3.3-.6,4.01-1.66,3.14-4.7,5.65-9.83,8.87-14.47,12.77-18.37,20.39-38.25,22.5-60.86,2.38-25.49,7.14-50.76,10.57-76.17.66-4.85.55-9.98-.22-14.82-2.24-14.11-4.93-28.01-10.45-41.47-4.16-10.15-1.83-21.15,1.05-31.48l2.34-.64c1.4,1.91,3.33,3.62,4.13,5.75,8.89,23.69,17.67,47.41,26.27,71.21.97,2.69,1.09,5.89.86,8.8-2.08,26.9-3.67,53.86-6.81,80.63-1.54,13.12-5.97,25.9-9.23,38.81-4.48,17.75-9.23,35.43-13.53,53.23-1.09,4.52-2.92,7.77-6.96,10.26-13.6,8.39-27.02,17.09-40.52,25.65-1.4.89-2.82,1.91-4.37,2.38-3.32.99-6.05-1.27-5.51-4.77.45-2.93,1.46-5.81,2.48-8.62,2.02-5.57-.2-10.58-2.25-15.42-1.43-3.39-6.39-3.24-7.8.28-1.93,4.82-4.68,9.73-2.03,15.3.71,1.48,1.25,3.16,1.37,4.78.18,2.47.87,5.68-.35,7.3-2.36,3.12-5.42.77-7.92-.82-14.07-8.9-28.19-17.74-42.09-26.9-2.26-1.49-4.44-4.24-5.11-6.81-7.98-30.25-16.35-60.43-23.11-90.96-3.07-13.86-2.82-28.46-4.04-42.73-1.2-13.94-2.45-27.87-3.44-41.82-.2-2.87.1-6.02,1.08-8.71,8.5-23.48,17.17-46.89,25.91-70.28.85-2.28,2.5-4.27,3.67-6.21,1.58.54,2.62.62,2.71.97,2.95,10.54,6.02,21.5,1.18,31.86-6.79,14.52-8.53,30.06-10.95,45.44-.9,5.71.72,11.88,1.57,17.79,4.51,31.3,9.11,62.6,13.79,93.88.43,2.9,1.16,5.96,2.6,8.47,7.45,13,15.07,25.91,22.91,38.68,1.16,1.89,3.91,4.17,5.74,4.02,4.19-.34,3.61-4.25,2.98-7.08-2.44-10.96-1.22-21.55.79-32.54,1.39-7.59-1.15-15.84-1.38-23.81-.6-21.29-.96-42.6-1.23-63.9-.03-1.99,1.24-3.99,1.91-5.98,1.01.05,2.03.09,3.04.14Z"/>
  <path class="st0" d="M927.76,2125.47c-9.96-2.83-18.47-5.26-27.1-7.71-.95-5.17.56-10.97-5.74-12.84-3.54-8.85-9.6-17.36-8.01-27.2.99-6.16.65-11.21-2.86-15.93-4.99-6.71-5.46-13.77-3.41-21.63.87-3.32,1.45-7.84-.09-10.5-10.05-17.28-8.97-36.43-10.22-55.21-.77-11.63-1.23-23.28-1.87-34.92-.13-2.32.26-5.09-.85-6.85-4.28-6.79-5.18-13.75-4.74-21.8.36-6.59-5.39-10.95-11.44-13.77-11.47-5.34-22.8-11-34.41-16.01-5.4-2.33-7.63-5.57-7.11-11.42.5-5.63.1-11.33.54-16.97.13-1.67,1.46-4.17,2.76-4.56,1.34-.41,3.83.84,4.95,2.12,5.03,5.77,9.89,11.71,14.51,17.81,2.51,3.32,5.32,4.31,9.43,3.89,9.58-.99,17.88-3.55,23.74-12.17,3.03-4.46,7.72-7.79,13.41-13.34.38-3.56,1.19-9.79,1.66-16.06.3-3.95,1.53-6.8,5.27-8.85,2.01-1.1,4.8-4.09,4.46-5.61-2.38-10.67,3.95-17.68,9.58-25.07.39-.52.93-.92,2.56-2.48,8.35,2.19,17.64,4.36,26.74,7.13,4.37,1.33,5.26,4.32,2.87,8.7-2.54,4.67-6.07,8.81-8.46,13.54-1.87,3.71-3.57,7.91-3.78,11.98-.86,16.63-.79,33.31-1.75,49.92-.47,8.1.87,15.12,6.3,21.25,1.08,1.21,1.71,2.82,2.83,4.73-4.41,9.46-8.89,19.06-13.48,28.91,4.01,4.77,7.83,9.32,12.06,14.36-3.46,10.24-6.67,20.68-10.58,30.86-2.05,5.35-2,9.68,2.52,13.41,10.38,8.59,11.77,19.12,7.25,31.25-3.85,10.33-3.19,20.77-.4,31.35,2.12,8.03,2.96,16.4,5.1,24.42,3.96,14.79-.17,28.93-2.23,45.28Z"/>
  <path class="st0" d="M1150.49,2108.57c.17,2.79.31,5.08.54,8.72-8.64,2.61-17.35,5.23-27.39,8.26-.89-4.9-1.47-8.66-2.26-12.39-2.86-13.61-2.48-27.11,1.1-40.54.69-2.57.89-5.28,1.67-7.81,5.04-16.39,5.25-32.78-.32-49.03-2.21-6.46-1.27-11.91,3.88-16.2,9.68-8.06,10.52-17.21,4.91-28.06-2.57-4.97-3.35-10.84-5.69-15.97-2.32-5.1-1.33-8.77,2.61-12.41,2.64-2.45,4.79-5.43,7.41-8.48-3.71-7.9-7.01-15.53-10.83-22.88-2.23-4.3-2.93-8.05.66-11.8,5.29-5.52,5.78-12.24,5.49-19.47-.63-15.65-1.01-31.31-1.08-46.97-.03-7.3-1.75-13.71-6.33-19.44-2.07-2.59-3.86-5.45-5.47-8.36-3.41-6.18-2.31-9.25,4.28-11.11,7.99-2.26,16.1-4.11,24.5-6.22,7.76,8.61,15.67,16.84,10.95,30.23,10.02,2.91,11.54,9.92,11.48,18.1-.03,3.95,1,7.9,1.28,9.99,5.96,5.92,11.58,10.14,15.43,15.61,6.4,9.09,15.84,8.81,24.94,9.56,1.94.16,4.5-2.36,6.13-4.21,4.4-5,8.35-10.39,12.7-15.43,1.75-2.03,4.08-3.56,7.72-6.65,2.53,11.3,2.29,20.51,1.48,29.57-.18,2.05-3.74,4.32-6.21,5.54-10.74,5.32-21.6,10.42-32.53,15.34-9.41,4.24-15.22,10.32-13.53,21.59.41,2.74-.16,6.26-1.63,8.54-3.65,5.66-4.16,11.73-4.42,18.12-.7,17.31-1.81,34.61-2.43,51.93-.34,9.46-2.02,18.44-6.72,26.72-3.63,6.39-4.76,13.25-2.23,20.08,2.38,6.43.62,11.69-2.79,16.87-3.81,5.77-5.25,11.57-3.66,18.76,1.76,8-6.69,25.19-13.65,29.89Z"/>
  <path class="st0" d="M1740.36,653.24c-1.94-4.16-3.47-6.93-4.57-9.87-7.38-19.62-14.83-39.23-21.92-58.96-2.76-7.67-6.65-14.24-12.44-20.1-13.58-13.73-26.54-28.08-40.04-41.89-5.47-5.59-8.9-11.25-10.25-19.48-2.94-18.03-7.93-35.72-11.88-53.59-1.93-8.74-3.3-17.6-5.18-26.36-.55-2.55-1.86-4.96-3.02-7.34-9.03-18.56-18.04-37.13-27.24-55.6-1.91-3.84-4.37-7.46-6.96-10.89-19.72-26.01-39.54-51.93-59.3-77.91-2.54-3.33-6.3-6.5-1.67-12.38,2.26,1.18,4.92,2.15,7.11,3.76,22.54,16.57,45.01,33.23,67.46,49.92,1.83,1.36,3.61,3,4.91,4.85,18.23,25.84,35.57,52.37,54.9,77.35,9.17,11.86,15.03,24.61,20.17,38.19,5.66,14.94,11.13,29.97,17.46,44.63,8.91,20.63,14.32,42.06,17.86,64.19,5.36,33.52,11.47,66.92,17.28,100.36.55,3.17,1.86,6.41-2.66,11.08Z"/>
  <path class="st0" d="M310.82,653.22c-5.41-5.12-3.12-9.27-2.53-12.85,4.03-24.3,8.36-48.55,12.61-72.82,2.87-16.39,5.59-32.82,8.77-49.15,1.33-6.81,3.17-13.61,5.63-20.1,10.63-28.01,21.6-55.89,32.39-83.84,1.91-4.96,3.45-9.9,8.45-13.02,2.1-1.31,3.3-4.11,4.83-6.29,18.21-25.87,36.37-51.77,54.65-77.59,1.5-2.11,3.53-3.96,5.62-5.52,21.91-16.3,43.88-32.54,65.86-48.74,2.32-1.71,4.88-3.08,7.04-4.43,3.84,2.56,4.43,5.12,2.38,8.17-1.3,1.93-2.73,3.78-4.14,5.63-19.39,25.43-38.85,50.8-58.12,76.31-3.18,4.21-5.91,8.84-8.29,13.56-7.2,14.26-14.19,28.64-21.15,43.03-4.17,8.62-8.38,16.99-9.42,27.01-1.13,10.84-4.8,21.4-7.14,32.13-3.33,15.26-6.25,30.6-9.82,45.8-.69,2.95-3.24,5.68-5.44,8.04-15.03,16.04-30.38,31.79-45.21,48.02-3.92,4.29-7.26,9.57-9.39,14.97-7.91,20.14-15.17,40.52-22.75,60.79-1.22,3.27-2.82,6.39-4.82,10.89Z"/>
  <path class="st0" d="M156.97,1135.39c1.46-4.11,2.41-7.22,3.66-10.2,5.28-12.59,10.86-25.06,15.88-37.76,2.34-5.94,6.18-9.85,11.53-13.11,46.07-28.12,92.06-56.35,137.98-84.71,5.35-3.3,10.45-7.17,15.09-11.4,40.38-36.83,80.61-73.82,120.93-110.71,2.5-2.28,4.55-5.8,9.57-4.92-.12,1.6.21,3.07-.37,3.93-1.29,1.91-2.96,3.58-4.59,5.23-62.87,63.43-125.79,126.82-188.58,190.34-5.14,5.2-10.02,9.35-18.09,8.18-2.34-.34-5.63,1.62-7.59,3.46-22.06,20.78-44.02,41.67-65.79,62.74-3.51,3.4-6.85,4.79-11.54,3.48-5.67-1.58-11.42-2.89-18.11-4.55Z"/>
  <path class="st0" d="M1894.67,1135.55c-8.66,1.9-15.66,4.02-22.81,4.71-2.57.25-5.88-2.51-8.16-4.64-15.34-14.34-30.49-28.88-45.69-43.36-6.5-6.2-13.13-12.27-19.37-18.72-2.58-2.66-5.24-4.06-8.78-3.48-6.21,1.02-10.57-1.49-14.92-5.89-63.72-64.49-127.6-128.82-191.39-193.23-1.95-1.97-3.44-4.4-4.01-8.22,1.66.27,3.53.15,4.93.91,1.71.92,3.03,2.57,4.51,3.92,40.29,36.94,80.54,73.92,120.93,110.76,4.64,4.24,9.77,8.08,15.12,11.38,45.65,28.18,91.35,56.27,137.17,84.17,5.99,3.64,10.07,8.03,12.66,14.64,5.94,15.14,12.58,30.01,19.82,47.07Z"/>
  <path class="st0" d="M465.96,852.85c1.12-2.56,2.04-5.24,3.38-7.68,31.3-56.91,61.87-114.24,94.23-170.55,24.72-43.01,51.63-84.77,77.77-126.96,9.47-15.29,19.46-30.25,29.37-45.26,4.79-7.25,5.32-7.27,12.91-4.25,8.28,3.3,8.21,3.85,7.66,12.52-.48,7.61-3.09,12.63-11.13,13.95-5.78.95-8.9,5-11.55,9.98-5.62,10.59-11.64,20.96-17.58,31.38-2.98,5.22-6.15,10.3-5.32,16.76.44,3.42-1.16,6.05-4.52,6.77-4.94,1.06-6.81,4.91-8.99,8.66-11.04,19.01-21.95,38.1-33.25,56.96-3.03,5.05-3.75,9.28-1.01,14.78,3.4,6.81,2.9,8.22-4.37,11.4-6.89,3.01-10.95,7.89-14.44,14.29-19.91,36.56-40.07,73-60.35,109.36-2.55,4.56-5.9,8.87-9.62,12.54-11.16,10.98-22.67,21.61-34.11,32.3-2.03,1.89-4.39,3.43-6.59,5.13-.83-.7-1.66-1.39-2.49-2.09Z"/>
  <path class="st0" d="M1405.43,587.73c2.26-11.56-4.61-19.82-9.51-28.77-4.31-7.88-9.07-15.53-13.14-23.53-2.88-5.66-6.65-9.42-12.95-11.32-8.47-2.56-13.51-12.38-9.68-20.27,1.65-3.4,7.13-5.16,11.15-7.11,3.33-1.62,5.62.69,7.39,3.36,7.91,11.93,16.14,23.66,23.68,35.82,28.06,45.27,56.43,90.36,83.62,136.15,18.34,30.89,34.9,62.85,52.25,94.33,14.14,25.65,28.28,51.3,42.36,76.99,1.65,3.02,2.92,6.25,5.39,11.62-4.15-1.45-6.18-1.58-7.34-2.66-13.65-12.7-27.26-25.46-40.64-38.44-2.55-2.48-4.27-5.91-6.03-9.09-19.99-36.11-40.03-72.19-59.77-108.44-3.63-6.66-7.68-12-14.96-15.11-7.04-3-7.65-4.73-4.14-11.55,2.86-5.56,1.87-9.67-1.13-14.66-10.64-17.68-20.99-35.54-31.2-53.47-3.51-6.16-6.81-12.22-15.34-13.84Z"/>
  <path class="st0" d="M509.35,921.85c0,2,.49,4.03-.07,5.7-22.52,67.51-45.12,135-67.82,202.45-.32.94-1.99,1.42-3.96,2.72-1.2-2.84-2.61-5.03-3.03-7.39-6.06-33.72-11.95-67.48-17.98-101.21-.76-4.25.06-7.37,3.21-10.72,27.13-28.87,54-57.98,80.99-86.97,2.12-2.27,3.85-5.59,8.65-4.58Z"/>
  <path class="st0" d="M1614.04,1132.13c-6.65-1.27-6.55-6.42-7.82-10.18-10.75-31.8-21.29-63.67-31.88-95.53-10.17-30.6-20.35-61.19-30.41-91.83-1.29-3.94-1.92-8.1-2.91-12.39,5.79-1.4,7.52,2.47,9.8,4.9,13.89,14.79,27.66,29.69,41.47,44.56,12.68,13.65,25.19,27.46,38.12,40.86,3.67,3.8,4.72,7.35,3.79,12.43-6.08,33.36-11.89,66.76-17.87,100.13-.43,2.4-1.51,4.68-2.3,7.04Z"/>
  <path class="st0" d="M1485.9,452.18c3.01-.15,5.3-.47,7.57-.35,20.95,1.08,41.91,2.15,62.84,3.46,2.5.16,5.11,1.41,7.32,2.74,20.31,12.13,40.55,24.36,60.78,36.62,1.69,1.02,3.36,2.22,4.72,3.64,17,17.86,33.97,35.75,50.86,53.7,1.46,1.56,2.35,3.66,4.25,6.69-12.47,2.93-24.13.29-35.84,2,1.83,11.96,8.02,22.55,9.44,34.08-4.74,2.04-5.5-1.31-6.96-3.23-13.29-17.52-26.42-35.16-39.83-52.59-3.42-4.45-7.35-8.63-11.57-12.33-16.29-14.27-32.59-28.55-49.34-42.28-5.54-4.54-12.14-8.14-18.78-10.89-12.91-5.35-26.2-9.78-39.32-14.63-2.62-.97-5.98-1.26-6.15-6.62Z"/>
  <path class="st0" d="M367.4,557.45c1.37-2.03,2.49-4.28,4.15-6.04,16.65-17.71,33.36-35.37,50.15-52.95,1.8-1.89,4.12-3.36,6.37-4.73,19.36-11.75,38.67-23.58,58.22-35,3.49-2.04,7.98-2.91,12.09-3.22,18.93-1.42,37.88-2.47,56.83-3.59,3.17-.19,6.36-.03,9.41-.03,1.13,4.86-1.75,5.46-4.17,6.35-13.13,4.81-26.21,9.75-39.41,14.33-8.32,2.88-15.87,6.82-22.11,13.12-.93.94-2.02,1.73-3.03,2.6q-52.73,45.14-94.21,101.02c-1.71,2.31-3.56,4.51-6.01,7.62-4.51-7.56.76-12.79,1.98-18.36,1.26-5.79,3.35-11.4,5.5-18.45h-34.31c-.48-.89-.95-1.78-1.43-2.67Z"/>
  <path class="st0" d="M601.04,660.31c10.76-18.59,20.92-36.14,31.41-54.27,5.97,1.21,8.95-2.64,11.53-7.72,3.01-5.93,6.7-11.51,10.01-17.29,2.07-3.62,5.19-6.89,2.11-11.79-.83-1.33.53-4.43,1.49-6.42,3.92-8.09,8.08-16.07,12.16-24.08,3.18-6.24,8.67-8.51,16.49-9.52-.38,3.56-.36,6.44-1.04,9.14-3.07,12.27-6.27,24.51-9.58,36.71-.69,2.54-1.88,4.97-3.09,7.32-3.05,5.92-6.12,11.84-9.4,17.63-26.16,46.12-49,93.83-69.13,142.88-1.94,4.72-5.29,9.21-8.96,12.81-16.65,16.33-33.62,32.34-50.54,48.39-2.49,2.36-5.34,4.34-8.18,6.62-4.11-4.97-.87-7.92.76-10.81,7.84-13.93,15.86-27.76,23.81-41.63,10.94-19.07,21.96-38.09,32.72-57.26,1.92-3.42,3.97-6.22,7.94-6.78,4.95-.7,7.46-3.87,9.2-8.12.76-1.84,1.61-3.7,2.75-5.32,5.01-7.15,5.86-13.94-2.46-20.48Z"/>
  <path class="st0" d="M1364.48,528.6c8.88,2.16,14.63,5,17.82,12.15,3.12,6.98,6.87,13.68,10.35,20.49,1.79,3.51,4.17,6.69,1.31,11.07-.8,1.23.58,4.36,1.62,6.24,4.04,7.27,8.54,14.29,12.47,21.62,2.29,4.28,5.12,6.75,10.14,5.44,10.52,18.13,20.83,35.9,31.24,53.85-2.42,3.7-4.56,6.98-7.04,10.79,2.42,4.91,5.09,9.86,7.34,14.99,2.13,4.85,4.94,8.24,10.58,9.45,2.43.52,4.99,3.19,6.35,5.54,19.34,33.41,38.5,66.93,57.63,100.47,1.51,2.65,4.56,5.35.72,9.37-1.49-.74-3.46-1.21-4.73-2.42-19.35-18.3-38.65-36.66-57.84-55.12-1.84-1.77-3.18-4.22-4.3-6.58-2.28-4.81-4.36-9.71-6.31-14.67-18.69-47.49-42.49-92.48-67.21-137.01-5.7-10.27-10.1-20.87-12.67-32.33-1.89-8.43-4.4-16.73-6.5-25.12-.52-2.09-.52-4.32-.96-8.22Z"/>
  <path class="st0" d="M1187.09,1851.93c4.34-9.83,8.15-19.73,13-29.09,3.68-7.1,3.68-13.35.68-20.73-6.13-15.08-11.09-30.62-17.06-45.77-2.25-5.7-1.6-10.01,2.2-14.59,4.03-4.85,7.6-10.09,11.26-15.25,2.63-3.71,5.84-5.01,10.34-3.67,6.99,2.07,14.07,3.84,22.4,6.07,3.69,17.84,12.7,34.88,11.73,54.41-.71,14.28-1.08,28.59-1.22,42.88-.05,4.63-1.19,8.21-4.53,11.52-6.85,6.78-13.49,13.79-19.97,20.93-3.12,3.44-6.16,4.45-10.5,2.37-5.85-2.8-12.84-3.31-18.33-9.09Z"/>
  <path class="st0" d="M863.75,1851.71c-6.46,6.92-14.77,7.67-22.1,10.3-1.45.52-4.32-1.32-5.8-2.8-7.51-7.54-14.98-15.14-22.01-23.12-1.97-2.23-3.23-5.82-3.34-8.83-.6-17.62-.79-35.25-1.05-52.87-.03-1.97.11-4.03.62-5.92,3.13-11.55,6.49-23.03,9.53-34.6.95-3.63,2.61-5.62,6.49-6.39,5.85-1.16,11.6-2.9,17.32-4.64,4.49-1.37,7.79-.07,10.34,3.68.19.27.4.53.59.8,4.79,6.78,12.32,13.1,13.58,20.49,1.23,7.26-3.64,15.69-6.32,23.44-4.01,11.62-8.27,23.17-12.78,34.6-1.85,4.7-1.65,8.74.5,13.3,4.96,10.5,9.45,21.22,14.44,32.57Z"/>
  <path class="st0" d="M312.47,740.32c-.51-1.67-1.32-3.17-1.37-4.7-.54-14.96-1.03-29.91-1.32-44.88-.04-2.24.79-4.54,1.49-6.73,8.29-25.61,16.51-51.24,25.07-76.76,1.43-4.26,3.91-8.37,6.69-11.94,6.11-7.88,12.84-15.28,19.05-23.08,2.74-3.45,5.8-5.06,10.24-4.69,6.26.52,12.54.63,19.99.97-.77,2.84-1.22,4.89-1.91,6.85-.32.9-1.03,1.72-1.7,2.44-12.24,12.96-18.14,28.93-22.66,45.81-5.5,20.53-9.87,41.7-18.38,60.98-8.62,19.53-21.68,37.09-32.83,55.49-.1.16-.61.08-2.32.25Z"/>
  <path class="st0" d="M1738.32,741.63c-2.49-2.28-4.42-3.4-5.43-5.08-9.59-15.98-19.19-31.95-28.38-48.16-2.06-3.63-2.53-8.15-3.77-12.25-7.54-24.82-15.02-49.66-22.75-74.43-1.05-3.38-3.04-6.58-5.1-9.51-4.92-7-10.13-13.79-16.26-22.06,9.68-3.23,18-2.95,25.88-2.06,3.41.39,6.42,5.08,9.45,8,16.01,15.42,25.26,34.38,30.92,55.76,4.75,17.98,11.44,35.44,17.16,53.16.8,2.48,1.42,5.17,1.35,7.74-.36,14.31-.92,28.61-1.51,42.91-.06,1.5-.76,2.98-1.57,5.97Z"/>
  <path class="st0" d="M1112.45,2081.51c-1.39-2.47-3-4.85-4.09-7.45-.75-1.8-.92-3.88-1.13-5.86-1.55-14.99-7.15-28.2-17.05-39.6-4.31-4.96-5.89-10.77-6.29-17.41-1.23-20.6-2.95-41.17-4.7-61.74-.52-6.15.88-11.09,6.83-15.06,3.91,2.07,7.99,4.21,12.05,6.38,3.43,1.84,6.42,4.32,11.01,1.84,1.35-.73,5.4,1.82,7.02,3.82,1.75,2.17,2.16,5.44,3.05,8.27,2.59,8.21,4.73,16.6,7.86,24.6,1.89,4.84,2.76,9.02-1.38,12.68-10.58,9.38-11.67,20.79-7.61,33.44,5.3,16.51,1.64,32.89-.9,49.26-.33,2.15-1.45,4.18-2.2,6.26-.82.18-1.65.37-2.47.55Z"/>
  <path class="st0" d="M936.36,2081.4c-.83-1.9-1.98-3.56-2.28-5.36-1.45-8.87-2.82-17.76-3.91-26.68-.4-3.25-.22-6.64.23-9.9.72-5.27,1.42-10.62,2.96-15.68,3.6-11.78,2.25-22.07-7.24-30.72-4.52-4.12-4.4-8.69-2-14.39,3.32-7.9,5.16-16.42,7.89-24.58,1.13-3.37,2.71-6.64,4.56-9.68.73-1.19,3.33-2.64,4.06-2.21,7.21,4.19,11.72-1.84,17.17-4.18,2.43-1.04,4.76-2.29,7.17-3.46,5.78,3.44,7.42,8.43,6.91,14.55-1.88,22.57-3.64,45.14-5.63,67.7-.22,2.53-1.42,5.07-2.57,7.41-1.01,2.07-2.41,4.01-3.93,5.77-9.44,10.94-14.28,23.7-16.02,37.96-.6,4.93-.49,10.93-7.37,13.47Z"/>
  <path class="st0" d="M1127.96,1936.47c-3.39,1.71-6.49,3.29-10.42,5.27-2.39-3.36-4.44-6.24-6.92-9.73-2.55,1.65-5.13,3.32-7.96,5.15-9.28-5.85-14.78-12.31-13.98-24.89,1.79-28.19,1.51-56.52,2.06-84.79.06-2.99-.45-6.14.32-8.93.62-2.25,2.43-5.27,4.35-5.84,5.55-1.66,11.42-2.27,17.71-3.38.68,4.3,1.13,7.16,1.55,9.87,10.18,7.63,12.58,15.96,8.57,27.37-.94,2.67-.74,5.87-.53,8.79.67,9.29,1.56,18.56,2.44,27.83.32,3.38.5,6.27-2.73,8.87-7.64,6.14-8.32,9.51-4.67,18.64,2.72,6.79,5.66,13.49,8.44,20.26.61,1.49.98,3.07,1.75,5.51Z"/>
  <path class="st0" d="M939.09,1809.56c5.05.9,10.9,1.61,16.53,3.15,1.73.47,3.31,3,4.11,4.94.72,1.73.29,3.93.33,5.93.62,29.3,1.2,58.61,1.87,87.91.36,15.49.36,15.65-13.52,25.58-2.45-1.6-5.09-3.31-7.89-5.14-2.23,3.02-4.35,5.91-7,9.51-3.38-1.49-6.55-2.89-10.64-4.69,1.88-5,3.41-9.28,5.09-13.5,2.1-5.26,4.58-10.37,6.43-15.71,2.19-6.32.98-10.97-4.56-14.62-3.78-2.5-4.35-5.4-4-9.27.73-7.96,1.5-15.92,1.96-23.9.32-5.53-.04-10.81-1.42-16.5-1.78-7.32-1.66-16.5,6.6-21.27,4.9-2.83,2.5-7.96,6.12-12.41Z"/>
  <path class="st0" d="M1026.01,2168.52c-8.2-9.29-17.49-81.39-14.76-112.35,9.09-3.19,18.4-2.29,27.61-.62,3.77,17.71-5.46,99.79-12.85,112.97Z"/>
  <path class="st0" d="M992.32,2152.76c-.77-7.99-2.11-13.83-1.73-19.56.79-11.75-2.83-21.37-11.13-29.61-3.01-2.99-5.27-6.75-8.66-11.19,10.73-10.87,21.09-21.36,31.61-32.02,8.92,16.48,3.05,79.5-10.1,92.39Z"/>
  <path class="st0" d="M1058.06,2152.05c-2.61-1.77-3.89-2.15-4.09-2.84-2.93-10.16-7.38-20.24-8.15-30.59-1.28-17.19-.2-34.55-.02-51.84.02-1.84.66-3.68,1.24-6.73,2.33,1.75,3.89,2.66,5.12,3.89,7.51,7.54,15,15.09,22.38,22.76,5.26,5.46,5.99,6.8.98,11.59-13.15,12.55-16.93,27.83-15.69,45.17.17,2.38-.96,4.86-1.77,8.6Z"/>
  <path class="st0" d="M1070.59,2192.19c-1.9-3.74-3.89-7.44-5.68-11.22-1.7-3.6-3.02-7.21-7.55-8.56-5.29-1.58-5.13-6.19-4.99-10.66.15-4.82,3.39-5.89,7.25-6.56,1.91-.33,3.74-1.06,5.94-1.71,3.13-15.72,6.23-31.26,9.3-46.67,8.91.47,14.49,7.23,13.32,15.96-1.01,7.55-2.69,15.02-4.11,22.52-2.4,12.71-4.75,25.44-7.31,38.12-.6,2.98-1.93,5.8-2.93,8.7-1.08.02-2.16.05-3.25.07Z"/>
  <path class="st0" d="M985.67,2153.56c4.03,1.2,7.77,2.31,11.24,3.35,2.4,11.19,2.27,11.01-5.5,16.67-2.23,1.62-3.67,4.47-5.12,6.96-2.25,3.85-4.21,7.87-6.18,11.59-5.37-1.41-5.36-5.06-5.96-8.2-3.81-19.86-7.59-39.73-11.3-59.61-1.56-8.34,2.17-14.39,12.23-18.7,5.31,15.64,6.08,32.24,10.6,47.94Z"/>
  <path class="st0" d="M995.27,2250.66c-7.4-9.24-13.22-18.35-18.68-27.71-.57-.98-.52-2.72-.07-3.84,5.05-12.51,10.24-24.96,15.91-38.7,2.78,2.19,5.58,3.26,5.83,4.75,2.68,15.99,5.61,31.99,6.99,48.11.5,5.87-3.31,11.87-9.99,17.38Z"/>
  <path class="st0" d="M1054.9,2250.19c-6.16-5.95-10.01-12.18-9.15-19.84,1.59-14.23,3.99-28.36,6.06-42.53.47-3.2,1.63-5.77,6.2-5.96,1.02,1.55,2.53,3.27,3.38,5.27,3.9,9.2,7.43,18.56,11.47,27.69,2.11,4.76,1.97,8.79-1.14,13.05-3.93,5.38-7.36,11.11-11.22,16.54-1.44,2.02-3.48,3.62-5.6,5.78Z"/>
  <path class="st0" d="M1184.55,1840.14c-5.91-8.65-12.99-15.13-14.95-22.91-2.25-8.92-3.77-17.54-9.11-25.38-1.83-2.68,1.08-6.04,4.56-6,7.89.09,16.37-.68,20.44,8.73.78,1.81,2.21,3.32,3.21,5.05,2.81,4.85,8.28,10.09,7.72,14.54-1.09,8.56-5.34,16.81-11.88,25.97Z"/>
  <path class="st0" d="M864.07,1838.21c-3.22-7.24-6.74-14.37-9.47-21.78-.74-2.01.34-5.2,1.53-7.31,2.77-4.93,6.7-9.25,9.09-14.32,4.34-9.21,12.5-8.93,20.42-8.98,4.4-.03,6.28,3.75,4.24,7.76-1.34,2.65-3.58,4.86-4.87,7.54-1.23,2.56-2.95,5.76-2.36,8.15,1.24,4.96-.76,8.32-3.31,11.92-4.13,5.82-8.13,11.73-12.19,17.61-1.03-.2-2.06-.39-3.09-.59Z"/>
  <path class="st0" d="M860.68,1782.51c4.6-9.64,9.19-19.28,13.74-28.81,7.76,2.5,24.04,15.05,27.17,20.25,2.09,3.48,2.53,6.56-.28,9.95-2.78,3.35-5.82,2.8-8.8.93-6.14-3.86-12.49-3.39-19.13-1.76-3.44.85-7.04,1.04-10.56,1.54-.71-.69-1.43-1.39-2.14-2.08Z"/>
  <path class="st0" d="M1190.84,1784.71c-6.07-.78-10.27-1.03-14.33-1.91-6-1.3-11.71-1.69-17.28,1.64-3.19,1.9-6.55,3.33-9.66-.66-3.06-3.92-2.16-7.66.58-10.86,6.91-8.07,15.63-13.91,25.2-20.48,5.82,10.52,10.85,20.21,15.49,32.27Z"/>
</svg>