<?xml version="1.0" encoding="UTF-8"?>
<svg id="Layer_0_xA0_Image" xmlns="http://www.w3.org/2000/svg" version="1.1" viewBox="0 0 2732 2048">
  <!-- Generator: Adobe Illustrator 29.8.4, SVG Export Plug-In . SVG Version: 2.1.1 Build 6)  -->
  <defs>
    <style>
      .st0 {
        fill: #724c28;
        stroke: #000;
        stroke-miterlimit: 10;
        stroke-width: .25px;
      }
    </style>
  </defs>
  <path class="st0" d="M1414.45,1121.54c2.21,1.3,7.58.3,12.31,2.71,2.76,1.4,21.86,18.81,24.11,21.88,2.16,2.96,19.46,37.03,20.2,39.81,2.72,10.34,1.67,28.04-5.97,36.16-1.88,2-22.41,13.91-24.15,13.87-11.5-.27-7.99-21.46-9.4-28.51-1.28-6.39-7.37-11.25-9.94-17.05-16.38,2.25-29.01-6.04-39.59,10.6,11.55.85,36.7,4,41.07,16.91,1.59,4.7.74,10.13,2.75,15.26,2.53,6.47,9.19,6.93,4.7,16.4-1.46,3.08-4.93,3.78-6.52,6.01-12.96,18.19-16.2,27.96-11.13,50.54,7.38,32.89,34.62,55.42,37.18,88.91,2.02,26.41-28.39,41.7-51.69,35.6-21.9-5.73-25.62-40.7-33.4-58.6-4.42-10.16-18.9-30.04-20.62-39.54-.94-5.18,1.68-8.83,1.16-12.98-3.4-27.46-3.2-29.19-1.54-56.55,2-32.82-.22-64.94,4.29-97.71,3.63-26.45,17.88-58.02,49.78-54.45,13.27,1.49,12.4,8.36,16.42,10.73Z"/>
  <path class="st0" d="M1273.51,1162.5c-4.07-4-15.91-2.11-21.51-2.48,8.1,9.04,18.79,20.52,19.58,33.53.6,9.91-15.6,19.34-11.86,32.16-20.01,3.82-34.53,1.45-49.66,17.34-28.17,29.59-21.73,75.02-46.97,103.03-17.42,19.34-53.7,6.24-62.56-15.61-7.68-18.96,9.65-38.3,16.46-54.48,5.88-13.96,9.15-39.28,17.28-50.72,20.71-29.16,50.05-51.41,76.82-75.18,19.43-17.26,46.58-48.84,72.49-55.51,15.77-4.06,35.16-.68,45.27,13.56,7.47,10.52,2.38,12.02,3.61,18.63.39,2.09,4.07,3.92,5.02,6.76,7.8,23.27-1.24,54.4-10.53,76.43-4.63,10.98-19.72,24.2-32.04,23.79-3.25-.11-27.68-7.36-26.96-12.83-1.03-11,20.74-18.89,20.15-38.02-.26-8.33-6.17-7.34-10.17-11.84-2.38-2.68-2.85-7.01-4.42-8.56Z"/>
  <path class="st0" d="M1270.29,1070.27c-1.07,1.2.45,7.73-1.32,11.71-8.26,18.65-42.52,37.61-60.98,45.02-10.8,4.33-31.44,3.36-39.38-5.6-.85-.96-12.41-21.06-12.52-22.34-1.23-14.53,23.71-8.56,30.79-11.08,2.73-.97,13.21-7.98,14.18-9.96.59-1.19,1.03-25.02.55-26.61-.99-3.29-8.79-9.24-10.62-13.4-1.08,12.16-2.61,34.32-15.15,40.84-5.16,2.68-11.6,1.84-16.32,3.68-3.65,1.43-6.01,5.69-9.46,6.68-7.19,2.08-13.05-8.53-18.2-12.09-16.73-11.56-32.53-10.79-51.48-5.73-23.57,6.29-35.65,20.43-55.85,28.15-26.19,10.02-52.12,13.41-61.99-19.11-13.82-45.5,26.49-45.58,56.47-58.41,35.08-15.02,49.38-26.62,92.05-24.1,40.55,2.39,83.61,2.86,123.75,8.25,27.09,3.63,55.7,28.77,44.21,57.88-2.93,7.42-7.6,4.92-8.75,6.22Z"/>
  <path class="st0" d="M1403.94,920.09c-.61-.85-5.94-.28-7.52-7.52-5.34-24.46,1.83-50.99,11.5-73.65,4.35-10.2,17.86-22.27,29.11-23.04,5.44-.37,27.23,4.73,28.64,9.55,4.02,13.81-16.48,19-17.68,35.59-1.07,14.79,3.1,9.53,8.09,15.91,2.35,3.01,2.82,7.13,5.34,9.18,5.6,4.55,15.71,4.12,22.58,3.87-9.66-10.75-23.87-24.05-19.52-40.48,1.22-4.6,7.16-8.39,8.45-11.57,2.87-7.08-1.27-14.97,10.5-17.5,15.89-3.42,23.51,2.61,38.65-11.35,31.64-29.17,23.92-77.91,49.94-106.06,15.59-16.87,43.96-9.35,57.03,6.94,18.36,22.89-4.06,46.19-12.56,67.52-5.13,12.86-7.38,30.73-13.46,42.54-4.13,8.01-29.35,36.02-36.99,43.01-22.99,21.03-82.43,79.1-107.5,88.5-20.29,7.6-48.64,4.68-56.63-18.52-2.66-7.72,3.26-11.22,2.05-12.91Z"/>
  <path class="st0" d="M1577.56,955.6c-4.24,7.42-37.43-.13-44.66,16.47-1.84,4.22,1.24,7.22,1.12,10.93-.14,3.96-2.49,7.22-1.73,11.53.99,5.56,9.97,12.06,12.71,17.47,1.23-12.73.3-24.83,8.13-35.85,8.02-11.3,11.23-5.97,20.99-9.01,3.86-1.2,6.21-5.84,9.31-6.77,9.28-2.79,18.62,12.05,28.57,16.64,19.48,8.98,45.81,1.27,64.55-7.44,10.24-4.76,17.76-13.43,28.06-17.94,27.53-12.06,60.53-17.42,68.87,19.88,9.65,43.16-26.58,42.15-54.84,54.15-12.52,5.31-31.56,20.17-44.19,21.99-32.47,4.69-64.5,2.15-97.43.35-28.78-1.57-84.84.05-107.68-18.33-11.48-9.24-18.24-27.11-14.38-41.71,2.81-10.65,9.25-8.53,10.74-10.22,1.08-1.21-.23-7.14.7-10.31,5.18-17.6,53.36-45.98,70.48-47.52,8.99-.81,22.19.79,29.03,7.17,2.91,2.71,13.79,24.75,11.64,28.52Z"/>
  <path class="st0" d="M1231.98,908.01l-11.32,11.65c-8.76,4.38-18.58,10.77-28.77,7.46-4.1-1.33-6.73-5.98-10.42-7.59-8.2-3.59-15.62,1.11-17.3-10.63-3.23-22.67-.94-31.06-21.23-46.85-28.85-22.44-62.68-17.49-91.63-38.37-17.03-12.29-18.81-30.33-9.01-48.36,20.84-38.36,53.82-9.43,80.33,1.04,31.64,12.5,42.26,12.01,70.31,35.69,12.63,10.66,17.8,22.72,28.02,33.98,21.79,24.01,64.93,60.72,75.1,90.9,6.42,19.06,2.93,39.8-15.36,50.78-10.57,6.34-11.73.56-15.72.83-2.37.16-4.67,6.43-10.04,7.43-4.04.75-23.73,2.35-27.89,2.14-5.5-.28-46.14-14.09-50.98-17.19-6.97-4.47-16.87-18.09-17.68-26.39-.73-7.49,7.69-17.67,6.46-26.64,19.12-8.63,19.74,13.61,38.3,15.94,15.38,1.93,11.06-1.69,18.73-8.91,2.49-2.35,7.83-4.28,9.11-6.89,2.58-5.26.26-14.11.96-20.01Z"/>
  <path class="st0" d="M1502.02,1140c10.36-9.38,27.96-24.12,42.49-17.52,3.85,1.75,7.19,5.78,12.02,7.98,8.2,3.74,12.54-2.07,14.98,11.02,4.02,21.63-.67,28.37,19.54,44.46,29.42,23.44,64.02,18.4,92.83,39.17,17.94,12.93,18.36,32.63,6.94,50.69-22.73,35.95-51.59,7.15-78.26-3.37-11.99-4.72-31.87-7.38-42.4-13.6-24.05-14.22-37.77-35.67-55.13-54.87-21.24-23.5-73.23-68.9-78.55-99.44-2.87-16.5,7.77-45.64,26.48-46.57,12.43-.62,5.4-.37,14.57-3.45,23.93-8.04,78.99,4.09,93.33,25.62,2.1,3.16,4.52,7.25,5.04,11.02.82,5.94-4.36,32.36-10.94,32.94-18.09-3.33-20.94-23.77-43.61-19.86-10.06,12.49-22.99,16.63-19.34,35.76Z"/>
  <path class="st0" d="M1321.75,926.27c-1.34-1.19-9.22.69-13.72-1.31-1.36-.6-20.48-18.02-22.03-19.97-5.05-6.36-23.85-44.88-24.09-52.06s3.46-20.77,8.06-25.97c3.86-4.36,22.39-15.41,28.06-12.01,11.53,14.18-2.05,32.15,18.01,44.1,16.91-1.11,26.58,4.58,37.94-12.07-12.68-1.51-29.53-.05-39.07-10.91-5.86-6.67-2.59-22.66-12.59-29.37,4.96-14.78,19.08-20.37,21.5-37.89,2.21-16.07-4.94-41.01-12.03-55.63-5.01-10.34-14.12-17.18-18.75-29.25-9.9-25.81-14.33-55.87,18.92-64.97,44.86-12.27,45.2,27.4,57.67,56.37,4.63,10.74,17.87,27.95,19.91,38.09,6.13,30.52,1.67,50.67.47,79.58-1.36,32.87,2.96,93.36-12.27,121.73-8.66,16.13-32.64,30.37-50.33,20.83-6.36-3.43-4.56-8.31-5.68-9.31Z"/>
  <path class="st0" d="M1459.52,1322.53c23.95-3.43,34.36,9.41,39.58,31.38,9.09,38.29-4.64,55.06-20.77,85.42-7.12,13.4-5.35,52.74-8.59,71.41-7.7,44.34-39.97,67.63-50.74,109.26-3.3,12.74-2.32,25.19-8.91,37.09-5.15,9.29-21.55,22.91-29.93,11.72-4.96-6.63,4.12-14.35,6.46-21.2,4.29-12.55,4.57-26.3,9.36-38.64,4.2-10.85,11.98-19.65,15.93-32.07,10.41-32.66,6.54-71.21,19.73-104.27,3.08-7.71,11.83-18.3,13.45-24.55,1.89-7.29.09-14.11,2.28-21.72,4.13-14.39,14.88-14.27,10.2-36.9-3.83-18.54-39.69-60.96,1.97-66.92Z"/>
  <path class="st0" d="M897.45,578.36c13.73-3.98,12.8,12.45,17.48,21.71,4.8,9.51,13.75,18.4,18.07,27.93,5.25,11.59,5.95,23.77,11.97,36.03,14.14,28.77,43.08,53.06,57.4,82.6,5.62,11.59,6.99,26.32,12.1,35.9,3.15,5.91,10.39,9.26,13.08,14.92,4.18,8.78.75,16.02,8.76,25.24,15.55,17.91,86.65,19.77,52.7,59.33-28.55,33.27-73.52-14.54-85.37-42.65-5.04-11.96-5.42-25.53-9.14-34.86-5.03-12.61-39.72-44.16-50.09-61.91-15.11-25.86-14.73-57.08-25.44-84.56-8.07-20.71-32.64-43.62-30.53-64.44.53-5.17,3.47-13.62,9.01-15.23Z"/>
  <path class="st0" d="M1713.61,890.58c36.19-1.55,43.11,11.32,70.58,24.23,15.36,7.22,63.78,4.5,86.91,11.09,31.61,9,56.27,38.53,90.88,47.12,13.6,3.37,24.52,1.89,37.38,8.62,10.12,5.3,25.59,22.03,11.3,30.19-6.81,3.89-14.9-4.77-22.21-7.28-10.01-3.44-21.61-3.3-31.56-6.44-13.27-4.18-24.09-14.12-39.32-18.68-33.62-10.06-71.9-6.23-105.56-20.44-6.61-2.79-15.05-10.33-21.94-12.06-6.93-1.75-13.25-.1-20.13-1.87-14.65-3.77-12.31-14.77-36.46-10.59-17.56,3.04-56.75,35.89-66.58,3.63-10.37-34.03,17.66-46.29,46.72-47.53Z"/>
  <path class="st0" d="M1811.46,550.51c1.92,2.14,2.47,5.59,2.57,8.42-.86,7.7-18.16,10.9-25.36,14.73s-14.56,11.33-21.26,14.74c-12.93,6.58-28.49,7.83-42.74,15.26-29.18,15.2-53.81,45.49-85.3,58.7-11.17,4.69-24.5,4.74-34.07,11.93-3,2.25-4.06,5.78-7.81,8.19-7.63,4.9-17.71,3.75-25.39,8.61-20.11,12.7-17.82,71.12-50.61,62.42-11.23-2.98-24.04-17.79-23.35-30.22,1.52-27.72,34.94-56.02,59.36-64.8,10.51-3.78,22.58-4.05,31.61-8.39,16.46-7.89,38.62-35.28,57.08-46.92,32.34-20.39,72.44-16.21,107.16-36.84,16.99-10.09,24.28-23.45,47.54-20.2,2.25.31,9.29,2.94,10.59,4.38Z"/>
  <path class="st0" d="M924.47,1499.53c-2.19-2.21-3.66-13.05-2.21-15.28,20.96-1.93,34.31-19.52,52.36-26.63,6.59-2.59,13.94-3.01,20.45-5.55,38.89-15.14,66-51.7,104.97-67.03,7.36-2.89,15.59-3.14,23.31-6.72,8.04-3.73,9.42-9.62,15.23-12.75,7.63-4.12,16.86-2.72,24.43-7.56,20.67-13.22,21.97-90.35,62.83-54.85,29.01,25.2-9.08,66.95-33.23,80.45-16.9,9.45-29.38,8.15-44.53,13.47-14.07,4.94-46.96,43.24-68.12,53.88-31.04,15.61-66.69,12.17-98.57,31.43-13.59,8.21-24.22,22.35-42.34,21.69-2.8-.1-12.93-2.9-14.59-4.56Z"/>
  <path class="st0" d="M1659.42,1156.43c28.81-6.59,60.17,26.32,70.92,50.23,6.14,13.65,6.2,28.14,12.03,39.97,9.37,19.05,39.6,41.09,51.27,64.73,12.6,25.53,12.41,56.17,23.4,82.6,9.49,22.84,34.4,40.36,28.53,66.61-1.62,7.26-7.2,10.79-14.52,9.48-7.79-1.39-6.43-12.45-9.24-18.86-4.69-10.69-15.37-20.69-20.19-31.81-4.63-10.7-5.58-21.88-10.87-33.13-15.42-32.74-48.62-58.19-62.29-93.71-2.89-7.52-3.33-16.11-6.67-23.33-3.61-7.82-11.56-11.73-14.25-17.75-3.78-8.48-1.29-16.53-8.66-25.34-14.36-17.17-73.02-15.6-58.67-50.93,2.34-5.75,13.24-17.4,19.21-18.77Z"/>
  <path class="st0" d="M725.43,1036.28c6.81-1.86,11.8,5.01,18.08,7.2,12.53,4.38,26.65,4.11,39.07,8.93,7.52,2.92,15.43,9.88,22.96,13.04,35.19,14.78,78.99,8.84,115.82,24.18,8.14,3.39,17.38,11.04,25,13s15.21.18,21.75,2.25c5.86,1.85,10.1,9.7,19.03,11,23.29,3.39,76.53-44.71,82.67,1.28,6.88,51.55-70.37,44.74-101.18,29.2-15.98-8.06-16.42-14.41-37.66-16.34-21.29-1.93-42.37-.39-63.85-6.15-29.18-7.82-51.4-32.05-79.16-42.84-19.29-7.51-49.94-6.2-62.75-21.25-4.76-5.6-9.82-20.76.22-23.5Z"/>
  <path class="st0" d="M1341.47,376.34c7.6-1.56,15.92,1.43,14.55,10.51-.56,3.69-6.72,11.71-8.61,17.55-3.18,9.81-3.22,21.91-6.42,31.58-3.56,10.77-12.43,20.43-16.44,31.56-12.5,34.75-7.42,76.83-22.14,111.86-3.16,7.53-11.55,16.9-13.47,24.53-1.75,6.94-.06,13.28-1.88,20.12-2.04,7.69-9.65,11.26-10.89,21.14-2.94,23.35,40.56,69.43,4.3,80.27-45.66,13.65-50.88-44.93-43.91-75.91,5.45-24.24,23.25-36.59,25.41-60.59,2.26-24.96.51-46.57,8.51-71.49,8.04-25.03,27.59-42.86,37.9-66.1,9.13-20.56,8.08-50.3,20.57-65.43,2.72-3.29,8.33-8.75,12.51-9.61Z"/>
  <path class="st0" d="M1780.69,1027.3c-10.2-10.66,1.09-30.42,1.44-44.28.22-8.74-7.44-24.45-.12-28.04,15.15-6.18,25.52,16.53,35.9,20.1,6.67,2.3,16.82,1.97,24.15,3.85,17.12,4.39,33.88,13.1,51.17,14.83,11.77,1.17,26.39-1.55,37.31.69,5.23,1.07,11.63,6.38,17.85,8.15,19.6,5.57,42.31,2.33,54,22,3.62,6.08,14.01,31.82,13.19,37.96-1.08,8.16-12.03,18.19-20.38,17.45-12.04-1.07-14.47-22.34-25.17-31.05-16.43-13.36-64.13-16.24-85.12-15.04-22,1.26-46.15,10.47-67.93,8.09-6.34-.7-32.39-10.61-36.3-14.7Z"/>
  <path class="st0" d="M1803.54,574.38c8.93-1.23,40.12,10.11,46.59,16.49,7.57,7.47,8.74,26.62-2,30.23-15.98,5.38-27.16-13.48-54,.02-43.34,21.79-57.22,54.72-86.19,87.81-8.68,9.91-26.97,21.47-39.83,24.18-21.86,4.6-25.03-19.34-38.02-32.21-3.98-3.95-15.74-10.11-17.15-12.9-9.17-18.22,33.25-14.42,40.54-17.53,4.09-1.74,11.12-9.81,16.68-13.32,18.07-11.39,39.28-17.76,55.62-32.38,17.62-15.77,12.29-13.62,34.28-25.72,11.52-6.34,32.19-23.13,43.46-24.69Z"/>
  <path class="st0" d="M1375.29,1653.3c-6.06,6.42-35.46,19.23-44.27,18.82-10.33-.47-22.65-13.93-18-24.07,3.56-7.78,24.47-12.73,33-25.03,10.43-15.05,13.2-63.41,12.07-82.1-2.26-37.29-18.52-61.52,3.51-98.32,10.63-17.77,33.21-3.41,49.74-3.35,7.66.02,15.39-4.64,23.36-2.99,12.64,14.56-14.65,27.43-18.19,39.26-2.11,7.05-1.72,18.02-3.83,26.17-3.99,15.42-12.71,31.71-14.47,47.53-1.37,12.35,1.71,27.76-.66,39.34-1.05,5.12-6.25,11.68-8.11,17.89-4.19,14.06-4.44,36.58-14.15,46.86Z"/>
  <path class="st0" d="M934.61,540.62c7.07-6.45,22.29-6.84,28.32,1.42,7.28,9.98-1.09,15.97-2.82,25.07-.57,3.01-1.39,16.21-1.04,19.19,1.06,9.01,28.45,45.95,35.93,53.69,27.18,28.1,66.31,38.59,79.41,78.58,8.98,27.43-14.87,28.01-30.22,42.63-6.53,6.21-13.65,28.44-23.98,15.59-6.57-8.18-3.15-18.55-4.21-27.78-1.49-12.94-9.57-16.43-15.62-26.38-9.69-15.92-15.53-34.53-26.72-49.28-6.86-9.03-21.69-19.31-26.51-27.49-3.39-5.74-4.76-14.23-8.81-21.19-10.2-17.54-23.72-26.13-19.43-48.76,1.21-6.4,11.36-31.33,15.7-35.28Z"/>
  <path class="st0" d="M1008.7,1424.7c-5.6,5.07-10.6,14.65-17.99,19.01-5.54,3.26-12.86,3.9-18.79,7.21-29.98,16.74-31.46,32.28-69.89,16.05-15.54-6.56-27.7-13.05-21.14-33.09,4.9-14.97,21.56-3.59,30.23-2.01,23.78,4.35,46.19-13.08,63.84-27.91,23.82-20.01,41.75-59.15,62.05-73.95,5.21-3.8,28.94-14.58,34.91-15.14,15.4-1.44,22.05,21.12,31.06,31.15,6.03,6.7,23.84,13.66,20.09,21.94-5.55,12.24-31.71,5.21-42.92,11.19-3.76,2.01-6.42,7.21-10.29,9.71-19.95,12.94-43.3,19.65-61.16,35.84Z"/>
  <path class="st0" d="M1799.44,1509.42c-5.43,4.47-23.52,4.42-27.55-2.29-6.26-10.4,6.01-27.07,4.15-42.19-1.46-11.92-26.92-46.63-35.96-56.02-27.91-29.01-69.83-40.09-81.13-82.85-5.87-22.21,20.22-26.42,32.84-39.28,3.78-3.86,10.42-17.54,13.53-18.58,16.93-5.63,12.56,34.04,16.92,42.54,2.74,5.33,11.34,13.71,15.36,20.64,8.95,15.42,14.15,32.02,25.56,46.44,6.21,7.85,20.51,18.02,24.57,25.43,2.51,4.57,2.44,10.05,5.16,14.84,8.57,15.1,26.43,31.83,24.29,49.94-.87,7.42-12.5,37.05-17.76,41.38Z"/>
  <path class="st0" d="M1401.52,376.47c14.12-.84,28.96,17.95,15.5,29.54-8.2,7.06-17.1,6.22-26.06,17.94-9.35,12.24-15.31,53.21-15.04,69.13.73,42.15,20.01,69.67-.9,110.94-10.87,21.45-31.08,6.27-49.99,5.85-9.4-.21-15,3.45-23.75,3.97-14.08-17.57,15.04-28.51,18.31-43.25,1.09-4.93-.23-10.14.91-15.09,4.62-20.05,15.28-40.85,17.25-60.75,1.11-11.18-1.45-24.95.69-35.31,1.15-5.58,6.69-14.11,8.57-21.43,3.2-12.42,3.62-32.58,12.18-41.82,5.69-6.15,34.04-19.23,42.32-19.72Z"/>
  <path class="st0" d="M738.99,968.89c13.13,0,15.98,24.57,28,33.12,10.07,7.17,53.01,14.25,66.04,14.15,25.54-.2,58.79-11.38,81.89-10.26,4.65.23,34.28,11.53,37.8,14.38,11.92,9.64.22,33.62.05,47.05-.14,11.84,11.97,34.36-12.22,25.1-9.53-3.65-17.78-18.18-25.97-20.02-4.84-1.09-10.13.19-15.09-.91-19.66-4.38-41.66-15.16-60.71-17.29-22.67-2.52-25.88-.09-49.2-6.8-13.23-3.81-33.97-4.92-45.01-10.99-18.53-10.19-39.42-67.54-5.59-67.52Z"/>
  <path class="st0" d="M645.76,823.76c-8.56,2.54-16.37,13.58-25.72,9.22-4.51-2.1-23.31-22.91-31.36-28.66-10.63-7.6-30.07-20.34-41.34-26.66-14-7.85-38.19-8.85-39.13-26.33,4.3-13.47,48.67,3.47,58.29,7.18,18.11,6.97,42.39,20.2,56.59,33.41,4.18,3.89,25.21,27.48,22.67,31.85Z"/>
  <path class="st0" d="M1163.35,1746.28c4.9-.45,16.36,19.94,13.67,25.67-2.37,5.06-19.84,18.63-24.97,25.09-8.22,10.35-22.64,32.6-29.69,44.31-7.11,11.81-11.22,37.38-22.48,41.66-12.64,4.8-10.39-16.46-9.35-23.49,3.78-25.59,25.2-68.03,42.45-87.55,3.66-4.14,26.9-25.37,30.37-25.69Z"/>
  <path class="st0" d="M1643.75,166.25c10.51,6.59-13.58,67.13-19,77.5-12.06,23.07-32.23,46.79-54.8,59.38-4.72-7.22-15.1-18.09-10.94-27.09,2.45-5.3,19.89-18.47,24.99-25.04,7.75-10.01,23.11-33.26,29.64-44.36,5.63-9.58,10.04-31.34,15.51-36.49,3.18-3,10.95-6.19,14.6-3.9Z"/>
  <path class="st0" d="M1735.28,1678.16c2.01-.63,18.99,3.12,21.27,4.27,8.18,4.08,2.8,14.74,3.33,22.63,1.37,20.54,7.93,56.54,13.55,76.5,3.75,13.3,16.25,25.49,12.14,39.03-5.42,17.88-23.81-10.24-27.2-15.97-20.53-34.65-33.47-81.42-26.38-121.62.4-2.29.79-4.05,3.29-4.84Z"/>
  <path class="st0" d="M2109.46,1214.25c2.98-.46,3.44.34,5.62,1.62,6.81,4,19.88,20.36,29.06,27,12.84,9.29,41.74,29.03,55.31,34.69,6.28,2.62,12.31,1.8,18.47,5.53,4.71,2.85,12.93,12.05,7.14,16.93-12.81,10.81-69.57-14.2-83.67-22.41-20.88-12.17-41-29.79-53.16-50.65.1-1.23,19.96-12.52,21.22-12.71Z"/>
  <path class="st0" d="M713.82,1390.16c.5,6.38-3.11,25.62-9.21,27.45-9.11,2.72-27.73-.78-39.13.87-13.6,1.97-46.34,8.85-59.03,12.97-12.9,4.19-22.59,16.64-36.94,10.55-3.16-1.75-4-6.74-2.58-9.91,5.37-12.04,53.2-33.58,66.64-37.51,25.28-7.38,54.43-8.81,80.25-4.41Z"/>
  <path class="st0" d="M1001.99,372c-5.99-1.81-25.8-3.81-27.66-9.33-2.48-7.39.57-27.49-.54-37.46-1.4-12.55-7.25-38.63-10.3-51.7s-18.82-33.99-13.71-44.65c6.8-14.21,19.15,3.06,23.86,10.5,24.68,38.97,36.19,86.83,28.34,132.65Z"/>
  <path class="st0" d="M2149.41,606.42c10.97-2.51,24.57-.99,16.68,12.69-11.06,19.19-81.05,41.17-103.12,42.85-8.36.64-29.77-.56-37.97-1.96-2.01-.34-4.28-.96-4.81-3.16-.25-1.02,4.36-18.42,5.33-20.3,4.74-9.18,14.58-3.78,23.56-4.45,20.34-1.53,53.47-7.47,73.32-12.68,10.4-2.73,20.32-11.45,27-12.98Z"/>
  <path class="st0" d="M422.62,780.58c4.02-4.87,20.42-15.03,26.85-16.1,18.1-3.02,84.11,12.22,96.54,26.49,13.92,15.98-9.85,13.43-15.15,18.9-3.66,3.78-1.87,8.97-5.93,12.12-24.62-10.36-46.54-35.45-75.48-29.53-7.77,1.59-13.18,11.3-20.05,9.28-6.05-1.77-11.64-15.28-6.78-21.16Z"/>
  <path class="st0" d="M1164.01,1864.01c-3.8,25.39-35.41,48.49-29.54,76.54,1.39,6.63,12.53,17.3,11.34,22.06-1.11,4.45-14.23,10.07-18.4,9.08-3.69-.87-16.37-18.36-17.85-22.25-7.31-19.23,7.89-81.37,20.79-98.1,22.42-29.06,12.7,15.64,33.66,12.67Z"/>
  <path class="st0" d="M869.42,184.35c5.14-1.54,26.17,3.1,31.32,5.92,14.92,8.19,50.02,67.97,51.21,84.97,1.89,26.97-23.08-1.93-34.69,10.61-6.01-.98-11.87-37.11-14.72-45.38-3.49-10.12-8.44-23.97-18.68-29.32-5.68-2.97-21.96-2.44-23.65-8.47.15-5.4,3.81-16.72,9.21-18.34Z"/>
  <path class="st0" d="M1601.5,78.39c15.69-3.07,26.95,25.33,26.53,38.55-.52,16.43-14.84,81.09-30.07,88.03-14.9,6.79-9.94-7.9-13.82-14.11-2.32-3.7-8.49-5.72-12.17-7.87l-1.77-3.65c12.19-22.64,35.62-45.94,29.37-73.91-1.95-8.71-21.76-22.4,1.92-27.03Z"/>
  <path class="st0" d="M627.94,1477.91c-31.85,10.43-77.39,8.65-79.14,52.31-7.21,3.26-13.82-2.35-20.46-4.55-1.12-10.45-.23-25.64,5.64-34.7,10.54-16.27,66.09-49.8,85.31-50.87,6.8-.38,14.79,2.31,12.4,10.47-1.11,3.79-7.69,7.11-7.49,14.49.12,4.33,5.02,7.98,3.74,12.85Z"/>
  <path class="st0" d="M2205.47,522.51c5.17,5.52.55,24.95-2.45,31.52-8.56,18.77-65.78,52.55-86.06,53.97-25.16,1.76-7.51-12.81-6.77-20.96.57-6.22-1.64-8.77-4.16-13.89l1.97-2.14c20.44-7.99,58.25-8.88,71.76-28.25,4.78-6.85,3.27-17.07,6.52-24.48,3.29-2.08,16.5,1.35,19.2,4.23Z"/>
  <path class="st0" d="M2208.1,1228.1c21.75,3.46,38.68,26.17,61.41,29.37,20.09,2.82,30.28-12.09,35.19-11.16,6.17,1.16,11.1,14.31,8.99,20.36-1.61,4.63-22.71,16.66-28.65,17.39-20.57,2.53-76.33-10.41-92.91-23.18-4.51-3.47-10.1-10.93-4.15-15.9,5.58-4.66,21.36-1.59,20.12-16.87Z"/>
  <path class="st0" d="M1789.41,1760.26c6.13-1.51,11.7,7.54,17.77,7.8,5.53.24,9.2-7.46,13.86-2.09,7.91,19.18,9.47,59.7,29.11,70.89,10.69,6.09,25.67.1,23.42,15.65-2.43,16.79-23.08,12.61-35.01,7.93-17.03-6.67-49.11-60.78-53.15-78.84-1.59-7.13-4.36-17.23,3.99-21.34Z"/>
  <path class="st0" d="M1913.41,448.36c8.14-1.31,35.16,9.93,36.63,18.73.42,2.53.15,4.94-.51,7.41-1.99,7.47-37.88,41.54-45.61,44.41-9.12,3.38-32.62-9.93-33.94-18.02-.42-2.55-.03-4.92.46-7.42,1.74-8.81,33.82-43.64,42.97-45.11Z"/>
  <path class="st0" d="M1371.52,1748.39c24.89-3.61,23.33,48.61,19.61,63.75-3.17,12.91-44.24,32.65-47.19,6.92-1.69-14.72-2.49-42.57,1.71-56.4,3.08-10.14,16.2-12.86,25.87-14.27Z"/>
  <path class="st0" d="M861.49,1540.5c4.09,4.22,2.96,15.36.66,20.66s-30.66,35.73-36.25,37.76c-11.4,4.14-45.14-8.65-41.09-22.94,2.81-9.92,43.37-49.14,53.71-47.64,1.29.19,22.07,11.22,22.97,12.15Z"/>
  <path class="st0" d="M2098.46,1043.55c-.92-.94-7.21-22.91-7.42-25.3-2-22.82,57.54-21.86,68.81-15.09,10.57,6.35,24.6,41.68,5.02,44.71-13.89,2.15-39.69,1.98-53.7-.02-2.53-.36-11.34-2.89-12.71-4.29Z"/>
  <path class="st0" d="M804.49,444.51c4.52-4.42,12.5-2.54,17.42.59,6.83,4.34,37.68,36.52,40.62,43.48,3.91,9.24-10.96,34.26-23.29,33.36-9.8-.72-42.14-30.16-45.72-38.44-2.91-6.73-.78-16.42,1.87-23.11.79-1.99,8.29-15.08,9.1-15.88Z"/>
  <path class="st0" d="M571.48,1000.48c10.69-1.96,52.79-1.32,62.07,2.96,5.56,2.57,11.78,29.4,9.45,34.51-5.57,12.17-57.73,13.17-66.97,9.01-9.44-4.25-26.83-42.4-4.55-46.48Z"/>
  <path class="st0" d="M1887.37,1528.38c9.65-3.01,17.13,1.4,24.45,6.79,4.77,3.51,30.14,28.69,31.37,32.77,3.16,10.54-10.56,42.24-23.19,39.23-7.92-1.89-44.59-39.18-47.14-47.08-2.39-7.4,9.47-30.14,14.51-31.71Z"/>
  <path class="st0" d="M1350.61,297.38c-8.62-8.01-8.04-46.52-6.64-58.41,1.82-15.45,36.75-28.88,44.96-16.87,5.41,7.91,3.98,57.98-.39,67.44-1.19,2.57-2.78,3.56-5.09,4.91-1.59.93-21.2,6.96-22.77,7.1-2.24.2-8.39-2.61-10.06-4.17Z"/>
  <path class="st0" d="M621.49,934.52c4.3,4,7.21,24.28,6.57,30.49-2.76,26.68-36.19,3.75-49.53,1.45-7.49-1.29-14.57.55-22.2-1.8-22.32-6.86-10.15-42.95,2.79-44.73,4.38-.6,16.43,4.64,21.45,6.48,3.37,1.23,6.7,4.73,8.89,5.19,6.72,1.43,22.88-5.61,32.03,2.91Z"/>
  <path class="st0" d="M1445.63,200.46c7.19-.38,25.44,7.29,26.44,14.65.42,3.11-4.45,18.12-5.92,22.04-1.34,3.59-5.21,5.92-5.86,8.31-1.92,7.07,6.68,24.27-4.1,33.73-5.81,5.1-27.56,6.45-34.76,4.39-18.15-5.2,2.24-36.86,4.11-47.04,2.93-15.95-4.48-34.77,20.09-36.07Z"/>
  <path class="st0" d="M2007.3,498.69c4.62,5.13,7.62,15.57,7.61,22.36-.02,12.51-22.81,13.87-30.88,17.98-5.84,2.97-11.73,20.19-25.18,20.94-7.13.4-26.57-14.08-29.35-20.5-7.98-18.47,26.26-24.97,37.22-31.75,12.97-8.03,22.24-29.44,40.59-9.02Z"/>
  <path class="st0" d="M1361.79,1890.2c-.63-.74-7.17-.5-9.83-3.17-6.19-6.24-2.41-31.23,2.27-37.8,1.75-2.46,32.43-22.17,36.4-23.72,9.72-3.8,13.02,14.44,13.16,21.7.14,7.79-6.3,16.62-5.82,21.67.62,6.65,14.39,18.34,9.06,29.11-3.6,7.28-10.57,1.83-15.58,2.43-7.14.85-16.13,7.06-24.4,5.66-9.14-1.55-3.06-13.31-5.26-15.88Z"/>
  <path class="st0" d="M1893.22,1632.76c9.1,12.67,12.49,26.18-4.67,34.78-21.72,10.89-25.5,2.43-33.37-15.72-1.71-3.93-1.11-9.44-3-12.53-1.38-2.26-6.61-2.67-9.23-5.25-6.02-5.9-12.83-15.29-10.07-24.13,1.08-3.45,11.39-17.24,14.43-19.62,21.48-16.86,28.32,18.53,37.1,32.28,3.07,4.82,6.64,7.15,8.81,10.17Z"/>
  <path class="st0" d="M2243.57,986.5c3.03,2.84-.25,11.42.52,16.29.87,5.5,6.95,19.69,5.74,23.96-1.73,6.11-16.31,1.84-17.76,3.33-.48.49.47,5.95-1.89,9.1-5.91,7.91-31.63,3.61-38.32-2.06-3.91-3.31-22.99-33.66-23.86-38.3-1.32-7.01,13.45-10.01,19.6-10.37,9.69-.58,18.32,5.79,23.19,5.58,7.87-.34,23.49-16.23,32.76-7.54Z"/>
  <path class="st0" d="M863.38,376.56c8.21-.08,14.9,16.54,17.65,23.41,1.22,3.06.34,7.7,1.94,10.06,1.29,1.9,6.47,2.38,9.19,4.81,16.02,14.33,10.48,31.44-4.31,43.99-20.85,17.71-28.95-18.84-36.2-31.49-4.63-8.08-16.65-17-17.61-24.53-1.87-14.6,16.3-26.13,29.34-26.25Z"/>
  <path class="st0" d="M501.98,1020.01c-1.27-19.03,26.15-16.15,37.46-10.45,5.9,2.97,29.77,38.84,28.51,43.26-8.06,6.4-22.8,9.09-32.55,6.76-4-.95-6.95-5.42-10.39-5.52-4.01-.12-12.31,7.6-18.9,9.04-22.62,4.95-13.66-4.42-14.54-15.64-.96-12.11-17.99-36.04,10.41-27.45Z"/>
  <path class="st0" d="M803.41,1523.44c-4.4,5.37-28.3,13.81-36.08,18.89-7.24,4.73-12.54,14.65-22.53,15.65-16.13,1.62-31.7-28.26-22.33-37.52.77-.76,16.45-8.09,19.47-9.52,2.79-1.32,7.03-.27,10.01-1.99,6.27-3.62,9.17-18.06,23.08-19.07,13.15-.96,39.96,19.43,28.39,33.56Z"/>
  <path class="st0" d="M783.77,477.76c-7.41,4.77-25.86-10.42-29.52-17.01-2.05-3.67-1.69-9.58-4.23-11.77-4.46-3.84-24.72-3.73-27.71-14.41-2.38-8.52,4.73-7.58,7.74-11.53,3.77-4.93,12.2-24.05,17.23-24.9l11.99,9.66c14.07-13.09,35.19,16.16,34.3,28.57s-7.59,28.35-9.81,41.38Z"/>
  <path class="st0" d="M1297.59,1764.6c41.83-3.94,14.5,32.15,10.89,52.87-1.28,7.35.98,15.09-1.98,22.02-7.66,17.92-44.66,4.76-43.99-8.16.11-2.01,5.76-17.67,7.04-20.78s5.53-5.42,5.98-7.79-1.78-7.66-1.63-11.67c.74-20.5,1.89-24.44,23.69-26.49Z"/>
  <path class="st0" d="M792.4,1640.38c-2.2,1.57-4.52,22.96-11.24,27.76-10.47,7.48-11.88-3.21-18.17-8.14-10.55-8.29-33.93-13.09-11.01-27.13.97-4.21-10.54-6.11-.85-18.76,3.27-4.27,19.15-15.69,23.96-16.03,5.62-.4,45.42,8.55,46.75,13.24,1.22,4.3-8.26,18.6-11.74,21.78-6.66,6.07-14.91,5.32-17.69,7.29Z"/>
  <path class="st0" d="M1371.99,159.99c20.6-6.4,15.08,34.22,7.92,40.92-3.52,3.29-29.36,19.93-33.98,22.05-13.82,6.36-15.23-20.37-13.47-29.51.85-4.45,5.3-9.56,5.15-12.12-.47-8.08-14.79-18.03-8.59-31.33l4.2-3.56c12.1,4.15,23.52-2.84,35.55-3.98l4.96,4.98-1.74,12.54Z"/>
  <path class="st0" d="M1965.41,380.61c1.79,1.54,2.58,5.22,5.53,7.44,11.27,8.5,34.75,13.1,13.15,27.21-1.58,5.19,10.17,8.45-2.11,21.72-20.77,22.43-40.88,8.55-66.06,4.11-6.32-4.38,2.21-17.8,6.09-22.08,6.24-6.87,18.32-9.66,20.92-13.08,3.53-4.65,8.52-37.3,22.49-25.32Z"/>
  <path class="st0" d="M1984.47,1599.52c2.76,3.12,29.52,5.33,29.61,17.49.04,4.87-7.88,7.21-11.01,11.06-3.76,4.63-9.12,22.04-16.06,22l-9.06-10.05c-3.21-2.28-7.33,9.81-18.96,1.99-24.95-16.77-15.67-42.63-8.89-66.91.6-2.13.49-4.18,3.15-4.96,7.2-2.4,22.59,11.14,26.42,17.17,2.27,3.57,3.75,11.02,4.79,12.2Z"/>
  <path class="st0" d="M2113.4,1072.41c14.54-4.31,31.2,7.56,44.89,10.3,8.5,1.7,17.31-.08,24.44,3.56,14.61,7.46,8.23,34.23-3.7,41.91-8.01,5.16-28.2-10.61-34.32-11.62-9.12-1.5-25.82,7.57-33.57-6.71-3.77-6.95-6.68-34.79,2.25-37.44Z"/>
  <path class="st0" d="M1285.58,96.59c7.07-.62,11.39-.83,18.53.31,13.76,2.18,59.05,19,64.45,31.7,4.84,11.39-12.04,8.54-17.12,9.83-11.55,2.93-6.91,3.19-20.33,3.48-3.93.09-7.52,2.87-11.65,1.8-4.99-1.29-15.62-19.29-22.44-23.73-8.32-5.41-29.8-5.15-39.54-3.51-11.13,1.88-29.15,19.68-35.46,6.56,15.04-14.91,42.69-24.61,63.57-26.44Z"/>
  <path class="st0" d="M2101.18,1558.17l5.88,1.77c4.87,7.04-10.69,40.68-15.46,48.66-15.05,25.2-38,37.82-65.56,46.44-9.17,2.87-20.67,8.6-29.15.97-3.8-6.17,5.89-12.94,8.83-17.3,1.89-2.79,1.92-6.91,4.21-9.79,3.61-4.54,12.04-7.19,14.04-15.96,11.03-2,21.37,2.72,32.91.9,8.87-1.4,26.04-17.7,30.8-25.19,4-6.29,9.08-29.15,13.5-30.51Z"/>
  <path class="st0" d="M2267.03,880.01c4.08-.94,4.58,1.06,6.72,3.25,4.88,5,13.43,24.97,15.78,32.22,10.26,31.64,6.86,49.33-5.8,79.23-3.39,8.01-13.21,31.45-22.76,31.23-10.03-1.94-5.62-11.69-7.41-18.48-2.86-10.8-2.85-4.95-3.37-18.46-.16-4.21-2.47-8.72-2.18-11.97.77-8.76,25.12-14.27,27.88-32.17,1.03-6.64.88-22.92-.05-29.7-1.01-7.41-17.74-32.49-8.8-35.16Z"/>
  <path class="st0" d="M1413.03,1904.76c7.43.17,17.46,19.49,25.05,24.16,12.1,7.45,30.8,5.76,43.96,2.11,4.92-1.36,33.65-19.05,29.7-4.33-2.33,8.67-43.86,23.13-53.24,24.79-23.4,4.14-42.01-2.29-63.21-11.78-7.79-3.49-35.03-14.79-28.35-25.75,4.92-5.58,12.09-2.92,17.95-4.06,9.48-1.85,8.87-1.56,18.18-2.19,3.76-.26,7.23-3.01,9.96-2.94Z"/>
  <path class="st0" d="M719.47,390.49c8.47-1.36,20.39-3.2,18.56,8.42-.79,5.06-6.27,7.18-8.88,11.25-6.01,9.36-3.67,7.18-12.03,15.97-5.05,5.31-.26,9.3-12.08,10.04-13.77.87-22.11-6.77-36.95,2.93-3.85,2.51-16.07,15.1-18.92,19.08-7.2,10.02-7.49,22.36-13.45,30.55-4.28,5.89-9.12,1.59-9.23-3.26-.4-17.79,23.44-59.24,37.65-70.32,9.7-7.57,43.36-22.72,55.34-24.65Z"/>
  <path class="st0" d="M462.58,1167.39c-12.07-11.25-24.59-55.64-23.84-72.07.54-11.72,19.28-63.03,28.12-69.45,6.62-4.81,12.77-1.94,14.69,5.58,2.77,10.88,2.15,19.72,2.76,29.61.23,3.77,2.98,7.17,2.93,9.96-.13,7.05-16.47,14.13-21.26,19.94-10.01,12.14-9.49,33.09-5.45,47.51,2.01,7.18,16.9,26.2,7.51,30.62-1.7.8-4.2-.53-5.45-1.7Z"/>
  <path class="st0" d="M833.99,1763.98c-3.49,5.14-33.49-6.88-39.34-9.63-21.9-10.31-35.56-21.92-46.37-43.63-4.11-8.24-22.77-50.96-14.03-56.45,9.19-3.31,11.48,4.35,17.02,7.45,11.54,6.46,8.86,3.62,18.63,13.37,2.27,2.26,6.69,3.69,8.23,5.76,3.57,4.79-1.27,23.4-.19,32.2,1.44,11.71,17.47,26.89,27.4,32.6,5.6,3.22,34.38,9.89,28.64,18.33Z"/>
  <path class="st0" d="M1903.31,284.22c14.23-4.39,60.5,21.53,70.68,32.79,9.72,10.75,29.87,56.16,28.12,70.07-2.45,19.47-14.1,2.05-19.36-.83-10.61-5.82-7.17-2.3-16.66-11.34-2.3-2.19-6.77-3.75-8.24-5.76-5.56-7.62,1.46-22.37.04-32.01-1.74-11.76-18.97-29.31-29.21-34.82-9.28-5-21.58-4.69-28.68-13.34-.48-2.15,1.46-4.18,3.3-4.75Z"/>
  <path class="st0" d="M1915.04,1457.07c11.47.71,24.13,8.83,30.5,18.16-3.03,9.71,4.52,40.27-9.45,43.93-3.9,1.02-30.49-2.91-35.72-4.52-5.97-1.84-13.68-6.24-15.56-12.58-1.19-4.01,2.65-38.21,4.99-41.25,2.45-3.19,20.36-4.03,25.24-3.73Z"/>
  <path class="st0" d="M2095.59,934.44c.77.45,2.24,4.8,4.3,6.63,7.04,6.24,22.93,18.68,19.77,29.49-.59,2.03-23.9,21.54-26.92,23.18-4.7,2.55-13.68,4.98-18.8,3.45-5.51-1.65-30.01-30.98-29.06-35.37,5.5-6.13,13-18.21,19.68-22.26,5.85-3.54,25.6-8.29,31.02-5.12Z"/>
  <path class="st0" d="M1307.46,272.36c3.76-.81,6.44-.9,9.69,1.51,2.76,2.04,21.65,28.17,22.42,31.55,3.68,16.12-5.71,22.47-17.74,31.42-2.48,1.85-15.45,10.79-16.85,10.69-16.73-13.75-28.75-22.52-28.99-46.5.11-5.4,6.43-6.1,9.01-9.02,5.79-6.57,12.96-17.59,22.46-19.64Z"/>
  <path class="st0" d="M1427.49,1702.29c3.59-.87,20.6,13.92,23.37,17.85,4.96,7.05,10.59,25.81,5.28,33.01-1.48,2-5.45,2.9-7.14,4.85-7.95,9.14-12.66,16.98-26.06,19.97-3.77-.06-21.19-23.25-23.81-28.1-4.54-8.4-8.25-16.68-1.16-24.91,2.38-2.76,27.13-22.09,29.53-22.67Z"/>
  <path class="st0" d="M889.41,1542.42c5.02-1.49,41.36,2.02,43.67,5.5,1.09,13.85,4.06,26.83-2.66,39.49-1.11,2.09-9.12,13-10.39,13.61-2.33,1.14-27.06,1.18-30.81.73-6.15-.73-12.69-2.39-16.27-7.82,1.1-12.92,1.21-46.99,16.46-51.52Z"/>
  <path class="st0" d="M638.57,1113.38c-1.51-1.25-3.04-5.2-5.47-7.46-5.36-5-20.86-18.67-18.83-26.5.87-3.34,25.29-22.58,29.61-24.54,5.94-2.69,12.11-4.42,18.71-2.46,2.06.61,25.19,27.01,26.42,29.62,3.27,6.89-12.8,23.47-18.88,27.09-6.51,3.87-25.46,9.27-31.55,4.26Z"/>
  <path class="st0" d="M1819.23,446.55c9.61,2.92,38.4-4.28,42.39,8.84,1.37,4.5-2.55,33.41-4.58,38.64-8.6,22.15-33.96,9.35-51.74,9.67l-3.02-2.98c-3.85-21.44-3.48-42,16.96-54.17Z"/>
  <path class="st0" d="M797.33,530.32c7.68-2.66,45.78,4.12,50.81,12.55,3.3,5.53.32,43.4-4.05,46.22-9.35.35-19.41,3.89-28.59,2.45-7.06-1.11-24.6-11.39-25.54-18.66-.39-3.03-.22-20.33.04-23.84.34-4.63,2.84-17.16,7.34-18.72Z"/>
  <path class="st0" d="M1217.97,1685.99c-3.29,3.22-3.44-.8-4.08-2.99-9.14-31.49,38.42-68.08,67.05-67.09,3.11.11,27.77,7.12,31.54,8.6,15.92,6.24-4.63,17.79-7.36,21.62-2.89,4.05-1.65,10.46-6.13,13.83-9.6-11.83-14.49-13.48-29.79-11.74-16.94,1.93-34.41,11.82-44.86,25.13-2.7,3.44-5.87,12.15-6.38,12.65Z"/>
  <path class="st0" d="M2002.01,1090.01c.69,9.47-10.83,11.4-11.99,21.18-1.51,12.71,8.57,38.94,17.09,48.69,4.27,4.88,11.8,8.98,17.1,12.96,2.21,1.66,4.97-.04,3.79,5.14-36.4,7.42-71.22-37.28-68.01-70.99.31-3.25,7.81-29.89,8.95-31.04,9.53-9.61,20.55,18.79,33.06,14.05Z"/>
  <path class="st0" d="M1865.99,624c-7.63,27.69,35.07,45.46,56.74,43.78,3.34-.26,21.05-6.99,19.23-.81-2.43,8.28-22.77,18.08-30.97,19.04-22.56,2.65-55.57-5.32-68.68-25.32-4.2-6.41-11.22-20.1-12.03-27.25,2.3-8.42,15.98-4.53,22.62-5.53,4.01-.6,7.74-5.66,13.09-3.91Z"/>
  <path class="st0" d="M732.01,957.98c-2.54-3.5,10.35-11.21,11.58-15.39,6.92-23.47-13.95-59.91-36.62-68.58-3.97-5.54,12.58-3.49,15.14-3.1,27.4,4.16,55.1,40.86,53.77,67.82-.14,2.92-8.28,33.36-9.73,34.41-10.15,7.38-21.52-18.04-34.14-15.16Z"/>
  <path class="st0" d="M966.01,526.01c18.81,2.49,24.45-2.32,33.59-17.41,11.01-18.18,14.42-38.37,6.4-58.58,5.74-4.3,18.48,15.94,20.38,20.6,8.22,20.13-.52,62.47-18.49,76.27-7.15,5.49-18.59,7.37-25.32,14.73-3.41.94-8.87,1.39-10.29-2.91,1.29-13.15-1.82-21.03-6.28-32.7Z"/>
  <path class="st0" d="M1767.99,1521.99c-23.7-7.22-42.75,30.41-44.06,49.06-.69,9.81,4.22,19.23,3.08,28.94-31.47-17.4-24.86-74.69-2-95.97,2.87-2.67,29.84-18.08,32.06-18.03,9.45.21,6.15,19.25,7.01,24.93.56,3.73,5.03,6.51,3.9,11.07Z"/>
  <path class="st0" d="M870.01,1425.99c3.9-18.87-8.58-29.34-23.93-37.07-19.08-9.6-33.71-6.63-54.06-5.91,14.45-21.15,38.87-23.39,62.52-18.54,28.35,5.81,39.46,24.61,51.42,48.58-2.57,10.98-15.06,5.66-22.86,7.05-5.06.9-7.74,6.28-13.08,5.9Z"/>
  <path class="st0" d="M1519,364.04c7.57-.55-1.03,27.9-2.61,31.35-8.08,17.59-41.9,36.83-61.38,36.78-11.11-.03-20.4-6.78-31.54-6.62-15.19-10.07,2.69-16.93,6.34-22.74,2.5-3.97,1.11-9.64,5.23-12.79,10.04,5.52,10.44,12.55,23.87,12.04,25.46-.97,47.61-16.51,60.1-38.01Z"/>
  <path class="st0" d="M1505.52,310.35c7.5-1.26,21.99,10.71,22.58,16.75.7,7.18-13.8,16.59-19.5,20.51-8.04,5.52-35.24,22.23-43.23,24.92-1.83.62-3.34,2-5.37.61-5.83-2.96-7.53-26.99-4.96-33.1,2.93-6.98,42.35-28.33,50.48-29.69Z"/>
  <path class="st0" d="M1973.53,645.53c-7.06,7.06-42.13-3.22-51.96-6.1-5.56-1.63-26.08-6.65-27.38-10.76-1.96-6.23,14.05-24.75,19.25-26.3,8.93-2.66,55.52,10.52,60.34,18.85,2.91,5.03,3.8,20.25-.26,24.31Z"/>
  <path class="st0" d="M715.84,933.83c-9.97,2.43-27.1,8.06-35.73,1.06-8.1-6.56-28.06-45.31-26.09-55.82,1.54-8.23,16.03-19.01,25.02-11.1,6.51,5.73,18.61,26.18,23.36,34.63,2.78,4.94,15.89,27.68,13.45,31.22Z"/>
  <path class="st0" d="M1763.31,1550.17c5.89-1.69,24.89,14.7,26.31,21.28,2.05,9.47-10.99,57.2-21.04,60.13-3.52,1.02-13.83,1.05-17.53.35-9.18-1.74-7.83-13.57-6.87-20.78,1.17-8.8,11.34-47.43,14.82-55.16.97-2.16,1.72-5.09,4.31-5.83Z"/>
  <path class="st0" d="M967.41,416.42c35.56-10.37,20.66,32.44,15.6,51.6-1.72,6.51-6.09,29.58-12.02,30.1-5.59.08-22.18-11.97-23.94-16.16-4.69-11.12,7.89-61.91,20.36-65.54Z"/>
  <path class="st0" d="M1269.5,1676.38c5.92-1.54,8.88,1.46,10.06,7.06.59,2.79,2.13,19.06,1.88,21.33-1.22,11.13-45.72,34.39-56.47,33.41-4.75-.44-15.35-9.35-16.62-13.61-2.47-8.28,6.92-16,12.98-20.24,5.04-3.52,44.91-27.1,48.17-27.95Z"/>
  <path class="st0" d="M2020.48,1114.47c4.42-3.5,29.02-4.91,34.4-.33,7.97,6.77,29.31,45.92,26.3,55.92-1.5,5-12.67,14.52-18.08,14.04-3.29-.29-12.84-10.13-15.1-13.1-5.23-6.88-26.44-42.57-28.5-49.62-.68-2.31-1.02-5.32.98-6.91Z"/>
  <path class="st0" d="M763.28,1402.28c10.14-3.31,37.49,3.54,48.8,6.64,5.65,1.55,30.29,7.3,29.64,13.73-.42,4.17-14.96,21.68-19.12,22.92-9.82,2.93-57.36-8.78-61.61-17.57-1.98-4.11-2.64-24.12,2.29-25.73Z"/>
  <path class="st0" d="M1919.44,1770.29c9.47-2.68,19.44,17.53,25.77,23.5,6.91,6.51,15.09,11.33,24.34,13.66,7.24,1.82,33.08,3.16,36.54,5.45,3.67,2.42,1.58,8.83-.25,11.96l-3.19,2.8c-30.62,5.47-66.73-.95-87.68-25.63-3.85-4.54-13.6-16.53-10.06-22.07.47-.74,13.68-9.43,14.52-9.66Z"/>
  <path class="st0" d="M449.66,889.65c-20.38,4.94-38.95-5.57-59.54,5.48-8.29,4.45-36.8,35.36-39.79,15.4-1.67-11.17,26.23-32.3,35.62-37.57,16.33-9.15,27.86-12.57,47-10.93,25.53,2.19,20.65,5.83,16.7,27.61Z"/>
  <path class="st0" d="M1525.77,109.77c-2.92,1.87-24.17-3.1-25.53-7.06-1.74-5.06,1.68-12.08,1.84-17.63.47-15.62,1.23-25.73-6.47-39.69-3.84-6.96-22.76-26.34-21.41-31.99,4.49-18.74,31.77,10.53,36.62,16.78,19.04,24.53,24.43,49.36,14.94,79.6Z"/>
  <path class="st0" d="M728.18,235.84c-.58-8.63-.47-14.36,8.94-15.65,28.32-3.9,61.3,3.44,80.94,24.76,17.59,19.1,19.15,24.39-6.64,34.84-12.56-10.15-19.04-26.82-34-34.19-14.43-7.12-33.75-5.68-49.23-9.76Z"/>
  <path class="st0" d="M607.34,1560.29c5.37-.52,13.04,15.35,15.87,19.81-13.7,16.04-32.82,22.56-38.66,45.46-1.98,7.77-2.6,32.43-5.48,36.51s-12.95,2.33-14.66-3.49c-4.77-16.21-.43-45.45,6-61.16,3.69-9.01,27.95-36.27,36.92-37.14Z"/>
  <path class="st0" d="M2159.32,384.18c21.56-6.13,10.56,52.04,6.76,62.89-4.23,12.09-22.69,34.68-34.16,39.89-9.29,4.22-20.39-14.64-19.17-19.02,2.03-7.31,30.52-20.45,36.69-41.52,2.43-8.28,3.29-40.37,9.89-42.25Z"/>
  <path class="st0" d="M1234.01,1941.99c.99,19.09-5.5,34.8,1.4,53.59,3.59,9.78,26.48,34.68,26.08,39.45-.32,3.79-8.98,7.65-13.35,5.98-13.78-5.24-39.19-41.87-41.66-56.5-1.16-6.86-1.29-39.59,1.94-44.08,8.07-4.8,16.27,3.94,25.6,1.55Z"/>
  <path class="st0" d="M2381.51,1132.46c10.78,11.62-14.39,31.02-22.88,37.17-20.76,15.03-33.5,18.71-59.7,16.44-24.64-2.14-15.86-8.26-12.73-27.87,25.25-.48,38.76,6.88,62.06-6.95,7.8-4.63,19.5-16.97,26.33-19.8,2.31-.96,5.25-.8,6.92,1.01Z"/>
  <path class="st0" d="M558.01,1160.01l32.19,10.79c3.61,21.01-1.68,39.42,15.73,56.27,5.14,4.97,24.03,15.96,27.12,20.88,1.69,2.7,1.61,5.09-1.01,7.12-9.55,6.87-53.25-26.83-60.04-36.08-13.37-18.23-8.39-38.38-13.99-58.99Z"/>
  <path class="st0" d="M1593.03,1758.01c9.23,1.93,3.73,13.62,1.35,19.37-5.71,13.79-25.64,40.25-38.97,47.03-13.9,7.07-22.58,4.11-36.3,5.7-5.73.67-11.84,8.16-17.06.91l12.8-29.16c5.76-4.09,21.78-.91,29.97-2.03,21.2-2.9,34.66-27.69,48.2-41.81Z"/>
  <path class="st0" d="M699,548.04l15.06,30.88c-.61,6.17-8.51,8.17-12.04,12.1-20.49,22.82-16.81,43.69-11.95,72.01-.06,2.6-2.36,5.53-5.02,4.95-10.53-2.29-19.03-50.87-18.83-60.76.52-26.02,20.76-38.64,32.79-59.19Z"/>
  <path class="st0" d="M916.68,1713.32c-1.94-1.53-3.28-5.42-6.83-8.17-5.24-4.07-11.27-7.38-17.63-9.37l-.15-5.67c10.96.97,20.65-12.4,28.99-12.28,5.98.09,13.04,12.31,19.11,17,23.51,18.15,37.99,8.27,63.44,7.6,7.36-.2,8.99,4.84,3.13,9.32-9.06,6.92-42.45,13.96-53.96,14.04-11.46.07-27.06-5.32-36.1-12.46Z"/>
  <path class="st0" d="M1808.41,369.56c-.89-.52-9.32-12.26-13.46-15.51-9.25-7.27-19.71-11.32-31.61-11.27-12.1.06-28.35,8.07-39.28.23-.97-12.24,52.88-19.63,63.02-19.08,24.77,1.33,24.82,10.36,40.25,21.75,3.58,2.64,16.15,7.13,16.67,9.35,1.31,5.67-11.33,6.02-14.46,7.51-5.53,2.62-13.02,11.75-21.13,7.03Z"/>
  <path class="st0" d="M2046.01,1382.01c8.86-1.2,11.45,8.53,14.03,14.95,7.01,17.47,10.98,45.01,4.91,62.98-4.46,13.19-12.27,16.56-19.82,26.18-3.9,4.97-7.22,21.66-13.57,9.32-1.62-3.15-1.56-7.45-3.1-10.9-2.34-5.2-7.07-5.28-6.65-13.54.43-8.48,7.01-7.95,11.28-12.93,23.44-27.32,13.12-43.56,12.93-76.07Z"/>
  <path class="st0" d="M2157.29,822.71c16.38,16.66,12.17,24.05,14.93,44.07.7,5.1,9.07,21.94,2.74,23.23-9.74-7.05-20.2-6.89-29.98-11.98-1.44-21.52.93-39.76-15.89-56.11-3.93-3.82-26.24-18.64-27.11-21.29-.57-1.72.32-4.54.03-6.61,6.65-7.08,48.9,22.19,55.29,28.7Z"/>
  <path class="st0" d="M1227.41,214.3l4.56,2.8-10.77,29.1c-19.58,3.38-34.08-.57-51.25,12.75-7.63,5.92-21.54,27.76-25.9,30.11-10.46,5.63-6.8-7.77-4.99-13,5.84-16.83,26.79-45.48,43.33-52.66,15.6-6.78,29.85-.57,45.02-9.09Z"/>
  <path class="st0" d="M1491.5,246.38c6.61-.6,20.08,12.41,23.41,17.71,12.23,19.51-9.54,26.07-21,36.82-4.51,4.23-7.19,13.89-14.8,13.19-8.04-.73-17.87-23.53-17.1-30.93.79-7.6,20.06-35.94,29.49-36.79Z"/>
  <path class="st0" d="M1255.35,1734.29c7.76-.67,18.99,24.74,17.83,31.8-.63,3.82-17.01,29.25-20.15,31.93-11.47,9.81-25.36-1.95-31.94-12.12-13.23-20.46,4.17-23.47,15.86-33.96,5.03-4.52,13.09-17.2,18.4-17.66Z"/>
  <path class="st0" d="M1948.29,601.7c-3.8-6.02,4.65-31.52,10.9-35.51,1.86-1.19,30.95-7.94,34.01-8.03,17.19-.54,18.54,17.26,16.61,30.67-3.64,25.34-23.26,13.84-38.92,13.11-7.92-.37-14.93,4.59-22.6-.23Z"/>
  <path class="st0" d="M1829.49,1663.48c-3.68,3.47-22.85,3.24-28.36,2.4-24.3-3.74-11.17-24.22-10.96-38.89.12-7.95-5.89-16.57,1.83-22,7.69-3.82,29.72,4.7,33.75,12.27,4.3,8.08,11.1,39.29,3.75,46.22Z"/>
  <path class="st0" d="M613.45,874.39c18.22-4.03,21.31,15.66,31.51,25.65,3.79,3.71,13.37,4.55,12.61,12.65-.81,8.64-24.15,18.6-32.42,17.29-6.74-1.07-34.91-20.92-35.36-28.99-.42-7.53,16.79-25.09,23.66-26.61Z"/>
  <path class="st0" d="M913.42,382.42c8.4-1.9,29.01-.74,33.1,8.05,4.43,9.52-1.55,24.22-2.11,34.53-.32,5.89,6.03,15.7-2.94,19.54-6.64,2.85-28.67-5.89-32.34-12.69-2.38-4.42-7.82-31.68-7.29-36.91.61-5.97,5.69-11.19,11.57-12.53Z"/>
  <path class="st0" d="M2080.52,1143.5c-1.91-1.95-2.41-5.74-2.55-8.44.77-6.93,24.37-17.12,30.77-16.48,7.11.71,37.13,22.01,37.13,30.42,0,4.98-13.49,19-17.78,22.08-21.11,15.15-25.83-10.32-37.01-21.15-3.71-3.59-8.83-4.66-10.56-6.43Z"/>
  <path class="st0" d="M735.41,1444.42l50.72,2.46c5.64,3.95-3.09,28.63-7.21,33.03-5.84,6.26-41.54,13.29-48.85,7.02s-7.13-38.53,5.34-42.51Z"/>
  <path class="st0" d="M1265.51,1850.44c6.24-.38,14.69,4.23,20.54,6.51l2.01,4.05c-5.03,18.4-22.62,55.01-44.91,32.84-1.59-1.58-9.54-12.31-10.18-13.98-1.38-3.64,6.73-21.82,9.86-24.03,1.11-.79,20.34-5.25,22.68-5.39Z"/>
  <path class="st0" d="M1897.46,1670.3c1.72-.45,3.14-.67,4.59.59,15.36,23.39,21.52,67.49-20.55,54.61-9.8-3-16.02-20.81-12.43-29.43.59-1.41,9.32-13.65,10.83-15.17,2.24-2.26,15.11-9.96,17.56-10.6Z"/>
  <path class="st0" d="M2200.25,1104.26c7.36-4.75,40.19,16.62,42.94,25.68,3.63,11.98-10.72,26.38-21.14,29.26-5.32,1.47-22.93-8.76-25.12-15.11-4.81-13.95-2.34-26.71,3.33-39.82Z"/>
  <path class="st0" d="M535.82,943.8c-18.43,1.74-56.15-20.41-40.67-41.66.61-.83,15.35-11.51,16.31-11.79,6.28-1.84,22.67,5.97,25.45,11.74,6.8,14.09,3.99,27.9-1.09,41.71Z"/>
  <path class="st0" d="M689.5,1524.38c10.46-.95,31.43,20.74,32.21,32.36-10.95,12.99-53.49,22.35-57.41-.21-.85-4.87,2.57-23.58,7.03-26.19,1.46-.85,16.53-5.81,18.17-5.96Z"/>
  <path class="st0" d="M1473.47,148.32c12.39-2.19,30.22,14.49,28.2,26.18-.3,1.76-5.94,13.22-7.2,14.97-6.87,9.55-35.47,10.22-44.5,3.58-8.95-6.57,13.71-43,23.51-44.73Z"/>
  <path class="st0" d="M2045.5,478.52c9.87-1.21,18.64-.59,22.97,9.98,2.17,5.29,1.12,24.97-2.41,28.56-1.86,1.89-17.94,7.03-21.09,7.01-3.76-.02-19.3-9.24-22.07-11.98-1.66-1.64-8.9-17.26-8.87-19.15.13-7.96,24.67-13.59,31.47-14.42Z"/>
  <path class="st0" d="M833.48,322.49c5.29-1.41,21.29.26,25.66,3.37,2.27,1.62,8.72,18.67,8.73,21.15.06,9.85-23.51,34.28-34.53,30.79-5.94-1.88-22.57-49.23.14-55.3Z"/>
  <path class="st0" d="M1963.47,1464.41c16.94-3.63,31.47,17.26,30.5,32.55-1.31,20.73-9.16,33.17-31.47,23.54-15.72-6.79-2.95-35.64-6.5-49.5.32-3.93,3.99-5.84,7.47-6.59Z"/>
  <path class="st0" d="M2109.42,906.42c10.12-2.29,23.72-1.69,31.66,5.49,9.44,8.54,19.98,22.92,10,34.17-22.87,25.77-36.18-10.16-52.81-23.53-1.68-6.1,5.38-14.82,11.15-16.13Z"/>
  <path class="st0" d="M1861.42,433.44c-6.43,7.98-15.36,2.73-22.44,2.57-12.37-.27-36.7,4.76-31.64-15.65,1.24-5.01,15.65-19.93,20.55-21.46,9.57-2.99,35.93.05,38.11,12.19.83,4.62-1.7,18.77-4.58,22.35Z"/>
  <path class="st0" d="M1481.36,1797.37c-1.54,1.84-15.63,12.19-17.92,13.06-18.37,6.97-32.98-16.71-23.53-29.53l32.74-26.61c16.8,3.74,17.21,32.93,8.71,43.09Z"/>
  <path class="st0" d="M595.43,1094.43c4.78-1.42,9.45-.97,13.69,1.46,1.66.95,24.41,26.07,25.82,28.26,4.81,7.47-1.59,16.83-9.84,17.94-4.62.62-19.69.68-24.05-.14-7.85-1.49-21.73-22.81-21.24-30.96.34-5.59,10.92-15.17,15.62-16.56Z"/>
  <path class="st0" d="M753.44,526.42c8.78-1.95,23.6.81,26.75,10.55l-4.1,46.12c-12.65,6.53-27.97-5.82-33.11-17.08-4.25-9.32-1.3-36.96,10.46-39.58Z"/>
  <path class="st0" d="M925.72,1614.28c10.69,12.41-12.21,36.29-22.97,37.07s-32.69-2.55-33.72-16.28c-2.88-38.21,33.86-17.84,56.7-20.79Z"/>
  <path class="st0" d="M1289.29,240.71c26.49,23.03-11.21,36.01-23.36,52.35-18.19,2.22-17.55-18.89-15.97-32.1.99-8.29,8.44-14.35,15.36-18.64,9.07-5.62,15.05-9.36,23.96-1.61Z"/>
  <path class="st0" d="M1390.53,330.53c-2.56,4.05.51,11.85-8.45,14.66-5.59,1.75-20.76-4.4-23.08-9.17-10.3-21.14,34.6-45.55,47.01-35.04,5.07,4.29-.47,16.12-3.58,20.45-3.82,5.32-10.85,7.42-11.91,9.09Z"/>
  <path class="st0" d="M1351.4,1704.4c17.41-5.26,37.05,12.9,17.68,31.69-13.89,13.48-53.71,25.87-38.53-4.55,4.95-9.92,12.7-10.57,14.45-13.53,2.37-4-.7-11.46,6.4-13.6Z"/>
  <path class="st0" d="M1852.64,524.64c13.44-12.14,57.43,2.6,53.1,17.95-1.68,5.94-15.13,9.43-20.73,9.59-3.67.1-7.29-2.11-10.13-1.98-6.27.27-12.42,13.16-21.34-.73-4.39-6.84-7.79-18.6-.9-24.82Z"/>
  <path class="st0" d="M647.44,984.29c14.54-3.4,20.34,12.46,26.69,16.59,8,5.19,17.65,2.01,12.93,19.19-11.11,40.4-61.81-17.14-39.62-35.78Z"/>
  <path class="st0" d="M867.41,1494.38c14.39-4.55,21.36,14.67,17.72,25.73-5.36,16.3-51.65,6.75-56.36-10.06-2.06-7.35,16.28-14.26,22.07-13.95,3.6.19,8.07,3.51,10.22,3.26,1.9-.21,3.64-4.12,6.36-4.98Z"/>
  <path class="st0" d="M876.58,488.61c11.91-9.66,19.1,8.98,19.27,18.6.08,4.78-3.45,9.64-3.21,11.84.41,3.6,13.35,10.57-.72,19.87-33.65,22.24-35.21-34.2-15.34-50.3Z"/>
  <path class="st0" d="M1859.38,1559.35c-2.15,1.87-5.64,3.03-8.4,3.83-5.11.25-10.32-12.01-10.91-16.35-.86-6.4,2.82-13.26,1.66-17.39-.85-3.04-5.59-4.44-5.71-8.38-.34-11.08,19.09-17.96,27.94-14.03,14.98,6.8,5.73,43.34-4.59,52.32Z"/>
  <path class="st0" d="M2061.66,1046.34c-3.39-2.09-12,2.16-14.85-8.31-2.06-7.58,6.78-22.29,14.67-23.72,15.33-2.77,37.29,31.77,30.14,46.14-4.97,9.99-20.24.94-25.67-5.41-2.09-2.43-3.65-8.32-4.29-8.71Z"/>
  <path class="st0" d="M1792,1687c2.54-8.89,35.59-10.04,39.01-3.01,3.17,6.53.43,25.58-6.2,29.82-1.22.78-26.42,5.88-28.28,5.82-2.45-.08-3.1-.76-4.53-2.63v-30Z"/>
  <path class="st0" d="M572.36,836.39c6.68-3.88,25.2,16.18,25.81,22.58.88,9.13-15.59,27.21-23.22,27-6.07-.16-18.18-17.06-18.45-23.32s13.47-19.5,15.86-26.25Z"/>
  <path class="st0" d="M2161.74,1213.71c-5.19,2.97-25.33-18.76-25.72-24.86-.48-7.4,16.35-25.08,22.98-25.07,7.83.01,19.26,15.45,19.17,23.26-.03,2.25-15.06,25.87-16.43,26.66Z"/>
  <path class="st0" d="M2064.69,1078.69c8.66-7.54,25.64-11.33,28.88,2.73,3.3,14.3-1.95,25.33-12.54,34.59-6.86,6.01-9.44,4.73-15.01-1.06-12.11-12.6-15.19-24.21-1.34-36.26Z"/>
  <path class="st0" d="M810.67,1495.28c-9.64-6.78-13.17-20.36-12.22-31.81,1.21-14.51,22.71-9.34,31.45-4.38,13.67,7.75,5,53.24-19.23,36.19Z"/>
  <path class="st0" d="M1525.47,214.34c7.04-1.49,28.91,11.59,30.32,17.06,1.17,4.55-18.68,24.04-22.9,24.66-6.16.91-25.49-17.16-26.61-21.49-1.87-7.18,12.94-18.92,19.2-20.24Z"/>
  <path class="st0" d="M2026.47,597.53c-3.62-3.62-3.76-30.81-.67-34.72,5.92-5.83,24.04-2.25,29.33,3.06,3.28,3.3,8.61,28.53,5.99,32.27-5.89,2.92-30.72,3.32-34.65-.61Z"/>
  <path class="st0" d="M1461.41,323.4c-1.83,2.13-17.14,12.19-20,13.12-16.28,5.31-38.99-30.95-17.51-37.62,17.27-5.35,31.33,5.96,39.36,20.11-.06,1.72-.74,3.09-1.85,4.38Z"/>
  <path class="st0" d="M1798.24,1591.77c-2.55-2.97,1.83-29.32,5.81-32.72,10.36-8.82,45.91-.65,36.9,18.92-6.51,14.15-29.04,18.07-42.72,13.8Z"/>
  <path class="st0" d="M693.64,1448.48c6.39,0,15.1.24,17.48,7.41,1.49,4.5,1.72,20.29.83,25.06-2.05,10.96-24.61,8.32-31,3.12-6.83-5.56-5.81-23.51-8.07-32.11,1.06-1.53,17.78-3.47,20.76-3.47Z"/>
  <path class="st0" d="M1199.42,1794.39c8.77-2.67,22.67,9.63,26.68,16.49,6.51,11.16-9.94,23.68-19.39,24.58-6.39.61-23.45-13.54-28.56-18.75-.38-2.27,18.49-21.48,21.27-22.32Z"/>
  <path class="st0" d="M942.01,329.99c4.15,35.77,2.36,42.61-36.13,37.14-4.53-3.15-1.96-26.68,3.11-31.14,2.72-2.4,31.63-7.36,33.02-6Z"/>
  <path class="st0" d="M1926.73,557.25c3.08,2.74,7.09,3.74,8.4,8.68l-.02,26.2c-3.58,5.12-33.18.59-35.07-9.17-2.43-12.55-.26-34.67,16.75-32.94,6.9.7,6.57,4.25,9.93,7.24Z"/>
  <path class="st0" d="M1295.51,1712.33c15.48-2.63,34.16,29.22,18.5,36.67-3.56,1.69-18.73,1.75-22.6.59-2.13-.64-18.4-14.57-19.1-17.02-2.23-7.82,16.95-19.19,23.2-20.25Z"/>
  <path class="st0" d="M937.72,458.27c2,3.19-3.96,29.9-7.04,31.9-60.94,12.79-38.71-47.14,7.04-31.9Z"/>
  <path class="st0" d="M644.46,973.53c-3.2-3.17-3.39-21.62-2.06-26.12.92-3.11,16.62-19.82,20.31-19.19s14.26,16.57,15.72,20.33c6.34,16.24-22.66,36.18-33.97,24.98Z"/>
  <path class="st0" d="M1815.42,514.6c10.39,8.76-.97,20.16-10,23.96-5.74,2.41-9.73-1.01-15.89-.19-6.83.91-20.43,12.35-24.52,3.63-9.94-21.16,36.37-39.22,50.41-27.39Z"/>
  <path class="st0" d="M1423.31,1646.18c6.62-1.9,13.26,7.74,14.31,13.34,2.14,11.42-10.06,37.14-22.23,41.01-17.38,5.53-17.82-10.77-12.87-23,1.94-4.8,8.07-8.05,11.15-12.85,2.81-4.38,5.74-17.39,9.64-18.5Z"/>
  <path class="st0" d="M697.37,1056.29c5.22,1.69,14.47.64,18.66,2.68,2.28,1.11,4.16,6.28,7.27,8.73,5.9,4.67,22.81,8.57,22.77,15.3-10.61,27.85-74.32-3.83-48.7-26.71Z"/>
  <path class="st0" d="M1313.7,401.68c-7.55,4.69-14.92-5.44-15.8-12.6-1.85-14.93,11.85-44.73,30.63-40.67,9.83,2.13,7.43,14.47,5.05,22.16-1.16,3.74-8.39,8.4-11.24,12.76-2.18,3.32-7.76,17.81-8.63,18.34Z"/>
  <path class="st0" d="M1854.98,1420.98c22.88-.68,38.72,53.74,13.16,56.18-3.37.32-14.48-13.93-15.31-17.06-.88-3.35,1.44-7.73.8-12.56-.87-6.68-10.76-20.39-5.63-24.56,2.19-1.09,4.51-1.92,6.97-2Z"/>
  <path class="st0" d="M961.52,1504.35c13.2-1.69,10.72,11.97,5.39,19.57-7.93,11.32-42.6,21.94-49.88,6.04-3.8-8.3,4.5-15.67,11.47-18.45,6.91-2.75,13.18-.66,20.02-1.98,4.04-.78,8.51-4.61,12.99-5.18Z"/>
  <path class="st0" d="M865.47,572.26c5.05-.74,15.02,11.29,16.11,15.16,1.43,5.08-.14,11.38.89,17.11.95,5.28,10.86,20.29,2.24,23.2-24.43,8.27-43.78-51.88-19.24-55.48Z"/>
  <path class="st0" d="M2037.4,966.61c7.18,6.36,11.49,25.23-2.3,25.48-2.04.04-15.65-2.35-17.11-3.08-2.78-1.4-3.64-6.03-6.12-7.88-7.37-5.51-33.49-10.74-16.9-23.15,10.43-7.8,33.97,1.14,42.42,8.64Z"/>
  <path class="st0" d="M2066.19,472.18c9.21-3.72,26.14-6.99,35.33-2.71,7.45,3.47,10.9,19.33,7.47,26.54-3.56,7.46-24.04,7.87-29.84,3.84-2.15-1.5-14.63-25.27-12.96-27.67Z"/>
  <path class="st0" d="M1235.27,1898.49c4.01-.43,10.03,3.64,14.22,5.01,5.09,1.66,11.37-1.92,12.6,5.55,1.57,9.46-14.23,26.03-23.29,26.95-7.84.79-23.01-8.45-22.73-17.01.17-4.98,13.94-19.93,19.19-20.49Z"/>
  <path class="st0" d="M825.48,282.46c4.76-.82,14.82-1.1,17.54,3.51,2.77,4.69,2.24,24.94-3.04,29-2.3,1.77-20.82,11.38-22.67,10.85-8.41-2.43-14.03-39.54,8.17-43.37Z"/>
  <path class="st0" d="M1497.3,112.53c8.15-.74,21.99,9.4,20.73,18.3-.88,6.2-12.56,18.71-19.15,19.13-2.16.14-23.54-5.89-24.89-6.95-8.15-6.45,13.56-29.6,23.31-30.48Z"/>
  <path class="st0" d="M469.47,874.36c8.02-1.67,21.89,10.81,23.75,17.59.31,1.14-4.49,19.38-5.3,22.96-3.22,14.1-29.29-6.66-31.53-18.41-1.53-8.04,4.44-20.34,13.09-22.13Z"/>
  <path class="st0" d="M1915.34,1722.21c8.28-.75,16.41,35.69-1.3,42.82-20.78,8.36-30.2-8.63-22.53-26.52,1.06-2.47,22.02-16.14,23.83-16.3Z"/>
  <path class="st0" d="M2271.37,1171.35c-2.43,2.09-8.12,4.75-11.43,3.87-2.64-.71-15.85-12.93-16.93-15.25-3.9-8.39,6.49-20.17,5.04-29.91,20.46-1.58,42.79,24.54,23.32,41.3Z"/>
  <path class="st0" d="M630.58,1577.4c-6.47-5.47-8.99-27.11,2.47-29.35,3.66-.72,20.3-.67,22.97.93,4.04,2.43,6.67,18.95,13.85,22.28-4.63,12.74-30.61,13.47-39.29,6.14Z"/>
  <path class="st0" d="M1807.49,1512.5c37.45-9.59,27.22,45.44.4,36.62-9.52-3.13-18.74-31.92-.4-36.62Z"/>
  <path class="st0" d="M2039.48,1046.35c9.44-1.41,20.12,14.32,20.44,22.85.25,6.81-8.85,16.56-14.91,16.73-1.05.03-17.86-8.04-18.95-8.99-10.81-9.36.87-28.73,13.42-30.6Z"/>
  <path class="st0" d="M1421.42,334.63c9.66,7.72,6.94,17.71.96,26.75-14.06,21.25-37.93-2.08-30.91-16.91,3.55-7.49,22.47-15.81,29.94-9.84Z"/>
  <path class="st0" d="M861.5,1454.45c24.4-3.42,21.27,30.06,11.13,33.16-8.49,2.59-27.54-1.83-30.25-11.05-4.32-14.7,6.64-20.36,19.12-22.11Z"/>
  <path class="st0" d="M1889.54,589.54c-12.77,5.9-32.86,11.42-34.94-8.79-3.59-34.87,51.05-21.57,34.94,8.79Z"/>
  <path class="st0" d="M687.47,964.34c5.13-1.06,22.77,6.84,24.21,10.97,3.49,10.01-2.77,23.47-13.17,26.21-19.87,5.23-33.18-32.63-11.03-37.19Z"/>
  <path class="st0" d="M935.41,531.44c-6.3,7.6-20.9,6.3-28.95,2.1-6.12-15.92-2.48-36.53,18.63-33.63,10.77,1.48,16.86,23.65,10.32,31.53Z"/>
  <path class="st0" d="M1319.38,1680.4c16.21-4.94,35.57,14.26,20.42,28.4-11.95,11.15-27.57,9.87-33.54-6.26-.5-3.52,9.5-21.04,13.12-22.14Z"/>
  <path class="st0" d="M1563.45,190.45c14.96-3.15,18.44,5.08,18.46,18.86,0,10.07-12.9,16.55-22,13.77-22.62-6.91-19.1-27.86,3.54-32.63Z"/>
  <path class="st0" d="M643.37,1446.39c23.66-7.37,29.87,27.16,18.64,32.61-10.12,4.91-36.18-5.55-30.52-18.44,1.03-2.34,9.68-13.49,11.88-14.17Z"/>
  <path class="st0" d="M923.41,288.31c7.34-2.19,20.23,6.73,22.17,13.09,5.05,16.57-13.83,26.43-28.19,22.18-11.89-3.52-1.75-32.96,6.02-35.27Z"/>
  <path class="st0" d="M534.47,814.46c16.38-9.43,39.54-1.53,30.54,19.52-15.27,35.72-40.61-9.82-30.54-19.52Z"/>
  <path class="st0" d="M2181.43,1202.35c12.74-3.81,22.55,17.95,20.61,28.62-2.31,12.66-41.59,11.14-33.15-15.07,1.03-3.21,9.54-12.65,12.54-13.55Z"/>
  <path class="st0" d="M1809.56,1724.52c25.81-.7,9.49,38.14-2.38,37.52-18.35-.96-28.27-36.68,2.38-37.52Z"/>
  <path class="st0" d="M2070.47,570.49c6.67-6.72,37.63,3.09,33.16,18.06-1,3.36-9.12,12.68-12.66,13.4-21.3,4.35-27.28-14.37-20.5-31.46Z"/>
  <path class="st0" d="M1163.4,1826.42c14.45-4.31,35.44,11.02,23.7,23.68-2.26,2.43-18.58,10.06-22.15,10.05-14.46-.05-15.33-29.62-1.55-33.74Z"/>
  <path class="st0" d="M2093.47,1174.3c1.73-.34,3.38-.62,5.11-.03,13.17,11.25,12.76,23.56-1.58,33.72-9.57,6.77-25.73.78-24.97-10.85.4-6.12,15.57-21.68,21.45-22.84Z"/>
  <path class="st0" d="M724.51,1402.5c1.03-1.07,12.79-6.33,14.49-6.35,15.45-.13,13.09,35.26,7.03,38.9-5.28,2.98-20.74-2.25-23.03-7.04-2.09-4.38-1.84-22.03,1.52-25.51Z"/>
  <path class="st0" d="M641.43,838.38c5.07-1.53,13.29.55,17.36,3.83,12.19,9.83-12,34.06-19.47,33.37-6.5-.6-13.97-14.66-13.34-20.54.33-3.11,12.44-15.76,15.45-16.66Z"/>
  <path class="st0" d="M1777.71,1644.29c4.07,20.59-8,31.48-28.33,25.33-5.55-1.68-10.72-14.63-9.07-20.2,3.1-10.44,29.31-8.54,37.4-5.13Z"/>
  <path class="st0" d="M1529.42,284.42c3.79-.88,9.07-1.18,12.6.57.83.41,11.39,13.56,11.65,14.45,1.75,5.99-2.89,18.59-9.13,20.26-9.57,2.57-22.69-14.7-27.79-21.65-1.49-5.27,8.2-12.59,12.67-13.62Z"/>
  <path class="st0" d="M1189.4,1730.37c11.15-3.41,25.34,13.11,28.7,22.52-11.84,19.25-24.97,15.13-36.26-1.82-3.54-5.31,1.86-18.95,7.55-20.7Z"/>
  <path class="st0" d="M962.56,380.6c4.02-3.39,21.07-1.66,25.45.38,6.42,2.99,10.76,19.82,1.99,24.03-4.13,1.98-27.68,1.96-31.19-.82-5.8-4.58-.92-19.65,3.75-23.59Z"/>
  <path class="st0" d="M1988.47,649.52c-4.38-4.37-2.51-26.72-1.6-33.65,7.24-4.07,19.01-2.69,24.07,4.19,3.14,4.28,2.43,22.03.09,25.97-2.79,4.72-17.71,8.31-22.56,3.49Z"/>
  <path class="st0" d="M1821.31,536.3c6.52-2.15,20.37.88,24.43,6.96,1.54,2.31,6.56,15.25,6.32,17.66-.57,5.82-12.28,14.59-18.65,12.81-4.54-1.27-14.53-26.36-15.09-31.23-.36-3.08-.45-5.06,2.98-6.2Z"/>
  <path class="st0" d="M699.39,1008.39c6.78-2.07,19.89.73,20.67,8.69.45,4.57-12.18,31.89-17.33,32.78-3.98.69-13.63-15.12-13.84-18.82-.29-5.04,5-20.97,10.5-22.66Z"/>
  <path class="st0" d="M895.45,1476.37c2.37-.51,4.84-.9,7.21-.11,4.4,1.46,17.46,32.55,11.45,36.9-23.17,8.2-44.61-31.27-18.66-36.79Z"/>
  <path class="st0" d="M1357.46,346.35c4.39-1.28,23.51,4.21,25.56,7.61,2.37,3.93.61,18.76-2.94,21.11-6.75,4.47-40.39-9.81-37.16-17.11,3.46-2.58,11.11-10.61,14.55-11.61Z"/>
  <path class="st0" d="M899.49,540.38c12.46-2.49,23.93,15.53,9.9,24-5.91,3.57-30.52,15.24-31.2,2.77-.73-13.4,8.23-24.16,21.3-26.77Z"/>
  <path class="st0" d="M1352.34,1695.67c-.95-19.48-1.81-27.91,19.01-20.02,7.5,2.84,24.97,8.48,18.79,17.47-9.94,14.46-24.78,9.09-37.81,2.55Z"/>
  <path class="st0" d="M2031.33,1000.2c5.72-1.53,14.73,13.44,14.75,18.78.06,15.1-10.4,27.74-26.07,20.01-10.67-5.26,5.85-37.33,11.32-38.79Z"/>
  <path class="st0" d="M1856.01,1475.99c2.48,17.05-5.94,31.35-23.78,33.07-6.95.67-17.74-13.99-11.39-21.22,3.5-3.99,31.88-15.13,35.18-11.85Z"/>
  <path class="st0" d="M911.77,1658.22c6.54,34.12-46.48,39.24-27.89-1.33l27.89,1.33Z"/>
  <path class="st0" d="M733.84,569.83c-22.87,6.66-41.12-32.99-13.23-33.16,21.73-.13,15.86,17.94,13.23,33.16Z"/>
  <path class="st0" d="M575.52,1130.36c3.32-.84,4.89-.57,7.63,1.5.8.6,12.3,14.6,12.57,15.57,4.56,16.16-29.5,18.99-35.42,3.12-2.48-7.32,9.03-18.62,15.22-20.19Z"/>
  <path class="st0" d="M1839.48,364.45c3.07-.54,6.1-1.02,9.19-.16,8.92,4.29,7.64,28.83-1.66,29.77-4.72.47-16.88-3.56-23.12-2.93-5.45-12.59,2.19-24.34,15.59-26.68Z"/>
  <path class="st0" d="M1242.98,216.8c9.04-.36,16.89,10.13,19,18.25-.1,4.2-17.2,19.34-20.69,18.74-16.84-5.14-10.71-36.5,1.69-36.98Z"/>
  <path class="st0" d="M1497.62,1796.38c21.3,25.06-12.97,55.61-23.68,16.69,2.2-6.22,16.73-20.72,23.68-16.69Z"/>
  <path class="st0" d="M2027.64,1507.67c-6.46,4.99-22.44,5.72-27.87-.51-3.34-3.83,2.37-20.58.22-27.17,19.89-4.01,30.21,8.59,27.65,27.68Z"/>
  <path class="st0" d="M2173.41,894.58c8.4,9.69-11.9,28.31-21.41,22.42-1.04-.64-13.58-16.81-13.72-18.35,4.46-13.5,27.19-13.23,35.14-4.06Z"/>
  <path class="st0" d="M1439.47,348.27c9.96-1.46,13.8,18.91,14.21,26.35-20.88,19.88-38.03-15.84-14.21-26.35Z"/>
  <path class="st0" d="M1793.75,1555.75c-11.05,1.09-34.3-6.9-25.87-20.89,10.88-18.05,36.89,3.68,25.87,20.89Z"/>
  <path class="st0" d="M849.42,1422.28c6.91-1.74,14.42,8.83,14.44,14.73s-10.74,16.59-16.79,16.77c-21.59.63-5.69-29.48,2.36-31.5Z"/>
  <path class="st0" d="M721.5,940.52c14.09,16.68-19.88,34.2-28.52,15.45-6.07-13.19,23.69-21.16,28.52-15.45Z"/>
  <path class="st0" d="M1303.48,1672.51c12.81,13.61-11.7,46.71-20.1,13.13-4.73-18.91,11.05-22.74,20.1-13.13Z"/>
  <path class="st0" d="M940.23,494.24c11.23-2.54,36.58,6.12,26.69,19.7-12.15,16.69-34.98-3.25-26.69-19.7Z"/>
  <path class="st0" d="M1885.43,596.41c3.53-.8,7.31-1.04,10.7.47,6.32,8.58-2.73,29.65-12.94,29.15-15.71-.77-14.74-25.75,2.24-29.61Z"/>
  <path class="st0" d="M2014.29,1109.71c-9.9-18.52,10.09-32.47,24.75-19.76,14.91,12.92-13.76,22.9-24.75,19.76Z"/>
  <path class="st0" d="M1341.84,349.86l-2.82.12c-10.63-7.86-7.61-19.18,3.92-23.93,7.4.49,15.16,10.46,8.15,16.04-3.09,2.46-8.92,1.66-9.25,7.77Z"/>
  <path class="st0" d="M1867.15,1480.13c11.85-2.47,19.92,21.43,5.39,23.52-16.44,2.37-8.86-22.8-5.39-23.52Z"/>
  <path class="st0" d="M859.34,546.31c4.52-1.59,13.33-.16,14.49,5.08.19.84-3.67,16.07-5.06,16.48-13.31,3.95-18.82-18.27-9.43-21.56Z"/>
  <path class="st0" d="M1843.7,512.3c3.06,1.92,2.47,14.07.11,17.54l-19.82-1.83c-4.05-11.17,11.48-20.87,19.72-15.7Z"/>
  <path class="st0" d="M679.43,1038.27c7.48-1.04,6.68,8.8,12.32,13.1-.96,16.56-26.85,4.78-20.81-7.38.97-1.95,6.34-5.42,8.49-5.72Z"/>
  <path class="st0" d="M2063.38,994.6c4.92,5.75.05,13.99-6.5,15.37-11.64,2.45-4.7-9.45-14.88-12.98,2.45-9.16,16.07-8.59,21.38-2.39Z"/>
  <path class="st0" d="M909.99,1519.99c6.49,15.43-18.71,25.39-21.63,8.57-2.75-15.86,14.63-5.62,21.63-8.57Z"/>
  <path class="st0" d="M1384.49,1719.51c-8.84-8.83,1.39-11.78,5.39-14.73,2.47-1.83,2.37-8.87,9.3-2.95,6.34,5.41,1.38,19.37-6.24,20.21-2.63-.14-6.6-.67-8.45-2.52Z"/>
</svg>