<?xml version="1.0" encoding="UTF-8"?>
<svg id="Layer_0_xA0_Image" xmlns="http://www.w3.org/2000/svg" version="1.1" viewBox="0 0 2732 2048">
  <!-- Generator: Adobe Illustrator 30.2.1, SVG Export Plug-In . SVG Version: 2.1.1 Build 1)  -->
  <defs>
    <style>
      .st0 {
        fill: #83755c;
      }
    </style>
  </defs>
  <path class="st0" d="M1772,0c2.02,2.62,3.88,5.37,6.07,7.84,110,123.72,220.04,247.42,330.07,371.12,1.11,1.24,2.3,2.41,3.36,3.7,4.27,5.23,4.04,7.65-1.8,10.93-31.64,17.78-63.32,35.49-95.07,53.08-6.4,3.55-7.34,3.16-13.48-3.49-20.79-22.52-41.51-45.1-62.25-67.66-23-25.01-45.98-50.04-69.02-75.01-2.24-2.43-4.8-4.56-8.08-7.65-2.66,1.31-5.87,2.8-9.01,4.44-51.6,27.07-103.19,54.16-154.79,81.24-2.36,1.24-4.73,2.44-7.11,3.65-3.75,1.91-7.01,1.47-9.81-1.85-6.65-7.88-13.54-15.58-19.86-23.72-1.18-1.52-.9-5.08.02-7.1,1.2-2.62,3.68-4.67,5.66-6.92,39.5-45.11,78.92-90.29,118.61-135.23,4.45-5.04,5.74-9.54,4.18-16.08-14.83-62.17-29.37-124.4-44.03-186.61-.38-1.6-1.1-3.12-1.66-4.68,9.33,0,18.67,0,28,0Z"/>
  <path class="st0" d="M962,2048c-1.95-2.63-3.71-5.44-5.88-7.88-109.85-123.55-219.73-247.07-329.61-370.58-8.6-9.66-8.54-10.05,2.76-16.36,29.38-16.42,58.73-32.87,88.12-49.27,9.76-5.45,9.84-5.45,17.53,2.91,43.33,47.09,86.64,94.21,129.95,141.32,2.46,2.68,4.81,5.45,7.51,8.53,3.96-1.99,7.2-3.56,10.38-5.23,51.32-26.96,102.64-53.93,153.96-80.89,2.06-1.08,4.1-2.24,6.23-3.18,6.12-2.7,7.8-2.31,12.03,2.63,6.06,7.09,11.95,14.33,18.22,21.23,2.8,3.08,3.03,5.69.46,8.74-1.94,2.29-3.9,4.56-5.88,6.81-39.3,44.89-78.53,89.84-118.03,134.55-4.71,5.33-5.81,10.01-4.14,16.96,14.77,61.54,29.12,123.17,43.58,184.78.38,1.61.54,3.28.8,4.92h-28Z"/>
  <path class="st0" d="M1642,0c-29.36,70.76-58.72,141.52-88.07,212.29-1.53,3.69-3.32,7.3-4.55,11.09-1.91,5.89-5.94,8.96-11.56,11.32-43.92,18.43-87.73,37.15-131.57,55.77-1.53.65-3.04,1.39-4.62,1.89-6.15,1.95-8.04.7-8.12-5.61-.07-5.66.19-11.33.21-16.99.17-67.32.31-134.65.47-201.97q.03-12.61,11.93-17.18c39.17-15.06,78.36-30.07,117.51-45.21,3.61-1.4,6.93-3.58,10.38-5.39,36,0,72,0,108,0Z"/>
  <path class="st0" d="M1094,2048c9.81-24.02,19.55-48.06,29.45-72.04,20.08-48.6,40.39-97.1,60.25-145.79,3.48-8.52,8.21-14,17.1-17.65,42.48-17.45,84.63-35.7,126.91-53.64,13.03-5.53,13.99-4.82,13.93,9.12-.34,69.26-.63,138.53-.94,207.79,0,2,0,4-.01,5.99q-.1,12-11.48,16.4c-39.44,15.2-78.88,30.39-118.3,45.63-3.05,1.18-5.94,2.78-8.91,4.19h-108Z"/>
  <path class="st0" d="M1708,0c6.96,26.01,13.97,52.01,20.87,78.04,7.59,28.61,15.1,57.24,22.59,85.88,2.82,10.78,1.9,12.64-8.93,15.57-49.12,13.31-98.26,26.5-147.43,39.62-8.29,2.21-10.35.93-10.62-7.74-.16-5.11.73-10.61,2.59-15.38C1612.56,130.61,1638.31,65.31,1664,0c14.67,0,29.33,0,44,0Z"/>
  <path class="st0" d="M1026,2048c-8.33-32.23-16.63-64.47-24.99-96.7-5.77-22.24-11.64-44.46-17.4-66.71-2.71-10.45-2.03-11.99,8.41-14.85,34.04-9.35,68.15-18.46,102.23-27.65,15.11-4.07,30.21-8.22,45.36-12.13,9.04-2.33,9.27-1.7,11.06,7.19,1.14,5.68-.43,10.44-2.4,15.44-24.41,61.98-48.77,123.98-73.11,185.99-1.21,3.08-2.11,6.28-3.16,9.42h-46Z"/>
  <path class="st0" d="M980.87,230.19c-.87,19.91-1.77,38.86-2.51,57.82-1.65,42.29-3.22,84.59-4.83,126.89-.08,2-.12,4-.33,5.99-.82,7.86-1.8,8.91-9.46,10.32-8.84,1.63-17.7,3.15-26.52,4.92-3.91.78-6.5-.29-7.82-4.12-1.09-3.15-2.24-6.27-3.32-9.42-19.11-56.12-38.35-112.2-57.12-168.44-2.31-6.93-6.03-10.07-12.68-12.05-66.07-19.72-132.06-39.68-198.06-59.59-2.86-.86-5.92-1.49-8.45-2.98-4.65-2.75-4.15-7.72.89-9.91,2.1-.91,4.48-1.23,6.76-1.7,173.86-35.91,347.73-71.8,521.59-107.7,1.96-.4,3.9-.94,5.87-1.2,5.1-.68,6.75.57,7.25,5.54.2,1.98,0,4-.02,6-.47,33.33-.91,66.65-1.41,99.98-.19,12.54-.24,12.54-12.12,15.19-62.74,14.01-125.47,28.02-188.21,42.05-2.89.65-5.74,1.46-9.51,2.43Z"/>
  <path class="st0" d="M2248.72,1087.05c-3.36-2.26-6.05-4.16-8.82-5.91-48.97-30.98-97.96-61.95-146.94-92.92-2.25-1.42-4.48-2.89-6.73-4.31-4.27-2.69-5.52-6.17-3.67-11.07,3.41-9.02,6.6-18.12,9.65-27.26,1.57-4.69,4.81-4.84,8.74-4.07,12.09,2.37,24.19,4.63,36.27,7.04,48.65,9.68,97.32,19.28,145.91,29.23,7.19,1.47,12.18.3,17.73-4.97,49.27-46.8,98.88-93.25,148.41-139.78,2.91-2.73,5.74-5.69,9.09-7.75,4.12-2.53,8.35.2,7.88,5.05-.35,3.58-1.67,7.1-2.82,10.56-35.29,106.49-70.61,212.97-105.93,319.45-20.44,61.61-40.9,123.22-61.34,184.83-.52,1.58-.94,3.2-1.57,4.74-1.59,3.86-4.29,4.85-7.98,2.83-1.17-.64-2.27-1.39-3.42-2.07-29.76-17.72-59.53-35.41-89.27-53.16-9.07-5.42-9.13-5.52-5.87-15.95,18.99-60.68,38.04-121.34,57.05-182.02,1.27-4.06,2.38-8.17,3.63-12.48Z"/>
  <path class="st0" d="M486.26,961.92c3.53,2.35,6.25,4.24,9.04,6.01,49.26,31.16,98.54,62.29,147.81,93.45,2.53,1.6,5.16,3.11,7.47,4.99,2.81,2.29,3.74,5.12,2.3,8.87-3.58,9.32-6.99,18.71-10.15,28.17-1.81,5.43-5.62,4.74-9.68,3.94-16.33-3.22-32.66-6.46-48.99-9.7-44.41-8.81-88.85-17.48-133.2-26.6-6.62-1.36-11.06-.13-15.96,4.51-49.11,46.49-98.45,92.75-147.74,139.06-2.91,2.74-5.63,5.83-8.95,7.92-1.9,1.2-5.48,1.73-7.14.69-1.52-.95-1.99-4.41-1.97-6.76.02-2.23,1.25-4.45,1.98-6.66,55.95-168.75,111.9-337.5,167.85-506.25.52-1.58.87-3.23,1.54-4.74,1.47-3.28,4-4.35,7.33-2.92,1.52.65,2.9,1.62,4.33,2.47,29.47,17.56,58.95,35.1,88.41,52.68,9.71,5.8,9.74,5.86,6.38,16.62-19.18,61.32-38.39,122.64-57.59,183.96-.98,3.14-1.89,6.31-3.06,10.27Z"/>
  <path class="st0" d="M1753.94,1818.91c.53-9.2,1.12-17.49,1.46-25.79,2.17-53.62,4.27-107.24,6.4-160.86.09-2.33.11-4.67.36-6.99.44-4.13,2.61-6.54,6.89-7.28,9.83-1.69,19.65-3.52,29.43-5.48,3.69-.74,5.76.88,7.04,3.95,1.02,2.45,1.77,5.03,2.63,7.55,19.22,56.44,38.61,112.82,57.47,169.39,2.64,7.92,6.79,11.6,14.63,13.92,65.15,19.3,130.17,39.03,195.23,58.63,2.23.67,4.46,1.37,6.69,2.04,3.43,1.03,6.82,2.92,5.77,6.77-.59,2.18-3.73,4.6-6.15,5.19-11.97,2.91-24.07,5.28-36.14,7.77-154.63,31.91-309.27,63.8-463.9,95.71-9.79,2.02-19.56,4.13-29.36,6.06-7.83,1.55-9.72.08-9.62-7.9.41-35.33.91-70.66,1.46-105.98.14-9.17.6-9.66,10.03-11.77,62.41-13.98,124.82-27.92,187.23-41.89,3.87-.87,7.7-1.88,12.46-3.04Z"/>
  <path class="st0" d="M769.02,478.49c-2.49,20.71-5.05,42.21-7.66,63.7-3.17,26.12-6.45,52.22-9.56,78.34-1.97,16.51-2.66,16.91-16.61,8.79-61.02-35.53-122.06-71.04-183.09-106.55q-10.52-6.12-8.63-17.98c13-82.91,25.98-165.81,38.98-248.72.52-3.29.9-6.64,1.82-9.82,1.44-4.98,5.22-6.11,9.03-2.76,1.73,1.52,3.05,3.52,4.47,5.37,55.15,71.9,110.32,143.8,165.39,215.76,2.94,3.84,7.22,7.28,5.87,13.88Z"/>
  <path class="st0" d="M2145.47,782.02c-1.29-.66-4.11-1.63-6.39-3.34-39.71-29.79-79.38-59.63-118.96-89.58-6.9-5.22-6.43-7.73,1.14-12.06,62.44-35.74,124.87-71.5,187.3-107.25,2.31-1.32,4.68-2.56,6.94-3.96,3.29-2.04,6.29-1.6,9.2.75,3.63,2.93,7.29,5.82,10.92,8.75,62.96,50.89,125.92,101.79,188.88,152.69,1.04.84,2.18,1.58,3.08,2.54,2.98,3.2,9.4,4.8,7.28,10.55-1.91,5.19-7.85,4.12-12.31,4.71-59.43,7.88-118.86,15.68-178.3,23.5-31.04,4.08-62.08,8.16-93.12,12.22-1.32.17-2.66.23-5.67.47Z"/>
  <path class="st0" d="M1965.88,1571.61c2.31-19.3,4.44-37.49,6.68-55.67,3.74-30.41,7.55-60.81,11.32-91.22.16-1.32.17-2.67.42-3.97,1.38-7.11,3.77-8.11,10.23-4.35,61.88,36.04,123.76,72.07,185.64,108.11.86.5,1.72,1.01,2.59,1.51,10.7,6.24,10.8,6.25,8.99,18.04-2.77,18.11-5.69,36.19-8.54,54.28-10.38,65.78-20.74,131.57-31.17,197.35-.7,4.39.25,10.4-5.63,11.53-5.08.97-6.97-4.43-9.49-7.71-54.8-71.33-109.55-142.7-164.2-214.14-3.32-4.34-8.4-8.15-6.84-13.75Z"/>
  <path class="st0" d="M584.63,1267.43c4.46-1.55,8.89.73,13.42,4.16,38.24,28.96,76.59,57.78,114.9,86.63.8.6,1.61,1.18,2.38,1.83,6.35,5.35,6.18,7.52-.83,11.53-62.44,35.72-124.87,71.45-187.3,107.18-1.73.99-3.53,1.9-5.17,3.03-4.76,3.29-9.18,3.29-13.53-.84-2.17-2.06-4.64-3.8-6.97-5.68-64.5-52.15-129.02-104.28-193.46-156.51-3.41-2.77-9.23-4.71-7.9-10.41,1.41-6.05,7.54-4.44,11.83-5.02,48.51-6.54,97.05-12.91,145.58-19.3,38.29-5.05,76.59-10.08,114.89-15.11,3.63-.48,7.27-.9,12.19-1.5Z"/>
  <path class="st0" d="M2011.44,490.69c6.25-3.53,12.03-6.78,17.8-10.05,30.73-17.41,61.45-34.85,92.19-52.24,10.61-6.01,12.36-5.6,17.85,4.77,16.21,30.62,32.36,61.28,48.44,91.97,4.62,8.81,4.05,10.94-4.58,16.07-68.45,40.71-136.93,81.37-205.44,121.97-9.01,5.34-12.18,4-17.39-6.85-30.86-64.27-61.67-128.56-92.51-192.85-16.14-33.64-32.33-67.26-48.37-100.95-1.53-3.21-2.92-6.86-2.95-10.32-.05-5.1,3.79-6.95,8.2-4.37,2.86,1.67,5.41,3.88,8.06,5.9,56.59,43.41,113.17,86.83,169.76,130.25,2.87,2.2,5.79,4.33,8.94,6.68Z"/>
  <path class="st0" d="M583.04,733.56c-11.39-6.72-22.26-13.15-33.15-19.56-25.27-14.86-50.55-29.69-75.8-44.58-10.17-6-10.63-7.83-4.24-18.01,18.24-29.06,36.53-58.09,54.85-87.1,5.85-9.25,7.3-9.71,16.75-4.42,69.16,38.74,138.3,77.54,207.41,116.37,9.86,5.54,10.37,8.73,3.29,19.08-41.91,61.34-83.85,122.66-125.78,183.99-18.99,27.78-37.96,55.57-56.96,83.33-1.69,2.47-3.14,5.4-5.45,7.05-2.19,1.56-5.88,2.96-7.97,2.11-1.67-.67-2.88-4.91-2.66-7.43.82-9.62,2.28-19.18,3.53-28.75,8.62-65.71,17.26-131.43,25.87-197.14.17-1.3.17-2.62.31-4.96Z"/>
  <path class="st0" d="M1507.79,1849.05c0,3.74.03,7.36,0,10.98-.37,37.97-.74,75.94-1.12,113.91-.02,1.67.02,3.33-.08,5-.47,7.85-1.81,9.42-9.62,9.42-9.66,0-19.31-.39-28.97-.77-25.96-1.03-51.91-2.12-77.87-3.23-10.45-.45-11.86-1.84-11.98-12.59-.93-78.94-1.82-157.87-2.67-236.81-.13-12.08,1.69-13.89,14.18-12.99,39.19,2.83,78.37,5.84,117.55,8.83,39.85,3.04,79.69,6.15,119.53,9.18,29.22,2.23,58.45,4.34,87.67,6.62,3.27.26,6.76.66,9.68,2.03,5.49,2.57,5.44,7.47.13,10.46-2.31,1.3-4.88,2.12-7.34,3.14-65.81,27.27-131.63,54.53-197.44,81.8-3.66,1.52-7.28,3.14-11.64,5.02Z"/>
  <path class="st0" d="M1006.56,294.91c1.31-5.26,6.07-5.84,9.92-7.44,49.2-20.46,98.43-40.85,147.66-61.25,18.46-7.65,36.85-15.47,55.45-22.78,5.82-2.29,7.98-5.44,7.98-11.76-.02-38.32.36-76.64.61-114.97.02-2.67-.11-5.35.12-7.99.51-5.74,2.4-7.69,7.93-8.35,1.64-.2,3.33-.08,4.99-.01,34.63,1.33,69.26,2.62,103.89,4.03,10.1.41,11.51,1.99,11.65,13.04.7,54.31,1.31,108.63,1.98,162.94.31,24.66.77,49.31,1.03,73.97.12,11.24-2.68,13.67-13.58,12.84-67.77-5.17-135.54-10.29-203.31-15.47-41.53-3.17-83.04-6.46-124.57-9.6-5.3-.4-9.87-1.46-11.75-7.19Z"/>
  <path class="st0" d="M723.67,1558.19c-36.42,20.63-71.78,40.65-107.14,60.69-14.49,8.21-14.84,8.12-22.52-6.45-15.22-28.88-30.45-57.76-45.65-86.65-6.06-11.52-5.83-12.52,4.92-18.9,67.6-40.16,135.21-80.3,202.84-120.4,10.36-6.14,13.08-5.3,18.37,5.71,47.16,98.18,94.29,196.38,141.37,294.6,1.27,2.66,2.53,5.57,2.74,8.45.46,6.23-3.5,8.55-8.86,5.44-2.29-1.33-4.32-3.11-6.44-4.73-56.04-43.01-112.08-86.02-168.13-129.03-3.67-2.82-7.38-5.59-11.52-8.72Z"/>
  <path class="st0" d="M2151.7,1314.88c3.31,2.06,6.06,3.86,8.88,5.53,32.73,19.28,65.47,38.54,98.2,57.8,2.01,1.18,4.09,2.28,5.99,3.61,5.26,3.68,5.79,5.9,2.83,11.76-.9,1.78-2.07,3.42-3.13,5.11-17.94,28.48-35.86,56.96-53.82,85.42-6.14,9.72-7.67,10.19-17.48,4.69-68.88-38.61-137.73-77.27-206.57-115.96-10.13-5.69-10.92-8.68-4.57-17.97,61.65-90.25,123.34-180.49,185.13-270.65,1.98-2.89,4.75-5.63,7.77-7.33,3.66-2.05,6.63-.15,6.98,4.04.24,2.95-.2,5.98-.58,8.94-8.5,64.74-17.03,129.48-25.56,194.21-1.34,10.2-2.69,20.39-4.06,30.78Z"/>
  <path class="st0" d="M476.06,1100.97c9.3,2.11,17.42,3.92,25.53,5.79,73.64,16.95,147.3,33.85,220.89,50.99,6.74,1.57,11.69.45,17.27-3.8,29.68-22.6,59.69-44.76,89.64-67.01,2.91-2.16,5.97-4.38,9.31-5.65,6.09-2.31,9.01.4,7.74,6.69-.33,1.62-.91,3.2-1.45,4.77-29.77,86.57-59.54,173.14-89.32,259.71-.32.94-.71,1.87-1.08,2.8-3.91,9.73-7.52,10.71-15.17,3.61-19.29-17.9-38.45-35.95-57.66-53.93-68.83-64.43-137.65-128.85-206.49-193.27-.73-.68-1.86-1.15-2.22-1.97-.84-1.94-2.33-4.47-1.68-5.95.68-1.56,3.53-2.17,4.67-2.78Z"/>
  <path class="st0" d="M1057.6,602.2c-3.28,1.27-6.4,3.02-9.73,3.67-62.4,12.22-124.83,24.31-187.25,36.43-28.11,5.46-56.21,10.93-84.32,16.39-1.63.32-3.25.88-4.89.94-6.36.22-9.35-2.93-8-9.27,2.97-14,6.33-27.92,9.58-41.86,24.31-104.4,48.64-208.81,72.95-313.21.23-.97,0-2.23.55-2.91,1.34-1.66,3.01-4.24,4.53-4.23,1.66,0,3.73,2.25,4.85,4.01,1.2,1.9,1.51,4.38,2.19,6.6,23.85,77.65,47.79,155.27,71.4,233,2.13,7.01,5.48,11.07,12.33,13.94,34.71,14.51,69.2,29.56,103.77,44.41,5.2,2.23,10.56,4.25,12.06,12.08Z"/>
  <path class="st0" d="M1166.16,1637.42c-3.78-32.09-7.43-63.19-11.1-94.29-.94-7.94-1.92-15.87-2.87-23.81-.12-.99-.18-1.99-.24-2.99-.21-4.07-.47-8.69,3.6-10.69,4.76-2.34,7.05,2.37,9.54,5.22,22.81,26.09,45.54,52.26,68.28,78.41,37.17,42.75,74.34,85.51,111.51,128.27,10.23,11.77,9.41,14.69-5.5,19.22-114.08,34.65-228.16,69.27-342.24,103.91-1.27.39-2.56,1.28-3.77,1.17-1.81-.15-4.33-.47-5.12-1.66-.84-1.27-.6-3.97.22-5.45,1.26-2.27,3.4-4.06,5.21-6.01,55.61-59.78,111.22-119.56,166.84-179.34,3.4-3.65,7.68-6.91,5.65-11.94Z"/>
  <path class="st0" d="M1748.88,210.81c-1.96,2.7-3.14,4.69-4.66,6.36-6.74,7.38-13.58,14.66-20.39,21.98-49.47,53.16-98.87,106.37-148.5,159.38-4.91,5.24-7.02,9.95-6.03,17.53,4.95,37.97,9.09,76.04,13.52,114.07.12.99.4,1.97.43,2.96.13,4.08.03,8.56-4.14,10.4-4.33,1.91-6.48-2.32-8.78-4.96-30.21-34.64-60.35-69.34-90.51-104.03-29.72-34.18-59.45-68.36-89.18-102.54-.22-.25-.43-.51-.65-.76-9.86-11.39-9.01-14.63,5.07-18.91,70.39-21.37,140.78-42.71,211.17-64.07,43.95-13.34,87.9-26.71,131.85-40.06,1.89-.57,4-1.72,5.69-1.32,1.79.43,3.21,2.41,5.11,3.96Z"/>
  <path class="st0" d="M1972,1397.76c-1.51,6.61-3.13,13.75-4.79,20.88-25.89,111.21-51.78,222.42-77.75,333.61-.78,3.33-.19,8.39-4.93,8.79-5.33.46-5.59-4.71-6.72-8.4-23.95-77.96-48-155.9-71.63-233.96-2.44-8.07-6.22-12.75-14.15-16.03-33.84-14-67.39-28.71-101.01-43.22-3.33-1.44-6.82-2.92-9.55-5.21-1.74-1.46-3.08-4.49-2.92-6.7.09-1.36,3.18-3.09,5.19-3.63,5.45-1.47,11.04-2.46,16.6-3.54,84.64-16.44,169.28-32.88,253.93-49.28,3.58-.69,7.23-1.5,10.85-1.47,5.14.04,7.14,2.59,6.88,8.16Z"/>
  <path class="st0" d="M2003.93,889.46c-2.13,1.39-4.95,3.02-7.53,4.94-30.48,22.68-60.9,45.44-91.43,68.05-3.13,2.32-6.7,4.48-10.4,5.51-4.68,1.31-7.07-1.27-6.26-5.98.45-2.6,1.49-5.11,2.35-7.62,29.36-85.35,58.81-170.67,88.02-256.07,4.06-11.86,7.24-17.69,20.21-5.48,86.87,81.79,174.09,163.21,261.19,244.76,1.21,1.13,2.61,2.16,3.45,3.54,1.78,2.93.14,6.41-3.31,6.57-2.58.12-5.23-.68-7.81-1.27-80.19-18.36-160.37-36.75-240.56-55.13-2.27-.52-4.54-1.03-7.93-1.8Z"/>
  <path class="st0" d="M1276.5,530.41c-.78,11.45-1.56,22.33-2.24,33.21-.52,8.31-.77,16.64-1.43,24.94-.77,9.72-1.43,10.34-10.76,9.94-24.29-1.04-48.58-2.24-72.87-3.37-23.29-1.08-46.58-2.05-69.86-3.29-3.56-.19-7.23-1.08-10.55-2.4-33.72-13.41-67.38-26.96-101.05-40.52-2.45-.99-5.05-1.94-7.11-3.52-3.2-2.46-2.4-6.56,1.54-7.58,2.82-.73,5.93-.63,8.89-.48,63.88,3.13,127.75,6.33,191.62,9.49,2.26.11,4.53.01,7.68.01.42-3.69.92-6.9,1.13-10.13,3.57-53.5,7.11-107.01,10.66-160.52.11-1.66.11-3.34.34-4.98.93-6.75,2.09-8.01,9.01-7.64,11.97.65,23.92,1.65,35.87,2.64,28.88,2.39,57.75,4.79,86.61,7.31,11.98,1.05,12.88,2.03,13,14.05.47,44.64.88,89.27,1.21,133.91.09,11.55-2.64,13.91-14.39,13.16-21.94-1.4-43.87-2.86-65.81-4.22-3.56-.22-7.15-.03-11.51-.03Z"/>
  <path class="st0" d="M1859.49,1127.09c3.71,2.62,6.63,4.76,9.64,6.78,43.41,29.14,86.84,58.26,130.26,87.39,2.49,1.67,5,3.31,7.46,5.02,3.59,2.49,4.46,5.65,2.1,9.46-1.23,1.98-2.53,3.92-3.86,5.83-21.98,31.77-43.97,63.53-65.97,95.29-1.33,1.92-2.62,3.88-4.13,5.64-3.19,3.72-6.95,5.02-11.48,2.27-1.42-.86-2.9-1.63-4.35-2.45-38.29-21.59-76.58-43.17-114.86-64.77-1.74-.98-3.55-1.88-5.15-3.05-5.29-3.86-6.14-8-2.86-13.75.99-1.73,2.19-3.34,3.3-5,12.01-18.01,24.03-36.02,36.01-54.04,1.81-2.72,3.46-5.56,5.64-9.08-7.42-4.9-14.31-9.47-21.22-14.01-9.18-6.04-18.41-12.01-27.55-18.11-8.22-5.49-8.46-6.61-3.02-15.07,23.05-35.86,46.53-71.45,69.05-107.63,7.38-11.86,16.41-21.36,27.38-29.74,24.61-18.81,48.77-38.21,73.2-57.25,3.2-2.49,6.75-7.6,11.08-3.93,4.92,4.16.06,8.53-2.29,12.18-33.92,52.62-67.95,105.18-101.95,157.76-1.98,3.06-3.87,6.17-6.43,10.26Z"/>
  <path class="st0" d="M984.8,1350.78c16.73-8.42,32.46-16.33,48.2-24.24q13.84-6.96,20.81,6.57c21.24,41.13,42.51,82.23,63.66,123.4,1.33,2.59,2.09,5.6,2.51,8.5,5.27,35.91,10.44,71.84,15.58,107.77.42,2.95.83,6.02.48,8.94-.48,4.06-4.52,5.57-7.26,2.6-2.43-2.62-4.16-5.98-5.82-9.21-28.27-55.11-56.48-110.26-84.72-165.39-1.65-3.23-3.42-6.4-5.5-10.28-3.05,1.29-5.77,2.3-8.35,3.57-48.44,23.74-96.87,47.51-145.3,71.28-1.79.88-3.54,1.89-5.39,2.62-5.74,2.28-7.48,1.78-10.4-3.74-2.81-5.29-5.21-10.79-7.77-16.21-14.67-31-29.33-62.01-43.99-93.02-1.14-2.41-2.42-4.78-3.23-7.3-1.48-4.61-.63-8.45,4.05-11,4.68-2.55,9.18-5.41,13.77-8.12,34.13-20.16,68.25-40.31,102.38-60.47,1.72-1.02,3.39-2.12,5.17-3.04,7.37-3.8,11.66-2.61,15.45,4.83,6.5,12.76,12.71,25.66,19.06,38.5,5.31,10.72,10.64,21.41,16.61,33.43Z"/>
  <path class="st0" d="M875.49,921.77c-3.43-2.4-6.31-4.51-9.28-6.49-44.26-29.71-88.53-59.4-132.78-89.1-11.17-7.5-11.21-7.56-3.7-18.44,22.15-32.07,44.35-64.11,66.54-96.16.95-1.37,1.85-2.78,2.91-4.06,4.82-5.78,6.94-6.32,13.65-2.61,13.41,7.41,26.7,15.04,40.05,22.57,24.95,14.08,49.9,28.15,74.85,42.23,1.74.98,3.52,1.9,5.24,2.92,8.89,5.3,9.95,9.21,4.36,17.75-8.76,13.37-17.72,26.62-26.58,39.93-5.51,8.28-10.99,16.59-16.84,25.42,2.72,2.05,4.95,3.93,7.36,5.53,13.9,9.18,27.89,18.22,41.76,27.44,7.83,5.2,8.07,6.33,2.93,14.32-23.96,37.27-48.18,74.37-71.86,111.82-5.62,8.89-12.26,16.23-20.55,22.62-25.6,19.72-50.9,39.84-76.32,59.8-1.83,1.44-3.5,3.36-5.59,4.13-2.18.8-4.77.47-7.18.63-.08-2.47-.8-5.16-.07-7.36.91-2.76,2.99-5.15,4.62-7.67,33.29-51.47,66.58-102.93,99.86-154.41,2.13-3.3,4.12-6.68,6.63-10.79Z"/>
  <path class="st0" d="M1750.17,698.26c-13.97,6.99-27.02,13.53-40.06,20.06-5.06,2.54-10.15,5.03-15.17,7.65-4.32,2.25-7.66,1.57-9.93-2.94-1.05-2.08-2.13-4.15-3.2-6.22-21.41-41.43-42.86-82.84-64.17-124.33-1.48-2.88-2.28-6.24-2.75-9.47-5.36-36.92-10.6-73.86-15.85-110.8-.23-1.63-.55-3.36-.27-4.94.7-3.92,4.74-5.55,7.45-2.69,2.45,2.59,4.19,5.95,5.84,9.17,28.28,55.14,56.49,110.31,84.74,165.46,1.66,3.23,3.43,6.4,5.51,10.25,2.97-1.24,5.69-2.2,8.25-3.46,48.45-23.77,96.88-47.58,145.32-71.38q12.48-6.13,18.46,6.36c16.55,34.92,33.07,69.85,49.6,104.78.29.6.57,1.21.84,1.81,4.66,10.37,4.25,11.94-5.33,17.62-25.8,15.29-51.63,30.52-77.45,45.77-12.91,7.63-25.77,15.34-38.74,22.85-9.49,5.5-13.31,4.34-18.17-5.42-10.4-20.87-20.69-41.8-31.03-62.7-1.02-2.06-2.12-4.08-3.88-7.45Z"/>
  <path class="st0" d="M1524.43,1502.09c-1.52,21.94-2.95,42.52-4.36,63.09-2.5,36.56-4.92,73.12-7.52,109.67-.77,10.82-1.88,11.47-13.04,10.54-38.84-3.23-77.68-6.41-116.52-9.61-1-.08-2-.1-2.99-.22-10.08-1.16-11.84-3.02-11.94-13.2-.31-30.98-.52-61.97-.83-92.96-.14-13.66-.49-27.32-.58-40.98-.09-12.31,2.52-14.96,14.58-14.28,22.95,1.31,45.88,2.88,68.83,4.3,2.29.14,4.6.02,8.13.02.47-3.7,1.16-7.49,1.39-11.3.92-15.63,1.66-31.27,2.55-46.9.52-9.17,1.72-10.45,10.84-10.03,31.95,1.47,63.89,3.16,95.83,4.72,15.64.76,31.28,1.32,46.91,2.18,3.24.18,6.61.8,9.61,1.99,34.35,13.64,68.66,27.39,102.93,41.23,3.48,1.4,8.81,2.06,7.7,7.48-1.09,5.32-6.16,4.16-9.97,3.97-31.28-1.5-62.55-3.12-93.83-4.71-32.61-1.66-65.21-3.36-97.82-5-2.93-.15-5.86-.02-9.88-.02Z"/>
  <path class="st0" d="M1502.02,1255.22c-1.39,24.12-2.73,47.39-4.07,70.66-.29,4.99-.39,10-.92,14.96-.88,8.22-3.85,11.11-12.31,11.04-12.66-.11-25.33-.51-37.97-1.24-9.15-.53-11.6-3.39-11.43-12.68.46-25.99,1.1-51.98,1.66-77.97.55-25.66,1.1-51.31,1.61-76.97.03-1.64-.21-3.29-.39-5.88-2.72-.45-5.45-.9-8.96-1.49-.36,3.78-.78,6.68-.88,9.59-1.47,39.3-2.89,78.6-4.33,117.89-.07,2-.11,4-.22,5.99-.25,4.29-2.18,6.85-6.84,6.73-8.66-.22-17.35-.06-25.98-.64-7.79-.53-10.26-3.47-10.35-11.73-.2-18-.17-35.99-.2-53.99-.11-60.32-.2-120.65-.29-180.97,0-2-.09-4.01.03-6,.55-9.07,5.49-12.16,13.08-7.71,20.98,12.3,41.77,24.93,62.73,37.27,4.18,2.46,5.74,5.9,6.56,10.46,6.35,35.41,12.88,70.78,19.38,106.16.59,3.24,1.33,6.45,2.17,10.5,3.3-.73,6.13-1.17,8.85-1.98,35.75-10.62,71.52-21.22,107.2-32.09,3.6-1.1,6.35-.93,9.38.92,17.91,10.95,35.82,21.9,53.8,32.73,4.07,2.45,5.79,6.07,6.9,10.46,3.57,14.21,7.42,28.35,11.02,42.56.86,3.42,2.78,7.37-.88,10.18-3.9,3-7.6.7-10.98-1.58-21.57-14.49-43.33-28.73-64.57-43.7-7.17-5.06-13.48-6.27-21.99-3.75-23.31,6.88-46.91,12.76-70.39,19.07-3.18.85-6.31,1.91-10.39,3.15Z"/>
  <path class="st0" d="M1255.68,1224.12c3.25,2.32,5.93,3.81,8.1,5.85,26.92,25.35,53.71,50.85,80.7,76.12,2.71,2.54,4.04,4.98,3.96,8.56-.49,20.98-.69,41.98-1.55,62.94-.15,3.57-2.21,7.79-4.73,10.42-10.83,11.3-22.07,22.22-33.42,33-1.9,1.81-6.11,3.83-7.46,2.97-2.32-1.49-3.7-5.04-4.58-7.99-.62-2.08.25-4.6.4-6.92,1.75-25.92,3.47-51.85,5.26-77.77.31-4.43.1-8.2-3.54-11.77-20.69-20.3-41.1-40.88-61.63-61.34-.45-.45-1.13-.68-2.46-1.44-2.79,1.28-6.09,2.68-9.29,4.29-21.72,10.91-43.41,21.9-65.14,32.79-9.69,4.85-13.34,3.76-18.58-5.65-5.34-9.6-10.51-19.3-15.68-29.01-6.14-11.54-5.32-14.4,5.97-20.57,42.95-23.5,85.91-46.97,128.87-70.46,3.17-1.73,6.3-3.53,10.03-5.62-1.2-3.23-2.19-5.89-3.46-9.29-4.24,2.16-7.78,3.91-11.27,5.76-33.27,17.59-66.53,35.19-99.8,52.79-2.35,1.25-4.69,2.52-7.09,3.69-4.27,2.07-7.51,1.46-9.84-3.19-3.28-6.55-7.01-12.87-10.46-19.33-5.34-9.99-4.6-12.86,5.06-18.47,45.21-26.27,90.46-52.49,135.69-78.72,22.19-12.87,44.37-25.72,66.57-38.58,2.02-1.17,3.98-2.47,6.1-3.41,6.61-2.9,11.27-.21,11.61,6.92.26,5.32,0,10.66-.06,15.99-.22,17.99-.75,35.98-.57,53.97.07,7.33-2.34,12.38-8,17.09-27.64,23.03-54.97,46.44-82.39,69.73-1.76,1.49-3.42,3.1-7.32,6.67Z"/>
  <path class="st0" d="M1634.33,1023.12c6.9,4.58,12.97,8.65,19.07,12.66,17.26,11.35,34.57,22.62,51.79,34.03,7.91,5.24,8.98,9.36,4.19,17.45-6.28,10.61-12.75,21.1-19.43,31.46-5.14,7.97-9.09,8.73-17.42,3.67-42.43-25.76-84.82-51.58-127.23-77.37-3.1-1.89-6.28-3.64-9.99-5.78-2.04,2.48-3.84,4.65-6.21,7.52,3.68,2.39,6.66,4.39,9.7,6.3,32.71,20.57,65.44,41.13,98.16,61.69,1.97,1.24,4,2.42,5.89,3.77,3.16,2.26,4.12,5.04,1.91,8.59-4.74,7.65-9.16,15.5-14.17,22.96-4.14,6.16-7.65,6.54-15.38,2.14-23.74-13.52-47.41-27.14-71.1-40.75-44.48-25.56-88.95-51.13-133.43-76.7-1.16-.66-2.34-1.28-3.46-2-8.16-5.29-8.24-10.94.08-15.75,11.83-6.83,23.83-13.35,35.75-20.01,7.27-4.06,14.83-7.69,21.73-12.31,7.35-4.91,14.09-5.2,22.44-2.08,32.12,12.03,64.5,23.34,96.8,34.89,3.35,1.2,6.79,2.15,10.95,3.45,3.78-15.52,7.35-30.02,10.83-44.54,5.81-24.29,11.7-48.56,17.22-72.92.92-4.08,2.86-6.39,6.28-8.24,17.87-9.68,35.72-19.38,53.48-29.26,4.44-2.47,8.73-2.6,13.44-1.26,13.78,3.9,27.62,7.56,41.38,11.52,3.65,1.05,8.86.91,9.43,5.92.65,5.69-4.3,7.66-8.52,9.73-20.35,9.94-40.33,20.76-61.18,29.52-13.96,5.86-20.93,14.47-24,29.39-4.96,24.08-12.38,47.65-19,72.33Z"/>
  <path class="st0" d="M1199.85,1009.85c2.23-2.75,3.87-4.78,5.79-7.16-1.77-1.46-3.16-2.87-4.79-3.89-34.11-21.5-68.25-42.95-102.39-64.41-1.97-1.24-3.96-2.46-5.92-3.73-3.76-2.45-4.39-5.5-1.97-9.35,4.07-6.49,7.94-13.11,12.01-19.6,5.66-9.03,8.72-9.9,17.85-4.67,30.66,17.53,61.27,35.16,91.89,52.76,36.98,21.25,73.95,42.51,110.93,63.77,2.02,1.16,4.15,2.17,6.03,3.53,6.34,4.59,6.41,10.27-.31,14.11-21.71,12.37-43.64,24.36-65.39,36.67-4.48,2.54-8.37.88-12.41-.56-31.06-11.09-62.1-22.22-93.14-33.33-5.59-2-11.19-3.95-17.31-6.11-1.04,3.13-2.05,5.55-2.65,8.07-8.74,36.6-17.35,73.24-26.28,109.8-.69,2.81-3.01,6.05-5.5,7.46-18.26,10.35-36.67,20.44-55.26,30.18-2.89,1.51-7.17,1.83-10.38,1.03-15.51-3.86-30.92-8.14-46.25-12.67-2.45-.72-5.82-3.25-6.06-5.26-.26-2.23,2.25-5.15,4.19-7.15,1.54-1.58,4.03-2.26,6.12-3.28,23.35-11.41,46.68-22.86,70.08-34.15,4.38-2.11,7.7-4.44,9.06-9.67,7.09-27.41,14.52-54.73,21.8-82.09.33-1.25.3-2.61.52-4.72-2.84-1.91-5.81-3.94-8.82-5.92-20.33-13.36-40.69-26.67-60.99-40.08-8.29-5.48-9.35-9.71-4.29-18.27,5.94-10.04,12.09-19.95,18.34-29.79,5.8-9.14,9.61-10.03,18.85-4.43,42.15,25.6,84.26,51.27,126.4,76.9,3.11,1.89,6.27,3.68,10.26,6.02Z"/>
  <path class="st0" d="M1499.69,792.73c5.29-2.59,9.77-4.73,14.2-6.96,20.83-10.48,41.63-21.04,62.5-31.44,7.49-3.73,11.7-2.67,15.82,4.51,6.45,11.27,12.65,22.71,18.5,34.3,3.97,7.86,2.19,11.77-6.66,16.63-42.96,23.53-85.94,47-128.91,70.5-3.48,1.91-6.93,3.88-10.94,6.13,1.08,3.02,2.03,5.66,3.16,8.83,2.09-.76,3.67-1.14,5.06-1.88,35.95-18.97,71.87-37.99,107.81-56.98q11.75-6.21,18,5.26c3.19,5.85,6.63,11.58,9.54,17.56,3.06,6.3,1.94,9.65-3.82,13.53-1.65,1.12-3.43,2.06-5.16,3.06-66.58,38.62-133.15,77.24-199.76,115.81-4.48,2.6-8.93,6.91-14.65,3.55-5.46-3.21-3.35-8.94-3.32-13.69.15-21,.95-42,.67-62.98-.1-7.9,2.75-12.92,8.57-17.78,26.62-22.2,52.95-44.74,79.37-67.17,2.53-2.15,4.99-4.38,8.14-7.14-1.75-2.08-3.2-4.16-4.99-5.86-27.31-25.93-54.6-51.88-82.11-77.61-2.98-2.79-4.47-5.44-4.35-9.41.61-20.99.94-41.99,1.86-62.96.14-3.26,2.17-7.07,4.5-9.48,10.89-11.25,22.1-22.2,33.44-33.01,1.93-1.84,5.34-3.8,7.56-3.33,4.15.87,4.77,5.11,4.53,8.94-1.01,16.3-2.09,32.59-3.21,48.88-.82,11.97-1.7,23.93-2.63,35.89-.29,3.75-.1,7.01,2.93,10.02,21.3,21.09,42.43,42.35,64.34,64.27Z"/>
  <path class="st0" d="M1296.35,871.67c3.28.64,5.84,1.14,8.87,1.73.42-2.29,1-4.15,1.08-6.04,1.43-36.97,2.77-73.94,4.2-110.9.28-7.26.83-14.51,1.33-22.92,6.89,0,12.75-.03,18.62,0,4,.02,8,.04,12,.22,9.52.44,11.74,2.59,11.79,12.09.14,26.33.12,52.66.18,78.99.12,51.99.28,103.99.31,155.98,0,5.13,1.68,11.18-4.23,14.42-5.54,3.04-9.44-1.64-13.53-4.04-18.4-10.78-36.51-22.05-55.04-32.6-6.17-3.52-8.84-8.05-10.03-14.84-6.32-36.09-13.04-72.11-19.63-108.15-.29-1.61-.69-3.19-1.18-5.46-2.51.35-4.74.38-6.81.99-36.09,10.65-72.21,21.25-108.2,32.24-4.7,1.44-8.18,1.02-12.13-1.43-17.01-10.51-34.08-20.92-51.21-31.22-3.96-2.38-6.45-5.42-7.58-9.96-3.78-15.19-7.92-30.29-11.57-45.51-.62-2.57-.35-7.34.98-7.97,2.54-1.19,6.28-.65,9.25.16,2.44.67,4.51,2.75,6.72,4.24,20.73,13.96,41.55,27.8,62.11,41.99,5.34,3.68,10.08,4.86,16.61,2.99,24.97-7.16,50.14-13.62,75.23-20.36,2.54-.68,5.03-1.55,8.06-2.5.4-3.01.96-5.89,1.13-8.79,1.45-24.95,2.82-49.91,4.24-74.86.59-10.5,3.6-13.3,14.33-13.09,11.33.23,22.66.56,33.98.96,11.21.4,13.88,3.18,13.62,14.7-1.11,48.65-2.33,97.29-3.49,145.94-.09,3.98-.01,7.96-.01,13Z"/>
  <path class="st0" d="M1111.87,1595.11c-1.06,1.81-1.71,3.86-3.09,5.06-1.97,1.72-4.41,2.95-6.76,4.16-44.96,23.18-89.94,46.33-134.91,69.48-1.18.61-2.36,1.33-3.62,1.63-3.89.93-6.2-.26-7.07-4.61-.83-4.14-2.12-8.31-3.95-12.11-23.11-47.97-46.35-95.88-69.55-143.8-.87-1.8-1.89-3.54-2.58-5.4-2.02-5.43-1.25-7.84,3.62-10.9,2.24-1.41,4.72-2.46,7.1-3.66,38.91-19.68,77.82-39.33,116.71-59.05,4.44-2.25,8.66-4.9,13.03-7.3,4.65-2.55,7.43-1.65,9.64,2.78,25.7,51.5,51.43,102.98,77.13,154.48,1.48,2.96,2.81,6,4.31,9.23Z"/>
  <path class="st0" d="M2135.59,1052.72c-4.93,6.23-9.09,10.88-12.57,16-29.43,43.2-58.74,86.48-88.08,129.73-1.12,1.65-2.16,3.37-3.39,4.94-4.07,5.17-6.19,5.67-11.85,2.61-2.34-1.26-4.51-2.83-6.74-4.29-36.5-23.87-72.99-47.75-109.52-71.58-4.17-2.72-8.6-5.04-12.84-7.66-4.24-2.62-5.01-5.34-2.58-9.01,24.48-36.86,49-73.69,73.46-110.56,7.73-11.65,15.27-23.43,22.97-35.1,6.28-9.53,7.78-9.91,17.48-3.67,39.75,25.59,79.44,51.27,119.17,76.89,3.63,2.34,7.52,4.34,10.96,6.92,1.69,1.27,2.64,3.53,3.53,4.78Z"/>
  <path class="st0" d="M709.04,839.96c4.33,2.32,7.64,3.8,10.63,5.75,36.28,23.64,72.51,47.37,108.78,71.02,5.01,3.27,10.18,6.29,15.31,9.37,5.41,3.25,5.76,5.64,1.67,11.02-2.21,2.91-4.39,5.86-6.39,8.91-29.03,44.3-58.02,88.63-87.03,132.95-1.46,2.23-2.91,4.47-4.47,6.62-2.29,3.16-5.47,3.84-8.85,2.29-3-1.38-5.81-3.23-8.6-5.02-41.46-26.68-82.9-53.39-124.33-80.11-1.66-1.07-3.48-2.12-4.68-3.61-1.86-2.3-1.85-4.6.54-7.02,3.68-3.72,7.4-7.53,10.33-11.83,29.65-43.48,59.12-87.09,88.74-130.6,2.31-3.39,5.35-6.28,8.33-9.73Z"/>
  <path class="st0" d="M1733.15,1618.57c-1.13,25.29-2.25,50.57-3.43,75.86-.11,2.29-.05,4.96-1.2,6.7-1.01,1.52-4.03,3.21-5.47,2.73-16.09-5.4-32.93-3.98-49.39-5.38-41.14-3.5-82.37-6.02-123.56-8.94-1.66-.12-3.33-.24-4.97-.5-7.33-1.14-9.1-2.93-8.78-10.57.66-15.3,1.76-30.59,2.56-45.89,1.81-34.92,3.58-69.84,5.28-104.76.32-6.45,1.81-8.31,7.3-7.9,15.59,1.15,31.17,2.59,46.78,3.49,41.56,2.39,83.14,4.56,124.71,6.81,1.33.07,2.67.07,3.99.19,8.47.75,10.41,2.77,10.12,11.33-.37,10.98-.96,21.96-1.51,32.94-.74,14.64-1.55,29.27-2.32,43.9-.04,0-.07,0-.11,0Z"/>
  <path class="st0" d="M1775.74,373.07c3.28,8.03,5.43,14.22,8.26,20.08,22.4,46.45,44.92,92.85,67.41,139.26.87,1.8,1.77,3.58,2.57,5.41,3.25,7.43,2.58,9.49-4.75,13.51-4.37,2.4-8.9,4.52-13.35,6.77-35.93,18.16-71.88,36.29-107.79,54.5-4.73,2.4-9.26,5.2-13.91,7.77-4.62,2.55-7.4,1.67-9.64-2.83-25.36-50.9-50.75-101.79-76.13-152.68-1.19-2.38-2.43-4.74-3.57-7.14-2.03-4.3-1.02-7.79,3.03-10.26,2.27-1.38,4.65-2.58,7.02-3.8,44.09-22.68,88.16-45.38,132.3-67.96,2.75-1.41,5.97-1.87,8.54-2.64Z"/>
  <path class="st0" d="M1001.5,436.65c1.54-32.12,2.76-57.75,4.01-83.37.41-8.45,1.7-9.13,10.17-6.55,2.81.86,5.89.94,8.86,1.16,54.5,4,109,7.94,163.49,11.95,9.36.69,10.89,2.24,10.39,11.8-2.36,45.25-4.9,90.5-7.31,135.75-.27,4.97-.11,9.96-.22,14.93-.12,5.21-2.37,7.1-7.4,6.75-23.24-1.65-46.47-3.38-69.73-4.79-34.59-2.09-69.2-3.91-103.79-5.9-11.32-.65-12.39-1.7-11.86-13.35,1.12-24.97,2.47-49.92,3.41-68.38Z"/>
  <path class="st0" d="M1921.53,1372.99c-12.76,2.32-25.51,4.32-38.12,6.98-77.18,16.26-154.34,32.57-231.45,49.17-9.35,2.01-17.32,1.24-25.7-3.68-20.66-12.14-41.75-23.56-62.66-35.27-1.74-.98-3.79-1.64-5.16-3-1.97-1.95-4.94-4.57-4.71-6.61.24-2.22,3.32-4.71,5.75-5.95,2.88-1.48,6.37-1.8,9.6-2.58,44.64-10.78,89.28-21.55,133.92-32.34,2.87-.69,5.7-1.55,9.42-2.58-.57-3.22-.89-6.08-1.6-8.84-7.26-28.03-14.65-56.02-21.82-84.07-1.1-4.3-4.32-9.63.16-13.02,4.67-3.54,8.63,1.56,12.37,3.8,71.44,42.71,142.8,85.54,214.19,128.34,3.67,2.2,8.24,3.81,5.82,9.64Z"/>
  <path class="st0" d="M1466.51,567.8c-22.51,22.2-42.88,42.3-63.28,62.39-3.8,3.74-7.44,7.67-11.56,11.03-4.6,3.75-8.11,2.23-8.96-3.61-.33-2.28-.11-4.65-.08-6.98,1.39-82.92,2.79-165.84,4.19-248.76.02-1,0-2,0-3-.02-3.42.03-7.15,3.96-8.28,3.82-1.1,4.67,2.65,6.42,4.98,4.2,5.58,8.38,11.21,13.04,16.4,55.4,61.71,110.81,123.42,166.46,184.91,6.02,6.65,8.77,13.63,8.77,22.45,0,24.98.51,49.96.62,74.94.02,4.03,1.95,9.39-3.57,11.3-4.87,1.69-7.93-2.27-10.93-5.41-32.62-34.24-65.26-68.47-97.82-102.78-2.49-2.63-4.43-5.79-7.27-9.57Z"/>
  <path class="st0" d="M1810.77,881.41c-21.77-6.01-42.27-11.69-62.77-17.34-10.27-2.83-20.56-5.57-30.82-8.44-2.55-.71-5.18-1.46-7.47-2.74-3.3-1.86-3.66-4.82-.97-7.41,1.87-1.8,4.37-2.99,6.69-4.28,73.34-40.77,146.7-81.52,220.05-122.28,1.45-.81,2.87-2.07,4.41-2.24,1.78-.2,4.33-.02,5.33,1.09.98,1.09,1.02,3.76.45,5.38-5.98,16.91-12.63,33.6-18.23,50.63-22.85,69.57-45.46,139.23-67.95,208.92-2.39,7.42-6.31,12.81-13.07,16.75-22.15,12.92-44.11,26.15-66.15,39.26-1.72,1.02-3.39,2.18-5.22,2.92-5.07,2.04-8.79-.27-8.63-5.75.09-3.25,1.24-6.5,2.18-9.68,12.97-44.07,25.99-88.12,38.96-132.18,1.11-3.76,1.96-7.6,3.23-12.62Z"/>
  <path class="st0" d="M924.46,1167.25c3.51,1.08,6.62,2.13,9.77,3,26.64,7.36,53.28,14.68,79.92,22.02,1.93.53,4,.81,5.72,1.72,2.8,1.48,6.89,2.88,7.69,5.25,1.47,4.37-3.24,5.87-6.34,7.6-42.79,23.81-85.59,47.57-128.4,71.34-30.57,16.98-61.14,33.97-91.72,50.94-2.03,1.13-4.03,2.6-6.22,3.05-1.69.34-4.3-.13-5.3-1.28-.91-1.06-.72-3.7-.13-5.32,5.3-14.69,11.29-29.14,16.16-43.97,23.47-71.49,46.76-143.04,69.81-214.68,2.63-8.18,6.97-13.86,14.33-18.13,21.61-12.53,42.94-25.54,64.49-38.18,3.5-2.05,7.14-6.59,11.58-3.33,5.03,3.69,2.47,9.08,1.09,13.8-9.37,31.95-18.8,63.88-28.19,95.82-4.41,15.01-8.79,30.04-13.15,45.07-.44,1.53-.67,3.12-1.11,5.27Z"/>
  <path class="st0" d="M1022.04,712.18c5.75,22.18,11.25,43.4,16.75,64.62,2.51,9.67,5.03,19.33,7.55,29,.42,1.61,1.3,3.25,1.17,4.82-.19,2.45-.32,5.97-1.83,6.95-1.61,1.05-4.84-.14-7.28-.69-1.23-.28-2.29-1.31-3.43-2-71.99-43.16-143.99-86.31-215.98-129.48-1.42-.85-3.17-1.5-4.11-2.74-1.1-1.45-2.31-3.68-1.91-5.14.38-1.38,2.69-2.9,4.33-3.16,81.32-12.62,160.95-33.49,241.61-49.29,9.47-1.86,18.95-3.75,28.32-6.08,6.6-1.64,12.37-.53,18.18,2.76,22.91,12.94,45.93,25.68,68.85,38.61,3.31,1.87,8.27,3.13,7.36,8.24-.91,5.07-5.82,5.93-10.02,6.96-17.14,4.19-34.31,8.26-51.46,12.41-30.1,7.28-60.19,14.58-90.27,21.89-2.23.54-4.41,1.3-7.83,2.32Z"/>
  <path class="st0" d="M1269.35,1479.93c3.2-2.99,5.66-5.17,8-7.48,20.66-20.34,41.28-40.73,61.97-61.04,2.75-2.7,5.4-7.05,9.93-5.12,4.64,1.98,2.98,6.97,2.92,10.75-1.29,83.97-2.68,167.94-4.06,251.92-.03,1.66.31,3.52-.32,4.94-.72,1.64-2.12,3.74-3.58,4.07-1.41.32-3.79-.93-4.85-2.23-5.26-6.42-9.83-13.45-15.36-19.61-54.95-61.29-109.97-122.52-165.22-183.55-6.24-6.89-9.13-14-9.08-23.3.11-23.99-.57-47.98-.94-71.98-.02-1-.11-2-.05-3,.25-3.84-1.36-8.65,3.26-10.68,4.84-2.12,8.04,1.57,11.07,4.75,31.72,33.3,63.44,66.61,95.16,99.91,3.44,3.61,6.88,7.2,11.14,11.66Z"/>
  <path class="st0" d="M285.33,1286.92c-4.65.69-6.41-2.67-8.4-5.81-2.29-3.6-.72-6.29,1.82-8.83,1.41-1.41,2.83-2.83,4.25-4.24,49.04-48.52,98.09-97.04,147.13-145.56,1.18-1.17,2.42-2.3,3.55-3.51,3.45-3.7,6.98-3.25,10.53-.23,2.03,1.72,4.02,3.5,5.9,5.38,34.7,34.59,69.38,69.2,104.05,103.8,1.41,1.41,2.85,2.81,4.17,4.31,3,3.4,2.85,6.44-.96,9.26-4.56,3.38-9.07,6.09-15.09,6.98-79.75,11.74-159.46,23.78-239.18,35.75-5.93.89-11.86,1.8-17.78,2.7Z"/>
  <path class="st0" d="M2459.92,771.98c-2.1,2.43-4.27,5.3-6.8,7.81-49.43,48.97-98.89,97.91-148.36,146.83-7.93,7.84-9.92,7.99-17.92.04-36.13-35.9-72.16-71.91-108.18-107.93-1.81-1.81-3.17-4.08-4.94-6.4,4.9-7.05,11.03-10.76,19.02-11.93,31.93-4.68,63.85-9.49,95.77-14.27,51.66-7.74,103.33-15.47,154.98-23.26,10.74-1.62,10.72-1.73,16.43,9.1Z"/>
  <path class="st0" d="M2129.39,1844.28c-3.82-1.04-6.07-1.66-8.31-2.27-66.44-18.16-132.88-36.32-199.31-54.48-1.93-.53-3.83-1.13-5.76-1.67-4.25-1.18-5.95-4.06-5.3-8.28.45-2.95,1.09-5.89,1.86-8.78,12.58-47.26,25.2-94.52,37.82-141.78.52-1.93,1.04-3.86,1.71-5.74,1.48-4.17,3.92-5.74,8.43-3.73,5.21,2.31,9.88,4.83,13.62,9.54,52.76,66.52,105.7,132.89,158.58,199.31,5.93,7.45,6.25,8.54,2.35,13.86-1.49,2.03-4.32,3.09-5.68,4.02Z"/>
  <path class="st0" d="M824.57,270.5c-.64,2.91-1.18,5.85-1.95,8.73-12.68,47.63-25.39,95.25-38.1,142.87-.51,1.93-.95,3.89-1.62,5.76-1.34,3.73-3.83,5.38-7.77,3.72-5.2-2.19-10.05-4.48-13.85-9.26-53-66.84-106.22-133.52-159.25-200.35-2.07-2.61-4.09-6.53-3.73-9.56.81-6.88,4.53-8.49,12.57-6.31,26.68,7.22,53.32,14.58,79.98,21.87,41.44,11.34,82.87,22.67,124.31,34.02,4.46,1.22,9.61,1.78,9.41,8.49Z"/>
  <path class="st0" d="M1319.84,680.94c-12.1-1.03-22.97-1.98-33.84-2.87-13.94-1.14-27.91-1.99-41.81-3.5-4.49-.48-9.15-1.98-13.12-4.12-28.13-15.18-56.11-30.65-84.13-46.03-1.75-.96-3.87-1.63-5.11-3.05-1.37-1.57-2.98-4.13-2.54-5.73.46-1.7,3.03-3.52,4.98-3.98,2.83-.66,5.95-.26,8.93-.11,43.91,2.2,87.82,4.45,131.73,6.65,3.27.16,6.56.02,11.01.02.53-6.79,1.14-13.31,1.53-19.84.78-13.3,1.38-26.61,2.16-39.91.58-9.87.74-9.85,10.33-7.66,2.56.58,5.28.58,7.94.65,13.32.36,26.64.55,39.96,1,9.77.33,10.52,1.18,11.42,11.02.18,1.99.18,3.99.2,5.99.45,45.3.89,90.6,1.31,135.9.07,7.67-.94,8.31-8.59,8.06-7.98-.26-15.97.01-23.96.05-3,.01-6.02.25-8.99-.03-7.22-.68-9.18-2.75-9.37-10.13-.19-6.97-.04-13.95-.04-22.38Z"/>
  <path class="st0" d="M1754.52,1165.37c19.63,13.51,39.49,25.32,58.69,38.87-13.68,14.89-21.35,31.18-31.07,46.12-7.06,10.85-7.1,11.15-18.71,4.7-18.93-10.5-37.73-21.22-56.59-31.83-21.18-11.92-42.4-23.78-63.54-35.79-2.7-1.54-4.99-3.8-7.24-5.55,6.65-11.67,12.61-22.39,18.81-32.96,4.93-8.41,7.6-9.08,16.06-4.44,5.81,3.19,11.53,6.53,17.88,10.13,2.27-3.03,4.31-5.57,6.16-8.25,11.91-17.28,23.58-34.72,35.77-51.79,3.19-4.47,7.41-8.66,12.06-11.55,27.16-16.86,54.56-33.33,81.95-49.83,3.48-2.1,7.39-6.25,11.41-1.62,3.71,4.28-.12,8.15-2.39,11.65-18.8,29.09-37.69,58.12-56.56,87.17-7.4,11.4-14.8,22.8-22.69,34.96Z"/>
  <path class="st0" d="M1683.33,759.72c6.33-3.16,11.68-5.79,16.99-8.48,12.77-6.46,25.46-13.08,38.3-19.38,7.04-3.46,7.65-2.9,10.01,4.73.87,2.82,2.28,5.52,3.68,8.14,6.42,12.04,12.99,24,19.36,36.07,4.33,8.21,4,9.14-3.83,14.47-1.65,1.12-3.39,2.11-5.11,3.13-38.94,23.07-77.88,46.15-116.83,69.21-7.01,4.15-7.9,3.59-11.83-3.74-4.55-8.5-9.72-16.67-14.53-25.03-5.67-9.85-5.18-11.78,4.28-17.46,5.39-3.24,10.8-6.43,16.81-10.01-1.21-3.11-2.1-5.86-3.33-8.45-9.27-19.54-18.76-38.98-27.8-58.63-2.02-4.4-3.4-9.47-3.54-14.28-.97-31.94-1.52-63.9-2.2-95.86-.04-1.66-.07-3.33-.04-4.99.06-3.07.22-6.83,4.03-6.76,2.43.05,5.23,2.22,7.11,4.16,1.78,1.83,2.6,4.6,3.8,6.97,19.8,38.84,39.59,77.68,59.4,116.52,1.5,2.94,3.14,5.8,5.26,9.69Z"/>
  <path class="st0" d="M1439.22,1430.68c-.36,3.19-.82,6.08-.98,8.99-.87,16.3-1.64,32.6-2.5,48.89-.14,2.64-.02,5.54-1.11,7.81-.78,1.62-3.43,3.43-5.13,3.33-12.2-.73-24.37-2.05-36.57-2.95-5.97-.44-11.99-.26-17.97-.59-7.48-.41-8.25-1.27-8.91-8.95-.17-1.99-.19-3.99-.22-5.99-.55-45.29-1.1-90.59-1.63-135.88-.12-9.86.23-9.88,9.85-9.58,9.65.3,19.31-.15,28.97-.09,10.56.07,12.21,1.73,12.41,12.17.12,6.29.02,12.58.02,19.91,5.15.6,9.64,1.27,14.15,1.63,19.58,1.57,39.2,2.82,58.75,4.72,5.46.53,11.22,2.03,16.02,4.6,27.89,14.92,55.54,30.29,83.26,45.51.58.32,1.18.62,1.74.98,3.18,2.1,8.23,3.25,6.31,8.58-1.7,4.69-6.31,4.2-10.3,4-29.93-1.55-59.86-3.16-89.79-4.77-16.29-.87-32.59-1.8-48.88-2.63-2.26-.12-4.55.18-7.49.31Z"/>
  <path class="st0" d="M1046.17,894.3c-2.47,3.37-4.46,5.97-6.32,8.66-11.72,17-23.19,34.17-35.23,50.93-3.39,4.72-7.84,9.17-12.74,12.22-26.85,16.72-53.99,32.97-81.03,49.38-1.42.86-2.79,2.16-4.32,2.42-2.36.4-5.83,1.03-7.02-.19-1.38-1.42-1.53-4.95-.89-7.19.79-2.77,2.88-5.2,4.51-7.71,23.74-36.59,47.51-73.17,71.25-109.76,1.95-3.01,3.75-6.13,6-9.82-12.51-8.16-24.47-15.94-36.41-23.74-5.58-3.64-11.28-7.1-16.66-11.02-4.8-3.5-4.66-5.25-.83-9.42,2.44-2.66,4.78-5.48,6.71-8.53,7.47-11.82,14.66-23.82,22.15-35.62,3.85-6.06,4.83-6.26,11.35-3.41,3.34,1.46,6.57,3.23,9.75,5.02,38.6,21.7,77.18,43.43,115.76,65.15,7.35,4.14,7.36,5.03,3.08,12.01-5.21,8.51-9.85,17.37-14.9,25.98-5.35,9.13-7.43,9.65-16.63,4.56-5.53-3.06-11-6.21-17.58-9.93Z"/>
  <path class="st0" d="M1051.64,1289.25c-9.17,4.6-17.74,8.88-26.29,13.2-9.8,4.96-19.5,10.15-29.41,14.9-6.51,3.13-7.63,2.25-9.65-4.51-1.03-3.45-2.64-6.78-4.32-9.99-6.05-11.49-12.3-22.88-18.38-34.36-4.67-8.83-4.48-9.4,4.01-15.06,2.22-1.47,4.55-2.77,6.84-4.13,38.12-22.57,76.24-45.14,114.36-67.71,7.72-4.57,7.93-4.28,12.31,3.89,4.4,8.21,9.47,16.06,14.16,24.12,5.88,10.11,5.3,12.4-4.48,18.24-5.39,3.21-10.8,6.38-16.83,9.93,3.07,6.59,5.81,12.57,8.64,18.51,7.6,15.93,15.48,31.74,22.71,47.83,2.26,5.02,3.81,10.78,3.99,16.25,1.03,31.97,1.55,63.95,2.24,95.93.02,1,.35,2.13-.01,2.97-1.08,2.55-1.82,6.22-3.81,7.19-3.46,1.69-6.12-1.2-7.84-4.31-1.29-2.33-2.5-4.71-3.71-7.08-19.81-38.87-39.61-77.75-59.44-116.61-1.48-2.89-3.14-5.69-5.11-9.22Z"/>
  <path class="st0" d="M1277.3,1340.05c-2.29,29.51-4.58,59.02-6.87,88.53-.26,3.31-.13,7.64-4.21,7.96-2.73.22-6.3-1.67-8.42-3.72-19.84-19.2-39.45-38.63-59.12-58-13.27-13.07-26.27-26.43-39.94-39.07-6.23-5.76-6.69-11.79,1.97-16.71,20.81-11.81,42.12-22.76,63.19-34.11,4.54-2.45,7.71-1.48,11.24,2.42,11.83,13.06,24.01,25.82,36.21,38.54,3.89,4.05,6.45,8.4,5.95,14.17Z"/>
  <path class="st0" d="M1730.69,1058.14c-.86-.34-3.49-.95-5.67-2.29-19.85-12.19-39.59-24.55-59.43-36.74-4.6-2.82-6.14-5.75-4.25-11.46,5.44-16.41,10.3-33.02,14.94-49.68,1.95-7,5.78-11.38,12.37-14.47,25.3-11.86,50.41-24.13,75.59-36.23,1.5-.72,2.98-1.53,4.55-2.03,5.28-1.64,8.62.83,8.15,6.22-.23,2.62-1.08,5.21-1.75,7.78-11.12,42.81-22.24,85.62-33.38,128.43-2.49,9.55-3.42,10.55-11.13,10.46Z"/>
  <path class="st0" d="M1458.11,705.47c2.11-28.54,4.14-56.07,6.21-83.6.15-1.98.31-4.03.97-5.87,1.49-4.17,4.91-5.31,8.7-2.85,1.92,1.25,3.51,3.04,5.17,4.67,32.02,31.5,64.04,62.99,96.01,94.53,8.41,8.29,7.75,13.08-2.96,18.92-19.85,10.83-39.81,21.46-59.79,32.05-7.16,3.79-7.29,3.62-12.69-2.12-11.4-12.11-22.55-24.47-34.31-36.23-5.93-5.93-9-12.2-7.32-19.5Z"/>
  <path class="st0" d="M1213.88,733.47c0,11.64.16,23.29-.06,34.93-.14,7.69-.72,8.11-8.23,9.89-17.15,4.06-34.37,7.85-51.43,12.27-6.09,1.58-11.02.56-15.96-2.83-23.87-16.37-47.84-32.61-71.62-49.12-2.46-1.71-5.32-4.9-5.42-7.49-.16-4.34,4.47-5.13,7.99-6.1,34.94-9.67,69.88-19.31,104.82-28.96,9.3-2.57,18.56-5.25,27.88-7.72,10.26-2.72,14.02.25,14.13,11.22.11,11.31.02,22.62.02,33.92-.71,0-1.42,0-2.13,0Z"/>
  <path class="st0" d="M1004.34,990.75c.75.31,3.66,1.08,6.13,2.6,19.56,12.01,39.07,24.11,58.51,36.3,6.75,4.23,6.74,4.61,4.47,12.13-5,16.55-10.29,33.02-14.9,49.67-1.86,6.73-5.54,10.86-11.71,13.78-25.55,12.09-50.98,24.44-76.45,36.7-1.2.58-2.38,1.24-3.64,1.63-5.99,1.84-9.17-.63-8.57-6.73.16-1.63.76-3.23,1.18-4.84,11.46-44.09,22.94-88.17,34.36-132.26,1.19-4.61,1.91-9.47,10.63-8.98Z"/>
  <path class="st0" d="M1521.4,1315.22c0-11.96.07-23.93-.03-35.89-.04-5.18,2.26-7.65,7.38-8.77,17.53-3.86,34.98-8.06,52.43-12.25,5.89-1.42,10.95-.39,15.99,3.1,23.52,16.26,47.2,32.3,70.82,48.43,1.37.94,2.82,1.83,3.96,3.01,3.48,3.61,2.86,7.27-1.67,9.57-1.75.89-3.75,1.31-5.67,1.84-43.57,12.04-87.13,24.09-130.71,36.08-10.92,3-14.73.05-14.76-11.2-.02-11.3,0-22.61,0-33.91.76,0,1.52,0,2.28,0Z"/>
  <path class="st0" d="M1362.51,1229.97c0,16.31,0,32.63,0,48.94,0,2,.45,4.11-.06,5.96-.64,2.37-1.57,5.83-3.23,6.43-1.81.65-4.64-1.35-6.94-2.39-.86-.39-1.48-1.32-2.21-2-18.53-17.23-37.06-34.47-55.59-51.7-.97-.91-1.99-1.78-2.9-2.75-5.71-6.08-5.71-10.48.49-16.08,8.64-7.81,17.51-15.38,26.28-23.05,9.27-8.11,18.52-16.25,27.81-24.33,1.75-1.52,3.49-3.2,5.53-4.22,4.36-2.19,7.99-.45,8.99,4.31.54,2.58.51,5.3.52,7.95.04,17.65.02,35.29.02,52.94.43,0,.85,0,1.28,0Z"/>
  <path class="st0" d="M1242.53,1085.38c-1.67,2.55-2.45,4.43-3.82,5.66-1.7,1.54-3.85,2.59-5.84,3.78-29.67,17.72-59.31,35.47-89.04,53.08-3.49,2.07-7.11,6.44-11.58,2.97-4.4-3.42-1.09-8.11-.21-12.06,5.31-24,10.85-47.94,16.33-71.9.44-1.94.85-3.91,1.54-5.78,2.28-6.2,6.19-8.58,12.37-6.52,24.26,8.1,48.45,16.39,72.57,24.89,2.77.98,4.92,3.7,7.69,5.88Z"/>
  <path class="st0" d="M1228.9,853.97c5.83,0,8.75,2.38,10.15,9.07,3.13,14.95,5.98,29.96,8.95,44.95,1.87,9.45,4.05,18.85,5.48,28.36.44,2.92-.24,6.85-1.99,9.07-2.48,3.14-6.08.99-9.02-.65-32.5-18.12-65.01-36.21-97.42-54.48-2.05-1.16-4.52-3.75-4.53-5.69-.01-1.74,2.79-4.45,4.87-5.11,26.91-8.53,53.9-16.77,80.88-25.06.94-.29,1.96-.34,2.64-.45Z"/>
  <path class="st0" d="M1604.4,903.94c-.27,1.47-.51,3.12-.89,4.74-5.75,24.98-11.52,49.96-17.29,74.93-.37,1.62-.6,3.31-1.23,4.83-2.56,6.16-6.47,7.83-13.77,5.38-20.51-6.88-40.97-13.95-61.45-20.94-3.15-1.08-6.6-1.65-9.38-3.34-2.59-1.58-5.61-4.05-6.25-6.66-.43-1.76,2.52-5.05,4.71-6.61,4.87-3.46,10.21-6.26,15.36-9.33,25.16-15.03,50.32-30.06,75.49-45.08,2.29-1.36,4.51-2.91,6.93-3.96,5.45-2.37,8.13-.27,7.77,6.04Z"/>
  <path class="st0" d="M1506.54,1194.94c-5.64.18-9.13-2.16-10.25-7.69-5.06-25.07-10.03-50.15-14.64-75.3-.51-2.76.61-6.81,2.52-8.69,1.25-1.23,5.73-.44,8.01.81,32.59,17.94,65.09,36.07,97.48,54.37,2.25,1.27,4.41,4.14,4.86,6.58.23,1.25-3.19,4.02-5.4,4.72-26.29,8.27-52.66,16.28-79.02,24.35-1.27.39-2.58.62-3.56.85Z"/>
  <path class="st0" d="M1376.79,756.35c2.32,1.43,4.5,2.33,6.13,3.84,20.07,18.54,40.14,37.09,60.02,55.83,6.73,6.34,6.63,10.73-.07,16.67-18.47,16.34-37.08,32.52-55.68,48.71-1.48,1.29-3.17,2.55-4.99,3.2-3.78,1.36-6.61-.15-7.77-3.95-.57-1.86-.4-3.96-.44-5.95-.58-35.65-1.16-71.3-1.7-106.96-.04-2.32-.23-4.79.48-6.91.55-1.62,2.42-2.8,4.01-4.49Z"/>
</svg>