<svg xmlns="http://www.w3.org/2000/svg" width="2732" height="2048" viewBox="0 0 2732 2048">
  <defs>
    <style>
      .cls-1 {
        fill: #38a835;
        fill-rule: evenodd;
      }
    </style>
  </defs>
  <path id="Color_Fill_1" data-name="Color Fill 1" class="cls-1" d="M944,1l62,1c-3.1,9.358-14.782,14.323-21,21l61,2-6,7-27,23,66,4v1q-7.995,8.5-16,17l-18,16,59,4c-3.57,11.384-20.96,24.325-30,31,0.33,0.667.67,1.333,1,2l60,3q-7.005,7.5-14,15l-18,16c10.61-.33,57.89.216,61,5-27.36,12.925-51.63,55.562-80,64-0.33-.667-0.67-1.333-1-2q3.495-27.5,7-55h-1c-1.33,1.333-2.67,2.667-4,4-27,11.736-27.9,22.8-37,52l-26-5v-1q12-10.5,24-21,6-32.5,12-65c-6.97,5.037-29.17,27.1-35,24q4.5-31,9-62-14.5,10.5-29,21c-5.78-21.966,5.82-43.216,2-59-6.049,3.752-10.886,8.49-19,10-4.813-15.994-12.947-23.825-13-43L960,42l-4-3Q950,20,944,1Zm273,0,76,1V3l-18,19,62,4c-0.67,1-1.33,2-2,3Q1322,40.5,1309,52l-16-1-6,8h-59c4.48-13.507,23.61-21.275,32-32l-61-3V21Zm247,0c31.92-.241,91.98-6.78,97,21l-3,2-62,5c4.66,7.415,12.93,19.156,21,23-0.67,1.333-1.33,2.667-2,4-0.67,1-1.33,2-2,3l-59,1c-7.13-12.472-28.28-16.139-36-32h2l60-4V23l-3-3C1473.41,12.566,1466.54,9.647,1464,1ZM1071,2l74,1V4q-8.505,9.5-17,19l64,2c-0.33,1-.67,2-1,3l-33,30,64,2v1q-18.495,17.5-37,35c15.21-.348,55.39-5.251,64,3q-15.495,15.5-31,31v1l62,3q-4.005,4.5-8,9-12.495,11.5-25,23h2l62,3c-4.73,14.643-24.95,22.6-34,34v1c11.71-.384,59.6.655,63,6q-13.995,13-28,26h-20c-6.9,2.769-14.1,5-27,5-11.21,0-27.16,2.2-30-2-0.33-1.333-.67-2.667-1-4l27-26-58-4c-0.33-1-.67-2-1-3l30-32-59-6v-1q12.495-13,25-26v-1l-53-7v-1q12-13.5,24-27l-56-5V92q16.5-16.5,33-33l-59,1V58c-0.33-1-.67-2-1-3l27-28V26l-59-2C1056.71,14.641,1065.57,9,1071,2Zm290,0c30.3-.79,40,4.563,52,21-0.33.667-.67,1.333-1,2h-69Zm266,0,86,2q7.005,6.5,14,13l46,6q-8.505,14-17,28l-30-28-72,4q12.495,13.5,25,27c-1.43,3.165-.68,3.706-1,7l-68,4q10.005,10,20,20c1.33,2,2.67,4,4,6v1c-7.31,1.576-4.54,2.477-6,8l-63,1q12,16.5,24,33c-0.33.333-.67,0.667-1,1l-57,2c-4.63-11.58-8.58-4.086-20-9q-13.5-14-27-28V99c17.61-1.985,50.49,3.095,66-4-0.33-1-.67-2-1-3q-13.5-15-27-30c0.33-.333.67-0.667,1-1l72-3c-0.67-.667-1.33-1.333-2-2Q1580,40.5,1567,25c0.33-.667.67-1.333,1-2l71-2c-0.33-1-.67-2-1-3C1632.96,14.572,1626.18,8.182,1627,2Zm163,0q22.005,22.5,44,45v1l-29-1c0.33,1,.67,2,1,3Q1826,70,1846,90c-0.33.667-.67,1.333-1,2l-43-3q21.495,24.5,43,49c-0.33.667-.67,1.333-1,2l-46-1q19.005,22,38,44c-0.33.667-.67,1.333-1,2l-43-1c0.33,1,.67,2,1,3q19.5,21.5,39,43v1l-43-1q20.505,22,41,44c-0.33.667-.67,1.333-1,2-17.91-.481-93.23-3.419-103-11q22.005-18,44-36v-1l-48-4q-10.005,7.5-20,15c-0.67-.333-1.33-0.667-2-1q-6.495-11-13-22l33,2q26.49-18.5,53-37l-42-5v-1q25.5-19.5,51-39h-2l-33-5c4.97-22.67,29.37-26.895,43-41q-10.005-2.5-20-5c1.69-15.742,11.1-30.808,19-41V43l-16-1C1773.78,27.367,1784.12,13.47,1790,2ZM943,28c3.023,1.259,1.2-.018,3,2q4,15,8,30h-2l-40,2-48,54,38,2c0.7,1.974.706,1.485,3,4l-44,50q0.5,1,1,2h34q-1,4-2,8l4,2-43,47,39,5v1l-38,43c-12.481-3.652-39.8,20.3-60,6l43-47q-0.5-1.5-1-3c-11.243.31-34.788,1.385-42-4l49-52v-1l-1-1-43-3v-1l49-52v-1c-7.345.3-17.815,0.252-22-3l61-60,21-2ZM886,48l2,2Zm868,9h8l9,8q-13.5,29-27,58-7.005-8-14-16c-0.33.667-.67,1.333-1,2q-5.505,35-11,70-4.995-5-10-10-12.495-11.5-25-23h-1c-2.61,44.6-17.05,61.551,10,92q-10.995,25-22,50l-3-1c-5.1-14.675-5.32-51.614,0-71q-15-15.5-30-31c-0.67.333-1.33,0.667-2,1q-3.495,28.5-7,57c-2.33,1.333-4.67,2.667-7,4h-1c-3.21-14.347-54.26-55.678-66-71,1.26-3.023-.02-1.2,2-3l69-1-3-3q-13.995-16-28-32c0.33-.667.67-1.333,1-2l74-1c-0.67-.667-1.33-1.333-2-2-4.34-9.338-20.69-27.584-30-32V98l80-2-15-15q-8.505-10.5-17-21c0.33-.333.67-0.667,1-1Zm-456,1,148,2q16.005,18,32,36h-2l-61,4c-6.14-10.449-7.99-5.643-20-11q-10.995-11.5-22-23c-17.63,3.892-24.01,19.189-38,25l-15-2q-4.005,4-8,8l-56-1C1260.56,80.742,1286.92,68.289,1298,58ZM963,60h12q11,30,22,60l-23-1q21.5,29,43,58v1l-48,1,2,2,36,50q17.5,3.5,35,7,9.495,25.5,19,51c-0.67.333-1.33,0.667-2,1-23.94-8.473-35.76-35.175-53-51H963l36,48q-1,4-2,8h-1c-7.337-6.323-77.7-3.177-97-3v-2q-0.5-1.5-1-3l49-49-48-3v-1l6-5,46-48v-1l-48-2q0.5-1.5,1-3l53-55v-1c-14.052.349-38.062,2.845-47-3l14-14Zm906,33h12c11.65,15.214,44.41,35.906,50,53l-3,2h-22c11.32,14.79,37.05,28.8,43,47h-2l-46-2q22.5,23.5,45,47c-0.33.667-.67,1.333-1,2l-51-3q22.005,23,44,46c-0.33,1-.67,2-1,3l-44-2q20.505,24,41,48l-46-1c11.66,15.3,36.84,30.159,43,49h-2l-46-2q21,24,42,48v1c-51.39.806-76.85-22.469-98-51l3-5,37,1v-1c-1.33-1.333-2.67-2.667-4-4q-16.5-20-33-40c0.67-1,1.33-2,2-3h43l-3-3q-16.995-22-34-44l37-1-3-3c-6.81-15.194-24.51-24.3-29-41l36-2c-1.33-1.333-2.67-2.667-4-4q-15.495-19-31-38v-3h48v-1q-12.495-13-25-26-7.995-7.5-16-15c0.33-1.333.67-2.667,1-4l41-1-15-15q-12.495-15-25-30h2Zm-546,3,80,1c9.06,6.838,25.69,23.361,29,35l-68,3q12.495,15.5,25,31c-0.33.667-.67,1.333-1,2l-70-1v-1q8.505-8.5,17-17,5.505-6.5,11-13l-59-4v-1q6.495-6.5,13-13Q1311.505,107,1323,96Zm117,38c24.78,4.3,59.58-2.874,83,3q11.505,17.5,23,35c-0.33.667-.67,1.333-1,2l-69,1c0.67,0.667,1.33,1.333,2,2q10.995,16,22,32v1l-66,2q10.005,15,20,30c-0.33.667-.67,1.333-1,2-52.9.89-86.18-2.313-105-35v-1h1c12.51,3.314,58.1,3.735,70-2l-3-3q-11.505-16-23-32v-1c0.67-.333,1.33-0.667,2-1l67,1v-1c-0.67-.667-1.33-1.333-2-2C1455.48,156.4,1439.53,144.713,1440,134ZM792,174l4,7-42,48,33,2q0.5,3.5,1,7c-33.652,25.974-27.92,46.556-89,46l40-48v-1l-26-2c5.019-14.765,45.406-45.985,58-58Zm1185,22h9q25.5,27.5,51,55h-27q21,22.5,42,45c-0.33.667-.67,1.333-1,2-50.94-.452-78.29-24.754-100-54,0.33-.667.67-1.333,1-2l43,2c-1.33-1.333-2.67-2.667-4-4q-18-20-36-40c0.67-1,1.33-2,2-3Zm-850,8,67,3-3,4q-14.505,13-29,26l65,4v1q-17.505,16.5-35,33l64,4v1q-16.005,15.5-32,31l68,7v1q-17.505,16-35,32l62,5c-2.87,8.114-71.33,64.917-81,68v-4q3-29.5,6-59l-36,23c-1.36-2.267-1.45-1.976-2-6q3-29.5,6-59l-3,3q-15.495,11-31,22l-4-1q3.495-30,7-60-18.495,13.5-37,27c-0.67-.333-1.33-0.667-2-1q3.495-31.5,7-63-18,13.5-36,27c-0.67-.333-1.33-0.667-2-1v-1C1119.57,252.948,1113.85,217.839,1127,204Zm379,6c13.95-.316,72.96.492,79,6h2q-4.995,36.5-10,73h-1c-0.67-.667-1.33-1.333-2-2l-30-26v2q-7.5,29-15,58-15.495-14-31-28v2q-7.005,32.5-14,65c-12.48-4.117-20.13-21.259-30-29q-7.995,32-16,64c-11.18-3.745-18.94-19.014-28-26h-1q-7.005,31-14,62l-9,3q-29.49-38.5-59-77c0.33-.667.67-1.333,1-2l68,1v-1c-0.67-.667-1.33-1.333-2-2l-24-33c0.33-.667.67-1.333,1-2l69,1c-0.33-1-.67-2-1-3-8.59-7.152-22.75-23.5-26-35h1l71-1c-0.33-1-.67-2-1-3q-12.495-15.5-25-31v-1l72,2v-1Q1518.505,228,1506,210Zm-428,27c5.84,9.285-2.96,45.635-5,59h-2q-7.005-19.5-14-39Zm223,5c13.99-.293,74.25-1.6,80,4,8.33,6.984,22.12,23.607,25,35l-59,2,18,32c-13.47.251-60.7,3.275-68-2l33-32-66-3v-3Q1282.495,258.5,1301,242Zm324,10c12.49,4.329,29.31,27.67,37,38q-4.5,41.5-9,83h-4q-15.495-16.5-31-33h-1q-4.005,33.5-8,67,4.005,7.5,8,15-7.005,3-14,6v-2q-0.495-9-1-18c-6.47-18.046-28.12-31.814-32-52q4.995-30.5,10-61c13.32,4.248,23.35,21.783,34,30Q1619.505,288.5,1625,252Zm65,11,29,1v1c-1.33,1.666-2.67,3.334-4,5q-21,15.5-42,31Q1681.505,282,1690,263Zm83,11c8.34,3.733,46.28,42.472,49,51h-8l-36-2q21.495,24.5,43,49v1l-48-2q21,24,42,48c-0.33.667-.67,1.333-1,2l-44-2q21.495,26.5,43,53c-0.33.667-.67,1.333-1,2l-48-4q20.505,24,41,48c-0.33.667-.67,1.333-1,2l-104-10v-1c1.67-1.666,3.33-3.334,5-5l42-35v-1l-40-8v-3q24.495-19.5,49-39v-1c-0.33-.333-0.67-0.667-1-1-10.13-.032-39.05-2.068-43-9q22.995-19,46-38h-2l-43-7v-1q24.99-20.5,50-41l-45-6v-1c0.67-1,1.33-2,2-3Q1746.49,292,1773,274Zm-665,4c3.68,4.105-4.31,52.615-7,60l-3-1c-6.44-11.112-19.21-19.046-23-32Zm-444,4,28,2-18,18-30,32-3-2q-0.5-13-1-26Zm77,4c12.165-.326,39.974-2.9,48,3l-42,47c-12.122-3.181-14.247,3.384-21,6l-32-1-5,6c-0.483,37.514-32.763,89.956-59,98v-9q2.5-23.5,5-47Zm108,0,43,9-30,30-19,21,42,8-45,48,36,8c-13.994,18.829-39.775,46.031-62,53l-37-2v-1l27-27,22-24v-1l-45-7v-1l39-39c4.458-2.183,7.468-4.723,9-10-10.879-.395-32.866-2.255-40-8C808.945,323.767,827.068,303.289,849,286Zm1096,2,56,5,103,107c0.32,11.885,2.77,39.16-3,47q-23.505-21-47-42c1.35-12.421-2.77-13.626-6-21-4.71-10.734,3.44-24.706-1-34-11.16-4.122-31.77-1.9-44-8q-4.005-6-8-12h-12C1977.8,327.7,1946.88,293.9,1945,288Zm-940,5c18.79,3.172,45.1-.835,56,7q23.505,30,47,60v3h-17l-31-1c13.06,20.667,30.94,51.4,58,58l-6,15q-7.005-6.5-14-13l-58-12q-19.005-26.5-38-53v-1l45-1c-0.33-1-.67-2-1-3C1037.63,345.123,1003.86,299.659,1005,293Zm-58,4c4.7,0.865,4.988,1.1,9,4l39,55-42,3,32,51q-0.5,1-1,2l-42,1,37,58q-0.5,1-1,2H939c9.338,15.52,30.009,40.409,32,57l-38-1c5.92,9.662,34.24,48.111,33,56q-1,3.5-2,7l-98-12v-1l49-49h-2l-42-8,49-49h-2l-44-6v-1l50-53c-10.834-.01-34.789-0.5-42-6l51-50h-2l-41-6C895.818,333.328,934.4,312.578,947,297Zm1136,1c9.77,4.209,17.95,16.536,25,24q-1.005,14-2,28l-21-21c-8.02-3.467-28.73-24.116-27-30Zm-415,12,44,4c-0.33,1.333-.67,2.667-1,4-17.43,7.74-28.94,27.938-48,33v-8Q1665.505,326.5,1668,310Zm-530,4c3.76,4.181-4.75,57.717-8,64l-9,4v11q-7.995,6.5-16,13h-2l-12-14c0.57-6.443,1.15-19.273,5-23l23-4c-0.67-.667-1.33-1.333-2-2q-6.495-9.5-13-19Q1120.995,329,1138,314Zm394,14c13.03,4.4,29.08,30.242,37,41q-7.5,73.992-15,148l33-23v1q-22.995,51-46,102h-1q4.005-34,8-68-22.995,21-46,42c-9,22.43-3.13,52.215-14,72-15.67,5.846-55.69,4.1-74-1v-3q41.49-38,83-76,6.495-40,13-80c9.48-12.07,39.48-23.91,41-39C1514.96,410.447,1527.55,384,1532,328Zm409,9c16.14-.305,41.66-2.717,54,3q26.49,27.5,53,55-1.5,22-3,44h-4q-24-22.5-48-45v2q-1.995,18.5-4,37c-0.67.333-1.33,0.667-2,1q-24.495-25-49-50v-1l42-1q-3.495-3.5-7-7Q1957,356,1941,337ZM638,338c2.974,4.13,3.368,32.58,0,40l-11,8v13l-41,40-2-1q1-21.5,2-43l-44,40-3-2c-0.237-10.533-1.864-24.667,1-31l53-49v27Zm99,4,44,3v4l-44,47q0.5,1,1,2l38,3c-3.4,10.628-40.154,43.648-50,51h-1q-0.5-21-1-42l-44,39h-1q0.5-26,1-52Zm434,7c5.54,4.312-4.98,59.389-6,72,12.97-9.107,25.05-27.335,41-32,0.33,0.667.67,1.333,1,2q-6,35.5-12,71l-8,1q-13.005-13.5-26-27-4.5,25.5-9,51c-2.67-1-5.33-2-8-3-2.63,6.052-3.55,5.556-8,3l-18-23q1.995-16,4-32,2.505-22.5,5-45Q1149.005,368,1171,349Zm492,8,45,5-3,4q-22.995,17-46,34c-15.2-1.4-22.55,7.533-42,2v-1q1.005-8.5,2-17c3.28-6.337,12.08-11.284,18-15l21,14C1658.09,374.3,1659.42,362.726,1663,357Zm443,0c18.03,5.635,33.42,28.914,48,40h1l3-27q4.005,3.5,8,7,24.495,26,49,52v23l-6,2-48-42q-1.005,16.5-2,33l-5,1q-22.005-20.5-44-41,1.005-5,2-10l-6-5V357Zm-619,7c36.68,27.267,34.02,55.866,26,109-4.68,1.028-6.95,2.319-9,6-6.25,16.593-16.54,31.959-33,37l-6-6q3.495-31,7-62l-37,25h-3v-7q4.005-32.5,8-65h3q16.005,16,32,32v-2q4.5-32,9-64Zm-200,29c19.01-.368,52.81-2.781,66,5q2.505,4,5,8c-1.34,17.694-3.81,48.455-12,62q-4.005,3-8,6c-26.09.615-57.15,1.475-68-14q3.495-27,7-54C1279.02,400.647,1284.81,399.359,1287,393Zm360,12,59,4c-3.71,14.825-44.96,34.1-56,47l51,4c-0.67,2-1.33,4-2,6q-27.99,19.5-56,39l-6-2q-0.495-19.5-1-39c-0.67.667-1.33,1.333-2,2q-19.995,13.5-40,27h-1c-0.33-2.333-.67-4.667-1-7h-9q1.995-17.5,4-35Q1617,428,1647,405Zm-655,8,55,4,94,115,6-39c0.33,0.667.67,1.333,1,2q19.995,51.5,40,103l-4-1q-19.005-25.5-38-51c-0.67.333-1.33,0.667-2,1q-1.005,30.5-2,61,20.505,28.5,41,57c-2.3,14.893-40.8,47.944-53,55-0.67-.333-1.33-0.667-2-1-0.27-26.51-2.32-92.481,5-113q-23.505-32-47-64,1.5-29,3-58l-51-9Q1015,444,992,413Zm831,9,48,2q27.99,29,56,58-3,22-6,44h-1q-21-20-42-40c-0.67.333-1.33,0.667-2,1l-9,35q-23.505-23-47-46v-4h14l32,2q-3.495-3.5-7-7-19.005-21-38-42C1821.67,424,1822.33,423,1823,422Zm-587,9q33.99,38,68,76,44.49-34,89-68h1q-3.495,37-7,74,20.505-17,41-34c0.67,0.333,1.33.667,2,1q-2.505,36.5-5,73c12.83-9.5,25.06-26.815,41-32v4c-7.69,28.229-6.67,59.611-22,79-12.66-2.948-56.34.5-62-7-0.33-1.333-.67-2.667-1-4l33-32-70-6c4.38-13.737,21.64-23.164,30-34l-146-9c7.44,12.864,23.02,22.8,27,38l-67,1c6.33,11.643,18.45,21.653,21,36h-8l-8,1q-11.505-27.5-23-55,4.005,2,8,4c0.67-.333,1.33-0.667,2-1,0.39-9.942,10.44-63.286,15-66,4.16,9.355,18.18,25.169,27,30Q1229.005,465.5,1236,431Zm693,4q25.995,24.5,52,49h1q3.495-22.5,7-45,24.99,24.5,50,49c0.17-11.29,2.15-33.755,8-41h1c9.23,19.149,41.28,41.489,56,60q-4.005,21-8,42c-15.86-5.125-37.54-36.917-52-48q-4.005,21-8,42l-48-45q-4.005,18-8,36c-19.21-14.281-45.38-39.591-53-62Q1928.005,453.5,1929,435ZM534,441l4,2q-1.5,23-3,46l47-45,2,1q-1.5,25.5-3,51l46-44,3,1q-0.5,22-1,44l46-41h1q-0.5,23-1,46c15.251-11.626,30.26-36.858,49-43l1,1q-1.5,23.5-3,47l48-42h1c0.8,51.511-22.418,76.811-51,98l-5-3V523l-4,4-40,33-3-2V515l-47,37q-0.5-18.5-1-37l-43,32v-2q-1.5-17-3-34c-12.977,9.666-27.963,31.546-45,35V497l-42,42-4-1q-1-20-2-40l-15,15c-11.462,5.6-16.244,19.808-29,24v-2q-1-12.5-2-25c15.255-11.921,35.279-45.213,53-51l2,3v22Zm1568,13c22.33,5.87,29.69,35.856,51,43,0.33-.333.67-0.667,1-1-0.31-11.243-1.39-34.788,4-42q25.995,24.5,52,49c0.67-.333,1.33-0.667,2-1q1.5-21.5,3-43l3,1q24.99,24,50,48h1q0.495-11,1-22c8.37,2.736,57.17,52.543,62,61q1.005,10.5,2,21,13.995,18,28,36-16.005,4-32,8v-2q-1.005-20-2-40-27-24-54-48v37c-4.58,1.252-3.24,1.581-6,4q-24.99-22-50-44c-0.67.333-1.33,0.667-2,1,0.32,9.457,2.31,28.212-2,34-3.13-1.46-3.55-1.859-6-2-0.67,1.333-1.33,2.667-2,4q-23.505-21.5-47-43-2.505,19.5-5,39h-1q-21.495-19-43-38c4.27-13.513-4.99-12.617-8-22V454ZM823,463l45,6v1l-40,42q0.5,1,1,2l35,8v1l-47,47h-3V557q1-16.5,2-33l-49,45-3-2q1-24,2-48Zm163,8c56.42,1.959,71.02,25.177,94,59l-3,11,9,10q-1.995,19.5-4,39l-10,1q-19.5-24.5-39-49c-0.45,11.591-3.14,38.289-10,45-9.21-7.136-42.719-45.6-45-57h28l19-1c-0.67-.667-1.33-1.333-2-2C1016.58,512.64,983.577,482.86,986,471Zm648,39c6.12,7.35-2.85,30.479,1,41,0.67-.667,1.33-1.333,2-2l57-36c-0.31,16.06-10.01,97.221-4,102,17.16,7.053,102.91,7.213,109,17q-27.99,23-56,46c13.5-.226,44.07-0.747,53,6q-27.99,24.5-56,49l52,5v1c-0.33.667-.67,1.333-1,2-16.96,7.7-53.21,49.039-75,39q-19.005-22-38-44c0.67-2,1.33-4,2-6l47,1c-1.33-1.333-2.67-2.667-4-4q-19.995-24.5-40-49v-3h25l19-1c-1.33-1.333-2.67-2.667-4-4q-46.5-53-93-106-3,23-6,46h-1l-12-12q-18.495-17-37-34-4.005,19.5-8,39c-6.23-1.466-8.47-4.9-13-8,0.82-11.216,15.69-50.694,22-57h1q1.005,5,2,10c0.67-.667,1.33-1.333,2-2Zm122,12q21.495,23,43,46-1.005,6-2,12c-3.92,7.578-48.29,40.228-61,35q-19.995-21.5-40-43V558q22.005-17,44-34Zm54,2q24.99,24.5,50,49v-2q4.005-21,8-42,24.495,24.5,49,49v-2q3.495-22,7-44,26.49,25,53,50c0.01-10.834.49-34.789,6-42h1c3.55,11.1,38.93,43.49,49,51v-2q3-20.5,6-41c8.6,2.7,55.26,58.689,54,62-1.28,3.36-53.28,41.429-59,43q-1.005-21-2-42-25.995,16-52,32c-0.67-.333-1.33-0.667-2-1q-0.495-21-1-42l-58,37c-0.67-.333-1.33-0.667-2-1V597q-27.495,16.5-55,33c-0.67-.333-1.33-0.667-2-1q0.495-19,1-38c-10.56,5.774-47.45,34.327-56,33-2.33-.667-4.67-1.333-7-2Q1804,573.006,1810,524ZM431,544c6.653,4.957.494,33.3,0,44l49-43,2,1q-0.5,23-1,46l46-38q-0.5,22-1,44l3-1,43-39h1q-0.5,21.5-1,43l3-1,41-40,2,1c-0.23,17.443-3.706,93.868-11,103l-35-44-2,1q-2,23.5-4,47l15,20q-0.5,1-1,2l-22,13v-5c8.189-28.6-20.625-67.751-35-81l-6,42-2-1-37-50q-2.5,17.5-5,35c-22.559-4.943-26.945-29.423-41-43v2q-2.5,9-5,18c-13.456-1.352-33.316-9.964-40-19l-2,1q-0.5,7.5-1,15h-1c-11.587-1.217-31.929-10.771-39-18l46-43,1,3q-1,13.5-2,27Zm1910,0c0.33,0.667.67,1.333,1,2h-2C2340.33,545.333,2340.67,544.667,2341,544Zm-966,51v8q-17.505,13.5-35,27l-16,1c-1.33,2-2.67,4-4,6l-30-2-36-2c-17.39-10.3-30.26-26.084-41-43,0.33-1,.67-2,1-3h1l70,4v-1c-0.67-.667-1.33-1.333-2-2l-24-36c0.33-.333.67-0.667,1-1l75,4c-4.89,15.18-25.67,24.853-35,37Zm725-39c16.74,5.423,37.12,37.6,52,49q1.5-24,3-48c1.33,1.333,2.67,2.667,4,4q25.5,24,51,48,1.005-24,2-48l3,1q27.495,26.5,55,53h1c-0.35-14.052-2.84-38.062,3-47q6.495,6.5,13,13,21.495,20,43,40v12l-60,22q0.495-11.5,1-23-28.995,21.5-58,43h-1q-0.495-24-1-48c-28.04,15.427-55.18,32.334-59,73l-51,19c-0.33-.667-0.67-1.333-1-2,8.52-24.07,35.12-35.7,51-53V621l-48,36c-2.67-1-5.33-2-8-3C2106.91,639.979,2088.62,574.382,2100,556ZM664,568h3q-1,22-2,44l49-43h1q-1,24-2,48l48-42,2,1q-1,22-2,44l53-43,2,1q-2,24-4,48l48-41,2,1L852,690l-6-5c-4.8-10.587-27.158-39.4-36-42q-4,20-8,40l-5-1-37-49q-0.5,1-1,2l-7,43h-4l-37-46v2l-7,43h-1l-41-50c-0.027,11.539-1.07,37.234-7,45h-1l-38-56Zm245,23,13,2c7.621,3.943,40.283,48.155,35,61l-42,40-15-1c-14.793-12.415-34.348-35.319-35-61Zm63,0q24,28,48,56c-0.16-13.373-.73-44.091,6-53q24.495,28,49,56,2.505-26,5-52h1c0.67,0.333,1.33.667,2,1,11.18,25.119,40.84,38.31,41,73q-22.995,20-46,40l-6-2q0.495-23.5,1-47c-13.94,10.34-39.53,40.633-56,44q-0.5-22-1-44L906,760l46,6v1l-11,11-35,38,39,8c-1.313,5.934-4.989,9.817-9,13-14.644-1.711-46.611-12.62-56-22l2-1,8-2v-1l-38-56v-1l41,2v-1l-2-2-36-56v-1c16.1,0.269,97.162,10.082,102,4Q964.5,645.5,972,591Zm1413,11h4v49q-0.495,6.5-1,13c-9.27-3.076-14.36-14.825-21-21q-0.495,30-1,60c-13.49-4.432-20.43-23.611-31-32q-1.995,32.5-4,65c-14.44-4.64-22.92-23.97-34-33q-1.995,29.5-4,59c-11.33-3.554-24.35-21-31-30-0.67.333-1.33,0.667-2,1q-1.5,30-3,60-7.005-6.5-14-13-8.505-9.5-17-19c0.34,10.7-.2,57.88-5,61q-31.995-39-64-78c0.67-1,1.33-2,2-3l55,7-3-4q-13.5-17-27-34l-26-4v-1q2.505-12.5,5-25h1l21,24q32.49,6,65,12l-3-3q-11.505-15-23-30c0.67-.667,1.33-1.333,2-2l62,10-3-4-18-26c18.13-5.781,38.3-1.735,59,3-0.67-1-1.33-2-2-3q-4.005-8.5-8-17c11.13-3.208,29.76-8.845,42-14-0.67-.667-1.33-1.333-2-2q-4.005-5-8-10l3-4Q2368,608,2385,602Zm-819,5q24.495,26.5,49,53h1q4.005-22.5,8-45h3c10.47,21.638,40.41,33.722,48,57l-50-1c0.33,1,.67,2,1,3q24.495,26.5,49,53c-0.67,1.333-1.33,2.667-2,4-0.67.333-1.33,0.667-2,1C1606.13,730.2,1536.88,676.236,1566,607Zm-34,6h3q-16.005,41-32,82h-61q-17.505,14-35,28c-23.83,9.513-62.82,4.92-94,5q-18.495,15-37,30c-7.75.142-11.67-1.232-16-4-3.83-8.031-8.67-12.162-10-24-9.92-.054-9.72-2.9-14-8,0.33-1.667.67-3.333,1-5l77,3q22.005-18,44-36l87,2Q1488.5,649.5,1532,613Zm-338,1c11.36,7.931,28.69,64.219,36,80l-42,42q-3,23.5-6,47-4.995,4.5-10,9c0.33,2.333.67,4.667,1,7q-26.49,25.5-53,51-3,25.5-6,51l-9,7c-14.7-1.1-20.02-6.715-31-9-1.67,1.667-3.33,3.333-5,5-3.92-.733-7.78-1.5-10-4-0.33-1-.67-2-1-3q27.99-25.5,56-51,3-28.5,6-57,30.99-29,62-58Q1188,672.506,1194,614Zm-830,3,29,17-6,6c-6.6,13.177-21.722,15.261-22,35q2,30.5,4,61l27-25c3.522,1.7,3.807.742,7,1q2,34,4,68l19-19,8-5c2,7.2,2.345,4.217,8,6q1,31,2,62l32-23,1,1q1,28.5,2,57c-11.466,4.586-4.115,8.75-9,20l-28,27h-1c-2.028-18.011,3.181-50.307-4-66l-32,28-2-1q-1.5-36-3-72l-33,28-2-1q-1-35.5-2-71c-6.736,4.036-9.8,10.491-18,13q0.5-43.5,1-87l13-14Q361.5,640,364,617Zm43,2,58,27-15,14,1,2,70,10q-0.5,1.5-1,3l-32,32v1c44.606,2.605,61.6,17,92-10l50,22q-0.5,1.5-1,3c-19.451,6.3-52.478-5.721-72,0l-30,30q0.5,1,1,2l58,8,3,7c-14.3,1.869-55.193,53.952-71,66-3.023-1.259-1.2.018-3-2q-0.5-34.5-1-69l-35,31-2-1q-0.5-37-1-74l-36,32q-1-40-2-80l-35,32-2-1q-1-38-2-76Zm803,11,36,1q16.995,19,34,38c22.98-.988,31.98-25.378,50-31l77,5c-0.33,1.333-.67,2.667-1,4q-19.005,15.5-38,31c-23.25,9.976-64.29,4.522-93,0-13.17-2.074-40.5,2.888-47-6Zm323,5c9.73,4.59,20.05,18.332,26,27-0.7,17.217-7.16,42.754,1,55l54,9q24.99,29.5,50,59h-9l-43-4c-18.48-6.484-84.47-80.965-96-101Q1524.505,657.5,1533,635Zm323,1h4v28q0.495,9.5,1,19c18.56-11.708,40.29-27.731,56-40,0.67,0.333,1.33.667,2,1-2.03,58.578-23.6,69.951-59,94l-11-3q-4.995,4.5-10,9l-39-4c-0.33-3.333-.67-6.667-1-10q24.495-19.5,49-39c-11.68-.763-38.09-3.021-45-10Q1829.49,658.5,1856,636Zm118,14h3q-1.995,27.5-4,55l-115,94,39,6c-0.67.333-1.33,0.667-2,1l-103,40c5.53-14.263,40.55-30.719,52-43v-1l-62-2-58,41c-15.84-4.939-45.98-39.2-54-53,0.33-.667.67-1.333,1-2l115,4q30.99-23,62-46l58,3q4.995-26,10-52Q1945,672.5,1974,650Zm58,10c6.18,6.773,3.32,32.971,3,45,12.54-8.11,51.76-43.739,62-42-1.94,17.12.66,45.1-6,55-23.28,10.767-38.48,41.23-64,48q0.495-24,1-48c-24.23,15.316-45.36,31.407-59,58q-7.005-3-14-6,6.495-7,13-14,6-29,12-58ZM606,671c7.462,3.611,34.432,37.416,37,46l-38-17Q605.5,685.5,606,671Zm-269,1h2l-2,2v-2Zm319,6c7.086,2.661,34.864,40.456,37,49h-8l-33-5Q654,700,656,678Zm47,4c19.563,9.756,49.152,61.642,41,91h-1l-17-2c-6.337-3.279-11.284-12.08-15-18l14-21-25-4Q701.5,705,703,682Zm48,2h3l44,56q2-25.5,4-51c9.52,2.35,39.284,47.793,45,58q-1,3-2,6l-39,1,2,2,27,40v1l-7,1v9h-1l-33-4-47-60Q749,713.5,751,684ZM2388,802c-10.35-1.418-14.25-10.679-21-16q-1.005,32-2,64l-3-1-30-33q-1.005,32-2,64h-1q-17.505-18.5-35-37c0.35,15.212,5.25,55.389-3,64q-15.495-15.5-31-31h-1q-1.5,31-3,62-4.005-3.5-8-7-11.505-13-23-26c-0.67.333-1.33,0.667-2,1q-1.005,31.5-2,63c-14.6-4.719-22.61-24.964-34-34h-1q-1.995,31.5-4,63-8.505-8-17-16-5.505-6-11-12c-4.29-10.115-7.18-70.906-4-78h5q12.495,13,25,26h1q2.505-29,5-58h1l33,30q2.505-29.5,5-59c11.63,3.7,18.87,17.947,28,25h1q3.495-26.5,7-53c0.67,0.667,1.33,1.333,2,2q13.005,11,26,22,2.505-28,5-56h4l33,33c-0.32-17.761-5.52-49.358,2-61q4.995,5,10,10l21,18q1.005-29.5,2-59c1.33,0.667,2.67,1.333,4,2l18,16v72ZM1011,715h3v50l12-12q21.495-19,43-38c0.67,0.667,1.33,1.333,2,2l3,2c-1.68,64.886-55.76,134.288-125,105l5-6,48-43v-1c-10.3-.313-41.03-3.615-45-11Zm1119,0c8.61,2.614,18.82,14.642,23,22-15.31.357-49.64-.045-59-8Zm-640,1c20.59,6.767,35.54,47.8,54,56l57,6q28.995,31,58,62c22.87,11.676,98.5-.727,117,13v1q-39.99,17-80,34-21.495-21.5-43-43l-45-5q-4.995-5-10-10l-7,1q-25.5-26.5-51-53l-51-6q-3.495-5-7-10c1.6-14.041,6.8-19.344,9-30-1.67-1.667-3.33-3.333-5-5Q1488,721.5,1490,716Zm-366,10h3q-1.995,26-4,52c-6.68,18.742-80.74,84.365-101,96l-45-18,27-25c17.22,0.7,42.75,7.157,55-1C1066.17,754.476,1091.5,767.96,1124,726Zm-493,2,84,9v4l-33,31v1l67,8,15-8,6,14h-2l-18,1-47,32-66-10v-1l30-33c-14.613-.465-68.08-7.4-73-13Zm769,0,85,7v1c-1.33,1.667-2.67,3.333-4,5q-18,14-36,28c-17.89-.93-10.02-0.543-21,5l-71-3c-1.33,1.667-2.67,3.333-4,5-23.46,11.067-32.27,33.371-65,32q-6.495-17-13-34c-4.69-5.795-8.6-2.268-11-12,0.33-.333.67-0.667,1-1l93,3Q1377,746,1400,728Zm682,5c10.91,3.539,24.73,24.254,30,34v1l-60-9v-1Q2067,745.5,2082,733Zm-838,3h3c0.03,16.064-1.15,43.59-8,55q-4.995,3-10,6c1.57,19.594-38.69,44.7-51,58,5.97,23.885-11.81,66.535-22,74-4.85-1.374-50-16-50-16q33.495-31.5,67-63,4.005-30,8-60Q1212.5,763,1244,736Zm754,13c6.68,0.307,19.3,1.147,23,5q2.505,11,5,22,10.005-7,20-14,15,17.5,30,35v1l-63-9q-2.505-5-5-10c-5.57.357-7.04,1.114-10-1q-7.005-7.5-14-15v-2Q1991.005,755,1998,749Zm-523,15c20.91,6.832,45.85,57.9,65,67l58,7c6.2,2.715,53.63,59.46,56,67h-7c-20.2-4.893-46.48,1.107-53-18-17.7.835-49.34-37.461-58-51-29.22,2.557-59.97-9.325-74-20-0.33-1-.67-2-1-3q7.005-15.5,14-31C1476.71,774,1472.98,772.019,1475,764Zm643,5,67,13c0.33,1.333.67,2.667,1,4q-1.005,32.5-2,65c-12.97-4.548-20.48-22.881-31-31q-1.995,32.5-4,65h-1q-16.5-17.5-33-35-1.995,32-4,64h-1q-15.495-16-31-32-3.495,34-7,68h-1q-15.495-18-31-36h-1q-2.505,31.5-5,63c-11.61-4.148-60.48-66.963-68-80v-1l63,6c-0.33-1-.67-2-1-3q-10.995-16.5-22-33c2.37-1.423,2.64-1.649,7-2l58,6-3-3q-10.995-15.5-22-31c0.33-1.333.67-2.667,1-4l60,7q-13.5-18.5-27-37c0.33-.667.67-1.333,1-2l63,8C2138.69,795.529,2117.5,781.585,2118,769Zm-683,5,33,3q-7.5,22-15,44c-19.1,4.825-44.61-10.722-63-5l-42,33-15-1c-1.67,2-3.33,4-5,6l-30-1c-1.33-2.666-2.67-5.334-4-8-11.6,2.895-20.86,8.291-35,3,0.67-1,1.33-2,2-3q22.005-17.5,44-35l75,2Zm491,2c12.51-.127,72.55,5.829,78,11q18.495,22,37,44h-2l-70-8c8.96,12.732,27.78,25.19,32,41-0.67.333-1.33,0.667-2,1q-35.49-6-71-12c-0.33-2.666-.67-5.334-1-8l27-26-51-9,3-8-6-4c1.33-1.667,2.67-3.333,4-5Q1915,784.5,1926,776Zm-663,1q10.5,21.5,21,43-24,20-48,40-1.995,17-4,34c-5.04,26.439-17.07,43.525-35,57-3.33-.667-6.67-1.333-10-2-2.13,14.017-9.62,20.439-20,26h-1c0.07-61.912,12.39-64.789,43-95q8.505-7.5,17-15,6-33.5,12-67Q1250.495,787.5,1263,777ZM558,803l73,10v1l-28,32h2l58,15-28,31h2l65,14c-4.072,12.5-21.211,20.211-29,30l64,16c-3.689,11.243-19.008,18.934-26,28v1l62,14,3,9q-38.5,29.49-77,59c-0.667-.33-1.333-0.67-2-1V994l-3,3q-16.5,11-33,22V950l-38,27q-0.5-36-1-72l-33,26-2-2q1-35.5,2-71c-11.891,7.664-22.8,21.873-37,26C551.645,859.008,550.351,823.547,558,803Zm278,0,103,46v1l-68-8,42,46c22.447,9.1,52.184,3.116,72,14l3,5q-2,34.5-4,69h-1l-69-71-9-12-78-12-38-43-42,29-77-9c4.542-12.958,30.212-29.052,41-37l148,15-3-3Zm579,21,59,5q25.5,27.5,51,55l67,12q10.5,12.5,21,25c-0.67,1-1.33,2-2,3q-20.505,9-41,18-19.995-24-40-48l-34-4c-26.37-4.943-43.6-17.224-57-35q1.005-5,2-10C1427.89,842.027,1419.08,835.747,1415,824Zm438,4h4v3c-1.33,1.667-2.67,3.333-4,5,0.33,0.667.67,1.333,1,2,10.2,0.395,63.18,10.259,66,15l-30,26v1l69,14q-4.005,4.5-8,9-33.99,29-68,58c14.5,33.848,48.08,59.65,68,90v1q-36.99-3.495-74-7,16.995,20.505,34,41c-0.33.67-.67,1.33-1,2l-73-6c7.41,15.61,27.33,24.65,32,42h-3c-28.5-7.77-60.42-6.52-80-22,2.95-12.66-.5-56.34,7-62,1.33-.33,2.67-0.67,4-1q16.005,16.5,32,33,3-34.995,6-70c13.82,4.4,23.12,21.61,34,30q4.5-72.993,9-146c-12.89,7.45-22.8,23.017-38,27q-0.495-33.5-1-67-17.505,10.5-35,21c-0.33-.333-0.67-0.667-1-1C1802.2,838.049,1835.79,840.552,1853,828ZM359,829h6l2,2q2,31.5,4,63c7.471-4.689,19.139-12.831,23-21l4,2,3,2q0.5,29.5,1,59c-12.472,7.134-16.139,28.276-32,36v-2q-2.5-30-5-60l-3,3c-7.434,3.586-10.353,10.463-19,13v-4q1-39.5,2-79Zm154,15h3v71l35-25h1q1,33,2,66l30-20,2,1c0.931,49.205-.12,93.73-36,105q-0.5-35.49-1-71c-7.868,4.358-32.028,27.685-38,24V928l-2,2-31,21-2-1c6.7-26.638-4.883-61.608,4-84Zm921,7c0.67,0.667,1.33,1.333,2,2-4.68,12.453-36.29,39.5-48,44-13.99,5.381-70.61,5.252-88-3v-5q18.495-17,37-34C1370.73,855.477,1411.59,866.29,1434,851Zm-141,2c9.58,9.083,4.24,29.345,1,43q-1.005,11.5-2,23c-14.61,22.348-39.18,44.391-63,60l-6-5c-0.12-15.768-.48-42.315,6-53q29.49-25,59-50Q1290.505,862,1293,853Zm-338,2,82,32v61q13.995,17.5,28,35c9.49,23.86,4.92,62.79,5,94q15,18.495,30,37c0.21,8.05-1.14,11.59-4,16-8.03,3.83-12.16,8.67-24,10,0.01,6.33-.86,7.58-3,11l-6,3c-1.33-.33-2.67-0.67-4-1q1.5-38.49,3-77-18-22.005-36-44,1.005-43.5,2-87C1017.39,936.459,958.309,866.288,955,855Zm1411,2c17.98,5.272,23.91,20.509,23,46q-0.495,24-1,48h-1q-9.495-9-19-18-1.995,31-4,62c-0.67-.333-1.33-0.667-2-1q-11.505-13-23-26V951q-4.005-3.5-8-7,0.495-29.5,1-59,3.495,3,7,6l24,27Q2364.5,887.5,2366,857Zm-610,11h4v22q-0.495,7-1,14-19.005,17-38,34c0.99,22.913,25.39,31.969,31,50q-2.505,38.49-5,77c-1.33-.33-2.67-0.67-4-1q-15.495-19.005-31-38c-11.94-27.572-1.76-102.18,3-138Q1735.505,878,1756,868ZM755,869l60,8c1.028,4.685,2.319,6.946,6,9,16.593,6.253,31.959,16.539,37,33l-6,6-62-7c7.178,12.733,22.144,24.444,25,40h-7c-16.2-3.894-54.123,1.481-65-9l32-34h-2c-20.157-7.955-48.809-3.021-67-12l5-6,29-24C748.943,869.218,749.145,875.933,755,869Zm1040,164h-8q-13.5-17.5-27-35-0.495-8-1-16l-6-4q1.005-15,2-30,1.005-18,2-36c8.78-14.771,26.91-36.422,45-41,0.33,0.667.67,1.333,1,2q-1.5,35-3,70c0.67-.667,1.33-1.333,2-2q17.505-12,35-24c0.67,0.333,1.33.667,2,1q-1.995,37.5-4,75c-15.18-4.886-24.85-25.666-37-35Q1796.5,995.5,1795,1033ZM1416,881l50,3q26.49,31,53,62c5.3,3,13.49,2.506,18,5-0.33.667-.67,1.333-1,2-57.31,19.914-104.42-33.86-125-66C1412.67,885,1414.33,883,1416,881Zm252,13c1.67,0.333,3.33.667,5,1q-1.5,38.5-3,77,18,22,36,44-1.005,43.5-2,87c10.25,8.24,70.15,79.32,73,90q-40.995-16.005-82-32v-61q-13.995-17.505-28-35v-15c-1.67-1-3.33-2-5-3V971q-15-18.5-30-37c-0.16-8.819,1.63-12.274,5-17,7.54-3.5,12.04-7.769,23-9-0.01-6.328.86-7.582,3-11C1664.67,896,1666.33,895,1668,894Zm-288,8,35,2q-10.005,22-20,44l-12,1c0.67,0.667,1.33,1.333,2,2q3.495,5,7,10-4.995,13.5-10,27l-25-2q-10.005-20-20-40c0.33-.667.67-1.333,1-2l31,2q-12.495-13.5-25-27c0.33-.667.67-1.333,1-2C1363.25,917.562,1371.1,910.561,1380,902Zm-303,3c12.5,5.237,26.25,29.157,34,40-0.92,20.546-.32,9.125,5,21q-1.005,33-2,66c-0.33,1.67-.67,3.33-1,5,1.67,1.33,3.33,2.67,5,4,10.03,21.39,30.57,30.86,33,59-0.91,2.58-1.2,4.34-3,6q-16.005,6.495-32,13c-5.85,4.91-1.85,8.76-12,11l-1-1,3-93q-18-23-36-46Q1073.495,947.5,1077,905Zm238,0c8.23,5.658,15.59,34.511,17,46q-3.495,4-7,8h2l14,3c3.02,9.222,11.63,20.09,8,29q-7.995,6-16,12l-43-13v-3q11.505-10.5,23-21h-37v-3q4.995-4.5,10-9,1.995-13.5,4-27Q1302.495,916,1315,905Zm-879,7c4.462,3.453,5.974,52.671,6,63-10.42,6.12-5.724,7.938-11,20q-11.5,11-23,22c5.233,16.61,19.895,24.19,25,38q-1,7.5-2,15,4,3.495,8,7-0.5,28.5-1,57c-15.144-4.54-27.692-31.02-38-42q1.5-74.49,3-149Zm1859,1q18.495,21.5,37,43-1.005,74-2,148l-35,32h-1v-2q-1.995-30.495-4-61c10.42-6.12,5.72-7.94,11-20q11.505-10.995,23-22c-3.99-17.14-17.36-23.55-24-37q0.495-8,1-16-4.005-4-8-8Q2294.005,941.5,2295,913Zm-753,4q19.005,23,38,46-1.005,37.5-2,75c11.02,33.62,44.77,35.07,35,88q-22.5-7.995-45-16,3-30.99,6-62l-32-41V991l-6-5q0.495-15,1-30,4.005-2,8-4C1542.1,940.4,1536.71,931.141,1542,917Zm83,1c1.33,0.667,2.67,1.333,4,2q-1.5,46-3,92c39.9,31.67,37.94,66.39,29,131h-1c-1.67-1.33-3.33-2.67-5-4q-13.5-16.995-27-34,0.495-9,1-18c-2.33-1.67-4.67-3.33-7-5q1.5-34.995,3-70c-13.31-17.628-44.44-42.493-36-71C1601.96,937.791,1612.73,927.39,1625,918Zm-506,4q22.005,7.5,44,15c4.9,19.2-10.69,44.683-5,63l33,42q-0.495,7.5-1,15c2,1.67,4,3.33,6,5q-0.495,15-1,30c-2.67,1.33-5.33,2.67-8,4,3.09,12.78,8.84,19.42,3,35-1-.67-2-1.33-3-2l-35-44q1.005-37.5,2-75-19.005-27.5-38-55Zm993,0c5.97,1.817,34.42,31.311,36,37q-0.495,20.5-1,41c-0.06,11.23,2.94,32.96-3,39-6.98,8.33-23.61,22.12-35,25q-1.005-29.49-2-59-16.005,9-32,18c-0.25-13.47-3.27-60.7,2-68q16.005,16.5,32,33Q2110.5,955,2112,922ZM863,924c25.725,1.162,71.092,6.3,83,23-2.931,12.6.555,55.36-7,61-1.333.33-2.667,0.67-4,1l-32-33q-3,35-6,70c-13.576-4.33-23.241-21.7-34-30q-4.5,72.99-9,146c12.892-7.45,22.8-23.02,38-27q0.5,33,1,66c14.319-3.57,20.907-17.2,36-20v7q0.5,4.5,1,9-27.5,11.505-55,23v-3c1.333-2.33,2.667-4.67,4-7-10.16-.17-64.3-10.46-67-15q15-13.005,30-26v-1q-34.5-7.005-69-14v-1q4-4.005,8-8,34-28.995,68-58c-8.8-26.1-51.427-65.01-68-90v-1q37,3.5,74,7c-1.333-1.33-2.667-2.67-4-4l-30-37q0.5-1,1-2l73,5-4-4C884.276,946.9,868.477,939.37,863,924Zm1066,4,55,7q6.495,5,13,10c0.32,18.944,2.8,50.318-4,65l-9,6c-22.76-1.65-57.29-5.14-68-20C1915.42,965.494,1914.89,945.114,1929,928Zm-505,6c8.05,1.711,7.12,7.594,13,10l23,3c8.09,2.643,21.61,20.247,25,28q-22.995,7.5-46,15-4.005-4-8-8l-3,17c-8.92,2.82-18.82,10.54-28,9q-6.495-8.5-13-17c3.23-9.513,7.69-39.8,17-43q10.005,11.5,20,23V934Zm834,11q18,18.5,36,37-0.495,39.5-1,79c-6.9,9-23.38,25.69-35,29q-1.5-33.99-3-68l-31,25c-0.67-.33-1.33-0.67-2-1q1.005-35,2-70,7.995,8,16,16,7.005,6,14,12Q2256,974.5,2258,945Zm-1064,9c28.98,7,52.47,59.37,47,93-1.98,12.2,2.05,34.37-5,42-1.67.33-3.33,0.67-5,1l-34-37q2.505-42,5-84C1199.95,963.235,1195.12,962.585,1194,954Zm-723,4h3q1.5,34,3,68,15.5-12.5,31-25c0.667,0.33,1.333.67,2,1q-1,34.995-2,70l-18-18q-6-4.995-12-10-2,29.49-4,59-5.5-4.995-11-10-12.5-13.5-25-27,0.5-39.99,1-80Zm1025,0,6,1,33,36q-2.505,42-5,84c2.12,5.58,6.9,6.35,8,15h-1c-12.3-4.63-39.56-36.45-44-48C1487.62,1032.01,1487.75,975.39,1496,958Zm-250,17q21.495,9.5,43,19,1.005,6.5,2,13l2-2,10-7q13.5,5,27,10-1.005,12.5-2,25-20.505,10.005-41,20l-1-1q1.005-15.495,2-31-13.5,12.495-27,25c-0.67-.33-1.33-0.67-2-1,0.01-21.55-10.83-21.69-15-35Q1245.005,992.5,1246,975Zm-882,2c5.264,3.911,3.269,57.73,3,70q-11.5-9.495-23-19,0.5-16,1-32Zm621,6c15.42,5.311,34.23,40.8,41,57q-5,60.99-10,122-22,9-44,18,0.5-18,1-36,19-16.995,38-34c-0.92-23.03-25.649-31.95-31-50Q982.5,1021.51,985,983Zm-365,1h3q1,29.49,2,59l32-18c0.251,13.47,3.275,60.7-2,68l-32-33-3,66h-1c-8.931-4.11-32.348-27.49-35-37q0.5-21,1-42c0.015-11.12-2.726-31.9,3-38Q604,996.5,620,984Zm1412,1c8.37,6.579-2.27,54.7,3,69l3-3q16.5-11.505,33-23v70q19.005-13.5,38-27v1q0.495,35.49,1,71,16.995-13.005,34-26h1q-0.495,36-1,72,18-12.495,36-25c0.31,13.87-.54,73.02-6,79v2q-36.495-4.995-73-10v-1l2-2q13.005-15,26-30h-2l-58-15,28-31h-2c-14.86-7.58-49.08-14.81-65-14,4.07-12.5,21.21-20.21,29-30h-2q-30.99-7.995-62-16c3.75-11.18,19.01-18.94,26-28v-1q-30.99-7.005-62-14c-1.42-4.36-2.68-5.76-2-10Q1994.5,1014,2032,985Zm-590,10h4v12q-1.005,10-2,20c9.2-7.05,17.53-21.27,29-25-0.03,22.06,10.69,22.42,15,36q-1.005,17.505-2,35-22.005-10.005-44-20-0.495-6-1-12l-2,2q-5.505,3.495-11,7-13.005-6-26-12,1.005-11.505,2-23Q1423.005,1005,1442,995Zm923,6c8.29,2.52,17.65,12.93,23,19,0.79,29.79-4.84,39.21-21,51-0.67-.33-1.33-0.67-2-1v-69Zm-186,5h3q0.495,35.49,1,71,18.495-13.005,37-26h1v69l2-2q15.495-10.5,31-21l2,2c-5.97,23.46,2.66,59.27-3,82q-17.505,11.505-35,23c-0.67-.33-1.33-0.67-2-1v-70q-17.505,12.495-35,25h-1q-1.005-33-2-66-15,10.005-30,20c-0.67-.33-1.33-0.67-2-1-0.3-22.9-1.04-68.23,7-82C2157.94,1020.53,2172.6,1014.26,2179,1006Zm-1242,9h8q13.5,17.505,27,35c10.7,25.14,7.553,76.84-4,100q-17.5,13.5-35,27c-1.333-.33-2.667-0.67-4-1q1.5-35.49,3-71c-0.667.67-1.333,1.33-2,2q-17.5,12-35,24c-0.667-.33-1.333-0.67-2-1q2-37.5,4-75c15.335,4.94,24.791,25.62,37,35Zm-190,17c18.356,0.84,51.084,4.2,64,13,1.667,2.33,3.333,4.67,5,7,0.633,26.3,1.566,57.08-14,68q-27-3.495-54-7c-5.353-2.02-6.641-7.81-13-10-0.311-18.71-2.756-50.4,4-65Zm580,7h3l15,18c-3.27,9.69-7.52,39.75-17,43l-20-23v37h-4c-9.45-13.29-19.66-6.03-35-14q-10.995-13.005-22-26,22.995-7.995,46-16,4.005,3.495,8,7v-2q1.5-7.005,3-14Q1315.505,1044.005,1327,1039Zm71,6c9.8,2.11,40.98,8.08,44,17l-23,20h37v4c-15.93,11.8-5.25,19.18-14,35q-13.5,10.995-27,22-7.5-22.995-15-46,3.495-4.005,7-8h-2l-14-3q-4.995-13.5-10-27Zm-849,5c12.518,5.14,19.644,21,30,29-2.936,12.04,12.554,67.66,2,76-1.333.33-2.667,0.67-4,1l-26-27q-2.5,29.49-5,59h-1l-33-30q-3,29.49-6,59-13.5-12.495-27-25h-1q-3.5,26.49-7,53c-0.667-.67-1.333-1.33-2-2q-13-10.995-26-22l-5,56h-4l-33-33q0.5,29.49,1,59h-2c-1,.33-2,0.67-3,1q-14-13.5-28-27h-1q-1,29.49-2,59c-8.3-2.33-17.347-11.67-22-18q0.5-36.495,1-73h1q9.5,8.505,19,17,1-31.995,2-64c1,0.33,2,.67,3,1q15,16.5,30,33h1q0.5-31.995,1-64h1q17.5,18.495,35,37c-0.348-15.21-5.251-55.39,3-64q16,16.005,32,32l3-63,10,9,22,24h1q1-31.995,2-64h4q15,16.995,30,34h1Zm-182,3c27.634,14.06,41.358,63.74,34,109h-1q-15.5-16.005-31-32-1.5,30.495-3,61h-1q-11-10.005-22-20c-0.292-12.77.617-71.78,4-74l17,18Q365.5,1084.01,367,1053Zm983,7q12.495,1.005,25,2,10.005,20.505,20,41l-1,1q-15.495-1.005-31-2,12.495,13.5,25,27c-0.33.67-.67,1.33-1,2-21.55-.01-21.69,10.83-35,15q-17.505-1.005-35-2,10.005-22.005,20-44,6-.495,12-1l-2-2q-3.495-5.505-7-11Q1345,1072.995,1350,1060Zm152,9c2.33,1.67,4.67,3.33,7,5,0.2,15.8.5,42.38-6,53q-29.49,24.99-59,50c-2.96,5.28-2.59,13.51-5,18-0.67-.33-1.33-0.67-2-1-3.8-11.53-2.57-21.54,0-35q1.995-15.495,4-31C1453.91,1103.1,1482.51,1089.95,1502,1069Zm-804,2c8.242,2.92,64.878,71.21,68,81l-63-6q11.5,18,23,36c-2.267,1.36-1.976,1.45-6,2l-59-6,3,3q11.5,16.005,23,32l-2,3q-30-3.495-60-7,13.5,18.495,27,37c-0.333.67-.667,1.33-1,2q-31.5-4.005-63-8v1q13.5,18,27,36c-0.333.67-.667,1.33-1,2h-1q-33-6.495-66-13c-0.333-1.33-.667-2.67-1-4l3-66c1.667,1.33,3.333,2.67,5,4q12.5,13.995,25,28,2-32.49,4-65h1q16.5,17.505,33,35,2-31.995,4-64h3q14.5,16.005,29,32,3.5-33.99,7-68h1q16,17.505,32,35Q695.5,1102.01,698,1071Zm1050,1c12.86,4.25,58.59,59.09,71,72q4.005,5.505,8,11l79,12,37,43q21-14.505,42-29l77,9c-4.54,12.96-30.21,29.05-41,37q-73.5-7.005-147-14l2,2q10.005,15,20,30h-1q-51-22.995-102-46v-1q33.99,4.005,68,8l-7-7q-16.995-19.5-34-39c-22.02-10.42-52.89-3.08-73-14C1741.15,1130.33,1742.9,1090.31,1748,1072Zm-184,1c1.77,2.03-.33,52.9-3,59q-27.495,25.5-55,51-6,33.495-12,67-12.495,10.5-25,21c-0.67-.33-1.33-0.67-2-1q-9.495-21-19-42,24-19.995,48-40,1.995-16.995,4-34c4.96-26.45,17.17-43.56,35-57,3.33,0.67,6.67,1.33,10,2C1548.45,1084.19,1554.66,1081.24,1564,1073Zm796,3c10.83,8.6,1.71,48.04,7,62l3-3,17-14c0.67,0.33,1.33.67,2,1-0.24,22.99,4.6,66.22-4,85-7.06,3.54-8.13,10.29-17,12-0.67-1-1.33-2-2-3q-2.505-30.99-5-62l-24,21c-2-1.33-4-2.67-6-4-0.26-18.35-5.54-46.74,1-61C2332.81,1109.66,2357.83,1078.92,2360,1076Zm-443,14c13.23-.13,66.08,3.24,72,9q-16.005,16.995-32,34c19.84,2.27,53.77,2.68,69,12-1.67,2-3.33,4-5,6q-14.505,12-29,24c-19.24,7.87-50.88-.56-75-4q-2.505-4.995-5-10c-17.97.35-34.15-19.16-38-32l6-6q30.99,3.495,62,7C1934.86,1116.95,1920.16,1105.68,1917,1090Zm-713,1c62.21,0.42,93.69,29.41,117,70-1.67,2-3.33,4-5,6-15.19.08-40.51,0.6-52-5l-51-60q-9-2.505-18-5c0.33-.67.67-1.33,1-2C1198.67,1093.67,1201.33,1092.33,1204,1091Zm-43,15c16.5,8.09,26.37,40.97,41,48q16.995,1.995,34,4c26.62,5.08,43.49,17.02,57,35-0.67,3.33-1.33,6.67-2,10,14.14,2.14,20.4,9.54,26,20v1c-61.58-.07-65.05-12.36-95-43q-7.5-8.505-15-17l-67-12q-10.5-12.495-21-25c0.67-1,1.33-2,2-3Q1140.995,1115,1161,1106Zm414,13q16.5,7.005,33,14c8.47,1.94,8.67-4.77,16,0h2c-6.81,20.85-57.84,45.76-67,65q-3.495,28.995-7,58c-2.46,5.88-59.7,53.67-67,56v-7q2.505-22.005,5-44l13-10c-0.33-3.33-.67-6.67-1-10q10.5-10.005,21-20,15-13.995,30-28C1562.68,1155.47,1556.38,1143.42,1575,1119Zm52,21c14.96,0.68,20.15,6.25,31,9l5-5c3.33,0.67,6.67,1.33,10,2,0.33,1.67.67,3.33,1,5q-27.99,25.5-56,51l-6,57q-30.99,28.995-62,58c-11.65,22.98.73,98.46-13,117h-1q-16.995-39.99-34-80l43-43q2.505-22.5,5-45l10-10c-0.33-2.33-.67-4.67-1-7q26.49-25.5,53-51l6-51Q1622.5,1143.505,1627,1140Zm662,2c8.2,7.82,1.42,50.59,5,65h1l33-27h1q1.5,36.495,3,73,16.5-13.995,33-28c0.67,0.33,1.33.67,2,1q1.005,35.49,2,71c1-.33,2-0.67,3-1l13-13c1,0.67,2,1.33,3,2q-1.005,42.99-2,86-6.495,7.005-13,14-3,22.995-6,46-13.995-8.505-28-17l6-6c6.83-13.64,21.86-15.18,22-36q-1.995-30-4-60-13.5,12.495-27,25c-2.86-1.43-1.45-1.59-5-1-0.67-.33-1.33-0.67-2-1q-1.995-33.495-4-67l-18,18q-4.005,3-8,6h-1c-1.42-7.03-2.89-5.13-8-6q-0.495-31.5-1-63l-33,24-1-1q-1.005-28.5-2-57h1c10.38-4.35,3.51-9.51,8-20Zm-1211,1c16.86-.05,44.93,1.49,56,9q2.505,4.5,5,9c19.77-1.62,44.66,38.65,58,51,23.92-5.99,66.52,11.79,74,22q-7.005,16.005-14,32c-1.89,8.5,4.73,8.66,0,16v2c-20.75-6.81-45.72-57.82-65-67q-28.995-3.495-58-7C1127.29,1206.79,1080.52,1150.91,1078,1143Zm286,3q33.99,3.495,68,7c-0.33,3-.67,6-1,9q-18,15.495-36,31-42-2.505-84-5c-5.58,2.12-6.34,6.9-15,8v-1c4.92-12.59,36.06-39.44,48-44,8.17-3.12,13.15,1.2,19-2C1363.33,1148,1363.67,1147,1364,1146Zm-329,14c18.24,7.16,26.7,32.41,43,42l47,6q4.5,4.995,9,10c2.33-.33,4.67-0.67,7-1q25.5,26.49,51,53l51,6q3.495,4.995,7,10c-1.09,14.4-6.74,19.17-9,30l5,5c-0.73,3.92-1.5,7.78-4,10-1,.33-2,0.67-3,1q-25.5-27.99-51-56l-57-6q-30.495-31.5-61-63c-27.68-8.1-94.113.6-114-12v-1Q995.5,1177.005,1035,1160Zm674,14q22.995,9,46,18-13.5,12.495-27,25l-51-3c-9.61,14.81-3.55,41.29-13,58q-29.49,24.99-59,50v-9q1.995-21.495,4-43C1619.02,1241.39,1684.19,1197.46,1709,1174Zm-976,9,71,12c2.606,14.5-17.74,23.54-26,34l51,9c0.333,0.33.667,0.67,1,1-1.333,2.33-2.667,4.67-4,7,6.889,2.96,5.343,4.28,2,9q-11,8.505-22,17l-77-9q-19-22.995-38-46h2q35,4.005,70,8l-3-3c-6.813-14.36-24.3-22.12-29-38C731.667,1183.67,732.333,1183.33,733,1183Zm671,11c13.81-.57,29.95-1.11,34,9,12.8-3.1,19.48-8.85,35-3-0.67,1-1.33,2-2,3l-44,35q-37.5-1.005-75-2-27.495,19.005-55,38l-33-3v-3q7.995-21,16-42l62,6,42-33C1394.27,1195.19,1397.22,1202.57,1404,1194Zm-468,8c1.667,0.33,3.333.67,5,1l-2,3q-25.5,19.5-51,39h2l60,3q28.5-20.505,57-41c15.06,2.33,47.89,40.69,55,53-0.33.67-.67,1.33-1,2q-57.5-1.995-115-4-31,22.995-62,46-29-1.995-58-4-4.5,25.995-9,52-31,22.995-62,46v-9l4-46q57.5-46.5,115-93v-1q-19.5-2.505-39-5l2-3Q886.5,1221.5,936,1202Zm859,9c11.32,0.73,50.68,15.68,57,22v1c-3.33.67-6.67,1.33-10,2l2,2q18,27.99,36,56-20.505-.495-41-1l3,3q17.505,27.99,35,56c-16.06-.31-97.1-10.17-102-4-7.1,17.28-7.1,102.72-17,109q-22.995-27.99-46-56c0.23,13.46.75,44.15-6,53q-24.495-27.99-49-56-2.505,25.995-5,52h-1c-0.67-.33-1.33-0.67-2-1-10.75-25.56-40.83-38.2-41-73l46-40c2,0.67,4,1.33,6,2q-0.495,23.505-1,47,26.49-22.005,53-44h3q0.495,22.005,1,44,54.99-48.495,110-97-22.995-3.495-46-7l11-11,35-38q-19.5-4.005-39-8C1788.47,1217.77,1791.91,1215.53,1795,1211Zm418,1h4v2q0.495,34.5,1,69,17.505-15.495,35-31c0.67,0.33,1.33.67,2,1q0.495,36.99,1,74,18-16.005,36-32,1.005,39.99,2,80l35-32c0.67,0.33,1.33.67,2,1q1.005,37.995,2,76-3.495,4.005-7,8c-11.16-1.21-52.88-19.27-59-26l15-15v-1l-70-9v-3q16.005-16.5,32-33v-1c-42.03-2.5-64.6-17.98-92,10q-24.99-10.5-50-21c7.35-20.14,54.48,2.42,73-4l30-30v-1l-1-1c-16.87-.01-54.52-2.43-61-14C2160.9,1267.62,2200.18,1229.04,2213,1212Zm-478,5,48,6v1c-1.67,2-3.33,4-5,6q-24,21.495-48,43v1q22.5,4.005,45,8v3l-57,48v-50l-12,12q-21.495,19.005-43,38l-2-2c-1-.67-2-1.33-3-2,2.15-55.51,24.39-78.45,57-103C1722.12,1220.64,1729.37,1223.97,1735,1217Zm-1227,9c8,3.01,64.541,70.6,67,80-0.667.33-1.333,0.67-2,1l-55-6c1.333,1.33,2.667,2.67,4,4l26,33q13,1.995,26,4-2.5,13.005-5,26h-1q-10.5-12-21-24l-65-12,26,33c-0.667.67-1.333,1.33-2,2q-31-4.995-62-10v1q10.5,14.505,21,29c-18.638,5.26-37.727,1.65-59-3v1c3.831,5.99,8.614,10.7,10,19-15.1,4.6-22.919,12.8-43,13l11,12c1.606,4.49-33.018,16.24-41,17v-45q0.5-8.505,1-17c10.447,3.48,13.021,15.82,22,21q0.5-30.495,1-61,4,3.495,8,7,11,13.005,22,26,2.5-33,5-66,16.5,16.995,33,34,2-29.49,4-59c13.665,4.38,21.315,21.74,32,30h1c-0.291-12.58-.959-54.21,4-61q15,16.005,30,32Q507,1256.505,508,1226Zm1521,2c17.35,0.4,53.68,2.34,66,11l-30,33q36.495,5.505,73,11c-4.29,12.39-27.75,29.37-38,37l-83-9v-3q16.995-16.5,34-33-33.99-4.005-68-8-7.5,4.005-15,8-3-7.005-6-14h2q9-.495,18-1Q2005.505,1243.995,2029,1228Zm-594,11q7.005,1.005,14,2l12,33c4.94,5.87,8.67,1.89,11,12l-1,1-93-3q-21.495,17.505-43,35c-5.72,2.68-81.48-3.7-88-7,1.67-2,3.33-4,5-6q17.505-13.5,35-27c7.02,0.16,82.03-10.25,92-2,1.33-1.67,2.67-3.33,4-5h1l1-1q17.505-13.995,35-28c8.24-3.2,9.16,4.46,14-3Zm469,2q17.505,1.995,35,4c9.38,6.18,47.07,58.55,45,72q-1.5,23.505-3,47c-1.33-.33-2.67-0.67-4-1q-5.505-6.495-11-13-16.005-21-32-42-1.995,25.5-4,51c-2-.67-4-1.33-6-2q-19.5-27.495-39-55c0.64-3.63.4-3.03,2-5v-2h39v-1l-2-2q-13.5-19.995-27-40c2.33-.67,4.67-1.33,7-2v-9Zm-1248,9c18.94,0.22,49.128,2.57,64,10,2.939,7.91,19.986,13.72,28,25v2l-14,12-23-3q-2-12.495-4-25l-21,15Q671,1268,656,1250Zm412,13q25.995,1.995,52,4c19.07,6.78,84.11,80.48,96,101l-18,45q-12.495-13.5-25-27c0.91-18.27,6.66-43.98-1-55l-54-9Q1093.01,1292.51,1068,1263Zm-69,3h15l40,46c-0.67,2-1.33,4-2,6q-23.505-.495-47-1l45,54c-0.33.67-.67,1.33-1,2q-22.005.495-44,1,48.495,54.99,97,110,3-22.995,6-46h1l10,10,39,36q4.005-19.5,8-39c5.93,1.31,9.82,4.99,13,9q-10.5,27.99-21,56c-1-.67-2-1.33-3-2-0.33-2.67-.67-5.33-1-8l-2,2q-27.495,18-55,36h-1q0.495-20.505,1-41l-2,2c-18.32,7.3-38.55,34.13-57,35,0.36-15.84,10.15-96.11,4-101-22.81-10.02-93.174-3.78-109-16q28-23.505,56-47c-13.373.16-44.091,0.73-53-6q28-24.495,56-49-26-2.505-52-5v-1c0.333-.67.667-1.33,1-2Q970,1286.495,999,1266Zm-237,6,15,6q-6.5,7.005-13,14-6,28.995-12,58c-2.619,5.06-46.907,35.8-54,38q-0.5-22.5-1-45-30,21.495-60,43h-1c-0.308-18.47-1.455-46.4,5-56,23.276-10.77,38.478-41.23,64-48q-0.5,24-1,48C724.726,1317.01,755.427,1299.07,762,1272Zm1226,3c7.46,0.4,17.22,1.1,22,4q5.505,7.995,11,16-7.005,10.5-14,21c8.87-.03,20.24,1.39,26,5q-2.505,22.5-5,45c-1.33-1-2.67-2-4-3q-16.995-22.995-34-46c0.92-6.81,2.71-10.66,1-15C1984.16,1298.53,1985.18,1283.52,1988,1275Zm-1368,5,60,9q-0.5,1.5-1,3c-11.112,6.44-19.046,19.21-32,23Q633.5,1297.495,620,1280Zm836,10c9.12-.23,12.19,1.55,17,5,3.56,7.44,7.78,11.94,9,23,6.33-.01,7.58.86,11,3l3,6c-0.33,1.33-.67,2.67-1,4l-77-3q-22.005,18-44,36-43.5-1.005-87-2c-8.6,10.68-78.6,69.67-90,73q16.005-40.995,32-82h61q18.495-14.505,37-29c9.25,0.4,10.45-1.48,16-4h76Q1437.5,1305,1456,1290Zm-564,14q20,1.995,40,4l1,10q-24.5,19.5-49,39c11.591,0.45,38.289,3.14,45,10-7.054,9.23-45.564,42.71-57,45v-38q-0.5-4.5-1-9c-18.556,11.71-40.289,27.73-56,40-0.667-.33-1.333-0.67-2-1,3.139-59.14,22.7-69.33,59-94l11,3Zm-312,6q29,3.495,58,7v2q-19.5,7.005-39,14l-20-21C579.333,1311.33,579.667,1310.67,580,1310Zm480,6c61.79,0.78,95.93,34.5,113,77q-3,23.505-6,47l-6-3q-22.005-24.495-44-49h-1q-4.005,22.5-8,45h-1c-10.58-7.97-46.11-44.91-50-57q24.99,0.495,50,1v-1l-11-11q-19.5-22.005-39-44C1058,1319.33,1059,1317.67,1060,1316Zm979,5q20.505,2.505,41,5-1.995,22.005-4,44c-1.33-.33-2.67-0.67-4-1C2064.23,1351.48,2044.06,1340.06,2039,1321Zm-438,7c1,0.33,2,.67,3,1-0.06,18.36-6.03,109.11-3,114l45,63q-1.5,28.995-3,58,25.995,4.995,52,10,22.5,30.495,45,61h-9c-11.05-2.61-38.24,1.06-46-6q-46.995-56.49-94-113-2.505,19.5-5,39c-1-.67-2-1.33-3-2q-19.5-51.495-39-103l1-1c1,0.67,2,1.33,3,2q19.995,25.5,40,51,1.005-30.99,2-62-20.505-28.995-41-58C1556.28,1358.9,1584.85,1343.36,1601,1328Zm-973,1c1.333,0.67,2.667,1.33,4,2-5.1,14.7-36.637,44.69-50,51q-0.5,22.5-1,45,24-18,48-36c2.666,0.67,5.334,1.33,8,2v1c-6,6.96-3.173,78.15-3,97h-2c-1,.33-2,0.67-3,1q-24.5-24.495-49-49l-3,48-9-9q-22.5-21.495-45-43h-1q-1,24-2,48c-1-.33-2-0.67-3-1q-27.5-26.49-55-53h-1c0.349,14.05,2.845,38.06-3,47l-15-15q-20.5-19.5-41-39v-11q30-10.995,60-22-0.5,11.505-1,23,29-21.495,58-43h1q0.5,24,1,48c28.017-15.41,55.186-32.38,59-73Q604,1338.505,628,1329Zm1461,2q19.005,8.505,38,17-0.495,14.505-1,29h-1c-1.67-1.33-3.33-2.67-5-4Q2104.505,1352,2089,1331Zm82,14h3q-1.005,16.5-2,33,18.495,26.49,37,53l6-42c1,0.67,2,1.33,3,2q18,24.495,36,49v-2q2.505-16.5,5-33c22.67,4.97,26.89,29.37,41,43v-2q2.505-9,5-18c15.74,1.69,30.81,11.1,41,19h1c-0.38-7.68-.06-13.16,3-17q19.005,9.495,38,19v1l-45,42h-1q0.495-15,1-30-21.495,21-43,42c-0.67-.33-1.33-0.67-2-1q1.5-21.495,3-43l-49,43c-0.67-.33-1.33-0.67-2-1q0.495-22.995,1-46l-44,38c-0.67-.33-1.33-0.67-2-1v-43l-10,10q-17.505,15-35,30h-1q0.495-21.495,1-43l-44,41c-0.67-.33-1.33-0.67-2-1,0.48-17.91,3.42-93.23,11-103q18,22.005,36,44h1q1.995-24.495,4-49-7.5-9.495-15-19Q2161.005,1352.5,2171,1345Zm-354,9h15c12.07,16.92,46.5,44.79,29,68q-19.5,17.505-39,35-7.005-1.005-14-2c-6.91-11.85-39.59-44.4-33-61Q1796,1374.005,1817,1354Zm63,4,41,47h1q4.005-19.995,8-40c1.67,0.33,3.33.67,5,1q18.495,24,37,48c0.67-.33,1.33-0.67,2-1q3-21.495,6-43h4l37,46v-2q3.495-21.495,7-43c1.33,0.33,2.67.67,4,1q19.005,24.495,38,49c0.19-11.44,1.06-37.21,7-45,1,0.67,2,1.33,3,2l36,54c-6.81,9.72-40.4,44.58-51,48v-7q1.005-18.495,2-37l-49,43h-1q1.005-24,2-48l-48,42c-0.67-.33-1.33-0.67-2-1q1.005-22.005,2-44-26.49,21.495-53,43c-0.67-.33-1.33-0.67-2-1q1.995-24,4-48-24,20.505-48,41c-0.67-.33-1.33-0.67-2-1Q1875,1410.01,1880,1358Zm-498,6q60.99,4.995,122,10,9,22.005,18,44h-21q-7.5-.495-15-1c-7.76-10.83-24.3-37.5-41-38l-43,31q-38.49-2.505-77-5c2.07-5.9,32.93-32.41,39-35,4.68-1.99,13.12-1.29,17-3C1381.33,1366,1381.67,1365,1382,1364Zm1011,10h2l-2,2v-2ZM695,1395h3l3,42q25.5-16.005,51-32c0.667,0.33,1.333.67,2,1q0.5,21,1,42,30-18.495,60-37v40l55-33c0.667,0.33,1.333.67,2,1q-0.5,19.005-1,38c10.556-5.77,47.45-34.33,56-33l8,3-13,97h-1q-24.5-24.495-49-49v2q-4,21-8,42c-0.333-.67-0.667-1.33-1-2q-24-23.505-48-47-3.5,22.995-7,46-26.5-24.99-53-50c0,11.09-.422,34.7-6,42h-1c-3.546-11.1-38.931-43.49-49-51v2q-3,20.505-6,41c-12.026-3.92-45.594-46.51-54-58v-3Q667,1417,695,1395Zm553,7q34.995,1.995,70,4v1c-7.99,16.57-55.38,53.98-71,69l-12,9-12,78q-21.495,19.005-43,38,14.505,21,29,42-4.5,38.49-9,77c-12.87-4.51-29.06-30.3-37-41q7.5-73.995,15-148-16.5,11.505-33,23v-1q22.995-51,46-102h1q-4.005,33.99-8,68,22.995-20.505,46-41C1241.59,1453.66,1232.67,1420.9,1248,1402Zm109,51v-8q17.505-13.5,35-27,7.995-.495,16-1c1.33-2,2.67-4,4-6q15.495,1.005,31,2,17.505,1.005,35,2c14.84,9.07,36.35,26.62,41,45l-1,1-71-3,2,2q12,17.505,24,35c-0.33.67-.67,1.33-1,2-14.14.06-67.14-.19-75-6l35-35Zm-375-21q7,0.495,14,1,20,21,40,42v15c-18.74,13.07-31.92,34.08-62,35q-20.5-22.5-41-45,1-6,2-12Q958.5,1450,982,1432Zm-583,4c1.333,0.67,2.667,1.33,4,2q0.5,19.995,1,40,27,24,54,48c-0.581-10.74-1.08-34.96,4-37,0.667-1.33,1.333-2.67,2-4,0.667,0.67,1.333,1.33,2,2q25,21.495,50,43c-0.318-9.85-2.523-29.91,2-36,3.127,1.46,3.548,1.86,6,2,0.667-1.33,1.333-2.67,2-4q23.5,21.495,47,43,2.5-19.5,5-39h1c19.235,9.05,43.959,41.44,51,59v39c-22.2-5.89-29.615-35.87-51-43-0.333.33-.667,0.67-1,1,0.33,11.4,1.43,34.73-4,42q-26-24.495-52-49c-0.667.33-1.333,0.67-2,1q-1.5,21.495-3,43c-1-.33-2-0.67-3-1q-25-24-50-48h-1q-0.5,10.995-1,22c-8.8-2.88-56.476-52.06-62-61q-1-10.5-2-21-14-18-28-36h2Q385.5,1440,399,1436Zm889,8c12.16,1.85,57.01.28,62,7,0.33,1.33.67,2.67,1,4q-16.005,15.495-32,31v1l69,6c-4.38,13.74-21.64,23.16-30,34l146,9c-0.33-1-.67-2-1-3-8.5-6.75-23.13-23.62-26-35q33.495-1.005,67-2v-1c-7.45-7.01-19.08-22.6-21-34h7c3-.33,6-0.67,9-1q11.505,27.495,23,55c-2.67-1.33-5.33-2.67-8-4-0.67.33-1.33,0.67-2,1-0.4,10.2-10.26,63.18-15,66q-13.005-15-26-30h-1q-7.005,34.5-14,69-4.5-4.005-9-8-28.995-33.99-58-68c-26.03,8.78-65.01,51.44-90,68h-1q3.495-36.99,7-74-20.505,16.995-41,34c-0.67-.33-1.33-0.67-2-1q3-36.495,6-73-19.995,16.005-40,32c-0.67-.33-1.33-0.67-2-1v-1C1271.2,1496.24,1273.12,1462.78,1288,1444Zm481,11q48.495,6.495,97,13v1l-49,49h2q21,4.005,42,8l-49,49q22.995,3.495,46,7l-50,53c11.07,0,34.75.41,42,6v1c-11.1,3.55-43.49,38.93-51,49h2l41,6c-2.7,8.57-58.79,55.23-62,54q-21.495-29.49-43-59h2q19.995-1.005,40-2-16.005-26.49-32-53l1-1q21-.495,42-1c-0.33-1-.67-2-1-3q-18-27.495-36-55c0.33-.67.67-1.33,1-2q19.5,0.495,39,1v-1l-2-2q-15.495-27-31-54l1-1q19.005,0.495,38,1c-0.33-1-.67-2-1-3-5.74-5.43-32.75-47.6-32-53C1767,1460.33,1768,1457.67,1769,1455Zm-115,2h7q19.005,24.495,38,49c0.76-11.68,3.02-38.09,10-45,9.33,7.12,42.69,45.4,45,57h-38c-3,.33-6,0.67-9,1,11.68,18.52,27.74,40.3,40,56-0.33.67-.67,1.33-1,2-59.06-3.14-69.35-22.75-94-59q1.5-5.505,3-11-4.5-4.995-9-10,1.995-19.5,4-39C1651.33,1457.67,1652.67,1457.33,1654,1457Zm260,21h4v14q-1.005,16.005-2,32,24.495-22.5,49-45c1,0.67,2,1.33,3,2q-1.005,24-2,48-28.995,27.99-58,56l-44-6v-3q19.995-20.505,40-41v-1l-36-9Q1891,1501.5,1914,1478Zm97,7c12.46,5.22,2.22,28.68,6,40l4-4q19.995-16.5,40-33c1,0.67,2,1.33,3,2v43q23.505-18.495,47-37,0.495,18.495,1,37c13.31-9.27,27.51-27.69,44-32q1.005,18,2,36c13.17-9.62,27.84-31.52,45-35v48h1q12-11.505,24-23,8.505-9,17-18c1.33,0.33,2.67.67,4,1q1.005,19.995,2,40l15-15c11.46-5.6,16.24-19.81,29-24v2q1.005,12.495,2,25c-15.33,11.92-35.23,45.2-53,51-0.67-1-1.33-2-2-3v-22c-14.75,11.3-28.89,37.07-47,43v-2q1.005-22.995,2-46-23.505,22.5-47,45c-0.67-.33-1.33-0.67-2-1l3-51q-22.995,22.005-46,44c-1-.33-2-0.67-3-1q1.005-22.005,2-44l-47,41h-1q0.495-22.995,1-46c-15.27,11.63-30.26,36.86-49,43v-2q1.005-22.995,2-46l-48,42h-1C1960.24,1524.43,1986.96,1516.11,2011,1485ZM637,1498q25.5,24.495,51,49,3.5-21,7-42h1q24,22.5,48,45,4-18,8-36c20.585,15.13,68.375,57.77,50,99q-25.5-24.495-51-49h-1q-3.5,22.5-7,45-14-13.5-28-27-10-10.995-20-22c-0.667.33-1.333,0.67-2,1q-3.5,19.995-7,40-27.5-27-55-54c-1-2.33-2-4.67-3-7Zm-247,4h0Zm421,20q22.5,19.995,45,40,4-18,8-36h1q23.5,23.505,47,47v3H900q-17-1.005-34-2,22.5,24.495,45,49l-2,3q-24-1.005-48-2-28-28.995-56-58Q808,1544,811,1522Zm117,6c17.468-.05,94.31,3.85,104,11v1c-8.07,3.61-45.573,34.99-47,40q20,4.005,40,8c-0.33,1.67-.67,3.33-1,5q-24,18.495-48,37c0.333,0.67.667,1.33,1,2l43,6v4q-23,18.495-46,37h2q21.5,3.495,43,7c-0.33,1.33-.67,2.67-1,4q-24.5,19.005-49,38c11.694,0.19,37.11.98,45,7-0.33.67-.67,1.33-1,2q-27.5,18.495-55,37c-9.906-7.37-44.468-40.06-48-51q22,1.005,44,2c-1.667-1.67-3.333-3.33-5-5q-19-22.005-38-44v-1q24,1.005,48,2c-1.667-1.67-3.333-3.33-5-5q-18.5-22.005-37-44c0.333-.33.667-0.67,1-1q22,1.005,44,2v-1c-1.667-1.67-3.333-3.33-5-5q-19-23.505-38-47v-1c0.333-.33.667-0.67,1-1q24,1.995,48,4l-3-3C957.063,1558.56,930.793,1544.6,928,1528Zm330,4c4.35,1.12,6.98,2.46,9,6q-3.495,30.99-7,62c12.72-7.17,24.51-22.16,40-25v8c-3.85,16.02,1.37,53.28-9,64l-2-2q-16.005-15-32-30c-2.26,19.75-2.7,53.79-12,69-2-1.67-4-3.33-6-5q-12-14.505-24-29c-8.49-18.32.67-51.62,4-75q4.995-2.505,10-5C1228.84,1547.02,1247.8,1544.66,1258,1532Zm-170,11c2.33,0.67,4.67,1.33,7,2q0.495,19.5,1,39l2-2q19.995-13.5,40-27h1c0.33,2.33.67,4.67,1,7h9q-1.995,17.505-4,35-30,22.995-60,46-29.49-1.995-59-4v-3q27.99-22.005,56-44-25.5-1.995-51-4v-3Zm504,15q10.995,13.005,22,26c0.13,12.64-5.76,72.48-11,78q-22.005,18.495-44,37v-2q4.005-34.995,8-70c-12.93,9.08-25.13,27.36-41,32-0.33-.67-0.67-1.33-1-2q6-35.49,12-71c2.67-.33,5.33-0.67,8-1l26,26v-2l9-48,1-1c2.33,1.33,4.67,2.67,7,4C1589.33,1562,1590.67,1560,1592,1558Zm-199,16c22.69-.48,53.05-0.85,66,9,1,1.67,2,3.33,3,5q-3.495,27-7,54c-2.03,5.35-7.81,6.64-10,13-18.71.31-50.4,2.76-65-4l-6-9C1375.91,1617.1,1380.91,1589,1393,1574Zm526,10q18,1.995,36,4l-27,27q-10.995,12-22,24v1q22.5,3.495,45,7-20.505,21-41,42-4.005,3-8,6c0.33,0.67.67,1.33,1,2,10.76,0.18,33.14,2.3,40,8v1c-24.78,12.03-35.56,43.25-61,56q-20.505-4.005-41-8c5.16-15.97,36.94-37.59,48-52q-21-3.495-42-7v-1l45-48q-18-4.005-36-8,22.5-22.995,45-46C1909.32,1588.64,1912.59,1591.02,1919,1584ZM520,1594c19.054,5.68,35.608,30.42,51,42q1-16.5,2-33c2.333-.33,4.667-0.67,7-1,25.976,33.66,46.556,27.89,46,89q-24-19.995-48-40h-1q-1,13.005-2,26c-15.026-5.29-45.79-45.2-58-58v-23C518,1595.33,519,1594.67,520,1594Zm1485,2c5.03,5.53,3.18,33.03,3,42q22.005-19.5,44-39h1q-0.495,25.995-1,52-28.5,27.495-57,55l-44-3v-3c11.81-15.49,37.77-31.02,44-50l-38-3c-0.33-.67-0.67-1.33-1-2Zm-1375,5q24,21,48,42c-3.209,12.27,3.688,14.05,6,21q-0.5,16.005-1,32c2,1.67,4,3.33,6,5,37.563,0.49,89.948,32.68,98,59h-9q-23.5-2.505-47-5-51.5-53.49-103-107Q629,1624.5,630,1601Zm1469,2h3q-2.505,27.99-5,56-53.49,51.495-107,103c-11.59.31-39.27,2.68-47-3q21-23.505,42-47h1c11.62,3.3,13.52-3.44,20-6,11.31-4.46,24.85,3.28,34-1,4.27-11.37,1.98-31.41,8-44l12-9v-11Q2079.5,1622,2099,1603Zm-1412,6h3q25,22.005,50,44,1.5-19.005,3-38c0.667-.33,1.333-0.67,2-1q24.5,24.99,49,50v1q-21,.495-42,1,19.5,22.005,39,44v1q-26-.495-52-1-27.5-28.5-55-57Q685.5,1631,687,1609Zm1458,0c5.87,4.51,1.39,32.77,1,44q22.005-19.995,44-40c1,0.67,2,1.33,3,2q0.495,14.505,1,29-27.495,25.5-55,51v-27l-45,42c-0.67-.33-1.33-0.67-2-1C2092.71,1648.52,2119.67,1641.84,2145,1609Zm-526,4c6.99,2.93,9.24,10.04,15,13l58,12c5.34,2.77,35.71,46.55,38,54q-22.5.495-45,1,21.495,30,43,60v1c-18.47.31-46.4,1.45-56-5-10.75-23.23-41.16-38.6-48-64q24,0.495,48,1l-2-2c-10.06-22.97-33.27-45.43-56-57Q1616.505,1620,1619,1613Zm-276,1c11.11,4.01,54.77,64.27,62,77-0.33.67-.67,1.33-1,2h-68l3,3q11.505,16.5,23,33h-70c7.91,12.28,22.73,23.32,27,38h-1q-35.49.495-71,1,13.005,16.995,26,34v1q-36.495-1.005-73-2c7.69,11.93,21.84,22.68,26,37-13.62.31-73.13-.67-79-6h-2q4.995-36.495,10-73h1q16.005,13.995,32,28v-2q7.5-28.995,15-58l31,28v-2q7.005-31.995,14-64v-1c12.48,4.03,20.36,21.13,30,29v-2q7.995-30.99,16-62c11.42,3.68,18.86,18.95,28,26h1q7.005-30.99,14-62Zm-536,5c51.572-.8,76.782,22.38,98,51-1,1.67-2,3.33-3,5H865c1.333,1.33,2.667,2.67,4,4q16.5,19.995,33,40l-2,3H857q18.5,23.505,37,47-18.5.495-37,1c9.3,13.35,27.663,27.39,32,44q-18,1.005-36,2c9.722,13.05,31.519,27.79,35,45H839l42,42c-0.333,1.33-.667,2.67-1,4q-20,.495-40,1,0.5,1.5,1,3c11.258,8.35,33.565,28.05,38,42h-2q-12.5,1.005-25,2c-11.95-15.58-45.148-35.09-51-53h2c4.175-3.17,15.649-2.29,23-2q-8.5-8.505-17-17c-5.906-12.06-21.658-16.84-26-30h2q23,1.005,46,2-22-22.005-44-44-0.5-1.5-1-3c0.333-.67.667-1.33,1-2l51,3q-22-22.995-44-46,0.5-1.5,1-3,22,0.495,44,1c-1.667-1.67-3.333-3.33-5-5q-18-20.505-36-41v-1q23,0.495,46,1l-9-9q-17-19.005-34-38,0.5-1.5,1-3l47,3c-0.667-.67-1.333-1.33-2-2Q827,1642.5,807,1619Zm319,1c1.33,0.67,2.67,1.33,4,2,0.22,48.93,38.15,40.78,27,99-2.13,11.1-.69,24.18-6,32l-2-2-31-28q-5.505,36-11,72v1c-1.33-.33-2.67-0.67-4-1q-16.5-18.495-33-37,4.5-41.49,9-83h4q16.005,16.995,32,34,4.005-31.5,8-63c0.93-9.88-7.85-12.9-7-21Q1120.995,1622.5,1126,1620Zm365,4h3l-6,63q18-11.505,36-23c1.42,2.37,1.65,2.64,2,7q-3,28.995-6,58l3-3,32-23c1,0.67,2,1.33,3,2q-3.495,30-7,60,18.495-13.5,37-27c0.67,0.33,1.33.67,2,1q-4.005,31.5-8,63,18.495-13.5,37-27c0.67,0.33,1.33.67,2,1v1q-6.495,33-13,66-34.5-.495-69-1c4.54-12.96,22.87-20.52,31-31q-32.49-1.995-65-4v-1q17.505-16.5,35-33-31.995-1.995-64-4v-1q16.005-15.495,32-31-33.99-3.495-68-7v-1l35-32q-30.99-2.505-62-5C1419.4,1674.28,1476.49,1642.49,1491,1624Zm135,18c6.8,2.04,11.85,9.33,15,15q-1.5,10.995-3,22-12.495,1.995-25,4l15,21q-17.505,15-35,30h-1c0.22-18.74,2.61-49.21,10-64,11.17-4.04,4.14-7.33,9-15Q1618.5,1648.505,1626,1642Zm-555,48q-23.505-1.995-47-4v-1l3-3,46-34c15.18,1.42,23.64-6.98,42-2v1q-0.495,9-1,18-9.495,7.005-19,14-10.5-7.005-21-14Q1072.5,1677.5,1071,1690Zm-5,7h3q-2.505,20.505-5,41-22.005-1.995-44-4C1025.9,1718.71,1054.18,1707.79,1066,1697Zm-441,1q25.5,24,51,48l-2,3c-32.8.66-31.589-7.41-49-21v-30Zm1006,12c8.57,5.37,23.34,22.41,26,33q-16.995,13.5-34,27h-1Zm457,4c18.78,18.88-12.11,43.64-18,51h-30v-1l18-18Q2073,1730,2088,1714Zm-721,19c13.47-.25,60.7-3.27,68,2q-16.5,16.005-33,32l66,3v1l-34,34c-10.7,5.57-79.63-.69-86-5q-10.995-16.5-22-33,29.49-.495,59-1v-1Q1376,1749,1367,1733Zm-311,14h3q-8.505,19.005-17,38c-9.15.3-23.06,1.39-29-2,1.33-1.67,2.67-3.33,4-5Q1036.5,1762.505,1056,1747Zm-375,3q19.5,1.005,39,2,4,5.505,8,11h13q20,19.5,40,39c-0.333,1.33-.667,2.67-1,4q-21.5-1.005-43-2,20,22.005,40,44l-2,3q-14.5.495-29,1-25.5-27-51-54v-1h27q-4-4.005-8-8C707.113,1774.84,684.049,1763.47,681,1750Zm978,2c7.63,5.2,14.17,28.72,16,39q-10.995,10.005-22,20c-0.33-.67-0.67-1.33-1-2Q1655.5,1780.5,1659,1752Zm76,1c2.04,1.8.71,0.02,2,3h96v2c0.33,1,.67,2,1,3l-49,49,48,3-7,7-45,48q24,1.005,48,2c-0.33,1-.67,2-1,3q-26.49,27.495-53,55v1c14.05-.35,38.06-2.84,47,3l-14,14-39,42h-11q-11.505-30-23-60,11.505,0.495,23,1l-3-3q-19.995-27.495-40-55v-1h48v-1c-15.44-28.07-32.3-55.18-73-59q-9.495-24.99-19-50l2-2c25.49,9.32,30.39,37.89,51,50q22.5,0.495,45,1c-0.33-1-.67-2-1-3q-17.505-22.5-35-45C1733.67,1758.33,1734.33,1755.67,1735,1753Zm-674,7h2c15.19,15.59-4.42,50.88,2,73l30,30c0.67-.33,1.33-0.67,2-1q3.495-28.5,7-57c2.33-1.33,4.67-2.67,7-4h1c3.19,14.25,54.19,55.59,66,71-1.26,3.02.02,1.2-2,3q-34.5.495-69,1,15.495,17.505,31,35c-0.33.67-.67,1.33-1,2q-36.99.495-74,1,16.005,18,32,36-39.99,1.005-80,2l32,35c-0.33.67-.67,1.33-1,2q-38,1.005-76,2-4-3.495-8-7c0.877-10.78,19.558-53.15,26-59l15,15h1q5-35.49,10-71c1,0.33,2,.67,3,1l32,32h1q4.5-31.995,9-64-9.495-14.505-19-29Q1050.5,1784.505,1061,1760Zm836,0h39c-5.89,22.26-35.85,29.66-43,51l1,1c11.45-.33,34.73-1.44,42,4l-49,52c0.33,0.67.67,1.33,1,2l43,3c-0.33,1-.67,2-1,3q-24,24.99-48,50v1q10.995,0.495,22,1c-2.77,8.43-52.45,57.01-61,62q-10.5,1.005-21,2-17.505,13.995-35,28h-1q-4.005-16.005-8-32h2q19.995-1.005,40-2l48-54q-18.495-.495-37-1c-1.45-3.33-1.97-2.71-4-5q22.005-25.995,44-52c-9.65.32-29.06,2.42-35-2l3-6c-1.67-.67-3.33-1.33-5-2q21.495-23.505,43-47-19.5-2.505-39-5v-3q19.5-20.505,39-41C1886.22,1771.66,1892.22,1766.22,1897,1760Zm103,4h33q-19.995,24-40,48v1l27,3c-1.33,1.67-2.67,3.33-4,5l-55,52c-6.89.36-19.42,1.41-23-2-0.67-1.33-1.33-2.67-2-4l42-48q-16.5-1.005-33-2c-0.33-1.67-.67-3.33-1-5q21-22.005,42-44c3,0.67,6,1.33,9,2C1996.67,1768,1998.33,1766,2000,1764Zm-1097,8c17.443,0.23,93.868,3.71,103,11q-22,17.505-44,35c0.333,0.67.667,1.33,1,2q23.5,1.995,47,4,10-7.5,20-15c0.67,0.33,1.33.67,2,1q6.495,10.995,13,22h-5c-28.54-8.18-67.767,20.65-81,35l42,6c-0.33.67-.67,1.33-1,2q-25,18.495-50,37,17.5,2.505,35,5c-4.967,22.67-29.373,26.89-43,41h2q9,2.505,18,5c-1.69,15.74-11.1,30.81-19,41v1c7.685-.38,13.161-0.06,17,3q-9.5,19.005-19,38h-1q-21-22.995-42-46c1-.33,2-0.67,3-1q13.5,1.005,27,2-21-21.495-42-43c0.333-.67.667-1.33,1-2l43,3c-1.333-1.33-2.667-2.67-4-4q-19.5-22.5-39-45v-1c0.333-.33.667-0.67,1-1q23,0.495,46,1c-1.333-1.33-2.667-2.67-4-4q-17-19.995-34-40c0.333-.67.667-1.33,1-2q21.5,0.495,43,1v-1q-5-4.995-10-10-15-17.505-30-35v-1q21.5,0.495,43,1v-1q-8-7.995-16-16C921.7,1790.23,905.072,1782.21,903,1772Zm376,32c49.26-.93,93.72.05,105,36h-1q-34.995.495-70,1c4.68,8.04,27.48,31.58,24,38h-67l2,2q10.5,15.495,21,31c-0.33.67-.67,1.33-1,2-26.64-6.7-61.61,4.88-84-4q-10.995-18-22-36h71l-2-2q-11.505-16.5-23-33v-1q33-1.005,66-2c-0.33-1-.67-2-1-3C1290.97,1827.6,1278.45,1811.66,1279,1804Zm309,242c1.42-10.35,10.68-14.25,16-21q-31.995-1.005-64-2v-1q17.505-16.5,35-33-32.49-.495-65-1v-3q18.495-16.5,37-33c-15.21.35-55.39,5.25-64-3l32-32-63-3v-1l8-8q12.495-11.505,25-23v-1q-31.995-1.005-64-2c4.69-14.52,24.88-22.8,34-34v-1c-11.47.37-59.71-.88-63-6q14.505-13.5,29-27c21.43,5.46,53.32-13.58,77-3v5q-13.005,12.495-26,25v1q28.995,2.505,58,5v1l-30,33q29.49,2.505,59,5c-3.69,11.63-17.95,18.87-25,28v1q26.49,3.495,53,7l-2,2q-10.995,13.005-22,26,27.99,2.505,56,5v4l-33,33q29.49-.495,59-1v2c0.33,1,.67,2,1,3q-13.5,14.505-27,29,29.49,1.005,59,2v1l-18,21h-72Zm57-231c1.33,0.67,2.67,1.33,4,2q-3.495,27.495-7,55h1l4-4q16.5-13.005,33-26,1.995-13.005,4-26,13.005,2.505,26,5v1l-24,21q-6,32.49-12,65,16.5-13.005,33-26l2,2q-4.995,30.99-10,62h1q13.995-10.5,28-21c11.03,12.3,2,42.17-2,59h1c6.05-3.75,10.89-8.49,19-10,3.19,11.03,8.87,29.81,14,42l3-3q4.5-3.495,9-7c1,0.33,2,.67,3,1q7.005,19.5,14,39h-63c3.07-9.47,14.75-14.29,21-21l-1-1h-59c4.42-13.57,23.49-20.55,32-31q-32.49-1.995-65-4c-0.33-.67-0.67-1.33-1-2l16-16q9-7.995,18-16-29.49-1.995-59-4c4.37-13.65,21.75-21.31,30-32v-1l-61-3v-1l14-14q9-7.995,18-16-30.495-1.005-61-2v-3Q1606.49,1847.005,1645,1815Zm-301,65q34.995,1.005,70,2l-17,17q-5.505,6.495-11,13,29.49,1.995,59,4-6,6.495-12,13-12.495,11.505-25,23-39.99-.495-80-1c-3.63-1.62-26.64-30.16-28-35l68-3v-1l-6-6q-9.495-12-19-24C1343.33,1881.33,1343.67,1880.67,1344,1880Zm-156,31c22.64-.2,51.1,22.64,60,37v1l-65,3v1l27,33v1l-73,3q13.995,16.5,28,33c-0.33.67-.67,1.33-1,2q-35.49,1.005-71,2l2,2q6,7.005,12,14c-0.33.67-.67,1.33-1,2q-43.5-.495-87-1-7-6.495-14-13l-46-6q8.5-13.995,17-28l6,6q13,10.995,26,22,34.995-1.995,70-4l-4-4c-6.56-13.3-18.79-15.14-20-30q33.99-1.995,68-4v-1c-8.22-6.07-19.53-16.48-24-26,6.62-1.77,5.24-2.7,6-8q30.99-.495,62-1v-1q-11.505-15-23-30c0.33-1,.67-2,1-3Q1166.005,1912,1188,1911Zm121,37h8c6.12,10.41,7.93,5.74,20,11q10.995,11.505,22,23c16.68-5.31,24.19-19.91,38-25q7.5,1.005,15,2l8-8q28.5,1.005,57,2c-0.33,1-.67,2-1,3q-21,16.995-42,34-20.505-.495-41-1c-63.3-.02-118.58,8.61-139-37h2Q1282.49,1950.005,1309,1948Zm-61,40h31c3.82,10.45,28.19,18.15,35,32h-2q-30,2.505-60,5l4,4,13,16c-0.33.67-.67,1.33-1,2-23.93-1.87-65.05,5.1-85-4-3.54-7.06-10.29-8.13-12-17,0.67-1,1.33-2,2-3q31.5-1.995,63-4c-0.33-1-.67-2-1-3l-20-20c1.33-2.33,2.67-4.67,4-7Q1233.505,1988.505,1248,1988Zm254,0c1,0.33,2,.67,3,1q-3,4.005-6,8l-27,24,61,3v1c-7.08,15.81-18.16,22.83-43,22q-25.5-.495-51-1,9-10.005,18-20-30.99-1.995-62-4Q1409,2009,1423,1996q7.995,0.495,16,1,3-4.005,6-8Q1473.5,1988.505,1502,1988Zm342,10,2,2Zm-524,25h69q-9.495,11.505-19,23-16.005-.495-32-1-9.495-10.005-19-20C1319.33,2024.33,1319.67,2023.67,1320,2023Z"/>
</svg>
