<?xml version="1.0" encoding="UTF-8"?>
<svg id="Untitled_219_xA0_Image" xmlns="http://www.w3.org/2000/svg" version="1.1" viewBox="0 0 2048 2732">
  <!-- Generator: Adobe Illustrator 30.2.1, SVG Export Plug-In . SVG Version: 2.1.1 Build 1)  -->
  <defs>
    <style>
      .st0 {
        fill: #99b55f;
      }
    </style>
  </defs>
  <path class="st0" d="M576,2732h-6c-20.4-25.97-40.12-61.6-29.5-95.52,19.9-6.27,35.2,4.3,50.55-14.44,5.17-6.31,6.11-15.73,14.03-18.1,2.13-.21,31.51,14.11,35.58,16.41,10.51,5.96,17.49,14.45,19.18,26.82,1.14,8.39,1.9,38.79-3.89,43.76-8.1,6.95-17.38.84-24.93,1.07-9.68.3-22.48,2.69-32.53,3.47l-22.47,36.53Z"/>
  <path class="st0" d="M724.02,2133.99c4.41-.99,3.89-9.43,4.07-12.9,1.13-21.65-.9-41.85-4.07-63.09,13.92,10.63,23.05,25.77,25.74,43.24,4.33,28.12,5.49,56.94,10.83,85.17,12.12,64.04,38.24,123.88,67.44,181.57,2.73.51,1.99-.77,2.05-3.02.47-17-5.72-49.36-8.36-67.67-2.36-16.32-8.59-32.87-6.72-49.28,29.54,60.29,67.21,116.12,93.95,178.05,37.12,85.98,59.49,178.11,71.13,271.02-.33,15.76-9.97,22.29-24.86,22.71-21.41.59-46.21-3.54-68.21-3.96-6.07-.12-12.68,4.78-18.2.36-5.03-4.03-2.09-18.03-3.05-24.94-1.14-8.27-20.04-85.41-24.76-85.26-.82,28.24,22.76,80.81,3.03,105.04-3.92,4.82-6.77,6.38-12.68,3.11l-62.36-122.15c-4.92.18,14.5,89.46,14.96,97.04.75,12.38-.11,23.24-11.36,30.75-8.35,2.14-10.9-13.65-12.08-19.29-6.86-32.76-18.7-69.02-31.97-100.03-1.05-2.47-1.07-5.9-4.53-6.45l15.85,116.84c.33,11.32-18.23,10.79-25.99,8.28-12.97-4.2-10.62-40.61-11.9-52.1-20.2-181.9-47.41-359.08-62-542-1.22-15.31-6.43-37.96-6.1-52.1.07-3.11,1.74-7.89,5.06-8.24,15.38-1.63,39.43,43.99,43.02,41.33,3.09-21.53,4.62-43.3,6.02-65.03.19-2.98-1.51-5.78,2.98-4.94,18.9,29.51,26.09,64.06,33.05,97.97Z"/>
  <path class="st0" d="M1214.01,2089.99c30.18-7.04,35.56-37.66,48.4-60.58,5.04-9,30.64-51.6,36.81-55.17,6.98-4.05,11.59-2.62,17.48,2.07,3.44,2.74,24.28,27.55,25.27,30.73,1.58,5.07-9.14-.26-15.46,2.47-22.08,9.56-12.82,46.06-14.55,65.45-2.33,26.16-26.99,85.96-40.37,109.63-26.14,46.22-67.04,61.21-89.94,112.06-13.79,30.62-30.39,68.4-42.62,99.38-14.2,35.97-19.4,108.34,9.99,137.94,7.83,7.88,21.57,12.72,30.8,19.2,38.61,27.15,65.65,97.77,68.27,143.74,2.38,41.94-11.25,24.72-37.65,17.65-22.33-5.98-73.86-11.97-90.29-23.71-16.13-11.52-9.38-45.06-10.06-63.94-1.15-31.88,1.75-68.3-.12-97.89-2.05-32.52-24.4-84.33-16.07-114.14,4.07-14.57,18.54-28.49,24.46-43.54,14.48-36.81-1.62-61.58-4.1-96.62-2.68-37.92,15.7-39.29,32.58-66.9,19.13-31.28,14.47-60.46,22.06-93.94,8.95-39.47,29.23-80.2,36.51-119.49,8.52-45.97,16.76-101.18,22.33-147.67.49-4.05-1.54-22.25,4.25-19.78,20.95,21.08,46.5,37.77,68.04,58.01,11.7,11,21.57,16.8,10.84,32.9-27.46,41.23-56.79,77.01-71.15,126.85l-25.71,45.27Z"/>
  <path class="st0" d="M128.71,1825.29c15.46,13.49,17.66-4.6,24.29-15.25,5.14-.06,8.53,29.13,10.44,35.52,2.1,7,15.47,47.1,17.58,50.42.52.82,2.19,2.61,2.95,2.02,1.73-6.17,5.02-17.28,9.05-21.97,2.62-3.05,3.04-1.6,4.61,1.35,6.04,31.75,17.82,65.46,20.33,97.66,1.98,25.34-5.72,53.47-5.95,78.97,14.56-19.4,14.14-34.9,29.7-4.72,28.98,56.25,26.31,120.11,30.3,181.7.85,13.15,1.75,39.24,5.3,50.7.95,3.05,2.27,7.21,6.65,6.31,9.55-14.4,9.97-39.12,16.39-52.63,1.29-2.71,2.39-4.54,4.67-1.39l19.37,135.6,5.56,2.44c2.66-3.46,11.04-36.22,14.01-34,2.03,26.49,9.73,52.36,12.01,79.01,1.43,16.78-.85,34.18,2.03,50.98,7.09,7.66,14.47-23.16,15.09-25.89,1.1-4.81-1.49-15.64,4.89-14.1-.83,11.61-3.49,25.58-3.59,36.99-.14,15.91,2.53,33.07,1.58,49.98-1.4,24.82-8.85,51.68-9.95,76.03-.34,7.52-1.98,16.25,4.97,20.95l24.98-55.96c4.89,22.93-8.01,46.28-9.95,69.03-1,11.76-4.13,43.56,12.78,42.88,20.15-.81,23.81-25.38,33.53-36.58,1.78-2.05,1.92-4.21,5.65-3.33.48,25.15-7.91,49.5-10.52,74.46-11.96,19.03-32.88,2.55-51.95,8.07-12.85,3.72-21.93,19.29-37.48,12.41-5.82-2.58-10.18-23.61-10.2-29.96-.15-64.2-5.13-129.58-16.43-193.41-3.83-21.67-14.71-49.13-25.81-68.19-5.35-9.18-15.81-19.13-19.07-28.93-6.23-18.72,2.99-49.69-.55-70.45-3.58-.61-7.61,21.04-11.97,16-4.7-27.24-.24-55.5-2.03-82.99-2.34-35.92-11.09-91.72-18.91-127.09-1.44-6.52-5.97-26.37-9.23-30.77-3.51-4.74-9.48-2.64-13.31-5.72-4.99-4.01-21.21-36.25-24.89-44.09-16.05-34.21-34.32-79.66-46.56-115.44-5.16-15.08-7.23-32.85-13.03-46.97-4.89-11.91-17.71-27.36-20.68-39.32-3.18-12.81-.52-27.17-1.63-40.37-1.21-14.42-5.69-28.5-9.68-42.29l4-2.09c19.11,10.64,15.31,41.02,30.65,54.41Z"/>
  <path class="st0" d="M1609.79,1958.2c8.13,17.68,16.36,35.24,23.7,53.31,83.01,204.33,149.15,410.12,209.93,622.07,6.25,21.81,22.82,54.58,18.57,77.43-2.18,11.75-31.06-.61-39.51-2.5-11.17-2.5-12.97,3.29-22.44-7.56-14.84-17.01-36.16-103.45-43.49-130.51-21.07-77.78-36.38-154.89-62.53-231.47-27.17-79.55-63.24-174.18-97.07-250.93-6.61-15.01-16.21-34.56-28.84-44.15l-.08-2.81c18.09-17.5,28.17-40.34,33.41-64.61,1.14-5.29.09-23.54,8.33-18.26Z"/>
  <path class="st0" d="M631.41,1472.62c5.46,4.8,12.78,24.05,17.72,31.25,18.29,26.63,31.87,36.07,47.25,68.75,30.52,64.84,63.59,130.75,110.44,185.56l17.16,27.82c-19.53,1.8-46.04-8.59-61.99,7.01-4.3,4.21-12.12,21.44-14.36,27.64-10.88,30.06-2.91,65.01-14.18,97.82-7.57,22.03-60.46,84.49-79.43,100.57-15.25,12.93-33.44,24.36-54.01,24.96,1.02-8.45,3.19-18.23,3.24-26.65.26-46.3-41.2-102.6-59.59-145.99-14.28-33.68-23.14-69.4-36.68-103.32-21.52-53.88-48.5-106.5-69.35-160.65-2.44-6.33-2.81-13.17-5.62-19.36l12.01,10.98c17.6,34.27,45.95,56.28,65.6,90.4,28.12,48.84,35.54,96.84,55.43,146.57,15.47,38.67,38.63,75.21,50.49,115.51l10.45,58.51c1.91-7.75,10.21-12.03,15.05-17.96,20.49-25.14,35.28-55.9,42.38-87.62,10.31-46.05,5.16-72.05,35.73-112.27,9.9-13.02,33.8-30.79,33-49.1-.54-12.24-18.59-28.07-25.76-38.4-37.49-53.98-59.23-119.65-84.01-179.99-2.63-6.4-7.15-15.34-10.69-21.31-5.09-8.6-18.8-16.58-11.79-28.44,2.72-4.61,7.32-5.97,11.53-2.27Z"/>
  <path class="st0" d="M847.36,1798.66c6.87,6.14,13.75,17.81,21.58,25.39,36.28,35.13,73.98,62.54,90.08,113.92,6.7,21.38,8.14,52.3,22.98,69.02,5.91,6.67,14.46,9.92,21,15,4.6,3.58,8.32,9.61,13.13,12.87,14.82,10.08,26.47,3.44,29.7,28.3,2.88,22.17-.69,43.06,5.1,66.9,6.38,26.24,23.19,49.72,32.02,73.98,9.97,27.4,16.47,89.68,15.01,118.93-.37,7.48-5.07,35.95-7.59,42.26-1.36,3.39-2.85,2.87-5.4,4.75-2.86-7.71-10.36-9.19-15.93-14.04-51.47-44.84-69.58-92.13-96.7-151.3-36.27-79.14-86.8-151.72-132.74-225.26-8.01-12.83-32.87-40.92-33.31-54.42-.06-1.85,1.08-6.6,3.04-7.08,11.84,2.61,29.37-.08,39.39,6.38,7.14,4.6,15.93,28.13,20.92,37.08,31.57,56.56,71.94,109.64,102.68,165.32,24.17,43.77,42.67,91.43,66.62,135.38,5.85,10.73,11.93,24.01,21.02,31.96-.53-16.8,2.98-34.36,2.1-51.09-2.32-43.83-20.83-130.39-51.06-162.93-10.33-11.12-32.74-22.51-39.94-34.06-4.33-6.94-4.53-16.67-7.52-24.48-11.25-29.37-39.45-49.48-53.93-78.07-9.11-18-10.55-35.9-17.91-54.09-9.55-23.59-28.04-44.03-40.1-65.9-2.87-5.2-10.09-19.45-11.59-24.42-1.73-5.74,5.79-1.68,7.34-.3Z"/>
  <path class="st0" d="M1799.98,1982c6.7,20.25,17.51,39.47,25.56,59.47,32.54,80.89,66.8,170.98,94.5,253.5,25.44,75.79,33.69,155.45,70.92,227.08,10.74,20.67,37.2,54.05,36.82,76.75-.12,7.03-4.24,16.48-6.85,23.14-5.83,14.87-24.58,57.63-32.55,69.45-7.02,10.43-14.88,13.13-25.43,4.66-15.19-12.19-15.92-63.18-19.28-82.71-23.11-134.45-79.38-266.82-95.65-402.35-3.91-32.59-3.68-64.5-11-97-9.62-42.73-36.05-85.06-40.91-129.13-.44-3.96.42-2.92,3.87-2.85Z"/>
  <path class="st0" d="M1757.99,2655.99c-5.71,5.47-21.86-23.72-25.16-27.82-2.97-3.69-6.51-6.83-9.86-10.15-4.31-.85-3.07,2.03-3.06,5.05.03,15.87,20.28,42.47,25.75,58.28l30.33,42.65c-12.61-1.51-24.74-5.69-37.26-7.72-11.32-1.84-31.11-.47-39.73-6.27-14.55-9.78-4.62-29.75-6.98-44,8.25,2.45,12.52,12.85,20.97,14.03,2.76.39,3.86-.03,2.98-2.99-2.88-9.74-15.4-23.59-20.32-33.69-3.4-7-6.28-15.87-8.64-23.36-46.41-147.18-71.39-304.84-118.48-451.52-3.46-10.78-7.27-23.78-12.18-33.82-5.96-12.17-25.6-32.79-28.32-41.69-1.56-5.11,4.93-2.66,7.44-1.43,4.81,2.36,25.81,26.88,30.52,22.46-.22-14.11-25.43-37.02-19.03-49.98,13.42-14.62,25.47,4.9,31.41,16.62,14.21,28.07,24.15,66.43,33.06,96.94,23.07,79.01,41.7,159.26,66.04,237.96,24.99,80.82,55.88,159.66,80.52,240.46Z"/>
  <path class="st0" d="M1487.98,1811.99c-4.59,3.46-9.76-19.11-11.63-23.34-14-31.52-37.37-50.13-60.33-74.65,18.23,60.06,71.53,111.88,76.07,176.91,2.32,33.17-7.17,99.78-35.09,121.09-19.75,15.07-47.87,16.2-70.36,25.64-37.17,15.61-44.61,42.67-52.94,79.24-2.49,10.91-.51,28.62-9.68,37.12,1.46-32.63-4.87-95.54,21.91-119.07,8.48-7.46,21.85-11.53,31.02-18.98,9.75-7.92,16.48-19.88,25.25-28.75,21.64-21.87,40.98-27.4,41.83-64.29.7-30.52-16.67-110.4-29.07-138.88-26.46-60.76-36.78,50.77-42.84,65.08-.86,2.02-1.41,4.66-4.09,4.88-5.38-4.04,2.85-60.39,4.56-70.41,4.61-27.05,16.64-54.61,12.9-82.06-2.34-17.18-21.01-45.84-14.44-61.48,2.95-7.03,14.1-11.3,21.51-9.65,11.92,2.65,36.17,46.27,45.5,58.56,28.84,37.96,69.18,67.56,49.92,123.05Z"/>
  <path class="st0" d="M1163,168c-3.98.34-17.05,2.41-18.99,5.97,10.29,3.27,20.92,6.14,31.02,9.99,47.08,17.95,124.32,51.9,147.02,99.02,3.58,7.43-4.38,4.19-7.92,1.88-52.4-34.23-87.47-72.36-153.72-84.28-20.03-3.6-68.43-8.82-87.49-6.65-2.99.34-6.16.4-6.92,4.04,8.59,2.37,16.78,11.82,25.44,13.57,9.39,1.9,17.76-2.07,27.5-1.53,48.37,2.69,176.21,72.93,200.36,115.68,1.55,2.75,3.44,4.72,2.67,8.31-41.43-25.73-82.2-55.77-126.63-76.35-14.41-6.68-67.81-28.78-80.5-19.79-3.9,2.76-8.98,26.6-8.68,31.3.14,2.2,7.83,10.9.87,8.82-14.24-4.25-27.71-21.05-41.67-26.34-22.8-8.63-37.29,8.03-59.24-6.76-6.94-4.68-29.51-33.44-24.11-40.87,14.56,11.56,33.7,22.64,51.89,27.09,15.71,3.84,39.14,6.84,54.08-.1-15.72-2.59-91.47-34.79-95.97-46.02-1.51-3.75,1.95-3.3,4.57-2.57,31.81,8.84,46.98,12.56,78.78-2.03,27.01-12.38,35.09-21.66,22.33-51.07-5.43-12.52-20.52-31.64-33.7-35.32,1.38-4.43,2.32-3.2,5.47-2.59,6.82,1.33,13.47,5.89,20.52,6.59l-11.84-13.26c-.45-2.57,3.02-5.72,5.29-6.38,13.29-3.9,44.19,17.93,55.56,25.65,1.85-9.9-10.65-21.17-1.97-30,12.75,7.08,45.65,27.19,59.44,23.56,3.82-1.01,8.2-7.35,11.63-6.71,7.89,1.74,11.17,16.94,17.28,18.82,6.23,1.91,37.96-8.26,34.34,5.04-1.36,4.98-19.47,12.36-24.92,13.12-20.53,2.85-35.18-7.72-54.83-7.81.04,19.65,19.77,29.43,29.76,43.29l-2.77,4.7c-14.32.88-29.86-1.2-44,0Z"/>
  <path class="st0" d="M1274,1460.02l-13.98,5.98,6.48-29.52c20.7-2.25,40.55-5.98,60.94-10.06,12.57-2.52-3.78,8.6-5.53,10.49-13.03,14.1-34.18,36.35-44.73,51.27-18.29,25.89-21.41,50.85-51.84,68.16-33.33,18.96-123.66,33.99-160.22,23.55-16.34-4.66-67.25-37.03-81.14-48.86-48.57-41.38-49.65-97.88-79.63-150.37-5.38-9.42-11.14-18.5-18.34-26.64,2.64-1.96,42.55,13.08,46.04,16.92,7.1,7.83,1.58,13.27,1.88,21.95.58,16.56,43.56,66.6,57.12,79.06,24.42,22.43,79.13,54.72,111.97,58.03,40.98,4.14,123.54-26.03,155-52.96,5.72-4.89,11.25-11.14,15.98-17Z"/>
  <path class="st0" d="M274.31,2456.41l5.48-.19c5.37,3.52,15.51,64.95,16.18,74.81,1.04,15.14-.97,30.8.06,45.94,1.46,21.47,8.82,43.65,5.97,66.07-.35,2.79-1.05,5.75-3.97,2.96-5.46-15.61-12.88-29.46-17.46-45.56-8.44-29.65-9.61-64.79-21.05-92.95-6.7-16.5-20.06-31.52-27.86-48.14-9.91-21.12-21.81-55.19-28.19-77.81-11.82-41.95.08-93.65-41.46-122.54,7.02-2.93,12.75,7.53,19.98,7,1.63-1.76-8.16-35.68-9.91-41.06-30.75-94.24-83.27-183.95-129.12-270.88-3.2-6.06-21.83-40.77-18.95-44.03,3.77-.87,4.74,2.14,6.99,3.99,35.12,28.79,49.77,63.67,70.64,101.36,42.39,76.56,88.21,168.96,112.88,253.12,6.54,22.3,6.1,41.89,10.06,63.94,7.79,43.42,16.32,94.95,44.46,129.56l5.26-5.57Z"/>
  <path class="st0" d="M1258,334l.89,6.11,2.43,1.57c27.49-.22,54.62,3.83,80.68,12.3.45-17.99-10.59-30.55-18.11-44.87-.98-1.87-3.67-5.69-.89-7.11,17.18,13.6,24.81,29.54,32.51,49.49,1.45,3.75,14.8,52.41,20.47,48.5,1.11-7.46,10.24-10.18,11.7-17.48,4.18-20.89-36.2-74.04-46.71-94.48-.81-1.58-9.79-16.53-3.96-16,21.39,24.33,45.13,46.12,61.34,74.62,9.72,17.07,21.07,36.05,7.65,54.33-2.06,2.81-20.75,18.52-17.98,21,10.35,1.32,21.44-5.8,31.07-6.05,7.09-.19,14.87,3.64,21.93,4.09,2.69.17,3.89.21,2.95-2.97-2.46-8.36-11.63-22.21-15.45-32.56-19.35-52.33-20.57-70.06-65.56-108.44-21.74-18.55-53.55-46.03-76.68-61.32-20.32-13.44-45.18-21.09-68.27-28.76-5.44-5.02,10.87-4.17,13.1-4.07,50.07,2.17,73.8,16.16,112.7,45.3,54.03,40.49,91.34,88.16,107.28,154.72,4.83,20.17,4.8,38.47,13.88,58.12,3.09,6.68,9.03,12.88,11.4,18.64.97,2.36,1.67,5.18-1.34,5.26-1.84.05-26.43-15.19-32.3-17.67-22.77-9.62-42.18-14.28-65.44-2.39-21.04-33.05-38.13-79.53-82.79-85.37-14.81-1.94-34.37,5.7-47.27-2.74-7.35-4.81-5.81-30.6-7.4-40.6-1.02-6.38-5.17-12.1-3.8-19.18,26.38,2.33,39.86,27,61.98,37-1.48,3.15-5.44.99-6.99.99h-33Z"/>
  <path class="st0" d="M284,1424c-2.6-6.31-14.5-3.55-13.99-11.98,27.6-1.53,27.67-30.44,56.87-25.88,20.44,3.19,21.17,28.1,10.05,41.79-9.89,12.16-55.82,22.03-72.43,25.57-22.01,4.7-39.41-2.03-26.05,31.06,16.67,41.28,73.33,67.59,69.56,116.47-.23,2.98,1.56,5.79-2.97,4.95l-29.01-37.98c4.96,16.45,17.45,38.46,4.98,53.96-6.83-12-9.36-25.13-16.61-37.35-11.19-18.84-59.22-74.12-77.05-84.95-13.78-8.37-40.35-18.14-56.37-19.63-14.87-1.39-97.11,7.96-100.96,3.95-.66-4.2,2.5-5.71,5.5-7.48,11.1-6.56,63.47-26.49,75.48-26.65,17.51-.23,36.86,5.35,55.03,2.16l1.18-12.23,63.81-15.78h53Z"/>
  <path class="st0" d="M802,517.98c13.11.28,37.5-13.59,48.99-12.1,2.48.32,3.51,1.24,4.97,3.12-26,30.64-70.07,35.61-103.29,54.67-7.41,4.25-28.53,19.47-18.71,29.37,8.6,8.67,22.06-5.85,30-10.08,12.78-6.8,26.01-13.23,39.54-18.46,5.55-2.15,38.73-16.59,40.49-7.47,1.59,8.24-54.31,38.32-61.98,45.98,9.86.31,18.8-5.42,28.95-5.08,3.02.1,5.87-1.34,5.03,3.05-5.33,3.99-10.84,8.1-16.64,11.37-3.83,2.15-50,21.32-41.35,29.65l16.01,2.03c.55.55-1.07,2.5-1.98,3-3.79,2.09-53.67,16.96-59.91,18.09-6.07,1.1-12.01,1.11-18.12.9,5.83-29.13-14.91-21.18-27.95-31.05-3.53-2.67-11.47-15.43-16.99-21.01-11.39-11.54-26.66-22.32-39.04-32.96,5.39-2.34,12.11-.98,17.62.38,25.42,6.26,60.27,28.74,85.82,38.18,8.21,3.03,17.9,4.94,26.55,6.43-10.94-12.22-31.05-19.52-42.08-30.9-24.92-25.73,31.62-39.67,44.08-57.06-22.97,1.47-49.3,18.42-71.32,19.83-20.68,1.33-16.66-5.18-3.28-13.45,24.81-15.35,120.67-54.86,148.49-59.49,43.48-7.24-6.13,23.95-13.89,33.08Z"/>
  <path class="st0" d="M494,2091c-9.84,9.42-12.29-16.8-15-23-2.55-5.86-7.79-11.44-11.02-17.09-7.02-4.43-18.76,15.04-35.89,4-16.3-10.5,3.12-31.19,16.9-31.09,4.47.03,13.51,4.74,14.8-.97.3-1.35-2.02-7.95-1.93-11.77.26-10.18,3.55-19.5,1.26-29.22-4.09-17.36-25.82-25.17-15.16-46.91,6.88-14.03,28.67-39.26,44.99-41s13.95,4.75,23.23,8.87c7.38,3.28,13.73,3.43,21.68,8.32,29.01,17.85,39.24,82.82,29.59,113.32-6.42,20.27-20.71,39.13-31.82,8.92-7.76-21.09-.15-30.95.45-50.29.69-22.03-8.44-41.94-24.06-57.08,2.53,8.44,6.41,16.34,7.77,25.21,1.62,10.59,3.71,39.71,1.76,49.34-.76,3.76-5.68,12.7-8.82,15.18-11.06,8.72-23.94-.03-29.54,4.07-6.04,25.84,18.05,8.97,30.7,19.32,4.78,3.91,6.02,11.82,9.19,16.81,4.77,7.49,21.14,16.96,3.35,23.53-26.15,9.66-14.48-19.58-32.43-25.45v37Z"/>
  <path class="st0" d="M1530.01,435.99c35.1,3.26,21.66-66.72,60.68-49.68,6.2,2.71,28.7,18.8,34.26,23.74,22.17,19.67,24.82,46.65,33.62,72.38,4.98,14.57,12.87,28.19,15.46,43.55l7.72-37.24c1.42-9.81-2.14-19.05,3.76-28.18,5.74-8.89,8.07,11.94,8.47,16.47,4.74,54.65,12.15,121.6-34.92,161.01-29.31,24.55-42.88,5.21-72.29,2.2-17.32-1.78-32.89,1.2-48.74,7.74-5.32-4.94,29.92-16.23,29.95-20.99l-17.95-8.03c14.01-18.39,36.11-.73,50.94,5.08,27.32,10.7,59.11-2.73,62.83-33.27,4-32.88-23.32-106.37-38.06-137.49-10.21-21.56-18.92-43.41-47.85-36.42-24.25,5.85-15.65,47.39-48.41,40.68-13.19-2.7-55.8-45.47-55.4-58.69.06-1.9,1.48-4.43,3.02-4.85,6.3-1.71,26.12,20.75,36.93,15.99,2.24-8.2-6.11-13.12-7.56-19.4-1.51-6.57,4.43-49.61,8.6-50.58,12.72,5.83,9.46,26.53,11.86,38.1,2.7,13.02,16.12,34.93,11.6,45.37-2.07,4.78-8.63,6.81-8.48,12.5Z"/>
  <path class="st0" d="M741.87,480.12c-3.76-4.13-46.29,1.04-54.32,2.43-7.25,1.26-15.71,2.99-22.63,5.37-17.75,6.11-24.94,18.88-45.98,8.13-14.32-7.31-14.1-25.24-35.03-19.13-5.05,1.48-8.13,6.04-11.9,9.06-1.63-9.56,13.81-19.95,21.44-21.54,14.27-2.97,19.99,7,32.01,9.07,20.32,3.49,34.08-8.07,52.46-12.59,32.52-7.98,49.15-11.87,79.41-28.59,25.46-14.07,47.98-35.49,78.66-38.36,6.72-6.58-97.36-53.97-103.34-57.64-7.99-4.9-20.81-18.25-28.08-19.91-12.85-2.94-35.23,7.9-47.3,13.85-10.95,5.4-20.34,12.54-31.27,17.71-.86-3.76,2.12-4.74,3.99-6.99,14.07-16.97,43.61-47.58,66.7-46.85,36.66,1.16,130.4,73.57,169.21,94.94,8.01,4.41,37.33,11.49,29.13,24.96-4.44,7.29-60.17,11.32-73.05,14.94-12.36,3.48-55.34,18.97-65.39,24.61-22.94,12.87,24.44,11.67,25.3,23.18-.78,4.5-30.69,15.26-35.03,15.19-7.48-.13-3.67-10.39-4.99-11.85Z"/>
  <path class="st0" d="M572,2334.02c12.05,34.03-26.92,35.6-49.37,24.35-15.04-7.54-27.89-29.45-30.11-45.89-1.48-10.96-3.14-50.07,7.53-55.44,1.03-.52,18.06-5,19.04-4.95,13.77.63,6.26,20.69,7.34,28.39,1.1,7.84,7.77,17.29,12.59,23.51-.22-10.45-5.01-20.31-5.16-30.96-.11-8.29,2.15-15.24,4.17-23.03l29.96,19.99c7.1-16.72-22.42-27.51-23.66-31.32-1.5-4.58.4-11.6-.76-17.24-1.53-7.45-13.77-19.79,4.32-22.58,19.41-2.99,58.6,22.71,65.67,40.59,6.62,16.77,12.95,39.37-7.44,47.81-1.13,3.9,6.87,11.67,7.78,17.88,3.78,25.84-20.41,34.73-41.88,28.87Z"/>
  <path class="st0" d="M1129.99,549.99l-98.72,3.73-1.27-4.72,25.99-10.98c-47.41-4.45-95.78-17.2-141.03-31.98-17.62-5.76-27.42-13.97-47.96-14.2-5.64-.06-11.16,3.16-16.99,2.16-.85-4.02,2.01-4.61,4.52-6.46,4.49-3.32,10.71-3.56,13.46-7.5-12.2-2.62-23.07-8.67-35.14-11.87-10-2.66-39.07-5.28-44.87-9.13-.81-.54-2.63-2.52-1.98-3,18.83-.16,37.6-4.06,56.48-1.5,9.11,1.23,22.98,6.7,32.01,9.99,45.04,16.39,87.77,44.9,137.5,43.48.9-3.47-1.44-4-2.98-6-6.43-8.38-15.55-14.65-21.1-24.9-14.21-26.29-5.23-52.22-17.53-78.47-12.69-27.07-83.23-91.34-109.77-108.23-17.24-10.97-38.9-16.48-52.61-30.37,26.36,3.56,54.8,17.74,78.04,30.94,55.6,31.57,92.55,70.82,114.53,131.47,5.44,15.01,16.56,68.94,23.41,76.59,12.36,13.81,73.58,30.69,94.73,41.27,1.48.74,14.95,6.49,11.28,9.7Z"/>
  <path class="st0" d="M1520,560c-1.36-6.13,1.44-2.45,3.31-2.83,23.21-4.62,24.61-22.61,50.52-4,4.24,3.05,40.79,43.25,44.15,38.83.81-4.39-.73-6.78-2.65-10.33-4.36-8.08-28.49-38.94-35.39-46.61-6.84-7.6-9.8-11.23-20.94-11.22-15.54,0-15.12,9.31-30.82-3.01-2.99-2.34-5.57-5.1-8.16-7.85-.9-4.28,1.76-2.66,4.4-3.5,8.48-2.72,26.73-8.93,34.61-9.53,31.65-2.41,43.65,34.25,56.99,56.05,3.53.51,2.04-4.58,1.52-6.52-3.02-11.32-21.24-47.51-27.84-58.17-13.77-22.23-36.34,1.97-54.81,2.77-11.75.51-16.49-5.97-26.89-8.05-2.47,2.64,6.94,45.4,9.03,51.95.61,1.92,9.4,15.6,1.59,10.41-6.99-4.65-12.49-14.88-15.19-22.81-9.76-28.68-12.43-60.7-21.42-89.56,24.5,16.18,35.18,44.42,70.56,31.57,22.87-8.3,33.92-42.93,55.76-6.91,19.94,32.89,39,79.61,37.77,118.4-.79,24.96-16.96,34.7-40.99,30.82-21.61-3.5-23.07-29.71-52.48-14.24-3.26,1.71-17.2,13.74-18.64,12.34l12.04-23.07c-.13-8.07-19.17-4.53-13.07-10.94,4.38-4.6,25.61,2.64,33.03,0-1.8-2.09-13.97-13.98-15-13.98h-31Z"/>
  <path class="st0" d="M528.04,2393.99c4.96,3.44,12.21-15.68,9.98-19.99,9.97,6.43,17.79,15.16,29.85,17.97,5.45-11.26,13.62-27.13,28.13-25.97l1,12c5.31-2.89,23.91-25.01,29-19.98.02,12.28-5.87,22.21-3.86,34.88,1.37,8.64,10.43,19.37,13.94,28.05,4.58,11.33,7.98,24.76,7.91,37.06l-12.96-20.01c-22.36-25.39-31.53-10.93-46.02,11.98-6.33-15.41-8.97-35.24-30.06-34.09-31.66,1.72-25.04,42.54-38.85,49.19-15.9-6.95-30.35.91-46.22-1.93-6.74-28.16-7.64-57.27-9.9-86.1-.5-6.37-3.67-14.49-3.82-20.35-.26-9.71,3.85-22.09,1.86-32.68,3.66-3.54,19.67,10.63,23.08,13.91,11.63,11.15,25.64,28.56,36.85,41.15,3.49,3.92,8.37,9.94,10.09,14.93Z"/>
  <path class="st0" d="M1532,1350v30c8.65-2.52,16.98-13.19,18.02-21.99,3.72-.38,1.93,6.54,1.5,8.51-2.7,12.29-22.42,51.72-29.19,64.82-30.41,58.89-76.37,124.19-127.39,166.61-24.11,20.05-61.32,40.24-80.9,63.1-38.19,44.58-81.41,102.86-135.33,128.67-9.72,4.65-40.65,18.28-49.72,18.28h-41c-.89-5.45,1-3.45,4.36-4.54,27.84-9.07,44.77-2.78,73.09-21.01,43.02-27.68,81.28-64.68,115.58-102.42,12.14-13.36,22.79-31.82,35.92-44.08,13.42-12.54,31.77-20.22,46-32,39.39-32.62,95.63-117.93,111.63-166.37,2.79-8.46,10.68-49.94,13.4-52.6,1.3-1.27,3.59-2.03,4.07.07-8.93,37.23-10.31,78.58-30,112.01-.31,6.08,2.16,1.4,3.64-.38,21.27-25.59,34.95-55.66,44.86-87.14,5.02-15.94,8.2-40.53,15.35-54.65,1.47-2.9,1.85-5.66,6.12-4.88Z"/>
  <path class="st0" d="M630,836c2.7,2.71,28.16-10.07,33.99-5.01-15.15,15.55-32.44,29.19-39.41,50.59-3.83,11.75-6.4,51.3-27.24,44.11-14.53-5.01,1.63-42.08.84-50.71-.78-8.62-8.81-7.82-8.12-17.71,1.16-16.71,19.05-14.44,21.55-22.64,3.51-11.54-5.3-31.35-5.66-43.73-.45-15.92,11.36-27.18,17.01-40.93,10.72-26.1,12.57-53.85,33.08-76.92,6.17-6.95,21.31-19.16,30.09-11.73l-4.16,15.78c-.06,3.52,2.11,4.35,5.04,4.9,8.32,1.57,31.8-2.91,41.01-4.96,10.94-2.44,25.61-9.88,35.05-10.99,4.07-.48,3.58,1.92,3.05,5.05-.49,2.94-40.33,33.1-45.86,38.18-11.63,11.91-48.66,20-57.4,30.6-2.23,2.7-3.54,4.31-2.86,8.13,4.96.27,10.06-.35,15.02,0,2.97.22,5.79-1.55,4.95,2.97-7.99,7.39-49.98,39.59-49.98,48.03v37Z"/>
  <path class="st0" d="M418.02,1778c-1.87,10.37-4.15,21.81,0,31.98-7.8,4.18-13.87-.13-21.03-.17-7.51-.04-20.23,7.41-25.11,13.06-4.92,5.68-4.22,15.02-12.97,9.22-8.38-5.55-27.43-33.2-28.72-43.27-3.7-28.82,18.46-30.77,36.87-42.78,13.95-9.1,24.82-20.21,34.02-34.05,13.38,11.6,29.76,13.07,44.96,20.97,20.89,10.85,41.37,33.56,47.38,56.62.92,3.54,5.35,22.53-.42,22.38-14.78-18.23-36.79,4.37-53.83,1.96s-9.72-27.26-21.15-35.92Z"/>
  <path class="st0" d="M1188.25,491.74c23.23,5.73,80.4,33.7,88.86,56.15,1.12,2.98,2.95,8.89-2.1,8.13-10.15-1.52-23.71-10.35-36.22-11.81-5.42-.63-12.32-.61-17.8-.23-7.85.54-14.73,7.81-20.87-1.26.63-11.89,14.56-12.03,23.46-14.18,1.96-.47,6.12.18,3.44-2.56-8.15-11.26-31.54-4.47-36.95-6.94-2.39-1.09-15.97-14.52-20.28-17.84-7.65-5.9-15.74-10.93-23.79-16.23l9.99-8.95c-13.37-8.59-25.5-14.39-42-14.05,11-10.48,17.93-24.8,12-39.96,5.14-4.16,21.41,31.23,30,29.96-11.52-20.58-23.66-41.68-41.03-57.96-4.5-.84-2.78,1.98-2.99,4.97-1.71,24.39,14.43,56.06-27.98,52.99,4.96-8.52,15.22-8.59,13.99-20.79-1.56-15.42-20.39-12.13-31.3-14.91-1.45-.37-6.68.54-4.67-3.25,2.63-4.94,22.96-3.54,24.03-14.1.99-9.78-12.24-14.23-18.01-19.93,6.85-8.49,15.66-1.75,24.98-2.98,2.73-.36,5.98-1.19,2.98-4-5.59-.75-11.82-1.94-17.07-3.95-13.96-5.35-34.45-30.55-44.93-43.07-1.88-2.25-4.85-3.25-3.98-7l49.98,27.98-25.99-42.99c4.85-2.6,13.75,6.33,18.02,9.98,28.01,24.01,55.02,59.71,75.6,90.4,17.42,25.96,39.18,56.62,40.62,88.38Z"/>
  <path class="st0" d="M1221.99,293.99c-12.33.2-22.98-6.47-35.24-7.74-18.71-1.95-32.88,2.6-50.76,5.76-2.94,22.51,26.48,26.91,34,35,2.73,2.94,4.18,14.61,7.59,20.41,14.41,24.48,71.04,65.74,94.47,89.53,13.9,14.12,61.49,74.85,72.85,79.15,25.9,9.82,36.81,16.43,59.77,32.23,2.04,1.4,4.77,3.09,5.33,5.65-18.72-1.17-37.75-8.81-53.98-17.98-1.38,1.64,7.48,15.05,9.15,17.83.97,1.61,14.04,17.37,5.86,14.15-3.2-1.26-33.14-22.93-36.04-25.97-8.74-9.2-16.86-26.2-26.94-37.06-27.51-29.62-63.52-51.66-91.08-82.92-11.92-13.52-52.52-75.96-62.86-79.14-5.68-1.75-13.01.81-17.14-2.86-2.19-1.94-8.75-16.03-11.71-20.29-9.22-13.29-19.28-25.83-31.25-36.75,7.02-3.55,17.53,7.09,23.01,6.92,3.89-.11,20.09-12.31,15.71-16.03-9.74-8.3-12.82-7.82-10.72-23.87l24,16.98,23.98,5c1.12-5.33-1.37-3.44-3.94-4.97-9.82-5.83-23.02-9.03-31.93-16.15-1.77-1.41-6.44-4.53-3.1-6.9,28.71,5.74,56.36,20.87,79.6,38.4,3.85,2.9,11.13,6.32,11.36,11.62Z"/>
  <path class="st0" d="M605.99,1443.99c-4.05.87-5.34-.89-8.08-2.9-20.22-14.8-55.4-86.04-64.87-111.12-11.66-30.86-17.22-65.16-32.69-95.31-6.39-12.45-8.98-11.38-18.28-1.58-25.78,27.18-57.48,76.99-81.28,108.72-8.73,11.64-23.96,22.42-24.68,37.49-.52,11.03,6.5,34.33,9.85,45.75,13.91,47.5,37.47,95.27,52.03,142.95-5.22,1.28-3.5-1.67-5.16-3.77-5.7-7.2-12.9-18.71-17.18-26.88-24.42-46.61-47.61-103.71-53.11-156.89-4.07-39.35,20.54-48.64,42.48-74.42,26.3-30.9,45.58-66.65,71.03-96.97,5.49-6.54,18.39-24.37,27.87-20.13,8.01,3.59,18.24,47.08,22.04,58.11,4.35,12.65,10.6,24.6,14.55,37.45,11.7,38.04,20.63,100.67,43.83,132.17,3.24,4.4,25.51,23.47,21.65,27.33Z"/>
  <path class="st0" d="M1552.03,2466.01c3.15-3.08,3.4.69,4.17,2.78,2.7,7.32,1.81,18.55,7.77,23.2,5.23-14.73,32.15-62.05,48.95-35.92,5.69,8.85.9,39.93.98,53.02.1,14.92,5.92,26.34-1.81,41.99-13.74,27.82-25.59.51-35-9.18-4.65-4.79-27.05-22.31-32.54-23.44-28.95-5.98-39.41,26.64-39.47,49.62-17.4,5.77-19.12-23.18-23.04-35.12-3.55-10.81-6.9-21.78-12.01-31.99,5.07-4.36,18.75,12.05,21.98,9-9.16-10.11-16.81-61.79-11.1-70.07,5.31-7.72,16.64,7.15,22.04,10.16,8.27,4.62,20.89,5.03,25.51,14.49,2.47,5.05,7.69,37.54,18.44,21.32,3.06-4.62,3.54-18.3,5.15-19.87Z"/>
  <path class="st0" d="M891.41,138.57c7.2,8.81-.78,44.09-1.39,56.45-1.56,31.53.09,55.38,17.65,82.35,1.35,14.44-30.14.44-35.71-2.33-23.75-11.83-52.43-49.45-79.08-29.07-2.85,2.18-1.87,8.32-7.68,5.85-7.69-3.27-10-24.07-13.07-30.94-5.91-13.23-20.89-16.49-34.12-14.88-1.15-4.6.87-3.29,2.51-4.57,7.88-6.15,17.61-9.68,27.6-6.52,4.65,1.47,8.21,8.01,13.12,8.56,10.13,1.15,24.58-11.79,30.76-19.44-11.81.26-23.39-5.04-34.97,0l-1.02-4c15.45-5.27,26.2-14.94,43.63-10.66,5.42,1.33,33.72,13.83,32.35,19.6-18.36,12.02-46.42,12.38-55.97,35.03,9.79-8.88,23.31-4.77,34.43-8.55,5.39-1.83,12.78-10.88,18.44-9.42l2.77,4.53c-7.08,13.53-2.05,33.43,12.33,39.43-3.6-28.54,27.01-55.1-8.57-76.41-6.46-3.87-17.57-3.09-15.43-11.57,22,5.18,44.24-14.61,10.98-17.98-35.61-3.61-59.85,11.65-90.73,21.22-2.57.8-6.04,1.4-4.23-2.23,1.88-3.76,25.89-16.31,31.27-18.74,22.2-10.05,86.39-27.42,104.13-5.72Z"/>
  <path class="st0" d="M935.98,230c5.97-22.8,2.41-45.25,6.62-68.4,1.61-8.84,5.21-21.33,8-30.02.67-2.1.51-6.04,3.38-5.57-3.21,27.39.74,57.81-4.49,84.48-2.55,13.03-14.66,39.77-11.08,52.07,1.34,4.62,29.34,35.26,34.63,39.39,9.75,7.61,20.87,10.81,30.79,17.21,28.66,18.49,40.64,57.83,68.12,77.84-2.28,3.2-2.97,2.86-6.44,2.54-7.82-.71-41.08-15.87-43.51-13.53,5.47,28.28,38.27,37.5,61.18,47.8,2.38,1.07,3.6-.94,2.82,4.18-31.26,8.65-58.85-6.78-71.72-35.27-11.61-25.69-14.04-48.46-35.24-70.76-14.43-15.18-38.4-21.83-46.94-43.05l-20.1,3.08c-.61-.45,4.49-5.82,5.15-7.9,2.46-7.8-10.1-51.26-11.12-65.11-1.03-13.95-.92-33.94,0-47.96,1.11-17.09,7.24-17.77.03-38.07-1.97-5.55-11.26-13.11-1.04-14.94,29.36-5.28,18.07,5.91,16.91,20.91-1.35,17.55.54,66.11,6.49,81.67,1.43,3.74,3.56,7.9,7.56,9.41Z"/>
  <path class="st0" d="M1513.79,815.81c-13.93,1.76-18.58-12.99-27.77-20.83-15.02-12.8-39.01-17.44-57.99-22.01-116.76-28.07-250.8-8.99-365.1-48.9-41.73-14.57-75.8-46.51-123.92-46.06-7.01.07-14.25,3.63-20.92,5.09-2.05.45-6.51,2.69-6.08-1.08,11.35-3.24,23.82-9.91,35.5-11.51,39.77-5.46,72.54,18.97,107.43,31.53,43.02,15.49,83.59,14.31,127.79,20.21,33.71,4.5,66.94,12.91,100.54,17.46,64.89,8.79,122.32,9.03,185.21,32.79,17.77,6.71,54.19,18.75,45.3,43.3Z"/>
  <path class="st0" d="M1514,705.98c-21.17-10.2-40.44-16.89-63.63-21.35-74.84-14.39-156.69-2.55-233.36-8.64-26.63-2.12-59.17-5.94-85.43-10.57-60.37-10.66-152.33-41.95-210.56-37.39-6.01.47-11.49,4.19-17.02,2.98,10.45-5.09,25.81-11.46,37.21-12.79,62.53-7.31,117.78,16.71,178.07,25.5,63.15,9.2,151.13,21.99,213.68,22.44,40.63.29,78.12-9.83,119.02.86,22.61,5.91,50.74,17.53,62.02,38.96Z"/>
  <path class="st0" d="M531.3,2142.7c9.29,9.92,29.93,42.57,12.57,52.16-2.13,1.17-16.58,5.3-18.45,4.84-4.48-1.11-20.59-25.49-31.41-23.68,18.99,22.66,1.32,39.31-24,36,2.63,5.75,11.14,5.97,15.11,9.87,8.99,8.84-1.93,32.55-3.17,43.03-1.61,13.66,6.7,34.61-18.69,32.98-16.66-1.07-9.6-9.49-9.26-18.93,1.34-37.73-12.68-51.57-17.5-82.45-3.63-23.27,10.12-25.09,29.51-22.54-2.95-15.41-18.73-36.82,1.48-47.52,24.39-12.9,46.66-2.09,63.83,16.23Z"/>
  <path class="st0" d="M683.96,1478.02c27.89,61.72,68.13,113.67,116.99,160.04,14.33,13.61,30.44,25.69,45.08,38.92,10.61,9.59,24.01,28.63,36.53,33.47,11.94,4.61,21.64,4.23,34.78,11.22,37.12,19.75,98.54,67.93,136.54,77.46,5.7,1.43,17.62-1.81,16.11,4.87-65.56-4.51-128.37-33.01-179-73.98-3.25,2,.67,4.42,2,6,17.89,21.32,54.69,47.05,80.49,57.51,15.62,6.33,32.49,9.48,48.52,14.5,1.71,6.44-6.74,4.01-10.74,3.71-40.34-3.01-71.31-16.74-102.2-41.8-40.77-33.08-67.57-76.9-105.03-112.97-23.8-22.91-42.27-37.53-62.86-65.14-24.55-32.93-49.62-73.57-61.2-112.8l3.99-1.01Z"/>
  <path class="st0" d="M1179.88,296.22l.13,5.78c35.88-9.24,50.03,7.64,49.98,41.98l-13.98-3,22,28c16.93,1.75,30.03-.35,46.54,5.46,33.17,11.67,47.4,38.6,69.35,62.65,3.47,3.81,10.95,4.95,7.09,8.91-20.67,2.79-46.02-36.93-62.03-49.97-4.84-3.94-14.75-11.61-20.95-11.05,24.49,17.83,42.21,60.31,66.08,75.92,25.1,16.4,41.13-10.13,66.03-4.01,19.99,7.59,34.95,24.49,51.88,37.09-12.58-2.71-21.41-11.32-34.4-14.58-11.17-2.8-24.46-3.01-35.71-.5-22.37,4.99-37.82,24.79-59.78,5.99-8.81-7.54-14.85-21.13-22.16-29.84-11.62-13.85-27.13-31.57-39.87-44.13-18.46-18.22-50.33-38.18-65.11-56.89-7.88-9.97-10.7-22.95-19.91-32.09-7.47-7.42-21.06-14.6-31.07-17.96-4.72-6.26,22.1-9.32,25.87-7.75Z"/>
  <path class="st0" d="M1088,1133.98c-20.24.17-52.7,5.33-59.06,27.96-1.34,4.77-.41,9.81-1.81,14.19-8.79,27.41-29.41,71.71,1.48,92.26,32,21.29,69.83,1.89,88.37,41.63l19.01,17.97c-22.36.46-30.78-30.74-51.11-33.87-24.22-3.73-42.96-1.46-63.84-18.16-22.95-18.36-28.25-39.94-20.57-68.48,2.25-8.35,11.09-16.84,10.5-25.5-36.81,11.64-62.48,44.43-98.26,59.74-33,14.12-76.81,6.15-94.47,43.53-10.1,21.38-3.36,35.47,1.74,56.76-16.49-14.31-35.84-32.56-24-56-17.86,10.79-36.87,16.84-49.96,34,3.86-19.22,27.6-37.03,43.36-47.62,48.75-32.74,97.37-30.24,147.1-62.46,15.12-9.8,29.51-19.42,45.36-29.09,30.96-18.88,57.53-54.22,97.27-50.94,3.5.29,7.69-.4,8.89,4.08Z"/>
  <path class="st0" d="M969.99,2335.99l-40.02-30.96c-73.62-60.36-98-151.57-140.93-233.07-15.25-28.94-33.84-56.89-49.04-85.94l60.05,58.93c37.83,50.02,54.5,112.3,85.6,166.4,19.29,33.53,54.71,91.07,80.37,117.63,2.08,2.15,4.72,3.41,3.96,7.02Z"/>
  <path class="st0" d="M404,1990.02c5.19,10.28,28.53,20.32,20.13,33.13-9.8,14.95-32.72.77-37.93-12.35-3.17-7.98-1.22-13.5-3.13-20.87-2.26-8.71-15.63-24.37-19.67-38.33-6.87-23.79-1.33-51.01-15.39-70.61,6.1-3.47,10.96,5.53,14.86,9.14l15.1,33.86c.6-5.11,2.33-9.54,2.08-14.87-.33-7.19-11.64-39.94-1.08-40.7,6.46,3.82,13.25,7.77,19.04,12.56,5.35,4.42,32.55,33,34.51,37.6,3.97,9.34-4.3,12.42-6.05,18.92-6.51,24.2,36.11,42.67,27.22,69.23l-1.56,2.42c-10.07,7.15-32.95-24.85-48.14-19.11Z"/>
  <path class="st0" d="M1504.01,1826.01c54.09,17.33,70.51,79.3,59.4,130.39-3.57,16.41-27.63,88.9-37.31,98.69-4.06,4.11-9.12,6.95-15.1,6.93-7.01-.01-30.82-12.37-33.48-18.53-9-20.86,12.46-22.14,24.32-30.67,19.09-13.74,30.44-47.23,31.9-70.08,2.61-40.84-18.98-78.61-29.73-116.74Z"/>
  <path class="st0" d="M1315.99,1414.02l-91.28,19.69c-57.34,10.19-112.89-1.69-167.75-17.67-26.9-7.84-73.19-21.38-95.2-36.86-2.39-1.68-4.89-.07-3.75-5.17,47.17,12.66,103.07,5.49,148.54,22.44,8.56,3.19,20.6,12.16,28.57,13.42,15.71,2.48,25.52-7.85,40.11-9.65,28.72-3.55,76.62,11.16,107.8,13.75,10.68.89,22.19-.6,32.96.05Z"/>
  <path class="st0" d="M584,451.98c19.74-19.17,48.01-3.86,70.55-8.43,12.52-2.54,28.25-20.09,43.44-19.57l-69.24-13.72-28.74-.28c7.56-6.45,30.96-14.13,40.91-14.04,20.6.18,45.24,10.98,66,10.09,9.04-.39,49.05-10.69,46.77-22.74-1.06-5.58-47.37-34.24-55.18-34.92-6.32-.55-16.58,8.74-23.44,11.69-10.16,4.36-26.88,8.76-37.81,7.73-5.74-.54-15.62-2.6-15.24-9.78,9.74,0,22.36-.32,31.65-3.35,16.23-5.31,28.8-29.97,51.8-21.09,17.27,6.66,36.73,21.61,53.21,30.78,6.13,3.41,38.54,17.16,39.31,20.72,1.02,4.73-13.02,8.77-16.64,11.27-35.84,24.64-50.62,28.3-88.68,45.32-24.08,10.77-32.11,23.93-63.59,22.35-18.88-.95-27.13-14.16-45.05-12.01Z"/>
  <path class="st0" d="M891.99,387.99c-6.8,7.27-119.12-70.85-132.16-78.82-33.03-20.19-58.54-36.94-96.84-13.18-1.77.01-1.26-3.9-.81-4.81,2.67-5.42,31.79-22.82,38.85-23.31,15.51-1.07,31.46,10.32,44.97,16.11-3.87-6.74-11.45-10.94-16.02-16.96-2.86-3.77-2.96-10.2-6.86-13.14-5.61-4.22-23.79-6.04-31.1-5.91l17.53-5.44c7.65,1.08,18.72-3.6,25.34-2.57,9.8,1.52,10.63,16.57,14.32,23.84,7.61,14.99,26.7,31.45,39.85,42.15,2.72,2.21,21.32,17.55,22.95,16.03-10.66-17.2-25.61-31.16-37.94-47.03-22.95-29.53-26.1-57.88-74.05-44.97,3.76-4.46,14.01-7.91,19.52-9.46,4.41-1.24,17.32-4.24,21.5-4.58,9.79-.79,13.65,1.03,19.81,8.22,20.9,24.39,32.6,59.05,58.14,85.86,16.26,17.08,66.82,49.64,72.08,67.91.97,3.37,1.25,6.58.93,10.05Z"/>
  <path class="st0" d="M567.99,889.99c-4.84.59-6.37-3.4-8.09-6.89-7.31-14.8-8.23-36.92-12.92-53.08-6.22-21.46-31.44-56.54-46.93-73.07-19.56-20.87-39.02.35-41.88,22.22-4.96,37.99,15.56,63.14,12.93,98.93l-13.08,35.89c-1.75-20.37-12.77-38.13-17.09-57.92-7-32.07-5.46-99.46,17.14-125.01,14.67-16.58,27.13-19,47.3-9.43,9.76,4.63,31.16,23.03,35.12,32.88,3.16,7.86.36,16.07,1.97,24.03,1.15,5.7,7.43,13.73,9.62,20.38,9.54,28.85,9.76,61.29,15.91,91.07Z"/>
  <path class="st0" d="M1291.99,613.99c-2.79,2.96-37.64-25.81-43.02-27.97-8.72-3.49,7.07,21.27-1.96,20-9.11-1.29-23.31-15.02-32.58-19.45-12.78-6.1-26.94-6.24-39.08-12.92-4.95-2.73-24.83-17.81-20.48-23.76l10.77-6.86c-11.64-19.54-34.87-30.75-55.73-37.95-18.46-6.37-65.22-12.83-76.9-23.1-3.82-3.36-14.79-15.8-8.01-19.95,10.79,10.77,30.22,11.9,44.99,12.97l-41.99-26.99c54.5,16.76,101.91,25.08,141.03,69.95,10.13,11.62,21.66,36.05,36.43,39.57,8.32,1.98,20.61,1.02,29.07,2.93,15.97,3.59,35.85,23.12,46.5,35.5,2.2,2.56,13.46,15.37,10.96,18.02Z"/>
  <path class="st0" d="M984,489.98c-42.96-6.68-78.49-37.04-121.9-45.08-22.44-4.16-37.94-1.64-60.1,1.08,6.81-6.86,20.29-9.67,29.59-11.39,22.12-4.09,46.53,2.63,63.42-12.58l-.86,14.7,8.63,3.41,9.19-20.11c.67,24.91,15.21,36.25,38.02,41.97-25.18-33.07-30.29-72.73-57.17-105.81-20.1-24.74-77.61-53.41-87.18-76.86-.97-2.38-1.9-4.83,1.39-5.31,7.04,3.24,14.16,7.19,20.8,11.16,44.31,26.5,110.98,85.22,130.52,133.48,9.62,23.78,6.61,51.64,25.64,71.34Z"/>
  <path class="st0" d="M1779.99,1933.99c-3.97,3.89-19.43-14.98-23.05-17.93-19.84-16.15-56.24-27.76-81.31-32.69-33.07-6.51-66.36-3.09-99.63.62-.97-5.57,1.18-3.36,4.38-4.5,15.79-5.63,51.43-10.74,68.52-11.57,13.74-.67,32.74,4.11,44.08,2.07,2.83-.51,5.29-1.62,5-4.95-1.86-8.27-65.94-49.98-77.27-54.75-36.49-15.35-70.32-6.27-99.74-38.26-2.47-2.69-15.5-17.45-12.96-20.02l101.34,37.64c55.24,25.06,109.03,58.79,148.7,105.3,9.25,10.85,19.29,24.71,21.94,39.04Z"/>
  <path class="st0" d="M606.09,2583.9c2.88-15.9-13.28-29.5-15.64-41.35-2.2-11.02.32-24.85-4.47-36.54l-5.99,14.67-3.95,1.31c-6.04-14.63-30.17-15.48-44.04-20.01,16.29-19.1,9.75-39.55,14.17-61.78,4.08-.99,7.3-.38,10.94,1.7,8.45,4.83,32.24,42.3,39.92,41.69,11.67-7.28,7.14-31.3,13.96-39.6,1.94-2.36,2.05-2.41,4.04-.02,4.02,14.77,5.85,28.47,1.07,43.13-3.3,10.13-16.86,26.23-6.03,35.83,10.63,9.43,47.52.16,46.02,26.01-.31,5.41-8.3,28.99-12.2,31.95-7.79,5.9-28.01,2.06-37.79,3.01Z"/>
  <path class="st0" d="M1367.99,589.99l-39.97-19.99c-5.96,7.53,31.85,31.6,35.96,41.03,4.34,9.95-13.16-7.02-14.19-7.82-7.63-5.97-18.04-14.99-28.33-12.86-5.12,1.06-7.71,6.48-10.91,7.37-10.89,3.04-25.72-27.32-38.55-27.73,5.36-8.92,29.91,7.42,35.15.14-.43-29.86-32.5-59.6-57.8-72.47-11.87-6.04-39.46-12.21-47.4-20.6-9.36-9.91-3.25-20.62-7-29-2.2-4.91-13.52-10.05-17.82-16.18-5.34-7.61-6.21-17.85-11.47-26.53-6.07-10.01-18.13-20.52-25.59-30.41-1.57-2.09-9.53-11.32-8.07-12.91,20.45-8.99,33.18,16.79,43.62,31.36,24.91,34.76,33.7,60.86,71.74,86.26,10.62,7.09,22.74,11.58,33.25,18.75,19.16,13.07,27.13,31.33,42.35,47.65,12.23,13.11,28.89,22.22,40.02,33.98,2.54,2.68,5.32,6.03,4.99,9.99Z"/>
  <path class="st0" d="M613.98,724c-4.93,1.16-8.76-3.74-12.93-3.82-6.74-.13-19.96,7.75-30.07,7.98-2.01.05-15.44-1.86-10.99-6.15,16.11-2.34,52.75-25.91,48.06-44.6-.5-2-12.26-6.52-11.77-12.07,1.37-15.41,48.22-24.18,13.07-41.71-19.62-9.79-38.46-6.63-56.75,3.97-12.82,7.43-24.19,22.45-40.6,22.38-.87-3.77,2.14-4.74,3.99-6.99,3.67-4.47,30.58-28.17,25.99-32.99-5.77.27-10.95,2.94-16.96,2.05-13.98-2.07,11.25-10.9,15.01-13.02,25.24-14.24,23.62-18.24,53.31-5.38,21.88,9.48,68.77,35.78,62.25,64.91-2,8.94-22.6,20.73-29.26,30.77-6.16,9.28-10.57,23.71-12.35,34.67Z"/>
  <path class="st0" d="M1525.99,593.99l-43.38-29.6c-24.4-19.25-39.13-.96-62.6,5.62-.68-24.5-20.64-47.09-42.63-56.39-8.29-3.51-20.71-2.99-25.38-11.6,5.09-1.91,10.94-1.41,16-3.02,9.38-2.99,24.58-13.68,30.97-15.04,1.11-.23,3.3-.49,3.01,1.02-8.52,7.04-8.55,19.61,3.05,22.98,6.42,1.87-.16-10.47,2.24-13.43,3.19-9.66,39.22-.95,34.7,5.42l-21.99,20.02c15.11,2.13,26.01-9.83,37.01-17.97,2.45,5.9-3.82,17.5-7.34,22.66-2.31,3.38-20.09,18.98-17.66,21.32,17.7-8.44,32.38-.54,49.99,1.99-4.96-8.42-16.47-11.31-20.2-20.95-3.61-9.32,6.08-10.81,7.79-16.42,4.89-16.09-16.27-35.27-24.82-48.37-1.11-1.7-4.92-4.44-1.78-6.22,17.33,12.18,35.67,15.52,42.05,37.95,4.52,15.91,3.55,30.86,10.94,47.06,3,6.57,32.63,50.18,30.02,52.96Z"/>
  <path class="st0" d="M501.29,1830.71c10.65,10.86,19.94,30.41,16.26,45.85-3.35,14.05-13.79,3.83-22.61,3.32-5.37-.31-10,2.48-15.05,1.34s-10.36-15.81-26.91-17.25c-18.17-1.58-26.79,7.6-41.89,14.01-4.48-1.18-1.44-14.39-9.19-18.87-12.21-7.06-19.48,1.86-24.48.64-13.83-3.38,2.56-31.27,11.19-36.15,23.34-13.19,36.83,6.96,52.23,6.29,7.42-.33,14.63-6.91,21.13-8.91,15.3-4.71,28.23-1.58,39.33,9.73Z"/>
  <path class="st0" d="M490,998.01c-3.08,3.09,11.57,29.89,15.12,33.87,8.37,9.39,24.92,10.05,22.87,26.11-8.69,1.36-15.28-3.34-21.97-7.99,4.44,12.06,9.3,19.27,7.98,33.01-1.34,13.99-15,30.65-13.92,45.76,1.76,24.81,39.11,34.83,35.92,61.24-23.72-.62-47.53-32.77-49.78-55.22-2.11-21.01,13.6-33.38,11.65-51.57-.91-8.45-7.44-16.2-9.95-24.14-7.92-25.08-25.56-85.86-26.03-110.01-.07-3.41-.86-14.35,5.07-13.05,9.4,9.23,16.85,20.5,27.02,29.01,7.72,6.46,39.13,23.67,40.1,32.05,2.04,17.72-39.67-3.48-44.08.93Z"/>
  <path class="st0" d="M483.47,2532.35c13.26-2.74,21.81,11.13,22.59,22.7,1.6,23.75-6.82,27.71,9.1,52.78,5.44,8.56,11.9,11.43,16.51,19.62,1,6.48-5.99,10.82-8.7,16.53-8.33,17.51-4.06,31.14,4.7,47.39.27,2.86-2.6,5.48-5.1,6.23-1.41.42-27.36,2.57-29.39,2.39-5.41-.49-9.51-4.18-10.77-9.4-2.29-9.52-4.19-33.15-4.51-43.49-.94-30.68-1.44-61.28-1.93-92.06-.12-7.72-6.19-19.85,7.48-22.67Z"/>
  <path class="st0" d="M549.51,2526.49c47.32-2.5,63.81,88.76,19.04,97.04-55.25,10.22-70.07-94.35-19.04-97.04Z"/>
  <path class="st0" d="M1462,2131c-.99-5.84-6.01-11.49-12.52-10.64-13.39,1.74-28.1,34.11-39.58,20.21-13.76-16.67,6.44-37.82,23.23-40.45,19.03-2.98,30.91-1.53,35.97,17.79,7.5,28.67,5.05,61.44,8.6,90.7-3.33,8.05-11.72,4.32-18.28,5.8-12.04,2.71-22.46,25.9-21.42,37.58-4.96,5.6-20.65-26.34-21.5-31.46-2.76-16.5,8.51-36.8,2.01-52.02-1.55-3.63-13.51-13.01.21-12.39,20.4.92,27.79,8.95,43.3,19.88-1.63-13.65,2.21-32.01,0-45Z"/>
  <path class="st0" d="M1057.98,940c-16.55-9.18-34.58-16.87-53.97-17.01,11.81,9.32,19.34,24.52,28.97,35.03,8.99,9.81,21.03,15.29,29.02,25.96l-46.12-6.85c-4.25-12.79,3.95-19.53-4.97-33.03-4.12-6.24-32.88-20.5-40.92-23.09-4.04-1.3-25.22-6.85-23.97,1.96l11-.92c5.98.49,1.85,14.84-11.1,13.09-16.02-2.17-19.7-20.87-21.22-21.23-9.5.75-19.88-1.01-29.21.57-5.99,1.01-10.8,5.4-15.43,6.57-7.3,1.83-43.14,6.61-43.58,13.93-.09,1.44,3.23,4.69,3.48,8.12.2,2.62-2.03,5.86-1.63,7.73.86,4.05,15.09,5.69,13.67,13.16l-77.98,2c-4.64-4.12,13.55-10.81,15.48-11.5,9.63-3.45,20.34-5.44,30.51-6.5,2.46-7.93-31.92-32.39-27.99-35.98,9.88-1.1,22.04,13.76,30.64,13.49,7.71-.24,26.65-10.5,34.89-12.95,29.58-8.8,90.73-17.36,118.32-3.41,3.28,1.66,4.34,6.12,9.25,6.91,10.16,1.63,20.85-2.66,36.48,1.36,3.69.95,42.82,15.75,36.39,22.59Z"/>
  <path class="st0" d="M964.02,204c-1.67-7.39,5.37-22.86,4.13-28.64-.49-2.28-6.37-.94-6.38-8.36,0-6,4.78-6.97,5.82-10.4,1.5-4.92-.14-11.39.41-16.59,7.27,1.86,10.61,7.17,18.95,8.04,10.18,1.07,14.49-1.89,23.02-6.08.59-2.68-2.08-2.26-4-2.93-12.1-4.17-29.86-4.66-37.98-15.03,26.35-4.44,49.92,10.73,75.99,7.99l-8.12,10.86-29.86,15.11c19.1,1.25,38.33-2.35,55.64-10.31,6.1-28.29-29.46-35.71-50.62-35.83-18.92-.11-45.98,9.7-59.03-9.82,40.15,10.2,101.94-24.37,125.41,23.57,18.38,37.54-20.68,49.07-50.44,50.39-20.48.9-32.82-12.5-48.97,7.03-5.06,6.12-7.41,16.05-13.99,20.99Z"/>
  <path class="st0" d="M1184.77,795.11c64.2,56.48,219.41-3.72,297.31,35.81,4.56,2.32,27.95,17.85,23.9,23.08-41.72-19.58-97.06-22.98-142.96-19.98-51.34,3.35-86.62,20.46-138.99-1.05-15.45-6.35-43.83-21.75-42.01-40.96,2.97-.76,1.56,2.05,2.75,3.1Z"/>
  <path class="st0" d="M890,1014l-36.94-24.06-7.05-6.95c.57-2.08,4.85-.96,6.52-.52,26.73,6.99,52.56,24.76,83.4,30.6,26,4.92,50.34.86,76.06,4.95l-14.87,10.09c-2.13.79-14.8,3.88-16.12,3.88h-43c1.13,2.79,10.21,3.34,13.25,3.75,32.24,4.41,73.08-.16,105.16-6.34,14.09-2.72,27.69-7.96,41.58-11.4,1.16,5.11-1.38,3.49-3.75,5.17-37.62,26.65-114.07,34.09-158.34,25.92-30.29-5.59-53.23-22.19-81.9-31.12-.63-.61,2.59-3.98,3-3.98h33Z"/>
  <path class="st0" d="M581.99,2086.01c-.92,33.54,20.68,56.12,15.83,90.81-1.95,13.94-13.85,17.63-26.76,15.12-12.07-2.35-4.7-13.73-4.98-20.83-.36-8.98-4.33-20.14-6.09-29.09l-5.89,11.08h-6.17c-3.94-4.65-3.07-10.15-6.78-15.23-7.79-10.67-55.76-27.05-29.03-44.76,17.77-11.77,30.63-.55,46.9-.94,9.01-.22,14.53-5.56,22.99-6.15Z"/>
  <path class="st0" d="M1334,161.98c8.29-1.22,11.05-11.67,19.42-13.56,6.06-1.37,20.95-1,27.67-.52,6.6.47,12.78.44,10.92,8.09-24.73-2.61-35.21,14.75-54.01,24.03,4.24,7.75,15.01,7.6,21.05,2.04,3.43-3.16,3.69-8.31,6.31-10.2,4.37-3.17,17.91-4.34,24.6-6.89,8.21-3.13,14.47-8.84,22.01-12.97-12.47,28.99-36.86,50.34-70.46,45.47-18.74-2.71-35.14-19.43-53.48-24.51-20.51-5.68-41.99-.74-62.73-5.27l-27.31-33.67c2.92-2.73,20.72,21.28,27.99,14.99l-11.98-12.02c-.29-1.54,1.83-1.2,3-1.01,8.89,1.44,27.56,17.6,36.41,19.6,5.7,1.29,45.52,3.21,51.46,2.29,4.25-.66,20.04-6.94,20.84-11.14-2.7-9.76-12.85-17.05-20.75-22.72l2.07-4.02c21.88,5.69,44.22,17,26.96,41.98Z"/>
  <path class="st0" d="M1350.02,1462c2.2-9.89,9.76-26.94,16.91-34.07,11.46-11.43,24.35-9.68,35.45-28.55,14.1-23.94,14.35-47.69-3.36-69.41-12.23-14.99-44.73-46.91-60.36-57.64-21-14.41-13.92-8.86-19.67,5.65-8.8,22.22-37.84,36.48-60.99,27.99-1.57-6.51,8.73-3.45,14.1-4.88,42.7-11.43,47.51-50.49,27.5-85.7-8.9-15.66-26.29-26.81-23.59-47.39,4.22-.41,7.11,2.43,9.7,5.28,13.19,14.56,23.54,44.8,35.46,62.54,16.38,24.37,36.21,32.39,56.86,51.14,20.67,18.76,52.09,56.6,50.03,85.98-.78,11.17-22.66,43.46-32.19,49.92-8.37,5.67-17.45,6.48-25.91,14.09s-11.52,18.19-19.94,25.04Z"/>
  <path class="st0" d="M690,568.02c-23.92,40.48-74.33-29.54-101.26,9.72-5.26.39-8.42-6.23-12.17-7.33-15.59-4.59-26.99,10.77-40.56,13.57-.66-10.22,9-24.85,18.55-28.42,8.44-3.16,16.06-.45,24.22-1.78,7.09-1.15,33.95-6.57,38.65-9.18,5.28-2.93,12.41-16.89,20.55-19.62-9.2-4.92-20.59-3.66-30.02-7.97-8.16-3.72-10.7-11.95-19.83-14.16-8.22-1.99-16.14-1.03-24.13,1.13-3.42-3.35,14.78-15.7,19.12-15.99,12.6-.82,27.78,25.41,49.84,25.61l89.98-19.62,2.07,4.02c-15.3,8.63-78.08,30.63-82.74,47.42-2.3,8.29,20.95,20.72,28.27,23,8.08,2.52,11.51.94,19.45-.41Z"/>
  <path class="st0" d="M1697.99,996.01c-3.22,25.37-12.89,55.89-.99,79.95,23.51-21.59,53.17-72.03,46.54-104.5-2.71-13.28-15.21-18.58-27.66-14.56-3.74,1.21-5.55,5.68-9.87,5.09-1.95-1.99,20.76-37.98,40.99-23.98,26.04,18.02,13.82,85.95-.16,109.83-11.43,19.53-26.96,27.83-40.77,43.23-5.86,6.53-26.48,42.78-29.07,42.89-3.88.18-1.86-5.85-1.67-7.6,1.44-13.18,8.54-27.3,8.81-41.34.42-21.61-4.47-40.62.06-63.82.48-2.48,8.9-30.9,13.79-25.19Z"/>
  <path class="st0" d="M1480,158.02c-.67,6.96-44.51,9.53-37.99,17.95,33.11,10.64,64.6,24.38,93.98,43.02-1.39,3.58-16.81.83-20.11.13-10.06-2.13-18.61-7.17-27.87-11.11-1.56,25.24,17.22,40.94,35.99,53.97-17.16-1.74-33.16,12.04-49.08,10.14-4.02-.48-7.47-.92-6.91-6.09.79-1.05,21.3-3.76,16-8.01-23.98-1.43-34.73-26.14-49.99-41.04l.97-2.96,47,25.98c-1.23-6.63-7.93-10.37-10.16-16.99-2.53-7.51,2.1-19.34-11.82-18.99-1.32,1.36,2.81,11.66-2.95,9.95-12.33-3.66-25.41-18.5-41.06-15.98,4.61-8.57,16.1-4.67,24-8-11.3-20.58-30.43,8.21-47.99,1.03,15.97-6.98,17.36-23.1,30.94-31.21l57.05-1.78Z"/>
  <path class="st0" d="M1537.99,2589.99c2.45-2.66-11.37-30.9,2.87-40.12,17.45-11.3,37.36,29.21,37.32,43.14-.04,14.28-9.97,14.5-18.2,21.96-14.63,13.28-32.55,25.64-17.97,45.98l-4.98,3.04c-15.85-14.24-29.29-21.39-37.99-42.03-27.8-65.95,36.17-28.95,38.95-31.97Z"/>
  <path class="st0" d="M86.01,1500.01c34.58,9.37,68.44,5.61,95.01,33.97,5.01,5.35,35.91,45.39,36.68,49.49,2.55,13.63-25.9,25.95-35.67,21.49-2.88-1.31-25.29-36.34-31.01-42.99-16.5-19.2-36-31.59-54.08-47.92-2-1.8-13.12-12.01-10.94-14.04Z"/>
  <path class="st0" d="M1419.99,1064.01c-4.47,15.66-31.58,15.32-44.77,13.78-20.3-2.38-38.72-16.28-57.58-22.42-7-2.28-15.04-1.04-21.61-5.37-.33,14.6,15.24,27.51,27.22,33.76,50.74,26.47,110.31,10.51,164.75,20.25,6.16,5.19-18.91,7.81-21.01,7.97-50.22,3.76-91.09,9.5-138.94-11.02-27.09-11.62-59.16-37.44-57.75-69.67,1.07-3.31,3.65-3.43,6.62-3.39,5.75.08,23.87,2.93,29.1,5.09,10.05,4.16,20.11,17.19,30.95,23.05,24.51,13.27,56.67,16.11,83.04,7.96Z"/>
  <path class="st0" d="M1487,2350.03c10.67,20.46,36.57-4.46,46.03,3.95,2.57,2.28,18.92,38.52,19.06,43.08.33,10.51-7.95,27.03-19.21,28.82-22.18,3.52-47.78-9.53-59.71-28.06-18-27.94-6.74-28.89,13.83-47.79Z"/>
  <path class="st0" d="M1531.99,308.02l-41.41,15.56c-19.29,10.67.56,36.95.43,52.4-40.8-21.56-47.37-75.84-75.99-110.01-21.56-25.75-52.32-40.67-79.02-59.96,49.95,2.16,82.18,23.87,106.34,66.64,5.5,9.73,15.91,39.87,24.22,43.93,8.5,4.15,17.82-11.53,26.6-12.53l38.83,3.96Z"/>
  <path class="st0" d="M1564,357.98c31.52-3.02,68.58,16.94,87.97,41.06,6.03,7.51,12.91,22.69,18.7,28.29,4.59,4.44,13.47,5.86,19.2,9.8,6.27,4.31,13.91,13.61,20.13,18.85-7.32.86-13.26-6.3-19.47-7.55-20.21-4.07-18.12,19.5-21.53,19.53-4.31-5.15-3.03-11.72-5.52-18.44-9.77-26.32-50.83-69.73-78.94-75.05-26.69-5.04-26.87,11.08-34.03,29.12-1.21,3.05,1.16,5.41-4.51,4.38,6.4-12.66-12.6-47.41-9.79-56.63,1.9-6.24,11.98-4.23,16.25-5.89,14.56-5.67,25.73-18.86,27.32-34.68.89-8.84-2.33-16.28-.79-24.77l10.24,25.91c1.25,21.22-8.08,34.94-25.23,46.06Z"/>
  <path class="st0" d="M853.99,795.99c7.55,46.67,21.76,14.92,46,4.02l-7.99,19.97c6.36,3.44,23.85-16.33,25.99-13.97l-1.7,16.65c2.05,6.14,20,8.29,25.72,7.33l-.98-16c4.7-1.06,3.09,8.6,10.86,11.13,7.91,2.58,21.54,2.42,30.11,2.89-1.76,18.2-23.29,24,8,24.98l-28.93,11.05c-5.63-.14-11.71.79-17.16-.93-5.3-1.67-7.88-8.48-12.99-9.16-5.36-.72-38.93,11.17-38.86,3.05,2.62-4.41,13.15-9.04,10.94-15.02-14.64,5.5-28.44,14.28-44.97,12.01-3.51-3.11,12.79-13.55,13.98-15.97-5.51-2-24.26-.29-25.86-5.26-1.56-4.85,4.93-11.74,5.71-17.95.87-6.9-.98-10.14-1.71-15.99-.49-3.96.46-2.87,3.85-2.83Z"/>
  <path class="st0" d="M1530,2220l-11.98,14c-1.16-12.77-20.9-17.57-31.14-21.88-1.77-7.42-2.42-24.85,5.57-28.67,8.92-4.26,17.46.99,26.25.42,10.69-.69,17.51-8.15,27.3-9.85-10.49,26.46,13.56,43.76,19.11,67.88,3.02,13.14,6.4,55.12-12.88,57.16-12.52,1.33-6.07-11.71-6.33-17.77-.57-13.05-15.89-24.6-15.89-32.29v-29Z"/>
  <path class="st0" d="M877.98,1578c-35.69-22.68-22.45-73.07-41.57-105.41-24.85-42.06-33.32,28.14-38.84,37.99-1.45,2.59-2.18,4.09-5.56,3.41.24-17.3,1.07-35.68,7.01-51.97,2.44-6.69,7.88-13.49,9.95-20.03,7.85-24.75-15.81-60.8-10.97-87.99l7.61,3.37c6.78,21.7,12.68,45.27,22.03,65.97,10.29,22.8,27.64,42.35,35.26,66.74s1.79,47.62,8.49,71.51c1.66,5.93,5.87,10.45,6.58,16.4Z"/>
  <path class="st0" d="M483.76,2113.77c-9.7.91-23.39,10.54-32.35,7.86-3.69-1.11-4.77-6.5-9.41-5.62l3.7,42.72c-8.92,6.81-21.27,5.53-25.17-6.27-4.26-12.92-9.58-46.9-11.99-62.01-2.24-14.04-1.93-28.47-4.53-42.45,23.32,24.59,76.47,25.13,79.74,65.77Z"/>
  <path class="st0" d="M1590.02,1262l4.25,6.73,7.71,33.25c8.72-18.78-1.69-37.68-1.76-55.22-.09-21.46,35.45-60.29,47.43-80.13,1.78-2.94,15.91-34.45,18.33-32.64.69,3.69,2.17,7.11,2.2,10.98.18,22.85-46.85,69.15-51.33,102.96-2.86,21.56,15.39,29.44,6.6,58.5-5.81,19.2-31.8,40.56-52.45,39.74-18.79-.75.13-15.8,5.35-24.84,10.02-17.36,18.56-39.37,13.68-59.34Z"/>
  <path class="st0" d="M530.01,721.99l.1-10.99-24.1-9.03c-4.17-4.44,14.15-6.95,15.99-7.99,3.77-4.99-15.1-9.42-17.99-10-3.45-4.57,14.71-10.34,18-10,4.65-4.49-14.69-6.37-14-11.96,13.72-.6,26.26-6.46,37.84-13.18,18.46-10.71,28.5-28.3,53.29-14.96,1.65,2.07,1.08,4.08-.06,6.17-1.36,2.5-17.83,14.35-22.12,19.9-2.32,3-6.01,7.94-6.61,11.56-2.66,15.88,23.38,14.11-1.39,34.44-10.25,8.41-25.76,15.05-38.94,16.04Z"/>
  <path class="st0" d="M1661.63,2700.35c3.58,6.21,2.95,10.39-1.62,15.63,12.73,1.18,14.6,6.81,1.02,8.03-27.86,2.51-65.41,2.02-92.81-1.22-15.09-15.17-14.82-3.93-25.38-2.79-6.28.68-16.76-5.63-18.42-11.41s-3.23-28.22,3.57-31.63c3.42-1.71,16.73-1.56,20.92-.85,13.03,2.2,13.19,18.43,30.59,21.4,15.85,2.71,18.38-2.77,29.99-5.04,14.76-2.89,36.03,8.77,52.16,7.88Z"/>
  <path class="st0" d="M1754,806l-11.98-19.99c.59,16.28-1.3,32.68-4.34,48.67-.24,1.26-1.32,15.6-5.65,11.31-1.18-6.25-3.43-12.67-3.99-19.03-.75-8.46,3.64-30.94-7.03-32.96-17.89-3.38-13.18,5.32-18.65,15.35-9.88,18.15-31.02,29.82-42.03,45.97-3.83,5.61-6.95,18.38-8.79,20.2-4.6,4.56-16.41.77-16.53,14.46-13.13-25.44,8.15-26.78,20.28-38.7,5.16-5.08,30.04-48.56,31.76-55.23,4.72-18.24-6.64-25.66-7.04-42.05,12.15,1.8,9.72,21.55,21.47,23.67,6.64,1.2,22.85-6.55,27.61-11.59,6.34-6.71,10.77-33.19,17.7-32.01,4.79.81,9.62,27.83,19.19,30.92l-12.97-3.03c-2.82.35.98,2.56.98,3.02v41Z"/>
  <path class="st0" d="M1429,1040c-2.73-.67-3-2.45-1.03-5.02,4.07-5.32,13.83-6.31,17.99-11.98-.07-2.88-38.39-19.62-43.77-20.06-6.89-.57-12.15,10.38-21.07,9.14-10.47-1.46-7.97-19.07-27.84-7.79-17.32,9.84-10.46,5.55-30.07,7.92-1.96.24-36.05,8.67-23.15-3.15,7.79-7.14,41.86-15.25,53.17-16.83,59.55-8.3,107.72,22.5,154.18,55.34,14.35,3.3,29.51-7.69,43.8-9.36,13.61-1.59,28.96.71,42.77-.21.94,5.69-1.17,3.34-4.62,4.26-22.93,6.15-51.4,3.67-71.34,20.72l5.67,8.35c-7.14,15.79-12.14-3.77-16.86-9.19-3.15-3.62-37.48-22.15-39.84-22.15-9.22,0-30.8,1.76-38,0Z"/>
  <path class="st0" d="M1008,279.98l-38-19.96,39,35.91c26.15-18.23,43.17-50.91,71.83-15.77,16.13,19.77,26.64,45.07,43.16,64.8l-6.02,2.07c-15.06-13.03-42.25-56.42-59.86-62.15-23.07-7.51-32.77,32.2-52.79,22.79-9.62-4.52-53.11-39.97-54.98-49.15-1.48-7.3,2.5-10.41,3.04-15.78.72-7.23-3.8-20.65,7.6-24.75l47.02,61.98Z"/>
  <path class="st0" d="M1480,2343.98c-9.04-.99-32.44,16.05-37.98,13.13-2.5-1.32-16.83-27.33-18.39-31.73-10.6-29.75,1.12-85.51,39.42-51.42,5.22,4.64,17.4,18.22,16.94,24.89-.31,4.52-4.6,8.28-5.52,12.59-2.83,13.13,2.06,20.86,5.55,32.54Z"/>
  <path class="st0" d="M1632.01,2639.99c13.81-1.59,31.05,2.82,35.04,17.95,5.52,20.92-8.73,25.11-25.97,26.14-38.37,2.3-20.37-11.76-23.08-37.09-2.03-18.97-11.78-24.27-28.11-30.3,13.48-78.19,64.75-33.13,42.12,23.3Z"/>
  <path class="st0" d="M1533.99,2305.99c-6.1-.82-6.93-6.92-12.9-10.09-11.77-6.24-19.2-2.98-31.09-.77-4.36-3.88-4.55-9.37-7.98-14.15-6.92-9.64-19.83-10.52-23.08-22.92-4.79-18.33,3.65-39.29,25.15-35.21,17.02,3.23,48.29,35.99,51.44,52.62,2.02,10.67-1.07,20.14-1.54,30.52Z"/>
  <path class="st0" d="M619.99,1180.01c-.46,14.69-6.76,28.44-7.96,43.02-4.24,51.75,6.61,101.92,27.03,148.9,9.95,22.9,21.03,46.53,38.94,64.04-13.34-3.61-23.33-19.09-30.83-30.15-37.79-55.68-81.26-151.48-40.81-214.47,1.66-2.58,9.84-15.19,13.63-11.35Z"/>
  <path class="st0" d="M1662.29,340.31c-4.7,7.91,22.16,31.38,19.7,33.68-12.2-4.13-24.96-14.16-32.07-24.91-17.49-26.46-18.06-22.39-39.94-42.06-11.57-10.39-23.16-22.88-32.98-34.98-13.72,13.03-4.44,50.96-17.93,62.03-11.21,9.2-51.12,1.16-47.07-4.05,12.37-4.71,28.74-2.65,37.98-13.05l-9.97-3.96c15.04-9.01,18.38-18.6,6.84-32.86-3.83-4.73-10.27-6.22-10.84-12.14l19.96,7.99c4.99-26.91,10.52-27.08,30.05-11.02,28.15,23.14,50.29,53.25,81.94,72.03l-5.67,3.3Z"/>
  <path class="st0" d="M608,732.01c-2.78,15.37-13.82,26.41-15.78,43.21-2.34,20.03,4.47,34.25,4.97,52.94l-21.17,15.84,2-9.98-5.83-.11c4.03-12.45-7.25-22.05-9.4-29.85-1.32-4.78,3.18-7.1,2.85-10.74-.37-4.1-9.05-10.64-5.5-18.18l-6.14-1.13c-.07-8.33,14.44-6.86,14-15.97-12.58-2.95-27.46-7.51-29.98-22.02,22.5,11.3,46.25-5.53,69.98-3.99Z"/>
  <path class="st0" d="M1536.01,2312c17.03,2.01,25.3.46,36.82,14.17,16.51,19.66,21.9,43.46,12.22,67.88-3.3,8.31-9.1,8.45-16.65,6.61-18.66-4.54-11.55-19.26-17.38-32.68-3.74-8.62-13.94-15.75-17.01-25.14l2-30.84Z"/>
  <path class="st0" d="M1708.02,710c.39-21.14-7.9-39.24-16.04-57.98l-10.14,33c.31,7.88,8.36,12.45,11.85,18.31,8.98,15.09,8.24,37.46,16.23,53.86l-2.91,6.78c-17.18-10.92-15.12-29.26-21.51-44.45-3.92-9.31-13.54-13.75-17.06-22.93-4.54-11.85-1.45-19.11,1.57-30.57-8.79,1.18-14.67-2.46-19.96-9.01,23.43-7.8,31.32-27.36,42.96-46.96l20.79,75.17c.72,7.24.83,19.93-5.77,24.79Z"/>
  <path class="st0" d="M499.99,896.01l-23.98,5.98c-.93-.89,10.62-21.88,12.43-22.66,11.27-4.87,20.32,3.66,31.55,2.65-31.09-26.42-44.98-58.49-27-97.94,6.28-.07,8.26,33.77,9.59,40.37,2,9.9,4.97,26.68,13.49,32.51,10.86,7.43,23.96,9.78,30.4,25.59,8.29,20.36-10.38,14.58-22.52,18.45-14.09,4.49-28.9,26.78-30.96,27-3.98.42-2.15-4.73-1.11-7.06,3.54-7.9,9.94-14.76,8.1-24.89Z"/>
  <path class="st0" d="M1636.04,668l7.94-6c6.93,21.88-25.34,22.25-12.88,41.91,2.79,4.4,9.13,7.74,11.72,12.25,9.95,17.3-12.85,35.41-14.84,51.85l-7.96-2.03c-2.68,10.64-7.24,20.74-9.51,31.53-1.09,5.2,2.21,16.11-4.5,14.49-2.54-16.9-3.6-35.78.54-52.46,4.63-18.65,27.7-31.93,5.47-47.55l-6,25.98c-4.78-23.24-6.52-54.45,15.85-69.18l-3.86-10.79c7.15-.05,17.02,1.43,18.03,9.99Z"/>
  <path class="st0" d="M1452,924.02c-2.96,6.64-13.73,7.01-11.99,15.97,16.82,3.2,27.21-12.85,43.99-11.97-14.18,9.99.75,26.12,11.96,29.18,5.29,1.44,11.27-6.72,17.55-.71l2.47,31.49-16.12-14.86-10.85-5.15c-4.75,3.65,4.64,12.06,2.96,14.02l-15.96-8-1.02,13.96-28.01-23.95c-3.45,4.11,11.18,13.54,2.04,13.97-6.44-7.32-15.27-11.29-22.82-17.19-5.35-4.19-7.47-13.38-18.21-12.81,14.19-9.43,25.7-21.46,43.99-23.96Z"/>
  <path class="st0" d="M1719.99,806.01c-1.97,14.74-4.28,30,5.98,42.46,3.01,3.65,21.55,13.96,6.01,13.55l4.01,21.97-5.62-3.36-20.35-34.61c-3.45,12.86-4.51,21.98,4.89,32.07,3.79,4.07,10.69,4.54,9.08,11.88-22.34,8.31-31.16-15.46-30.98-33.96-10.08,9.7-4.77,23.79-8.6,35.42-3.37,10.22-17.07,13.02-19.58,20.46-2.13,6.3,1.53,8.97.18,14.1l-12.67-18.66c5.21-10.37,23.18-23.37,21.65-36.23-.48-4.06-5.09-5.46-3.65-11.55,1.68-7.1,22.1-19.89,28.68-27.52,5.83-6.76,9.77-16.26,15.31-22.69,1.78-2.07,1.92-4.2,5.66-3.32Z"/>
  <path class="st0" d="M575.98,940c1.6,14.33,5.53,30.76,5.99,45.01,1.29,39.4-31.18,97.17-37.07,138.89-.37,2.65-.1,38.23-6.89,30.09.7-14.71-5.38-27.85-3.78-42.78,1.37-12.84,9.28-28.29,12.42-41.56,4.69-19.81,11.59-41.98-6.61-56.65,6.49-7.42,17.09,4.77,23.58-6.39,3.99-6.87,2.66-38.58,4.97-51.02.4-2.15,2.68-20.25,7.39-15.59Z"/>
  <path class="st0" d="M1493.3,592.7c10.04,9.58,23.47,29.38,24.68,43.3-19.24-16.09-41.59-42.48-67.46-47.52-3.31-.64-11.25-2.68-10.55,2.52,1.19,8.82,15.2,16.6,14.02,26.99-19.21-7.35-30.18-22.12-52.77-19.76-7.66.8-13.75,5.27-21.21,5.76,0-4.53-.68-11.04,2.11-14.86,3.05-4.17,7.41-2.39,9.9-4.09,6.81-4.65-4.42-18.6-8.02-23.01,6.43-4.93,29.54,20.63,33.45,21.7,4.87,1.33,18.86-6.26,26.06-7.19,18.54-2.38,36.3,3.3,49.79,16.17Z"/>
  <path class="st0" d="M470,2474c9.02,2.1,21.97,6.17,30.99,6.15,8.49-.02,15.04-4.82,22.97-5.28,10.86,7.68-3.87,16.64-5.62,22.59-3.23,10.97,8.44,18.41,17.65,20.57-9.31,9.16-20.98,15.1-21.01,30-9.81-.18-10-25.46-26.09-27.91-6.44-.98-14.45,2.32-18.89-3.11v-43Z"/>
  <path class="st0" d="M1547.99,297.99c-1.84,1.69-39.15-12.47-48.54-11.55-10.56,1.04-18.57,13.94-25.41,20.6-1.5.76-3.29-.09-4.57-.97-4.63-3.16-26.16-47.59-31.86-56.68-21.08-33.63-24.87-33.71-62.02-44-2.05-.57-6.05-.5-5.58-3.37,28.48-7.19,40.8-4.88,59.93,17.04,10.74,12.3,34.14,57.3,44.1,61.93,8.1,3.77,19.99-5.68,29.13-6.81,16.82-2.08,38.13,7.8,44.82,23.82Z"/>
  <path class="st0" d="M1403.99,1450.01c.93,4.26-2.18,4.54-4.64,6.34-47.87,34.87-24.88,75.59-46.27,119.73-2.16,4.45-10.25,19.11-15.07,16.93,8.35-16.83,9.75-38.27,9.97-57.01-13.81,15.62-26.27,35.26-45.98,43.98,10.25-18.03,27.78-33.12,38.39-50.59,18.5-30.49,16.29-78.87,63.6-79.38Z"/>
  <path class="st0" d="M1741.99,519.99l-9.97-3.99c1.91,6.57,1.12,13.93,2.5,20.48,3.99,18.92,19.68,33.3,21.47,53.5-5.12,1.16-3.5-1.39-5.17-3.75-5.99-8.46-8.49-19.56-16.8-26.23-5.84,18.81-10.96,37.76-32.01,43.99,15.54-43.46,15.76-91.2,6.01-135.99l33.97,51.99Z"/>
  <path class="st0" d="M1594.02,1188c.76-6.5,5.83-10.56,8.1-16.88,8.33-23.13.18-49.62,5.9-73.11,10-2.32,11.71,17.98,22.08,9.15,12.9-11,18.24-52,33.88-65.16.13,8.86-4.48,16.63-5.77,25.21-2.7,17.95,1.11,44.36-16.29,55.71-7.48,4.87-18.97,4.97-21.5,16.5-4.72,21.55,4.33,42.03-26.39,48.58Z"/>
  <path class="st0" d="M1465.8,2071.81l2.15-6.72c3.86-5.71,9.71,14.48,13.92,18.03,6.58,5.55,21.19,3.19,20.26,13.84-1.12,12.86-29.49-6.46-37.08-9.02-19.77-6.69-36.93-8.13-54.07,5.84-5.69-.06-5.8-16.35-4.94-20.75,1.65-8.44,15.95-12.83,1.95-25.01l12.09-.93,1.79-2.34c.73-2.64-4.84-10.64,1.08-8.71,3.9,1.27,15.62,6.85,18.17,9.84,7.76,9.11,3.11,28.28,24.67,25.94Z"/>
  <path class="st0" d="M1165.99,1612.02l-14.94,8.03c-30.81,14.46-57.81,3.66-89.05-.03,5.56,13.14,19.67,18.84,30.69,26.29,2.06,1.39,6.25,4.01.33,3.69-11.81-4.39-57.26-16.06-64.05-23.97-1.18-1.38-2.09-3.56.06-4.03l9.66-1.83,2.56-5.17-15.23-19.97c2.67-3.97,2.93-2.03,5.57-1.68,9.01,1.18,17.47,7.35,25.89,10.18,36.36,12.23,70.48,12.51,108.52,8.49Z"/>
  <path class="st0" d="M1276.01,985.99c20.47-1.64,44.66-8.59,65.02-5.99,2.76.35,6.26,1.49,2.97,4-18.4,3.54-68.39,8.34-77.74,25.28-7.01,12.71-7.36,43.79-8.28,58.74l-5.85-.11c-7.28-27.66-9.07-83.41,17.95-100.81,9.27-5.96,21.39-5.79,30.92-11.08,3.17,1.96-.48,4.47-2.05,5.95-2.41,2.28-26.48,20.7-22.96,24.02Z"/>
  <path class="st0" d="M1670,968.02l1.24,4.11c7.62,2.3,15.46,7.31,10.57,15.7-4.29,3.12-17.29-7-23.13-7.27-4.99-.23-10.87,4.86-16.68,3.41,22.77-33.21-24.03-44.37-21.98-75.98l7.96,2c-.41-11.32,10.31-11.06,17.04-15.98,6.32-4.62,10.56-12.5,15.99-18.01,2.76,1.4.11,5.26-.88,7.12-2.26,4.23-18.38,25.44-18,27.61,12.58,8.66,4.06,21.42,13.85,32.29,7.87,8.74,44.99,17.74,14.02,25Z"/>
  <path class="st0" d="M1545.98,2144c.12,2.74.73,3.91-1.3,6.13-1.19,1.3-22.56,14.4-24.62,14.94-7.5,1.97-33.05,2.3-35.68-6.46-3.66-12.22,5.37-35.63-10.34-43.58,6.56-14.17,23.98-3.87,32.9,3.02,11.52,8.89,23.67,32.52,39.03,25.95Z"/>
  <path class="st0" d="M1610.01,333.99c2.07,1.89,12.78-10.44,20.13-5.12,1.06.77,7.29,19.98,11.86,23.12-6.39.16-11.36-4.14-17.47-5.52-1.98-.45-7.04-2-6.52,1.52,32.5,11.63,61.75,41.05,71.97,74.02-2.01,2.5-20.56-21.76-22.92-24.06-7.4-7.2-20.86-18.99-29.19-24.81-8.42-5.88-40.83-19.74-44.01-23.98-5.99-7.98,3.17-11.79,5.06-17.23,3.5-10.04.39-19.35-4.91-27.9,4.29-1.05,4.47,2.4,6.43,4.55,5.92,6.49,12.33,16.55,9.58,25.42Z"/>
  <path class="st0" d="M608.01,391.99c-1.69-1.63,11.82-18.53,15.4-19.58,12.22-3.56,38.65,1.35,53.42-.58,9.41-1.23,20.84-9.71,28.23-9.99,9.81-.38,18.13,13.86,26.54,19.13.82,9.16-22.42,12.97-28.72,13.1-26.08.54-51.51-15.86-77.39-9.55-3.48.85-16.6,8.34-17.49,7.47Z"/>
  <path class="st0" d="M721.99,1425.99c-4.83.56-7.34-4.36-9.01-7.96-10.08-21.63-16.87-75.29-15.05-99.1.84-11.04,14.86-75.93,29.04-72.92,2.87,2.18,3.23,2.98,2.69,6.56-.98,6.4-9.07,19.08-11.1,28.98-3.76,18.29-5.93,46.49-6.63,65.37-1,27.07-.02,53.65,10.07,79.07Z"/>
  <path class="st0" d="M1757.99,627.99l-9.97-5.99,4.01,22.97-3.99,1.01c-4.84-7.33-13.03-22.61-19.01-28.02-2.51-2.26-4.43-1.35-5.01,1.09-2.01,8.37,8.07,15.7,9.57,22.36,2.33,10.33.93,27.66-3.83,37.33l-9.73,15.24c7.09-29.47-5.9-54.69-14.03-81.98,14.82,4.77,21.76-24.99,32.69-21.82,6.58,13.08,21.11,22.11,19.31,37.8Z"/>
  <path class="st0" d="M1057.42,1422.27c5.04-1.4,41.52,11.21,43.69,15.76-4.11,28.22-4.87,36.28-35.13,28.99-8.27-1.99-19.85-4.24-21.67-14.49-1.01-5.67,6.95-28.55,13.11-30.26Z"/>
  <path class="st0" d="M1547.98,1260c-4.8-1.02-2.34-3.66-2.62-5.6-5.07-34.42-19.72-57.79-45.33-81.42-29.28-27.02-50.67-22.64-84-36-2.06-.83-20.16-9.01-16.02-12.96,6.88,1.54,13.03,5.36,19.93,7.05s15.89,1.56,22.52,3.48c57.96,16.73,119.59,55.88,105.52,125.46Z"/>
  <path class="st0" d="M1656.01,809.99c2.71-24.77,3.88-55.75-.52-80.47-3.37-18.92-13.08-16.41-21.07-30.83-.64-6.85,17.94-18.65,20.58-26.65,6.28,5.3.66,13.37.93,20.85.76,20.71,11.86,19.94,21.2,30.97,9.04,10.67-7.73,11.64-9.14,19.12-3.93,20.75,18.2,61.98-11.98,67Z"/>
  <path class="st0" d="M1612,853c2.01-12.12,17.08-22.41,18.03-28.1,2.13-12.8-13.74-25.16-9.14-39.01,2.75-8.27,11.02-6.08,15.23-10.78,3.08-3.43,6-14.26,5.9-19.12,2.53-3.27,3.64.23,3.99,2.98.6,4.68.46,13.26.08,18.12-.74,9.52-4.96,19.04-4.18,27.91.65,7.45,6,11.43,6.27,19.98.63,19.46-12.24,15.33-19.09,25.1-6.45,9.2-5.15,28.01-17.08,31.92,1.03-8.94-1.41-20.48,0-29Z"/>
  <path class="st0" d="M1190,1011.98c-35.85-2.71-29.37,21.2-35.43,45.59-6.21,25.01-20.16,54.68-46.56,62.42,6.29-14.99,18.86-25.71,26.37-40.61,19.45-38.6,14.68-87.33,19.65-129.37,3.66.77,3.7,3.93,4.06,6.93,1.41,11.84-.94,36.68,4.15,45.84,6.24,11.23,21.18-.39,27.77,9.21Z"/>
  <path class="st0" d="M1761.98,694l-8.01-11.98c-3.35-.44-2.27,7.13-2.07,9.08,1.35,13.23,12.78,24.44,10.09,38.9-5.68,1.03-3.28-1.39-4.5-4.39-2.25-5.54-3.93-14.07-9.47-17.59,2.74,20.15-13.19,14.23-23.97,22.98,6.86,5.66,4.32,16.75-1.05,22.97-3.34-.06-13.77-28.98-12.65-34.48,1.82-8.94,9.22-7.52,14.67-11.46,6.9-4.99,12.58-14.99,14.87-23.13,2.52-8.97.46-28.67,10.83-28.65,8.17,2.22,8.78,29.97,11.27,37.76Z"/>
  <path class="st0" d="M1723.99,906.01c1.46,6.77-7.33,3.8-10.94,8.05-1.21,1.43-2.29,5.43-2.61,7.46-1.66,10.55.24,7.51,6.13,10.49,7.86,3.98-9.24,5.67-11.61,7.97-4.99,4.83-3.41,26.28-16.95,30.03l3.1-14c-11.2-7.31-26.57-9.13-31.11-23.99l11.02,3.96c10.22-2.09,5.57-12.69,7.85-20.09,2.31-7.5,15.61-13.15,11.13-25.87,6.12-.66,7.32,6.84,10.96,10.02,6.47,5.65,14.67,6.75,23.02,5.98Z"/>
  <path class="st0" d="M1069.99,887.99c-6.67-1.24-13.85,1.62-20.09,1.12-3.53-.28-38.12-9.04-39.82-10.2-7.14-4.87,3.82-3.79,1.91-8.89l-31.98-2.05,23.88-13.21c.41-2.32-1.56-3.4-2.79-4.86-4.01-4.76-12.91-5.5-13.09-11.9l21.98,5.98c1.3-7.53-2.26-12.69-7.02-18.02l3-3.97c4.38,15.26,20.26,20.89,32.04,29.03-22.69,30.77,25.87,17.15,31.98,36.95Z"/>
  <path class="st0" d="M1540.02,1146c1.96,8.49,6.57,17.02,2.99,25.99-9.74-12.33-15.55-25.71-28-36-4.8-3.96-13.31-6.47-16.99-11.97,8.03-3.15,17.93-1.8,25.97.98,9.49,3.28,16.29,12.19,26.01,14.97l-15.98-25.01c-3.63-9.04,16.19,6.08,18.07,7.94,14.62,14.53,19.52,31.98,21.78,51.98l-4.85,3.1-29-32Z"/>
  <path class="st0" d="M1673.98,996.04c4.75,5.38-14.69,4.67-15.98,5.98l3.17,5.87-2.3,4.06-12.86-1.95,3.99,21.97c-4.33,3.65-24.48-20.13-26.9-24.07-7.45-12.14-1.74-22.95-3.32-36.69-1.45-12.71-9.45-24.22-9.76-37.22,8.28,8.36,24.28,31.59,24.04,42.91-.13,6.38-7.91,26.99,6.54,22.77,7.02-2.05,7.7-13.5,23.48-8.78.62.18,9.53,4.72,9.9,5.14Z"/>
  <path class="st0" d="M925.99,966.01c.67,2.06-1.23,5.53-2.95,5.75-2.88.37-29.19-9.98-33.02-13.76,4.68,14.82,15.93,26.03,27.97,35.01-12.17.87-32.5-13.36-39.65-22.35-8.25-10.38-22.65-39.48-1.19-42.58,21.8-3.15,15.65,13.62,24.77,25,5.38,6.73,15.33,12.62,24.08,12.93Z"/>
  <path class="st0" d="M1113.35,1438.29l37.85,5.51c6.42,8.85,2.34,29.78-9.09,33.3-8.34,2.57-34.58-3.57-36.16-12.13-.93-5.04,2.17-24.96,7.4-26.68Z"/>
  <path class="st0" d="M1281.97,108.01c-.78,14.21,36.36,26.31,27.77,39.73-2.92,4.56-22.84-1.01-28.4-.95-13.33.14-20.75,7.39-34-1.12-6.73-4.32-10.59-7.24-2.41-11.74,9.51-5.23,24.12-7.52,21.08-21.93,4.51-.79,3.19.18,4.47,2.55,3.13,5.82,1.54,13.91,11.52,13.44-1.63-3.64-9.13-20.56-.03-19.97Z"/>
  <path class="st0" d="M1552.58,240.6c-4.61,3.76-5.58,15.57-6.59,21.4-1.56.14-3.08.02-4.62-.33-1.81-.42-27.45-17.33-30.31-19.72-6.08-5.09-10.4-11.66-15.05-17.93,14.03-.96,19.84,11.79,35.07,10.12,9.01-.99,12.79-13.17,25.39-11.79,7.02.77,41.27,19.27,41.5,24.65.13,2.83-2.97,2.19-5.28,1.37-10.49-3.73-29.23-16.63-40.11-7.77Z"/>
  <path class="st0" d="M1085.98,872c.83-1.05-7.43-27.46,0-19.99,3,3.02,6.71,29.27,22.01,22-1.79,9.44-3.68,12.3,3.02,20.09,1.6,1.86,8.32,1.6,3.99,5.91-18.65,1.91-30.5,6.3-48.98-2.04l17.14-5.94c6.38-10.37-31.56-26.45-39.14-27.03l13.98-5.03-5.98-10.99c-.43-1.35,1.9-1.45,2.96-.97,1.94.87,28.8,26.78,31.01,23.98Z"/>
  <path class="st0" d="M1569.42,2636.43c23.71-6.95,41.92,23.66,23.69,39.68-26.3,23.1-42-34.31-23.69-39.68Z"/>
  <path class="st0" d="M1507.04,2302.97c20.3.55,29.72,32.66,9.48,42.56-27.87,13.64-41.08-43.41-9.48-42.56Z"/>
  <path class="st0" d="M1261.98,1282c-3.23,25.13-36.04,61.27-60.97,64-17.32,1.9-40.89-4.48-54.97-15,3.04-4.57,3.79-1.66,7.04-1.11,32.8,5.49,66.64.91,92.01-23.8,7.29-7.1,10.29-16.85,16.9-24.08Z"/>
  <path class="st0" d="M680.02,929.97c.97-3.56,9.97-3.93,12.9-4.04,23.23-.94,46.17,7.29,68.93-6.13.63-3.21-.48-6.69-2.46-9.22-7.49-9.56-35.95-16.68-45.38-26.56,21.76,6.27,52.6,7.16,64.1,29.08.68,7-17.64,18.55-23.59,20.39-8.21,2.55-35.86,1.27-45.6.59-9.16-.64-19.8-2.48-28.9-4.11Z"/>
  <path class="st0" d="M441.98,1928c-6.81-5.59-2.27-14.09-8.27-22.7-4.58-6.57-27.99-18.76-7.2-25.7,12.13-4.05,22.72-4.33,33.38,3.52,21.28,15.68-17.62,26.48-17.9,44.88Z"/>
  <path class="st0" d="M616,530.02c3.78,3.63-12,8.65-13.88,9.1-10.93,2.65-19.23.32-28.53,1.28-10.2,1.06-17.6,8.87-27.57,9.58,3.8-15.72,22.91-25.01,38-26,3.09-2.48-.02-3.65-2.97-3.99-7.71-.9-17.71-1.74-25.02,0-.98-5.23,1.01-3.52,3.97-4.91,10.79-5.08,20.38-7.21,31.41-1.48,8.82,4.58,13.07,17.05,24.61,16.42Z"/>
  <path class="st0" d="M509.45,2206.39c20.53-4.53,33.78,25.04,17.58,37.64-24.16,18.79-44.23-31.76-17.58-37.64Z"/>
  <path class="st0" d="M1316,1025.97c14.26-13.18,27.01,4.31,38.63,10.39,21.18,11.08,38.36,1.89,58.32,5.68,3.18.6,9.71,5.66,9.04,8.92-2.38,3.75-3.23,2.22-5.99,2.14-15.14-.43-30.57,2.44-46.1,0-19.85-3.12-36.91-17.67-53.9-27.13Z"/>
  <path class="st0" d="M1099.97,930.01c4.84,4.85,5.65,62.17,2.52,69.49-1.74,4.09-7.09,8.14-11.59,8.42-3.61.23-35.82-5.97-32.9-9.89,9.55-4.28,30.34-8.23,34.49-18.53,5.46-13.56,1.76-32.79,3.5-46.53.35-2.77,1.1-5.83,3.97-2.96Z"/>
  <path class="st0" d="M982.95,1397.03c5.92-.34,14.89,1.5,19.19,5.82,5.44,7.67-4.78,51.16-24.27,34.27-11.69-10.14-.79-22.92-3.59-35.77l1.68-2.37c2.19-1.2,4.51-1.81,6.99-1.95Z"/>
  <path class="st0" d="M1384,928.02l-1.99,5.97c9.45-1.22,20.21-3.02,29.63-3.51,8.75-.46,13.03,3.43,2.77,6.89-9.37,3.16-17.84,2.94-22.4,13.66l15.98,3c.42,7.73-9.19,6.4-14.98,5.96-11.68-.88-22.51-8.5-35.01-5.99-3.96-3.8,16.61-30.73,25.99-25.97Z"/>
  <path class="st0" d="M1128.01,1875.98c-.47-2.88,3.47-2.71,5.57-3.38,9.31-2.99,18.41-4.34,27.78-8.24,15.32-6.36,29.29-17.75,44.62-24.36,3.54,4.5-22.1,35.04-28.58,38.4-17.04,8.83-31.98-2.29-49.39-2.42Z"/>
  <path class="st0" d="M1015.43,1410.33c3.92-1.15,27.48,8.34,28.37,10.96,2.75,8.08-7.42,29.98-18.32,28.36-19.57-2.9-19.75-36.47-10.05-39.32Z"/>
  <path class="st0" d="M1111.8,1517.78c-31.94,2.46-19.79-18.11-23.94-38.41l15.17-9.35,10.99,12.96-2.21,34.8Z"/>
  <path class="st0" d="M1078.01,1237.99c8.97-32.04,1.34-59.42-8-89.98,2.58-2.8,13.07,10.51,14.38,12.6,10.54,16.86,11.96,40.5,6.56,59.33-.64,2.25-8.59,22.9-12.94,18.04Z"/>
  <path class="st0" d="M1264,945.98c12.04-25.95-11.5-50.95-7.98-77.98,10.23,4.66,18.29,13.87,19.8,25.18.86,6.41,2.66,31.87,1.72,37.33-1.08,6.28-6.54,14.7-13.54,15.47Z"/>
  <path class="st0" d="M1081.97,1478.07c-5.19,14.16,5.62,34.06-15.32,26.27-19.81-7.37-19.59-13.73-14.46-34.17l29.78,7.9Z"/>
  <path class="st0" d="M1191,912c-16.52,1.78-33.35,12.59-47.98,20.02-3.35-2.04.67-4.43,1.97-6.03,9.17-11.3,16.01-21.54,31.3-24.69,15.08-3.11,35.5.09,47.69,9.72.51,6.13-2.17.98-2.99.98-9.4,0-21.01-.97-30,0Z"/>
  <path class="st0" d="M1364,928.02c1.94,1.5-14.57,21.43-18.03,22.95-4.42,1.95-17.51,2.01-24.38,3.62-5.81,1.36-10,4.44-15.58,5.4l4.01-8.94-9.17-4.95c-3.5-4.77,4.39-12.94,8.16-16.04,6.16,8,13.34,8.54,22.9,8.13l1.13,5.84c13.59-.82,18.14-15.83,30.97-16.01Z"/>
  <path class="st0" d="M1613.96,1004.01c1.89,10.89,21.11,25.84,22.04,35.17.69,6.86-4.81,12.96-5.83,19.98-1.11,7.66,3.6,24.38-8.19,19.81,2.83-11.85-6.87-23.67-7.99-34.01-.8-7.34,6.1,3.14,6.07-4.01-.06-11.68-7.23-24.72-10.09-35.94l3.99-1.01Z"/>
  <path class="st0" d="M1037.91,1454.06c6.52,13.33,6.85,21.33,4.08,35.95-18.24-3.07-35.64-14.65-26.05-35.16l21.98-.79Z"/>
  <path class="st0" d="M1194,1444c4.31,22.79-12.08,31.69-33.15,24.14-.65-4.55-1.55-24.14,4.15-24.14h29Z"/>
  <path class="st0" d="M839.99,1029.99c-15.15-.29-31.76-5.59-46.77-3.75s-30.31,14.48-45.22,17.75c10.71-25.91,49.88-29.62,74.52-25.5,2.47.41,22.05,7.61,17.47,11.51Z"/>
  <path class="st0" d="M545.99,1261.99c-5.73,1.09-3.21-1.56-4.52-4.37-8.22-17.65-13.35-37.17-19.45-55.62.45-.55,9.39,5.85,12.99,5.86,6.23,0,9.07-8.97,13-2.82l-2.02,56.95Z"/>
  <path class="st0" d="M897.99,716.01c.87,4.59-2.11,4.52-5.07,5.91-25.01,11.76-17.97,15.21-33.39,26.61-6.8,5.02-16.57,6.08-24.29,9.71-5.16,2.43-7.92,7.07-13.24,7.74,12.84-26.5,48.34-43.52,75.99-49.97Z"/>
  <path class="st0" d="M1576,1065.98c-37.5,6.87-34.51,11.85-10,36l-38.01-21.01c5.77-7.17,4.27-8.75,5.16-17.17,13.39-1.25,32.35-8.48,42.85,2.18Z"/>
  <path class="st0" d="M1007.99,960.01c5.81,29.69-60.3,33.22-67.97,14.96.46-6.67,14.32-1.03,18.9-.89,14.24.42,28.11.21,40.57-7.63,4.56-2.87,3.17-7.33,8.5-6.44Z"/>
  <path class="st0" d="M1147.99,1515.99c-33.73,8.65-17.49-12.02-23.98-33.98,6.84,3.52,21.68-.76,25.03,5.99l-1.05,27.99Z"/>
  <path class="st0" d="M590.01,435.99l6.01-17.99c7.97,1.71,18.99,3.57,27,3.98,5.01.26,37.09-1.86,36.94,3.02-21.3,17.29-46.57,2.05-69.95,10.99Z"/>
  <path class="st0" d="M1158.01,1475.99l21.85,7.27c-2.37,7.03.4,24.69-5.85,27.74-21.68,10.55-17.27-22.29-16-35.01Z"/>
  <path class="st0" d="M640.01,825.99c.6-8.65-4.57-17.53-.96-25.96,2.35-5.49,21.81-20.37,26.93-26.03.45,6.24-9.38,13.8-9.29,19.02.08,4.38,8.74,8.18,4.33,16.99l-21.02,15.98Z"/>
  <path class="st0" d="M944,1380.02c2.78-1.52,21.36,10.51,22.96,14,4.22,9.21-.81,24.9-13.04,21.14-13.83-4.26-8.62-24.59-9.92-35.14Z"/>
  <path class="st0" d="M1054,1054.02c-9.66,25.06-29.71,49.51-58,51.96l58-51.96Z"/>
  <path class="st0" d="M1141.99,537.99c-9.4,2.31-14.08-4.89-21.41-7.57-13.41-4.91-20.67-5.37-33.09-12.99-4.98-3.06-11.39-1.39-9.48-9.42,16.56,4.31,35.4,8.47,50.7,16.28,5.97,3.05,14.53,5.33,13.28,13.7Z"/>
  <path class="st0" d="M1710.02,1034c.32-15.17,12.81-32.64,2.01-46.47-2.63-3.37-8.63-4.63-10.03-9.51,43.38-11.51,22.3,38.08,8.02,55.98Z"/>
  <path class="st0" d="M1243.99,1224.01c.9,4.06-.86,5.34-2.9,8.08-16.79,22.56-40.48,35.02-69.09,33.89,16.98-15.99,45.06-14.93,61.8-31.17,4.01-3.89,4.4-11.18,10.19-10.8Z"/>
  <path class="st0" d="M1216.01,1475.99c3.87,19.75-10.71,23.02-26,28l3.87-27.11,22.13-.89Z"/>
  <path class="st0" d="M810,895.98l-49.99-29.96c28.51-9.14,40.45,5.92,49.99,29.96Z"/>
  <path class="st0" d="M1257.04,1434.08l2.18,4.07c-5.24,12.82-9.78,29.15-27.27,22.91l3.86-22.25,21.23-4.72Z"/>
  <path class="st0" d="M1228,1442.01c-.4,20.65-10.7,26.47-30,19.97l5.84-19.05,24.16-.91Z"/>
  <path class="st0" d="M981.96,932.05c1.43,17.46-21.75,37.21-29.66,12.9,7.37-6.33,15.3-6.78,13.73-18.95l15.94,6.05Z"/>
  <path class="st0" d="M687.99,1158.01c-1.71,9.55-8.35,16.25-11.03,25.95-2.54,9.19-1.92,16.33-2.96,25.07-.33,2.8-1.24,5.9-3.98,2.97-6-19.83-8.59-49.87,17.97-53.99Z"/>
  <path class="st0" d="M1543.99,1284.01l2.02,28.95-4.04,2.08-2.96-5.03c-3.41,1.25-15.02,21.72-19.01,17.97,6.22-12.73,11.98-29.68,19.51-41.4,1.26-1.97-.2-3.58,4.48-2.57Z"/>
  <path class="st0" d="M1174,1642.02c-1.77,4.27-8.42,5.35-12.44,6.54-15.32,4.51-36.35,6.64-49.54-3.59-.8-4.4,1.76-2.99,4.76-2.77,19.4,1.46,37.83,2.41,57.22-.18Z"/>
  <path class="st0" d="M1459.99,177.99c-.82-5.16.53-3.11,2.83-4.17,3.28-1.52,12.7-4.35,16.08-3.87,4.66.66,6.6,5.63,10.43,7.73,3.81,2.1,22.53,9.36,22.64,11.33.2,3.77-5.71,1.98-7.6,1.67-13.8-2.2-29.21-13.21-44.36-12.69Z"/>
  <path class="st0" d="M921.88,918.12c5.31,11.63,2.01,18.65-2.87,29.87-12.85-10.7-22.79-30.8,2.87-29.87Z"/>
  <path class="st0" d="M1009.99,1444c.04,4.91.27,9.84-.23,14.76-.22,2.18-.9,12.82-4.73,11.22-3.01-3.18-19.9-17.92-17.02-21.96l21.99-4.03Z"/>
  <path class="st0" d="M930.99,936.23c2.1,4.87,14.99,6.4,15.93,7.71,2.52,3.5,6.63,13.13,1.04,15.12-13.06,1.21-31.14-10.87-16.96-22.83Z"/>
  <path class="st0" d="M1399.99,1031.98c-9.31,3.25-16.09,5.37-25.9,1.93-3.73-4.51,7.68-16.85,12.91-17.98,3.7-.2,14.25,14.39,12.99,16.06Z"/>
  <path class="st0" d="M1375.99,1014.03c-2.74,17.75-19.36,16.69-25.61.94l10.63-8.31,14.98,7.38Z"/>
  <path class="st0" d="M1417.92,1014.09c-3.19,20.6-20.62,11.15-22.07-4.86,7.53-7.41,13.76,4.41,22.07,4.86Z"/>
  <path class="st0" d="M1237.99,1468.01c3.14,14.13-5.33,19.44-17.98,21.98l4.95-21.62,13.03-.36Z"/>
  <path class="st0" d="M1570,997.98c-6.15-.17-12-.21-18.11.91-8.96,1.65-13.96,6.1-21.89,9.09,6.78-17.36,26.64-23.36,40-10Z"/>
  <path class="st0" d="M1245.99,979.99c-.93.88-15.58-5.26-19.48-5.5-6.42-.38-12.22,3.77-18.5,2.52,6.65-14.37,33.72-11.65,37.98,2.98Z"/>
</svg>