<?xml version="1.0" encoding="UTF-8"?>
<svg id="Layer_0_xA0_Image" xmlns="http://www.w3.org/2000/svg" version="1.1" viewBox="0 0 2732 2048">
  <!-- Generator: Adobe Illustrator 29.8.4, SVG Export Plug-In . SVG Version: 2.1.1 Build 6)  -->
  <defs>
    <style>
      .st0 {
        fill: #bd872c;
        stroke: #000;
        stroke-miterlimit: 10;
        stroke-width: .25px;
      }
    </style>
  </defs>
  <path class="st0" d="M960,2048c-10.91-13.89-32.36-28.85-42.05-42.95-1.15-1.68-2.73-2.1-1.94-5.01l114.99-62c4.84.1,13.32,40.38,20.97,43.96l55.63-147.39c3.75-7.04,11.45-11.7,19.35-12.65,9.08-1.09,37.07-1.15,45.67.51,5.81,1.12,8.77,6.9,9.46,12.45,4.56,36.79-.21,95.89-2.17,134-.54,10.4,2.76,29.65-2.79,37.21-6.68,9.11-20.68,10.76-31.14,9.86v20.01s-115.99,0-115.99,0l7.01-23.99-31.01,35.99h-46Z"/>
  <path class="st0" d="M1776,0c1.47,8.4,10.65,11.42,16.07,16.93,4.85,4.93,21.19,21.6,24.03,25.96,1.53,2.34,2.63,4.06,1.82,7l-114.82,60.16-18.09-42.06-60.08,149.92c-2.64,3.22-8.4,6.81-12.38,7.62-5.57,1.13-44.27,2.9-48.65,1.56-19.79-6.09-10.05-48.57-9.81-64.02.54-33.76-3.91-78.11-.13-110.13.86-7.25,5.91-14.37,12.9-17.1,14.65-5.74,27.78,6.38,22.18-19.96,3.52-8.24,24.95-1.98,31.88-1.81,27.65.7,55.44-.7,83.07-.07l-7,23.98L1730,0h46Z"/>
  <path class="st0" d="M1690,1196.02c-33.81,43.31-34.52,124.39,15.4,155.58,26.61,16.63,62.78,21.27,92.62,11.41l33.97-17.01c-.35,5.4-5.58,7.88-8.38,12.6-17.03,28.67-15.01,70.38-1.32,100.11,24.19,52.55,98.45,62.57,148.17,44.74,12.34-4.43,19.76-13.2,31.54-17.44l-177.02,177.97-2.96-.97c30.88-41.8,34.47-107.29.03-148.06-30.91-36.59-108.36-44.17-144.03-10.95-1.11-1.32,11.28-21.88,12.94-26.03,15.26-38.08,7.49-86.65-23.92-114.01-28.26-24.62-78.35-24.07-112.43-12.34l-32.6,18.38,167.99-173.97Z"/>
  <path class="st0" d="M1498,248c.96,5.86-1.37,3.25-4.66,4.25-24.23,7.37-38.31,10.88-58.28,27.81-37.51,31.79-54.4,77.42-31.42,123.3,15.36,30.64,47.04,59.95,82.35,62.66l-27.35,9.62c-53.76,26.01-85.45,88.92-44.58,141.3,19.26,24.68,40.56,42.34,71.44,50.56,4.68,1.25,14.29-.98,16.49,4.48l-238.96,6.08c-5.93-.04-2.2-2.65.48-3.55,43.61-14.57,78.8-30.98,95.05-78.95,18.79-55.49-35.98-122.52-92.56-125.58,2.95-6.32,11.81-3.22,18.12-4.85,38.76-10.03,75.87-60.48,73.95-100.2-2.87-59.03-54.39-99.94-107.21-112.88-3.41-.83-5.8,1.98-4.86-4.05h252Z"/>
  <path class="st0" d="M2007.99,569.99c-9.38-3.87-17.18-10.35-26.63-14.35-102.32-43.25-186.55,44.56-144.99,144.98-.44,3.59,12.37,10.99,9.62,13.37-1.22,1.06-16.45-9.38-20.02-10.96-60.59-26.92-131.92,1.78-137.96,71.99-3.1,36.12,2.73,66.46,25.98,94.96l-175.99-165c-.22-7.57,7.97,2.01,10.59,3.42,54.51,29.38,130.57,24.98,154.92-39.87,14.49-38.6,8.98-75.58-15.52-108.5,12.52,5.8,19.98,13.44,33.98,16.99,101.44,25.78,161.6-75.1,121.72-161.72-4.33-9.4-12.36-15.5-13.69-25.29l177.97,179.99Z"/>
  <path class="st0" d="M2144,904v250c-6,1.01-3.15-1.59-4.21-4.7-16.27-47.89-44.43-93.67-100.81-99.28-51.06-5.08-108.33,43.46-113.98,94-8.61-55.67-61.82-102.34-119.49-89.51-26.38,5.87-63.3,43.53-73.86,68.14l-11.62,37.35-6.09-238.95,4.07-3.04c2.6,32.64,21.49,60.7,47.38,79.64,31.48,23.03,56.61,28.88,93.34,12.08,35.44-16.2,58.93-49.27,64.29-87.73,4.2,19.91,8.03,34.82,21.04,50.98,57.55,71.47,148.36,41.86,186.29-31.62,6.67-12.92,5.89-19.95,9.39-32.71.94-3.45-1.44-5.54,4.28-4.62Z"/>
  <path class="st0" d="M1015.99,890.01l3.99,239.99c-3.9-.7-3.26-4.22-4.07-6.91-12.02-40.25-35.14-76.54-77.93-90.07-55.24-17.47-121.88,36.61-125.01,93l-7.46-24.53c-13.22-36.69-59.17-69.38-98.59-67.55-53.45,2.49-108.69,59.08-112.95,112.07l-3.01-1.96,1.05-250.02,15.24,39.73c24.27,44.29,76.45,79.3,127.45,59.96,34.38-13.03,73.07-49.11,73.31-87.71,6.04,4.68,5.54,15.22,8.43,22.55,20.21,51.17,87.63,91.06,137.37,54.28,28.72-21.24,48.85-44.8,57.7-80.3,1.23-4.92-2.26-14.16,4.47-12.52Z"/>
  <path class="st0" d="M1058,546.02c-30.73,40.45-29.39,104.66,9.98,139.01,31.07,27.1,90.66,24.18,126.06,6.01,2-1.02,21.42-16.17,17.95-8.06l-164.99,171.02c-2.98-1.56.45-4.81,1.43-6.57,19.02-34.17,25.77-56.41,16.99-95.82-14.79-66.35-88.74-87.5-145.49-58.68-3.1,1.57-16.56,12.41-17.91,11.07,1.82-6.75,8.13-10.96,11.63-17.34,17.68-32.24,11.59-85.29-11.71-113.58-30.63-37.19-91-42.46-134.37-28.5-14.12,4.54-20.38,12.31-33.55,17.43l177-177.98c2.87,1.42-.39,4.89-1.31,6.7-5.62,11.11-12.88,21.23-16.31,33.69-26.68,96.9,47.19,163.61,141.05,135.05l23.55-13.43Z"/>
  <path class="st0" d="M1198,1345.98c-11.97-3.17-20.91-11.81-32.92-16.06-42.72-15.1-102.84-6.7-126.68,35.48-22.36,39.58-18.76,89.27,9.6,124.58-1.17,1.08-16.09-10.03-19.29-11.69-46.02-23.9-111.07-6.26-135.09,40.34-16.4,31.83-17.83,84.34-1.98,116.73,3.91,8,12.16,13.86,14.35,22.63l-177.97-175.02c-.76-2.56.43-3.96,2.95-2.95,6.44,2.57,16.2,10.4,24.32,13.69,35.99,14.61,78.72,13.66,112.1-7.33,45.89-28.85,54.82-108.3,22.61-150.37.91-.82,18.86,9.67,22.03,10.95,44.33,17.82,99.35,7.74,124.8-35.13,15.58-26.25,13.56-75.66,2.13-103.8-4.63-11.39-12.11-19.24-16.94-30.03l175.98,167.98Z"/>
  <path class="st0" d="M1473.99,1372.02l-38.7,14.27c-36.5,20.29-69.25,62.49-60.69,106.12,8.7,44.35,48.26,81.68,93.42,86.61l-35.34,12.65c-50.41,31.74-71.95,88.32-39.51,142.17,12.65,21.01,44.38,50.35,67.74,58.26,2.68.91,33.14,4.63,27.09,9.89l-251.98-2.01c-.47-2.88,3.47-2.71,5.57-3.38,8.73-2.81,17.58-4.1,26.39-7.63,48.23-19.36,88.46-78.56,69.04-130.97-12.91-34.84-49.72-74.43-89-74.02,4.27-5.16,14.08-5.4,21.03-7.95,60.02-22.02,93.72-90.13,50.92-144.98-20.65-26.45-40.75-41.96-73.84-50.15-4.84-1.2-13.78,1.37-12.1-4.88l239.98-3.99Z"/>
  <path class="st0" d="M356,688l21.99,5.01-57.99-53.94,70.96-65.08,61.07,113.11-3.44,4.5-38.58,16.37,147.9,57.11c16.09,10.2,13.9,42.6,12.21,60.03-2.35,24.3-46.08,13.06-63.04,12.79-37.97-.6-76,.72-113.97-.03-16.21-3.91-18.25-21.62-17.11-35.9-6.82-2.05-15.53,4.5-20.01-.99v-113Z"/>
  <path class="st0" d="M995.99,14.01l-36,126-43.98-16,63.3,149.3c-.39,4.43-1.4,9.54-3.58,13.43-1.99,3.55-31.16,34.41-34.24,35.75-7.43,3.23-13.26,1.27-18.53-4.44l-112.7-115.3c-8.03-15.55,4.21-24.15,11.46-36.1l-11.57-15.38,80.86-79.23,10.98,19.95-3.99-80,98,2.02Z"/>
  <path class="st0" d="M2227.96,479.99c1.22-5.45,7.83-14.11,14-11.05l78.02,78.09-2.76,3.15-19.21,9.81,82-3.99-2.01,96.02-125.94-36.09,15.92-43.91-147.19,63.86c-20.43,2.27-34.01-24.44-49.63-34.01-5.47-8.91-2.68-15.12,2.85-22.84l116.08-111.91c12.91-8.79,26.32,3.74,34.97,12.86l2.91.03Z"/>
  <path class="st0" d="M466.02,1478l149.43-65.56c18.09-1.72,33.6,25.91,47.95,34.13,4.38,7.31,3.91,17.4-2.36,23.47-33.83,28.67-62.37,63.19-95.01,92.99-3.77,3.44-22.47,20.42-25.08,20.93-12.99,2.54-21.49-5.8-30.22-13.82-4.96-.88-10.88,13.99-16.72,10.98l-80.01-80.13,21.98-10.97c-8.96.2-18-.37-26.97,0-7.99.33-51.04,6.4-54.18,2.11l1.07-89.22,3.25-6.7,122.88,36.84c2.76,1.57,1.09,2.54.6,4.45-1.54,5.91-18.04,38.78-16.61,40.51Z"/>
  <path class="st0" d="M1743,2036c-1.47-.45-3.12-3.21-3.08-5l36.1-123,43.97,17.99-64.12-149.01c-.29-5.74,1-11.19,4.12-15.99,1.69-2.6,28.94-31.96,30.9-33.09,7.18-4.15,13.85-2.23,20.12,2.1,18.96,13.1,47.77,49.17,64.95,67.06,12.93,13.47,37.35,33.14,47.13,46.87,15,21.05-11.14,32.3-10.59,39.11l11.58,13.97-79.1,78.98-3.43-2.51-9.52-19.46,3.97,83.98c-2.79,1.18-5.97-1.99-6.99-1.99h-86Z"/>
  <path class="st0" d="M2377.98,1362l-21.97-7.01,55.12,48.87,2.76,6.88-68.88,65.22-62.82-115.17c-1.04-4.12.75-2.15,2.62-2.96,11.38-4.92,25.53-8.14,36.36-13.65,2.11-1.07,3.76,1.03,2.84-4.16l-147.87-57.16c-14.61-10.3-9.58-24.1-10.16-39.85-.56-15.21-8.29-31,14.93-33.12,39.39-3.59,92.12.02,132.01,2.18,28.62,1.55,46.13-7.61,45.95,32.05l17.85,2.15,2.99,3.01-1.74,112.72Z"/>
  <path class="st0" d="M1285,34c18.57,3.1,57.49,38.73,63.12,56.88,2.29,7.37,1.19,13.98,3.03,21.15l38.86-.02c-1.74-17.35,5.11-32,16.05-44.95,6.43-7.61,36.18-33.06,44.94-33.06h33l1.13,92.13c-25.48,10.38-47.22-11.59-49.13-36.14l-17.98,2.03.86,88.11,17.04,1.78c1.49-26.92,24.67-44.71,50.09-32.91v79h-39c-.63,0-1.8,1.73-4.97,1.2-15.22-2.59-57.67-43.42-50.03-63.2h-40c7.07,18.79-36.62,62-51,62h-41l-2.01-84.01c1-.99,25.14,1.83,27.98,3.04,8.19,3.48,19.43,23.61,20.29,32.71l18.88-1.61-1.13-86.15-18.11-1.15c-6.46,28.14-20.23,39.71-49.91,35.17l-1.99-92.01c9.53,1.1,21.93-1.51,31,0Z"/>
  <path class="st0" d="M378,1105c1.02-6.17,10.31-20.07,14.34-25.66,14.29-19.82,35.92-38.56,61.7-38.48l-.02-38.87c-27.79,3.86-59.44-26.84-71.62-49.38-8.38-15.51-3.35-27.68-4.37-44.59l91.99-2.03c-1.05,8.38,1.97,20.2-1.1,27.92-3.52,8.87-24.41,23.39-34.83,22.17l-.09,17.92h90l-.2-17.81c-27.45-2.79-42.34-24.01-30.8-50.19h76l3,3v42c0,2.35-11.48,18.83-14.06,21.94-11.52,13.91-30.55,30.37-49.95,27.05l-.02,38.87c21.72.92,43.49,19.19,55.68,36.49,10.75,15.24,5.55,38.27,8.36,56.66l-84.02,2c-4.93-28.56,8.8-43.1,35.82-48.19l-1.81-19.83-86.12,2.88-1.78,19.04c26.93,2.17,40.62,21.85,35.92,48.1l-92.01.99c1.13-9.85-1.55-22.63,0-32Z"/>
  <path class="st0" d="M2280,1006v42c15.75-1.71,27.37,1.82,39.83,11.17,8.56,6.43,38.17,38.17,38.17,47.83v35h-94c-.18-15.94-2.78-23.33,8.7-35.3,7.81-8.14,17.59-12.2,28.47-14.57l-2.2-18.17-88.98,2.02.87,16.15c26.1,4.23,44.04,23.33,32.14,49.86h-79v-39c0-6.45-.52-6.36,3.14-12.89,10.46-18.66,35.55-43.87,58.86-42.11v-40c-18.01,8.83-62-36.3-62-49v-43l82.12-1.13c7.31,24.83-8.8,45.19-34.04,47.21l-.1,19.93,88.02-2,1.14-18.08c-26.04-3.67-42.73-22.11-33.28-49.06l88.25-2c7,24.7-1,43.08-16.18,62.07-14.56,18.23-34.65,36.95-59.95,33.05Z"/>
  <path class="st0" d="M1293,1820c18.62,3.34,54.81,42.56,52.14,64.03l36.99-.9c2.87-2.03,1.54-10.8,2.8-15.2,3.38-11.76,30.11-40.63,41.61-44.39,6.49-2.13,30.07-3.38,38.44-3.67,2.97-.1,8.37-.54,10.15,2.01l2.88,82.14c-7.88-1.17-21.04,2.1-27.97-1.05-8.13-3.69-22.38-25.05-20.05-34.96l-20.11,3.22,2.11,86.78,18.15-.87c4.93-25.71,21.74-42.79,48.99-33.27l2.87,90.13h-33c-11.37,0-41.27-25.69-48.94-35.06-10.43-12.73-16.57-23.69-14.06-40.94h-42c2.48,18.24-3.82,30.51-15.2,43.8-5.72,6.69-34.53,32.2-41.8,32.2h-37v-92c7.88,1.16,21.03-2.12,27.96,1.04s23.93,25.73,20.03,34.98l18.11-.9-.09-89.12h-18.02c6.13,7.87-15.44,34.01-18.99,34.01h-29v-79l3-3c12.07,1.5,28.61-2.04,40,0Z"/>
  <path class="st0" d="M751.74,1803.72c-4.4,2.53-19.73-13.68-22.79-17.67-15.49-20.15-17.98-68.11-6.05-90.15,3.28-6.06,8.54-8.65,10.96-14.62l-28.58-27.13c-18.64,23.57-57.91,23.74-84.58,16.16-14.91-4.24-25.94-17.28-34.77-29.3l64.8-64.86c4.38,4.85,16.1,12.98,17.23,18.9,2.5,13.08-.11,30.59-7.76,41.67,3.74,3.45,9.59,14.32,14.87,9.4l58.79-62.84-10.81-9.26c-23.46,14.5-44.61,11.82-58.9-12.75l56.86-55.35,29.89,26.18c9.61,11.92,9.45,56.97,2.67,70.45-2.51,4.99-9.13,7.85-9.25,14.15,5.1,4.69,22.44,26.64,28.3,25.08,2.45-.65,6.61-6.65,11.38-8.81,12.92-5.85,45.23-7.03,58.48-2.45,5.13,1.77,36.77,29.21,37.39,32.74l-56.86,60.69c-22.85-16.38-24.22-35.84-9.46-58.98l-12.67-12.91-60.72,63.21c-.37,2.11,8.14,10.99,9.89,11.79,6.41,2.91,7.02-2.95,11.4-4.63,22.31-8.55,35.81-4.11,48.27,16.21l-57.97,65.07Z"/>
  <path class="st0" d="M1937.74,395.72l58.22-62.72-12.94-12.53c-21.37,15.76-45.33,13.33-58.24-10.57l62.22-65.86c30.8,21.64,39.04,62.57,29.7,97.67-3.29,12.36-13.57,20.2-14.49,23.7-1.4,5.32,21.19,25.44,26.79,28.67,6.6-2.39,9.39-8.98,15.58-12.49,14.44-8.19,55.55-7.41,71.45-2.61,14.55,4.39,22.95,17.91,33.48,28l-62.92,64.82c-25.7-8.85-25.97-39.41-10.94-58.81l-12.66-12.95c-11.94,12.65-25.22,24.18-37.05,36.91-3.47,3.73-24.01,26.19-24.02,28.05,0,2.88,7.77,11.2,10.7,10.74,21.6-16.7,44.21-12.51,57.44,11.26l-56.8,56.86c-9.52-11.09-29.88-24.31-33.92-38.21-6.78-23.38-5.02-54.28,12.16-72.67l-28.24-26.83c-12.78,16.73-46.64,16.6-65.79,13.38-14.33-2.41-32.14-25.01-43.44-34.52l58.69-58.86c23.22,15.19,20.86,35.74,9.48,58.45,2.8,3.56,10.68,13.91,15.54,11.13Z"/>
  <path class="st0" d="M751,242.03l64.86,64.69c-.23,1.33-17.26,18.27-19.26,18.86-11.76,3.47-31.87-1.48-41.31-9.45l-10.37,11.89,62.1,63.93,11.03-12.94c-6.31-9.4-11.98-24.9-8.01-35.91,1.5-4.14,17.88-26.33,23.07-19.23l52.64,54.74c-.51,3.3-22.86,26.88-26.71,29.4-18.02,11.81-68.29,12.02-82.03-7.99l-26.86,27.24c13.82,15.1,15.85,39.94,13.84,59.7-2.44,23.97-18.75,29.1-30.83,47.16l-6.05,1.96-59.01-56.89c4.82-2.8,15.61-15.71,19.33-16.8,11.44-3.35,29.73.93,39.65,7.68l12.91-13.09-62.97-60.97-13.09,12.91c16.43,24.62,11.78,41.77-10.91,59.03l-64.86-62.69c17.91-23.05,35.43-31.94,64.87-33.25,21.75-.97,39.94,2.78,55.99,18.04l28.85-28.8c-23.65-18.15-23.17-54.74-16.96-81.38,4.7-20.17,16.49-24.52,30.11-37.86Z"/>
  <path class="st0" d="M2007.38,1696.61c13.5,16.61,11.54,71.55-.51,89.26-2.35,3.45-21.19,20.41-23.6,19.99l-63.06-61.26c8.92-25.69,38.16-25.97,58.82-12.56,3.32.19,10.37-9.26,10.7-11.42.64-4.17-52.59-52.72-58.67-60.75-5.32-4.93-11.07,6-14.92,9.39,17.25,21.68,11.37,44.31-11.17,58.23l-56.61-56.48c-.02-2.47,23.01-26.51,26.63-29.04,17.88-12.47,67.2-13.1,82.28,5.88l28.7-26.86c-17.3-11.53-17.23-52.8-12.6-70.63,3.67-14.13,21.88-22.4,28.59-35.4l5.04-3.05,58.78,55.47c1.53,3.91-17.38,19.66-19.18,20.19-12.41,3.67-28.67-3.27-39.35-9.45l-11.08,13.15,62.57,60.57,13.24-11c-15.69-23.03-13.94-42.62,9.3-58.72l66.69,60.86c-8.16,6.28-16.82,19.78-25.26,24.71-17.25,10.08-66.16,12.07-83.41,2-3.65-2.13-10.73-12.13-14.02-11.56l-27.06,27.26c-1.76,6.7,6.76,8.26,9.16,11.21Z"/>
  <path class="st0" d="M358.01,1359.99l-2.02-116,21.98-2.06c-3.17-15.51-.44-30.47,17.51-33.45,34.54-5.74,79.74-3.13,115.61-4.39,19.28-.68,53.73-12.13,60.37,11.47,4.35,15.49,3.95,50.33-10.44,60.46l-203,83.98Z"/>
  <path class="st0" d="M2378,690v113c-2.72,5.82-18.58,1.56-20.01,2.99,2.3,22.91-3.57,33.63-27.01,35.99-27.84,2.8-61.56.93-90.06,1.94-20.36.72-41.28,2.73-61.66,3.99-15.57-1.37-16.62-15.83-17.35-28.82-.84-14.94-.49-38.18,13.39-46.8l202.71-82.29Z"/>
  <path class="st0" d="M1148,14v20.01c17.13-1.04,32.53-.37,35.47,19.52,7.34,49.79,1.35,106.93,6.63,157.56,2,26.72-60.13,21.64-70.94,10.75l-87.15-207.85h116Z"/>
  <path class="st0" d="M2318,1500.03l-78.04,81.04c-6.17,4.85-14.46-11.03-16.96-11.03-19.99,23.21-30.32,18.57-51.03.99-31.25-26.53-73.81-64.8-102.05-93.95-15.97-16.5-1.81-31.33,12.05-44.1,22.85-21.05,26.97-18.03,53.96-7.91,61.32,22.99,120.27,53,182.06,74.97Z"/>
  <path class="st0" d="M535.48,462.42c3.86-.37,7.05,1.03,10.31,2.8,43.61,34.43,82.25,75.18,123.95,112.03,1.89,2.96,2.5,6.31,2.47,9.78-.14,14.62-38.14,53.3-56.28,44.02l-197.89-84.05,77.98-80.12c5.84-3,11.73,11.84,16.71,10.97,6.89-5.87,12.86-14.5,22.75-15.43Z"/>
  <path class="st0" d="M1819.31,323.31c-6.94,5.99-13.32,8.82-22.04,4.4-12.78-6.48-38.49-33.62-37.4-48.69l85.13-204.98,80.1,78.02c3.4,6.82-11.71,14.34-10.95,18.67,14.9,13.96,21.32,21.59,7.85,40.26-20.83,28.85-61.41,65.74-87.02,92.98-4.72,5.03-10.82,15.16-15.66,19.34Z"/>
  <path class="st0" d="M1701.99,2033.99l-112.71,1.73c-5.97-1.96-2.38-16.54-3.27-21.73-22.08,2.04-33.62-1.35-35.99-25.01-2.77-27.72-.92-61.61-1.94-90.06-.66-18.43-3.77-39.73-4.15-58.01-.63-30.67,54.62-25.46,71.79-13.63l86.27,206.71Z"/>
  <path class="st0" d="M891.97,1973.99l-83.1-77.99,13.1-17c-17.26-15.27-22.49-23.41-6.99-43.02,24.25-30.7,58.82-62.82,86.05-91.95,15.51-16.59,19.93-35.86,45.92-15.98,9.58,7.33,29.31,27.91,28.59,40.43l-83.57,205.52Z"/>
  <path class="st0" d="M2001.96,1329.99l-2.88-.05c-35.48-27.89-81.54-25.82-122.6-12.46-11.83,3.85-21.46,9.17-32.47,14.51,3.54-9.45,10.78-17.07,14.37-26.61,8.8-23.34,9.96-51.34,3.63-75.37l20.72,5.59c13.25-10.4,23.45-26.05,30.69-41.18,5.68-11.84,8.95-24.22,13.59-36.41,8.34,37.11,39.29,88.05,76.44,101.54,6.17,2.24,25.35,4.48,26.66,5.34,5.42,3.55-4,16.33,1.77,20.24,1.61,1.09,28.55,4.06,37.9,8.09,11.22,4.83,50.57,31.93,53.42,42.68.02,4.35-5.91,7.67-9.53,8.78-13.86,4.24-69.46-5.51-81.55-13.81-11.56-7.93-17.93-25.41-30.17-.88Z"/>
  <path class="st0" d="M854.39,1238.39c-7.31,11.41,8.41,58.76,14.62,71.61,2.79,5.77,8.72,9.32,8.98,16-13.86-6.7-27.01-14.66-41.99-18.99-23.61-6.82-57.28-9.02-80.53-.56-8.31,3.02-22.32,14.77-26.6,15.59-7.04,1.35-7.75-10.95-15.56-11.87-25.59,24.3-67.03,33.6-101.01,27.56-1.31-5.85-.28-10.64,2.81-15.63,4.73-7.66,52.08-40.93,60.85-43.15s18.9,1.02,27.78-3.23l.54-19.44c56.05-9.45,95.12-59.36,107.76-112.27,3,.38,3.23,2.81,3.8,5.18,8.69,36.3,24.93,59.15,56.14,79.82l-17.58,9.39Z"/>
  <path class="st0" d="M732.25,720.26l4.28.12c47.54,32.93,108.04,23.07,155.45-4.37,1.53,1.6-11.3,18.37-12.98,22-11.34,24.51-10.49,53.85-7.02,79.99-6.37.66-14.57-5.3-20.55-3.7-14.26,3.82-41.26,59.59-41.47,75.7-2.74-.21-3.17-2.92-4.07-4.9-14.15-30.97-15.14-47.58-42.11-73.89-16.97-16.56-35.71-25.16-59.51-27.49l-.39-19.61c-28.06-.85-53.91-14.08-74.83-32.16-13.56-11.72-28.56-28.77,1.92-29.55,14.9-.38,61.14,8.24,72.85,16.78,11.55,8.43,15.84,23.27,28.42,1.09Z"/>
  <path class="st0" d="M2123.94,710.06c1.8,16.48-11.98,24.85-23.3,33.58-19.75,15.22-42.02,31.96-68.35,28.65-2.81,5.9-3.3,12.69-.76,18.81l-1.43,1.94c-54.64,9.41-94.91,58.61-106.11,110.97-5.19.55-3.18,0-4.04-2.93-2.47-8.4-3.58-16.8-6.99-25.04-8.46-20.45-29.55-43.73-48.94-54.08l1.22-4.1,15.79-7.84c3.88-18.4-3.52-36.48-8.11-53.94l-14.9-32.08c35.73,21.02,93.09,35.17,131.38,14.4,17.08-9.27,13.96-21.04,31.61,1.5,11.83-11.12,21.39-18.04,37.01-22.89,20.08-6.23,45.36-10.3,65.93-6.95Z"/>
  <path class="st0" d="M1161.99,1520.01c1.41,1.29-5.93,14.64-5.5,18.71,1.41,13.67,50.31,36.75,63.05,40.75,4.03,1.27,13.01-.44,14.45,4.51-48.54,12.29-102.92,47.72-106.85,102.16l-21.14,1.86c.92,13.37-1.52,25.85-6.91,38.09-4.01,9.11-34.38,55.27-43.79,53.7-10.94-6.72-9.89-17.18-9.02-28.53,1.99-26.19,8.14-60.91,29.27-78.23l-13.22-15.99c27.6-39.06,26.31-85.41,10.6-128.94-3.6-9.97-9.14-18.34-12.9-28.08,29.75,22.85,65.84,25.51,101.97,20.01Z"/>
  <path class="st0" d="M1667.99,1514.01c-7.45,18.71-17.33,33.55-21.1,53.88-6.3,33.96-4.66,68.34,18.83,95.46.57,6.08-12.7,6.8-11.82,15.55.21,2.07,14.17,18.35,17.17,25.03,2.96,6.61,5.59,15.69,7.21,22.79,1.65,7.27,9.65,51.42,2.51,53.4-12.12,1.88-19.5-6.93-26.72-15.19-17.02-19.45-36.54-48.36-34.93-75.07l-21.12-1.88c-6.25-56.67-59.68-96.23-112-108.01-.58-2.6,2.07-2.38,3.97-2.96,7.87-2.4,15.81-2.87,23.99-6.05,20.65-8.02,47.72-30.43,56.05-50.97,6.71,1.68,8.04,14.51,12.01,16.96,12.03,7.4,39.91-3.9,53.04-6.89l32.92-16.06Z"/>
  <path class="st0" d="M1135.98,359.99c7.18,52.85,52.3,90.36,100.38,106.65,4.86,1.65,13.19-.8,11.65,5.35-36.26,2.59-64.97,27.54-85.01,55.97-4.66-3.47-6.13-14.63-10.99-16.97-10.55-5.09-43.51,4.64-55.06,8.96-4.83,1.81-29.52,15.16-30.95,14.03,12.34-19.09,20.98-40.56,23.75-63.23,2.43-19.87,2.17-44.91-6.19-63.31-2.67-5.87-13.4-18.04-13.66-20.54-.89-8.75,12.39-9.47,11.82-15.56-23.72-27.33-33.2-66.54-27.94-102.2,2.44-3.52,12.27.92,15.23,2.84,10.76,7,43.15,52.97,44.81,65.19,2.31,16.96-5.19,30.25,22.16,22.81Z"/>
  <path class="st0" d="M1676,547.98c-1.91,1.77-18.75-10.62-22.62-12.36-23.31-10.53-54.88-12.75-79.36-5.62-1.39-6.58,4.32-12.94,3.94-18.88-.97-14.82-48.66-37.45-62.32-41.76-5.33-1.68-15.18.89-13.64-5.34,36.96-6.49,88.55-39.69,100.97-76.06,6.63-19.42-3.6-31.9,25.03-25.97.26-36.56,23.41-71.51,51.03-93.62,13.47,8.48,10.3,22.61,8.72,36.37-2.05,17.93-6.7,44.47-16.92,59.08-2.47,3.53-9.87,8.74-10.61,11.58-1.79,6.84,12.02,11.9,11.51,17.25-32.27,47.73-24.03,108.06,4.28,155.32Z"/>
  <path class="st0" d="M867.46,1062.46c5.88-1.21,14.8-.97,20.68.4,16.45,3.83,65.03,61.49,76.69,77.31,8.71,11.82,25.15,31.76,23.1,46.66-.95,6.91-9.24,15.33-9.41,19.73-.25,6.58,4.78,22.02,5.46,30.46,1.71,21.49,4.32,57.41,2.03,77.98-2.58,23.11-32.31,33.57-46.84,16.83-25.03-28.81-19.86-110.88-20.26-147.94-18.64-22.01-65.9-61.03-70.44-89.39-2.16-13.49,4.6-29.08,18.99-32.05Z"/>
  <path class="st0" d="M1519.45,1404.46c18.35-3.76,22.75,9,29.42,9.41,4.9.3,22.45-5.2,30.16-5.84,8.57-.72,17.47.53,26.06.06,20.07-1.1,64.38-10.71,73.92,11.92,15.39,36.51-24.84,45.99-52.26,49.74-31.64,4.33-66.99,4.46-98.85,3.35-23.4,17.97-63.41,68-93.14,70.82-23.93,2.27-35.65-20.97-27.73-41.88,7.52-19.86,51.94-56.18,70.03-69.98,8.35-6.37,33.84-25.84,42.39-27.59Z"/>
  <path class="st0" d="M1069.52,1386.52c28.43-4.11,98.37,2.43,126.56,10.39,27.28,7.71,15.91,20.65,26.01,31.99,2.99,3.36,12.42,7.42,16.86,11.14,18.14,15.2,53.79,43.65,65.91,62.09,7.65,11.63,6.31,19.18-1.2,30.54-19.51,29.51-60.67-4.32-79.69-19.65-21.33-17.19-42.79-38.51-61.3-58.7-28.09-2.42-99.92,4.54-118.66-19.34-17.03-21.7,1.28-44.96,25.51-48.47Z"/>
  <path class="st0" d="M937.57,821.59c1.23-26.86-.23-55.62,3.32-82.21,2.9-21.7,12.91-51.3,40.44-43.7,30.13,8.32,25.91,50.67,24.77,75.42-.8,17.35-6.91,78.73-14.4,91.6-8.52,14.66-22.91,10.09-28.72,15.28-2.46,2.2-11.5,18.73-15.95,24.05-8.76,10.43-20.7,24.15-30,34-17.14,18.18-33.89,41.83-59.69,23.64-24.7-17.42,3.55-55.72,16.72-72.61,18.05-23.14,41.29-46.71,63.51-65.47Z"/>
  <path class="st0" d="M1570.41,593.57l84.58,4.44c19.59,3,47.25,13.58,42.13,38.1s-30.75,26.71-51.78,27.14c-24.65.5-92.42-4.24-113.82-13.77-17.69-7.88-10.84-19.57-17.36-28.64-1.46-2.03-15.04-9.5-19.1-12.9-18.67-15.67-49.06-40.29-63-59-6.47-8.69-9.13-14.05-4.84-24.7,16.58-41.12,59.37-8.2,81.72,9.82,21.25,17.13,44.09,38.84,61.47,59.51Z"/>
  <path class="st0" d="M1771.47,710.49c7.32-1.12,14.06-1.56,20.45,2.58,25.93,16.81,23.01,99.5,23.98,128.01.28,8.05,3.2,14.48.37,23.47,20.2,25.3,73.15,65.68,69.72,100.45-2.57,26.01-33.64,28.09-52.04,14.04-19.28-14.72-48.92-50.3-63.62-70.38-8.29-11.32-25.43-32.76-23.46-46.77,1.02-7.23,10.09-15.87,10.34-18.89.23-2.76-4.66-18.24-5.19-24.03-2.03-22.02-7.27-74.09-1.06-93,3.25-9.89,10.47-13.94,20.51-15.48Z"/>
  <path class="st0" d="M1798.43,1226.41c-3.69,28.75,3.05,101.74-19.41,121.61-9.63,8.52-24.63,8.05-34.88.84-15.3-10.77-14.62-29.04-15.02-45.86-.57-23.92,3.65-95.28,13.76-115.12,8.78-17.24,20.95-10.82,28.68-16.31,1.26-.9,13.65-21.15,17.42-25.59,13.16-15.5,36.88-44.33,52.07-55.93,9.69-7.39,15.41-10.15,27.42-5.51,45.07,17.42-1,69.78-19.45,91.49-15.11,17.79-32.51,35.93-50.59,50.39Z"/>
  <path class="st0" d="M1295.47,506.48c25.26-4.35,38.26,11.97,34.39,36.39-2.4,15.11-37.33,45.47-49.83,56.15-11.72,10.01-46.14,38.52-58.58,43.41-4.33,1.7-12.48,2.99-17.06,2.18-6.64-1.18-16.02-9.82-17.36-9.96-2.03-.21-18.61,4.82-24.07,5.3-21.42,1.88-55.45,5.4-75.94,4.01-11.44-.78-23.42-1.6-29.43-12.57-5.28-9.62-8.08-21.01-1.59-30.4,19.14-27.7,98.08-23.8,129.07-24.91,7.37-.26,13.25-2.9,21.48-.37,24.14-16.8,60.14-64.29,88.91-69.25Z"/>
  <path class="st0" d="M1495,1202c4.35.94,13.08,11.97,14,11.97l24.96-25.02.02-2.91c-8.39-1.22-13.78-16.8-15.08-23.94-4.25-23.33-.05-52.34,15.1-71.09,4.03-4.99,10.39-12.63,17.1-7.11,4.59,8.37,47.73,43.76,48.68,47.51.78,3.09-5.37,11.19-7.82,13.57-12.73,12.37-31.14,12.16-42.97-.92l-10.86,11.22c5.39,7.76,48.96,53.48,54.57,52.52l11.04-12.43c-5.81-6.58-9.84-23.71-7.34-31.96,1.1-3.62,14.06-17.24,18.65-16.7,3.28.38,42.18,39.99,47.01,46.3l-22.68,26.38c-12.56,10.31-61.2,14.78-72.39-1.31l-26.99,23.97.02,2.92c9.88,7.2,11.22,18.49,12.05,29.97,2.38,33.18-6.08,50.26-33.1,68.54l-43.86-41.6c-9.08-18.25,23.81-26.56,37.85-23.83,8.84,1.72,9.24,14.25,18.82-6.75l-52.81-50.79-10.6,12.53c8.35,5.87,10.11,29.44,7.3,37.65-.49,1.43-15.76,14.36-17.5,13.17l-8.18-13.82c25.36-5.44,4.22-49.33,12-68.02,9.63,1.39,24.15-1.91,33,0Z"/>
  <path class="st0" d="M1190,1151c-.94,4.35-11.97,13.08-11.97,14l25.24,24.86c21.62-19.8,57.99-19.67,83.48-7.61,6,2.84,23.18,13.85,23.25,20.8.02,1.84-20.75,24.64-23.95,28.01-4.24,4.46-23.39,24.69-27.16,25.05-4.54.44-11.21-6.42-13.95-10.05-10.69-14.15-8.72-28.25,2.72-41.07-4.29-3.46-8.45-13.42-14.73-9.1-16.39,11.27-31.01,37.64-47.94,50.13-4.24,7.09,8.56,9.51,12,15.94,3.94-7.51,24.55-10.95,31.04-9.16,3.78,1.04,17.75,14.83,17.48,18.24l-46.66,47.01-4.51-.41c-5.51-11.06-19.9-15.6-25.37-27.6-4.97-10.9-7.7-45.08-3.46-55.51,1.56-3.84,9.27-8.32,8.49-11.46l-26.64-24.8c-5.36,3.06-10.07,8.62-16.48,9.64-10.21,1.63-35.72,2.38-45.33-.46-16.18-4.79-25.61-19.66-37.53-30.43l48.69-48.85c16.28,11.57,24.73,33.81,11.61,50.87,3.18,3.38,9.65,12.5,14.68,9.16,15.86-10.53,30.53-37.35,47.03-49.14l1.95-5.01-12.96-8.08c-18.87,12.11-37.97,12.8-50.88-7.24l10.86-12.69c11.94,29.13,49.56,2.69,71,14.96-1.27,8.8,1.75,21.92,0,30Z"/>
  <path class="st0" d="M1483,690c4.92,1.52,2.83,23.19,3.01,28.97.31,10.4,1.57,21.59,1.59,32.05,0,2.83-1.44,5.9-1.83,8.75-19.36,3.65-42.38-6.51-43.85-27.69l-15.92-.08v76l17.74-2.26c2.78-22.35,19.07-36.38,42.27-31.75l-.96,16.06c-2.05,3.67-6.52-2.48-11.57-1.71-15.71,2.39-31.6,35.98-46.48,43.58-11.64-13.56-29.87-20.97-25-41.92h-33l-2.64,3.36c-3.27,37.41-49.21,73.68-86.36,64.64v-69c0-.43-1.63-1.42-1.04-3.01,19.11-12.95,46.79,2.04,45.05,26l18,.02-2-76.02h-20c2.51,8.68-10.48,26.84-17.9,29.11-4.85,1.48-24.1,2.28-24.1-4.1v-65h31c.61,0,2.43-1.83,5.46-1.66,12.05.68,55.02,34.55,47.53,51.67,9,.22,18.08-.3,27.1-.11,4.72.1,10.99,4.25,12.6-1.21,1.24-4.21-.32-8.75,1.82-14.18,4.57-11.61,36.33-40.51,49.49-40.51h30Z"/>
  <path class="st0" d="M1546,895c.74-2.63,10.55-7.72,9.86-11.73l-24.86-25.24c-26.75,28.4-84.08,18.88-106.86-11.31l51.14-54.42c23.62,8.79,26.94,33.28,12.72,52.61,6.12,2.58,6.93,11.39,13.99,8.11,2.27-1.05,14.94-14.77,18.05-17.98,11-11.33,21.59-24.04,31.95-36.01l-13.4-10.76c-17.61,12.16-38.54,11.15-48.67-9.28,0-3.33,42.12-47.92,45.38-48.63,1.71-.37,3.75.65,5.23,1.57,5.93,8.63,20.42,16.38,25.02,25.5,5.44,10.8,7.97,45.29,3.49,56.6-1.88,4.75-8.28,8.18-6.93,12.7l23.86,24.39c15.75-12.22,39.01-13.4,58.5-10.61s29.18,17.43,41.38,30.75c.58,3.34-43.05,48.8-46.86,48.8-18-9.82-24.89-33.38-13.23-50.79-.18-1.04-5.52-6.71-6.69-7.39-1.31-.76-2.11-1.96-4.08-1.96-5.57.01-44.07,45.25-50.86,52.8l10.84,10.81c18.51-12.34,40.1-11.82,52.98,7.46l-10.99,10.98c-3.9,1.55-3.82-6.21-7.03-8.93-10.72-9.08-49.6,2.22-63.94-3.05,1.67-9.36-2.29-26.93,0-35Z"/>
  <path class="st0" d="M1702,1142l-68.13,1.13c-7.08-19.86,5.06-41.76,25.86-45.4l.28-15.74-76.02,2.01c-.52.52,1.3,12.96,1.98,14.59.44,1.04,11.8,4.56,15.52,6.92,14.29,9.08,19.08,18.23,16.55,35.33l-18.03,1.13c1.22-3.08,3.75-5.56,3.98-9.12.84-12.88-36.13-36.76-43.95-47.86,12.14-12.92,21.08-30.49,41.98-26.99l-.29-32.73-2.99-3.01c-38.02-.03-70.06-46.24-65.85-82.4,2.15-3.11,71.39-5.69,75.25-3,7.75,23.22-2.45,42.41-27.26,44.99l-.87,16.15,75.9-2.11.02-17.82c-20.36-3.16-36.12-18.05-29.05-40.21,2.47-3.56,22.45-1.5,28.11-1.89,12.6-.87,26.07-4.18,39.15-1.11,2.05,1.43,1.71,3.89,1.97,6.03.71,5.83,1.75,22.52,1.57,28.15-.46,14.72-33.21,55.96-51.68,50.93l-1.99,38c4.1-.2,8.09-.11,12.12.9,13.57,3.39,45.88,35.28,45.88,50.11v33Z"/>
  <path class="st0" d="M1034,906c12.72,1.81,26.83-1.69,38.78-1.81,2.93-.03,6.47,2,10.22,2,8.5,0,21.08-7.19,20.81,8.54-.28,16.22-11.47,36.54-29.81,35.27l2.01,16h74l-.88-16.12c-22.4-6.05-35.76-19.36-31.13-43.89l16,.02c-9.16,26.48,27.27,38.48,39.87,57.26-9.51,14-20.21,30.56-39.86,26.73v36c30.1-1.6,62.57,33.69,67.1,61.9,1.16,7.2,3.14,18.69-2.1,24.1h-66c-.69,0-2.33,2.8-4.98,1.19-12.5-19.68,2.6-46.56,25.97-45.2v-18s-76.01,2-76.01,2l.87,18.15c22.35,4.67,37.63,20.92,26.14,43.86h-64l-3-3v-38c0-5.55,31.35-40.8,37.4-42.6,4.45-1.32,9.95-.04,14.6-.4v-40c-4.14-.09-8.45.55-12.55-.46-11.14-2.75-43.45-34.58-43.45-46.54v-37Z"/>
  <path class="st0" d="M1239,846c-4.51-.97-10.34-10.45-13.73-9.86l-23.13,23.13c25.16,29.74,20.01,86.3-13.14,108.06l-50.96-46.36c-5.81-4.41,3.08-15.67,6.93-19,7.38-6.38,20.32-7.68,29.61-5.55,10.52,2.41,12.17,16.71,23.41-6.39-19.91-12.93-34.91-34.32-53.26-49.89l-14.66,12.86c7.1,3.96,10.67,25.08,9.09,31.08-1.01,3.82-16.35,23.5-22.23,16.06-5.5-9.67-42.28-35.5-43.03-43.25-.28-2.85.75-3.89,2-6.01.76-1.28,18.61-20.37,20.25-21.74,1.93-1.6,4.2-2.55,6.47-3.53,11.2-4.86,43.89-6.76,55.48-2.7,4.01,1.4,7.8,7.44,10.64,6.95,1.81-.31,25.51-24.43,25.12-26.58-1.89-2.81-4.66-4.81-6.26-7.87-5.36-10.27-6.06-41.86-2.62-53.45,4.73-15.91,17.87-26.04,30-36.1,4.17-.02,31.2,29.31,35.94,34.23,7.42,7.7,18.91,8.61,6.86,20.69-8.02,8.05-19.39,12.46-30.8,11.28-7.25-.75-9.15-5.44-15.6-5.89l-9.01,10.84c15.3,13.21,30.01,33.95,45.6,46.01,10.2,7.89,12.01,4.29,17.72-6.36-6.06-9.91-11.04-26.94-6.35-38.2.67-1.61,14.12-12.53,15.67-12.53,4.61-.02,9.29,8.05,11.01,12.04-26.75,6.5-7.04,48-12.01,68.03-10.18-1.48-25.63,2.02-35,0Z"/>
  <path class="st0" d="M1370,1258c-1.24-39.2,46.36-73.5,84.01-68.01l1.71,75.73c-19.87,8.58-46.2-4.52-43.71-27.73l-18.04,1.16,2.05,74.83,17.9-.07c1.98-21.42,19.19-37.39,41.21-28.04l2.56,65.79c-1.45.29-3.95,2.33-4.68,2.33h-36c-7.84,0-53.44-37.11-44.99-52.01h-38.02c6.56,16.3-35.38,56.01-46.99,56.01h-37l-1.77-67.77c19.87-6.24,43.45,6.25,45.91,27.63l15.65-2.07c-.73-10.24,2.55-69.7-1.99-73.57l-15.59-.02c-4.64,22.51-17.61,36.85-42.21,31.81l.02-16c28.15,10.13,36.48-31.29,58.7-39.8,10.14,11.16,31.17,22.4,23.28,39.79h38Z"/>
  <path class="st0" d="M977.64,1484.48c13.8-.53,18.85,4.79,24.72,16.15,15.21,29.41,15.03,77.68,15.55,110.45.26,16.33,3.3,33.95-3.31,50.52-4.53,11.36-15.61,16.43-27.62,16.37-18.02-.08-24.01-11.91-29.05-26.92-10.65-31.7-15.67-106.83-11.95-140.07,1.96-17.5,14.76-25.86,31.65-26.51Z"/>
  <path class="st0" d="M1185.41,286.43c6.11-1.41,12.23-.53,18.22.94,25.54,6.27,100.4,72.46,117.41,94.58,8.95,11.64,9.63,21.47,2.24,34.33-13.76,23.95-31.93,16.19-51.9,5.34-23.45-12.75-91.14-70.48-103.06-92.94-2.38-4.48-4.68-10.54-4.46-15.65.35-8.04,13.44-24.72,21.55-26.59Z"/>
  <path class="st0" d="M1963.59,1372.59c29.04,0,65.24,1.18,55.55,41.55-2,8.35-8.51,12.74-15.76,16.24-29.33,14.16-113.19,18.64-146.46,15.7-32.17-2.84-41.08-43.59-12.91-57.07,28.44-13.61,87.56-16.42,119.58-16.41Z"/>
  <path class="st0" d="M1737.47,372.48c27.07-4.98,35.15,8.17,41.51,31.55,9.82,36.12,8.65,70.15,8.94,107.06.1,13,4.22,20.17-.94,34.9-5.39,15.4-26.34,21.69-41.09,17.13-16.45-5.09-23.43-47.15-25.63-62.36-3.15-21.79-4.53-48.29-4.25-69.77.24-18.38-2.07-54.17,21.46-58.5Z"/>
  <path class="st0" d="M1431.51,1616.35c20.25-3.3,68.94,36.93,84.52,50.62,13.96,12.27,41.37,36.9,49.57,52.43,10.89,20.62-4.41,46.58-26.36,44.5-16.33-1.55-53.92-29.67-67.27-40.88-11.58-9.73-57.96-52.53-62.75-63.23-7.03-15.69,6-40.79,22.28-43.45Z"/>
  <path class="st0" d="M672.84,1124.84c8.97-10.34,50.87-55.53,60.02-58.98,18.07-6.81,45.02,10.13,42.78,28.62-2.69,22.28-40.69,68.34-56.56,85.61-2.91,3.17-7.18,4.74-10.17,7.83-12.68,13.08-35.75,44.99-56.97,39.16-11.55-3.17-24.8-17.2-23.87-29.84,1.42-19.23,31.69-57.34,44.76-72.39Z"/>
  <path class="st0" d="M863.59,602.59c17.18-.13,33.45-.69,40.85,17.97,8.42,21.24,1.7,32.81-17.91,40.96-30.71,12.76-98.01,16.61-131.6,14.55-20.95-1.29-40.9-5.96-40.91-31.08-.02-24.06,22.68-29.72,41.92-34.07,34.58-7.82,72.25-8.08,107.66-8.34Z"/>
  <path class="st0" d="M2063.23,923.25c-12.45,14.34-34.43,38.57-48.19,50.79-15.38,13.67-27.91,15.78-44.08,2-19.35-16.49-9.16-32.06,1.43-50.65,14.19-24.91,34.22-44.24,53.68-64.32,17.37-17.93,44.56-57.94,72.01-30.14,6.67,6.76,8.99,14.68,7.98,24.11-1.78,16.74-31.12,54.74-42.83,68.21Z"/>
  <path class="st0" d="M1273.41,1618.42c27.25-6.25,46.88,23.94,31.49,47.48-7.23,11.07-47.15,49.04-58.88,59.12-17.83,15.32-66.91,55.56-85.52,25.47-8.66-13.99-6.72-22.47.42-36.57,13.64-26.93,41.08-42.38,64.04-59.96,11.81-9.05,34.6-32.36,48.45-35.54Z"/>
  <path class="st0" d="M991.52,364.38c11.77-1.74,25.58,5.37,30.83,16.27,14.87,30.87,4.91,64.29,1.05,95.7-3.14,25.6,1.57,76.7-36.4,75.81-12.9-.31-25.53-11.76-28.11-24.04-3.44-16.36-2.18-64.84-.97-83.19.92-14,5.86-46.86,10.5-59.5,3.39-9.25,12.98-19.54,23.11-21.04Z"/>
  <path class="st0" d="M749.56,1362.56c26.49-3.18,56.96,3.71,83.45,7.43,17.58,2.46,48.71.15,58.54,19.46,10.13,19.9-2.75,42.06-24.55,44.56-28.43,3.25-124.25.42-146.87-15.13-14.04-9.65-16.32-26.59-6.96-40.7,5.86-8.83,26.1-14.38,36.39-15.61Z"/>
  <path class="st0" d="M1543.48,288.49c27.81-4.8,42.77,15.49,32.87,40.86-11.76,30.13-41.26,46.16-65.3,64.7-20,15.42-49.06,51.94-76.07,29.99-13.26-10.77-12.41-30.02-2.96-43.01,9.65-13.27,43.6-45.47,57.04-56.96,9.14-7.81,44.64-33.88,54.42-35.57Z"/>
  <path class="st0" d="M1983.47,1082.48c10.22-1.89,17.28-.53,25.52,5.53,19.05,13.99,55.21,52.93,69.79,72.21,13.56,17.92,41.21,52.11,15.09,70.65-17.55,12.45-34.17,3.73-49.69-8.04-20.67-15.67-32.97-37.88-48.22-57.78-9.25-12.07-36.44-37.38-35.5-53.53.71-12.09,10.7-26.75,23.01-29.03Z"/>
  <path class="st0" d="M653.46,812.44c33.37-6.84,69.53,50.14,86.58,72.52,13.84,18.17,44.76,41.86,29.66,67.75-8.18,14.03-27.62,18.87-41.62,10.22-10.14-6.27-35.08-34.73-44.98-45.02-16.05-16.68-38.85-39.82-48.57-61.43-8.53-18.96-3.16-39.5,18.93-44.03Z"/>
  <path class="st0" d="M1915.55,614.53c24.24-.08,89.31,2.36,105.51,21.4,11.49,13.5,6.53,35.25-9.05,43.08-28.7,14.41-68.98,4.65-99.04,1.01-23.94-2.9-68.87,1.29-72.81-31.21-1.77-14.55,7.93-30.36,22.96-32.68,12.05-1.86,38.89-1.55,52.42-1.6Z"/>
  <path class="st0" d="M1747.34,1496.73c10.23-.1,26.03,10.93,28.24,20.69,2.27,10.04,1.67,43.35,1.68,55.91,0,25.76-1.61,65.58-10.81,90.11-10.43,27.81-45.02,27.89-55.41.53-11.42-30.07-2.68-62.62.95-93,3.04-25.46-1.96-73.87,35.37-74.25Z"/>
  <path class="st0" d="M572.28,724.27l-6.31,18.83-4.45.58-111.48-44.68,75.96-23.02-35.99-71.97c3.3-.48,6.07.96,9.06,1.92,22.6,7.25,77.71,29.2,97.42,40.58,11.2,6.46,12.48,12.9.44,19.47l-1.06,2.99c-.07,5.75,13.7,10.8,11.91,17.63-1.11,4.26-12.8,11.14-14.75,15.44-2.86,6.3.61,13.7-1.91,20.09l-18.85,2.15Z"/>
  <path class="st0" d="M1785.98,1904l-71.89-35.93-21.62,71.38-4.44,2.54-43.11-105.94c-3.84-14.29,5.22-14.7,16.89-14.26l2.49-18.5,2.99-3.01c17.84,1.6,23.14-1.02,35.72-12.35l14.27,11.93c4.08.71,10.68-13.16,18.71-8.97,7.37,3.85,44.36,98.36,50,113.11Z"/>
  <path class="st0" d="M569.99,1320.01c5.19.89,19.77-2.71,21.73,3.27-.15,16.53-1.92,25.27,12.14,35.99l-11.46,15.75c3.61,4.82,12.74,12.59,8.67,19.02l-113.06,49.95c-2.66-2.62,31.84-58.39,34.88-66.1,1.07-2.71,1.51-4.98,1.12-7.88l-73.97-23.01c1.47-2.27,3.77-2.86,5.99-3.97,17.43-8.74,83.07-37.4,99.44-40.55s15.11,3.24,14.52,17.53Z"/>
  <path class="st0" d="M1716.02,182l71-35.99.85,4.84-44.94,107.06c-8.08,9.79-13.47.33-19.93-5.84l-16,13.89c-12.13-13.14-17.49-20.44-37.13-18.84l-1.86-19.14c-5.9,1.18-19.75-1.16-19.63-8.59l44.62-111.36,23.02,73.96Z"/>
  <path class="st0" d="M1066.01,1799.99l.2,19.81c9.14,2.46,21.04.23,19.79,13l-42.02,109.2c-4.87.63-3.17-.01-4.18-2.78-3.31-9.09-19.09-72.44-22.84-73.22l-70.94,35.99,46.91-112.08c9.07-9.49,14.85,6.58,19.7,5.83l16.1-11.6c12.08,13.02,17.98,18.94,37.28,15.85Z"/>
  <path class="st0" d="M2283.99,1348.03c3.2,3.42-.99,3.35-2.8,4.16-9.43,4.26-69.94,18.66-71.14,22.99l33.94,70.81-105.39-43.59-8.31-7.83c-2.01-7.24,3.73-9.27,8.78-12.51l.86-2.92c-26.88-20.78,0-22.23,3.66-34.54,1.62-5.45-.22-12.82.4-18.6l20.02.02c-.35-4.71.15-18.03,5.28-19.81l114.7,41.83Z"/>
  <path class="st0" d="M1072.01,226c-.93,5.19,2.7,19.75-3.29,21.72-17.96-1.41-24.6.61-35.99,14.14l-15.73-11.93c-4.83.02-9.71,11.66-18.99,7.14-6.39-3.11-42.07-98-50.01-111.04l70.96,35.99,26.04-75.97,45.19,112.99c-.65,13.77-16.59,5.41-18.18,6.96Z"/>
  <path class="st0" d="M2245.99,606.01l-35.99,71.97,75.99,23.01c-3.53,3.44-8.27,5.31-12.65,7.35-25.27,11.8-64.7,28.85-90.79,37.2-16.8,5.37-19.63,1.29-16.54-15.54l-22.02-1.99c1.35-18.31,1.45-27.73-13.95-39.01l11.62-14.33c.41-4.9-12.09-11.93-6.71-20.72l111.04-47.94Z"/>
  <path class="st0" d="M2143.99,877.99c-6.87,1.62-3.23-9.27-4.47-14.51-10.53-44.71-49.89-60.27-88.89-71.21-3.39-.95-5.58,1.48-4.62-4.26l97.18-.2c3.09,2.44,2.61,5.7,2.92,9.08,2.37,25.53-5.22,54.87-2.13,81.11Z"/>
  <path class="st0" d="M2018,1467.98c23.36-24.54,24.57-62.57,14.38-93.36l-20.37-36.61,71.68,67.28c.94,4.82-12.75,16.95-16.64,20.76-10.66,10.45-25.98,25.86-37.03,34.97-1.85,1.52-10.3,8.52-12.03,6.95Z"/>
  <path class="st0" d="M1222,251.98c-44.76-.83-75.71,39.5-85.1,79.91-1.21,5.2,1.48,15.78-4.89,14.1l-1.14-98.12c3.75-5.38,40.06-.12,48.04.21,11.53.48,25.11-1.4,36.16-.16,2.99.34,6.17.42,6.93,4.05Z"/>
  <path class="st0" d="M718,580.02c-34.34,36.66-24.96,94.24,6,129.96l-8.1-2.88-64.01-64.2c-.55-5.58,11.88-15.92,16.08-19.93,8.43-8.04,19.23-16.09,27.82-24.18,6.72-6.32,11.52-17.09,22.21-18.77Z"/>
  <path class="st0" d="M1053.99,1668.01l-14.96,20.02-52.13,52.08c-3.4.67-4.79-1.5-7.01-3.01-5.24-3.57-50.22-50.42-53.98-56-1.41-2.09-4.21-7.18.07-7.08.05,3.25,2.19,4.76,4.48,6.53,23.29,17.96,60.87,18.79,87.52,8.43l36.01-20.97Z"/>
  <path class="st0" d="M1811.99,373.99c-2.23,2.55-10.79-10.76-14.67-10.32-30.66-16.31-68.31-12.07-97.93,4.72-6.91,3.92-11.66,11.42-19.4,11.58l69-72.05c3.31,0,24.96,22.8,29.05,27.02,9.08,9.35,21.87,22.36,29.95,32.05,1.19,1.42,5.89,4.82,3.99,6.99Z"/>
  <path class="st0" d="M1514.01,1799.98l32.63-10.34c32.21-18.76,49.62-51.31,54.35-87.63,3.33,2.27,2.86,5.46,3.12,8.88,2.1,28.24-.05,60.55,1.02,89.23l-91.12-.15Z"/>
  <path class="st0" d="M690,1259.98l-98.13,1.15c-3.14-2.19-2.07-41.3-1.97-48.22.13-8.7-.13-17.57.09-25.91.14-5.3,3.33-11.1,2.03-16.99l5.9,23.07c17.72,40.94,44.71,52.43,85.08,62.92,2.76.72,6.23-.05,7,3.98Z"/>
  <path class="st0" d="M681,780c1.58.2,4.24,2.87,7,2.02-2.33,6.15-10.72,3.26-16.5,4.48-44.1,9.3-67.61,39.13-78.52,81.51l-2.98-88.01c28.51,2.64,63.26-3.55,91,0Z"/>
  <path class="st0" d="M993.96,302.01l62.04,66.99c3.43,1.56-.11,5.02-1.01,4.96-1.5-.1-18.17-14.8-24.25-17.71-16.47-7.9-39.29-10.57-57.27-7.77-15.15,2.36-30.97,13.04-45.48,17.5l65.96-63.97Z"/>
  <path class="st0" d="M1805.99,1682.01l-62.71,63.85-46.3-45.83-18.96-24.02,32.02,18.96c26.88,10.39,47.56,8.52,73.93-2,7.66-3.05,14.27-8.29,22.02-10.96Z"/>
  <path class="st0" d="M2018,713.98c20.48-25.4,29.99-49.14,25.48-82.46l-16.49-45.51,62.92,62.77-63.81,62.31-8.1,2.88Z"/>
  <path class="st0" d="M1612,248v91c0,.56-2.31,7.85-5.03,3.03-1.37-33.09-18.51-62.29-47.63-78.37l-37.34-15.64,90-.02Z"/>
  <path class="st0" d="M709.98,1464c-11.87-12.39-23.43-25.25-35.95-37.03-4.86-4.57-28.08-21.42-28.1-25.98l70.05-66.99c-3.76,11.97-14.16,20.21-18.96,32.02-9.09,22.32-8.5,42.88-1.58,65.55,3.52,11.52,10.18,21.38,14.54,32.44Z"/>
  <path class="st0" d="M1127.99,1705.99c3.49,53.15,32.4,76.03,79.32,91.8,3.11,1.04,5.73-1.76,4.68,4.21h-89.99c5.89-29.65-1.69-64.1,2.01-93.03.35-2.75,1.37-6.16,3.99-2.97Z"/>
  <path class="st0" d="M2144.01,1270.01c-29.67-5.89-64.11,1.69-93.04-2.01-2.75-.35-6.17-1.38-2.97-3.99,32.02-.88,60.44-16.39,77.61-43.41l18.38-40.6.03,90.01Z"/>
</svg>