<?xml version="1.0" encoding="UTF-8"?>
<svg id="Layer_0_xA0_Imagen" xmlns="http://www.w3.org/2000/svg" version="1.1" viewBox="0 0 2732 2048">
  <!-- Generator: Adobe Illustrator 30.2.1, SVG Export Plug-In . SVG Version: 2.1.1 Build 1)  -->
  <defs>
    <style>
      .st0 {
        fill: #ffdd9c;
      }
    </style>
  </defs>
  <path class="st0" d="M1837,1410c.48-.01,2.66-3.8,3.01-.99.21,8.91-12.46,12.59-19.6,14.4-23.18,5.88-45.99-1-61.43-19.39-4.98-5.93-13.14-26-14.95-27.05-9.09-5.27-18.57,4.9-13.15-21.1l14.82-2.19c9.12-27.29,28.02-40.3,56.39-42.6l2.2-20.78c26.38-10.21,15.72,22.03,17.7,37.7-20.24-4.99-49.96,5.31-53.99,28h43c1.02,0,4.19,3.17,6.99,1.99v-14s26.01.01,26.01.01v39c0,5.75-15.8,20.39-24.01,15.01l-.26-14.74-3.06-2.93c-16.11-3.45-32.22,1.05-48.65-.33,1.84,11.23,27.66,29.99,36.99,29.99,10.65,0,21.36.27,32,0Z"/>
  <path class="st0" d="M1238.61,508.57c.93-1.14,18.24-16.96,19.4-17.58,1.55-.83,3.05-1.34,4.83-1.14,2.25,16.21,51.9,31.25,55.16,17.09.65-2.85-31.57-30.96-35-36.91l-10.02,9.4-14.77-16.83,1.65-5.74c15.18-9.47,21.43-26.05,41.62-26.48l10.43,10.61c-2.34,4.04-13.63,9.93-11.03,14.98,1.22,2.36,27.4,28.08,31.12,31.02,2.15,1.7,2.45,4.48,5.03,1.03,3.15-18.59,1.54-36.39-11.08-50.99l-19.94-21.04c37.81,1.57,57.55,36.71,51.51,72.51-1.01,6.01-7.56,14.73-7.49,18.53.1,4.97,8.04,7.18,8.04,11.95,0,2.52-8.04,11.05-10.11,12.01-9.16,4.29-11.18-5.95-14.91-6.35-7.09-.76-22.52,9.75-39.58,6.85-11.65-1.98-26.02-16.25-30.76-17.2-7.75-1.55-12.5,14.43-17.44,13.54-6.58-4.77-13.23-11.23-6.65-19.28Z"/>
  <path class="st0" d="M1448.25,1577.72l4.58.12,5.13-6.93c6.76-4.52,16.42,13,19.9,17.81-15.64,12.17-24.52,30.39-46.48,29.42l-7.24-10.87c3.04-5.3,12.22-8.12,8.93-15.23-3.44-7.45-28.49-26.17-35.05-34.04-8.17,31.37,6.72,55.82,31.97,73.01-7.82,5.42-20.74-1.52-27.86-6.14-19.72-12.8-28.75-36.13-25.61-59.35.89-6.56,9.04-23.24,8.94-24.54-.29-3.59-11.4-7.47-8.58-12.96,1.04-2.02,11.69-12.08,14.12-12.09,4.76,0,6.76,7.72,11.9,7.98,4.16.2,12.65-4.96,18.27-5.73s17.68-.88,23.38.28c8.5,1.74,23.69,15.16,28.59,15.61,9.67.89,9.2-15.55,18.83-11.12,1.95.9,6.63,6.85,7.23,9,2.25,8.02-19.68,20.77-24.33,27.99l-2.91-.86c-9.48-17-35.23-28.48-53.08-19.19-1.77,2.13-.89,3.97.11,6.11,3.95,8.44,25.96,20.76,29.27,31.73Z"/>
  <path class="st0" d="M982,1495c.01.23,4.89,4.46-.96,2.96-8.57-2.19-15.17-28.55-15.18-36.96-.03-27.01,24.01-52.25,49.23-58.91l1.15-13.84c1.59-2.66,19.39-.72,20.91,1.6-1.12,16.77,8.36,14.19,18.72,21.27,4.64,3.18,14.45,12.27,16.99,17.03,4.19,7.88,6.01,27.26,8.97,31.02,5.7,7.24,22.34-3.3,22.33,9.77-.02,20.26-27.69,6.75-40.13,9.04,5.32-18.1-6.07-51.57-28-51.99l-2.01,50h14.01s-1.87,25.14-1.87,25.14c-1.59.94-3.33.99-5.12,1.05-4.16.14-32.14-2.29-34.93-3.25-11.67-4.03-13.95-11.23-12.09-22.93l18.02.02-.03-52.01c-10.09,4.35-29.98,26.75-29.98,37,0,11.27-.51,22.76,0,34Z"/>
  <path class="st0" d="M1948.25,967.73c-1.5-5.87-8.23-11.47-14.18-8.8-1.87.84-26.6,25.82-29.09,29.05-1.54,2.01-3.87,2.54-2.98,6,28.7,8.1,57.06-6.95,70.98-31.98,9.65,4.2-4.9,27.85-9.04,32.94-13.13,16.16-36.03,23.46-56.43,20.52-6.84-.99-18.29-7.63-22.62-7.38-7.91.45-13.66,18.79-24.92-7.13-.03-4.6,7.1-6.98,7.71-10.25.23-1.24-6.5-18.43-7.12-24.27-2.25-20.99,6.85-31.06,17.15-47.79l-12.8-14.62c10.37-27.72,26.07,2.89,37.01,13.09l-.86,2.92c-17.13,9.69-28.7,39.01-16.07,55.91l36.97-34.96-9.93-10,18.99-16.64c7.55,8.91,23.6,19.4,27.62,29.99,4.39,11.55,3.76,22.31-10.4,23.38Z"/>
  <path class="st0" d="M851.98,1074c-3.45-.89-3.99,1.44-5.99,2.98-10.62,8.18-18.89,21.88-31.12,28.97l-.73,2.79,7.72,9.98-17.23,15.01c-1.89.29-26.37-23.09-27.57-25.79-3.05-6.85-5.09-20.96,3-24.89,10.9-5.3,9.79,11.59,19.35,7.51,2.25-.96,36.05-32.57,34.6-34.53-27.05-8.11-58.52,3.9-70.03,29.96l-5.92-4.87c8.67-33.66,34.11-50.97,68.97-47.13,6.07.67,21.99,8.03,23.7,7.71,7.91-1.5,10.03-19.45,25.12,5.59.73,3.98-7.51,6.46-7.75,11.62-.18,3.81,4.98,14.35,5.69,20.31,2.94,24.42-4.98,31.91-15.76,51.83.19,7.53,20.02,12.67,7.91,21.89-14.57,11.09-23.84-14.99-33.9-21.94,17.86-11.83,29.36-36.48,19.94-56.99Z"/>
  <path class="st0" d="M968,670c-8.59-18.05-27.03-30.18-47.01-31.97-9.24-.83-17.93,1.68-26.98.99,23.71-27.43,68.75-16.15,86.82,13.15,2.24,3.63,8.19,18.36,9.08,18.92,9.83,6.33,19.64-6.12,14.1,22.92-18.38-4.27-16.55,10.46-25.14,21.85-13.16,17.45-28.6,17.79-47.98,24.02l-.87,20.12c-29.3,4.44-14.24-22.83-15.99-40,19.36,6.98,51.21-5.5,51.99-28.01h-50v14.01s-25.99-2.02-25.99-2.02c2.94-11.69,0-28.36,2.04-38.95.16-.83,7.55-14.26,8.27-14.72,2.11-1.34,13.14-.85,14.82,1.55l.87,18.13h52Z"/>
  <path class="st0" d="M1722,574v50c29.5-12.74,33.23-38.37,30.49-67.51-1.01-10.76,7.91.35,9.92,4.1,18.62,34.66-5.63,77.16-42.15,85.67l-.53,12.47c-1.68,5.32-15.13,3.55-19.86,2.4-2.02-17.91-4.65-13.13-15.75-20.25-21.49-13.78-27.52-27.3-30.2-52.79l-21.92-.08.88-16.14,37.24-.93,1.39,1.97c-5.42,19.28,4.79,43.67,23.86,50.8l4.64-2.71v-47l-13.12-1.87,1.12-24.13h39c1.4,0,21.55,14.24,14.73,20.73-1.78,5.32-14.7,2.41-19.73,5.27Z"/>
  <path class="st0" d="M969.99,1061.99c9.89-1.39,18.6-2.71,28.76-1.74,2.34.22,26.36,4.29,21.24,9.74-11.99,3.79-20.17-3.48-33.04-2.03-17.44,1.96-12.82,9.21-17.39,20.61-27.27,68.01-72.19,115.34-150.54,111.42-19.11-.96-35.67-6.49-53.02-13.96,1.35,2.25,8.83,22.36,3,21.94-2.07-.15-17.86-26.78-24.98-32.98-10.2-8.89-24.66-11.65-34.01-21.99l11.98.02c-16.08-19.07-27.2-44.38-19-69,7.45,17.72,5.75,35.64,17.34,52.66,32.02,47.05,99.78,67.26,152.71,47.37,33.95-12.76,79.95-60.32,87.98-96.02,1.95-8.69-.95-24.91,2.8-30.7,3.36-5.2,10.56-2.92,6.18,4.66Z"/>
  <path class="st0" d="M1151.99,1300.01c.44,14.81-16.67,13.7-24,24.98-9.36,14.41-1.14,15.12,3.04,24.97,18.83,44.32,27.47,91.48,9.92,137.99-10.94,28.98-52.3,66.72-82.96,74.06-.95,5.22.8,3.09,2.85,4.16,5.9,3.08,11.87,4.56,15.16,11.8-14.62-3.06-29.96-7.3-45.09-6.05-12.95,1.07-25.03,10.04-38.91,8.05l11.99-7.96c-14.29-1.5-29.08-3.68-41.38-11.63-3.64-2.35-25.94-21-22.6-24.38,16.96,6.75,28.57,21.76,47.88,25.1,53.42,9.22,108.39-15.9,136.5-61.72,22.51-36.7,21.98-109.02-1.52-145.25-6.05-9.32-18.45-13.78-16.86-26.13,7.91-1.98,3.85,5.32,9.97,3.99-4.21-10.75,33.19-34.81,36.01-31.99Z"/>
  <path class="st0" d="M1509.3,1472.7c39.89,42.28,41.15,101.26,20.72,153.3.73.97,19.34-11.8,21.98-2.02-27.76,10.35-41.16,33.14-54.03,58.01l-3.99-1.01,4-8.01c.82-2.46-.49-4.01-2.95-2.95-6.45,2.8-15.17,13.24-25.07,16.94-12.82,4.79-25.48,3.72-38.81,4.95l-1.18-4.95c30.11-3.83,49.64-11.23,70.09-33.91,31.69-35.15,43.06-85.04,28.51-130.61-10.93-34.2-65.36-87.6-101.73-92.27-7.33-.94-16.92,1.26-23.41-.59-7.62-2.17-7.14-12.09,2.57-7.59-7.87-17.38-1.81-32.71,2.04-49.99,13.39,3.21,1.18,21.3,1.86,30.96.28,3.93,3.94,13.03,6.97,15.18,3.48,2.47,7.64,1.4,11.16,2.84,30.23,12.28,58.67,27.74,81.29,51.71Z"/>
  <path class="st0" d="M2034,964c-5.17.88-3.58-.82-4.89-4.01-3.11-7.56-2.12-14.97-4.01-22.09-17.92-67.62-111.03-98.57-171.74-69.54-29.37,14.05-69.99,57.79-78.39,89.61-2.71,10.27.59,39.99-11,34.86l.02-6.83c-12.21,5.99-31.91,4.07-44.57-.43-3.54-1.26-3.89-3.15-3.43-6.57.74-5.49,32.41,10.01,45.12-2.9,4.34-4.41,2.04-9.05,3.87-14.13,15.15-42.03,44.65-82.86,85.68-102.32,34.78-16.49,82.2-12.45,117.33,2.33,1.17-1.17-7.7-17.87-3-21.98,8.18,10.91,16.31,26.55,26.96,35.04s25.07,11.27,34.03,21.96l-13.98-2.02c7.07,9.3,21.99,28.31,21.99,40.01v29Z"/>
  <path class="st0" d="M1865.17,1274.84c18.34,16.96,32.45,35.74,41.84,59.12l12.98-17.96c-.15,11.61-6.01,25.74-5.96,37,.05,14.91,9.82,31.56,9.96,47l-9.96-12c.66,19.15-5.78,36.59-17.97,51.05-1.51,1.78-14.04,15.19-16.04,12.94,4.03-15.93,18.43-25.36,22.62-42.36,17.93-72.66-36.34-152.46-111.54-157.72-31.18-2.18-72.58.34-98.04,20.14-7.64,5.94-11.4,16.5-23.04,13.94l3.99-9.96c-4.78-.86-9.22-2.9-12.83-6.2-3.35-3.06-20.23-26.63-17.16-29.82,12.68-.21,12.77,15.06,20.97,22.01,15.4,13.05,19.46,2.92,31.64-2.4,56.64-24.72,120.81-28.94,168.55,15.22Z"/>
  <path class="st0" d="M1741.99,468.01l-9.98,9.98c27.2-.64,48.33,12.83,63.99,33.99-16.87-3.01-27.99-19.97-45.44-23.54-71.92-14.74-148.87,36.62-156.32,110.81-3.7,36.87,1.9,77.48,26.45,106.06,2.72,3.17,11.11,6.1,9.13,13.39-2.26,8.28-7.01.03-9.8-2.7-3.5,15.9-22.75,30.02-38.01,31.98,2.44-13.08,16.28-12.22,24-22.98,10.79-15.02,3-14.06-1.54-24.49-19.4-44.54-27.8-91.1-11.08-138.13,10.69-30.06,53.39-68.12,84.59-76.42-3.3-4.34-9.48-4.65-14.03-8.93-2.17-2.04-4.64-3.61-3.93-7.05,28.59,13.11,53.41,4.6,81.97-1.99Z"/>
  <path class="st0" d="M856,598.02c-10.14,18.07-23.8,31.06-25.98,53-5.18,52.09,15.37,96.46,57.33,126.64,37.43,26.92,113.29,27.88,151.33,2.01,5.27-3.58,16.93-18.69,22.29-17.68,7.09,1.34-.92,8.48-.92,9.01,0,1.51,10.52,5.35,13.28,7.69,3.5,2.97,21.68,28.28,18.68,31.3-12.86-.05-14.07-17.04-22.94-24.04-15.48-12.23-17.83-1.93-29.02,3.08-57.29,25.66-124.08,29.37-172.05-16-16.2-15.32-34.19-36.6-38-59.02-7.31,3.89-6.22,17.53-15.97,17.99,3.33-13.96,7.26-28.54,6.07-43.08-1.09-13.27-9.68-25.21-8.06-38.91l7.96,10c2.06-12.93,3.47-25.56,9.66-37.36,2.47-4.71,21.02-28.85,26.36-24.62Z"/>
  <path class="st0" d="M1305.99,358.01c-1.44,9.42-18.59,6.98-26.08,8.9-64.2,16.36-94.73,106.03-71.94,164.13,12.98,33.09,58.96,77.51,93.91,86.09,6.85,1.68,35.93,1.74,36.08,7.88l-9.96,3.02c8.73,14.59,1.93,32.35-.03,47.98h-5.93c-3.56-12.56,4.23-20.9,1.84-34.89-2.54-14.89-12.21-11.05-21.34-14.65-56.81-22.36-108.39-66.22-110.52-131.48-.79-24.1,2.01-49.81,13.98-70.96l-21.99,3.97c-1.11-5.34,1.39-3.44,3.94-4.96,7.92-4.72,19.75-11.6,26.03-18.05,10.23-10.52,14.65-28.04,25.03-38.97l-3.01,13.97c2.21,1.72,13.81-9.54,17.35-11.63,17.31-10.21,32.64-11.59,52.64-10.34Z"/>
  <path class="st0" d="M2375.99,1064.01c1.62,12.69-4.62,21.74-11.98,31,4.08.92,8.37-2.2,7.98,4.95l-29.74,21.3,3.77,10.73-6.01,1c10.37,7.93,12.72,25.38,9.1,37.12-3.2,10.38-35.49,28.29-46.27,29.72-5.04.66-12.44.74-17.38-.29-10.46-2.16-31.1-22.2-42.66-23.5-10.5-1.18-36.69,5.44-49.82,5.94-18.2.7-40.19-.34-57.45-6.51-4.18-1.5-10.91-4.23-6.25-9.62,4.45-5.16,16.08-10.87,12.71,2.18,33.65,4.12,67.22,1.41,100.77-2.27l2.3-1.7c2.61-10.67,8.03-27.36,20.94-28.04-5.02,17.12-20.1,27.51-.66,41.66,17.05,12.41,29.66,15.65,50.05,8.7,27.4-9.33,37.47-33.41,12.45-53.2-2.63-2.08-26.05-13.4-21.81-17.17,10.7-.15,30.3,2.05,38.05-7.08,3.47-4.09-.91-7.16.07-8.67.65-1,17.43-8.97,18.89-14.24l12.97-22.01Z"/>
  <path class="st0" d="M1234,1797.98l-9.15,1.87c-5.78,32.74-2.35,66.04,1.48,98.81,2.28,6.62,32.99,8.96,29.65,25.33-14.34-4.75-24.73-20.11-38.78-5.78-2.25,2.3-14.17,22.51-14.79,25.21-3.86,16.96,6.92,48.56,24.15,55.03,5.25,1.97,20.79-2.19,25.41-5.47,3.46-2.46,9.96-12.95,12.85-17.14,3.85-5.57,3.4-13.77,11.16-11.85-.87,15.4-.87,27.01,8.28,39.88l7.76-1.04c6.84,15.15,19.72,24.22,35.97,27.2-7.91,11.01-22.36-4.73-29.02-8.01-5.51-2.72,1.29,7.98-3.97,7.94-6.24-5.01-17.66-28.09-24.4-29.66-5.03-1.18-9.64,5.8-11.57-2.31-11.74,9.56-26.3,13.86-40.43,6.41-6.39-3.37-21.04-27.05-23.55-34.45-3.02-8.91-4.45-18.75-2.19-28.08,2.58-10.66,21.84-29.97,23.05-43.11,1.08-11.67-5.48-35.8-6-49.67-.83-22.22,1.37-44.55,10.11-65.08,3.1-2.32,11.69,11.82,13.97,13.97Z"/>
  <path class="st0" d="M916.01,383.99c-1.13-3.9,4.23-5.39,3.73-8.64-.88-5.71-31.39-36.64-37.71-42.38-5.35-4.86-32.08-27.43-36.87-27.01-7.57.65-22.47,15.84-33.14,5.01l25.08-10.87c8.48-7.5,1.4-34.12-3.37-42.84-8.17-14.95-47.47-32.66-60.58-17.11-15.83,18.79-3.53,34.73-3.17,55.83-7.63-2.56-10.09-11.05-17.31-15.67-5.93-3.8-23.82-11.93-20.69-.32-16.07-5.29-33.65-5.47-47,5.98-3.36-12.44,18.17-14.06,27.01-16.01l-3.99-7.97,39.7,3.72,2.31-7.75,5.96,2.03c-.17-12.66,9.02-29.62,21.95-33.05,11.82-3.13,41.68,4.95,51.94,12.18,22.82,16.08,13.45,43.76,26.06,59.94,4.51,5.78,26.23,18.97,34.09,25.91,11.75,10.37,25.81,24.77,34.01,37.99,9.72,15.66,18.41,26.04-8.03,21.03Z"/>
  <path class="st0" d="M727.99,1458.01l-.96,16.03c-2.34,4.36-4.8-4.02-10.98-1.11-2.56,1.2-22.68,18.77-26.07,22.05-14.73,14.28-26.28,32.76-41.07,47.08-3.2,7.1,18.09,29.13,4.08,39.93-5.08-10.79-6.01-31.93-21.94-32.04-6.73-.05-29.37,7.01-34.94,11.17-12.4,9.25-27.64,47.16-13.58,58.35,1.22.97,18.68,8.3,20.61,8.39,6.21.29,32.55-7.89,34.85-5.84.6,6.15-6.83,7.3-9.97,11.01-5.67,6.69-12.19,16.39-10.01,25.62.41,1.73,4.21.59,4.16,4.22-.12,9.09-3.62,16.37-1.68,27.66.63,3.66,11.12,20.21,4.55,17.46-7.58-3.16-12.44-20.15-11.05-27.98l-5.15,3.88-4.74-2.85,5.68-36.81-9.76-2.25,3.98-5.95c-13.6,1.48-28.71-9.12-33.56-21.44s3.79-40.87,11.57-51.58c17.45-24.02,38.67-13.92,57.91-26.09,9.45-5.97,33.81-42.51,46.04-53.96,4.85-4.55,37.98-29.11,42.04-24.95Z"/>
  <path class="st0" d="M1820,1666.02l-5.77,6.7c19.97,27.93,46.34,51.77,74.43,70.9,10.72-5.03,24.33-14.72,35.31-4.63,0,2.91-25.54,5.81-28.96,12.99s1.63,30.87,5.45,38.56c8.02,16.13,48.29,33.77,61.59,18.49,14.71-16.9,4.79-36.05,1.97-55.03,3.74-3.67,13.18,11.18,17,13.98,5.39,3.94,12.8,7.69,19.63,6,1.54-.38,1.25-3.79,2.68-4.06,4.33-.81,17.41,2.96,25.69,2.07s12.04-4.36,18.82-7.17c2.84-1.17,5.65-1.52,4.15,2.14-2.43,5.93-21.38,12.32-27.98,11.04l1.98,9.98c-14.59-1.64-37.21-15.08-42.99,3.97l-4.98-3.97c2.77,16.94-13.58,36.77-30.89,35.87-11.31-.59-36.34-9.22-45.15-16.85-18.78-16.25-11.38-41.33-23.03-56.97-4.26-5.72-25.47-18.46-32.98-25.02-7.45-6.51-52.47-52.44-43.98-61.02l18,2.01Z"/>
  <path class="st0" d="M2122.02,369.99l7.97-3.98-4.13,37.11,8.11,5.88-3.96,4.98c19.81-2.55,38.92,14.35,35.91,34.9-1.06,7.2-5.9,26.49-9.49,32.54-17.26,29.05-40.84,17.67-61.47,30.53-6.11,3.81-16.1,21.42-21.92,28.08-6.99,8-17.5,20-25,27-5.42,5.06-35.81,28.21-42.02,22.96l2-15.98c3.77-1.17,5.02,3.94,8.09,3.17,2.31-.58,11.19-7.95,13.93-10.16,21.12-16.96,36.72-39.26,55.01-59.08,1.59-13.76-12.89-24.39-5-39.94,5.26-.61,3.15.09,4.01,2.93,3.01,10.01,4.1,25.53,16.88,27.18,7.24.94,26.42-3.68,33.21-7,15.24-7.44,32.74-46.98,18.04-60.28-1.19-1.08-13.93-8.55-15.19-8.8-14.1-2.8-23.63,5.3-34.15,5.88-15.19.83,2.44-9.75,6.02-14.08,5.43-6.58,14.48-23.05,3.66-26.67,6.55-17.21,2.67-32.08-6.5-47.15,12.7,3.03,14.37,19.15,16.02,29.97Z"/>
  <path class="st0" d="M607.99,881.96l-12.97,8.06-1.11-7.93c-33.69-7.12-66.76-1.53-100.58.24-8.93,10.36-7.57,29.01-25.31,31.67-3.48-3.45,20.88-22.51,7.07-38.08-3.71-4.18-25.31-16.77-30.61-17.54-15.91-2.31-45.66,9.83-50.99,26.22-3.25,10,4.77,23.66,12.69,30.24,3.91,3.25,26.72,14,21.82,19.16-11.84-3.15-25.89-2.84-35.97,5.13-5.21,4.12-1.21,6.62-3.79,9.93-4.13,5.3-14.67,10.03-19.9,18.28-3.41,5.38-5.81,12.29-6.34,18.68-10.02-6.83,3.21-23.33,8.01-31.01l-7.95-3.99,30.15-21.96-2.2-12.03,6.01.97c-14.59-14.19-17.92-35.84-.99-49.98,14.68-12.27,38.16-22.57,57.51-17.51,8.39,2.19,28.34,20.88,39.36,22.66,7.82,1.26,25.76-4.51,35.16-5.12,16.56-1.08,66.88-1.72,78.92,9.03,1.83,1.63,2.63,2.14,2.04,4.91Z"/>
  <path class="st0" d="M1437.98,28l3-7.99c4.61,5.18,18.62,28.74,24.31,29.71,2.9.49,5.02-2.9,7.73-2.93,1.34-.02,2.79,2.83,5.08,2.36,2.27-.47,5.6-4.21,8.81-5.25,9.51-3.1,21.75-3.5,30.51,1.69,5.58,3.31,22.83,31.05,24.11,37.89,5.41,28.95-8.38,34.12-18.6,56.43-7.74,16.89-.18,25.91,1.05,43.12,1.9,26.65.85,55.71-8,80.97-4.65,3.15-23.66-18.23-6.06-14.09,7.13-32.95,1.7-65.41-.3-98.52-2.36-7.83-32.4-8.98-31.61-25.37,4-3.74,23.79,19.41,37.85,6.83,6.36-5.69,18.31-28.93,18-37.54-.84-23.4-17.04-52.67-44.25-42.7-15.67,5.74-17.15,24.51-25.51,32.06-2.2,1.99-3.37,1.44-6.09,1.32,3.36-10.21,2.7-33.66-8.13-38.94-11.63-5.67-5.29-2.64-13.92-12.01-7.3-7.92-16.9-14.36-27.96-15.06-2.89-2.68.25-3.74,3.03-4.04,9.96-1.1,19.46,6.33,26.96,12.06Z"/>
  <path class="st0" d="M807.99,861.99c-8.69-.3-12.02-8.42-21.11-9.85-46.12-7.26-58.06,47.09-87.88,67.94-3.64,0-6.88-5.7-10.32-7.75-7.68-4.57-52.22-31.28-56.16-31.96-2.84-.49-5.48-1.14-7.63,1.53-4.35,6.3,6.12,19.05-2.86,18.1-3.01-10.24-7.83-13.5-3.6-24.55,12.73-33.3,50.57,13.5,68.92,20.14l20.65-7.57-11.99,14.99c-.43,1.38,1.6,1.3,3.01,1.02,10.68-2.14,25.16-41.47,40.31-51.7,16.82-11.35,66.27-19.25,68.65,9.65Z"/>
  <path class="st0" d="M1805.99,1638.01c-.66,13.62-16.06,29.24-29.94,22.95-13.05-5.91-12.92-51.61-19.02-64.99l-19.03-5.99c-6.85-6.25,18.87-3.17,20-4-11.31-12.09-33.22,2.2-49.24,3.78-16.84,1.66-26.55.28-40.63-8.89-10.52-6.85-26.32-22.46-25.87-35.95.16-4.62,5.28-12.66,8.8-6.98,1.68,33.97,33.38,40.28,62.01,38.14,17.49-1.31,34.61-10.17,53.06-5.2l19.02,74.98,5.85,6.09,14.99-13.92Z"/>
  <path class="st0" d="M1503.98,366l-13.01-11.98c-2.76-.59-3.76.11-2.94,2.94,2.67,9.31,43.8,25.73,53.68,42.33,7.93,13.32,14.2,64.8-7.02,66.46-11.2.88,3.44-14.43,4.4-17.66,4.58-15.42-1.81-31.07-11.14-43.04-15.67-20.12-40.68-27.56-55.82-48.32l39.44-66.18.29-8.41-19.85-1.12c11.1-10.57,33.51-9.59,36.63,7.42,2.16,11.77-25.92,43.56-32.37,55.01l7.7,22.57Z"/>
  <path class="st0" d="M856.01,1307.99c-25.06-.22-37.82,17.65-39.97,41.04-2.46,26.73,8.76,48.44,5.98,74.97-3.48.03-7.09-.38-10.53.47-13.62,3.34-57.02,12.71-66.21,17.79-13.81,7.65,8.95,12.95,8.71,21.73-17.19-2.82-33.61-22.85-17.44-36.45l59.19-11.81,9.28-21.72c1.97-.04-.89,27.43,4.98,20,3.01-23.87-11.7-43.71-7.86-68.89,2.42-15.92,24.52-42.93,41.07-44.97,7.23-.89,14.12-1.14,12.82,7.83Z"/>
  <path class="st0" d="M1244,1769.98c-16.05,9.41-45.67,4.65-36.43-19.42,3.01-7.85,31.54-41.61,31.86-45.53l-9.43-21.01c3.58-3.64,12.8,14.67,17.99,10.99-7.23-15.69-26.5-19.51-39.82-30.18-19.06-15.26-24.96-35.79-22.17-59.83,1.03-8.86,9.21-28.23,19.96-18-13.71,14.26-15.45,28.88-6.38,46.42,13.72,26.52,46.68,36.55,64.34,59.58l-41.61,68.46c-2.15,13.8,18.63-.4,21.68,8.52Z"/>
  <path class="st0" d="M2110.02,1148c12.16,8.05,8.8,35.74-5.13,38.02-13.98,2.29-43.95-27.1-57.9-33.33l-20.99,9.29,13.99-16.99c.43-1.37-1.64-1.37-2.95-.96-15.43,4.79-23.81,43.87-46.62,55.39-14.32,7.23-58.85,12.71-64.11-6.76-3.67-13.58,12.14.8,15.67,2.37,13.67,6.06,26.53,1.75,38.66-5.38,25.28-14.86,31.68-44.41,54.63-61.5l68.69,41.1c12.7.57,4.33-12.91,6.06-21.24Z"/>
  <path class="st0" d="M1938.27,634.27l-7.3,19.72-3-19.97c-3.23-.08-4.03,6.98-4.07,9.05-.26,14.46,9.41,32.76,10.12,48.02,1.01,21.89-21.41,55.52-43.55,58.55-5.56.76-14.38-1.54-10.54-8.71,15.09-.22,25.69-5.59,32.94-19.06,17.36-32.24-4.61-64.56,1.23-97.77,4.76-.09,9.29.09,14.02-.99,15.36-3.49,38.33-8.63,52.77-13.22,5.67-1.81,16.14-4.7,12.2-11.94l-13.08-11.93c20.68-.32,36.35,29.85,12.89,37.87-8.44,2.89-52.48,8.6-54.62,10.37Z"/>
  <path class="st0" d="M997.99,460.03l-19.97,4c-.08,3.22,6.99,4.03,9.05,4.07,18.79.3,37.37-13.72,59.06-9.21,17.48,3.63,53.89,30.52,44.83,51.08-.42.95-3.53,4.78-4.96,3.05-3.36-18.99-12.73-32.87-31.91-38.11-30.48-8.33-55.63,7.85-86.07,3.07.09-3.4-.09-6.74-.91-10.07-2.9-11.83-13.12-57.82-17.4-64.61-8.04-12.76-12.58,3.82-19.68,8.69-1.03-15.25,14.72-29.78,29.95-22.96,10.66,4.78,13,50.94,17.01,62.98l21.01,8Z"/>
  <path class="st0" d="M618,1025.97c14.24,4.62,43.56,26.09,45.91,41.15,1.29,8.28.43,19.14-9.9,18.87,2.29-8.83,4.58-18.97-3.01-25.95-6.32,4.6-1.18,11.5-.93,17.05.57,12.79-6.22,6.5-12.08,9.9-1.83,1.06-6.04,11.35-8.95,15.05-12.85,16.28-42.34,23.73-61.47,17.39-12.86-4.26-15.48-14.25-24.54-23.06l-19.02,13.62,4.01-9.97-6.01-4.01,11.98-.02-3.99-4.01,3.77-4.98-9.76-4.99,1,9.98c-18.33-12.79.12-21.44,14.88-14.02l5.13-9.97c8,.99,2.63,9.06,2.79,14.98,1.07,39.33,60.7,39.59,79.86,9.69,10.28-16.04,9.9-48.83-8.92-58.44-4.76-2.43-17.36-2.77-18.75-4.27-3.23-3.46,6.88-6.11,9-7.96,11.38-9.89,20.08-21.27,8.98,3.95Z"/>
  <path class="st0" d="M1314.08,197.89c2.63-.99,13.07,4.25,7.95,7.13-6.23,3.51-14.93-3.73-26.74,3.27-39.32,23.32-8.57,100.88,46.65,80.64,16.21-5.94,17.56-17.58,20.08-32.94l19.97,23.01-16.03-2.17c-7.54,16.36-33.64,54.57-54.71,42.9-2.69-1.49-5.89-4.2-5.24-7.73,9.57.82,12.87,3.75,22.1-.99,2.9-1.49,4.86.08,3.88-5.01-9.05-1.59-17.47,4.37-25.71-.29,3.17-15.72-9.8-12.95-19.26-21.73-14.59-13.54-22.65-48.51-11.93-65.91,4.61-7.49,14.22-11.95,20.79-17.27l-13.87-18.79,8.86,2.1,5.13-4.11.02,9.99,10.74-.47c3.17-.84,3.85-3.75,3.23-6.51-1.64-7.33-9.89,6.45-9.96-1.99,16.23-16.45,19.34,2.56,14.07,16.87Z"/>
  <path class="st0" d="M1913.98,374l-6.02,10.99,9.01,7.08c4.28.82,7.51-7.36,3.58-8.09-3.44-.63-5.4,1.94-4.53-3.97,10.65-1.3,19.3,6.08,10.08,15.09-2.77,2.7-7.98,3.08-9.27,4.83-1.95,2.65,3.69,14.2-1.82,14.03-2.56-.08-9.78-16.65-26.01-17.98-35.53-2.92-57.6,40.19-41.76,69.79,6.4,11.96,22.9,25.49,37.23,23.86,9.13-1.04,15.05-9.46,23.52-11.62-3.8,7.58-1,22.22-2.95,28.02-2.38,7.07-8.02-10.64-7.06-12.04-21.52,6.82-73.12,19.53-71.97-15.98,7.02-.37,6.25,8.64,11.18,11.8,3.88,2.48,8.44,2.36,12.81,2.17-5.73-9.58-27.25-16.87-10.05-27.08-19.15-36.36,18.21-90.94,60.02-72.88l2.05-24.01,5.96,9.04,6-3.04Z"/>
  <path class="st0" d="M742.08,475.94l13.91-1.93c.95,8.7-9.58,9.81-13.72,17.26-19.92,35.9,32.63,73.43,67.14,53.14,23.86-14.03,30.3-39.45,10.58-60.4l29.99,1.99c1.84,7.2-11.84,7.16-12.13,9.13,5.1,15.33,14.67,68.51-9.05,70.85-3.54.35-6.53.13-8.8-3,9.12-4.66,16.35-9.41,15.97-20.99-9.06,2.24-9.54,10.26-15.3,15.74-8.43,2.86-10.99-4.78-13.63-5.08-9.39-1.08-17.98,8.81-38.5,1.79-26.75-9.16-43.88-33.74-34.71-62.27l-21.84-2.2c3.41-5.62,9.8-3.8,6.01-11.98,2.63.41,3.78,3.8,6.01,4.97,8.36,4.37,4.26-1.78,5.1-3.05,1.6-2.41,13.06-5.71-1.12-9.92l-1,7.98c-6.29-5.32-4.76-10.12,1.01-15.13,5.09-2.67,15.25,7.16,14.06,13.09Z"/>
  <path class="st0" d="M1914,1487.97c-10.53,1.09-13.01,9.46-16,18.01,11.74,1.74,10.3-14.51,19.45-15.71,7.02-.92,5.28,5.28,7.9,5.87,3.55.8,21.1-5.28,31.66-4.14,15.81,1.7,44.84,23.03,46.63,39.54.59,5.45-4.32,22.35-2.82,24.52,7.37,4.93,15.12,4.64,23.17,1.95,2.13,6.71-8.66,4.76-9.98,6.02l4,5.96-11.99-5.98c1.5,9.19-12.65,6.98-1.01,15.96l3.02-7.96c5.65.33,4.01,12.27,1.71,13.72-6.99,4.43-17.69-6.31-17.84-13.7l-13.88,1.96c4.57-11.51,15.67-10.07,17.8-25.16,6.84-48.45-65.51-70.07-88.93-24.95-10.03,19.31.13,25.3,7.1,42.12-9.45-4.42-19.76-4.34-29.98-4.02l13.98-8.06c-5.56-18.98-11.96-39.88-4.41-59.35,7.22-18.61,24.59-12.1,20.43-6.6Z"/>
  <path class="st0" d="M2209.98,938l-2.16,10.82,4.17,3.16-11.94,3.02,3.77,10.08,8.17.9-3.99-7.97c6.6-1.39,10.06,4.61,9.82,10.66-6.25,9.02-15.16,3.39-23.64,3.48l-3.18,7.88-5.03-1.15c1.52-13.25,3.56-19.35-5.46-30.39-15.4-18.82-42.4-16.83-61.18-4.17-30.39,20.49-26.02,76.41,16.66,73.68,1.15,4.61-.85,3.29-2.52,4.57-3.54,2.73-17.39,14.94-18.5,15.4-7.5,3.08,2.59-13.49.9-15.83-17.47-5.58-53.85-32.84-44.36-53.65,1.87-4.1,3.9-5.16,8.48-4.49-1.4,8.17-5.68,21.84,6,23.98l-.17-23.17c3.81-4.77,8.66-.35,11.3-2.57,3.02-2.55,3.37-8.67,5.96-12.17,13.48-18.26,42.97-27.47,64.6-20.76,9.57,2.97,21.56,22.75,25.26,22.76l17.05-14.08Z"/>
  <path class="st0" d="M833.97,1542l5.28,11.84c17.21-3.75,35.03-8.68,52.86-4.95,10.27,2.15,22.81,12.31,14.9,23.1-5.8-8.27-9.07-16.19-21-15.98-.67,8.53,6.41,8.15,11.01,11.95,11.42,9.42-.45,10.63-1.11,17.12-.44,4.33,3.45,7.85,3.98,12.03,2.57,20.4-12.63,56.42-33.83,61.95-18.24,4.76-41.13-11.75-32.06,20.92h-3.97s-2.05-8-2.05-8l-5.96,2.02,5.97-11.99-5.97,2.01-.19-5.77c-6.76-1.82-11.55.53-5.83,6.65.2.21,8.57-1.83,4,3.07-3.92,4.2-20.72-1.38-12.14-13.14,5.01-6.86,15.2-1.45,10.16-18.83,9.15,1.33,9.2,11.46,17.95,15.02,34.87,14.19,66.06-29.04,55.02-61.02-5.79-16.79-25.47-32.8-43.86-29.91-6.27.99-9.91,6.05-14.93,9.12-2.33,1.42-2.79,4.23-5.22.79,2.87-8.25,2.03-16.69,3.01-25.04.33-2.8,1.18-5.84,3.98-2.96Z"/>
  <path class="st0" d="M1427.99,1737.99c-4.82-2.51-23.77-3.69-23.95,3.01s20.55-1.86,24.06,1.92l.7,11.16c26.71,8.25,37.87,36.87,35.3,63.03-2.03,20.66-23.79,28.12-24.23,30.21-1.74,8.22,9.96,15.03,14.13,20.67l-11.99-4-1.99,6.01-3.02-11.95c-4.32,6.85-6.78.07-8,0-2.63-.16-3.73,7.38-2.99,9.95l7.97-3.99c-4.81,22.48-24.88,3.65-11.97-11.98-7.25.97-15.8-9.12-4.49-8.71,8.88.32,12.01,2.38,20.81-1.99,29.88-14.82,21.7-63.57-4.56-78.1-14.79-8.18-44.68-9.02-54.69,6.85l-8.06,21.9-17.04-22.97,14.07,4.14c8.64-16.61,33.24-54.94,55.94-44.14,3.38,1.61,4.51,5.45,4,8.98Z"/>
  <path class="st0" d="M1910,1100.03c-1.58,8.27-11.79,8.31-19.03,8.11-24.75-.69-49.13-9.2-69.98-22.13-2.82,2.85,2.14,9.57-4.96,7.98-10.82-25.22-13.29-48.72-33.95-69.07-3.78-3.72-22.8-18.07-27.06-18.95-7.12-1.47,2.87,7.22-4.03,6.05-4.63-.78-9.45-4.94-14.46-5.54l-22.49-1.48c25.48-19.61,63.81-5.92,81.62,18.34,8.87,12.09,16.47,42.9,23.3,48.7,7.09,6.03,37.39,18.92,46.95,21.05,14.52,3.24,29.96,1.81,44.1,6.93Z"/>
  <path class="st0" d="M1135.99,1284.01c2.15,14.53-21.29,34.44-33.44,39.54-23.07,9.69-36.79,6.1-59.08-2.03-7.46-2.72-16.07-9.34-23.42-10.73-9.89-1.87-40.33,10.62-50.09,16.17-14.03,7.98-24.69,20.99-39.96,27.02-6.74-7.89,19.76-27.78,25.36-31.62,14.26-9.78,31.76-17.57,48.63-20.39l-6-7.96c21.65,1.02,34.6,18.02,55.9,21.08,9.71,1.4,23.33,1.74,33.07.87,2.65-.24,26.35-4.59,23.03-7.95l-6-4c5.56-.35,12.15-3.29,16.66-6.36,6.51-4.44,8.33-11.71,15.33-13.65Z"/>
  <path class="st0" d="M1090.02,660l5-3.98c6.94-3-1.89,17.57-2.67,19.34-6.92,15.83-14.52,22.19-16.32,41.67-.36,3.84.36,56.4,7.95,48.97l4.01-6.01,1.56,9.44,18.44,24.55c-26.79-3.74-47.21-39.19-45.88-64.72.9-17.33,20.64-46.04,19.49-57.79-.82-8.3-10.34-33.47-14.51-41.57-6.42-12.46-26.25-30.69-29.03-40.99-1.06-3.94,2.12-3.44,4.84-2.84,8.01,1.77,23.76,21.87,28.73,29.28,9.08,13.53,14.34,28.92,18.39,44.63Z"/>
  <path class="st0" d="M1389.65,1372.44c8.79,4.93,5.8,37.81,2.91,47.12-12.2,39.38-36.55,35.79-64.66,51.34-10.75,5.95-22.19,30.16-25.98,42.02-5.05,15.8-3.57,35.21-8.03,47.97-.83,2.37-1.34,5.93-4.86,5.1-7.73-1.83-3.71-34.01-2.52-40.48,2.95-16.04,10.87-32.82,19.48-46.52l-7.97-3.96c13.41-10.87,30.26-11.23,45.32-18.69,17.42-8.64,38.08-29.34,42.65-48.33l-5.95-.96c6.92-10.01,8.09-23.82,3.97-35.02,1.85.11,3.9-.56,5.65.42Z"/>
  <path class="st0" d="M913.97,962.01l4-8.01c10.1,18.55,11.22,38.25,23.16,55.86,9.94,14.67,24.86,25.12,39.9,34.11l1.95-7.96c6.5,4.66,16.09,8.01,24.03,8.15,3.9.07,13.76-5.2,12.96.81-5.07,12.22-41.94,6.85-52.72,2.77-32.76-12.41-32.96-35.88-45.81-62.19-5.85-11.98-34.73-24.56-47.89-28.11-15.53-4.18-31.88-4.16-47.56-7.48l.08-5.85c30.85-7.56,60.88,3.85,87.9,17.89Z"/>
  <path class="st0" d="M1645.98,1388l-9.96,3.02c3.03-14.86,13.73-26.35,18.55-39.45,7.9-21.48,6.57-43.84.46-65.61l-2.04-1.93-5.01,3c-3.5-6.44-5.32-14.07-10.29-19.72-4.25-4.83-11.52-5.3-11.68-11.3,26.05,1.41,44.76,32.68,45.96,57.02,1.32,26.73-19.38,48.16-17.79,65.72,2.75,30.45,25.73,56.23,41.85,80.29l-3.01,4.91c-24.68-15.97-43.6-46.56-47.03-75.95Z"/>
  <path class="st0" d="M1805.99,696.01c5.77,5.67-22.84,28.59-27.33,31.65-13.52,9.21-30.27,16.39-46.65,18.35l3.98,9.98c-15.77-1.37-28.45-14.22-42-18.98-21.7-7.62-46.29-5.95-67.98,1.01,11.9,8.76,1.65,5.91-5.4,9.59-7.62,3.98-14.33,9.86-18.6,17.42l-4.02-2.07c8.75-28.1,39.84-45.71,68.8-42.73,19.14,1.97,39.45,19.45,56,17.66,9.19-.99,29.97-9.02,38.6-13.49,16.4-8.52,27.15-24.36,44.6-28.38Z"/>
  <path class="st0" d="M1428,571.98l10,.04c-11.27,13.03-30.57,12.47-45.37,19.61-18.16,8.75-35.79,29.39-44.61,47.39,14.28-1.69,6.24.72,3.87,7.87-3.25,9.84-5.64,18.94-1.89,29.1-10.59,8.78-10.56-29.87-10.08-35.07,1.38-14.79,12.23-35.08,24.21-43.79,13.85-10.06,41.88-14.54,50.75-25.25,5.81-7.01,15.82-28.47,18.59-37.41,3.77-12.18,4.91-43.84,9.51-50.49,3.05-4.4,6.11,3.16,6.59,5.47,5.22,25.45-7.22,61.39-21.56,82.54Z"/>
  <path class="st0" d="M1487.32,773.32c-11.65,11.67-26.5,7.09-40.15,8.85-22.01,2.83-28.14,11.9-53.62,3.29-6.67-2.26-27.65-15.49-27.5-22.47.08-3.46,2.59-2.29,4.99-1.07,8.15,4.14,14.96,11,24.83,13.2,17.01,3.8,41.26,1.36,58.58-1.67,18.19-3.18,32.48-10.86,30.88-32.2-.54-7.14-6.95-12.62-8.48-19.11-2.23-9.48.56-19.57-1.31-28.69-1.46-7.14-9.17-15.66-11.9-22.14-1-2.38-1.64-5.17,1.34-5.26s12.66,10.23,14.5,13.46c7.35,12.89,4.73,23.83,7.39,36.61,2.72,13.06,13.64,20.09,10.66,36.4-.75,4.09-7.25,17.82-10.22,20.8Z"/>
  <path class="st0" d="M1104.02,1026c-1.8-1.98,11.44-21.17,12.96-26.01,5.38-17.07,2.56-57.69-3.13-74.84-3.95-11.91-18.24-19.93-30.42-18.71-6.72.68-12.56,7.8-18.9,9.11-9.7,2.01-19.99-1.19-30.2,1.8-7.33,2.14-15.83,9.97-23.32,12.68-3.43-12.9,16.74-21.13,26.88-23.12,6.55-1.28,12.51-.24,18.62-1.38,10.41-1.94,20.75-10.76,30.47-11.61,12.56-1.11,29.24,7.99,34.49,19.61,5.64,12.47,1.57,16.52,2.44,27.44.69,8.74,6.43,18.69,7.51,28.59,2.4,21.89-5.93,47.77-27.41,56.45Z"/>
  <path class="st0" d="M1182.01,836.01c29.61,1.18,55.92-29.28,70.85-52.15,9.42-14.43,12.95-33.13-3.84-43.88-5.83-3.73-12.16-3.19-17.75-6.25-6.99-3.83-12.45-13.78-21.21-18.79s-18.49-6.5-28.05-8.97c6.29-12.36,25.98-3.56,35.06,1.96,6.97,4.24,11.09,10.66,17.52,14.48,12.92,7.66,24.72,4.28,33.81,20.18,7.51,13.14,7.5,26.75-1.53,39.27-3.7,5.13-8.95,7.12-12.56,11.44-16.03,19.19-17.34,43.7-51.48,48.52-5.87.83-21.41,2.64-20.82-5.81Z"/>
  <path class="st0" d="M1554,1211.98c-32.64,1.84-54.84,28.2-71.66,53.36-7.07,10.58-11.74,18.52-6.49,31.81,5.58,14.11,18.75,13,28.82,19.18,7.68,4.71,12.54,14.35,21.21,18.79,7.2,3.69,17.99,5.96,26.11,6.89.68,8.12-13.31,6.75-18.87,5.86-13.03-2.1-21.84-14.28-31.73-20.25-12.68-7.66-26.22-5.89-34.88-21.12-7.26-12.76-7.64-25.99.59-38.39,3.71-5.59,10.18-7.62,13.83-12.17,8.83-11.01,10.73-24.7,24.12-35.88,10.6-8.85,38.7-21.34,48.94-8.08Z"/>
  <path class="st0" d="M1127.31,1126.69c3.42,2.99,5.7,8.46,10.82,12.18,8.24,5.98,20.89,9.61,28.86,17.14,12.6,11.89,22,36.95,16.99,54-4.03.53-3.28.36-4.48-2.5-3.13-7.46-3.01-15.78-7.44-24.57-6.74-13.37-39.86-42.37-53.36-48.63-8.25-3.82-15.75-4.25-24.08-.69-16.68,7.13-11.45,15.05-17.76,26.23-4.04,7.16-15.55,14.09-20.37,23.63-3.42,6.78-6.2,17.89-6.48,25.5-8.96,3.18-6.34-15.32-5.02-21.01,3.11-13.48,14.84-20.3,20.67-31.33,9.3-17.61,6.38-31.37,30.72-37.27,11.38-2.76,22.04-.47,30.95,7.32Z"/>
  <path class="st0" d="M1631.99,1024.01c-3.41,8.21-9.87,12.92-12.93,22.05-6.51,19.38-4.15,46.39-.55,66.43,3.4,18.93,12.94,32.93,34.39,29.4,6.26-1.03,9.39-6.31,14.52-7.47,6.74-1.52,14.61.29,21.56-.44,11.91-1.25,25.57-7.57,34.02-15.94,6.94,4.35-2.9,14.1-7.1,16.86-13.16,8.69-28.58,5.77-42.38,9.62-6.16,1.72-11.71,6.69-17.49,8.5-19.3,6.06-42.1-5.59-45.56-26.5-1.3-7.85.45-15.85-.59-23.41-1.27-9.22-7.7-21.27-7.66-31.9.06-14.66,11.96-46.63,29.76-47.2Z"/>
  <path class="st0" d="M1555.99,838.01c-1.36,32.3,30.75,57.8,55.35,73.65,9.6,6.18,14.25,8.74,26.34,5.02,16.8-5.16,14.58-16.51,20.57-27.42,4.22-7.69,14.96-13.43,20.1-23.9,3.75-7.65,5.39-17.15,7.67-25.35,4.84-4.71,6.22,10.68,6.07,12.92-1.29,18.93-15.88,26.02-22.9,39.27-3.15,5.95-3.8,13.31-6.79,19.21-9.66,19-35.79,25.7-53.12,12.31-4.42-3.42-7.09-10.07-12.27-13.73-20.72-14.66-42.81-18.81-46.84-51.14-.63-5.09-2.1-21.79,5.81-20.83Z"/>
  <path class="st0" d="M1367.99,1287.99c-13.84-6.54-22.75-14.34-39.01-15.97-12.88-1.29-56.58,2.54-66.9,9.06-9.58,6.07-13.77,18.85-11.97,29.82,1.03,6.26,6.31,9.39,7.47,14.52,1.52,6.74-.29,14.62.44,21.56,1.42,13.42,9.24,23.8,15.98,35-26.36-2.7-21.45-32.54-26.57-50.41-3.1-10.83-11.26-19.74-10.82-32.99.11-3.22,8.48-20.34,10.85-22.66,11.88-11.62,22.97-6.84,35.5-7.83,14.14-1.12,26.5-9.72,44.05-8.09,14.14,1.31,38.08,12.57,40.98,28Z"/>
  <path class="st0" d="M1872,742.02c3.01,2.8-.21,3.62-2.96,3.98-11.88,1.55-26.22-1-36.06-7.95-2.31.14-8.57,21.48-10.59,25.35-3.76,7.21-17.42,20.74-16.1,29.16.51,3.3,4.53,5.55,3.7,9.43-9.74-2.77-15.51-6.29-25.98-2,5.05-15.65,21.34-21.57,29.28-35.7,18.61-33.13-1.03-50.02-6.78-81.8-1.96-10.81-.36-23.21-4.49-34.49,16,10.38,13.29,33.32,17.88,49.1,6.75,23.21,28.22,41.54,52.1,44.92Z"/>
  <path class="st0" d="M1525.98,468c-3.12,15.09-20.55,20.04-31.92,27.12,2.38,8.14,8.28,15.08,10.59,23.24,3.29,11.67.19,35.41,17.37,33.65v5.98c-3.38-.1-6.73-.4-9.97,1.03-6.61,2.94-3.39,11.54-10.02,10.96-4.6-13.59-.15-28.59-2.5-42.52-4.08-24.13-25.18-38.25-46.88-45.12l-44.65-32.33c28.64,1.06,40.88,25,69.27,29.71,17.59,2.91,33.88-2.28,48.71-11.72Z"/>
  <path class="st0" d="M1941.99,1066.01c1.96,20.22-17.21,33.58-24.04,48.94-6.33,14.24-8.45,29.58-4.54,44.64,2.38,9.15,7.1,15.99,10.57,24.4-14.53-6.26-20.15-21.08-26.97-33.95-13.05,10.59-28.39,10.59-43.06,14.91-11.25,3.31-13.06,3.88-16.96,15.01-4.22-2.88-2.69-9.21-4.82-12.65-1.99-3.2-11.39-2.7-10.17-9.3,16.26-3.89,29.99,2.09,46.47-2.53,30.96-8.69,35.6-37.45,50.65-61.35l22.86-28.12Z"/>
  <path class="st0" d="M1326,1596.02c-1.55,6.06-12.72,1.01-16.55-.47-21.36-8.26-29.82-24.6-56.66-27.33-17.23-1.75-29.24,6.86-44.79,11.76,6.81-12.03,20.03-21.9,33.99-24-12.19-12.53-10.94-43.99-18.37-54.59-4.36-6.22-12.5-2.23-11.63-9.37,10.52.86,15.58-5.02,19-14,9.06,15.32,1.1,28.54,5.6,46.4,8.61,34.15,33.24,33.54,58.03,49.97,10.6,7.03,18.64,18.21,31.38,21.64Z"/>
  <path class="st0" d="M1743.99,1458.01c6.84,6.41-31.49,16.43-33.89,17.09-4.98,1.37-10.31.76-15.74,2.26-22.64,6.26-42.96,28.89-44.38,52.64-9.36-10.01-1.81-31.27,4.02-41.98-18.71.54-37.75-21.82-52.01-25.25-4.74-1.14-6.99,4.41-11.98,3.21,3.26-8.88,5.85-14.41,2-23.98,15.88,3.37,21.55,20.65,36.12,28.86,30.87,17.38,47.37-.41,75.76-5.98,13.22-2.59,27.48-.89,40.1-6.88Z"/>
  <path class="st0" d="M949.99,1250.01c-3.7,14.58-20.04,20.53-27.67,33.31-18.96,31.77-.88,48.82,4.79,78.57,2.27,11.89.16,26.9,6.88,37.12-5.06,3.26-9.05-6.76-10.95-11.05-10.5-23.64-4.53-48.15-28.34-67.66l-32.7-16.28c14.57-3.09,28.41.52,41.97,5.98,1.66-6.28,3.47-12.85,6.31-18.71,7.62-15.77,24.07-26.88,15.73-45.28,9.42,4.35,12.95,7.81,23.98,4Z"/>
  <path class="st0" d="M1087.98,520c4.43,13.72-2.3,26.79-5.15,40.04,8.47,4.89,17.94,6.85,26.55,11.58,6.49,3.56,14.79,12.72,22.14,14.08,6.52,1.2,8.47-4.34,14.46-3.69-.09,5.35-5.44,7.4-5.99,13.17-.44,4.63,2.24,8.33,1.98,12.82-14.66-6.48-20.41-20.72-34.15-28.83-34.57-20.43-49.55,1.28-81.35,6.32-11.33,1.79-23.09-.49-34.47,4.51-1.14-5.08,1.31-3.5,3.74-5.18,16.27-11.25,30.38-7.8,46.64-13.42,19.7-6.81,33.26-22.46,40.67-41.33,1.8-4.59-1.57-11.56,4.91-10.06Z"/>
  <path class="st0" d="M871,892c-32.44,4.6-38.07,35.69-52.16,57.84-7.39,11.61-20.79,20.66-22.86,34.16-5.48-1.28-2.12-10.43-.96-14,7.05-21.57,25.46-32.17,28.81-59.16,2.12-17.09-5.56-29.83-11.82-44.83,3.78-3.94,26.38,25.3,24.02,31.99,9.58-2.77,18.29-8.23,27.85-11.12,7.07-2.14,22.52-1.94,28.91-6.65,2.41-1.78.25-8.12,4.24-10.2,5.37.02,2.12,7.33,6.02,11.93,2.13,2.52,5.74,3.72,8.95,4.08,1.15,1.53-1.92,5.97-3,5.97-11.27,0-27.58-1.48-38,0Z"/>
  <path class="st0" d="M1179.99,288.01c.89,3.91-2.05,4.73-4.18,6.8-10.56,10.23-31.36,20.96-39.79,32.21-16.29,21.73-19.97,77.03,11.49,86.48,9.68,2.91,24-.14,32.47,5.54l-17.2,4.76c-50.46,4.08-61.48-53.33-42.2-90.22,11.04-21.12,38.37-36.18,59.41-45.57Z"/>
  <path class="st0" d="M1755.99,370.03c.16,3.56,1,4.24-2.97,3.98-33-2.09-54.66-15.62-85.68,6.34-16.84,11.92-28.61,28.97-25.21,50.53,2.11,13.4,19.37,21.59,21.85,35.11l-18.01-12.97c-37.91-32.9-1.15-80.13,36.03-92,23.65-7.55,50.76,3.53,73.98,9.01Z"/>
  <path class="st0" d="M807.99,728.01l-13.92,21.06c-33.7,34.93-86.63-8.09-91.9-46.25-1.79-12.96,3.85-54.12,10.8-64.85.59-.91,1.8-2.15,3-1.98,2.51,3.47-7.23,49.81-5.52,60.51,4.54,28.52,40.48,67.22,71.38,50.32,3.16-1.73,23.91-21.1,26.15-18.82Z"/>
  <path class="st0" d="M2103.99,837.99c-4.15.91-4.55-2.14-6.44-4.54-21.64-27.47-32.4-52.27-72.46-53.54-17.87-.57-41.32,6.11-46.61,25.58-2.28,8.4-.83,22.54-3.96,30.04-1.21,2.9-.58,3-4.52,2.46,1.51-15.08-5.02-25.74.98-42,9.44-25.6,47.71-30.72,70.57-24.55,33.76,9.11,49.8,35.98,62.43,66.55Z"/>
  <path class="st0" d="M2021.97,1411.99c-3.42.07-4.31,1.13-3.82-2.81,3.73-30.46,13.02-53.62-4.5-81.83-12.14-19.55-36.97-38.02-60.35-25.06-4.33,2.4-22.76,21.23-27.29,17.69,9.2-10.92,13.84-23,27.91-29.07,32.67-14.09,66.38,16.27,76.16,46.01,8.46,25.7-1.5,50.11-8.11,75.07Z"/>
  <path class="st0" d="M635.96,1212.02c14.95,21.47,28.03,47.26,55.16,53.86,15.95,3.88,40.25,4.73,53.87-5.88,15.47-12.04,13.15-30.37,15.01-47.99,6.05-.97,3.19,1.52,4.04,4.86,8.85,35.04-6.76,60.03-43.08,63.1-47.04,3.98-73.29-27.33-88.99-66.95l3.98-1.01Z"/>
  <path class="st0" d="M980,1679.98c-.8-5.2.93-4.13,5.05-4.06,32.46.51,50.58,15.01,81.62-6.25,18.32-12.55,34.6-36.47,23.42-58.76-2.57-5.12-21.14-22.98-18.07-26.91,32.29,17.03,44.06,46.11,19.93,76.95-29.92,38.24-70.42,31.42-111.95,19.03Z"/>
  <path class="st0" d="M1554,1759.98c20.45-21.67,46.79-28.57,55.01-59.97,5.63-21.49,4.67-52.52-19-63.02-11.43-5.08-25.19-1.38-36-8,16.11-3.2,34.36-7.22,49.01,2.99,25.68,17.9,23.89,62.91,9.4,87.43-9.62,16.28-39.97,35.83-58.42,40.56Z"/>
  <path class="st0" d="M808,1580.02c1.51,7.02-5.57,2.28-9.99,4.99-1.55.95-2.4,4.29-4.15,5.84-9.29,8.26-11.72-5.89-16.83-4.84-1.61.33-4.09,3.5-2.06,6.03,2.43,3.02,8.61-.34,7.03,5.95l-17.98-2.96c6.95,16.04,30.7,2.13,38.99-6.99,4.99-.11,2.44,23.56,2.98,27.96l-8.98-15.96-26.04,13.94-3.96-3.97c-3.14,2.67-1.61,7.44-6.98,5.99-9.2-21.32-.53-28.92,15.93-41-7.79-5.16-15.63-13.02-15.95-22.99l25.39,19.59,22.6,8.42Z"/>
  <path class="st0" d="M2183.99,1004.01l-5.11,16.08c10.8,1.95,18.37,11.05,29.12,9.93l-1.99,5.97,8.03,1.03c-3.51,10.49-10.86,19.33-22.71,18.85-5.4-.22-16.78-6.82-16.55.26.23,7.23,4.48,21.81-6.77,23.86,2.62-20.06-3.75-35.73-10-53.98,3.58-1.05,4.75,2.91,7.44,3.54,4.6,1.08,15-1.05,16.08,5.67.54,3.34-4.04,7.57,1.5,10.77l4.74-4.7-3.77-7.27c9.12-.82,10.94,6.25,10.01,13.97,15.08-2.97-5.54-19.86-13.46-21.54-5.84-1.24-12.58,1.62-16.51-3.45l19.95-18.99Z"/>
  <path class="st0" d="M1973.99,495.99c-2.15,2.44-16.35-13.63-19.32-15.66-8.01-5.49-18.67-7.7-26.65-13.36-.8-5.65,6.04-1.45,9.99-3.96,3.25-2.06,2.9-10.6,12.04-6.06,3.29,1.63,6.96,16.66,9.94-.92l-7.99-2.05c5.71-10.87,12.46,1.94,16.98,2.04,3.54-13.2-15.47-9.14-23.46-5.5-5.86,2.67-9.39,8.36-15.5,9.47l-2-25.98c4.23-5.33,7.86,14,9.02,14.02l27.97-13.74,4.96,3.71c2.94-11.86,7.01-1.42,7.84,5.18,2.3,18.27-5.79,19.33-17.79,29.85-.68,3.1,18.23,14.77,13.98,22.96Z"/>
  <path class="st0" d="M1928.44,1595.57c1.13,1.94,8.49,1.74,7.7,9.4-.57,5.61-9.08,5.49-8.14,10,.41,1.95,3.42,3.77,6.03,2.08,1.96-1.26,3.17-9.55,6.96-5.06,5.3,8.78-11.29,13.36-.04,16,10.44-13.7-.63-27.65-8.96-38.96,1.11-5.33,21.48-2.29,25.99-3.01-2.23,5.37-8.92,6.14-14.01,5.99-.76,5.4,3.69,8.57,5.61,13.39,1.51,3.78,1.68,10.07,3.48,12.61,1.42,2.01,7.73,1.69,4.75,5.88-.5.7-5.78-1.38-3.83,4.11l6,3.99c-11.99,1.75-19.26,8.62-30.09-.89l-12.89-15.1c-4.3,7.45-11.59,15.43-21.01,16-1.49-1.36,16.35-21.21,18.38-24.6,4.14-6.92,7.79-15.5,9.64-23.38,5.79,1.32,2.62,8.46,4.42,11.56Z"/>
  <path class="st0" d="M1396.02,218c7.13-3.41,24.39-3.91,25.97,5.99-20.09-2.95-35.52,4.71-53.99,9.99,8.3-7.4,2.66-14.29,7-22.07l12.99.08c.8-9.53-5.13-9.43-11-4-2.8-7.08,5.04-10.43,11.62-10.02l1.38-5.96c-16.65.49-21.96,20.14-22,34-2.34,2.33-13.81-8.5-16.04-10.93-2.02-2.2-4.69-3.51-3.93-7.07l15.97,6,8.03-30,5.97,1.99,1.03-8.02c21.47,5.88,20.93,21.19,17.01,40.02Z"/>
  <path class="st0" d="M565.99,970.01c-1.86,19.14,4.78,36.76,12,53.98-4.69.97-5.74-4.68-9.41-5.63-3.04-.78-10.14,2.09-14.43-.51-2.31-2.66,4.08-12.01-1.17-13.84-11.15-3.88,1.26,12.07-5.95,11.96-4.46-3.89-8.31-8.12-5.02-13.97h-6c-.18,16.5,19.72,23.04,33.98,22l-1.96,5.02-16.02,14.96,5.98-15.98-29.85-8.26-.15-5.76c-14.02,7.61-4.98-8.97-.91-13.91,10.13-12.28,31.69-2.79,32.91-4.09.33-6.8-.78-13.76.56-20.52.73-3.67.91-6.61,5.44-5.46Z"/>
  <path class="st0" d="M817.97,434c2.45-7.78,12.82-18.6,22.02-15.01-11.11,9.45-19.03,21.55-25.47,34.53-2.14,4.31-.74,11.87-6.51,10.49,1.99-9.68-7.39-11.39-10.13-19.04,0-5.39,9.72-4.71,8.11-11.95-.51-2.27-2.67-3.41-5.06-1.1-3.69,3.57-.89,9.28-6.92,8.07-3.12-4.33,9.56-24.82-1.83-17.83-4.96,3.05-.95,21.32,2.11,26.54,2.84,4.86,9.49,7.23,9.69,13.29l-25.98,2c-.12-7.92,9.73-6.12,13.97-8.97-7.09-6.01-6.34-17.21-9.94-23.7-1.4-2.52-8.39.59-.05-9.3l-7.99-4c23.5-9.99,30.67-2.04,43.97,15.97Z"/>
  <path class="st0" d="M1365.99,1814.01l-4.86,22.11c-3.62,5.27-13.17-2.58-15.11,2.91-3.48,9.83,11.01,1.97,11.97,2.99.02,9.14-6.54,9.93-13.98,7.99v5.99c17.81,1.08,23.76-19.29,22-33.98l21.99,17.97-15.98-5.98-10.36,29.77-5.68.24c7.15,13.89-6.57,5.98-12.05,1.05-11.11-10-7.61-20.24-3.94-33.05-9.2-1.35-23.08,4.28-28-6,18.95,1.54,37-4.34,53.99-12.01Z"/>
  <path class="st0" d="M2020.02,1048c-5.02-4.89,21.13-17.4,25.16-17.92,15.93-2.07,53.88,10.44,62.52,25.23,3.77,6.46,7.93,28.35,6.02,35.42-.66,2.44-2.69,4.27-4.74,1.29-3.42-4.97-6.56-16.84-10.59-23.41-17.51-28.57-48.58-31.27-78.37-20.61Z"/>
  <path class="st0" d="M1941.99,547.99c-9.29-2.36-18.07-7.53-27.5-9.48-34.04-7.06-52.52,14.26-70.47,39.49-6.89-33.21,47.27-63.85,73.97-52.99,4.2,1.71,28.83,17.9,24,22.98Z"/>
  <path class="st0" d="M1844.01,1599.99c4.92-17.97,15.33-35.3,9.42-54.44-6.84-22.15-18.68-27.87-35.64-40.39-2.25-1.66-4.97.03-3.78-5.15,21.78.05,32.15,8.59,42.82,26.16,14.27,23.5,19.32,41.25.2,63.85-1.41,1.67-11.05,12.18-13.01,9.97Z"/>
  <path class="st0" d="M1435.99,278.01c.77,3.95-1.83,4.77-4.59,6.39-14.76,8.68-28.63,9.54-38.51,27.49-11.61,21.11-7.65,33.75-3.31,55.54.6,3.01,1.73,5.31-2.55,4.55-16.23-15.48-15.12-36.79-8.92-56.88,9.03-29.29,28.16-38.41,57.88-37.1Z"/>
  <path class="st0" d="M1351.37,1680.65c16.31,14.5,8.92,48.78.28,65.99-11.66,23.24-29.31,24.79-53.64,23.34-1.12-5.78,1.68-3.19,4.39-4.51,41.12-19.99,57.7-38.93,41.6-87.46,2.77-.37,5.38.86,7.37,2.63Z"/>
  <path class="st0" d="M892,450.02c-7.27,15.3-15.21,34.94-11.14,52.12.82,3.45,10.75,22.18,13.1,24.89,6.86,7.89,20.75,13.33,28.03,20.95-34.07,6.84-63.83-45.06-54.47-73.44,1.58-4.78,18.95-28.75,24.47-24.52Z"/>
  <path class="st0" d="M891.99,1470.01c4.41,32.61-42.24,61.38-70.54,55.53-5.7-1.18-27.41-15.62-29.43-20.57-1.54-3.76,2.37-3.32,4.87-2.88,8.81,1.57,19.16,8.55,30.32,9.68,15.94,1.63,26.77-3.56,39.79-11.78l24.99-29.99Z"/>
  <path class="st0" d="M1101.86,1113.88l-5.98-.77-1.56-2.42c-2.95-5.2,5.61-30.26-1.31-30.64-7.3,5.64-14.25,8.87-23.79,7.83-4.4-.48-24.85-7.92-19.21-13.86,22.31,5.19,46.67,2.98,56.99-20.01l7.97-25.98c4.66,5.2,3.78,18.18,2.85,24.8-1.49,10.59-9.74,16.74-11.37,24.63-2.45,11.89,2.59,24.91-4.59,36.43Z"/>
  <path class="st0" d="M625.97,956c6.58,26.11,26,50.82,55,51.61,11.46.31,23.47-5.46,35.02-4.62-11.55,13.63-23.02,16.33-40.44,14.45-34.34-3.7-58.33-21.07-53.55-58.48.35-2.77,1.11-5.86,3.97-2.96Z"/>
  <path class="st0" d="M1217.63,1258.43c-1.68-.98-3.8-.26-5.61-.44.48,9.55-5.62,18.65-13.34,23.68-3.78,2.47-17.8,9.75-20.65,3.3-1.61-3.63,14.35-8.01,15.95-12,10.08-11.73,15.09-25.39,11.08-41.03-1.46-5.68-17.39-25.41-15.05-27.93,9.58,3.66,19.14,12.34,23.45,21.53,3.57,7.61,4.07,18.74,8.82,25.18,5.75,7.81,20.69,12.51,19.64,26.1l-4.88,3.17c-3.89-.85-17.62-20.51-19.41-21.56Z"/>
  <path class="st0" d="M1278,752h34c-9.84-14.94-11.73-33.64,3-45.96,4.72,2.97,1.74,4.44,1.6,7.53-.93,20.94-.98,41.27,22,50.83,9.66,4.02,19.03,1.6,27.35,6.61-11.15,8.15-26.17,4.78-37.97.01-5.15-2.08-9.74-7.37-15.44-8.55-10.55-2.19-33.51,6.75-34.55-10.46Z"/>
  <path class="st0" d="M1109.97,836c12.34,27.51,37.93,35.01,63.9,18.87,4.74-2.95,8.72-13.28,14.08-5.88-4.75,7.18-12.14,15.92-19.67,20.3-8.34,4.85-17.48,4.61-24.98,9.02-10.43,6.13-14.13,23.95-31.29,19.69-2.36-8.38,25.81-22.7,21.98-27.97-8.19-1.31-15.21-3.82-20.86-10.15-4.13-4.63-15.4-23.28-3.16-23.87Z"/>
  <path class="st0" d="M1621.99,1150.01c1.41,12.97-15.7,16.97-21.95,26.99,7.5,5.38,16.56,5.31,22.88,13.08,3.94,4.83,11.01,18.94,4.08,23.88-11.96-24.06-39.02-37.33-63.68-21.64-5.4,3.43-7.98,10.72-15.31,9.67-3.43-3.43,13.05-18.76,16.12-20.86,9.25-6.32,17.18-5.04,25.34-8.66,11.06-4.9,15.4-24.61,32.52-22.46Z"/>
  <path class="st0" d="M1640,968c14.6-7.2,36.36-11.23,45.95,5.01l-26.78-.83c-16.7,3.86-28.52,11.66-33.27,28.71-2.22,7.96.59,20.82-7.89,21.09-1.83-13-3.06-20.69,1.62-33.36,2.52-6.83,8.64-12.95,9.9-20.09,2.07-11.72-5.79-24.54,6.47-33.56l4,2.02v31Z"/>
  <path class="st0" d="M1424.01,1296.01c-1.38,6.25,4.88,9.79,5.9,15.07,1.88,9.79-.02,28.58-11.9,30.91,4.04-19.7,3.56-40.19-14.14-52.86-10.45-7.48-17.1-6-28.08-8.46-2.04-.46-7.65.22-5.77-3.64,2.22-4.55,19.94-3.53,24.81-2.86,10.68,1.49,17.55,9.81,24.59,11.41,6.95,1.57,36.35-2.03,38.58,7.44,2.51,10.71-31.9.99-33.98,2.99Z"/>
  <path class="st0" d="M1555.99,762.01l-21.64,23.34c-7.62,12.99-8.39,22.1-2.73,36.02,3.34,8.2,12.59,15.55,14.36,19.65,3.51,8.15-12.1-2.27-14.02-3.99-14.85-13.31-11.18-26.81-19.24-38.55-5.73-8.34-22.44-13.25-18.71-28.48,8.77-3.11,24.08,24.82,27.97,21.98,1.74-17.9,15.67-31.08,34.01-29.98Z"/>
  <path class="st0" d="M785.38,582.61c4.79,5.87,6.14,16.1,9.1,22.93l25.52,4.48c-.85,3.43-8.84,4.45-11.87,5.1-9.45,2.02-8.87-1.69-15.94,5.54-6.55,6.7-5.77-11.82-6.68-15.16-4.87-17.95-32.87-50.76-52.53-51.64-11.24-.5-18.14,6.9-26,10.11-7.8,3.19,2.93-13.46,7.56-16.45,13.98-8.99,27.19-3.46,39.29,5.64,5.48,4.12,27.56,24.56,31.55,29.44Z"/>
  <path class="st0" d="M2029.99,1486.01c-4.03,16.9-18.65,23.94-35.09,18.09-8.3-2.96-39.62-30.76-45.75-38.24-8-9.78-2.73-22.31-18.62-25.38-5.15-1-16.17,2.22-14.53-4.46,2.79-2.64,20.22-1.65,22.84-2.39,3.59-1.01,1.49-6.86,6.13-5.61,3.44,1.57,4.11,16.49,6.09,21.92,4.49,12.31,30.21,39.83,42.88,43.11,13.84,3.57,23.92-1.85,36.05-7.04Z"/>
  <path class="st0" d="M688,1120.02c-2.64,10.85-14.46,17.31-14.01,27.99-6.78,1.06-9.07-5.33-14.6-8.4-27.13-15.04-82.06-13.44-85.41,26.38-14.67-14.42-.82-33.87,16.38-38.64,15.73-4.36,24.24-1.37,38.63-1.19,4.75.06,9.15-2.39,13.94-2.27,8.71.23,17.52,8.51,23.93,8.09,5.97-.39,19.14-13.86,21.14-11.98Z"/>
  <path class="st0" d="M1274,343.98c-13.6,1.7-18.25-17.4-29.99-11.99,1.28-9.76,10.24-15.18,13.42-25.56,4.54-14.84,5.05-47.58-4.35-60.51-6.45-8.88-14.95-10.29-24.11-13.91-2.35-.93-3.77,1.52-2.96-3.98,29.01-9.99,41.43,13.48,42.02,39.05.21,9.25.46,25.14.06,33.84-.44,9.51-8.8,16.53-8.11,23.88.76,8.19,10.34,12.55,14.02,19.18Z"/>
  <path class="st0" d="M1492,1718.02c-4,8.22-13.75,18.45-15.55,27.43-1.17,5.84-2.78,25.39-2.58,31.56.75,22.76,13.06,38.53,36.13,41.01-13.21,13.04-32.61,3.62-38.58-12.44-4.54-12.21-5.1-47.21-3.47-60.63,1.66-13.58,12.95-14.16,2.91-28.82-.79-1.15-15.13-14.94-5.9-12.1s15.56,16.97,27.04,13.99Z"/>
  <path class="st0" d="M958.23,1597.66c.84,1.43,7.41,1.26,5.75,6.32-22.01.68-41.19,13.44-54.81,30.19-15.71,19.31-13.3,32.37-3.2,53.82-23.67-10.13-24.53-26.29-11.6-46.62,4.64-7.3,25.82-29.83,32.6-35.4,6.37-5.24,18-5.84,21.06-8.94,4.35-4.4,4-18.95,3.99-25.03,8.62,2.52,5.52,24.48,6.21,25.66Z"/>
  <path class="st0" d="M2048.02,930c-1.07-12.92,16.72-18.02,12-30,10.25,3.72,16.39,12.72,27.86,15.12,7.74,1.62,27.12,3.42,34.91,2.67,5.81-.56,19.67-4.23,24.26-7.73,9.48-7.23,9.5-20.01,16.93-28.05,4.58,16.72,3.18,31.48-14.54,38.43-12.03,4.72-47.05,5.1-60.44,3.57-8.45-.97-15.77-7.86-19.99-7.88-5.83-.02-20.22,14.89-20.99,13.88Z"/>
  <path class="st0" d="M1497.99,1880.01l-17.81,11.17c-3.12,2.26-5.67,4.98-7.84,8.16-4.47,6.54-29.32,62.77-31.42,70.58-2.51,9.36.66,25.19-12.91,28.07l1.03-12c-.92-5.28-16.29,6.65-13.02-.96,1.36-3.17,15.73-16.13,20.32-23.69,17.86-29.44,18.25-83.59,61.65-81.33Z"/>
  <path class="st0" d="M1781.98,475.99c-3.09-.71-5-8.82-5.51-11.45-1.58-8.11,2.91-13.89-6.43-17.54,8.52-4.69,17.94-3.16,27.76-8.2,6.14-3.15,23.54-18.34,28.15-23.85,14.67-17.55,15.53-33.09,2.06-51.96,8.15-2.92,17.19,7.67,19.48,14.56,7.56,22.8-14.78,38.96-28.55,52.38-10.82,10.55-13.64,19.14-31.96,22.04l-4.99,24.02Z"/>
  <path class="st0" d="M1736,1474.02c7.21.85,13.49-2.2,20.67-1.87,12.81.6,23.78,9.51,34.8,11.38,27.36,4.63,47.14-8.68,70.51-19.53-3.93,11.11-14.05,19.79-24.6,24.38-3.32,1.44-24.57,9.35-26.55,9.61-8.67,1.14-41.93-13.7-52.84-17.05-7.18-2.2-17.57-.72-21.99-6.93Z"/>
  <path class="st0" d="M673.66,509.59c-1.7.99-3.83.25-5.66.39,17.39-26.13-5.4-62.24-16.96-88.02-1.69-3.76-1.56-8.66-3.48-12.52-4.23-8.56-16.48-16.67-13.55-29.43l13.97,10c-.49-5.16.72-10.04,6-12-1.6,17.46,1.33,31.74,7.04,47.98,6.37,18.12,27.75,49.31,22.06,68.12-.34,1.13-8.64,15.04-9.42,15.5Z"/>
  <path class="st0" d="M511.99,1153.99c-5.77,1.11-3.2-1.65-4.51-4.38-4.32-8.98-8.14-15.53-16.81-21.27-8.52-5.64-56.18-26.29-66.57-29.43-10.21-3.09-23.78.06-30.09-12.89l13.99-.03c-7.62-25.1.75-9.39,8.92-1.9s22.9,14.44,33.12,18.88c26.01,11.3,63.6,13.84,61.96,51.02Z"/>
  <path class="st0" d="M853.99,1723.99c-9-4.33-17.52-8.24-28.01-7.19-22.97,9.48-52.46,17.32-74.45,27.73-7.83,3.7-18.12,20.32-29.52,10.46l10.01-9.97c.03-2.41-12.65-.45-10.01-7.01,12.34.93,22.14-.21,33.97-3.03,21.95-5.22,58.15-30.47,78.52-26.58,3.35.64,23.16,11.99,19.48,15.59Z"/>
  <path class="st0" d="M2065.99,1538.01c-15.56,29.63,7.03,63.77,18.92,92.07,1.61,3.84,1.59,9.53,3.11,12.39,1.23,2.32,4.91,2.86,6.91,5.56,4.9,6.63,5.82,13.87,5.05,21.97l-9-10-10.97,9.99c4.52-18.47-2.36-36.73-9.08-53.92-8.74-22.33-28.39-44.6-14.59-68.72,1.47-2.57,5.75-10.28,9.65-9.34Z"/>
  <path class="st0" d="M917.99,1394c-1,7.1,2.36,13.66,1.89,20.71-.77,11.65-9.68,23.86-11.4,34.77-4.3,27.29,7.86,45.51,19.52,68.5-21.36-5.55-24.47-26.89-30.17-44.44-.58-1.79-3.9-1.03-4.05-4.47-.62-14.18,13.86-41.28,18.09-56.2,1.71-6.04,1.35-10.32,2.17-15.87.51-3.5-1.03-3.35,3.95-3.01Z"/>
  <path class="st0" d="M2011.99,292.01l-9.98,11,11.02,4.98-2.07,4.02c-31.18-7.43-59.19,16.01-86.94,25.01-12.05,3.91-19,6.56-30.66.61-5.53-2.82-17.53-15.3-7.41-10.59,10.66,4.97,16.14,6.29,28.15,4.04,10.72-2.01,58.1-21.15,69.34-26.65,8.75-4.28,14.81-16.22,28.55-12.43Z"/>
  <path class="st0" d="M1711.97,934c4.3,14.95,10.74,21.54,4.42,37.4-2.16,5.41-7.69,10.24-8.38,15.78-.95,7.65,3.21,15.19,1.5,25.35-1.66,9.89-11.57,27.84-21.49,31.47-2.69-12.11,7.64-20.6,9.5-31.48,3.32-19.42-4.52-30.9-9.51-48.51,2.72-2.85,13.19,10,12.01,13.98,13.74-11.48,8.87-26.28,7.96-41.02-.24-3.97.42-3.13,3.99-2.97Z"/>
  <path class="st0" d="M787.99,966.01c-7.56,21.26-27.84,23.75-43.86,33.12-23.5,13.75-27.07,39.9-37.13,62.83-11.01-21.2,5.6-40.18,12.9-59.06l68.09-36.89Z"/>
  <path class="st0" d="M2339.99,963.99l-10.96-1.99-2.17,4.07c8.27,21.5-4.11,2.75-9.9-2.03-20.77-17.13-78.8-29.92-88.69-45.31-1.79-2.78-6.36-19.43-6.2-21.77.8-11.56,8.32,9.84,9,10.96,10.46,17.13,49.38,28.07,68.32,35.68,4.5,1.81,8.95,6.42,12.51,7.49,9.47,2.83,25.38-1.59,28.09,12.89Z"/>
  <path class="st0" d="M1385.99,703.99c-11.19,1.61-21.19-7.76-31.46-9.52-20.12-3.44-30.32,4.96-48.52,9.52-2.35-7.53,17.81-10.15,11.96-14.96-12.78-10.49-27.2-6.08-41.96-6.02,4.75-4.5,20.23-10.89,26.47-10.55,10.31.57,19.21,9.71,27.03,11.18,6.25,1.18,13.74-2.29,21.48-1.68,11.42.91,31.4,9.99,35,22.02Z"/>
  <path class="st0" d="M1305.99,52.01l.02,13.98,13.98-3c-30.11,21.12-31.55,59.32-48.39,87.61-9.34,15.68-17.01,18.65-35.59,17.38,1.15-4.16,8.22-3.15,11.8-5.17,19.92-11.26,31.69-50.67,39.81-72.18,1.4-3.72,5.13-7.17,5.9-10.1,2.35-8.9-.77-25.09,12.47-28.51Z"/>
  <path class="st0" d="M1348.71,1657.29c13.99,15.39,38.23,20.34,57.29,26.73-3.8,6.32-20.02,4.61-26.52,3.5-10.17-1.73-34.28-15.6-39.87-24.13l-29.59-59.39c23.87,9.58,24.6,37.79,38.69,53.29Z"/>
  <path class="st0" d="M1609.99,809.99c-11.85-2.35-12.22-18.48-17.57-27.41-9.93-16.56-25.7-17.88-40.4-27.61-3.69-7.59,17.25,1.83,17.97,1.02.08-17.65-14.85-26.9-25.99-37.97,8.05,1.76,21.59,6.14,26.87,12.11,7.16,8.09,6.19,21.95,11.3,28.7,3.11,4.1,8.75,3.64,12.88,7.12,9.34,7.87,15.12,32.01,14.93,44.05Z"/>
  <path class="st0" d="M1184,1295.98c-3.67,2.38-21.25-5.78-19.79.78,3.11,14,14.63,24.24,25.75,32.24-3.42,4.81-3.44,1.63-6.55.61-5.36-1.75-15.74-6.46-19.43-10.59-7.41-8.31-6.64-22.95-11.87-29.6-2.66-3.38-10.08-3.98-14.16-8.37-8.69-9.38-13.37-30.51-11.93-43.05,15.42,12.18,12.79,32.03,31.3,43.68,8.58,5.39,20.52,5.34,26.68,14.3Z"/>
  <path class="st0" d="M998,572.02c-3.75,6.14-20.33,4.71-26.82,3.81-9.55-1.33-19.51-8.55-29.46-10.54-28.11-5.62-44.81,11.55-69.71,18.69,5.56-8.56,10.52-14.36,19.4-19.58,5.81-3.42,27.71-12.03,33.58-12.57,19.12-1.76,51.68,21.4,73.02,20.19Z"/>
  <path class="st0" d="M1582.01,1265.99c-5.6-4.86,21.99-13.81,24.07-14.91,3.92-2.07,10.09-5.82,13.02-8.98,6.14-6.64,13.51-30.32,17.93-32.08,9.04-3.61-5.49,19.54,1.82,17.85,16.89-3.91,23.49-15.09,35.13-25.87-1.63,9.73-7.53,23.74-16.06,28.92-7.08,4.3-17.65,4.13-23.82,8.18-4.25,2.79-5.48,8.91-9.03,12.97-9.59,10.97-29.06,15.15-43.06,13.92Z"/>
  <path class="st0" d="M1819.98,656c-6.16-3.79-4.69-20.27-3.81-26.83,1.44-10.76,9.67-22.19,11.35-32.65,4.24-26.45-12.5-43.3-19.51-66.51,2.23-2.45,18.02,14.72,19.67,17.31,5.77,9.06,13.3,34.73,11.41,44.78-3.83,20.34-19.59,41.56-19.1,63.89Z"/>
  <path class="st0" d="M1048,1006.02c-.96,13.94-11.53,24.85-12.13,38.95-.66,15.54,9.51,26.17,10.11,41.03l-9.91-12.81c-4.47-6.36-11.38,16.75-11.59,20.31-.41,7,4.08,15.36.53,22.49-5.81-10.39-11.22-21.99-8.06-34.06,1.59-6.09,9.94-15.86,10.68-21.39.8-5.94-4.63-11.49-3.21-21.04.9-6.05,15.57-39.4,23.57-33.49Z"/>
  <path class="st0" d="M1096.02,840c-2.5-4.22,5.7-18.82-.96-17.97-17,2.16-21.46,14.44-33.04,23.97,1.79-10.96,6.42-22.9,16.57-28.41,6.17-3.34,16.95-4.14,22.19-7.81,3.81-2.67,4.84-8.08,8.15-11.85,6.78-7.69,22.52-14.04,32.59-15.42,5.21-.71,16.22-1.55,9.55,5.56s-25.39,8.61-35.15,18.85c-9.58,10.05-8.86,25.29-19.89,33.09Z"/>
  <path class="st0" d="M1427.99,1346.01c2.02,5.57-15.96,11.42-13.99,13.96,15.35,8.4,27.15,7.21,43.99,6.04-10.42,8.89-21.86,12.3-35.12,8.1-6.73-2.13-13.31-9.19-20.4-9.76-5.08-.41-8.34,3.53-13.5,3.79-11.9.6-34.88-11.26-40.98-22.13,15.57-3.5,25.76,10.12,43,10.14,13.96.01,23.51-9.66,36.99-10.15Z"/>
  <path class="st0" d="M1359,362c3.43.7,30.46,15.75,33,19.02,9.21,11.87,14.63,30.92,21.65,44.34,3.33,6.38,9.22,11.7,11.34,18.66-27.73-11.47-24.49-42.68-47.99-60.01-14.34-10.58-29.98-11.06-44.47-17.52-2.77-1.24-3.11-.25-2.53-4.48,8.61,1.19,21.01-1.63,29,0Z"/>
  <path class="st0" d="M1355.38,24.62c1.78,1.32,2.52,6.41,5.56,6.78,2.4.29,11.65-4.66,16.23-5.23,10.14-1.26,23.94,1.92,32.92,6.82,2.77,1.51,4.94-.19,3.89,5.01-26.02-9.9-57.31.6-79.01,15.98l-.97-7.96c-6.95-4.46-21.37,14.54-24,11.96,1.75-7.11,5.14-15.5,12.51-18.47,9.52-3.84,19.97,1.91,27.48-4.54-5.07-11.13-19.85-8.96-29.98-8.98,1.85-12.67,28.23-6.66,35.37-1.37Z"/>
  <path class="st0" d="M2030,1015c-1.55,9.25-13.58,24.2-16.96,32.99l-65.06,32.99c11.59-26.37,44.24-23.99,60.01-45.99,10.31-14.39,11.55-35.72,22.01-48.99-1.03,8.93,1.42,20.5,0,29Z"/>
  <path class="st0" d="M2369.98,976c5.47,13.49,4.68,34.11-10.09,41.17,7.74,16.16,8.4,33.2-.92,48.87-1.52,2.56.39,5.07-4.96,3.94,7.9-17.92,3.4-36.43-3.02-53.96-1.93-5.27-12.92-23.62-12.93-25.03-.04-4.53,7.7-.67,7.94-.99.82-9.51-8.48-14.36-11.99-21.98,9.28.11,17.7,6.22,19.54,15.44.87,4.4-1.11,24.61,3.46,24.5,13.3-7.64,4.54-23.53,12.98-31.96Z"/>
  <path class="st0" d="M702,292.02c-24.2,16.28-39.12,41.46-44.01,69.97-4.64,2.31-6.13-8.16-7.96-5.98-.32.39-3.32,8.3-3.56,9.45-.59,2.82,1.18,16.93-3.43,14.52-6.56-7.47-6.31-16.93-1.04-24.99,4.06-6.21,14.97-10.2,14-18.98-4.87-.7-8.39.39-12.79,2.19-4.09,1.67-20.15,19.07-16.84,7.17,1.68-6.05,15.73-17.06,21.63-18.54,4.95-1.24,9.96,1.57,12.02.33,2.28-1.38,4.68-9.83,7.11-13.03,8.07-10.63,21.7-19.58,34.87-22.11Z"/>
  <path class="st0" d="M700,1740.04c4.29,8.34,13.94,5.13,21.04,5.95,2.84.33,5.68,1.11,2.95,3.98-10.66,4.62-17.9,6.36-27.88-1.08-5.66-4.22-7.17-12.06-15.08-12.89-4.96,3.09-1.74,7.83,0,11.98,2.67,6.43,7.97,12.27,12.96,17.04-7.8,4.51-20.48-11.45-22.45-17.55-1.59-4.94-1.24-16.5-1.84-17.19-.52-.6-10.99-4.26-14.33-6.65-9.62-6.86-19.01-21.66-19.35-33.62l13.2,17.77c15.62,13.46,34.79,22.31,54.81,27.19l-4.03,5.07Z"/>
  <path class="st0" d="M395.99,1059.99l-7.95.96,11.94,21.05c-7.14-2.86-12.35-3.36-16.38-10.59-6.44-11.55.16-18.3-3.62-29.4-12.07,2.57-12.46,19.92-11.99,29.98-3.99.55-3.29.39-4.51-2.47-3.37-7.89-1.76-24.6,3.54-31.53,2.03-2.65,6.89-3.79,7.13-5.28.51-3.2-3.46-11.34-3.93-15.91-1.36-13.18-.11-28.41,8.79-38.78,1.83,6.5-2.7,14.86-2.79,21.21-.26,20.13,12.47,42.55,19.77,60.77Z"/>
  <path class="st0" d="M1384,2012.01c3.04,12.85,21.33,12.33,32,12.01-3.79,9.66-24.36,6.49-32.02,3-5.55-2.53-6.86-8.1-9.28-8.84-3.42-1.04-9.52,3.21-13.86,3.65-15.06,1.53-24.97-1.29-38.84-5.86.12-3.46-1.34-4.19,2.51-3.53,5.44.94,13.3,3.13,18.49,3.12,14.03-.02,33.29-7.69,46.37-13.2,3.99-1.68,8.04-5.7,11.6-6.41,7.14-1.42-3.13,10.09,3.98,8,6.49-1.9,13.35-9.19,18.05-13.96,4.17,10.59-9.37,20.68-18.54,21.64-6.33.66-13.17-3.03-20.46.36Z"/>
  <path class="st0" d="M2096,344c1.08,4.81,1.71,8.38,4.03,12.97l-4,1.02c-7.41-18.57-25.22-28.74-42.69-36.33-5.75-2.5-18.39-4.96-21.33-6.67-5.29-3.07-1.25-6.52,3.98-5-4.93-7.94-15.98-7.11-23.99-8.97,19.9-17.4,28.44,7.36,43.98,12.98,1.03-8-3.01-15.4-7.11-21.87-.6-.94-12.5-12.62-3.92-10.09,10.33,3.05,25.27,24.51,19.14,35.81,14.39,3.65,23.74,14.74,31.9,26.16-.6-2.67-2.66-8-1.01-9.99,11.08,10.63,18.98,24.43,15,40-2.92,3.73-3.49-.52-3.92-3.04-2.36-13.59-1.98-15.67-10.06-26.97Z"/>
  <path class="st0" d="M2050,1752c-5.06,1.18-11.13,4.88-15.99,3.01,25.62-14.19,37.5-41.54,44.01-69,4.44,1.19,2.18,7.74,7.95,5.99l5.02-23.99c14.9,18.42-2.94,29.21-12.94,43,9.55,9.84,23.57-10.67,28.98-13,6.91-2.97-1.33,11.15-2.99,13.02-12.16,13.66-23.25,7.86-30.07,11.93-2.17,1.3-5.24,10.51-7.97,14.03-3.43,4.42-11.45,11.49-15.99,15.01,1.54-.36,9.58-3.55,7.99.98-10.28,8.35-26.77,21.03-39.98,12.01,14.22-4.03,20.26-3.91,31.99-12.99Z"/>
  <path class="st0" d="M1502.36,599.66l-.36-7.65c21.1,5.6,36.87-9.89,39.98-30.01-3.65,1.63-20.57,9.13-19.97.03,11.12-1.2,19.67-7.1,27.97-14.03,4.96,29.1-14.64,67.09-47.62,51.66Z"/>
  <path class="st0" d="M1165.97,576.01c-4.76-1.1-3.22.84-4.43,2.6-2.77,4.03-4.7,11.61-11.53,11.38,4.37-9.87,6.67-13.95,8.07-24.94.37-2.88-1.84-5.88,2.9-5.03,18.15,14.59,32.34,41.74,13.9,61.85-4.67,5.09-14.08,10.81-16.86,1.17,17.24-12.85,17.24-28.91,7.96-47.03Z"/>
  <path class="st0" d="M1571.98,1474c.19-3.51,1.89-6.33,4.01-9.01,1.24-1.57,6.49-8.72,9.03-4.99l-10.01,29.99c-14.9-13.51-26.59-26.72-22.54-48.53,2.01-10.8,14.27-26.28,25.49-16.46-16.72,12.22-21.64,33.68-5.98,49Z"/>
  <path class="st0" d="M969.99,1233.99c-8.38.75-8.15-7.27-15.88-11.1-11.61-5.76-27.19-3.59-36.1,6.12,6.79,2.4,13.66,5.41,15.99,12.97-6.46.8-10.42-5.55-15.93-7.05-3.45-.93-18.31.53-16.05-3.91,12.38-9.64,23.63-23.17,41.01-23.05,12.77.09,30.84,11.41,26.96,26.01Z"/>
  <path class="st0" d="M1830,1197.98c-2.52-5.83-7.92-16.02-.02-19.98.34,5.59,2.33,11.19,4.92,16.1,1.79,3.39,12.63,13.01,6.07,13.9-1.33.18-23.78-2.64-26.61-3.36-18.42-4.71-36.93-36.88-20.42-45.7,8.95-4.78,4.12,11.47,4.82,15.12,2.32,12.22,18.57,25.11,31.24,23.92Z"/>
  <path class="st0" d="M1231.48,1448.5c1.85,1.77,3.68,6.73.53,8.53-19.38-5.94-36.89,10.03-38,28.96,1.07,1.21,21.02-9.13,19.99,2-12.01-1.87-19.96,7.9-30,12,3.12-18.34.37-37,18.13-48.85,6.89-4.6,23.01-8.68,29.34-2.64Z"/>
  <path class="st0" d="M906.01,850.01l3.7,16.79-5.7,3.19c.13-4.87-1-9.6-2.99-14.01-2.66-5.89-8.29-7.9-9.01-13.97,28.06-4.48,66.41,14.63,50.07,47.07-12.25,3.36-5.38-7.33-6.1-13.88-1.44-13.08-17.81-23.67-29.96-25.19Z"/>
  <path class="st0" d="M1831.99,816.01c1.02,3.94-1.63,3.87-3.36,5.62-15.77,15.97-48.38,30.47-62.37,5.11-2.25-4.08-4.72-12.97,2.77-12.59.93.05,6.16,9.23,10.23,11.58,11.14,6.41,27.77,4.24,36.69-4.73-4.99-5.13-15.32-5.42-13.94-15,9.07,5.89,18.64,10.76,29.97,10.01Z"/>
  <path class="st0" d="M857.31,1639.31c-5.61,4.92-17.71,11.43-20.88,1.19-3.28-10.61-1.58-4.8-5.44-10.43-9.94-14.5,39.13-15.38,36.23-3.96-.28,1.1-8.63,12.08-9.91,13.2Z"/>
  <path class="st0" d="M2177.49,954.48c6.82,5.65-1.3,10.87-2.41,13.61-1.87,4.62.39,11.5-6.09,12.02-9.17.73-23.09-16.19-24.99-25.06,1.06-5.57,28.93-4.36,33.49-.57Z"/>
  <path class="st0" d="M1433.42,1802.29c1.69-.26,3.23-.75,4.69.58,4.1,7.06,5.2,34.66-7.03,33.25-4.19-.48-5.77-5.2-8.3-5.65s-5.99,2.67-8.86.7c-9.82-6.76,12.05-27.73,19.5-28.88Z"/>
  <path class="st0" d="M1976.2,1554.16c-.94.65-1.54,7.97-7.22,7.95-10.92-.04-7.96-36.71-1.95-38.11,7.53,3.76,23.91,17.28,21.99,26.2-2.18,10.15-12.18,3.52-12.82,3.96Z"/>
  <path class="st0" d="M769.75,488.29c3.23,1.94,4.62,16.46,4.27,20.71-.25,3.04-2.58,15.83-7.04,15.07-7.89-4.57-21.88-14.82-21.09-25.04.58-7.53,8.24-3.92,12.7-4.99,1.59-.38,4.33-9.84,11.16-5.74Z"/>
  <path class="st0" d="M1857.98,1598c1.42,19.29-11.2,23.44-22.03,34.95-5.22,5.55-24.54,34.8-27.06,15.07,21.12-13.91,25.69-38.39,49.09-50.02Z"/>
  <path class="st0" d="M1428.01,273.99c5.32-17.59,21.16-9.61,32.9-9.92,6.17-.16,36.81-6.22,39.08.94,3.7,11.67-18.31,4.71-22.98,4.81-8,.17-15.47,5.29-22.51,5.7-7.52.44-18.06-3.33-26.49-1.53Z"/>
  <path class="st0" d="M1321.8,218.19c8.6,10.89-22.24,33.64-25.79,29.8.96-10.14-5.18-24.2,1.86-33.1,6.37-8.05,13.84,7.19,23.93,3.3Z"/>
  <path class="st0" d="M590,1095.99c-12.36.48-22,4.27-33.73-2.24-3.38-7.14,3.3-10.44,4.56-13.68.96-2.46-1.89-5.3.97-9.18,6.89-9.33,30.34,14.92,28.2,25.1Z"/>
  <path class="st0" d="M1942.01,534.01c17.7-2.05,19.61,9.74,28.9,18.08,6.02,5.42,29.3,19.89,27.1,28.87-3.02,12.33-17.88-12.01-18.95-13.02-11.15-10.52-20.63-10.21-34.06-27.94-1.51-2-3.9-2.51-2.98-6Z"/>
  <path class="st0" d="M878.02,450c-3.97-18.05,11.39-24.16,22.03-34.95,4.47-4.53,16.02-22.87,22.91-21.05,12.38,3.27-12.65,19.66-14.98,22.98-3.49,4.97-4.39,11.28-9.18,16.82s-14.82,11.75-20.78,16.2Z"/>
  <path class="st0" d="M1903.56,418.36c8.87,14.38-33.4,15.2-35.41,6.43-1.47-6.38,21.94-28.78,28.01-19.96,2.52,3.66,1.03,8.12,2.93,11.18.88,1.42,4,1.59,4.47,2.35Z"/>
  <path class="st0" d="M2121.96,1084.02c.47.4,6.29,9.92,6.52,10.49,3.96,9.64-.85,14.42-.65,22.49.16,6.44,6.33,36.72-.85,38.98-11.71,3.69-4.51-19.21-4.91-24.94-.48-6.79-5.22-14.15-5.59-20.54-.42-7.27,3.32-17.32,1.51-25.5l3.97-.99Z"/>
  <path class="st0" d="M1308,1776.02c-9.78,16.66-26.82,9.75-43.09,9.9-9.24.09-20.38,6-29-1.18l.07-6.73c7.56-1.84,16.03,2.38,22.77,1.93,6.8-.45,13.8-5.93,22.24-6.11s17.86,3.95,26.99,2.19Z"/>
  <path class="st0" d="M615.98,964c-16.91-9.4-9.61-23.49-9.89-39.1-.2-10.72-7.1-25.07,2.94-32.89,9.32-1.93,2.77,20.77,3.04,24.75.41,6.16,5.51,13.15,6,20.28.62,8.89-3.6,17.75-2.09,26.96Z"/>
  <path class="st0" d="M749.37,1470.61c2.38,2.64,2.73,6.88,6.53,10.49,5.17,4.91,13.42,6.4,19.09,10.9,6.65,5.28,12.41,15.87,19,21.98-20.08,3.75-19.67-7.22-28.93-16.06-9.83-9.38-28.13-16.06-27.06-31.91,1.47-1.55,9.74,2.8,11.36,4.6Z"/>
  <path class="st0" d="M1507.98,1410c4.03,28.71,30.62,51.16,24.01,82.01-5.28.59-3.16-.09-4.02-2.95-7.78-25.84-22.6-47.17-23.96-74.09-.21-4.16-1.18-5.74,3.97-4.97Z"/>
  <path class="st0" d="M1193.99,1394.01c-1.39,6.01-5.99,10.7-8.37,16.61-8.1,20.12-10.93,50.84-33.61,59.37-1.91-1.94,7.57-14.82,8.96-18.02,7.81-17.97,7.95-30.22,21.1-46.9,2.87-3.64,7.08-10.71,11.92-11.06Z"/>
  <path class="st0" d="M1583.99,578.01c-3.45,9.02-9.26,17.06-12.97,26.01-5.53,13.37-6.7,28.76-18,40l-11.02,9.97,23.66-59.32c.4-4.09,15.97-19.06,18.32-16.66Z"/>
  <path class="st0" d="M1836.01,860.01c.56,5.19-.01,3.18-2.93,4.04-5.79,1.7-11.76,2.2-17.58,4.44-20.64,7.92-30.57,17.9-55.14,19.04-3.59.17-5.77,1.22-8.34-2.54,28.83-5.61,53.16-31.54,84-24.98Z"/>
  <path class="st0" d="M998,849.98l-59.78-23.2c-6.89-4.14-15.31-9.98-16.21-18.77,7.38,2.27,12.68,7.72,20.02,10.96,19.76,8.75,42.32,10.21,55.97,31.01Z"/>
  <path class="st0" d="M982,1162.02l-59.87,27.1-22.12-1.14c6.29-5.55,16.96-6.08,25.35-9.62,7.88-3.32,14.18-9.01,22.19-11.81,10.44-3.64,23.45-4.93,34.45-4.53Z"/>
  <path class="st0" d="M1814,1239.98c-1.84,1.61-21.26-9.82-25.48-11.5-7.91-3.16-16.82-4.17-24.33-7.67-3.46-1.61-29.55-19.16-26.17-22.81,23.71,16.77,61.03,13.59,75.98,41.98Z"/>
  <polygon class="st0" points="1229.98 639.99 1202.91 578.11 1204.02 556.01 1226.63 608.37 1229.98 639.99"/>
  <path class="st0" d="M1770,806.02c-11.35,15.2-31.79,11.17-48.9,16.08-5.08,1.46-30.84,14.32-33.09,11.89-.44-.47-.66-4.63,1.24-6.13,4.18-3.28,22.23-12.24,27.64-13.97,17.24-5.51,35.72-2.89,53.1-7.88Z"/>
  <path class="st0" d="M1456.01,661.99l11.61-37.37,30.36-38.61c2.25,19.39-14.35,28.18-22.35,42.62-1.38,2.49-14.08,39.51-19.62,33.36Z"/>
  <path class="st0" d="M1239.96,1461.99l-3.99-1.01c.8-17.73,12.9-24.35,20.86-37.14,7.64-12.27,9.81-28.6,21.15-37.83,1.44,33.05-24.07,50.34-38.02,75.98Z"/>
  <path class="st0" d="M1585.99,1425.99c-5.46,1.22-3.41-1.69-4.94-3.97-9.92-14.79-6.06-23.99-9.99-40.08-3.17-12.97-11.92-24.25-13.05-37.93,4.16-.93,4.55,2.19,6.43,4.55,19.24,24.1,15.77,49.17,21.55,77.43Z"/>
  <path class="st0" d="M1175.99,703.99c-3.04,3.52-13.85-16.23-14.76-18.22-9.3-20.07-7.33-42.33-11.2-63.77,13.34,10.8,10.1,26.63,12.46,40.52,1.25,7.35,16.8,37.66,13.51,41.47Z"/>
  <path class="st0" d="M1047.99,1216.01l-13.34,11.64c-20.69,13.12-45.52,9.61-68.65,14.33,10.14-13.96,24.7-10.22,38.49-12.49,16.08-2.66,27.49-13.77,43.5-13.47Z"/>
  <path class="st0" d="M1806,1155.98c-19.35.17-29.42-16.29-44.64-24.34-8.42-4.46-19.08-6.03-26.74-11.26-2.56-1.74-5.47-2.25-4.61-6.37,32.66.25,52.32,23.56,75.99,41.97Z"/>
  <path class="st0" d="M456.01,909.99c3.73-23.42-26.69-13.47-17.8.8,2.16,3.47,7.8,2.32,5.78,9.2-7.71.32-16.03-2.26-19.64-9.44-1.58-16.51,15.41-32.43,30.68-20.58,6.34,4.92,12.19,18.59.98,20.02Z"/>
  <path class="st0" d="M930,894.02c17.16-1.16,25.03,11.8,37.39,19.59,5.38,3.39,38.4,16.66,38.57,19.39.3,4.71-13.82.54-15.98.02-24.83-6.08-40.46-24.03-59.98-38.99Z"/>
  <path class="st0" d="M806.02,302c2.24-7.94,6.68-13.26,1.68-21.7-7.19-.81-14.27-2.23-16.91,5.71-1.3,3.91,3.32,9.53-3.77,9.99-13.79-12.56-5.7-27.99,11.97-28.03,19.8-.05,26.76,27.49,7.03,34.03Z"/>
  <path class="st0" d="M2119.36,469.37c-7.03,7.7-26.14,6.71-29.33-4.41-2.14-7.48,9.43,2.87,12.95,2.89,9.91.05,12.02-11.82,6.21-18.04l-13.18-1.82c-3.84-3.11,14.14-18.9,23.71-4.71,4.98,7.39,5.95,19.18-.36,26.09Z"/>
  <path class="st0" d="M643.99,1585.99c-4.59,0-5.77-3.89-10.98-4.2-12.09-.73-12.65,8.48-8.54,17.74l15.49,3.47c-15.02,18.41-31.26,5.52-27.83-15.88,2.49-15.53,31.47-18.26,31.86-1.13Z"/>
  <path class="st0" d="M1251.99,1935.99l-11.51,2.48c-5.97,6.63-.14,17.88,8.21,17.11,5.28-.49,7.8-7.91,13.3-7.58,4.42,36.83-45.91,15.2-29.99-9.02,4.61-7.02,17.53-15.53,19.99-3Z"/>
  <path class="st0" d="M2277.98,1138c.17,30.31,34.75,11.34,12.02-7.98,40.49-4.51,12.25,51.76-12.12,27.11-5.67-5.74-8.27-14.65.1-19.13Z"/>
  <path class="st0" d="M1930,1748.02c-13.46,11.79-.42,29.74,11.5,19.48,4.49-3.87-.76-15.05,5.47-15.48,18.45,16.98-.64,34.95-20.47,26.47-12.2-5.22-12.85-30.92,3.5-30.47Z"/>
  <path class="st0" d="M1501.31,88.69c12.73,13.37-2.7,35.02-19.3,29.28-1.3-6.82,7.38-2.62,11.98-6.99,11.6-11-10.12-25.99-18.98-9.03-5.07.11-5.34-22.55,13.83-19.94,3.13.43,10.33,4.42,12.48,6.67Z"/>
  <path class="st0" d="M2050.02,1530c.25-12.63.85-24.13-4.05-36l-19.97,7.98c4.04-7.66,11.91-14,14.44-22.54,2.13-7.16-.18-14.01,4.57-19.43,6.48,6.88-.44,15.49,1.38,22.46.93,3.58,6.18,8.08,7.99,12.15,4.94,11.15,4.55,26.41-4.36,35.38Z"/>
  <path class="st0" d="M557.98,1172.01c.78-.71,2.95-24.41,8.01-17.99l.9,16.11,12.13,25.87c-7.1-1.53-11.08-12.9-15.05-14.95-3.41-1.76-8.86-1.21-13.07-2.93-13.67-5.56-20.91-13.62-24.88-28.1l18.5,16.48,13.47,5.51Z"/>
  <path class="st0" d="M932,1700.02c-4.74,7.82-16.89,2.15-24.58,4.4-2.73.8-4.9,4.56-8.01,5.99-13.2,6.08-24.13,3.61-37.41-.44-.08-3.39-1.12-4.33,2.82-3.84,11.7,1.46,21.41,3.68,32.3-4.07l-7.11-18.05c8.21,3.42,12.92,9.85,22.05,12.93,6.48,2.19,13.04,3.58,19.94,3.08Z"/>
  <path class="st0" d="M1872,341.98c-12.63-.25-24.13-.85-36,4.05,1.12,7.58,9.85,11.28,7.98,19.97-5.62-3.89-10.24-9.47-16.63-12.34-8.63-3.88-15.99-2.1-23.33-6.67,6.3-6.19,14.43-.16,20.52-1.28,6.29-1.16,14.66-10.92,24.7-11.63,5.58-.39,19.49,2.72,22.77,7.9Z"/>
  <path class="st0" d="M1537.99,1812.01c2.95,2.98-13.63,15-14.95,18.03-1.66,3.82-.63,8.15-1.99,12.01-4.26,12.17-15.82,19.22-27.04,23.94.13-7.32,8.98-9.22,12.91-14.07,1.92-2.36,6.68-12.07,7.05-14.99.84-6.58-19.63-2.25-17.97-10.93,8.07.39,16.36-.09,23.96-3.04,6.84-2.65,11.08-9.37,18.01-10.97Z"/>
  <path class="st0" d="M2207.98,900c-9.43-8.77-17.12-22.72-31.97-22.01-.04,5.84.01,14.9-5.99,18.01.35-16.63-6.19-29.32-16.02-41.98,9.24-.71,11.52,10.55,17.21,13.77,4.31,2.44,8.91,1.6,12.79,3.21,13.34,5.52,21.99,14.14,23.98,29Z"/>
  <path class="st0" d="M1242,184.02c-8.4,9.36-18.7,15.54-21.98,28.9l17.98,9.06c-6.87.24-15.02,1.16-21.44,3.58-7.65,2.87-12.92,10.24-20.56,12.42-2.22-2.09,13.82-15.78,14.9-18.07,1.79-3.8,1.25-8.76,2.99-13.01,4.28-10.48,16.48-22,28.11-22.87Z"/>
  <path class="st0" d="M685.99,520.01c-2.92,11.76-2.9,23.08,3.03,34,3.7,4.5,12.95-8.61,18.98-5.99-8.73,12.59-17.75,23.14-16.01,39.98-4.67.28-3.54.67-4-2.96-.79-6.2,1.02-13.31-.41-19.62-3.21-14.16-13.71-13.91-8.17-37.04.77-3.2,1.84-9.97,6.58-8.37Z"/>
  <path class="st0" d="M1767.99,452.01c9.28,8.09-35.94,12.12-38.5,12.48-7.27,1.03-16.52,8.02-23.49.49l4.1-2.01-4.08-10.98c20.62,6.95,41.21,3.81,61.97,0Z"/>
  <path class="st0" d="M1939.99,1425.99c-5,1.07-3.53-1.14-5.18-3.73-3.3-5.17-12.79-56.03-10.79-58.25,3.57-1.26,5,3.33,6.96,3.36,1.6.02,8.23-6.32,9.01-5.36-6.66,21.45-4.13,42.38,0,63.99Z"/>
  <path class="st0" d="M1212.01,389.99v-8.01s-9.99-1.96-9.99-1.96c21.49-7.73,30.36-29.33,45.96-44.03,1.57,14.3-10.78,23.61-18.8,34.18-1.13,1.49-13.25,24.46-17.17,19.81Z"/>
  <path class="st0" d="M732,1179.99l-5.66.24-4.32,9.76c-5.7-19.17-24.03-29.11-38.27-40.79-2.07-1.7-5-.03-3.74-5.19,13.73-1.1,21.05,10.06,30.16,16.82,7.68,5.69,20.06,9.44,21.83,19.17Z"/>
  <path class="st0" d="M1027.99,1582.01c1.12,1-7.15,9.03,2.01,13.97-21.96-6.15-41.8-1.14-64,0l5.47-5.51c6.26-3.08,54.27-10.47,56.52-8.46Z"/>
  <path class="st0" d="M1524,1660.02l-.99,4.06,8.98,5.9c-20.68,7.02-29.59,27.65-43.97,42.03-.28-3.46-.07-6.7.92-10.06.66-2.21,23.91-36.07,25.95-38.05,2.82-2.73,4.77-4.64,9.11-3.88Z"/>
  <path class="st0" d="M2055.98,902.03c-1.81,5.02-11.49,1.02-14.67-.34-3.26-1.4-35.44-26-37.34-28.66-1.22-1.71-2.78-2-1.95-5.02l7.82-.17,1.15-7.82c11.82,16.98,26.01,32.89,44.99,42.02Z"/>
  <path class="st0" d="M809.98,686c-5.86-5.26-7.74-3.84-13.96,0,6.95-21.22.7-40.48,0-62l5.68,5.3c3.44,6.24,10.23,54.01,8.28,56.7Z"/>
  <path class="st0" d="M1247.99,1366.01c.6,14.96-13.38,13.99-21.95,20.99l3.95,6.99c-6.59.56-14.17-1.02-20.57.43-4.73,1.07-6.62,5.81-11.42,5.56,2.13-5.17,5.63-9.53,10.13-12.85,6-4.42,24.27-14.58,31.59-18.41,2.74-1.43,4.53-3.61,8.27-2.71Z"/>
  <path class="st0" d="M1039.99,1178.01c-1.37,17.88-27.81.1-29.98,2l-.98,7.97c-7.46-8.29-15.34-15.65-27.02-16.97,18.2-9.56,38.68,8.86,57.98,7Z"/>
  <path class="st0" d="M1223.99,640.01l-.51,16.47-12.48,41.48c-11.14-8.79-2.01-19.78.99-29.95h-6.91s-1.07-3.97-1.07-3.97l7.07-3.91,12.91-20.11Z"/>
  <path class="st0" d="M1025.99,903.99c-14.45,1.47-15.15-12.85-20.99-21.95l-6.99,5.95c.39-11.8,1.15-21.95-6.01-31.97l14.87,12.11,19.12,35.86Z"/>
  <path class="st0" d="M1535.99,650.01c2.51,2.41-7.49,10.23-9.33,11.65-11.11,8.5-27.17,13.5-38.64,22.34-2.86-14.12,11.3-17.11,21.98-20.02l-5.99-7.96c12.08,1.62,21.14-1.89,31.99-6.01Z"/>
  <path class="st0" d="M1524.01,1382.01c3.37-1.68,6.66-2.68,7.99,1.96l-6.08,2.93-13.9,23.1c-3.12-20.82,7.17-37.98,9.99-57.98,14.58,1.05-.52,26.77,2,30.01Z"/>
  <path class="st0" d="M1728.03,1165.99l7.96-3.98c-1.42,11.56,2.31,21.42,5.99,31.99-17.3-10.96-20.24-32.73-33.94-47,9.55-9.27,19.03,10.63,19.99,19Z"/>
  <path class="st0" d="M1751.99,878.02c.49,3.46-4.56,1.9-6.96,1.97-17.58.53-33.88-7.71-51.01-10.99,7.86-9.84,21.04-4.43,29.97.99l1.01-9.99c7.53,7.88,15.49,16.42,27,18.01Z"/>
  <path class="st0" d="M675.99,594.01c-2.34,17.91,17.42,24.88,27.82,35.18,2.1,2.08,5.09,2.86,4.18,6.8-14.41-3.98-27.9-7.86-34.36-22.62-2.51-5.73-7.48-19.54,2.37-19.36Z"/>
  <path class="st0" d="M1181.99,228.01c-2.21,7.38-7.81,12.55-8.08,21.06-.35,11.18,7.17,23.57,3.1,34.92-13.85-15.95-17.84-46.38,4.98-55.98Z"/>
  <path class="st0" d="M625.99,1214.01c1.01,5.31-1.12,3.48-4,4.89-12.77,6.24-22.76,10.01-37.09,5.2-5.23-1.75-14.41-7.39-12.89-14.09,4.75-.13,6.35,4.34,10.83,6.13,12.77,5.11,29.4-3.86,43.15-2.13Z"/>
  <path class="st0" d="M2063.99,1455.99c-5.96,1.04-3.16-1.58-4.21-4.67-6.87-20.33-20.66-22.41-33.78-37.29,22.92,1.65,41.18,17.74,37.99,41.97Z"/>
  <path class="st0" d="M1552,1819.98c15.9-15.19,2.44-35.59,6.99-53.97,12.22,16.11,17.46,47.95-6.99,53.97Z"/>
  <path class="st0" d="M1797.99,328.01c1.03,5.67-1.37,3.28-4.39,4.5-21.43,8.63-21.05,19.94-37.58,33.49,3.63-21.52,17.7-41.85,41.97-37.99Z"/>
  <path class="st0" d="M2164,837.98c-6.3.67-9.07-4.87-15.09-5.87-9.51-1.59-18.55,1.46-27.81,1.99-2.67.15-12.5,1.43-13.08-2.07,19.27-9.87,43.23-16.75,55.98,5.95Z"/>
  <path class="st0" d="M980,1684.02c-5.64,10.71-6.73,22.29-17.02,29.96-5.83,4.35-20.85,11.59-26.94,5.02,4.66-4.37,9.98-2.45,15.88-6.08,4.28-2.64,24.06-32.9,28.08-28.9Z"/>
  <path class="st0" d="M1214,1345.98c-14.72-3.17-35.58,5.27-41.99-13.97,1.28-1.21,15.28,5.68,19.22,5.94,9.32.63,15.82-5.27,22.77,8.03Z"/>
  <path class="st0" d="M1250.01,689.99l19.29-19.69c5.52-2.23,13.81-7.64,18.66-1.3-5.79,4.02-12.02,5.63-17.85,10.11-6.22,4.77-7.8,13.09-20.1,10.88Z"/>
  <path class="st0" d="M1725.99,943.99c-6.95,0-7.67-9.29-11.11-13.87-5.31-7.05-13.9-11.04-12.86-22.11l14.06,10.92c6.7,6.69,10.03,15.53,9.92,25.06Z"/>
  <path class="st0" d="M1688,1207c-.59,2.71-7.11,9.96-9.02,12.99-6.84,3.45.56-15.26.87-17.14,1.53-9.14-2.26-18.17,8.15-24.85-1.24,8.47,1.71,21.23,0,29Z"/>
  <path class="st0" d="M1013.98,1104c-.31,17.21,21.86,20.79,18,38-10.06-10.82-24.23-17.77-22.02-35,.35-2.72,1.26-6,4.02-3Z"/>
  <path class="st0" d="M1483.99,1360.01l-19.24,19.74-16.74,2.24c-1.09-5.31,1.33-3.44,3.94-4.97,4.13-2.41,9.48-3.79,13.09-6.98,6.3-5.57,5.24-13.1,18.95-10.03Z"/>
  <path class="st0" d="M1564,715.98c-6.22,1-11.4-2.99-17.16-3.82-9.63-1.39-19.6,3.52-24.84-8.14,14.8,0,33.3-3.27,42,11.96Z"/>
  <path class="st0" d="M1059.99,830.01c-1.22,6.55-5.44,12.45-5.89,19.27-.63,9.57,5.4,13.51-8.08,20.72,3.24-12.96-5.17-36.83,13.97-39.99Z"/>
  <path class="st0" d="M1596,1272.01c1.46,4.7-3.63,5.42-7.18,5.8-11.21,1.21-21.24-4.29-32.81.18-4.44-4,12.6-9.65,15.23-9.9,9.05-.86,15.72,5.1,24.76,3.92Z"/>
  <path class="st0" d="M801.99,1664.01l.18,9.81,13.81.18c1.32,6.18-5.39,3.7-8.87,8.11-1.67,2.12-1.18,6.12-4.13,7.87l-1.01-5.99-3.98,3.06-3.93-2.03c5.07-7.35-7.22-21.8,7.93-21.02Z"/>
  <path class="st0" d="M1308.68,157.29c3.6,2.97,10.59,5.54,9.31,11.68-1.47,7.06-7.57-3.35-10.71-2.81l-11.28,9.83c1.44-7.42,2.84-12.58,0-19.98l5.97,2.01,2.99-6.01c1.83,1.2,2.21,4.04,3.7,5.27Z"/>
  <path class="st0" d="M513.99,1074.01l-4.15,10.94,8.15,11.04c-7.53-1.51-12.47-2.71-19.99,0l4-5.96-7.99-1.01c7.57-5.36,8.96-17.16,19.98-15Z"/>
  <path class="st0" d="M1119.99,1253.99c-4.87.66-3.17-.03-4.21-2.77-4.68-12.45,3.21-24.28-1.77-37.21,4-4.44,9.65,12.6,9.9,15.23.87,9.16-5.9,15.3-3.92,24.75Z"/>
  <path class="st0" d="M728,457.99l-9.14,1.87-.88,14.14c-6.13-3.58-7.54-12.15-15.97-12.02l6-1.98-4.02-7.97,20.65.33,3.34,5.64Z"/>
  <path class="st0" d="M1350.73,1359.37c.17.27,6.92,1.49,3.26,4.62-5.18,4.43-26.3-25.3-31.99-27.97,18.74-1.63,21.23,11.24,28.73,23.35Z"/>
  <path class="st0" d="M1437.99,1874.01v19.99s-5.98-2.02-5.98-2.02l-1,6.01c-2.87-7.74-24.01-13.23-10.01-20.04l2.2,4.13c10.03,2.3,7.48-8.06,14.78-8.07Z"/>
  <path class="st0" d="M1678.01,1067.99c.76-17.51,15.94-21.71,27.97-29.99l-4.85,12.13-23.12,17.86Z"/>
  <path class="st0" d="M1932.21,363.79l7.77-1.79c-1.03,7.58,2.92,17.94-3.02,23.97-6.31.9-.5-7.59-4.14-10.19-5.29-3.79-14.16.83-14.82.2.89-7.9,12.69-5.57,12.01-15.98l2.19,3.78Z"/>
  <path class="st0" d="M2032,1589.98l-5.99,1.01,3.98,7c-8.82-4.12-17.6,4.7-23.95-4.99l11.01-5-1.05-11.99,15.99,13.97Z"/>
  <path class="st0" d="M1411.99,713.99c-17.49-1.57-24.03-13.46-29.99-27.97l11.09,5.89,18.9,22.08Z"/>
  <path class="st0" d="M781.99,357.99c-9.47-3.2-15.54-12.03-26.95-7.96l-1.02-3.99c13.94-9.73,27.74-6.88,27.97,11.95Z"/>
  <path class="st0" d="M1619.98,836c-14.93-10.38-5-27.73-3.96-41.99,2.87.43,5.36,9.44,5.54,11.44.76,8.38-5.7,20.25-1.58,30.55Z"/>
  <path class="st0" d="M2236,954.02l-2.02,5.97,6.01,1c-5.73,3.22-9.72,16.54-16.96,15s3.44-7.84,2.67-10.64l-9.71-11.34h20Z"/>
  <path class="st0" d="M867.99,564.01c-.35,9.64-7.35,18.55-1.99,27.97-1.66,1.32-23.74-8.67-19.99-11.97l11.72-.28c2-1.28,2.4-17.14,10.26-15.72Z"/>
  <path class="st0" d="M1028,1009.98c4.63-14.44,19.29-17.99,27.98-29.98.69,17.03-14.31,24.47-27.98,29.98Z"/>
  <path class="st0" d="M691.97,1054.01c.57,3.67,2.29,7.61,4.36,10.66,3.89,5.73,9.81,5.94,9.67,11.32l-19.99,6.01c-1.42-6.53,2.52-6.08,6.16-9.26l-5.93-15.78,5.73-2.95Z"/>
  <path class="st0" d="M1337.99,344.01c.93,4.26-2.17,4.54-4.64,6.34-2.55,1.85-16.09,12.59-17.32,11.65.64-2.32-8.94-20.25-3.02-19.95,1.31.07,5.59,7.2,7.97,7.39,2.74.22,12.04-7.15,17.02-5.42Z"/>
  <path class="st0" d="M2254.01,1080.01c11.83.56,18.02-4.54,25.97-12.01.17,12.57-5.82,23.73-20.08,19.09-3.05-.99-6.66-3.22-5.89-7.08Z"/>
  <path class="st0" d="M1811.99,504.01l-1.98,9.91c6.15,2.24,14.91,3.66,17.99,10.06l-27.99-1.99c-1.28-1.16,8.5-21.92,11.98-17.98Z"/>
  <path class="st0" d="M1177.99,772.01c.97,5.05-.95,3.54-3.88,5.02-13.69,6.92-22.55.38-36.1-1.05.37-2.95,9.2-5.2,11.25-5.33,8.21-.53,18.66,5.79,28.73,1.36Z"/>
  <path class="st0" d="M2049.99,968.01c1.34,5.57-7.08,5.93-7.84,9.18-.76,3.24,12.81,18.95,1.88,18.8l-14.01-20.97,19.97-7.02Z"/>
  <path class="st0" d="M456.02,980c-4.21-18.49,13.95-24.23,25.94-13-10.12,4.64-18.03,3.39-25.94,13Z"/>
  <path class="st0" d="M691.98,1638c-16.04-6.41-6.38-30.75,6.98-28,6.71,1.38-5.49,10.88-6.54,15.42-.96,4.12-.3,8.43-.44,12.58Z"/>
  <path class="st0" d="M1979.99,1700.01c1.08,4.53-.69,3.26-2.48,4.58-13.53,10.01-25.02,1.26-23.49-14.59,8.27,6.76,14.32,12.17,25.97,10.01Z"/>
  <path class="st0" d="M1423.99,1705.99c-5.08.87-6.2-5.88-10.93-5.95-1.91-.03-17.58,9.03-17.02,2.96.13-1.35,19.38-11.75,20.96-16.96l6.99,19.95Z"/>
  <path class="st0" d="M1422.01,137.99c-.07-4.15.56-8.37-.51-12.49-1.83-7.04-9.23-7.34-9.49-13.49,17.9-2.41,27.01,19.18,10,25.98Z"/>
  <path class="st0" d="M1890,1467.98c-3.58.35-9.09-1.08-12.08.94-4.24,2.85-2.47,18.24-11.91,15.06,4.64-8.13,4.31-16.89,4.01-25.97l19.99,9.97Z"/>
  <path class="st0" d="M2034.01,437.99l7.46-11.54,3.51-14.44c12.91,10.99,5.5,27.73-10.97,25.98Z"/>
  <path class="st0" d="M1323.98,1934.03c.33,3.7-8.59,2.07-10.55,1.54-12.61-3.36-11.83-18.73-2.42-25.56,2.17,8.51,1.96,21.72,12.97,24.02Z"/>
  <path class="st0" d="M933.98,1526c1.56,2.13-3.93,14.62-5.54,17.41-1.24,2.17.24,3.49-4.43,2.57l-.24-11.77c-3.04.74-19.62-6.58-15.76-10.21,8.85,1.38,17.17,6.98,25.97,1.99Z"/>
  <path class="st0" d="M1431.99,41.99l-39.98-19.97c14.39-1.06,36.77,3.48,39.98,19.97Z"/>
  <path class="st0" d="M641.98,1716c-11.52-8.22-24.15-28.35-14.97-41.99,2.68,15.35,8.39,28.08,14.97,41.99Z"/>
  <path class="st0" d="M1342,2024.02c.14,3.61,1.01,4.2-2.97,3.98-10.76-.59-35.07-6.29-35.02-19.99,6.87,1.78,11.25,8.03,17.99,10.99,6.01,2.65,13.5,4.05,20.01,5.02Z"/>
  <path class="st0" d="M2350,1087.98l19.98-37.97c.8,13.77-3.58,36.01-19.98,37.97Z"/>
  <path class="st0" d="M554,989.98c-13.77-2.56-22.05,3.71-33.99,8.01-7.55-8.01,29.28-22.44,33.99-8.01Z"/>
  <path class="st0" d="M383.99,960.01c-2.73,8.17-8.96,14.42-12.42,22.56-2.46,5.79-.71,14.4-7.55,17.43,1.14-14.91,3.7-34.2,19.97-39.99Z"/>
  <path class="st0" d="M1323.97,106c-11.46-10.84,9.25-28.34,19.99-15,0,2.13-21.34,6.31-19.99,15Z"/>
  <path class="st0" d="M767.99,1574.01l-11.69,13.29c-3.76,4.9-2.1,16.56-10.29,16.69-1.86-13.33,7.75-29.37,21.98-29.98Z"/>
  <path class="st0" d="M689.99,380.01c.65,5-2.92,8.45-3.88,13.09-.6,2.9,1.96,14.94-3.08,12.88-10.88-4.45-6.6-26.58,6.96-25.97Z"/>
  <path class="st0" d="M2221.99,913.99c-11.71-2.29-8.64-16.94-10.4-24.58-1.09-4.72-5.8-6.61-5.58-11.4,13.86,5.4,13.27,23.8,15.98,35.98Z"/>
  <path class="st0" d="M435.99,1048.01c-2.21,11.65,9.53,14.58,12,23.98-13.82,2.95-27.24-18.27-12-23.98Z"/>
  <path class="st0" d="M2303.98,999.99c-6.64.45-6.09-7.7-9.06-11.91-2.55-3.62-7.09-5.91-8.92-10.06,14.13-2.68,23.65,8.72,17.98,21.97Z"/>
  <path class="st0" d="M749.99,1706.01c-4.66,14.61-28.02,10.18-25.97-6.01,8.3,5.41,16,7.1,25.97,6.01Z"/>
  <path class="st0" d="M1918.02,1624c8.41,11.63,18.07,12.81,29.94,19-10.84,9.45-31.1-6.79-29.94-19Z"/>
  <path class="st0" d="M527.99,1169.99c-14.46-5.27-11.64-23.6-13.97-35.99,10.45,5.4,7.96,19.02,10.5,28.48.76,2.84,4.38,3.9,3.47,7.51Z"/>
  <path class="st0" d="M716,282.02c.49,5.29.1,3.24-3,3.95-6,1.37-11.99,1.66-18.1,3.94-6.84,2.54-11.33,8.33-18.9,8.07,9.23-10.65,25.77-19.79,40-15.96Z"/>
  <path class="st0" d="M1405.98,210c-4.97,5.25-4.31-13.7-4.86-16.12-1.48-6.45-6.23-11.47-7.11-17.87,14.45,4.54,15.96,21.32,11.97,33.99Z"/>
  <path class="st0" d="M2044.01,1667.99l5.14-11.85,1.82-14.12c11.51,8.35,8.62,27.38-6.96,25.97Z"/>
  <path class="st0" d="M723.99,1760.01c.87,4.58-.3,3.19-2.55,4.45-11.6,6.51-25.45,2.71-29.43-10.46,4.79-.22,6.69,4.5,11.41,5.57,6.4,1.45,13.99-.13,20.57.43Z"/>
  <path class="st0" d="M2011.99,347.99l-25.97-8.96c10.27-10.16,23.87-4.92,25.97,8.96Z"/>
  <path class="st0" d="M2359.42,964.56c2.51,2.92,7.45,19.6,1.58,19.4-4.71-10.45-10.35-17.47-18.99-24.97,3.62-2.5,15.26,3.08,17.41,5.57Z"/>
  <path class="st0" d="M1222.02,186c3.95-15.38,22.16-12.37,33.96-16-3.94,15.33-24.39,5.65-33.96,16Z"/>
  <path class="st0" d="M1891.99,340.03c1.35,6.27-4.14,4.11-8.05,3.03l-25.93-17.05c15.25-2.58,21.8,10.37,33.98,14.02Z"/>
  <path class="st0" d="M2065.99,1516.01c1.36,14.17-8.32,25.23-17.97,33.99l2.43-12.55,15.53-21.44Z"/>
  <path class="st0" d="M687.99,500.01c.37,9.78-7.95,14.88-11.74,21.24-2.51,4.23-1.15,10.71-6.23,12.75-1.88-12.44,3.28-20.89,11.58-29.4,1.96-2.01,1.95-5.67,6.39-4.59Z"/>
  <path class="st0" d="M876,1721.98c-6.08,5.72-33.79-13.06-33.96-14.98-.41-4.56,10.27-.45,11.74.22l22.22,14.76Z"/>
  <path class="st0" d="M817.99,423.99c-5.56-.46-6.7-6.03-11.67-9.31-4.18-2.75-8.4-3.48-12.83-5.24-2.3-.91-6.84-.68-5.47-4.41,3.3-8.97,32.18,8.74,29.97,18.96Z"/>
  <path class="st0" d="M1392,1956.02c9.34.03,15.33-6.85,21.98-12.02.75,5.16-.9,14.58-5.97,16.99s-16.72,2.69-16.01-4.98Z"/>
  <path class="st0" d="M2215.99,1052.01c-2.82,12.45-24.73,15.86-33.97,8.96-.57-5.44,7.76-1.27,12-1.75,8.01-.91,13.98-7.12,21.97-7.2Z"/>
  <path class="st0" d="M638,350.02c-7.62,9.67-5.23,20.7-6.99,31.97-10.16-10.48-8.92-29.3,6.99-31.97Z"/>
  <path class="st0" d="M1333.99,1838.01c-5.52,13.64,4.14,21.39,6,33.98-12.94-2.94-13.48-17.72-11.43-28.53.66-3.49.82-6.59,5.43-5.45Z"/>
  <path class="st0" d="M1514,1864.02c-7.34,12.99-23,12.27-35.99,13.97-1.43-4.64,5.04-6.01,8.01-6.93,9.05-2.82,19.01-2.84,27.98-7.04Z"/>
  <path class="st0" d="M375.99,1063.99c-.07,3.23.05,6.51,1.53,9.48,3.57,7.19,11.85,11.38,14.47,18.52-1.45,1.33-15.86-6.36-17.61-9.37-3.05-5.21-3.58-25.3,1.61-18.63Z"/>
  <path class="st0" d="M1968,473.98c10.49-8.45,11.85-20.85,19.98-29.98,1.91,13.33-4.98,29.53-19.98,29.98Z"/>
  <path class="st0" d="M1327.99,30.03l-27.97,19.97c1.3-14.73,13.46-25.13,27.97-19.97Z"/>
  <path class="st0" d="M1408.01,2019.99l25.97-19.99c-1.13,15.01-11.11,22.44-25.97,19.99Z"/>
  <path class="st0" d="M2098.02,1700l6.97-31.99c10.15,10.79,6.39,26.42-6.97,31.99Z"/>
  <path class="st0" d="M2041.99,293.99l-15.47-5.51-16.51-2.45c11.31-6.39,27.72-7.34,31.97,7.96Z"/>
  <path class="st0" d="M685.99,570.01c.03,4.18-2.7,7.49-3.54,11.44-1.02,4.85,2.15,14.21-4.42,12.54-3.03-8.56-4.69-24.74,7.96-23.98Z"/>
  <path class="st0" d="M1413.98,1870c.35,7.47-2.05,15.45,3.76,21.32l-4.72,4.67c-6.1-1.41-7.78-23.48.96-25.99Z"/>
  <path class="st0" d="M737.98,460c-6.62-7.18-10.87-10.96-19.97-15.03l3.03-4.98c10.07,2.29,16.67,9.37,16.94,20.01Z"/>
  <path class="st0" d="M938,1710.02c-5.11,10.32-20.07,6.9-25.96-1.02,3.95-5.9,8.05.06,13.06.9,4.16.7,8.7-.18,12.9.12Z"/>
  <path class="st0" d="M565.97,1186.01l12.03,19.97c-11.19,1.06-17.29-5.84-16.06-16.96.31-2.8,1.24-5.75,4.03-3.02Z"/>
  <path class="st0" d="M2237.99,974.01c-.01,15.28-16.47,10.06-25.97,5.97l25.97-5.97Z"/>
  <path class="st0" d="M522,1068.03c6.14,6.16-9.58,1.67-11.01,1.77-5.27.38-8.94,5.68-14.98,4.19-.14-12.05,21.19-10.78,25.99-5.96Z"/>
  <path class="st0" d="M2169.45,846.55c2.05,2.1,6.16,13.84,4.54,15.44l-6.17-1.17c.97-7.4-8.32-12.35-9.8-15.85-2.67-6.28,10.17.28,11.43,1.58Z"/>
  <path class="st0" d="M1821.99,341.99l-23.98-4.98c6.57-8.1,22.13-6.3,23.98,4.98Z"/>
  <path class="st0" d="M1949.99,374.01c4.78,10.22-5.83,20.01-15.98,19.97,1.27-3.84,6-5.82,8.08-8.9,2.67-3.96,1.06-11.71,7.91-11.06Z"/>
  <path class="st0" d="M802,1654.02c-3.93,6.42-11.97,10.07-11.97,18.63l-6.02,1.35c-2.17-11.38,7.71-18.86,17.99-19.98Z"/>
  <path class="st0" d="M1323.97,177.99h-3.97c6.54-5.42-3.77-22.2-1.99-23.98,1.93-1.93,5.82.52,7.59,3.38,4.75,7.69.77,13.3-1.63,20.61Z"/>
  <path class="st0" d="M1998.02,1590c5.85,8.42,11.86,9.77,19.94,15-9.48,9.09-21.26-5.04-19.94-15Z"/>
  <path class="st0" d="M1549.99,1814.01c-1,11.42-8.31,17.43-19.98,15.98l4.92-6.06,15.07-9.91Z"/>
  <path class="st0" d="M2055.72,1477.69l-5.71.3,4.01-23.98c9.02,6.39,6,15.55,1.7,23.68Z"/>
  <path class="st0" d="M1186.02,234c-1.31-9.73,11.65-20.64,19.94-13l-19.94,13Z"/>
  <path class="st0" d="M547.98,1052l2.01,11.99-10.17-.95-1.81-9.03,5.11,1.82c1.36.09-.2-6.13,4.86-3.83Z"/>
  <path class="st0" d="M1927.63,412.43c.35,3.81,2.83,3.9,6.37,3.59l-5.71,4.28,1.72,3.68-11.98-4.98,9.59-6.57Z"/>
  <path class="st0" d="M1353.8,255.8c-9.92,6.24-14.82-13.95-.93-9.68,4.33,1.33,2.39,8.76.93,9.68Z"/>
  <path class="st0" d="M816,1628.03l-7.01,9.97c-1.64-3.75-2.45-4.72-6.99-4.01l4.02-10,9.98,4.04Z"/>
  <path class="st0" d="M1336.41,201.72l3.57.31c-1.49,5.1-7.66,4.03-11.98,3.98v-10.02c4.8,1.81,6.13.86,9.98-1.99l-1.57,7.72Z"/>
  <path class="st0" d="M1235.99,680.01c5.43.8,12.85-5.45,14.01,2.96-5.62,6.13-15.02,8.07-14.01-2.96Z"/>
  <path class="st0" d="M1905.8,460.2c1.46.92,3.39,8.35-.93,9.68-13.89,4.27-8.99-15.92.93-9.68Z"/>
  <polygon class="st0" points="600 1045.99 593.3 1047.58 588.15 1041.27 594.74 1036.14 600 1045.99"/>
  <path class="st0" d="M1527.99,694.04c-.52,10.97-16.16,4.7-13.98-4.03l13.98,4.03Z"/>
  <path class="st0" d="M1499.99,1367.98l-12.96,2.04c-6.61-.87,10.16-19.46,12.96-2.04Z"/>
  <polygon class="st0" points="761.91 460.13 762.34 463.72 767.98 464.97 761 473.96 753.99 464.96 758.04 460.05 761.91 460.13"/>
  <path class="st0" d="M1405.99,1842.01v12s-9.98-.02-9.98-.02c2.79-4.89.7-5.94-2-9.97l11.99-2.01Z"/>
  <path class="st0" d="M1713.99,905.99c-3.21.38-6.05-.13-8.15-2.82-6.25-8.03,2.65-13.29,5.15-9.18l3,12Z"/>
  <path class="st0" d="M837.95,1587.95c-.77,1.16-9.11,1.17-9.91,0-1.17-1.72.11-9.05,2.97-9.93,6.17-1.9,8.98,6.86,6.93,9.93Z"/>
  <path class="st0" d="M1979.62,1583.62c-.43.63-5.44.73-3.64,6.39l-9.98-4.03,7.02-9.98c3.05-1.11,7.14,6.82,6.6,7.61Z"/>
  <path class="st0" d="M1039,864.04c5.85,4.15,3.75,16.05-3.98,13.94-6.52-4.28,1.21-9.77,3.98-13.94Z"/>
  <path class="st0" d="M811.99,496c-2.98,2.21-13.24-3.65-7.5-9.51,6.66-6.79,11.85,6.28,7.5,9.51Z"/>
  <path class="st0" d="M1029.97,1155.99c-.4.27-5.81.8-6.14-1.17-6.48-25.55,13.01-3.43,6.14,1.17Z"/>
  <path class="st0" d="M1701.99,1172.01c.27,6.15-2.59,13.48-9.98,11.98l2.24-11.73,7.74-.25Z"/>
  <path class="st0" d="M1389.95,1801.95c-2.01,2.99-14.87.78-9.64-7.63,3.72-5.98,13.84,1.38,9.64,7.63Z"/>
  <path class="st0" d="M1922.01,1564.01v-10.01c13.87-1.69,13.62,11.79,0,10.01Z"/>
  <path class="st0" d="M1219.99,1359.99c-.65.72-9.7-3.02-10.74-3.85-8.58-6.82,14.3-11.8,10.74,3.85Z"/>
  <polygon class="st0" points="2196 986.01 2194.15 991.13 2197.99 992.99 2190.34 994.28 2188.03 997.98 2186 986.01 2196 986.01"/>
  <path class="st0" d="M2139.02,1002.02c9.2-2.58,9.2,12.54,0,9.96-4.02-1.13-4.02-8.83,0-9.96Z"/>
  <path class="st0" d="M791.02,482.02c9.2-2.58,9.2,12.54,0,9.96-4.02-1.13-4.02-8.83,0-9.96Z"/>
  <polygon class="st0" points="833.66 1603.69 826.01 1603.99 829.02 1594.02 835.9 1597.18 833.66 1603.69"/>
  <path class="st0" d="M578.01,1055.99c-2.29-1.61-3.02-12.21,4.97-9.98,7.12,1.99.64,13.93-4.97,9.98Z"/>
  <path class="st0" d="M1345.99,241.99c-1.61,2.29-12.21,3.02-9.98-4.97,1.99-7.12,13.93-.64,9.98,4.97Z"/>
  <path class="st0" d="M2157.99,994.01c5.37,5.94-7.59,14.19-9.98,4.96-1.28-4.93,8.89-6.17,9.98-4.96Z"/>
  <path class="st0" d="M1397.99,1806.01c1.2,1.09-.03,11.26-4.96,9.98-9.23-2.39-.98-15.36,4.96-9.98Z"/>
  <path class="st0" d="M1909.99,446.01c1.19,7.56-3.44,8.72-9.98,7.98l-.02-7.98h10Z"/>
  <path class="st0" d="M1945.99,1565.99h-7.98c-1.44-13.26,9.38-13.38,7.98,0Z"/>
  <path class="st0" d="M1435.99,1703.99c-6.24.92-10.89-3.62-9.98-9.98,2.11-2.28,12.26,7.92,9.98,9.98Z"/>
  <polygon class="st0" points="937.99 1540.01 937.99 1551.99 932.22 1548.73 932.22 1543.27 937.99 1540.01"/>
  <path class="st0" d="M1895.98,1454c.43,7.08-8.02,8.27-11.96,2.97l11.96-2.97Z"/>
  <path class="st0" d="M596.01,1059.99v-7.98c10.56-.96,10.64,8.91,0,7.98Z"/>
  <path class="st0" d="M849.99,1586.01v7.98c-10.56.96-10.64-8.91,0-7.98Z"/>
  <path class="st0" d="M1307.98,356c-3.82-2.19-7.78-6.15-9.98-9.98l8.13.85,1.85,9.13Z"/>
  <path class="st0" d="M805.99,500.01c1.45,1.45-.75,8.91-4.96,7.98-7.39-1.63,1.1-11.84,4.96-7.98Z"/>
  <path class="st0" d="M1891.99,461.99c-2.05,2.05-12.06-.23-7.98-5.96,3.29-4.63,11.63,2.33,7.98,5.96Z"/>
  <path class="st0" d="M1930.01,1549.99c-2.51-1.98-1.93-9.76,4.97-7.97,6.45,1.68-2.36,10.03-4.97,7.97Z"/>
  <path class="st0" d="M1399,1788.04l4.96,4.96c-6.27,6.87-14,.9-4.96-4.96Z"/>
  <path class="st0" d="M852,593.98l-13.99-.97c3.59-4.53,12.04-4.59,13.99.97Z"/>
  <path class="st0" d="M2139.99,990.01c.78,3.77-2.56,5.39-4.99,7.95-6.38-6.52-3.72-9.33,4.99-7.95Z"/>
  <path class="st0" d="M1798.02,510l.97-13.99c4.53,3.59,4.59,12.04-.97,13.99Z"/>
  <path class="st0" d="M698,1084.02c-2.19,3.82-6.15,7.78-9.98,9.98-.83-6.34,3.53-10.81,9.98-9.98Z"/>
  <path class="st0" d="M2036,965.98c2.19-3.82,6.15-7.78,9.98-9.98.83,6.34-3.53,10.81-9.98,9.98Z"/>
  <path class="st0" d="M1335.03,252.01c4.89-1.08,6.67,6.94,1.94,7.98s-6.67-6.94-1.94-7.98Z"/>
</svg>