<?xml version="1.0" encoding="UTF-8"?>
<svg id="Layer_0_xA0_Image" xmlns="http://www.w3.org/2000/svg" version="1.1" viewBox="0 0 2732 2048">
  <!-- Generator: Adobe Illustrator 30.2.1, SVG Export Plug-In . SVG Version: 2.1.1 Build 1)  -->
  <defs>
    <style>
      .st0 {
        fill: #ffe313;
      }
    </style>
  </defs>
  <path class="st0" d="M1354,2047.98c-1.98-.04-4.02.07-6,0-.27,0-2.26-1.97-4.84-2.08-19.09-.83-38.27,1.48-57.09-2.99l-215.82-183.54,6.73-7.6,277.03,196.21Z"/>
  <path class="st0" d="M990,2047.98c-3.9-21-2.1-44.6-.98-66.02,4.16-.31,4.26,3.87,5.57,6.43,3.25,6.33,27.73,55.43,25.4,57.58l-9.15-.08-4.84,2.09h-16Z"/>
  <path class="st0" d="M1669.72,214.27c4.76,2.87,1.21,68.21,2.16,78.6l-26.89,57.11c-4.47-9.92.09-56.88-8.24-59.73l-406.74-36.26,2.96-3.99,399.05-1.99-2.14-32.93,6.12-3.06L1196.01,6.02c34.18-2.59,69.38-3.49,103.46-.49l357.07,206.92,13.18,1.82Z"/>
  <path class="st0" d="M1085.99,349.99c-2.33,2.65-37.63-32.87-42.07-35.09-1.47-.74-2.37-1.13-3.81.01l-313.14,261.07-2.01-4.01,278.15-281.98c3.31-6.42-20.32-18.31-23.11-24.99l5.99-4.97-460,165.96,71.52-73.46,400.97-107.03,10.79-7.34,3.78,1.73c13.34,17.52,39.97,34.87,51.81,52.25,3.03,4.45,23.15,55.55,21.12,57.86Z"/>
  <path class="st0" d="M348,1092.99l208.45-359.55,3.41-12.59c3.04-2.2,67.66-1.85,75.01-.74,7.49,1.13,29.68,12.2,37.84,16.16,6.32,3.07,14.9,6.14,19.28,11.7l-57.88,4.13-38.14,409.87-5.96-401.99c-12.4-2.73-25.96,6.63-35.99-1.99l-206.02,437.99v-103Z"/>
  <path class="st0" d="M2178,1287.98c.86.93-1.93,6.64,1.97,5.99l205.03-440c5.04.17,2.61,91.94,2.51,100.53l-203.85,352.15-6.57,19.43-79.97,1.78-55.12-23.9c.35-2.7,2.72-3.49,5.08-3.89,13.94-2.35,35.06,0,49.92-2.08l4.72-3.28,36.29-406.72,3.99,2.96,2,397.03h34Z"/>
  <path class="st0" d="M2012,1474l-281.96,286.98,23.95,22.03-3.97,4.95,454.98-164,3,1.01-66.97,69.03c-129.15,40.52-263.64,67.57-393.45,106.55-8.52,2.56-15.35,3.89-22.56,9.52l-4.1-1.97c-12.63-17.05-39.73-34.51-50.92-51.1-9.66-14.32-14.33-42.62-21.98-59l45.95,37.09,318.04-261.08Z"/>
  <path class="st0" d="M1435,2043.98l-351.66-204.33-19.33-5.67c2.71-24.85-4.05-58.33.88-82.11,1.4-6.74,18.39-42.7,22.63-49.3,1.26-1.97-.2-3.58,4.48-2.57l2,58,408.04,36.96,1.97,3.01c-110.78,5.47-222.15-.53-333.09,1.92-5.7.13-10.53,2.02-15.82,2.18-16.98.52-34.11-.55-51.08-.08v34l434,208h-103Z"/>
  <path class="st0" d="M2042.02,743.99c-1.41-1.45,6.48-11.09,8.03-12.94,4.95-5.93,24.93-24.59,27.01-29.09,1.01-2.2,1.58-3.77,0-5.92l-261.04-313.07.97-2.96,286.01,281.95,21.23-23.89,5.75,1.92-163.98-455.97c3.75-.88,4.76,2.09,7,3.98,9.42,7.89,63.83,61.51,67.12,68.88l104.86,393.13,8.86,15.27-1.73,3.78c-17.89,13.25-36.67,42.34-54.21,53.85-14.36,9.43-40.01,13.3-55.89,21.09Z"/>
  <path class="st0" d="M694,1306l-37.12,41.99v3.97s261.09,313.04,261.09,313.04l-2.95,2.95-281.04-279.1c-1.51-1.33-2.43-.79-3.97,0-5.7,2.94-16.18,17.75-21.01,23.09l-4.98-3.97,163.96,457.99-72.11-70.87-107.25-400.74-6.7-11.37,56.23-57.86,55.85-19.13Z"/>
  <path class="st0" d="M1608,208.02l-6.99,4.12-460.23-119.94-4.85-6.18-127.82,89.14c-10.27,5.81-12.55-26.07-6.02-30.1l141.86-84.13,9-16.66,455.06,163.74Z"/>
  <path class="st0" d="M826.03,1869.97l-206.03-437.97c8.59-1.6,9.87,3.52,13.6,9.38,81.19,127.7,150.13,266.77,230.73,395.25l4.52,15.38,149.67,26.44c16.66,5.82-5.06,20.63-11.45,26.77l-162.35-41.12-18.69,5.87Z"/>
  <path class="st0" d="M1597.64,1958.47c1.08,1.53-.6,5.92,1.34,5.49l124.33-87.66,9.42-2.17c5.19,1.68,4.41,25.01,1.25,28.82l-146.88,89.11-4.32,12.04-454.77-166.1,469.64,120.46Z"/>
  <path class="st0" d="M962,278.02l-9.33,11.65-395.34,230.66c-6.14,3.06-10.11,6.59-17.42,4.54l-26.85,151.18c-1.27,3.71-3.38,6.99-7.71,5.71l-17.54-14.73,40.08-166.33-5.05-16.76,439.14-205.93Z"/>
  <path class="st0" d="M2245.68,656.32l86.21,146.22,16.08,6.42-164.97,454.98c-7.08.04.65-24.51,1.57-28.39,34.74-146.86,79.78-291.7,115.79-438.27l5.72-4.33-89.17-128.91-.86-5.97,29.64-1.75Z"/>
  <path class="st0" d="M1774.02,1771.98l2.84-8.14,413.82-241.52,5.31,3.66,26.55-154.46,6.2-5.38c5.6,7.8,20.46,11.57,18.89,22.26l-41.22,161.13,4.73,16.57-437.12,205.88Z"/>
  <path class="st0" d="M1909.98,180l204.01,437.99-9.69-5.29-238.3-409.83,2.01-6.85-146.45-24.57c-23.03-4.22-3.12-20.8,7.32-27.31l162.67,41.45,18.44-5.59Z"/>
  <path class="st0" d="M553.98,783.99c2.6,12.58-3.09,26.26-6.14,38.85-34.53,142.64-77.33,283.43-111.89,426.1-.72,4.22-3.76,6.78-7.96,7.09l88.91,126.05,1.1,9.9-26.6,2.11-87.65-146.86-15.76-5.26.06-2.9,165.93-455.09Z"/>
  <path class="st0" d="M2136,763.99l-3.89-30.79,5.88-4.2-21.98-14.02c19.69-14.93,35.81,15.53,56.09,15.91,1.53,1.05,3.61,16.71,3.88,20.12,8.12,105.6-1.34,228.16-.07,336.07.39,33.07,3.52,66.5,2.09,99.92-.11,2.63,1.63,8.41-2.98,6.99l-31.3-387.73-180.3-16.7-3.41-3.56c13.15-4.82,25.82-10.87,38.75-16.26,2.97-1.24,7.74-5.76,8.24-5.76h129Z"/>
  <path class="st0" d="M2122,1359.97l-5.97-25.98c3.13,2.56,12.46,4.55,13.99,7.48,6.02,11.45,4.25,33.97,13.97,45.51l-6.05,9.95-317.92,319.05,249.75-295.41-115.76-144.57,51.05,17.93,88.21,87.91c6.97,1.23,17.99-27.94,28.72-21.87Z"/>
  <path class="st0" d="M779.99,771.98l-49-15.91-89.99-90.04c-5.01,0-17.98,28.93-26.98,21.96l5.97,25.99c-6.14-.56-12.9-3.53-15.46-9.52l-12.19-44.94,323.64-327.53-251.85,297.26,115.86,142.72Z"/>
  <path class="st0" d="M1628,1791.98l32.9-2.14,3.07,6.12,14-23.98c11.84,22.56-15.3,38.16-19.29,60.08l-460.69,1.89,387.98-31.99,16.28-180.72c1.43-2.51,2.57-4.48,4.76-1.28,4.61,6.72,11.43,27.42,15.48,36.53,1.23,2.75,5.5,6.07,5.5,6.5v129Z"/>
  <path class="st0" d="M2059.98,573.99l-295.4-251.73-8.49,2.84-136.08,112.88,15.9-49.01,90.05-91.99c.02-3.9-30.9-17.66-21.97-26.98l-25.98,7.98c.18-21.55,27.87-19.7,43.99-24.99,4.16-1.37,7.08-7.1,11.94-4.09l326.03,325.08Z"/>
  <path class="st0" d="M1115.99,1611.99l-17.93,49.05-87.93,90.2c-1.15,6.34,28.62,17.77,21.86,26.72l26-5.96c-2.51,3.31-3.91,10.12-6.2,12.78-6.57,7.64-39.52,7.32-48.82,16.74l-326.97-325.53,295.27,251.78,144.71-115.78Z"/>
  <path class="st0" d="M1535.99,214.01l-4.86,4.04-383.03,30.05-16.12,181.9c-4.61.95-3.2-.52-4.48-2.56-1.98-3.13-18.98-40.24-19.41-42.54-4.4-23.66,1.06-67.31,0-93.99-.44-11.09-3.83-23.13-2.1-34.91l-30.68,4.15-5.28-6.15-10.06,21.98c-3.96,3.42-7.2-11.51-7.16-13,.26-9.16,22.13-32.32,23.06-44.12,6.37-.32,12.9-2.36,19.16-2.84,104.86-8.12,226.89,1.32,334.07.07,5.71-.07,10.6-2.11,15.82-2.18,30.34-.41,60.75.47,91.07.09Z"/>
  <path class="st0" d="M774.01,1260c.92,5.22-.76,3.1-2.85,4.17-7.23,3.71-38.53,18.68-44.27,19.71-23.9,4.26-65.37-1.07-91.97.03-11.11.46-23.12,3.84-34.93,2.07-2.26,7.7,5.05,25.98,1.42,31.56-.6.92-5.12-.51-3.39,4.41l19.97,11.06c1.59,3.32-8.13,5.91-9.93,6.17-9.86,1.44-34.64-22.35-47.18-23.07l-2.85-462.11,32.85,388.11,183.13,17.88Z"/>
  <path class="st0" d="M940.02,1832c-.54,3.28,2.7,1.86,4.95,1.98,33.46,1.72,76.61-1.84,108.08,1.95,5.57.67,10.94,3.12,14.96,7.09l-15.24,16.48-150.76-11.54c-1.44-5.99,8.69-6.14,11.07-9.94l.83-2.87-255.91-365.15,8.04,2.94,291,343.05c3.71,7.82-11.15,13.06-17.02,16.01Z"/>
  <path class="st0" d="M1181.99,1841.97c-6.32-4.8,10.87-4.11,12.99-3.97,93.33,5.91,186.8,16.35,280.03,23.96,54.96,4.49,110.13,7.91,164.99,12.01l-1.02,24,84.31-79.68,9.73-4.2c4.41.34,3.62,19.91,1.96,23.88l-113.99,97.97c-6.54-4.35,5.82-15-2.36-17.6l-436.64-76.37Z"/>
  <path class="st0" d="M558.02,597.99l-1.97,111.05-6.07,16.95c-5.26-3.3-16.49-10.29-17.07-16.9l11.11-149.08c6.15-1.8,8.1,11.9,10.99,11.95l366.98-255.96-9.95,13.03-334.19,283.85-5.88,2.2-13.94-17.09Z"/>
  <path class="st0" d="M1115.99,114.01l-1.83,15.84,439.82,80.12c-8.35,1.36-18.45.58-26.97.01-137.21-9.07-283.4-19.16-419.76-34.24-4.3-.47-8.61-2.55-13.27-1.76l3.02-23.98-86.47,81.53-10.53,2.47-.99-22.01,116.97-97.99Z"/>
  <path class="st0" d="M494.01,1293.99c-.9,3.46,1.42,4,2.97,6.01,18.27,23.63,60.12,53.81,75.04,76.96,2.99,4.64,3.46,10.2,5.97,15.01-7.91-1.03-16.04,5.09-23.11.11l-98.88-115.1,14.72.88,2.87-3.28,77.39-436.57,3.17,8.94-38.04,450.2-22.11-3.16Z"/>
  <path class="st0" d="M1832,205.97c-5.51.8-12.46,3.47-9,9.94l252.98,364.08-299.06-347.95c-2.86-5.34,10.48-10.29,14.54-13.47,1.62-1.27,3.69.05,2.52-4.57-28.81-1.12-58.2,1.48-86.97-.03-7.65-.4-22.99-1.13-29.56-2.44-2.24-.45-11.4-5.06-11.42-6.54l14.89-15.15,146.06,10.16,5.01,5.96Z"/>
  <path class="st0" d="M2181.82,1478.1l-369.8,255.88,9.95-13.03,334.15-283.85c11.41-9.38,12.99,10.98,21.86,14.88,1.09-28.24-1.37-56.86-.06-85.08.41-8.97,1.05-23.47,2.2-31.79.55-3.98,3.57-7.09,3.92-11.12,10.53,3.85,18.06,9.17,18.14,21.01.25,36.97-7.26,82.23-10.15,120.01-.34,4.48,1.66,25.07-3.02,24.94l-7.17-11.84Z"/>
  <path class="st0" d="M2277.98,773.99l-15.97-4.01-79.98,439.99c-.8-8.57-.56-18.34-.01-26.97,8.82-139.51,21.27-280.52,34.23-419.77.34-3.68,2.08-7.32,1.86-11.13l23.89.89-78.01-79.99-5.98-17.01c7.91.87,17.78-2.61,24.13,2.85,28.12,35.72,61.83,68.58,89.81,104.18,1.48,1.89,7.47,9.25,6.03,10.95Z"/>
  <path class="st0" d="M2389.99,1038l-4.24,68.74-180.69,213.37c-4.2,4.43-8.35-1.93-10.75-5.42l191.1-274.16,4.57-2.53Z"/>
  <path class="st0" d="M1659.73,197.72L1380,2.02l67.96,3.02,215.14,180.94c2.72,4.27-2.15,7.68-3.37,11.75Z"/>
  <path class="st0" d="M2079.99,1755.99c1.03,3.94-1.63,3.87-3.36,5.62-6.12,6.21-41.1,38.83-45.78,40.22l-282.56,23.85-1.46-11.84,333.16-57.85Z"/>
  <path class="st0" d="M988.01,223.99l-1.28,12.11-332.71,57.89c-.94-3.85,1.41-3.85,3.36-5.62,6.36-5.78,44.16-41.68,47.67-42.33l282.97-22.05Z"/>
  <path class="st0" d="M2098.01,312.01c2.03-2.28,11.37,8.23,13.02,9.96,5.18,5.43,34.22,37.18,34.93,41.07l22.03,277.95c-.5,5.54-5.57,6.32-10.04,4.05l-3.43-6.57-56.51-326.47Z"/>
  <path class="st0" d="M635.98,1737.98c-16.38-15.74-33.31-32.21-45.84-51.14l-24.15-282.86c4.76.29,11.65-1.9,13.62,3.39l56.36,330.61Z"/>
  <path class="st0" d="M531.41,728.22c3.54-.91,5.81,1.24,7.68,3.82l-1.41,8.62-190.67,271.29c-3.87-2.5-2.17-3.19-2.06-5.95.92-21.43.82-42.78,4.09-63.98l182.37-213.8Z"/>
  <polygon class="st0" points="1110 525.99 1110 553.99 902 553.99 904.01 762 891.99 762 873.99 545.99 1110 525.99"/>
  <path class="st0" d="M896,1281.98l1.99,208.01c46.98-.64,94.09.79,141.09.07,18.58-.28,41.01-4.49,60.02-2.18,9.91,1.21,9.37,10.78,1.9,12.1l-211.14,17.14-21.86-235.14h28Z"/>
  <path class="st0" d="M1905.75,1193.71c-4.03,2.32-19.24-12.59-20.86-15.74-.79-1.54-1.33-2.46,0-3.97l143.19-147.02-145.19-143.01v-3.96s6.12-5.97,6.12-5.97l165.01,139.02-148.26,180.65Z"/>
  <path class="st0" d="M831.06,853.99l20.9,19-145.82,149.72,143.97,140.18c4.02,4.34.9,8.39-3.37,10.98l-164.87-138.86,149.18-181.03Z"/>
  <path class="st0" d="M1428.7,421.29c-7.1-6.92-54.91-57.94-59.43-57.15l-140.15,143.99c-4.17,3.95-8.63,1.05-10.82-3.43l138.67-166.22,180.09,149.5-18.34,19.86-3.79-1.73c-27.76-29.28-57.39-56.68-86.24-84.82Z"/>
  <polygon class="st0" points="1838 557.99 1629.99 560 1629.92 551.13 1846.01 531.98 1866.01 768 1838 765.99 1838 557.99"/>
  <path class="st0" d="M1217,1540.02l148,145.93,140.98-144.98c3.83-2.36,9.93-1.36,10.04,3.92l-139.02,165.16-177.15-146.98c-4.83-6.79,13.7-17.36,17.15-23.05Z"/>
  <path class="st0" d="M1842.01,1285.97l17.12,216.13-233.25,21c-4.88-3.42,2.47-20.81.11-27.13l208.02-1.98-2.02-208.02h10.02Z"/>
  <path class="st0" d="M548,1645.98c-3.49.87-4-1.44-6.01-2.99-4.36-3.34-32.39-28.99-34.09-31.9-1.15-1.98-2.36-3.63-2.09-6.09l20.45-229.76c2-3.08,1.85-3.98,4.77-1.3,1.98,1.82,16.97,21.61,16.97,23.04v249Z"/>
  <path class="st0" d="M1990,1843.98c2.2,1.62-34.27,38.58-36.89,40.1-1.98,1.15-3.63,2.36-6.09,2.09l-227.76-20.45-2.29-3.74c2.67-2.78,20.6-18,22.02-18h251Z"/>
  <path class="st0" d="M2206.01,1371.97l4.54-31.44c52.57-50.27,102.65-105.12,154.46-156.54,6.52-6.47,16.29-13.09,22.97-20.01-1.62,11.83,1.73,23.59,2.11,34.9.23,6.61,1.09,16.83-1.99,22.21l-169.16,142.84-12.94,8.04Z"/>
  <path class="st0" d="M346,828.99l171.05-144.95,10.94-6.04c-.04,2.34.16,4.71.1,7.07-.07,3.09-1.95,21.54-2.51,22.53-.48.84-10.71,10.36-13.53,13.45-43.46,47.59-95.87,98.34-142.26,143.74-4.45,4.35-13.18,12.7-17.78,16.22-2.02,1.54-2.52,3.86-6.01,2.99v-55Z"/>
  <path class="st0" d="M1713.99,185.99c-10.6-2.34-22.97.02-32.07-6.91L1510.99,10.01l-2.98-6c19,1.36,38.67-5.8,57.13-.15l146.96,175.04,1.89,7.09Z"/>
  <path class="st0" d="M1171,2045.98l-150.98-179.03c-1.79-4.3,4.68-3.09,7.06-3.06,5.13.07,20.14,1.77,24.04,3.97l175.9,174.12-2.02,4h-54Z"/>
  <path class="st0" d="M1020,184.02c-6,7.27-17.61,18.92-26.96,20.02-51.76,6.13-113.49-6.32-165.96,2.04l-81.07-.09c-.58-3.11.31-4.63,1.9-7.09s30.96-31.85,32.99-33.01c1.34-.77,2.46-1.86,4.15-1.84l234.96,19.97Z"/>
  <path class="st0" d="M2207.99,675.98c-2.02,2.4-10.53-9.23-11.9-11.08-3.39-4.57-7.44-8.14-8.2-13.8-6.78-50.65,6.95-114.31-1.97-166.03,2.18-24.23-2.62-52.5-.02-76.18.33-3.03.19-4.96,3.1-6.86,6.26,10.8,32.32,26.46,37.1,34.86,1.11,1.95,2.27,3.57,1.99,5.99l-20.11,233.1Z"/>
  <path class="st0" d="M1841.96,424.01l207.07,294.09c3.49,8.88-19.08,20.69-22.13,29.97l-5.06-1.37-183.82-321.73,3.93-.96Z"/>
  <polygon class="st0" points="895.98 1625.98 684.92 1329.88 684.87 1326.03 709.02 1299.99 895.98 1625.98"/>
  <polygon class="st0" points="2066 1293.98 2026 1293.98 2125.98 933.99 2066 1293.98"/>
  <polygon class="st0" points="1098 1683.98 1458.01 1781 1098 1721.98 1098 1683.98"/>
  <path class="st0" d="M708,754l-99.98,361.99,60.32-356.66c.58-2.68,2.34-2.93,4.65-3.35,4.15-.74,33.77-3.22,35.01-1.98Z"/>
  <polygon class="st0" points="766 553.97 1060.64 343.5 1065.95 342.89 1091.97 366.99 766 553.97"/>
  <path class="st0" d="M1635.99,326.01c-1.48,3.96,4.79,40.13.98,40.02l-360.96-100.01,359.98,59.99Z"/>
  <polygon class="st0" points="1968 1496 1673.35 1706.51 1669.96 1707.06 1644.07 1682.84 1968 1496"/>
  <path class="st0" d="M1116.01,431.97l-346.01,128,333.36-157.74c5.72-.54,10.36,24.43,12.65,29.74Z"/>
  <path class="st0" d="M2119.99,930l-128.78,349.8-24.96-12.06.7-7.8c52.11-107.26,95.96-218.78,148.16-325.94,1.4-2.88-.43-5.01,4.89-4Z"/>
  <polygon class="st0" points="770 782.02 616.02 1117.99 741.05 772.02 744.62 770.24 770 782.02"/>
  <polygon class="st0" points="1966 1491.96 1628.09 1645.92 1620.12 1616.1 1960.53 1489.37 1966 1491.96"/>
  <path class="st0" d="M1462,1775.96l-349.95-126.96c4.41-4.33,10.94-27.29,16.58-26.77l333.37,153.73Z"/>
  <path class="st0" d="M1621.94,398.08c1.69,2.38-10.3,26.9-13.24,27.75l-3.2-.14-331.48-153.7,347.92,126.08Z"/>
  <path class="st0" d="M1219,250l2.66,4.56-61.05,235.05-5.59,6.41-8.5-24.45c16.09-68.22,19.44-144.59,36.05-212.01.87-3.52,1.41-7.08,4.44-9.56h32Z"/>
  <path class="st0" d="M903.99,1621.97c-5.32,1.1-3.44-1.34-4.97-3.94-28.64-48.75-55.06-116.04-79.38-168.7-24.85-53.81-49.95-108.06-73.54-162.11l26.96-10.78,130.93,345.53Z"/>
  <path class="st0" d="M1890.01,1247.99l25.98,13,124.5,175.51c8.56,7.04-21.41,31.59-23.51,31.42l-126.97-219.93Z"/>
  <path class="st0" d="M1990.01,763.97c-6.7-.38-26.77,11.46-31.01,6.04l-126.97-344.02,157.98,337.98Z"/>
  <path class="st0" d="M719.82,582.12l126.17,217.86c-2.64,2.34-21.9-6.7-25.09-9.89l-128.92-183.13c-.02-3.76,24.02-27.5,27.84-24.84Z"/>
  <path class="st0" d="M2142,874.99c-.45,1.46-3.19,3.12-4.98,3.06l-241.04-63.08c.11-5.75,21.53-11.77,26.91-11.03l211.96,36.19c2.12-.09,7.14,3.63,7.14,4.86v30Z"/>
  <polygon class="st0" points="1143.99 1545.99 1133.88 1570.86 953.36 1698.48 948.06 1699.08 924.03 1674.98 1143.99 1545.99"/>
  <polygon class="st0" points="594 1207.99 594 1169.99 839.96 1234.99 817.11 1245.7 594 1207.99"/>
  <polygon class="st0" points="1514 1797.98 1578.98 1551.97 1588.05 1578.87 1551.63 1794.6 1549 1797.98 1514 1797.98"/>
  <path class="st0" d="M1592.01,501.98l8.63-23.37,179.44-127.6c9.99-4.55,22.21,16.55,29.85,22.12l-217.92,128.85Z"/>
  <path class="st0" d="M1914,1920c2.04,1.46-30.55,35.53-34.57,35.55l-155.42-38.56c9.83-9.81,21.86-6.7,17.98-25.02l172.01,28.03Z"/>
  <path class="st0" d="M2249.68,650.32c-3.83-2.4-16.36,3.15-15.56-3.17l30.87-169.14c5.78,9.52,32.84,25.33,33.12,34.89l-36.56,151.65c-4.08,10.32-10.56-13.4-11.87-14.22Z"/>
  <path class="st0" d="M1144.01,1591.97l160.17-277.87c5.19,1.4,28.46,10.88,27.57,16.52-.2,1.27-10.16,15.08-12.11,18-53.63,80.29-113.31,156.75-166.8,237.19l-8.82,6.16Z"/>
  <path class="st0" d="M1065.77,987.74c-2.65,1.03-5.19.19-7.68-.84-7.83-3.25-28.06-19.29-36.72-25.28-69.89-48.28-151.01-101.04-216.82-153.18-2.39-1.9-5.46-2.27-4.54-6.44,1.22-1.15,14.7,6.21,17.33,7.65,86.75,47.26,169.46,102.65,256.56,149.43,9.82,6.79-7.63,18.93-8.13,28.66Z"/>
  <path class="st0" d="M1925.99,778l-5.04,5.94-302.4,79.7c-5.22.24-11.93-26.74-9.72-29.8l317.15-55.85Z"/>
  <path class="st0" d="M1663.68,2.32l82.31,139.66c-2.41,2.23-16.85-6.34-20.72-5.59-3.47.68-8.61,10.67-11.29,8.66L1616.02,6.97c-.51-4.02.12-2.63,2.93-2.98,6.34-.78,41.99-3.37,44.73-1.66Z"/>
  <path class="st0" d="M1125.98,465.99l79.96,305.26c2.98,8.17-28.31,14.19-29.89,12.69l-54.13-314.91,4.05-3.04Z"/>
  <path class="st0" d="M1431.76,733.74c-4.16,2.64-27.69-10.51-27.78-14.67l179.19-256.91,6.81-6.17-158.22,277.75Z"/>
  <path class="st0" d="M1670.23,1060.23l265.73,184.75-9.29-.67-266.66-155.36c-5.71-6.51,8.14-21.37,10.22-28.71Z"/>
  <path class="st0" d="M477.97,1381.99c4.26,15.37,7.44,19.4,24,18.96l-32.94,169.01-32.89-32.85,37.66-152.34,4.17-2.78Z"/>
  <path class="st0" d="M2250.01,1401.97c-1.56-1.57,6.32-14.97,5.59-18.72s-12.07-9.59-9.59-13.23l141.97-98.03c-2.49,10.7,6.61,41.73.05,49.02l-138.02,80.96Z"/>
  <polygon class="st0" points="1557.98 1263.97 1610.99 1583.97 1528.1 1274.8 1528 1272 1557.98 1263.97"/>
  <path class="st0" d="M346,727.99l137.01-81.99c.06,15.43-8,19.65,6.99,31.95l-144,98.03v-48Z"/>
  <path class="st0" d="M1073,2045.98l-82.95-135.06c-.5-3.34-.15-3.15,2.96-2.98,5.94.32,12.16,5.21,17.54,3.76,3.77-1.02,6.8-8.58,10.38-7.71l98.09,138.01-2.03,3.99h-44Z"/>
  <path class="st0" d="M992.33,142.32c-2.41,3.85,3.17,16.33-3.18,15.57l-167.13-30.87c6.77-7.46,21.1-26.6,28.89-31.15,1.91-1.12,3.32-2.42,5.79-1.79l151.33,36.89c3.26,2.42,1.16,3.13-1.31,4.75-2.74,1.8-13.98,5.92-14.4,6.6Z"/>
  <polygon class="st0" points="1119.77 1186.21 1127.82 1212.82 1121.67 1216.66 808 1269.96 1119.77 1186.21"/>
  <polygon class="st0" points="654.98 1052.04 885.96 1214.99 879.11 1217.95 644.09 1082.87 640.82 1077.9 654.98 1052.04"/>
  <polygon class="st0" points="1161.99 1499.99 1159.03 1506.02 892.11 1577.9 884.16 1548.16 1161.99 1499.99"/>
  <polygon class="st0" points="1339.99 310.02 1177.03 541.98 1174.35 535.44 1310.16 298.13 1339.99 310.02"/>
  <path class="st0" d="M1849.49,1232.5l70.45,262.75c3.16,7.13-28.7,14-29.93,12.75l-48-278,7.48,2.5Z"/>
  <path class="st0" d="M2081.97,995.99c-2.13,1.59-15.76-8.47-18.6-10.37-65.24-43.44-137.84-92.75-200-140-1.97-1.5-16.43-10.93-13.36-13.62l14.08,2.9,227.94,132.11,1.73,3.61-11.79,25.37Z"/>
  <path class="st0" d="M1843.85,472.15l8.16,29.84-278,48c-1.5-8.08,6.05-9.07,11.98-11,79.4-25.88,166.33-40.23,246.32-65.67l11.55-1.17Z"/>
  <path class="st0" d="M1423.96,1751.98c-4.49-3.51-28.56-11.46-27.76-16.68l160.8-229.27,3.17,6.99-136.21,238.97Z"/>
  <path class="st0" d="M843.98,539.99l48.01,277.99-6.93-2.05-70.72-263.38c-.27-5.78,24.16-10.22,29.64-12.56Z"/>
  <path class="st0" d="M1864.23,1126.21l113.64-79.19-76.38-109.67c-4.04-3.65,4.15-11.92,7.28-11.26l97.14,114.91-127.95,104.09c-3.06,1.11-15.92-15.11-13.73-18.86Z"/>
  <polygon class="st0" points="1348.26 1661.7 1246.06 1534.86 1263.01 1520.19 1345.26 1633.72 1457.9 1556.76 1465.08 1566.02 1353.99 1660.99 1348.26 1661.7"/>
  <path class="st0" d="M1385.96,386.01l101.04,126c5.37,4.65-13.14,16.23-15.74,15.72l-82.25-113.39-109.1,76.65c-5.8,3.29-9.11-2.71-9.59-7.71l115.64-97.27Z"/>
  <path class="st0" d="M871.99,921.95l-113.87,79.32,76.98,112.74c1.06,2.89-6.37,9.19-9.74,7.79l-95.2-114.57,128.58-102.98,13.25,17.7Z"/>
  <polygon class="st0" points="943.99 1300 920.83 1440.12 1055.98 1464 1056.01 1475.99 904.04 1463.93 920.3 1301.29 923.25 1298.13 943.99 1300"/>
  <path class="st0" d="M1808,1487.99l-165.12-17.87,1.13-22.14,139.98,24.02,24.25-135.75c3.74-.76,10.06-1.26,11.51,3.03l-11.76,148.72Z"/>
  <polygon class="st0" points="1830.01 583.98 1814.01 750 1792.04 747.94 1813.89 608.09 1677.99 583.97 1680.11 572.11 1830.01 583.98"/>
  <polygon class="st0" points="1094 578 1092.01 600 952.02 575.98 927.58 710.57 924.85 713.76 916.24 711.75 928.11 562.11 1094 578"/>
  <path class="st0" d="M1578.01,533.98l5.4-12.1,233.99-109.6,3.58,1.68c1.34,6.62,11.11,24.04,5.04,29.07l-248.01,90.95Z"/>
  <path class="st0" d="M870,1220.01c3.5,3.45-9.67,8.6-11.99,7.13-72.63-28.72-147.8-51.21-220.51-79.65-3.96-1.55-23.1-7.85-23.29-10.46l14.75-26.78,241.04,109.76Z"/>
  <path class="st0" d="M2107.85,937.86l-243.84-110.86c3.68-4.1,9.07-6.06,14.48-4.62l241.4,88.86-12.04,26.62Z"/>
  <path class="st0" d="M1168.02,527.99l-3.21-12.03,87.21-243.96c1.85-1.62,30.4,10.89,29.16,16.09l-113.16,239.9Z"/>
  <polygon class="st0" points="875.98 813.99 866.92 810.07 753.99 572.03 783.06 562.27 875.98 813.99"/>
  <polygon class="st0" points="1155.99 1515.99 1153.56 1524.54 916.96 1637.77 906.05 1610.86 909.2 1606.18 1155.99 1515.99"/>
  <path class="st0" d="M1564.02,1521.99c5.87,2.85,7.15,10.11,4.64,15.6l-87.94,238.24c-4.47,1.5-27.47-8.82-25.99-15.9l109.28-237.94Z"/>
  <path class="st0" d="M1979.97,1477.93l-29.77,7.9-92.2-249.82c6.18-.4,11.79,3.03,14.41,8.57,30.46,68.7,64.89,135.65,95.94,204.06,1.94,4.28,12.95,27.4,11.61,29.3Z"/>
  <polygon class="st0" points="1580 450.02 1565.74 473.71 1560.05 472.96 1342.02 319.03 1351.89 317.07 1580 450.02"/>
  <polygon class="st0" points="1114 469.98 1118.01 497.98 850.01 543.98 853.5 535.99 1114 469.98"/>
  <path class="st0" d="M1391.99,1731.96c-6.22,2.71-9.97-.99-15.33-3.66-63.53-31.56-139.65-80.89-201.25-118.73-6.35-3.9-21.44-9.67-17.9-17.02,1.31-2.72,12.66-18.3,14.6-17.79l219.89,157.19Z"/>
  <polygon class="st0" points="839.99 1273.98 885.01 1541.93 878.43 1536.55 811.97 1279.01 839.99 1273.98"/>
  <path class="st0" d="M663.97,1049.99c-1.1.73-7.54-5.19-5.21-8.04l136.22-229.89,22.84,16.92-153.86,221.01Z"/>
  <polygon class="st0" points="1883.7 1511.7 1623.16 1580.05 1617.89 1553.31 1883.04 1504.02 1883.7 1511.7"/>
  <path class="st0" d="M1921.95,769.89l-27.94,4.09-46-265.98,6.93,2.05c23.57,86.2,45.81,172.98,67.01,259.84Z"/>
  <path class="st0" d="M1941.9,1235.9c-3.79,2.66-20.71-11.77-23.75-15.16l.78-2.66,154.04-218.07,2.72,6.5-133.79,229.39Z"/>
  <polygon class="st0" points="2315.72 656.27 2381.99 833.98 2362.27 824.72 2280.29 658.64 2283.11 654.12 2315.72 656.27"/>
  <polygon class="st0" points="1558.02 2039.98 1565.4 2019.85 1729.93 1938.88 1737.05 1939.97 1734.01 1972.99 1558.02 2039.98"/>
  <path class="st0" d="M786.01,1877.95c-.93-5.18.72-3.08,2.83-4.15,2.86-1.45,13.22-5.52,15.86-5.28l174.05,59.71c1.73,1.17,3.75,1.96,3.16,4.61-.39,1.77-23.76,23.45-28.4,20.83l-167.5-75.71Z"/>
  <polygon class="st0" points="1950 173.97 1927.96 179.18 1754.52 120.43 1752.02 117.03 1778.64 94.31 1950 173.97"/>
  <path class="st0" d="M998,81c.22-1.34,2.19-4.14,3.45-5.1l176.55-65.88-8.53,19.46-171.47,82.52c1.11-9.52-1.52-21.94,0-31Z"/>
  <path class="st0" d="M454,1393.98h-31c-.89,0-4.4-2.15-4.99-3.52l-63.99-176.48,17.76,9.22,81.1,162.89,1.11,7.89Z"/>
  <path class="st0" d="M2272.02,1409.99c2.38-1.73,18.79,15.04,21.02,17.95,1.92,2.51,4.66,4.54,4.02,8.25l-78.06,169.75c-1.94,0-8.87-16.94-6.61-20.43l59.63-175.53Z"/>
  <path class="st0" d="M514.02,442c2.32-1.71,10.27,16.61,9.17,20.04l-62.19,177.91c-5.3-7.47-24.57-19.05-22.69-28.46l75.71-169.49Z"/>
  <path class="st0" d="M1833.98,835.99l-154.95,219.99-2.16-6.08c37.36-63.97,75.01-127.78,112.19-191.86l44.93-22.05Z"/>
  <polygon class="st0" points="1535.47 1446.52 1555.99 1490.99 1553.03 1491.96 1339.28 1341.71 1336.01 1333.99 1345.44 1335.55 1535.47 1446.52"/>
  <polygon class="st0" points="900 1211.97 1055 992.03 1057.98 998.92 945.71 1190.7 900 1211.97"/>
  <polygon class="st0" points="1398 715.98 1390.89 714.1 1199.41 602.11 1180.02 555.99 1398 709.11 1398 715.98"/>
  <path class="st0" d="M1611.99,825.99l-7.77-.22-56.13-217.06c2.79-16,11.33-30.97,15.93-46.69l47.96,263.98Z"/>
  <path class="st0" d="M904.01,827.96c-.48-2.81,3.55-2.91,5.55-3.39,81.1-19.53,170.26-25,252.03-44.13,9.39-1.91,11.97,6.04,2.02,8.15l-210.84,55.33-48.76-15.96Z"/>
  <polygon class="st0" points="1129.86 1222.09 1187.42 1441.29 1168.99 1487.97 1124.01 1221.97 1129.86 1222.09"/>
  <path class="st0" d="M1830,1220c1.61,5.54-5.66,4.45-9.65,5.32-71.66,15.69-171.51,35.13-243.62,42.4-3.59.36-7.16.44-10.75.25l1.18-6.17,218.2-57.26,44.62,15.47Z"/>
  <path class="st0" d="M1858.26,852.25c3.51-2.04,18.83,9.77,21.65,12.83,1.61,1.75,3.54,2.22,1.17,4.95l-180.04,177.94c-3.19-.63-2.47-2.89-1.42-5.34,1.3-3.01,7.8-10.33,10.44-13.6,48.11-59.85,101.59-115.71,148.21-176.78Z"/>
  <polygon class="st0" points="1035.99 1002 875.96 1197.97 873.09 1197.91 853.88 1181.02 1027.91 1004.9 1035.99 1002"/>
  <path class="st0" d="M1114,1243.98h5.99c7.41,83.49,13.41,167.65,22.06,250.91.04,1.47-28.04,7.41-28.04,2.09v-253Z"/>
  <path class="st0" d="M1586,1277.98c-.62-6.65,10.11-7.46,15.03-7.97,13.15-1.37,28.56-.81,41.96-2.04l195.98-18.02,3.03,28.03h-256Z"/>
  <polygon class="st0" points="1147.99 770 1147.11 776.1 905.02 798.09 895.78 796.83 891.97 773.02 1147.99 770"/>
  <path class="st0" d="M1620.01,549.98l-1,255.96-5.09-3.29c-4.59-83.59-14.64-167.12-19.92-250.67l26.02-2.01Z"/>
  <polygon class="st0" points="1211 510.04 1388.03 686.96 1388 693.01 1194.48 531.02 1211 510.04"/>
  <path class="st0" d="M1347.04,1355.98l191.1,158.88c6.71,3.52-11.93,22.72-13.42,22.98l-178.73-176.85,1.05-5.01Z"/>
  <path class="st0" d="M1477.99,1295.97l-205.2-19.78c-5.64.29-1.57-7.03-.49-9.91l192.7-.29c6.52.3,14.66,28.31,12.99,29.99Z"/>
  <path class="st0" d="M1125.66,1125.66l-29.65,10.32,20.01-209.99c3.71,1.92,9.64,1.76,10.01,6.97l-.37,192.7Z"/>
  <polygon class="st0" points="1609.29 1124.3 1637.96 1136.99 1477 1271.95 1472.3 1264.62 1473.83 1260.94 1609.29 1124.3"/>
  <path class="st0" d="M1237.99,770c1.12,5.78-1.67,3.19-4.39,4.51-72.15,34.97-145.46,67.57-217.59,102.62-8.31,2.28-28.02-9.45-36.01-14.14l257.98-92.98Z"/>
  <path class="st0" d="M1753.99,1184.02l-257.98,95.96c-3.67-3.04,11.62-8.91,13.27-9.72,70.12-34.48,142.35-65.02,212.59-99.3l32.12,13.05Z"/>
  <polygon class="st0" points="1120 1132.01 1129.02 1128.53 1267.1 1266.04 1254.98 1293.98 1120 1132.01"/>
  <polygon class="st0" points="1641.97 1111.98 1638.07 1109.09 1720.38 879.37 1753.98 863.99 1641.97 1111.98"/>
  <path class="st0" d="M1098,913.96l162.06-135.06,3.01,7.12-133.98,136.08c-9.05,5.36-21.64-6.65-31.1-8.14Z"/>
  <path class="st0" d="M1097.99,936l-83.51,233.47c-2,4.77-33.1,15.81-34.47,14.51l117.98-247.97Z"/>
  <path class="st0" d="M1115.97,1153.99l103.09,219.93c4,13.47-8.92,24.95-11.09,38.05l-95.16-253.83-.85-3.13,4-1.02Z"/>
  <path class="st0" d="M1529.97,638l92.01,257.99c-4.84-3.05-7.25-10.24-9.7-15.28-33.48-69.07-64.16-139.57-97.43-208.76-1.3-5.69,7.69-24.69,10.96-31.11,1.07-2.09-1.05-3.77,4.15-2.84Z"/>
  <path class="st0" d="M1528,1411.96l-243.4-111.58-4.59-6.39,231.39,83.59c9.85,5.85,11.13,24.48,16.6,34.38Z"/>
  <path class="st0" d="M1456,753.97c-3.45.63-6.24-.59-9.41-1.57-74.52-23.01-148.53-57.02-223.11-80.89-6.39-1.35-16.75-33.88-15.46-35.52l247.98,117.98Z"/>
  <path class="st0" d="M1483.74,756.28l130.26,161.69-11.07.18-133.08-133.09c-3.73-3.94,4.72-23.95,7.2-27.02,2-2.47,3.77-2.7,6.69-1.76Z"/>
  <path class="st0" d="M1464,781.99h-189c-.84,0-3.36,2.84-5.57,1.79-4.44-1.03-12.04-21.93-13.22-27.03-.89-3.84.07-2.42,2.74-2.75,65.87,8.24,136.74,7.97,202.03,18,7.28,1.12,2.92,4.84,3.01,9.99Z"/>
  <path class="st0" d="M1637.99,913.98l-17.96,206.89c-.29,2.61-9.45,1.46-9.75-2.17-.61-59.89-.2-119.88-.18-179.81,0-5.43-3.78-13.6,1.43-16.89,2.62-1.65,25.09-9.35,26.46-8.02Z"/>
  <polygon class="st0" points="1612.01 1285.97 1615.99 1523.99 1610.05 1523.97 1587.9 1292.89 1588.86 1287.85 1612.01 1285.97"/>
  <path class="st0" d="M1895.99,1203.97c-.22.27-5.89,2.07-6.95.17l-178.89-149.44c4.66-6.84,14.37-22.42,22.84-12.7,41.88,41.43,83.8,82.88,125.95,124.03,10.4,10.15,23.52,19.37,33.06,30.94,1.2,1.46,5.87,4.74,3.98,6.99Z"/>
  <path class="st0" d="M1545,496.03l2.18,6.1-149.2,178.98c-3.99,2.06-19.16-13.11-17.1-17.1l164.12-167.97Z"/>
  <path class="st0" d="M1866.01,776l-.02,5.94c-78.44,8.33-157.41,14.4-236,22.06v-24.02s236.02-3.98,236.02-3.98Z"/>
  <path class="st0" d="M1085.58,1246.58c4.56-.21,16.93-2.47,19.54,1.28l.59,18.85-4.72,3.28c-63.99,1.78-128.1.58-192.09,1.91-6.4.13-39.42,6.15-40.91-.95-.59-2.83,2.35-4.83,5-4.96,70.45-3.38,142.41-16.23,212.58-19.42Z"/>
  <polygon class="st0" points="840.01 844 1023.08 991.96 1024.12 994.96 1010.03 1011.07 1003.02 1007.97 842.91 852.08 840.01 844"/>
  <path class="st0" d="M1337.41,1368.2c4.71-1.26,16.67,11.69,16.66,14.78l-1,2.96-164.04,166.03-1.41-5.33,149.79-178.44Z"/>
  <path class="st0" d="M1125.83,526.2l20.18,235.81h-24.02c-1.73-64.96-.5-130.12-1.91-195.09-.25-11.49-3.53-23.46-2.18-36.02.77-7.18,1.82-7.31,7.93-4.7Z"/>
  <path class="st0" d="M1957.99,776c1.09,5.71-1.52,3.22-4.36,4.53-55.83,25.62-114.23,47.22-170.48,71.61l-2.05-4.14-145.05,61.05c-10.98,6.08-13.24-11.53-5.51-15.67l327.45-117.38Z"/>
  <path class="st0" d="M1124.02,1617.98l136.17-325.78,9.8.79c7.3,4.79,2.71,12.17.35,18.34-48.3,97.41-90.9,197.7-138.63,295.36-1.87,3.83-3.57,9.45-7.69,11.29Z"/>
  <path class="st0" d="M1615.99,1613.97c-5.32,1.01-3.48-1.12-4.89-4-25.92-53.02-44.67-112.41-70.33-165.9l-.91-2.99,3.92-3.76-61-145.29c-2.92-9.08,8.56-12.67,14.15-5.98l119.05,327.91Z"/>
  <path class="st0" d="M1534.55,608.51l-60.65,149.42c-9.07-.24-14.4-1.83-13-11.99l149.08-313.95-70.19,174.88-5.25,1.63Z"/>
  <path class="st0" d="M1120.02,434.01l73.15,167.97-.31,13.98,60.28,146.11c-14.34,10.07-15.88-.39-20.62-11.59-38.37-90.73-74.87-201.23-106.55-295.45-2.3-6.85-5.3-13.75-5.94-21.03Z"/>
  <path class="st0" d="M1960,1267.97l-173.53-69.31-5.79-8.32-145.81-60.31c-2.45-8.88,4.58-14.89,13.18-11.1,95.48,46.6,193.05,89.05,288.66,135.35,7.63,3.69,17.71,7.54,23.28,13.7Z"/>
  <path class="st0" d="M949.97,857.94l148.78,59.84c4.19,7.05.19,13.37-7.77,13.29-100.7-47.7-203.48-92.38-303.69-141.38-3.83-1.87-9.45-3.57-11.29-7.69l175.16,69.87-1.19,6.06Z"/>
  <path class="st0" d="M1105.39,1155.38l-327.39,116.59c2.78-4.27,9.95-6.19,14.66-8.32,43.5-19.67,104.77-49.19,148.81-63.21,8.16-2.6,11.18-.18,18.08-1.73l142.38-59.88,7.71,8.47-4.25,8.07Z"/>
  <path class="st0" d="M1112,1138.01l6.84,4.14,124.15,173.96c3.31,4.51-7.51,29.24-10.02,29.87l-120.97-207.97Z"/>
  <path class="st0" d="M1468,765.97l-220.57-36.4-13.37-26.6,6.02-2.11c71.53,23.95,150.2,36.75,221.2,60.86,2.62.89,6.1.59,6.73,4.25Z"/>
  <path class="st0" d="M1621.98,911.99c-46.29-57.89-86.18-120.97-131.02-180.11-2.6-4.45,10.17-29.86,12.04-29.85l118.98,209.96Z"/>
  <path class="st0" d="M1253.99,770c.68,4.56-6.09,7.14-9.36,9.63-55.49,42.2-114.98,79.48-170.74,121.37l-27.79-9.15.12-5.63,207.76-116.22Z"/>
  <path class="st0" d="M1689.99,1158.02l-209.99,119.95,178.53-128.48c10.08-4.4,21.45,6.64,31.46,8.53Z"/>
  <path class="st0" d="M1691.99,892l-65.97,231.98,36-220.52c.94-2.49,28.36-12.96,29.98-11.47Z"/>
  <path class="st0" d="M1110,926.01l-37.94,220.58-28.05,11.39.48-8.5c20.63-67.36,35.75-136.49,56.08-203.92,1.47-4.89,2.74-11.13,4.53-15.57,1.29-3.2-.21-4.9,4.9-3.98Z"/>
  <path class="st0" d="M1499.99,1347.97c-72.55-19.66-146.64-36.25-218.42-58.55-3.77-1.17-14.91-2.14-13.55-7.44l218.08,36.9c5.73.11,15.08,27.93,13.89,29.09Z"/>
  <polygon class="st0" points="1520.21 953.84 1442.96 843.9 1448.03 826 1547.95 943 1520.21 953.84"/>
  <path class="st0" d="M1182.01,954c1.07-1.23,28.62,10.74,26.1,16.87l-21.01,123.21c-1.24,9.86-9.35,9.38-16.11,13.85l-3.05-4.89,14.07-149.05Z"/>
  <path class="st0" d="M1565.99,941.99l-14.98,152.01-25.16-11.26,22.6-131.31c.54-4.37,15.72-11.35,17.54-9.44Z"/>
  <path class="st0" d="M1188,1104.01l23.39-7.64,6.58,4.65,73.02,103.08c3.29,3.34-3.6,19.92-5.99,19.84l-97-119.93Z"/>
  <path class="st0" d="M1285,844.03c2.13-.02,12.2,24.63,10.09,27.94l-107.7,76.58c-5.19,2.52-11.37-2.41-16.46-4.49l3.04-7.1,111.03-92.93Z"/>
  <path class="st0" d="M1290.49,841.49c-2.68-2.47-4.07-11.85-6.49-15.48l149.01,11.97,4.94,3-13.12,24.66-134.34-24.15Z"/>
  <path class="st0" d="M1549.48,1100.28c5.83-1.06,11.03,2.58,15.55,5.69,1.41,1.95-2.51,4.58-3.98,6.06-24.43,24.56-71.73,62.59-100.1,83.9-2.8,2.1-10.16,9.3-13.01,7.11l-8.15-26.12,109.69-76.64Z"/>
  <path class="st0" d="M1449.99,1223.97c-45.36-6.06-91.54-6.71-136.97-12-3.46-.4-8.77-1.2-12.02-2.03-2.29-.59-3.62,1.53-3.01-2.94l10.32-22.68,134.31,22.06,7.37,17.61Z"/>
  <path class="st0" d="M1143.74,930.29c1.11,1.4-.56,5.63.53,7.37,2.43,3.9,14.08-1.92,15.73,13.29,5.22,48.1-3.97,105.05.1,154.13.02,4.57-2.48,8.23-7.1,8.99l-5-5.09-13.99-180.99c.33-.38,9.42,1.9,9.73,2.29Z"/>
  <path class="st0" d="M1272,1257.97c-2.59-10.76,5.66-8.25,8.96-12.03s1.32-12.25,10.09-13.91l159.99-.08c5.11.27,4.67,5.48,6.84,9.07l-185.88,16.95Z"/>
  <polygon class="st0" points="1313.82 894.15 1317.93 906.81 1312.01 910.96 1320 925.96 1228.52 967.66 1202.01 957.96 1313.82 894.15"/>
  <path class="st0" d="M1346.23,624.22l145.86-101.3c9.93-.44,9.15,7.7,1.92,12.1l-130.06,108.05c-6.24,4.71-19.8-15.29-17.73-18.85Z"/>
  <path class="st0" d="M1599.99,929.97c-3.51,4.71-11.67-1.11-13.03-1.21-3.95-.3-12.75,8.75-18.03,3.39l-113.09-113.08c-7.16-25.81,24.02,5.09,32.19,11.9,34.25,28.52,76.51,61.6,108,92,1.52,1.46,5.61,4.8,3.96,7.01Z"/>
  <path class="st0" d="M1236.01,1078.02c8.68-2.79,11.88-7.18,18.97,1.52l12.05-7.49,42.61,89.44c2.5,4.53-8.34,28.47-10.63,28.46l-62.99-111.92Z"/>
  <path class="st0" d="M1389.99,1423.95l-148.02,103.12c-3.47,1.21-7.81-5.87-5.04-9.05l137.8-113.88,15.27,19.81Z"/>
  <path class="st0" d="M873.78,892.15l114.14,138.83-18.66,14.73c-36.2-48.38-70.34-99.09-105.16-148.76l9.68-4.81Z"/>
  <path class="st0" d="M1437.96,860l60.03,111.97-12.88,4.16-4.2-6.11-12.27,5.75-3.6-1.79-40.5-89.28c.62-4.3,8.73-27.94,13.43-24.68Z"/>
  <polygon class="st0" points="1422 892.01 1417.8 905.78 1408.24 906.23 1404.99 918.01 1401.41 919.7 1309.37 886.13 1298 860.01 1422 892.01"/>
  <path class="st0" d="M1142.97,1116.73c1.55.15,3.45,3.07,6,3.19,5.37.25,8.66-7.6,18.14-2.03l112.51,113.5c1.67,5.54.03,13.33-6.26,8.24l-137.37-118.58c.33-1.43,5.31-4.48,6.97-4.32Z"/>
  <path class="st0" d="M1247.99,983.98l15.95,4.96-38.04,95.95-23.89,9.09,32.35-120.62c2.83-6.81,9.15-.16,13.75,1.67l-.13,8.96Z"/>
  <path class="st0" d="M1531.99,956l-32.08,121.94c-17.93,1.66-9.78-17.41-27.91-15.96l34.23-94.75,25.76-11.22Z"/>
  <path class="st0" d="M1093.95,761.95c-6.57-.66-14.59-.94-20.97-1.99-2.85-.47-3.28,1.4-3.01-2.95l31.54-176.5c-.06-3.45,3.75-3.23,5.47-2.49,5.18,2.22,2.51,16.01,2.99,20.97l-16.02,162.97Z"/>
  <path class="st0" d="M1103.77,1298.2l-2.93,23.87-175.49-30.45c-5.05-1.23-4.46-10.52-.45-11.14l178.86,17.72Z"/>
  <path class="st0" d="M1531.99,1090.01c.69,4.07-2.58,5.68-5.33,7.65-23.14,16.52-66.95,38.87-93.32,52.68-3.46,1.81-7.06,3.37-10.38,5.45-1.35-.61-1.98-1.83-2.73-3.01-3.3-5.16-6.21-12.13,1.48-13.04l-5.72-17.72,89.52-39.66,26.48,7.67Z"/>
  <path class="st0" d="M1427.5,1164.48c2.02,6.85,6.61,14.15,8.12,20.91.66,2.95,1.63,5.37-2.57,4.58l-114.21-31.82c-9.5-2.9-1.94-9.98-.72-16.15l7.97,1.18,4.07-13.04c4.24-2.97,85.66,30.57,97.33,34.35Z"/>
  <path class="st0" d="M1811.61,758.36l.18,9.44-178.49-16.09c-7.11-2.21,1.02-17.6-1.31-23.72l179.62,30.38Z"/>
  <path class="st0" d="M1860.34,1155.59l-111.42-135.71c-2.16-6.19,11.96-13.93,16.1-17.68l103.42,146.37c4.15,6.29-2.64,8.92-8.09,7.03Z"/>
  <polygon class="st0" points="1663.79 1290.18 1633.9 1469.87 1623.99 1469.99 1639.99 1287.97 1663.79 1290.18"/>
  <polygon class="st0" points="1311.37 1520.22 1314 1520.85 1347.2 1581.83 1405.04 1556.24 1411.84 1570.68 1341.27 1609.87 1296.21 1528.94 1311.37 1520.22"/>
  <path class="st0" d="M865.83,954.14l6.01,17.59-61.84,30.29,25.77,59.33c.94,3.97-12.43,8.3-13.8,7.71-2.22-1.84-4.02-4.03-5.63-6.41-9.25-13.71-24.26-41.38-31.41-56.57-1.48-3.15-3.68-6.16-2.79-9.93l83.69-42.01Z"/>
  <path class="st0" d="M1799.81,628.19l-24.79,87.82c-4.67,5.7-13.05-2.43-18.91-2.14l19.71-69.7-59.84-22.21,3.86-12.63c1.95-2.9,4.81-2.44,7.77-2.04,22.26,3.03,49.49,16.44,72.19,20.89Z"/>
  <path class="st0" d="M960.02,1329.98c6.73,1.23,18.09,2.8,18.12,10.93.04,14.69-17.82,45.52-19.97,61.92,1.13,5.22,51.99,17.86,57.88,24.16,3.66,3.92.75,11.81-3.33,14.79l-78.54-22.96,25.84-88.84Z"/>
  <path class="st0" d="M1055.8,635.84l-66.49-19.65-24.31,57.89-3.6,1.6-11.55-4.99,23.4-78.56,86.77,24.86c4.78,3.15-3.83,14.53-4.22,18.84Z"/>
  <path class="st0" d="M1674.08,1431.9l6.85-19.45,67.05,21.54,22.28-59.75c3.36-2.09,13.11,2.26,14.86,5.76l-23.04,77.05-88-25.15Z"/>
  <path class="st0" d="M1463.99,792c1.25,8.27-6.35,7.29-8.96,9.95-3.57,3.64-2.28,13.49-10.08,13.99l-163.61.13c-2.68-3.19-6.39-8.82-.34-10.01,3.95-.78,9.95-1.63,14.01-2.05,46.97-4.87,101.1-9.95,148.01-11.99,6.98-.3,14.01.14,20.97,0Z"/>
  <path class="st0" d="M1150.01,935.97l120.99-143.94c8.1,5.93,1.34,8.74,1.14,12.89-.26,5.35,7.39,12.36,1.99,18.17l-113.06,113.06-11.06-.18Z"/>
  <path class="st0" d="M1395.76,440.25l42,79.12c.43,4.62-14.68,11.89-18.78,6.65l-29.3-57.76-57.15,23.46c-7.62,1.11-13.69-13.39-5.25-17.46,19.99-7.88,40.13-24.57,59.27-32.7,2.94-1.25,5.99-2.42,9.2-1.32Z"/>
  <path class="st0" d="M1599.99,1119.98c-8.54,2.11-6.25-5.47-9.35-8.13-3.8-3.26-14.06-2.19-14.67-8.83l1.01-165.05,6.03-3.93c2.72.08,4.66,14.03,4.96,16.98,4.93,48.65,8.95,101.16,12.01,149.99.4,6.3-.19,12.69.01,18.97Z"/>
  <path class="st0" d="M1870.03,1095.99l-7.18-18.05,61.31-31.22-24.16-59.91c-.63-3.87,10.33-7.15,12.61-6.58,4.91,1.22,36.89,60.88,39.22,70.45l-81.79,45.32Z"/>
  <path class="st0" d="M1462.01,1255.97c-4.06-5.82,1.8-9.57,1.64-12.65-.24-4.5-9.29-10.82-3.79-16.41l113.03-113.03,9.14-.93c3.67,2.78,1.34,3.58.11,6.16-2.05,4.3-10.5,13.34-14.19,17.82-28.61,34.78-62.28,76.9-92.92,109.08-1.95,2.04-10.56,11.93-13.01,9.96Z"/>
  <path class="st0" d="M1395.03,1428.48l96.94,114.51-18.97,16.97-85.53-120.57c-3.64-5.64,2.8-8.97,7.56-10.91Z"/>
  <path class="st0" d="M1901.76,921.76l-125.5,83.95-3.36-11.74,114.11-93.94c2.15,5.71,17.89,16.36,14.75,21.74Z"/>
  <path class="st0" d="M1088,1479.99l-24.01-2,25.86-149.14c3.64-1.59,10.35-2.11,11.87,2.43l-13.72,148.72Z"/>
  <path class="st0" d="M832.01,1128.02l120.1-83.07c5.21-2.91,8.91,2.52,11.74,6.31l-113.89,95.78c-1.62,1.28-2.36,1.13-3.99.06-1.04-.68-14.83-17.8-13.95-19.08Z"/>
  <polygon class="st0" points="1261.17 490.09 1349.79 613 1339.29 619.68 1244.88 507.98 1244.89 504.01 1261.17 490.09"/>
  <polygon class="st0" points="1063.95 746.04 1061.98 760 911.99 745.99 914.01 720 1063.95 746.04"/>
  <polygon class="st0" points="1821.89 1304.09 1819.73 1327.71 1817.01 1328.18 1670.5 1301.08 1672.03 1290.01 1821.89 1304.09"/>
  <path class="st0" d="M1671.94,572.1l-28.82,149.36-10.63-4.37,13.5-147.11c8.73.15,17.63-1.08,25.95,2.12Z"/>
  <path class="st0" d="M1473.99,980l-33.95,75.15-36.05-13.2c12.3-21.67,16.87-39.58,46.01-39.98l-1.15-12.08,25.14-9.9Z"/>
  <path class="st0" d="M1404.01,1009.98c1.74-10.67-8.93-27.4-7.98-36.92.56-5.57,15.09-20.48,11.91-24.98l-7.88-2.18,10.94-27.87,29.01,75.04c-.07,6.28-29.53,14.59-36,16.91Z"/>
  <polygon class="st0" points="1339.89 952.06 1352.01 987.98 1317.13 995.93 1293 982.03 1285.07 992.06 1262.04 980.99 1339.89 952.06"/>
  <path class="st0" d="M2388,762.99c-.19.74-3.43,3.57-3.98,3l-30.02-112h31l3,3v106Z"/>
  <path class="st0" d="M1383.43,1080.53c3.68,4.49,5.51,21.05,6.59,27.45l11.86-3.96,10.11,25.95-75.95-32.1,13.99-35.89c1.53-1.15,32.19,17.07,33.4,18.54Z"/>
  <path class="st0" d="M1330.01,1006.01c1.34,1.46-15.99,31.76-18.95,34.04-5.22,4.02-25.96,6.55-27.05,7.96,12,15.83-12.73,14.04-21.99,21.98l32.17-75.85,35.82,11.87Z"/>
  <path class="st0" d="M1329.91,1040.04c.48,9.47,9.68,26.83,9.2,34.99-.32,5.5-10.15,16.76-12.92,22.27l.7,2.74c12.07,2.49,3.76,19.66-.42,27.41-1.27,2.35.04,3.35-4.45,2.54l-27.57-75.07c.5-3.23,32.99-16.65,35.45-14.87Z"/>
  <path class="st0" d="M1332.16,943.84c-1.11-.79-9.5-23-7.17-25.84l71.04,32.98c2.23,1.5,2.03,3.16,1.68,5.51-.27,1.84-11.57,28.04-12.72,29.48-2.7,3.38-1.95,1.05-3.99.06-3.79-1.83-27.4-15.38-28.98-17.07-4.36-4.65-4.2-23.26-7.93-26.18l-11.92,1.05Z"/>
  <path class="st0" d="M1443.97,1065.99l2.22-7.82c2.65-1.85,19.92,5.23,23.25,7.31,2.06,1.29,3.5-.1,2.55,4.48l-75.05,27.75-14.95-35.7c9.98.49,28.56-10.08,37.02-9.15,3.99.44,21.77,15.53,24.95,13.13Z"/>
  <polygon class="st0" points="1108 4 1105.47 8.48 998 38 998 4 1108 4"/>
  <path class="st0" d="M2273.96,1561.97c-1.15,1.01-5.33.52-3.87-2.87l55.15-97c4.99-1.32,25.01,20.31,24.61,22.61l-75.89,77.26Z"/>
  <path class="st0" d="M463.99,488.01c-4.95,10.38-51.28,101.26-56.87,99.91-1.67-.4-24.32-21.43-20.19-25.88l77.06-74.03Z"/>
  <path class="st0" d="M976.25,1393.74c-2.68-4.23,14.86-37.48,18.71-43.56l38.87,19.12-19.14,40.52-38.44-16.08Z"/>
  <path class="st0" d="M881.66,944.36l56.13,94.96c.51,5.13-15.36,9.46-19.14,12.38l-48.33-101.07c-.46-4.81,7.55-8.48,11.34-6.27Z"/>
  <path class="st0" d="M1073.91,1338.06c.8,7.13-1.1,14.54-3.74,21.09-.78,1.93,1.15,3.64-3.04,2.77l-105.03-38.04,2.09-11.73,109.72,25.91Z"/>
  <path class="st0" d="M1068.25,620.26l9.86.63,1.82,5.84-27.86,104.43c-2.46,1.72-22.34-2.37-22.1-8.07l38.28-102.83Z"/>
  <path class="st0" d="M1023.97,691.99l-41.84-18.16,18.78-41.37c5.9,2.87,37.78,15.39,38.88,18.87,2.12,6.71-14.57,31.87-15.82,40.66Z"/>
  <polygon class="st0" points="1333.99 1518 1374.75 1504.12 1391.14 1546.06 1349.98 1561.14 1333.99 1518"/>
  <path class="st0" d="M1385.75,488.25l14.06,40.43-41.78,17.32-13.87-42.75c.76-2.51,38.64-16.85,41.6-15Z"/>
  <path class="st0" d="M1290.3,1521.78l-4.13-8.55,97.88-58.36c3.41,4.04,13.39,17.85,7.94,22.1l-101.69,44.81Z"/>
  <path class="st0" d="M1760,656.02l-18.09,41.94-41.91-15.99c1.58-5.94,18.09-43.55,20.97-43.77l39.04,17.82Z"/>
  <path class="st0" d="M1819.9,998.08l43.31,97.85c2.41,5.76-1.64,8.04-6.57,9.82l-58.28-95.24-.23-4.37,21.77-8.06Z"/>
  <polygon class="st0" points="873.82 992.17 887.81 1033.8 844.12 1047.91 829.99 1006.01 873.82 992.17"/>
  <path class="st0" d="M1710.17,1358.13c2.32-1.66,40.41,15.41,41.63,19.19,1.25,3.87-14.2,37.65-17.11,38.5l-40.55-19.03,16.03-38.65Z"/>
  <path class="st0" d="M1903.93,1043.91l-40.77,13.91-17.16-41.8c8.81-1.26,36.03-15.89,42.66-13.82,3.83,1.2,17.18,39.51,15.27,41.71Z"/>
  <path class="st0" d="M1660.16,709.82l6.8-23.77,104.82,41.19c.88,3.65,1.07,10.67-4.33,10.41l-107.29-27.83Z"/>
  <polygon class="st0" points="1703.84 1322.15 1665.82 1429.83 1654.92 1426.08 1681.56 1320.53 1684.94 1316.45 1703.84 1322.15"/>
  <path class="st0" d="M1439.48,528.27c7.5-1.1,12.16,8.31,4.43,12.64l-92.65,52.98c-1.11-.23-1.54-1.2-2.27-1.89-1.58-1.5-11.37-17.32-7.02-18.99l97.51-44.74Z"/>
  <polygon class="st0" points="1903.98 122 1804.03 65 1827 42.04 1903.98 122"/>
  <polygon class="st0" points="1738 2011.98 1738 2043.98 1626 2043.98 1738 2011.98"/>
  <path class="st0" d="M830,1928c8.1,1.77,16.68,6.99,24.04,10.94,21.13,11.31,51.68,26.29,70.63,39.37,2.04,1.41,5.72,3.4,5.19,6.41l-22.58,21.12-77.27-77.83Z"/>
  <path class="st0" d="M380,1393.98h-32v-110c6.02,6.28,8.39,19.21,11,28,7.98,26.91,16.05,54.53,21,82Z"/>
  <path class="st0" d="M899.49,1044.32c8.51-1.48,13.3,7.61,8.54,12.66l-70.83,40.88-10.34-19.92,72.64-33.62Z"/>
  <path class="st0" d="M1690.17,598.15c1.91-1.35,21.92,3.08,21.54,8.44-11.27,20.81-16.42,54.71-28.1,74.01-3.68,6.08-10.94,2.42-15.34-1.55l21.9-80.9Z"/>
  <path class="st0" d="M1025.85,708.13l-2.89,15.9-83.03-23.19c2.87-5.49,3.21-13.09,5.58-18.34.97-2.16-.43-3.07,3.39-2.51l76.95,28.13Z"/>
  <path class="st0" d="M1347.74,563.74l-11.57,4.15-41.35-71.81c-.97-4.09,16.9-14.51,20.16-10.12,8.39,22.33,25.38,47.72,32.08,69.99.67,2.24,1.91,5.82.68,7.79Z"/>
  <path class="st0" d="M1065.94,1368.09l-20.95,81.92c-3.3,4.4-15.8-3.9-20.8-4.23l27.61-78.56,14.15.87Z"/>
  <path class="st0" d="M1399.85,1482.11l39.84,69.34c1.98,7.6-12.92,9.09-16.9,14.35l-36.43-75.29-.2-4.35,13.69-4.05Z"/>
  <path class="st0" d="M1794.01,1345.99l-4.06,21.95-4.93.1-77.17-29.28c.87-4,1.61-12.67,6.7-12.44l79.46,19.67Z"/>
  <path class="st0" d="M1899.84,952.12l7.93,17.22-1.79,3.6-71.94,32.24c-6,2.35-7.07-6.55-9.75-10.25l1.7-1.85c21.13-10.72,42.87-28.32,63.92-38.18,3.15-1.48,6.15-3.69,9.93-2.79Z"/>
  <path class="st0" d="M2310.01,615.98l22.38-64.6,4.56-3.37,20.91,22.7c-13.7,12.62-26.67,29.59-40.85,41.28-2.25,1.86-3.23,4.86-6.99,3.99Z"/>
  <path class="st0" d="M423.99,1433.99l-24.99,67.95c-3.82-5.45-22.39-18.46-20.79-24.56.7-2.67,34.09-35.54,38.78-39.4,2.25-1.86,3.23-4.85,6.99-3.99Z"/>
  <path class="st0" d="M2390,1371.98v32h-66c-.97-4.72.6-3.21,2.58-4.49,16.75-10.78,44.55-20.19,63.42-27.51Z"/>
  <path class="st0" d="M957.99,81.99l-67.98-24.98c5.27-3.01,17.59-23.76,22.72-22.87,12.63,13.7,29.58,26.67,41.28,40.85,1.86,2.25,4.85,3.23,3.99,6.99Z"/>
  <path class="st0" d="M1844,1989.99c1.23,1.38-11.83,17.02-13.93,19.05-2.46,2.38-4.61,5.86-8.67,4.73l-45.4-45.77,68,21.99Z"/>
  <path class="st0" d="M1746,2v66c-13.77-19.49-22.86-43.94-32-66h32Z"/>
  <path class="st0" d="M412,645.99l-65.98,32c2.47-10.57-6.55-23.4.98-32h65Z"/>
  <path class="st0" d="M1083.99,180.01c-.03,3.56.38,7.25-.17,10.81-1.08,6.99-35.5,55.18-42.14,61.86-1.35,1.36-1.66,4.06-4.54,3.26-2.74-3.16-10.63-7.41-8.26-11.92l55.11-64Z"/>
  <path class="st0" d="M1057.99,1799.99l.02,16-86,7.98c-.69-3.44,1.78-4.99,3.94-7.04,13.36-12.65,62.92-10.82,82.04-16.94Z"/>
  <path class="st0" d="M524.01,1307.99c7.38-.79,11.46-.15,17.87,3.11,17.55,8.92,36.54,29.58,54.26,39.76,5.1,4.94-2.74,14.07-8.03,12.21-18.37-16.46-42.66-31.14-60.14-48.05-2.15-2.08-4.67-3.51-3.96-7.02Z"/>
  <path class="st0" d="M2212,739.97c-6.98.03-12.58,1.04-19.16-1.82-4.69-2.04-48.4-34.6-52.88-39.11-1.98-1.99-5.23-3.71-3.08-7.03l8.12-7.93,67,55.89Z"/>
  <path class="st0" d="M592.01,713.98l-12.86,1.77-2.86-3.06-8.27-84.7c5.11,3.62,11.84,9.28,13.53,15.45,5.77,20.96,4.52,48.9,10.46,70.54Z"/>
  <path class="st0" d="M1764,226.02c-3.41,5.95-10.13,10.42-16.66,12.32-20.06,5.83-48.16,6.01-69.25,9.57l-2.1-13.89,88.01-7.99Z"/>
  <path class="st0" d="M1655.96,1867.96l-3.97-.99,1.52-16.48,43.49-58.48c3.45,4.16,11.31,7.69,8.06,13.93l-49.1,62.02Z"/>
  <path class="st0" d="M2157.98,1334l8,85.98c-3.76-2.64-9.76-7.29-11.46-11.52-3.75-9.38-9.52-53.44-10.48-65.54-.24-2.98-.08-5.99-.05-8.95l13.99.03Z"/>
</svg>