<?xml version="1.0" encoding="UTF-8"?>
<svg id="Layer_0_xA0_Image" xmlns="http://www.w3.org/2000/svg" version="1.1" viewBox="0 0 2732 2048">
  <!-- Generator: Adobe Illustrator 30.2.1, SVG Export Plug-In . SVG Version: 2.1.1 Build 1)  -->
  <defs>
    <style>
      .st0 {
        fill: #797961;
      }
    </style>
  </defs>
  <path class="st0" d="M922.09,1269.42c-7.97-9.17-12.6-19.85-15.32-31.27-1.51-6.32-3.68-13.73,3.4-18.19,6.42-4.04,12.05.09,17.34,3.74.27.19.59.33.82.56,15.9,16.01,35.9,19.47,57.16,18.02,16.59-1.13,33.11-3.28,49.68-4.77,3.94-.35,8-.31,11.9.28,4.44.67,7.67,3.56,6.52,8.32-1.24,5.14,1.49,7.71,5.05,9.62,8.18,4.39,16.29,9.15,24.95,12.38,27.65,10.32,56.63,14.65,85.83,17.84,13.77,1.51,27.54,3.25,42.42,9.49-6.31,2.86-10.9,5.46-15.82,7.09-22.25,7.41-45.46,10.04-68.54,13.25-13.52,1.88-27.04,3.93-40.63,5.15-7.53.68-15.21-.44-22.81-.27-4.56.1-9.16.85-13.64,1.81-15.92,3.42-31.65,8.12-47.73,10.37-22.05,3.08-43.1-1.85-62.49-12.88-4.58-2.61-8.88-5.96-12.68-9.63-11.18-10.8-13.28-21.96-7.4-36.31.62-1.51,1.28-3.01,1.97-4.62Z"/>
  <path class="st0" d="M1049.74,1421.29c-11.4-5.91-20.18-14.44-27.27-24.65-3.41-4.91-7.16-10.49-2.82-16.47,4.14-5.7,10.53-4.69,16.54-3.56,1.96.37,3.94.82,5.78,1.56,15.18,6.13,30.3,4.6,44.72-1.71,14.91-6.51,29.27-14.27,43.81-21.6,5.94-2.99,11.53-6.73,17.62-9.35,8.15-3.5,10.25-2.08,14.67,5.59,1.38,2.4,4.81,4.31,7.67,5.06,14.44,3.77,29.11,2.42,43.7.92,24.94-2.58,49.04-9.09,73.06-15.97,12.42-3.56,24.95-6.8,39.96-6.82-4.28,4.81-7.13,8.91-10.83,11.96-7.18,5.93-14.45,11.91-22.38,16.73-24.76,15.03-49.74,29.7-74.88,44.09-5.67,3.25-12.39,4.64-18.51,7.16-3.31,1.36-6.62,2.98-9.5,5.07-9.69,7.06-18.97,14.69-28.79,21.54-20.52,14.31-43.27,22.15-68.47,20.84-7.85-.41-15.93-2.06-23.32-4.77-14.54-5.32-21.84-16.4-20.77-30.6.12-1.63.02-3.28.02-5.03Z"/>
  <path class="st0" d="M1057.82,984.99c-5.73-5.58-10.25-9.07-13.61-13.45-7.29-9.49-14.55-19.08-20.81-29.26-12.19-19.84-24.03-39.92-35.31-60.29-4.45-8.03-6.83-17.18-10.53-25.65-1.57-3.58-3.95-6.85-6.24-10.07-8.5-11.91-17.74-23.34-25.53-35.69-11.46-18.18-16.51-38.43-15.56-59.95.26-5.93,1.25-11.95,2.88-17.66,5.52-19.43,16.36-27.01,35.43-26.37,8.03-8.5,15.3-16.57,23.03-24.16,2.77-2.72,6.45-4.82,10.08-6.28,8.07-3.26,13.94.56,14.3,9.37.16,3.89-.39,8.1-1.8,11.71-7.02,18.05-4.22,35.45,3.54,52.26,6.12,13.26,13.27,26.05,20.01,39.03,2.91,5.6,6.37,10.96,8.82,16.75,3.47,8.19,2.05,10.51-5.68,14.74-2.19,1.2-4.15,4.11-4.83,6.61-3.96,14.74-2.63,29.72-1.09,44.64,2.56,24.93,9.09,49.01,15.98,73.01,3.57,12.46,6.66,25.03,6.91,40.72Z"/>
  <path class="st0" d="M1872.83,969.03c3.72,12.56,4.09,24.74,1.52,37.01-.34,1.62-.66,3.28-1.25,4.82-3.67,9.63-11.2,11.36-18.48,3.94-2.74-2.79-5.06-6.29-6.65-9.87-6.75-15.27-18.68-25.13-33.65-30.96-15.45-6.02-31.43-10.68-47.2-15.86-6.31-2.07-12.89-3.47-18.95-6.09-7.14-3.09-8.37-6.29-5.2-13.23,1.54-3.38.98-5.83-.84-8.25-4.38-5.84-8.49-12-13.61-17.13-17.28-17.3-37.29-31.06-58.32-43.39-12.63-7.4-25.42-14.54-37.89-22.19-5.58-3.43-10.56-7.84-15.36-13.86,4.66-.28,9.45-1.39,13.96-.69,16.41,2.56,32.84,5.18,49.03,8.82,17.83,4.01,35.44,9.07,53.09,13.86,10.26,2.79,20.47,5.66,29.47,11.86,2.52,1.73,6.26,1.83,9.49,2.38,15.72,2.68,31.66,4.41,47.15,8.08,19.86,4.7,36.86,15.22,50.67,30.33,4.45,4.86,8.41,10.38,11.58,16.16,7.7,14.04,7.76,29.94-6.2,41.5-.75.62-1.29,1.49-2.37,2.77Z"/>
  <path class="st0" d="M1178.65,776.02c-4.5-16.66-1.21-31.78,2.25-46.63,5.97-25.61,12.7-51.05,19.76-76.38,2.2-7.89,6.84-15.08,9.7-22.83,1.81-4.9,2.53-10.23,3.49-15.41,2.77-15.04,4.45-30.36,8.34-45.09,5.41-20.45,16.85-37.72,33.44-50.98,5.87-4.69,12.8-8.52,19.84-11.2,11.49-4.37,22.3-2.25,31.25,6.76,1.63,1.64,3.15,3.38,4.76,5.12,12.05-3.74,23.9-4.3,35.88-2.05,1.64.31,3.32.48,4.89,1.01,4.16,1.4,8.35,3.05,9.6,7.85,1.36,5.23-1.49,9.17-5.16,12.18-3.31,2.72-7.09,5.05-10.98,6.86-11.75,5.45-19.68,14.58-25.63,25.7-8.38,15.68-13.56,32.53-18.02,49.65-1.93,7.4-3.73,14.89-6.47,22.01-3.11,8.08-6.03,8.78-14.46,6.31-2.2-.64-5.49-.39-7.27.87-6.5,4.59-13.14,9.22-18.69,14.86-16.22,16.46-29.36,35.33-41.06,55.2-7.27,12.34-14.09,24.95-21.6,37.14-4.1,6.67-9.2,12.72-13.85,19.05Z"/>
  <path class="st0" d="M1095.43,867.11c-2.46-6.05-5.9-11.9-7.21-18.18-4.4-21.16-8.3-42.43-11.88-63.75-2.25-13.45-3.99-27.03-5.17-40.61-.68-7.86.34-15.85.28-23.78-.03-3.58-.56-7.21-1.32-10.72-3.62-16.56-8.42-32.94-10.89-49.66-3.26-22.03,1.47-43.15,12.49-62.53,3.24-5.69,7.61-11,12.38-15.51,9.28-8.77,20.27-10.97,32.32-5.89,1.83.77,3.63,1.61,4.23,1.88,10.2-4.72,19.37-9.22,28.75-13.19,3.62-1.53,7.7-2.36,11.63-2.64,10.08-.72,15.06,6.11,11.02,15.37-1.83,4.19-4.6,8.16-7.68,11.57-10.14,11.25-14.79,24.64-14.46,39.36.39,17.27,2.08,34.5,3.25,51.75.47,6.96,1.66,13.93,1.41,20.86-.26,7.38-2.3,9.04-10,8.8-3.73-.12-5.85,1.45-7.27,4.05-4.61,8.43-9.79,16.71-13.16,25.65-8.62,22.83-13.1,46.71-16.27,70.88-2.12,16.14-5.07,32.18-7.79,48.24-.44,2.59-1.6,5.05-2.43,7.57-.74.16-1.48.32-2.23.49Z"/>
  <path class="st0" d="M1423.38,1529.8c-11.11,3.41-22.04,3.52-33.02,2.33-2.63-.28-5.24-.89-7.8-1.57-4.73-1.26-9.05-3.53-9.76-8.82-.69-5.07,2.5-8.86,6.27-11.77,2.88-2.22,6.04-4.24,9.36-5.72,12.86-5.74,21.2-15.82,27.42-27.97,8.4-16.42,13.59-33.96,18.03-51.78,1.29-5.17,2.54-10.37,4.33-15.37,4.06-11.32,7.87-12.82,18.63-7.66,10.86-4.61,19.31-12.59,27.12-21.31,14.73-16.44,27.35-34.41,38.39-53.52,7.16-12.4,14.18-24.9,21.7-37.08,3.6-5.83,8.22-11.02,12.82-17.08,4.25,10.71,2.43,20.52.33,29.61-7.79,33.71-16.56,67.2-25.04,100.76-.73,2.88-1.54,6.04-3.29,8.32-7.38,9.59-7.12,21.07-8.95,32.15-2.17,13.11-4.33,26.34-8.1,39.04-5.62,18.92-16.44,35-31.82,47.47-5.86,4.75-12.67,8.73-19.66,11.58-12.27,5.02-23.53,2.4-32.87-7.32-1.15-1.2-2.3-2.4-4.09-4.27Z"/>
  <path class="st0" d="M1766.56,1342.34c-8.51,8.98-15.65,16.77-23.12,24.24-2.3,2.3-5.32,4.05-8.27,5.5-9.93,4.87-17.44-.3-16.45-11.44.35-3.93,1.46-7.88,2.8-11.61,4.86-13.5,3.75-26.81-.68-40.11-5.51-16.52-13.64-31.76-22.51-46.68-3.9-6.55-7.65-13.3-10.49-20.35-2.79-6.95-1.47-9.91,5.43-12.13,4.6-1.48,5.66-4.85,5.98-8.2,1.02-10.56,2.37-21.24,1.77-31.77-1.43-25.35-6.94-50.05-13.98-74.43-3.05-10.54-5.69-21.21-8.04-31.93-1.11-5.06-1.1-10.38-1.6-15.58l1.88-1.17c3.33,2.95,7.31,5.44,9.89,8.95,9.25,12.59,18.55,25.22,26.87,38.43,10.28,16.33,19.99,33.06,29.2,50.02,4.88,8.98,8.05,18.88,12.25,28.25,1.6,3.57,3.69,7,5.99,10.18,7.97,11.08,16.68,21.66,24.07,33.1,13.24,20.48,18.86,43.14,16.75,67.56-.26,2.97-.66,5.97-1.34,8.87-5.21,22.11-15.19,30.09-36.39,30.28Z"/>
  <path class="st0" d="M1857.88,1165.43c-4.5,11.74-8.1,21.33-11.89,30.84-.85,2.13-2.23,4.1-3.61,5.97-3.22,4.34-6.73,9-12.91,7.67-6.42-1.38-8.44-6.93-9.56-12.72-.57-2.94-1.37-5.9-1.42-8.87-.24-14.51-6.35-26.72-16.23-36.53-12.01-11.93-25.1-22.78-37.87-33.93-5.01-4.37-10.7-7.98-15.56-12.5-7.13-6.63-6.81-9.5-.88-17.24,1.52-1.99,2.16-5.7,1.48-8.15-2.47-8.94-4.89-18.04-8.72-26.44-9.58-20.98-22.23-40.16-36.32-58.41-8.55-11.07-17.12-22.13-25.3-33.47-3.61-5.01-6.28-10.69-9.38-16.07.44-.58.88-1.15,1.32-1.73,4.54,1.61,9.38,2.67,13.56,4.95,8.76,4.77,17.61,9.58,25.64,15.45,22.31,16.31,44.37,32.97,66.19,49.93,5.69,4.42,10.02,10.57,15.19,15.71,2.54,2.52,5.37,4.87,8.42,6.73,11.06,6.79,22.6,12.85,33.36,20.08,22,14.77,37.77,34.52,44.87,60.41,1.48,5.39,2.07,11.14,2.22,16.74.39,14.94-6.05,25.59-20.6,30.65-1.24.43-2.39,1.12-2,.93Z"/>
  <path class="st0" d="M1225.52,1512.68c-12.08-1.04-23.19-5.32-33.44-11.75-5.34-3.35-11.54-7.02-9.85-14.65,1.64-7.38,8.63-8.44,14.83-9.88.97-.22,1.98-.37,2.97-.36,18.68.14,33.44-8.6,45.62-21.59,11.36-12.12,21.57-25.33,32.33-38.02,3.87-4.56,7.5-9.42,11.93-13.38,4.93-4.4,8.36-4.2,12.72.82,2.74,3.15,5.48,3.54,8.79,2.61,8.29-2.35,16.86-4.17,24.7-7.62,20.2-8.89,38.74-20.75,56.32-34.06,9.03-6.84,17.69-14.18,26.89-20.79,8.87-6.37,18.21-12.1,27.35-18.1.59.48,1.19.95,1.78,1.43-1.76,4.88-2.9,10.1-5.39,14.57-5.51,9.88-11.11,19.81-17.74,28.94-14.89,20.48-30.18,40.68-45.84,60.57-5.07,6.45-11.9,11.48-17.7,17.39-2.52,2.56-4.73,5.52-6.6,8.6-6.59,10.8-12.58,21.99-19.52,32.56-12.97,19.74-30.3,34.55-52.64,42.73-7.1,2.6-14.76,4.43-22.28,4.96-17.78,1.27-29.13-7.21-33.39-21.08-.39-1.26-1.12-2.41-1.83-3.89Z"/>
  <path class="st0" d="M1062.92,1104.81c-3.93-1.35-8.24-2.06-11.72-4.16-13.37-8.09-26.84-16.1-39.58-25.12-16.03-11.35-31.66-23.3-46.9-35.68-7.92-6.43-14.53-14.46-21.94-21.55-2.59-2.48-5.68-4.52-8.77-6.4-10.8-6.57-21.95-12.6-32.51-19.55-17.62-11.6-31.27-26.93-39.78-46.36-2.78-6.35-4.96-13.1-6.38-19.88-4.62-22.16,2.36-34.72,23.76-43.26,1.26-11.44,5-22.4,11.17-32.4,2.07-3.35,4.56-6.67,7.56-9.16,4.93-4.1,10.43-3.38,13.57,2.17,2.38,4.2,4.26,9.29,4.38,14.03.47,17.83,8.2,32.25,20.63,44.02,12.05,11.42,25.17,21.71,37.82,32.5,4.8,4.1,10.02,7.81,14.27,12.42,4.93,5.34,4.72,8.52-.66,13.4-2.73,2.48-3.35,4.95-2.45,7.91,2.98,9.82,5.27,20,9.53,29.26,10.49,22.78,24.71,43.32,40.25,62.98,7.22,9.14,14.23,18.46,20.99,27.95,3.23,4.53,5.65,9.64,8.44,14.49-.57.8-1.13,1.6-1.7,2.4Z"/>
  <path class="st0" d="M1286.87,720.65c1.52-4.28,2.52-8.83,4.65-12.77,4.59-8.48,9.14-17.1,14.81-24.85,16.7-22.85,33.76-45.44,51.08-67.82,4.21-5.44,10.08-9.59,14.96-14.55,2.74-2.78,5.39-5.79,7.43-9.1,6.83-11.04,12.93-22.54,20.1-33.34,13.07-19.68,30.62-34.14,52.96-42.26,5.57-2.03,11.51-3.53,17.4-4.13,17.06-1.74,30.83,1.17,38.24,22.45,10.78,4.12,21.04,7.76,31.05,12.01,3.58,1.52,6.93,4.1,9.7,6.89,6.22,6.26,5.14,13.07-2.97,16.76-4.43,2.02-9.57,3.27-14.43,3.42-15.26.46-27.92,6.89-38.19,17.29-11.66,11.81-22.21,24.72-33.11,37.27-4.58,5.27-8.45,11.19-13.29,16.19-6.07,6.26-8.8,5.7-15.85.35-2.23-1.69-6.33-2.55-8.98-1.78-9.86,2.87-19.86,5.76-29.11,10.13-20.85,9.83-39.89,22.72-58.03,36.93-9.44,7.39-18.87,14.8-28.61,21.78-5.61,4.02-11.84,7.19-17.79,10.74-.67-.53-1.34-1.06-2-1.59Z"/>
  <path class="st0" d="M862.14,1079.95c-3.74-11.89-3.32-23.49-2.02-35.12.11-.99.25-1.99.55-2.94,1.61-5.09,2.85-10.8,9.21-11.84,6.03-.99,9.94,2.91,13.11,7.43,1.72,2.45,3.44,4.97,4.62,7.7,5.88,13.66,16.43,22.83,29.62,28.29,15.32,6.34,31.24,11.22,46.98,16.52,6.61,2.23,13.57,3.46,20.08,5.93,10.25,3.89,11.36,7.55,6.18,17.48,3.12,8.51,8.87,15.39,15.27,21.74,17.14,16.99,36.71,30.77,57.43,42.98,11.47,6.76,23.25,13.01,34.58,19.99,7.28,4.48,14,9.88,22.26,15.79-9.52,3.52-17.47,2.73-25.04,1.09-26.32-5.7-52.56-11.76-78.74-18.09-10.97-2.66-22.69-4.58-32.3-9.98-13.7-7.7-28.25-8.91-42.97-10.85-22.42-2.95-43.84-8.84-61.86-23.16-7.23-5.75-14.17-12.27-19.8-19.55-15.66-20.27-14.68-34.57,2.85-53.4Z"/>
  <path class="st0" d="M1523.8,753.57c15.79-9.73,32.97-12.42,49.91-15.26,22.97-3.85,46.07-7.03,69.21-9.69,9.49-1.09,19.22.07,28.83-.14,3.91-.08,7.86-.81,11.68-1.7,13.6-3.16,27.04-7.18,40.76-9.65,20.41-3.66,40.53-1.61,59.71,6.61,5.77,2.47,11.45,5.48,16.57,9.1,17.76,12.56,21.32,25.88,13.21,44.74,4.69,10.24,9.39,19.69,13.3,29.45,1.69,4.21,2.47,9.09,2.37,13.64-.16,7.37-4.88,10.9-12.1,9.31-3.44-.76-7.25-2.29-9.69-4.69-19.59-19.25-43.89-20.41-68.98-18.26-11.59.99-23.1,2.98-34.67,4.29-4.61.52-9.33.85-13.93.45-6.52-.56-8.77-2.91-8.28-9.68.31-4.23-1.6-6.46-4.46-8.05-7.81-4.36-15.54-9.13-23.84-12.32-25.96-9.96-53.2-14.41-80.69-17.86-14.48-1.82-28.78-5.03-43.14-7.75-1.82-.34-3.49-1.51-5.78-2.54Z"/>
  <path class="st0" d="M1638.17,1181.26c7.26,9.52,9.82,20.22,11.69,30.84,4.48,25.54,8.31,51.2,12.1,76.86,2.04,13.81,4.07,27.64,1.25,41.69-.6,2.99,1.14,6.47,1.92,9.7,3.34,13.9,7.53,27.65,9.89,41.71,3.67,21.82,1.25,43.28-8.78,63.23-3.68,7.31-8.57,14.35-14.23,20.25-9.67,10.08-21.57,12.59-34.68,6.49-1.48-.69-2.98-1.33-4.82-2.14-8.85,7.4-18.98,12.21-30.06,14.99-2.88.72-5.87,1.32-8.83,1.39-10.33.28-14.82-6.12-10.7-15.57,1.57-3.59,3.93-7.06,6.65-9.89,12.13-12.63,16.27-28.31,15.82-44.94-.48-17.58-2.83-35.1-4.32-52.65-.42-4.96-1.16-9.96-.94-14.9.33-7.71,2.59-9.21,10.45-9.98,2.53-.25,5.88-1.8,7.12-3.81,4.5-7.33,9.08-14.8,12.17-22.79,10.13-26.24,14.76-53.77,18.26-81.58,1.86-14.8,5.16-29.42,7.92-44.1.28-1.51,1.27-2.9,2.14-4.8Z"/>
  <path class="st0" d="M1685.59,625.56c9.2,8.84,16.88,16.11,24.4,23.54,1.63,1.61,2.84,3.71,4,5.72,2.56,4.44,4.92,9.34,1.44,14.01-3.54,4.76-8.98,5.21-14.53,3.92-2.92-.68-5.9-1.18-8.7-2.19-13.83-5.02-27.77-4.57-41,1.07-15.57,6.64-30.62,14.53-45.82,22.04-6.56,3.24-12.7,7.4-19.42,10.21-7.79,3.25-10.62,2-13.61-5.88-1.72-4.54-5.42-5.11-8.66-5.41-10.57-.98-21.26-2.17-31.8-1.53-25.36,1.53-50.07,7.03-74.44,14.19-10.21,3-20.59,5.49-31,7.75-5.12,1.11-10.48,1.17-16.9.04,2.84-3.32,5.22-7.26,8.62-9.83,11.15-8.43,22.29-16.97,34.14-24.35,18.66-11.62,37.69-22.69,56.95-33.28,8.37-4.6,17.77-7.29,26.55-11.18,3.58-1.59,6.89-3.88,10.1-6.17,11.93-8.5,23.34-17.81,35.75-25.54,19.5-12.15,41.13-16.91,64.1-14.98,3.3.28,6.63.76,9.85,1.55,21.97,5.34,30.06,15.68,29.98,36.31Z"/>
  <path class="st0" d="M1085.56,1728.52c6.91-2.24,13.68-5.22,20.76-6.56,16.3-3.09,31.02-9.74,45.12-18.11,14.87-8.83,29.72-17.71,44.6-26.53,18.27-10.83,37.78-16.07,59.16-13.63,12.62,1.44,23.21,7.82,34.18,13.3,4.15,2.07,8.08,4.57,13.23,7.52-1.03,2.73-1.86,5.81-3.29,8.58-7.64,14.75-8.53,30.55-7.57,46.67.46,7.79,4.92,13.58,9.62,19.28,7.93,9.62,8.14,19.94,2.6,30.71-.44.86-1.14,1.63-1.83,2.32-.45.45-1.1.7-2.44,1.52-3.02-1.72-6.49-3.55-9.8-5.63-25.2-15.79-52.28-24.24-82.37-22.17-17.25,1.19-34.56,1.41-51.84,2.17-14.46.63-27.77-3.34-39.82-10.88-5.19-3.25-10.27-7.72-13.48-12.85-4.17-6.66-7.61-13.19-16.9-13.64.03-.69.06-1.38.09-2.07Z"/>
  <path class="st0" d="M670.14,1322.35c9.09,5.13,17.6,9.58,25.73,14.62,13.53,8.39,28.57,12.62,43.73,16.54,14.82,3.84,29.71,7.42,44.56,11.18,12.72,3.22,24.53,8.41,35.18,16.17,12.73,9.28,22.36,20.82,27,36.15,2.79,9.21,5.8,18.36,8.91,28.15-2.68,1.25-4.92,2.66-7.36,3.38-13.87,4.1-24.75,12.75-34.89,22.56-6.71,6.49-10.58,14.09-11.43,23.67-1.41,15.96-8.19,23.02-24.61,26.54-.94-2.13-2.19-4.36-2.92-6.75-2.63-8.59-4.89-17.29-7.65-25.83-6.19-19.13-17.15-35.26-31.73-48.94-12.39-11.62-24.93-23.1-37.6-34.43-12.22-10.93-21.24-23.71-25.42-39.8-1.98-7.63-2.75-15.1.13-22.55,2.33-6.02,2.49-11.62-1.82-16.89-.4-.5.05-1.69.19-3.79Z"/>
  <path class="st0" d="M1909.96,1554.03c.55-6.81.4-13.77,1.8-20.4,3.92-18.6,2.66-37.07-.13-55.6-2.38-15.79-4.91-31.56-7.01-47.39-1.73-12.98-.99-25.91,2.45-38.62,3.84-14.18,10.68-26.48,22.1-35.99,7.4-6.17,14.77-12.37,23.01-19.28,2.39,2.28,4.91,4.29,6.95,6.7,10,11.87,23.31,18.55,37.37,24.06,7.86,3.08,15.58,1.99,23.43-.53,12.1-3.88,22.27-.53,30.34,9.21.81.98,1.23,2.28,2.37,4.48-3.27,2.64-6.44,5.37-9.8,7.86-16.47,12.19-31.94,25.61-41.08,44.24-7.59,15.47-13.39,31.84-19.77,47.89-3.57,8.96-6.57,18.14-10.1,27.12-5.3,13.5-14.82,23.74-26.69,31.52-4.82,3.16-10.91,5.4-16.62,5.97-7.21.73-12.82,2.82-16.36,9.6-.75-.28-1.5-.56-2.26-.84Z"/>
  <path class="st0" d="M1174.39,389.64c0-3.24-.22-5.87.04-8.46,1.19-12.22-1.57-23.75-5.53-35.19-3.87-11.16-9.91-20.04-21.04-25.25-11.33-5.31-15.33-15.08-14.42-27.16.07-.98.38-1.96.73-2.89.22-.59.72-1.08,1.74-2.52,2.68.32,5.9.56,9.06,1.12,30.68,5.38,60.22,2.78,88.41-11.57,14.22-7.24,28.94-13.49,43.4-20.25,14.31-6.69,29.27-9.12,44.72-5.65,5.67,1.27,11.45,3.62,16.27,6.85,9.75,6.53,9.49,6.92,21.84,6.4-6.83,5.92-11.96,11.44-18.08,15.45-13.03,8.54-23.59,19.45-32.88,31.72-10.04,13.27-19.73,26.81-29.99,39.9-5.72,7.3-11.78,14.49-18.59,20.76-20.75,19.11-45.68,23.12-72.63,18.76-3.92-.63-7.84-1.22-13.04-2.03Z"/>
  <path class="st0" d="M870.94,433.26c3.5-1.05,7.17-2.25,10.89-3.24,16.79-4.43,33.59-9.08,47.77-19.61,8.52-6.32,16.81-13.14,24.24-20.68,13.09-13.28,25.43-27.31,38.12-40.99,8.36-9.01,18.61-14.92,30.23-18.77,9.43-3.12,18.72-4.45,28.31-.75,6.07,2.34,11.81,1.43,17.22-3.13-1.67,8.08-4.72,15.15-9.15,21.43-9.19,13.04-14.52,27.66-18.45,42.9-4.24,16.44-8.04,33-12.59,49.36-2.31,8.3-5.21,16.56-8.93,24.31-11.47,23.86-31.1,37.57-56.46,43.72-4.84,1.17-9.61,2.61-15.61,4.24-1.18-2.72-2.7-5.54-3.64-8.53-4.68-14.82-14.37-26.13-25.33-36.56-6.39-6.08-14.41-7.78-22.87-8.74-14.09-1.6-21.59-9.38-23.77-24.97Z"/>
  <path class="st0" d="M631.12,1256.97c.46-4.36.69-8.6,1.38-12.75,4.88-29.37,2.2-57.61-11.4-84.56-7.19-14.25-13.54-28.93-20.31-43.4-5.62-12.01-7.95-24.53-7.13-37.83.64-10.31,2.77-19.92,10.38-27.29,4.92-4.76,3.96-10.69,3.94-18.77,6.13,7.05,11.53,11.98,15.38,17.93,8.85,13.68,20.4,24.51,33.27,34.15,13.86,10.38,27.76,20.69,41.61,31.09,18.13,13.61,31.94,30.47,36.29,53.17,1.78,9.31,1.01,19.18.78,28.78-.15,6.26-1.43,12.5-2.37,20.08-3.15,0-6.36.24-9.51-.04-15.1-1.37-28.97,3.02-42.53,8.92-8.04,3.5-13.18,9.81-17.03,17.5-5.79,11.58-15.59,15.78-28.09,14.49-1.24-.13-2.44-.75-4.65-1.47Z"/>
  <path class="st0" d="M1723.65,339.39c7.12,8.8,13.48,16.89,20.09,24.77,13.59,16.19,30.59,27.57,50.33,34.89,15.91,5.91,31.85,11.75,47.87,17.36,15.51,5.44,28.86,13.95,38.27,27.55,3.49,5.05,6.37,11.06,7.61,17.02,2.47,11.91,1.92,12.02,10.76,21.12-8.53-.68-15.68-.48-22.5-1.93-18.97-4.02-37.76-2.39-56.61.43-15.47,2.32-30.92,4.83-46.43,6.85-13.69,1.79-27.25.76-40.54-3.23-12.72-3.83-23.87-10.12-32.56-20.35-6.65-7.82-13.26-15.68-20.26-23.95,2.01-2.22,3.52-4.4,5.5-5.99,9.88-7.94,16.16-18.4,21.65-29.57,5.23-10.62,7.19-21.27,3.01-32.77-4.31-11.87-.08-21.49,8.85-29.5,1.17-1.05,2.82-1.56,4.96-2.71Z"/>
  <path class="st0" d="M1958.73,527.93c3.25,10.89,6.01,20.46,8.95,29.97,6.47,20.89,18.31,38.33,34.36,53.03,12.78,11.7,25.44,23.53,38.3,35.14,11.19,10.11,19.18,22.25,22.64,36.9,1.42,6,2.17,12.65,1.08,18.61-1.49,8.12-4.57,15.86.5,24.38-6.39-3.2-13.26-5.71-19.07-9.74-14.81-10.29-31.36-15.95-48.59-20.23-15.83-3.93-31.8-7.43-47.37-12.23-10.08-3.11-20.05-7.33-29.17-12.6-16.13-9.32-27.34-23.09-32.58-41.34-2.46-8.57-5.27-17.03-8.06-25.99,2.87-1.36,5.11-2.83,7.56-3.53,14.65-4.18,25.73-13.63,36.26-24,6.8-6.7,9.53-15.05,10.14-24.31.76-11.7,7.48-18.87,17.89-23.01,2.03-.81,4.42-.68,7.15-1.05Z"/>
  <path class="st0" d="M2002.26,831.75c3.64,0,6.6-.19,9.54.03,15.08,1.12,28.9-3.42,42.43-9.29,8.09-3.51,13.09-9.9,16.95-17.55,5.6-11.11,15.07-15.42,27.13-14.65,1.57.1,3.08.96,5.55,1.77-.37,3.32-.56,6.54-1.11,9.69-5.39,30.66-2.92,60.2,11.4,88.41,7.52,14.82,14.15,30.09,21.06,45.21,6.42,14.06,8.22,28.78,4.9,43.86-1.12,5.06-3.11,10.25-5.95,14.56-7.2,10.92-7.48,10.73-7.34,22.85-5.66-6.58-11.23-11.82-15.31-18.04-8.55-13.02-19.41-23.6-31.71-32.87-13.28-10.02-26.79-19.74-39.9-29.97-7.05-5.5-14.02-11.3-20.11-17.83-19.74-21.19-24.09-46.64-19.35-74.34.61-3.6,1.11-7.21,1.83-11.85Z"/>
  <path class="st0" d="M837.77,1567.3c7.13.44,14.5-.1,21.36,1.5,17.6,4.11,35,2.7,52.54.13,18.09-2.65,36.22-5.09,54.34-7.55,13.12-1.78,25.88.23,38.38,4.11,12,3.72,22.43,10.03,30.64,19.71,6.66,7.85,13.28,15.73,20.26,24.01-1.94,2.13-3.48,4.32-5.49,5.92-9.91,7.89-16.21,18.34-21.66,29.51-5.15,10.55-6.97,20.96-3.17,32.7,4.63,14.31-.35,24.85-13.99,32.16-2.46-3.14-5.19-6.36-7.64-9.78-17.54-24.47-39.71-42.65-68.75-52.11-15.79-5.15-31.2-11.46-46.83-17.13-13.59-4.93-24.13-13.76-32.98-24.95-4.67-5.91-7.96-12.47-8.23-19.97-.27-7.27-2.29-13.09-9.86-16.09l1.08-2.17Z"/>
  <path class="st0" d="M825.21,495.19c-1.1,9.52-1.72,19.13-3.42,28.54-2.66,14.71-.83,29.19,1.1,43.7,2.45,18.46,5.13,36.88,7.72,55.32,1.79,12.78-.09,25.24-3.68,37.45-3.63,12.37-9.96,23.2-19.89,31.67-7.83,6.68-15.72,13.31-24.24,20.51-2.24-2.1-4.57-3.86-6.37-6.05-9.82-12.03-23.03-18.83-37.07-24.43-8.54-3.41-16.86-2.03-25.39.35-13.64,3.8-23.71-.6-31.58-13.86,3.09-2.53,6.22-5.33,9.59-7.8,16.52-12.13,31.91-25.59,41.16-44.13,7.39-14.82,12.94-30.57,19.08-45.99,4.06-10.19,7.5-20.62,11.61-30.78,5.31-13.12,15.01-22.72,26.51-30.39,4-2.67,9.01-4.4,13.79-5.23,11.96-2.08,12.01-1.78,21.07-8.87Z"/>
  <path class="st0" d="M1600.07,1760.63c-12.05-1.08-23.26-2.22-34.5-3.07-19.69-1.5-38.47,2.34-56.37,10.44-16.38,7.41-32.71,14.94-48.91,22.74-13.94,6.72-28.47,8.9-43.74,7.21-7.09-.78-14-2.41-19.27-7.37-5.71-5.38-11.96-8.14-20.64-7.74,5.63-4.87,10.79-10.45,16.97-14.47,13.38-8.7,24-20.02,33.47-32.59,10.63-14.1,21.07-28.34,31.71-42.43,13.45-17.81,30.09-31.46,52.44-35.74,9.64-1.85,19.84-1.03,29.78-.84,5.93.11,11.84,1.37,19.19,2.29,0,3.35.19,6.85-.03,10.33-.97,15.45,3.71,29.59,10.03,43.33,3.37,7.34,9.51,11.78,16.52,15.31,11.51,5.8,15.93,15.5,14.91,28-.1,1.25-.82,2.44-1.58,4.6Z"/>
  <path class="st0" d="M708.43,958.76c-12.64-3.49-23.72-6.79-34.93-9.53-4.14-1.01-8.59-.77-12.91-1.03-10.55-.64-19.26,3.22-27.41,9.86-11.46,9.33-23.78,8.86-34.91-.97,1.79-3.17,3.56-6.63,5.63-9.91,16.04-25.49,24.47-52.91,22.28-83.37-1.22-16.92-1.44-33.91-2.14-50.86-.52-12.62,2.62-24.35,8.23-35.58,4.44-8.88,10.14-16.4,19.56-20.46,4.92-2.13,8.16-5.56,8.74-11.19.11-1.11,1.18-2.13,2.47-4.31,2.64,8.05,5.66,14.75,6.97,21.78,3.1,16.67,9.99,31.64,18.56,46.02,8.69,14.58,17.37,29.16,26.03,43.76,10.84,18.26,16.47,37.8,13.56,59.14-.8,5.85-2.37,11.81-4.79,17.18-4.63,10.25-10.12,20.1-14.93,29.49Z"/>
  <path class="st0" d="M1864.16,1615.78c-4.82,1.41-9.15,2.9-13.59,3.94-28.66,6.74-53.22,20.21-72.7,42.73-11.1,12.83-22.99,24.96-34.47,37.46-10.02,10.92-22.51,17.72-36.8,20.72-5.98,1.25-12.75,1.51-18.57-.02-7.5-1.96-14.16-3.04-22.04,1.29,3.44-6.84,6.19-14.14,10.45-20.42,8.55-12.61,14.02-26.37,17.79-40.95,4.58-17.7,9.15-35.41,13.58-53.15,3.18-12.75,8.52-24.45,16.26-35.07,9.06-12.44,20.39-21.81,35.29-26.46,9.45-2.94,18.87-5.95,28.67-9.04,1.29,2.49,2.72,4.39,3.3,6.52,3.8,13.97,12.41,24.86,22.12,35.07,6.66,7.01,14.38,11.54,24.39,11.97,12.15.52,20.7,6.59,25.1,18.04.78,2.04.75,4.4,1.22,7.37Z"/>
  <path class="st0" d="M2027.27,1088.98c3.54,1.51,6.6,2.63,9.5,4.08,14.85,7.45,30.69,8.29,46.83,7.08,7.4-.55,12.89-5,18.33-9.47,10.01-8.21,20.62-8.21,31.6-2.12.87.48,1.63,1.15,3.36,2.4-2.14,3.98-3.94,7.74-6.09,11.29-11.19,18.42-19.74,37.82-21.64,59.57-.64,7.27-.71,14.64-.49,21.94.5,16.66,1.21,33.31,2.08,49.95.81,15.47-2.65,29.89-10.96,42.85-3.15,4.91-7.29,9.86-12.18,12.8-6.99,4.2-13.48,8.05-16.08,17.14-2.35-7.1-5.57-14.05-6.86-21.33-2.84-16.08-9.56-30.43-17.71-44.27-8.62-14.64-17.29-29.25-26.08-43.8-6.97-11.55-11.8-23.85-13.91-37.19-2.3-14.5-1.29-28.61,5.32-41.93,4.71-9.5,9.72-18.85,14.98-29Z"/>
  <path class="st0" d="M1432,364.77c1.2-3.01,1.92-5.57,3.17-7.84,5.92-10.79,7.63-22.57,8.55-34.59.94-12.13-1.52-22.92-10-32.32-8.35-9.26-7.97-19.94-2.73-30.71.56-1.15,1.63-2.05,3.21-3.98,3.63,1.93,7.4,3.72,10.95,5.87,18.41,11.13,37.76,19.76,59.48,21.62,7.6.65,15.28.71,22.91.48,16.3-.48,32.59-1.35,48.89-2.01,12.84-.52,25.11,1.48,36.77,7.32,9.48,4.75,17.89,10.44,22.02,20.65,2.6,6.41,8.27,8.06,14.39,11.06-7.06,2.37-13.95,5.66-21.2,6.94-16.74,2.95-31.6,10.06-45.97,18.61-14.01,8.33-28.07,16.59-42.02,25.03-11.81,7.15-24.39,12.16-38.06,14.24-14.48,2.2-28.57,1.1-41.84-5.59-9.44-4.76-18.79-9.72-28.52-14.77Z"/>
  <path class="st0" d="M930.71,209.28c-1.69-8.9-3.05-17.4-4.97-25.78-1.47-6.45-3.57-12.77-5.51-19.11-1.07-3.5-2.67-6.85-3.51-10.39-2.42-10.21,1.37-17.18,11.67-19.61,38.07-8.98,73.58-25.24,109.89-39.04,27.27-10.37,53.06-24.64,79.5-37.19,3.6-1.71,7.04-3.87,10.77-5.19,7.38-2.6,12.25-.16,14.84,7.28,1.09,3.12,1.91,6.44,2.15,9.73,1.12,15.08,5.07,29.46,10.23,43.58,1.02,2.8,2.07,5.72,2.29,8.64.37,4.88-1.18,8.96-6.07,11.41-5.62,2.81-11.1,5.93-16.5,9.15-7.97,4.76-11.11,3.39-12.76-6.15-1.02-5.89-1.6-11.86-2.58-17.76-.43-2.6-1.12-5.24-2.15-7.66-2.21-5.15-4.23-5.95-9.33-3.9-2.15.87-4.14,2.13-6.21,3.2-31.15,16.02-63.1,29.91-97.45,37.74-12.32,2.81-24.5,6.23-36.68,9.6-10.82,2.99-14.27,7.79-13.17,18.93.65,6.6,1.54,13.33,3.58,19.59,3.22,9.92-2.7,16.93-14.02,14.6-4.21-.86-8.56-1.05-14.02-1.68Z"/>
  <path class="st0" d="M1953.53,309.15c6.67-4.47,12.86-8.36,18.75-12.65,6.7-4.88,13.17-10.09,19.68-15.24,2.35-1.85,4.39-4.11,6.8-5.86,8.99-6.52,16.4-5.47,23.39,3.19,6.69,8.28,12.88,17.02,20.07,24.83,39.94,43.35,79.56,87.05,126.16,123.62.52.41,1.03.85,1.52,1.29,10.46,9.36,10.33,16.35-1.93,23.45-15.66,9.07-30.11,19.52-43.58,31.57-7.07,6.33-11.11,5.55-18.14-.75-4.19-3.75-8.97-6.83-13.46-10.24-6.47-4.9-6.45-8.58.32-12.98,6.69-4.35,13.84-8.04,20.25-12.75,7.13-5.23,7.18-8.68.27-14.11-37.04-29.13-66.78-64.87-94.02-102.92-.19-.27-.4-.53-.6-.8-11.31-15.28-16.88-16.27-33.16-5.7-4.19,2.72-8.07,5.92-12.37,8.44-7.12,4.18-11.96,2.52-14.9-5.25-1.99-5.26-3.23-10.81-5.07-17.14Z"/>
  <path class="st0" d="M1099.78,1909.77c-4.04,6.07-8.24,12-12.03,18.19-4.5,7.35-8.67,14.9-12.9,22.41-1.63,2.89-2.78,6.08-4.59,8.84-5.69,8.71-12.07,10.36-21.31,5.45-9.1-4.83-17.8-10.48-27.12-14.81-53.98-25.1-107.85-50.49-165.41-66.79-15.99-4.53-18.38-11.46-8.34-24.46,10.45-13.53,19.22-27.88,26.53-43.3,4.48-9.45,8.78-10.62,18.42-7.06,4.03,1.49,8.23,2.63,12.45,3.45,12.17,2.38,13.3,5.55,5.62,15.68-4.21,5.56-8.49,11.15-11.96,17.17-4.13,7.17-2.93,10.16,5.14,12.4,46.01,12.8,87.58,34.97,127.9,59.9,15.22,9.41,21.16,8.12,31.51-6.4,3.09-4.33,5.58-9.1,8.74-13.36,5.24-7.07,10.28-7.22,16.5-.87.47.47.91.97,1.33,1.49,3.09,3.9,6.16,7.81,9.52,12.07Z"/>
  <path class="st0" d="M1635.88,140.26c8.94-15.67,17.86-30.73,26.2-46.1,7.25-13.36,14.38-15.5,27.44-7.83,8.89,5.22,17.88,10.36,27.22,14.67,52.88,24.41,105.63,49.21,161.98,64.98.64.18,1.29.34,1.92.55,13.07,4.56,15.69,11.36,7.18,22.53-10.97,14.39-20.33,29.58-28.14,45.86-4,8.34-8.28,9.25-17.07,6.18-5.3-1.85-10.89-2.88-16.33-4.36-7.88-2.14-9.2-5.46-4.58-12.16,4.34-6.3,9.37-12.15,13.37-18.65,5.27-8.56,3.99-11.2-5.73-14.21-37.04-11.49-72.66-26.08-105.37-47.28-8.09-5.25-16.64-9.79-25.03-14.57-10.72-6.12-16.28-5.27-24.24,4.42-4,4.86-7.18,10.4-10.73,15.62-6.67,9.81-11.92,10.16-19.52,1.14-3.21-3.81-6.2-7.81-8.57-10.8Z"/>
  <path class="st0" d="M552.05,1461.35c-8.74,1.66-16.91,3.02-24.98,4.81-6.15,1.36-12.2,3.19-18.24,4.98-3.18.94-6.22,2.38-9.4,3.33-12.58,3.75-19.55.29-22.44-12.21-4.97-21.52-13.1-41.86-21.36-62.24-5.12-12.63-8.39-26.05-13.93-38.46-13.15-29.47-27.17-58.55-40.83-87.8-1.82-3.91-4.02-7.72-5.25-11.81-1.87-6.26.16-10.35,6.23-12.74,3.67-1.45,7.67-2.47,11.59-2.8,14.4-1.21,28.18-4.79,41.69-9.73,3.11-1.14,6.32-2.25,9.58-2.7,4.98-.7,9.06.99,11.61,5.73,3.14,5.84,6.42,11.6,9.72,17.34,4,6.94,2.63,10.37-5.34,11.93-6.19,1.21-12.5,1.8-18.74,2.82-2.28.37-4.57.97-6.73,1.8-6.27,2.41-7.36,4.68-4.64,10.6,2.22,4.83,5.18,9.31,7.48,14.11,14.56,30.38,27.62,61.29,34.47,94.51,2.15,10.41,5.21,20.65,8.09,30.9,2.99,10.63,8.04,14.23,19.09,13.11,6.6-.67,13.12-2.16,19.65-3.43,11.59-2.25,15.43,1.06,14.55,12.98-.34,4.64-1.15,9.24-1.9,14.98Z"/>
  <path class="st0" d="M781.17,1738.78c-14.29,11.08-28.11,21.78-41.93,32.5-1.05.82-2.04,1.72-3.12,2.49-9.26,6.57-16.66,5.92-23.25-3.33-13.6-19.09-29.9-35.66-46.31-52.22-8.42-8.5-15.4-18.46-24.08-26.66-23.94-22.62-48.43-44.65-72.72-66.91-2.7-2.47-5.73-4.62-8.18-7.31-5.64-6.2-5.22-11.57,1.2-17.17,1.99-1.74,4.22-3.3,6.56-4.53,14.25-7.49,27.01-17,38.74-27.98,1.45-1.36,3.01-2.65,4.67-3.73,5.09-3.29,9.9-2.77,14.47,1.05,4.57,3.82,9.24,7.55,14.04,11.08,7.51,5.52,7.52,9.24-.28,14.14-6.47,4.06-13.28,7.67-19.41,12.2-7.25,5.37-7.33,8.58-.43,14.01,37,29.11,66.77,64.8,94.01,102.82.39.54.76,1.09,1.16,1.63,10.49,14.13,16.56,15.27,31.72,5.73,4.5-2.83,8.66-6.24,13.24-8.92,7.2-4.2,11.97-2.62,14.95,5.09,2.14,5.54,3.53,11.37,4.94,16.03Z"/>
  <path class="st0" d="M1457.85,1944.14c-2.27,18.51-4.36,35.63-6.48,52.74-.25,1.98-.59,3.96-1.05,5.9-2.24,9.41-7.92,13.82-17.43,12.2-23.43-3.97-47.03-4.42-70.7-4.52-10.98-.05-21.94-1.5-32.92-1.87-34.7-1.16-69.26,1.5-103.76,4.74-17.82,1.67-23.22-3.72-18.45-20.94,4.2-15.18,7.1-30.45,7.35-46.23.05-2.96.41-6.11,1.51-8.81,1.5-3.68,3.88-6.82,8.56-7.23,6.93-.61,13.84-1.54,20.76-2.28,7.91-.85,10.32,1.8,8.61,9.91-1.24,5.85-2.94,11.61-4.37,17.42-.48,1.94-.92,3.91-1.09,5.89-.71,8.11,1.51,10.39,9.49,9.79,4.98-.37,9.95-.91,14.93-1.32,36.06-2.96,71.88-1.18,107.5,5.19,8.51,1.52,17.12,2.62,25.74,3.37,9.78.85,14.24-1.98,17.44-11.22,1.95-5.63,2.9-11.6,4.23-17.44.52-2.27.62-4.65,1.32-6.85,2.35-7.5,6.52-9.64,13.64-6.5,5.44,2.4,10.54,5.57,15.15,8.05Z"/>
  <path class="st0" d="M652.29,438.43c-4-5.77-7.63-11.3-11.57-16.6-5.73-7.72-11.66-15.29-17.54-22.9-1.02-1.31-2.28-2.43-3.33-3.72-8.84-10.82-7.68-18.25,3.52-26.88,9.48-7.3,18.99-14.65,27.76-22.78,41.74-38.71,83.78-77.14,119.03-122.18.82-1.05,1.71-2.05,2.64-3,7.85-8.02,13.72-7.66,20.51,1.33,1.6,2.12,2.78,4.54,4.32,6.71,7.87,11.1,15.75,22.2,23.73,33.22,2.14,2.96,4.9,5.48,6.91,8.52,3.05,4.59,2.48,9.62-.86,13.72-3.97,4.88-7.92,9.78-11.68,14.83-5.43,7.28-9.15,7.12-14.09-.95-2.6-4.26-4.93-8.68-7.56-12.92-1.57-2.54-3.31-5.02-5.29-7.25-5.02-5.62-7.85-5.55-12.96.19-9.3,10.44-18.49,20.97-27.82,31.37-22.2,24.73-49.46,43.45-75.7,63.36-15.52,11.78-16.74,17.64-6.1,33.91,2.55,3.9,5.54,7.52,7.91,11.52,4.51,7.59,2.82,12.65-5.33,15.65-4.98,1.83-10.19,3.02-16.51,4.85Z"/>
  <path class="st0" d="M2082.86,1610.47c4.73,7.17,9.27,14.48,14.24,21.47,4.04,5.67,8.55,11,12.94,16.41,2.09,2.58,4.62,4.83,6.57,7.5,6.53,8.92,5.45,16.43-3.19,23.38-8.29,6.67-17.03,12.84-24.83,20.03-43.33,39.91-86.99,79.51-123.53,126.07-.21.26-.42.51-.64.77-9.89,11.48-17.12,11.34-24.71-1.83-8.7-15.09-18.74-29.01-30.36-41.95-7.26-8.08-6.71-11.63.59-19.49,2.92-3.14,5.48-6.67,7.88-10.24,6.86-10.2,10.38-9.98,16.75.9,3.52,6.02,7.06,12.1,11.32,17.6,5.07,6.55,8.2,6.53,13.39-.1,29.23-37.36,65.24-67.29,103.6-94.6,13.26-9.44,18.35-14.46,5.7-33.89-2.72-4.18-5.93-8.07-8.38-12.4-3.83-6.77-2.27-11.28,5.09-14.18,5.54-2.19,11.4-3.57,17.56-5.45Z"/>
  <path class="st0" d="M1276.32,104.43c2.03-18.07,7.97-35.13,7.77-53.34-.15-13.69,7.36-18.59,21.08-16.79,11.54,1.51,23.13,2.97,34.75,3.55,22.62,1.14,45.28,2.55,67.9,2.21,32.29-.48,64.56-2.43,96.84-3.76,4.66-.19,9.33-.81,13.97-.59,7.86.37,11.46,4.51,10.91,12.32-.23,3.3-.86,6.65-1.88,9.79-4.91,15.04-6.42,30.58-7.4,46.24-.74,11.87-3.14,13.88-15.23,14.68-4.95.33-9.83,1.64-14.75,2.47-8.33,1.4-11.1-1.63-9.19-10.03,1.7-7.45,4.01-14.82,5.02-22.37,1.28-9.57-.78-11.02-10.34-10.63-21.62.88-43.33,2.97-64.86,1.83-26.21-1.4-52.29-5.46-78.38-8.68-13.26-1.64-18.47,1.14-22.17,13.93-1.75,6.06-2.54,12.38-3.93,18.55-2.37,10.57-6.91,12.9-16.34,8.23-4.74-2.35-9.28-5.1-13.77-7.6Z"/>
  <path class="st0" d="M483.19,756.15c-15.76-9.05-30.39-17.43-45-25.86-2.87-1.66-5.92-3.15-8.41-5.28-5.33-4.55-6.36-9.57-3.8-16.14.6-1.54,1.34-3.06,2.23-4.45,11.89-18.59,20.34-38.83,28.94-59.06,7.67-18.05,17.26-35.32,24.36-53.57,9.64-24.77,17.72-50.16,26.48-75.28,1.2-3.45,2.13-7.04,3.76-10.28,3.38-6.69,8.06-8.36,14.85-5.33,3,1.34,5.9,3.17,8.43,5.28,12.12,10.1,25.56,17.96,39.86,24.49,2.11.96,4.23,2.04,6.09,3.41,4.31,3.17,5.55,8,3.96,13.18-1.75,5.69-3.53,11.4-4.86,17.2-2.18,9.48-5.73,10.81-13.87,4.91-6.19-4.48-12.19-9.3-18.75-13.17-7.1-4.18-10.12-2.93-12.37,5.14-12.82,46-34.99,87.57-59.92,127.88-9.39,15.19-8.13,21.12,6.39,31.51,4.33,3.09,9.08,5.6,13.33,8.78,7.14,5.33,7.41,10.34.84,16.43-4.13,3.83-8.73,7.14-12.53,10.21Z"/>
  <path class="st0" d="M1804.33,1839.83c1.58,8.47,2.75,16.34,4.56,24.05,1.74,7.42,4.12,14.69,6.27,22.02.94,3.19,2.34,6.27,2.96,9.51,2.05,10.77-1.4,16.24-12.01,19.41-66.8,20-131.54,45.1-193.01,78.26-.29.16-.58.34-.87.48-13.46,6.74-20.28,3.61-22.17-11.2-2.16-16.94-5.89-33.37-11.71-49.43-3.99-11.03-2.12-14.01,8.86-19.15,3.89-1.82,7.45-4.35,11.07-6.71,8.8-5.73,12.44-4.1,13.9,6.13.99,6.91,1.82,13.89,3.51,20.64,2.46,9.83,5.03,10.59,14.13,6.22,15.59-7.5,31.23-14.91,46.99-22.07,27.48-12.48,57.2-17.59,85.98-25.78,1.6-.46,3.27-.67,4.85-1.18,9.31-2.98,12.62-7.15,12.22-16.83-.23-5.61-1.5-11.19-2.4-16.77-.42-2.62-1.35-5.18-1.6-7.81-.82-8.55,2.06-11.9,10.59-11.69,5.63.14,11.24,1.14,17.88,1.87Z"/>
  <path class="st0" d="M421.92,905.5c-.24,4.45-.81,7.67-.52,10.82,2.58,28.57,3.78,57.17.65,85.74-1.95,17.84-4.63,35.62-7.35,53.37-2.81,18.32.18,23.2,18.25,27.5,4.85,1.15,9.84,1.69,14.69,2.84,9.78,2.32,11.91,6.89,7.42,16-2.34,4.74-5.11,9.27-7.65,13.81-18.31-1.82-35.68-8.01-54.23-7.76-12.7.18-17.16-7.27-16.03-19.77,1.85-20.51,3.08-41.09,4.22-61.65,1-17.94,2.51-35.93,2.01-53.85-.84-30.25-3.09-60.46-4.76-90.68-.05-1-.22-1.99-.29-2.98-.87-13.72,4.6-18.92,17.87-15.41,17.78,4.71,35.73,7.59,54.08,8.57,7.94.42,11.04,4.42,11.6,12.03.44,5.94,1.43,11.83,2.17,17.75,1.07,8.61-1.63,11.06-10.14,9-5.17-1.25-10.22-3.12-15.44-4.01-5.11-.87-10.38-.86-16.57-1.32Z"/>
  <path class="st0" d="M2182.76,587.78c7.99-1.53,16.13-2.81,24.14-4.7,7.42-1.75,14.69-4.13,22.02-6.26,3.5-1.02,6.92-2.51,10.5-3.09,9.85-1.6,15.81,1.7,18.07,11.26,9.08,38.41,25.51,74.23,39.37,110.88,10.09,26.68,24.07,51.89,36.34,77.74,1.57,3.31,3.54,6.43,4.96,9.8,4.09,9.67,1.38,15.06-8.88,17.85-2.23.61-4.58.89-6.89,1.13-15.32,1.6-30.07,5.42-44.56,10.59-13.33,4.75-15.38,3.55-21.47-9.03-1.87-3.87-4.49-7.37-6.8-11.02-5.19-8.2-3.45-11.64,6.39-13.11,7.56-1.13,15.2-2.07,22.57-3.99,7.94-2.07,9.18-5.15,5.09-12.4-23.3-41.31-37.13-86.02-47.77-131.89-.23-.97-.48-1.94-.73-2.9-3.88-14.89-9.15-18.46-24.46-16.11-5.91.91-11.68,2.76-17.6,3.54-9.15,1.21-13.07-2.76-12.28-12.02.45-5.29,1.29-10.54,2.02-16.27Z"/>
  <path class="st0" d="M2251.73,1293.01c16.14,9.16,31.64,18.09,47.26,26.79,12.2,6.79,13.71,13.79,7.1,26.23-9.19,17.31-17.62,35.04-26.12,52.71-7.35,15.29-15.22,30.42-21.33,46.21-11.03,28.54-20.9,57.53-31.26,86.33-1.46,4.06-2.52,8.34-4.49,12.14-3.24,6.28-7.71,7.77-14.12,4.88-3.3-1.49-6.5-3.46-9.29-5.76-11.64-9.62-24.47-17.24-38.14-23.55-2.71-1.25-5.5-2.55-7.81-4.4-3.9-3.12-5.46-7.12-3.76-12.29,2.07-6.29,3.68-12.72,5.48-19.1,2.2-7.79,5.53-9.08,12.19-4.44,6.28,4.37,12.15,9.38,18.65,13.36,8.51,5.21,11.17,3.9,14.17-5.76,11.48-37.04,26.07-72.65,47.27-105.35,5.25-8.09,9.8-16.64,14.59-25.02,6.1-10.69,5.23-16.33-4.45-24.25-4.87-3.99-10.41-7.16-15.63-10.72-9.81-6.69-10.13-11.84-1.09-19.51,3.8-3.22,7.81-6.19,10.76-8.51Z"/>
  <path class="st0" d="M2287.8,933.08c6.97,1.37,13.72,2.92,20.56,3.98,8.52,1.32,17.1,2.24,25.65,3.31.66.08,1.33.02,2,.04,19.08.74,25.02,7.8,20.88,25.8-1.63,7.09-2.06,14.52-2.35,21.83-1.11,27.94-2.83,55.91-2.62,83.85.22,29.61,2.38,59.2,3.7,88.8.24,5.32.9,10.66.59,15.95-.39,6.69-3.59,9.56-10.25,9.69-3.29.07-6.75-.19-9.87-1.14-15.4-4.66-31.07-7.39-47.18-7.6-2.63-.03-5.33-.51-7.87-1.24-4.55-1.31-7.18-4.42-7.76-9.26-.83-6.91-1.83-13.8-2.72-20.7-.88-6.78,1.63-9.41,8.41-8.53,2.29.29,4.49,1.21,6.75,1.75,5.5,1.3,10.97,2.85,16.55,3.75,9.69,1.56,12.25-.89,11.51-10.47-.47-5.97-1.22-11.92-1.67-17.89-3.15-42.17,2.02-83.78,8.49-125.3,2.09-13.4-.79-18.28-13.75-22.13-5.71-1.7-11.69-2.54-17.56-3.69-11.55-2.25-14.19-7.28-8.94-17.5,2.27-4.41,4.84-8.66,7.45-13.29Z"/>
  <path class="st0" d="M1669.16,359.77c0-4.63-1.05-8.76.17-12.06,7.64-20.76,5.16-40.79-.81-61.66-6.3-22.03-10.5-44.79-10.56-67.95-.01-4.83.28-10.38,2.57-14.37,7.76-13.55,16.45-26.58,24.89-39.74.62-.97,2.08-1.42,3.19-2.14,1.02.88,2.13,1.38,2.41,2.17,4.9,13.48,15.88,17.05,28.62,17.39,5.64.15,11.33-.94,16.95-.66,13.88.7,18.91,6.01,19.55,19.77.39,8.37.99,8.92,9.23,9.49,3.97.27,7.97.52,11.86,1.29,4.15.83,8.22,3.27,7.99,7.65-.16,3.09-2.63,6.89-5.21,8.88-11.3,8.75-23.08,16.88-34.57,25.39-6.69,4.95-13.34,9.98-19.67,15.38-11.25,9.58-18.57,21.7-21.84,36.16-4.73,20.95-17.96,36.88-31.14,52.84-.55.67-1.57.96-3.63,2.16Z"/>
  <path class="st0" d="M504.81,703.33c.86-.99,1.36-2.11,2.17-2.4,12.96-4.74,16.97-15.05,17.17-27.62.1-6.33-.53-12.67-.24-18.98.58-12.7,6.04-17.93,18.64-18.47q9.57-.42,10.37-10.39c.27-3.32.51-6.66,1.09-9.93.74-4.18,2.85-7.7,7.15-8.81,4.64-1.21,7.46,2.05,9.87,5.32,8.08,10.98,16.05,22.04,24.08,33.06,3.73,5.12,7.34,10.32,11.27,15.28,11.06,13.99,24.62,24.05,42.46,28.06,20.55,4.61,36.22,17.79,51.78,30.96.65.55.97,1.48,2.19,3.44-4.73,0-8.88,1.05-12.19-.17-20.76-7.68-40.81-5.07-61.65.85-22.05,6.25-44.8,10.47-67.95,10.55-4.83.02-10.38-.3-14.38-2.59-13.55-7.76-26.58-16.45-39.73-24.9-.98-.63-1.4-2.13-2.09-3.24Z"/>
  <path class="st0" d="M637.8,998.6c-4.57,6.2-10.59,6.71-15.96,6.91-17.89.69-32.38,8.34-46.11,19.24-20.65,16.4-42.91,30.48-66.98,41.45-2.61,1.19-5.71,1.74-8.59,1.78-17.18.28-33.63-4.17-50.11-8.23-.81-.2-1.4-1.24-2.41-2.18.59-1.2.89-2.58,1.74-3.4,8.91-8.62,8.97-18.9,5.24-29.58-2.19-6.27-5.62-12.09-7.92-18.33-4.81-13.04-1.87-19.66,10.79-25.62,7.61-3.58,7.77-4.04,5.1-12.11-1.15-3.47-2.36-6.95-3.04-10.52-.76-4.02-.65-8.18,3.17-10.85,3.89-2.72,7.64-1.06,11.17,1.1,12.2,7.46,24.36,14.98,36.58,22.4,5.69,3.46,11.4,6.89,17.25,10.08,15.13,8.24,31.08,11.11,48.27,8.18,21.39-3.65,41.13,3.62,61.81,9.67Z"/>
  <path class="st0" d="M1750.04,1861.34c-.49.17-.86.44-1.11.36-16.17-5.93-28.31.25-38.57,12.59-2.96,3.57-6.22,7-9.83,9.9-8.77,7.04-16.15,7.08-23.9-1-7.59-7.92-10.13-5.82-16.23.14-2.8,2.74-6.12,5.27-9.66,6.88-7.09,3.21-12.58-1.02-12.15-8.86.04-.66.22-1.31.32-1.97,2.71-16.73,5.52-33.44,8.12-50.19,3.29-21.24,2.17-41.56-9.85-60.6-11.34-17.97-12.54-38.62-14.12-60.39,6.49,2.56,9.34,6.68,11.36,11.1,8,17.5,21.67,28.65,38.26,37.82,22.15,12.25,42.87,26.87,61.36,44.36,2.1,1.98,4.06,4.43,5.22,7.04,7.05,16.02,9.18,33.25,11.94,50.31.13.79-.79,1.74-1.16,2.51Z"/>
  <path class="st0" d="M1333.05,103.01c4.8,3.68,7.45,6.25,10.57,7.98,7.46,4.13,15.38,3.96,23.16.96,6.19-2.39,12.11-5.49,18.3-7.91,14.5-5.69,22.5-.2,26.51,10.7,2.86,7.75,3.86,7.71,12.02,4.93,3.45-1.18,6.88-2.57,10.44-3.29,4.05-.82,8.17-.4,10.79,3.36,2.7,3.87,1.09,7.63-1.07,11.17-7.45,12.18-14.96,24.32-22.37,36.52-3.62,5.97-7.24,11.95-10.54,18.1-7.97,14.85-10.63,30.52-7.82,47.3,3.6,21.41-3.36,41.21-9.8,61.98-5.95-4.62-6.57-10.53-6.76-15.88-.66-17.86-8.25-32.36-19.16-46.06-16.4-20.6-30.38-42.85-41.51-66.81-.69-1.48-1.54-3.05-1.64-4.62-1.3-19.54,4.24-37.91,8.88-58.43Z"/>
  <path class="st0" d="M2205.12,642.16c-.38,1.63-.48,2.92-.97,4.05-4.26,9.67-1.71,18.33,4.32,26.12,3.23,4.17,7.46,7.55,11.14,11.38,3.21,3.35,6.74,6.53,9.31,10.33,4.85,7.17,4.2,13.48-1.39,20.06-2.34,2.76-4.89,5.33-7.77,8.45,1.66,2.52,2.94,4.74,4.5,6.74,1.43,1.83,3.29,3.32,4.72,5.14,3.54,4.5,7.54,9.38,3.95,15.26-3.49,5.71-9.24,3.37-14.51,2.57-20.02-3.01-40.05-6.11-60.15-8.55-16.01-1.94-31.06,1.49-44.83,10.21-17.21,10.9-36.81,12.82-56.39,14.65-1.46.14-2.97-.39-5.17-.72,1.98-5.6,5.91-8.22,10-10.07,18.24-8.21,29.43-22.69,38.95-39.8,12.13-21.8,26.58-42.24,43.93-60.36,2.41-2.52,5.7-4.93,9-5.77,15.74-4.03,31.61-7.54,47.47-11.09,1.01-.23,2.29.79,3.88,1.39Z"/>
  <path class="st0" d="M1864.96,1558.38c7.59-.14,11.76,2.81,15.32,6.1,14.14,13.1,31.08,17.94,49.92,20.07,25.47,2.88,50.47,8.86,74.61,17.83,2.39.89,4.63,2.62,6.47,4.44,12.47,12.27,21.31,27.18,30.07,42.12.28.49.04,1.28.04,2.13-.78.46-1.6,1.34-2.42,1.34-13.91,0-22.1,7.8-27.09,19.86-2.29,5.53-3.97,11.34-6.5,16.75-5.54,11.85-12.76,14.63-25.04,10.18-8.73-3.16-8.69-3.14-12.81,5.19-1.62,3.27-3.2,6.62-5.26,9.61-2.34,3.39-5.56,6.03-10.07,5.01-4.07-.92-5.66-4.27-6.57-8.03-3.2-13.24-6.43-26.47-9.65-39.71-1.49-6.15-2.76-12.35-4.48-18.43-4.94-17.48-13.71-32.32-28.94-43.03-17.84-12.56-27.04-31.51-37.61-51.44Z"/>
  <path class="st0" d="M1344.57,1754.99c1.24,4.67,3.29,9.3,3.56,14.03,1.06,18.41,8.56,33.62,20,47.9,16.04,20.02,29.95,41.63,40.29,65.24,1.91,4.36,3.01,9.76,2.4,14.4-1.97,14.81-4.9,29.5-7.57,44.22-.22,1.18-1.31,2.21-2.2,3.65-1.38-.6-2.83-.8-3.63-1.64-8.56-8.87-18.8-9.2-29.53-5.54-5.96,2.03-11.51,5.22-17.39,7.54-13.97,5.52-20.56,2.8-27.05-10.83-3.25-6.83-4.05-7.12-11.56-4.7-3.79,1.22-7.58,2.56-11.48,3.26-4.03.72-8.04.31-10.6-3.69-2.39-3.74-.74-7.12,1.17-10.27,7.57-12.51,15.38-24.86,22.87-37.42,4.43-7.42,8.71-14.95,12.53-22.69,5.57-11.29,8.15-23.29,5.98-35.86-3.57-20.65.79-40.39,6.43-60,.71-2.48,2.05-4.79,3.1-7.17l2.69-.42Z"/>
  <path class="st0" d="M1066.67,1690.67c-.69,5.14-.54,10.57-2.24,15.35-5.95,16.78-4.78,33.12.19,49.94,7.47,25.28,11.45,51.27,12.85,77.61.14,2.55-.41,5.3-1.33,7.7-6.35,16.69-17.09,30.7-27.7,44.78-.34.45-1.17.53-2.4,1.05-.83-1.09-2.05-2.18-2.64-3.54-4.49-10.4-13-14.85-23.66-15.53-6.62-.42-13.31.26-19.96.18-15.15-.18-20.31-5.16-21.21-20.2-.47-7.88-.69-8.09-8.71-8.86-3.97-.38-8.21-.09-11.83-1.44-3.09-1.15-6.51-3.71-7.89-6.57-2.02-4.15,1.13-7.5,4.55-9.99,11.82-8.59,23.7-17.12,35.49-25.76,5.37-3.93,10.7-7.93,15.86-12.12,12.81-10.4,21.55-23.44,25.23-39.67,4.67-20.57,17.67-36.23,30.68-51.86.59-.71,1.57-1.08,2.36-1.62l2.34.53Z"/>
  <path class="st0" d="M833.76,1523.04c-.17,6.91-3.33,11.3-6.89,15.15-12.6,13.65-17.25,30.02-19.3,48.13-2.92,25.82-8.98,51.11-17.94,75.59-.87,2.38-2.68,4.58-4.48,6.44-11.97,12.32-26.71,20.84-41.21,29.67-.74.45-1.93.14-2.79.18-.58-.58-1.43-1.03-1.43-1.48-.03-15.24-8.81-23.68-22.09-28.69-5.29-2-10.76-3.66-15.79-6.19-10.76-5.4-13.37-12.56-9.31-23.79,3.43-9.49,3.36-9.36-6.1-14.08-3.82-1.91-7.82-3.99-10.79-6.95-5.03-5.01-3.59-10.5,2.86-13.49.9-.42,1.84-.81,2.8-1.04,14.54-3.48,29.11-6.84,43.62-10.42,7.1-1.75,14.17-3.69,21.13-5.9,14.05-4.46,25.86-12.32,34.35-24.51,12.29-17.63,30.48-27.45,48.63-37.36,1.11-.61,2.51-.69,4.72-1.27Z"/>
  <path class="st0" d="M529.5,1406.86c7.61-17.34.04-29.29-12.23-39.87-4-3.45-7.89-7.26-10.93-11.55-5.32-7.5-4.6-13.89,1.41-20.86,1.08-1.26,2.26-2.46,3.49-3.56,3.73-3.34,3.76-6.71.35-10.31-2.51-2.66-5.16-5.25-7.26-8.22-2.7-3.8-5.44-7.91-2.57-12.84,2.99-5.13,7.93-4.08,12.5-3.38,17.72,2.71,35.43,5.54,53.14,8.37,19.39,3.11,37.7.91,54.69-9.83,18.4-11.63,39.41-12.67,60.78-15.01-.51,6.19-4.38,8.72-8.09,10.36-20.37,8.99-32.19,25.53-42.73,44.31-11.39,20.29-24.94,39.37-41.23,56.24-2.23,2.31-4.94,4.48-7.84,5.76-15.7,6.92-32.58,9.11-49.34,11.64-.86.13-1.83-.53-4.13-1.25Z"/>
  <path class="st0" d="M985.05,186.45c16.95,7.93,28.69.52,39.16-11.3,3.51-3.97,7.18-7.96,11.39-11.13,8.02-6.05,14.9-5.39,22.45,1.33,2.44,2.17,4.83,4.39,7.73,7.04,2.8-2.09,5.19-3.76,7.45-5.58,2.07-1.67,3.9-3.64,6.03-5.22,4.14-3.06,8.66-5.71,13.69-2.31,4.76,3.22,3.35,8.26,2.65,12.82-2.9,18.71-6.2,37.36-8.79,56.1-2.43,17.63.07,34.49,9.79,49.89,11.79,18.69,13.52,39.84,15.28,61.54-5.98-.19-8.44-4.15-10.05-7.83-8.96-20.41-25.58-32.14-44.35-42.69-20.28-11.4-39.35-24.98-56.22-41.26-2.31-2.23-4.48-4.95-5.75-7.86-6.84-15.72-9.13-32.57-11.6-49.36-.13-.86.48-1.83,1.16-4.18Z"/>
  <path class="st0" d="M2097.97,1047.56c4.32-1.24,8.6-3.34,12.98-3.58,19.11-1.04,34.88-8.8,49.72-20.71,19.75-15.85,41.14-29.52,64.47-39.73,3.81-1.67,8.46-3.03,12.43-2.47,15.79,2.22,31.46,5.23,47.16,8.05.87.16,1.58,1.16,2.84,2.13-.76,1.33-1.28,2.92-2.33,3.97-7.74,7.72-8.79,16.9-5.68,26.78,1.49,4.73,3.89,9.18,5.7,13.82,1.69,4.32,3.72,8.63,4.58,13.14,1.64,8.63-1.36,14.01-9.09,17.99-1.47.76-3.1,1.22-4.59,1.95-5.98,2.92-6.34,3.71-4.35,10,1.2,3.81,2.84,7.5,3.71,11.38.98,4.35.78,8.75-3.35,11.72-4,2.87-7.67.83-11.12-1.26-12.5-7.59-24.87-15.41-37.44-22.87-7.72-4.58-15.54-9.05-23.64-12.89-10.72-5.08-22.16-7.42-34.03-5.36-20.65,3.58-40.42-.59-60.04-6.3-2.73-.79-5.25-2.31-7.87-3.5,0-.75-.01-1.5-.02-2.25Z"/>
  <path class="st0" d="M693.69,396.53c18.55.83,26.55-10.57,31.69-25.51,1.62-4.7,3.29-9.48,5.72-13.79,5.25-9.29,11.86-11.49,21.87-7.95,1.57.55,3.08,1.26,4.62,1.9,3.73,1.57,6.42.47,8.21-3.12,2.08-4.16,3.94-8.47,6.4-12.39,2.39-3.79,5.8-6.73,10.78-5.5,4.56,1.13,5.77,5.18,6.72,9.12,4.05,16.79,8.08,33.58,11.99,50.4,4.84,20.79,14.31,38.38,32.36,50.98,16.11,11.25,24.34,28.75,33.52,45.34.55,1,.39,2.39.8,5.39-4.4-1.86-7.8-2.81-10.66-4.62-3.92-2.49-7.43-5.62-11.1-8.49-9.46-7.4-20.33-11.02-32.15-12.45-27.48-3.31-54.58-8.45-80.62-18.09-3.92-1.45-8.49-3.3-10.87-6.4-10.07-13.17-19.45-26.88-29-40.45-.47-.67-.16-1.89-.29-4.37Z"/>
  <path class="st0" d="M1901.46,525.85c-.04-8.1,4.56-12.71,8.54-17.41,8.62-10.17,13.9-21.63,16-34.87,3.01-19.04,6.27-38.06,10.26-56.91,2.13-10.03,5.7-19.81,9.31-29.45,1.32-3.53,4.05-7.07,7.1-9.32,12.56-9.27,25.47-18.06,38.3-26.95.7-.48,1.86-.3,3.53-.53.43,1.55,1.21,3.01,1.2,4.47-.07,10.97,5.87,18.12,14.92,22.97,4.66,2.5,9.87,3.93,14.73,6.09,4.23,1.88,8.58,3.7,12.38,6.28,6.23,4.23,7.87,10.46,5.82,17.61-.64,2.23-1.61,4.38-2.59,6.48-2,4.27-.34,6.95,3.54,8.85,3.88,1.89,7.9,3.58,11.53,5.88,3.74,2.37,6.87,5.63,5.85,10.65-.95,4.65-4.85,5.91-8.87,6.87-15.82,3.77-31.69,7.39-47.44,11.44-7.71,1.98-15.3,4.51-22.77,7.25-11.58,4.25-20.93,11.73-27.97,21.75-12.53,17.85-30.82,28.02-49.38,37.89-.83.44-1.88.46-4,.93Z"/>
  <path class="st0" d="M2033.93,1325.26c5.15.76,10.59.73,15.41,2.43,16.44,5.8,32.49,4.76,48.98-.13,25.27-7.5,51.23-11.61,77.58-12.93,3.18-.16,6.65.48,9.61,1.67,15.91,6.39,29.42,16.76,43.12,26.76.68.5.86,1.68,1.21,2.41-.38.79-.52,1.72-.96,1.89-14.31,5.59-18.46,17.14-18.34,31.17.05,5.97.95,12.01.32,17.9-1.29,11.95-6.26,16.22-18.13,16.98-2.93.19-5.85.43-9.66.71-.42,4.76-.77,8.96-1.16,13.16-.55,6.03-.8,12.75-7.87,14.68-7.03,1.92-9.46-4.44-12.77-8.94-11.64-15.78-23.16-31.66-35.17-47.15-10.35-13.35-24.09-21.73-40.63-25.49-19.9-4.52-34.89-17.4-50.17-29.74-.94-.76-1.49-2-2.22-3.02.28-.79.57-1.58.85-2.36Z"/>
  <path class="st0" d="M1527.56,1263.03c-5.28,5.38-9.63,9.36-13.42,13.81-4.09,4.81-7.38,10.31-11.52,15.07-7.33,8.42-14.21,9.4-23.94,3.88-7.17-4.07-14.23-8.32-22.43-13.13-1.44-6.28-3.24-14.04-5-21.81-.37-1.62-1.11-3.39-.78-4.89,3.08-13.81-3.43-25.95-6.52-38.68-1.33-5.5-2.68-11.01-3.5-16.6-.49-3.32.04-6.78,1.13-10.41,10.9,10.22,15.97,24.63,28.51,34.09,5.35-16.8,1.7-32.36-3.57-47.45,6.06-2.4,8.4.84,11.02,3.17,8.27,7.38,12.21,17.38,15.92,27.36,3.3,8.88,8.57,17.01,9.37,26.89.41,5.03,4.76,7.69,9.27,9.59,9.04,3.81,14.23,10.64,15.46,19.12Z"/>
  <path class="st0" d="M1303.9,1195.19c-1.26,14.04-6.93,27.6-5.51,42.9,17.06-6.9,23.67-22.55,32.36-36.19.76.17,1.52.35,2.27.52.84,3.31,2.5,6.66,2.34,9.93-.26,5.58-.69,11.5-2.77,16.58-5.22,12.75-8.26,26.51-16.77,37.82-3.55,4.71-3.35,9.76-1.31,15.1,3.42,8.97,2.92,17.56-3.04,25.08-7.45,0-14.62-.29-21.76.1-4.95.27-9.83,1.69-14.78,2.22-11.09,1.18-17.76-3.48-20.68-14.25-2.14-7.9-4.19-15.82-6.6-24.94,6.78-10.32,12.4-23.33,24.29-31.81,2.2-1.57,3.22-4.84,4.72-7.36,5.92-10,11.65-20.11,17.81-29.96,1.78-2.84,4.76-4.92,7.18-7.35l2.24,1.62Z"/>
  <path class="st0" d="M1197.22,960.78c-14.23-.56-27.95-7.23-43.25-4.72,7.42,16.23,22.13,23.44,36.07,31.47-.15.78-.31,1.56-.46,2.34-2.55.79-5.05,1.99-7.66,2.29-12.48,1.44-23.4-3.78-34.42-8.47-8.42-3.58-17.24-6.22-24.66-12.04-4.13-3.24-8.87-1.46-13.32.23-8.73,3.33-16.89,2.54-24.7-3.82,3.16-10.83-.03-21.5-1.46-32.24-2.11-15.89,2.08-22.12,17.62-25.47,3.57-.77,7.18-1.42,10.67-2.48,3.12-.95,6.1-2.38,9.39-3.69,11.64,7.35,24.42,13.3,32.97,25.08,1.6,2.2,4.9,3.16,7.44,4.67,9.99,5.93,20.06,11.71,29.92,17.84,2.67,1.66,4.71,4.31,7.04,6.51-.4.83-.8,1.67-1.2,2.5Z"/>
  <path class="st0" d="M1532.97,948.66c5.92-4.07,11.85-8.11,17.75-12.22,5.83-4.07,11.97-7.84,16.74-14.79-17.51-4.82-33.14-1.32-48.69,4.19l-1.28-3.12c1.89-2.83,3.48-5.93,5.73-8.45,7.35-8.24,17.39-12.14,27.37-15.81,8.88-3.26,17-8.54,26.87-9.35,5.02-.41,7.53-4.9,9.46-9.38,3.7-8.59,10.16-13.79,18.23-15.07,7.34,6.32,14,12.11,20.73,17.81,1.77,1.5,3.8,2.69,5.64,4.12,12.33,9.57,13.58,16.78,5.33,29.82-2.66,4.21-5.24,8.49-7.63,12.86-.93,1.7-1.24,3.73-2.01,6.16-13.67,2.41-27.02,8.54-41.82,5.32-2.28-.5-5.04,1.19-7.58,1.87-11.22,2.99-22.4,6.17-33.69,8.86-3.27.78-6.88.12-10.34.12-.27-.98-.53-1.95-.8-2.93Z"/>
  <path class="st0" d="M1234.32,900.45c-12.77-6.38-23.26-17.13-38.25-21.48,1.47,18,11.1,30.91,21.98,43.19-5.01,3.61-8.7,2.43-11.72.77-5.78-3.18-12.09-6.16-16.55-10.79-9.08-9.46-20.33-16.93-26.91-28.77-2.73-4.9-7.62-5.77-12.88-6.03-9.9-.5-17.97-4.32-21.8-12.36,2.66-6.11,5.22-11.01,6.92-16.19,1.97-5.98,2.9-12.3,4.78-18.31,3.76-12.02,10.32-15.85,22.66-13.87,7.43,1.19,14.88,2.24,24.09,3.61,6.63,9.65,16.49,19.75,19.8,33.98.68,2.94,3.6,5.38,5.56,8,6.94,9.32,14.02,18.53,20.77,27.98,1.77,2.48,2.52,5.69,3.74,8.57-.73.57-1.46,1.13-2.18,1.7Z"/>
  <path class="st0" d="M1094.36,1007.71c12.98,2.32,26.74,2.84,38.92,10.2,2.61,1.57,6.34,1.33,9.58,1.79,11.19,1.59,22.42,2.94,33.57,4.8,3.33.56,6.43,2.5,9.54,4.92-13.61,6.36-29.09,5.58-42.62,13.4,13.72,11.68,29.77,13.9,46,14.89-.45,6.45-4.34,7.4-7.49,8.9-10.32,4.9-21.38,4.41-32.38,4.26-9.5-.14-19,1-28.47-1.58-4.94-1.35-8.71,2.23-12.22,5.48-6.85,6.34-14.76,8.67-24.23,5.95-.64-9.77-5.98-17.51-11.08-25.19-13.11-19.72-7.69-27.57,7.57-36.86,4.46-2.72,8.17-6.66,13.32-10.96Z"/>
  <path class="st0" d="M1606.39,1183.31c-3.05,8.25-5.63,14.63-7.74,21.16-1.63,5.05-2.33,10.41-4.06,15.43-3.57,10.37-8.87,13.71-19.72,12.63-6.28-.62-12.5-1.85-18.78-2.56-2.22-.25-4.52.22-6.88.37-8-11.63-17.63-21.97-21.05-36.13-.64-2.64-3.31-4.79-5.07-7.15-7.13-9.61-14.36-19.14-21.33-28.87-1.81-2.53-3.83-5.46-1.72-9.94,13.19,6.63,23.68,17.45,38.74,21.79-1.38-17.68-10.45-30.78-21.72-42.4,3.59-4.75,6.71-3.19,9.84-2.2,11.65,3.66,19.69,12.17,27.73,20.64,6.29,6.63,13.76,12.12,18.23,20.53,2.36,4.44,7.3,5.27,12.24,5.28,9.81.02,17.23,4.36,21.28,11.41Z"/>
  <path class="st0" d="M1267.73,1175.94c-.5,2.99-.66,6.09-1.58,8.95-3.49,10.92-11.54,18.55-19.56,26.1-6.9,6.49-12.39,14.45-21.21,18.96-4.11,2.1-5.3,6.62-5.23,11.24.16,10.21-4.2,17.94-12.17,22.82-5.37-2.42-10.23-4.99-15.36-6.8-4.69-1.65-9.68-2.43-14.52-3.64-16.82-4.21-20.74-10.3-17.98-27.27,1.06-6.5,1.61-13.09,2.51-20.7,10.48-7.04,20.62-17.02,34.95-20.19,2.64-.58,4.8-3.32,7.17-5.09,9.6-7.16,19.09-14.46,28.85-21.39,2.43-1.73,5.7-2.26,9.23-2.47-5.69,13.79-16.46,24.3-20.89,39.09,17.91-.49,30.37-10.98,42.98-21.16.93.51,1.87,1.03,2.8,1.54Z"/>
  <path class="st0" d="M1650.78,1081.28c-4.38,8.6-.83,17.12-.22,25.63.26,3.63,1.31,7.22,1.5,10.85.61,11.68-3.56,17.29-14.82,20.14-3.54.9-7.22,1.3-10.71,2.34-4.05,1.2-7.97,2.85-12.69,4.57-11.3-7.04-24.35-13.15-33.12-25.21-1.58-2.18-4.97-3.03-7.5-4.55-10.25-6.14-20.57-12.17-30.67-18.55-2.52-1.59-6.08-3.31-4.49-8.34,14.17.97,27.89,7.31,43.15,5.15-7.51-16.38-22.3-23.58-36.53-31.94,4.48-5.69,9.77-5.67,14.33-4.63,9.01,2.05,18.01,4.6,26.57,8.04,8.77,3.52,18.16,5.79,25.68,12.26,4.24,3.64,9.38,1.9,14.23.19,8.69-3.07,16.99-2.51,25.27,4.06Z"/>
  <path class="st0" d="M1361.04,842.51c-4.6-13.63-4.22-28.76-11.78-41.97-12.14,13.04-13.31,29.48-15.37,45.19-6.03.65-6.84-3.47-8.37-6.59-5.04-10.26-4.62-21.32-4.39-32.29.19-9.46-1.28-18.96,1.52-28.39,1.46-4.91-1.84-8.79-5.15-12.3-6.66-7.04-9.01-15.25-6.62-23.35,6.29-2.6,11.84-4.52,17.04-7.16,5.33-2.7,10.17-6.33,15.45-9.14,11.03-5.88,18.55-4.09,25.95,5.88,2.38,3.2,4.44,6.65,6.92,9.76,2.24,2.81,4.87,5.32,8.06,8.76-2.26,12.15-2.42,25.51-9.28,37.53-1.85,3.24-2.11,7.5-2.69,11.35-1.67,11.16-2.94,22.39-4.79,33.52-.56,3.35-2.48,6.48-3.78,9.71-.91-.18-1.81-.35-2.72-.53Z"/>
  <path class="st0" d="M1513.52,853.3c-18.98.76-31.2,11.97-44.26,21.39-.61-.49-1.22-.98-1.83-1.47.57-3.41.28-7.31,1.89-10.12,3.77-6.57,7.67-13.4,12.95-18.7,8.57-8.61,15.77-18.77,26.81-24.81,4.53-2.48,5.3-7.19,5.56-12.11.52-9.83,3.82-18.19,11.97-21.89,7.71,2.91,14.02,5.54,20.49,7.66,4.73,1.55,9.78,2.13,14.52,3.64,11.89,3.79,15.73,10.47,13.75,22.85-1.19,7.44-2.18,14.92-3.47,23.87-9.88,6.92-20.16,16.61-34.32,20.06-2.66.65-4.91,3.14-7.26,4.91-9.03,6.81-17.92,13.81-27.07,20.44-2.84,2.06-6.37,3.17-11.85,5.82,1.25-4.16,1.43-6.28,2.44-7.88,4.43-7.05,9.25-13.85,13.6-20.95,2.21-3.61,3.7-7.66,6.09-12.7Z"/>
  <path class="st0" d="M1487.59,778.5c-7.06,10.92-12.76,23.85-24.63,32.35-2.22,1.59-3.28,4.83-4.78,7.37-5.91,10-11.62,20.12-17.77,29.97-1.76,2.82-4.73,4.88-8.26,6.72.03-14.76,5.87-28.55,4.1-43.91-16.34,7.24-23.71,21.73-31.02,35.24-5.61-.81-5.11-4.25-5.41-7.08-1.35-12.49,3.64-23.46,8.49-34.43,3.7-8.37,6.1-17.3,12.01-24.7,3.55-4.45,1.24-9.52-.44-14.27-3.14-8.84-2.04-16.89,4.59-24.24,8.59,3.81,17.22,1.43,25.49-.24,24.71-5.01,30.07,3.28,32.61,21.44.71,5.12,3.13,9.99,5.04,15.79Z"/>
  <path class="st0" d="M1549.47,1017.93c13.5-4.12,28.15-4.27,42.34-11.68-7.7-6.02-15.41-9.97-23.96-12.14-4.48-1.13-9.21-1.26-13.8-1.94-2.75-.41-5.48-1.02-8.18-1.53.52-6.39,4.95-7.1,8.42-8.68,10.38-4.74,21.45-4.13,32.42-3.75,8.85.31,17.69.98,26.51,1.76,5.19.46,8.93-1.87,12.39-5.23,7.05-6.86,15.32-8.86,23.18-6.64,3.55,7.6,6.43,14.21,9.7,20.62,2.26,4.44,5.34,8.46,7.55,12.92,5.09,10.24,3.25,17.43-5.94,24.36-3.19,2.4-6.67,4.42-9.78,6.91-3.06,2.45-5.81,5.29-9.26,8.48-13.14-2.39-27.2-3.57-40.39-10.42-6.31-3.27-14.96-1.87-22.5-2.96-7.23-1.05-14.43-2.42-21.55-4.03-2.67-.6-5.1-2.25-7.64-3.43.16-.87.33-1.75.49-2.62Z"/>
  <path class="st0" d="M1128.64,1184.61c-4.48-4.62-8.08-8.89-12.26-12.49-4.78-4.11-10.27-7.39-15.13-11.43-9.89-8.21-10.89-15.17-4.34-26.19,3.85-6.49,7.59-13.04,12.21-20.99,11.35-2.55,24.21-7.28,38.26-5.57,3.39.41,7.06-1.08,10.55-1.91,11.94-2.82,23.83-5.87,35.82-8.51,2.49-.55,5.29.32,8.08,1.47-10.75,10.31-24.59,16.02-34.41,28.06,17.2,6.04,32.73,1.29,48.23-3.3,1.88,6.06-1.61,8.61-4.21,11.38-8.03,8.57-18.99,11.94-29.33,16.48-8.12,3.57-16.18,7.02-25.03,8.46-4.74.77-7.07,4.64-8.83,8.75-3.99,9.31-10.82,14.84-19.61,15.79Z"/>
  <path class="st0" d="M1264.99,824.46c-6.22,17.14-1.2,32.7,3.19,48.12-5.53,2.4-7.88-1.01-10.44-3.26-9.12-8.03-12.68-19.29-17.27-30-3.5-8.15-7.09-16.18-8.52-25.05-.84-5.19-5.23-7.36-9.58-9.34-8.5-3.85-13.78-10.2-14.82-18.78,4.94-5.2,9.59-9.82,13.92-14.74,2.63-2.99,4.72-6.45,7.11-9.65,10.41-13.95,17.35-15.13,31.98-5.84,5.25,3.33,10.83,6.14,17.78,10.04,2.68,11.04,7.19,23.55,5.81,37.25-.38,3.76.9,7.76,1.78,11.57,2.83,12.29,5.94,24.52,8.65,36.84.48,2.2-.45,4.71-.96,9.08-11.05-12.46-16.61-26.48-28.61-36.24Z"/>
  <path class="st0" d="M1385.66,1248.79c11.93-14.15,13.91-29.99,15.48-47.7,3.28,2.63,5.66,3.6,6.37,5.28,2.31,5.48,5.38,11.15,5.69,16.87.77,14.44,2.29,29.02-.66,43.41-1.33,6.49.24,11.62,4.92,16.3,6.66,6.66,8.57,14.77,6.32,23.2-6.18,2.68-11.94,4.94-17.48,7.66-3.87,1.9-7.42,4.45-11.14,6.66-15.02,8.92-21.68,7.36-31.72-6.95-3.76-5.36-8.09-10.32-12.74-16.19,2.4-12.52,3.61-26.26,10.13-39.21,3.36-6.67,2.05-15.6,3.23-23.46,1.08-7.23,2.48-14.43,4.14-21.55.61-2.59,2.39-4.9,4.66-7.17,5.38,13.83,5.42,28.8,12.8,42.83Z"/>
  <path class="st0" d="M409.85,773.5c9.21-7.89,9.39-17.89,8.53-28.24,1.87,0,3.02-.37,3.65.05,16.92,11.21,33.79,22.48,50.64,33.8,2.2,1.48,4.25,3.21,6.3,4.91,4.25,3.54,5.62,7.65,3.92,13.29-3.26,10.81-5.81,21.84-8.8,32.73-1.05,3.83-2.14,7.74-3.87,11.28-4.82,9.85-11.96,13.33-22.88,11.23-5.21-1-10.26-2.86-15.48-3.84-10.09-1.88-20.24-3.41-30.38-5.07-.65-.11-1.33-.01-1.99-.07-11.3-.98-13.21-2.89-13.15-14.09.03-5.65.3-11.34,1.03-16.93,1.26-9.65,6.06-11.8,14.41-6.32,5.27,3.46,10.1,7.6,15.1,11.48,12.73,9.9,17.06,8.87,23.78-5.71,4.85-10.52,4.06-14.23-5.47-21.18-7.76-5.66-15.85-10.86-25.34-17.33Z"/>
  <path class="st0" d="M2203.45,1569.8c-4.36,9.58-8,18.84-12.71,27.52-3.35,6.2-8.53,6.47-12.73.79-4.53-6.13-8.1-12.98-11.94-19.59-7.55-13.01-11.61-13.71-22.89-3.72-9.18,8.13-9.93,12.49-3.28,23.31,4.86,7.9,10.16,15.53,15.4,23.48-3.95,3.44-8.48,6.41-11.66,10.44-3.01,3.82-4.59,8.76-6.92,13.42-.91-.36-2.14-.45-2.57-1.08-10.32-15.13-20.59-30.29-30.79-45.5-2.04-3.04-3.84-6.24-5.6-9.46-4.93-9.06-4.55-10.63,1.99-18.63,5.47-6.7,10.52-13.75,15.73-20.66,1.8-2.39,3.45-4.92,5.33-7.25,11-13.63,21.28-15.07,35.23-4.47,12.2,9.26,23.82,19.3,38.33,25.06,2.68,1.06,4.87,3.35,9.07,6.35Z"/>
  <path class="st0" d="M2346.71,889.61c-.31,5.61-1.28,10.9-.69,16.01.55,4.76,2.76,9.33,4.21,13.9-1.04.53-1.66,1.15-2.14,1.05-20.86-4.1-41.77-7.98-62.54-12.52-12.29-2.69-12.8-4.35-14.02-16.78-.97-9.91-2.94-19.72-4.29-29.6-.54-3.93-1.12-7.97-.78-11.88.88-10.12,5.65-15.52,15.6-18.2,3.19-.86,6.51-1.3,9.79-1.72,13.52-1.72,27.08-3.03,39.86-8.44,3.23-1.37,7.03-1.39,10.79-2.07,7.09,8.97,9.83,19.29,12.42,29.48,1.43,5.62-2.82,9.33-9.18,8.24-6.86-1.17-13.57-3.24-20.3-5.08-16.33-4.47-19.54-2.21-20.46,14.55-.57,10.4,2.24,14.54,12.61,17.04,9.61,2.31,19.35,4.03,29.11,6.03Z"/>
  <path class="st0" d="M1116.52,1982.15c-7.75-9.06-17.7-9.43-27.91-8.53-.18-1.7-.73-2.94-.32-3.55,11.78-17.74,23.65-35.42,35.54-53.08,1.11-1.65,2.45-3.15,3.78-4.64,3.46-3.88,7.46-4.75,12.6-3.23,10.83,3.21,21.83,5.86,32.75,8.77,2.57.68,5.18,1.3,7.66,2.24,12.99,4.88,17.59,13.13,14.7,26.55-.98,4.55-2.7,8.94-3.55,13.51-2,10.74-4.14,21.49-5.37,32.34-1.27,11.2-2.75,13.21-14.02,13.14-5.65-.03-11.34-.3-16.94-1.04-9.78-1.3-11.91-5.96-6.36-14.3,3.86-5.81,8.47-11.12,12.71-16.68,8.41-11.03,7.5-15.06-4.8-21.36-12.14-6.22-16.17-5.35-24.26,5.92-5.21,7.26-10.04,14.8-16.21,23.94Z"/>
  <path class="st0" d="M1232.73,45.31c6.05.33,11.06,1.28,15.88.67,4.77-.6,9.34-2.77,15.02-4.58-.4,3.07-.57,5.24-.98,7.36-3.49,17.95-7.01,35.89-10.56,53.83-.39,1.95-.97,3.87-1.54,5.78-3.01,10.17-4.52,10.97-15.37,12.06-10.25,1.03-20.4,2.94-30.61,4.36-3.28.46-6.62.98-9.91.85-11.93-.44-18.24-5.93-20.68-17.7-.61-2.93-1.28-5.88-1.5-8.85-1.05-13.67-3.53-26.94-8.43-39.86-3.55-9.35-2.39-11.25,6.9-15.14,6.13-2.56,12.41-4.88,18.81-6.6,7.3-1.96,10.91,1.21,10.19,8.74-.4,4.26-1.73,8.45-2.79,12.63-1.4,5.48-3.28,10.85-4.36,16.39-1.1,5.65,1.11,9.03,6.74,10.34,4.18.98,8.57,1.46,12.87,1.45,7.81-.03,11.5-2.82,13.5-10.69,2.6-10.25,4.58-20.65,6.84-31.06Z"/>
  <path class="st0" d="M1965.79,235.77c3.69,11.4,12.67,15.68,22.47,18.93-.46,1.46-.46,2.77-1.07,3.18-16.24,11.02-32.54,21.95-48.85,32.86-1.93,1.29-3.98,2.42-6.03,3.53-9.02,4.87-10.64,4.5-18.63-2.02-6.69-5.47-13.72-10.53-20.62-15.74-2.39-1.81-4.92-3.43-7.24-5.32-13.89-11.27-15.3-20.96-4.59-35.11,9.44-12.47,19.36-24.46,25.62-39.12,3.37-7.87,5.49-8.18,13.4-5.17,5.89,2.24,11.67,4.88,17.26,7.81,9.29,4.86,9.77,10.5,1.24,16.26-5.77,3.9-12.08,7.01-18.12,10.53-12.05,7.02-12.7,10.93-3.64,21.58,8.69,10.21,13.05,10.99,24.78,3.71,7.6-4.72,14.93-9.86,24.02-15.91Z"/>
  <path class="st0" d="M1866.77,1877.65c-5.29,1.81-10.55,2.87-15.02,5.36-4.18,2.33-7.52,6.18-12.09,10.09-.81-3.03-1.48-5.08-1.91-7.18-3.61-17.58-7.19-35.16-10.75-52.75-.4-1.95-.67-3.94-.87-5.92-1.22-11.8-.41-12.93,10.37-18.57,6.47-3.39,12.65-7.34,18.94-11.06,4.01-2.37,7.86-5.04,12.03-7.1,13.31-6.58,22.73-3.96,30.65,8.45,2.68,4.2,4.74,8.81,7.54,12.92,5.6,8.21,11.52,16.2,17.31,24.29,2.48,3.47,4.95,6.95,7.53,10.59-5.74,9.54-13.75,16.1-21.94,22.26-5.39,4.06-10.4,2.02-11.97-4.78-1.63-7.1-2.11-14.46-3.09-21.7-2.1-15.46-5.79-17.74-20.38-12.59-11.26,3.98-13.42,7.37-11.51,19.42,1.49,9.43,3.42,18.79,5.16,28.28Z"/>
  <path class="st0" d="M387.07,1159.01c5.09-10.55,1.4-20.15-2.92-29.72,1.53-.47,2.53-1.13,3.37-.97,19.58,3.85,39.15,7.77,58.71,11.73,1.95.39,3.86,1.01,5.77,1.6,9.11,2.79,10.52,4.71,11.57,13.88,1.1,9.58,2.61,19.1,3.8,28.67.53,4.29,1.04,8.63.98,12.93-.18,12.18-5.38,18.55-17.28,20.83-7.18,1.37-14.59,1.59-21.73,3.11-9.4,2-18.65,4.72-27.93,7.25-8.92,2.43-10.18,2.09-13.87-6.23-2.56-5.77-4.82-11.71-6.67-17.75-3-9.79.92-13.96,11.23-11.96,5.54,1.07,10.94,2.87,16.41,4.34,2.89.78,5.75,1.75,8.68,2.3,6.89,1.29,9.82-.55,11.6-7.47.74-2.87,1.02-5.91,1.13-8.88.44-11.11-1.75-14.3-12.49-16.99-9.61-2.4-19.36-4.27-30.35-6.65Z"/>
  <path class="st0" d="M512.89,1524.09c.67-11.65-5.48-19.3-14.63-26.39,2.75-1.32,4-2.24,5.38-2.53,16.26-3.42,32.52-6.81,48.81-10.05,5.21-1.04,10.51-1.65,15.77-2.41,5.96-.86,10.17,1.35,13.14,6.73,5.47,9.88,11.31,19.56,16.93,29.36,1.65,2.88,3.34,5.78,4.56,8.85,4.36,11.02,1.94,19.33-7.68,26.1-3.52,2.48-7.36,4.54-11.14,6.63-10.51,5.8-20.76,11.9-29.34,20.51-2.52,2.53-5.89,4.22-9.13,6.47-10.04-5.15-16.4-13.74-22.76-22.08-3.84-5.03-1.99-9.66,4.42-11.33,7.03-1.83,14.35-3.01,21.6-3.49,15.35-1.01,18.8-5.09,12.8-21.59-3.5-9.61-7.28-12.07-17.42-10.59-9.81,1.43-19.51,3.58-31.3,5.79Z"/>
  <path class="st0" d="M1550.7,44.43c11.07,0,20.99-.6,30.81.2,7.02.57,9.19,6.04,5.23,12.51-3.63,5.93-8.22,11.28-12.48,16.8-9.83,12.73-8.79,17.15,5.72,23.83,10.12,4.65,14.51,3.66,21.24-5.61,5.64-7.76,10.85-15.83,16.39-23.96,4.74,2.38,9.18,5.43,14.1,6.83,4.66,1.32,9.82.9,14.97,1.26,0,1.08.36,2.23-.05,2.88-9.24,14.21-18.5,28.42-27.92,42.51-3.14,4.7-6.75,9.07-10.12,13.62-3.63,4.89-8.31,6.13-14.1,4.53-11.21-3.08-22.49-5.89-33.69-8.99-3.82-1.06-7.71-2.26-11.18-4.11-8.88-4.72-12.26-11.64-10.34-21.52,1.39-7.16,3.81-14.13,5.22-21.29,1.6-8.11,2.59-16.34,3.85-24.51.7-4.56,1.42-9.11,2.34-14.98Z"/>
  <path class="st0" d="M804.68,201.93c5.58-9.29,13.65-15.76,21.81-21.95,5.12-3.88,9.76-2.27,11.45,4.04,1.89,7.02,2.71,14.36,3.65,21.61,2.16,16.79,5.62,18.99,21.21,13.12,10.2-3.85,12.48-7.3,10.83-18.19-1.19-7.89-3.09-15.66-4.63-23.5-.37-1.87-.57-3.77-1.02-6.88,11.72.53,19.38-6.25,26.55-14.39,1.03,1.82,1.73,2.56,1.9,3.41,4.18,21.21,8.49,42.4,12.37,63.66,1.79,9.81.12,11.98-8.52,16.67-8.18,4.45-16.11,9.35-24.14,14.06-2.01,1.18-3.95,2.49-5.99,3.6-16.09,8.78-25.57,6.28-34.82-9.66-7.69-13.25-14.72-26.88-25.9-37.76-2.04-1.98-3.06-5-4.74-7.85Z"/>
  <path class="st0" d="M1502.3,2004.92c-10.74-4.74-20.41-1.76-29.9,3.1-.52-1.69-1.17-2.68-1.01-3.5,4-20.22,7.77-40.49,12.26-60.6,3.13-14.01,4.64-14.53,18.76-15.69,7.93-.65,15.77-2.41,23.69-3.35,5.6-.66,11.28-1.3,16.88-1.02,8.93.45,15.09,5.27,17.11,14.11,1.62,7.11,2.15,14.46,3.61,21.62,1.85,9.08,4.13,18.08,6.28,27.1.61,2.58,1.5,5.09,2.1,7.67.95,4.11-.34,7.23-4.41,8.82-7.43,2.9-14.73,6.24-22.37,8.42-7.58,2.16-11.57-1.79-10.25-9.67.93-5.55,2.69-10.97,4.12-16.44.76-2.9,1.75-5.74,2.38-8.66,2.01-9.4-.35-12.77-10.02-14.31-2.29-.37-4.64-.45-6.97-.49-9.89-.14-13.41,2.18-15.83,11.56-1.99,7.71-3.27,15.61-4.87,23.43-.45,2.19-.88,4.39-1.58,7.9Z"/>
  <path class="st0" d="M769.01,1813.23c-3.78-11.66-12.92-15.74-22.3-18.79.17-1.47,0-2.41.34-2.63,16.51-11.23,33.05-22.42,49.64-33.53,2.76-1.85,5.77-3.33,8.69-4.92,4.98-2.71,9.38-1.9,13.82,1.63,8.86,7.04,18,13.72,26.95,20.65,2.89,2.24,5.8,4.54,8.25,7.23,7.35,8.03,8.18,16.3,2.42,25.53-2.81,4.5-6.53,8.44-9.44,12.89-5.98,9.16-11.69,18.51-17.53,27.77-2.11,3.34-4.27,6.65-6.53,10.15-10.99-1.28-19.98-6.42-28.81-11.5-6.1-3.51-6-8.11-.55-12.86,1.99-1.73,4.33-3.1,6.62-4.45,4.31-2.53,8.72-4.88,13.05-7.37,12.87-7.38,13.49-11.62,3.42-22.93-8.08-9.08-12.11-9.88-22.38-3.61-8.18,4.99-16.08,10.46-25.67,16.75Z"/>
  <path class="st0" d="M2347.58,1208.3c0,10.32.61,20.27-.2,30.1-.61,7.36-5.71,9.54-12.2,5.56-6.2-3.82-11.84-8.57-17.63-13.03-12.25-9.43-16.4-8.45-23.11,5.66-4.86,10.22-3.98,14.82,5,21.41,7.98,5.86,16.31,11.23,25.61,17.58-9.1,7.57-9.48,17.84-8.96,27.98-1.78.1-2.6.41-3.02.12-17.71-11.77-35.56-23.36-53-35.51-10.03-6.99-9.99-9-6.32-21.1,2.51-8.26,4.39-16.71,6.32-25.13,5.68-24.77,14.02-29.86,38.2-22.98,12.48,3.55,24.9,7.17,38.11,6.94,3.51-.06,7.04,1.46,11.21,2.4Z"/>
  <path class="st0" d="M2191.32,461.11c6.9,7.3,13.87,13.95,19.96,21.34,5.07,6.16,3.04,11.22-4.82,13.21-4.82,1.22-9.85,1.59-14.79,2.3-3.62.52-7.29.8-10.87,1.5-10.04,1.94-11.84,4.74-9.38,14.36.66,2.57,1.46,5.13,2.47,7.59,3.47,8.48,7.2,10.78,16.21,9.37,10.13-1.58,20.19-3.58,30.39-5.42,1.76,5.03,2.86,10.31,5.4,14.76,2.4,4.21,6.31,7.56,9.51,11.23-.5.8-.76,1.73-1.19,1.81-19.54,4.05-39.09,8.04-58.65,11.98-2.28.46-4.61.7-6.93.89-10.22.82-11.5-.16-16.42-9.25-4.43-8.19-9.4-16.09-14.11-24.13-1.68-2.87-3.48-5.7-4.9-8.7-6.24-13.19-3.97-22.31,8.46-29.82,14.53-8.77,29.77-16.41,41.91-28.68,1.56-1.57,3.99-2.28,7.77-4.34Z"/>
  <path class="st0" d="M532.82,479.93c1.35-10.59,6.4-19.28,11.18-27.92,3.51-6.35,9.07-6.47,13.51-.47,3.74,5.05,6.59,10.77,9.82,16.2,1.7,2.86,3.15,5.9,5.11,8.57,4.21,5.74,7.35,6.24,13.55,2.37,1.97-1.23,3.79-2.72,5.54-4.25,9.53-8.28,10.32-12.38,3.74-23.11-4.99-8.14-10.44-16.01-16.31-24.97,11.06-4.09,16.03-12.91,18.52-23.29,2.08,1.05,2.9,1.18,3.22,1.66,11.84,17.68,23.9,35.23,35.35,53.16,6.68,10.47,5.89,12.09-2.19,21.88-5.5,6.67-10.38,13.84-15.53,20.79-1.39,1.87-2.71,3.8-4.17,5.61-11.22,13.88-20.9,15.31-35.08,4.66-12.5-9.38-24.27-19.78-39.17-25.53-2.64-1.02-4.7-3.5-7.08-5.35Z"/>
  <path class="st0" d="M1867.1,1473.99c11.71-.82,21.34,7.87,22.95,21.33-8.58.74-13.74,6.91-19,12.86-7.47,8.44-15.58,16.23-20.73,26.68-4.09,8.3-12.77,10.52-21.47,7.38-5.24-1.89-8.23-5.44-8.69-11.01-.13-1.66-.26-3.35-.06-4.99,1.45-12-1.03-22.42-11.12-30.26-1.97-1.53-3.39-4.19-4.27-6.61-2.92-8.08-5.48-16.29-8.46-25.29,15.06-5.81,20.61,7.71,29.15,14.37,5.4-4.01,6.3-5.89,3.23-10.23-2.85-4.02-6.72-7.31-10.1-10.97-5.06-5.5-9.29-11.28-6.33-19.33,24.23,3.49,41.4,17.04,54.89,36.07Z"/>
  <path class="st0" d="M1974.27,734.96c2.64-10.6,13.52-16.08,26.76-13.72,1.53,19.14,10.26,35.25,21.35,50.32,3.25,4.41,6.02,8.83,5.04,14.61-2.08,12.28-11.15,17.22-22.76,12.38-2.46-1.02-4.88-2.14-7.29-3.26-6.7-3.11-13.57-3.67-20.2-.23-6.24,3.24-12.62,3.57-19.4,2.88-6.25-.64-12.56-.65-18.8-.94-1.58-10.7,1.82-13.89,22.64-21.31,1.43-4.85-.48-7.94-5.59-7.5-4.18.36-8.22,2.3-12.33,3.5-4.75,1.38-9.45,3.15-14.3,3.94-4,.65-7.86-.58-9.78-4.17,12.66-20.4,31.29-31.42,54.65-36.5Z"/>
  <path class="st0" d="M1600.58,362.49c6.48,3.91,11.4,7.94,17.04,10.07,11.74,4.44,23.19,9.88,36.23,10.42,7.68.32,12.59,5.31,14.62,12.94,2.22,8.36.12,13.5-7.62,17.17-3.29,1.56-6.8,2.68-10.22,3.96-6.93,2.59-12.1,7.14-14.38,14.23-2.26,7.02-6.74,11.93-12.49,16.28-4.96,3.75-9.29,8.32-14.37,12.97-10.54-12.13-1.39-22.02,2.36-32.6-2.78-4.31-6.45-4.52-9.52-.72-2.64,3.28-4.12,7.49-6.19,11.24-2.39,4.33-4.36,9.04-7.5,12.75-2.07,2.45-5.88,3.43-9.03,5.13-6.52-24.62-.37-45.66,12.11-65.51-5.49-9.59-1.25-22.08,8.96-28.32Z"/>
  <path class="st0" d="M1974.53,1002.53c19.62-15.22,41.03-17,63.63-13.56,8.19-8.82,21.16-9.5,31.82-1.04-4.92,5.64-4.77,12.61-4.41,19.56.63,12.25.05,24.53,4.18,36.55,2.73,7.95-.69,14.4-7.52,18.95-6.32,4.22-11.43,3.94-17.24-1.09-1.76-1.52-3.43-3.19-4.87-5.01-6.5-8.16-14.69-12.11-25.29-11.15-2.85.26-6.1-.3-8.71-1.49-8.12-3.68-16.01-7.84-24.27-11.96,1.27-6.87,6.2-9.32,12.03-10.02,4.92-.59,9.98.02,14.94-.36,1.61-.12,4.1-1.41,4.42-2.63.39-1.47-.67-4.52-1.86-4.99-3.59-1.43-7.51-2.23-11.36-2.73-5.57-.73-11.28-.56-16.77-1.59-4.31-.8-8.08-3.16-8.73-7.45Z"/>
  <path class="st0" d="M1817.34,524.71c-1.69-10.84,7.01-20.6,19.72-22.73,8.24,17.05,22.45,28.22,38.01,37.83,9.39,5.79,12.85,11.75,10.75,21.22-1.51,6.8-5.4,10.35-12.44,10.81-3.98.26-7.99.06-11.98-.1-7.43-.29-13.85,2.06-18.7,7.7-4.55,5.29-10.21,8.18-16.87,9.95-6.05,1.61-11.88,4.08-17.78,6.16-4.84-9.93-4.14-11.43,13.55-29.13-1.87-5.63-5.88-5.87-10.1-3.24-3.33,2.07-5.95,5.25-9.01,7.78-3.56,2.95-6.99,6.23-10.99,8.42-3.35,1.83-7.5,3.11-10.56-.11,3.71-23.86,16.96-40.98,36.41-54.57Z"/>
  <path class="st0" d="M704.79,790.55c3.26-4,6.98-6.88,8.41-10.63,5.06-13.28,11.72-26.06,12.66-40.72.59-9.26,5.84-14.37,14.88-16.13,6.9-1.34,11.63.76,14.82,7.1,1.78,3.55,3.01,7.38,4.4,11.11,2.58,6.93,7.07,12.13,14.15,14.42,7,2.27,11.95,6.68,16.3,12.44,3.75,4.97,8.33,9.3,13.02,14.43-12.02,10.62-21.88,1.48-32.1-2.24-4.36,5.09-4.69,6.95-.46,10.14,3.12,2.35,7.01,3.65,10.52,5.5,4.08,2.16,8.36,4.06,12.09,6.72,3.28,2.35,5.72,5.67,4.36,9.96-23.62,6.82-44.44-.35-64.33-12.28-9.15,5.56-21.7,1.23-28.71-9.82Z"/>
  <path class="st0" d="M1077.7,417.67c-10.49-2.73-15.98-13.92-13.43-26.86,18.84-1.22,34.68-9.85,49.46-20.61,9.68-7.04,17.3-7.7,25.19-.91,4.5,3.87,6.18,8.55,4.09,14.27-.8,2.18-1.64,4.38-2.76,6.4-5.17,9.38-5.79,18.6-.98,28.57,1.87,3.88,1.71,8.97,1.65,13.5-.11,7.24-.91,14.47-1.46,22.33-15.78-.82-16.29-14.45-21-24.13-6.69.94-8.33,2.28-7.34,7.42.81,4.18,3.02,8.06,4.16,12.2,1.3,4.74,2.68,9.6,2.91,14.45.13,2.78-1.98,5.66-2.93,8.13-21.76-12.48-31.97-31.61-37.56-54.76Z"/>
  <path class="st0" d="M1359.82,1638.26c14.5,7.03,9.09,20.12,10.57,30.71,6.71,1.3,8.36.74,9.37-4.47.75-3.87.27-7.96.67-11.92.46-4.6.83-9.28,2.06-13.7,1.08-3.9,3.47-7.27,7.31-7.37,14.43,19.53,17.05,41.1,13.11,63.91,8.78,7.62,9.59,19.58,2.1,30.71-17.88-6.67-35.83-3.95-53.63.07-10.33,2.33-16.83.96-22.05-6.44-4.62-6.55-4.4-12,1.05-18.01,2.45-2.71,5.27-5.09,7.93-7.6,5.38-5.06,8.5-11.16,7.79-18.66-.69-7.35,1.71-13.61,5.37-19.83,3.15-5.35,5.42-11.21,8.34-17.4Z"/>
  <path class="st0" d="M2001.3,1248.82c9.64-5.48,20.73-1.85,28.73,9.23-12.43,14.52-17.84,31.91-20.43,50.39-1.04,7.4-3.65,13.37-11.12,16.34-9.46,3.76-16.16,1.16-20.21-8.2-1.32-3.05-2.32-6.23-3.53-9.32-2.53-6.52-6.79-11.49-13.55-13.69-7.29-2.38-12.54-7-17.05-13.09-3.51-4.75-7.93-8.83-11.91-13.18,7.33-8.02,12.83-7.73,31.54,1.54,4.42-2.51,5.03-6.12,1.23-9.34-3.2-2.71-7.43-4.19-11.18-6.26-4.33-2.39-8.93-4.43-12.85-7.36-3.14-2.35-5.69-5.72-4.06-9.74,23.68-5.71,44.84-.04,64.4,12.67Z"/>
  <path class="st0" d="M797.21,1251.65c-1.24,12.44-2.11,13.2-24.31,22.18,1.27,6.45,2.62,8.03,7.68,7.1,3.87-.71,7.47-2.74,11.31-3.79,5.07-1.38,10.21-2.95,15.4-3.31,2.73-.19,5.63,2.03,8,2.99-12.45,21.93-31.83,31.9-54.15,37.41-3.5,10.77-15.29,16.41-28.53,13.12,2.23-7.75-.73-14.67-4.12-21.51-5.3-10.71-9.68-21.78-17.71-31.11-5.88-6.84-3.75-17.38,3.12-23.39,3.89-3.41,8.24-4.15,13.01-2.17,3.69,1.53,7.34,3.17,10.99,4.78,6.41,2.83,12.95,3.41,19.32.27,7.18-3.54,14.39-4.15,22.28-2.75,5.46.97,11.24.19,17.72.19Z"/>
  <path class="st0" d="M1134.43,1686.72c-6.45-3.97-11.32-8.12-16.95-10.2-12.07-4.48-23.85-9.85-37.17-10.7-9.73-.62-16.5-10.78-14.14-20.29.84-3.39,4.02-6.67,6.95-8.92,2.79-2.14,6.6-3.04,10.06-4.19,7.77-2.6,13.24-7.56,15.8-15.35,2.07-6.28,6.03-10.81,11.21-14.8,5.2-4.01,9.84-8.74,15.37-13.74,10.07,12.03,1.59,21.99-2.32,32.25,5.12,4.23,7.1,4.54,10.2.36,2.32-3.14,3.6-7.04,5.45-10.54,2.15-4.08,4.05-8.37,6.74-12.08,2.35-3.26,5.67-5.76,10-4.38,6.23,23.41.17,44.4-12.27,64.05,5.41,9.73,1.28,21.82-8.93,28.53Z"/>
  <path class="st0" d="M928.26,1453.28c4.52,15.12-7.4,20.62-14.68,28.98.9,4.92,4,6.72,8.41,4.29,3.69-2.04,6.71-5.31,10.04-8.01,3.59-2.91,6.97-6.16,10.85-8.61,3.42-2.16,7.42-3.1,11.08-.35-3.31,24.05-17.04,41.14-36.05,54.7.99,11.42-7.71,21.14-21.17,23.03-.7-8.22-6.32-13.44-12.1-18.46-8.75-7.6-16.6-16.17-27.43-21.38-8.15-3.93-10.39-11.89-7.73-20.48,2.08-6.7,5.06-9.08,12.23-9.63,1.65-.13,3.35-.19,4.99,0,11.35,1.41,21.05-1.31,28.52-10.56,1.6-1.98,4.01-3.7,6.41-4.58,8.37-3.07,16.9-5.72,26.62-8.94Z"/>
  <path class="st0" d="M1620.26,1576.8c20.99,12.68,31.53,31.29,36.66,53.66,11.23,4.25,16.96,16.29,13.21,28.88-7.43-2.04-14.13.56-20.68,3.88-10.65,5.39-22.05,9.27-31.16,17.63-5.8,5.33-12.91,4.67-19.55.8-6.89-4.01-8.9-9.35-6.5-16.93.6-1.9,1.37-3.78,2.34-5.51,5.27-9.35,6.28-18.75,1.04-28.52-1.07-1.99-1.87-4.44-1.81-6.66.24-9.58.84-19.14,1.35-29.61,16.31,1.15,16.56,15.49,21.78,25.08,6.82-2.35,8.24-3.98,6.69-9.7-1.37-5.1-4.01-9.86-5.69-14.9-2.15-6.45-3.68-12.99,2.32-18.1Z"/>
  <path class="st0" d="M938.71,585.26c-15.14,4.52-21.03-7.42-29.05-15.04-4.97,1.9-6.73,5.07-4.03,9.35,2.28,3.6,5.56,6.54,8.23,9.9,3.07,3.87,6.3,7.69,8.79,11.92,1.86,3.16,2.43,6.93-1.88,10.95-9.74-4.4-20.69-7.79-29.8-13.92-8.94-6.01-16-14.8-24.66-23.11-9.38,1.05-18.6-6.86-21.72-20.25,17.16-8.1,28.39-22.26,37.97-37.87,5.85-9.54,11.64-13.03,21.08-11.07,6.93,1.44,10.29,5.18,10.96,12.27.12,1.32.26,2.69.07,3.99-1.85,12.52,1.41,23.06,11.67,31.06,1.26.98,2.36,2.51,2.89,4.01,3.19,9.01,6.18,18.09,9.47,27.82Z"/>
  <path class="st0" d="M753.71,1017.03c-7.09,14-19.65,9.92-30.66,10.1-1.51,6.9-.74,8.99,5.17,9.95,5.2.85,10.61.39,15.92.62,6.9.3,13.25,1.75,16.65,8.86-19.34,14.38-40.87,17.74-63.9,13.54-8.04,8.38-20.77,9.13-31.1,1.91,6.96-17.84,3.93-35.78.02-53.56-2.22-10.1-1.19-16.08,5.65-21.43,6.49-5.08,12.76-4.94,18.89.51,1.49,1.32,2.92,2.75,4.16,4.31,6.71,8.42,15.18,12.53,26.14,11.73,3.16-.23,6.68.61,9.61,1.91,7.56,3.38,14.89,7.29,23.45,11.56Z"/>
  <path class="st0" d="M1331.95,353.48c-8.56-7.37-9.22-21.01-.99-31.54,5.17,4.85,11.79,4.89,18.39,4.52,12.56-.71,25.18.1,37.52-4.19,7.94-2.76,14.51.65,18.98,7.38,4.06,6.11,3.77,11.78-.96,17.35-.86,1.01-1.78,2.01-2.83,2.81-9.67,7.4-14.91,16.75-13.58,29.31.23,2.21-.26,4.77-1.21,6.79-3.8,8.07-7.9,16-11.89,23.96-10.38-4.18-12.11-9.13-10.48-29.54-6.12-2.27-8.27-1.9-9.4,3.41-1.16,5.43-.84,11.19-1.14,16.8-.39,7.18-1.48,13.97-9.14,17.31-14.17-19.6-17.51-41.25-13.26-64.38Z"/>
  <path class="st0" d="M893.02,809.39c-9.35,3.86-16.62,2.27-23.38-.16-21.51-7.75-40.95-19.11-58.05-34.48-10.85-9.75-14.89-22.57-16.99-36.15-1.21-7.84,1.07-14.92,7.26-20.82,3.72-3.54,6.64-8.21,8.98-12.84,3.26-6.45,7.24-11.98,13.69-15.38,4.3-2.27,8.93-3.51,13.07.02,3.85,3.29,2.54,7.4,1.81,11.91-1.15,7.1-1.85,14.61-.79,21.66,3.64,24.14,13.64,45.87,27.37,65.88,6.28,9.15,14.2,16.6,27.01,20.36Z"/>
  <path class="st0" d="M1152.66,1500.92c1.92,6.55,2.29,13.01.12,19.33-7.97,23.23-20,44.03-36.98,61.96-9.53,10.06-21.95,13.27-34.77,15.2-7.86,1.18-14.81-1.4-20.62-7.6-3.49-3.72-8.26-6.51-12.89-8.84-6.78-3.4-12.34-7.77-15.64-14.7-1.96-4.12-2.83-8.36.73-12.06,3.11-3.23,6.91-3.54,10.99-1.73,7.38,3.27,15.08,2.23,22.58.99,24.02-3.97,45.75-13.72,65.69-27.44,9.11-6.27,16.73-14.03,20.79-25.11Z"/>
  <path class="st0" d="M1552.22,1513.45c6.83,2.76,11.41,7.9,14.42,14.22,10.59,22.2,17.09,45.46,17.15,70.24.03,14.47-6.8,26.09-16.05,36.47-4.14,4.64-9.55,7.77-15.92,6.9-6.28-.86-11.81.6-17.45,2.87-7.73,3.1-15.63,3.49-23.25-.27-5.53-2.73-7.38-7.59-4.73-12.34,1.03-1.85,3.28-3.03,5.01-4.48,4.8-4,10.48-7.29,14.28-12.07,16.29-20.56,25.39-44.48,29.91-70.05,1.83-10.38,2.15-21.18-3.38-31.48Z"/>
  <path class="st0" d="M1854.83,840.67c4.57-8.07,9.85-12.54,16.19-15.53,21.91-10.34,44.85-16.74,69.26-16.96,14.47-.13,26.13,6.54,36.62,15.66,5.29,4.6,7.49,10.51,7.38,17.78-.08,5.14,1.2,10.47,2.79,15.43,2.19,6.84,3.53,13.5,1.15,20.51-1.57,4.64-3.74,8.87-9.27,9.13-4.9.23-7.32-2.89-9.6-7.17-2.43-4.56-6-8.9-10.03-12.15-20.97-16.92-45.44-26.2-71.64-31.08-11.49-2.14-20.8-.58-32.85,4.38Z"/>
  <path class="st0" d="M1725.06,1405.39c8.09.06,14.42,3.56,19.85,8.48,16.94,15.36,30.44,33.33,40.46,53.95,6.19,12.73,5.27,25.82,2.17,38.86-2.09,8.79-7.05,15.4-16.59,18.24-4.19,1.25-7.98,4.6-11.36,7.66-5.62,5.08-11.76,8.7-19.39,9.29-4.5.35-8.93-.3-11.23-4.75-2.24-4.34-.42-7.81,2.42-11.72,3.62-4.98,6.77-10.74,8.4-16.65,6.7-24.22,5.95-48.77,1.17-73.19-2.23-11.4-6.39-22.16-15.91-30.17Z"/>
  <path class="st0" d="M1888,1041.97c5.4-5.32,10.24-6.85,15.26-8.09,12.28-3.02,24.54-1.13,36.75.3,13.91,1.63,27.56,4.35,40.52,10.09,12.22,5.41,19.81,15.17,25.97,26.34,3.92,7.11,4.17,14.26.4,21.94-2.09,4.26-2.61,9.52-2.88,14.38-.42,7.61-2.43,14.44-7.51,20.14-2.96,3.33-6.56,6.06-11.37,4.2-4.17-1.61-5.15-5.18-5.94-9.48-1.12-6.09-2.81-12.43-5.82-17.77-12.88-22.82-31.51-40.26-53.36-54.33-8.98-5.78-18.86-9.29-32.01-7.72Z"/>
  <path class="st0" d="M1580.65,547.94c0-4.16-.2-8.34.07-12.48.17-2.63.76-5.32,1.67-7.8,8.36-22.75,19.92-43.57,37.04-61.01,10.42-10.61,23.64-14.18,37.93-14.9,6.71-.34,12.03,2.4,16.87,7.18,3.67,3.63,8.22,6.61,12.85,8.98,6.41,3.29,11.99,7.22,15.38,13.7,2.27,4.32,3.52,9.01-.07,13.06-3.22,3.63-7.22,3.2-11.87,1.77-4.94-1.52-10.54-2.24-15.65-1.64-26.71,3.13-50.71,13.55-72.62,28.82-8.81,6.14-15.92,13.94-19.22,24.58-.79-.08-1.58-.17-2.37-.25Z"/>
  <path class="st0" d="M1350.93,1547.16c6.72,5.94,8.24,13.91,8.35,21.66.34,23.08-2.32,45.75-11,67.49-5,12.52-14.82,20.11-25.66,26.65-7.18,4.33-14.8,4.77-22.91,1.14-4.68-2.09-10.18-2.75-15.38-3.17-7.2-.58-13.81-2.3-19.25-7.18-3.3-2.96-6.19-6.51-4.42-11.33,1.65-4.5,5.24-5.85,10.1-6.47,5.76-.74,11.78-2.48,16.83-5.31,23.17-12.98,40.86-31.82,54.98-54.05,5.59-8.81,9.23-18.44,8.36-29.44Z"/>
  <path class="st0" d="M987.34,1381.85c-.56,6.8-2.85,12.26-6.67,16.77-17.7,20.95-38.71,37.56-64.87,46.65-12.1,4.21-24.24,1.68-35.91-2.7-5.88-2.21-9.56-6.57-12.13-12.48-2.19-5.04-5.42-9.8-8.97-14.03-4.89-5.81-8.36-12-8.71-19.66-.19-4.19.66-8.27,4.71-10.29,4.29-2.14,7.82-.59,11.77,2.35,4.94,3.66,10.76,6.75,16.67,8.41,25.25,7.08,50.76,6.06,76.15.56,10.19-2.21,16.18-5.88,27.95-15.57Z"/>
  <path class="st0" d="M880.1,1208.41c-4.26,7.74-9.24,12.17-15.25,15-23.71,11.2-48.39,18.48-75,16.97-13.72-.78-24.19-8.18-33.67-17.17-4.26-4.04-5.57-9.44-5.67-15.45-.08-5.15-1.74-10.26-2.37-15.43-.8-6.5-2.06-13.08-1.65-19.54.38-6.01,4.95-10.37,9.06-10.54,5.46-.22,7.77,3.4,10.34,7.74,2.8,4.73,6.59,9.25,10.91,12.63,21.71,16.99,46.8,26.24,73.77,30.66,9.52,1.56,17.41.04,29.52-4.87Z"/>
  <path class="st0" d="M1843.99,1239.23c6.61-1.82,13.09-2.11,19.47.07,23,7.85,43.63,19.73,61.26,36.56,11.29,10.78,15.1,24.6,15.49,39.66.16,5.97-1.9,11.25-6.67,14.97-4.94,3.85-7.74,8.92-10.08,14.56-2.91,7-7.89,12.28-14.97,15.36-3.91,1.7-7.9,2.3-11.18-.94-3.05-3.01-3.96-6.62-1.96-10.92,3.07-6.61,2.41-13.52,1.37-20.58-3.57-24.24-13.29-45.97-26.59-66.22-6.45-9.83-14.59-17.94-26.15-22.53Z"/>
  <path class="st0" d="M1383.64,501.77c-4.99-4.63-6.99-10.54-7.44-16.75-1.79-24.52,1.42-48.38,10.11-71.46,5.12-13.58,15.76-21.78,27.85-28.38,6.75-3.68,13.68-3.8,21-.25,4.28,2.07,9.48,2.77,14.32,3.02,7.23.37,13.77,2.15,19.48,6.57,3.87,3,6.74,6.79,5.22,11.99-1.43,4.9-5.56,5.49-10.15,6.29-5.77,1-11.72,2.76-16.79,5.63-23.09,13.03-40.77,31.83-54.88,54.02-5.56,8.74-9.05,18.38-8.72,29.32Z"/>
  <path class="st0" d="M1010.73,644.16c-8.22-.22-13.84-3.18-18.52-7.27-19.52-17.05-35.28-36.95-44.65-61.43-5.04-13.16-2.6-26,1.97-38.65,2-5.55,5.8-9.81,11.67-11.44,6-1.66,10.68-5.05,14.94-9.44,5.57-5.74,12.48-8.78,20.54-8.63,3.71.07,7.54.68,9.24,4.62,1.69,3.91,1.63,7.76-1.89,10.92-5.75,5.17-7.84,12.22-9.59,19.34-6.01,24.36-5.19,48.78-.13,73.15,2.32,11.18,7.24,19.63,16.43,28.81Z"/>
  <path class="st0" d="M1748.53,666.61c-.4-6.84,2.42-12.49,6.52-17.24,16.98-19.68,37.06-35.3,61.46-44.82,12.76-4.98,25.47-2.54,37.86,1.63,5.86,1.98,10.56,5.87,12.3,12.17,1.66,6,5.12,10.63,9.47,14.94,6.21,6.15,9.49,13.7,8.3,22.58-1.02,7.64-8.37,11.28-13.74,6.19-10.51-9.97-23.76-11.74-36.83-13.41-19.59-2.5-39.23-1.57-58.51,3.13-10.11,2.47-19.47,6.55-26.84,14.81Z"/>
  <path class="st0" d="M845.18,1008.33c-5.97,5.3-12.8,7.44-20.21,7.81-21.16,1.06-41.8-1.91-62.09-7.97-14.47-4.32-24.95-13.5-32.63-26.07-4.9-8.02-6.67-16.35-2.2-25.61,2.08-4.3,2.64-9.54,2.99-14.42.52-7.18,2.01-13.84,6.76-19.43,3.17-3.74,6.97-6.55,12.17-4.67,4.72,1.7,5.44,5.66,6.06,10.34.72,5.45,2.4,11.12,5.07,15.91,13.14,23.5,32.17,41.46,54.78,55.67,8.77,5.51,18.44,8.98,29.31,8.42Z"/>
  <path class="st0" d="M1182.69,535.82c-6.19-2.64-10.59-7.04-13.35-12.67-12.22-24.86-20.14-50.85-17.35-78.92,1.3-13.05,8.76-23.36,18.16-32.14,3.84-3.58,8.74-4.16,13.94-4.35,5.19-.19,10.56-.98,15.46-2.66,7.52-2.57,14.85-3.79,22.41-.83,3.85,1.5,7.39,3.77,7.74,8.31.37,4.85-2.54,7.44-6.74,9.91-5.03,2.96-9.96,6.82-13.55,11.39-17.06,21.72-26.36,46.88-30.69,73.92-1.52,9.5-.1,18.9,3.98,28.04Z"/>
  <path class="st0" d="M517.76,762.75c-1.59,23.76,1.82,44.77,8.96,65.53,8.62,25.05,8.53,50.32-2.7,74.9-3.24,7.1-4.29,8.21-10.68,12.68-.68-.56-1.77-1.01-2.08-1.77-8.21-20.36-16.24-40.78-18.51-62.9-3.18-30.96,3.05-59.54,21.43-85.06.54-.75,1.35-1.29,3.58-3.37Z"/>
  <path class="st0" d="M2048.96,496.27c8.05,3.56,15.87,6.93,23.61,10.46,19.88,9.06,37.62,21.13,52.35,37.43,16.06,17.77,25.54,38.55,29.31,63.89-2.67-2.31-4.27-3.54-5.7-4.95-12.33-12.21-25.26-23.44-41.32-30.79-18.06-8.26-34.24-19.41-45.52-36.15-4.96-7.36-8.8-15.57-12.41-23.72-2.06-4.66-3.6-9.96-.33-16.16Z"/>
  <path class="st0" d="M619.65,597.52c-.54-1.61-1.12-2.53-1.11-3.45.36-28.75,1.9-57.25,14.49-83.95,9.94-21.08,24.45-37.95,44.2-50.32,1.01-.63,2.18-1,4.57-2.08-2.24,5.44-4.01,9.6-5.66,13.8-6.15,15.64-9.1,31.86-10.14,48.65-1.65,26.49-10.88,49.95-30.4,68.67-5.86,5.62-7.78,6.6-15.95,8.68Z"/>
  <path class="st0" d="M1107.05,1875.15c21.69.58,42.43-2.3,62.86-9.46,25.3-8.86,50.83-9.19,75.77,2.12,5.39,2.44,10.88,4.96,13.85,12.08-8.26,3.17-16.22,6.27-24.22,9.27-20.77,7.77-42.16,11.99-64.41,10.64-23.79-1.44-45.25-9.15-63.86-24.65Z"/>
  <path class="st0" d="M2115.81,1451.92c0,8.53.23,16.69-.04,24.83-.72,21.1-4.65,41.5-13.33,60.92-9.94,22.23-25.25,39.63-45.92,52.4-.72.45-1.63.58-3.24,1.13,2.31-5.85,4.21-11.06,6.42-16.14,7.7-17.75,7.9-36.84,10.33-55.57,3.04-23.5,12.74-43.9,30.32-60.13,4.03-3.72,8.18-7.8,15.48-7.44Z"/>
  <path class="st0" d="M950.53,238.62c-5.58,5.99-10.54,11.31-15.5,16.63-8.22,8.83-14.67,18.77-19.82,29.73-8.6,18.3-19.95,34.69-37.08,46.05-7.13,4.73-15.04,8.45-22.97,11.73-4.35,1.8-9.48,1.72-14.79,2.58,0-2.81-.43-4.28.07-5.31,6.64-13.76,12.41-28.06,20.35-41.04,19.4-31.73,46.68-53.25,84.02-60.37.98-.19,1.97-.33,2.97-.37.64-.03,1.28.16,2.76.37Z"/>
  <path class="st0" d="M687.96,1551.46c-2.27.2-3.39.65-4.19.32-24.93-10.42-49.18-21.85-68.65-41.45-18.92-19.05-30.49-41.57-34.36-69.51,2.28,2.05,3.84,3.35,5.28,4.77,12.31,12.22,25.16,23.56,41.23,30.92,18.05,8.27,34.42,19.24,45.63,36.03,5.46,8.18,9.47,17.43,13.4,26.51,1.57,3.64,1.15,8.15,1.65,12.41Z"/>
  <path class="st0" d="M1934.11,338.8c-6.03-2.39-11.57-4.38-16.94-6.74-17.48-7.69-36.33-7.58-54.76-10.06-23.54-3.16-43.99-12.8-60.25-30.46-3.78-4.11-7.44-8.41-7.74-15.34,8.7,0,16.92-.22,25.12.04,21.17.66,41.61,4.64,61.08,13.33,22.3,9.96,39.69,25.38,52.5,46.07.45.73.54,1.69.98,3.16Z"/>
  <path class="st0" d="M941.89,1771.38c-3.03,1.32-3.9,2.04-4.77,2.03-28.71-.29-57.18-1.82-83.86-14.34-22.37-10.49-39.92-26.08-52.96-48.35,1.84.31,2.97.26,3.88.68,18,8.28,36.67,13.61,56.63,14.38,18.23.69,35.67,5.11,51.12,14.99,7.76,4.96,14.76,11.28,21.45,17.67,3.4,3.25,5.36,8.02,8.51,12.93Z"/>
  <path class="st0" d="M1783.25,1811.31c5.61-5.8,10.27-10.51,14.8-15.34,9.18-9.8,16.55-20.74,22.27-32.97,8.45-18.06,19.85-34.13,36.83-45.13,7.73-5.01,16.41-8.7,24.98-12.22,3.69-1.52,8.17-1.08,12.63-1.57,0,2.33.3,3.4-.04,4.21-8.81,20.53-17.72,40.96-32.23,58.39-20.43,24.55-45.82,40.16-79.24,44.63Z"/>
  <path class="st0" d="M1284.65,138.75c-20.91,7.92-38.8,16.9-53.97,31.03-14.56,13.57-31.51,23.55-51.35,27.05-9.05,1.6-18.47,1.41-27.72,1.29-3.67-.05-7.31-2.1-10.79-3.19.27-1.76.13-2.61.49-2.98,24.03-24.93,50.16-46.62,84.99-54.81,19.12-4.5,38.11-4.22,58.35,1.61Z"/>
  <path class="st0" d="M1626.73,173.51c-9.25.64-18.43.77-27.45,2.03-8.82,1.23-17.66,3.04-26.18,5.62-15.33,4.63-30.58,9.21-46.83,8.59-13.78-.53-27.05-3.22-39.39-9.61-4.38-2.27-8.78-4.6-10.83-9.29.54-.97.72-1.83,1.19-2.04,29.5-13.04,59.75-22.41,92.64-19,20.65,2.14,39.34,9.3,56.02,21.65.4.3.45,1.06.83,2.06Z"/>
  <path class="st0" d="M1450.08,1910.94c7.88-3.52,13.5-6.02,19.11-8.53,12.55-5.63,23.87-12.98,34.07-22.33,16.52-15.15,35.51-26.11,58.09-28.89,8.75-1.08,17.81.12,26.7.66,2.06.13,4.03,1.8,6.8,3.12-1.82,2.33-2.95,4.31-4.57,5.76-10.17,9.09-19.91,18.79-30.81,26.93-26.51,19.79-56.16,30.12-89.71,26.55-5.79-.62-11.51-1.89-19.68-3.26Z"/>
  <path class="st0" d="M2197.5,796c35.38,33.68,61.89,69.2,60.27,118.77-.28,8.52-2.17,16.98-4.95,25.48-1.85-4.56-3.53-9.21-5.59-13.67-6.43-13.94-14.08-27-24.66-38.41-13.53-14.6-23.76-31.42-27.26-51.3-1.65-9.38-1.41-19.14-1.4-28.72,0-3.37,1.91-6.73,3.59-12.14Z"/>
  <path class="st0" d="M481.29,1107.61c3.21,7.24,5.7,12.9,8.24,18.54,5.64,12.52,12.95,23.87,22.28,34.07,12.73,13.9,22.96,29.54,26.93,48.25,1.98,9.33,2.6,19.05,2.83,28.62.12,4.72-2.04,9.49-3.1,13.99-1.94-.11-2.84.11-3.19-.22-19.05-18.27-36.5-37.71-47.42-62.25-11.4-25.59-13.58-51.85-6.56-81Z"/>
  <path class="st0" d="M2218.34,1284c-.47-8.28-.99-16.45-1.37-24.63-.51-11.09-3.24-21.64-6.88-32.1-4.94-14.21-8.45-28.77-7.85-44.01.54-13.8,3.26-27.09,9.66-39.45,2.27-4.38,4.64-8.76,9.34-10.8.98.6,1.84.81,2.05,1.3,12.72,29.29,22.21,59.24,18.98,91.86-2.09,21.06-9.33,40.08-21.9,57.08-.29.39-1.08.41-2.03.74Z"/>
  <path class="st0" d="M529.45,1101.68c10.58,8.31,19.11,15.61,28.24,22.05,15.2,10.72,27.7,24.02,37.17,39.8,10.52,17.53,15.51,36.61,10.8,57.24-1.59,6.98-4.17,13.37-12.16,16.25-5.29-21.09-15.43-39.7-28.22-57-6.32-8.55-12.63-17.11-18.7-25.84-7.08-10.17-12.56-21.22-15.31-33.31-1.35-5.93-1.21-12.2-1.81-19.19Z"/>
  <path class="st0" d="M1764.5,327.2c16.24,9.46,33.69,15.47,52.09,18.74,12.44,2.21,24.97,3.94,37.43,6.04,13.24,2.23,25.74,6.62,37.36,13.41,5.49,3.2,10.07,7.22,13.88,14.32-13.14-2.78-24.44-.19-35.75,2.13-16.27,3.33-32.59,2.44-48.63-.71-22.66-4.45-41.92-14.9-54.29-35.42-3.53-5.85-5.96-12-2.1-18.51Z"/>
  <path class="st0" d="M1759.65,1767.92c3.06-10.65,6.52-20.67,8.77-30.96,3.98-18.19,11.18-34.96,21.83-50.02,12.73-17.99,29.44-30.54,51.97-34.04,7.15-1.11,13.11.32,17.77,5.27-14.33,10.48-25.67,23.43-35.35,37.8-7.25,10.77-13.73,22.04-20.51,33.12-7.19,11.76-16,22.1-26.83,30.67-5.26,4.16-10.92,7.42-17.65,8.14Z"/>
  <path class="st0" d="M1118.02,1825.91c14.82-2.78,25.47-12.22,37.55-19.03,15.55-8.76,32.36-14.63,50.06-16.12,18.91-1.59,37.24,1.57,52.93,13.65,5.18,3.99,9.35,8.55,9.04,16.32-27.27-3.71-53.55,1.18-79.57,8.38-16.5,4.57-33.22,6.98-50.39,5.11-8.56-.93-12-2.26-19.62-8.32Z"/>
  <path class="st0" d="M976.59,281.86c-7.76,12.46-8.54,26.97-12.79,40.43-8.48,26.91-21.59,50.74-47.1,65.66-7.95,4.65-16.38,7.19-25.38,8.21-6.13.69-11.81-.26-16.26-5.1,14.6-11.33,26.8-24.8,36.77-40.24,6.49-10.05,12.55-20.38,18.79-30.6,6.63-10.87,14.41-20.88,24.49-28.68,5.92-4.58,12.78-7.92,19.22-11.82.75.72,1.51,1.43,2.26,2.15Z"/>
  <path class="st0" d="M2064.91,1421.16c-11.52,20.31-17.57,41.53-20.82,63.72-1.73,11.83-3.12,23.83-6.28,35.31-2.8,10.14-7.42,19.87-12.05,29.38-3.26,6.69-6.13,8.37-13.35,11.66,2.78-11.32.27-22.04-1.92-32.76-3.94-19.29-3.02-38.6,1.95-57.37,5.14-19.41,15.16-36.1,33.01-46.98,5.93-3.61,11.99-5.67,19.46-2.96Z"/>
  <path class="st0" d="M623.78,1414.73c13.18,8.34,27.28,9.21,40.44,13.23,27.37,8.37,51.45,21.57,66.7,47.35,5.07,8.58,7.39,17.78,8.53,27.37.65,5.46-1.24,10.47-5.68,14.27-10.52-14.34-23.6-25.82-38.19-35.52-10.8-7.18-22.05-13.68-33.1-20.48-12.02-7.41-22.55-16.48-31.13-27.74-3.83-5.03-6.69-10.46-7.57-18.48Z"/>
  <path class="st0" d="M1467.47,228.5c19.76,2.66,39.14.85,58.37-3.42,14.94-3.31,29.73-7.63,44.83-9.74,10.37-1.45,21.2-.36,31.73.56,4.64.4,9.06,3.21,13.7,6.21-15.76,4.22-27.02,15.56-40.84,22.25-23.89,11.56-48.58,18.07-75.37,11.57-9.66-2.35-17.97-6.89-25.59-12.96-4.6-3.66-7.34-8.35-6.84-14.47Z"/>
  <path class="st0" d="M1579.9,1798.5c-17.06,4.22-32.29,11.55-46.46,20.99-11.35,7.57-22.18,15.92-33.28,23.87-10.64,7.62-22.07,13.83-34.82,16.93-6.3,1.53-12.93,1.71-19.42,2.5-.28-.65-.56-1.31-.84-1.96,1.09-1.33,2.17-2.68,3.28-4,5.33-6.34,11.24-12.29,15.89-19.09,8.17-11.97,18.09-22.08,29.06-31.42,14.7-12.53,31.72-19.88,50.69-21.39,8.67-.69,17.73,1.7,26.39,3.68,4.9,1.12,8.21,5.21,9.51,9.9Z"/>
  <path class="st0" d="M720.08,486.68c2,14.72,4.06,27.09,5.29,39.55,2.88,29.1.88,57.2-17.43,81.95-5.92,8-13.27,13.97-21.83,18.6-5.13,2.78-10.59,4-16.05.72,10.49-17.93,16.6-37.34,19.85-57.74,1.94-12.16,3.06-24.53,6.17-36.38,2.93-11.15,7.44-22,12.34-32.48,2.38-5.08,7.26-9,11.66-14.22Z"/>
  <path class="st0" d="M2203.25,948.09c-8.31-12.52-21.29-18.43-31.88-27.27-20.82-17.37-37.68-37.46-42.58-65.38-1.82-10.39-1.48-20.51,1.42-30.58,1.62-5.63,4.47-10.33,10.75-12.49,6.62,22.12,17.35,42.02,31.28,60.26,5.65,7.4,11.11,14.95,16.36,22.63,7.76,11.35,13.42,23.68,16.17,37.25,1,4.91,1.6,9.78-1.52,15.57Z"/>
  <path class="st0" d="M970.92,1722.09c-18.68-10.57-38.1-16.88-58.6-20.06-12.17-1.89-24.53-3.09-36.39-6.18-10.84-2.82-21.26-7.46-31.63-11.87-5.81-2.47-10.27-6.96-13.34-12.39,15.31-1.95,30.23-4.81,45.25-5.48,13.21-.59,26.78-.11,39.73,2.36,21.6,4.11,39.8,14.71,51.92,34,3.73,5.93,5.59,12.05,3.07,19.61Z"/>
  <path class="st0" d="M1155.09,250.87c17.17-4.78,32.47-11.94,46.59-21.4,11.59-7.77,22.64-16.34,34.04-24.39,12.06-8.52,25.15-14.85,39.72-17.84,4.87-1,9.65-1.44,13.72.37-8.36,10.92-16.06,21.63-24.43,31.79-17.45,21.19-37.51,38.53-65.8,43.66-10.39,1.88-20.47,1.67-30.57-1.11-6.03-1.66-10.96-4.68-13.28-11.08Z"/>
  <path class="st0" d="M2110.83,632.27c-10.59-3.04-20.29-6.41-30.24-8.55-18.19-3.9-34.93-11.07-50.11-21.55-17.25-11.9-29.55-27.7-33.94-48.69-1.6-7.66-1.92-15.32,4.29-21.48,11.43,14.76,25.18,27.16,40.94,37.27,10.08,6.47,20.43,12.52,30.64,18.79,11.73,7.21,22.07,16.03,30.55,26.93,4.09,5.26,7.26,10.91,7.88,17.28Z"/>
  <path class="st0" d="M564.36,776.41c6.32,11.11,11.94,21.56,18.1,31.69,10.39,17.07,17.12,35.56,18.81,55.27,1.59,18.5-1.7,36.51-13.48,51.94-4.17,5.45-8.84,9.84-16.42,9.12,2.23-21.08.83-41.77-4.22-62.3-4.2-17.08-9.84-33.94-9.92-51.81-.05-10.31-.37-20.71,4.73-30.22.76-1.42,1.76-2.72,2.4-3.69Z"/>
  <path class="st0" d="M2163.36,1124.48c-2.28,20.2-.73,39.28,3.49,58.2,3.33,14.92,7.69,29.71,9.75,44.8,1.46,10.69.33,21.84-.65,32.7-.41,4.56-3.4,8.88-6.18,13.15-3.61-12.51-11.25-22.16-17.34-32.67-14.9-25.72-23.41-52.8-16.48-83.03,2.3-10.04,6.89-18.67,13.31-26.45,3.48-4.22,7.81-7.18,14.09-6.7Z"/>
  <path class="st0" d="M735.37,1073.39c3.2,0,5.53-.6,7.36.1,13.27,5.07,26.81,2.99,40.32,1.93,2.97-.23,6-1.18,8.88-.83,8.79,1.06,16.38-.77,22.86-7.15,8.55-8.43,19.72.24,20.98,8.55.29,1.94.21,4-.04,5.96-.88,6.9-2.17,13.76-2.81,20.69-.63,6.87-4.17,11.29-10.56,12.91-5.09,1.29-10.51,2.3-15.69,2.01-12.53-.72-25.03-2.08-37.49-3.6-5.57-.68-11.09-2.11-16.5-3.67-2.98-.86-5.68-2.7-10.56-5.12,9.67-2.46,16.88-4.29,25.93-6.59-12.52-7.26-26.53-10.29-32.69-25.17Z"/>
  <path class="st0" d="M1318.72,392.17c0,3.5.54,5.56-.09,7.18-5.27,13.57-3.15,27.44-1.97,41.28.25,2.97,1.08,6,.74,8.89-.99,8.43.77,15.71,6.86,21.97,3.73,3.83,5.13,8.45,2.19,13.65-3.1,5.47-7.84,8.36-13.94,7.86-8.58-.71-17.11-2.05-25.63-3.32-5.11-.76-8.57-4.11-9.84-8.84-1.44-5.39-2.87-11.1-2.57-16.57.73-13.52,2.09-27.04,3.92-40.45,1.05-7.72,2.28-15.7,8.57-23.94,2.31,8.94,4.2,16.23,6.63,25.63,6.87-13.34,10.42-26.64,25.13-33.33Z"/>
  <path class="st0" d="M1055.2,479.26c4.47,6.21,8.69,12.05,13.97,19.38,2.51-14.07.31-27.96,10.97-39.6,1.45,3.21,3.32,5.42,3.28,7.6-.23,13.35,6.44,24.18,12.26,35.35,1.54,2.95,3.67,5.7,4.61,8.82,2.74,9.08,7.81,15.51,16.55,20.02,9.26,4.77,8.71,18.1-1.1,22.31-9.36,4.01-19.59,6.24-29.65,8.21-2.89.57-7.13-1.77-9.63-4.02-5.78-5.22-9.39-11.98-10.77-19.81-.51-2.91-.76-6.02-2.03-8.6-5.95-12.13-8.69-25.12-10.83-38.29-.62-3.84-1.21-7.78,2.37-11.36Z"/>
  <path class="st0" d="M1751.47,527.77c-3.9,6.34-7.8,12.69-12.88,20.96,14.53-4.47,26.47-11.83,41.5-5.79-2.56,2.47-4.04,4.93-6.16,5.77-12.03,4.79-19.22,14.86-27.24,24.09-3.48,4-6.78,8.21-10.63,11.83-4.88,4.59-7.72,9.84-7.89,16.59-.15,6.06-1.85,11.34-8.65,12.88-6.78,1.54-12.41-.29-16.66-6.11-4.3-5.89-8.78-11.64-13.28-17.39-3.37-4.31-4.87-9.2-1.79-13.85,3.97-6,8.56-11.67,13.44-16.97,3.29-3.57,7.47-6.35,11.38-9.32,9.25-7.02,18.45-14.11,27.94-20.78,2.77-1.95,6.48-2.55,9.76-3.78.38.62.76,1.24,1.15,1.86Z"/>
  <path class="st0" d="M982.2,1523.46c5.33-8.7,9.28-15.14,14.19-23.15-14.03,4.51-26.23,11.32-41.6,5.8,2.74-2.6,4.23-5,6.33-5.83,11.73-4.63,18.82-14.41,26.63-23.39,1.96-2.26,3.27-5.2,5.52-7.06,8.29-6.86,13.13-14.96,14.42-26.1,1.17-10.12,14.19-13.28,21.66-5.41,6.58,6.94,12.48,14.73,17.44,22.9,1.83,3.02,1.45,8.85-.25,12.21-2.78,5.49-7.07,10.4-11.46,14.83-4.84,4.88-10.37,9.13-15.86,13.32-7.93,6.04-15.93,12.01-24.25,17.48-3.03,1.99-7.04,2.49-12.77,4.38Z"/>
  <path class="st0" d="M1202.73,1630.45c1.24-7.42,2.47-14.83,4.05-24.29-11.51,9.46-19.88,20.39-35.89,21.45,1.16-3.17,1.36-5.97,2.86-7.46,9.69-9.58,12.75-22.2,16.48-34.54.58-1.91.8-3.98,1.68-5.73,5.11-10.1,7.93-20.18,3.05-31.43-1.72-3.97,1.02-7.71,4.47-10.23,5.03-3.69,10.64-4.08,16.01-1.29,7.33,3.82,14.33,8.29,21.51,12.41,4.59,2.64,6.31,7.02,6.14,11.78-.27,7.7-2.25,15.03-6.67,21.59-2.18,3.24-3.85,6.81-5.8,10.2-6.12,10.6-12.08,21.31-18.55,31.71-1.79,2.87-5.11,4.79-7.72,7.15-.54-.44-1.08-.88-1.62-1.32Z"/>
  <path class="st0" d="M822.64,1336.52c6.05-4.4,12.11-8.8,19.4-14.1-8.07-.76-14.53-1.26-20.96-2-6.67-.77-12.93-2.63-18.96-8.64,3.14-1.4,5.37-3.28,7.54-3.22,13.03.38,23.51-6.35,34.45-11.8,2.68-1.33,5.04-3.53,7.84-4.36,10.05-2.99,17.37-8.39,22.47-18.12,4.72-9.02,18.19-7.24,22.16,2.88,3.49,8.9,5.76,18.4,7.4,27.83.57,3.28-1.5,7.93-3.87,10.62-5.13,5.84-11.99,9.33-19.81,10.72-3.22.57-6.59,1.11-9.49,2.5-12.19,5.8-25.21,8.47-38.39,10.45-3.08.46-6.36-.47-9.55-.76-.07-.67-.15-1.34-.22-2.01Z"/>
  <path class="st0" d="M761.31,860.01c7.71,1.14,15.43,2.28,24.49,3.62-9.12-11.14-20.75-19.52-21.18-35.83,3.03,1.16,5.56,1.38,6.9,2.75,9.51,9.78,22.19,12.82,34.46,16.8,4.41,1.43,8.95,2.62,13.12,4.59,6.37,3.01,12.65,3.71,19.3,1.27,5.7-2.09,11.07-2.36,15.28,3.14,3.84,5.02,4.09,11.5.5,17.78-3.63,6.33-7.33,12.6-10.93,18.95-2.72,4.8-6.84,7.68-12.25,6.89-6.17-.9-12.47-2.15-18.2-4.52-7.57-3.13-14.76-7.26-21.88-11.37-7.76-4.49-15.4-9.22-22.77-14.32-3.05-2.12-5.25-5.47-7.83-8.27.33-.49.65-.98.98-1.47Z"/>
  <path class="st0" d="M1532.08,418.92c-1.2,7.45-2.4,14.9-3.89,24.18,11.34-9.46,19.88-21.15,36.34-21.23-1.52,3.31-1.93,5.9-3.45,7.24-7.61,6.75-10.31,16.06-13.63,25.03-3.22,8.7-6.66,17.39-8.93,26.35-1.16,4.56-.77,9.91.33,14.57,1.49,6.27,2.43,11.83-3.69,16.05-5.9,4.07-11.76,3.61-17.73-.07-5.92-3.65-11.95-7.14-18.05-10.49-4.83-2.64-7.46-6.44-7.47-11.99,0-7.85,2.2-15.03,6.26-21.74,2.36-3.91,4.28-8.09,6.59-12.04,6.03-10.3,12.02-20.64,18.38-30.73,1.63-2.59,4.59-4.33,6.94-6.46.66.44,1.32.88,1.99,1.32Z"/>
  <path class="st0" d="M1654.59,1590.14c-1.36-3.18-2.73-4.9-2.73-6.63-.03-14.29-6.99-26.04-13.52-37.97-1.12-2.04-2.68-3.95-3.31-6.13-2.8-9.74-7.7-17.44-17.61-21.47-4.37-1.78-6.13-5.87-5.63-10.71.61-5.82,3.49-10.44,8.91-12.22,8.81-2.88,17.87-5.03,26.9-7.16,4.59-1.08,8.92.65,11.49,4.41,3.7,5.43,7.17,11.15,9.76,17.17,2.59,5.99,4.2,12.44,5.83,18.8,2.64,10.28,5.14,20.6,7.29,30.99.69,3.35,1.15,7.2-2.22,10.49-4.63-6.36-9.05-12.42-13.47-18.48-2.13,13.4-.91,27.13-11.69,38.91Z"/>
  <path class="st0" d="M1911.94,712.71c-6,4.42-12,8.83-20.01,14.72,15.42.65,29.03-1.09,40.65,9.72-2.64,1.3-4.46,2.98-6.29,2.98-13.95.02-25.41,6.82-37.09,13.11-2.34,1.26-4.51,3.1-7,3.78-9.86,2.71-17.18,7.98-21.41,17.7-3.91,8.98-18.9,6.76-22.43-2.72-3.45-9.27-5.97-19.01-7.66-28.76-.54-3.15,1.96-8.09,4.65-10.26,5.07-4.09,11.05-7.3,17.07-9.9,5.99-2.58,12.46-4.12,18.8-5.82,9.3-2.49,18.6-5,28.03-6.92,3.96-.81,8.22-.13,12.35-.13.11.83.23,1.66.34,2.49Z"/>
  <path class="st0" d="M868.99,639.54c8.12,4.95,14.53,8.86,23.01,14.03-5.18-14.3-11.24-26.31-6.4-41.55,2.62,2.51,5.1,3.82,5.89,5.8,4.63,11.69,14.22,18.92,23.25,26.66,2.77,2.38,6.23,4.12,8.51,6.87,6.46,7.81,13.88,12.56,24.54,13.08,8.16.4,12.47,9.57,8.85,17.34-1.46,3.12-4.31,5.79-7.01,8.1-4.52,3.87-9.55,7.13-14.15,10.91-7.03,5.78-11.21,6.58-18.99,2.07-3.98-2.31-7.93-5.12-10.93-8.55-8.48-9.68-16.62-19.68-24.56-29.81-3.47-4.42-6.41-9.32-9.04-14.29-1.43-2.7-1.72-6-2.96-10.66Z"/>
  <path class="st0" d="M1866.55,1409.89c-8.61-5.28-15.04-9.23-22.93-14.07,3.48,13.99,11.74,26.01,5.4,41.2-2.34-2.39-4.77-3.81-5.56-5.86-4.53-11.77-14.35-18.79-23.27-26.62-2.49-2.19-5.75-3.66-7.79-6.17-6.61-8.08-14.37-12.77-25.21-13.93-10.43-1.12-13.71-14.75-5.58-22.23,6.8-6.25,14.27-11.97,22.16-16.73,3.08-1.86,9.01-1.98,12.11-.21,6.17,3.53,11.49,8.69,16.76,13.61,3.07,2.86,5.41,6.52,7.97,9.9,7.59,10.04,15.27,20,22.55,30.26,1.69,2.38,1.89,5.8,3.41,10.84Z"/>
  <path class="st0" d="M1973.02,1189.09c-7.29-1.13-14.58-2.25-21.87-3.38,8.15,10.96,18.22,19.82,19.38,35.62-3.58-1.45-6.11-1.75-7.52-3.16-9.6-9.62-22.18-12.76-34.55-16.45-3.18-.95-6.59-1.52-9.42-3.1-8.02-4.47-15.91-5.21-24.83-2.35-9.57,3.06-17.72-5-15.91-15.03.46-2.52,1.82-4.95,3.09-7.25,3.04-5.5,6.38-10.83,9.41-16.34,3.93-7.16,8.13-9.78,16.23-8.47,5.18.84,11.07,1.65,15.04,4.61,6.83,5.08,14.89,7.11,22,11.19,8.05,4.62,15.87,9.68,23.49,14.96,2.77,1.92,4.69,5.05,6.99,7.63-.51.51-1.02,1.02-1.53,1.53Z"/>
  <path class="st0" d="M1447.16,1646.81c-1.79-7.23-3.59-14.45-5.89-23.73-6.44,13.75-10.33,26.87-24.9,33.89,0-3.82-.78-6.61.13-8.62,5.24-11.54,3.31-23.42,2.31-35.3-.42-4.97-1.16-9.97-.91-14.92.36-7.36-1-13.81-6.27-19.29-4.22-4.39-6.33-9.4-2.95-15.37,3.11-5.49,9.04-8.2,16.25-7.23,6.91.92,13.79,2.17,20.72,2.85,6.86.68,11.51,4.18,12.76,10.69,1.23,6.44,1.51,13.14,1.53,19.72.02,5.23-.84,10.49-1.53,15.7-1.44,10.86-2.74,21.75-4.7,32.52-.64,3.54-3.12,6.74-4.76,10.1-.6-.34-1.2-.68-1.8-1.02Z"/>
  <path class="st0" d="M1989.61,944.87c-7.28,1.79-14.56,3.58-23.79,5.86,14.05,6.12,26.85,10.84,34.81,25.34-4.81-.28-7.73.34-9.84-.69-10.83-5.31-22.11-2.93-33.28-2.47-5.96.25-11.92,1.31-17.85,1.15-6.69-.18-12.41,1.31-17.38,5.9-4.66,4.31-9.76,7.05-16.14,3.16-5.84-3.56-7.86-9-6.61-17.32.98-6.55,1.84-13.12,2.46-19.71.56-5.95,3.35-10.69,9.01-11.83,7.35-1.48,14.99-1.73,22.52-1.98,4.22-.14,8.48.73,12.7,1.27,11.5,1.48,23.03,2.76,34.45,4.71,3.53.6,6.73,3.1,10.08,4.72-.38.62-.77,1.25-1.15,1.87Z"/>
  <path class="st0" d="M1969.61,911.56c-3.12-1.05-5.9-1.69-8.41-2.9-15.61-7.52-32.44-9.05-49.35-10.61-8.24-.76-14.06,2.4-18.74,8.77-1.83,2.49-4.02,4.72-6.49,7.6-6.11-6.54-3.56-13.77-5.53-20.59-7.9-1.49-15.25-4.84-19.51-12.74-.95-1.75-2.11-3.43-2.77-5.28-1.89-5.31-.16-8.83,5.55-9.05,16.51-.63,33.14-2.55,49.2,3.93,21.34,8.61,39.46,21.74,55.48,38.02.37.38.27,1.22.57,2.85Z"/>
  <path class="st0" d="M1032.41,512.82c.22,2.83.75,5.67.61,8.48-.86,17.36,4.18,33.56,9.41,49.77,2.28,7.06,7.12,10.95,13.97,12.85,3.11.86,6.2,1.78,9.83,2.83-2.77,8.69-11.45,8.4-16.45,13.58,1.95,8.85.75,17.39-5.82,24.72-6.01,6.7-9.66,6.55-13.05-1.55-4.73-11.3-11.45-21.74-13.25-34.31-2.76-19.29.43-37.83,5.71-56.18,1.99-6.93,4.81-13.63,7.25-20.43.6.08,1.2.16,1.8.24Z"/>
  <path class="st0" d="M862.35,680.12c.85,1.68,1.91,3.3,2.51,5.07,5.42,16.15,15.81,29.1,26.32,42.1,5.84,7.22,12.54,10.42,21.69,8.98,2.79-.44,5.71-.07,9.01-.07-.31,8.19-7.16,11.55-10.49,17.71,5.92,7.61,7.57,16.34,4.17,25.84-2.71,7.59-6.45,8.72-12.3,3.21-10.61-9.99-22.42-18.82-28.91-32.65-10.41-22.18-13.84-45.57-14.14-69.64.71-.18,1.42-.36,2.13-.54Z"/>
  <path class="st0" d="M1463.89,502c-8.03,4.01-13.92-1.93-21.16-2.38-4.07,8.57-11.66,12.63-21.12,13.73-8.99,1.04-10.77-2.05-8.47-11.01,9.24-35.93,34.19-57.27,66.03-72.44,4.09-1.95,8.26-3.75,13.39-4.46-1.51,1.86-2.79,3.99-4.57,5.55-13.31,11.67-21.35,26.92-29.35,42.28-3.79,7.29-3.16,13.95,1.01,20.69,1.5,2.43,2.68,5.05,4.25,8.03Z"/>
  <path class="st0" d="M1892.03,1099.42c-8.41-4.01-12.22-11.43-13.35-20.54-1.14-9.12,2.17-11.82,10.66-8.72,4.37,1.6,8.76,3.17,13.15,4.71,8.87,3.1,17.08,7.29,24.34,13.4,16.7,14.02,34.01,39.97,39.28,61.68-2.45-2.35-5.04-4.57-7.32-7.08-11.7-12.91-26.97-20.41-42.15-28.07-5.97-3.01-11.56-1.93-17.09,1.06-2.87,1.55-5.7,3.16-9.08,5.04-5.06-7.72,1.8-13.58,1.55-21.48Z"/>
  <path class="st0" d="M856.22,1359.41c1.92-.16,3.85-.55,5.75-.45,16.95.91,32.91-3.42,48.93-8.27,9.45-2.86,14.64-8.42,16.69-17.69.53-2.41,1.65-4.69,2.66-7.49,7.71,3.62,8.16,11.28,12.63,16.63,8.82-1.66,17.43-.86,24.82,5.71,6.97,6.2,6.67,10-2.09,13.61-11.01,4.54-21.95,9.84-33.45,12.47-18.96,4.33-37.73.01-56.08-5.22-6.97-1.99-13.7-4.8-20.53-7.24.22-.68.45-1.36.67-2.04Z"/>
  <path class="st0" d="M768.93,899.58c1.43,1.22,3.04,2.29,4.27,3.7,11.16,12.79,25.61,20.85,40.27,28.79,8.82,4.78,16.85,5.14,25.12-.72,1.79-1.27,4.04-1.89,6.45-2.97,3.66,7.8-1.98,13.77-2.48,20.91,9.21,4.71,13.62,12.74,13.64,23.22.01,7.18-2.41,8.75-9.28,6.98-30.84-7.94-52.7-27.03-67.78-54.48-4.28-7.79-7.96-15.92-11.92-23.9.57-.51,1.14-1.02,1.72-1.53Z"/>
  <path class="st0" d="M1480.51,1626.28c1.76-4.46,3.15-8.34,4.79-12.12,6.78-15.59,7.93-32.17,8.9-48.82.41-6.92-3.75-11.02-8.37-14.97-2.39-2.04-4.82-4.03-7.69-6.43,6.31-6.36,13.74-2.84,20.46-5.82,2.16-12.63,9.4-21.13,24.82-22.95.59,4.63.98,8.41,1.57,12.16,5.26,33.49-8.96,60.29-29.26,84.94-3.8,4.62-8.04,8.88-12.14,13.25-.36.38-1.19.32-3.08.76Z"/>
  <path class="st0" d="M1242.07,1622.49c13.92-11.49,23.42-26.12,31.87-41.74,5.44-10.06,6.82-19.14-.5-28.59-.77-.99-1.09-2.38-1.41-3.64-.14-.56.24-1.26.49-2.34,6.77-2.48,12.46,2.58,19.64,3.34,4.62-8.98,12.53-13.63,23-13.72,7.88-.07,9.65,2.34,6.97,9.73-5.65,15.61-10.47,31.57-23.07,43.64-12.13,11.62-25.47,21.38-40.56,28.73-4.97,2.42-10.05,4.63-15.08,6.93-.45-.78-.9-1.56-1.35-2.34Z"/>
  <path class="st0" d="M1023.18,1529.54c1.74-.87,3.4-1.97,5.22-2.57,16.51-5.46,29.64-16.17,42.77-27.01,7.17-5.93,10.08-12.85,7.91-21.98-.56-2.36-.29-4.92-.43-8.01,8.52.49,12.01,7.01,18.18,10.83,7.29-6.01,15.91-7.77,25.39-4.55,8.37,2.84,9.39,6.25,3.58,12.69-3.56,3.95-7.15,7.89-10.71,11.84-6.53,7.25-14.08,13.09-22.94,17.29-21.74,10.3-44.8,13.35-68.39,13.69-.19-.74-.38-1.49-.58-2.23Z"/>
  <path class="st0" d="M1702.35,1535.93c-.13-2.81-.5-5.63-.35-8.42.97-17.69-4.57-34.05-9.92-50.51-2.37-7.29-7.91-10.2-14.54-12.13-2.93-.86-5.81-1.9-9.49-3.11,4.47-7.52,11.76-8.38,17.41-12.76-3.23-9.34-.78-17.86,5.86-25.3,5.45-6.11,9.14-5.67,12.62,1.52,2.6,5.38,5.14,10.79,7.67,16.2,8.86,19.02,7.98,38.87,3.88,58.6-2.42,11.63-6.77,22.87-10.27,34.28-.28.93-.65,1.83-.98,2.74-.62-.37-1.25-.73-1.87-1.1Z"/>
  <path class="st0" d="M1805.07,724.01c-7.98-4.5-8.78-11.81-13.07-17.49-9.42,3.24-17.93.73-25.38-5.84-6.29-5.55-5.92-9.01,1.36-12.55,5.37-2.62,10.79-5.12,16.21-7.65,20.04-9.35,40.75-7.61,61.53-3.51,11.56,2.28,22.72,5.86,33.09,13.07-3.44,0-6.88.13-10.32-.02-17.35-.75-33.34,4.92-49.43,10.25-6.44,2.13-9.11,7.3-10.96,13.17-.96,3.07-1.79,6.18-3.04,10.56Z"/>
  <path class="st0" d="M1654,579.86c-2.63-1.72-5.35-3.32-7.87-5.19-2.65-1.96-5.11-4.18-7.97-6.54-8.58,7.23-18.1,7.79-27.99,3.6-5.32-2.25-5.85-5.46-2.38-10.18,25.87-35.2,62.63-44.18,104.05-42.24-2.8,1.38-5.49,3.05-8.41,4.08-16.44,5.77-29.18,17.01-42.1,28.05-4.45,3.8-6.13,8.49-5.79,14.13.25,4.23.48,8.47.72,12.7-.75.53-1.5,1.06-2.26,1.59Z"/>
  <path class="st0" d="M1871.92,1369.53c-5.45-18.15-15.49-32.49-26.85-46.2-7.02-8.47-14.45-13.5-25.83-10.01-1.85.57-4.19-.43-8.34-.98,4.83-6.6,8.65-11.8,12.75-17.4-6.79-7.92-7.49-17.12-3.75-26.75,2.65-6.82,5.37-7.17,11.12-2.87,34.4,25.72,43.81,61.85,42.97,102.32,0,.19-.39.38-2.08,1.88Z"/>
  <path class="st0" d="M1255.38,507.98c-6.16.88-12.31,1.76-19.07,2.73-1.02,9.76-6.33,16.86-15.35,21.17-7.5,3.59-10.74,1.96-10.87-6.17-.21-14.19-2.57-28.49,2.23-42.48,8.17-23.77,22.42-43.38,41.85-59.99-1.06,2.85-1.88,5.81-3.21,8.52-7.81,15.92-8.78,33.22-10.38,50.4-.65,7,2.92,12,8.06,16.18,2.65,2.15,5.23,4.39,7.84,6.58l-1.11,3.06Z"/>
  <path class="st0" d="M850.78,1136.45c.86,6.1,1.72,12.21,2.67,19,8.91,1.45,16.36,5.72,20.76,14.44,4.25,8.42,2.58,11.93-6.55,12.05-13.24.18-26.54,2.38-39.67-1.77-24.73-7.82-44.78-22.54-61.76-42.53,3.23,1.32,6.53,2.5,9.68,3.98,15.75,7.38,32.77,8.32,49.67,9.8,7.06.62,11.92-3.33,16.05-8.48,1.97-2.45,3.98-4.86,5.98-7.3,1.06.27,2.12.54,3.17.81Z"/>
</svg>