<?xml version="1.0" encoding="UTF-8"?>
<svg id="Layer_0_xA0_Image" xmlns="http://www.w3.org/2000/svg" version="1.1" viewBox="0 0 2732 2048">
  <!-- Generator: Adobe Illustrator 30.0.0, SVG Export Plug-In . SVG Version: 2.1.1 Build 123)  -->
  <defs>
    <style>
      .st0 {
        fill: #ae0014;
        stroke: #000;
        stroke-miterlimit: 10;
        stroke-width: .25px;
      }
    </style>
  </defs>
  <path class="st0" d="M700,1123.97l149.96-100.97-139.89-108.13c-.7-2.65,1.5-3.34,3.21-4.58,12.52-9.12,36.81-17.88,50.89-25.39l125.12,96.79,140.16-85.44,56.5,34.75-153.93,98,139.93,112-49.91,28.16-6.58.53-128.44-101.73-134.51,83.73c-10.81,2-39.64-25.6-52.52-27.72Z"/>
  <path class="st0" d="M2036,926.03l-150,99,139.96,109.97-54.66,28.59-126.29-97.08-140.34,87.16-54.67-34.69,151.98-98.06-137.98-110.96c-.8-3.55,1.05-3.94,3.3-5.65,3.34-2.53,45.58-24.77,48.69-25.52,8.11-1.95,115.49,92.46,131.27,103.01l136.22-85.52,52.5,29.74Z"/>
  <path class="st0" d="M1479.97,366.01l27.81,54.7-97.44,126.63,85.38,141.17-34.72,53.46-98-153.92-111.99,141.95c-2.58-1.28-25.92-45.86-27.46-50.56-.88-2.67-2.44-4.98-1.24-7.97l101.25-128.13-82.49-131.42v-9.82s30.91-46.08,30.91-46.08l97.03,151.96,110.97-141.96Z"/>
  <path class="st0" d="M1370.04,1459.99l112-139.97,4.1,1.22,27.07,50.73-.14,5.97-102.41,127.09,84.95,136.29-30.63,50.68-98-149.98-108.01,139.99c-6.75,1.7-23.95-43.87-30.15-50l-.46-4.5,95.35-124.94-84.77-140.4,34.12-54.13,3.87,2.07,93.12,149.9Z"/>
  <path class="st0" d="M1101.99,1158.01l-39.98,177.98,179.99-19.97-19.32,60.15-164.4,18.1-36.42,156.59-57.85,15.13,37.93-175.02-177.93,21.02c-2.17-2,14.42-53.68,16.3-56.68,4.99-7.97,141.2-17.3,159.71-24.29l37.74-159.86,64.23-13.15Z"/>
  <path class="st0" d="M1039.66,498.35l20.71,159.28,159.62,37.37c3.14,2.68,14.13,56.92,13.04,64.96l-177.03-39.96,19.98,177.98c-15.85-5.72-40.64-8.9-55.17-15.81-2.39-1.14-4.36-1.9-5.37-4.63l-17.48-163.53-155.91-35.09c-7.8-5.34-10.88-47.3-16.1-57.9l178.02,36.96-23.98-177.98,59.65,18.34Z"/>
  <path class="st0" d="M1771.99,484.01l-37.98,175.97,174.95-23.95,2.27,4.12-18.54,56.01-156.76,20.76-38.28,160.71-62.62,14.36-2.26-4.16,39.21-175.84-177.96,22,19.29-61.69,163.48-18.1,35.53-154.89c3.77-6.53,49.77-13.45,59.67-15.31Z"/>
  <path class="st0" d="M1719.79,1168.21l17.18,163.83,157.77,37.78c2.33,1.62,13.05,49.97,13.29,55.2.2,4.41-1.29,3.18-4.81,2.79l-171.2-37.8,23.97,177.99-60.17-17.26-20.07-158.47-160.48-38.07-15.3-63.16,178.02,38.97-19.98-179.98,61.78,18.19Z"/>
  <path class="st0" d="M835.98,1232.04l-1.24,4.13-91.62,57.96-109.11,11.87,101.98-72.98-148.64-104.69-135.32,92.68,135.96,112.02c.68,2.71-1.65,3.5-3.29,4.69-4.13,3.02-41.17,22.62-43.61,22.4l-173.12-143.09,223.01-152.51,245,167.53Z"/>
  <path class="st0" d="M1649.99,1757.99c-4.25.58-6.51-3.4-8.82-6.16-22.46-26.75-39.88-64.46-62.34-91.66-.94-1.14-3.71-4.9-4.8-4.17l-101.23,145.96,89.23,138.03,114.99-135.96c3.98-.8,2.44.86,3.4,2.53,7.91,13.63,14.09,28.24,22.81,41.42l-11.29,19-130.93,157.02-152.71-224.63,168.69-243.32,60.5,91.46,12.49,110.49Z"/>
  <path class="st0" d="M1900.36,817.7v-5.41s89.55-57.39,89.55-57.39l112.08-12.9c.79,3.75-1.87,4.83-4.15,6.83-26.35,23.08-67.48,41.84-95.32,64.64l-2.5,3.5,148.49,102.74,133.49-90.79-133.86-112.12c-.88-2.88.07-3.88,1.88-5.8,1.66-1.77,40.58-22.32,43-22.3l174.95,142.3-224.62,152.72-242.99-166.02Z"/>
  <path class="st0" d="M1086.01,290.01l75.95,101.98,101.16-145.81-92.16-136.16-110.99,133.08c-3.31,2.2-5.13-.92-6.88-3.22-2.04-2.68-19.74-35.6-20.29-37.9-1.59-6.63,7-15.38,11.24-20.93,34.95-45.73,83.04-106.6,122-148,1.87-1.99,5.93-7.55,8.72-6.97l152.65,222.91-168.48,242.98c-2.88.73-3.28-1.82-4.65-3.28-19.71-20.95-36.52-62.96-55.7-86.3l-12.59-112.39Z"/>
  <path class="st0" d="M650.01,702.01l123.97,23.99-30.06-179.92-161.91-30.07,15.99,176c-1.78,1.78-43.91-10.06-48.56-12.44-8.81-4.49-6.43-29.01-7.45-38.55-6.61-62.23-13.75-124.65-17.98-187l267.05,51.93,52.89,288.95-4.09,2.35-103.23-22.86c-26.02-21.37-56.97-41.8-81.57-64.43-2.43-2.24-5.73-4.02-5.05-7.93Z"/>
  <path class="st0" d="M1139.99,1548.01l-23.14,109.84-67.88,84.13c-4.89.91-3-3.81-2.73-6.73,3.51-37.8,18.08-78.9,21.74-117.25l-178.23,31.15-29.77,160.85,172.69-15.79c3.38,1.29,3.36,3.1,2.99,6.27-1.41,12.09-12.23,31.74-14.12,45.05l-223.55,22.46,48.26-265.75,293.74-54.25Z"/>
  <polygon class="st0" points="1937.99 180.01 1887.83 447.84 1594 499.98 1617.53 392.53 1687 306.04 1689.11 312.05 1666 429.98 1845.63 399.63 1876 238.01 1699.99 254 1713.89 202.89 1937.99 180.01"/>
  <path class="st0" d="M2086,1345.98l-123.99-21.97,30.12,176.86,161.85,33.13-15.97-177.99c1.72-1.79,45.77,11.83,47.92,13.07,1.84,1.06,3.09,2.29,3.57,4.43l22.5,220.5-267.92-48.09-52.08-293.9,106.48,22.51,87.51,71.47Z"/>
  <path class="st0" d="M2349.99,1261.96l-150.89,103.95-61.06-22.91,125.95-90.96-126.97-99.54-154.07,89.45c-2.61,2.58-.42,3.24,1.16,4.94,6.42,6.92,17.72,11.57,23.88,19.09l-127.95-28.98,258.96-148.98,210.99,173.94Z"/>
  <path class="st0" d="M1021.61,194.38l26.38,59.61-151.98-25.98,18.39,161.58,170.67,46.39c4.09.54,2.54-.18,2.94-2.92,1.55-10.55-4.41-20.81-1.01-31.05l69.01,109.97-290.02-79.46-25.97-270.54,181.6,32.39Z"/>
  <path class="st0" d="M1157.97,1538.01l145.98,259.06-172.89,208.94-104.92-150.94c6.11-18.33,12.69-36.5,19.35-54.64.93-2.54-.9-5.33,3.48-4.41l90,123.98,98.75-123.44-86.77-156.52c-2.35-3.34-1.94-1.38-3.95-.07-8.37,5.5-11.68,19.01-20.98,24.02l26-120.98,5.95-5.02Z"/>
  <path class="st0" d="M2228.01,495.99l-31.99,183.03-58,26.98,25.97-153.99-161.81,18.18-46.11,172.93c-.39,3.26-.35,3.16,2.92,2.92,10.71-.78,22.12-4.7,32.99-3.04l-111.98,69,78.24-289.74,269.76-26.26Z"/>
  <path class="st0" d="M1687.98,254l-90.98-125.96-100.25,125.92,87.28,156.04c4.82,3.57,19.99-24.43,25.95-26l-26.09,118.89-5.87,9.1-147.73-260.7,172.7-209.26,105.89,149.92-20.92,62.04Z"/>
  <path class="st0" d="M472.01,792.04l1.94,5.01,123.35,98.61,156.67-90.66c-7.39-5.94-14.85-11.82-22.21-17.79-2.1-1.7-4.99-.05-3.74-5.2,39.02,10.2,81.87,15.49,120.38,26.63,2.04.59,7.3.85,5.59,4.34l-259.01,148.45-209.11-174.29,149.43-104.81,60.69,22.7-123.98,87.01Z"/>
  <polygon class="st0" points="777.64 1525.64 506.01 1551.96 539.41 1369.89 597.99 1344.01 570 1495.98 733.73 1477.74 779.97 1304.97 744.01 1305.01 853.01 1236.05 777.64 1525.64"/>
  <path class="st0" d="M1895.99,1886l-176.49-30.5c-2.63-.43-4.61-1.67-6.4-3.6-10.01-10.77-16.38-41-26.24-53.83l2.17-4.07,146.8,27.23,4.07-2.19-18.17-157.77-174.76-49.24,2.04,35.96-68.99-111.99,289.07,79.91,26.9,270.09Z"/>
  <path class="st0" d="M1973.99,882.04l-1.94,5.01-122.74,76.54-119.27-92.59,97.95-54.99-3.99,17.97c1.93,1.39,20.44-2.92,17.98,2.99-2.31,5.57-51.58,28.07-59.9,34.11l-2.07,4.88,68.91,52.27,6.43.29,68.7-43.48c2.61-2.3,2.14-1.94-.14-3.94-21.89-19.29-53.67-34.36-76.04-54.1l-13.86.99,21.99-85.97-87.74,8.24-21.36,93.65c-.88,1.85-27.19,26.5-29.81,28.19-2.44,1.58-4.02,2.47-7.09,1.89l34.96-146.02,143.93-19.93,2.34,4.1-22.28,97.86,105.03,72.03Z"/>
  <path class="st0" d="M1959.99,1173.96l-85.71,51.37,19.73,129.71-143.15-32.91-18.84-150.13,107.99,28c3.81,3.3-13.9,10.72-13.97,12.98,2.76,5.95,11.37,8.15,9.96,15l-69.97-19.99c2.71,26.34,4.21,54.39,8.56,80.42.69,4.15.84,11.72,4.77,13.23l81.62,18.38-13.43-92.57-9.53-12.43,73.94-46.03-67.24-54.8-82.23,51.37c-13.05-2.55-29.35.26-41.5-1.55-2.91-.43-6.83-2.52-2.89-4.91l126.97-77.06c33.72,28.16,75.49,52.93,107.87,82.02,1.84,1.65,8.88,7.23,7.05,9.9Z"/>
  <path class="st0" d="M1178.01,550.01l5.67,3.31,30.25,57.49,4.14.26,55.39-70.03-46.44-75.03-56.9,81.1-.12,10.89-81.85-21.2-4.06,2.17,9.94,83.54c1.38,2.95,7.49,3.38,10.33,4.14,20.93,5.64,66.72,10.76,83.09,18.91,2.68,1.34,19.38,19.73,22.51,23.49,1.52,1.82,9.48,11.55,8.04,12.94l-146.96-36.02-19.03-143.99,100.65,21.76,76.34-105.75,76.68,126.47-90.65,117.49-56.96-94.96c-.18-5.28,16.1,1.49,18.02.13l1.95-17.12Z"/>
  <path class="st0" d="M983.53,726.48l18.46,149.52-105.03-27.97.28-4.14,10.6-7.1-9.83-16.78,71.98,19.98-10.26-88.72c-1.31-4.09-17.28-6.65-22.1-7.9-21.39-5.56-43.8-9.84-65.64-13.34l16.43,94.55,9.53,8.43-71.9,44.07-1.12,4.98,66,51.93,78.96-49.07,48.08,1.1-3.34,5.64-124.83,75.48-115.79-90.13,87.74-54.31-21.76-128.69,143.52,32.48Z"/>
  <path class="st0" d="M1003.99,1179.96l-95.97,54.04,1.99-20c-.86-.88-24.2,2.41-18-3.97l63.99-36-70.93-54.27-4.38-.3-69.72,44.5c-2.13,2.08-1.74,2.37.3,4.14,21.37,18.48,51.87,32.96,73.57,52.05l15.17,1.84-19.99,85.99,87.83-10.15,20.6-92.4c2.18-4.52,24.38-24.49,29.54-28.46,2.01-1.54,2.53-3.88,6-2.98l-34.32,147.67-145.67,18.31,23.07-99.95-104.96-76.81,122.89-77.11,5.7,2.16c33.12,29.57,75.91,54.08,108.25,83.78,2.43,2.24,5.71,3.96,5.05,7.9Z"/>
  <path class="st0" d="M1504.23,1629.76l-75.91-124.46,89.72-117.29,7.63,5.32,50.32,90.66-17.98-1.99c-.65,5.96,2.31,13.62-3.01,17.96l-35.99-63.95-56.06,70.09v5.8s43.07,70.1,43.07,70.1c3.74.78,4.84-1.89,6.82-4.15,10.73-12.31,44-57.59,50.87-71.13,3.13-6.17,2.12-8.26.29-14.7l85.98,19.98-8.9-86.08-95.01-22.99c-1.92-4.68-31.76-31.57-28.07-34.91l145.15,33.83,19.94,144.21-5.54,1.58-94.24-23.41-72.34,103.74-6.74,1.8Z"/>
  <path class="st0" d="M1566.31,517.66l131.68-21.65-31.48,141.5-5.61,4.39-144.89,18.09,28.01-107.98,10.01,13.98c3.91,2.71,11.56-13.01,17.96-9.97l-19.99,69.97,90.63-9.94,19.42-83.02c.28-3.37.14-3.26-3.05-3.05-27.91,1.84-59.08,12.53-87.52,14.51l-14.46,9.51-44.02-74-54.58,67.34,49.09,80.13-2.51,48.51-80.43-129.02,88.61-114.89c2.91-.62,5.11,3.27,6.48,5.25,16.78,24.21,30.72,55.12,46.64,80.33Z"/>
  <path class="st0" d="M1167.64,1530.34l-131.63,21.65,35.13-143.85,148.86-18.12-28,105.98-13.27-11.84-14.71,9.84,19.98-71.98-90.69,9.89-21.33,87.07,92.89-15.11,12.14-9.83,45.97,73.95,54.38-67-50.45-80.9c.87-12.24-.29-27.48,1-39.18.33-3.02.19-4.97,3.1-6.86l78.66,128.46-88.66,115.46-53.36-87.63Z"/>
  <path class="st0" d="M1263.99,966.01l-2.57,21.43-68.91,44.28-99.51-63.7-100.99,60.01,7.05,9.92,86.3,67.63,103.64-51.45c6.14-.03,43.92,32.83,48.58,40.44l-3.58,15.42-46.66-33.55-104.03,55.23-127.21-100.8,136.95-88.32,99.95,66.8,71.01-43.34Z"/>
  <path class="st0" d="M1523.98,1060l6.28,55.74,113.38,32.64,20.35,163.62-159.82-34.15-23.14-117.86-80.99-20.97c5.36-4.22,9.47-12.92,16.66-12.92l80.5,17.72,25.21,115.81,115.58,26.39-12.26-119.73-112.77-38.23c-.37-13.41-4.35-28-4.94-41.05-.7-15.66-1.75-23.22,15.95-26.98Z"/>
  <path class="st0" d="M1363.96,612.01l85.53,137.01-66.86,100,43.35,70.97-21.15-1.83-44.44-69.47,63.2-98-62.6-102.65-74.74,93.37,51.71,105.65c-.09,3.4-33.72,44.09-38.04,46.01-5.12,2.27-12.37-2.74-17.91-3.09l33.95-44.91-55.62-103.73,103.63-129.32Z"/>
  <path class="st0" d="M1231.77,772.24l23.2,117.79,77.06,16.94c6.3,4.06-7.7,15.58-16.94,15.09-13.44-.71-57.13-10.8-71.13-15.01-2.36-.71-5.39-.92-6.93-3.07l-24.22-114.2-116.79-27.77,14.25,121.72,110.71,36.29,7.04,56.95c.64,4.56-16.6,14.63-18.01,13.02l-4.29-55.71-115.46-34.54-18.25-163.73,159.76,36.23Z"/>
  <path class="st0" d="M1310.01,1128.01l19.13,1.85,46.21,71.16-63.21,97.96,60.89,101.01,74.67-91.46-49.76-107.46c.39-3.77,34.07-44.53,37.97-46,2.58-.97,18.06,3.65,18.05,5.93l-35.39,41.98,55.13,105.58-98.72,127.44-88.64-135.32,65.41-100.14c-1.05-10.24-46.31-68.07-41.74-72.53Z"/>
  <path class="st0" d="M1247.58,1155.6l-113.58,23.4-28.03,114,1.06,3.03,119-15,36.24-110.76,58.68-6.37c4.37-.24,12.73,16.49,11.04,18.1l-55.02,5.98-34.88,113.12-162.09,18.9,35.9-159.1,117.76-23.25,16.36-79.65c4-3.77,14.52,11.45,16,15.04l-18.43,82.58Z"/>
  <polygon class="st0" points="1779.99 1016.04 1777.89 1020.89 1644.64 1105.6 1543.01 1040.07 1472.01 1081.99 1472.42 1062.4 1543.88 1016.84 1641.12 1080.02 1743.98 1019.96 1650.01 943.04 1545.01 995.3 1498.95 957.94 1502.02 938 1547.01 973.29 1652.5 918.34 1779.99 1016.04"/>
  <path class="st0" d="M1655.99,728.01l-35.78,158.78-117.88,23.53-19.33,81.67c-4.39-5.48-12.74-9.44-13.19-16.96l16.57-80.62,114.66-24.36,28.93-116.05-120.03,12.95-38.23,112.77-60.31,4.31-9.41-16.01c9.38-3.83,52.38-1.81,57.02-8l32.98-111.02,163.99-20.99Z"/>
  <path class="st0" d="M823.99,1023.96l-136.14,87.11-89.84-60.09-2-22.98,92.96,57.9c4.15-.5,7.36-3.16,10.86-5.08,21.64-11.87,63.91-39.68,82.83-55.17,2.59-2.12,6.1-3.4,5.33-7.62l-91.42-67.76-98.56,49.71-.09-20.66,100.61-53.03,120.41,89.76,5.05,7.9Z"/>
  <path class="st0" d="M1393.68,1795.67c-2.17,1.36-23.46,1.21-23.64-2.66l59.56-91.66-64.63-97.35-72.27,93.01,49.35,96.04-21.08-1.03-52.95-97.07,95.01-126.95,90.9,134.99-60.25,92.69Z"/>
  <path class="st0" d="M981.99,1406.01l-33.19,160.21-107.89,20.98c-2.88-2.07-16.97-14.32-14.9-17.18l106.05-22.96,23.93-117.05-116.06,16.92-30.94,101.06c-4.14,6.06-12.42-7.59-16.02-10.05l32.23-109.74,156.79-22.18Z"/>
  <polygon class="st0" points="1897.6 462.4 1909.99 479.99 1802.16 500.17 1780 618 1895.99 600.99 1929 498.04 1943.62 514.6 1911.71 621.71 1754.96 643.88 1752.77 639.84 1785.81 483.27 1897.6 462.4"/>
  <polygon class="st0" points="1363.99 254.01 1306.07 347.01 1369.98 445.06 1441.98 350.99 1392.01 256.01 1415.03 257.97 1466.2 352.99 1371 481.96 1281.84 344.97 1340.86 255.86 1363.99 254.01"/>
  <path class="st0" d="M1912.01,1566.01l-21.95-107.07-115.04-22.97,15.33,117.66,103.6,31.37-16.83,14.86-105.19-30.8-23.93-159.05,159.95,33.03,22.05,107.93c-.64,4.24-14.57,18.3-17.99,15.03Z"/>
  <polygon class="st0" points="985.98 640 825.94 605.06 805.83 494.95 821.98 482.01 844.42 589.6 961.99 611.99 945.73 496.27 841.98 464.98 858.13 448.88 961.91 479.09 985.98 640"/>
  <polygon class="st0" points="2137.99 1021.99 2045.32 962.33 1947.97 1026.97 1946 1029.96 2040.99 1099.35 2135.99 1048.01 2135.67 1071.68 2038.66 1123.63 1910.04 1027 2047.01 938.07 2139.02 999.91 2137.99 1021.99"/>
  <path class="st0" d="M510,1464.01l-16.01,102,99.49-9.62,4.37,2.88-22.85,114.69-19.14-17.33,14.13-72.61-81.96,4.94-20.09-22.06,10.06-72.88-74.92,7.99-21.07-19.03c-1.65-3.98,6.93-4.22,9.29-4.66,38.17-7.14,80.02-9.05,118.69-14.3Z"/>
  <path class="st0" d="M2015.99,1814.01c2.34,1.99-14.18,21.88-18.83,21.82l-69.15-13.82,4.96,80.26c-.78,3.65-17.68,19.18-21.02,20.74-8.4,3.92-73.05-11.82-75.94-8.99l9.68,74.59c-2.08,2.75-21.37,24.09-23.68,21.39l-15.12-126.02c1.63-2.22,3.41-1.97,5.82-1.87,25.82,1.11,59.65,13.26,86.55,15.64,3.59.32,7.16.46,10.74.24l-10-103.99,115.99,20.02Z"/>
  <path class="st0" d="M928.01,166.01l-102-16,9.61,101.5-2.73,4.36-114.89-21.89c4.45-6.76,12.56-19.46,20.97-20.16,10.04-.84,66.47,14.8,69.01,12.17l-5.94-78.95,21.84-21.94,74.09,10.9-7.98-74.91,21.01-23.08,17,128Z"/>
  <path class="st0" d="M348,650l101.97,79-83.93,60,79,64.96.72,5.82-97.75,64.22,1-27.98,56.99-39.08c1-4.12-50.14-44.51-57.16-50.76-3.88-4.81-3.95-23.03-2.79-29.12,2.14-11.25,59.93-45.2,59.91-50.04l-57.95-46v-31Z"/>
  <path class="st0" d="M2166,463.99l80.11-4.9,20.86,22.63-8.95,74.26,72.76-9.43c4.87.79,25.06,19.84,21.23,23.43l-124.06,15.16-2-8.05,16.04-95.11c-2.35.95-4.23,1.87-6.91,2.06-28.5,2.02-58.17,6.49-86.1,7.93-3.4.18-10,1.02-12.09-1.94l24.1-114.04c2.3,4.79,14.37,11.3,16.01,13.99,5.05,8.28-13.65,71.33-10.98,73.99Z"/>
  <path class="st0" d="M1742,4l-77.22,101.91-61.78-81.87-68,79.93-67-97.94,27.59-1.61c13.38,18.23,24.11,39.14,37.83,57.06.97,1.27-.29,3.45,3.55,2.54l51.06-58.98,30.59-.66,46.37,59.59,48-59.96h29Z"/>
  <path class="st0" d="M2388,1398l-102-78.93,81.99-57.11-77.7-66.22.66-5.79,95.04-65.94c1.07,7.59,4.86,22.62.16,29.14l-58.1,39.86,58.98,50.98,1.01,32.6-60.04,46.4,60.01,46.02v29Z"/>
  <path class="st0" d="M1266,2044h-28c-10.17-16.14-21.14-37.39-33.17-51.83-1.98-2.38-4.32-6.2-7.8-6.2-14.15,16.35-27.98,35.66-42.98,51.08-1.94,1.99-6.25,7.08-8.08,7.92-4.6,2.09-27.19,2.02-31.1-.82l-45.84-58.14-46.02,58h-29l77-101.97,60.07,81.97,69.86-78,65.07,98Z"/>
  <path class="st0" d="M1427.16,229.16c-2.35,2.65-13.5,16.59-14.57,16.88-3.85,1.04-21.99,1.31-20.58-5.01l63.74-77.65-67.77-113.37-77.66,107.44,53.68,86.55-21.59-.41-56.25-84.87,102.85-140.68,88.6,147.27c.27,2.67-1.36,4.54-2.69,6.57-10.3,15.75-34.46,42.27-47.74,57.28Z"/>
  <path class="st0" d="M2146.01,1050.01c5.06-.78,8.12,2.76,11.8,5.18,11.45,7.56,64.42,56.98,71.22,56.73l112.97-68.93-107.35-76.59-83.65,55.55c-4.2-.19-4.23-20.01-1.13-23.09l83.45-54.45,140.65,102.59-148.99,88.54-77.12-64.4-1.85-21.13Z"/>
  <path class="st0" d="M832.02,454l-11.97-101.06-128.04-30.94,21.8,130.73,98.18,19.28c1.94,2.16-12.78,17.45-16.53,17.52l-98.58-21.41-24.88-170.13,167.12,41.88,8.98,99.23c1.26,4.83-12.43,17.99-16.08,14.89Z"/>
  <path class="st0" d="M2037.6,1580.42l26.39,171.57-167.51-42.46-10.49-100.5c.63-4.3,14.78-18.39,18-15.02l8.93,100.07,131.08,31.9-22.96-130.02-99-20.96c5.78-4.46,11.22-14.87,18.84-15.1l96.72,20.52Z"/>
  <path class="st0" d="M787.59,1544.43c.81.47,11.36,14.53,10.41,15.55l-101.79,10.22-32.2,129.78,133.67-22.33,19.36-97.64c2.79-.55,16.23,12.45,15.07,16.87l-21.02,97.19-171.07,25.91,42.17-167.8c16.54,1.74,96.22-13.13,105.41-7.75Z"/>
  <polygon class="st0" points="1341.99 1804.01 1340.08 1811.08 1280.02 1884.95 1346.03 1997.99 1352.84 1993.84 1425.66 1890.67 1370.01 1806.01 1393.6 1806.42 1448.03 1891.03 1346.98 2030 1256.66 1882.99 1322.02 1802.88 1341.99 1804.01"/>
  <path class="st0" d="M2093.99,328.01l-40.26,167.72-105.34,9.87c-2.16-7.23-11.52-9.46-10.38-17.59l100.12-8.88,31.85-131.13-131.61,22.36-18.39,97.64c-3.16,2.64-15.91-9.35-17.03-12.05-3.47-8.34,20.15-86.16,19.23-101.78l171.81-26.16Z"/>
  <polygon class="st0" points="587.99 999.99 507.01 936.72 394.01 1005.02 501.15 1082.06 585.99 1028.01 583.99 1050.99 501.02 1105.35 361.97 1001.03 509.38 914.32 588.18 978.95 587.99 999.99"/>
  <path class="st0" d="M2228.01,1358.04c13.73-3.99,30.8-24.39,42.63-28.55,2.57-.9,3.68-1.18,5.97.74l108.5,83.79c2.21,4.11-13.48,49.07-16.26,49.93l-4.81-.97-136.03-104.95Z"/>
  <path class="st0" d="M1756.38,6.37c2.43-1.42,43.67,11.47,48.23,14.02,1.84,1.03,4.02,1.79,3.19,4.36l-104.8,139.22-30.71-46.46,84.09-111.13Z"/>
  <path class="st0" d="M505.76,691.77c-14.08,4.89-27.6,21.4-40.36,26.7-2.53,1.05-4.61,2.45-7.33.59l-107.09-83.08c-4.76-7.65,10.78-40.5,14.05-49.99l6.76,1.2,132.17,97.83,1.8,6.74Z"/>
  <path class="st0" d="M522,1396.01l-8.39,50.6-2.75,3.25-137.86,18.16c-2.57-.03-3.42-1.46-4.8-3.23-2.11-2.71-19.95-39.41-20.22-41.81l174.02-26.98Z"/>
  <polygon class="st0" points="1793.73 1880.28 1812.17 2020.72 1765.04 2044.01 1738.01 1870.01 1793.73 1880.28"/>
  <polygon class="st0" points="995.98 180 943.5 169.98 940.23 162.83 923.93 27.34 969.01 4.05 995.98 180"/>
  <path class="st0" d="M2359.63,580.41c6.34-.1,10.33,9.85,13.41,15.55,2.6,4.8,12.04,23.57,12.65,27.49.38,2.44.7,4.04-1.61,5.64l-167.33,24.79-4.35-2.8,11.53-52.15,135.69-18.53Z"/>
  <path class="st0" d="M928,2027.98l104.98-141.98,30.12,42.1v3.82s-85.17,109.12-85.17,109.12c-9.63,4.34-38.34-12.57-49.93-13.05Z"/>
  <path class="st0" d="M1245.97,1892l92.02,151.99c-18.95-.91-38.68,5.67-57.13.15l-72.57-110.64c.46-2.33,24.01-30.81,27.66-34.55,1.76-1.8,7.65-8.75,10.02-6.94Z"/>
  <polygon class="st0" points="2131.34 1198.27 2201.96 1255 2122.95 1303.98 2052.01 1247.03 2131.34 1198.27"/>
  <polygon class="st0" points="1031.6 292.42 1041.98 384 950.45 361.55 940.01 272.01 1031.6 292.42"/>
  <polygon class="st0" points="2388 1054 2388 1111 2278.54 1183.75 2274.07 1183.07 2234.04 1149 2388 1054"/>
  <path class="st0" d="M2123.8,495.8l-55.79,4.19,40.01-173.99c4.01-3.64,39.47,33.6,42.03,39.1l-26.25,130.7Z"/>
  <polygon class="st0" points="725.99 1350.01 703.99 1440.99 614.01 1451.99 634.16 1360.17 725.99 1350.01"/>
  <polygon class="st0" points="1793.99 1777.99 1702.88 1756.12 1694.01 1666.01 1785.13 1687.87 1793.99 1777.99"/>
  <polygon class="st0" points="1145.98 1708 1193.68 1788.64 1137 1857.97 1087.9 1779.1 1145.98 1708"/>
  <polygon class="st0" points="2120.01 598 2098.04 689.04 2008 697.98 2030.18 606.18 2120.01 598"/>
  <polygon class="st0" points="1892 1726 2067.96 1767 2028.77 1807.52 1896.89 1780.11 1892 1726"/>
  <polygon class="st0" points="611.38 744.26 683.96 801 602.94 849.96 534 793.03 611.38 744.26"/>
  <polygon class="st0" points="348.01 993.99 347.01 938.01 456.1 864.91 459.96 864.87 499.93 899.15 348.01 993.99"/>
  <polygon class="st0" points="1599.96 190.02 1647.28 269.01 1591 339.96 1542.08 260.99 1595.84 191.28 1599.96 190.02"/>
  <path class="st0" d="M837.68,268.34l4.31,55.66-173.98-40.01c-.89-3.46,1.43-3.99,2.98-6,8.73-11.32,23.39-20.09,30.85-33.14l5.27-2.89,130.57,26.38Z"/>
  <polygon class="st0" points="668 1550.02 625 1723.96 584.8 1685.09 610.02 1554.03 668 1550.02"/>
  <path class="st0" d="M1453,4l74.15,109.88c.98,5.02-30.75,36.48-34.17,44.13L1398,4h55Z"/>
  <path class="st0" d="M348.01,1012.01l143.99,106.97c-8.73,4.73-39.11,29.86-46.55,28.71l-98.44-77.7,1-57.98Z"/>
  <polygon class="st0" points="2107.75 1588.25 2121.18 1715.1 2078.02 1754 2052.01 1576.01 2107.75 1588.25"/>
  <polygon class="st0" points="657.99 296.01 681.99 472 629.31 462.1 613.97 335.12 616.85 329.83 657.99 296.01"/>
  <path class="st0" d="M1356.01,2043.99l104.99-143.95c2.59,0,28.17,39.15,29.5,42.6.7,1.83,2.13,3.24.61,5.31l-79.15,97.01c-18.5,2.31-37.17-2.92-55.95-.97Z"/>
  <path class="st0" d="M1379.99,6.01l-102,138.98c-2.11,2.05-2.51,4.04-6.04,2.13-2.09-1.13-25.88-36.36-26.92-39.22-1.03-2.83-1.96-5.02-.01-7.81L1324.06,2.95l55.93,3.06Z"/>
  <polygon class="st0" points="2096 313.98 1920.01 339.99 1930.97 285.97 2057.1 270.82 2096 313.98"/>
  <polygon class="st0" points="2385.99 1035.99 2242.04 931 2288.64 900.32 2389.11 980 2385.99 1035.99"/>
  <path class="st0" d="M816,1710.02l-10.93,52.05c-3.96,5.57-110.92,12.29-125.96,15.99-7.28-.96-32.13-34.36-39.08-41.09l175.98-26.95Z"/>
  <polygon class="st0" points="2097.64 1392.34 2109.99 1483.99 2028.38 1469.62 2016.01 1378.01 2097.64 1392.34"/>
  <path class="st0" d="M1164.04,176.01c4.17-.62,6.44,3.38,8.79,6.16,5.28,6.25,41.2,57.16,41.1,60.84l-54.93,72.95-47.03-69,52.07-70.95Z"/>
  <polygon class="st0" points="1825.99 282.01 1812.03 363.03 1722.01 376 1736.47 294.48 1825.99 282.01"/>
  <polygon class="st0" points="707.75 580.26 718 670.01 636.22 655.78 624 566.02 707.75 580.26"/>
  <polygon class="st0" points="1569.96 1874 1520.23 1805.3 1576.98 1734 1623.87 1802.73 1569.96 1874"/>
  <path class="st0" d="M583.49,1178.35c2.82-.6,4.99.32,7.2,1.94l67.27,52.71-67.29,46.66-72.64-54.66,65.46-46.65Z"/>
  <path class="st0" d="M2145,768.59l70.99,54.45-66.98,48.29-70.93-54.52c-.6-2.8,2.42-4.11,4.08-5.66,15.96-14.89,45.51-27.77,62.84-42.56Z"/>
  <polygon class="st0" points="1013.99 1674.01 998.09 1755.09 908 1765.98 923.89 1684.89 1013.99 1674.01"/>
  <path class="st0" d="M2388,640v59l-87.44,56.69c-3.45.77-5.8-1.1-8.45-2.8-6.79-4.36-26.61-20.16-32.15-25.83-1.53-1.57-4.29-3.25-3.85-5.82l131.89-81.23Z"/>
  <polygon class="st0" points="519.65 554.33 525.99 611.99 374.01 574.97 417.11 533.96 519.65 554.33"/>
  <polygon class="st0" points="954 1866.01 917.03 2017.98 876.32 1974.61 896.55 1877.55 901.32 1870.32 954 1866.01"/>
  <polygon class="st0" points="1751.99 2045.99 1691.99 2043.01 1635.49 1957.32 1634.91 1953.97 1669.02 1912 1751.99 2045.99"/>
  <polygon class="st0" points="346.01 1409.99 348.97 1347.97 436.69 1292.41 479.96 1327 346.01 1409.99"/>
  <path class="st0" d="M2362,1472.02c.59.48-3.15,5.71-4.18,6.8-11.69,12.3-27.39,24.16-39.21,36.85l-103.35-21.57-7.26-56.09,153.99,34.01Z"/>
  <polygon class="st0" points="1041 4 1099.72 93.35 1068.14 134.67 1063.09 136.08 982 4 1041 4"/>
  <polygon class="st0" points="1816.02 30 1858.03 75.11 1837.06 176.06 1783.04 183.96 1780.76 179.86 1816.02 30"/>
  <path class="st0" d="M2146.02,1618l5.67,66.6c-2.5,3.31-18.02,21.28-21.68,17.39l-12-111.98,102.56,18.42,3.42,4.55-19.02,17.03-58.96-12Z"/>
  <path class="st0" d="M346,1188l50-33.07c1.48-6.04-45.69-35.18-48.95-42.97-2.95-7.03-.06-18.25-1.03-25.95,2.5-2.58,12.3,6.18,14.91,8.07,20.8,15.08,52.92,39.55,71.11,56.88,1.77,1.69,4.27,3.23,3.99,6.01l-90.03,59.03v-28Z"/>
  <path class="st0" d="M603.98,346.01l12,113.99-103.98-20.02c-3.19-3.79,12.7-19.19,17.09-19.98l60.9,10-5.96-64.94c.78-4.03,17.23-20.97,19.95-19.05Z"/>
  <path class="st0" d="M1557.99,2045.99l-25.98-1-35.01-50.95-41.01,50.95h-28.01s69.04-89.01,69.04-89.01c2.97-.41,4.21,2.31,5.82,4.18,13.02,15.07,43.16,59.47,52.86,77.13,1.58,2.87,2.84,5.26,2.29,8.7Z"/>
  <path class="st0" d="M1236.04,53.99l4.13-1.26,37.84-47.71,27.98-1-68.99,89.95-60.99-89.95c8.53,1.55,19.7-5.51,27.13-.14,7.55,5.45,25.63,40.61,32.89,50.12Z"/>
  <path class="st0" d="M1962,245.99l64.61-5.68c2.66,1.91,22.05,19.41,19.39,21.68l-113.08,10.03,22.07-104,17.09,17.01-10.07,60.97Z"/>
  <path class="st0" d="M802,1776.01l-21,105.95-19.06-18.93,12.05-61.01-64.93,5.96c-3.01-.58-17.93-14.45-19.04-17-.94-2.18.2-3.34,2.44-3.45l109.54-11.51Z"/>
  <path class="st0" d="M498.75,1347.23c9.49,8.1,19.3,15.95,28.23,24.7l-4.29,12.25-58.68,7.81c-1.2-5.44,1.66-3.41,3.97-4.94,4.95-3.27,18.2-9.55,21.06-13.01,2.16-2.62,1.68-4.57-2.06-4.08-11.68,1.55-42.81,28.86-56.47,33.55l-56.52,6.46,111.97-71.22c6.03-1.68,9.47,5.64,12.78,8.47Z"/>
  <path class="st0" d="M2387.99,963.99l-89.95-70.99,89.94-61c-1.89,9.24,5.09,19.02.15,27.14-4.32,7.1-50.1,32.18-50.09,35.86l48.11,39.86,1.85,29.13Z"/>
  <path class="st0" d="M985.96,32.02l67.71,111.35-32.99,40.43c-4.67.1-12.94-2.44-14.31-7.17l-6.36-56.62,18.02,27.98c3.26.2,4.47.98,3.95-2.94-1.72-12.96-27.59-42.88-33.09-56.95l-6.93-55.08,3.99-1.01Z"/>
  <path class="st0" d="M1767.73,181.74l-52.41,2.35c-1.89-.46-4.87-10.11-4.37-12.32,2.1-9.31,30.03-33.29,33.09-45.76l3.98,1-6,32.98c.53.71,3.42-2.11,4.01-2.97,7.29-10.8,9.2-46.41,16.19-61.81,6.4-14.11,25.87-32.52,35.77-45.21l-30.25,131.74Z"/>
  <path class="st0" d="M523.54,624.48l4.55,48.47c.2,4-10.05,9.25-12.79,8.72-6.63-1.29-38.25-31.82-47.29-36.67,10.42-2.14,20.49,5.06,30.96,5.07,3.96,0,3.21-.21,3.02-4.04-2.87-2.83-54.28-11.97-64.47-16.55-12.89-5.78-32.53-25.78-43.52-35.46l129.54,30.46Z"/>
  <path class="st0" d="M1019.67,1864.35l4.05,14.21-33.76,45.44c-2.37-.4-3.33-1.7-3.18-4.14.29-4.53,8.86-28.33,7.2-29.85l-5.98-.02c-5.38,18.21-7.73,49.19-15.58,65.45-2.59,5.37-17.7,23.74-22.49,29.51-3.42,4.12-8.73,11.86-13.94,13.04l30.26-129.72,53.41-3.91Z"/>
  <path class="st0" d="M2360,640.02l-111.49,69.69c-6.82.91-33.6-27.48-40.24-33.13l5.22-12.56,58.51-8.01c1.15,5.11-1.36,3.5-3.75,5.18-7.47,5.26-16.03,9.15-23.27,14.81l3.81,3.84c16.69-8.19,36.59-26.49,53.24-32.81,15.47-5.87,41.28-5.27,57.98-7Z"/>
  <path class="st0" d="M2265.98,1406c-9.55-2.39-21.5-6.63-31.02-7.98-5.43-.77-1.45,2.55-.39,5.43,18.07,6.69,46.51,7.83,63.25,15.74,5.44,2.57,31.03,22.84,36.21,27.79,2.57,2.46,6.5,4.95,5.96,9.02l-128.03-30.95-1.97-4.03c1.97-14.58-3.89-29.91-2.09-44.14,1.09-8.63,9.66-10.37,16.82-6.64,4.67,2.43,32.43,24.5,37.1,28.95,2.16,2.06,5.08,2.88,4.17,6.81Z"/>
  <path class="st0" d="M1735.99,1927.99c-4.25.92-4.55-2.14-6.35-4.63-4.26-5.92-9.46-14.36-11.67-21.35l-5.92,2.98c-.17,3.2,30.1,45.46,33.34,54.63,5.45,15.41,5.05,41.78,6.59,58.39l-69.9-112.98,31.86-40.12c11.67,1.29,13.35,4.07,15.53,14.64,3.16,15.32,2.2,33.03,6.53,48.45Z"/>
  <path class="st0" d="M346.01,1220.01c2.45-2.52,12.36,6.14,14.94,8.04,22.63,16.73,42.33,38.15,65.02,54.95l-76.96,52.96c-4.62.03-3.46-25.52-2.02-29.98l34.98-24.98c.06-2.5-32.33-29.32-34.93-35.04-3.02-6.65,0-18.49-1.03-25.95Z"/>
  <path class="st0" d="M1882,146h51c1.43,0,20.2,18.85,16.99,21.99l-99.98,8,19.01-92.01c2.55.07,16.4,13.37,18.09,15.9,6.9,10.31-3.18,33.73-5.11,46.12Z"/>
  <path class="st0" d="M1678,2046h-29l-24.03-36.03c-21.64,12.55-33.29,48.66-62.92,33.04l65.91-77.01,50.04,80Z"/>
  <path class="st0" d="M763.99,1608.01l.72,23.5-12.7,4.51c-1.29,5.69,6.28,6.44,8.1,9.38,4.11,6.64-.05,15.73-4.04,21.74l-16.06-3.12,1.84,11.82c-9.77,4.69-24.86,1.01-30.7-7.97-1.75-2.68-2-8.04-3.61-9.4-2.39-2.01-9.61-.91-12.47-6.52-4.94-9.67-3.69-31.79,10.93-25.95l-3.64-9.01c9.37-10.28,24.63-9.75,33.63,1.01,1.54-21.92,15.44-5.63,28.01-9.99Z"/>
  <polygon class="st0" points="2246 1589 2228.97 1607.99 2224.31 1604.69 2216 1508 2308.02 1525.02 2286.77 1547.52 2246 1540 2246 1589"/>
  <path class="st0" d="M2008.01,1651.99l8.73-1.86c8.32,5.68,3.68,22.03-1.82,27.79-3.56,3.73-8.7,3.06-11.88,6.12-3.26,3.15-3.49,11.71-8.42,13.57-8.33,3.13-18.59,1.54-26.6-1.67l1.97-9.93-12.08,3.13c-2.53-5.35-6.67-15.65-5.11-21.19,1.36-4.83,7.84-7,7.2-11.93-21.99-4.5-3.52-15.26-9.99-28.01l22.62-1.72,8.41,13.69c4.38,1.02,5.64-8.4,10.38-9.73,4.56-1.28,18.07,3.08,18.65,8.74.38,3.73-3.11,8.69-2.05,13Z"/>
  <path class="st0" d="M2030.01,422.01l1.94,13.94c-12.43,2.03-21.77,8.63-30.95-3.9-8.26,21.02-15.09,4.39-28.98,9.96,1.97-12.46-10.72-30.8,9.99-28.01,1.91-7.18-7.24-9.01-8.06-15.09-.55-4.11,1.71-17,7.02-16.98l15.03,2.06-3.94-8.85c6.24-7.67,20.18-4.09,26.99.81,4.92,3.54,5.5,9.5,8.88,13.12,3.44,3.68,9.31,4.13,11.97,8.22.34.53,3.49,11.47,3.57,12.1.21,1.82-4.31,13.05-5.4,13.83l-8.06-1.2Z"/>
  <path class="st0" d="M1411.4,112.59c2.1,1.86,5.36,11.21,4.75,14.06l-6.1,4.35,9.11,4.88c4.1,5.53-12.98,28.84-23.13,20.12-2.01,2.44,6.64,11.65,1,18-3.07,3.46-13.1.97-13.05,9.99l-19.75-15.41,5.74-11.6c-4.28-6.16-10.42,1.27-16.59-2.83-1.14-.76-6.13-10.56-6.52-12.14-2.63-10.58,8.35-7.59,11.14-13.05,2.13-4.17-5.33-2.58-7.15-4.83-6.5-8.04,14.98-20.14,22.22-19.95,3.54.09,6.47,3.44,10.12,3.82,5.16.53,10.25-2.98,15.72-2.06.7.12,11.97,6.18,12.5,6.64Z"/>
  <path class="st0" d="M2388,714v29l-34,24.07c-1.17,4.74,30.14,28.75,32.96,34.97,3.15,6.94-.11,20.08,1.03,27.95l-77.99-64.97,78-51.02Z"/>
  <path class="st0" d="M500.01,995.99c1.34,1.58,13.23-8.47,18.97,2.11,2.58,4.76-1.42,9.67,9.01,9.92-5.21,3.61-9.37,15.47-12.87,18.15-7.44,5.71-14.74-6.86-17.12-4.17,2.88,15.63-4.34,23.88-19.84,23.83l-5.2-11.83-6.01,8.06c-4.83.54-10-3.53-12.98-7.05-13.25-15.63,2.81-25.38-6.1-42.06,6.16-7.23,8.77-15.36,19.24-17l5.88,6.03,5.15-9.87c12.17.89,24.84,10.29,21.87,23.87Z"/>
  <path class="st0" d="M1366.01,1893.99c14.66-3.55,24.25,5.72,22.21,19.14l-12.21,7.89,9.73,5.95c-2.15,8.14-12.81,16.23-20.94,17.03-6.74.67-10.4-4.38-15.65-4-4.03.29-7.46,4.58-12.08,4.09-6.7-.7-19.66-13.79-19.21-20.95.13-2.03,7.98-2.01,6.13-7.11l-7.8-2.23c-.44-13.24,9.63-24.64,23.81-21.81-12.16-19.48,5.41-15.77,13-27.94l16.77,15.37-3.76,14.58Z"/>
  <path class="st0" d="M766.01,361.99l10.76-1.87c7.68,10.44,7.67,23.11-2.76,31.86,21.28,4.4,5.84,15.59,9.99,28.01l-22.65,1.73c-6.54-2.16-2.82-16.2-10.99-11.32-1.35.8-.99,6.58-7.46,7.64-4.35.71-12.56-1.14-15.98-3.97-7.22-5.97,7.58-14.68-2.85-17.04l-4.84,2.88c-8.96-4.61-5.13-21.63-.2-27.9,3.85-4.9,9.24-3.95,12.92-7.07,3.82-3.24,4.51-11.38,7.43-13.17,2.38-1.46,6.08.11,9.06-.33,1.72-.25,3.44-2.78,4.97-3.05,1.66-.29,10.65,4.94,13.78,5.49l-1.17,8.1Z"/>
  <path class="st0" d="M801,1902c-1.27-.36-19.13-18.15-16.99-19.99l100-8.01-19.01,91.96-20.51-21.18,7.51-42.78h-51Z"/>
  <path class="st0" d="M2260.11,1013.93c6.9,3.23,7.13-7.22,10.86-7.57,5.67-.54,16.93,17.53,16.9,22.66-.02,3.52-3.8,7.05-4.02,12.01-.23,5.17,2.89,10.57,2.39,16-.07.72-7.83,11.37-8.36,11.87-.69.65-10.25,5.27-10.84,5.14l-3.07-6.01h-2.94s-7.92,8.01-7.92,8.01c-6.53-1.66-16.4-7.35-18.34-14.02-1.22-4.21,2.8-7.24-1.75-9.96-3.69,3.02-8.32,5.44-13.02,3.04-5.79-5.37-3.66-12.85-11.95-16.08l13.31-16.74,16.65,3.72c-6.01-16.38,3.93-18.8,16.88-23.92l5.24,11.86Z"/>
  <path class="st0" d="M490,459c.27-.95,12.07-14.03,13.09-14.91,2.53-2.2,3.35-2.62,6.91-2.1l8,100-91.98-18.02,21.45-21.65,42.55,5.68v-49Z"/>
  <path class="st0" d="M1088,4l23.22,33.91c4.83,1.02,28.54-30.02,34.82-32.87,6.65-3.02,18.49,0,25.95-1.03.48,3.7-2.1,6.24-4.02,8.96-12.54,17.74-37.71,47.28-52.95,63.05-2.13,2.21-4.77,6.01-8,6.01l-51.03-78.03h32Z"/>
  <path class="st0" d="M1317.99,1023.99l.02-8c9.52-.41,11.26,5.92,15.29,11.81,2.43,3.56,7.87,2.87,4.43,12.94-1.59,4.65-8.3,2.53-11.76,4.26-2.68,1.34-2.95,5.27-4.53,6.43-3.08,2.24-10.66,1.4-13.62,5.39-3.49,4.69-6.37,31.16-10.81,31.15-10.37-7.57-17.32-14.35-11-27.94-7.25-1.12-10.72,8.23-17.91,5.04-8.33-3.69-4.11-11.38-5.1-13.16-1.18-2.13-7.96-2.77-6.98-6.87,1.48-3.39,8.48-3.87,9.56-5.47,1.65-2.43-.46-9.75,5.83-11.29,8.19-2.01,13.81,13.08,16.59,9.73-1.19-7.52-4.14-20.61,5.94-23.17,5.47-1.39,6.95,4.9,11.09-4.82,8.96.49,4.35,14.27,12.97,13.99Z"/>
  <path class="st0" d="M1303.98,978c-.63-8.04,11.84-15.79,18.66-11.67,5.13,3.1.49,7.4,11.36,3.67,3.99,7.79-4.62,10.26-3.98,17.99l8.94-4c5.82,1.23,3.48,23.47.04,27.92-7.44,9.63-9.37-.03-14.39-1.51-6.34-1.88-14.57-.76-21.64-5.64l-27.92,15.25c-7.14-11.07-1.92-22.86,8.92-29.01l-15.67-8.32c-2.62-11.77,10.75-8.92,3.72-22.67,4.33-1.02,9.11,2.4,12.92,1.98,4.1-.46,5.89-5.79,11.08-3.1,7.42,3.84.37,15.84,7.98,19.11Z"/>
  <path class="st0" d="M1189.64,946.37c2.9,14.98,3.09,30.5,4.35,45.62l-4.58-.4-117.4-83.58,117.63,38.36Z"/>
  <path class="st0" d="M1431.99,930.01c-5,15.33,12.37,32.51-15.92,25.99l-2.06,5.01c5.32,1.24,13.02,6.38,13.58,12.3.46,4.93-4.59,7.32-6.32,10.67-1.05,2.04,2.34,7.98-4.18,8.04l-13.07-4.01,4,9.98c-7.68,1.63-35.44,3.27-31.73-10.58.67-2.5,4.48-4,5.32-6.81,1.01-3.37-.13-7.42.92-11.06.97-3.39,4.89-6.64,4.71-10.57s-17.23-27.23-15.23-28.96c5.42.96,10.84-2.63,16.03-1.22,6.49,1.77,10.19,11.22,10.99,11.23,6.63.07,3.21-13.15,12.81-15.12,5.18-1.06,10.97,10.34,20.16,5.11Z"/>
  <polygon class="st0" points="1661.99 1139.99 1544.28 1101.72 1542.01 1056.01 1661.99 1139.99"/>
  <path class="st0" d="M1404.02,1106c-2.64,3.6,15.25,28.15-9.95,21.99l-2.22,7.89-5.64-.07c-.7-14.16-18.65-6.48-13.79-20.38,1.65-4.72,9.32-6.63,7.56-13.43-9.1,7.61-27.59,1.72-19.97-11.98l-5.8-.18-.31-6.63,14.06-6.21c-1.23-4.33-12.04-.98-9.94-5.97,2.77-6.61,22.9-24.42,29.12-15.16,1.75,2.61.15,7.68,1.19,10.81s5.02,3.12,6.57,5.43c2.12,3.16,1.32,10.83,5.07,12.93s29.94,5.09,30,9.96c-6.96,10.38-12.54,17.42-25.94,11.01Z"/>
  <path class="st0" d="M1470.47,1008.46c-3.88,4.1-.57,16.5-14.05,10.08-4.55-2.17-3.36-8.63-10.42-6.52,3.07,5.99,2.75,12.53.16,18.65-2.53,4-9.01,2.3-12.71,3.45-1.9.59-1.64,6.9-7.57,3l-6.89-13.11c-1.79,2.51-.43,11.24-5.94,9.97-4.66-1.08-17.23-17.38-16.88-23.09.5-8.28,9.5-5.66,13.85-7.88,4.81-2.45,1.64-3.17,12.45-7.44,10.07-3.99,5.18-9.8,6.68-13.62.62-1.59,3.73-2.84,4.45-5.32,1.42-4.92-1.62-11.15,3.43-14.61,9.03,4.29,12.78,7.63,14.46,17.52.4,2.34-2.93,10.41,1.5,10.44.98,0,10.87-11.63,17.2-3.14,2.42,7.96,1.4,12.1,9.76,16.18-1.81,3.51-7.66,3.54-9.49,5.46Z"/>
  <path class="st0" d="M1469.99,1170.01l26,143.98-57.28-109c.01-2.33,22.13-28.13,25.65-31.63,1.76-1.75,1.71-4.37,5.62-3.35Z"/>
  <path class="st0" d="M1461.99,1029.99c.95,11.48,3.75,13.69-3.99,23.09-1.87,2.27-6.01,2.55-6.02,3.94-.09,7.83,12.53,1.36,15.18,10.94,2.47,8.91-11.43,8.24-5.17,20.03-3.77,1.02-7.97-1.99-11.1-1.8-4.03.24-7.11,6.49-12.92,2.88-6.88-4.28-.37-15.11-5-17.05-4.18-1.75-2.06,3.73-4.31,6.09-13.44,14.12-18.75-.08-20.01-.28-1.47-.23-3.34,1.38-4.41,1.34-10.2-.42,1.47-13.56-.25-19.17l-6.98,5.96c-4.17.13-10.33-36.09,9.63-31.97,1.58.33,1.5,4.41,5.24,5.24s6.62-1.07,8.83-.63c3.62.71,6.27,6.12,12.24,5.47,5.41-.59,25.37-17.82,29.05-14.09Z"/>
  <path class="st0" d="M1357.57,1054.41c4.2,7.23-4.55,11.86-5.29,14.97s2.14,6.22,1.43,9.24c-.8,3.41-7.08,4.59-5.86,12.38.74,4.73,4.86,4.1,5.66,5.44,1.24,2.09.04,5.64.91,8.06,1.87,5.17,10.09,7.28,7.56,15.5-11.09-1.24-22.26,2.07-26.02-12-7.41,2.07-4.55,13.79-11.37,15.73-8.01,2.28-10.58-9.9-20.58-3.74,2.67-10.15-.94-16.17-1.83-25.81l17.81-2.2c-.33-7.02-10.89-6.99-12.06-15.11-1.06-7.35,3.52-7.52,4.98-11.04,1.36-3.27-1.64-9.09,5.75-9.56l10.29,5.72c5.96-3.77-2.69-6.61-.96-12,5.19-1.64,26.74-.48,29.58,4.4Z"/>
  <path class="st0" d="M1347.97,912.01c.91,11.4,8.7,10.15,15.95,15.19.43,2.85-.78,5.23-2.16,7.57-2.45,4.13-8.89,4.75-7.74,8.21,1.5,4.49,12.05-.87,17.99,2.03,5.24,2.56,6.34,10.08,3.98,14.99l6.02.02c.17,9.56-6.73,8.17-14,10.02l8,3.98c-.58,11.74-16.29,25.13-27.7,19.66,2.23-11.37-5.28-12.19-8.08-16.81-2.25-3.71-1.45-8.95-4.21-11.91-2.85-3.06-29.45-6.94-30.02-9.99,4.3-11.97,13.86-17.73,25.99-12.96,2.46-2.59-17.77-25.08,9.74-22.26l2.12-6.55,4.13-1.18Z"/>
  <path class="st0" d="M1078,1151.98l107.49-55.71c6.57-.91,30,23.28,36.47,28.73l-143.96,26.98Z"/>
  <path class="st0" d="M1335.99,1198.01l-83.97,121.99,37.82-116.69c3.56-4.77,37.99-3.59,46.15-5.3Z"/>
  <path class="st0" d="M1484,730.02l-38.97,116.01c-2.01,2.42-43.38,5.55-45.02,3.96l1.94-7.04c27.12-32.09,48.13-77.8,75.21-108.79,1.98-2.27,3.07-4.96,6.84-4.14Z"/>
  <path class="st0" d="M1264.01,878.01l-23.99-144,56.01,109.18c.34,1.77-.28,3.2-1,4.76-.77,1.68-22.04,26.17-24.11,27.97-2.53,2.2-3.35,2.62-6.91,2.09Z"/>
  <polygon class="st0" points="1658 896.02 1546.97 953.46 1514.03 924.96 1519.58 920.61 1658 896.02"/>
  <path class="st0" d="M1046,1636.02c1.7,1.35-20.43,24.63-22.91,26.07-3.9,2.27-8.41,2.43-12.7,3.3-28.18,5.73-58.79,6.5-87.17,12.04l-19.21-16.46,141.98-24.95Z"/>
  <polygon class="st0" points="707.98 1228.03 692.98 1231.98 668.84 1230.16 590.44 1171.58 590.01 1146.01 707.98 1228.03"/>
  <path class="st0" d="M1832,389.98l-142,22c-1.9-1.41,22.46-27.73,27.45-27.53l93.57-12.64c4.11-1.41,21.99,17.17,20.98,18.17Z"/>
  <path class="st0" d="M1574,1723l-58.86,77.14c-5.8,4.25-19.75.77-27.14,1.84l86-117.98v39Z"/>
  <polygon class="st0" points="1246 248.02 1162.02 364 1161.08 326.08 1218.86 249.86 1246 248.02"/>
  <path class="st0" d="M2004.01,1243.98l129.97-79.98c.94,1.26-2.27,27.63-7.23,29.75l-84.68,51.3-38.06-1.08Z"/>
  <path class="st0" d="M1972.02,730l36.98-147.96,15.12,22.85-22.22,94c-4.83,14.17-20.24,20.65-29.87,31.11Z"/>
  <path class="st0" d="M733.99,562.01l21.99,141.99c-11.22-10.93-25.84-19.8-29.42-35.56-6.38-28.1-5.88-60.7-12.08-89.22,1.72-2.56,17.28-19.8,19.51-17.22Z"/>
  <path class="st0" d="M1228,1789.98c-2.34,1.68-23.74-1.41-27.13-3.85s-21.62-33.8-25.7-40.3c-5.03-8-27.22-41.6-28.68-47.32-3.03-11.89,2.93-24.54,1.53-36.51l79.98,127.98Z"/>
  <path class="st0" d="M1810,1664.02c-3.96,5.48-17.92,17.76-24.02,17.2l-96.53-23.67-27.45-27.53,148,34Z"/>
  <path class="st0" d="M1588,388l-80.02-128.98c.01-2.91,25.74,1.84,28.06,5.94,4.65,11.84,51.96,78.65,51.96,84.04v39Z"/>
  <path class="st0" d="M2002.02,1488l-22-142,27.87,29.11,12.3,91.91c1.41,4.11-17.17,21.99-18.17,20.98Z"/>
  <path class="st0" d="M727.99,1465.99c-2.75,2.55-16.44-17.18-16.97-19.76-.61-2.95,3.05-15.84,3.95-20.26,5.51-26.95,13.77-53.54,19.55-80.46l27.46-25.52-33.99,145.99Z"/>
  <path class="st0" d="M1071.98,420l-145.94-37,22.67-14.91c28.62,9.23,64.54,11.78,92.19,22.02,8.72,3.23,22.22,16.4,28.12,23.88,1.59,2.01,3.87,2.57,2.96,6.02Z"/>
  <path class="st0" d="M730,804l-127.98,80c-1.4-1.92,1.7-24.18,3.99-26.99l84.99-53.01h39Z"/>
  <path class="st0" d="M2144,876v28l-116-86h37c6,0,66.5,54.21,79,58Z"/>
  <path class="st0" d="M1164,140v29c0,4.63-51.83,62.66-56.86,73.14-3.08,3.1-29.2,2.31-29.16.84l86.02-102.98Z"/>
  <path class="st0" d="M1020,1781.98l-134,14,23.4-23.58c27.83-.6,58.45-9.52,85.72-10.5,9.86-.36,18.46,13.36,24.88,20.08Z"/>
  <path class="st0" d="M2139.99,1505.99c-2.49,2.46-21.49-18.21-23.47-21.51-1.85-25.66-9.41-54.22-10.49-79.49-.84-19.67,6.83-19.92,18.98-32.98l14.98,133.98Z"/>
  <path class="st0" d="M513,1228l71.11,56.89c4.46,7.77.7,20.31,1.87,29.11l-103.98-86h31Z"/>
  <path class="st0" d="M610.02,676l-14.01-131.99c2.27-2.58,21.81,18.21,23.11,21.87l10.99,87.22c-.17,7.37-14.52,17.76-20.09,22.89Z"/>
  <path class="st0" d="M2254,820h-33l-71.11-56.89c-3.14-2.84-2.34-27.17-.87-27.13l104.98,84.02Z"/>
  <path class="st0" d="M1847.99,252.01c1.89,1.91-16.65,20.78-18.89,22.09-4,2.33-9.75,2.78-14.38,3.62-25.34,4.59-53.88,5.67-79.68,8.23l-19.02-16.97,131.97-16.96Z"/>
  <path class="st0" d="M1572,1879l54.86-71.14c3.07-3.11,29.2-2.31,29.16-.84l-84.02,102.98v-31Z"/>
  <path class="st0" d="M1221.99,1796.01l-76.99,97.95c-4.08.05-3.71-24.95-2.96-28.92.69-3.6,5.64-8.63,8.04-11.96,14.04-19.47,32.51-37.67,46.77-57.22,6.98-4.67,16.79,2.15,25.13.15Z"/>
  <path class="st0" d="M1680,272.02l-85.98,105.98c.39-11.82-1.97-22.7,3.19-33.79,3.31-7.1,47.03-62.18,53.69-68.31,7.91-7.27,19.12-2.78,29.09-3.88Z"/>
  <path class="st0" d="M719.98,794.04l-.99,3.97c-19.26,1.71-27.79-.6-42.79-11.22-20.33-14.4-38.71-33.52-59.78-47.2l-2.41-27.59,105.96,82.04Z"/>
  <path class="st0" d="M717.99,1469.99l-123.99,11.99,21.47-23.51c15.91.37,80.18-13.17,90.51-7.46,1.23.68,13.41,17.75,12.01,18.97Z"/>
  <path class="st0" d="M2119.99,713.99l-133.99,13.99c5.17-5.28,15.25-18.91,21.52-21.46,9.7-3.93,70.05-9.96,83.5-10.51,14.28-.57,15.68,3.33,25.61,12.35,1.95,1.77,4.3,1.77,3.36,5.62Z"/>
  <polygon class="st0" points="2207 1250 2138.44 1195.58 2141.02 1169.98 2234.64 1243.92 2236 1250 2207 1250"/>
  <polygon class="st0" points="2139.99 566.01 2120.75 589.75 2033.05 600.12 2016.01 580.99 2139.99 566.01"/>
  <path class="st0" d="M741.99,703.99l-123.98-24.98,18.84-16.85c23.92,7.38,54.35,7.36,77.66,14.33,4.38,1.31,5.39,3.03,8.53,5.47,2.39,1.86,21.15,20.06,18.95,22.03Z"/>
  <path class="st0" d="M1811.98,1674l11.02,123.96c-5.36-7.05-20.74-17.12-22.59-25.37-5.38-23.96-2.43-55.08-8.52-79.69.16-8.39,13.68-14.75,20.09-18.9Z"/>
  <path class="st0" d="M747.99,1320.01c2.04,2.07-13.6,17.3-15.95,19.03-3.48,2.57-4.47,3.85-9.18,4.82-26.72,5.53-58.77,3.78-85.97,9.87l-22.89-16.74,133.98-16.98Z"/>
  <path class="st0" d="M2115.99,1368.01c2.14,2.06-14.29,19.55-18.96,18.17-23.21-6.88-55.88-6.67-77.9-14.31-5.02-1.74-20.36-16.94-24.14-21.86-1.54-2.01-3.88-2.54-2.98-6l123.98,24Z"/>
  <path class="st0" d="M1592,156v31c0,4.34-49.59,57.81-54.95,67.18l-25.05-2.2,80-95.98Z"/>
  <path class="st0" d="M531,800l66.02,54.01c2.08,3.34-.41,14.06-1.11,18.94-.4,2.83,1.88,5.91-2.93,5.08l-94.98-78.03h33Z"/>
  <path class="st0" d="M922.01,373.99l-12-121.98c2.29-2.6,21.65,18.41,23.52,21.46,1.61,23.18,7.47,48.63,8.44,71.54.75,17.52-2.57,24.01-19.96,28.98Z"/>
  <polygon class="st0" points="1071.99 405.99 1049.89 385.11 1048.06 380.94 1038.15 292.85 1055 272.04 1071.99 405.99"/>
  <path class="st0" d="M1140,1703l-56.85,71.15c-2.63,1.63-27.25,5.47-27.17,2.83l84.02-104.98v31Z"/>
  <path class="st0" d="M2045,1252l72.4,56.57c4.93,6.15,1.73,19.76,2.58,27.43l-103.98-84h29Z"/>
  <path class="st0" d="M1678.02,1778l-14-136c5.41,7.06,19.09,17.36,21.93,25.05,3.86,10.48,9.56,68.25,10.06,82,.49,13.37-8.11,20.99-17.99,28.95Z"/>
  <path class="st0" d="M1154,356l-72.02-104.98h24c4.94,9.75,48.02,65.15,48.02,69.98v35Z"/>
  <path class="st0" d="M697,1238c.69.17,3.48,3.25,3,3.97l-105.98,68.03,1.84-25.14c9.41-4.35,63.05-46.86,67.14-46.86,8.23,0,27.66-1.6,34,0Z"/>
  <path class="st0" d="M2036,810l102.98-70.04c4.16-.42,2.63.23,3.02,3,.75,5.27.77,15.79-1.86,20.18-8.88,4.94-63.05,46.86-67.14,46.86h-37Z"/>
  <polygon class="st0" points="1582 1692 1654 1797.98 1628.01 1796.99 1582 1731 1582 1692"/>
  <path class="st0" d="M1688.02,400c7.59-37.97,12.42-79.49,22.26-116.74.55-2.08.99-9.13,4.7-7.25l14.53,17.21-14.05,77.24-27.45,29.53Z"/>
  <path class="st0" d="M1023.99,1771.99c-2.15,2.23-17.56-13.26-18.05-17.1,5.28-23.42,7.04-49.99,12.98-72.97,3.67-14.19,18.76-23.81,29.06-33.92l-23.99,123.99Z"/>
  <path class="st0" d="M474,1222l106.98-72.04c4.17-.42,2.62.24,3.02,2.99.68,4.68.79,14.5-1.86,18.18-10.84,5.16-67.12,50.86-73.14,50.86h-35Z"/>
  <path class="st0" d="M1513.58,1808.44l49.52,71.46,2.88,38.1-73.94-107c-.02-4.2,17.86-3.45,21.54-2.56Z"/>
  <path class="st0" d="M1835.99,380.01c-6.96.69-15.66-8.67-16.18-14.99-.88-10.71,8.03-54.31,10.82-67.39,1.36-6.38,2.06-15.25,5.32-20.68,3.96-6.61,18.17-16.75,24.03-22.95l-23.99,126.01Z"/>
  <path class="st0" d="M2244,1256l-115,75.96c-3.96-.03-4.58-19.67-1.02-22.99l85.03-52.98h31Z"/>
  <path class="st0" d="M874,1793.98l28.97-125.96,13.03,15.01-14.54,83.44c-2.19,6.42-15.78,20.07-21.45,24.55-2.01,1.59-2.57,3.87-6.02,2.96Z"/>
  <path class="st0" d="M1170,132l72.02,106.98c0,1.62-19.86,2.51-22.17-1.82-4.78-9.61-49.84-65.85-49.84-70.16v-35Z"/>
  <path class="st0" d="M2137.98,1518c-38.34-11.39-82.4-13.59-120.37-24.65-2.2-.64-7.11-.7-5.59-4.32l14.82-12.85,83.67,14.32c4.32,1.92,30.22,24.17,27.47,27.51Z"/>
  <path class="st0" d="M596,532.02l127.96,26.98c-6.65,5.77-9.2,13.04-18.92,13.19-11.15.18-67.23-10.01-78.39-13.84-10.98-3.77-23.15-17.66-30.65-26.33Z"/>
  <path class="st0" d="M2123.99,703.99c-1.9,2.18-17.31-12.69-17.08-16.1l22.13-93.84c4.24-10.79,14.36-18.65,22.94-26.04l-27.99,135.99Z"/>
  <polygon class="st0" points="584.02 1480 612.99 1344.01 627.04 1358.07 606.1 1455.1 584.02 1480"/>
  <path class="st0" d="M1048,268.02c1.22.85-12.22,17.96-16.57,17.55l-95.47-22.52-23.96-23.02,136,28Z"/>
  <path class="st0" d="M2259.99,826.01l-107.97,73.99,1-21.98,67.83-48.17c12.63-2.91,26.24-4.09,39.14-3.84Z"/>
  <path class="st0" d="M1598.02,148c2.65.52,4.09,3.39,5.63,5.35,17.46,22.08,38.21,57.32,54,82,3.72,5.81,13.11,19.59,15.39,24.64,3.49,7.74-12.92,7.08-17.66,5.62-3.6-1.1-6.09-6.73-8.2-9.79-8.86-12.9-41.88-62.84-45.64-74.36-3.56-10.91.45-22.41-3.51-33.47Z"/>
  <path class="st0" d="M1136,1900l-76-115.98c7.29.9,18.74-2.66,24.11,2.87l51.89,84.11v29Z"/>
  <path class="st0" d="M1822,1807.98l-133.98-28.96c5.95-8.12,9.13-15.87,20.42-14.58,13.52,1.55,81.05,17.09,92.04,22.08,6.71,3.05,16.06,15.84,21.52,21.46Z"/>
  <polygon class="st0" points="607.58 739.59 524.09 791.09 492.01 793.99 607.01 716.01 607.58 739.59"/>
  <path class="st0" d="M560.01,1591.99l-10.03,54.01c-3.1.6-4.63-.32-7.08-1.9-3.45-2.22-43.62-42.21-44.88-45.13-1.73-4.01,6.97-4.81,8.97-4.98,17.36-1.5,35.6-.04,53.02-1.99Z"/>
  <path class="st0" d="M2174.01,455.99l12.01-53.98c3.45-.89,3.99,1.43,5.99,2.98,15.78,12.21,30.24,32.92,45.94,46.01-1.89,2.88-3.82,2.79-6.85,3.11-18.73,1.95-38.27,1.81-57.1,1.88Z"/>
  <path class="st0" d="M2388,1164v70l-7.1-1.9-40.9-37.12c-.83-3.31,16.49-13.39,20.17-15.81,8.39-5.53,18.21-12.25,27.83-15.17Z"/>
  <path class="st0" d="M799.99,217.99c-7.15-1.6-53.25-9.7-53.98-13.02l49-50.96c5.2,20.45,2.83,42.83,4.98,63.98Z"/>
  <path class="st0" d="M1578,4l-41,47.96c-2.83,0-29.32-40.91-29-47.96h70Z"/>
  <path class="st0" d="M1989.99,1842.01c.9,3.46-1.43,4-2.98,6-7.06,9.18-33.82,35.96-43,43-2.01,1.54-2.54,3.88-6,2.98l-2.01-62,53.99,10.02Z"/>
  <path class="st0" d="M393.71,729.74l-45.7,32.25-2-69.98c3.25-.79,4.63.66,7.04,1.94,3.94,2.11,36.46,26.33,38.89,29.1,1.92,2.19,3.03,3.72,1.77,6.69Z"/>
  <path class="st0" d="M2323.99,539.99l-57.98,8.01,6-57.99c1.25-1.57,17.29,12.37,19.04,13.94,8.16,7.31,23.65,21.81,29.96,30.04,1.54,2.01,3.88,2.53,2.98,6Z"/>
  <path class="st0" d="M1106,2043.98c-21.34-2.04-44.02,4.43-65.1,2.12-3.02-.33-4.96-.2-6.86-3.1,6.11-5.52,31.44-46.01,36.74-44.91l35.22,45.89Z"/>
  <path class="st0" d="M470,1502.01l-8.02,57.99-49.97-47.03c-.51-2.31,1.33-3.94,3.37-4.59,5.08-1.62,52.68-8.31,54.62-6.37Z"/>
  <path class="st0" d="M1901.99,1930.02c.89,3.44-1.42,4-2.97,6-8.01,10.32-22.43,22.07-32.04,31.96-4.51,4.64-6.48,13.25-14.96,12.04l-8-58,57.98,8.01Z"/>
  <path class="st0" d="M890.01,126.01c-1.45,1.45-35.25-3.44-40.68-4.34-3.2-.53-17.41-1.85-17.29-4.67l47-48.99,4.63,3.32,6.34,54.67Z"/>
  <path class="st0" d="M2388,1288v70c-14.11-10.31-31.77-20.82-44.65-32.35-1.51-1.35-4.04-1.75-3.37-4.63,13.57-7.55,27.88-24.09,40.97-31.07,2.42-1.29,3.79-2.71,7.05-1.95Z"/>
  <polygon class="st0" points="1700 4 1665 51.96 1630 4 1700 4"/>
  <path class="st0" d="M348,886v-72l6.01,2.99,40.12,38.01c.28,2.83-1.96,3.36-3.4,4.74-9.37,8.92-31.7,17.8-42.73,26.26Z"/>
  <path class="st0" d="M1156,2044c10.55-11.79,20.97-25.8,31.95-37.05,3.23-3.31,8.13-9.87,12.99-9.03l27.06,46.08h-72Z"/>
  <path class="st0" d="M765.99,1808.01l-10,43.98c-1.38,1.51-12.17-7.4-14.02-8.96-9.72-8.23-18.31-19.5-27.96-28.04l51.98-6.98Z"/>
  <path class="st0" d="M2019.99,235.99l-49.99,4,10.03-43.99c2.14-1.64,34.13,30.26,36.99,33.98,1.54,2.01,3.88,2.54,2.98,6Z"/>
  <path class="st0" d="M385.99,1155.96l-37.98,20.03-2-53.98c1.4-1.59,8.02,3.94,9.79,5.19,6.49,4.6,16.46,12.43,22.23,17.77,2.06,1.91,9.72,8.44,7.96,10.99Z"/>
  <path class="st0" d="M1520,2043.98c-16.28-.42-32.75,3.91-49.1,2.12-3.02-.33-4.96-.19-6.86-3.1,6.63-3.81,28.47-38.09,32.93-37l23.03,37.98Z"/>
  <polygon class="st0" points="2388 872 2388 928 2348.04 895 2388 872"/>
  <path class="st0" d="M1270,4l-31,39.96c-2.32.02-22.8-34.21-23-39.96h54Z"/>
  <path class="st0" d="M2195.99,1636.01c.9,3.46-1.43,4-2.98,6-5.06,6.58-24.67,27.17-30.93,32.63-2.25,1.96-3.3,1.5-6.08,1.36l-4-50,43.98,10Z"/>
  <path class="st0" d="M577.99,372.01l6.01,49.98-43.99-10.01c-.89-3.45,1.43-3.99,2.98-5.99,7.4-9.56,20.47-20.85,29.38-30.62,1.77-1.95,1.79-4.29,5.62-3.36Z"/>
  <path class="st0" d="M1641.56,599.57c-1.65,1.67-7.42,2-10.64,4.37-7.91,5.81-5.86,13.9-22.93,10.05l4.08-33.92,32,4.9c2.54,1.45-1.16,13.23-2.51,14.6Z"/>
  <path class="st0" d="M871.52,1132.33c6.7-1.09,8.9,3.3,13.57,3.62,3.19.22,6.16-2.19,9.45-1.57,2.47.47,11.85,7.3,11.32,10.35l-24.88,20.9-20.95-26.64c.03-1.35,9.39-6.32,11.48-6.66Z"/>
  <path class="st0" d="M1489.96,1486.01c.76,6.99,19.72,20.77,17.91,26.73-.53,1.75-23.6,18.03-26.6,17.15-2.16-.63-6.67-9.07-6.84-11.23-.23-3.05,2.92-6.17,3.48-9.76,1.55-9.94-2.11-19.43,12.05-22.89Z"/>
  <path class="st0" d="M1812.01,1268l-4.01,34.01c-16.18,1.44-13.64-6.36-19.14-13.87-5.08-6.94-14.89-6.42-10.86-22.15l34.01,2.01Z"/>
  <path class="st0" d="M1125.99,1434.01l-1.98,34-33.95-4.12c-.57-16.66,6.05-13.06,13.93-18.9,2.92-2.16,3.91-6.62,6.07-7.93,1.56-.94,15.37-3.65,15.93-3.05Z"/>
  <path class="st0" d="M1873.87,911.82c-11.69,8.53-11.48,3.68-20.97,2.27-10.06-1.49-17.13,1.3-24.86-9.08l26.72-20.85,19.12,27.66Z"/>
  <path class="st0" d="M1244.26,561.72l-18.14-24.75,26.73-18.92c12.49,9.85,3.68,15.08,3.19,23.04-.23,3.75,2.74,7.33,1.69,11.47-.85,3.34-9.62,11.4-13.47,9.16Z"/>
  <path class="st0" d="M968,1262c3.02,15.48-3.43,13.76-10.08,20.92-2.87,3.09-5.99,9.49-8.77,11.22-18.29,11.37-12.52-22.32-15.15-32.13h34Z"/>
  <path class="st0" d="M893,886.04l22.85,23.24c-5.41,13.5-12.81,8.53-22.84,8.52-8.7,0-12.96,4.92-21.01-4.88l21-26.88Z"/>
  <path class="st0" d="M1130,592v34c-4.24-.3-12.63-.8-15.93-3.07-2.88-1.98-2.9-6.43-5.19-8.8-6.7-6.94-13.06-3.39-12.95-17.12.04-4.61.16-2.34,3.09-2.95,10.09-2.12,20.71-2.24,30.98-2.06Z"/>
  <path class="st0" d="M1479.41,530.22c4.82-1.25,22,16.68,26.55,20.78l-24.96,22.97c-11.54-9-6.67-13-6.8-22.97-.09-6.87-5.36-18.02,5.21-20.77Z"/>
  <path class="st0" d="M946.57,761.45c1.67,2.06,6.34,2.59,8.34,6.63,1.27,2.56,3.96,13.16,1.12,14.96l-31.74-3.34,3.73-33.72c16.34,1.5,12.83,8.42,18.55,15.46Z"/>
  <path class="st0" d="M1829.48,1130.32c5.25-1.01,8.65,1.45,13.31,1.5,3.99.05,16.73-4.8,19.1,3.44,1.37,4.76-15.42,21.96-19.1,26.65l-24.74-22.91c3.08-3.16,6.9-7.81,11.43-8.68Z"/>
  <path class="st0" d="M1253.14,1476.07c12.67,5.63,6.84,14.5,6.83,22.93,0,4.23,5.27,19.73-4.95,20.49-2.34.17-24.41-18.16-24.88-20.77l23-22.66Z"/>
  <path class="st0" d="M1621.44,1426.58c2.14,1.78,3.53,7.41,6.69,10.3,3.81,3.48,16.37,6.59,8.99,17.25-1.58,2.28-26.02,3.44-31.23,2.99-3.79-2.61,2.42-26.76.11-33.13,4.85.03,11.45-.73,15.45,2.59Z"/>
  <path class="st0" d="M1798.01,753.99l1.99,34.01-33.98-2.01c-.58-13.77,5.61-14.71,13.08-21.9,6.31-6.09,5.26-12.89,18.92-10.1Z"/>
  <path class="st0" d="M1640,2046h-40c-.39-5.8,19.9-26.76,22.94-26,5.16,8.58,16.1,15.79,17.06,26Z"/>
  <path class="st0" d="M2282,1552.02c1.3,1.75-20.81,24.55-23.98,26.99-2.01,1.54-2.54,3.88-6,2.98,1.81-8.48-2.1-17.31-2.18-25-.18-16.12,21.04-5.01,32.17-4.96Z"/>
  <polygon class="st0" points="346 1256 371.91 1277.22 349.96 1297.02 346 1295 346 1256"/>
  <path class="st0" d="M484,500l-30.02-3.02c.18-7.21,21.05-23.72,26.02-30l4,2.02v31Z"/>
  <path class="st0" d="M844,1908c-1.98,9.31.18,22.35-5.03,29.99-2.28.48-23.37-20.57-25.98-23.98-1.54-2.02-3.86-2.52-2.99-6.01h34Z"/>
  <path class="st0" d="M1110.26,27.72l-16.25-23.71c8.33-.22,16.73.23,25.08.08,6.02-.11,12.65-4.97,16.87.91-3.83,4.54-19.59,26.26-25.7,22.72Z"/>
  <path class="st0" d="M1926,139.98l-34.01,2.03,2.02-32c3.47-.9,4,1.44,6,2.98,9.56,7.32,17.53,18.43,25.99,26.99Z"/>
  <path class="st0" d="M2387.99,752.01c.3,8.32-.34,16.74-.08,25.08.19,6.02,4.91,12.69-.91,16.87l-23.13-22.94c-.05-4.01,22.61-20.77,24.12-19.01Z"/>
  <path class="st0" d="M1353.22,1842.1c7.65-1.34,16.09,24.94-1.81,19.54-9.96-3.01-3.5-18.61,1.81-19.54Z"/>
  <path class="st0" d="M789.41,420.23c12.14-3.16,17.62,30.98-7.26,12.52-1.8-5.34,3.01-10.12,7.26-12.52Z"/>
  <path class="st0" d="M532.5,1004.49c4.84-5.01,18.33,2.18,17.41,6.37-.62,2.81-10.6,10.32-14.51,8.87l-5.12-5.17c-.77-2.84.2-7.98,2.22-10.07Z"/>
  <path class="st0" d="M779.99,1592c5.11,21.32-19.04,25.68-15.07,3.91l15.07-3.91Z"/>
  <path class="st0" d="M1969.53,453.53l-13.51,4.48c-2.77-7-1.77-13.77,3.94-19.12,7.48-4.04,15.09,9.55,9.57,14.64Z"/>
  <path class="st0" d="M1375.3,188.29c9.13-3.05,17.19,2.89,12.29,12.17-8.48,16.05-21.86-8.98-12.29-12.17Z"/>
  <path class="st0" d="M1951.49,1614.49c10.54,10.11-19.84,24.37-15.6-1.55,3.47-2.02,12.78-1.15,15.6,1.55Z"/>
  <path class="st0" d="M2203.7,1043.7c-2.44,3.88-13.19,1.71-16.45-1.53l-.95-4.78c3.01-5.59,7.88-8.88,14.43-7.17,4.07,1.11,4.39,11.21,2.97,13.48Z"/>
  <path class="st0" d="M1234.03,1042.05c5.86-.26,16.4-9.64,18.08,1.02,2.45,15.57-18.99,12.57-18.08-1.02Z"/>
  <path class="st0" d="M1293.14,1118.05c15.33,2.99,13.59,16.18-1.87,17.53l-4.71-4.56,6.58-12.98Z"/>
  <path class="st0" d="M1385.28,1140.25c13.26-4.46,13.64,11.58,5.54,17.6-7.66,2.34-12.16-15.38-5.54-17.6Z"/>
  <path class="st0" d="M1477.95,1103.93c-7.19,3.38-20.11-3.62-15-11.97,11.49-9.67,15.16.64,15,11.97Z"/>
  <path class="st0" d="M1260.25,959.73c-.48-3.73-6.49-12.08-2.28-14.78,9.17-2,21.52,4.82,12.04,14.05l-9.76.72Z"/>
  <path class="st0" d="M1439.47,914.35c3.59-.68,6.61-.95,8.38,2.91-2.92,29.09-28.15.85-8.38-2.91Z"/>
  <path class="st0" d="M1349.7,892.35c.7.44,5.82,11.69,3.45,13.76-24.03,10.9-14.24-20.47-3.45-13.76Z"/>
  <path class="st0" d="M1499.91,1007.9l-15.9,2.11c-4.95-25.18,22.65-10.36,15.9-2.11Z"/>
</svg>