<?xml version="1.0" encoding="UTF-8"?>
<svg id="Layer_0_xA0_Image" xmlns="http://www.w3.org/2000/svg" version="1.1" viewBox="0 0 2732 2048">
  <!-- Generator: Adobe Illustrator 30.0.0, SVG Export Plug-In . SVG Version: 2.1.1 Build 123)  -->
  <defs>
    <style>
      .st0 {
        fill: #aa000e;
        stroke: #000;
        stroke-miterlimit: 10;
        stroke-width: .25px;
      }
    </style>
  </defs>
  <path class="st0" d="M1556,1760c-16.9-10.78-32.96-20.44-53.13-23.87-4.74-48.05-1.84-106.92-19.9-152.1-6.95-17.38-17.32-26.62-28.59-40.65,13.39-37.19,3.8-78.11,9.83-116.18,1.53-9.68,5.69-25.77,16.69-27.3,32.13-4.47,55.69,30.77,69.44,54.76,3.09,5.39,20.95,39.67,21.21,42.67.29,3.27-7.03,15.07-8.59,20.64-13.25,47.42,24.38,85.43,27.11,128.96,1.52,24.28-12.44,23.61-22.44,41.71-2.76,4.99-11.63,28.01-11.63,32.37v39Z"/>
  <path class="st0" d="M2020,1411.98c-16.27,1.94-30.43,6.4-44.67,14.35-3.35,1.87-5.38,6.79-9.93,5.47-27.7-24.94-55.96-52.37-86.77-73.42-24.55-16.77-51.66-31.92-82.39-26.59-15.09-36.84-53.39-60.09-75.89-91.12-15.96-22.01-13.91-35.51,12.58-44.73,19.98-6.95,37.5-3.93,57.5.65,8.19,1.88,50.02,14.07,54.36,17.64,4.05,3.34,7.29,16.95,10.84,23.16,21.77,38.06,76.14,42.61,107.34,68.66,17.9,14.95,10.65,15.01,13.29,34.71,4.12,30.66,23.33,50.26,43.75,71.22Z"/>
  <path class="st0" d="M2102,836c1.35,1.17-13.45,22.46-15,26-3.68,8.42-6.11,18.74-7.09,27.91-26.19.42-52.81,1.25-78.9,4.1-41.02,4.48-85.65,10.32-113.97,43.33-38.16-12.23-78.81-4.19-117.82-9.56-31.85-4.39-33.28-22.74-18.05-47.62,9.52-15.55,24.36-25.27,39.49-34.51,6.47-3.95,44.39-24.83,48.67-25.21,2.9-.25,14.16,6.33,19.38,7.85,51.11,14.82,86.48-24.47,132.24-26.38,21.28-.89,24.1,13.84,41.28,22.86,5.59,2.93,27.58,11.22,32.78,11.22h37Z"/>
  <path class="st0" d="M1063.44,1270.56c1.45,1.44,3.49,6.71,4.06,8.93,5.94,23.14-3.47,44.06-15.87,63.14-4.17,6.42-37.96,48.77-41.67,50.33-6.3,2.66-18.45.49-26.44,1.56-44.79,5.97-93.92,83.32-124.09,79.09-5.67-.8-15.78-7.85-24.95-9.09-25.8-3.51-51.86,3.53-74.46,15.48,5.15-19.18,4.33-38.39,2.89-58.01,26.22-12.96,53.09-25.01,78.43-39.65,33.34-19.26,65.91-38.5,78.63-77.37,37.29.89,100.17-43.36,132.9-38.84,2.46.34,8.94,2.81,10.57,4.43Z"/>
  <path class="st0" d="M1755.99,374.01c1.16,17.84,7.91,37.7,19.95,50.99-40.99,49.19-105.24,100.79-102.26,170.68-34.78,10.4-79.4,81.75-111.21,85.96-11.99,1.59-20.89-13.43-24.01-23.09-12.05-37.35,8.13-76.98,18.54-112.56,52.72-12.44,59.39-64.24,82.67-103.33,5.16-8.66,14.94-24.91,25.46-26.54,18.62-2.89,25.71.5,45.3-8.7,18.31-8.59,26.43-21.75,40.56-31.44,1.69-1.16,1.97-2.8,5.02-1.97Z"/>
  <path class="st0" d="M1177.54,1503.54c-1.89,1.9-16.86,5.76-22.19,8.81-39.16,22.45-43.49,77.22-70.52,109.48-14.7,17.55-18.22,10.04-37.61,12.39-26.44,3.19-48.3,25-67.19,41.78-2.73-19.61-9.78-35.88-19.73-52.7,39.71-49.29,104.39-100.33,100.57-169.36,32.89-14.86,54.66-46.81,81.11-68.95,22.37-18.73,42.31-29.04,54.1,5.95,7.95,23.6,2.87,42.05-3.08,65.07-1.57,6.09-13.61,45.69-15.46,47.54Z"/>
  <path class="st0" d="M1087.75,576.24c.72,12.6,4.15,25.18,7.72,37.29,7.34,24.94,32.16,70.65,30.58,93.41-.82,11.87-6.22,16.77-17.59,18.53-44.9,6.97-76.15-32.73-108.62-56.33l-1.82-4.18c11.82-60.12-57.04-88.63-75.59-132.41-8.56-20.21,2.54-21.64,5.04-40.07,3.49-25.8-3.12-52-15.48-74.46,20.12,2.51,37.85,6.71,58.07.79,30.33,54.66,52.24,136.66,117.69,157.42Z"/>
  <path class="st0" d="M1371.29,499.29c38.54-46.33,10.18-98.09,31.26-141.74,6.33-13.12,20.31-13.25,32.11-21.89,20.47-15,31.69-38.58,40.34-61.65,6.07,6.47,10.24,15.55,15.99,22.01,7.35,8.26,17.21,12.72,22.99,20.84-7.57,22.35-16.34,44.49-22.96,67.15-12.07,41.32-26.26,85.94-5.34,126.7-25.5,28.59-33.54,70.26-52.06,101.91-9.51,16.25-19.27,30.1-38.28,17.06-19.98-13.7-27.6-38.03-31.09-60.92-1.66-10.9-6.48-54.72-2.36-61.86,1.99-3.45,7.41-5.19,9.41-7.6Z"/>
  <path class="st0" d="M1821.99,1631.99c-19.4-5.03-37.92-4.76-57.71-2.28-30.56-55.18-51.89-135.19-117.38-157.62-.95-10.87-3.35-21.19-6.38-31.62-7.35-25.33-33.25-76.34-31.6-98.55,2.15-28.8,44.67-18.94,62.42-10.28,9.87,4.82,62.29,44.7,65.73,52.44,1.33,3-1.26,12.84-.85,18.65,3.36,47.51,53.19,71.55,73.39,108.65,11.51,21.15,3.47,20.91-1.02,40.21-6.84,29.46,2.03,53.8,13.39,80.39Z"/>
  <path class="st0" d="M716.01,636.01c19.54,1.07,36.23-10.02,52.58-17.8,50.97,39.38,98.88,102.45,169.44,100.76,6.82,12.1,15.19,23.32,24.03,33.97,14.92,17.98,59.83,55.73,61.85,76.29,1.95,19.85-31.31,28.9-46.91,28.92-12.15.02-78.59-16.46-86.98-23.17-3.51-2.8-9.19-20.58-14.36-27.64-28.4-38.85-82.06-38.92-110.43-69.57-11.79-12.73-5.48-19.72-7.4-34.6-3.85-29.94-25.98-41.92-39.86-62.14-1.16-1.69-2.8-1.97-1.96-5.02Z"/>
  <path class="st0" d="M1231.91,312.09l4.11,72.89c6.71,40.77,6.96,90.16,43.08,117.05l.83,2.8c-15.14,29.73,1.64,119.52-17.89,140.2-13.86,14.67-44.43-5.53-55.05-17.02s-38.19-57.61-42.12-72c-2.15-7.87,7.65-22.48,8.92-33.23,5.61-47.56-30.06-84.81-29.76-125.79.11-15.1,9.41-17.34,16.8-27.17,16.79-22.32,19.99-52.72,19.19-79.83,16.05,9.8,32.26,21.14,51.89,22.09Z"/>
  <path class="st0" d="M1220.13,1735.85c16.76-61.28,58.97-134.39,28.43-196.87,26.61-28.63,33.92-70.87,52.56-102.86,14.85-25.48,29.84-29.74,49.9-6.14,23.29,27.39,19.22,71.76,25.09,105.12.3,8-8.85,10.41-12.9,15.11-36.15,41.92-13.19,91.94-29.14,136.86-7.02,19.77-17.62,14.33-32.73,25.27-21.37,15.48-30.75,39.02-42.34,61.62-11.47-14.17-20.68-31.89-38.88-38.11Z"/>
  <path class="st0" d="M632,1212c10.58-15.52,22.8-32.27,21.99-52.01l72.99-4c32.57-4.97,67.58-5.94,96.4-23.6,9.63-5.9,16.18-14.52,25.52-20.3,34.6,12.06,72.18,4.82,107.83,8.17,30.32,2.85,45.49,14.09,29.6,45.09-12.17,23.74-54.25,46.54-78.26,57.74-21.39,9.97-22.1-1.92-41.6-4.57-36.37-4.94-60.4,12.32-92.95,22.01-12.09,3.6-36.3,11.12-47.46,4.41-2.18-1.31-3.35-5.87-5.98-8.02-14.36-11.76-40.35-24.91-59.09-24.91h-29Z"/>
  <path class="st0" d="M1974,627.95c-23.37,9.15-47.96,20.88-70.05,33.01-35.01,19.23-79.02,42.78-88.14,84.85-11.7-.74-22.23,2.66-33.34,5.66-26.69,7.2-74.37,33.9-98.57,31.63-11.57-1.08-16.19-7.13-17.72-18.28-5.98-43.51,34.98-81.12,61.22-110.51,58.92,13.39,88.06-55.77,131.9-74.02,19.68-8.19,17.46-1.18,34.3,3.11,28.01,7.14,55.17-1.83,80.39-13.41-2.74,19.98-7.13,38.05.02,57.94Z"/>
  <path class="st0" d="M2117.99,1133.97c-17.58,7.62-30.37,22.54-41.2,37.76-60.79-17.03-133.68-59.43-195.52-27.95-28.32-27.86-73.59-34.62-105.11-54.94-13.27-8.56-24.62-17.08-15.84-33.52,19.51-36.55,84.72-35.04,120.22-39.03,35.33,46.75,90.29,28.52,137.55,38.62,29.08,6.21,21.84,11.16,34.26,31.74,8.67,14.37,23.74,25.76,38.3,33.7,3.6,1.96,28.51,11.88,27.34,13.63Z"/>
  <path class="st0" d="M618.01,917.97l1.25-4.14c15.84-7.93,28.99-20.9,38.04-35.98,27.61,8.73,54.69,19.67,82.71,27.15,37.43,10,76.22,20.52,112.65,1.41,30.22,26.36,75.2,34,107.19,54.75,13.13,8.52,23.09,16.01,14.56,32.24-19.59,37.3-84.98,36.42-121.41,38.61l-2.97-1.03c-13.9-21.77-42.37-31.13-67.04-32.97-21.75-1.62-78.31,3.59-91.9-16.1-3.74-5.42-5.47-14.17-9.41-20.59-13.1-21.34-40.41-35.7-63.66-43.36Z"/>
  <path class="st0" d="M1574,14c-18.95,39.05-54.85,121.44-12.04,155.04,26.87,21.09,63.5,3.69,81.99-20.09,16.94-21.78,15.01-50.05,29.22-72.78,4.54-7.26,11.34-18,20.86-15.3,6.27,1.78,22.99,9.47,29.44,12.7,1.39.7,3.88.19,2.51,3.4-1.62,3.8-20.36,23.02-24.81,29.2-25.33,35.17-28.87,61.93-44.81,99.19-16.87,39.43-93.96,107.08-134.34,65.62-6.91-7.09-32.42-46.37-36.37-55.63-9.32-21.81-4.52-47.11-1.07-69.77,6.85-45.02,20.05-90.92,40.42-131.58h49Z"/>
  <path class="st0" d="M2378,1230c-31.63-10.72-58.26-27.15-93.03-29.97-91.63-7.43-90.22,83.96-24.93,110.93,20.2,8.35,43.1,8.6,60.91,23.09,2.02,1.64,9.41,8.45,10.12,10.03,2.29,5.12-13.9,39.87-16.07,39.88-26.73-28.28-58.68-45.4-94.48-59.48-14.17-5.57-28.59-7.74-42.94-15.06-33.14-16.91-86.39-82.65-64-120.84,6.72-11.46,55.32-43.27,68.47-47.53,35.29-11.44,124.46,11.74,160.44,25.45,11.95,4.55,25.1,9.12,35.51,16.49v47Z"/>
  <path class="st0" d="M629.98,330.01c8.32,22.4,22.5,46.55,38.08,64.93,26.62,31.42,61.46,46.27,77.47,86.53,13.78,34.68,27.26,97.2-18.43,112.62-10.01,3.38-54.19,12.04-64.1,12.05-20.48.02-47.5-16.77-64.83-27.31-38.64-23.5-73.68-52.49-103.85-86.12,5.29-14.18,11.42-28.08,17.51-41.94.83-1.89-1.17-3.5,3.14-2.76,25.66,29.67,65.33,71.36,106.59,75.42,47.58,4.69,62.99-42.49,46.8-80.8-15.6-36.92-58.2-43.58-69.52-82.51l.97-3.16c4.75-3.02,26.69-29.5,30.16-26.96Z"/>
  <path class="st0" d="M1897.45,152.28c6.77-1.86,38.22,14.96,46.51,18.72-27.1,25.68-59,53.91-71.52,90.44-23.04,67.23,50.37,90.78,97.58,51.58,18.53-15.39,34.42-52.92,61.49-56.73,7.69-1.08,22.51,24.19,30.45,28.7-20.79,11.8-42.08,22.11-60.91,37.06-42.13,33.45-49.41,70.06-107.53,86.47-29.94,8.45-76.37,16.85-93.27-17.77-5.11-10.48-15.08-65.99-13.75-77.21,3.58-30.34,49.86-95.12,70.47-119.56,4.59-5.45,37.37-40.84,40.48-41.69Z"/>
  <path class="st0" d="M2221.98,1602c-25.93-26.2-52.12-57.89-88-70.97-53.73-19.59-88.39,21.13-68.95,72.95,14.54,38.77,59.54,45.18,70.59,85.42l-28.57,28.61c-13.34-22.95-25.64-46.75-43.1-66.95-30.45-35.25-62.55-44.23-78.47-93.53-10.11-31.29-20.84-85.5,17.94-101.1,13.53-5.44,65.3-14.11,79.1-11.94,31.47,4.96,102.96,57.86,127.51,80.49,4.4,4.06,27.66,26.19,29,29.08,3.89,8.41-15.82,37.08-17.05,47.94Z"/>
  <path class="st0" d="M1934.02,1883.99c-10.32-39.72-45.29-116.83-93.23-117.78-31.18-.61-50.25,32.93-50.91,60.72-1.01,42.38,39.71,65.6,32.14,107.65l-38,15.41c-1.07-24.91-3.94-50.02-11.03-73.99-13.37-45.2-42.26-68.94-38.97-120.98,2.78-43.92,15.18-92.45,68.42-86.47,56.24,6.31,73.52,18.82,105.19,62.81,25.57,35.52,45.61,73.56,62.03,114.16,1.2,3.19,0,4.96-1.55,7.58-1.32,2.23-26.27,26.97-29.09,28.93-1.69,1.17-1.98,2.78-5,1.97Z"/>
  <path class="st0" d="M1562.01,2035.99c6.76-42.99,2.41-148.16-59.01-148.16-28.97,0-50.53,27.62-56.45,53.72-6.3,27.82,6.76,53.63.54,80.54-.71,3.06-4.39,14.29-6.04,15.96-5.55,5.66-34.15-.36-43.06-.08,8.77-20.66,15.4-44.66,17.98-67,6.07-52.55-13.69-84.71,13.68-136.32,15.16-28.58,44.28-69.88,81.74-55.06,12.26,4.85,54.45,35.24,62.55,45.45,8.57,10.8,12.73,24.35,16.58,37.42,14.44,49.13,19.54,101.43,19.5,152.56.03,2.86-1.4,3.35-3.39,4.61-2.87,1.82-43,18.09-44.63,16.35Z"/>
  <path class="st0" d="M949.98,100c2.3,35.1,7.96,66.91,21.67,99.35,8.38,19.83,24.12,41.18,27.45,62.55,4.82,30.94-2.48,102.06-35.73,116.48-20.8,9.02-83.24-5.91-101.2-19.55-11.48-8.72-23.13-24.5-31.8-36.2-27.54-37.14-50.74-79.67-65.97-123.36l34.55-33.27c3.32.76,13.49,33.96,16.11,39.94,11.26,25.73,38.53,70.47,68.41,75.59,42.48,7.28,63.59-31.01,60.6-68.6-2.82-35.37-38.24-60.06-32.15-97.58l38.06-15.35Z"/>
  <path class="st0" d="M790,1876.03c24.96-17.61,49.62-43.25,64.33-70.69,13.82-25.77,20.14-58.19-6.29-78.38-16.78-12.82-44.7-11.49-63.43-3.34-36.49,15.88-43.31,58.49-82.49,69.54l-3.17-.97-24.96-30.16c29.08-12.04,58.86-31.58,81.02-54,18.91-19.13,30.3-41.07,54.94-55.06,28.67-16.27,97.05-32.69,120.02-1.95,9.4,12.58,19.51,69.96,17.79,85.78-2.97,27.33-43.82,85.47-61.86,108.12-6.19,7.77-42.48,49.65-47.99,52.15-2.72,1.24-3.38.75-5.93.11-6.19-1.55-29.54-12.54-36.09-16.08-1.56-.84-6.94-3.6-5.9-5.07Z"/>
  <path class="st0" d="M1211.29,1776.71c9.91,9.28,40.86,59.58,42.54,72.46,2.32,17.81-1.58,41.32-4.41,59.25-6.85,43.45-20.3,85.69-38.36,125.64-4.87,4.97-41.67-2.97-51.06-.08,21.38-36.59,53.93-122.47,12.99-153.97-34.98-26.92-80.78,7.11-93.95,42.04-8.48,22.5-9.36,56.64-35.18,66.98l-35.86-15.05c22.91-25.6,42.77-53.3,55.53-85.44,10.34-26.04,12.61-49.98,31.44-72.56,22.98-27.56,83.01-70.44,116.31-39.26Z"/>
  <path class="st0" d="M2382,994c-21.56-8.1-44.25-14.9-67.25-17.75-60.3-7.47-87.1,16.23-146.58-19.42-25.96-15.56-56.12-38.09-47.23-72.89,2.43-9.51,38.83-60.82,47.18-66.82,29.74-21.36,121.36-34.01,158.79-35.21,9.57-.31,32.23-2.9,36.64,5.53,2.34,4.48,16.03,40.95,14.43,42.54-40.2-6.06-129.49-2.98-144.97,44.03-13.32,40.44,30.84,73.77,67.99,74.15,26.17.27,56.4-14.06,80.99,4.83v41Z"/>
  <path class="st0" d="M2225.99,457.97c-33.96,11.21-76.24,26.88-100.04,54.98-48.75,57.56,18.45,106.73,78.02,82.02,13.35-5.54,26.01-17.2,40.08-21.92,8.1-2.71,30.41-8.6,35.62.27,1.1,1.87,13.71,33.45,12.32,34.66-35.45.62-68.84,7.82-101.34,21.66-36.13,15.39-49.76,31.23-93.63,28.32-37.31-2.47-91.01-15.68-86.77-62.74,1.15-12.8,9.39-50.15,14.17-61.81,10.94-26.7,74.07-67.32,100.24-81.76,12.06-6.66,53.52-27.84,64.88-29.32,2.91-.38,5.24-.74,7.59,1.51l28.86,34.13Z"/>
  <path class="st0" d="M356.34,867.68l1.68-49.68c38.06,19.06,115.35,52.4,150.76,15.78,26.56-27.46,7.01-70.71-20.94-88.62s-64.06-12.11-84.94-41.22l16.1-37.9c26.27,23.83,53.32,42.4,86.51,55.46,16.41,6.45,34.59,9.83,50.47,17.53,34.57,16.76,90.54,86.58,62.9,124.84-7.57,10.48-56.16,41.75-68.79,45.21-26.67,7.33-77.99-3.86-105.72-10.45-30.4-7.23-59.55-18.35-88.03-30.95Z"/>
  <path class="st0" d="M442,1442.02c26.96-2.82,53.63-4.9,79.57-13.45s57.91-31.81,82.33-35.67c31.75-5.03,109.43,2.74,119.16,41.04,4.41,17.39-8.19,76.73-18.18,91.94-8.53,12.98-29.39,28.34-42.25,37.75-36.71,26.84-77.11,48.31-119.69,64.33l-34.9-34.96c34.48-14.28,77.2-28.22,102.01-57.95,39.01-46.77-1.32-91.41-55.12-87.12-35.36,2.82-58.11,38.37-95.61,31.75l-17.32-37.66Z"/>
  <path class="st0" d="M356.01,1220.01c39.42,3.59,113.08,3.49,138.82-32.18,28.65-39.69-13.3-82.27-53.86-85.8-23.18-2.02-66.02,11.96-84.93-3.07-9.17-7.29-1.45-31.81-2.02-42.96,23.03,7.56,48.69,16.16,73.02,17.96,28.64,2.12,58.19-4.26,86.05-2.05,34.16,2.71,103.09,42.43,102.91,81.08-.08,16.6-35.67,68.33-49.32,78.65-24,18.13-104.45,32.61-135.57,34.43-12.19.71-43.43,1.87-54.09-.08-2.72-.5-3.28-1.01-4.83-3.17-1.33-1.86-17.87-41.3-16.16-42.82Z"/>
  <path class="st0" d="M1336,10c-6.78,23.3-16.03,48.67-17.97,73.03-3.07,38.5,9.21,76.41-4.51,113.49-12.15,32.82-43.69,81.87-84.05,75-9.57-1.63-58.16-34.61-65.47-42.53-18.39-19.9-29.65-78.87-33.69-106.31-4.51-30.66-4.98-60.33-4.39-91.34l46.05-19.35c-2.03,37.66-4.26,78,11.64,113.38,24.47,54.45,83.94,43.49,101.9-8.87,12.77-37.23-10.21-70.64,8.49-106.51h42Z"/>
  <path class="st0" d="M1085.99,48c-1.54,43.79,4.72,87.57,14.98,130.03,3.82,15.79,8.06,32.48,14.68,47.32,4.67,10.48,13.95,20.43,17.36,28.64,8.63,20.78,10.24,67.38-.6,87.42-20.27,37.45-73.33.16-96.19-16.72,5.89-31.61,6.46-64.32-5.25-94.65-19.19-49.7-37.79-67.62-40.94-127.05-.25-4.7-1.39-17.2,1.97-19.99l94-35Z"/>
  <path class="st0" d="M1857.99,132.03c.82,3.01-.8,3.32-1.96,5-9.28,13.48-27.64,28.99-38.82,43.18-26.46,33.56-56.48,78.66-68.32,119.68-6.15,21.31-11.1,31.96-26.94,49.06-58.01,62.6-87.3,6.94-94.05-53.54,24.18-16.57,47.36-37.32,60.47-64.03,22.52-45.86,21.31-77.67,59.68-120.32,4.18-4.64,15.11-17.42,20.76-17.09l89.18,38.06Z"/>
  <path class="st0" d="M2259.98,1515.99c-3.01,2.19-20.37-17.85-23.95-21.02-31.16-27.68-83.58-66.76-122.06-81.94-12.72-5.02-26.5-5.97-37.78-10.22-16.2-6.1-53.44-40.91-58.28-57.72-13.57-47.17,45.49-51.8,76.87-60.68,20.17,27.18,41.46,50.85,73.25,64.56,44.13,19.03,70.45,19.86,110,54,3,2.59,17.03,14.44,18.13,15.89,1.42,1.88,2.26,3.46,1.82,5.9l-38,91.23Z"/>
  <path class="st0" d="M669.76,1355.77c-25.17-3.58-51-6.35-76.21-1.22-31.74,6.45-59.86,29.45-91.57,38.43-24.15,6.84-49.64,8.39-74.67,9.11l-37.31-96.08c37.25,1.75,73.99-3.26,110.37-10.63,31.22-6.32,54.47-12.86,82.95-27.05,5.09-2.53,9.88-8.09,14.19-9.81,18.82-7.49,60.03-9.02,79.03-2.09,49.49,18.06,8.56,70.85-6.8,99.33Z"/>
  <path class="st0" d="M1886.16,450.16c20.7-2.88,43.58-10.51,61.69-21.32,32.24-19.26,48.82-51.68,77.21-74.79,19.78-16.09,42.94-27.88,66.33-37.74l70.58,72.68c-42.84,20.58-84.72,42.39-122.63,71.33-8.96,6.84-21.8,16.67-29.39,24.61-16.89,17.67-16.08,27.55-40.1,41.9-81.45,48.64-103.63,2.27-83.68-76.68Z"/>
  <path class="st0" d="M1254.01,2035.99c18.47-49.32,37.31-107.93,40.07-160.91,1-19.24-5.43-35.33-5.44-49.7-.02-19.88,17.58-67.33,34.37-79.37,36.06-25.86,65.59,26.13,82.28,50.97-20.06,32.82-32.1,62.75-31.37,102.1.68,36.68,6.52,54.84-2.5,93.33-1.57,6.7-12.72,43.98-16.69,45.31l-100.72-1.74Z"/>
  <path class="st0" d="M477.05,533.99c15.03,11.46,27.39,25.94,42.01,37.95,25.98,21.33,77.71,56.73,109.02,66.98,27.91,9.14,35.85,6.99,59.94,28.06,65.49,57.27,17.39,89.62-48.61,96.77-23.33-32.23-45.58-52.49-82.92-67.24-46.55-18.38-72.14-22.98-110.52-59.48-3.68-3.5-10.42-8.4-9.7-13.54l40.77-89.5Z"/>
  <path class="st0" d="M1480,12c-13.67,39.43-26.53,78.15-33.42,119.58-2.55,15.36-6.75,38.47-6.76,53.43,0,30.49,9.51,36.76-.83,70.98-25.75,85.21-75.55,57.65-109.05-3.14,11.58-24,26.43-47.12,29.51-74.4,3.44-30.5-3.86-62.52-1.41-93.41,1.97-24.83,12.03-49.71,19.97-73.03h102Z"/>
  <path class="st0" d="M1878.6,1647.39c-8.33-7.74-26.05-42.28-29.2-53.79-18.98-69.32,45.67-59.34,90.73-50.73,8.67,41.19,23.48,69.48,53.85,98.15,28.33,26.75,44.77,36.85,65.07,72.93,2.94,5.23,17.55,32.99,16.06,35.99l-72.11,70.02c-23.07-48.36-49.89-101.91-85.97-141.99-13.04-14.48-27.13-20.08-38.43-30.58Z"/>
  <path class="st0" d="M2380,1135l-4.14,2.21c-48.28-18.9-104.8-36.16-156.89-39.19-27.85-1.62-45.3,7.82-73.04,1.04-15.8-3.86-47.12-16.14-56.81-29.19-26.54-35.73,25.92-65.97,50.23-83.56,26.14,15.56,54.44,29.98,85.56,31.77,19.07,1.09,39.35-3.9,57.99-4.15,32.35-.43,68.53,8.89,97.09,23.07v98Z"/>
  <path class="st0" d="M733.97,230.01c19.19,48.54,48.89,102.17,83.98,141.05,25.57,28.33,44.84,30.42,61.77,70.23,32.56,76.59-27.86,78.66-85.24,64.25-6.79-24.78-13.21-47.62-28.03-68.98-18.81-27.12-47.6-42.73-68.38-67.62-7.72-9.25-39.05-58.71-38.12-67.86l69.03-69.11,5-1.96Z"/>
  <path class="st0" d="M354.28,1013.72l1.73-101.71c46.97,16.77,95.29,32.11,145.24,37.74,36.63,4.13,60.79-7.25,96.74,3.26,32.7,9.56,74.62,33.26,45.03,71.01-5.81,7.42-40.56,37.84-48.01,37.83-20.58-9.61-39.88-22.69-62.56-27.3-34.56-7.03-70.4,2.29-105.42-.58-24.5-2.01-49.73-12.43-72.75-20.25Z"/>
  <path class="st0" d="M2343.99,741.99c-42.13.74-82.99,5.57-124.02,14.98-18.19,4.17-36.85,8.37-53.9,16.1-9.59,4.35-23.46,16.33-29.56,18.44-20.99,7.24-66.88,8.59-86.38-2.64-37.35-21.52,1.48-69.2,14.17-94.54,28.57,3.07,53.64,6.12,82.1-.92s52.9-26.49,80.53-35.47c12.82-4.17,74.46-15.88,82.13-7.99l34.93,92.05Z"/>
  <path class="st0" d="M1107.79,1753.69c-28,17.15-50.63,40.78-64.14,70.96-7.72,17.26-11.58,36.16-18.69,53.31-12.24,29.55-32.11,55.12-55.02,77.14l-93.9-40.11c32.69-33.15,62.21-69.98,85.58-110.38,4.73-8.18,10.29-17.37,14.1-25.9,14.88-33.31,10.69-51.17,39.26-80.74,58.51-60.54,84.08-1.37,92.81,55.71Z"/>
  <path class="st0" d="M1697.58,1722.39c-2.05,25.1-5.81,46.7-1.04,72.06,6.28,33.41,29.39,62.14,38.88,95.12,6.99,24.29,9.15,49.91,8.64,75.08l-94.06,37.34c-2.98-61.51-8.37-134.54-36.98-190.02-3.55-6.89-10.2-12.72-12.51-19.49-5.37-15.76-7.42-50.78-3.97-66.93,13.11-61.48,68.52-24.03,101.03-3.16Z"/>
  <path class="st0" d="M572,1658.02c36.5-12.4,70.89-32.42,102.63-54.39,14.36-9.94,34.24-23.55,46.42-35.58,10.04-9.9,16.49-24.02,25.15-32.85,10.66-10.87,46.25-28.63,61.31-30.69,62.89-8.63,49.06,52.26,40.7,92.7-22.14,6.73-45.12,12.56-64.86,25.14-29.9,19.06-47.13,51.66-74.41,73.59-19.09,15.35-43.29,27.39-65.86,36.11l-71.08-74.03Z"/>
  <path class="st0" d="M1591.86,318.15c3.2,15.61,6.88,31.13,13.21,45.78,5.28,12.23,12.72,21.23,18.61,32.76-9.23,11.12-17.21,23.22-24.01,35.96-12.32,23.08-25.79,80.4-59.81,72.47-34.29-7.99-24.87-55.45-19.29-79.56,7.77-33.55,21.44-67.95,33.22-100.32l38.06-7.09Z"/>
  <path class="st0" d="M666.33,837.68l-6.33-37.67c28.46-4.18,55.78-14.24,78.65-31.73,9.06,5.54,16.78,12.71,26.01,18.06,18.73,10.85,74.47,30.07,81.83,48.17,5.65,13.91-1.02,28.34-13,35.97-18.74,11.93-37.38,6.68-57.5,2.54-37.04-7.63-74.34-22.06-109.65-35.34Z"/>
  <path class="st0" d="M1181.45,1544.47c32.39-6.73,40.64,28.97,38,53.98-4.3,40.64-25.64,86.76-38.43,125.58l-35.79,7.86c-2.53-.78-11.81-37.92-14.87-45.24-5.09-12.19-12.4-22.87-20.23-33.38,7.67-8.44,14.51-18.08,20.21-27.92,11.45-19.78,28.52-76.18,51.11-80.88Z"/>
  <path class="st0" d="M1894.71,1223.28c-18.2-19.77-4.49-45.62,19.17-50.4,41.83-8.45,110.2,25.6,150.96,37.27l11.08,36.87c-.24,2.58-23.06,6.48-27.92,7.99-19.79,6.13-36.23,14.39-52.73,26.85-21.98-27.64-79.32-35.5-100.56-58.58Z"/>
  <path class="st0" d="M1711.84,1681.86c-3.59,2.55-21.29-10.6-25.8-12.91-17.38-8.9-36.08-17.62-56.05-16.95-.18-13.06-3.17-25.93-6.56-38.44-6.61-24.39-41.09-84.18-10.52-99.65,25.12-12.71,45.99,7.45,59.54,26.63,23.11,32.71,39.76,72.96,57.26,108.96l-17.87,32.36Z"/>
  <path class="st0" d="M890,1593.99c3.97-28.87,9.69-58.03-1.16-86.04,9.04-5.49,18.56-10.72,26.98-17.12,19.23-14.6,53.33-54.95,75.18-56.84,21.35-1.85,32.59,16.94,30.53,36.46s-21.33,44.42-32.74,59.35c-18.4,24.09-40.23,47.14-60.87,69.28l-37.93-5.08Z"/>
  <path class="st0" d="M648.41,1119.58l-20.02-30.61c21.89-17.39,47.72-33.23,57.81-60.83,13.03,2.08,25.66,6.2,38.83,7.84,23.9,2.97,73.56-2.99,89.99,14.01,12.37,12.81,5.83,33.31-6.02,44-16.69,15.07-59.66,19.56-82,22-10.54,1.15-74.08,6.2-78.58,3.59Z"/>
  <path class="st0" d="M1024.03,366c17.39,9.2,33.41,20.52,52.41,26.56,9.66,3.07,19.79,2.63,28.64,7.36.41,12.21,2.9,22.43,5.92,34.08,7.52,28.97,54.16,112.33-12.06,104.05-23.33-2.92-41.67-36.91-52.55-55.44-15.84-27-28.85-55.64-42.09-83.97l19.73-32.63Z"/>
  <path class="st0" d="M1935.99,1502.01c-29.04-4.83-57.67-8.62-86.07,1.13-8.9-32.73-70.93-72.15-73.83-102.39-1.77-18.47,17.78-31.37,34.59-30.59,19.49.9,43.75,19.53,59.11,31.04,24.88,18.65,48.95,41.25,71.25,62.86l-5.05,37.95Z"/>
  <path class="st0" d="M2087.68,930.32l18.27,30.53c-22.34,17.2-47.78,33.49-58.04,61.13-17.06-5.4-34.93-8.78-52.83-10.06-26.67-1.91-88.05,7.55-80.95-36.8,4.62-28.86,45.56-35.34,69.15-38.83,33.89-5.01,70.18-6.58,104.4-5.96Z"/>
  <path class="st0" d="M1993.89,761.88c-35.63-3.8-86.7,34.93-118.42,29.63-21.79-3.64-26.24-25.7-18.95-43.98,12.85-32.23,104.85-69.91,136.48-85.39l32.95,20.85c-15.73,23.85-29.96,49.84-32.06,78.9Z"/>
  <path class="st0" d="M885.81,546.15c5.84,16.72,17.84,30.65,29.16,43.88,14.93,17.45,61.94,53.9,36.35,79.3-28.85,28.64-81.07-16.61-104.27-35.37-6.85-5.54-53.88-45.76-54.73-49.34l5.67-36.62c29.97,2.82,58.48,8.43,87.82-1.84Z"/>
  <path class="st0" d="M740.29,1288.3c9.72-2.92,19.78-2.87,29.72-5.29,27.17-6.61,64.61-28.61,90.81-24.82,23.59,3.41,25.79,32.56,14.05,49.69-23.73,34.6-97.74,59.47-134.25,79.8l-28.63-18.67c-1.5-.94-2.08-2.19-2.07-3.94.02-2.31,14.72-23.88,17.17-28.97,7.14-14.83,12.42-31.23,13.2-47.79Z"/>
  <path class="st0" d="M1430.04,1763.99c-13.87-23.58-33.24-48.95-60.02-58.07,5.4-17.06,8.78-34.94,10.06-52.84,1.68-23.54-6.27-90.79,36.02-82.21,21.82,4.42,30.29,25.97,34.92,45.11,9.64,39.87,10.39,85.77,10.66,126.71l-31.65,21.3Z"/>
  <path class="st0" d="M1843.99,456.01c-3.54,29.2-7.52,57.21,1.16,86.01-12.88,6.66-24.84,14.98-36.09,24.04-19.56,15.76-65.55,75.43-89.96,37.84-18.28-28.15,11.56-64.05,28.11-85.7,17.98-23.52,38.69-45.59,58.86-67.25l37.93,5.05Z"/>
  <path class="st0" d="M1301.25,286.13c4.04-.74,17.74,21.44,21.72,25.89,12.23,13.69,24.88,24.17,40.83,33.29-2.87,11.85-6.27,23.54-7.79,35.71-3.12,24.98,2.91,66.99-11.16,86.84-9.61,13.57-27.05,13.53-39.86,4.12-19.58-14.38-23.62-46.61-26.73-69.27-4.24-30.92-5.8-64.24-5.97-95.4l28.94-21.18Z"/>
  <path class="st0" d="M1103.99,766.01c2.99,31.87,25.89,58.25,37.72,87.29,2.85,7,9.98,18.26-2.2,16.21-26.76-4.53-51.38-19.91-75.2-31.8-.02-60.23-64.07-87.74-90.32-135.67,3.89-.82,5.39.87,8.1,2.88,13.17,9.73,25.21,22.85,39.27,32.73,24.69,17.35,51.37,30.72,82.62,28.38Z"/>
  <path class="st0" d="M1503.65,683.65c-23.55,12.49-37.09,37.33-54.62,56.38-3.48,3.78-21.33,23.48-25.02,19.98-5.43-28.7-4.36-57.39.95-86.05,55.27-25.16,54.98-94.22,91.02-135.96-9,40.05-26.63,76.21-19.47,118.49,1.05,6.19,9.1,23.85,7.14,27.17Z"/>
  <path class="st0" d="M1417.98,1530c-2.74,2.87-3.66-.14-3.99-2.96-5.56-47.38-2.86-97.12-41.79-132.33,20.51-31.3,22.33-70.69,40.83-102.71,5.6-1.36,19.16,27.49,21.33,32.64,5.85,13.85,10.13,29.82,13.75,44.47-4.26,10.33-12.62,17.44-17.08,28.92-15.02,38.67-2.01,91.17-13.05,131.97Z"/>
  <path class="st0" d="M1874,974.02c-.77,3.66-3.93,3.7-6.92,4.05-47.36,5.65-94.61,3.61-130.35,41.73-30.85-21.13-70.6-22.34-102.74-40.82-.07-5.66,23.13-16.86,28.67-19.33,15.54-6.92,32.13-11.1,48.43-15.79,5.39.08,18,11.83,24.95,15.1,38.9,18.28,95.76,3.54,137.96,15.06Z"/>
  <path class="st0" d="M880,876.02c48.72,11.94,94.67,32.72,144.68,12.18,20.52,31.39,56.65,47.53,79.28,76.8-27.19,11.67-58.11,5.63-86.63,2.66-5.96-6.54-8.45-14.63-14.31-21.69-29.37-35.39-88.7-39.72-123.02-69.96Z"/>
  <path class="st0" d="M1607.99,1473.99c-5.32,1.11-3.44-1.35-4.97-3.93-24.53-41.71-39.92-87.24-90.07-105.94,8.59-37.06-7.12-74.98-.93-112.11,16.28,8.94,30.71,22.15,43.01,35.97,2.81,3.15,19.71,24.12,20.08,25.86.4,1.88-4.56,14.05-5.09,19.2-5.11,50.06,31.53,92.42,37.97,140.96Z"/>
  <path class="st0" d="M1719.53,1082.46c.89.64,5.86,13,8.47,16.54,24.83,33.64,85.68,46.03,122.01,70.06,2.31,1.53,5.17-.51,3.97,4.94-35.26-8.63-69.49-24.85-106.73-21.73-12.86,1.08-24.88,6.06-37.26,8.9-5.45-5.99-9.23-13.45-14.91-19.25-16.19-16.51-42.6-31.33-57.14-48.86-2.75-3.31-6.08-6.19-5.95-11.02,17.31-4.03,35.3-4.9,53.09-4.12,5.12.22,32.28,3,34.44,4.55Z"/>
  <path class="st0" d="M1211.99,1246.01c-1.31,29.14-17.65,54.88-30.96,80.02-8.88,2.75-17.31,2.56-26.59,5.41-42.53,13.05-70.4,66.87-110.42,86.56-1.43-1.54,6.46-10.94,8.03-12.95,27.56-35.3,59.28-65.55,56.84-115.16,37.45-7.5,66.27-35.64,103.1-43.87Z"/>
  <path class="st0" d="M918,1263.98c17.73-12.95,39.39-20.76,57.83-33.15,21.01-14.12,44.26-35.19,50.19-60.83,26.85,6.18,54.2-.71,81-1.98,5.04-.24,32.71-1.56,32.93,2.97-9.41,13.68-19.78,26.71-31.92,38.04-3.73,3.49-25.05,21.27-27.98,22.18-5.16,1.59-21.03-5.13-29.03-5.34-44.73-1.16-88.26,35.33-133.01,38.11Z"/>
  <path class="st0" d="M1692,632.02c-30.2,37.88-68.45,75.14-66.26,127.72-37.17,8.16-67.38,34.31-103.73,44.26,2.68-29.37,17.63-54.65,30.95-80.03,7.74-3.14,16.43-3.06,24.6-5.4,37.81-10.87,61.74-49,91.5-72.5,6.4-5.05,15-12.98,22.94-14.04Z"/>
  <path class="st0" d="M1707.94,880c-36.42-10.96-75.13,6.51-111.94-.03-4.86-6.86,52.49-62.4,61-63.17,3.14-.28,12.38,4.59,17.99,5.21,49.51,5.5,93-30.74,140.99-38.01.89,4.15-2,4.65-4.59,6.39-9.63,6.48-24.17,11.16-34.74,17.26-28.6,16.53-59.54,39.03-68.71,72.35Z"/>
  <path class="st0" d="M1319.98,518c3.68,37.75,3.76,81.46,24.37,114.64,3.06,4.92,17.55,19.54,17.62,22.31-17.27,26.48-20.43,59.02-32.45,87.57-3.28,7.79-6.79,21.21-13.89,10.84-15.15-22.12-22.52-48.9-29.5-74.5,4.43-7.92,11.33-14.14,15.29-22.44,19.5-40.88,3.14-90.44,14.49-131.51.76-2.74.24-6.21,4.07-6.91Z"/>
  <path class="st0" d="M1221.87,684.18c-6,26.84.9,54.09,2.11,80.84.36,7.95,2.92,28.28-4.67,30.73-2.45-.23-28.88-22.12-32.39-25.67-3.25-3.3-26.05-31.48-26.61-33.54-1.27-4.68,5.61-21.58,5.83-29.53,1.16-43.1-35.13-87.55-38.11-131.01,13.01,16.08,19.98,36.35,31.15,53.83,15.19,23.78,35.14,45.44,62.71,54.35Z"/>
  <path class="st0" d="M1218.02,1512c12.71-47.64,34.65-96.2,11.81-144.73,32.8-19.63,48.55-58.54,80.15-79.27,5.9,28.48,5.36,58.04-.42,86.56-7.17,6.41-16.24,9.73-23.58,16.42-32.94,30.04-37.49,88.51-67.96,121.02Z"/>
  <path class="st0" d="M1759.99,1347.99l-65.95-49.03c-19.55-10.58-39.23-16.72-61.77-15.23-6.64-37.93-34.69-66.98-44.26-103.72,3.34-2.93,30.93,6.3,36.52,8.46,6.41,2.47,40.62,19.04,43.46,22.54s3.84,19.62,5.91,26.09c10.55,33.1,44.26,56.78,66.05,81.95,2.5,2.89,21.88,27.06,20.04,28.94Z"/>
  <path class="st0" d="M1018.46,1105.51c-38.19-40.64-102.97-17.23-151.59-29.47-3.35-.84-5.83,2.01-4.86-4.03,49.59-3.3,98.29-6.43,136.62-41.7,9.49,4.78,18.32,9.95,28.35,13.72,10.62,3.99,71.42,19.79,73,27.04-.42,4.24-6.15,6.56-9.38,8.53-21.02,12.8-48.11,22.3-72.14,25.91Z"/>
  <path class="st0" d="M1547.52,1174.47c1.69,2.88,2.36,17.6,3.89,23.12,4.87,17.56,16.69,35.01,24.58,51.42,2.1,6.58-16.03-12.13-17.04-12.96-15.47-12.74-29.51-22.99-50.08-25.92l-72.85-104.13,111.5,68.47Z"/>
  <path class="st0" d="M1266,1056.02l-105.96,77.2c-9.29-.45-17.23-4.52-26.97-5.29-17.56-1.4-37.51,2.19-55.07,4.05l43.82-25.15,19.74-22.76,124.43-28.05Z"/>
  <path class="st0" d="M1646,1153.98c-14.87-4.53-31.71-12.19-47.25-13.73-10.87-1.08-20.27,1.01-30.79.93l-105.96-67.16,129.97,21.01c11.09,26,35.27,39.51,54.03,58.95Z"/>
  <path class="st0" d="M1261.99,1014.02l-127.42,31.55c-21.71-17.28-46.64-24.31-72.59-32.57,18.89-4.79,39.82-2.04,58.02-10,5.79-2.53,10.64-8.83,16.98-9.17l125,20.19Z"/>
  <path class="st0" d="M1655.99,918.02l-43.82,25.15-17.5,20.99-126.67,29.82,105.93-77.17c11.41-.6,22.88,5.25,35.04,5.34,14.6.12,32.13-3.81,47.02-4.14Z"/>
  <path class="st0" d="M1673.99,1036.03l-52.87,8.09-22.13,11.89-124.98-20.02c.63-3.68,4.11-3.36,6.73-4.25,36.78-12.53,82.41-16.57,120.25-27.73,21.67,17.54,46.72,24.43,73.01,32.03Z"/>
  <path class="st0" d="M1297.67,1249.68c-24.37,9.32-39.71,31.8-56.01,50.98-1.49,1.76-3.92,6.49-3.62.39,10.94-24,16.75-48.53,12.8-75.06l67.14-105.99-20.31,129.67Z"/>
  <path class="st0" d="M1142,1231.98c13.24-15.45,27.34-30.5,35.56-49.42,2.44-5.62,1.33-11.95,5.27-16.73l103.15-73.83-68.83,112.15c-28.18,2.43-49.9,17.55-75.15,27.83Z"/>
  <path class="st0" d="M1416.02,930l21.96-130.52c25.26-10.68,39.92-34.12,58-53.47-3.56,17.12-12.53,33.63-13.72,51.26-.69,10.2,1.96,16.69,2.22,26.15l-68.46,106.6Z"/>
  <path class="st0" d="M1335.98,923.99l-77.67-107.41c9.93-26.15,3.73-51.63,3.71-78.57l25.15,43.82,20.39,17.61,28.42,124.55Z"/>
  <path class="st0" d="M1355.98,1331.99l-6.97-50-12.74-26.87,19.75-123.12c3.68.63,3.36,4.11,4.25,6.73,12.51,36.68,15.97,80.91,27.84,118.37-.18,5.9-7.58,11.19-10.95,17.06-10.17,17.72-16.16,38.04-21.19,57.82Z"/>
  <path class="st0" d="M1377.98,919.99l-31.84-129.12c18.78-20.86,24.86-46.79,32.86-72.89,3.92,16.12,2.2,33.26,6.69,49.33,2.89,10.33,9.21,17.8,12.48,27.68l-20.19,125.01Z"/>
  <path class="st0" d="M1473.98,1313.99l-27.15-47.82-19.78-16.22-29.03-123.95,77.67,105.46c-7.64,27.93-4.92,54.17-1.71,82.53Z"/>
  <path class="st0" d="M1594,816.02c-9.84,12.77-22.69,24.06-30.84,38.14-6.2,10.71-6.78,19.5-12.04,29.96l-101.1,71.88,66.87-110.11c9.29-4.09,19.35-4.01,29.02-6.98,17.01-5.22,31.68-16.41,48.09-22.89Z"/>
  <path class="st0" d="M1274,975.98l-129.53-21.45c-7.12-7.23-10.56-16.66-17.44-24.56-10.97-12.58-26.55-20.86-37.02-33.96,15.92,3.74,32.81,12.45,49.24,13.74,10.21.8,16.73-2.06,26.19-2.25l108.57,68.48Z"/>
  <path class="st0" d="M1225.45,838.56l72.54,103.43-110.98-68c-.51-27.75-16.39-49.72-26.99-73.99,20.64,14.91,38.1,36.45,65.43,38.56Z"/>
  <path class="st0" d="M2384,870v38c-17.72-3.38-34.79-5.13-52.97-3.97-23.3,1.48-45.82,12.06-61.09-15.02-.02-11.55,39.93-19.87,49.31-20.76,20.68-1.98,44.14-.04,64.76,1.76Z"/>
  <path class="st0" d="M2004,225.98c-34.01,7.22-49.57,65.38-82.99,66.18-28.93.7-.23-38.92,8.17-49.98,13.43-17.67,31.44-31.26,47.83-46.09l27,29.89Z"/>
  <path class="st0" d="M2260.01,529.99c-39.67-4.71-73.37,49.92-109.75,24.66-4.3-13.22,22.03-29.51,31.91-35.49,20.61-12.48,42.54-18.45,64.88-27.11l12.97,37.94Z"/>
  <path class="st0" d="M1252,8c-1.97,9.57-5.41,19.07-6.07,28.93-1.66,24.67,13.54,60.88-5.92,80.06-10.79,10.64-16.08.35-20.36-9.64-13.72-32.07-8.39-65.69-7.65-99.35h40Z"/>
  <path class="st0" d="M1862.01,1918c.25-8.54-1.51-16.98-3.91-25.1-7.37-24.91-32.69-47.28-27.2-73.02,6.82-31.99,31.84,3.74,39.94,16.29,13.77,21.35,19.23,43.75,28.92,66.87l-37.74,14.97Z"/>
  <path class="st0" d="M2366.01,1270.03l-17.01,35.93c-19.09-24.67-74.4-22.2-89.87-44.11-26.06-36.91,43.99-18.68,59.35-13.35,16.53,5.74,31.1,15.65,47.52,21.52Z"/>
  <path class="st0" d="M486.03,1555.99l-12.04-35.97c8.65-.83,17.64-2.43,25.92-5.1,25.55-8.23,46.73-32.64,74.23-26.05,31.03,7.43-12.68,36.49-23.53,42.75-19.35,11.16-42.93,18.79-64.58,24.38Z"/>
  <path class="st0" d="M567,388.04c6.25,9.01,11.49,18.86,18.95,27.01,16.45,17.98,47.91,29.05,49.58,56.46,1.79,29.24-43.6-2.79-53.37-10.68-15.32-12.36-27.37-29.06-41.29-42.85-1.33-1.51-.79-2.43,0-3.97,3.49-6.78,21.07-18.44,26.12-25.98Z"/>
  <path class="st0" d="M2103.28,1566.27c24.24-8.07,74.98,46.34,89.79,63.77,1.56,2.15,1.02,3.72,0,5.92-.71,1.55-22.53,23.59-24.19,23.96-2.81.63-3.33-1.55-4.57-3.23-6-8.14-10.66-18.14-18.21-25.79-14.64-14.82-44.05-26.62-46.1-49.9-.36-4.11-1.41-13.17,3.28-14.73Z"/>
  <path class="st0" d="M1647.99,40.03c2.12,3.06-12.39,20.8-14.96,26.01-10.2,20.67-11.2,60.33-34.23,69.76-24.64,10.09-16.72-25.11-13.88-39.86,4.99-25.96,18.72-45.5,27.1-69.93l35.97,14.03Z"/>
  <path class="st0" d="M370.13,779.85c-1.33-1.86,9.99-28.54,12.29-32.42,4.21-7.09,10.61,2.56,16.97,6.18,20.41,11.62,62.03,17.66,73.48,30.52,20.99,23.56,1.3,27.69-21.33,25.33-29.37-3.07-55.05-17.89-81.42-29.6Z"/>
  <path class="st0" d="M813.52,1756.47c26.03-1.56,4.98,31.64-1.9,42.15-13.59,20.77-33.27,36.17-51.68,52.47l-3.93.04-23.98-26.13c13.44-8.72,25.31-17.94,36.02-29.95,13.23-14.83,21.89-37.17,45.46-38.58Z"/>
  <path class="st0" d="M836.16,144.2l35.82-14.2c1.04,9.4,2.33,18.82,5.11,27.91,7.64,24.9,31.01,43.96,26.77,70.97-5.62,35.84-37.89-11-44.7-23.04-4.07-7.19-25.35-58.39-23.01-61.64Z"/>
  <path class="st0" d="M1149.53,1912.46c8.2,8.8-.23,45.04-3.65,56.41-2.27,7.53-18.86,47.35-22.87,51.15-2.12,2.01-2.65,2.12-5.53,1.69-7.23-1.07-22.52-12.87-31.48-13.75,19.28-20.75,20.76-45.29,29.44-69.53,4.77-13.33,18.29-32.22,34.09-25.97Z"/>
  <path class="st0" d="M1484,2040c3.71-17.12,4.97-33.36,3.98-50.98-1.05-18.7-10.28-38.4,5.15-54.89,11.95-12.78,18.46-1.54,23.25,10.5,11.61,29.17,7.71,66.75,5.62,97.37-2.81,1.18-5.98-2-6.99-2h-31Z"/>
  <path class="st0" d="M352,1140c8.74,2.97,19.73,5.58,28.92,6.07,28.19,1.52,65.58-16.84,83.18,13.03,1.43,14.59-44.58,21.8-55.36,22.64-18.48,1.45-35.46-2.2-53.76-1.72l-4.14-2c-1.2-1.43,1.16-2.52,1.16-3.02v-35Z"/>
</svg>