<svg xmlns="http://www.w3.org/2000/svg" width="2732" height="2048" viewBox="0 0 2732 2048">
  <defs>
    <style>
      .cls-1 {
        fill: #294d07;
        fill-rule: evenodd;
      }
    </style>
  </defs>
  <path id="Color_Fill_1" data-name="Color Fill 1" class="cls-1" d="M972,0c30.81,5.643,128.14,69.322,144,90v6q-48.99,44-98,88h-1q-2-6-4-12l88-82V89c-30.63-12.048-69.96-47.289-98-66C995.181,17.783,972.526,8.169,972,0Zm32,0c29.41,1,72.88,41.877,95,58,9.4,6.852,23.84,9.847,24,26-21.57-5.706-70.97-46.892-91-61-8.66-6.1-26.08-11.65-30-22C1002.67,0.667,1003.33.333,1004,0Zm160,1,9,1q4.5,24,9,48,6.495,76.493,13,153c-1.67,1.667-3.33,3.333-5,5-1.67-1.333-3.33-2.667-5-4l-15-20c-6.83-21.535,5.43-42.71,11-54-5.95-17.986-15.89-29.528-19-52-2-14.422,13-19.851,11-30-2.57-13.053-28.73-19.624-21-41l3-5Zm104,0h3c0.05,19.287,6.2,117.962,1,123l-11-2c-0.91-8.127-8.99-15-14-22-15.4-21.514,6.19-42.7,18-55q-13.005-15-26-30c0.33-3.666.67-7.334,1-11Zm238,0,16,1c7.16,16.511,11.7,39.64,14,60-0.33.333-.67,0.667-1,1l-11-1c-9.72-8.788-16.03-19.249-17-37,12.69-9.152,5.66-12.746-2-22C1505.33,2.333,1505.67,1.667,1506,1Zm170,0c19.95,1.323,36.51,20.254,53,28l-6,8L1668,4c0.33-.667.67-1.333,1-2Zm92,0,14,1q-70.5,81.492-141,163v1l71,6v1l-9,12c-17.25-4.146-88.97,2.13-96-7-0.67-1.333-1.33-2.667-2-4C1662.78,120.152,1713.87,58.524,1768,1ZM1104,27c5.58-.426,8.39-1.364,11,1,3.64,2.948,3.79,10.72,2,16h-32V42q-4.5-19-9-38c6.75-.744,18.84-3.9,23,0Q1101.505,15.5,1104,27Zm40,230c-0.98-59.571-3.97-124.237-14-179-2.89-15.781-13.36-63.543-8-76h5c6.69,18.014,6.91,41.419,11,63,10.77,56.792,14.05,127.709,15,191ZM1181,2l12,2q4.995,18,10,36h1V5l13,2q4.005,104.989,8,210l-14,1q-6-68.493-12-137Q1190,41.5,1181,2Zm50,0h3q4.5,105.989,9,212l-12,3q-2.505-78.492-5-157-0.495-28.5-1-57Zm257,0h8c6.24,25.708,14.54,53.257,17,83-0.33.333-.67,0.667-1,1l-9-1C1502.28,58.25,1484.29,21.788,1488,2Zm125,0,8,1q1.5,68.493,3,137-12.495,14.5-25,29c-1.67-1.333-3.33-2.667-5-4q0.495-11,1-22c5.16-10.473,17.95-14.791,20-28q-11.505-16-23-32c-10.89-25.845,25.72-45.725,16-55q-8.505-11-17-22C1596.37,3.08,1606.59,4.526,1613,2Zm33,24q2.505,47,5,94l-12,9c-0.67-.333-1.33-0.667-2-1q-3-45-6-90c-0.25-9.078-5.03-28.136,0-34l12-2c0.33,3,.67,6,1,9l32,5c0.17,7.835,1.93,24.437,7,28l30,4c-3.05,9.95-21.21,29.2-30,34-4.17,1.838-10.14.391-14-1q-3.495-27.5-7-55h-16Zm54-24c18.06-.274,29.1,10.347,40,18-1.33,1.666-2.67,3.334-4,5h-1c-10.92-1.759-29.62-13.482-36-21C1699.33,3.333,1699.67,2.667,1700,2ZM1306,3c43.48,21,82.48,47.5,120,74q20.505,14.5,41,29v1h-16l-33-25q-36.99-24-74-48c-12.53-7.668-32.6-14.247-41-26Zm176,61c-10.14.347-36.61,3.187-41-3q-4.995-18-10-36h-11c-7.43,2.3-25.49,3.942-29,0q-3.495-11-7-22l66,1q6,21,12,42h17Q1475,25,1471,4l6-1c0.67,0.333,1.33.667,2,1q7.995,32.5,16,65,1.995,29.5,4,59c1.74,10.777,4.77,27.267,2,38h-9q-1.005-17.5-2-35l-12,12q-77.49,71.493-155,143l-18-3v-1q69-64.494,138-129c8.14-7.838,43.7-34.767,41-43q-30.99-23.5-62-47-46.5-29-93-58c0.33-.667.67-1.333,1-2,18.56,0.2,32.01,15.637,45,23,40.52,22.972,74.31,49.411,112,74Q1484.5,82,1482,64Zm54-61c12.7,0.107,14.62,12.671,16,23h1V4h14q3,121.988,6,244l-11,1c-0.33-1-.67-2-1-3q-2.505-67.492-5-135Q1544.5,58.505,1533,6ZM1281,4h14q7.005,120.488,14,241,4.005-4,8-8,70.5-62.493,141-125l13,2q-4.005,4.5-8,9-61.5,56.495-123,113c-10.96,10.54-32.56,40.891-49,40-6.71-28.456.68-62.721-4-94Q1284,93.01,1281,4Zm504,0,18,20-15,26q13.5,16.5,27,33v4c-5.21,4-16.14,16.39-14,21q7.995,11.5,16,23-10.995,14-22,28h-4q-10.995-10-22-20c-9,2.932-14.04,12.6-21,18h-2c-5.86-8.064-23.47-26.019-30-18q-13.005,11-26,22c-11.89-1.738-17.47-9.915-24-17v-1c3.56-4.274,6.4-9.3,11-7q4.995,3,10,6l3-2c3.28-7.112,44.9-49.063,49-49,9.14-.527,25.78,24.573,34,31l3-2,6-9q-14.505-20.5-29-41c8.31-14.6,31.19-31.423,33-47q-4.005-4.5-8-9Q1781.5,9,1785,4ZM1137,5h9q6,30.5,12,61,4.5,63.493,9,127c2.51,15.887,5.81,38.954,3,55l-9,3q-4.995-78.991-10-158Q1143.995,49,1137,5Zm439,0,10,1q1.995,67.993,4,136c0.1,12.11,5.4,42.1-2,48-2.33.667-4.67,1.333-7,2-0.33-.333-0.67-0.667-1-1q-1.5-61.494-3-123C1574.7,52.572,1571.18,16.231,1576,5ZM1024,114q-0.5,14-1,28l-36,2q-1,20-2,40l-6,5H955V176l14-2V137q-0.5-18-1-36l4-3,45,1V98l-3-15-50-8q-3-27.5-6-55l-16-2V6c10.514,0.143,21.573.732,28,4l6,27,44,5,3,27,29,5c5.51,5.536,5.24,26.7,5,37ZM937,7q8,107.989,16,216l54-46c0.67,1,1.33,2,2,3q1,6,2,12l-70,65-4-1-3-2c-3.425-79.94-6.744-158.386-7-238Zm872,15c19.55,7.455,30.3,98.53,36,126,2.85,13.756,7.35,33.308,1,43l-132-7v-1q2.505-5.5,5-11l120,4v-3Q1824,97.508,1809,22ZM1324,195q-1.005-37-2-74l52,1q-0.495-9-1-18l-50-8q-4.005-28.5-8-57c-5.3.084-8.02-.526-11-2-0.33-3-.67-6-1-9l3-2,21,3q1.995,14.5,4,29c11.02-.279,37.92-0.127,44,6,2.91,6.444.24,21.161,5,26,9.18,3.449,23.14,1.169,31,5q1.995,18,4,36l-33,4q-0.495,14-1,28l-36,3q-1.5,19-3,38c-7.57,3.341-16.95,8.451-29,5q0.495-6.5,1-13ZM1831,44c14.28,4.687,36.56,114.382,33,138-1.67,1.667-3.33,3.333-5,5-0.67-.333-1.33-0.667-2-1Q1844,115.006,1831,44ZM921,50q-1,4.5-2,9c-10.581,1.219-32.067,11.608-39,7C885.984,55.63,905.99,50.591,921,50Zm-3,14,3,10L858,90V87C870.772,69.719,898.8,75.019,918,64Zm611,6,9,1c0.71,70.082,17.71,136.427,18,214,0.08,22.428,9.03,65.092,0,81l-21-2c-0.59-22.072,5.97-27.81,13-41-22.03-38.793-19.74-47.079-2-89-22.08-31.06-26.27-46.849-7-85C1528.09,117.079,1508.09,110.388,1529,70ZM920,89c5.033,3.639,6.91,38.353,4,45l-9,9h-1l-44-34-12,12h2l67,61c1.867,5.333.712,14.3-5,16l-91-82,8-10c4.391,2.513,5.272,3.924,10,4l22-18,23,16C903.8,105.656,913.52,95.394,920,89Zm593,3c9.22,12.774,2.12,44.116,5,62q4.5,75.993,9,152c1.01,16.184,7.2,46.379,2,59-4.83.212-7.77,0.246-10-2q-1.005-37-2-74-6-97.99-12-196Zm-388,6c2.51,3.215,2.97,10.46,3,16q-49.5,47.495-99,95l-6-14Q1074,146.505,1125,98Zm756,0,18,13c-1.4,8.523-8.11,17.28-13,23q3.495,4,7,8c-0.33,4.928-4.26,9.626-9,13q-11.505-11-23-22Q1871.005,115.5,1881,98ZM839,148l-34-3v-3l18-20h2c24.3,30.513,112.767,80.621,101,133l-9-1-13-15c-3.8-11.081,3.491-26.994-5-33C861.866,189.679,839.182,206.614,839,148Zm1073-19,6,1v5c-3.03,16.388-21.98,31.735-31,44-27.94,37.985-60.02,70.072-89,106-6.25,7.751-36.56,45.58-42,43-1.33-.667-2.67-1.333-4-2v-3c13.96-10.783,25-27.138,36-41,25.05-31.583,53.57-59.784,78-93Q1889,159,1912,129Zm-638,2q4.005,76.992,8,154h-3c-9.83,3.033-11.21-.371-17-5l-15-17c-0.49-23.107,12.85-32.13,22-46-10.5-19.511-24.08-29.464-24-60l24-26h5Zm649,11c4.32,1.209,4.73,2.051,7,5q-13.005,19.5-26,39c-25.38,36.006-54.81,66.925-82,101q-21.495,24.5-43,49c-6.08-.122-8.08-1.007-11-4C1824.52,273.667,1876.1,209.856,1923,142Zm-801,25q0.495,34,1,68l-58,5q1.005,25.5,2,51l58,2q2.505,29.5,5,59h9c0.33,1.333.67,2.667,1,4q-0.495,11.5-1,23c-6.93,1.152-27.13,3.572-32-1q-3-22.5-6-45h-44q-1.995-17-4-34l-37,2c-0.55-13.282-8.9-45.625-3-54,5.36-5.166,26.78-4.81,36-5q-0.495-21.5-1-43l51,1c-0.26-15.821-5.81-38.347,0-51l3-2,30,5q0.495,7,1,14ZM799,149c16.773,5.331,28.137,26.6,41,37l94,88-3,9h-4L794,158Zm1137,3c6.81,1.719,12.36,7.026,16,12-24.23,44.045-61.78,78.6-92,117-9.86,12.53-22.86,38.935-41,42-0.33-.333-0.67-0.667-1-1,0.58-24.893,8.19-42.9,24-52,8.31-4.787,20.2-3.884,26-11,15.22-26.963,12.27-56.176,51-60,2-19.151,4.17-33.056,12-45C1932.67,153.333,1934.33,152.667,1936,152ZM784,161h3L964,328l-7,9h-4L851,241c-27.725-19.553-62.774-32.772-87-56v-3l7-6,22,11-16-16,2-2Q781.5,165,784,161Zm720,27h-26c0.49,20.559,9.37,55.755,0,70l-58,1q1.5,26,3,52l57,3q3,30.5,6,61h7c0.39,8.666,2.07,17.57-1,24l-30,2q-3.495-24-7-48h-42q-1.5-17-3-34l-38,2c-0.33-.667-0.67-1.333-1-2q-1.995-26.5-4-53l38-2c-0.32-17-3.5-35.01,3-44l47-3V170c3.63-4.565,42.94-1.967,47,4Q1503.005,181,1504,188Zm453-17c4.64,2.246,5.26,5.031,8,9q-9.495,17.5-19,35,13.005-13,26-26l3,2c1.33,2.333,2.67,4.667,4,7-4.72,14.923-22.82,24.648-32,36q-39,42-78,84c-9.29,9.951-20.6,30.282-34,35-1.96-3.652-4.44-5.041-8-7v-3q19.5-23.5,39-47,24-28,48-56Q1935.5,205.5,1957,171Zm-356,18c17.65-.153,92.4,0,102,7q-3.495,6.5-7,13c-25.38-.815-63.07-4.754-85,2q6.495,61.994,13,124c2.25,13.039,8.31,38.069,3,50-1.67,1-3.33,2-5,3l-3-2q-7.5-66.993-15-134c-3.35-17.416-9.1-42.918-6-61Zm-848,2c17.034,3.521,42.278,21.39,53,33l-7,8c-19.414.248-28.073-5.624-39-13q-1-7.5-2-15H742C744.005,197.366,748.886,195.364,753,191Zm741,2,11,2q1.995,84.991,4,170l-7,1q-3-60.494-6-121Q1495,219,1494,193Zm215,2,142,5q-4.995,6-10,12l-137-2v-3Q1706.505,201,1709,195ZM1602,438q-12-115.488-24-231,4.005-4,8-8h3q10.995,86.991,22,174c3.88,21.138,12.92,55.428,7,76-9.07.323-26.52,2.1-32-2v-8h3ZM1016,200c20.21,10.284-37.246,60.447-49,69q-1,3-2,6,66.99,54.5,134,109-1.005,5-2,10c-1.33-.667-2.67-1.333-4-2q-75.495-59.495-151-119v-6Zm969,3h3c2.33,1.667,4.67,3.333,7,5q-71.49,77.993-143,156-4.995-2.5-10-5v-3Q1913.49,279.508,1985,203ZM734,210c26.725,5.686,51.919,31.224,72,46q-0.5,1.5-1,3c-3.816,2.736-3.219,4.023-7,2l-68-44v-3Zm462,4c9.94,14.027.49,74.568,4,97,5.81,37.1,6.61,109.767,1,144q-2.505,58.494-5,117h-1q-4.005-3-8-6c1.7-4.869,4.02-6.843,2-10q-6.495-10-13-20c-9.54-29.035,12.85-47.64,17-65,2.95-12.334-11.3-24.135-14-33-8.73-28.663,5.28-42.927,14-60-4.78-13.586-21.44-29.112-14-54,2.63-8.8,12.1-15.28,13-24C1161.17,275.031,1180.36,239.128,1196,214Zm801,0q12.495,9.5,25,19l-12,12q-36,38.5-72,77h-2l-6-10c9.21-16.733,2.55-38.431,20-47l37-5q1.5-19,3-38Q1993.5,218,1997,214Zm-274,2q18.495,18,37,36,16.005-17.5,32-35l8,1q8.505,11.5,17,23l-9,11q-4.995-3-10-6-22.5,24-45,48h-2c-12.34-14.508-31.65-22.573-43-38-1.67,1.333-3.33,2.667-5,4q-15,17-30,34,4.995,5,10,10,14.505,16,29,32c-11.04,18.448-38.07,34.015-32,54l-18,17h-2c-6.21-7.881-19.84-14.661-21-24,8.32-8.743,24.25-24.26,27-37l-30-29,21-27q-13.5-12.5-27-25c7.33-10.317,24.87-38.048,38-41q13.005,11.5,26,23,5.505-5,11-10Q1714,226.5,1723,216ZM1249,488l-11-1q-3-131.986-6-264c3.33-.667,6.67-1.333,10-2,0.33,0.667.67,1.333,1,2q0.495,31.5,1,63v59Q1246.505,416.493,1249,488ZM723,223c52.677,20.838,89.7,65.089,132,97v1l-6,7h-2l-25-24q-4,113.488-8,227l-14,12-2-1q4.5-123.987,9-248l-77,10L619,330c4.47-13.014,29.4-13.181,43-17,41.61-11.688,89.824-18.413,136-28l-2-1-26-20h-2l-26,27c-13.618,4.192-27.1-21.192-40-17l-23,27-22-11,44-45,3-1,40,20,10-12-35-23Zm501,4q1.995,95.991,4,192c0,12.893,4.81,62.278-1,69l-13,3c-0.67-.333-1.33-0.667-2-1q-0.495-91.99-1-184c0-22.091-5.93-60.322,2-78Zm-412,2c25.142,10.437,49.461,37.943,70,55l41,31,74,71q19,17.5,38,35v3l-15,14-3-1c-8.94-11.739-13.84-19.851-18-38-39.834-3.478-54.424-28.033-64-61-25.605-2.367-47.587-10.027-57-28-4.834-9.23-2.916-22.28-11-28-28-14.3-57-9.418-60-49Zm1214,14q5.505,4.5,11,9-80.49,90.491-161,181l153,9c20.35,3.1,40.26-1.355,53,8,0.67,1.333,1.33,2.667,2,4v1l-239-8c-0.33-1-.67-2-1-3-0.67-.667-1.33-1.333-2-2,11.82-24.462,40.32-41.346,57-62Q1962.5,311.507,2026,243Zm-453,15q2.505,87.491,5,175c2.34,15.581,6.03,66.624,1,78q-5.505,2.5-11,5c0.33-.667.67-1.333,1-2q-4.5-126.987-9-254C1564.78,257.39,1565.84,257.4,1573,258Zm-761,2,203,181v2c-3.78,3.274-5.03,7.33-9,5l-68-65L806,268Zm357,0h2c5.84,31.526,1,69.854,1,104,0,58.76,4.58,126.306-3,180-0.67.333-1.33,0.667-2,1l-4-1q-1.005-139.486-2-279C1163.26,261.9,1165.6,261.9,1169,260Zm872,0h5q10.995,37,22,74,9.495,56,19,112c-16.21-5.364-13.33-26.155-17-44q-10.995-51.495-22-103C2045.09,288.216,2037.06,269.782,2041,260Zm-894,9,7,1V434c0,15.434,5.46,51.42-2,62-2.33-1.333-4.67-2.667-7-4V463q-7.005,6-14,12c-1.67-.667-3.33-1.333-5-2l-3-6q10.995-12.5,22-25c-0.33-2-.67-4-1-6-8.04-15.116-37.2-19.294-39-39,0.33-2.333.67-4.667,1-7,15.18,3.826,27.38,22.119,39,31V310C1145,297.3,1142.82,278.276,1147,269Zm879,6c7.48,3.267,13.46,12.829,16,18l-18,22q13.995,17,28,34c-2.55,9.147-18.1,18.55-15,25l18,23q-11.505,15-23,30-13.005-10-26-20-9.495,9-19,18c-10.04-2.679-23.23-15.379-29-23l-9,9-18,16c-13.48-1.514-19.86-7.45-26-16q3.495-4.5,7-9c14.99,3.167,9.5,4.776,22-5l39-42h2q16.995,18.5,34,37l6-5,6-8c-0.67-.667-1.33-1.333-2-2q-13.5-20-27-40,16.995-23,34-46l-6-9Zm34,2c13.08,4.285,13.21,29.457,17,43,11.62,41.562,18.43,89.879,28,136,0.33-.667.67-1.333,1-2q10.005-13,20-26v-2l-27-27q9.495-18,19-36-14.505-13-29-26,5.505-11,11-22,22.995,22.5,46,45v1q-10.005,20.5-20,41,5.505,5,11,10h1q11.505-17.5,23-35l3,3,3,1c-25.52,51.974-64.33,88.162-97,132h-1q-3.495-3-7-6v-2q12-12.5,24-25l-227-8-12-14c0.33-.667.67-1.333,1-2l248,9q-4.995-38.5-10-77Q2073,332.506,2060,277ZM939,283l36,27q48.99,38,98,76c21.09,15.951,50.05,31.094,65,53q-11.505,11-23,22-3.495-3-7-6l3-3c4.18-7.793,7.91-6.242,3-14q-87.99-70.994-176-142Q938.5,289.5,939,283Zm359,7c28.24,1.138,37.69,18.26,54,31q50.49,41.5,101,83c12.57,9.758,41.64,24.529,45,42-16.36,1.8-39.1-26.862-51-36q-52.5-42-105-84C1329.27,316.228,1305.26,304.481,1298,290Zm-12,198h-9c-8.25-14.061-37.63-32.455-26-63q13.005-15.5,26-31c-9.68-14.956-38.21-40.869-27-67,4.34-10.024,20.43-33.618,33-35v2Q1284.5,390.99,1286,488ZM784,303h4c-5.4,16.3-26.148,13.186-44,17L641,342c-10.784,2.912-29.218,10.94-39,7v-5l83-24Zm11,3c5.572,6.315,2.7,39.854,1,51q-3,70.994-6,142c-2.43,16.146,2.756,35.435-3,48l-3,1c-24.4-11.762-41.391-40.351-62-57L585,363v-1l9-9L775,514q4.5-75.492,9-151c3.173-20.837-1.62-41.9,8-55Zm503,0c23.98,7.511,9.95,45.723,14,73q1.995,115.488,4,231c13.18-4.342,20.98-19.908,31-28q48.99-45.5,98-91c15.55-12.552,20.69-29.45,47-32-6.04,18.048-34.65,32.343-47,46q-67.995,63.993-136,128l-7-1q-2.505-107.488-5-215-1.005-54.495-2-109Zm20,17c14.51,4.854,25.46,18.5,37,27q45.99,35,92,70c11.91,8.986,34,18.714,41,32h-2c-3.85,1.967-13.42,3.143-18,1l-115-92c-10.03-7.591-34.05-18.632-36-33C1317.33,326.334,1317.67,324.666,1318,323Zm604,1,10,2v3L1829,441h-2q-4.005-3-8-6c-0.61-22.126,2.19-32.658,11-44,10.08,0.047,32.59-2.185,38-8,8.39-17.213,6.41-49.52,24-57ZM857,326c7.172,0.72,11.533,4.632,15,9l-18,18,6,7,43,37q-0.5,4-1,8l-39,39,4,5,36,30,40-38,48,39c3.706-2.7,3.922-4.668,8-2q7,6,14,12c-0.33,1-.67,2-1,3-2.28,7.025-16.114,22.312-21,20l-36-26-28,29h-4l-25-21-23,27c-16.8-2.4-32.772-24.986-44-35l25-28-29-26v-8l31-34-14-15c-9.563-4.113-18.455-13.164-17-26C837.969,346.361,849.857,334.108,857,326Zm959,5h3c-6,18.22-53.08,54.768-67,72-35.39,43.817-79.19,89.671-123,125q-30.99,28-62,56l-3-1c-0.33-3.333-.67-6.667-1-10,4.41-.912,7.08-1.284,9-5,9.71-32.136,16.67-40.192,46-52l18-6c8.06-5.755,7.24-23.732,12-33,9.61-18.7,29.42-26.654,53-32,10.28-32.982,16.96-46.817,53-54C1758.45,337.3,1781.36,350.791,1816,331ZM738,335l31,23-20,26,19,20-3,3-20,25v2l24,25c-1.525,13.631-7.377,19.8-16,26l-9-8v-3l6-6-12-13c-7.033-3.28-38.748-32.918-41-40l37-34c-3.262-4.932-10.649-12.207-15-10l-40,27-45-34-10,6-7-7,15-15c10.523,4.159,16.227,12.111,25,18l34-28c9.147,2.55,18.55,18.1,25,15Zm1004,0c2.33,1.666,4.67,3.334,7,5v2q-79.485,78.991-159,158l-3-2c-0.33-2-.67-4-1-6q10.005-10.5,20-21v-1c-7.7.461-16.53,0.98-20-3l3-9c11.63-.413,28.5-0.32,36-5,1.78-12.36-10.24-44.569-2-54q3.495-3.5,7-7l3,2q1.5,23.5,3,47Zm-773,2h3l182,172q-1.995,6-4,12-93.495-86.991-187-174,0.5-1.5,1-3C965.41,339.793,966.677,339.888,969,337Zm-92,3,124,116-3,6c-24.161-7.642-70.791-65.059-93-83-11.393-9.2-29.5-20.444-36-34Zm882,1,9,5c-10.26,17.632-28.87,30.874-43,45L1622,493c-15.66,15.664-34.98,45.476-58,52-0.67-1.333-1.33-2.667-2-4Zm58,12c6.2,0.792,8.97,3.208,12,7q-69,71.493-138,143c-6.26,7.753-39.77,45.46-45,43q-5.505-4-11-8Q1725.99,445.509,1817,353Zm20,10,9,6-24,24L1698,523c-9.26,9.3-32.35,44.8-42,33v-3Q1746.5,458.01,1837,363ZM574,368l90,84v2l-10,6c-9.352-5.277-24.314-1.864-35-7l-12-11q-2.5-19.5-5-39l-38-3-8-8Zm821,77,32,1v41q-16.005,2.5-32,5-1.005,14-2,28l-43,7q-0.495,22-1,44l-27,1v-7c0.67-1.667,1.33-3.333,2-5l9-1V488c1.67-1.666,3.33-3.334,5-5,11.87,3.22,37.06-1.4,49-5q-0.495-12-1-24l-50,3c-0.33-1-.67-2-1-3-5.78-8.17-3.42-55.766-5-69-5.53.138-8.88-.459-12-2q0.495-6.5,1-13c8.92-.509,21.75-3.3,27,2q1.005,17.5,2,35l45,2Q1394.005,427,1395,445Zm107-72,8,2c0.17,48.937,5.97,103.757-1,150-5.19,34.421,1.78,70.295-3,102q-1.995,43-4,86c-2.33,1-4.67,2-7,3-1.2-44.638-1.75-95.443,5-139q1.995-50.495,4-101C1507.62,447.209,1492.23,400.286,1502,373Zm33,0,25,1q-2.505,86.991-5,174c-4.05,34.6,7.53,65.16-22,74,0.33-.667.67-1.333,1-2-5.55-18.756,14.3-28.464,12-43q-6.495-9.5-13-19c-6.91-22.188,9.19-56.312,17-68-4.01-18.042-22.88-38.067-14-68q7.005-12.5,14-25C1548.71,388.784,1537.44,382.671,1535,373Zm-18,2,12,1q-1.5,128.986-3,258c-6.35,2.1-7.09,3.174-12,0Q1515.5,504.512,1517,375Zm656,13c4.32,1.209,4.73,2.051,7,5-8.64,26.761-30.75,49.47-46,71q-3.495-3-7-6C2141.43,434.683,2157.9,411.712,2173,388ZM550,395L706,538q-2.5,5-5,10h-3L545,404Zm1636,5c6.4,1.9,9.06,6.721,13,11-4.6,21.029-23.12,33.649-31,52h-4l-6-6c-0.25-19.468,5.61-28.073,13-39l15-2V400ZM539,411h3l105,98c10.645,8.6,43.918,34.057,48,46-4.509,2.621-4.661,6-10,8l-36-30c-28.251-22.01-53.132-48.682-84-68l-52-33,3-4,6-3,35,19-26-26,2-3Zm1665,11h3q3.495,3.5,7,7-5.505,11-11,22,7.995-8,16-16,4.995,3.5,10,7v4L2062,621l-3-2-6-5v-3l36-39q30-31.5,60-63Q2176.5,465.5,2204,422Zm-1162,6c18.03,8.783,32.13,33.027,46,47q57.99,60.493,116,121c-0.03,7.234-.5,20.471-4,25-0.33-.667-0.67-1.333-1-2-12.56-5.135-16.57-25.248-20-39-39.27-2.1-52.61-32.735-61-65-36.17-6.906-56.22-27.894-64-64l-29-6v-1Q1033.505,436,1042,428ZM505,438c35.931,13.1,81.928,63.176,112,87,15.849,12.556,36.965,24.82,48,42q-0.5,2.5-1,5c-38.292-.448-53.235-19.571-61-50-29.271-5.328-58.975-18.586-62-51-19.151-2-33.056-4.173-45-12q-1-4-2-8Zm1244,78c1.7-38.148,7.96-63.179,45-69,9.77-1.535,22.05-4.756,30,0v3q-67.5,68.993-135,138-3.495-3-7-6C1695.74,530.891,1682.86,517.777,1749,516Zm-728-65c15.82,5.2,44.06,41.21,56,54q63,64.993,126,130-2.505,4.5-5,9c-24.02-11.654-47.59-43.638-64-64q-59.49-60.493-119-121Zm1211,1,9,5c-5.49,17.111-27.36,28.838-38,42q-43.5,46.5-87,93l-9-3v-4Q2169.49,518.507,2232,452Zm-396,5c18.78,10.357,13.89,40.559,18,66q9,90.491,18,181l-3,4c-1.67-.333-3.33-0.667-5-1Q1850.005,582.012,1836,457ZM668,458L784,561l-4,4-3,6-33-1-11-11c-4.353-11.373-.16-29.309-8-37-29.143-13.744-51.293.285-57-40C666.929,474.437,665.3,463.786,668,458Zm-180,2c23.742,5.7,47.3,31.071,65,45,31.151,24.516,59.274,52.545,90,77l35,30c-0.318,5.566-1.173,7.238-4,10h-1c-6.664-12.355-24.149-22.342-35-31l-80-72c-23.01-16.489-56.329-31.206-74-53l2-4Zm519,3c21.05,10.126,42.76,38.762,58,56,40.71,46.036,88.19,85.852,127,134,10,12.409,52.54,46.654,48,62-1.67-1.667-3.33-3.333-5-5-15.44-6.687-61.45-63.393-74-79q-45.99-49.5-92-99c-23.5-17.3-49.45-39.823-67-63,0.67-1.333,1.33-2.667,2-4Zm1235,34q1.5-17,3-34h1q10.995,9,22,18v2q-47.49,49.5-95,99l-38,2c0.33-2.333.67-4.667,1-7,11.43-21.351,39.13-8.174,48-20C2200.35,519.8,2183.22,497.187,2242,497Zm-121-33,9,6-3,3q-88.995,99.99-178,200h-2q-3.495-3.5-7-7,33-34.5,66-69Zm32,1h3c1.67,2,3.33,4,5,6-0.67.667-1.33,1.333-2,2-11.03,24.071-36.34,46.9-53,67q-15.495,20.5-31,41-36,37.5-72,75-16.995,18.5-34,37h-3q-7.005-8-14-16c9.24-12.466,21-16.007,39-20,3.43-39.254,27.94-55.255,61-64,2.37-25.753,9.96-47.532,28-57,9.13-4.789,22.33-3,28-11,11.44-22.383,7.44-40.868,27-54Zm-330,2c1.33,0.667,2.67,1.333,4,2v16L1624,697h2l179,6c23.55,3.558,37.51-3.365,49,11v1l-252-7c-0.33-1-.67-2-1-3-1.6-1.984-1.3-1.389-2-5q79.485-82.992,159-166C1777.1,510.352,1799.53,486.316,1823,467Zm-327,3,3,2q-1.005,5.5-2,11-82.995,80.491-166,161c0.67,1,1.33,2,2,3q66.495,48.995,133,98c-1.28,4.587-2.78,5.609-6,8q-73.995-52.494-148-105c1.33-6.726,7.34-10.659,13-18Q1410.485,550.008,1496,470ZM473,471c17.946,1.973,31.654,19.918,44,29,38.967,28.665,72.151,61.281,109,91,7.863,6.341,46.61,37.491,44,43-1.83,3.483-.844,2.688-5,4l-42-37c-33.515-26.788-64.231-57.785-99-84l-53-41Q472,473.5,473,471Zm1558,13,9,1c5.05,14.3,21.64,18.957,24,35l-9,10-18-18q-3.495,3-7,6-18.495,21.5-37,43l-8-1-39-39c-1.67,1.333-3.33,2.667-5,4q-15,17.5-30,35v2q19.005,19.5,38,39-19.5,24-39,48c1.33,2.333,2.67,4.667,4,7q-7.005,7.5-14,15l-3-1c-7.9-2.894-17.24-12.625-22-19q13.995-19,28-38c-6.78-11.717-25.41-17.018-29-31l21-26-27-24c2.97-14.258,24.65-34.542,35-43q13.995,12.5,28,25,13.005-14.5,26-29h8q17.505,15.5,35,31,7.005-7,14-14C2017.29,494.869,2024.91,488.552,2031,484Zm242,5q5.505,4,11,8c-2.51,4.391-3.92,5.272-4,10l18,22q-7.995,11.5-16,23c2.76,11.066,13.52,17.83,19,27-0.33.667-.67,1.333-1,2l-45,1q-4.005-5-8-10,16.995-22,34-44l-12-12v2q-30.495,33.5-61,67l-16-1v-3Q2232.5,535,2273,489ZM453,491c8.523,1.4,17.28,8.106,23,13l8-7c4.928,0.329,9.626,4.261,13,9l-22,23c-9.131-2.237-31.445-14.877-35-23Zm831,3c1.33,0.667,2.67,1.333,4,2q3,118.488,6,237c0.01,22.31,7.73,76.792-1,92q-4.005-3.5-8-7-4.005-5-8-10c5.84-21.114,1.44-35.134-2-50l12-22c-9.25-6.415-24.89-15.682-25-31-0.33-3.666-.67-7.334-1-11,9.2-3.485,19.35-21.611,24-30q-12.495-10-25-20c-0.47-34.175,19.04-40.268,21-67q-10.995-12-22-24,0.495-15,1-30Zm542,1c9.92,5.573,7.57,39.953,10,53q10.5,78.991,21,158-7.995-6.5-16-13-10.5-96.49-21-193Zm-578,1h2q2.505,89.491,5,179,0.495,44.5,1,89l-8-1q-0.495-33.5-1-67c0-48.357,1.7-95.877-5-140q-1.5-28.5-3-57c0.33-.333.67-0.667,1-1Zm-17,6q3.495,90.491,7,181l-12-7q-2.505-43.5-5-87c-0.67.333-1.33,0.667-2,1q-1.995,37-4,74c-5.15-1.534-6.43-4.161-9-8q3-76.493,6-153Zm1070,13c17.96,10.395,17.86,41.135,25,62-0.33.333-.67,0.667-1,1l-9,1C2312.91,559.179,2297.99,533.566,2301,515Zm-1260,3,8,2c0.33,0.667.67,1.333,1,2-0.33,1.333-.67,2.667-1,4L799,554v-1l2-3c48.536-18.934,119.037-16.408,178-26Zm443,21c0.22,19.951,5.09,50.116-1,64l-57,4q1.5,27.5,3,55l50-4c0.33,0.333.67,0.667,1,1v52l11-2c-0.17,5.787-1.77,13.037-5,16l-28,7-3-3q-1.005-17-2-34l-41,2q-1.005-15.5-2-31c-12.09.424-25.64,5.265-35,1q-1.5-23.5-3-47l37-1q0.495-20.5,1-41,3.495-4.5,7-9l46-1c-0.38-16.007-.9-40.926,7-47,0.67-1,1.33-2,2-3l26,5c0.43,6.194,1.84,11.948-1,15ZM517,525l7,1,5,5q-0.5,1-1,2L388,560l-2-1v-3c21.962-16.184,61.423-18.855,93-25Zm1525,2c4.36,1.815,5.91,5.1,8,9q-57.99,61.494-116,123l-3-1-3-4Q1985,590.507,2042,527Zm-249,2h3c5.99,4.24,15.79,11.142,17,20q-11.505,12.5-23,25c8.17,11.458,26.59,21.27,29,37q-10.995,12-22,24c4.85,5.936,21.86,17.974,19,24q-13.005,14-26,28-13.005-9.5-26-19c-8.19,5.559-14.84,16.909-24,18q-16.5-12.5-33-25-16.005,15.5-32,31c-1.67-1.667-3.33-3.333-5-5l-15-13c3.3-4.354,13.25-11.3,17-2q9.495-9.5,19-19c4.85-10.67,22.63-30.892,38-31,6.14,11.611,27.01,23.9,38,31,6.37-4.582,13.94-11.182,16-20q-18.495-16-37-32c5.12-14.983,52.63-48.759,41-59-0.67-1-1.33-2-2-3v-1Q1789.005,533.5,1793,529Zm-749,3c4.64,1.861,2.1-.291,3,4l-12,13L842,570l-5-9Zm11,4c6.77,7.761-1.54,51.866,0,65q-2.505,93.491-5,187c-3.97,2.136-5.14,3.741-9,1L862,619c-10.485-10.461-52.458-41.971-51-56h16l211,203c0.67-.333,1.33-0.667,2-1q1.995-71.493,4-143C1046.91,587.62,1039.62,557.874,1055,536Zm1285,43-9-2-9-39h4C2333.36,547.876,2339.15,562.8,2340,579ZM541,539l13,10q-1,68.493-2,137h-3l-11-4Q539.5,610.507,541,539Zm700,228-130,21c-11.47,2.455-41.05,11.957-50,7-3.15-3.141-2.74-51.506-1-63q4.005-96.49,8-193l3,2,6,8q-1.5,88.991-3,178-0.495,27-1,54l168-24v10ZM522,540c7.135,0.083,8.03,1.11,11,5q-3.5,65.493-7,131h-1l-11-5q2-59.994,4-120L364,581C375.34,552.487,487.988,554.347,522,540Zm188,4L857,684c8.929,7.931,58.306,45.317,38,50L705,552Q707.5,548,710,544Zm914,3,15,12v2q-60.99,65.493-122,131h-1l-3-13q28.995-32.5,58-65c-0.33-.333-0.67-0.667-1-1-1.67,1.667-3.33,3.333-5,5l-51,45c-0.67-.333-1.33-0.667-2-1v-6c5.1-12.267,17.32-20.187,27-28ZM701,561L890,742l-10,13L695,572v-3Zm947,2,9,6q-91.485,96.491-183,193l-4-1c-0.67-2.333-1.33-4.667-2-7q27.99-27.5,56-55ZM858,641c-38.118-1.673-63.092-8.113-69-45-1.577-9.846-4.761-22.1,0-30h3L930,701v2l-6,5C871.6,693.9,861.064,707.532,858,641ZM673,571c18.466,6.078,54.65,52.987,72,67,43.864,35.428,89.622,79.152,125,123l56,62q-0.5,1.5-1,3l-10,1c-0.912-4.413-1.284-7.084-5-9-27.33-8.258-39.107-12.914-49-38l-9-26c-5.755-8.057-23.732-7.239-33-12-18.662-9.586-26.664-29.462-32-53-33.285-10.385-46.276-17.086-54-53C691.485,632.757,679.16,608.154,673,571Zm276,0h3l25,22,22-21q15,14,30,28-9.5,13-19,26l3,3q8,9,16,18c-28.65,53.717-31.58,20.068,5,68-1.67,1.667-3.33,3.333-5,5-4.49,11.612-11.96,16.95-20,8,6.99-31.476-44.64-35.02-45-67,3.383-1.628,31.341-36.874,31-39l-12-12-8-3c-6.572,10.472-21.358,32.263-33,37l-53-46-8,7-3-1-7-8v-3l16-16h4l25,23Zm-367,2,12,9-6,10,48,45c-5.973,14.075-40.831,38.789-34,50,16.076,8.192,29.087,40.354,44,20l32-29c18.484,10.96,34.105,38.046,54,32l17,18v2l-21,22-3-1-34-27h-2l-30,30-27-21-4,3-21,24c-12.281-8.93-34.149-23.145-41-37l23-29-31-28c11.267-14.076,40.688-28.542,29-44l-28-25q0.5-3.5,1-7Zm-112,1h6l25,21v4c-12.682,9.249-24.308,22.869-10,33l8,9v3c-7.971,6.075-26.021,23.433-18,30l22,26q-0.5,4-1,8c-5.031,4.181-12.567,17.074-18,14l-8-7,8-12-52-50q1-3.5,2-7c8.509-3.775,30.1-24.891,28-32l-9-6-41,29-44-34-12,9c-4.574-1.581-6.452-3.546-9-7l1-2,18-16,26,15,33-27h4c4,5.214,16.39,16.143,21,14Zm633,3c6.01,1.6,9.82,5.6,13,10l-9,11c12.58,15.872,36.17,26.128,44,46q-18.495,20.5-37,41v2q19.995,18.5,40,37l3-2q14.505-18,29-36c12.67,4,30.4,25.751,38,36l3-2q2.505-3.5,5-7c0.67,0.333,1.33.667,2,1l6,11c-1.69,9.178-10.5,26.251-20,28q-13.005-11.5-26-23-12.495,15-25,30-12.495-10-25-20-10.995,12.5-22,25-18.495-14.5-37-29c5.64-15.733,35.09-23.871,16-38-6.47-12.932-19.37-13.153-20-33q15.495-15.5,31-31c-0.67-.667-1.33-1.333-2-2q-13.5-15.5-27-31V591Q1093.005,584,1103,577Zm1251,8c15.09-.844,24.82-0.177,28,11l-215,15q22.995,27,46,54l-3,2-12,2q-32.49-35-65-70l3-7c56.24-2.176,118.81,2.613,170-5ZM1455,831q0.495-11,1-22c11.61-12.315,28.23-16.558,32-37l25-6q-0.495-18-1-36l12-13c12.05,1.395,27.95-2.237,40-5-1.15-9.009-7.14-25.963-2-33,8.37-16.559,36.97-22.447,57-27,3.91-8.96.92-25.761,5-36q10.995-10.5,22-21c10.8-.51,31.53-6.4,39-1q-112.485,118.488-225,237h-5Zm638-235c5.64-.3,11.11-0.276,14,2L2004,731c-16.1,21.295-31.18,49.564-53,65q-10.995-11.5-22-23l6-7,12,10q24.99-30.5,50-61C2028.07,675.094,2063.03,637.168,2093,596Zm26,3c10.03,3.852,67.94,67.375,71,78q-5.505,2-11,4c-26.94-8.9-36.45-50.971-65-58q-53.49,66.493-107,133l-11-1c4.84-17.252,24.71-32.572,35-46q29.49-37.5,59-75C2099.36,621.9,2106.83,608.273,2119,599Zm157,83-28-1q-1.005-18-2-36l-42-3-3-5V613h13q1.005,7,2,14h34l37-1c1.67,1.333,3.33,2.667,5,4q-0.495,22.5-1,45l16-3q4.005-25,8-50l55-6q1.005-8,2-16h12c-0.14,10.514-.73,21.573-4,28l-27,6q-2.505,22-5,44l-27,3q-2.505,14.5-5,29c-5.49,5.466-26.86,5.212-37,5ZM344,608L507,749h1q3-35.5,6-71h1l12,8q-2,48-4,96l-4,3-4-2c-18.771-8.473-28.072-30.467-43-43L343,622Q343.5,615,344,608Zm1699,13c2.67,1,5.33,2,8,3,0.67,2.333,1.33,4.667,2,7q-85.995,90.491-172,181l-12-4Q1955.985,714.51,2043,621ZM687,622c18.515,7.112,33.6,30.6,47,44L840,773c14.243,14.243,41.505,31.625,47,53l-4,2L683,631Zm1700,7,3,2c-12.21,44.264-41.28,75.61-65,109-7.98,11.227-14.29,25.558-25,34h-6l-88-98v-1l12-4q40.5,44,81,88c1.33-1,2.67-2,4-3Q2345,692.507,2387,629ZM681,641c16.988,5.563,33.95,31.686,46,44L842,800l-2,3-6,1-21-20v2q-0.5,8.5-1,17c-4.354.337-8.053,0.021-12-2q-1-16.5-2-33l-5-4c-12.085.643-43.589,10.442-52,3l-6-6q0.5-2,1-4l47-3-25-26-81-81Zm-319,9,6,6q-11,17.5-22,35l-2-1C343.739,672.133,354.4,660.837,362,650Zm949,8q82.485,58.993,165,118c0.04,10.509-3.67,10.261-9,17L1334,913c-3.52-2.515-5.57-4.175-7-9Q1395,842.007,1463,780q-58.5-41.5-117-83c-10.36-7.357-36.6-17.921-40-31Q1308.505,662,1311,658Zm609,2c4.62,1.414,4.75,2.558,7,6-22.83,30.2-54.39,54.335-81,81-27.87,27.933-55.13,57.123-86,82-24.68,19.89-50.79,57.281-79,71l-6-3c1.33-1,2.67-2,4-3,8.65-18.947,52.77-52.16,70-66,46.54-37.385,94.46-82.475,132-129Zm466,0c3.82,1.726,4.03,1.391,3,5,2.96,12.3-8.91,21.889-14,30-15.24,24.293-39.79,70.426-62,86h-7Q2345.99,720.507,2386,660ZM371,661l8,6-33,55-2-1C342.827,694.239,363.121,682.136,371,661Zm1777,46,43-1q-0.495,25.5-1,51c15.73-.277,38.26-5.855,51,0,0.67,1,1.33,2,2,3q-2.505,15-5,30l-14,1c-0.33-3.666-.67-7.334-1-11l-68,1q-2.505-29.5-5-59l-51,3q-1.005,29-2,58l-59,5v9c-8.29.328-23.12,1.677-28-2q0.495-15.5,1-31l46-5q-0.495-22-1-44l35-5q-1.005-18-2-36l55-4Q2146,688.5,2148,707Zm-217-35q4.005,3.5,8,7v3q-21.495,22-43,44-70.5,67.493-141,135l-9-5c9.83-20.2,32.92-33.458,48-49Q1862.49,739.507,1931,672ZM368,744l92-5c5.154,2.665,7.334,7.9,11,12l-1,2-90,6c-9.075.254-28.139,5.03-34,0q-0.5-6-1-12c3.814-.466,5.987-0.825,8-3q2.5-15,5-30l29-6q1.5-15.5,3-31c12.769,4.009,25.778,21.144,35,30q-1,7-2,14l-55,7v16Zm952-31c7.68-.406,22.15-3.572,27,1q1.005,15,2,30c11.04-.359,39.01-4.875,44,2q0.495,15,1,30l27-1v2c1.71,5.4.15,23.366-2,29-7.57-.353-22.95-1.807-27,2l-3,30-39,4q-2.505,19.5-5,39l-24,3c-2.23-4.268-4.06-6.881-3-12q9.495-2.5,19-5,1.005-29.5,2-59l47-9V786c-0.33-1-.67-2-1-3-13.86.274-38.14,4.842-47,1q-1.5-27-3-54l-18,1v65q-1.005,36-2,72c-5.48-.9-7.46-2.571-11-5q1.005-66.493,2-133c0.08-13.675-4.51-43.786,2-53,0.67,0.667,1.33,1.333,2,2q4.995,3.5,10,7v27Zm872-32c12.69,4.165,26,24.086,34,34q33,34,66,68c-0.33.667-.67,1.333-1,2l-15,1q-47.49-49.5-95-99l3-2Q2188.005,683,2192,681Zm-247,2q8.505,8.5,17,17v2q-84.495,79.992-169,160l-24-4c9.49-11.979,24.02-16.625,41-21,2.07-39.261,32.7-52.648,65-61,6.62-34.89,27.74-58.2,64-64ZM537,687l13,5c6.37,25.055-4.276,62.985,3,87l124-13c13.142-2.233,38.018-8.332,50-3l3,7h-2l-67,8c-29.575,5.161-100.088,18.833-128,14C527.715,777.281,532.153,704.409,537,687Zm399,18q83.991,79.992,168,160c14.97,12.091,65.15,52.825,70,70l-23-1c-12.38-11.672-16.41-28.205-37-32q-3-12.5-6-25l-36,1q-6.495-6.5-13-13c2.48-10.259-2.51-28.478-5-39l-32,4q-8-8.5-16-17-7-22-14-44c-31.523-3.3-40.911-5.737-55-25C936.567,731.893,931.133,713.9,936,705Zm687,194q-10.5-64.993-21-130c-2.4-11.662-12.01-40.957-7-50,0.67-1,1.33-2,2-3l254,10c-0.67,1-1.33,2-2,3-18.74,8.774-61.54,7.967-88,4l-152-3v1q12,83.991,24,168h-10Zm-41-173c10.65,3.216,8.6,32.253,11,44q10.005,59.495,20,119c2.71,11.166,7.83,36,2,41v2l-192-9c-0.67-.667-1.33-1.333-2-2,0.67-3,1.33-6,2-9l184,9q-16.5-94.99-33-190Q1578.005,728.5,1582,726Zm-672,7c22.58,8.757,39.627,39.156,58,54l136,129c-0.67,1.667-1.33,3.333-2,5l-3,1c-15.51-5.057-43.59-41.589-56-54L906,742Zm1453,29c0.32,6.712.56,8.608-1,13h-16c-0.34-8.424-2.32-27.357,2-32l38-9q1.005,11.5,2,23Q2375.505,759.5,2363,762Zm-795-25c3.9,2.753,3.65,8.924,5,14q-9.495,11-19,22,9.495,8.5,19,17l-21,23q13.995,14.5,28,29l3,3-21,23v2c6.14,4,15.93,10.073,18,18l-21,19c-7.91-2.427-15.52-12.863-20-19-6.55,3.9-21.48,21.356-27,18q-13.995-11-28-22l-30,24c-8.07-2.245-15.6-9.658-21-15q1.995-5,4-10c21.35,4.521,17.73,16.677,35-7,7.96-4.109,22.1-25.313,29-22q19.005,12.5,38,25c1.67-1.333,3.33-2.667,5-4l6-7q-4.995-5.5-10-11c-6.9-3.107-21.7-15.5-24-23q18-20,36-40-6.495-5.5-13-11-36,34.5-72,69c-7.74,7.734-16.91,21.343-28,25l-3-7c3.21-13.721,25.65-27.65,35-37Zm150,2h7q15.495,15.5,31,31l33-29h10q7.005,11.5,14,23-4.995,5-10,10-5.505-4.5-11-9c-16.13,12.439-26.04,36.135-46,44q-20.505-18.5-41-37h-2q-18.495,20-37,40c0.33,0.667.67,1.333,1,2q18.495,15,37,30c-4,12.673-25.75,30.395-36,38,0.67,1,1.33,2,2,3,2.33,1.667,4.67,3.333,7,5-0.33.667-.67,1.333-1,2q-5.505,3-11,6l-27-15c-0.33-1.667-.67-3.333-1-5q11.505-12.5,23-25c-0.33-.667-0.67-1.333-1-2q-14.505-12-29-24,10.005-12.5,20-25-12.495-10.5-25-21v-4q14.505-17,29-34c11.83,3.725,19.71,17.831,29,25q4.995-5,10-10,10.005-9,20-18C1714.67,739.667,1716.33,739.333,1718,739ZM900,751c14.874,4.813,25.516,23.722,37,33l97,89v1c-28.49,3.875-54.453-40.83-78-55,4.632,14.831,37.444,45.191,49,57-0.33.667-.67,1.333-1,2h-6c-13.6-5.629-99.62-97.778-109-113Zm1086,12,14,1c-3.81,15.03-22.21,27.369-31,39h111c12.7,0,31.73-2.186,41,2-0.33,2.333-.67,4.667-1,7H1956c-15.43,0-51.42,5.455-62-2,1.33-2.333,2.67-4.667,4-7h29l-3-3-9-11v-3q4.005-2.5,8-5,12.495,11,25,22l6-1C1964.55,796.686,1980.97,773.78,1986,763ZM476,765l6,1,29,25-4,5-22-1-24-20c-21.286,3.917-30.3,33.22-63,22l-24-19-25,21-3-1q-0.5-14.5-1-29Zm305,39q-0.5-8-1-16L549,812l-8-8v-3l174-22c21.145-3.9,55.389-12.982,76-7q-0.5,16-1,32h-9Zm487-33c5.51,3.833,6.46,6.965,6,17q-4.995,90.491-10,181l-10-1c0.33-.667.67-1.333,1-2q4.005-91.491,8-183-95.985,16-192,32l-3-9c0.33-1,.67-2,1-3Zm865,31c62.38-1.625,128.83-4.53,186-15,17.17-3.144,53.77-13.552,69-7v5c-66.62,21.748-171.92,24.344-254,26C2133.67,808,2133.33,805,2133,802Zm248-8,4,1c-0.33,3-.67,6-1,9l-61,12-127,9c-15.5,2.455-38.38,5.7-54,3l-3-9c65.9,0.3,141.22-6.219,199-18ZM509,799c7.74-.379,19.825-1.633,23,3q1,3.5,2,7l-1,1-133,4H347q0.5-5,1-10Zm677,8,24,21h2c3.95-6.04,10.22-15.958,18-18q9.495,10.5,19,21c-2.49,8.16-12.7,15.412-19,20q10.005,12.5,20,25l-24,30,24,30c-2.17,7.848-9.6,15.949-15,21l-10-4v-3q4.995-7.5,10-15-20.505-22-41-44,13.5-20,27-40-5.505-5.5-11-11-4.995,4.5-10,9-10.005,12.5-20,25l-45-36q-4.995,6.5-10,13,34.5,36,69,72c7.88,7.882,21.25,16.623,25,28l-11,3q-64.5-66.493-129-133c0.33-.667.67-1.333,1-2l13-2q10.995,9.5,22,19,8.505-9.5,17-19,11.505,10.5,23,21Q1170.495,822.5,1186,807ZM600,817l183-6c20.371-.17,57.04-6.941,71,1l4,10-256,8-3-3Q599.5,822,600,817Zm1774-8,13,2c0.33,0.667.67,1.333,1,2,0.48,6.4,2.22,13.573-1,17-35.42,16.609-112.15,12.555-157,20-15.35,2.549-40.68,6.211-48-3v-1l24-18c27.31-.478,37.91,6.713,56,11,14.29-10.918,33.86-17.288,56-20,9.01-1.1,16.57,14.4,25,10C2353.84,823.967,2362.28,815.359,2374,809ZM588,816c2.527,3.051,3.017,7.217,3,13l-145,6c-26.121,5.745-74.461,24.341-100,21q-0.5-4.5-1-9c4.571-4.86,15.256-7.693,23-9v-1H346V823Zm1492,2,47,1,3,10c-57.01,7.528-125.41,1-187,1-31.48,0-73.01,4.315-98-4v-3c0.33-.667.67-1.333,1-2Zm-637,8c10.21,8.5-15.73,27.183-21,32l-94,86c0.33,0.667.67,1.333,1,2q25.5,15.5,51,31c-0.67,1-1.33,2-2,3s-1.33,2-2,3l-64-35c-2.5-5.2,25.19-26.368,29-30Q1392,872,1443,826Zm-161,2c10.26,9.687,6.43,30.452,6,49q-2.505,58.993-5,118l60-15v2c0.33,2,.67,4,1,6-14.57,4.212-61.71,22.54-73,18Q1276.505,917.01,1282,828Zm-566,2,173,5c21.555,3.249,49.348-4.6,64,5l11,17h-1c-17.847-1.214-27.12-10.079-44-14-37.457,35.12-56.3.01-87-3l-29,13c-25.928,8.571-48.813-4.9-62-13l-26,15V834Q715.5,832,716,830Zm-18,1c6.491,0.061,7.2.605,10,4q-1,10-2,20c-22.528.53-26.378-5.282-41-13-38.71,21.981-47.1,19.729-89,2-10.515,9.517-32.9,29.434-60,20l-27-13c-17.136,13.988-55.224,31.649-77,9q0.5-4,1-8l80-10,96-7Zm1183,2c12.61,6.385,27.28,16.182,43,18,13.12-6.524,37.53-22.721,61-16,10.18,2.913,17.34,13.17,29,16,8.3-7.381,31.89-21.736,53-14,7.65,2.8,12.79,10.547,22,13,30.41-28.2,57.49-14.288,87,4-0.33.667-.67,1.333-1,2-117.33.117-244.21,14.671-357-2v-1l6-8c4.87,1.7,6.84,4.019,10,2q10.005-6.5,20-13Zm507,6q-1.005,6-2,12l-36,10v1h35q-1.005,6.5-2,13l-210,7q-0.495-6.5-1-13l136-12ZM400,854l5,1q-0.5,6-1,12c-12.1,7.08-17.062,14.231-36,16l-11-9-11,11h-2l-1-1c-0.367-6.948-.087-14.256,4-17C361.49,858.766,384.232,861.653,400,854Zm303,5,4,2v10h-2l-73,2-133,9c-10.2,1.585-59.223,5.185-63,2q-1-4-2-8l1-1Zm14,14q0.5-6,1-12c86.306-.105,171.825,2.869,258,3,2.1,6.353,3.174,7.086,0,12Zm1171,16-181,6c0.67-.333,1.33-0.667,2-1q2.505-5,5-10l87-5v-1c-0.33-.333-0.67-0.667-1-1l-74-4c1.53-5.15,4.16-6.434,8-9l153,6Q1887.5,879.5,1888,889Zm275-7-192,4c-13.03,0-62.41,4.7-69-1l-3-13c0.33-.667.67-1.333,1-2l184-1c22.09,0,60.32-5.927,78,2C2162.33,874.666,2162.67,878.334,2163,882Zm-749,19v23l-38,2q4.005,13.5,8,27c-0.33.333-.67,0.667-1,1l-12,2c-0.67-1-1.33-2-2-3q-0.495-17.5-1-35l33-3c-0.41-9.907-1.99-28.72,3-34l6-6,18-1v3l-9,24h-5Zm-111-26c6.06,2.861,15.94,24,10,29q7.995,7.5,16,15-12.495,14.5-25,29v1l24,13q-4.005,5.5-8,11l-27-24q10.005-13,20-26v-2q-10.995-11.5-22-23V887Zm-881,2,6,1q-0.5,4.5-1,9c-30.6.593-54.669,12.417-82,16l-1-1v-8h2C367.1,882.388,398.692,887.7,422,877Zm316,2c42.247-.1,89.742-3.911,129,2,34.779,5.236,70.933-1.823,103,3l85,4,3,7c-44.69,1.168-95.379,1.664-139-5l-100-4c-30.013-3.933-72.086,6.982-103,3q0.5-4.5,1-9Zm-69,2h38q0.5,3.5,1,7l-126,7c-12.559.407-39.264,5.185-47,0q1-5,2-10Zm1688,1,30,1c0.33,3,.67,6,1,9l-212,9-3-12ZM530,886v26c20.559-.5,55.755-9.373,70,0q0.5,29,1,58l52-3q1.5-28.5,3-57l61-6v-7c8.666-.393,17.57-2.067,24,1q1,15,2,30l-48,7v42l-34,3c0.353,10.07,5.415,32.05,0,38-0.333.67-.667,1.33-1,2l-52,3q-1-19-2-38c-17,.325-35.01,3.5-44-3q-1.5-23.5-3-47H512l-3-5c1.055-8.9.541-37.45,7-42ZM406,908c0.347,10.143,3.187,36.611-3,41l-36,10v11q1,14.5,2,29-12,3.5-24,7,0.5-33,1-66l43-13q-0.5-7.5-1-15l-42,7q-0.5-3-1-6l1-2,65-16,59-4c10.767-1.751,27.277-4.764,38-2q0.5,3,1,6l-1,3-35,2,13,13q70.993,76.493,142,153-1.5,9.495-3,19c-1-.33-2-0.67-3-1q-83.491-89.985-167-180l-3,2-47,62q-29,46.5-58,93h-1v-2c-4.5-12.49,16.677-34.67,22-44,23.051-40.4,49.545-74.222,74-112Zm1496-1c0.33-3.666.67-7.334,1-11l264-6q1.005,5,2,10c-0.33.333-.67,0.667-1,1l-75,1C2028.43,902.75,1963.21,906.206,1902,907ZM813,891c27.42,7.33,38.1,28.436,55,46q58.993,60.995,118,122c1-.67,2-1.33,3-2q48.99-66.5,98-133c4.59,1.282,5.61,2.777,8,6q-52.5,73.992-105,148c-6.726-1.33-10.659-7.34-18-13q-79.992-86-160-172Q812.5,892,813,891Zm68,15c16.214-.4,57.935-6.5,64,3q2,27.5,4,55l55-3q-2-24.5-4-49c0.33-.667.67-1.333,1-2h52v-1q-1.005-5-2-10c5.79,0.173,13.04,1.768,16,5q3.495,14,7,28l-3,3-34,2c0.94,12.7,5.17,28.97,2,41l-31,2c0.43,12.111,5.41,25.37,1,35l-47,3q-0.5-18.5-1-37l-41-1-9-7q-0.5-23-1-46c-15.99.383-40.911,1.035-47-7l-3-2,4-25c4.653-1.642,13.07-2.773,16,0Q880.5,899.5,881,906Zm-96-14c4.092,1.459,2.674,1.327,5,4q-78.492,97.991-157,196h-1v-5c14.222-47.48,76.184-101.787,106-140C752.033,929.015,765.948,904.757,785,892Zm1104,5c3.39,2.268,4.02,6.546,5,11h-2l-70,2-117,3-79,1c0.33-2.666.67-5.334,1-8l61-1c49.71,0,98.76,1.869,144-5Zm485,0,12,1q1.5,15.5,3,31l-122,3c-0.33-.667-0.67-1.333-1-2q1.005-5.5,2-11c12.65-1.368,25.83-27.642,47-20,9.98,3.6,25.36,28.642,34,20Q2361.5,908,2374,897ZM801,898c14.788,4.884,31.48,30.35,41,42l97,103c9.822,12.17,33.46,24.22,36,42q-0.5,1.5-1,3-107.488,2.505-215,5-54.5,1.005-109,2-1-3-2-6,5.5-5.505,11-11h63q114.988-1.995,230-4c-5.007-15.21-26.181-30.15-37-41q-40-42.99-80-86C822,930.9,803.624,925.073,801,898Zm-9,4c4.076,2.549,5.956,14.159,3,20l-92,115c-7.508,9.92-18.494,33.33-32,36-2-.33-4-0.67-6-1v-1Q728.493,986.5,792,902Zm1467,30-154,8v-3c-3.03-9.828.37-11.212,5-17q8.505-7.5,17-15c23.12-.491,32.22,12.77,46,22,19.6-10.546,29.23-24.084,60-24q13.005,12,26,24v5Zm-357,12v-9c14.85-8.715,31.55-36.777,63-26q15.495,13,31,26c34.89-22.942,45.29-42.856,86-12,6.95,5.268,14.81,6.732,16,18h-2Zm-778-31q65.49,71.493,131,143c-2.51,3.52-4.18,5.57-9,7q-61.5-68-123-136h-1q-55.5,78.492-111,157c-5.75-.67-7.65-2.28-11-5q58.995-82.485,118-165Zm712,4,31,1q14.505,12.5,29,25v2c-0.33.333-.67,0.667-1,1l-238,6c-22.35.011-76.95,7.632-92-1q3.495-4,7-8,5.505-4,11-8c16.76,4.925,38.3,4.594,48-3q11.505,6.5,23,13c9.69-13.825,17.33-26.494,42-26,4.05,9.633,21.34,18.611,30,24q10.005-12.5,20-25c34.31-.472,40.23,19.038,67,21Q1824.505,928,1836,917ZM346,1109v-14q120.487-6.495,241-13v-1q-3.5-3.495-7-7-62.994-70.995-126-142,1-6.5,2-13l10,9q76.493,81.991,153,164c-0.383,4.95-.136,4.79-3,7-18.313,9.66-67.475.35-92,4ZM447,923c10.636,11.83-10.587,33.77-15,40-19.006,26.835-38.217,54.51-56,83q-12.5,20.505-25,41c-1.333-.33-2.667-0.67-4-1-0.333-.67-0.667-1.33-1-2q10.5-19.5,21-39C392.674,1001.24,420.534,964.29,447,923Zm937,6,178,11c-0.33.667-.67,1.333-1,2-31.49,13.028-122.79-.645-166-1q7.5,30,15,60c-2.67.33-5.33,0.67-8,1C1398.15,988.8,1379.38,938.355,1384,929Zm1002,24-241,14q4.005,4,8,8,62.49,70.5,125,141-1.005,6.495-2,13-4.005-3.495-8-7-56.49-61.5-113-123c-9.38-9.746-41.7-37.124-41-50,0.67-.333,1.33-0.667,2-1l270-9v14Zm-1217-9c24.43,8.158,99.8,94.88,117,118,0.67-.33,1.33-0.67,2-1q15.495-25.5,31-51c2,1.33,4,2.67,6,4q-18,31.995-36,64h-4q-58.5-66-117-132C1168.33,945.333,1168.67,944.667,1169,944Zm322,5h12l12,13c-0.33.667-.67,1.333-1,2-19.08,5.708-32.38,8.63-43,23q-14.505-12.5-29-25h-1q-6.495,12-13,24-5.505-3.5-11-7v-3q12-12.5,24-25,13.005,10,26,20h2Q1480,960,1491,949Zm559,3,33,1c1.32,25.946-46.76,15.86-73,17l-230,4c4.29,13.008,19.98,21.065,28,31q45.495,48.99,91,98c12.57,15.57,29.44,20.63,32,47-19.04-6.82-31.86-35.56-47-48q-63.495-67.5-127-135c0.33-2.333.67-4.667,1-7Zm48,4c10.37,12.545-21.22,46.38-27,53q-60,72.99-120,146c-2.33.33-4.67,0.67-7,1-0.33-1-.67-2-1-3,5.8-21.19,32.21-41.37,45-58Q2042.99,1025.505,2098,956Zm96,15c0.33,3.666.67,7.334,1,11l74-2q-0.495,26-1,52,9-1.005,18-2,4.005-24.5,8-49l57-8c0.33-3.666.67-7.334,1-11l11-1c0.33,1,.67,2,1,3l-3,21-29,4c0.28,11.02.13,37.92-6,44-6.52,2.74-21.29.18-26,5-3.45,9.18-1.17,23.14-5,31q-16.995,1.995-34,4c-0.67-.33-1.33-0.67-2-1q-1.995-16.005-4-32-13.995-.495-28-1c-0.24-8.25-.16-31-5-36q-16.995-1-34-2c-6.26-5.5-10.66-17.929-7-30h13Zm186-10h3c1.33,1,2.67,2,4,3-23.43,45.94-50.66,86.87-79,127q-12,16.995-24,34h-1c-0.53-28.04,20.07-42.23,32-59Q2347.49,1013.5,2380,961ZM913,1040q0.5,13.995,1,28c-3.666-.33-7.334-0.67-11-1-0.667-3.33-1.333-6.67-2-10H830c-1.667-1.67-3.333-3.33-5-5,3.3-12.15-1.386-37.03-5-49q-12,.5-24,1,1.5,24.99,3,50c-1,.33-2,0.67-3,1-8.238,5.82-55.675,3.41-69,5,0.138,5.53-.459,8.88-2,12q-6.5-.495-13-1c-0.474-9.08-3.287-21.76,2-27q17.5-1.005,35-2c-0.367-15.09-1.548-35.99,4-46l34-1q0.5-16,1-32h41q2.5,16,5,32l28,1q3.5,22,7,44h44Zm330-64h23q1.005,19,2,38,13.5-4,27-8l1,1q1.005,6,2,12c-1,.67-2,1.33-3,2q-17.505.5-35,1l-3-33c-9.91.406-28.72,1.986-34-3l-6-4q-0.495-10-1-20h3l24,9v5Zm434,2c0.41,7.682,3.57,22.15-1,27q-15,1-30,2v44q-16.005.495-32,1,0.495,13.5,1,27c-1,.33-2,0.67-3,1l-28-3c0.35-7.57,1.81-22.95-2-27l-30-3q-1.995-19.5-4-39-19.5-2.5-39-5l-3-24q4.005-2,8-4l4,1q1.995,9,4,18l60,3q4.5,23.5,9,47h11c1.67-.33,3.33-0.67,5-1v-11c-2.4-8.01-3.42-31.75-1-36l54-3q-0.495-9-1-18h-60l-77-2c0.9-5.48,2.57-7.458,5-11l132,2c14.59,1.245,43.88-5.183,54,2-0.67.667-1.33,1.333-2,2q-3.495,5-7,10h-27Zm649,162c-0.35-10.14-3.19-36.61,3-41q18-4.995,36-10v-11q-1.5-13.005-3-26c4.13-5.53,19.17-9.87,25-10q-0.495,33-1,66l-42,12v16q21-3.495,42-7c0.14,4.21,1.94,5.82-1,7-19.26,9.8-131.53,30.61-161,23v-9h3q16.005-.495,32-1v-1l-12-12q-71.49-76.995-143-154l3-19,3,1q83.49,89.985,167,180c1-.67,2-1.33,3-2q23.505-30.99,47-62,28.995-46.5,58-93c0.67,0.333,1.33.667,2,1-0.2,18.6-15.65,31.94-23,45-22.83,40.56-49.68,74.14-74,112Q2308,1142.495,2326,1140ZM1720,964l11,3c0.33,1,.67,2,1,3q-58.995,81.99-118,164c-10.14.05-9.55-2.9-16-8q-60.495-66.99-121-134c2.51-3.518,4.18-5.574,9-7q61.5,67.995,123,136h1Q1664.99,1042.505,1720,964Zm-540,37q1.995,19.5,4,39,19.5,2.505,39,5l3,24c-2.67,1.33-5.33,2.67-8,4-1.33-.33-2.67-0.67-4-1-2.8-32.91-37.01-14.5-64-21q-4.5-23.505-9-47-7.995.5-16,1c0.31,13.79,4.89,38.05,1,47l-54,3q0.495,9,1,18,68.49,1.005,137,2a19.95,19.95,0,0,1-5,11q-66.495-1.005-133-2c-13.67-.08-43.79,4.51-53-2l9-12h27c-0.38-7.95-3.47-22.25,1-27q15-1.005,30-2c-0.35-11.13-4.26-39.53,2-44l30-1q-0.495-13.5-1-27h2c5.43-1.895,23.41-.148,29,2-0.35,7.569-1.81,22.952,2,27Zm263-32c16.3,8,29.89,30.174,41,44l80,89c-0.33.67-.67,1.33-1,2h-1c-26.07-13.27-44.42-38.21-62-60q-27-28.995-54-58c-0.67.333-1.33,0.667-2,1-3.16,8.288-26.26,48.68-33,51l-4-4v-1Q1425,1001,1443,969Zm302,0q87.495,92.985,175,186v1c-26.31-.18-38.49-26.96-52-41q-60.99-63-122-126l-3,2q-48.99,66.495-98,133c-4.59-1.28-5.61-2.78-8-6q35.49-49.995,71-100C1719.23,1002.19,1728.88,979.8,1745,969ZM537,1066q-37,1.005-74,2,0.5-25.995,1-52c-7.1-.22-13.408.25-18,2l-8,49q-28.5,4.005-57,8c0.084,5.3-.525,8.02-2,11-6.052.33-7.209,0.72-11-1q1-10.5,2-21,15-2.505,30-5c-0.222-11.02-.1-37.79,6-44,6.444-2.91,21.161-.24,26-5,3.449-9.18,1.169-23.14,5-31l36-4q2,16.5,4,33,14,0.5,28,1l3,36c23.432,1.46,31.969-2.06,44,12q-0.5,10.005-1,20-6.5-.495-13-1Zm1519-91,11,1v1q-45.495,60-91,120c-10.49,13.9-22.55,40.84-38,49v-2c-1.97-3.85-3.14-13.42-1-18Q1996.49,1050.505,2056,975Zm-709,1c8.88,1.744,29.4,11.779,31,21-0.33,1-.67,2-1,3-8.1.75-19.98-8.5-27-13Zm598,77q-0.495,16.005-1,32h-41q-2.505-16.005-5-32-13.995-1.005-28-2-3.495-21.495-7-43-22.005-.5-44-1-0.495-13.5-1-27h7l5,2c0.33,3,.67,6,1,9h71c1.67,1.667,3.33,3.333,5,5-3.22,11.87,1.4,37.06,5,49q12-.495,24-1-1.5-24.99-3-50l3-1c7.16-5.08,56.85-4.329,69-5-0.14-5.533.46-8.88,2-12l13,1c0.51,8.922,3.3,21.75-2,27q-17.505,1-35,2c0.37,15.19,1.57,35.96-4,46Q1962.005,1052.495,1945,1053Zm-559-76c4.78,3.529,11.74,30.73,9,34l-2,2c-1.67.33-3.33,0.67-5,1C1385.16,998.569,1379.33,990.454,1386,977Zm-35,16c3.47,2.229,3.71,3.687,6,7-0.33.67-.67,1.33-1,2q-13.995,3.5-28,7-4.5-2.5-9-5c0.33-.67.67-1.33,1-2Zm60,12h3c-1.74,8.88-11.78,29.4-21,31-1.33-.67-2.67-1.33-4-2C1392.15,1020.81,1400.28,1011.21,1411,1005Zm-77,7c2.67,0.33,5.33.67,8,1,0.33,0.67.67,1.33,1,2-4.19,11.9-10.63,25.73-25,28Q1326,1027.505,1334,1012Zm155,60q-11.505-.495-23-1-1.005-18.495-2-37-13.5,4.005-27,8l-1-1q-1.005-6-2-12c1-.67,2-1.33,3-2q17.505-.495,35-1l3,33c10.06-.41,28.75-2.09,34,3q3.495,3,7,6v18h-3C1505.39,1083.4,1490.68,1080.84,1489,1072Zm635-47q1.005,19.005,2,38c13.45-.41,36.15-4.37,42,2h2l3,48c19.07-.5,40.96-5.2,50,5-1.07,9.03-.47,37.4-7,42q-7.005,1.005-14,2v-26c-20.67.42-55.86,9.29-70,0q-0.495-28.995-1-58l-52,3-3,57q-30.495,3.495-61,7v6c-8.84.36-17.59,2.05-24-1q-1.005-15-2-30,24-3.495,48-7v-42l34-3c-0.41-10.51-5.45-34.15,1-39Q2098,1027.005,2124,1025Zm-353,42q20.505,0.495,41,1,4.5,3.495,9,7,0.495,22.995,1,46c14.74-.37,40.42-1.12,46,6,1.33,1,2.67,2,4,3q-2.505,13.005-5,26c-6.24.42-12.17,1.55-15-1q-0.495-6.495-1-13c-15.57.29-51,6.96-62-1-6.41-6.12-3.08-45.55-6-57q-27.495,1.005-55,2,1.995,25.5,4,51l-1,1h-52q1.005,5.505,2,11l-16-3q-3.495-15-7-30l3-3q16.995-1.005,34-2-1.005-20.505-2-41,15.495-1.005,31-2c-0.37-12.28-5.3-25.56-1-35l47-3Q1770.5,1048.495,1771,1067Zm-429-34c5,5.76,8.27,19.8,9,29q-2.505,4.5-5,9c-0.67-.33-1.33-0.67-2-1-2.26-9.19-9.85-24.16-7-33C1338.66,1034.68,1339.78,1034.63,1342,1033Zm58,6c6.58,0.46,8.88,2.41,13,5-0.33.67-.67,1.33-1,2-9.07,2.27-24.19,9.85-33,7l-2-2c-0.33-1.67-.67-3.33-1-5Q1388,1042.505,1400,1039Zm55,1c4.01,0.58,2.99-.05,5,2q-1.005,24.495-2,49-4.005,64.5-8,129c-0.67-.33-1.33-0.67-2-1-14.01-37.97.63-118.2,1-166l-60,15c-0.33-2.67-.67-5.33-1-8Q1421.5,1049.995,1455,1040Zm-131,6h6c4.31,14.51,22.68,61.4,18,73q-88.995-5.505-178-11v-1c25.7-14.02,127.09-.38,167,0C1333.46,1095.82,1321.02,1052.48,1324,1046Zm32,1c12.48,2.83,26.88,11.06,29,25-8.83-1.96-29.32-11.78-31-21C1354.67,1049.67,1355.33,1048.33,1356,1047Zm-95,14q15,12.495,30,25,6.495-12,13-24l11,8v2q-12,12.495-24,25l-26-20h-2q-11.505,10.995-23,22h-11q-6-6.495-12-13c0.33-.67.67-1.33,1-2C1237,1078.31,1250.42,1075.32,1261,1061Zm94,4,66,36v1q-66.495,60-133,120c-0.67-.33-1.33-0.67-2-1v-1c13.47-26.46,38.89-45.16,61-63q28.5-26.49,57-53c-0.33-.67-0.67-1.33-1-2l-51-30v-3C1353,1067.67,1354,1066.33,1355,1065Zm56,10c9.93,2.98,22.26,16.19,28,24l-20,26v2q10.995,11.505,22,23v11q-6.495,6-13,12c-0.67-.33-1.33-0.67-2-1-5.63-19.11-8.65-32.4-23-43v-1q12.495-14.505,25-29-12-6.495-24-13Q1407.5,1080.495,1411,1075Zm58,189q95.985-15.495,192-31c1.44,5.1,2.59,6.89,2,12q-74.49,12-149,24c-13.46,2.7-47.64,10.81-54,4h-2q4.995-96.99,10-194c3.33,0.33,6.67.67,10,1v1Q1473.5,1172.485,1469,1264Zm27-173,10,3c0.33,1.33.67,2.67,1,4-10.85,15.94-7.95,21.59,8,33,4.04,7.81,24.29,21.16,21,28q-12.495,19.005-25,38c1.33,1.67,2.67,3.33,4,5q3.495,3,7,6,4.995-4.5,10-9,10.005-12.495,20-25h4q19.995,18,40,36c0.67-.33,1.33-0.67,2-1q4.5-7.005,9-14c-13.8-10.37-89.86-85.34-94-98l11-3q64.5,66.495,129,133c-0.33.67-.67,1.33-1,2q-6.495,1.005-13,2l-22-19-16,19h-1q-11.505-10.5-23-21-16.005,15.495-32,31l-4-4q-9.495-9-19-18c-1.67,1.33-3.33,2.67-5,4-2.41,5.63-8.48,13.37-15,15-6.69-4.89-17.25-14.58-19-24,6.25-4.34,17.49-13.25,18-20l-19-22c5.03-8.01,26.74-25.74,21-33q-10.5-14.505-21-29Q1489.005,1100.505,1496,1091Zm-178,56v-23q19.005-1.005,38-2v-3q-4.005-12-8-24l1-1q6-1.005,12-2c0.67,1,1.33,2,2,3q0.495,17.505,1,35l-33,3c0.41,10.03,2.06,28.72-3,34-1.33,2-2.67,4-4,6q-10.005.495-20,1v-3C1306.6,1163.39,1309.16,1148.68,1318,1147Zm-185-53c11.58-.35,26.94-1.23,34,3q-4.005,4.5-8,9-4.5,3.495-9,7c-15.43-4.53-37.83-4.85-47,2q-12.495-6-25-12c-6.45,9.3-15.57,24.89-31,25-3.33.33-6.67,0.67-10,1-6.06-9.36-21.17-18.5-31-24q-9.5,12.495-19,25c-34.926.48-40.976-19.02-68-21q-12,10.995-24,22-15-.495-30-1-14.5-13.005-29-26c0.333-.67.667-1.33,1-2Q984.986,1097.995,1133,1094Zm-303,10v9c-14.034,8.26-32.48,37.64-63,26q-15-13.005-30-26-22.5,14.505-45,29c-24.915,7.92-49.57-19.87-58-31,1.278-3.19-.3-2.28,2-4Zm-357,12q76.992-4.005,154-8v3c3,9.75-.259,11.12-5,17l-17,15c-23.107.49-32.13-12.85-46-22-19.156,10.31-29.151,24.08-59,24l-27-24v-5Zm1085-3q11.505,0.495,23,1c13.01,11.31,16.12,28.13,37,32q3,12.495,6,25c20.1-.45,34.51-4.5,43,7,2,1.67,4,3.33,6,5q2.505,19.5,5,39c8.38-1.31,27.09-6.47,32-3,19.11,9.26,21.21,38.53,29,59q18.495,1.995,37,4c6.99,11.29,33.41,36.5,20,61q-85.485-81.495-171-163C1608.54,1166.71,1565.08,1132.13,1558,1113Zm-1117,3c8.906-.31,21.908-0.75,25,2q-1,5.505-2,11c-15.9,1.82-22.46,18.43-47,20l-30-24c-1.333,1.33-2.667,2.67-4,4q-13,10.995-26,22c-3.666-.33-7.334-0.67-11-1q-1.5-15.495-3-31Zm676,0q96.99,4.995,194,10c-0.33,3.33-.67,6.67-1,10h-1l-184-9q16.005,95.985,32,192l-9,3c-1-.67-2-1.33-3-2q-15.495-99.99-31-200C1115,1118.67,1116,1117.33,1117,1116Zm515,10c14.51,2.3,44.08,41.08,55,52l140,128-6,9-3-3q-94.995-89.985-190-180v-3C1629.33,1128,1630.67,1127,1632,1126Zm-568,7q21,0.495,42,1c-0.67,3-1.33,6-2,9q-63,.495-126,1-19.5,1.005-39,2-20,1.005-40,2c-6.941,2.45-58,1-58,1l-3-9h2Q951.988,1136.505,1064,1133Zm333,2c4.4,1.87,6.62,4,8,9l-136,124q78.495,55.5,157,111-1.5,4.995-3,10c-0.67.33-1.33,0.67-2,1q-82.485-58.995-165-118c0.36-15.71,21.03-27.18,32-36Q1342.5,1185.51,1397,1135Zm-180,5q15.495,12,31,24,16.005-12,32-24,9.495,7.5,19,15l-3,9c-0.67.33-1.33,0.67-2,1-19.85-7.31-18.76-14.03-34,7-7.96,4.11-22.1,25.31-29,22q-19.005-12.495-38-25c-1.67,1.33-3.33,2.67-5,4q-3,3.495-6,7,4.005,4.5,8,9,13.005,10.5,26,21v4c-12.19,6.39-29.08,29.08-36,41l13,10,2-2q41.49-39.495,83-79c5.41-4.37,7.45-10.5,15-13q1.5,5.505,3,11-66.495,64.5-133,129c-0.67-.33-1.33-0.67-2-1q-1.005-6.495-2-13,9.495-10.5,19-21-9.495-9-19-18,10.5-11.505,21-23-15.495-16.005-31-32,10.995-11.505,22-23c-1.33-1.67-2.67-3.33-4-5q-7.5-6.495-15-13v-3l21-18c8.39,2.56,15.35,12.48,20,19Q1205,1149.995,1217,1140Zm-387,1q-0.5,5.505-1,11l-264,6q-1-4.5-2-9c0.667-.67,1.333-1.33,2-2q31.5-.495,63-1h60Q758.993,1143.495,830,1141Zm1553,4c1.67,0.33,3.33.67,5,1v8h-2c-19.56,10.96-55.4,15.02-81,17l-1-1c0.33-3,.67-6,1-9C2329.5,1160.4,2364.41,1155.12,2383,1145Zm-1845,2h18l3,12-156,6c-9.426,1.46-53.129,2.36-57-1-0.667-2.67-1.333-5.33-2-8Zm511,1c2.67,0.67,5.33,1.33,8,2l-4,4c-7.65,16.78-63.356,61.6-80,75q-49.5,45.99-99,92c-17.327,23.53-39.793,49.43-63,67h-2l-4-6C883.415,1300.61,967.609,1226.42,1049,1148Zm60,1,21,129c2.43,11.82,12,41.98,7,51-0.67,1-1.33,2-2,3l-254-9v-1l2-3c18.7-8.76,49.865-5.03,77-5q81.5,1.995,163,4v-1q-12-83.985-24-168h10Zm-42,1c9.31,1.3,26.3,10.67,28,20l-23,26q15,12.495,30,25-10.005,12.495-20,25c1.33,1.67,2.67,3.33,4,5,7.34,3.06,17.03,10.35,21,17q-14.505,18.495-29,37c-11.82-3.73-19.46-17.94-29-25-12.77,9.92-20.66,28.37-42,29q-15.5-15.495-31-31-16.5,14.505-33,29c-6.628.11-8.457-.78-12-3q-6-10.005-12-20,5-4.995,10-10l11,9c16.079-12.46,26.061-36.14,46-44q20.5,18.495,41,37h2l37-40q-4.995-5.505-10-11-13.995-11.505-28-23,18-19.005,36-38l-9-6c0.33-.67.67-1.33,1-2Q1061.505,1153,1067,1150Zm1122,1h8q-1.005,6-2,12-84.99,1.995-170,4c-0.33-2.33-.67-4.67-1-7Zm-1345,8q65.493-2.505,131-5,25-.495,50-1-3.5,5.505-7,11-43.5,2.505-87,5c0.333,0.67.667,1.33,1,2q37,1.995,74,4c-1.53,5.15-4.16,6.43-8,9l-153-6Q844.5,1168.505,844,1159Zm837-7q116.49,4.995,233,10c29.75,3.44,71.39-8,102-3,1.03,3.66.29,5.58-1,9-46.64.3-99.29,4.27-143-1-36.7-4.43-74.36,2.13-108-3-17.81-2.72-80.96,2.22-88-7-0.67-1-1.33-2-2-3v-1C1676.33,1152.67,1678.67,1152.33,1681,1152ZM569,1166q95.991-1.995,192-4c12.893,0,62.278-4.81,69,1q1.5,7.005,3,14c-0.333.33-.667,0.67-1,1q-91.99.495-184,1c-22.091,0-60.322,5.93-78-2Q569.5,1171.495,569,1166Zm1718-4c3.33,0.33,6.67.67,10,1v10q-91.485,4.995-183,10c-20.87,3.24-68.84,9.22-89,4,0.33-3.67.67-7.33,1-11,59.92,0.48,124.33.41,179-8Zm98,1c1.33,0.67,2.67,1.33,4,2q-0.495,7.5-1,15c-16.89,7.24-39.55,10.92-60,14l-1-1c0.33-3.67.67-7.33,1-11,8.11-9.84,19.53-16.41,37-17q4.995,4.5,10,9,4.5-4.005,9-8C2384.33,1165,2384.67,1164,2385,1163Zm-988,155q9-.495,18-1,1.005-68.49,2-137a19.95,19.95,0,0,1,11,5q-1.005,66-2,132c-1.25,14.58,5.19,43.89-2,54l-2-2-10-7v-27c-7.95.38-22.25,3.47-27-1q-1.005-15-2-30h-44q-0.495-16.005-1-32-12,1.005-24,2c-1.33-1-2.67-2-4-3,0.91-9.88.15-24,5-30,5.31,1.7,21.35,2.56,25-1l3-30q19.5-1.995,39-4,2.505-19.5,5-39l24-3c1.33,2.67,2.67,5.33,4,8-0.33,1.33-.67,2.67-1,4q-9,1.995-18,4l-3,60-47,9v11c0.33,1.67.67,3.33,1,5h10c8.18-2.45,32.53-3.54,37-1ZM559,1165q0.5,7.005,1,14l-137,12-79,18q1-6,2-12,18-5.505,36-11H347q1-6.495,2-13Q453.99,1168.995,559,1165Zm1169,5c18.1,0.58,26.51,17.48,35,28q39.99,42.495,80,85-6,7.005-12,14h-2l-131-122v-1c33.73-4.44,53.91,49.73,79,54l-5-5-45-51C1727.33,1171.33,1727.67,1170.67,1728,1170Zm287,5q-0.495,6-1,12l-258-3c-1.75-5.25-4.43-7.64,0-11h69Q1920,1174.005,2015,1175Zm262,2c20.19-.71,33.82,1.06,43,11-0.33,2.67-.67,5.33-1,8q-69.495,7.995-139,16-33,.495-66,1c-17.29,2.65-79.22,7.07-90,1q1.005-10.5,2-21c22.5-.55,26.67,5,41,13,37.31-21.2,48.2-20.94,89-2,28.92-26.32,50.28-22.54,86-7Q2259.505,1186.995,2277,1177Zm-1511,9q73.992,4.005,148,8v1q-3,4.005-6,8c-5.142-1.86-6.286-3.98-10-2q-10,6.495-20,13c-28.513,9.48-48.1-12.42-65-17-11.272-3.06-24.491,11.09-32,14q-14.5,1.005-29,2-17-7.995-34-16c-8.933,7.5-30.582,20.95-52,14-7.674-2.49-16.636-14.35-23-12l-21,15c-26.882,8.72-51.158-10.88-66-20,0.333-.67.667-1.33,1-2Zm172,0c7.234,0.03,20.471.5,25,4-9.49,11.98-24.019,16.62-41,21-1.309,39.17-33.3,52.79-65,61-6.295,36.42-28.148,56.29-64,64q-3,14.505-6,29-7.5-7.005-15-14c-0.667-1.33-1.333-2.67-2-4Zm38,1q5,2.505,10,5c-10.452,21.54-49.03,52.69-68,68L801,1375h-2q-3-3.495-6-7v-2Zm800,3c12.8,1.09,29.21,17.98,38,13l18-12c31.7-10.08,48.77,15.18,68,17q14.505-6.495,29-13c26.39-8.07,48.45,4.62,62,13q13.005-7.5,26-15v22c-0.67,1-1.33,2-2,3q-85.995-2.505-172-5c-34.73-4.07-66.1,7.67-75-22C1770.67,1190.67,1773.33,1190.33,1776,1190Zm366,41c-0.65-6.4-2.04-9.04,2-12l75-3q28.995-1.005,58-2,24-5.505,48-11,29.49-5.505,59-11c1,0.67,2,1.33,3,2-0.67,3.33-1.33,6.67-2,10l-21,6v1h22v14ZM534,1195h11c2.329,2.89,3.539,2.82,5,7l-24,18c-27.335.47-37.794-6.82-56-11-12.668,9.7-29.978,16.18-49,19-15.032,2.23-23.235-13.66-32-9-10.523,5.27-22.246,25.81-40,19l-5-3v-18l48-9q38.5-3.495,77-7Zm741,21c3.68,3.73,2.27,17.61,1,23-11.61,12.32-28.23,16.56-32,37l-25,6q0.495,18,1,36l-13,13c-10.26-2.48-28.48,2.51-39,5,1.31,8.36,6.55,26.98,3,32-8.66,17.12-37.25,23.28-58,28-3.87,8.88-.97,25.97-5,36q-10.995,10.5-22,21c-12.11.43-30.1,5.87-39,1q69.495-72.99,139-146C1206.05,1283.18,1249.31,1232.61,1275,1216Zm-660,1q77.993,0.495,156,1c38.032,0,81.687-1.82,115,3,0.333,0.67.667,1.33,1,2-0.333,1.33-.667,2.67-1,4q-107.488,1.005-215,2c-22.28,0-61.731,8.52-69-9v-1h2Q609.5,1217.995,615,1217Zm1517,14q-88.485,2.505-177,5c-18.42,2.77-61.14,7.49-76,1q-2.505-5.505-5-11,127.98-4.005,256-8C2132.61,1222.78,2132.6,1223.84,2132,1231ZM578,1219q6,0.495,12,1l3,9q-78.991,4.995-158,10-43.995,7.005-88,14,0.5-4.5,1-9l60-12q41.5-3.495,83-7Zm1270,1c21.01,8.18,35.03,36.29,52,50q74.49,73.5,149,147-2.505,4.5-5,9c-23.22-13.61-54.9-49.82-72-71-37.69-46.69-94.46-79.62-127-131C1846,1222.67,1847,1221.33,1848,1220Zm-37,1h6q1.995,4.5,4,9c51.52,10.43,39.4,31.71,62,67,37.13,6.09,54.21,25.83,62,62,33.16,10.31,46.79,16.78,54,53,41.51,3.23,54,27.71,60,65-18.29-6.02-55.61-53.96-73-68-43.42-35.07-89.03-78.55-124-122l-56-62v-1c0.33-.67.67-1.33,1-2C1808.33,1221.67,1809.67,1221.33,1811,1221Zm-372,2q7.995,9,16,18c-4.92,16.76-4.59,38.3,3,48q-6.495,11.505-13,23c13.92,9.56,26.55,17.3,26,42-9.3,3.9-19.19,21.35-24,30,0.67,1,1.33,2,2,3q11.505,7.995,23,16c0.48,34.93-19.02,40.98-21,68q10.995,12,22,24-0.495,15-1,30-12.495,14.505-25,29h-2l-1-1q-4.005-163.485-8-327Zm943,9h2v12q-91.995,1.995-184,4c-0.67-3-1.33-6-2-9l1-1Zm-1726,3q65.994,0.495,132,1c13.013,0,41.315-4.14,50,2-0.667.67-1.333,1.33-2,2-1,1.67-2,3.33-3,5H805q6,7.005,12,14c-0.667,1.67-1.333,3.33-2,5l-6,3c-1.333-1.33-2.667-2.67-4-4l-21-18c-2,.33-4,0.67-6,1-15.148,8.06-19.179,37.19-39,39-2.333-.33-4.667-0.67-7-1,3.809-15.03,22.208-27.37,31-39H652c-12.7,0-31.724,2.18-41-2l1-7Q634,1235.505,656,1235Zm194,1,14,3L688,1427c-2-.67-4-1.33-6-2-1-1.67-2-3.33-3-5v-3Q764.491,1326.505,850,1236Zm1102,24q115.485-12,231-24l8,8v3q-90.99,11.505-182,23c-20.35,3.74-48,10.09-68,6q0.495-16.005,1-32h9v3Q1951.5,1253.495,1952,1260ZM588,1237h10v2l1,7c-65.605,1.22-135.539,5.97-194,17-10.668,2.01-56.443,8.34-60,4-0.4-2.9-1.137-1.65,1-4,10.675-9.48,38.638-7.01,55-10,40.723-7.44,88.868-6.18,134-13Zm1309,7q10.995,10.005,22,20h1c-0.37-6.22-1.01-15.88,2-19,3.33,0.33,6.67.67,10,1q1.005,16.5,2,33l5,5q25.995-2.505,52-5,3,4.005,6,8c-1.26,3.02.02,1.2-2,3q-22.995,1.995-46,4,52.995,53.49,106,107c-1.67,2-3.33,4-5,6h-2q-78.99-79.485-158-159c0.67-1,1.33-2,2-3C1893.67,1244.67,1895.33,1244.33,1897,1244Zm485,5c1.33,0.67,2.67,1.33,4,2q0.495,13.995,1,28c-65.25.53-135.51,18.04-166-22,1.33-1.67,2.67-3.33,4-5q10.995,0.495,22,1,12,10.005,24,20c15.54-2.71,23.08-18.5,36-23q13.995,0.495,28,1,11.505,9.495,23,19C2366.66,1263.98,2375.73,1257.44,2382,1249ZM675,1289q0.5,22.005,1,44-17.5,1.995-35,4,1,18.495,2,37c-13.282.55-45.625,8.9-54,3-5.173-5.38-4.629-26.93-5-36q-21.5.495-43,1,0.5-25.5,1-51-24.5,1.005-49,2l-4-6q2.5-14.505,5-29c5.812-.5,10.829-2.03,14,1q0.5,4.5,1,9,34-.495,68-1,2.5,28.995,5,58,25.5-1.005,51-2,1-28.995,2-58,29.5-2.505,59-5v-9c1.333-.33,2.667-0.67,4-1q12,1.005,24,2c0.345,8.25,2.214,26.48-2,31Zm816-8,129-21c11.82-2.43,41.98-12,51-7l3,3q-4.995,126.48-10,253c-1-.67-2-1.33-3-2-8.75-18.69-7.97-61.54-4-88q1.5-75.99,3-152h-1q-83.985,12-168,24v-10Zm-711-29q11.5,11.505,23,23-3,3.495-6,7-6-4.995-12-10-73.493,89.985-147,180H626c-0.333-.67-0.667-1.33-1-2q27.5-35.49,55-71C712.608,1335.82,745.222,1292.84,780,1252Zm1407,3q6,0.495,12,1c0.33,1,.67,2,1,3,2.99,7.35-2.54,97.31-6,102q-6-2.505-12-5c-5.97-24.23,4.12-63.52-3-87q-61.995,6.495-124,13c-13.18,2.24-38.15,8.26-50,3-1-2.33-2-4.67-3-7h2Q2095.485,1266.495,2187,1255Zm-499,1,181,172c8.19,8.16,55.75,48.38,52,55-2.62,2.99-11.36,4.34-16,2q-105.495-101.49-211-203c-0.67.33-1.33,0.67-2,1q-1.995,79.485-4,159c-0.02,25.9,2.72,58.27-12,70h-1q3.495-125.985,7-252C1684,1258.67,1686,1257.33,1688,1256Zm-1238,6h6q47.495,49.5,95,99c-1,.67-2,1.33-3,2q-5.5,1.995-11,4-48.495-51-97-102v-1c0.333-.33.667-0.67,1-1C444,1262.67,447,1262.33,450,1262Zm1763,1c19.55,5.09,31.82,30.34,45,43q65.49,60,131,120-0.495,7.005-1,14-81.495-70.5-163-141h-1q-3,35.49-6,71h-1q-5.505-3.495-11-7c-0.32-25.12-3.48-80.87,5-99C2211.67,1263.67,2212.33,1263.33,2213,1263Zm-1795,4h8q-30,45-60,90c-5.885,8.82-12.736,27.11-23,31v-6c-2.722-12.18,11.45-25.44,17-34C378.378,1319.67,396.881,1292.48,418,1267Zm-49,19c-0.32-5.81-.662-8.41,1-11,2.987-3.53,10.794-3.74,16-2v30c-0.667.67-1.333,1.33-2,2l-38,9c-0.626-7.03-3.742-18.86,0-23Q357.5,1288.495,369,1286Zm62-12h7q44,48.99,88,98v1q-6,1.995-12,4l-81-88-4,3c-8.587,21.69-27.846,42.53-41,61q-22,33-44,66c-0.667-.33-1.333-0.67-2-1v-1C366.18,1360.46,398.2,1320.58,431,1274Zm1178,9h3l35,29c-3.72,11.8-17.84,19.71-25,29l11,11c6.1,12.17,17.42,12.05,18,31l-31,31,3,3q13.005,15,26,30v10q-11.505,7.005-23,14l-10-10c8.17-10.44,9.26-9.77,1-20-12.78-6.04-28.54-24.09-36-36v-1q18.495-20.505,37-41v-2l-40-37c-0.67.33-1.33,0.67-2,1q-15,18.495-30,37c-12.67-4-30.4-25.75-38-36-1,.67-2,1.33-3,2-1.67,2.33-3.33,4.67-5,7-0.67-.33-1.33-0.67-2-1l-6-12c2.52-8.7,10.31-25.17,20-27q12.495,11.505,25,23c0.67-.33,1.33-0.67,2-1q12-14.505,24-29,12.495,10.005,25,20c1.67-1.33,3.33-2.67,5-4Q1601,1293.5,1609,1283Zm-133,1c3,0.67,6,1.33,9,2-0.3,61.5-4.49,128.04,4,184q1.995,39,4,78c-0.33.67-.67,1.33-1,2-3.33.67-6.67,1.33-10,2v-2q-1.005-35.49-2-71-1.5-57.99-3-116Q1476.505,1323.505,1476,1284Zm-219,2c4.45,0.75,4.2,1.25,7,3v6l-70,70q-36.99,39.495-74,79-18,19.995-36,40-4.5-2.505-9-5Q1165.99,1382.505,1257,1286Zm1107,18q-46.995,2.505-94,5l-9-12v-1l1-1,90-6c9.12-.22,27.98-5.19,34,0q0.495,6,1,12c-2.67.33-5.33,0.67-8,1q-2.505,16.005-5,32c-8.07.15-24.4,1.79-28,7q-1.995,15-4,30c-11.53-3.59-28.13-21.7-35-31q1.005-6.495,2-13,27.495-3.495,55-7v-16Zm-240-16c7.59,3.41,40.31,30.34,42,38l-23,26q4.5,4.995,9,10,10.995,10.005,22,20-13.5,13.995-27,28-4.5,4.005-9,8l35,32c-0.33,2.67-.67,5.33-1,8l-23,17-11-8v-3c3.27-2.38,4.65-3.44,6-8l-48-45c6.42-15.57,41.71-38.21,33-51q-16.5-14.505-33-29l-9,9-33,30-46-37q-4.005,2.505-8,5-8.505-9-17-18v-2q10.5-10.995,21-22c1,0.33,2,.67,3,1q17.505,13.5,35,27,15.495-15,31-30l27,21c1.33-1,2.67-2,4-3Q2114.005,1300,2124,1288Zm-1398,3q5,1.005,10,2c-0.667,1.33-1.333,2.67-2,4q-59.495,75.495-119,151h-6c-14.22-18.88-61.011-57.68-67-77q6.5-2.505,13-5,28,28.5,56,57c2,0.67,4,1.33,6,2Q671.5,1358.01,726,1291Zm1125,2c13.61,5.81,23.97,21.97,34,32l102,102c10.73,8.67,47.1,39.22,50,52q-3.495,4.005-7,8-93.99-90.495-188-181Q1846.5,1299.505,1851,1293Zm-580,2c15.82,4.16,29.57,20.16,42,29q53.49,37.995,107,76c-1.39,7.02-8.14,11.4-14,19l-171,159h-1c0.19-23.91,18.87-30.89,31-43l95-92c8.94-8.92,42.97-32.54,38-43q-66-48.495-132-97Q1268.505,1298.995,1271,1295Zm444,18q4.005,3,8,6c-3.31,20.21-.27,12.18,12,28,10.99,5.01,32.87,24.27,33,40-11.61,5.91-24.01,27.08-31,38,4.44,6.15,11.64,13.94,20,16,6.57-10.47,21.36-32.26,33-37,20.38,9.72,35.18,32.53,53,46q4.005-3.495,8-7c1,0.33,2,.67,3,1,3.13,4.01,5.72,4.77,7,11-6.59,5.22-9.99,14.52-20,16-3.21-6.75-21.93-23.34-27-21-13.16,6.49-18.53,24.42-35,27q-12-10.995-24-22c-5.94,4.85-17.97,21.86-24,19q-13.995-13.005-28-26c4.44-10.66,16.82-18.83,18-29-6.47-4.55-16.59-13.72-17-21q12.495-16.5,25-33-15.495-16.005-31-32Zm120,0,192,183q-3,4.005-6,8l-26-26-167-158c1.67-2,3.33-4,5-6C1833.67,1313.67,1834.33,1313.33,1835,1313Zm-556,40c12.7-.94,28.97-5.17,41-2q1.005,15.495,2,31c12.11-.43,25.37-5.41,35-1q1.5,23.505,3,47-18.495.495-37,1-0.495,20.505-1,41-3.495,4.5-7,9-22.995.495-46,1c0.4,16.24,1.15,40.83-7,47-0.67,1-1.33,2-2,3q-13.005-2.505-26-5c-0.42-6.24-1.55-12.17,1-15q6.495-.495,13-1v-63c1-.33,2-0.67,3-1q27.495-1.995,55-4-1.005-27.495-2-55-24.99,1.995-50,4c-0.67-.33-1.33-0.67-2-1q0.495-25.995,1-52-6,1.005-12,2c0.17-5.79,1.77-13.04,5-16,6-3.33,24.33-7.95,28-6,1,0.67,2,1.33,3,2Q1278.005,1336,1279,1353Zm967-29c5.16,2.45,10.3,6.68,8,11q-3,4.995-6,10c0.33,0.67.67,1.33,1,2l51,48c-0.67,2.33-1.33,4.67-2,7q-15,14.505-30,29c0.67,1,1.33,2,2,3l9,6c10.72-4.23,34.45-19.24,40-29,13.47,4,36.37,23.58,45,34h1q5.505-4.5,11-9l10,7q-10.005,9-20,18-13.005-7.5-26-15l-33,27h-4c-4.01-5.25-16.28-16.19-21-14-9.93,3.87-12.96,13.27-25,15h-1l-25-22v-3c19.86-14.85,21.95-27.65,2-42v-3q11.505-12.495,23-25-13.5-15.495-27-31C2230.74,1336.11,2238.92,1330.53,2246,1324Zm139,2h3c0.99,21.57-15.11,48.04-28,60h-2l-5-5Q2369.005,1353.505,2385,1326Zm-1150,6c8.79,9.63-.61,68.8,0,86q-3.495,76.995-7,154c-3.44,29.68,8.06,71.43,3,102-0.67.33-1.33,0.67-2,1-2.33-.67-4.67-1.33-7-2-0.27-46.69-4.28-99.25,1-143,4.43-36.7-2.13-74.36,3-108C1229.91,1396.36,1219.51,1346.81,1235,1332Zm-779,34q14,0.495,28,1,1,18,2,36,20,1.005,40,2l5,6v24H518c-0.93-19.44-19.719-14.9-39-14-10.422,3.05-31.577,1.71-38-1v-47h-1l-15,3q-4,24.99-8,50l-55,6q-1,7.995-2,16H348c0.18-10.35.7-21.64,4-28l27-6q2.5-22.005,5-44l27-3q2.5-14.505,5-29c5.491-5.47,26.855-5.21,37-5Zm422-33q125.988,3.495,252,7c2.65,4.84,4.6,5.21,1,9q-108.495,114.99-217,230h-9v-16q101.49-105.495,203-211c-0.33-.67-0.67-1.33-1-2q-88.995-2.505-178-5C906.192,1341.55,886.64,1350.08,878,1333Zm614,0c18.19,13.12,33,31.64,47,49l93,102,98,95v2c-1.67,1.33-3.33,2.67-5,4-17.2-10.16-29.2-28.2-43-42-44.01-44.02-90.75-86.33-130-135-18.36-22.77-48.94-42.14-62-69C1490.67,1337,1491.33,1335,1492,1333Zm-629,7c1.667,0.33,3.333.67,5,1l20,179c2.442,14.24,11.568,58.6,7,71-0.667-.33-1.333-0.67-2-1q-5.5-9-11-18-7.5-80.985-15-162C863.794,1390.39,856.984,1356.31,863,1340Zm945,0c26.16,6.93,54.49,3.37,63,27q1.995,19.995,4,40c38.74,2.91,61.32,7.16,68,45,1.71,9.67,4.7,22.17,0,30h-3q-69-67.995-138-136Zm-933,2c7.022,3.3,10.293,8.58,16,13q10.5,96.495,21,193-4.5,2.505-9,5Q889,1447.505,875,1342Zm-113,13h3q7.5,7.995,15,16c-9.244,12.47-21,16.01-39,20-3.3,39.96-28.118,54.45-61,64-1.7,25.71-10.353,47.74-28,57-9.229,4.84-22.277,2.91-28,11-14.522,29.35-8.73,54.75-48,60l-5-6c40.742-63.31,97.494-114.38,144-172Q738.5,1380.01,762,1355Zm294,1,21,18q-3,3.495-6,7c-20.33-3.67-13.21.73-29,13-4.92,10.81-23.5,31.88-39,32-5.915-11.66-27.052-24-38-31-6.366,4.58-13.941,11.18-16,20,10.328,5.79,32.494,21.9,37,33q-23,26.49-46,53,3.5,4.005,7,8-0.5,1.5-1,3c-4.009,3.13-4.766,5.72-11,7-5.167-6.52-14.512-10.17-16-20q11.5-12.495,23-25c-7.618-12.68-26.447-20.55-29-37,8.2-5.71,25.574-21.73,17-29q-8-8.505-16-17,14-15,28-30,13,9.495,26,19c6.1-4.27,18.026-20.38,24-17C1028.38,1378.99,1021.11,1402.72,1056,1356Zm158,0c3.03,2.68,4.46,7.91,5,13q-28.995,32.49-58,65c14.79-4.54,45.24-37.49,57-49,0.67,0.33,1.33.67,2,1-0.61,17.73-16.7,25.69-27,34q-42.99,40.5-86,81-7.005-6-14-12v-2Q1153.495,1421.51,1214,1356Zm1171,1c11.17,7.91-10.98,35.52-15,41-1.67-1.33-3.33-2.67-5-4v-4Q2375.005,1373.5,2385,1357Zm-204,4q7.005,3.495,14,7-2.505,70.5-5,141l-2-2q-4.995-4.005-10-8Zm-680,185q-3-90.495-6-181,5.505,3.495,11,7,2.505,43.5,5,87h1l1-1q2.505-37.5,5-75c1.67,1.33,3.33,2.67,5,4,1,1.67,2,3.33,3,5q-3,76.485-6,153Q1510.505,1545.5,1501,1546Zm706-175q5.505,3,11,6-1.995,60-4,120l154-30c-0.33,1.33-.67,2.67-1,4-34.72,15.37-75.88,20.95-120,30-14.17,2.91-36.56,10.45-48,3Q2203.005,1437.505,2207,1371Zm-1425,4c4.71,1.27,7.382,3.73,10,7-0.667.67-1.333,1.33-2,2l-64,67L611,1584q-4-2.505-8-5c5.289-18.29,38.7-43.71,51-59Q717.993,1447.505,782,1375Zm50,2c11.7,2.69,15.212,13.2,25,18-4.046,14.92-19.519,28.07-28,40q14.5,13.995,29,28v4q-10.5,12.495-21,25l27,24c-2.356,13.91-25.047,34.88-35,43q-14-12.495-28-25-13,14.505-26,29h-8q-17.5-15.495-35-31-7,7.005-14,14c-4.141,9.63-13.04,18.47-26,17-4.66-14.41-20.82-18.84-24-34q4.5-5.505,9-11l18,18,7-6q18.5-21.495,37-43c2.666,0.33,5.334.67,8,1q19,19.005,38,38c12.464-4.18,28.413-27.78,36-38v-2q-19-19.995-38-40,19.5-23.505,39-47c-1.333-2.33-2.667-4.67-4-7Zm-300,1q33.5,35.49,67,71c-0.333,1.33-.667,2.67-1,4l-2,3c-57.816,2.79-115.872-1.75-172,5-25.529,3.07-59.7,4.73-74-6l-1-3,216-15-3-3q-21.5-25.5-43-51c0.333-.67.667-1.33,1-2Zm266,11,6,3c-7.5,23.93-64.267,70.05-82,92-8.959,11.09-21.391,31.41-35,37l-5-9Q739.995,1450.5,798,1389Zm735,15c22.39,7.31,35.1,36.04,52,50q66.495,67.5,133,135v1q-4.005,3.495-8,7h-2q-18.495-18-37-36-46.995-49.5-94-99-24-24.99-48-50C1530.33,1409.33,1531.67,1406.67,1533,1404Zm531,6c18.38,5.91,42.53,38.58,58,51,34.44,27.64,68.34,55.14,104,82q17.505,13.5,35,27c-0.33,2-.67,4-1,6-13.51,2.61-43.36-27.36-54-35-36.64-26.33-66.67-57.29-101-85q-22.5-19.995-45-40C2061.33,1414,2062.67,1412,2064,1410Zm-849,263q-6-.495-12-1,1.5-128.985,3-258l10-3c0.33,1,.67,2,1,3v69Q1215.995,1578,1215,1673Zm207-258c2.67,0.33,5.33.67,8,1q2.505,105.99,5,212,1.005,55.995,2,112c-2,.67-4,1.33-6,2l-11-11v-67q-1.995-112.995-4-226c-15.06,4.97-30.23,26.25-41,37l-87,81c-15.84,12.79-21.28,30.41-48,33,6.09-18.11,34.61-32.3,47-46Q1354.5,1479.01,1422,1415Zm-226,11h3q0.495,7.005,1,14c-2.26,8.94-17.85,23.39-13,32l12,18c8.78,28.23-10.03,52.91-17,69,6.8,14.97,22.13,39.47,14,67-2.36,8-16.16,18.15-12,26q6.495,11.505,13,23h-21c-1-.33-2-0.67-3-1q2.505-116.49,5-233Zm861,0q58.5,51.495,117,103c23.11,16.48,56.41,31.07,74,53-1.33,2-2.67,4-4,6-23.39-5.52-47.53-31.19-65-45l-125-107Q2055.5,1431.005,2057,1426Zm-1388,1c5.445,1.24,6.413,3.28,10,6v4q-18,19.5-36,39c-24.554,30.42-54.465,53.73-76,88-8.008,12.75-30.193,58.45-43,62q-3-3.495-6-7,5.5-10.995,11-22-8,7.995-16,16-5-4.005-10-8v-3Q585.992,1514.505,669,1427Zm862,0c13.72,6.8,17.97,24.99,22,41,39.01,1.22,53.06,33.27,61,65,35.19,6.04,58.24,27.88,64,64l29,6v1q-9,7.995-18,16-80.49-83.985-161-168Q1529.5,1439.505,1531,1427Zm-916,29c6.346,0.26,8.8,1.39,10,7L500,1596q-4.5-2.505-9-5c5.509-17.08,27.363-28.84,38-42Q572,1502.5,615,1456Zm427,4c4.84,1.41,5.14,2.99,8,6-6.93,26.16-3.37,54.49-27,63q-20,1.995-40,4c-2.825,37.99-7.413,61.97-45,68-9.847,1.58-22.1,4.76-30,0v-3Q974.993,1529,1042,1460Zm-517,2,16,3q-0.5,1.5-1,3l-81,91h-1q-5-4.005-10-8,2.5-4.005,5-8l-19-24c4.022-7.09,16.053-18.6,15-26q-9-12-18-24c0.333-.67.667-1.33,1-2q22-.495,44-1c4.565,2.16,6.672,5.7,9,10q-17,22.005-34,44l11,12c0.667-.33,1.333-0.67,2-1C470.381,1517.43,512.511,1471.44,525,1462Zm-35,89q-1.5,16.995-3,34h-1c-6.817-2.99-19.455-12.79-22-20,30.8-24.17,80.474-112.8,133-101q-0.5,4.5-1,9-7.5,6.495-15,13-16,1.005-32,2C535.5,1527.17,544.663,1550.9,490,1551Zm675-87c3.69,2.32,4.03,5.03,4,11-4.41.91-7.08,1.28-9,5-9.72,32.21-16.65,40.18-46,52l-18,6c-8.15,5.82-6.94,23.87-12,33-10.3,18.6-28.97,26.55-53,32-10.42,33.41-16.95,46.27-53,54-3.247,41.59-27.79,53.84-65,60,6-18.22,53.083-54.77,67-72,35.39-43.82,79.19-89.66,123-125Zm-773,5c3,0.67,6,1.33,9,2l9,39c-1.666-.33-3.334-0.67-5-1C398.192,1499.55,392.875,1483.97,392,1469Zm20,0h4q8,31.5,16,63c-19.724-4.93-19.453-42.91-26-61,0.333-.33.667-0.67,1-1C408.666,1469.67,410.334,1469.33,412,1469Zm933,100q0.495,12.495,1,25l50-3c0.33,1,.67,2,1,3,5.12,7.21,4.32,56.75,5,69h11v15c-9.22.45-21.78,3.26-27-2q-1.005-17.505-2-35c-15.09.37-35.99,1.55-46-4q-0.495-16.995-1-34-16.005-.495-32-1v-41q16.005-2.505,32-5,1.005-13.995,2-28,21.495-3.495,43-7,0.495-22.005,1-44,13.5-.495,27-1c-0.33,3.67-.67,7.33-1,11-3.33.67-6.67,1.33-10,2v71l-5,5Q1369.505,1567,1345,1569Zm191-93q4.5,1.995,9,4c-1.06,6.18-4.05,8.67-2,12q6.495,10.005,13,20c9.71,32.17-14.22,46.33-17,70,6.23,12.52,23.32,38.19,16,61-3.22,10.04-13.17,17.35-16,29,7.38,8.3,21.73,31.89,14,53-2.82,7.69-10.53,12.65-13,22,28.6,29.71,13.93,58.07-4,87-0.67-.33-1.33-0.67-2-1C1533.88,1715.65,1519.33,1588.78,1536,1476Zm532,0c38.43,0.06,53.29,19.75,61,50,17.63,2.93,47.61,14.13,56,27l6,24c6.13,6.56,58.93-1.87,45,21-2.01,5.6-7.59,12.42-12,10-40.01-15.96-88.03-69.07-122-96C2092.18,1504.21,2065.86,1491.12,2068,1476Zm-113,1c22.41-.62,32.58,2.07,44,11-0.05,10.08,2.18,32.59,8,38,25.9,12.2,52,2.69,57,37,1.19,8.14,2.94,20.76,0,27h-3l-112-103Q1952,1482.005,1955,1477Zm-71,1h6q2.505,4.5,5,9-105.495,13.995-211,28v-1q6.495-7.5,13-15Zm160,7q12.495,10.005,25,20,40.5,33.495,81,67,34.5,22.005,69,44-4.5,3.495-9,7-17.505-9.495-35-19l26,26c-0.67,1-1.33,2-2,3-2.33,1.33-4.67,2.67-7,4-15.21-4.86-25.37-23.6-37-33l-82-76c-10.23-9.99-30.8-21.08-36-35C2040.65,1491.04,2042.04,1488.56,2044,1485Zm-975,1q4.005,3.495,8,7l-3,3q-89.49,94.485-179,189h-1l-8-6q26.5-27,53-54C980.874,1577.77,1031.01,1536.72,1069,1486Zm1274,2h3v4c-24.17,18.51-71.11,20.1-106,27-13.46,2.66-29.95,6.55-37-2,0.33-.67.67-1.33,1-2Zm-419,6c3,0.33,6,.67,9,1-0.67,1-1.33,2-2,3q-8.505,4.995-17,10-113.985,10.995-228,22c-1.33-1-2.67-2-4-3,0.33-1.67.67-3.33,1-5Q1803.5,1508.005,1924,1494Zm-841,6q7.005,4.995,14,10l-2,2q-68.49,69-137,138c-9.837,10.4-33.294,41.89-47,45q-4-3.495-8-7Q992.991,1594.01,1083,1500Zm864,0c19.1,6.15,32.3,30.12,47,42q52.995,49.5,106,99c14.22,11.49,38.94,28.28,47,45l-9,9q-90.495-80.49-181-161-4.5,75.99-9,152c-3.15,20.68,1.52,41.04-8,54-1,.67-2,1.33-3,2-0.67-.33-1.33-0.67-2-1q3-80.49,6-161c3.76-25-5.34-58.35,4-79C1945.67,1500.67,1946.33,1500.33,1947,1500Zm84,0c16.31,5.24,27.46,25.87,40,36q57.99,54,116,108c-0.67,1.33-1.33,2.67-2,4-1,1.67-2,3.33-3,5q-77.985-71.49-156-143Q2028.505,1505.005,2031,1500Zm-866,3c4.05,1.37,2.96.99,5,4L973,1707q-4.5-2.505-9-5c16.825-28.8,50.27-52.18,74-75C1080.73,1585.91,1121.2,1543.17,1165,1503Zm399,0c1.67,0.33,3.33.67,5,1q1.005,106.995,2,214c0,21.91,8.74,62.64-9,70h-1c-7.69-58.17-1-128.17-1-191C1560,1567.02,1555.56,1526.44,1564,1503Zm367,2c4.95,3.92,1.54,51.74,1,64q-3.495,92.49-7,185,37.995-4.995,76-10Q2057,1731,2113,1718c-4.46,12.99-26.56,12.03-40,16-42.26,12.5-91.88,18.76-139,29,0.67,0.33,1.33.67,2,1l26,20h2q13.005-13.5,26-27c13.82-4.2,27.13,21.1,40,17q11.505-13.5,23-27,10.995,5.505,22,11-22.005,22.5-44,45c-1,.33-2,0.67-3,1q-19.995-10.005-40-20l-10,10c0.67,1,1.33,2,2,3q16.5,10.995,33,22c-1.33,2-2.67,4-4,6-40.66-19.93-71.63-48.44-105-75q-13.5-11.505-27-23,3-3.495,6-7h2q12.495,12,25,24,4.005-113.49,8-227Q1924.5,1511,1931,1505Zm325,14c9.71,1.5,32.59,14.82,36,23q-7.005,7.5-14,15-10.995-6.495-22-13-4.005,3.495-8,7c-5.23-.4-8.97-4.63-13-9Q2245.5,1530.5,2256,1519Zm-399,7c1.67,0.33,3.33.67,5,1q19.5,16.995,39,34l-25,28,29,26v8q-15.495,17.505-31,35l13,13c5.99,2.71,15.19,11.07,18,17v10c-14.27,5.04-19.05,21.65-35,24q-4.995-4.5-10-9l18-18q-3.495-4.005-7-8c-8.81-4-41.47-32.02-42-43l40-40c-1.67-2-3.33-4-5-6q-16.995-14.505-34-29h-2q-19.5,19.005-39,38l-48-39c-2.33,1.33-4.67,2.67-7,4q-7.5-7.005-15-14c2.1-9.72,12.96-19.83,20-25q19.005,13.995,38,28,13.995-14.505,28-29h4q12.495,10.5,25,21Q1845.505,1539.5,1857,1526Zm-276,1c15.41,7.19,25.24,24.68,38,35q54,50.49,108,101c9.71,9.59,45.19,32.82,40,45-1.67,1-3.33,2-5,3h-3l-181-172Zm-422,263q-3-91.485-6-183c-0.33-20.28-6.73-57.35,1-71q4.995-1.995,10-4,4.005,127.98,8,256C1167.19,1790.58,1166.46,1790.46,1159,1790ZM662,1535l8,6v2q-12,12.495-24,25,113.488,4.005,227,8,6,7.005,12,14c-0.333.67-.667,1.33-1,2l-248-9,10,76,26,112c-13.034-4.48-13.126-29.45-17-43-11.875-41.53-18.022-90.08-28-136-0.333.67-.667,1.33-1,2q-10,13.005-20,26v2q13.5,13.005,27,26c-2.1,13.92-21.283,28.65-17,40,23.071,9.75,31.055,23.64,16,45q-22.5-22.005-45-44-0.5-1.5-1-3,10-19.995,20-40-5.5-4.995-11-10h-1q-11.5,17.505-23,35l-3-3c-1-.33-2-0.67-3-1q0.5-1.5,1-3l35-58Q631.5,1570.51,662,1535Zm479,13c4.36,1.97,3.55,3.49,5,8q-10.005,10.5-20,21c4.78,0.36,16.09.22,19,3,0.97,3.23-.34,6.93-2,10q-16.5,1.005-33,2c-1.33,1.67-2.67,3.33-4,5q2.505,25.995,5,52-4.005,3-8,6c-3.02-1.26-1.2.02-3-2q-1.995-22.995-4-46L990,1713h-1c-2-1.67-4-3.33-6-5v-2Zm438,4c10.83,3.64,8.76,18.69,8,33q7.005-6,14-12c1.67,0.67,3.33,1.33,5,2l3,6-22,25c0.33,2,.67,4,1,6l39,33q-0.495,6.495-1,13c-15.03-3.81-27.37-22.21-39-31v111c0,12.7,2.19,31.73-2,41-2.33-.33-4.67-0.67-7-1Q1578.5,1665.005,1579,1552Zm-71,269q-1.995-95.985-4-192c0-12.99-4.74-62.36,1-69l14-3,1,1q0.495,91.995,1,184c0,22.09,5.93,60.32-2,78C1515.33,1820.33,1511.67,1820.67,1508,1821Zm-62-261h9q13.005,16.995,26,34c0.66,37.74-13.2,38.85-26,60,18.03,27.73,42.13,46.11,16,81-6.74,9-11.49,17.56-21,21-0.33-.67-0.67-1.33-1-2Q1447.5,1657.01,1446,1560Zm37,0c3.67,0.33,7.33.67,11,1q3,131.985,6,264c-3.33.67-6.67,1.33-10,2-0.33-.67-0.67-1.33-1-2q-0.495-33-1-66v-60Q1485.5,1629.505,1483,1560Zm495,3,10,7c-3.06,14.42-5.39,8.99,4,21,7.29,3.41,40.67,34.67,43,42l-37,34c1.67,2,3.33,4,5,6,5,2.65,5.59,6.17,10,4q19.995-13.5,40-27l46,34q3.495-3,7-6c1,0.67,2,1.33,3,2,2,1.67,4,3.33,6,5q-7.5,7.005-15,14h-5l-20-17-34,28c-9.11-2.58-18.39-18.2-25-15q-11.505,9-23,18-15-11.505-30-23c0.33-.67.67-1.33,1-2,7.43-4.19,14.84-16.52,19-24q-9-10.005-18-20c3.94-9.74,14.99-21.91,23-28l-8-8q-8.505-9.495-17-19C1964.75,1574.44,1971.16,1571.65,1978,1563ZM565,1584q4.5,3.495,9,7c0.248,19.47-5.61,28.07-13,39q-7.5,1.005-15,2v16c-6.226-1.86-9.7-7.31-13-12C539.465,1615.93,555.227,1601.44,565,1584Zm33,0,7,6c-0.667.67-1.333,1.33-2,2-2.946,7.42-42.156,66.31-47,68-1.333-1.67-2.667-3.33-4-5C560.637,1628.24,582.748,1605.53,598,1584Zm1136,2c21.19,6.56,80.76,71.09,100,89,8.64,8.05,24.66,16.34,29,28q-4.5,2.505-9,5l-123-117C1732,1589.33,1733,1587.67,1734,1586Zm-118,1q4.005,3,8,6-4.995,6-10,12,89.985,73.5,180,147c0.27,5.45.19,10.24-2,13q-53.49-41.49-107-83c-30.73-23.19-65.33-44.66-91-73Zm461,1c17.42,6.14,40.35,3.92,48,20q2.505,18.495,5,37l38,3,8,8q-9.495,12-19,24l-13-13q-37.995-35.49-76-71v-2Zm-1429,5,164,6c24.492,3.68,56.883-5.11,77,4q0.5,1.5,1,3c-6.229,12.95-19.407,20.37-28,31q-50,53.49-100,107c-12.3,15.22-41.37,52.96-58,61l-9-9c0.667-.67,1.333-1.33,2-2q79.493-89.49,159-179l-152-9c-20.441-3.11-41.14,1.44-54-8C649.333,1596.33,648.667,1594.67,648,1593Zm602,1c28.77-.3,105.12,75.39,129,93,10.06,7.42,34.1,18.74,36,33-0.67,1.67-1.33,3.33-2,5q-84.495-63.99-169-128c0.33-.67.67-1.33,1-2C1246.67,1594.67,1248.33,1594.33,1250,1594Zm-104,15q-7.995.495-16,1,12,115.485,24,231l-8,8h-3q-10.995-86.985-22-174c-4.29-23.81-10.35-53.37-7-77q16.005,1.005,32,2v9Zm578-11,69,66,133,115c-0.33,1-.67,2-1,3-1.33,1.67-2.67,3.33-4,5-18.88-5.73-44.2-39.29-60-52q-72-63.99-144-128v-2Zm-486,2,196,157v1h-5c-28.74-8.59-40.64-25.11-61-41l-84-69c-15-11.64-42.97-26.33-50-45C1235.33,1602,1236.67,1601,1238,1600Zm-593,2c15.894,5.26,13.394,25.53,17,43q10.5,49.995,21,100c3.111,11.39,12.277,32.38,8,43h-5q-11-36.99-22-74Q654.5,1658.005,645,1602Zm257,5,11,6c0.391,9.59,1.865,28.8-3,34-11.572,17.14-34.395,6.35-46,18-13.635,29.29.339,51.32-40,57-6.029.85-18.175,3.42-22,0h-2Zm810,3c14.04,6.56,17.34,22.04,21,39,39.29,2.18,55.5,28.77,64,61,25.78,1.7,47.71,10.31,57,28,4.79,9.13,3,22.33,11,28,20.46,9.97,69.1,14.79,59,50-4.66,1.66-3.2,3.05-7,1-24.59-11.29-47.3-37.18-68-54q-19.995-15-40-30-30.495-29.49-61-59-25.5-23.505-51-47v-3Q1704.5,1617,1712,1610ZM700,1621q13,10.005,26,20c6.071-4.96,16.943-21.16,23-16q12.5,10.005,25,20h2q12.5-12,25-24c13.631,1.52,19.8,7.38,26,16l-7,9c-14.994-3.17-9.5-4.78-22,5-3.352,7.18-33.764,39.71-41,42q-17-18.495-34-37c-2,1.67-4,3.33-6,5-2.645,5-6.166,5.59-4,10q13.5,20.505,27,41c-6.335,4.89-33.692,42.87-32,46q2,4.005,4,8-3.5,3.495-7,7l-14-15v-5c6.645-4.51,19.884-18.17,13-24q-12-15.495-24-31c3.214-7.81,17.936-17.93,15-24q-9-11.505-18-23Zm369,20c10.57,3.3,16.9,14.72,25,21-0.33,1-.67,2-1,3q-13.5,16.995-27,34v2l30,30-21,27c1,1.33,2,2.67,3,4,4.16,1.68,24.53,17.42,24,22q-7.995,8.505-16,17c-4.88,6.16-14.92,25.34-23,21q-12.495-10.5-25-21-5.505,4.995-11,10-9.5,10.5-19,21-12-11.505-24-23-6-6.495-12-13-16,17.505-32,35c-2.666-.33-5.334-0.67-8-1q-8.5-11.505-17-23,4.5-5.505,9-11l10,6q22.5-24,45-48c9.758,4.01,39.61,29.19,45,38,1.67-1.33,3.33-2.67,5-4,7.74-14.89,39.65-29.19,21-43l-30-33c9.68-16.6,31.13-29.1,37-48-3.76-1.76-3.73-1.61-5-6Zm253,88c10.31-.37,34.18-5.66,39,1q1.995,25.995,4,52-19.005,1.005-38,2c0.32,16.94,3.54,34.96-3,44l-47,3v47c-1.67,1-3.33,2-5,3-8.92-1.17-37.34-.53-42-7q-1.005-7.005-2-14h26c-0.42-20.67-9.29-55.86,0-70q28.995-.495,58-1-1.5-25.995-3-52l-57-3c0.31-11.55-4.15-60.39-10-60-1-.33-2-0.67-3-1-0.36-8.84-2.05-17.59,1-24q15-1.005,30-2,3.495,24,7,48,20.505-1.005,41-2c0.33,0.67.67,1.33,1,2Q1320.5,1712,1322,1729Zm313-75c12.9,3.58,22.24,16.6,32,24q43.995,34.5,88,69c11.52,9.04,29.41,17.34,36,31-7.01,11.97-65.26,66.31-78,70q-1.995-7.005-4-14c11.75-8.75,54.79-48.48,58-62q-66.495-54-133-108C1634.33,1660.67,1634.67,1657.33,1635,1654Zm-525,6h2q7.5,63.495,15,127c3.54,20.13,10.67,48.98,7,70-1,.33-2,0.67-3,1q-51-2.505-102-5v-1q2.505-6,5-12c22.88-5.66,68.88,9.55,87-4q-6.495-61.995-13-124c-2.18-12.84-8.14-37.39-3-49C1106.67,1662,1108.33,1661,1110,1660Zm521,55q22.005-.495,44-1,2.505,17.505,5,35,18-1.005,36-2c0.83,13.95,8.58,44.4,3,54-5.44,5.23-26.78,4.62-36,5q0.495,21.495,1,43-25.5-.495-51-1c0.28,15.73,5.86,38.26,0,51-1,.67-2,1.33-3,2q-15-2.505-30-5c-0.5-5.81-2.03-10.83,1-14,3-.33,6-0.67,9-1q-0.495-33.99-1-68,29.49-2.505,59-5l-3-51q-28.995-1.005-58-2-2.505-29.49-5-59h-9q0.495-13.995,1-28,16.005,0.495,32,1Q1628.505,1692,1631,1715Zm-434-32c0.54,23.21-5.13,27.08-13,42,21.21,37.32,20.96,48.16,2,89,9.65,10.66,29.27,32.69,20,60q-6.495,13.5-13,27c14.03,16.7,31.84,55.59,9,77-2.67-.33-5.33-0.67-8-1-0.32-26.72-4.63-56.26-10-80-8.78-38.83-7.48-87.63-8-133-0.2-17.15-6.23-75.24,1-82Q1187.005,1682.5,1197,1683Zm30-1h3q4.5,86.49,9,173-6-1.005-12-2-1.995-84.99-4-170C1224.33,1682.67,1225.67,1682.33,1227,1682Zm-24,1c3.67,0.33,7.33.67,11,1-0.16,59.71-1.69,123.11,7,179q3,45.99,6,92h-10q-4.995-91.485-10-183C1203.76,1751.13,1197.78,1703.16,1203,1683Zm-324,1q5.5,2.505,11,5v3q-71.993,76.485-144,153c-1.333-.67-2.667-1.33-4-2-1.667-1.33-3.333-2.67-5-4Q807.993,1761.51,879,1684Zm15,11q5.5,4.005,11,8v2l-91,109q-20,31.5-40,63c-1-.67-2-1.33-3-2-1.333-2.33-2.667-4.67-4-7q9.5-17.505,19-35-12,11.505-24,23l-2,3c-0.667-.33-1.333-0.67-2-1q-2.5-5.505-5-11Q823.493,1771.01,894,1695Zm1230,2c5.72,0.94,5.52.89,6,7q-36.99,10.995-74,22-55.995,9.495-112,19c5.59-16.94,30.4-14.14,49-18,33.79-7.01,66.83-13.36,98-22Q2107.5,1701,2124,1697Zm-349,14h3l97,91q22.995,15,46,30c6.47,4.29,48.79,28.2,47,34-3.71,12-22.21-1.51-29-5l16,16q-4.005,4.995-8,10c-23.03-8.93-40.29-39.88-59-55q-59.49-55.995-119-112Zm-822,1c6.083,0.12,8.08,1.01,11,4v1c-12.029,6.49-21.577,23.44-30,34q-36.5,40.5-73,81c-16.449,23.08-31.186,56.31-53,74-1.333-.67-2.667-1.33-4-2-0.667-.67-1.333-1.33-2-2,5.5-23.51,31.194-47.46,45-65Q900,1774.51,953,1712Zm20,6c2.333,1.33,4.667,2.67,7,4v3c-13.974,10.85-24.974,27.1-36,41-27.95,35.23-60.5,67.56-88,104-7.483,9.92-31.123,48.76-42,48-0.333-.67-0.667-1.33-1-2,3.884-20.99,26.557-39.47,38-55C888.7,1809.84,935.331,1768.08,973,1718Zm-64,7c1.667,0.33,3.333.67,5,1-0.431,38.46-19.516,53.19-50,61-3.364,18.33-13.929,46.63-27,56l-24,6c-6.57,6.17,1.865,58.92-21,45q-6-4.995-12-10c23.083-41.69,58.24-74.69,87-111C879.562,1757.14,891.823,1736.06,909,1725Zm-115,1a19.873,19.873,0,0,1,8,11c-7.091,7.59-2.145,23.84-7,34l-11,12q-19.5,2.505-39,5-1.5,19.005-3,38-4,4.005-8,8-12-9.495-24-19l12-12Q758,1764.51,794,1726Zm664,191q-4.005-76.995-8-154c13.21-1.42,12.96-.29,21,6q7.005,7.995,14,16c0.49,23.21-12.82,32.09-22,46,11.21,18.58,24.12,29.99,24,60q-12,13.005-24,26h-5Zm-208,67c42.17-1.09,47.54,1.73,51,39h11q14.505-1.005,29-2,3.495,12,7,24h-61c-1.67-.33-3.33-0.67-5-1q-6.495-21.495-13-43-7.5.495-15,1,3.495,21,7,42c-4.21.14-5.82,1.94-7-1-9.81-19.28-30.62-131.49-23-161,2.67-.33,5.33-0.67,8-1l1,1q1.005,17.505,2,35l12-12q76.995-71.49,154-143l19,3c-0.33,1-.67,2-1,3q-89.985,83.49-180,167c0.67,1,1.33,2,2,3q29.49,22.5,59,45l96,60v1h-2c-12.49,4.5-34.67-16.68-44-22-40.37-23.03-74.23-49.55-112-74Q1247.505,1966,1250,1984Zm551-219c15.29,3.1,28.99,24.12,39,34q48.99,45.495,98,91-2.505,4.5-5,9c-17.4-5.61-29.57-28.14-43-39l-92-86Zm-350,279h-14q-7.005-120.495-14-241l-8,8q-70.5,62.49-141,125-6.495-1.005-13-2,4.005-4.5,8-9,60.495-55.5,121-111c13.33-11.82,29.82-38.08,48-43l3,3c8.28,13.93,2.22,67.23,4,88Q1448,1952.99,1451,2044Zm480-259c7.63,2.98,69.31,44.17,71,49-1.67,1.33-3.33,2.67-5,4-18.33-5.85-60.07-33.14-71-47C1927.67,1789,1929.33,1787,1931,1785Zm-345,5c7.15,9.86,1.69,31.59,4,46,8.43,52.69,7,107.57,16,156,2.09,11.25,9.73,47.51,3,53-1,.33-2,0.67-3,1-6.68-11.1-6.04-27.36-9-43-8.67-45.73-7.05-98.22-15-149-1.56-9.95-3.77-58.72-1-62C1582.67,1791.33,1584.33,1790.67,1586,1790Zm205,1c2.33,1,4.67,2,7,3,3,60.07,4.67,123.81,5,180,0.12,21.36,9.77,60.01-9,66q-7.5-107.49-15-215-27,22.995-54,46c-0.67-1-1.33-2-2-3q-1.005-6-2-12Q1756,1823.51,1791,1791Zm102,109,34,3v1q-9,10.995-18,22h-2q-49.5-47.49-99-95-1.005-19.005-2-38c2.33,0.33,4.67.67,7,1,17.86,9.2,11.55,27.04,18,48C1870.48,1847.26,1893.08,1854.57,1893,1900Zm-325-103h3q4.995,78.495,10,157,7.005,44.49,14,89c-3-.33-6-0.67-9-1q-6-30.495-12-61-4.5-63.495-9-127c-2.47-15.4-5.8-38.49-3-54Zm-409,3q6-.495,12-1l6,144c5.45,26.91,24.48,74.9,21,101-3,.33-6,0.67-9,1-0.67-1-1.33-2-2-3q-3.495-10.005-7-20h-1v22h-14Q1162,1922.005,1159,1800Zm774,16c19.59-.24,28.03,5.58,39,13q1.005,7.5,2,15h16c-2,6.63-6.89,8.64-11,13-18.64-3.98-39.74-21.73-53-33Q1929.5,1820,1933,1816Zm-412,14q6,67.995,12,136,9,39.99,18,80-6-1.005-12-2-5.505-18.495-11-37v36q-6.495-1.005-13-2-3.495-104.985-7-210Q1514.5,1830.505,1521,1830Zm-24,1h4q3,78.495,6,157c0.8,12.95,6.03,47.88-1,56-2.67.67-5.33,1.33-8,2q-4.5-105.99-9-212c0.67-.33,1.33-0.67,2-1C1493,1832.33,1495,1831.67,1497,1831Zm-607,5q48.995,1.005,98,2c11.5,0.5,33.41-3.4,41,2q-3,6.495-6,13-70.993-2.505-142-5v-1Q885.5,1841.5,890,1836Zm529,16c-3.67.33-7.33,0.67-11,1q1.005,36.99,2,74-25.995-.495-52-1,1.005,9,2,18,24.495,4.005,49,8,4.005,28.5,8,57c3.67,0.33,7.33.67,11,1,0.33,3.33.67,6.67,1,10l-2,2q-10.5-1.005-21-2-2.505-15-5-30c-10.94.22-37.82,0.07-44-6-2.74-6.52-.18-21.29-5-26-9.18-3.45-23.14-1.17-31-5q-1.995-16.995-4-34c0.33-.67.67-1.33,1-2q16.005-1.995,32-4,0.495-13.995,1-28c8.08-.25,31.02-0.24,36-5q1.005-16.995,2-34,4.995-4.005,10-8,10.005,0.495,20,1v13Zm283-13c1,0.33,2,.67,3,1q1.995,6.495,4,13-51,48.495-102,97c-0.67-.33-1.33-0.67-2-1q-0.495-7.5-1-15Zm-161,1c8.5,3.48,16.05,16.68,21,24v31q-5.505,12-11,24,8.505,16.995,17,34l3,24q-6,11.505-12,23c7.85,6.24,27.35,25.39,21,41-1,1.67-2,3.33-3,5-6.51.45-13.72,2.04-17-1-16.16-34.73-13.45-103.7-19-147C1538.65,1879.7,1534.18,1853,1541,1840Zm266,9,94,82v2q-4.005,4.5-8,9c-4.39-2.51-5.27-3.92-10-4q-10.995,9-22,18-11.505-7.995-23-16c-11.26,2.78-17.82,13.47-27,19-0.67-.33-1.33-0.67-2-1q-0.495-22.5-1-45,4.995-4.005,10-8,22.005,16.995,44,34,6-5.505,12-11c-0.33-.67-0.67-1.33-1-2-11.23-5.27-62.97-49.62-68-60Q1806.005,1857.5,1807,1849Zm-659,7c1.33,0.67,2.67,1.33,4,2q3,91.995,6,184c-3.67.33-7.33,0.67-11,1l-1-1q-1.995-67.995-4-136c-0.2-12.12-5.17-42.29,2-48C1145.33,1857.33,1146.67,1856.67,1148,1856Zm-262,1q65.994,3.495,132,7v1q-2.5,5.505-5,11-59.994-1.995-120-4,15,76.995,30,154c-1.333-.33-2.667-0.67-4-1-18.8-43.16-34.7-107.16-37-164C883.333,1859.67,884.667,1858.33,886,1857Zm888,171q7.995,1.005,16,2v12c-10.35-.18-21.64-0.7-28-4l-6-27q-22.005-2.505-44-5l-3-27q-14.505-2.505-29-5h-2q-1.5-18.495-3-37l33-3q0.495-13.995,1-28,18-1.005,36-2l3-42c1.67-1,3.33-2,5-3h24v13c-18.84.86-14.98,17.18-14,36q0.495,18.495,1,37c-1.33,1.67-2.67,3.33-4,5q-22.5-.495-45-1c1.04,4.44,1.17,12.14,4,15l49,9Q1771,2000.5,1774,2028ZM872,1861c7.727,5.96,6.6,25.9,9,37q10.5,52.995,21,106h-4C886.553,1988.96,859.682,1879.58,872,1861Zm157,2c26.75,4.5,75.51-4.21,97,6,0.39,4.01,1.09,3.16-1,6-10.3,22.83-38.76,36.12-54,55q-53.49,58.5-107,117-7-.495-14-1l6-6q67.5-78.495,135-157v-1q-35.49-3.495-71-7l2-2C1023.64,1868.07,1025.81,1866.16,1029,1863Zm684,1c4.52,3.36,5.6,11.14,4,15q-42.99,39-86,78c0.67,1,1.33,2,2,3q63.99,42.99,128,86c-0.33.67-.67,1.33-1,2h-1l-17-3q-13.995-9.495-28-19c-26.68-16.74-80.01-45.23-98-68v-6Zm-581,15c2,1.33,4,2.67,6,4q-0.495,10.995-1,22-10.005,12-20,24c3.97,21.33,33.05,30.24,22,63q-9.495,12-19,24l21,27-1,1q-14.505.495-29,1-1.995-68.49-4-137Q1119.495,1893.5,1132,1879Zm-91,8c3,0.33,6,.67,9,1l16,16c-0.33,1-.67,2-1,3-4.06,3.44-5.68,7.2-10,5q-5.505-3-11-6c-7.8,12.32-40.82,47.92-52,52q-16.5-16.005-33-32c-1,.67-2,1.33-3,2l-6,9q14.5,20.505,29,41-17,22.005-34,44l9,12c-1.581,4.57-3.546,6.45-7,9-0.667-.33-1.333-0.67-2-1q-8-9.495-16-19c3.062-8.01,15.951-20.81,13-27q-12.5-15.495-25-31c2.038-9.42,17.333-18.4,14-25-3.869-10.01-13.268-12.96-15-25v-1q10.5-12.495,21-25h4q11.5,10.005,23,20l3-3,17-15h2c6.075,7.97,23.43,26.02,30,18Zm-194,6c9.091,3.73,18.451,14.47,24,22q-10.5,17.505-21,35-8.5-7.005-17-14,6.5-10.995,13-22c-3.746-4.07-6.122-6.32-8-10Q842.5,1898.5,847,1893Zm239,129q-2.505-46.995-5-94l12-9c0.67,0.33,1.33.67,2,1l6,90c0.22,9.12,5.19,27.98,0,34q-6,.495-12,1c-0.47-3.81-.82-5.99-3-8q-15-2.505-30-5-3-14.505-6-29l-31-3c3.99-12.68,21.18-25.82,30-35q7.005,1.005,14,2,3.495,27.495,7,55h16Zm373-98q6,1.005,12,2c0.9,7.18,7.53,12.68,12,19,16.54,23.39-1.75,43.18-16,58l4,4q10.995,13.005,22,26c-0.33,3.67-.67,7.33-1,11l-31,3Q1460,1985.5,1459,1924Zm-194,17c28.15-.53,42.18,20.04,59,32q52.5,32.49,105,65c-0.67,2-1.33,4-2,6h-1c-43.21-13.16-82.78-46.82-117-71C1296.6,1964.24,1272.06,1954.46,1265,1941Zm605,17c1.67,0.33,3.33.67,5,1-0.33,1-.67,2-1,3-15.92,12.45-39.65,13.91-61,22l-1-1c-0.33-3-.67-6-1-9Q1840.49,1966.005,1870,1958Zm-650,4c3,0.33,6,.67,9,1,0.59,30.52,12.42,54.71,16,82l-1,1h-8v-2C1229.45,2032.53,1216.77,1976.88,1220,1962Zm389,2,90,60c8.82,5.88,27.11,12.74,31,23h-6c-11.9,2.66-23.67-10.77-32-16-23.73-14.89-67.55-38.39-83-60v-7Zm202,34c0.67-3,1.33-6,2-9l39-9c-0.33,1.67-.67,3.33-1,5C1841.55,1991.81,1825.97,1997.13,1811,1998Zm-614-13c3.33,0.33,6.67.67,10,1,11,5.58,17.59,20.64,18,37q-4.5,4.995-9,10c3.8,4.75,8.89,6.49,11,13l-1,1c-6.95.37-14.26,0.09-17-4C1202.42,2031.67,1194.53,1998.78,1197,1985Zm431,36c-5.78.37-8.08,1.08-11-1h-2v-16h30c6.94,5.76,9.54,29.7,11,40q-11.505,1.005-23,2Q1630.5,2033.505,1628,2021Zm-620-10c15.76,4.97,45.66,20.97,56,33-0.33.67-.67,1.33-1,2-24.59,1.14-41.07-17.04-59-27v-3C1005.33,2014.33,1006.67,2012.67,1008,2011Zm-10,11q17.5,10.995,35,22c-0.33.67-.67,1.33-1,2-17.88.26-29.12-10.41-40-18,1.333-1.67,2.667-3.33,4-5C996.667,2022.67,997.333,2022.33,998,2022Z"/>
</svg>
