<?xml version="1.0" encoding="UTF-8"?>
<svg id="Layer_0_xA0_Image" xmlns="http://www.w3.org/2000/svg" version="1.1" viewBox="0 0 2048 2732">
  <!-- Generator: Adobe Illustrator 30.2.1, SVG Export Plug-In . SVG Version: 2.1.1 Build 1)  -->
  <defs>
    <style>
      .st0 {
        fill: #b05072;
      }
    </style>
  </defs>
  <path class="st0" d="M1774,0c4.9,7.26,2.88,13.82-.83,21.12-16.61,32.66-32.8,65.54-48.94,98.43-2.45,5-5.5,8.49-10.74,10.96-119.64,56.34-239.19,112.88-358.78,169.35-1.42.67-3,1.03-5.41,1.83-.44-2.75-1.01-4.85-1.08-6.96-.36-10.99-.86-21.99-.77-32.98.07-7.51-2.46-12.93-8.2-18.12-43.73-39.59-87.15-79.53-130.62-119.41-2.83-2.6-5.27-5.62-8.79-9.42,4.38-2.78,7.56-5,10.92-6.9,59.14-33.5,118.31-66.94,177.44-100.45,4.04-2.29,7.87-4.96,11.8-7.45,124.67,0,249.33,0,374,0Z"/>
  <path class="st0" d="M276,2732c-3.31-6.75-2.07-12.67,1.38-19.42,16.81-32.9,33.1-66.07,49.3-99.28,2.65-5.44,6.27-8.77,11.72-11.33,118.36-55.72,236.64-111.61,354.95-167.45,2.54-1.2,5.23-2.08,8.86-3.51.57,14.32,1.61,27.21,1.39,40.07-.14,8.11,2.8,13.43,8.7,18.78,43.44,39.35,86.59,79.04,129.8,118.65,2.86,2.62,5.48,5.52,9.18,9.28-4.52,2.96-7.89,5.46-11.51,7.51-59.09,33.49-118.22,66.91-177.29,100.43-3.04,1.72-5.67,4.17-8.48,6.27h-378Z"/>
  <path class="st0" d="M970,0c-64.96,93.63-129.92,187.26-194.92,280.87-.3.44-1.19.47-2.39.91-.85-1.04-1.97-2.14-2.78-3.44-6.68-10.75-13.5-21.43-19.86-32.37-2.76-4.75-6.36-6.99-11.68-8.15-57.6-12.55-115.15-25.31-172.7-38.09-4.7-1.04-9.28-2.63-15.15-4.33,2.52-4.79,4.18-8.31,6.15-11.66,34.14-58.01,68.32-115.99,102.45-174.01,1.84-3.12,3.26-6.49,4.87-9.75,102,0,204,0,306,0Z"/>
  <path class="st0" d="M1082,2732c18.3-26.6,36.53-53.25,54.9-79.8,45.11-65.16,90.28-130.27,135.45-195.39,1.41-2.04,3.14-3.85,5.55-6.78,6.28,10.01,12.68,18.52,17.24,27.93,5.77,11.92,14.61,16.96,27.41,19.62,55.38,11.53,110.54,24.1,165.77,36.37,3.73.83,7.33,2.26,12.17,3.78-2.54,4.66-4.31,8.12-6.28,11.47-33.94,57.67-67.92,115.32-101.81,173.02-1.8,3.06-2.95,6.51-4.4,9.77h-306Z"/>
  <path class="st0" d="M0,2108c21.21,1.95,42.41,4.03,63.64,5.82,48.12,4.04,96.25,7.93,144.38,11.92,1.25.1,2.45.65,4.34,1.18-.73,2.14-1.12,4-1.97,5.62-5.43,10.31-10.68,20.74-16.59,30.77-3.5,5.94-3.85,11.29-1.74,17.87,18,56.1,35.69,112.3,53.4,168.5,1.25,3.98,1.95,8.13,3.25,13.64-5.18.23-9.02.57-12.86.54-74.29-.62-148.57-1.29-222.86-1.93-4.33-.04-8.66.05-12.99.08C0,2277.33,0,2192.67,0,2108Z"/>
  <path class="st0" d="M2048,624c-27.86-2.21-55.73-4.37-83.59-6.64-38.81-3.16-77.61-6.4-116.41-9.64-3.14-.26-6.25-.8-10.58-1.36,6.64-12.44,12.09-23.77,18.59-34.47,4.54-7.47,4.81-14.18,2.15-22.44-17.95-55.72-35.42-111.59-53.02-167.42-1.07-3.4-1.87-6.88-3.14-11.59,3.85-.5,6.64-1.2,9.43-1.18,76.89.61,153.79,1.29,230.68,1.99,1.97.02,3.93.5,5.89.76v252Z"/>
  <path class="st0" d="M1068,0c6.15,6.32,7.21,13.52,7.25,22.5.1,25.3,2.24,50.59,3.54,75.88,2.41,46.93,4.78,93.86,7.19,140.79.68,13.28,1.41,26.56,2.15,40.29,2.68,0,4.94.4,7-.06,59.14-13.26,118.27-26.58,177.37-40.04,3.55-.81,6.42-1.19,9.04,1.78,9.91,11.25,19.92,22.43,29.78,33.73.97,1.11,1.16,2.9,1.68,4.3-6.66,3.7-267.33,60.17-278.93,60.4-.25-2.83-.73-5.72-.74-8.61-.47-110.33-.89-220.65-1.32-330.98h36Z"/>
  <path class="st0" d="M982,2732c-5.56-5.95-6.37-12.76-6.3-20.92.17-18.28-1.52-36.58-2.46-54.87-2.38-46.56-4.79-93.12-7.15-139.69-.93-18.29-1.71-36.59-2.64-54.89-.15-2.87-.74-5.72-1.24-9.44-16.67,3.7-32.51,7.18-48.33,10.74-45.44,10.25-90.86,20.6-136.34,30.67-2.45.54-6.37-.25-7.94-1.96-10.6-11.49-20.76-23.39-31.02-35.2-.38-.44-.32-1.26-.78-3.31,2.7-.99,5.5-2.41,8.47-3.05,59.21-12.75,118.45-25.41,177.67-38.1,26.68-5.72,53.35-11.5,80.03-17.22,3.84-.82,7.72-1.44,12.98-2.42.34,4.5.85,8.26.87,12.03.28,76.61.49,153.21.76,229.82.11,29.31.33,58.62.57,87.93.03,3.29.55,6.58.84,9.87h-38Z"/>
  <path class="st0" d="M1014,0c.02,36.29.12,72.58.04,108.87-.16,74.92-.39,149.84-.66,224.77-.01,3.39-.65,6.79-1.01,10.23-62.03-29.56-122.86-58.54-184.35-87.83,8.28-12.94,15.97-24.84,23.53-36.83,2.56-4.07,5.71-3.24,9.54-2.19,27.27,7.48,54.6,14.76,81.91,22.08,7.99,2.14,16,4.18,25.18,6.57,0-4.58,0-8.18,0-11.78.06-51.61.12-103.23.19-154.84.02-12.31-.29-24.65.33-36.93.24-4.74,1.95-9.76,4.25-13.96C978.23,18.53,984.27,9.35,990,0c8,0,16,0,24,0Z"/>
  <path class="st0" d="M1036,2732c.29-39.98.65-79.96.84-119.93.35-71.3.59-142.61.92-213.91.01-2.87.37-5.73.61-9.2,62,29.56,123,58.65,184.53,87.98-7.92,12.39-15.25,23.42-22.08,34.74-2.93,4.86-5.93,5.82-11.44,4.28-31.09-8.72-62.31-17-93.49-25.4-3.8-1.02-7.66-1.82-12.76-3.02-.23,4.18-.58,7.66-.59,11.14-.11,51.65-.17,103.29-.24,154.94-.02,12.32-.16,24.65.06,36.97.1,5.61-1.7,10.31-4.61,14.97-5.43,8.7-10.52,17.62-15.75,26.45h-26Z"/>
  <path class="st0" d="M0,710c35.61,18.13,71.21,36.27,106.82,54.38,2.89,1.47,5.86,2.77,9.69,4.57,1.4-4.07,2.63-7.41,3.7-10.79,16.96-54,34.35-107.87,50.45-162.13,3.23-10.87,8.3-15.07,18.69-16.26,8.89-1.02,17.6-3.61,26.42-5.34,3.75-.74,7.59-1.05,12.34-1.68-.35,3.66-.16,5.99-.83,8.04-28.47,88.28-57.01,176.54-85.9,265.9-4.52-2.41-7.72-4.01-10.83-5.78-40.2-22.97-80.37-45.99-120.61-68.89-3.08-1.75-6.62-2.7-9.95-4.02,0-19.33,0-38.67,0-58Z"/>
  <path class="st0" d="M2048,2022c-36.73-18.88-73.45-37.77-110.19-56.63-.85-.44-1.86-.57-3.4-1.02-1.15,3.15-2.39,6.18-3.36,9.3-17.14,54.64-34.6,109.19-51.04,164.05-2.98,9.93-7.5,14.05-17.3,15.23-10.21,1.23-20.22,4.1-30.35,6.05-3.01.58-6.14.47-11.18.8,29.64-91.8,58.65-181.63,88.13-272.93,4.14,1.92,7.68,3.26,10.94,5.11,39.64,22.61,79.24,45.31,118.88,67.92,2.82,1.61,5.91,2.75,8.88,4.11v58Z"/>
  <path class="st0" d="M0,986c3.06-1.98,6.28-3.76,9.15-5.98,44.02-34.03,87.95-68.19,132.05-102.12,5.27-4.05,8.53-8.72,10.51-15.07,28.29-90.93,56.78-181.79,85.19-272.68,1.36-4.36,2.51-8.78,3.98-13.93,8.19,2,15.92,3.7,23.52,5.82,4.77,1.33,5.84,4.75,4.33,9.4-3.18,9.82-6.1,19.72-9.19,29.57-27.08,86.42-54.25,172.82-81.16,259.29-2.58,8.29-6.54,14.65-13.58,20.08-51.97,40.09-103.64,80.58-155.48,120.84-2.71,2.1-6.2,3.21-9.32,4.79,0-13.33,0-26.67,0-40Z"/>
  <path class="st0" d="M2048,1748c-46.04,35.69-92.04,71.45-138.19,107-5.25,4.05-8.5,8.63-10.49,15.04-28.26,90.87-56.79,181.66-85.22,272.48-1.28,4.08-2.25,8.25-3.65,13.44-8.76-.19-17.14-3.22-25.46-5.92-1.6-.52-2.88-4.21-3-6.5-.13-2.51,1.18-5.13,1.98-7.66,29.73-94.95,59.51-189.88,89.11-284.86,2.27-7.3,5.91-12.86,12.07-17.62,50.31-38.9,100.42-78.08,150.56-117.2,4.19-3.27,8.2-6.79,12.29-10.19v42Z"/>
  <path class="st0" d="M0,1970c3.32-1.26,6.89-2.09,9.94-3.83,42.5-24.2,84.93-48.53,127.39-72.8,2.77-1.58,5.69-2.9,9.12-4.63,5.38,68.57,10.67,135.88,16.02,204.03-16.98-.86-32.42-1.65-48.46-2.47-10.11-37.84-20.04-75.01-30.38-113.72C55.17,1992.71,27.59,2008.36,0,2024c0-18,0-36,0-54Z"/>
  <path class="st0" d="M2048,762c-3.07,1.98-6.06,4.11-9.23,5.93-42.19,24.2-84.4,48.35-126.63,72.49-2.22,1.27-4.59,2.27-7.61,3.75-5.38-68.29-10.69-135.66-16.06-203.81,15.57.66,29.77,1.3,43.97,1.84,4.98.19,5.39,3.87,6.35,7.5,8.35,31.54,16.81,63.06,25.25,94.58.94,3.52,1.98,7.01,3.37,11.89,27.55-15.03,54.06-30.63,80.6-46.17v52Z"/>
  <path class="st0" d="M0,1662c2.93,2.67,6.08,5.15,8.76,8.05,57.77,62.71,115.45,125.52,173.29,188.17,5.2,5.63,8.2,11.63,9.23,19.28,6.72,49.82,13.76,99.59,20.67,149.38,2.93,21.1,5.86,42.21,8.7,63.32,1.17,8.74-.26,9.97-9.08,8.09-4.56-.97-9.08-2.11-13.6-3.23-9.95-2.47-10.04-2.47-11.47-12.96-8.9-65.31-17.8-130.62-26.52-195.95-.7-5.24-2.6-9.31-6.16-13.17-48.8-52.87-97.47-105.85-146.24-158.74-2.2-2.38-5.04-4.17-7.59-6.24,0-15.33,0-30.67,0-46Z"/>
  <path class="st0" d="M2048,1068c-1.48-1.19-3.14-2.2-4.41-3.58-58.21-63.21-116.34-126.49-174.63-189.63-5.44-5.9-8.28-12.2-9.37-20.25-8.76-64.65-17.97-129.24-26.99-193.86-1.17-8.42-1.99-16.89-2.95-25.19,6.68-3.28,11.69-.32,16.65.81,16.35,3.71,16.55,3.83,18.87,20.64,7.07,51.11,13.95,102.24,20.91,153.37,1.66,12.2,3.56,24.38,4.96,36.61.64,5.61,3.05,9.8,6.83,13.89,46.79,50.64,93.43,101.41,140.1,152.15,3.37,3.66,6.68,7.36,10.02,11.04v44Z"/>
  <path class="st0" d="M0,1566c1.83-2.6,4.13-4.99,5.39-7.84,3.09-6.95,5.7-14.1,8.48-21.12,13.29,4.56,202.9,108.21,208.76,113.94-5.02,5.99-114.65,71.53-135.97,81.12-9.31-10.18-18.9-20.66-29.09-31.8,9.91-11.2,22.68-17.82,34.09-26.11,11.57-8.39,23.44-16.36,36.43-25.37-3.71-2.2-6.37-3.88-9.12-5.39-33.56-18.45-67.14-36.86-100.7-55.3-6.1-3.35-12.18-6.76-18.27-10.14,0-4,0-8,0-12Z"/>
  <path class="st0" d="M2048,1170c-2.47,5.67-4.93,11.35-7.41,17.02-1.29,2.96-2.61,5.91-3.89,8.8-15.27-5.55-202.71-108.24-208.36-114.01,5.2-5.93,115.66-71.9,135.89-81,9.49,10.37,19.25,21.04,29.56,32.29-22.24,19.23-47.05,33.06-70.31,51.06,3.22,2.05,5.77,3.89,8.51,5.39,30.61,16.84,61.28,33.58,91.87,50.45,8.14,4.49,16.1,9.32,24.14,14,0,5.33,0,10.67,0,16Z"/>
  <path class="st0" d="M0,1728c1.92.99,4.33,1.55,5.69,3.05,41.77,46.1,83.43,92.29,125.09,138.48.42.46.55,1.18,1.11,2.47-1.48,1.31-2.94,3.07-4.79,4.16-39.9,23.34-79.83,46.63-119.83,69.8-2.11,1.22-4.84,1.38-7.28,2.04,0-20,0-40,0-60,.99-.05,2.2.25,2.93-.21,16.8-10.68,33.55-21.45,51.43-32.92-18.04-19.12-35.35-37.47-52.67-55.8-.44-.47-1.11-.72-1.68-1.07,0-23.33,0-46.67,0-70Z"/>
  <path class="st0" d="M2048,1004c-.8-.48-1.78-.81-2.38-1.48-40.56-44.9-81.1-89.82-121.61-134.76-1.74-1.93-3.24-4.07-5.65-7.14,3.39-2.27,6.2-4.37,9.2-6.12,35.3-20.61,70.63-41.17,105.94-61.76,4.87-2.84,9.67-5.83,14.5-8.75v62c-13.21,8.15-26.44,16.28-39.63,24.48-3.59,2.23-7.03,4.69-11.19,7.49,17.42,19.21,34.12,37.62,50.82,56.03v70Z"/>
  <path class="st0" d="M0,618c16-3.01,32.04-5.86,48-9.07,26.72-5.36,53.4-10.95,80.12-16.44,1.24,9.16-23.53,121.75-29.91,135.26-3.13-1.36-6.39-2.6-9.5-4.15-26.23-13.07-52.41-26.22-78.64-39.28-3.26-1.62-6.7-2.89-10.06-4.32,0-20.67,0-41.33,0-62Z"/>
  <path class="st0" d="M2048,2114c-16.86,3.72-33.7,7.55-50.59,11.12-23.75,5.02-47.54,9.85-71.32,14.73-.95.19-1.97.03-4.07.03.16-2.9-.09-5.81.52-8.52,9.13-40.55,18.36-81.08,27.62-121.59.28-1.21,1.12-2.3,2.38-4.77,32.41,14.92,63.52,31.83,95.47,47.01v62Z"/>
  <path class="st0" d="M1318,0c-1.79,1.87-3.35,4.03-5.39,5.56-39.47,29.58-79,59.09-118.53,88.58-1.58,1.18-3.35,2.12-4.78,3.01-32.15-31.26-64.09-62.32-96.01-93.4-1.19-1.16-2.19-2.5-3.29-3.75,76,0,152,0,228,0Z"/>
  <path class="st0" d="M734,2732c1.54-1.63,2.87-3.53,4.64-4.85,39.37-29.49,78.78-58.92,118.21-88.34,1.56-1.16,3.29-2.09,4.78-3.03,27.16,26.41,54,52.49,80.8,78.6,5.94,5.79,11.72,11.74,17.58,17.61h-226Z"/>
  <path class="st0" d="M0,790c2.74.89,5.74,1.33,8.18,2.74,39.7,22.99,79.34,46.09,118.97,69.22,2.15,1.25,4.03,2.97,6.15,4.55-42.84,29.48-84.89,58.44-127,87.3-1.77,1.21-4.18,1.48-6.29,2.19,0-25.33,0-50.67,0-76,10.28-6.07,17.09-15.65,26.76-24.85C16.82,850.27,8.41,846.13,0,842c0-17.33,0-34.67,0-52Z"/>
  <path class="st0" d="M2048,1944c-3.34-2.16-6.6-4.47-10.04-6.47-37.63-21.95-75.29-43.84-112.92-65.78-2.47-1.44-4.79-3.16-8.34-5.54,4.41-2.66,7.76-4.44,10.86-6.57,38.37-26.38,76.71-52.8,115.03-79.25,1.91-1.32,3.61-2.92,5.41-4.39v78c-7.48,7.48-14.96,14.95-23.47,23.46,8.47,4.52,15.97,8.53,23.47,12.54v54Z"/>
  <path class="st0" d="M0,1162c1.35,2.5,3.35,4.85,3.95,7.51,15.32,67.78,30.49,135.59,45.7,203.39,1.35,6.02.84,11.67-1.56,17.51-14.41,35.06-28.52,70.25-42.87,105.33-1.21,2.97-3.46,5.51-5.23,8.25,0-28.67,0-57.33,0-86,1.27-1.49,3-2.78,3.73-4.49,4.66-10.96,9.36-21.92,13.43-33.1,1.15-3.16.91-7.22.18-10.62-4.22-19.73-8.69-39.41-13.31-59.06-.72-3.06-2.66-5.82-4.03-8.73,0-46.67,0-93.33,0-140Z"/>
  <path class="st0" d="M2048,1568c-2.99-13.23-6.02-26.45-8.98-39.68-12.48-55.8-24.84-111.62-37.52-167.37-1.56-6.88-.93-12.86,1.72-19.3,13.43-32.58,26.55-65.29,39.79-97.95,1.59-3.93,3.32-7.8,4.98-11.7v86c-4.93,11.87-10.05,23.66-14.65,35.66-.96,2.5-.42,5.84.17,8.63,3,14.28,6.19,28.53,9.41,42.76,1.58,7.01,3.37,13.97,5.07,20.95v142Z"/>
  <path class="st0" d="M0,2052c16.29-8.98,32.61-17.89,48.85-26.94,13.6-7.57,13.55-7.64,17.81,7.82,3.61,13.13,7.31,26.24,10.82,39.4,1.27,4.78,2.13,9.66,3.47,15.89-27.66,1.13-54.29-2.25-80.95-2.17C0,2074.67,0,2063.33,0,2052Z"/>
  <path class="st0" d="M2048,682c-19.03,10.66-38.06,21.32-58.24,32.62-6.24-11.61-7.63-23.53-10.98-34.72-3.41-11.37-5.99-22.99-9.07-35.02,2.98-.36,4.9-.85,6.8-.78,21.91.83,43.81,1.73,65.71,2.69,1.94.09,3.86.79,5.78,1.21v34Z"/>
  <path class="st0" d="M0,1058c5.69-3.93,11.38-7.86,17.9-12.37,2.74,3.88,5.98,7.3,7.87,11.34,11.4,24.34,22.5,48.81,33.64,73.27.66,1.45.81,3.14,1.51,6-15.21,2.71-30.03,5.35-45.79,8.16-1.17-3.85-2.28-6.86-2.98-9.96-2.72-11.97-5.18-24-8.06-35.92-.73-3-2.69-5.69-4.09-8.52,0-10.67,0-21.33,0-32Z"/>
  <path class="st0" d="M2048,1676c-4.63,3.68-9.25,7.36-14.71,11.69-3.05-4.34-6.26-7.74-8.14-11.76-11.53-24.64-22.76-49.42-34.05-74.17-.52-1.15-.64-2.48-1.21-4.78,15.5-2.64,30.23-7.18,46.92-7.42,3.09,14.54,6.08,28.71,9.13,42.88.55,2.55,1.36,5.05,2.05,7.57v36Z"/>
  <path class="st0" d="M0,1596c2.06,1.01,4.31,1.76,6.16,3.07,21.4,15.12,42.74,30.33,64.1,45.5,1.6,1.13,3.26,2.17,5.88,3.92-12.98,10.91-24.53,20.62-36.57,30.74-2.58-2.26-4.64-3.77-6.35-5.62-8.56-9.26-16.93-18.68-25.58-27.85-2.16-2.29-5.08-3.85-7.64-5.75,0-14.67,0-29.33,0-44Z"/>
  <path class="st0" d="M2048,1136c-23.98-16.98-47.97-33.95-73.06-51.71,12.82-10.75,24.38-20.45,36.9-30.95,12.42,13.28,24.29,25.96,36.15,38.65v44Z"/>
  <path class="st0" d="M0,1798c.56.35,1.23.6,1.68,1.07,17.33,18.33,34.63,36.68,52.67,55.8-17.87,11.46-34.62,22.23-51.43,32.92-.73.46-1.94.16-2.93.21,0-10.67,0-21.33,0-32,2.85-1.89,5.7-3.78,8.98-5.96-2.5-4.32-4.65-7.34-8.98-8.04C0,1827.33,0,1812.67,0,1798Z"/>
  <path class="st0" d="M2048,934c-16.7-18.41-33.4-36.82-50.82-56.03,4.16-2.8,7.61-5.26,11.19-7.49,13.18-8.2,26.41-16.33,39.63-24.48v32c-1.87,1.68-3.73,3.36-6.31,5.68,2.41,2.41,4.36,4.37,6.31,6.32v44Z"/>
  <path class="st0" d="M0,1302c1.37,2.9,3.31,5.67,4.03,8.73,4.62,19.64,9.09,39.32,13.31,59.06.73,3.41.97,7.46-.18,10.62-4.07,11.18-8.77,22.14-13.43,33.1-.73,1.72-2.46,3.01-3.73,4.49,0-38.67,0-77.33,0-116Z"/>
  <path class="st0" d="M2048,1426c-1.7-6.98-3.48-13.94-5.07-20.95-3.22-14.24-6.41-28.48-9.41-42.76-.59-2.8-1.13-6.13-.17-8.63,4.6-12,9.71-23.79,14.65-35.66v108Z"/>
  <path class="st0" d="M0,842c8.41,4.13,16.82,8.27,26.76,13.15C17.09,864.35,10.28,873.93,0,880,0,867.33,0,854.67,0,842Z"/>
  <path class="st0" d="M2048,1890c-7.5-4.01-15.01-8.02-23.47-12.54,8.51-8.5,15.99-15.98,23.47-23.46v36Z"/>
  <path class="st0" d="M0,536c1.56,7.35,3.48,14.65,4.6,22.07,1.61,10.71,2.64,21.51,4,32.93-3.6.42-6.1.71-8.6,1,0-18.67,0-37.33,0-56Z"/>
  <path class="st0" d="M2048,2188c-1.24-9.4-2.5-18.8-3.73-28.2-.6-4.59-1.22-9.17-1.65-13.78-.37-4.05,1.41-5.58,5.37-4.02v46Z"/>
  <path class="st0" d="M0,1842c4.33.69,6.48,3.71,8.98,8.04-3.28,2.18-6.13,4.07-8.98,5.96,0-4.67,0-9.33,0-14Z"/>
  <path class="st0" d="M2048,890c-1.95-1.96-3.91-3.91-6.31-6.32,2.58-2.32,4.45-4,6.31-5.68v12Z"/>
  <path class="st0" d="M264.99,554.32c-9.46-5.06-18.38-8.8-26.13-14.22-12.62-8.81-24.57-8.7-39.08-3.84-52.73,17.65-105.93,33.87-158.96,50.62-12.65,4-12.83,3.89-12.72-9.45,1.48-175.96,2.97-351.92,4.49-527.88.03-3.58.41-7.15.65-11.12,3.46-.27,6.05-.62,8.65-.65,58.32-.67,116.64-1.15,174.95-2.13,7.68-.13,11.96,2.33,16.08,8.68,20.51,31.57,41.48,62.85,62.47,94.1,3.16,4.7,4.17,9.18,3.66,14.88-3.9,44.14-7.41,88.31-11.07,132.47-4.38,52.79-8.8,105.58-13.19,158.37-2.82,33.87-5.59,67.74-8.43,101.6-.21,2.49-.78,4.95-1.37,8.58Z"/>
  <path class="st0" d="M1785.49,2179.25c2.62.93,4.18,1.27,5.54,1.99,10,5.31,20.2,10.29,29.85,16.19,6.84,4.18,13.01,4.53,20.63,2.08,55.45-17.86,111.04-35.32,166.6-52.84,4.04-1.27,8.21-2.11,13.67-3.49.35,5.22.9,9.35.87,13.48-.62,77.96-1.32,155.91-1.99,233.87-.83,97.28-1.65,194.56-2.47,291.84-.03,3.9,0,7.79,0,12.49-4.88.25-8.45.55-12.02.59-57.63.64-115.27,1.13-172.9,2.02-6.9.11-10.84-2.17-14.55-7.85-20.58-31.51-41.45-62.84-62.51-94.03-3.59-5.33-4.79-10.52-4.24-16.79,3.06-35.17,5.83-70.37,8.75-105.55,3.06-36.84,6.18-73.68,9.25-110.52,3.77-45.14,7.53-90.28,11.26-135.42,1.07-12.95,1.99-25.9,3.05-38.85.23-2.82.74-5.62,1.22-9.19Z"/>
  <path class="st0" d="M1125.46,2013.81c-11.63,33.07-22.9,65.06-34.12,97.06-20.48,58.42-40.93,116.85-61.39,175.27-.44,1.24-.56,2.85-1.42,3.63-1.05.95-2.74,1.62-4.12,1.56-.69-.03-1.81-1.94-1.84-3.02-.07-2.98.55-5.97.51-8.95-.87-75.28-1.78-150.56-2.72-225.85-.03-2.59-.42-5.17-.69-8.29-14.63-2.96-28.91-5.93-43.23-8.74-25.47-5-51.02-9.65-76.4-15.05-6.14-1.31-10.81-.1-15.95,2.78-67.38,37.78-134.83,75.45-202.26,113.14-27.61,15.44-55.23,30.86-82.83,46.32-4.94,2.77-9.83,5.43-16.12,2.82-.32-5.01,3.83-6.78,6.58-9.2,29.23-25.79,58.54-51.47,87.84-77.18,42.82-37.57,85.72-75.05,128.4-112.77,5.6-4.95,11.08-7.12,18.77-6.75,32.6,1.57,65.24,2.43,97.86,3.52,34.29,1.15,68.58,2.26,102.86,3.44,2.31.08,4.67.37,6.9.95,29.64,7.67,59.27,15.39,88.88,23.15,1.5.39,2.85,1.35,4.49,2.14Z"/>
  <path class="st0" d="M1513.26,2160.08c-1.2-3.58-2.5-6.44-3.1-9.43-13.33-66.6-26.6-133.21-39.85-199.83-5.78-29.06-11.41-58.16-17.36-87.18-.94-4.61-.33-8.28,2.14-12.23,36.13-57.95,72.13-115.97,108.23-173.94,1.39-2.23,3.24-4.22,5.09-6.11,21.45-21.9,42.93-43.76,64.44-65.6.66-.67,1.67-1,3.12-1.83,21.35,24.9,42.71,49.82,64.08,74.72,21.27,24.78,42.56,49.53,63.82,74.31,21.33,24.87,42.73,49.68,64.02,74.59-.51.75-1.02,1.51-1.53,2.26-1.87-.49-3.94-.61-5.57-1.52-68.47-38.6-136.9-77.27-205.35-115.91-1.4-.79-2.94-1.33-5.25-2.35-1.48,1.83-2.89,3.69-4.41,5.43-25.41,29.12-50.77,58.3-76.34,87.27-3.78,4.28-5.33,8.61-5.4,14.3-1.32,108.61-2.83,217.23-4.24,325.84-.08,6.02-.11,11.88-6.52,17.21Z"/>
  <path class="st0" d="M440.41,1023.32c2.19-2.65,3.81-4.73,5.55-6.72,24.98-28.63,49.87-57.33,75.05-85.78,4.05-4.58,5.65-9.18,5.73-15.22,1.46-108.31,3.11-216.62,4.68-324.92.09-5.95-.18-11.91,4.59-16.73,4.62,1.12,3.98,5.05,4.57,7.98,6.54,32.32,12.98,64.65,19.42,96.99,12.36,62.06,24.58,124.15,37.22,186.15,1.59,7.82.35,13.93-3.83,20.6-35.23,56.17-70.15,112.54-105.22,168.81-1.57,2.51-3.48,4.88-5.56,6.99-21,21.42-42.05,42.78-63.15,64.11-1.29,1.31-3.05,2.16-4.61,3.23-39.85-46.41-79.3-92.38-118.78-138.32-23.02-26.79-46.07-53.56-69.17-80.29-2-2.31-4.34-4.28-1.1-7.75,71.13,40.06,142.14,80.06,214.61,120.88Z"/>
  <path class="st0" d="M925.87,719.05c21.6-61.45,42.8-121.72,63.97-182,10.48-29.85,20.91-59.71,31.36-89.57.92-2.64.85-6.31,6.25-5.19.9,81.33,1.8,162.77,2.7,245.06,3.62.92,7.03,1.95,10.5,2.64,35.92,7.14,71.88,14.13,107.77,21.42,7.17,1.46,13.18.73,19.82-3,93.79-52.73,187.75-105.15,281.68-157.62,5.39-3.01,10.62-7.05,18.91-3.22-2.75,2.89-4.92,5.56-7.47,7.81-39.55,34.76-79.14,69.46-118.72,104.18-32.32,28.34-64.8,56.51-96.82,85.19-6.28,5.62-12.48,7.49-20.64,7.19-65.93-2.4-131.88-4.46-197.81-6.69-3.29-.11-6.63-.68-9.82-1.5-29.03-7.45-58.03-14.99-87.02-22.56-1.53-.4-2.92-1.32-4.67-2.13Z"/>
  <path class="st0" d="M564.21,563.56c42.4,71.65,84.04,142.01,125.83,212.63,3.25-.94,5.78-1.57,8.24-2.41,35.93-12.25,71.79-24.7,107.81-36.65,6.59-2.19,10.43-6.08,13.81-11.78,54.97-92.49,110.1-184.89,165.19-277.31,3.18-5.33,5.83-11.23,12.91-12.48,3.47,2.87.97,5.68.11,8.24-11.26,33.45-22.62,66.86-33.96,100.28-19.8,58.33-39.7,116.62-59.25,175.03-2.29,6.86-5.96,11.1-12.33,14.47-58.87,31.18-117.57,62.68-176.35,94.01-2.9,1.55-6.08,2.69-9.25,3.57-28.86,8.06-57.74,16.04-86.63,23.99-1.49.41-3.14.27-4.97.4-17.96-96.26-35.85-192.07-53.65-287.89-.12-.67.9-1.55,2.47-4.09Z"/>
  <path class="st0" d="M1435.51,1877.65c8.42,45.02,16.62,89.18,24.94,133.32,9.43,50.06,18.96,100.09,28.52,150.13.52,2.72,1.5,5.24-2.89,7.18-41.55-70.22-83.16-140.53-124.96-211.15-2.68.57-4.95.83-7.07,1.55-36.88,12.54-73.69,25.27-110.64,37.6-5.98,1.99-9.1,5.91-12.07,10.9-55.02,92.45-110.13,184.84-165.22,277.25-3.2,5.37-5.89,11.22-13.3,13.12-2.8-3.45-.59-6.78.49-9.98,10.42-30.92,20.88-61.82,31.37-92.71,20.34-59.9,40.87-119.73,60.86-179.74,2.66-7.99,7-12.68,14.24-16.51,58.3-30.82,116.4-61.99,174.59-93.02,2.33-1.24,4.75-2.5,7.27-3.2,29.83-8.3,59.68-16.51,89.54-24.68,1.19-.32,2.54-.04,4.33-.04Z"/>
  <path class="st0" d="M206.02,922.26c3.51,3.45,5.91,5.54,7.99,7.9,63.96,72.87,127.86,145.78,191.89,218.59,3.56,4.04,5.1,8.06,4.91,13.46-2.32,67.92-4.45,135.86-6.69,203.78-.09,2.63-.65,5.28-1.31,7.83-7.62,29.66-15.3,59.31-23,88.95-.24.91-.92,1.71-1.31,2.39-.51.26-.79.45-1.11.55-.3.1-.67.24-.94.15-91.61-32.36-183.22-64.74-274.82-97.14-.27-.1-.49-.45-.65-.74-.16-.28-.23-.62-.29-.94-.05-.31-.04-.64-.11-2.25,7.87-1.51,16.01-.3,24.01-.61,7.99-.31,15.99-.16,23.99-.22,8.33-.06,16.66-.13,24.99-.2,8.33-.07,16.66-.15,24.99-.23,8.33-.08,16.66-.15,24.99-.27,8-.11,15.99-.29,23.99-.43,8.33-.14,16.66-.27,24.99-.37,8.33-.1,16.66-.17,24.99-.23,8-.06,15.99-.13,23.99-.16,8.25-.03,16.5,0,25.26,0,3.11-15.39,6.05-29.67,8.87-43.98,5.01-25.48,9.7-51.03,15.1-76.43,1.37-6.43.27-11.43-2.82-16.94-52.91-94.43-105.67-188.95-158.51-283.42-2.91-5.2-5.81-10.27-3.37-19.05Z"/>
  <path class="st0" d="M93.99,1391.69c4.16,1,6.98,1.44,9.66,2.35,92.38,31.31,184.73,62.68,277.13,93.94,4.73,1.6,7.85,4.17,10.22,8.64,31.92,59.97,64.01,119.85,96,179.78,1.24,2.32,2.15,4.88,2.86,7.42,8.02,28.87,15.98,57.75,23.9,86.64.5,1.82.44,3.79.67,6.04-16.41,3.09-32.33,6.12-48.26,9.09-16.36,3.05-32.75,6-49.11,9.07-16.03,3.01-32.04,6.14-48.07,9.16-16.03,3.02-32.08,5.95-48.11,8.95-16.36,3.07-32.68,6.39-49.08,9.21-15.69,2.7-31.17,7.02-47.03,8.01-.34-1.77-.47-2.1-.45-2.41.02-.32.14-.66.29-.95.15-.28.35-.56.59-.76.51-.42,1.04-.83,1.61-1.16,67.42-39.73,134.85-79.45,202.28-119.18.86-.51,1.71-1.03,2.56-1.56.56-.35,1.13-.71,1.66-1.11.26-.2.46-.48.65-.76.18-.27.31-.58.81-1.55-.78-2.61-1.63-5.77-2.69-8.87-12.02-35.29-24.2-70.53-36-105.9-2.04-6.12-5.42-10.03-10.89-13.28-92.77-55.12-185.43-110.41-278.13-165.66-5.35-3.19-11.23-5.85-13.07-15.15Z"/>
  <path class="st0" d="M1955.97,1340.87c-4.45-1.13-8.54-1.88-12.44-3.2-79.14-26.81-158.25-53.68-237.37-80.54-11.03-3.75-21.97-7.83-33.14-11.11-6.9-2.03-11.17-5.83-14.55-12.24-27.83-52.71-55.81-105.35-84.21-157.76-8.31-15.33-14.83-31.06-19.08-47.98-5.58-22.27-12.18-44.29-18.29-66.43-.41-1.5-.39-3.11-.62-5.1,19.04-3.56,37.6-7.02,56.16-10.51,75.57-14.22,151.15-28.45,226.71-42.72,2.88-.54,5.82-2.4,8.19,2.55-70.24,41.57-140.56,83.18-211.69,125.27,1.16,3.69,2.15,7.1,3.29,10.45,11.8,34.66,23.8,69.26,35.31,104.02,2.36,7.12,6.17,11.75,12.62,15.58,92.8,55.06,185.46,110.37,278.14,165.62,5.03,3,10.76,5.47,10.95,14.1Z"/>
  <path class="st0" d="M1673.03,1266.65c93.02,32.96,184.86,65.51,276.68,98.12.36.13.38,1.19.55,1.81-.14.3-.25.62-.42.9-.16.27-.34.6-.6.73-.58.28-1.22.63-1.84.64-80.28.86-160.55,1.7-240.83,2.55-.32,0-.65.15-1.96.47-.68,2.26-1.76,4.97-2.32,7.79-7.33,36.9-14.46,73.84-21.98,110.7-1.43,6.99-.25,12.62,3.24,18.84,52.83,94.09,105.43,188.32,158.06,282.53,2.85,5.09,6.4,10.1,2.76,17.91-3.2-3.03-6.14-5.41-8.61-8.21-31.03-35.27-62-70.6-92.97-105.92-32.29-36.82-64.5-73.72-96.97-110.39-4.31-4.87-6.02-9.69-5.8-16.12,2.34-66.93,4.42-133.86,6.69-200.79.13-3.94,1.08-7.9,2.07-11.74,7.19-28.05,14.47-56.09,21.79-84.11.48-1.84,1.52-3.54,2.47-5.7Z"/>
  <path class="st0" d="M1262.88,756.06c59.81-51.35,118.92-102.09,178.01-152.84,13.64-11.72,27.24-23.5,40.82-35.29,2.24-1.94,4.23-4.48,7.78-1.11-40.17,71.32-80.27,142.53-120.52,213.99,2.73,2.59,4.8,4.71,7.02,6.65,28.58,25.01,57.24,49.93,85.7,75.08,4.29,3.8,8.65,5.33,14.33,5.4,108.6,1.33,217.19,2.83,325.78,4.28,5.94.08,11.95-.24,17.15,6.52-3.53,1.18-6.37,2.48-9.35,3.07-71.17,14.19-142.35,28.3-213.53,42.43-23.84,4.73-47.74,9.16-71.46,14.41-6.6,1.46-11.43-.03-16.75-3.35-53.94-33.73-107.91-67.39-162.01-100.86-8.28-5.12-15.75-10.95-22.63-17.83-19.08-19.07-38.46-37.86-57.68-56.79-.9-.89-1.49-2.09-2.64-3.76Z"/>
  <path class="st0" d="M787.99,1976.85c-73.28,63.01-145.98,125.53-218.72,187.99-1.72,1.48-3.96,2.35-5.95,3.5-.66-.66-1.32-1.32-1.98-1.97,40.05-71.12,80.1-142.25,120.63-214.23-2.59-2.45-5.1-4.97-7.76-7.31-28.08-24.58-56.25-49.04-84.2-73.77-4.54-4.02-9.1-5.81-15.18-5.89-92.28-1.12-184.56-2.44-276.84-3.75-17.32-.25-34.64-.71-51.97-.94-5.12-.07-9.76-.92-14.36-6.29,3.77-1.17,6.66-2.34,9.66-2.95,31.98-6.45,63.98-12.83,95.97-19.2,62.36-12.43,124.74-24.77,187.07-37.36,7.27-1.47,13.22-.61,19.72,3.47,56.41,35.43,113.05,70.5,169.59,105.72,2.23,1.39,4.36,3.06,6.24,4.9,22.14,21.68,44.22,43.41,66.29,65.16.67.66,1.03,1.64,1.8,2.92Z"/>
  <path class="st0" d="M1518.28,2547.44c17.16,4.43,32.87,8.54,48.61,12.53,46.77,11.88,93.54,23.77,140.36,35.46,3.81.95,6.57,2.27,8.7,5.7,19.32,31.12,38.78,62.15,58.15,93.25,1,1.61,1.51,3.53,2.3,5.45-3.2,3.46-7.05,2.29-10.47,2.28-54.63-.19-109.25-.42-163.88-.75-43.97-.27-87.93-.72-131.9-.98-5.22-.03-10.44.62-16.29,1-1.99-3.66.93-7.05,2.38-10.45,13.44-31.54,27.02-63.03,40.56-94.53,5.91-13.76,11.79-27.54,17.74-41.29,1.16-2.69,2.57-5.27,3.75-7.68Z"/>
  <path class="st0" d="M83.25,2404.69c1.19-.74,2.21-1.86,3.35-2,54.18-6.5,108.37-12.91,162.21-19.3,17.85,63.01,35.38,125.07,53.09,187.08,1.26,4.41,1.37,8-.9,12.21-17.05,31.68-33.85,63.5-50.77,95.25-1.06,1.98-2.49,3.77-4.75,7.12-2.72-3.92-5.1-6.84-6.94-10.07-28.89-50.64-57.72-101.32-86.55-151.99-20.1-35.33-40.17-70.67-60.35-105.95-2.26-3.95-5.11-7.55-8.4-12.35Z"/>
  <path class="st0" d="M1805.72,47.48c3.23,5.12,5.61,8.57,7.68,12.19,48.3,84.79,96.54,169.62,144.87,254.39,2.73,4.78,6.08,9.2,9.14,13.79-6.52,3.41-145.77,21.05-165.54,20.95-7.21-25.49-14.43-50.99-21.63-76.5-10.31-36.52-20.5-73.08-31.06-109.53-1.41-4.88-1.27-8.77,1.13-13.22,16.85-31.4,33.5-62.91,50.25-94.36,1.06-1.99,2.5-3.77,5.16-7.72Z"/>
  <path class="st0" d="M532.27,185.32c-25.57-6.53-50.33-12.91-75.11-19.18-37.76-9.56-75.53-19.07-113.33-28.5-3.73-.93-6.6-2.28-8.76-5.77-19.66-31.71-39.49-63.31-59.24-94.97-.67-1.08-.97-2.38-2.02-5.04,4.44-.49,8.14-1.28,11.83-1.25,43.98.26,87.96.72,131.95.98,55.31.33,110.62.54,165.94.71,4.5.01,9-.66,13.5-1.02-.21,7.04-55.68,138.84-64.75,154.03Z"/>
  <path class="st0" d="M1513.7,2338.95c-19.08,17.56-37.2,34.25-55.33,50.92-24.77,22.78-49.56,45.53-74.3,68.34-2.92,2.69-5.72,5.57-8.25,8.62-2.72,3.27-5.83,4.1-9.75,2.78-14.21-4.77-28.44-9.47-42.62-14.32-1.44-.49-2.57-1.86-4.91-3.62,2.37-2.81,4.13-5.46,6.43-7.54,52.37-47.38,104.81-94.69,157.23-142.02,12.86-11.61,25.68-23.25,38.56-34.85,3.15-2.83,6.41-5.54,10.49-9.06,2.48,3.63,4.46,6.18,6.07,8.94,59.39,101.87,118.75,203.74,178.04,305.67,1.88,3.23,6.05,6.66,2.94,10.66-3.22,4.13-7.47.57-11-.54-13.65-4.3-27.18-8.97-40.79-13.43-5.34-1.75-9.57-4.28-10.89-10.41-.53-2.49-2.25-4.78-3.68-7-43.77-67.7-87.57-135.38-131.38-203.05-1.96-3.03-4.05-5.98-6.84-10.1Z"/>
  <path class="st0" d="M1734.54,158.27c.89,2.67,2.17,5.59,2.83,8.65,2.92,13.67,5.6,27.4,8.49,41.08,1.23,5.8.81,10.72-3.14,15.86-4,5.2-6.44,11.6-9.48,17.52-34.94,68.16-69.86,136.34-104.77,204.52-1.81,3.53-3.42,7.15-5.53,11.56,3.63,1.28,6.66,2.47,9.76,3.43,56.88,17.74,113.76,35.48,170.68,53.11,3.53,1.09,5.86,2.59,6.62,6.43,2.81,14.38,5.84,28.71,8.61,43.09.33,1.71-.48,3.63-.98,6.87-90.89-29.36-180.96-58.45-270.09-87.24-.71-1.72-.89-2.01-.93-2.32-.04-.32-.05-.72.1-.98,59.9-105.01,119.81-210.01,179.72-315.02.66-1.16,1.32-2.32,2.04-3.44.35-.56.79-1.08,1.27-1.54.47-.45,1.03-.83,1.59-1.17.27-.16.62-.21.94-.27.33-.05.66-.05,2.29-.15Z"/>
  <path class="st0" d="M519.78,474.3c-2.83-4.49-4.66-7.22-6.31-10.04-59.07-101.32-118.14-202.64-177.12-304.01-1.85-3.19-6.3-6.71-2.94-10.56,3.29-3.79,7.51.15,11.04,1.24,12.72,3.93,25.24,8.53,37.96,12.49,5.8,1.81,10.27,4.38,12.02,10.65.61,2.17,2.11,4.13,3.37,6.08,44.54,68.82,89.09,137.62,133.66,206.42,1.61,2.49,3.38,4.87,5.62,8.1,3.32-2.94,6.28-5.47,9.14-8.11,43.36-40,86.67-80.04,130.15-119.91,1.88-1.73,5.62-3.23,7.8-2.56,14.95,4.6,29.71,9.78,44.5,14.87.79.27,1.27,1.43,2.2,2.54-.77,1.35-1.27,3.06-2.39,4.08-69.11,62.56-138.27,125.07-208.69,188.72Z"/>
  <path class="st0" d="M427.97,2275.49c-3.7-1.32-6.72-2.5-9.8-3.47-54.3-17.04-108.48-34.49-163.03-50.7-10.8-3.21-15.18-8.15-16.4-18.65-1.15-9.88-3.91-19.57-5.81-29.37-.54-2.79-.56-5.68-.86-9.01,2.94,0,4.98-.48,6.69.07,88.57,28.53,177.11,57.15,267.38,86.32-62.04,108.29-123.21,215.09-184.49,321.83-.66,1.14-2.66,1.52-4.69,2.6-1.12-2.6-2.35-4.54-2.81-6.65-3.28-15.29-6.61-30.58-9.41-45.97-.6-3.3.13-7.35,1.6-10.41,3.58-7.46,8.18-14.42,11.97-21.8,34.97-68.12,69.86-136.28,104.75-204.45,1.63-3.19,3.08-6.48,4.92-10.35Z"/>
  <path class="st0" d="M209.84,829.32c35.61,18.21,69.08,37.26,102.95,55.56,33.96,18.35,67.8,36.91,102.27,55.7,8.5-8.51,16.71-16.73,24.91-24.96,6.82-6.84,13.49-13.85,20.51-20.48,3.68-3.48,5.09-7.3,5.23-12.32,1.36-50.29,2.89-100.58,4.41-150.86,1.49-49.62,2.97-99.24,4.58-148.86.24-7.26,1.16-14.5,1.83-22.57,11.65-1.8,22.7-3.51,35.18-5.44.18,4.65.53,8.45.45,12.24-1.29,58.63-2.62,117.25-3.96,175.88-1.23,53.63-2.57,107.25-3.56,160.89-.11,5.86-2.23,9.71-6.06,13.83-20.42,21.96-40.53,44.21-60.74,66.36q-8.08,8.86-18.17,3.44c-70.63-38.13-141.26-76.27-211.88-114.41-2.05-1.11-4.45-1.91-5.99-3.53-1.41-1.48-3-4.18-2.55-5.8,3.08-11.13,6.68-22.11,10.59-34.66Z"/>
  <path class="st0" d="M1635.75,1792.47c-8.41,8.43-16.38,16.41-24.35,24.4-6.59,6.61-12.99,13.42-19.82,19.75-4.21,3.9-5.98,8.16-6.13,13.93-.75,29.31-1.97,58.6-2.87,87.91-2.24,72.26-4.38,144.53-6.64,216.79-.16,5.28-.94,10.54-1.55,17.15-11.5,1.8-22.77,3.57-35.38,5.54-.21-4.1-.57-7.25-.5-10.4,2.54-113.25,5.13-226.5,7.7-339.75.08-3.67.36-6.83,3.27-9.95,21.58-23.15,42.88-46.56,64.26-69.89,7.37-8.04,7.46-8.13,16.75-3.12,71.23,38.43,142.44,76.88,213.64,115.35,9.05,4.89,9.05,4.98,6.02,14.7-2.77,8.86-5.65,17.69-8.95,27.98-5.33-2.41-10.15-4.24-14.64-6.68-59.69-32.45-119.34-64.99-179-97.49-3.49-1.9-7.04-3.72-11.81-6.23Z"/>
  <path class="st0" d="M1898.39,928.65c-33.47,21.86-66.79,41.24-99.59,61.45-32.85,20.25-65.85,40.26-99.21,60.63,2.97,11.21,5.74,21.78,8.57,32.34,2.42,9.01,5.37,17.9,7.2,27.02,1.37,6.84,4.95,10.91,10.75,14.49,76.31,47.04,152.49,94.27,228.67,141.5,12.45,7.72,24.76,15.68,37.09,23.61,1.92,1.23,3.55,2.9,5.9,4.86-4.11,10.53-8.18,20.97-12.78,32.76-3.7-1.94-6.87-3.39-9.82-5.18-66.65-40.47-133.27-80.98-199.9-121.48-28.76-17.48-57.42-35.12-86.34-52.34-6.36-3.79-10.06-8.13-12.24-15.58-8.32-28.44-17.71-56.57-26.65-84.83-3.37-10.63-3.34-10.69,6.28-16.62,68.65-42.31,137.3-84.61,205.97-126.9,8.84-5.44,8.91-5.42,15.74,1.96,6.5,7.02,12.91,14.13,20.37,22.31Z"/>
  <path class="st0" d="M1097.94,2339c-11.27-4.38-21.44-8.34-33.01-12.84,1.66-3.45,2.89-6.67,4.64-9.57,23.99-39.61,48.05-79.19,72.11-118.76,34.27-56.38,68.59-112.72,102.73-169.17,3.26-5.39,7.04-8.62,13.37-10.52,29.03-8.69,57.83-18.13,86.73-27.26,10.12-3.2,10.19-3.19,15.86,6.01,42.49,68.92,84.96,137.86,127.42,206.8,5.18,8.42,5.18,8.52-1.79,14.96-7.06,6.52-14.24,12.92-22.47,20.36-3.59-5.19-6.94-9.57-9.8-14.26-35.65-58.26-71.24-116.57-106.85-174.85-1.72-2.82-3.56-5.57-5.69-8.92-3.26.71-6.47,1.29-9.61,2.12-16.74,4.43-33.41,9.13-50.22,13.29-6.26,1.55-10.3,4.68-13.73,10.24-52.64,85.37-105.49,170.61-158.35,255.84-3.32,5.35-7.12,10.39-11.35,16.52Z"/>
  <path class="st0" d="M587.76,493.48c21.47,33.3,40.98,66.54,61.17,99.35,20.23,32.87,40.25,65.87,60.64,99.26,3.57-.8,6.77-1.41,9.9-2.25,16.72-4.49,33.36-9.29,50.16-13.42,6.31-1.55,10.34-4.68,13.74-10.19,52.27-84.75,104.72-169.4,157.2-254.03,3.82-6.16,8.18-11.98,12.51-18.29,11.28,4.44,21.74,8.54,33.24,13.06-1.6,3.15-2.72,5.77-4.19,8.18-58.96,97.06-117.97,194.09-176.85,291.19-2.6,4.29-5.76,6.42-10.63,7.9-29.29,8.93-58.42,18.39-87.61,27.64-10.76,3.41-10.82,3.38-16.69-6.14-42.28-68.62-84.54-137.24-126.79-205.87-5.6-9.11-5.57-9.17,2.42-16.53,6.82-6.29,13.71-12.5,21.79-19.85Z"/>
  <path class="st0" d="M66.17,1405.21c4.06,2.35,7.17,4.07,10.21,5.91,95.9,58.29,191.76,116.62,287.73,174.79,4.85,2.94,7.63,6.3,9.32,11.88,8.89,29.3,18.35,58.43,27.58,87.62,3.25,10.26,3.25,10.33-5.81,15.92-68.89,42.45-137.79,84.88-206.71,127.29-8.71,5.36-8.78,5.32-15.77-2.25-6.31-6.83-12.54-13.74-19.82-21.73,5.11-3.58,9.45-6.98,14.11-9.83,58.23-35.63,116.5-71.18,174.77-106.76,2.82-1.72,5.63-3.48,8.82-5.46-.28-2.36-.28-4.65-.85-6.8-4.77-18.02-9.96-35.93-14.32-54.04-1.58-6.55-5.34-10.14-10.65-13.42-75.08-46.37-150.12-92.82-225.11-139.33-14.14-8.77-28.07-17.88-42.07-26.89-1.36-.87-2.48-2.12-4.47-3.87,4.21-10.67,8.42-21.31,13.05-33.04Z"/>
  <path class="st0" d="M1448.72,487.53c7.98,10.01,14.96,18.77,22.47,28.2-2.77,1.95-4.73,3.62-6.93,4.83-99.9,54.76-199.83,109.46-299.71,164.25-4.01,2.2-7.43,2.69-12.13,1.59-30.15-7.04-60.44-13.51-90.68-20.17-10.9-2.4-10.96-2.4-11.29-13.85-1.42-48.96-2.81-97.93-4.17-146.89-.86-30.98-1.65-61.96-2.45-92.94-.09-3.61-.01-7.23-.01-12.16,12.61-2.87,24.75-5.63,38.34-8.72.62,5.75,1.49,10.56,1.6,15.38,1.66,67.63,3.22,135.25,4.79,202.88.11,4.61.01,9.23.01,14,3.08,1.17,5.13,2.15,7.28,2.73,18.31,4.97,36.71,9.67,54.94,14.92,6.19,1.78,10.88-.38,15.98-3.12,79.2-42.61,158.44-85.15,237.7-127.65,14.35-7.69,28.82-15.15,44.25-23.25Z"/>
  <path class="st0" d="M2000.12,1423.39c-39.47,3.3-78.06,2.41-116.54,3.83-38.58,1.43-77.19,1.94-116.4,2.87-2.85,10.48-5.56,20.37-8.22,30.27-2.59,9.65-4.77,19.43-7.81,28.93-2.1,6.55-1.25,11.94,2.02,17.99,31.39,58.02,62.51,116.19,93.71,174.31,16.39,30.53,32.82,61.04,49.12,91.61,2.79,5.23,5.04,10.75,7.85,16.81-9.15,7.38-17.9,14.43-27.72,22.35-2.15-3.32-4.22-6.12-5.88-9.14-46.76-85.31-93.48-170.65-140.2-255.98-7.68-14.03-15.34-28.07-23.04-42.08-1.77-3.22-2.84-6.05-1.86-10.23,7.11-30.48,13.72-61.09,20.5-91.65q2.49-11.25,13.42-11.57c80.62-2.38,161.24-4.76,241.87-7.13,10.61-.31,10.81-.17,13.11,10.44,1.97,9.04,3.88,18.09,6.08,28.36Z"/>
  <path class="st0" d="M601.85,2244.98c-7.71-9.69-14.7-18.48-22.28-28.02,3.08-1.97,5.42-3.68,7.94-5.06,99.32-54.42,198.67-108.8,297.95-163.29,4.69-2.57,8.79-3.04,14.13-1.79,28.86,6.72,57.85,12.88,86.79,19.23,1.3.29,2.61.53,3.91.84,9.54,2.29,9.62,2.31,9.9,11.79,1.35,46.3,2.65,92.6,4,138.89,1.01,34.64,2.08,69.28,3.14,103.92.34,11,.39,11.09-9.97,13.44-9.03,2.05-18.1,3.89-28.36,6.08-.62-5.1-1.45-9.23-1.56-13.37-1.19-42.97-2.29-85.94-3.38-128.91-.71-27.98-1.35-55.96-2.05-83.95-.05-1.97-.34-3.94-.59-6.6-5.4-1.5-10.79-3.05-16.2-4.51-14.47-3.9-29.06-7.4-43.36-11.82-6.38-1.97-11.38-.81-16.96,2.19-88.28,47.53-176.62,94.93-264.99,142.31-5.53,2.96-11.33,5.43-18.07,8.64Z"/>
  <path class="st0" d="M50.72,1309.5c27.2-2.67,52.81-1.72,78.31-2.87,25.62-1.15,51.28-1.38,76.92-1.96,25.62-.59,51.23-1.12,77.17-1.68,1.09-2.98,2.16-5.38,2.83-7.88,4.69-17.35,9.02-34.81,14.09-52.05,1.85-6.3,1-11.32-2.04-16.96-47.69-88.53-95.23-177.15-142.75-265.78-2.81-5.25-5.14-10.76-8.25-17.34,9.1-7.32,18.02-14.48,28.04-22.54,2.3,3.79,4.23,6.7,5.91,9.76,45.61,83.23,91.19,166.47,136.78,249.7,8.64,15.77,17.24,31.56,25.93,47.3,1.97,3.58,3.04,6.86,2.02,11.28-6.92,30.17-13.46,60.43-20.12,90.66-2.64,11.95-2.64,12.02-15.08,12.37-79.25,2.22-158.5,4.4-237.76,6.59-2.66.07-5.33.06-7.99.13-3.44.09-5.79-1.35-6.56-4.81-2.38-10.67-4.71-21.36-7.47-33.92Z"/>
  <path class="st0" d="M1562.3,550.91c-11.39,23.97-24.41,45.96-36.48,68.42-12.29,22.89-24.86,45.62-37.29,68.44-12.25,22.49-24.48,44.99-36.89,67.81,1.95,2.24,3.55,4.31,5.38,6.14,12.94,12.97,26.03,25.81,38.85,38.9,3.71,3.79,7.53,5.69,13.03,5.84,62.95,1.77,125.89,3.79,188.83,5.76,39.63,1.24,79.26,2.48,118.89,3.84,4.62.16,9.21,1.03,14.84,1.68,1.76,11.55,3.48,22.86,5.43,35.67-4.53,0-7.74.06-10.94,0-112.59-2.54-225.18-5.12-337.78-7.59-5.23-.11-9.07-1.43-13.16-5.28-22.33-21-45.16-41.47-67.79-62.14-8.37-7.64-8.39-7.69-3.15-17.41,38.12-70.64,76.25-141.27,114.39-211.91.95-1.76,2.02-3.45,2.91-5.24,1.79-3.59,4.62-4.62,8.3-3.45,10.42,3.31,20.82,6.69,32.64,10.5Z"/>
  <path class="st0" d="M219.46,1915.55c-1.86-12.29-3.53-23.34-5.33-35.28,3.73-.22,6.63-.59,9.53-.52,79.27,1.74,158.54,3.52,237.8,5.32,33.64.76,67.27,1.73,100.92,2.23,6.14.09,10.32,2.11,14.78,6.28,22.13,20.72,44.69,40.98,67.06,61.44,7.86,7.19,7.87,7.27,2.73,16.79-38.28,70.92-76.57,141.83-114.87,212.73-5.23,9.68-5.29,9.71-15.38,6.53-8.82-2.78-17.61-5.68-27.73-8.96,2.57-5.54,4.49-10.36,6.96-14.89,32.61-59.97,65.3-119.91,97.97-179.85,1.74-3.2,3.41-6.44,5.33-10.06-1.83-2.13-3.41-4.21-5.23-6.04-12.94-12.97-26.06-25.77-38.84-38.9-3.99-4.09-8.15-6.02-13.95-6.18-73.59-2.03-147.18-4.27-220.77-6.47-24.64-.74-49.28-1.44-73.92-2.33-8.62-.31-17.22-1.16-27.04-1.84Z"/>
  <path class="st0" d="M1546.04,723.57c4.14,4.48,7.92,8.23,11.28,12.31,3.02,3.67,6.59,5.04,11.3,4.95,11.32-.23,22.65-.07,33.97-.07,65.95,0,131.89,0,197.84,0,6.27,0,12.55,0,19.84,0,2.33,15.88,4.52,30.86,6.89,47.03-6.89.46-12.74,1.28-18.57,1.16-84.58-1.74-169.15-4.02-253.73-5.09-17.16-.22-30.65-4.01-41.55-17.75-8.23-10.38-17.99-19.54-27.64-29.85,33.85-57.98,68.35-117.06,103.33-176.98,14.33,4.54,28.15,8.93,43.45,13.78-28.41,50.84-57.67,99.95-86.41,150.52Z"/>
  <path class="st0" d="M1654.34,1825.88c59.59,34.79,118.48,69.17,178.34,104.12-4.5,14.15-8.89,27.97-13.78,43.39-50.89-28.26-99.88-57.68-150.36-86.21-4.9,4.46-9.92,8.73-14.54,13.4-1.48,1.5-2.35,3.97-2.69,6.13-.46,2.93-.17,5.98-.17,8.98,0,74.96,0,149.91,0,224.87,0,6.61,0,13.22,0,20.7-15.88,2.36-30.86,4.59-46.96,6.99-.48-6.71-1.38-12.57-1.26-18.41,1.81-86.59,4-173.18,5.39-259.78.21-12.91,3.32-22.77,13.22-31.32,9.29-8.02,17.32-17.52,25.94-26.32,2.28-2.33,4.73-4.51,6.87-6.54Z"/>
  <path class="st0" d="M2016.12,1495.48h-173.27c-2.28,7.12-5.01,13.56-6.18,20.28-.53,3.06,1.55,6.94,3.29,9.96,24.37,42.47,48.91,84.84,73.36,127.26,16.14,27.99,32.22,56.01,48.31,84.03.81,1.4,1.47,2.89,2.7,5.34-12.27,9.68-24.41,19.26-37.2,29.36-4.14-6.61-7.93-12.05-11.1-17.83-42.79-77.96-85.46-155.98-128.31-233.91-2.9-5.27-3.91-9.91-2.15-15.96,4.19-14.37,7.43-29.02,11.14-43.53.89-3.49,2.09-6.91,3-9.85h206.43c3.29,14.76,6.44,28.88,10,44.86Z"/>
  <path class="st0" d="M941.17,2140.93v206.32c-15.05,3.29-29.17,6.38-44.56,9.74v-173.19c-7.25-2.22-13.74-4.87-20.49-5.99-3.09-.51-6.99,1.46-10.01,3.19-39.31,22.54-78.53,45.24-117.78,67.89-32.31,18.65-64.63,37.28-96.74,55.79-6.26-4.08-23.58-25.08-30.4-36.89,4.84-3.18,9.56-6.76,14.7-9.59,79.14-43.46,158.32-86.85,237.58-130.11,2.96-1.62,7.05-3.05,10.09-2.34,18.8,4.4,37.45,9.44,56.15,14.29.6.16,1.11.66,1.45.87Z"/>
  <path class="st0" d="M1340.41,2078.84c34.19,59.88,68,119.1,102.3,179.17-10.96,10.08-21.64,19.9-33.3,30.63-16.03-24.83-29.45-49.98-43.82-74.56-14.44-24.71-28.66-49.55-43.48-75.21-6.91,1.56-13.84,2.49-20.25,4.86-2.93,1.09-5.34,4.71-7.08,7.7-22.27,38.3-44.37,76.72-66.54,115.08-18.34,31.73-36.73,63.43-55.13,95.12-.98,1.68-2.17,3.24-3.89,5.79-14.5-5.76-28.84-11.46-43.93-17.46,3.79-7.09,6.64-13.09,10.06-18.73,46.13-76.06,92.39-152.05,138.44-228.16,3.17-5.23,6.84-8.18,12.9-9.67,14.87-3.66,29.51-8.22,44.26-12.35,3.13-.88,6.33-1.49,9.46-2.22Z"/>
  <path class="st0" d="M103.79,1749.34c50.01-28.9,99.27-57.36,149.31-86.28-1.53-6.8-2.31-13.48-4.7-19.53-1.27-3.23-4.96-6-8.19-7.88-43.48-25.3-87.08-50.39-130.62-75.57-26.53-15.34-53.02-30.75-79.52-46.14-1.42-.82-2.77-1.76-5.21-3.32,4.76-14.72,11.08-28.78,17.06-44.22,6.39,3.32,12.08,5.88,17.37,9.09,76.91,46.64,153.76,93.38,230.65,140.07,3.46,2.1,6.51,4.1,7.69,8.55,4.54,17.05,9.49,33.99,14.18,51,.6,2.17.62,4.49.88,6.53-59.41,33.92-118.37,67.58-177.2,101.17-6.37-3.62-23.29-21.38-31.69-33.48Z"/>
  <path class="st0" d="M710.49,654.05c-34.38-60.23-68.04-119.21-102.32-179.26,10.88-9.93,21.6-19.72,33.22-30.33,3.67,5.64,7.09,10.44,10.03,15.51,24.04,41.52,47.99,83.09,71.97,124.65,1.66,2.87,3.38,5.7,5.55,9.35,6.71-1.46,13.66-2.31,20.08-4.65,2.92-1.06,5.3-4.75,7.05-7.75,21.61-37.15,43.04-74.41,64.56-111.61,19.18-33.17,38.42-66.3,57.64-99.44.82-1.41,1.76-2.74,3.27-5.07,14.28,5.67,28.38,11.26,43.92,17.43-2.81,5.6-4.95,10.7-7.78,15.37-47.17,77.77-94.45,155.48-141.61,233.26-2.4,3.96-5.24,6.24-9.86,7.44-16.11,4.18-32.08,8.92-48.12,13.4-2.5.7-5.07,1.14-7.61,1.69Z"/>
  <path class="st0" d="M565.83,1995.67c-34.64,59.36-68.86,118-103.62,177.56-14.52-3.53-28.44-8.37-43.84-13.73,29.12-50.5,57.67-100.02,86.51-150.04-4.82-5.24-9.14-10.26-13.88-14.86-1.48-1.44-4.02-2.09-6.18-2.43-2.6-.41-5.32-.12-7.98-.12-75.64,0-151.28,0-226.92,0h-19.19c-2.37-15.77-4.65-31.01-7.1-47.34,7.78-.28,14.37-.83,20.95-.69,59.3,1.24,118.59,2.61,177.88,3.93,30.31.68,60.63,1.35,90.94,2.02,3.65.08,7.01.07,10.04,3.12,13.41,13.45,27.09,26.63,40.64,39.93.69.67,1.09,1.63,1.74,2.64Z"/>
  <path class="st0" d="M2026.45,1222.73c-5.91,14.81-11.44,28.68-17.45,43.76-5.62-2.85-10.73-5.03-15.43-7.89-77.78-47.17-155.51-94.43-233.26-141.65-3.16-1.92-5.72-3.83-6.82-7.96-4.7-17.7-9.9-35.27-14.85-52.9-.43-1.53-.36-3.21-.51-4.74,59.6-34.02,118.84-67.84,178.89-102.12,10.07,10.98,19.88,21.66,30.55,33.29-24.92,16.18-50.13,29.56-74.73,43.95-24.71,14.46-49.55,28.67-75.01,43.39,1.57,7.04,2.45,14.01,4.84,20.42,1.09,2.91,4.87,5.2,7.9,6.95,40.91,23.76,81.92,47.36,122.88,71.04,29.13,16.85,58.22,33.76,87.32,50.66,1.68.98,3.24,2.16,5.66,3.78Z"/>
  <path class="st0" d="M399.9,571.65c15.74-2.32,30.74-4.53,47.16-6.95.35,7.16,1,13.31.89,19.45-.74,40.64-1.6,81.27-2.51,121.9-1.09,48.63-2.37,97.25-3.32,145.88-.12,6.35-1.56,11.17-6.41,15.77-11.11,10.54-21.49,21.84-32.22,32.79-2.26,2.31-4.73,4.42-6.98,6.51-59.64-34.82-118.51-69.19-178.19-104.03,4.52-14.3,8.88-28.12,13.74-43.49,50.87,28.43,99.91,57.67,150.36,86.34,5.1-4.69,10.35-9.18,15.15-14.12,1.42-1.46,1.91-4.1,2.22-6.28.37-2.61.11-5.32.11-7.98,0-75.63,0-151.25,0-226.88,0-5.96,0-11.91,0-18.91Z"/>
  <path class="st0" d="M1525.63,474.67c-39.24-57.08-77.4-112.6-115.9-168.6,15.02-7.76,28.8-14.88,42.47-21.95,27.78,27.8,55.04,55.06,83.4,83.44,2.56-4.04,4.53-6.9,6.26-9.89,26.72-46.08,53.41-92.17,80.1-138.26,5.5-9.5,10.75-19.16,16.64-28.42,2.22-3.5,5.42-6.96,9-8.91,19-10.34,38.25-20.23,57.47-30.17,1.88-.97,4.11-1.27,6.69-2.03,1.46,6.04-2.11,9.61-4.31,13.4-31.41,54.13-62.93,108.2-94.42,162.29-27.3,46.89-54.59,93.8-81.91,140.68-1.61,2.76-3.49,5.37-5.49,8.43Z"/>
  <path class="st0" d="M1735.49,2570.51c-2.89-3.13-4.76-4.54-5.83-6.41-60.72-105.87-121.37-211.78-182.54-318.57,68.92-5.41,136.28-10.71,204.42-16.06-.63,15.57-1.22,29.74-1.77,43.91-.19,4.87-3.75,5.48-7.45,6.45-30.57,8.04-61.11,16.2-91.65,24.35-4.78,1.28-9.51,2.75-15.07,4.36,2.15,3.86,3.87,7.04,5.68,10.17,25.56,44.44,51.13,88.87,76.7,133.31,6.31,10.96,12.85,21.79,18.79,32.95,1.95,3.65,3.35,8.16,3.26,12.23-.48,21.97-1.48,43.93-2.41,65.88-.08,1.84-1.02,3.64-2.14,7.4Z"/>
  <path class="st0" d="M525.45,2258.56c38.96,56.63,77.18,112.16,115.78,168.27-13.69,7.11-26.33,13.62-38.91,20.24-4.29,2.26-6.57-.24-9.33-3.02-22.27-22.48-44.72-44.78-66.96-67.29-3.49-3.53-6.19-7.84-9.99-12.75-3.48,5.6-5.47,8.63-7.29,11.76-26.38,45.52-52.73,91.05-79.09,136.58-5.67,9.79-11.16,19.7-17.13,29.31-2.03,3.28-4.76,6.74-8.03,8.52-19.89,10.81-40.01,21.18-60.1,31.63-1.36.71-3.04.79-5.64,1.43.26-2.62,0-4.55.69-6.05,1.67-3.61,3.72-7.06,5.72-10.51,58.29-100.15,116.58-200.29,174.92-300.42,1.55-2.67,3.52-5.1,5.35-7.71Z"/>
  <path class="st0" d="M299.18,503.49c.75-15.15,1.54-28.4,1.98-41.67.17-5.13,2.14-7.4,7.32-8.74,31.59-8.13,63.06-16.69,94.57-25.12,3.52-.94,7.01-1.98,11.89-3.36-1.65-3.32-2.89-6.19-4.44-8.89-26.87-46.77-53.77-93.53-80.67-140.29-5.31-9.23-10.89-18.32-15.81-27.75-1.92-3.68-3.46-8.16-3.34-12.23.66-22.3,1.89-44.59,2.97-66.87.06-1.26.59-2.51,1.13-4.66,1.99,1.08,3.95,1.57,4.98,2.82,1.88,2.29,3.28,4.99,4.77,7.59,58.08,101.42,116.15,202.85,174.2,304.29,1.55,2.71,2.76,5.62,4.3,8.81-68.48,5.4-135.63,10.69-203.84,16.07Z"/>
  <path class="st0" d="M1109.48,385.79c15.3-3.39,29.19-6.46,44.63-9.88,1.21,58.06.08,115.2.65,173.18,6.72,2.18,13.17,4.95,19.89,6.16,3.05.55,6.95-1.48,9.97-3.21,41.04-23.53,81.97-47.24,122.96-70.86,29.44-16.97,58.9-33.89,88.36-50.82,1.42-.82,2.93-1.48,5.34-2.7,9.7,12.2,19.34,24.31,29.5,37.08-6.61,4.15-12.04,7.97-17.82,11.14-77.38,42.49-154.83,84.83-232.18,127.39-6.44,3.54-12.18,5.08-19.68,2.77-14.94-4.59-30.27-7.94-45.42-11.85-2.22-.57-4.37-1.41-6.2-2.02v-206.38Z"/>
  <path class="st0" d="M86.78,990.44c12.08-9.56,24.02-19.01,36.82-29.15,3.79,5.84,7.51,10.87,10.49,16.3,43.13,78.51,86.11,157.1,129.29,235.58,2.92,5.31,3.76,10.02,2.03,16.01-4.25,14.7-7.67,29.64-11.49,44.47-.81,3.16-1.91,6.25-2.7,8.81H44.85c-3.32-14.9-6.46-29-9.95-44.66,58.45-1.17,115.57-.05,173.37-.64,2.09-6.71,4.76-12.89,5.71-19.33.51-3.43-1.34-7.66-3.2-10.91-25.16-43.92-50.53-87.72-75.81-131.57-15.13-26.25-30.2-52.55-45.27-78.84-.97-1.69-1.7-3.51-2.92-6.05Z"/>
  <path class="st0" d="M742.15,290.75c4.77,4.54,10.46,9.64,15.75,15.11,3.95,4.09,3.65,6.79-.38,11.14-1.13,1.22-2.44,2.27-3.66,3.4-73.33,67.47-146.69,134.9-219.92,202.46-5.89,5.43-12.16,8.39-20.23,9.47-59.74,8.06-119.42,16.56-179.13,24.92-11.22,1.57-22.41,3.28-33.66,4.59-7.61.88-9.06-.84-7.5-8.24,1.31-6.19,3.27-12.25,4.33-18.47.83-4.91,3.53-6.5,8.06-7.09,24.77-3.24,49.51-6.67,74.26-10.04,41.25-5.61,82.49-11.32,123.78-16.72,6.97-.91,12.24-3.78,17.37-8.51,69.78-64.43,139.71-128.7,209.64-192.96,3.16-2.91,6.7-5.41,11.28-9.07Z"/>
  <path class="st0" d="M1355.62,329.93c3.65-1.76,6.1-3.25,8.75-4.14,4.73-1.6,9.57-2.86,14.37-4.24,8.88-2.55,8.94-2.58,14.8,4.98,40.03,51.62,80.12,103.19,119.95,154.97,4.52,5.87,9.69,9.31,16.71,11.5,90.31,28.1,180.54,56.45,270.81,84.7,4.38,1.37,8.87,2.38,14.34,3.83-1.1,8.58-3.43,16.79-5.79,24.94-.96,3.29-4.05,4.31-7.34,3.6-2.92-.63-5.79-1.54-8.65-2.44-93.44-29.25-186.85-58.62-280.36-87.65-9.69-3.01-16.87-7.94-23.1-16.03-42.13-54.63-84.67-108.94-127.05-163.38-2.38-3.05-4.45-6.35-7.44-10.65Z"/>
  <path class="st0" d="M235.27,2151.13c1.98-8.24,3.65-15.98,5.75-23.61,1.13-4.1,4.1-5.92,8.48-4.59,1.91.58,3.83,1.12,5.74,1.72,94.95,29.75,189.88,59.56,284.89,89.13,8.02,2.5,13.97,6.59,19.13,13.26,42.78,55.32,85.86,110.41,128.81,165.6,2.36,3.04,4.38,6.34,7.16,10.41-10.33,6.14-21.03,7.14-31.57,10.93-2.8-3.44-5.57-6.68-8.18-10.04-39.59-51.06-79.23-102.07-118.63-153.28-4.09-5.32-8.8-8.48-15.1-10.44-90.87-28.3-181.69-56.77-272.53-85.17-4.09-1.28-8.25-2.33-13.95-3.93Z"/>
  <path class="st0" d="M733.42,2441.35c-2.41-8.35-5.14-16.44-6.84-24.74-.38-1.87,2.4-5.07,4.5-6.56,2.02-1.43,5.04-1.49,7.63-2.07,96.47-21.58,192.95-43.08,289.38-64.84,8.51-1.92,16.08-1.5,24.21,1.84,64.69,26.49,129.51,52.66,194.29,78.93,12.55,5.09,12.8,6.12,3.27,15.93-4.61,4.74-8.87,11.88-14.36,13.11-5.47,1.22-12.4-3.33-18.51-5.81-57.04-23.22-114.07-46.44-170.99-69.95-7.12-2.94-13.58-3.53-21.18-1.81-92.84,21.02-185.75,41.7-278.64,62.5-3.82.86-7.57,2.05-12.76,3.48Z"/>
  <path class="st0" d="M1317.61,291.6c2.31,8.26,4.68,16.13,6.68,24.09.95,3.8-1.02,6.45-4.73,7.58-1.9.58-3.9.85-5.85,1.29-98.09,21.95-196.2,43.85-294.25,65.97-6.55,1.48-12.24.86-18.37-1.64-65.35-26.64-130.78-53.08-196.17-79.62-3.6-1.46-7.06-3.26-12.02-5.57,2.6-3.59,4.25-6.26,6.29-8.58,3.3-3.75,6.84-7.28,10.31-10.88,5.74-5.96,5.79-6.04,13.64-2.84,37.3,15.2,74.58,30.45,111.87,45.68,24.35,9.94,48.72,19.81,73.02,29.88,4.77,1.98,9.15,2.61,14.4,1.42,94.16-21.22,188.38-42.22,282.57-63.3,3.82-.86,7.57-2.08,12.61-3.48Z"/>
  <path class="st0" d="M1310.21,2443.69c-6.56-6.36-12.58-11.97-18.33-17.84-2.8-2.86-2.25-6.07.49-8.85,1.64-1.66,3.36-3.23,5.08-4.81,73.08-67.24,146.2-134.42,219.15-201.79,5.9-5.45,12.12-8.72,20.1-9.79,50.17-6.76,100.3-13.79,150.44-20.74,20.78-2.88,41.56-5.81,62.35-8.64,8.03-1.09,9.77.69,8.03,8.58-1.72,7.76-3.87,15.43-6.03,23.91-14.29,2.05-28.4,4.15-42.52,6.07-55.11,7.51-110.21,15.03-165.35,22.32-5.48.72-9.04,3.71-12.73,7.11-46.09,42.43-92.2,84.84-138.3,127.26-23.3,21.43-46.63,42.82-69.87,64.32-4.09,3.78-7.78,8-12.5,12.9Z"/>
  <path class="st0" d="M1392.39,1292.17c24.07,19.16,48.14,38.32,72.43,57.65-5.25,6.61-9.91,12.47-15.26,19.21-9.21-5.43-16.76-13.38-25.15-20.17-8.29-6.71-16.32-13.73-24.46-20.61-8.4-7.1-16.8-14.2-25.2-21.3-8.15-6.88-16.41-13.63-24.41-20.68-8.14-7.18-17.53-13.1-24.84-23.68,16.16-2.94,30.97,2.45,48.05,1.16-4.85-2.98-7.79-4.91-10.84-6.65-65.22-36.95-130.46-73.86-195.66-110.84-4.37-2.48-10.4-3.99-9.02-11.24,8.21-1.22,225.36,34.29,233.27,38.22-1.77,7.25-3.56,14.59-5.57,22.83-4.56-.26-8.82-.2-12.97-.81-18.78-2.74-37.54-5.68-56.31-8.52-1.64-.25-3.35-.6-4.94-.35-3.25.52-4.64,4.64-2.24,6.89,1.91,1.8,4.38,3.01,6.64,4.43,33.33,20.84,66.68,41.66,100.01,62.52,9.69,6.07,9.78,6.16,5.21,16.56-7.98,18.18-4.67,15.88-22.92,13.51-1.62-.21-3.3-.03-4.95-.03-.29.63-.57,1.26-.86,1.89Z"/>
  <path class="st0" d="M1340.01,1426.05c12.05,8.41,24.1,16.83,36.15,25.24.45-.43.9-.86,1.34-1.29-1.69-3.08-3.3-6.21-5.09-9.24-38.18-64.89-76.37-129.76-114.55-194.64-2.48-4.21-5.9-8.29-1.83-14.86,3.3,2.26,6.57,4.18,9.47,6.55,38.71,31.62,77.37,63.3,116.04,94.96,16.76,13.72,33.52,27.44,50.25,41.19,2.52,2.07,4.93,4.29,7.86,6.86-4.71,5.19-8.98,9.74-13.08,14.44-3.03,3.47-6.04,3.53-9.51.73-5.7-4.61-11.49-9.1-17.23-13.67-10.17-8.09-20.32-16.2-30.49-24.29-1.82-1.45-3.54-3.18-5.61-4.12-1.18-.54-3.39-.28-4.37.54-.99.83-1.7,2.99-1.34,4.22.74,2.51,2.24,4.8,3.49,7.15,18.43,34.72,36.87,69.42,55.29,104.14,5.15,9.7,5.09,9.91-3.37,16.28-4.24,3.19-8.57,6.27-13.6,9.94-5.99-4.01-11.97-8-17.94-11.99,9.21,29.74,21.12,58.25,32.34,87.61-7.57,2.93-14.55,5.64-22.56,8.74-.91-1.58-2.5-3.62-3.33-5.93-16.29-45.09-32.53-90.21-48.65-135.37-1.28-3.59-1.57-7.53-2.33-11.31.87-.63,1.75-1.25,2.62-1.88Z"/>
  <path class="st0" d="M1010.28,1780.1c-3.98-3.68-7.37-6.84-10.79-9.97-7.48-6.86-7.54-6.99-.93-15.35,11.37-14.37,22.83-28.67,34.23-43.02,2.26-2.84,4.42-5.75,6.44-8.38-1.67-4.18-3.68-6.29-7.76-3.72-1.69,1.06-3.53,1.86-5.3,2.8-34.7,18.45-69.39,36.91-104.1,55.34q-9.9,5.26-16.85-3.96c-2.6-3.46-5.14-6.97-7.64-10.51-.55-.79-.79-1.8-1.44-3.35,3.72-5.45,7.61-11.15,12.98-19.02-16.95,5.3-30.99,11.72-45.36,17.19-14.51,5.52-28.9,11.32-43.56,17.08-3.19-8.07-5.95-15.04-8.72-22.04,7.59-5.65,142.57-53.7,153.22-54.26-.58,8.33-7.2,13.08-10.92,19.25-3.93,6.52-8.65,12.57-12.02,20.39,2.97-1.6,6-3.09,8.9-4.8,64.87-38.18,129.72-76.41,194.61-114.56,4.36-2.56,8.65-6.84,14.21-2.68.16.57.29.87.33,1.18.04.33.13.75-.02.98-1.27,1.94-2.45,3.96-3.92,5.74-47.51,57.98-95.04,115.95-142.61,173.88-.58.71-1.65,1.01-2.97,1.77Z"/>
  <path class="st0" d="M653.16,1600.52c1.4-8.7,2.55-15.84,3.84-23.88,2.1,0,4.66-.38,7.08.06,46.88,8.37,93.76,16.8,140.61,25.37,4.02.74,7.86,2.49,11.89,4.98-12.41,9.06-26.69,13.64-40.62,21.45,4.04,2.23,7.56,1.37,10.8,1.35,74.32-.58,148.64-1.24,222.96-1.88,3-.03,6-.02,9,0,3.61.02,6.4,1.28,7.78,5.58-1.17.91-2.25,2.24-3.63,2.77-72.12,27.34-144.27,54.61-216.91,82.07-2.01-6.36-3.64-11.35-5.17-16.37-2.43-7.96-2.08-8.96,5.54-12.01,17.93-7.18,35.94-14.19,53.9-21.3,3.03-1.2,6-2.58,8.63-3.72,1.15-6-1.88-6.9-6.17-7.03-12.66-.37-25.31-1-37.97-1.42-27.98-.94-55.96-1.83-83.94-2.72-11.49-.37-11.72-.57-13.02-11.53-2.37-19.95-4.55-15.43,13.58-23.86,1.43-.67,2.78-1.51,4.14-3.99-30.57-4.6-61.13-9.2-92.32-13.89Z"/>
  <path class="st0" d="M1199.17,1649.22c-1.6,2.49-3.57,5.5-5.48,8.55-20.67,33.05-41.31,66.11-61.99,99.16-6.04,9.65-6.11,9.73-16.57,5.18-18.04-7.86-15.84-4.61-13.47-22.92.21-1.63.17-3.28.34-7-2.88,2.85-4.71,4.34-6.15,6.14-16.42,20.58-32.76,41.21-49.16,61.81-1.58,1.98-3.38,3.78-4.96,5.53-6.56-5.28-12.44-10.01-19.47-15.66,33.07-39.11,66.1-78.22,99.25-117.24,1.79-2.11,4.5-3.44,8.05-6.07,2.45,16.16-2.59,30.67-1.27,47.59,3.03-4.89,4.98-7.81,6.7-10.86,36.94-65.21,73.85-130.45,110.8-195.66,2.39-4.22,4.07-9.41,11.8-9.11,0,2.74.38,5.55-.06,8.23-9.45,57.84-18.99,115.67-28.52,173.5-2.33,14.13-4.61,28.27-7.01,42.38-.53,3.14-1.43,6.22-2.22,9.61-6.85-1.54-12.61-3.03-18.46-4.09-4.61-.84-6.16-3.44-5.55-7.76,1.02-7.25,2.05-14.51,3.14-21.75,2.13-14.16,4.26-28.32,6.48-42.47.67-4.25.17-7.37-6.24-7.07Z"/>
  <path class="st0" d="M1245.05,1015c2.01,6.34,3.76,11.65,5.37,17.01,2.12,7.01,1.94,7.71-4.85,10.48-13.25,5.41-26.62,10.55-39.93,15.81-6.5,2.57-12.99,5.19-19.51,7.71-2.69,1.04-5.33,2.52-3.91,5.66.7,1.55,3.37,2.8,5.31,3.09,4.26.63,8.63.61,12.96.77,36.96,1.31,73.92,2.58,110.87,3.92,10.27.37,10.36.53,11.89,10.53q2.61,17.05-13.19,24.28c-1.47.67-2.88,1.49-4.34,3.13,30.31,6.56,61.09,9.76,91.89,15.22-1.21,8-2.34,15.39-3.64,23.99-3.78-.37-7.98-.49-12.07-1.21-43.92-7.82-87.84-15.69-131.73-23.7-5.33-.97-10.5-2.85-15.88-5.59,12.01-9.01,25.96-13.39,38.49-22.16-2.64-.26-5.28-.75-7.92-.73-75.3.58-150.59,1.22-225.89,1.81-5.19.04-10.86,1.41-14.68-4.48,1.26-4.62,5.87-4.78,9.29-6.09,30.16-11.54,60.41-22.87,90.62-34.27,36.44-13.76,72.88-27.54,109.33-41.27,3.64-1.37,7.37-2.49,11.52-3.88Z"/>
  <path class="st0" d="M733.41,1208.92c.21-2.65.54-5.58.65-8.51,1.4-39.95,2.76-79.89,4.14-119.84.34-9.85.83-10.37,10.72-11.88.66-.1,1.32-.19,1.98-.27q15.32-1.91,21.94,12.45c.9,1.94,2.16,3.72,4.4,7.52,4.96-32.85,9.58-63.48,14.21-94.12,8.69,1.35,16.07,2.5,24.92,3.87-9.54,53.11-18.53,106.29-29.22,160.86-8.79-6.1-9.64-14.17-13.13-20.53-3.62-6.6-6.55-13.58-9.78-20.4-.72.09-1.44.19-2.16.28,0,3.42-.03,6.84,0,10.26.64,75.28,1.3,150.56,1.91,225.84.04,4.86,1.17,10.22-5.89,13.72-1.51-3.13-3.23-6.12-4.44-9.31-22.63-59.77-45.2-119.56-67.78-179.35-3.98-10.54-7.94-21.09-12.2-32.4,6.36-2.06,11.92-3.96,17.54-5.66,6.72-2.04,7.69-1.7,10.43,5.11,6.59,16.36,12.96,32.82,19.43,49.23,1.46,3.72,3.02,7.4,4.43,11.13,1.49,3.94,4.2,3.57,7.89,2Z"/>
  <path class="st0" d="M889.58,1135.19c50.29-61.4,99.99-122.09,150.15-183.34,6.74,6.43,12.4,11.83,18.59,17.73-2.48,3.55-4.39,6.6-6.61,9.41-11.37,14.37-22.82,28.68-34.24,43.02-1.45,1.82-3.27,3.51-4.14,5.59-.62,1.47-.43,3.79.38,5.15.55.92,2.95,1.4,4.25,1.05,2.2-.59,4.2-1.97,6.25-3.06,34.42-18.28,68.83-36.56,103.25-54.84,1.77-.94,3.58-1.79,5.29-2.81,4.27-2.57,7.27-1.12,10.34,2.42q13.13,15.1,1.79,31.55c-.75,1.08-1.3,2.3-3.11,5.56,30.7-12.05,59.55-23.38,88.89-34.9,2.99,7.5,5.77,14.47,8.95,22.46-1.59.93-3.6,2.54-5.9,3.38-45.09,16.3-90.2,32.54-135.36,48.66-3.6,1.29-7.55,1.58-12.39,2.54,1.38-9.27,7.64-14.23,11.5-20.46,3.84-6.19,8.27-12.01,13.17-19.02-4.98-.25-7.58,2.34-10.38,3.99-64.9,38.15-129.76,76.36-194.66,114.51-4.36,2.57-8.65,6.7-16.03,1.42Z"/>
  <path class="st0" d="M920.04,1066.61c.35-16.76,2.68-31.44,1.99-47.02-1.79,2.86-3.69,5.65-5.35,8.59-36.76,64.89-73.49,129.8-110.22,194.71-1.31,2.32-2.29,4.96-4.07,6.84-2.02,2.14-4.77,3.59-6.83,5.07-1.43-1.1-1.72-1.27-1.93-1.51-.22-.24-.55-.59-.51-.84,12.06-74.89,24.14-149.77,36.26-224.65.36-2.23,1.14-4.4,1.87-7.14,6.47,1.38,12.53,2.66,18.59,3.97,4.92,1.06,6.12,4.07,5.35,8.88-2.9,18.07-5.54,36.19-8.24,54.3-.59,3.95-1.23,7.92-1.33,11.89-.03,1.24,1.37,3.16,2.56,3.62,1.16.44,3.37-.12,4.26-1.06,1.8-1.9,3.06-4.33,4.47-6.58,20.84-33.31,41.66-66.63,62.51-99.93,5.85-9.34,6.04-9.56,15.75-5.18,18.23,8.23,15.77,3.34,14.24,23.67-.12,1.61-.38,3.21,1.05,5.82,4.84-5.94,9.71-11.86,14.51-17.84,5.01-6.23,9.96-12.5,14.93-18.76,4.76-6,9.5-12.02,14.28-18,4.89-6.12,9.82-12.21,14.74-18.32,6.82,5.45,12.68,10.14,18.55,14.84-4.49,9.48-97.2,118.16-107.46,124.64Z"/>
  <path class="st0" d="M893.3,1599.8c-78.27-12.83-155.64-25.52-233.79-38.33,1.44-6.53,2.54-11.98,3.86-17.37,1.9-7.77,2.51-8.22,10.11-7.09,18.45,2.74,36.89,5.58,55.34,8.33,3.29.49,6.62,1.01,9.93.95,1.24-.02,3.08-1.4,3.52-2.58.44-1.18-.05-3.39-.97-4.26-1.91-1.8-4.35-3.04-6.61-4.45-33.33-20.86-66.68-41.69-100-62.56-9.26-5.8-9.37-5.92-5.04-15.78,8.18-18.63,3.86-15.51,23.76-14.16,1.55.11,3.12.01,7.3.01-26.07-20.77-50.32-40.09-74.64-59.46,5.35-6.68,10.05-12.55,15.66-19.57,8.5,6.29,16.49,13.66,24.82,20.55,8.47,7.01,16.81,14.19,25.21,21.29,8.15,6.88,16.3,13.77,24.44,20.65,8.4,7.1,16.98,14,25.15,21.36,7.92,7.14,17.67,12.58,24.61,24.42-17.21-.21-31.88-2.44-47.47-1.9,2.8,1.75,5.54,3.6,8.41,5.22,65.52,37.11,131.07,74.18,196.57,111.31,4.42,2.5,10.13,4.12,9.83,13.41Z"/>
  <path class="st0" d="M670.69,1247.87c-5.66-14.46-11.3-28.93-16.97-43.39-5.64-14.41-11.31-28.8-16.99-43.28,8.28-3.28,15.25-6.04,23.49-9.3,17.17,47.58,34.34,95.05,51.37,142.57,1.18,3.3,1.41,6.95,2.33,11.74-9.16-1.6-14.19-7.69-20.36-11.55-6.19-3.87-12.04-8.27-18.68-12.87-1.16,4.73,1.86,7.29,3.49,10.06,37.42,63.74,74.95,127.43,112.45,191.12,1.69,2.87,3.87,5.58,4.89,8.67.91,2.76.52,5.95.74,9.57-8.38-3.2-178.07-141.64-184.55-150.11,5.34-5.6,10.75-11.27,17.07-17.89,20.25,16.02,39.99,31.62,59.91,47.37,1.91-1.58,3.38-2.79,5.14-4.25-1.78-3.55-3.34-6.82-5.04-10.01-18.26-34.41-36.56-68.8-54.81-103.2-5.29-9.98-5.32-10.08,3.86-16.84,16.19-11.92,11.4-10.97,26.69-.22,1.34.94,2.69,1.85,4.04,2.77.64-.32,1.28-.64,1.92-.96Z"/>
  <path class="st0" d="M1266.56,1573.71c8.28,13.98,12.96,27.78,21.46,40.32.24-2.7.71-5.4.69-8.1-.59-75.29-1.24-150.59-1.82-225.88-.04-5.14-1.51-10.86,4.43-14.51,4.9,1.14,4.94,5.83,6.25,9.25,12.59,32.97,24.99,66.01,37.46,99.02,12.82,33.95,25.68,67.89,38.46,101.85,1.25,3.32,2.12,6.77,3.27,10.48-6.31,2.02-11.6,3.84-16.96,5.39-6.6,1.91-7.8,1.4-10.51-5.29-5.88-14.5-11.54-29.09-17.28-43.65-1.96-4.95-3.64-10.04-5.98-14.81-1-2.04-3.27-4.76-5.07-4.84-4.12-.19-3.82,3.73-4.04,6.66-.24,3.32-.34,6.65-.46,9.98-1.32,37.29-2.61,74.58-3.94,111.87q-.41,11.5-11.65,12.75c-18.23,2-15.12,5.4-23.16-13.05-.65-1.48-1.5-2.87-3.18-4.31-6.47,30.32-9.94,61.04-15.1,91.85-8.28-1.29-15.66-2.44-23.1-3.59-1.38-8.99,24.24-149.88,30.23-161.4Z"/>
  <path class="st0" d="M1391.04,2305.36c-10.86,9.93-21.14,19.32-32.18,29.41-4.05-4.92-7.86-9.02-11.07-13.55-11.34-16.04-22.46-32.23-33.69-48.34-1.85-2.66-3.88-5.19-6.67-8.91-24.11,43.79-47.61,86.45-71.54,129.9-13.93-5.57-27.04-10.81-41.28-16.5,38.35-70.27,76.07-139.39,114.29-209.43,2.44,2.17,4.21,3.13,5.09,4.62,25.2,42.71,50.31,85.47,75.4,128.24.65,1.1.89,2.45,1.63,4.55Z"/>
  <path class="st0" d="M1661.77,673.57c49.93-1.02,98.19-2,147.54-3.01,3.78,13.91,4.5,28.08,6.82,41.9-10.79,3.01-228.51,8.44-237.51,6.08,1.33-7.69,65.31-122.37,77.17-138.03,13.16,4.15,26.69,8.41,41.54,13.09-9.42,27.7-24.28,52.2-35.55,79.96Z"/>
  <path class="st0" d="M2021.48,1519.89c3.05,13.96,5.95,27.26,9.11,41.69-5.41,1.06-10.14,2.4-14.95,2.85-20.9,1.96-41.82,3.66-62.73,5.48-2.55.22-5.08.6-9.18,1.1,25.7,42.54,50.78,84.05,76.02,125.82-3.99,6.64-10.82,9.83-16.24,14.51-5.27,4.54-10.93,8.64-16.35,12.87-7.13-6.76-121.25-193.16-124.12-202.46.14-.3.24-.65.45-.89.21-.24.54-.51.82-.52,6.29-.3,12.59-.74,18.89-.79,44.99-.39,89.97-.7,134.96-.97.9,0,1.81.69,3.34,1.31Z"/>
  <path class="st0" d="M740.6,563.66c-5.98-5.83-74.25-120.8-80.61-136.03,10.18-9.35,20.63-18.94,32.08-29.46,19.39,22.19,33.14,47.39,51.48,70.67,23.97-43.48,47.53-86.21,71.56-129.8,13.83,5.53,26.91,10.77,39.97,16-7.81,19.81-108.67,203.33-114.48,208.62Z"/>
  <path class="st0" d="M396.52,2152.93c-15.06-4.8-28.59-9.1-42.89-13.66,9.58-27.68,24.16-52.03,35.43-79.78-49.94.97-98.4,1.91-148.11,2.87-2.12-14.57-4.15-28.5-6.38-43.89,78.9-1.92,156.45-3.82,234.01-5.62,1.46-.03,2.95,1.04,5.69,2.08-25.95,46.06-51.55,91.51-77.74,138.01Z"/>
  <path class="st0" d="M693.68,2361.12c-9.21-11.64-17.82-22.52-27.34-34.54,67.55-41.14,134.04-81.62,200.56-122.05.99-.6,2.49-.38,5.29-.73.64,52.69,1.27,104.77,1.9,157.47-14.65,4.78-28.94,6.88-43.97,10.33-5.79-28.68-5.12-57.06-9.22-86.57-43.02,24.81-83.83,51.43-127.22,76.09Z"/>
  <path class="st0" d="M1720.35,2151.24c-14.06,1.98-27.72,3.91-42.9,6.05-1.94-80.04-3.86-158.76-5.79-238.47,3.29.7,5.34.66,6.87,1.52,43.73,24.77,87.42,49.64,131.1,74.5.26.15.41.52,1.49,1.95-3.3,13.15-8.1,26.74-12.93,41.49-6.04-2.27-11.37-3.9-16.39-6.21-17.54-8.07-34.96-16.38-52.44-24.58-2.96-1.39-5.97-2.66-10.62-4.71-.81,17.3.52,33.35.81,49.38.29,16.32.65,32.63.78,48.95.13,16.25.03,32.5.03,50.12Z"/>
  <path class="st0" d="M376.94,815.24c-46.23-26.08-91.62-51.69-137.88-77.79,4.55-14.38,8.82-27.87,13.55-42.79,27.73,9.33,52.13,24.35,79.87,35.31-.97-49.58-1.92-98.01-2.89-147.23,14.25-3.95,28.38-4.55,42.11-7.06,3.13,12.35,8.19,229.54,5.24,239.56Z"/>
  <path class="st0" d="M188.34,1213.45H29.63c-2.98-13.45-6.04-27.28-9.37-42.34,28.71-5.88,57.43-4.8,86.82-9.44-25.69-42.5-50.78-84-76.51-126.56,11.44-9.15,22.47-17.98,33.48-26.78,9.21,10.41,121.74,195.3,124.29,205.12Z"/>
  <path class="st0" d="M1180.87,530.58c-3.09-9.12-4.51-146.2-2.09-160.03,13.46-2.96,27.29-6,42.08-9.26,5.71,28.86,5.05,57.3,9.22,86.88,42.64-25.76,84.34-50.95,126.94-76.69,9.11,11.56,17.86,22.66,27.49,34.87-68.28,41.66-135.56,82.7-203.63,124.22Z"/>
  <path class="st0" d="M432.46,180.11c68.71,22.83,135.83,45.13,203.04,67.45-4.25,9.06-82.89,94.8-92.85,101.54-7.55-6.65-107.25-158.61-110.19-169Z"/>
  <path class="st0" d="M1756.23,259.07c14.66,71.21,28.92,140.5,43.46,211.15-4.11-.4-7.66-.37-11.04-1.13-39.27-8.87-78.52-17.83-117.76-26.85-2.14-.49-4.12-1.63-7.39-2.97,29.08-58.01,57.8-115.35,86.61-172.64,1.11-2.2,3.13-3.93,6.12-7.57Z"/>
  <path class="st0" d="M1415.64,2484.92c3.79-8.35,82.21-93.9,92.49-100.89,7.14,5.67,107.23,157.82,109.69,166.75-7.26.05-176.68-55.13-202.18-65.85Z"/>
  <path class="st0" d="M1247.55,202.87c-12.06,6.82-122.88,40.85-132.21,40.65-.4-1.74-1.12-3.59-1.22-5.47-3.61-63.43-7.16-126.86-10.66-190.3-.06-1.11.77-2.28,1.78-5.04,47.79,53.79,94.76,106.64,142.31,160.15Z"/>
  <path class="st0" d="M947.46,2689.14c-7.27-4.53-136.26-148.83-143.83-160.57,43.15-15.15,86.94-26.99,131.57-41.18.77,4.73,1.7,8.43,1.94,12.18,1.61,24.9,3.09,49.81,4.6,74.71,1.91,31.55,3.88,63.09,5.67,94.64.37,6.46.05,12.96.05,20.22Z"/>
  <path class="st0" d="M294.49,2473.02c-14.49-70.54-28.73-139.83-42.98-209.22,10.3-1.05,124.86,24.59,134.24,29.74-2.13,10.35-83.89,172.31-91.25,179.48Z"/>
  <path class="st0" d="M1038.26,925.17c-4.96-3.22-9.7-6.2-14.34-9.33-10.48-7.08-21.12-13.94-31.26-21.48-5.09-3.78-10.54-5.28-16.51-6.1-12.19-1.66-24.4-3.27-36.55-5.18-9.94-1.56-10.31-2.16-7.65-11.42,6.6-23.02,13.27-46.01,20.07-68.97,2.73-9.23,4.94-10.4,13.56-7.37,44.55,15.67,89.06,31.43,133.58,47.2,1.17.42,2.16,1.35,3.18,2.01-2.69,6.87-52.21,69.32-64.06,80.64Z"/>
  <path class="st0" d="M1218.32,1857.27c4.72-34.32,10.29-67.57,15.66-101.33,2.73-.26,4.97-.79,7.17-.64,17.27,1.18,34.53,2.61,51.81,3.63,3.48.21,7.27-.42,10.54-1.65,12.45-4.71,24.72-9.87,37.1-14.77,2.99-1.18,6.11-2.01,9.99-3.26,1.33,3.6,2.61,6.24,3.3,9.03,5.78,23.25,11.46,46.52,17.17,69.79.24.97.57,1.93.68,2.91.74,6.14-.67,8.51-6.91,9.76-15.33,3.08-30.72,5.89-46.1,8.73-31.09,5.74-62.19,11.42-93.29,17.1-1.84.34-3.74.38-7.13.7Z"/>
  <path class="st0" d="M697.18,1778.44c32.26-12.45,63.78-24.61,95.8-36.97,1.91,3.3,3.53,5.75,4.81,8.37,6.84,14.07,13.84,28.07,20.26,42.33,2.29,5.1,5.52,8.84,9.84,12.14,9.8,7.47,19.42,15.16,29.08,22.82,2.55,2.02,4.95,4.22,8.04,6.87-1.91,2.64-3.12,4.96-4.91,6.69-17.72,17.13-35.46,34.23-53.35,51.19-6.53,6.19-9.16,6.05-14.76-.48-30.98-36.17-61.89-72.4-92.79-108.64-.6-.7-.83-1.72-2.03-4.32Z"/>
  <path class="st0" d="M1353.1,954.75c-31.48,12.14-63.22,24.37-95.71,36.9-4.23-8.66-7.87-16.07-11.48-23.5-5.52-11.37-9.29-24.13-16.99-33.75-7.71-9.63-19.34-16.1-29.21-24.02-4.58-3.67-9.05-7.47-14.18-11.73,2.66-3.15,4.35-5.56,6.43-7.57,17.02-16.41,34.1-32.76,51.19-49.1,1.44-1.37,2.88-2.83,4.56-3.84,3.52-2.11,6.68-2.05,9.66,1.47,31.68,37.31,63.44,74.55,95.14,111.84.36.42.24,1.24.57,3.29Z"/>
  <path class="st0" d="M1516.09,1173.91c-34.69-5.45-68-10.69-101.5-15.95,0-5.75-.26-10.36.05-14.93.91-13.28,1.88-26.56,3.19-39.8.64-6.47-.26-12.37-2.81-18.39-5.83-13.75-11.13-27.72-17.1-42.73,3.42-1.52,6.16-3.23,9.15-3.98,23.23-5.83,46.48-11.54,69.76-17.15,9.85-2.38,11.58-1.18,13.44,8.81,8.48,45.45,16.94,90.9,25.36,136.36.35,1.9.24,3.88.45,7.76Z"/>
  <path class="st0" d="M1012.99,1807.56c15.74,10.71,31.22,21.07,46.47,31.76,3.96,2.78,7.94,4.34,12.74,4.93,13.55,1.68,27.04,3.79,40.54,5.82,2.23.34,4.4,1.11,7.63,1.94-.54,3.51-.7,6.75-1.56,9.78-6.39,22.41-12.81,44.81-19.49,67.14-1.17,3.9-3.58,7.43-5.68,11.66-49.23-17.46-97.15-34.45-145.04-51.43,2.09-6.93,52.25-70.48,64.39-81.62Z"/>
  <path class="st0" d="M535.18,1561.03c6.99-1.33,78.06,8.84,100.64,14.46.29,1.67,1,3.58.87,5.44-1.14,17.27-2.56,34.53-3.56,51.81-.22,3.82.13,7.99,1.45,11.54,4.88,13.09,10.35,25.96,15.46,38.97,3.19,8.11,2.78,9.24-5.18,11.25-23.87,6.02-47.77,11.93-71.73,17.61-8.81,2.09-10.8.7-12.41-7.94-8.8-47.09-17.48-94.21-26.16-141.33-.1-.55.4-1.21.61-1.81Z"/>
  <path class="st0" d="M613.31,1037.69c12.63,32.73,24.79,64.25,37.17,96.34-3.28,1.86-5.74,3.44-8.36,4.72-14.06,6.86-28.07,13.85-42.3,20.33-5.06,2.3-8.88,5.43-12.18,9.8-7.43,9.83-15.15,19.44-22.81,29.09-2.03,2.56-4.24,4.97-7.08,8.28-3.05-2.51-5.72-4.31-7.9-6.57-16.2-16.77-32.31-33.62-48.42-50.47-1.6-1.68-3.36-3.34-4.48-5.33-1.76-3.13-1.92-6.35,1.31-8.94,1.04-.83,2-1.76,3.01-2.63,35.71-30.5,71.41-61,107.14-91.48.96-.82,2.14-1.39,4.9-3.14Z"/>
  <path class="st0" d="M503.35,1289.5c7.24,3.03,69.96,52.81,80.65,63.88-1.3,2.28-2.56,4.9-4.17,7.28-9.14,13.52-18.49,26.89-27.46,40.52-2.1,3.18-3.68,7.04-4.31,10.79-2.31,13.79-4.08,27.66-6.12,41.49-1.21,8.22-2.31,9.05-10.44,6.73-23.36-6.66-46.7-13.41-70-20.3-9.06-2.68-10.27-5.08-7.25-13.61,15.76-44.56,31.59-89.09,47.41-133.63.32-.91.91-1.72,1.68-3.17Z"/>
  <path class="st0" d="M1546.58,1444.98c-26.78-21.61-53.05-42.82-79.95-64.53,1.69-3.1,2.88-5.75,4.48-8.13,8.35-12.43,16.42-25.08,25.39-37.05,4.66-6.22,6.52-12.84,7.45-20.17,1.43-11.22,3.05-22.41,4.71-33.6.43-2.91,1.29-5.75,2.21-9.75,3.44.43,6.67.43,9.66,1.28,22.71,6.47,45.39,13.03,68.04,19.72,10.21,3.02,11.18,5.03,7.66,15.02-15.48,43.92-31.01,87.81-46.57,131.7-.53,1.49-1.55,2.81-3.07,5.5Z"/>
  <path class="st0" d="M832.6,875.92c-4.74,34.24-10.31,67.46-15.72,101.48-5.14,0-9.68.26-14.19-.05-14.27-.98-28.52-2.45-42.8-3.13-4.78-.23-9.93.62-14.43,2.27-12.8,4.68-25.31,10.15-38.02,15.07-6.66,2.58-8.06,1.93-9.83-5.08-6.1-24.18-12.09-48.39-17.83-72.66-2.02-8.56-.51-10.4,8.26-12.04,45.44-8.48,90.88-16.93,136.33-25.34,2.17-.4,4.44-.3,8.22-.53Z"/>
  <path class="st0" d="M1437.92,1695.92c-12.79-33.11-24.95-64.58-37.4-96.83,3.06-1.85,5.43-3.53,8.01-4.79,14.36-6.99,28.87-13.7,43.11-20.93,3.97-2.02,7.79-5,10.66-8.4,8.14-9.67,15.73-19.81,23.59-29.73,2.04-2.57,4.27-4.98,7.19-8.36,2.65,2,5.15,3.43,7.08,5.42,16.9,17.47,33.75,34.99,50.44,52.66,2.36,2.5,3.75,5.93,6.04,9.68-39.53,33.73-78.39,66.88-118.7,101.27Z"/>
  <path class="st0" d="M732.28,1906.41c11.05-9.68,20.95-18.34,31.25-27.36,2.64,2.45,4.67,4.07,6.38,5.98,12.03,13.39,24.19,26.66,35.88,40.35,4.09,4.79,8.47,6.42,14.66,6.44,64.66.14,129.32.54,193.98.91,15.28.09,15.53.55,10.08,15.31-1.5,4.06-2.97,8.14-4.48,12.19-3.79,10.14-3.8,10.21-14.23,10.08-18.33-.22-36.66-.45-54.99-.83-49.65-1.03-99.3-2.28-148.95-3.07-7.26-.11-12.49-2.3-17.51-7.48-14.16-14.59-28.81-28.69-43.23-43.03-2.55-2.54-4.91-5.26-8.84-9.49Z"/>
  <path class="st0" d="M543.05,1679.39c3.85,18.29,7.41,34.82,10.79,51.4,3.66,17.94,3.59,17.95,19.2,27.1,53.69,31.45,107.39,62.89,161.07,94.35,11.13,6.52,11.24,7.82,1.55,15.93-4.08,3.42-8.17,6.83-12.3,10.2q-8.06,6.58-17.35,1.05c-11.98-7.19-23.92-14.46-35.88-21.68-46.14-27.88-92.24-55.83-138.48-83.53-5.81-3.48-9.33-7.66-11.03-14.35-5.4-21.27-11.43-42.38-17.09-63.59-1.98-7.44-1.22-8.72,6.2-10.3,10.66-2.28,21.4-4.23,33.31-6.56Z"/>
  <path class="st0" d="M1287.04,854.17c-3.42-3.6-5.73-5.93-7.92-8.38-11.11-12.41-22.4-24.66-33.17-37.35-4.25-5-8.75-7.05-15.36-7.07-55.62-.19-111.24-.73-166.86-1.15-9.99-.08-19.98-.07-29.98-.18-2.93-.03-5.87-.35-8.98-.55-.56-1.65-1.59-3.06-1.27-4.03,3.21-9.77,6.39-19.57,10.2-29.11.75-1.87,4.02-3.35,6.36-3.81,3.2-.64,6.63-.17,9.96-.1,65.6,1.31,131.2,2.77,196.8,3.78,8.67.13,15.01,2.68,21.02,8.95,14.27,14.91,29.25,29.15,43.86,43.74,6.66,6.65,6.59,7.83-.61,14.24-7.67,6.83-15.46,13.53-24.04,21.01Z"/>
  <path class="st0" d="M1306.35,874.05c8.61-10.24,17.84-16.76,26.79-23.5,1.42-1.07,4.55-.57,6.6.1,2.47.81,4.65,2.55,6.93,3.93,57.03,34.46,113.97,69.05,171.17,103.22,7.22,4.31,11.02,9.54,13.01,17.54,5,20.02,10.82,39.84,16.21,59.77,2.45,9.05,1.63,10.46-7.39,12.32-10.05,2.07-20.16,3.85-30.93,5.88-1.05-3.11-2.12-5.46-2.64-7.92-3.72-17.59-7.52-35.17-10.85-52.84-1.15-6.07-3.94-9.78-9.37-12.94-56.17-32.63-112.18-65.55-168.21-98.41-3.35-1.97-6.58-4.15-11.31-7.15Z"/>
  <path class="st0" d="M450.72,1397.57c-3.08,9.55-6,18.72-8.99,27.86-3.21,9.81-6.13,19.74-9.85,29.36-2.4,6.19-1.67,11.12,1.64,16.86,25.25,43.89,50.19,87.97,75.22,131.99,7.25,12.74,14.52,25.47,21.72,38.23,1.61,2.85,2.99,5.82,5.05,9.85-3.28,1.5-5.73,3.17-8.41,3.73-7.49,1.57-15.11,2.55-22.62,4.03-4.6.9-7.79-.62-10-4.59-.97-1.75-1.91-3.51-2.88-5.26-32.32-58.65-64.54-117.34-97.08-175.86-3.85-6.93-4.71-13.16-2.52-20.77,5.7-19.84,10.65-39.89,15.95-59.85,2.67-10.04,3.34-10.44,12.99-7.26,8.85,2.92,17.64,6.01,26.44,9.11.87.31,1.54,1.17,3.34,2.59Z"/>
  <path class="st0" d="M513.17,1104.81c-3.49,3.34-5.8,5.68-8.25,7.87-12.15,10.89-24.12,22.01-36.61,32.5-5.82,4.89-8.24,10.07-8.24,17.84-.02,63.62-.49,127.24-.89,190.86-.03,4.55-.52,9.1-.86,14.87-4.16-.68-7.39-.81-10.35-1.77-6.01-1.95-11.89-4.3-17.79-6.58-8.33-3.21-8.64-3.52-8.55-12.29.21-19.65.48-39.3.89-58.95,1.02-48.95,2.21-97.9,3.09-146.85.11-6.39,1.67-11.29,6.39-15.9,15.49-15.12,30.52-30.71,45.81-46.04,6.7-6.72,7.89-6.66,14.26.42,6.87,7.64,13.57,15.43,21.11,24.03Z"/>
  <path class="st0" d="M994.87,791.96c-19.3-6.31-38.04-12.04-56.46-18.64-7.26-2.6-12.84-1.85-19.48,1.96-55.7,32.01-111.6,63.65-167.45,95.38-3.39,1.93-6.87,3.71-11.32,6.1-1.55-3.57-3.15-6.08-3.72-8.81-1.56-7.49-2.59-15.08-4-22.6-.86-4.58.72-7.76,4.77-9.89,1.77-.93,3.47-1.98,5.22-2.94,58.6-32.27,117.26-64.43,175.73-96.94,6.96-3.87,13.14-4.69,20.77-2.49,18.53,5.37,37.28,9.96,55.95,14.83q14.67,3.83,9.95,17.73c-2.14,6.3-4.21,12.63-6.47,18.88-.86,2.39-2.16,4.63-3.5,7.43Z"/>
  <path class="st0" d="M1338.45,1848.87c21.22-4.47,40.67-8.84,60.25-12.53,6.49-1.22,10.48-4.04,13.81-9.78,32.3-55.59,64.88-111.02,97.41-166.48,2.16-3.68,4.5-7.25,6.89-11.07,2.23.72,4.27.75,5.18,1.78,6.4,7.22,12.84,14.46,18.62,22.16,1.4,1.86,1,5.64.37,8.29-.58,2.47-2.54,4.63-3.92,6.91-34.45,57.03-68.98,114.01-103.25,171.15-3.85,6.42-8.38,10.41-15.8,12.27-20.99,5.25-41.79,11.25-62.71,16.83-7.44,1.98-8.78,1.26-10.39-6.16-2.31-10.66-4.17-21.43-6.46-33.36Z"/>
  <path class="st0" d="M1056.01,1941.38c3.64,1,6.83,1.73,9.92,2.75,15.82,5.18,31.71,10.16,47.36,15.8,6.54,2.36,11.72,1.73,17.77-1.73,55.46-31.83,111.1-63.35,166.68-94.96.58-.33,1.15-.68,1.72-1.01,12.46-7.09,13.28-6.76,15.78,6.94,1.14,6.22,1.96,12.5,3.07,18.73.82,4.59-.87,7.74-4.93,9.83-2.07,1.07-4.09,2.25-6.13,3.37-58.05,31.98-116.17,63.82-174.06,96.09-7.32,4.08-13.8,4.87-21.69,2.62-19.85-5.64-39.89-10.61-59.84-15.91-9.29-2.47-9.94-3.55-7.02-12.49,2.89-8.86,6.05-17.63,9.15-26.42.32-.9,1-1.67,2.2-3.6Z"/>
  <path class="st0" d="M1514.98,1080.93c3.81-1.47,6.12-2.72,8.59-3.23,6.52-1.36,13.08-2.54,19.66-3.55,9.77-1.51,10.29-1.26,15.05,7.33,12.44,22.44,24.81,44.91,37.19,67.39,20.41,37.06,40.69,74.21,61.34,111.14,3.53,6.31,4.25,12.04,2.3,18.96-5.77,20.52-10.92,41.21-16.44,61.79-2.33,8.68-3.52,9.38-11.83,6.66-10.06-3.29-20.01-6.91-30.59-10.59.93-3.74,1.47-6.61,2.37-9.36,5.38-16.46,10.6-32.98,16.4-49.3,2.18-6.14,1.79-11.05-1.5-16.79-32.16-56.07-64.05-112.3-96.01-168.49-1.95-3.42-3.77-6.91-6.53-11.97Z"/>
  <path class="st0" d="M533.07,1085.26c-3.26-2.86-5.88-4.74-7.97-7.09-4.42-4.97-8.64-10.13-12.81-15.32-5.1-6.35-5.1-6.61-.75-14.08,3.35-5.75,6.85-11.41,10.29-17.11,31.83-52.69,63.77-105.32,95.38-158.14,3.88-6.49,8.52-10.21,15.88-12.06,20.31-5.12,40.43-11,60.65-16.49,9.69-2.63,10.57-2.06,12.66,7.91,2.09,9.99,4.02,20.01,6.22,30.98-9.55,2.12-17.88,4.04-26.25,5.8-11.07,2.32-22.11,4.84-33.26,6.65-7.16,1.16-11.54,4.52-15.25,10.91-32.37,55.85-65.1,111.49-97.76,167.17-1.97,3.35-4.22,6.54-7.03,10.87Z"/>
  <path class="st0" d="M1565.93,1659.06c-10.38-9.59-18.35-20.1-27.84-30.56,2.42-2.62,4.2-4.88,6.31-6.78,13.12-11.82,26.14-23.76,39.58-35.21,4.78-4.07,6.55-8.32,6.57-14.55.27-64.98.84-129.95,1.32-194.92.11-14.76.53-15.06,14.68-9.82,5.62,2.08,11.19,4.31,16.86,6.25,4.46,1.52,6.3,4.57,6.22,9.08-.03,1.33-.02,2.67-.05,4-1.37,67.96-2.81,135.92-4,203.88-.12,6.85-2.37,11.89-7.24,16.66-14.76,14.45-29.13,29.3-43.69,43.95-2.51,2.53-5.25,4.83-8.72,8.01Z"/>
  <path class="st0" d="M1401.46,1113.72c-3.95,0-7.22.23-10.43-.04-14.59-1.24-29.17-2.6-43.74-3.98-8.4-.8-8.74-.98-10.2-9.24-2.08-11.75-3.88-23.56-5.91-36.03-3.14-.31-6.01-.75-8.9-.84-13.31-.43-26.61-.92-39.93-1.07-5.33-.06-7.72-2.22-8.49-7.49-2.19-15.12-4.76-30.18-7.4-46.58,32.95-11.44,66.39-21.86,99.41-32.55,4.59,6.71,34.35,122.43,35.58,137.83Z"/>
  <path class="st0" d="M1277.57,1742.58c.88-10.34,1.63-19.21,2.39-28.09.77-8.96,1.46-17.93,2.35-26.88.76-7.66,1.4-8.31,8.84-9.54,8.87-1.47,17.77-2.78,26.64-4.24,3.24-.53,6.44-1.31,10.19-2.08.63-18.27,1.25-36.16,1.9-54.76,17.44-4.96,35.11-5.66,52.66-9.63,1.2,2.22,2.58,4.08,3.26,6.16,9.43,28.79,18.8,57.61,28.09,86.44,2.71,8.4,2.32,9.35-5.66,11.35-40.68,10.24-81.4,20.35-122.12,30.43-2.18.54-4.51.46-8.54.82Z"/>
  <path class="st0" d="M1432.07,1565.65c-9.8-18.12-17.51-37.12-26.83-56.78,11.17-10.07,23.23-18.83,35.2-29.27-3.19-5.86-6.31-11.62-9.47-17.37-4.17-7.59-8.43-15.13-12.54-22.75-4.59-8.48-4.48-9.15,2.66-14.99,11.34-9.26,22.76-18.43,35.25-28.53,25.96,23.4,52.03,46.92,77.91,70.24-4.55,7.82-92.85,93.59-102.17,99.44Z"/>
  <path class="st0" d="M957.54,966.02c-13.25-4.95-26.88-10.05-41.4-15.48-2.55,4.04-5.04,7.86-7.41,11.76-5.71,9.38-11.3,18.84-17.06,28.2-4.49,7.29-5.11,7.57-12.8,4.68-13.99-5.25-27.89-10.7-42.2-16.2,0-1.98-.34-3.97.05-5.8,6.34-29.95,12.73-59.89,19.19-89.81,1.79-8.28,2.9-9.1,10.78-6.85,40.63,11.59,81.23,23.32,121.83,35.05,1.82.52,3.51,1.47,5.21,2.19-2.34,7.44-27.89,44.33-36.2,52.26Z"/>
  <path class="st0" d="M610.38,1253.2c7.67,13.98,14.88,27.06,22.03,40.17,4.88,8.94,4.86,8.99-3.12,15.48-11.08,9.02-22.18,18.01-33.81,27.44-1.74-1.1-3.82-2.05-5.45-3.51-22.55-20.22-45.07-40.48-67.52-60.82-6.73-6.1-6.75-7.05-.24-13.36,30.12-29.19,60.31-58.3,90.5-87.41,1.38-1.33,3.06-2.36,5.23-4,1.54,2.14,3.13,3.74,4.03,5.67,6.78,14.46,13.5,28.94,20.1,43.49,3.56,7.86,3.49,8.09-2.97,13.42-9.22,7.62-18.55,15.1-28.79,23.42Z"/>
  <path class="st0" d="M825.49,1773.39c3.83-2.04,6.36-3.54,9.01-4.78,12.97-6.05,25.96-12.05,38.97-18.02q9.84-4.51,16.53,3.69c7.15,8.75,14.29,17.51,21.8,26.71,2.59-1.12,5.02-1.95,7.25-3.17,11.99-6.52,23.97-13.05,35.85-19.78,4.06-2.3,7.29-2.5,10.45,1.45,9.95,12.44,20.04,24.78,30.35,37.5-2.09,2.55-3.89,4.92-5.86,7.12-19.36,21.55-38.72,43.1-58.14,64.6-6.92,7.67-7.6,7.7-14.77.29-28.48-29.43-56.92-58.9-85.35-88.39-1.8-1.87-3.36-3.97-6.08-7.22Z"/>
  <path class="st0" d="M1166.88,985.9c-9.05-11.09-18.44-22.6-28.16-34.5-13.46,7.38-26.25,14.42-39.07,21.42q-10.02,5.48-17.18-3.28c-8.82-10.83-17.61-21.7-26.39-32.52,3.02-6.66,61.3-72.09,69.97-78.58,6.34,3.25,91.12,90.03,97.86,100.17-4.58,4.84-42.13,22.96-57.04,27.28Z"/>
  <path class="st0" d="M1134.97,1782.52c7.13-11.76,14.01-23.09,20.87-34.43,9.47-15.64,7.02-13.62,23.03-7.72,11.53,4.25,22.94,8.79,35.5,13.61-.25,2.88-.21,6.11-.86,9.19-5.94,28.33-12,56.63-18.04,84.94-.42,1.95-.93,3.89-1.5,5.8-.92,3.07-3.04,4.22-6.13,3.5-1.94-.46-3.86-1.03-5.78-1.58-39.01-11.21-78.02-22.41-117.02-33.65-2.76-.79-5.41-1.95-8.84-3.21,1.31-2.61,1.96-4.44,3.04-5.98,9.36-13.36,18.74-26.71,28.24-39.97,4.61-6.43,4.91-6.5,12.35-3.76,11.51,4.24,22.95,8.65,35.14,13.26Z"/>
  <path class="st0" d="M609.41,1475.85c9.92,6.06,19.34,11.61,28.53,17.5,6.08,3.89,11.85,8.28,17.76,12.44-2.23,6.91-4.28,13.88-6.74,20.7-3.38,9.37-7.08,18.63-10.67,27.93-.11.27-.46.45-1.36,1.28-1.97-.3-4.55-.55-7.08-1.08-28.98-6.13-57.96-12.28-86.93-18.48-9.16-1.96-9.67-2.63-7.27-11.09,11.47-40.34,23.01-80.66,34.59-120.96.61-2.11,1.85-4.05,3.05-6.6,2.25,1.08,4.12,1.69,5.66,2.77,13.38,9.35,26.74,18.71,40.01,28.21,6.4,4.58,6.46,4.91,3.68,12.42-4.16,11.23-8.48,22.39-13.25,34.96Z"/>
  <path class="st0" d="M1476.92,1336.21c-17.35-12.25-34.09-24.07-51.45-36.33,5.42-14.61,10.57-28.5,15.94-42.96-11.63-7.06-22.68-13.76-33.74-20.47-2.56-1.55-5.05-3.25-7.71-4.61-4.77-2.43-5.75-5.86-3.77-10.74,3.87-9.56,7.51-19.21,11.21-28.83,1.78-4.63,3.49-9.29,5.73-15.29,34.39,6.52,68.55,14.08,102.41,21.6.5,8.45-32.29,125.31-38.63,137.64Z"/>
  <path class="st0" d="M648.23,1618.6c6.94.52,11.78.81,16.6,1.25,13.58,1.22,27.14,2.68,40.73,3.68,5.3.39,7.64,2.71,8.31,7.85,1.2,9.23,2.78,18.41,4.27,27.6.53,3.24,1.29,6.44,2.11,10.53,12.63.2,24.87.25,37.11.62,18.91.57,18.28-3.55,21.26,18.32,1.57,11.5,3.58,22.95,5.36,34.43.05.3-.18.63-.28.95-9.69,5.47-92.65,31.84-101.28,31.78-11.59-44.79-22.71-90.03-34.21-137Z"/>
  <path class="st0" d="M722.12,1061.42c0,6.36.05,12.6-.01,18.84-.09,9.66-.36,19.31-.35,28.97,0,5.13-1.92,8-7.3,8.79-15.41,2.27-30.78,4.83-46.79,7.37-1.18-2.93-2.43-5.59-3.33-8.36-8.95-27.52-17.85-55.07-26.77-82.6-.41-1.27-.98-2.49-1.28-3.78-1.32-5.66-.69-7.11,5.05-8.62,14.48-3.79,29.04-7.3,43.56-10.92,26.47-6.59,52.94-13.18,79.43-19.72,2.44-.6,4.97-.83,8.88-1.46-.4,5.68-.64,10.2-1.05,14.71-1.25,13.92-2.72,27.83-3.76,41.77-.39,5.23-2.45,7.61-7.76,8.31-10.55,1.38-21.02,3.35-31.52,5.12-1.91.32-3.79.84-7.02,1.57Z"/>
  <path class="st0" d="M1048.65,1543.03c12.33-4.09,24.51-8.13,37.86-12.56-2.78-5.31-5.17-9.89-7.94-15.17-5.93,1.44-11.57,2.81-18.28,4.44-3.84-13.24-3.38-26.37-4.76-39.89,10.31-3.76,19.92-7.26,29.47-10.74,6.85,5.81,61.42,98.68,64.68,110.72-33.11,11.1-66.63,21.11-101.02,31.79v-68.6Z"/>
  <path class="st0" d="M1053.84,1211.05c6.98,2.15,12.5,3.85,19.29,5.94-5.91,12.7-11.17,24.03-16.85,36.24-10.86-1.92-21.2-3.75-31.34-5.54-2.6-10.4-3.07-118.53-.34-127.62,17.25,1.88,34.02,7.1,51.08,10.64,17.17,3.56,34.21,7.74,52.5,11.92-11.74,20.31-22.79,39.43-34.31,59.37-12.59-2.6-25.17-5.2-39-8.06-.36,6.04-.68,11.43-1.02,17.1Z"/>
  <path class="st0" d="M1238.4,1239.97c11.17,35.68,21.55,68.84,32.28,103.1h-68.64c-4.04-11.98-8.23-24.43-12.67-37.6-5.52,2.91-10.17,5.36-15.41,8.12,1.33,4.46,2.72,8.48,3.7,12.6,1.2,5.04.11,6.85-5.1,7.4-10.89,1.14-21.82,1.87-33.71,2.85-3.72-10.24-7.3-20.1-11.23-30.93,34.89-23.89,73.27-41.52,110.78-65.54Z"/>
  <path class="st0" d="M922.1,1307.94c-12.47-4.39-104.74-57.82-109.86-63.44,3.91-7.55,64.51-73.31,71.58-77.46,10.91,18.94,21.83,37.88,33.47,58.1-8.63,9.59-17.41,19.35-26.74,29.72,5.38,3.44,9.82,6.27,16.35,10.44,3.34-4.76,6.76-9.63,9.99-14.22,8.32,3.85,10.39,10.68,14.4,15.73,3.91,4.93,7.24,10.33,11.47,16.44-6.81,8.14-13.56,16.21-20.66,24.69Z"/>
  <path class="st0" d="M801.8,1263.82c20.33,11.76,39.27,22.73,59.08,34.19-2.51,12.64-5.01,25.24-7.79,39.23,6.03.31,11.15.57,16.83.86,1.91-6.19,3.7-12,5.55-17.99,2.37.36,3.76.28,4.88.79,10.28,4.68,20.51,9.47,31.9,14.76-1.84,10.52-3.64,20.84-5.41,30.96-10.87,3.49-119.3,3.74-128.23-.07,7.27-33.96,14.86-68.08,23.18-102.72Z"/>
  <path class="st0" d="M825.65,1508.28c19.65-11.29,38.61-22.18,58.55-33.64,9.54,8.63,19.1,17.26,29.56,26.73,3.3-5.05,6.14-9.39,9.46-14.47-4.31-4.55-8.49-8.96-13.78-14.55,11.41-8.12,21.82-15.53,32.76-23.32,8.6,7.28,16.64,14.07,24.49,20.71-2.96,9.92-56.87,103.89-62.87,109.86-6.47-2.88-71.56-62.06-78.17-71.33Z"/>
  <path class="st0" d="M1168.01,1567.48c-11.92-20.69-22.86-39.67-34.32-59.55,8.44-9.48,17.02-19.11,26.47-29.71-4.86-3.24-9.38-6.26-14.58-9.72-3.28,3.46-6.06,6.66-9.12,9.57-3.82,3.62-5.73,3.61-8.89-.69-6.49-8.81-12.65-17.88-19.49-27.62,7.08-8.41,13.84-16.45,21.13-25.11,19.45,8.9,37.75,19.46,55.63,30.88,17.8,11.37,37.17,20.2,55.98,32.92-24.7,26.82-48.26,52.4-72.8,79.04Z"/>
  <path class="st0" d="M996.06,1538.82c.34-6.17.63-11.35.94-17.11-5.79-1.58-11.12-3.04-17.76-4.86,2.5-13.59,10.19-24.42,15.49-37.21,10.78,1.92,21.12,3.76,31.24,5.57,2.64,8.86,3.17,116.44.78,126.39-7.07,1.07-91.95-17.19-103.32-22.45,11.09-19.19,22.14-38.29,33.61-58.14,12.85,2.57,25.41,5.09,39.01,7.81Z"/>
  <path class="st0" d="M1197.89,1395.97c-5.99-.41-11.17-.76-17.27-1.17-1.09,4.5-1.94,8.64-3.1,12.68-1.45,5.03-3.24,6.15-8.04,4.06-10.03-4.36-19.86-9.18-30.76-14.27,1.87-10.62,3.7-20.97,5.56-31.54,1.37-.53,2.55-1.38,3.74-1.4,15.57-.28,31.14-.56,46.71-.62,21.62-.08,43.23,0,64.85.09,3.86.02,7.72.45,13.04.78-7.36,35.47-15.25,69.48-23.33,104.62-20.34-11.77-39.23-22.7-59.28-34.29,2.52-12.43,5.11-25.23,7.88-38.93Z"/>
  <path class="st0" d="M861.53,1427.36c5.56-2.91,10.15-5.31,15.12-7.91-1.5-6.17-2.87-11.82-4.37-18.04,2.94-.83,5.04-1.76,7.22-2,8.94-.98,17.93-1.59,26.85-2.67,4.55-.55,6.68,1.28,8.02,5.42,2.65,8.21,5.67,16.3,8.49,24.31-6.89,6.86-100.74,61.49-110.58,64.01-6.44-16.09-10.72-33.09-16.09-49.69-5.4-16.67-10.39-33.48-15.86-51.2h68.5c4.21,12.51,8.29,24.65,12.7,37.77Z"/>
  <path class="st0" d="M1108.04,1283.38c-8.06-6.83-15.89-13.47-23.63-20.02,2.38-10.06,56.9-104.8,64.39-111.01,25.4,23.42,50.95,46.97,77.61,71.54-20.45,11.82-39.58,22.88-59.6,34.45-9.54-8.6-19.12-17.23-29.71-26.78-3.31,5.15-6.24,9.7-9.4,14.61,4.4,4.55,8.46,8.76,12.4,12.84-4.29,6.35-17.38,16.28-32.07,24.37Z"/>
  <path class="st0" d="M1001.93,1123.01c.19.27.54.55.54.82.03,21.57.02,43.15.02,65.85-12.47,4.23-24.86,8.44-37.94,12.89,2.88,5.49,5.31,10.14,8.01,15.27,5.98-1.55,11.61-3.01,18.1-4.69.82,3.36,1.69,5.77,1.96,8.25.93,8.6,1.42,17.25,2.54,25.82.6,4.58-1.19,6.79-5.23,8.14-8.18,2.74-16.3,5.64-24.4,8.46-7.42-7.14-62.06-101.5-63.52-109.65,7.29-4.67,92.37-31.21,99.93-31.16Z"/>
  <path class="st0" d="M816.25,848.6c5.63-6.02,104.52-60.22,112.89-61.9,1.12,6.96-13.39,75.42-18.7,86.96-7.72-1.75-15.7-3.57-23.69-5.37-20.76-4.69-41.51-9.37-62.27-14.05-3.51-.79-7.44-.96-8.23-5.64Z"/>
  <path class="st0" d="M1102.66,813.68c8.85-2.8,121.02-.41,130.21,2.98-4.97,8.91-12.74,15.15-19.11,22.47-6.33,7.27-12.99,14.25-19.52,21.35-6.71,7.29-13.44,14.57-21.07,22.83-23.69-22.16-46.69-43.63-69.56-65.23-.91-.86-.67-2.96-.94-4.39Z"/>
  <path class="st0" d="M679.52,996.7c-2.22.88-4.29,1.87-6.46,2.54-25.4,7.92-50.79,15.86-76.25,23.59-3.52,1.07-7.36,1.06-10.61,1.5-.76-1.73-.92-2.02-1.01-2.34-.09-.31-.24-.69-.13-.94.75-1.82,1.37-3.74,2.39-5.41,20.58-33.82,41.2-67.62,61.86-101.39.47-.78,1.51-1.21,2.9-2.28,1.18,1.51,2.81,2.76,3.32,4.37,8.08,25.35,16.04,50.74,23.95,76.14.37,1.17.05,2.56.05,4.23Z"/>
  <path class="st0" d="M1119.88,1945.09c6.31-28.3,12.63-56.6,19.06-85.44,3.63.48,6.23.63,8.74,1.2,25.6,5.73,51.2,11.46,76.76,17.37,3.67.85,8.98.38,9.77,5.28.83,5.2-4.76,5.76-7.96,7.53-31.41,17.35-62.91,34.51-94.42,51.67-3.07,1.67-6.34,2.95-9.52,4.41-.81-.67-1.62-1.34-2.42-2.01Z"/>
  <path class="st0" d="M655.81,1711.25c7.03,22.51,13.56,43.42,20.08,64.34,2.27,7.3,4.48,14.63,6.76,21.93.99,3.18,2.49,6.37-1,9.01-7.93-1.68-104.29-60.18-110.67-67.6,8.77-5.16,18.57-6.78,27.73-9.91,9.12-3.11,18.36-5.89,27.57-8.74,9.45-2.93,18.92-5.79,29.53-9.02Z"/>
  <path class="st0" d="M1545.23,1156.8c20.47,37.44,40.93,74.88,62.58,114.48-12.35-.06-21.62-3.49-31.07-5.33-9.79-1.91-19.52-4.18-29.25-6.39-9.6-2.18-19.17-4.48-29.44-6.88,3.01-13.59,5.68-25.87,8.45-38.12,3.67-16.23,7.32-32.46,11.21-48.63.77-3.21,2.6-6.16,3.94-9.23l3.58.1Z"/>
  <path class="st0" d="M818.44,1917.62c3.41-7.98,51.41-60.8,59.99-66.45,1.86,1.5,3.97,3.01,5.87,4.75,19.07,17.56,38.15,35.11,57.11,52.8,2.98,2.78,8.38,5.16,6.26,10.21-1.9,4.53-7.1,2.39-10.84,2.31-35.89-.8-71.77-1.75-107.65-2.71-3.46-.09-6.92-.58-10.73-.91Z"/>
  <path class="st0" d="M1579.25,1444.52c1.91,13.45-1.24,122.41-3.62,128.44-6.32-2.38-57.25-48.1-65.67-59.09.8-1.15,1.56-2.59,2.63-3.75,18.71-20.3,37.44-40.58,56.21-60.82,2.6-2.8,4.83-6.67,10.45-4.79Z"/>
  <path class="st0" d="M1481.42,994.29c-29.16,10.21-57.3,18.34-86.19,27.46-3.62-11.52-6.89-21.89-10.13-32.27-3.27-10.47-6.69-20.9-9.7-31.45-2.93-10.27-7.89-20.16-8.17-32.66,3.9,1.18,6.22,1.41,8.01,2.49,33.3,20.13,66.56,40.35,99.77,60.63,1.84,1.12,3.27,2.92,6.41,5.8Z"/>
  <path class="st0" d="M474.37,1159.53c7.74,3.29,57.31,47.84,66.42,59.21-.88,1.39-1.67,3.17-2.92,4.53-18.67,20.3-37.38,40.57-56.15,60.79-2.38,2.56-4.83,6.95-8.74,4.6-1.9-1.15-2.4-5.81-2.33-8.85.79-37.21,1.79-74.42,2.79-111.62.07-2.57.54-5.13.92-8.64Z"/>
  <path class="st0" d="M445.73,1462.7c7.32-.85,74.33,13.35,86.85,18.55-6.52,30.21-13.27,60.62-20.67,90.9-.43,1.78-1.92,3.3-3.02,5.1-2.53-2.1-3.87-2.72-4.44-3.76-19.54-35.63-39.01-71.3-58.41-107.01-.55-1.02-.23-2.52-.32-3.78Z"/>
  <path class="st0" d="M1371.72,1735.67c21.01-6.56,41.59-13,62.18-19.42,7.61-2.37,15.25-4.67,22.86-7.05,3.94-1.24,3.93-1.22,8.89,1.4-2.2,8.52-61.04,104.88-66.96,109.66-4.51-5.46-26.16-72.61-26.96-84.59Z"/>
  <path class="st0" d="M941.24,77.92c3.39,10.13,4.5,91.49,2.17,120.17-.2,2.47-1.21,4.88-2.14,8.45-23.28-6.21-45.63-12.17-69.81-18.62,23.4-37.12,46.12-72.8,69.78-110Z"/>
  <path class="st0" d="M1740.26,2439.43c-2.46-3.4-5.26-6.6-7.32-10.22-17.16-30.09-34.23-60.23-51.23-90.42-4.76-8.45-4.22-9.66,5.22-12.26,16.37-4.5,32.79-8.84,49.21-13.17,3.49-.92,7.06-1.49,11.96-2.5-1.81,43.36-3.31,85.66-5.47,127.93-.78.21-1.57.42-2.35.63Z"/>
  <path class="st0" d="M373,403.58c-23.28,6.9-45.75,13.15-70.13,18.76,1.81-43.62,3.56-85.89,5.31-128.17l2.16-.93c2.28,2.97,4.93,5.72,6.77,8.94,17.63,30.89,35.15,61.84,52.62,92.82,1.24,2.2,1.84,4.75,3.27,8.57Z"/>
  <path class="st0" d="M1481.45,268.71c39.25-20.5,76.81-40.12,114.37-59.74.57.57,1.15,1.14,1.72,1.71-1.88,4.08-3.43,8.35-5.69,12.21-17.31,29.62-34.75,59.16-52.15,88.72-.68,1.15-1.27,2.36-2.07,3.42-3.13,4.11-5.02,4.47-8.94.86-5.39-4.95-10.49-10.23-15.67-15.42-10.09-10.11-20.14-20.26-31.57-31.76Z"/>
  <path class="st0" d="M1108.63,2528.45c9.45-.61,56.98,11.73,69.92,18.08-22.7,35.84-45.29,71.58-68.1,107.18-.78-.2-1.56-.41-2.33-.61-.51-4.44-1.48-8.89-1.45-13.33.23-34.31.64-68.63,1.06-102.94.04-2.86.6-5.71.9-8.39Z"/>
  <path class="st0" d="M517.97,2412.65c17.3,17.2,33.71,33.53,51.12,50.85-9.55,6.86-19.35,10.8-28.49,15.81-9.63,5.27-19.46,10.19-29.19,15.27-9.44,4.93-18.85,9.91-28.3,14.82-9.29,4.83-18.61,9.59-27.92,14.39-.54-.48-1.07-.96-1.61-1.44,1.65-3.81,2.91-7.85,5-11.41,17.63-30.17,35.38-60.28,53.18-90.35,1.44-2.43,3.49-4.5,6.2-7.94Z"/>
  <path class="st0" d="M1737.68,2148.35c-.52-5.38-1.66-9.93-1.27-14.36,2.38-27.13,5.08-54.23,7.75-81.33.12-1.22.87-2.38,1.72-4.6,14.73,5.43,29.11,10.73,44.02,16.23-1.84,6.1-3.21,10.83-4.7,15.53-6.12,19.3-12.45,38.54-18.3,57.92-1.58,5.22-4.18,7.78-9.61,8.18-6.21.46-12.37,1.5-19.6,2.42Z"/>
  <path class="st0" d="M1255.6,402.04c-2.71-15.54-5.3-30.42-8.03-46.14,4.44-1.21,7.82-2.29,11.26-3.06,21.08-4.68,42.22-9.1,63.24-14.04,5.65-1.33,9.43-.45,12.73,4.49,3.3,4.94,7.3,9.41,11.79,15.09-3.97,2.93-7.24,6.25-11.19,8.11-24.67,11.57-49.49,22.82-74.28,34.12-1.39.63-3,.79-5.52,1.42Z"/>
  <path class="st0" d="M313.62,584.33c.24,6.49.96,11.76.52,16.93-2.06,24.56-4.42,49.09-6.75,73.62-.28,2.91-1.03,5.78-1.81,10.04-14.91-5.4-29.08-10.53-43.49-15.74.28-2.89.14-4.89.7-6.67,7.07-22.55,14.35-45.04,21.3-67.63,1.47-4.77,3.88-7.2,8.95-7.65,6.25-.55,12.45-1.72,20.58-2.91Z"/>
  <path class="st0" d="M1338.79,2353.06c-21.49,19.64-41.79,38.18-62.31,56.93-8.49-3.41-16.4-6.58-25.15-10.1,2.06-4.69,3.17-8.94,5.53-12.32,15.61-22.34,31.47-44.5,47.3-66.68.9-1.26,2.26-2.2,4.21-4.06,10.11,12.03,19.82,23.6,30.42,36.22Z"/>
  <path class="st0" d="M1807.48,653.93c-4.9.68-9.13,2.05-13.2,1.7-27.77-2.44-55.52-5.24-83.26-7.97-.9-.09-1.73-.78-3.79-1.76,5.27-14.42,10.52-28.8,15.93-43.6,3.86.98,6.41,1.49,8.88,2.27,21.2,6.69,42.32,13.64,63.61,20.02,5.93,1.78,8.88,4.67,9.31,10.87.4,5.88,1.56,11.7,2.52,18.48Z"/>
  <path class="st0" d="M799.66,333.18c-2.07,4.59-3.27,8.84-5.65,12.25-15.61,22.34-31.48,44.49-47.23,66.73-.97,1.37-1.59,2.99-2.91,5.52-11.27-13.45-20.98-25.06-31.02-37.04,2.01-2.43,3.25-4.32,4.87-5.8,17.14-15.74,34.42-31.32,51.45-47.17,3.62-3.37,6.81-4.59,11.5-2.36,5.93,2.82,12.13,5.07,19.01,7.88Z"/>
  <path class="st0" d="M343.92,2086.68c-5.38,14.73-10.49,28.71-15.78,43.18-2.89-.36-5.19-.3-7.26-.95-22.24-6.95-44.41-14.15-66.69-20.95-5.2-1.59-7.8-4.2-8.17-9.69-.42-6.24-1.48-12.43-2.37-19.5,5.08-.49,9.36-1.54,13.53-1.19,26.22,2.2,52.41,4.69,78.6,7.18,2.53.24,4.99,1.16,8.14,1.93Z"/>
  <path class="st0" d="M795.39,2331.01c2.74,15.96,5.26,30.61,7.84,45.62-3.61,1.25-6,2.34-8.5,2.9-21.78,4.85-43.62,9.43-65.35,14.49-5.94,1.38-10.06.61-13.54-4.73-3.24-4.97-7.28-9.42-11.65-14.95,4.3-3.04,7.73-6.28,11.78-8.18,24.13-11.3,48.4-22.31,72.65-33.35,1.73-.79,3.71-1.01,6.76-1.8Z"/>
</svg>