<?xml version="1.0" encoding="UTF-8"?>
<svg id="Layer_0_xA0_Image" xmlns="http://www.w3.org/2000/svg" version="1.1" viewBox="0 0 2732 2048">
  <!-- Generator: Adobe Illustrator 30.0.0, SVG Export Plug-In . SVG Version: 2.1.1 Build 123)  -->
  <defs>
    <style>
      .st0 {
        fill: #bab76a;
        stroke: #000;
        stroke-miterlimit: 10;
        stroke-width: .25px;
      }
    </style>
  </defs>
  <path class="st0" d="M1541.86,1764.16l-2.08,8.63c-29.8,51.72-54.42,106.44-83.44,158.55-9.48,17.02-12.08,31.14-35.22,18.54l-141.05-169.01,111.01-92.93,150.79,76.22Z"/>
  <path class="st0" d="M703.81,656.18l42.33,138.45-130.85,107.23-135.01-164.37c3.54-6.23,5.17-15.1,12.62-17.6l210.91-63.71Z"/>
  <polygon class="st0" points="965.93 1673.92 762.96 1734.18 752.41 1722.59 772.01 1495.99 915.95 1511.05 965.93 1673.92"/>
  <path class="st0" d="M2197.79,598.21c1,8.06,6.58,15.53,3.27,23.84l-101.09,193.95-129.64-66.32,15.61-170.81,211.85,19.34Z"/>
  <polygon class="st0" points="765.84 1300.27 750.01 1470.01 536.95 1450.05 532.84 1430.01 636 1234.88 765.84 1300.27"/>
  <path class="st0" d="M1157.73,292.3l-67.05,129.38-167.81-15.54,20.3-211.95c7-3.03,14.76-6.34,22.27-2.62l192.28,100.74Z"/>
  <polygon class="st0" points="2109.2 850.15 2297.67 949.17 2295.59 966.59 2123 1111.9 2030.42 1000.65 2109.2 850.15"/>
  <polygon class="st0" points="1453.72 271.74 1343.06 361.96 1192 283.97 1293.22 94.44 1312.98 98.02 1452.1 264.89 1453.72 271.74"/>
  <polygon class="st0" points="881.59 573.57 718.01 624.01 656.87 420.01 674.9 407.89 894.1 428.92 881.59 573.57"/>
  <path class="st0" d="M1964.01,552.01l-145.75-12.26-50.26-163.69,197.55-61.71c8.2-1.72,18.51,11.29,18.51,18.6l-20.05,219.06Z"/>
  <polygon class="st0" points="2119 1146.03 2255.06 1312.16 2242.05 1329.05 2033.16 1393.84 1989.01 1255.93 2119 1146.03"/>
  <path class="st0" d="M438.33,1101.68c-2.85-4.57.04-22.45,6.59-25.77l166.38-137.74,94.14,110.8-80.39,150.83-186.71-98.12Z"/>
  <polygon class="st0" points="1669.5 144.49 1736.14 360.81 1598.93 403.23 1489.87 271.12 1651.99 136.98 1669.5 144.49"/>
  <path class="st0" d="M1840.23,1619.78l12.68-143.88,163.22-49.07,61.53,196.7c2.15,8.73-8.13,11.41-13.08,16.03l-224.35-19.79Z"/>
  <path class="st0" d="M1246,1777.96c-1.85.01-3.58.82-4.96,1.99-46.9,39.76-101.04,91.09-150.09,125.99-12.83,9.13-14.52,5.45-26.9-3.5l-66-214.36,138.55-41.76,109.4,131.64Z"/>
  <polygon class="st0" points="1812.01 1641.99 1792.04 1855.04 1771.99 1859.14 1576.12 1754.8 1643.88 1627.03 1812.01 1641.99"/>
  <polygon class="st0" points="1103.99 1350.01 1090.06 1501.15 934.94 1486.06 912.15 1408.14 1103.99 1350.01"/>
  <polygon class="st0" points="1943.57 762.4 1938 838.99 1934.75 843.85 1736.01 825.99 1804.03 690 1943.57 762.4"/>
  <polygon class="st0" points="1167.98 658 1034.16 586.69 1107.39 448.38 1181.01 453.99 1185.71 457.27 1167.98 658"/>
  <polygon class="st0" points="1041.99 761.99 889.99 747.99 904.28 592.28 982.08 568.81 1041.99 761.99"/>
  <polygon class="st0" points="1249.98 1426.01 1294.01 1571.99 1142.4 1615.6 1094.14 1555.27 1249.98 1426.01"/>
  <path class="st0" d="M1913.88,1098.08l46.02,147.02c-.18,3.57-3.63,5.73-5.89,7.93-5.68,5.56-53.2,45.44-56.77,44.82l-129.25-155.82,145.88-43.94Z"/>
  <polygon class="st0" points="1963.7 1073.73 1784.01 979.02 1894.12 887.12 1902 884.85 1999.58 1003.35 1963.7 1073.73"/>
  <polygon class="st0" points="1844.01 1299.99 1829.73 1457.73 1752.19 1479.82 1692 1288.02 1844.01 1299.99"/>
  <polygon class="st0" points="1824.01 639.98 1630.01 699.99 1644.1 548.12 1800.07 562.93 1824.01 639.98"/>
  <polygon class="st0" points="1418 428.03 1323 607.96 1226.01 490.04 1345.4 392.2 1418 428.03"/>
  <polygon class="st0" points="837.01 750.2 965.96 905 822.94 951.71 774.68 802.96 837.01 750.2"/>
  <polygon class="st0" points="999.99 1224.01 928.73 1357.71 790.94 1286.11 798 1205.99 999.99 1224.01"/>
  <path class="st0" d="M1410.02,1440l97.84,116.72c-13.57,11.87-112.87,99.74-120.68,99.3-3.57-.2-58.37-28.56-63.85-32.35-2.21-1.53-5.34-2.97-5.02-6.31l91.71-177.37Z"/>
  <polygon class="st0" points="1548 1593.99 1568.94 1392.05 1701.79 1462.96 1629.08 1600.22 1548 1593.99"/>
  <polygon class="st0" points="772.96 974.21 951.96 1069 834 1165.14 734.65 1044.98 772.96 974.21"/>
  <polygon class="st0" points="1591.67 432.28 1641.97 493 1487 623.96 1439.99 478.03 1591.67 432.28"/>
  <polygon class="st0" points="2036 1662.02 1820.01 1841.99 1837.9 1644.84 2036 1662.02"/>
  <polygon class="st0" points="2291.99 1004.01 2264.03 1284 2138.08 1131 2291.99 1004.01"/>
  <polygon class="st0" points="637.98 442 696.01 631.98 506.01 689.99 637.98 442"/>
  <polygon class="st0" points="1739.99 1868.03 1472.01 1953.99 1565.19 1778.14 1739.99 1868.03"/>
  <polygon class="st0" points="2298 919.98 2120.21 827.04 2213 652.04 2298 919.98"/>
  <polygon class="st0" points="1387.99 1949.99 1108.01 1923.01 1260.73 1796.15 1387.99 1949.99"/>
  <polygon class="st0" points="1760.19 351.82 1702.02 162 1949.96 293 1760.19 351.82"/>
  <polygon class="st0" points="613.93 1220.09 520.02 1398 438.02 1128 613.93 1220.09"/>
  <polygon class="st0" points="1472.05 254 1346 100.02 1625.96 127 1472.05 254"/>
  <polygon class="st0" points="1261.99 96.01 1171.97 272 994.01 179.98 1261.99 96.01"/>
  <polygon class="st0" points="1034 1885.98 784 1754.02 974.08 1696.81 1034 1885.98"/>
  <polygon class="st0" points="915.99 206.01 898.01 404.01 700 385.98 915.99 206.01"/>
  <polygon class="st0" points="2186 571.98 1988.88 554.13 2006.02 356 2186 571.98"/>
  <polygon class="st0" points="747.99 1494.01 729.01 1693.99 548 1476.02 747.99 1494.01"/>
  <polygon class="st0" points="2230 1358.02 2098.03 1607.99 2040.06 1416.07 2230 1358.02"/>
  <polygon class="st0" points="442.02 1046 468.99 766.01 595.86 918.72 442.02 1046"/>
  <path class="st0" d="M879.99,600.01l-14.01,145.99c-10.63-7.09-15.25-26.54-30.47-23.62-11.67,2.24-51.04,42.24-64.47,51.65-1.7,1.19-1.99,2.77-5.01,1.96l-39.2-128.07,153.16-47.92Z"/>
  <path class="st0" d="M1571.99,411.98l-139.99,42c5.52-11.04,18.53-23.87,10.89-35.88-8.39-13.18-56.7-29.37-71.6-40.39-1.63-1.2-3.98-1.97-3.29-4.69l103.03-84.91,100.96,123.87Z"/>
  <path class="st0" d="M1078,446.02l-66.02,129.96-11.01-27.95c-5.7-7.16-12.8-6.69-21.07-5.12-22.41,4.23-48.96,17.94-71.88,23.09l12.27-133.72,157.71,13.75Z"/>
  <path class="st0" d="M816,1181.98c-14.6,2.48-30.77-8.78-39.54,7.48l-8.48,84.54-120.1-63.13,75.12-140.83,93,111.94Z"/>
  <path class="st0" d="M1725.98,1474c3.25,12.02,3.9,32.05,19.48,33.57l82.53-23.56-11.98,134-160-14.02,69.97-129.99Z"/>
  <path class="st0" d="M2085.86,836.16l-71.89,143.84-95.97-113c33.7,1.05,39.43,8.24,43.98-28,2.34-18.63,2.61-39.13,4.01-57.99l3.06-4.99,116.8,60.15Z"/>
  <path class="st0" d="M1969.99,1273.99l37.93,127.89-151.91,46.11,12.01-145.99c11.68,8.64,16.44,28.9,34.49,23.52l61.49-50.52,6-1Z"/>
  <path class="st0" d="M1980.02,1230l-42-140c11.96,4.72,26.71,18.9,39.03,8.05l39.94-74.04,86.97,102.99-123.94,103Z"/>
  <path class="st0" d="M1321.99,378.03l-109.02,93.95c-4.54.84-2.74-1.98-2.97-4.95-1.08-13.76,8.05-26.55-8.09-33.94l-83.91-9.11,63.3-117.81,140.69,71.87Z"/>
  <path class="st0" d="M1088,1526.02c-19.18,20.68-32.33,19.07-11.94,46.92,4.47,6.1,44.48,49.63,41.94,53.03l-127.97,40.03-46.02-153.99,143.99,14.01Z"/>
  <path class="st0" d="M1960.01,575.99l-14.03,160-127.97-66.03c-.82-5.1.45-3.1,2.8-4.16,16.39-7.39,33.15-2.39,28.29-27.91-4.49-23.58-18.07-49.85-23.08-73.88l134,11.98Z"/>
  <path class="st0" d="M1301.99,1594.01c-2.1,12.33-17.23,24.62-10.09,37.1,6.03,10.53,76.16,39.5,76.06,43.89l-104.84,85.13-101.08-121.13,139.95-44.99Z"/>
  <path class="st0" d="M755.99,820.01l41.99,139.99c-12.26-4-25.59-19-37.9-10.9-8.61,5.66-31.87,59.16-39.64,72.35-.97,1.64.59,3.34-3.4,2.53l-84.89-102.7,123.84-101.27Z"/>
  <path class="st0" d="M1791.99,535.99l-145.99-12.01c18.04-20.78,34.35-18.74,13.94-46.92-13.15-18.17-30.49-33.98-43.9-52.06l128.04-40.19,47.91,151.17Z"/>
  <path class="st0" d="M918,1381.98c-11.96,5.07-33.24,4.66-33.88,21.21l23.88,80.81-133.76-12.2,13.78-157.78,129.99,67.97Z"/>
  <path class="st0" d="M1615.99,1624.01l-62.94,119.73-141.04-74.75,113-92.98c2.3,10.59-6.68,30.12,4.23,37.74,27.34,8.07,58.2,6.84,86.75,10.25Z"/>
  <polygon class="st0" points="1543.71 1378.28 1527.03 1539.98 1424.37 1415.35 1464.03 1338 1543.71 1378.28"/>
  <polygon class="st0" points="990.37 897.64 888 772.02 1051.03 787.97 1075.17 872.07 990.37 897.64"/>
  <polygon class="st0" points="1013.59 1199.58 850.01 1185.01 976.81 1081.97 1053.81 1122.96 1013.59 1199.58"/>
  <polygon class="st0" points="1619.99 546.01 1605.03 706.03 1521.14 733.88 1494.92 648.07 1619.99 546.01"/>
  <polygon class="st0" points="1417.98 486 1465.75 640.8 1396.99 697.97 1340.7 628.99 1417.98 486"/>
  <path class="st0" d="M1784,678.02l-74.32,143.65-88.8-7.54c-1.29-2.9-1.13-6.07-1.02-9.16.71-19.6,3.41-48.46,6.13-67.98.46-3.32,1.33-10.08,4.02-11.98l153.98-47Z"/>
  <polygon class="st0" points="1158.01 772.01 1068.45 763.55 1020 608.02 1165.09 683.98 1158.01 772.01"/>
  <polygon class="st0" points="1665.73 1284.27 1713.99 1439.99 1570.33 1364.68 1578.03 1275.99 1665.73 1284.27"/>
  <polygon class="st0" points="1906 1072.02 1752.91 1121.91 1694.04 1055 1762.94 998.03 1906 1072.02"/>
  <polygon class="st0" points="1846 1275.98 1684.35 1261.67 1657.99 1176.02 1735.52 1152.4 1743.95 1153.01 1846 1275.98"/>
  <polygon class="st0" points="1883.99 862.01 1760.58 967.74 1682.16 926.69 1723.35 848.19 1883.99 862.01"/>
  <polygon class="st0" points="828 974.02 983.04 926.67 1039.86 994.72 973.03 1051.45 828 974.02"/>
  <path class="st0" d="M1339.79,1352.16l53.84,68.5-74.62,143.34-49.1-154.99,2.11-3.97c20.9-13.89,39.08-34.45,58.99-49.01,1.9-1.39,6.82-5.22,8.77-3.87Z"/>
  <polygon class="st0" points="1115.99 1234.01 1106.07 1323.07 952.02 1372 1026.24 1226.23 1115.99 1234.01"/>
  <path class="st0" d="M1271.84,709.86c-2.75,1.96-28.81-12.25-33.88-14.82-10.38-5.25-32.51-15.41-40.64-21.36-1.98-1.45-4.22-2.39-4.92-5.07l13.63-160.62,103.64,123.53-37.82,78.33Z"/>
  <polygon class="st0" points="1215.92 1316.08 1241 1400.07 1116.02 1504 1130.97 1341.97 1215.92 1316.08"/>
  <polygon class="st0" points="1202 86.02 970 159.98 1071.91 74.85 1202 86.02"/>
  <polygon class="st0" points="720 1721.98 603.92 1661.08 564.02 1536 720 1721.98"/>
  <polygon class="st0" points="856 222.02 670 375.98 730.49 260.5 856 222.02"/>
  <path class="st0" d="M501.98,1420l-83.54-99.42c2.18-43.46,6.72-87.23,11.59-130.56l71.95,229.98Z"/>
  <path class="st0" d="M417.99,1057.99c-5.96,1.04-3.16-1.58-4.2-4.68-13.12-39-24.6-78.7-35.92-118.28,16.71-35.27,34.2-70.86,53.1-105.06,1.62-2.94,3.95-8.84,7.01-9.96l-19.99,237.98Z"/>
  <polygon class="st0" points="1831.52 144.49 1911.98 241.03 1909.04 243.97 1698.01 132.02 1831.52 144.49"/>
  <polygon class="st0" points="1573.99 94.02 1332.01 72.02 1457.03 34.2 1573.99 94.02"/>
  <polygon class="st0" points="2146.02 1572 2259.98 1356.01 2251.99 1452.99 2246.91 1487.91 2146.02 1572"/>
  <polygon class="st0" points="2297.97 1231.99 2319.98 990.01 2357.99 1114.91 2297.97 1231.99"/>
  <polygon class="st0" points="477.97 691.99 474.04 691.04 487.04 562.04 587.98 478 477.97 691.99"/>
  <polygon class="st0" points="2305.98 859.99 2232.02 628 2317.54 729.23 2305.98 859.99"/>
  <path class="st0" d="M1402,1974.02c-1.86,4.5-8.34,5.1-12.48,6.5-37.41,12.72-76.08,24.15-114.35,33.45l-113.16-59.96,239.99,20Z"/>
  <path class="st0" d="M1878,1827.98l185.98-155.98c-4.88,13.67-12.28,27.13-18.94,40.04-13.3,25.79-27.8,51.08-41.14,76.86l-125.9,39.08Z"/>
  <polygon class="st0" points="2169.98 512 2016 328.02 2130.94 388.06 2169.98 512"/>
  <polygon class="st0" points="1763.99 1890.02 1664.12 1973.1 1653.06 1974.02 1532.01 1961.98 1763.99 1890.02"/>
  <path class="st0" d="M1033.99,1914.03l-16.97,1.95-112.55-11.3c-22.86-28.29-47.69-55.3-70.42-83.72-1.61-2.02-11.49-13.55-10.04-14.94l209.97,108.01Z"/>
  <path class="st0" d="M1636,1996.02c-.5,3.1-3.73,3.76-6.04,4.94-17.39,8.89-70.82,29.68-88.89,31.11-8.18.65-45.76,1.11-51.03-1.11l-36.04-43.93c8.46-7.58,20.75-4.42,31.08-5.12l150.92,14.1Z"/>
  <path class="st0" d="M1988,1820.02c-20.42,18.73-42.31,49.03-65.32,63.66-7.85,4.99-46.44,21.89-54.69,23.46-7.86,1.49-42.73-21.39-51.99-26.18-.98-4.25,12.42-12.45,16.43-13.53l155.57-47.41Z"/>
  <path class="st0" d="M2243.98,1522c.64,3.45-.61,6.24-1.57,9.41-5.84,19.23-28.05,69.15-40.35,83.65-10.39,12.24-24.63,20.69-34.94,33.05-2.98,2.5-6.47,2.15-10.02,1.95-13.06-.71-28.92-2.54-42.19-3.96-3.01-.32-4.98-.19-6.85-3.08l11.91-18.05,124.02-102.96Z"/>
  <path class="st0" d="M395.98,1292c-3.67-1.13-4.82-5.57-6.33-8.65-19.49-39.6-35.01-85.77-29.68-130.39.43-3.61.75-5.91,3.14-8.86,3.61-4.45,29.37-25.28,35.03-28.97,2.07-1.35,3.95-3.08,6.66-2.99,7.28,1.65,4.91,23.08,5.29,28.93l-14.1,150.92Z"/>
  <path class="st0" d="M1492,22.02c16.96.53,34.12-.75,51.08-.1,34.44,1.32,61.78,6.82,92.32,23.68,3.22,1.78,4.4,2.41,6.1,5.9,2.11,4.34,15.07,46.79,14.38,49.26l-4.68,3.13c-4.84-1.29-9.87-1.81-14.62-3.47-43.73-15.25-93.09-55.16-137.97-72.03l-6.61-6.37Z"/>
  <path class="st0" d="M515.4,1474.65c2.46,2.25,6.67,9.46,8.17,12.78l48.42,156.56c-3.76.87-4.74-2.12-7-3.98-10.53-8.69-47.35-46.45-54.98-57.01-11.28-15.6-16.17-41.55-25.22-58.92l24.26-50.06c1.45-3.02,4.79-.78,6.35.64Z"/>
  <path class="st0" d="M748.02,230c-.88-3.75,2.09-4.76,3.98-7,14.18-16.92,51.74-54.18,70.62-63.38,7.47-3.64,36.3-15.48,43.31-16.82,3.54-.67,4.27-1.05,7.93.23,5.98,2.08,35.28,17.48,40.8,21.31,1.97,1.36,3.82,2.76,5.3,4.67l-8.09,7.87-163.85,53.13Z"/>
  <path class="st0" d="M2369.99,1150.01c-.58,16.95.79,34.12.09,51.07-.66,16.04-1.67,36.56-6.53,51.47-4.72,14.5-14.49,29.36-19.41,44.09l-53.02,17.29c-5.67-1.24-.38-16.91.43-21.39,27.72-43.2,46.59-97.33,73.97-139.97,1.26-1.97-.2-3.58,4.48-2.57Z"/>
  <path class="st0" d="M2225.91,575.94c-5.07,3.37-11.84-9.05-14.01-12.84l-47.89-157.09c3.77-.87,4.74,2.14,6.99,3.99,11.64,9.53,54.51,55.44,60.46,67.54,3.31,6.72,17.27,40.38,18.19,45.99,1.93,11.81-21.63,38.8-23.75,52.41Z"/>
  <path class="st0" d="M2328.03,938c-2.85-8.23-4.31-14.08-4.02-22.96,1.59-48.78,10.65-102.31,14-152.07.2-2.98-1.54-5.79,2.97-4.95l32.56,79.45.48,63.55-2.04,3.96c-6.89,2.95-39.82,36.07-43.95,33.03Z"/>
  <path class="st0" d="M626,404.01c.07,8.95-6.09,15.28-11.98,21.01-29.94,29.14-73.81,61.66-107.07,88.93-2.11,1.73-15.56,13.5-16.94,12.04,12.69-27.49,22.91-67.93,41.94-91.04,3.75-4.56,31.2-30.92,34.94-33.06,11.34-6.5,44.79,3.22,59.11,2.12Z"/>
  <path class="st0" d="M763.39,1772.62l106.61,129.36c-5.56-.06-10.79-3.06-15.93-5.05-20.21-7.8-58.41-23.01-74.09-35.91-5.19-4.27-33.77-31.94-36.07-35.91-5.52-9.54,4.32-42.98,2.4-55.81,2.15-7.19,12.63,1.78,17.09,3.32Z"/>
  <path class="st0" d="M366,811c2.35-16.56,20.28-41.19,24.46-58.54l55.53-16.46c2.39,14-5.12,24.16-10.95,36.05-18.95,38.64-41.14,80.26-62.01,117.99-1.63,2.94-3.95,8.87-7.03,9.97,2.81-27.51-3.78-62.41,0-89Z"/>
  <path class="st0" d="M1279.98,63.96l-20.92,4.06-156.11-14.02-2.95-3.98,81.47-31.55,64.48.56c2.29.96,30.17,34.29,32.09,37.9,1.26,2.38,2.79,3.79,1.93,7.02Z"/>
  <path class="st0" d="M1970.69,275.31l-104.69-127.29c4.28-.34,8.1,1.58,11.96,3.02,19.3,7.21,61.1,24,76.06,35.94,5.35,4.27,37.21,36.35,37.93,40.07.08,7.29-1.73,56.58-6.94,56.91l-14.33-8.64Z"/>
  <path class="st0" d="M1242,2026h-87c-4.2,0-57.36-22.98-59.95-26.05l-16.97-50.97c.36-4.93,17.18-3.12,20.39-.45l143.53,77.47Z"/>
  <polygon class="st0" points="1345.98 813.99 1353.98 961.99 1291.94 831.15 1345.98 813.99"/>
  <polygon class="st0" points="1576 1028.01 1569.98 1086 1434 1037.97 1436.96 1034 1576 1028.01"/>
  <path class="st0" d="M1466.03,1210l-62.03-131.98,107.96,96.98c-6.77,3.57-41.93,37.92-45.94,35Z"/>
  <path class="st0" d="M1303.99,1038.02l-128.86,61.92-16.96-53.75c11.73-4.2,24.65-1.46,36.91-2.11,4.26-.22,8.07-1.85,11.94-2.06,32.25-1.73,64.65-1.46,96.97-4Z"/>
  <path class="st0" d="M1364.01,1232.01c-11.77-.43-25.4-.59-37-2.02-3.94-.49-20.71-2.19-20.94-4.96l47.95-135.02c7.45,7.39,3.35,24.46,3.9,35.08.22,4.26,1.85,8.06,2.06,11.94,1.71,31.62,1.39,63.43,4.03,94.99Z"/>
  <polygon class="st0" points="1427.93 822.11 1378.02 959.99 1372.01 816 1427.93 822.11"/>
  <polygon class="st0" points="1329.98 972 1224.04 874.94 1267.01 838.04 1329.98 972"/>
  <path class="st0" d="M1312,989.98l-133.16-47.89c-1.67-2.12-.51-3.99.02-6.13.58-2.37,21.04-41.8,23.1-43.11,3.14-2,6.71,1.48,9.02,3.18,26.04,19.08,62.06,55.8,87.04,78.95,4.92,4.56,10.01,9.58,13.97,15.01Z"/>
  <path class="st0" d="M1553.99,925.97l-131.99,60.01,95-105.93c10.16,13.71,25.51,27.26,35.03,40.92,1.18,1.7,2.77,1.99,1.96,5Z"/>
  <path class="st0" d="M1314,1062.02l-95.28,105.82c-2.72.48-36.04-38.26-36.65-40.95-.94-4.17,18.86-12.45,23.21-14.6,35.72-17.67,72.62-33.41,108.72-50.26Z"/>
  <polygon class="st0" points="1424 1060.02 1557.15 1107.95 1532.04 1157.11 1424 1060.02"/>
  <path class="st0" d="M1402.02,970l48.01-136c7.15,3.27,49.17,23.08,49.88,27.23-30.48,37.37-64.88,73.05-97.88,108.77Z"/>
  <path class="st0" d="M1285.98,1214c-2.61,2.26-43.4-20.01-49.43-23.57-1.64-.97-3.34.58-2.53-3.41l97.96-107.03-46,134Z"/>
  <polygon class="st0" points="1577.99 1003.99 1432.01 1009.98 1561.02 948.02 1577.99 1003.99"/>
  <path class="st0" d="M1388.01,1234l-5.99-143.99,61.93,127c-.21,2.93-48.82,17.01-55.94,16.99Z"/>
  <polygon class="st0" points="1303.99 1012.02 1159.99 1020.01 1164.01 964 1303.99 1012.02"/>
  <polygon class="st0" points="1601.99 734.01 1596.01 812.01 1542.19 807.81 1528.08 756.08 1601.99 734.01"/>
  <path class="st0" d="M1292,723.97l34.03-69.97c3.5-.7,4.93,1.81,7,3.96,15.53,16.07,29.92,37.76,44.48,55.06-.21,2.54-35.82,32.18-38.96,32.66-9.26,1.41-35.06-20.42-46.55-21.72Z"/>
  <path class="st0" d="M1121.67,1156.32l-3.66,53.69-78-6.02,34.08-69.91c2.87-2,40.19,20.82,47.58,22.24Z"/>
  <path class="st0" d="M1208.02,1291.97l-76.01,22.02,8.01-78c10.06,4.36,45.94,1.11,51.97,7.03s10.72,39.77,16.04,48.95Z"/>
  <polygon class="st0" points="1495.92 741.87 1445.41 756.1 1414.96 719.99 1414.12 715.26 1473.98 666 1495.92 741.87"/>
  <path class="st0" d="M1737.99,987.96l-58.99,48-32.96-40.91c-.06-2.32,17.78-38.59,20.2-41.82,1.3-1.75,2.04-3.46,4.68-3.25l63.78,32.32,3.3,5.65Z"/>
  <polygon class="st0" points="1010.01 918.02 1082.74 896.14 1099.6 944.73 1059.29 977.78 1010.01 918.02"/>
  <path class="st0" d="M1545.99,1352l-69.94-36.98,23.93-44.04c4.09-2.48,51.05,2.15,53.15,4.96l-7.14,76.06Z"/>
  <polygon class="st0" points="1657.99 1259.99 1580.29 1251.71 1584.27 1200.27 1634.08 1184.83 1657.99 1259.99"/>
  <path class="st0" d="M996,1062.03l59.25-47.9c3.82-.7,29.2,34.41,34.44,39.15l-24.89,46.57-68.8-37.82Z"/>
  <polygon class="st0" points="1188.01 698.01 1257.16 731.97 1234 779.13 1182.88 774.13 1188.01 698.01"/>
  <polygon class="st0" points="1696 846.02 1659.97 916 1612.13 891.82 1618.02 837.98 1696 846.02"/>
  <path class="st0" d="M1289.7,1292.2l32.19,40.83-61.88,48.96-21.55-73.09c.61-3.43,44.35-14.81,51.23-16.7Z"/>
  <path class="st0" d="M1407.98,1396c-7.35-7.72-49.17-53.29-49.69-59.35-.42-4.94,33.24-29.61,39.08-34.33,7.07,5.72,44.46,18.72,44.61,26.64l-34,67.04Z"/>
  <polygon class="st0" points="1724 1131.98 1650.02 1154.01 1636.29 1103.45 1675 1070.1 1723.01 1125.99 1724 1131.98"/>
  <polygon class="st0" points="1149.55 849.55 1099.89 863.18 1078.01 790.01 1154.1 796.92 1149.55 849.55"/>
  <path class="st0" d="M2311.98,684l-67.98-81.98c8.59,2.83,33.66.15,38.98,6l29,75.98Z"/>
  <polygon class="st0" points="1789.99 1902.01 1785.67 1939.66 1710 1967.98 1789.99 1902.01"/>
  <path class="st0" d="M490,1445.98c-7.07-.43-33.06-.49-37.02-3.96l-30.96-78.02,67.98,81.98Z"/>
  <path class="st0" d="M2372,986v84l-32.02-96.98c11.06.29,20.9,10.92,32.02,12.98Z"/>
  <path class="st0" d="M1793.99,114.03c.36,3.54-6.77,2.13-8.96,1.95-29.23-2.38-58.96-4.86-88.13-7.87-3.04-.31-4.96-.21-6.86-3.11l28.56-22.61,75.38,31.64Z"/>
  <path class="st0" d="M2110,347.98l-94-49.96c8.64.43,31.85-11.75,37.91-9.09l56.08,59.05Z"/>
  <path class="st0" d="M2277.97,1451.99c-3.54.36-2.13-6.77-1.95-8.96,2.38-29.23,4.85-58.96,7.87-88.14.31-3.04.22-4.96,3.11-6.85l22.61,28.61-31.64,75.34Z"/>
  <polygon class="st0" points="395.99 1077.99 361.92 1060.67 364.02 978.01 395.99 1077.99"/>
  <polygon class="st0" points="1026 80.02 946.02 148 948.34 110.33 1026 80.02"/>
  <path class="st0" d="M1414,20c-.61,3.8-4.21,3.28-6.76,4.24-16.6,6.22-75.82,26.8-90.22,27.81-1.49.1-3.47.42-3.01-1.04l16.99-31.01h83Z"/>
  <polygon class="st0" points="643.97 375.99 632.4 346.48 633.01 338.05 689.98 284 643.97 375.99"/>
  <path class="st0" d="M1046,1942.02c-5.52,5.2-24.87,24.36-30.81,24.01s-47.74-19.7-56.54-23.67c-5.89-2.66-14.33-5.71-18.64-10.34l106,10Z"/>
  <polygon class="st0" points="1422 1996.02 1402.69 2029.69 1322.01 2027.98 1422 1996.02"/>
  <path class="st0" d="M718,1748.02c2.19,2.9-33.69,14.53-37.95,10.97l-54.05-56.97,91.99,46Z"/>
  <path class="st0" d="M449.98,702c-6.51-5.31-24.5-23.06-23.96-30.85l31.96-71.14-8,101.99Z"/>
  <polygon class="st0" points="2046.02 1764 2093.98 1674 2103.06 1709.95 2046.02 1764"/>
  <path class="st0" d="M1125.99,1129.99c-1.83,1.88-36.87-14.83-37.7-19.26l17.74-36.73,21.64,25.47-1.67,30.52Z"/>
  <path class="st0" d="M1147.99,876.01l-3.01,31.97-23.98,19.98-12.86-38.7c1.27-4.2,33.51-11.68,39.85-13.25Z"/>
  <path class="st0" d="M1183.99,1215.99c-6.14-.45-40.05-1.64-41.7-4.27l3.73-41.71,28.89,16.09,9.08,29.9Z"/>
  <path class="st0" d="M1455.7,1303.73c-3.43,2.01-32.17-15.53-37.66-18.73l23.88-20.15,30.14,2.1c3.14,2.41,1.05,2.31.31,4.37-3.84,10.7-12,21.88-16.66,32.42Z"/>
  <path class="st0" d="M1559.99,1208.01l-3.98,42-42.01-4.03c-1.37-1.5,12.36-25.98,14.92-28.07,2.42-1.97,29.91-11.04,31.08-9.9Z"/>
  <path class="st0" d="M1626.01,1078l-7.97-30.87,14.95-27.09,26.92,30.96c-9.55,7.22-19.38,18.39-28.89,25.03-1.7,1.19-1.99,2.77-5.02,1.97Z"/>
  <path class="st0" d="M1315.99,762.03c2.17,2.91-19.29,20.94-21.4,21.57-10.37,3.08-23.98-2.19-34.59-1.61l20.96-37.77,35.03,17.82Z"/>
  <path class="st0" d="M1420,765.99c-8.84-.37-20.91,8.47-28.87,7.96-3.01-.19-29.07-13.31-29.09-14.95l30.96-26.97c3.86,3.24,29.56,31.16,27,33.95Z"/>
  <path class="st0" d="M1230.01,1284.01l-12.01-39.99,31.97,3.01,20.01,22.01c.62,2.75-1.51,3.49-3.37,4.56-3.05,1.76-35.19,11.67-36.6,10.39Z"/>
  <path class="st0" d="M1648,936.03c-6.31,11.39-10.97,24.23-17.56,35.42-.97,1.64.58,3.34-3.41,2.54-1.41-.59-17.93-21.09-18.54-23.47-2.79-10.86,2.03-21.74,1.52-32.5l37.99,18.02Z"/>
  <path class="st0" d="M1589.99,877.99c-1.06,1.21-27.13-12.01-28.92-14.06-2.71-3.1-10.46-30.3-9.05-31.93l41.11,5.95-3.13,40.04Z"/>
  <path class="st0" d="M1103.97,1029.99c-2.76.56-2.55.42-4.14-1.27-3.11-3.31-24.02-29.53-23.68-31.47l30.81-25.24,10.22,29.01-13.22,28.97Z"/>
  <path class="st0" d="M1615.99,1122l9.76,39.75-36.77,12.19c-1.98-1.52-2.25-1.62-2.19-4.08.15-6.39,1.39-24.85,4.3-29.77,1.31-2.22,23.03-19.79,24.89-18.09Z"/>
  <path class="st0" d="M1222,802.02c-5.05,7.07-8.88,22.62-14.93,28.05-3.43,3.07-29.13,11.86-31.06,9.94l4.01-42.02,41.98,4.03Z"/>
  <path class="st0" d="M1515.98,806c-10.04-4.23-21.76.11-31.83-5.15-2.95-1.54-15.78-16.38-18.18-19.82-1.19-1.7-2.77-1.99-1.97-5.02l39.97-12.02,12.01,42.01Z"/>
  <path class="st0" d="M1371.99,1288.03c.64,2.79-.41,3.29-1.94,5.03-2.2,2.5-26.97,23.12-28.78,22.8l-27.27-31.83c8.81-.92,22.86-9.64,31.04-9.14,7.59.46,18.24,12.62,26.95,13.15Z"/>
</svg>