<?xml version="1.0" encoding="UTF-8"?>
<svg id="Layer_0_xA0_Image" xmlns="http://www.w3.org/2000/svg" version="1.1" viewBox="0 0 2732 2048">
  <!-- Generator: Adobe Illustrator 30.2.1, SVG Export Plug-In . SVG Version: 2.1.1 Build 1)  -->
  <defs>
    <style>
      .st0 {
        fill: #8f877c;
        stroke: #000;
        stroke-miterlimit: 10;
        stroke-width: .25px;
      }
    </style>
  </defs>
  <path class="st0" d="M2390,0c2.11,2.92,4,6.04,6.38,8.72,16.6,18.68,33.08,37.47,50.1,55.77,5.99,6.44,7.65,11.74,4.96,20.95-13.17,45.05-25.09,90.47-37.4,135.77-1.49,5.48-2.9,10.92-8.66,15.04-1.9-1.38-4.23-2.57-5.9-4.38-12.44-13.45-24.66-27.12-37.17-40.51-3.64-3.9-4.27-7.64-2.73-12.69,3.99-13.05,7.49-26.25,11.12-39.41.69-2.49,1.1-5.05,1.91-8.81-4.4.82-7.87,1.31-11.27,2.14-43.36,10.5-86.67,21.21-130.1,31.41-7.16,1.68-10.36,4.83-12.01,12.05-5.41,23.69-11.95,47.12-17.44,70.79-1.85,7.98-5.75,11.67-13.79,13.03-15.75,2.66-31.33,6.31-47.01,9.37-3.76.73-7.65.77-13.14,1.28.93-5.16,1.25-8.97,2.31-12.56,9.92-33.52,19.74-67.08,30.14-100.45,2.18-7,.93-11.52-3.9-16.8-28.57-31.22-56.78-62.75-85.12-94.19-1.12-1.24-2.25-2.46-3.34-3.72-5.23-6.07-5.35-6.58-.41-12.61,5.91-7.21,12.1-14.2,18.05-21.39,2.31-2.79,4.29-5.86,6.42-8.81,7.33,0,14.67,0,22,0,1.67,2.05,3.24,4.21,5.04,6.14,28.76,30.93,57.54,61.84,86.34,92.73,1.34,1.44,2.84,2.72,4.56,4.36,49.52-12.1,99.09-23.64,149.6-36.42-14.42-17.82-30.29-32.04-42.45-47.98,2.62-7.13,4.77-12.98,6.92-18.84,22,0,44,0,66,0Z"/>
  <path class="st0" d="M344,2048c-1.89-2.65-3.56-5.5-5.71-7.92-16.38-18.43-32.58-37.05-49.46-55.01-6.31-6.72-8.1-12.24-5.24-21.72,10.28-34.1,19.09-68.65,28.47-103.02,3.24-11.89,6.57-23.75,9.73-35.66,1.23-4.63,3.11-8.68,8.22-11.87,2.13,1.79,4.55,3.43,6.47,5.51,11.76,12.73,23.22,25.73,35.18,38.27,4.55,4.77,5.09,9.36,3.27,15.39-4.52,14.93-8.52,30.02-13.02,46.11,3.39-.31,5.97-.24,8.39-.82,44.98-10.9,89.91-22.04,134.96-32.65,6.28-1.48,8.72-4.5,10.12-10.23,5.91-24.26,12.4-48.39,18.05-72.71,1.79-7.69,5.46-10.97,13.19-12.26,16.41-2.73,32.65-6.54,48.97-9.81,11.29-2.26,12.86-.65,9.64,10.24-9.27,31.29-17.84,62.82-28.41,93.67-4.54,13.26-2.07,21.49,7.29,31.37,27.73,29.26,54.28,59.63,81.28,89.58,7.34,8.14,7.24,8.11.42,16.44-7.34,8.97-14.54,18.07-21.8,27.11h-24c-.76-1.08-1.41-2.26-2.3-3.21-29.5-31.69-59.03-63.37-88.57-95.02-1.32-1.42-2.89-2.61-4.38-3.92-49.67,12.04-98.99,24-149.83,36.33,15.43,17.03,29.64,32.71,42.84,47.28-2.27,7.32-4.01,12.93-5.76,18.54h-68Z"/>
  <path class="st0" d="M0,1096c2.84-1.51,5.99-2.63,8.47-4.58,13.88-10.93,27.49-22.18,41.43-33.03,3.79-2.95,8.39-4.86,13.44-7.71,1.37,3.23,2.75,5.17,3,7.24,2.31,19.18,4.35,38.4,6.64,57.58.56,4.71-1.83,7.43-5.15,10.02-10.52,8.19-20.98,16.45-31.43,24.73-2.54,2.01-4.95,4.18-8.28,7.01,15.88,6.58,30.61,12.72,45.36,18.79,29.57,12.17,59.24,24.07,88.65,36.61,6.96,2.97,11.62,2.98,17.67-2.36,18.23-16.09,37.34-31.18,55.77-47.06,5.79-4.99,10.75-6.21,17.89-2.65,14.9,7.42,30.26,13.91,45.37,20.91,3.16,1.46,6.07,3.47,10.5,6.04-3.88,3.67-6.45,6.55-9.45,8.85-28.02,21.5-56.04,43-84.26,64.25-4.74,3.57-6.72,7.08-6.02,13.27,4.75,42.37,9.01,84.8,13.61,127.19,1.79,16.47,1.2,14.46-12.47,17.84-12.28,3.04-24.55,6.14-36.87,9.03-8.97,2.1-10.32,1.12-11.46-8.24-4.24-34.72-8.39-69.44-12.58-104.17-1.4-11.57-2.93-23.14-4.14-34.73-.43-4.09-1.98-6.54-5.95-8.16-45.32-18.52-90.57-37.2-135.86-55.8-1.21-.5-2.59-.59-3.88-.87,0-40,0-80,0-120Z"/>
  <path class="st0" d="M2732,954c-15.67,12.28-31.27,24.67-47.08,36.76-3.8,2.9-8.34,4.82-13.91,7.96-1.29-4.3-2.5-6.93-2.83-9.66-2.08-17.19-3.76-34.43-6-51.59-.87-6.69.96-11.22,6.5-15.32,12.55-9.29,24.64-19.23,37.81-29.61-3.07-1.67-5.17-3.08-7.47-4.03-42.78-17.64-85.64-35.1-128.32-52.96-5.79-2.42-9.55-1.76-14.21,2.23-18.97,16.26-38.42,31.95-57.35,48.25-5.83,5.02-10.72,5.94-17.85,2.37-15.46-7.76-31.47-14.43-47.16-21.73-8.52-3.96-8.8-6.58-1.18-12.42,28.54-21.9,57.04-43.86,85.88-65.36,5.94-4.43,7.27-8.85,6.46-15.95-5.01-44-9.42-88.07-14.25-132.09-.6-5.5,1.32-7.91,6.47-9.11,14.91-3.49,29.72-7.37,44.62-10.91,7.69-1.83,9.07-.77,10.11,7.59,4,32.05,7.88,64.11,11.83,96.16,2.03,16.48,4.12,32.95,6.21,49.65,13.33,5.5,26.22,10.83,39.12,16.15,31.39,12.96,62.77,25.93,94.17,38.85,2.73,1.12,5.62,1.87,8.44,2.78v122Z"/>
  <path class="st0" d="M1888,0c-.35.91-.44,2.14-1.09,2.69-7.58,6.42-6.84,13.15-3.26,21.97,15.9,39.16,30.93,78.68,46.28,118.07,1.32,3.39,2.73,6.75,4.51,11.14,2.31-2.19,4.25-3.71,5.8-5.54,8.37-9.93,16.92-19.73,24.82-30.03,2.91-3.8,5.88-4.74,10.18-4.29,19.86,2.12,39.75,4.05,59.6,6.24,2.36.26,4.58,1.71,7.82,2.98-2.17,3.18-3.47,5.39-5.06,7.36-30.76,38.09-61.66,76.07-92.24,114.3-4.53,5.66-8.93,7.27-16.18,6.1-48.62-7.91-97.33-15.3-146.02-22.85-1.64-.26-3.34-.28-4.95-.67-6.65-1.6-8.1-4.59-3.9-9.74,12.83-15.75,26.04-31.19,38.99-46.84,3.24-3.92,6.98-4.2,11.61-3.2,14.64,3.17,29.34,6.04,44.02,9.01,1.25.25,2.53.38,4.83.73-.38-2.38-.37-4.25-.97-5.88-16.48-44.65-33.1-89.25-49.47-133.95-1.73-4.72-4.44-6.65-9.19-7.61-42.08-8.54-84.11-17.27-126.13-26.08-4.09-.86-8-2.58-12-3.91,70.67,0,141.33,0,212,0Z"/>
  <path class="st0" d="M848,2048c2.27-3.57,4.55-7.14,7.57-11.88-17.95-46.07-36.25-93.05-55.63-142.81-2.99,4.09-4.59,6.52-6.42,8.75-8.04,9.78-16.27,19.41-24.16,29.32-2.32,2.92-4.57,4.31-8.4,3.89-19.21-2.12-38.44-3.98-57.66-6.06-3.15-.34-6.23-1.34-10.41-2.27,1.42-3.12,1.95-5.36,3.26-6.98,31.59-39.18,63.36-78.22,94.8-117.51,4.12-5.15,8.65-5.25,14.14-4.39,22.38,3.5,44.77,6.91,67.16,10.37,25.35,3.92,50.69,7.86,76.04,11.83,3.62.57,7.28,1.06,10.8,2.02,3.65,1,4.56,3.74,2.92,7.02-.88,1.75-2.29,3.26-3.56,4.79-11.52,13.83-23.26,27.48-34.51,41.52-4.58,5.72-9.3,7.19-16.46,5.35-12.56-3.24-25.4-5.43-38.13-7.99-2.54-.51-5.14-.69-8.86-1.17,1.27,3.95,2.13,7,3.23,9.98,15.72,42.49,31.67,84.89,47,127.51,2.43,6.77,6.34,9.08,12.64,10.37,42.43,8.63,84.82,17.46,127.21,26.29,1.87.39,3.63,1.36,5.43,2.06h-208Z"/>
  <path class="st0" d="M1380,0c-1.2,18.24-2.74,36.46-3.42,54.72-.26,6.98-2.93,10.59-9.04,13.68-44.49,22.54-88.8,45.44-133.16,68.22-.89.46-1.75.96-2.66,1.36-7.2,3.16-9.76,1.54-9.39-6.63.5-11.29,1.44-22.57,2.21-33.85.54-7.96,1.31-15.92,1.61-23.89.21-5.67,2.65-9.08,7.92-11.35,13.44-5.78,26.7-11.95,40.01-18.03,1.72-.78,3.28-1.91,5.79-3.39-7.55-5.1-14.41-9.71-21.23-14.37C1245.74,17.67,1232.88,8.83,1220,0c53.33,0,106.67,0,160,0Z"/>
  <path class="st0" d="M1356,2048c.79-18.63,1.77-37.26,2.28-55.9.18-6.66,4.49-9.01,9.37-11.51,34.1-17.43,68.16-34.93,102.23-52.42,10.07-5.17,20.09-10.46,30.23-15.47,3.1-1.53,6.57-2.33,10.94-3.84.6,3.78,1.46,6.28,1.31,8.71-1.2,19.62-2.72,39.21-3.83,58.83-.31,5.46-2.87,8.28-7.68,10.34-11.93,5.12-23.71,10.61-35.53,15.99-2.98,1.36-5.89,2.88-10.53,5.16,20.44,13.84,39.82,26.98,59.2,40.11h-158Z"/>
  <path class="st0" d="M1048,0c-9.23,4.49-18.46,9-27.71,13.47-3.24,1.57-6.52,3.07-10.99,5.18,6.25,4.68,11.48,8.63,16.75,12.52,9.9,7.31,19.74,14.7,29.77,21.82,4.56,3.24,6.18,6.98,5.57,12.71-2.12,20.15-3.69,40.36-5.55,60.54-.08.86-.89,1.65-2.06,3.68-3.39-1.84-6.89-3.33-9.94-5.46-40.29-28.27-80.5-56.64-120.76-84.95-5.4-3.8-10.96-7.38-17.71-11.9.81-8.58,1.72-18.1,2.62-27.62,46.67,0,93.33,0,140,0Z"/>
  <path class="st0" d="M1690,2048c6.71-3.44,13.39-6.94,20.15-10.3,4.46-2.21,9.02-4.21,14.46-6.73-1.89-2-3.15-3.79-4.81-5.03-13.1-9.74-26.14-19.55-39.48-28.94-5.24-3.69-7.33-7.8-6.56-14.27,1.97-16.53,3.37-33.12,5-49.69.19-1.98.22-4,.6-5.95.46-2.35,1.22-4.63,1.85-6.95,2.41.83,5.16,1.17,7.18,2.57,19.69,13.68,39.26,27.54,58.86,41.35,23.41,16.5,46.39,33.66,70.45,49.16,9.45,6.09,13.82,11.84,10.77,22.86-1.03,3.73-.36,7.93-.47,11.91h-138Z"/>
  <path class="st0" d="M1670,0c.59,3.21.87,6.52,1.83,9.61,4.71,15.24,9.39,30.49,14.53,45.58,1.85,5.45.95,9.41-2.89,13.53-8.83,9.49-17.38,19.25-25.97,28.96-5.25,5.93-10.37,11.96-15.78,18.21-4.67-.3-5.15-4.26-6.29-7.59-6.47-18.86-12.88-37.73-19.38-56.58-5.96-17.26-12.02-34.48-18.04-51.72,24,0,48,0,72,0Z"/>
  <path class="st0" d="M1066,2048c-5.57-17.43-10.86-34.96-16.83-52.25-2.39-6.9-1.13-11.77,3.72-17.09,12.77-14,25.03-28.48,37.47-42.78,3.03-3.48,5.36-3.34,7.57.68.79,1.45,1.29,3.07,1.83,4.64,12.09,35.6,24.17,71.2,36.24,106.8h-70Z"/>
  <path class="st0" d="M770,0c-2.41,1.58-4.66,3.52-7.26,4.69-36.74,16.5-73.52,32.91-110.3,49.31-9.95,4.43-10.01,4.41-15.69-4.71-7.04-11.3-14.03-22.64-21-33.99Q610.38,6.58,618,0C668.67,0,719.33,0,770,0Z"/>
  <path class="st0" d="M1966,2048c2.25-1.32,4.39-2.86,6.76-3.92,36.73-16.46,73.49-32.86,110.25-49.25,9.43-4.2,9.5-4.19,14.94,4.54,7.57,12.14,15.12,24.3,22.53,36.53,3.88,6.4,3.74,6.49-2.48,12.1h-152Z"/>
  <path class="st0" d="M894,0c-2.42,21.4-4.8,42.8-7.34,64.18-.13,1.05-1.57,1.95-2.95,3.56-2.69-1.43-5.38-2.54-7.73-4.16-28.7-19.75-57.36-39.56-85.99-59.43-1.55-1.07-2.67-2.76-4-4.16,36,0,72,0,108,0Z"/>
  <path class="st0" d="M1840,2048c2-15.83,4-31.65,5.99-47.48.54-4.29.82-8.63,1.65-12.87,1.2-6.17,3.36-6.97,9-3.77.58.33,1.12.72,1.67,1.1,29.02,20.05,58.05,40.1,87.05,60.19,1.04.72,1.77,1.87,2.65,2.82h-108Z"/>
  <path class="st0" d="M0,1224c1.1,2.68,2.85,5.28,3.2,8.06,1.86,14.74,3.38,29.52,4.96,44.3.14,1.28-.16,2.6-.3,4.55-2.56,1.01-5.21,2.05-7.86,3.09,0-20,0-40,0-60Z"/>
  <path class="st0" d="M2732,818c-1.23-9.81-2.48-19.61-3.68-29.42-.61-4.94-1.08-9.9-1.71-14.84-.54-4.26.64-7.22,5.39-7.75v52Z"/>
  <path class="st0" d="M586.14,951.39c2.33-3.77,3.97-6.2,5.38-8.76,20.72-37.64,41.19-75.43,62.3-112.86,4.06-7.19,3.4-12.16-.83-18.79-24.15-37.94-47.86-76.16-71.74-114.27-1.73-2.76-3.67-5.4-6.16-9.05-9.22,16.36-18.24,31.49-26.3,47.11-3.11,6.04-6.79,7.77-13.21,7.79-18.65.05-37.31.74-55.96,1.37-3.89.13-7.4.38-8.47-3.23,5.61-9.06,10.98-17.34,15.97-25.85,21.72-37.08,43.56-74.09,64.78-111.46,4.39-7.73,9.52-10.51,18.15-10.67,40.31-.77,80.61-2.12,120.91-3.29,7.66-.22,15.31-.8,22.97-.88,8.18-.08,10.05,2.45,6.65,9.49-7.37,15.3-15.31,30.33-22.6,45.67-2.53,5.32-6.98,5.82-11.52,6.15-12.96.94-25.94,1.52-38.91,2.25-3.92.22-7.84.45-11.9.68,1.88,7.63,67.6,118.79,77.66,131.57,52.22-1.39,105.02-2.8,159.32-4.25-2.44-4.2-3.92-7.06-5.67-9.73-8.4-12.82-16.88-25.59-25.3-38.39-4.84-7.36-4.48-7.14.94-14.67,4.46-6.2,7.99-13.06,11.92-19.64,4.61-7.73,9.07-15.54,13.82-23.18,4.28-6.89,6.91-6.98,11.49-.1,16.04,24.14,31.91,48.4,47.84,72.61,12.81,19.49,25.28,39.21,38.63,58.32,4.07,5.82,3.39,9.66.01,15.06-15.02,24-29.7,48.22-44.5,72.36-11.15,18.18-22.29,36.35-33.45,54.52-4.09,6.66-6.01,6.92-10.76.86-10.07-12.85-19.75-26.01-29.97-38.73-3.73-4.65-3.94-8.6-.97-13.55,7.53-12.57,14.81-25.3,22.15-37.99.95-1.65,1.65-3.44,2.96-6.23-3.87-.23-6.72-.57-9.56-.55-44.99.36-89.97.91-134.96,1.03-6.76.02-10.72,1.95-14.23,8.03-20.64,35.78-41.79,71.27-62.73,106.87-1.47,2.5-2.62,5.18-4.47,8.89,11.12-.99,20.99-1.84,30.85-2.75,7.3-.67,14.6-1.34,21.87-2.19,3.53-.42,6.17.19,8.84,3.03,9.58,10.19,19.6,19.97,29.3,30.04,2.37,2.47,4.19,5.47,6.57,8.65-2.22,1.33-3.24,2.35-4.41,2.57-48.05,9.3-96.11,18.53-144.18,27.77-2.94.57-5.97.84-8.82,1.71-6.07,1.85-10.04-.49-13.64-5.34-29.14-39.37-58.42-78.63-87.66-117.93-.79-1.07-1.65-2.11-2.28-3.28-2.85-5.32-1.73-8.34,4.31-9.15,9.89-1.34,19.9-1.83,29.83-2.94,10.2-1.14,20.39-2.46,30.55-3.97,4.14-.62,5.99,1.72,7.96,4.6,8.08,11.83,16.25,23.6,24.42,35.36,1.88,2.7,3.88,5.31,6.8,9.28Z"/>
  <path class="st0" d="M1947.19,441.43c-19.43,4.46-36.93,8.48-54.42,12.51-28.88,6.64-57.72,13.45-86.66,19.79-5.62,1.23-8.45,3.65-10.06,9.18-13.53,46.34-27.33,92.6-41.01,138.9-.63,2.12-.79,4.37-1.39,7.89,22.04-5.93,43.02-11.58,63.98-17.22,5.71,12.16,15.03,19.89,22.59,29.02,4.67,5.65,9.75,10.95,14.46,16.57,5.28,6.3,4.63,8.48-3.49,10.85-12.78,3.73-25.65,7.18-38.49,10.7-38.21,10.47-76.48,20.75-114.58,31.58-5.86,1.67-8.63-.57-11.8-4.31-15.95-18.8-31.96-37.55-47.97-56.31-16.44-19.26-32.9-38.5-49.33-57.77-5.17-6.06-4.83-7.95,2.39-10.58,15.64-5.69,31.46-10.92,47.03-16.81,5.43-2.06,8.8-.37,12.21,3.48,9.71,10.98,19.57,21.84,29.28,32.82,1.31,1.48,2.12,3.39,4.38,4.69,17.17-48.99,32.15-97.71,47.56-146.66-31.29-35.35-62.35-70.45-94.53-106.81-1.34,4.5-2.4,7.44-3.08,10.48-2.85,12.67-5.71,25.34-8.3,38.06-1.19,5.87-3.4,9.74-9.64,12.34-11.96,4.98-23.22,11.6-34.88,17.32-2.98,1.46-6.37,2.09-11.09,3.58,1.44-12.09,2.63-22.2,3.86-32.3,5.14-41.98,10.46-83.94,15.31-125.96.85-7.4,3.95-11.03,10.93-13.34,45.51-15.09,90.9-30.53,136.33-45.87.95-.32,1.86-.75,2.82-1.01,8.76-2.32,11.39-.01,9.49,8.64-3.22,14.63-6.64,29.22-9.96,43.83-.59,2.6-1.96,5.35-1.54,7.78,1.56,9.2-4.15,10.94-11.19,12.87-15.66,4.3-31.12,9.34-47.76,14.41,2.25,2.86,3.64,4.94,5.33,6.74,30.31,32.33,60.68,64.61,90.94,96.98,3.33,3.56,6.16,6.12,11.85,4.66,47.09-12.07,94.25-23.81,141.39-35.67.96-.24,1.86-.7,3.6-1.37-1.66-2.25-2.97-4.42-4.65-6.26-10.57-11.55-21.02-23.23-31.96-34.43-3.81-3.89-4.62-7.26-3.03-12.36,5.84-18.74,11.31-37.61,16.82-56.46,1.04-3.56,2.58-6.06,5.86-5.72,5.74,6.97,10.75,13.48,16.19,19.6,29.88,33.63,59.75,67.26,89.92,100.62,5.09,5.63,6.25,10.62,4.06,17.94-13.58,45.29-26.66,90.72-39.95,136.09-3.79,12.94-5.6,13.38-15.2,3.98-10.23-10.03-20.08-20.49-30.77-30-5.68-5.05-6.33-10.42-4.67-16.85,3.33-12.9,6.84-25.74,10.23-38.62.82-3.13,1.47-6.3,2.61-11.23Z"/>
  <path class="st0" d="M1493.76,212.3c-3.88,4.32-6.79,7.48-9.62,10.72-28.47,32.66-56.88,65.36-85.42,97.95-3.56,4.06-5.11,7.46-3.01,13.27,16.52,45.72,32.57,91.62,48.79,137.45.65,1.83,1.51,3.58,2.69,6.36,2.48-2.65,4.57-4.64,6.37-6.87,10.02-12.47,19.94-25.02,29.97-37.47,2.02-2.51,4.38-4.74,5.42-5.86,11.51,2.95,21.37,5.58,31.29,7.98,9.06,2.19,18.23,3.94,27.27,6.23,6.13,1.55,6.83,3.95,3.27,9.28-.92,1.38-2.04,2.63-3.08,3.93-32.47,40.6-65.04,81.11-97.26,121.9-3.55,4.49-6.85,4.11-11.24,3.04-25.89-6.25-51.81-12.41-77.71-18.63-22.34-5.36-44.68-10.72-67.01-16.14-2.79-.68-5.5-1.68-8.99-2.76,1.14-2.94,1.59-5.23,2.79-7,9.32-13.81,18.96-27.4,28.12-41.31,3.32-5.04,7.14-6.08,12.72-4.79,14.27,3.3,28.63,6.22,42.97,9.25,1.86.39,3.76.57,6.52.98-.67-3.07-.95-5.3-1.65-7.38-14.7-43.89-29.54-87.73-44.07-131.67-1.8-5.45-4.5-7.9-10.18-9.13-40.69-8.76-81.29-17.94-121.93-26.95-2.53-.56-5.15-.75-8.87-1.28.73,2.89.98,5.03,1.79,6.93,5.76,13.47,11.56,26.93,17.53,40.32,1.89,4.23,1.98,7.51-.59,11.95-6.84,11.8-12.62,24.21-18.94,36.31-1.6,3.07-2.52,7.08-7.99,7.22-2.29-4.16-4.62-8.45-7-12.72-22.66-40.76-45.15-81.62-68.15-122.19-4.55-8.02-4.63-13.81,1-21.57,27.61-38.01,54.55-76.5,81.77-114.79,2.45-3.44,4.57-8.94,9.33-7.63,2.87.79,5.12,5.59,6.68,9.03,5.63,12.44,10.76,25.1,16.25,37.6,2.25,5.13,4.94,10.06,8.14,16.49-11.43,15.25-23.5,31.36-36.49,48.69,12.01,2.4,22.6,4.59,33.21,6.62,34.34,6.58,68.74,12.86,103,19.85,8.27,1.69,13.26-.15,18.64-6.72,28.3-34.53,57.15-68.62,85.79-102.88,2.09-2.5,4.02-5.12,6.93-8.86-7.82-1.72-14.44-3.27-21.11-4.62-11.1-2.24-22.17-4.66-33.35-6.39-4.99-.78-7.52-2.84-9.07-7.62-4.63-14.25-9.69-28.36-14.64-42.5-1.54-4.39-2.95-8.87-4.99-13.03-1.72-3.5-1.64-6.22.64-8.46,52.49,13.06,105,23.19,157.18,34.77,7.55,1.68,11.22,5,13.72,12.12,15.77,44.93,31.97,89.71,48.02,134.54.34.94.66,1.89.95,2.84,2.35,7.65.62,10-7.29,8.91-14.52-2-28.92-5.11-43.49-6.3-10.35-.84-15.02-6.16-18.18-15.01-4.59-12.85-9.77-25.5-14.73-38.22-.58-1.49-1.35-2.9-2.72-5.8Z"/>
  <path class="st0" d="M692.56,1424.59c-1.13-10.13-1.98-18.69-3.05-27.21-4.59-36.69-9.5-73.34-13.7-110.08-.95-8.34-4.11-12.6-12.06-15.7-41.57-16.24-82.88-33.14-124.28-49.81-3.04-1.22-6.1-2.41-10.16-4.01,0,3.07-.2,5.2.03,7.28,1.75,15.89,3.2,31.84,5.58,47.64.83,5.52-.49,8.6-4.78,11.71-11.87,8.6-23.5,17.54-35.17,26.41-3.97,3.02-7.85,6.16-11.62,9.43-2.94,2.55-5.76,2.78-7.55,1.6-1.67-18.43-3.09-35.56-4.79-52.67-3.54-35.81-7.07-71.61-10.96-107.38-.81-7.42,1.07-12.21,7.23-16.9,37.41-28.43,74.46-57.33,111.67-86.03,3.1-2.39,6.45-4.43,10.83-7.42,1.61,3.53,3.35,5.97,3.83,8.64,2.87,16.06,5.3,32.21,8.21,48.27.94,5.18-.36,8.98-4.33,12.23-10.82,8.87-21.57,17.82-32.34,26.75-2.79,2.31-5.55,4.66-9.03,7.59,2.97,1.58,5.11,2.93,7.41,3.92,41.35,17.66,82.78,35.14,124.04,53.02,6.29,2.73,10.66,2.27,16.18-2.03,37.08-28.86,74.46-57.33,111.72-85.95,2.3-1.77,4.44-3.75,7.97-6.75-21.54-8.21-41.83-15.93-61.76-23.53,1.4-18.74-2.06-36.07-3.41-53.54-1.18-15.2-.6-15.72,13.23-10.52,48.32,18.17,96.6,36.43,145.01,54.35,4.85,1.8,5.73,4.72,6.06,8.94,1.63,20.59,3.42,41.17,5.03,61.77,2.3,29.56,4.51,59.14,6.71,88.71.19,2.51.02,5.04.02,8.69-3.6-.62-6.16-.81-8.57-1.5-15.04-4.32-29.95-9.17-45.12-12.97-7.7-1.93-9.91-6.44-10.5-13.47-1.31-15.59-3.03-31.14-4.68-47.72-2.54,1.25-4.65,1.92-6.34,3.17-37.52,27.73-74.94,55.59-112.52,83.23-4.26,3.13-5.79,6.22-5.24,11.65,4.39,43.09,8.42,86.21,12.58,129.32.12,1.24.49,2.45.97,4.77,2.7-1.88,4.88-3.13,6.74-4.75,10.78-9.44,21.56-18.89,32.18-28.5,3.48-3.15,6.71-4.28,11.67-3.2,11.7,2.54,23.62,4.07,35.45,6.02,2.96.49,5.96.82,8.85,1.58,5.68,1.5,6.33,3.87,2.36,8.12-23.66,25.32-47.35,50.62-71,75.94-11.15,11.93-22.4,23.77-33.29,35.94-4.61,5.15-9.25,6.33-15.89,4.22-46.34-14.73-92.77-29.15-139.16-43.69-1.9-.59-3.88-1.17-5.54-2.21-3.45-2.16-4.25-4.99-1.26-8.24.67-.73,1.43-1.39,2.17-2.06,14.71-13.47,29.28-27.09,44.31-40.19,1.76-1.54,6.28-.98,9.09-.07,13.3,4.31,26.45,9.11,39.67,13.68,3.11,1.08,6.28,1.97,11.31,3.54Z"/>
  <path class="st0" d="M1955.86,1543.45c-3.43,1.35-6.19,2.27-8.81,3.5-39.5,18.54-78.95,37.21-118.52,55.61-5.39,2.51-8.05,5.47-8.45,11.8-2.93,46.56-6.29,93.09-9.48,139.64-.16,2.3-.02,4.62-.02,7.88,2.84-.92,5.3-1.47,7.55-2.49,14.26-6.47,28.59-12.8,42.62-19.73,4.9-2.42,8.39-2.08,12.75.99,16.05,11.34,32.31,22.36,48.56,33.41,3.11,2.12,4.89,4.41,3.53,7.28-8.44,3.3-16.2,6.04-23.72,9.32-41.2,18.02-82.41,36.03-123.44,54.43-6.9,3.1-11.96,2.8-18.27-1.58-39.17-27.14-78.64-53.84-117.97-80.76-2.88-1.97-5.36-4.52-9.09-7.71,4.05-2.83,6.76-5.17,9.85-6.8,13.54-7.19,27.27-14,40.73-21.32,4.6-2.5,8.38-2.85,12.87.09,11.7,7.67,23.59,15.04,35.41,22.52,3.06,1.94,6.16,3.83,9.93,6.16.72-2.6,1.51-4.39,1.68-6.24,4.08-45.47,7.99-90.95,12.21-136.4.58-6.28-.71-10.29-6.33-14.09-39.46-26.71-78.64-53.85-117.93-80.81-2.1-1.44-4.43-2.56-7.88-4.53-1.17,22.97-2.28,44.76-3.33,65.34-7.43,2.65-13.35,4.49-19.05,6.85-11.08,4.58-22.03,9.48-33.07,14.17-10.81,4.59-12.41,3.62-11.98-7.78.68-17.98,1.58-35.96,2.45-53.94,1.62-33.62,3.52-67.23,4.72-100.87.23-6.46,2.41-9.35,8.12-11.68,43.48-17.76,86.84-35.8,130.24-53.75,4.56-1.88,9.12-3.75,15-6.17.84,3.45,1.96,6.11,2.06,8.81.6,16.32.75,32.66,1.52,48.97.29,6.06-2.32,9.11-7.5,11.33-14.98,6.44-29.85,13.13-45.75,20.16,1.98,2.07,3.23,3.88,4.92,5.08,37.97,27.11,76.01,54.13,113.96,81.28,3.79,2.71,7.01,3.95,11.78,1.85,40.23-17.75,80.57-35.24,120.87-52.83.89-.39,1.69-.99,3.37-2-2.36-1.77-4.23-3.46-6.36-4.73-12.31-7.34-24.6-14.71-37.06-21.77-4.48-2.54-6.31-5.59-6.88-10.93-1.49-13.89-4.08-27.67-6.22-41.5-.5-3.23-1.74-6.7,2.75-8.69,36.05,16.77,72.23,33.61,108.42,50.44,11.18,5.2,22.28,10.57,33.58,15.47,6.57,2.85,9.59,6.93,9.63,14.47.25,48,.91,95.99,1.44,143.98.01,1,.06,2,.01,3-.46,9.08-3.37,10.89-11.06,6.41-13.25-7.71-26.35-15.67-39.51-23.52-2.29-1.37-4.47-3.58-6.91-3.91-7.71-1.04-8.31-5.7-8.04-12.15.62-14.65.62-29.32.79-43.99.03-2.21-.39-4.42-.69-7.58Z"/>
  <path class="st0" d="M2178.98,893.8c-3.33-1.63-5.06-2.58-6.88-3.36-41.98-17.88-83.99-35.7-125.95-53.63-4.48-1.91-8.03-2.91-12.68.7-39.23,30.44-78.7,60.56-118.12,90.76-1.06.81-2.3,1.38-5.34,3.16,22.8,8.65,43.2,16.39,62.13,23.58,1.6,20.01,3.08,38.45,4.57,56.88.13,1.66.6,3.31.57,4.96-.1,4.46-2.01,6.18-6.3,5.29-2.91-.61-5.69-1.84-8.5-2.89-47.69-17.96-95.33-36.02-143.1-53.77-4.84-1.8-6.88-4.23-7.25-9.21-2.57-34.56-5.3-69.1-8-103.65-1.17-14.95-2.41-29.89-3.53-44.84-.22-2.9-.03-5.83-.03-9.55,2.9,0,5.54-.56,7.84.09,16.02,4.53,31.94,9.42,47.96,13.96,5.27,1.49,7.51,4.55,7.95,9.95,1,12.28,2.44,24.53,3.73,36.79.45,4.26,1,8.51,1.63,13.86,2.73-1.47,4.74-2.25,6.42-3.49,37.24-27.55,74.4-55.21,111.71-82.66,4.46-3.28,6.54-6.55,5.94-12.4-4.3-42.09-8.24-84.22-12.34-126.33-.22-2.26-.91-4.48-1.62-7.88-3.21,2.61-5.77,4.55-8.18,6.67-10.26,9.03-20.54,18.02-30.66,27.21-3.5,3.18-6.69,3.99-11.64,2.93-13.34-2.84-26.93-4.5-40.39-6.81-3.05-.52-5.98-1.75-9.49-2.81.95-2.38,1.13-3.82,1.93-4.68,32.75-35.07,65.53-70.11,98.36-105.11,16.68-17.79,11.58-15.62,33.81-8.79,41.7,12.8,83.28,26.01,124.91,39.04,1.27.4,2.57.7,3.83,1.14,10.34,3.57,10.99,6.75,2.72,14.04-11.25,9.92-22.58,19.74-33.88,29.61-1,.88-2.35,1.57-2.95,2.67-5.2,9.45-12.03,8.39-20.74,4.74-12.87-5.4-26.34-9.4-39.57-13.92-1.46-.5-3.07-.56-5.53-.98,1.45,12.26,2.72,23.77,4.18,35.26,4.43,35.03,9.06,70.04,13.28,105.09.63,5.25,2.26,8.34,7.37,10.38,44.25,17.62,88.4,35.48,132.6,53.22,1.74.7,3.66.94,6.52,1.64-1.01-9.71-1.87-18.59-2.89-27.45-.95-8.27-1.69-16.6-3.21-24.77-1.25-6.72.53-10.98,6.25-15.1,15.38-11.11,30.16-23.06,45.35-34.44,1.82-1.36,4.71-1.29,7.1-1.88.4,2.06,1.03,4.11,1.16,6.18.21,3.31-.16,6.66.16,9.95,4.27,42.76,8.62,85.52,12.94,128.28.6,5.97.68,12.03,1.83,17.89,1.21,6.15-.95,9.9-5.75,13.56-26.76,20.41-53.32,41.09-79.95,61.68-12.13,9.37-24.21,18.82-36.43,28.07-7.56,5.72-9.85,4.87-11.57-4.62-2.97-16.38-5.41-32.87-8.41-49.24-.8-4.36.92-6.98,3.89-9.45,11.26-9.37,22.52-18.75,33.77-28.15,2.49-2.08,4.91-4.25,8.46-7.34Z"/>
  <path class="st0" d="M1017.25,682.88c-.56-4.08-1.14-6.61-1.23-9.16-.55-15.32-.62-30.67-1.61-45.96-.5-7.64,2.41-11.57,9.25-14.32,12.04-4.85,23.82-10.36,35.69-15.64,2.7-1.2,5.31-2.59,9.58-4.69-42.62-30.34-84.22-59.96-125.97-89.68-43.49,18.93-86.49,37.64-130.67,56.86,3.03,2.21,4.91,3.84,7.02,5.1,12.6,7.49,25.2,14.99,37.91,22.29,3.78,2.17,5.47,4.75,5.99,9.37,1.49,13.23,3.95,26.34,5.88,39.53.51,3.47.48,7.03.74,11.22-2.73-.19-4.49.14-5.81-.48-45.28-21.1-90.53-42.29-135.77-63.48-2.41-1.13-4.81-2.3-7.2-3.46-3.65-1.77-5.48-4.64-5.47-8.75,0-5.33-.11-10.66-.17-16-.52-43.66-1.08-87.31-1.51-130.97-.04-4.15-1.7-9.37,2.9-11.91,4.6-2.54,8.06,1.85,11.61,3.91,12.4,7.17,24.63,14.65,36.93,21.98,2.29,1.36,4.52,3.3,7,3.76,6.55,1.21,7.28,5.09,7,10.89-.75,15.31-.86,30.64-1.17,45.97-.04,1.9.26,3.8.48,6.65,3.72-1.52,6.76-2.62,9.68-3.99,39.19-18.42,78.3-37.01,117.6-55.19,5.89-2.72,8.37-5.86,8.79-12.54,2.83-45.56,6.18-91.09,9.31-136.63.22-3.2.03-6.42.03-10.96-6.52,2.9-11.95,5.24-17.33,7.71-10.9,4.99-21.93,9.75-32.6,15.2-4.86,2.49-8.25,2.07-12.65-1.05-16-11.39-32.38-22.26-48.46-33.55-2.08-1.46-3.23-4.24-5.03-6.71,26.44-9.19,50.14-21.11,74.46-31.56,24.48-10.52,48.94-21.12,73.11-32.31,7.59-3.52,13.14-2.99,20.03,1.79,38.59,26.79,77.53,53.1,116.33,79.59,11.25,7.68,11.18,9.37-.79,15.64-12.69,6.65-25.69,12.75-38.06,19.94-6.51,3.78-11.78,2.97-17.45-.69-11.2-7.22-22.38-14.48-33.6-21.67-2.74-1.75-5.61-3.3-9.76-5.73-1.34,13.62-2.66,26.03-3.75,38.46-3.13,35.51-6.05,71.05-9.37,106.54-.47,4.99.72,7.95,4.85,10.77,40.45,27.62,80.78,55.43,121.17,83.15,1.54,1.06,3.33,1.75,6.15,3.2,1.17-22.82,2.29-44.54,3.31-64.41,16.03-6.69,30.36-12.69,44.71-18.63,5.43-2.25,10.93-4.37,17.92-7.15.59,4.44,1.45,7.51,1.32,10.54-1.72,40.29-3.59,80.57-5.4,120.85-.51,11.32-1.61,22.66-1.26,33.95.23,7.36-2.6,10.61-9.05,13.22-34.27,13.87-68.38,28.13-102.55,42.24-11.7,4.83-23.39,9.68-35.11,14.46-2.06.84-4.25,1.35-7.93,2.49Z"/>
  <path class="st0" d="M1355.97,1549.37c.92,3.36,1.41,5.59,2.13,7.74,14.61,43.58,29.31,87.13,43.81,130.74,1.71,5.15,4,8.32,9.83,9.58,42.66,9.18,85.23,18.72,127.84,28.11.92.2,1.93.03,3.91.03-.89-2.73-1.48-5.11-2.44-7.35-5.65-13.16-11.23-26.36-17.18-39.39-2.15-4.71-1.9-8.28.78-12.93,6.48-11.25,11.97-23.05,17.99-34.57,1.63-3.12,3.75-5.99,6.02-9.57,2.07,1.73,3.69,2.48,4.39,3.75,23.89,43.13,47.7,86.3,71.51,129.47,1.13,2.04,2.17,4.14,3.43,6.1,3.48,5.44,3.06,10.26-.85,15.59-11.05,15.04-21.69,30.38-32.48,45.6-16.58,23.38-33.16,46.76-49.74,70.14-1.35,1.9-2.61,3.89-4.1,5.67-5.07,6.01-8.41,5.72-11.61-1.49-5.96-13.39-11.57-26.93-17.33-40.41-1.31-3.06-1.99-6.69-4.08-9.06-5.37-6.06-3.8-10.55.98-16.28,9.16-11,17.46-22.72,26.06-34.19,1.35-1.8,2.38-3.83,4.16-6.74-9.24-1.88-17.63-3.68-26.06-5.29-37.63-7.17-75.29-14.18-112.88-21.54-5.13-1-8.59-.54-12.15,3.74-31.08,37.44-62.38,74.71-93.59,112.04-.4.48-.54,1.19-1.14,2.56,1.96.79,3.85,1.88,5.87,2.3,15.34,3.14,30.65,6.42,46.08,9.07,5.91,1.02,9.19,3.26,11.15,9.26,6.01,18.34,12.7,36.46,19.22,54.64,1.25,3.48,1.49,6.45-1.38,8.26-8.18-2.21-15.7-4.57-23.37-6.25-44.25-9.7-88.5-19.37-132.83-28.69-7.25-1.53-11.45-4.48-14.02-11.83-15.61-44.65-31.75-89.11-47.63-133.66-1.29-3.62-1.93-7.48-3.26-12.79,4.28,0,7.18-.34,9.97.06,16.16,2.27,32.29,4.83,48.46,7.04,4.9.67,7.7,3.22,9.41,7.59,4.99,12.71,10.05,25.38,15.09,38.07,1.47,3.69,2.95,7.38,4.79,11.97,2.42-2.3,4.4-3.91,6.06-5.82,29.81-34.15,59.53-68.38,89.43-102.45,3.62-4.12,5.07-7.65,3.04-13.31-16.49-45.75-32.63-91.62-48.9-137.45-.65-1.82-1.57-3.55-3.04-6.82-14.35,17.89-27.99,34.88-41.49,51.72-16.85-7.68-34.24-8.95-50.78-13.53-.96-.27-1.95-.43-2.93-.65-12.43-2.78-12.91-4.2-4.7-14.48,29.56-36.96,59.15-73.9,88.73-110.84.83-1.04,1.88-1.97,2.47-3.14,5.57-11.06,13.44-12.28,25.29-9.22,46.11,11.91,92.54,22.55,138.85,33.67,6.69,1.61,7.66,3.69,3.7,9.59-9.09,13.56-18.64,26.83-27.55,40.5-3.5,5.38-7.59,6.69-13.5,5.33-12.98-3.01-26.01-5.78-39.04-8.56-3.13-.67-6.34-.99-10.38-1.6Z"/>
  <path class="st0" d="M2148.66,1096.97c-24.66,44.85-48.38,88-72.42,131.7,27.44,43.82,54.8,87.51,82.82,132.26,2.04-2.79,3.69-4.66,4.89-6.78,7.41-13.03,15.24-25.86,21.83-39.3,3.39-6.91,7.75-8.76,14.84-8.61,13.32.28,26.66-.14,39.98-.4,5.31-.1,10.63-.39,15.92-.89,3.85-.36,6.3.96,7.36,3.52-5.07,8.05-9.82,15.16-14.14,22.51-22.24,37.94-44.61,75.8-66.33,114.03-4.75,8.36-10.27,11.17-19.7,11.35-45.64.85-91.27,2.32-136.9,3.91-16.75.58-16.8-1.78-9.43-15.69,6.55-12.36,12.72-24.92,18.7-37.57,2.24-4.74,5.22-7.21,10.53-7.5,14.63-.81,29.24-1.91,43.85-2.92,2.94-.2,5.86-.54,9.74-.91-1.38-2.93-2.27-5.33-3.56-7.5-23.26-38.88-46.63-77.7-69.79-116.64-2.82-4.74-5.75-7.13-11.76-6.94-47.96,1.52-95.93,2.64-143.9,3.93-2.53.07-5.04.52-9.09.96,12.63,19.37,24.52,37.62,36.57,56.12-10.08,8.59-14.31,20.02-20.74,29.98-3.79,5.87-7.1,12.06-10.79,18-1.5,2.42-3.45,4.55-5.15,6.76-7.23-4.84-72.38-101.4-97.75-144.29,28.38-46.28,57.04-93.02,86.18-140.54,2.46,1.68,4.66,2.55,5.92,4.16,10.48,13.37,20.65,27,31.23,40.29,3.79,4.77,3.26,8.88.41,13.66-6.83,11.44-13.46,23-20.11,34.55-1.6,2.77-2.98,5.66-5.14,9.81,4.74,0,7.97.03,11.2,0,44.65-.47,89.3-1.08,133.96-1.29,6.76-.03,10.73-2.04,14.21-8.07,20.31-35.2,41.1-70.13,61.69-105.17,1.62-2.76,2.99-5.66,5.28-10.04-7.86.57-14.06.94-20.23,1.5-10.62.96-21.22,2.01-31.83,3.11-4.21.43-7.21-.56-10.38-4.06-8.94-9.87-18.67-19.02-27.98-28.55-2.46-2.51-4.56-5.38-7.3-8.64,2.41-1.39,3.67-2.6,5.11-2.88,49.67-9.7,99.4-19.13,149.02-29.1,8.72-1.75,14.06.23,19.37,7.5,27.71,37.94,55.95,75.49,83.95,113.22,2.51,3.38,6.78,6.69,4.78,11.37-2.1,4.92-7.56,3.22-11.64,3.65-13.25,1.41-26.53,2.48-39.8,3.69-2.99.27-6,.41-8.94.96-9.82,1.87-9.71,1.86-15.52-6.57-9.24-13.42-18.63-26.74-29.03-41.65Z"/>
  <path class="st0" d="M754.62,1502.52c4.03,3.04,6.54,4.56,8.59,6.56,11.47,11.15,22.74,22.5,34.27,33.59,3.44,3.31,4.99,6.46,3.62,11.41-3.89,14.12-7.33,28.35-10.9,42.55-.78,3.11-1.37,6.26-2.27,10.42,3.99-.64,6.89-.94,9.7-1.59,43.49-9.97,86.97-19.99,130.45-30,4.9-1.13,8.82-2.28,10.62-8.55,13.72-47.68,27.98-95.2,42.06-142.77.28-.95.39-1.94.74-3.76-2.46.22-4.68.09-6.72.64-16.08,4.33-32.11,8.81-48.18,13.17-3.12.85-6.33,1.39-9.18,2-9.38-16.17-22.87-27.76-33.85-41.42-2.46-3.05-4.88-6.13-6.97-8.76,1.81-5.85,6.35-5.63,10.04-6.64,47.51-13.1,95.17-25.66,142.45-39.54,11.12-3.27,17.03-1.17,24.19,7.45,30.89,37.15,62.58,73.63,93.95,110.38,1.03,1.21,1.81,2.64,3.15,4.64-2.1,1.53-3.67,3.28-5.62,3.99-15.94,5.85-31.99,11.42-47.93,17.27-5.08,1.86-8.87.8-12.41-3.25-8.77-10.04-17.74-19.9-26.66-29.81-2.21-2.45-4.51-4.81-7.48-7.96-1.26,2.58-2.44,4.41-3.07,6.41-14.01,44.46-27.9,88.96-42.01,133.39-1.45,4.57-1.45,7.95,1.97,11.78,29.29,32.81,58.4,65.8,87.58,98.71.63.71,1.57,1.16,2.98,2.17.85-2.4,1.78-4.4,2.26-6.52,3.1-13.64,6.36-27.24,9.02-40.97,1.18-6.1,3.64-9.67,9.73-12.25,11.62-4.94,22.62-11.32,33.96-16.95,3.11-1.54,6.49-2.52,11.16-4.3,0,3.86.23,6.04-.03,8.17-5.95,48.94-12.19,97.84-17.77,146.82-1.13,9.93-4.84,14.99-14.68,18.17-44.35,14.36-88.39,29.64-132.59,44.47-3.89,1.3-8.82,4.81-11.94.62-1.84-2.48-1.04-7.56-.26-11.23,3.24-15.31,8.31-30.38,9.97-45.83,1.17-10.84,5.82-14.38,15.28-16.56,11.98-2.76,23.63-6.94,35.41-10.57,2.75-.85,5.43-1.92,8.98-3.19-2.41-2.88-4.18-5.21-6.17-7.33-30.08-32.09-60.22-64.13-90.26-96.27-3.39-3.62-6.27-5.77-11.96-4.31-46.44,11.93-92.98,23.44-139.49,35.11-1.52.38-2.95,1.14-5.46,2.13,2.65,3.13,4.64,5.64,6.8,8,10.14,11.05,20.2,22.18,30.59,32.99,3.14,3.27,4.24,6.13,2.86,10.61-5.94,19.4-11.45,38.94-17.42,58.33-.71,2.32-3.35,4.04-4.73,5.62-7.52-8.86-13.99-16.78-20.77-24.41-28.56-32.13-57.07-64.31-85.96-96.14-5.37-5.92-6.53-11.06-4.21-18.75,13.64-45.27,26.72-90.71,40.05-136.08,1-3.39,2.5-6.64,4.51-11.87Z"/>
  <path class="st0" d="M291.55,1357.31c2.77-1.36,4.42-2.52,6.24-3.01,47.91-12.87,95.88-25.52,143.72-38.65,7.07-1.94,11.64-.73,16.75,4.39,34.8,34.95,69.87,69.62,104.85,104.38.95.94,1.92,1.85,2.82,2.84,5.57,6.12,5.07,8.97-2.66,11.01-19.31,5.11-38.75,9.74-58.07,14.83-5.02,1.32-8.19-.53-11.32-4.04-8.88-9.94-17.93-19.72-26.88-29.6-2.18-2.41-4.24-4.92-7.42-8.62-1.49,4.38-2.41,6.72-3.09,9.14-12.48,44.57-24.89,89.15-37.46,133.69-1.36,4.8-1.58,8.5,2.24,12.66,32.23,35.09,64.22,70.41,96.3,105.64.87.96,1.93,1.74,3.59,3.22,1.22-2.79,2.38-5,3.17-7.33,5.1-15.15,10.34-30.25,15.05-45.52,1.9-6.14,5.19-9.19,11.61-10.54,19.2-4.04,38.25-8.76,57.37-13.18,3.68-.85,5.74,1.02,5.15,4.91-.39,2.61-1.38,5.14-2.17,7.68-14.74,47.72-29.49,95.43-44.23,143.15-.59,1.91-1.63,3.82-1.66,5.74-.13,10.45-6.48,13.21-15.64,15.19-45.56,9.86-90.96,20.43-136.42,30.75-2.27.52-4.52,1.29-6.82,1.51-6.47.63-9.44-2.6-7.77-8.98,5.05-19.33,10.36-38.59,15.57-57.87.97-3.59,3.03-5.05,6.98-5.74,16.07-2.8,32.03-6.2,48.01-9.45,1.9-.39,3.71-1.24,6.2-2.1-1.97-2.48-3.48-4.62-5.22-6.54-31.37-34.53-62.86-68.94-94.03-103.65-4.37-4.87-8.43-6.26-14.75-4.9-41.01,8.83-82.1,17.32-123.16,25.96-1.92.4-3.78,1.12-6.53,1.95,1.64,2.64,2.79,4.87,4.28,6.84,8.84,11.7,17.56,23.49,26.75,34.9,3.02,3.75,4.22,7.12,3.05,11.81-4.18,16.8-8.09,33.67-12.16,50.5-.46,1.92-1.06,3.93-2.11,5.56-1.96,3.06-4.8,3.56-7.62,1.18-1.76-1.49-3.17-3.4-4.65-5.2-29.57-36.08-59.03-72.24-88.77-108.18-3.85-4.65-4.57-8.73-3.03-14.5,12.26-46.01,24.19-92.1,36.23-138.16.42-1.61.71-3.28,1.36-4.79,2.98-6.92,6.76-7.85,11.84-2.48,12.13,12.83,23.96,25.95,36.1,38.77,3.05,3.22,2.63,6.15,1.58,9.98-4.07,14.76-7.75,29.63-11.53,44.48-.56,2.19-.82,4.44-1.39,7.6,3.21-.41,5.77-.49,8.21-1.07,39.85-9.44,79.65-19.12,119.57-28.24,6.87-1.57,9.77-4.6,11.49-11.35,11.01-43.23,22.53-86.34,33.84-129.5.65-2.48.92-5.05,1.54-8.57-3.32.44-5.87.55-8.3,1.15-12.6,3.13-25.22,6.2-37.72,9.73-3.28.93-5.7.93-8.21-1.32-15.83-14.28-31.72-28.51-47.51-42.84-1.13-1.03-1.67-2.7-3.15-5.2Z"/>
  <path class="st0" d="M2016.79,1768.18c7.26,0,12.89.19,18.5-.03,42.96-1.69,85.91-3.56,128.88-5.08,5.75-.2,8.89-2.38,11.65-7.29,22.61-40.04,45.48-79.92,68.24-119.88,1.25-2.2,2.19-4.59,3.92-8.26-6.16,0-11.05.02-15.95,0-13-.06-26-.41-38.99-.1-7.15.17-11.74-2.22-15.2-8.72-6.42-12.05-13.57-23.71-20.51-35.48-3.36-5.69-6.92-11.26-10.37-16.87,1.88-5.35,6.42-4.08,10.18-4.14,25.99-.38,51.99-.57,77.99-.93,26.66-.37,53.38-.02,79.95-1.76,10.22-.67,14.5,2.74,19.16,10.73,23.51,40.29,47.63,80.22,71.49,120.3,7.64,12.83,6.48,15.19-8.21,16.11-17.29,1.09-34.61,1.85-51.91,2.9-5.11.31-8.08-.81-10.79-6.16-7.94-15.65-17.1-30.69-26.86-47.88-26.99,46.73-52.64,92.01-78.58,137.52,23.5,40.96,46.81,81.58,70.85,123.48,10.42-14.99,20.18-28.39,29.19-42.28,3.45-5.32,7.19-7.8,13.55-8.14,15.97-.85,31.89-2.43,47.84-3.68,1.99-.16,4.03-.4,5.98-.12,5.15.74,6.69,3.76,4.43,8.57-.84,1.79-2.1,3.4-3.18,5.08-25.02,38.98-50.12,77.91-74.95,117-3.16,4.98-6.6,7.46-12.65,7.77-27.29,1.39-54.55,3.26-81.83,4.9-20.29,1.22-40.59,2.35-60.88,3.57-5.05.3-10.11.88-13.51-4.8.57-1.62.98-3.6,1.91-5.28,8.57-15.44,17.34-30.77,25.78-46.28,2.07-3.8,4.77-4.85,8.81-5.02,13.98-.59,27.95-1.49,41.92-2.34,3.59-.22,7.17-.66,11.8-1.1-1.17-2.84-1.72-4.95-2.81-6.75-21.81-35.87-43.77-71.66-65.44-107.62-2.79-4.62-5.76-6.35-11.18-6.01-39.24,2.49-78.51,4.68-117.76,6.98-8.59.5-17.17,1.03-26.86,1.61,1.45,3.08,2.3,5.46,3.6,7.56,6.86,11.04,13.75,22.06,20.81,32.96,1.67,2.58,3.5,4.66,1.96,8.09-8.89,19.74-17.63,39.55-26.46,59.32-.67,1.5-1.61,2.88-2.43,4.32-1.07.25-2.14.5-3.21.74-1.04-2.02-1.9-4.15-3.13-6.04-27.03-41.65-54.01-83.33-81.26-124.84-3.71-5.65-4.25-10.11-1.02-16.39,22.84-44.44,45.24-89.11,67.78-133.71.6-1.19,1.12-2.43,1.83-3.55,3.55-5.64,6.63-5.86,10.41-.12,7.15,10.85,13.91,21.95,20.82,32.96,3.54,5.64,6.89,11.42,10.65,16.92,3.19,4.67,3.33,8.72.27,13.74-7.28,11.94-14,24.23-20.89,36.41-1.1,1.95-1.91,4.07-3.3,7.1Z"/>
  <path class="st0" d="M2318.02,487.73c-34.5-37.92-68.78-75.61-103.9-114.22-1.47,3.08-2.75,5.18-3.52,7.45-4.78,14.21-10.05,28.29-13.93,42.74-2.46,9.14-7.55,12.87-16.43,14.42-14.75,2.59-29.32,6.19-43.95,9.43-4.16.92-8.27,2.08-12.51,3.16-4.07-3.62-1.73-7.48-.64-11.06,7.67-25.17,15.53-50.28,23.18-75.45,8.42-27.71,16.76-55.43,24.89-83.22,1.22-4.17,4.14-4.67,7.4-5.42,19.16-4.38,38.3-8.83,57.46-13.19,28.58-6.51,57.16-12.96,85.75-19.44,14.24-3.23,16.57-.9,12.86,12.91-4.49,16.73-9.05,33.44-13.44,50.19-1.29,4.94-3.31,7.39-9.19,8.32-17.31,2.75-34.41,6.8-52.82,10.6,2.26,3.06,3.59,5.23,5.27,7.07,31.59,34.79,63.31,69.48,94.76,104.4,4.11,4.57,7.82,5.58,13.84,4.27,40.04-8.67,80.18-16.86,120.28-25.23,2.92-.61,5.8-1.42,9.7-2.39-1.49-2.53-2.56-4.81-4.04-6.77-9.03-11.98-18.01-23.99-27.33-35.74-2.7-3.41-4-6.31-2.85-10.81,4.21-16.45,7.97-33.02,11.93-49.54.46-1.94.86-3.95,1.69-5.74,2.23-4.76,5.5-5.3,9.38-1.6,1.44,1.37,2.62,3.02,3.88,4.57,29.35,35.85,58.59,71.78,88.14,107.46,4.11,4.96,4.98,9.43,3.37,15.48-12.11,45.71-23.96,91.5-35.97,137.24-1.24,4.72-1.88,10.11-9.04,11.52-1.79-1.64-4.09-3.49-6.08-5.62-11.13-11.95-21.99-24.16-33.37-35.88-3.65-3.76-3.7-7.15-2.47-11.69,4.53-16.7,8.78-33.47,13.14-50.27-7.67-.99-108.14,21.79-137.18,31.06-12.65,48.15-25.47,96.93-38.77,147.5,5.71-1.34,9.79-2.23,13.84-3.25,10.97-2.78,22-5.39,32.86-8.54,4.13-1.2,6.91-.25,9.89,2.46,14.56,13.22,29.28,26.26,43.82,39.5,2.01,1.83,3.36,4.37,5.65,7.42-3.46,1.44-5.43,2.53-7.54,3.1-47.59,12.85-95.22,25.54-142.76,38.55-6.93,1.9-11.65.54-16.77-4.61-34.78-34.98-69.87-69.65-104.87-104.43-1.18-1.17-2.44-2.29-3.5-3.57-4.23-5.11-3.47-8.22,3.04-10.06,9.93-2.8,20.02-5.07,30.03-7.59,9.04-2.28,18.09-4.54,27.11-6.93,5.36-1.42,9.43-.24,13.25,4.15,9.84,11.32,20.1,22.26,30.23,33.33.87.95,1.93,1.72,4.18,3.7,14.09-50.19,27.9-99.38,42.04-149.75Z"/>
  <path class="st0" d="M364.45,753.51c-15.22-6.11-29.23-12.04-43.5-17.28-4.41-1.62-6.31-3.86-7.21-8.28-3.91-19.25-8.23-38.42-12.2-57.66-1.71-8.31.25-10.03,7.88-7.12,46.67,17.81,93.29,35.76,139.99,53.49,5.4,2.05,7.65,5.43,8.52,10.95,7.78,49.01,15.84,97.97,23.57,146.99.63,4-.5,8.28-.82,12.42-4.08-.81-8.37-1.06-12.2-2.53-15.86-6.07-31.52-12.67-47.39-18.71-6.26-2.38-9.62-5.79-10.16-12.94-1.07-14.27-3.08-28.47-4.73-42.7-.18-1.57-.51-3.13-.93-5.71-2.82,1.8-5.08,3-7.05,4.55-36.35,28.71-72.6,57.54-109.07,86.1-4.48,3.51-6.11,6.91-5.45,12.58,3.96,34.08,7.55,68.2,11.3,102.31,1.56,14.21,3.21,28.41,4.93,43.7,3.11-1.79,5.42-2.87,7.46-4.33,11.67-8.31,23.64-16.26,34.79-25.22,7.7-6.18,14.31-7.22,23.49-2.74,16.12,7.86,32.97,14.2,49.54,21.14,4.16,1.74,4.85,4.19,1.63,7.45-1.86,1.88-4.14,3.34-6.27,4.94-37.07,27.77-74.15,55.52-111.2,83.32-7.42,5.57-14.68,11.34-22.74,17.58-2.45-.95-5.54-2.04-8.54-3.33-44.1-18.85-88.19-37.72-132.27-56.61-13.5-5.78-13.98-8.87-2.76-17.94,13.47-10.9,27.05-21.67,40.43-32.68,4.03-3.32,7.12-4.01,12.38-1.35,15.68,7.92,31.91,14.77,48.98,22.52,0-3.36.2-5.52-.03-7.64-5-46.03-10.27-92.04-14.89-138.1-.84-8.37-3.93-12.78-11.68-16.15-36.34-15.81-72.41-32.26-108.58-48.44-3.25-1.45-6.6-2.67-11.09-4.47,0,6.05-.11,10.91.02,15.77.33,12.66.63,25.32,1.25,37.97.2,4.05-.92,6.86-4.06,9.49-13.53,11.35-26.87,22.93-40.29,34.4-1.01.86-2.05,1.75-3.22,2.35-4.64,2.37-7.73.9-8.51-4.29-.59-3.94-.75-7.96-.98-11.95-2.61-45.24-5.09-90.49-7.93-135.71-.37-5.84,3.02-8.37,6.62-11.31,29.63-24.3,59.27-48.6,88.9-72.9,6.96-5.71,13.87-11.46,20.88-17.11,2.06-1.66,4.18-3.42,6.57-4.42,4.89-2.05,7.58-.59,8.42,4.77,1.34,8.55,2.3,17.17,3.31,25.77,1.05,8.93,1.67,17.93,3.1,26.8.75,4.6-.45,7.34-4.05,10.19-12.27,9.73-24.26,19.81-36.33,29.79-1.51,1.25-2.89,2.67-4.99,4.64,2.3,1.41,4.02,2.79,5.97,3.61,38.71,16.2,77.48,32.26,116.14,48.58,4.83,2.04,8.28,2.07,12.6-1.49,36.22-29.93,72.65-59.6,109.01-89.37.76-.62,1.36-1.44,3.41-3.65Z"/>
  <path class="st0" d="M2618.56,1252.52c-43.9-18.33-86.78-36.23-130.14-54.33-39.32,32.17-78.4,64.14-118.65,97.07,15.41,6.19,29.17,12.06,43.2,17.17,5.03,1.83,7.51,4.4,8.56,9.57,3.76,18.6,7.95,37.12,11.76,55.71.61,2.98.09,6.19.09,10.26-3.45-.88-5.66-1.21-7.71-2-45.41-17.35-90.73-34.98-136.29-51.95-8.38-3.12-11.79-7.75-13.11-16.32-7.5-48.71-15.51-97.35-23.34-146.01-.26-1.64-.69-3.3-.65-4.94.11-4.21,2.23-5.79,6.55-5.12.33.05.66.12.97.24,19.47,7.81,38.93,15.64,58.4,23.45,4.44,1.78,5.23,5.53,5.65,9.7,1.34,13.26,2.8,26.5,4.28,39.74.32,2.9.92,5.77,1.71,10.68,41.39-32.5,81.34-64.34,122.15-96.52-5.57-50.54-11.17-101.37-16.91-153.45-3.26,1.82-5.57,2.84-7.58,4.27-12.76,9.08-25.56,18.11-38.12,27.45-5.27,3.92-9.88,5.13-16.39,2.07-18.61-8.75-37.61-16.68-57.83-25.53,1.82-2.34,3.16-4.85,5.19-6.5,5.69-4.61,11.66-8.88,17.53-13.27,34.94-26.16,69.88-52.32,104.82-78.48,2.93-2.2,6.54-3.91,8.62-6.75,4.7-6.42,9.64-4.9,15.63-2.31,44.01,19.05,88.12,37.88,132.18,56.81,13.67,5.87,14.09,8.69,2.77,17.84-12.95,10.48-25.93,20.93-38.93,31.35-2.55,2.04-5.27,3.87-7.35,5.4-18.67-8.46-36.44-16.52-56.1-25.43,1.06,11.1,1.8,20.23,2.81,29.33,4.47,40.39,9.09,80.76,13.4,121.17.53,4.94,2.32,7.6,6.89,9.62,39.27,17.43,78.42,35.11,117.63,52.68,1.46.65,3.06,1.01,5.39,1.76.23-3.21.6-5.72.56-8.23-.22-14.99-.28-30-.97-44.97-.21-4.63,1.32-7.39,4.64-10.18,13.02-10.92,25.86-22.05,38.79-33.08,1.51-1.29,3.05-2.66,4.81-3.53,3.7-1.82,6.45-.53,7.64,3.5.46,1.57.49,3.28.59,4.94,2.08,36.26,4.15,72.51,6.22,108.77.63,10.98,1.06,21.97,2.03,32.92.49,5.51-1.07,9.32-5.45,12.88-37.22,30.29-74.27,60.77-111.38,91.19-1.54,1.26-3.08,2.62-4.83,3.53-5.54,2.87-9.12,1.26-9.92-4.97-2.3-17.84-4.21-35.73-6.4-53.58-.47-3.84,1.24-6.05,4.09-8.33,11.45-9.15,22.71-18.54,34.01-27.88,2.53-2.09,4.95-4.33,8.49-7.45Z"/>
  <path class="st0" d="M434.39,132.84c-8.28,11.91-16.89,22.23-23.12,33.83-6.65,12.39-15.86,17.06-29.4,17.05-12.63-.01-25.25,1.7-37.89,2.55-2.63.18-5.4.31-7.91-.31-2.95-.73-4.35-3.09-3.12-6.17.73-1.83,1.88-3.52,2.95-5.2,25.54-39.83,51.13-79.62,76.57-119.51,2.72-4.27,5.71-6.69,11.08-6.98,47.25-2.57,94.48-5.42,141.72-8.07,4.84-.27,10.75-2.15,13.97,2.76,3.42,5.21-1.83,9.28-4.04,13.4-6.76,12.63-14.29,24.84-20.84,37.57-2.86,5.56-6.37,7.38-12.44,7.56-15.31.45-30.6,1.7-45.9,2.66-1.6.1-3.19.39-6.56.81,24.49,40.69,48.81,80.23,73.2,120.33,50.46-2.88,100.61-5.74,152.06-8.68-1.7-3.47-2.62-5.82-3.93-7.93-6.67-10.76-13.23-21.6-20.3-32.1-2.52-3.75-3.23-6.75-1.32-10.96,8.13-17.89,15.93-35.93,24-53.85,1.12-2.49,3.11-4.6,5.29-7.73,2.43,2.8,4.11,4.33,5.31,6.17,26.91,41.32,53.65,82.76,80.77,123.94,4.05,6.14,4.07,11,.8,17.39-22.48,43.88-44.58,87.95-66.99,131.86-1.69,3.31-4.78,5.89-7.22,8.82-2.7-2.7-5.96-5.03-8-8.16-9.61-14.81-18.72-29.95-28.37-44.74-3.54-5.43-3.8-9.99-.35-15.6,6.63-10.78,12.68-21.91,18.92-32.93,1.61-2.84,3.03-5.78,5.11-9.75-3.38-.24-5.84-.65-8.27-.55-46.95,1.9-93.89,3.9-140.85,5.71-4.09.16-6.77,1.25-8.86,4.93-23.83,42.02-47.79,83.97-71.68,125.95-.47.82-.54,1.87-1.02,3.61,2.29.39,4.38,1.04,6.48,1.06,16.66.15,33.33.29,49.99.2,5.13-.03,8.76,1.43,11.46,6.16,10.5,18.44,21.31,36.72,32.08,55.19-1.83,4.55-6.02,3.21-9.39,3.3-19.99.51-39.98.91-59.98,1.19-30.99.44-61.98.75-92.98,1.13-2.33.03-4.88-.51-6.96.25-9.19,3.35-12.85-2.1-16.91-9-23.65-40.2-47.66-80.19-71.55-120.26-.51-.86-1.05-1.7-1.55-2.56-6.62-11.42-4.91-14.48,8.28-15.07,16.64-.74,33.29-1.59,49.93-2.33,3.29-.15,6.6-.02,9.71-.02,10.11,17.72,19.96,34.99,30.4,53.29,2.27-3.55,3.94-5.95,5.38-8.47,22.97-40.21,45.87-80.46,68.94-120.61,2.83-4.92,4.22-8.91.92-14.58-21.65-37.12-42.9-74.48-64.3-111.75-.65-1.14-1.5-2.17-3.33-4.8Z"/>
  <path class="st0" d="M2692.2,1616.22c-1.83,4.42-2.72,7.5-4.28,10.19-25.56,44.11-51.24,88.15-76.75,132.29-2.61,4.51-5.43,6.01-11.02,6.18-30.64.93-61.26,2.7-91.88,4.19-18.31.89-36.62,1.81-54.92,2.73-5.34.27-10.59.22-15.66-4.33,1.07-2.53,1.95-5.3,3.34-7.79,8.48-15.11,17.23-30.07,25.54-45.27,2.88-5.26,6.61-7.81,12.64-7.89,12.33-.15,24.66-.67,36.98-1.11,3.6-.13,7.2-.53,10.9-.82-2.14-8.04-64.36-110.78-80.16-132.56-14.57.93-29.79,1.87-45,2.9-12.97.88-25.95,1.65-38.88,2.89-6.5.62-10.46-1.54-13.61-7.4-8.37-15.55-17.33-30.77-25.99-46.16-1.28-2.27-2.2-4.75-3.94-8.58,4.02-1,7.24-2.36,10.52-2.51,12.65-.57,25.32-.77,37.98-1.08,25.97-.64,51.95-1.26,78.4-1.89,1.96-3.18,3.94-6.19,5.73-9.3,21.47-37.23,42.91-74.49,64.38-111.73,5.21-9.04,5.39-9.12,14.76-5.34,12.97,5.23,25.94,10.49,38.84,15.9,8.97,3.76,9.28,4.64,4.57,13.14-21.62,39.07-43.31,78.09-64.96,117.13-1.93,3.48-3.8,7-5.88,10.84,26.74,43.46,53.43,86.83,81.07,131.76,11.27-19.65,21.88-38.14,31.8-55.41,9.55,0,17.46.19,25.36-.04,13.32-.4,26.64-1.12,39.96-1.58,2.81-.1,5.64.35,10.17.67Z"/>
  <path class="st0" d="M149.69,376.91c-11.24,19.67-21.6,37.81-31.03,54.3-17.83.63-33.75,1.17-49.66,1.77-5.66.21-11.32.72-16.98.79-8.74.1-9.92-2.11-5.64-10.1.47-.88,1.02-1.72,1.52-2.59,24.95-42.93,49.97-85.81,74.76-128.83,3.29-5.71,6.75-8.14,13.97-8.35,36.97-1.08,73.92-3.15,110.87-4.86,11.99-.56,23.97-1.27,35.96-1.52,4.14-.09,8.31,1.01,13.96,1.77-1.33,4.04-1.8,6.9-3.12,9.28-8.75,15.72-17.85,31.25-26.48,47.04-2.81,5.14-6.68,6.59-12.16,6.74-15.93.44-31.86,1.3-48.89,2.05,1.44,3.08,2.29,5.48,3.59,7.61,24.25,39.46,48.63,78.85,72.77,118.38,2.94,4.82,5.91,6.82,11.93,6.32,24.91-2.04,49.89-3.2,74.8-5.13,7.87-.61,12.88,1.22,16.73,8.82,7.36,14.55,15.92,28.5,23.96,42.71,1.15,2.02,2.43,4.03,3.2,6.2,1.27,3.56-.23,5.89-3.94,6.44-2.29.34-4.65.26-6.98.31-34.66.8-69.31,1.88-103.97,2.16-8.2.07-12.39,3.09-16.25,9.93-20.65,36.55-41.78,72.83-62.73,109.22-7.52,13.06-5.98,12.06-19.86,6.44-11.73-4.75-23.47-9.48-35.15-14.37-8.68-3.63-9.19-4.99-4.57-13.34,21.78-39.36,43.43-78.79,65.68-117.88,4.22-7.42,3.91-12.56-.59-19.7-23.79-37.78-46.98-75.95-70.4-113.97-1.35-2.19-2.92-4.23-5.3-7.64Z"/>
  <path class="st0" d="M1486.67,1490.07c-1.66-3.28-3.65-6.12-4.61-9.28-4.86-15.92-8.02-32.55-14.62-47.69-4.91-11.25-1.43-17.43,5.78-24.88,9.45-9.77,18.03-20.39,27.82-31.61-3.46-1.18-5.75-2.18-8.13-2.74-47.63-11.27-95.27-22.47-142.89-33.79-2.49-.59-5.15-1.59-7.08-3.19-12.58-10.4-25.02-20.99-37.4-31.62-1.4-1.2-2.21-3.1-3.32-4.7.82-1.17,1.2-2.35,1.95-2.68,15.27-6.57,30.61-12.98,45.86-19.59,4.19-1.81,7.48-1.39,12.05.17,10.01,3.4,20.69,4.83,31.13,6.92,40.16,8.03,80.24,16.54,120.57,23.61,10.31,1.81,18.76,5.65,27.1,11.12,16.72,10.96,33.56,21.72,50.3,32.65,2.91,1.9,5.53,4.27,8.28,6.43-37.7,43.95-75.41,86.29-112.8,130.87Z"/>
  <path class="st0" d="M1126.5,876.94c1.27,13.79,1.84,26.05,3.65,38.11,1.88,12.48,2.46,24.22-7.71,33.75-23.43,41.85-47.19,83.52-70.02,125.7-5.39,9.96-11.99,17.83-20.78,24.64-15.27,11.84-30.05,24.3-45.1,36.43-2.77,2.24-5.83,4.13-9.05,6.39-15.17-25.2-29.84-49.63-44.57-74.01-14.58-24.12-29.23-48.2-44.27-72.97,1.26-3.75,5.31-2.75,8.8-2.65,13.66.38,27.31.98,40.96,1.33,7.24.19,14.49.03,23.37.03,9.21,15.22,19.15,31.64,29.65,48.98,2.11-2.8,3.81-4.69,5.11-6.83,25.27-41.56,50.44-83.17,75.8-124.66,1.81-2.96,4.58-5.66,7.51-7.55,12.03-7.77,24.24-15.27,36.52-22.64,2.84-1.7,6.21-2.51,10.12-4.04Z"/>
  <path class="st0" d="M1682.36,1230.42c-4.6,1.71-7.71,2.73-10.72,3.99-44.19,18.52-88.35,37.11-132.58,55.53-2.93,1.22-6.41,1.84-9.57,1.64-15.28-.95-30.54-2.22-45.8-3.54-2.42-.21-4.78-1.28-8.31-2.27,2.92-4.68,5.21-8.18,7.33-11.78,6.77-11.46,13.5-22.95,20.19-34.46,1.9-3.27,3.8-5.88,8.32-5.98,2.8-.06,5.62-1.83,8.32-3.07,44.14-20.3,88.46-40.22,132.25-61.25,10.6-5.09,20.91-7.26,32.31-7.63,18.29-.59,36.56-2.03,54.84-3.01,4.17-.22,8.37-.03,12.99-.03-4.91,57.51-9.7,113.66-14.62,171.36-2.48,2.11-5.27-.69-8.1-2.87-11.88-9.12-23.7-18.33-35.64-27.38-4.73-3.58-9.7-6.84-16.02-11.26,1.48-17.91,3.06-37,4.8-58Z"/>
  <path class="st0" d="M1757.49,907.22c30.29,50.1,59.13,98.79,89.77,148.35-4.46.38-7.6.9-10.73.86-13.65-.18-27.31-.57-40.96-.79-6.95-.11-13.9-.02-22.28-.02-9.43-15.57-19.37-32.01-30-49.56-2.28,3.38-4.14,5.9-5.76,8.56-25.07,41.26-50.09,82.56-75.23,123.77-1.49,2.44-3.6,4.82-5.99,6.34-13.2,8.41-26.53,16.61-39.91,24.72-2.07,1.26-4.62,1.74-7.88,2.91-.59-6.83-1.04-12.36-1.56-17.89-1.12-11.93-2.28-23.86-3.42-35.8-.35-3.71-.36-6.94,3.24-9.74,2.46-1.92,3.79-5.38,5.42-8.27,23.62-42.11,47.58-84.03,70.51-126.51,5.42-10.04,12.29-17.68,20.97-24.5,15.19-11.93,30.02-24.32,45.07-36.43,2.72-2.19,5.77-3.98,8.74-6.01Z"/>
  <path class="st0" d="M1259.97,762.6c-3.5,5.6-5.8,9.11-7.93,12.71-6.43,10.89-12.85,21.8-19.18,32.75-2.38,4.11-4.49,8-10.4,7.74-2.41-.1-4.95,1.74-7.37,2.85-44.44,20.47-89.03,40.63-133.17,61.73-9.02,4.31-17.81,6.5-27.46,6.96-20.62.97-41.24,2.1-61.86,3.05-3.19.15-6.4-.31-9.75-.49,2.08-23.48,4.1-45.91,6.03-68.35,2.61-30.18,5.16-60.37,7.69-90.56.16-1.96-.31-3.98-.09-5.93.24-2.07.95-4.09,1.46-6.13,2.11.64,4.59.77,6.26,2.01,10.41,7.76,20.64,15.77,30.92,23.69,4.48,3.46,8.48,8.26,13.55,10.08,9.45,3.4,8.88,9.57,7.94,17.42-1.78,14.82-2.66,29.74-4.02,45.88,3.2-.88,5.62-1.28,7.83-2.2,44.22-18.47,88.38-37.09,132.67-55.4,4.4-1.82,9.58-2.68,14.34-2.52,13.3.46,26.58,1.62,39.86,2.66,3.52.28,6.99,1.11,12.66,2.05Z"/>
  <path class="st0" d="M1152.74,1208.16c18.67,4.19,35.18,8,51.74,11.55,4.17.9,7.3,2.16,8.94,6.68.96,2.64,3.56,4.74,5.59,6.93,33.01,35.74,65.77,71.71,99.27,106.98,7.34,7.73,12.39,15.94,15.97,25.73,6.86,18.76,14.35,37.29,21.44,55.97,1.22,3.22,1.74,6.7,2.57,10-55.99,12.69-110.7,25.13-166.89,38.87-2.83-1.39-1.25-4.88,0-8.35,5.39-15.05,10.77-30.1,16.12-45.16,1-2.82,2.8-5.75,2.63-8.52-.47-7.48,4.36-8.68,9.88-9.89,13.01-2.85,25.97-5.89,38.95-8.89,2.89-.67,5.74-1.5,9.5-2.5-1.91-2.7-3.22-4.9-4.87-6.82-31.73-36.88-63.52-73.69-95.18-110.63-2.06-2.4-3.75-5.49-4.56-8.53-3.9-14.81-7.53-29.69-11.02-44.6-.61-2.59-.09-5.45-.09-8.81Z"/>
  <path class="st0" d="M1233.48,673.25c33.5,7.92,64.92,15.37,96.35,22.77,18.15,4.27,36.35,8.36,54.47,12.79,3.09.75,6.27,2.29,8.73,4.3,11.59,9.51,23.02,19.23,34.33,29.07,2.22,1.93,3.7,4.7,5.81,7.46-17.52,7.65-33.59,14.73-49.74,21.63-2.02.86-4.61,1.4-6.69.95-19.46-4.22-38.81-8.99-58.31-13.01-32.61-6.73-65.24-13.46-98.03-19.23-9.52-1.68-17.53-5.11-25.36-10.32-16.91-11.27-34.09-22.14-51.11-33.25-2.96-1.93-5.66-4.25-8.64-6.52,19.21-22.11,37.76-43.35,56.19-64.7,18.45-21.36,37.2-42.48,56.18-65.16,3.47-.3,3.92,3.7,4.93,7.13,4.52,15.33,8.96,30.69,13.59,45.99,1.43,4.72,3.34,9.3,5.62,15.54-11.85,13.79-24.54,28.56-38.31,44.58Z"/>
  <path class="st0" d="M1614.43,700.34c53.23,22.86,104.63,44.59,157.88,66.84,1.51,2.73-2.16,4.6-5.07,6.62-7.94,5.51-16.04,10.77-23.9,16.38-8.63,6.17-17.16,12.49-25.53,19.01-3.41,2.66-6.27,1.03-9.26-.23-12.58-5.31-25.1-10.74-37.67-16.07-2.98-1.26-6.06-2.29-10.5-3.96.86,11.82,1.54,22.3,2.4,32.77,3.08,37.51,5.79,75.06,9.61,112.49,1.07,10.47-.69,19.51-4.87,28.76-4.66,10.31-8.63,20.93-13.06,31.35-1.09,2.57-2.8,4.88-4.92,8.51-3.69-4.36-6.33-7.59-9.09-10.71-8.61-9.73-17.24-19.45-25.92-29.11-2.97-3.3-5.72-6.36-3.72-11.48.76-1.95-.13-4.57-.4-6.87-5.63-48.29-10.81-96.65-17.26-144.83-1.6-11.93-.8-22.77,2.49-34.07,5.3-18.22,9.76-36.67,14.75-54.98.99-3.63,2.73-7.06,4.06-10.42Z"/>
  <path class="st0" d="M1120.97,1348.7c-53.72-22.67-105.71-44.62-158.32-66.83-.91-3.84,3.11-5.23,5.96-7.2,12.87-8.91,25.85-17.65,38.71-26.58,4.05-2.81,7.83-6.02,13.25-10.22,16.65,6.96,34.58,14.45,53.89,22.52-.4-6.94-.59-12.5-1.05-18.04-3.72-44.8-7.59-89.59-11.12-134.4-.35-4.42.42-9.28,1.98-13.44,4.91-13.08,10.39-25.96,15.79-38.85,1.19-2.85,2.98-5.45,5.27-9.56,3.83,4.55,6.43,7.79,9.17,10.89,8.6,9.73,17.21,19.47,25.93,29.1,3.04,3.35,4.15,6.55,3.92,11.51-.41,8.55,1.22,17.21,2.24,25.8,5.08,42.98,9.82,86.01,15.68,128.89,1.36,9.96.37,18.9-2.22,28.22-5.43,19.56-10.52,39.22-15.83,58.82-.83,3.07-2.07,6.03-3.24,9.38Z"/>
  <path class="st0" d="M1376.18,617.43c56.77-13.23,111.67-26.02,167.33-39,3,2.54.76,6.04-.39,9.3-5.29,15.07-10.76,30.08-16.02,45.16-1.52,4.35-2.59,8.86-4.27,14.68-17.36,5.94-36.91,8.03-56.45,14.14,2.3,3.03,3.92,5.41,5.78,7.58,31.49,36.6,63.04,73.15,94.49,109.79,1.88,2.19,3.65,4.86,4.35,7.59,3.91,15.14,7.58,30.34,11.12,45.57,1.81,7.77.3,8.91-7.1,7.14-13.91-3.33-27.88-6.38-41.86-9.4-5.27-1.14-10.34-1.92-12.23-8.35-.68-2.31-3.31-4.08-5.11-6.04-32.77-35.46-65.27-71.18-98.54-106.17-7.8-8.2-13.25-16.91-17.02-27.36-6.55-18.15-13.76-36.07-20.62-54.1-1.26-3.31-2.21-6.73-3.45-10.54Z"/>
  <path class="st0" d="M1373.86,1150.08c3.15-6.73,8.1-6.93,12.61-7.52,22.09-2.93,44.2-5.68,66.3-8.51,8.91-1.14,17.83-2.19,26.7-3.58,6.81-1.07,13-.26,19.25,3,14.44,7.54,29.15,14.56,43.74,21.82,2.08,1.03,4.22,2.04,6.06,3.42,2.8,2.1,3.35,4.87,1.27,7.84-1.14,1.63-2.47,3.13-3.75,4.66-15,17.82-29.98,35.64-45.02,53.42-6.67,7.89-7.05,7.96-15.42,2.29-34.69-23.52-69.36-47.07-104.01-70.66-2.65-1.8-5.03-4.01-7.73-6.18Z"/>
  <path class="st0" d="M1481.64,980.34c-2.35-2.95-5.35-5.59-6.94-8.91-14.27-29.68-28.46-59.41-42.22-89.32-1.96-4.25-2.59-9.73-2.02-14.43,2.13-17.49,4.95-34.91,7.65-52.33,1.36-8.73,3.69-10.02,12.18-6.6,22.52,9.07,45.01,18.22,67.47,27.45,7.98,3.28,8.42,4.23,5.93,12.86-11.83,40.89-23.74,81.76-35.7,122.62-.8,2.73-2.23,5.27-3.37,7.9-.99.25-1.99.5-2.99.76Z"/>
  <path class="st0" d="M1216.23,928.28c20.99-.71,41.97-1.48,62.96-2.08,3.46-.1,8.54-1.57,9.4,2.98.52,2.77-1.94,7.01-4.32,9.29-24.3,23.3-48.78,46.41-73.45,69.32-2.74,2.54-6.83,4.27-10.56,4.98-17.67,3.33-35.41,6.36-53.18,9.13-9.47,1.48-11.19-.47-10.47-10.21,1.76-23.93,3.53-47.86,5.34-71.78.65-8.57,1.55-9.44,10.32-9.73,21.32-.71,42.64-1.33,63.96-1.99,0,.04,0,.07,0,.11Z"/>
  <path class="st0" d="M1384.29,782.48c1.18.94,3.32,1.98,4.45,3.7,1.43,2.17,2.09,4.86,2.99,7.36,13.87,38.48,27.77,76.94,41.47,115.47,1.22,3.43,4.97,7.54.86,10.94-4.06,3.36-8.2.2-11.93-1.83-28.63-15.58-57.3-31.1-85.75-47-3.83-2.14-7.47-5.78-9.59-9.61-8.7-15.71-16.89-31.7-25.04-47.7-4.08-8.01-3.02-10.19,5.97-12.46,23.53-5.94,47.11-11.68,70.68-17.49,1.61-.4,3.23-.76,5.89-1.38Z"/>
  <path class="st0" d="M1299.15,1129.73c6.38-3.19,10.11-.77,13.88,1.29,28.59,15.61,57.25,31.12,85.68,47.02,3.81,2.13,7.37,5.83,9.5,9.66,8.7,15.69,16.91,31.67,25.09,47.64,4.12,8.04,3.04,10.17-6.04,12.45-23.53,5.9-47.08,11.71-70.65,17.44-8.31,2.02-9.34,1.44-12.37-6.95-14.33-39.7-28.6-79.42-42.81-119.16-1.07-2.98-1.51-6.18-2.28-9.4Z"/>
  <path class="st0" d="M1305.32,1176.57c-3.04,20.2-5.74,39.3-8.85,58.32-1.2,7.34-3.56,8.66-10.22,6-23.46-9.37-46.85-18.91-70.2-28.56-6.9-2.85-7.17-3.71-4.93-11.57,5.48-19.17,11.11-38.3,16.66-57.46,6.29-21.71,12.48-43.45,18.91-65.11.96-3.22.9-8.64,5.68-7.98,2.81.39,6.08,3.93,7.5,6.86,14.62,30.22,28.96,60.59,43.22,90.98,1.36,2.91,1.67,6.31,2.22,8.52Z"/>
  <path class="st0" d="M1245.93,992.12c5.66,4.14,4.35,8.94,3.52,13.42-5.42,29.08-11.42,58.07-16.24,87.25-1.9,11.49-6.55,20.38-14.97,28.21-10.23,9.5-19.62,19.89-29.47,29.8-7.99,8.03-9.94,7.87-15.71-1.34-12.7-20.3-25.35-40.63-37.92-61.01-4.49-7.28-4.41-8.07,2.09-13.13,34.12-26.57,68.29-53.06,102.49-79.54,1.78-1.38,3.91-2.32,6.21-3.66Z"/>
  <path class="st0" d="M1246.67,919.54c-1.97-.71-5.19-1.55-8.13-2.98-15.84-7.73-31.65-15.51-47.38-23.46-8.89-4.49-9.37-6.71-3.19-14.11,15.58-18.63,31.23-37.2,46.94-55.71,5.57-6.56,6.26-6.68,13.13-2.02,35.53,24.06,71,48.2,106.48,72.32,1.37.93,2.84,1.82,3.97,3,2.66,2.81,2.18,5.53-1.1,7.33-1.97,1.09-4.28,1.82-6.52,2.11-33.62,4.43-67.26,8.77-100.89,13.12-.66.09-1.32.16-3.3.39Z"/>
  <path class="st0" d="M1446.85,1121.74c-2.02-5.5.79-8.47,3.72-11.24,24.43-23.11,48.84-46.26,73.48-69.15,2.75-2.55,6.8-4.38,10.52-5.08,17.99-3.37,36.06-6.32,54.13-9.25,7.9-1.28,10.01.37,9.52,8.16-1.58,24.92-3.34,49.83-5.32,74.72-.63,7.96-1.28,8.47-9.09,8.73-43.27,1.48-86.54,2.83-129.81,4.12-2.5.07-5.02-.7-7.15-1.02Z"/>
  <path class="st0" d="M1486.63,1058.5c-.68-5.85-1.92-9.37-1.34-12.57,6.04-33.36,12.24-66.69,18.81-99.95.78-3.93,3.4-7.96,6.23-10.96,12.09-12.83,24.49-25.36,36.93-37.84,6.84-6.87,9.02-6.55,14.3,1.88,12.71,20.29,25.34,40.62,37.92,60.99,4.82,7.82,4.62,8.74-2.93,14.61-33.34,25.93-66.71,51.82-100.11,77.67-2.27,1.75-4.87,3.07-9.81,6.15Z"/>
</svg>