<?xml version="1.0" encoding="UTF-8"?>
<svg id="Layer_0_xA0_Image" xmlns="http://www.w3.org/2000/svg" version="1.1" viewBox="0 0 2732 2048">
  <!-- Generator: Adobe Illustrator 29.8.4, SVG Export Plug-In . SVG Version: 2.1.1 Build 6)  -->
  <defs>
    <style>
      .st0 {
        fill: #f6e5c3;
      }
    </style>
  </defs>
  <path class="st0" d="M1596,2047.93c-11.49-.92-33.73-4.68-44.54-8.46-12.95-4.52-18.36-14.08-11.86-26.96,3.49-6.91,6.66-4.54,6.22-15.27-.82-19.95-13.56-36.09-21.82-53.3l11.97,1.06,3.12-3.13c4.32-10.73-12.09-14.81-14.33-21.9-2.11-6.68,6.27-9.39,2.22-18.02-1.61-3.44-12.46-10.75-12.97-13.07-2.66-12.09,20.32,8.95,22-.01-6.1-9.51-9.1-20.24-13.63-30.34-4.02-8.96-9.51-8.52-8.26-21.42.37-3.77,3.7-8.2,2.92-11.41-2.43-10.08-18.43-24.36-8-35.8,3.23-.61,9.83,9.55,16.99,5.09l6.97-17.1c10.15-1.71,5.63,18.6,17,21.04-12.04,13.63-.15,11.15,1.72,18.42,1.15,4.46-2.33,8.46-1.89,11.27.26,1.7,4.07,1.74,5,3.36,4.63,8.04,5.39,19.73,8.19,25.9,1.78,3.91,8.71,4.98,7.04,12.8-.68,1.42-4.02,1.21-4.19,2.41-1.26,8.72,22.07,27.3,14.35,35.99l-8.21,3.81c4.95,5.15,4.34,13.23,7.11,18.89,1.38,2.83,5.93,4.66,6.59,7.51.71,3.05-2.09,6.5-1.3,11.03,1.53,8.82,7.4,11.59,15.64,12.54l1.67,2.32c-.04,21.09,12.73,45.42,2.27,64.69,13.3,4.45,13.02,12.77,0,18.04-2.63-.14-5.38.21-8,0Z"/>
  <path class="st0" d="M1284,0l9.76,5.25-.78,16.77c-3.55-.07-17.2-17.02-12.98-22.02h4Z"/>
  <path class="st0" d="M1456,2047.93h-10c-7.72-3.87-2.7-15.06-3.98-22,6.24,4.85,13.13,14,13.98,22Z"/>
  <path class="st0" d="M2056.02,809.97c18.11-14.3,35.54-35.79,61.1-30.12l2.69,4.82-23.82,33.25c12.07,2.37,6.6,9.62,6.38,17.05-.14,4.9,4.45,9.4-2.29,14.01l29.64,21.24-.02,4.36c-2.61,7.76-21.23,11.63-28.61,11.44-15.31-.38-40.22-15.92-54.12-15.18-5.13.28-31.95,10.58-32.97,16.1-3.15,17.03,3.83,41.06-1.81,58.19-1.92,2.49-54,19.83-59.53,20.17-2,.12-8.34-.78-6.64-4.33l13.98-9-19.99-15.04,3.87-1.06.11-3.89-43.39-25.68c-16.16,1.49-26.52,5.89-30.61,22.63l6,.99c3.13,5.84.73,11.06,1.07,16.32.45,6.84,6.01,7.66-3.05,15.66l29.08,20.01c6.22,9.77-17.9,17.42-24.46,17.37-13.25-.1-44.08-16.73-55.66-16.39-4.2.12-31.61,11.37-32.64,14.37-3.74,10.4,9.22,55.99.2,60.7l-68.52,15.97c.33-9.98,16.06-5.31,19.98-11.96-5.8-3.13-16.94-9.57-21.13-14.07-2.62-2.81-1.09-5.1-3.71-7.92s-30.51-22.7-34-24.19c-10.87-4.66-35.29,5.74-48.36,5.93-11.06.16-28.21-10.3-34.78,2.2,1.7.79,16.65-5.33,13.98.99-4.35,4.87-12.33,7.12-11.73,14.74,11.44,2.08,8.08,19.62-1.26,19.6-10.93-.02-8.95-20.04-13.02-27.31l-37.79,11.84-3.14-9.79c-3.17,2.69-8.57,1.89-11.67,3.83-1.92,1.2-2.19,5.3-4.49,5.83-1.66.38-14.14-2.15-19.87-1.67-17.37,1.45-35.38,12.65-55.02,7.96-.07-2.71-.68-3.9,1.33-6.09,1.81-1.98,20.16-13.23,24.07-15.51,9.08-5.28,19.72-10.1,29.26-14.74,15.14-7.36,31.88-9.04,42.38-23.63l3.96,5.97c3.17-2.18,6.31-4.59,9.7-6.42,9.87-5.34,16.69-4.59,28.19-7.69,25.78-6.95,50.78-19.06,77.04-24.96l6.07-5.95-3.97-5.94,25.98-28.04-5.98-1.98,21.98-28.02-23.98,3c-.28-3.19-.5-4.63,1.99-6.99,2.62-2.49,57.78-16.59,63.1-16.08,13.5,1.28,9.9,21.24,13.89,21.05,1.1-5.2,20.11-3.2,20.91-3.97.85-.81-.31-7.87,3.57-10.02,6.35-3.51,21.76-1.23,29.41-6.09l3.69,3.9,65.27-20.95c4.72-2.8,28.21-35.64,29.28-40.78.73-3.51-1.71-6.29-.17-9.94,1.65-3.9,11.35-12.83,13.03-17.15,2.76-7.07-16.37.69-17.97-.98l.17-5.79c1.89-2.96,63.54-16.49,68.37-15.8,11.55,1.65,6.79,27.15,12.44,35.59,10.92-24.09,22.41-54.85,54.74-36.72l2.29,50.72Z"/>
  <path class="st0" d="M1297.98,431.99l-15.96,19.15-7.05-1.36c-19.29,24.81-42.92,57.7-.99,74.2-2.2-7.32,3.06-10.6,9.9-11.06,2.38-.16,3.58,2.1,6.28,2.13,4.18.05,7.78-4.5,14.65.81l21.2-27.02c4.9-2.62,11.37,4.97,13.03,9.12,8.18,20.43-8.67,50.31-13.12,71.07l11.86,31.78c4.45,6.43,53.59-7.27,61.43-1.02,4.55,3.63,17.12,60.44,18.78,70.2l-5.84-.12-5.14-19.87c-4.66,2.51-15.33,22.53-17.32,23.61-.73.39-3.13-1.48-4.41-1.14-2.39.63-27.07,36.84-27.44,40.47-1.11,10.73,5.4,26.58,6.12,38.08,1.04,16.34-6.93,26.93.07,40.96l4-1.02-4.02-12.96,15.06,11.95,2.99-.96c2.16-9.44,18.91-8.84,20.01.02,1.77,14.3-18.34,9.15-26.21,16.13l12.11,34.01c1.42,5.37-9.85,3.32-10.06,5.99l2.47,12.6,5.69,1.28c-5.73,26.11,10.95,49.75,5.93,76.97-3.73.88-3.88-1.26-5.66-3.32-20.29-23.55-26.75-52.15-39.98-78.02-3.36-6.57-13.22-13.12-12.41-17.66l3.95-3.84c-9.82-10.46-9.3-24.11-13.38-36.66-4.7-14.45-10.27-28.54-15.05-42.95-2.61-7.88-6.96-38.97-16.51-39.55l-1.99,4.12c-7.15,1.16-11.16-9.89-15.89-14.19-4.99-4.54-11.24-7.21-16.1-11.9l-1.98,5.98-26.02-19.98c-4,8.14,10.52,22.81-4.95,21.98-1.58-15.74-20.5-56.67-14.55-69.51,3.22-6.96,11.78-6.86,18.51-6.49-2.03-5.41-1.02-19.49-4.45-23.54-1.4-1.65-6.31.39-9.05-5.94-4.53-10.48-1.67-25.27-2.84-34.97s-14.11-49.87-18.85-59.33c-3.1-6.19-38.38-32.3-43.45-31.71-1.6.19-2.99,3.32-5.32,2.56-5.71-1.85-16.28-14.28-23.04-17.04l1,19.98c-1.8.23-2.57.29-4.02-.96-3.52-3.03-17.15-61.51-15.93-67.96,2.19-11.54,27.04-6.1,35.95-12.06-15.87-10.45-38.64-9.29-41.81-32.18-1.04-7.54-2.5-21.01,6.88-22.77,12.65-2.37,33.38-.34,46.94-2.08-12.65-19.71-38.4-38.05-27.95-63.96l37.94,23.99c-1-14.06,17.8-3.66,26.78-8.14l2.22,4.13c6.57-3.96,19.12-30.23,25.65-29.69,9.45,1.97,12.83,21.22,12.68,29.09-.27,14.12-14.87,36.46-15.23,51.85-.11,4.55,9.08,30.26,12.75,32.91,8.26,5.95,48.76-1.39,61.19,2.81,2.68,1.61,19.39,52.32,19.83,58.28.28,3.86.81,6.2-2.86,8.71l-7.02-13.95Z"/>
  <path class="st0" d="M1730,321.98l6.02,42.03c12.98-6.26,12.15,2.26,16.53,7.41,2.81,3.3,12.7,1.6,7.44,10.56l38.79-4.1c8.48,2.43-6.65,27.26-10.91,30.98-9.86,8.59-39.26,16.28-47.94,26.06-3.11,3.5-14.41,27.69-13.95,32.02.93,8.87,37.46,33.72,41.53,44.32-.1,4.16-2.29,7.73-3.8,11.44-3,7.35-20.22,42.74-24.26,46.72-1.28,1.26-6.53,3.52-7.43,2.56l3.98-15.98-25.99,1.97,1.99-5.97c-5.98,1.83-12.86.99-18.8,2.18-4.7.94-28.17,7.31-31.15,8.85-11.47,5.88-13.8,28.19-8.02,38.97.65.61,9.46-5.02,16.73,1.93,1.48,1.42-.57,3.62,1.11,5.04,4.66,3.94,10.32.32,8.15,11.02l39.99-4c1.89,12.74-1.45,20.25-9.11,29.88-10.43,8.66-41.68,18.53-49.95,26.05-1.82,1.65-14.28,29.11-14.65,31.55-.35,2.3-.26,3.98,1.56,5.64l39.55,31.46,2.25,9.9-34.66,57.51c-11.5-.82,6.64-18.78,5.03-19.97l-28.86,4.02-3.99-4.21c-12.7,4-28.93,3.36-41.25,7.06-10.62,3.19-19.91,24.92-27.94,34.06-8.73,9.94-24.98,15.95-27.58,26.43-1.06,4.3-1.03,5.28,3.6,4.61l1.85-8.82,6.17-1.19v18.02c17.94-5.39,25.76,19.79,7.22,17.98-7.36-.72-11.94-12.54-23.1-9.91l-13.17,31.89c-3.07,4.84-8.4-4.97-10.96-3.05l-8,12.11,4.01,3.94c-23.77,13.32-27.47,44.42-51.97,59.02-.34-13.48,3.41-27.05,6.98-39.99,4.62-16.74,17.71-39.6,20.55-53.45,1.24-6.03.1-12.46.46-18.55l7.97,1.99c-3.67-8.59,5.35-13.5,5.64-14.28.43-1.16-2.35-3.93-.74-7.64.99-2.28,8.73-9.84,11.46-14.74,7.79-13.97,13.45-29.08,20.62-43.38,5.53-11.03,14.72-20.5,17.01-33.12l-7.67-6.02-2.31-36.82-5.97,2c2.56-13.33-4.44-23.42-4.04-35.98-3.22.77-12.16,26.43-16.99,18.01-1.47-2.56-1.3-3.88-.56-6.56,9.42-9.53,23.3-48.09,32.43-53.58,12.76-7.67,24.18,7.13,25.12,6.13.57-5.24,4.94-11.92,8.02-16.6,1.23-1.86,3.83-1.31,3.95-1.49.64-.99-5.77-5.63-2.47-13.34.5-1.18,13.53-20.25,14.4-21.2,9.53-10.44,17.54-20.06,24.53-33.97,4.78-9.49,8.94-21.05,13.23-30.93l-9.65-50.49-5.97,2.01-4.04-29.99c-6.63,2.9-8.3,17.78-16,12.97-.32-1.83.4-3.39.94-5.06,2.17-6.68,24.99-43.02,30.23-49.78,4.2-5.42,7.05-9.83,14.3-6.65,2.82,1.23,25.45,19.81,26.54,18.51-2.7-11.43-14.74-29.4-13.92-40.91.53-7.44,16.96-28.34,25.9-24.1,7.45,3.53,23.9,21.75,32.02,28.03,2.01,1.55,2.56,3.86,6.01,2.97.32-11.56-.01-26.99,2.94-38.06,2.2-8.26,11.96-28.29,23.07-23.94Z"/>
  <path class="st0" d="M1396,1214c-.66,1,5.57,6.01,6.55,8.53,3.65,9.35,5.05,19.9,8.46,31.41,3.84,12.95,19.93,67.52,24.97,75.03,1.65,2.46,5.08,4.54,7.03,6.98l2.01-4.1c6.88-1.22,19.66,21.5,30.02,24.12l3.93-4.01,26.04,19.97-3-23.98c4.48-.48,5.27-.45,7.59,3.38,2.65,4.37,16.35,58.69,15.81,63.38-1.15,10.15-14.07,10.65-21.4,12.21,4.49,2.61,3.18,18.77,5.01,21.12,1.49,1.92,5.76,1.79,7.96,3.92,1.51,1.45,5.99,24.35,6.09,27.82.42,14.85,2.81,28.69,7.93,44.15,2.16,6.51,8.01,24.12,11.29,28.71,6.95,9.69,32.66,21.29,42.75,29.31l1.97-4.12c5.1-.35,17.17,13.64,24.02,16.08,4.94,1.76,1.75-2.02,1.53-3.52-.74-4.96-5.45-15.89,1.44-15.48,4.15,2.9,19.26,64.24,17.69,69.61-2.56,8.72-24.69,7.52-32.71,9.46-3.01.73-3.52-1.41-2.99,3.93,11.71,3.67,35.67,11.07,39.5,23.53,1.69,5.49,4.66,25.79-2.79,28.21l-48.71,4.31c12.57,19.07,35.13,36.34,27.91,61.91-6.2,4.27-35.77-26.35-39.9-23.91,3.17,7.39-2.71,9.58-9.45,9.4-2.74-.07-4.3-2.79-6.7-2.54-4.36.44-9.61,7-10.15-.48l-2.67-.38-21.05,27.1-4.54.55c-7.94-.61-11.92-21.6-11.53-28.61.81-14.61,15.38-37.5,15.54-52.44.05-4.34-10.29-30.37-14.32-32.75-12.84-7.61-51.52,6.19-60.62-2.39-2.34-2.2-20.21-56.74-20.17-60.92.04-4.33,5.75-6.1,7.65-4.56.88.72.27,14.4,5,11.99,3.6-2.87,10.3-15.44,13.05-17.08,2.24-1.34,5.51,1.36,7.96.2,8.7-4.14,19.43-33.63,25.98-42.17-1.29-15.83-7.72-25.82-23-30.89-5.65-1.87-.68,4.56-1.81,6.09-2.82,3.85-26.58,5.16-30.19.23l-21,29.64c-11.6-1.2-17.77-16.76-17.66-27.02.14-11.74,16.44-42.26,16.74-53.94.08-3.01-10.43-31.11-12.04-33.03-1.78-2.12-3.45-2.1-5.98-2.19-18.17,2.05-36.9,5.82-55.11,3.27-2.99-8.29-21.22-65.84-17.91-69.09l6.02,1.35,4.97,16.62c3-.06,13.04-20.24,15.41-21.69,1.29-.79,4.82,2.4,6.53-.16l26.98-41.19c-1.27-13.47-7.71-31.03-7.7-44.13,0-10.49,11.26-30.49-4.22-34.76,1.81,1.91,6.43,14.07,2.98,14l-12.34-9.72-4.35.05c-3.76,11.95-25.51,5.58-17.94-6.88,5.38-8.85,18.98-2.72,25.59-10.59-.44-6-15.28-33.51-11.89-36.81.74-.72,8.46,1.11,9.63-2.98-2.07-3.07-1.83-9.52-3.47-11.91-1.52-2.24-5.7-.71-6.21-1.17-.78-.71,2.46-15.12,1.97-20.98-1.47-17.8-12.58-36.98-7.96-57,3.28-3.69,18.04,20.74,19.6,23.38,7.44,12.58,14.21,27.94,20.75,41.25,5.88,11.96,6.57,23.8,19.62,32.4l-5.98,5Z"/>
  <path class="st0" d="M994,983.99c-1.13,4.61.9,3.28,2.53,4.56,4,3.13,15.26,9.06,17.71,12.34,2.02,2.71-.73,5.52.02,6.68,1.36,2.13,39.91,26.24,42.71,26.54,15.07,1.62,34.76-8.02,53.88-5.98,9.49,1.02,17.49,9.39,25.16-4.14l-12.98,4c-4.3-7.65,9.09-9.2,10.91-17.05-18.81-8.14-1.14-31.85,7.84-15.74,3.79,6.8.26,16.02,7.54,20.54,12.04.48,22.78-10.38,33.76-11.73,6.33-.78.68,9.86,3.96,9.99l14.81-2.3.22-5.65c26.38,5.37,49.54-11.05,76.94-6.09l.99,3.97c-21.36,13.78-43.8,25.19-66.62,36.4-11.92,5.86-23.82,6.55-32.36,19.6l-3.04-5.95-2.91.03c-3.35,5.44-7.61,4.78-12.37,6.72-20.9,8.52-49.62,15.99-73.17,23.76-12.11,4-25.16,2.93-33.52,14.49l4.09,2c1.1,6.23-20.48,22.81-24.09,30.01l3.97,5.94-19.97,24.05c-.42,5.24.85,2,3.5,1.51,5.93-1.11,11.31-3.82,17.32-4.47l3.15,4.91-4.12,3.9c-14.24,1.5-54.54,19.26-65.84,14.09-5.89-2.69-9.15-12.73-8.04-18.96l-23.85,4.16c-.8,2.49,1.16,6.33-1.29,8.09-3.18,2.29-22.6,4.72-28.08,5.53-2.85.42-6.1-1.8-9.32-1.36-11.13,1.52-52.76,14.31-62.16,19.88-4.68,2.77-30.89,39.7-30.59,42.68.16,1.59,3.45,3.46,3.09,5.74-.41,2.64-14.15,16.03-15.77,20.32s2.23,2.69,4.47,2.48c4.85-.46,10.05-2.75,15.51-1.49-1.21,3.47-4.77,5.64-7.99,6.99-8.77,3.68-41.57,11.25-51.51,12.47-3.88.47-9.68,1.49-13.25.26-6.09-2.11-5.56-29.36-8.24-35.73-10.82,13.86-11.19,38.78-32.19,41.81-3.97.57-16.35,1.01-19.54-.09-8.02-2.76-3.51-44.98-7.3-53.73-10.88,5.51-18.59,18.83-29.19,23.78-6.1,2.85-39.09,14.46-31.79-1.73,1.32-2.93,24.52-30.75,23.02-32.03-14.26-.62-7.14-10.28-6.94-16.18.16-4.8-4.72-8.51.87-14.69l-27.56-19.52c-6.76-11.72,23.03-17.84,30.16-17.2,13.57,1.22,36.11,15.81,50.52,15.62,3.85-.05,31.19-10.26,33.09-12.91,7.81-10.88-5.69-50.07,1.69-60.31,3.42-4.75,57.85-21.85,65.15-20.85,6.49,7.58-11.57,9.68-10.98,11l17.6,13.34.44,4.68-4.05,1.98c4.86,2.91,8.68,7.6,13.34,10.66,3.6,2.37,27.57,15.91,29.79,16.29,5.02.87,17.15-1.72,21.49-4.33,1.57-.95,10.64-14.84,11.36-16.65,2.09-5.25-6.57-1.79-7.88-3.06-.65-11.06-3.83-22.03,1.89-31.86-6.91-4.56-22.89-13.72-27.91-19.12-1.97-2.12-2.89-1.68-1.15-4.97,4.31-8.14,17.31-12.26,26.11-12.13,13.53.21,42.35,16.13,53.93,16.26,4.4.05,32.71-11.35,34.07-14.06l-2.17-60.16c18.51-2.01,47.34-17.1,64.37-17.74,16.77-.63-5.9,12.09-13.23,9.89Z"/>
  <path class="st0" d="M1524.01,1131.97l-.12,7.05c3.57,2.06,18.49,3.42,20.66,4.76,3.88,2.39,9.33,8.76,16.1,12.53,8.03,4.48,66.58,34.87,70.48,35.52,2.91.48,5.94.11,8.86.12l-2.01-5.97c13.11-3.05,26.36.44,40.01-2.03l-1.99-5.97,36-4.04-19.99-15.01,3.03-4.98c3.38-.67,56.37,30.19,59.06,34.89,7.91,13.8-7.08,21.87-6.1,23.09,7.94.1,11.55,10.64,19.42,11.55,3.18.37,5.25-2.75,7.57-2.81,2.12-.06,22.89,14.17,25.01,16.39,1.8,1.88-.14,4.22,3.1,6.61,5.22,3.87,53.19,28.73,58.35,29.82,6.3,1.33,45.81-4.6,51.25-7.47,2.4-1.26-.08-5.09,3.67-6.75,6.27-2.77,18.23-1.21,25.65-4.3,6.37-2.65-11.22-8.09-12.01-12.05-.86-4.11,1.99-3.41,4.88-2.89,3.29.59,48.78,27.44,53.02,31,15.42,12.99-8.62,26.02-13.91,38.89,13.42-1.52,27.37-13.07,40.97-12.1,8.75.62,28.96,15.44,24.06,26.07-2.04,4.42-22.96,23.46-28.04,30.04-1.55,2.01-3.87,2.54-2.98,6,11.46,3.41,25.21.16,36.05,2.95,7.63,1.96,40.52,21.4,20.91,25.03-11.19,2.07-25.43,2.48-36.97,4.04,1.39,5.76,3.31,9.39-.23,14.94-1.93,3.03-4.5,1.25-6.67,3.04-1.44,1.2-2.04,4.5-4.04,6.16-2.21,1.84-6.71,1.11-7.23,3.03-2.23,8.2,9.13,28.69,2.3,37.95-6.33,4.49-23.4-7.08-28.12-12.15-10.44-11.21-17.69-40.08-26.5-48.48-.95-.91-21.71-10.54-23.87-11.12-2.85-.77-5.65-1.75-8.67-1.56-12.43.79-33.04,38.68-44.09,40.24-8.98,1.27-50.49-23.23-59.95-30l2.11-6.07,12.94,6.01-2.11-24.93,6.13-1.08c-1.57-7.07-1.62-14.64-3.28-21.71-.88-3.74-7.75-27.68-8.55-28.96-.55-.89-16.59-10.09-18.12-10.42-7.21-1.55-14.89,5.12-22.05,5.13,10.81,8.74-8.58,26.65-18.01,26l5.93,37.9c-37.75,12.36-41.21-50.17-62.53-62.31-2.61-1.48-22.64-9.52-24.58-9.64-4.28-.26-5.23,1.58-7.92,3.93-8.61,7.51-26.14,37.01-34.85,39.35l-3.91-.22c-6.88-6.82-56.17-29.71-58.07-34.09-5.59-12.83,19.07,4.02,19.93,3.05l-3.75-27.13c-.03-.95,3.45-.64,3.82-2.16.57-2.36-5.59-38.41-7-42.75-4.79-14.78-27.05-21.14-38.04-31.96-8.53-8.4-12.16-27.25-27.01-22.99l9.98,9-16.13.87c-2.26,1.6-2.49,22.97-15.86,16.19-14.17-7.18,10.55-22.36,5.12-31.05-3.44-5.5-32.78-11.28-32.82-16.98l5.71-8.97c-3.94-4.68-17.09-4.43-17.96-4.96-1.56-.94-5.43-8-9.1-11.03-16.44-13.57-37.34-18.59-48.93-39.07,13.24-.44,28.12,3.47,40.87,7.13,23.79,6.83,46.63,21.82,71.13,21.89Z"/>
  <path class="st0" d="M1289.99,1069.97c1.33,1.45-6.08,32.49-7.47,37.51-7.06,25.55-22.89,48.48-22.53,74.49l-7.07-.11c1.82,7.17-4.83,10.64-4.86,11.31-.71,13.43-2.17,6.94-8.45,17.39-14.55,24.24-24.05,52.5-39.5,76.49l-.1,10.91,4.77-1.65,2.95,2.95.15,33.53,6.26,2.25,3.88,32.9c7.88-2.3,8.32-20.24,16.96-17.99l2.73,4.63c-8.49,10.84-26.66,54.96-37.61,58.48-9.77,3.14-11.68-2.66-19.13-7.05-1.27,3.9-7.15,6.64-8.44,8.49-1.09,1.57-.01,4.53-.66,5.84-1.01,2.04-3.84,1.72-3.89,2.76-.21,4.27,4.02,7.18.95,14.75-.45,1.1-12.62,18.74-13.5,19.52-1.41,1.25-4.49.44-7.22,3.72-4.44,5.35-27.81,50.26-29.33,56.68-1.86,7.84,3.83,45.06,7.08,52.75,1.13,2.68,6.77.84,7.8,4.63l2.25,24.75c3.12,3.81,10.8-12.89,13.01-13.98,4.13-.84,3.38,1.94,2.87,4.86-1.08,6.19-31.28,55.99-35.94,58.15-11.04,5.12-30.87-20.28-33.95-17.02,2.64,13.56,13.7,26.64,12.12,41.03-.81,7.37-17.38,27.38-24.08,24.06l-38.04-33.1c-2.93,12.39-.02,27.44-3.92,39.1-1.89,5.67-14.45,29.98-22.03,24.84l-6.09-41.94c-14.11,5.72-12.28-2.96-17.4-8.12-3.95-3.98-11.21-1.68-8.61-11.89-6.48,1.3-36.39,8.11-39.08,4.11-4.72-7,7.59-26.23,13.25-30.96,10.46-8.75,39.95-16,47.91-26.09,4.97-6.3,15.38-29.75,10.05-37.67l-34.14-30.35c-1.95-2.25-3.77-5.16-3.95-8.19-.2-3.25,25.38-56.98,28.2-58.61,2.68-1.55,6.13.26,7.79,2.81l-6.01,12.93,25.99-3.98.13,5.78c3.48.71,7.12.33,10.63-.03,5.5-.56,35.54-8.51,39.15-10.84,12.28-7.93,12.7-27.18,6.07-38.9-4.09,4.62-10.28,3.97-14.7.11-1.92-1.68-.9-4.52-1.75-5.51-2.92-3.39-12.11-1.69-9.54-12.62l-37.98,6.02c-4.55-9.87,1.06-24.62,8.58-31.41,9.23-8.32,40.82-17.84,49.31-25.7,5.12-4.75,16.86-31.82,12.24-38.05-4.03-5.43-23.46-17.45-30.16-23.82-3.33-3.16-12.12-10.61-11.08-15.2,5.48-6.82,32.05-59.73,36.11-59.78,9.37-.12-7.11,19.79-4.99,21.95,7.24-.57,18.31-4.53,25.07-4.23,3.78.17,2.73,4.21,4.06,4.27,2.4.11,41.84-7.35,45.32-8.57,9.97-3.49,19.95-26.36,28.51-35.48,5.88-6.27,22.57-15.54,24.6-21.4.58-1.66,2.1-9.01-1.55-8.56-.07,1.64-4.63,16.17-8.01,11.97l-.94-18.08-2.24-1.63c-15.85,7.34-21.49-20.05-4.76-17.47,8.7,1.34,10.13,12.57,21.78,11.14l14.24-33.86,11.93,3.04c7.82-5.02,3.78-15.43,4.81-17.15,1.13-1.89,7.12-3.29,10.01-6.13,8.24-8.09,12.96-22.72,20.11-31.89,1.83-2.35,19.05-20.12,21.04-17.94Z"/>
  <path class="st0" d="M778.6,653.37c1.11.84,23.7,11.25,25.35,11.69,3.11.83,5.29,1.56,8.61.58,10.25-3.01,29.18-37.46,42.75-41.24,3.17-.29,54.91,25.9,56.83,28.44s2.28,4.11,1.85,7.13l-15.98-3.98,3.96,22.89-5.95,1.1c-.12,4.25-.21,8.49.23,12.75.39,3.79,9.2,37.03,10.29,38.71.58.9,16.85,10.23,18.61,10.52,8.01,1.3,13.06-4.84,20.84-3.99v-2.96c-10.07-6.11,10.25-24.43,17.98-23.07l-5.97-39.94c12.5-1.93,26.69,2.14,33.71,13.27,6.55,10.38,16.42,37.36,23.18,44.82,6.67,7.35,23.42,10.85,32.5,15.51,8.37.09,32.52-42.73,41.68-43.67,2.58-.27,4.19.78,6.36,1.61,7.84,3,45.24,24.48,52.06,29.75,2.4,1.86,2.92,3.31,4.48,5.71-9,4.81-14.05-5.77-21.98-7-.93,1,4.64,22.01,4.22,27.07-.31,3.79-4.21,2.76-4.27,4.07-.1,2.22,7.16,40.76,8.18,43.71,3.52,10.09,29.75,22.21,38.83,31.17,9.06,8.93,9.68,21.87,24.01,24,9.59,1.43-8.93-8.1-8.95-9.02,3.04-5.96,18.14-1.41,19.95-3.01-6.24-14.34,13.94-27.09,17.59-7.3-3.16,7.97-11.73,11.57-10.66,21.42l32.2,15.84-3.06,11.97c7.65,1.04,8.64,7.98,15.96,2.92,13.99,23.65,45.48,25.79,57.98,51.14-24.84-.93-49.33-10.19-72.53-18.45-6.02-2.15-13.6-8.01-18.92-9.08-8.38-1.67-23.6,3.68-18.54-8.44-7.37,2.74-10.57-3.47-13.99-4.74-5.6-2.07-9.22.91-14.53-7.71l-80.99-41.15c-11.12-1.27-5.93,6.2-9.74,7.32l-36.77,2.29,2,5.97-33.99,4.04c4.92,7.18,19.4,6.92,17.98,17.97-2.79.29-5.4-.01-8.08-.9-4.62-1.53-39.3-21.74-44.55-25.45-12.68-8.96-16.38-17.08-3.38-28.67l.02-2.95c-4.53,1.49-16.28-11.57-18.96-11.54-2.3.02-3.61,5.89-12.52,2.02-6.99-7.95-18.61-10.86-21.88-20.63-16.71-5.29-46.39-29.31-62.19-31.47-4.77-.65-46.13,7.15-49.29,9.41-2.14,1.53.03,5.42-2.43,6.27l-26.74,3.95c-.65,2.15,20.66,14.69,10.96,15.99-3.47.46-57.67-32.75-59.49-36.49-5.8-11.91,14.64-23.76,16.52-35.52-21.3,7.27-36.91,22.71-56.96,3.98-5.96-5.57-10.96-10.2-5.91-17.85,6.13-9.28,20.7-20.74,27.9-30.11,1.54-2.01,3.88-2.53,2.98-6-19.15,0-44.25-.33-59.03-13.97-2.4-2.22-4.59-5.78-4.99-9.04-.6-4.91,2.03-2.39,5.02-2.94,12.94-2.35,26.06-3.87,39.01-6.09-10.41-12.11,2.34-13.32,6.96-17.96,3.81-3.82.76-10.98,8.05-6.34l2.91-2.64c-1.14-7.5-8.14-31.45-3.94-36.08,6.47-7.13,25.15,6.32,30.07,12.01,8.43,9.75,18.2,42.09,26.57,48.42Z"/>
  <path class="st0" d="M754.01,839.98l-1.18,6.17-16.82,4.81c3.17,5.12,13.24,7.9,16.1,11.9,2.02,2.83,1.57,6.57,3.05,8.95,3.03,4.87,30.92,25.03,36.28,25.76s23.72-4.98,31.59-5.58c13.26-1,35.39,4.75,42.97-6.01-20.8,9.59-16.08-1.85-2.01-8.06.77-6.29-7.38-5.03-8.06-10.94s2.51-12.83,9.27-12.99c13.2-.33,4.38,20.65,16.27,23.67,1.22.31,15.61-1.27,17.06-1.72,2.13-.67,2.15-4.27,4.78-5.6,3.44-1.75,8.29-1.76,11.76-4.16l4.84,8.95c4.43,3.27,15.21-4.1,17.09-9.13,13.97,12.05,36.23-10.19,50.1,5.95v6.03c-3.25,5.98-39.57,21.17-48.44,25.64-6.85,3.45-20.65,14.19-26.16,15.84-10.47,3.14-24.15,4.36-34.61,7.39-12.93,3.74-76.42,20.54-82.41,25.04-5.82,4.38-15.09,24.81-21.46,31.08,4.29,2.11,10.23.64,15.02.99,2.98.22,5.79-1.55,4.95,2.97-10.57,15.93-32.45,16.78-41.97,32.04,6.18-1.54,25.84-1.3,13.41,5.41-17.45,9.42-42.23,8.07-60.01,11.99-5.46,1.2-11.02,9.17-12.37,9.14s-3.55-4.37-7.64-3.38c-2.92.7-4.85,5.67-7.41,6.81-6.66,2.95-12.71-1.58-17,9.01h-2.94c-5.02-16.2-18.35,2.02-25.45,3.6-5.45,1.21-11.37-.21-17.08.92-20.04,3.96-34.6,6.06-48.53,21.47-11.83,13.08-16.78,24.84-24.87,39.12-3.8,6.71-10.44,11.06-14.09,17.91l19.98-1c.59,4.41-3.39,6.78-6.84,8.14-6.83,2.71-42.87,11.04-50.41,11.61-25.12,1.91-16.38-9.27-21.74-27.76-7.14,3.97-12.65,25.87-17.07,28.93s-32.34,8.7-33.94.07c-1.26-6.78,0-46.24-2.02-49-17.78,12.4-42.87,37.64-65.08,23.98-4.28-8.46,17.79-26.48,22.57-32.95-5.35-9.16-2.17-23.06-1.32-33.72-17.85-10.51-39.47-29.58-4.66-34.82,23.16-3.48,42.76,15.2,59.51,15.25,7.89.02,24.11-11.26,33.81-11.51,3.28-2.35-1.16-46.74,5.05-55.37.72-1,10.1-7.65,11.69-8.31,4.32-1.8,45.55-12.47,49.51-12.63,3.74-.16,6.53-.34,8.91,3.09l-19.92,10c4.08,4.37,11.26,6.44,15.09,10.87,2.84,3.29,3.32,7.47,6.75,11.25,1.93,2.13,26.52,21.22,28.21,21.79,13.6,4.6,35.14-1.97,49.14-4.68,7.93-1.53,14.87,1.52,21.81-6.2l.96,5.95c12.77,1.98,8.23-16.93,2.95-23.99-3.34-.7-27.27,19.84-34.37,21.59-4.68,1.15-28.66,4.52-28.55-2.58l22.08-29.95c-8.09-2.32-2.76-9.85-2.5-16.04.22-5.05-5.41-9.85,2.44-12,.03-7.12-44.73-26.2-16.13-36.08s44.2,11.14,67.36,12.46c5.61.32,28.85-8.56,32.66-12.43,14.32-14.56-12.57-52.15,13.57-62.43,6.11-2.4,54.46-14.58,56.49-12.5Z"/>
  <path class="st0" d="M1264.31,1499.77l5.84,1.27c-.14,4.48-.62,9,.33,13.44,2.31,10.78,20.55,76.03,24.57,81.42,5.51,7.39,23.32,13.98,29.96,22.03,2.52-3.88-1.88-21.64,5.95-19.98,14.13,11.17,16.39,32.02,30.05,41.98l-.99-14.91,3.99-2.1c6.03,2.65,11.44,31.45,13.04,38.98,1.71,8.05,1.51,20.24,3.36,26.64s12.21,5.61,3.75,16.14c9.25,5.45,5.99,13.45,8.81,19.32,1.87,3.89,9.06,2.44,7.12,8.87-15.47,6.76,1.64,17.86,3.51,24.48,1.3,4.6-.2,10.08.91,15.09,3.43,15.46,7.16,38.47,18.52,49.48,12.69,12.31,29.1,19.78,43.73,28.27,4.9,2.84,10.9,11.51,16.28,13.73,2.69,1.11,3.18.02,2.65-2.63-1.19-5.96-2.67-10.97-1.67-17.34,3.59-.71,5.09,1.72,6.45,4.53,2.05,4.24,10.61,40.63,11.33,46.67.84,7.07-.13,14.36.29,21.46l-28.07,6.32,30.18,16.27,4.97,32.86-53.16,3.9c10.39,17.78,28.1,32.48,27.63,55.03-.63,30.62-32.87-12.01-36.93-12.76-2.73-.51-6.14,3.43-9.79,3.67-2.87.2-5.85-1.91-8.12-1.78-5.72.33-10.49,2.13-16.8.69-9.12,9.36-21.44,36.93-31.58,13.71-12.07-27.63,12.7-49.55,11.71-71.55-.07-1.58-9.38-28.58-10.29-29.88-4.05-5.83-25.09-2.57-32.93-3.07-15.15-.96-25.42-.86-32.01-15.99l-12.75-54.82c9.24-10.23,10.05,12.25,12.83,16.72,5.61-2.82,8.6-13.1,12.04-15.96,2.96-2.46,6.69-1.58,9.92-4.08,1.41-1.09,21.27-26.4,21.96-28.05,6.01-14.53-.2-32.24-2.66-47.15-1.63-9.88,2.32-18.6-8.23-25.78l7.96-.98-2.29-7.69-23.68,3.71c-1.16,1.52,18.98,26.49,21.01,31.96,1.57,4.22,6.2,32.09-.01,31.98l-30.01-23.95c-3.8,10.07-10.26,4.96-18,4.39-5.39-.39-8.35,5.27-11.99-4.39-7.01,7.18-21.59,39.76-32.79,22.77-16.65-25.26,14-57.98,8.82-80.8-9.46-41.66-33.72-23.99-65.61-25.95-1.09-.29-6.89-9.1-7.58-10.88-2.12-5.51-14.43-51.26-13.74-53.95,3.76-14.74,11.65,14.8,12.9,14.77,4.14-3.17,7.22-14.75,11.05-16.91s7.35.09,12.04-3.96c1.3-1.12,19.2-25.96,20.05-27.93,4.58-10.57-1.19-21.28-2.11-32.18-.72-8.41-.85-42.67-2.99-47.01-.45-.92-2.58-2.52-3.01-1.97l.96,14.02c-5.65-.82-7.89-7.15-9.18-11.83-6.68-4.53-7.56,14.97-21.69,4.68-15.33-11.17,13.43-14.69,15.88-15.86,8.37-4,3.51-12.59,2.47-18.58-.4-2.3,1.56-5.8,1.29-6.2-1.29-1.92-10.07-3.34-9.72-13.38.23-6.59,7.91-2.19,8.15-7.8.49-11.45-8.31-13.3-8.31-14.18,0-2.76,3.78-6.1,4.07-9.95.68-8.92-7.77-24-5.11-32.96,1.83-6.18,7.46-14.06,14.2-7.98,5.09,4.59,18.03,36.4,22.63,45.35,3.38,6.58,16.25,24.3,17.55,28.62,1.08,3.6-1.21,17.44,1.1,19.85Z"/>
  <path class="st0" d="M1758,1473.93c-3.13-6.65-13.04-9.44-11.99-17.97,18.15-3.49,35.72,12.94,51.98,7l-11.95-10.01c2.12-2.92,3.33-3.21,6.85-2.97,5.41.37,30.17,17.26,36.55,21.52,10.37,6.93,16.63,17.55,30.57,14.42l-.03,8.04c14.76-3.54,18.06,12.04,32.01,6-6.95,18.79,11.32,13.2,19.98,17.01,2.24.99,12.23,11.24,17.42,14.58,5.62,3.63,19.82,12.64,25.18,14.81,24,9.71,64.3-9.67,89.43-10.44l-13.98-13.01c-2.2-5.24,8.06-2.59,9.89-1.88,3.89,1.53,40.11,24.72,43.94,28.05,19.37,16.86,2.31,17.11-3.84,34.84l30.64-9.66,26.42,19.64c2.12,4.79-30.9,35.53-35.07,42.01,18.92,1.75,46.76,3.73,60.02,18.99,17.91,20.62-28.1,13.21-35.61,17.45-3.36,6.42-11.8,16.56-17.09,21.04-1.16.98-4.46.14-5.02.72-4.17,4.4,15.21,53.09-19.73,32.22-21.41-12.78-21.99-43.61-34.68-55.31-2.97-2.74-33.49-15.73-35.88-14.22-4.77,7.79-31.98,34.57-38.9,34.84-3.69.14-9.37-2.4-13.62-2.22-5.7-7.6-50.5-26.37-49.44-32.51,3.37-8.45,21.14,6.09,21.93,5.01,1.51-6.42-2.46-13.21-2.17-19.03.18-3.62,2.96-5.74,3.16-9.08.26-4.26-2.73-32.03-3.88-35.98-4.01-13.77-25.74-25.21-36.92-33.08-8.06-5.67-9.14-12.77-22.2-11.8l4.04-5.08-3.09-3.94c-6.47-2.53-18.64,18.47-16.9,19.97,23.33,1.67,47.03,5.75,59.94,27.02-.21,4.66-35.17,4.57-37.69,7.26-.68.72-.12,5.71-2.1,8.88-.45.72-11.48,11.51-12.2,11.97-3.07,1.99-5.25-.42-7.95-1.12-2.07,2.44,15.66,50.27-11.48,38.5-21.71-9.41-28.6-38.99-39.02-58.02-9.77-3.87-25.56-14.28-36.04-12.14-14.66,2.99-27.78,41.9-47.57,34.75-7.07-6.82-47.24-24.18-49.82-30.17-.39-.9-.84-4.93.93-4.93l18.97,8.01c1.25-10.58-10.52-21.83,2.18-27.29-4.44-11.12-2.16-34.51-8.03-43.83-2.49-3.95-17.93-12.59-23.07-16.93-5.97-5.05-28.61-28.04-32.42-29.58-1.31-.53-4.5-1.27-4.63.63,2.47,4.7,11.45,2.66,9.98,9l-15.07-1.56-2.73,2.83c6.21,15.47-19.7,20.38-18.28,5.84.47-4.89,13.74-12.24,7.67-22.7-.41-.71-12.75-8.92-13.52-9.2-2.1-.77-5.06.88-8-.06-16.9-5.41-5.35-12.78-8.29-16.88-1.99-2.78-14.01-4.98-17.76-2.23-.02-20.91-39.7-20.53-29.9-45.95,17.25,1.91,33.13,9.97,49.46,15.36,10.19,3.36,26.39,5.26,34.91,9.09,4.71,2.12,8.79,8.72,13.69,10.5,11.3,4.09,7.2,2.92,17.15,8.66,23.77,13.71,48.8,25.45,72.18,39.89l40.48-5.58Z"/>
  <path class="st0" d="M918.02,1415.95c5.69-4.9,9.43-12.96,17.97-13.99,3.78,18.96-12.31,36.51-7,53.98,4.89-4.23,4.27-13.82,13-11.98,4.52,4.57-20.14,40.57-24.33,46.65-2.81,4.07-8.52,7.91-10.15,11.84-1.78,4.27-1.04,12.41-1.79,13.25s-5.37.07-6.84,2.09c-1.7,2.33-.32,7.48-1.32,10.72-1.81,5.87-10.84,8.64-5.57,19.43-19.12-4.15-12.7,11.39-17.44,21.56-2.89,6.19-18.58,22.85-24.14,33.86-10.98,21.75-6.9,39.75-2.26,63.44.9,4.61,4.73,6.93,5.75,12.25,1.26,6.52.11,15.81,2.12,22.9,6.64-2.89,8.29-17.77,16-12.98.3,3.01-.28,5.74-1.54,8.46-3.11,6.69-19.93,32.88-24.82,39.18-17.47,22.5-17.7,11.02-37.64-.66l9.29,31.01c-4.57,6.1-14.4,30.2-23.27,26.05-11.44-8.07-21.51-22.01-32.02-30.07-2.01-1.54-2.54-3.88-6-2.98-1.78,13.22-2.24,29.37-7.24,41.76-3.49,8.65-13.71,23.21-24.6,20.03l-4.48-39.52c-6.32-1.19-16.41-11.44-20.58-16.49-1.24-1.5-.75-5.08-1.29-5.6-1.33-1.26-34.61,5.99-35.91.5-4.6-37.06,40.48-37.13,57.15-52.65,1.86-1.73,15.74-29.45,16.22-31.99.51-2.7.38-2.87-1.09-5.09-6.92-10.5-25.85-22.89-33.23-35.03-6-13.1,24.45-51.59,30.99-64.99l6.05-.93-7.98,21.98,21.14-4.15c3.73-.18,1.84,4.11,5.77,4.38,4.51.31,35.36-3.29,39.66-4.65,10.11-3.18,26.35-29.91,32.58-39.42,4.87-7.44,11.17-10.08,10.86-22.16l4.02,6,3.95-3.03c2-5.99-17.56-17.46-19.98-14.98-1.63,11.24-2.71,27.61-7.21,37.8-2,4.52-17.43,25.51-22.79,20.21l-4.02-38.03c-10.36,5.25-11.39-6.53-14.43-9.52-3.44-3.39-9.99.55-7.56-10.47l-31.18,3.91c-15.39-5.77.68-27.4,8.15-33.93,13.65-11.94,40.73-12.07,50.02-31.98,3.27-7,9.13-22.27,5.12-29.09-4.95-8.43-25.2-23.41-33.09-30.89-1.39-2.14-1.25-4.53-1.16-6.94.39-10.41,25.16-47.45,33.18-57.03,4.78-.96,3.22,3.88,2.52,6.52-1.36,5.14-4.96,9.02-7.55,13.44,7.78.55,15.28-3.16,23.12-2.15,3.7.48,2.64,3.74,4.25,4.13,5.84,1.4,41.52-4.61,46.07-8.54,3.69-3.19,11.67-18.6,16.62-24.36,9.11-10.6,22.7-19.06,27.96-32.05-1.91-8.69-5.15,11.01-10.01,6.98l1.74-15.06c-2.73-5.28-6.51-.38-10.35-1.24-9.12-2.04-11.14-20.19,1.14-19.42,7.81,1.18,10.54,14.16,21.47,8.76,3.27-1.62,4.87-7.76,7.15-10.94,1.04-1.45,4.26-1.81,4.59-2.42.49-.89-3.6-14.03,4.19-18.8l10.03,2.27c8.56-4.4,3.91-14.98,4.93-17.2.91-1.98,5.84-.28,8.93-2.94,7.69-6.62,12.5-26.07,23.59-28.58,5.78-1.31,13.14-1.76,12.22,6.1-1.52,13-11.75,34.3-16.19,47.95-2.69,8.28-5.05,26.52-7.9,32.1-3.57,7-15.14,21.2-19.29,28.71-13.47,24.42-25.71,49.98-39.88,74.21l5.62,40.5Z"/>
  <path class="st0" d="M2318,935.97c14.14-5.97,23.77-19.13,38.89-24.11,9.81-3.23,19.82-4.82,29.1.16-3.51,14.93-15.89,24.62-25.98,34.96l4.17,3.83c-1.86,9.76,3.3,19.85-2.13,28l25.02,21.12c-15.9,34.66-58.29-.73-80.01-.06-9.58.29-23.94,9.68-33.83,11.89-3.05,11.42,2.42,44.16-3.11,53.35-7.63,12.69-50.94,16.02-65.34,22.78l-2.82-.89-1.05-5.1c1.47-4.01,19.24-4.5,17.05-8.91-1.47-2.96-10.29-6.01-13.04-8.97-2.95-3.17-3.5-7.45-6.81-11.19-9.6-10.82-30.27-25.21-45.03-24.92-7.18.14-36.02,4.6-44.06,6.09-4.8.89-7.93,6.7-12.07,7.94-7.09,2.12,3.16-9.43-3.93-7.95-6.45,2.84-1.88,25.94,1.97,25.94,16.93-13.22,38.16-32.1,61-20.92l-22,29.98c9.97,3.7,2.66,14.01,2.68,17.98.03,4.76,8.42,7.44-2.68,11.99l25.56,19.4c4.4,17.67-20.14,19.16-32.63,17.65-13.14-1.59-32.75-14.54-45.87-14.14-4.79.15-26.08,9.11-29.66,11.98-6.72,5.4-2.6,42.52-2.45,52.37-1.76,3.97-4.41,7.38-8.49,9.21-4.72,2.12-54.37,15.18-57.2,14.36-14.47-4.2,14.7-11.36,14.68-12.84-3.21-5.26-14.97-7.84-17.06-13.04-1.25-3.11,1.7-6.42.91-7.64-1.04-1.6-29.13-21.12-31.12-21.99-12.45-5.41-19.76.57-31.71,1.65-8.52.78-42.58.81-47.01,2.99-.92.45-2.52,2.58-1.97,3.01l13.99-.99-13.98,12.03c-2.22,4.21,5.44,2.45,7.11,4.82,2.4,3.4.56,10.99-.94,14.88-21.7,11.01-7.68-20.2-23.52-22.19-3.08-.39-6.76,2.22-10.19,2.97-10.82,2.37-4.06,1.33-9.89,4.59-2.45,1.37-11.07,4.3-13.5,4.01l-2.91-7.24c-9.11-6.59-16.23,6.91-17.24,7.14-1.87.44-5.27-3.95-9.81-4.13-13.58-.54-30.72,14.74-43.01-3.1-1.36-7.69,48.88-29.06,57.93-33.73,5.82-3,13.11-9.91,18.58-11.6,5.13-1.58,10.29,1.05,16.43-1.4,4.62-1.84,4.75-5.7,6.35-6.08,3.56-.86,8.59.61,13.14-.43,26.23-5.99,53.7-17.65,80.24-23.75l21.21-28.8c.84-4.66-2.09-2.63-5.01-2.92-4.92-.49-10.84.65-14.97-3.04,10.61-15.9,32.44-16.77,41.98-32.02l-12.73.87-3.25-4.83c.85-3.62,32.23-10.82,37.92-12.1,8.56-1.92,19.11-1.54,26.65-3.35,5.15-1.23,8.7-7.06,10.7-7.38,2.38-.38,4.29,3.54,6.83,2.99,3.07-.67,5.51-5.01,8.01-6.06,4.03-1.68,9.2-1,12.51-3,1.91-1.16,2.68-5.69,4.38-6.13,4.05-1.06,5.28,10.62,18.83,2.84,14.48-8.32,9.15-4.37,24.64-7.34,19.43-3.73,38.01-7.78,51.45-22.55,16.15-17.75,24.59-39.99,40.05-57.95l-19.98,1c-.56-3.05,1.59-5.66,4.08-6.9,3.72-1.85,41.4-10.25,47.16-10.84,28.61-2.94,21.11,1.91,26.11,23.43.48,2.06-.22,4.9,2.62,4.31l16.47-30.54,28.29-5.3c2.37.79,5.26,11.15,5.26,12.86v41Z"/>
  <path class="st0" d="M2009.9,226.07c5.95,13.54,3.83,27.51,4.12,41.93,8.53-5.42,21.33,19.01,25.38,20.04,7.08,1.8,29.45-6.31,33.72-.19,7.75,36.15-44.93,39.05-59.19,55.06-5.58,6.26-8.8,23.59-15.1,30.98l34.13,38.11c2.11,4.93,1.46,11,.1,16.04-1.02,3.78-21.81,39.25-25.39,44.59-1.87,2.79-4.17,5.12-6.7,7.31-4.28,1.72-3.28-4.49-2.84-6.84,1.1-5.88,5.46-9.4,5.86-15.13-5.73-1.2-11.73,2.53-17.01,2.19-4.2-.27-6.35-3.48-9.53-3.65-3.15-.17-34.82,3.47-37.56,4.33-11.93,3.77-22.16,22.94-29.1,32.9-6.6,9.47-17.37,15.78-14.79,28.21l-4.01-6-5.84,5.28c-.79,4.24,14.86,12.78,18.81,14.74,2.88-.58,6.36-32.9,9.92-40.14,3.58-7.29,13.01-18.19,21.11-19.87l4.1,37.93c14.53-2.03,11.51,11.42,23.14,13.98l-1.21,8.07c13.57-.6,44.21-14.5,37.5,10.53-.61,2.29-10.32,15.54-12.43,17.55-9.76,9.32-35.49,14.29-44.97,23.03-4.18,3.85-14.56,30.26-13.27,34.97l36.28,35.93c1,1.98-1.14,11.5-2.09,14.03-2.54,6.8-18.66,34-23.35,40.63-1.8,2.54-4.02,5.85-6.98,7.02-12.12,4.83,5.56-17.54,3.3-19.68-6.89-.27-14.3,4.64-21.02,4.21-4.77-.3-2.95-6.15-7.74-6.16l-42.69,8.5c-11.36,23.06-33.92,37.3-46.51,58.46,6.55,4.1,4.24-10.97,11.96-9.02l-1.99,17.98c15.97-6.01,25.24,18.93,9.17,18.04-7.69-.43-9.27-9.86-20.08-8.04-9.04,1.52-14.2,23.95-17.28,31.89l-11.82-1c-5.5,3.35-3.32,16.25-4.09,17.04-.42.42-5.85-.37-9.07,1.91-8.14,5.79-12.27,32.66-31.59,30.03-2.36-.88-3-2.59-3.34-4.91-1.21-8.41,11.71-38.54,15.08-48.95,5.74-17.74,4.44-23.78,15.02-39.5,5.09-7.56,3.75-15.32,4.23-16.14.28-.48,4.91-1.86,7.48-5.63,4.78-7.01,40.73-72.29,41.43-76.59,1.61-10.02-7.72-26.75-5.16-38.12l-17.97,13.99c-3.54-19.58,7.84-35.38,7.97-53.99-6.4-1.28-6.9,12.51-13,11.94-2.33-.22-3.06-4.01-2.65-6.56.54-3.3,15.29-26.79,18.4-31.65,4.07-6.36,13.57-15.04,16.12-19.88,2.13-4.06,2.44-14.24,3.56-15.45.99-1.07,5.28-.35,6.69-2.25,1.75-2.36.3-7.51,1.31-10.74,1.57-4.99,9.25-9.49,5.6-19.41,17.09,6.32,13.27-14.51,16.98-22.05,1.21-2.45,4.97-2.94,6.32-4.64,5.81-7.35,22.79-34.43,24.2-42.78,4.57-27.01-12.93-56.14-11.52-82.52-3.44-3.91-10.74,13.4-13.01,13.99-4.29-.38-5.06-2.06-4.11-6.09.8-3.39,23.87-40.05,27.48-44.57,17.46-21.9,18.42-8.88,37.64,2.66l-9.89-33.02,17.87-26.12c2.36-1.97,3.33-.17,5.09,1.05,6.14,4.23,33.35,32.62,35.92,32.08,5.99-12.18,3.91-27.78,9.23-40.79,2.33-5.7,17.06-25.85,23.7-21.12Z"/>
  <path class="st0" d="M684.54,377.45c5.03,5.06,27.49,10.49,34.52,16.23,2.86-2.48,4.24-5.99,6.89-8.75,4.06-4.23,23.49-23.07,26.95-25.05,18.79-10.76,48.69,21.89,67.07,27.14l2.03,6.95c-9.23,2.42-13.51-6.51-21.98-5.98-.8.71,3.94,14.12,3.92,17.3-.04,4.85-3.89,6.84-4.05,11.58-.14,4.1,3.34,31.77,4.56,35.67.23.73,7.64,12.29,8.16,12.85,4.37,4.61,20.59,13,27.24,17.76,7.98,5.7,11.59,15.41,24.16,12.84,2.95,4.79-7.82,3.74-3.98,7.98,6.07,6.69,19.46-12.91,17.98-19.98-10.58-.68-29.15-1.93-38.56-6.45-3.8-1.82-23.17-17.13-19.44-21.54l38-4.04c-5.4-9.38,3.33-11.08,9-15.98,4.13-3.56,3.41-10.54,10.99-5.99,1.94-13.12-13.8-43.17,10.57-37.61,28.26,6.44,28.1,52.58,52.06,63.98,4.45,2.12,19.45,7.57,23.41,6.75,13.59-2.82,27.42-31.79,38.02-36.18,3.4-1.41,10.07,1.48,13.8,2.21l48.14,29.86-3.03,4.98-18.96-7.99c2.36,6.32,5.57,16.03,3.96,22.6-.37,1.51-3.55,1.23-3.92,2.75-1.36,5.56,4.36,41.12,7.91,45.68,2.98,3.83,15.9,10.68,20.99,15.01,6.76,5.74,30.69,30.24,36.1,31.91,1.03.32,3.26.55,2.95-.96l-9.98-11,17.98,1.97c-10.27-17.8,19.45-23.74,17.52-9.31-1.06,7.92-13.7,9.96-8.49,21.29,2.65,5.77,11.1,5.47,13.47,11.47,6.55.99,12.82-.02,17.65,5.53l1.47,2c-13.34,15.72,15.11,11.9,16.31,13.11.39.39-.4,5.77,1.92,9.06,6.55,9.31,34.14,13.81,28.15,34.86-17.97-.04-33.8-9.17-50.47-14.53-9.61-3.09-28.58-5.45-35.47-8.53-3.31-1.47-10.22-10.36-14.16-11.93-2.66-1.07-5.35,1.08-7.83.02s-5.72-6.52-9.39-8.7c-23.56-13.99-50.07-25.89-73.92-39.74l-36.74,5.42,11.98,17.98c-18.78,3.32-34.04-8.22-51.98-7.98l9.98,11.02c.54,2.54-1.92,4.92-4.65,4.69-3.73-.32-31.56-17.72-36.82-21.25-4.93-3.31-12.35-12.21-15.12-13.85-3.51-2.08-13.3-1.47-15-3.04-1.07-.99-.38-5.24-2.25-6.69-2.58-1.99-8.94-.16-12.76-1.28-4.27-1.26-8.4-9.06-17.4-5.59,3.05-17.45-13-13.16-21.95-17.05-5.67-2.47-23.3-18.76-34-24-34.28-16.8-61.6,4.66-96.03,5.05-.35,8.51,15.8,8.88,10.97,18.01-2.42.42-4.32-.68-6.41-1.59-6.12-2.67-41.74-25.18-46.46-29.54-17.3-16.01,0-19.24,5.87-34.87l-32.54,9.69c-6.01-4.83-28.61-14.79-24.51-23.66l33.03-35.04c.06-2.57-36.34-6.98-42.46-9.5-6.73-2.79-24.85-15.12-18.66-23.62,6.06-6.55,36.65-2.09,38.94-4.09.63-.55.66-6.76,3.24-9.76,2.43-2.83,6.75-2.76,8.47-4.52,2.97-3.02,1.57-10.55,10.31-9.68l-3.35-30.6c7.14-12.83,27.42,1.81,33.53,9.78,7.77,10.13,16.18,38.06,22.54,44.46Z"/>
  <path class="st0" d="M1351.49,8.53c4.1,3.92,6.88,18.51,6.54,24.4-.88,15.14-16.05,40.99-15.83,52.1.16,7.92,12.49,24.7,12,34.74,11.88.72,47.62-3.17,55.69,3.33,2.64,2.12,6.38,9.01,7.59,12.41,3.13,8.74,11.8,41.04,12.52,49.52.2,2.32.02,4.67-.02,6.97l-5.71-.3-7.28-17.67c-2.71.03-7.79,12.07-10.03,13.93-2.97,2.47-6.7,1.58-9.92,4.08-1.52,1.18-23.25,28.21-24.01,29.98-5.1,11.91,2.35,38.01,4.72,51.22,1.56,8.67-1.34,13.76,6.28,21.73l-6.02,1.03-.03,5.99,24.01-2.01c2.77-3.31-19.15-28.78-21.08-35.9-2.06-7.63-3.13-20.57-.9-28.07,3.08-2.19,27.25,18.02,31.03,21.97l2.66-.31c3.13-9.88,11.8-2.81,15.31-2.49,4.99.45,8.34-6.57,13.98,2.79,4.88-5.18,15.87-25.36,22.06-26.02,12.47-1.34,15.24,19.97,15.12,29.08-.17,12.71-14.86,34.22-15.61,48.29-.31,5.8,11.34,32.65,16.82,34.3l52.19.84c1.23,3.38,4.73,5.96,5.89,9.09,3.03,8.17,12.84,46.03,12.61,53.41-.05,1.77.89,6.91-3.05,5.03-4.26-2.04-5.15-11.39-6.83-15.19-1.06-2.38.92-3.6-4.16-2.78-1.12,3.52-7.9,15.81-10.07,17.08-2.2,1.28-5.01-.96-6.71-.55-2.81.67-26.27,32.86-26.88,36.86-.85,5.63,4.92,25.49,5.6,33.62.86,10.39-.94,21.71.02,32,.43,4.57,1.03,10.6,6.01,8.96l-2.99-11.99c7.86-.75,8.84,8.3,13.99,11.97,6.57-17.71,30.12-2.87,18.18,6.23-5.09,3.88-19.68-1.21-21.23,10.92-.16,1.26,1.67,16.07,2.08,17.4.84,2.72,7.51,2.38,8.05,12.57.44,8.32-4.45,3.42-7.24,6.78-3.49,4.2,3.72,16.19,9.18,17.16l-.24,2.81c-2.79.08-3.59.21-3.96,3.03-1.24,9.42,12.03,46.41-5.13,46.87-7.53.2-19.93-34.75-23.59-41.82-10.69-20.65-15.78-26.07-22.74-49.26-10.04-33.44-19.26-67.13-29.48-100.51l-31.88-24.12c-2.14,5.05-.59,11.55-.99,17.02-.22,2.97,1.55,5.79-2.97,4.95-14.65-11.06-16.15-31.97-30.06-41.95l-.98,15.96c-3.27.59-5.41-1.59-6.86-4.12-3.72-6.48-9.13-32.8-10.57-41.43-1.06-6.3.59-13.83-.95-19.05-1.09-3.68-6.61-5.62-7.31-8.78s2.1-6.19,1.41-9.23c-.57-2.51-4.89-4.87-6.19-7.9-2.67-6.2.24-14.59-9.49-15.53v-2.95c16.89-8.49-1.78-20.25-3.61-26.42-1.58-5.34.22-12.77-.91-19.09-6.71-37.3-13.58-43.65-43.72-64.28-7.27-4.98-13.18-5.69-18.84-9.16-4.46-2.73-10.07-11.34-15.94-14.06l1,19.98c-3.27.22-4.62.68-6.92-2.06-1.76-2.1-12.3-47.73-12.85-53.14-.63-6.15-.9-12.86,2.22-18.37l25.55-5.41-29.07-14.93-4.93-34.08,54.01-2.01c-9.55-17.28-27.73-31.62-28.15-52.99-.72-36.96,29.39,7.41,35.38,8.54l34.88-.61,17.9-21.97c3.01-1.87,9.01-.78,11.48,1.59Z"/>
  <path class="st0" d="M1209.99,105.99l-10.71-1.86-3.38,4.93c-1.71,10.88,11.28,12.69,14.67,19.49s-2.14,6.15-3.63,9.51c-4.18,9.44,18.79,22.7,15.06,25.92-4.52,3.23-25.15-14.11-21.98-1.01,1.02,4.2,8.66,14.54,10.85,19.16,1.46,3.08.89,6.67,2.28,9.72,2.6,5.71,9.13,9.66,8.81,16.94-.2,4.59-4.24,8.48-3.56,13.72,1.54,11.94,17.13,21.81,9.59,35.46-8.13.83-11.93-10.29-19.89-2.92-4.36,4.04-4.52,19.07-9.05,16.92-5.52-2.62-3.82-12.22-6.07-15.94-1.29-2.13-6.03-2.67-6.86-5.27-1.63-5.13,5.86-8.63,5.87-9.77s-6.76-5.19-7.66-8.45c-1.34-4.85,1.94-8.99,1.41-11.44-.26-1.22-12.03-13.54-13.13-20.41-.41-2.54,2.07-5.05.52-8.63-1.24-2.86-8.34-6.61-8.9-11.4l5.72-5.58c-3.88-13.92-27.84-29.42-8.12-40.05-4.32-4.8-3.04-11.33-5.32-16.52-1.67-3.81-7.77-7.4-8.2-9.81-.53-2.97,3.46-5.4,2.82-8.86-2.58-14.07-9.54-9.98-15.78-13.68-5.04-2.99-6.33-48.75-9.08-57.28,5.86-11.19,1.24-7.81-2.35-13.78-2.97-4.93-2.63-10.87,3.53-12.7,10.92-3.24,59.19,4.15,66.65,12.54,11.81,13.27-2.68,21.87-5.25,31.03-.47,1.66,2.87,21.77,3.69,24.53,1.71,5.75,20.37,32.23,17.49,35.49Z"/>
  <path class="st0" d="M2045.99,1453.96c13.08-4.1,13.55,6.31,18.05,8.95,4.14,2.43,17.6,3.38,22.55,5.45,3.63,1.51,3.63,6.26,6.7,7.29,4.25,1.43,11.01-1.15,14.79,1.22l-.11,9.05c2.7,3.93,48.81,3.29,32.02,22,7.21-.97,11.51,6.09,17.41,7.61,3.84.99,9.87-.63,12.69,1.31,3.04,2.09,1.39,11.8,15,11.23,6.01-.25,8.01-6.36,14.86-3.15,1.78.84,26.31,18.65,29.09,20.98,1.4,1.18,12.62,12.11,13.12,12.88,1.87,2.93,2.06,5.83,1.86,9.16,12.2-5.75,22.2.08,13.64,12.65-6.3,9.25-42.11,34.48-53.01,34.69-19.12.36-14.76-22.05-20.67-28.34-.8-.85-17.95-11.11-19.97-12.02-9.25-4.17-23.87-6.98-34.02-9.01l.05-5.88,7.84-3.32c-.35-17.58-16.76-7.26-25.97-9.64-6.72-1.74-2.63-5.09-4.26-9.73-2.81-8.01-20.78-4.84-27.65-5.41-.76-10.36,22.6-5.49,16.06-17.05-11.24,0-19.98-6.53-29.65-10.35-6.73-2.66-14.5-.65-20.16-7.84-2.41-3.07-3.02-9.46-6.34-11.66-9.62-6.36-32.91-2.48-29.93-21.07,27.02,3,5.28-23.37,8.02-26,10.82-.77,14.28,8.78,26.05,4.84l1.93,11.16Z"/>
  <path class="st0" d="M550.49,461.5c.83.88,18.49,11.75,20.36,12.62,5.58,2.6,33.87,8.58,35.14,9.89,4.18,4.31-9.65,5.65-9.89,8.95,5.14,13.94,16.65,6.93,27.91,10.02,5.18,2.47,2.09,7.23,3.14,9.05,6.19,10.63,25.62,2.71,26.84,3.96,2.58,11.71-18.27,5.57-16,17.98,10.91-.86,21.99,7.53,31.92,11.1,4.21,1.51,8.98.47,13.59,2.41,8.01,3.36,6.21,12.57,10.55,15.45,10.01,6.64,33.24,4.47,31.92,21-20.34,2.63-17.15,10.94-7.96,25.01-5.1,7.6-12.78-3.67-17.3-4.4-3.03-.48-7.16,2.29-10.7,1.44l-.03-12.01c-7.77,2.91-18.78-.22-18-10.01-4.57,2.62-20.82-1.5-24.63-3.85-1.79-1.11-1.89-4.91-4.63-5.79-4.43-1.44-11.65.27-16.73-2.36l1.99-7.9c-13.23-7.52-43.01-1.47-33.97-24.06-7.15,1.08-11.68-6.28-17.42-7.61-3.73-.87-10.43.47-12.31-.7-1.23-.76-.52-6.43-5.73-9.25-11.2-6.05-16.02,4.52-24.52.51-2.15-1.01-24.68-17.52-27.87-20.14-5.42-4.44-16.05-13.98-16.19-20.85-15.3,5.09-21.57-5.02-10.05-17.06,6.44-6.73,37.28-29.1,45.57-30.5,25.38-4.29,18.77,20.48,25,27.09Z"/>
  <path class="st0" d="M1904.02,261.98l-3.25-8.14c-18.31-2.26-6.42,24.79-12.73,29.19-3.81,2.65-9.61-.33-12.94,9.07-2.48,7.01,3.33,17.44-2.14,19.86-6,2.66-5.01-24.25-13.96-15.97-1.68,10.6-8.54,20.55-12.1,29.9-2.85,7.49.99,13.29-7.89,20.11-2.63,2.02-7.18,2.32-9.19,4.81-4.5,5.6-9.35,39.68-22,30.32l-5.11-12.95c-5.43-4.04-20.93,11.61-22.74,2.75-.73-3.55,6.26-9.33,7.16-12.88.89-3.49-2.2-7.46-.33-10.17l11.18-1.92c-3-8.75-.19-15.75,9.2-17.9-1.46-7.51,1.36-14.49,4.34-21.53,1.33-3.14,4.86-4.77,5.98-8.02,1.47-4.26-.39-12.66,4.52-15.6,1.95-1.17,5.25,1.44,6.94-.79,6.85-9.06,1.47-44.15,22.99-30.14-1.54-8.36,5.23-12.63,7.58-19.44.95-2.74-.19-6.69.72-9.29,1.13-3.24,10.32-1.94,11.37-14.79.42-5.18-3.32-7.56-3.64-11.62-.67-8.32,27.4-37.94,32.85-47.01l9.16-1.86c-3.19-8.24.31-21.64,10.67-15.72,11.27,6.44,38.35,43.74,37.44,56.7-1.17,16.76-15.12,12.33-24.7,17.45-3.3,1.76-12.54,15.51-14.45,19.55-3.82,8.12-6.99,29.47-10.07,33.92-1.44,2.09-2.32,2.55-4.88,2.09Z"/>
  <path class="st0" d="M595.62,1205.53c-7.26,4.39-9.57-5.48-10.62-5.54-4.68,11.51-20.82,5.08-22.7,6.2-.74.44-1.03,4.66-4.37,6.68-6.73,4.08-18.34,4.52-21.87,6.06-4.03,1.76-8.39,11.25-16.06,9.03l-.98-5.98c-12.1,1.76-34.05,29.5-40.06,7.94-4.97,3.39-12.49,3.03-16.89,5.12-3.07,1.46-5.84,7.23-9.91,8.06-3.32.67-5.34-3.46-10.19-2.32-14.39,3.38-9.19,16.5-19.43,18.74-9.89,2.17-40.46,6.55-49.67,6.2-3.91-.15-6.86-3.83-9.78-3.88-1.02-.02-6.72,14.9-16.14,6.15-.73-3.01-2.34-6.68-2.54-9.63-.67-9.56,4.83-43.39,8.58-52.39,4-9.61,12.9-14.15,23.08-11.09,4.24,1.27,8.49,6.82,12.03,8.07,2.65.94,22.08-2.68,26-3.88,6.88-2.11,27.77-17.49,32.88-17.12l-.14,12.1c14.75,10.75,20.15-17.54,30.65-12.73,3.81,1.75,1.25,7.89,12.95,2.08,7.13-3.54,7.7-10.26,14.56-13.38,8.05,7.29-12.9,19.1-.03,21.98,7.51-3.14,15.4-8.14,22.55-11.51,2.12-1,5.64-.28,8.4-1.6,3.19-1.52,5.27-6.55,9.98-8.06,9.59-3.06,12.81,3.75,18.95,3.15,6.11-.6,34.65-21.53,37.05-6.79.63,3.89-9.12,6.29-4.96,14.77l17.04,9.03c1.35,5.96-11.94,6.37-15.17,8.87-1.81,1.4-2.27,5.12-3.2,5.68Z"/>
  <path class="st0" d="M2287.85,854.16c-13.7-8.84-17.67,11.72-25.27,13.61-4.17,1.04-8.35-6.11-17.16-3.41-7.55,2.31-10.13,17.14-17.44,12.59l6.02-16.09c-3.34-10.23-6.36-1.75-10.13-.03-7.29,3.33-16.18,5.55-23.29,8.71-7.43,3.31-7.33,9.63-19.34,8.35-3.96-.42-8.8-3.97-11.91-3.45-3.76.63-17.26,10.05-20.74,11.11s-13.5,1.41-14.58-2.63c-1.4-5.25,4.97-7.27,5.79-10.34,2.74-10.27-19.76-12.45-19.76-15.61,3.72-6.29,12.36-5.11,17.11-8.92,4.12-3.3,4.02-13.47,11.88-.03,4.33-.06,9.17-7.81,13.96-7.97,3.41-.11,8.23,4.48,8.97,3.92.27-.21.4-4.31,2.85-6.14,5.85-4.37,17.64-6.21,23.74-8.31,4.89-1.69,8.17-9.4,16.19-7.63,1.42.51,1.26,3.37,1.69,3.59,7.15,3.7,34.31-30.52,40.57-5.55,4.22-5.47,11.47-4.51,16.88-7.09,2.82-1.35,4.51-5.79,7.56-6.62,3.85-1.04,7.45,2.03,12.55.91,12.8-2.82,8.34-14.6,15.43-16.75,12,.61,24.62-5.04,35.81-6.17,2.52-.26,18.15-.51,19.68-.24,3.15.56,5.75,3.94,6.11,3.93,1.23-.04,13.91-20.1,18.58-4.51,3.64,12.19-3.8,60.73-14.54,68.62-13.3,9.77-21.25-4.9-30.2-6.05-4.7-.6-21.55,3.34-26.63,5.24s-27.56,16.83-29.24,16.72c-5.56-.35.59-11.36-1.14-13.76Z"/>
  <path class="st0" d="M937.99,1701.94c4.89,15.3-8.28,16.06-9.73,18.26-.67,1.02-3.14,18.73-5.34,23.67-1.21,2.71-5.56,4.1-6.53,7.47-1.21,4.17,1.14,11.04-2.37,13.76-1.75,1.36-5.15-2.24-7.82,1.92-6.93,10.81-.71,40.31-22.12,30.94.02,5.95-6.32,10.98-7.61,15.47-1.14,3.98.51,9.29-1.42,12.57-1.68,2.84-7.53,2.78-8.64,4.38-.37.54-3.76,11.91-3.73,12.57.17,3.53,7.72,5.46,3.84,14.44l-32.62,41.47-9.93,3.12c-.49.49,4.87,7.26.19,13.15-2.96,3.29-6.2,3.67-10.14,1.84-9.01-4.19-36.95-44.54-37.46-54.32-1.06-20.41,21.13-15.1,27.55-21.56,1.1-1.1,11.71-17.3,12.68-19.32,3.25-6.84,7.49-32.37,11.19-34.83,4.19-.85,5.6,8.36,8.97,8.64,1.41.12,7.22-3.94,8.04-5.6,3.55-7.17-1.94-14.08-.21-20.03,2.34-8.05,6.63-3.94,9.28-5.16,7.93-3.65,5.77-19.59,5.94-26.81,7.56-1.81,8.86,15.2,10.02,15.98,7.81,5.27,10.81-17.67,12.51-22.45,1.05-2.95,3.98-4.24,5-7,1.56-4.21.29-9.58,2.91-15.09,3.77-7.9,12.24-7.81,15.66-12.34,5.13-6.79,5.64-24.47,12.76-29.24,12.12-8.11,5.39,10.71,15.07,13.28,6.87,1.82,18.66-10.91,20.07-4.11-.95,8.91-8.38,13.41-4.88,23.02l-11.13,1.94Z"/>
  <path class="st0" d="M2373.99,721.99l-1.97,9.99,17.97-7.99c1.16,12.22-2.94,33.68-17.11,35.87-5.59.86-12.28-1.02-17.48.52-4.02,1.19-7.01,8.37-12.81,9.23-4.8.71-12.75-3.39-18.58-1.62,3.85,10.33-1.23,14.93-11.83,13.82l-2.42-7.6c-11.21-4.84-14.73,8.15-19.16,9.49-5.41,1.62-11.1-2.55-16.59-1.73l-.02,9.99c-9.15-1.51-19.6-3.34-28.87-1.87-7.78,1.23-16.57,8.98-24.69,11.31-20.61,5.93-46.9,3.56-64.97,8.97-3.08.92-4.35,5.03-8.56,5.68-6.4.99-10.31-4.21-13.78-4.22-.81,0-2.33,4.66-5.63,6.61-5.34,3.17-13.38,3.86-19.5,3.52-3.39-3.42,8.72-12.13,11.33-13.67,7.48-4.4,15.92-4.81,20.65-7.43,1.58-.87,1.72-4.45,4.46-5.59,8.47-3.52,14.33,1.16,20.56-11.27,4.12,5.88,10.64,7.76,17.6,5.56,2.59-.82,3.96-4.12,6.84-5.15,23.75-8.48,47.12-16.55,69.73-22.32,6.03-1.54,11.87-5.16,12.6-5.25,3.44-.41,5.65,2.98,8.89,2.72,1.23-.1,20.86-5.64,23.46-6.46,4.94-1.56,17.13-11.66,23.33-12.85,4.73-.91,9.35,2.73,13.2,1.54,4.5-1.38,7.53-18.72,17.33-15.83l1,6,15-9.98Z"/>
  <path class="st0" d="M989.99,1691.95c0,4.24.31,8.53-.2,12.78-1.08,8.99-7.66,23.73-10.92,33.15-2.59,7.48-10.91,5.36-4.86,20.05-5.99-1.54-14.66,2.5-16.97,8.05-1.53,3.67-.35,7.93-1.49,10.51-9.96,22.46-23.13,43.41-32.66,63.25-2.14,4.45-4.81,13.21-5.21,13.87-.66,1.07-5.6,1.31-7.66,3.32-.79.76-10.15,16.8-11.14,18.89-3.96,8.34-3.49,18.36-9.17,26.82-2.8,4.16-11.22,9.06-11.56,10.5-.89,3.78,13.56,23.41-5.22,22.62l-3.93,14.17-4.97-7.98-3.85,14.8c-3.53,5.71-16.43-11.95-17.28-14.7-1.31-4.24-1.68-12.79-.84-17.07,1.32-6.77,10.86-10.39,12.9-15.08,2.21-5.08,0-10.28,4.08-15.92,2.08-2.87,12.96-8.87,12.94-11.03-.01-1.12-13.18-10.81-.79-18.67l7.85,1.75c10.31-1.54,3.85-16.93,5.82-20.1,1.78-2.85,11.47-3.8,13.13-11l-5.97-6.94c5.05-2.32,15.52-9.85,18.92-14.11,6.36-7.98,7.92-23.86,15.02-34.97,10.73-16.79,27.52-30.27,35.61-46.31,1.27-2.53.71-6.42,2.62-9.45,2.64-4.18,9.3-4.48,10.86-7.14,3.07-5.27,1.59-22.83,14.95-24.03Z"/>
  <path class="st0" d="M627.99,1227.97c1.3,4.68-1.22,3.38-2.55,4.56-11.09,9.87-25.09,15.94-38.39,21.66-6.77,2.91-10.92-1.82-16.09,9.78-3.25.79-6.58-8.97-17.53-5.61-2.99.92-4.98,4.96-7.94,6.09-16.75,6.4-40.38,15.32-56.7,19.31-5.51,1.35-15.15.85-19.33,2.2-2.42.78-2.11,5-4.71,5.85-3.75,1.23-7.95-2.18-11.67-1.83-1.38.13-15.98,4-19.23,4.83-8.2,2.1-15.69,11.86-27.04,13.14-4.42.5-10.36-2.38-12.82-1.12-3.36,1.71-6.94,14.86-13.05,17.1-4.52,1.01-4.26-6.39-5.92-5.95-2.7.71-11.21,10.09-13.01,7.97l-.03-7.99c-5.07,3.47-9.23,7.11-15.97,6-.61-11.79-1.14-22.2,8.2-30.8,9.89-9.12,16.95-2.8,26.39-5.61,3.91-1.17,5.21-6.81,10.51-7.64,11.04-1.74,18.41,10.25,20.05-10.19l11.78-1.89c3.39,15.22,16.24,4.38,22.42-3.61l16.64,1.72-1.99-7.97c8.98-1.81,18.31,3.06,26.82,1.92,8.07-1.08,20.38-10.72,30.76-13.34,16.04-4.04,32.85-2.48,47.24-4.59,4.94-.73,17.3-7.19,22.34-7.99,5.67-.9,11.62,2.93,15.45,2.12,1.5-.32,2.05-4.55,6.12-6.36,5.79-2.57,13.08-1.69,19.25-1.76Z"/>
  <path class="st0" d="M2161.57,1454.43c7.64,4.45,17.48,14.57,24.88,19.03,2.35,1.41,6.62-.26,9.58,1.43,2.88,1.64,2.79,7.53,4.39,8.64s6.18.42,9.03,1.92c4.64,2.43,7.43,7.92,12.44,9.6,6.9,2.32,19.4,3.41,26.05,7.95,4.36,2.97,4,9.82,7.27,10.86,5.15,1.64,23.02-13.84,22.6,5.16l14.14,3.92-5.95,4.97,15.95,7.03c-10.09,11.42-16.28,17.6-32.85,14.86-10.23-1.69-9.74-10.49-15.13-12.86-4.47-1.96-9.4-.08-13.96-2.04-4.25-1.83-10.96-15.39-15.05-14.93-1.59.18-2.1,10.28-12.96,4.95-8.07-3.96,2.26-11.43-7.31-16.75-6.92-3.85-10.7.96-14.68-1.09-3.25-1.68-6.57-10.89-11.02-13.1l-5.97,5.94c-5.97-5.87-11.96-16.58-19.18-20.83-7.72-4.54-20.03-5.9-28.9-11.1-13.4-7.86-24.58-20.65-35.9-30.19-2.12-1.78-18.51-7.32-22.16-9.75-4.5-3.01-4.73-9.79-6.82-11.18-4.68-3.1-23.71-1.16-26.07-14.91,9.89-.98,19.3,1.23,28.55,4.43,7.02,2.42,9.84,3.62,18.05,5.95,3.67,1.04,5.57,6.57,8.78,7.31s6.73-2.25,9.4-1.6c3.21.78,3.41,13.09,11.31,16.8,10.65,5.01,24.36,9.2,35.7,14.3,5.21,2.34,15.01,4.81,15.78,5.27Z"/>
  <path class="st0" d="M1780.45,302.42c-1.19,2.17.05,5.69-.77,8.17-1.09,3.28-5.31,3.25-6.64,5.42-1.71,2.78-.55,7.04-2.02,9.98-1.94,3.88-8.61,3.83-11.27,6.86-1.5,1.71.16,6.53-1.2,10.5-2,5.85-7.25,10.42-11.55,14.59l-.48-18.44c4.08-9.82,6.43-18.78,9.6-28.31,2.3-6.91,10.78-7.94,5.87-21.21,16.74,2.14,12.99-7.76,16.95-16.07,8.43-17.72,17.29-37.4,26.22-53.69,2.5-4.57,10.53-13.36,11.84-16.27,1.51-3.36.28-7.92,1.34-9.63.78-1.26,6.39-1.06,8.6-4.4,1.58-2.38,9.92-17.79,11.18-20.82,5.08-12.22,3.24-24.92,17.69-32.46l-1.79-22.64,7.97,1.99,2.03-16,7.97,6.01c-.33-3.61,1.57-17.18,6.99-15.99.9.2,11.16,12.75,11.88,14.14,11.96,23.35-7.06,24.99-11.82,35.87-2.01,4.59.01,9.76-1.99,14.01-1.54,3.25-12.22,7.12-12.9,11.24-.67,4.03,7.52,4.82,5.07,12.76-3.47,11.25-11.51.98-16.22,5.9-5.11,4.9-1.12,16.03-3.9,20.15-1.54,2.28-9.55,2.52-11.01,7.12l5.89,7.8c-.04,1.35-17.86,12.73-20.89,17.08-4.86,6.98-6.24,19.93-11.03,28.97-6.86,12.94-28.15,31.09-31.6,37.39Z"/>
  <path class="st0" d="M1598.26,1815.67l7.73,2.3c-1.37,8.32-6.46,13.26-3.58,22.58.79,2.57,4.09,3.96,5.15,6.83,3.71,10.03,6.6,24.82,10.58,35.03.85,2.18,4.3,1.87,5.1,5.39,1.02,4.47-1.25,6.45-1.24,8.98,0,1.35,4.13.91,5.1,5.02,4.4,18.52,5.94,41.1,11.32,58.71,1.22,3.99,13.03,20.1,13.64,24.52.62,4.45-2.47,9.09-2.24,13.62,7.75,4.6,17.06,5.93,16.18,17.28l-6,1,9.98,12.02-7.98,1,5.98,15.98c-11.43,1.18-27.62.41-34.1-10.88-4.09-7.12-.3-15.46-2.78-23.22-1.49-4.67-8-8.19-8.56-13.11-.48-4.21,3.03-11.53,1.45-16.77-6.42.83-12.72-.1-13.73-7.47-1.15-8.43,13.04-5.23,5.46-19.28-4.58-8.49-10.92-7.05-5.85-22.01l-9.84-4.28c9.36-23.14-6.97-38.18-11.15-58.84-3.17-15.66-1.52-31.33-2.79-44.84-.13-1.42-3.8-1.28-4.79-3.77-1.34-3.37.65-6.7-.21-9.55-.94-3.12-4.78-5.41-5.13-9.07-.47-4.82,4.32-8.71,3.76-11.59-.63-3.26-8.88-7.56-9.68-20.33-.15-2.37-1.42-8.73,2.94-6.94,6.78,5.79,12.04,14.01,16.07,21.94,1.3,2.56.52,6.81,2.03,9.97,2.81,5.89,10.22,7.72,7.19,19.8Z"/>
  <path class="st0" d="M1118.61,82.62c-7.29,8.6,8.13,16.42,8.92,20.61.61,3.22-3.07,10.33-1.55,14.78l8.03-.02c1.29,9.12-3.25,17.77-1.91,26.87,1.24,8.41,10.58,19.48,13.3,30.74,3.7,15.33,2.71,31.17,4.69,45.29.76,5.41,7.1,18.94,7.91,24.27s-2.49,9.93-1.68,13.44c1.06,4.66,12.94,13.89,7.67,25.39-4.23,4.78-17.24-20.25-18.49-22.68-1.34-2.61-6.87-14-7.73-16.25-3.04-7.91,2.89-11.34-9.76-18.08l.11-2.86c14.61-6.11.58-17.31-1.65-23.58-3.35-9.41-6.12-18.5-9.95-28.12-6.25-15.7-5.84-29.79-10.98-44.94-1.02-3.01-4.69-4.56-5.26-6.85-1.29-5.24.07-19.29-3.16-28.74-4.65-13.58-18.04-24.32-11.27-40.62-.91-3.07-14.84-5.09-17.83-14.28-1.71-5.28,5.9-1.46,6-3.99l-7.99-12.02,7.97-.98-6-17.97c10.56-.08,22.28,1.16,30.06,8.93,10.29,10.28,3.33,17.52,6.34,27.66,1.16,3.9,6.8,5.21,7.64,10.51s-2.47,10.27-1.91,15.64l3.1,2.83,6.74-.66c8.99,8.74,3.14,10.39-1.36,15.7Z"/>
  <path class="st0" d="M499.51,516.48c2.46,2.37,2.16,9.1,7.82,11.23,6.97,2.63,3.96-9.55,14.63-4.71,9.24,4.19.96,12.58,6.86,17.17,13.85,2.58,18.3.71,26.2,13.79l5.97-5.94c6.78,5.81,11.53,16.03,19.09,20.87,8.07,5.17,20,6.86,29.75,12.25,18.12,10.04,33.09,28.46,50.29,37.7,3.2,1.72,8.43,1.43,10.62,2.94,2.46,1.7,1.87,9.46,5.14,11.28,1.29.72,5.49-1.61,9.97-.09,2.62.89,16.77,11.05,14.15,12.99-8.47.22-18.09.4-26.01-2.97-4.01-1.71-6.67-5.79-9.4-6.6-4.04-1.18-8.45.43-12.57-1.42-5.79-2.61-5.35-9.16-17.98-5.02,1.04-14.95-9.89-13.2-17.98-17.04-2.42-1.15-3.71-4.73-6.13-5.87-8.75-4.15-26.15-8.02-33.95-12.08-2.28-1.19-13.73-10.67-17.54-12.97-4.35-2.63-18.48-7.55-20.57-8.95s-1.02-5.57-3.17-7.24c-.87-.68-16.71-9.59-18.85-10.68-6.76-3.44-20.97-4.79-27.81-8.18-4.7-2.33-5.21-9.96-6.28-10.74-3.24-2.35-25.82,8.49-25.76-4.21l3.98-1.99-15.99-2.04,6-7.96-16-5.05c5.81-13.65,26.87-22.66,39.06-13.03,3.38,2.67,3.99,8.23,9.43,10.57,4.98,2.13,13.73.83,17.02,3.99Z"/>
  <path class="st0" d="M2072.71,1725.23c5.42,5.3,12.63,8.35,19.24,11.85,2.68,1.42,5.12-.61,4.04,4.85-20.87,2.25-31.55-3.1-45.04-17.93-8.44-9.28-15.03-19.75-27.09-26.9-4.05-2.4-27.35-8.7-25.77-15.96,10.69-11.31,16.52-13.8,31.32-7.59,3.66,1.54,16.02,8.42,19.35,10.65,12.51,8.34,11.43,28.79,23.96,41.04Z"/>
  <path class="st0" d="M653.97,1751.93c-2.92,2.87-3.6-.19-3.97-2.95-1.95-14.68,3.21-28.18,13.95-38.09,10.62-9.8,22.1-15.59,30.96-29.03,4.53-6.87,5.57-21.48,14.08-27.88,14.65,11.84,15.74,19.06,7.86,35.82-.89,1.89-7.35,12.95-8.8,15.2-7.36,11.47-18.43,10.83-28.55,15.45-11.78,5.38-22.17,19.13-25.55,31.48Z"/>
  <path class="st0" d="M2083,296.03l.97,18.93c1.72,18.94-24.87,27.32-30.87,35.13-3.23,4.19-10.14,13.19-12.86,17.13-2.63,3.81-8.75,28.1-15.1,26.68-2.64-.59-12.84-13.56-12.99-16.86-.11-2.59,4.02-13.35,5.44-16.47,3.02-6.66,13.44-22.91,19.68-26.32,7.99-4.37,16.65-3.63,25.73-10.27,10.1-7.39,13.75-17.85,20.01-27.95Z"/>
  <path class="st0" d="M1375.98,2045.93c-17.99-12.61-21.66-25.39-19.82-46.83,1.07-12.48,2.98-23.94-.63-37.69-1.05-3.98-14.39-24.41-4.27-27.3,2.23-.64,16.61,2.85,18.71,4.86.75.71,6.55,11.33,7.11,12.89,2.91,8.12,6.18,26.39,4.47,34.63-1.15,5.53-6.83,11.81-8.57,17.41-4.65,15.03.31,27.41,3,42.04Z"/>
  <path class="st0" d="M642.97,306.05c11.43,3.72,18.03-.19,28.9,7.07,10.32,6.9,14.41,18.72,21.07,24.93,1.25,1.16,18.14,14.2,19.21,14.79,5.36,2.95,17.7,4.34,22,10.01,5.57,7.33-9.63,17.04-15.14,17.01-5.74-.03-29.76-12.8-34.93-16.95-9.26-7.44-9.1-20.64-15.26-30.73-6.67-10.92-16.93-16.27-27.84-22.18l2-3.95Z"/>
  <path class="st0" d="M453.55,1027.52c-2.48,2.46-32.27,12.37-36.55,12.59-13.4.69-24.89-10.79-37.98-12.14s-21.3,2.51-33,5.99c-2.59-2.46,17.83-18.76,21.41-19.57,6.76-1.53,18.14-.48,25.66-.51,10.02-.04,23.75,1.36,33.77.11,4.68-.58,25.46-15.12,30.25-8.07l-3.55,21.6Z"/>
  <path class="st0" d="M2387.99,1015.98c-1.06,4.4-10.7,12.78-14.08,14.9-8.8,5.52-18.75,5.85-28.9,5.06-14.77-1.15-23.63-2.75-39.58.47-7.91,1.6-17,10.68-27.45,7.57-2.26-24.44,9.2-26.06,28.41-30.6,29.16-6.89,18.79-.59,39.52,5.66,14.55,4.39,27.94.22,42.06-3.05Z"/>
  <path class="st0" d="M1388,113.99c-19.53,2.34-25.78-4-31.5-21.49-.99-3.02-4.47-18.4-4.37-21.16.49-13.36,10.99-22.07,11.95-36.25.79-11.7-2.18-20.43-6.07-31.07,21.26,9.48,20.02,25.22,20.08,45.07.03,11.44-.74,22.55,0,33.81.49,7.54,12.51,20.76,9.92,31.1Z"/>
  <path class="st0" d="M2089.98,897.97c-5.51,2.44-5.88-3.66-7.32-3.95-13.82-2.75-29.69,7.35-44.58,4.04l-3.32,9.78-16.77-3.88,3.94-17.05,27.12-11.07,42.06,16.09-1.12,6.05Z"/>
  <path class="st0" d="M715.77,1144.18c.57,4.41.86,14.22-2.24,17.32-.95.95-23.34,10.2-24.66,10.4-5.99.91-43.43-11.03-44.67-15.15-1.03-3.41.39-4.83,2.85-6.8,6.51,4.12,12.26,5.01,20.02,4.07,5.01-.61,8.32-3.59,12.1-4.04,8.25-.98,21.13,7.37,18.82-8.02l17.78,2.23Z"/>
  <path class="st0" d="M765.02,604c8.81-1.18,4.57,4.94,6.02,7.86,5.45,10.97,24.28,12.56,28.95,25.16l12.01-2.18,9.12,15.2c-12.91,15.18-23.67,2.45-39.09-1.09-1.59-1.13-2.75-2.59-3.77-4.23-1.93-3.09-14.66-29.88-15.38-32.7-1-3.92-1.64-5.33,2.14-8.02Z"/>
  <path class="st0" d="M1788,420v7.99c-13.37-5.08-17.49,14.86-23.09,21.91-2.22,2.79-8.45,4.62-10,8.16-2.62,5.95,7.34,15.34-8.91,19.14-5.33,1.25-12.11-6.89-12.16-12.16-.03-2.74,8.17-23.56,10.12-26.09,3.58-4.64,40.74-22.3,44.04-18.95Z"/>
  <path class="st0" d="M948.01,1629.94v-10c16.57,4.46,18.62-24,33.15-30.02l-2.28-12.04,13.12-7.07,9.88,14.15c-4.82,6.69-6.19,18.11-9.82,24.04-2.67,4.35-41.92,23.18-44.04,20.94Z"/>
  <path class="st0" d="M1501.9,1747.85l-7.91-2.96c8.67-11.18,1.78-19.53.17-30.11-1.85-12.15,4.85-18.03-10.04-24.07l5.2-14.88c5.35-.21,11.81-.19,15.62,4.17.84.96,10.84,21.82,11.04,23.09,1.5,9.27-12.73,33.54-14.09,44.76Z"/>
  <path class="st0" d="M1241.63,307.69c-2.59.34-3.46.42-3.8,3.14-1.95,15.49,7.02,25.42,2.3,39.92l8.99,5.13c2.42,3.16-.42,16.87-3.98,17.52-5.01-1.93-11.52-.13-15.27-4.28-.88-.97-9.8-22.36-9.99-24.08-.72-6.36,12.7-45.08,17.13-45.02l4.63,7.66Z"/>
  <path class="st0" d="M1971.99,1443.95h-8c2.59-17.33-24.21-17.99-29.98-33.12l-12.03,2.3-7.14-15.17c12.96-15.73,22.56-.06,38.28,1.86l17.33,32.66,1.52,11.47Z"/>
  <path class="st0" d="M1977.48,475.49c-1.85,1.84-7.15,1.96-8.52,4.37-.8,1.41,1.54,4.85.13,8.02-.47,1.05-12.37,15.8-14.24,17.95-1.99,2.29-3.09,4.93-6.83,4.15,5.35-10.9,9.93-43.37,21.93-47.21,8.7-2.78,13.02,7.29,7.54,12.72Z"/>
  <path class="st0" d="M833.38,424.61c1.1.78,1.83,3.65,3.86,5.04,2.07,1.4,20.03,11.26,16.75,14.33-7.54-1.21-14.42-4.88-21.5-7.48-2.56-.94-6.26-.02-9.03-.97-.94-.32-15.06-9.61-15.62-10.37-4.65-6.33-2.13-15.31,6.74-12.84,5.03,1.4,6.6,8.85,9.35,10.54,1.68,1.03,5.27-1.22,9.43,1.76Z"/>
  <path class="st0" d="M1408.31,215.64c.54.86,4.46.84,5.41,3.58,2.02,5.8.35,23.25,2.26,30.78l-17.45-29.53c-2.34-6.73-5.53-28.71,6.9-23.05,9.86,4.49.76,14.84,2.88,18.23Z"/>
  <path class="st0" d="M591.99,975.98c1.01,5.32-1.13,3.48-4,4.89-8.09,3.96-43.98,25.01-47.78,9.72l1.6-5.77c5.12-6.13,10.96-.53,14.97-1.28,2.31-.43,3.82-4.66,8.25-5.54,7.29-1.45,19.05-.74,26.96-2.01Z"/>
  <path class="st0" d="M1322.43,1831.56c-1.24-2.06-2.17-26.34-4.42-31.61,3.97-4.58,10.86,15.97,11.56,17.42,3.6,7.43,9.08,14.22,10.06,24.06,1.76,17.74-23.88,11.06-11.86-6.59-.2-1.79-4.68-2.19-5.34-3.29Z"/>
  <path class="st0" d="M765.67,1569.61c.18-11.3,12.28-23.52,20.31-31.67-2.46,9.36-4.98,24-8.51,32.47-.48,1.15-7.85,13.01-8.44,13.55-11.36,10.33-21.6-11.53-3.37-14.35Z"/>
  <path class="st0" d="M1927.72,1635.67c-8.54,5.44-12.78-6.66-15.83-8.61-7.26-4.63-17.27-9.04-25.24-14.76-2.49-1.79-5.55-2.11-4.64-6.34,9.93,2.29,45.34,11.37,47.69,21.41.42,1.79-1,7.67-1.98,8.3Z"/>
  <path class="st0" d="M2176.25,1064.2c-.7.52-.55,4.5-3.47,5.5-1.73.59-18.8,2.96-22.73,3.48-3.62.48-5.44,1.5-8.03-2.22,8.76-2.58,18.56-10.74,26.12-13.86,1.73-.71,16-5.09,17.03-5.17,4.97-.36,11.67,6.54,9.96,10.08-4.67,9.69-18.05,1.56-18.88,2.19Z"/>
  <path class="st0" d="M1829.99,1347.94c-5.42,1.37-5.2-1.38-7.61-3.37-6.9-5.71-14.82-10.7-21.33-16.67-2.43-2.23-5.72-4.02-5.05-7.93,1.21-1.05,25.93,8.78,27.17,9.81,1.37,1.14,7.52,17.5,6.81,18.16Z"/>
  <path class="st0" d="M1071.99,1453.96c2.07,2.01-10.4,22.75-10.4,27.59l-17.58,4.39,21.4-29.5c.22-3.27,5.97-3.07,6.58-2.48Z"/>
  <path class="st0" d="M1672.37,568.38l13.72-5.34,5.86,1.95c-6.16,2.76-22.62,31.75-26.93,30.99-4.7-.83-1.34-4.69-.68-6.61,2.44-7,8.18-12.77,8.02-20.98Z"/>
  <path class="st0" d="M854,1115.97l-1.17,6.17c-15.16,2.61-25.12,13.78-38.81.79l17.25-4.7,22.73-2.26Z"/>
  <path class="st0" d="M1460.01,1537.96c3.43-.66,4.14.76,5.49,3.49,1.06,2.16,8.45,20.34,8.45,21.5,0,1.58-7.75,16.88-8.95,16.96l-4.76-27.2-.23-14.75Z"/>
  <path class="st0" d="M1922,923.99c0,9.07-6.82,4.14-10.66,4.74-10.56,1.64-20.24,4.72-31.33,3.23-.61-4.19-.26-3.25,2.51-4.47s21.58-8.97,22.81-9.07c4.58-.4,10.84,6.74,16.67,5.57Z"/>
  <path class="st0" d="M1271.99,469.99c-1.23,11.28,2.93,22.57,3.47,33.58.18,3.74,1.77,5.62-2.46,8.37-1.42-.04-10.86-22.95-10.99-25.11-.21-3.43,6.46-20.96,9.98-16.83Z"/>
  <path class="st0" d="M914.65,707.29c2.12,1.58,27.23,17.17,23.34,20.67-5.05-.44-23.16-6.56-25.98-9-2.21-1.91-5.34-15.07-5.99-18.99,4.68.32,6.52,5.74,8.63,7.31Z"/>
  <path class="st0" d="M365.99,1097.97c3.15,2.75-20.62,17.52-21.98,15.98-.35-5.24-.09-11.09,3.97-15.01l18.01-.97Z"/>
  <path class="st0" d="M2131.03,1677.95c1.19-.17,22.97,5.35,22.93,7-10.48,13.58-15.52,7.31-24.98-3l2.05-4Z"/>
  <path class="st0" d="M605.99,369.98c-1.09.99-16.83-2.61-19.6-3.43-2.04-.61-5.94.22-4.37-3.53,5.4-12.96,22.29-3.98,23.97,6.96Z"/>
  <path class="st0" d="M711,1785.98c3.26,2.43,2.8,2.6,2.14,6.04-2.66,13.88-6.3,28.07-14.57,6.89l12.44-12.93Z"/>
  <path class="st0" d="M2022.01,261.98c-1.24-1.36,2.93-16.27,3.74-19.27.73-2.7-1.37-5.6,3.22-4.71l6.81,12.58-13.78,11.4Z"/>
  <path class="st0" d="M2391.99,935.98l-3.87,13.1-18.11.87c-3.54-3.1,19.43-16.28,21.98-13.98Z"/>
</svg>