<?xml version="1.0" encoding="UTF-8"?>
<svg id="Layer_0_xA0_Image" xmlns="http://www.w3.org/2000/svg" version="1.1" viewBox="0 0 2732 2048">
  <!-- Generator: Adobe Illustrator 29.8.4, SVG Export Plug-In . SVG Version: 2.1.1 Build 6)  -->
  <defs>
    <style>
      .st0 {
        fill: #67ada9;
        stroke: #000;
        stroke-miterlimit: 10;
        stroke-width: .25px;
      }
    </style>
  </defs>
  <path class="st0" d="M1811.47,170.48c16.64-2.74,31.45,6.28,37,22.05,5.03,14.29,15.51,73.2,10.47,85.41-9.25,22.4-12.35,43.53-22,66-16.48,38.36-62.41,99.09-104.48,109.52-28.63,7.09-103.56-6.29-118.08-34.81-17.86-35.1,51.75-37.08,53.66-55.7,1.43-13.93-16.93-36.99-23.07-48.91-6.6-12.82-17.02-39.86-5.85-51.92,4.93-5.33,15.44-6.16,22.26-9.74,11.29-5.93,20.24-14.78,30.8-21.2,26.11-15.89,91.86-56.18,119.3-60.69Z"/>
  <path class="st0" d="M1113.57,344.4c-24.39-18.97-69.86-14.1-88.64-40.32-10.92-15.24.75-19.38,4.6-31.56,3.88-12.29,4.27-29.35,7.46-42.54,5.98-24.74,29.18-114.13,44.93-129.07,9.34-8.87,23.96-9.95,35.53-5.34,9.35,3.73,63.87,41.41,67.53,48.47,2.05,3.96,1.99,11.39,4.69,17.31,4.4,9.68,15.25,20.54,20.72,31.28,22.66,44.51,38.36,135.19,6.46,177.2-17.89,23.55-73.12,59.35-103.27,51.62-37.93-9.73,9-61.58.02-77.04Z"/>
  <path class="st0" d="M1007.52,1594.52c29.47-3.99,103.7,7.69,114.95,40.01,10.91,31.34-52.6,33.34-56.01,50.71-2.75,14,31.49,56.44,33.51,79.77,2.41,27.84-6.44,21.1-23.76,30.2-47.25,24.85-91.7,64.69-145.15,80.85-19.06,5.76-36.01,2.34-44.05-18.09-4.83-12.26-15.25-71.2-12.6-82.57,1.2-5.15,6.4-8.13,8.26-13.73,4.75-14.32,5.19-30.66,11.27-46.73,15.6-41.25,67-114.14,113.56-120.44Z"/>
  <path class="st0" d="M2093.43,678.42c13.4-3.01,15.28,4.24,24.16,6.99,24.77,7.68,54.55,10.57,80.44,17.56,18.63,5.03,79.12,23.47,91.9,34.1,10.6,8.82,11.12,27.75,5.89,39.73-4.65,10.65-39.78,60.24-48.69,65.31-4.76,2.7-9.43,1.49-14.58,3.42-9.12,3.43-23.82,17.25-35.17,22.83-41.32,20.33-133.79,35.94-172.37,7.62-24.43-17.93-65.25-76.89-53.64-107.65,12.57-33.3,59.65,10.02,74.62,2.74,16.03-7.8,19.81-86.46,47.45-92.67Z"/>
  <path class="st0" d="M615.6,1158.6c51.26-4.39,85.95-2.05,119.23,39.57,13.54,16.93,44.87,71.53,24.24,89.91-20.18,17.97-53.61-17.59-71.09-9.08-12.7,6.19-17.88,67.69-37.89,86.1-15.5,14.26-21.69,2.17-35.65-2.54-12.23-4.12-27.62-4.43-40.46-7.54-34.67-8.38-73.24-17.99-105.95-32.05-20.14-8.66-35.97-15.41-31.54-41.5,1.94-11.42,40.28-67.82,50.41-73.57,4.38-2.49,9.1-1.88,13.87-4.13,10.16-4.8,18.18-12.66,27.89-18.11,23.62-13.27,59.99-24.75,86.94-27.06Z"/>
  <path class="st0" d="M1979.47,1268.34c28.8-6.02,29.27,46.04,47.78,57.2,33.84-4.3,57.99-38.5,93.87-33.64,14.07,1.91,12.49,15.68,17.22,24.76,22.77,43.69,53.72,79.23,74.01,127.99,8.76,21.05,18.42,41.69-5.67,57.02-10.97,6.98-75.06,18.73-87.64,16.28-3.97-.77-8.25-5.97-13.92-8.07-9.49-3.51-21.37-3.65-31.54-6.46-51.3-14.18-137.29-74.19-137.73-132.39-.19-24.86,14.42-96.58,43.62-102.69Z"/>
  <path class="st0" d="M1605.53,1626.49c26.39-2.83,35.48,11.21,27.91,35.95-2.8,9.16-18.06,32.62-12.5,41.58,1.08,1.75,19.07,10.22,22.53,11.5,20.52,7.56,52.72,9.6,66.52,29.48,9.72,14.01-.24,19.48-3.88,32.11-13.37,46.47-18.08,90.6-36.62,137.38-10.41,26.26-21.29,54.54-56.18,37.19-11.21-5.57-55.79-36.65-62.29-45.71-3.44-4.79-2.79-11.15-5.22-16.78-6.08-14.1-19.63-28.05-26.77-45.23-16.91-40.73-29.41-123.96-3.49-161.42,15.64-22.6,62.57-53.11,89.99-56.05Z"/>
  <path class="st0" d="M589.55,532.55c7.13-.71,20.87-1.76,27.41-.51,4.29.82,6.59,5.1,11.03,6.97,13.89,5.83,35.07,6.11,52.72,13.28,38.32,15.56,109,66.83,116.39,109.61,4.86,28.13-6.52,95.52-31.25,112.97-38.95,27.48-40.67-48.4-58.97-50.91-22.71-3.11-61.38,40.91-93.47,33.62-13.67-3.11-12.15-17.05-16.6-25.39-21.97-41.2-51.11-74.95-71.17-120.83-7.53-17.2-19.52-37.16-7.66-54.36,10.28-14.9,53.57-22.64,71.56-24.44Z"/>
  <path class="st0" d="M1432,698.02c-5.7,7.36-18.67,7.25-12.96,19.93,5.03,11.18,23.9,4.78,31.64-.28,8.84-5.78,10.27-15.11,18.37-19.78,7.58,1.49,28.6,2.68,30.64,11.52l-48.86,110.26c-6.33-1.85-11.12-3.28-14.51,3.66l-34.38,79.61c-21.89,11.27-46.35,14.73-69.48,22.63-9.3.92-11.41-7.48-14.8-14.22-12.15-24.19-19.83-51.06-29.74-76.21l24.05-14.14c-29.04-30.4-33.09-79.65-27.68-119.72,1.27-9.39,8.18-48.18,17.11-50.9,4.01-1.22,8.71-.52,12.71.53l117.89,47.11Z"/>
  <path class="st0" d="M1557.98,1102.12l-7.98,25.86c47.71,5.48,87.44,39.15,112.83,78.19,11.16,17.16,27.16,33.55,4.52,46.17-35.16,19.59-76.13,30.21-112.39,47.62-3.21.42-3.31.29-2.88-2.85,1.34-9.77,7.29-18.94-7.16-19.23-11.57-.23-19.11,15.96-20.11,26.09-.66,6.67,3.75,18.32,2.25,21.98s-23.55,16.84-27.66,15.8c-3.6-.91-6.26-7.18-7.77-10.38-15.54-32.94-22.31-71.33-39.62-103.35,7.55-.93,11.93-4.47,9.58-12.52l-32.65-79.72c4.03-11.45,9.15-22.37,14.73-33.13,3.16-6.11,19.58-35.1,23.79-36.32,2.95-.85,5.78-.58,8.57.61l81.96,35.17Z"/>
  <path class="st0" d="M1411.5,1126.52l34.61,86.57-.31,2.72-21.8,11.23c30.4,39.12,33.26,91.87,23.08,139.03-2.63,12.16-6.2,39.02-23.15,33.05l-119.92-47.14c-4.29-4.78,23.06-10.13,10.08-23.06-13.22-13.18-40.14,6.91-45.49,21.12-8.2-.18-31.31-1.22-32.65-11.16-1.14-8.41,30.62-68.59,36.41-81.54,3.65-8.15,6.65-16.64,8.63-25.38l17.13-3.4,32.96-80.49c3.02-3.51,16.78-8.27,21.9-10.1,10.5-3.76,36.48-12.15,46.56-13.58,4.32-.61,8.3-.53,11.97,2.13Z"/>
  <path class="st0" d="M1644,839.98c-39.28-9.69-25.13,25.29,3.57,27.61,6.46.52,18.86-4.88,22.39-2.68,3.34,2.08,17.89,25.47,13.09,31.14l-110.1,43.73c-3.08-.27-2.65-11.89-15.45-9.37l-78.17,33.14c-9.42-2.53-67.28-31.9-69.01-36.87-1.76-5.06.24-10.86,1.58-15.76,6.55-23.9,22.85-50.66,32.07-74.05l2.98-2.22,25.03,7.36c2.91-46.78,37.86-86.55,75.38-111.62,7.41-4.95,30.88-20.94,38.58-17.4,13.22,6.08,48.29,108.84,58.05,127.01Z"/>
  <path class="st0" d="M1323.4,1120.56c3.59,4.3,2.44,8.25,1.27,13.04-6.07,24.92-24.8,53.83-33.68,78.43l-3.87,1.93-23.12-5.97c-5.58,44.13-33.21,79.34-68.23,104.79-10.27,7.46-37.29,28.37-48.92,21.34-13.44-8.13-44.51-104.42-54.84-123.15,7.43-2.11,20.13,6.11,22-6.09,1.86-12.18-10.82-20.6-21.49-22.4-8.55-1.45-24.22,3.24-28.56.54-2.02-1.26-19.13-26.24-11.42-30.52l111.15-42.22c1.85,4.5,4.97,10.33,10.81,9.42l78.95-33.34c4.61-.64,18.29,5.66,23.27,7.92,5.78,2.62,44.67,23.86,46.69,26.28Z"/>
  <path class="st0" d="M1693.98,1088l-14.92-13.94c-16.57,3.24-11.82,24.11-4.73,34.63,5.38,7.99,14.03,9.35,19.42,16.73l-6.67,28.64-4.13,2.03-110.95-46.13c1.11-6.17,4.89-11.05-1.21-15.76-5.86-4.52-27.36-12.69-35.75-16.24-14.51-6.14-29.62-11.41-44.53-16.47-3.91-8.46-8.11-17.05-11.07-25.93-2.89-8.66-12.01-38.12-12.61-45.52-.63-7.91,4.21-10.47,10.42-13.8,23.02-12.36,53.46-20.07,77.79-30.44l3.16,1.48,9.83,20.72c1.97,1.47,17.02-10.55,20.62-12.35,36.98-18.46,79.57-19.18,119.37-10.67,14.51,3.1,40.69,5.72,33.5,25.56l-47.55,117.45Z"/>
  <path class="st0" d="M1162.01,938.01c.41,4.2-2.9,8.42-1.75,12.57,1.33,4.81,36.47,19.29,43.78,22.39,13.5,5.74,27.93,9.94,41.51,15.49,8.46,20.7,15.95,42.3,20.76,64.23,1.06,4.83,3.52,10.04-.14,14.47l-89.08,36.89-11.1-24.04c-42.45,33.86-101.41,35.5-151.97,20.99-18.17-5.21-24.98-4.77-19.42-25.42,10.51-39.02,32.63-75.33,45.43-113.57,4.43-3.98,9.57,19.21,22.82,9.83,8.78-6.22,1.99-25.6-3.13-32.54-4.64-6.29-12.47-8.76-17.42-14.64,1.15-12.23-.69-35.78,16.72-30.8,23.49,6.71,54.15,26.5,77.65,36.5,8.12,3.45,16.42,6.88,25.35,7.67Z"/>
  <path class="st0" d="M1281.95,821.93c-5.1-.08-10.75,2.6-9.63,8.55l33.61,82.31c-2.82,8.36-6.27,18.14-10.17,25.96-2.64,5.3-23.52,41.15-25.74,42.24-9.07,4.44-33.97-8.01-43.95-12.07-7.3-2.97-41.75-17.35-45.18-20.89-5.92-6.11,3.87-19.74,3.12-28.03-50.43-3.37-97.55-47.74-120.35-90.67-14.86-27.98-7.21-27.08,17.63-39.06,32.34-15.6,67.69-26.54,99.73-42.27l.84,20.64c11.88,10.49,25.4-7.07,27.69-18.1,1.9-9.16-3.09-23.51-.59-28.56,1.86-3.74,25.06-19.29,30.21-12.15l42.79,112.08Z"/>
  <path class="st0" d="M1266.01,759.99l-15.59-55.41c-5.38-14.64-31.77.48-40.3,6.55s-16.46,16.63-25.17,22.83c-21.13,15.05-51.82,23.04-75.67,34.33-7.9,3.74-52.46,30.03-55.32,28.78-7.37-3.22-10.62-22.71-11.73-30.3-3.98-27.33-5.2-87.08,8.59-110.96,3.16-5.47,11.71-8.58,12.89-13.26,1.46-5.78-3.87-8.44.56-17.26,5.91-11.77,24.79-27.42,36.34-33.66,72.8-39.34,146.47-10.59,193.45,51.37-1.45,6.19-8,6.83-11.79,12.29-6.22,8.93-9.47,43.44-10.27,55.73-.86,13.19,2.13,32.14-.03,43.97-.63,3.43-2.13,5.62-5.98,5Z"/>
  <path class="st0" d="M1585.81,703.79c-5.36,1.9-11.56-2.03-16.37-1.4-21.73,2.87-59.61,49.68-77.34,62.7-2.74,2.01-4.04,3.77-8.08,2.9,4.82-9.51,8.82-19.88,13.63-29.35,7.4-14.55,25.21-28.89,4.15-39.43-23.53-11.77-46.48-5.41-70.21-11.79-19.69-5.29-42.57-18.33-62.55-25.45-19.18-6.84-38.79-12.36-58.5-17.5-10.52-4.74,1.23-20.32,5.8-27.13,14.17-21.08,62.59-71.98,87.11-76.89,6.2-1.24,14.29.87,19.23-.76,4.86-1.61,2.39-8.17,9.21-10.74,35.41-13.35,90.22,11.19,115.13,37.03,35.44,36.77,44.7,88.37,38.78,137.81Z"/>
  <path class="st0" d="M1305.5,1519.5c-1.98,1.69-31.77,4.69-36.21,4.39-7.27-.5-22.42-5.67-29.82-8.36-71.94-26.17-98.69-94.75-90.49-167.56,5.39-5.56,12.01-.88,19.56-2.4,8.1-1.63,37.64-25.75,45.48-32.55,12.07-10.46,21.38-24.15,34.99-33.01,2.61,1.27.16,5.46-.6,7.4-4.49,11.36-25.08,42.7-26.13,50.08-1.34,9.45,25.32,18.79,33.2,20.03,9.72,1.52,19.78-.39,29.49.51,27.42,2.54,63.93,23.52,91.11,32.89,14.13,4.87,34.45,7.62,46.9,13.1,1.82.8,4.13.49,4.78,3.24,3.07,8.82-6.06,19.6-10.98,26.52-15.12,21.25-59.9,69.03-84.75,75.33-7.83,1.98-12.97-2.84-19.52.34-5.69,2.76-4.8,8.17-7.01,10.05Z"/>
  <path class="st0" d="M983.4,1098.22c6.7-1.76,9.64,9.06,15.14,12.24,19.93,11.55,72.84,7.69,96.55,9.45,3.58.27,6.47-.56,8.87,3.09l-57.43,18.53c-13.22,5.26,1.95,33.6,7.49,41.45,4.79,6.79,14.41,13.18,19.94,20.06,16.46,20.49,24.96,53.53,36.33,77.67,9.27,19.68,21.8,38.13,29.55,57.97-.89,3.03-8.21,5.67-11.39,6.75-26.92,9.21-105.85,10.4-130.31-4.58-4.97-3.04-7.42-11.46-11.55-12.62s-7.93,1.91-11.68,1.87c-10.1-.12-32.44-25.25-37.74-34.28-26.64-45.33-28.17-100.57.39-145.29,5.34-8.36,39.04-50.54,45.85-52.33Z"/>
  <path class="st0" d="M1045.53,806.49c3.75,5.01-.02,10.36.54,16.26,1.85,19.47,48.43,61.92,61.93,78.24,1.86,2.25,4.85,3.23,3.99,6.99-3.58,3.42-51.19-29.65-60.94-28.1-7.1,1.13-15.5,26.48-16.53,33.64-1.33,9.22.32,18.46-.55,27.45-2.72,27.93-20.56,57.4-30,84-6.97,19.65-11.91,39.88-17.75,59.86-1.21,2.43-4.54,1.14-6.67.72-24-4.76-93.32-74.38-97.22-99.05-.84-5.31,2.83-9.73,1.35-15.04-1.62-5.8-11.46-6.81-13.26-14.88-15.18-68.12,45.48-136.73,110.9-148.26,10.73-1.89,58-7.78,64.21-1.83Z"/>
  <path class="st0" d="M1624.01,1142.01c2.53-2.31,47.36,23.47,53.99,27.16,13.23,4.58,22.09-27.73,23.12-37.07,1.72-15.71-.57-28.39,4.32-45.66,5.95-21.01,19.2-44.12,26.6-65.4,6.55-18.83,10.57-38.41,17.17-57.17,8.99-2.53,22.26,7.37,29.46,12.47,18.82,13.34,68.53,61.28,72.89,83.11,1.26,6.29-.81,13.8.83,19.17,1.53,5.04,8.72,4.59,11.49,12.51,6.84,19.52.38,46.14-6.94,64.8-27.59,70.43-95.35,94.86-167.04,87.19-4.5-3.11.06-11.01-.31-15.67-1.5-18.93-48.41-62.43-61.58-78.45-1.85-2.26-4.86-3.23-3.99-6.99Z"/>
  <path class="st0" d="M1632.01,927.99c-.63-4.21-.23-3.25,2.52-4.47,9.44-4.21,57.07-14.52,59.17-20.85,2.43-7.33-8.11-29.9-12.83-36.54-5.06-7.11-14.34-13.2-19.9-20.1-17.5-21.75-27.97-61.27-40.62-87.38-3.46-7.15-27.15-44.9-25.39-48.73,2.98-3.63,7.16-5.12,11.44-6.51,26.31-8.58,104.71-9.47,129.02,4.18,5.92,3.32,7.87,10.83,11.95,12.07,8.72,2.64,11.9-3.99,22.5,3.5,47.98,33.92,60.9,111.52,35.21,162.94-5.28,10.58-46.86,66.1-56.11,65.42-4.78-2.42-6.18-8.16-10.25-11.23-9.7-7.33-55.45-11.3-69.74-12.26-12.23-.82-24.73.56-36.97-.03Z"/>
  <path class="st0" d="M1464.01,1290.01c4.51-.83,3.19.19,4.47,2.54,6.15,11.32,13.35,54.77,21.58,58.48,6.35,2.87,26.57-7.22,32.61-11.37,6.24-4.28,10.58-11.11,16.38-15.62,40.99-31.84,94.92-40.27,136.9-71.25,7.97-2.88,10.49,5.56,12.6,11.64,8.39,24.13,8.95,103.63-3.03,126.09-2.9,5.44-11.98,10.75-13.18,14.9-1.87,6.47,2.78,11.03-1.48,18.37-33.26,57.3-125.51,63.53-177.93,30.26-9.61-6.1-50.2-37.48-51.01-47.2-.59-7.04,8.16-7.79,11.8-14.12,5.76-10.03,9.34-54.02,10.25-67.75.77-11.57-.52-23.39.03-34.97Z"/>
  <path class="st0" d="M1584,465c-1.45,1.84-2.07,2.62-4.56,2.66-9.3.17-29.89-9.4-42.56-9.72-19.83-.5-33.43,9.1-41.27,26.68-2.15,4.83-2.07,10.71-4.76,15.24-7.82,13.13-53.1,15.99-66.23,25.92-18.88-14.43-13.15-11.35-7.67-27.83,4.23-12.71,20.32-74.12,30.05-77.95l2.24,4.11,99.77-38.1,3.31-62.69c1.51-4.42,16.16-9.36,19.49-14.58,2.95-4.63.38-7.86,1.99-11.87,3.29-8.17,19.97-19.99,26.14-27.93,16.25-20.91,7.94-34.59,7.08-58.98-20.53-12.73-42.41-23.49-65.54-30.64-4.32-1.34-7.22,1.06-12.16-1.52-3.41-1.78-11.27-10.41-14.35-13.79-12.61-13.82-22.84-30.56-36.15-43.95-1.48-5.4,10.62-31.92,11.09-41.35.66-13.02-7.87-7.8,4.13-23.67,1.41-1.87,21.05-25.77,21.97-18.04-2.32,28.04,15.1,51.63,32.04,71.94,25.06,30.02,58.38,56.04,95.96,68.04,5.67,1.81,41.97,9.71,41.95,12.01-34.74,34.96-75.59,71.31-58.06,126.1,5.93,18.55,20.63,33.19,28.09,50.89-23.84-3.34-71.99,38.45-71.99,61.01v38Z"/>
  <path class="st0" d="M1313.7,1524.28c1.44,7.95,12.73,7.28,9.96,16.23-7.9,10.65-25.8,85.81-34.79,87.47-2.05.38-4.05-3.29-7-3.09-2.19.15-7.66,2.62-10.41,3.59-28.41,9.93-57.33,23.79-85.7,34.42l-3.08,62.64c-1.95,4.69-16.85,10.54-18.8,13.85-2.35,3.99-1.43,10.25-4.12,15.38-6.53,12.46-34.19,27.32-35.73,44.44-.39,4.33,1.9,7.97,1.97,11.83.12,7.05-1.17,17.86,0,23.99s26,18.22,32.67,21.33c9.04,4.22,21.91,9.52,31.32,12.68,5.63,1.9,10.55.07,16.78,3.22,15.32,7.75,33.16,43.97,48.91,55.19,1.88,6.41-8.81,29.58-9.48,39.85-.4,6.08,2.22,12.24,1.01,16.73-1.21,4.5-23.19,30.59-26.16,29.97-5.32-6.18-2.39-15.6-3.94-24.08-4.59-25.1-45.18-68.87-65.26-84.74-30.29-23.93-63.84-36.87-101.82-43.19-.82-3.02.78-3.31,1.96-5.01,7.68-11.02,24.43-23.65,33.99-36.01,22.88-29.59,33.23-55.96,19.01-92.93l-26.96-44.02c18.27.06,35.73-12.29,48.93-24.07,24.8-22.14,26.22-39.62,23.48-71.55-.57-6.64,2.37-6.6,8.02-5.98,25.21,2.78,51.48,19.83,73.51-5.46,9.25-10.62,6.72-17.58,11.14-26.86,2.91-6.1,22.28-12.36,29.35-14.65,13.39-4.35,27.93-6.37,41.26-11.16Z"/>
  <path class="st0" d="M2169.99,428.02c.32,8.12-7.95,11.77-12.39,18.59-23.33,35.9-17.96,118.77-3.13,157.91l29.51,53.47c-32.27,1.73-78.87-.85-105.86,19.14-26.84,19.88-35.33,53.17-38.14,84.86-8.1-2.33-13.09-8.8-21.56-11.42-30.79-9.55-60.84-8.46-85.48,13.38-4.53,4.01-15.34,19.3-19.75,17.92-2.12-.66-18.3-29.26-23.26-34.81-11.51-12.88-22.82-19.26-40.77-16.87-10.33,1.37-19.98,12.11-27.67,11.44-17.13-1.5-43.18-26.56-61.23-29.9l1.68-20.77c15.11-1.49,77.27-42.9,87.69-36.6,1.07.64,4.18,9.45,9.62,9.4l87.84,38.27,46.32-41.62c7.99-2.42,17.03,3.27,25.54,1.58,4.04-.8,5.42-4.31,8.57-5.46,17.66-6.43,39.02,4.92,58.37-7.63,1.66-1.07,23.31-24.26,24.2-25.79,5.17-8.88-5.22-34.93-9.13-45.08-8.86-22.97-22.48-33.49-20.94-59.01.45-7.51,3.21-16.41,3.96-24.04.8-8.1-1.5-29.44,4.14-33.87,9.32-4.69,27.77-12.3,34.93-19.06,3.29-3.1,4.6-9.7,6.92-11.08,3.8-2.26,38.84-4.73,40.01-2.96Z"/>
  <path class="st0" d="M1002,208v49c0,7.45,7.57,37.41,11.01,44.99,15.85,34.98,57.49,48.27,92.98,50.02-.27,5.47-5.7,7.82-8.41,12.57-6.67,11.73-10.86,42.7-9.37,56.2,2.61,23.59,19.84,40.65,37.78,54.28,1.34,5.44-33.85,23.57-40.07,29.86-12.49,12.62-16.82,29.78-10.37,46.51,1.86,4.82,7.2,9.68,8.11,14.03,3.42,16.45-24.63,47.68-28.61,64.59-3.11,3.19-18,3.69-20.89-1.23-10.68-29.62-31.27-54.63-38.28-85.75.23-1.87,4.08-.84,5.95-2.15,3.85-2.67,35.62-75.36,39.11-84.97,1.29-3.56,3.15-6.97,3.08-10.91-.79-7.61-39.77-39.78-41.7-46.5-2.51-8.74,7.68-19.74,1.77-29.17-1.36-2.17-5.24-1.46-6.13-6.32-3.1-16.83,5.15-43.57-7.05-58.98-1.27-1.6-22.4-21.36-23.81-22.18-9.44-5.49-40.24,6.82-51.05,11.16-7.31,2.93-16.84,6.71-23.55,10.5-3.46,1.96-4.15,5.49-5.91,6.54-10.18,6.07-53.14-2.75-67.6-3.7-2.85-.19-5.86,2.23-9.55,1.33-5.21-1.28-17.78-29.86-23.46-36.71-3.9-4.7-11.27-7.16-12.04-8.43-1.32-2.17-4.51-35.65-3.96-39.57,8.16-1.23,15.11,9.44,23.93,14.08,35.23,18.54,111.4,15.73,148.63,2.46,21.1-7.52,39.28-22.25,59.45-31.55Z"/>
  <path class="st0" d="M1972,1102.03l-3.67,10.44,37.65,94.69c8.12-2.38,14.08.52,21.05.83,9.41.42,34.4-1.94,40.95,1.04,5.57,2.53,9.68,15.86,14.87,19.13,4.43,2.79,8.84,1.05,13.12,2.88,10.62,4.54,28.7,36.42,47.22,36.95l37.95-3.85c8-5.75,29.26-54.89,32.07-66.12.94-3.77-1.41-7.19-.26-9.97.67-1.63,16.17-16.49,19.03-19.08,12.54-11.35,27.74-20.19,39.47-32.68,5.5-1.49,28.88,8.71,37.78,9.52,6.68.61,14.3-2.26,18.81-1.02,1.55.43,24.16,18.47,25.31,19.82,10.19,11.97-12.05,8.9-19.44,10.29-19.49,3.67-45.36,24.65-59.93,38.07-36.97,34.03-63.14,78.15-67.98,129.02-3.04.83-3.32-.8-5.02-1.96-9.64-6.63-22.05-21.99-32.03-29.97-31.14-24.89-56.83-38.26-96.91-23.03l-46.02,26.96c2.28-20.11-22.17-52.6-38.19-62.81-10.18-6.49-22.8-10.41-34.85-11.14-6.16-.37-26.1,2.85-28.1.03-1.71-2.41,8.8-37.79,9.15-45.16.68-14.75-5.94-29.49-18.15-37.79-8.22-5.59-16.39-5.1-23.34-8.66-11.83-6.04-17.69-54.96-25.96-67.5,4-4.14,10.03-13.55,15.95-12.7l89.48,33.76Z"/>
  <path class="st0" d="M599,1390c18.22-1.61,44.15-8.02,58.83-19.17,27.08-20.58,33.43-52.9,38.2-84.82,21.95,19.43,68.67,24.34,93.85,8.86,8.03-4.94,27.32-28.35,29.33-28.78,4.23-.91,20.08,29.22,24.84,34.87,13.51,16,28.65,23.34,49.33,15.41,4.71-1.8,10.73-7.01,14.14-7.91,15.96-4.22,49.72,24.78,66.55,28.57l1.6,2.13c-2.78,6.58,2.68,13.89-3,19l-87.54,37.96-5.21-9.04-85.86-38.13c-12.66-3.61-8.24,1.37-13.92,6.13-6.48,5.44-13.79,10.32-20.16,15.88-4.13,3.6-16.06,17.85-19.42,18.74-5.99,1.59-16.76-4.65-23.46-3.76-5.32.71-6.43,6.92-12.14,8.01-10.02,1.91-24.96-1.02-35.94.06-24.51,2.42-32.19,20.34-46.88,36.85,4.82,18.98,10.45,39.38,18.93,57.06,2.59,5.4,12.49,19,12.89,21.11,4.33,22.74-6.61,52.1-4.28,75.64-1.32,3.83-31.57,16.52-37.6,22.4-4.03,3.92-4.12,9.33-8.52,11.48-2.06,1-34.31,3.78-36.24,3.17l-3.31-4.69c20.43-16.52,25.24-41.23,27.97-66.06,5.28-48.01-2.67-92.12-25.64-134.32-4.73-8.68-12.87-17.21-14.34-26.66,15.25-.97,31.94,1.33,47,0Z"/>
  <path class="st0" d="M810,808c-3.47,29.9-21.18,62.05,9.01,83.99,9.15,6.65,15.98,4.56,23.58,8.42,11.1,5.65,17.58,54.5,25.37,66.64-.09,3.86-10.29,13.74-14.92,13.11l-89.04-32.2,3.09-6.94-37.42-98.69-63.64-3.37c-6.91-4.7-10.18-19.79-19.12-20.9-2.18-.27-4.8,1.63-7.03.85-3-1.06-19.75-20.71-24.93-24.87-21.86-17.54-35.77-12.01-62.09-8.18-7.01,5.06-26.79,51.66-30,62-1.41,4.57.06,9.68-1.9,14.1-.88,1.98-15.95,16.4-18.95,19.05-12.2,10.8-27.55,18.94-38.08,32.05-3.53,1.49-34.82-10.8-43.18-10.99-5.8-.13-7.49,4.54-13.78,2.13-4.17-1.6-29.05-22.43-28.93-25.22,4.99-5.09,12.9-2.34,20.05-3.89,39.53-8.57,94.78-66.03,112.25-101.75,9.87-20.18,15.39-45.36,19.67-67.35,25.46,21.4,56.29,57.99,91.23,61.75,34.67,3.73,60.7-13.63,86.73-33.75-.02,23.43,25.07,57.56,45.37,67.65,2.15,1.07,14.81,6.35,15.65,6.35h41Z"/>
  <path class="st0" d="M1737.72,1507.76l-7.57,3.37-40.3,95.57c6.41,6.08,40.18,37.52,41.75,42.72,2.43,8.03-3.44,18.53-1.64,27.66.92,4.66,4.67,3.78,5.97,6.49,4.64,9.64-.29,21.44.04,31.34.2,5.83,3.8,24.56,7.05,29.06l30.01,26.03c23.76-5.66,50.28-13.79,71.5-25.95,2.24-1.29,1.61-5.2,6.41-6.09,15.54-2.87,39.95,2.26,56.08,4.02,6.1.66,14.14-1.24,19.6.4,4.59,1.39,17.4,29.56,23.39,36.61,3.01,3.54,9.7,6.36,11,9,2.04,4.14,5.05,37.99,2.98,39.99-7.83-3.23-12.94-9.78-20.65-14.33-16.07-9.47-32.02-11.74-50.35-13.65-58.09-6.07-112.45,6.35-158.97,41.99-1.44-37.33,1.2-89.28-27.98-117.04-20.76-19.76-48.92-24.11-76.03-28.98.21-5.59,5.82-7.66,8.4-12.57,6.75-12.84,10.12-47.62,7.08-61.9-4.35-20.43-16.04-28.62-29.48-42.61-3.02-3.14-8.2-2.16-6.1-9.62.86-3.07,41.08-19.34,49.08-39.29,3.29-8.21,4.03-15.72,2.53-24.52-1.56-9.16-11.93-19.89-11.5-26.32.15-2.28,8.43-20.29,10.22-23.91,5.83-11.8,15.19-22.06,18.92-35.13l3.79-3.27,13.68-.56c5.29,1.15,7.18,13.43,9.65,18.43,5.02,10.15,37.73,66.19,31.44,73.05Z"/>
  <path class="st0" d="M2109,348c.6.09,5.05,2.29,5.03,3.03-15.66,20.28-6.16,51.57-4.35,75.52-1.31,4.65-21.69,18.87-26.67,23.47-2.13,1.97-3.02,4.93-5.13,6.87-3.16,2.91-9.59,2.55-9.89,8.11,2.1,23.48.47,48.49,4.5,71.51,2.44,13.92,8.84,30.7,13.97,44.03,3.41,8.86,17.82,31.98,14.52,39.37-1.42,3.17-11.02,14-14.45,15.64-4.65,2.23-36.46,7.37-43.77,8.23-18.89,2.21-37.94,1.78-56.88,3.12-4.24,1.31-11.56,9.5-14.92,13.08-5.03,5.36-22.24,31.84-26.02,32.18-4.17.37-39.3-23.11-46.91-27.19-22.54-12.09-34.02-9.48-48.44-33.56-3.2-5.34-12.46-30.19-13.92-31.06-2.23-1.34-6.88.08-9.7-.32-1.81-11.04,1.79-22.6,2.1-32.93.49-16.67-3.35-59.07.33-71.67,1.68-5.74,36.8-26.56,43.58-22.42,12.63,7.73,23.07,75.91,24.09,91.92,1.73,27.09-3.29,50.85-8.09,77.08,20.68-2.16,39.43,6.9,53.06,21.96l2.91.03c13.56-23.08,40.35-37.92,66.05-44.98,7.34-2.02,26.52-7.01,32.99-7.01h31c-32.9-39.08-55.06-84.7-63.45-135.55-6.67-40.46-16.41-96.56,28.7-118.2,4.32-2.07,28.52-10.25,31.75-10.25,11.1,0,27.85-1.53,38,0Z"/>
  <path class="st0" d="M738.62,997.53c.4.66,3.41.24,3.43,1.46l-74.12,74.04c-4.59,2.09-42.75-7.71-46.17-11.93-6.27-7.73,14.49-40.4,19.8-48.55,13.43-20.62,32.64-44.73,51.5-60.5,10.18-8.51,22.24-13.3,31.69-20.3,8.62-6.38-8.72-17.13-12.79-26.71-4.45-10.46-4.47-19.82-3.95-31.05-51.46,5.72-98.92-19.55-131.02-57.98-4.96,19.43-5.69,39.4-11.15,58.83-11.83,42.12-65.37,135.72-109.42,146.58-30.31,7.47-64.87-11.34-84.46-34.37-2.93-3.45-14.37-16.12-5.73-16.24,11.92-.16,17-5.34,25.8-13.79,11-10.55,17.96-24.51,29.38-34.6l51.49,3.5,7-3.05c17.34-23.46,39.58-42.49,53.76-68.23,10.7-19.43,17.63-41.42,24.62-62.38,6.91,1.02,14.56-2.62,20.7-2.41,5.8.2,28.57,16.68,34.85,21.32,7.54,5.58,15.04,11.74,22.21,17.79,18.26,15.41,18.5,28.37,46.96,27,8.21-.4,38.15-8.03,42.06-4.03,2.11,2.16,9.74,40.57,11.96,48.05,6.73,22.73,18.09,35.91,12.54,60.54-1.81,8.03-14.91,30.42-10.92,36.99Z"/>
  <path class="st0" d="M956,318c-28.47,21.3-53,37.98-86.96,50.04-31.05,11.02-105.22,26.77-135.04,14.96-40.3-15.95-47.92-66.75-41.99-105.01,6.99-2.02,5.67,3.67,9.13,5.79,11.86,7.29,54.35-.42,69.5-1.55l34.21,39.91,6.04,1.95c38.38-.81,71.49-3.06,107.61-16.59,7.97-2.98,34.25-17.29,38.68-17.52,4.58-.24,19.41,10.08,21.32,14.52,3.14,7.27,8.77,45.03,9.47,54.53,1.62,21.86-6.19,41.79,10.94,59.06,5.16,5.2,36.18,25.91,36.83,29.17-15.38,27.32-34.41,52.94-43.58,83.43-7.58,2-10.57,8.05-16.77,11.7-11.57,6.82-34.22,9.08-33.48,23.52l-104.58-2.24c-3.48-1.19-22.36-34.11-22.75-39.03-.57-7.18,11.42-11.2,17.45-13.61,27.13-10.84,79.9-17.21,108.94-15.01,15.58,1.18,29.83,7.55,45.03,7.98-1.41-15.6.31-26.94,9.12-39.88,2.97-4.37,12.09-9.21,10.66-14.72-18.06-15.35-31.48-31.81-39.83-54.36-2.29-6.2-9.96-31.06-9.96-36.04v-41Z"/>
  <path class="st0" d="M2027.99,1176.01c15.15-.3,27.05-2.13,42.11.89,28.1,5.63,58.1,25.93,78.89,45.11,3.64,3.36,4.94,10.49,11,9.98,1.48-34.7,9.52-65.52,24.29-96.71,12.97-27.38,56.42-93,83.74-104.26,30.47-12.57,57.48-1.79,81.82,18.15,4.42,3.62,20.23,19.88,21.87,24.13.5,1.28,1.18,4.59-.71,4.72-10.8-2.56-19.51,5.92-27.02,12.96-11.81,11.09-19.12,26.04-31.38,36.71l-49.56-3.82-8.93,3.25c-16.83,23.74-39.99,42.35-53.8,68.19-9.7,18.15-15.46,39.63-23.37,58.63-3.59,4.29-20.07,5.73-25.72,4.03-16.94-11.38-34.59-22.82-50.16-36.01-6.78-5.75-22.47-25.06-28.95-27.05-14.23-4.39-57.51,5.63-62.25,2.24-5.17-17.33-8.11-35.35-13.33-52.66-2.23-7.38-13.89-32.54-14.12-35.8-.23-3.18,2.88-5.37,3.15-8.13.46-4.72-1.07-7.09.52-13.35,2.7-10.64,9.22-21.53,11.91-32.35l-5.98-5.83,75.43-72.64c7.55-2.25,39.76,6.35,46.32,12.98,5.12,15.75-35.34,69.56-46.73,82.68-17.43,20.08-37.96,35.91-61.03,49.01-.77,3.23,10.45,11.53,12.88,15.09,7.49,10.99,9.91,26.82,9.12,39.88Z"/>
  <path class="st0" d="M1518.01,364.01c-3.71-36.83,7.25-69.02,28.33-98.67,7.28-10.24,19.74-19.66,25.69-28.31,1.16-1.69,2.8-1.97,1.96-5.02-52.84-1.94-101.46-22.73-143.78-53.22-17.44-12.56-49.56-37.28-57.16-56.84-15.89-40.91,12.58-78.62,44.26-101.71l4.3,2.69c-3.89,7.12,1.07,11.74,5.38,17.09,11.43,14.19,27.34,25.5,42.03,35.97l-3.02,54.98,1.88,4.13c26.65,22.86,48.7,45.58,80.78,61.25,8.59,4.19,47.06,16.61,49.39,18.61,3.09,2.66,4.55,22.57,3.06,27.16-1.05,3.24-26.91,37.67-31.16,42.82-7.79,9.44-27.99,25.53-32.09,35.91-5.78,14.64,6.35,57.25,3.32,61.28-19.12,4.99-38.71,8.62-57.61,14.43-8.58,2.63-24.8,11.73-31.51,12.65-1.13.15-19.94-3.08-22.41-3.74-12.74-3.42-30.48-17.53-38.64-5.51-6.8-13.33-71.39-70.08-72.68-77.45-.91-5.19,8.76-41.2,13.7-43.6,7.29-3.54,26.17,6.83,33.32,10.74,40.63,22.21,75.67,57.06,99.66,96.31,13.52-15.1,32.39-24.13,53.01-21.96Z"/>
  <path class="st0" d="M1345.96,1650.01c.16,2.39,1.31,4.33,2.92,6.03,12.36,12.99,24.7,26.04,37.07,39.01,4.48,4.69,28.19,25.17,29.02,26.97,3.52,7.67-5.68,49.51-15.54,49.53-26.3.07-93.98-58.14-110.26-79.72-3.87-5.14-15.54-28.5-19.91-27.7-15.11,15.48-31.15,22.82-53.27,19.85-1.92,1.91,1.65,21.92,1.46,26.45-1.67,39.99-29.13,78.23-57.44,104.57,17.5,5.29,35.9,5.33,53.98,10,41.88,10.81,114.98,54.38,140.83,89.17,30.65,41.24-3.16,90.04-37.83,115.78-5.08-3.05-1.04-7.01-2.51-11.37-5.44-16.15-49.29-44.23-50.21-47.95.86-10.59,3.19-23.5,3.51-33.86.09-2.8-1.42-5.36-1.38-7.76.1-5.25,4.16-11.01-.31-16.13-23.41-18.58-42.53-40.41-69.04-54.94-10.47-5.74-23.42-10.85-34.56-15.44-5.84-2.4-21.73-5.76-25.19-8.34-4.91-3.66-4.06-25.09-1.06-30.91,3.88-7.54,21.62-30.66,27.81-38.19,6.83-8.31,30.45-28.52,33.05-36.95,3.9-12.64-4.9-59.54-2.89-61.91,18.54-4.21,37.58-7.71,55.81-13.18,22.82-6.85,27.44-16.25,54.08-10.13,14.7,3.38,27.37,16.58,41.85,7.12Z"/>
  <path class="st0" d="M1780,1730l55.91-37.09c36.03-17.71,124.65-39.99,162.04-27.86,43.12,13.99,50.93,67.83,44.04,106.94-5.6,1.11-5.09-6-9.37-7.61-20.07-7.55-48.42,2.36-69.3,1.29l-33.43-38.55c-6.95-5.66-32.88,0-42.92.86-19.24,1.64-33.69,1.19-53.08,6.92s-38.48,17.14-57.24,24.74c-6.62-3.19-15.34-7.86-19.08-14.22-3.5-5.95-8.32-37.62-9.33-46.67-1.73-15.52.11-42.2-3.19-54.81-4.3-16.45-34.42-27.38-43.22-38.83-1.9-2.47-2.46-4.23-1.03-7.15,9.94-16.04,20.7-31.92,29.55-48.6,9.73-18.35,6.84-28,26.97-41.03,6.48-4.2,30.35-12.57,32.71-15.29,2.39-2.76,1.9-5.67,2.04-8.95,18.3.12,36.68-.43,55-.17,5.19.07,10.12,2.04,15.82,2.17,11.8.29,31.81-5.65,38.83,3.18,2.84,3.58,16.92,28.33,17.82,32.23.56,2.43,1.31,5.97.05,8.11-50.06,25.37-115.65,28.92-169.58,14.39.75,13.06-1.65,28.89-9.14,39.86-2.33,3.42-13.31,11.53-12.73,14.85,20.3,17.35,34.66,35.41,42.88,61.25,2.56,8.04,8.98,31.79,8.98,39.02v31Z"/>
  <path class="st0" d="M662,1436c7.02,16.37,21.17,28.75,30.34,44.66,17.57,30.46,28.43,67.95,33.37,102.63,7.21,50.56,12.19,95.95-46.2,113.23-17.69,5.23-42.77,9.8-59.48.48,19.98-18.9,4.83-51.58,6.38-75.59.58-1.97,25.57-24.36,29.79-28.2,5.05-4.6,11-3.76,11.71-12.39-4.15-20.85-1.72-44.46-4.81-64.92-1.45-9.62-6.35-24.87-9.61-34.39-2.81-8.2-21.52-45.92-21.45-48.57.08-3.08,11.91-17,15.21-18.69,6.25-3.19,45.01-9.56,53.78-10.22,13.61-1.03,32.57,2.29,45.03-.97,14.81-3.86,32.44-34.09,41.91-46.14l4.65-.68c15.27,10.81,32.75,22.24,49.29,30.85,21.35,11.12,30.5,7.65,44.48,31.52,6.39,10.91,8,32.57,21.53,31.46-.16,18.29.48,36.69.17,55-.09,5.18-2,10.14-2.17,15.82-.4,13,5.87,29.64-4,38.01-3.7,3.14-31.57,19.19-35.01,19.11-9.28-.22-18.54-35.36-20.31-43.61-5.92-27.47-9.05-63.42-6.56-91.38.94-10.53,6.6-21.84,7.63-30.54,1.15-9.68-18.36-5.71-28.21-8.95-10.75-3.54-17.14-11.73-26.18-17.4-19.3,21.11-36.02,33.96-63.74,42.38-5.2,1.58-24.86,7.47-28.53,7.47h-39Z"/>
  <path class="st0" d="M1859.82,457.82c-10.83-.73-31.07,16.58-37.29,17.82-3.09.62-7.6-2.29-8.5-1.66-.9.63-5.73,18.2-6.04,21-2.75,24.96,2.75,51.13,4.16,75.99.75,13.27-4.78,24.41,6.25,37.63l25.6,37.37c-13.55,3.9-27.25,7.62-40.49,12.53-9.84,3.65-39.69,14.25-46.28,19.71-4.51,3.74-3.09,7.61-5.13,10.37-2.56,3.47-8.8,7.66-11.29,13.27-41.49-12.33-104.77-77.85-78.86-122.92,12.61-21.93,44.42-18.64,65.63-13.5,12.71,3.08,24.72,8.97,36.42,14.56-4.17-23.57-7.31-47-6.07-71.07,1.69-32.93,16.11-89.38,57.41-90.17,20.53-.39,41.92,19.62,44.5,39.07Z"/>
  <path class="st0" d="M1313.82,272.18c3.27,4.83-16.28,34.31-12.04,43.71l-5.84,1.13c-3.68,20.3,47.48,57.19,62.09,69.96,7.8,6.82,11.2,14.43,20.61,19.36,15.93,8.33,39.56,10.15,57.35,11.68-10.26,26-27.17,50.73-35.42,77.54-4.18,13.57,2.28,21.19,3.1,35.27-.66,2.95-13.73,7.63-17.25,8.59-33.82,9.22-98.96,8.5-120.09-24.74-25.06-39.4,26.31-70.71,57.65-81.71,4.65-1.63,11.54,1.34,10.01-4.93-41.61-22.14-111.68-90.85-82.85-141.9,13.2-23.37,40.2-19.58,62.69-13.95Z"/>
  <path class="st0" d="M1400,1618.02c38.98,27.19,101.64,79.59,88.63,133.61-7.15,29.68-35.58,32.65-61.25,27.88-16.45-3.05,10.2-34.03,6.53-46.25l6.12-2.3c-9.04-29.9-39.34-48.27-62.06-67.94-6.54-5.66-14.45-16.75-21.27-20.73-14.72-8.6-40.24-7.55-56.66-12.36-2.02-2.97,15.01-31.42,17.67-37.22,4.05-8.8,16.41-34.58,17.82-42.19,1.96-10.61-5.08-23.5-2.68-34.61,34-17.51,109.82-17.62,134.02,16.22,30.67,42.91-31.35,78.96-66.87,85.89Z"/>
  <path class="st0" d="M923.98,626c-40.81,11.78-108.43,14.03-142.93-14.05-19.74-16.06-27.21-46.26-7.08-64.99,1.7-1.58,17.03-13.48,18.07-13.96,11.53-5.44,12.04,10.87,15.61,18.35,2.38,4.97,8.41,13,9.55,16.65.96,3.08-1.5,6.61.69,8.97,12.89,13.85,75.66,3.96,95.06,2.92,7.5-.4,13.92,2.4,21.09,1.3,17.57-2.71,38.28-23.32,52.97-33.15,12.14,23.31,17.83,63.55,33.3,84.66,5.13,7.01,17.8,11.24,23.54,18.61-10.75,39.03-62.46,89.05-104.85,84.68-12.69-1.31-28.36-11.47-32.05-23.93-8.62-29.14,4.8-60.06,17.04-86.06Z"/>
  <path class="st0" d="M1810,1421.98c10.46-1.16,20.79-4.6,31.25-5.73,36.98-3.99,105.17-1.39,125.61,35.88,8.65,15.76,8.67,34.12-3.77,47.97-1.94,2.16-22.59,17.96-24.1,17.98-6.93.06-8.21-12.47-10.64-17.44-2.81-5.75-9.21-14.73-10.91-19.28-3.32-8.89,4.81-10.08-13-14.8-22.26-5.9-41.54.14-63.37,1.53-13.23.84-28.79-1.76-41.61.39-15.1,2.53-35.29,21.23-48.02,30l-5.54.64c-4.19-10.43-6.07-21.58-9.88-32.14-4.25-11.77-17.07-48.43-25-55-3.88-3.21-21.27-10.97-20.71-16.59,14.87-32.06,38.83-61.83,72.32-75.74,78.61-32.66,79.69,56.67,47.36,102.34Z"/>
  <path class="st0" d="M773.98,1058c-9.44,8.31-14.79,20.39-22.95,30.02-26.08,30.78-86.42,82.57-127.07,49.02-7.62-6.29-14.12-18-14.12-28.05,0-5.47,2.3-29.35,7.48-30.82,2.82-.8,23.21,9.2,28.56,10.95,3.52,1.15,7.92.14,10.85,1.22,5.97,2.2.16,10.77,17.87,1.26,18.93-10.16,30.57-30.08,44.37-45.63,13.4-15.09,29.4-24.43,35.32-44.68,4.3-14.68,4.42-30.43,7.73-45.29,14.12,5.53,26.83,14.03,40.63,20.35,8.92,4.09,34.93,16.26,42.89,17.3,7.06.92,19.81-6.79,28.44-4.75,11.21,5.46,15.22,63.3,13.8,75.89-1.58,14.11-13.14,46.71-23.7,56.3-41.15,37.38-83.84-26.37-90.11-63.09Z"/>
  <path class="st0" d="M970.02,1468c1.7,10.39,4.62,20.73,5.73,31.25,4.09,38.75,1.6,106.9-39.1,126.39-18.76,8.98-33.77,4.36-47.67-9.62-27.13-27.29-12.41-23.72,12.81-35.24,6.42-2.93,9.6-10.26,18.15-4.79,13.62-25.02,5.68-50.89,4.08-77.01-.86-14.19,1.95-31.61-.91-45.09-3.31-15.64-23.45-32.73-30.07-45.93-1.03-2.06-1.38-3.65-1.04-5.94,13.96-2.48,27.77-7.12,41.04-11.98,8.02-2.94,42.19-15.61,45.92-20.08,2.37-2.84,2.18-7.05,4.2-9.8,2.36-3.2,7.95-6.34,10.09-12.03,25.5,6.11,54.68,30.61,68.79,52.83,54.09,85.18-28.38,107.06-92.02,67.04Z"/>
  <path class="st0" d="M2076.58,957.39c-1.79-1.26-1.2-5.48-5.18-5.17-19.19,1.52-56.72,52.15-70.61,67.57-3.85,4.27-9.74,6.72-13.66,12.34-10.15,14.55-10.84,42.43-13.14,59.87-2.58,2.75-25.14-11.34-29.57-13.43-12.88-6.08-47.08-22.94-59.33-22.63-7.04.18-16.39,3.62-23.8,3.85-2.45-.69-6.74-9.65-7.72-12.38-12.51-35.03-9.34-111.76,31.02-127.81,35.72-14.21,60.71,29.01,72.38,56.42.95,2.24,4.29,18.07,7,15.97.09-2.98,1.62-5.44,3.14-7.88,18.39-29.51,63.79-74.86,98.79-81.21,31.29-5.68,59.1,7.7,58.18,42.19-.16,5.77-1.36,26.66-8.22,26.06-8.1-3.07-15.83-6.98-23.91-10.1-4.48-1.73-11.9-1.22-15.37-3.67Z"/>
  <path class="st0" d="M1400.46,1789.58l4.51,1.56c3.57-.33,6.7-2.81,10.28-3.1,10.81-.89,83.49,32.9,91.8,41.91,4.96,5.38,6.65,20.17,9.99,28.01,6.42,15.1,14.36,30.22,26.93,41.04.06,5.55-29.67,12.21-35.18,12.79-53.93,5.67-108.63-6.11-156.15-31.43-22.48-11.98-15.14-9.5-25.79-28.21-10.19-17.89-33.69-30.43-12.88-55.18,16.35-19.46,34.36-11.36,53-15,4.73-.92,5.48-5.44,11.96-6.13,11.44-1.22,19.64,1.97,21.53,13.74Z"/>
  <path class="st0" d="M1860,281.99c25.58,2.6,49.2,26.45,66.05,44.96,26.17,28.74,46.42,67.27,57.37,104.63,7.19,24.54,2.26,18.28-2.13,38.72-4.61,21.46-.76,45.89-32.29,45.85-28.63-.04-31.39-21.28-45.03-27.11-4.28-1.83-8.69-.09-13.12-2.88-1.79-1.13-9.57-12.15-10.1-14.13-1.23-4.59,5.36-7.72,3-14.69-10.7-6.54-12.65-9.12-18.1-19.98-6.53-13.02-30.06-74.5-26.83-85.39,1.38-4.67,9.36-15.37,12.15-21.99,6.43-15.29,10.77-31.2,9.03-47.97Z"/>
  <path class="st0" d="M1336.39,269.59c-1.48-2.16.57-8.14-4.41-10.7-5.15-2.18-9.02,2.32-14.23,2.09-12.56-.56-64.96-26.19-77.79-33.94-20.4-12.31-14.37-17.87-22.44-37.56-6.31-15.41-15.43-27.45-25.53-40.43,21.32-13.73,52.23-14.29,77.09-13.13,28.47,1.33,111.56,22.89,130.79,43.21,4.36,4.6,4.42,11.18,7.72,16.28,11.24,17.38,33.08,34.28,13.29,56.46-18.21,20.4-31.75,10.03-51.46,14.54-5.44,1.25-7.96,7.02-12.52,7.64-2.65.36-19.58-3.1-20.52-4.47Z"/>
  <path class="st0" d="M2110.01,1518c7.46,7.65-26.39,47.46-32.96,54.05-25.11,25.22-106.58,78.95-141.62,71.49-8.81-1.87-17.01-3.97-26.23-5.75-18.72-3.63-32.81-8.87-33.37-30.8-.7-27.43,17.83-28.81,26.31-45.85,3.81-7.64,4.05-18.75,15.77-22.33,8.19-2.5,10.18,4.11,14.69,3.01s6.11-9.61,9.48-12.74c7.42-6.9,77.71-32.48,88.97-33.11,13.52-.77,19.82,7.43,31.58,12.38,14.83,6.24,31.18,10.6,47.37,9.64Z"/>
  <path class="st0" d="M610.47,1027.58c.57.91,3.64,1.11,4.47,2.39,2.59,3.99,1.29,22.21-2.95,25.01-3.36,2.22-7.69-.44-10.58,5.59-1.84,3.85,2.65,7.58,2.71,12.39.12,10.45-29.8,74.6-37.23,84.91-9.2,12.74-20.13,10.79-33.58,16.42-6.75,2.82-16.26,7.64-22.34,11.66-6.68,4.42-12.13,12.84-18.98,13.19-14.49-7.68-13.05-77.96-11.71-93.88,1.84-21.85,28.36-105.48,45.89-116.11,3.77-2.28,8.72-2.49,12.92-5.08,10.57-6.5,18.2-17.97,32.07-19.95,22.35-3.19,36.88,19.24,38.84,38.9.55,5.56-1.31,21.66.49,24.56Z"/>
  <path class="st0" d="M873.99,1768c-25.69-4.92-49.95-28.72-67.02-47.98-20.2-22.78-61.69-93.37-59.08-123.03.43-4.87,5.21-25.22,6.61-31.49,5.32-23.77,11.51-34.45,38.5-31.51,23.03,2.51,24.61,18.71,38.33,25.84,4.42,2.3,7.5-.93,11.74,1.95,9.97,6.76,12.74,18.35,7.07,28.91.97,3.27,8.75,4.88,11.9,8.25,8.12,8.67,33.49,77.77,34.01,90.15.5,11.96-5.43,14.07-9.03,22.94-7.22,17.76-14.77,36.42-13.04,55.97Z"/>
  <path class="st0" d="M2243.96,848.01c11.43,24.17,13.33,50.53,12.12,77.07-1.31,28.69-23,112.87-43.98,132.02-5.33,4.87-12.73,5.43-18.78,9.22-15.73,9.84-27.3,29.12-49.18,14.54-24.58-16.37-14.18-32.84-18.18-53.82-1.09-5.71-7.33-6.85-8.02-12.15-.64-4.94,3.05-12.02,2.36-17.59l12.83-7.32c1.69-3.29-1.4-10.22-1.31-14.97.24-13.13,28.82-75.36,38.23-85.96,8.93-10.06,34.91-14.2,49.28-22.72,9.78-5.79,15.28-13.97,24.62-18.33Z"/>
  <path class="st0" d="M798.29,508.32c-1.18.74-2.57,8.88-4.84,11.14-1.53,1.53-13.38,6.65-16.74,8.26-13.34,6.4-69.73,28.66-81.19,25.88-4-.97-11.55-7.89-16.18-9.95-17.76-7.88-35.59-13.66-55.35-11.66-5.08-5.11,19.34-39.46,24.06-44.93,9.83-11.4,31.82-31.07,44.12-39.88,17.14-12.28,79.34-42.05,99.11-43.08,7.52-.39,15.7,5.9,24.23,7.38,11.11,1.94,18.64-.35,29.88,6.12,13.05,7.5,13.98,19.22,12.37,33.18-2.56,22.3-19.92,23.72-26.03,38.15-1.8,4.24.6,6.42-1.53,10.1-1.39,2.41-13.14,12.1-15.71,12.7-4.16.96-10.72-6.85-16.2-3.41Z"/>
  <path class="st0" d="M1988.02,466c7.23,5.33,11.93,16.94,15.7,25.28,9.95,22.02,25.14,57.04,21.38,80.82-5.07,32.1-25.84,49.93-58.12,51.85-52.16,3.11-65.28-62.53-67.06-102.88-.16-3.62-1.64-24.58,4.08-22.11,38.96,45.56,90.54,31.08,84.02-32.98Z"/>
  <path class="st0" d="M810,403.98c.28-2.1,2.54-3.61,4.14-4.84,12.55-9.63,67.41-31.33,83.06-32.92,30.78-3.13,63.3,15.03,68.32,47.26,3.93,25.26-.48,40.76-20.57,56.47-18.58,14.52-56.68,21.23-79.87,22.13-4.84.19-24.61,1.92-23.07-5.05,45.61-37.69,30.87-89.53-32.01-83.05Z"/>
  <path class="st0" d="M1412,190.02c10.15.86,21.05,4.85,30.53,8.45,22.43,8.52,57.96,22.74,71.11,42.89,13.94,21.36,17.18,40.42,4.01,63.29-36.75,63.82-110.34,10.04-143.64-27.69l3.3-4.75c60.99,6.49,80.76-41.77,34.69-82.2Z"/>
  <path class="st0" d="M2201.98,1070c-5.24,22.93-15.35,49.86-26.23,70.75-14.25,27.39-40.19,46.17-72.28,40.77-11.49-1.94-37.9-21.68-41.92-32.08-16.63-43.04,24.87-93.45,55.44-119.4,6.27,4.87.92,11.96,1.13,18.65.4,12.61,11.46,39.56,24.41,43.77,25.08,8.15,41.91-7.7,59.44-22.46Z"/>
  <path class="st0" d="M1361.99,1775.99c-59.5-6.35-88.94,38.73-40,81.02-10.24,1.7-22.66-3.74-32.52-7.48-43.76-16.61-103.51-48.36-71.81-104.86,31.06-55.36,90.04-22.54,125.39,9.28,2.37,2.13,21.26,19.98,18.94,22.04Z"/>
  <path class="st0" d="M1893.99,1558.01c2.66,2.36-14.8,17.22-16.86,20.12-15.21,21.38-17.55,50.33,10.17,61.57l38.68,8.27c-32.54,14.21-73.67,40.42-110.06,33.08-31.1-6.27-46.14-26.64-47.89-58.09-3.25-58.31,83.73-68.42,125.96-64.96Z"/>
  <path class="st0" d="M616.01,1017.99c5.39-59.91-37.33-86.96-81.02-40-1.88-.17-1.08-3.35-.98-4.97.75-12.86,27.29-71.19,36.04-81.97,19.7-24.28,53.75-32.96,80.62-14.72,41.31,28.04,27.28,69.97,2.99,104.33-2.57,3.64-33.29,42.38-37.65,37.33Z"/>
  <path class="st0" d="M833.99,1549.99c-8.29,1.25-9.65-7.26-15-11.98-25.62-22.66-61.18-21.38-70.49,15.49l-4.51,27.52c-15.42-30.77-41.44-75.45-32.59-110.62,6.31-25.11,22.98-42,49.52-44.48,20.67-1.93,32.25.49,46.87,15.3,25.18,25.51,26.67,74.98,26.21,108.78Z"/>
  <path class="st0" d="M1645.99,1462.01c2.1,7.04-5.62,11.34-5.99,17.13-.34,5.31,7.74,20.6,8.06,29.97.48,14.17-6.74,25.9-17.1,34.84-6.53,5.63-26.03,13.88-28.46,16.52-8.88,9.66,4.78,21.38-24.98,11.02-34.36-11.96-74.5-39.9-73.16-80.56.9-27.35,29.91-9.61,46.89-7.17,18.27,2.63,36.81,2.31,54.67-2.86,14.18-4.1,26.55-13.4,40.08-18.9Z"/>
  <path class="st0" d="M861.97,911.99c-4.69,4.65-6.33-15.43-8.42-17.55-1.72-1.74-9.99-3.21-13.63-5.37-27.84-16.53-29.15-32.64-23.01-63.17,1-4.98,5.4-9.73,5.09-14.76-.34-5.51-6.48-8.13-5.78-13.72,2.62-10.46,52.27-23.61,63.34-24.86,21.81-2.47,48.09,2.14,62.49,20.4,13.86,17.58-4.24,20.6-14.65,27.43-25.66,16.83-44.33,32.43-56.36,61.64-2.16,5.24-7.95,28.86-9.06,29.96Z"/>
  <path class="st0" d="M1088.01,585.99c-.81-5.69,7.64-12.24,7.56-16.62-.09-4.79-6.45-13.78-7.4-20.54-4.16-29.65,10.08-40.84,32.45-55.2,3.6-2.31,10.24-3.14,12.34-5.66,6.36-7.64-2.71-17.86,18.67-12.59,21.22,5.23,64.45,32.34,72.76,53.22,3.75,9.43,11.25,41.25-1.82,45.09-24.97-4.35-47.56-12.02-73.55-9.66-22.14,2.01-40.71,14.63-61.02,21.96Z"/>
  <path class="st0" d="M1872.01,1138.01c8.93-.41,5.76,13.41,10,16.98,4.3,3.62,17.45,6.58,24.94,13.06,14.13,12.21,14.84,27.2,13.03,44.94-.85,8.29-6.66,19.13-6.17,26.05.37,5.22,5.51,8.16,3.95,13.55-3.38,11.69-62.22,25.09-74.71,25.52-20.19.69-53.71-14.02-54.79-36.68,12.2-10.65,27.71-16.7,40.68-27.48,23.42-19.46,38.6-45.74,43.07-75.93Z"/>
  <path class="st0" d="M1253.99,1530.03c4.54,4.67-13.47,6.57-15.99,8.98-2.68,2.56-6.07,14.63-10.01,19.99-11.45,15.57-23.82,20.27-42.97,18.96-10-.68-23.71-7.62-30.2-7.99-9.98-.56-11.98,15.68-23.14-4.63-16.82-30.62-26.26-78.22-2.51-107.18,24.81-30.25,30.04,2.61,44,21.67,11.81,16.13,27.21,30,45.48,38.52,6.11,2.85,34.05,10.34,35.35,11.67Z"/>
  <path class="st0" d="M1580.5,601.48c-18.93-41.98-53.34-75.79-100.49-81.49.1-8.68,11.71-5.03,16.93-10.05,3.02-2.9,6.59-14.92,11.11-20.89,13.14-17.38,25.81-18.99,46.91-17.02,8.21.77,18.26,5.95,24.1,6.16,7.04.25,10.89-6.21,17.61-3.94,3.19,1.08,8.6,14.03,10.26,17.82,8.4,19.19,16.08,51.83,12.59,72.45-2,11.86-25.26,50.33-39.03,36.95Z"/>
  <path class="st0" d="M929.99,1303.99c-6.63,1.87-12.48-7.12-17.3-7.58-3.25-.31-16.69,6.87-23.68,7.6-20.83,2.17-31.48-4.31-43.85-20.17-5.06-6.49-9.65-19.01-13.05-22.95s-14.29-4.01-15.84-10.27c-1.95-7.86,15.68-40.44,20.89-48.44,15.12-23.2,33.61-41.79,63.87-40.32,27.48,1.33,9.72,29.96,7.21,47.4-2.8,19.45-2.02,36.86,3.69,55.83,4.13,13.73,12.46,25.89,18.06,38.92Z"/>
  <path class="st0" d="M1820.46,883.54c-6.67-6.45,3-25.05,4.64-33.44,4.65-23.78,4.87-47.71-3.58-70.62-1.69-4.58-16.88-32.17-15.51-33.47,6.88-1.31,10.6,6.09,16.96,6.15s20.04-8.06,30.13-8.21c15.06-.23,28.04,9.86,36.86,21.1,4.57,5.82,11.7,22.72,14.92,25.08,5.69,4.16,14.11.19,13.07,12.63-1.56,18.64-30.35,63.4-46.08,74.12-9.53,6.49-42.7,15.09-51.41,6.67Z"/>
  <path class="st0" d="M1163.97,57.99c4.85-10.49,14.17-42.53,23.25-47.76,17.43-10.04,37.21,20.37,31.69,35.66-4.41,12.22-36.83,16.78-25.01,37.21,7.35,12.71,36.92,10.4,20.5,42.28-15.73,30.53-43.18-1.72-59.77-13.03-34.07-23.21-63.58-28.79-42.34-79.08,1.76-4.17,7.1-16.02,11.1-17.04,11.91-3.05,27.46,31.38,34.63,38.73,1.9,1.95,2.64,3.77,5.95,3.02Z"/>
  <path class="st0" d="M1537.46,1910.38c10.19-1.34,41.04,24.94,51.09,32.07,9.2,6.53,32.44,17.68,37.21,26.8,8.83,16.89.14,47.5-11.75,61.82-14.92,7.39-31.24-33.19-41-41.03-11.92,14.02-13.66,57.42-39.59,49.55-8.12-2.47-20.57-25.32-18.57-33.58,3.79-15.64,29.26-15.55,28.95-33.06-.23-12.68-18.85-15.76-23.86-21.88-10.11-12.35,2.72-38.75,17.53-40.69Z"/>
  <path class="st0" d="M482.23,482.21c19.03-5.66,38.68,3.79,57.76,5.78,2-1.93-19.35-42.98-17.68-52.51,3.26-18.53,41.88-13.02,47.83,1.36,5.49,13.27-7.63,25.08-.25,38.26,7.94,14.16,22.5,2.71,33.11,2.73,22.74.03,31.45,43.72,5.11,47.3-24.23-2.42-67.49,17.27-88.57,14.5-19.44-2.55-40.19-38.53-37.32-57.41Z"/>
  <path class="st0" d="M829.99,1852.01c-1.8-1.99-41,19.09-50.47,17.63-22.12-3.4-13.58-43.63,2.38-48.74,11.43-3.66,28.59,10.28,39.22-.78,13.32-13.86-16.13-36.21,12.87-49.14,38.1-16.99,34.2,24.56,38.6,47.43,2.93,15.25,12.15,44.31,8.99,58.17-3.57,15.68-39.24,37.02-55.71,32.54-7.86-7.9,6.93-54.01,4.12-57.12Z"/>
  <path class="st0" d="M2251.7,1567.72c-18.99,2.66-36.98-4.52-55.69-5.71.69,15.51,29.45,53.09,7.49,62.48-9.88,4.23-33.17-1.89-37.97-11.01-7.92-15.05,11.47-30.69-3.37-42.63-14.47-11.63-29.02,10.48-44.2-5.81-7.39-7.93-10.26-30.3-.99-37.07,7.54-5.51,43.6-8.57,55.44-10.56,14.93-2.51,30.61-10.16,46.14-6.94,17.25,3.58,39.27,40,33.15,57.26Z"/>
  <path class="st0" d="M2332,819.98c12.35,6.6,52.98,15.63,51.97,32.87-.82,13.83-26.64,28.47-38.46,22.71-12.35-6.02-12.08-26.41-28.66-27.52-15.91-1.06-16.39,24.86-30.32,27.64-16.06,3.2-40.31-15.24-30.2-32.36,16.9-19.13,29.44-45.81,44.85-65.14,16.87-21.16,35.04-18.05,58.19-8.54,18.05,7.42,23.29,10.92,6.66,25.39-10.46,9.1-24.15,15.06-34.02,24.95Z"/>
  <path class="st0" d="M360.57,1271.41c-1.36-1.52-2.18-3.56-1.64-5.6,2.89-10.91,30.95-24.55,39.74-32.14,2.06-1.78,4.19-1.94,3.33-5.66-11.44-4.39-47.64-14.66-49.99-27.09-2.71-14.33,10.81-23.46,22.88-27.01,29.08-8.55,20.71,27.2,44.06,26.23,19.4-.81,11.32-29.05,38.09-26.18,9.7,1.04,25.27,12.62,24.88,22.85-.36,9.33-22.96,35.2-29.55,44.57-17.81,25.33-21.2,49.62-58.85,44.11-6.79-.99-28.73-9.34-32.95-14.07Z"/>
  <path class="st0" d="M1904.01,195.99c16.55.05,42.31-22.41,57.09-14.08,12.32,6.95,7.23,30.39-.23,39.96-13.12,16.82-30.96-6.03-45.93,6.07-11.31,9.15-.8,21.6-.75,31.05.1,18.79-24.86,26.1-39.7,19.65-9.08-3.94-11.16-42.43-13.08-53.06-2.51-13.91-11.24-38.8-8.07-51.21,5.16-20.19,34.04-33.81,53.3-36.16,12.44,3.85-2.02,47.64-2.64,57.78Z"/>
  <path class="st0" d="M2180,1632.02c-12.08,10.26-36.5,11.76-51.1,6.08-25.9-10.08-30.28-56.37-24.89-80.09,3.14-3.39,12.49,19.53,19.42,21.6,11.06,3.32,37.86-18.77,36.71,7.35-.45,10.15-9.82,12.39-4.27,26.19,2.63,6.53,16.94,17.09,24.13,18.88Z"/>
  <path class="st0" d="M1222.02,126c-2.12-2.71,12.41-26.06-2.18-34.84-7.71-4.65-20.86-2.66-20.05-16.16.79-12.97,14.38-11,20.81-14.89,10.86-6.58,4.82-27.41,3.49-37.24-.41-3.02-.32-3.38,2.92-2.91,10.49,1.54,32.03,22.01,35.96,32.06,10.25,26.23-17.71,62.66-40.96,73.97Z"/>
  <path class="st0" d="M629.98,492c-5.2.91-3.09-.72-4.16-2.84-3.57-7.07-6.65-17.79-15.77-20.36-9.24-2.61-35.86,19.23-35.38-5.46.23-11.83,10.6-13.43,4.32-27.34-3.19-7.07-13.64-13.55-20.4-17.59-2.2-1.32-5.11-.82-1.62-4.45,4.22-4.39,31.34-6.68,38.05-5.96,38.35,4.08,40.49,54.76,34.97,84Z"/>
  <path class="st0" d="M1513.99,1924.01c1.74,1.71-13.92,22.58.05,32.95,6.29,4.67,21.83,4.92,21.81,16.05-.04,14.73-21.9,10.52-26.29,23.55-3.89,11.53-.38,17.45,1.06,27.89.35,2.55,2.45,2.76-1.6,5.51-41.2-20.33-51.91-47.92-21.85-85.78,2.87-3.62,22.57-24.32,26.82-20.16Z"/>
  <path class="st0" d="M1900,284.02c7.1-1.7,21.03-8.91,23.17-15.96,3.28-10.81-14.85-25.19-2.32-34.21,9.34-6.73,17.41,2.99,24.31,4.1,15.73,2.53,23.53-17,32.81-25.95,10.62,31.87,11.09,62.04-25.54,73.43-14.78,4.59-40.01,9.06-52.43-1.41Z"/>
  <path class="st0" d="M2371.98,880c-18.33,63.57-80.12,45.91-106-.98,10.4-.44,20.24,8.74,30.64,2.59,8.51-5.03,6.22-24.52,20.43-25.57,13.53,3.77,11.06,22.83,23.05,26.86,9.58,3.22,22.72.83,31.88-2.9Z"/>
  <path class="st0" d="M467.99,1169.99c-1.94,1.84-25.18-11.27-33.75,1.25-4.44,6.48-3.29,20.99-15.24,20.97-13.45-.02-11.72-19.1-21.59-24.6-11.22-6.25-20.95-.41-32.41.43-2.69.2-3.92.12-2.97-3s16-24.25,18.98-27.03c5.97-5.56,19.64-12.24,27.89-12.08,19.63.38,52.2,25.58,59.09,44.05Z"/>
  <path class="st0" d="M833.99,1762.03c3.37,3.58-1.35,3.35-2.85,4.14-10.16,5.35-21,7.97-19.1,22.65.93,7.18,16.2,29.81-6.74,28.59-15.81-.84-16.73-17.24-36.33,4.57-2.12,2.36-9.83,16.92-12.97,14.01-7.79-29.09-11.59-58.36,22.03-70.94,9.38-3.51,50.31-9,55.95-3.02Z"/>
  <path class="st0" d="M2362.01,1174.04l5.97-3.11c2.95-9.78-33.65-30.02-40.67-35.23-1.69-1.25-3.91-1.83-3.29-4.66.55-2.51,35.58-25.34,40.96-31.06,5.03-5.34,7.19-11.49,10.01-17.97,11.27,14.82,14.94,34.42,12.8,52.77-1.7,14.59-11.79,30.17-15.73,44.27l-6.76.72-3.28-5.74Z"/>
  <path class="st0" d="M371.99,870.01c-1.95,9.3-8.91,5.3-1.97,14.97,9.35,13.03,25.36,19.51,37.54,28.4,1.46,1.07,3.1.21,2.54,3.63-14.69,17.9-44.72,25.49-49.08,50.98-13.84-19.02-17.71-39.21-12.07-62.06,2.28-9.23,6.87-14.63,9.92-22.12,2.61-6.41-1.79-18.26,13.13-13.8Z"/>
  <path class="st0" d="M2040,1778.02c-7.05,25.32-20.65,43.01-43.99,54.99-4.27,2.19-9.4,2.29-13.84,4.16-3.01,1.27-5.12,5.64-9.64,6.54-10.65,2.12-16.38-11.59-.46-8.54,8.29-7.6-6.16-57.02-4.06-59.16,23.8,2.41,48.83,11.69,71.99,2.01Z"/>
  <path class="st0" d="M2178.01,429.99l.97-8.09c-6.66-12.03-56.84,4.26-58.98,2.11-1.29-18.26,9.45-42.77,5.14-60.16-1.19-4.79-4.93-7.23-5.12-11.85,23.63,5.34,43.44,18.69,54.34,40.64,2.74,5.51,3.81,12.12,6.1,17.9,2.65,6.68,13.38,14.78-2.45,19.45Z"/>
  <path class="st0" d="M558,1620.02c-7.91,18.46,23.87,11.09,34.46,9.44,4.8-.75,20.26-7.22,22.62-3.53.98,22.67-13.8,49.65.92,70.05-20.86-2.11-41.98-16.34-52.38-34.6-4.68-8.22-5.51-15.28-8.79-23.21-2.83-6.85-15.78-15.22,3.17-18.16Z"/>
  <path class="st0" d="M1310,2030.02c-14.82,15.89-43.32,18.6-63.63,12.61-6.71-1.98-12.65-6.23-19-9.01-6.93-3.03-17.21.46-15.36-13.62,6.35-2.9,6.85,5.46,8.89,5.71,7.7.98,23.42-21.51,27.93-27.9,2.67-3.78,6.76-16.57,11.9-15.68,7.35,1.27,31.29,53.2,49.27,47.87Z"/>
  <path class="st0" d="M771.99,213.99l-8.1-1.06c-10.06,5.56,2.11,48.8,4.1,59.06-23.92,1.68-49.91-13.61-71.97,0,2.89-26.16,21.9-45.26,44.6-56.37,4.36-2.13,9.6-2.03,13.85-3.75,1.9-.77,1.7-4.58,6.91-5.48,6.91-1.19,11.65-.62,10.61,7.59Z"/>
  <path class="st0" d="M1521.99,29.99c-5.76,1.83-3.74-4.95-7.17-5.91-13.02-3.64-36.79,43.91-39.82,43.88-16.98-16.46-25.34-42.34-48.99-50.96,20.9-15.41,46.01-16.31,69.98-7.99,4.44,1.54,7.56,4.87,11.54,6.46,8.13,3.26,16.44-2.17,14.46,14.51Z"/>
  <path class="st0" d="M464,1135.98c-21.31-5.67-41.81-18.97-64.83-15.8-6.91.95-12.82,6.82-19.16,4.83l20.99-42.97,63,53.94Z"/>
  <path class="st0" d="M2010,299.98l-82,8c16.72-13.39,43.95-17.05,56.87-36.11,3.55-5.24,4.18-11.17,8.14-15.86l16.99,43.97Z"/>
  <path class="st0" d="M1310,56.01l-53.98,65.99c8.05-28.16,25.38-54.66,9.99-83.99l43.99,18Z"/>
  <path class="st0" d="M743.99,1794.01c-5.28.58-3.16-.1-4.02-2.95-4.51-14.92-9.09-29.05-15.95-43.05l81.97-8.01c4.42,4.26-18.68,11.28-20.69,12.29-17.07,8.57-40.47,20.19-41.3,41.72Z"/>
  <path class="st0" d="M643.99,382.01l8,81.98c-5.16,1.03-3.5-1.09-5.01-3.89-12.32-22.85-18.23-55.16-48.97-60.12l45.98-17.97Z"/>
  <path class="st0" d="M2136,1648.02c.57,5.24-.05,3.17-2.93,4.02-14.15,4.19-28.2,8.66-41.05,15.96l-8-84,25.98,48.99c6.56,7.68,15.61,13.89,26,15.03Z"/>
  <path class="st0" d="M2353.98,922c-6.26,13.7-12.28,27.17-17.79,41.25-.81,2.06,1.07,3.43-3.16,2.73-15.72-14.28-35.71-26.7-51.07-40.94-1.84-1.71-12.15-10.89-9.95-13.03,25.89,10.3,55.3,27.69,81.96,10Z"/>
  <path class="st0" d="M1480,1928.02c-9.72,25.9-27.74,55.46-10,81.96l-43.07-17.92c-2.58-2.56-.19-3.32,1.05-5.08,8.92-12.76,23.66-29.73,34.07-41.93,2.15-2.51,15.71-19.19,17.95-17.03Z"/>
  <path class="st0" d="M1832,894.02c30.55,2.02,51.62-18.84,69.98-40.02-5,11.43-14.9,57.95-24.55,62.59-2.67,1.82-4.29.66-6.78-.07-5.45-1.58-28.19-14.43-34.04-18.14-1.76-1.11-4.44-1.87-4.61-4.37Z"/>
  <path class="st0" d="M1257.52,510.46c1.27,1.24,2.39,4.89,2.4,6.69.03,4.24-15.97,34.87-19.43,40.27-1.26,1.97.2,3.58-4.48,2.57,3.81-29.89-17.87-51.62-38.01-69.97l59.52,20.44Z"/>
  <path class="st0" d="M947.99,787.99c-2.11,2.31-12.69-9.92-15.33-11.65-17.51-11.5-42.62-11.1-62.66-9.33,14.27-6.49,35.69-22.14,49.93-26.06,3.59-.99,6.97-1.72,10.66-.59,7.64,2.34,12.87,39.13,17.39,47.63Z"/>
  <path class="st0" d="M901.98,1152.04l-.99,3.97c-28.77-3.88-49.84,18.37-66.97,37.99,2.81-10.01,15.19-57.72,21.98-61.03,10.59-5.17,33.98,17.26,45.99,19.07Z"/>
  <path class="st0" d="M1129.99,1444.01c1.41,1.32-10.71,15.5-12.35,18.63-9.45,18.02-8.86,33.17-7.56,52.3.15,2.14,1.27,7.59-2.06,7.05-4.95-16.58-17.25-32.09-22.97-48.02-2.03-5.66-5.61-12.8,1.48-16.58,11.32-6.03,31.03-7.79,43.46-13.37Z"/>
  <path class="st0" d="M1536,1557.98c-14.96-4.32-32.22-8.63-46.53-14.45-11.95-4.86-18.23-5.58-12.47-19.51,4.2-10.14,14.4-24.29,20-34.01.3,29.23,17.99,50.02,38.99,67.97Z"/>
  <path class="st0" d="M1604,603.98c21.4-19.88,24.03-48.3,20.99-75.97,5.95,12.09,30.53,49.06,26.71,60.65-.91,2.77-3.35,3.39-5.69,4.34-11.48,4.69-29.56,7.86-42.01,10.98Z"/>
  <path class="st0" d="M1863.99,1282.02l-53.49,27.66c-15.6,2.7-17.68-36.69-22.49-47.67,2.1-2.38,12.7,10.01,15.31,11.67,15.77,9.99,42.67,10.75,60.67,8.34Z"/>
</svg>