<?xml version="1.0" encoding="UTF-8"?>
<svg id="Layer_0_xA0_Image" xmlns="http://www.w3.org/2000/svg" version="1.1" viewBox="0 0 2732 2048">
  <!-- Generator: Adobe Illustrator 30.0.0, SVG Export Plug-In . SVG Version: 2.1.1 Build 123)  -->
  <defs>
    <style>
      .st0 {
        fill: #66713f;
        stroke: #000;
        stroke-miterlimit: 10;
        stroke-width: .25px;
      }
    </style>
  </defs>
  <path class="st0" d="M1862.04,549.99l4.07-1.14c4.78-13.43,1.24-25.93-1.25-38.76-1.77-9.15,6.33-7.26,9.79,2.27,8.27,22.84,4,52.07-22.24,59.05-6.46,1.72-16.8,1.37-21.14,2.86-3.62,1.24-2.76,6.44-5.3,8.7-11.91,10.58-66.46-1.55-71.93-20-2.14-7.2,13.65,3.12,16.01,4,13.47,5.08,25.17,8.82,39.96,7.02-7.09-8.48-22.84-9.82-21.99-23.97,7.9-1.02,11.64,6.1,17.96,9.02,7.67,3.55,44.82,9.82,47.92-.28-5.15-27.51-26.12-1.42-45.95-17.69-12.97-10.64-11.05-24.56-6.81-39.01l-25.03-17.23c-9.73,2.41-9.04,17.82-7.91,26.01,1.83,13.23,12.55,22.92,15.81,35.16-22.36-1.93-31.69-39.68-24.94-57.93,6.87-18.56,23.03-21.44,38.91-29.05l-3.95-10.99c2.14-2.36,27.6,20.04,32.15,22.83,15.09,9.27,32.05,14.95,49.34,18.66,6.83,1.46,14.05-1.79,18.49,5.53,2.16,10.21-31.66,1.59-36.41.4-6.91-1.74-15.89-4.7-22.33-7.67-16.11-7.44-30.6-27.35-49.2-12.76,29.55,18.57,57.66,45.5,76,74.98Z"/>
  <path class="st0" d="M1422,1624.02c.81,4.53-.24,3.18-2.55,4.45-14.75,8.1-38.94,10.31-45.43,29.53,4.13-5.28,32.07-5.85,31.94-1-6.24,5.95-15.13,5.2-23.34,8.62-12.68,5.29-28.96,20.12-30.63,34.36,22.43,8.28,18.77-6.52,31.01-15.98,17.24-13.33,43.16-4.22,45.01,18.01,21.37-3.73,51.36-4.86,21.81-28.84-11.17-9.06-23.97-11.13-37.82-13.21l.08-5.85c44.55-8.32,78.38,33.19,49.93,73.86l9.99,2.06v5.93c-19.45,2.71-38.15,2.14-56.52,10.51-8.72.37-40.34,26.58-44.44,25.52-9.21-2.38,7.58-15.49,10.31-17.66,9.79-7.78,24.25-16.05,36.13-19.87,16.21-5.22,43.18-2.68,41.55-26.45-34.67,12.83-73.41,7.14-109.01,1.99-2,10.88,31.51,30.73,31.98,33.02,3.28,15.9-30.08-10.72-33.98-16.04-11.86-16.17-9.84-27.99-.06-44.04,2.28-3.74,8.32-9.17,9.14-11.03,1.84-4.21-1.61-7.87-.81-12.46,3.05-17.47,47.66-43.15,65.72-35.44Z"/>
  <path class="st0" d="M1818.02,1467.99l11.92-17.05,12.05-6.93c-.5,9.65-8.63,16.1-11.42,25.56-3.66,12.41-4.95,31.53,2.52,42.41,24.05-6.34,9.99-16.24,11-30.74,1.46-21.12,28.07-34.09,45.98-22.11,3.35-5.27,19.49-24.42,17.08-29.12-21.23-15.47-41.17,3.78-61.13,9.98-.55-19.16,35.92-27.86,50.82-25.81,17.03,2.34,33.38,22.69,33.18,39.82,28.84-10.83,2.56,12.34-3.67,21.34-12.62,18.23-18.53,35-23.44,56.56-.87,3.82-1.8,27.98-9.93,16.15-4.93-7.17,7.66-48.91,12.07-58.01,8.51-17.6,24.81-25.32,12.94-48.02l-21.92,31.04c-5.15,11.74-51.69,42.5-54.03,47.98-1.71,4.01,2.72,2.74,4.67,3.25,7.57,1.97,14.3,2.23,22.1,1.5,3.97-.37,21.19-7.8,19.2,1.2-1.62,7.32-34.52,7.86-41.04,7.07-22.32-2.69-30.89-28.62-29.02-47.99-10.56,1.7-11-6.48-11.91-15.09-2.31-21.79,4.54-50.8,25.95-60.97-6.07,20.02-18.01,35.48-13.96,57.99Z"/>
  <path class="st0" d="M859,524c-1.87.19-5.78,3.12-8.02,3.94-10.94-10.3,13.06-13.42,20.05-13.9,34.44-2.36,46.61,18.01,47.02,49.93l8.21,1.17c9.4,15.88-2.17,69.43-21.23,72.89-7.32,1.33.95-7.54,2.08-9.93,4.68-9.84,11.82-28.42,11.05-39.1-.21-2.98-.64-6.28-4.13-7,.59,6.87-15.42,27.01-22.02,21.98,11.85-20.72,23.63-45.28,9.02-67.93l-14.01,9.89c5.34,17.45,5.94,34.3-11.09,44.98-13.69,8.58-27.7-2.67-31.89,0l-16.08,24.22.99,4.9c9.63,7.1,25.75,4.36,36.44.33,9.4-3.54,14.89-12.04,24.62-12.36,1.3,15.68-31.12,27.53-43.09,28.05-21.67.94-41.65-20.93-42.92-42.05l-11.97,3.99c-3.18-3.25,13.06-19.5,15.65-23.33,10.83-15.96,17.08-29.11,22.19-47.81,1.1-4.03,4.05-36.81,12.14-28.84,1.16,20.25-2.87,41.1-11.62,59.36-3.66,7.65-16.69,22.98-17.97,28.15-1.86,7.46,3.68,13.34,3.62,20.48,5.55,1.16,5.5-6.6,8.34-10.65,19.07-27.16,43.36-48.39,69.63-68.36.26-.58-4.7-2.99-4.99-2.99-9.47,0-20.9-.92-30,0Z"/>
  <path class="st0" d="M2071.99,930.01l3.04-10c7.3-1.46,4.49,15.93,5.21,20.75,2.98,20.05,8.22,36.27,18.15,53.85,2.9,5.14,19.83,24.99,15.6,29.38-5.53,1-7.75-2.65-11.01-5.97-9.55-9.71-22.43-32.58-26.41-45.59-5.17-16.9-1.54-36.49-24.57-40.41,9.94,35.81,6.25,73.6,2.01,109.99,7.58-3.87,15.69-9.22,21.02-15.96,4.71-5.95,7.13-19.16,14.97-15.03,2.23,16.48-25.03,40.1-41.08,41-18.92,1.07-34.26-19.52-37.89-19.52-6.04,0-4.17,8.2-17.98-2.55-12.61-9.82-26.01-30.83-27.06-46.99-.35-5.42-1.36-13.35,5.98-12.95.98,10.71,5.66,20.84,10.98,30.03,1.1,1.91,17.02,25.24,17.06,16.94-3.37-8.83-6.48-19.24-2.54-28.5,1.21-2.84.5-3.02,4.49-2.47,4.49,22.35,14.81,47.23,38.85,53.94,3.57-1.08,6.68-14.86,4.89-17.67-30.37-9.37-34.28-50.83-1.56-59.58l-6.32-32.54c-10.54-1.22-19.54,7.9-24.65,16.02-4.39,6.98-10.46,33.43-12.22,33.8-15.1,3.23,1.55-37.29,4.26-41.76,9.58-15.83,25.66-20.55,43.6-18.05,9.58,1.34,14.5,7.73,23.17,9.83Z"/>
  <path class="st0" d="M764.02,1080c-3.57-14.27-9.52-32.31-19.98-43.04-2.28-2.33-4.29-5.57-8.03-4.95-1.15,1.26,8.4,30.29-4,29.98-1.82-22.9-15.7-44.57-37.05-53.74-4.3.33-5.97,14.69-5.05,18.42.6,2.42,23.68,8.28,24.24,30.33.43,16.94-9.23,24.32-23.65,29.89l5.97,30.61c7.65,9.44,25.88-14.26,28.98-21.04,4.35-9.51,3.48-20.3,9.54-28.42,13.15,11.51-4.72,46.77-15.56,54.4-19.3,13.57-36.45,6.55-55.41-2.44-.69,4.26-2.51,10.6-8.02,9.99-1.08-29.51-6.11-50.99-20.4-76.6-2.52-4.51-18.86-24.2-15.6-27.38,4.59-.73,6.59.25,10.12,2.86,6.79,5.02,23.84,34.55,26.82,43.18,6.14,17.76,2.07,38.57,24.09,45.92,4.99,1.67,1.77-1.9,1.48-3.48-2.22-11.98-5.85-25.38-6.5-37.51-1.15-21.57,2.52-47.66,5.97-68.97-16.17,2.55-24.75,19.56-33.02,31.98l-4.95-3.1c7.13-22.55,26.32-43.91,52.52-38.44,8.88,1.85,22.72,16.75,26.8,17.25,2.67.33,4.53-3.58,7.33-3.41,6.8.42,23.41,18.43,27.36,24.66,6.47,10.2,17.47,33.66,5.98,43.04Z"/>
  <path class="st0" d="M1365.99,278.01c.88,4.06-.91,5.34-2.9,8.08-7.18,9.89-32.34,24-44.01,27.99-18.58,6.35-38.45,1.49-45.06,24.94,10.91.17,21.84-4.29,32.91-5.09,25.23-1.83,52.09.96,77.07,4.07,3.38-3.06-16.3-21.69-18.99-23.99-1.53-1.3-19.26-9.71-9.95-11.98,8.19-2,27.11,13.6,31.82,20.12,6.8,9.41,9.6,22.64,6.22,33.96-1.79,6-16.7,21.76-16.92,23.18-.42,2.66,4.58,4.87,3.57,9.24-.38,1.63-8.88,13.6-10.7,15.54-12.5,13.33-38.85,26.74-57.04,19.93,8.6-7.18,20.29-8.26,30.59-14.38,7.27-4.31,12.74-9.46,18.41-15.6,1.55-5.05-10.67,1.26-12.48,1.52-2.77.41-21.6,1.3-18.52-4.49,1.9-3.58,17.31-5.33,22.47-7.54,12.96-5.56,27.1-19.93,31.51-33.46l-19.75-3.75c-5.55,30.14-53.35,34.16-56.28,1.75-7.14.84-32.25,2.36-35.11,7.99-.26,11.02,13.54,22.81,23.14,27,5.71,2.49,37.7,6.28,20.92,13-13.22,5.3-43.1-11.11-50.02-23.91-10.82-20-1.83-33.28,5.12-52.09-10.19,1.53-14.91-6.95-3.12-8.11,31.31-3.1,43.79-4.79,71.71-20.29,4.53-2.51,21.62-17.21,25.38-13.6Z"/>
  <path class="st0" d="M924.02,1476.03l18.84,12.11c13.25,22.67-10.3,2.83-19.75-.25-13.28-4.33-27.13-5.09-40.3-.08-5.12,1.95-2.92,4.86-.54,8.92,7.79,13.3,9.87,6.08,18.9,5.44,29.62-2.12,45.04,19.03,30.94,45.67,11.52,3.47,18.84,17.53,31.73,16,5.72-13.47,4.14-25.96-1.45-39.22-2.1-4.98-19.31-25.45-6.24-21.8,9.59,2.68,19.82,25.64,21.38,34.65,4.82,27.91-13.37,45.98-39.52,50.56l3.99,11.96c-4.39,4-22.26-14.09-27.36-17.62-25.68-17.74-39.74-16.64-67.54-24.46-4.49-1.26-7.22-3.35-4.07-7.93,15.18-1.84,42.95,4.5,56.98,11.02,17.09,7.93,26.78,26.63,48,14.97,1.09-4.75-.83-3.22-2.6-4.43-29.08-19.96-55.06-42.86-73.42-73.53-12.12,11.79-3.81,31.47-1.98,45.99-14.91,1.19-13.25-30.71-11.82-40.82,1.55-10.92,9.66-20.38,19.88-24.12,5.57-2.04,26.14-4.25,27.51-5.5s-.23-5.55,4.89-8.1c16.37-8.12,62.49,1.56,69.92,19.21,4.45,10.56-14.17-2.06-18.42-3.62-11.97-4.41-25.38-9.83-37.95-5.01Z"/>
  <path class="st0" d="M1059.41,1076.43c4.77-1.09,10.29-.69,15.11.06,10.27,1.6,51.91,24.37,57.51,32.47,1.7,2.46,3.72,3.58-.01,6.06-6.01,4-13.59-4.75-18.69-7.37-9.18-4.7-40.7-22.3-48.34-21.84-8.72.52-33.74,26.21-36.21,34.14-2.6,8.32,11.78,27.64,2.96,44.79-35.61,35.35-65.29,73.95-105.95,104.05-6.49,4.8-18.24,14.62-25.66,16.35-33.01,7.67-91.46-25.86-114.94,19.06-2.79,5.33-10.87,51.9-20.25,37.86-7.03-10.53,9.3-47.91,19.03-57.08,44.26-41.7,85.63.48,123.36-16.64,39.03-31.69,73.57-69.2,109.58-104.42,11.04-17.89-2.38-32.83,2.6-47.38,3.33-9.7,30.01-37.86,39.89-40.11Z"/>
  <path class="st0" d="M1141.99,921.99l-9.01-1.97c-5.64-14.15-11.83-55.56-21.53-65.47-6.54-6.69-43.38-6.14-51.35-1.45-6.33,3.72-11.36,23.9-23.35,30.63-9.83,5.51-35.11,1.6-47.83,2.19-40.62,1.87-76.52,4.96-117.36-2.47-51.78-9.43-51.85-85.75-114.11-72.99-9.97,2.04-29.67,19.64-34.54,19.57-5.4-.07-5.94-6.81-4.63-10.71.83-2.48,28.92-19.3,33.25-20.79,20.67-7.09,49.52.98,65.47,15.48,22.43,20.4,27.63,56.32,64.03,59.97,42.47,4.26,92.32-2.55,135.8,1.85,25.43-3.47,26.24-27.63,41.09-32.91,11.19-3.98,39.56-4.27,50.89-.72,23.15,7.26,30.32,58.57,33.18,79.8Z"/>
  <path class="st0" d="M1053.45,420.29c3.64-.96,26.14,4.54,31.01,6.25,22.88,8.06,39.7,32.25,41.62,56.38,2.07,26.02-14.42,60.77-1.35,83.35,19.98,34.53,74.69,70.62,99.46,104.54,14.82,15.25,35.27,1.12,51.91,6.09,12.85,3.84,39.64,31.84,40.09,46.07.42,13.45-13.22,38.04-20.57,49.62-4.61,7.26-19.18,31.23-19.27,10.83,6.2-13.62,30.35-46.93,29.81-60.39-.38-9.64-25.03-34.33-33.65-36.59-7.56-1.98-23.34,5.42-33.51,5.15-17.17-.45-18.59-10.87-27.99-19.6-23.74-22.04-99.44-88.1-104.51-117.49-5.75-33.37,24.33-85.65-16.66-111.34-9.64-6.04-36.45-8.9-39.85-12.14-4.03-3.84-1.02-9.55,3.48-10.74Z"/>
  <path class="st0" d="M1172,1674c-12.18,3.57-25.21-20.49-28.99-30-8.33-20.94-2.26-48.9,11.97-66.02,16.19-19.47,54.62-32.42,60.15-57.85,9.56-44.01-1.21-103.26,2.75-148.99-2.81-18.21-26-22.46-31.45-36.55s-6.42-45.09,1.57-57.58c8.34-13.04,40.91-20.97,55.94-24.06,4.62-.95,23.77-6.04,22.06,2.04-1.86,2.09-3.93,4.33-6.53,5.49-14.74,6.59-39.18,8.56-55.48,16.52-18.88,9.21-10.23,37.55-8.51,54.54,11.6,9.26,27.68,14.54,34.1,29.9-1.23,53.7,7.97,112.27-4.09,165.07-7.25,31.74-49.4,41.08-65.82,70.18-12.31,21.82-9.27,33.75,1.95,54.72,4.02,7.51,12.76,12.22,10.38,22.61Z"/>
  <path class="st0" d="M2015.4,1231.43c-3.14,3.68-29.86,19.1-34.85,20.12-58.98,12.05-66.56-31.48-95.77-61.33-13.26-13.55-25.97-14.74-44.1-16.07-41.98-3.09-85.39,1.92-127.57-.04-17.52,2.93-22.49,26.84-35.95,32.05-14.17,5.48-49.79,6.1-61.16-5.15-9.42-9.32-25.33-60.15-21.67-71.69.63-1.97,2.41-3.78,4.65-3.31,3.9.89,8.79,26.14,10.49,31.53,2.48,7.87,8.58,29.94,12.8,35.2,9.7,12.1,37.96,5.51,51.71,4.23,9-9.89,11.05-23.04,23.37-30.63,12.8-7.9,48.83-3.88,65.75-4.25,35.85-.79,71.36-3.44,107.03,4.81,38.71,8.95,42.31,66.99,89.05,72.93,26.73,3.4,40.72-19.14,52-19.84,8.01-.5,8.43,6.53,4.23,11.44Z"/>
  <path class="st0" d="M1469.99,797.99l1.17-8.2c13.23-3.83,59.25-13.34,66.9-22.72,5.67-6.95,5.68-43.85.85-50.98-1.83-2.7-14.26-7.44-18.96-11.04-22.53-17.22-12.79-32.84-13.87-58.13-1.7-39.67-6.73-90.73,4.45-129.39,7.25-25.06,51.09-39.14,65.12-64.88,15.52-28.48,2.09-48.21-13.31-72.02-.33-3.73,4.65-7.47,8.31-6.44,28.71,28.52,35.15,66.83,7.4,98.86-19.43,22.43-56.35,29.57-60.06,63.94-4.6,42.59,2.77,94.06-1.81,137.84,3.02,22.19,25.97,24.28,32.25,39.75,4.88,12.02,5.65,43.21,0,54.85-8.77,18.06-59.37,29-78.43,28.57Z"/>
  <path class="st0" d="M1453.21,1258.2c3.25-1.02,6.65.57,6.49,4.39-5.6,15.95-30.24,47.43-31.11,62.71-.54,9.56,26.99,36.67,34.89,38.32,3.92.82,18.17-5.26,25.44-5.69,24.11-1.43,21.57,6.69,35,19.15,20.34,18.87,42.32,36.38,61.11,56.89,8.63,9.42,40.45,47.42,42.52,57.48,7.45,36.19-25.54,90.27,20.35,115.65,8.56,4.73,41.26,8.15,39.99,15.66-1.87,11.02-38.68.11-46.01-3.65-5.28-2.71-11.95-9.54-15.93-14.07-39.68-45.19,4.5-87.27-15.53-122.47-19.07-33.51-74.84-70.09-98.6-103.4-21.02-15.66-24.55-5.08-44.85-5.17-15.69-.06-49.24-32.58-48.82-48.8.27-10.64,27.12-64.53,35.06-67.01Z"/>
  <path class="st0" d="M1969.5,706.45c7.71,8.07-7.71,46.12-15.45,54.6-46.24,50.65-95.75-6.82-138.08,27.92-33.72,27.69-64.36,65.56-96.84,95.16-12.18,14.62,1.01,34.47-4.22,49.78-3.96,11.59-33.04,39.4-46.07,39.95-11.29.47-68.91-29.15-68.81-36.86,0-.29,3.24-3.71,4-4.1,3.81-1.94,22.56,11.39,27.92,14.14,8.09,4.16,31.15,17.13,38.78,16.37s32.89-26.24,34.87-32.87c3.37-11.25-11.24-31.2-1.7-47.65,4.37-7.54,27.29-26.45,35.12-34.88,24.93-26.85,52.87-60.12,85.16-78.84,33.3-19.31,81.88,19.59,117.85-14.15,8.16-7.66,12.13-20.24,15.06-30.94,1-3.64,1.81-28.74,12.4-17.65Z"/>
  <path class="st0" d="M1345.99,2028.02c.2,18.68-36.45,6.49-48.43,3.41-85.61-22.05-130.04-88.66-137.55-174.45-.83-9.51,1.92-25.65-.43-33.57-1.37-4.61-15.4-14.67-19.27-20.73-7.76-12.17-7.73-33.53-6.29-47.65,3.06-30.06,36.96-38.48,29.98-71.02,14.16-.54,11.45,26.68,6.01,35.01-15.52,23.72-30.96,25.08-25.84,61.81,2.83,20.27,24.72,29.48,27.46,38.62,1.86,6.21-1.92,11.58-1.71,17.47,1.67,45.9,13.78,79.04,40.41,115.76,34.38,47.41,78.02,67.64,135.66,75.36Z"/>
  <path class="st0" d="M759.99,1348.01c6.53,4.82-13.1,23.6-17.24,25.74-8.21,4.23-26.95,2.2-38.38,5.62-25.17,7.54-36.82,28.77-38.45,53.73-.39,5.94,3.82,9.84.63,16.4-2.6,5.35-8.23,5.15-11.6,8.45-42.18,41.28-61.38,102.41-56.93,161.02,2.78,36.62,23.01,69.25,43.8,98.25-7.78,14.01-18.19-3.37-23.46-10.59-57.95-79.5-48.07-166.4,13.68-239.58,4.65-5.51,21-18.88,22.91-23.09,2.89-6.38.21-20.13,1.52-28.48,2.49-15.86,23.4-37.49,37.39-44.61,15.44-7.85,31.44-3.75,44.23-7.77,7.66-2.41,12.43-15.15,21.88-15.1Z"/>
  <path class="st0" d="M1397.48,10.32c5.21-.9,22.17,3.3,28.53,4.66,84.77,18.19,140.78,80.91,147.95,168.05.97,11.85-2.25,30.78.92,41.08,1.99,6.47,14.34,14.58,18.77,21.23,13.98,20.95,9.76,57.09-4.8,76.53-3.88,5.18-13.26,11.48-15.35,16.65-3.95,9.75,2.64,20.83-6.51,27.45-6.7,0-5.66-25.73-4.58-30.54,1.51-6.71,19.3-22.26,23.94-32.06,15.64-33.07-2.13-52.63-23.57-75.32,8.68-92.44-51.78-177.74-141.11-200.72-7.58-1.95-26.4-2.97-31.69-6.31-4.55-2.87,3.66-10.03,7.5-10.69Z"/>
  <path class="st0" d="M2063.97,1750.01c.36.25,2.12,6.99,1.74,8.57-1.59,6.6-29.32,23.73-36.37,27.76-72.82,41.69-148.22,31.29-212.3-20.39-7.81-6.3-23.46-25.44-31.08-28.92-6.55-3-21-.04-30.08-1.92-21.96-4.54-44.74-34.79-47.67-56.33-1.68-12.31,2.64-18.73-5.35-30.65-2.98-4.44-12.11-9.26-10.86-15.1,1.1-5.17,8.82.12,10.67,1.3,22.02,14.07,13.44,32.78,19.89,54.11,7.23,23.93,28.51,36.08,52.54,37.64,5.58.36,10.97-4.04,16.37-.61,51.65,63.76,150.81,88.3,225.25,52.25,14.93-7.23,27.03-18.68,40.22-25.78,1.86-1,5.08-3.3,7.03-1.93Z"/>
  <path class="st0" d="M2379.49,1048.52c4.83,5.73-.78,27.75-2.47,35.5-20.18,92.66-85.96,139.79-178.04,147.96-9.06.8-23.96-1.82-31.57.43-3.21.95-16.48,15.59-22.77,19.23-13.69,7.93-37.33,8.66-52.76,5.47-19.83-4.09-29.35-26.33-47.05-28.95-3.55-.53-32.11-.84-13.82-8.15,28.79-11.5,38.3,15.57,59.59,24.38,14.01,5.8,33.61,5.8,46.88-1.92,6.99-4.06,22.72-21.14,25.96-22.11,6.18-1.85,10.61,1.82,15.56,1.64,45.7-1.73,76.55-12.3,113.63-38.37,48.34-33.99,72.1-78.48,77.38-137.64,2.71-.06,7.76.48,9.48,2.53Z"/>
  <path class="st0" d="M773.55,238.55c56.3-6.35,102.21,10.38,145.39,45.51,7.73,6.29,23.58,25.53,31.61,28.47,3.43,1.25,20.82-.06,28.25,1.66,14.23,3.31,35.41,23.07,41.99,36.01,8.49,16.68,4.01,30.16,7.69,44.31,1.98,7.63,12.94,13.07,15.5,20.46-2.08,10.67-23.64-10.14-25.74-14.22-4.31-8.38-2.28-28.74-5.6-40.4-3.63-12.74-19.36-30.05-32.18-33.82-10.59-3.11-32.63-.63-38.49-3.51-1.36-.67-10.42-12.81-13.96-16.04-33.51-30.6-65.9-44.83-111.28-50.72-57.36-7.45-98.76,10.05-143.76,43.7-11.3-12.87,15.48-26.68,25.18-32.78,21.61-13.58,49.79-25.73,75.38-28.62Z"/>
  <path class="st0" d="M707.99,827.97c-1.52,2.34-26.49,2.84-30.58,1.62-3.39-1.01-21.28-18.25-28.03-21.97-22.65-12.49-42.65-9.32-62.33,6.42-4.07,3.25-13.11,14.78-16.49,15.67-3,.8-17.3-2.04-23.64-1.79-38.96,1.51-66.75,11.97-98.73,33.26-52.7,35.07-76.82,79.95-84.21,142.83-16.53-2.32-8.92-23.84-6.61-35.65,16.93-86.58,81.55-143.37,169.67-150.33,11.39-.9,27.2,1.88,37.55-.45,7.18-1.62,19.13-17.4,28.01-21.99,18.38-9.51,52.73-6.32,69.29,5.54,6.99,5.01,11.94,14.48,20.66,17.34,8.41,2.75,15.38.36,23.5,2.5,2.21,1.04,2.7,5.85,1.95,7.01Z"/>
  <path class="st0" d="M1974.01,699.99c-3.9-3.73,14.52-23.4,18.02-24.96,7.74-3.46,30.46-2.14,41.96-6.04s27.08-18.84,31.08-30.92c3.48-10.52,1.48-36.16,3.9-40.1,1.32-2.14,8.06-3.9,11.14-6.86,46.37-44.67,68.51-124.11,52.19-186.4-7.1-27.11-24.05-51.25-40.05-73.71,11.25-15.83,29.64,18.62,35.36,28.4,45.2,77.22,32.56,154.8-23.66,221.56-5.37,6.38-22.19,19.79-24.51,25.66-1.45,3.67.18,21.13-1.98,29.84-5.28,21.33-33.21,44.45-54.67,47.34-10.53,1.42-19.9-2.25-29.8,4.2-6.2,4.04-9.18,14.26-18.98,12Z"/>
  <path class="st0" d="M1441.99,306.01c-4.5,18.5-7.87,38.34,4.02,54.98,5.87,8.22,19.02,14.28,22.43,23.57,2.25,6.14.4,13.92,2.53,17.47,4.2,7,32.63,11.51,41.02,9.98.87,4.57-.28,3.19-2.55,4.46-11.59,6.48-28.24,3.78-39.42-2.47,1.47,11.27-10.36,50.67-7.07,57.93,3.09,6.81,11.02,8.63,15.34,22.78,7.76,25.41,8.02,56.83,11.7,83.28-5.09.89-3.61-.77-4.89-3.99-10.92-27.31-4.78-61.36-22.11-85.99.49,15.49,12.98,37.53-.52,50.02-17.92,16.58-50.08,18.6-67.49-.01-8.99-9.61-10.75-25.96-24.97-24.01l1.16,6.17,6.81,1.84c.55,2.93-4.65,3.31-6.26,2.99-26.27-5.11-8.47-40.68,20.36-12.11,19.01,18.83,14.26,33.59,50,24.18,26.48-6.97,13.14-20.91,11.95-40.13-2.11-33.9,8.11-71.92,3.79-103.79-2.92-21.58-18.03-16.12-24.69-27.31-8.56-14.4-5.62-42.69,3.68-56.1,1.68-2.42.08-4.88,5.17-3.75Z"/>
  <path class="st0" d="M1040,490.02c-5.75,16.01-16.38,24.98-31.99,30.97l34,44c31.86.61,63.11,28.96,86.92,49.08,3.21,2.71,9.58,5.56,9.07,9.92-30.37-7.93-50.69-41.05-81.98-45.97l32.48,24.47c6.03,13.93-5.24,37.67-15.41,47.59-17.71,17.28-38.22,8.34-59.77,6.14l-3.31,7.76,9.97.98c-24.04,20.87-35.58-15.56-3-18.97,23.94-2.51,34.41,12.36,52.97-11.05,5.25-6.63,12.26-16.83,9.66-25.52-.91-3.05-33.21-27.76-39.67-34.38-13.19-13.52-50.84-65.35-67.12-67.05-8.48-.89-15.54,6.27-27.41,3.57-13.64-3.1-35.02-30.91-35.41-45.56,4.16-.91,4.54,2.15,6.44,4.54,10.46,13.24,19.83,27.49,38.54,29.44,10.21,1.07,20.23-2.71,29.79.19,15.62,4.73,9.5,16.74,30.58,6.17,3.78-1.89,23.07-17.87,24.64-16.34Z"/>
  <path class="st0" d="M1823.99,1583.99l-19.97-23.01c-6.76-5.74-18.37-12.46-27.31-12.87-8.21-.38-15.26,3.5-25.26,1.42-7.94-1.65-13.4-10.36-16.85-11.24-9.07-2.32-31.6,15.68-38.58,21.71l8.91-18.07,21.06-14.9-33.28-42.9c-38.63-1.04-67.39-36.43-96.7-58.11,30.92,6.03,50.93,38.64,81.98,45.98,1.21-5.43-1.61-3.42-3.96-4.95-20.41-13.32-35.76-16.95-26.63-44.65,7.18-21.79,23.9-36.29,47.59-34.37,3.73.3,33.52,10.49,31-.99-1.5-6.82-15.5,2.92-10.02-4.06,20.68-17.59,32.5,12.26,10.09,18.09-27.56,7.16-43.13-13.88-63.72,16.28-18.7,27.39,1.24,28.11,18.63,42.71,23.51,19.75,45.56,59.02,69.18,74.82,17.11,11.45,21.63.07,34.33,1.5,17.03,1.93,40.62,30.03,39.53,47.62Z"/>
  <path class="st0" d="M920.02,1336c15.81-15.01,16.22-37.65,42.5-33.51,23.43,3.7,43,24.19,41.44,48.48-.69,10.82-12.88,30.81,4.02,31.02l-1.98-9.98c8.72-.21,9.94,15.5,6.17,20.7-7.61,6.5-18.81-.53-21.28-8.61-8.86-28.97,17.76-47.34-20.87-67.13-25.26-12.94-24.28,4.54-37.98,20.07-17.86,20.25-68.47,55.66-77.76,74.23-6.53,13.05,2.69,20.5,1.36,31.21-1.83,14.69-31.9,40.23-47.63,39.51-.43-6.21,7.22-6.72,11-9.98,6.44-5.58,18.07-17.1,21.37-24.63,6.58-15.03-.56-23.72,2.1-37.91,3.06-16.33,18.36-12.16,5.94-34.88-2.73-5-16.3-18.31-16.37-19.59-.13-2.43,2.7-2.42,5.27-1.35,11.51,4.77,23.65,17.46,24.71,30.35,7.65-7.94,44.03-28.58,47.05-36.04,1.02-2.53-1.06-7.35-.3-12,4.29-26.12,41.01-60.15,56.24-81.95,2.48,1.97.47,7.02-.57,9.43-10.13,23.69-39.53,45.05-44.42,72.56Z"/>
  <path class="st0" d="M759.99,879.99c2.59,14.61,3.67,27.98-1.99,42l53.17,7.84c29.42-26.46,73.67-22.13,110.84-27.81-3.19,5.79-12.3,7.18-18.32,8.66-23.23,5.69-52.45,3.44-71.67,18.33,18.09-.46,37.47-14.76,50.85,3.13,17,22.71,15.92,50.98-6.82,68.91-1.57,1.24-31.58,17.92-17.02,20.94,4.4.91,5.42-10.35,8.96-5.98,3.13,3.87-9.23,25.28-19.08,14.11-19-21.54,29.71-40.45,32.67-53.55,2.18-9.64-.84-38.18-11.45-41.69-9.7-3.21-20.96,2.6-31.05,3.18-33.64,1.95-72.45-8.32-103.89-3.89-21.12,2.98-15.27,27.6-44.21,29.79-8.36.64-37.47-2.69-40.96-11.01-2.46-5.88,12.91.6,15.2.81,14.85,1.38,31.3-.48,42.83-10.74,9.37-8.35,10.1-18.2,25.13-20.87,3.66-.65,10.41.8,12.52-.49,5.71-3.49,9.05-31.54,10.38-38.64.61-3.26-1.36-3.47,3.92-3.05Z"/>
  <path class="st0" d="M1928,568.02c-11.99,10.57-33.11,23.95-35.88,41.1-1.71,10.62,2.61,22.03-.19,31.7-4.5,15.53-16.33,11.21-6.73,30.99,4.38,9.03,13.11,15.21,16.79,24.18-16.2-3.48-24.4-16.02-30.99-29.95-6.61,8.31-42.48,28.04-44.6,35.37-4.29,14.88-1.02,18.7-10.79,35.21-11.78,19.9-32.15,42.19-47.6,59.38,7.23-30.77,40.35-50.58,45.96-82-17.29,17.87-15.8,39.73-45.98,31-27.47-7.94-38.91-25.72-36.01-54.02.92-9.03,10.65-22.22-3.97-24.98l-3.98,9.99c-13.04-24.4,15.03-31.04,21.03-8.05,7.18,27.48-16.81,44.63,19.61,64.39,24.91,13.51,22.85-2.98,36.31-18.36,15.75-17.99,79.88-66.78,82.68-83.48,1.14-6.79-4.58-14.19-3.75-23.49,1.4-15.66,31.3-41.94,48.09-38.98Z"/>
  <path class="st0" d="M1271.98,1560c-1.31-22.8-16.83-40.57,8.62-54.41,13.4-7.29,31.38-10.84,45.88-5.06,16.02,6.39,24.59,32.76,31.38,34.66,2.68.75,5.58.4,6.13-2.21s-12.31-9.42-2.97-9.03c26.89,1.11,13.93,38.84-15.06,15.1-18.79-15.38-12.16-32.59-44.74-28.82-34.07,3.94-22.26,15.92-21.14,38.71.74,15.08.54,33,.01,48.15-.64,18.41-8.83,53.88.14,69.7,3.58,6.32,15.01,8.53,19.83,14.17,11.31,13.25,5.81,46.45-2.08,61.03l-3.99-1.01c1.97-14.02,4.66-33.75-.98-46.98s-23.69-17.65-28.15-33.85c-1.23-4.49.1-10.93-1.81-14.19-3.19-5.47-33.69-10.51-41.04-9.98,11.79-11.97,29.89-4.94,43.99-1.99-3.43-16.05,9.89-42.27,5.59-56.59-1.02-3.41-6.85-6.83-9.25-10.74-15.19-24.7-11.34-68.5-18.32-96.66,4.21,1.59,6.03,5.6,7.47,9.51,9.03,24.61,3.43,59.55,20.49,80.49Z"/>
  <path class="st0" d="M2013.45,1109.45c2.95-3.04,3.94-10.23,9.46-15.54,13.67-13.16,50.93-10.65,63.09,4.07-13.84-1.1-28.19-3.96-42.12-1.1-23.61,4.85-26.87,36.3-55.57,31.44l-11.33,41.66c-8.09-14.85-5.04-29.23,1-43.98-16.57,3.19-39.67-8.95-54.95-5.96-5.03.98-8.63,7.39-13.63,10.36-23.49,13.96-68.65,10.52-95.4,17.58-.77-4.8,3.02-5.3,6.37-6.61,25.77-10,58.44-5.58,83.6-19.41.43-3.72-4.21-1.66-6.4-1.41-28.09,3.17-42.65,15.87-53.88-21.28-6.94-22.97-2.99-36.22,15.34-51.24,4.13-3.38,16.47-9.03,17.96-12.04,4.84-9.77-4.86-12.2-7.05-2.01l-3.83-2.96c5.63-24.65,31.47-16.3,20.88,6.98-12.22,26.85-43.99,16.09-32.01,59.99,7.42,27.18,15.26,15.19,34.03,14.01,15.44-.97,34.46-.63,50.06-.1,16.34.56,62.82,9.41,74.37-2.46Z"/>
  <path class="st0" d="M1262.03,579.98c-5.46-3.73,6.13-49.67.17-57.19-4-5.04-29.98-5.69-38.27-7.73-9.11-2.24-16.71-7.96-25.86-9.02-7.73,37.78-6.73,75.74-8.08,113.94-10.64.49-12.49-5.42-12.05-14.9l8.07-100.11c-1.1-5.73-15.92-11.6-21.08-16.91-19.19-19.75-24.18-51.67-17.53-77.67,3.07-12.02,16.35-42.23,27.9-21.38-17.26,20.61-21.82,40.4-13.9,66.58,10.38,34.31,39.09,39.83,70.18,47.82,37.76,9.69,44.51-4.05,42.5,43.66-.26,6.24-1.15,20.45-2.13,25.87-.8,4.38-6.46,9.39-9.92,7.03Z"/>
  <path class="st0" d="M1851.74,1273.76c3.36-5.4-17.36-29.5-21.8-34.71-15.28-17.92-32.84-33.91-48.95-51.06-4.31-7.16,4.58-9.07,10.42-6.53l72.63,83.59c36.33-9.38,69.8,2.21,90.41,33.48,5.53,8.39,16.29,27.86,10.55,37.48-1.5,2.52-8.39,5.18-11.13,3.15-2.53-1.88-4.82-23.91-8.78-31.27-6.23-11.57-24.17-25.04-36.36-29.64-26.85-10.13-41.01-1.08-64.08,11.4-9.23,4.99-41.59,28.58-47.7,28.51-10.23-.12-31.55-32.28-40.96-39.16-1.79-2.64-6.49-11.58-.96-13.01,9.81-2.53,30.18,37.2,42.11,37.97,9.45.61,39.42-30.71,54.6-30.21Z"/>
  <path class="st0" d="M921.5,1122.47c.75.68,2.67,4.34,1.65,5.57-5.58,9.3-47.01-4.73-56.29,1.82-6.45,4.55-5.82,24.27-7.75,32.24-2.05,8.47-14.45,31.97-4.08,33.87,34.66,6.35,70.65,3.47,105.69,6.31l2.42,3.78-5.11,6.94-112.69-7.1c-18.93,37.88-63.09,50.7-101.87,35.63-6.12-2.38-21.84-11.76-18.55-19.47l6.07-5.57c24.17,21.17,52.37,23.08,80.8,8.28,19.47-10.14,23.59-26.35,29.65-46.35,3.13-10.32,10.67-55.2,15.42-58.58,8.8-3.53,59.68-1.88,64.64,2.62Z"/>
  <path class="st0" d="M1125.99,1410.01c6.54,6.42-23.53,26.66-28.02,30.96-20.62,19.79-2.8,23.2,8.41,41.64,4.87,8.02,9.15,18.26,11.7,27.33,3.24.61,5.94-.65,8.66-2.2,7.5-4.3,24.8-19.38,32.2-25.79,15.54-13.45,29.25-29.67,45.06-42.95l5.98-.99.42,11.11-83.51,70.9c8.52,33.18.85,64.01-25.93,85.94-8.13,6.65-44.14,28.53-48.76,10.67-2.62-10.11,19.25-9.23,27.2-12.23,17.96-6.77,36.73-34.75,38.61-53.38,2.4-23.77-19.32-56.08-31.95-76.07-7.88-12.47-19.55-16.41-6.1-32,3.81-4.42,33.94-31.39,37.55-32.45,2.79-.82,5.65-.6,8.49-.49Z"/>
  <path class="st0" d="M1682.01,439.99c-32.89-3.11-63.35,30.28-65.84,61.26-1.39,17.25,16.01,45.42,25,60.58,8.43,14.23,25.83,27.29,14.83,43.16-1.8,2.6-28.89,27.66-32.12,29.86-5.53,3.76-9.34,5.91-15.87,3.12-4.1-5.76,25.1-26.3,30.02-30.96,2.74-2.59,9.86-8.54,9.95-11.98.13-5.04-17.6-25.69-21.58-32.44-4.06-6.87-7.43-23.55-15.3-22.7l-84.06,72.09c-4.81-3.36-3.64-11.4-.43-15.41l80.46-66.6c1.29-11.26-3.88-21.07-2.88-32.75,2.12-24.79,18.4-47.96,39.16-60.88,12.08-7.52,41.11-21.2,38.65,3.64Z"/>
  <path class="st0" d="M1548.34,1547.69c37.26,15.42,48.47,57.04,38.22,93.87-3.21,11.52-15.15,37.78-26.57,19.52,3.13-9.62,11.17-13.57,14.11-23.99,6.05-21.41,2.06-48.47-12.1-66.09-9.92-12.34-35.3-19.11-50.74-23.26-11.01-2.96-35.13-5.16-43.21-8.79-3.65-1.65-7.28-8.09-7.93-12.06-.84-5.16,1.16-44.39,2.3-49.47,1.74-7.77,10.19-14.86,11.67-2.52,1.36,11.38-6.2,42.5-1.12,51.12,12.18,6.84,27.14,5.06,41.03,8.97,7.66,2.16,14.1,7.21,22.08,8.18,3.12-2.42,7.5-43,7.9-50.19.98-17.73-2.8-44.08.03-59.97,1.93-10.82,11.77-.3,13.08,5.89l-8.76,108.78Z"/>
  <path class="st0" d="M1812.29,925.74l.59-5.85c4.1-5.4,47.45,3.42,56.83-.17,5.33-12.1,4.07-24.72,7.27-37.73,3.07-12.48,16.61-26.5-.47-29.5-10.35-1.82-28.94-3.84-39.54-4.46-17.71-1.03-44.13,2.83-59.97-.03-7.17-1.3-6.46-6.95-.85-10.9,6.64-4.67,46.05,2.08,56.86,2.89,7.94.59,16.02-.56,23.95.05,8.34.64,28.29,7.14,34.05,1.99,1.72-1.54,5.3-10.32,8.15-13.84,20.93-25.85,58.77-32.3,89.28-21.63,10.73,3.75,32.97,16.42,14.54,25.52-2.65-.03-17.91-13.35-24.93-15.13-25.58-6.49-62.43,2.23-75.03,27.1-12.26,24.2-13.39,51.15-19.9,76.1-4.8,18.38-23.13,10.49-36.15,9.89-11.88-.55-24.42,2.64-34.68-4.29Z"/>
  <path class="st0" d="M954,867.99l-14.16-2.83-67.91-80.2c-5.78-2.59-17.53,3.08-24.94,3.2-26.49.43-52.42-16.19-66.24-37.9-4.8-7.54-22.26-40.35-3.75-40.45,10.43-.05,5.89,9.43,7.48,16.72,5.42,24.68,35.72,48.07,60.6,49.5,15.68.9,42.8-14.97,56.77-23.19,10.12-5.95,26.55-21.98,37.19-21.02,11.2,1.01,30.91,31.71,40.71,39.44,2.74,2.83,3.51,11.81-.76,12.74-6.67,1.44-31.67-38.58-40.24-39.48-8.03-.85-18.59,11.77-25.26,15.95-9.32,5.85-19.76,8.99-28.05,13.95-1.97,1.18-3.83,1.6-3.5,4.53.03,2.72,28.74,38.26,33.06,43.08,8.34,9.31,31.76,27.72,37.12,36.87,1.87,3.19,2.42,5.38,1.9,9.09Z"/>
  <path class="st0" d="M395.24,1294.16c9.49-3.09,14.43,14.09,19.1,20.5,34.64,47.64,123.07,83.21,180.69,87.31,14.78,1.05,31.79-1.63,46.07-.07,7.55.82,8.47,4.38,2.83,9.03-5.28,4.34-43.65,5.35-52.9,5.05-66.38-2.14-154.71-36.8-189.86-96.14-2.8-4.72-14.45-22.9-5.92-25.68Z"/>
  <path class="st0" d="M485.29,528.24c16.46-5.41,3.48,23.33,2.73,30.78-7.8,77.34,41.46,171.35,101.03,218.94,2.11,3.33,1.23,6.17-2.34,7.87-2.4.77-4.5-.1-6.76-.72-14.85-4.1-62.21-60.86-72.01-76.04-23.47-36.37-34.37-82.75-36.02-125.96-.35-9.29,3.83-51.72,13.36-54.86Z"/>
  <path class="st0" d="M1127.99,1802.01c1.35,18.59-20.94,37.09-33.96,49.02-34.94,31.99-70.33,53.91-117.66,62.34-28.14,5.01-76.49,11.95-101.79-2.95-4.57-2.69-6.59-4.48-2.75-9.58,5.02-6.13,22.23,2.48,31.1,3.23,64.59,5.45,145.58-30.18,193.1-73.04,7.02-6.34,19.75-23.81,24.87-27.13,2.45-1.59,3.99-2.47,7.09-1.89Z"/>
  <path class="st0" d="M1863.65,140.33c5.16,20.52-21.29,5.18-32.86,3.88-59.64-6.72-146.78,33.56-190.82,72.76-10.65,9.48-18.85,21.1-29.01,31.02l-4.73-3.29c-1.35-5.08.47-8.47,2.86-12.6,20.95-36.13,93.91-84.3,134.53-93.46,37.45-8.44,84.46-15.35,120.02,1.7Z"/>
  <path class="st0" d="M2087.99,647.99c-2.04-9.04,5.97-12.28,13.48-13.51,36.44-6,104.5,3.23,138.45,18.59,28.11,12.72,95.45,61.57,101.65,92.42.94,4.66,1.33,10.04-4.58,10.6-5.57-.06-20.07-27.26-26.21-33.87-49.63-53.45-151.47-82.57-222.8-74.22Z"/>
  <path class="st0" d="M1098.01,50c2.79,13.56-16,17.46-25.84,25.17-59.04,46.26-88.04,155.49-82.16,227.82-6.05,3.76-11.08-4.62-11.9-10.1-9.17-60.5,5.19-127.82,40.23-177.55,18.04-25.6,46.51-63.53,79.67-65.34Z"/>
  <path class="st0" d="M2147.27,1264.25c3.11-.73,6.17-.6,9.24.23,6.28,1.69,38.31,34.43,44.52,41.49,40.69,46.26,57.32,91.23,61.05,152.95.67,11.02-1.04,59.63-13.41,62.88-15.14,3.98-1.63-28.33-.92-35.05,6.14-58.07-31.43-141.11-68.73-184.78-5.12-6-33.41-31.01-34.12-33.93l2.36-3.79Z"/>
  <path class="st0" d="M1747.03,1744.01c6.3-1.31,10.17,12.59,10.73,17.22,9.4,77.18-14.59,147.18-65.72,203.82-8.38,9.29-40.42,38.7-52.77,34.78-17.3-5.5,19.29-22.54,22.54-25,47.61-36.12,81.01-129.66,84.26-187.75.66-11.89-3.03-26.8-2.26-36.09.19-2.26.83-6.49,3.21-6.98Z"/>
  <path class="st0" d="M1214.71,1163.29c10.96,9.57,17.61-2.75,30.77-4.81,7.2-1.13,25.89-2.05,28.26,6.82,2.86,10.72-17.25,4-24.57,4.87-4.9.58-17.31,4.36-18.8,9.22-3.37,10.91,5.98,15.42,10.02,23.22,6.93,13.39,11.46,25.91,9.61,41.37-3.59.79-3.94-1.07-5.66-3.32-5.46-7.13-7.56-19.58-11.96-28.04-15.23-29.31-50.62-77.44-85.5-82.52-14.71-2.14-27.46,10.87-35.91,21.84-12.74,16.54-6.79,30.92,3.37,46.73,1.66,2.58,23.83,25.2,12.64,27.33-7.9,1.5-27.37-26.47-30.41-33.55-13.7-31.85,5.95-57.19,34.08-70.83,24.6-11.93,45.89,4.21,64.42,20.32,7.02,6.11,13.6,16.05,19.65,21.34Z"/>
  <path class="st0" d="M1607.98,952c-.26,12.56-8.16,23.16-11.86,35.12-10.45,33.8-17.94,88.49,2.13,119.63,8.63,13.4,43.78,12.04,55.65,4.15,19.35-12.85,11.79-38.06,18.64-53.36,9.15-20.45,10.19,13.86,9.45,21.45-4.51,46.04-40.89,57.46-81.05,43.09-33.37-11.94-28.34-67.45-27.94-96.18-12.76-2.81-39.24-14.31-40.53-29.22-.24-2.84,2.87-9.45,6.5-8.66s13.12,22.65,30.29,23.93c15.14,1.13,12.05-17.57,15.3-28.39,3.8-12.66,12.79-23.91,23.42-31.56Z"/>
  <path class="st0" d="M1587.98,1142.01c2.84,2.98-6.8,7.44-8.63,8.34-9.86,4.82-20.35,7.6-30.7,13.32-28.03,15.48-72.07,50.15-76.26,83.88-1.84,14.79,22.9,39.04,36.57,40.53,10.78,1.18,17.89-2.32,26.87-7.23,7.17-3.92,19.43-16.5,24.07-18,12.44-4.01,7.39,7.91,1.87,13.94-22.05,24.09-54.48,33.23-79.85,8.29-47.37-46.57-5.21-79.7,29.77-114.36-4.24-9.75-10.8-18.95-11.57-29.99-.52-7.41,2.32-27.34,12.95-20.79,2.9,4.52-5.2,23.72,4.88,37.12,10.24,13.61,20.16-1.52,29.4-6.69,13.56-7.59,25.43-8.78,40.63-8.35Z"/>
  <path class="st0" d="M1332.25,857.75c-4.68-7.5,7.48-10.49,11.82-14.68,4.79-4.63,13.78-18.71,11.01-24.99-4.09-9.24-16.27-6.86-23.17-8.97-15.75-4.82-27.63-9.99-35.9-25.08,19.58,4.3,35.45,13.27,55.59,17.39,26.34,5.38,86.88,11.17,104.06-14.74,5.55-8.37,2.08-8.57,2.58-15.42,1.4-18.84,3.38-32.47-16.16-42.32-14.71-7.42-33.55-4.6-42.62-9.38-7.26-3.82-3.55-8.84,3.45-9.64,53.85-6.2,81.1,31.7,62.05,82.05-11.94,31.54-67.79,27.67-95.03,27.26l-2.85,2.77c4.22,11.47-27.39,47.67-34.82,35.76Z"/>
  <path class="st0" d="M1162.26,1023.74c12.68,3.08,33.73,11.03,38.66,24.35,1.97,5.32,1.94,13.73-5.63,11.66-8.32-8.86-15.96-20.99-29.23-22.94-14.14-2.09-12.23,16.19-15.05,25.21-4.42,14.15-10.28,27.97-25.01,33.97,16.03-42.44,34.56-95.35,16.96-139.95-3.8-9.64-8.32-20.4-19.43-22.75-2.2-.47-18.29-1.49-20.43-1.36-28.01,1.65-33.68,16.93-38.6,41.58-1.02,5.12,1.09,25.73-9.48,22.49-7.13-2.19-.62-35.77,1.53-42.43,10.61-32.91,39.77-36.19,69.85-28.96,44.1,10.61,33.7,64.12,35.86,99.14Z"/>
  <path class="st0" d="M1401.85,1190.15l.36,8.47c-11.72,3.77-27.79,24.73-20.37,36.07,2.8,4.27,20.17,4.96,25.79,6.68,12.27,3.75,26.34,11.51,30.35,24.63-40.46-16.16-90.53-32.68-133.52-18.54-27.37,9-31.07,16.27-28.52,45.61,2.27,26.12,18.87,29.99,41.62,34.38,3.96.76,24.17-.47,22.43,7.48-2.46,11.26-44.4,1.41-52.69-3.22-27.04-15.11-26.42-45.11-18.32-71.75,11.14-36.6,69.24-28.95,99.03-29.97-3.94-12.04,22-48,33.85-39.85Z"/>
  <path class="st0" d="M1148.01,905.99c-1.03-4.69.64-3.22,2.57-4.47,8.37-5.45,21.02-8.09,30.75-13.18,22.19-11.59,59.2-39.16,71.03-60.97,13.35-24.62,14.99-37.04-7.32-55.41-19.51-16.07-30.03-13.88-50.88-.79-6.22,3.91-15.43,14.5-21.33,14.84-17.48,1.03,5.84-18.6,10.21-21.96,31.1-23.96,59.19-18.67,80.58,13.33,16.89,25.26,14.04,34.68-2,59.26-10.52,16.12-23.84,27.52-37.36,40.79,4.87,15.45,12.13,23.81,9.54,41.4-1.02,6.91-6.95,17.47-12.93,9.25-1.82-2.5,5.29-23.85-3.91-36.02-10.17-13.45-18.73.23-28.35,5.55-14.07,7.79-24.14,10.03-40.59,8.39Z"/>
  <path class="st0" d="M1606.01,824.01c6.55-6.66,27.5,23.13,30.35,28.63,5.63,10.85,7.56,24.12,5.53,36.26-2.27,13.57-32.95,38.82-45.83,42.16-31.63,8.19-62.59-33.14-83.43-50.72-13.34,8.92-49.27,22.29-50.63-2.32,12.8,1.17,27.29,3.67,38.76-4.24,13.17-9.08-2.7-20.5-7.19-28.34-7.21-12.61-9.76-27.04-6.58-41.42,8.03,7.45,9.02,19.59,13.54,28.46,12.69,24.92,38.95,62.9,63.43,76.57,28.47,15.89,40.02,14.1,59.98-12.08,13.85-18.16,6.75-30.55-4.29-47.61-5.21-8.06-15.95-14.2-13.65-25.33Z"/>
  <path class="st0" d="M1120.01,676.01c1.15,10.11-10.37,38.7-21.99,27.99-3.22,21.09-20.94,38.78-38,50-1.81-2.44.96-53.41,2.44-60.54,3.1-14.9,11.7-22.82,27.46-21.55.47-25.37,19.52-27.5,40.03-20.86,3.23,1.05,17.13,7.68,17.89,10.25,2.03,6.94-13.2,18.81-18.52,18.31-3.24-.3-5.47-4.6-9.3-3.61Z"/>
  <path class="st0" d="M1018.01,1271.99c8.55-2.87,30.79,8.84,32.06,17l-4.06,4.98c19.96,3.51,41.55,19.47,49.98,38.01-17.77-1.28-59.2,3.12-73.04-7.94-9.33-7.47-8.26-21.02-9.09-21.92-.72-.78-13.25.15-19.01-7.99-10.68-15.09.67-36.38,8.34-50.3,7.93.11,19.68,11.37,18.86,19.07-.4,3.79-4.8,5.04-4.05,9.07Z"/>
  <path class="st0" d="M1665.33,1371.33c-4.89,4.89-14.54,7.17-21.32,6.68,3.01,34.27-42.06,25.36-57.84,8.73,4.37-11.07,16.88-22.93,27.81-12.74.3-10.81,11.07-40.89,24-28-5.97-11.35,29.06-50.26,35.03-49.95,2.7.14,2.57,4.18,2.49,6.36-.5,13.83-.3,28.91-1.54,42.55-.65,7.23-3.54,21.26-8.64,26.36Z"/>
  <path class="st0" d="M1774,1003l4.98-3c12.57,19.9,50.97,40.78,42.13,68.12-1.26,3.9-6.54,7.16-6.9,9.17-.44,2.48,7.23,10.2,7.78,15.91,1.75,18.31-28.14,33.67-43.74,32.55-4.08-10.94-5.26-27.13,9.76-27.78l-.02-2.95c-9.78-7.87-10.41-21.37-10-33.04l8.01-.98c-5.43-5.02-11.99-19.12-11.99-26.01v-32Z"/>
  <path class="st0" d="M948,950.02c-1.69,1.84,14.78,28.78,9.17,36.14l-7.16,2.83c14.01,16.62,11.12,40.85,9.97,61.01-.25.35-4.76-2.27-5.8-3.18-8.21-7.22-34.79-36.1-38.97-45.02-3.65-7.78-4.73-14.24-.75-22.34,1.45-2.96,7.51-7.89,7.5-8.45,0-.52-5.37-4.86-6.45-7.51-9.99-24.32,20.36-37.51,39.35-41.38,6.54,1.37,6.39,31.46-6.86,27.91Z"/>
  <path class="st0" d="M1719.99,748.01c30.96-1.72,27,27.76,17.1,48.06-5,10.25-5.43,13-15.12,4.95-9.47-7.87-11.41-11.61-5.97-23.02-8.08.31-17.52-4.36-23.85-9.15-6.83-5.16-9.83-7.28-4.14-14.84-21.21-1.21-37.4-19.63-49.96-35.02,2.32-3.44,3.12-2.6,6.39-2.49,13.86.49,28.84.35,42.54,1.52,19.58,1.66,34.81,7.21,33.02,29.98Z"/>
  <path class="st0" d="M1470,613.99c-11.33,2.34-28.33,6.25-29.02-10.01-11.13,7.1-22.38,11.21-35.9,10.15-2.07-11.83-4.55-3.66-11.06-1.11-16.14,6.34-35.3,6.69-52.03,2.94,1.72-7.15,8.91-8.32,14.02-12.95,15.01-13.6,30.65-38.45,54.05-32.07,4.09,1.11,9.25,6.48,11.3,6.8,3.01.47,6.99-6.23,12.07-7.36,21.31-4.74,34.08,26.5,36.56,43.6Z"/>
  <path class="st0" d="M1392.01,1432.01c1.61,7.39-6.95,8.36-12.03,12.97-16.31,14.82-34.23,43.89-59.38,31.42-2.69-1.33-7.1-6.32-7.6-6.32-.64,0-5.66,6.41-10.43,7.5-23.02,5.26-36.38-24.62-36.51-43.52,11.81-1.56,27.47-3.82,28.93,11.93,6.89-7.26,35.35-20.55,35.03-3.98l2.96-.02c15.35-14.43,39.61-10.92,59.04-9.98Z"/>
  <path class="st0" d="M1257.74,1648.25l.27,7.74c-24.28-1.69-52.39,8.01-58.02,33.97l10.66,1.85c17.05-26.78,35.49-14.45,50.74,5.86l22.59-1.66c.98,5.23-1.02,3.51-3.98,4.91-23.09,10.91-53.74,7.4-78,3.09-.49,20.1,10.72,16,23.91,21.07,8.53,3.28,16.57,7.49,25.08,10.77l40.99-21.84c5.69,6.02-27.51,26.36-31.14,30l5.14,17.98c-3.33,3.32-17.97-14.06-22.12-16.86-14.4-9.69-36.48-16.89-53.88-17.14l.02-5.99,6.04-1.01c-3.02-11.69-1.76-29.44-18.05-27-.72-7.95,12.71-.5,10-11.96l-12-2.04c-1.37-8.65,9.6-1.1,13.97-2.92,2.74-1.14,9.71-12.42,14.03-16.08,12.91-10.95,37.45-16.08,53.76-12.73Z"/>
  <path class="st0" d="M2105.99,1126.01c2.34,2.09-13.48,16.39-15.65,19.33-11.56,15.71-18.49,37.35-20.35,56.65-5.11,1.73-4.86-5.75-7.3-6.14-6.56-1.03-30.12,7.01-26.72,18.14-5.01-1.59-.76-13.14-8.81-9.83l-9.17,11.82c7.81-17.77-3.17-16.1-12.08-24.9-11.88-11.72-18.79-40.24-14.03-56.19l6.08-.88c1.64,24.82,6.75,48.96,32.96,57.98l4.92-11.78c-30.66-12.93-12.64-37.46,5.83-51.6l-3.67-20.59c5.44-6.26,11.74,22.67,11.97,25.01,1.75,17.65.48,39.86-3.98,56.96l17.59-4.4c2.03-15.92,8.49-30.49,15.66-44.58l-23.25-40.99c7.97-6.99,26.06,27.2,31.19,31.83l18.79-5.83Z"/>
  <path class="st0" d="M1729.79,1607.69c1.98-3.53-10.01-13.98,4.15-26.75,11.53-10.39,20.97-6.14,34.63-5.24l15.41-17.7c.09,15.71-16.58,34.55-27.95,45.02-3.69,3.4-24.74,17.05-24.02,19.95,12.26,13.31,23.45.84,36.63-5.34,5.99-2.81,12.62-4.09,18.85-6.15l12.53-45.48c2.69-.55,4.92.77,5.72,3.35,2.04,6.52-6.88,38.86-5.68,40.52,8.62-.04,25.08,11.46,9.32,11.42-20.61-.05-32.41,2.04-51.17,11.91-5.21,2.74-15.29,12.07-19.19,12.82-6.89,1.32.08-8.47-1.04-9.94-6.72-.64-13.83-8.37-19.57-9.72-6.38-1.5-8.49,4.37-14.41,3.6l5.99-11.97-17.99,3.97,11.75-11.39c-2.54-14.77-3.37-24.85,3.17-38.66,2.93-6.18,18.81-29.8,26.04-27.92,2.39,2.2,3.89,2.52,2.07,6.03-2.24,4.34-11.38,11.8-15.09,18.92-5.16,9.92-10.24,31.87-2.93,41.02,3.1,3.88,11.93-.8,12.77-2.29Z"/>
  <path class="st0" d="M778.6,1359.45l4.32,1.64c12.45-4.46,23.04-3.14,35.09,1.9,5.42,2.27,37.16,21.9,29.98,29-11.4.58-16.09-11.35-26.63-16.35-8.06-3.82-38.21-10.07-41.15,1.73-3.58,14.39,21.34.39,31.84,13.58,11.69,14.67,1.1,26.45,4.24,35.71,1.29,3.8,11.57,6.51,15.06,9.98,8.97,8.92-6.49,3.77-10.69,1.71-20.97-10.32-34.25-30.14-48.08-47.83-1.27-1.62.04-3.68-4.53-2.51-10.76,15.57-.5,22.23,6.32,36.62,2.52,5.32,4.02,15.63,6.74,19.26,5.4,7.2,35.33,11.55,44.89,12.11.57,5.21-2.88,5.6-6.89,6.09-12.09,1.49-23.83-4.24-35.8-3.91-6.1,2.05-2.31,16.35-11.29,15.8.48-18.68-2.48-35.57-10.3-52.7-4.5-9.86-11.93-17.35-15.7-27.28l9.91,1.98c3.16-13.83,17.29-20.64,4.08-33.97l13.99,3.97-3.97-15.99,8.58,9.45Z"/>
  <path class="st0" d="M1029.99,418.01l-3.98,13.98,16.01-4.97c-.47,5.5-8.07,5.3-9.65,10.36-2.32,7.43,2.78,18.45-.93,31.06-2.28,7.73-20.6,37.88-28.44,37.52-9.72-.45,10.16-22.19,12.04-25.92,7.14-14.18,10.35-30.62-.09-44.03-17.74,7.39,2.28,21.21-15.93,34.01-11.69,8.21-22.76,1.11-33.62,4.38-7.12,2.15-6.2,15.69-15.38,15.6,6.74-27.82,32.09-46.91,53.95-62.99-14.44-14-21.18-2.38-34.61,3.35-7.45,3.19-15.52,4.78-22.89,8.11-6.06,6.06-7.39,33.44-10.92,42.08-1.05,2.57-2.67,4.91-4.58,1.49-5.06-9.06,4.08-32.1,3.17-42.83l-16.13-5.23c-5.7-7.82,21.72-5.8,24.78-6.19,18.84-2.4,39.41-14.34,54.23-25.77l-.07,10.1,19.19,10.92,13.86-5.02Z"/>
  <path class="st0" d="M700.42,869.62c28.23,13.51,11.57,35.68-6.09,49.84l1.66,22.54c-8.65-5.8-11.14-23.14-11.95-33.03-1.4-17.24,1.74-34.01,3.96-50.96-2.84.98-14.5,3.37-15.56,4.42-.89.88-5.28,19.73-6.91,24.09-2.15,5.76-9.19,15.81-9.5,20.63-.7,10.79,25.27,39.34,21.97,42.84-9.68,2-28.63-33.81-30.97-33.9l-17.01,7.9c-.61-8.26,8.41-12.1,12.82-18.16,8.35-11.47,14.65-23.71,18.59-37.41,2.09-7.28,2.58-34.08,9.66-14.3,1.65.18,20.94-6.08,22.85-7.18,5.28-3.04,2.88-9.44,7.08-12.92,2.28,3.78-1.21,11.54,5.96,11.98l8.04-13.98-.13,15.96c12.82,7.54,21.17,15.76,25.72,30.44,1.83,5.92,8.29,35.69.38,37.59-7.7-1.54-4.47-13.13-5.87-20.1-2.66-13.23-7.36-23.5-18.17-31.84-9.53-7.35-18.84-11.05-16.52,5.56Z"/>
  <path class="st0" d="M1978.07,654.04c.8,6.91-9.18,16.48-9.68,21.26-.53,5.17,6.09,7.54,5.58,12.7l-9.28-5.76-4.69,2.83,5.98,12.91c-6.04.7-8.96-8.64-13.39-9.67-6.69-1.55-17.39,3.64-31.15-.77-8.75-2.8-40.93-20.53-32.37-31.6,13.17,6.31,20.4,18.84,36.39,21.58,11.65,2,40.28,1.16,24.64-14.52-31.24,9.24-34.51-16.9-32.08-41.59-4.99-5.42-14.38-5.23-16.03-13.39,27.59,4.21,47.88,32.42,63,53.94,17.23-17.22-8.81-38.41-12.02-57.94l-44.98-12.04c3.09-13.65,43.42,2.67,45.99.03-.24-6.37,2.2-14.5,7.98-18,3.66,8.73.93,18.04,2.19,26.83,1.92,13.36,10.21,29.33,17.01,40.99,5.34,9.16,16.48,16.19-3.11,12.22Z"/>
  <path class="st0" d="M1545.99,322.01c.84,5.15-4.35,6.12-8,6.01,4.89,12.3,2.89,28.8,20.03,28.98.02,1.66-12.89,1.75-12.01,7.97l13.98,6.02c-1.65,4.52-10.45-.77-16.01,1.99-2.17,1.07-9.44,12.54-13.93,16.06-12.89,10.1-36.06,14.43-52.08,12-8.2-11.83,12.63-8.18,20.53-9.55,16.4-2.84,35.32-15.57,35.51-33.47-17.88-5.43-12.21,15.24-32.93,14.06-17.63-1.01-22.09-20-28.48-21.81-7.29-2.07-16.33,8.65-22.55.74,18.47-11.12,43.82-10.15,64.92-8.96,5.81.33,18.63,6.67,18.27-.2-.93-17.25-14.65-13.89-27.2-18.86-19.38-7.68-15.8-14.93-37.36-3.31-6.96,3.75-15.38,12.13-21.32,14.72-2.45,1.06-4.71,1.78-5.33-1.41,7.33-11.47,21.73-21.14,33.99-27.01.63-.87-12.28-19.65-5.01-19.91,3.41-.12,8.31,8.49,11.15,10.82,17.94,14.74,40.64,23.29,63.86,25.14Z"/>
  <path class="st0" d="M2374.5,1039.48c-6.74-6.96,1.16-36.28,1.58-46.39,2.41-57.72.99-135.31-18.59-189.57-3.91-10.85-15.02-28.29-16.66-37.42-2.03-11.3,9.23-3.26,13.15.93,34.33,36.7,38.3,184.19,33.99,233.97-1.08,12.51-3.64,25.11-4.3,37.7l-2.82,3.27c-1.12.3-5.38-1.46-6.36-2.47Z"/>
  <path class="st0" d="M1385.99,10.02c-5.15,18.81-36.02,6.56-50.91,5.9-56.57-2.54-131.36-.79-185,17.17-13.22,4.43-27.75,14.21-40.58,17.48-3,.76-2.72,2.17-5.5-1.59-1.11-5.11,7.61-11.93,11.35-14.62C1161.63,1.07,1306.51-1.09,1362.98,6.02c7.65.96,15.48,2.41,23.01,4Z"/>
  <path class="st0" d="M863.9,1896.12l-.79,5.99c-2.5,3.37-11.59,1.88-15.6,1.36-55.45-7.15-165.24-113.51-199.46-158.53-1.97-2.59-11.79-14.52-10.05-16.92,6.61-2.34,9.46-2.55,15.04,1.95,11.27,9.09,27.5,35.3,39.91,48.07s29.81,29.22,43.02,40.98c37.41,33.31,79.24,62.93,127.93,77.09Z"/>
  <path class="st0" d="M1878.95,145.02c44.41-2.01,137.97,81.85,169.04,113.99,17.92,18.55,33.65,40.02,49.96,60-3.6,4.6-10.63,4-15.1,1.12-13.72-16.85-27.03-34.21-42.06-49.93-31.48-32.93-84.79-80.96-125.44-100.56-9.15-4.41-38.31-12.19-43.32-16.68-5.43-4.87,2.18-7.73,6.91-7.94Z"/>
  <path class="st0" d="M2070.01,1753.99c-.07-3.52-.31-7.13.46-10.61,1.48-6.67,31.12-26.58,38.58-33.32,36.69-33.18,86.2-87.23,109.29-130.71,7.73-14.56,11.47-32.93,18.56-45.44,1.21-2.14,2.76-6.69,6.07-5.9,6.81,1.63,3.12,17.5,2.09,22.07-13.02,57.63-114.83,163.8-163.24,198.74-3.56,2.57-6.88,5.84-11.81,5.17Z"/>
  <path class="st0" d="M393.99,1287.99c-6.6,6.6-20.76-17.57-22.95-22.02-27.53-55.98-30.22-189.11-20.91-250.84.55-3.62,2.03-6.72,4.88-9.08l9.06,11.07c-1.13,15.6-5.26,32.42-6.14,47.81-2.86,49.86,2.09,125.6,17.09,173.07,5.49,17.36,15.85,32.64,18.98,50Z"/>
  <path class="st0" d="M490.02,521.99c-1.74-5.23-2.22-9.12-1.82-14.7,3.32-46.59,87.95-139.05,122.75-171.35,4.82-4.48,50.36-44.02,53.03-41.94,1.89,5.47,2.52,10.87-1.14,15.85-5.14,7-27.47,20.55-35.89,28.09-37.31,33.45-94.38,95.75-115.32,140.68-4.54,9.74-10.25,34.5-15.6,40.4-1.83,2.02-2.89,3.63-6.01,2.96Z"/>
  <path class="st0" d="M1350,2039.98c1.83-20.77,41.29-6.79,56.92-5.9,49.55,2.84,129.69-2.02,176.65-17.52,10.99-3.63,31.75-16.73,39.88-18.18,16.63-2.96,2.46,11.33-3.99,16.07-30.8,22.66-110.04,30.2-148.38,31.62-40.48,1.5-81.05-.92-121.08-6.1Z"/>
  <path class="st0" d="M1587.98,1376c-39.49-30.68,5.45-81.32,43.13-82.06,2.54-.05,17.76,2.25,18.93,3.02,7.22,4.8-9.22,14.63-13.06,19.02-9.11,10.44-18.19,25.24-26.94,35.06-6.49,7.29-20.8,12.92-22.07,24.95Z"/>
  <path class="st0" d="M1374,1421.99l-99.98,6.01c1.85-28.57,12.37-40.1,41-41.96,24.11-1.57,54.84,9.74,58.98,35.95Z"/>
  <path class="st0" d="M970.01,1031.99l-3.04-101.93c16.86,5.31,29.23,5.4,35.63,24.34,10.2,30.17-.79,67.64-32.59,77.59Z"/>
  <path class="st0" d="M1093.98,1309.99l-77.94-66.99c42.49-39.66,95.14,22.89,77.94,66.99Z"/>
  <path class="st0" d="M1695.47,782.53c1.79,1.82,2.04,6.19,4.46,8.53,4.96,4.8,12.38,8.58,16.78,12.78,1.67,1.59,1.85,1.34,1.28,4.14-20.95,10.9-30.11,19.06-51.82,2.85-23.54-17.57-33.58-41.49-26.16-70.83,8.27-1.53,9.17,6.9,13.9,11.08,10.49,9.24,33.67,23.46,41.55,31.45Z"/>
  <path class="st0" d="M1462,622.02c-5.16,18.78-5.54,34.07-27.88,39.1-29.19,6.58-62.39-2.12-74.13-32.08l102.01-7.02Z"/>
  <path class="st0" d="M1149,674.04c40.01,39.47-23.73,96.43-66.05,76.01l66.05-76.01Z"/>
  <path class="st0" d="M1769.99,1117.99c-20.44-1.94-35.14-7.8-39.52-29.46-4.99-24.68,1.26-51.37,22.54-66.52,17.63-12.55,10.43,6.5,10.91,17.07.62,13.65,5.53,32.24,5.91,44.1.33,10.39-4.2,22.96.16,34.81Z"/>
  <path class="st0" d="M1539.03,1730.01c7.05-1.52,17.94,22.97,18.78,29.16,1.37,10.07-.51,23.47-5.01,32.64-4.5,9.17-15.87,15.22-18.96,23.05-7.26,18.44,4.75,45.32,17.13,59.17,5.55,6.21,21.14,12.77,11.82,19.89-30.05-7.79-49.24-42.94-44.66-72.79,3.99-25.99,33.84-29.16,27.4-63.66-.98-5.24-15.91-25.43-6.5-27.46Z"/>
  <path class="st0" d="M659.99,1192c2.07,6.04,1.3,7.57-3.29,11.71-14.5,13.09-38.62,14.47-56.05,6.63-8.86-3.98-19.56-18.6-24.06-19.94-19.14-5.68-46.58,5.24-60.44,18.74-2.87,2.8-14.74,23.75-18,11.59-2.93-10.93,24.47-35.62,33.85-39.75,11.91-5.24,31.36-6.9,44.03-4.02,22.61,5.14,27.44,32.67,58.1,26.13,9.6-2.05,15.88-11.24,25.87-11.1Z"/>
  <path class="st0" d="M1171.29,156.23c8.3-2.63,24.37,11.45,29.73,17.75,13.83,16.23,18.7,39.16,14,60.04-4.71,20.89-33.49,26.45-25.64,57.62,1.46,5.8,15.44,24.29,7.59,26.36-4.96,1.31-11.16-6.79-13.38-10.58-8.67-14.84-8.74-36.6-.69-51.52,4.28-7.94,16.19-15.24,18.21-21.79,8.3-26.92-11.18-58.56-33.1-73.14l3.28-4.74Z"/>
  <path class="st0" d="M1987.99,1409.99l.89-8.1c21.72-5.91,45.75,13.62,52.14,34.08,3.25,10.4-.71,22.05,2.5,29.53,1.54,3.58,16.07,17.81,19.8,20.18,14.65,9.28,38.56,11.49,55.37,8.54l3.3,4.75c-25.61,19.86-65.97,6.71-83.99-17.98-10.59-14.5-6.41-21.45-8.9-37.1-3.66-22.97-19.12-31.71-41.11-33.92Z"/>
  <path class="st0" d="M627.53,542.53c27.17-4.24,57.71,3.69,71.96,28.98,10.95,19.43-1.31,48.06,24.72,61.28,5.34,2.71,25.17,5.56,23.79,12.17-20.84,11.28-49.56-12.97-54.62-33.34-2.98-11.99,1.71-22.42-5.37-32.63-10.55-15.22-30.75-23.97-48.92-25.06-7.62-.46-30.2,5.4-24.15-6,1.81-3.4,8.81-4.82,12.6-5.41Z"/>
  <path class="st0" d="M1845.53,272.49c5.52,6.01,5.46,33.85,4.3,42.33-1.61,11.74-16.11,33.62-25.91,40.09-20.55,13.57-49.62-.63-64.34,25.66-5.29,9.45-3.18,26.43-15.57,23.43-4.4-21.75,15.05-47.88,35.51-53.47,14.27-3.9,21.8,3.49,35.47-6.55,11.98-8.8,20.52-26.99,22.49-41.51,1.22-8.95-1.86-22.52-1-27.24.78-4.28,6.04-6.02,9.05-2.75Z"/>
  <path class="st0" d="M2235.99,826c7,6.67-18.49,32.9-24.12,36.87-11.49,8.1-34.75,13.24-48.41,10.65-26.68-5.05-30.43-34.02-64.01-27.07-8.03,1.66-16.04,11.22-25.44,9.54-2.03-8.55,7.17-13.99,13.89-17.08,20.62-9.49,40.84-5.81,58.18,8.01,2.57,2.05,3.59,5.83,6.07,7.93,17.26,14.68,53.88-2.09,67.92-15.78,6.21-6.06,6.02-15.55,15.92-13.07Z"/>
  <path class="st0" d="M897.99,1778.01c-9.82,3.48-12.81-11.38-13.77-19.23-2.78-22.87,5.78-46.98,23.73-61.82,21.14-17.47,52.11-1.4,67.75-28.25,3.02-5.18,5.49-25.92,11.27-24.7,8.19,1.74,3.78,16.66,1.97,21.93-5.02,14.6-21.48,30.01-36.83,33.17-21.98,4.53-26.26-5.62-42.58,17.42-13.1,18.51-15.05,39.52-11.55,61.47Z"/>
  <path class="st0" d="M1384,1054.02c4.82-4.57,23.25,26.03,25.05,29.93,21.35,46.26-1.67,91.13,17.19,130.81,4.75,9.98,19.58,22.33,17.81,32.2-1.07,5.95-6.77,7.13-11.01,2.99-6.36-13.17-15.64-23.55-20.05-37.94-9.59-31.28-1.49-63.33-7.63-96.37-4.12-22.12-12.02-41.39-21.36-61.62Z"/>
  <path class="st0" d="M1334,1014.03c5.94,5.83-14.2,3.71-16.44,3.41-66.6-8.73-81.38-74.32-129.14-86.86-12.55-3.29-39.66.17-32.19-18.37,16.32,1.24,34.54,5.72,49.11,13.45,22.2,11.77,36.02,33.7,54.64,49.36,21.08,17.74,47.62,31.33,74.02,39Z"/>
  <path class="st0" d="M1579.86,1135.86c-2.41,3.43-28.46-3.63-33.42-5.3-43.08-14.45-61.97-58.02-102.4-77.6l-44.02-20.94c27.03-3.58,55.47,9.99,76.01,26.95,24.13,19.93,37.44,50.13,70.34,59.66,12.74,3.69,35.36-.87,33.5,17.23Z"/>
  <path class="st0" d="M1377.97,989.99c-5.4,5.18-3.94-10.54-3.73-12.75,6.49-68.12,71.32-81.09,86.32-129.68,2.91-9.42,2.4-23.33,5.89-30.11,4.24-8.24,14.23-8.52,13.1,2.95-5.57,56.65-45.24,70.62-73.18,110.97-12.67,18.3-21.98,37.27-28.4,58.62Z"/>
  <path class="st0" d="M1583.46,948.35c5.13-1.1,14.94,1.44,11.67,7.68-2.42,4.61-33,20.42-39.57,22.52-28.89,9.24-53.91,2.45-82.27,5.73-29.78,3.44-45.58,12.55-71.98,22.07-2.34.84-5.42,1.4-5.27-1.36.43-8.01,39.51-25.59,47.98-27.98,42.55-12.02,81.3,7.55,119.32-14.68,5.76-3.37,15.53-13,20.12-13.99Z"/>
  <path class="st0" d="M1359,1058.04c4.7,2.97,1.76,4.4,1.6,7.53-3.77,76.31-72.57,85.61-87.16,138.87-2.44,8.92-2.05,30.63-11.25,32.66-12.3,2.71-5.03-17.81-3.6-23.52,11.95-47.71,43.58-58.53,69.05-94.95,13.7-19.6,21.82-38.87,31.37-60.59Z"/>
  <path class="st0" d="M1337.99,1042.01c3.37,3.27-17.48,17.27-20.15,18.83-51.16,29.89-101.47,1.45-143.87,24.13-6.85,3.66-29.82,26.94-33.75,11.64-1.62-6.3,21.04-18.42,26.4-20.99,30.72-14.77,54.58-7.37,86.36-9.64,29.89-2.13,57.64-12.92,85.01-23.96Z"/>
  <path class="st0" d="M1301.49,798.48c9.02,16.7,20.81,32,23.61,51.42s-.5,39.62.82,59.18c2.09,31.07,13.38,58.33,24.06,86.92-14.97-9.77-25.85-31.37-30.23-48.75-10.5-41.64,6.74-83.54-15.35-120.65-3.41-5.73-12.96-13.8-14.05-20.04-1.25-7.13,4.73-12.54,11.15-8.08Z"/>
  <path class="st0" d="M999.99,682.03c.81,9.58-15.45.23-19.98,2.96l53.98,93c-17.3-2.37-31.95-24.38-40.33-38.65-19.75-33.62-30.28-74.24-29.64-113.34,7.7,6.95,7.12,20.89,10.53,30.45,4.43,12.45,11.72,22.83,25.45,25.58Z"/>
  <path class="st0" d="M1370.01,1589.99c6.5-18.1,23.2-31.75,19.88-52.88-.72-4.56-4.68-8.1-3.88-13.1,6.83-.22,8.76,7.35,11.53,11.38,1.21,1.76-.33,3.7,4.43,2.6l27.03-103.95c9.96,14.53,5.71,35.67,2.07,52.03-6.89,30.94-28.18,72.97-50.04,95.96-1.6,1.69-8.98,10.12-11.02,7.96Z"/>
  <path class="st0" d="M1766,623.98c-20.49,6.32-53.04,6.98-56.02,34.03-7.99,1.4-3.12-13.27-2.3-17.36.53-2.68.4-3.57-2.64-2.61l-91.03,53.96c2.07-17.45,23.96-32.39,38.15-40.83,25.94-15.43,76.86-32.56,106.84-31.32,2.99.12,6.28.69,7,4.14Z"/>
  <path class="st0" d="M1934,1021.98c-19.89-5.65-30.17-22.74-52.84-19.81-5.2.67-9.69,4.29-15.16,3.81,1.98-7.6,7.68-8.55,13.13-11.78,1.83-1.08,3.93,1.03,2.87-4.18l-103.98-26.99c21.51-13.44,57.95-1.22,80.48,7.47,28.53,11,55.69,28.08,75.5,51.48Z"/>
  <path class="st0" d="M1366,458.02c-8.72,20.56-32.48,42.01-16.05,64.99l-4.95,1-10.98-13.99c-4.96,14.18-10.05,28.58-13.86,43.15-4.88,18.65-6.41,39.87-11.16,56.93-.98,3.54-.59,4.66-4.97,3.9-8.88-24.35-.29-54.84,8.48-78.49,8.16-22.02,24.71-50.11,40.47-67.53,1.7-1.88,10.87-12.12,13.02-9.96Z"/>
  <path class="st0" d="M1771.99,1421.99c-5.17.95-3.54-.93-4.92-3.97-7.43-16.31-4.23-34.9-21.15-46.94-3.83-2.72-8.81-2.39-11.88-6.08,5.31-6.41,14-1.47,19.94,1,3.54-4.73-42.35-82.06-53.02-89.97-2.37-12.6,17,2.87,21.01,6.99,32.31,33.22,48.27,93.64,50.01,138.97Z"/>
  <path class="st0" d="M867.98,1042c.43,2.91-.09,4.79-1.84,7.14-3.26,4.35-11.74,4.32-14.12,8.84,16.11,4.51,31.73,10.91,47.97,15.04,19.14,4.87,38.92,7.12,58,11.98-2.36,3.35-4.89,4.27-8.64,5.36-27.33,7.95-78.41-12.1-102.69-26.01-9.06-5.19-40.96-27.18-44.64-35.37-.48-1.07-.38-3.4.97-2.96,20.38,12.31,40.71,30.74,64.99,15.99Z"/>
  <path class="st0" d="M1121.99,1358.01c-4.65,15.69-21.94,29.17-35.34,37.64-33.43,21.14-77.15,32.63-116.64,32.34-.99-5.84,1.37-3.25,4.65-4.24,22.36-6.76,42.47-6.62,52.37-31.74,9.71.46-6.38,22.47,1.93,19.95l93.03-53.96Z"/>
  <path class="st0" d="M1332.49,1849.47c-7.39-7.68-15.96-39.3-16.56-50.38-.45-8.28,2.19-49.33,13.04-49.27l7.07,5.1c-12.8,18.68-11.82,39.13-6.6,60.65,1.7,7.02,11.04,26.99,10.68,31.44-.4,5.12-4.58,5.64-7.63,2.46Z"/>
  <path class="st0" d="M767.76,1587.74l-7.75.26c.25-15.25,8.45-31.45,17.17-43.82,6.7-9.5,38.24-41.96,50.88-33.24l1.76,5.87c-4.15,6.25-12.36,4.16-18.58,7.43-2.9,1.53-16.52,13.76-19.2,16.8-10.4,11.78-18.91,31.87-24.28,46.7Z"/>
  <path class="st0" d="M1855.07,1562.02c8.92-2.63,9.37,14.29,13.27,20.65,12.72,20.77,37.55,30.04,57.65,40.35,9.35,4.8,7.04,9.88-2.48,8.6-20-2.7-43.87-20.33-56.53-35.59-3.87-4.67-22.88-30.77-11.91-34.01Z"/>
  <path class="st0" d="M1394.01,198.01c9.59-9.38,23.39,37.17,23.97,43.01.95,9.55.78,58.95-12.95,59.06-13.44-5.58,1.61-15.26,2.86-23.18,4.54-28.81-5.44-52.2-13.89-78.88Z"/>
  <path class="st0" d="M581.56,974.56c13.6-1.62,45.4-2.03,56.38,6.5,6.39,4.97,5.17,11.77-2.82,10.98-4.07-.4-9.2-6.43-14.57-7.59-26.38-5.69-53.12,4.76-77.46,13.54l-3.08-4.96c10.94-9.23,27.17-16.75,41.55-18.47Z"/>
  <path class="st0" d="M2193.99,1052.01c1.27,8.34-7.38,10.71-13.28,13.7-20.09,10.16-49.07,13.3-70.8,7.38-5.56-1.52-24.03-8.28-14.97-15.24,5.09-3.91,13.4,5.47,21,7.2,27.06,6.13,52.45-7.54,78.05-13.04Z"/>
  <path class="st0" d="M1454,286c-4.81,6.09-12.51-6.07-14.39-10.61-8.13-19.61-2.74-49.86,6.05-68.73,2.28-4.88,6.44-16.39,13.31-14.66,3.06,2.42,3.06,2.49,2.17,6.08-1.6,6.39-7.94,15.18-10.15,23.9-3.77,14.9-5.56,31.48-2.48,46.51.79,3.88,7.1,15.47,5.5,17.5Z"/>
  <path class="st0" d="M1886.03,1677.99c-4.83-24.46-21.57-48.93-42.61-62.42-5.45-3.49-18.37-3.59-11.48-12.66,25.08-.86,47.7,28.18,56.42,49.72,3.16,7.81,12.12,26.62-2.34,25.36Z"/>
  <path class="st0" d="M1973.99,459.99c3.13,28.23-33.43,74-59.92,79.2-7.7,1.51-9.7-1.69-7.22-9.35,32.55-5.82,50.54-39.94,60.97-68.65l6.17-1.2Z"/>
  <path class="st0" d="M881.99,486c-13.77,2.34-10.36-11.06-14.4-18.68-3.99-7.53-23.74-23.64-31.56-28.36-7.21-4.35-25.44-10.37-29.96-14.04-2.79-2.27-2.26-3.67-2.07-6.91,17.9-.32,36.57,9.65,50.01,20.96,12.77,10.74,29.48,29.54,27.97,47.03Z"/>
  <path class="st0" d="M2199.99,1117.99c-11.89-1.07-21.67-8.33-33.93-11.05-18.48-4.09-40.72-5.8-57.07,5.01-9.18-9.23,3.37-14.16,11.38-16.58,19.37-5.86,44.64-1.86,62.99,6.28,6.87,3.05,17.48,7.27,16.64,16.34Z"/>
  <path class="st0" d="M536.01,930.01c7.19.42,11.96,5.65,18.92,8.06,23.14,8.02,49.34,10.42,72.03-.08l3.12,5.03c.01,12.65-38.01,13.52-46.82,12.73-13.12-1.18-48.98-8.83-47.25-25.73Z"/>
  <path class="st0" d="M1274.01,1855.99c.77-9.08,6.19-16.6,8.98-26,6.36-21.43,8.39-44.97-3.03-64.95,6.93-5.67,10.91-.9,14.13,5.87,8.73,18.32,5.39,41.19-.21,59.97-2.72,9.11-8.37,27.43-19.87,25.11Z"/>
  <path class="st0" d="M2019.99,505.97c-27.66,6.52-58.2,27.59-66.24,55.76l-7.74.27c-2.9-23.8,25.52-46.97,44.64-56.36,7.51-3.69,30.91-15.05,29.35.33Z"/>
  <path class="st0" d="M903.79,445.81c-5.48,4.36-24.62-7.02-29.62-10.99-11.29-8.97-27.26-32.98-31.12-46.87-1.78-6.41-4.24-13.24,1.94-17.91,6.04,4.53,6.06,12.22,9.29,18.67,11.21,22.44,26.42,42.25,50.84,51.22l-1.33,5.88Z"/>
  <path class="st0" d="M714.01,1549.99l2.03-6.95c28.72-7.15,56.65-28.8,66.99-57.03,5.84,1.14,7.19,4.67,6.21,10.03-4.65,25.34-49.07,57.35-75.23,53.95Z"/>
  <path class="st0" d="M1890.26,1251.71c-1.21-1.92.36-14.61-1.8-21.18-3.35-10.21-23.37-26.49-24.13-35.91-.2-2.52,2.78-5.9,4.96-6.33,9.29-1.83,25.08,31.56,30.25,39.16,2.37,3.48,9.71,9.85,10.25,11.94,1.84,7.06-15.51,18.67-19.53,12.31Z"/>
  <path class="st0" d="M1136.01,486l18.61,2.38,3.46,4.64c-2.83,7.15-9.84,9.63-13.1,16.97-4.6,10.35-2.74,35.8-7.98,42.02-3.28,3.9-8.05,2.83-10.68-1.39-6.25-10.05,14.73-50,9.68-64.61Z"/>
  <path class="st0" d="M1201.83,1522.15c.47,2.07,1.94,4.48,1.65,6.55-1.68,12.11-45.37,26.15-52.54,39.27l-12.72-13.33c.08-12.2,12.17-5.61,19.8-7.52,15.34-3.84,25.97-26.09,43.8-24.97Z"/>
  <path class="st0" d="M1532.17,525.84c-7.15-12.11,23.69-24.07,31.68-29,6.95-4.29,13.55-9,19.42-14.71,29.81,23.68,5.26,16.49-9.35,20.78-6.61,1.94-36.16,32.39-41.75,22.93Z"/>
  <path class="st0" d="M843.85,796.13c3.09,4.97-.31,9.92.23,14.62,1.76,15.59,26.77,34.53,26.06,44.21-.5,6.86-9.29,5.99-13.57,2.45-9.11-7.54-18.27-40.84-32.42-48.68-.8-4.58,14.12-15.54,19.71-12.59Z"/>
  <path class="st0" d="M841.41,1236.63c3.07,2.66,3.1,6.78,9.18,9.79,8.13,4.02,49.22,3.65,47.31,14.36-.5,2.82-7.29,6.69-10.51,6.66-15.53-.1-39.6-15.69-57.4-11.44l1.02-17.99,4.29-3.66c2.31-.1,4.39.78,6.11,2.27Z"/>
  <path class="st0" d="M1906.01,794.01l-2.95,18.04c-8.93,6.97-10.29-3.33-15.09-7.02-10.56-8.12-44.64-5.71-49-12.99-1.06-1.77-1.52-4.88-1.1-6.84,2.3-10.66,58.66,12.6,68.14,8.81Z"/>
  <path class="st0" d="M1598.01,1562.01l-16.7-.31-3.16-2.93c-1.67-9.23,8.72-11.7,12.01-19.62,4.84-11.66,2.05-26.39,6.4-37.6,2.78-7.16,7.7-12.19,11.96-3.04,5.64,12.1-13.68,47.74-10.5,63.5Z"/>
  <path class="st0" d="M549.99,967.97c-10.63,3.48-21.11,1.21-32.09,2.93-10.1,1.58-25.49,8.53-35.27,12.73-3.83,1.64-16.75,12.68-18.62,5.34-1.54-6.03,8.5-10.86,12.66-13.3,12.17-7.14,61.07-24.74,71.35-14.69,2.31,2.26,2.32,3.97,1.97,6.99Z"/>
  <path class="st0" d="M1409.59,122.42c4.94,2.81,20.39,43.3,21.9,51.09,2.08,10.78,5.66,27.32-4.48,34.44-8.25-7.43-3.9-19.21-5.02-28.94-2.05-17.8-13.89-38.12-22.01-54-1.65-4.74,7.86-3.6,9.62-2.6Z"/>
  <path class="st0" d="M1902.01,1644.01c9.75-1.86,13.48,7.94,19.97,13.01,13.37,10.47,28.85,17.46,44.92,23.08,3.86,1.35,16.29,1.39,15.09,6.87-2.08,9.48-22.55.58-28.48-1.48-17.55-6.11-50.4-21.06-51.5-41.48Z"/>
  <path class="st0" d="M1304.03,1842.01l6.08.88,1.57,2.43c-.86,27.25,7.48,56.32,24.29,77.74l-3.11,4.84c-8.86,2.71-16.05-15.47-19.23-22.53-8.6-19.12-15.27-42.47-9.61-63.35Z"/>
  <path class="st0" d="M2026.02,410l6.08.89c7.01,5.15-6.43,35.54-9.76,42.46-4.21,8.76-22.1,39.56-33.25,36.63-1.24-.32-3.66-3.16-3.09-4.95,21.65-20.07,34.79-46.04,40.01-75.03Z"/>
  <path class="st0" d="M2267.01,1056.05c12.02,11.34-19.22,22.75-27.96,26-8.74,3.25-52.4,15.64-55.04,2.92,2.01-8.39,15.42-4.21,22.73-5.23,21.62-3.02,42.32-11.46,60.27-23.69Z"/>
  <path class="st0" d="M747.99,1560.01c3.22,3.06-15.04,21.5-17.65,25.33-9.97,14.65-18.91,35.06-20.35,52.67l-8.09-.93c-3.54-2.26.45-14.68,1.54-18.65,3.72-13.65,21.4-49.72,33.45-56.55,3.9-2.21,6.76-2.32,11.1-1.88Z"/>
  <path class="st0" d="M831.99,405.99c-12.13-3.61-19.26-15.58-30.6-22.38-9.08-5.44-23.3-11.01-33.43-14.56-4.19-1.47-17.06-.8-13.94-8.03,3.36-7.77,26.25,1.77,31.95,4.02,15.55,6.13,48.06,21.87,46.02,40.96Z"/>
  <path class="st0" d="M1074.02,1219.96l.99-3.97c15.34-6.41,45.2,29.29,38.03,40.04-2.92,3.49-3.35,2.01-6.1.03-9.73-7.01-17.63-32.42-32.93-36.1Z"/>
  <path class="st0" d="M1020.01,1007.99c1.43-18.88,4.73-32.57,2.85-51.87-1.11-11.37,8.19,2.91,9.57,6.45,4.97,12.7,4.76,43.75-12.43,45.42Z"/>
  <path class="st0" d="M1661.98,830.04l-1,3.98c-15.52-.18-32.83-14.08-37.41-28.58-1.52-4.82-3.84-19.87,4.47-12.49,10.68,9.5,18.04,31.86,33.94,37.08Z"/>
  <path class="st0" d="M1601.99,1280.02l-4.15,6.82-39.83,31.15c-.12-20.11,23.82-43.48,43.98-37.97Z"/>
  <path class="st0" d="M1711.99,1095.99c-16.48-4.9-14.32-37.81-6.46-49.45,4.12-6.1,10.41-9.64,10.33.19-.11,14.54-10.04,33.48-3.88,49.27Z"/>
  <path class="st0" d="M1440,680.02c-9.23,17.71-52.95,17.2-55.99-4.01,18.71,1.73,37.26,8.29,55.99,4.01Z"/>
  <path class="st0" d="M1351.99,1371.99l-55.97-4.96c11.64-15.33,48.91-14.32,55.97,4.96Z"/>
  <path class="st0" d="M1134.01,769.99c-.53-3.48-.14-4.41,2.06-6.92,3.91-4.48,20.32-13.21,26.87-19.12,4.91-4.43,8.25-9.59,13.04-13.94,1.99,20.49-21.5,42.44-41.97,39.99Z"/>
  <path class="st0" d="M973.21,1584.1c13.34-3.57,31.56,40.16,19.77,43.88-8.24,2.6-8.27-16.39-11.2-22.76-2.26-4.91-18.33-18.51-8.57-21.12Z"/>
  <path class="st0" d="M1747.74,422.28c2.21,16.21,6.12,25.87,17.4,37.65,1.65,1.4-1.22,3.57-2.35,3.89-14.24,4.01-30.01-29.84-22.51-41.53h7.46Z"/>
  <path class="st0" d="M1487.32,1696.33c10.34-3.21,29.88,1.89,37.46,9.89,4.69,4.95,8.33,13.01-1.72,11.84-3.39-.39-12.09-8.87-19.43-10.69-5.88-1.46-12.07-.43-16.31-1.69-4.68-1.39-4.74-7.87,0-9.35Z"/>
  <path class="st0" d="M2047.99,907.99c-16.55,1.76-8.28-26.81-3.69-34.69,3.9-6.69,18.36-16.69,17.4-4.64-.39,4.89-20.47,26.64-13.71,39.34Z"/>
  <path class="st0" d="M674.01,1185.99c-1.36-11.1,8.86-15.29,11.1-25.88,1.49-7.03-1.93-18.51,5.86-20.1,12.74,2.64,1.61,50.89-16.96,45.98Z"/>
  <path class="st0" d="M1249.51,351.53c-9.4,8.09-46.75-5.36-43.47-18.41,1.99-7.91,16.71,5.17,20.91,6.92,6.46,2.7,31.69,3.63,22.56,11.49Z"/>
  <path class="st0" d="M803.03,626.01c1.92-.53,4.41,1.66,4.86,3.16,4.27,14.11-40.72,33.48-43.89,19.81-1.61-6.95,14.52-6.63,18.04-7.93,8.43-3.11,15.1-8.37,20.99-15.03Z"/>
  <path class="st0" d="M1928.01,1421.99c-8.39-15.73,38.26-34.81,41.97-22.98.49,9.04-14.63,7.88-22.44,11.52s-11.48,11.48-19.53,11.45Z"/>
  <path class="st0" d="M713.97,1148.01l6.02,27.98c-14.4,1.16-16.8-17.09-12.1-27.1l6.08-.88Z"/>
  <path class="st0" d="M1519.99,1672.01c-1.26,14.35-21.28,19.43-29.95,8.99.05-4.21,24.86-7.4,29.95-8.99Z"/>
  <path class="st0" d="M1727.37,454.51c8.04-.13,25.29,17.03,15.6,19.48-3.62.92-19.84-13.14-24.93-15-.03-1.75,7.54-4.46,9.33-4.49Z"/>
  <path class="st0" d="M815.99,646.01c2.4,2.5-7.82,19.48-9.92,23.06-1.58,2.7-1.53,5.87-6.05,4.92-6.05-11.92,3.37-26.38,15.97-27.98Z"/>
  <path class="st0" d="M1918.01,1401.99l2.91-8.07c4.82-1.47,8.15-19.76,12.06-17.9,12.67,6.01-3.57,28.75-14.97,25.98Z"/>
  <path class="st0" d="M1015.99,1591.98c-11.02,5.69-27.04-3.04-25.98-15.97,7.9-2.2,9.63,4.24,14.05,6.92s12.35,2.69,11.93,9.04Z"/>
  <path class="st0" d="M2020.19,899.77c-.83-1.43-.09-8.31-1.08-11.88-1.52-5.45-3.69-10.46-5.1-15.88,14.83-.07,16.92,14.91,13.73,26.73-1.13,4.19-6.95,2.06-7.55,1.03Z"/>
  <path class="st0" d="M1243.99,364.01l-1.95,7.03-26.03,6.95c-1.02-17.49,15.39-14.05,27.98-13.98Z"/>
</svg>