<?xml version="1.0" encoding="UTF-8"?>
<svg id="Layer_0_xA0_Image" xmlns="http://www.w3.org/2000/svg" version="1.1" viewBox="0 0 2732 2048">
  <!-- Generator: Adobe Illustrator 30.0.0, SVG Export Plug-In . SVG Version: 2.1.1 Build 123)  -->
  <defs>
    <style>
      .st0 {
        fill: #3ca6ff;
        stroke: #000;
        stroke-miterlimit: 10;
        stroke-width: .25px;
      }
    </style>
  </defs>
  <path class="st0" d="M939.47,766.48c20.03-3.35,70.77,17.54,85.52,31.53,22.74,21.56-16.77,21.44-29.39,24.58-39.71,9.88-38.77,41.61-31,75.81,8.23,36.26,47.84,74.16,8.36,105.54-31.29,24.87-128.8,11.46-169.87,9.97-141.27-5.13-289.36-10.89-430.07,4.09-13.97,1.49-45.87,11.03-56.51,6.48-12.24-5.24-7.9-21.38-3.6-30.59,24.61-52.69,139.58-42.92,188.18-45.82,106.62-6.37,213.3-21.21,319.63-5.8,22.21,3.22,53.8,13.6,74.38,13.77,59.74.49,15.36-72.8,8.65-100.8-7.31-30.53-2.7-82.35,35.73-88.77Z"/>
  <path class="st0" d="M1055.33,1276.51c3.08-.13,7.31,1.83,8.34,4.82,6.49,18.87-16.69,49.15,8.45,71.54,12.07,10.75,46.86,16.73,62.87,16.73,25.73,0,55.6-15.14,78.06,4.34,32.98,28.61,6.7,84.9-5.02,119.09-54.56,159.16-123.3,314.33-155.11,480.89-3.69,19.34.28,70.77-33.59,49.74-20.26-12.58-26.34-44.67-25.41-66.76,28.16-113.04,52.96-232.94,88.03-343.95,12.04-38.11,29.12-75.33,47-111,9.98-19.91,36.86-52.31,27.53-75.44-9.4-23.31-67.69-12.01-87.58-12.42-39.98-.82-93.78-27.35-74.95-75.15,5.65-14.34,46.38-61.83,61.38-62.44Z"/>
  <path class="st0" d="M549.51,374.52c51.43-6.9,116.87,49.61,158.66,76.31,90.4,57.77,187.46,110.07,264.88,185.12,16.97,16.45,35.03,41.45,52.9,55.1,47.71,36.43,55.76-51.76,67.08-79.01,12.14-29.24,47.41-64.5,81.09-47.16,17.18,8.85,39.61,47.73,46.23,65.77,18.2,49.6-32.18,8.65-51.39,7.35-34.22-2.31-52.65,40.03-59.98,67.98-7.28,27.74-4.14,64.65-42.15,69.84-34.98,4.77-75.91-32.71-102.62-53.03-40.37-30.7-78.33-64.58-118.42-95.58-86.26-66.72-188.21-141.92-283.18-194.82-9.97-5.55-35.52-14.59-41.65-20.35-19.04-17.88,12.37-35.35,28.56-37.52Z"/>
  <path class="st0" d="M945.6,1042.6c55.18-3.59-.17,33.52-7.08,50.92-12.91,32.51,22.98,63.64,47.64,79.32,23.74,15.1,54,20.75,51.91,56.23-1.92,32.59-33.76,51.32-57.43,68.56-53.6,39.02-111.33,72.52-166.08,109.92-66.61,45.51-125.68,91.08-187.61,142.39-34.61,28.68-72.89,53.16-101.05,88.96-24.27,12.53-31.55-14.32-29.87-33.89,4.3-50.03,88.17-102.79,124.92-133.07,80.14-66.03,159.72-141.55,251.7-190.3,21.51-11.4,49.04-20.79,68.73-33.27,59.11-37.45-36.27-73.24-58.46-96.31-21.19-22.02-38.55-68.18-7.59-89.74,14.94-10.4,52.02-18.55,70.26-19.73Z"/>
  <path class="st0" d="M1766.49,1003.52c-9.56-9.44,12.85-24.65,18.53-31.49,29.24-35.23,9.35-60.17-21-85.05-24.71-20.26-70.63-28.08-67.52-67.37,2.77-34.93,44.8-58.89,70.86-77.24,138.66-97.6,282.35-181.77,408.66-297.34,9.66-8.84,32.39-38.37,43.13-39,13.49-.79,20.02,18.94,20.29,29.52,1.38,54.35-77.12,101.87-114.39,132.51-86.79,71.34-171.62,152.26-271.71,204.29-17.61,9.16-37.94,15.66-54.68,25.32-68.52,39.53,27.75,73.35,53.33,99.35,27.23,27.68,39.11,76.79-4.01,95.96-12.88,5.73-72.24,19.66-81.48,10.54Z"/>
  <path class="st0" d="M1689.42,2031.44c-7.07,8.58-23.93,6.56-33.4,3.55-28.06-8.91-46.81-42.37-58.37-67.63-31.86-69.63-61.6-156.09-89.15-228.85-23.21-61.31-40.83-112.73-51.92-178.08-3.6-21.2-3.1-65.89-16.87-81.13-23.66-26.18-68.02,24.79-87.89,37.53-30.61,19.62-88.57,30.33-100.9-14.73-5.13-18.73-.96-53.07,4.06-72.11,13.92-52.83,32.02,14.1,48.04,26.01,24.35,18.09,60.85-2.31,81.94-18.03,24.57-18.32,37.37-48.67,73.59-37.5,27.6,8.51,37.71,41.53,45.99,66.01,29.99,88.72,51.36,183.47,80,274,25.9,81.86,56.45,176.75,94.43,253.57,4.99,10.1,20.52,25.18,10.45,37.4Z"/>
  <path class="st0" d="M1663.48,1274.48c43.47-7.41,94.67,42.13,127.44,67.61,122.65,95.34,240.75,193.98,376.47,271.53,14.96,8.55,30,15.28,45.65,22.35,11.2,9.82,6.46,21.99-4.37,29.7-22.15,15.76-57.58,7.99-80.59-2.73-94.82-63.46-200.74-120.29-292.7-187.3-24.17-17.61-47.84-37.86-69.4-58.6-17.69-17.02-38.7-45.66-56.97-59.03-50.28-36.77-55.96,56.9-69.25,84.75-13.41,28.11-51.09,60.19-82.42,38.92-15.85-10.76-37.25-46.39-43.41-64.6-14.81-43.8,24.75-13.01,42.13-8.13,34.26,9.63,51.35-16.5,62.91-44.98,11.39-28.05,8.39-83.33,44.51-89.49Z"/>
  <path class="st0" d="M1046.56,16.56c1.62-1.63,8.1-4.08,10.57-4.43,36.32-5.06,63.74,33.8,77.23,62.51,45.55,135.91,118.72,266.93,143.02,408.98,3.79,22.15,4.18,68.76,16.93,85.07,21.98,28.11,64.32-19.22,83.04-32.36,22.88-16.07,51.24-26.8,79.21-17.88,35.97,11.48,31.73,53.79,26.9,83.99-1.76,10.98-5.11,34.65-17.63,36.66-15.11-3.36-18.54-50.8-52.74-53.18-40.03-2.79-67.98,34.35-95.25,54.9-32.03,24.13-61.31,3.99-76.17-27.48-28.82-61.04-45.04-156.12-64.66-223.34-30.12-103.17-67.5-218.37-112.06-315.94-4.62-10.12-23.35-39.35-22.87-46.93.14-2.14,3.03-9.1,4.5-10.57Z"/>
  <path class="st0" d="M1701.27,20.64c30.64-1.94,43.88,55.32,38.8,78.43-29.79,111.43-52.8,230.36-88.04,339.96-13.13,40.82-31.7,78.89-51,117-9.89,19.53-45.61,65.5-8.17,78.08,43,14.45,92.15-15.96,135.15,22.85,28.29,25.53,18.12,49.97-2.08,75.96-7.75,9.98-34.72,39.28-46.99,39.23-15.29-.07-5.62-24.48-4.98-33.2,3.29-44.66-22.11-56.21-62.99-58.94-35.27-2.36-84.76,21.48-101.34-22.65-11.28-30.03,6.43-69.24,16.33-98.41,35.35-104.13,81.87-207.56,112.57-313.43,16.09-55.49,38.49-134.83,47.22-190.78,1.73-11.1-2.48-32.96,15.53-34.1Z"/>
  <path class="st0" d="M2405.58,1022.43c31.8-3.19,20.68,32.84,5.51,47.66-25.08,24.47-78.42,28.07-112,30-86.71,4.99-175.24,11.65-262,14-43.9,1.19-86.42-2.04-129.75-8.41-19.19-2.82-39.95-9.86-58.59-11.41-78-6.47-18.36,76.19-14.76,112.76,2.34,23.77-2.02,54.37-22.97,69-23.76,16.59-66.82-3.63-89.05-16.98-49.56-29.76,10.7-28.07,29.41-36.66,34.9-16.02,22.73-65.83,11.59-94.35-9.94-25.45-31.09-46.49-10.01-74.08,15.4-20.15,46-23.76,69.95-24.03,67.34-.76,136.68,8.17,204.01,10.16,106.66,3.14,219.88,1.36,326.06-8.1,17.93-1.6,36.93-7.98,52.6-9.55Z"/>
  <path class="st0" d="M1529.33,1874.67c9.79,9.83,19.66,49.92,26.96,66.04,7.94,17.55,27.21,42.72,31.8,58.18,1.15,3.86,2.9,7.49,1.6,11.68-3.72,12.67-32.41,5.17-42.77,5.34-115.01,1.86-230.79,4.03-346,8-27.09.93-73.65,9.5-98.38.54-21.9-7.93-8.95-29.75-6.77-45.7,1.06-7.81,1.52-34.28,4.09-37.91,1.02-1.44,4.28-3.39,6.04-3.94,13.35-4.15,46.85,7.76,63.14,9.05,67.4,5.37,177.78-8.35,245.68-20.25,9.27-1.62,22.08-1.7,27.03-10.97,10.12-18.96-10.32-60.59,25.18-58.76,12.43.64,53.97,10.22,62.4,18.68Z"/>
  <path class="st0" d="M577.48,484.5c1.71,1.81,2.57,6.04,2.61,8.54.18,13.83-23.11,47.84-29.58,64.46-14.49,37.2-25.36,84.83-33.89,124.11-7.31,33.69-20.22,86.55-22.57,119.41-.79,10.99-.49,16.33,8.95,22.99,12.16,8.58,44.06,8.01,45.18,26.99.6,10.2-22.75,49.89-30.5,57.67-17.34,17.41-66.44,10.07-92.39,13.61-15.23,2.08-41.59,12.07-54.34,11.79-4.41-.1-7.68-2.59-11.67-3.85-6.17-4.93,9.42-41.89,11.74-50.21,13.27-47.64,29.29-91.7,43.53-138.47,24.63-80.87,43.89-168.2,70.48-247.52,4.75-14.16,10.87-39.11,29.74-37.95,9.13.56,26.21,13.73,35.9,18.3,6.05,2.85,23.47,6.6,26.84,10.15Z"/>
  <path class="st0" d="M1771.46,94.32c7.29-1.1,28.54,18.34,35.91,23.31,46.56,31.39,90.8,65.18,136.81,97.19,74.61,51.92,153.61,99.1,224.73,155.26,14.43,21.48-14.83,35.77-27.93,49.89-8.23,8.87-10.87,22.96-25.54,19.62-10.84-2.46-38.85-37.79-50.5-47.54-62.66-52.46-148.6-89.54-218.88-131.11-30.52-12.91-38.09,54.27-67.08,35.05-6.66-4.41-33.8-34.94-37.84-42.14-11.88-21.21,1.1-37.09,6.29-57.43,7.91-31.01,7.91-56.91,13.46-86.54,1.15-6.14,3.12-14.44,10.57-15.57Z"/>
  <path class="st0" d="M611.45,1608.34c2.49-.72,4.62-.54,7.1,0,9.63,2.08,41.46,40.41,52.5,49.61,62.39,52.03,148.07,88.68,217.85,130.14,29.59,11.81,33.46-41.48,59.93-38.05,9.31,1.21,44.63,41.22,47.64,50.49,6.43,19.73-6.59,42.08-11.48,61.45-6.07,24.04-6.04,43.24-9.24,66.76-5.87,43.12-19.11,22.76-41.11,7.63-88.78-61.04-176.01-124.17-265.19-184.81-28.42-19.33-70.51-40.61-94.49-63.51-29.61-28.28-1.01-37.65,18.07-58.02,4.59-4.9,12.76-20.03,18.42-21.68Z"/>
  <path class="st0" d="M405.52,1052.4c3.32-.46,5.12-.92,8.43.6,12.4,5.68,13.22,54.73,16.64,69.4,18.89,81.13,69.05,163.88,101.71,240.29,18.89,26.25,64.34-27.78,75.14,14.86,2.89,11.4,5.94,42.01,4.38,53.27-2.97,21.44-43.32,42.88-59.85,58.15-13.95,12.89-24.11,28.57-36.91,41.09-5.47,5.36-12.79,12.71-21.03,8.92-6.55-3.01-16.46-42.36-19.98-52.03-47.2-129.55-87.98-261.66-137.45-390.54-10.26-40.2,22.31-31.51,47.84-36.96,6.81-1.45,14.87-6.18,21.08-7.04Z"/>
  <path class="st0" d="M2235.5,508.29c6.23-.88,10.01,6.28,12.09,11.13,23.57,55.08,38.24,120.72,58.38,177.62,22.8,81.49,70.52,168.77,90.56,249.44,11.34,45.67-8.09,35.95-41.02,42.03-26.11,4.82-38.16,21.53-44.95-16.06-6.4-35.42-8.74-56.04-21.06-90.94-23.89-67.63-56.87-131.72-87.76-196.24-17.24-22.07-60.18,21.83-72.73-7.27-2.96-6.87-6.95-42.97-6.79-51.2.31-16.21,7.02-24.93,18.83-34.75,12.73-10.59,28.27-19.33,40.98-31.02,11.48-10.56,42.24-51.16,53.47-52.74Z"/>
  <path class="st0" d="M2375.51,1118.48c6.6,6.57-7.77,37.77-10.5,47.53-13.86,49.54-30.71,95.74-45.54,144.46-27.32,89.77-49.31,181.71-79.8,270.2-15.04,25.28-40.1,1.36-58.31-7.03-8.78-4.04-26.59-5.02-27.3-16.77-.7-11.56,23.13-47,28.91-60.9,32.23-77.62,40.82-173.14,59.08-255.03-1.28-27.88-59.76-18.83-55.27-46.97,1.3-8.12,25.08-48.99,31.43-54.76,16.07-14.61,40.88-7.76,60.88-9.12,7.19-.49,16.51-1.44,23.67-2.33,13.61-1.7,64.67-17.33,72.76-9.28Z"/>
  <path class="st0" d="M993.48,60.49c26.07-4.35,24.04,16.54,33.44,33.6,4.91,8.9,21.47,26.33,17.61,35.35-5.28,12.33-43.75,25.03-57.14,32.96-72.2,42.74-136.93,116.88-199.39,172.61-16.79,24.18,27.16,40.13,19.58,65.59-2.89,9.7-52.21,30.38-62.84,31.24-20.07,1.63-50.31-27.44-69.4-38.18-16.48-9.27-34.72-14.83-50.73-23.27-6.95-3.66-19.02-9.03-16.31-18.94,1.42-5.22,33.64-25.96,40.65-31.5,40.15-31.76,82.05-60.29,122.85-91.15,61.6-46.61,120.61-97.42,182.41-143.59,9.65-7.21,28.1-22.86,39.27-24.72Z"/>
  <path class="st0" d="M1722.69,1985.31c-6.68-6.44-13.15-27.12-18.36-36.65s-18.48-19.25-13.29-30.63c3.89-8.53,50.71-27.61,62.78-35.21,69.47-43.74,131.32-112.98,192.17-167.83,20.89-27.83-43.11-51.62-9.87-75.87,5.54-4.04,39.1-18.85,45.75-20.25,28.06-5.92,36.44,10.7,56.66,23.57,23.04,14.67,42.4,22.15,66.17,33.83,15.1,7.41,33.36,12.94,14.24,29.67-46.68,40.85-106.73,77.39-156.75,115.25-63.22,47.85-126.55,104.3-190.38,149.62-12.11,8.59-35.41,27.71-49.14,14.48Z"/>
  <path class="st0" d="M1559.59,22.59c16.95-.54,70.84-4.97,81.34,7.48,8.41,9.98-1.45,36.42-2.89,48.96-2.66,23.12,8.43,35.54-25.01,32.93-25.7-2.01-43.71-7.57-71.95-7.87-68.5-.72-164.3,6.58-231.19,20.79-40.35,8.57-1.34,66-37.14,68.45-12,.82-59.01-10.65-67.55-19.53-10.37-10.78-20.5-53.58-28.84-71.16-6.76-14.25-16.43-26.69-23.4-40.6-4.63-9.24-14.96-27.94,1.95-30.13,15.1-1.96,36.07.67,52.17.17,117.36-3.63,235.03-5.75,352.51-9.49Z"/>
  <path class="st0" d="M2089.38,456.61c7.5,8.21,2.78,15.22-3.58,22.19-24.32,26.62-41.2,25.54-70.06,6.47-35.71-23.59-69.75-54.71-108.39-75.61-14.54-7.86-40.82-23.32-53-6.31-18.38,25.67-33.74,66.14-49.59,94.41-13.67,24.39-30.78,26.21-42.53-.98-15.94-36.88,16.8-71.77,32.87-102.69,24.34-46.86,29.11-102.73,97.52-65.7,54.78,29.65,113.23,78.29,167.55,112.45,7.23,4.55,24.56,10.67,29.22,15.77Z"/>
  <path class="st0" d="M949.51,1532.34c16.56-2.76,28.63,29.51,28.63,42.66,0,21.6-23.42,51.64-33.18,70.96-11.37,22.49-28.6,74.38-51.59,84.41-20.47,8.93-39.83-3.33-57.21-13.54-53.8-31.63-106.71-74.02-160.33-107.67-27.11-17.02-55.05-20.35-12.5-50.82,23.14-16.57,38-6.92,59.32,7.99,31.55,22.07,61.31,47.49,94.73,67.27,15.67,9.28,51.83,32.23,64.27,11.06l58.42-107.58c2.85-1.42,6.4-4.24,9.43-4.75Z"/>
  <path class="st0" d="M1065.43,164.59c3.87,3.15,13.66,28.82,14.39,34.58,3.91,31.02-34.42,46.09-54.45,61.2-25.92,19.55-74.64,54.46-93.32,78.68-9.14,11.85-13.43,18.9-4.04,31.94,19.79,27.49,61.59,55.74,80.01,81.99,16.29,23.22-5.7,33.14-27.02,33.14-36.04,0-55.12-36.49-76.95-59.17-34.26-35.6-94.01-62.57-39-114.9,44.15-41.99,107.47-82.24,155.89-122.11,9.98-8.22,30.18-36.99,44.49-25.35Z"/>
  <path class="st0" d="M1601.6,142.6c20.03-1.56,28.81-4.13,25.88,19.89-3.03,24.85-9.86,38.03-34.96,43.03-34.8,6.95-97.38-.46-137.5,2.5-18.59,1.37-59.95,4.76-59.07,28.87,1.19,32.72,12.3,71.76,15.83,104.31,3.22,29.64-9.62,39.05-35.62,23.63-34.19-20.27-27.2-61.93-32.42-95.58-8.63-55.63-38.73-110.19,43.28-117.23,70.2-6.03,143.39-3.89,214.57-9.43Z"/>
  <path class="st0" d="M452.53,1048.51c5.99-6.37,42.75-7.56,51.36-3.4,18.86,9.1,26.81,56.5,33.18,74.82,8.94,25.7,19.65,56.86,30.58,81.42,6.64,14.92,20.38,46.7,40.42,39.7,32.93-11.99,68.86-37.73,100.58-49.4,10.64-3.92,26.75-8.27,29.22,7.48,8.67,55.18-52.26,67.02-89.91,85.83-21.73,10.85-53.86,37.86-79.59,31.66-24.81-5.97-35.64-38.94-43.86-60.13-20.85-53.75-37.85-109.32-58.98-163.02-4.08-10.38-21.82-35.57-13-44.96Z"/>
  <path class="st0" d="M2025.55,1222.55c22.17-.71,59.97,11.22,83.7,15.2,5.77.97,11.7-.4,17.49.51,63.92,9.97,77.5,19.13,61.1,86.59-13.72,56.44-34.54,114.03-49.27,170.73-2.54,9.79-5.38,43.46-13.97,46.07-10.63,3.23-41.14-16.15-45.61-25.63-10.72-22.76,10.7-61.71,17.55-84.48,6.88-22.87,15.35-50.5,20.49-73.51,4.38-19.64,14.67-56.66-10.91-63.13-34.04-8.61-70.31-10.85-104.6-17.4-50.55-9.66-7.53-53.92,24.04-54.94Z"/>
  <path class="st0" d="M1331.38,1678.4c14.78-4.46,34.82,8.27,43.44,19.78,15.54,20.73,13.54,62.83,17.41,88.59,4.04,26.82,23.88,74.43-.15,96.33-12.55,11.44-40.64,13.94-57.11,14.89-62.5,3.61-125.44,1.63-187.95,6.05-12.02.85-25.48,8.18-36.99.94-7.67-7.46,2.43-43.64,8.83-51.11,15.78-18.43,72.95-9.3,96.22-9.78,27.19-.56,75.73-2.49,100.93-9.07,18.54-4.84,22.96-8.12,21.96-27.99-1.25-24.66-6.87-56.43-10.51-81.48-1.49-10.25-12.41-42.21,3.92-47.14Z"/>
  <path class="st0" d="M613.43,506.36c8.43-1.27,40.7,19.6,43.47,27.74,8.38,24.65-12.18,62.3-19.43,86.37-7.01,23.28-15.66,51.95-20.54,75.46-3.51,16.93-12.36,50.62,8.6,57.53,33.27,7.43,67.59,10.9,100.92,17.08,31.02,5.75,42.87,20.54,14.5,43.4-30.11,24.27-73.86,4.06-108.18-1.72-26.25-4.42-74.86-.15-88.86-29.14-9.04-18.7-.53-42.81,4.25-61.94,13.7-54.73,32.94-109.82,47.28-164.72,3.14-12.03,5.53-48.19,18-50.08Z"/>
  <path class="st0" d="M1741.52,1564.52c46.75-6.91,61.37,28.25,88.42,56.53,44.02,46.02,99.4,64.73,28.09,125.98-45.41,39-98.33,74.45-144.98,113.02-21.14,17.48-35.79,48.74-52.58,6.47-11.32-28.5-6.07-37.12,16.59-56.47,38.39-32.79,93.33-58.46,124.89-99.11,10.59-13.63,14.55-20.59,3.07-34.97-21.37-26.76-53.65-50.92-75.06-76.94-13.79-16.76-11.23-31.16,11.57-34.52Z"/>
  <path class="st0" d="M2149.47,732.49c39.17-6.18,50.7,33.75,62.02,63.02,18.74,48.46,34.32,98.44,53.01,146.99,4.84,12.57,17.86,35.44,20.2,45.98,4.57,20.63-34.49,19.49-47.59,17.42-24.57-3.89-37.61-71.79-45.08-92.92-9.21-26.07-24.09-70.93-39.58-92.42-9.82-13.64-13.83-16.97-29.81-10.88-22.1,8.42-50.08,23.31-72,33.99-14.94,7.28-24.15,19.33-43.51,16.22s-9.83-38.21-2-49.73c13.32-19.6,64.11-37.7,86.91-49.09,16.67-8.33,38.85-25.62,57.44-28.55Z"/>
  <path class="st0" d="M1720.69,1703.31c-22.91-19.8-42.94-72.01-60.64-98.36-10.98-16.34-27.56-29.05-34.08-48.05.08-6.56,17.6-7.19,23.83-10.1,29.07-13.62,48.86-75.74,84.75-68.33,8.55,1.76,14.87,11.27,22.01,13.97,23.07,8.72,31.28-15.64,51.53-9.52,23.18,18.06,47.38,35.1,68.07,55.91,17.94,13.02,38.99,20.61,57.68,32.32,17.19,10.78,41.13,23.74,19.14,44.83-21.28,20.41-42.37,6.86-62.82-5.16-44.56-26.17-117.85-87.11-171.27-82.93-26.65,2.09-39.37,42.37-31.89,64.09,9.05,26.27,56.81,57.9,69.77,86.21,9.71,21.22-18.94,39.93-36.09,25.1Z"/>
  <path class="st0" d="M1729.41,282.42c16.27-4.84,36.71,12.71,38.63,28.52,3.39,27.84-20.9,89.69-27.88,120.21-5.6,24.47-11.49,80.12-3.1,102.79,8.41,22.72,44.58,24.74,63.72,15.84,20.26-9.42,42.32-61.24,56.39-81.61,7.52-10.89,14.31-26.04,30.27-20.67,35.03,11.78,11.33,40.49-2.61,58.33-16.01,20.49-36.67,37.79-52.77,57.23-13.45,16.24-20.93,37.23-37.46,50.72-7.67,2.05-12.83-14.99-17.59-19.8-19.87-20.07-82.84-25.29-90.07-51.92-4.8-17.68,12.7-32.23,1.06-49.06-14.36-20.76-26.66-11.72-15.53-45.53,8.16-24.79,24.33-53.29,30.54-77.46,3.65-14.23,4.45-29.77,7.62-44.38,2.32-10.75,7.33-39.8,18.78-43.21Z"/>
  <path class="st0" d="M1395.32,1604.68c8.45,8.2,8.21,27.16,16.79,34.21,12.14,9.97,34.31-.84,43.67,18.33,11.51,23.56,14.8,65.8,24.17,91.83,8.21,22.81,30.7,53.41,33.24,76.93,2.63,24.38-33.52,24.92-47.08,14.91-19.84-14.64-47.32-114.63-63.78-144.22-7.59-13.64-32.3-49.63-44.44-57.56-21.47-14.02-59.2,8.18-64.96,30.85-7.59,29.85,9.65,78.92,4.93,112.92-2.97,21.38-40.66,23.04-43.88-5.86-4.48-40.23,7.1-83.76,7.92-123.93.15-7.29-1.09-42.25.96-45.2,3.96-5.66,26.22,6.4,36.02,6.17,25.37-.6,75.94-29.25,96.43-9.38Z"/>
  <path class="st0" d="M1107.76,495.77c-6.16,2.6-13.61,2.88-19.72,5.27-29.3,11.49-50.06,68.81-79.28,70.88-15.13,1.07-26.41-17.51-39.81-18.06-21.16-.87-22.89,26.43-52.78,4.97-21.83-15.67-43.08-38.91-64.36-53.64-15.69-10.86-70.24-32.88-76.3-47.69-7.27-17.78,14.21-34.3,29.71-35.41,22.03-1.57,85.03,47.34,106.94,60.75,24.05,14.72,46.77,26.29,74.31,33.69,28.54,7.67,48.57,9.24,59.62-23.42,6.97-20.6,5.18-33.48-7.27-50.93-12.21-17.11-60.67-60.1-62.77-77.36-1.98-16.28,19.4-30.83,33.86-21.72,22.6,14.24,48.02,74.77,63.25,98.74,6.08,9.57,41.1,44.63,34.6,53.93Z"/>
  <path class="st0" d="M2139.6,1134.6c26.36-2.19,61.27-5.49,46.5,32.5-8.54,21.97-30.81,22.97-51.12,24.88-45.98,4.33-155.86-.81-189.07,34.93-16.15,17.37-5.84,55.11,12.23,67.96,24.37,17.33,81.79,13.91,108.57,29.43,19.04,11.03,9.02,44.29-15.5,41.57-31.84-3.53-74.27-32.15-104.65-43.42-14.41-5.34-31.8-6.8-45.64-12.36-22.74-9.12-3.89-16.84,2.19-30,13.07-28.29.16-68.76,15.24-92.76,12.99-20.69,32.1-8.27,46.41-15.59,13.49-6.9,11.58-30.56,28.68-35.32,21.07,1.05,42.5.51,63.55,1.61,9.63.5,19.94,4.21,30.06,4.13,16.65-.12,35.57-6.15,52.57-7.56Z"/>
  <path class="st0" d="M1475.3,256.7c2.64,2.6,4.33,6.49,4.79,10.22,4.58,37.45-5.66,74.03-8.06,110.11-1.22,18.35,3.68,36.58,2.07,54.07-2.16,23.37-12.93,7.55-25.57,5.38-33.83-5.79-73.4,24.26-101.91,11.91-14.31-6.2-12.51-17.83-18.29-29.74-11.17-23.02-37.01-5.85-48.39-25.59-5.29-19.03-11.75-38-17-57-2.75-9.95-3.14-21.06-6.37-31.63-6.95-22.77-37.53-65.84-34.49-87.28,2.2-15.54,23.62-16.78,35.56-13.78,18.09,4.53,22.35,19.49,29.3,34.69,21.27,46.53,45.68,143.83,90.39,171.61,26.52,16.48,64.12-12.75,66.64-40.69,2.7-29.85-12.55-71.55-7.49-101.5,3.18-18.82,27.44-21.97,38.82-10.78Z"/>
  <path class="st0" d="M939.43,1436.29c10.04-2.83,12.86,12.73,18.58,18.7,19.27,20.09,82.18,24.83,89.04,50.95,4.65,17.71-6.85,29.04-4.68,40.55,3.15,16.72,28.05,21.36,24.81,41.55-3.99,24.85-26.75,62.21-34.17,87.98-6.74,23.43-6.42,50.29-14.94,73.06-7.31,19.53-18,25.33-36.13,11.98-19.52-14.37-16.61-27.75-12.58-48.69,10.79-56.05,47.6-138.44,29.62-194.35-8.89-27.63-50.19-29.85-70.81-14.85-22.11,16.08-48.88,90-66.68,97.31-13.06,5.36-30.35-4.6-32.67-18.37-1.78-10.59,21.88-40.12,29.24-49.05,13.58-16.46,32.77-31.98,45.9-48.1,7.57-9.31,26.74-46.2,35.48-48.67Z"/>
  <path class="st0" d="M550.58,911.4c-14.7-12.43,1.47-42.82,18.87-48.95,29.56-10.42,84.65-5.98,117.53-8.47,24.24-1.84,77.52-13.02,96.89-27.11,22.03-16.02,14.61-50.71-1.79-67.96-21.53-22.64-113.46-20.47-123.04-42.95-3.65-8.58,2.46-27.34,10.99-30.92,11.87-4.97,40.63,6.18,53,10.91,20.71,7.92,40.9,21.21,60.99,29.01,15.99,6.21,34.81,7.85,49.92,14.08,23.79,9.81,5.28,14.82-1.6,28.32-14.24,27.94-1.26,70.15-14.66,93.34s-33.12,6.93-48.71,17.29c-14.92,9.91-9.37,35.09-36,35.59-30.92.58-65.79-7.62-96.07-5.66-19.44,1.26-71.67,15.89-86.35,3.48Z"/>
  <path class="st0" d="M771.49,1106.47c19.45-2.89,11,12.45,12.51,26.54,3.14,29.47,54.66,68.74,39.75,97.74-4.91,9.56-23.76,17.27-26.85,27.14-5.58,17.79,13.62,32.15-7.02,48.99s-52.1,30.55-73.71,46.29c-16.28,11.86-52.64,54.95-67.58,58.4-27.15,6.25-34.54-31.13-21.05-51.03,20.03-29.53,81.76-63.31,109.48-92.52,12.87-13.55,45.01-54.84,44.26-72.73-1.01-24.01-33.96-43.2-56.27-41.26-29.31,2.55-73.13,38.29-102.32,39.27-17.41.58-26.71-25.26-15.79-37.39,15.12-16.81,91.37-25.51,115.94-32.06,15.37-4.1,34.46-15.28,48.64-17.39Z"/>
  <path class="st0" d="M2089.5,636.38c22.32-4.32,29.06,31.17,20.1,48.22-13.75,26.14-85.67,69.54-110.62,95.38-10.93,11.32-42.22,51.42-44.5,65.5-4.44,27.43,29.28,52.73,54.29,50.33,28.53-2.74,73.15-38.1,102.29-39.89,22.68-1.39,29.77,32.03,10.35,42.5-30.17,16.26-76.4,17.72-109.42,26.58-11.15,2.99-48.99,20.78-56.55,18.72-9.54-2.6-3.13-15.76-3.37-22.6-1.06-30.24-42.98-60.92-43.89-90.29-.64-20.88,22.86-24.24,29.27-38.35,7-15.41-11.33-32.94,5.56-48.45,8.17-7.5,34.17-23.65,45.11-30.89,9.25-6.12,19.99-9.51,29.69-16.31,18.23-12.77,53.43-56.91,71.68-60.45Z"/>
  <path class="st0" d="M1395.5,1519.51c4.12-4.33,2.86-17.44,12.37-20.63,10.19-3.41,14.65.67,19.22,9.02,5.79,10.57,22.19,88.56,21.8,101.13-.44,14-9.7,14.25-18.98,6.06-18.53-16.35-16.21-61.09-51.26-47.42-30.16,11.76-40.86,31.22-79.76,18.44-17.28-5.67-48.54-34.64-59.85-6.05-12.07,30.52-10.71,86.74-15.07,120.93-3.31,26.02-19.05,77.85-36.95,97.05-18.18,19.5-36.25,4.35-32.55-20.57,4.18-28.11,22.24-70.1,30.51-99.47,9.21-32.7,25.52-80.91,28.98-113.02,1.08-10.04-4.08-36.44,9.1-38.96,12.78-2.45,27.97,12.48,40.21,17.7,26.92,11.48,61.8,7.95,88.64-2.78,5.18-2.07,41.9-19.66,43.57-21.42Z"/>
  <path class="st0" d="M1651.44,498.29c13.86-3.88,13.05,20.42,12.31,28.47-1.57,17.27-14.88,40.48,8.25,50.24,15.42,6.51,35.63,2.11,54.75,11.25,29.59,14.13,27.37,33.9,43.25,54.75,15.21,19.95,26.33,9.73,41.05-2.94,54.05-46.52,72.78-101.48,146.49-131.51,32.33-13.17,47.16,9.79,24.53,32.53-20.68,20.78-62.12,45.36-87.02,64.98-26.56,20.93-63.68,48.11-86.08,71.92-9.07,9.64-24.7,41.42-38.67,18.73-8.16-13.25-9.41-28.75-21.28-42.72-22.55-26.54-77.95-47.38-112.14-45.77-6.92.32-15.56,13.83-27.4,7.38-9.65-5.26-6.61-18.39-3.88-27,5.87-18.54,25.56-61.39,35.29-78.69,1.9-3.37,6.99-10.6,10.55-11.6Z"/>
  <path class="st0" d="M1836.7,1143.3c-12.08-14.3-2.26-26.25,14.35-27.37,13.83-.93,79.59,6.78,93.4,10.61,25.48,7.05,8.79,20.56-8.04,24.86-24.86,6.36-51.51-2.54-48.38,33.58,2.53,29.27,14.31,45.24-5.16,74.88-9.02,13.73-48.07,37.31-29.87,56.14,17.99,18.61,90.59,43.09,117.72,56.28,24.72,12.02,48.42,30.62,67.27,50.73,26.74,28.52,10.71,53.79-25.38,33.38-59.53-33.67-116.06-88.71-179.26-118.74-10.64-5.05-34.74-8.1-33.36-22.46.98-10.15,23.59-24.24,31.03-33.17,26.01-31.23,27.45-86.83,16.39-124.44-3.43-11.66-5.61-8.24-10.72-14.28Z"/>
  <path class="st0" d="M1546.48,1512.47c6.23-6.26,25.8-3.6,34.31-4.68,23.79-3.01,53.24-23.43,68.04-41.96,6.53-8.17,29.15-46.56,30.81-55.34,1.81-9.56-9.13-28.75,7.83-32.14,8.31-1.66,15.21,3.09,21.47,7.7,16.83,12.41,48.21,41.51,63.13,56.87,9.26,9.55,13.58,23.95-4.78,22.97-18.13-.97-40.99-24.93-57.3-21.03-16.44,3.93-25.58,45.04-42.14,59.99-22.51,20.34-42.78,12.19-65.83,22.17-20.61,8.92-12.77,21.1-5.74,37.69,26.4,62.28,82.13,114.19,79.82,188.34-.57,18.17-14.32,31.32-29.96,17.79-12.27-10.62-36.23-94.55-44.12-115.88-11.1-30.04-25.55-75-40.43-101.57-5.33-9.51-25.58-30.42-15.14-40.92Z"/>
  <path class="st0" d="M1897.47,766.43c21.15-2.67,15.19,13.09,6.48,24.52-11.76,15.43-41.8,29.14-25.95,52.05,11.93,17.24,29.95,21.88,39.52,46.48,8.97,23.03,2.26,32.27.52,53.55-2.64,32.3,7.52,33.27,36.71,30.71,71.4-6.25,117.93-39.51,195.67-19.15,30.92,8.1,29.36,36-1.4,39.41-19.91,2.21-42.1,1.42-61.93,2.09-44.65,1.5-93.91.14-138.05,3.94-15.66,1.35-35.95,11.02-48.27,11.91-26.53,1.9-8.33-34.01-7.01-47.18,2.64-26.29-10.08-58.91-25.81-79.7-5.83-7.7-32.72-36.79-39.97-40.03s-17.62,2.41-23.76-8.29c-5.53-9.64,2.13-16.6,9.13-22.38,22.31-18.43,59.27-31.91,84.12-47.92Z"/>
  <path class="st0" d="M1089.29,278.71c5.79,5.25,9.3,15.56,12.21,22.79,23,57.27,38.89,123.57,64.13,179.87,5,11.14,26.38,38.9,26.29,47.49-.17,15.06-32.45,11.53-42.76,13.31-26.87,4.62-58.89,32.39-72.77,55.23-3.95,6.5-20.3,37.07-21.49,42.56-1.83,8.44,9.65,20.59-3.02,28.93-13.38,8.8-31.98-11.32-41.9-19.85-13.45-11.56-34.33-29.51-46.06-41.94-2.77-2.94-9.77-12-9.48-15.75,1.88-8.79,8.9-8.12,16.4-7.16,20.43,2.6,48.44,34.89,66.05,11.71,18.43-24.25,14.17-52.03,53.17-64.83,36.3-11.91,72.09,2.64,46.29-52.4-27.79-59.28-78.91-111.18-78.33-181.66.15-18.3,15.84-32.28,31.27-18.28Z"/>
  <path class="st0" d="M824.3,1281.7c-7.75-31.77,53.59-44.36,32.57-75.56-10.78-16.01-28.8-21.62-38.42-43.59-13.44-30.7.21-39.78-.38-65.46-.67-29.2-24-23.78-44.8-20.82-35.28,5.02-71.83,17.95-106.82,23.18-21.51,3.21-71.46.93-91.25-7.64-27.75-12.02-10.56-35.35,15.84-37.77,69.12-6.34,145.75,3.96,214.99-9.01,17.47-3.27,43.73-19.46,42.01,9.92-1.31,22.34-11.24,30.09-5.1,57.13,5.55,24.45,40.27,84.19,64.51,91.49,9.19,2.77,25.3-.97,24.72,15.38-.52,14.54-30.81,28.27-42.81,35.41-9.41,5.59-49.07,29.07-56.53,29.54-2.93.18-5.93-.95-8.52-2.19Z"/>
  <path class="st0" d="M951.45,1344.31c13.53-2.13,18.71,24.27,23.5,33.74,19.94,39.51,72.18,59.28,114.32,61.69,14,.8,11.82-2.33,21.62-5.85,13.22-4.75,22.11.33,21.2,15.04-.76,12.27-25.39,63.8-32.37,77.78-3.36,6.73-12.55,29.9-22.41,23.12-20.44-18.9,17.44-68.13-15.62-78.53-32.4-10.18-53.89,2.56-79.34-32.66-11.12-15.38-18.92-55.6-45.01-40.32-25.74,15.07-61.95,66.11-84.3,89.69-18.42,19.43-54.08,46.78-79.93,54.08-30.15,8.51-40.58-11.18-21.17-33.17,50.76-40.31,105.69-76.96,155.02-118.98,9.65-8.22,37.36-44.52,44.49-45.64Z"/>
  <path class="st0" d="M699.46,584.44c4.36-.38,8.4,1.56,12.5,2.62,57.14,34.53,112.01,80.99,169.44,114.55,14.93,8.72,31.86,11.82,45.14,18.86,26.16,13.88-12.34,34.17-22.58,46.49-25.77,30.99-28.62,90.94-15.82,127.92,3.67,10.61,20.4,14.76,14.38,28.61-4.89,11.26-23.03,9-33.49,8.5-13.01-.62-76.44-7.25-84.41-11.59-10.87-5.92-7.57-13.69,1.99-18.79,19.79-10.56,61.49.59,61.55-30.59.05-25.38-15.02-45.05-.51-74.36,9-18.18,42.61-36.43,37.97-57.19-1.76-7.88-22.04-18.58-29.57-22.49-56.16-29.17-118.7-40.99-161.06-92.94-10.5-12.88-20.25-37.45,4.48-39.58Z"/>
  <path class="st0" d="M1338.5,530.5c-4.27,5.33-1.25,17.72-14.5,20.63-13.85,3.04-18.68-14.87-21.41-24.72-4.36-15.69-17.94-76.22-16.42-89.28.67-5.81,3.35-9.78,9.84-8.26,20.54,4.81,24.14,50.35,43.42,54.71,16.97,3.84,31.41-12.96,46.59-18.57s32.31-7.34,48.42-2.46c16.27,4.93,50.55,34.2,61.04,7.92,13.43-33.66,11.24-95.49,16.76-133.24,2.87-19.66,24.49-79.14,39.91-90.09,21.62-15.36,32.39,7.39,27.34,27.34-16.91,61.07-40.14,123.99-54.5,185.5-4.32,18.49-2.37,36.04-5.1,52.9-4.25,26.27-33.23-.81-43.8-5.96-24.69-12.04-58.96-11.04-84.63-2.47-5.8,1.94-51.11,23.75-52.95,26.05Z"/>
  <path class="st0" d="M1101.43,848.36c3.85-.59,7.07,1.34,10.36,2.86,9.41,4.36,43.24,24.75,50.9,31.08,3.28,2.71,5.74,5.66,4.99,10.26-.66,4.07-17.69,29.35-21.11,37.02-12.4,27.86-8.84,44.44-15.18,70.82-1.93,8.02-2.4,14.44-12.29,15.71-12.65,1.62-30.66-.41-44.19-.18-9.95.17-41.4,7.7-27.8-13.82,13.72-21.72,50.28,4.71,62.33-31.66,5.75-17.36,7.92-36.59,15.04-54.96,3.04-7.85,11.62-15.99,9.2-24.07s-29.72-12.65-37.38-22.7c-5.74-7.53-5.24-18.77,5.13-20.35Z"/>
  <path class="st0" d="M1249.45,724.33c9.35-.76,11.59,7.57,14.89,14.33,4.56,9.32,19.61,42.56,21.28,50.82,2.99,14.75-24.16,19.51-35.68,25.46-32.67,16.86-37.87,35.98-61.9,54.09-6.8,5.12-8.35,6.59-16.72,2.64-4.19-1.97-53.23-36.01-55.33-38.65-4.75-5.97-5.09-9.99,2.18-13.86,22.97-12.25,35.11,22.46,61.48,15.46,13.74-3.65,38.32-30.9,53.72-40.27,6.4-3.89,21.61-7.25,22.71-13.41,3-16.9-33.56-43.09-6.62-56.62Z"/>
  <path class="st0" d="M1284.48,1335.51c-1.68-1.68-2.39-6.08-2.53-8.53-.46-7.77,10.57-56.21,13.91-64.12,1.54-3.66,2.91-6.33,7.24-6.9l59.99,10.12c17.36.05,55.54-14.57,68.43-8.6,7.26,3.36,13.28,34.26,16.43,43.56,3.86,11.38,18.36,27.3,4.64,36.66-33.83-2.47-16.59-44.1-50.5-50.84-13.41-2.66-40.99,4.6-59.17,3.2-8.66-.67-21.52-6.83-28.96-3.09-6.9,3.47-5.14,24.44-6.45,31.54-1.71,9.34-13.25,26.82-23.05,16.98Z"/>
  <path class="st0" d="M1177.43,1208.6c-18.16-14.69-29.29,32.63-51.46,26.59-7.7-2.1-10.13-9.37-6.07-16.31,3.21-5.48,34.11-31.34,41.15-36.83,3.38-2.63,11.84-9.98,15.63-9.64,18.44,14.77,30.69,35.24,51.49,48.41,11.7,7.4,46.65,19.06,52.77,27.23,6.66,8.89-5.29,29.18-8.37,39.52-2.42,8.14-6.91,35.97-12.54,39.49-7.61,4.75-16.44-7.93-17.67-14.58-3.01-16.23,15.74-29.71,2.54-50.39-7.57-11.86-40.3-26.96-53.86-38.14-5.2-4.29-10.17-12.56-13.61-15.35Z"/>
  <path class="st0" d="M1109.58,1030.6c5.57-.27,14.04-2.93,17.37,3.45,4.19,8.04,3.65,31.8,5.56,42.44,1.05,5.82,3.11,13.4,4.92,19.08,4.74,14.89,28.83,49.54,28.73,59.48-.02,1.91-.4,3.2-1.18,4.9-2.09,4.52-33.02,24.87-39.92,30.11-4.95,3.76-23.91,26.23-28.64,10.53-8.39-27.8,29.53-28.34,31.67-53.49,1.48-17.27-16.58-47.37-21.2-66.99-1.44-6.14.28-23.64-6.16-25.82-15.25-2.66-30.16,6.67-45.31,3.28-8.37-1.87-13.58-12.61-7.47-18.62,5.45-5.37,50.97-7.83,61.63-8.34Z"/>
  <path class="st0" d="M1434.56,714.58c3.54-2.91,9.7-3.14,14.1-2.29,3.64,1.19,5.37,7.09,5.39,10.66.03,6.33-12.14,56.27-15.05,63.04-1.5,3.5-3.56,7.63-7.87,7.87-23.48-5.56-47.49-11.97-71.89-9.62-12.5,1.2-46.43,12.99-55.82,7.4-6.92-4.12-12.74-32.86-15.9-42.16-2.47-7.26-17.83-31.59-7.51-36.49,32.4-6.08,22.06,41.33,47.93,48.07,23.06,1.72,45.99-2.59,69.13-1.13,7.5.47,18.84,6.4,24.1,2.26,7.94-6.24,2.57-38.7,13.39-47.61Z"/>
  <path class="st0" d="M1474.59,722.57c1.27-1.11,2.7-1.75,4.39-1.83,10.52,3.46,14.87,13.42,12.86,24.08-23.33,50.55,21.93,55.32,51.99,80.34,7.69,6.4,12.17,16.2,21.17,18.69,13.23-.04,24.61-35.95,45.59-29.49,3.98,1.23,7.75,7.59,6.61,11.7-3,10.73-44.06,38.71-53.3,48.93-11.62,5.18-28.81-23.52-36.82-31.07-6.85-6.46-19.46-15.86-27.73-20.27-9.14-4.88-42.4-15.6-46.37-23.63-3.97-8.02,8.89-37.91,12.03-47.99,2.7-8.67,2.27-23.04,9.57-29.45Z"/>
  <path class="st0" d="M1637.75,844.25c13,37.02-40.59,31.18-30.38,71.39,3.73,14.69,15.01,33,19.61,50.38,1.82,6.9,3.02,26.65,6.99,29,10.75,6.36,36.98-13.09,51.95.05,7.37,6.47,3.29,16.41-5.34,18.51-10.32,2.51-34.28,3.98-45.6,4.41-7.17.27-26.27,2.63-28.58-5.38-1.56-21.06-3.08-43.8-10.35-63.65-4.72-12.86-29.25-47.44-27.03-57.21,1.78-7.8,31.75-25.58,39.93-31.8,9.1-6.93,13.93-18.81,28.81-15.7Z"/>
  <path class="st0" d="M1480.53,1264.51c-8.5,8.9,7.44,24.53,10.94,33.01,6.97,16.89,2.26,36.34-17.2,21.21-2.65-10.45-27.76-59.64-24.85-66.18,2.07-4.65,43.87-22.57,53.21-28.92,13.4-9.11,42.33-45.34,50.81-47.23,12.31-2.75,30.55,16.74,41.11,24.06,7.83,5.43,38.77,16.71,23.41,28.51-23.11,17.76-40.13-33.25-75.79-7.8-14.14,10.1-26.82,24.77-43.09,34.91-4.83,3.01-16.26,6.04-18.55,8.43Z"/>
  <path class="st0" d="M1675.34,1030.78c3.76.04,10.94.85,13.75,3.21,3.19,3.87,2.19,7.76-.23,11.81-11.62,19.45-42.89,1.61-58.86,23.18-7.32,9.88-12.2,45.13-17.9,60.1-2.84,7.45-13.36,21.64-11.79,27.47,3.31,12.25,42.99,12.63,41.91,34.43-.44,8.94-7.02,10.13-14.73,8.59-13.79-2.76-42.3-28.88-57.45-34.58-1.41-1-1.87-2.4-2.14-4.03-1.09-6.73,20.03-39.31,24.16-49.9,8.37-21.49,6.49-36.49,10.52-57.48,6.4-33.34,22.95-18.72,48.53-19.49,7.45-.22,16.72-3.38,24.24-3.29Z"/>
  <path class="st0" d="M1342.51,1332.49c-2.1,1.99-1.66,13.71-6.41,18.62-4.03,4.17-13.05,4.56-19.11,8.89-3.47,2.48-14.37,15.33-15.02,19.11-4.49,26.16,39.96,17.22,43.7,28.22,4.8,14.16-4.36,38.32-22.43,36.58-22.2-2.14-22.73-23.19-33.25-36.89-13.7-17.85-31.13-9.18-18.1-44.11,6.19-16.6,18.51-9.71,30.7-13.3,6.06-1.78,18.34-19.47,20.05-25.95,3.38-12.76-2.73-29.69,16.42-23.78,12.26,3.78,16.68,15.81,11.17,27.37-2.84,5.95-5.95,3.57-7.72,5.25Z"/>
  <path class="st0" d="M1498.5,1375.49c-1.23-1.19-8.47-17.25-9.12-19.85-5.5-22.07,13.51-18.4,18.06-35.17,2.34-8.62,1.89-19.6-.8-28.11-2.56-8.07-14.64-19.45-5.44-26.18,12.81-9.37,30.37.93,30.86,15.01.16,4.47-3.89,6.73-3.7,9.47.3,4.26,6.47,8.25,5.65,16.16-1.15,11.07-14.55,16.26-12.04,38.22,3.51,30.69,41.04-1.65,52.09,1.75,11.08,3.41,19.47,32.38,5.86,42.13-19.65,14.08-31.02-3.37-47.47-8.36-8.96-2.72-30.28-1.53-33.94-5.07Z"/>
  <path class="st0" d="M1654.44,1145.55c.83,1.21,5.37,1.78,7.47,3.5,11.66,9.6,6.07,15.2,9.03,27.01.8,3.21,10.06,18.62,12.45,20.04,20.31,12.06,26.26-17.37,34.59-27.12,12-14.04,43.21,7.32,34.5,28.51-7.33,17.83-29.03,14.19-43.58,18.41-20.52,5.94-15.55,23.4-40.94,9.14-27.43-15.41-10.48-18.55-11.84-38.01-.58-8.23-10.63-22.15-17.14-27.01-10.32-7.72-33.16-8.19-16.07-26.11,7.66-8.03,18.04-6.88,26.13.05,6.08,5.2,3.51,8.82,5.4,11.6Z"/>
  <path class="st0" d="M1668.33,953.76c.87.69,7.6-1.95,10.68-1.96,14.36-.03,14.38,11.41,24.32,17.87,10,6.49,30.52,13.5,34.24-3.1,4.06-18.17-13.08-41.3,13.61-44.4,19.51-2.26,31.92,5.86,28.69,26.7-2.19,14.1-18.86,21.62-25.54,32.45-8.62,13.98-.89,25.83-21.56,28.44-35.6,4.5-22.51-8.16-35.91-23.61-5.47-6.31-23.78-11.86-31.86-11.73-11.59.19-27.17,12.14-27.17-9.42,0-12.85,11.45-18.62,23.27-17.17,7.93.97,5.27,4.38,7.24,5.93Z"/>
  <path class="st0" d="M1009.61,1038.59c27.89-1.83,17.65,12.57,28.33,24.47,6.27,6.99,23.82,11.25,33.09,11.08,10.81-.2,23.23-9.78,25.08,4.78s-6.03,23.75-21.22,23.2c-6.31-.23-6.74-4.63-10.28-5.72-5.26-1.61-11.8.76-17.19-.81s-13.34-19.27-31.32-22.74c-30.75-5.94-14.42,33-19.07,49.18-18.1,10.77-46.37,5.64-42.59-20.51,2.13-14.7,16.95-20.92,24.44-31.65,13.33-19.1-.4-29.24,30.74-31.28Z"/>
  <path class="st0" d="M1635.55,706.35c5.04-.54,10.44,1.46,14.3,4.8,17.15,14.81,3.64,36.54,6.1,55.9.97,7.66,8.3,15.89,5.09,22.88-1.13,2.45-17.97,18.23-20.92,19.16-15.27,4.83-16.52-5.3-26.02-8.18-13.38-4.04-29.85,3.72-39.88,12.29-5.29,4.52-7.4,15.21-18.23,9.81-13-6.48-8.02-28.73,4.09-34.09,4.23-1.87,7.32.85,10.02-.06,3.57-1.2,8.38-8.9,15.62-9.85,4.51-.59,10.24,2.64,15.32,2.95,10.94.67,31.62-1.56,32.96-15.17,1.54-15.64-23.85-27.68-23.85-37.81,0-8.27,17.33-21.78,25.41-22.65Z"/>
  <path class="st0" d="M1209.48,694.51c-12.9-13.68-33.83,10.19-48.43,7.57-11.41-2.04-25.05-42.92,5.92-46.14,18.55-1.93,24.11,11.14,38.52,13.58,8.01,1.35,18.35-1.08,25.1.9,4.96,1.45,13.91,18.05,14.95,23.03,4.74,22.59-14.95,19.13-18.64,36.45-1.4,6.56-1.47,14.02-.41,20.63,2.29,14.28,23.99,32.29-1.69,35.33-8.34.99-14.56-1.4-18.52-9.1-4.67-9.08-.31-11.21-.51-17.86-.1-3.44-3.15-6.35-3.69-10.03-2.03-13.74,8.48-17.66,9.98-29.81.64-5.19.74-21.04-2.57-24.54Z"/>
  <path class="st0" d="M1407.73,749.72c-18.96,2.88-29.11-9.57-22.85-27.83,2.39-6.97,7.61-4.89,8.78-6.21.91-1.04.27-12.17,5.43-17.59,6.23-6.52,17.96-5.49,27.73-18.27,26.31-34.38-32.68-27.09-37.5-38.27-3.33-12.84,2.18-34.79,17.6-35.72,28.49-1.72,25.71,21.67,39.11,37.13,15.26,17.6,28.1,9.07,17.39,41.48-6.72,20.33-15.54,10.07-29.55,14.45-16.91,5.29-24.97,35.5-26.16,50.83Z"/>
  <path class="st0" d="M1081.56,904.45c-.95-1.4-11.9-4.49-14.53-10.48-4.66-10.62.62-21.09-11.03-34.97-24.87-29.63-32.34,24.97-47.28,26.5-20.2-4.07-39.09-21.41-20.81-40.59,12.35-12.95,26.06-6.66,41.16-12.84,11.92-4.87,15.77-18.15,30.37-12.52,3.54,1.36,19.59,11.74,21.08,14.91,5.95,12.72-6.56,20.12,1.14,36.88s35.23,27.18,36.13,29.99c4.21,13.09-17.14,24.93-30.83,14.7-6.16-4.61-3.53-8.85-5.41-11.59Z"/>
  <path class="st0" d="M1171.42,1224.28c8.16-2.09,16.66,11.54,16.05,18.42-.43,4.88-9.36,16.13-14.02,17.83-2.94,1.07-5.69-.76-7.97-.11-3.89,1.12-8.47,7.97-14.99,9.2-8.17,1.54-13.53-3.9-21.4-3.7-7.27.19-25.47,5.08-27.05,13.12-5.06,25.66,42.65,34.61,10.95,56.95-12.9,9.09-26.53,9.4-33.78-6.21-7.93-17.07,1.61-25.19.93-40.81-.93-21.29-17.39-27.32,10-45.84,19.31-13.05,20.61,4.68,35.38,6.5,8.53,1.05,26.57-6.34,33.18-11.94,3.84-3.26,8.39-12.31,12.72-13.42Z"/>
  <path class="st0" d="M1601.7,700.29c6.41,6.96-3.79,23.22-10.16,26.24-16.91,8.02-38.01-21.71-57.17,8.84-5.96,9.51-13.83,25.04-1.13,32.4,5.79,3.36,17.56,2.28,18.83,11.34.89,6.36-8.75,22.44-15.17,22.99-6.31.54-30.69-20.98-32.4-27.58-2.87-11.05,13.66-66.79,21.58-73.45s21.85-1.18,30.84-.99c14.91.31,29.9-.66,44.78.2Z"/>
  <path class="st0" d="M1360.47,1304.47c6.09-6.11,40.92-.7,47.57,6.48,10.64,11.49,15.27,48.95,21.89,64.23l-6.9,12.84c-9.44,1.57-50.78,36.03-54.03,36.05-10.16.05-10.78-21.49-6.62-28.69,5.77-10,36.46-7.29,39.5-26.49,1.47-9.29-.17-33.41-9.91-37.85-10.31-4.71-23.22,8.5-30.12.11-3.68-4.47-5.74-22.28-1.37-26.67Z"/>
  <path class="st0" d="M1605.66,1345.63c-9.9,7.61-21.42-5.85-23.23-15.11-3.51-17.97,25.34-28.24,13.96-49.92-4.66-8.88-18.06-24.24-29.27-22.66-11.76,1.65-16.12,34.15-35.1,9.05-4.9-6.47-8.19-11.34-1.85-17.84,2.7-2.76,24-15.19,27.78-16.21,13.21-3.55,27.32,8.78,37.83,16.28,7.76,5.54,32.75,23.42,31.39,32.83-2.69,18.61-22.61,42.31-21.52,63.58Z"/>
  <path class="st0" d="M1632.29,1119.72c-3.92-6.17,8.39-35.46,13.7-40.72,13.79-13.66,57.83-4.31,76.59-4.58,9.3,2.68,13.32,34.22,15.99,44.01,2.6,9.56,7.02,18.52,9.18,28.16-2.67,11.04-29.58,3.62-31.7-7.64-2.17-11.52,2.5-23.06-4.49-35.51-5.42-9.65-34.69-15.14-43.54-8.43-9.5,7.2-2.77,16.98-5.77,24.08-5.32,12.61-20.98,2.93-29.96.62Z"/>
  <path class="st0" d="M1745.68,896.28c5.42,14.72-13.46,19.82-24.62,17.68-12.09-2.32-13.97-28.58-36.05-28.13-8.41.17-30.11,9.21-32.62,17.6-4.2,14.03,17.2,23.61,7.09,34.07-1.35,1.4-16.63,7.92-18.82,7.99-12.75.42-18.54-38.01-13.5-47.34,2.69-4.98,15.86-15.02,21.01-18.97,7.27-5.59,33.18-23.92,40.64-23.17,11.15,1.13,40.98,38.57,56.87,40.28Z"/>
  <path class="st0" d="M1110.61,777.43c-7.76-9.64,10.35-41.77,14.31-53.5,2.35-6.95,4.53-14.48,5.16-21.83,9.53-1.38,12.24.2,17.58,7.25,17.41,22.99-13.41,28.88-11.78,51.63.68,9.51,16.98,28.25,27.1,29.19,15.42,1.43,14.58-12.97,23.58-16.7,9.08-3.77,27.12,16.45,19.41,25.54-.94,1.11-22.65,14.78-24.53,15.45-17.01,6.06-27.17-3.8-40.08-12.81-5.68-3.97-27.51-20.17-30.76-24.2Z"/>
  <path class="st0" d="M1195.44,1248.34c10.13-2.96,35.21,20.67,36.53,30.83.84,6.5-6.1,27.67-8.56,35.25-2.25,6.93-10.95,31.43-15.53,34.46-8.24,5.45-32.18-.53-42.81-.96-10.49-.42-20.8.67-31.18,1.25-6.12-9.23,1.25-21.52,9.97-26.3,13.91-7.62,32.36,14.3,49.17,1.18,3.09-2.41,13.09-19.77,14.08-23.9,6.51-27.24-23.36-15.82-24.7-31.46-.36-4.19,8.47-19.02,13.02-20.34Z"/>
  <path class="st0" d="M991.32,898.33c7.3-2.56,20.94,1.28,25.64,7.71,9.65,13.21-9.62,38.23,20.15,47.85,9.02,2.91,21.88,6.21,29.92.14,12.76-9.64-6.52-34.14,21.49-29.54,7.96,1.31,16.28,5.05,15.14,13.98-1.53,11.95-13.11,35.99-26.61,37.58-12.56,1.48-45.5,1.46-58.09,0-18.11-2.11-19.53-34.16-23.96-50.04-1.83-6.58-12.53-24.57-3.67-27.68Z"/>
  <path class="st0" d="M988.24,1151.76c-4.01-11.77,13.94-18.61,22.58-17.74,13.47,1.35,17.25,24.97,33.14,29.08,11.14,2.88,39.16-9.11,40.02-22.24.61-9.35-14.6-16.79-10.7-26.3,4.6-5.66,18.65-12.5,25.37-10.31,6.88,2.24,12.87,36.14,10.45,43.87-2.66,8.48-52.37,44.75-60.43,45.43-10.4.87-45.54-39.84-60.43-41.78Z"/>
  <path class="st0" d="M1343,746c-7.47-1.05-15.7-5.78-19.41-12.59-4.44-8.18-18.96-56.83-17.58-64.32.7-3.83,3.18-5.85,6.16-7.91,9.77-2.25,48.62-34.85,52.91-35.28,11.56-1.15,10.76,20.42,7.43,27.62-4.64,10.04-35.16,7.45-39.65,26.34-2.54,10.68,1.23,39.75,16.08,39.94,7.75.1,18.18-11.18,24.85-.59,2.98,4.74,3.88,26.79-.8,26.79-9.45-.93-20.89,1.28-30,0Z"/>
  <path class="st0" d="M1495.44,1068.32l85.65,15.6c2.79,4.19-.45,13.14-3.37,16.8-15.58,19.53-53.87-24.14-73.71-9.69-2.23,10.52,53.51,19.01,55.98,44.18.6,6.08-2.34,11.47-8.85,10.84-4.95-.47-27.77-20.24-35.78-24.42-7.92-4.14-25.03-7.84-30.29-13.73-6.79-7.6,2.73-13.82,4.48-21.34,1.53-6.57-2.24-15.01,5.88-18.24Z"/>
  <path class="st0" d="M1517.99,999.99c19.16,2.62,56.9-16.69,70.97,2.08,15.05,20.08-35.81,12.97-45.75,14.14-8.16.96-24.63,8.72-31.31,6.93-9.6-2.58-6.93-15.12-9.73-22.32-2.14-5.5-8.58-7.58-5.9-15.5,1.32-3.89,37.65-18.38,44.45-21.61,7.81-3.72,24.8-15.54,31.12-16.76,10.05-1.94,14.15,19.95,5.23,27.11-7.31,5.86-37.24,7.05-50.42,13.58-6.34,3.14-9.94,3.67-8.65,12.35Z"/>
  <path class="st0" d="M1253.48,1110.29c9.9-1.96,17.69,17.46,30.54,16.68l2,5.85c-12.09,21.67-22.49,46.38-34.38,67.81-4.56,8.22-6.41,12.4-15.54,6.25-28.25-19.02,24.55-45.58,27.58-66.36.5-3.44.1-4.46-2.71-6.53-18.09,5.91-36.41,46.18-59.05,39.13-24.78-7.71,20.02-30.13,27.18-37.04,6.7-6.47,15.74-24.09,24.39-25.8Z"/>
  <path class="st0" d="M1450.43,921.53l-1.55-4.48,40.46-76.84c4.97-1.16,9.28,1.56,12.75,4.72,16.49,15.05-6.96,29.17-16.02,40.14-6.03,7.29-19.79,22.39-11.07,30.89,18.75-10.39,33.1-44.72,57.95-39.9,3.3.64,5.56,2.16,6.79,5.37,2.97,10.73-26.18,24.41-33.77,31.53-6.48,6.08-16.86,24.29-23.9,26.24-8.14,2.25-20.26-18.31-31.63-17.67Z"/>
  <path class="st0" d="M1381.48,804.51c9.18,9.77-8.15,56.99,5.55,69.48,8.44,1.95,9.79-37.36,11.57-44.4,2.37-9.36,11.35-28.68,23.4-22.65,10.04,5.03-5.6,34.23-7.48,44.57-1.66,9.12-.61,25.36-2.88,33.12-2.88,9.84-17.29,5.29-24.69,5.25-5.59-.03-11.4,4.27-16.13.33l-12.81-85.22,1.87-4.11c4.1-2.84,18.25.05,21.61,3.63Z"/>
  <path class="st0" d="M1232.54,844.51c.7-.71,11.75-5.99,12.93-6.18,19.07-3.05,27.98,54.08,50.52,51.66,8.1-8.12-36.11-51.19-17.08-70.07,14.23-14.12,19.24,22.87,23.38,32.79,3.61,8.64,21.5,33.17,18.79,39.22-2.54,5.67-13.59,8.07-18.11,12.03-4.7,4.12-5.33,13.53-14.92,9.05l-57.94-61.96c.31-2.2.88-4.95,2.44-6.54Z"/>
  <path class="st0" d="M1229.99,959.97c.55-3.3.07-4.49-2.04-6.93-12.12-14-62.73-16.24-50.09-48.18,8.35-5.95,28.25,14.58,36.8,19.48,6.97,4,33,13.09,35.48,16.5,5.82,7.97-3.14,14.88-5.27,23.04-3.12,11.98,4.03,17.27-13.82,16.11-22.38-1.46-48.37-12.17-71.96-12.07l-4.13-1.89c-6.81-6,3.15-23.39,12.17-23.97,10.39-.66,55.54,28.78,62.87,17.91Z"/>
  <path class="st0" d="M1503.38,1203.41c-22.89,26.24-38.17-23.65-49.42-36.37-4.37-4.94-17.55-15.46-15.61-2.49,1.17,7.78,13.87,24.42,17.4,32.7,5.21,12.2,10.2,37.08-9.75,33.8-5.29-2.61-12.09-33.28-16.24-41.8-4.44-9.11-19.6-23.48-14.78-33.26,2.01-4.08,11.98-6.55,16.07-9.96,5.05-4.22,7.17-14.67,14.37-10.56l60.24,63.21c-.39,1.77-1.07,3.36-2.27,4.73Z"/>
  <path class="st0" d="M1215.38,1057.4c1.68-1.88,2.7-4.83,2.63-7.37-4.01-5.61-39.09,5.75-47.11,6.03-11.14.39-29.7-4.53-26.67-18.78,2-5.98,33.01-2.59,40.75-3.3,10.79-.99,31.33-10.05,39.6-7.61,6.84,2.02,5.18,12.42,7.29,18.77,1.81,5.44,9.27,13.13,7.97,17.56l-3.08,3.07-77.44,36.03c-28.2-40.93,40.81-27.32,56.06-44.4Z"/>
  <path class="st0" d="M1310.26,1241.74c-6.01-3.73,7.55-32.41,9.14-39.34,2.86-12.5,1.03-22.3,2.71-33.29,3.07-19.99,26.21-4.54,40-12.13,6.59,3.05,8.85,44.17,10.2,53.69,1.04,7.36,8.11,30.75,4.81,35.45-42.47,11.56-21.61-29.67-23.07-53.22-.4-6.51-4.81-26.39-11.61-13.47-8.87,16.85,3.61,66.47-32.19,62.29Z"/>
  <path class="st0" d="M1341.49,808.52c6.42,5.95,15.89,76.3,18.5,89.47-36.1-1.32-34.33-32.86-43.07-57.9-3.11-8.92-15.01-23.58-9.93-32.11,3.99-6.71,29.12-4.44,34.51.55Z"/>
  <path class="st0" d="M1549.47,900.3c12.21-2.44,19.37,24.65,14.63,32.81-2.48,4.27-72.67,45.09-77.12,44.84-14.79-32.82,20.67-43.85,40.85-59.12,6.18-4.68,14.82-17.17,21.64-18.54Z"/>
  <path class="st0" d="M1244.01,992.01c-9.16,35.6-44.13,23.48-71.1,23.89-8.9.14-28.91,7.67-30.92-5.02-1.22-7.67,6.61-27.19,15.06-28.83l86.96,9.96Z"/>
  <path class="st0" d="M1298.03,1132c3.57-2.64,12.59,12.03,13.77,15.2,7.51,20.12-6,37.55-11.68,55.91-2.36,7.62-2.85,32.67-13.07,32.86-9.21-3.37-25.74-14.44-25-24.72l35.98-79.26Z"/>
  <path class="st0" d="M1437.9,915.91c-6.5,4.43-16.66-15.86-17.47-21.43-2.21-15.26,12.13-40.47,16.67-56.38,2.41-8.46-.67-26.19,13.74-24.12,7.23,1.04,25.57,17.45,21.06,26.87l-34.01,75.06Z"/>
  <path class="st0" d="M1490.01,1055.98c11.54-26.71,27.91-24.32,53.08-24.06,5.32.05,10.18,2.32,15.9,2.24,8.91-.11,31.52-10.63,34.71,3.26,1.39,6.05-8.6,31.76-18.87,30.57l-84.82-12.02Z"/>
  <path class="st0" d="M1213.47,866.43c3.97-.79,8.31-1.32,11.64,1.47,15.67,18.93,45.17,35.41,58.92,55.06,5.13,7.33-11.7,10.83-17.1,11.13-19.04,1.07-30.9-16.19-44.28-25.75-6.92-4.94-29.86-15.37-30.73-21.46-1.24-8.67,14.07-18.96,21.54-20.45Z"/>
  <path class="st0" d="M1376.01,1150.01c35.88,4.55,33.06,32.86,41.91,59.07,2.69,7.96,17.56,28.25,8.09,33.95-5,3.01-29.53,2.26-33.8-4.24-2.66-4.04-12.24-51.71-13.68-60.32-.72-4.28-3.9-26.9-2.53-28.45Z"/>
  <path class="st0" d="M1249.93,1072.04c8.39,34.47-20.49,41.16-41.76,57.13-7.68,5.77-21.51,27.04-31.25,16.92-6.33-6.57-9.56-24.74-4.06-32.22,3.05-4.14,41.95-26,49.79-30.21,4.05-2.18,24.69-13.47,27.27-11.61Z"/>
  <path class="st0" d="M1450.02,1120.04c30.87-14.26,42.32,6.74,63.32,21.62,7.85,5.56,27.8,12.73,29.85,20.29,2.27,8.33-18.78,22.48-26.05,22.04-4.99-.31-35.21-27.34-41.17-32.96-5.51-5.2-20.73-18.77-24.07-23.93-1.56-2.42-2.54-4.01-1.88-7.06Z"/>
  <path class="st0" d="M1472.69,989.31c10.9,9.49,32.7,29.81,16.35,44.72-13.71,12.51-20.19-8.69-27.74-15.33-7.97-7.02-27.21-8.84-28.95-20.12-2.37-15.43,20.16-23.56,32.08-18.05,5.63,2.61,5.28,6.19,8.25,8.78Z"/>
  <path class="st0" d="M1356.54,916.56c2.98-2.4,7.83-1.94,11.28-3.75,12.42-6.51,26.52-17.38,41.22-6.85,23.28,16.68-11.87,23.67-19.74,28.34-9.91,5.88-11.75,20.78-26.31,19.89-15.96-.97-15.96-29.97-6.45-37.63Z"/>
  <path class="st0" d="M1450.48,1101.51c-3.16-3.16-2.89-23.91-5.49-31.5-3.59-10.48-17.78-20.06-7.09-31.12,8.59-8.89,27-4.32,33.02,5.19,4.62,7.3,6.33,33.81,4.95,42.79-1.67,10.88-16.92,23.12-25.4,14.64Z"/>
  <path class="st0" d="M1329.42,1082.61c12.34,10.07-1.3,32.51-14.94,35.06-14.22-4-45.85-2.78-50.06-21.09-6.21-27.05,20.35-13,32.55-12.44,10.44.48,24.83-7.74,32.45-1.53Z"/>
  <path class="st0" d="M1327.51,904.38c4.49-.86,7.32-.41,11.27,1.85,15.77,9.06-3.59,23.89-6.89,34.65-2.49,8.11-.66,15.66-3.4,22.6-7.85,19.95-36.83,1.66-32.45-20.44.3-1.49,12.3-23.84,13.98-26.03,3.54-4.62,11.78-11.53,17.5-12.63Z"/>
  <path class="st0" d="M1392.49,1141.52c-8.05-12.23,7.13-21.4,10.17-31.86,4.13-14.24-2-39.17,23.24-30.55,6.9,2.35,13.78,15.2,14.02,22.1.17,4.73-13.79,29.42-17.88,33.84-8.78,9.48-17.17,12.1-29.56,6.48Z"/>
  <path class="st0" d="M1263.31,1060.7c-12.79-10.86-25.24-19.92-20.87-39.28.73-3.21,3.7-8.13,6.98-9.11,13.29-3.93,17.91,13.05,25.87,19.4,6.89,5.49,24.02,7.89,26.32,15.72,4.9,16.65-15.48,26.23-29.71,21.66-5.8-1.86-5.76-6-8.59-8.4Z"/>
  <path class="st0" d="M1271.44,946.4c20.89-4.76,14.94,17.66,17.45,29.71,2.46,11.83,15.85,18.29,10.06,31.85-4.65,10.9-26.06,6.21-33.05-.83-5.75-5.79-8.95-35.37-7.42-43.67,1.16-6.29,6.3-15.54,12.97-17.06Z"/>
  <path class="st0" d="M1379.5,1131.49c-1.03.93-22.49,11.24-24.96,12.06-9.36,3.1-26.77,5.44-32.66-4.41-10.88-18.18,15.09-19.16,24.79-25.47,10.19-6.63,16.06-27.5,31.28-16.61,8.41,6.02,8.16,28.43,1.55,34.43Z"/>
  <path class="st0" d="M1404.47,965.53c-9.07-9.07,2.16-31.64,14.69-33.52,6.63-1,28.79,3.46,35.57,6.26,10.55,4.35,23.18,16.27,14.22,27.7-8.08,10.31-23.49-2.09-33.99-2-7.42.07-22.98,9.06-30.5,1.55Z"/>
  <path class="st0" d="M1043.34,866.22c8.83-.69,4.42,20.5,4.93,26.53.96,11.22,13.11,39.91,7.92,46.45-4.61,5.8-15.66,3.43-20.22-2.16-9.18-11.24-10.59-69.42,7.38-70.82Z"/>
  <path class="st0" d="M1579.42,1278.62c3.57,2.92,5,9.82,4.72,14.35-.54,8.47-22.01,39.68-29.15,45.02-4.51,3.37-13.76,8.68-19.08,5.11-2.78-2.12-1.97-4.43-1.07-7.18,1.56-4.77,13.68-16.59,17.51-24.56,4.13-8.57,8.19-32.67,17.1-35.05,3.5-.77,7.21.06,9.97,2.32Z"/>
  <path class="st0" d="M1189.51,1292.48c10.29,10.25-6.13,22.33-18.45,21.62-4.65-.27-36.18-9.44-40.47-11.68-6.52-3.4-22.24-22.19-9.64-22.53,6.66-.18,24.24,8.38,34.61,9.57,7.78.89,29.83-1.08,33.96,3.03Z"/>
  <path class="st0" d="M1013.07,1086.01c6.83-2.02,14.57,14.29,18.89,19.03,6.97,7.65,34.18,27.06,34,34-.29,11.5-17.91,10.95-25.88,5.87-4.1-2.61-27.86-34.1-29.13-38.85-1.07-4-2.88-18.57,2.12-20.05Z"/>
  <path class="st0" d="M1723.51,961.51c-.94,1.02-3.11,1.52-4.54,1.9-10.35-9.89-16.97-21.37-27.93-31.46-6.82-6.28-22.67-12.08-21.11-22.83,1.18-8.13,9.67-10.05,16.59-8.69,11.87,2.34,38.37,38.99,39.4,50.8.27,3.1-.29,7.97-2.41,10.27Z"/>
  <path class="st0" d="M1618,767.99c-12.7,1.25-22.56-6.38-35.25-7.74-13.84-1.48-45.38,6.15-38.35-16.87,4.64-15.2,45.16-2.39,55.56,1.66,9.46,3.69,19.2,11.56,18.04,22.95Z"/>
  <path class="st0" d="M1397.58,660.43c7.42-.75,27.28,4.31,18.44,12.59-2.57,2.4-26.47,9.7-34.05,13.94-5.88,3.3-17.15,13.42-21.46,14.57-18.75,4.97-19.3-16.94-4.41-26.44,4.85-3.09,35.88-14.09,41.49-14.66Z"/>
  <path class="st0" d="M1377.48,1346.35c10.14-1.5,14.85,9.6,10.26,18.38-8.05,15.4-73.07,34.59-71.36,14.23.3-3.61,28.88-12.12,35.66-15.93s19.22-15.76,25.44-16.68Z"/>
  <path class="st0" d="M1686,1147c-1.32-9.79-14.8-30.08-6.11-38.09,8.54-7.86,19.64.63,22.56,9.64,2.62,8.07,2.79,43.04.6,51.52-2.95,11.4-17.06,15.96-17.06,8.94,0-9.66,1.22-23,0-32Z"/>
  <path class="st0" d="M1200,706.01c.61,11.32-9.48,18.09-15.04,27.96s-10.62,36.79-20.08,38.08c-13.64,1.86-15.86-12.16-12.36-22.5,2.57-7.58,25.04-39.24,31.98-42.04,5.18-2.09,10.11-1.66,15.5-1.5Z"/>
  <path class="st0" d="M1275.5,662.29c13.5-1.8,32.03,30.7,9.03,35.36-23.48,4.75-32.01-32.31-9.03-35.36Z"/>
  <path class="st0" d="M1719.53,1030.39c17.31-2.5,29.12,15.52,13.85,25.99-30.42,20.86-40.6-22.13-13.85-25.99Z"/>
  <path class="st0" d="M1626.59,1259.43c-16.97-20.64,26.16-38.21,32.56-11.42,4.85,20.29-23.68,22.22-32.56,11.42Z"/>
  <path class="st0" d="M1675.39,847.38c-20.58,18.59-37.58-22.2-11.48-30.52,19.91-6.35,25.88,17.51,11.48,30.52Z"/>
  <path class="st0" d="M1493.46,676.39c23.95-5.29,23.86,31.96,9.09,35.21-24.41,5.37-26.19-31.43-9.09-35.21Z"/>
  <path class="st0" d="M1065.45,1198.39c30.02-6.68,21.06,44.18-6.95,32.1-15.23-6.57-3.36-29.8,6.95-32.1Z"/>
  <path class="st0" d="M1226.56,1340.56c16.26-16.19,38.23,17.7,20.25,29.24-21.55,13.83-31.41-18.12-20.25-29.24Z"/>
  <path class="st0" d="M1080.33,784.34c11.06-2.75,30.73.63,31.65,14.8,1.64,25.39-53.09,16.79-31.65-14.8Z"/>
  <path class="st0" d="M1469.4,1381.42c-17.71,21.95-49.59-32.93-12.39-29.5,14.44,1.33,20.22,19.78,12.39,29.5Z"/>
  <path class="st0" d="M1009.45,988.47c26.95-5.64,25.19,24.07,10.66,28.63-26.45,8.29-36.75-23.17-10.66-28.63Z"/>
</svg>