<?xml version="1.0" encoding="UTF-8"?>
<svg id="Layer_0_xA0_Image" xmlns="http://www.w3.org/2000/svg" version="1.1" viewBox="0 0 2048 2732">
  <!-- Generator: Adobe Illustrator 30.2.1, SVG Export Plug-In . SVG Version: 2.1.1 Build 1)  -->
  <defs>
    <style>
      .st0 {
        fill: #424a3e;
        stroke: #000;
        stroke-miterlimit: 10;
        stroke-width: .25px;
      }
    </style>
  </defs>
  <path class="st0" d="M1172.81,1310.75c14.88,4.68,18.27,14.97,17.15,27.85-2.37,27.18-4.66,54.38-11.1,81-2.15,8.9-1.56,10.23,6.2,14.02,14.35,7,22.15,20.92,19.78,36.77-1.13,7.52-2.69,15.22-5.65,22.16-6.48,15.15-2.17,27.79,7.15,39.81.6.77,1.06,1.65,1.75,2.73-1.97,5.45-7.02,7.65-11.44,10.35-13.74,8.39-29.22,10.75-44.84,12.34-6.29.64-12.64,1-18.96.86-36.95-.82-73.92-1.18-110.83-2.98-31.27-1.53-62.3-5.93-92.77-13.46-7.4-1.83-14.65-4.45-21.78-7.19-24.28-9.34-42.43-25.75-54.68-48.62-4.24-7.91-8.46-15.89-11.73-24.22-2.02-5.14-3.33-11.07-2.97-16.51.43-6.58-1.35-12.28-2.88-18.41-2.56-10.26-4.4-20.78-5.47-31.3-.93-9.14,1.77-17.28,12.05-21.22-1.34-6.11-2.59-11.89-3.88-17.65-5.14-22.87-1.45-44.24,10.67-64.28,8.02-13.26,17.04-25.31,31.25-32.84,2.95-1.56,4.79-6.15,6.1-9.72,3.78-10.3,6.26-21.13,10.7-31.11,4.15-9.33,9.66-18.19,15.51-26.61,5.64-8.12,13.77-13.48,23.65-15.61,7.5-1.62,13.45-5.8,18.48-11.25,13.19-14.3,28.83-18.24,48.01-14.69,15.73,2.91,30.4,6.96,43.07,16.98,3.93,3.11,8.51,3.82,13.24,2.34,5.71-1.78,11.23-4.19,16.99-5.74,6.7-1.8,13.52-3.41,20.39-4.32,15.46-2.05,26,9.49,29.33,20.55,2.68,8.9,4.48,18.07,6.66,27.13.7,2.91.89,6.08,2.24,8.66,1.06,2.03,3.29,3.84,5.43,4.81,2.01.91,4.57.59,6.9.81,9.66.91,16.59,5.67,21.72,13.99,9.45,15.32,10.92,31.86,8.6,49.1-1.1,8.19-2.58,16.34-4.04,25.47Z"/>
  <path class="st0" d="M1147.82,2018.02c11.66,8.42,19.81,19.2,24.13,32.33,2.99,9.08,5.08,18.73,5.76,28.25,1.22,17.14,10.73,28.67,24.43,38.46-1.65-5.83-3.22-11.68-4.96-17.48-2.01-6.69-4.25-13.32-6.26-20.01-2.51-8.4-3.67-16.94-1.87-25.65,1.54-7.44-.56-13.1-7.56-16.66-1.77-.9-3.43-2.06-4.99-3.3-6.43-5.09-7.87-9.3-3.98-16.47,3.3-6.07,7.45-11.87,12.17-16.91,2.45-2.61,6.84-4.38,10.51-4.69,10.87-.91,15.12,3.43,15.45,14.46.07,2.31.01,4.62.01,7.45,11.15,3.25,13.14,11.99,13.07,21.97-.17,25.41,3.61,50.45,7.23,75.51.33,2.26.36,4.56.54,6.93-6.16,4.8-13.43,3.14-20.33,4.13,7.95,10.28,12.12,11.88,21.77,6.39,9.79-5.57,18.57-4.4,26.93,2.04,6.58,5.07,12.7,10.75,18.96,16.23,23.54,20.64,46.69,41.75,70.74,61.77,9.63,8.02,21.23,13.68,31.94,20.41,2.78,1.75,5.56,3.49,8.61,5.41-.51,1.61-.58,3.03-1.3,3.96-6.29,8.15-12.52,16.36-19.13,24.25-3.61,4.31-7.54,8.55-12,11.92-16.75,12.63-33.46,25.39-50.87,37.07-7.86,5.28-17.08,8.91-26.13,11.96-12.89,4.34-25.21,1.48-35.77-6.9-9.9-7.85-19.75-15.89-28.68-24.79-9.49-9.46-19.35-18.19-30.67-25.44-19.08-12.21-37.86-24.86-56.76-37.34-1.95-1.28-3.96-2.52-5.71-4.03-17.69-15.29-36.86-28.44-57.13-40.1-19.28-11.09-30.42-29.52-41.23-47.94-5.38-9.18-2.92-18.38,4.08-25.72,4.04-4.24,9.43-7.26,14.42-10.49,18.44-11.93,37.98-22.45,55.17-35.95,16.13-12.66,29.88-28.37,44.52-42.9,1.98-1.96,2.99-4.89,4.89-8.14Z"/>
  <path class="st0" d="M1198.01,1828.18c5.4,5.59,10.05,11.25,15.54,15.95,31.09,26.66,62.04,53.51,93.68,79.5,38.33,31.48,77.43,62.02,115.94,93.29,16.28,13.22,32.11,27.01,47.74,40.99,12.26,10.96,22.16,23.99,29.41,38.78,2.28,4.65,3.79,10.02,4.15,15.17.56,7.79-3.4,12.57-11.03,14.38-3.81.91-8.01,1.49-11.81.85-23.95-4.01-47.92-7.96-71.71-12.81-21.93-4.47-41.35-14.72-58.29-29.31-33.71-29.05-64.1-61.2-88.46-98.57-9.24-14.18-16.7-29.53-24.75-44.46-9.32-17.29-18.68-34.56-27.49-52.1-7.46-14.86-14.18-30.08-21.17-45.17-.83-1.8-1.48-3.73-1.87-5.67-1.44-7.19-.11-8.8,7.64-9.94,1.25-.18,2.43-.84,2.47-.86Z"/>
  <path class="st0" d="M704.45,1977.75c8.69,1.34,12.06,6.01,13.41,12.29.98,4.54,1.85,9.21,1.88,13.83.16,25.54,5.07,50.35,11.87,74.77,7.68,27.57,15.12,55.27,24.35,82.34,15.3,44.88,37.84,86.07,69.99,121.16,24.18,26.4,51.8,49.02,84.02,65.29,22.17,11.2,46.03,17.48,70.33,21.94,18.33,3.37,36.78,6.14,55.2,8.99,21.97,3.4,43.78,2.39,65.53-2.26,12.36-2.64,24.91-4.35,37.32-6.77,11.09-2.17,22.05-4.99,33.16-7.08,13.38-2.51,26.84-4.55,42.17-7.11-4.04,6.05-8.55,8.6-13.14,10.53-24.23,10.21-48.4,20.6-72.94,30.03-14.55,5.59-29.53,10.36-44.68,14.05-31.01,7.55-62.19,5.79-93.09-1.2-25.97-5.88-51.93-11.85-77.67-18.64-8.52-2.24-17.01-6.14-24.34-11.04-14.38-9.61-28.11-20.23-41.74-30.9-4.63-3.63-8.13-8.69-12.19-13.06-2.24-2.42-4.38-4.98-6.88-7.1-11.68-9.91-23.63-19.53-35.2-29.57-17.93-15.56-34.1-32.74-47.33-52.58-4.99-7.48-10.22-14.83-15.86-21.82-19.93-24.73-29.09-53.57-32.67-84.55-2.71-23.48-3.97-47.21-8.14-70.43-3.32-18.52-1.05-35.64,4.79-52.93,2.23-6.61,3.76-13.46,5.82-20.14,1.84-5.99,3.97-11.88,6.05-18.05Z"/>
  <path class="st0" d="M951.86,2009.07c-.54-8.54,2.07-13.47,6.96-16.94,4.32-3.07,8.94-5.81,13.69-8.17,23.4-11.62,44.94-25.98,64.63-43.16,12.79-11.16,25.76-22.12,38.68-33.15,1.51-1.29,3.07-2.59,4.78-3.59,5.84-3.39,9.81-2.6,13.62,3.1,2.77,4.14,4.88,8.71,7.49,12.96,8.6,14.01,20.86,9.64,25.79-1.99,3.89-9.18,7.59-18.57,10-28.21,3.91-15.6,15.71-24.21,27.19-33.3,3.86-3.05,7.74-2.18,10.41,1.56,2.67,3.75,5.03,7.85,6.75,12.11,3.35,8.33,6,16.94,9.25,25.31,2.85,7.36,1.67,13.59-3.93,19.17-17.93,17.86-35.57,36.02-53.81,53.55-6.92,6.65-14.85,12.39-22.89,17.68-29.37,19.33-54.89,43.27-80.83,66.72-8.12,7.34-12.83,16.87-17.7,26.37-2.42,4.72-5,9.49-8.33,13.57-4.19,5.15-8.18,4.41-11.88-1.24-6.17-9.45-12.39-18.86-18.65-28.25-10.11-15.16-16.48-31.88-20.63-49.51-.53-2.25-.59-4.62-.59-4.61Z"/>
  <path class="st0" d="M1436.03,1081.65c1.17,2.33,1.47,2.63,1.45,2.91-2.43,34.13-.35,68.48-6.52,102.49-3.19,17.6-2.86,35.82-4.49,53.72-2.26,24.86-4.86,49.69-7.31,74.53-.07.66-.27,1.32-.26,1.98.41,36.93-6.93,73.58-4.06,110.6.03.33.05.67,0,1-4.03,30.34,5.63,57.89,17.22,85.08,6.79,15.93,12.82,32.19,20.06,47.9,7.12,15.47,12.99,31.31,17.85,47.59,1.23,4.13,2.6,8.36,4.73,12.07,13.22,23.09,21.58,48.64,36.1,71.08,1.94,2.99,3.37,6.57,4.04,10.07.72,3.77-.63,8.01-4.67,8.83-2.71.55-6.5-.83-8.8-2.63-2.47-1.93-3.88-5.3-5.55-8.16-6.54-11.2-12.9-22.51-19.51-33.67-15.79-26.69-29.8-54.26-41.41-83.03-.5-1.23-.78-2.57-1.37-3.75-8.64-17.38-14.75-35.56-18.6-54.63-1.47-7.27-3.34-15-10.95-20.94-46.54,59.2-104.05,106.35-163.44,152.24-5.73-7.52-2.27-14.7-2.35-20.01,5.4-4.12,9.98-7.27,14.16-10.87,10.09-8.69,20.15-17.41,29.91-26.46,6.83-6.33,13.61-12.82,19.58-19.93,19.9-23.74,39.48-47.76,59.08-71.76,9.93-12.15,16.92-26.33,25.74-39.07,11.67-16.85,10.14-35.28,10.99-53.22,1.42-30.2.51-60.51.27-90.78-.05-6.24-1.54-12.46-2.16-18.71-.29-2.95-.38-5.98-.09-8.93,4.51-47.09,9.08-94.17,13.66-141.26,1.42-14.59,2.74-29.18,4.42-43.74,1.23-10.65,7.65-18.97,13.83-27.13,1.56-2.06,5.53-2.31,8.43-3.4Z"/>
  <path class="st0" d="M1260.62,584.77c.11,41.64-33.07,75.08-74.61,75.19-41.96.12-75.56-33.41-74.79-75.83.75-41.51,32.29-72.04,74.38-73.78,41.46-1.71,74.91,32.81,75.02,74.42Z"/>
  <path class="st0" d="M1402.57,1041.71c4.73,1.85,8.01,3.13,12.23,4.77-.09.62-.34,2.45-.6,4.31.32.51.52,1.3,1,1.54,12.14,6.04,13.26,8.76,7.54,20.83-18.97,40.03-37.51,80.28-57.3,119.91-11.14,22.32-24.9,43.32-36.58,65.39-22.58,42.63-48.32,83.65-65.35,129.16-6.15,16.44-9.4,33.23-11.3,50.5-2.67,24.26-8.48,47.87-16.14,70.99-2.06,6.2-5.84,11.89-9.31,17.52-1.09,1.77-3.75,2.58-5.7,3.83-.6-.48-1.2-.97-1.81-1.45.67-2.74,1.34-5.49,2.02-8.23,3.93-15.83,8.22-31.58,11.71-47.51,4.62-21.12-2.85-39.41-14.95-56.15-2.19-3.03-6.03-4.86-10.3-8.17,4.69-9.79,9.44-20.7,15.02-31.16,55.83-104.64,111.79-209.21,167.73-313.79,4.07-7.6,8.22-15.16,12.08-22.27Z"/>
  <path class="st0" d="M989.02,628.9c-.55,36.36-27.61,67.41-67.98,68.02-37.81.57-69.59-31.35-68.44-68.6,1.16-37.68,27.41-66.6,70.94-67.36,37.77-.66,65.29,31.5,65.48,67.95Z"/>
  <path class="st0" d="M785.77,1380.14c-13.43,16.06-26.4,32.6-36.13,51.17-10.97,20.94-25.93,38.64-41.67,55.86-1.36,1.49-3.76,2.02-5.67,3-.86-2-2.36-3.97-2.46-6.01-.3-5.76,1.16-11.13,4.52-16.02,13.41-19.48,26.75-39,40.02-58.58,5.74-8.46,12.3-16.32,15.7-26.38,1.85-5.48,5.76-10.56,9.65-15.02,20.04-23.02,30.7-50.6,38-79.49,10.71-42.36,23.4-83.94,41.06-123.99,7.78-17.65,13.91-36.03,21.22-53.9,3.13-7.66,7.12-15.01,11.24-22.2,2.11-3.68,5.01-7.18,10.65-7.39.67,1.54,1.86,3.19,2.09,4.96,2.84,22.48-1.82,43.68-11.18,64.05-5.42,11.8-11.03,23.52-16.31,35.38-3.11,6.99-6.28,14.03-8.5,21.33-10.01,32.9-23.99,64.22-37.21,95.86-3.85,9.2-7,18.7-10.36,28.11-.89,2.5-1.7,5.1-2.02,7.72-2.21,18.5-4.61,36.99-6.33,55.54-3.26,35.28,4.21,68.94,16.9,101.56,5.66,14.54,11.26,29.22,21.26,41.67,2.17,2.71,3.26,6.57,4.02,10.07,1.22,5.6-1.94,9.29-7.72,8.61-3.43-.4-7.28-1.84-9.82-4.08-3.67-3.24-7.01-7.26-9.3-11.58-16.46-31.05-30.1-63.09-34.19-98.48-1.7-14.7-1.56-29.2,1.85-43.68,1.36-5.77,1.92-11.73,2.85-17.6-.72-.16-1.45-.33-2.17-.49Z"/>
  <path class="st0" d="M1435.88,2184.84c-3.02-1.01-6.36-1.64-9.21-3.18-5.27-2.84-10.41-5.97-15.32-9.4-33.6-23.46-67.51-46.51-100.49-70.81-14.39-10.61-27.21-23.48-39.95-36.12-5.56-5.51-9.8-12.67-13.5-19.69-13.97-26.49-33.49-47.94-57.64-65.4-4.04-2.92-7.93-6.11-11.48-9.6-5.46-5.38-7.26-11.97-3.99-19.14,3.17-6.96,6.35-14,10.46-20.41,4.88-7.6,10.43-7.26,15.65.29,17.24,24.9,33.78,50.31,51.83,74.61,11.48,15.45,24.62,29.79,38,43.68,13.15,13.66,27.46,26.21,41.42,39.08,16.22,14.95,35.21,25.29,56.32,31.23,20.17,5.67,40.66,10.18,61.01,15.2,3.87.96,7.9,1.54,11.57,3.01,9.99,4.01,11.62,11.17,4.79,19.67-.42.52-.82,1.08-1.34,1.48-10.38,7.78-20.71,15.62-31.23,23.22-1.77,1.28-4.32,1.48-6.89,2.29Z"/>
  <path class="st0" d="M1504.49,1082.29c6.75,3.39,13.52,6.74,20.25,10.16,14.22,7.24,28.43,14.48,42.62,21.79,8.28,4.27,16.57,8.52,24.72,13.03,15.14,8.37,30.19,16.92,45.28,25.38,1.16.65,2.35,1.26,3.57,1.8,32.54,14.29,53.69,38.31,66.81,71.59,15.83,40.13,27.95,81.15,37.01,123.15,2.72,12.64,3.5,25.71,4.82,38.62,3.53,34.44,6.87,68.9,10.31,103.34.34,3.46.81,6.91,1.24,10.56-1.89-.14-2.95-.03-3.02-.25-2.87-9.06-5.67-18.14-8.44-27.24-.19-.63-.1-1.33-.24-1.98-9.24-41.23-17.58-82.69-28.08-123.59-6.93-27.02-15.75-53.72-25.94-79.7-13.81-35.21-37.18-63.71-68.34-85.34-19.69-13.67-39.83-26.71-59.96-39.74-13.79-8.93-26.39-19.15-37.46-31.3-8.71-9.56-17.6-18.95-26.42-28.42l1.26-1.89Z"/>
  <path class="st0" d="M1416.17,2490.28c.95,4.19,1.57,5.97,1.73,7.79.43,4.97-.07,10.14,1.11,14.91,6.04,24.42-16.93,58.71-45.7,63.37-18.05,2.92-36.18,5.57-54.38,7.29-19.56,1.85-39.08,3.44-58.15,8.59-5.1,1.38-10.45,2-15.74,2.47-17.94,1.6-29.69-5.14-35.45-22.38-4.83-14.45-8.22-29.45-11.19-44.41-1.87-9.4-1.69-19.2-2.65-28.81-.55-5.5-1.51-10.97-2.3-16.54,11.73-3.29,15.55-1.33,19.36,10.04,1.9,5.66,3.81,11.36,6.31,16.78,5.01,10.9,13.07,19,23.45,25.12,41.81,24.64,84.82,24.72,128.22,5.48,19.82-8.79,34.49-23.54,41.62-44.74.37-1.1,1.45-1.96,3.77-4.96Z"/>
  <path class="st0" d="M1726.13,1977.66c-.77-3.25-1.85-6.47-2.26-9.76-2.59-20.66-.48-41.25,1-61.85,5.13-71.81,15.99-142.98,23.53-214.52,2.05-19.43,1.33-39.28.42-58.87-.92-19.78-.24-39.32,3.67-58.67,1.49-7.35-.87-15.33,3.72-22.13.7-1.04,1.32-2.14,2.24-3.67,3.69,1.52,5.89,3.6,5.72,7.44-1.49,33.5,7.38,66.15,8.26,99.45.24,8.99,1.43,17.99,1.05,26.94-1.46,34.62-2.7,69.27-5.4,103.79-1.45,18.51-5.03,36.95-8.82,55.17-8.67,41.72-18.04,83.29-27.16,124.92-.84,3.84-1.87,7.63-2.81,11.44-1.06.1-2.11.2-3.17.3Z"/>
  <path class="st0" d="M888.94,1042.53c-3.78,2.97-7.17,6.78-11.42,8.77-12.92,6.07-25.8,12.64-39.37,16.86-42.26,13.13-84.58,26.2-127.36,37.42-26.54,6.96-44.85,22.41-57.75,45.44-6.5,11.6-11.89,23.82-18.03,35.63-5.98,11.51-11.63,23.27-18.57,34.19-10.75,16.91-16.83,35.24-20.51,54.77-3.38,17.97-7.73,35.76-12.06,53.54-1.18,4.83-2.22,10.41-9.12,13.04-.33-2.85-.87-4.96-.78-7.03,1.23-27.76,7.55-54.58,14.05-81.49,9.13-37.84,22.74-73.55,42.68-107.12,23.95-40.33,59.36-63.97,104.12-74.36,33.04-7.67,66.02-15.71,99.7-20.52,11.44-1.63,22.51-5.86,33.8-8.65,6.34-1.56,12.8-2.6,19.21-3.88.47,1.13.94,2.26,1.41,3.39Z"/>
  <path class="st0" d="M1256.4,1470.92c6.55,14.39,8.77,28.49,2.79,42.88-1.66,3.99-4,7.79-5.05,11.93-3.9,15.33-14.93,24.56-27.13,33.01-24.25,16.8-51.48,26.14-80.01,32.28-66.76,14.36-132.98,13.14-198.05-8.6-33.12-11.07-63.68-27.07-88.12-53.01-3.1-3.29-7.31-5.54-11.08-8.17-3.69-2.58-5.49-7.34-4.13-11.31,1.79-5.2,6.96-6.35,10.67-2.31,2.02,2.2,3.93,4.5,5.83,6.81,13.13,16,30.32,25.61,49.73,31.86,41.17,13.25,82.09,27.4,124.95,34.43,19.13,3.14,38.35,2.94,57.74,2.05,25.16-1.15,49.64-5.03,73.5-12.8,9.47-3.08,18.85-6.68,27.82-10.99,21.2-10.18,36.92-26.08,45.93-47.92,4.81-11.65,8.48-23.78,12.69-35.68.54-1.52,1.28-2.97,1.92-4.46ZM850.35,1509.82q-1.01,4.77,4.52,5.56c-1.63-2.01-2.89-3.55-4.52-5.56Z"/>
  <path class="st0" d="M509.68,1805.98c6.14,1.27,8.24,5.92,9.64,10.07,3.91,11.62,8.02,23.33,10.21,35.34,3.58,19.66,10.99,37.72,20.77,54.79,10.94,19.08,29.65,27.59,50.03,31.46,20.56,3.91,41.48,6.02,62.31,8.29,22.15,2.41,40.06-7.74,56.39-21.11,9.32-7.63,16.55-17.18,23.04-27.41,4.22-6.66,9.24-13.14,15.07-18.4,11-9.95,23.83-15.49,39.35-12.93,7.43,1.23,15.07,1.23,22.61,1.79.08.69.16,1.38.23,2.06-1.94.63-3.84,1.66-5.82,1.83-21.69,1.83-37.36,12.59-47.87,31.49-10.23,18.39-24.7,33.05-41.73,45.07-19.1,13.48-40.81,17.32-63.72,14.96-12.94-1.33-25.7-1.98-38.79-.41-7.56.9-16.26-.65-23.27-3.74-14.87-6.57-29.08-14.67-43.35-22.54-8.98-4.96-15.35-12.54-19.73-21.9-14.2-30.34-24.19-61.92-28.3-95.24-.83-6.7-.63-7.05,2.95-13.44Z"/>
  <path class="st0" d="M1230.83,1569.16c-.63,6.18-.72,10.44-1.55,14.55-2.68,13.38-6.5,26.59-8.26,40.08-2.31,17.79-2.86,35.8-4.57,53.68-2.05,21.55-3.67,43.19-7.1,64.53-2.47,15.37-6.17,30.88-11.87,45.32-7.18,18.17-21.93,29.88-40.38,36.24-14.78,5.1-29.71,9.84-44.78,13.99-9.2,2.53-18.8,3.65-28.21,5.4-.27-.67-.54-1.35-.81-2.02,1.36-1.15,3.41-2.04,3.97-3.49,4.29-11.3,13.71-14.66,24.36-16.24,25.58-3.79,42.01-19.26,51.78-42.06,5.36-12.49,9.15-25.7,12.99-38.79,7.6-25.87,16.26-51.62,18.49-78.63,1.91-23.1,9.86-44.82,13.33-67.53,1.76-11.54,9.46-19.28,22.59-25.03Z"/>
  <path class="st0" d="M677.6,2105.65c0,6.23.37,11.5-.1,16.7-.56,6.26-1.34,12.58-2.88,18.66-4.99,19.72-11.69,38.87-20.75,57.12-6.54,13.17-10.16,26.47-6.02,41.38,1.74,6.28,1.6,13.21,1.52,19.84-.43,35.61-.85,71.22-1.87,106.82-.27,9.57-2.35,19.13-4.04,28.62-3.78,21.33-7.29,42.6-4.92,64.46,1.25,11.59-4.65,18.1-14.73,17.97-10.25-.13-17.03-7.76-15.84-18.66.5-4.54,2.08-9.07,3.79-13.35,3.02-7.54,4.37-15.21,4.36-23.36,0-6.61,1.08-13.22,1.8-19.82,1.22-11.23,2.53-22.45,3.8-33.67,1.69-14.87,3.7-29.72,4.96-44.63,1.11-13.23,1.82-26.53,1.91-39.81.21-32.67.56-65.28,11.26-96.71,1.5-4.41,2.96-8.85,4.81-13.11,8.76-20.13,17.59-40.24,26.55-60.28,1.37-3.06,1.94-7.11,6.37-8.17Z"/>
  <path class="st0" d="M507.43,1754.22c-5.23-5.71-3.95-11.84-3.16-17.54,2.01-14.51,4.16-29.02,6.88-43.41,9.11-48.1,18.85-96.08,27.61-144.24,4.35-23.89,7.8-47.95,7.4-72.44-.43-26.57,5.29-52.23,13.47-77.38,1.13-3.47,2.63-6.85,4.33-10.08,1.76-3.33,4.45-6.91,8.45-5.33,2.49.98,4.94,4.48,5.55,7.26,1.21,5.47,1.54,11.22,1.53,16.85-.09,43.23-6.06,85.52-18.09,127.18-7.56,26.18-13.1,52.99-18.54,79.73-3.78,18.57-5,37.67-8.9,56.21-4.87,23.12-11.23,45.93-17.13,68.82-1.39,5.38-2.79,11.03-9.41,14.37Z"/>
  <path class="st0" d="M1014.05,840.02c9.08,2.71,17.99,6.56,27.27,7.84,12.74,1.76,25.75,2.19,38.64,2.07,24.12-.22,46.24-7.29,65.9-21.52.73-.53,1.14-1.51,1.7-2.29l-.29.26c7.65-3.92,15.76-7.19,22.77-12.03,3.77-2.6,6.13-7.7,8.29-12.08,3.75-7.6,9.9-10.48,17.82-10.31,5.22.11,7.43,2.96,5.59,7.91-1.47,3.97-3.82,7.77-6.43,11.15-6.09,7.9-12.77,15.34-18.84,23.25-18.98,24.71-44,38.93-74.55,44.2-21.1,3.64-41.97,5.08-63.49,2.1-26.01-3.6-43.82-17.54-57.62-38.57-5.27-8.03-11.17-15.65-16.84-23.55,10.75-10.65,27.93-8.21,32.82,4.66,1.67-1.04,3.44-2.14,5.2-3.24,1.22,2.16,3.41,4.32,3.4,6.47-.01,2.7-1.83,5.39-3.21,8.94,3.23,1.16,6.23,2.24,9.23,3.32l2.63,1.4Z"/>
  <path class="st0" d="M1477.46,2247.18c6.6,1.89,8.01,7.84,8.33,13.2.9,14.91,2.21,30,.91,44.8-1.68,19.19-6.07,38.12-8.68,57.25-3.56,26.07-6.19,52.26-9.92,78.3-1.98,13.82-4.88,27.57-8.37,41.09-5.14,19.91-6.86,40.01-5.51,60.43,1.29,19.58-1.79,38.54-8.14,57-1.61,4.69-3.6,9.36-6.16,13.59-3.87,6.4-9.25,8.81-13.99,7.19-4.6-1.58-6.66-7.08-5.36-14.62.34-1.96.72-3.97,1.46-5.81,8.15-20.44,9.83-42.11,11.61-63.66,4.6-55.84,13.79-110.99,23.07-166.19,4.87-28.96,11.48-57.42,17.96-85.98,2.71-11.95,3.77-24.15,2.8-36.59Z"/>
  <path class="st0" d="M927.23,2522.31c4.44-.88,6.84-1.23,9.17-1.86,4.16-1.12,8.2-2.92,12.42-3.52,11.37-1.62,19.37,3.26,23.34,14.12,1.71,4.66,2.59,9.62,3.95,14.41,9.21,32.31,18.05,64.78,34.24,94.54,3.96,7.28,9.05,13.95,13.16,21.16,3.76,6.6,7.93,13.26,10.08,20.44,3.34,11.09-2.79,16.81-14.06,13.93-17.57-4.48-31.93-13.2-39.11-30.93-1-2.47-2.35-4.8-3.2-7.31-6.65-19.58-15.99-37.95-24.63-56.67-4.36-9.45-6.28-20.29-7.8-30.72-1.71-11.78-5.38-22.5-11.28-32.74-2.7-4.7-4.29-10.05-6.28-14.86Z"/>
  <path class="st0" d="M921.03,1029.38c20.94-11.91,51.67-23.98,61.09-23.71-.61,1.93-1.09,3.71-1.74,5.42-4.13,10.89-9.27,21.5-12.14,32.71-2.43,9.5-2.81,19.66-3.05,29.56-.26,10.63.77,21.29,1.1,31.94.28,9.32-2.19,18.05-8.06,25.19-6.94,8.44-14.02,17.02-22.3,24.05-10.36,8.8-18.23,5.76-22.17-7.38-4.01-13.38-4.15-27-.84-40.49,3.06-12.48,4.1-24.82,1.62-37.58-1.61-8.27-.41-16.46,2.96-24.44,1.88-4.46,2.27-9.55,3.52-15.26Z"/>
  <path class="st0" d="M1054.8,2431.93c8.44-6.81,18.31-10.77,28.95-11.92,11.8-1.27,21.44,5.66,25.29,17.05,1.38,4.08,2.37,8.37,2.87,12.64,2.02,17.2,8.21,32.88,16.8,47.74,5.34,9.23,10.74,18.42,15.95,27.72,5.14,9.19,7.64,19.06,7.68,29.65.07,17.29-17.23,22.08-28.55,18.3-5.69-1.9-6.33-7.24-7.16-12.21-1.6-9.51-3.03-19.05-4.74-28.54-1.86-10.3-5.45-20-11.92-28.3-17.26-22.13-32.4-45.57-45.16-72.14Z"/>
  <path class="st0" d="M1672.19,2368.98c-8.59-3.2-8.98-9.18-8.06-15.91,4.07-29.99,7.41-60.08,12.18-89.96,7.97-49.92,17.36-99.59,29.73-148.64,2.03-8.05,4.53-15.99,7.02-23.92.79-2.51,1.92-5.04,3.46-7.14,2.2-2.98,5.91-2.29,6.73,1.32.73,3.19.95,6.64.63,9.9-1.98,20.19-3.54,40.44-6.42,60.5-8.08,56.3-18.4,112.22-31.18,167.65-3.21,13.91-7.16,27.66-10.95,41.43-.48,1.74-2.06,3.17-3.14,4.76Z"/>
  <path class="st0" d="M758.33,2443.79c-4.03-2.23-7.24-3.93-10.38-5.74-19.46-11.21-31.17-28.46-26.52-53.92,4.95-27.1,16.67-51,31.15-73.9.71-1.12,1.59-2.13,2.47-3.13,7.46-8.39,14.26-9.14,22.18-1.37,6.33,6.2,11.76,13.31,17.74,20.18-1.2,1.67-1.71,3.1-2.7,3.65-11.59,6.41-18,16.77-20.99,29.08-3.52,14.51-6.08,29.26-8.96,43.93-1.28,6.52-2.39,13.08-3.48,19.63-.98,5.85-2.53,11.73,1.05,17.39.39.62-.79,2.23-1.56,4.21Z"/>
  <path class="st0" d="M1511.18,1736.12c6.47,6.59,9.54,13.23,10.62,20.3,1.3,8.49,2.13,17.26,1.52,25.78-1.79,24.9-4.35,49.75-6.72,74.6-2.3,24.1.03,47.92,4.36,71.58,3.05,16.69,6.84,33.25,9.93,49.94,1.02,5.51,1.41,11.27,1.04,16.84-.16,2.36-2.59,5.54-4.78,6.47-1.54.65-5.4-1.28-6.51-3.11-2.72-4.49-5.34-9.39-6.41-14.46-2.61-12.35-4.52-24.87-6.36-37.37-3.13-21.41-5.77-42.89-9.03-64.27-3.18-20.86-4.25-41.64-1.39-62.67,2.6-19.12,3.92-38.42,6.62-57.52,1.17-8.31,4.38-16.34,7.12-26.12Z"/>
  <path class="st0" d="M1002.83,621.91c-1.64-5.82-3.23-11.54-4.88-17.23-6.22-21.51-20.1-37.05-39.99-46.02-20.96-9.45-43.49-12.34-66.48-8.67-12.74,2.03-23.9,8.11-34.92,14.39-10.91,6.22-12.21,5.95-20.01-5.03,2-5.84,6.91-8.71,11.93-11.37,29.74-15.75,61.15-20.09,93.98-13.02,15.33,3.3,30.13,8.34,44.19,15.52,13.05,6.66,23.65,16.05,32.66,27.41,8.12,10.24,7.65,21.68,3.74,33.2-1.67,4.92-5.48,8.22-11.07,8.94-2.84.37-5.63,1.15-9.15,1.9Z"/>
  <path class="st0" d="M1381.38,1017.89c-4.44-7.88-2.92-15.28-2.14-23.08,1.29-12.82,1.31-25.83.97-38.74-.33-12.32-6.5-22.09-15.81-29.99-7.36-6.24-14.82-12.37-21.89-18.93-20.96-19.45-26.2-45.99-14.22-73.23,1.52,1.35,2.87,2.52,4.2,3.71,4.18,3.75,8.1,7.84,12.58,11.17,8.52,6.34,10.08,9.9,7.83,20.42-.75,3.48-1.33,6.99-2.16,11.38,3.33,0,5.5.12,7.66-.02,9.41-.6,13.37,2.4,15.28,11.74.27,1.3.35,2.64.48,3.96.63,6.08,3.37,10.86,9.1,13.31,8.76,3.75,11.88,10.66,12.81,19.68.61,5.86,2.44,11.7,4.47,17.27,4.5,12.38,3.76,23.7-3.33,35.25-4.26,6.94-6.24,15.28-9.17,23.02-1.71,4.5-2.53,9.48-6.64,13.06Z"/>
  <path class="st0" d="M1516.02,2068.07c-3.38-2.05-5.83-2.71-6.87-4.3-15.03-22.77-36.65-39.52-54.35-59.82-3.5-4.01-7.25-7.83-10.54-12.01-6.23-7.92-6.58-16.54-1.84-25.25,4.51-8.29,10.52-15.39,18.35-20.8,11.13-7.69,20.85-5.93,27.84,5.8,6.16,10.34,11.04,21.44,11.32,33.74.41,18.16,4.44,35.6,9.19,52.98,2.51,9.17,4.35,18.53,6.92,29.65Z"/>
  <path class="st0" d="M965.94,1641.63c-3.29.7-6.59,2.07-9.86,1.99-11.28-.27-22.65-.31-33.8-1.8-15.78-2.11-31.45-5.12-47.05-8.33-10.7-2.2-19.58-7.93-26.89-16.21-3.72-4.23-7.96-8.02-12.16-11.8-5.87-5.29-12.74-6.29-19.29-2.05-6.05,3.92-11.51,8.81-16.9,13.66-3.69,3.32-6.51,7.62-10.29,10.8-1.66,1.4-5.04,1.98-7.09,1.29-1.44-.49-2.63-3.69-2.76-5.76-.49-7.46,2.78-13.74,7.97-18.69,7.69-7.34,15.64-14.45,23.94-21.09,3.24-2.6,7.55-4.48,11.65-5.29,13.34-2.63,26.48-.86,39.36,3.2,6.91,2.18,10.47,7.28,10.65,14.15.32,11.51,7.31,16.97,16.83,21.07,23.04,9.94,47.3,15.63,71.61,21.17,1.25.29,2.48.67,3.71,1,.12.89.24,1.79.36,2.68Z"/>
  <path class="st0" d="M859.64,712.69c-8.32-2.75-13.82-8.84-19.11-15.05-8.5-9.99-14.62-21.4-19.26-33.63-5.06-13.37-10.13-26.74-15.12-40.13-2.71-7.28-6.72-13.03-15.24-13.89-4.25-.43-6.39-3.15-7.44-7-.62-2.24-1.23-4.48-1.83-6.73-3.22-11.99-2.82-12.89,8.72-17.89,8.55-3.7,17.12-7.34,25.75-10.85,6.12-2.49,16.78-.15,20.82,4.87,1.53,1.9,2.8,4.91,2.51,7.2-.83,6.51-2.05,13.06-3.98,19.32-3.21,10.4-3.62,20.7-2.51,31.52,2.66,26,14.05,48.94,23.99,72.42,1.03,2.44,2.14,4.86,3.08,7.34.19.51-.16,1.23-.37,2.49Z"/>
  <path class="st0" d="M986.37,954.35c-3.09-1.56-6.54-2.66-9.2-4.76-20.33-16.09-41.44-31.35-60.52-48.83-36.92-33.82-55.8-77-60.97-126.47-1.87-17.84-3.89-35.66-5.81-53.5-.14-1.3-.02-2.62-.02-4.26,5.54-1.26,7.42,2.86,8.51,6.26,2.43,7.55,4.53,15.27,5.83,23.08,2.89,17.36,3.61,35.25,8.1,52.15,8.4,31.67,23.52,59.67,49.21,81.52,13.61,11.58,25.4,25.32,37.82,38.25,7.14,7.43,14.07,15.08,20.79,22.89,3.05,3.55,5.35,7.74,8,11.63-.58.68-1.16,1.35-1.74,2.03Z"/>
  <path class="st0" d="M720.21,1778.53q19.65,2.43,32.66-11.91c2.87-3.19,5.14-6.9,7.88-10.21.89-1.09,2.37-1.69,5.01-3.49-1.24,17.42,5.29,31.13,12.3,44.64,1.82,3.5,4.23,6.78,6.84,9.74,4.73,5.35,8.24,29.92,4.86,36.11-2,3.66-5.31,4.86-9.2,4.83-10.43-.07-19.75-3.54-27.4-10.48-11.95-10.84-22.48-22.88-27.13-38.83-1.9-6.51-6.71-12.23-5.81-20.4Z"/>
  <path class="st0" d="M1160.98,690c-.14-6.44,2.33-8.73,7.58-9.69,15.01-2.75,30-5.72,44.83-9.28,13.58-3.26,23.29-12.56,31.64-23.13,12.65-16,19.98-34.41,23.1-54.5,1.38-8.86,2.51-17.77,3.77-26.65.7-4.94,5.66-8.61,11.51-8.55,4.76.04,6.85,2.47,6.95,8.8.65,39.95-12.89,74.42-41.38,102.37-15.32,15.03-35.09,21.22-56.18,22.75-8.26.6-16.62,0-24.93-.31-2.19-.08-4.34-1.11-6.9-1.81Z"/>
  <path class="st0" d="M1324.8,765.19c.35,4.49,1.28,9.02.96,13.47-1.3,18.02-4.05,35.85-12.38,52.12-7.57,14.8-15.65,29.36-24.14,43.65-3.35,5.64-7.82,10.96-12.82,15.2-14.19,12.05-28.45,24.12-43.62,34.88-8.56,6.07-18.92,9.61-28.54,14.14-.89.42-2.3-.28-5.38-.76,3.17-3.7,5.17-6.6,7.71-8.9,15.3-13.86,30.76-27.54,46.09-41.37,22.92-20.66,40.77-44.57,49.31-74.83,3.97-14.07,9.1-27.81,14.06-41.58.96-2.68,3.53-4.79,5.35-7.16,1.13.38,2.27.76,3.4,1.14Z"/>
  <path class="st0" d="M1363.05,733.58c0-3.94-.37-7.52.1-11,.52-3.84,1.28-7.82,2.85-11.32,10.71-23.81,19.22-48.13,19.88-74.63.39-15.6,1.16-31.19,1.82-46.78.07-1.62.56-3.22.9-5.05,2.58-.79,4.99-1.53,8.5-2.61-.96-6.71-1.67-13.22-2.86-19.65-1-5.35-5.63-6.89-10.04-8.65-10.14-4.05-16.06-11.23-16.44-22.38,8.64,1.49,16.9,2.87,25.14,4.34,3.26.58,6.63.96,9.72,2.07,11.79,4.24,15.9,15.79,9.33,26.51-3.64,5.94-8.06,11.41-11.65,17.38-1.15,1.91-1.72,5.12-.93,7.07,3.68,8.99,3.44,18.36,2.67,27.58-1.37,16.56-3.26,33.09-5.49,49.55-2.45,18.09-10.62,34.18-18.85,50.17-.89,1.74-2.39,3.18-3.69,4.69-3.57,4.18-7.18,8.32-10.98,12.7Z"/>
  <path class="st0" d="M1295.89,879.14c1.02,11.51,8.44,18.07,16.79,23.58,11.05,7.3,11.36,9.7,1.01,17.75-2.62,2.04-5.43,3.94-7.62,6.38-3.64,4.04-2.96,8.09,1.82,10.65,2.57,1.37,5.61,1.98,8.51,2.59,3.25.68,6.59.86,9.86,1.45,12.64,2.28,20.61,10.97,21.67,23.73.22,2.64.07,5.32-.1,7.97-.63,9.84-1.34,19.67-2.13,30.99-1.48-1.89-2.94-3.13-3.61-4.71-3.11-7.29-5.41-14.99-9.12-21.95-5.61-10.5-14.66-17.26-26.53-19.25-18.6-3.12-28.44-9.87-25.98-36.89,1.4-15.41,7.24-29.24,15.43-42.28Z"/>
  <path class="st0" d="M1257.46,487.7c.68.16,3.36.5,5.81,1.44,8.7,3.33,17.52,3.43,26.51,1.58,1.95-.4,3.95-.66,5.94-.71,6.57-.17,9.21,1.91,10.14,8.3.85,5.9,1.4,11.84,1.99,17.78.42,4.19-1.6,7.07-5.38,8.59-2.45.99-5.07,1.56-7.6,2.37-3.78,1.2-6.36,3.31-6.54,7.72-.42,10.35-9.28,13.93-16.04,18.81-3.19,2.3-6.67-.4-7.74-3.92-4.13-13.5-12.82-23.86-22.22-33.87-4.3-4.58-5.23-10.17-1.86-15.63,3.56-5.77,6.12-13.09,17.01-12.46Z"/>
  <path class="st0" d="M1096.87,697.48c-2.87,0-5.76-.24-8.6.04-13.86,1.34-27.73,2.68-41.55,4.36-3.18.39-6.62,1.55-9.2,3.39-3.81,2.72-7.26,3.27-10.92.51-3.91-2.95-4.66-7.23-3.47-11.64.85-3.17,2.13-6.38,3.92-9.11,10.7-16.35,13.91-34.21,11.76-53.4-.74-6.59-1.04-13.31-.69-19.92.26-4.89,1.61-9.79,3.07-14.5.44-1.44,2.88-3.23,4.3-3.15,1.46.09,3.59,2.04,4.03,3.58,1.28,4.44,2.12,9.05,2.65,13.65,1.42,12.21,2.52,24.46,3.87,36.68,1.44,12.97,7.19,23.12,18.58,30.24,8.09,5.06,15.49,11.22,23.2,16.89-.31.79-.62,1.59-.94,2.38Z"/>
  <path class="st0" d="M1007.79,637.29c1.37.11,3.06.08,4.68.39,7.7,1.48,10.52,5.34,7.95,12.69-3.51,10.01-6.99,20.23-12.13,29.44-14.45,25.9-34.46,45.35-64.67,52.06-12.63,2.81-24.98,7.11-38.25,4.25-8.23-1.78-15.97-4.39-22.48-10.03-3.03-2.62-5.21-5.26-3.09-9.38,2.04-3.97,5.48-4.66,9.33-3.31,12.77,4.47,26.1,4.58,39.37,5.3,12.76.69,24.31-2.54,34.75-9.93,11.62-8.23,21.06-18.45,27.13-31.31,6.08-12.86,11.37-26.11,17.42-40.16Z"/>
  <path class="st0" d="M1176.97,952.45c-19.18,20.94-40.79,37.72-70.8,39.93-10.29.76-20.59,1.57-30.9,1.98-9.44.37-18.76-1.17-27.22-5.36-13.72-6.79-27.12-14.21-40.65-21.38-1.16-.61-2.25-1.36-3.37-2.04.25-.64.49-1.28.74-1.92,2.05-.26,4.24-1.12,6.12-.66,5.48,1.34,10.84,3.21,16.25,4.88,15.47,4.77,31.25,5.44,47.39,5.05,20.2-.49,39.65-4.74,59.07-9.3,9.67-2.27,18.96-6.15,28.42-9.29,4.64-1.54,9.29-3.06,13.94-4.59.33.91.67,1.81,1,2.72Z"/>
  <path class="st0" d="M1510.12,2164.46c0-6.65.07-13.3-.02-19.95-.15-11.24,5.79-20.26,11.01-29.41,2.59-4.54,13.39-5.52,19.5-2.69,5.92,2.75,9.46,8.47,6.63,14.8-6.05,13.52-3.87,26.03.25,39.56,4.96,16.27-3.97,28.76-20.77,32.23-10,2.06-16.45-2.5-17.03-12.62-.42-7.29-.08-14.62-.08-21.93.17,0,.34,0,.51,0Z"/>
  <path class="st0" d="M1197.05,198.36c1.48,4.91-.24,9.42-2.79,13.08-3.95,5.66-8.44,11.08-13.43,15.84-4.53,4.32-10.54,5.4-16.8,4.11-2.93-.61-5.84-1.32-8.79-1.78-11.87-1.87-17.15,1.24-21.32,12.65-3.31,9.03-6.11,18.26-9.83,27.11-3.29,7.82-8.78,14.1-16.63,17.89-1.12.54-2.46.62-5,1.23.87-7.18.99-13.72,2.57-19.88,2.56-9.95,5.74-19.78,9.32-29.42,3.74-10.09,9.78-18.88,17.78-26.17,9.59-8.73,20.66-13.6,33.78-10.8,9.92,2.12,19.1,1.16,27.92-3.8.72-.41,1.87-.05,3.23-.05Z"/>
  <path class="st0" d="M1227.91,489.18c-2.87,10.84-6.31,13.89-15.91,12.28-26.06-4.38-50.31,2.32-73.67,12.38-22.75,9.8-36.93,28.16-46.36,53.06-3.88-9.63-7.58-17.64-10.3-25.97-1.58-4.84,1.56-8.92,4.87-12.41,10.92-11.51,23.64-20.48,38.54-25.97,13.09-4.83,26.18-9.94,39.68-13.29,18.75-4.64,37.92-6.81,57.22-2.79,1.29.27,2.57.67,3.8,1.15.59.22,1.06.75,2.13,1.56Z"/>
  <path class="st0" d="M932.23,2447.04c7.81,1.13,16.42,1.8,24.74,3.72,9.63,2.23,15.87,13.06,14.44,23.34-1.74,12.5-13.27,25.18-25.55,27.75-2.88.6-5.97.72-8.9.4-15.61-1.68-31.9-24.89-28.34-40.18,2.25-9.7,10.37-15.02,23.61-15.04Z"/>
  <path class="st0" d="M835.59,1772.15c6.77-3.43,11.23-1.01,15.22.73,12.79,5.59,25.47,11.46,37.86,17.87,3.96,2.05,7.48,5.66,10.14,9.33,3.46,4.78,7.65,7.43,13.36,7.3,26.9-.62,53.97.5,80.18-7.6,4.71-1.46,9.6-2.37,15.7-3.85-1.18,1.94-1.55,3.05-2.31,3.7-19.48,16.6-70.58,30.42-95.27,24.49-11.83-2.84-23.19-8.06-34.34-13.14-4.28-1.95-8.21-5.95-10.85-9.97-6.18-9.41-14.14-16.69-23.32-22.92-2.02-1.37-3.63-3.36-6.37-5.95Z"/>
  <path class="st0" d="M678.05,2172.63c14.43-2.52,21.63,3.69,20.28,18.79-.47,5.26-1.69,10.54-3.28,15.59-5.18,16.44-7.58,33.07-4.57,50.23.21,1.21-.23,2.53-.35,3.6-7.31.51-14.19,1.04-21.08,1.45-10.45.63-14.57-2.81-13.25-13.43,2.43-19.49,6.11-38.79,14.12-56.97,2.63-5.97,5.08-12.03,8.12-19.25Z"/>
  <path class="st0" d="M1468.24,1458.25c12.66,1.28,13.32,11.82,17.48,21.06,2.78-4.36,5.04-8.23,7.62-11.87,2.68-3.78,5.41-7.6,8.67-10.85,1.29-1.28,4.71-2.05,6.04-1.23,1.43.88,2.11,3.9,2.09,5.98-.02,2.22-.99,4.53-1.98,6.61-1.71,3.6-3.49,7.21-5.68,10.52-15.2,22.96-17.93,48.03-13.65,74.64,2.37,14.74,3.62,29.67,5.16,44.53.33,3.15-.26,6.39-.43,9.61-6.73,1.27-7.73-3.18-8.64-6.78-3.19-12.55-6.26-25.15-8.86-37.83-1.26-6.15-2.02-12.55-1.92-18.81.31-19.39-2.27-38.47-5.06-57.57-1.06-7.22-1.42-14.56-1.88-21.86-.12-1.84.6-3.73,1.04-6.16Z"/>
  <path class="st0" d="M1267.12,914.18c1.77,27.21,13.31,50.03,25.14,72.75,5.36,10.3,13.28,18.13,23.36,23.85,4.67,2.65,9.68,5.28,8.44,12-.84,4.54-6.43,8.29-13.65,7.69-5.75-.48-11.82-2.05-16.89-4.75-8.37-4.46-14.25-11.81-18.42-20.4-10.58-21.81-15.63-45.12-18.29-69-.54-4.86.45-9.93,1-14.87.53-4.78,3.85-6.48,9.33-7.26Z"/>
  <path class="st0" d="M1410.27,2258c-2.39-1.41-6.13-2.43-7.47-4.81-1.02-1.81.24-5.92,1.83-7.97,3.23-4.18,7.44-7.58,11.11-11.44,10.77-11.35,21.58-22.65,32.09-34.23,2.57-2.84,4.25-6.57,6-10.06,2.95-5.89,16.39-11.7,22.52-9.43,3.85,1.43,6.27,4.52,5.83,8.41-.58,5.18-1.34,10.69-3.62,15.26-8.5,17.04-20.55,31.07-37.48,40.37-6.41,3.53-12.91,6.92-19.52,10.06-3.27,1.55-6.88,2.37-11.28,3.83Z"/>
  <path class="st0" d="M995.76,807.78c1.29-2.53,1.56-4.18,2.47-4.68,6.97-3.86,13.9-7.88,21.16-11.13,11.8-5.28,24.08-5.13,35.98-.59,7.85,3,15.37,3.24,23.42,1.53,10.73-2.29,21.5-4.77,32.39-5.75,8.81-.79,17.83.24,26.71,1.04,2.78.25,5.7,1.95,8,3.71,3.25,2.48,2.79,6.16-.94,7.93-2.64,1.25-5.67,1.9-8.6,2.29-33.98,4.57-68.13,7.25-102.41,7.56-12.26.11-24.53-1.18-38.18-1.91Z"/>
  <path class="st0" d="M702.34,1699.87c-2.51,9.07-6.76,13.94-12.45,17.55-12.52,7.93-26.03,13.08-40.91,14.64-20.26,2.13-40.52,2.49-60.69-.36-17.54-2.48-34.39-.53-51.13,6.19-2-4.9,1.34-6.36,4.29-7.21,17.52-5.07,34.91-10.99,52.76-14.43,11.85-2.29,24.43-1.44,36.65-1.04,12.82.42,25.16-.62,37-5.91,6.97-3.11,14.02-6.13,21.27-8.46,3.54-1.14,7.61-.62,13.2-.96Z"/>
  <path class="st0" d="M961.84,332.62c-8.02,1.32-14.51,2.14-20.89,3.5-11.36,2.42-22.77,4.73-33.93,7.91-14.69,4.18-27.42,11.46-36.29,24.65-7.52,11.18-18.48,18.02-31.27,21.82-2.81.84-5.98.46-8.99.64-.34-.72-.68-1.45-1.02-2.17,2.96-3.79,5.92-7.59,8.88-11.38,6.32-8.09,12.91-15.98,18.93-24.29,14.07-19.45,32.17-30.11,56.91-27.92,8.9.79,17.89.42,26.85.58,6.92.13,14.09-.69,20.82,6.68Z"/>
  <path class="st0" d="M750.01,1735.74c-.06,10.6-1.68,19.74-6.72,27.89-7.09,11.45-17.52,12.01-25.96,1.62-11.36-13.99-11.67-43.03-.61-57.41,7.71-10.02,18.18-9.88,25.54.58,5.97,8.49,7.61,18.29,7.74,27.31Z"/>
  <path class="st0" d="M1135.33,684.56c-4.98-2.77-10.57-4.66-14.52-8.32-12.97-11.98-24.74-24.99-31.83-41.63-5.72-13.43-12.33-26.48-18.06-39.9-3.6-8.42-.35-13.82,8.67-16.03,4.44-1.09,8.04.16,10.03,4.3,1.28,2.65,1.99,5.62,2.63,8.53,3.66,16.75,10.52,32.23,19.62,46.6,3.84,6.06,9.47,11,14.4,16.35,5.39,5.85,11.19,11.36,16.18,17.53,1.53,1.89,2.11,6.08,1.04,8.1-1.11,2.07-4.78,2.77-8.14,4.49Z"/>
  <path class="st0" d="M1179.11,318.82c3.13.18,6.29.14,9.39.57,19.26,2.67,38.36,3.54,57.49-1.67,6.27-1.71,13.18-1.58,19.79-1.44,14.79.3,23.33,9.79,29.92,21.64.55.98.07,2.53.07,4.8-16.78-7.33-32.98-.57-49.31.22-5.63.27-11.23,1.42-16.82,2.27-6.9,1.04-13.68-.02-19.07-4.14-8.52-6.5-17.1-12.61-27.28-16.26-1.75-.63-3.09-2.41-4.62-3.66l.44-2.33Z"/>
  <path class="st0" d="M694.91,1677.8c-4.15-1.24-6.65-1.27-7.91-2.54-1.8-1.81-3.14-4.38-3.89-6.86-5.35-17.54-9.92-35.09-8.29-53.88,1.24-14.31,2.96-28.36,6.72-42.28,2.5-9.25,3.29-18.99,4.55-28.54,1.65-12.42,6.37-23.72,12.23-34.59,1.33-2.47,3.78-4.35,5.55-6.32,4.86,2.32,2.82,5.53,2.35,8.22-4.9,27.84-10.26,55.6-14.69,83.52-2.4,15.09-3.37,30.42-4.74,45.67-1.12,12.47,1.63,24.36,8.12,37.62Z"/>
  <path class="st0" d="M1145.82,299.46c13.12-5.68,24.06-10.31,34.9-15.14,9.16-4.08,15.66-10.95,20.56-19.66,3.09-5.49,6.5-10.93,10.57-15.7,10.24-12.03,25.31-15.76,39.89-10.18,1.77.68,2.91,3,4.35,4.56-1.61,1.36-3.13,3.77-4.85,3.93-17.73,1.68-27.69,13.03-35.25,27.58-1.84,3.54-3.96,6.95-5.67,10.56-5.73,12.06-15.47,18.05-28.54,18.5-9.3.32-18.65.21-27.94-.27-2.42-.13-4.72-2.39-8.01-4.18Z"/>
  <path class="st0" d="M713.7,1694.07c.56-3.27.63-5.91,1.48-8.27,3.16-8.76,6.58-17.42,9.88-26.13,2.17-5.74,6.29-9.26,12.12-10.9,7.68-2.16,15.33-4.47,23.07-6.38,2.85-.71,5.98-.91,8.89-.58,4.68.54,7.08,4,5.72,8.53-1.04,3.44-2.78,6.81-4.83,9.77-5.09,7.37-7.8,15.23-7.51,24.32.12,3.69-1.52,7.43-2.3,10.89-1.35-.04-44.89-1.21-46.52-1.25Z"/>
  <path class="st0" d="M976.64,321.86c-5.11.48-8.44,1.7-11.17.89-8.21-2.46-16.88-4.55-24.13-8.87-18.63-11.08-35.9-9.47-53.02,2.76-5.13,3.67-10.39,7.2-15.79,10.46-3.58,2.16-7.26,4.82-12.5,2.87.28-1.31.12-2.89.84-3.6,9.64-9.55,18.84-19.65,29.28-28.25,10.28-8.47,23.2-11.76,36.39-11.44,6.4.16,13.32,2.09,18.95,5.16,12.07,6.57,21.54,16.36,31.14,30.02Z"/>
  <path class="st0" d="M1286.48,451.37c5.74-1.94,9.86.31,13.74,2.83,3.9,2.53,7.78,5.2,11.23,8.29,7.5,6.72,15.78,12.05,24.9,16.33,10.24,4.8,15.99,13.45,16.03,24.56.04,10.86-1.58,21.74-2.65,32.6-.14,1.46-1.35,2.81-1.96,4.01-5.68.27-6.24-3.93-7.35-7.19-2.25-6.61-3.82-13.46-6.28-19.97-1.99-5.25-4.21-10.67-7.59-15.04-2.64-3.42-6.94-6.93-10.98-7.63-14.34-2.47-20.26-12.83-25.04-24.5-1.74-4.25-2.56-8.87-4.07-14.28Z"/>
  <path class="st0" d="M1344.09,453.48c-1.98-3.17-4.4-6.15-5.83-9.56-2.69-6.42-4.74-13.1-7.19-19.63-7.02-18.73-14.62-22.06-32.68-13.85-6.84,3.11-13.74,4.94-21.21,3.86-6.75-.97-11.64-4.19-13.44-12.46,16.01,1.22,27.8-7.79,40.63-14.15,3.53-1.75,7.28-3.41,11.11-4.12,12.93-2.39,24.93,5.05,27.98,18.04,1.72,7.34,1.89,15.1,2.17,22.69.35,9.46.08,18.94.08,28.41-.54.25-1.08.5-1.63.75Z"/>
  <path class="st0" d="M809.71,1663.78c13.57,3.58,26.16,7.83,39.09,10.09,19.26,3.38,38.77,5.31,58.16,7.96,4.26.58,8.74.94,12.62,2.58,8.78,3.71,17.24,8.17,25.84,12.32-.04.7-.08,1.41-.12,2.11-2.28.41-4.81,1.67-6.79,1.08-19.2-5.7-38.99-2.63-58.46-4.03-17.03-1.23-33.56-4.31-49.7-9.71-7.05-2.36-13.42-5.87-18.07-11.85-2.17-2.8-4.58-5.74-2.56-10.55Z"/>
  <path class="st0" d="M1018.96,1778.24c-7.3,1.15-14.57,2.81-21.92,3.35-20.85,1.54-41.71,3.04-62.6,3.74-11.9.4-23.87-.59-35.79-1.38-3.54-.23-7.26-1.42-10.38-3.11-1.98-1.07-4.29-3.98-4.13-5.87.14-1.71,3.36-3.27,5.38-4.65.72-.49,1.94-.26,2.93-.36,33.46-3.35,67-2.96,100.5-1.41,8.68.4,17.22,3.85,25.82,5.9.06,1.26.12,2.52.18,3.78Z"/>
  <path class="st0" d="M1203.82,1174.08c3.34-1.85,6.48-4.42,10.05-5.42,13.09-3.65,26.17-7.61,39.53-9.92,22.15-3.84,44.5-6.54,66.79-9.59,3.25-.44,6.72-.76,9.84-.06,2.23.5,5.31,2.49,5.74,4.34.43,1.84-1.43,5.35-3.26,6.36-4.88,2.71-10.11,5.36-15.52,6.42-11.71,2.3-23.58,4.01-35.46,5.19-23.47,2.33-47,4.18-70.51,6.12-2.11.17-4.28-.45-6.43-.7-.26-.91-.52-1.82-.77-2.74Z"/>
  <path class="st0" d="M1000.58,1723.53c-5.3,1.43-10.52,3.42-15.91,4.18-23.81,3.38-47.67,3.64-71.52.23-13.14-1.88-24.96-6.76-35.02-15.51-2.08-1.81-3.68-4.15-7.15-8.14,4.65,0,6.81-.33,8.83.06,9.46,1.78,18.81,4.23,28.33,5.54,11.47,1.58,23.07,2.3,34.62,3.33,12.2,1.09,24.41,2.14,36.62,3.15,4.56.38,9.19.33,13.69,1.05,2.65.42,5.13,1.95,7.68,2.99-.06,1.04-.11,2.08-.17,3.12Z"/>
  <path class="st0" d="M1048.38,1766.52c-8.71.14-15.05-3.67-18.84-11.15-2.53-5-4.67-10.35-5.99-15.79-2.44-10.02.34-16.36,9.84-20.14,5.66-2.25,12.24-2.9,18.41-2.93,5.48-.02,9.08,4.11,10.36,9.39,2.04,8.4,4.04,16.85,5.32,25.39,1,6.66-1.94,10.7-8.44,12.9-3.43,1.16-7.1,1.57-10.67,2.32Z"/>
  <path class="st0" d="M1343.08,921.95c12.2,1.06,23.32,10.43,26.85,22.53,4.45,15.28,5.94,30.76,1.57,46.3-2.55,9.06-2.2,17.36,2.1,26.09,2.03,4.13.78,9.88,1.04,15.4-9.95.46-15.27-3.76-18.24-11.22-2.91-7.31-2.91-14.85-1.5-22.59,1.9-10.45,3.43-20.98,4.84-31.52,1.32-9.84-1.63-18.42-8.59-25.56-2.09-2.15-4.11-4.37-6.3-6.41-3.94-3.66-4.78-7.74-1.75-13.02Z"/>
  <path class="st0" d="M1068.28,293.91c-2.58-2.91-5.21-4.9-6.53-7.54-6.01-12.07-7.11-24.64.98-35.93,8.43-11.76,14.86-24.14,19.09-37.97,3.36-10.98,11.96-16.84,24.45-20.37-2.35,3.08-3.65,4.8-4.97,6.51-2.87,3.73-3.92,7.65-1.29,11.97,4.07,6.69,2.18,12.57-2.16,18.36-10.85,14.46-18.6,30.6-24.72,47.52-1.86,5.14-2.96,10.56-4.84,17.45Z"/>
  <path class="st0" d="M1015.35,1853.21c-4,.6-8.01,1.8-11.98,1.68-11.54-.34-22.56,1.86-33.02,6.43-21.09,9.21-43.67,11.22-66.07,14.06-4.84.61-9.96-.24-14.83-1.09-1.83-.32-3.32-2.56-4.96-3.92,1.42-1.66,2.65-3.56,4.33-4.89,1.23-.98,3.02-1.36,4.62-1.75,20.02-4.85,39.96-10.06,60.11-14.24,8.03-1.67,16.55-1.49,24.83-1.3,12.21.28,24.4,1.32,36.6,2.03.12,1,.25,2,.37,3Z"/>
  <path class="st0" d="M979.25,1694.4c-15.29-.06-23.63-6.99-24.81-20.06-.58-6.45,1.18-12.52,7.28-15.19,6.3-2.76,13.2-4.98,20-5.56,11.68-1,19.52,6.31,20.28,17.23.93,13.43-5.43,21.83-17.68,23.27-1.98.23-3.99.24-5.08.31Z"/>
  <path class="st0" d="M852.99,453.3c4.53,34.86-12.48,75.51-48.99,99.05-.46-2.31-.41-5.21-1.59-7.45-3.47-6.56-1.97-12.2,2.33-17.54,1.46-1.81,3.07-3.52,4.81-5.06,16.86-14.98,27.86-33.65,35.04-54.83,1.75-5.15,4.15-10.08,6.25-15.11.72.31,1.43.63,2.15.94Z"/>
  <path class="st0" d="M1100.03,1882.03c2.45-10.59,4.59-20.33,7.05-29.98.44-1.74,1.9-3.91,3.44-4.55,5.51-2.27,11.15-4.51,16.96-5.72,6.01-1.26,8.81,1.66,8.51,7.7-.1,1.96-.62,3.94-1.21,5.83-4.08,13-8.23,25.98-12.38,38.95-.71,2.22-1.46,4.43-2.39,6.56-1.48,3.36-3.15,7.81-7.36,6.75-2.95-.74-6.24-4.04-7.43-6.98-2.46-6.07-3.62-12.67-5.19-18.56Z"/>
  <path class="st0" d="M807.73,489.39c7.83-22.15,15.23-44.47,23.74-66.36,2.69-6.93,7.93-13.04,12.79-18.88,2.87-3.45,7.09-5.95,11.07-8.25,2.16-1.24,5.11-1.72,7.65-1.57,5.75.35,7.92,4.76,5.19,9.87-.62,1.16-1.42,2.27-2.32,3.23-14.7,15.66-25.05,34.26-35.86,52.58-6.19,10.5-13.2,20.51-19.84,30.74-.8-.45-1.6-.91-2.41-1.36Z"/>
  <path class="st0" d="M1038.31,1798.35c8.07.41,13.86,3.54,17.52,10.39,3.71,6.95,4.32,14.24-.3,20.75-2.78,3.92-6.73,7.39-10.86,9.89-6.38,3.87-13.56,3.02-18.15-2.6-4.47-5.48-8.02-12.16-10.26-18.89-2.23-6.7.65-11.56,7.16-14.58,4.72-2.19,9.91-3.36,14.88-4.98Z"/>
  <path class="st0" d="M1018.38,314.44c-11.26-2.74-20.66-8.24-25.53-19.26-8.98-20.31-8.45-40.74.74-60.8,4.29-9.37,15.9-18.88,29.17-24.47-3.31,5.96-5.26,10.79-8.32,14.77-13.85,18-15.64,38.49-12.05,59.73,1.93,11.39,7.76,21.35,15.99,30.03Z"/>
  <path class="st0" d="M1066.54,191.68c-2.73,7.52-5.06,14.3-7.66,20.97-1.31,3.36-2.4,7.25-4.83,9.67-13.08,13.03-14.26,29.46-13.74,46.31.24,7.61,1.66,15.18,2.47,22.78.13,1.17-.14,2.38-.25,3.8-12.99-6.09-19.64-17.9-16.72-30.42,3.02-12.94,5.87-26.04,10.49-38.43,3.42-9.17,9.14-17.6,14.63-25.83,3.52-5.26,8.9-8.76,15.6-8.85Z"/>
  <path class="st0" d="M1442.15,1889.08c-3.6,1.07-7.14,2.7-10.81,3.1-5.58.61-11.26.33-16.89.5-14.92.44-29.83.93-44.75,1.34-3.97.11-7.99.32-11.92-.09-6-.63-8.96-3.44-8.77-7.54.2-4.19,5.96-10.81,9.86-11.05,1.96-.12,3.96.26,5.94.46,20.12,2.06,40.25,4.1,60.36,6.22,5.8.61,11.81.71,16.73,4.41.09.88.17,1.77.26,2.65Z"/>
  <path class="st0" d="M886.45,521.41c2.27-1.76,3.16-2.98,4.26-3.22,20.99-4.49,42.08-6.92,63.34-1.96,4.5,1.05,9.1,2.47,13.07,4.75,2.97,1.7,5.73,4.68,7.26,7.75,2.4,4.81-.59,8.87-5.9,8.45-3.61-.29-7.12-1.64-10.71-2.3-12.07-2.21-24.1-4.85-36.27-6.31-11.51-1.38-22.63-3.85-35.03-7.17Z"/>
  <path class="st0" d="M982.89,223.24c-2.1,4.22-3.44,6.84-4.71,9.5-4.41,9.24-5.92,18.95-4.91,29.13,2.16,21.64,9.08,41.42,23.42,58.96-19.92-5.85-36.83-32.08-37.33-56.82-.37-18.34,9.03-35.77,23.52-40.77Z"/>
  <path class="st0" d="M1335.53,790.47c.74,3.8,1.33,6.71,1.86,9.62,1.14,6.23,4.28,10.11,11.09,10.7,10.79.94,16.76,7.62,18.58,17.76,1.98,11.02,2.67,22.19,1.76,33.67-5.91-.51-8.05-4.12-9.52-8.12-4.09-11.1-10.54-20.45-19.12-28.66-6.06-5.8-9.69-13.44-11.3-21.78-1.2-6.24,0-8.43,6.66-13.2Z"/>
  <path class="st0" d="M1319.26,365.45c-8.89-2.06-12.94-8.16-15.04-16.01-.86-3.21-1.46-6.49-2.35-9.69-4.64-16.61-9.85-24.28-23.43-34.66,5.64-2.75,17.44-.36,24.97,5.85,17.29,14.27,21.71,32.6,15.85,54.51Z"/>
  <path class="st0" d="M744.01,1329.54c4.05,5.98,3.35,11.04,2.8,15.81-1.36,11.88-3.15,23.72-4.74,35.57-.92,6.91-1.46,13.89-2.84,20.7-.52,2.56-2.49,6.12-4.59,6.79-3.81,1.23-5.7-2.35-6.82-5.65-.64-1.88-1.45-3.84-1.44-5.77.11-20.77,1.99-41.22,12.23-59.92,1.23-2.25,2.99-4.21,5.39-7.54Z"/>
  <path class="st0" d="M1002.7,1069.98c-5.53-15.55-4.44-32.16-6.62-48.34-2.17-16.08-3.76-32.24-5.65-48.8,13.29,5.99,19.18,16.53,19.22,30,.03,9.91-1.61,19.84-2.67,29.75-1.34,12.47-2.85,24.93-4.28,37.39Z"/>
  <path class="st0" d="M1056.21,544.03c1.99,0,3.97-.04,5.96,0,10.56.23,14.12,4.84,11.86,15.32-1.35,6.27-5.24,8.79-10.74,5.66-9.55-5.43-18.8-3.63-27.52.75-7.56,3.8-12.24.47-16.48-5.9-2.56-3.85-1.42-7.1,2.15-9.29,2.48-1.52,5.38-2.7,8.23-3.21,8.77-1.55,17.62-2.69,26.44-4,.03.22.06.44.1.65Z"/>
  <path class="st0" d="M1136.41,701.25c2.81,9.24,6.02,17.35,1.79,25.7-4.11,8.11-11.24,11.36-20.57,11.25-6.2-.08-12.4,1.98-18.64,2.83-4.58.63-9.25,1.33-13.82,1.04-2.19-.14-5.94-2.45-5.97-3.85-.06-2.39,1.65-5.7,3.67-7.12,7.39-5.19,15.7-6.36,24.71-4.84,4.01.67,8.61.16,12.46-1.19,4.66-1.63,6.37-6.31,7.89-10.9,1.4-4.21,1.71-9.24,8.48-12.93Z"/>
  <path class="st0" d="M1300.92,284.72c-3.77.26-6.07.92-8.14.48-10.83-2.3-20.19,1.45-29.42,6.43-6.11,3.29-12.31,6.51-18.76,9.03-6.85,2.68-13.43,1.66-18.81-3.69,9.23-6.02,18.27-12.09,27.48-17.87,10.31-6.47,21.39-8.56,33.36-5.41,5.71,1.5,10.25,4.32,14.3,11.04Z"/>
  <path class="st0" d="M1328.47,677.14c-.21-3.42-.94-6.91-.53-10.26,2.16-17.45,4.61-34.86,7-52.28.17-1.25.75-2.44,1.1-3.57,11.42.52,13.7,2.72,14.3,13.17.71,12.22-1.2,23.82-7.42,34.58-2.32,4.02-4.03,8.39-6.3,12.45-1.35,2.42-3.26,4.53-4.92,6.77-1.08-.29-2.16-.58-3.24-.86Z"/>
  <path class="st0" d="M1335.92,700.2c.77-2.57.98-4.22,1.72-5.58,5.52-10.22,10.94-20.51,16.82-30.52,4.29-7.3,11.62-10.74,16.36-8.49,4.28,2.03,6.22,9.12,4.29,17.17-.85,3.53-2.07,7.07-3.78,10.26-1,1.87-3.35,4.36-5.01,4.31-7.25-.25-11.35,4.71-16.35,8.44-3.63,2.71-7.48,5.41-14.06,4.43Z"/>
  <path class="st0" d="M931.53,263.67q12.53-21.57,19.95-22.85c2.81,7.94-4.38,14.45-3.32,22.02.99,7.14,1.87,14.29,2.89,22.05-9.37-7.14-20-8.28-31.11-7.13-1.65.17-3.33.22-4.99.21-6.17-.03-10.62-2.2-10.36-5.48.43-5.38,5.02-6.93,9.22-7.6,5.85-.93,11.86-.88,17.72-1.25Z"/>
  <path class="st0" d="M1478.47,1820.48c-4.75,16.69-12.11,31.03-29.93,35.86-13.19,3.58-26.55,6.97-40.64,1.35,1.93-6.18,6.4-6.77,10.46-7.84,9.94-2.63,19.99-4.91,29.82-7.9,5.02-1.53,9.92-3.86,14.38-6.63,2.63-1.64,6.03-4.81,6.07-7.35.12-7.54,5.44-6.48,9.83-7.49Z"/>
  <path class="st0" d="M988.98,719c5.21,16.72,15.69,19.72,29.63,16.98,4.66-.92,9.96.24,14.73,1.42,3.01.74,6.49,2.69,8.11,5.17,1.76,2.7,3,7.19,1.94,9.92-1.39,3.58-5.6,1.73-8.89,1.13-5.15-.94-10.4-1.36-15.61-1.98-5.58-.67-11.4-.52-16.69-2.12-12.16-3.68-18.61-17.05-13.23-30.51Z"/>
  <path class="st0" d="M1334.8,547.68c6.64.68,13.4.8,19.85,2.27,3.64.84,7.13,3.52,10.06,6.07,6.59,5.75,7,11.34,1.49,18.16-6.18,7.65-12.67,15.05-19.69,23.36-1.98-4.82-.9-9.32.32-13.39,2.53-8.39,1.23-15.44-4.79-21.98-3.28-3.57-5.68-7.95-8.48-11.97.41-.84.82-1.68,1.24-2.53Z"/>
  <path class="st0" d="M1119.93,915.53c-11-2.39-20.53-1.31-30.23,1.96-12.63,4.26-24.77,2.49-37.11-7.5,16.1-3.26,30.48-6.76,45.06-8.93,12.42-1.84,19.08,2.8,22.27,14.47Z"/>
  <path class="st0" d="M1208.05,223.06c-5.94,8-8.01,16.53-9.32,25.41-1.92,13-11.36,19.13-22.49,22.64-3.94,1.24-8.92-.78-13.47-1.32.26-1.38.18-2.38.53-2.57,10.18-5.36,16.17-14.06,21.2-24.17,3-6.02,8.01-11.29,12.98-15.97,2.53-2.39,6.98-2.74,10.57-4.02Z"/>
  <path class="st0" d="M901.33,383.43c-.93,1.52-1.5,3.53-2.83,4.49-8.86,6.4-10.66,15.7-10.38,25.58.28,10.04-3.41,18.05-10.7,24.61-4.23,3.81-8.96,6.48-14.04,6.4,2.25-6.46,5.57-12.71,6.51-19.3,2.35-16.38,8.87-29.66,23.61-38.21,2.21-1.28,4.01-3.26,6-4.92.61.45,1.22.9,1.83,1.35Z"/>
  <path class="st0" d="M1109.83,839.33c-10.31,1.2-19.73,2.3-29.71,3.46-2.66-11.09,1.11-19.62,8.32-26.6,7.81-7.56,19.41-3.71,21.24,6.99.86,5.05.15,10.37.15,16.15Z"/>
  <path class="st0" d="M1165.85,2504.87c13.97,1.01,19.19,4.54,18.68,12.63-.54,8.53-10.8,17.9-18.89,17.23-6.98-.58-12.31-9-11.53-18.21.66-7.81,5.02-12.15,11.74-11.66Z"/>
  <path class="st0" d="M1152.64,240.49c-5.12,8.59-3.78,15.68-.17,22.95,3.84,7.73,3.65,15.15-2.63,22.07-8.44,9.3-14.21,11.74-26.48,9.07,8.6-3.6,12.85-10.12,17.38-16.42,2.77-3.86,3.48-7.68,1.26-12.07-1.33-2.65-2.42-5.49-3.17-8.36-2.5-9.52,1.3-14.77,13.79-17.25Z"/>
  <path class="st0" d="M1048.49,844.08c-3.85-7.55-2.31-14.36.63-20.75,3.19-6.95,11.94-8.66,17.58-3.32,3.01,2.85,5.76,6.79,6.82,10.73,3.41,12.75.19,15.89-11.49,14.7-4.59-.47-9.18-.92-13.53-1.36Z"/>
  <path class="st0" d="M1316.85,434.44c-14.41,4.07-14.51,4.04-21.83-6.04,4.33-2.84,8.44-6.12,13.02-8.42,8.76-4.4,17.42-.47,20.66,8.84,3.04,8.72,2.16,17.53.93,27.41-8.64-5.44-4.94-17.15-12.79-21.78Z"/>
  <path class="st0" d="M1014.05,840.02l-2.63-1.4c-5.27-8.92-4.72-15.21,2.11-21.95,6.84,3.36,2.37,11.89,7.7,17.09.14-3.12.28-5.27.33-7.42.1-3.93.97-7.61,5.55-8.09,4.45-.48,7.7,1.89,9.08,6.17,1.92,5.93,3.56,11.95,5.4,18.19-5.85,3.1-10.89.08-15.35-1.75-4.3-1.76-8.06-1.55-12.18-.82Z"/>
  <path class="st0" d="M1338.15,733.52c7.95-1.7,10.52-.91,12.88,5.04,3.39,8.53,4.51,17.6,2.28,26.45-.96,3.79-4.16,7.66-7.42,10.01-2.11,1.53-6.43,1.13-9.18.08-.99-.38-1.31-5.7-.19-7.85,3.39-6.53,4.1-13.33,3.64-20.36-.28-4.22-1.24-8.39-2.01-13.36Z"/>
  <path class="st0" d="M1345.2,471.95c4.77-.83,10.02-1.04,14.76-2.7,13.32-4.69,23.2,2.42,23.45,17.37-18.63,3.27-32.1-2.17-38.21-14.67Z"/>
  <path class="st0" d="M1307.77,371.74c-4.36,3.89-7.59,7.06-11.11,9.86-9.13,7.27-23.18,6.09-30.26-2.93,7.34-1.34,13.77-3.69,18.44-9.85,2.85-3.75,7.63-3.63,11.95-1.98,3.32,1.27,6.52,2.89,10.98,4.9Z"/>
  <path class="st0" d="M1112.7,837.23c2.06-9.07,3.32-16.52,5.61-23.65.73-2.27,4.33-5.26,6.35-5.08,2.72.25,6.03,2.73,7.57,5.21,3.35,5.39,2.72,11.65.62,17.34-.74,2.01-3.66,3.88-5.95,4.51-3.76,1.03-7.82,1-14.2,1.67Z"/>
  <path class="st0" d="M1241.77,266.65c6.97-5.28,12.81-9.98,18.94-14.28,9.34-6.56,18.84-5.6,29.76.08-6.28,1.83-11.44,2.63-15.9,4.85-4.35,2.17-7.96,5.8-11.91,8.76-6.37,4.79-13.03,3.2-20.89.59Z"/>
  <path class="st0" d="M818.48,556.29c6.33-8.42,12.47-16.89,18.95-25.1,4.48-5.69,6.2-5.73,14.59-1.86-3.63,5.87-6.98,11.91-10.93,17.52-5.8,8.26-12.96,11.06-22.61,9.44Z"/>
  <path class="st0" d="M798.79,518.26c6.83-11.95,11.98-22.21,18.31-31.67,5.41-8.08,10.37-9.89,17.65-9.3-4.6,7.31-9.23,14.74-13.91,22.13-4.94,7.8-10.86,14.48-22.05,18.85Z"/>
  <path class="st0" d="M1082.27,288.37c1.14-6.44,2.27-12.89,3.43-19.34,1.52-8.47,5.14-15.42,13.29-19.22-.91,9.76-1.66,19.21-2.7,28.63-.94,8.55-4.74,11.06-14.02,9.93Z"/>
  <path class="st0" d="M1312.03,853.56c8.93,14.85,9.07,27.05.22,35.61-2.65-7.72-5.54-15.26-7.78-22.99-1.64-5.63-.37-7.21,7.57-12.62Z"/>
  <path class="st0" d="M1066.95,222c.78-12.68,1.84-24.28,10.74-33.06,2.12-2.1,5.04-3.38,7.96-5.28-2.05,8.92-3.68,16.53-5.57,24.07-1.73,6.92-4.14,13.42-13.13,14.27Z"/>
  <path class="st0" d="M1142.69,194.94c-6.61,6.15-12.6,11.77-18.65,17.33-4.12,3.8-4.34,3.81-11.53,3.12,4.18-18.09,18.58-27.94,30.18-20.45Z"/>
  <path class="st0" d="M1196.95,310.78c11.7-5.05,22.59-14.45,35.74-3.89-11.71,9.83-24.02,11.27-35.74,3.89Z"/>
  <path class="st0" d="M892.4,823.7c-2.28-8.35-4.7-16.79-6.79-25.32-.4-1.63-.03-4.46,1.03-5.16,1.23-.81,3.91-.45,5.43.38,10.58,5.76,10.46,23.86.33,30.1Z"/>
  <path class="st0" d="M1052.39,236.3c4.18,5.76,5.5,11.59,3.97,17.95-1.51,6.29-3.26,12.53-5.01,19.16-4.35-.85-5.95-4.83-5.34-7.99,1.84-9.54-3.23-20.74,6.38-29.12Z"/>
  <path class="st0" d="M1212.29,234.23c9.87-13.98,19.49-17.6,33.41-13.24-8.53,7.24-24.59,13.82-33.41,13.24Z"/>
  <path class="st0" d="M1147.56,826.13h-8.38c-1.04-11.54,1.97-17.81,10.58-21.55,3.76,7.89,2.3,14.97-2.48,21.8-.01,0,.28-.25.28-.25Z"/>
  <path class="st0" d="M1154.01,816.14c2.55-5.57,4.21-10.24,6.79-14.35,1.14-1.82,4.13-2.48,6.27-3.66.94,2.55,2.83,5.17,2.65,7.64-.48,6.34-3.86,8.42-15.71,10.37Z"/>
  <path class="st0" d="M1160.01,252.52c3.06-6.69,3.67-15.49,14.46-15.27-1.14,15.95-3.98,18.94-14.46,15.27Z"/>
  <path class="st0" d="M1263.95,855.6c-2.33-3.26-4.8-5.28-5.25-7.68-.61-3.24,2.26-4.44,5.24-4.1,3.51.4,5.44,2.86,4.96,6.08-.25,1.69-2.56,3.07-4.95,5.7Z"/>
  <path class="st0" d="M850.35,1509.82c1.63,2,2.88,3.55,4.52,5.56q-5.52-.79-4.52-5.56Z"/>
</svg>