<?xml version="1.0" encoding="UTF-8"?>
<svg id="Layer_0_xA0_Imagen" xmlns="http://www.w3.org/2000/svg" version="1.1" viewBox="0 0 2732 2048">
  <!-- Generator: Adobe Illustrator 30.2.1, SVG Export Plug-In . SVG Version: 2.1.1 Build 1)  -->
  <defs>
    <style>
      .st0 {
        fill: #f8eeeb;
      }
    </style>
  </defs>
  <path class="st0" d="M1049.99,464.01c.68,3.92-2.62,5.69-5.05,7.93-9.27,8.49-22.82,15.27-32.78,23.22-47.16,37.67-102.82,94.99-120,154-13.68,46.98-18.1,97.47-4.14,144.84,3.68-4.09,10.56-16.65,11.53-21.45,7.23-35.83,7.18-59.92,21.51-96.49,31.57-80.5,69.34-125.56,145.6-166.4,12.76-6.84,34.73-13.47,45.23-20.77,5.51-3.83,5.24-11.62,11.54-14.61l34.64,8.66c7.14,4.86-6.2,19.44-9.1,25.04-3.61,6.96-7.47,13.92-9.42,21.58-103.64,36.84-180.84,120.32-214.08,224.92-3.23,10.15-13.82,62.46-15.94,65.05-2.95,3.61-12.77.45-17.66,5.35s-5.06,14.88-6.85,21.11c-16.37-5.45-20.81-27.29-25.55-42.45-40.79-130.32,4.38-239.99,99.63-329.44,9.26-8.69,9.25-18.57,25.91-18.25,19.93.39,44.17,9.29,64.99,8.16Z"/>
  <path class="st0" d="M1541.99,1526.01c-.87-.84-20.61,7.05-22.7,8.28-5,2.94-8.58,9.09-13.46,12.54-91.1,64.27-181.34,86.28-289.83,54.16-13.15-3.89-34.17-14.75-45.53-16.63-8.94-1.47-16.25,6.23-23.41-2.43-1.32-1.6-14.62-25.73-14.78-27.28-.33-3.28,2.69-5.03,5.25-6.14,2.81-1.23,39.32-11.76,41.48-11.76,1.82,0,27.85,11.39,33.95,13.28,73.65,22.88,140.93,25.8,215.03,2.95,42.91-13.24,80.27-34.13,117.47-58.74,5.44-1.12,7.73,5.48,12.47,6.95,11.89,3.68,22.93-9.95,24.04-9.19,3.65,7.71,4.81,9.09,2.66,17.63-6.8,26.95-45.31,82.16-64.67,103.32-66.62,72.8-182.54,97.93-277.92,90-15.02-15.12-26.1-34.05-39.17-50.83-2.86-3.67-11.53-4.23-3.76-10.01,14.67,1.72,29.32,6.12,43.93,7.84,64.12,7.54,140.62,5.8,198.31-25.63,39.39-21.46,82.19-56.71,100.65-98.33Z"/>
  <path class="st0" d="M865.98,1200c-1.48-18.69-13.59-26.81-22.81-40.17-65.07-94.34-83.99-181.21-50.6-292.25,3.63-12.08,13.52-29.69,15.04-41.12.91-6.8-3.24-13.49-1.34-19.12.57-1.69,28.67-17.16,30.83-17.38,2.35-.24,4.5-.23,5.95,1.99l12.53,44.7c-32,68.6-41.29,152.05-23.02,225.78,12.51,50.51,35.69,96.58,65.08,139.08,2.06,8.14-4.75,8.37-6.7,12.54-3.15,6.73,3.41,18.5,9.01,22.95-4.61,6.73-12.88,5.94-20.03,4.05-10.78-2.84-43.06-21.43-53.77-28.22-91.19-57.9-133.39-151.32-138.15-257.85-.48-10.71-1.74-50.87,2.2-57.76,18.14-12.81,34.61-28.55,52.77-41.24,2.37-1.65,3.78-3.79,6.06.01,1.68,2.82-8.21,55.69-9.03,65.02-4.87,55.7-.57,125.74,26.37,175.6,21.95,40.62,57.96,82.64,99.59,103.39Z"/>
  <path class="st0" d="M1844.02,1256c-.85,7.58-7.59,15.03-9.17,21.85-3.04,13.13-2.44,30.56-5.83,46.17-20.43,94.02-71.61,166.57-155.68,212.32-14.36,7.82-38.37,15.45-50.04,23.96-9.71,7.09-3.63,15.59-19.81,13.23-3.13-.46-27.78-8.21-28.65-9.45-1.84-2.64-.44-5.06.67-7.55,4.87-10.96,17.65-25.38,22.58-37.44,103.18-39.14,180.15-122.03,212.44-227.56,3.34-10.92,11.97-57.71,15.23-62.37,1.51-2.17,8.93-.91,12.37-2.02,8.04-2.59,10.93-15.52,9.87-23.14,7.64-1.42,12.88,4.59,16.41,10.59,19.31,32.87,29.61,114.88,25.56,152.39-9.18,84.97-63.05,164.87-124.89,221.11-14.12,12.84-39.8-2.65-57.84-.33l-23.21-4.76c61.71-46.92,135.93-105.5,158.95-183.01,10.24-34.49,16.14-80.92,10.46-116.43-.38-2.38-5.65-30.35-9.42-27.55Z"/>
  <path class="st0" d="M871.51,1252.48c16.65,45.39,44.8,88.09,77.46,123.55,54.33,58.98,134.03,91.8,211.89,106.11,4.9,2.93,2.09,9.07,4.16,13.84,2.54,5.86,16.53,11.45,22.99,10.04-.79,14.47-14.03,17.1-25.6,21.4-141.32,52.52-271.28-2.99-363.58-113.34-2.09-6.72,3.65-28.52,4.9-37.34,1.39-9.82,1.5-20.41,2.76-30.19.34-2.61,1.47-5.3,4.48-4.55,2.71.68,28.03,38.73,33.07,44.95,40.11,49.48,95.2,99.6,158.3,115.7,43.58,11.12,90.35,14.94,133.65,1.32.97-1.25-3.15-3.61-4.59-4.38-18.18-9.72-46.89-9.56-69.06-14.94-88.11-21.37-157.06-67.38-201.96-146.04-9.2-16.12-21.32-49.71-30.28-61.19-2.62-3.35-11.54-4.17-12.18-6.77l8.23-38.49c5.95-5.02,36.44,20.04,45.36,20.31Z"/>
  <path class="st0" d="M1927.99,705.99c-3.55.56-4.38.08-6.9-2.08-7.33-6.28-22.81-32.67-31.14-42.86-42.7-52.26-96.59-100.44-163.93-116.07-40.86-9.49-88.46-14.65-128.01,2.03,8.37,1.76,15.63,8.41,23.88,10.11,22.24,4.57,42.61,4.42,66.55,11.45,88.34,25.95,148.19,71.36,191.91,152.09,6.99,12.91,16.17,40.62,23.54,49.93,2.72,3.43,12.14,4.52,13.82,10.86l-9.85,36.4c-5.09,3.53-36.86-21.66-45.35-22.35-37.65-101.7-119.2-179.1-222.51-212.49-12.05-3.89-60.82-12.68-65.91-16.09-4.66-3.12-3.07-10.4-5.16-14.84-3.66-7.77-15.3-9.01-22.92-8.1,2.02-12.43,7.57-14.37,18.04-18.94,115.7-50.58,237.28-17.76,327.99,63.93,5.39,4.85,41.74,40.26,42.93,43.06,5.71,13.42-9.41,57-6.97,73.96Z"/>
  <path class="st0" d="M1537.47,400.42c1.04,1.71.43,3.71.53,5.57-83.64-12.48-175.96-21.72-251.83,23.18-37.86,22.4-75.7,54.09-94.15,94.83,21.5-4.57,32.04-18.38,48.92-30.05,79.42-54.9,171.76-74.99,265.49-49.37,16.7,4.56,46.07,18.93,59.5,20.58,6.28.77,11.03-4.43,16.65-2.88,4.26,1.18,21.95,34.57,19.34,37.65l-46.78,12.09c-70.22-31.43-151.29-40.54-226.4-22.27-50.85,12.37-97.22,36.72-140.09,65.98-4.84.46-6.28-11.43-22.72-6.78-6.02,1.71-9.27,8.73-15.74,4.83-5.65-9.19,12.31-41.71,17.46-51.12,53.16-97.16,146.7-151.19,257.26-156.74,14.92-.75,53.12-2.31,66.04.13,7.45,1.41,34.88,41.99,41.36,50.73,1.51,2.04,4.83,3.09,5.16,3.64Z"/>
  <path class="st0" d="M1992.59,1190.63c-2,1.43-1.67,6.68-6.58,5.36,5.62-44.32,12.47-87.83,9.97-132.97-3.22-58.15-15.97-99.06-50.35-145.65-19.79-26.82-45.98-55.31-77.63-67.35,4.49,7.2,5.3,16.13,9.58,23.4,4.36,7.4,13.39,14.47,19.24,22.76,58.64,82.99,76.66,178.12,48.17,275.82-3.98,13.65-17.21,40.54-18.62,51.47-.64,4.96,2.72,8.01,3.23,12.03,1.47,11.67-25.06,17.19-32.98,24.25-3.28.33-4.88-3.1-5.71-5.67-1.48-4.58-10.76-38.98-10.73-41.1.07-3.96,6.55-13.95,8.37-19.4,33.47-100.17,31.88-193.79-16.23-288.91-5.84-11.54-34.11-51.62-35.4-58.5-.99-5.27,5.46-7.58,6.68-11.6,4.02-13.27-10.39-23.39-9.62-24.52,10.5-6.66,17.38-3.09,27.96,1,45.19,17.48,103.34,63.68,130.09,103.91,45.89,69.01,58.62,152.14,53.89,234.01-.22,3.51-2.81,4.92-4.97,7.03-11.06,10.84-34.94,25.01-48.39,34.65Z"/>
  <path class="st0" d="M1454,1407.98c-18.55-12.97-33.59-23.57-45.6-43.38-29.04-47.88-22.45-101.13,1.23-149.98,7.18-14.8,21.75-41.35,33.33-16.59,10.93,23.36-1.03,21.58-12.62,37.3-13.99,18.98-21.56,47.48-18.33,70.67,3.5.51,4.39.1,6.92-2.08,6.34-5.48,16.86-30.39,24.24-39.76,4.62-5.87,10.79-10.63,15.83-16.13,15.73,33.41,33.12,66.53,47.35,100.61,5.24,12.55,21.41,46.01,16.6,57.32-2.69,6.34-29.07,21.01-36.4,23.59-57.02,20.1-116.59-5.51-152.52-50.6-29.44-36.94-50.04-73.08-46.01-121.93,2.46-29.81,18.17-58.3,23.96-87.02l-16.81.22-1.18-8.24c-1.87-1.98-45.24,5.47-52.03,6.99-11.58,2.61-23.67,8.89-33.11,10.91-3.83.82-3.7-1.19-1.91-3.93,2.56-3.91,18.63-14.97,23.6-18.41,31.92-22.07,65.91-36.2,103.23-46.63,17.63,2.62,10.4,22.77,7.24,35.09-6.59,25.69-20.96,54.18-23.09,80.91-5.01,62.92,16.08,126.85,68.29,163.85,21.85,15.49,40.42,25.87,67.78,17.2Z"/>
  <path class="st0" d="M1590.01,1118.01c39.14,13.53,79.67,26.7,117.93,43.06,16.27,6.96,42.67,12.33,39.62,33.43-9.75,67.56-77.42,109.24-142.64,105.59s-113.49-23.72-147.26-82.74c-3.99-6.96-22-48.97-24.73-49.44-8.58-1.48-9.03,17.85-20.32,6.33l-2.64.64c-10.28,14.43-21.55,28.12-30.8,43.29-4.92,8.06-8.43,18.55-12.76,25.24-1.72,2.66-2.4,5.39-6.4,4.58,3.66-25.82,7.6-52.28,15.92-77.06,3.24-9.65,25.77-61,32.1-63.9,11.45-5.26,19.78,10.98,24.81,19.14,7.88,12.79,13.45,27.97,20.82,41.18,39.15,70.29,107.76,116.9,190.75,102.07,22.38-4,46.28-11.41,53.58-35.4-60.3,15.84-111.37-7.78-143.61-59.39-9.4-15.05-36.03-65.58-26.55-81.31,5.46-6.51,27.27,4.49,30.3,9.56,3.73,6.25,1.2,17.5,2.38,25.62,2.38,16.43,12.84,37.81,23.53,50.47,3.96,4.69,18.83,20.44,17.52,6.57-1.97-20.91-16.29-44.37-11.55-67.52Z"/>
  <path class="st0" d="M984.02,1110c4.68.99,3.2-.63,4.46-2.58,34.1-52.82,79.12-70.75,141.54-56.45,18.16,4.16,58.85,17.33,70.81,31.17,11.1,12.84-4.61,19.14-16.32,21.4-13.03,2.52-20.82-12.19-31.87-19.2-4.9-3.1-14.67-8.05-20.09-9.91-6.95-2.39-44.77-11.34-46.55-3.41,9.66,13.07,27.67,18.29,40.93,29.03,2.12,1.72,17.8,16.93,17.05,17.92-38.95,14.7-75.38,35.63-114.02,51-14.73,5.86-38.5,19.96-50,6.05-38.04-46.01-27.68-116.05,8.07-159.98,19.25-23.66,75.76-62.37,105.51-68.49,44.4-9.14,85.18,10.07,126.47,22.55,6.08-4.2-6.48-18.98,9.67-19.38,2.72-3.11-6.38-50.36-8.28-58.14-2.15-8.84-7.53-18.69-9.3-26.72-.81-3.69,1.53-3.96,3.93-1.91,5.35,4.57,18.22,24.2,22.79,31.21,19.77,30.29,31.76,61.12,42.12,95.65-.47,13.53-8.5,13-19.45,11.67-26.44-3.23-56.26-19.34-83.39-24.59-71.45-13.84-158.61,19.88-190.48,87.75-7.74,16.48-8.68,27.76-3.61,45.37Z"/>
  <path class="st0" d="M1307.41,879.36c2.47-2.3,3.65-7.71,7.87-9.17l10.46,3.54,48.23-73.73c-1.75,34.28-10.61,69.38-24.27,100.71-3.8,8.71-13.73,30.39-18.88,37.11-5.48,7.14-9.17,7.04-15.82,2.16-14.24-10.44-35.76-65.09-48.18-83.81-34.67-52.23-107.39-87.08-169.58-77.93-25.11,3.69-52.11,11.35-61.24,37.74,56.77-18.23,110.85,6.47,142.04,54.98,15.06,23.42,35.51,58.76,27.71,86.79-5.35,3.36-28.12-7.62-30.71-13.79-2.7-6.43-.35-17.17-1.26-24.74-1.96-16.3-12.22-36.67-22.98-49.02-1.32-1.51-15.86-18.16-16.81-11.19,2.49,24.97,13.99,46.8,9.99,72.99-45.08-19.55-97.15-31.9-140.69-54.29-12.42-6.39-16.45-7.09-15.27-22.69,5.44-71.92,85.56-111.58,150.96-105,73.63,7.41,109.27,27.31,144.07,91.93,5.24,9.73,12.22,31.35,18.02,38.04,2.3,2.65,4.49,1.1,6.35-.64Z"/>
  <path class="st0" d="M1519.41,968.6c5.14,5.94-4.04,9.33.41,14.49,22.44,17.8,45.86,34.35,72.17,45.9-2.67,4.06-4.61,2.31-7.94,2.14-31.7-1.61-79-16.39-107.41-30.77-5.21-2.64-19.59-9.87-23.4-12.59-17.23-12.31,16.75-29.33,25.42-34.1,17.26-9.51,37.09-16.98,53.94-28.06,46.2-30.39,86.75-96.32,83.38-152.58-1.69-28.15-8.61-70.17-39.97-79.01,16.94,47.35-3.15,102.93-42.17,132.83-17.6,13.48-67.23,40.13-88.81,39.28-20.59-.82-6.39-23.91.96-33.13,28.43.45,61.81-8.89,82.08-29.92,2.34-2.42,10.69-13.87,3.07-12.97-23.15,2.75-46.37,15.82-71.14,11.88,10-25.92,18.52-52.54,28.51-78.47,7.93-20.61,16.65-46.14,26.54-65.46,3.96-7.73,7.88-13.96,17.9-14.11,6.73-.1,32.36,7.67,39.13,10.99,52.85,25.89,75.9,88.01,69.68,143.83-7.93,71.19-27.11,106.03-89.71,140.29-6.15,3.37-42.01,17.87-42.01,21.96l9.38,7.6Z"/>
  <path class="st0" d="M1157.98,1356l-5.78-37.21c3.92-55.29,31.11-89.59,78.46-115.13,12.97-7,54.55-26.26,67.37-18.68,7.45,4.4-4.49,27.79-9.23,30.82-6.63,4.25-19.34,1.42-27.59,2.41-14.44,1.75-57.04,22.67-61.19,36.82-1.15,4.5,3.86,3.22,6.93,2.94,21.61-2.01,43.42-14.83,67.03-9.97l-60.06,152.92c-11.3,9.56-48.09-4.55-59.79-12.07-50.36-32.4-67.34-85.86-59.81-143.53,8.57-65.64,24.1-98.72,82.33-131.67,7.08-4.01,46.57-21.1,47.23-24.9l-10.02-10.07,3.65-9.73c-19.68-21.13-45.58-31.88-69.56-45.99-2.59-1.52-5.04.36-3.94-4.96,50.22,2.74,98.79,19.86,141.04,45.96,1.86,3.66,1.17,7.98-.53,11.56-4.77,10.05-62.26,35.77-75.87,44.12-56.15,34.46-96.91,104.27-88.1,170.79,3.52,26.61,10.68,54.06,37.43,65.55Z"/>
  <path class="st0" d="M1421.99,877.98l17.79.23,3.36,9.87c17.78-2.77,35.69-4.54,53.23-8.71,11.76-2.8,21.78-8.32,33.63-9.35-19.29,19.34-46.44,36.37-71.28,47.69-13.94,6.36-41.84,17.54-56.24,19.93-3.68.61-6.96,0-10-2.13-2.92-4.4-2.66-9.22-2.28-14.23,1.99-26.18,19.79-59.63,24.91-87.18,10.59-57-10.07-131.29-56.16-168.05-20.63-16.46-50.2-37.9-76.9-23.06,67.9,39.4,75.11,106.21,49.46,175.5-4.08,11.03-25.22,62.44-38.5,35.51-12.6-25.54-.42-24.11,11.83-40.18,13.74-18.02,22.25-49.66,17.15-71.82-3.68-.87-3.88,1.25-5.66,3.31-9.96,11.55-15.72,28.96-26.38,41.62-2.62,3.11-12.22,14.6-16,12.13-14.94-35.68-33.69-69.9-48.31-105.7-3.99-9.77-17.39-39.16-14.78-47.45,3.46-10.98,35.82-26.57,47.05-29.02,84.8-18.49,144.99,37.93,178.85,109.36,24.58,51.85,2.24,101.78-14.75,151.73Z"/>
  <path class="st0" d="M1503.99,1098.01c-3.27,3.09,13.99,77.7,18,87.98-5.4-1-10.43-9.1-13.65-13.33-21.58-28.32-47.06-77.32-53.93-112.17-3.95-20.02,22.57-12.23,33.62-9.51,24.26,5.97,52.6,20.2,77.22,22.78,61.14,6.39,128.15-13.96,165.58-63.93,15.94-21.28,30.6-44.64,19.15-71.81l-14.95,22.01c-45.88,52.47-110.82,51.31-171,24.95-8.08-3.54-36.4-17-33.75-27.54,2.02-6.14,21.75-13.42,26.44-12.94,5.37.56,13.49,11.48,18.62,15.17,21.79,15.65,47.9,23.62,74.65,20.33.53-4.09-3.35-6.67-6.13-8.85-15.34-12.06-37.68-17.86-49.9-36.14-1.55-2.32-2.9-1.18-.04-4.07,29.84-13.06,58.77-28.51,88.73-41.28,12.62-5.38,50.99-23.16,62.19-21.57,11.52,1.63,27.13,33.36,29.87,44.21,21.26,84.12-38.59,148.75-109.36,182.07-48.81,22.98-101.5,2.46-148.51-14.31l-4.64,3.11c7.32,18.51-6.19,12.95-8.21,14.86Z"/>
  <path class="st0" d="M1710.01,2044c-1.96,2-29.34-3.77-34.93-4.08-17.1-.94-34.16,1.35-51.18,1.2-31.72-25.17-62.21-45.09-83.52-80.5-17.01-28.26-33.26-66.67-41.37-98.63-7.27-28.63-6.88-58.39,1.22-86.76l61.75-35.23c-21.12,78.13-17.89,182.89,39.97,245.05,8.89,9.55,42.1,38.15,53.51,40.51,3.93.81,15.2,1.45,11.57-5.57-2.32-4.48-9.68-11.53-13.08-16.93-31.34-49.64-65.97-128.66-57.71-187.82,3.62-25.92,30.52-105.91,51.86-120.14,3.26-2.17,38.68-19.12,40.94-19.23,8.55-.41,10.2,2.47,8.55,10.65-5.54,27.39-29.38,54.4-39.94,80.13-26.67,64.98-23.73,184.22,23.33,239.39,4.9,5.74,35.95,30.91,29.04,37.97Z"/>
  <path class="st0" d="M1901.38,118.61c2.05,2.23,3.79,7.47,4.46,10.55,16.34,74.55-1.88,153.3-43,216.69-8.14,12.54-44.49,52.02-58,54.14-9.72,1.52-31.93-9.87-42.78-13.05-7.13-2.09-15.72-1.95-23.28-4.73-8.6-3.17,2.93-5.63,6.57-7.84,83.59-50.88,151.07-137.06,132.13-240.84-1.74-9.52-5.24-29.8-17.48-27.53-7.41,55.5-29.33,115.75-60.75,162.27-25.15,37.24-87.89,71.03-131.24,80.76-21.27,4.77-42.43-.26-62.04-10-10.51-5.22-13.66-9.69-2.47-16.51,23.71-14.46,55.5-17.11,81.02-26.98,25.22-9.76,57.9-33.63,78.42-51.58,31.63-27.67,74.07-92.96,77.03-134.97.64-9.08-5.48-60.14,12.03-41.98,10.64,11.03,20.75,29.96,32.99,41,4.27,3.85,13.3,7.26,16.38,10.61Z"/>
  <path class="st0" d="M651.99,1219.99c-94.21-29.16-220.76-13.42-276.44,76.56-4.36,7.04-16.22,23.78-5.56,28.49,32.69-25.01,69.99-43.84,108.97-57.07,37.52-12.73,66.99-20.1,107.14-13.06,22.57,3.96,96.77,30.97,109.6,48.4,2.86,3.88,18.24,34.38,19.37,38.65,2.12,8,.67,15.08-8.6,12.75-36.8-9.23-65.04-37.34-102.96-47.23-59.3-15.46-156.92-14.27-208.52,22.53-9.33,6.65-34.11,36.01-40.44,37.64-2.56.66-3.98.73-5.63-1.58-2.94-4.44,2.75-27.65,3.14-34.98.62-11.56-3.32-43.79-.56-50.57,2.1-5.17,25.19-33.2,30.53-39.45,48.97-57.39,151.28-102.52,226.81-86.92,15,3.1,19.77,25.48,26.39,37.61,1.95,3.57,18.28,26.84,16.74,28.24Z"/>
  <path class="st0" d="M448.01,531.99c37.54,3.93,75.16,15.75,109.34,31.66,83.51,38.85,121.92,91.56,138.29,182.82-6.48,8.6-11.05,51.78-24.37,49.24-10.97-2.09-25.39-67.27-29.2-78.78-21.91-66.13-93.28-133.82-158.1-157.9-26.3-9.77-45.35-4.21-70.8-7.24-2.99-.36-7.9-.85-7.22-4.8,1.14-6.55,28.36-24.59,35.11-30.94,9.78-9.21,16.28-19.17,25.45-28.55,40.3-5.27,77.31-12.1,117.56-2.56,30.51,7.23,70.96,24.07,97.98,40.02,25.23,14.89,43.81,35.7,59.93,60.09l-.88,13.05-18.09,57.85c-49.04-89.26-148.01-166.45-255.4-139.36-8.96,2.26-18.83,4.39-19.59,15.39Z"/>
  <path class="st0" d="M2385.99,681.99c2.09,2.08-3.89,40.26-4.07,46.92-.26,9.48,4.22,31.6,2.82,36.66-1.63,5.88-40.92,53.61-47.72,60.45-29.47,29.65-112.72,68.09-154.06,71.94-11.88,1.11-54.59-.38-64.06-5.88-7.94-4.61-15.16-27.47-19.82-36.18-1.93-3.6-17.12-24-15.07-25.91,89.23,23.75,196.05,16.58,260.04-56.96,5.84-6.71,34.15-41.56,23.93-49.04-26.42,15.78-51.64,32.74-80.04,44.93-40.28,17.28-86.64,32.97-130.7,26.83-24.99-3.48-103.07-30.69-118.16-49.84-1.87-2.37-20.47-40.87-20.55-43.27-.25-8.03,4.95-9.11,11.57-7.83,24.16,4.67,48.8,25.35,70.56,35.52,71.36,33.34,196.94,29.13,256.39-26.3,9.14-8.52,14.54-23.24,28.94-22.05Z"/>
  <path class="st0" d="M873.98,1944c5.84-37.04,16.2-73.23,31.67-107.35,25.36-55.93,47.24-87.08,103.63-114.37,15.95-7.72,63.27-27.73,79.19-25.91,4.81.55,35.6,11.04,40.63,13.53,25.65,12.7-18.08,26.25-30.07,30.13-58.02,18.8-80.46,23.86-127.98,66.02-35.84,31.8-75.4,96.63-77.05,144.99-.35,10.17,4.8,22.83-.38,31.58-6.4,10.83-13.7-6.75-17.66-11.58-7.06-8.61-17.37-21.45-25.17-28.83-12.58-11.88-19.34-7.26-22.58-27.42-7-43.51-8.45-80.8,4.37-123.21,12.44-41.16,35.02-91.79,67.39-120.61,7.47-6.65,23.71-20.91,33.02-21.15l64.97,19.18c-41.01,24.53-76.48,52.58-103.58,92.38-33.38,49.02-49.09,101.27-35.48,160.72,1.84,8.03,5.19,22.12,15.08,21.9Z"/>
  <path class="st0" d="M2010.03,1394.01c3.21-3.08,3.5,1.26,4.43,2.6,37.89,54.74,67.83,97.71,132.18,125.75,31.72,13.82,102.33,23.47,132.76,6.05,21.15-12.11-10.02-13.26-17.77-15.03-54.36-12.41-130.87-41.22-167.57-84.43-19.81-23.32-58.56-100.03-53.58-129.48.9-5.33,10.04-32.44,12.51-37.47,2.59-5.26,4.92-9.37,11.69-7.79,17.31,23.05,20.07,53.03,28.75,79.36,13.65,41.41,59.6,97.88,95.52,122.48,29.12,19.95,68.5,41.29,104.09,41.95,5.25.1,39.32-5.74,36.93,4.94-15.61,14.55-33.39,26.41-47.92,42.11-3.56,3.85-6.05,11.05-9.89,14.11-11.5,9.16-67.71,7.07-85.16,11.04-39.54-1.57-109.46-29.55-142.84-51.35-11.95-7.81-47.38-42.21-51.28-54.78-3.07-9.91,7.85-30.47,11.02-41.18,1.43-4.83,4.86-27.66,6.14-28.88Z"/>
  <path class="st0" d="M1172.01,307.99c24.72-79.88,17.65-188.78-44.96-250.04-8.4-8.22-40.35-34.14-50.52-35.59-3.13-.45-5.59,1.28-8.52,1.66-2.17,3.09,10.36,18.12,12.82,22.14,43.85,71.75,75.54,148.44,46.73,232.39-14.67,42.75-31.25,80.88-78.55,93.59-5.54,1.49-9.11,2.29-12.8-3.46,8.71-39.23,38-68.64,48.36-107.12,17.36-64.43,13.67-167.1-31.54-219.59-3.94-4.58-34.47-30.72-29.02-35.96l46.91,4.07c14.39,3.13,31.42-7.17,43.8.21,11.58,6.91,50,38.61,59.27,48.72,41.16,44.89,77.86,147.5,63.51,207.48-3.5,14.64-29.68,21.89-42.84,29.16-3.91,2.16-19.85,14.9-22.65,12.33Z"/>
  <path class="st0" d="M1945.73,1228.28l52.11,138.91c-.72,26.84-16.38,51.17-15.86,78.8-8.25,2.58-20.82-31.26-23.97-27.99-9.65,29.6-14.67,60.38-22.59,90.43-5.53,20.97-19.89,52.96-21.31,72.85-.68,9.48,11.77,48.86,7.89,52.72-35.18-6.98-72.92-3.92-106-19,53.37-46.94,94.09-124.82,107.41-194.59,9.62-50.41,8.03-103.86.68-153.54-1.93-13.03,1.22-18.05,13.58-21.18l.49-17.52,7.57.11Z"/>
  <path class="st0" d="M1409.97,202c14.29,32.14,47.18,53.43,58.02,87.99-44.98-4.69-94.29,7-136.48,22.52-71.63,26.34-117.27,67.2-168.53,121.47-7.88,8.34-11.54,16.06-17.27,24.73-8.75,13.26-14.64,8.83-28.39,7.15-3.2,12.36-16.53,14.51-12.41.09,2.99-10.45,14.46-27.34,19.45-38.6,11.96-26.96,22.44-56.32,35.31-82.69,10.22-20.94,26.3-22.11,44.95-33.05,6.19-3.63,21.61-16.82,26.36-17.65,4.25-.75,3.28,1.82,2.86,4.85-1.3,9.28-5.37,20.01-7.83,29.17,4.02,3.29,66.74-38.6,75.38-43.6,20.72-11.98,56.87-26.04,73.31-40.69,13.71-12.21,17.48-36.2,35.27-41.7Z"/>
  <path class="st0" d="M917.99,432.01l-29.94,33.04c-73.78,92.13-93.36,200.63-78.22,316.1.59,4.52,1.42,15.03-1.86,17.81-8.4,7.11-16.04-.36-9.8,19.74l-6.96,3.13c-4.43-.9-12.15-32.02-14.28-37.75-11.28-30.33-26.15-61.22-36.45-91.55-8.13-23.95,5.2-45.93,10.63-70.42,1.32-5.95.73-12.26,2.92-18.09,4.98-3.63,19.75,23.27,20,27.98l7.41-15.55c1.92-43.63,42.3-120.14,38.35-159.23-1.4-13.88-10.13-28.91-5.75-43.2l103.96,18.01Z"/>
  <path class="st0" d="M946.01,1637.97c-2.92-3.19,1.51-3.67,2.53-4.55,7.73-6.67,17.17-10.58,25.42-16.42.13-5.1-84.87-23.07-94.39-25.57-23.91-6.27-53.83-21.2-78.33-19.18-7.8.64-39.36,11.15-42.99,5.49,6.03-33.97,4.87-69.08,16.72-101.78,2.55-3.17,2.01-1.3,4.04.03,9.77,6.41,23.87,24.02,35.16,32.85,89.79,70.24,197.85,87.81,308.99,73.33,25.32-3.3,16.04,8.4,24.88,12.95,3.53,1.82,19.14-5.32,15.79,5.69-1.69,5.56-38.78,14.84-46.32,17.7-31.69,12.02-62.82,25.84-94.69,37.46-16.23-2.19-31.36-8.74-47.17-12.62-5.02-1.23-28.63-4.27-29.64-5.38Z"/>
  <path class="st0" d="M817.99,1287.99c-4.24,4.29-33.08-13.83-38.63-16.35-32.29-14.64-65.44-27.74-97.85-42.15-19.93-18.52-26.65-48.05-45.46-68.51,2.26-3.32,3.11-2.65,6.38-2.52,7.94.31,19.81,4.86,27.55,7.54,4.26-5.74-36.06-63.77-41.6-73.38-12.72-22.11-30.35-66.75-48.56-81.44-6.85-5.52-31.61-17.26-33.59-24.55-.8-2.95-.14-3.64,1.76-5.63,2.61-2.73,17.66-10.9,22.94-15.05,19.8-15.58,36.47-32.93,61.03-41.94-2.34,49.43,8.78,98.7,26.49,144.53,29.01,75.08,80.06,129.44,142.52,177.48,19.83,15.25,5.34,18.98,7.25,26.79.82,3.37,13.48,6.09,9.75,15.19Z"/>
  <path class="st0" d="M2097.99,889.99c-11.09,2.27-20.9-4.7-31.08-5.93-3.15-.38-3.29-.34-2.88,2.9,14.49,27.55,32.65,52.87,48.31,79.7,11.99,20.53,24.19,55.14,41.83,70.17,5.52,4.7,37.34,21.91,35.83,28.1-23.58,11.05-60.93,55.49-85,59.1-5.42.81-.72-12.09-.88-17.03-3.86-120.52-65.48-217.85-154.1-294.02-7.61-6.54-25.72-13.58-26.22-23.95-.22-4.5,3.2-9.91,2-13.67-.32-1.01-18.11-12.8-6.67-15.26,4.26-.92,40.02,18.91,47.51,22.26,29.58,13.2,60,24.74,89.23,38.77,12.27,12.63,18.11,29.91,27.27,44.73,2.43,3.93,17.66,21.44,14.83,24.15Z"/>
  <path class="st0" d="M1788.01,410.01c.14,2.78.57,3.81-1.37,6.08-5.53,6.44-21.16,10.3-26.64,17.9,25.4,8.55,52.23,12.07,78.01,19.01,22.7,6.1,66.85,24.14,87.28,24.87,9.98.36,46.86-12.89,51.86-5.96-.64,10.42-3.92,20.68-5.14,31.12-2.82,24.08-3.11,47.95-12.03,70.98-3.46.89-3.99-1.44-6-2.98-10.62-8.18-20.5-20.61-32.19-29.81-41.63-32.73-105.26-62.83-157.38-72.62-50.38-9.47-105.88-8.28-155.53-.7-20.8,3.18-15.34-11.49-22.8-14.95-7.21,1.05-13.32,6.49-16.08-3.9l139.14-54.94c26.78.88,51.42,15.89,78.87,15.9Z"/>
  <path class="st0" d="M1502.01,1755.99l5.98-33.98c-4.16-4.12-61.41,35.02-69.37,39.61-20.32,11.71-63.36,29.58-78.5,43.5-7.63,7.01-24.23,40.91-31.12,40.95-4.1.02-18.85-23.77-23.05-29.01-14.15-17.66-30.93-33.6-37.96-56.04,74.48-.23,150.86-21.8,212.65-63.39,32.55-21.91,65.59-54.86,92.4-83.6,10.54-11.3,16.08-28.73,29.89-33.78l14.98,3.73c.93-8.35,7.33-14.33,14.1-6.92l-61.04,136.91-68.95,42.03Z"/>
  <path class="st0" d="M388,1131.98c2.99.65,4.71-.65,7.12-1.86,14.79-7.38,37.04-29.42,52.25-39.75,27.88-18.95,53.71-24.94,70.96-57.04,5.67-10.55,8.19-22.03,11.69-33.32,4.07-.69,5.68,2.58,7.65,5.33,9.34,13.03,17.74,37.3,25.57,52.43,4.11,7.95,16.83,25.09,18.73,31.28.92,2.97-.21,3.32-2.94,2.96-5.69-.76-11.42-4.74-17.99-4.93-16.35-.49-51.72,9.35-68.07,14.9-48.29,16.38-85.67,51.47-119.99,88.01-3.42,3.64-20.16,28.96-24.96,24.02l-2-347.98c3.17-.69,4.15.96,6,2.98,4.08,4.43,17.4,25.69,20.34,31.66,19.55,39.78,24.73,154.72,21.63,200.33-.66,9.75-2.68,21.74-5.98,31Z"/>
  <path class="st0" d="M2219.37,1615.42c-24.81,22.61-50.54,44.94-74.42,68.53-54.03,53.38-104.25,110.34-156.9,165.1-3.15,3.28-7.16,8.8-12.04,8.94-1.37-1.61,5.9-36.6,7.43-41.55,12.41-40,91.38-126.48,124.53-155.47,8.45-7.39,18.1-14.65,28.02-19.96-1.13-2.35-6.84-4.08-9.47-4.53-22.04-3.82-46.98-4.7-68.98-9.02-33.31-6.54-44.71-17.99-81.96-8.87-13.56,3.32-22.2,12.62-35.58,13.4l28-97.98c9.01.81,9.3,12.31,14.98,18,5.02,5.04,20.38,14.45,27.18,18.82,63,40.47,113.36,41.68,186.91,39.25,7.49-.25,29.7-7.63,22.29,5.34Z"/>
  <path class="st0" d="M1433.99,1810.01c1.68,7.55-3.89,14.28-4.09,21.05-2.02,65.35,46.18,132.5,90.02,176.03,7.65,7.59,29.42,22.4,34.18,29.82,1.57,2.46,2.49,3.96,1.9,7.08l-345.98,2c-.68-3.14.95-4.16,2.97-6.01,35.57-32.47,106.94-39.52,153.93-42.07,34.07-1.85,74.07-1.66,107.06,6.08l-1.02-7.96c-14.03-18.23-30.76-37.57-43.42-56.58-17.54-26.35-20.31-46.11-50.21-63.79-6.33-3.74-34.71-12.92-35.29-14.74-.9-2.84.45-5.47,3.17-6.7l86.77-44.21Z"/>
  <path class="st0" d="M857.99,1626.02c-2.5,8.01-12.13,8.99-19.03,15.94-53.99,54.41-59.41,139.29-57.04,211.12.26,7.91,5.9,18.21-.95,24.91l-246.93-242.99c2.46-3.6,2.9-2.44,6.03-2.13,53.1,5.21,107.1,51.14,145.96,86.1,23.58,21.21,46.95,46.87,64.97,72.99,1.9.04,4.12-7.27,4.52-9.44,4.03-21.92,4.52-47.22,8.99-69.01,6.66-32.53,18.97-47.16,8.5-83.51-3.59-12.46-13.29-21.54-12.99-33.99l97.98,30.01Z"/>
  <path class="st0" d="M1526,4.02c-22.1,22.92-48.21,32.5-79.28,37.7-60.78,10.16-125.85,14.25-186.71,4.29-.68,3,1.11,4.38,2.37,6.61,10.21,18.01,30.05,37.92,42.06,55.94,17.39,26.09,22.42,48.68,52.18,65.82,11.8,6.8,24.65,7.49,35.37,14.65.6,2.61-2.27,4.54-4.16,5.81-13.62,9.14-39.77,18.26-55.59,26.41-6.72,3.46-24.09,16.06-29.23,16.8-3.17.46-3.39.08-3-2.99.81-6.27,5.09-11.9,4.87-19.33-.61-20.4-11.6-58.76-19.36-78.24-20.93-52.55-67.55-90.56-107.51-128.51l3.09-4.86c17.46,3.76,36.06,1.36,53.98,1.81,4.73.12,9.11,2.07,13.84,2.16,92.44,1.81,184.87-3.44,277.08-4.06Z"/>
  <path class="st0" d="M759.99,192.01c-3.62,13.83-4.7,28.23-9.07,41.91-12.98,40.61-91.27,125.48-124.89,155.11-2.6,2.29-27.1,19.51-26.02,20.95,23,5.49,47.27,6.22,70.41,10.61,32.98,6.26,52.19,19.06,87.65,10.48,12.82-3.1,22.8-10.79,34.88-15.06l2.72,6.52-29.68,93.48c-4.68.99-3.2-.63-4.46-2.58-13.17-20.41-20.76-25.45-41.69-38.26-44.56-27.27-78.53-35.49-130.75-37.25-25.16-.85-50.02,1.92-75.09,2.07l1.36-6.08c83.31-75.76,161.78-156.68,237.55-240.01l7.08-1.9Z"/>
  <path class="st0" d="M2199.99,415.99c-13.47-1.55-28.08-3.98-41.02-7.96-38.56-11.86-119.6-84.5-148-116l-27.94-34.01c-3.16,1.83-2.45,4.26-3.04,6.97-5.06,23.59-5.56,49.5-10.63,73.37-6.38,30.08-17.1,44.11-8.46,77.73,3.35,13.02,13.21,22.96,15.08,35.9l-98.03-28.96c-3.28-2.31-1.11-3.21,1.3-4.77,17.64-11.4,22.88-17.74,34.38-35.62,37.11-57.68,42.18-108.11,40.43-175.73-.28-10.87-4.79-23.47-1.12-34.95l247.02,244.02Z"/>
  <path class="st0" d="M2387.99,1181.99c-3.65.82-3.92-1.11-5.64-3.34-33.84-43.52-39.85-111.17-42.43-165.57-1.46-30.85,1.22-64.81,6.08-95.07-3.02-.67-4.7.67-7.13,1.85-16.54,8.09-40.13,31.84-57.05,42.95-32.66,21.44-54.38,23.79-70.77,65.23-2.58,6.53-2.99,25.34-12.72,19.6l-44.34-88.63c0-2.05,4.66-.97,6.56-.56,74.39,15.89,155.12-49.62,202.49-100.43,2.65-2.84,21.94-32.18,24.75-18.87.31,1.47-1.81,6.55-1.88,9.75-1.43,63.04-.64,125.08.18,188.01l1.91,145.07Z"/>
  <path class="st0" d="M688.01,873.99l1.98-43.98c-2.68-.46-4.64.81-6.68,2.3-11.65,8.52-25.41,30.04-37.48,40.52s-36.05,25.58-50.49,33.51c-7.89,4.33-27.12,10.81-31.47,14.53-8.05,6.89-19.78,55.33-26.87,55.09-8.05-12.03-49.09-81.68-46.88-90.82,1.27-5.26,20.86-2.67,26.64-3.39,88.44-11.07,175.37-70.46,221.28-145.74l4.89,2.07,22.67,41.41-14.11,50.99c-2.52,5.62-38.89,29.97-46.85,35.15-2.8,1.83-14.31,10.76-16.62,8.35Z"/>
  <path class="st0" d="M2243.81,1165.8c-6.47,4.28-12.34-.19-18.5.34-86.02,7.29-169.49,64.72-220.13,132.05-4.67,6.21-6.95,18.57-14.18,11.81-1.5-1.41-19.47-33.69-20.05-35.93-1.24-4.78-1.37-7.7-.48-12.58,1.26-6.92,9.48-35.42,12.05-41.96,4.36-11.08,51.96-36.41,63.46-45.51,7.44,15.01-7.16,32.73,1.02,45.96,3.87-.03,32.24-34.68,37.95-40.02,14.6-13.67,41.87-30.61,59.72-40.28,7.74-4.2,22.45-7.6,27.47-12.53,7.61-7.48,18.42-51.57,24.89-53.12,3.22-.77,4.04,2.74,5.34,4.63,8.15,11.89,19.98,34.06,26.67,47.33,3.03,6.01,17.63,35.74,14.77,39.83Z"/>
  <path class="st0" d="M1127.99,376.01l-13.09,49.89-47.8,26.24-73.08-12.15c-3.58-5.05,28.5-26.38,31.95-30.98-.03-7.55-48.35-.99-54.64-1.14-29.36-.71-71.53-13.76-98.62-25.34l-54.54,20.71-4.15-2.26c8.2-22.86,11.98-49.03,20.47-71.49,13.98-36.97,13.29-22.42,33.69-6.65,71.24,55.08,172.57,72.65,259.82,53.17Z"/>
  <path class="st0" d="M1740.01,1608.01c5.99,5.82-27.04,26.47-29.99,31.03-.48,2.23,1.35,4.03,3.3,4.65,13.45,4.2,43.36-2.59,59.43-1.42s42.9,7.48,58.1,11.88c8.37,2.43,26.64,11.76,32.19,12,10.15.43,52.17-24.83,56.95-20.14-7.49,32.29-14.53,67.28-30.94,96.17-5.29,4.12-18.48-13.4-23.22-17.02-72.83-55.65-171.07-69.11-259.82-53.18l13.02-47.96,46.42-27.65,74.56,11.63Z"/>
  <path class="st0" d="M1952.02,652.01c8.28-5.67,23.81,30.45,33.96,29.98-.02-2.94,1.28-5.7,1.26-8.64-.4-42.91-3.08-65.14,8.9-108.2,2.37-8.52,13.03-31.82,13.27-36.46.49-9.48-25.32-50.54-19.41-56.68,19.28,4.29,40.83,9.37,59.52,15.46,5.23,1.7,33.83,11.95,35.6,14.41,4.06,5.63-10.27,15.46-13.97,20.29-56.44,73.76-74.09,171.24-56.14,261.84l-5.11,1.14c-15.2-8.11-36.71-3.27-47.59-18.48-2.82-3.95-19.94-34.94-21.22-38.77-5.67-16.99,9.88-56.77,10.91-75.89Z"/>
  <path class="st0" d="M745.99,1577.99c-12.7-3.49-96-24.37-97.99-33.03,6.58-9.4,14.78-17.01,21.64-26.33,52.96-71.99,66.14-167.91,50.38-254.62l47.04,11.94,29.01,49.15-14.02,71.94c-3.37,2.61-7.84-3.63-10.09-5.99-7.14-7.48-11.56-17.56-19.95-24.07-1.34-1.88-3.41,1.11-3.73,2.29-4.09,15.15,2.66,42.73,1.46,59.48-1.37,19.23-8.66,48.88-14.3,67.69-2.18,7.26-9.46,18.86-9.51,24.53-.1,10.36,24.81,51.77,20.07,57.03Z"/>
  <path class="st0" d="M1655.99,399.97c-20.27,4.65-29.81,25.32-52.1,21.12-4.8-.9-43.93-12.69-45.8-14.18l-40.1-59.86c1.97-10.09,46.85,8.72,43.99-4.01-9.06-8.94-17.84-18.18-26.98-27.04-9.75-9.44-14.31-11.47-23.78-24.22-16.18-21.76-31.05-46.16-40.29-71.71-2.67-4.55-60.08-21.3-54.92-28.05,21.43-9.02,40.7-23.48,61.57-33.45,5.51-2.63,26.25-12.85,30.56-9.73,3.65,8.33,1.22,18.2,2.42,27.6,9.62,75.5,56.32,148.19,113.42,196.58,8.4,7.12,23.23,15.46,29.92,22.08,1.68,1.66,2.81,1.84,2.1,4.86Z"/>
  <path class="st0" d="M1174.01,1702.01c-.57,3.11.31,4.63,1.9,7.09,8.13,12.55,30.43,26.78,41.12,38.88,19.26,21.8,35.88,54.27,46.85,81.15,13.63,8.88,34.38,11.72,47.5,20.5,3,2,7.35,3.81,6.61,8.36-13.11,3.45-82.05,48.2-90.02,43.19-6.41-4.03-1.55-13.82-2.12-19.84-7.45-77.96-55.39-154.43-113.82-204.36-4.7-4.02-31.07-22.32-31.85-24.15-.55-1.29-1.03-4.7,1.03-4.97l41.91-21.79,52.83,14.99,42,59.96c.05,7.91-41.28-1.59-43.95,1.01Z"/>
  <path class="st0" d="M1377.59,520.59c58.56-.73,114.63,20.84,171.13,33.68,13.03,5.94,2.13,25-3.11,34.33-3.7,6.59-10.34,19.64-19.13,16.1-97.56-50.74-216.09-66.69-307.42,5.35-4.65,3.67-8.43,9.71-13.25,12.75-1.97,1.24-7.19,4.19-8.87,1.27-3.97-38.5,8.8-51.34,39.72-68.42,43.96-24.28,90.79-34.44,140.93-35.07Z"/>
  <path class="st0" d="M1778.54,843.46c-28.22-85.76-81.14-170.05-168.57-204.43-26-10.22-52.59-11.82-79.96-15.06-3.56-5.29,18.79-21.07,23.34-23.63,19.37-10.89,33.18-5.37,53.08.22,54.87,15.39,100.75,47.51,138.6,89.4,34.07,37.71,56.35,89.42,84.13,132.01,3.09,15.48-43.71,27.12-50.62,21.48Z"/>
  <path class="st0" d="M1167.34,562.52c11.99-.37,24.1,40.65,19.68,49.52-1.47,2.94-51.97,21.67-60.37,25.61-73.59,34.53-146.89,104.78-156.41,189.59-.84,7.48,2.75,33.33-5.48,34.65-33.27-23.7-30.33-47.83-19.34-83.47,31.12-100.86,121.62-166.38,211.92-212.06,2.66-1.35,7.25-3.76,10-3.85Z"/>
  <path class="st0" d="M943.58,1204.53c5.39-.54,9.96-1.96,13.39,3.5,13.12,31.98,25.22,65.06,43.42,94.58,35.92,58.28,102.74,111.6,172.65,119.35,6.83.76,39.45-3.76,29.12,11.16-2.15,3.11-24.08,18.36-28.13,19.88-16.89,6.34-48.04-4.8-65.06-10.97-101.99-36.98-150.34-121.47-201.42-210.56-9.15-16.14,24.58-25.79,36.04-26.94Z"/>
  <path class="st0" d="M1768.5,863.54c-5.34-14.1,10.44-10.65,20.26-9.29,29.31,4.09,39,21.65,51.6,46.39,49.9,98.01,30.09,194.89.65,295.37-5.59,19.08-7.73,18.43-26.05,12.03-7.38-2.58-26.25-12.02-28-19.82,16.31-44.17,39.59-89.39,43.01-137.25,4.8-67.26-9.44-141.09-61.47-187.43Z"/>
  <path class="st0" d="M1769.06,1188.01c7.81-2.32,27.15,28.26,28.47,35.45,4.56,24.93-21.79,85.37-35.18,107.89-37.84,63.66-116.03,115.67-181.01,148.99-5.32,2.73-13.49,8.34-19.36,4.71-6.28-3.88-18.64-40.46-13.78-47.81,2.81-4.24,41.86-17.54,50.53-21.52,55.78-25.62,101.98-58.14,134.9-111.1,25.72-41.36,26.99-62.92,32.28-109.72.27-2.35.46-6.09,3.16-6.89Z"/>
  <path class="st0" d="M1537.99,1423.99c3.75,41.93-11.79,55.64-45.9,73.1-96.19,49.22-202.91,31.39-301.69-.54-6.01-1.94-9.89-2.22-10.31-9.73-.55-9.77,14.22-42.17,25.07-42.8,3.84-.22,53.76,22.6,63.81,26.01,76.42,25.97,168.26,27.16,235.67-22.41,6.35-4.67,22.1-21.01,25.41-22.59,2.65-1.26,5.13-1.27,7.95-1.05Z"/>
  <path class="st0" d="M905.29,836.5c8.03-.79,41.82,15.72,42.73,24.55.46,4.51-20.64,50.3-24.06,59.91-29.19,82.14-30.05,173.95,24.08,245.99,3.87,5.15,21.57,20.46,19.94,25.99-2.02,6.87-35.12-.12-41.11-2.82-24.86-11.18-53.9-89.17-58.33-115.67-2.36-14.1-4.11-33.11-4.62-47.38-1.77-49.05,14.64-132.05,31.53-178.63,1.81-4.98,3.4-11.32,9.84-11.95Z"/>
  <path class="st0" d="M437.99,821.99c-9.16,1.4-18.96-1.17-27.56-1.48-3.27-.12-4.07-.96-6.39,2.49,21.22,18.69,30.17,43.05,43.62,66.34,6.52,11.29,14.34,22.1,20.69,33.31,5.69,10.06,10.91,27.33,16.77,35.23,6.72,9.06,40.95,24.31,40.97,31.11-.11,2.98-2.01,4.37-4.22,5.88-11.84,8.06-30.46,14.93-43.2,22.79-11.35,7-22.76,14.24-31.66,24.3-2.06-1.4-2.5-2.65-2.96-5-8.7-45.06-9.58-89.33-27.68-132.32-11.19-26.57-63.32-105.6-64.44-123.56-.45-7.11,1.93-13.08,1.88-18.29-.07-8.11-3.56-17.88-1.78-26.79.68-.92,17.38,9.84,20.01,10.97,10.54,4.51,27.56,5.96,33.66,14.34l32.3,60.68Z"/>
  <path class="st0" d="M1383.99,1947.99c-20.62,1.99-42.09,4.76-62.66,8.34-74.18,12.92-124.7,43.53-187.68,82.32l-53.64,1.33c9.74-17.3,13.68-37.35,23.25-53.73l62.73-32.25-1,33.98c22.89-23.11,50.78-34.16,78.36-49.64,11.71-6.58,22.25-14.94,34.58-21.42,6.77-3.56,18.74-5.95,24.04-9.96,7.9-5.97,21.62-38.94,27.92-40.21,2.15-.43,3.53-.87,5.2,1.03l48.9,80.2Z"/>
  <path class="st0" d="M1653.99,8.01l-20.08,52.9-62.92,35.08c-1.56-6.65-1.32-14.25-1.08-21.08.12-3.49,4.78-14.56-.87-12.88-3.74,1.12-28.42,22.7-36.43,27.58-20.44,12.47-45.29,25.52-66.57,37.43-8.84,4.94-26.4,10.44-32.76,15.24-7.17,5.41-23.61,38.78-26.71,39.75-1.61.5-6.9.45-8.25-.37-14.3-27.01-26.99-56.47-48.31-78.67,36.21-8.85,74.53-9.09,110.43-19.55,23.2-6.76,50.12-20.87,71.61-32.39,15.4-8.26,55.12-36.75,67.89-40.11,15.01-3.95,37.72,1.28,54.06-2.92Z"/>
  <path class="st0" d="M2032,1664.02c-16.34,25.38-37.26,48.06-53.63,73.35-32.82,50.69-42.97,111.71-58.81,169.19l-36.56,39.4-22.42-52.65,19.44-67.3c6.6-2.16,22.34,26.32,25.97,21.98-.57-33.42,12.43-62.69,21.03-93.97,2.51-9.13,3.42-18.76,5.99-28.01,4.21-15.12,12.18-24.21,10.73-40.78-1-11.53-16.4-42.69,1.03-41.17,13.68,1.2,37.84,11.9,52.81,15.35,11.24,2.59,22.83,5.12,34.41,4.61Z"/>
  <path class="st0" d="M2289.99,1008.01l17.49,105.51c6.79,22.56,16.66,43.7,27.48,64.52,9.57,18.41,41.82,63.4,46.13,77.87,4.32,14.49-1.66,39.82,2.9,56.08-1.61,1.69-21.21-9.8-25.47-11.51-7.1-2.86-17.15-3.91-23.07-6.93-12.07-6.15-26.76-53.2-39.41-64.55-.04-4.94,23.8-.59,29-1.01,2.97-.24,5.78,1.58,4.94-2.97-22.48-20.81-32.94-48.51-47.64-74.37-7.44-13.09-16.2-25.3-23.42-38.58-3.46-6.36-4.92-15.44-8.91-21.09-6.66-9.43-37.81-21.93-39.74-28.37-.84-2.81-.72-5.68,1.71-7.65,20.74-12.34,45.92-22.5,64.97-37.02,2.19-1.67,10.87-12.47,13.03-9.95Z"/>
  <path class="st0" d="M853.98,104.01c3.14,19.23,15.33,35,19.97,52.75l-18.91,65.28c-2.55,3.17-2.02,1.3-4.04-.03-7.34-4.82-12.02-15.48-19-21.03l-3.73,2.29c1.13,31.61-11.49,60.54-19.7,90.3-2.26,8.2-2.94,16.94-5.16,24.84-2.68,9.54-12.83,29.66-13.33,36.82-.74,10.66,11.87,41.68,7.82,47.51-1.78,2.55-3.06,3.88-6.38,2.95-28.79-7.5-57.32-20.6-87.51-19.7l58.83-84.15c13.37-23.14,22.32-48.34,30.15-73.85,7.15-23.3,13.3-66.16,22.58-85.42,1.41-2.94,28.27-31.84,32.37-35.63,1.96-1.82,2.83-3.66,6.04-2.93Z"/>
  <path class="st0" d="M2288,511.98c-17.53,1.9-32.9,10.72-47.96,19.12l-72.04-19.12c-1.01-3.88,1.58-3.86,3.34-5.63,1.82-1.82,23.22-18.59,20.64-20.34-32.09.71-59.62-11.18-89.57-19.45-9.21-2.55-18.82-3.44-28-6-15.38-4.29-29.71-13.68-45.19-12.32-10.32.9-45.89,16.65-42.86-.75,3.64-20.96,15.64-44.6,19.11-67.01.96-6.15.43-12.32.52-18.48l5.99.99c51.73,43.5,96.81,70.88,162.01,89.99,20.13,5.9,56.56,10.99,73.46,18.54,5.89,2.63,16.81,16.24,22.5,21.5,3.64,3.36,22.02,14.12,18.03,18.95Z"/>
  <path class="st0" d="M566.01,1536.01c.52,3.53.1,4.38-2.09,6.91-3.54,4.08-14.91,12.68-19.91,15.12.14,9.4,12.43,5.11,18.96,5.99,30.12,4.03,70.41,16.89,100.55,25.45,9.38,2.67,26.36,11.63,33.67,12.48,8.91,1.04,47.41-12.6,50.68-7.84l-19.89,93.87c-3.09.86-3.34-.86-5-1.98-61.2-41.46-82.18-65.83-157.46-88.54-21.96-6.62-59.24-11.77-78.01-19.99-6.03-2.64-17.55-17.11-23.5-22.5-3.18-2.88-20.78-13.15-18.02-16.95,18.67-3.12,33.98-12.94,51.04-20.18l68.96,18.16Z"/>
  <path class="st0" d="M377.54,644.51c16.57-2.15,73.14,22.58,95.2,27.75,31.85,7.45,65.33,9.3,97.71,3.19,6.76-1.27,28.69-10.04,32.16-9.18,6.71,1.67,11.17,24.17,15.11,30.46-1.49,7.88-41.21,20.02-49.7,22.29-28.56,7.64-54.73,13.73-84.05,8-19.04-3.72-81.95-24.82-95.9-36.1-2.23-1.8-23.33-34.28-23.78-36.41-1.53-7.26,8.01-9.32,13.25-10Z"/>
  <path class="st0" d="M1743.77,22.24c.65.42,3.96,13.12,4.11,15.04,1.08,14.69-18.33,56.82-23.3,74.28-11.22,39.37-15.32,74.02-7.98,114.84,1.56,8.68,9.45,26.77,8.99,32.19-.68,8.15-24.85,13.93-32.24,15.2-6.28-2.02-17.46-38.85-19.6-46.55-5.95-21.48-13.79-53.93-11.18-75.7,2.47-20.62,24.56-84.95,35.77-102.23,3.48-5.36,29.74-23.65,35.75-26.24,3.14-1.35,6.38-1.78,9.69-.85Z"/>
  <path class="st0" d="M2341.85,578.15c1.06,3.45-.28,6.02-1.71,9.01-8.61,17.99-53.17,32.63-71.48,42.51-38.4,20.72-70.57,46.62-94.27,83.73-2.89,4.52-9.31,21.12-11.76,22.75-7.61,5.06-24.74-8.43-33.8-10.07-6.18-8.79,30.99-69.42,38.33-79.91,10.04-14.34,19.36-25.92,34.19-35.81,17.06-11.38,83.12-43.8,101.09-41.88,11.59,1.24,26.95,8.59,39.41,9.67Z"/>
  <path class="st0" d="M605.76,1322.24c1.2,3.94-.26,7.62-1.18,11.36-6.21,25.46-43.06,84.24-63.93,100.06-16.34,12.39-88.16,48.38-106.34,47.02-12.22-.91-26.99-8.59-40.13-8.84-.81-3.88-.2-7.71,1.34-11.33,6.28-14.77,59.16-34.81,75.83-44.16,38.02-21.32,69.74-47.9,92.31-85.69,2.07-3.47,6.25-16.8,8.73-18.26,6.84-4.01,25.48,8.83,33.37,9.84Z"/>
  <path class="st0" d="M923.32,50.17c2.4-.69,4.05.54,6.09,1.37,18.43,7.56,34.07,55.21,44.25,73.79,18.79,34.29,40.64,62.38,72.51,85.49,5.67,4.11,32.02,17.46,32.85,19.17,2.59,5.29-7.31,30.78-11.03,33.12-5.11,3.22-35.86-11.86-42.61-15.51-43.66-23.59-69.21-45.78-91.14-90.86-8.5-17.47-24.33-52.94-21.76-71.29.78-5.6,7.16-34.24,10.84-35.29Z"/>
  <path class="st0" d="M1667.28,1786.2c4.58-1.6,17.94,4.17,23.25,6.27,24.99,9.85,72.33,40.34,88.33,61.67,10.92,14.55,41.95,78.56,44.67,95.35,2.15,13.24-7.61,33.64-9.39,47.66-6.4,4.66-16.87-4.4-21-9.3-11.61-13.77-24.53-50.96-34.81-69.19-25.35-44.93-57.26-76.99-103.45-100.69-2.46-4.85,10.23-31.02,12.39-31.77Z"/>
  <path class="st0" d="M1010.33,1786.31l30.36-12.15c5.86,1.7,18.6,39.78,20.72,47.42,6.33,22.78,12.93,54.01,10.56,77.4-1.98,19.62-25.11,85.61-36.31,101.69-3.5,5.03-36.3,27.45-40.75,27.38-2.98-.05-3.28-1.23-4.56-3.41-10.3-17.52,12.84-63.04,18.64-82.65,13.32-45.05,17.61-82.66,7.32-129.3-1.93-8.76-8.67-16.78-5.98-26.38Z"/>
  <path class="st0" d="M2209.51,1320.51c37.25-4.36,96.98,14.98,129.84,33.14,15.8,8.73,22.3,29.31,31.78,44.4-2.36,2.43-5.17,4.76-8.55,5.53-19.26,4.38-63.23-16.67-84.58-22.57-41.23-11.39-77.61-15.11-120.06-6.07-7.84,1.67-20.67,9.8-27.95,6.12-3.04-1.53-12.66-26.26-11.72-29.63,1.78-6.39,29.03-15.73,36.21-17.94,14.44-4.45,40.47-11.26,55.03-12.97Z"/>
  <path class="st0" d="M2217.93,545.9c-4.58,1.17-9.26,3.29-13.27,5.76-35.23,21.68-76.03,69.49-92.37,107.62-6.33,14.76-9.9,30.4-14.25,45.78-1.34,1.05-17.74-5.57-21.51-6.58-10.6-2.84-16.57,3.36-16.69-13.5-.36-50.7,38.91-117.25,77.12-149.03,8.27-6.88,12.52-10.64,23.99-9.98,5.2.3,48.31,10.01,52.23,11.85,4.27,2,5.68,2.56,4.76,8.08Z"/>
  <path class="st0" d="M1686,1755.98c2.23-7.85,5.34-15.6,7.53-23.46,2.27-8.17-2.85-16.07,11.51-16.64,13.17-.52,54.18,11.11,67.49,16.59,24.78,10.2,60.23,35.95,78.55,55.45,9.75,10.37,16.17,17.91,14.39,32.58-.69,5.7-10.81,51.31-12.53,53.45-2.78,3.47-3.17,2.43-6.01.12-3.86-3.13-8.57-15.96-12.47-21.53-32.53-46.42-91.9-87.92-148.47-96.56Z"/>
  <path class="st0" d="M516.01,1509.98c-3.52-4.77,26.33-20.3,30.93-24.04,18.91-15.37,40.74-39.26,54.69-59.31,17.38-24.97,29.46-52.44,34.46-82.58,2.39-1.67,19.58,6.09,23.89,7.16,7.58,1.89,16.7-3.81,15.89,13.47-1.21,25.97-15.75,66.64-29.03,89.15-9.52,16.14-48.49,67.59-66.36,69.8-13.79,1.7-48.22-13.59-64.47-13.66Z"/>
  <path class="st0" d="M623.34,734.21c4.62-.42,10.41,15.89,12.99,20.47,5.43,9.65,13.72,8.27.76,21.4-16.41,16.63-57.51,36.04-80.23,41.77-20.8,5.25-80.13,14.37-97.62,3.92-3.35-2-35.3-51.6-35.24-54.87l3.14-4.83c58.55,19.47,130.47,9.74,184.26-19.68,3.53-1.93,8.72-7.89,11.95-8.18Z"/>
  <path class="st0" d="M1657.92,283.91c-7.18,2.76-15.87,6.23-22.46,10.04-3.64,2.11-1.56,7.92-12.38,6.05-6.28-1.09-24.6-30.22-28.69-37.38-9.37-16.4-17.1-34.14-21.4-52.6-4.58-19.68-12.09-74.93-3.89-91.9,5.26-10.88,45.5-27.83,56.19-37.87l4.6,2.87c-18.6,57.84-10.73,126.95,17.35,180.65,2.24,4.29,12.65,17.27,10.67,20.16Z"/>
  <path class="st0" d="M1048,292.01c1.7,1.55-6.06,22.13-7.05,25.94-2.17,8.36,4.45,13.74-11.93,14.2-24.68.69-67.53-14.74-89.06-27.1-16.15-9.27-66.75-48.14-71.07-65.01-3.41-13.33,12.5-50.03,13.13-66.02,6.5-4.37,12.81,14.47,15.92,19.04,31.5,46.26,93.49,92.62,150.05,98.96Z"/>
  <path class="st0" d="M1106.01,1967.99c.92-14.18,6.98-26.38,8.07-40.91,4.09-54.67-5.47-115.18-38.1-160.05,5.87-3.54,12.85-5.72,18.7-9.35,9.14-5.68,11.71-17.26,24.21-3.55,37.3,40.93,54.3,110.7,49.2,164.96-.85,9.01-2.07,12.99-9.08,18.92-4.24,3.58-40.71,27.14-45.09,28.91-2.68,1.09-5.03,1.46-7.9,1.08Z"/>
  <path class="st0" d="M2213.6,1224.6c13.78-1.22,38.13-2.24,51.45-.65,6.07.73,11.91,3.55,15.87,8.13,4.13,4.76,26.24,40.49,29.21,46.8,6.51,13.8-15.58,2.89-20.06,2.06-60.75-11.28-128.33.55-180.11,34.17-4.23-6.16-6.61-13.32-10.28-19.78-5.41-9.52-14.54-9.74-1.7-22.34,25.62-25.16,80.19-45.24,115.62-48.38Z"/>
  <path class="st0" d="M1091.99,1158.01c-16.83,44.81-29.93,91.93-25.47,140.48l18.5,55.5c-24.1-21.89-43.68-48.17-59.35-76.65-7.85-14.28-33.59-67.8-26.68-81.36,1.72-3.37,30.38-11.67,32.78-7.71.46,11.49.76,27.5,10.22,35.73,3.77-16.39,2.76-46.53,19.48-55.54,2.95-1.59,29.43-11.64,30.52-10.45Z"/>
  <path class="st0" d="M1695.98,1306c.77,3.58-1.9,4.85-3.93,7.05-27.65,29.92-86.25,66.19-125.61,76.39-6.62,1.71-23.19,7.15-28.51,3.64-2.14-1.42-8.99-28.57-7.07-31.2l17.26-2.77,19.89-9.08c-14.11-3.31-48.13-3.9-55.52-17.49-4.72-8.68-8.34-23.1-12.47-32.51,63.73,23.06,132.93,41.94,195.98,5.98Z"/>
  <path class="st0" d="M996.02,936c11.33-7.44,32.07-26.5,45.49-27.64,3.91-.33,21.17,7.09,25.83,9.29,2.34,1.1,12.17,4.23,10.64,7.32-45.99,20.63-104.45,51.23-127.74,98.27-5.47,11.05-7.6,26.04-16.22,34.76.36-39.97,6.06-79.84,19.41-117.57,3.68-10.41,22.7-53.29,32.34-55.45,4.04-.9,28.81,13.78,28.09,17.76-8.28,9.09-17.67,20.44-17.84,33.26Z"/>
  <path class="st0" d="M1704.25,861.75c-4.03-12.61-.29-28.61-12.23-37.75-1.13,16.12-2.91,47.88-18.61,56.4-2.5,1.36-30.24,12.8-31.39,11.59,4.02-13.81,10.41-26.61,14.52-40.46,9.75-32.86,17.59-75.62,10.16-109.21-3.63-16.37-12.72-30.19-16.66-46.32,36.94,33.69,75.49,90.21,85.04,139.92,5.2,27.06-8.51,21.53-30.81,25.83Z"/>
  <path class="st0" d="M1269.99,1314.01c11.24,35.12,35.29,75.28,60.99,102.02,20.65,21.49,39.14,25.69,64.65,37.44,2.84,1.31,5.45-1.18,4.37,4.53-51.65-1.2-112.16-10.58-156.59-38.39-26.02-16.28-12.25-19.98-.2-41.47,5-1.19,24.82,22.14,34.8,17.84-8.35-15.75-29.11-32.83-25.12-52.09.77-3.72,9.32-23.79,11.43-26.58,1.72-2.27,2.12-4.08,5.67-3.31Z"/>
  <path class="st0" d="M1739.99,1114.01l-43.15,25.9c-4.67,2.76-41.76-12.91-40.83-14.9,17.05-8.28,34.29-15.61,50.61-25.39,25.44-15.25,56.78-38.37,72.22-63.78l21.14-43.83c1.15,58.74-12.31,125.32-49.39,171.73-5,1.43-28.72-11.46-28.67-16.74.05-4.48,20.04-23.89,18.07-32.99Z"/>
  <path class="st0" d="M1197.53,656.46l7.62,29.56c-10.36,6.31-23.03,3.24-34.6,9.51-2.35,1.27-3.36-.04-2.54,4.47,14.49,1.49,46.71,3.28,54.4,16.61,2,3.46,12.93,32,11.59,33.39-34.58-14.05-75.21-26.6-112.91-28.07-32.26-1.26-53.67,10.27-83.08,20.06,32.82-34.31,78.73-66.49,124.47-80.51,6.72-2.06,30.61-9.78,35.06-5.01Z"/>
  <path class="st0" d="M1456,652.02c6.46,12.55,26.25,31.48,27.59,45.46.64,6.7-11.35,33.53-17.56,38.52-15.4-44.94-44.21-88.04-80.15-118.87l-51.86-25.11c36.03-1.98,71.71,4.33,105.98,14.99,13.32,4.14,62.09,23.04,67.1,35.06,1.54,3.69-11.97,27.7-16.15,28.08-5.55.51-24.31-20.46-34.95-18.13Z"/>
  <path class="st0" d="M1778.01,22.01c2.57-2.68,18.08,16.43,19.95,19.03,14.8,20.65,18.4,36.33,13.49,61.4-8.86,45.25-38.26,90.17-78.47,113.03-7.04-3.33-4.19-11.24-5.86-17.58-1.88-7.12-4.67-13.48-6.86-20.43,26.24-33.71,61.76-56.04,57.82-104.54-.69-8.5-6.25-19.67-5.98-25.76.32-6.99,7.21-16.94,5.92-25.16Z"/>
  <path class="st0" d="M557.95,661.93c-6.94,2.26-14.16,2.03-21.26,3.77-11.61,2.84-13.67,10.51-25.73.33-4.23-3.56-6.51-9.11-10.9-13.1-24.59-22.32-49.97-42.28-85.15-39.02-8.67.8-17.72,6.03-25.42,5.61-6.91-.38-14.8-5.91-22.23-5.55-2.14.33-1.6-3.94-1.19-4.89.71-1.63,24.9-20.19,28.05-21.95,37.84-21.24,101.69,5.27,131.67,32.08,5.86,5.24,36.19,36.79,32.16,42.73Z"/>
  <path class="st0" d="M537.99,1338.02c2.22,3.21-9.58,16.82-12.06,20.91-5.34,8.83-1.17,15.5-14.91,17.09-39.66,4.6-78.99-5.8-107.86,32.14-5.15,6.76-8.06,16.7-14.15,21.85-1.94,1.64-22.08,13.03-23.02,11.96.23-37.27,6.74-61.57,39.38-81.6,40.12-24.61,86.5-33.56,132.6-22.37Z"/>
  <path class="st0" d="M2369.99,608.01c-3.57,34.5-4.99,56.96-35.37,77.61-40.18,27.31-88.98,36.1-136.54,26.29-1.26-8.14,6.27-13.56,10.28-20.55,5.16-8.98,3.37-18.47,16.89-19.28,5.59-.34,11.26,2.34,17.78,2.07,31.98-1.32,65.37-5.5,87.02-31.11,5.72-6.76,10.31-18.85,14.9-23.1,2.48-2.29,23.18-13.74,25.04-11.94Z"/>
  <path class="st0" d="M955.98,2025.99c-3.5.7-4.93-1.81-7.01-3.96-36.41-37.72-32.03-71.99-11.32-117.38,9.81-21.49,28.18-44.62,46.32-59.68,23.35-19.38,19.3-11.86,25.01,11.04,1.57,6.31,6.64,11.85,4.68,18.55-.72,2.45-29.22,30.74-34.46,37.65-13.35,17.62-24.39,35.76-23.28,58.86.51,10.71,6.7,22.29,6.17,31.87-.4,7.19-5.44,15.56-6.12,23.05Z"/>
  <path class="st0" d="M2369.99,1436.02c.77,3.36-1.09,4.04-3.03,5.94-24.92,24.45-48.28,32.96-82.98,25.06-44.46-10.13-85.59-38.21-107.99-77.98.64-3.1,19.28-4.9,24-6.05,9.48-2.31,12.44-10.42,24.1-.08,18.99,16.83,31.3,35.85,57.39,46.61,33.01,13.62,38.92-.51,63.47.38,7.15.26,17.21,5.77,25.04,6.12Z"/>
  <path class="st0" d="M1783.99,2025.99c-34.72.13-60.38-6.96-79.59-37.39-24.15-38.26-32.97-80.47-26.27-125.48,2.73-18.35,12.7-3.15,19.21.55,5.29,3.01,16.74,6.29,19.58,10.41,5.98,8.66.55,17.64.93,26.95,1,24.23,5.67,57.57,21.11,77.01,13.67,17.21,41.78,20.99,45.04,47.94Z"/>
  <path class="st0" d="M953.1,22.11c19.76,3.92,38.15,2.38,55.57,14.22,24.5,16.65,46.93,69.7,49.3,98.7.8,9.82,2.19,56.19-5.93,60.1l-35-21.17c-2.67-35.47,2.39-79.43-24.98-107.02-9.03-9.1-22.61-13.04-30.06-21.94-4.26-5.08-6.73-13.22-11.83-18.22l2.93-4.66Z"/>
</svg>