<?xml version="1.0" encoding="UTF-8"?>
<svg id="Layer_0_xA0_Image" xmlns="http://www.w3.org/2000/svg" version="1.1" viewBox="0 0 2732 2048">
  <!-- Generator: Adobe Illustrator 30.2.1, SVG Export Plug-In . SVG Version: 2.1.1 Build 1)  -->
  <defs>
    <style>
      .st0 {
        fill: #c8bfb3;
      }
    </style>
  </defs>
  <path class="st0" d="M1576,0q11.51,4.33,15.79,17.93c6.91,21.91,13.7,43.86,20.88,65.69,1.75,5.34,1.12,8.87-2.7,13.37-34.89,41.19-69.4,82.7-104.12,124.04-2.79,3.32-3.95,6.28-2.78,10.81,6.08,23.52,11.77,47.14,17.93,72.08,2.52-2.17,4.56-3.56,6.15-5.34,15.1-16.89,30.11-33.87,45.2-50.78,2.38-2.66,5.02-5.09,8.45-8.54,2.04,2.93,3.99,4.75,4.77,6.98,9.13,26.09,17.98,52.27,27.19,78.33,1.73,4.89.33,8.19-2.71,11.74-12.79,14.93-25.39,30.02-38.19,44.95-5.85,6.83-6.24,6.82-13.69.82-32.96-26.55-65.87-53.15-98.79-79.74-10.63-8.58-21.18-17.27-31.92-25.71-4.05-3.18-6.77-6.83-8.57-11.8-5.67-15.65-12.02-31.06-17.87-46.64-1.53-4.07-3.5-6.77-8.08-7.72-21.84-4.55-43.63-9.36-65.44-14.01-.85-.18-1.85.29-3.54.59,8.05,27.49,18.74,53.84,26.69,82.47-4.58,0-7.5.44-10.25-.07-26.53-4.87-52.99-10.13-79.56-14.73-6.26-1.08-9.13-3.86-10.74-9.73-6.94-25.37-14.09-50.69-21.45-75.94-1.36-4.68-1-8.08,2.44-11.73,17.82-18.92,35.51-37.97,53.06-57.14,3.39-3.7,6.53-3.97,11.4-3.05,52.69,9.9,105.46,19.37,158.19,29.06,4.48.82,8.03.9,11.56-3.02,15.15-16.85,30.66-33.38,46-50.05.65-.71,1.02-1.67,2.3-3.84-5.58-1.1-10.58-2.18-15.62-3.05-20.67-3.58-41.35-7.07-62.02-10.64-6.12-1.06-7.09-3.74-3.1-8.57C1448.57,37.99,1464.29,19,1480,0c32,0,64,0,96,0Z"/>
  <path class="st0" d="M1156,2048c-6.83-.82-9.46-4.81-11.37-11.43-6.75-23.34-14.33-46.44-21.91-69.53-2.03-6.18-1.7-10.45,3.01-15.97,34.58-40.55,68.58-81.61,102.84-122.44,2.71-3.23,4.59-6.24,3.43-10.75-5.93-23.22-11.69-46.48-17.54-69.72-.15-.62-.65-1.15-1.42-2.45-1.98,1.81-3.98,3.34-5.64,5.2-14.65,16.4-29.23,32.85-43.84,49.29-1.11,1.25-2.18,2.52-3.33,3.72-6.14,6.41-8.38,6.02-11.43-2.68-8.83-25.12-17.42-50.33-26.21-75.47-1.68-4.8-1.42-8.81,2.12-12.9,13.3-15.36,26.33-30.96,39.55-46.39,1.44-1.68,3.44-2.89,5.57-4.63,2.95,2.19,5.65,4.05,8.2,6.11,42.78,34.52,85.5,69.1,128.35,103.53,4.84,3.89,8.11,8.25,10.22,14.2,5.35,15.05,11.63,29.77,17.12,44.77,1.82,4.97,4.55,7.32,9.77,8.38,19.9,4.04,39.69,8.58,59.55,12.85,2.16.46,4.44.37,7.92.62-1.28-4.39-2.16-7.82-3.27-11.16-6.63-19.9-13.32-39.77-19.99-59.65-.64-1.89-1.44-3.75-1.88-5.69-1.27-5.67.23-7.5,6.13-6.53,12.81,2.11,25.56,4.57,38.33,6.93,14.41,2.66,28.77,5.58,43.22,7.92,6.4,1.04,9.69,3.83,11.43,10.33,6.88,25.72,14.22,51.33,21.74,76.87,1.24,4.2.42,6.89-2.32,9.82-18.19,19.48-36.32,39.01-54.42,58.57-2.48,2.68-4.94,3.39-8.79,2.67-53.01-9.93-106.09-19.5-159.08-29.5-6.04-1.14-9.87.12-13.88,4.6-13.56,15.14-27.5,29.93-41.26,44.88-1.75,1.9-3.32,3.97-6.11,7.32,10.95,2.07,20.55,3.96,30.18,5.7,15.4,2.78,30.83,5.41,46.21,8.27,2.38.44,4.59,1.82,6.88,2.76-1.03,2.26-1.65,4.85-3.17,6.72-14.88,18.36-29.91,36.6-44.9,54.87h-100Z"/>
  <path class="st0" d="M2170,0c2.2,2.88,4.2,5.94,6.62,8.62,15.42,17.06,30.81,34.15,46.5,50.97,4.12,4.42,4.97,8.26,3.06,14.21-16.6,51.67-32.79,103.48-49.1,155.24-.99,3.15-1.87,6.34-3,10.21,17.96,19.38,36,38.85,54.88,59.23,1.4-4.08,2.43-6.76,3.25-9.5,5.87-19.79,11.78-39.57,17.48-59.41,1.45-5.03,3.22-9.43,10.28-11.42,20.23,22.93,40.46,46.59,59.84,69.08-2.59,7.57-4.89,13.38-6.57,19.36-5.94,21.15-11.77,42.32-17.36,63.56-1.05,3.98-3.37,5.28-6.88,6.02-20.2,4.26-40.41,8.46-60.54,13.02-4.71,1.07-6.74-1.77-9.14-4.43-14.74-16.32-29.44-32.69-44.15-49.05-40.55-45.11-81.11-90.22-121.61-135.38-2.99-3.34-5.55-7.06-9.07-11.58,3.49-1.38,5.44-2.43,7.53-2.92,14.91-3.5,29.85-6.87,44.77-10.32,3.9-.9,7.42-1.76,9.02-6.54,8.49-25.25,17.31-50.38,25.99-75.57.2-.59.03-1.32.03-2.85-2.14.31-4.29.38-6.29.96-22.06,6.41-44.1,12.9-66.15,19.36-2.56.75-5.1,1.73-7.71,2.05-4.45.56-7.01-2-6.55-6.44.24-2.29,1.05-4.54,1.71-6.77,7.68-25.85,15.63-51.63,22.88-77.6,1.56-5.6,5.16-6.34,9.34-7.23,17.59-3.74,35.21-7.29,52.79-11.09,4.13-.9,8.11-2.52,12.16-3.8,8.67,0,17.33,0,26,0Z"/>
  <path class="st0" d="M564,2048c-1.85-2.64-3.44-5.52-5.59-7.9-15.17-16.82-30.31-33.67-45.81-50.19-4.43-4.72-5.31-8.8-3.29-15.11,16.67-51.98,32.79-104.14,49.44-156.12,2.12-6.63,1.12-10.9-3.66-15.84-14.35-14.84-28.17-30.2-42.24-45.32-1.97-2.12-4.15-4.04-7.11-6.89-1.44,3.99-2.68,6.94-3.58,9.99-5.75,19.47-11.45,38.96-17.12,58.45-1.42,4.87-2.82,9.66-9.77,11.08-1.94-1.98-4.33-4.18-6.45-6.62-16.16-18.62-32.18-37.34-48.43-55.88-3.83-4.37-6.58-7.97-1.88-13.73,2.14-2.62,2.35-6.84,3.34-10.36,6.37-22.72,12.71-45.44,19.28-68.93,3.54-.86,7.34-1.9,11.19-2.72,16.28-3.47,32.71-6.33,48.79-10.55,7.82-2.06,12.13.41,17.03,5.93,30.52,34.38,61.34,68.48,92.06,102.68,24.04,26.76,48.12,53.49,72.1,80.31,2.51,2.81,4.5,6.09,7.59,10.33-4.29,1.34-6.96,2.36-9.71,3.01-14.58,3.44-29.16,6.88-43.79,10.08-3.56.78-5.97,2.02-7.24,5.73-8.83,25.82-17.82,51.59-26.72,77.39-.17.51.24,1.22.57,2.65,3.05-.75,6.17-1.38,9.22-2.28,21.07-6.21,42.12-12.48,63.19-18.72,2.55-.76,5.09-1.73,7.71-2.06,4.38-.56,7.03,2.16,6.39,6.56-.38,2.61-1.37,5.14-2.13,7.69-7.42,24.88-15.05,49.7-22.13,74.67-1.51,5.33-4.12,7.59-9.28,8.61-19.26,3.82-38.46,7.95-57.67,12.05-1.51.32-2.87,1.32-4.3,2.01h-30Z"/>
  <path class="st0" d="M0,906c3.45,1.03,7.05,1.72,10.33,3.14,43.37,18.81,86.69,37.72,130.03,56.59,3.04,1.32,6.11,2.59,9.55,4.04,22.76-14.9,45.59-29.79,68.35-44.78,6.65-4.38,13.15-7.57,21.67-8.45,19.5-2.02,38.79-6.04,58.17-9.27,7.73-1.29,8.61-.73,9.56,6.9.66,5.28.67,10.69,1.78,15.87,1.32,6.13-.93,9.78-5.76,13.39-24.27,18.16-48.3,36.63-72.4,55-23.84,18.17-47.56,36.5-71.61,54.4-5.41,4.03-7.41,8.05-6.92,14.94,2.7,38.54,4.84,77.11,7.14,115.67.81,13.63,1.57,27.26,2.29,40.9.15,2.92.02,5.86.02,8.26-4.88,3.5-8.45,1.21-11.96-.47-11.7-5.62-23.32-11.43-35.06-16.97-5.04-2.38-10.31-4.3-16.96-7.04-6.61-59-13.34-119.11-20.14-179.81-23.7-9.23-47.1-18.34-72.01-28.04,1.78,15.93,3.34,30.07,4.93,44.2,1.34,11.91,2.7,23.82,4.07,35.73.34,2.99.97,6.06-2.69,7.61-4.16-1.96-8.27-3.89-12.38-5.82,0-58.67,0-117.33,0-176Z"/>
  <path class="st0" d="M2732,1144c-2.94-1.53-5.8-3.24-8.84-4.56-43.34-18.95-86.75-37.74-130-56.89-5.82-2.58-9.93-2.51-15.39,1.23-19.5,13.39-39.56,25.96-59.22,39.12-7.8,5.22-15.53,8.86-25.37,9.8-17.53,1.67-34.84,5.55-52.25,8.46-3.54.59-7.12,1.02-11.38,1.62-3.58-10.14-3.54-20.15-4.06-29.91-.12-2.31,3.55-5.27,6.04-7.19,23.77-18.29,47.67-36.42,71.53-54.6,24.12-18.38,48.13-36.92,72.47-55.01,5.19-3.86,7.01-7.8,6.6-14.19-3.29-51.21-6.31-102.45-9.27-153.68-.26-4.42-2.88-9.94,1.83-13.03,4.6-3.02,8.82,1.3,12.85,3.18,11.48,5.34,22.79,11.04,34.16,16.59,1.5.73,2.96,2.04,4.49,2.12,11.04.59,11.23,8.19,12.13,16.64,5.67,53.67,11.83,107.3,17.7,160.95.45,4.1,1.78,6.59,5.86,8.14,21.18,8.03,42.25,16.32,63.38,24.48.57.22,1.3.03,3.22.03-1.12-10.91-2.14-21.71-3.34-32.49-1.59-14.24-3.38-28.45-4.92-42.69-.37-3.42-.05-6.91-.05-12.11,5.14,2.61,8.49,4.31,11.83,6v178Z"/>
  <path class="st0" d="M884,2048c-1.18-1.91-2.1-4.05-3.56-5.7-13.94-15.68-28.12-31.16-41.9-46.98-3.78-4.34-7.21-5.4-12.92-3.97-21.94,5.52-44.05,10.38-66.11,15.47-2.27.52-4.54,1.23-6.84,1.33-4.6.21-6.92-2.2-6.31-6.71.4-2.94,1.48-5.79,2.33-8.67,6.23-21.06,12.25-42.19,18.85-63.14,2.03-6.44,1.25-10.89-3.58-15.91-15.92-16.57-31.32-33.63-46.86-50.57-8.57-9.34-7.83-11.82,4.49-14.45,24.09-5.13,48.18-10.25,72.34-15.03,6.28-1.24,9.68-3.64,10.93-10.48,2.39-13.08,5.93-25.95,9.07-38.88.68-2.8,1.71-5.52,3.13-10.02,3.86,2.91,6.83,4.66,9.22,7.01,24.24,23.8,48.39,47.7,72.56,71.57,29.62,29.26,59.27,58.49,88.82,87.82,2.66,2.64,7.73,5.11,5.32,9.54-1.39,2.54-5.8,4.02-9.12,4.8-19.43,4.57-38.95,8.78-59.64,13.39-8,26.26-16.11,52.92-24.23,79.57h-16Z"/>
  <path class="st0" d="M1850,0c1.4,2.18,2.55,4.59,4.25,6.51,13.95,15.69,28.21,31.12,41.91,47.03,4.16,4.84,8.2,5.47,13.93,4.06,21.34-5.25,42.77-10.16,64.17-15.19,2.59-.61,5.18-1.35,7.81-1.67,4.13-.51,6.45,1.67,6.34,5.7-.07,2.61-.91,5.23-1.65,7.77-6.34,21.74-12.49,43.54-19.26,65.15-2.03,6.49-1.33,10.96,3.51,16.02,15.92,16.59,31.34,33.67,46.87,50.63,2.38,2.6,4.33,5.58,7.47,9.67-4.57,1.84-7.66,3.6-10.98,4.33-24.4,5.33-48.78,10.84-73.33,15.4-7.35,1.37-9.83,4.81-11.17,11.41-2.59,12.72-5.8,25.32-8.89,37.93-.74,3.02-2.04,5.9-3.43,9.81-3.05-2.06-5.13-3.04-6.68-4.57-54.82-54.06-109.59-108.18-164.37-162.29-1.18-1.17-2.47-2.29-3.42-3.63-2.78-3.92-2.08-6.93,2.48-8.57,4.05-1.46,8.35-2.23,12.57-3.18,15.27-3.43,30.51-7.04,45.87-10.07,4.97-.98,7.27-3.11,8.7-7.93,6.92-23.31,14.22-46.5,21.41-69.72.49-1.57,1.26-3.06,1.9-4.59,4.67,0,9.33,0,14,0Z"/>
  <path class="st0" d="M1030,0c-2.67,16.07,1.14,12.36-14.39,19.28-73.53,32.76-147.11,65.4-220.71,98.02-3.77,1.67-7.81,2.75-13.72,4.79,1.76-21.67,3.36-41.37,4.97-61.18-23.61-17.87-46.83-35.45-71.48-54.1-.35,4.38-.65,6.87-.72,9.36-.68,23.29-1.31,46.58-1.98,69.86-.06,1.99.07,4.04-.36,5.96-.9,4.03-3.62,5.48-7.47,4.06-1.83-.68-3.46-1.95-5.1-3.08-22.49-15.46-44.91-31.01-67.49-46.32-3.16-2.14-4.75-4.31-4.27-8.09,1.62-12.85,3.16-25.71,4.72-38.56,72.67,0,145.33,0,218,0,5.69,4.45,11.27,9.04,17.15,13.22,1.33.94,4.04,1.14,5.53.44C881.88,9.3,890.91,4.59,900,0c43.33,0,86.67,0,130,0Z"/>
  <path class="st0" d="M1706,2048c-1.72-8.95,2.15-13.54,10.52-17.22,74.93-32.88,149.66-66.23,224.47-99.38,3.47-1.54,7.18-2.53,11.55-4.05.46,3.19,1.09,5.07.94,6.88-1.32,15.91-2.64,31.83-4.3,47.71-.43,4.08.3,6.84,3.72,9.4,21.31,15.96,42.48,32.11,63.73,48.15.73.55,1.78.69,3.8,1.44.3-4.31.71-8.15.81-12,.55-20.63,1.02-41.26,1.53-61.89.05-2,.12-4,.29-5.98.84-9.73,3.69-11.18,11.87-5.6,22.82,15.56,45.42,31.44,68.39,46.77,4.62,3.08,4.79,6.57,4.31,11.03-1.25,11.57-2.43,23.15-3.63,34.73h-220c-6.24-4.78-12.47-9.56-18.79-14.4-10.25,5.05-19.73,9.72-29.21,14.4h-130Z"/>
  <path class="st0" d="M2412,0c-2.08,6.66-3.85,13.45-6.34,19.95-1.7,4.43-.55,7.4,2.4,10.72,17.04,19.14,33.93,38.43,50.82,57.7.8.92,1.16,2.23,2.34,4.6-3.69,1.44-6.8,2.99-10.09,3.87-21.87,5.82-43.73,11.68-65.69,17.11-6.41,1.58-10.19,4.4-12.22,11.06-4.55,14.95-9.95,29.65-15.12,44.42-3.73,10.64-7.17,11.29-14.84,2.57-17.6-20-35.05-40.14-52.57-60.22-29.99-34.39-59.99-68.76-89.95-103.18-2.39-2.75-4.5-5.73-6.74-8.61,72.67,0,145.33,0,218,0Z"/>
  <path class="st0" d="M324,2048c1.68-6.09,3.05-12.28,5.12-18.23,1.64-4.69.72-8.09-2.54-11.74-17.3-19.38-34.4-38.93-51.53-58.46-.39-.45-.42-1.22-1.07-3.27,3.25-1.37,6.54-3.24,10.08-4.19,22.18-5.96,44.36-11.97,66.69-17.37,6.02-1.46,8.94-4.41,10.75-10.03,4.89-15.21,10.14-30.31,15.42-45.4,3.53-10.09,7.22-10.82,14.45-2.62,17.63,19.99,35.07,40.15,52.59,60.24,30,34.4,60.02,68.8,89.99,103.22,2.17,2.49,4.05,5.22,6.06,7.84h-216Z"/>
  <path class="st0" d="M2590,0c1.25,2.2,2.18,4.69,3.82,6.56,11.42,13.03,22.93,25.98,34.53,38.86,2.63,2.92,5.72,5.44,9.17,8.67-.87,2.88-1.71,6.03-2.76,9.12-7.66,22.37-15.19,44.78-23.17,67.03-1.94,5.39-1.41,9.09,2.4,13.48,16.38,18.87,32.29,38.15,48.58,57.1,3.95,4.59,5.3,8.25,3.35,14.91-3.34,11.4-4.08,23.57-5.85,35.43-1.52,10.21-2.85,20.45-4.48,30.65-.49,3.09-1.69,6.06-3.22,11.34-4.51-4.34-7.72-6.92-10.33-10.02-51.08-60.67-102.08-121.4-153.1-182.12-3-3.57-6.21-6.99-8.93-10.77-1.37-1.91-1.84-4.46-3.02-7.51,23.08-3.3,44.78-6.4,67.04-9.58,2.62-9.71,5.18-19.32,7.81-28.91,4.03-14.75,8.1-29.5,12.16-44.24,8.67,0,17.33,0,26,0Z"/>
  <path class="st0" d="M146,2048c-15.65-17.63-31.3-35.27-48.37-54.5,8.89-26,18.43-53.9,28.11-82.22-6.55-7.77-12.97-15.4-19.4-23-10.75-12.71-21.29-25.62-32.38-38.03-4.99-5.58-6.78-10.18-4.58-18.26,3.66-13.39,4.51-27.54,6.56-41.37,1.27-8.56,2.47-17.13,3.92-25.66.41-2.39,1.61-4.65,3.1-8.77,3.99,3.84,6.98,6.24,9.4,9.11,36.69,43.55,73.31,87.16,109.94,130.76,16.5,19.63,33.04,39.23,49.46,58.92,2.43,2.91,4.35,6.25,7.67,11.08-24.15,3.49-46.34,6.7-68.81,9.95-6.32,24.39-12.48,48.19-18.64,71.98h-26Z"/>
  <path class="st0" d="M0,1160c1.6.4,3.45.42,4.77,1.27,9.37,6.03,16.88,3.05,24.97-3.4,11.17-8.9,23.22-16.71,35.02-24.8,7.37-5.05,10.78-3.68,11.77,5.33,2.08,18.85,3.64,37.75,5.34,56.64,4.53,50.36,9.03,100.73,13.54,151.1.74,8.28,1.63,16.56,2.14,24.86.17,2.7-.64,5.46-1.13,9.16-20.1-9.84-38.8-19-57.68-28.24C25.64,1362.09,12.82,1372.05,0,1382c0-74,0-148,0-222Z"/>
  <path class="st0" d="M2732,888c-11.23-6.44-20.22-2.51-29.45,5.05-10.02,8.2-21.06,15.19-31.76,22.54-8.18,5.62-11.77,3.89-12.7-6.19-2.13-22.88-4.07-45.77-6.12-68.65-4.4-49.08-8.85-98.16-13.21-147.24-.67-7.52-1.02-15.07-1.56-23.3,3.04.24,4.82-.08,6.12.56,15.52,7.65,31.06,15.24,46.37,23.3,5.25,2.77,8.88,2.24,13.28-1.69,9.42-8.43,19.34-16.29,29.05-24.39v220Z"/>
  <path class="st0" d="M1384,0c-1.83,2.67-3.41,5.56-5.54,7.97-9.25,10.46-18.67,20.78-28.23,31.37,1.13,3.03,2.08,5.81,3.21,8.52,5.24,12.6,10.59,25.15,15.78,37.77,3.5,8.5,2.25,10.15-6.87,8.78-55.94-8.42-111.87-16.9-167.8-25.38-19.41-2.94-38.82-5.92-58.23-8.88-.99-.15-1.99-.18-2.97-.36-8.29-1.56-9.72-4.95-4.49-11.33,4.43-5.4,9.21-10.52,13.84-15.76,7.72-8.73,15.49-17.42,23.11-26.23,1.67-1.93,2.81-4.3,4.19-6.47,71.33,0,142.67,0,214,0Z"/>
  <path class="st0" d="M1352,2048c1.56-2.41,2.86-5.06,4.73-7.2,7.7-8.75,15.36-17.55,23.48-25.9,3.9-4,4.23-7.45,2-12.4-5.6-12.44-10.71-25.09-15.89-37.71-1.19-2.9-1.87-6.01-3.17-10.26,4.43,0,7.34-.37,10.13.05,74.36,11.23,148.7,22.54,223.05,33.85,2.96.45,5.97.83,8.82,1.7,3.99,1.23,5.04,4.04,2.92,7.73-1.14,1.99-2.82,3.69-4.36,5.44-10.78,12.25-21.63,24.43-32.33,36.75-2.09,2.4-3.61,5.29-5.39,7.95h-214Z"/>
  <path class="st0" d="M1816,0c-2.15,14.76-4.25,29.52-6.46,44.27-1.08,7.19-1.81,7.65-9.1,6.35-2.93-.52-5.84-1.19-8.76-1.83-19.31-4.27-13.87,0-21-18.83-3.75-9.91-7.13-19.97-10.68-29.96,18.67,0,37.33,0,56,0Z"/>
  <path class="st0" d="M920,2048c2.01-16.4,4.02-32.8,6.14-50.1,4.11.29,7,.24,9.8.74,4.91.88,9.72,2.7,14.64,3.02,6.43.42,9.22,3.76,11.02,9.47,3.89,12.37,8.24,24.59,12.4,36.87h-54Z"/>
  <path class="st0" d="M1994,0c.96,3.43,1.92,6.86,3.2,11.43-3.63.88-6.34,1.94-9.11,2.15-30.09,2.26-60.19,4.39-90.28,6.52-2.31.16-4.68.45-6.95.13-4.76-.67-6.85-4.48-4.54-8.66,2.23-4.04,5.1-7.73,7.68-11.57C1927.33,0,1960.67,0,1994,0Z"/>
  <path class="st0" d="M740,2048c-.33-1.61-.47-3.28-1.01-4.81-1.71-4.77.36-6.89,4.92-7.31,5.6-.53,11.21-1.04,16.82-1.46,26.08-1.94,52.16-3.85,78.24-5.75,1.65-.12,3.35-.39,4.95-.11,5.1.88,7.01,4.93,4.42,9.47-1.95,3.42-4.21,6.66-6.34,9.98h-102Z"/>
  <path class="st0" d="M900,0c-9.09,4.59-18.12,9.3-27.32,13.66-1.49.7-4.21.51-5.53-.44-5.88-4.18-11.46-8.77-17.15-13.22,16.67,0,33.33,0,50,0Z"/>
  <path class="st0" d="M1836,2048c9.48-4.67,18.96-9.34,29.21-14.4,6.32,4.84,12.55,9.62,18.79,14.4h-48Z"/>
  <path class="st0" d="M1692,0c-.93,5.24-4.17,7.4-9.2,6.25-8.31-1.9-16.54-4.15-24.8-6.25,11.33,0,22.67,0,34,0Z"/>
  <path class="st0" d="M1042,2048c3.26-4.87,7.24-6.96,13.29-4.7,5.4,2.01,11.13,3.17,16.71,4.7h-30Z"/>
  <path class="st0" d="M730.07,654.81c-5.05-8.74-9.8-17.02-14.61-25.28-4.87-8.35-10.02-16.54-14.63-25.02-4.52-8.31-10.84-15.79-13.67-26.48,4.14-.67,7.26-1.56,10.4-1.62,25.99-.51,51.99-.75,77.97-1.38,5.99-.14,9.85,1.72,13,7.01,9.88,16.61,20.28,32.9,30.37,49.38,4.59,7.5,4.48,8.02-2.62,12.65-47.44,30.95-94.87,61.91-142.46,92.64-3.4,2.2-7.9,3.38-12,3.71-16.94,1.35-33.91,2.2-50.88,3.22-3.29.2-6.64-.12-8.72,3.48-11.81,20.42-23.71,40.78-36.3,62.39,4,.34,6.78.78,9.56.77,21.66-.1,43.33-.28,64.99-.44,2.33-.02,4.68-.19,7,0,5.31.44,6.5,2.28,4.62,7.08-.6,1.54-1.52,2.96-2.31,4.42-12.42,22.82-25.05,45.54-37.14,68.54-3.2,6.08-6.74,8.77-13.89,8.4-26.29-1.36-52.61-2.2-78.92-2.93-4.61-.13-7.37-1.71-9.53-5.64-12.7-23.05-25.51-46.04-38.38-69-1.96-3.49-2.09-6.23.01-10.08,25.88-47.35,51.42-94.9,77.26-142.27,2.7-4.94,2.91-8.73,0-13.74-10.57-18.13-20.62-36.56-30.91-54.85-1.07-1.91-2.42-3.67-4.27-6.43-2.21,3.71-3.98,6.41-5.49,9.24-10.66,19.99-21.26,40.01-31.89,60.01-3.33,6.27-5.53,6.31-9.38.22-15.49-24.5-30.95-49.02-46.51-73.47-2.07-3.26-3.36-5.71-.99-9.85,13.91-24.27,27.56-48.69,40.87-73.28,2.38-4.39,4.45-6.44,9.73-6.34,25.66.47,51.32.64,76.98.49,6.4-.04,9.93,2.04,13.41,7.67,27.99,45.37,56.46,90.44,84.76,135.62,2.14,3.42,3.99,6.48,8.92,6.79,23.94,1.53,47.85,3.45,71.78,5.18.89.06,1.81-.35,3.89-.8Z"/>
  <path class="st0" d="M700.37,1033.72c-1.15,3.24-2.18,6.33-3.34,9.36-19.72,51.64-39.49,103.27-59.15,154.93-1.94,5.11-4.59,9.17-9.1,12.63-12.94,9.95-25.4,20.51-38.08,30.81-2.86,2.32-5.7,4.34-5.23,8.87,2.44,23.44,4.67,46.89,7.16,72.24,24.55-17.14,46.73-34.9,71.43-52.22,1.48,4.97,2.91,8.2,3.37,11.57,3.54,26.07,6.75,52.19,10.4,78.25.9,6.42-.75,10.42-6.37,14.07-22.08,14.32-43.93,29-65.64,43.89-4.25,2.92-7.57,2.82-11.9.78-23.2-10.93-46.45-21.76-69.79-32.39-4.44-2.02-6.22-4.54-6.87-9.6-6.9-53.51-14.2-106.98-21.36-160.45-.44-3.31-.49-6.64-4.24-8.36-22.05-10.11-44.06-20.29-67.97-31.31,2.22,29.45,8.07,56.84,10.76,86.14-3.96-1.05-6.43-1.44-8.71-2.34-26.33-10.39-52.56-21.05-79-31.14-5.68-2.17-6.91-5.14-7.53-10.89-2.92-27.15-6.46-54.23-10.27-81.27-.68-4.81.41-7.14,4.21-9.81,21.29-14.91,42.47-29.97,63.44-45.31,4.9-3.58,8.68-3.75,14.41-1.4,49.6,20.36,99.4,40.22,149.12,60.29,3.89,1.57,7.2,2.22,11.21-.33,19.95-12.7,40.11-25.09,60.18-37.6.83-.52,1.54-1.24,3.27-2.66-26.62-12.81-53.54-22.96-80.85-36.41,3.28-3.42,4.98-5.74,7.18-7.42,21.48-16.34,43.06-32.56,64.57-48.86,3.42-2.59,6.67-3.67,11.03-1.83,19.33,8.14,38.8,15.97,58.18,24.02,1.75.73,3.2,2.17,5.46,3.76Z"/>
  <path class="st0" d="M1665.92,1697.41c-1.36,12.94-2.59,24.17-3.72,35.41-1.46,14.59-2.78,29.19-4.26,43.77-.89,8.74-3.36,10-10.69,4.94-22.21-15.33-44.26-30.9-66.44-46.29-3.59-2.49-5.46-5.38-5.1-9.98,1.65-20.93,3.04-41.87,4.66-62.8.14-1.87,1.22-3.67,2.11-6.21,3.05,0,6-.13,8.93.02,54.91,2.78,109.82,5.65,164.74,8.35,6.85.34,12.73,2.23,18.49,6.19,13.17,9.07,26.81,17.44,40.24,26.13,2.84,1.84,5.34,3.32,9.14,1.61,21.54-9.69,43.2-19.1,66.62-29.39-24.37-17.35-47.48-33.81-71.79-51.12,3.09-2.67,4.7-4.75,6.82-5.77,25.51-12.28,51.14-24.32,76.64-36.63,4.26-2.06,7.39-1.4,10.92,1.39,21.68,17.17,43.53,34.14,65.11,51.44,1.94,1.55,3.6,5.11,3.33,7.51-3,27.15-6.43,54.25-9.67,81.37-.41,3.44-2.33,5.02-5.32,6.44-47.52,22.61-94.89,45.53-142.53,67.89-8.1,3.8-12.02,8.21-12.68,17.6-1.36,19.25-4.36,38.38-6.66,57.56-.27,2.27-.4,4.55-.7,8.13,3.58-1.39,6.28-2.22,8.79-3.44,20.68-10.03,41.29-20.2,62.01-30.14,2.1-1.01,4.99-1.46,7.12-.84.9.26,1.19,4.02,1.06,6.15-1.69,27.6-3.76,55.18-5.11,82.8-.35,7.19-2.2,10.63-9.45,13.75-24.77,10.65-48.99,22.59-73.25,34.37-3.91,1.9-6.35,1.78-9.8-.82-20.75-15.64-41.58-31.19-62.68-46.37-5.27-3.79-6.84-7.58-6.31-14.11,2.85-34.87,5.06-69.79,7.5-104.69,1.25-17.95,2.31-35.91,3.87-53.84.51-5.89-1.07-9.86-5.75-13.67-16.28-13.25-32.2-26.95-48.26-40.47-2.01-1.69-4.11-3.26-7.91-6.25Z"/>
  <path class="st0" d="M2141.37,726.86c-12.52,9.25-23.74,17.52-34.94,25.82-9.37,6.94-18.64,14.02-28.09,20.84-6.89,4.97-9.33,4.04-10.41-3.97-3.74-27.72-7.19-55.49-11.07-83.19-.74-5.29,1.5-7.98,5.41-10.59,22.74-15.13,45.45-30.32,68.05-45.66,3.24-2.2,5.9-2.13,9.23-.57,24.13,11.29,48.29,22.51,72.5,33.64,3.7,1.7,5.25,3.99,5.79,8.25,6.21,48.56,12.71,97.08,19.15,145.6.96,7.25,2.03,14.48,3.17,22.5,23.38,10.76,46.83,21.55,71.67,32.98-1.49-11.48-2.7-21.32-4.07-31.14-2.21-15.83-4.59-31.63-6.73-47.47-.28-2.06-.22-5.13,1-6.16,1.18-1,4.28-.49,6.18.26,26.96,10.61,53.83,21.43,80.78,32.02,4.05,1.59,6.35,3.29,6.89,8.3,2.91,27.14,6.18,54.26,9.83,81.31.82,6.05-.21,9.45-5.56,13.1-20.08,13.71-39.82,27.94-59.35,42.41-6.2,4.6-11.13,5.65-18.84,2.45-48.59-20.17-97.49-39.57-146.28-59.26-4.08-1.65-7.65-2.91-12.12-.04-19.91,12.76-40.08,25.12-60.13,37.66-.79.49-1.35,1.36-2.68,2.76,2.53,1.3,4.68,2.55,6.93,3.54,19.81,8.71,39.65,17.38,59.48,26.06,1.52.67,3.06,1.3,4.58,2,9.18,4.21,9.49,6.51,1.3,12.73-20.95,15.93-42.03,31.7-62.95,47.66-4.07,3.11-7.8,4.14-12.83,2-18.39-7.8-36.98-15.14-55.42-22.82-7.26-3.02-7.69-3.98-4.91-11.29,20.38-53.52,40.81-107.03,61.43-160.45,1.23-3.18,3.87-6.15,6.54-8.39,13.29-11.12,26.76-22.01,40.28-32.85,3.05-2.45,4.96-4.87,4.48-9.19-2.39-21.52-4.5-43.06-6.77-64.59-.17-1.61-.75-3.18-1.51-6.27Z"/>
  <path class="st0" d="M845.48,380.19c3.16,2.48,5.6,4.54,8.2,6.4,17.36,12.39,34.75,24.73,52.13,37.09,1.9,1.35,3.92,2.57,5.66,4.11,3.81,3.38,3.51,5.64-1.01,8.42-1.41.87-2.99,1.47-4.49,2.19-23.45,11.18-46.99,22.19-70.3,33.66-6.16,3.03-10.64,2.89-16.19-1.62-20.42-16.61-41.21-32.77-62.02-48.9-3.29-2.55-4.69-5.1-4.18-9.26,3.25-26.45,6.35-52.92,9.46-79.39.47-4.03,2.51-6.09,6.32-7.9,48.46-22.98,96.75-46.31,145.2-69.3,5.4-2.56,7.99-5.75,8.61-11.81,2.06-20.21,4.72-40.36,7.05-60.55.3-2.6.04-5.26.04-8.94-3.05,1.24-5.73,2.14-8.26,3.37-20.67,10.04-41.32,20.14-61.97,30.23-6.42,3.13-8.32,1.98-7.88-5.21,1.82-29.27,3.79-58.52,5.62-87.79.22-3.59,1.13-5.79,4.95-7.52,25.78-11.67,51.43-23.66,76.99-35.82,3.75-1.79,6.35-2.18,9.9.5,20.76,15.63,41.59,31.18,62.69,46.35,5.28,3.79,6.78,7.62,6.3,14.11-3.92,53.17-7.35,106.37-11.01,159.56-.28,4.09-.58,7.63,3.2,10.74,18.51,15.26,36.81,30.78,55.21,46.18.47.39,1.21.47,2.53.96.56-1.73,1.43-3.39,1.6-5.12,2.21-22.21,4.26-44.44,6.49-66.65.45-4.51,1.45-8.96,2.42-14.76,3.57,1.5,6.1,2.09,8.08,3.46,22.46,15.56,44.82,31.27,67.26,46.86,3.55,2.47,5.7,5.26,5.31,9.9-1.7,20.25-3.14,40.53-4.87,60.78-.69,8.03-1.24,8.47-9.11,8.09-37.28-1.77-74.56-3.64-111.83-5.52-18.64-.94-37.27-2.11-55.91-2.85-5.83-.23-10.81-1.53-15.76-4.92-13.47-9.21-27.41-17.74-41.03-26.75-3.96-2.62-7.37-3.33-11.98-1.23-19.7,8.98-39.58,17.56-59.37,26.33-1.12.5-2.11,1.3-4.05,2.52Z"/>
  <path class="st0" d="M833.05,1423.36c2.18,7.92,3.96,14.29,5.69,20.68,13.45,49.83,26.86,99.68,40.4,149.49,1.53,5.64,1.56,10.82-.14,16.55-4.54,15.32-8.37,30.85-12.43,46.31-1.01,3.85-2.05,7.42,1.34,11.14,15.68,17.22,31.1,34.68,47.36,52.89,1.34-2.87,2.48-4.72,3.12-6.74,7.07-22.21,14.03-44.46,21.12-66.67.95-2.99,2.4-5.83,4.22-10.14,3.41,2.82,5.8,4.42,7.74,6.45,18.62,19.54,37.05,39.28,55.83,58.67,4.37,4.51,4.97,8.48,2.78,14.22-9.48,24.9-18.66,49.92-27.67,74.99-1.43,3.97-3.46,6.01-7.53,6.8-26.16,5.06-52.3,10.21-78.42,15.46-4.13.83-6.53-.62-9.4-3.65-37.08-39.24-74.38-78.28-111.58-117.41-2.86-3.01-5.54-5.35-10.29-4.36-23.45,4.86-46.95,9.48-72.49,14.6,20.36,21.46,40,41.46,60.47,62.97-3.87,1.57-6.07,2.77-8.43,3.38-28.05,7.23-56.15,14.3-84.18,21.64-4.02,1.05-6.36.71-9.41-2.66-18.58-20.48-37.34-40.81-56.55-60.7-4.2-4.35-4.79-7.42-2.84-12.96,8.29-23.56,16.3-47.23,23.66-71.09,2.21-7.16,6.04-9.68,12.91-11.35,51.44-12.55,102.78-25.53,154.14-38.42,3.48-.87,7.01-1.48,8.69-5.69,9.25-23.16,18.71-46.24,28.9-71.32-4.97.9-8.34,1.4-11.67,2.13-21.47,4.69-42.94,9.42-64.4,14.15-1.3.29-2.57.77-3.88.95-6.34.89-8.15-.89-6.66-6.97,1.19-4.84,2.84-9.57,4.29-14.36,6.27-20.72,12.76-41.37,18.69-62.19,1.96-6.87,5.39-10.56,12.54-12.11,17.89-3.89,35.63-8.52,53.44-12.78,3.15-.75,6.39-1.14,10.68-1.89Z"/>
  <path class="st0" d="M2004.75,1394.08c15.03,25.84,29.19,50.17,43.89,75.44-3.33,1.28-5.3,2.66-7.31,2.71-27.98.7-55.97,1.18-83.96,1.81-3.98.09-7.07-.91-9.27-4.5-11.3-18.47-22.71-36.87-34.03-55.34-.66-1.07-.8-2.46-1.44-4.52,2.28-1.76,4.46-3.7,6.88-5.28,46.88-30.58,93.82-61.08,140.65-91.74,4.65-3.04,9.31-4.44,14.87-4.61,16.32-.5,32.61-1.61,48.92-2.36,3.82-.18,7.05-.69,9.24-4.51,11.26-19.65,22.71-39.2,34.04-58.82.43-.74.25-1.84.47-3.89-3.52,0-6.73-.04-9.93,0-20.99.3-41.99.62-62.98.93-2,.03-4.01.15-6,.04-6.9-.38-8.34-2.6-5.15-8.76,5.05-9.76,10.44-19.35,15.7-29,7.96-14.63,16.14-29.15,23.78-43.95,2.87-5.56,6.52-7.39,12.69-7.08,26.29,1.33,52.6,2.36,78.91,3.15,4.96.15,7.88,1.74,10.25,6.07,12.47,22.8,25.14,45.49,37.88,68.13,2.17,3.85,2.15,6.71-.14,10.89-26.37,48.22-52.4,96.64-78.5,145.01-.62,1.15-1.04,2.41-1.8,4.23,12.39,22.1,24.9,44.42,38.05,67.9,2.09-3.2,3.77-5.38,5.04-7.78,10.96-20.58,21.84-41.2,32.75-61.8,3.22-6.09,5.76-6.11,9.55-.12,15.29,24.23,30.49,48.52,45.99,72.61,2.88,4.48,3.06,7.42.17,12.39-13.71,23.62-26.74,47.63-39.74,71.65-2.06,3.8-3.56,6.46-8.7,6.34-25.98-.57-51.97-.91-77.96-.89-6.33,0-9.95-1.8-13.45-7.49-27.96-45.39-56.41-90.47-84.66-135.68-2.4-3.84-4.85-6.67-10-6.97-22.62-1.31-45.21-3.01-67.82-4.52-1.63-.11-3.28.13-6.88.29Z"/>
  <path class="st0" d="M1916.17,532.52c14.73-3.15,28.92-6.21,43.12-9.2,13.82-2.91,27.49-6.74,43.22-8.93-.79,4.95-.91,7.84-1.72,10.52-7.56,25.19-15.33,50.31-22.81,75.53-1.69,5.69-4.55,8.82-10.66,10.17-19.17,4.25-38.18,9.23-57.28,13.78-7.69,1.83-8.2,1.51-10.32-6.31-14.96-55.27-29.89-110.55-44.61-165.88-.87-3.29-.48-7.23.36-10.61,4.19-16.79,8.66-33.52,13.19-50.23.91-3.36,1.56-6.23-1.15-9.23-15.8-17.53-31.47-35.17-48.09-53.78-1.4,3.39-2.52,5.6-3.26,7.94-6.72,21.27-13.37,42.56-20.04,63.84-.5,1.59-.93,3.2-1.53,4.75-2.47,6.49-4.93,7.17-9.84,2.2-7.49-7.58-14.71-15.43-22.04-23.17-11.68-12.34-23.2-24.84-35.12-36.94-4.08-4.14-5.03-7.92-2.99-13.36,9.49-25.24,18.77-50.56,27.93-75.92,1.43-3.97,3.75-5.85,7.75-6.62,25.82-4.98,51.63-10.07,77.43-15.17,4.23-.84,7.14.09,10.42,3.57,37.02,39.27,74.38,78.22,111.48,117.42,3.66,3.87,6.95,4.85,12.22,3.71,21.15-4.56,42.43-8.52,63.65-12.75,1.54-.31,3.02-.96,5.49-1.76-2.14-2.68-3.57-4.77-5.3-6.57-16.18-16.8-32.44-33.51-48.56-50.36-1.43-1.5-3.15-4.12-2.71-5.62.45-1.53,3.27-2.84,5.28-3.36,27.72-7.16,55.52-13.99,83.18-21.35,5.75-1.53,8.56-.11,12.52,4.31,18.02,20.08,36.6,39.66,55.31,59.11,3.42,3.56,4.85,6.08,3.07,11.15-8.35,23.88-16.32,47.89-24.09,71.96-2.1,6.51-4.99,9.99-12.46,11.78-51.78,12.44-103.36,25.72-155.04,38.59-4.16,1.04-7.14,2.43-8.87,6.81-8.71,21.98-17.72,43.83-26.59,65.74-.35.87-.26,1.92-.54,4.26Z"/>
  <path class="st0" d="M232.61,427.11c29.6-52.03,59.38-104.37,89.53-157.37-13.61-21.21-27.21-42.38-41.51-64.66-2.44,3.86-4.27,6.52-5.86,9.31-10.87,19.11-21.63,38.29-32.56,57.36-1.85,3.22-2.85,7.66-7.28,7.86-14.85-25.79-29.22-51.2-44.11-76.3-4.08-6.88-4.25-12.22.23-19.08,10.92-16.74,21.02-34,31.43-51.07,3.07-5.04,5.33-10.85,9.31-15,4.94-5.15,11.09.57,16.9.32,22.63-.97,45.32-.33,67.96-.99,8.44-.25,13.27,2.75,17.47,10.01,24.52,42.39,49.75,84.37,74.08,126.87,4.6,8.03,9.89,10.89,18.7,11.09,21.98.5,43.95,1.82,65.92,2.81,9.58.43,18.45,1.46,27.4,6.87,15.91,9.62,33.18,16.98,49.87,25.33,2.59,1.29,5.06,2.81,8.71,4.86-5.21,9.06-9.61,17.61-14.99,25.48-1.39,2.03-5.83,2.67-8.9,2.75-32.65.9-65.3,1.55-97.95,2.28-27.99.63-55.97,1.54-83.96,1.75-6.62.05-10.09,2.47-13.48,7.81-27.62,43.63-55.52,87.09-83.35,130.59-7.54,11.78-9.74,11.73-16.28-.45-6.31-11.74-12.45-23.57-18.84-35.26-2.2-4.02-4.94-7.75-8.44-13.18Z"/>
  <path class="st0" d="M449.04,1919.19c-1.93-1.96-4.54-4.43-6.95-7.07-36.37-39.87-72.78-79.69-108.96-119.73-4.5-4.98-8.37-6.9-15.36-4.82-18.49,5.49-37.3,9.92-55.98,14.82-2.77.73-5.49,1.66-9.36,2.84,2.8,3.34,4.79,5.89,6.96,8.26,14.6,15.99,29.25,31.93,43.85,47.91,1.79,1.96,3.65,3.91,5.12,6.11,1.95,2.92.92,5.21-2.45,5.87-23.45,4.58-46.93,9-70.38,13.58-29.22,5.71-20.08,8.03-39.07-13.27-13.28-14.89-26.47-29.86-39.6-44.88-2.95-3.37-5.07-6.81-1.11-11.36,2.06-2.36,3.04-5.82,4.03-8.93,6.84-21.57,13.83-43.11,20.17-64.83,2.35-8.05,6.71-11.85,14.91-13.6,49.15-10.49,98.2-21.45,147.28-32.28,2.59-.57,5.14-1.35,8.2-2.16,7.14-18.78,14.34-37.7,21.53-56.63,3.78-9.96,6.09-20.85,11.7-29.63,5.56-8.7,14.44-15.28,21.84-22.8,9.35-9.5,18.66-19.02,28.03-28.5,1.58-1.6,3.38-3,5.68-5.03,8.31,6.24,14.37,14.19,20.43,21.88,1.57,1.99.01,6.99-.98,10.35-12.38,41.81-24.92,83.57-37.42,125.34-4.68,15.62-9.07,31.34-14.19,46.82-2.14,6.48-.92,10.95,3.4,16.15,32.99,39.72,65.49,79.83,98.56,119.48,7.32,8.77,8.27,13.23-6.17,15.27-13.17,1.87-26.24,4.52-39.32,7.03-4.47.86-8.83,2.3-14.39,3.78Z"/>
  <path class="st0" d="M2502.28,1622.05c-29.59,52.02-59.38,104.38-89.47,157.27,13.71,21.37,27.31,42.58,41.57,64.81,2.46-4.01,4.22-6.72,5.81-9.52,11.03-19.41,21.98-38.86,33.06-58.24,1.7-2.98,2.62-7.22,7.09-6.56,14.73,25.67,29.07,51.13,43.95,76.27,3.9,6.59,4.12,11.7-.11,18.24-11.02,17.07-21.36,34.58-31.97,51.92-1.39,2.27-2.89,4.5-4.1,6.86-4.75,9.26-4.71,9.2-15.17,7.69-2.61-.38-5.32-.1-7.99-.06-22,.3-44,.31-65.98,1.09-8.8.31-13.9-2.86-18.32-10.51-25-43.27-50.61-86.19-75.74-129.4-3.18-5.46-6.43-7.9-13.12-8.09-27.31-.79-54.6-2.4-81.89-3.78-2.29-.11-4.84-.16-6.8-1.16-20.74-10.59-41.38-21.35-62.03-32.1-1.13-.59-2.11-1.48-3.29-2.33.37-7.66,6.18-12.55,8.7-18.9,3.12-7.88,8.49-10.04,16.95-10.17,59.32-.92,118.62-2.62,177.94-3.64,7.05-.12,10.73-2.87,14.24-8.41,27.65-43.62,55.53-87.1,83.41-130.58,2.07-3.22,4.65-6.11,7.96-10.41,3.16,4.3,5.79,7.18,7.62,10.5,6.12,11.08,11.85,22.38,17.94,33.48,2.68,4.89,5.86,9.51,9.73,15.73Z"/>
  <path class="st0" d="M2407.89,263.77c25.69-6.78,49.72-13.13,74.88-19.77-3.14-3.66-5.2-6.22-7.42-8.64-14.84-16.24-29.76-32.41-44.52-48.72-2.25-2.49-3.79-5.63-5.96-8.92,25.75-5.41,50.04-10.52,74.34-15.62,3.91-.82,8.03-1.09,11.71-2.51,9.05-3.49,14.71.03,20.43,7.12,12.96,16.08,26.85,31.42,40.06,47.3,3.67,4.41,10.33,6.82,10.1,12.34-2.73,6.23-5.24,10.86-6.84,15.8-6.86,21.24-13.63,42.5-20.01,63.88-2.13,7.15-5.69,10.9-13.39,12.55-49.5,10.6-98.86,21.89-148.36,32.51-6.47,1.39-9.32,4.22-11.48,10.23-8.12,22.56-16.93,44.88-25.37,67.32-3.04,8.08-6.68,15.09-13.63,21.26-14.43,12.8-27.36,27.29-40.93,41.05-1.59,1.61-3.37,3.02-6.12,5.48-6.97-7.56-14-14.53-20.07-22.25-1.44-1.83-.19-6.33.7-9.35,10.87-36.72,21.92-73.4,32.91-110.09,6.41-21.38,12.59-42.82,19.36-64.08,1.87-5.86.78-9.8-3.02-14.38-33.16-40.05-66.11-80.27-99.09-120.47-2.28-2.77-4.32-5.74-6.15-8.19,1.91-5.77,6.32-5.75,10.11-6.46,13.43-2.49,26.89-4.81,40.33-7.2,1.97-.35,4.24-.2,5.85-1.16,7.63-4.59,12.12-1.09,17.39,4.76,35.89,39.89,72.17,79.44,108.3,119.12,2.01,2.2,3.83,4.57,5.91,7.07Z"/>
  <path class="st0" d="M2492.97,1462.92c-1.93-3.12-3.51-5.92-5.32-8.57-12.21-17.89-24.47-35.75-36.71-53.62-1.13-1.65-2.38-3.23-3.37-4.96-3.83-6.67-2.2-9.84,5.62-10.26,10.98-.58,21.98-.86,32.97-1.14,17.32-.46,34.65-.64,51.96-1.34,4.03-.16,6.23,1.24,8.03,4.4,13.57,23.71,27.17,47.41,40.76,71.11,3.09,5.38,2.92,10.41-.31,15.96-12.75,21.88-25.33,43.86-37.59,66.01-2.91,5.26-6.59,6.36-12.12,6.4-54.33.31-108.65,1.03-162.98,1.15-7.7.02-11.99,2.21-15.58,9.11-9.39,18.01-19.65,35.57-29.53,53.34-1.42,2.56-2.64,5.23-4.49,8.91,3.29.26,5.76.67,8.23.6,20.99-.57,41.98-1.21,62.96-1.87,5.08-.16,10.07-.26,13.21,4.69-1.91,7.32-39.83,71.03-46.85,79.05-7.69,0-14.95-.22-22.2.04-20.65.74-41.3,1.51-61.92,2.67-3.82.22-6.32-.2-8.28-3.61-10.44-18.21-21.06-36.32-31.37-54.59-.94-1.67-.63-4.42-.08-6.44.6-2.18,2.15-4.11,3.31-6.12,40.88-70.66,81.74-141.32,122.67-211.95,2.07-3.58,4.67-6.86,7.68-11.24,2.31,2.92,3.86,4.5,4.98,6.34,7.95,13.1,15.83,26.25,23.69,39.41,1.91,3.19,3.63,5.98,8.22,6.04,26.99.38,53.98,1.05,80.97,1.56.86.02,1.73-.52,3.43-1.08Z"/>
  <path class="st0" d="M243.35,1104.96c-9.42,7.21-17.57,13.45-25.71,19.7-10.04,7.72-20.06,15.47-30.09,23.2-1.58,1.22-3.08,2.6-4.81,3.58-6.92,3.94-10.78,2.28-11.54-5.58-1.96-20.23-3.54-40.5-5.24-60.75-.69-8.24-1.33-16.48-1.88-23.38,25.32-17.9,47.84-37.04,71.51-55.57,1.53.47,3.47.85,5.24,1.64,17.97,7.96,35.83,16.16,53.91,23.88,5.01,2.14,6.87,5.12,7.4,10.43,6.61,65.3,13.42,130.59,20.23,195.87,1.66,15.91,3.58,31.79,5.1,47.7.49,5.14.08,10.36.08,16.74-3.43-1.08-5.9-1.66-8.2-2.63-14.13-5.93-28.27-11.82-42.3-18-3.75-1.65-6.61-1.66-10.09.8-21.78,15.37-43.71,30.53-65.57,45.79-.77.54-1.29,1.44-2.43,2.74,2.61,1.16,4.84,2.31,7.18,3.15,21.32,7.64,42.66,15.23,63.99,22.84,2.2.78,4.46,1.44,6.54,2.46,5.35,2.64,5.95,5.91,1.86,9.97-1.41,1.4-3.12,2.5-4.7,3.72-21.16,16.22-42.42,32.31-63.41,48.75-3.77,2.96-6.83,3.14-10.87,1.31-24.27-11-48.56-21.96-72.92-32.77-6.12-2.71-9.29-7.03-9.99-13.66-2.68-25.18-5.38-50.36-8.45-75.49-.72-5.94,1.73-8.99,6.18-12.26,43.77-32.18,87.29-64.69,131.14-96.75,6.13-4.48,8.38-8.57,7.17-16.43-3.29-21.39-5.35-42.97-7.94-64.47-.2-1.63-.67-3.23-1.38-6.54Z"/>
  <path class="st0" d="M2570.07,988.28c-4.91,3.35-9.17,5.9-13.04,8.95-18.04,14.23-36.04,28.52-53.88,43.01-2.75,2.24-5.17,2.76-8.16,1.43-19.17-8.51-38.29-17.14-57.51-25.55-4.36-1.91-4.16-5.74-4.56-9.21-1.71-14.89-3.2-29.8-4.75-44.71-5.84-55.98-11.68-111.95-17.53-167.93-1.38-13.25-2.83-26.49-4.09-39.75-.2-2.15.45-4.38.82-7.46,2.87.67,5.1.87,7.07,1.69,14.43,6.04,28.84,12.16,43.19,18.38,3.57,1.55,6.54,2.03,10.14-.52,22.01-15.6,44.19-30.96,66.3-46.43.51-.36.81-1.02,1.79-2.3-2.79-1.25-5.31-2.59-7.97-3.54-21-7.51-42.03-14.94-63.05-22.4-2.2-.78-4.48-1.4-6.56-2.42-5.3-2.6-5.89-5.97-1.79-10.05,1.41-1.4,3.1-2.52,4.69-3.73,21.16-16.2,42.42-32.27,63.4-48.7,3.77-2.95,6.68-3.18,10.8-1.31,24.25,11.01,48.6,21.81,72.9,32.72,5.45,2.45,9.18,6.04,9.84,12.6,2.56,25.18,5.28,50.34,8.32,75.47.72,5.98-.69,9.67-5.73,13.37-43.53,31.89-86.72,64.25-130.33,96.03-6.79,4.95-9.37,9.72-8.14,18.13,3.31,22.67,5.75,45.47,8.68,69.43,2.94-1.74,5.21-2.81,7.16-4.3,16.4-12.56,32.72-25.21,49.1-37.79,2.36-1.81,4.74-3.85,7.45-4.92,5.29-2.09,8.65-.18,9.12,5.4,2.39,28.2,4.54,56.42,6.74,84.64.05.62-.3,1.28-.42,1.76Z"/>
  <path class="st0" d="M411,429.09c-5,0-8.27-.07-11.53.01-20.32.51-40.63,1.05-60.95,1.61-4.74.13-9.39.15-12.25-4.57,1.76-7.05,39.06-69.92,46.65-78.91,8.67,0,16.89.28,25.09-.05,19.97-.81,39.93-1.76,59.87-2.99,4.05-.25,6.16,1.3,7.97,4.45,10.1,17.63,20.18,35.26,30.48,52.78,1.97,3.36,1.86,6.09-.06,9.25-2.94,4.83-5.68,9.8-8.51,14.7-39.03,67.45-78.06,134.91-117.14,202.34-1.92,3.32-4.29,6.39-7.1,10.54-2.34-2.67-4.04-4.12-5.14-5.93-7.78-12.81-15.66-25.57-23.04-38.6-2.95-5.21-6.41-7.45-12.56-7.49-24.98-.16-49.96-.87-74.95-1.34-1.6-.03-3.2.22-5.93.43,1.56,2.9,2.55,5.19,3.93,7.22,12.94,18.99,25.95,37.94,38.94,56.91,1.32,1.92,2.78,3.79,3.79,5.87,1.99,4.1.52,7.21-3.86,8.21-1.92.44-3.98.29-5.97.34-26.64.67-53.29,1.15-79.93,2.14-5.49.2-8.48-1.46-11.1-6.13-12.91-22.92-26.08-45.7-39.24-68.49-3.29-5.7-3.47-11.05-.08-16.9,12.69-21.9,25.3-43.85,37.56-65.99,2.89-5.22,6.5-6.46,12.05-6.5,54.3-.33,108.61-1.1,162.91-1.22,8.14-.02,12.48-2.68,16.18-9.78,9.06-17.42,19.02-34.39,28.58-51.55,1.59-2.86,3.01-5.8,5.35-10.34Z"/>
  <path class="st0" d="M1777.12,1463.33c7.52-12.83,14.24-23.9,20.56-35.2,6.33-11.31,12.32-22.8,18.34-34.28,2.9-5.53,6.59-6.25,10.55-1,5.39,7.16,10.44,14.62,15.01,22.33,7.46,12.61,14.37,25.55,21.62,38.28,2.45,4.31,5.23,8.42,8.44,13.56-.61,1.51-1.38,4.01-2.59,6.27-12.93,24.06-26.08,48-38.79,72.17-3.05,5.81-6.78,8.01-13.33,7.92-26.65-.34-53.32-.42-79.97,0-5.95.09-8.27-2.89-10.75-7.04-19.19-32-38.43-63.96-57.65-95.93-5.49-9.14-10.96-18.29-16.46-27.41-1.81-3-2.51-5.49-.26-9.08,26.78-42.57,53.33-85.29,79.91-127.98,10.21-16.4,20.35-32.85,30.5-49.29.68-1.11,1.16-2.35,2.07-4.23-2.74-.93-5.11-1.92-7.57-2.52-11.64-2.86-23.27-5.77-34.98-8.32-5.64-1.23-8.69-3.81-8.97-9.97-.65-13.97-1.95-27.92-2.64-41.89-.32-6.55.7-7.39,7.36-7.61,16.98-.57,33.98-.86,50.95-1.55,4.64-.19,7.19,1.56,9.53,5.48,12.96,21.74,26.11,43.38,39.44,64.91,2.79,4.5,2.72,7.98.37,12.81-24.07,49.41-48.82,98.45-77.2,145.57-3.16,5.25-3.14,9.31.12,14.5,12.03,19.15,23.64,38.56,36.39,59.5Z"/>
  <path class="st0" d="M823.51,1278.5c5.63,6.35,10,11.3,14.39,16.22,9.53,10.69,19,21.44,28.66,32.01,3.12,3.42,6.71,6.42,10.16,9.53,5.66,5.1,5.15,8.94-2.15,11.44-7.53,2.58-15.23,4.79-22.99,6.5-15.6,3.44-31.31,6.38-46.95,9.64-4.19.87-8.29,2.15-13.75,3.59-1.66-1.49-4.2-3.51-6.43-5.83-18.43-19.24-36.68-38.67-55.28-57.74-4.52-4.63-5.7-8.67-3.54-15.01,8.6-25.2,16.69-50.57,24.68-75.96,1.48-4.72,3.94-7.12,8.69-8.21,46.72-10.69,93.4-21.54,140.1-32.31,3.91-.9,7.16-1.22,10.52,2.81,34.55,41.44,69.39,82.63,104.16,123.88,10.09,11.97,20.2,23.92,30.34,35.85.82.97,1.92,1.69,3.6,3.15,7-11.39,13.77-22.41,20.54-33.43q6.96-11.33,19.58-8.17c11.62,2.93,23.25,5.81,34.82,8.92,7.37,1.98,7.73,2.7,5.75,9.49-4.65,15.98-9.64,31.86-14,47.92-1.43,5.27-4.15,7.54-9.32,8.7-24.67,5.56-49.29,11.37-73.87,17.37-4.43,1.08-7.26.31-10.56-2.95-20.14-19.89-40.99-39.07-60.74-59.34-18.12-18.6-35.55-37.92-52.42-57.65-6.03-7.05-11.51-7.86-19.78-5.7-20.58,5.39-41.39,9.91-64.21,15.28Z"/>
  <path class="st0" d="M1956.7,1138.74c-.91-9.28-1.62-16.52-2.34-23.76-1.44-14.58-2.82-29.16-4.36-43.73-.31-2.95-1.49-5.82-1.71-8.77-.22-3.1-.93-7.65.7-8.99,1.84-1.51,6.26-.85,9.17.08,7.89,2.54,15.72,5.4,23.32,8.72,13.12,5.72,26.02,11.93,39.07,17.83,4.51,2.04,9.16,3.74,14.85,6.04.53,2.29,1.53,5.41,1.97,8.61,3.56,26.06,6.85,52.15,10.6,78.18,1.02,7.08-.82,11.56-6.9,15.8-21.3,14.86-42.3,30.17-63.07,45.77-4.8,3.61-8.5,3.56-13.61,1.37-43.14-18.49-86.33-36.86-129.63-54.99-5.99-2.51-8.19-5.59-8.56-12.4-1.86-33.91-4.51-67.78-6.98-101.66-2.34-32.22-4.79-64.42-7.21-96.63-.24-3.24-.6-6.47-.99-10.66-3.2.93-5.7,1.42-8.03,2.37-11.1,4.5-22.14,9.18-33.24,13.69-7.56,3.07-7.87,3.06-12.81-2.75-8.85-10.4-17.62-20.87-26.26-31.44-4.93-6.03-4.72-7.01,1.54-11.85,12.92-9.98,26.01-19.73,38.74-29.93,4.19-3.36,7.57-3.79,12.58-1.62,22.59,9.81,45.35,19.25,68.17,28.52,5.48,2.23,8.01,5.19,8.98,11.41,4.33,27.62,9.95,55.04,14.13,82.68,3.14,20.72,4.81,41.67,7.13,62.51.74,6.62,1.58,13.23,2.11,19.86.29,3.7,1.65,6.07,5.26,7.56,21.8,9,43.53,18.17,67.37,28.17Z"/>
  <path class="st0" d="M1293.24,429.78c-2.88.95-5.42,1.57-7.77,2.6-17.7,7.76-35.38,15.53-53,23.47-3.61,1.63-6.9,3.97-10.35,5.96-5.99,3.45-9.73,1.76-9.71-5.31.03-10.61.79-21.25,1.7-31.83,1.47-17.22,3.17-34.42,5.18-51.57.24-2.05,2.68-4.44,4.72-5.58,5.81-3.24,11.93-5.93,17.93-8.81,18.93-9.07,37.98-17.89,56.72-27.33,6.13-3.09,10.53-2.98,16.19,1.29,21.01,15.86,42.34,31.31,63.85,46.49,4.53,3.2,5.83,6.47,5.36,11.63-2.38,25.88-4.52,51.78-6.77,77.68-1.76,20.25-3.92,40.47-5.17,60.75-.49,7.9-2.91,11.83-10.83,14.99-62.8,25.05-125.33,50.81-187.93,76.37-1.51.62-2.92,1.49-5.11,2.62,2.26,2.88,4.2,5.52,6.31,8,7.54,8.9,15.04,17.83,22.75,26.59,3.3,3.75,4.05,7.17,1.16,11.62-7.79,12.03-15.16,24.32-22.94,36.35-3.55,5.49-4.69,5.57-10.39,1.69-14.05-9.56-27.97-19.32-42.08-28.78-3.8-2.54-5.04-5.34-4.61-9.97,2.18-23.56,4.23-47.13,5.77-70.73.55-8.4,3.46-13.31,11.4-17.5,47.46-25.01,95.16-49.49,144.58-70.45,5.68-2.41,7.82-5.71,8.2-11.86,1.24-19.62,3.22-39.18,4.83-58.78.24-2.93.03-5.89.03-9.6Z"/>
  <path class="st0" d="M1292.87,1466.85c-.69-10.36-1.26-19.24-1.87-28.12-.43-6.31-.86-12.63-1.38-18.93-.35-4.24,1.37-6.81,5.39-8.38,13.64-5.34,27.15-11.02,40.81-16.31,5.53-2.14,6.59-1.5,8.73,4.38,5.9,16.27,11.57,32.63,17.5,48.89,1.41,3.87.97,6.65-1.87,9.89-16.9,19.29-33.59,38.77-50.24,58.28-3.06,3.59-5.91,4.93-11.11,4.1-27.94-4.45-56.1-7.62-83.99-12.4-25.25-4.32-50.25-10.13-75.36-15.28-2.61-.53-5.24-1.36-7.85-1.36-2.09,0-4.96.38-6.16,1.75-16,18.2-31.77,36.6-48.21,55.66,3.03,1.11,4.77,2.01,6.61,2.38,23.81,4.72,47.62,9.39,71.46,13.98,5.65,1.09,7.51,4.19,4.09,9.12-5.1,7.36-10.67,14.44-16.57,21.19-8.54,9.78-17.58,19.13-26.34,28.73-4.68,5.13-9.2,10.4-14.55,16.47-2.64-.32-6.25-.58-9.8-1.22-25.55-4.62-51.06-9.48-76.65-13.87-6.78-1.16-10.12-4.26-12.16-10.92-7.71-25.14-15.94-50.12-24.3-75.05-1.56-4.66-1.34-8.01,1.96-11.78,32.01-36.62,63.88-73.36,95.81-110.04,1.07-1.23,2.43-2.21,3.67-3.33,70.5,17.31,140.8,34.58,212.4,52.16Z"/>
  <path class="st0" d="M1441.92,582.26c1.05,14.27,2.02,27.48,2.99,40.69.2,2.65.93,5.39.49,7.93-.35,2.02-1.69,4.82-3.33,5.52-15.84,6.73-31.84,13.09-48.03,19.65-1.67-2.75-2.98-4.28-3.61-6.05-5.72-15.99-11.1-32.1-17.08-47.99-1.93-5.13-1.04-8.42,2.53-12.46,16.31-18.49,32.39-37.18,48.22-56.09,3.95-4.71,7.8-5.77,13.79-4.83,26.64,4.18,53.47,7.21,80.05,11.73,23.94,4.07,47.89,8.64,71.37,14.75,13.43,3.49,22.04,1.32,30.25-10.27,9.2-13,20.6-24.43,31.01-36.57,2.11-2.46,4.05-5.05,6.93-8.65-4.56-1.24-7.91-2.31-11.34-3.06-17.89-3.91-35.79-7.77-53.71-11.55-2.91-.61-5.97-.51-8.88-1.15-3.07-.67-7.19-.94-8.77-2.99-2.66-3.46.78-6.8,2.99-9.63,5.12-6.54,10.15-13.18,15.66-19.38,9.52-10.7,19.44-21.05,29.09-31.65,3.33-3.66,6.35-7.6,9.92-11.91,1.8.09,4.12-.05,6.34.36,27.19,4.96,54.33,10.2,81.56,14.88,6.17,1.06,9.1,3.75,10.93,9.59,8.05,25.74,16.37,51.39,24.98,76.95,1.53,4.53.66,7.42-2.23,10.73-31.53,36.16-62.98,72.4-94.45,108.62-2.65,3.05-4.96,5.44-10.07,4.16-59.41-14.91-118.91-29.5-178.38-44.17-9.31-2.3-18.63-4.57-29.22-7.17Z"/>
  <path class="st0" d="M849.99,940.39c-23.57-9.87-46.81-19.6-71.61-29.99.75,9.01,1.3,16.46,2.01,23.89,1.31,13.6,2.57,27.2,4.16,40.76.58,4.93,2.15,9.73,3.05,14.63,1.06,5.72-1.55,8.55-7.22,6.9-8.28-2.41-16.47-5.29-24.41-8.66-18.06-7.66-36.01-15.6-53.8-23.85-2.04-.95-3.63-4.49-4.04-7.06-2.18-13.81-3.95-27.7-5.82-41.56-1.87-13.86-3.48-27.76-5.64-41.58-.83-5.3.51-8.68,4.92-11.83,22.23-15.88,44.37-31.89,66.3-48.19,4.2-3.12,7.56-2.85,11.87-.99,18.95,8.19,37.99,16.19,57,24.25,24.53,10.4,49.01,20.91,73.63,31.1,5.55,2.3,7.69,5.18,8.09,11.68,2.41,39.57,5.58,79.09,8.5,118.63,1.69,22.93,3.35,45.85,5.07,68.78.54,7.27,1.21,14.52,1.92,22.97,9.55-3.85,18.1-7.28,26.63-10.75,3.7-1.5,7.37-3.09,11.06-4.62q11.32-4.69,19.12,4.6c7.28,8.68,14.56,17.36,21.77,26.1,2.06,2.5,3.89,5.19,6.08,8.13-1.86,1.94-3.02,3.52-4.51,4.67-13.17,10.2-26.58,20.11-39.53,30.58-4.85,3.92-8.71,3.98-14.32,1.52-22.26-9.75-44.73-19.07-67.28-28.13-5.68-2.28-7.97-5.52-8.92-11.56-4.15-26.31-9.32-52.46-13.33-78.79-2.9-19.08-4.55-38.36-6.77-57.55-1.3-11.22-2.6-22.44-3.96-34.1Z"/>
  <path class="st0" d="M1025.1,885.9c-3.65.48-5.57.91-7.49.97-16.65.48-33.31.74-49.95,1.44-5.26.22-8.4-1.26-11.21-6.02-12.5-21.24-25.33-42.29-38.39-63.19-3.17-5.08-3.44-8.89-.58-14.47,12.45-24.29,23.66-49.23,36.38-73.38,12.25-23.27,25.79-45.86,38.75-68.75,1.8-3.18,3.56-6.38,5.68-10.18-13.04-21.49-26.13-43.06-39.8-65.6-1.98,2.44-3.54,3.95-4.6,5.75-10.12,17.23-20.22,34.48-30.17,51.8-1.81,3.15-2.93,6.68-4.4,10.02-3.13,7.13-6.62,7.72-11.44,1.32-4.98-6.62-9.62-13.56-13.88-20.67-9.91-16.54-19.41-33.32-29.27-49.89-2.45-4.11-.03-7.01,1.63-10.12,9.27-17.32,18.64-34.59,27.98-51.88,3.8-7.03,7.78-13.97,11.35-21.12,2.22-4.44,5.33-6.11,10.29-6.08,27.65.18,55.31.28,82.96-.06,6.12-.07,7.92,3.81,10.3,7.76,20.25,33.68,40.49,67.37,60.74,101.06,4.12,6.85,8.08,13.8,12.4,20.52,2.68,4.17,2.35,7.16-.44,11.61-36.79,58.7-73.23,117.62-109.74,176.49-.5.81-.68,1.83-1.38,3.8,5.73,1.54,11.3,3.14,16.91,4.53,9.05,2.24,18.13,4.36,27.21,6.47,3.47.81,6.54,2.16,6.82,6.17,1.18,16.89,2.22,33.79,3.37,51.69Z"/>
  <path class="st0" d="M1567.34,1426.12c-10.26-12.06-19.34-22.68-28.34-33.35-6.09-7.22-6.08-7.28-.98-15.47,6.52-10.46,13.05-20.92,19.69-31.3,1.72-2.69,3.85-5.11,5.67-7.49,1.94.65,2.99.77,3.76,1.3,14.86,10.14,29.65,20.38,44.54,30.48,3.29,2.23,5.12,4.6,4.73,8.97-2.32,26.22-4.44,52.45-6.44,78.69-.33,4.32-2.61,6.23-6.15,8.11-47.97,25.43-96,50.73-146.17,71.63-7.77,3.24-11.23,7.41-11.58,16.06-.74,18.29-2.74,36.53-4.13,54.8-.25,3.26-.04,6.55-.04,10.81,3.35-1.23,6.12-2.09,8.76-3.25,17.09-7.47,34.19-14.93,51.19-22.58,3.92-1.76,7.45-4.36,11.24-6.41,5.72-3.09,9.11-1.48,9.16,5.12.08,9.97-.28,19.98-1.19,29.9-1.28,13.93-3.31,27.78-4.86,41.68-.51,4.61-.52,9.27-.81,15.07-2.16,1.24-4.88,3.03-7.79,4.43-23.7,11.43-47.5,22.65-71.11,34.27-6,2.95-10.56,3.24-16.34-1.13-21.27-16.05-42.95-31.59-64.63-47.09-3.68-2.63-5.29-5.24-4.86-9.88,4.43-48.44,8.66-96.89,12.97-145.34.15-1.64.48-3.26.78-5.21,67.16-27.41,134.24-54.79,202.91-82.82Z"/>
  <path class="st0" d="M1688.02,709.85c-7.24,11.7-13.32,21.53-19.39,31.36-1.93,3.12-3.95,6.18-5.75,9.36-1.92,3.39-4.69,4.62-8.37,3.68-15.47-3.94-30.94-7.91-46.38-11.95-.85-.22-1.51-1.2-2.54-2.06.24-1.86.25-3.86.79-5.71,4.64-15.98,9.53-31.9,14.02-47.93,1.52-5.45,4.23-7.88,10.06-9.13,23.43-5.04,46.76-10.57,69.96-16.59,7.15-1.86,11.5-.16,16.57,4.92,19.05,19.1,39.1,37.22,57.92,56.54,17.66,18.13,34.24,37.3,51.29,56.02q9.31,10.22,22.76,7.03c20.04-4.77,40.08-9.55,61.16-14.57-1.53-2.45-2.41-4.44-3.79-6-13.25-14.97-26.53-29.91-39.94-44.73-2.66-2.93-5.99-5.25-8.92-7.95-4.75-4.37-4.35-8.12,1.84-10.27,8.77-3.04,17.76-5.58,26.81-7.67,18.13-4.2,36.35-8.03,54.58-11.76,1.92-.39,4.28.69,6.26,1.51,1.14.47,1.95,1.77,2.87,2.73,18.85,19.77,37.61,39.63,56.62,59.25,3.96,4.08,5.08,7.84,3.22,13.36-8.7,25.87-17.22,51.81-25.37,77.86-1.64,5.24-4.95,6.3-9.37,7.31-34.07,7.79-68.11,15.72-102.17,23.61-12.65,2.93-25.32,5.74-37.94,8.82-3.93.96-6.44.58-9.39-2.96-34.58-41.43-69.42-82.64-104.2-123.91-9.02-10.7-18.09-21.35-27.08-32.07-1.88-2.24-3.53-4.67-6.12-8.11Z"/>
  <path class="st0" d="M2495.4,1153.93c-2.28,5.18-3.41,8.52-5.13,11.52-11.77,20.5-23.42,41.06-35.65,61.28-3.46,5.72-3.17,9.81.31,15.32,11.71,18.58,22.85,37.53,34.2,56.34,1.2,1.99,2.55,3.93,3.52,6.04,2.15,4.68.75,7.9-4.14,8.93-2.89.61-5.96.42-8.95.51-24.94.7-49.88,1.38-74.98,2.06-2.08,3.47-4.02,6.55-5.81,9.71-10.78,19.14-21.52,38.31-32.29,57.45-1.3,2.32-2.51,4.73-4.15,6.8-2.31,2.92-5.2,2.97-7.59.14-1.7-2.01-2.94-4.43-4.27-6.73-11.97-20.76-23.91-41.54-35.88-62.3-1.64-2.85-3.41-5.62-5.24-8.61-19.15,1.46-37.93,2.9-56.37,4.31-3.07-5.62.21-8.83,1.87-12.16,22.01-44.06,44.12-88.07,66.21-132.1,11.49-22.9,22.99-45.81,34.48-68.71,1.05-2.08,1.91-4.29,3.21-6.2,2.99-4.42,6.08-4.47,9.49-.18,1.44,1.81,2.5,3.92,3.69,5.93,8.81,14.9,17.8,29.7,26.29,44.78,2.65,4.7,5.67,6.39,11.05,6.26,23.97-.58,47.94-.75,71.91-.99,3.91-.04,7.82.33,14.21.63Z"/>
  <path class="st0" d="M774.37,237.97c8.02,4.89,15.93,9.72,23.85,14.53,6.83,4.16,13.77,8.14,20.48,12.49,5.28,3.42,5.04,6.07-.44,9.34-1.14.68-2.37,1.23-3.55,1.84-66.57,34.46-133.12,68.95-199.75,103.29-3.61,1.86-7.29,6.15-11.78,3.27-5.01-3.2-2.27-8.48-1.88-12.92,1.49-16.93,2.9-33.87,4.82-50.75.65-5.71-1-9.1-5.75-12.35-18.72-12.77-37.14-25.97-55.68-39-1.36-.96-2.73-1.91-4.09-2.88-10.01-7.15-9.88-9.38,1.05-14.25,20.08-8.96,40.21-17.8,60.31-26.71,13-5.76,12.83-5.79,13.99-20.37,1.69-21.26,3.52-42.51,5.54-63.73.9-9.53,4.18-11.04,12.19-5.64,19.89,13.42,39.76,26.87,59.35,40.72,5.05,3.57,9.07,3.81,14.54,1.19,19.53-9.34,39.29-18.2,58.97-27.24,1.82-.83,3.56-1.96,5.46-2.45,3.07-.79,6.8-2.46,9.26-1.43,4.14,1.74,2.41,6.36,2.04,9.86-2.9,27.47-5.9,54.94-8.95,83.19Z"/>
  <path class="st0" d="M2253.32,741.89c-1.53-4.6-2.56-6.7-2.92-8.9-10.88-66.03-21.69-132.07-32.52-198.11-1.62-9.86-3.48-19.68-4.83-29.57-.41-3.04-.55-7.08,1.08-9.21,2.84-3.71,6.78-.61,9.97.75,16.54,7.04,33.11,14.05,49.45,21.54,5.18,2.37,8.83,2.17,13.47-1.43,18.42-14.29,37.2-28.12,55.85-42.12,1.33-1,2.66-2.01,4.01-2.98,8.29-5.97,10.42-5.13,11.54,5.06,2.61,23.83,5.38,47.66,7.33,71.55.58,7.1,3.34,10.46,9.66,12.99,20.08,8.06,39.95,16.66,59.89,25.06,2.45,1.03,5,1.94,7.28,3.28,4.46,2.62,4.88,5.89,1.21,9.7-1.83,1.9-4.1,3.4-6.21,5.02-17.15,13.22-34.08,26.75-51.59,39.47-6.52,4.73-8.63,9.57-7.53,17.49,3.15,22.76,5.51,45.62,8.19,68.44.19,1.65.63,3.32.53,4.95-.27,4.18-2.62,5.96-6.74,4.88-2.55-.67-4.94-1.96-7.37-3.05-23.42-10.44-46.83-20.89-70.25-31.32-1.19-.53-2.46-.89-4.37-1.56-7.19,6.16-14.46,12.46-21.81,18.67-7.25,6.12-14.13,12.73-23.33,19.39Z"/>
  <path class="st0" d="M2204.39,1793.03c-29.05,14.03-56.75,25.15-83.99,37.9-1.46,16.54-2.91,32.76-4.31,48.99-.83,9.62-1.46,19.26-2.36,28.87-.93,9.97-4.36,11.61-12.82,5.89-19.31-13.06-38.5-26.29-57.75-39.45-2.46-1.68-4.97-3.3-7.84-5.21-2.36.9-4.85,1.69-7.21,2.77-20.58,9.43-41.14,18.91-61.7,28.37-2.12.97-4.2,2.04-6.39,2.84-6.45,2.36-8.95.84-8.47-6,.78-11.29,2.13-22.54,3.32-33.8,1.58-14.9,3.28-29.79,4.83-44.69.27-2.62.04-5.29.04-8.96-7.73-4.7-16.01-9.54-24.09-14.72-7.98-5.12-16.82-9.04-24.91-16.41,2.91-2.22,4.69-4.06,6.85-5.18,68.28-35.4,136.59-70.72,204.91-106.06.89-.46,1.76-.96,2.69-1.33,6.31-2.51,8.99-.98,8.98,5.59,0,4.65-.64,9.3-1.08,13.94-1.59,16.89-3.21,33.77-4.86,51.18,8.42,5.98,16.8,11.95,25.2,17.88,8.16,5.76,16.45,11.35,24.5,17.27,8.18,6.01,17.24,10.95,26.47,20.29Z"/>
  <path class="st0" d="M454.1,1527.66c-20.97,15.74-41.4,31.24-62.06,46.43-3.75,2.76-7.48,9.06-12.46,5.74-2.8-1.86-3.1-8.23-3.6-12.67-2.55-22.51-4.96-45.04-7.03-67.6-.55-6.04-2.93-9.3-8.63-11.6-20.7-8.34-41.18-17.22-61.74-25.9-1.84-.78-3.76-1.41-5.5-2.37-5.53-3.03-6.13-6.66-1.15-10.84,7.14-6,14.71-11.48,22.1-17.18,12.67-9.76,25.27-19.63,38.09-29.2,3.93-2.93,5.23-5.94,4.57-10.95-2.98-22.79-5.6-45.63-8.07-68.49-.47-4.39-3.17-9.84,1.33-13.12,4.56-3.32,8.81,1.15,12.84,2.91,21.98,9.6,43.92,19.3,65.67,29.4,5.65,2.62,9.53,2.22,14.16-2.03,10.3-9.47,21.04-18.47,31.73-27.5,6.33-5.34,8.67-4.46,10.06,3.87,7.26,43.37,14.39,86.75,21.57,130.13,5.11,30.89,10.32,61.77,15.24,92.69.74,4.64,4.09,10.94-1.07,13.71-3.01,1.61-8.79-.86-12.89-2.57-17.52-7.29-34.87-14.97-53.16-22.89Z"/>
  <path class="st0" d="M284.26,814.41c-12.4-20.55-24.77-41.05-37.14-61.56-1.72-2.85-3.68-5.6-5-8.63-2.05-4.71-.31-7.83,4.9-8.4,5.28-.58,10.64-.5,15.97-.64,19.64-.55,39.28-1.37,58.93-1.44,6.62-.02,10.12-2.43,13.19-8.13,10.58-19.63,21.72-38.96,32.64-58.41.98-1.74,1.85-3.55,2.92-5.23,4.24-6.67,7.47-6.81,11.53.02,8,13.45,15.68,27.08,23.49,40.64,6.31,10.96,12.62,21.92,19.5,33.87,6.61-.39,13.51-.69,20.39-1.23,9.96-.79,19.89-1.83,29.85-2.65,8.54-.7,9.97,1.26,6.27,8.8-5.87,11.95-11.92,23.81-17.89,35.72-27.92,55.64-55.8,111.3-83.82,166.88-1.99,3.94-2.58,10.03-8.13,10.37-6.24.39-7.21-6.14-9.67-10.15-8.69-14.2-17.25-28.49-25.36-43.02-2.82-5.06-6.1-6.83-11.84-6.66-23.3.7-46.62.94-69.93,1.35-2,.03-4,.09-5.99.04-8.83-.23-10.16-2.36-5.68-10.18,12.58-21.95,25.36-43.8,38.03-65.7.98-1.7,1.77-3.51,2.84-5.66Z"/>
  <path class="st0" d="M130.47,565.68c-11.01-20.72-20.81-39.16-30.65-57.69-15.7.87-30.64,1.69-45.59,2.55-10.64.61-21.28,1.26-31.91,1.97-2.64.18-5.31.48-7.89,1.07-2.44.56-5.36,3.24-6.93-.13-.85-1.83.12-5.14,1.3-7.2,12.67-22.29,25.22-44.66,38.53-66.57,4.37-7.19,4.61-12.54.18-19.82-11.94-19.62-22.99-39.78-34.33-59.76-1.27-2.25-2.1-4.75-3.77-8.59,4.22-.83,7.52-1.95,10.85-2.06,22.31-.7,44.62-1.58,66.93-1.51,7.8.02,11.86-2.8,15.62-9.3,12.64-21.86,25.91-43.35,39.12-65.28,5.12-.58,6.29,3.97,8.3,7.07,12.13,18.73,24.43,37.36,35.98,56.44,4.15,6.85,8.85,9.46,16.79,9.2,14.3-.47,28.64.13,42.96.31,2.33.03,4.7-.08,6.98.31,4.54.77,6.2,3.42,4.84,7.91-.66,2.18-1.98,4.2-3.17,6.19-38.97,65.16-77.94,130.32-116.98,195.44-1.75,2.93-4.13,5.48-7.17,9.45Z"/>
  <path class="st0" d="M2682.17,1619.47c12.31,21.58,24.34,42.69,36.38,63.8,9.05,15.87,8.76,16.31-9.42,16.72-21.32.47-42.64,1.32-63.96,1.53-5.75.06-8.97,2.02-11.81,6.93-12.85,22.18-26.07,44.15-39.2,66.17-.3.51-1.05.75-2.79,1.92-2.3-2.72-5.05-5.35-7.06-8.45-12.32-19.01-24.68-38-36.55-57.3-3.4-5.52-7.2-7.62-13.65-7.55-15.32.16-30.65-.52-45.98-.84-12.99-.27-14.55-2.86-7.93-13.95,22.18-37.2,44.46-74.34,66.7-111.5,16.6-27.73,33.16-55.48,49.84-83.15,1.93-3.2,4.54-5.99,7.81-10.24,10.64,20.01,20.4,38.38,30.65,57.65,30.39-1.96,60.8-3.92,92.16-5.94,2.65,3.23-.57,6.43-2.44,9.7-12.43,21.68-24.92,43.32-37.38,64.97-1.66,2.88-3.27,5.79-5.37,9.53Z"/>
  <path class="st0" d="M274.23,29.31c-5.76,14.57-138.24,225.48-145.02,230.82-10.87-19.78-19.64-40.41-30.35-60.65-21.45,1.19-42.7,2.36-63.94,3.54-4.99.28-9.97.78-14.96.84-11.38.14-14.62-5.18-9.02-14.83,11.2-19.29,22.51-38.52,33.78-57.77,1.34-2.3,3.43-4.48,3.86-6.94,1.37-7.94,6.55-8.42,13.1-8.22,23.3.72,46.62.82,69.92,1.71,6.58.25,10.21-1.91,13.55-7.5,12.81-21.43,26.23-42.5,39.22-63.82,2.82-4.63,5.85-6.29,11.74-6.78,14.54-1.21,28.93-4.33,43.37-6.74,8.53-1.42,17.03-3.1,25.59-4.32,2.63-.38,5.42.35,9.16.66Z"/>
  <path class="st0" d="M2605.43,1787.48c10.9,22.21,20.68,42.12,30.49,62.1,15.2-.8,29.81-1.55,44.41-2.33,10.98-.59,21.98-.96,32.93-1.93,5.91-.52,10.48.9,14.5,7.02-1.23,2.48-2.63,5.74-4.4,8.78-10.55,18.14-21.23,36.21-31.76,54.37-2.99,5.15-5.63,10.5-8.87,16.57h-88.4c-3.12,4.92-6.37,9.93-9.52,15.01-11.59,18.68-23.2,37.36-34.7,56.1-2.57,4.2-5.04,5.92-10.87,6.16-12.55.52-24.99,3.6-37.47,5.67-9.53,1.59-19.02,3.35-28.57,4.81-3.48.53-7.05.43-10.38.6-2.41-6.45,1.78-9.8,4.09-13.52,38.71-62.24,77.54-124.4,116.34-186.58,5.11-8.2,10.15-16.44,15.37-24.57,1.52-2.37,3.58-4.39,6.79-8.26Z"/>
  <path class="st0" d="M848.5,1427.42c4.02-1.46,7.21-2.9,10.55-3.77,22.88-5.97,45.75-11.98,68.71-17.59,5.52-1.35,8.42-3.89,9.88-9.47,4.46-17.07,9.38-34.03,14.25-50.99.87-3.01,2.35-5.85,3.88-9.57,3.06,1.78,5.21,2.61,6.84,4.03,18.61,16.19,87.02,86.41,90.83,93.36-2.78,2.53-5.71,5.14-8.59,7.81-24.48,22.62-48.78,45.42-73.54,67.73-5.24,4.72-6.42,9.34-5.15,15.75,2.18,11.03,3.91,22.16,5.97,34.05-2.99,1.01-5.67,2.21-8.48,2.81-22.48,4.77-44.96,9.49-67.47,14.11-13.88,2.84-15.05,1.54-11.27-11.76,5.74-20.18,11.05-40.49,17.4-60.47,2.59-8.13.92-13.42-4.76-19.46-15.97-16.99-31.27-34.61-46.8-52.02-.62-.7-.87-1.72-2.25-4.54Z"/>
  <path class="st0" d="M1374.11,360.55c3.35-8.17,52.96-62.49,61.6-66.8,1.52,3.13,3.32,6.15,4.52,9.39,7.53,20.28,15.27,40.49,22.18,60.98,2.58,7.66,6.78,10.79,14.58,12.32,23.82,4.64,47.45,10.23,71.36,15.49,2.91,4.81-1.23,7.35-3.51,10.13-13.91,17.01-27.98,33.9-42,50.83-1.27,1.54-2.39,3.25-3.85,4.58-4.22,3.87-4.65,7.92-2.52,13.33,6.23,15.78,11.9,31.79,17.78,47.71.69,1.87,1.51,3.71,2,5.64,1.41,5.52-.23,7.64-5.64,7.42-.99-.04-1.97-.34-2.95-.49-38.78-6.18-77.57-12.33-116.35-18.56-10.56-1.7-10.38-1.77-8.16-12.73,6.85-33.92,13.5-67.89,20.41-101.8,1.04-5.1.04-8.78-3.87-12.4-8.76-8.11-17.1-16.67-25.6-25.05Z"/>
  <path class="st0" d="M738.1,813.13c-7.1-6.13-43.19-69.94-44.35-79.35,13.91-3.07,28.2-1.56,42.25-2.46,14.26-.92,28.56-1.31,43.28-1.94,14.33-24.4,28.6-48.72,43.77-74.55,2.98,3.53,5.5,5.92,7.31,8.75,12.58,19.62,25.2,39.22,37.37,59.1,3.52,5.75,7.23,8.36,14.3,7.82,15.93-1.21,31.93-1.45,47.91-2.07,2.66-.1,5.34-.36,7.99-.15,5.53.43,6.79,2.64,4.68,7.98-.73,1.85-1.74,3.6-2.64,5.38-17.23,33.81-34.45,67.63-51.73,101.43-1.61,3.14-3.55,6.1-5.69,9.74-4.33-2.48-7.71-4.45-11.11-6.36-29.05-16.28-58.2-32.36-87.06-48.96-5.98-3.44-10.58-3.57-16.45-.13-9.7,5.68-19.87,10.56-29.82,15.77Z"/>
  <path class="st0" d="M1681.12,616.07c16.09-14.85,31.48-29.05,46.85-43.25,12.23-11.3,24.31-22.78,36.77-33.82,4.29-3.8,5.44-7.52,4.27-13.09-2.39-11.35-4.04-22.86-6.19-35.42,2.44-.86,5.05-2.14,7.8-2.7,26.58-5.37,52.93-11.97,81.6-16.36-.78,5.27-.93,8.75-1.84,12.02-6.05,21.81-12.05,43.64-18.59,65.3-1.68,5.55-.75,9.2,3.05,13.36,16.64,18.17,33,36.61,49.43,54.97.63.71.96,1.69,1.43,2.54-1.23,5.29-6.04,4.89-9.56,5.82-21.88,5.77-43.76,11.62-65.82,16.64-8.26,1.88-12.12,5.86-14.09,13.96-4.01,16.48-8.92,32.75-13.68,49.04-2.38,8.14-5.06,9.06-10.67,3.48-29.3-29.12-58.45-58.38-87.61-87.63-1.11-1.12-1.77-2.69-3.15-4.85Z"/>
  <path class="st0" d="M734,1223.36c-8.42-.5-75.48-30.76-82.64-37.78,2.47-2.44,4.72-5.13,7.42-7.27,17.22-13.64,34.38-27.38,51.93-40.6,5.73-4.32,7.69-8.74,6.8-15.95-2.86-23.12-4.98-46.32-7.29-69.5-.18-1.85.33-3.77.64-6.93,4.41,1.33,8.18,2.18,11.74,3.58,21.69,8.49,43.39,16.95,64.93,25.8,5.26,2.16,8.99,1.88,13.5-1.86,13.33-11.04,27.08-21.57,40.69-32.27,1.83-1.44,3.62-3,5.66-4.05,2.81-1.44,5.32-.75,6.34,2.47.8,2.52,1.25,5.17,1.67,7.8,6.07,38.12,12.14,76.23,18.1,114.37.45,2.85.06,5.83.06,9.47-8.21,1-16.05,1.98-23.89,2.9-29.42,3.46-58.81,7.11-88.27,10.2-6.13.64-9.47,2.98-11.96,8.45-4.8,10.55-10.25,20.8-15.42,31.18Z"/>
  <path class="st0" d="M1883.7,1014.84c-1.49-3.98-3.09-6.79-3.57-9.78-6.23-38.77-12.32-77.56-18.39-116.36-.49-3.13-.59-6.32-.93-10.1,12.92-1.57,24.72-3.06,36.52-4.44,25.12-2.94,50.24-5.99,75.39-8.63,6.71-.7,10.65-3.44,13.38-9.72,4.48-10.3,9.89-20.19,14.86-30.16,7.62.75,46.42,17.12,75.21,31.72,2.52,1.28,4.76,3.12,8.27,5.46-3.52,3.37-5.88,6.02-8.62,8.19-17.23,13.64-34.42,27.33-51.92,40.62-5.01,3.81-7.18,7.49-6.4,14.12,2.67,22.81,4.54,45.71,6.79,68.57.95,9.66-.03,10.51-9.46,6.81-20.45-8.02-40.77-16.34-61.27-24.22-16.78-6.45-10.42-7.41-25.22,3.91-12.16,9.31-24.05,18.98-36.11,28.41-2.27,1.78-4.83,3.18-8.53,5.59Z"/>
  <path class="st0" d="M1590.76,1642.79c0-10.11-.35-18.71.07-27.27.91-18.3,2.01-36.6,3.51-54.85.51-6.19-1.68-9.68-6.75-12.91-14.05-8.94-27.78-18.38-41.63-27.64-2.21-1.48-4.55-2.86-6.46-4.68-2.35-2.24-2.15-4.86.49-6.81,1.86-1.37,4.01-2.37,6.08-3.43,34.41-17.57,68.82-35.13,103.27-52.63,2.84-1.44,5.93-2.41,9.5-3.84,2.06,4.51,3.69,8.07,5.32,11.62,13.94,30.25,28.03,60.43,41.7,90.79,2.61,5.79,5.65,8.85,12.34,9.43,11.23.98,22.36,3.14,34.76,4.98,2.2,9.8-1.29,19.8-1.88,29.81-.59,9.96-1.77,19.92-3.24,29.79-1.48,9.98-.65,20.45-5.37,31.37-4.11-2.32-7.28-3.86-10.18-5.8-18.02-12.01-36.21-23.79-53.84-36.34-6.35-4.52-11.34-4.57-18.19-1.38-20.53,9.55-41.4,18.36-62.16,27.41-2.01.87-4.18,1.37-7.34,2.39Z"/>
  <path class="st0" d="M982.85,483.63c-2.35-9.34,5.7-81.81,10.43-90.38,3.06,1.62,6.3,3.01,9.18,4.94,18.57,12.36,37.19,24.67,55.5,37.41,4.97,3.46,8.98,3.92,14.51,1.39,22.09-10.12,44.38-19.78,66.61-29.58,1.16-.51,2.45-.72,5.08-1.47.4,4.01,1.21,7.42,1,10.78-1.42,23.6-2.81,47.21-4.76,70.76-.54,6.54,1.3,10.34,6.87,13.83,14.38,9.02,28.37,18.67,42.43,28.19,2.89,1.96,5.42,4.46,8.74,7.23-2.57,2.29-4.05,4.08-5.93,5.22-18.42,11.17-109.15,56-116.91,57.61-1.35-3.05-2.75-6.32-4.23-9.54-14.21-30.84-28.66-61.57-42.47-92.58-2.76-6.2-6.69-8.33-12.7-9.08-11.17-1.41-22.31-3.14-33.36-4.72Z"/>
  <path class="st0" d="M1184.29,1656.58c2.46-4.08,3.9-7.26,6.03-9.87,14.34-17.52,28.52-35.18,43.42-52.21,5.53-6.31,6.89-11.59,3.55-19.49-6.21-14.69-11.34-29.85-16.81-44.85-1.21-3.31-1.94-6.8-3.35-11.83,4.85-.06,8.35-.59,11.69-.07,38.79,6.02,77.57,12.17,116.33,18.38,2.82.45,5.53,1.61,8.67,2.56-3.66,18.4-7.15,35.94-10.64,53.48-3.83,19.25-7.33,38.57-11.65,57.71-1.38,6.14.17,9.91,4.51,13.9,8.53,7.85,16.64,16.15,25.58,24.92-1.7,2.34-3.2,4.84-5.11,6.96-15.83,17.55-31.74,35.03-47.63,52.53-.89.99-1.77,2-2.76,2.89-5.16,4.69-7.65,4.33-10.14-2.17-5.47-14.29-10.63-28.7-15.89-43.07-2.98-8.12-6.11-16.19-8.8-24.41-1.62-4.94-4.32-7.34-9.67-8.45-25.05-5.17-49.98-10.88-77.35-16.92Z"/>
  <path class="st0" d="M1911.47,1393.72c-2.72-3.23-5.24-5.63-7.06-8.48-12.22-19.07-24.79-37.95-36.19-57.51-4.63-7.95-9.91-10.01-18.51-9.32-15.6,1.25-31.28,1.47-46.93,2-3.52.12-7.05-.25-12.04-.45,1.18-4.1,1.54-7.02,2.79-9.48,18.35-36.26,36.79-72.46,55.29-108.65.86-1.68,2.39-3.01,4.11-5.12,35.34,19.79,70.4,39.41,105.73,59.19,12.88-6.71,25.52-13.3,38.15-19.89,6.77,5.64,43.14,69.58,44.5,79.18-3.43.47-6.86,1.21-10.31,1.37-22.3,1-44.6,2.14-66.92,2.61-6.63.14-10.06,2.72-13.18,8.26-11.58,20.61-23.64,40.96-35.56,61.39-.79,1.34-1.94,2.48-3.87,4.91Z"/>
  <path class="st0" d="M1650.75,1238.76c19.55-.63,37.16-1.19,54.76-1.77,7.66-.26,15.31-.8,22.97-.77,3.03.01,6.05,1.23,10.26,2.17-1.86,3.95-2.89,6.68-4.35,9.15-13.42,22.63-26.98,45.18-40.33,67.85-3.31,5.62-6.9,8.11-14.29,7.95-23.96-.51-47.98-.04-71.93,1.07-9.49.44-14.5-3.07-18.84-10.98-9.76-17.81-20.17-35.27-30.64-52.68-3.25-5.4-3.82-9.65-.17-15.43,27.07-42.78,53.76-85.79,80.58-128.73.88-1.41,1.69-2.9,2.78-4.14,3.14-3.56,6.03-3.7,9.03.2,4.05,5.27,7.61,10.93,11.35,16.44,7.48,11.03,14.53,22.37,22.57,32.97,3.82,5.03,3.09,8.66.4,13.47-10.1,18.01-19.95,36.16-29.85,54.27-1.23,2.26-2.24,4.64-4.31,8.97Z"/>
  <path class="st0" d="M1251.49,1360.48c1.34,4.01,2.31,7.14,3.43,10.21,6.84,18.75,13.73,37.49,20.58,56.24,1.03,2.81,2.14,5.62,2.84,8.51,1.62,6.77-.3,9.04-6.95,7.56-27.28-6.08-54.5-12.41-81.75-18.58-4.56-1.03-7.4-3.1-9-7.99-7.97-24.34-16.13-48.63-24.8-72.73-2.5-6.95-1.38-11.78,3.48-17.06,14.65-15.92,29.05-32.09,43.26-48.41,3.77-4.33,7.47-5.63,13.07-4.22,49.36,12.44,98.78,24.63,148.16,37,10.31,2.58,11.19,5.16,4.9,13.36-11.56,15.05-23.44,29.85-34.78,45.07-3.2,4.3-6.48,4.75-11.16,3.83-21.22-4.2-42.47-8.2-63.72-12.2-2.16-.41-4.41-.36-7.56-.59Z"/>
  <path class="st0" d="M1470.67,1364.15c3.95,2.83,6.56,4.79,9.26,6.61,17.39,11.72,34.79,23.41,52.18,35.13,1.93,1.3,3.97,2.52,5.64,4.1,4,3.78,3.57,6.53-1.28,9.27-1.15.65-2.43,1.08-3.65,1.61-23.85,10.23-47.75,20.34-71.52,30.76-6.41,2.81-11.11,2.48-17.18-2.08-19.43-14.57-39.43-28.41-59.61-41.93-6.8-4.56-8.85-9.56-7.84-17.49,2.62-20.79,4.85-41.66,6.46-62.55.56-7.27,3.91-10.28,10.1-12.75,46.03-18.4,91.95-37.08,137.9-55.66,2.16-.87,4.29-1.87,6.52-2.51,4.08-1.16,6.46.57,6.88,4.75.2,1.98.1,3.99.04,5.98-.55,17.63-1.67,35.28-1.42,52.9.11,7.88-3.19,11.08-9.62,13.96-17.61,7.88-34.97,16.32-52.42,24.58-2.96,1.4-5.84,2.97-10.45,5.33Z"/>
  <path class="st0" d="M1722.26,1031.17c24.41-17.09,45.09-36.37,70.09-52.98,1.44,5.12,2.88,8.36,3.2,11.71,2.35,24.88,4.2,49.81,6.82,74.66.93,8.82-.97,14.4-8.88,19.83-19.49,13.38-38.12,28.03-56.81,42.53-5.62,4.36-10.49,5.56-17.24,2.43-19.63-9.12-39.48-17.8-59.4-26.28-5.62-2.4-7.96-5.64-8.37-11.88-3.35-50.87-7.07-101.72-10.65-152.58-.65-9.29,1.65-11.31,10.07-8.35,18.54,6.51,36.93,13.45,55.51,19.83,4.83,1.66,5.64,4.94,6.15,9.08,2.37,18.84,4.8,37.67,7.25,56.5.6,4.6,1.33,9.18,2.26,15.51Z"/>
  <path class="st0" d="M1012.5,1017.96c-3.57,2.56-6.25,4.33-8.77,6.3-16.29,12.71-32.55,25.45-48.82,38.19-1.57,1.23-3.07,2.58-4.73,3.68-6.67,4.39-9.62,3.18-10.4-4.69-2.04-20.55-3.86-41.13-5.76-61.69-.67-7.3-1.34-14.6-1.94-21.9-.31-3.85.7-6.85,4.19-9.41,20.95-15.37,41.89-30.77,62.43-46.67,5.95-4.6,11.03-4.63,17.41-1.72,19.09,8.69,38.21,17.36,57.6,25.36,6.94,2.86,9.4,7.07,9.84,14.19,1.89,30.93,4.17,61.83,6.33,92.74,1.12,15.95,2.29,31.9,3.43,47.85.24,3.32.5,6.65.6,9.98.31,10.09-1.52,11.57-10.82,8.3-14.45-5.08-28.57-11.34-43.31-15.29-13.13-3.51-18.82-10.08-19.46-23.93-.81-17.58-4.06-35.05-6.3-52.56-.32-2.52-.88-5.01-1.55-8.72Z"/>
  <path class="st0" d="M1264.49,685.02c-4.15-2.95-7.06-5.09-10.05-7.11-17.4-11.73-34.85-23.37-52.19-35.2-3.14-2.14-5.79-4.98-9.85-8.53,3.66-2.37,5.85-4.27,8.39-5.37,24.75-10.72,49.57-21.26,74.32-31.95,5.34-2.31,9.41-1.92,14.55,1.88,19.81,14.65,40.05,28.74,60.46,42.55,6.24,4.22,9.05,8.65,8.14,16.42-2.57,21.82-4.66,43.71-6.52,65.61-.57,6.67-4.74,8.71-9.93,10.79-39.54,15.89-79.03,31.91-118.53,47.9-7.72,3.12-15.36,6.44-23.16,9.33-7.51,2.78-10.11,1.14-9.96-6.71.41-20.31,1.28-40.62,1.78-60.93.12-4.78,3.6-5.99,6.85-7.53,17.15-8.13,34.34-16.17,51.51-24.27,4.2-1.98,8.36-4.06,14.17-6.88Z"/>
  <path class="st0" d="M1076.58,1226.37c-3.26,11.1-5.83,19.66-8.3,28.25-4.13,14.4-8.19,28.81-12.3,43.21-.73,2.56-1.33,5.2-2.4,7.61-2.31,5.18-4.97,5.71-9.06,1.98-1.47-1.34-2.71-2.94-4.02-4.44-16.45-18.8-32.76-37.73-49.43-56.32-5.14-5.73-6.68-10.54-3.88-18.56,7.9-22.6,14.53-45.66,21.1-68.7,2.2-7.71,6.16-11.58,14.09-13.11,20.91-4.05,41.73-8.56,62.47-13.43,6.18-1.45,9.83.31,13.69,4.93,32.21,38.62,64.62,77.08,96.97,115.59.86,1.02,1.75,2.02,2.51,3.11,3.91,5.59,3.22,8.13-2.88,10.5-1.54.6-3.2.92-4.79,1.38-16.94,4.92-33.97,9.55-50.77,14.9-5.94,1.89-9.77.99-13.96-3.62-13.44-14.79-27.3-29.19-40.95-43.78-2.26-2.41-4.29-5.03-8.07-9.49Z"/>
  <path class="st0" d="M1089.08,941.12c-3.15-3.59-5.76-6.03-7.73-8.89-10.18-14.81-19.91-29.94-30.42-44.51-3.71-5.14-3.9-9.04-.87-14.38,10.34-18.24,20.29-36.69,30.36-55.08,1.1-2.01,2.03-4.12,3.55-7.2-3.08-.29-5.49-.77-7.88-.7-21.96.71-43.91,1.57-65.87,2.25-3.88.12-7.78-.4-13.24-.72,1.17-3.83,1.5-6.76,2.86-9.07,13.85-23.51,27.92-46.9,41.81-70.39,2.81-4.75,6.18-6.63,12.08-6.62,24.96.04,49.93-.42,74.88-1.25,7.63-.25,12.29,2.17,16.03,8.91,10.35,18.61,21.09,37.01,32.14,55.21,3.44,5.67,3.16,9.88-.33,15.41-26.82,42.5-53.32,85.2-80,127.79-1.85,2.96-4.36,5.5-7.38,9.24Z"/>
  <path class="st0" d="M1658.93,821.31c6.98-24.45,13.32-47.19,20.05-69.82,1.26-4.24,3.1-10.18,6.29-11.53,4.94-2.09,7.43,4.31,10.37,7.62,15.92,17.92,31.44,36.21,47.54,53.96,5.71,6.3,7.41,11.68,4.36,20.36-7.93,22.58-14.57,45.63-21.25,68.63-2.01,6.93-5.49,10.46-12.71,11.88-20.89,4.11-41.7,8.66-62.41,13.59-6.83,1.63-10.96-.06-15.4-5.41-31.69-38.17-63.72-76.06-95.61-114.06-8.87-10.57-8.32-12.27,5.04-16.13,16.94-4.9,34.01-9.37,50.78-14.81,5.82-1.89,9.2-.64,13.02,3.51,14.22,15.42,28.67,30.63,43.07,45.88,1.75,1.85,3.75,3.46,6.87,6.32Z"/>
  <path class="st0" d="M1483.56,689.3c-1.63-5.05-2.64-8.52-3.87-11.91-7.18-19.69-14.48-39.34-21.54-59.07-1.26-3.51-1.58-7.36-2.64-12.58,4.85.39,8.09.28,11.15.96,25.65,5.73,51.25,11.65,76.89,17.42,5.94,1.34,9.32,3.92,11.36,10.54,7.27,23.51,15.41,46.76,23.88,69.87,2.81,7.67,1.56,12.93-3.91,18.78-14.32,15.32-28.23,31.03-41.96,46.88-4.23,4.89-8.14,6.26-14.68,4.59-48.66-12.43-97.45-24.38-146.18-36.53-11.74-2.93-12.49-4.96-5.32-14.24,10.99-14.23,22.33-28.19,32.95-42.68,3.74-5.11,7.53-6.55,13.44-5.34,15.64,3.21,31.35,6.1,47.04,9.06,7.15,1.35,14.32,2.6,23.4,4.25Z"/>
  <path class="st0" d="M1173.84,249.76c-1.93-4.09-4.25-8.04-5.71-12.29-6.95-20.12-13.65-40.32-20.49-60.48-1.04-3.06-2.32-6.04-3.99-10.34-7.4,8.01-13.92,15.03-20.4,22.08-6.31,6.86-12.42,13.91-18.91,20.59-6.59,6.79-11.84,15.02-20.72,20.63-1.39-2.43-2.66-3.93-3.16-5.66-7.11-24.26-14.05-48.56-21.19-72.81-1.39-4.72-3.43-9.24-5.53-14.81,2.01-2.3,4.29-5.07,6.72-7.7,17.17-18.56,34.49-37,51.47-55.74,3.15-3.48,6.17-2.96,9.83-2.28,21.91,4.07,43.84,8.07,65.76,12.09.33.06.66.24.97.21,13.44-1.23,18.03,7.21,21.44,18.31,4.29,13.97,9.64,27.64,14.92,41.28,1.94,5.01,1.99,9.14-.54,14.12-14.31,28.18-28.21,56.57-42.34,84.84-1.41,2.82-3.36,5.37-5.06,8.04-1.02-.03-2.04-.06-3.06-.09Z"/>
  <path class="st0" d="M1690.83,198.84c-14.88,3-27.54,5.56-40.21,8.12-12.4,2.51-24.79,5.13-37.22,7.48-2.65.5-5.47.07-9.28.07.97-3.45,1.43-5.6,2.17-7.67,8.51-23.84,17.11-47.64,25.56-71.5,1.42-4.01,2.21-8.25,3.53-13.31,2.71-.67,5.84-1.56,9.02-2.2,25.14-5.02,50.32-9.81,75.39-15.14,4.71-1,6.79,1.32,9.29,3.93,15.2,15.9,29.65,32.6,45.81,47.46,10.06,9.24,12.17,17.66,7.38,30.19-5.21,13.64-8.45,28.04-12.24,42.19-1.21,4.54-3.4,7.42-7.67,9.62-28.44,14.62-56.75,29.5-85.1,44.29-1.18.62-2.34,1.31-3.57,1.79-5.48,2.14-7.7.61-6.95-5.08.44-3.27,1.42-6.5,2.41-9.67,6.02-19.4,12.12-38.78,18.16-58.17,1.07-3.42,1.97-6.9,3.52-12.4Z"/>
  <path class="st0" d="M525.14,1050.18c-34.56-.88-66.38-1.69-99.48-2.53-.86-1.39-2.5-3.84-3.93-6.4-12.71-22.64-25.26-45.37-38.17-67.9-2.13-3.72-.8-6.28.77-9.2,6.62-12.32,13.28-24.62,19.92-36.93,5.69-10.55,11.7-20.95,16.89-31.74,2.13-4.43,4.86-5.59,9.26-5.71,18.65-.53,37.29-1.15,55.93-2.03,4.74-.23,8.07,1.22,11.41,4.54,22.47,22.28,45.17,44.34,67.7,66.56,2.4,2.36,4.2,5.33,7.74,9.9-6.81.95-11.23,2-15.66,2.1-20.98.46-41.97.67-62.96.95-3.31.04-6.61,0-10.16,0-1.47,4.25,1.42,6.65,2.89,9.28,10.74,19.18,21.66,38.25,32.44,57.41,1.7,3.03,2.94,6.32,5.4,11.69Z"/>
  <path class="st0" d="M1098.82,1927.6c-8.14,1.57-17.23,3.28-26.3,5.09-19.24,3.84-38.5,7.55-57.67,11.73-4.7,1.02-6.77-1.64-9.24-4.22-15.19-15.87-29.6-32.58-45.76-47.38-10.13-9.28-12-17.68-7.18-30.14,5.14-13.28,8.28-27.35,11.94-41.18,1.37-5.19,3.84-8.51,8.81-11.04,27.56-14.05,54.9-28.54,82.37-42.77,3.37-1.75,7.07-2.87,10.66-4.3,3.08,5.69,1.23,10.08-.13,14.47-6.3,20.33-12.63,40.65-18.93,60.98-.98,3.16-1.88,6.34-3.08,10.42,2.74-.17,4.93-.05,7-.46,22.5-4.53,44.97-9.2,67.47-13.7,3.42-.68,6.96-.74,11.6-1.19-.74,3.55-.95,5.75-1.67,7.78-7.33,20.69-14.81,41.33-22.12,62.02-2.63,7.47-4.92,15.06-7.78,23.9Z"/>
  <path class="st0" d="M2052.38,1586.87c3.88-29.27,7.52-56.83,11.23-84.37.06-.44,1-.77,2.14-1.59,1.64,1,3.65,1.98,5.39,3.32,20.04,15.43,40.05,30.91,60.06,46.37,1.05.81,1.99,2.07,3.17,2.38,9.79,2.55,8.8,9.4,7.79,17.16-3.24,24.73-6.02,49.52-8.73,74.31-.46,4.23-3.33,5.44-6.26,6.87-12.27,5.96-24.59,11.81-36.88,17.72-12.57,6.04-25.14,12.11-38.15,18.38-1.76-.94-3.89-1.87-5.78-3.14-15.49-10.35-30.9-20.84-46.45-31.11-3.55-2.34-5.61-4.9-6.33-9.36-5.13-31.85-10.62-63.65-15.93-95.47-.57-3.43-2.53-7.24,2.74-10.53,3.46,1.97,7.62,3.93,11.33,6.52,17.19,12.01,34.24,24.2,51.36,36.3,2.68,1.89,5.45,3.65,9.31,6.23Z"/>
  <path class="st0" d="M2045.14,603.1c1.39-6.07,5.4-8.56,9.07-11.3,17.08-12.74,34.19-25.44,51.27-38.19,2.64-1.97,5.17-4.08,8.52-6.73-3.29-1.74-5.77-3.22-8.38-4.41-20.29-9.26-40.62-18.42-60.88-27.73-3.12-1.43-5.96-3.48-9.89-5.8,2.53-2.32,3.77-3.78,5.3-4.82,20.89-14.28,41.84-28.46,62.71-42.78,3.8-2.6,7.27-5.67,11.8-9.24,1.56.52,4.1,1.11,6.42,2.18,24.18,11.13,48.27,22.45,72.53,33.41,3.94,1.78,4.2,4.64,4.65,7.93,2.55,18.8,5.11,37.6,7.66,56.4.94,6.92,1.39,13.96,2.98,20.74,1.02,4.35-.1,6.89-3.33,9.4-15.51,12.06-31.01,24.14-46.35,36.4-3.36,2.69-6.71,2.16-10.36,1.62-25.35-3.77-50.7-7.5-76.06-11.24-7.57-1.12-15.16-2.14-22.71-3.4-1.52-.25-2.9-1.39-4.96-2.44Z"/>
  <path class="st0" d="M700.04,1540.41c-2.96,2.43-4.58,3.98-6.4,5.22-20.34,13.93-40.71,27.81-61.07,41.71-1.38.94-3.15,1.59-4.06,2.86-6.23,8.62-12.88,5.7-20.64,1.95-21.87-10.59-44.01-20.6-66.18-30.54-4.24-1.9-4.77-5.18-5.26-8.78-2.16-15.84-4.2-31.69-6.33-47.54-1.28-9.57-2.37-19.18-4.06-28.68-.81-4.55.3-7.47,3.94-10.27,15.06-11.56,30.01-23.28,44.86-35.12,3.12-2.49,6.13-3.34,10.09-2.74,31.6,4.8,63.24,9.39,94.85,14.18,3.42.52,6.7,1.89,12.3,3.51-4.72,4.65-7.59,8.16-11.1,10.82-16.99,12.88-34.17,25.52-51.25,38.27-2.61,1.95-5.1,4.06-8.54,6.81,3.01,1.68,5.11,3.04,7.37,4.07,20.6,9.41,41.25,18.7,61.81,28.17,3.09,1.43,5.83,3.63,9.69,6.08Z"/>
  <path class="st0" d="M668.68,548.59c-24.93-19.24-49.86-38.49-76.3-58.89,0-1.07-.32-4.33.05-7.5,3.05-25.78,6.37-51.53,9.23-77.34.53-4.76,3.63-5.9,6.87-7.46,20.4-9.82,41.16-18.97,61.08-29.68,10.09-5.43,17.44-5.53,26.62,1.78,11.95,9.51,25.14,17.5,38,25.8,4.24,2.74,6.63,5.86,7.46,10.97,5.12,31.54,10.57,63.04,15.78,94.57.47,2.83.06,5.79.06,8.72-5.84,2.15-9.43-1.38-13.08-3.93-17.73-12.42-35.34-25.01-53.02-37.51-2.65-1.87-5.43-3.53-9.07-5.89-4.65,29.11-5.73,57.61-10.73,85.51-.99.29-1.97.58-2.96.87Z"/>
  <path class="st0" d="M2252.06,1076.96c-13.97-25.93-27.2-50.46-40.36-75.02-.21-.39.38-1.2.82-2.46,1.58-.16,3.43-.56,5.27-.51,26.31.79,52.61,1.69,78.92,2.41,3.58.1,7.19-.62,11.7-1.05,1.36,2.07,3.11,4.42,4.53,6.95,12.66,22.68,25.13,45.47,38.02,68.02,2.31,4.04,1.12,6.82-.65,10.1-7.76,14.35-15.5,28.72-23.24,43.09-4.42,8.21-9.11,16.29-13.09,24.71-1.98,4.19-4.48,6.12-9.05,6.26-19.31.59-38.62,1.53-57.94,1.89-2.88.05-6.47-1.64-8.59-3.69-23.48-22.69-46.75-45.59-70.01-68.51-1.98-1.95-3.42-4.44-5.32-6.95,4.65-4.33,9.33-4.08,13.91-4.13,21.32-.21,42.65-.38,63.97-.6,3.25-.03,6.49-.3,11.11-.52Z"/>
  <path class="st0" d="M1559.94,1797.06c3.08,6.46,5.42,10.37,6.88,14.58,7.09,20.43,13.94,40.94,20.91,61.41.93,2.73,2.05,5.4,4.28,11.26,2.94-4.3,4.53-7.28,6.72-9.71,14.74-16.3,29.56-32.52,44.47-48.66,2.29-2.48,5.17-4.41,9.08-7.7,9.6,32.31,18.64,62.74,28.16,94.78-.91,1.09-2.88,3.69-5.09,6.08-17.41,18.81-35.02,37.44-52.2,56.47-3.53,3.92-7.07,2.97-10.84,2.31-16.06-2.8-32.09-5.8-48.12-8.74-8.84-1.62-17.62-3.67-26.52-4.72-4.66-.55-7.14-2.2-8.69-6.56-6.47-18.18-13.33-36.22-19.65-54.45-.95-2.74-.69-6.67.58-9.29,14.44-29.61,29.16-59.08,43.9-88.55,1.12-2.23,2.92-4.12,6.1-8.51Z"/>
  <path class="st0" d="M598.85,112.86c-.72,4.63-1.01,8.19-1.84,11.62-6.91,28.48-13.92,56.93-20.92,85.39-.48,1.94-.83,3.95-1.64,5.75-2.43,5.43-6.93,6.2-10.75,1.56-3.81-4.62-7.21-9.59-10.57-14.55-2.22-3.29-4.76-4.92-8.99-4.98-26.99-.37-53.98-1-80.96-1.63-3.29-.08-6.67-.29-9.84-1.08-20.35-5.11-40.66-10.36-60.96-15.67-11.73-3.07-12.77-5.39-7.23-15.74,8.02-14.98,16.35-29.8,24.07-44.93,2.52-4.94,5.69-6.5,10.98-6.49,56.99.09,113.98,0,170.97-.01,1.94,0,3.87.38,7.68.77Z"/>
  <path class="st0" d="M2525.12,1310.72c-2.1-4.19-3.75-7-4.98-9.99-11.26-27.4-22.45-54.83-33.65-82.26-.75-1.85-1.68-3.67-2.11-5.6-1.29-5.74,2.04-9.17,7.76-7.65,6.1,1.62,12.1,3.68,18.04,5.85,3.49,1.27,6.24.8,9.28-1.33,22.06-15.52,44.2-30.92,66.36-46.3,2.7-1.88,5.5-3.78,8.53-4.99,20.08-8.06,40.21-15.99,60.37-23.84,9.38-3.65,12.01-2.09,13.33,7.68,2.19,16.16,3.58,32.48,6.73,48.46,1.67,8.47-1.12,12.64-7.52,17.21-29.01,20.69-57.7,41.84-86.5,62.81-15.61,11.37-31.22,22.76-46.85,34.1-2.37,1.72-4.87,3.26-8.78,5.85Z"/>
  <path class="st0" d="M209.86,738.21c2.18,4.5,3.75,7.33,4.96,10.3,11.23,27.39,22.4,54.8,33.59,82.2.5,1.23,1.44,2.46,1.44,3.69,0,2.79.39,6.2-1.03,8.16-1,1.38-4.9,1.53-7.19.96-5.79-1.46-11.44-3.51-17.06-5.56-3.45-1.26-6.15-.71-9.21,1.44-21.77,15.32-43.64,30.49-65.54,45.61-3.24,2.24-6.61,4.49-10.23,5.95-19.11,7.73-38.33,15.22-57.51,22.78-1.24.49-2.46,1.02-3.73,1.42-7.09,2.27-9.92.89-11.13-6.56-1.98-12.14-3.43-24.37-5.09-36.56-.76-5.6-1.07-11.3-2.3-16.8-1.31-5.86,1.08-9.17,5.62-12.44,23.52-16.88,46.85-34.02,70.24-51.07,21.51-15.68,43.02-31.36,64.55-47.01,2.63-1.91,5.37-3.65,9.6-6.51Z"/>
  <path class="st0" d="M2471.67,574.83c-2.82-1.21-5.33-1.94-7.48-3.26-26.35-16.25-52.65-32.58-78.97-48.9-1.13-.7-2.34-1.32-3.32-2.2-4.46-3.98-3.92-8.55,1.59-10.75,5.55-2.22,11.3-3.99,17.06-5.62,4.19-1.18,6.61-3.29,8.09-7.69,8.56-25.55,17.46-50.99,26.35-76.44,1.08-3.1,2.5-6.16,4.25-8.94,11.17-17.75,22.44-35.44,33.76-53.1,6.3-9.83,8.64-10.12,16.47-2,12.02,12.46,23.84,25.12,35.94,37.51,3.09,3.16,4.42,5.92,2.92,10.53-18.18,55.67-36.14,111.41-54.2,167.11-.29.9-1.05,1.65-2.45,3.75Z"/>
  <path class="st0" d="M263.23,1473.33c4.36,2.45,7.01,3.81,9.53,5.38,24.91,15.41,49.81,30.85,74.7,46.29,1.41.88,3.2,1.48,4.15,2.72,1.69,2.2,3.9,4.79,3.9,7.21,0,1.67-3.11,3.98-5.3,4.88-5.22,2.13-10.66,3.8-16.11,5.27-3.87,1.04-6.25,2.97-7.6,6.91-8.61,25.19-17.39,50.32-26.21,75.43-1.3,3.71-2.66,7.53-4.73,10.84-11.12,17.78-22.43,35.45-33.75,53.1-6.07,9.46-8.74,9.7-16.65,1.49-11.55-11.99-22.74-24.34-34.59-36.02-4.52-4.45-5.12-8.3-3.21-14.12,12.71-38.55,25.06-77.22,37.55-115.84,4.81-14.88,9.62-29.76,14.52-44.61.88-2.67,2.2-5.19,3.8-8.92Z"/>
  <path class="st0" d="M2136.09,1936.9c.46-4.3.46-6.59.98-8.76,7.22-29.74,14.51-59.46,21.79-89.19.32-1.29.36-2.82,1.1-3.81,1.67-2.23,3.38-5.17,5.69-5.93,1.55-.51,4.69,1.78,6.2,3.59,3.63,4.32,6.91,8.97,9.98,13.72,2.43,3.76,5.48,5.12,9.96,5.15,27.28.2,54.56.64,81.84,1.1,2.61.04,5.27.61,7.82,1.27,20.95,5.35,41.88,10.77,62.82,16.17.97.25,1.94.49,2.87.85,6,2.27,7.37,4.95,4.6,10.68-3.33,6.88-7.18,13.51-10.82,20.25-4.9,9.08-10.2,17.97-14.56,27.3-2.67,5.71-6.29,7.51-12.38,7.47-31.62-.19-63.25-.01-94.88.03-23.97.04-47.94.07-71.91.11-3.24,0-6.47,0-11.11,0Z"/>
  <path class="st0" d="M1641.93,1090.49c-15.3,25.76-30.7,51.67-46.89,78.93-3.32-3.13-5.84-4.74-7.32-7.03-15.01-23.19-29.86-46.49-44.73-69.78-.34-.53-.38-1.25-.47-1.56,16.96-23.23,30.49-48.37,45.75-72.41,1.03-1.62,1.21-3.77,2.16-5.46.88-1.57,2.35-4.09,3.4-4,1.98.16,4.73,1.39,5.59,3.01,10.98,20.5,21.62,41.18,32.51,61.73,2.77,5.23,6.11,10.17,10,16.58Z"/>
  <path class="st0" d="M1219.73,1266.13c-1.56-2.16-2.94-4.47-4.69-6.46-16.01-18.26-32.08-36.47-48.12-54.7-1.32-1.5-2.66-2.98-3.84-4.59-2.57-3.51-1.63-6.22,2.17-7.98,1.5-.69,3.12-1.15,4.73-1.57,25.39-6.7,50.78-13.39,76.19-20.03,1.53-.4,3.2-.28,3.88-.33,5.39,6.93,10.04,13.3,15.09,19.32,12.18,14.53,24.52,28.93,36.88,43.31,2.14,2.49,4.87,4.47,7,6.95,1.31,1.52,3.13,3.92,2.69,5.27-.53,1.63-3.06,3.35-4.97,3.69-23.51,4.23-47.08,8.15-70.61,12.29-4.83.85-9.56,2.28-14.33,3.44-.69.46-1.39.92-2.08,1.38Z"/>
  <path class="st0" d="M1627.96,915.8c1.14,10.95,2.29,21.52,3.33,32.1,1.55,15.91,3.03,31.83,4.5,47.75.21,2.32.35,4.66.33,6.98-.04,4.47-2.61,5.8-6.62,4.94-1.61-.35-3.17-1-4.72-1.61-23.9-9.28-47.79-18.57-71.67-27.9-1.82-.71-3.49-1.81-4.5-2.34-1.19-32.15-4.05-63.45-7.16-96.85,1.1-1.61,3.63-1.95,7.75.11,22.91,11.46,45.98,22.61,69.05,33.75,2.62,1.27,5.61,1.79,9.72,3.06Z"/>
  <path class="st0" d="M1375.37,837.74c-9.16-4.52-78.55-21.46-91.74-22.33-2.52-3.58-1.24-5.82,1.89-8.99,18.45-18.68,36.55-37.7,54.69-56.68,1.33-1.39,2.06-3.34,3.87-6.38,27.54,5.03,55.13,12,82.87,18.19,2.4.54,4.61,1.89,6.83,2.83-2.66,8.35-49.68,66.95-58.4,73.36Z"/>
  <path class="st0" d="M1573.8,853.81c-2.09,1.22-4.13,3.08-6.5,3.71-26.34,7.03-52.72,13.88-79.1,20.71-1.23.32-2.62.04-2.83.04-10.64-12.75-20.68-24.97-30.93-37.02-10.28-12.07-20.76-23.97-31.86-36.75.19-2.5,2.16-3.89,6.18-4.6,27.12-4.79,54.16-10.02,81.26-14.89,2.19-.39,5.61-.02,6.88,1.41,18.82,21.1,37.38,42.42,55.94,63.74.57.66.52,1.86.97,3.65Z"/>
  <path class="st0" d="M1192.5,959.3c-7.25,7.02-46.23,70.25-49.52,80.2-4.06,1.39-5.98-.15-8.15-4.21-12.98-24.34-26.29-48.51-39.81-72.55-2.14-3.8-.71-6.28.96-9.12,5.9-10.06,11.87-20.08,17.81-30.11,7.3-12.33,14.48-24.73,21.96-36.95,3.96-6.48,6.94-6.74,11.05-.47,15.14,23.14,29.96,46.49,44.86,69.78.51.79.49,1.91.85,3.41Z"/>
  <path class="st0" d="M1551.19,1238.5c-2.49,1.22-5.09,2.62-7.78,3.79-21.95,9.54-43.92,19.04-65.88,28.54-1.83.79-3.62,1.74-5.51,2.32-4.78,1.45-6.79.12-7.52-4.86-.19-1.3-.11-2.66-.03-3.98,1.41-24.9,2.82-49.81,4.3-74.7.18-2.93.82-5.84,1.07-7.54,30.42-12,59.9-23.55,89.4-37.37,2.56,1.15,3.48,3.45,2.89,7.46-3.82,25.62-7.36,51.28-10.89,76.95-.35,2.57-.05,5.22-.05,9.38Z"/>
  <path class="st0" d="M1174.92,905.08c-.81-2.8-2.43-5.42-2.11-7.77,2.86-21.08,6.13-42.09,9.11-63.15,1.06-7.53,1.64-15.12,2.48-23.01,8.29-6.07,75.93-34.71,84.61-35.27.41,2.65,1.33,5.44,1.19,8.18-1.32,26.27-2.83,52.54-4.26,78.81-.22,4.06-1.1,6.93-6.28,7-3.17.04-6.4,1.57-9.45,2.81-19.11,7.8-38.2,15.64-57.22,23.63-5.44,2.29-10.65,5.14-18.07,8.76Z"/>
  <path class="st0" d="M1300.24,1285.51c1.88-4.06,2.6-6.98,4.32-9.1,16.97-20.98,34.1-41.83,51.23-62.69.8-.98,2.04-1.61,2.25-1.76,31.1,8.74,61.7,15.71,93.97,23.09,1.03,1.7.94,3.99-2.41,7.46-19.19,19.82-38.04,39.97-56.7,60.29-2.99,3.26-5.59,2.57-8.87,1.83-21.11-4.76-42.24-9.44-63.35-14.21-6.36-1.43-12.68-3.04-20.44-4.91Z"/>
  <path class="st0" d="M1106.98,1132.68c-.84-7.55-1.83-15.43-2.59-23.34-1.87-19.57-3.62-39.14-5.42-58.71-.83-9.05,1.53-11.14,10.14-7.9,20.57,7.75,41,15.84,61.49,23.8,2.17.84,4.33,1.74,6.5,2.59,9.43,3.69,8.79,3.73,9.36,14.33,1.07,19.96,2.84,39.88,4.59,59.79.66,7.56,2.19,15.04,2.99,22.59.17,1.63-.61,4.16-1.81,4.92-1.32.83-3.92.7-5.46-.05-21.82-10.64-43.53-21.51-65.32-32.19-4.14-2.03-8.55-3.48-14.45-5.84Z"/>
  <path class="st0" d="M1133.93,1667.22c-11.2,14.15-21.29,26.86-31.34,39.6-7.43,9.41-14.74,18.92-22.25,28.26-5.68,7.07-7.09,7.13-12.99.48-14.37-16.19-28.63-32.48-42.93-48.74-10.78-12.26-21.61-24.46-32.26-36.83-2.44-2.84-4.21-6.25-6.26-9.36,4.32-4.68,8.45-2.77,12.1-2.06,34.63,6.76,69.22,13.7,103.82,20.58,8.49,1.69,17.02,3.19,25.47,5.05,2.35.52,4.47,2.01,6.65,3.03Z"/>
  <path class="st0" d="M799.95,1407.52c-27.39,7.67-54.17,15.19-80.97,22.66-3.08.86-6.25,1.38-10.36,2.27-.9-4.55-1.89-8.01-2.22-11.53-3.41-35.78-6.74-71.58-10.03-107.37-.33-3.64-.67-7.34-.35-10.96.39-4.43,3.4-5.7,6.89-3.15,1.59,1.16,2.89,2.75,4.24,4.21,29.44,31.73,58.88,63.46,88.28,95.22,2.37,2.57,5.65,4.86,4.51,8.64Z"/>
  <path class="st0" d="M665.56,852.53c3.42,6.27,19.61,125.49,19.54,143.43,0,1.77-1.18,3.53-1.66,4.88-26.34-9.74-52.12-19.28-77.91-28.81-1.87-.69-3.74-1.42-5.6-2.13-4.56-1.72-5.12-4.75-2.83-8.69.84-1.44,1.68-2.87,2.53-4.31,18.85-31.81,37.66-63.65,56.59-95.41,2.13-3.57,3.51-8.14,9.34-8.95Z"/>
  <path class="st0" d="M1420.39,1743.8c2.75-1.67,5.07-3.43,7.66-4.6,42.06-19.15,84.15-38.23,126.28-57.23.56-.25,1.69.74,2.02.89-1.1,26.9-2.17,53.39-3.26,79.88-.1,2.33-.2,4.66-.44,6.98-.74,7.35-1.49,8.12-8.67,6.65-12.38-2.55-24.7-5.46-37.04-8.21-24.69-5.51-49.4-10.93-74.04-16.64-4.26-.99-9.63-.57-12.52-7.71Z"/>
  <path class="st0" d="M1600.74,382.37c18.16-23.08,34.95-44.48,51.81-65.82,2.41-3.05,5.17-5.84,8.38-9.44,3.03,2.96,5.51,5.08,7.65,7.5,24.66,27.98,49.31,55.98,73.85,84.06,2.69,3.08,7.76,6.12,5.03,10.84-2.88,4.98-7.95,1.31-11.84.56-41.5-8-82.96-16.18-124.41-24.41-3.38-.67-6.62-2.07-10.46-3.3Z"/>
  <path class="st0" d="M828.75,604.3c-16.34-24.47-31.66-47.36-46.91-70.29-1.96-2.95-3.6-6.11-5.98-10.2,3.74-2,6.46-3.71,9.38-4.98,34.53-14.95,69.09-29.85,103.66-44.72,3.84-1.65,7.75-4.16,13.18.15-6.93,14.94-15.7,28.95-23.61,43.38-8,14.61-16.05,29.19-24.38,43.61-8.21,14.23-14.99,29.37-25.34,43.04Z"/>
  <path class="st0" d="M1907.89,1445.96c3.34,5.57,6.03,10.49,9.13,15.14,11.98,18.04,24.12,35.98,36.13,54,1.97,2.96,3.63,6.12,5.97,10.11-3.75,2.01-6.49,3.73-9.43,5-34.53,14.96-69.08,29.89-103.67,44.7-3.45,1.48-7.54,5.03-10.98,1.31-3.54-3.83.63-7.44,2.44-10.69,20.69-37.28,41.48-74.51,62.35-111.69,1.81-3.23,2.65-7.83,8.07-7.87Z"/>
  <path class="st0" d="M2050.61,1047.85c30.53,11.37,59.6,22.21,89.76,33.45-1.65,3.79-2.53,6.54-3.95,8.96-19.46,32.96-39,65.88-58.52,98.81-.51.86-.87,1.96-1.62,2.5-2.25,1.6-4.65,2.97-7,4.42-1.08-2.26-2.85-4.44-3.15-6.79-4.15-33.36-8.1-66.74-12.11-100.12-1.11-9.25-2.42-18.48-3.34-27.75-.41-4.17-.07-8.41-.07-13.47Z"/>
  <path class="st0" d="M1934.72,641.64c26.81-7.51,52.99-14.85,79.17-22.18,1.92-.54,3.82-1.21,5.77-1.58,6.33-1.18,7.62-.35,8.34,6.27,1.34,12.24,2.49,24.51,3.63,36.77,2.45,26.52,4.84,53.04,7.25,79.57.35,3.9,1.56,8.07-3.05,10.49-7.83-3.93-98.05-101.37-101.12-109.34Z"/>
  <path class="st0" d="M1177.88,368.22c.68-6.97,1.43-12.09,1.64-17.24.91-22.63,1.66-45.27,2.46-67.91.06-1.66.13-3.33.19-4.99.16-4.59,2.36-6.76,7.05-5.9,1.63.3,3.24.76,4.86,1.13,36.37,8.18,72.75,16.35,109.12,24.52.65.15,1.34.17,1.96.37,3.34,1.11,8.38,1.03,8.2,5.55-.09,2.16-3.95,4.86-6.66,6.13-39.51,18.46-79.11,36.74-118.73,54.98-2.78,1.28-5.84,1.96-10.09,3.35Z"/>
</svg>