<?xml version="1.0" encoding="UTF-8"?>
<svg id="Layer_0_xA0_Image" xmlns="http://www.w3.org/2000/svg" version="1.1" viewBox="0 0 2048 2732">
  <!-- Generator: Adobe Illustrator 30.2.1, SVG Export Plug-In . SVG Version: 2.1.1 Build 1)  -->
  <defs>
    <style>
      .st0 {
        fill: #f58020;
      }
    </style>
  </defs>
  <path class="st0" d="M1700.65,2302.83c9.42,2,18.2,3.79,26.95,5.72,8.73,1.92,9.41,2.7,10.18,11.92,1.44,17.26,2.81,34.53,4.19,51.8,1.57,19.59,3.03,39.19,4.73,58.77.43,4.88,1.63,9.7,2.7,15.82-6.17,7.97-12.84,17.09-20.14,25.69-2.17,2.56-5.9,4.47-9.25,5.24-55.15,12.72-110.34,25.23-165.55,37.67-2.81.63-6.03.82-8.78.12-17.73-4.54-35.34-9.51-53.07-14.05-4.75-1.21-8.36-3.26-11.32-7.29-5.12-6.98-10.99-13.41-16.15-20.36-35.49-47.82-78.27-89.04-119.24-131.89-22.8-23.84-45.97-47.33-68.64-71.3-3.5-3.7-5.02-9.23-7.67-13.79-6.32-10.86-8.11-22.33-8.28-35.03-1.21-88.97-3.22-177.92-5.03-266.88-.07-3.22-.72-6.43-1.23-10.78,115.47-16.47,231.07-32.95,346.85-49.47,14.76,21.9,29.25,43.4,43.74,64.9,3.17,4.7,6.33,9.39,9.49,14.09,12.56,18.69,12.35,18.72,14.67,41.05,5.81,55.99,11.82,111.95,17.75,167.92,4.07,38.42,8.12,76.84,12.2,115.26.14,1.31.49,2.59.92,4.85Z"/>
  <path class="st0" d="M350.25,1798.3c2.57-4.75,4.75-8.46,6.63-12.32,20.81-42.83,41.58-85.68,62.36-128.53.15-.3.38-.58.45-.89,2.73-12.67,11.82-21.08,20.08-30.06,12.18-13.25,24.43-26.43,36.34-39.91,5.15-5.83,10.99-10.12,18-13.63,31.27-15.64,62.27-31.83,93.38-47.8,2.93-1.51,5.94-2.88,9.48-4.58,2.52,3.93,4.8,7.47,7.38,11.48-3.31,3.72-6.36,7.19-9.45,10.61-13.41,14.83-26.95,29.54-40.16,44.55-2.74,3.11-5.44,7.08-6.15,11.02-5.65,31.46-10.82,63-16.09,94.52-.16.94.15,1.96.32,3.72,11.51,5.23,23.7,9.87,35.01,16.09,20.63,11.34,42.75,15.92,65.9,17.59,14.27,1.03,28.43,3.45,42.69,4.72,4.05.36,8.73-.2,12.35-1.94,57.96-27.76,115.82-55.76,173.64-83.81,3.86-1.87,7.43-4.42,10.95-6.92,51.29-36.53,102.54-73.11,153.81-109.67,2.17-1.55,4.4-3.02,6.51-4.64,4.24-3.24,8.12-3.17,12.66-.03,14.8,10.23,29.83,20.12,44.78,30.12,3.03,2.03,6.13,3.94,8.31,5.34,26.25-15.21,51.81-30.03,77.57-44.95,37.3,24.06,74.4,47.98,113.29,73.06-7.12,3.82-12.11,6.94-17.45,9.26-11.14,4.85-20.33,12-29.04,20.5-72.7,71.02-145.74,141.69-218.48,212.68-5.62,5.49-11.33,7.99-19.18,8.47-56.52,3.44-113.01,7.37-169.52,11.09-33.24,2.19-66.49,4.27-99.73,6.4-44.21,2.83-88.59,4.22-132.58,9.05-25.68,2.82-50.13-3.4-75.19-3.73-20.54-.28-38.9-7.53-57.34-15.43-38.56-16.53-77.33-32.56-116.01-48.81-1.79-.75-3.51-1.65-5.53-2.61Z"/>
  <path class="st0" d="M764.44,1937.08c-5.3,55.35-10.42,108.85-15.66,163.59-49.49-4.94-97.75-9.75-147.21-14.69-7.69,42.65-15.28,84.75-23.12,128.27,72.49,7.21,144.26,14.34,216.51,21.53-6.02,131.62-12.01,262.52-18.03,393.9-51.41.57-101.66,1.13-152.19,1.69-7.14-13.7-14.57-27.09-21.07-40.92-2.3-4.9-5.55-7.98-9.7-10.83-53.83-36.96-107.63-73.97-161.43-110.97-2.72-1.87-5.4-3.81-8.56-6.03.77-10.88,1.22-21.85,2.54-32.71.34-2.8,3.01-5.76,5.35-7.79,14.59-12.67,29.29-25.23,44.19-37.53,4.88-4.03,7.45-8.46,8.54-14.92,14.8-87.31,29.91-174.57,45.1-261.81,1.3-7.45.91-14.21-2.22-21.27-5.67-12.77-10.64-25.86-15.68-38.9-1.04-2.68-2.1-5.93-1.53-8.56,4.4-20.16,9.21-40.23,13.92-60.32.14-.6.67-1.12,1.75-2.87,78.19-12.74,157.28-25.63,238.51-38.86Z"/>
  <path class="st0" d="M1062.05,875.35c-4.97.59-8.52,1.29-12.08,1.38-25.31.64-50.63,1.19-75.95,1.7-24.3.48-48.32,2.34-72.27,7.48-77.46,16.61-155.12,32.29-232.7,48.36-1.93.4-3.78,1.15-6.41,1.97,0,4.24-.14,8.47.02,12.7,1.82,46.61,3.7,93.21,5.55,139.81,3.07,76.9,6.19,153.79,9.19,230.69,1.73,44.28,3.27,88.56,4.93,132.84.41,10.99,1.1,21.96,1.41,32.95.29,10.46-.12,10.86-10.23,11.26-50.27,1.99-100.54,3.9-150.8,5.9-5.95.24-11.88.8-18.71,1.27-.51-8.51-1.25-17.7-1.59-26.9-2.35-63.59-4.57-127.19-6.93-190.78-2.61-70.25-5.32-140.49-7.99-210.74-1.32-34.62-2.62-69.25-3.98-103.87-.13-3.27-.54-6.53-.88-10.5-13.85-2.3-27.37-3.95-40.6-6.88-26.7-5.91-53.7-3.81-80.62-3.95-10.96-.05-21.91,0-32.65,0-3.61-7.8-1.62-13.22,4.32-18.8,12.13-11.4,23.36-23.76,35.24-35.43,2.69-2.65,6.33-4.87,9.93-5.97,31.52-9.62,63.04-19.22,94.76-28.14,8.21-2.31,17.1-2.34,25.7-3.1,33.51-2.98,66.99-6.22,100.54-8.65,79.05-5.71,158.16-10.54,237.17-16.72,31.34-2.45,62.5-1.25,93.75-.07,39.95,1.5,79.91,2.89,119.86,4.39,9.29.35,9.5.66,10.12,9.63.62,8.94,1.19,17.87,1.88,28.16Z"/>
  <path class="st0" d="M1978.41,2607.59c-6.99.76-12.52,1.55-18.07,1.93-43.54,3-87.09,5.85-130.63,8.88-32.9,2.29-65.79,4.73-98.67,7.26-3.29.25-6.5,1.61-11.23,2.84-7.67-35.27-15.49-71.71-23.15-108.54,3.49,0,6.75.93,9.08-.14,23-10.57,45.84-21.47,68.71-32.32.87-.41,1.54-1.24,2.83-2.32-2.02-19.17-4.02-38.68-6.12-58.17-3.68-34.11-7.43-68.21-11.13-102.31-.79-7.28-1.76-14.56-2.2-21.87-.26-4.36-2.14-6.53-6.24-7.72-7.35-2.14-14.51-4.94-21.88-6.98-7.66-2.12-11.22-6.39-12.13-14.68-7.77-70.85-15.95-141.65-24.02-212.47-2.6-22.83-5.03-45.69-8-68.47-.66-5.1-2.41-10.47-5.08-14.84-25.73-42.06-51.7-83.97-77.77-125.83-2.97-4.76-6.89-8.94-10.45-13.32-35.51-43.71-71.09-87.37-106.48-131.18-4.51-5.59-9.73-9.78-15.97-13.2-47.33-25.93-94.53-52.08-141.88-77.96-5.2-2.84-9.35-6.17-11.73-11.61-8.55-19.53-23.14-33.01-40.68-44.99-50.34-34.4-99.79-70.1-149.59-105.29-2.99-2.11-5.96-4.23-9.65-6.84,1.92-7.25,3.84-14.52,5.75-21.73,29.08,6.8,57.46,13.56,85.9,19.99,5.4,1.22,9.83,3.48,14.07,6.94,31,25.26,62.1,50.4,93.25,75.47,2.81,2.26,6.15,3.94,9.4,5.58,44.35,22.28,88.75,44.45,133.05,66.81,4.7,2.37,9.15,5.42,13.24,8.74,37.5,30.47,74.92,61.04,112.27,91.7,3.55,2.92,6.86,6.33,9.57,10.04,50.65,69.06,101.22,138.17,151.66,207.37,3.07,4.21,5.55,9.1,7.2,14.04,21.89,65.7,43.35,131.55,65.45,197.18,8.02,23.8,11.63,48.5,16.78,72.87,16.53,78.18,32.49,156.47,48.85,234.68,1,4.77,3.07,9.51,5.52,13.76,27.92,48.5,56.01,96.91,84.04,145.35,1.94,3.36,3.69,6.82,6.12,11.34Z"/>
  <path class="st0" d="M904.41,2436.01c-7.83,64.71-15.54,128.41-23.35,192.91h-81.52c3-68.19,6.97-136.23,10.45-204.29,3.47-67.83,7.05-135.65,10.65-204.87-26.46-2.24-52.13-4.42-78.09-6.63,13.12-93.21,26.15-185.7,39.26-278.84,61.69-10.41,122.6-20.7,184.79-31.2.27,4.97.64,8.47.62,11.98-.91,160.29-1.86,320.58-2.81,480.87,0,.67-.15,1.37.02,1.99,2.77,10.56-4.06,17.65-9.44,25.07-1.26,1.74-4.46,2.33-6.9,2.91-14.23,3.38-28.5,6.61-43.68,10.1Z"/>
  <path class="st0" d="M288.22,1885.33c62.7,28.93,124.89,57.63,187.58,86.56-4.99,19.97-9.68,39.31-14.78,58.55-.69,2.62-3.19,4.93-5.24,6.99-14.13,14.15-28.29,28.27-42.6,42.23-3.96,3.86-6.34,8.07-7.59,13.58-18.25,80.18-36.66,160.33-55.28,240.43-1.6,6.88-.98,12.87,1.68,19.27,5.75,13.83,10.83,27.94,16.58,41.78,1.76,4.25,2.29,8.09,1.02,12.48-2.85,9.92-5.5,19.9-8.08,29.89-1.06,4.09-3,6.93-7.06,8.87-39.04,18.73-77.98,37.66-116.96,56.49-1.72.83-3.62,1.28-6.2,2.16-.98-3.76-1.97-6.83-2.57-9.98-14.28-75.24-28.52-150.48-42.76-225.73-3.41-17.99-6.36-36.09-10.38-53.94-1.92-8.55-.83-15.93,2.13-24.05,19.66-53.79,38.86-107.75,58.18-161.66,16.85-47.02,33.65-94.05,50.49-141.07.22-.6.7-1.11,1.83-2.86Z"/>
  <path class="st0" d="M1792.42,1866.91c3.65,4.09,6.12,6.73,8.44,9.49,12.88,15.28,25.79,30.55,38.56,45.93,2.89,3.48,5.83,5.67,10.75,5.99,47.86,3.14,95.7,6.55,143.54,9.91,3.27.23,6.52.63,10.53,1.03,7.91,211.86,15.79,423.09,23.71,635.3-15.08.77-29.58,1.51-44.87,2.29-1.61-3.17-3.34-6.3-4.82-9.53-15.82-34.5-31.65-69.01-47.33-103.57-2.12-4.68-4.12-9.07-9.56-9.48-18.22-63.98-36.25-127.36-54.32-190.72-26.92-94.43-53.8-188.87-80.94-283.24-1.94-6.73-1.05-13.05-.66-19.62,1.03-17.63,2-35.26,2.73-52.9.37-8.9-.19-17.85.37-26.74.26-4.17,2.19-8.24,3.86-14.14Z"/>
  <path class="st0" d="M712.33,1484.13c0-1.88-.04-3.76,0-5.64,1.81-75.29,3.58-150.58,5.55-225.87.15-5.9,1.02-11.95,2.65-17.62,16.27-56.64,32.74-113.22,49.28-169.78.9-3.07,2.44-6.16,4.4-8.68,14.52-18.68,29.16-37.27,43.92-55.75,2-2.5,4.66-4.72,7.46-6.28,16.29-9.08,32.59-18.16,49.17-26.72,5.18-2.67,11.09-4.68,16.86-5.36,58.55-6.83,117.14-13.35,175.72-19.9,15.18-1.7,30.38-3.23,44.52-4.72,1.41.73,1.75.83,1.99,1.05.24.22.42.53.54.83.37.92.92,1.83,1.02,2.78,15.45,138.35,30.86,276.71,46.25,415.07.14,1.29.02,2.61.02,4.08-6.19,3.98-13.13,2.48-19.53,3.53-1.34.22-3.54-1.64-4.52-3.1-2.03-3.02-3.55-6.4-5.22-9.66-28.17-54.8-56.38-109.58-84.41-164.46-3.11-6.09-7.05-11.04-12.43-15.28-17.53-13.82-34.91-27.85-52.13-42.05-4.37-3.6-8.86-5.1-14.5-5.23-27.65-.65-55.29-1.57-82.93-2.65-4.72-.18-8.18,1.21-11.65,4.29-29.14,25.9-58.32,51.77-87.73,77.37-4.66,4.06-6.53,8.87-7.87,14.47-18.88,79.01-37.83,158-56.77,237-2.29,9.54-4.64,19.07-6.97,28.6-.9-.11-1.79-.23-2.69-.34Z"/>
  <path class="st0" d="M1731.12,1315.08c-4.47,0-7.36.06-10.25,0-73.3-1.79-146.59-3.58-219.89-5.39-24.99-.62-49.97-1.27-74.96-1.93-10.48-.28-11.21-.9-10.18-11.89,2.83-30.18,5.84-60.34,8.86-90.5,3.74-37.45,7.58-74.9,11.34-112.35,2.96-29.5,5.86-59,8.83-88.5.19-1.9.69-3.77.9-4.93h257.89c9.29,105.48,18.43,209.81,27.45,315.5Z"/>
  <path class="st0" d="M726.13,1486.89c1.1-5.36,1.76-9.18,2.68-12.93,19.69-79.8,39.45-159.58,59.04-239.4,1.01-4.13,2.92-6.71,6.22-9.49,9.16-7.71,17.62-16.26,26.32-24.5,21.03-19.93,42.15-39.79,63-59.91,4.6-4.44,9.24-6.62,15.81-6.58,22.65.12,45.3-.24,67.95-.78,5.77-.14,10.05,1.55,14.21,5.52,17.1,16.33,34.42,32.44,51.78,48.5,2.84,2.63,6.61,4.28,9.4,6.95,2.29,2.19,4.16,5.03,5.56,7.9,21.33,43.67,42.55,87.4,63.81,131.1,5.19,10.66,10.42,21.3,15.5,31.69-133.59,40.59-266.73,81.05-401.29,121.93Z"/>
  <path class="st0" d="M24.1,1931.71c11.81-7.72,23.13-15.32,34.72-22.49,1.92-1.19,5.13-1.17,7.48-.62,12.96,3.06,25.81,6.58,38.75,9.69,5.58,1.34,9.38,4.7,12.68,9.07,4.66,6.17,11.7,11.23,9.19,20.58,5.44,35.88,10.89,71.77,16.31,107.66,7.6,50.38,15.15,100.77,22.74,151.15,8.39,55.65,16.81,111.29,25.19,166.94,6.99,46.43,13.93,92.87,20.91,139.3,5.84,38.82,11.72,77.64,17.72,117.39h-84.02c-40.39-231.92-80.92-464.69-121.67-698.66Z"/>
  <path class="st0" d="M1087.47,1388.06c3.72,12.39,7.36,24.09,10.74,35.86,1.91,6.65,5.89,14.07,4.34,19.93-1.43,5.45-8.85,9.41-13.83,13.81-25.95,22.98-52.04,45.79-77.86,68.9-5.32,4.76-11.05,8.28-17.58,11.01-45.79,19.1-91.75,37.83-137.15,57.83-17.6,7.75-35.62,11.77-54.39,14.37-45.18,6.26-90.31,12.95-135.43,19.63-4.62.68-8.17-.03-11.86-3.14-8.4-7.07-17.28-13.55-25.81-20.46-1.7-1.38-3-3.47-3.98-5.48-2.19-4.48-3.66-9.36-6.14-13.66-9.32-16.17-12.66-33.09-8.39-51.53,1.64-7.06,1.84-14.45,2.75-22.06,14.49-.87,28.67-1.75,42.84-2.58,23.61-1.39,47.23-2.65,70.83-4.22,4.89-.33,9.89-1.24,14.54-2.79,112.06-37.56,224.07-75.25,336.11-112.88,3.06-1.03,6.29-1.57,10.27-2.54Z"/>
  <path class="st0" d="M53.85,1885.27c14.3-15.81,27.87-30.8,41.42-45.8,21.22-23.47,42.49-46.9,63.61-70.45,8.87-9.89,18.26-18.89,29.23-26.72,40.66-29.01,80.71-58.87,121.01-88.39,2.84-2.08,5.81-3.99,8.72-5.97.62.41,1.25.83,1.87,1.24-.78,3.04-1.45,6.12-2.36,9.12-5.02,16.56-9.66,33.25-15.33,49.58-2.81,8.08-2.27,15.09,2.82,21.45,3.41,4.26,3.18,7.92,1.46,12.74-16.74,47.02-33.23,94.13-49.86,141.2-.99,2.8-2.47,5.44-3.87,8.08-20.96,39.75-41.99,79.46-62.88,119.25-3.39,6.45-6.19,13.2-9.48,20.29h-18.69c-1-6-2.18-12.42-3.13-18.86-4.87-32.92-9.81-65.83-14.38-98.79-.81-5.83-2.75-8.51-8.87-9.74-23.81-4.78-47.48-10.25-71.2-15.5-3.12-.69-6.17-1.66-10.09-2.73Z"/>
  <path class="st0" d="M1782.95,1837.21c-2.32-2.76-4.46-5.21-6.49-7.75-44.65-55.56-89.26-111.16-134-166.65-3.72-4.62-8.03-8.92-12.64-12.64-27.21-21.97-54.58-43.74-81.93-65.55-4.93-3.93-9.97-7.74-16.62-12.88,41.56-1.59,81.57-1.51,121.56-1.74,40.2-.23,80.4-.05,121.56-.05,1.28,19.22,2.58,38.7,3.91,58.57h25.94c1.18,8.27,2.45,16.43,3.51,24.62,5.01,38.96,9.88,77.93,15.08,116.86.48,3.57.32,6.3-1.67,9.29-12.67,19.05-25.22,38.19-38.21,57.91Z"/>
  <path class="st0" d="M1845.95,1897.62c-11.9-14.86-24.17-30.19-36.63-45.75-1.89.6-3.65,1.17-6.53,2.09,1.34-4.06,1.96-7.64,3.66-10.59,1.75-3.02,4.96-5.15,6.86-8.11,17.95-28.07,35.81-56.2,53.55-84.4,2.75-4.37,5.94-7.35,10.96-9.4,12.01-4.91,23.78-10.49,35.32-16.42,6.13-3.15,11.36-3.49,17.79-.61,16.4,7.36,33.11,14.03,49.77,20.81,3.45,1.4,7.22,2.04,12.73,3.55,13.31,46.35,27.14,94.52,41.25,143.67-62.96,1.72-125.06,3.42-188.74,5.16Z"/>
  <path class="st0" d="M105.46,2464.13c-8.3,7.11-15.94,14.06-24.03,20.43-4.58,3.6-6.55,7.88-7.16,13.5-1.96,18.2-4.21,36.37-6.44,54.54-.3,2.43-1.17,4.79-2.28,9.21-2.91-3.97-4.69-6.18-6.24-8.55-5.63-8.63-11.31-17.23-16.69-26.02-1.51-2.48-2.26-5.5-3-8.36-11.07-42.5-22.11-85-33.02-127.54-.81-3.14-.83-6.59-.67-9.87,1.99-41.91,4.02-83.83,6.27-125.73.19-3.46,1.59-7.08,3.25-10.19,6.59-12.33,13.24-24.65,20.41-36.64,3.2-5.36,3.43-10.15,1.72-16-9.15-31.3-18.07-62.67-26.79-94.09-1.67-6.02-2.84-12.37-3-18.6-.95-35.96-1.24-71.94-2.42-107.89-.3-9.07,4.32-13.83,10.25-19.15,4.67,9.14,80.56,442.05,89.84,510.95Z"/>
  <path class="st0" d="M323.93,919.26c.83-9.49,1.99-18.96,2.4-28.47.42-9.81,3.25-18.14,11.54-24.03,5.05-3.58,6.53-9.12,7.54-14.7.97-5.37,3.72-7.57,9.18-8.58,52.04-9.63,104.01-19.58,156.01-29.44,6.87-1.3,13.82-2.28,20.59-3.97,19.91-4.97,40.28-4.73,60.53-5.69,159.44-7.56,319.02-8.01,478.59-8.97,17.66-.11,35.31-.55,52.97-.81,3.28-.05,6.56,0,9.8,0,.26,7.53-16.23,44.05-28.25,63.25-8.83.65-18.04,1.32-27.32,2-3.66-7.88-7.5-14.91-10.22-22.34-2.47-6.76-6.84-8.79-13.55-8.94-16.65-.39-33.28-1.3-49.93-1.96-40.61-1.6-81.21-3.81-121.83-4.51-23.26-.4-46.57,1.36-69.83,2.69-22.94,1.31-45.83,3.35-68.75,4.98-55.14,3.93-110.29,7.81-165.44,11.7-29.9,2.11-59.82,4.01-89.69,6.39-7.53.6-15.02,2.34-22.39,4.14-27.48,6.7-54.87,13.79-82.37,20.42-7.04,1.7-12.77,4.71-17.86,9.99-11.32,11.76-23.12,23.05-34.78,34.47-1.34,1.32-3.03,2.28-4.56,3.4-.79-.33-1.59-.66-2.38-.99Z"/>
  <path class="st0" d="M1444.36,278.07c84.87-.97,168.05-1.92,252.62-2.89,1.91,33.13.69,65.28,2.67,98.81h-253.57c-.56-31.11-1.13-62.81-1.72-95.92Z"/>
  <path class="st0" d="M438.57,1173.76c6.6,15.74,15.15,28.55,15.59,45.75,1.59,62.61,4.73,125.19,7.22,187.78,1.08,27.3,2.01,54.61,2.98,81.92.11,3.19.02,6.38.02,9.69-8.44-.74-111.25-44.01-122.96-51.44.75-2.89,1.47-6.07,2.4-9.19,22.23-75.36,44.51-150.7,66.68-226.08,1.63-5.55,4.09-10.33,8.01-14.66,6.47-7.15,12.48-14.72,20.07-23.76Z"/>
  <path class="st0" d="M1152.73,944.43c14.74-3.67,29.42.51,44.73-1.79-1.04-20.17-2.06-39.99-3.11-60.51,4.78-2.18,9.51-4.33,15.06-6.86.9,2.82,1.99,4.84,2.16,6.94,2.15,27.22,4.14,54.46,6.22,81.69,3.87,50.81,7.79,101.61,11.64,152.42,2.89,38.19,5.7,76.39,8.58,114.58,1.05,13.95,2.24,27.88,3.27,41.83.22,2.93.03,5.9.03,9.57-17.53,6.91-35.07,13.82-54.03,21.29-11.53-119.88-22.95-238.69-34.54-359.17Z"/>
  <path class="st0" d="M1040.01,2155.75c-7.76-3.51-14.93-6.75-22.95-10.38,1.03-4,1.46-7.61,2.86-10.78,16.37-37.18,32.88-74.3,49.35-111.44,1.47-3.31,2.57-6.61,6.98-7.7,2.33-.57,4.2-3.13,6.19-4.9,90.78-80.95,181.58-161.88,272.26-242.94,4.66-4.16,9.55-6.56,15.64-7.82,32.27-6.69,64.51-13.54,96.66-20.82,7.94-1.8,13.84-.79,19.68,5.28,8.53,8.87,17.98,16.87,26.97,25.3,2.07,1.94,3.89,4.16,7.52,8.07-6.07,0-9.86.48-13.49-.09-12.17-1.92-24.32-3.96-36.38-6.47-5.2-1.08-9.56-.46-14.34,1.83-29.73,14.25-59.28,28.94-89.54,41.98-14.38,6.2-26.36,14.91-38.05,24.81-72.49,61.35-145.1,122.57-217.77,183.71-6.23,5.24-11.08,11.09-14.72,18.47-16.51,33.45-33.43,66.69-50.17,100.02-2.08,4.14-4.04,8.35-6.7,13.87Z"/>
  <path class="st0" d="M333.11,1027.58c37.15,43.81,74.31,87.62,112.21,132.31-6.47,4.16-11.86,7.92-17.54,11.17-4.25,2.44-7.1,5.69-9.17,10.11-5.94,12.66-12.21,25.15-18.22,37.78-1.27,2.68-2.09,5.6-2.92,8.47-19.84,68.75-39.65,137.51-59.49,206.26-.98,3.39-2.24,6.7-3.52,10.5-6.74-4.64-8.41-9.88-8.3-17.25,1.59-108.93,2.85-217.87,4.07-326.8.27-23.9.04-47.81.04-71.72.94-.28,1.89-.56,2.83-.84Z"/>
  <path class="st0" d="M1440.46,265.75c-.1-8.18,22.13-76.19,30.75-95h192.42c4.15,9.66,8.15,19.03,12.2,28.38,7.94,18.31,15.98,36.58,23.83,54.93,2.98,6.97,1.6,8.99-5.83,9.51-1.33.09-2.66.04-3.99.05-79.22.71-158.44,1.42-237.67,2.13-3.91.03-7.81,0-11.7,0Z"/>
  <path class="st0" d="M1778.14,1556.19c-7.12,0-13.07.13-19.01-.02-107.93-2.72-215.85-5.48-323.78-8.24-12.32-.31-24.65-.87-36.97-.94-8.36-.05-16.37-.48-23.3-9.98,1.67-1,4.17-2.07,6.15-3.76,15.99-13.61,31.86-27.34,47.79-41.01,8.07-6.93,9.81-6.97,20.89-.15-7.86,9.85-15.65,19.62-24.98,31.32,7.56,0,13.08.55,18.41-.24,2.46-.37,4.99-3,6.7-5.22,7.54-9.74,14.8-19.71,22.22-29.69h19.27c-5.24,12.6-10.23,24.6-15.46,37.16h26.86c5.37-11.31,10.75-22.65,16.49-34.73,8.33.71,16.76,1.43,25.86,2.2-.95,11.71-1.84,22.59-2.83,34.74,9.1.6,17.85.07,28-1.14.59-10.58,1.17-21.05,1.79-32.31h35.03c1.57,11.64,3.15,23.38,4.86,36.09,9.14-.69,17.6-1.32,27.21-2.04-4.91-13.5-9.38-25.8-14.59-40.13,12.74,3.31,23.28,5.85,33.64,8.96,1.58.47,2.66,3.5,3.46,5.54,3.36,8.63,6.53,17.33,9.57,25.49h26.16c-4.04-10.31-9-18.82-14.12-27.79,4.04-3.15,8.83-1.5,13.18-1.86,4.6-.38,9.26-.09,13.96-.09,3.73,4.86,7.3,10.04,11.42,14.73,4.02,4.58,6.64,10.67,13.77,13.62.39-6.96-4.72-10.59-6.73-15.49-2.03-4.96-7.38-8.57-6.55-15.15,6.91,3.62,50.21,50.16,55.6,60.12Z"/>
  <path class="st0" d="M1152.39,657.64c-3.71,3.39-6.78,6.21-10.59,9.69-2.9-3.6-5.17-6.37-7.38-9.18-22.84-29.08-45.73-58.13-68.46-87.31-3.78-4.85-8.14-8.52-13.61-11.36-23.06-11.96-46.14-23.89-68.87-36.46-11.54-6.38-23.55-10.4-36.43-12.92-38.55-7.53-77.06-15.32-115.47-23.52-14.4-3.08-28.53-.62-42.71.25-31.58,1.93-63.11,4.6-94.67,6.9-20.93,1.53-41.88,2.82-62.79,4.51-3.86.31-7.83,1.58-11.37,3.24-39.22,18.33-78.41,36.71-117.46,55.4-4.29,2.05-8.31,5.56-11.3,9.32-25.9,32.61-51.58,65.4-77.19,98.23-1.98,2.53-3.33,5.71-4.37,8.8-12.69,37.52-25.27,75.09-37.9,112.63-1.25,3.73-2.73,7.38-4.04,10.92-4.86.6-8.99,1.11-13.82,1.71.19-2,.04-3.94.58-5.67,11.26-36.23,22.99-72.31,33.74-108.69,4.72-15.97,12.28-29.66,23-42.4,23.38-27.78,45.85-56.33,68.55-84.68,4.06-5.07,8.72-8.84,14.6-11.68,39.89-19.25,79.64-38.77,119.52-58.04,3.49-1.69,7.48-2.81,11.34-3.17,61.67-5.79,123.36-11.44,185.05-17.03,3.25-.29,6.67-.27,9.86.38,49.24,10.09,98.46,20.29,147.68,30.52,1.92.4,3.89.97,5.6,1.9,28.95,15.77,57.9,31.54,86.73,47.51,3.69,2.05,7.35,4.77,10,8.01,26.37,32.24,52.52,64.65,78.72,97.03,1.03,1.28,1.85,2.73,3.46,5.14Z"/>
  <path class="st0" d="M1687.86,920.49c.89,19.68,1.76,38.29,2.55,56.89.05,1.25-.39,2.52-.84,5.17-76.87-.9-153.58-1.79-230.9-2.7-.24-3.57-.7-6.14-.53-8.67,1.02-15.61,2.08-31.22,3.35-46.82.7-8.57.94-8.8,9.73-8.65,36.96.64,73.92,1.4,110.87,2.14,32.3.64,64.59,1.3,96.89,1.98,2.6.06,5.2.37,8.88.64Z"/>
  <path class="st0" d="M346.96,791.77h-27.39c1.14-140.3,2.28-279.99,3.42-420.71,10.53.73,20.21,1.39,30.43,2.1-2.16,140.25-4.31,279.27-6.46,418.61Z"/>
  <path class="st0" d="M1729.93,1329.24c-1.73,1.69-3.33,3.69-5.33,5.12-15.43,11.04-30.82,22.15-46.52,32.79-3.34,2.26-7.92,3.78-11.93,3.8-62.92.38-125.85.51-188.77.46-3.34,0-7.36-1.2-9.9-3.26-14.46-11.76-28.57-23.95-42.78-36.03-.7-.59-1.13-1.51-1.62-2.2.24-.49.35-.82.55-1.08.19-.23.48-.53.73-.54,98.53-.62,197.06-1.22,295.59-1.82,2-.01,4-.05,5.99.14.92.09,1.8.67,2.67,1.09.27.13.44.49,1.31,1.5Z"/>
  <path class="st0" d="M393.72,2295.09h38.54c1.59-4.85,3.83-10.36,5.2-16.08,8.93-37.24,17.71-74.51,26.42-111.8.9-3.87,1.35-7.89,1.57-11.86.91-16.64,2.15-33.28,2.26-49.93.07-10.91,5.37-18.67,12.67-27.68,1.3,4.91,2.39,8.54,3.21,12.24,1.59,7.15,2.46,14.51,4.65,21.47,3.96,12.58,2.45,24.6-.74,37.13-15.42,60.67-30.32,121.47-45.48,182.21-.71,2.83-1.51,6.02-3.33,8.13-11.3,13.13-22.9,26.01-34.44,38.94-.61.69-1.6,1.04-3.04,1.93-1.32-2.41-2.7-4.54-3.72-6.83-6.8-15.2-13.41-30.49-20.33-45.64-2.02-4.42-2.57-8.47-1.41-13.34,15.74-66.08,31.29-132.21,46.79-198.34,1.34-5.7,3.82-10.38,8.21-14.43,9.01-8.32,17.65-17.05,26.62-25.79,4.83,9.28,4.96,18.4.55,25.82-9.53,16.04-19.31,31.94-28.65,48.09-2.62,4.53-4.72,9.58-5.93,14.66-9.17,38.55-18.08,77.16-26.99,115.77-1.03,4.47-1.58,9.05-2.66,15.36Z"/>
  <path class="st0" d="M1566.94,39.84c1.78,2.03,3.52,3.96,5.19,5.95,26.58,31.61,53.14,63.23,79.74,94.82,2.57,3.05,5.58,5.75,7.96,8.93,1.4,1.87,1.95,4.37,3.66,8.43-62.67-1.16-123.41-2.28-185.86-3.44,1.54-4,1.97-7,3.59-9.05,27.54-34.69,55.23-69.26,82.93-103.82.57-.72,1.6-1.06,2.79-1.82Z"/>
  <path class="st0" d="M1656.36,777.56c-8.46,1.16-16.24,2.23-25.2,3.46,22.36-133.88,44.54-266.73,66.88-400.51,10.01.9,19.44,1.75,28.78,2.59.99,7.89-63.28,367.13-70.47,394.46Z"/>
  <path class="st0" d="M1483.84,1435.47c-1.17-15.71-2.39-30.98-3.42-46.27-.65-9.62.3-10.73,9.52-10.81,56.99-.45,113.99-.82,170.98-1.18,1.96-.01,3.91.32,6.4.54v60.58c-8.79,2.67-155.97.35-183.48-2.87Z"/>
  <path class="st0" d="M536.85,268.51c-8.43-1.54-16.92-2.77-25.25-4.71-7.31-1.71-14.29-1.57-21.66-.03-32.91,6.88-65.88,13.44-98.88,19.84-4.83.94-8.61,2.81-12.14,6.15-11.61,11-23.53,21.66-35.09,32.71-3.87,3.7-7.89,5.54-13.32,5.38-10.94-.31-21.9-.09-33.7-.09-6.91-17.67-13.9-35.56-21.16-54.12,12.36-8.74,24.36-17.53,36.75-25.73,2.44-1.61,6.38-1.28,9.63-1.29,57.31-.18,114.62.05,171.91-.67,11.57-.15,21.28,1.85,30.05,9.32,4.4,3.75,9.41,6.78,14.15,10.14-.43,1.03-.86,2.07-1.3,3.1Z"/>
  <path class="st0" d="M1518.02,779.05c-9.31,1.77-17.32,3.29-26.48,5.03-24.94-131.65-49.78-262.84-74.86-395.24,7.85-.64,14.66-1.2,22.63-1.85,26.18,130.4,52.27,260.37,78.71,392.05Z"/>
  <path class="st0" d="M867.92,580.2c-2.22,12.88-4.42,25.59-6.78,39.28-14.02,5.82-28.72,11.83-43.33,18.08-3.45,1.48-6.57,3.74-11.11,6.38-14.82-7.13-30.94-14.9-47.07-22.66-2.4-1.15-4.68-2.73-7.2-3.38-3.05-.78-6.3-.78-10.7-1.24-1.13-9.65-1.46-21.05-4-31.93-3.06-13.09.89-22.51,11.1-30.24,1.84-1.39,3.48-3.14,4.88-4.98,2.49-3.29,5.7-3.96,9.62-3.85,13.63.37,27.27.47,40.9.67,2,.03,4.21.65,5.95,0,9.81-3.69,16.04,2.56,22.8,7.69,11.37,8.61,22.82,17.11,34.95,26.2Z"/>
  <path class="st0" d="M1163.47,820.54c-4.08,2.72-6.35,4.77-9.01,5.89-8.11,3.42-11.79,9.64-13.85,17.97-2.24,9.07-4.1,17.73-3.06,27.37,5.03,46.68,9.36,93.44,13.89,140.18,4.27,44.09,8.44,88.19,12.7,132.27,5.39,55.69,10.84,111.37,16.29,167.05.09.95.54,1.87,1.15,3.87,9.09.3,18.47.6,28.21.92-3.84,9.05-30.06,41.66-37.81,46.86-1.27-10.69-2.57-20.75-3.64-30.83-7.32-69.22-14.62-138.43-21.86-207.66-5.65-53.99-11.15-107.99-16.81-161.98-3.65-34.78-7.4-69.54-11.23-104.29-.67-6.1-.45-11.8,2.59-17.39,2.37-4.37,4.39-9.03,5.84-13.78,2.3-7.57,6.18-12.52,14.61-14.11,3.38-.63,6.01-1.7,9.16.3,3.59,2.29,7.4,4.25,12.84,7.33Z"/>
  <path class="st0" d="M1085.44,2241.77c24.42,14.8,48.24,29.24,71.57,43.37-.84,16.6-1.71,32.47-2.42,48.35-.78,17.64-1.25,35.29-2.19,52.92-.33,6.28,1.13,11.48,4.67,16.77,29.83,44.56,59.33,89.34,89.21,133.86,2.95,4.4,3.55,7.87,1.87,12.78-5.28,15.43-10.03,31.03-15.09,46.53-.76,2.32-2.06,4.46-4.93,6.41-1.31-9.07-2.62-18.15-3.91-27.22-.56-3.95-1.49-7.92-1.52-11.88-.1-16.39-7.1-29.66-16.38-42.83-26.29-37.29-51.59-75.27-77.46-112.86-2.26-3.29-2.85-6.28-2.67-10.14,1.35-28.61,2.32-57.24,3.7-85.86.28-5.72-1.28-10.09-4.99-14.46-12.5-14.73-24.67-29.74-36.83-44.75-2.09-2.58-6.03-4.78-2.64-11.01Z"/>
  <path class="st0" d="M456.84,1595.06c-4.56,3.52-8.72,7.3-13.4,10.26-13.03,8.21-22.13,19.59-29.73,32.89-11.73,20.53-24.6,40.39-36.81,60.65-2.9,4.82-5.46,9.93-7.53,15.16-12.26,30.96-24.11,62.07-36.52,92.97-9.5,23.65-19.61,47.05-29.99,71.82-7.39-8.19-13.66-15.14-20.82-23.08.39-1.17,1.21-4,2.29-6.73,19.58-49.54,39.06-99.13,58.92-148.56,3.33-8.28,8.27-15.92,12.63-23.76,9.07-16.3,16.46-33.95,27.91-48.38,11.44-14.42,26.97-25.6,40.71-38.2,5.35-4.91,10.69-9.82,16.59-15.24,5.43,6.96,10.27,13.17,15.75,20.2Z"/>
  <path class="st0" d="M1583.57,776.63c-9.27-.93-17.09-1.72-24.78-2.5v-388.76c6.71.32,12.55.59,19.51.92.42,5.1,1.07,9.59,1.12,14.09,1.09,102.56,2.09,205.12,3.16,307.68.2,18.98.67,37.96.99,56.93.06,3.27,0,6.55,0,11.64Z"/>
  <path class="st0" d="M1650.33,889.05h-152.07c.52-9.14,1.08-18.96,1.64-28.79,8.87-8.82,17.61-17.78,26.75-26.31,1.28-1.2,4.51-.44,6.83-.39,28.96.62,57.91,1.34,86.87,1.84,4.61.08,8.15,1.47,11.65,4.5,17.68,15.36,17.75,15.28,18.32,38.44.07,2.94,0,5.87,0,10.71Z"/>
  <path class="st0" d="M348.55,810.63c-3.21,13.5-5.83,25.11-8.83,36.62-.52,1.99-2.39,3.88-4.09,5.26-4.11,3.33-8.48,6.34-13.34,9.9-.44,44.33-.89,89.11-1.35,135.09-11.09-2.31-20.66-4.31-30.76-6.41,0-4.74-.02-8.98,0-13.23.31-47.57.75-95.15.82-142.72,0-6.25,2.41-9.96,6.63-14.39,9.82-10.3,20.67-14.73,34.74-11.41,4.7,1.11,9.74.82,16.17,1.28Z"/>
  <path class="st0" d="M1682.85,1450.77c.6,9.56,1.18,18.71,1.77,28.19-70.95-2.61-140.74-5.17-211.81-7.79-.34-6.25-1.07-13.09-.86-19.9.06-1.83,2.68-4.08,4.65-5.2,1.54-.87,3.9-.4,5.89-.35,65.28,1.42,130.57,2.85,195.85,4.3.98.02,1.95.31,4.51.74Z"/>
  <path class="st0" d="M724.25,2208.41c-45.22-3.59-89.24-7.09-134.12-10.65,0-3.77-.38-6.7.07-9.49,1.29-7.88,2.79-15.73,4.44-23.55,1.62-7.7,2.15-8.08,10-7.25,21.86,2.32,43.7,4.73,65.54,7.17,15.88,1.77,31.76,3.64,47.63,5.51,3.24.38,6.46,1,11.07,1.73-1.57,12.33-3.05,23.99-4.64,36.53Z"/>
  <path class="st0" d="M285.72,1141.72c0-12.61,0-25.21,0-37.82,0-16.64-.3-33.29.12-49.92.22-8.58-1.26-16.41-5.37-23.92-2.01-3.66-3.33-7.7-5.63-13.13,17.14-1.7,32.73-3.25,49.74-4.93.62,43.62,1.22,86.04,1.84,129.72h-40.69Z"/>
  <path class="st0" d="M359.84,368.82c-7.95-2.88-15.91-5.77-25.12-9.11,4.13-11.15,7.96-21.64,11.96-32.06.43-1.11,1.65-2.25,2.77-2.72,12.46-5.17,23.87-12.49,38.3-13.01,27.23-.97,54.4-3.55,81.61-5.21,3.02-.18,6.43.73,9.15,2.13,3.48,1.78,6.45,4.57,10.56,7.6-2.37,4.36-4.38,8.8-7.11,12.75-1.1,1.58-3.68,2.7-5.73,2.98-19.43,2.63-38.85,5.5-58.37,7.19-5.13.45-11-2.17-15.79-4.75-6.26-3.37-11.14-2.9-16.07,1.95-1.88,1.85-4.21,3.24-6.34,4.83-4.79,3.59-10.57,6.42-14.07,11-3.11,4.08-3.69,10.1-5.76,16.4Z"/>
  <path class="st0" d="M1166.77,824.54c10.06,15.92,19.25,30.46,28.86,45.67-8.7,5.07-7.47,12.93-6.69,20.99,1.34,13.81,2.12,27.67,3.18,41.99-12.31.77-23.82,1.5-35.33,2.2-3.68.22-5.54-1.82-5.97-5.24-.29-2.3-.34-4.64-.4-6.96-.66-22.25-1.09-44.5-2.08-66.73-.3-6.79,1.29-12.18,6-17.06,4.1-4.26,7.63-9.06,12.44-14.87Z"/>
  <path class="st0" d="M459.76,2164.27c-10.25,41.63-20.23,82.17-30.17,122.53h-29.86c10.77-42.75,21.3-84.52,32.03-127.1,9.49,1.55,18.18,2.97,28,4.57Z"/>
  <path class="st0" d="M309.05,1148.06c4.87-.71,9.36-1.36,15.2-2.21-.55,78.78-1.09,156.55-1.64,234.99h-13.48c-2.14-7.57-2.21-211.71-.09-232.78Z"/>
  <path class="st0" d="M82.96,2523.55c6.37.99,11.83,1.84,18.12,2.82,3.66,15.09,10.03,29.31,8.51,45.52-1.33,14.21-1.71,28.56-1.63,42.84.04,7.04-2.21,11.29-8.73,13.63-2.73.98-5.28,2.5-8.2,3.91-3.48-6.02-3.81-13.45-10.7-16.62-.79-.36-.82-2.41-1.2-3.68-5.27-17.74-7.06-36.05-5.34-54.24,1.07-11.32,5.84-22.29,9.16-34.19Z"/>
  <path class="st0" d="M604.8,2129.51c-.37-1.39-.62-1.77-.53-2.02,8.81-24.26,7.43-20.34,26.74-17.9,33.33,4.2,66.7,8.13,100.04,12.22,2.24.27,4.43.9,6.54,1.34.26,21.4-1.2,22.52-20.75,20.06-35.64-4.49-71.33-8.59-107-12.87-1.62-.2-3.23-.52-5.05-.82Z"/>
  <path class="st0" d="M879.3,696.95c11.08-.71,20.55-1.33,31.17-2.01,5.49,24.83,10.96,49.59,16.61,75.13-12.28,3.38-23.9,4.3-36.54,5.78-3.74-26.3-7.37-51.76-11.23-78.9Z"/>
  <path class="st0" d="M926.83,694.24c11.17-.87,20.37-1.58,30.98-2.4,5.55,24.95,11.06,49.71,16.8,75.48-12.1,3.24-23.77,4.15-36.67,5.62-3.74-26.49-7.33-51.95-11.1-78.7Z"/>
  <path class="st0" d="M1014.5,767.07c-11.84.55-22.58,1.05-34.46,1.6-1.51-25.15-2.96-49.15-4.45-73.9h28.83c4.12,23.38,6.98,47.17,10.07,72.29Z"/>
  <path class="st0" d="M1020.09,695.57h29.26c3.27,23.87,6.48,47.36,9.87,72.1-11.93.79-22.65,1.51-34.56,2.3-1.55-25.2-3.02-49.23-4.57-74.4Z"/>
  <path class="st0" d="M1099.19,769.54h-32.68c-.86-23.85,1.52-46.9,1.34-71.2,9.56.84,17.99,1.57,27.76,2.43,1.19,22.89,2.37,45.59,3.57,68.78Z"/>
  <path class="st0" d="M1110.01,702.64c10.42,1.05,18.9,1.91,27.9,2.82,1.21,22.91,2.38,45.09,3.6,68.29-10.84,1.99-21.22-.01-32.62.47-.9-24.07,1.49-47.05,1.11-71.58Z"/>
  <path class="st0" d="M1106.85,1467.21c9.97,7.83,19.58,15.38,30.63,24.05-8.11,4.69-15.07,8.77-22.07,12.77-7.19,4.11-14.43,8.14-22.07,12.44-9.07-5.85-17.93-11.58-28.25-18.24,14.45-10.74,27.88-20.71,41.76-31.03Z"/>
  <path class="st0" d="M1175.44,779.74c-9.64-1.09-19.03-2.16-29.34-3.33,2.43-22.56,4.73-43.87,7.15-66.36,4.41.75,8,.96,11.28,2.08,1.87.64,4.04,2.44,4.73,4.23,7.47,19.47,10.83,39.54,7.72,60.39-.09.61-.58,1.16-1.54,2.99Z"/>
  <path class="st0" d="M1187.6,1359.96c1.02-1.98,1.87-4.07,3.09-5.92,9.17-13.88,18.4-27.72,27.65-41.55,1.1-1.64,2.12-3.65,3.71-4.58,11.36-6.67,22.86-13.11,34.32-19.62.51.47,1.02.94,1.53,1.41-.61,1.99-.84,4.21-1.89,5.93-8.88,14.46-17.78,28.9-27.03,43.13-1.62,2.49-4.64,4.33-7.39,5.79-10.82,5.72-21.78,11.17-32.69,16.71-.43-.43-.87-.86-1.3-1.29Z"/>
  <path class="st0" d="M499.62,318.82c-7.77-6.49-14.59-12.18-22.05-18.41,7.97-12.43,17.44-22.58,26.15-34.16,10.28,3.83,20.09,7.48,31.62,11.78-12.33,14.08-23.59,26.94-35.72,40.79Z"/>
  <path class="st0" d="M1152.72,1516.48c-17.21,9.62-33.1,18.51-49.46,27.67-4.67-6.53-3.33-13.82-4.55-20.4-.28-1.52,2.02-4.16,3.77-5.33,11.57-7.74,23.31-15.21,35.64-23.2,4.81,7.01,9.23,13.44,14.59,21.26Z"/>
  <path class="st0" d="M579.09,786.13c-.43-9.38-.84-18.1-1.31-28.28,16.59,1.05,31.27,4.19,45.79,6.47,1,5.38-2.66,5.79-5.22,6.8-12.61,4.93-25.28,9.69-39.27,15.02Z"/>
  <path class="st0" d="M289.7,1404.61c8.54-5.12,17.85-8.25,26.86-11.94,3.27,5.94,5.11,28.43,3.59,41.68-6.52-3.41-24.55-20.85-30.45-29.75Z"/>
  <path class="st0" d="M555.82,784.44c-15.24-1.32-29.77-3.35-44.34-7.32,14.02-7.88,28.79-13.24,43.28-18.97,4.01,6.25,4.29,13.01,1.06,26.28Z"/>
  <path class="st0" d="M1093.15,1544.78c-10.45-5.61-19.97-10.73-30.45-16.35.65-5.98,1.38-12.8,2.23-20.61,2.59.85,4.71,1.29,6.58,2.21,2.67,1.31,5.01,3.42,7.77,4.43,13.89,5.06,16.49,15.55,13.87,30.33Z"/>
  <path class="st0" d="M104.59,2522.22c-4.13-2.58-7.94-4.97-12.13-7.59-4.67,2.45-9.52,4.99-14.52,7.6-2.49-10.44,4.4-22.58,19.93-36.13,3.77,5,7.78,25.71,6.71,36.13Z"/>
  <path class="st0" d="M312.46,361.31c-2.58-6.87-5.06-13.5-7.87-20.98,9.51-3.13,17.9-3,27.94-3.76-2.32,8.88-4.35,16.64-6.47,24.74h-13.6Z"/>
</svg>