<?xml version="1.0" encoding="UTF-8"?>
<svg id="Layer_0_xA0_Image" xmlns="http://www.w3.org/2000/svg" version="1.1" viewBox="0 0 2048 2732">
  <!-- Generator: Adobe Illustrator 30.2.1, SVG Export Plug-In . SVG Version: 2.1.1 Build 1)  -->
  <defs>
    <style>
      .st0 {
        fill: #5f4e7d;
      }
    </style>
  </defs>
  <path class="st0" d="M376,0c3.86,1.9,7.63,4.03,11.6,5.65,25.29,10.3,50.64,20.47,75.94,30.74,3.59,1.46,7.05,3.23,10.8,4.96-1.88,8.22-7.69,12.64-11.59,18.22-3.96,5.68-8.37,11.03-14.17,18.61,11.02-1.22,19.68-2.03,28.31-3.17,12.06-1.59,13.26-1.06,18.14,10.26,14.11,32.72,28.18,65.47,42.26,98.21.79,1.84,1.57,3.68,2.26,5.55,1.31,3.52.76,6.52-2.54,8.74-1.93,1.3-3.81,2.69-5.72,4.03-114.34,80.7-228.69,161.41-343.03,242.11-1.91,1.34-3.82,2.68-5.74,4-3.55,2.44-7.48,2.33-9.96-.82-8.61-10.92-16.78-22.19-24.28-32.22,11.03-18.23,21.31-35.22,32.27-53.34-3.7-.42-6.15-.94-8.6-.93-17.66.07-35.33.13-52.99.48-5.46.11-9.23-1.44-12.55-6.16-13.45-19.06-27.33-37.81-41.06-56.67-.2-.27-.41-.52-.59-.8-1.95-3-5.59-6.32-2.57-9.64,1.65-1.81,6.07-1.89,9.11-1.54,36.07,4.14,72.12,8.51,108.17,12.79,6.15.73,12.33,1.32,20.24,2.16-2.43-3.77-3.73-5.97-5.2-8.04-6.17-8.7-12.97-17.01-18.42-26.13-4.95-8.28-11.63-11.47-20.89-12.7-32.68-4.35-65.27-9.39-97.89-14.23-3.14-.47-6.22-1.38-9.2-2.06,1.13-10.24,39.53-105.44,44.07-110.76,5.51.9,10.55,2.26,15.64,2.46,56.94,2.21,113.89,4.25,170.84,6.3,4.31.15,8.63.02,13.97.02,1.59-6.7,3.17-13.33,4.87-20.49-2.18-.69-3.63-1.47-5.13-1.58-38.88-2.78-77.78-5.47-116.66-8.23-24.59-1.75-49.19-3.52-73.76-5.49-3.81-.31-7.53-1.75-12.4-2.94,5.43-17.58,12.84-33.16,19.04-49.16C114.83,32.04,121.51,16.05,128,0c82.67,0,165.33,0,248,0Z"/>
  <path class="st0" d="M1672,2732c-2.85-1.54-5.58-3.36-8.56-4.58-25.58-10.47-51.22-20.82-76.82-31.26-3.29-1.34-6.47-2.97-9.84-4.53,1.47-8.27,7.49-12.57,11.33-18.17,3.91-5.71,8.39-11.03,14.31-18.7-8.68.97-15.03,1.44-21.42,2.29-22.01,2.93-20.03,2.45-27.5-15.02-13.36-31.24-26.87-62.41-40.25-93.64-4.18-9.76-4.11-9.84,4.74-16.09,115.16-81.3,230.34-162.58,345.51-243.87,1.36-.96,2.68-2,4.11-2.83,5.26-3.07,8.58-2.84,12.22,1.79,7.21,9.16,14.12,18.56,21.07,27.92,2.37,3.19.99,5.45-1.14,8.7-9.98,15.2-19.28,30.84-29.96,48.14,5.41,0,8.6,0,11.78,0,17-.06,34,.04,51-.29,5.2-.1,8.59,1.5,11.66,5.82,13.71,19.28,27.76,38.33,41.68,57.46.59.81,1.43,1.55,1.7,2.45.7,2.41,2.27,5.48,1.38,7.16-.81,1.53-4.5,2.39-6.77,2.14-22.52-2.45-45.01-5.19-67.5-7.85-20.48-2.42-40.96-4.83-63-7.43,1.91,3.4,2.94,5.67,4.36,7.66,7.31,10.34,14.93,20.47,22,30.97,3.08,4.58,6.89,6.68,12.19,7.43,33.31,4.73,66.6,9.6,99.88,14.54,4.43.66,8.77,1.92,14.46,3.19-15.18,37.92-29.82,74.49-43.99,109.9-10.59-1.01-19.37-2.27-28.18-2.62-54.95-2.17-109.91-4.13-164.86-6.15-2.64-.1-5.28-.01-9.18-.01-1.67,6.92-3.31,13.76-5.14,21.35,4.19.69,7.05,1.39,9.94,1.59,52.19,3.64,104.38,7.21,156.58,10.81,9.64.66,19.3,1.16,28.91,2.13,3.81.38,7.51,1.85,12.39,3.11-1.42,4.67-2.27,8.45-3.69,12-10.01,25.05-20.16,50.05-30.21,75.09-1.23,3.06-2.12,6.26-3.17,9.4h-252Z"/>
  <path class="st0" d="M0,1742c2.97-1.95,6.27-3.54,8.87-5.91,38.64-35.22,77.19-70.55,115.75-105.85,1.23-1.12,2.4-2.32,3.67-3.39,5.5-4.66,6.47-4.68,11.84-.17,1.27,1.07,2.45,2.25,3.67,3.39,42.44,39.45,84.89,78.9,127.33,118.36,2.9,2.7,5.78,5.42,9.71,9.1-14.49,16.81-28.51,33.09-42.9,49.79,19.81,23.98,39.26,47.52,58.45,70.76-49.82,106.05-99.19,211.15-148.57,316.26-.57,1.21-1.1,2.43-1.76,3.58-2.98,5.14-6.96,5.9-11.23,1.87-1.91-1.8-3.35-4.12-4.96-6.25-40.56-53.66-81.1-107.33-121.73-160.95-2.37-3.12-5.41-5.73-8.15-8.58,0-13.33,0-26.67,0-40,3.05,2.4,6.46,4.45,9.09,7.24,37.36,39.83,74.61,79.76,111.91,119.64,2.17,2.32,4.57,4.43,7.61,7.36,35.6-73.46,70.67-145.83,105.97-218.68-12.93-12.62-25.46-24.85-38.64-37.72-13.65,14.97-26.62,29.17-39.57,43.39-13,14.28-25.86,28.69-39.01,42.83-13.03,14.02-25.06,29.02-39.47,42.24-2.97-3.17-5.11-5.67-7.47-7.95-21.06-20.37-42.13-40.73-63.27-61.02-2.13-2.04-4.75-3.56-7.14-5.33,0-58,0-116,0-174Z"/>
  <path class="st0" d="M2048,992c-5.72,5.01-11.54,9.91-17.16,15.04-35.19,32.15-70.32,64.36-105.49,96.53-2.64,2.41-5.47,4.6-9.17,7.69-48.56-45.14-96.56-89.76-144.68-134.48,2.09-7.95,8.46-12.22,12.86-17.83,4.31-5.5,9.11-10.63,13.68-15.92,4.77-5.52,9.53-11.05,15.02-17.41-19.72-23.8-39.18-47.29-58.55-70.66,23-48.96,45.63-97.16,68.27-145.35,26.49-56.38,52.98-112.76,79.49-169.14,6.22-13.22,9.33-13.58,18.12-1.95,41.21,54.5,82.37,109.02,123.59,163.51,1.12,1.49,2.67,2.66,4.02,3.97v42c-41.53-44.24-83.06-88.48-125.49-133.67-35.79,73.85-70.85,146.21-106.14,219.03,13.01,12.71,25.54,24.96,38.67,37.79,13.59-14.93,26.56-29.17,39.52-43.42,12.99-14.28,25.87-28.68,39.01-42.82,12.99-13.99,25.05-28.92,39.13-42.08,25.77,25.04,50.54,49.11,75.31,73.18v176Z"/>
  <path class="st0" d="M0,826c76.45,4.63,152.89,9.26,230.19,13.94,6.65-16.6,13.17-32.86,20.16-50.29-27.78-10.02-54.92-19.74-82.02-29.6-27.07-9.85-54.36-19.15-81.57-29.62,28.79-73.08,57.04-144.78,85.75-217.64,4.43,1.66,8.43,2.85,12.16,4.59,72.74,33.89,145.45,67.85,218.17,101.8,12.97,6.06,25.99,12.03,38.89,18.23,6.66,3.2,6.98,3.94,4.46,10.73-21.54,58.06-43.15,116.09-64.78,174.11-.56,1.5-1.48,2.87-2.88,5.52-20.3-6.61-40.41-13.15-61.57-20.04-1.61,2.83-3.26,5.57-4.75,8.4-11.51,21.79-23.13,43.53-34.38,65.45-2.78,5.41-5.71,7.25-12.28,6.88-46.9-2.6-93.84-4.49-140.76-6.65-41.6-1.91-83.19-3.87-124.79-5.81C0,859.33,0,842.67,0,826Z"/>
  <path class="st0" d="M2048,1906c-17.96-.85-35.93-1.56-53.88-2.58-43.56-2.48-87.12-5.1-130.68-7.66-13.94-.82-27.87-1.65-42.81-2.53-6.64,16.6-13.13,32.83-19.99,49.98,54.93,20.32,109.45,39.17,163.58,59.2-28.89,73.32-57.15,145.04-85.9,217.98-3.98-1.54-7.61-2.72-11.05-4.33-70.92-33.06-141.81-66.18-212.71-99.28-15.09-7.04-30.22-13.97-45.26-21.12-6.4-3.04-7.04-4.32-4.6-10.88,21.78-58.67,43.68-117.3,65.58-175.93.33-.88,1.11-1.59,2.57-3.6,20.03,6.54,40.41,13.19,61.34,20.02,14.57-27.51,28.7-54.21,42.87-80.97,17.89.77,35.14,1.46,52.38,2.26,40.26,1.86,80.52,3.78,120.79,5.65,29.61,1.38,59.23,2.75,88.85,4.06,2.96.13,5.95-.18,8.92-.28v50Z"/>
  <path class="st0" d="M1558,0c3.55,9.58,7.1,19.15,10.63,28.73,1.33,3.62,2.59,7.26,4.17,11.72-14.22,4.91-28.51,3.59-43.59,7.85,7.77,6.16,14.4,11.43,21.05,16.68,10.57,8.36,10.71,8.7,5.91,20.79-13.02,32.78-26.06,65.55-39.13,98.31-4.63,11.61-4.7,11.68-16.76,9.6-58.7-10.1-117.39-20.25-176.08-30.39-72.14-12.46-144.27-24.91-216.41-37.36-8.53-1.47-17.08-2.78-25.59-4.37-8.98-1.67-10.74-4.18-9.42-12.97,1.82-12.1,3.73-24.18,5.48-35.5,20.51-4.99,40-9.73,61.27-14.9-6.4-6.35-11.32-11.23-16.25-16.11-9.46-9.38-18.77-18.91-28.45-28.05-4.51-4.26-6.14-8.49-2.83-14.03h80c6.67,9.79,14.29,18.77,23.15,29.88,1.91-11.74,3.38-20.81,4.85-29.88C1319.33,0,1438.67,0,1558,0Z"/>
  <path class="st0" d="M494,2732c-4.54-10.73-9.21-21.41-13.59-32.2-2.85-7.04-1.79-8.65,5.88-9.7,11.18-1.54,22.37-2.95,34.89-4.6-2.23-2.38-3.52-4.13-5.16-5.46-5.69-4.61-11.52-9.05-17.26-13.61-7.97-6.33-8.4-8.03-4.59-17.84,1.81-4.66,3.73-9.27,5.57-13.91,11.22-28.14,22.43-56.28,33.65-84.42.86-2.17,1.82-4.3,2.59-6.49,1.75-4.99,5.15-6.31,10.19-5.37,11.78,2.21,23.61,4.15,35.42,6.19,88.24,15.22,176.49,30.44,264.73,45.66,39.37,6.79,78.74,13.54,118.1,20.38,12.65,2.2,15.6,1.72,13.09,18.42-1.28,8.56-2.61,17.11-3.67,25.7-.57,4.62-2.41,6.21-7.43,7.19-17.83,3.47-35.43,8.06-54.59,12.56,3.35,3.63,5.45,6.09,7.74,8.37,11.81,11.75,23.52,23.6,35.58,35.08,4.29,4.08,6.38,8.29,4.85,14.07h-82c-6.19-9.6-13.61-18.18-20.77-26.97-.77.22-1.53.44-2.3.66-.98,8.77-1.95,17.54-2.93,26.31h-358Z"/>
  <path class="st0" d="M1026,0c.39,27.98.78,55.96,1.16,83.94.03,2.33.03,4.66.08,6.99.11,5.48-2.29,8.24-7.96,9.43-20.19,4.25-40.27,9.03-60.4,13.58-117.2,26.46-234.4,52.89-351.6,79.37-16.4,3.7-16.89,3.45-20.94-12.88-1.92-7.75-3.98-15.47-5.8-23.24-.58-2.48-.61-5.09-.74-6.23,16.9-12.32,32.67-23.82,49.56-36.13-3.28-1.82-5.33-3.24-7.59-4.17-16.01-6.59-31.98-13.26-48.13-19.49-5.8-2.24-8.94-5.33-10.36-11.8-4.98-22.75-10.73-45.34-16.27-67.97-.97-3.97-1.97-7.81.98-11.39,2,0,4,0,6,0,1.73,1.43,3.28,3.17,5.2,4.25,34.99,19.69,70.01,39.31,105.05,58.9,1.53.86,3.29,1.31,6.26,2.46-4.06-17.44-7.63-33.57-11.76-49.57-.62-2.42-3.6-4.5-5.9-6.17C648.05,6.38,642.97,3.27,638,0c129.33,0,258.67,0,388,0Z"/>
  <path class="st0" d="M1024,2732c.23-3.63.68-7.25.65-10.88-.21-25.32-.57-50.65-.78-75.97-.09-10.7.05-10.76,10.58-13.14,137.38-30.99,274.76-61.98,412.15-92.96,1.95-.44,3.89-.92,5.87-1.21,4.96-.71,8.48,1.04,9.83,6.15,3.06,11.58,6.19,23.15,9.12,34.77.87,3.43-1.34,4.85-4.15,6.8-14.76,10.22-29.16,20.96-43.65,31.57-.45.33-.53,1.17-1.06,2.44,15.35,6.25,30.41,13.43,46.15,18.48,12.97,4.16,19.12,11.45,21.45,24.89,3.28,18.99,8.89,37.56,13.19,56.39.93,4.07.48,8.45.67,12.69h-8c-.96-.86-1.8-1.93-2.89-2.55-35.68-20.04-71.38-40.04-107.11-60-1.22-.68-2.75-.83-5.37-1.58,3.39,14.82,6.75,28.32,9.49,41.94,1.4,6.97,3.99,12.33,10.95,15.3,3.91,1.67,7.3,4.55,10.93,6.89h-388Z"/>
  <path class="st0" d="M0,908c12.62.19,25.26.11,37.86.63,39.91,1.67,79.81,3.57,119.71,5.36,15.96.72,31.93,1.39,47.89,2.11,9.19.42,9.84,1.07,10.22,10.71.63,15.97,1.19,31.93,1.75,47.9,1.52,42.92,3.04,85.83,4.53,128.75.14,3.92.02,7.85.02,12.86-21.91,1.71-43.01,3.36-65.07,5.09-2.97,30.87-5.88,61.18-8.78,91.37C98.21,1230.72,49.1,1248.36,0,1266c0-17.33,0-34.67,0-52,2.57-.52,5.24-.75,7.7-1.59,25.14-8.65,50.25-17.37,75.34-26.14,2.12-.74,4.08-1.94,5.9-2.82,0-9.19.19-17.83-.05-26.46-.24-8.8.28-17.7-1.1-26.69-30.05,1.27-58.93,2.49-87.8,3.71,0-75.33,0-150.67,0-226Z"/>
  <path class="st0" d="M2048,1826c-70.11-3.23-140.22-6.47-211.3-9.74-.45-3.92-1.02-7.09-1.14-10.28-2.02-53.89-3.97-107.78-5.96-161.66-.25-6.65-.73-13.3-.89-19.95-.18-7.41.2-7.83,7.71-8.43,16.59-1.32,33.18-2.51,49.78-3.77,2.27-.17,4.54-.48,7.75-.82,1.26-12.44,2.56-24.59,3.71-36.76,1.51-15.9,2.93-31.81,4.36-47.72.33-3.67.39-6.96,5.02-8.59,47.03-16.63,93.98-33.48,140.95-50.27v50c-8.7,3.29-17.35,6.73-26.11,9.82-19.75,6.98-39.57,13.79-59.24,20.64v52.97c1.72.45,2.67.93,3.59.89,26.3-1.15,52.59-2.34,78.88-3.57.97-.05,1.92-.5,2.88-.76v228Z"/>
  <path class="st0" d="M0,1298c3.51-.96,7.1-1.67,10.51-2.9,28.18-10.19,56.32-20.5,84.49-30.72,9.46-3.43,9.64-3.41,13.64,5.33,25.13,54.79,50.21,109.61,75.27,164.43,1.08,2.37,1.88,4.87,3.23,8.42-18.51,10.89-38.13,19.05-57.86,30.09,8.9,28.99,17.83,58.11,26.87,87.55-3.66,3.29-7.1,6.35-10.5,9.44-45.33,41.29-90.63,82.61-136.03,123.83-2.84,2.58-6.4,4.37-9.63,6.53,0-22,0-44,0-66,3.01-1.65,6.45-2.82,8.97-5.04,23.22-20.43,46.29-41.05,69.4-61.62,3.95-3.52,7.88-7.05,12.37-11.07-7.03-16.4-13.92-32.47-21.13-49.26-3.81,1.61-6.83,2.77-9.75,4.14-16.86,7.9-33.67,15.89-50.56,23.72-2.95,1.37-6.2,2.1-9.31,3.12,0-80,0-160,0-240Z"/>
  <path class="st0" d="M2048,1436c-3.49.95-7.06,1.66-10.44,2.88-27.55,9.94-55.05,20.03-82.61,29.95-8.05,2.9-8.97,2.56-12.37-4.85-25.79-56.29-51.51-112.62-77.22-168.95-.53-1.17-.84-2.44-1.7-4.96,19.2-9.8,38.32-19.55,57.82-29.5-1.02-3.71-1.81-6.89-2.77-10.01-6.77-21.94-13.26-43.98-20.53-65.76-2.84-8.52-2.03-13.76,5.34-20.34,47.47-42.36,94.26-85.47,141.3-128.31.94-.85,2.12-1.44,3.19-2.15v64c-2.89,2.73-5.73,5.53-8.69,8.18-23.56,21-47.15,41.96-70.73,62.94-2.7,2.4-5.33,4.87-7.74,7.08,4.63,15.29,17.43,43.71,22.2,49.35,18.24-8.58,36.54-17.23,54.89-25.76,3.24-1.51,6.7-2.54,10.07-3.79v240Z"/>
  <path class="st0" d="M0,1916c2.39,1.76,5.01,3.29,7.14,5.33,21.14,20.28,42.22,40.64,63.27,61.02,2.36,2.28,4.5,4.78,7.47,7.95,14.41-13.21,26.44-28.22,39.47-42.24,13.15-14.14,26.01-28.55,39.01-42.83,12.95-14.22,25.92-28.42,39.57-43.39,13.18,12.87,25.71,25.1,38.64,37.72-35.3,72.85-70.37,145.22-105.97,218.68-3.04-2.93-5.44-5.03-7.61-7.36-37.3-39.88-74.55-79.81-111.91-119.64-2.62-2.79-6.04-4.84-9.09-7.24,0-22.67,0-45.33,0-68Z"/>
  <path class="st0" d="M0,396c8.23-4.3,16.52-8.48,24.68-12.91,10.52-5.72,11.72-5.75,19.96,2.26,25.8,25.05,51.56,50.14,77.28,75.26,8.14,7.95,8.14,8.07,2.17,17.53-39.26,62.21-78.54,124.4-117.9,186.55-1.44,2.28-2.01,6.05-6.2,5.32C0,578.67,0,487.33,0,396Z"/>
  <path class="st0" d="M2048,2338c-8.15,4.45-16.27,8.95-24.46,13.34-7.17,3.85-9.37,3.8-15.07-1.72-27.5-26.62-54.88-53.35-82.25-80.1-1.61-1.58-2.75-3.64-4.5-6.01,1.89-3.19,3.64-6.34,5.56-9.37,36.94-58.51,73.9-117.02,110.89-175.5,3.14-4.97,6.55-9.77,9.83-14.65v274Z"/>
  <path class="st0" d="M0,2062c4.88-.44,5.67,4.06,7.58,6.75,27.55,38.79,54.95,77.69,82.38,116.57,5.37,7.61,10.88,15.14,16.05,22.88,3.52,5.28,3.36,8.77-1.08,12.23-10.44,8.15-21.21,15.89-31.02,23.18-18.06-10.89-35.22-21.24-54.09-32.62,0,5.26-.01,8.45,0,11.65.06,16.97-.02,33.95.29,50.92.09,5.15-1.08,8.96-5.82,11.58-4.89,2.71-9.53,5.89-14.28,8.86,0-77.33,0-154.67,0-232Z"/>
  <path class="st0" d="M2048,670c-2.77-3.63-5.66-7.18-8.29-10.9-30.56-43.23-61.08-86.49-91.61-129.75-1.34-1.9-2.67-3.82-4-5.74-2.74-3.96-2.21-7.87,1.34-10.68,9.66-7.64,19.52-15.02,29.45-22.29,2.71-1.98,4.97-.61,7.88,1.3,15.21,9.98,30.82,19.36,47.54,29.72.48-4.21,1.02-6.69,1.01-9.17-.08-16.65.04-33.31-.57-49.95-.27-7.39,1.31-12.93,8.2-16.49,3.2-1.66,6.03-4.02,9.04-6.07v230Z"/>
  <path class="st0" d="M0,1538c3.11-1.02,6.36-1.75,9.31-3.12,16.89-7.83,33.7-15.82,50.56-23.72,2.92-1.37,5.94-2.53,9.75-4.14,7.2,16.79,14.09,32.87,21.13,49.26-4.49,4.02-8.42,7.55-12.37,11.07-23.11,20.57-46.17,41.18-69.4,61.62-2.52,2.22-5.96,3.38-8.97,5.04,0-32,0-64,0-96Z"/>
  <path class="st0" d="M0,714c2.24-2.83,4.84-5.45,6.66-8.54,38.39-65.17,76.76-130.34,114.92-195.64,5.36-9.18,9.48-19.08,14.36-28.54,2.79-5.4,3.29-5.37,10.03-1.48-.23,1.16-.17,2.62-.8,3.66-18.67,30.91-31.65,64.58-46.68,97.23-30.91,67.18-61.27,134.61-91.98,201.87-1.56,3.42-4.31,6.31-6.51,9.44,0-26,0-52,0-78Z"/>
  <path class="st0" d="M2048,2022c-2.12,3.26-4.37,6.44-6.33,9.79-36.58,62.24-73.2,124.46-109.63,186.79-5.53,9.46-10.16,19.44-15.19,29.18-1.07,2.07-1.63,4.67-3.25,6.09-1.41,1.24-4.36,2.08-5.9,1.41-1.24-.54-1.59-3.56-1.93-5.55-.14-.79.74-1.8,1.25-2.65,20.73-35.05,35.21-73.08,52.25-109.87,27.82-60.06,54.9-120.46,82.29-180.72,2.19-4.81,4.3-9.65,6.45-14.48v80Z"/>
  <path class="st0" d="M2048,1196c-3.36,1.25-6.82,2.28-10.07,3.79-18.35,8.54-36.65,17.19-54.89,25.76-4.78-5.65-17.57-34.07-22.2-49.35,2.41-2.21,5.05-4.68,7.74-7.08,23.57-20.98,47.16-41.95,70.73-62.94,2.97-2.65,5.8-5.45,8.69-8.18v98Z"/>
  <path class="st0" d="M0,1134c28.87-1.22,57.74-2.44,87.8-3.71,1.38,8.99.85,17.89,1.1,26.69.24,8.63.05,17.27.05,26.46-1.83.89-3.79,2.08-5.9,2.82-25.1,8.77-50.21,17.49-75.34,26.14-2.46.85-5.13,1.08-7.7,1.59,0-26.67,0-53.33,0-80Z"/>
  <path class="st0" d="M638,0c4.97,3.27,10.05,6.38,14.86,9.88,2.3,1.67,5.27,3.75,5.9,6.17,4.13,15.99,7.69,32.13,11.76,49.57-2.97-1.15-4.73-1.6-6.26-2.46-35.04-19.59-70.07-39.21-105.05-58.9-1.92-1.08-3.48-2.82-5.2-4.25,28,0,56,0,84,0Z"/>
  <path class="st0" d="M1412,2732c-3.63-2.34-7.02-5.21-10.93-6.89-6.96-2.98-9.54-8.33-10.95-15.3-2.74-13.62-6.1-27.12-9.49-41.94,2.62.75,4.14.9,5.37,1.58,35.73,19.96,71.43,39.96,107.11,60,1.1.62,1.93,1.69,2.89,2.55h-84Z"/>
  <path class="st0" d="M1200,0c-1.47,9.07-2.95,18.14-4.85,29.88C1186.29,18.77,1178.67,9.79,1172,0,1181.33,0,1190.67,0,1200,0Z"/>
  <path class="st0" d="M852,2732c.98-8.77,1.95-17.54,2.93-26.31.77-.22,1.53-.44,2.3-.66,7.16,8.79,14.58,17.37,20.77,26.97h-26Z"/>
  <path class="st0" d="M0,352c2.28.33,4.8.18,6.77,1.16,1.41.7,3.24,3.21,2.91,4.36-2.66,9.44-5.78,18.75-8.8,28.08-.07.21-.58.27-.89.4C0,374.67,0,363.33,0,352Z"/>
  <path class="st0" d="M2048,2380c-4.98.62-7.94-.92-6.47-6.52,2.05-7.85,4.31-15.65,6.47-23.48v30Z"/>
  <path class="st0" d="M1631.04,201.26c-1.81-4.81-2.76-7.59-3.88-10.29-6.55-15.67-13.02-31.38-19.78-46.96-2.01-4.62-2.39-8.42.51-13.04,12.77-20.31,25.16-40.85,37.69-61.3.87-1.42,1.65-2.95,2.78-4.14,3.25-3.45,6.7-2.96,8.52,1.38,1.28,3.05,2.01,6.34,2.91,9.54,10.11,35.9,20.2,71.8,30.32,107.7.89,3.15,1.93,6.27,3.28,10.65,2.05-2.27,3.7-3.63,4.78-5.35,6.76-10.7,13.15-21.65,20.17-32.18,3.44-5.16,4.08-9.86,2.51-15.89-8.61-33.2-16.81-66.5-25.11-99.78-.78-3.14-1.31-6.35-2.23-10.81,10.72-1.84,20.63-.87,30.41-1.16,9.99-.3,19.99-.27,29.99-.44,10-.17,19.99-.49,29.99-.6,9.87-.1,19.73-.02,28.2-.02,2.34,7.91,3.84,14.27,6.09,20.35,19.76,53.41,39.66,106.77,59.52,160.14,1.03,2.78,2.13,5.54,3.71,9.63,7.02-1.13,13.99-2.26,22.08-3.56-1.58-5.26-2.69-9.33-4.03-13.33-18.89-56.53-37.84-113.04-56.65-169.59-1.53-4.59-2.16-9.48-3.01-13.36,1.19-1.37,1.39-1.63,1.62-1.86.24-.23.48-.53.77-.62.95-.29,1.92-.7,2.88-.71,62.32-.7,124.64-1.36,186.95-1.99.94,0,1.89.44,3.49.83.34,2.04.99,4.22,1.01,6.41,1,106.64,1.94,213.29,2.89,319.93,0,.67.03,1.33,0,2-.28,7.84-1.51,8.99-8.96,7.17-8.73-2.13-17.36-4.68-26.06-6.95-2.48-.65-5.05-.92-9.26-1.67,5.31,9.42,9.89,17.45,14.37,25.54,4.96,8.95,4.75,10.85-2.52,18.34-25.31,26.06-50.65,52.09-76.04,78.07-7.59,7.77-7.73,7.76-16.66,2.11-119.44-75.45-238.86-150.91-358.28-226.39-10.12-6.4-10.45-8.02-4.35-18.29,4.6-7.73,9.29-15.41,13.84-23.17,3.86-6.57,3.68-5.92,11.33-4.57,17.32,3.05,34.76,5.35,54.18,8.26Z"/>
  <path class="st0" d="M169.25,2514.04c-7.72,1.45-14.17,2.66-21.79,4.08,1.3,4.29,2.25,7.69,3.36,11.03,18.99,56.85,38.02,113.7,56.98,170.56,1.76,5.28,4.37,10.57,1.11,17.79-63.91.64-128.38,1.29-192.16,1.93-.93-.88-1.19-1.1-1.4-1.35-.21-.24-.51-.51-.55-.79-.25-1.96-.62-3.93-.63-5.9-.81-107.99-1.59-215.98-2.35-323.98,0-.98.22-2,.53-2.93.2-.59.75-1.07,2.1-2.87,12.7,3.26,26.03,6.67,41.71,10.69-5.34-9.52-9.65-17.19-13.94-24.86-6.11-10.92-6.07-11.75,2.61-20.69,24.85-25.59,49.73-51.14,74.64-76.66,8.02-8.21,8.16-8.22,17.56-2.28,119.46,75.45,238.87,150.96,358.4,226.28,9.33,5.88,9.07,10.31,4.2,17.76-5.28,8.08-10.19,16.43-14.83,24.9-2.6,4.74-5.11,4.73-10.35,3.65-17.53-3.61-35.35-5.87-54.42-8.86,1.44,4.04,2.27,6.75,3.36,9.35,6.8,16.29,13.55,32.61,20.58,48.8,1.9,4.39,1.83,7.86-.8,12.06-12.73,20.33-25.14,40.87-37.66,61.33-.7,1.14-1.31,2.34-2.15,3.37-4.13,5.05-7.74,4.48-9.72-2.01-4.08-13.38-7.78-26.87-11.58-40.33-7.34-25.96-14.64-51.93-21.98-77.88-.72-2.54-1.63-5.02-2.92-8.95-3.18,4.76-5.8,8.48-8.22,12.32-5.68,9.02-11.07,18.24-16.97,27.11-3.02,4.54-3.47,8.71-2.1,14,8.61,33.2,16.85,66.5,25.22,99.77,3.12,12.42,2.89,12.78-10.25,12.92-32.66.35-65.33.66-97.99.93-3.23.03-6.46-.27-8.51-.37-1.83-6.88-2.88-12.64-4.88-18.06-19.85-53.74-39.84-107.42-59.82-161.11-1.26-3.38-2.71-6.68-4.38-10.77Z"/>
  <path class="st0" d="M673.93,249.95c54.33,61.09,107.65,121.05,161.66,181.79,16.26-6.96,32.34-13.84,49.55-21.21-24.35-53.07-49.66-104.91-73.74-157.57,72.07-31.32,142.77-62.05,214.6-93.27,1.84,3.99,3.86,7.65,5.27,11.53,29.62,81.36,59.18,162.75,88.75,244.13,2.62,7.2,5.32,14.37,7.86,21.59,2.96,8.4,2.75,8.81-5.6,12.76-3.61,1.71-7.29,3.28-10.92,4.95-49.97,22.88-99.93,45.78-149.91,68.65-3.59,1.64-7.25,3.11-11.99,5.13-10.9-18.9-19.41-38.7-30.02-58.14-7.39,2.21-14.35,4.24-21.27,6.37-19.41,5.98-38.9,11.74-58.16,18.17-6.38,2.13-9.92.68-14.39-4.25-74.1-81.73-148.45-163.23-222.74-244.78-2.92-3.2-5.97-6.3-8.7-9.65-4.17-5.12-3.18-9.17,2.82-11.66,2.44-1.02,5.11-1.5,7.69-2.17,128.59-33.42,257.2-66.79,385.76-100.31,9.64-2.51,18.99-6.15,28.47-9.26,2.21-.72,4.53-2.19,6.61-1.92,1.78.24,3.91,2.2,4.69,3.94.45,1.01-1.27,3.22-2.35,4.62-.5.64-1.82.68-2.79.92-36.58,9.35-71.08,24.63-106.34,37.7-78.07,28.93-155.94,58.39-233.89,87.64-3.07,1.15-6.1,2.41-10.9,4.31Z"/>
  <path class="st0" d="M530.07,536.84c-43.34-39.43-85.9-78.16-128.63-117.04,54.58-56.52,108.2-112.04,162.73-168.5,3.01,2.78,5.99,5.17,8.55,7.96,55.41,60.44,110.77,120.93,166.14,181.41,8.33,9.1,16.7,18.15,24.96,27.31,6.44,7.14,6.46,7.76-.05,14.77-27.66,29.81-55.37,59.57-83.06,89.35-13.62,14.64-27.24,29.29-40.91,43.89-1.53,1.64-3.36,2.99-5.97,5.28-16.34-14.04-32.43-27.86-49.23-42.3-23.79,19.66-47.33,39.11-70.75,58.45-56.5-26.57-112.23-52.78-167.96-78.98-48.24-22.67-96.49-45.33-144.73-67.99-1.21-.57-2.42-1.12-3.62-1.7-10.47-5.07-10.91-8.96-1.44-16.14,50.49-38.22,101.03-76.38,151.55-114.55,55.58-41.99,111.21-83.91,166.7-126.02,8.74-6.64,16.81-14.15,25.2-21.25,1.77-1.5,3.37-3.69,5.41-4.26,1.77-.49,4.49.36,5.95,1.6.8.68.29,3.63-.45,5.15-.66,1.36-2.46,2.15-3.73,3.24-12.38,10.63-25.14,20.85-37.07,31.96-76.11,70.87-152.04,141.94-228.04,212.92-2.42,2.26-5.03,4.32-8.96,7.67,73.94,35.84,146.28,70.91,217.17,105.28,13.64-12.72,26.47-24.69,40.24-37.52Z"/>
  <path class="st0" d="M1777.75,2263.58c-74-35.86-146.19-70.85-216.39-104.86-13.8,12.75-26.69,24.66-40.46,37.37,43,39.16,85.48,77.85,128.54,117.07-54.56,56.51-108.31,112.19-162.76,168.59-2.96-2.75-5.48-4.78-7.64-7.14-63.95-69.79-127.88-139.61-191.78-209.45-6.85-7.49-6.87-7.68-.4-14.65,41.29-44.45,82.61-88.86,123.95-133.27,1.56-1.67,3.3-3.17,5.81-5.57,17.09,13.42,32.68,28.31,49.82,42.31,23.71-19.65,46.99-38.95,70.58-58.51,4.79,2.27,9.22,4.4,13.67,6.49,99.5,46.75,199,93.49,298.49,140.23,2.41,1.13,4.86,2.2,7.2,3.47,6.31,3.43,6.79,7.32,1.39,12.36-2.18,2.04-4.72,3.7-7.11,5.51-103.45,78.15-206.93,156.25-310.29,234.52-10.87,8.23-20.93,17.52-31.39,26.3-4.86,4.08-4.89,4.05-10.97-2.05,48.74-40.33,93.29-85.12,139.67-127.93,46.48-42.9,92.48-86.32,140.05-130.78Z"/>
  <path class="st0" d="M448.64,2141.59c-10.04,27.83-19.79,55.03-29.66,82.19-9.84,27.07-19.09,54.36-29.59,81.38-73.17-28.83-144.91-57.1-217.88-85.86,1.61-4.08,2.83-7.7,4.44-11.14,34.34-73.67,68.73-147.32,103.11-220.97,5.5-11.77,10.96-23.56,16.53-35.29,4.22-8.88,4.36-8.95,13.56-5.53,50.57,18.81,101.13,37.65,151.69,56.5,8.1,3.02,16.18,6.1,25.54,9.63-4.76,21.21-13.74,40.92-19.35,62.85,26.89,14.25,53.84,28.54,80.6,42.72-.7,16.76-1.31,32.71-2.05,48.66-3.29,71.24-6.62,142.48-9.94,213.73-1.32,28.3-2.64,56.59-3.96,84.89-.03.67-.05,1.33-.09,2-.73,11.5-4.28,13.41-14.55,7.39-50.89-29.81-101.73-59.7-152.58-89.57-64.64-37.97-129.25-76.01-193.97-113.84-8.89-5.2-18.39-9.36-27.58-14.05-2.06-1.05-4.52-1.91-5.86-3.6-.95-1.19-1-4.06-.18-5.4.73-1.18,3.2-1.64,4.94-1.74,1.15-.06,2.35,1.12,3.54,1.7,26.06,12.64,51.89,25.76,78.21,37.82,82.97,38.02,166.13,75.65,249.22,113.42,3.31,1.5,6.69,2.84,10.05,4.27,2.72-7.45,16.07-221.28,15.11-242.42-15.76-6.31-32.02-12.83-49.27-19.74Z"/>
  <path class="st0" d="M1566.39,328.48c-4.81,81.9-9.51,161.98-14.25,242.78,16.65,6.65,32.88,13.13,50.19,20.04,10.13-28.12,19.84-55.3,29.72-82.41,9.86-27.05,19.07-54.35,29.52-81.11,73.21,28.84,144.93,57.09,217.63,85.74-1.28,3.65-2.1,6.77-3.44,9.65-40.09,86.02-80.23,172.02-120.39,258.01-3.74,8.01-4.68,8.58-11.97,5.88-58.06-21.56-116.07-43.22-174.08-64.89-1.47-.55-2.77-1.53-5.11-2.84,6.63-20.34,13.2-40.47,19.94-61.14-2.8-1.69-5.22-3.31-7.79-4.67-21.78-11.53-43.5-23.19-65.44-34.41-5.72-2.93-7.8-5.94-7.41-12.9,2.6-46.23,4.44-92.51,6.6-138.77,3.18-68.22,6.42-136.44,9.67-204.66.09-1.95.57-3.88.81-5.48,5.45-4.16,9.75-1.3,14.11,1.26,24.98,14.69,49.97,29.36,74.95,44.04,90.18,52.98,180.32,106.01,270.57,158.88,8.89,5.2,18.36,9.4,27.55,14.09,2.06,1.05,4.52,1.82,5.96,3.45.99,1.13,1.23,3.9.51,5.26-.66,1.24-3,1.94-4.7,2.16-1.11.14-2.44-.91-3.57-1.6-29.47-17.82-61.59-30.14-92.73-44.43-78.38-35.98-157-71.45-235.53-107.11-3.26-1.48-6.59-2.81-11.33-4.82Z"/>
  <path class="st0" d="M1376.85,2482.82c-54.15-60.89-107.65-121.06-161.52-181.63-16.72,7.17-32.82,14.08-49.29,21.15,24.37,52.75,48.35,104.66,72.27,156.6.2.43-.37,1.22-.58,1.82-70.72,30.74-141.42,61.46-213.03,92.58-1.71-3.77-3.24-6.63-4.34-9.64-32.21-88.56-64.38-177.13-96.55-265.71-.68-1.88-1.36-3.76-1.94-5.66-1.02-3.35-.02-5.87,3.22-7.39,1.51-.71,3-1.45,4.51-2.14,54.21-24.81,108.41-49.62,162.64-74.4,2.68-1.22,5.48-2.18,9.23-3.66,10.92,18.56,19.21,38.12,30.07,57.92,29.08-8.92,58.19-17.84,87.63-26.86,3.08,3.41,5.93,6.57,8.79,9.72,73.61,80.8,147.22,161.61,220.82,242.41,2.69,2.96,5.5,5.82,8.04,8.91,4.24,5.15,3.35,8.85-2.78,11.49-2.12.91-4.46,1.33-6.71,1.92-127.6,33.2-255.21,66.36-382.79,99.67-10.29,2.69-20.32,6.33-30.47,9.55-2.54.81-5,1.86-7.57,2.53-3.1.8-5.67-.63-5.92-3.61-.13-1.62,2-3.48,3.25-5.12.34-.44,1.2-.54,1.84-.7,34.14-8.22,66.13-22.59,98.89-34.72,80.57-29.83,160.93-60.2,241.37-90.38,3.33-1.25,6.55-2.78,10.91-4.64Z"/>
  <path class="st0" d="M797.21,2477.21c-78.96,1.31-155.8,2.59-233.95,3.89-.3-3.18-.97-6.3-.83-9.39,2-46.94,4.11-93.87,6.19-140.81,1.85-41.61,3.7-83.22,5.57-124.82.31-6.99.64-13.98,1.17-20.96.59-7.82,1.16-8.44,8.93-8.78,17.31-.75,34.63-1.35,51.94-1.96,42.29-1.49,84.58-2.96,126.88-4.41,3.61-.12,7.23-.02,12.16-.02,1.73,21.68,3.42,42.79,5.19,65.07,30.5,2.93,60.86,5.84,91.27,8.76,9.23,25.62,18.22,50.63,27.24,75.63,30.17,83.63,60.36,167.25,90.53,250.88.45,1.25.88,2.52,1.29,3.78,2.91,8.91-.07,12.48-9.61,11.15-63-8.78-125.98-17.66-188.98-26.44-50.14-6.99-100.28-13.9-150.42-20.86-21.11-2.93-42.19-6.1-63.34-8.71-9.9-1.22-19.94-1.22-29.88-2.08-6.21-.54-6.32-.97-5.73-8.47,125.92,7.01,252.02,8.93,378.07,14.19-.18-8.45-68.15-207.35-78.04-229.3h-53.62c2.68,58.35,5.31,115.69,7.98,173.66Z"/>
  <path class="st0" d="M1128.08,200.7c26.58,76.6,52.95,152.58,79.37,228.73h54.31c-2.72-58.1-5.4-115.44-8.12-173.56,78.56-1.4,155.92-2.77,234.61-4.17,0,4.37.12,7.57-.02,10.77-3.15,71.56-6.35,143.12-9.5,214.69-1.01,22.97-1.91,45.94-2.88,68.91-.4,9.54-.78,9.96-10.43,10.32-60.6,2.29-121.19,4.55-181.79,6.78-2.25.08-4.52-.28-8.04-.53-1.67-21.41-3.32-42.54-5.05-64.73-30.71-2.95-61.08-5.86-91.31-8.76-40.67-112.79-81.06-224.82-121.21-336.15,3.74-6.69,8.91-5.61,13.83-4.94,21.12,2.87,42.23,5.82,63.33,8.77,50.46,7.04,100.92,14.09,151.38,21.13,50.46,7.04,100.9,14.27,151.4,21.04,20.77,2.78,41.68,4.57,62.53,6.79,1.32.14,2.66.12,3.99.22,3.16.25,4.97,1.97,4.82,5.14-.16,3.39-2.47,4.5-5.53,4.19-2.65-.27-5.26-.96-7.91-1.14-18.27-1.24-36.52-2.86-54.81-3.51-70.93-2.51-141.86-4.66-212.8-7.02-26.64-.89-53.27-2.03-79.91-2.95-6.29-.22-12.59-.03-20.27-.03Z"/>
  <path class="st0" d="M1657.77,1780.47c-2.16,10.1-4.17,19.46-6.16,28.82q-3.09,14.55-17.56,14.78c-1.33.02-2.69.21-3.99.04-20.44-2.62-37.33,4.08-52.74,17.63-11.96,10.52-25.62,19.1-38.56,28.5-2.64,1.92-5.41,3.68-8.63,5.86-13-12.51-25.61-24.66-40.49-38.97,2.77-1.28,4.71-1.89,6.34-2.97,81.79-54.48,163.54-109.01,245.34-163.49,3.99-2.66,7.72-6.79,14.72-3.72.36,51.02-.84,102.43-1.89,153.14-5.25,3.79-8.7.71-12.11-.86-24.8-11.44-49.51-23.04-74.27-34.56-2.94-1.37-5.97-2.52-10-4.2Z"/>
  <path class="st0" d="M393.1,952.42c3.25-14.61,6.32-28.43,9.58-43.08,11.16-.35,21.78-1.36,32.33-.84,10.63.53,19.07-2.78,27.38-9.23,16.31-12.67,33.24-24.53,49.95-36.69,2.63-1.91,5.41-3.62,8.57-5.73,13.07,12.66,25.63,24.82,40.4,39.11-2.86,1.19-4.56,1.61-5.92,2.52-81.53,54.31-163.01,108.7-244.59,162.93-4.14,2.75-8.23,8.7-13.93,5.17-4.92-3.05-2.38-9.24-2.33-13.99.44-43.32,1.11-86.65,1.71-129.97.02-1.33-.03-2.67.05-4,.46-8.13,2.51-9.59,9.92-6.18,25.72,11.83,51.35,23.87,77.03,35.79,2.95,1.37,5.99,2.55,9.87,4.18Z"/>
  <path class="st0" d="M308.59,1362.95c18.3-.58,35.72-.94,54.4-.94-2.02,10.64-3.6,19.39-5.34,28.1-17.91,89.8-35.85,179.59-53.77,269.39-.13.65-.07,1.4-.38,1.95-1.53,2.81-2.61,7.06-4.91,7.9-1.93.7-5.86-2.06-7.97-4.2-22.22-22.55-44.26-45.28-66.34-67.96-10.23-10.51-20.51-20.96-30.63-31.57-6.07-6.37-5.54-8.69,2.85-11.79,26.55-9.82,53.16-19.46,79.74-29.2,2.79-1.02,5.52-2.19,9.48-3.76-8-12.4-15.7-24.32-24.06-37.28,5.4-5.66,10.15-11.7,15.93-16.48,13.39-11.07,19.51-24.89,20.87-42.21,1.41-17.88,5.18-35.57,7.99-53.33.41-2.59,1.25-5.11,2.13-8.61Z"/>
  <path class="st0" d="M1754.68,1061.88c35.88,36.86,71.76,73.71,108.95,111.91-4.73,2.59-7.82,4.82-11.27,6.1-25.59,9.47-51.25,18.74-76.87,28.11-3.06,1.12-6.05,2.43-10.27,4.13,6.51,10.05,12.59,19.43,18.67,28.81q5.45,8.41-1.58,15.77c-6.91,7.21-13.72,14.53-20.79,21.58-3.46,3.45-5.32,7.21-6.05,12.13-3.56,24.03-7.47,48-11.3,71.99-.36,2.24-1.01,4.43-1.8,7.79-17.91-.51-35.6,1.26-54.37.02,2.24-11.48,4.21-21.83,6.27-32.16,17.36-87.12,34.7-174.24,52.21-261.33.99-4.93.31-11.03,8.2-14.83Z"/>
  <path class="st0" d="M414.8,1109.53c-3.38,5.1-6.09,9.19-8.82,13.27-52.58,78.6-105.15,157.19-157.74,235.79-1.66,2.49-3.18,5.14-5.2,7.31-3.64,3.9-6.89,3.42-9.37-1.18-.95-1.75-1.57-3.67-2.31-5.52-16.52-41.42-33.05-82.84-49.53-124.28-4.8-12.08-4.09-13.17,8.98-12.63,26.62,1.1,53.23,2.4,79.84,3.57,3.6.16,7.2.02,12.08.02-1.9-10.87-3.64-20.9-5.41-30.93-.23-1.31-.66-2.58-.89-3.89-1.48-8.29-1.31-8.73,6.26-12.12,9.72-4.35,19.42-8.76,29.28-12.79,4.57-1.87,7.66-4.8,10.17-8.99,11.65-19.41,23.51-38.7,35.3-58.02q6.4-10.49,17.41-6.17c10.23,3.99,20.52,7.84,30.72,11.91,2.94,1.17,5.68,2.85,9.23,4.66Z"/>
  <path class="st0" d="M1522.68,2067.38c-25.16-25.33-47.11-51.47-71.47-76.6-7.19,10.44-13.75,20.01-20.37,29.53-4.83,6.94-4.89,6.97-12.94,3.9-9.02-3.43-18.17-6.59-26.93-10.59-6.48-2.95-12.54-2.91-19.27-1.19-22.24,5.68-44.58,10.97-66.89,16.35-2.51.61-5.1.88-8.23,1.4-7.2-16.45-14.2-32.46-21.41-48.95,2.81-1.21,4.49-2.3,6.31-2.66,69.84-13.82,139.7-27.56,209.55-41.36,27.42-5.41,54.81-10.94,82.23-16.36,2.26-.45,4.64-.88,6.9-.65,3.54.36,5.45,2.49,4.32,6.23-.77,2.54-1.83,4.99-2.88,7.44-17.48,40.66-34.94,81.33-52.51,121.95-1.5,3.47-3.66,6.66-6.4,11.57Z"/>
  <path class="st0" d="M754.54,702.54c6.51,17.3,15.2,32.56,20.59,49.99-3.15.83-5.26,1.5-7.42,1.94-95.6,19.04-191.19,38.09-286.81,56.98-4.6.91-10.74,4.12-13.72-1.14-1.49-2.64.99-8.07,2.6-11.84,17.09-40.1,34.36-80.12,51.58-120.16.92-2.14,1.68-4.37,2.78-6.41,2.72-5,4.96-5.38,9.24-1.52,1.97,1.78,3.67,3.85,5.47,5.82,17.78,19.39,35.56,38.76,53.3,58.18,2.2,2.41,4.15,5.05,6.94,8.47,9.08-13.02,17.21-24.66,25.89-37.09,8.68,3.33,17.24,5.93,25.18,9.81,12.59,6.15,24.77,6.97,38.38,2.76,18.08-5.59,36.76-9.27,55.19-13.71,3.18-.77,6.42-1.25,10.81-2.08Z"/>
  <path class="st0" d="M1439.38,734.06c9.06,2.02,17.44,3.79,25.76,5.76,20.19,4.78,17-.82,18.18,21.98.02.33,0,.67.02,1,.43,9.62-1.09,19.9,1.86,28.67,2.84,8.45,10.27,15.37,15.75,22.92,9.4,12.94,18.87,25.83,28.28,38.75,1.91,2.63,3.71,5.34,5.37,7.74-7.8,10.98-31.93,35.21-38.49,38.67-.94-1.18-2.03-2.37-2.91-3.7-54.36-81.47-108.7-162.96-163.03-244.45-1.66-2.49-3.53-4.91-4.8-7.59-2.33-4.91-.74-7.54,4.65-8.12,1.65-.18,3.33-.06,4.99-.04,45.65.62,91.29,1.25,136.94,1.89,1.66.02,3.35-.02,4.99.22,3.82.56,5.1,2.84,3.78,6.41-.92,2.49-2.05,4.92-3.18,7.33-11.24,24.16-22.5,48.3-33.73,72.46-1.38,2.97-2.64,6-4.43,10.09Z"/>
  <path class="st0" d="M841.15,2116.41c-5.45-12.36-10.59-23.54-15.28-34.9-2.27-5.49-5.63-9.38-10.8-12.44-19.49-11.54-38.75-23.45-58.07-35.26-3.05-1.86-5.96-3.95-9.54-6.34,8.01-16.62,12.17-34.06,21.21-50.32,5.1,3.41,9.21,6.15,13.31,8.9,78.34,52.41,156.69,104.83,235.02,157.26,3.03,2.03,6.22,3.98,8.79,6.52,3.11,3.08,2.54,5.91-1.21,8.07-2,1.15-4.28,1.84-6.44,2.7-41.12,16.42-82.23,32.85-123.38,49.2-3.58,1.42-7.38,2.28-12.05,3.69-2.5-9.62-.67-18.21-.62-26.65.04-8.32.71-16.64,1.06-24.96.37-8.65.8-17.31.98-25.97.17-8.27.04-16.54.04-25.98-13.99.21-27.83,5.61-42.99,6.48Z"/>
  <path class="st0" d="M324.73,1863.77c12.51-13.5,25.56-24.24,37.86-35.73,12.4-11.59,24.98-22.99,38.15-35.1-2.35-2.02-4.11-3.82-6.14-5.25-7.36-5.17-14.82-10.2-22.22-15.32q-7.77-5.38-4.27-14.54c3.6-9.32,7.12-18.67,10.97-27.89,2.01-4.82,2.3-9.35,1.01-14.49-5.78-22.92-11.23-45.93-16.75-68.92-.68-2.82-1.07-5.7-1.68-9.05,16.93-6.71,32.39-14.98,49.42-20.78,1.03,2.43,1.93,3.84,2.23,5.36,19.12,96.7,38.19,193.41,57.27,290.11.32,1.63.9,3.23,1.1,4.87,1,8.15-1.94,10.45-9.73,7.11-43.17-18.48-86.3-37.07-129.41-55.68-2.06-.89-3.89-2.32-7.81-4.71Z"/>
  <path class="st0" d="M1648.72,939.82c13.48,9.43,25.09,17.55,37.51,26.24-3.82,9.89-6.97,19.68-11.32,28.9-4.81,10.18-5.29,19.87-2.2,30.77,5.63,19.83,10.01,40.01,14.85,60.06.69,2.85,1.02,5.78,1.68,9.57-16.64,6.87-32.42,14.96-50.11,21.31-2.41-11.66-4.61-21.98-6.67-32.33-17.36-87.46-34.74-174.91-51.94-262.4-.9-4.57-4.36-10.87,1.07-13.64,3.02-1.54,8.7,1.11,12.77,2.84,39.5,16.81,78.91,33.83,118.34,50.79,2.45,1.05,4.97,1.96,7.3,3.22,5.01,2.71,5.37,4.95,1.54,9.23-1.55,1.73-3.37,3.21-5.09,4.79-19.63,18.01-39.24,36.04-58.92,53.99-2.43,2.22-5.26,3.99-8.82,6.66Z"/>
  <path class="st0" d="M515.72,1870.76c13.5-12.17,24.11-26.63,38.32-37.98,1.64,1.78,2.66,2.64,3.36,3.69,54.89,82.3,109.77,164.61,164.62,246.94,1.47,2.2,3.06,4.44,3.93,6.9,1.4,3.97-.23,6.53-4.37,7.1-2.62.36-5.32.15-7.98.11-43.97-.59-87.95-1.2-131.92-1.8-13.33-.18-14.18-1.51-8.52-13.69,11.22-24.16,22.48-48.3,33.69-72.46,1.51-3.26,2.86-6.58,4.7-10.82-11.62-2.48-22.28-4.75-32.94-7.02q-10.44-2.22-10.65-12.87c-.17-9.33-.56-18.66-.37-27.98.12-5.99-1.7-10.84-5.27-15.63-13.94-18.69-27.59-37.6-41.31-56.45-1.73-2.38-3.24-4.91-5.28-8.04Z"/>
  <path class="st0" d="M1636.12,1624.25c1.78-3.25,2.45-4.73,3.35-6.07,54.68-81.7,109.36-163.39,164.08-245.06,2.51-3.75,4.34-8.44,10.81-9.05,1.21,1.96,2.88,3.97,3.8,6.28,17.34,43.29,34.61,86.6,51.82,129.94,1.04,2.62,1.47,5.49,2.59,9.83-35.55.77-69.57-3.02-104.5-3.07,2.27,12.58,3.99,24.41,6.68,36.02,1.36,5.88-.43,8.55-5.6,10.66-9.87,4.02-19.48,8.67-29.37,12.65-5.25,2.11-8.73,5.53-11.59,10.32-11.79,19.74-23.85,39.32-35.84,58.93-1.7,2.79-3.6,5.46-5.68,8.59-16.83-6.65-33.07-13.07-50.55-19.97Z"/>
  <path class="st0" d="M1166.05,623.9c12.81-2.33,24.65-4.17,36.31-6.76,5.28-1.17,8.01.05,10.04,5.01,4.03,9.86,8.76,19.43,12.72,29.31,2.23,5.56,5.66,9.36,10.81,12.42,19.47,11.57,38.73,23.48,58.05,35.29,2.8,1.71,5.5,3.57,9.19,5.98-6.81,16.7-12.39,33.5-20.19,50.15-2.5-1.17-4.04-1.67-5.33-2.53-81.39-54.44-162.78-108.9-244.1-163.44-3.98-2.67-10.33-4.33-9.84-10.22.51-6.15,7.34-5.94,11.66-7.68,40.44-16.33,80.97-32.43,121.48-48.57,12.17-4.85,13.36-4.11,12.82,8.79-1.12,26.96-2.43,53.91-3.61,80.87-.16,3.57-.02,7.14-.02,11.39Z"/>
  <path class="st0" d="M833.55,528.55c8.79,17.06,13.34,33.72,19.47,49.72,6.04,15.77,11.66,31.7,17.85,48.62,10.36-6.71,19.8-12.83,29.25-18.95q8.15-5.27,15.02,1.18c5.81,5.49,12.11,10.58,17.18,16.69,6.72,8.1,15.33,10.72,25.17,12.09,21.75,3.04,43.42,6.62,65.12,10.04,1.9.3,3.74,1.01,6.45,1.77.23,17.85,1.37,35.52.47,54.3-15.82-3.1-30.08-5.86-44.32-8.7-82.55-16.47-165.11-32.95-247.66-49.44-3.91-.78-7.93-1.36-11.63-2.73-4.44-1.64-5.08-4.87-2.13-8.57,1.24-1.55,2.79-2.85,4.22-4.25,32.21-31.36,64.41-62.73,96.65-94.07,2.32-2.26,4.89-4.25,8.89-7.71Z"/>
  <path class="st0" d="M1021.66,2083.23v-53.48c3.11.26,5.66.22,8.12.71,95.99,19.14,191.97,38.33,287.95,57.53,4.44.89,9.52.82,11.82,7.29-1.88,2.11-3.89,4.66-6.2,6.91-32.44,31.64-64.92,63.24-97.39,94.85-.95.93-1.85,1.93-2.88,2.77-4.52,3.67-6.75,3.28-9.25-1.71-.89-1.78-1.45-3.72-2.13-5.6-9.25-25.33-18.48-50.67-27.74-76-1.12-3.06-2.41-6.07-4.04-10.15-12.61,8.04-24.55,15.65-37.43,23.86-5.89-5.63-11.63-11.09-17.33-16.57-17.16-16.49-17.17-16.4-40.42-19.79-18.12-2.64-36.21-5.54-54.29-8.41-2.58-.41-5.09-1.28-8.78-2.22Z"/>
  <path class="st0" d="M480.15,1672.71c9.15-14.95,18.07-29.34,26.8-43.86,7.72-12.85,15.42-25.73,22.73-38.81,3.34-5.97,7.84-8.54,14.57-8.28,27.31,1.07,54.62,2.06,81.94,2.92,7.34.23,12.52,3.03,16.04,9.77,4.01,7.66,8.7,14.98,13.36,22.28,2.73,4.28,2.65,7.64.64,12.72-7.94,20.13-14.78,40.69-22.01,61.09-2.67,7.53-5.52,15.02-7.88,22.65-1.36,4.4-3.49,6.06-8.38,6.57-27.17,2.81-54.29,6.03-81.39,9.47-19.17,2.43-19.14,2.69-29.59-13.67-7.54-11.79-15.08-23.58-22.57-35.41-1.58-2.49-2.94-5.12-4.26-7.44Z"/>
  <path class="st0" d="M1402.04,1607.48c18.46-.86,35.02-1.57,51.58-2.43,14.96-.78,29.91-1.68,44.85-2.65,3.94-.26,6.56.37,8.79,4.47,14.02,25.7,28.45,51.17,42.74,76.73,1.46,2.61,2.95,5.22,4.19,7.93,1.61,3.52,1.71,6.9-.73,10.34-11.16,15.75-22.25,31.55-33.21,47.44-2.47,3.58-5.2,3.95-9.35,3.29-28.56-4.58-57.12-9.19-85.79-12.95-9.98-1.31-15.09-5.77-18.33-15.12-8.27-23.88-17.2-47.54-26.34-71.11-3.1-8-2.61-14.41,3.04-21.14,6.82-8.12,12.77-16.98,18.57-24.8Z"/>
  <path class="st0" d="M1197.06,1872.48c-8.49,30.36-17.17,60.01-24.93,89.9-2.64,10.18-7.56,14.85-18.14,16.09-16.16,1.9-32.15,5.26-48.15,8.37-4.51.87-7.22.14-10.06-3.79-17.5-24.28-35.14-48.45-53.12-72.37-4.58-6.1-5.31-11.48-2.09-18.33,11.45-24.38,22.65-48.89,33.72-73.45,3.04-6.74,7.5-10.38,15.05-11.07,9.26-.86,18.41-2.84,27.66-3.83,2.61-.28,6.16.39,8.01,2.04,12.89,11.5,25.39,23.43,38.14,35.09,10.31,9.43,20.82,18.66,31.19,28.03,1.19,1.08,2.05,2.52,2.7,3.34Z"/>
  <path class="st0" d="M1462.27,1270.91c23.74-26.41,46.17-51.35,68.55-76.25,32.5,9.14,64.43,18.12,96.37,27.08,5.35,1.5,8.19,4.68,9.12,10.43,2.88,17.73,6.16,35.39,9.47,53.04.96,5.11-.13,8.37-4.76,11.68-23.55,16.8-46.98,33.81-69.95,51.39-7.43,5.69-13.61,6.11-21.83,2.15-23.08-11.11-46.37-21.8-69.84-32.05-7.99-3.49-12.04-8.49-12.91-17.08-1.06-10.56-2.9-21.04-4.23-30.4Z"/>
  <path class="st0" d="M492.89,1331.75c-25.61-20.08-50.3-39.77-75.4-58.92-7.04-5.37-9.43-10.9-7.19-19.59,4.23-16.41,7.75-33.02,11.21-49.62,1.02-4.9,3.04-7.05,8.17-8.25,28.47-6.65,56.88-13.59,85.15-21.01,8.52-2.24,14.37-.44,20.22,6.07,17.35,19.31,35.04,38.31,52.93,57.11,5.67,5.96,7.55,11.93,5.1,19.87-2.74,8.89-4.45,18.08-7.04,27.02-.63,2.19-2.52,4.74-4.51,5.69-24.89,11.87-49.91,23.47-74.9,35.15-4.51,2.11-9.01,4.25-13.75,6.49Z"/>
  <path class="st0" d="M1060.2,833.89c20.19-25.76,40.03-50.75,59.47-76.05,5.16-6.71,10.45-8.71,18.86-6.47,16.06,4.26,32.42,7.39,48.69,10.81,5.35,1.12,8.21,3.26,9.6,9.33,6.42,28.18,13.38,56.25,20.75,84.2,2.25,8.53.57,14.39-5.97,20.26-19.31,17.34-38.3,35.05-57.13,52.93-5.88,5.58-11.71,7.83-19.75,5.26-8.53-2.72-17.46-4.21-26.07-6.71-2.55-.74-5.69-2.57-6.75-4.77-8.22-17.05-15.93-34.35-23.93-51.51-5.88-12.62-11.97-25.14-17.76-37.28Z"/>
  <path class="st0" d="M1641.89,1472.94c-1.9,8.56-3.87,17.31-5.8,26.08-2.21,10.06-4.49,20.12-6.55,30.21-.96,4.71-3.12,7.28-8.2,8.47-28.8,6.72-57.57,13.58-86.18,21.03-7.92,2.06-13.27.29-18.55-5.49-17.93-19.66-36.05-39.16-54.27-58.57-4.98-5.3-7.11-10.66-4.74-18.02,2.64-8.21,4.5-16.69,6.27-25.14,1.12-5.34,3.35-8.14,9.06-10.09,9.69-3.3,18.72-8.54,28.02-12.98,17.1-8.17,34.2-16.34,51.29-24.54,3.3-1.58,6.07-3.21,9.92-.11,23.84,19.18,47.92,38.06,71.91,57.05,3.91,3.09,8.14,6,7.81,12.12Z"/>
  <path class="st0" d="M769.89,999.64c-10.03-3.62-18.42-6.69-26.84-9.68-19.77-7.01-39.43-14.38-59.41-20.75-8.07-2.58-11.19-6.09-11.91-15.04-2.04-25.21-5.54-50.32-8.83-75.42-2.66-20.34-2.9-20.31,14.19-31.21,12.08-7.71,24.21-15.33,36.19-23.18,4.02-2.63,7.24-3.15,11.75-.34,24.88,15.46,49.88,30.76,75.15,45.57,7.22,4.23,10.42,9.19,10.02,17.61-1.25,25.96-2.18,51.94-2.79,77.93-.21,8.95-3.44,14.95-11.57,19.13-9.15,4.71-17.77,10.47-25.95,15.38Z"/>
  <path class="st0" d="M588.51,1460.28c-.41,1.04-.76,3.85-2.31,5.57-10.71,11.84-21.74,23.39-32.52,35.17-9.9,10.82-19.65,21.78-29.41,32.73-2.5,2.81-4.49,4.95-9.21,3.56-29.06-8.58-58.17-16.98-87.44-24.82-8.67-2.33-12.62-6.65-13.83-15.59-2.27-16.82-5.51-33.52-8.75-50.19-.9-4.62.14-7.22,3.99-10,24.04-17.34,48-34.8,71.68-52.62,6.39-4.81,12.13-5.63,19.32-2.26,24.42,11.47,48.96,22.71,73.55,33.8,6.47,2.92,9.74,7.32,10.5,14.39,1.03,9.6,2.76,19.12,4.43,30.27Z"/>
  <path class="st0" d="M1261.46,887.66c28.73-16.19,56.63-31.74,84.33-47.65,6.95-4,12.42-3.96,19.06,1.06,13.54,10.25,27.65,19.75,41.72,29.28,4.41,2.99,5.96,6.08,5.05,11.6-4.77,28.89-9.36,57.81-13.39,86.81-1.11,7.99-4.44,12.58-11.93,15.28-25.37,9.15-50.66,18.53-75.87,28.11-6.64,2.52-12.08,1.81-17.6-2.61-7.02-5.61-14.36-10.84-21.69-16.05-3.79-2.69-5.17-5.58-5.28-10.68-.45-21.64-1.88-43.26-2.94-64.88-.5-10.27-.98-20.54-1.45-30.28Z"/>
  <path class="st0" d="M1013.26,831.3c-1.09,3.46-1.64,6.07-2.71,8.43-11.45,25.11-23.03,50.16-34.44,75.29-2.56,5.63-6.32,8.93-12.67,9.73-10.22,1.29-20.35,3.29-30.58,4.53-2.21.27-5.23-.77-6.91-2.28-13.08-11.78-25.88-23.88-38.85-35.78-8.83-8.09-17.56-16.32-26.81-23.91-5.31-4.35-6.53-8.09-4.39-15.09,8.46-27.65,16.11-55.55,23.58-83.48,2.14-7.99,5.58-12.5,14.43-13.7,16.78-2.28,33.41-5.74,50.08-8.81,4.93-.91,8.41-.27,11.79,4.46,16.98,23.82,34.5,47.25,51.73,70.89,2.26,3.1,3.94,6.63,5.75,9.72Z"/>
  <path class="st0" d="M546.63,1130.5c-16.02-28.46-31.1-55.84-46.82-82.86-4.67-8.03-4.66-14.22,1.06-21.72,10.09-13.23,19.42-27.05,28.71-40.87,3.11-4.63,6.48-5.49,11.76-4.63,28.89,4.71,57.81,9.28,86.79,13.35,7.53,1.06,12.05,4.08,14.64,11.26,9.16,25.36,18.55,50.63,28.1,75.85,2.6,6.88,2.19,12.69-2.59,18.56-5.88,7.23-11.19,14.92-16.69,22.45-2.06,2.82-4.24,4.18-8.2,4.3-22.63.67-45.23,1.88-67.85,2.92-9.63.44-19.25.92-28.92,1.38Z"/>
  <path class="st0" d="M1426.92,1014.44c33.09-4.05,65.72-8.06,98.35-12.04,5.33-.65,9.64.6,12.77,5.61,9.86,15.8,19.91,31.49,30.07,47.1,2.53,3.89,2.26,6.88-.19,10.86-15.54,25.17-30.96,50.42-45.99,75.9-4.05,6.87-8.95,9.84-16.92,9.45-26.25-1.29-52.51-2.46-78.79-3.04-8.73-.19-14.29-3.33-18.27-11.02-4.12-7.96-9.29-15.37-13.65-23.22-1.14-2.05-1.92-5.19-1.2-7.24,4.85-13.76,10.26-27.32,15.26-41.03,5.35-14.68,10.43-29.46,15.67-44.18.87-2.46,1.95-4.85,2.89-7.17Z"/>
  <path class="st0" d="M1332.51,1911.77c-29.08-17.29-56.43-33.7-83.97-49.81-5.96-3.49-8.23-8.16-7.95-14.74,1.16-27.59,2.3-55.19,3.27-82.79.22-6.24,2.62-10.63,8.09-13.77,10.07-5.78,19.96-11.89,29.01-17.31,32.95,11.71,64.8,23.02,96.5,34.28,4.08,33.29,8.09,65.92,12.06,98.55.54,4.46.25,8.89-3.95,11.6-17.85,11.54-35.79,22.94-53.06,33.98Z"/>
  <path class="st0" d="M920.42,1982.93c-2.13-.37-3.79-.58-5.41-.94-17.55-3.89-35.08-7.93-52.67-11.62-4.47-.94-6.85-2.79-7.95-7.44-6.8-28.83-13.58-57.67-21.07-86.32-2.18-8.34-.26-13.87,5.83-19.4,19.49-17.7,38.83-35.57,57.9-53.71,5.77-5.49,11.61-6.9,19.07-4.73,8.94,2.61,18.1,4.49,27.05,7.06,2.28.66,5.09,2.31,6.03,4.28,6.44,13.49,12.33,27.24,18.63,40.79,6.6,14.19,13.46,28.27,20.23,42.38,1.59,3.31,3.15,6.05.03,9.92-19.22,23.87-38.13,47.99-57.11,72.06-2.91,3.69-5.75,7.41-10.57,7.66Z"/>
  <path class="st0" d="M784.74,1743.27c0,5.81-.17,9.43.03,13.03,1.53,27.57,3.04,55.15,4.77,82.71.31,4.94-1.11,7.33-5.82,9.86-25.18,13.57-49.99,27.83-74.93,41.85-2.61,1.47-5.17,3.05-7.88,4.29-3.85,1.76-7.58,1.75-11.29-.88-15.76-11.14-31.58-22.19-47.43-33.2-3.18-2.21-3.56-4.75-2.95-8.56,4.62-28.88,9.25-57.77,13.13-86.76,1.28-9.58,5.58-14.55,14.58-17.68,24.18-8.4,48.16-17.4,72.06-26.59,7.66-2.94,13.86-2.38,20.3,2.88,8.47,6.92,17.5,13.15,25.43,19.04Z"/>
  <path class="st0" d="M1462.32,2029.97c2.58,2.38,4.88,4.2,6.83,6.34,14.14,15.5,28.25,31.03,42.29,46.61,6.67,7.41,6.59,8.6-1.01,15.23-8.53,7.44-17.15,14.79-25.8,22.09-7.09,5.98-8.15,5.92-14.56-1.21-9.57-10.65-19.15-21.3-28.46-32.17-3.3-3.85-6.76-6.19-11.99-5.36-1.95.31-4.05.44-5.98.11-17.62-3.08-29.42,5.13-41.28,17.56-39.77,41.68-80.67,82.27-121.14,123.28-2.11,2.13-4.37,4.12-6.32,6.39-3.51,4.08-7.56,4.31-11.43,1.16-6.13-4.98-11.9-10.41-18.9-16.61,43.86-43.98,87-87.24,130.88-131.24-2.12-1.22-3.5-2.27-5.06-2.87-3.1-1.19-6.29-2.15-9.46-3.16-17.68-5.65-19.03-7.2-24.25-25.21-1.26-4.35-.4-7.22,3.86-8.7,16.02-5.6,32.01-11.28,48.15-16.5,2.53-.82,5.85.21,8.66.95,18.99,4.98,38.01,9.85,56.86,15.33,6.15,1.79,10.72.87,15.43-3.21,3.7-3.21,8.06-5.65,12.68-8.81Z"/>
  <path class="st0" d="M825.08,520.83c-42.9,43.01-86.07,86.28-130.41,130.73,8.15,2.71,14.84,5.37,21.75,7.11,7.16,1.81,11.76,5.61,13.76,12.8,1.06,3.83,2.73,7.5,4.17,11.22,1.52,3.92.07,6.53-3.67,7.85-15.99,5.67-31.98,11.37-48.08,16.72-2.24.75-5.2-.07-7.68-.72-19.64-5.13-39.28-10.25-58.83-15.7-5.29-1.47-9.3-.78-13.81,2.55-15.57,11.48-12.06,12.41-25.74-2.51-11.7-12.77-23.26-25.66-34.89-38.49q-9.5-10.48.88-19.39c7.33-6.29,14.67-12.57,22.01-18.84q9.37-8.01,17.34.84c9.32,10.43,18.73,20.78,27.8,31.43,3.33,3.9,6.83,5.7,12.03,5.3,9.6-.74,20.22,1.41,28.6-2.05,8-3.3,13.83-12.06,20.37-18.67,40.75-41.19,81.43-82.47,122.15-123.69,8.92-9.02,9.84-9.01,19.5-.32,3.95,3.55,7.81,7.19,11.69,10.82.22.2.23.61,1.05,2.99Z"/>
  <path class="st0" d="M568.3,2106.31h184.53c-.91-3.09-1.3-5.19-2.14-7.09-1.35-3.04-2.48-6.38-4.6-8.83-10.74-12.41-3.44-23.63,1.93-35,1.82-3.85,4.96-4.05,8.41-2.41,7.22,3.43,14.42,6.89,21.58,10.43,8.65,4.27,18.63,7.12,25.47,13.38,6.56,6.01,9.87,15.58,14.56,23.62,6.54,11.22,13.29,22.32,19.44,33.75,2.51,4.66,5.8,6.94,10.82,7.41,2.98.27,5.96.66,8.9,1.23,8.35,1.61,8.84,2,8.48,10.39-.73,17.3-1.71,34.59-2.61,51.88-.26,4.99-.67,9.97-.83,14.96-.14,4.41-2.14,7.19-6.64,6.9-14.29-.91-28.56-2.05-42.83-3.22-4.29-.35-5.31-3.43-5.13-7.14.41-8.31.9-16.63,1.29-24.94.44-9.31,3.45-19.61.45-27.65-2.97-7.95-12.23-13.45-18.36-20.35-4.34-4.89-9.27-6.48-15.79-6.42-62.28.55-124.56.78-186.85,1.11-2,.01-4,.03-6,.03-12.19,0-13.56-1.25-14.06-13.68-.22-5.61-.04-11.24-.04-18.38Z"/>
  <path class="st0" d="M1812.42,1334.25c-6.23,7.3-11.37,12.9-16.01,18.89-3.83,4.96-8.44,7.18-14.66,6.62-3.97-.36-7.99-.27-11.98-.34-4.93-.09-7.48-2.58-7.19-7.49.98-16.63,1.91-33.26,3.28-49.85.22-2.67,2.29-5.38,4.03-7.69,12.04-15.95,24.04-31.94,36.46-47.6,3.51-4.42,4.2-8.45,2.9-13.75-4.56-18.59-6.97-15.83,12.21-22.8,17.21-6.25,34.47-12.36,51.74-18.44,9.56-3.36,10.64-2.86,13.79,6.45,3.73,11.04,7.36,22.11,10.87,33.22,2.55,8.08,2.15,9.03-5.67,11.83-13.79,4.94-27.57,9.95-41.55,14.29-5.77,1.79-8.84,5-10.67,10.5-2.94,8.82-8.99,17.51-8.89,26.2.1,8.68,5.99,17.35,9.59,25.92,22.48,53.39,45.03,106.75,67.54,160.13,4.85,11.49,4.42,12.51-7.14,18.09-5.06,2.45-10.14,4.86-16.36,7.83-9.37-18.64-16.27-37.93-24.3-56.7-7.99-18.67-15.59-37.5-23.39-56.26-7.91-19.02-15.84-38.03-24.59-59.06Z"/>
  <path class="st0" d="M1729.98,857.7c-56.34-23.25-112.54-46.44-170.52-70.36.55,8.6.44,15.81,1.62,22.8,1.26,7.46-.8,12.96-6.57,17.56-2.85,2.27-5.4,4.95-7.97,7.56-3.63,3.71-6.98,3.17-10.21-.46-10.86-12.18-21.92-24.19-32.38-36.71-2.3-2.76-2.92-7.27-3.46-11.1-2.71-19.11-5.33-38.24-7.55-57.42-.64-5.53-2.92-8.85-7.66-11.69-16.6-9.97-15.91-6.66-7.39-24.77,7.79-16.56,15.6-33.12,23.5-49.64,4.33-9.05,5.61-9.5,14.37-5.15,10.43,5.18,20.83,10.44,31.16,15.83,7.51,3.92,7.84,4.84,4.28,12.33-6.29,13.23-12.6,26.44-19.24,39.49-2.44,4.8-3.11,8.98-.52,14.03,4.4,8.56,6.33,19.26,12.7,25.68,6.09,6.12,16.45,8.1,25.05,11.6,53.63,21.85,107.29,43.6,160.94,65.41,11.43,4.65,12,6.02,7.81,17.96-1.76,5-3.6,9.98-5.49,14.93-.21.54-.98.86-2.47,2.09Z"/>
  <path class="st0" d="M286.01,1095.09c8.52-4.33,15.41-7.51,21.97-11.27,5.45-3.12,10.4-3.04,16.08-.48,20.05,9.03,18.54,6.31,9.64,25.15-4.69,9.93-9.69,19.73-14.29,29.7-2.18,4.72-5.23,7.99-9.9,10.59-17.17,9.54-33.95,19.8-51.13,29.32-5.3,2.94-7.69,6.72-8.23,12.51-.46,4.9-1.66,9.72-2.75,15.8-3.7,0-6.92.12-10.13-.02-20.63-.88-41.27-1.77-61.9-2.77-9.7-.47-10.81-1.83-10.11-11.49.85-11.63,1.69-23.25,2.64-34.87.67-8.17,1.74-9.19,9.83-8.76,13.3.71,26.67,1.05,39.86,2.69,8.54,1.06,14.76-.82,19.9-7.74,2.96-3.98,6.51-7.66,10.34-10.82,5.75-4.74,6.93-10.5,6.87-17.66-.55-62.3-.77-124.6-1.09-186.9-.02-3.33.13-6.67-.04-9.99-.22-4.46,2.1-7.24,6.11-7.77,7.25-.96,14.58-1.49,21.88-1.58,1.42-.02,3.51,2.57,4.13,4.36.73,2.08.18,4.6.18,6.94.04,54.31.09,108.61.13,162.92,0,3.31,0,6.63,0,12.14Z"/>
  <path class="st0" d="M885.4,2225.1c57.54-23.93,113.98-47.41,172.05-71.56-6.65-5.78-12.43-10.47-17.79-15.6-2.79-2.67-6.49-5.92-6.87-9.24-.81-7.16-.13-14.58.89-21.76.2-1.37,4.82-3.01,7.38-2.98,8.98.11,18.01,1.83,26.91,1.23,17.39-1.17,31.33,4.73,44.07,16.38,10.28,9.4,22.19,17.01,33.11,25.74,4.27,3.41,8.11,4.36,13.61,2.97,19.98-5.08,16.28-5.74,23.22,13.06,6.11,16.55,11.96,33.19,17.86,49.81,3.81,10.75,3.4,11.61-7.05,15.08-10.42,3.46-20.86,6.87-31.33,10.21-9.22,2.94-10.06,2.57-13.17-6.21-4.67-13.18-9.53-26.3-13.62-39.65-1.97-6.42-5.43-10.13-11.75-12.02-5.4-1.61-10.76-3.63-15.81-6.13-6.51-3.22-12.33-2.71-18.98.14-47.43,20.3-95.01,40.25-142.54,60.31-12.27,5.18-24.51,10.42-36.82,15.47-7.52,3.08-9.82,2.29-13.58-4.88-3.23-6.14-6.03-12.5-9.79-20.38Z"/>
  <path class="st0" d="M1533.57,2072.63c23.94-58.02,47.25-114.52,71.11-172.37-8.69.65-15.93.83-23.06,1.83-7.31,1.02-12.66-1.2-17.6-6.71-12.37-13.76-14.41-11.45.77-24.89,8.73-7.73,17.52-15.4,26.11-23.28,3.57-3.28,7.33-4.96,12.31-5.54,20.18-2.32,40.27-5.34,60.43-7.8,4.44-.54,7.38-2.21,9.43-6.14,1.85-3.53,4.27-6.77,6.19-10.27,2.35-4.29,5.44-5.37,9.91-3.24,20.74,9.9,41.56,19.63,62.24,29.63,5.45,2.64,6.1,4.74,3.34,10.44-5.66,11.69-11.55,23.27-17.6,34.76-3.15,5.99-4.65,6.41-11.2,3.32-13.55-6.4-27.11-12.8-40.42-19.67-4.98-2.57-9.16-2.61-14.05-.13-8.58,4.36-19.22,6.46-25.58,12.89-6.09,6.15-7.95,16.56-11.46,25.18-21.59,53.04-43.13,106.11-64.68,159.17-.75,1.85-1.58,3.67-2.24,5.56-1.72,4.96-5.31,6.94-10.14,5.47-7.57-2.3-14.97-5.14-23.81-8.22Z"/>
  <path class="st0" d="M1165.28,507.96c-57.8,24.03-113.99,47.39-171.73,71.4,5.99,5.26,10.81,10.17,16.3,14.15,6.58,4.77,9.19,10.52,8.67,18.69-1.01,15.91,2.92,18.43-17.62,16.46-11.6-1.11-23.26-1.71-34.91-2-5.7-.14-9.97-2.25-14.33-5.7-15.17-11.96-30.77-23.38-45.89-35.4-4.43-3.52-8.51-4.16-13.78-2.87-17.91,4.4-15.78,7.38-22.76-12.25-6.24-17.57-12.66-35.07-18.86-52.65-2.94-8.34-2.33-9.63,5.91-12.47,11.01-3.8,22.09-7.4,33.18-10.97,9.15-2.95,9.88-2.61,13.05,6.32,4.79,13.49,9.67,26.95,13.98,40.6,1.8,5.69,5.05,8.83,10.53,10.68,8.81,2.98,17.5,9.05,26.19,8.95,8.68-.1,17.35-6.02,25.92-9.63,53.39-22.47,106.76-45.02,160.14-67.53,11.41-4.81,12.74-4.3,18.17,7.06,2.53,5.3,4.89,10.69,7.84,17.16Z"/>
  <path class="st0" d="M516.86,661.46c-23.26,56.41-46.55,112.89-70.57,171.14,9.17-.69,16.71-.9,24.13-1.92,6.25-.86,10.86.93,15.1,5.51,14.71,15.9,15.7,12.76-.98,27.68-7.7,6.89-15.66,13.5-23.09,20.68-4.59,4.43-9.73,6.37-15.92,7.11-18.85,2.24-37.65,5.01-56.5,7.24-5.78.68-9.45,3.05-12.46,8.18-9.63,16.43-6.92,15.19-24.04,7.15-16.88-7.93-33.76-15.88-50.58-23.94-8.75-4.19-9.05-5.1-4.84-13.62,5.17-10.45,10.44-20.85,15.81-31.2,4.16-8.03,4.99-8.32,13.03-4.48,12.93,6.16,25.88,12.3,38.63,18.82,5.16,2.64,9.65,3.22,15.02.45,8.27-4.27,18.74-6.01,24.85-12.21,6.1-6.18,8.16-16.44,11.68-25.04,21.91-53.66,43.72-107.35,65.58-161.03,4.75-11.65,5.89-12.16,17.82-8.01,5.02,1.75,9.99,3.61,14.98,5.45.29.11.5.42,2.35,2.05Z"/>
  <path class="st0" d="M491.72,1945.65c-.71-9.5-1.04-17.1-1.91-24.64-.71-6.17.85-11.07,5.78-15,2.85-2.28,5.27-5.09,8.02-7.51,5.28-4.66,6.84-4.76,11.57.35,7.7,8.3,14.58,17.43,22.78,25.18,9.03,8.54,12.8,18.58,13.9,30.65,1.51,16.56,4.32,33,6.18,49.54.54,4.84,2.33,8.15,6.71,10.1.3.13.57.34.85.52,16,10.1,16.23,6.46,7.54,24.88-7.67,16.26-15.34,32.51-23.06,48.75-5.09,10.71-5.55,10.84-16.47,5.34-8.92-4.49-17.81-9.05-26.7-13.59q-11.05-5.64-5.42-17.29c5.94-12.29,11.71-24.66,17.96-36.79,2.38-4.62,2.44-8.53.16-13.13-4.29-8.62-6.31-19.28-12.7-25.7-6.09-6.12-16.46-8.08-25.07-11.59-53.62-21.88-107.28-43.68-160.92-65.52-11.64-4.74-12.14-5.85-7.92-17.85,1.86-5.3,3.81-10.57,6.15-17.05,19.94,6.35,38.36,15.31,57.31,22.87,18.86,7.52,37.53,15.5,56.3,23.24,19.03,7.85,38.08,15.65,58.97,24.23Z"/>
  <path class="st0" d="M166.86,1226.43c24.11,57.97,47.58,114.41,71.59,172.13,5.81-6.73,10.98-12.25,15.6-18.21,3.79-4.89,8.12-7.17,14.47-6.94,22.24.81,20-2,19.16,20.03-.43,11.31-1,22.64-2.11,33.89-.37,3.69-1.97,7.71-4.19,10.7-11.9,16.05-24.01,31.95-36.4,47.62-3.63,4.59-4.72,8.67-3.21,14.5,5.08,19.57,4.93,16.17-12.68,22.62-16.88,6.18-33.81,12.19-50.75,18.21-10.57,3.76-11.09,3.47-14.74-7.57-3.35-10.11-6.66-20.23-9.92-30.37-3.27-10.19-3.1-10.53,7.34-14.18,13.19-4.62,26.35-9.37,39.66-13.6,5.31-1.69,8.44-4.58,10.03-9.86,1.43-4.77,3.07-9.59,5.46-13.92,4.96-9.04,3.53-17.17-.44-26.4-24.44-56.88-48.32-114-72.39-171.04-.78-1.84-1.47-3.72-2.37-5.5-2.41-4.73-1.22-8.67,3.2-11.05,6.95-3.75,14.18-6.96,22.69-11.07Z"/>
  <path class="st0" d="M1765.27,1823.73v-184.32c-7.79,1-13.15,4.48-18.23,7.72-8.21,5.24-15.93,5.87-24.19.71-1.68-1.05-3.65-1.6-5.45-2.47-7.36-3.53-7.88-4.61-4.28-12.27,6.37-13.55,12.81-27.08,19.65-40.41,1.54-3,4.43-5.77,7.37-7.52,16.87-10.06,33.87-19.91,50.98-29.55,5.54-3.12,10.09-6.42,9.48-13.59-.03-.32.12-.65.18-.98q2.7-15.43,17.97-14.57c18.95,1.04,37.9,2.05,56.85,3.1,10.14.56,10.82,1.16,10.18,11.3-.75,11.96-1.63,23.92-2.87,35.84-.75,7.19-1.55,7.79-8.92,7.48-14.97-.63-29.94-1.4-44.88-2.49-5.44-.4-9.57.82-13.12,5.14-3.58,4.36-7.39,8.69-11.75,12.23-6.94,5.62-8.33,12.57-8.23,21.09.76,62.27,1.13,124.55,1.6,186.82.11,15.29-.75,16.17-16.28,16.7-4.92.17-9.85.03-16.07.03Z"/>
  <path class="st0" d="M178.58,1565.58c44.23,44.14,87.63,87.45,132.16,131.88,2.9-9.04,5.44-16.17,7.45-23.44,1.65-5.98,5.07-9.7,10.95-11.79,19.87-7.06,17.46-9.8,24.7,10.81,3.75,10.67,7.27,21.42,11.18,32.04,1.69,4.6,1.65,8.82.33,13.56-5.37,19.22-10.18,38.6-15.63,57.8-1.43,5.04-1.08,8.91,2.44,12.77,2.23,2.44,4.05,5.28,5.92,8.03,4.07,6.01,4.12,6.83-1.19,11.73-12.23,11.29-24.63,22.4-36.96,33.59-4.19,3.8-8.3,7.7-12.62,11.36-5.46,4.62-7.07,4.71-11.63-.41-8.64-9.69-17.08-19.57-25.36-29.56-4.28-5.16-4.04-6.86,1.25-11.65,11.1-10.06,22.24-20.09,33.63-29.82,3.92-3.35,5.62-6.87,5.3-12.04-.6-9.62,1.87-20.33-1.6-28.63-3.46-8.27-12.51-14.29-19.35-21.06-40.48-40.03-81.04-80-121.56-119.99-1.9-1.87-3.7-3.83-5.66-5.64-3.32-3.08-3.28-6.8-.83-9.88,5.11-6.42,10.75-12.42,17.1-19.64Z"/>
  <path class="st0" d="M1872.36,1167.35c-44.51-44.42-87.78-87.59-132.06-131.77-2.77,8.41-5.41,15.21-7.21,22.23-1.74,6.77-5.43,10.85-12.1,13.2-18.47,6.52-16.81,9.61-23.83-11.02-3.75-11.03-7.51-22.06-11.51-33-1.44-3.94-1.47-7.45-.32-11.57,5.39-19.23,10.12-38.64,15.61-57.84,1.65-5.76.77-9.94-2.73-14.69-11.12-15.1-11.83-11.97,2.49-25.01,13.79-12.57,27.59-25.11,41.48-37.57,7.11-6.38,8.37-6.31,14.52.72,7.9,9.02,15.72,18.12,23.4,27.33,5.12,6.14,5.08,7.02-.72,12.28-10.85,9.85-21.74,19.67-32.9,29.17-4.39,3.74-6.81,7.59-6.3,13.61.79,9.27-1.48,19.59,1.92,27.62,3.38,8.01,11.97,13.91,18.57,20.44,40.49,40.06,81.07,80.04,121.62,120.05,1.9,1.87,3.66,3.9,5.69,5.61,4.24,3.55,3.98,7.67.96,11.42-4.96,6.15-10.43,11.88-16.58,18.8Z"/>
  <path class="st0" d="M1483.5,626.69h-186.68c3.69,7.37,5.96,13.13,9.26,18.23,5.26,8.13,5.88,15.95.68,24.24-1.23,1.95-1.82,4.29-2.86,6.37-2.91,5.79-4.44,6.7-10.11,4.06-14.78-6.89-29.48-13.98-43.98-21.44-2.65-1.36-4.62-4.6-6.24-7.35-9.98-16.92-19.93-33.86-29.52-51-2.85-5.09-6.21-7.62-12.17-8.48-16.77-2.43-16.77-2.76-16.06-19.47.79-18.63,1.61-37.26,2.55-55.89.46-9.13,1.73-10.34,10.89-9.82,11.63.66,23.26,1.52,34.86,2.61,9.14.86,9.87,1.98,9.25,11.44-.9,13.96-1.59,27.93-2.85,41.85-.53,5.84.67,10.34,5.44,13.96,2.64,2,5.23,4.27,7.2,6.9,8.42,11.22,19.51,13.41,33.12,13.15,59.94-1.15,119.89-1.24,179.84-1.71,2.66-.02,5.33.07,7.99,0,4.51-.12,7.08,2.6,7.54,6.48.95,8.14,1.22,16.37,1.86,25.88Z"/>
  <path class="st0" d="M802.76,1158.48c3.17,2.87,5.69,4.9,7.91,7.21,17.75,18.48,35.46,36.99,53.14,55.52,6.86,7.19,6.94,7.46,2.72,16.51-5.05,10.85-10.35,21.59-15.4,32.44-2.85,6.12-6.64,10.49-14.11,10.72-6.11.19-12.06,3.75-19.46.79,2.82-14.78,12.64-26.8,16.55-42.29-4.04,0-7.28.02-10.52,0-19.3-.11-38.59-.23-57.89-.36-2.33-.02-4.69.16-6.98-.19-5.16-.8-7.31-4.7-5.26-9.37.66-1.51,1.69-2.86,2.63-4.23,13.25-19.55,26.49-39.11,39.82-58.61,1.8-2.63,4.1-4.91,6.84-8.15Z"/>
  <path class="st0" d="M1110.49,1157.37c14.35,6.37,27.3,12.12,41.16,18.28.35-3.51.8-5.99.82-8.48.18-20.3.27-40.6.4-60.89.02-2.33-.14-4.71.27-6.97.83-4.49,4.68-6.64,8.95-4.99,1.82.7,3.41,2.04,5.06,3.15,19.29,13.05,38.59,26.08,57.83,39.2,2.66,1.81,5.02,4.07,8.31,6.76-2.4,2.91-4.03,5.32-6.07,7.29-18.95,18.22-37.95,36.39-56.99,54.51-6.54,6.22-7.47,6.38-15.8,2.48-11.15-5.21-22.17-10.69-33.33-15.88-5.89-2.74-9.58-6.69-10.03-13.52-.29-4.29-1.73-8.49-2.09-12.78-.19-2.28.81-4.66,1.5-8.16Z"/>
  <path class="st0" d="M800.81,1370.04c-1.9-17.31.27-31.82-.15-47.21-3.03.89-5.48,1.39-7.75,2.31-20.04,8.17-40,16.52-60.08,24.58-8.15,3.28-11.91-.07-10.65-8.98.14-.99.38-1.96.58-2.94,3.53-16.94,7.08-33.88,10.59-50.83,1.22-5.87,2.23-11.78,3.62-17.6.73-3.09,2.06-6.04,3.38-9.8,3.75,1.34,6.55,2.15,9.21,3.31,23.78,10.42,47.55,20.88,71.29,31.4,8.53,3.78,9.16,4.88,8.7,14.5-.56,11.64-1.36,23.28-1.83,34.92-.29,7.17-2.57,12.77-9.46,16.16-5.24,2.58-10.13,5.87-17.44,10.18Z"/>
  <path class="st0" d="M1027.31,1591.47c-15.79,1.52-30.29-.73-45.85,0,1.36,3.72,2.35,6.77,3.56,9.73,7.66,18.78,15.39,37.53,23.04,56.31,1.34,3.3,3.58,6.61.52,10.21-2.92,3.44-6.59,2.53-10.17,1.8-23.44-4.83-46.9-9.61-70.3-14.63-9.56-2.05-10.19-3.35-6.42-11.99,10.64-24.38,21.57-48.63,32.03-73.09,2.53-5.91,6.34-7.94,12.37-7.55,12.95.82,25.91,1.4,38.86,2.15,5.62.33,10.17,2.37,12.93,7.79,1.96,3.84,4.74,7.24,6.78,11.04,1.15,2.14,1.53,4.68,2.62,8.22Z"/>
  <path class="st0" d="M864.9,1207.74c11.23-10.62,21.75-20.57,33.1-31.3-3.87-1.79-6.78-3.23-9.76-4.48-17.77-7.46-35.57-14.88-53.35-22.32-2.15-.9-4.36-1.7-6.38-2.82-5.56-3.09-6.05-7.79-.91-11.75,4.46-3.44,9.37-6.32,14.09-9.43,15.55-10.25,31.08-20.51,46.67-30.7,3-1.96,6.2-3.6,10.15-5.87,1.72,2.82,3.37,4.81,4.27,7.09,9.94,25.37,19.62,50.85,29.74,76.15,2.26,5.65,1.01,9.5-3.17,13.21-9.95,8.84-19.86,17.7-29.72,26.64-4.34,3.94-9.22,5.18-14.74,3.33-6.14-2.05-13.28-1.3-19.98-7.75Z"/>
  <path class="st0" d="M1329.86,1355.71c-3.94.3-6.83.77-9.72.71-25.95-.52-51.9-1.07-77.85-1.74-9.84-.25-10.23-.58-13.59-9.85-4.07-11.26-7.92-22.59-11.98-33.85-2.31-6.41-2.3-12.27,2.71-17.56,4.17-4.41,5.69-11.31,13.24-13.94,8.06,12.72,9.98,27.97,17.75,41.39,2.92-2.71,5.38-4.85,7.69-7.14,14.19-14.05,28.31-28.17,42.55-42.17,2.48-2.44,4.48-6.18,9.01-4.99,4.77,1.25,5.42,5.26,6.19,9.27,4.41,23.19,8.92,46.37,13.27,69.57.58,3.11.47,6.34.72,10.3Z"/>
  <path class="st0" d="M866.73,1527.14c-10.71-11.4-20.62-21.95-31.21-33.23-1.92,4.08-3.39,6.93-4.63,9.87-7.48,17.77-14.91,35.55-22.35,53.33-.77,1.84-1.43,3.73-2.34,5.5-3.45,6.72-8.23,7.14-12.77.82-4.46-6.21-8.5-12.71-12.7-19.1-8.95-13.61-17.9-27.22-26.83-40.85-1.27-1.94-2.6-3.87-3.64-5.95-1.56-3.13-1.12-5.82,2.38-7.4,1.51-.68,3.05-1.32,4.6-1.92,24.16-9.38,48.41-18.56,72.44-28.26,6.59-2.66,11.17-1.82,15.75,3.54,8.21,9.6,16.82,18.86,25.28,28.25,4.03,4.48,5.97,9.23,3.74,15.45-1.78,4.96-2.5,10.3-3.92,15.41-.31,1.11-1.59,1.96-3.8,4.52Z"/>
  <path class="st0" d="M1132.3,1082.06c-1.39,3.61-2.34,6.4-3.52,9.1-10.18,23.18-20.39,46.34-30.62,69.49-4.4,9.94-4.44,10.07-14.74,9.64-12.65-.53-25.29-1.37-37.93-1.99-5.39-.26-9.47-2.24-12.21-7.2-3.15-5.72-6.79-11.17-11.39-18.64,5.53-.75,8.84-1.54,12.17-1.59,11.3-.16,22.59-.06,34.68-.06-.53-1.92-.94-4.37-1.86-6.62-7.52-18.51-15.13-36.99-22.71-55.48-.88-2.16-1.84-4.3-2.54-6.51-1.85-5.88,1.37-10.53,7.2-9.37,26.13,5.18,52.18,10.74,78.23,16.27,1.51.32,2.83,1.57,5.24,2.97Z"/>
  <path class="st0" d="M1036.32,1670.8c-.35-3.67-.85-6.24-.8-8.79.51-26.31,1.3-52.63,1.55-78.94.07-7.08,2.51-11.03,9.32-13.2,12.05-3.83,23.94-8.19,35.83-12.51,5.44-1.98,10.3-1.89,14.88,2.11,4.9,4.28,11.62,6.45,15.77,13.76-12.85,8.28-27.85,10.71-41.68,17.76,1.73,2.14,3.13,4.21,4.86,5.96,13.81,13.99,27.69,27.91,41.54,41.85,1.41,1.42,2.86,2.79,4.22,4.26,6.09,6.6,4.87,11.32-3.79,13.22-10.73,2.35-21.57,4.19-32.35,6.29-12.09,2.35-24.15,4.86-36.27,7.06-4.09.74-8.31.77-13.08,1.18Z"/>
  <path class="st0" d="M1153.07,1556.94c20.74,8.7,40.05,16.8,59.37,24.9,2.45,1.03,4.94,1.98,7.36,3.09,8.79,4.01,9.41,8.9,1.61,14.32-7.1,4.94-14.43,9.56-21.66,14.31-13.07,8.6-26.08,17.29-39.23,25.77-8.09,5.22-9.51,4.75-12.97-4.06-9.73-24.77-19.25-49.63-29.1-74.35-2.17-5.44-1.41-9.49,2.93-13.32,9.99-8.8,19.84-17.77,29.75-26.66,4.22-3.78,8.75-5.73,14.59-3.52,3.39,1.28,7.2,1.38,10.66,2.52,2.67.88,5.08,2.54,7.6,3.86-1.37,2.46-2.28,5.37-4.19,7.28-6.6,6.58-13.57,12.78-20.35,19.18-1.89,1.78-3.59,3.75-6.38,6.69Z"/>
  <path class="st0" d="M937.15,1158.84c14.97-5.83,28.44-11.07,42.86-16.68-2.17-2.6-3.63-4.63-5.37-6.39-14.75-14.92-29.58-29.77-44.31-44.71-1.82-1.85-3.82-3.94-4.62-6.3-1.33-3.92,1.71-7.19,7.62-8.37,14.36-2.86,28.76-5.52,43.14-8.28,9.48-1.82,18.94-3.73,28.43-5.47,9.3-1.7,10.95-.52,10.78,8.55-.51,26.97-1.31,53.94-1.76,80.91-.09,5.08-2.12,8.21-6.71,9.84-13.17,4.68-26.33,9.4-39.55,13.93-4.99,1.71-9.73,1.25-14-2.46-4.91-4.26-11.4-6.72-16.52-14.59Z"/>
  <path class="st0" d="M1182.69,1207.36c8.14,2.35,11.48,9.86,16.85,14.89,5.3,4.97,10.05,10.54,15.78,16.63,1.74-3.5,3.17-6.02,4.29-8.66,7.49-17.79,14.91-35.6,22.35-53.41.9-2.15,1.66-4.36,2.71-6.44,3.08-6.12,8.63-7.12,12.32-1.58,14.96,22.42,29.55,45.09,44.22,67.7.49.75.38,1.89.69,3.68-2.03,1.21-4.09,2.83-6.41,3.74-25.09,9.84-50.27,19.43-75.29,29.44-5.92,2.37-10.05,1.29-14.09-3.33-8.54-9.78-17.27-19.39-26.01-28.99-3.9-4.28-5.62-9.04-3.74-14.65,2.06-6.15,1.39-13.24,6.33-19.02Z"/>
  <path class="st0" d="M1234.81,1450.99c-6.7,15.08-12.48,28.07-18.71,42.08,3.54.28,6.02.65,8.51.66,19.99.11,39.98.15,59.97.22,2,0,4.01-.1,6,.05,6.9.5,9.83,5.04,6.06,10.69-14.97,22.44-30.32,44.62-45.59,66.85-.51.74-1.65,1.05-3.21,1.99-1.83-1.4-4.09-2.72-5.83-4.53-18.72-19.44-37.23-39.08-56.1-58.37-4.55-4.65-4.79-8.91-2.12-14.32,5.59-11.35,11.03-22.78,16.37-34.25,2.75-5.91,6.71-9.65,13.58-10.06,3.96-.24,7.86-1.51,11.82-1.87,2.4-.22,4.87.41,9.26.86Z"/>
  <path class="st0" d="M1249.9,1365.03c3.07,14.94-1.37,29.77.78,45.48,3.5-1.31,6.54-2.36,9.52-3.58,17.55-7.16,35.09-14.35,52.63-21.53,1.23-.5,2.44-1.07,3.69-1.52,3.34-1.21,6.53-3.58,10.2-.52,3.56,2.96,2.46,6.4,1.7,10.04-4.69,22.46-9.26,44.94-13.96,67.39-.8,3.8-2.04,7.5-3.36,12.27-3.66-1.1-6.52-1.65-9.12-2.79-24.07-10.53-48.01-21.36-72.19-31.63-6.19-2.63-8.78-6.17-8.3-12.81.96-13.27,1.51-26.57,2.2-39.86.26-5,2.07-8.99,6.75-11.39,6.06-3.1,10.93-8.61,19.44-9.55Z"/>
  <path class="st0" d="M817.56,1589.05c2.75-3.02,4.82-5.56,7.16-7.81,18.5-17.76,37.04-35.47,55.61-53.16,7.17-6.83,7.4-6.89,16.52-2.64,10.56,4.92,20.96,10.19,31.59,14.95,6.99,3.13,11.51,7.56,11.67,15.69.12,5.78,3.8,11.46.13,18.55-14.3-3.8-26.79-12.38-42.07-17.33,0,5.21,0,9.11,0,13-.05,19.65-.09,39.3-.17,58.95-.01,3.6.55,7.32-3.87,9.35-3.85,1.77-6.36-.4-9.07-2.24-20.14-13.62-40.27-27.23-60.35-40.94-2.38-1.63-4.36-3.85-7.15-6.37Z"/>
  <path class="st0" d="M721.11,1376.24c4.9,0,7.86-.06,10.83,0,25.98.6,51.96,1.43,77.95,1.69,6.5.07,9.83,2.73,11.78,8.43,4.22,12.28,8.46,24.55,12.9,36.76,1.98,5.45,1.82,10.26-2,14.93-2.95,3.6-5.28,7.7-8.19,11.33-1.33,1.65-3.39,2.71-6.03,4.75-7.47-13.66-10.69-28.05-17.23-41.99-2.24,1.8-4.33,3.19-6.08,4.91-14.24,14.04-28.41,28.14-42.6,42.22-1.42,1.41-2.77,2.9-4.28,4.2-5.77,4.98-10.66,3.71-12.31-3.67-2.47-11.04-4.36-22.21-6.51-33.33-2.4-12.42-4.92-24.82-7.18-37.27-.68-3.76-.64-7.64-1.05-12.99Z"/>
  <path class="st0" d="M1075.04,1994.53c-2.57,5.83-6.35,7.8-12.17,7.34-11.26-.89-22.57-1.33-33.87-1.61-4.49-.11-7.46-1.81-9.76-5.58-3.1-5.09-6.54-9.98-10.64-16.17-6.16,5.79-12.34,10.69-17.37,16.58-4.91,5.75-10.44,7.27-17.57,6.48-7.59-.84-15.27-.85-22.9-1.36-2.82-.19-5.62-.79-10.24-1.48,2.45-4.35,3.76-7.66,5.89-10.3,20.06-24.83,40.2-49.6,60.45-74.28,5.04-6.15,8.27-6.29,12.54-.28,18.3,25.74,36.37,51.65,54.48,77.52.55.78.68,1.84,1.14,3.13Z"/>
  <path class="st0" d="M1411.93,1873.97c-1.36-6.93-2.59-11.37-3.06-15.88-3.09-29.48-6.02-58.98-8.99-88.47-.13-1.33-.28-2.66-.29-3.99-.05-6.81,1.49-8.59,8.2-7.77,8.58,1.05,17.09,2.74,25.62,4.23,21.32,3.72,42.63,7.47,63.93,11.27,3.14.56,7.09.1,8.17,4.34,1.05,4.13.18,7.56-3.38,10.65-8.8,7.64-17.33,15.61-25.78,23.64-3.51,3.33-7.06,4.26-11.79,2.98-5.69-1.54-11.6-2.3-18.84-3.68,0,9.34-.26,17.62.1,25.86.22,5.07-1.06,8.87-5.05,12.23-6.87,5.8-13.29,12.13-20,18.11-2.12,1.89-4.6,3.39-8.83,6.45Z"/>
  <path class="st0" d="M1531.45,979.95c-3.45.93-6.19,2.07-9.02,2.37-32.07,3.39-64.15,6.77-96.25,9.88-9.04.88-10.67-1.25-9.12-10.25,5.01-29.16,9.99-58.32,15.26-87.43.52-2.87,2.29-6.56,4.6-7.83,3.73-2.04,7.44-.19,10.45,3.23,7.47,8.48,15.08,16.87,22.97,24.96,3.69,3.78,4.72,7.7,3.58,12.65-1.33,5.76-2.42,11.58-3.9,18.72,9.98,0,18.92-.2,27.83.12,2.75.1,6.28.79,8.04,2.6,8.34,8.57,16.2,17.61,24.17,26.54.59.66.6,1.83,1.39,4.44Z"/>
  <path class="st0" d="M1042.44,754.67c7.09-6.82,13.28-12.38,18.98-18.41,3.23-3.41,6.53-5.09,11.31-4.78,8.96.58,17.96.54,26.93,1.01,3.14.17,6.24,1.09,10.85,1.94-2.37,4.12-3.62,7.15-5.59,9.59-20.29,25.1-40.65,50.15-61.13,75.1-5.05,6.16-7.86,6.15-12.44-.29-18.13-25.49-36.03-51.13-53.98-76.75-.73-1.04-1.02-2.38-1.43-3.35,2.03-5.87,5.86-7.74,11.64-7.39,10.63.65,21.28,1.03,31.93.99,6.45-.03,10.59,2.53,13.64,8.06,2.54,4.61,5.73,8.86,9.29,14.27Z"/>
  <path class="st0" d="M466.69,1116.65c-3.72-9.46-7.15-17.67-10.11-26.04-.92-2.59-1.61-6.08-.61-8.39,4.73-10.98,10.06-21.7,15.27-32.47.38-.78,1.48-1.2,3.35-2.64,2.37,3.04,5.14,5.75,6.91,9,14.96,27.45,29.79,54.97,44.54,82.52,4.6,8.6,3.48,11.13-5.79,13.24-28.85,6.57-57.72,13.02-86.59,19.44-3.11.69-6.5,2.13-9.15-1.32-2.75-3.58-2.68-7.04-.7-11.1,4.97-10.15,9.71-20.42,14.25-30.77,2.07-4.72,5.1-7.41,10.33-8.09,5.57-.72,11.07-2.03,18.3-3.4Z"/>
  <path class="st0" d="M453.61,1584.77c-9.15-3.94-17.44-7.3-25.51-11.12-2.48-1.18-5.39-3.22-6.34-5.57-4.32-10.79-8.06-21.82-11.89-32.8-.4-1.15-.05-2.55-.05-5.22,3.7.42,6.93.32,9.88,1.18,30.94,9.1,61.85,18.28,92.72,27.62,8.14,2.46,9.07,5.07,4.52,12.3-16.09,25.64-32.29,51.21-48.61,76.71-4.35,6.8-11.24,6.37-14.23-1.03-4.73-11.71-8.71-23.72-13.21-35.52-1.5-3.94-.4-7.03,1.81-10.22,3.56-5.12,6.94-10.36,10.91-16.33Z"/>
  <path class="st0" d="M1623.59,1560.21c5.19,4.68,6.07,8.79,3.4,14.14-5.05,10.12-9.75,20.42-14.3,30.78-1.93,4.4-4.7,6.82-9.57,7.5-5.88.82-11.67,2.33-18.78,3.81,3.45,8.86,6.86,17.01,9.73,25.35,1,2.89,1.78,6.72.71,9.32-4.33,10.44-9.37,20.59-14.29,30.77-.66,1.37-2.15,2.35-4.08,4.38-2.47-3.28-4.98-5.88-6.65-8.94-15.28-28.06-30.48-56.16-45.56-84.33-3.72-6.95-2.65-9.68,4.9-11.42,31.42-7.27,62.9-14.25,94.48-21.36Z"/>
  <path class="st0" d="M775.5,1925.32c-8.9,3.45-16.77,6.11-24.27,9.56-4.66,2.14-8.56,2.33-13.16-.03-8.29-4.25-16.87-7.9-25.26-11.96-2.26-1.09-4.25-2.74-7.75-5.05,4.12-3.06,6.96-5.73,10.27-7.53,27.48-14.96,55.02-29.81,82.6-44.57,8.43-4.51,10.76-3.44,12.96,6.2,6.58,28.87,12.97,57.78,19.39,86.68.69,3.12,2.43,6.52-1.46,8.96-3.26,2.05-6.3,2.81-10.21.87-10.73-5.31-21.67-10.22-32.6-15.11-4.07-1.82-6.03-4.69-6.69-9.07-.88-5.88-2.32-11.67-3.82-18.95Z"/>
  <path class="st0" d="M1219.91,767.43c4.69-4.66,8.94-4.79,14.1-2.17,9.78,4.95,19.78,9.51,29.86,13.85,4.82,2.08,7.31,5.23,8.02,10.37.77,5.55,2.04,11.04,3.36,17.93,7.62-2.84,14.9-4.85,21.49-8.22,6.97-3.56,12.93-3.32,19.63.48,6.63,3.77,13.82,6.54,20.7,9.89,2.56,1.25,4.93,2.89,8.87,5.24-3.62,2.93-5.83,5.32-8.53,6.79-28.63,15.58-57.3,31.08-86.05,46.44-6.18,3.3-9.3,1.97-10.86-4.89-7.01-30.79-13.75-61.65-20.56-92.48-.21-.94-.03-1.97-.03-3.24Z"/>
  <path class="st0" d="M1311.67,1927.3c-.14,6.97-3.18,10.01-8.6,11.81-10.41,3.45-20.74,7.21-30.92,11.31-4.93,1.98-8.83,1.4-12.94-1.75-4.47-3.42-9.28-6.4-15.26-10.46-3.54,8.06-7.22,15.37-9.95,23.02-2.1,5.87-5.5,9.26-11.51,11.03-7.96,2.35-15.64,5.62-23.5,8.33-2.7.93-5.57,1.37-10.17,2.46.88-5.63,1.06-9.82,2.21-13.72,8.65-29.34,17.5-58.63,26.29-87.93.57-1.91,1.03-3.89,1.94-5.64,1.6-3.07,4.18-4.21,7.5-2.69,1.5.69,2.91,1.6,4.32,2.49,25.03,15.83,50.05,31.67,75.05,47.54,1.93,1.23,3.66,2.77,5.54,4.2Z"/>
  <path class="st0" d="M397.56,1416.13c-6.44-2.63-7.86-7.1-7.43-13.05.81-10.95,1.33-21.93,1.55-32.9.1-4.97,2.28-7.98,6.29-10.42,5.06-3.08,9.91-6.48,15.66-10.28-6.94-7.21-13.31-13.46-19.2-20.13-2.01-2.28-3.98-5.62-3.96-8.46.07-11.3.87-22.6,1.6-33.89.09-1.44,1.34-2.81,2.53-5.16,3.48,2.18,6.72,3.78,9.46,6,24.57,19.89,49.09,39.84,73.54,59.88,6.56,5.38,6.59,8.37-.14,13.15-25.51,18.1-51.15,36-76.77,53.95-.79.55-1.8.77-3.14,1.32Z"/>
  <path class="st0" d="M1586.63,1080.34c6.1.06,9.51,2.59,11.35,8.15,3.45,10.41,7.27,20.71,11.31,30.91,2.07,5.24,1.37,9.54-1.99,13.92-3.38,4.41-6.34,9.15-10.08,14.61,9.1,4.01,17.17,7.78,25.42,11.1,3.67,1.48,6.11,3.45,7.43,7.29,3.44,10.07,7.2,20.02,10.74,30.06.52,1.47.51,3.14.99,6.29-4.58-.46-8.47-.26-11.99-1.3-30.3-8.93-60.54-18.03-90.77-27.2-8.22-2.5-9.5-5.22-5.18-12.09,16.81-26.76,33.86-53.37,50.85-80.02.34-.54.98-.89,1.94-1.73Z"/>
  <path class="st0" d="M807.08,794.77c4.07-9.38,7.28-17.4,11.04-25.15,1.34-2.76,3.54-6,6.14-7.08,10.44-4.32,21.17-7.93,31.84-11.65,1.38-.48,3.08-.07,5.95-.07-.62,4.18-.72,7.74-1.69,11.04-8.91,30.3-17.91,60.58-27.02,90.82-2.6,8.62-5.4,9.74-12.9,5.03-25.36-15.91-50.66-31.93-75.84-48.12-2.22-1.43-4.65-4.22-4.91-6.6-.39-3.66,1.69-6.83,5.79-8.28,11.6-4.09,23.15-8.33,34.67-12.66,4.21-1.58,7.66-.64,11.15,1.92,4.79,3.51,9.8,6.72,15.78,10.78Z"/>
  <path class="st0" d="M1657.65,1451.54c-4.47-2.62-7.78-4.03-10.47-6.21-24.84-20.07-49.61-40.22-74.3-60.48-6.15-5.04-6.19-7.98.11-12.46,25.48-18.11,51.11-36.01,76.72-53.95,1.06-.74,2.39-1.07,3.44-1.53,5.61,2.02,7.84,5.57,7.47,11.48-.7,10.95-.94,21.94-1.1,32.91-.08,5.51-2.05,9.44-6.96,12.21-4.89,2.77-9.47,6.09-15.35,9.94,6.45,6.67,12.14,13.04,18.38,18.83,3.78,3.51,5.22,7.21,4.87,12.28-.58,8.29-.5,16.63-.95,24.93-.19,3.48-1.04,6.92-1.85,12.05Z"/>
  <path class="st0" d="M546.63,957.77c-3.04-6.38-1.06-10.52,3.57-14.48,7.83-6.69,15.49-13.63,22.73-20.95,4.57-4.62,9.39-5.59,15.36-4.03,4.79,1.25,9.69,2.1,15.94,3.42.38-4.19,1.51-8.09.91-11.69-2.76-16.68,3.89-28.63,17.4-37.81,4.36-2.96,7.99-6.99,12.04-10.43.68-.58,1.85-.59,4.06-1.23,1.07,3.7,2.67,7.27,3.07,10.96,3.38,31.39,6.58,62.8,9.75,94.21.83,8.26-1.54,10.68-9.4,9.34-30.46-5.19-60.89-10.53-91.33-15.86-1.28-.22-2.49-.87-4.11-1.46Z"/>
  <path class="st0" d="M617.38,1844.99c-6.29,2.83-10.42,2.04-14.33-2.47-7.4-8.57-15.15-16.84-22.96-25.04-3.31-3.48-4.46-6.98-3.18-11.74,1.53-5.69,2.34-11.57,3.75-18.81-9.32-.18-17.53-.69-25.7-.37-5.46.21-9.48-1.22-13.04-5.48-5.55-6.63-11.66-12.8-17.42-19.27-1.89-2.12-3.42-4.56-6.2-8.31,5.18-1.39,8.79-2.88,12.51-3.28,31.12-3.35,62.26-6.54,93.4-9.7,9.16-.93,11.25,1.29,9.62,10.97-4.14,24.62-8.53,49.2-12.85,73.79-1.15,6.53-2.37,13.05-3.59,19.71Z"/>
  <path class="st0" d="M768.11,666.7c15.4,2.7,30.15,5.23,44.89,7.88,32.43,5.82,64.84,11.7,97.26,17.56,2.29.41,4.56.93,6.85,1.4,2.85.58,7.02.48,6.37,4.45-.33,2.01-3.81,4.27-6.29,5.05-38.41,12.09-76.87,24-115.36,35.85-7.21,2.22-8.34,1.85-11.19-4.2-9.22-19.58-18.3-39.22-27.23-58.93-2.81-6.21-.79-9.24,4.69-9.07Z"/>
  <path class="st0" d="M1187.34,711.05c-3.04.27-6.12.99-9.11.73-24.5-2.14-48.99-4.46-73.49-6.73-14.89-1.38-29.81-2.59-44.67-4.19-9.02-.97-9.36-1.53-9.74-10.38-.81-19.27-1.52-38.54-2.26-57.81-.09-2.32-.22-4.67-.04-6.98.31-3.97,2.86-5.1,6.28-3.99,2.17.7,4.18,1.99,6.13,3.24,40.31,25.82,80.61,51.66,120.86,77.58,2.53,1.63,4.61,3.98,6.89,5.99-.29.84-.57,1.69-.86,2.53Z"/>
  <path class="st0" d="M1537.17,1910.59c-5.06,2.18-8.09,4.09-11.38,4.82-47.08,10.36-94.2,20.59-141.33,30.74-2.94.63-6.93,3.24-8.76-1.23-1.66-4.05,2.51-5.67,4.91-7.67,30.15-25.15,60.34-50.25,90.57-75.32,7.28-6.04,7.84-6,14.95.5,14.48,13.26,28.91,26.57,43.31,39.91,2.14,1.98,4.02,4.26,7.73,8.24Z"/>
  <path class="st0" d="M676.51,788.87c-1.79,2.07-3.32,4.44-5.39,6.17-30.92,25.82-61.9,51.56-92.91,77.27-1.73,1.44-3.83,2.43-6.22,3.92-2.49-1.98-4.89-3.68-7.05-5.66-14.48-13.27-28.92-26.59-43.36-39.9-1.22-1.13-2.54-2.19-3.59-3.47-3.04-3.7-2.31-6.57,2.23-8.41,1.82-.74,3.87-.94,5.82-1.37,46.78-10.26,93.57-20.55,140.37-30.74,2.77-.6,5.69-.46,8.54-.66l1.56,2.84Z"/>
  <path class="st0" d="M1705.26,1673.93c-1.7,2.55-2.39,4.11-3.54,5.18-1.69,1.58-3.68,2.84-5.59,4.17-38.52,26.8-77.01,53.64-115.62,80.3-2.92,2.01-6.14,7.03-9.99,3.01-1.31-1.36.53-6.74,2.06-9.69,17.81-34.23,35.83-68.36,53.83-102.5,5-9.49,5.09-9.49,15.4-5.7,18.73,6.88,37.47,13.74,56.15,20.77,2.49.94,4.64,2.8,7.3,4.45Z"/>
  <path class="st0" d="M357.96,1467.68c1.31,2.39,3.07,4.64,3.87,7.19,11.94,38.09,23.79,76.21,35.55,114.36,2.55,8.29,2.1,9.04-6.1,12.88-18.08,8.46-36.21,16.82-54.33,25.21-1.51.7-3.01,1.47-4.59,1.96-3.78,1.15-5.79-.66-6.12-4.29-.18-1.95.15-3.98.5-5.93,8.51-47.48,17.02-94.96,25.64-142.43.54-2.99,2-5.82,3.02-8.73.85-.07,1.7-.14,2.56-.21Z"/>
  <path class="st0" d="M718.21,2047.86c-4.06-4.45-6.76-6.83-8.76-9.7-27.25-39.05-54.43-78.14-81.54-117.29-1.91-2.77-6.25-5.78-2.84-9.43,3.33-3.57,6.76.47,9.73,2.02,34.22,17.88,68.39,35.89,102.54,53.9,9.64,5.08,9.64,5.15,5.95,15.27-6.5,17.82-13.01,35.64-19.62,53.41-1.22,3.29-2.94,6.4-5.46,11.82Z"/>
  <path class="st0" d="M281.87,1343.9c-3.52-6.21.24-9.49,2.44-12.94,22.75-35.62,45.61-71.16,68.44-106.73,3.24-5.04,6.37-10.15,9.73-15.11,1.24-1.84,2.99-3.34,4.35-4.82,5.29,1.28,4.31,4.78,4.02,8.08-1.81,20.22-3.53,40.44-5.38,60.65-1.75,19.22-3.64,38.43-5.41,57.65-.91,9.92-1.45,10.57-11.35,10.98-18.96.79-37.91,1.52-56.87,2.22-3.54.13-7.09.02-9.97.02Z"/>
  <path class="st0" d="M1425.86,822.74c-2.61-.73-5.45-1.02-7.8-2.25-35.65-18.64-71.25-37.36-106.8-56.17-6.62-3.5-6.98-4.59-4.32-11.95,6.99-19.38,14.07-38.73,21.38-58,.94-2.48,3.34-6.01,5.21-6.1,2.18-.11,5.15,2.59,6.71,4.81,28.22,40.32,56.3,80.74,84.34,121.18,1.24,1.79,1.87,4.01,2.78,6.02-.5.82-1,1.64-1.51,2.45Z"/>
  <path class="st0" d="M344.31,1059.14c3.92-3.73,5.99-6.26,8.58-8.07,39.58-27.64,79.21-55.2,118.9-82.68,2.49-1.72,5.13-5.57,8.62-2.52,3.47,3.03.1,6.16-1.31,8.86-18.21,34.79-36.52,69.54-54.85,104.27-4.56,8.63-5,8.81-13.88,5.6-18.77-6.79-37.51-13.68-56.23-20.62-2.69-1-5.17-2.53-9.81-4.83Z"/>
  <path class="st0" d="M1605.49,1016.64c-2.41-.59-4.56-.51-5.79-1.53-2.27-1.89-4.04-4.4-5.95-6.7-23.63-28.4-47.26-56.81-70.85-85.24-2.51-3.02-4.79-6.23-6.96-9.08,5.41-9.53,46.58-53.6,54.12-57.65,1.36,2.85,3.3,5.51,3.95,8.46,10.59,47.73,21.04,95.49,31.41,143.26.53,2.42.07,5.06.07,8.48Z"/>
  <path class="st0" d="M1126.92,2034.2c2.02-1.3,3.88-3.14,6.09-3.84,38.68-12.13,77.38-24.17,116.12-36.08,7.24-2.23,8.15-1.69,11.48,5.39,8.75,18.65,17.44,37.34,25.9,56.12,1.1,2.44,1.91,6.59.65,8.08-1.38,1.64-5.46,1.88-8.13,1.41-48.1-8.49-96.17-17.15-144.23-25.87-2.46-.45-4.78-1.65-7.17-2.5-.24-.91-.48-1.81-.72-2.72Z"/>
  <path class="st0" d="M1723.82,1102.78c0,5.56.58,9.52-.09,13.26-8.32,46.78-16.81,93.52-25.32,140.26-.55,3.05.23,7.52-4.3,7.83-4.55.31-4.48-4.33-5.38-7.23-11.79-37.73-23.47-75.5-35.09-113.29-2.58-8.39-2.43-8.78,5.06-12.3,18.65-8.75,37.36-17.38,56.1-25.95,2.29-1.05,4.89-1.43,9.03-2.6Z"/>
  <path class="st0" d="M1679.67,1527.36c.98-12.15,1.84-24.03,2.91-35.89,2.51-27.86,5.12-55.72,7.68-83.58.06-.66.08-1.33.15-1.99,1.86-16.41,1.65-13.84,15.27-14.46,18.64-.84,37.28-1.62,55.92-2.42,1.66-.07,3.36-.26,4.98-.02,3.2.48,4.75,2.56,3.85,5.68-.63,2.19-1.83,4.28-3.07,6.22-26.05,40.67-52.15,81.32-78.26,121.95-1.73,2.69-3.1,6.13-9.43,4.51Z"/>
  <path class="st0" d="M448.4,1715.66c1.77,1.63,4.09,3.32,5.87,5.46,25.38,30.42,50.71,60.87,75.98,91.38,5.72,6.9,5.66,7.6-.35,14.18-13.48,14.74-26.97,29.47-40.66,44.01-2.08,2.21-5.27,3.38-7.95,5.03-1.57-2.78-3.91-5.38-4.58-8.36-7.05-31.48-13.85-63.02-20.7-94.55-3.46-15.93-6.92-31.85-10.32-47.79-.66-3.07-2.65-6.51,2.71-9.35Z"/>
  <path class="st0" d="M1003.01,2073.74c0,10.3.05,20.61-.02,30.91-.05,7.33-2.85,9.07-9.25,5.35-6.32-3.67-12.35-7.84-18.51-11.79-34.43-22.09-68.86-44.17-103.28-66.26-2.24-1.44-4.67-2.7-6.56-4.51-.98-.93-1.67-3.19-1.21-4.31.47-1.14,2.56-2.34,3.89-2.28,6.31.26,12.6.88,18.89,1.46,34.76,3.22,69.53,6.45,104.29,9.72,8.12.76,8.64,1.37,9.08,9.81.56,10.63,1.07,21.26,1.6,31.89.36,0,.71,0,1.07,0Z"/>
  <path class="st0" d="M1137.36,1065.78c-30.44-7.32-59.67-14.35-89.78-21.59.58-2,.65-4.46,1.85-6.02,20.71-26.83,41.52-53.59,62.48-80.22,1.43-1.82,4.99-4.02,6.3-3.4,2.15,1.02,4.25,4.05,4.66,6.52,3.23,18.99,6.04,38.05,8.99,57.08,1.83,11.81,3.79,23.61,5.41,35.45.5,3.69.08,7.52.08,12.18Z"/>
  <path class="st0" d="M892.87,1074.2c-27.73,16.95-53.46,32.68-80.27,49.07-.99-2.78-2.24-5-2.54-7.35-4.06-31.71-8.06-63.43-11.87-95.17-.48-4.02-2.7-9.12,2.28-11.81,4.49-2.42,7.32,1.96,10.35,4.17,24.52,17.83,48.95,35.79,73.36,53.76,2.54,1.87,4.85,4.07,8.69,7.33Z"/>
  <path class="st0" d="M806.5,1601.03c25.79,18.79,50.37,36.7,75.8,55.23-2.06,1.84-3.67,3.88-5.77,5.08-28.58,16.33-57.22,32.55-85.88,48.76-1.71.96-3.59,1.88-5.49,2.18-3.09.48-5.29-1.06-5.38-4.31-.06-2.28.45-4.62.99-6.87,7.32-30.03,14.67-60.05,22.1-90.05.75-3.03,2.11-5.91,3.61-10.02Z"/>
  <path class="st0" d="M1260.52,1584.91c18.25-25.15,36.09-49.74,54.62-75.29,1.83,1.99,3.87,3.55,5.05,5.6,16.51,28.85,32.96,57.74,49.21,86.75,1.27,2.27,2.11,6.33.93,7.98-1.17,1.64-5.36,2.26-7.84,1.67-32-7.64-63.93-15.55-95.85-23.5-1.78-.44-3.35-1.72-6.12-3.21Z"/>
  <path class="st0" d="M1244.03,1131.61c-25.57-18.64-49.9-36.37-75.23-54.83,1.96-1.85,3.48-3.92,5.52-5.09,28.85-16.51,57.73-32.97,86.73-49.21,2.26-1.26,5.84-1.85,8.13-.97,3.49,1.33,2.25,4.86,1.52,7.85-7.74,31.63-15.4,63.27-23.19,94.89-.52,2.11-1.87,4.01-3.49,7.37Z"/>
  <path class="st0" d="M1268.18,1153.1c4.36-1.04,7.68-2.16,11.09-2.6,31.66-4.01,63.33-7.92,95-11.82,1.64-.2,3.36-.44,4.94-.13,3.84.74,5.38,3.9,3.7,7.49-.7,1.49-1.8,2.79-2.78,4.13-18.68,25.48-37.35,50.96-56.08,76.4-1.51,2.05-3.44,3.79-6.33,6.92-17.01-26.74-32.29-53.22-49.54-80.39Z"/>
  <path class="st0" d="M1036.71,1687.2c31.25-4.96,60.95-9.68,90.95-14.44,4.06,2.82,1.21,6.49.35,9.66-7.65,28.23-15.47,56.41-23.24,84.6-1.06,3.84-1.79,7.82-3.25,11.51-2.33,5.91-6.36,6.21-10.27,1.01-1-1.32-1.79-2.8-2.66-4.22-15.69-25.88-31.4-51.73-47.01-77.66-1.76-2.92-2.92-6.21-4.87-10.46Z"/>
  <path class="st0" d="M1346.19,1355.17c-4.94-31.2-9.7-61.24-14.57-92,2.39-.15,4.36-.76,6.04-.3,32.44,8.85,64.85,17.84,97.27,26.77,3.27.9,7.32,1.7,6.8,5.81-.3,2.35-2.96,5.02-5.24,6.42-27.25,16.74-54.62,33.29-82.01,49.81-2.15,1.3-4.66,1.98-8.3,3.48Z"/>
  <path class="st0" d="M790.94,1147.46c-18.96,26.02-36.71,50.37-55.16,75.7-1.87-1.99-3.96-3.52-5.14-5.57-16.33-28.56-32.55-57.2-48.77-85.83-.81-1.44-1.7-2.92-2.09-4.49-1.05-4.3,1.44-7.13,5.89-6.68,1.96.2,3.88.9,5.81,1.38,30.01,7.35,60.02,14.67,90.02,22.08,2.74.68,5.35,1.92,9.43,3.41Z"/>
  <path class="st0" d="M1326.09,1478.51c7.5-31.13,14.49-60.16,21.53-89.41,4.22-2.17,6.56,1.62,9.21,3.66,17.41,13.39,34.69,26.95,52.02,40.45,8.14,6.34,16.41,12.52,24.34,19.12,2.06,1.71,4.31,4.71,4.29,7.09-.05,4.21-4.27,4.24-7.56,4.75-31.89,4.89-63.77,9.82-95.68,14.64-2.34.35-4.81-.14-8.15-.28Z"/>
  <path class="st0" d="M704.66,1377.33c5.01,31.47,9.78,61.45,14.76,92.79-3.42-.32-6.63-.16-9.57-.95-30.8-8.36-61.55-16.86-92.31-25.37-2.23-.62-4.67-1.17-6.46-2.51-2.76-2.06-3.37-4.94-.54-7.61,1.19-1.12,2.66-1.99,4.08-2.85,27.57-16.75,55.15-33.49,82.76-50.18,1.65-1,3.53-1.63,7.28-3.32Z"/>
  <path class="st0" d="M1158.59,1658.41c27.15-16.59,53.05-32.42,80.21-49.03,1.01,4.09,2.18,7.4,2.61,10.81,4.01,31.65,7.88,63.31,11.83,94.96.42,3.37,1.19,7.39-2.68,8.58-2.26.69-5.83-.59-7.98-2.15-26.39-19.1-52.63-38.41-78.86-57.72-1.52-1.12-2.64-2.77-5.13-5.45Z"/>
  <path class="st0" d="M913.64,1667.22c30.19,7.24,59.71,14.33,90.42,21.7-1.14,2.47-1.79,4.95-3.23,6.81-20.34,26.28-40.73,52.51-61.32,78.59-1.6,2.03-5.04,4.19-7.13,3.77-1.86-.37-3.96-4.08-4.36-6.57-5.24-32.46-10.22-64.95-15.15-97.46-.27-1.79.39-3.73.77-6.85Z"/>
  <path class="st0" d="M1014.74,1045.67c-31.72,5.02-61.76,9.77-93.25,14.75.56-4.03.65-7.24,1.47-10.24,8.32-30.52,16.74-61.01,25.16-91.5.53-1.92.99-3.93,1.94-5.65,2.18-3.95,5.79-4.22,8.84-.74,1.09,1.24,1.87,2.75,2.73,4.17,16.24,26.78,32.48,53.55,48.67,80.36,1.33,2.2,2.33,4.61,4.44,8.85Z"/>
  <path class="st0" d="M733.19,1499.02c16.83,27.55,32.52,53.24,48.88,80.04-2.02.9-4.1,2.45-6.33,2.74-32.61,4.18-65.25,8.18-97.88,12.22-1.32.16-2.65.33-3.97.29-5.92-.21-7.87-3.28-5.22-8.37.91-1.75,2.24-3.29,3.42-4.9,17.88-24.38,35.74-48.77,53.66-73.13,1.9-2.58,4.11-4.93,7.44-8.89Z"/>
  <path class="st0" d="M703.02,1345.12c-2.85-1.46-5.57-2.36-7.71-4.02-25.81-19.96-51.54-40.04-77.29-60.09-1.05-.82-2.19-1.59-3.03-2.59-3.22-3.86-2.2-7.69,2.81-8.91,5.8-1.41,11.77-2.18,17.69-3.09,25.98-4.02,51.96-8.03,77.96-11.94,3.17-.48,6.43-.39,11.44-.66-7.41,30.9-14.48,60.41-21.88,91.31Z"/>
  <path class="st0" d="M701.94,1087.03c1.16-2.39,1.5-4.26,2.62-5.24,19.74-17.35,39.56-34.62,59.44-51.82.85-.73,2.38-.67,4.57-1.23.81,3.18,1.56,5.91,2.21,8.67,6.34,26.87,12.74,53.73,18.88,80.65.75,3.27,0,6.88-.05,10.33-3.37-.81-7.02-1.06-10.07-2.53-23.09-11.1-46.08-22.41-69.07-33.73-2.85-1.4-5.47-3.25-8.53-5.1Z"/>
  <path class="st0" d="M716.43,1495.06c-23.67,21.19-47.54,42.15-72.54,64.12-2.32-3.59-4.58-5.95-5.54-8.75-7.36-21.39-14.47-42.87-21.67-64.31-.64-1.89-1.51-3.72-1.97-5.65-1.07-4.45.52-6.26,5.11-5.54,10.52,1.65,21,3.51,31.5,5.27,18.71,3.14,37.43,6.23,56.13,9.44,2.77.48,5.46,1.47,8.19,2.22.27,1.07.53,2.13.8,3.2Z"/>
  <path class="st0" d="M890.26,1772.31c-2.56-.55-5.53-.61-7.95-1.8-21.5-10.53-42.92-21.22-64.31-31.96-2.18-1.09-4.05-2.79-7.27-5.05,28.64-20.44,55.85-40.28,84.99-60.83.98,4.45,2.07,6.83,1.92,9.15-1.79,28.88-3.74,57.76-5.72,86.63-.06.92-.75,1.8-1.67,3.86Z"/>
  <path class="st0" d="M718.76,1238.37c-5.37,0-8.23.14-11.08-.02-26.52-1.53-53.05-3.05-79.57-4.72-8.62-.54-10.21-3.32-6.61-10.58,10.33-20.81,20.64-41.63,31.01-62.42,1.26-2.53,2.85-4.89,5.2-8.86,6.72,7.43,11.1,14.71,16.11,21.44,5.15,6.93,10.09,14.02,15.12,21.03,4.84,6.75,9.81,13.4,14.5,20.26,4.78,6.99,10.68,13.31,15.32,23.86Z"/>
  <path class="st0" d="M1135.2,1777.43c-1.53-8.01,12.62-93.34,16.86-101.26,1.62.83,3.68,1.27,4.82,2.55,19.03,21.35,38.01,42.74,56.83,64.27,4.27,4.88,3.18,8.22-3.02,10.32-23.59,8.01-47.21,15.9-70.85,23.75-1.44.48-3.12.26-4.63.36Z"/>
  <path class="st0" d="M744.52,1691.15c-19.68-22.54-38.73-43.87-58.23-66.1,2.99-1.62,4.27-2.7,5.72-3.05,27.83-6.56,55.68-13.03,83.53-19.5,1.62-.38,3.25-.88,4.9-.93,2.19-.07,4.39.24,6.59.38-.2,2.46.29,5.24-.7,7.32-12.09,25.19-24.38,50.28-36.7,75.35-.84,1.7-2.36,3.06-5.09,6.52Z"/>
  <path class="st0" d="M1153.63,1058.15c0-3.97-.16-7.14.02-10.28,1.51-26.21,3.03-52.42,4.66-78.62.55-8.83,3.22-10.49,10.37-6.92,20.8,10.37,41.62,20.72,62.39,31.15,2.73,1.37,5.24,3.16,9.47,5.73-28.06,20.1-54.41,39-80.84,57.79-1.15.82-3.02.61-6.08,1.15Z"/>
  <path class="st0" d="M1332.63,1495.23c4.55-.45,7.09-1.05,9.58-.9,27.23,1.69,54.45,3.42,81.66,5.31,7.92.55,9.16,3.14,5.6,10.26-10.25,20.52-20.45,41.07-30.71,61.58-1.43,2.86-3.1,5.6-5.44,9.78-6.86-7.31-11.13-14.73-16.16-21.5-5.16-6.94-10.13-14.03-15.17-21.05-4.85-6.76-9.83-13.43-14.5-20.31-4.77-7.02-10.85-13.27-14.87-23.18Z"/>
  <path class="st0" d="M691.41,1365.33c-2.81,1.61-4.85,3.22-7.17,4.02-25.73,8.92-51.49,17.78-77.29,26.51-8.04,2.72-10.02.9-9.43-7.78,1.56-23.21,3.05-46.43,4.65-69.63.19-2.77.92-5.51,1.71-10.08,28.8,17.87,56.08,34.77,83.29,51.79,1.5.94,2.39,2.86,4.24,5.16Z"/>
  <path class="st0" d="M1083.58,944.86c-17.94,28.9-34.84,56.2-51.85,83.43-.95,1.52-2.84,2.46-4.86,4.15-1.55-2.42-3.18-4.13-3.88-6.17-9.15-26.39-18.24-52.8-27.16-79.26-2.28-6.76-.15-9.27,6.98-8.78,23.88,1.66,47.76,3.41,71.64,5.18,2.26.17,4.49.7,9.14,1.45Z"/>
  <path class="st0" d="M1364.89,1109.39c-33.44,7.81-64.96,15.22-96.52,22.45-1.6.37-3.54-.74-6.1-1.35,1.06-3.1,1.65-5.62,2.75-7.88,11.62-23.92,23.32-47.81,34.99-71.7.29-.6.56-1.21.88-1.79,3.82-6.85,6.54-7.07,11.77-.86,3.21,3.81,6.26,7.77,9.54,11.51,11.85,13.5,23.8,26.91,35.65,40.41,2.08,2.37,3.84,5.01,7.03,9.22Z"/>
  <path class="st0" d="M1447.06,1422.35c-7.95-1.69-81.62-47.6-87.13-54.39,1.77-1.3,3.32-3.1,5.27-3.78,26.35-9.18,52.73-18.29,79.17-27.23,7.11-2.4,9.86-.45,9.39,6.41-1.68,24.86-3.5,49.71-5.35,74.56-.11,1.52-.89,2.99-1.35,4.43Z"/>
  <path class="st0" d="M968.09,1786.77c2.83-4.51,5.1-8.1,7.35-11.71,13.49-21.73,26.97-43.46,40.45-65.19,1.23-1.97,2.32-4.07,3.79-5.85,2.9-3.51,5.51-3.21,7.59.81.91,1.75,1.43,3.71,2.08,5.59,8.19,23.86,16.41,47.72,24.52,71.61,1.13,3.32,1.73,6.82,2.65,10.54-2.46.9-4,2-5.46,1.91-26.18-1.57-52.36-3.26-78.52-5.04-1.13-.08-2.18-1.27-4.44-2.67Z"/>
  <path class="st0" d="M1260.94,1603.22c3.44,1.15,6.27,1.76,8.8,2.99,23.92,11.61,47.82,23.28,71.66,35.05,8.53,4.21,8.77,6.8,1.99,12.69-17.33,15.03-34.57,30.17-51.9,45.2-2.35,2.04-5.01,3.7-8.96,6.59-7.75-33.1-15.1-64.35-22.32-95.64-.4-1.73.36-3.74.73-6.86Z"/>
  <path class="st0" d="M900.9,1057.11c-3.3-1.03-4.95-1.03-5.68-1.85-20.57-23-41.05-46.08-62.63-70.37,3.74-2.31,6.12-4.45,8.91-5.41,21.68-7.46,43.41-14.74,65.18-21.93,3.15-1.04,6.56-1.29,11.1-2.15-5.76,34.69-11.22,67.58-16.89,101.71Z"/>
  <path class="st0" d="M1437.38,1258.88c-35.44-5.87-68.41-11.32-103.25-17.09,2.2-3.72,3-6.25,4.71-7.77,20.88-18.63,41.82-37.19,62.92-55.58,5.41-4.71,8.25-3.58,10.64,3.53,7.45,22.08,14.87,44.16,22.24,66.26.91,2.73,1.45,5.58,2.75,10.65Z"/>
  <path class="st0" d="M644.47,1731.14c-.28-1.16-1.13-2.58-.79-3.61,9.19-27.79,18.47-55.55,27.89-83.26.57-1.68,2.41-2.94,3.58-4.29,7.6,3.68,52.08,51.26,55.58,59.18-10.22,6.25-78.4,31.63-86.27,31.97Z"/>
  <path class="st0" d="M1038.18,838.99c1.45,2.04,3.19,3.93,4.3,6.14,11.78,23.48,23.46,47.01,35.14,70.55.88,1.78,1.73,3.64,2.15,5.55.78,3.53-.6,5.85-4.42,6.23-1.32.13-2.66.09-3.99.04-20.95-.8-41.89-1.56-62.83-2.47-3.44-.15-6.84-.97-11.61-1.68,13.16-29.07,25.66-56.68,38.16-84.29,1.04-.02,2.07-.04,3.11-.07Z"/>
  <path class="st0" d="M1375.45,1093.51c-9.93-6.73-52.36-53.12-55.46-60.54,7.24-2.94,14.46-5.96,21.75-8.81,7.13-2.79,14.32-5.42,21.49-8.11,7.48-2.8,14.87-5.89,22.48-8.29,6.97-2.2,13.33-7.23,23.16-5.86-9.93,29.45-19.41,57.71-29.06,85.92-.69,2-2.68,3.56-4.35,5.69Z"/>
  <path class="st0" d="M1469.26,1338.2c25.66,11.61,50.1,22.68,74.54,33.74,1.51.69,3.19,1.14,4.51,2.09,1.5,1.08,3.98,2.95,3.74,3.87-.5,1.87-2.45,3.41-3.97,4.92-.67.67-1.74.93-2.64,1.38-22.63,11.25-45.25,22.5-67.89,33.73-1.78.88-3.57,1.84-5.47,2.39-5.34,1.56-7.8.07-7.63-5.52.75-23.6,1.8-47.19,2.84-70.78.07-1.53.98-3.02,1.95-5.81Z"/>
  <path class="st0" d="M639.58,1147.76c-3.04,12.46-29.36,68.53-34.36,73.8-13.58-11.11-59.19-60.37-62.36-67.33,5.68-3.23,67.35-9.17,88.65-8.38,2.71.1,5.38,1.25,8.07,1.91Z"/>
  <path class="st0" d="M1239.46,882.17c.71,5.9,1.34,9.71,1.61,13.56,1.69,24.22,3.42,48.44,4.89,72.68.78,12.88-1.04,14.06-12.41,8.87-18.15-8.28-36.29-16.59-54.4-24.97-3.18-1.47-6.17-3.34-10.64-5.77,12.36-11.69,23.37-22.55,34.87-32.85,11.37-10.18,21.21-22.25,36.07-31.51Z"/>
  <path class="st0" d="M880.76,1786.82c-21.99,23.54-59.63,58.36-68.57,62.95-.74-2.93-1.82-5.52-2.01-8.18-1.91-26.24-3.76-52.48-5.38-78.74-.21-3.36.98-6.8,1.52-10.23,10.1,1.79,67.96,28.47,74.43,34.2Z"/>
  <path class="st0" d="M625.76,1561.8c-8.03,0-15.6.18-23.16-.03-20.59-.58-41.17-1.24-61.75-2.11-2.3-.1-4.54-1.74-6.8-2.67.86-2.04,1.28-4.47,2.65-6.06,17.6-20.36,35.32-40.6,53.06-60.84,1.29-1.47,2.81-3.34,4.5-3.7,1.82-.39,4,.7,5.96,1.35.46.15.74,1.07.97,1.69,8.3,22.41,16.6,44.82,24.78,67.27.49,1.35-.1,3.1-.21,5.11Z"/>
  <path class="st0" d="M829.39,966.93c1.17-30.5,2.29-60.33,3.51-90.14.03-.83,1.06-1.62,2.02-3.02,2.62,1.73,4.92,2.92,6.81,4.56,19.61,17.01,39.16,34.1,58.71,51.18,1.5,1.31,3.06,2.63,4.24,4.2,2.93,3.91,2.4,6.61-2.37,8.42-22.71,8.59-45.51,16.93-68.3,25.29-.82.3-1.92-.17-4.63-.49Z"/>
  <path class="st0" d="M1446.87,1510.69c20.59,22.14,40.7,43.74,60.74,65.41.53.58.27,1.89.42,3.21-1.02.69-2.03,1.94-3.12,2.02-29.17,2.07-58.35,4.05-87.54,5.87-1.74.11-3.57-1.31-5.21-1.97.79-9.26,27.91-68.15,34.71-74.54Z"/>
  <path class="st0" d="M1453.79,1248.44c-6.1-7.95-28.59-68.81-28.68-77.9,30.53,1.61,61.08.94,92.89,3.64-1.36,3.19-1.76,5.48-3.06,7-17.81,20.6-35.7,41.14-53.72,61.56-2.03,2.3-4.94,3.82-7.43,5.7Z"/>
  <path class="st0" d="M691.48,1071.95c-9.64-25.53-19.04-50.39-28.43-75.24-.82-2.18-1.89-4.29-2.47-6.54-1.16-4.45.69-6.35,5.16-5.47,1.3.25,2.53.83,3.79,1.26,24.31,8.16,48.64,16.24,72.89,24.55,3.55,1.21,6.72,3.51,10.09,5.32-5.28,9.32-52.93,53.15-61.03,56.12Z"/>
  <path class="st0" d="M1218.34,1859.56c-4.11-2.07-6.6-2.77-8.36-4.3-20.39-17.63-40.71-35.36-60.94-53.17-2.14-1.88-3.64-4.48-6.16-7.65,8.42-6.13,17.65-7.89,26.08-11.29,8.33-3.35,16.76-6.48,25.25-9.38,8.59-2.93,16.7-7.75,27.1-8.25-.99,31.39-1.95,61.69-2.97,94.04Z"/>
  <path class="st0" d="M580.6,1394.35c-26.86-12.25-53.72-24.49-80.56-36.8-.78-.36-1.22-1.48-2.54-3.17,2.03-1.6,3.76-3.48,5.89-4.55,23.79-11.94,47.63-23.82,71.53-35.55,2.81-1.38,6.07-1.81,10.7-3.13,1.39,28.43-1.68,55.21-1.95,82.07-1.03.37-2.05.74-3.08,1.12Z"/>
  <path class="st0" d="M1298.23,1717.08c5.6-8.94,52.39-52.27,59.62-55.85,6.17,9.57,31.69,77.27,32.37,86.79-2.58-.18-5.17.15-7.41-.59-25.55-8.47-51.07-17.06-76.55-25.77-2.67-.91-5-2.81-8.04-4.58Z"/>
  <path class="st0" d="M1015.31,1895.15c-6.57-5.94-34.39-58.65-42.75-79.59-1.02-2.56-1.2-5.46-2.03-9.4,26.65-1.11,51.77,1.57,76.91,2,1.75.03,3.49,1.25,6.16,2.26-12.78,28.28-25.29,55.96-38.29,84.73Z"/>
  <path class="st0" d="M1145.15,1372.95c5.95-2.93,47.91-4.21,65.26-1.74.27,1.99.95,4.2.8,6.36-.6,8.96-1.65,17.89-2.11,26.85-.22,4.38-1.9,6.16-6.16,5.35-15.67-3.01-31.35-5.92-46.98-9.13-8.9-1.83-9.68-3.15-9.96-11.95-.16-5.21-.56-10.41-.86-15.74Z"/>
  <path class="st0" d="M937.93,1447.93c-15.29,15.54-30.36,30.84-46.41,47.15-9.82-9.29-16.77-20.12-26.06-29.37,1.68-1.87,2.55-3.3,3.82-4.17,12.89-8.87,25.81-17.69,38.79-26.43,8.2-5.52,10.09-5.2,17.17,1.57,3.52,3.37,7.29,6.48,12.69,11.25Z"/>
  <path class="st0" d="M1114.41,1286.23c2.95-6.32,35.18-39.92,45.33-47.05,1.42,1.04,3.23,1.95,4.46,3.36,6.14,7,12.06,14.18,18.18,21.2,2.89,3.31,2.4,5.69-1.19,8.09-13.26,8.88-26.37,17.99-39.66,26.83-7.05,4.69-8.64,4.33-14.7-1.29-4.06-3.77-8.25-7.41-12.43-11.14Z"/>
  <path class="st0" d="M1020.92,1486.02c1.1,21.72.61,43.07.72,65.27-13.5,2.44-25.9-2.61-38.59-1.06-.56-2.67-1.22-3.99-1.01-5.15,2.81-15.32,5.68-30.63,8.67-45.92,2.19-11.19,3.18-11.85,14.28-12.09,4.58-.1,9.15-.59,15.93-1.05Z"/>
  <path class="st0" d="M914.11,1407.88c-20.91,8.86-40.64,17.22-61.22,25.94-1.38-2.95-2.68-5.16-3.48-7.53-2.77-8.19-5.4-16.42-8.02-24.65-1.58-4.97-.76-6.29,4.48-7.39,15.29-3.21,30.57-6.45,45.88-9.56,8.36-1.7,10.38-.55,13.81,7.32,1.06,2.44,1.81,5.03,3.03,7.38,1.19,2.29,2.8,4.36,5.52,8.5Z"/>
  <path class="st0" d="M1075.22,1257.66c8.22-20.28,16.26-40.1,24.51-60.47,2.94.83,5.22,1.12,7.17,2.08,8.05,3.97,15.91,8.31,24.01,12.16,4.1,1.95,4.58,4.36,2.3,7.84-8.94,13.61-17.78,27.3-26.89,40.79-4.2,6.22-6.27,6.51-13.44,3.85-5.21-1.93-10.48-3.71-17.66-6.25Z"/>
  <path class="st0" d="M1195.92,1441.21c-6.25,12.31-11.87,23.38-17.62,34.7-1.8-.3-3.29-.14-4.26-.77-13.36-8.71-26.67-17.49-39.95-26.33-8.86-5.89-9.11-7.09-5.17-17.09,1.67-4.24,2.96-8.64,4.7-13.75,1.3,0,3.37-.55,4.97.08,18.48,7.34,36.89,14.86,57.34,23.15Z"/>
  <path class="st0" d="M949.67,1536.51c-11.6-5.97-22.66-11.66-34.38-17.7,1.5-2.71,2.45-4.7,3.63-6.54,7.76-12,15.55-23.98,23.37-35.94,6.6-10.11,7.79-10.43,18.52-6.19,4.23,1.67,8.61,2.99,12.92,4.47-.05,7.08-15.82,48.15-24.06,61.9Z"/>
  <path class="st0" d="M1092.12,1540.1c-11.68,3.86-23.47,7.76-35.82,11.84-1.02-1.9-2.33-3.44-2.71-5.19-3.21-14.61-6.3-29.26-9.33-43.91-2.43-11.76-1.8-12.7,8.9-17.34,4.18-1.81,8.13-4.14,12.18-6.24,4.86,5.03,22.61,44.96,26.78,60.84Z"/>
  <path class="st0" d="M916.65,1316.7c-20.26-8.2-40.13-16.25-60.62-24.54.83-2.8,1.16-5.04,2.11-6.98,3.96-8.05,8.07-16.03,12.2-23.99,2.42-4.66,3.77-4.98,8.47-1.93,12.84,8.32,25.67,16.66,38.42,25.1,8.17,5.41,8.52,7.11,4.91,16.48-1.76,4.57-3.22,9.26-5.49,15.86Z"/>
  <path class="st0" d="M1137.52,1324.79c20.02-8.5,39.74-16.87,60.62-25.74,6.07,12.04,8.05,24.74,12.99,37.04-2.65,1.05-4.32,1.99-6.1,2.37-14.61,3.18-29.23,6.34-43.88,9.35-10.88,2.23-12.22,1.35-16.6-8.74-1.81-4.18-4.01-8.19-7.02-14.28Z"/>
  <path class="st0" d="M984.26,1254.05c-9.74-18.9-16.7-39.26-25.79-59.05,1.32-1.23,2.29-2.82,3.65-3.3,9.73-3.39,19.52-6.62,29.34-9.74,3.68-1.17,5.5.75,6.23,4.34,3.24,15.97,6.7,31.89,9.84,47.87,1.31,6.68-.09,8.87-6.19,11.77-5.3,2.52-10.61,5.03-17.07,8.1Z"/>
  <path class="st0" d="M1153.21,1501.71c-9.3,7.97-18.75,16.07-28.4,24.34-1.43-.87-2.9-1.28-3.56-2.24-9.22-13.44-18.39-26.92-27.45-40.47-5.35-7.99-5.07-9.28,1.52-16.24,3.58-3.78,6.92-7.8,10.36-11.72,6.44,3.05,40.81,36.25,47.53,46.33Z"/>
  <path class="st0" d="M897.22,1233c2.05-2.44,3.3-4.37,4.96-5.82,6.77-5.91,13.71-11.62,20.49-17.51,3.21-2.79,5.57-2.75,8.09,1.02,8.87,13.28,18.04,26.37,26.9,39.66,4.5,6.75,4.05,8.88-1.39,14.81-3.74,4.07-7.33,8.29-11.77,13.34-16.54-14.07-30.99-30.35-47.27-45.5Z"/>
  <path class="st0" d="M1030.4,1180.51c8.1.6,15.61,1.15,23.11,1.71q15.88,1.19,13.02,16.45c-2.24,12.09-4.32,24.21-6.59,36.29-1.81,9.68-3.3,10.76-13.15,10.99-4.88.11-9.75.58-14.73.89-2.76-5.85-4-46.52-1.67-66.33Z"/>
  <path class="st0" d="M905.67,1361.49c-21.42,1.61-42.86.44-65.07,1.13-.29-3.4-.81-5.94-.65-8.43.54-8.64,1.39-17.26,1.96-25.9.27-4.2,1.83-5.94,6.33-5.04,15.68,3.11,31.42,5.89,47.1,8.98,7.83,1.54,9.14,3.41,9.46,11.49.22,5.55.55,11.11.88,17.77Z"/>
</svg>