<?xml version="1.0" encoding="UTF-8"?>
<svg id="Layer_0_xA0_Image" xmlns="http://www.w3.org/2000/svg" version="1.1" viewBox="0 0 2732 2048">
  <!-- Generator: Adobe Illustrator 30.0.0, SVG Export Plug-In . SVG Version: 2.1.1 Build 123)  -->
  <defs>
    <style>
      .st0 {
        fill: #3a0094;
        stroke: #000;
        stroke-miterlimit: 10;
        stroke-width: .25px;
      }
    </style>
  </defs>
  <path class="st0" d="M2215.82,1414.19l29.2,119.6c-16.48,33.77-40.07,63.95-61.48,94.75l-119.22,17.13c-3.41-9.35-10.57-18.55-18.44-24.54-4.53-3.45-12.9-4.01-13.96-10.18l10.25-125.78,4.91-17.09,128.85-67.25c12.44,8.05,24.26,15.05,39.9,13.36Z"/>
  <path class="st0" d="M384.59,1283.42l-21.58-109.32,69.92-94.3,3.68-1.41c15.49,7.44,29.62,3.91,45.33.54l80.01,94.13,11.55,18.29-43.67,137.5-3.21,2.79c-15.08-.78-24.02,8.42-35.29,16.1l-106.75-64.31Z"/>
  <path class="st0" d="M2209.8,617.8c-17.69-.19-31.38,6.66-44.43,17.89l-118.83-61.13-9.57-8.5-13.15-144.78c12.66-6.16,22.81-17.26,28.12-30.45l120.56,17.67,7.2,4.8,58.26,87.78-28.17,116.72Z"/>
  <path class="st0" d="M1613.54,38.45l60.21,101.01c-6.91,15.28-18.61,27.21-15.94,46.36-47.42,11.92-92.58,32.36-140.59,41.71l-110.94-94.97c3.06-15.03,1.94-27.64-1.99-42.21l97.8-71.27,8.59-.92,102.86,20.3Z"/>
  <path class="st0" d="M527.73,734.27c11.02,40.19,29.53,81.53,39.25,121.75,1.59,6.58,4.66,13.28,2.13,20.08l-89.99,108.06-4.16,1.86c-13.77-3.95-26.27-2.16-39.6,1.72l-75-101.14,20.12-105.11,103.4-64.71c13.13,10.44,25.86,19.13,43.83,17.48Z"/>
  <path class="st0" d="M709.68,1629.69c-11.95,4.42-22.11,15.96-25.99,27.99l-2.68.54c-36.48-7.48-77.55-8.49-113.45-16.77-4.04-.93-8.57-1.15-11.64-4.36l-59.08-90.02,29.02-116.2c9.21-.94,16.5-1.14,25.18-4.82,6.73-2.85,14.69-12.44,19.47-11.77l112.89,57.33,13.53,10.47,12.75,147.62Z"/>
  <path class="st0" d="M1313.72,139.67l-100.73,84.32-13.92,6.14-137.11-43.08c-2.53-15.5-7.56-26.5-17.64-38.41l63.73-105.59,106.87-22.98,98.16,69.94.95,2.9c-8.7,16.26-4.21,30.26-.32,46.75Z"/>
  <path class="st0" d="M1120.48,2009.5l-60.21-100.85c3.36-6.89,9.03-11.95,12.1-19.27,3.04-7.24,4.33-24.22,8.94-27.06l124.58-39.4c13.79-4.83,26.62,10.71,37.06,19.14,29.3,23.65,57.16,49.55,85.95,73.85-3.89,15.49-3.01,27.17,2.21,42.16l-101.03,73.07-109.59-21.63Z"/>
  <path class="st0" d="M701.68,434.32c.53,6.8.64,13.83.31,20.66-1.45,29.47-4.79,64.48-7.99,94.01-.9,8.29-2.14,27.32-7.06,32.94l-126.42,65.78c-4.8.67-13.05-7.58-19.39-9.84-6.81-2.42-14.34-2.33-21.14-4.86l-29.92-119.93,58.96-91.07,119.68-19.8c8.67,13.27,16.5,27.36,32.98,32.1Z"/>
  <path class="st0" d="M1824.48,1694.49l144.53-12.49c5.48.35,5.32,6.63,8.1,9.89,7.54,8.81,15.41,12.69,24.55,19.28l-18.7,120.8-90.9,62.87-116.12-27.78c-3.91-16.74-7.04-31.62-19.73-44.35l59.38-116.1,8.88-12.11Z"/>
  <path class="st0" d="M2241.41,702.26c3.57-.93,6.96,1.94,9.94,3.4,24.51,12.03,65.71,37.68,88.47,53.51,3.14,2.18,6.53,4.02,9.33,6.67l22.45,108.62-71.01,95.27c-16.68-4.19-30.33-5.81-46.62,1.32l-81.93-96.11c-13.14-18.07-10.24-18.19-4.58-38.49,10.79-38.69,26.1-76.4,36.85-115.15l3.07-2.93c13.22-1.84,24.6-6.6,34.03-16.12Z"/>
  <path class="st0" d="M961.91,182.08c-1.06,12.06.82,20.14,6.47,30.53,2.71,4.98,10.01,11.12,9.34,15.89l-67.74,126.48-143,13.08c-4.32-.36-10.18-12.76-14.94-17.11-6.85-6.26-19.47-7.9-18.12-17.84l19.21-116.98,91.95-62.08,116.82,28.02Z"/>
  <path class="st0" d="M925.49,1704.51l65.62,127.39c-2.71,7.52-8.92,12.92-11.21,21-1.54,5.42-1.39,18.29-3.85,20.15l-120.91,28.95-91.29-60.85-17.98-119.94c7.07-2.65,13.68-5.75,19.21-11.13,15.58-15.11,2.96-21.17,31.9-20.06,29.47,1.13,66.47,4.64,96,7.99,11.02,1.25,22.09,2.76,32.51,6.49Z"/>
  <path class="st0" d="M1989.88,327.82c-17.02,4.87-26.57,16.46-33.22,32.26l-127.69-10.06-18.53-4.47-65.65-131.61c8.51-11.33,12.95-23.44,13.46-37.69l119.54-29.3,93.1,61.14,18.98,119.73Z"/>
  <path class="st0" d="M1673.69,1862.32c-.75,16.67,10.86,26.77,16.05,40.22l-61.21,100.99-5.33,4.67-105.48,20.77-96.86-70.92c3.6-10.42,6.38-19.58,4.96-30.9-.78-6.24-6.69-12.39-1.95-18.25l97.12-82.91,12.49-7.62,140.21,43.94Z"/>
  <path class="st0" d="M2206.27,1313.73l-39.36-123.63-1.7-16.19,92.8-111.03c15.67,4.08,26.81,3.22,42.07-1.89l73.57,100.46-20.08,107.1-102.93,63.13c-13.49-11.12-26.35-17.52-44.35-17.95Z"/>
  <path class="st0" d="M910,1676.01l-131.05-11.96c-4.34-23.13-22.34-36.55-44.7-40.3l-12.25-141.74,128.73,2.26c3.9,1.32,6.02,14.71,8.47,19.53,9.82,19.38,24.95,27.27,45.93,30.07l4.87,142.14Z"/>
  <path class="st0" d="M910.01,379.99l-3.9,130.73c-26.64,4.25-45.34,23.46-47.98,50.41l-142.14,6.87,10.33-128.69c1.31-4.03,14.51-7.04,19.55-10.45,12.34-8.36,19.05-22.42,22.6-36.41l141.53-12.47Z"/>
  <path class="st0" d="M2139.98,848l-121.95-52.12c7.6-27.02-3.93-51.87-27.88-65.19l47.87-132.7,116.02,58.98c4.12,3.19.27,8,.71,11.68,2.56,21.61,9.36,31.9,27,44.54l-41.76,134.8Z"/>
  <path class="st0" d="M1389.46,154.25c1.64-.25,3.06-.37,4.47.69l106.03,90.07-93.96,90.14c-22.17-14.78-51-16.78-71,2.8l-104.95-96.94,98.55-83.56,3.55-.51c13.18,8.65,31.22,9.45,45.83,4.05,3.98-1.47,8.02-6.21,11.47-6.73Z"/>
  <path class="st0" d="M1723.82,228.13l64.18,127.85-123.72,45.76c-10.66-23.62-40.5-33.62-64.36-24.59l-57.08-129.25,120.55-39.52c3.97-.06,11.49,10.3,15.94,13.28,13.8,9.25,28.6,10.13,44.49,6.46Z"/>
  <path class="st0" d="M1189.92,252.08l-50.96,120.03c-1.2,1.35-21.13-.56-25.79.06-14.83,1.95-33.09,14.78-37.35,29.69l-133.77-47.94,58.17-117.71c22.33,4.18,43.78-6.03,55.68-25.28l134.01,41.15Z"/>
  <path class="st0" d="M2018.01,1481.99l-10.33,128.69c-1.06,3.05-15.33,7.5-19.55,10.45-10.73,7.51-21.24,23.25-20.13,36.87l-141.99,11.99,1.87-130.77c27.77-5.72,45.58-24.28,49.99-52.36l140.15-4.88Z"/>
  <path class="st0" d="M2036.08,1443.95l-45.2-121.93c22.05-13.69,33.22-38.88,24.05-64.1l127.95-59.85,40.25,125.93c-17.96,11.22-25.15,34.62-19.45,54.84-34.77,19.44-70.15,38.1-105.63,56.22-3.68,1.88-19.38,10.74-21.96,8.9Z"/>
  <path class="st0" d="M2151,888.04l84.7,100.6c-8.64,13.99-10.59,29.86-4.67,45.34,1.56,4.08,6.78,10.18,6.89,13.01.27,7.09-80.52,96.13-90.92,108.99l-88.04-92.09c-2.89-4.82,2.49-7.7,4.06-11.86,8.66-23.02,7.31-41.77-8.54-61.04l96.52-102.94Z"/>
  <path class="st0" d="M715.77,1252.23c-5.67,28.76,4.28,52.36,29.94,66.72l-46.7,125.05-5.64,5.75-111.39-56.73c-3.65-4.1-1.41-13.31-2.49-19.51-2.61-15-11.68-28.49-25.12-35.89l42.85-135.55,118.56,50.15Z"/>
  <path class="st0" d="M1399.28,1712.16l104.62,96.63-95.96,82.24c-6.18,3.62-10.91-2.77-15.95-4.02-19.6-4.87-31.69-1.72-48.72,8.81l-107.12-92.53,91.9-88.38c3.49-1.74,12.95,5.81,18.38,7.67,19.36,6.62,37.64,3.12,52.85-10.41Z"/>
  <path class="st0" d="M590.09,849.94l-38.23-121.02c-.77-6.47,5.79-6.76,9.04-11.02,12.13-15.92,14.11-30.1,11.43-49.59l124.69-64.26,46.98,119.2c.21,5.89-11.27,11.99-15.94,17.81-11.9,14.83-13.41,31.9-8.4,49.78l-129.56,59.1Z"/>
  <path class="st0" d="M1735.68,1811.67c-16.71-.4-31.58,1.01-44.64,12.37-4.52,3.94-9.4,13.55-13.91,13.82l-133.14-41.89,51.91-119.08c3.94-2.72,13.11,1.4,18.99,1.18,18.77-.7,39.08-14.63,46.05-32l132.13,49.89-57.4,115.71Z"/>
  <path class="st0" d="M1955.79,384.22c4.57,23.42,21.84,36.43,44.3,41.1l11.91,140.69-132-2.02c-.35-27.01-23.7-47.92-50-48l-6.02-142,131.8,10.23Z"/>
  <path class="st0" d="M587.27,894.15l89.87,91.89.6,2.59c-17.76,22.87-13.23,47.48,1.96,70.08l-96.43,101.15-82.31-95.97-.68-4.38c11.14-19.52,8.83-40.3-3.63-58.48l90.63-106.87Z"/>
  <path class="st0" d="M1135.8,1672.14l58.2,129.84-121.24,38c-10.77-3.65-15.41-13.69-27.64-18.11-12.26-4.43-21.14-2.62-33.11-2.86-13.59-23.9-26.63-48.46-39.06-72.97-6.54-12.9-19.32-34.11-23.41-46.64-.59-1.81-2.55-3.44-.7-5.49l118.26-45.82c4.19.21,10.23,10.76,15.08,14.73,15.61,12.79,34.78,14.82,53.63,9.32Z"/>
  <path class="st0" d="M1844.32,709.69l-2.05-88.43c5.51-4.73,11.55-5.46,17.78-10.22,7.39-5.66,12.84-14.41,17.97-22.03,7.29-4.39,40.85.89,50.91,1.07,25.02.46,56.29-2.77,80.18-.18,3,.33,4.99.2,6.86,3.08l-51.98,133.98c-17.3,1.5-28.15,10.69-40.91,20.99l-78.74-38.27Z"/>
  <path class="st0" d="M1214.03,1787.99l-57.72-130.55c3.37-7.14,9.19-13.32,10.81-21.33,1.35-6.66-.64-19.77,2.83-23.17l84.65-28.64,62.47,61.66c-6.14,14.81-7.68,31.99-1.72,47.08-24.52,23.75-48.36,48.71-73.31,71.99-5.53,5.16-17.93,17.5-23,21-1.69,1.16-1.97,2.79-5,1.97Z"/>
  <path class="st0" d="M1803.67,1534.32l-1.58,130.78-3.24,6.79-132.9-48.84c-2.9-8.7-2.8-15.99-7.53-24.47-2.47-4.42-13.89-14.85-14.22-15.86-2.43-7.44,34.61-70.98,39.13-82.79l87.34.4c9.23,14.15,15.19,28.52,32.99,34Z"/>
  <path class="st0" d="M2129.92,1177.9c-38.96,15.45-75.84,36.58-114.57,52.45-3.77,1.55-12.57,6.01-15.85,5.32-2.83-.59-6.41-5.14-9.68-6.48-11.88-4.87-20.55-6.07-33.54-5.46l-28.3-84.68,60.09-64.16c2.76-1.36,13.41,4.49,18.94,5.11,9.98,1.13,20.16-.48,29.96-2.12l91.15,93.01,1.82,7.01Z"/>
  <path class="st0" d="M1960.27,832.27c11.8.35,20.77-.49,31.53-5.46,6.12-2.83,10.95-10.35,18.7-8.48l121.46,54.68-98.05,104.08c-16.94-1.97-30.61-2.01-46.5,4.66l-58.93-67.02,31.78-82.46Z"/>
  <path class="st0" d="M1965.68,1328.33l50.31,129.66-143,4.02c-5.18-.99-9.09-11.53-14-16-6.26-5.72-14.63-8.32-22.07-11.93-3.95-5.87,2.23-56.38,3.06-67.1.52-6.71-1.9-19.57,2-24l81.07-34.3c11.56,12.02,25.3,20.46,42.63,19.65Z"/>
  <path class="st0" d="M1475.44,1586.29c9.57-2.61,68.28,27.96,82.56,30.7l2.03,3.97c-1.87,16.11,4.38,30.8,15.41,42l-56.44,125-104.69-97.36c1.33-8.39,2.65-17.06,1.69-25.61-.86-7.71-8.01-17.18-5.08-23l64.52-55.7Z"/>
  <path class="st0" d="M779.8,826.2l27.8,84.53-61.01,62.98c-8.76-.98-16.61-5.51-25.58-5.84-9.43-.34-16.14,3.96-24.95,3.21l-91.99-96.21,5.82-5.97,123.47-56.59c14.17,10.53,28.56,15.33,46.43,13.89Z"/>
  <path class="st0" d="M1805.68,521.69c-14.8,5.48-24.15,19.87-28.91,34.44l-88.78-5.12-35.96-80.06c11.11-14,18.7-26.77,20.99-44.92l126.96-50.02,5.7,145.69Z"/>
  <path class="st0" d="M1176.33,431.68c-.58-8.92-1.17-18.31-4.2-26.81-2.48-6.95-12.49-16.95-11.86-21.39l54.73-123.48,103.1,94.88c4.35,7.55-1.13,17.96.08,27.94.92,7.63,5.65,14.58,7.56,21.91l-67.15,59-82.25-32.06Z"/>
  <path class="st0" d="M768.34,719.67l-48.33-127.66,141.01-6.02c4.7.89,10.47,13.15,16.03,17.97,6.48,5.62,14.39,8.47,22.03,11.96l-7.06,91.11-79.12,32.88c-13.64-11.16-25.91-19.9-44.56-20.23Z"/>
  <path class="st0" d="M1049.79,1498.22l33.64,80.81c-12.27,12.02-20.01,25.46-20.41,43l-129.02,49.97c.31-48.11-6.06-95.99-3.03-144.01,13.69-9.23,22.71-20.51,28.33-36.07l90.48,6.3Z"/>
  <path class="st0" d="M1069.6,426.42c1.17,9.1,3.46,16.99,8.03,24.96,3.96,6.91,9.78,11.08,14.15,17.25l-39.74,78.41c-29.22,5.47-59.2,1.92-88.81,3.09-5.09-15.43-14.83-28.98-30.9-34.44l1.69-139.68,135.58,50.42Z"/>
  <path class="st0" d="M604.01,1177.97l1.97-5c24.9-24.41,46.7-52.08,71-77,4.5-4.62,21.91-23.47,26.14-24.03,4.85-.64,12.57,2.55,19.85,2.06,8.77-.59,16.76-5,25.08-7.07l57.67,66.55-30.64,80.59c-17.55,3.03-32.12,6.05-46.34,17.44l-124.72-53.54Z"/>
  <path class="st0" d="M1519.98,260l59.32,130.99c-12.02,13.55-12.07,29.28-15.26,46.04l-82.93,27.02-62.18-60.12c-1.79-3.97,4.82-17.29,5.16-24.88.43-9.31-2.06-14.95-3.8-23.64l99.68-95.4Z"/>
  <path class="st0" d="M891.67,1429.68c-11.47,3.62-19.97,10.31-27.68,19.31-3.33,3.88-3.38,10.3-8.98,11.02l-135-2.02,49.01-133.97c16.74-4.79,30.25-9.95,41.96-23.48l80.05,39.44.65,89.71Z"/>
  <path class="st0" d="M1689.52,945.51l-261.52,54.47,219.47-149.67,55.67,11.55c.07,14.83,4.01,25.47,12.89,37.11l-26.52,46.54Z"/>
  <path class="st0" d="M1385.69,654.21l32.42,46.67-48.01,250.22-4.08,6.9-52.15-256.98c.56-11.87,25.78-36.01,30.32-48.88,14.5,6.07,26.5,6.89,41.49,2.07Z"/>
  <path class="st0" d="M1320,1072.02l-143.01,219.96-56.99,11.15c-5.94-12.48-13.28-22.57-26.08-28.46l7.94-55.82,218.15-146.83Z"/>
  <path class="st0" d="M1432.01,1025.98c-.31-3.12,5.26-2.72,7.66-3.3,83.17-20.05,168.42-32.59,251.75-52.1l47.97,32.38c-1.66,5.94-5.09,14.24-5.17,20.25-.08,5.45,4.45,14.93,2.84,18.76s-40.72,31.82-46.1,32.17l-258.95-48.15Z"/>
  <path class="st0" d="M1308,999.98l-262.45-50.02c-3.87-8.37-30.88-42.53-29.29-48.55.73-2.76,5.02-4.87,6.63-7.53,5.27-8.72,8.46-17.29,9.46-27.53l54.14-11.99,221.51,145.61Z"/>
  <path class="st0" d="M1302,1025.98l-257.14,52.12c-3.12.67-5.36-.77-8.02-1.95-2.35-1.04-36.34-24.41-37.9-26.1-5.81-6.31.26-11.17,1.06-19.03.92-9.02-2.09-16.52-1.1-25.01l44.16-31.96,252.03,47.85,6.9,4.08Z"/>
  <path class="st0" d="M1392.02,1086l148.94,216.11c1.82,5.07-8.44,55.35-10.85,57-13.69,1.44-26.99,4.48-37.09,14.53l-47.97-29.68-53.03-257.95Z"/>
  <path class="st0" d="M1615.72,746.29c3.68,13.48,15,22.21,26.43,29.01l-10.06,55.79-218.09,146.89,144.55-221.41,57.17-10.28Z"/>
  <path class="st0" d="M1392.02,964l49.78-259.2,47.22-32.29c10.39,10.06,22.28,14.11,36.02,17.46l12.59,54.58-145.61,219.46Z"/>
  <path class="st0" d="M1703.74,1181.73l-55.76,13.46-219.96-145.16,259.9,49.07,31.84,46.28c-8.04,11.51-17.33,20.83-16.01,36.36Z"/>
  <path class="st0" d="M1341.98,1086l-48.47,258.51c-.41,2.19-2.03,3.14-3.56,4.44-4.06,3.42-42.02,27-44.59,26.63-3.31-.48-9.91-7.98-13.95-9.98-7.17-3.55-15.72-3.2-22.39-7.61l-12.62-52.52,145.59-219.46Z"/>
  <path class="st0" d="M1173.53,758.47l148.47,219.51-222.91-146.07-11.02-55.81c14.45-2.87,23.04-14.39,31.1-25.75l54.36,8.12Z"/>
  <path class="st0" d="M1308,1048.02l-220.09,150.98-55.71-11.18c1.88-15.3-6.84-25.65-12.23-38.65l26.58-46.62,261.46-54.52Z"/>
  <path class="st0" d="M1341.98,962l-148.46-216.59,12.44-56.45c15.11.12,24.55-4.78,36.72-12.63l46.94,29.05,52.36,256.62Z"/>
  <path class="st0" d="M1391.68,1395.74c-15.19-4.09-27.75-4.19-43.27-2.16l-30.57-44.53,48.19-259.05,55.77,259.11-30.11,46.63Z"/>
  <path class="st0" d="M1560.55,1289.43l-146.55-217.41,221.79,145.19,9.31,54.81c-5.47,3.88-12.29,6.17-17.17,10.91-4.46,4.34-7.53,14.1-12.96,15.13l-54.42-8.63Z"/>
  <path class="st0" d="M1815.78,1346.21l-4.66,83.91c-2.19,6.53-11.95,7.46-18.11,11.89-2.74,1.97-9.99,9.21-12.06,11.94-6.23,8.23-6.65,21.06-15.84,22.16-24.8,2.95-55.55-2.33-81.01-.22l-13.87-109.69c18.54-3.68,31.77-15.23,39.1-32.35l106.46,12.35Z"/>
  <path class="st0" d="M1045.95,1473.96l-86.62-5.87c-8.43-20.27-20.21-34.69-42.45-39.96l.99-87.26,106.25-14.01c3.96,7.63,6.5,17.35,11.88,24.15,5.36,6.77,21.38,13.09,22.11,18.06l-12.16,104.9Z"/>
  <path class="st0" d="M1937.72,822.31l-30.1,78.3-4.62,3.49-102.91-26.19c1.3-19.57-.27-35.83-15.78-49.2l50.96-94.87,78.83,37.18c1.51,6.97.7,14.12,2.46,21.43,2.66,11.04,10.4,25.07,21.16,29.86Z"/>
  <path class="st0" d="M903.65,730.35l52.19,94.39c-14.11,11.55-23.47,25.9-22.03,45.07l-102.87,29.91-28.93-80.96c-.5-6.5,6.6-9.13,9.94-13.82,10.08-14.2,10.84-25.4,10.39-42.62,23.99-7.13,50.23-24.94,73.67-31.35,2.41-.66,5.3-2,7.64-.62Z"/>
  <path class="st0" d="M1343.3,422.33c14.73,6.65,27.02,8.35,42.8,4.76,6.15-1.4,11.58-7.23,17.85-4.12l57.84,58.31-65.07,86.61c-7.89-1.56-15.58-7.01-23.65-7.95-11.24-1.31-18.7,2.88-29.05,3.17l-65.75-82.49,65.02-58.29Z"/>
  <path class="st0" d="M1905.89,1150.08l27.79,81.3c.35,3.76-9.92,11.01-12.55,14.75-8.8,12.53-9.75,26.78-9.36,41.65l-78.57,31.97-55.1-94.61c14.01-11.3,24-25.81,22.18-44.87l105.61-30.19Z"/>
  <path class="st0" d="M1828.29,1000.34l79.75-63.4c5.95-2.93,12.78,6.61,16.99,11.04,15.55,16.38,28.72,35.39,44.71,51.45-8.64,21.16-9.12,38.09,1.33,58.62l-61.17,61.19-85.01-65.27c-1.66-3.42,6.42-16.73,7.17-22.89,1.37-11.39-1.86-19.99-3.76-30.72Z"/>
  <path class="st0" d="M1247.97,486.09l-28.24,105.65c-20.19-1.8-35.1,3.23-50.36,16.01l-93.2-52.95,37.99-78.69c21.46,4.66,38.97-6.57,53.11-21.7l80.7,31.69Z"/>
  <path class="st0" d="M1338.95,1480.3c17.01,9.56,32.72,12.52,51.08,4.62l67.87,84.08-66.87,58.48c-13.41-7.85-26.83-9.45-41.91-5.36-5.87,1.59-11.82,7.3-17.04,4.95l-59.99-60.07,66.87-86.7Z"/>
  <path class="st0" d="M1177.26,1444.76c1.27.93,1.94,3.55,3.98,4.91,8.83,5.91,19.85,8.99,30.49,8.59l30.03,102.58-80.86,29.05c-11.84-8.25-20.54-17.99-35.9-19.92-5.74-.72-16.26,1.98-20.07-1.93l-32.66-76.79,89.68-54.47c5.64-2.3,10.58,4.48,15.3,7.96Z"/>
  <path class="st0" d="M1621.68,1571.67c-14.12-.22-27.7,1.13-39.55,9.45-5.31,3.73-10.1,13.3-16.94,12.9l-77.02-30.21,27.75-107.01c11.65.43,24.21.17,34.72-5.17,5.07-2.58,10.82-10.04,15.87-9.36l90.62,49.71.03,6.04-35.47,73.65Z"/>
  <path class="st0" d="M823.29,930.31l88.24,66.66c-3.63,6.31-8.66,17.22-9.41,24.25-.99,9.31,5.61,20.71,2.92,26.71l-80.3,65.94c-5.83,1.04-49.25-55.25-57.77-61.93-3.04-6.63,3.89-15.84,4.86-23.1,1.76-13.14-1.59-24.65-7.5-36.21l58.96-62.32Z"/>
  <path class="st0" d="M936.01,1172.01c-3.12,12.96-.27,27.1,6.32,38.66,2.46,4.31,8.5,6.35,7.4,11.84l-49.75,93.49-79-37.97c-.5-18.71-4.78-40.69-22.62-50.4l-.53-2.55,32.07-80.15,106.11,27.09Z"/>
  <path class="st0" d="M1629.68,480.33c7.93,22.89,22.45,46.44,29.84,69.13,1.04,3.18,3.7,7.07,1.56,10.51l-93.97,54.16c-10.35-15.17-24.16-23.52-43.21-23.04-8.83-30.58-22.53-64.15-28.98-95.01-.68-3.25-1.76-6.5-.68-9.83l80.8-27.57c14.68,16.4,32.62,22.88,54.64,21.65Z"/>
  <path class="st0" d="M1052.01,573.99l14,107.97c-18.27,4.53-32.15,14.54-39.35,32.11l-107.81-11.94,5.01-86.93c20.26-5.91,33.44-20.45,40.05-40.29l88.09-.93Z"/>
  <path class="st0" d="M1777.51,582.5c5.23,20.42,20.94,33.07,40.61,38.72l-.23,86.67-106.61,13.87c-6.2-7.42-6.61-17.1-13.29-24.75-5.33-6.1-18.93-10.55-19.99-16l9.99-105.03,89.53,6.51Z"/>
  <path class="st0" d="M1075.78,1222.22l-6.1,47.44c-19.64,3.66-33.34,13.03-41.71,31.31l-99.95,15.03,43.96-83.02c17.95-.76,29.2-.9,43.92-12.08,3.83-2.91,4.23-8.32,9.15-8.99l50.73,10.32Z"/>
  <path class="st0" d="M1884,924.02l-71.82,59.09c-18.56-8.83-38.93-11.34-56.82.59l-42.99-30.67,23.61-40.13c3.53-2.26,11.82,1.33,17,1.26,12.5-.16,25.5-7.29,34.26-15.72l96.76,25.58Z"/>
  <path class="st0" d="M1169.98,734.01l-46.85-8.14c-4.64-8.48-4.9-16.53-11.13-24.87-5.28-7.07-13.27-12.63-21.62-15.39l-12.37-99.61c1.13-1.26,11.09,4.46,13.34,5.64,8.46,4.46,65.97,34.84,67.66,38.34,2.52,5.2.3,14.52,1.17,20.83,1.96,14.33,12.89,21.08,19.86,32.29l-10.06,50.9Z"/>
  <path class="st0" d="M852,918.02l88.72-25.63c15.51,17.86,29.37,23.31,53.26,22.62l27.66,42.01-38.65,30.39c-15.77-11.89-32.96-14.26-51.57-7.75l-79.42-61.64Z"/>
  <path class="st0" d="M1709.65,1206.29c8.68,18.9,26.26,24.33,45.39,27.68l48.97,86.01-93.66-10.31c-5.26-21.02-18.99-34.75-40.01-40.01l-7.47-51.79,46.79-11.59Z"/>
  <path class="st0" d="M1881.99,1131.99l-88.55,23.72c-13.99-15.07-30.19-24.51-51.44-20.59l-27.7-43.82,37.06-28.89c8,2.53,12.81,8.16,21.82,9.42,10.4,1.46,24.31-2.93,31.35-1.5,4.56.92,67.94,49.4,74.44,55.71,1.96,1.9,3.78,2.61,3.03,5.95Z"/>
  <path class="st0" d="M1499.8,599.7c-19.44,9.73-23.11,32.12-22.22,51.9-13.25,4.31-28.11,20.82-39.66,25.41-2.15.85-3.8,1.89-5.93.09l-26.1-36.19c9.23-18.06,13.16-33.54,6.44-53.49l61.64-79.41,25.82,91.7Z"/>
  <path class="st0" d="M1467.98,1542l-59.41-72.97c7.31-11.96,9.34-25.66,6.96-39.55-.9-5.27-7.29-14.55-6.62-17.64.63-2.91,27.85-41.05,30.39-41.53l39.79,23.71c2.19,4.44-1.38,11.17-1.17,16.88.44,12.1,7.58,25.09,15.31,34.04l-25.25,97.06Z"/>
  <path class="st0" d="M1173.97,1317.99l11.84,46.7c-17.44,11.52-24.05,26.41-27.66,46.46l-86.14,48.84,10.96-92.02c12.98-5.16,24.92-11.18,32.32-23.68,2.84-4.8,4.28-13.73,7.86-16.14l50.82-10.16Z"/>
  <path class="st0" d="M1560.13,729.86l-10.24-44.82c6.24-8.33,14.73-12.4,19.74-22.41,4.16-8.3,3.7-15.13,6.57-23.43l85.77-51.2-8.94,92.04c-21.26,7.43-33.36,19.96-41.11,40.89l-51.8,8.93Z"/>
  <path class="st0" d="M1297.96,679.99l-43.8-24.26c6.2-20.47-.81-36.18-12.12-52.8l23.97-94.92,5.62,3.36,54.09,68.06c-9.12,20.66-10.53,36.65-.13,57.26l-27.63,43.3Z"/>
  <path class="st0" d="M1260.01,1539.99l-24.11-90.58c16.5-10.3,25.53-32.3,20.25-51.14l44.88-28.16,28.77,37.3c-1.99,8.62-8.32,14.37-9.62,23.77-1.45,10.46,2.74,22.61,1.84,29.67-.6,4.69-49.64,68.39-56.37,75.79-1.78,1.96-1.8,4.29-5.63,3.35Z"/>
  <path class="st0" d="M1808,734.02l-44.32,81.66c-16.42-.57-31.69,1.62-44.68,12.33-3.92,3.24-5.49,9.66-9.98,10.06l-50.19-11.95,6.94-46.9c19.26-3.65,33.27-13.41,41.54-31.37l100.68-13.81Z"/>
  <path class="st0" d="M1657.99,1463.99l-81.02-43.96c.12-22.44-5.84-38.59-22.64-53.42l9.72-50.57,48.03,6.89c4.22,20.48,15.81,32.24,32.95,43.05l12.97,98.01Z"/>
  <path class="st0" d="M1025.6,740.43c2.75,19.41,18.82,34.67,37.97,38.01l9.86,50.69c-.52,2.88-44.46,15.15-49.03,12.46-7.73-18.13-26.3-22.28-43.84-26.16l-48.53-82.46c-1.52-4.91,9.84-3.13,12.96-2.94,22.53,1.32,51.23,5.05,73.87,8.19,1.78.25,5.9.99,6.74,2.22Z"/>
  <path class="st0" d="M850,1125.98l71.42-59.72c10.51,2.06,18.38,7.86,29.58,7.91,11.57.05,18.96-5.36,29.51-7.83l41.32,28.87-23.73,41.81c-20.56-4.07-35.29.09-51.12,13l-96.97-24.03Z"/>
  <path class="st0" d="M2146,379.98l-90.68-14.3c-5.95-7.28-5.81-15.83-12.52-23.48-6.92-7.89-18.49-13.48-28.33-16.68l-14.45-95.52,145.98,149.98Z"/>
  <path class="st0" d="M2375.99,1117.99l-5.95-3.03-51.83-70.25c3.8-7.38,9.32-17.43,9.6-25.88.38-11.49-6.47-22.23-7.52-33.36l57.68-75.46-1.99,207.99Z"/>
  <path class="st0" d="M735.98,1820l-145.98-149.98,88.68,12.3c6.55,8.42,8.46,19.95,16.33,27.67,6.76,6.63,17.59,10.24,26.08,13.92l14.89,96.09Z"/>
  <path class="st0" d="M2257.97,534l76.02,191.98-78.01-44.97c-3.95-4.4-1.27-15.33-2.15-21.85-1.45-10.75-11.2-27.17-21.62-31.48,7.92-29.91,13.01-61.08,21.74-90.78.85-2.9-1.15-3.49,4.03-2.91Z"/>
  <path class="st0" d="M1462,19.97l-75.01,53.34c-14.13-8.46-25.44-9.97-41.5-6.81-5.57,1.1-11.22,7.02-17.54,4.71l-73.97-56.19,201.09.91,6.92,4.04Z"/>
  <path class="st0" d="M1085.99,1999.99l-191.97-81.97,88.95-22.03c12.8,9.18,19.27,19.12,36.2,21.84,5.48.88,12.88-1.07,17.5.5,2.54.86,25.4,39.12,28.94,45.06,2.33,3.9,21.87,35.14,20.37,36.61Z"/>
  <path class="st0" d="M358.02,1138l2.97-207.99,54.73,73.42c-8.77,20.02-11.98,37.98.29,57.62l-58,76.95Z"/>
  <path class="st0" d="M1859.99,1912.02l-195.99,79.96,49.87-80.95c22.59,5.03,37.34-7.55,53.16-21.04l92.95,22.03Z"/>
  <path class="st0" d="M1070,58.02l-46.84,78.14c-5.11,3.74-15.24,1.09-21.98,2.02-13.9,1.9-22.53,12.85-32.42,21.37l-92.75-21.56,194-79.97Z"/>
  <path class="st0" d="M2260.02,1498l-21.71-90.82c17.04-10.97,25.71-32.23,21.88-51.89l83.79-51.29-83.96,194Z"/>
  <path class="st0" d="M1840,131.98l-89.07,21.27c-13.73-14.95-30.38-26.1-51.57-21.52l-51.35-83.72,191.98,83.98Z"/>
  <path class="st0" d="M1482,2033.98l-209.99-2.97,73.93-54.22c4.59-1.29,13.45,5.69,19.54,6.73,13.23,2.28,26.43-.51,37.87-7.16l78.66,57.62Z"/>
  <path class="st0" d="M473.58,695.59l-81.59,47.39,80.04-190.98c2.98.29,3.11,2.95,3.89,5.08,9.18,24.98,11.32,58.08,20.15,83.93l-1.01,2.96c-18.41,10.89-22.22,31.59-21.49,51.61Z"/>
  <path class="st0" d="M501.6,1420.4c2.38,4.04-18.04,80.05-21.07,91.16-.54,1.99.28,6.16-2.53,3.47l-77.99-193,81.15,47.97c-3.3,16.79.83,31.13,11.8,44.06,2.4,2.82,8.37,5.89,8.64,6.35Z"/>
  <path class="st0" d="M724,246.02l-14.28,91.7c-19.77,4.8-37.42,18.97-39.98,40.02l-95.74,14.24,150-145.96Z"/>
  <path class="st0" d="M2160,1658.02l-147.98,145.98,14.43-93.55c23.4-3.41,32.01-20.44,41.54-39.47l92.02-12.96Z"/>
  <path class="st0" d="M713.46,992.44c33.05-6.79,48.38,40.25,18.32,54.34-39.15,18.36-59.19-45.94-18.32-54.34Z"/>
  <path class="st0" d="M1615.58,398.43c38.02-3.99,43.2,52.49,7.26,57.49-37.38,5.2-45.65-53.46-7.26-57.49Z"/>
  <path class="st0" d="M763.54,1240.39c38.08-5.23,44.86,55.55,5.39,57.69-36.63,1.99-40.88-52.82-5.39-57.69Z"/>
  <path class="st0" d="M1821.5,1456.49c38.45-2.08,40.39,55.59,3.43,57.59-38.49,2.09-39.99-55.62-3.43-57.59Z"/>
  <path class="st0" d="M1107.42,1594.43c46.16-10.46,50.3,59.63,5.59,55.59-32.92-2.98-32.39-49.51-5.59-55.59Z"/>
  <path class="st0" d="M1365.48,348.49c24.76-4.05,43.06,20.26,30.23,42.21-10.58,18.1-37.11,18.87-48.61,1.2-11.23-17.26-1.89-40.1,18.38-43.42Z"/>
  <path class="st0" d="M899.45,1452.47c25.5-5.31,44.52,20.1,32.28,42.26-14.36,26.01-56.57,13.15-53.83-17.73.91-10.3,11.45-22.43,21.55-24.53Z"/>
  <path class="st0" d="M1102.68,445.32c-32.4-32.6,28.09-73.5,46.11-33.12,13.57,30.4-25.68,53.68-46.11,33.12Z"/>
  <path class="st0" d="M765.52,744.43c38.48-5.55,44.99,53.94,7.24,57.47-36.85,3.45-42.13-52.44-7.24-57.47Z"/>
  <path class="st0" d="M1823.52,540.43c40.13-5.8,45.4,56.3,5.3,57.37-35.14.94-39.36-52.45-5.3-57.37Z"/>
  <path class="st0" d="M1607.49,1596.47c31.52-5.03,46.43,38.21,17.57,53.58-39.41,20.98-59.73-46.85-17.57-53.58Z"/>
  <path class="st0" d="M1957.47,1248.48c47.61-8.76,47.03,62.41,1.66,55.38-29.63-4.59-29.83-50.2-1.66-55.38Z"/>
  <path class="st0" d="M911.31,534.69c36.11-1.07,38.58,54.29,3.69,57.4-40.81,3.64-41.36-56.29-3.69-57.4Z"/>
  <path class="st0" d="M1357.47,1644.45c32.58-6.61,49.29,39.17,19.31,53.33-41.43,19.57-57.33-45.62-19.31-53.33Z"/>
  <path class="st0" d="M2035.33,1006.67c27.66,26.96-12.39,67.98-39.42,42.42-27.55-26.05,13.21-67.97,39.42-42.42Z"/>
  <path class="st0" d="M1987.32,758.68c27.68,27.86-13.46,66.96-39.42,42.42-27.74-26.23,13.82-68.19,39.42-42.42Z"/>
  <path class="st0" d="M725.49,1648.41c34.23-6.61,42.74,48.13,7.26,51.49-31.76,3.01-38.56-45.45-7.26-51.49Z"/>
  <path class="st0" d="M1395.32,1916.68c22.69,23.36-14.16,60.98-38.12,35.12-22.38-24.16,14.3-59.65,38.12-35.12Z"/>
  <path class="st0" d="M2271.47,990.45c36.15-7.33,42.79,49.03,7.29,51.48-31.55,2.17-36.38-45.58-7.29-51.48Z"/>
  <path class="st0" d="M521.42,1356.43c44.87-10.28,45.24,57.88,2.04,49.11-25.02-5.08-23.92-44.1-2.04-49.11Z"/>
  <path class="st0" d="M1719.52,1836.43c29.5-4.31,41.25,35.49,15.91,47.99-36.47,17.98-53.44-42.51-15.91-47.99Z"/>
  <path class="st0" d="M521.46,658.44c27.8-2.5,38.85,38.51,13.01,49.03-39.27,15.99-50.65-45.64-13.01-49.03Z"/>
  <path class="st0" d="M711.45,362.47c39.36-8.08,44.46,52.51,3.47,49.64-28.58-2-30.03-44.19-3.47-49.64Z"/>
  <path class="st0" d="M2201.53,642.38c36.84-4.21,38.09,55.73-.31,51.48-28.29-3.13-29.26-48.1.31-51.48Z"/>
  <path class="st0" d="M451.45,1008.47c35.33-7.25,41.15,41.09,16.66,48.64-38.52,11.89-48.94-42.02-16.66-48.64Z"/>
  <path class="st0" d="M1025.46,1842.44c34.47-3.09,36.2,51.99,1.52,51.74-31.21-.22-34.56-48.78-1.52-51.74Z"/>
  <path class="st0" d="M2011.46,1636.45c29.93-6.15,43.37,36.18,16.33,48.32-35.73,16.04-51.2-41.16-16.33-48.32Z"/>
  <path class="st0" d="M2229.32,1383.32c-24.03,24.03-61.34-16.03-35.17-38.17,25.6-21.66,58.36,14.98,35.17,38.17Z"/>
  <path class="st0" d="M1688.68,162.67c22.02-23.04,61.78,9.94,37.37,36.37-21.63,23.42-60.93-11.71-37.37-36.37Z"/>
  <path class="st0" d="M1349.49,90.5c41.56-10.66,46.6,48.97,9.51,49.66-31.3.58-32.64-43.73-9.51-49.66Z"/>
  <path class="st0" d="M1029.32,168.68c24.69,24.68-14.54,60.78-37.36,36.36-21.93-23.45,14.18-59.55,37.36-36.36Z"/>
  <path class="st0" d="M1997.45,350.47c11.21-2.31,20.92.03,27.63,9.46,12.8,17.98-.18,41.43-22.13,40.22-30.2-1.66-30.07-44.6-5.49-49.68Z"/>
  <path class="st0" d="M1521.46,1384.45c28.35-5.83,42.1,33.15,17.93,45.94-35.32,18.69-52.52-38.83-17.93-45.94Z"/>
  <path class="st0" d="M947.54,1000.39c37.2-5.08,37.12,54.52-.03,49.17-27.98-4.04-27.59-45.39.03-49.17Z"/>
  <path class="st0" d="M1190.53,1427.47c-11.22-11.22-7.66-33.6,7.45-40.47,25.66-11.67,46.88,19.95,29.12,39.11-8.72,9.41-27.64,10.3-36.57,1.37Z"/>
  <path class="st0" d="M1067.48,706.47c35.94-6.27,40.69,46.81,7.02,49.04-31.04,2.06-35.4-44.09-7.02-49.04Z"/>
  <path class="st0" d="M1069.52,1294.38c25.29-3.75,40.25,30.9,17.14,45.28-35.37,22.01-54.43-39.76-17.14-45.28Z"/>
  <path class="st0" d="M1775.41,1000.43c35.99-8.29,43.92,39.46,16.65,46.62-37.91,9.96-42.29-40.71-16.65-46.62Z"/>
  <path class="st0" d="M1655.45,1294.47c38.91-7.94,40.9,50.33,5.84,48.81-29.8-1.29-30.94-43.69-5.84-48.81Z"/>
  <path class="st0" d="M1653.41,706.43c40.22-9.28,44.73,49.78,5.54,47.71-27.93-1.47-28.61-42.39-5.54-47.71Z"/>
  <path class="st0" d="M1361.47,584.48c35.93-6.55,41.42,46.23,6.83,48.42-30.83,1.95-35.13-43.26-6.83-48.42Z"/>
  <path class="st0" d="M1206.97,614.95c30.86-.84,32.59,44.92,7.93,48.93-41.12,6.68-39.83-48.06-7.93-48.93Z"/>
  <path class="st0" d="M1747.5,840.42c26.27-4.35,40.56,31.5,17.2,45.28-34.76,20.5-53.58-39.26-17.2-45.28Z"/>
  <path class="st0" d="M1734.67,1201.32c-20.78-19.85,5.93-56.85,32.34-37.34,27.01,19.95-7.08,61.48-32.34,37.34Z"/>
  <path class="st0" d="M1543.38,620.62c2.97,2.62,6.16,10.13,6.67,14.32,5.08,41.84-57.59,36.91-47.1-3.01,4.23-16.08,28.95-21.46,40.43-11.31Z"/>
  <path class="st0" d="M975.45,842.47c38.96-8.04,42.85,46.96,7.55,47.69-29.22.6-33.59-42.31-7.55-47.69Z"/>
  <path class="st0" d="M1385.33,1422.68c20.78,19.84-5.92,56.86-32.34,37.34-27.3-20.16,7.52-61.05,32.34-37.34Z"/>
  <path class="st0" d="M975.41,1160.43c38.47-8.86,45.16,49.8,5.54,47.71-28.28-1.5-28.6-42.4-5.54-47.71Z"/>
</svg>