<?xml version="1.0" encoding="UTF-8"?>
<svg id="Layer_0_xA0_Image" xmlns="http://www.w3.org/2000/svg" version="1.1" viewBox="0 0 2048 2732">
  <!-- Generator: Adobe Illustrator 30.2.1, SVG Export Plug-In . SVG Version: 2.1.1 Build 1)  -->
  <defs>
    <style>
      .st0 {
        fill: #5b6987;
      }
    </style>
  </defs>
  <path class="st0" d="M2035.63,2485.26c-5.74,19.79-71.47,170.47-77.33,176.7-70.83-45.07-141.86-90.28-213.9-136.13-10.57,21.31-20.87,42.07-31.73,63.96,49.08,25.78,97.57,51.24,146.67,77.03,7.26-13.6,14.09-26.38,21.57-40.38,28.04,17.32,54.1,34.95,81.54,52.07-6.35,13.39-12.39,26.66-19.07,39.59-.91,1.77-5.04,2.68-7.66,2.64-15.33-.22-30.65-.76-45.98-1.34-44.96-1.68-89.92-3.47-134.89-5.13-91.59-3.37-183.19-6.69-274.79-10.01-22.65-.82-45.3-1.54-67.95-2.41-3.11-.12-6.2-.89-10.42-1.53,1.65-4.38,2.67-7.46,3.95-10.44,14.74-34.27,29.75-68.43,44.13-102.85,3.56-8.52,5.33-17.82,7.56-26.85,33.75-137.11,67.45-274.24,101.12-411.37,1.08-4.41,1.77-8.91,2.73-13.85,1.44.35,2.92.31,3.86,1,156.82,116.34,313.6,232.74,470.58,349.28Z"/>
  <path class="st0" d="M1090.43,2212.24c3.55-3.26,6.55-6.23,9.76-8.93,101.02-84.9,202.03-169.82,303.17-254.58,7.04-5.9,12.43-12.57,16.65-20.75,33.74-65.42,67.73-130.72,101.69-196.03,2.63-5.06,4.32-10.1,4.85-15.96,1.39-15.25,3.71-30.41,5.71-45.6.17-1.26.77-2.45,1.5-4.66,5.44,1.97,10.92,3.25,15.6,5.94,2.43,1.39,3.96,5.08,5,8.05,12.06,34.23,23.92,68.53,35.92,102.79,1.42,4.05,3.68,7.83,4.89,11.93.9,3.05,1.33,6.47.98,9.62-2.85,25.82-5.9,51.62-8.95,77.42-5.02,42.34-10.11,84.66-15.13,127-1.14,9.59-1.42,19.33-3.32,28.76-2.48,12.32-6.16,24.39-9.33,36.57-42.52,163.36-85.02,326.73-127.66,490.06-.94,3.6-2.62,8.54-5.35,9.78-4.45,2.02-6.41-3.59-8.84-6.43-91.77-107.43-183.46-214.93-275.12-322.46-3.5-4.1-7.32-7.26-12.31-9.71-11.95-5.86-23.47-12.6-35.13-19.06-1.36-.75-2.45-1.99-4.57-3.75Z"/>
  <path class="st0" d="M716.38,2695.68H246.2c3.67-6.52,1.71-12.36.4-18.34-6.32-28.95-11.85-58.09-19.1-86.8-2.47-9.78-.12-13.72,7.68-19.34,50.26-36.24,99.99-73.21,149.75-110.14,4.72-3.51,8.34-8.47,12.6-12.64,90.69-88.83,181.4-177.65,272.14-266.43,2.42-2.37,5.25-4.33,9.8-8.05.3,6.48.62,10.32.64,14.16.49,89.63.89,179.26,1.56,268.88.05,6.16,1.35,12.58,3.42,18.4,7.66,21.65,15.97,43.08,23.83,64.67,1.45,3.99,2.57,8.32,2.73,12.54,1.69,47.24,3.16,94.49,4.74,143.09Z"/>
  <path class="st0" d="M2003.16,2243.71c-37.64,31.02-74.8,61.64-112.92,93.05-103.22-76.22-206.84-152.72-309.76-228.71,1.25-5.1,2.73-9.02,3.12-13.04,6.01-62,11.9-124.01,17.76-186.02,4.33-45.76,8.55-91.54,12.87-137.3.58-6.16,1.41-12.3,2.16-18.75,5.71.08,7.17,3.94,9.3,6.55,14.1,17.31,27.99,34.79,42.14,52.05,2.47,3.02,5.86,5.28,8.76,7.95,17.65,16.25,40.39,23.67,60.95,34.84,20.77,11.29,42.03,21.68,63.07,32.46,11.26,5.77,22.38,11.86,33.86,17.17,7.88,3.65,12.77,8.73,16.49,17,15.44,34.31,31.96,68.14,48.08,102.15,33.52,70.72,67.05,141.44,100.55,212.17,1.41,2.98,2.59,6.07,3.58,8.41Z"/>
  <path class="st0" d="M765.16,2598.2c-5.54-.87-6.39-5.78-7.82-10.07-7.66-23.06-15.27-46.14-22.85-69.23-8.63-26.25-17.33-52.48-25.73-78.8-1.59-4.99-2.62-10.35-2.78-15.57-3.24-103.89-6.34-207.79-9.4-311.69-1.08-36.63-1.97-73.27-2.96-109.9-.27-9.89-.32-19.57-4.31-29.19-2.79-6.74-2.84-14.39-1.08-22.3,2.36-10.64,2.38-21.81,3.22-32.77,2.45-32.21,4.79-64.44,7.23-96.65.14-1.8.86-3.56,1.78-7.22,2.16,3.21,3.7,4.79,4.44,6.69,18.29,47.19,36.4,94.44,54.77,141.59,3.86,9.9,7.89,19.88,13.21,29.03,3.18,5.46,8.65,9.83,13.72,13.91,79.72,64.08,159.54,128.03,239.32,192.02,2.75,2.2,5.31,4.64,8.66,7.58-3.71,2.52-6.37,4.36-9.07,6.14-34.45,22.79-68.83,45.68-103.42,68.26-5.09,3.33-8.02,7.3-9.77,13.04-9.23,30.25-18.88,60.36-28.14,90.6-3.12,10.19-7.19,19.75-12.54,29.07-35.33,61.49-70.22,123.24-105.27,184.88-.13.23-.58.29-1.2.57Z"/>
  <path class="st0" d="M673.17,1952.47c2.49,6.65,8.33,188.89,6.78,204.18-18.38,15.58-37.08,29.61-53.68,45.8-80.62,78.61-160.67,157.8-240.93,236.77-1.62,1.59-3.41,3.01-5.73,5.05-35.02-33.59-69.72-66.88-104.18-99.94,53.98-61.29,107.14-121.78,160.51-182.08,7.68-8.67,16.01-16.84,24.66-24.55,66.66-59.39,133.46-118.62,200.29-177.82,3.57-3.17,6.55-7.74,12.29-7.4Z"/>
  <path class="st0" d="M1146.38,298.57c1.51,2.86,2.93,5.77,4.53,8.58,13.68,24.03,27.42,48.02,41.03,72.09,1.11,1.97,1.33,4.44,1.97,6.68-.6.29-1.19.58-1.79.87-30.7-27.74-61.41-55.48-92.11-83.22l-1.36.82c.67,1.96,1.17,4.01,2.05,5.88,12.28,26.23,24.63,52.42,36.83,78.68.68,1.46.09,3.5.09,7.05-39.96-35.94-78.62-70.71-117.13-105.35,3.51-8.02,3.79-8.31,9.79-5.71,7.86,3.41,15.58,7.15,25.66,11.81-2.52-4.2-3.62-6.41-5.05-8.37-14.33-19.65-28.83-39.19-43.01-58.95-2.87-4-5.46-8.55-6.74-13.24-1.46-5.38-4.68-8.37-9.03-11.17-34.74-22.37-69.4-44.87-104.08-67.33-11.47-7.43-22.96-14.81-34.39-22.3-2.34-1.53-4.4-3.48-8.33-6.64,4.06-.61,5.92-1.4,7.48-1,2.87.73,5.6,2.09,8.34,3.3,54.29,23.82,108.58,47.67,162.88,71.48,2.94,1.29,5.98,2.36,10,1.93-34.13-31.95-68.26-63.9-104.1-97.45,3.99-.99,6.05-2.2,7.59-1.73,2.8.87,5.32,2.7,7.91,4.21,37.14,21.63,74.28,43.27,111.42,64.9,2.87,1.67,5.77,3.28,9.35,4.36-3.81-7.49-9.43-13.7-14.51-20.26-5.51-7.11-10.84-14.41-16.83-21.09-5.67-6.32-12.09-11.97-18.69-18.4,2.33-1.31,4.49-2.52,7.01-3.93,15.1,17.32,35.56,26.54,53.34,39.56.58-.51,1.17-1.01,1.75-1.52-1.87-2.84-3.49-5.89-5.67-8.46-2.08-2.45-4.74-4.4-7.42-6.81,2.46-3.82,4.54-4.87,8.15-1.88,4.06,3.37,8.38,6.53,12.92,9.2,34.45,20.29,68.97,40.46,103.52,60.59,3.91,2.28,7.46,5.43,12.77,4.73,1.9-.25,4.22,1.67,6.15,2.91,5.87,3.8,11.55,7.89,17.47,11.6,3.23,2.02,6.8,3.5,11.16,3.56-2.72-2.27-5.4-4.57-8.15-6.8-30.59-24.72-61.15-49.47-91.82-74.09-4.3-3.45-7.72-7.16-8.53-14.3,4.15,1.04,7.92,1.61,11.42,2.91,45.27,16.82,90.5,33.75,135.74,50.64,3.69,1.38,7.4,2.69,12.7,4.61-4.39-9.83-10.36-16.79-15.27-24.36-5.03-7.75-10.36-15.3-15.46-22.8,3.05-3.76,5.15-1.64,7.25-.16,13.36,9.39,26.71,18.79,40.06,28.2,12.76,8.99,25.51,17.98,38.83,27.36-4.77,10.79-8.98,21.27-14.01,31.33-3.28,6.56-3.21,11.86.53,18.46,13.95,24.64,27.03,49.77,40.86,74.48,2.86,5.12,2.94,8.89-.32,13.61-4.35,6.3-8.01,13.06-12.11,19.54-4.37,6.9-9.51,7.56-15.18,1.7-5.56-5.75-10.74-11.86-16.1-17.79-4.67-5.17-9.37-10.32-15.22-14.92.59,1.93.97,3.96,1.81,5.78,4.48,9.67,9.18,19.24,13.57,28.95,1.41,3.11,2.13,6.52,2.24,10.67-33.77-12.22-66.13-26.56-101.09-40.71,1.91,3.74,2.64,5.7,3.81,7.35,9.62,13.61,19.34,27.14,28.96,40.74,1.81,2.56,3.31,5.34,4.95,8.01-.49.68-.98,1.36-1.48,2.05-2.6-.76-5.35-1.19-7.77-2.33-9.94-4.69-19.72-9.72-29.68-14.37-3.73-1.74-7.05-4.54-12.08-3.18-1.99.54-5.2-2.32-7.47-4.11-17.04-13.38-33.98-26.89-50.96-40.33-3.11-2.46-6.31-4.83-9.46-7.23-.49.37-.97.74-1.46,1.11Z"/>
  <path class="st0" d="M1082.17,375.77c-9.8-2.32-18.56-7.56-27.82-11.36-9.53-3.91-18.92-8.13-29.72-12.79.84,3.17,1.11,5.26,1.92,7.11,3.21,7.32,6.67,14.52,9.86,21.85.96,2.2,1.32,4.66,2.4,8.69-9.35-3.86-14.69-9.91-20.96-14.55-6.43-4.75-12.58-9.86-18.86-14.82-6.27-4.96-12.54-9.92-18.82-14.88-6.27-4.96-12.55-9.92-18.83-14.87-6.25-4.93-12.51-9.84-19.97-14.06.8,1.83,1.4,3.78,2.42,5.48,9.27,15.41,18.68,30.74,27.88,46.19,1.53,2.57,4.77,5.03,1.86,9.72-3.38-2.82-6.51-5.47-9.69-8.06-29.2-23.77-58.79-47.07-87.4-71.53-9.81-8.39-19.11-8.47-30.74-5.22,12.38,24.78,27,47.71,38.79,72.17-5.85,3.71-8.24-.42-10.9-2.99-13.19-12.72-26.28-25.55-39.4-38.33-17.9-17.44-36.03-34.64-53.58-52.43-5.32-5.4-11.07-7.82-18.29-8.51-29.18-2.78-58.33-5.76-87.49-8.68-21.54-2.15-43.08-4.28-64.62-6.49-3.54-.36-7.03-1.14-10.51-1.72-.68-7.27,4.58-6.6,7.94-7.31,14.33-3.02,28.74-5.66,43.12-8.46,13.72-2.67,27.45-5.34,41.15-8.11,2.14-.43,4.17-1.41,6.06-2.88-24.26,1.13-48.52,2.24-72.78,3.39-5.03.24-9.99.46-13.67-6.21,24.25-8.12,48.67-14.12,72.77-21.12,23.9-6.94,47.88-13.61,71.95-22.02-2.52-.93-5-2.02-7.57-2.77-21.11-6.1-42.24-12.11-63.34-18.23-2.26-.66-4.35-1.89-6.52-2.85.06-.69.11-1.38.17-2.08,2.63-.97,5.22-2.09,7.91-2.9,20.09-6.02,40.2-11.98,60.3-17.96.64-.19,1.41-.15,1.92-.51,8.64-5.93,16.13-3.12,24.45,1.71,13.51,7.85,27.75,14.46,41.71,21.55,2.29,1.16,4.7,2.09,7.67,2.55-7.18-12.61-16.76-23.55-25.21-36.56,3.1-.4,4.24-.94,4.89-.58,48.66,26.22,97.25,52.56,145.93,78.73,7.09,3.81,12.9,8.29,17.78,15.09,12.03,16.77,25.24,32.69,37.95,48.98,2.38,3.05,5.65,5.9,2.34,11.79-32.5-17.56-64.39-35.79-97.36-52.37,28.36,26.79,57.57,52.49,86.7,78.27,29.31,25.94,58.63,51.88,87.94,77.82-.58,1.04-1.17,2.08-1.75,3.12Z"/>
  <path class="st0" d="M1148.4,2489.54h-147.74c-.16-2.55-.48-4.75-.41-6.94.53-16.32.97-32.64,1.81-48.95.28-5.37-1.33-9.51-4.57-13.68-23.91-30.79-47.55-61.79-71.55-92.51-3.77-4.83-4.29-9.58-4.74-15.44-1.09-14.27,5.51-22.08,17.14-29.3,28.85-17.93,56.89-37.17,85.13-56.06,4.59-3.07,9.23-4.78,14.77-5.11,10.97-.66,21.92-1.74,32.84-2.98,4.29-.49,7.44.47,10.82,3.36,27.36,23.38,54.93,46.51,82.4,69.76,7.39,6.25,7.46,6.65,2.99,14.95-8.84,16.42-17.42,33.01-26.85,49.09-4.16,7.1-5.13,13.95-4.11,21.83,4.3,33.36,8.36,66.76,12.35,100.16.44,3.69-.15,7.51-.27,11.82Z"/>
  <path class="st0" d="M1687.92,352.14c-19.23-17.79-37.49-34.68-55.75-51.57.18-.39.36-.77.54-1.16.7,1.81,1.19,3.75,2.15,5.42,6.5,11.25,13.25,22.36,19.57,33.72,1.47,2.64,1.47,6.06,2.35,9.05.82,2.79,1.64,5.64,2.95,8.22,9.99,19.58,20.1,39.09,30.14,58.64.26.5.03,1.25.03,3.38-8.44-1.12-15.5-5.42-22.97-8.15-7.47-2.73-14.78-5.91-24.37-9.78,5.18,8.84,11.1,14.36,16.15,20.51,5.07,6.18,10.38,12.17,15.57,18.26,5.37,6.29,10.72,12.59,15.91,18.71-5.92,12.65-20.8,9.58-28.65,19.4-21.7-14.27-43.26-28.44-66.67-43.84,1.41,11.39,2.46,20.79,3.76,30.15,2.94,21.12,6.06,42.2,8.96,63.33.61,4.46,2.19,9.38-3.86,13.32-8.77-6.53-15.35-15.73-23.1-23.69-7.56-7.76-14.79-15.84-22.16-23.77-.59.37-1.17.73-1.76,1.1,5.81,28.54,11.61,57.09,17.42,85.63-.64.45-1.28.9-1.91,1.35-2.08-1.69-4.39-3.16-6.19-5.11-9.73-10.53-19.36-21.14-28.94-31.8-2.18-2.43-4.05-5.15-6.06-7.73-.89.41-1.79.83-2.68,1.24.49,10.71,1.17,21.41,1.42,32.12.25,10.5.05,21.02.05,33.59-3.79-3.14-6.75-5.02-8.99-7.55-7.46-8.43-14.69-17.07-21.92-25.7-1.05-1.25-1.56-2.93-2.41-4.36-3.87-6.53-7.93-12.95-11.58-19.6-1.42-2.58-2.06-5.61-2.85-8.5-4.74-17.35-9.54-34.68-14.07-52.09-1.54-5.92-4.14-11.05-7.89-15.9-15.5-20.04-30.68-40.31-46.14-60.38-3.36-4.36-5.37-8.43-.48-14.26,9.37,3.24,17.45,9.65,26.22,14.64,8.69,4.94,17.16,10.25,25.74,15.39,8.78,5.26,17.58,10.51,28,14.52-10.99-24.65-21.98-49.31-33.75-75.72,29.47-.74,57.19-.73,85.45-1.03-2.13-24.01-7.74-46.6-9.35-70.44,14.99,3.54,28.83,6.81,43.75,10.34,8.39-20.71,16.69-41.18,25.78-63.62,28.92,37.05,55.6,73.48,83.1,109.28.53.69-.25,2.38-.52,4.41Z"/>
  <path class="st0" d="M982.68,2696.95c5.54-11.54,9.82-21.21,14.78-30.52,2.77-5.2,3.84-10.44,3.88-16.21.2-25.66.48-51.32.9-76.98.24-14.95.84-29.9,1.19-44.85.14-5.91.02-11.82.02-18.8,2.36-.31,5.18-.95,8.01-1.01,46.65-.9,93.31-1.63,139.95-2.67,6.05-.13,9.65,1.73,12.7,7.11,17.57,31.02,35.61,61.77,53.18,92.78,2.37,4.18,3.78,9.25,4.36,14.06,3.08,25.46,5.73,50.98,8.61,76.47.33,2.91,1.16,5.76,2.08,10.13-27.83.61-55.16-1.78-82.5-2.65-27.31-.87-54.6-2.35-81.9-3.48-27.55-1.14-55.1-2.19-85.25-3.39Z"/>
  <path class="st0" d="M1541.4,768.36c-7.24-7.71-10.96-15.87-13.1-25.06-6.63-28.53-15.02-56.72-20.28-85.48-3.48-19.02-11.53-35.65-19.4-52.68-2.78-6.02-2.74-6.04.97-12.65,19.4,12.13,37.09,26.67,57.68,40.19.58-7.86,1.06-14.55,1.57-21.23.52-6.91,1.07-13.82,1.57-20.21,4.79-3.06,6.88.21,9.16,2.42,10.03,9.76,19.95,19.62,29.96,29.4,2.29,2.24,4.77,4.3,8.97,8.07-5.46-31.44-10.5-60.43-15.59-89.7,5.1-1.38,6.52,2.35,8.49,4.53,13.22,14.55,26.29,29.23,39.45,43.83,2.18,2.42,4.56,4.67,8.55,8.74-.81-11.1-1.44-20.08-2.14-29.05-.34-4.32-1.09-8.61-1.18-12.93-.3-14.53-4.69-28.35-9.88-41.41-3.93-9.88-3.44-17.76,1.14-26.37,1.37-2.57,2.75-5.13,4.72-8.79,14.98,10.15,26.3,23.34,40.78,33.71,3.62-8.8,6.96-16.92,10.8-26.26,2.03,2.13,3.28,3.04,4.01,4.26,18.26,30.58,36.44,61.2,54.7,91.78,3.54,5.94,3.65,5.87.86,12.18-8.61-4.97-17.14-9.89-27.01-15.58,2.5,8.56,7.58,14.21,11.17,20.61,3.53,6.28,7.34,12.41,10.93,18.44-4.32,4.84-7.73,3-11.15.56-6.51-4.64-13.01-9.3-19.55-13.89-1.75-1.22-3.65-2.22-6.53-2.23,7.73,11.31,15.46,22.62,23.46,34.33-6.25,3.39-9.09-1.21-12.62-2.82-3.89-1.78-7.49-4.2-12.78-5.43,3.11,7.44,6.14,14.91,9.36,22.3,3.12,7.18,6.42,14.28,10.16,22.56-10.36-.85-13.42-10.77-22.19-13.53,6.9,21.13,16.54,40.66,23.64,63.6-13.16-3.23-21-11.57-31.79-15.56.76,8.33,4.97,15.07,7.63,22.27,2.89,7.8,6.17,15.46,9.25,23.19,2.88,7.23,5.71,14.47,9.26,23.48-9.47-2.6-12.06-9.61-16.66-14.21-4.87-4.87-9.21-10.27-14.41-15.07,2.25,20.41,8.38,39.91,11.08,61.17-6.77-2.05-10.02-5.18-12.2-10.01-15.67-34.67-36.84-66.31-54.95-99.64-1.05-1.93-2.69-3.53-4.68-5.03,2.71,18.9,9.27,36.94,10.38,56.27-20.46-17.67-40.92-35.34-61.58-53.19-2.66,8.16-1.82,18.95,2.23,29.53-9.18,1.96-16.27-5.56-25.69-4.92-3.3,14.74-.6,30.87-6.56,45.54Z"/>
  <path class="st0" d="M1521.84,340.19c-31.46-9.2-61.19-21.35-92.01-31.93-1.53,4.02.19,7.4.97,10.67,4.8,20.07,9.8,40.1,14.72,60.14.64,2.59,1.45,5.16,1.77,7.79.52,4.24-2.11,6.27-6.11,4.72-1.83-.71-3.47-1.96-5.14-3.04-16.51-10.66-33.03-21.3-49.51-32.01-7.63-4.96-8.07-5.9-5.53-14.7,3.32-11.51,6.73-23,10.47-34.39,1.79-5.44,2.13-10.27-2.06-14.72-11.44-12.13-14.24-26.62-13.88-42.99.48-21.95-1.12-43.95-1.78-65.92-.11-3.64-.02-7.28-.02-10.45,4.29-4.2,7.58-2.4,11,.3,5.97,4.7,12.08,9.23,19.58,14.92,2.03-14.16,3.85-26.79,5.87-40.83,8.97,5.3,15.43,13.23,22.95,19.77,7.49,6.51,14.69,13.36,22.77,20.74,7.29-9.77,14.12-18.91,21.72-29.11,4.17,7.38,3.47,13.76,3.98,19.79,1.29,15.34-1.75,11.87,13.31,18.35,27.22,11.71,54.58,23.09,81.87,34.63,2.66,1.13,5.26,2.42,8.47,3.92-4.49,11.41-8.7,22.18-12.97,32.93-1.8,4.54-5.24,5.31-9.77,4.51-16.39-2.89-32.82-5.57-49.25-8.26-3.5-.57-7.04-.86-11.55-1.39,6.82,26.21,14.86,50.71,20.15,76.54Z"/>
  <path class="st0" d="M552.97,263.66c52.79,2.88,103.91,5.67,155.86,8.51,2.57,8.25,5.19,16.66,8.26,26.52,6.83-6.4,13.07-11.79,18.73-17.73,4.12-4.33,8.57-5.38,14.32-4.69,19.7,2.39,19.72,2.24,33.24,16.46,21.58,22.7,43.18,45.38,64.68,68.16,2.59,2.74,4.59,6.04,7.16,9.47-5.04,2.81-7.4-.31-9.92-1.96-16.16-10.59-32.23-21.32-48.36-31.96-2.61-1.72-5.38-3.21-8.08-4.81-.5.45-1,.9-1.5,1.35,3.14,6.42,6.42,12.77,9.36,19.28,1.54,3.41,5.78,7.31,1.98,10.62-1.86,1.62-6.83.49-10.08-.47-18.83-5.57-37.57-11.47-56.35-17.22-2.78-.85-5.62-1.49-10.07-2.65,3.28,9.87,6.14,18.46,9.35,28.13-9.54,1.98-18.16,1.19-26.62,1.8-8.29.6-16.59,1.09-26.92,1.77,5.62,6.24,10.28,11.42,15.02,16.7-3.94,4.59-7.84,3.65-11.65,2.57-8.33-2.36-16.66-4.71-24.91-7.33-4.4-1.4-8.08-.97-12.25,1.31-12.84,7.04-25.96,13.57-39.23,20.44-13.31-8.32-26.68-16.36-39.67-24.97-5.26-3.49-9.63-4.01-15.61-1.54-27.38,11.33-54.97,22.13-82.52,33.04-1.92.76-4.1.88-7.24,1.51,2.38-7.89,9.12-8.88,13.42-12.49,4.32-3.62,9.24-6.54,13.89-9.76,4.93-3.41,9.87-6.81,14.79-10.25,4.56-3.19,9.09-6.43,12.84-11.17-14.36,3.82-28.72,7.65-42.65,11.36-3.74-3.5-2.22-5.95.17-8.17,5.14-4.75,10.38-9.38,15.53-14.13,10.03-9.25,20.13-18.43,29.96-27.88,3.2-3.08,5.81-1.62,8.99-.43,23.37,8.79,46.87,17.25,70.15,26.28,7.52,2.92,14.56,3.44,22.3,1.22,8.83-2.52,17.9-4.17,29.1-6.71-5.18-2.65-8.05-4.24-11.01-5.62-24.44-11.42-48.89-22.81-73.34-34.2-2.11-.98-4.3-1.83-6.33-2.97-2.67-1.5-7.32-2.09-5.47-6.65,1.67-4.13,5.71-2.43,8.82-1.81,40.16,8.02,80.3,16.12,120.45,24.16,3.15.63,6.36,1,11.17,1.74-1.81-9.27-3.37-17.26-5.05-25.87-16.25-4.21-32.3-8.38-48.36-12.51-25.8-6.63-51.6-13.22-77.4-19.83-3.03-.78-6.56-.75-8.93-6.66Z"/>
  <path class="st0" d="M432.2,1065.04c7.06.94,12.85,1.71,20.07,2.67,4.07,26.75,8.21,53.94,12.47,81.91,2.76-.61,5.15-1.15,8.34-1.85-2.54-16.34-4.93-32.09-7.44-47.81-2.26-14.14-4.96-28.22-6.82-42.41-.77-5.87-3.4-9.65-7.97-12.96-6.74-4.89-13.02-10.41-19.73-15.34-7.74-5.68-10.69-11.95-4.41-20.93,5.27-7.53,9.2-16,13.73-24.06,5.4,2.22,50.54,48.28,62.66,63.88-1.03,5.42-2.34,10.49-2.9,15.64-1.51,13.91-2.69,27.86-4.03,41.78-.82,8.49,1.92,15.09,10.04,18.7,5.11,2.28,8.42,6.03,11.05,10.95,4.86,9.11,10,18.09,15.5,26.82,3.26,5.17,4.05,9.77,2.19,15.87-4.76,15.59-8.33,31.55-12.91,47.21-1.77,6.06-.9,10.65,2.93,15.61,6.32,8.16,11.86,16.91,17.98,25.24,3.09,4.2,4.27,8.3,3.94,13.77-1.59,26.61-2.81,53.25-3.59,79.9-.52,17.89-.1,35.81-.1,54.05-3.04,1.7-5.09-1-7.16-2.96-12.8-12.17-25.44-24.51-38.31-36.61-3.86-3.63-5.94-7.67-6.43-13-2.23-24.22-4.84-48.4-7.05-72.62-2.27-24.88-4.15-49.8-6.42-74.69-.32-3.54-1.48-7.15-2.92-10.43-7.46-16.97-19.7-31.62-23.81-50.26-4.02-18.21-8.6-36.29-12.92-54.43-1.77-7.45-3.68-14.88-5.19-22.38-.68-3.39-.52-6.96-.8-11.23Z"/>
  <path class="st0" d="M515.57,654.35c6.89,2.33,13.81,4.61,20.67,7.02,7.1,2.49,8.49,4.52,7.17,11.74-1.73,9.49-3.98,18.89-5.8,28.36-.75,3.92-.98,7.95-1.55,12.83,2.62,1.33,6.36,3.22,10.43,5.28-10.9,13.36-16.74,28.83-25.82,44.32,7.74,2.33,14.65,4.41,21.9,6.6-9.29,13.64-17.8,26.11-26.99,39.6-10.04-11.8-19.38-22.78-29.06-34.16-25.35,14.71-48.17,32.02-72.43,46.95l-2.26-2.43c10.05-15.62,20.11-31.25,30.16-46.87-.46-.53-.91-1.07-1.37-1.6-10.54,5.86-21.08,11.72-31.54,17.55-5.04-2.73-4.39-5.74-1.67-9.12,6.27-7.78,12.53-15.56,18.78-23.36,3.5-4.36,6.97-8.75,11.81-14.84-12.59,2.29-23.02,4.18-33.39,6.07-1.24-5.66,2.48-6.29,4.82-7.61,14.21-8.02,28.52-15.85,42.78-23.77,2.9-1.61,5.74-3.32,9.34-5.41-.94-9.33-1.88-18.68-2.98-29.64-15.41,10.84-29.24,20.56-44.8,31.5-1.81-1.99-3.47-3.79-5.71-6.26,10.76-11.63,20.4-22.05,31.07-33.57-10.47-5.3-19.97-10.12-29.48-14.93.09-.79.18-1.58.28-2.37,15.56-5.64,32.42-6.5,49.54-11.59-7.7-5.74-14.29-9.75-23.41-8.25-10.09,1.65-20.33,2.4-32.51,3.76,3.19-9.42,8.89-15.45,13.05-22.25,4.15-6.77,8.67-13.31,13.66-20.91,7.54,3.78,15.37,6.71,22.08,11.3,10.5,7.17,19.95,7.12,31.19,1.14,13.77-7.32,28.55-12.76,42.91-18.96,2.68-1.16,5.45-2.11,8.42-3.25,6.47,9.76,12.59,18.98,19.6,29.56-8.79,2-15.76,3.59-24.08,5.48,2.76,2.24,4.55,3.87,6.51,5.26,3.22,2.29,7.48,3.94,6.98,8.83-.51,4.96-5.3,5.51-8.76,7.14-6.58,3.1-13.3,5.9-19.96,8.82.15.68.29,1.37.44,2.05Z"/>
  <path class="st0" d="M455.86,978.98c7.98-8.22,15.33-15.79,22.67-23.35-.26-.43-.52-.87-.77-1.3-6.47,2.76-12.94,5.52-21.14,9.02,2.9-26.02,10.14-49.45,12.75-74.06-13.06,13.78-24.56,28.8-36.81,43.15-.77-.29-1.55-.58-2.32-.87.27-2.28.11-4.71.88-6.81,4.48-12.18,9.21-24.27,13.8-36.42,1.15-3.03,2.11-6.14,3.62-10.54-10.09,3.55-15.32,12.8-26.81,15.59,1.98-5.38,3.05-9.37,4.85-12.99,10.23-20.57,20.64-41.04,30.95-61.57,1.8-3.58,3.36-6.73,8.2-7.65,2.89-.55,5.26-3.85,7.84-5.94,3.08-2.5,6.14-5.03,9.91-8.13,6.65,4.82,13.07,9.48,19.49,14.13,6.47,4.7,12.93,9.39,19.39,14.1q9.28,6.77,4.9,17.81c-2.95,7.42-5.98,14.82-8.92,22.24-.81,2.05-1.44,4.18-2.38,6.96,9.03-1.61,13.81-10.3,22.24-10.45.48,8.43.67,16.33,1.46,24.16.5,4.92-.55,9.02-3.25,13.14-4.18,6.37-7.88,13.06-12.19,20.3,6.79,3.07,13.09,5.92,18.95,8.57,2.68,14.79,5.25,29.02,7.83,43.28q-5.25.18-15.61-5.22c-6.14,5.18-12.63,10.67-20.59,17.39,12.64,4.13,23.77,7.77,35.39,11.56-1.56,11.69-2.64,22.9-4.71,33.93-1.1,5.88.18,10.36,3.86,14.66,1.51,1.76,2.72,3.78,4.07,5.69,3.21,4.54,5.09,9.34,3.02,14.96-.23.61-.15,1.34-.36,1.96-6.38,18.94-4.26,38.02-1.18,57.17,1.04,6.46,2.78,13.01.99,19.4-3.88,2.5-5.73-.39-8.05-2.14-14.37-10.88-23.2-25.83-32.47-40.95-6.86-11.19-7.57-20.15-.48-30.58,4.09-6.03,4.84-12.68,3.77-20.02-1.43-9.79-1.73-19.75-2.58-30.42-6.13.39-11.37.52-16.56,1.13-3.67.43-6.33-.58-8.82-3.3-11.23-12.27-22.59-24.41-34.82-37.59Z"/>
  <path class="st0" d="M1540.53,822.53c4.73,4.52,4.48,13.09,12.66,14.43.33-17.17-7.19-33.63-4.37-50.89.07-.45,1.01-.76,2.17-1.57,10.04,8.1,20.27,16.35,32.26,26.02.81-13.38-.98-24.76-.99-36.12,0-11.25,0-22.5,0-35.41,3.41,1.98,6.22,3.35,8.75,5.11,15.01,10.5,29.99,21.05,44.89,31.7,1.84,1.31,3.44,3.13,4.72,5.01,12.97,18.99,25.87,38.02,38.71,57.09,1.74,2.59,3.03,5.49,5.17,9.43-10.2.56-14.22-7.94-22.36-9.78.94,2.81,1.52,5.24,2.53,7.48,5.47,12.15,11.2,24.18,16.5,36.4,2.67,6.17,4.61,12.65,7.32,20.23-8.07-1.35-10.94-7.52-15.37-11.37-4.73-4.11-9-8.75-13.48-13.16-.65.3-1.3.61-1.95.91,4.33,13.89,8.65,27.78,13.43,43.12-10.8-2.66-13.86-12.84-22.81-16.77,1.69,11.41,3.27,22.06,4.77,32.17-3.11,3.23-5.81,2.66-7.4.15-7.78-12.31-21.68-14.57-33.67-21.86-2.9,9-1.17,17.24-1.49,25.29-.32,8.22-.07,16.46-.07,27.29-6.99-5.16-12.07-8.91-18.65-13.77,0,4.76-.1,8.22.02,11.68.31,8.99.82,17.98,1.01,26.98.07,3.04-.57,6.09-.9,9.25-6.99-.29-7.49-5.53-9.99-8.71-2.44-3.11-2.87-8.26-8.9-7.8-.93.07-2.7-4.05-3.21-6.41-3.78-17.58-7.32-35.22-10.99-52.82-6.53-31.29-13.11-62.57-19.62-93.87-.63-3.03-2.48-6.34,1.3-9.45Z"/>
  <path class="st0" d="M1583.05,1086.54c3.87,36.67,7.73,73.34,11.65,110.43,6.33-.36,6.99-4.22,6.72-8.84-.69-11.98-1.32-23.96-2.05-35.93-.94-15.63-1.75-31.28-3-46.89-.82-10.25-1.94-20.51-3.68-30.63-.8-4.67-.5-8.2,2.65-11.87,4.98-5.82,9.44-12.08,14.27-18.02,1.55-1.9,3.6-3.4,5.7-5.35,5.69,5.9,2.43,13.04,5.84,20.33,4.31-15.48,5.92-29.97,8.8-45.04-5.53-1.41-10.54-2.69-16.96-4.33,9.26-21.48,18.3-42.3,28.38-63.42,6.42,3.25,7.52,9.42,11.19,13.37,6.24,6.72,6.54,14.26,5.21,22.97-3.8,25.02-6.64,50.19-10.22,75.25-1.03,7.2-3.05,14.29-5.01,21.32-6.51,23.42-13.31,46.76-19.7,70.21-1.29,4.73-1.82,9.82-1.8,14.74.12,45.32.53,90.65.57,135.97,0,4.82-1.46,9.78-2.96,14.44-1.83,5.69-4.9,10.99-6.6,16.71-5.48,18.41-16.85,33.03-29.43,46.92-.82.9-2.08,1.41-3.23,2.17-.93-1.02-2.11-1.71-2.12-2.42-.51-34.63-.34-69.29-1.47-103.9-1.65-50.62-4.2-101.21-6.4-151.81-.12-2.65-.6-5.29-.93-7.93-.16-1.31-.86-2.78-.48-3.9,3.17-9.25,7.91-17.63,13.21-25.68.63.38,1.25.75,1.88,1.13Z"/>
  <path class="st0" d="M826.27,1861.51c-2.55-2.32-5.24-4.5-7.62-6.98-40.77-42.61-81.49-85.26-122.23-127.9-7.82-8.19-15.51-16.52-23.54-24.5-2.68-2.67-6.52-4.15-9.34-6.71-2.34-2.13-4.38-4.84-5.84-7.66-17.2-33.47-34.24-67.02-51.4-100.5-2.42-4.72-5.46-9.12-7.81-13.87-1.6-3.24-2.92-6.74-3.63-10.27-9.99-49.6-19.93-99.21-29.66-148.86-1.46-7.46-2.27-15.12-2.57-22.72-2.34-58.92-4.49-117.85-6.67-176.77-.12-3.21-.02-6.42-.02-11.63,2.99,2.38,4.89,3.19,5.54,4.57,1.11,2.36,1.65,5.06,2.04,7.68,8.19,55.33,16.32,110.67,24.49,166.01,8.65,58.63,17.3,117.26,26.1,175.87.53,3.51,2.04,7.03,3.77,10.17,18.96,34.42,38.03,68.79,57.19,103.1,1.93,3.45,4.54,6.56,7.08,9.61,46.3,55.52,92.65,111.01,138.98,166.51,2.13,2.56,4.54,4.96,6.24,7.78.95,1.58.71,3.88,1.01,5.86-.7.41-1.4.83-2.1,1.24Z"/>
  <path class="st0" d="M1203.88,1250.76c-4.37-1.77-7.36-2.81-10.2-4.16-12.01-5.75-23.77-12.11-36.04-17.24-8.91-3.72-13.37-9.81-15.74-18.86-8.44-32.2-17.32-64.28-26.06-96.4-3.85-14.13-7.84-28.22-11.57-42.39-1-3.82-1.7-7.83-1.78-11.77-.72-35.63-.86-71.28-2.07-106.89-.47-13.92-3.25-27.76-4.97-41.64-.41-3.31-1.18-6.81,5.04-7.98,12.07,34.33,22.12,69.39,34.2,104.82,12.94.46,26.04.93,41.18,1.47-2.43,4.06-3.39,6.4-4.97,8.19-8.35,9.51-16.61,19.13-25.43,28.2-4.17,4.29-4.32,8.06-2.43,13.35,12.7,35.41,25.5,70.79,37.48,106.44,7.95,23.65,14.69,47.7,21.76,71.64,1.07,3.63.95,7.61,1.58,13.2Z"/>
  <path class="st0" d="M1155.48,1409.43c-7.68-26.34-15.04-51.58-22.39-76.83-2.61-8.95-4.95-17.99-7.89-26.83-1.44-4.32-1.11-7.38,2.25-10.71,9.45-9.39,18.57-19.1,27.2-28.04,16.36,1.65,31.18,3.14,46.94,4.73,5.35,12.34,11.22,24.62,15.87,37.35,1.57,4.3,3.03,8.12,6.75,10.45,13.16,8.25,16.94,20.33,17.65,35.33.69,14.66.41,28.41-7.74,41.11-1.25,1.94-1.97,4.22-2.96,6.33-6.59,14.11-13.6,17.74-32.48,15.73,3.1-3.53,5.41-6.48,8.05-9.1,15.7-15.62,12.45-8.01,13.11-29.89.33-10.95.06-21.92.06-33.75-3.93-1.27-7.93-2.78-12.05-3.84-4.92-1.27-7.89-4.13-9.88-8.87-4.64-11.05-9.72-21.92-14.69-32.83-1.36-2.98-2.95-5.85-4.75-9.38-12.27,4.27-24.14,8.41-36.59,12.74.42,2.59.51,4.84,1.17,6.91,3.13,9.84,6.66,19.55,9.59,29.45,6.78,22.94,13.16,46,20.01,68.92,1.57,5.27.59,9-3.63,12.27-2.63,2.04-5.03,4.37-7.53,6.58q-18.62,16.46-43.03,18.58c-12.61,1.13-25.22,2.29-37.77,3.93-6,.78-10.88-.14-15.68-4.09-6.94-5.7-14.28-10.96-21.76-15.95-2.87-1.92-6.7-3.9-9.89-3.61-20.58,1.84-40.16-4.44-60.2-6.8-2.29-.27-4.52-1.01-7.72-1.75,0-13.17-1.85-26.69.48-39.44,2.75-15.02,7.75-29.86,13.82-44.2,5.2,1.8,4.14,5.18,3.97,7.88-.82,12.63-1.88,25.25-2.79,37.88-.5,6.92-.87,13.84-1.35,21.67,15.2,2.25,29.59,4.4,43.99,6.49,6.26.91,12.6,1.39,18.79,2.64,3.83.77,7.69,2.15,11.09,4.06,7.84,4.4,15.61,8.99,23.01,14.08,5.08,3.49,10.14,4.29,16.02,3.28,11.82-2.01,23.7-3.64,35.53-5.57,2.57-.42,5.41-.9,7.48-2.31,6.59-4.46,12.87-9.37,19.93-14.59Z"/>
  <path class="st0" d="M942.33,1600.09c4.3,0,7.92.06,11.55,0,44.7-.84,88.99,4.33,133.32,9.01,5.17.54,10.64.23,15.73-.85,49.46-10.51,98.84-21.33,148.31-31.81,3.79-.8,8.02-3.71,13.11.32-2.16,2.04-3.76,3.97-5.74,5.34-22.44,15.52-44.87,31.06-67.49,46.32-4.03,2.72-8.72,4.86-13.42,6.09-22.84,5.96-45.77,11.56-68.7,17.15-2.53.62-5.29.5-7.93.44-23.63-.58-47.25-1.51-70.88-1.67-6.03-.04-9.76-3.65-14.37-5.94-22.06-10.94-44.04-22.03-66.04-33.09-4.09-2.06-8.74-3.78-7.44-11.29Z"/>
  <path class="st0" d="M701.31,713.75c1.75-6.58,5.46-6.76,8.36-7.84,55.21-20.62,110.49-41.02,165.6-61.9,11.17-4.23,22.1-5.64,34.04-5.01,42.58,2.25,85.21,3.66,127.82,5.19,3.44.12,6.95-1.22,10.41-1.98,2.59-.57,5.12-1.49,7.73-1.94,54.15-9.22,108.32-18.38,162.47-27.61,4.45-.76,7.84-.68,11.53,3.21,5.14,5.42,11.67,9.54,17.17,13.87-.87,5.06-3.85,6.13-6.87,5.51-16.35-3.4-31.66,2.48-47.21,5.27-44.24,7.93-88.34,16.62-132.54,24.75-5.79,1.07-11.88.99-17.81.79-46.95-1.58-93.89-3.37-140.84-4.9-4.23-.14-8.63.7-12.75,1.83-58.44,15.98-116.85,32.09-175.27,48.13-3.37.93-6.84,1.53-11.84,2.64Z"/>
  <path class="st0" d="M1200.75,1978.56c-1.66-6.77,2.46-7.51,5.04-9.07,15.67-9.48,31.44-18.81,47.17-28.19,11.44-6.82,23.46-12.86,34.17-20.69,9.56-6.99,19.71-11.58,30.97-14.61,2.96-.8,5.74-3.25,7.98-5.55,23.21-23.91,46.33-47.9,69.35-71.98,3.2-3.34,6.05-7.11,8.55-11.01,37.79-58.87,75.48-117.8,113.24-176.68,2.55-3.97,4.76-7.82,4.43-12.84-.15-2.22.91-4.54,1.5-6.79,14.95-56.99,29.91-113.99,44.89-170.97.68-2.57,1.15-5.31,2.43-7.56.73-1.29,2.9-1.76,6.1-3.52-.47,5.22-.47,8.79-1.14,12.23-11.75,60.12-23.54,120.23-35.47,180.31-.69,3.47-2.17,6.97-4.05,9.98-38.49,61.58-77.07,123.09-115.71,184.57-2.28,3.63-5.03,7.03-7.96,10.17-23.62,25.36-47.44,50.52-70.93,76-5.09,5.52-10.79,9.33-17.67,12.32-37.56,16.32-74.94,33.06-112.39,49.64-3.21,1.42-6.5,2.64-10.49,4.26Z"/>
  <path class="st0" d="M862.38,965.93c.39-3.91.71-7.16,1.04-10.41,3.35.87,6.92,1.27,10.01,2.7,6.31,2.91,12.36,6.38,19.46,10.11-.12-7.48,3.62-8.03,9.08-6.86,7.48,1.61,15.07,2.82,22.67,3.7,5.22.61,10.59.86,15.81.36,5.35-.51,9.36.23,13.17,4.64,8.44,9.78,17.52,19,26.6,28.74-4.87,5.01-10.54-.54-15.8,2.09,2.71,3.77,5.39,7.5,9.46,13.15-5.27-.37-8.14-.28-10.89-.81-28.12-5.44-56.19-11.14-84.35-16.38-5.44-1.01-11.29-1.12-16.77-.33-13.18,1.91-26.38,4-39.31,7.13-12.98,3.14-25.8.5-38.66.94-15.27.52-28.74-3.16-41.24-11.65-3.84-2.61-8.12-4.59-12.25-6.74-3.8-1.98-5.41-4.73-3.34-9.72,10.85-2.06,22.11-4.2,35.05-6.66-4.75-4.77-8.29-8.21-11.68-11.78-3.04-3.21-5.92-6.57-9.73-10.82,10.79-4.13,20.15.47,29.37-1.61,1.73-4.41,3.49-8.88,5.86-14.92,15.27,9.67,29.4,18.62,44.03,27.89.81-5.72-5.68-8.53-3.02-14.26,8.86,1.37,15.68,6.94,23.34,10.42,7.51,3.41,14.77,7.38,22.11,11.09Z"/>
  <path class="st0" d="M717.36,626.24c1.24-6.39,5.53-6.35,8.65-7.39,25.27-8.37,50.6-16.56,75.91-24.84,40.49-13.24,81.08-26.18,121.37-39.97,10.12-3.47,19.84-4.03,30.2-3.22,31.2,2.43,62.43,4.6,93.67,6.46,5.85.35,11.81-1.32,17.74-1.87,42.1-3.89,84.21-7.69,126.31-11.65,3.88-.37,7.65-1.85,11.54-2.39,2.48-.35,5.2-.42,7.59.22,20.57,5.52,41.09,11.22,61.62,16.88,1.28.35,2.72.58,3.74,1.34,1.19.88,3.04,2.85,2.77,3.33-.82,1.48-2.53,3.49-3.87,3.48-7.65-.1-15.3-.62-22.94-1.19-12.62-.94-25.28-1.6-37.82-3.18-14.79-1.87-29.23.51-43.73,2.33-36,4.5-72.18,8.04-107.9,14.2-19.64,3.39-38.3-.19-57.34-1.66-15.92-1.23-31.78-3.34-47.67-5.07-6.9-.75-13.41-.4-20.36,1.72-15.57,4.74-31.59,8.02-47.44,11.84-54.02,13.04-108.04,26.07-162.08,39.06-2.96.71-6.03.97-9.96,1.58Z"/>
  <path class="st0" d="M987.78,2021.33c3.05-.35,5.25-.98,7.4-.8,42.14,3.5,84.27,7.07,126.4,10.67,11.6.99,23.18,2.28,34.8,3.13,2.49.18,5.26-.51,7.59-1.51,38.25-16.36,76.49-32.76,114.62-49.4,3.83-1.67,6.97-4.95,10.42-7.49,39.92-29.46,79.84-58.94,119.78-88.37,3.04-2.24,5.95-5.68,10.37-2.84.05.57.24,1.03.09,1.21-11.13,13.57-20.44,29.4-33.8,40.23-41.37,33.54-84.24,65.24-126.69,97.44-4.1,3.11-9.13,5.41-14.08,6.93-25.13,7.73-50.41,14.93-75.54,22.65-6.81,2.09-13.01,2.47-20.19.8-14.88-3.45-30.13-5.37-45.24-7.84-34.49-5.62-69.01-11.08-103.46-16.93-4.37-.74-10.56.52-12.45-7.89Z"/>
  <path class="st0" d="M906.52,1922.49c1.81.37,3.09.41,4.18.89,38.1,16.68,76.17,33.45,114.31,50.03,2.91,1.27,6.38,1.8,9.58,1.77,25.64-.23,51.28-.57,76.91-1.15,3.87-.09,7.93-1.04,11.54-2.49,29.34-11.78,58.63-23.66,87.81-35.82,4.14-1.73,7.99-4.72,11.26-7.87,32.38-31.19,64.6-62.54,96.9-93.8,2.46-2.38,5.19-4.46,8.35-7.15,2.76,5.79-.77,8.19-2.7,10.86-19.71,27.25-40.13,54.01-59.04,81.79-10.15,14.92-22.54,24.93-39.35,31.57-29.07,11.49-57.33,25.02-86.14,37.2-5.93,2.51-12.78,3.91-19.22,3.97-30.97.29-61.94-.12-92.91-.08-4.53,0-9.05,1.51-13.58,1.52-2.72,0-5.78-1-8.11-2.46-14.09-8.86-28-18-42-27.01-17.64-11.35-35.3-22.65-52.94-34-2.37-1.53-5.79-2.33-4.84-7.76Z"/>
  <path class="st0" d="M501.87,532.23c-5.16-3.35-8.3-6.17-11.99-7.65-15.42-6.18-31-11.96-45.52-17.5-5.59-19.79-10.97-38.55-16.06-57.4-.42-1.57,1.14-3.68,1.72-5.38,6.31,4.32,11.58,8.23,17.13,11.69,21.17,13.22,42.43,26.3,63.82,39.53,4.4-2.23,8.55-4.29,12.68-6.43,34.29-17.76,68.58-35.52,102.84-53.33,4.74-2.46,9.4-4.96,15.02-3.05.96,4.41-2.79,5.8-5.08,7.84-20.13,17.96-40.39,35.77-60.53,53.73-2.68,2.39-4.79,5.41-7.27,8.03-1.31,1.39-2.66,3.05-4.34,3.76-21.12,8.94-42.29,17.74-62.44,26.14Z"/>
  <path class="st0" d="M1201.58,701.81c-3.61,6.26-7.03,12.65-10.97,18.7-1.07,1.64-3.59,2.83-5.65,3.24-13.37,2.71-26.77,5.35-40.23,7.57-4.53.75-9.29.48-13.91.18-34.9-2.29-69.81-4.44-104.68-7.23-12.92-1.03-25.18,1.99-37.59,4.06-57.14,9.54-114.23,19.4-171.35,29.07-5.35.91-11.05,2.71-15.92-2.13,2-4.58,6.22-4.12,9.48-4.87,36.01-8.3,72.08-16.32,108.09-24.61,30.8-7.09,61.53-14.48,92.34-21.56,3.16-.73,6.61-.53,9.9-.35,40.25,2.24,80.48,4.61,120.73,6.76,3.49.19,7.08-.72,10.56-1.44,15.84-3.3,31.67-6.71,47.5-10.08.56.9,1.13,1.79,1.69,2.69Z"/>
  <path class="st0" d="M1250.08,1003.48c.41-5.57.7-9.61,1.03-14.15-18.44,3.09-36.3,6.11-54.17,9-.69.11-1.57-.94-2.91-1.81,1.38-1.66,2.39-3.37,3.83-4.53,9.84-7.96,19.71-15.9,29.75-23.62,1.99-1.53,4.69-2.27,7.16-3.03,15.54-4.74,31.09-9.47,46.7-13.99,2.43-.7,5.23-.78,7.74-.39,10.86,1.67,21.68,3.55,32.49,5.5,6.45,1.16,12.39,3.03,18.4,6.43,7.34,4.15,16.41,5.17,24.7,7.69,3.26.99,6.4,2.36,9.59,3.55-.07.75-.13,1.5-.2,2.25-4.19,1.4-8.39,2.8-14.45,4.82,7.09,3.19,12.98,5.83,18.86,8.48-.08.78-.15,1.56-.23,2.35-5.14,1.56-10.44,2.72-15.39,4.76-8.62,3.55-17.37,3.89-26.45,2.83-19.18-2.23-38.37-4.35-57.58-6.22-2.75-.27-5.78.85-8.48,1.86-6.39,2.38-12.67,5.08-20.4,8.22Z"/>
  <path class="st0" d="M1239.07,1829.11c-7.29,1.82-12.93,3.78-18.71,4.39-2.36.25-5.43-1.99-7.48-3.87-14.24-13.03-28.4-26.16-42.36-39.5-4.09-3.91-8.2-5.91-14.08-5.76-40.6,1.05-81.2,1.86-121.81,2.48-6.72.1-11.97,2.2-17.16,6.43-19.86,16.2-39.98,32.08-60.12,47.93-2.64,2.08-4.75,5.91-10.64,4,1.19-2.34,1.81-4.84,3.36-6.4,21.32-21.52,42.8-42.88,64.13-64.39,3.39-3.42,7.38-3.98,11.82-4.16,35.59-1.39,71.18-2.69,106.75-4.41,12.85-.62,25.63-2.42,38.47-3.32,1.98-.14,4.62,1.13,6.06,2.61,20.16,20.7,40.17,41.55,61.77,63.97Z"/>
  <path class="st0" d="M1229.61,1121.38c4.9-2.46,7.62-3.89,10.4-5.21,7.8-3.7,15.35-9.3,23.52-10.49,8.15-1.19,16.94,2.08,25.46,3.37,5.92.9,11.81,2.15,17.76,2.51,5.22.32,10.59.14,15.74-.71,11.8-1.96,23.54-4.28,35.23-6.82,6.01-1.31,10.84-.28,15.6,3.83,7.29,6.3,15.13,11.96,22.67,17.97,2.25,1.8,4.27,3.88,7.71,7.03-4.27,2.1-7.2,3.99-10.41,5.05-16.4,5.45-33.23,9.79-49.17,16.33-9.22,3.78-16.74,2.7-25.37-.46-26.21-9.6-52.61-18.68-78.92-28.01-2.65-.94-5.19-2.22-10.22-4.41Z"/>
  <path class="st0" d="M1851.81,2648.9c-39.47-24.49-77.84-48.3-117.12-72.67,5.6-8.81,11.04-17.36,17.24-27.12,37.99,22.83,76.01,45.69,114.63,68.91-5.42,10.29-6.42,21.57-14.76,30.88Z"/>
  <path class="st0" d="M500.17,467.79c-9.83-11.81-19.13-22.99-29.4-35.33,3.2-1.85,5.41-3.74,7.96-4.5,24.47-7.3,48.99-14.4,73.66-21.62,12.28,13.35,30.56,15.53,46.05,25.29-2.21,1.68-3.66,3.46-5.51,4.1-30.69,10.7-61.43,21.26-92.76,32.05Z"/>
  <path class="st0" d="M1202.7,1578.89c-2.16.96-4.24,2.38-6.5,2.8-32.71,6.03-65.35,12.57-98.23,17.49-10.93,1.64-22.51-.71-33.76-1.7-25.85-2.29-51.68-4.89-77.52-7.32-4.57-.43-9.21-.52-13.19-5.89,3.09-.85,5.38-1.86,7.74-2.06,38.46-3.31,76.91-6.73,115.4-9.61,9.23-.69,18.61.59,27.92.81,22.3.54,44.59.97,66.89,1.52,3.56.09,7.12.57,10.68.87.19,1.03.38,2.05.57,3.08Z"/>
  <path class="st0" d="M425.72,529.49c3.37,1.29,6.44,2.33,9.41,3.61,14.68,6.31,29.49,12.36,43.94,19.17,6.47,3.05,12.41,3.36,19.18,1.63,15.15-3.88,30.44-7.25,45.69-10.74,3.48-.8,7.03-1.27,11.47-2.05v27.25c-2.95.79-5.75,1.61-8.58,2.29-5.18,1.25-10.37,2.44-15.56,3.62-11.67,2.65-23.38,7.46-35.01,7.28-11.65-.17-23.22-5.32-34.82-8.32-11.57-3-23.12-6.06-35.72-9.36v-34.36Z"/>
  <path class="st0" d="M1334.64,1033.33c2.47-.18,5.01-.83,7.4-.48,16.78,2.46,33.56,4.97,50.27,7.84,3.42.59,7.24,2.01,9.72,4.3,10.02,9.25,19.59,18.99,29.28,28.59.64.64.87,1.69,1.73,3.42-4.09,2.71-8.12,5.39-13.15,8.73,6.08,4.9,11.9,9.58,18.66,15.02-1.95,2.49-3.22,5.85-5.41,6.64-9.59,3.44-19.45,6.13-30.93,9.62,0-5.6-.3-9.46.08-13.24.44-4.47-1.43-7.29-4.58-10.29-6.93-6.6-14.48-11.5-24.21-12.69-3.84-.47-7.58-1.74-12.88-3.01,3.84-4.85,6.83-8.62,10.68-13.48-12.58-9.3-25.17-18.62-37.77-27.93.36-1.01.73-2.03,1.09-3.04Z"/>
  <path class="st0" d="M1288.85,1040.4c-2.49,10.35-10.63,17.21-14.13,27.06,6.23,4.18,12.54,8.4,19.52,13.09,3.68-2.08,7.43-4.08,11.06-6.27,7.15-4.31,8.54-8.59,5.35-16.62-1.91-4.82-4.05-9.55-6.66-15.65,3.77.21,6.17-.26,8.01.54,7.61,3.33,15.22,6.76,22.47,10.8,2.14,1.19,3.58,4.32,4.47,6.87.85,2.43.82,5.27.7,7.91-.24,5.16,1.11,12.02-1.65,15.08-5.31,5.9-12.05,10.38-21.08,11.91-19.83,3.36-38.39-1.46-56.92-6.54-4.05-1.11-7.22-6.33-10.19-10.12-2.38-3.04-5.78-7.07-5.34-10.17.92-6.43,4-12.57,6.47-18.72.37-.93,2.13-1.52,3.35-1.86,9.93-2.75,19.87-5.46,29.85-8.03,1.12-.29,2.48.35,4.72.73Z"/>
  <path class="st0" d="M1017.26,1298.28c5.71-13.31,10.88-25.8,16.43-38.12,2.44-5.4,2.99-10.71,2.07-16.49-7.01-43.67-13.9-87.36-20.83-131.05-2.43-15.33-4.85-30.66-7.29-46.06,11-.33,12.8.89,14.33,9.49,10.5,58.93,20.97,117.87,31.52,176.79.62,3.44.55,6.24-1.71,9.3-7.71,10.43-15.22,21.02-22.49,31.77-3.07,4.53-6.74,5.75-12.04,4.38Z"/>
  <path class="st0" d="M960.22,1088.96c-2.01.75-4.06,2.25-6.02,2.12-16.25-1.03-32.48-2.35-48.72-3.64-.57-.05-1.09-.66-2.69-1.69.71-5.91,1.22-12.42,2.36-18.82.79-4.4-.33-7.59-3.42-10.73-5.02-5.11-10.45-9.97-14.09-15.68.85-1.55,1.09-2.55,1.47-2.61,12.68-1.95,25.43-4.32,37.89.96,18.05,7.65,36.05,15.43,54.05,23.21,2.96,1.28,5.78,2.85,8.86,4.39-2.78,5.49-5.14,10.15-7.85,15.5-2.77-.98-5.29-1.55-7.51-2.71-6.77-3.56-13.62-7.03-20.05-11.13-6.45-4.11-12.77-5.18-21-1,9.43,6.65,18.34,12.93,27.26,19.21-.19.87-.37,1.75-.56,2.62Z"/>
  <path class="st0" d="M838.68,1088.01c11.61-2.66,22.21-5.09,33.93-7.78-2.34-8.2-4.46-15.67-6.58-23.12,6.12-4.74,12.85-2.98,18.77-4.53.56-.15,1.31.17,1.9.44,4.81,2.22,11.59,17,9.96,22.17-6.77,21.55-3.13,19.02-23.68,21.6-16.16,2.03-32.28,4.37-48.38,6.83-4.79.73-7.76-.55-11.03-4.37-9.84-11.47-17.05-23.54-12.76-40.6,13.11-5.25,27.64-10.21,42.98-15.5.94,8.15-4.64,10.62-7.98,14.15-3.63,3.85-8.01,7-12.19,10.56,5.57,7.45,10.08,13.5,15.06,20.16Z"/>
  <path class="st0" d="M1085.21,969.64c-9.21,1.34-16.13-2.36-23.1-5.04-2.01-.77-3.35-3.95-4.47-6.27-4.29-8.98-8.37-18.06-13.3-28.77-11.24,16.08-19.31,32.67-31.28,49.52-.74-4.1-1.65-5.93-1.25-7.39,8.01-28.87,16.16-57.7,24.35-86.51.24-.85,1.19-1.49,2.3-2.83,1.51,1.29,3.38,2.19,4.16,3.66,13.9,26.18,27.67,52.43,41.41,78.69.58,1.1.61,2.49,1.17,4.95Z"/>
  <path class="st0" d="M993.96,1121.57c-5.39,11.16-10.76,17.66-22.68,27.77-24.7-10.96-50.8-18.98-72.55-35.9.71-3.97,3.7-4.69,6.6-5.09,14.83-2.03,29.67-3.95,44.52-5.81,1.59-.2,3.47-.18,4.87.48,12.91,5.99,25.75,12.14,39.24,18.55Z"/>
  <path class="st0" d="M964.36,1328.39c-.64,3.37-.61,7.05-2.02,10.05-10.58,22.55-21.39,44.99-32.29,67.39-1.43,2.94-3.71,5.48-5.72,8.11-10.47,13.74-20.97,27.46-31.49,41.17-1.9,2.47-3.3,5.89-8.61,4.59,1.16-2.59,2.33-4.75,3.13-7.03,5.78-16.55,11.44-33.14,17.25-49.68.75-2.13,1.87-4.23,3.22-6.04,16.28-21.85,32.61-43.66,49.01-65.41,1.27-1.69,3.2-2.88,4.82-4.31.9.38,1.8.77,2.71,1.15Z"/>
  <path class="st0" d="M1339.56,1512.44c13.9,12.72,27.75,25.49,41.73,38.13,3.6,3.26,4.16,6.31,1.21,10.35-10.78,14.79-21.47,29.66-32.05,44.6-2.94,4.15-6.13,4.46-10.93,1.24.95-2.83,1.81-5.93,3.02-8.89,4.27-10.48,8.52-20.96,13.05-31.32,1.87-4.27,1.91-8-.19-12.25-5.29-10.74-10.25-21.65-15.18-32.57-1.26-2.8-1.92-5.87-2.86-8.82.73-.16,1.46-.31,2.19-.47Z"/>
  <path class="st0" d="M1474,1235.81c-2.1-1.47-4.34-2.77-6.26-4.44-13.58-11.75-27.27-23.38-40.53-35.49-4.13-3.77-8.52-5.95-13.79-7.16-15.22-3.5-30.4-7.16-45.58-10.85-3.05-.74-6.01-1.9-9.01-2.87-.02-.76-.03-1.53-.05-2.29,1.79-.71,3.61-2.11,5.36-2.02,19.59.93,39.19,1.91,58.75,3.37,3.25.24,7.17,2.14,9.34,4.56,13.99,15.59,27.67,31.46,41.19,47.47,1.81,2.14,2.15,5.53,3.17,8.35-.86.46-1.73.91-2.59,1.37Z"/>
  <path class="st0" d="M898.58,86.87c5.36-5.18,8.81-1.41,12.29,1.61,17.35,15.02,34.68,30.07,52.01,45.11,3.02,2.61,6.15,5.1,9.02,7.87,1.29,1.24,2.05,3.04,3.09,4.64-4.07,3.72-6.78.38-9.34-.95-22.13-11.49-44.15-23.18-66.21-34.81-6.47-3.41-13-6.72-19.4-10.25-2.17-1.2-4.03-2.94-5.64-5.47,11.32-3.68,20.06,5.55,31.49,5.81-2.59-4.79-4.95-9.17-7.32-13.56Z"/>
  <path class="st0" d="M549.31,295c2.02-6.05,3.77-11.28,5.5-16.47,33.95,7.87,67.07,15.55,100.4,23.27-3.94,9.76-5.32,11.08-12.44,9.93-29.52-4.79-59-9.8-88.48-14.78-1.25-.21-2.41-.93-4.98-1.95Z"/>
  <path class="st0" d="M672.85,1251.36c.34-3.34.11-6.86,1.13-9.97,3.12-9.47,6.84-18.75,10.11-28.18,1.43-4.14,3.81-6.37,8.24-7.56,25.69-6.94,51.29-14.24,76.92-21.4.96-.27,2.02-.77,2.91-.58,2,.44,3.92,1.25,5.88,1.9-1.41,1.55-2.54,3.86-4.29,4.53-21.11,8.14-42.24,16.22-63.53,23.88-6.58,2.37-11.65,5.73-15.32,11.8-4.13,6.82-8.96,13.22-13.6,19.73-1.68,2.36-3.66,4.49-5.5,6.73-.98-.3-1.97-.6-2.95-.89Z"/>
  <path class="st0" d="M758.78,1158.86c-2.63,2.18-5.02,4.76-7.93,6.47-6.01,3.53-12.23,6.73-18.47,9.84-25.34,12.58-49.79,26.63-72.54,43.53-2.38,1.77-4.99,3.29-7.69,4.48-.83.37-2.75-.43-3.38-1.29-.6-.81-.4-2.45-.09-3.6.24-.87,1.18-1.57,1.86-2.28.92-.96,1.89-1.87,2.84-2.8,10.75-10.39,20.27-22.72,32.62-30.63,12.04-7.71,26.95-10.95,40.62-16.09,8.08-3.04,16.19-6.03,24.33-8.9,2.03-.72,4.26-.89,6.39-1.32.48.86.95,1.72,1.43,2.58Z"/>
  <path class="st0" d="M936.46,1595.8c-3.82,3.05-5.62,4.83-7.73,6.1-7.42,4.46-14.84,8.93-22.48,13-4.24,2.26-6.21,5.15-6.62,10.06-.92,10.94-2.44,21.83-3.9,32.72-.46,3.43-1.53,6.78-2.32,10.17l-2.11.12c-.93-1.81-2.46-3.54-2.71-5.44-2.35-17.82-4.61-35.65-6.62-53.51-.81-7.19.68-9.48,7.38-10.36,13.53-1.79,27.13-3.01,40.71-4.37,1.16-.12,2.4.54,6.4,1.52Z"/>
  <path class="st0" d="M1236.31,1038.73c-5.19,5.29-12.81,5.39-19.27,7.88-6.82,2.63-13.88,4.62-20.84,6.87-6.95,2.24-13.9,4.45-20.27,6.49-4.1,6.93-1.37,15.32-7.53,21.57-1.45-1.59-3.21-2.73-3.8-4.3-2.22-5.91-3.94-12.01-6.08-17.95-1.79-4.96-.14-8.7,4.14-10.94,9.42-4.94,19.04-9.5,28.61-14.17.87-.42,1.94-.69,2.9-.64,13.86.71,27.71,1.49,41.57,2.26.19.98.38,1.96.57,2.94Z"/>
  <path class="st0" d="M797.37,1197.16c1.3,5.45-2.77,6.34-5.22,8.07-11.11,7.89-22.06,16.09-33.64,23.24-15.29,9.44-26.59,22.97-38.81,35.61-3.19,3.3-6.1,7.23-12.51,5.17.71-2.11,1.05-4.32,2.13-6.09,6.9-11.37,13.91-22.67,21.04-33.9,1.19-1.87,2.83-3.89,4.76-4.8,18.6-8.82,37.29-17.45,56.01-26.01,1.87-.86,4.12-.88,6.25-1.3Z"/>
  <path class="st0" d="M1240.89,397.53c-15.94-8.3-32.24-12.53-41.34-28.35-4.61-8.01-10.91-15.02-16.33-22.58-1.46-2.03-2.47-4.38-4.31-7.69,3.09,0,5.29-.7,6.48.1,20.04,13.54,39.95,27.27,60.1,41.11-1.5,5.67-2.82,10.66-4.6,17.4Z"/>
  <path class="st0" d="M1475.74,1355.51c-.12-3.08-.45-6.18-.31-9.25.71-15.93,1.33-31.87,2.46-47.77.39-5.57-1.34-9.34-5.52-12.85-8.64-7.26-16.92-14.95-25.4-22.41-2.05-1.8-4.31-3.39-2.07-6.46.71-.16,1.53-.63,1.92-.4,14.76,8.94,29.41,18.05,44.24,26.86,4.05,2.4,5.47,5.05,4.3,9.74-4.73,19.01-9.14,38.09-13.81,57.11-.51,2.06-1.87,3.92-2.84,5.87-.99-.15-1.98-.29-2.98-.44Z"/>
  <path class="st0" d="M1240.15,1058.25c-3.25,5.27-6.5,10.53-9.57,15.51,2.98,7.79,12.45,10.51,13.74,20.88-4.42-1.22-7.94-1.7-11.01-3.13-6.28-2.92-12.6-3.3-19.38-2.44-7.88.99-15.87,1.35-23.82,1.59-2,.06-5.45-1.05-5.74-2.24-.51-2.07.21-5.26,1.65-6.85,6.44-7.1,13.15-13.73,23.18-16.15,7.69-1.85,14.99-5.29,22.51-7.86,2.33-.79,4.83-1.05,7.26-1.56.39.75.78,1.49,1.17,2.24Z"/>
  <path class="st0" d="M1406.96,1154.45c9.97,1.45,19.3,3.47,28.72,4.03,17.07,1.01,30.95,7.65,42.71,20.03,6.6,6.94,14.6,12.52,21.69,19.03,1.62,1.49,3.46,5,2.78,6.29-1.73,3.27-4.6.95-6.76-.37-10.19-6.23-20.55-12.22-30.41-18.95-9.81-6.69-21.03-9.64-31.94-13.49-6.88-2.43-13.79-4.76-20.72-7.06-3.64-1.21-6.83-2.67-6.07-9.49Z"/>
  <path class="st0" d="M532.56,305.61c15.09,5.23,68.13,32.89,73.18,38.17-4.68,3.58-9.45,6.1-15.43,3.76-20.74-8.12-41.46-16.29-62.17-24.5-.87-.35-1.56-1.17-3.34-2.56,2.58-4.94,5.2-9.97,7.76-14.87Z"/>
  <path class="st0" d="M1484.78,1252.54c1.6.46,3.22.66,4.57,1.37,11.72,6.21,23.38,12.56,35.1,18.77,4.05,2.15,5.82,4.69,4.07,9.59-6.55,18.43-12.73,36.99-19.2,55.46-.42,1.21-2.08,1.99-4.96,4.59,0-4.57-.23-6.99.04-9.36,1.63-14.17,3.21-28.35,5.17-42.47.75-5.43-.36-9.43-4.76-13.03-6.15-5.04-11.83-10.66-17.62-16.13-3.06-2.89-2.97-2.98-2.42-8.81Z"/>
  <path class="st0" d="M865.03,308.27c8.4,2.37,49.45,33.01,60.22,43.75-1.3,6.55-2.53,12.79-3.77,19.02-.71,2.96-2.72,2.52-5.34.68-10.99-7.71-20.1-17.04-27.38-28.42-6.09-9.51-13.12-18.41-19.65-27.64-1.24-1.75-2.1-3.77-4.09-7.4Z"/>
  <path class="st0" d="M1355.38,174.37c2.01,3.89,3.65,6.03,4.26,8.43,2.28,9.02,4.28,18.12,6.24,27.21.41,1.91.64,4.02.26,5.9-1.97,9.77-4.02,19.53-6.4,29.2-.47,1.9-2.51,3.42-3.83,5.11-1.51-1.5-3.64-2.72-4.43-4.54-3.2-7.3-6.17-14.72-8.84-22.23-.85-2.39-1.25-5.39-.62-7.78,3.28-12.54,6.94-24.97,10.55-37.42.25-.88,1.11-1.58,2.82-3.89Z"/>
  <path class="st0" d="M723.02,1096.19c3.61-8.11,7.08-16.28,10.93-24.28.76-1.59,2.86-2.62,4.48-3.7,8.01-5.35,16.53-10.06,23.99-16.08,8.29-6.68,16.89-7.87,26.69-4.83,1.71,3.63-.74,5.72-3.25,7.23-19.48,11.67-36.48,26.59-53.94,40.91-1.81,1.49-4.37,2.06-6.59,3.05-.77-.77-1.54-1.53-2.31-2.29Z"/>
  <path class="st0" d="M736.76,1105.81c.59,1.54,1.2,2.37.99,2.69-6.02,9.48-12.29,18.88-23.95,22.1-7.64,2.11-15.92,5.94-23.07,4.58-6.74-1.28-12.42-8.31-18.5-12.9-2.6-1.97-5.03-4.17-7.29-6.06,1-5.29,3.97-5.61,7.59-4.52,6.04,1.82,12.17,3.44,18.06,5.65,6.23,2.34,11.88,2.45,18.02-.77,6.74-3.54,13.99-6.14,21.09-8.96,2.29-.91,4.8-1.24,7.06-1.79Z"/>
  <path class="st0" d="M1085.71,98.38c2.1.61,4.45.8,6.25,1.9,23.55,14.47,44.19,32.71,65.19,50.48.82.69.89,2.26,1.76,4.69-2.77-.59-4.63-.58-6.07-1.35-14.34-7.65-28.45-15.74-42.95-23.06-8.02-4.05-14.33-9.28-18.37-17.37-2.3-4.61-5.15-8.94-7.76-13.39.65-.63,1.3-1.26,1.95-1.9Z"/>
  <path class="st0" d="M711.19,175.72c-4.41,1.57-8.19,3.39-12.17,4.25-13.96,3.01-28.02,5.53-41.96,8.59-4.14.91-7.51.86-11.28-1.51-4.33-2.72-9.27-4.48-15.59-7.42,3.42-1.66,5.18-3.03,7.13-3.39,17.95-3.34,35.93-6.56,53.92-9.69,6.37-1.11,12.38,1.63,19.94,9.17Z"/>
  <path class="st0" d="M1579.92,1016.07c9.14-3.3,14.9-14.49,27.75-10.01-.62,8.7-1.16,16.92-1.87,25.12-.11,1.21-.79,2.62-1.65,3.48-7.43,7.43-15.35,14.26-25.44,21.23-3.61-14.38,4.67-26.58,1.21-39.82Z"/>
  <path class="st0" d="M1162.72,1657.13c12.53-3.64,13.06-3.47,17.41,7.31,4.17,10.33,8.17,20.74,12.44,31.6-9.1,3.4-17.02,6.36-25.91,9.68-1.35-16.69-2.62-32.29-3.94-48.59Z"/>
  <path class="st0" d="M1171.19,399.45c-9.22-.85-16.64-4.1-20.98-11.07-8.44-13.55-15.97-27.67-23.71-41.65-.81-1.45-.51-3.52-1.03-7.89,4.24,3.52,6.79,5.37,9.04,7.54,9.84,9.47,19.13,19.57,29.53,28.37,8.26,6.99,6.9,15.39,7.15,24.7Z"/>
  <path class="st0" d="M633.52,408.21c6.83-3.94,13.64-7.92,20.52-11.78.8-.45,2.02-.61,2.9-.38,11.81,3.08,23.59,6.25,36.01,9.57-2.54,5.85-5.72,8.42-10.73,9.22-11.17,1.79-22.33,3.69-33.43,5.86-3.38.66-5.53-.15-7.91-2.55-2.51-2.53-5.74-4.34-8.65-6.46.43-1.16.85-2.32,1.28-3.47Z"/>
  <path class="st0" d="M870.01,1693.55c-4.32-10.26-4.62-21.81-8.65-32.04-4.58-11.6,1.53-22.07.67-34.24,2.42,1.21,4.49,1.58,5.42,2.82,3.79,5.02,7.52,10.14,10.65,15.58,1.36,2.36,1.91,5.65,1.65,8.4-1.06,10.88-2.43,21.74-4.05,32.55-.38,2.53-2.16,4.86-3.29,7.28-.8-.11-1.59-.23-2.39-.34Z"/>
  <path class="st0" d="M716.6,1803c-3.94-.93-6.21-1.02-8.01-1.98-4.33-2.32-8.69-4.74-12.53-7.77-1.81-1.43-3.07-4.22-3.5-6.6-2.27-12.39-4.27-24.82-6.2-37.27-.53-3.42-1.79-7.42,4.66-9.35,5.8,9.33,8.83,20.11,13.03,30.28,4.22,10.23,8.86,20.35,12.54,32.69Z"/>
  <path class="st0" d="M1275.71,1577.97c1.83-.11,3.97-.88,5.45-.21,12.25,5.55,24.38,11.37,37.34,17.49-7.76,10.58-11.78,21.7-18.96,30.8-.71-.2-1.41-.4-2.12-.61-.44-3.09-.99-6.17-1.3-9.27-1.08-10.54-4.46-19.79-13.17-26.68-3.23-2.56-5.65-6.16-8.43-9.29.4-.74.79-1.49,1.19-2.23Z"/>
  <path class="st0" d="M435.24,435.21c2.95-6.89,5.98-14,9.06-21.19,8.57,4.51,34.15,35.15,35.68,41.93-6.64-.47-36.31-14.06-44.74-20.74Z"/>
  <path class="st0" d="M667.2,963.14c9.9-3.19,18.89-6.12,27.91-8.95.89-.28,2.18-.33,2.91.13,7.18,4.48,14.28,9.1,21.75,13.89-4.52,5.89-10.94,5.27-15.53,8.1-7.62,4.71-14.26,2.96-20.92-1.79-4.93-3.51-11.52-4.68-16.12-11.39Z"/>
  <path class="st0" d="M975.71,88.52c7.35,2.33,13.06,4.15,19.48,6.19-.51-2.97-.92-5.4-1.36-7.99,1.05-.57,2-1.54,2.67-1.38,2.39.58,5.6.84,6.88,2.49,8.12,10.47,15.82,21.26,23.57,32.01.45.63.14,1.81.23,3.53-1.8-.17-3.56.18-4.68-.51-14.92-9.19-29.79-18.48-44.54-27.95-1.02-.65-1.05-2.84-2.24-6.39Z"/>
  <path class="st0" d="M429.41,521.38c9.08-8.49,18.16-9.92,27.46-4.63,8.35,4.76,16.72,9.49,25.02,14.33,2.46,1.44,4.74,3.19,7.45,5.05-3,4.47-6.71,4.33-10.05,3.29-15.5-4.83-30.92-9.9-46.32-15.03-1.36-.45-2.36-1.95-3.57-3.01Z"/>
  <path class="st0" d="M1412.68,1402.82c11.67-4.63,21.88-3.39,33.35-2.85-1.6,12.92-4.92,24.2-8.43,36.11-7.75-2.65-9.16-9.87-12.95-14.84-4-5.24-7.24-11.06-11.97-18.42Z"/>
  <path class="st0" d="M1083.37,1408.53c-4.52-.89-8.03-1.72-11.58-2.22-3.22-.46-6.5-.56-10.48-.88-1.2-9.16-2.38-18.2-3.65-27.89,8.94-.86,16.87,2.54,25.71,3.48v27.51Z"/>
  <path class="st0" d="M797.63,1102.57c-13.67-4.99-25.47-10.03-39.18-16.41,8.83-6.59,15.82-11.81,22.83-17.04,5.35,3.53,14.65,21.52,16.35,33.45Z"/>
  <path class="st0" d="M443.13,818.44c-7.02,14.05-13.69,27.68-20.7,41.12-1.01,1.93-3.67,3.01-5.57,4.48-.87-2.28-2.34-4.52-2.49-6.85-.42-6.53-.46-13.11-.29-19.65.05-2.08.57-5.14,1.97-6.03,7.51-4.81,15.33-9.13,23.15-13.44.88-.49,2.42.2,3.92.38Z"/>
  <path class="st0" d="M470.42,604.89c-9.62-6.55-18.34-12.54-27.12-18.44-3.27-2.19-5.26-4.75-3.89-10.05,15.55,2.81,29.64,9.27,45.24,12.38-2.5,7.68-8.93,10.84-14.23,16.11Z"/>
  <path class="st0" d="M1322.34,370.47c-10.71,1.57-20.71,3.04-30.18,4.42-6.82-7.71-13.05-14.76-20.76-23.48,4.25-.47,6.9-1.58,8.83-.84,13.61,5.19,27.09,10.76,40.58,16.27.41.17.51,1.13,1.53,3.62Z"/>
  <path class="st0" d="M1467.5,1197.56c1.42.68,3.08,1.1,4.24,2.09,9.57,8.23,19.06,16.56,28.54,24.9.99.87,2.25,1.83,2.54,2.97.37,1.41.25,3.25-.41,4.5-.43.82-2.49,1.59-3.34,1.24-8.86-3.65-19.88-3.78-23.98-15.29-1.42-3.98-4.57-7.31-6.6-11.11-1.31-2.45-2.02-5.22-3-7.85.67-.49,1.34-.97,2.01-1.46Z"/>
  <path class="st0" d="M862.27,1079.36c-7.16,1.33-12.9,2.4-19.96,3.72-1.32-6.06-2.64-11.36-3.52-16.74-.23-1.39.53-3.39,1.54-4.44,4.75-4.94,10.58-1.6,15.93-1.58,3.71.02,4.76,3.16,5.1,6.25.43,3.88.56,7.79.9,12.8Z"/>
  <path class="st0" d="M1131.33,1701.87c-3.68-5.46-7.35-10.91-11.06-16.41,4.46-14.57,8.99-23.58,14.35-27.77,2.56,7.35-.11,14.39,0,21.33.12,7.22.03,14.43.03,21.65-1.11.4-2.22.8-3.33,1.2Z"/>
  <path class="st0" d="M583.33,1042.66c-.67-6.29-1.22-11.44-1.85-17.36,5.32-1.87,10.19-3.59,15.48-5.45,4.86,6.42,3.83,13.4,3.36,20.05-.09,1.32-3.17,3.27-5.01,3.46-3.52.36-7.15-.34-11.97-.7Z"/>
  <path class="st0" d="M778,375.22c-9.98,3.6-17.99,3.12-25.95,2.31-1.29-.13-2.89-1.77-3.52-3.1-2.04-4.34-3.7-8.87-6.46-15.69,13.92,3.47,24.51,7.92,35.93,16.49Z"/>
  <path class="st0" d="M728.83,379.87c-6.34,6.29-13.73,9.96-21.04,10.8-5.36.61-10.06-5.15-14.56-11.36,3.27-1.19,5.83-3.01,8.25-2.83,8.78.64,18.2-3.05,27.35,3.39Z"/>
  <path class="st0" d="M1294.63,1076.24c-5.01-4.34-8.92-7.73-13.75-11.91,3.6-4.22,6.85-8.04,10.49-12.3,5.5,3.15,10.25,5.87,15.21,8.72-1.87,7.03-7.6,10.09-11.95,15.49Z"/>
  <path class="st0" d="M600.98,1055.87c-1.25,6.77-2.34,12.64-3.41,18.42-13.19-1.46-17.32-5.24-18.02-16,6.33-2.9,13.08-2.46,21.43-2.42Z"/>
  <path class="st0" d="M569.78,1102.04c1.05-6.54,1.94-12.03,3.1-19.21,5.83,2.6,10.68,4.76,16.23,7.23-1.48,6.1-2.76,11.36-4.35,17.89-5.54-2.18-9.7-3.83-14.98-5.91Z"/>
  <path class="st0" d="M985.31,379.04c-3.94-8.75-8.01-15.66-8.09-24.35,8.32,5.69,17.51,9.77,24.68,19.73-6.35,1.77-11.1,3.09-16.6,4.63Z"/>
</svg>