<?xml version="1.0" encoding="UTF-8"?>
<svg id="Layer_0_xA0_Image" xmlns="http://www.w3.org/2000/svg" version="1.1" viewBox="0 0 2732 2048">
  <!-- Generator: Adobe Illustrator 30.2.1, SVG Export Plug-In . SVG Version: 2.1.1 Build 1)  -->
  <defs>
    <style>
      .st0 {
        fill: #fdd8c0;
      }
    </style>
  </defs>
  <path class="st0" d="M1357.99,1486.01l-5.98,4.98,7.67,6.18c-1.75,7.09-3.29,13.98.32,20.81-3.55,2.6-35.62-10.4-40,0,13.28-.32,7.92,5.38,10.49,9.54,1.08,1.75,6.98,1.23,3.51,6.47l48.09,4.99-.37,22.75-35.72,6.26c-1.45-6.02,7.63-5.59,10.8-7.92l.24-4.12c-7.44-5.08-16.56-4-25.05-3.93,5,12.43-2.34,9.19-3.79,13.22-7.1,19.8,53.12,18.99,34.24,43.79.49,7.28,25.53,7.27,31.25,7.26l8.27,31.71c-8.63-.84-14.66-14.71-23.98-8.98l-56.95,82.96c-34.8-8.8-15.29-21.31-4.99-38.91,7.96-13.61,9.54-21.85-1.13-34.99-8.75-10.77-15.87-4.96-5.2-24.81l-11.44-10.62c1.72-15.54,9-30.71-6.27-41.66l7.97-1.96-9.98-5.04,1.43-4.01,4.55-1.94-7.02-6.03c-3.64-1.02-9.88,12.33-16.9,5-3.05-3.19-5.6-14.58-5.13-19.14.94-9.05,6.31-5.45,8.63-8.41.86-1.1-.24-3.9,1.7-5.57,2.26-1.94,11.28-4.69,14.72-5.89l-9.99-6.99.03-3.96c10.23-3.81,3.23-10.9,7.84-18.15l68.12-2.86Z"/>
  <path class="st0" d="M862.68,931.32c5.35,5.03,10.46,7.55,11.35,16.67l3.98-8.01c10.11-.38,14.03,9.45,26,6.01l1.98,70-4.01-7.99-5.21,8.13-22.76-.14c.79-9.8,4.08-21.24,4.08-30.92,0-4.25,1.64-8.31-4.06-7.07-.19,8.16-9.76,11.6-16.16,15.13l-3.87,46.87c-6-2.93-16.43.75-20.56-.28-7.21-1.8-7.85-29.94-9.42-37.72,7.78-1.18,3.64,15.74,11.96,13.98,3.26-8.58,6.99-18.61,2.12-27.11-7.52,3.62-16.59-9-22.2-1.49-3.75,5.02-15.1,33.85-17.78,35.73-5.43,3.81-12.01-4.15-18.05-3.1l-4.97,30.05-31.08,7.9c2.84-7.86,14.38-14.08,8.15-23.11l-81.83-56.17c4.53-14.6,5.04-23.21,23.15-17.16,7.29,2.43,10.26,8.8,15.82,12.17,17.14,10.4,32.69,4.75,42.12-11.8l19.34,4.25,6.6-9.88c12.83-1.16,25.29,7.51,37.44-.49,5.54-3.65,8.09-16.13,8.2,2.2l8.02-11.98,1.01,6.02,6.68-4.56-6.3-14.49c3.96-5.92,15.66-10.15,22.5-9.02,5.73.95,5.03,4.78,7.77,7.37Z"/>
  <path class="st0" d="M1785.99,560l5.32,22.1c33.69-4.08,67.23-9.31,99.5-19.79,3.56.84,9.82,16.45,9.25,20.58-1.63,11.72-22.21,9.98-30.19,11.98-22.19,5.56-25.57,17.33-22.77,39.12l-16.09,9.89c7.65,21.93-18.51,18.49-22.59,35.55-.98,4.1-.29,8.43-.42,12.57l-7.97-5.99,1.96,14-5.96-4,.86,10.12,14.95,7.19c1.36,4.84-9.67,22.13-15.16,22.37-2.64.12-4.32-3.05-6.06-3.34-2.39-.39-4.03,2.76-5.62,2.88-2.58.18-14.89-6.9-16.99-5.21l3.14,12.09c-11.43.84-13.36,5.98-21.91,9.68-7.09-8.85-14.98-17.03-23.21-24.81-7.68-7.26-21.59-12.83-24.01-24.98l7.98,3.98-2.13-10.52c4.91-.82,12.75-14.54,15.11-13.45,1.73.8,20.8,32.5,25.01,27.98l-2.13-10.79,3.79-2.13c-2.73-4.22,1.22-8.86-.55-12.99-2.59-6.07-27.89-24.96-29.16-33.07l15.47-14.77c6.98-2.05,24.18,14.39,30.58,18.79.39,5.26-.82,2.06-3.43,1.42-4.29-1.05-8.51-2.7-12.54-4.45-2.2,2.88,8.66,21.14,11.93,23.05,6.91,4.06,5.8-2.57,8.1-3.9,4.01-2.31,10.5-1.45,13.01-7.23,2.99-6.87-15.98-37.38-9.09-44.93,2.77-3.03,12.98-3.39,11.78-7.7-2.44-8.78-13.34-17.26-17.73-24.23,4.8-8.7,9.21-15.06,13.79-24.21,1.07-2.14-1.04-3.76,4.17-2.85Z"/>
  <path class="st0" d="M1690,1358.02l-3.98,9.98c6.62-12.47,25.63,11.77,23.98,13.97-5.28-.16-32.09,19.86-27.99,24.02l10.96-4.1c1.91,6.93,3.59,2.25,7.72,2.74,1.85.22,3.22,3.4,5.31,2.53,4.66-1.96,28.81-29.32,35.02-29.27l14.7,15.56c2.33,8.36-15.96,21.47-17.76,30.55l-3.99-1.01,4.02-14.96c-9.26.02-16.31,6.66-21.97,13.03l.98,3.02c8.54,1.46,2.24,11.55,9,14.98,9.59,4.86,41.1-15.5,47.54-8.57,2.72,2.93,1.18,11.47,7.41,11.61,1.43-.02,12.25-6.54,14.11-8.03,3.37-2.69,3.98-7.99,7.94-8.29,9.36-.69,18.52,13.76,29,14.26-4.87,8.26-21.65-.72-22.19,12.94,3.65,18.2,5.41,36.95,9.12,55.1,1.78,8.68,10.59,31.94,10.69,37.33.08,4.56-13.43,11.79-17.11,12.33-17.06,2.5-13.18-39.86-22.51-48.72-6.96-6.61-25.55-6.01-34.09-5.89l-5.82-14.25-14.74.95c-11.6-11.93-14.61-29.02-35.35-25.83l6-7.96-13.99,3.97,2-5.98-8.79-.22c-2.82,2.2-.23,13.61-8.25,14.31-6.53.07-20.27-8.7-20.27-15.12,0-1.86,2.58-3.94,2.58-5.97s-2.52-4.01-2.53-5.96c-.02-2.95,7.03-13.28,5.25-15.03l-10.01,3.12c-5.83-2.78-2.12-8.57-3.12-11.22-1.14-3.03-9.58-6.9-8.78-10.7,6.68-6.09,13.84-11.44,19.97-18.16,3.27-3.59,25.43-34.84,29.95-31.03Z"/>
  <path class="st0" d="M979.53,546.42l6.45,14.74,13.47-1.73c12.27,12.36,14.33,29.29,36.54,24.58l-5.99,7.97,14-1.96-4,5.96,10.14-.84c4.41-3.09-1.93-24.93,20.52-8.8,12.89,9.27,4.79,24.2,3.36,37.66,13.85-10.19,9.72.81,13.04,7.94,1.62,3.49,8.39,5.27,6.76,10.7-13.36,8.63-20.24,21.37-29.86,32.31-4.88,5.55-25.1,25.75-13.96,7.06l-8.75,3.84-17.25-17.83c4.95.28,32.87-21.73,30-24.01l-11.13,2.17c-2.54-3.43-11.02-4.8-14.82-3.24-4.25,1.74-28.12,27.84-33.16,28.99l-15.98-15.99c-2.88-5.8,16.06-22.56,17.14-29.93l3.99,1.01-4.02,14.96c7.18.94,23.46-9.89,22.14-16.85-.31-1.6-4.08-1.69-5.17-3.17-1.36-1.85,1.66-9.89-5.03-13.08-6.13-2.92-39.62,14.61-45.67,10.8l-7.25-13.46c-5.38,3.07-11.24,5.8-16.05,9.77-3.64,3-4.31,8.31-7.97,8.22l-27.01-14.25c-.5-5.27-.11-3.24,2.98-3.94,5.68-1.3,18.42-.71,18.84-8.88l-19.81-92.38c-1.78-4.62,10.32-11.54,13.5-12.36,22.47-5.76,15.32,37.82,25.46,47.61,7.26,7.02,32.72,4.38,34.56,6.39Z"/>
  <path class="st0" d="M987.74,1298.28c.34.2,1.57,4.12,3.14,5.75,14.21,14.73,31.26,26.02,43.11,41.95l-7.99-1.96c7.31,10.61-9.67,16.37-15.98,23.98.05-2.53-.62-4.93-1.9-7.11-1.59-2.7-19.05-26.15-22.11-22.88-1.04,3.81,3.54,6.39,3.69,9.3.12,2.41-2.72,4.03-3.1,6.03-.62,3.29,4.25,6.64-2.22,6.95l-.37,2.68,29.94,32.42c2.41,9-3.6,5.98-6.51,8.47s-4.63,8.85-8.86,9.93c-3.81.97-26.28-16.46-30.58-20.8l15.98,3c2.8-3.11-6.41-19.1-9.98-21-8.55-4.55-7.59,2.24-10.07,3.97-1.58,1.1-8.96-.16-11.5,3.46-3.22,5.56,8.8,35.11,11.57,42.63.1,5.42-9.29,9.35-14.01,8.97-3.2,9.05,15.77,23.57,16.12,26.99.73,7.03-6.4,11.28-9.85,16.26-.9,1.29-5.13,16.91-7.92,7.37-2.07-7.09,1.62-18.23-9.26-18.29l-97.17,18.73c-2.59-7.58-11.1-13.73-5.72-21.86,8.18-12.35,36.41-6.29,45.9-16.13,1.59-1.65,7.19-16.24,7.56-18.63,1.82-11.91-8.42-17.22,14.21-20.62,1.31-4.83-2.95-9.7-1.62-14.44,1.96-7.01,22.22-11.8,25.34-24.83.98-4.11.27-8.44.43-12.58,10.94,12.7,7.88,3.94,3.99-6l5.97,2.01.99-8.1c-2.65-6.18-14.49-1.09-15.1-8.93-.25-3.25,4.99-14.43,7.21-16.87,6.57-7.23,26.28-1.81,34.89-.12.92-4.66-7.13-6.79-2.06-11.06,8.71,3.16,19.35-11.26,23.81-8.65Z"/>
  <path class="st0" d="M1444,479.98l-9.99.04,11.98,6-5.95,4.97c7.21,12.45,14.96-4.54,21.99-.12,3.77,2.37,7.83,21.38,5.05,25.26-1.3,1.82-5.22,1.23-6.57,2.35-1.83,1.53-1.17,5.28-3.04,6.99-2.07,1.88-11.19,3.16-13.46,7.53l9.94,5.97c-.46,3.91-7.64,6.94-7.98,8.43-.92,4,2.18,12.9-3.22,14.44-22.36-6.21-44.6,3.84-66.74.13l8.01-4.98-7.78-4.24-.22-22.76c8.72,3,22.11,5.69,31.23,5.84,3.43.06,4.53.32,6.71-2.84-12.31-3.76-7.55-9.18-8.42-10.66-.5-.85-6.42-2.98-6.76-8.48l-46.78-1.87,2.38-25.65,35.63-4.32c-2.64,6.27-14.46,3.55-14,11.96,8.99,1.37,18.35,7.85,27.13,2.07-4.07-10.35,4.16-9.55,4.44-18.82-1.25-6.59-33.52-16.79-37.75-22.05-5.51-6.85,2.88-12.82,2.15-16.06l-1.97-2.09c-9.62-4.24-17.81-5-28.06-3.85l-7.91-33.17c.81-1.06,17.72,17.47,23.09,10.16l54.23-81.95c5.03-.11,18.64,2.2,20.34,7.12,6.17,17.88-22.05,33.1-19.71,49.52.13.93,7.07,15.01,7.96,16.22,4.16,5.62,11.28,4.11,10.07,13.76-.5,3.98-4.96,8.18-3.85,11.86,1.1,3.66,9.05,3.85,9.91,10.41,1.84,14.15-11.8,29,7.94,42.88Z"/>
  <path class="st0" d="M2063.7,1066.29c2.32,3.7-2.88,19.18-6.54,21.86-13.52,9.9-34.34-20.02-48.17-20.02-1.05,0-17.88,8.18-18.89,8.97-3.43,2.69-3.5,9.44-7.44,10.7l-17.46-5.66c-4.55,1.08-2.26,11.41-12.08,11.5-13.27.12-29.19-11.17-38.14,6.35l-.98-7.97h-3.97s-5.03,9.81-5.03,9.81c-2.97-3.71-4.83-2.98-8.97-1.8-2.91,8.62,10.07,11.86,4.14,19.14-2.16,2.65-15.65,6.65-18.92,6.3-6.68-.73-19.22-18.97-22.26-25.45l-3.01,9.99c-8.82-2.89-14.76-6.65-25.14-7.91,4.44-23.14-3.81-45.44-.82-68.09l5.96,7.98,1.21-8.21c5.25-2.07,10.28.07,15.78.37,3.1.17,8.7-4.65,8.26,2.02-.68,10.21-8.8,25.98-2.24,35.82,3.55-9.65,11.26-11.4,18.77-17.22l3.17-44.88,24.1,2.07,4.94,34.04-8.97-13.99c-7.08,7.57-7.59,18.29-7,27.98,12.53-5.8,10,8.18,22.66,3.67,3.8-1.35,16.09-31.47,19.64-37.33,5.85-1.36,12.15-.37,16.7,3.62l1.97-1.96c5.22-9.53,3.42-19.72,4.8-29.14l30.2-8.85c1.29,9.16-14.08,14.1-8.11,23.09,3.38,5.1,44.11,32.54,52.29,37.76,9.02,5.75,19.68,11.24,29.54,15.45Z"/>
  <path class="st0" d="M2086.47,528.48c8.38-3.12,52.15-7.27,49.57,6.5-14.72,9.96-27.56,1.49-38.92,17.15-2.6,3.58-3.63,8.32-6.24,11.76-6.87,9.06-35.33,12.76-46.97,17.03-4.34,1.59-23.99,10.27-25.96,12.6-5.83,6.88-2.59,12.25-14.51,16.93-10.72,4.21-52.24,19.8-60.96,21.23-4.05.66-6.77-.86-10.46-1.71-.44-2.8-.04-4.9,1.8-7.14,4.7-5.72,33.81-12.18,42.18-15.81,14.96-6.48,32.3-18.78,33.85-36.15,13.92-3.92,27.44,4.1,40.12-2.89.37-2.97-5.38-2.96-7.57-3.38-22.05-4.16-35.66-2.74-56.41,5.38l17.99-14.99-11.96-4.02c-9.08-8.35,16.48-10.76,21.96-6.98l.03-17.98c10.65.36,4.69,18.05,15.97,17.98l5-21.98c5.77,6.16.88,16.47,7.08,22.92,4.52,4.7,32.5,10,39.97,8.08,6.47-3.79-1.64-18.46,4.44-24.54Z"/>
  <path class="st0" d="M2162.04,1139.99l2.9-.03c4.85-3.71,7.78-11.07,15.05-9.95,2.9,5.16-13.33,20.39-4.95,22l20.96-9.99c-3.31,7.14-12.1,12.68-12.11,20.98,0,8.35,6.21,10.58,9.83,16.28,3.34,5.27,5.72,17.68,15.18,16.83,6.93-.62,9.36-16.03,19.16-13.32,3.32.92,25.21,22.38,27.93,26.21,4.21,5.91,7.38,14.85-3.58,11.65-8.77-2.56-18.21-13.54-25.57-14.6-11.36-1.63-21.35,6.83-32.96,3.05-3.84-1.25-7.46-6-11.82-8.17-8.63-4.3-40.27-20.37-47.3-20.86-6.74-.48-10.73,3.55-15.91,3.82-11.16.58-54.04-29.79-69.54-31.72l-2.97-7.24c4.28-6.08,12.17-1.8,17.62.1,18.56,6.48,43,25.55,64.62,20.54,5.95-1.38,8.68-8.55,13.92-7.29,14.65,5.41,15.88,24.08,31.49,25.71,1.54-1.47-5.74-9.84-7.2-11.78-12.2-16.33-21.75-23.43-40.78-31.22l21.97,3.01-2.95-18.03c7.44,1.44,15.25,6.03,17.01,14.02Z"/>
  <path class="st0" d="M1769.76,1590.28c4.54,2.75,16.6,59.39,34.31,70.66,6.17,3.93,12.83,1.57,16.96,7.04,5.4,10.82-5.85,28.47,3.99,38.01,8.16-21.42,5.05-41.13-2.99-61.99l13,15.99,9.98-13.95c6.36,6.81,5.63,15.77,3.01,23.95,5.91.61,13.53-2.26,17.97,3.04,2.72,5.63-20.14,4.64-17.97,12.95,1.62,2.15,20.39,2.08,21.99,8-12.16,1.95-23.52-.55-27.15,13.87-1.09,4.35-5.02,21.74-5.04,25.13-.13,18.23,21.28,1.83,26.72,13.48,2.5,5.36,2.08,25.8,1.55,32.6-.46,5.9-.54,14.89-8.13,14.05-9.21-7.57-5.36-25.29-10.99-33.08-5.51-7.63-21.17-10.2-25.45-20.55-2.01-4.85-1.25-10.18-2.87-15.13-3.37-10.3-11.96-37.33-16.91-45.09-4.51-7.09-16-8.29-20.2-17.8-1.82-4.12-1.47-8.83-2.95-13.05-6.06-17.26-12.31-34.41-18.59-51.59-1.62-5.65,5.78-8.97,9.77-6.55Z"/>
  <path class="st0" d="M562.01,866.01l21.94,29.04,24.04,12.93-21.98-1.97,3.98,15.98c-9.7.66-14.02-7.36-18.99-13.95-4.72,3.81-7.8,11.04-14.99,9.95l5.97-21.99-21.96,12c-.45-8.37,11.68-12.93,11.47-20.65-.14-5.39-18.43-35.54-24.14-35.06-8.38.7-11.17,18.31-23.3,12.73-1.67-.77-25.25-24.32-26.16-25.92-2.22-3.9-2.32-6.77-1.88-11.1,11.33-3.18,23.86,14.48,31.39,15.62,8.21,1.25,22.95-6.67,30.6-4.79,5.83,1.43,12.89,8.76,18.61,11.55,7.43,3.63,40.49,18.87,46.43,18.67,7.12-.24,10.79-5.28,21.06-2.15,4.42,1.35,54.49,26.47,58.58,29.41,8.2,5.9,7.05,13.05-3.18,11.3-23.45-4-43.88-29.66-74.47-23.6-5.66,1.12-5.78,7.21-13.55,5.68-11.46-2.26-16.18-23.05-29.47-23.7Z"/>
  <path class="st0" d="M801.84,1418.16c.57,2.58.57,5.54-.83,7.85-3.02,5-33.12,12.48-40.4,15.6-7.78,3.33-28.35,15.02-31.59,22.41-3.89,8.88,3.25,14.95-14.09,16.02-10.01.62-18.88-4.81-28.93-.02-.46,5.26-.21,3.3,3.02,3.9,6.75,1.26,22.02,4.14,27.97,4.06,10.55-.13,21.18-7.22,30.99-9.98,3.89,3.6-15.96,12.14-15.95,14.99l13.92,8c-5.56,8.08-15.55,4.29-23.97,4.99-.08,3.61,1.33,15.08-3.02,16-7.2,1.52-3.58-18.6-12.94-17.99-2.17,6.13-2.64,12.77-4.06,19.01-.71,3.1,1.33,3.48-3.95,2.99-2.29-6.7-.27-17.4-4.91-22.12-3.25-3.31-36.74-10.71-41.13-6.93l-3.15,23.27c-3.38,2.4-40.52,2.82-45.42,1.36-1.55-.46-5.13-3.43-5.39-4.64-1.77-8.09,27.28-9.28,33.03-12.89,7.31-4.59,9.96-15.92,14.89-21.11s51.93-17,64.74-23.32c10.19-5.03,7.07-8.85,12.4-15.55,5.19-6.52,28.28-10.59,37.97-14.02,6.68-2.37,36.94-17.38,40.79-11.89Z"/>
  <path class="st0" d="M1563.99,132.01c2.65,12.14-14.37,24.3-15.58,33.42-1.08,8.17,6.23,19.72,4.79,28.61-1.25,7.7-7.68,12.63-11,19.16-4.11,8.09-19.24,38.59-19.19,45.82.03,4.52,2.83,9.31,3.07,14.09.46,9.16-11.22,24.43-15.79,34.18-5.15,10.99-11.95,41.95-26.23,36.64,3.75-28.09,28.99-50.24,23.83-80.83-1.11-6.56-7.05-8.66-5.5-15.56,2.44-10.9,25.3-15.44,23.59-29.54l-28.02,20.96-13.94,27.03,1.96-23.99c-5.06,3.46-9.23,7.13-15.97,5.99-1.71-9.93,8.61-14.27,13.98-21-6.43-3.41-11.3-6.8-9.98-14.98,8.13.62,13.65,9.73,21.99,5.97l-11.98-21.98c8.28,3.06,13.17,12.58,22.71,11.95,4.87-.32,32.05-17.4,33.06-21.36v-3.19c-4.59-7.85-18.08-12.04-12.29-22.9,5.76-3.84,29.8-35.13,36.5-28.5Z"/>
  <path class="st0" d="M1249.99,1704c.23,25.1-30.45,56.74-23.5,82.52,1.25,4.64,8.64,8.97,7.28,14.04-6.3,12.83-22.63,14.76-25.76,29.42,21.52-9.49,30.93-20.48,39.5-41.58,1.22-3-1.2-5.43,4.49-4.39l-3.98,21.98c1.88,1.83,16.94-9.94,18-2.95.8,5.27-10.72,13.97-13.97,18.01l-.02,2.91c4.57-1.07,11.95,10.19,9.98,12.03l-21.98-5.98,9.98,21.98c-2.13,2.2-14.51-11.76-20.63-11.5-8.13.35-12.1,6.85-17.52,10.34-3.68,2.37-7.98,2.22-11.94,6.05-13.11,12.66,12.76,18.39,9.14,28.99-1.23,3.61-28.74,30.18-32.83,31.17-2.21.53-4.06-1.08-6.2-1.05-1.33-11.48,14.35-22.54,15.91-31.1,1.84-10.1-3.51-15.71-4.01-23.95-.72-11.83,15.35-31.84,20.54-43.5,2.81-6.32,10.07-24.53,9.48-30.21-.44-4.21-3.63-8.22-3.66-12.22-.08-11.34,29.16-52.77,31.62-68.13l10.11-2.88Z"/>
  <path class="st0" d="M914.27,383.73c-7.18-14.13,5.76-30.31-5.28-41.72-.59,10.08-5.59,25.24-4.93,34.76.6,8.81,7.81,20.52,9.92,29.23l-14.99-17.99c-3.12,4.82-3,14.13-10.97,13.98l-2.04-23.98c-6.95,2.28-12.71,3.16-17.95-3.01l19.92-10c0-4.44-28.78-5.57-21.95-10.99,10.28.82,22.63.53,25.55-11.45,1.26-5.14,5.5-21.91,5.72-25.88,1.05-19.01-23.02-.97-26.88-14.08-1.49-5.06-.78-45,1.63-46.59,14.89-.17,10.21,24.18,15.85,33.12,3.35,5.31,14.47,8.74,19.15,12.85,9.1,7.99,17.35,50.98,25.87,66.13,4.94,8.77,8.42,6.89,14.13,11.87,11.26,9.82,17.64,55.53,27.65,70.48,1.78,5.21-3.14,12.22-8.77,8.65-14.56-24.55-15.72-73.63-51.64-75.37Z"/>
  <path class="st0" d="M2168,1541.98c-13.29,1.37-13.94,16.72-23,23.98l-9.08-21.89c-7.24-2.22-13.72,5.53-15.02,11.88-.61,2.96,3.91,16.34-1.87,14.03-8.12-7.61-14.49-16.12-13.24-27.78l-31.78-8.23c-2.95-2.88.21-3.6,2.95-3.97,13.33-1.79,28.54,7.43,38.55-2.93-4.76-20.34-21.06-28.48-34.32-41.26-2.69-2.59-3.98-8.28-6.6-9.92-9.12-5.73-16.43,6.94-26.04,7.67-13,.99-13.89-3.42-28.46,5.51-6.25,3.83-15.26,19.34-10.09-1.07l-13.02,3.93c-2.67-2.59-3.68-1.95-1.02-4.98,4.41-5.02,12.57-4.81,18.15-9.86,19.39-17.54-1.8-32.11-8.09-49.09l29.14,11.97c-7.7,34.92,23.18,11.8,39.59,20.27l69.23,64.77,24.02,16.95Z"/>
  <path class="st0" d="M595.99,1140.01c1.01,8.47-5.88,14.92-6.1,23.08-.59,22.11,23.34,24.14,40.1,24.93.57,2.84-.14,3.27-2.15,4.83-3.51,2.74-24.27,10.49-27.84,8.21-2.94-1.87-5.48-11.64-12.71-10.74-10.76,5.93-18.82,26-30.82,27.33-5.09.56-9.03-2.06-13.47-1.82-4.76.26-9.14,2.01-13.91,2.26-31.09,1.65-63.1-1.1-93.07,7.91-.51-4.3,3.48-6.17,3.46-10.59s-7.73-21.13-5.46-23.39l24.9,8.05c9.44-12.37-4.04-21.4-10.91-30.04,9.07-5.65,29.99,9.87,32.67,9.64,3.31-.28,26.14-18.73,29.32-15.65.18,9.45-32.54,25.31-27.14,34.03,21.61,11.66,46.28,4.62,69.89,5.7,4.16-1.41,3.86-14.79,7.52-20.48,4.97-7.71,16.89-11.89,17.68-26.36.27-5.02-5.61-11.56,3.03-12.89l5,7.97c-.34-2.5,7.34-15.04,10.02-11.97Z"/>
  <path class="st0" d="M963.98,1662c1.2,1.55-9.67,27.73-11.98,29.14-3.02,1.85-6.92-1.02-10.53-.7-17.04,1.5-6.98,21.72-7.29,32.56-.39,13.85-7.55,12.74-14.17,20.01-17.65,19.37-41.58,42.95-56.85,63.15-3.71,4.91-5.39,10.58-8.63,15.34-4.97,7.32-5.13-2.82-7.96-5.61-3.99-3.95-18.95-8.85-20.56-12.92-1.41-3.57,1.99-2.98,3.89-3.97,5.57-2.91,11.73-3.86,17.2-6.89,4.05-5.95-3.42-12.31-8.61-13.62-3.14-.79-18.92,1.31-16.49-3.47,8.38-8.22,16.33-10.95,27.53-13.48l8.49-31.54c2.89-2.9,3.61.19,3.97,2.95,1.75,13.41-5.62,26.7,1.14,39.17,20.02-2.16,31.16-20.86,43.81-34.17,2.69-2.83,8.86-5.47,10.12-7.94,3.87-7.61-7.56-15.97-8.75-23.52-1.57-10.01,4.77-14.22-4.31-27.51-4.04-5.91-20.9-16.97-.03-10.99l-3.92-13.03c2.56-2.63,1.97-3.72,4.98-1.02,5.13,4.6,6.16,13.93,11.11,18.9,17.68,17.76,31.8-3.38,47.83-10.85Z"/>
  <path class="st0" d="M2297.99,824.01c-4.64,12.39,2.21,21.67,2,33.98l-25.95-7.97c-.74,4.85-1.66,9.64.45,14.4,2.74,6.18,10.9,8.46,11.5,15.57-11.74-.99-21.13-3.41-30.97-9.91l-28.03,15.88c-2.58-.04-2.77-2.24-.99-4.95,6.99-10.65,26.2-15.92,25.93-30.9-22.95-11.13-44.96-1.73-68.63-5.91-4.82,1.62-5.41,16.63-8.43,21.67-5.19,8.66-13.27,6.61-16.75,23.25-1.3,6.23.9,27.54-7.11,8.89l-10.02,11.98c-3.95-7.42,3.9-16.15,4.07-22.96.6-24.38-23.18-23.81-41.06-27.05,6.6-7.67,19.71-9.26,28.8-13.82,18.27,31.29,27.21-10.29,42.62-13.74,40.93-1.98,82.49.37,122.57-8.41Z"/>
  <path class="st0" d="M1802,319l70-76,10.99-18.99c3.34,2.11,3.43,7.03,5.61,9.4,2.64,2.87,26.8,11.58,18.06,16.59l-19.82,7.91c-3.67,4.62,6.84,12.33,11.11,13.19,2.78.56,18.52-4.03,16.02,1.88-4.11,9.74-27.62,13.18-29.03,14.98-3.69,4.72-2.76,26.98-10.95,32.05v-39c0-.85-3.68-4.39-6.14-4.16-16.76,1.59-37.53,35.07-51.65,44.57-1.3,5.21,8.08,12.03,9.38,18.02,2.76,12.79-5.29,15.08,5.53,30.44,4.2,5.96,20.2,16.74.89,12.13l1.97,13.99c-9.39-.81-8.16-12.63-14.15-18.83-19.31-19.99-31.41,4.17-49.84,8.82l12.92-28.2c3.74-2.76,15.02,4.05,19.08-2.78v-36Z"/>
  <path class="st0" d="M1202,92.02l-9.84,22.77c4.08,6.75,13.1,4.83,18.61.96,4.2-2.95,5.07-10.29,11.23-9.74,5.59,9.83-9.23,27.6-9.28,30.98-.07,5.86,16.68,21.86,15.27,31.01-8.39-3.15-25.49-32.59-34.04-27.13-12.15,21.76-3.89,47.3-5.85,71.05,17.16-2.99,23.77,13.58,32.75,18.24,7.94,4.12,18.4,4.14,27.15,3.85l-5.97,9.95,10,7.02c-1.13,4.62-26.56-10.56-39.92,2.11-8.07,7.65-3.73,27.56-12.07,34.91l-10.16-30.62c27.28-15.16-2.99-22.95-11.87-36.35-6.57-9.91-1.29-12.95-1.81-22.02-.99-17.17-3.15-34.75-4.27-51.92-1.17-18,2.33-34.6-5.95-52.05,3.71-2.22,8.42,1.21,12.96,1.09,7.16-.19,14.88-6.32,23.07-4.09Z"/>
  <path class="st0" d="M1535.97,1762.01l9.77,28.79c-29.39,18.28,6.86,24.54,14.22,42.24,1.11,41.07-.54,82.76,8.03,122.95-4.26.65-6.4-3.75-10.63-3.51-3.92.22-20.79,7.99-23.35,5.51l8.01-23.09-3.34-4.67c-3.47-1.11-10.04.47-13.27,2.19-6.02,3.21-5.41,11.21-13.41,9.57,2.29-5.67,1.14-12.82,2.87-18.11,1.22-3.74,5.02-5.56,6.12-7.95,3.68-8.01-13.36-24.12-15-33.91,11.84.79,29.29,41.03,38.12,21.09,9.04-20.42-1.28-42.63,4-63.8-.73-3.02-16.03-4.4-19.97-6.46-5.75-3-7.08-10.2-14.11-13.9-9.59-5.05-17.97-3.65-28.04-4.98l7.99-6.97-11.97-8.04c-.83-4.2,1.86-3.27,4.82-2.83,7.16,1.06,12.58,6.16,20.07,5.97,24.33-.62,18.91-21.13,24.89-37.32,1.01-2.74-.73-3.43,4.17-2.79Z"/>
  <path class="st0" d="M623,518l-2.67,8.55c9.27,20.58,29.19,32.14,43.6,48.67,5.88,1.67,12.89-7.47,19.53-8.78s11.95,1.66,16.59.68c10.39-2.21,17.41-10.68,24.96-17.1l-1.01,9.97,15.99-1.97c-2.21,9.12-14.56,9.05-21.09,15.89-16.19,16.99,1.49,30.54,11.09,45.11-10.05,2.41-20.1-6.63-29.77-9.24,8.7-33.14-24.7-13.78-40.18-20.8l-68.01-63.99c-3.27-5.08-22.64-13.03-24.01-16-1.52-3.3,6.01-3.77,9.12-6.84,4.89-4.82,5.66-13.85,11.89-18.13,5.1-1.1,9.78,18.08,11,21.98,15.12-.39,13.76-17,14.96-27.98,10.64,2.68,14.1,28.49,15.38,29.62,3.12,2.75,27.69,1.3,31.63,10.37h-39Z"/>
  <path class="st0" d="M1817,940c-2.35-.41-7.1-3.07-8.96-5-.03-6.43,37.32-2.28,42.84-3.13,7.92-1.22,21.08-11.61,28.26-6.03,1.89,1.47,2.6,5.25,5,7.02,11.12,8.22,34.12-.86,47.01.98,3.49.5,2.26,2.36,3.98,4.23l6.86-2.06c6.51,23.05-41.04,9.12-45.81,16.18-1.54,17.6,17.96,26.53,15.81,43.81l-11.38-13.61-26.6,1.63-4.03,23.99c-6.57-3.23.88-21.88-2-26-3.28,6.08-30.27,4.61-31.97,1.97-.73-1.14-.32-6.03,2-6.96,10.04-3.28,19.32-3.75,27.97,2.99,2.3-22.03-28.32-3.49-32.02-18l-7.95,5.99c-1.77-2.34,3.45-18.32-3.99-19.99l-.04,6.03c-7.36-1.53-8.73-7.31-2.74-11.88l38.76,3.85v-5.99c-12.44-1.5-29.21,2.04-41.01,0Z"/>
  <path class="st0" d="M963.99,662.01c1.44,1.32-5.63,7.8-3.64,14.55,1.18,4.01,18.21,17.34,21.82,16.54l19.83-11.08-18,19.96c6.64-1.5,26.47,19.16,21.99,24.01-10.8-.89-20.93-11.7-22.01-21.99-19.13,12.7,17.49,21.94,10.03,35.99l7.98-1.98c.26,7.9-7.56,10.15-11.97,15.02-.85,5.76,2.92,1.26,5,1.63,5.92,1.06,2.92,12.72-5.07,8.4-2.95-1.6-15.5-21.04-20.26-25.74-1.75-1.73-5.18-5.8-7.68-3.3-5.94,5.95,34.24,31.48,29.98,41.98-4.15.73-5.27-.42-8-2.97-7.51-7-13.51-16.64-21.33-22.67-5.79-4.46-25.58-11.4-26.35-12.64-2.18-3.51,2.48-10.11.73-15.56-3.3-10.28-23.3-21.31-30.11-30.07-3.61-4.65-9.89-13.65-2.87-17.19,7.93-3.94,30.6,23.84,38.74,27.02,3.82-.65,8.69-15.54,10.04-19.73.62-1.94-.84-5.05.04-8.13.79-2.78,6.4-16.37,11.13-12.05Z"/>
  <path class="st0" d="M1294,496.01c18.18,2.17,26.66-16.9,43.99-16,1.08,6.26-5.85,3.61-9.93,7.05-6.58,5.53-.87,21.59-.15,29.61.38,2.26,28.25,3.61,22.07,9.33l-23.97-1.98,1.98,32-6.86.1c-3.93-7.39-4.44-19.14-1.07-26.66,1.01-2.25,4.7-.35,3.92-3.43l-9.71.26c-1.43,4.75-4.14,9.79-4.4,14.79-.42,8.3,7.11,17.03-5.89,16.95l7.99,4.97c-2.2,5-15.23,2.48-19.98,3.02l3.97,6.96c-1.67,3.31-9.64,4.53-10,1.93l3.93-36.11-4.87-4.77c-6.99,5.59-1.1,15.21-1.23,21.2-.11,4.97-1.03,17.22-1.8,21.78-.45,2.65-1.94,5.65-4.97,4.99-3.27-2.11-2.64-3.61-2.81-6.74-.49-9.17,2.14-18.85,1.59-27.95-.48-7.97-10.4-29.43-9.65-31.99,1.43-4.85,9.31-1.94,11.33-10.73,4.21-18.29-3.23-36.62,2.53-54.59,19.19-5.78,11.44,43.53,13.99,46.02Z"/>
  <path class="st0" d="M1750,1348c17.22-23.17-14.01-19.87-10.02-40l-7.94,1,11.95-12.02c2.33-4.35-7.65-2.65-7.94-5.96-.31-3.6,4.38-8.71,9.78-3.85s15.55,23.01,20.12,25.88c3.5,2.2,5.77.98,8.01-2.05-.12-2.12-26.24-24.24-29.66-30.31-2.6-4.6-3.79-7.46,2.67-8.69,15.27,17.84,28.64,33.12,52.18,39.89.63,10.22-4.88,8.25,1.21,18.73,8.81,15.14,27.62,18.08,29.98,35.13,9.51-1.43,5.41,6.52.2,7.96-10.89,3-32.4-27.62-39.3-25.61-2.72.79-7.33,12.69-8.28,15.85-2.25,7.48-.35,24.56-12.96,24.02l5.72-14.57c-3.63-5.2-18.62-18.64-24.3-17.13-4.36,1.16-10.39,11.5-17.43,9.69,4.71-6.64,11.11-11.4,16-17.98-3.79.84-4.73-2.14-7-4-2.82-2.31-18.45-16.65-14.99-19.99,12.71-.97,23.85,11.47,21.99,23.99Z"/>
  <path class="st0" d="M1452,1473c.45-2.15,4.49-8.1,7.99-6.99,2.48,13.47-1.8,30.15.14,42.87,1.1,7.19,11.51,20.98,6.98,27.23-3.21,4.43-8.96-1.37-10.86,15.12-1.37,11.82,2.59,21.2,1.93,31.88-.41,6.67-4.92,10-2.18,16.87-22.42,4.3-9.6-43.45-16.06-47.94-17,.18-26.82,20.52-43.92,15.93-1.51-6.72,5.47-2.71,10.01-4.96,7.93-3.93,2.37-25.27.11-32.15-3.8-2.68-19.1.53-22.13-6.87h33c.6,0,6.09-5.72,6.59-7.41,2.92-9.78-5.03-23.32,6.4-27.6l-5.98-4.96,18.01-.99-2.11-4.04c-1-7.81,9.04-10.97,9.38-1.74.29,7.84-7.06,33.63-1.29,37.76l4-2.02c1.66-11.66-2.27-29.25,0-40Z"/>
  <path class="st0" d="M1067.99,1386.01c.99,11.79-11.1,21.09-21.99,22.01,4.39,10.28,13.59,4.26,19.88-1.14,6.89-5.91,5.69-14.24,18.11-8.9l-4-7.96c9.01-1.5,9.94,9.22,17.01,11.97-1.31-10.36,5.13-10.3,10.95-2.99-2.36,5.28-35.81,25.15-29.95,30.99,8.89-.28,14.07-11.77,20.94-18.04,3.15-2.88,12.92-11.17,16.09-11.92,2.45-.58,6.45-.71,4.94,2.94-5.55,3.79-8.66,10.86-12.93,15.08-1.94,1.91-6.09,2.17-9.1,4.9-7.18,6.51-15.83,30.86-17.92,32.16-4.16,2.58-8.86-2.18-15.4.38-12.64,4.94-20.36,21.25-30.54,29.64-4.77,3.93-16.88,12.26-16.11.04.77-12.33,28.3-28.1,26.16-37.98-.21-.96-15.75-7.48-17.9-8.11-2.64-.76-6.1,1.3-11.66-.57-2.51-.84-13.61-7.59-10.56-10.51,3.84-.66,6.01,2.88,9.42,3.63,12.16,2.69,16.12-14,24.43-20.64-5.16-5.85-11.97-12.65-11.84-21l17.94,16c.47-5.49,19.34-24.69,24.03-19.99Z"/>
  <path class="st0" d="M1690,642c-4.74-3.8-3.53-8.72-13.91-4.92s-11.35,18.17-24.09,14.94l1.98,7.98c-9.24-1.6-9.79-13.6-17.98-11.98l2.01,5.97h-10.01c-4.74-6.97,25.83-23.63,29.03-29.95,1.78-3.5.39-3.79-2.03-5.98-4.36-.17-27.88,33.31-39,31.94-2.47-2.66,9.37-16.08,12.12-18.86,1.93-1.96,5.87-2.31,7.74-4.26,9.87-10.26,12.99-20.67,19.01-33.1l3.74-1.4c9.82,6.3,15.93-.95,23.44-7.3,8.83-12.01,18.46-21.02,30.91-29.05,16.09,12.83-24.92,36.13-22.93,44.88,3.11,7.17,48.33,10.22,39.94,21.11-4.68-2.76-9.52-7.12-15.42-4.72-2.86,1.16-16.95,18.85-15.65,22.6,1.01,2.91,13.18,15.92,11.08,18.1-7.95-2.76-13.3-10.63-19.99-15.99,4.22,3.97-21.95,29.8-24.01,18.96-1.18-6.21,15.59-23.35,24.01-18.96Z"/>
  <path class="st0" d="M868,1042v33c0,3.3,11.99,6.68,15.31,6.88,10.03.6,13.63-6.22,19.7,6.12l4.97-7.99c2.69,3.62-1.21,21.93,3.99,19.98,1.24-10.02,11.34-.67,6.12,5.09-5.51,3.48-29.69-3.85-37.12-3.14-6.78.65-7.19,7.32,1.99,8.21,5.95.58,10.87-2.11,15.83-1.95,3.69.12,26.4,2.71,27.21,3.82l-3.33,5.78c-10.09.37-23.9-2.42-33.39-1.64s-19.24,7.09-28.33,9.8c-5.39-.06-6.27-7.38-10.14-9.77-12.54-7.77-40.9,1.41-55.82-2.98-4.59-1.35-3.84-7.46-1.02-10.26,5.33-5.31,35.44-3.52,44.12-5.88,8.68-5.74-17.51-32.31-15.86-39.88l5.78-3.2c-1.07,20.47,20.82,11.25,33.8,9.8.05-5.92.36-11.4,1.94-17.17.94-3.44-1.46-5.54,4.27-4.63Z"/>
  <path class="st0" d="M585.3,436.42c2.61-.26,39.46,21.35,44.52,24.76,22.61,15.22,43.44,34.38,65.18,50.82,4.88,3.69,25.07,11.24,23,20.96-.99,4.65-11.23-1.67-16.83-.93-6.4.85-12.35,9.19-18.13,7.97-6.71-1.42,4.29-15.39,6.9-17-25.16-18.9-51.74-43.55-79.33-58.61-24.05-13.12-19.81-6.06-29.52,11.7-3.39,6.2-18.55,34.59-27.15,29.02-4.25-8-11.33-16.71-8.08-26.11,1.48-4.26,20.09-27.99,24.06-32.08,2.62-2.7,12.23-10.19,15.38-10.5Z"/>
  <path class="st0" d="M1852.01,338.01c6.74-.87,10.65,4.03,15.27,7.84,3.96.72,33.04-37.69,37.55-44.01,6.78-9.49,34.28-46.04,28.22-55.88-16.52-9.01-36.67-14.44-46.9-31.25-1.12-6.04,23.4-17.08,29.33-11.19,8.03,10.35,43.58,28.61,39.69,42.5-10.32,13.19-16.29,28.86-25.53,42.64-14.39,21.48-33.11,40.79-48.54,61.46-6.36,8.53-7.79,21.59-20.43,25.63l-4.64-2.74c10.98-15.1-3.22-21.4-4.04-35.01Z"/>
  <path class="st0" d="M2053.99,1508.01c1.14,7.64-3.08,12.12-7.84,17.26l.71,2.77c26.64,17.52,53.98,46.08,82.73,59.36,5.2,2.4,10.38,6.21,15.51,2.76,3.85-2.59,14.31-28.15,19.22-34.84,3.6-4.91,12.87-16.45,18.68-9.32,4.24,5.2,7.82,18.61,5.46,25.46-1.03,3-21.16,28.39-24.39,31.61-17.65,17.63-21.12,5.24-36.7-3.44-33.6-18.73-57.2-39.62-87.45-62.55-7.45-5.65-23.74-9.8-23.91-23.07,6.28-1.66,11.35,4.35,16.84,4,7.4-.47,13.13-10.97,21.14-10Z"/>
  <path class="st0" d="M1491.99,1857.99c2.34,22.72,4.63,45.89,8.64,68.38,1.56,8.77,7.14,44.79,14.7,47.33,11.27,3.79,42.01-19.02,58.68-8.72,2.91,1.8,1.68,2.72,1.1,5.08-1.33,5.43-6.45,17.87-11.27,20.78-5.92,3.58-44.74,6.26-52.71,5.02-2.89-.45-6.35-1.41-8.05-3.95-1.9-16.36-9.4-31.52-12.58-47.42-4.58-22.89-5.61-49.88-8.74-73.26-1.72-12.85-8.65-23.96-4.76-37.3,3.62-12.42,8.08,6.33,11.04,9.02,4.86,4.41,21.17,4.49,21.94,8.07-1.78,7.87-11.78,7.17-18,6.96Z"/>
  <path class="st0" d="M536.02,1166l-2.04-15.99c-2.17-2.27-54.73,5.25-62.4,6.56-9.58,1.64-47.19,8.04-51.73,14.26-5.53,7.57,8.83,34.11,9.72,44.62.42,5.01-2.81,11-1.57,16.55-8.86.05-22.86-3.48-27.03-11.99-3.4-6.95-7.01-49.64-3.98-56.03.86-1.81,3.67-3.59,5.55-4.45,41.47-13.32,83.57-16.34,126.36-21.64,3.66-.45,6.53-3.28,10.21-3.79,3.87-.54,22.8-1.28,22.85,2.89-3.06,4.81-9.73,4.91-13.15,8.81-6.05,6.91-1.07,21.74-12.79,20.19Z"/>
  <path class="st0" d="M877.99,1674.01c.93,5.6-4.31,9.39-3.98,14.82.31,4.96,17.85,26.3,3.84,22.35-7.46-2.1-6.65-12.35-16.95-3.27-9.27,8.18-32.5,41.59-40.53,53.45-5.16,7.62-21.76,30.57-19.54,38.71,1.86,6.8,30.13,16.13,37.9,22.2,3.43,2.68,11.99,13.39,9.1,17.55l-22.34,7.83c-5.51-.8-40.21-29.24-43.22-34.92-1.62-3.05-3-5.62-1.92-9.23,7.81-10.89,13.03-25.47,20.02-36.16,15.36-23.52,35.66-45,52.47-67.53,7.33-9.81,9.25-25.84,25.16-25.82Z"/>
  <path class="st0" d="M2202.25,899.74c36.74-4.14,74.48-6.84,109.58-18.9,12.97-7.94-3.24-28.63-5.36-42.32-1.03-6.65-.65-13.57-.21-20.23,3.18-5.06,25.89,4.78,28.26,10.18-.2,13.74,11.68,51.8-.61,60.44-2.01,1.41-41.63,11.4-47.47,12.53-23.93,4.65-49.21,5.39-73.2,8.8-11.53,1.64-20.35,7.27-32.34,5.85-17.74-2.1,3.39-10.36,6.07-14.11,4.44-6.2,1.64-14.94,8.03-19.93,6.38,4.13,4.52,11.5,7.25,17.7Z"/>
  <path class="st0" d="M1257.99,218.01c-9.48,2.25-6.11-9.53-13.36-13.65-6.62-3.76-24.88-.59-16.63-11.36l13.74-3.28c.42-4.84.64-9.95.33-14.81-1.34-20.9-7.38-56.89-12.7-77.29-1.43-5.49-3.88-16.01-7.26-20.2-6.23-7.72-14.49.82-21,2.67-7.1,2.03-38.23,11.1-40.95,2.62-1.47-4.56,6.3-23.18,12.36-25.22,12.44.03,51.86-10.99,59.37-.39,1.3,14.68,8.74,28.79,11.62,42.38,6.56,31.03,10.25,66.56,14.4,97.6.89,6.67-.35,14.11.1,20.9Z"/>
  <path class="st0" d="M940.01,1651.99c-.55-3.54-.12-4.38,2.07-6.91,6.33-7.29,19.03-14.42,26.94-23.06,13.78-15.05,35.61-43.35,44.74-61.26,16.97-33.33,14.25-55.4,46.22-81.78,4.21-3.47,18.74-14.57,15.65-2.4-1.25,4.94-14.8,20.56-18.66,27.38-14.38,25.4-21.7,56-35.21,80.79-9.04,16.59-21.41,22.89-31.75,36.25-7.17,9.26-11.69,26.79-25.1,28.9-7.97,1.25-16.87-.02-24.89,2.09Z"/>
  <path class="st0" d="M799.52,1128.52c7.37-.99,39.67-1.5,43.51,3.46,1.99,2.56,1.04,3.26-1.1,4.95-2.67,2.1-35.44,8.08-43.47,10.53-27.84,8.48-65.9,32.08-93.39,32.66-7.26.15-13.59-2.19-19.76-1.98-10.04.34-25.07,8.1-34.15,7.72-10.17-.42-20.88-15.02-29.12-20.86,2.5-3.88,3.19-2.17,5.95-2.06,42.1,1.77,78.37,1.47,119.04-12.91,16.11-5.7,37.17-19.45,52.48-21.52Z"/>
  <path class="st0" d="M1229.99,280.01c-.94,9.67-4.22,23.76-4.16,32.99.14,22.55,7.07,64.45,14.14,86.03,6.27,19.17,21.73,41.6,23.78,60.22.63,5.74.73,41.64-4.78,42.74-6.86,1.37-8.69-27.25-10.41-33.55-7.53-27.72-22.14-52.84-30.6-79.4-7.25-22.79-3.61-24.89-3.91-45.93-.25-17.67-14.65-30.23-2.08-48.12,2.1-2.99,14.74-17.82,18.01-14.97Z"/>
  <path class="st0" d="M1479.91,1548.05c3.57,14.42,5.28,29.21,9.53,43.52,7.44,25.07,29.29,60.07,32.4,83.6,1.5,11.32-.93,24.37.19,35.81,1.07,10.91,7.88,22.92,5.9,33.91-1.41,7.84-14.48,17.96-18.95,25.09-4.5.84-2.78-1.98-2.99-4.97-.85-12.14,2.81-26.18,2-39.99-1.29-22.17-5.68-52.49-12.46-73.54-5.12-15.9-21.48-41.05-23.34-54.66-.84-6.15-.64-46.8,1.86-48.82l5.87.05Z"/>
  <path class="st0" d="M1795.99,398.01c1.03,3.94-1.64,3.87-3.36,5.62-30.53,31.09-55.65,51.43-74.98,93.02-7.64,16.43-12.63,39.63-22.82,53.18-2.87,3.82-30.7,32.62-34.82,28.16.02-12.07,11.1-21.25,17.03-31.95,15.1-27.29,25.88-69.11,42.09-91.91,6.22-8.75,17.92-16.51,24.83-25.17,5.15-6.47,8.16-14.57,13.23-20.77,10.18-12.43,23.78-8.16,38.81-10.17Z"/>
  <path class="st0" d="M1993.99,1451.99c-3.47.91-3.99-1.45-6-2.98-8.41-6.43-18.55-21.6-27.97-30.03-10.84-9.71-30.76-25.4-42.97-33.03-35.32-22.07-72.59-21.27-99.05-58.95-2.44-3.47-4.7-6.36-4-10.98,3.09-3.04,32.94,19.27,38.63,22.35,26.47,14.31,71.37,24.42,92.34,43.66,5.77,5.29,9.35,12.47,16.07,17.93,7.22,5.87,23.56,11.81,27.91,18.09,4.97,7.18,3.41,24.68,5.03,33.95Z"/>
  <path class="st0" d="M2111.99,885.99c-14.01.32-26.85-2.69-41.07-2.07-25.66,1.12-57.23,6.27-81.41,14.59-14.22,4.89-38.46,19.65-50.68,21.32-6.41.88-48.68,2.04-48.78-4.82,8.33-8.21,23.12-6.55,34.37-9.59,24.28-6.57,45.93-18.45,69.09-26.91,27.71-10.12,34.81-5.83,61.48-8.52,11.04-1.11,20.5-7.65,31.89-5.88,4.91.77,28.28,19.12,25.12,21.89Z"/>
  <path class="st0" d="M919.99,731.99c-4.1,3.94-26.1-14.58-31.38-17.6-28.44-16.3-77.86-27.7-99.7-48.3-5.06-4.77-8.03-10.93-13.96-16.04-9.93-8.57-29.8-14.04-32.5-27.5-1.48-7.39.44-15.84-2.46-23.51l4.01-2.06c24.93,28.17,56.63,58.66,90.65,75.37,16.12,7.92,41.87,13.39,55.22,22.78,4.56,3.21,34.9,32.28,30.12,36.86Z"/>
  <path class="st0" d="M829.97,252.02c-4.82.87-3.12,14.89-3.98,15.99-6.22,1.58-3.99-6.28-7.98-9.03-1.36-1.87-3.39,1.09-3.73,2.3-3.68,13.31,6.28,24.94,9.74,36.73,2.08,1.59,7.75-13.88,11.01-8.03,5.5,12.19-.19,33.42,6.06,43.94,2.21,3.71,7.37,4.39,9.82,8.18,2.94,4.54,3.23,12.91,5.54,18.46,9.16,21.99,29.13,70.33,41.88,88.12,4.76,6.65,13.39,8.61,13.66,17.32-.64.62-15.38-2.46-17.5-3.48-6.74-3.25-18.39-38.09-22.73-47.27-16.2-34.26-32.65-68.67-49.4-102.6-5.83-11.82-30.14-50.8-29.77-61.4.17-4.78,14.94-11.71,20-13.64,7.42-2.84,13.45-4.72,20.46.37,13.3,9.66,5.33,34.12-3.07,14.05Z"/>
  <path class="st0" d="M451.99,859.99l-11.99.03,7.99,13.97-12.01-.97c6.18,13.2,20.98,17.8,34.01,20.97l-1.98-11.98c5.26-5.29,29.73,23.17,35.88,25.1,6.26,1.96,12.57-.13,18.63,1.37,4.75,1.18,19.52,10.21,26.98,13.02,26.2,9.85,65.02,26.91,91.52,26.89,2.27,0,7.17,1.09,8.97,2.6-5.55,6.22-13.54,12.43-22.5,10.65-34.04-12.71-69.47-28.67-103.54-40.59-29.21-10.21-77.59-18.76-103.36-32.64-2.86-1.54-8.62-5.5-8.26-9.03.16-1.59,5.55-16.69,6.69-19.35,12.54-29.36,38.11-5.08,32.97-.03Z"/>
  <path class="st0" d="M2137.99,484.01l-13.99-2.03c-1.78-7.76,11.96-1.86,9.99-9.97-15.32-1.75-27.95,1.38-39.98,11l9.95,5.99c.05,7.56-38.79,4.93-46.57,9.39-4.23,2.43-5.08,8.39-9.47,10.53-14.97,7.29-37.38,13.72-54.35,21.65-21.75,10.18-48.44,20.12-63.58,38.45l-4-2.05c2.51-7.49,1.45-16.29,9.26-20.71,32.82-15.57,68.65-29.13,101.17-44.83,13.15-6.35,26.33-13.77,39.63-20.37,11.31-5.62,55.87-32.58,64.88-31.16,5.36.84,16.25,23.58,16.59,29.63.99,17.54-24.18,21.96-25.52,15.45-.82-3.98,7.28-6.06,5.98-10.96Z"/>
  <path class="st0" d="M1904.04,1795.98l3.96-1.05,2.03-14.94,9.96,12c4.01-15.69-4.4-25.79-8-40l-11.96,7.99c-3.09-2.24-2.55-36.57-5.52-43.49-2.48-5.77-9.52-6.79-11.47-10.53-2.63-5.08-5.33-19.49-8.68-27.32-8.97-20.96-22.59-53.11-34.01-71.99-5.78-9.55-12.74-13.62-18.34-22.64,7.93-.53,16.62.76,22.9,6.08l45.35,102.65c2.87,6.16,7.82,11.13,10.79,17.21,6.07,12.44,41.67,80.24,40.99,86.99-.95,9.47-43.71,31.39-47.66,1.53-1.39-10.56,7.9-12.14,9.66-2.5Z"/>
  <path class="st0" d="M2293.99,1189.99l-7.98-15.98c25.15,11.91,9.94-6.7-.6-12.42-6.43-3.49-14.9-3.97-21.39-7.59-.97,1.19,6.07,16.01-.98,13.97-10.49-4.88-24.93-24.8-35.05-27.14-5.41-1.25-9.14,2.15-14.47.79-3.44-.87-8.94-6.58-13.56-8.59-29.79-12.98-77.59-30.93-109-33.03-2.98-.2-5.78,1.52-4.95-2.98,15.57-19.59,41.89.39,60.91,7.04,26.83,9.38,53.95,18.2,80.63,27.37,25.59,8.79,60.65,17.17,83.82,28.18,4.03,1.92,10.22,4.24,10.7,9.46.19,2.05-6.82,23.04-8.38,25.62-8.17,13.5-23.66,9.58-31.66-1.7,3.78-5.35,6.17-4.99,11.95-3.01Z"/>
  <path class="st0" d="M1531.98,98l-13.96,8,.99-13.99c-14.04,6.91-17.56,22.03-20.99,35.99l11.97-1.99c4.77,4.68-23.77,29.03-25.57,35.41-1.49,5.29.4,11.51-.84,17.16-.87,3.98-8.67,16.58-11.09,22.91-7.57,19.82-28.6,69.65-30.4,87.77-.51,5.11,5.31,17.27-4.06,16.71-2.12-7.54-10.58-11.37-7.65-20.47l39.71-102.41c11.4-32.23,18.74-74.14,33.54-104.47,1.74-3.57,2.76-8.31,7.37-8.72,3.89-.35,21.67,5.94,25.66,8.41,14.48,8.99,11.37,23.57-1.68,31.62l-3.01-11.95Z"/>
  <path class="st0" d="M1295.96,1742.02c.59.5,7.37,12.3,7.63,13.4.86,3.68.79,7.45-.03,11.13-17.6,39.52-30.15,81.21-44.13,121.88-8.19,23.83-17.89,63.14-28.39,83.6-.97,1.89-1.46,3.39-3.15,4.95-6.52,6.01-34.1-5.3-38.08-15.93-5.06-13.49,11.47-28.15,14.07-17.79l-1.87,8.73,15.97-7.99-3.96,9.03c-.4,6.29,5.43,2.14,8.08.07,9.61-7.54,10.07-21.18,15.9-31.08-5.19-.49-10.13,4.82-13.95-1.01-.24-5.7,24.68-26.62,27.16-34.95,1.76-5.91-1.84-9.6-.92-14.59.68-3.71,7.86-12.75,10.07-18.11,7.85-19.1,28.39-68.95,31.17-86.83,1.21-7.78.16-15.7.47-23.51l3.97-.99Z"/>
  <path class="st0" d="M807.99,1480.01c3.86,25.86-21.69,27.16-39.34,35.64-28.37,13.63-56.57,27.68-84.61,41.39-12,5.87-83.07,43.01-88.74,42.45-6.85-.67-17.43-23.55-17.48-30.48-.1-14.1,12.02-17.9,24.18-17l-5.99,11.97,15.99,5.03c-.45,1.38-16.57,4.37-10.02,8.02,10.24,5.71,28.89-4.78,37.99-10.03l-7.02-4.94c-4.09-5.97,10.15-7.62,14.09-8.03,10.06-1.03,20.98,1.89,30.41-3.42,4.19-2.36,4.37-7.35,10.01-10.16,29.32-14.61,83.52-29.14,108.36-49.63,3.82-3.15,5.7-11.27,12.18-10.8Z"/>
  <path class="st0" d="M1470,864.02c-6.81,8.17-18.55,11.72-22.85,22.13-1.65,4.01-1.53,8.65-3.03,12.97-3.71,10.68-10.52,15.78-4.61,30.37,1.89,4.66,28.81,25.53,33.59,26.42,14.1,2.61,23.59-8.28,34.7-15.11,1.72-1.06,4.37-5.05,6.22-1.78-5.02,13.02-14.55,20.59-25.05,28.96l-4.09-4.14-5.66,1.98-1.5,7.82c-3.25,5.18-22.56-.45-27.51-2.83-17.93-8.61-45-43.9-36.69-64.3,7.48-18.37,14.56-19.76,29.17-28.83,8.29-5.15,15.45-13.71,27.33-13.65Z"/>
  <path class="st0" d="M1552,983.98c-9.16,0-17.46-3.33-26.88-1.84-6.77,1.07-10.36,5.75-15.73,8.26-12.93,6.03-23.37,6.2-24.98,25.19-.19,2.23,3.34,27.95,4.01,31,3.37,15.42,25.96,14.74,37.99,18.03,2.05.56,6.06.5,5.58,3.36-8.33,3.36-32.97,6.45-39.9,1.9-.4-.26,2.4-6.91-3.33-7.75-3.28-.48-6.13,7.85-14.64.74-18.3-15.3-14.89-73.24,3.77-85.97,3.71-2.53,24.86-8.97,28.93-8.79,4.65.2,11.48,4.16,16.67,5.41,9.1,2.19,21.27,1.76,28.51,10.47Z"/>
  <path class="st0" d="M1408.02,1210c.26-10.44,3.9-19.44,1.05-30.07-.45-1.67-11.61-26.17-12.52-27.47-6.28-8.98-17.06-11.89-27.44-10.34-7.81,1.16-15.89,2.76-23.99,4-14.41,2.21-14.62,25.06-17.73,36.29-.57,2.05-.5,6.05-3.36,5.58-3.25-7.27-6.36-32.22-1.59-37.56,1.04-1.17,6.7-.6,7.57-3.48l-4.04-9.97c11.91-25.86,74.74-21.39,88.93-2.88,1.89,2.47,8.73,25.65,8.79,28.85.12,5.82-4.02,11.45-5.19,16.54-2.23,9.7-1.47,22.87-10.48,30.5Z"/>
  <path class="st0" d="M1312,902.04c-10.53,15.98-.49,9.65,4.09,12.83,5.38,3.74-.14,23.68-3.23,28.98-6.23,10.67-32.52,33.04-44.27,35.72-24.29,5.56-43.27-18.47-53.88-37.28-3.09-5.49-8.16-15.07-7.72-20.28,6.89,5.74,13.23,18.84,21.53,22.47,4,1.75,8.65,1.46,12.94,3.06,10.57,3.96,11.98,9.47,27.12,6.03,12.09-2.74,13.02-12.11,18.54-19.45,8.27-11,17.34-11.36,10.35-28.61-1.7-4.19-17.59-25.19-15.45-27.51,13.17,4.52,19.38,17.62,29.98,24.04Z"/>
  <path class="st0" d="M1241.72,978.3c.93.84.95,8.42,5.26,9.37,19.92-15.24,27.84,29.34,26.91,43.03-.76,11.18-8.96,39.41-19.93,44.24-2.34,1.03-21.92,5.15-24.95,5.21-13.05.29-33.79-9.55-46.99-12.19-.54-3.33,4.89-2.2,7.05-2.06,20.13,1.3,30.6-.92,48.79-11.06,17.88-9.97,10.82-25.5,8.3-40-.95-5.47,1.2-11.5-1.18-16.82-4.22-9.44-31.38-12.82-40.98-14.04-.58-5.23.09-3.16,2.93-4.04,4.97-1.54,32.72-3.51,34.79-1.64Z"/>
  <path class="st0" d="M1527.98,1126c-8.83-5.52-12.7-18.05-22.83-22.15-4.24-1.72-9.14-1.31-13.19-2.81-4.68-1.73-7.39-6.13-13.12-6.97-9.67-1.42-19.22,3.18-25.78,10.01-2.02,10.23-15.68,18.05-17,27.07-2.27,15.5,12.42,25.54,16.9,38.87-12.38-3.47-18.16-10.97-25.01-20.58-1.17-1.64-3.76-1.37-3.87-1.55-1.13-1.89,6.36-8.97,1.82-13.83-16.39,5.71-7.96-21.06-3.64-28.77,8.81-15.72,38.62-37.77,56.83-37.02,4.75.19,25.79,14.32,28.9,18.71,2.19,3.1,2.43,6.92,4.29,9.71,6.18,9.28,13.94,17.59,15.67,29.31Z"/>
  <path class="st0" d="M1266.02,1186l17.05-15.92c8.45-20.11,25.9-43.95,2.8-60.94-6.1-4.48-10.11-7.38-15.96-12-18.16-14.38-31.03,7.26-47.91,12.86,3.08-13.72,15.24-21.48,25-29.98,1.65,6.02,5.45,3.93,10.99,3.98l1.29-10.08c28.36-6.25,65.04,36.11,64.34,61.16-.13,4.72-12.64,25.86-16.58,28.99-3.71,2.94-19.78,12.21-24.94,15.06s-11.16,3.7-16.09,6.88Z"/>
  <path class="st0" d="M1397.39,899.38c6.89-6.38,9.42-29.7,10.63-39.38,10.45,9.19,4.33,26.67,6.1,38.87l-10.13,4.18c12.93,13.4-11.69,25.21-23.16,26.78-15.59,2.13-48.88-1.85-59.81-13.84-6.08-6.67-7.05-21.77-9.2-31.01l12.21-44.96c5.42,3.46,0,14.26-.09,19.08-.2,10.58,12.22,30.63,17.07,40.9,12.84,11.78,20.9,6.27,34.15,4.16,7.24-1.15,15.77,1.2,22.23-4.78Z"/>
  <path class="st0" d="M1780.01,1056.01c8.02-.6,3.86,13.04,11,15.98l.95-6.7c5.95-5.15,6.18,2.43,8.88,4.79,7.23,6.3,16.57,9.89,12.77,22.5-2.25,7.48-20.63,19.61-27.58,10.43,1.92-4.33,10.58-5.05,11.95-8.01,2.92-6.28-3.12-4.11-5.32-5.64-1.22-.85.18-4.96-4.63-3.34l-3.14,5.82-6.89-1.83c-1.98,4.13,4.31,18.87-1.04,19.98-7.29,1.52-3.79-14.05-5.99-14.01-9,.02-6.47,17.22-13.96,14-6.17-2.64-2.31-15.92.98-19.97-7.73,4.77-11.63-3.11-15.36-3.72-2.69-.44-6.22,4.42-10.05,5.3-7.57,1.74-16.65-1.1-24.57,2.42-5.3-12.34,3.2-16.52,9.95-25.1l16.13,2.04,1.91,9.06c8.7,1.22-1.1-11.34,9.36-11.71,5.14-.18,4.84,9.74,11.61,7.68,6.89-2.1-4.22-22.74,7.96-20.03,11.03,2.46,2.29,18.82,14.05,18.03,4.61-1.08-.7-14.22,1.03-17.97Z"/>
  <path class="st0" d="M1718.01,783.99l3.98-15.98c-.51-.52-11.34,1.77-11.74,2.29-1.4,1.83,1.81,8.66-6.22,10.7l13.95,12.03c2.2,4.37-6.71,3.36-8.77,2.7-3.79-1.22-1.42-7.41-7.21-5.71l3.98,19.98c-11.74,2.1-11.56-8.21-17.96-13.98,1.06,7.87-13.08,5.06-14.02,6,4.52,17.42-12.67,16.26-14.04,29.99-11.99,3.26-16.53-22.95-11.52-27.54,2.82-2.58,9.17-.62,10.65-6.47l3.82-.06,4.07,6.04c6.35-3.93-3.97-8.16-3-12.92.88-4.34,12.28-2.97,16-3.05,1.11-11.77-16.8-10.29-9.86-23.87,5.68-3.99,18.55,12.72,23.85,5.86,4.05-5.23-19.29-11.35-8.99-17.95l13.98,7.98-2.97-10.01c10.4,1.42,23.22-4.6,31.93,3.06s4.19,31.82-9.93,30.92Z"/>
  <path class="st0" d="M978,957.99c5.37-2.66,13.39,5.43,15,5.45,1.94.02,7.2-6.32,10.53-7.09,5.05-1.17,17.15,3.22,24.46-.35,1.82,17.73-12.38,30.43-29.19,20.08l1.19-8.07c-7.21-.52-6.2,7.27-6,12-8.09,3.88-10.91-8.9-14.96-8-7.29,5.11,2.28,21.82-8.4,21.56-9.89-.24-4.09-17.98-11.66-19.56-9.77-2.04.79,17.2-5.97,19.95l-8.01-15.95-5.97,7.99c-4.35-8.64-18.85-14.37-18.88-25.01-.03-13.39,30.67-26.02,27.85-14.02-.82,3.49-13.57,4.6-12,11,4.54-.4,7.92,1.13,8.05,6.02l5.18-5.91,8.77,1.91-1.98-19.98,7.04,1.94,1.94,12.04,10.04-15.98c10.96,4.09,5.31,12.48,2.97,19.98Z"/>
  <path class="st0" d="M1588.02,1322.04c-1.12,1.23-.35,5.34,3,4.01l12.97-4.05.02,14.01c9.94,4.07,12.69-15.78,22.1-9.13,9.75,6.89-15.66,17.46-1.11,25.08,5.43-4.12,6.38-13.39,14.99-11.95,2.31,2.13-14.04,15.64-4.02,17.97l6.02-3.98c-.81,8.29,4.64,27.58-4,32.98-7.29,4.56-32.31,1.69-29.98-10.97l15.98,1.98v-11.97c-8.55,3.51-8.32.37-12.99-5.98-2.1,0-10.02,19.03-14.99,13.95-3.11-3.19,3.97-11.42,5.99-13.97-5.72-1.6-10.18,1.35-14.76,2.28-1.54.31-4.33,2.93-5.24-1.33-1.31-6.15,8.53-12.67,13.99-12.99-4.5-5.26-7.22-8.38-6.02-15.95l-12.77-2.24c-1.99-5.47-17.02-12.93-16.93-16.48.25-9.46,22.89-11.99,27.83-6.4.84.95,6.06,11.39,5.92,12.05l-6.01,3.07Z"/>
  <path class="st0" d="M1314.6,1369.38c2.3,1.52,5.61,1.82,6.89,3.08,5.71,5.59-2.46,12.49-.43,19.56l-2.13,1.95-6.91-1.95c-.61,7.91,8.89,3.22,11.98,9.02-1.7,7.42-10.9,5.06-8,14.96l16.73.29c3.65.91,4.91,8.06,2.13,9.93l-16.57,4.06-.27,7.71,14.64-1.78,3.34,5.78c-6.23-.4-16.04.36-15.97,8.01l7.97-1.99c2.41,2.56-12.07,18.01-14.98,20-15.53,10.65-28.65-7.85-27.04-22.89l5.03-1.16,4.93,10.86c3.35,4.56,7.75-5.98,9.73-7.84-5.33-4.55-5.4-6.27-3.68-12.97l-19.98,1.98c.13-7.8,7.74-8.7,13.99-8.01-2.54-8.45-15.83-6.27-13.99-15.95,7.88-3.92,12.5.68,19.99,1.95-4.74-6.46,4.04-10.51,4.05-15.02,0-3.65-4.71-5.27-5.65-8.36-2.01-6.57,1.33-16.21-2.16-23.45.88-3.69,7.83-3.78,10.79-3.22,4.76.89,4.15,4.5,5.57,5.45Z"/>
  <path class="st0" d="M1439.9,594.07c-3.89-2.52-9.13,4.07-9.56,7.31-.39,3,6.51,7,1.66,12.61l19.99-1.98.02,7.98-14,1c4.46,4.39,7.51,9.9,14.64,9.06,5.24,11.43-12.36,9-18.63,3.95,1.86,8.09-2.79,10.61-5.88,16.72,13.29,9.39,1.43,19.61,9.64,30.31-9.71,10.91-16.85-1.52-25.57-6.27l1.89-18.65,9.91-.13c-1.03-5.17-10.81-3.07-11.99-7-2.14-7.12,10.13-6.85,7.97-13.96-2.12-6.98-22.13,4.69-22.09-8.05.02-9.52,21.39-2.4,20.12-13.93-.79-5.51-17.84,3.75-20-5.02,4.76-1.96,18.41-.73,14.99-8.03-16.04.37-1.5-6.26,1.93-10.11,4.05-4.56,2.41-9.89,12.59-11.48,19.85-3.1,27.23,27.46,17.49,27.56l-5.1-11.89Z"/>
  <path class="st0" d="M1112.25,681.76c1.36,1.3,10.31-1.55,9.79,6.23h2.94c3.43-1.45,8.32-15.49,11.99-13.97,8.56,3.54-2.55,12.16-4.97,15.96l19.99-3.97c1.23,8.04-4.09,14.05-11.99,14.01l5.86,17.13c13.42-.98,11.91,4.25,18.33,9.67,4.56,3.85,15.89,6.44,7.35,14.72-1.37,1.33-14.46,4.36-16.82,4.37-9.6.03-7.6-10.15-14.63-14.9l5.89-6c-4.45-6.73-6.42,4.81-12.93,3l-2.93-4.8c1.21-4.35,3.64-8.05-1.14-11.2-8.58-2.41-14.17,24.21-22.67,5.34.25-2.81,14.67-17.14,4.67-19.34-4.61-1.01-8.33,13.64-14.96,11.98l6.02-16.97-10.02,2.97c3.42-10.55-3.46-23.61,3.88-32.56,5.81-7.09,26.49-3.56,30.51,5.2,5.13,11.18-12.22-2.12-15.46,3.36-.42.71.95,9.43,1.31,9.77Z"/>
  <path class="st0" d="M1078.64,1246.66c-1.23.84-1.68,3.05-2.58,4.33l-3.04,1-7.01-5.98,4.06,9.07-2,6.04-12.05-1.11c-3.89,8.37,14.89,16.88,9.94,23.94-4.09,5.83-17.91-8.65-23.94-5.94-2.06,9.97,11.86,8.41,9.98,17.98l-17.99-5.97,5.02,5.98-2.09,3.99c-9.7-2.68-18.31,2.33-27.49-2.44-10.38-5.4-6.9-28.35,3.56-33.51,6.12,4.38-.61,11.79,1.01,17.95l12.01-2-.26-8.81,6.23-1.2c-2.41-7.65-17.36-10.07-12.98-18.01,7.73-.52,8.15,4.08,12.96,8.03,1.5-8.18-1.11-12.94-3.97-19.99,4-.17,7.61-.65,11.14,1.84,4.63,3.26,2.76,10.25,6.82,12.14-.25-8.77,10.07-4.07,13.1-7.93-2.73-6.72,16.5-28.15,19.91-28.19,8.84-.09,10.7,21.41,7.23,25.34-1.94,2.2-5.45,2-7.57,3.45Z"/>
  <path class="st0" d="M1788.01,547.99c-2.23-32.13,20.42-60.43,21.97-91.99-1.59-2.17-27.5,24.44-31.01,25.98-2.46,1.08-3.7-.42-2.94-2.94,1.94-6.49,15.86-25.66,20.93-31.08,6.74-7.22,18.8-14.02,25.04-20.96,11.13-12.39,20.01-32.2,33.98-43-3.73,19.29-16.81,35.49-23.53,53.45-4.2,11.24-6.05,23.88-10.41,35.59-8.89,23.83-19.32,47.07-26.43,71.57l-7.6,3.38Z"/>
  <path class="st0" d="M1452.25,1737.75l5.74.26c.05-12.23.58-24.91,2-37.05.33-2.81,1.27-5.91,3.99-2.97.51,7.47,4.32,14.2,5.51,21.51,2.8,17.13-1.03,32.41-.32,48.77.69,15.86,6.74,35,6.9,50.69.04,3.98-.29,3.22-4.05,3.04-6.6-33.51-24.57-60.72-38.37-90.65-7.48-16.22-24.28-48.24-28.7-63.3-.79-2.69-1.31-5.24-.94-8.04,3.1-.57,4.64.31,7.09,1.89,12.31,7.97,31.77,61.02,41.15,75.85Z"/>
  <path class="st0" d="M687,1116c1.58.2,4.24,2.87,7,2.02,4.42,4.12-30.11,9.76-33.02,9.96-13.87.92-26.32-1.8-39.94-1.94l-50.01,7.99-1.02-3.99c55.36-17.83,105.61-47.13,158.95-70.04,5.17,3.49,2.31,7.16-1.14,10.82l-73.81,40.21,3,4.98c9.54.86,20.74-1.19,30,0Z"/>
  <path class="st0" d="M924.01,1591.99c4.04,4.12,25.43-21.52,31.02-23.97,7.39-3.24-3.25,14.32-4.19,15.82-11.72,18.74-23.81,23.31-36.82,37.18-12.04,12.83-21.45,32.89-35.03,44.97-1.51.31-1.28-1.93-.96-2.95,4.42-13.94,15.28-29.14,20.9-43.11,14.22-35.33,23.44-79.78,40.06-113.94,1.08-2.22,1.85-4.46,4.01-5.95,5.95,4.16,5.27,7.95,4.51,14.42-1.32,11.21-26.52,74.45-23.5,77.53Z"/>
  <path class="st0" d="M2007.99,1513.99c-2.06,1.94-44.97-21.01-51.47-23.51-34.26-13.2-72.58-22.88-107.08-36.92l-5.44-7.53c5.26-1.68,8.83-2.39,14.48-1.59,11.23,1.59,73.16,27.36,77.51,23.56-4.06-13.94-19.16-20.62-25.98-33,9.62-1.19,22.72,9.68,30.01,15.99,10.5,9.09,17.78,21.25,27.92,30.08,10.27,8.93,25,16.91,35.48,26.52,2.16,1.98,5.57,2.09,4.56,6.42Z"/>
  <path class="st0" d="M1276,343c-.26,2.17-3.21,5.55-2.02,9-3.53,4.76-9.72-30-9.95-33.03-1.05-13.56,2.42-25.83,2.1-37.98-.38-14.31-6.72-34.18-7.32-49.01-.12-3.07-.83-4.98,3.16-5.98,16.54,56.53,48.1,106.52,70.05,160.97-1.2,2.39-6.06.92-7.98-.02-10.64-5.23-29.42-56.42-38.38-69.62-1.44-2.12-9.67-11.46-9.67-4.33,0,9.26,1.05,21.25,0,30Z"/>
  <path class="st0" d="M2166,916.02l-161.99,71.97c-.66-6.28,2.15-8.94,6.49-12.49,11.07-9.05,68.53-31.41,71.48-38.53,1.69-4.07-2.74-2.83-4.94-2.98-9.98-.66-20.13-.38-30.05-1.98-2.97-.48-6.17-.11-6.99-3.99,12.94-2.74,25.96-6.85,39.34-7.26,9.18-.28,22.2,2.82,31.32,2.48,17.42-.65,37.4-7.54,55.34-7.22Z"/>
  <path class="st0" d="M800.01,582.01c-5.39,4.81,27.8,26.78,23,33.98-25.29-8.77-37.82-32.02-56.06-47.94-2.84-2.48-43.04-30.45-40.96-32.02,17.17,2.39,32.08,14.6,48.04,20.94,34.76,13.82,75.18,23.18,109.97,38.03,3.3,1.41,5.71,3.22,7.95,6.01-2.39,3.62-5.3,2.84-8.88,3.1-15.11,1.09-78.03-26.59-83.07-22.09Z"/>
  <path class="st0" d="M1206.48,17.48c1.56,1.65,6.97,1.18,9.28,2.76.82,4.05-.51,8.29.64,12.35.93,3.28,11.68,10.86,5.65,14.47l-52.83,7.07c-2.42-.37-5.56-19.88-8.33-24.04-3.21-4.82-32.59-22.71-5.97-24.27,4.64-.27,47.19,3.63,49.2,5.09,1.81,1.31,1.19,5.35,2.35,6.57Z"/>
  <path class="st0" d="M1962.43,214.41c-1.51,2.68-.03,11.53-2.44,15.59-6.25,4.21-37.01-28.94-45.74-30.21-2.46-8.59,7.69-13.83,9.34-21.21,2.01-8.98-5.07-36.39,11.53-26.67,9.41,5.51,20.65,29.42,31.91,36.14,3.22,6.97-2.55,9.13-2.58,11s6.82,4.25,5.39,9.61c-1.04,3.91-6.69,4.49-7.4,5.75Z"/>
  <path class="st0" d="M492.06,465.92c-.54-3.73.79-6.93,3.06-9.8,8.9-11.23,30.88-21.01,39.88-34.08l5.98,5.63,9.74-5.38c6.51,9.36,16.09,5.91,23.29,12.76l-33.32,42.79c-5.13,1.56-13.77-8.08-20.15-9.38-9.16-1.87-19.3,1.46-28.49-2.54Z"/>
  <path class="st0" d="M2180.24,1625.75l-2.49-7.5-12.43-.57-3.3-2.74c-1.67-5.74,27.88-36.28,31.93-44.07,2.81-1.39,16.21,9.28,22.02,10.33,6.55,1.19,30.36-5.83,25.78,9.41-1.75,5.81-34.97,26.07-39.76,34.53l-2.56.55c-6.62-7.63-10.7,3.05-19.17.05Z"/>
  <path class="st0" d="M361.8,1185.8c.97-.96-.73-6.96,2.05-8.95,3.92-2.08,9.01.06,12.74-.82,1.48-.35,6.43-11.16,11.51-7.15,5.96,4.71,5.23,43.17,8.02,52.07-.72,6.53-13.96,5.38-20.81,9.35-5.56,3.22-16.43,18.85-22.26,17.71-7.83-1.54,1.2-48.73-1.05-57.01l1.93-4.12c2.12-1.4,7-.2,7.88-1.08Z"/>
  <path class="st0" d="M1567.82,1996.2c1.48,6.16,1.77,12.7,4.38,18.6,4.88,10.98,19.8,12.54,17.8,27.19l-56.74-2.25-3.36-9.64-11.08-1.96c-2.51-3.54,1.24-7.99.72-10.91-.63-3.57-10.72-7.68-7.56-15.21l55.83-5.81Z"/>
  <path class="st0" d="M779,1818.03l42.52,34.95c.15,2.22-10.33,15.1-11.19,20.53-.77,4.88,6,33.84-9.43,24.59-10.5-6.29-22.71-31.48-34.72-39.5,5.25-9.8.96-10.07-.02-19.29,11.52-5.43,4.42-14.71,12.83-21.27Z"/>
  <path class="st0" d="M2382.01,862.01l-7.79.19c-1.75,17.67-8.89,8.8-15.11,10.08-1.47.3-7.15,11.52-15.1,7.72l-5.92-51.2c.09-6.54,16.16-6.76,21.76-9.95,6.42-3.66,13.57-17.59,21.11-17l4.73,3.45-3.68,56.71Z"/>
  <path class="st0" d="M1520,835.98c6.17-.18,15.41-5.21,20.19.83,4.39,5.55,2.97,46.53.92,55.31-2.88,12.35-9.26,23.31-17.16,32.84-2.1,2.53-4.93,5.67-7.94,7.04,8.28-20.5,30.65-46.31,9.07-66.09-12.73-11.68-30.46-12.26-46.19-6.5-5.85-1.97-6.75-17.26.08-15.41,2.36.64,2.23,8.73,9.01,6.01-3.97-17.85,15.26-17.95,25.04-28.03l.99,4.01,6.97-4.05,2.03,4.18,12.95-6.12c3.59,3.6-15.78,12.53-15.98,15.98Z"/>
  <path class="st0" d="M1574.01,985.99c5.94.63,7.32-7.55,12.86-7.85,4.35-.24,38.06,6.76,29.11,15.85.45.71,19.36,3.59,14.01,8.01l-19.99-3.97c4.18,6.5,14.13,8.68,11.75,18.59-13.07,11.76-20.6,26.72-36.27,35.87-9.19,5.37-17.78,8.6-25.85,10.06-6.45,1.17-18.95,6.25-21.62-.52,11,.87,48.65-13.68,51.63-23.39,1.12-3.64.95-17.36.43-21.68-1.72-14.27-16.95-24.08-27.57-31.86.79-3.37,4.03-11.95,8.49-11.08l3.04,11.98Z"/>
  <path class="st0" d="M1255.99,855.98c.38.45-.68,3.87.42,5.47.67.97,22.15,10.07,17.58,14.53-14.8-6.57-29.96-19.04-47.03-18.13-23.64,1.26-34.26,35.41-25.31,54.97-2.95,4.46-10,7.67-13.64,2.14l5.95-7.97c-4.08-4.46-9.04-1.81-14.14-5.82-5.52-4.35-8.63-17.69-15.82-22.19l4.14-2.09-2.13-6.92,4,1-6.01-14.97,13.97,15.98c.37-7.5-4.32-16.24,3.29-21.72,18.28.13,34.8-3.95,52.84.62,5.24,1.33,11.74,6.28,15.36,6.79,2.6.36,6.29-1.95,6.51-1.69Z"/>
  <path class="st0" d="M1342.02,782c5.6-3.18,6.94-12.88,14.88-12.1,1.67.16,23.92,18.36,26.39,20.81,16.2,16.1,24.89,40.6,24.69,63.29-3.99-.71-3.19-4.32-4.04-6.94-4.39-13.64-6.05-26.58-16-38-16.1-18.49-53.19-2.16-57.98,20.95l-11.68-4.29-.29-7.71,10-.02c-.25-5.94-5.75-5.97-6.17-12.96-.48-8.21,6.15-17.98,4.19-27.03l5.97,2.01.03-6.03,5.97,2.02c-.12-5.11.6-11.77,5.99-14.01l-1.96,20Z"/>
  <path class="st0" d="M1404.19,1220.14c3.09-2.23,16.42,3.36,13.8,9.85l-11.95,3.01c15.59,11.01.37,23.96,1.94,39.01l-3.67-1.71-4.29,5.7-1.99-3.99c-2.45,3.82-1.43,16.92-8.02,15.97l3.97-21.99c-5.83,4.31-8.17,13.1-16.69,13.69-14.49-13.52-29.27-22.84-39.7-40.28-2.73-4.56-2.7-10.3-4.72-13.38-1.05-1.6-4.16-1.73-4.56-2.29s1.8-4.1,1.51-6.46c-.82-6.53-6.54-18.55.17-21.28,2.51,14.44,10.04,44.39,25.08,49.94,13.96,5.16,29.88.62,40.02-9.88,3.77-3.9,8.38-15.39,9.12-15.93Z"/>
  <path class="st0" d="M1196,984.02c-.63,3.67-4.11,3.36-6.73,4.25-18.41,6.23-43.59,8.94-45.25,32.77-1.32,18.88,11.4,33.59,27.72,41.25,2.29,3.9-4.48,15.69-9.75,10.69v-8.98c-5.4-1.84-7.3,3.78-10.04,4.94-9.33,3.96-18.7-4.33-28.67-3.28l-1.4-5.53-5.88-.16,4-5.96-15.99-5.03,19.99.99c-1.49-4.52-7.35-5.56-9.76-9.22-6.48-9.82,2.44-9.98,6.56-14.97,12.11-14.66,17.4-23.21,35.21-32.78,4.59-2.46,10.53-.24,13.28-6.88l26.71-2.12Z"/>
  <path class="st0" d="M1570.03,1177.98l-6.02,1.01,7.99,14.99-15.98-15.98c1.71,7.03,3.48,12.84-.31,19.72-34.87,3.86-71.24,5.18-95.71-23.7,23.24,7.28,45.51,30.93,67.3,7.29,10.97-11.9,10.52-33.02,4.69-47.28,5.46-1.17,11.87-4.74,15.97.98l-5.95,7.97c2.89,4.19,8.03,2.3,11.93,4.09,5.33,2.45,16.65,24.01,16.1,30.92Z"/>
  <path class="st0" d="M1257.89,1190.06l2.1,13.93c-6.88,3.23-7-7.77-10.96-5.97-4.97,3.19-1.64,9.8-4.04,13.98-2.08,3.63-20.15,11.04-24.03,16.02l-1.23-3.61-4.55,1.63-2.14-4.05-15.04,6,16-13.96c-7.21-.62-15.03,4.73-19.68-3.35-.04-14.73-3.64-28.56-2.07-43.42,1.4-13.24,8.93-31.58,16.87-41.14,2.42-2.92,5.2-5.44,7.9-8.1,2.87,1.42-.4,4.89-1.31,6.69-10.46,20.69-26.69,41.34-3.78,60.37,12.93,10.74,30.93,8.73,45.97,4.98Z"/>
  <path class="st0" d="M1559.98,1390c-2.31,2.56-48.23-40.75-52.03-44.95-24.62-27.15-20.7-30.2-28.88-63.12-3.42-13.76-12.91-26.19-13.22-40.94-.22-10.85,6.25-26.72,13.16-34.98,3.14,10.34-1.47,20.46-1.1,31.04.55,15.8,27.64,84.88,36.45,99.59,10.85,18.12,28.37,30.55,41.65,46.35,1.89,2.25,4.85,3.25,3.98,7Z"/>
  <path class="st0" d="M1318,1232.02c-10.14,12.1-23.14,19.6-31.64,33.33-21.42,34.57-42.37,92.93-38.38,133.63l-3.96,19.01c-.94-22.66-5.28-46.44-4.1-69.07,1.88-36.11,7.62-35.38,23.69-62.31,14.82-24.83,16.81-52.4,54.4-54.58Z"/>
  <path class="st0" d="M1759.99,1146.02l-15.24,3.73c-27.41.95-60.13,5.55-86.78-2.72-11.01-3.42-23.14-15.78-34.23-21.77-6.23-3.37-13.62-4.85-19.83-8.17-17.09-9.15-26.83-24.01-29.9-43.08,8.61,4.46,13.57,15.21,19.9,21.08,16.34,15.16,61.87,32.71,84.08,41.92,25.64,10.64,54.86,5.08,81.99,9.02Z"/>
  <path class="st0" d="M1145,1136c-11.91,1.49-74.15,27.01-86.33,33.67-20.47,11.19-33.61,31.33-52.65,44.33-1.55-1.75,4.62-8.95,6.06-10.92,12.12-16.65,47.1-52.69,65.43-60.57,11-4.72,22.13-3.77,33.37-6.63,28.37-7.24,36.24-21.24,68.84-4.58,2.11,1.08,6.48,2.06,6.29,4.7-12.99,1.16-28.35-1.58-41,0Z"/>
  <path class="st0" d="M1256,842v-41c0-4.48-28.23-75.47-32.35-83.65-10.8-21.46-34.74-38.81-49.65-57.33,6.61,1.87,13.65,7.72,18.94,12.04,16.17,13.23,50.4,45.64,57.5,64.5,3.3,8.76,2.62,18.42,4.86,27.14,7.02,27.27,24.79,51.97.69,78.31Z"/>
  <path class="st0" d="M1488,630c3.02-.07,2.94,7.1,3.38,9.61,4.82,27.11,6.43,83.35-7.71,107.05-9.16,15.36-14.78,24.22-23.32,40.68-9.08,17.5-22.13,27.73-42.37,29.63,5.51-9.96,16.44-14.92,23.98-24.02,14.69-17.74,46.04-95.49,46.04-117.96v-45Z"/>
  <path class="st0" d="M1550.01,915.97c-2.85-2.91.23-3.63,2.97-3.99,8.29-1.1,17.03,2.44,26.07,2.11,22.05-.79,96.63-31.89,113.89-46.15,12.77-10.55,22.97-24.7,37.04-33.94-2.94,7.02-9.14,15.13-14.04,20.94-12.02,14.23-42.04,44.72-58.57,51.43-11.5,4.67-24.18,4.4-36.26,7.74-27.71,7.66-40.77,20.37-71.1,1.86Z"/>
  <path class="st0" d="M974,904c-.5-2.93,3.76-2.59,5.94-3.04,22.9-4.68,78.43-5.79,100,2.09,10.01,3.66,19.05,13.78,28.72,19.28,22.91,13.02,50.48,17.38,50.31,51.69-7.91-4.25-12.75-15.44-18.9-21.1-16.58-15.23-98.88-48.92-121.08-48.92h-45Z"/>
  <path class="st0" d="M1201.99,1322.01l-16,24.98-13.98,14.02,5.95,3.99c-3.67,6.01-9.33.6-14.05,1.84-6.23,1.64-17.18,13.14-7.95,18.17l-2.93,2.93c-13.6-9.17-26.03,15.34-37.02,1.05,13.61-1.54,26.82-11.74,33.99-22.97l-63.99,3.97c-.98-6.04,1.5-3.19,4.86-4.03,19.99-5.01,57.79-3.64,75.15-14.94.96-.62,2.6-2.53,1.98-3l-6.04-.03,2.05-3.97c-7.15,1.42-14.52-1.38-21.01-1.62-3.37-.13-7.34,1.81-11.9,1.69-2.03-.05-10.91-1.03-11.09-4.06,18.66-2.51,37.9-3.79,56.51-6.52,1.73-.25,6.02-.9,5.47-3.48-3.59-1.69-11.57,0-9.97-6.01l29.98-2Z"/>
  <path class="st0" d="M1323.99,582.01c2.12,2.28-27.31,36.51-30.83,42.15-5.18,8.31-9.04,17.86-13.23,26.72-.06,1.54,5.78,3.26,7.99,2.21,7.55-3.59,19.75-24.16,29.09-27.07l.97,2.96-34.96,43.05-1.01,5.97,11.97-5.01c-2.66,2.14-18.73,26.84-21.98,23l-4.03-47.99-8,.98c8.05-10.36,12.45-14.42,10.04-28.99-4-.44-9.4,2.35-8-3.95,14.16-1.49,9.28-16.27,15.87-24.61,2.99-3.78,8.75-4.76,10.1.54-6.4.22-9.68,17.7-10.02,23.1-.24,3.91-.65,13.41,4,14.92,8.6-13.17,20.03-28.55,31-40.02,1.6-1.67,8.99-10.14,11.02-7.96Z"/>
  <path class="st0" d="M1043.96,823.98c4.61-6.86,5.38-16.11,5.86-24.76.14-2.58-1.95-6.3-1.9-10.13.03-1.99,1.03-10.91,4.07-11.08l6.52,56.51,3.47,5.47c2.3-3.41-.55-13.49,6.01-11.97l2,29.98c-15.8-4.35-25.78-17.32-37.24-27.85l-8.74,3.85c2.82-14.58,1.15-16.48-9.98-25.09l-10.03,3.08c9.86-14.78-11.75-22.51-3.97-37.97,5.85-1.39,3.8,6.07,6.17,10.8,1.33,2.66,16.25,25.39,19.79,21.18l-3.97-63.99c4.59,1.84,4.7,9.33,5.42,13.56,2.28,13.37,2.04,27.14,5.15,40.85.73,3.22,8.07,29.38,11.37,27.57Z"/>
  <path class="st0" d="M1686,1272c-3.91-.8-3.53-4.01-4.01-6.99-2.43-15.04-2.4-38.13-6.49-51.51-.52-1.71-1.53-3.48-3.48-3.5l-4,10-4.01-29.99c15.78,6.19,27.6,17.92,38.99,29.95l6.98-5.96c-3.39,14.04,5.61,31.67,20,22,.76,4.29-2.13,8.47-1.59,12.56.82,6.24,15.44,21.16,3.6,26.45-2.98-13.47-10.72-26.97-23.97-33.02,1,17.9,5.27,37.39,6.04,55.08.16,3.77.42,6.47-3.06,8.88-3.76-2.43-2.73-5.35-3.06-8.9-2.33-25.05-4.59-47.37-13.96-71.06l-7.98,2v44Z"/>
  <path class="st0" d="M1614,706c3.18,2.4.03,3.65-2.96,4-18.97,2.25-37.97,4.74-57.03,6.01-2.06,7.14,9.2,2.56,9.98,7.97l-29.98,4.01c-2.29-2.35,6.5-13.98,8.36-16.62,4.08-5.82,17.48-17.95,18.69-21.41,1.02-2.93-4.28-4.17-3.04-7.94,12.54,1.84,18.73-1.27,25.86-11.26l-3.86-8.74c3.77-.6,7.35,2.3,10.91,1.98,6.28-.55,23.2-18.19,27.06-1.99-13.1-1.77-27.56,11.14-33.98,21.98l59-6.14,7,4.14c-27.92,3.53-55.45,5.97-81.98,16.05,3.17,4.23,5.9.5,1.99,7.97h44Z"/>
  <path class="st0" d="M996.02,1111.98l-1.47-3.61,3.44-3.34-29.98-31.01,49.03,35.96c8.34.12-4.42-7.88-.04-11.97l22.97,18.99c-14.84,7.5-31.81,7.44-47.97,6.98l-2.96,8c-5.84-11.41-12.68-11.18-24.73-9.71l-3.28,7.71c-6.27-15.58-30.34-7.11-28.99-25.99,9.76,8.48,28.22,13.33,39.97,7.01-3.53-3.55-51.71-40.04-47.99-42.99,4.1-1.04,5.4,1.23,8.06,2.92,20.21,12.89,38.04,36.31,63.96,41.04Z"/>
  <path class="st0" d="M1461.99,1351.99c3.38,15.99,5.1,31.57,3.99,48.02l8.04,1.01c-8.76,10.39-18.8,24.36-.03,29.97-1.73,3.41-7.94,3.61-9.5,5.51-4.69,5.73-1.75,27.01-16.49,23.48,7.53-11.9,8.93-25.08,8.01-38.97l-3.97-.99-39.04,47.94c-4.63-3.56-2.09-2.93-.21-6.16,11.53-19.75,35.15-38.62,43.18-62.84.14-6.91-5.6,3.78-6.96-4.95l-32.02,29.98-.97-2.96,37.98-49.01-11.99,2.99c5.4-6.57,10.21-13.81,15.41-20.49,1.28-1.65-.05-3.65,4.57-2.53Z"/>
  <path class="st0" d="M1747.62,918.44c3.79,2.19.91,10.16,15.39,9.73,9.42-.28,8.03-1.62,9.98-10.16,6.56,15.2,28.49,8.99,31,25.98-4.32.47-6.05-3.73-9.95-5.03-9.75-3.24-21.96-3.99-32.03-1.97,12.28,12.7,32.19,23.7,43.8,36.2,2.3,2.48,4.66,5.09,4.17,8.81-23.29-15.75-42.58-34.78-69.02-45.97-6.91-.14,3.78,5.6-4.95,6.96,8.16,9.35,19.13,17.6,27.01,26.99,1.33,1.58,5.25,4.01,1.99,6.01l-46.04-35.97c-7.65-.91,1.82,9.33,1.03,9.96-.95-.06-2.11.35-2.97,0-1.19-.48-19.2-14.91-20.06-15.95-1.17-1.41-2.13-3.55.08-4.02,4.92-.18,9.8-2.94,14.46-3.51,9.8-1.19,36.56,4.06,30.48-8.5,1.83.14,3.93-.55,5.63.43Z"/>
  <path class="st0" d="M1225.98,1986c.64,32.96-68.82,13.36-69.91-5.1-.18-3.09,1.75-15.46,2.44-19.39,2.22-12.66,7.52-26.66,14.5-37.5,3.93,12.79-8.65,25.55.03,37.95,5.24,7.49,42.84,30.93,52.94,24.04Z"/>
  <path class="st0" d="M867.98,252c-18.37-22.07-11.44-31.31-44-25.02-12.29,2.38-30.44,5.56-36.98,16.98-20.25-21.72,31.37-50.9,47.53-47.62,11.69,2.37,35.04,42.17,33.45,55.66Z"/>
  <path class="st0" d="M1946.04,1806.02c7.5-.56,6.71,9.57,5.84,14.87-2.54,15.47-37.68,34.01-52.84,31.05-10.57-2.06-32.02-41.81-33.04-53.93,3.5-3.78,14.57,19.95,16.93,22.05,9.84,8.73,38.57.61,50.09-4.02,5.2-2.09,12.35-3.47,13.01-10.02Z"/>
  <path class="st0" d="M2140,525.98c6.01-9.75,25.12-13.7,27.63-25.44,2.5-11.71-8.42-49.69-19.62-57.55,22.78-16.62,51.33,32.71,47.61,49.55-2.35,10.65-42.92,33.41-55.62,33.44Z"/>
  <path class="st0" d="M1563.97,123.99c-3.63.17-4.18,1-3.98-2.97.62-12.56,10.35-21.52,1.7-33.73-7.09-10.01-40.41-28.5-53.69-25.32,2.24-27.9,59.5-14.02,67.78-.77,7.95,12.74-6.16,49.14-11.82,62.78Z"/>
  <path class="st0" d="M2268,1218.02c11.4-1.01,22.54,6.93,33.49,2.46,10.71-4.38,31.77-41.54,28.52-54.47,28.93,1.73,13.9,61.54-2.56,68.51-9.79,4.15-51.3-6.27-59.45-16.5Z"/>
  <path class="st0" d="M468,831.98c-11.84.67-23.29-9.04-34.52-3.51-10.38,5.11-32.74,42.43-29.5,55.53-27.9-4.61-12.46-62.79,2.06-68.95,11-4.67,53.65,5.67,61.96,16.93Z"/>
  <path class="st0" d="M594,1524.02c-4.21,8.57-23,12.6-25.58,21.39-3.77,12.81,5.76,50.78,17.54,59.59-23.48,18.94-51.23-33.27-45.57-51.63,1.98-6.42,43.61-31.55,53.61-29.35Z"/>
  <path class="st0" d="M898,756.02c-6.77,11.11-2.44,27.13,2.54,38.45.84,1.91,9.23,16.36,9.95,17.03,3.5,3.29,13.64,1.24,15.51,5.51l-7.95,5.99,41.96,24.98c-19.48-2.06-39.98-4.57-54.94-18.04-12.36-11.13-5.93-6.64-5.91-16.94,0-3.46-3.07-7.33-3.18-10.99l-4.99,7.97-6.08-1.98-2.93-23.99-1.99,15.98c-9.99-6.53-11.59-27.26-1.07-34.09,2.91-1.89,6.47-1.62,8.93-3.07,3.73-2.18,5.18-7.38,10.16-6.82Z"/>
  <path class="st0" d="M1845.48,836.52c2.34,2.93,1.18,9.27,9.51,9.5,6.37-.07-3.7-9.72,5.98-10.01,2.33.51,15.43,17.02,21.02,13l-9.98-11c12.22,2.34,22.89,7.29,24.16,21.04l-7.18,22.94c-4.15-12.3-17.03-20.73-28.99-24.99-2.08-.74-18.07-4.91-19.05-4.87-4.25.18-12.75,10.04-14.94,7.85l1.98-11.98-47.99,13.97c12.14-11.03,28.5-23.33,44.99-25.98,3.21-.51,18.85-1.55,20.49.52Z"/>
  <path class="st0" d="M1191.99,1432.01c-4,23.6-6.37,44.29-24.59,61.44l-21.39,2.57,6.81,3.79,1.15,6.12-27.97,4.08,15.99,2c-5.67,9.39-25.55,11.18-31.98,2.96-3.02-3.86-1.2-7.86-3.04-10.96-1.75-2.93-9.17-2.84-6.95-10.02,10.31,10.11,47.54-4.23,54.09-12.89,2.73-3.61,3.17-10.62,3.91-15.11l8.95,7.99c5.54-13.49,12.6-25.57,20.06-38.03,1.52-2.54-.39-5.07,4.96-3.94Z"/>
  <path class="st0" d="M1223.99,500.01c1.09,4.77-.79,3.23-2.6,4.45-13.35,9.03-28.08,31.85-25.44,48.44.79,4.95,7.54,6.87,6.03,13.1l-9.97-1.99c-2.69,2.73,15.64,38.01,11,45.98-11.92-13.36-31.05-42.09-24.68-60.67,1.1-3.21,9.62-5.67,11.64-12.36,1.85-6.1-7.54.07-9.96-.97-4.78-5.2,12.11-18.76,13.97-23.02,3.66-8.38-10.54,4-10.99,7.02-3.06-9.23,4.46-19.87,13.33-22.66,11.39-3.59,15.95,5.13,27.67,2.68Z"/>
  <path class="st0" d="M1841.98,1246l1.98-7.04,5.11.97c.76,1.24,3.13,31.22,6.91,26.07,2.21-4.63-6.54-17.44,1.99-15.99,1.03,6.88,6.76,11.2,6.01,18.79-1.52,15.48-17.51,14.84-25.96,25.2,3.53-13.34,2.07-25.38-3.01-38.01-4.54-11.29-11.46-23.17-25.01-22.01-2.33-5.93,8.88-4.05,5.06-10.04-.96-1.5-25.96-12.61-31.62-16.43-3.24-2.19-8.6-2.59-7.42-7.51,15.39,3.93,31.98,4.61,45.85,13.13,1.93,1.18,14.73,11.83,15.22,12.94,2.47,5.6-6.17,15.9,4.89,19.93Z"/>
  <path class="st0" d="M1625.44,534.54c2.6,3.3,1.56,8.05,3.67,11.36,1.89,2.96,8.15,2.97,6.88,8.09-6.52-1.81-12.13-2.48-18.97-1.97-13.36,1-43.57,12.86-39.03,29.96-6.61,1.22-3.48-8.31-11.96-5.99-3.88,14.46-11.59,29.23-22.01,39.99,2.03-16.48,3.79-33.67,13.1-47.88.98-1.5,10.18-12.77,10.91-13.23,3.73-2.36,18.33,5.58,21.97-4.87l-8.02-.03v-7.98s26.03-2.02,26.03-2.02c1.19-8.8-11.61-1.18-16.01-2.01,6.03-10.89,25.75-13.2,33.44-3.44Z"/>
  <path class="st0" d="M907.99,1190.01l-1.98,9.98,47.98-11c-16.3,11.45-29.8,23.75-50.91,25.07-18.17,1.14-9.81-1.51-16.09-8.03-1.97-2.04-5.62-2.45-8.04-3.99l1,6.97c-8.88,9.56-18.63-13.24-27.94-10.02l11.99,10.99c-12.02.84-24.43-5.55-24.22-19.02.11-7.51,7-14.06,4.25-22.96,4.59,1.92,4.71,7.36,8.12,10.86,7.75,7.97,31.77,18.52,42.71,17.15,4.9-.61,7.75-6.55,13.15-6Z"/>
  <path class="st0" d="M1544,1515.98l11.99-1.97c4.59,4.54-18.39,19.09-13,25.98l10.99-11.99c-.69,12.14-7.66,24.43-21.02,24.22-7.51-.11-14.06-7-22.96-4.24,3.78-4.62,8.34-5.02,13.04-9.94,6.74-7.06,16.91-29.89,16.79-39.08-.07-5.1-6.37-10.07-7.82-14.94,20.32,6.37,7.03-10.98,3.48-22.5-2.37-7.68-3.78-15.68-5.46-23.52,10.1,9.98,23.14,27.13,25.87,41.11.37,1.89,1.87,18.7,1.68,19.67-.69,3.62-14.3,8.91-13.57,17.19Z"/>
  <path class="st0" d="M1683.98,1488l4-20.94,4.06-.09c3.16,3.12,1.55,10.28,2.89,15.11,1.25,4.49,17.06,29.76,15.07,31.91l-14.99-11.95c-10.84,25.33-36.33-.52-44.52-15.36.79-9.47,12.93-8.12,9.54-20.68,12.87,3.01,14.73,14.82,23.96,22Z"/>
  <path class="st0" d="M1954,1126.02c1.37,7.97-10.8,1.7-16.07,4.92-5.12,3.13,2.38,6.84,1.91,9.8-2.02,12.5-37.09,16.78-46.99,9.4-2.47-8.34,4.55-13.45-4.84-19.16-.67-4.18.62-2.37,2.72-3.19,9.08-3.55,13.44.04,21.68.87,2.49.25,2.86,2.42,5.56-1.66l-9.95-18.99c7.36-.82,9.43,6.08,15.98,9,4.54,2.02,28.36,7.5,30.01,9.01Z"/>
  <path class="st0" d="M1474.01,455.99c3.53,1.23,6.83-3.75,9.01-3.55.71.06,10.73,8.34,11.1,8.95,2.84,4.76,3.01,36.3-.34,38.38-10.72-.17-14.84-3.97-21.75,6.23-3.26-11.16-1.78-20.82-.03-31.99-2.04-2.31-12.66,8.51-15.41,9.57-2.26.87-7.65,2.09-6.56-2.55,13.45-8.29,11.64-30.45,18.95-41.06,6.21-9.02,4.38,15.3,5.05,16.03Z"/>
  <path class="st0" d="M1044.28,538.3c5.82-.13,14.43-1.65,19.68.73,1.22.55,18.42,17.78,18.98,19,6.59,14.35-14.13,10.4-6.95,23.94-11.83,3.63-19.14-19.91-24.98-20l-3.03,20.04-5.93-.04c1.05-18.07-13.32-29.06-16.06-45.97l13.02,9.98c4.11.91,4.7-4.97,5.25-7.69Z"/>
  <path class="st0" d="M925.99,1316.01c-1.5,12.63-15.88,16.49-21.99,25.97,3.17-.89,27.18,2.59,21.99,8.01-18.52-1.5-30.2,13.39-47.99,15.99l10.05-14.95-.04-3.01-7.75-3.26c-7.02-10.88,18.74-37.56,26.64-36.88,9.09,3.36,6.41,14.14,19.09,8.13Z"/>
  <path class="st0" d="M848,919.98c-10.98,4.45-20.92.44-31.99.04l11.02,15.97-2.02,5.97c-12.66-12.51-29.17-13.27-45.01-19.98,2.82-7.27,12.87-1.92,18.03-4.94l1.93-2.03c-9.76-6.37,3.35-18.1,10.93-19.11,3.96-.53,27.27-.39,29.23.98,3.88,8.69-.79,16.13,7.87,23.1Z"/>
  <path class="st0" d="M1263.99,1543.99c-.45,4.38,1.88,8.47,1.79,12.79-.07,3.78-6.32,21.06.21,18.25l15.05-11c9.15,1.37-3.95,10.93-5.52,14.49-4.22,9.57-4.29,26.32-13.5,33.48l-.03-17.99c-4.06-.64-8.89,2.88-12.59,2.12-.57-.12-8.07-7.66-8.37-8.16-2.52-4.1-3.43-35.41-1.01-37.95,5.02-.76,12.21,1.24,16.77-.29,3.8-1.27,1.55-7.57,7.2-5.74Z"/>
  <path class="st0" d="M1681.99,1299.99c-7.39-.19-8.26-9.39-14.12-12.86-5.01-2.96-10.3-2.13-15.98-6.02-12.94-8.87-44.47-68.61-50.86-85.14-2.71-7.01-9-23.37-10.21-29.87-2.05-11.1,11.11-3.37,14.03,2.04s2.47,13.55,4.53,19.47c7.13,20.44,31.83,75.78,48.73,87.27,10.94,7.44,23.39,6.66,23.86,25.12Z"/>
  <path class="st0" d="M1845.99,699.98l7.13,1.87c6.39,18.34-10.9,31.26-24.13,40.24-8.22-3.11-7-13.17-18.99-10.09,1.04-11.99,14.52-14.94,19.99-23.97l-18.83-3.84-1.18-6.18c17.98,3.28,29.47-11.73,45.99-16.01l-9.99,17.98Z"/>
  <path class="st0" d="M1431.86,1280.11c1.72,1.06,2.49,11.33,1.7,14.38-.87,3.39-6.51,9.2-8.59,13.47-11.27,23.12-32.71,76.27-28.84,100.91,1.72,10.94,12.98,20.38-1.13,31.08-4.96-5.08.28-11.07-1.4-18.53-1.19-5.29-7.05-9.15-7.25-16.36-.22-8.01,6.31-33.67,8.58-43.14,6.98-29.15,17.22-54.15,30.91-80.7l6.02-1.12Z"/>
  <path class="st0" d="M1526.01,14.01c10.42,3.95,45.48-3.81,52.11.86,2.87,2.02.31,32.98-1.06,35.19-1.73,2.79-2.73,1.79-5.05.97-6.86-2.43-13.62-10.09-23.26-10.94-7.39-.65-13.83,3.96-20.83.99-4.24-2.63,2.98-12.05,2.13-17.96-.55-3.84-4.7-5.08-4.04-9.1Z"/>
  <path class="st0" d="M2373.37,1185.26c1.14-.82-.01-3.92,1.62-3.25,6.12,4.24,1.18,10.24,1.4,15,.39,8.27,6.92,40.29-5.25,40.82-4.19.18-26.14-2.76-29.12-4.87-3.19-2.26-1.35-2.02-.38-4.28,2.83-6.55,9.48-14.34,10.32-21.88.8-7.16-4.1-13.92-1.08-20.91,8.11-5.9,13.92,5.49,22.48-.63Z"/>
  <path class="st0" d="M1341.98,608c.93,5.63-2.29,10.89-1.63,16.47s5.49,9.34,6.73,13.43c6.69,22.06-24.08,105.31-36.67,127.51-6.3,11.1-10.48-1.78-9.04-9.02,1.73-8.72,17.49-33.48,22.12-45.9,5.58-14.93,17.8-52.52,16-66.96-1.71-13.77-14.89-24.19,2.48-35.54Z"/>
  <path class="st0" d="M807.64,162.39c1.36,7.53,19.93,20.81,18.34,26.53-6.92,4.86-15.12,4.65-22.66,9.4-5.3,3.34-15.42,18.74-19.38,16.79-6.23-6.99-6.51-15.98-17.93-16.1l32.88-35.11,8.75-1.52Z"/>
  <path class="st0" d="M1784,997.98c-6.3,2.13-12.55-1.03-18.91.08-15.17,2.66-9.13,9.24-33.16,5.01-38.04-6.71-77.6-18.72-109.89-40.07,11.89-12.22,22.3,1.11,33.54,6.42,22.31,10.56,71.63,29.78,95.25,26.4,12-1.72,21.8-12.89,33.17,2.15Z"/>
  <path class="st0" d="M952.01,1050.01c5.09-.7,9.76,2.44,14.8,1.97,5.38-.5,10.36-5.81,15.13-7.04,22.2-5.71,104.35,22.93,125.46,36.65,1.94,1.26,5.32,2.26,4.59,5.37l-13.61,3.68c-13.67-7.84-27.62-16.04-42.41-21.61-13.58-5.12-56.01-18.26-68.74-16.92-11.23,1.18-27.43,16.49-35.21-2.11Z"/>
  <path class="st0" d="M1231.99,1248.01c-.05,5.47-5.77,12.37-10.52,14.45-11.26,4.94-27.62,7.52-40.81,13.19-13.86,5.96-52.74,25.99-61.49,36.51-9.26,11.13-7.1,27.71-27.16,25.82,1.03-7.47,8.26-6.22,11.78-11.2s3.25-13.96,8.17-19.82c7.9-9.42,57.49-37.45,70.7-43.3,6.32-2.8,46.78-17.99,49.34-15.64Z"/>
  <path class="st0" d="M1143.99,887.99c-17.32-.13-14.58-14.99-18.55-26.42-7.25-20.85-31.78-76.93-49.52-88.48-10.51-6.84-23.15-4.22-21.9-23.08,6.77.63,7.27,8.43,13.25,11.73,4.62,2.55,9.7,2.24,14.66,5.34,7.98,4.98,36.51,51.44,41.84,62.16,3.42,6.88,22.77,56.18,20.23,58.75Z"/>
  <path class="st0" d="M1644,710.02c-.88,7.21-8.88,7.3-12.06,11.46-10.98,14.37-.58,15.02-22.89,30.56-32.2,22.42-66.8,40.23-105.03,49.95-1.23-18.39,18.18-16.54,31.53-21.45,18.89-6.94,68.43-28.98,80.49-43.51,9.43-11.36,6-26.94,27.96-27.02Z"/>
  <path class="st0" d="M1967.98,1848l-2.64,7.37c-9.73,5.09-23.44,29.14-33.15,31.7-6.07,1.6-19.13-21.29-24.14-26.08.17-2.77,18.64-6.9,22.66-9.28,6-3.54,14.25-17.43,18.6-17.35,7.7.13,7.23,18.69,18.67,13.65Z"/>
  <path class="st0" d="M2189.5,433.52c2.62-2.79.99-11.41,5.47-9.5l34.81,35.38c1.77,6.63-20.56,18.77-24.82,24.59-4.74,1.09-8.05-20.22-12.03-25.92-3.22-4.61-15.98-11.35-16.84-15.21-1.18-5.28,11.12-6.89,13.41-9.34Z"/>
  <path class="st0" d="M533.98,1566c.93,8.12,3.62,17.96,8.35,24.67,5,7.07,12.94,8.58,15.78,16.36,0,6.87-21.29,6.54-14.12,18.96-3.02.82-3.31-.73-5.03-1.95-5.26-3.76-25.57-23.44-30.25-28.73-1.19-1.35-4.21-5.41-4.4-6.68-.55-3.8,26.59-25.21,29.66-22.61Z"/>
  <path class="st0" d="M1157,2034c-1.29-.38-3.23-3.06-2.91-4.8,3.65-9.19.16-19.37,3.7-28.41.78-2-1-3.54,3.21-2.83,5,.85,12.41,8.21,20.47,9.56,8.59,1.44,17.85-.04,26.53.48-.14,11.16-7.76,16.48,2,25.99h-53Z"/>
  <path class="st0" d="M1735.98,1578c-.5.68-12.25-7.46-14-8.98-13.82-11.99-23.07-25.52-34.89-39.11-4.16-4.78-11.3-4.46-9.1-13.9,16.29.8,19.37-10.9,30.01,7.15l5-3.03,2,1.86c4.52,19.88,22.47,34.67,20.98,56.01Z"/>
  <path class="st0" d="M1477.37,430.51c-.33-.58-3.17-.48-3.44-1.78-1.2-5.82,4.05-9.22,5.66-14.13,4.82-14.76,6.52-30.22,17.41-42.55,8.59,11.44,3.22,25.47,2.99,36.95-.07,3.36,2.14,6.72,2.02,10.01-.39,10.78-4.98,22.21-2.22,33.69l-4.75,3.28c-2.2-5.74-14.54-7.53-16.13-9.89-2.69-3.98.73-11.62-1.54-15.58Z"/>
  <path class="st0" d="M797.54,899.64c-.19.38-3.05.55-3.56,1.7-4.77,10.75-1.22,17.25-19.02,10.74l-.97,5.91c-.99.02-2,.11-3.02.07-2.96-.1-34.12-11.08-38.94-13.09-5.77-2.41-11.77-5.11-16-9.96-.03-2.6,12.27-4.77,14.99-4.97,17.16-1.23,36.95,2.61,53.97,3.57,3.31.19,17.68-4.56,12.54,6.03Z"/>
  <path class="st0" d="M358,866v-51c0-.7,2.23-2.37,3.32-2.72,3.49-1.13,32.15,2.1,32.68,4.78-1.31,6.83-8.24,14.03-9.55,20.39-1.53,7.49,3.49,30.31-6.5,27.66-7.99-2.12-10.98-5.98-19.95.89Z"/>
  <path class="st0" d="M875.99,1335.99l3.81,18.6-11.8,12.42c-.97,1.77,7.33-.58,2.06,4.06-2.2,1.93-31.43,16.06-36.1,17.9-6.26,2.46-13.09,5.2-19.96,5.02-1.59-1.42,9.47-15.98,11.21-17.77,8.3-8.57,19.14-16.43,27.79-24.2,3.84-3.45,18.79-20.37,22.98-16.03Z"/>
  <path class="st0" d="M1026.48,497.58c1.99,1.12,5.49-.29,7.13.75.63.4,2.37,6.23,4.36,8.69,6.29,7.8,18.59,15.68,18.04,24.97-6.49-3.19-14.68,5.2-17.01,5.36-7.01.49-8.44-16.1-18.97-9.33-4.59-19.98-21.17-34.55-22.03-56.01,12.39-1.98,25.6,23.95,28.47,25.57Z"/>
  <path class="st0" d="M1860.01,714.01c2.31-6.67-4.58-13.7-4.08-18.92s7.17-7.31,8.84-11.04c.84-1.86-1.37-4.68,1.08-7.03,1.24-1.19,26.93-13.73,30.76-15.4,7.55-3.28,15.71-4.72,23.37-7.61,1.91,2.49-7.64,16.54-9.99,18.99-10.76,11.25-25.86,21.76-37.79,32.21-4.04,3.54-4.57,10.41-12.19,8.81Z"/>
  <path class="st0" d="M1256.19,1619.89l5.78,1.09c-9.82,16.31-9.47,37.34-21.4,52.5-1.28,1.62.05,3.66-4.56,2.53-.95-6.94-2.77-13.96-2.89-21.01-.29-18.08,1.56-35.95,1.56-54.4,0-2.39,1.04-4.3,1.33-6.59l19.11,7.86,1.06,18.02Z"/>
  <path class="st0" d="M2020,1155.98c-4.38.41-8.48,1.77-12.91,2.11-19.03,1.43-37.45-.33-56.18-2.17-2.97-.29-16.28,4.39-14.74-4.63.39-2.29,9.67-8.9,8.05-15.06l16.7-.09,2.07-6.11c17.94,10.86,42.84,9.41,57.02,25.96Z"/>
  <path class="st0" d="M1145.39,1449.38c-2.95,2.7-9.32,4.37-13.39,4.64-.73,6.15,7.09,7.06,9.78,11.2,5.41,8.32-1.02,19.88-9.76,22.79-2.07-4.36,3.6-11.07,3.44-13.02-.05-.63-6.07-10.47-6.48-10.95-2.6-3.06-9.87-1.5-14.94-5.06-3.4-2.39-10.26-13.16-3-13.04s13.52,4.42,20.68-.22l.3-15.69c5.12-3.27,7.11,15.05,11.02,8.02,5.02-9.03-2.93-33.39-3.01-44.03,14.62,11.38,19.29,42.65,5.37,55.38Z"/>
  <path class="st0" d="M1212.36,541.64c.57.48,13.61,4.19,14.34,4.05,4.76-.91,13.2-15.28,24.36-3.75,3.77,6.02-10.99,5.79-13.05,15.21-1.85,8.47,7.83,8.35,7.97,16.84l-11.97-3.99.3,4.68,31.68,27.29c-25.82,1.35-52.61-25.12-35.99-49.96-6.64-.53-13.95,3.5-19.9-1.12s-8.04-23.97-2.09-19.93c3.62,2.45,3.17,9.67,4.35,10.67Z"/>
  <path class="st0" d="M874,1182.02c8.91.31,13.31-5.01,13.62-13.61.23-6.57-11.66-17.71-3.73-27.52l6.09-.88c.38,8.56,6.93,17.17,15.97,13.03,3.46-1.59,4.81-7.91,10.05-7.02,1.61,1.78-5.82,13.98.97,11.96,10.59-3.16,19.68-25.51,29.02-31.97-.23,17.84-16.15,41.26-35.18,41.93-6.42.22-16.28-9.97-16.01-1.8.22,6.55,4.29,10.64-2.65,17.01-4.52,4.15-18.01,8.93-18.14-1.13Z"/>
  <path class="st0" d="M1801.96,1259.99c4.49-15.64,23.72-15.58,28.03,0-4.19,1.35-10.15-3.69-13.03-3.33-.6.07-10.13,5.32-10.53,5.77-2.86,3.32-2.43,25.33-18.43,21.56,4.29-15.9,7.85-26.54-14-24-2.71-4.54,11.67-7.86,6.02-11.02-8.99-5.03-31.5,3.61-42.02,2.04,13.17-12.91,36.41-18.45,51.91-5.93,6.57,5.31,4.32,14.37,12.05,14.91Z"/>
  <path class="st0" d="M1506.01,1497.99c17.5-6.13,26.42,1.85,23.98,20-7.46,1.31-5.72-10.88-9.43-11.99-14.76-6.71-26.07,13.12-38.52-1,.08-2.39,14.94-5.31,16.05-16.15l-10.09-12.83,13.99.99c-7.85-13.78-23.03-20.32-33.99-30.99,19.87-.24,45.05,17.32,41.93,38.84-.66,4.55-4.78,8.13-3.92,13.13Z"/>
  <path class="st0" d="M1862,865.98c-9.64,0-13.76,7.27-15.06,15.96-.66,4.41,15.23,19.04,2.04,28.05-3.71,1.68-5.49-9.12-8.08-11.89s-9.16-5.71-12.53-3.73l-7.37,9.59-2-13.92c-12.48,7.86-18.56,21.9-28.98,31.96.21-25.94,24.22-49.31,49.97-36.01-6.41-15.49,7.82-32.1,22.01-20.01Z"/>
  <path class="st0" d="M1603.99,562.01c-.24,6.16-5.2,7.08-2.99,13.83,4.86,14.89,15.35,8.39,21.92,16.24,2.87,3.43,3.39,7.63,3.07,11.91-17.03-5.25-24.77-6.63-24.01,14.01l-9.96-8.01c-3.13,12.96-.09,27.37,2.51,40.48.53,2.68,3.71,3.91-1.51,3.51-15.73-17.94-18.05-55.96,10.97-60.01,1.3-1.67-8.4-7-9.78-9.18-7.21-11.44,5.06-27.13,9.77-22.78Z"/>
  <path class="st0" d="M945.99,766.01c-3.29,18.78-5,24.31,16.01,24.01-1.26,6-11.55,3.31-10,9.96,14.59,4.88,29.12-2.91,43.99-.99-19.37,17.17-52.06,16.78-60.99-10.95-7.25,15.67-24.82,16.82-30.99-.03,6.53-.88,9.5,5.47,15.83,3,12.85-5.01,7.95-6.82,11.04-15.1,2.25-6.04,8.11-11.35,15.11-9.9Z"/>
  <path class="st0" d="M1482.02,628l-.04-9.99-7.97,3.98-.02-20-9.98,2,1.06-10.02-5.03-1.96-3.04,5.95c-6.66-15.74-9.98-18.29-24.6-25.45-2.69-1.32-5.51,1.28-4.39-4.51,12.98-1.53,36.01,4.21,45.09,13.89,1.65,1.76,18.26,27.86,18.6,29.57,1.39,6.99-3.98,13.3-9.68,16.53Z"/>
  <path class="st0" d="M1006,1222.02l-6.02,8.96,6-.98c1.56,8.99-11.53,9.19-12.01,18.97l7.99,4.03c-8.64,4.35-13.53,14.92.02,9-.5,7.61-4.33,12.88-4.14,21s5.26,13.41,5.17,20.99c-9.39-6.65-16.12-15.03-19.99-26.01-6.52-18.5,2.4-32.25,4.8-50.67l18.18-5.28Z"/>
  <path class="st0" d="M1570.04,1391.99c.39.32,4.62.87,3.99-1.47l2.95-4.5c5.59,4.3,9.18,12.92,17.02,11.99l1-8c3.88,3.59,6.72,9.1,13,7.98l-1.99-7.97c16.48,6.65,26.17,3.76,41.99-1.99-5.8,11.18-26.71,23.41-39.07,24.07-4.01.21-33.01-5.94-36.43-7.58-7.12-3.41-6.86-11.78-6.48-18.5l4.02,5.99Z"/>
  <path class="st0" d="M1426.01,309.99l6.05-1.2c9.13,30.13,54.71,27.12,61.92,59.19l-50.69-30.29c-8.15-11.13-13.2-14.76-27.16-11.93-1.26-7.53-15.64-19.19,1.84-13.76l3.05-10.03,6.08,1.98-1.1,6.03Z"/>
  <path class="st0" d="M1906.05,556c.61.41,9.98-6.35,13.94-3.99,1.87,7.1-3.5,5.45-5.99,9.95l6,5.02c-.57,2.05-5.84,2.19-6.16,4.32-.47,3.19,3.95,25.62,5.12,30.74,1.66,7.25,6.14,12.74,7.04,20.95.66,5.98,1.05,22.11-5.03,24.99-4.24,2.01-2.78-4.5-3.23-6.7-4.01-19.47-9.07-39.29-9.76-58.27-.44-12.07-6.74-10.92-11.99-20.04l3.85-1.8c-2.27-2.8-2.8-10.29,1.19-11.16,4.44-.97,4.49,5.63,5.02,5.99Z"/>
  <path class="st0" d="M1252.02,1430l7.97-3.99.02,21.98,9.97-3.99.03,13.99,9.96-5.99,8.22,16.8,19.79,11.18c-12.24,3.25-35.02-2.27-44.09-10.88-2.13-2.02-20.03-29.28-20.59-31.47-1.68-6.59,3.1-11.69,7.7-15.61l1.01,7.99Z"/>
  <path class="st0" d="M1169.99,661.99l-9.99-5.97c4.5,16.83-10.08-1.51-15.03-6-5.8-1.65-1.15,8.07-3.99,8l-12.97-8.01,1.98,9.98c-14.7-6.5-27.39-8.15-41,2-.81-9.44,15.81-18.36,24.54-21.46,10.59-3.75,41.53-1.3,50.39,4.56,5.18,3.43,4.41,11.17,6.08,16.9Z"/>
  <path class="st0" d="M969.99,909.99l-7.99.03,3.99,7.97-21.99.03,3.98,9.98-12.05-1.07-1.93,5.04,5.95,3.04c-5.38,4.21-12.19,5.59-17.05,10.92-5.35,5.87-5.05,13.52-10.89,18.09-3.59-13.26,3.71-36.07,13.91-45.07,2.57-2.26,27.52-18.73,29.24-18.97,4.99-.68,14.71,3.86,14.81,10.02Z"/>
  <path class="st0" d="M914.56,486.57c-1.67,1.08-4.2,8.22-7.57,9.43l-2.1-4.11-10.88,2.11c-1.44-4.12,3.1-6.91,3.57-9.39.8-4.26-7.39-8.5-.53-12.62,6.33,6.24,9-.27,11.69.18,2.25.37,3.71,5.42,8.1,5.68,21.63,1.29,42.87-15.41,65.68-11.35,2.2.39,9.41,2.54,9.45,4.51l-57.45,14.53c-5.46-.89-15.21-2.05-19.95,1.04Z"/>
  <path class="st0" d="M1293.32,1712.68c3.13,2.43,6.45,10.53,12.6,12.12,3.48.9,11.63-2.31,14.08-.79.17.11-1.71,2.67-.86,4,1.87,2.91,10.49,3.77,5.85,10l-8.91.07-1.95,9.04-6.12.89-.27-7.75-6.89-2.21c1.52-8.32-15.04-19.15-22.2-23.7-13.89-8.84-35.91-12.93-36.62-34.36,11.28,5.94,20.9,14.49,31.34,21.64,5.99,4.1,13.74,6.19,19.96,11.04Z"/>
  <path class="st0" d="M1823.99,1084.01c-.17,16.39-2.58,35.76-15.94,47.04-10.42,8.79-31.98,24.67-43.07,10.96l9.02-2.03-3.99-7.97,19.98-.02-3.99-9.97,14.03-.99-6.04-9.01c15.5-1.3,20.07-10.97,25.51-23.6,1.24-2.88-1.27-5.48,4.48-4.4Z"/>
  <path class="st0" d="M2079.98,1075.99c5.17-.52,8.95.69,11.98,5.01l-9.99,3.01,1.7,4.77-2.98,3.01c-1.95.51-5.05-1.72-6.8-.77-1.32.71-15.39,21.04-17.51,24.37-3.64,5.71-4.42,12-8.37,17.63-2.74,3.91-19.28,21.1-24.01,16.97l29.12-47.86c3.11-4.34,12.52-10.97,13.96-14.21,2.15-4.84-2.92-9.17-.13-14.04,1.03-1.79,4.04,0,4.61-.49,5.14-4.49,11.31-16.83,8.42,2.6Z"/>
  <path class="st0" d="M1745.53,823.53c-3.09,3.08-11.32,2.44-15.53,2.45l6-7.96-7.99-.03,13.95-16.99-7.96-3.02c-.82-6.7,10.33-4.76,7.99-13.97l-9.98,1.98c7.38-14.96,7.01-25.67-2.01-39.97,16.76,4.51,25.38,29.14,23.79,44.77-.48,4.68-6.11,30.6-8.26,32.73Z"/>
  <path class="st0" d="M815.98,1400c2.52,26,13.77,50.53,11.89,76.77l10.11,6.27-3.81,3.81,1.81,11.15c-5.26,2.69-6.27-4.02-7.15-4.12-5.04-.56-8.04,4.48-12.83,4.12-.08-4.5-1.47-8.64,3.96-8.03-8.16-7.81.34-10.3.14-18.81-.54-23.21-14.55-40.5-9.57-65.67.72-3.65.94-6.6,5.43-5.47Z"/>
  <path class="st0" d="M1841.99,1556.01c1.38,4.4-5.3,6.38-5.48,8.97-.14,2.08,5.12,7.06,3.48,11.01l-9.01-3.99-3.96,4.08c-16.9-10.95-39.52,3.99-56.02,5.92-5.02.59-24.81,1.41-26.98-3.04-1.83-3.75,3.92-3.34,6.01-3.9,9.88-2.62,20.31-3.77,30.37-5.67,12.68-2.39,23.6-8.58,38.28-5.31,4.61-14.06,11.38-7.82,23.31-8.09Z"/>
  <path class="st0" d="M709.99,898.01c.69,3.51-.94,5.77-2.32,8.66-3.77,7.88-20.97,33.27-26.8,41.2-2.99,4.06-12.78,11.4-13.92,14.18-1.61,3.91,2.94,9.62.65,13.55-.63,1.08-11.98,8.14-13.59,6.41,3.46-11.82-9.28-6.54-10-16l9.99-.03-1.99-7.97c2.93-.33,7.08.98,9.59-.45,1.02-.58,12.59-16.55,14.08-18.89,9.33-14.65,14.32-35.3,34.31-40.67Z"/>
  <path class="st0" d="M1003.97,826.01c1.11,1.11,1.14,8.46,2.12,10.52,1.18,2.48,5.55.16,3.91,5.45-5.6-.9-16.85,8.21-13.1,14.08l57.09,29.92c-3.55.71-6.22-.61-9.4-1.57-17.19-5.2-46.35-16.01-62.56-23.44-3.91-1.79-12.5-6.09-14.02-9.99-1.42-3.64,14.77-7.03,17.21-8.95,6.88-.93,4.07,4.64,5.76,3.97,6.47-4.16,6.28-11.45,8.82-17.19.8-1.81.85-6.09,4.17-2.8Z"/>
  <path class="st0" d="M1760.01,883.99l5.97,24.01-15.98-6.02c5.62-6.92,2.68-12.08,1.98-19.97l-63.96,19.99c-1.12-5.33,1.34-3.45,3.93-4.97,15.2-8.93,31.31-14.01,47.4-20.68,4.19-1.74,33.95-19.85,34.6-9.36l-7.9,18.24-6.04-1.24Z"/>
  <path class="st0" d="M1746.42,1207.4c-.56-.32-.09-3.05-1.41-3.46-7.01-.19-9.35,15.15-12,20.04l-7.01-15.97c7.35-.06,11.11-7.11,14.01-12.97-.66-2.97-47-23.93-54.06-28.08-1.11-.65-7.69-1.88-3.94-4.97,3.21-2.64,67.42,27.82,77.89,29.09l6.09,7.87-15.42,8.66c-1.74.55-2.42.77-4.16-.22Z"/>
  <path class="st0" d="M1192.03,1423.99c-1.57-10.15-12.14-15.33-4.01-24.95-.6-3.21-13.94-5.79-17.05-7.04-2.33-.93-3.77,1.53-2.97-3.99l15.98-6.02c.27,8.56,8.14,10.46,13.02,15.96l32.98-59.96-32.92,84.06-5.04,1.93Z"/>
  <path class="st0" d="M1543.98,626c-.56,9.22,12.05,14.86,2.07,23.01l17.39,8.52,2.55,4.46c-3.33.46-7.67-.83-10.7-.02-2.14.57,0,6.02-5.27,4.04.62-7.62-6.93-11.43-12.98-14.02l-31.02,58.01c2.25-9.55,5.59-20.83,9.02-29.96,4.61-12.26,13.17-37.35,18.56-47.44,2.42-4.52,4.74-7.46,10.38-6.6Z"/>
  <path class="st0" d="M983.98,1146c.75.89-6.24,18.76,1.16,21.89l62.85-18.9-71.93,34.07-14.05.93c3.4-8.25,1.46-22.54,14.01-20l-8-21.98c6.78-.18,9.22,8.26,15.97,3.99Z"/>
  <path class="st0" d="M1493.97,1344l31.57,71.45,2.44,14.54-19.15-5.88c-3.39-2.57-2.3-4.71-.83-8.1l-24,7.98c.36-7.53,10.28-7.63,6-15.98.82-.78,18.51,6.16,21.91-.98l-21.72-60.26,3.78-2.77Z"/>
  <path class="st0" d="M1228.19,631.8c3.57,3.32,20.35-7.17,21.8-5.79-1.19,7.25-8.53,7.33-4,15.98-4.04.78-5.23-3.64-9.03-4s-8.67,2.82-12.97,2.02l20,63.98c-5.79,1.13-3.19-1.67-4.51-4.38-6.34-13.08-32.86-68.46-31.51-78.61.27-2.03-.48-4.34,2.99-2.96,2.16.86,14.52,6.37,15.11,6.96,2.08,2.11,1.56,6.3,2.11,6.81Z"/>
  <path class="st0" d="M1467.97,1287.98l-16.01-32.96-2.97-2.99c-3.16,3.35-5.69,7.05-10.91,5.89l-16.08-29.92c27.5,2.83,52.63,32.49,45.96,59.97Z"/>
  <path class="st0" d="M1269.99,761.99c-2.95,5.69,14.26,38.76,17.97,36.01.33-4.88,5.29-8.13,10.03-8.01-.43,11.85,14.53,18.69,13.99,32.01-22.33-5.18-42.73-23.73-45.76-47.22-.48-3.75-2.62-14.77,3.77-12.79Z"/>
  <path class="st0" d="M1155.99,921.99c1.87-8.1-6.57-.54-7.98-2l2.04-9.96c1.36-1.24,27.39,5.31,31.4,7.5,2.31,1.26,3.37-.07,2.54,4.44-18.83,9.7-39.21,11.57-58.63,1.67-2.46-1.25-18.54-12.48-15.35-15.63,7.92,2.81,14.08,7.97,22.43,10.55,7.68,2.37,15.42,4.24,23.55,3.43Z"/>
  <path class="st0" d="M1252.02,1282c5.58-15.16,14.7-28.88,11.96-45.99l-1.99,7.99-10.02-3.03c4.43-7.03,3.27-13.73,4.93-21.07.47-2.07,2.79-13.49,6.08-11.89,15.87,7.75,11.58,67.94-10.95,73.98Z"/>
  <path class="st0" d="M1630,925.98c-13.44,2.71-26.59,9.15-37.06,17.96l5.03.06,4.03,9.98c-11.01,1.22-16.11,10.69-26.69,14.39-2.93,1.03-2.3,2.48-5.26-1.34,5.64-19.1,18.99-35.44,38.35-41.62,5.34-1.7,19.02-6.3,21.6.58Z"/>
  <path class="st0" d="M1163.99,1080.01c-3.88,28.29-31.69,49.18-59.98,45.98-1.07-6.27,1.9-3.04,4.93-3.96,10.15-3.09,27.54-9.38,34.1-17.99,2.04-2.68,2.65-5.87-1.99-1.98-6.28,5.27-6.43-2.04-7.06-8.04,12.11.12,17.17-14.81,30-14Z"/>
  <path class="st0" d="M1484,768.02c-7.18,11.65-18.48,32.78-10.99,45.97l-1-7.98,9.76,3.14-8.75,32.84c-15.39-17.34-14.09-43.52-2.64-62.62,1.58-2.63,9.69-14.47,13.63-11.35Z"/>
  <path class="st0" d="M1623.99,1139.99c-14.73-7.11-28.97-14.08-45.98-11.97-.46,4.19,6.93.92,8.01,1.99.95.95-.1,9.52-3.07,10.01-9.93-6.85-24.46-1.41-32.94-11.99,20.89-10.95,47.2-12.87,66.65,2.32,3.1,2.42,7.79,4.96,7.34,9.64Z"/>
  <path class="st0" d="M1382.01,713.99l7.97-22.91-4.06-2.27c-5.13,1.55-12,3.11-15.88-1.81l35.94-21c-1.77,8.33-3.11,16.73-6.25,24.73-1.03,2.64-13.55,27.59-17.73,23.25Z"/>
  <path class="st0" d="M1135.99,1232.01c1.03,5.68-1.37,3.28-4.39,4.5-5.53,2.23-12.21,2.81-15.5,8.73l11.89,16.76-39.99-10.01c11.28-13.07,30.91-20.07,47.99-19.97Z"/>
  <path class="st0" d="M1725.98,1064c-16.81-5.32-37.19-8.19-47.98-23.98l26,5.96c-2.93-3.5-3.22-20.06,1-19.94l20.98,37.96Z"/>
  <path class="st0" d="M1159.98,794l-13-21.99c-4.49-1.09-9.03,15.28-16.97,11.98l10.01-39.99c13.13,12.72,19.84,31.97,19.96,50Z"/>
  <path class="st0" d="M1591.75,1275.72c1.02-.59,6.18-13.45,12.24-11.71,1.82,5.3-8.39,40-10.99,39.95-8.32-11.95-16.01-23.91-17.07-38.9-.15-2.13-1.39-9.43,2.04-9.05.95,4.8,6.23,24.05,13.77,19.7Z"/>
  <path class="st0" d="M1351.99,1336.01l-7.9,21.02c.45,5.44,18.43,1.28,21.9,3.96-3.08,5.49-36.23,22.42-37.99,20.99,4.11-9.42,4.43-18.47,8.92-28.06.94-2,12.12-21.06,15.06-17.91Z"/>
  <path class="st0" d="M1055.98,1010l-23.97-8v19s-3.97.99-3.97.99l-18.02-35.98c9.23,1.93,18.69,3.7,27.35,7.63,2.77,1.26,22.25,12.6,18.62,16.36Z"/>
  <polygon class="st0" points="1647.99 798.03 1626.58 811.58 1598.01 815.98 1619.97 803 1608.01 788.01 1647.99 798.03"/>
  <path class="st0" d="M1109.94,1018.01l-35.94,17.97c6.5-12.91,35.09-22.82,41.96-31.02,2.89-3.44,1.28-8.17,5.04-10.92,12.36,8.19,4.52,27.06-7.93,29.96l-3.14-5.99Z"/>
  <path class="st0" d="M1187.98,1204l-7.96-2.01c-1.95,10.22-4.72,22.63-9.1,32.02-1.39,2.98.31,4.95-4.91,3.97l9.76-49.07-3.75-12.91c14.5,1.77,20.61,14.78,15.96,28Z"/>
  <path class="st0" d="M1377.98,1318c-11.73-8.54-20.45-32.25-29.92-41.06-3.69-3.44-10.69-2.83-10.06-8.91,10.21-5.85,19.36-2.15,27.08,6.02,3.23,4.11-3.01,7.37-2.78,10.63.38,5.45,17.37,24.32,15.67,33.32Z"/>
  <path class="st0" d="M1211.49,841.51c-3.19,3.55-15.57,5.72-20.22,4.21l-3.12-8.73c-9.63-3-20.32-5.15-29.77-8.46-3.23-1.14-5.34,1.03-4.38-4.51,18.94-1.01,42.58,13.26,59,4.04l2.19,4.1c-1.85,2.62-1.73,7.16-3.71,9.36Z"/>
  <path class="st0" d="M1544,1211.98l37.99,11.01c-2.39,3.73-4.11,1.76-7.17,1.37-10.21-1.29-37.04-8.59-43.93-8.16-3.55.22-6.38,5.04-10.87,3.79-1.77-14.55,18.32-23.5,27.96-12.99l-3.97,4.98Z"/>
  <path class="st0" d="M1398,776.02c3.2,3.34-7.93,8.08-10.96,8.15-4.26.09-12.18-3.98-15.08-7.13-8.91-9.69,3.36-6.8,1.82-11.79l-17.78-33.24c4.16-.91,4.54,2.15,6.44,4.54,6.4,8.08,18.86,30.72,24.5,35.49,3.24,2.74,6.83,4.02,11.05,3.98Z"/>
  <path class="st0" d="M1660,1014.02c-5.48,6.55-13.32,11.78-20.22,16.76-8.59,6.2-23.28,11.25-23.8,22.14-.41,2.24-2.63,1.3-4.03.12-8.79-7.38-.8-29.12,12.04-27.06l1,6c10.4-7.01,22.78-15.38,35.01-17.97Z"/>
  <path class="st0" d="M1563.99,871.99c-15.28,1.57-19.35-13.33-17.98-25.98l7.96,2.01c3.33-2.53,5.88-34.73,14-38.02,1.01,20.6-13.63,43.05-3.99,61.99Z"/>
  <path class="st0" d="M1840.3,1009.72c-4.27-7.24-.8-14-.19-21.6,6.02.39,18.2-2.27,22.09,2.69,7.64,19.62-5.82,21.11-21.89,18.91Z"/>
  <polygon class="st0" points="1381.99 1495.99 1403.13 1497.87 1402.13 1519.13 1382.87 1518.13 1381.99 1495.99"/>
  <path class="st0" d="M1704.01,667.99c5.32-4.75,15.3,5.99,13.98,10.96-6.44,5.87-11.54-1.08-10.27,10.7-5.92,3.48-12.04,3.01-13.68-4.61l7.93-15.04-10.95,9.51-14.67-14.53,16.64-15.05c6.95,3.03,14.31,10.08,11.01,18.06Z"/>
  <path class="st0" d="M1351.72,551.7c-6.64,3.7-14.48,1.69-20.91-1.61,1.48-7.18-2.9-15.44,3.19-21.1l17.14.89.59,21.83Z"/>
  <path class="st0" d="M1034.02,1378l10.63-7.71c5.14.44,11.74,9.5,13.14,14.42-6.96,8.87-17.26,21.01-25.91,6.37-1.88-3.18-1.37-7.49-2.32-8.66-1.24-1.52-10.77-1.52-11.64-9.51-.85-7.86,5.1-5.34,7.42-7.57,3.15-3.03,10.32-17.12,14.3-3.92,2.71,9-4.59,9.43-5.63,16.56Z"/>
  <path class="st0" d="M1021.72,698.26c2.99,5.16-10.12,15.65-14.75,17.26-14.41-11.26-18.33-17.45-1.7-29.37l16.45,12.11Z"/>
  <path class="st0" d="M1712.01,1349.96c-1.73-2.52,11.6-16.04,14.99-16.03,15.4,8.94,20.55,18.96,2,28.14l-16.99-12.11Z"/>
  <polygon class="st0" points="896.01 1039.99 894.06 1061.16 872.21 1059.79 873.87 1040.87 896.01 1039.99"/>
  <path class="st0" d="M1315.64,1339.55c-1.74.99-3.79.32-5.64.43,16.18-16.01-3.85-34.26-5.99-51.97,15.83-.91,21.19,22.69,19.86,34.76-.38,3.47-6.15,15.6-8.23,16.78Z"/>
  <path class="st0" d="M1185.99,761.99c-1.2,11.03,7.08,16.77,16.02,21.01,3.3,1.56,28.19,7.07,23.98,12.99-15.44,7.82-39.86-8.11-43.53-23.44-.87-3.62-2.7-12.39,3.53-10.55Z"/>
  <path class="st0" d="M1408,1598.02c-1.54,7.58-17.01,15.98-22.17,9.15-5.73-7.59,1.01-27.9.18-37.16,18.37,4.28-4.4,33.08,21.99,28.01Z"/>
  <path class="st0" d="M1951.72,1005.72c-11.75,4.89-24.44,1.38-36.55.26-6.5-13.88,22.88-4.66,26.68-10.15,1.91-1.52-4.98-14.4,1.12-11.82,6.32,2.68,11.12,15.02,8.75,21.71Z"/>
  <path class="st0" d="M1630.01,1087.99c3.82-21.8,41.32-26.61,53.95-8.99-4.09,5.88-5.5-2.01-11.01-2.97-16.32-2.84-27.43,10.8-42.94,11.96Z"/>
  <path class="st0" d="M1551.98,1288c-5.68-3.33-3.24-9.58-8.11-14.86-7.43-8.06-25.85-9.53-32.63-14.99-2.3-1.85-1.05-3.78-1.25-6.14,21.58-3.34,46.55,12.08,41.99,35.99Z"/>
  <path class="st0" d="M1630,840.02c-1.63,4.65-7.23,3.47-11.06,5.92-10.14,6.47-15.05,37.51-21.91,36.05-11.07-17.64,13.19-46.62,32.97-41.97Z"/>
  <path class="st0" d="M1423.99,708.01c-1.35,6.47-5.68,8.78-5.49,16.44.36,14.12,12.67,23.67,11.48,37.54-18.47-3.95-20.14-26.85-17.11-42.11l11.11-11.87Z"/>
  <path class="st0" d="M989.99,1456.04l-.99,3.97c-40.42-.72-9.62-23.75,5.97-36,11.41,10.73-27.51,24.19-4.98,32.03Z"/>
  <path class="st0" d="M1103.99,962.01c-.33,20.62-45.48,24.52-51.97,8.96-3.14-7.52,8.95,1.92,9.92,2.22,12.49,3.82,29.1-12.04,42.05-11.18Z"/>
  <path class="st0" d="M967.99,653.99c-13.02,1.86-15.91-16.91-29.79-13.8-1.93,1.35.04,9.86-6.19,7.8-2.91-50.48,39.25,3.04,35.98,6Z"/>
  <path class="st0" d="M1104,1209.98c1.63-4.67,7.23-3.44,11.06-5.92,13.44-8.7,11.36-27.34,21.94-38.02,11.95,19.63-11.87,47.24-33,43.94Z"/>
  <path class="st0" d="M819,1042l2.99,4.97c-5.68,6.88-18.76-.22-25.18,4.84l-2.83,14.19c-7.66-.81-16.88-24-8.98-24h34Z"/>
  <path class="st0" d="M1797.41,1407.43c1.53-1.3,1.67-5.33,4.56-5.43,3.93,6.72-2.45,23.93-10.58,21.78-4.52-4.8-24.94-20.78-23.4-26.74,2.2-2.4,2.51-3.89,6.03-2.07,5.42,2.8,14.28,20.19,23.38,12.47Z"/>
  <path class="st0" d="M1717.42,620.28c22.1,3.94,8.6,18.84-2.4,27.36-18.38-9.01-8.75-16.88,2.4-27.36Z"/>
  <path class="st0" d="M1405.71,1559.71c-18.99,8.2-19.18-6.39-17.44-21.43l13.8-3.46c4.74,7.35,4.49,16.54,3.64,24.89Z"/>
  <path class="st0" d="M1347.83,511.84c-20.95,8.55-20.47-8-17.53-23.55l14.82,1.59,2.71,21.97Z"/>
  <path class="st0" d="M971.41,662.22c4.36-1.12,14.71,9.7,18.32,13.04l-7.03,12.57c-6.57,1.93-15.21-9.96-19.78-13.8-1.31-2.89,5.74-11.11,8.49-11.82Z"/>
  <path class="st0" d="M1019.28,1402.21l12.35,8.76c-3.54,7.6-17.45,27.55-24.66,13.04-4.81-9.67,6.36-16.09,12.31-21.8Z"/>
  <path class="st0" d="M1350,478h-7.99c-.27-13.74,3.99-33.75-16.01-26.02.09-9.53,24-16.78,24-8.98v35Z"/>
  <path class="st0" d="M853.82,1044.16l3.79,11.22-2.43,4.76c-14.88,4.87-30.58,6.9-22.9-13.87l21.53-2.11Z"/>
  <polygon class="st0" points="1903.71 1001.71 1880.21 1003.78 1878.04 988.05 1902.13 986.88 1903.71 1001.71"/>
  <path class="st0" d="M1765.63,594.34c1.45,3.32.2,5.95-1.54,8.77-1.88,3.06-22.96,24.13-26.08,20.88-3.32-10.32,13.33-15.63,14.08-23.08l-1.01-4.95-7.07-5.93c8.69-2.97,14.21-.02,21.62,4.32Z"/>
  <path class="st0" d="M1750.24,1362.25c34.62,3.87,21.37,41.25-5.38,11.75l5.38-11.75Z"/>
  <path class="st0" d="M1380.01,1520.01c-4.93.48-14.53.62-15.84-5.4-.86-3.95,3.14-6.05,3.14-7.61s-8.17-9.76,2.1-12.7c13.17-3.77,10.67,18.17,10.59,25.71Z"/>
  <path class="st0" d="M1026.58,683.43c1.84,1.79,8.67.87,8.7,7.58-2.27,16.7-26.66-2.1-25.42-9.85l10.96-7.11c4.38,1.36,4.11,7.77,5.77,9.38Z"/>
  <path class="st0" d="M1862.01,1011.99l-.33,12.69-2.73,3.32c-3.74.92-6.41-3.33-7.94-3.3-2.8.05-9.12,7.6-14.88-1.96.78-12.82,16.47-10.94,25.88-10.75Z"/>
  <path class="st0" d="M885.95,1025.96c.53-.39,1.31-8.98,10.16-3.06,14.69,9.84-35.74,29.17-21.92-.72,4.27-2.87,11.24,4.17,11.77,3.78Z"/>
  <path class="st0" d="M1725.99,1367.96c-5.7.32-8,8.56-13.99,5.11-4.21-2.58-3.05-4.99-2.01-9.06-6.49,4.82-13.07-4.65-9.13-10.14,6.47-9,27.8,10.25,25.13,14.09Z"/>
  <path class="st0" d="M1369.43,539.62c-.53.86-3.71-.42-3.43,1.36,11.32,8.52-4.27,22.75-9.48,9.49-1.09-2.78-3.59-19.41-2.53-20.48l14.12.89c2.32,1.61,2.75,6.41,1.32,8.74Z"/>
  <path class="st0" d="M1209.29,1052.72c-2.29-2.16-6.27-2.16-5.27-6.71l7.94-1c-3.8-2.79-4.03-9.48-3.83-13.99.13-2.93-1.81-5.83,2.84-5,8.72,3.45,13.69,26.66,4,31.97-3.56.73-3.95-3.64-5.68-5.27Z"/>
  <path class="st0" d="M1234.01,939.99l2.01-15.98,1.99,3.98h3.99s.43-5.56.43-5.56c6.48.13,6.38-4.74,10.58-8.39,11.84,8.83-11.75,32.02-18.99,25.95Z"/>
  <path class="st0" d="M1399.99,1174.02c1.12,6.68-5.23,9.79-9.02,13.96l-.98-5.97-19.98,1.98c3.33-13.56,18.79-13.96,29.98-9.97Z"/>
  <path class="st0" d="M1266.01,1155.98l4.61-1.94,1.38-4.03c-7.42,1.5-7.88-7.73-15.03-10,3.23-12.61,25.24,5.76,26.74,11.32,2.83,10.53-12.19,3.32-17.69,4.65Z"/>
  <path class="st0" d="M1496.02,1126l-4.01-5.99c.51,5.99-7.36,12.27-11.99,15.99-2.13-13.03,3.66-22.42,15.28-27.75,6.61-.61,6.89,15.9.71,17.76Z"/>
  <path class="st0" d="M1468,895.98c-3.98-.32-4.61-.41-4,4.01l5.36.5,8.63,11.5c-12.35,2.41-27.31-6.11-25.98-19.98,5.36,1.91,13.74-2.3,15.99,3.97Z"/>
  <path class="st0" d="M1603.99,1215.99c-2,2.11-9.59-6.33-11.01-7.97-7.23-8.3-13.43-19.6-20.98-28,10.8-4.79,33.91,33.94,31.99,35.97Z"/>
  <path class="st0" d="M1523.66,992.43c1.91,5.62,8.23,4.84,6.32,11.57l-5.97-1.99c4.01,7.29,2.17,11.9,1.98,19.98-12.64.94-12.61-27.67-6.97-29.97l4.64.41Z"/>
  <path class="st0" d="M1401.99,1326.02c-3.57-.32-6.11,2.05-6.07-3.03.1-12.23,4.52-30.99,7.07-42.98,8.25,14.07-.18,31.25-1,46.01Z"/>
  <path class="st0" d="M1161.99,869.99c-4.87,4.74-32.83-29.83-29.97-37.99l11.98,11,17.99,26.99Z"/>
  <path class="st0" d="M1413.97,1521.99l-6.08-.88-1.57-2.43,1.7-26.68c13.41,2.94,9.22,20.3,5.96,29.99Z"/>
  <path class="st0" d="M1522.02,820c-4.75-5.7,26.49-28.59,31.99-31.02,3.57-1.58,3.66-.57,5.95,2.02l-37.94,29Z"/>
  <path class="st0" d="M1346,862.02l1.01,5.94c4.43-5.42,12.89-1.52,18.99-.96-7.52,11.27-16.37,9.32-28.63,9.09l-3.36-8.07,12-5.99Z"/>
  <path class="st0" d="M1111.99,1058.01c.87,5.22-.8,3.57-4.31,4.56-9.65,2.7-28.31.11-37.66-3.67-3.19-1.29-4.91.24-4-4.88l45.98,4Z"/>
  <path class="st0" d="M1330.02,770c-3.44-14.74-2.49-36.63,7.96-48,1.9,11.39-1.88,20.67-3.78,31.2-.99,5.48,2.3,14.09-4.18,16.8Z"/>
  <path class="st0" d="M1668.01,990.01c-.31,3.36,2.01,6.31-3,6.01-13.51-.81-29.59-4.5-43-7.02,13.83-7.84,31.43-.48,46,1Z"/>
  <path class="st0" d="M1211.99,1230.01c2,9.78-32.52,33.12-35.98,29.98l5.05-7.93,30.93-22.05Z"/>
  <path class="st0" d="M870.01,1064.01c4.92.95,31.97-3.29,29.98,4.96-1.5,6.24-33.19,8.64-29.98-4.96Z"/>
  <path class="st0" d="M1244.04,1129.99c-.41-5.34-4.84-7.69-9.19-9.89l-4.82,3.89c-2.28-8.59-4.03-16.94,8.08-13.13,7.23,2.28,18.81,17.67,5.94,19.13Z"/>
  <path class="st0" d="M1471.99,1142.01c3.52,3.32-12.4,15.28-9.97,17.98l3.97,1.98-12.07,1.13c-8.02-5.45,12.84-26.02,18.07-21.09Z"/>
  <path class="st0" d="M1202.02,998l5.18-9.87c10.52-3.24,12.02,24.17,3.77,25.86-7.21,1.47-2.27-13.62-3.92-16.03l-5.03.04Z"/>
  <path class="st0" d="M1282.01,886c1.95,11.09-8.9,21.97-20,19.99-.96-.83,8.1-12.98,9.88-12.08,3.18-4.3-8.67-4.55-1.93-6.94,3.97-1.41,7.96-1.1,12.04-.97Z"/>
  <path class="st0" d="M1378.01,864.01l14.9.13c-.12-12.9,11.58-1.01,10.98,2.63-1.15,7.08-29.55,9.52-25.89-2.75Z"/>
  <path class="st0" d="M1491.58,920.58c.49.28,6.66,7.44,6.46,9.38,4.4,2.98,4.56-8.62,6.99-2,8.12,22.07-23.18,8.21-19.02-7.96,1.91.03,3.77-.46,5.56.57Z"/>
  <path class="st0" d="M1355.51,1178.46c9.54,8.29-10.57,7.08-15.47,5.56l-.05,5.99-9.92-7.01c3.77-8.08,19.57-9.64,25.44-4.54Z"/>
  <path class="st0" d="M1528.02,1051.99l5.97-1.99c-.24,6.99-5.16,12.58-12.13,9.14-3.47-2.47-3.6-22.5,3.15-25.1,5.34,4.41,2.35,12.06,3.02,17.95Z"/>
  <path class="st0" d="M1697,1264.04c6.78-.11-1.76,31.92-4,31.92-7.01-4.23-1.34-31.83,4-31.92Z"/>
  <path class="st0" d="M965.99,1087.99c-5.2,4.89-21.36-20.29-19.98-25.98,3.2-3.62,22.08,20.86,19.98,25.98Z"/>
  <path class="st0" d="M1127.99,1352.03c2.79,2.94-.21,3.63-2.97,3.99-6.36.83-20.04-1.6-26.25-3.8-2.15-.76-5.69-1.08-2.77-4.19,3.78-4.02,26.3,1.31,31.98,4Z"/>
  <path class="st0" d="M1789.99,985.99c-5.19,4.76-23.49-19.4-19.97-25.99,3.44,1.35,6.5,3.17,8.91,6.07,1.28,1.54,11.9,19.15,11.06,19.92Z"/>
  <path class="st0" d="M1406.02,1448c-.3-3.68-.48-5.89,2.01-8.97,1.59-1.95,24.25-19.11,23.93-10.03-.12,3.24-21.64,16.48-25.94,19Z"/>
  <path class="st0" d="M1329.99,602.01c4.44,4.81-19.77,22.61-25.98,19.98-4.14-3.56,24.13-21.99,25.98-19.98Z"/>
  <path class="st0" d="M1637.99,701.99c-8.57.51-16.23.12-24.4-2.64-10.49-3.54-5.27-7.88,2.85-6.96,2.3.26,26.77,5.07,21.55,9.59Z"/>
  <path class="st0" d="M1036.01,783.99c-.58-8.15.99-16.16,3.06-23.96.56-2.12.13-7.82,3.9-6.01,6.82,3.26-1.5,36.38-6.96,29.97Z"/>
  <path class="st0" d="M1379.99,1222.03c.15,3.68,1.02,4.2-2.99,3.93-7.96-.54-15.04-.63-23.01.03l.02-5.98,25.98,2.02Z"/>
  <path class="st0" d="M1517.99,1156.01l-14.96,18.02-6.99-1.03c8.34-4.79,12.02-16.14,21.95-16.99Z"/>
  <path class="st0" d="M1502.6,883.43c-1.52-1.82-4.14-7.55-1.61-9.42,3.34,5.44,17.93,12.53,17.01,18.95-4.45,6.43-5.95-2.24-8.93-5.09-2.02-1.93-5.39-3.14-6.48-4.44Z"/>
  <path class="st0" d="M1211.98,918c-8.07-4.48-10.29-15.45-9.96-24,7.31,4.42,10.36,15.87,9.96,24Z"/>
  <path class="st0" d="M1169.97,1035.99c-3.98.15-4.03,1-3.88-3.01.16-4.21-1.17-22.77,2.91-22.95l2.83,18.82-1.86,7.13Z"/>
  <path class="st0" d="M1498,860.02c-4.7,6.72-16.27,8.61-23.99,9.97-1.51-3.94,8.05-8.55,9.9-9.09,4.68-1.37,9.34-1,14.09-.88Z"/>
  <path class="st0" d="M1231.38,1164.6c1.99,2.54,2.21,6.09,4.6,8.41.44,1.35-1.9,1.45-2.96.97-1.61-.73-17.05-15.48-16.98-17,6.02-7.37,6.66.87,10,4.06,1.65,1.57,4.48,2.46,5.34,3.55Z"/>
  <path class="st0" d="M1575.99,1001.99c-3.21.16-26.61-9.32-21.97-13.99,7.24,2.76,19.86,4.56,21.97,13.99Z"/>
  <path class="st0" d="M1182,1059.98c-4.64,3.62-25.78-8.42-21.99-11.97,7.76,1.69,17.81,4.72,21.99,11.97Z"/>
  <path class="st0" d="M1259.99,1180.01c1.36,4.41-4.75,6.28-7.62,7.32-4.61,1.67-9.41,2.85-14.36,2.66-1.34-4.88,4.8-5.65,8.05-6.89,4.55-1.75,8.86-3.72,13.93-3.08Z"/>
  <path class="st0" d="M1245.99,882.01c2.23,8.63-5.46,5.32-8.91,10.18-2.64,3.73,1.55,7.57-9.08,5.79,3.98-8.06,7.73-15.74,17.99-15.97Z"/>
  <path class="st0" d="M1335.96,837.98l-3.98-1c-.85-7.41,5.48-17.47,12-20.98l-8.02,21.98Z"/>
  <path class="st0" d="M1178.02,1034c.38-8.9-5.49-17.04,2.98-23.96l2.54,18.74-5.52,5.22Z"/>
  <path class="st0" d="M1375.99,1213.99c-8.05-.2-20.09,5.84-21.98-5.98,7.65,4.37,21.59-4.58,21.98,5.98Z"/>
  <path class="st0" d="M1390,1231.98l11-21.94c4.39,2.95,1.87,3.68,1.17,7.1-1.29,6.32-4.68,14.21-12.17,14.84Z"/>
  <path class="st0" d="M1494.01,886.01c1.83-2.01,22.68,12.1,12.99,17.95-2.88-7.61-13.92-9.58-12.99-17.95Z"/>
  <path class="st0" d="M1237.99,874.01c1.55,1.35-10.59,13.72-11.98,15-2.74,2.51-3.8,3.76-8,2.98l11.85-15.13,8.13-2.85Z"/>
  <path class="st0" d="M1381.99,824.01c6.69,7.03-23.37,5.59-25.98.98,8.59-1.25,17.45-2.92,25.98-.98Z"/>
  <path class="st0" d="M1505.98,1150c-.71,9.25-8.3,17.73-17.97,15.99-1.09-6.14,5.47-4.07,8.95-8.04,3.82-4.34.4-8.1,9.02-7.95Z"/>
  <path class="st0" d="M1242,1163.98c-2.08,1.51-20.55-11.5-15.99-17.97l14.78,11.98,1.21,5.99Z"/>
  <path class="st0" d="M1531.98,1154c-5.05-.78-10.81-21.09-9.97-21.99,9.07,1.41,10.69,14.65,9.97,21.99Z"/>
  <path class="st0" d="M1382,839.98c-4.19,1.1-9.2-1.8-12.78-1.45-5.66.55-5.13,6.98-11.21-2.51,7.82-2.14,19.6-5.54,23.98,3.95Z"/>
  <path class="st0" d="M1297.01,772.05c5.45.18,2.36,16.12-5.99,13.94-7.24-1.89,1.84-14.08,5.99-13.94Z"/>
  <path class="st0" d="M1567.99,1037.99l-5.35-2.9c3.32-7.38-1.62-17.05,4.37-23.08,1.25,8.59,2.92,17.45.98,25.98Z"/>
  <path class="st0" d="M1251.99,1244.01l-1.85,9.12c-4.19,1.68-9.21,2.02-12.09-2.12,2.11-6.42,7.84-6.49,13.94-7Z"/>
  <path class="st0" d="M1141.03,896.01c4.72-.96,9.44,12.43,3.95,13.97-8.99,2.51-8.72-13-3.95-13.97Z"/>
  <path class="st0" d="M1555.97,1037.99c-7.59,1.45-2.34-6.66-2.51-10.78s-6.58-6.03,1.55-11.21c4.71,6.64,3.25,14.84.96,21.98Z"/>
  <path class="st0" d="M1129.99,1096.03c-4.72,19.74-21.85-6.55-7.92-3.14,2.29.56,4.88,3.42,7.92,3.14Z"/>
  <path class="st0" d="M1445.95,1264.05c1.17,7-2.27,12.88-9.94,11.94l3.02-12.04,6.91.1Z"/>
  <path class="st0" d="M1619.99,955.99c-4.31.15-16.87.39-13.97-6.97,3.52-8.95,16.74,4.51,13.97,6.97Z"/>
  <path class="st0" d="M1552.01,1307.99c-2.78-1.97-.63-14.01,6.96-11.98,8.07,2.15-1.53,15.83-6.96,11.98Z"/>
  <path class="st0" d="M1435.98,697.96c-1.52,2.23-14.55,3.74-11.96-4.94,2.07-6.96,16.39-1.54,11.96,4.94Z"/>
  <path class="st0" d="M1595.99,1139.99c-.78,2.19,2.47,16.13-2.96,13.99-5.18-3.41-5.65-8.12-5.02-13.98h7.98Z"/>
  <path class="st0" d="M1087.04,1208c5.91-1.56,12.73,7.75,5.82,9.88-9.51,2.93-11.47-8.39-5.82-9.88Z"/>
  <path class="st0" d="M1695.02,1082.02c8.44-2.38,8.91,10.97,3.95,11.97s-10.25-10.19-3.95-11.97Z"/>
  <path class="st0" d="M1496.01,796.01l-1.18,6.16c-4.64,1.62-9.36,3.76-12.82-1.2-1.29-5.98,10.42-5.35,14-4.96Z"/>
  <path class="st0" d="M1310,1350.01l-1.2,8.14c-5.1,2.7-7.52,1.19-10.79-3.18-1.2-5.39,8.56-5.56,11.99-4.96Z"/>
  <path class="st0" d="M1034.02,956c6.68-4.71,11.76,10.61,4.95,11.99-5.8,1.17-8.12-9.75-4.95-11.99Z"/>
  <polygon class="st0" points="1183.99 742.01 1182.12 751.12 1174.01 751.99 1175.88 742.88 1183.99 742.01"/>
  <path class="st0" d="M945.95,1052.09l-1.19,6.05c-5.95,2.62-14.56.61-9.52-6.29l10.71.24Z"/>
  <polygon class="st0" points="1649.69 832.34 1649.99 839.99 1640.02 836.98 1643.18 830.1 1649.69 832.34"/>
  <path class="st0" d="M1397.03,1446.01c5.87-1.31,6.85,10.88,1.94,11.98-5.87,1.31-6.85-10.88-1.94-11.98Z"/>
  <polygon class="st0" points="1644.01 705.99 1647.02 696.02 1653.99 699.03 1644.01 705.99"/>
  <polygon class="st0" points="1091.99 1344.01 1085.03 1353.99 1082.02 1347.02 1091.99 1344.01"/>
  <path class="st0" d="M1334.02,601.99c-1.41-.95-2.59-12.95,4.96-9.97,7.34,2.89.36,13.55-4.96,9.97Z"/>
  <polygon class="st0" points="1695.99 1309.99 1688.34 1309.68 1689.03 1300.01 1695.99 1309.99"/>
  <polygon class="st0" points="1047.68 740.34 1047.99 747.99 1038.01 742.97 1042.64 738.33 1047.68 740.34"/>
  <path class="st0" d="M1227.99,872.01c2.3,2.08-9.78,14.26-11.98,11.98.43-6.12,5.04-13.19,11.98-11.98Z"/>
  <path class="st0" d="M1517.98,1164c1.58,4.66-5.07,14.01-8.99,13.95-7.65-.12,6.87-13.75,8.99-13.95Z"/>
  <path class="st0" d="M1799.99,997.99h-9.98c-1.27-10.99,11.25-10.99,9.98,0Z"/>
  <path class="st0" d="M1375.99,816.03c5.45,5.62-14.44,3.94-15.99,3.95,3.37-6.73,9.97-6.33,15.99-3.95Z"/>
  <path class="st0" d="M1228,1172.04l-4.11,3.14c-2.39-.82-12.41-8.62-9.88-11.17l13.99,8.03Z"/>
  <path class="st0" d="M1373.98,1228c.32,8.21-11.84,7.81-15.97,2.99l15.97-2.99Z"/>
  <path class="st0" d="M1575.97,1031.99c-7.4,1.64-2.84-9.77-3.95-13.99,6.05,2.79,6.14,8.56,3.95,13.99Z"/>
  <path class="st0" d="M1068.02,774c2.75,1.54,10.83,2.45,9.97,6.97-1.15,6.04-13.07-1.19-9.97-6.97Z"/>
  <path class="st0" d="M1519.99,883.99c-1.19,1.2-15.03-7.55-11.98-9.98,4.41-2.43,14.29,7.65,11.98,9.98Z"/>
  <path class="st0" d="M1401,1400.04l5.07,6.95-3.07,4.97c-3.54-3.59-7.44-8.41-2-11.92Z"/>
  <polygon class="st0" points="1753.99 991.98 1744.01 993.99 1744.17 988.2 1750.75 986.22 1753.99 991.98"/>
  <path class="st0" d="M1160.02,1032c-6.36-12.74,4.77-24.58,2.58-5.65-.24,2.07,2.22,4.59-2.58,5.65Z"/>
  <path class="st0" d="M1125.99,1314.01c.78,5.02-2.55,10.26-7.98,9.98.29-5.76.48-11.79,7.98-9.98Z"/>
  <path class="st0" d="M1618,726.02c1.05,1.02-8.64,15.03-9.99,6.95-.67-3.98,6.07-8.04,9.99-6.95Z"/>
  <path class="st0" d="M1665.99,1273.99l-9.95-4.99,2.98-2.98c5.63-.82,7.8,2.55,6.97,7.97Z"/>
  <polygon class="st0" points="989.99 1056.01 990.01 1061.99 980.01 1061.99 980.01 1058.03 989.99 1056.01"/>
  <path class="st0" d="M1335.99,647.99c-6.13.55-6.49-5.03-5.98-9.98,6.13-.55,6.49,5.03,5.98,9.98Z"/>
</svg>