<?xml version="1.0" encoding="UTF-8"?>
<svg id="Layer_0_xA0_Image" xmlns="http://www.w3.org/2000/svg" version="1.1" viewBox="0 0 2048 2732">
  <!-- Generator: Adobe Illustrator 30.2.1, SVG Export Plug-In . SVG Version: 2.1.1 Build 1)  -->
  <defs>
    <style>
      .st0 {
        fill: #4d5a4c;
      }
    </style>
  </defs>
  <path class="st0" d="M719.9,1829.77c-7.99,19.42-8.81,39.65-4.47,59.73,4.64,21.46,10.3,42.77,16.82,63.74,10.34,33.25,10.65,66.99,6.5,100.95-2.91,23.79-7.33,47.4-10.89,71.12-5.11,34.07-7.22,68.3-3.62,102.63,2.6,24.81.28,49.1-4.09,73.53-8.58,47.98-19.6,95.22-37.03,140.86-10.95,28.69-19.05,58.2-23.76,88.64-2.5,16.12-5.56,32.18-9.22,48.07-3.88,16.86-8.73,33.5-13.28,50.2-.38,1.41-1.69,2.58-3.47,5.18-1.08-3.35-1.84-5.32-2.35-7.35-1.65-6.45-2.68-13.11-4.89-19.36-9.71-27.51-6.16-54.6,2.52-81.38,6.98-21.53,15.82-42.49,22.12-64.2,12.52-43.17,24.02-86.64,35.61-130.07,5.13-19.23,5.59-38.86,2.67-58.53-1.3-8.72-1.02-17.21,1.87-25.64.8-2.33.89-5.13.5-7.59-2.85-17.72-6.58-35.33-8.69-53.14-1.66-14.01,1.11-27.95,5.57-41.33,13.09-39.31,21.34-79.67,27.86-120.53,4.23-26.51,1.11-51.64-8.7-76.41-4.65-11.74-8.45-23.86-12.07-35.98-6.73-22.52-5.95-45.41-2.59-68.37,3.9-26.7,7.81-53.4,11.61-80.11,4.13-28.99.21-57.05-9.31-84.61-6.08-17.61-11.37-35.5-16.93-53.29-.76-2.43-1.07-5-1.69-8.03,5.11.64,5.35,4.42,6.55,7.24,8.08,19.06,13.91,38.83,19.1,58.86,4.84,18.68,9.88,37.41,16.54,55.49,9.56,25.98,11.7,51.77,3.3,78.3-1.19,3.77-1.61,7.78-2.39,11.68l.32-.33Z"/>
  <path class="st0" d="M831.66,2301.54c18,65.24,35.61,129.07,53.26,193.04,22.58,4.4,44.75,8.77,66.94,13.01,9.27,1.77,11.48-.64,13.32,15.54-76.83,48.68-154.08,97.49-231.33,146.31-.53-.54-1.06-1.08-1.58-1.62.71-1.62,1.24-3.35,2.15-4.85,8.28-13.68,16.73-27.26,24.9-41.01,2.32-3.9,5.28-6.29,9.39-8.31,14.33-7.03,28.32-14.74,42.56-21.95,2.21-1.12,5.03-1.33,7.59-1.41,6.3-.19,12.62-.06,19.53-.06,13.96-23.02,28.06-46.26,42.06-69.34-1.04-1.49-1.41-2.59-2.17-3.04-10.83-6.39-14.41-16.72-17.52-28.3-17.94-66.91-36.51-133.65-54.89-200.45-1.14-4.15-2.42-8.25-3.63-12.35,5.6-4.55,163.97-67.42,178.58-70.75,3.94,5.62,8.14,11.55,12.25,17.54,1.26,1.84,2.24,3.88,3.71,6.44-55.13,23.9-109.69,47.54-165.11,71.56Z"/>
  <path class="st0" d="M987.84,2418.63c47.06-60.46,93.47-120.07,140.37-180.32,7.33,5.35,12.36,12.55,18.46,19.72-41.73,54.36-83.25,108.44-125.13,163,42.7,45.64,84.99,90.84,127.15,135.89,9.82-4.09,55.99-39.36,60.37-46.17,4.37,2.77,8.75,5.54,13.52,8.56-1.02,2.62-1.83,5.11-2.92,7.47-11.05,23.87-22.2,47.69-33.2,71.59-3.03,6.58-7.15,12.77-6.86,20.59.07,2.04-1.7,4.24-2.87,6.22-15.8,26.63-31.62,53.26-47.52,79.83-1.49,2.5-3.61,4.62-6.11,7.76-3.42-4.12-6.28-7.56-9.85-11.86,3.21-5.17,6.1-10.74,9.84-15.67,13.58-17.91,21.62-37.76,24.08-60.25,1.62-14.85,5.15-29.5,7.77-44.25.1-.55-.34-1.2-.65-2.21-5.93,1.55-11.89,3.1-19.19,5-48.51-54.32-97.47-109.13-147.27-164.89Z"/>
  <path class="st0" d="M1355.16,1276.46c-9.24,13.09-17.67,25.02-26.6,37.67-5.7-4.96-14.77-5.67-18.16-14.23,2.34-1.5,5.62-2.41,6.58-4.42,6.85-14.39,13.23-29.01,19.9-43.89-48.72-57.22-97.05-113.99-146.3-171.83,13.06-6.77,26.62-10.15,39.69-16.72-9.91-14.13-19.57-27.89-29.79-42.46,9.07-2.98,15.69-3.52,22.2,2.91,15.39,15.21,30.72,30.57,49.07,42.38,1.12.72,2.27,1.41,4.06,2.53-7.92,10.44-15.09,19.88-22.86,30.11,11.14,15.17,22.12,30.12,32.79,44.65-1.25,5.79-4.46,11.83-3.02,16.4,1.5,4.77,7.43,8.19,11.52,12.1,33.03,31.51,66.08,63.01,99.15,94.48,2.34,2.23,4.85,4.28,7.52,6.62,3.59-8.71,1.86-14.88-4.22-21.31-20.14-21.3-39.65-43.2-59.39-64.89-.81-.89-1.48-1.93-3.59-4.72,15.76.86,29.68,1.62,44.99,2.45,22.6,44.6,45.92,90.59,69.62,137.36-4.09,3.29-7.89,6.42-11.75,9.45-8.21,6.45-8.25,6.47-15.97.02-15.86-13.24-31.68-26.53-47.52-39.79-5.59-4.68-11.21-9.31-17.91-14.88Z"/>
  <path class="st0" d="M1231.38,576.99c3.85,2.35,7.47,5.93,11.62,6.73,5.46,1.05,7.45,4.47,9.81,8.43,3.63,6.1,7.55,12.03,11.35,18.04l-.37-.37q4.75,14.86-2.24,30.63c-38.69,86.67-77.5,173.3-115.96,260.08-3.39,7.65-8.75,12.05-15.21,15.59-3.83-1.32-4.39-3.64-3.27-6.52,1.21-3.1,2.59-6.14,3.93-9.18,38.73-87.75,77.5-175.48,116.12-263.28,1.91-4.34,6.37-8.69,3.53-13.86-4.34-7.91-6.57-16.88-16.49-21.44-66.59-30.58-132.91-61.72-199.28-92.77-4.4-2.06-8.52-3.02-13.42-1.8-6.45,1.6-13.06,2.72-19.66,3.51-5.95.71-9.1,3.64-11.41,9.2-13.55,32.6-27.47,65.04-41.29,97.53-22.17,52.1-44.57,104.1-66.32,156.37-3.48,8.36-7.9,15.14-15.13,20.24-1.26.89-2.77,1.43-4.57,2.34-2.14-6.13.04-10.85,2.06-15.66,35.41-84.1,70.8-168.22,106.15-252.34,4.9-11.66,9.48-23.47,14.54-35.06.89-2.05,3.19-4.3,5.27-4.87,9.32-2.52,18.73-4.83,28.24-6.4,3.26-.54,7.21.68,10.35,2.14,47.4,22.07,94.72,44.32,142.07,66.52,17.19,8.06,34.39,16.1,51.62,24.06,1.76.81,3.82.98,5.75,1.45.73.23,1.47.47,2.2.7Z"/>
  <path class="st0" d="M1477.87,1790.85c.2,3.17.62,6.33.56,9.49-.89,45.42,2.98,90.54,8.57,135.54,6.44,51.89,13.52,103.71,19.56,155.65,4.06,34.89,1.96,69.85-1.41,104.74-2.05,21.21-4.4,42.48-4.67,63.74-.65,51.3-.13,102.62-.13,153.93,0,16.17,3,31.78,8.28,47.01,3.49,10.07,6.92,20.16,10.3,30.27,10.43,31.19,6.49,60.41-12.13,87.57-4.9,7.14-9.74,14.33-14.89,21.29-13.28,17.93-20.32,38.02-21.75,60.23-.34,5.3-1.27,10.58-2.11,15.84-.37,2.28-1.01,4.57-1.85,6.72-1.34,3.39-2.64,7.58-7.18,7.1-4.61-.48-5.27-4.82-5.23-8.46.07-6.63.16-13.36,1.25-19.87,2.76-16.53,8.57-32.16,15.53-47.34,4.72-10.29,9.53-20.56,14.79-30.58,11.84-22.53,15.94-46.51,13.68-71.62-1.61-17.91-3.68-35.78-5.81-53.64-4.05-34.07-8.44-68.1-12.35-102.18-.98-8.58-1.34-17.33-.88-25.95,2.05-38.58,3.96-77.19,7.01-115.7,2.03-25.6,4.66-51.18,2.95-76.82-1.35-20.24-4.03-40.43-6.93-60.52-9.16-63.5-11.66-127.37-11.16-191.4.21-27.63,1.47-55.26,2.41-82.88.14-4.13,1.15-8.22,1.76-12.33.61.06,1.22.11,1.83.17Z"/>
  <path class="st0" d="M1021.05,2606.08c-15.44,36.04-30.2,70.52-45.43,106.09-31.65-3.56-64.26-7.23-96.96-10.9-1.63-5.67,2.36-7.64,5.3-9.97,14.61-11.61,29.3-23.12,43.96-34.67,32.73-25.77,65.46-51.54,98.18-77.32,2.07-1.64,4.06-3.39,7.2-6.02-7.29-14.31-14.63-28.71-22.1-43.36,6.89-4.24,13.27-8.16,19.58-12.04,6.14,3.64,53.89,53.04,61.57,63.89-9.38,7.83-21.55,11.04-32.68,18.75,19.67,22.36,39.64,43.98,60.14,66.91-6.43,4.71-12.64,9.26-19.34,14.17-26.47-25.16-52.43-49.84-79.42-75.51Z"/>
  <path class="st0" d="M1186.32,2436.98c50.75,10.73,100.43,21.23,151.47,32.02-2.1,3.24-3.05,5.22-4.46,6.79-2.44,2.73-4.89,5.56-7.79,7.74-11.6,8.72-16.82,20.08-14.16,35.5-11.65,2.99-22.67,5.82-35.08,9.01,2.78-11.36,5.12-20.92,7.75-31.7-10.78-3.58-21.37-7.09-32.15-10.67-.27-5.35-.52-10.26-.84-16.53-40.51-7.72-80.83-15.41-121.95-23.25-1.3,7.57-2.4,14.03-3.69,21.55,14.2,2.02,27.63,3.88,41.04,5.87,13.26,1.96,26.76,2.72,41.83,6.76-15.86,18.05-31.68,32.96-46.97,48.3-31.05-28.73-61.57-56.94-92.07-85.18q-8.15-7.55-2.77-17.55c1.73-3.23,3.54-6.41,5.27-9.64,1.56-2.91,3.05-5.84,4.94-9.47,30.12,5.27,60.18,10.53,91.2,15.96,1.35-5.31,2.67-10,3.72-14.75,2.38-10.73,4.46-21.52,6.98-32.21,1.38-5.87,3.55-7.09,9.28-6.45,5.64.63,7.61,3.21,6.69,9.66-2.4,16.81-5.01,33.6-7.49,50.4-.33,2.26-.44,4.56-.75,7.84Z"/>
  <path class="st0" d="M1181.98,1447.97c-7.35-10.65-14.49-20.99-21.4-31,39.31-56.57,78.21-112.54,117.36-168.87-2.63-2.95-4.73-5.46-6.99-7.81-44.75-46.65-89.45-93.34-134.37-139.84-4.81-4.98-8.47-9.95-9.24-17.03-.5-4.6-2.23-9.05-3.04-13.63-.25-1.39.43-4.07,1.22-4.3,1.62-.47,3.75-.03,5.38.7,1.44.64,2.49,2.16,3.69,3.32,57.91,55.63,115.83,111.26,173.73,166.91,7.59,7.3,7.86,9.01,2.04,17.89-41.99,64.09-84.04,128.14-126.09,192.19-.17.25-.54.37-2.29,1.49Z"/>
  <path class="st0" d="M1428.64,2584.27c15.51-35.84,31.02-71.69,47.53-109.84,1.53,4.22,2.66,6.07,2.82,7.99,1.33,16.6,2.57,33.2,3.57,49.82.15,2.49-.73,5.2-1.69,7.58-7.52,18.5-16.11,36.63-22.55,55.49-7.18,21.04-12.44,42.73-19.03,65.88,3.36-1.33,5.18-2.06,7.61-3.02,3.08,7.35.77,14.94,1.07,22.3.31,7.63.07,15.28.07,22.54-6.9,2.63-36.03,2.13-49-.65,9.58-117.85,19.17-235.85,28.8-354.38,3.16-1.17,6.17-2.39,9.24-3.4,2.78-.91,5.63-1.59,9.76-2.74.25,3.57.82,6.37.58,9.1-3.48,39.13-7.11,78.26-10.62,117.39-3.46,38.44-6.83,76.89-10.24,115.34.7.2,1.39.4,2.09.6Z"/>
  <path class="st0" d="M1379.09,2444.8c-11.11,9.5-21.1,5.09-30.96,2.79-45.42-10.59-90.81-21.28-136.2-31.98-2.52-.59-4.96-1.57-7.63-2.43,20.62-70.38,41.1-140.25,61.89-211.2,6.27,2.4,11.38,4.36,17.56,6.73-15.36,61.91-30.56,123.17-46.07,185.71,45.17,10.96,89.62,21.75,134.58,32.66,8.33-17.05,16.37-33.1,24.03-49.32,4.28-9.05,11.48-15.19,20.56-22.99.1,4.59.55,7.34.16,9.97-6.7,45.15-13.5,90.28-20.28,135.42-.74,4.94-1.82,9.86-2.16,14.83-.43,6.16-3.47,8.12-10.53,6.83-1.58-24.56-3.17-49.32-4.95-77.01Z"/>
  <path class="st0" d="M1628.63,1489.93c7.22,44.76,15.84,88.47,23.62,132.34,7.67,43.28,13.5,86.9,19.48,130.46,3,21.9,7.49,43.25,15.35,63.95,12.09,31.87,20.95,64.65,25.62,98.45,1.27,9.2,1.54,18.6,1.54,27.91-.03,39.76-4.42,79.15-10.67,118.36-.68,4.24-.5,9.32-6.38,12.49-.53-2.9-1.42-5.05-1.22-7.08,3-30.39-1.02-60.57-2.2-90.85-2.27-57.89-14.18-114.29-25.85-170.72-2.21-10.7-5.55-21.36-9.85-31.41-13.62-31.86-19.89-65.44-26.2-99.25-8.02-42.92-7.75-86.23-9.1-129.47-.45-14.56,1.75-29.22,3.05-43.8.34-3.84,1.84-7.58,2.81-11.36Z"/>
  <path class="st0" d="M822.04,1317.29c-32.5-1.17-63.93-2.3-96.1-3.46.56-8.12,6.96-14.97,8.87-23.5h116.65c13.88,83.04,27.69,165.62,41.62,248.95-11.16,3.14-21.56,6.07-33.42,9.41-12.56-77.26-24.97-153.61-37.62-231.4Z"/>
  <path class="st0" d="M1485.01,1223.03c-14.64-15.35-28.19-29.55-41.74-43.76-.92-.96-2.28-1.8-2.63-2.95-.6-1.94-1.16-4.3-.54-6.06.31-.88,3.45-1.52,4.98-1.09,7.04,1.99,13.95,4.43,20.94,6.63,1.49.47,3.07.63,6.67,1.33-18.29-34.65-35.75-67.7-53.89-102.06-2.17,3.73-3.74,6.15-5.04,8.72-7.54,14.84-14.89,29.78-22.63,44.51-1.6,3.04-4.08,6.49-7.03,7.82-17.85,8.06-35.96,15.56-55.02,23.68-2.18-6.92-4.13-13.09-6.14-19.46,40.31-39.48,80.4-78.74,121.86-119.35,2.14,5.4,3.77,9.17,5.14,13.03,1.44,4.06,2.64,8.2,3.96,12.32-5.08,7.66-10.03,15.13-15.39,23.21,20.72,41.65,41.45,83.31,63.13,126.89,14.8-24.69,27.07-49.01,42.7-71.85.31,1.81.91,3.63.88,5.44-.34,17.98-.8,35.96-1.17,53.94-.07,3.42-.14,6.67-3.68,8.61-18.34,10.06-36.67,20.15-55.35,30.43Z"/>
  <path class="st0" d="M844.49,1225.81c19.52-9.01,39.07-17.95,58.52-27.1,4.4-2.07,7.78.21,11.33,1.77,31.11,13.66,62.18,27.41,93.28,41.11,4.53,1.99,9.14,3.81,14.57,6.07-4.87,11.32-9.7,22.52-14.37,33.37h-105.7c1.61,10.8,3.13,20.93,4.64,31.05,3.21,21.54,4.58,15.66-12.92,25.37-1.4.78-2.97,1.24-4.71,1.95-4.49-23.23-8.87-45.91-13.3-68.8-31.37-3.45-62.26-3.63-94.3-7.29,5.13-7.77,9.79-11.72,18.31-11.62,42.66.52,85.32.48,127.98.63,3.62.01,7.23,0,11.14,0,2.35-6.24,4.44-11.77,7.04-18.67-34.43-1.96-67.8-3.85-101.18-5.75-.11-.7-.22-1.41-.33-2.11Z"/>
  <path class="st0" d="M1080.54,1153.75c14.74-3.86,29.47-7.72,44.21-11.59,5.08-1.34,10.73-4.75,15.07-3.52,4.34,1.23,7.36,7.1,10.99,10.9,28.96,30.36,57.94,60.71,86.89,91.08,2.28,2.39,4.44,4.88,6.94,7.63-3.43,5.13-6.66,10.05-10,14.9-5.48,7.97-5.56,7.98-14.56,4.6-26.79-10.08-53.57-20.18-80.36-30.26-2.17-.82-4.37-1.55-7.71-2.73-5.23,17.6-6.7,35.77-11.36,53.91-5.43-.44-10.57-.86-16.58-1.35,3.42-22.17,6.7-43.43,10.12-65.61-29.31-14.1-59.33-26.26-89.23-40.49,4.17-6.12,10.3-5.87,14.4-8.86,5.62-4.08,10.09-.57,14.82,1.49,36.65,15.88,73.27,31.81,109.92,47.68,2.66,1.15,5.47,1.98,9.04,3.25,1.94-8.49,3.69-16.14,5.63-24.61-33.4-14.82-66.07-29.32-98.74-43.82.16-.87.33-1.73.49-2.6Z"/>
  <path class="st0" d="M905.84,2374.03c-3.88,7.48-6.88,13.28-10.4,20.07,19.27,27.09,38.69,54.37,58.13,81.7-13.62,1.68-26.47,3.36-39.35,4.81-8.27.93-9.86-.17-12.02-8.13-13.24-48.84-26.42-97.7-39.59-146.56-.51-1.89-.67-3.87-1.11-6.56,7.76-3.91,15.4-7.75,24.32-12.25,20.18,27.83,40.22,55.47,61.08,84.24,12.75-12.82,24.86-24.99,37.34-37.53,4.89,2.5,9.51,4.86,15.53,7.94-12.37,15.71-24.43,31.01-37.28,47.32,22.4,31.78,44.75,63.49,67.65,95.98-3.72,2.17-7.27,4.24-10.27,5.98-37.73-45.34-75.15-90.28-114.04-137.01Z"/>
  <path class="st0" d="M1508.01,1358.41c-53.56,36.87-106.15,73.08-158.86,109.37-6.36-9.18-12.16-17.55-18.7-26.99,47.92-32.07,96.4-64.51,145.17-97.16-1.42-3.38-2.45-6.13-3.7-8.77-27.34-57.82-54.68-115.65-82.15-173.41-1.45-3.04-2.1-5.33.16-8.16,2.2-2.75,4.01-5.81,7.22-10.53,37.32,72.6,73.79,143.55,110.86,215.66Z"/>
  <path class="st0" d="M1600.17,1074.53c-2.77,9.64-5.42,18.47-7.84,27.37-5.12,18.83-5.21,38.26-5.93,57.52-1.94,51.95-5.62,103.72-11.61,155.38-2.18,18.76-1.8,37.89-1.58,56.85.44,38,.86,76.06-5.28,113.61-3.69,22.59-10.09,44.8-16.39,66.87-2.89,10.12-7.48,20.07-12.99,29.07-13.49,22.05-23.62,45.44-31.16,70.07-1.75,5.72-3.77,11.4-6.27,16.83-.75,1.62-3.78,3.43-5.33,3.1-1.63-.34-3.63-3.02-3.88-4.9-.38-2.85.3-5.97,1.07-8.83,5.48-20.27,11.52-40.36,21.53-58.97,7.46-13.87,12.76-28.5,16.57-43.77,2.65-10.65,5.69-21.23,9.12-31.66,4.28-13.03,7.18-26.23,8.54-39.92,1.52-15.22,4.71-30.26,6.38-45.47,2.07-18.84,4.18-37.74,4.74-56.66,1.16-39.61.59-79.28,2.13-118.88,1.12-28.91,4.18-57.76,6.94-86.58,1.87-19.55,4.43-39.04,7.2-58.48,1.6-11.23,4.47-22.25,11.01-31.84,3.1-4.55,6.3-9.2,13.04-10.7Z"/>
  <path class="st0" d="M892.38,1377.53c33.9-17.48,66.58-34.34,100.71-51.95,0,4.35.36,6.85-.06,9.22-3.9,22.28-8.62,44.45-11.6,66.84-1.21,9.07-4.73,16.25-9.4,23.51-15.84,24.62-31.53,49.35-47.31,74.01-1.87,2.93-3.99,5.7-7.16,8.3-9.47-43.12-17.54-86.02-25.19-129.93Z"/>
  <path class="st0" d="M1464.12,2329.27c-1.54-7.29-2.75-13-4.19-19.82-4.25,1.48-7.92,2.69-11.54,4.04-3.7,1.38-7.34,2.89-11.42,4.5-2.02-3.13-3.95-6.15-6.55-10.18-35.18,14.7-70.36,29.39-105.93,44.25.56,7.79,1.08,14.98,1.68,23.28,4.09-1.56,7.17-2.62,10.16-3.9,13.79-5.87,27.5-11.92,41.35-17.65,3.76-1.55,7.88-2.21,12.63-2.3-6.22,16.55-15,31.25-22.66,47.3-9.96-2.23-19.65-4.39-29.33-6.57-20.79-4.68-41.59-9.32-62.37-14.07-10.29-2.35-11.56-4.34-9.47-14.49,1.27-6.16,2.7-12.29,3.9-17.72,25.3-10.29,49.9-20.29,75.77-30.81,0-11.26-.08-22.52.02-33.78.13-14.72.19-14.73,14.31-19.59,1.5-.52,3.1-.75,6.13-1.47,1.19,18.03,2.33,35.41,3.56,54.03,35.67-13.91,70.24-27.39,105.56-41.17,0,15.93.36,30.53-.18,45.1-.2,5.52-5.69,7.49-11.46,11Z"/>
  <path class="st0" d="M1025.23,1463.06c-10.96-5.03-20.47-9.4-29.44-13.52,19.53-72.81,38.83-144.73,58.36-217.55-24.69-11.77-48.87-23.29-73.22-34.89.91-1.13,1.28-2.03,1.72-2.06,12.83-.96,25.48-3.21,38.25,2.23,19.6,8.36,39.71,15.53,59.57,23.27,3.03,1.18,5.93,2.69,9.96,4.54-21.74,79.34-43.33,158.13-65.21,237.99Z"/>
  <path class="st0" d="M1002.85,2567.1c-61.4,42.5-121.45,84.3-181.83,125.63-8.91,6.1-14.65,12.87-13.92,24.94-20.67-5.24-40.5-10.26-61.04-15.47.68-1.15,1.1-2.86,2.18-3.55,40.56-26.12,81.22-52.1,121.79-78.2,34.15-21.97,68.21-44.06,102.32-66.1,1.68-1.08,3.37-2.15,5.07-3.2,3.88-2.4,7.28-2.35,10.64,1.26,4.51,4.84,9.38,9.34,14.8,14.69Z"/>
  <path class="st0" d="M828.31,2469.2c-11.35.4-18.88-6.47-28.15-7.97-3.85,4.04-4.12,8.52-2.97,13.74,6.14,27.98,12.04,56.01,18,84.03.74,3.49,1.32,7.01,2.09,11.1-4.5.69-8.32,1.28-13.18,2.02-12.13-40.31-24.2-80.41-36.31-120.62-10.09,5.67-55.87,52.49-58.61,60.35-8.25-6.62-15.03-14.26-21.84-21.75-1.38-1.52-.76-5.66.05-8.24,4.7-14.92,9.74-29.73,15.02-45.65,4.27.24,8.81.23,13.28.79,8.66,1.09,17.08,1.02,25.72-1.07,15.53-3.75,31.28-6.6,46.93-9.88,2.24-.47,4.42-1.19,7.6-2.06-3.32-15.1-6.58-29.9-9.99-45.41,7.93-.85,14.08,2.62,20.45,4.76,1.19.4,2.22,2.49,2.58,3.97,6.41,26.85,12.7,53.72,19.32,81.88Z"/>
  <path class="st0" d="M1089,2249.21c-22.94,30.84-45.88,61.68-69.03,92.81-35.11-16.43-69.39-32.48-105-49.15,3.44-2.41,5.7-4.2,8.15-5.66,13.45-8.01,26.82-16.18,40.51-23.77,4.52-2.51,9.81-4.29,14.94-4.93,33.05-4.15,66.15-7.93,99.24-11.73,3.16-.36,6.39-.05,9.59-.05.53.83,1.07,1.66,1.6,2.49Z"/>
  <path class="st0" d="M1225.67,1435.94c1.39-3.15,1.8-4.4,2.46-5.51,18-30.73,36.07-61.43,54.01-92.2,2.41-4.13,4.61-6.68,10.2-4.76,29.91,10.24,59.94,20.12,89.91,30.17,1.16.39,2.17,1.21,4.41,2.5-3,2.71-5.24,4.95-7.69,6.93-15.29,12.34-30.7,24.52-45.9,36.96-6.73,5.51-13.52,9.41-22.64,10.94-22.29,3.75-44.28,9.28-66.4,14.08-3.25.71-6.48,1.72-9.77,2-2.39.2-4.86-.58-8.58-1.11Z"/>
  <path class="st0" d="M1066.43,1437.81c.86-5.98,1.27-10.5,2.19-14.92,6.48-31.25,13.06-62.49,19.61-93.73.27-1.3.71-2.58.86-3.89.66-5.63,3.57-7.77,9.39-7.65,14.96.31,29.94.02,44.91,0,16.24-.02,32.48,0,49.71,0-.93,2.61-1.39,4.75-2.39,6.59-9.35,17.25-18.71,34.5-28.29,51.62-1.54,2.76-3.76,5.57-6.39,7.23-27,17.03-54.15,33.85-81.29,50.67-2.14,1.33-4.53,2.24-8.32,4.08Z"/>
  <path class="st0" d="M1188.03,1648h-18.96c.72-49,1.43-97.21,2.17-147.34,16.95-8.55,35.21-17.77,54.23-27.36,7.77,10.65,15.15,20.77,23.2,31.8-20.01,47.16-40.27,94.88-60.65,142.9Z"/>
  <path class="st0" d="M1030.78,1699.25c-13.77-14.85-27.03-29.22-40.37-43.51-20.43-21.89-40.88-43.77-61.44-65.54-2.21-2.34-3.96-4.33-2.97-7.75,4.62-15.92,9.19-31.85,13.81-47.88,3.16,0,5.49-.38,7.65.06,10.75,2.21,21.4,4.94,32.19,6.86,5.21.93,7.84,3.12,9.67,8.23,15.73,43.82,31.8,87.52,47.77,131.25q4.13,11.31-6.3,18.27Z"/>
  <path class="st0" d="M1615.61,1049.59c3.97,4.71,8.29,9.17,11.87,14.17,22.53,31.45,33.17,67.39,37.79,105.16,1.43,11.7-.41,23.9-1.61,35.79-2.87,28.5-6.13,56.96-9.47,85.41-2.1,17.86-4.85,35.65-6.88,53.52-1.39,12.24-2.09,24.56-3.02,36.85-1.4,18.45-6.22,36-13.14,53.12-5.11,12.64-9.74,25.51-13.97,38.47-1.62,4.95-4.88,7.33-8.61,9.9-4.93-3.53-4.62-8.38-4.85-12.94-.78-15.13,2.05-29.82,5.19-44.53,11.4-53.42,22.96-106.81,33.71-160.36,8.31-41.42,7.61-82.69-4.1-123.69-5.48-19.18-8.7-39-13.82-58.29-2.18-8.22-6.65-15.83-9.93-23.78-.95-2.29-1.37-4.79-2.04-7.2.96-.54,1.92-1.07,2.88-1.61Z"/>
  <path class="st0" d="M1089.93,1661.96c-16.69-48.28-33.06-95.65-49.92-144.43,11.41-12.28,23.51-25.31,35.74-38.46,11.29,7.7,21.6,14.74,33.63,22.95,0,1.51.02,5.08,0,8.66-.23,44.9-.46,89.8-.7,134.69q-.07,13.23-13.25,15.86c-1.6.32-3.23.44-5.5.74Z"/>
  <path class="st0" d="M1095.75,166.9c2.6-6.27,7.36-8.05,11.99-9.5,24.37-7.67,49.31-12.67,74.79-8.57,20.65,3.32,41.07,8.34,61.33,13.63,32.03,8.36,61.81,22.69,91.76,36.41,33.08,15.16,64.35,33.51,93.31,55.58,6.31,4.81,12.04,10.52,17.33,16.45,3.95,4.42,7.56,9.81,4.35,16.29-2.32,4.69-8.53,5.92-17.18,3.53-17.62-4.89-32.56-15.02-47.31-25.26-6.81-4.73-13.42-10.05-19.05-16.1-17.54-18.86-39.25-31.71-61.36-44.12-59.05-33.14-122.89-44.14-189.75-41-6.25.29-12.46,1.62-20.21,2.67Z"/>
  <path class="st0" d="M1261.99,1671.33c-6.06-2.4-11.82-4.68-18.53-7.33.9-2.65,1.61-5.44,2.78-8.03,18.2-40.29,36.54-80.52,54.59-120.88,2.48-5.56,5.95-8.15,11.87-8.8,9.57-1.05,19.07-2.77,28.62-4.07,10.02-1.36,15.53,1.41,17.67,11.17,1.34,6.14,3.6,12.11,5.79,18.02,1.42,3.83,1.14,6.67-1.81,9.88-32.78,35.82-65.4,71.78-98.09,107.68-.87.95-2.01,1.65-2.9,2.36Z"/>
  <path class="st0" d="M959.76,1843.54c-46.06-5.88-90.85-11.59-136.12-17.37-5.7-15.02-11.37-29.86-16.96-44.74-1.79-4.77-.16-8.18,4.14-10.91,6.18-3.92,12.38-7.89,18.03-12.5,5.23-4.27,9.54-3.94,15.29-.73,28.46,15.88,57.17,31.31,85.79,46.9,9.05,4.93,18.16,9.77,27.17,14.78,7.08,3.94,7.28,4.54,5.48,12.71-.78,3.53-1.67,7.04-2.82,11.86Z"/>
  <path class="st0" d="M1078.49,2030.03c-12.99,28.37-25.6,55.86-38.18,83.37-4.84,10.59-9.9,21.1-14.34,31.87-2.97,7.2-7.22,11.05-15.5,11.51-14.58.8-29.09,2.71-44.4,4.24-.77-1.68-1.95-3.59-2.57-5.68-2.99-10.22-5.7-20.52-8.78-30.72-1.63-5.41-.75-9.19,4.02-12.96,32.92-26,65.66-52.25,98.33-78.56,6.28-5.05,12.7-6.62,21.41-3.07Z"/>
  <path class="st0" d="M1322.8,1448.83c3.47,15.94,6.92,31.75,10.52,48.29-2.73,1.1-5.03,2.28-7.47,2.97-9.94,2.79-19.88,5.6-29.91,8.04-4.93,1.2-7.94,3.56-10.03,8.43-21.29,49.59-42.97,99.01-64.12,148.66-2.49,5.85-2.45,12.79-3.85,20.7-8.93-.31-18.36-3.12-29.54-6.6,4.53-5.13,8.19-8.85,11.35-12.97,2.99-3.9,6.17-7.9,8.05-12.37,20.06-47.58,39.75-95.32,59.9-142.86,2.68-6.31,2.15-11.1-1.4-16.67-5.71-8.99-10.84-18.36-16.04-27.67-4.95-8.86-3.79-11.4,5.88-12.28,21.85-1.99,43.71-3.74,66.66-5.67Z"/>
  <path class="st0" d="M988.84,1753.72c-1.88,3.18-3.96,6.71-6.51,11.02-44.82-22.39-88.78-44.35-132.05-65.97-1.24-19.06-2.42-37.18-3.63-55.76,9.73-3.88,19.2-7.66,29.71-11.85,37.04,40.35,74.09,80.72,112.48,122.55Z"/>
  <path class="st0" d="M1136.06,2035.95c4.85,1.62,8.79,2.94,12.53,4.2-1.8,41.07-3.75,81.24-5.18,121.44-.3,8.41-3,14.12-9.96,19.13-12.39,8.93-23.99,18.96-35.98,28.45-.96.76-2.39.94-2.26.89-7.01-6.35-13.45-12-19.69-17.87-7.65-7.2-7.77-7.73-3.49-17.15,10.87-23.93,21.85-47.81,32.8-71.7,8.87-19.36,17.76-38.71,26.67-58.05,1.35-2.93,2.82-5.79,4.55-9.33Z"/>
  <path class="st0" d="M1032.96,152.01c.15-1.75.05-2.18.21-2.33,20.51-18.51,41.15-35.88,68.98-43.89,62.66-18.03,124.13-15.91,185.45,5.32,30.6,10.59,60.33,22.94,87.78,40.3,4.73,2.99,9.22,6.36,15.49,10.7-3.13,1.7-4.92,3.54-6.34,3.29-6.2-1.09-12.4-2.44-18.4-4.34-19.02-6.04-38.06-12.05-56.89-18.67-30.02-10.55-61.3-15.08-92.46-20.36-25.71-4.35-51.55-6.49-77.56-4.37-12.22,1-24.57,2.37-36.43,5.3-22.64,5.61-44.65,13.27-64.48,26.06-1.37.88-2.86,1.59-5.36,2.97Z"/>
  <path class="st0" d="M950.13,2185.19c-3.45,1.83-5.93,3.35-8.57,4.51-25.92,11.35-51.87,22.65-77.82,33.93-7.68,3.34-7.77,3.35-13.66-2.57-19.97-20.07-39.9-40.17-59.81-60.3-1.82-1.84-3.38-3.94-4.92-5.75,2.22-5.41,6.54-4.69,10.42-4.84,14.31-.55,28.63-.92,42.93-1.62,4.56-.23,9.07-1.43,13.64-1.9,1.87-.19,3.96,0,5.7.68,29.16,11.36,58.28,22.8,87.38,34.31,1.4.55,2.5,1.85,4.72,3.55Z"/>
  <path class="st0" d="M1468.43,1421.32c19.21,24.21,38.54,48.57,58.62,73.88-2.98,1.23-4.84,2.38-6.84,2.77-15.65,3.03-31.32,5.95-47.01,8.8-1.89.34-3.95.31-5.85-.03-29.11-5.21-58.21-10.48-87.3-15.79-1.86-.34-3.65-1.12-6.89-2.15,2.64-2.84,4.26-5.29,6.5-6.86,28.29-19.87,56.67-39.61,85.05-59.35.76-.53,1.8-.63,3.72-1.26Z"/>
  <path class="st0" d="M1014.59,1988.21c-3.17,2.54-5.66,4.63-8.24,6.6-27.01,20.59-54.03,41.17-81.04,61.75-1.06.81-2.4,1.43-3.12,2.47-5.56,8.12-13.45,7.9-21.96,6.77-12.48-1.66-25.04-2.79-38.55-4.26.44-14.91,5.69-28.74,6.99-44.03,44.4-15.37,88.95-30.79,134.17-46.44,4.01,5.85,7.69,11.23,11.74,17.13Z"/>
  <path class="st0" d="M1277.23,1719.82c-8.72-8.23-16.51-15.58-25.83-24.38,7.22-2.77,12.57-4.99,18.04-6.85,3.58-1.22,5.98-3.27,8.47-6.28,7.62-9.24,15.94-17.91,24.07-26.72,24.84-26.95,49.63-53.95,74.67-80.71,4.16-4.44,6.24-8.86,6.03-15.03-.38-10.98-.05-21.99.16-32.98.06-3.13.77-6.24,1.4-11,20.17,6.73,38.92,12.99,58.92,19.67-4,16.9-7.87,33.25-11.89,50.27-11.61-2.52-22.24-4.83-33.21-7.21-2.87,3.07-5.62,5.93-8.29,8.86-29.59,32.54-59.17,65.09-88.74,97.65-5.81,6.39-11.81,12.54-15.22,20.81-1.84,4.47-5.09,8.37-8.58,13.92Z"/>
  <path class="st0" d="M971.31,1920.88c-41.83,11.8-84,23.69-126.19,35.59-8.86-13.58-17.39-26.25-25.41-39.25-1.52-2.46-2.12-6.53-1.22-9.22,2.6-7.85,6.18-15.38,9.66-23.73,10.78,1.42,21.27,2.75,31.74,4.21,32.66,4.55,65.31,9.16,97.96,13.71,13.03,1.81,14.45,3.6,13.45,18.69Z"/>
  <path class="st0" d="M1183.7,1463.36c-9.74,6.46-18.35,12.66-27.45,18.03-5.82,3.44-8.03,7.52-8.03,14.41.03,52.29-.52,104.58-.49,156.86,0,8.51,1.95,17.02,3.16,26.92-9.34.79-18.71,1.59-27.85,2.37-2.58-5.08.54-7.94,2.42-10.72,4.1-6.06,5.36-12.53,5.41-19.76.38-52.29.91-104.57,1.75-156.85.11-6.79-1.95-11.03-7.52-14.77-10.74-7.19-21.05-15.03-33.73-24.19,2.43-1.34,4.47-2.31,6.36-3.54,13.96-9.08,27.84-18.27,41.83-27.3,7.51-4.85,8.75-4.7,14.25,1.67,8.7,10.09,17.26,20.29,25.82,30.5,1.23,1.47,2.1,3.25,4.07,6.36Z"/>
  <path class="st0" d="M1204.13,71.99c5.2-.68,10.4-2,15.59-1.95,24.69.25,49.24,1.82,73.04,9.37,8.24,2.62,16.83,4.18,24.98,7,14.12,4.88,28.13,10.12,42,15.69,10.5,4.21,20.62,9.34,31.04,13.75,15.63,6.63,28.35,16.77,39.9,29.26,16.28,17.61,29.26,37.09,38.17,59.24,2.57,6.39,4.09,13.28,5.37,20.08,1.23,6.52,1.64,13.21,2.19,19.85.17,2.04-.42,4.14-.89,8.1-2.42-2.92-3.69-4.23-4.7-5.71-6.41-9.32-12.71-18.71-19.14-28.01-5.11-7.39-10.61-14.52-15.51-22.05-17.54-26.95-39.6-49.02-67.32-65.67-42.19-25.33-87.97-40.99-135.62-51.8-7.43-1.68-15.18-1.97-22.77-3.02-2.14-.3-4.22-1.02-6.33-1.55,0-.87,0-1.73,0-2.6Z"/>
  <path class="st0" d="M1075.99,92.02c0-8.31,4.03-11.44,8.46-13.63,26.81-13.28,53.13-27.53,82.08-36.19,32.6-9.75,65.71-9.77,99.03-7.2,36.47,2.81,70.03,14.18,101.51,33.2,22.64,13.67,45.07,27.3,63.01,46.93,8.71,9.53,16.22,20.17,24.11,30.43,3.17,4.13,5.91,8.59,10.2,14.89-3.17-1.25-4.37-1.41-5.13-2.07-15.13-12.98-29.42-27.11-45.5-38.79-25.27-18.36-50.63-36.63-79.1-50.27-35.79-17.15-72.96-22.59-111.78-16.24-18.01,2.94-35.86,7.3-53.46,12.19-21,5.84-42.47,8.07-63.94,10.61-11.31,1.34-21.34,5.02-29.48,16.14Z"/>
  <path class="st0" d="M810.67,1430.71c1.71,3.56,2.79,5.22,3.35,7.04,4.44,14.65,9.03,29.27,13.03,44.04,1.37,5.05,1.65,10.52,1.63,15.8-.17,36.97-.55,73.94-.9,110.9-.03,3.13-.44,6.26-.85,11.87-3.55-3.43-5.57-4.92-7-6.84-9.54-12.82-18.99-25.72-28.38-38.66-1.33-1.83-2.62-3.94-3.07-6.1q-6.53-30.92-20.65-55.13c13.89-26.89,28.01-54.2,42.85-82.92Z"/>
  <path class="st0" d="M1038.11,1734.28c-7.06,9.29-14.3,16.66-23.78,25.6-.78-5.36-1.78-8.39-1.52-11.32.51-5.75-1.32-10.03-5.31-14.25-37.72-39.97-75.35-80.02-112.72-120.31-4.68-5.05-9.16-6.62-15.7-5.26-9.66,2.01-19.47,3.31-30.46,5.12.31-16.56,2.26-32.89,3.78-50.22,16.78-5.66,33.64-11.34,51.34-17.31.19,3.51.5,6.08.44,8.64-.27,11.99-.53,23.98-1.05,35.95-.2,4.55.62,8.24,3.94,11.76,38.12,40.5,76.08,81.16,114.2,121.66,2.19,2.32,5.32,3.81,8.13,5.48,2.46,1.46,5.1,2.63,8.71,4.46Z"/>
  <path class="st0" d="M1113.14,2358.11c3.04-4.27,6.24-8.44,9.09-12.84,12.5-19.28,24.83-38.67,37.42-57.89,2.13-3.26,4.75-6.53,7.88-8.76,20.07-14.31,40.32-28.35,60.56-42.41,2.07-1.44,4.47-2.42,8.25-4.44-.57,4.14-.6,6.72-1.29,9.1-8.34,28.43-16.87,56.8-25.11,85.25-1.69,5.83-5.13,8.74-10.85,10.28-24.1,6.5-48.13,13.28-72.18,19.97-4.55,1.27-9.07,2.62-13.6,3.93-.05-.73-.1-1.47-.15-2.2Z"/>
  <path class="st0" d="M1381.18,2292.36c-4.25-63.39-8.44-126.03-12.7-189.7,9.95-.94,19-1.8,29.47-2.79v161.52c4.3-1.2,7.16-1.85,9.93-2.79,14.83-5.02,29.59-10.26,44.48-15.09,5.11-1.66,8.62-4.29,10.81-9.33,2.79-6.4,6.18-12.55,9.46-18.73,1.18-2.23,2.8-4.23,4.95-7.42,3.98,8.52-.08,15.39-.62,22.27-.54,6.93-2.1,13.78-3.32,21.28-30.29,13.36-60.66,26.75-92.46,40.77Z"/>
  <path class="st0" d="M1093.08,1697.5c-11.52,4.88-20.84,8.83-31.55,13.37,0-3.81-.45-6.35.08-8.67,1.73-7.47.08-14.21-2.6-21.27-18.91-49.75-37.65-99.57-56.01-149.53-2.53-6.89-6.28-9.99-13.21-11.21-12.69-2.24-25.26-5.19-37.92-7.85,1.98-7.12,25.98-39.8,37.75-51.52,15.82,6.92,32.08,14.02,48.75,21.31-7.17,12.31-13.52,23.59-20.28,34.62-2.69,4.39-3,8.22-1.18,13.08,17.78,47.69,35.29,95.48,53.09,143.17,1.19,3.2,3.75,6.06,6.2,8.57,4.83,4.94,10.02,9.51,16.88,15.93Z"/>
  <path class="st0" d="M1499.7,1704.48c5.03,12.43,9.91,23.35,13.87,34.59,5.14,14.57,3.47,29.62,1.61,44.54-.86,6.94-1.89,13.87-3.09,20.76-4.41,25.41-1.68,50.42,3.64,75.39,12.71,59.61,25.1,119.29,37.95,178.86,2.87,13.33,7.17,26.34,10.68,39.53.9,3.4,1.3,6.94,2.06,11.14-5.79-1.01-6.26-5.08-7.36-8.22-6.82-19.49-13.45-39.04-20.13-58.57-14.98-43.87-27.67-88.35-35.85-134.04-4.41-24.64-6.75-49.42-6.55-74.54.31-37.64-.48-75.29-.64-112.94-.02-5.15-1.21-10.71,3.8-16.5Z"/>
  <path class="st0" d="M1227.65,2190.82c-8.16-5.07-15.03-9.73-22.28-13.71-5.76-3.16-7.68-7.32-7.09-13.82,1.71-18.88,2.88-37.82,4.3-56.73,1.49-19.91,3.4-39.79,4.37-59.72.41-8.48,3.66-13.7,12.58-16.47,1.14,2.81,2.39,5.67,3.47,8.6,11.32,30.92,22.36,61.94,34.09,92.7,2.98,7.81,2.12,13.67-2.69,20.25-9.01,12.31-17.33,25.12-26.73,38.89Z"/>
  <path class="st0" d="M1312.41,1715.2c-1.75-5.47-2.94-9.2-4.29-13.41,8.85-9.58,17.85-19.29,26.82-29.02,21.43-23.24,42.94-46.41,64.16-69.84,2.75-3.04,4.85-3.74,8.48-2.34,8.69,3.35,17.54,6.26,26.22,9.64,5.65,2.21,7.29,5.2,5.59,10.92-3.41,11.47-6.93,22.94-11.2,34.11-1.09,2.84-4.87,5.14-7.92,6.66-31.27,15.56-62.65,30.89-94,46.31-4.35,2.14-8.67,4.36-13.86,6.97Z"/>
  <path class="st0" d="M1147.54,369.64c7.41-.68,11.87,2.19,16.44,4.74,25.26,14.07,50.43,28.29,75.83,42.09,6.68,3.63,14.03,6.07,21.17,8.78,17.1,6.49,34.28,12.76,51.39,19.24,18.65,7.06,37.76,9.92,57.76,8.42,7.76-.58,15.81,1.01,23.52,2.63,2.55.53,6.08,4.17,6.17,6.49.09,2.31-3.15,6.04-5.7,6.91-6.53,2.23-13.47,4.4-20.28,4.53-56.48,1.1-109.9-9.41-156.96-42.98-13.81-9.85-28.05-19.13-41.54-29.4-7.62-5.8-14.35-12.85-20.98-19.82-2.74-2.88-4.18-7.01-6.82-11.63Z"/>
  <path class="st0" d="M1351.68,2129.65c.69,6.13,1.28,10.28,1.62,14.46,2.34,29.16,4.49,58.34,7.05,87.49.46,5.21-.71,8.35-5.01,11.68-18.41,14.24-36.42,28.99-54.6,43.53-2.5,2-5.14,3.81-8.76,6.48-.45-2.84-1-4.36-.87-5.81,1.68-19.21,3.4-38.42,5.28-57.61.25-2.55,1.03-5.23,2.26-7.46,16.39-29.67,32.9-59.28,49.41-88.88.45-.8,1.27-1.39,3.61-3.87Z"/>
  <path class="st0" d="M1064.85,2225.35c-2.66,1.05-4.11,2.05-5.62,2.16-13.61,1-27.25,1.74-40.86,2.78-4.2.32-6.81-1.1-8.86-4.8-6.63-11.93-13.53-23.71-20.24-35.6-.74-1.32-.88-2.99-1.6-5.61,11.34-.63,21.86-1.76,32.36-1.62,7.73.11,11.59-2.47,14.78-9.83,19.04-43.98,38.72-87.69,58.25-131.47,3.66-8.22,7.51-16.31,7.96-25.55.1-2.14,1.32-4.23,2.39-7.43,6.93,2.87,13.23,5.48,19.33,8.01,0,1.34.28,2.28-.04,2.58-6.08,5.63-8.27,13.34-11.42,20.61-20.12,46.43-40.25,92.84-60.76,139.1-3.01,6.78-3.06,12.25.56,18.7,5,8.89,9.07,18.3,13.77,27.97Z"/>
  <path class="st0" d="M184.93,1597.39c1.37-6.69,3.25-13.21,7.98-18.56,9.87-11.15,15.54-24.54,21.73-37.89,6.96-15.01,15.96-29.1,24.5-43.34,12.44-20.75,29.24-37.9,46.45-54.63,25.31-24.6,50.73-49.08,76.19-73.53,2.61-2.5,5.58-4.83,8.8-6.39,1.64-.8,4.59-.33,6.17.73.91.61.93,3.86.21,5.37-3.16,6.59-6.45,13.16-10.22,19.42-11.05,18.35-24.87,34.45-39.94,49.65-17.8,17.96-35.09,36.43-52.47,54.79-10.52,11.12-20.98,22.31-31.16,33.74-13.5,15.15-27.03,30.3-39.87,46-5.83,7.12-10.03,15.57-14.99,23.41-.47.74-1.06,1.39-1.59,2.09-.6-.29-1.19-.57-1.79-.86Z"/>
  <path class="st0" d="M736.45,2560.19c-2.86-7.51-5.52-13.62-7.43-19.95-.77-2.54-.93-6.26.4-8.28,8.78-13.34,18.03-26.37,27.17-39.47.33-.47,1.15-.59,2.91-1.43,1.2,2.42,2.82,4.76,3.55,7.34,7.47,26.58,14.8,53.21,22.15,79.82.35,1.28.71,2.6.74,3.91.13,5.15-2.4,7.12-7.53,5.64-5.11-1.48-10.36-2.77-15.14-5.01-7.81-3.66-14.26-1.81-21.43,2.28-28.05,15.98-56.4,31.41-84.66,47.01-2.79,1.54-5.71,2.82-10.39,5.12.37-8.25.05-14.86,1.25-21.19.48-2.57,3.92-5.05,6.57-6.66,23.92-14.47,47.96-28.74,71.96-43.08,3.1-1.85,6.15-3.77,9.88-6.06Z"/>
  <path class="st0" d="M1193.56,2009.21c-5.89,38.71-6.24,76.01-9.32,113.08-1.46,17.59-2.42,35.23-3.58,52.85-.26,3.97-.4,7.95-.63,12.6,10.74,5.86,21.43,11.68,33.72,18.38-16.06,13.08-33.24,21.53-49.2,32.64-12.47-7.84-24.51-15.41-37.5-23.59,2.52-2.6,4.13-4.53,6.01-6.15,7.84-6.73,15.56-13.61,23.72-19.94,4.67-3.63,6.41-7.92,6.77-13.62,1.98-31.25,4.2-62.49,6.36-93.74,1.08-15.62,2.45-31.23,3.15-46.87.22-4.81-1.01-9.77-2.2-14.51-1-3.98-.29-6.85,3.71-7.77,6.06-1.39,12.25-2.21,18.99-3.38Z"/>
  <path class="st0" d="M1048.99,1981.11c6.91,4.7,12.86,8.75,18.94,12.89-.84,1.58-1.08,2.85-1.74,3.14-10.55,4.69-18.74,12.53-27.23,20.02-32.97,29.1-65.86,58.3-99.11,87.07-5.39,4.67-6.52,9.16-5.18,15.62,1.74,8.34,2.74,16.84,4.06,25.24-8.05,1.34-28.26-5.06-49.05-15.13-.78-15.12-1.58-30.91-2.4-46.76,6.34-2.46,11.24-.08,15.37,1.85,13.82,6.46,24.12,2.91,35.6-6.82,29.21-24.76,59.69-48.02,89.68-71.86,5.96-4.74,12.3-8.99,15.06-16.74.95-2.67,3.33-4.83,5.99-8.52Z"/>
  <path class="st0" d="M562.04,1468.11c-5.24-.2-5.49-3.47-5.03-7.63,1.32-11.92,2.4-23.87,3.61-35.8,2.22-21.88,4.39-43.76,6.8-65.61.26-2.34,1.29-5.37,3.03-6.65,15.56-11.47,31.33-22.63,47.1-33.81,1.27-.9,2.97-1.19,5.97-2.33.73,4.12,1.62,7.45,1.87,10.83.98,12.95,2.05,25.9,2.4,38.87.09,3.24-1.83,6.91-3.77,9.75-18.55,27.28-37.33,54.4-55.95,81.63-2.4,3.52-4.27,7.4-6.39,11.11,0,0,.37-.37.37-.37Z"/>
  <path class="st0" d="M989.89,1828.68c-4.67-6.37-8-11.18-11.63-15.76-2.18-2.75-4.39-5.95-7.34-7.56-45.28-24.76-90.68-49.3-136.06-73.87-1.16-.63-2.41-1.08-4.58-2.05-7.1,6.3-14.43,12.8-22.89,20.32-3.62-15.02-7.08-29.39-10.81-44.87,11.89-8.07,23.88-16.21,37.25-25.28.69,3.59,1.25,5.91,1.57,8.25,1.07,7.9-.22,17.32,3.72,23.31,3.93,5.97,12.96,8.71,19.94,12.53,38.84,21.26,77.76,42.4,116.61,63.65,6.34,3.47,12.64,7.06,18.65,11.06,1.57,1.05,3.07,4.02,2.75,5.78-1.39,7.71-3.43,15.3-7.16,24.49Z"/>
  <path class="st0" d="M1276.67,2544.26c1.08,8.51,2.12,16,2.96,23.52,3.24,28.76,6.27,57.54,9.77,86.27.56,4.63-.94,7.53-3.76,10.61-10.11,11.04-20.14,22.16-30.13,33.32-4.39,4.9-8.59,9.97-13.38,15.54-7.71-1.66-15.92-3.44-24.13-5.21.05-.78.09-1.55.14-2.33,2.26-.46,4.51-.92,7.4-1.5,2-6.67,4.15-13.63,6.17-20.63,12.25-42.5,24.42-85.01,36.75-127.48,1.24-4.26,1.31-9.48,8.2-12.09Z"/>
  <path class="st0" d="M1335.88,2108.16c-7.92,0-16.5.22-25.04-.17-1.84-.08-4.18-1.97-5.24-3.68-1.9-3.05-3.3-6.49-4.38-9.94-9.4-30.19-18.21-60.57-28.28-90.53-3.31-9.84-1.63-16.36,6.81-22.49,1.41,1.16,3.02,2.19,4.25,3.56,19.87,21.99,39.53,44.18,59.63,65.95,5.25,5.69,7.39,10.53,4.36,18.41-4.75,12.33-7.95,25.24-12.11,38.88Z"/>
  <path class="st0" d="M661.1,1435.92c7.27,6.77,6.12,13.65,4.36,19.95-2.59,9.27-6.34,18.21-9.43,27.34-4.47,13.22-9.3,26.36-12.99,39.8-2.39,8.69-2.25,17.85.71,26.64,3.2,9.5,8.56,11.9,17.71,7.94,6.93-3,12.22-7.99,16.39-14.2,6.87-10.23,13.7-20.49,20.58-30.71,6.42-9.53,10.33-20.06,12.83-31.22.91-4.06.93-8.84,6.12-11.01,4.45,1.96,4.84,6.06,4.13,9.94-1.02,5.52-2.33,11.12-4.49,16.27-3.99,9.51-8.55,18.79-13.12,28.04-8.1,16.41-16.57,32.62-22.24,50.15-1.6,4.95-4.57,9.69-7.8,13.85-8.27,10.66-22.81,12.32-32.58,3.08-4.89-4.62-9.37-10.83-11.35-17.16-6-19.16-9.45-38.97-6.1-59.09,1.17-7.04,3.47-14.53,7.4-20.36,9.79-14.49,17.02-30.1,23.51-46.19,1.71-4.23,3.98-8.24,6.36-13.07ZM717.58,1481.13c-.59-.36-1.17-.72-1.76-1.08l-1.64,7.27c.44.1.87.21,1.31.31l2.08-6.5Z"/>
  <path class="st0" d="M1262.58,2524.69c-24.72,61.54-49.19,122.48-74,184.24-9.13-.7-18.82-1.45-30.14-2.31,2.06-5.24,3.31-8.87,4.89-12.36,24.22-53.69,48.59-107.3,72.63-161.07,4.7-10.52,6.29-16.24,26.62-8.49Z"/>
  <path class="st0" d="M773.01,2238.01c17.67-5.61,33.74-10.72,50.2-15.95,4.26,6.69,8.31,13.05,13.09,20.55-17.76,7.21-36.23,11.11-54.76,18.04.4,3.09.58,6.3,1.26,9.41,6.07,27.97,12.28,55.91,18.28,83.89.87,4.04.82,8.28,1.3,13.55-5.78-1.9-5.79-5.98-6.87-9.06-10.56-30.15-20.32-60.61-31.73-90.44-7.84-20.5-11.86-41.07-11.09-63.01.68-19.28-.36-38.62-.62-57.93-.05-3.54,0-7.09,0-11.91,6.71,1.24,11.81,2.18,18.21,3.36.91,32.78,1.8,65.25,2.75,99.48Z"/>
  <path class="st0" d="M1453.49,1625.56c8.96,10.41,16.42,19.08,24.8,28.82-3.63,11.33-7.65,23.85-11.99,37.42-13.89-6.44-24.32.12-35.2,6.23-29.33,16.47-58.99,32.36-88.31,48.83-8.36,4.7-16.05,10.58-24.01,15.98-2.95,2-5.79,4.14-9.48,6.8-6.48-9.31-9.27-19.07-13.15-28.09,1.25-1.01,1.8-1.81,2.24-1.75,11.63,1.51,21.18-3.52,30.9-8.98,36.02-20.21,72.15-40.2,108.45-59.91,6.43-3.49,10.25-7.32,10.86-15.02.73-9.19,2.88-18.27,4.9-30.33Z"/>
  <path class="st0" d="M834.2,1962.81c5.66,4.99,10.47,8.58,14.46,12.94,4.01,4.38,7.79,4.72,13.26,2.82,36.48-12.67,73.13-24.83,109.6-37.53,8.36-2.91,16.17-7.34,24.32-10.86,9.37-4.05,9.95-3.84,14.81,4.86,2.05,3.67,3.73,7.55,5.67,11.51-1.96,1.21-2.99,2.28-4.18,2.51-28.89,5.6-55.89,17.32-83.85,25.92-20.68,6.36-41.01,13.84-61.69,20.18-6.77,2.08-10.69,5.4-12.76,12.17-2.91,9.49-6.7,18.71-10.3,28.58-1.86-.86-3.35-1.08-4.03-1.93-7.05-8.86-14.11-17.71-20.8-26.84-1.33-1.81-2.16-5.26-1.35-7.16,5.33-12.5,11.17-24.79,16.85-37.16Z"/>
  <path class="st0" d="M797.66,1891.18c-2.27-8.31-4.41-15.52-6.21-22.81-5.93-24.04-8.17-16.02,9.89-32.22,2.66-2.38,5.45-4.61,8.77-7.41,2.3,3.11,4.3,5.28,5.68,7.79,3.62,6.56,8.63,9.85,16.42,10.91,42.56,5.8,85.05,12.16,127.55,18.39,6.63.97,13.16,1.52,19.71-.64,2.11-.7,4.49-.6,8.07-1.02,1.94,9.59,3.81,18.82,5.61,27.69-1.53.9-2.3,1.65-2.59,1.5-15.71-8.48-33.31-8.6-50.3-11.09-36.9-5.4-73.9-10.2-110.8-15.6-6.65-.97-11.41-.13-15.27,5.86-3.41,5.29-7.73,10.01-11.77,14.88-.95,1.15-2.37,1.9-4.77,3.77Z"/>
  <path class="st0" d="M723.91,1703.55c12.02-39.01,13.87-79.24,17.25-121.39,7.97,8.2,13.86,13.78,11.75,24.61-1.62,8.32-.39,17.27.15,25.9.2,3.16,1.72,6.39,3.21,9.29,5.18,10.07,10.4,20.12,16,29.95,3.69,6.47,5.95,13.2,7.03,20.57,3.13,21.41,6.61,42.78,9.89,64.17.24,1.54.03,3.15.03,6.25-2.36-1.98-4.06-2.87-4.98-4.26-14.22-21.44-32.12-38.88-54.93-51.07-1.43-.77-2.64-1.94-5.41-4.02Z"/>
  <path class="st0" d="M1485.28,1403.39c12.72-11.85,24.35-22.69,36.51-34.02-16.08-43.73-33.44-86.75-49.23-130.18,7.48-3.66,9.45-3.88,21.81-2.79,3.16,6.17,6.47,12.63,10.11,19.73-4.38,3.35-3.5,7.18-1.46,11.85,14.9,34.15,28.88,68.72,44.5,102.54,5.72,12.38,3.83,21.36-5.3,30.73-1.91-.33-4.33-.29-6.35-1.16-7.37-3.2-13.18-1.33-18.84,4.1-5.73,5.49-12.18,10.23-19.18,16.01-3.91-5.24-7.78-10.41-12.55-16.8Z"/>
  <path class="st0" d="M840.82,2072.4c-5.55-.8-9.09-.98-12.45-1.85-14.81-3.85-29.55-7.95-44.35-11.86-5.43-1.43-10.93-2.59-17.71-4.18-5.51-29.43-11.17-59.64-17.15-91.6,3.88,1.62,6.13,2.1,7.83,3.34,15.62,11.34,31.16,22.79,46.66,34.29,1.55,1.15,3.05,2.68,3.91,4.37,10.14,19.84,20.17,39.73,30.18,59.63.86,1.71,1.41,3.57,3.06,7.86Z"/>
  <path class="st0" d="M1231.68,1998.63c6.72-5.51,12.72-10.42,18.32-15.01,1.8.97,2.76,1.17,2.88,1.6,5.78,20.4,11.23,40.9,17.28,61.22,7.97,26.77,16.53,53.36,24.54,80.11,1.7,5.69,4.26,9.25,10.44,10.27,4.86.8,9.54,2.67,14.23,4.04-.77,7.88-21,49.99-27.65,57.86-6.66-2.49-18.57-11.98-26.2-21.03,4.69-9.59,9.35-19.46,14.33-29.17,2.11-4.11,2.44-7.88,1.06-12.38-12.3-40.39-24.32-80.88-36.69-121.25-1.09-3.55-3.91-6.64-6.21-9.73-1.51-2.03-3.54-3.67-6.35-6.52Z"/>
  <path class="st0" d="M1357.59,2080.12c3.51-8.75,5.98-15.91,9.23-22.69,2.49-5.2,1.83-8.86-1.96-13.33-22.38-26.37-44.49-52.98-66.52-79.65-3.13-3.79-6.63-6.31-11.33-7.48-2.81-.7-5.51-1.88-8.25-2.84,3.78-10.5,14.54-24.79,21.56-28.44,4.12,4.13,4.24,10,6.1,15.12,1.1,3.05,2,6.42,3.96,8.87,21.84,27.25,43.86,54.36,65.86,81.48.81,1,1.9,1.78,3.1,2.88,7.96-2.18,15.85-4.34,23.68-6.48,2.74,8.63,1.47,46.18-1.96,54.66-13.67-.66-27.74-1.34-43.48-2.1Z"/>
  <path class="st0" d="M1030.56,170.19c1.61.41,2.88.53,3.95,1.04,32.09,15.54,66.9,22.18,101.2,30.14,31.12,7.22,62.63,12.9,94.54,15.62,12.94,1.1,25.97,1.24,38.85,2.76,9.19,1.08,18.3,3.39,27.26,5.83,5.41,1.47,11.87,3.9,11.12,10.83-.74,6.82-7.54,8.06-13.12,8.52-6.9.57-14.1.97-20.82-.33-15.01-2.91-29.76-7.11-44.69-10.46-21.43-4.82-42.96-9.19-64.38-14.05-32.44-7.37-64.85-14.88-97.21-22.6-12.24-2.92-22.42-10-32.08-17.79-2.78-2.25-5.76-4.5-4.62-9.49Z"/>
  <path class="st0" d="M1337.97,1775.57c4.86-2.78,9.24-5.08,13.41-7.72,29-18.36,57.96-36.79,86.94-55.19,2.25-1.43,4.49-2.89,6.82-4.17,3.12-1.72,5.86-1.14,7.69,1.99,3.35,5.76,6.81,11.48,9.68,17.47.84,1.76.29,4.52-.35,6.59-2.16,7-4.98,13.81-6.9,20.87-1.71,6.28-5.32,9.23-11.7,10.37-21.31,3.82-42.54,8.09-63.81,12.2-8.83,1.71-17.65,3.45-26.49,5.15-8.96,1.72-9.02,1.67-15.28-7.56Z"/>
  <path class="st0" d="M1370.06,2585.94c-7.17,7.65-12.62,13.84-18.5,19.59-3.93,3.83-5.06,7.81-4.57,13.34,2.43,27.54,4.36,55.13,6.44,82.7.07.97-.15,1.97-.31,3.73h-18.4c-3.84-27.12-7.73-54.57-11.75-83.02-4.8,2.46-8.47,4.35-13.6,6.98-2.12-20.24-8.38-38.82-8.18-60.13,23.25,5.67,44.99,10.97,68.88,16.8Z"/>
  <path class="st0" d="M1011.22,181.95c13.97,6.68,27.41,13.11,40.87,19.52,3.01,1.43,5.99,2.94,9.09,4.14,17.07,6.62,33.91,14.02,51.35,19.45,13.57,4.23,27.89,6.11,41.93,8.78,17.65,3.36,35.42,6.12,52.98,9.86,5.69,1.21,11.08,4.38,16.26,7.27,3.29,1.84,5.86,5.49,4.03,9.24-1.26,2.58-4.48,5.37-7.21,5.83-6.48,1.11-13.27,1.7-19.8,1.08-28.69-2.74-56.51-8.93-82.76-21.43-28.26-13.46-56.8-26.35-85.1-39.74-6.29-2.98-12.21-6.81-18.04-10.63-4.17-2.73-6.65-6.56-3.61-13.38Z"/>
  <path class="st0" d="M755.25,1479.62c-3.39-5.67-6.28-10.43-9.09-15.24-5.89-10.06-11.58-20.24-17.7-30.15-2.59-4.19-4.15-8.26-2.94-13.14.08-.32.11-.67.08-.99-1.17-13.38,3.01-24.03,15.4-30.61.81-.43,1.32-1.45,2.15-2.4-1.31-12.76-9.88-24.3-8.29-39.27,21.95,1.92,42.65,3.74,64.21,5.63.69,7.73,1.26,14.59,1.91,21.45.41,4.33-3.07,5.48-5.79,7.24-15.39,9.94-30.8,19.85-46.18,29.78-2.78,1.8-5.51,3.68-9.25,6.18,2.45,4.8,4.81,9.44,7.2,14.07,4.43,8.58,8.89,17.15,13.32,25.73,5.5,10.64,5.47,10.73-5.02,21.74Z"/>
  <path class="st0" d="M1216.1,323.4c3.27-9.35,11.2-13.02,20.07-15.35,11.36-2.99,22.79-3.97,34.59-2.53,29.5,3.61,57.12,12.41,82.38,28.25.56.35,1.18.63,1.72,1.02,17.68,12.98,35.58,25.66,52.93,39.05,13.06,10.08,20.39,24.37,25.72,39.67.89,2.57.58,5.56.82,8.33-6.24,1.18-8.19-2.98-10.5-5.9-13.91-17.6-30.04-32.88-47.5-46.89-11.77-9.44-24.32-17.43-38.32-23.1-3.39-1.37-6.91-2.53-10.11-4.26-22.25-12.07-46.38-15.82-71.27-16.52-13.59-.38-27.17-1.18-40.53-1.77Z"/>
  <path class="st0" d="M1247.92,280.66c2.12-1.93,3.12-3.45,4.49-3.99,12.36-4.87,24.47-10.87,37.27-14.03,23.27-5.75,45.53-1.31,66.18,10.91.86.51,1.74,1,2.51,1.62,31.94,25.59,64.07,50.99,88.81,84.15,3.76,5.04,7.11,10.48,9.95,16.09,1.91,3.78,2.94,8.12,3.71,12.33.71,3.9,1.01,8.55-3.53,10.36-4.2,1.67-6.73-2.07-8.86-4.92-3.78-5.06-7.3-10.32-10.72-15.63-10.68-16.58-22.88-31.91-37.36-45.33-12.2-11.31-24.3-22.76-37.02-33.45-17.57-14.77-38.26-20.77-61.14-19.91-8.94.34-17.92-.41-26.87-.14-8.57.25-17.12,1.18-27.41,1.94Z"/>
  <path class="st0" d="M1416.67,1888.32c-19.57-7.48-38.77-14.95-58.08-22.1-4.12-1.52-8.67-1.89-14.04-3.01,0-4.27-.35-9.79.22-15.21.16-1.56,2.74-3.67,4.57-4.14,24.79-6.37,49.64-12.49,74.47-18.67q9.26-2.31,14.14,5.88c3.06,5.15,6.08,10.32,9.06,15.51,4.99,8.69,4.95,9.57-2.14,16.13-9.02,8.35-18.2,16.54-28.2,25.6Z"/>
  <path class="st0" d="M1704.02,2102.41c.29,4.56.72,9.12.86,13.69,1.13,35.94,2.03,71.88,3.34,107.81,1.35,36.93,3.04,73.84,4.7,110.76.63,13.97,1.6,27.92,2.34,41.88.75,13.96,1.25,27.94,2.15,41.89.71,11.09.11,21.99-3.52,32.54-1.35,3.94-2.53,8.4-9.3,9.09-.15-3.05-.78-5.87-.36-8.53,4.61-28.94,3.74-57.64-2.3-86.35-2.18-10.36-2.54-21.13-3.28-31.75-2.24-32.22-4.63-64.43-6.17-96.69-.61-12.88-.61-26.13,1.69-38.75,5.1-28.02,5.99-56.23,6.8-84.52.11-3.75.64-7.48.98-11.23.69.05,1.38.09,2.07.14Z"/>
  <path class="st0" d="M1453.06,1883.33c-.1,1.45-.04,3.06-.36,4.59-4,19.55-8.24,39.06-11.99,58.66-1.04,5.44-3.6,8.15-8.91,8.98-5.51.86-10.97,2.06-17.32,3.29-.95-11.73-1.83-22.58-2.78-34.22-7.92-3.07-15.91-6.2-23.92-9.27-13.35-5.13-26.79-10.03-40.05-15.4-9.3-3.76-18.81-6.25-28.74-7.69-7.75-1.12-8.39-2.75-5.52-9.91,1.99-4.94,3.98-9.9,6.46-14.6,2.63-5,6.48-5.55,8.8-.65,4.9,10.34,14.03,13.17,23.71,16.09,18.47,5.58,36.92,11.24,55.13,17.59,7.11,2.48,12.47,1.85,18.22-2.95,5.85-4.89,12.41-8.94,18.69-13.32,2.42-1.69,4.86-3.61,8.57-1.2Z"/>
  <path class="st0" d="M635.78,993.25c-1.59-3.6-2.36-5.23-3.04-6.9-1.13-2.76-1.94-5.7-3.37-8.3-9.21-16.82-24.18-19.27-37.34-5.47-6.62,6.93-12.76,14.65-17.59,22.91-14.99,25.65-32.67,49.42-49.61,73.72-5.67,8.14-10.52,17.01-14.66,26.04-9.72,21.17-18.82,42.63-28.12,63.99-2.1,4.83-4.01,9.74-6.19,15.08-4.94-3.25-5.94-7.4-3.95-12.57.24-.62.45-1.26.71-1.87,20.81-49.4,41.41-98.92,68.59-145.27,8.91-15.19,18.74-29.96,29.49-43.9,7.01-9.1,15.71-17.31,24.93-24.2,12.02-8.98,21.97-6.59,28.67,6.85,5.43,10.91,8.68,22.92,12.76,34.49.32.9-.48,2.2-1.28,5.4Z"/>
  <path class="st0" d="M1400.12,414.99c-6.76,6.47-14.58,9.34-23.16,11.17-19.47,4.14-38.44.52-57.41-3.18-5.86-1.14-11.6-2.93-17.38-4.45-9-2.36-18-4.75-27-7.11-23.72-6.24-45.47-17-66.38-29.47-9.7-5.79-18.82-12.58-28-19.2-6.51-4.69-7.21-6.35-8.11-13.98,9.74-1.37,18.37,1.49,26.42,6.64,1.68,1.07,3.38,2.22,4.74,3.65,15.3,16.11,34.9,23.06,55.86,28.93,28.28,7.92,56.68,14.81,85.7,18.87,13.48,1.89,27.21,1.94,40.81,2.96,4.86.37,9.83.74,13.9,5.16Z"/>
  <path class="st0" d="M728.72,1494.78c3.52-3.36,7.27-6.95,12.36-11.82,2.07,4.73,3.9,8.03,5.01,11.55,9.86,31.43,19.48,62.94,29.48,94.33,1.78,5.6,4.43,11.13,7.71,16,11.89,17.68,24.23,35.05,36.35,52.57,2.03,2.94,3.82,6.04,6.49,10.27-9.13,4.49-17.35,8.53-25.3,12.44-7.68-17.14-17.16-32.56-25.58-48.52-7.09-13.45-14.07-26.59-17.75-41.83-6.71-27.78-15.81-54.99-24.01-82.4-1.21-4.04-2.98-7.92-4.76-12.59Z"/>
  <path class="st0" d="M658.44,1366.6c14.05,6.52,20.81,17.41,23.41,31.23,2.28,12.1,4.14,24.27,6.51,36.35.99,5.04.86,10.69,5.83,14.98,5.23-2.39,6.97-7.34,7.53-11.96,1.72-14.16,3.36-28.39,3.79-42.64.7-23.28.41-46.59.61-69.88.02-2.82.5-5.64,2.46-8.9,1.11,1.68,2.55,3.23,3.29,5.05,6.02,14.81,6.99,30.12,5.95,46.04-1.45,22.22-1.37,44.54-2.12,66.81-.28,8.28-.38,16.66-1.81,24.78-1.43,8.13-6.27,14.67-13.72,18.74-9.14,4.99-17.12,2.22-21.26-7.26-.79-1.82-1.39-3.76-1.81-5.7-4.7-21.44-9.61-42.85-13.9-64.37-2.14-10.71-3.13-21.64-4.74-33.27Z"/>
  <path class="st0" d="M1457.57,1074.01c4.04,2.61,7.86,5.09,12.96,8.39,24.36-21.85,49.04-43.97,73.89-66.26,4.46,3.66,8.48,6.97,13.48,11.08-21.96,23.28-43.76,46.39-66.1,70.06,6.65,5.62,12.69,10.72,18.87,15.93-4.01,13.12-7.85,25.71-12.37,40.49-3.41-3.86-5.92-5.86-7.36-8.46-11.14-20.1-22.04-40.32-33.08-60.48-1.81-3.3-3.19-6.48-.29-10.74Z"/>
  <path class="st0" d="M1349.68,929.2c10.97,8.3,22.06,16.45,32.87,24.96,7.06,5.56,13.64,11.74,20.57,17.47,17.31,14.32,37,21.99,59.71,21.82,20.66-.15,41.32.34,61.98.38,27.56.05,49.39,11.91,67.08,32.31,1.76,2.03,2.92,4.57,4.35,6.88-.57.46-1.13.93-1.7,1.39-3.06-2.18-5.88-4.91-9.24-6.44-13.31-6.09-26.56-12.47-40.32-17.37-5.96-2.12-13.16-1.6-19.69-1.04-9.6.82-19.06,3.41-28.66,4.08-23.63,1.65-46.54-2.36-68.5-11.15-17.41-6.97-30.84-19.54-43.69-32.71-10.23-10.48-20.33-21.09-30.4-31.72-2.14-2.26-3.93-4.86-5.89-7.31.51-.52,1.02-1.04,1.52-1.56Z"/>
  <path class="st0" d="M561.67,1468.48c3.63-3.84,7.44-7.51,10.85-11.54,10.54-12.44,20.88-25.05,31.42-37.5,2.2-2.6,4.11-6.37,8.42-4.71.53.61.79.84.94,1.12.15.29.35.73.23.95-32.38,61.1-64.79,122.19-97.22,183.28-.62,1.17-1.37,2.28-2.17,3.33-.38.51-1,.85-1.56,1.2-.27.16-.64.2-.96.21-.31.01-.64-.04-.94-.14-.31-.1-.59-.3-1.86-.96.32-2.06.39-4.57,1.12-6.88,10.71-33.94,21.46-67.87,32.36-101.74.87-2.71,2.71-5.21,4.47-7.52,4.99-6.57,10.17-13,15.27-19.48,0,0-.37.38-.37.38Z"/>
  <path class="st0" d="M1621.23,2480.35c-6.62-2.32-5.69-6.44-5.31-9.83.99-8.93,2.16-17.86,3.71-26.71,3.67-20.97,2.8-41.79-1.15-62.61-9.45-49.73-18-99.66-28.61-149.14-5-23.32-13.93-45.79-21.07-68.65-.38-1.2-.72-2.41-1.73-5.83,3.16,2.84,4.94,4.03,6.18,5.63,7.6,9.87,13.63,20.72,16.68,32.76,4.98,19.67,8.93,39.61,13.68,59.34,2.95,12.27,5.89,24.62,10.05,36.51,9.53,27.22,15.03,55.32,18.39,83.77,3.15,26.66-.71,53.21-4.8,79.59-.92,5.92-1.97,11.83-3.22,17.69-.52,2.43-1.73,4.71-2.78,7.46Z"/>
  <path class="st0" d="M1201.72,290.28c-4.21,2.32-6.78,4.56-9.69,5.16-6.79,1.41-13.73,2.78-20.63,2.86-35.75.44-69.24-9.68-100.79-25.19-22-10.82-42.68-24.47-63.37-37.76-7.4-4.75-13.21-12.03-19.5-18.41-1.91-1.94-2.97-4.73-3.69-7.85,8.11,1.22,13.52,6.58,19.01,11.45,11.08,9.84,23.41,17.72,37.04,23.24,16.02,6.48,32.18,12.83,48.71,17.81,24.51,7.39,49.35,13.68,74.14,20.07,6.07,1.57,12.51,1.63,18.75,2.57,6.11.92,12.66.34,20.01,6.06Z"/>
  <path class="st0" d="M1321.98,1917.55c26.05,9.65,51.58,19.12,77.3,28.65,1.47,10.89,2.94,21.4,4.28,31.93.2,1.61.49,3.77-.34,4.85-5,6.49-10.32,12.73-16.09,19.75-2.82-2.72-5.24-4.88-7.47-7.23-18.1-19.11-35.93-38.49-54.38-57.24-6.01-6.11-7.72-11.87-3.29-20.7Z"/>
  <path class="st0" d="M746.93,2099.53c1.33-6.65,2.73-13.64,4.15-20.77,19.14,6.5,37.24,12.86,55.51,18.72,4.62,1.48,9.76,2.03,14.64,1.9,14.64-.38,29.26-1.33,43.88-2.01,2.62-.12,5.25-.02,8.95-.02,2.21,9.33,4.38,18.51,6.85,28.95-4.63,0-7.86.16-11.07-.03-21.92-1.29-43.85-2.56-65.76-4.09-3.21-.22-6.46-1.45-9.49-2.7-15.61-6.44-31.16-13.03-47.67-19.96Z"/>
  <path class="st0" d="M158.45,1813.98c5.5-1.45,7.47,1.67,9.33,4.84,4.73,8.02,9.75,15.9,14.03,24.16,7.85,15.17,20.68,21.96,37.07,23.11,24.02,1.68,46.98-3.37,69.44-11.34,11.01-3.9,22.07-7.54,33.97-7.21,1.64.05,3.27.18,5.66.31-1.02,4.4-3,7.51-6.34,9.67-2.5,1.62-5.08,3.32-7.86,4.28-26.72,9.23-53.42,18.73-81.51,22.94-30.67,4.6-55.4-10.92-64.97-40.3-3.26-10.02-5.89-20.24-8.83-30.48Z"/>
  <path class="st0" d="M1324.49,1831.41c-2.65-10.43-5.21-21.47-6.9-32.92,7.37-1.31,10.49,3.47,13.93,6.57,5.3,4.78,10.36,5.5,17.25,3.71,27.4-7.08,54.89-13.83,82.51-19.99,11.72-2.61,22.12-6.43,29.76-19.61,2.87,11.26,7.75,19.26,4.6,29.44-2.74,8.85-4.11,18.12-6.33,28.28-7.74-5.79-6.89-15.48-13.07-22.05-9.86,1.83-20.27,3.71-30.66,5.71-20.27,3.92-40.58,7.62-60.76,11.99-9.64,2.09-19,5.5-30.34,8.86Z"/>
  <path class="st0" d="M506.46,1212.72c-1.28,3.55-2.3,6.66-3.51,9.68-7.2,17.9-14.38,35.82-21.77,53.64-1.09,2.63-2.86,5.31-5.01,7.13-19.56,16.57-39.25,32.98-58.96,49.36-1.72,1.43-3.83,2.37-7.38,4.52.8-3.24.81-5.07,1.66-6.35,2.75-4.13,6.14-7.85,8.69-12.08,16.44-27.4,32.73-54.88,49.04-82.35,2.21-3.73,4.78-6.6,8.83-8.93,5.98-3.45,11.06-8.49,16.41-12.98,3.26-2.74,6.55-4.56,12.02-1.63Z"/>
  <path class="st0" d="M1080.66,603.35c5.98,15.19,11.81,29.21,3.59,45.46,5.39,2.12,9.85,3.87,15.64,6.14,1.82-5.61,4.32-10.45,4.72-15.45.34-4.28,2.07-5.86,5.5-6.96,5.37-1.72,10.76-3.4,16.07-5.32,2.74-.99,5.49-1.56,6.97,1.35,1.05,2.08,2.04,5.18,1.24,7.05-6.52,15.27-13.47,30.35-20.3,45.49-1.51,3.35-4.09,4.2-7.36,2.8-16.73-7.16-33.44-14.37-49.91-21.46,1.79-13.57,17.55-53.47,23.84-59.11Z"/>
  <path class="st0" d="M1739.56,2677.61c-7.18-19.29-14.26-36.1-19.71-53.43-7.83-24.93-11.07-50.73-9.46-76.84,1.17-18.97,2.2-37.83-.83-56.72-.58-3.59-1.99-7.95,3.7-11.06,1.25,2.61,2.52,4.73,3.32,7.03,9.8,28.28,14.53,57.36,12.99,87.29-.8,15.56,1.48,30.17,7.69,44.69,7.94,18.57,6.39,38.07,2.3,59.05Z"/>
  <path class="st0" d="M563.3,1274.19c12.58,0,23.85-.09,35.11.05,3.91.05,6.77,1.97,8.63,5.69,3.7,7.4,7.73,14.63,11.81,22.28-1.69,1.93-3,3.81-4.67,5.29-14.19,12.57-28.44,25.06-42.68,37.57-1,.88-1.96,1.83-3.05,2.57-4.57,3.1-7.47,1.76-7.97-3.73-.18-1.97.03-3.99.1-5.98.6-17.61,1.19-35.22,1.85-52.84.12-3.26.51-6.5.87-10.9Z"/>
  <path class="st0" d="M817.1,1955.05c-2.79,9.84-5.38,18.98-8.26,29.1-3.07-1.86-5.36-2.98-7.35-4.5-11.91-9.04-25.51-16.65-35.13-27.7-9.6-11.03-15.23-25.53-22.52-38.56-6.17-11.02-12.24-22.09-18.3-33.17-1.56-2.86-2.92-5.82-4.54-9.05,6.34-4.15,12.85-3.08,18.75-2.3,2.63.35,5.41,4.49,6.92,7.51,7.88,15.75,15.6,31.58,22.87,47.62,2.77,6.1,6.6,10.24,12.63,13.13,11.36,5.44,22.44,11.47,34.92,17.92Z"/>
  <path class="st0" d="M140.69,1756.06c.14-10.81.73-20.15,5.32-28.46,5.62-10.17,12.11-19.85,18.04-29.85,8.82-14.85,17.68-29.68,26.16-44.72,10.61-18.83,20.56-38.05,31.36-56.77,6.69-11.59,15.02-22.04,27.01-28.84,3.32-1.88,4.58-8.28,10.98-4.22,2.89,6.58-.89,12.27-4.86,17.48-10.89,14.3-21.39,29-33.4,42.32-15.91,17.63-27.34,37.49-35.51,59.61-8.33,22.57-19.03,43.98-33.9,63.08-2.24,2.88-4.71,5.61-7.18,8.3-.58.63-1.61.86-4.01,2.07Z"/>
  <path class="st0" d="M1624.89,2506.54c-1.65,3.44-3.33,6.87-4.94,10.33-11.39,24.47-16.74,49.81-9.95,76.54,2.03,8,5.82,15.55,8.36,23.44,3.25,10.09,7.08,20.15,8.8,30.53,2.81,16.94-1.04,32.43-14.4,44.49-.99.89-1.82,2.27-2.96,2.6-1.98.57-4.33,1.05-6.16.45-.78-.25-1.24-3.49-.79-5.07,1.09-3.81,2.64-7.52,4.28-11.15,5.31-11.76,6.04-23.7,1.79-35.92-3.16-9.11-6.04-18.32-9.5-27.31-4.01-10.43-6.02-21.1-5.05-32.23,1.07-12.25,1.94-24.54,3.65-36.71,1.95-13.88,8.54-25.78,17.79-36.19,1.89-2.13,4.36-3.75,6.56-5.6l2.5,1.8Z"/>
  <path class="st0" d="M1353.74,758.76c0,3.81.78,7.83-.13,11.41-4.84,19.01-9.72,38.02-15.35,56.81-4.03,13.43-12.78,23.93-23.37,33.01-21.19,18.17-45.47,31.33-70.31,43.56-19.69,9.7-39.44,19.3-59.17,28.92-1.04.51-2.18.8-4.24-.41,2.71-2.18,5.26-4.62,8.18-6.48,3.92-2.51,7.96-4.94,12.21-6.78,22.03-9.57,42.87-21.19,62.92-34.45,28.92-19.13,50.75-43.37,62.12-76.87,5.2-15.34,13.29-29.71,20.25-44.43.91-1.92,2.9-3.34,4.38-4.99.84.24,1.68.48,2.51.72Z"/>
  <path class="st0" d="M1376.01,2556.2c-19.48-6.37-38.62-12.63-59.36-19.42,2.52-1.77,3.47-3,4.35-2.96,23.26,1,46.51,2.13,69.4,3.22,2.22,8.23-3.74,113.82-7.14,128.42-1.83-2.05-3.8-3.28-4.28-4.95-4.21-14.37-8.26-28.8-12.04-43.29-.51-1.97.24-4.66,1.25-6.58,8.97-17.07,6.87-35.56,7.82-54.44Z"/>
  <path class="st0" d="M1377.03,199.12c11.89-8.56,22.96-4.26,33.21,1.61,30.65,17.57,53.65,42.29,68.37,74.66,4.25,9.35,10.17,17.92,14.65,27.18,3.59,7.42,6.5,15.23,8.96,23.1.92,2.94.33,6.75-.69,9.79-1.89,5.66-8.02,6.59-11.65,1.53-3.05-4.26-5.15-9.28-7.19-14.17-8.23-19.65-15.29-39.86-24.64-58.95-11.97-24.42-30.86-42.22-56.73-52.17-8.25-3.17-17.42-4.9-24.29-12.58Z"/>
  <path class="st0" d="M1445.94,2504.58c1.33-34.8,2.64-67.92,3.82-101.05.24-6.65,1.12-12.83,3.76-19.24,4.55-11.03,7.4-22.75,11.02-34.16.66-2.09,1.56-4.11,3.27-8.53,1.02,3.97,1.78,5.56,1.77,7.15-.02,3.99-.25,7.98-.62,11.95-1.85,19.53.04,38.48,8.38,56.5,2.18,4.72,1.81,9.06-.28,14.17-9.33,22.75-17.95,45.78-26.97,68.66-.6,1.52-2.33,2.6-4.15,4.55Z"/>
  <path class="st0" d="M894.1,1191.69c-2.4,1.4-4.67,3.15-7.23,4.16-49.89,19.67-99.81,39.24-149.71,58.89-3.85,1.52-7.5,2.49-11.71-.25,1.63-8.05,4.24-14.22,13.33-17.54,43.79-16,87.41-32.5,130.88-49.37,8.75-3.4,15.94-1.48,23.59,1.2.28.98.56,1.95.85,2.93Z"/>
  <path class="st0" d="M493.78,1273.29c8.72-25.58,16.93-49.69,25.42-74.61,10.26,2.04,19.08,5.56,28.61,9.16,0,3.68.23,7.26-.04,10.8-.88,11.28-2.03,22.54-2.9,33.82-.34,4.45-1.9,7.4-6.54,8.77-13.08,3.86-26.07,8.04-39.12,12-1.14.35-2.49.05-5.44.05Z"/>
  <path class="st0" d="M1439.08,2136.89c-5.95,4.65-11.9,9.31-19.38,15.16-2.73-25.7-3.27-50.11-4.99-74.41-1.7-24.03-2.8-48.1-4.17-72.16.69-.19,1.37-.38,2.06-.57,1.03,1.38,2.47,2.62,3.03,4.17,8.35,23.17,16.51,46.42,24.94,69.57,1.39,3.81,1.65,6.8-1.18,10.06-3.46,3.99-4.08,8.85-3.51,14.08,1.22,11.21,2.12,22.46,3.2,34.12Z"/>
  <path class="st0" d="M784.47,1914.56c-8.53-13.08-16.52-26.54-25.75-39.1-7.35-10.01-11.25-20.28-11.51-32.87-.34-16.28-2.6-32.53-3.97-48.79-.19-2.25-.03-4.53-.03-7.22,5.39-.18,6.03,4,7.47,6.94,9.23,18.84,17.94,37.95,27.62,56.56,5.22,10.03,8.03,20.12,7.7,31.42-.24,8.3.67,16.64,1.01,24.96.1,2.5.02,5.01.02,7.51-.85.2-1.7.4-2.56.6Z"/>
  <path class="st0" d="M1372.45,1062.51c-2.63,2.41-5.23,4.87-7.91,7.23-16.73,14.69-33.55,29.27-50.15,44.11-2.64,2.36-4.29,5.84-7.23,9.97-8.29-6.72-15.46-15.64-24.55-22.88,10.35-11.44,20.03-22.26,29.88-32.9,1.43-1.54,3.64-3,5.65-3.27,14.78-2,29.59-3.77,44.42-5.41,3.05-.34,6.19.17,9.3.29.2.96.4,1.91.6,2.87Z"/>
  <path class="st0" d="M1231.38,576.99c-.73-.23-1.47-.47-2.2-.7-1.84-3.24-1.75-6.39.69-9.27,9.15-10.79,20.46-18.32,34.74-24.02-.71,3.39-1.06,5.08-1.58,7.54,4.99-1.58,9.3-3.54,13.81-4.21,4.65-.69,9.05-7.07,14.43-.88.65.75,4.24-1.15,6.5-1.71,7.97-2,15.89-4.51,25.23-3.22-.74,2.09-1.23,3.47-1.94,5.46h16.22c.2.75.41,1.49.61,2.24-4.83,2.28-9.67,4.56-14.61,6.89,2.5.59,5.08,1.19,10.32,2.42-3.94,2.38-5.75,4.19-7.85,4.63-20.19,4.21-40.34,8.62-60.67,12.04-11.07,1.86-22.45,1.91-33.69,2.78Z"/>
  <path class="st0" d="M954.84,250.9c12.41-1.23,21.88,4.61,31.72,10.32,28.87,16.75,59.55,29.31,91.58,38.79,16.23,4.8,32.01,11.1,48.08,16.47,6.29,2.1,12.83,3.42,19.2,5.31,5.3,1.57,10.96,2.68,15.22,8.7-2.92.72-4.98,1.74-6.97,1.63-5.95-.36-12.04-.47-17.78-1.9-32.88-8.2-65.79-16.46-96.9-30.24-11.53-5.11-22.59-11.28-33.72-17.24-12.59-6.74-25.07-13.7-37.49-20.75-5-2.83-10.78-5.01-12.93-11.07Z"/>
  <path class="st0" d="M725.33,1729.17c9.76,2.75,18.88,7.23,27.79,12.07,1.66.9,2.44,3.87,3.14,6.04,4.48,13.95,12.6,25.32,23.27,35.31,9.45,8.84,18.08,18.54,27.42,28.23-4.42,8.72-12.4,13.22-18.58,19.5-4.81-1.11-7.71-3.91-10.04-7.76-16.91-27.86-33.92-55.66-50.84-83.51-1.51-2.48-2.64-5.18-3.95-7.77.6-.7,1.2-1.4,1.8-2.1Z"/>
  <path class="st0" d="M1465.79,2062.19c10.41-1.55,10.82-1.32,11.46,7.7.28,3.94.05,7.93.05,11.91-5.54,4.71-11.03,9.39-17.82,15.18-7.38-21.28-11.99-42.14-17.65-62.69-5.71-20.75-11.17-41.57-16.96-63.2,6.29-1.78,11.56-3.27,18.15-5.13,7.57,31.99,15.1,63.8,22.77,96.22Z"/>
  <path class="st0" d="M698.41,948.92c-.8,3.43-.93,7.15-2.49,10.12-19.68,37.33-36.47,76.47-67.52,106.67-9.29,9.04-17.63,19.06-26.56,28.49-2.19,2.32-4.96,4.09-7.78,6.37-2.65-3.08-4.67-5.42-7.22-8.37,14.78-7.4,23.99-20.48,32.61-34.03,17.5-27.53,34.77-55.21,52.3-82.71,4.82-7.57,10.15-14.82,15.47-22.05,2.37-3.21,5.3-6.04,11.19-4.48Z"/>
  <path class="st0" d="M1005.5,2710.26c5.2-18.07,10.52-36.55,16.11-55.96,21.44,17.8,43.03,35.73,66.37,55.11-4.35.62-6.7,1.25-9.05,1.25-17.63-.06-35.26-.26-52.88-.39-6.49-.05-12.99,0-20.55,0Z"/>
  <path class="st0" d="M1225.64,344.94c2.82-.95,5.62-2.57,8.48-2.67,3.23-.11,6.61.83,9.74,1.86,29.05,9.52,58.08,19.09,87.05,28.85,4.69,1.58,9.17,3.92,13.55,6.29,3.41,1.84,8.02,3.75,6.75,8.62-1.22,4.66-6.18,4.65-10.04,4.79-4.61.17-9.38.04-13.85-.98-11.97-2.76-23.89-5.82-35.7-9.21-24.31-6.99-45.33-20.22-65.97-37.53Z"/>
  <path class="st0" d="M1035.5,1086.55c-16.92,2.35-31.73,4.42-46.54,6.45-32.65,4.47-65.32,8.88-97.96,13.39-4.4.61-8.64,1.18-12.51-3.56,6.1-5.56,11-11.8,20.57-13.04,40.27-5.21,80.46-11,120.64-16.88,5.43-.8,9.02,2.01,12.53,4.63,1.81,1.35,1.92,5,3.27,9.01Z"/>
  <path class="st0" d="M1383.4,600.53c-.73-3.26-1.57-5.35-1.63-7.47-.47-18.63,5.34-35.45,15.64-50.69,2.72-4.02,6.63-7.8,10.86-10.09,8.3-4.49,12.72-11.1,15.24-19.92,1.34-4.68,3.85-9.29,6.8-13.21,11.08-14.72,32.68-12.35,39.87,4.56,2.41,5.66,3.16,12.19,3.71,18.4.27,3.04-1.1,6.61-2.72,9.34-2.52,4.24-7.56,4.12-9.37-.41-1.67-4.17-1.82-8.99-2.39-13.55-.56-4.45,1.5-10.35-3.77-12.49-5.49-2.23-9.29,2.59-12.5,6.25-6.78,7.74-13.11,15.86-19.66,23.8-2.75,3.33-5.39,6.78-8.39,9.87-10.65,10.96-18.09,23.76-22.91,38.21-1.92,5.75-3.05,11.99-8.79,17.4Z"/>
  <path class="st0" d="M1420.93,2227.35c-1.57-8.58-2.81-15.38-4.14-22.65,12.17-10.22,24.32-20.42,37.03-31.1,1.81,2.21,3.56,4.33,5.69,6.92,7.12-16.66,11.21-34.07,18.49-50.25,5.16,2.05,3.82,5.5,3.47,8.13-1.67,12.47-3.38,24.95-5.6,37.33-1.64,9.14-3.94,18.17-6.27,27.16-.6,2.33-1.93,5.52-3.78,6.31-14.59,6.22-29.39,11.96-44.9,18.16Z"/>
  <path class="st0" d="M1642.82,2693.56c-.54-4.76-1.94-9.61-1.49-14.28,2.3-23.55,10.15-45.34,21.96-65.76.83-1.43,1.82-2.81,2.91-4.05,6.04-6.86,12.55-6.15,16.3,2.29,1.99,4.47,3.33,9.52,3.65,14.4,1.28,19.57,2.12,39.17,2.91,58.77.12,2.85-.91,5.74-1.44,8.77-6.48-.22-6.44-5.2-7.14-8.55-3.17-15.3-5.85-30.71-8.66-46.09-.57-3.14-.94-6.33-2.16-9.55-9.92,20.82-9.51,45.37-23.61,64.34-1.08-.1-2.17-.2-3.25-.3Z"/>
  <path class="st0" d="M879.97,809.04v12.6c-46.93,20.06-93.64,40.03-142.04,60.72-.4-4.12-1.62-7.15-.7-9.26,2.03-4.69,3.93-9.3,9.84-11.61,27.87-10.91,55.51-22.44,83.22-33.76,12.93-5.28,25.83-10.67,38.81-15.82,3.16-1.25,6.62-1.77,10.86-2.87Z"/>
  <path class="st0" d="M1072.15,808.75c-2.71,8.58-9.79,13.58-18.26,13.27-20.59-.76-41.17-1.76-61.75-2.73-22.57-1.07-45.14-2.4-67.72-3.19-5.4-.19-9.85-1.68-13.37-5.4-1.35-1.43-2.13-4.13-1.86-6.06.14-1,3.11-2.19,4.85-2.27,4.64-.2,9.3.11,13.95.29,44.83,1.76,89.66,3.53,134.5,5.32,2.92.12,5.82.46,9.66.77Z"/>
  <path class="st0" d="M634.58,1369.64c-.64-6.19-1.35-12.38-1.89-18.59-.8-9.29-1.53-18.59-2.18-27.89-.54-7.77-.16-8.66,6.78-11.27,11.22-4.21,22.5-8.27,33.87-12.07,8.25-2.76,10.45-1.11,12.54,7.38,1.47,5.99.48,10.73-3.82,15.51-12.48,13.86-24.47,28.15-36.73,42.22-1.85,2.13-4.07,3.93-6.12,5.89-.82-.39-1.63-.79-2.45-1.18Z"/>
  <path class="st0" d="M1345,960.15c4.83,4.77,9.25,9.01,13.53,13.39,4.16,4.25,8.17,8.63,12.91,13.67-5.55,12.43-11.32,25.39-17.13,38.34-.4.89-.83,2.2-1.56,2.46-12.58,4.58-19.51,16.51-30.4,23.24-.24.15-.63.05-1.99.11,0-2.32-.52-4.85.08-7.07,7.16-26.58,14.47-53.11,21.81-79.64.33-1.18,1.3-2.18,2.74-4.49Z"/>
  <path class="st0" d="M1103.05,746.06c-2.39,6.67-4.35,12.12-6.75,18.82-30.44-12.67-59.99-24.97-90.03-37.48,2.32-7.58,4.4-14.39,6.88-22.53,30.29,13.01,59.54,27.32,89.9,41.2Z"/>
  <path class="st0" d="M1655.61,1796.38c-6.04,2.15-11.39,2.93-15.37,5.67-19.76,13.62-41.58,20.41-65.35,22.32-10.58.85-21,3.64-31.57,4.83-6.56.74-13.27.14-20.44.14,1.9-2.04,4.25-3.5,5.01-5.55,3.88-10.47,12.27-14.54,22.3-15.87,6.23-.83,12.63-.89,18.93-.63,17.06.7,33.02-2.56,47.91-11.25,5.12-2.99,10.78-5.48,16.52-6.82,4.66-1.09,9.87-.6,14.71.1,4.09.59,7.27,3.13,7.35,7.06Z"/>
  <path class="st0" d="M1423.45,310.39c.85-.95,1.67-2.69,2.56-2.72,9.32-.33,18.36-.09,26.35,6.24,16.15,12.8,28.41,28.9,39.87,45.7,4.17,6.12,5.18,13.32,2.84,20.14-5.38,15.71-11.32,31.25-17.46,46.69-1.21,3.04-4.36,5.31-6.84,8.18-6.07-4.34-3.76-9.08-2.73-13.27,2.62-10.65,5.57-21.22,8.46-31.8,3.15-11.53,1.3-22.29-4.18-32.8-7.82-15.02-18.32-27.74-31.7-38.05-4.94-3.81-9.52-8.79-17.44-5.74l.25-2.57Z"/>
  <path class="st0" d="M606.9,927.57c4.29-2.23,6.9-4.18,9.82-5.02,18.82-5.41,37.68-10.7,56.59-15.74,4.77-1.27,9.82-2.04,14.74-2,2.52.02,5.03,2.32,7.55,3.59-1.29,2.45-1.96,5.91-3.99,7.16-4.45,2.74-9.46,4.79-14.48,6.32-6.65,2.03-13.61,3.04-20.31,4.95-10.03,2.85-13.1,7.29-11.66,17.61,1.19,8.53,3.19,16.96,4.89,25.41.85,4.22,1.94,8.42-2.14,13.09-1.57-1.66-3.45-2.88-4.25-4.61-2.65-5.7-4.82-11.61-7.33-17.38-4.87-11.22-11.98-20.62-22.37-27.35-1.89-1.23-3.48-2.93-7.07-6.02Z"/>
  <path class="st0" d="M974.78,912.25q4.79,6.53,4.24,15.22c-41.73,7.86-83.76,15.77-125.63,23.65-3.1-10.45-1.15-14.14,8.23-16.1,21.84-4.55,43.75-8.81,65.63-13.2,15.95-3.2,31.9-6.42,47.53-9.57Z"/>
  <path class="st0" d="M869.31,1012.89c5.9-8.23,9.96-15.48,21.11-16.5,30.14-2.77,60.15-6.89,90.2-10.53,3.62-.44,7.33-2.16,10.75-1.64,3.6.54,7.48,2.46,10.11,4.95,1.42,1.35.51,5.17.64,7.66-35.47,7.45-123.06,18.34-132.82,16.06Z"/>
  <path class="st0" d="M556.78,1213.35c8.63,3.45,17.19,6.77,25.63,10.37,1.27.54,2.47,2.23,2.9,3.63,3.16,10.48,6.27,20.98,9.07,31.57,1.91,7.21.43,8.9-7.25,8.61-10.29-.39-20.57-.98-30.85-1.67-6.06-.41-8.57-2.71-7.91-7.69,1.85-13.81,4.03-27.58,6.13-41.35.09-.59.7-1.1,2.28-3.45Z"/>
  <path class="st0" d="M1128.39,940.16c-22.71-1.62-44.64-3.15-66.57-4.75-15.62-1.14-31.23-2.34-46.84-3.55-2.65-.21-5.57-.02-7.82-1.12-1.6-.78-3.64-4.1-3.13-5.1,1.61-3.16,3.99-6.15,6.73-8.42,1.49-1.24,4.33-1.34,6.51-1.19,8.31.58,16.59,1.44,24.88,2.24,27.52,2.66,55.05,5.34,82.57,8.01,1.33.13,2.68.17,3.97.47,5.96,1.39,6.74,3.7,3.05,9-.93,1.33-1.97,2.59-3.34,4.4Z"/>
  <path class="st0" d="M1368.51,211.01c-8.65-5.86-15.38-10.12-21.77-14.85-6.01-4.44-14.58-4.47-20.44-12.06,3.4-1.31,5.93-2.28,8.6-3.3-.38-.57-.73-1.73-1.46-2.08-13.49-6.38-26.76-13.35-40.63-18.75-12.66-4.92-26.01-8.08-39.03-12.08-2.12-.65-4.13-1.64-6.53-2.61,2.68-7.35,8.52-7.83,13.97-7.3,6.23.6,12.49,2.04,18.47,3.96,15.5,4.97,30.86,10.39,46.26,15.67,8.57,2.94,16.7,6.76,22.86,13.66,5.28,5.92,5.15,8.9-.6,15.82,9.29,4.78,16.89,11.16,20.3,23.92Z"/>
  <path class="st0" d="M638.73,1160.25c27.69-16.41,55.28-33,83.16-49.09,5.35-3.09,11.74-4.66,17.85-5.99,2.37-.51,6.47.85,7.68,2.72,1.25,1.93.97,6.22-.43,8.23-2.99,4.28-6.59,8.6-10.92,11.38-6.94,4.45-14.42,8.34-22.13,11.27-19.88,7.56-39.98,14.54-60.05,21.59-4.51,1.58-9.01,4.21-14.06,2.45-.36-.86-.73-1.71-1.09-2.57Z"/>
  <path class="st0" d="M1496.53,1633.42c-13.71-14.78-25.77-27.77-37.91-40.86,17.68-11.4,34.75-22.42,51.83-33.44.54.42,1.09.83,1.63,1.25-5,23.51-10.01,47.01-15.55,73.05Z"/>
  <path class="st0" d="M911.73,1178.37c7.67-6,14.8-10.86,25.09-10.97,16.64-.18,33.32-1.41,49.85-3.34,9.15-1.07,18.04-4.4,27.01-6.85,6.1-1.67,12.09-3.79,18.23-5.26,1.55-.37,3.51.94,5.29,1.48-.93,1.84-1.37,4.53-2.86,5.39-11.54,6.66-23.23,13.07-35,19.31-2.26,1.2-5.07,1.69-7.66,1.85-22.95,1.41-45.91,2.71-68.88,3.96-4.2.23-8.94,1.27-11.07-5.56Z"/>
  <path class="st0" d="M1025.33,991.65c-2.29-4.78-.41-7.98,2.92-10.75,3.42-2.84,5.52-7.07,11.44-6.61,28.21,2.2,56.48,3.6,84.66,6.08,4.77.42,9.48,4.32,13.69,7.36,2.86,2.06,1.47,5.67-2.22,6.51-1.59.37-3.31.27-4.97.24-33.29-.67-66.57-1.36-99.86-2.09-1.95-.04-3.88-.5-5.67-.74Z"/>
  <path class="st0" d="M937.49,864.59c4.17,2.68,8.55,5.48,12.79,8.2-1.35,5.52-5.17,6.85-8.9,8.19-29.74,10.69-59.49,21.36-89.26,31.95-2.04.72-4.34.72-6.51,1.06-1.25-8.43,4.16-17.56,11.76-20.28,22.24-7.96,44.52-15.8,66.76-23.75,4.04-1.45,7.98-3.2,13.37-5.38Z"/>
  <path class="st0" d="M947.72,856.4c5.91-.84,9.44-1.96,12.88-1.74,34.82,2.25,69.64,4.66,104.44,7.17,9.15.66,9.9,1.64,10.81,11.48-3.18.2-6.34.64-9.48.56-31.9-.9-63.78-2.37-95.68-2.56-10.67-.06-15.33-6.46-22.96-14.91Z"/>
  <path class="st0" d="M1143.73,185.19c9.67-8.31,21.44-10.9,33.47-8.79,20.58,3.6,40.95,8.5,61.34,13.16,3.45.79,6.83,2.71,9.73,4.82,3,2.19,2.23,5.53-1.26,6.91-1.51.6-3.23.74-4.88.92-23.24,2.55-77.83-6.94-98.39-17.02Z"/>
  <path class="st0" d="M489.21,1646.34c-.34,1.87-.34,3.17-.8,4.28-5.41,12.87-9.85,26.29-16.56,38.44-17.33,31.38-33.62,63.47-58.06,90.38-10.9,12-20.62,25.07-26.74,41.63-2.07-5.66-1.09-9.59,1.3-13.32,1.97-3.08,3.81-6.27,6.02-9.17,29.4-38.55,49.93-82.36,73.66-124.26,4.26-7.52,8.22-15.21,12.66-22.62,1.55-2.59,2.8-6.35,8.54-5.36Z"/>
  <path class="st0" d="M1583.35,1050.25c-13.89,15.24-24.24,31.85-36.72,47.61-8.71-1.09-17.77-2.23-28.49-3.57,2.38-4.02,3.45-7.22,5.61-9.27,17.59-16.67,35.39-33.13,54.44-50.88,2.05,6.41,3.79,11.86,5.16,16.11Z"/>
  <path class="st0" d="M880.21,1048.62c.75-4.03,1.39-7.47,2.13-11.47,15.15-1.64,29.96-3.27,44.77-4.85,17.86-1.91,35.73-3.78,53.6-5.66.66-.07,1.32-.19,1.98-.22,4.16-.14,9.15-1.91,11.1,3.63,1.44,4.11-4.48,10.05-10.53,10.7-10.25,1.1-20.53,1.95-30.81,2.83-22.21,1.9-44.42,3.78-66.63,5.59-1.54.13-3.13-.29-5.61-.56Z"/>
  <path class="st0" d="M1447.33,611.88c4.37,6.84,2.31,12.7-.04,17.98-6.19,13.9-15.32,25.7-27.91,34.42-10.52,7.28-22.48,11.43-34.84,14.3-6.55,1.52-9.86-1.94-7.83-8.22,2.5-7.73,7.22-13.44,16-14.43,2.64-.3,5.28-.65,7.91-.97,9.47-1.17,16.89-5.79,22.32-13.53,3.24-4.62,6.07-9.53,9.31-14.15,3.95-5.64,7.6-11.64,15.1-15.39Z"/>
  <path class="st0" d="M1394.15,628.28c2.45-2.69,4.43-6.27,7.46-7.86,4.86-2.56,5.62-6.09,4.8-10.69-.59-3.26-1.47-6.46-2.05-9.72-3.09-17.33,8.75-29.37,26.09-26.58,8.51,1.37,12.15,6.76,9.43,14.94-1.34,4.03-5.17,7.53-5.59,11.51-1.28,12.11-6.84,18.32-19.43,18.75-3.5.12-6.9,3.66-10.32,5.69-3.03,1.8-6,3.67-9,5.51-.46-.52-.92-1.03-1.38-1.55Z"/>
  <path class="st0" d="M1091.35,149.63c9.13-8.89,19.96-14.25,32.07-16.87,14.76-3.2,29.73-3.32,44.72-2.32,15.57,1.04,31.18,1.75,46.66,3.56,6.03.71,11.87,3.77,17.55,6.31,1.66.74,2.47,3.4,4.74,6.77-4.38.4-7.18,1.08-9.88.81-7.61-.75-15.29-1.37-22.75-2.97-19.65-4.22-39.51-6.06-59.52-5.52-8.55.23-17.1,2.14-25.55,3.8-9.41,1.84-18.71,4.26-28.05,6.43Z"/>
  <path class="st0" d="M1110.39,1814.16c-14.5-1.92-26.76-3.53-38.34-5.06-5.77-12.84-11.15-24.8-17.32-38.52,4.36-.08,7.16-.59,9.77-.09,5.21,1,10.26,3.15,15.49,3.73,8.23.92,12.69,5.39,15.97,12.64,3.9,8.63,8.82,16.8,14.43,27.31Z"/>
  <path class="st0" d="M1313.85,989.64c-3.99,14.62-7.31,26.95-10.76,39.25-.33,1.18-1.22,2.52-2.24,3.13-8.45,5.02-16.99,9.89-26.28,15.26v-41.2c12.74-5.33,25.07-10.48,39.29-16.43Z"/>
  <path class="st0" d="M613.27,1272.62c17.03-.86,32.7-1.66,49.5-2.51,2.58,6.28,5.28,12.87,8.49,20.69-13.73,6.29-27.16,10.31-39.42,14.85-6.26-11.13-11.98-21.3-18.58-33.03Z"/>
  <path class="st0" d="M759.96,957.71c3.26,3,6.72,5.82,9.75,9.04,10.7,11.4,10.65,11.42,26.5,10.45,7.31-.44,14.62-.8,21.94-1.09,3.57-.14,7.34-.53,9.78,4.16-1.64,1.09-3.04,2.52-4.71,3.07-19.78,6.51-39.6,12.88-60.04,19.49-2.23-15.43-4.24-29.41-6.26-43.38,1.01-.58,2.03-1.15,3.04-1.73Z"/>
  <path class="st0" d="M1105.26,1840.97c-4.13.58-6.32,1.07-8.53,1.16-11.31.42-22.62.85-33.93,1-2.45.03-5.54-.33-7.28-1.77-7.15-5.96-13.95-12.34-20.74-18.72-1.3-1.22-1.94-3.14-3.66-6.04,11.82-1.25,22.46-2.37,34.33-3.63,12,8.44,25.13,17.67,39.81,28.01Z"/>
  <path class="st0" d="M1045.21,108.07c3.85,4.72,3.04,8.14-1.99,10.63-1.19.59-2.38,1.19-3.61,1.68-21.51,8.6-40.26,21.66-58.27,35.96-2.67,2.12-5.92,3.53-9.16,5.42-4.74-7.29-.79-11.98,2.83-15.92,11.04-12.02,22.88-23.07,37.96-30.19,10.37-4.9,20.78-8.66,32.24-7.59Z"/>
  <path class="st0" d="M718.82,2405.11q.57-23.48,22.72-23.95c8.56-.16,17.13-.03,26.51-.03.98,7.96,1.94,15.67,2.87,23.18-7.2,2.98-37.86,3.35-52.09.8Z"/>
  <path class="st0" d="M1097.17,1859.99c-3.8,3.21-6.68,5.73-9.66,8.12-4.14,3.32-8.54,6.33-12.47,9.88-3.57,3.22-6.92,3.88-11.69,2.51-7.61-2.2-15.57-3.21-23.34-4.87-3.42-.73-6.77-1.8-12.74-3.41,4.56-3.32,7.08-5.09,9.53-6.96,5.2-3.96,10.29-8.07,15.59-11.89,1.46-1.05,3.59-1.97,5.28-1.78,10.86,1.21,21.7,2.61,32.5,4.29,2.01.31,3.77,2.15,7,4.11Z"/>
  <path class="st0" d="M1214.65,1825.38c.39-1.67.31-3.41,1.11-4.5,6.91-9.38,13.85-18.75,21.1-27.86,1.48-1.86,4.26-3.55,6.58-3.74,10.57-.87,21.19-1.19,34.06-1.81-2.97,5.23-5.17,8.68-6.96,12.33-4.92,10.02-12.64,15.27-23.87,17.08-10.57,1.71-20.81,5.44-32.01,8.5Z"/>
  <path class="st0" d="M1238.93,1750.04c0,9.73.21,18.91-.18,28.06-.08,1.84-2.03,4.23-3.77,5.26-10.55,6.21-21.28,12.13-32.01,18.05-1.02.56-2.43.41-4.85.76,1.01-3.5,1.65-6.19,2.56-8.79,1.52-4.37,3.1-8.74,4.86-13.02,2.74-6.65,4.25-14.53,8.87-19.48,4.61-4.94,12.35-7.01,18.84-10.09,1.6-.76,3.69-.51,5.67-.74Z"/>
  <path class="st0" d="M1037.31,641.41c-7.9-3-14.87-5.64-22.31-8.46,6.35-15.51,12.25-29.89,18.36-44.81,7.96,1.4,14.82,5.04,22.53,9.67-2.98,7.18-5.83,14.16-8.79,21.09-2.99,7.01-6.08,13.98-9.79,22.5Z"/>
  <path class="st0" d="M1149.1,1722.12c6.24,14.06,17.23,26.29,11.57,43.48-2.55,7.73-3.32,16.05-5.39,26.59-8.96-10.68-14.94-20.77-23-30.27,5.05-13.22,8.85-27.15,16.82-39.8Z"/>
  <path class="st0" d="M1167.99,1982.29c-6.17-9.43-11.28-17.07-16.19-24.84-1.14-1.81-2.74-4.51-2.14-6.03,4.51-11.6,9.51-23,14.96-35.88,2.79,3.05,4.27,4.61,5.67,6.23.42.49.65,1.15.93,1.75,3.45,7.16,9.19,14.17,9.7,21.54.5,7.2-4.4,14.75-6.79,22.19-1.1,3.43-1.63,7.06-2.84,10.45-.61,1.71-2.17,3.08-3.3,4.6Z"/>
  <path class="st0" d="M1193.88,1900.24c7.2,6.8,14.48,13.51,21.53,20.46,1.26,1.24,2.09,3.4,2.25,5.22.92,10.26,1.62,20.54,2.26,30.82.09,1.47-.61,2.99-1.04,4.95-9.94-6.49-19.2-12.54-27.68-18.08v-42.73c.89-.22,1.79-.43,2.68-.65Z"/>
  <path class="st0" d="M1203.12,1725.41c.3,11.34.56,20.17.71,29,.01.9-.56,1.9-1.09,2.72-6.22,9.7-12.48,19.37-18.36,28.49-4.9.3-6.47-2.07-7.42-5.08-.4-1.25-.59-2.58-.74-3.9-.95-8.16-1.87-16.33-2.79-24.49,6.25-7.28,12.29-14.76,18.9-21.7,2-2.1,5.6-2.7,10.8-5.03Z"/>
  <path class="st0" d="M538.29,1136.47h18.61c1,17.54-.76,34.2-1.12,51.17-9.23.7-16.16-2.96-23.02-5.87-1.79-.76-2.97-5.86-2.46-8.6,2.23-12.09,5.17-24.05,7.99-36.7Z"/>
  <path class="st0" d="M729.99,2293.93c1.11-12.29,8.78-38.84,14.09-46.08,7.37,23.01,14.42,45.01,21.46,66.96-4.91,3.53-7.98.71-11.11-1.75-8.06-6.31-16.12-12.63-24.43-19.14Z"/>
  <path class="st0" d="M1042.61,1915.9c4-4.67,8.59-8.96,11.87-14.08,5.26-8.21,13.1-11.43,21.88-13.77,6.72-1.79,13.25-4.25,19.92-6.22,2.02-.6,4.24-.55,8.24-1.03-2.27,4.29-3.56,7.19-5.26,9.81-1.8,2.77-4.55,5.03-5.91,7.96-10.37,22.34-30.8,18.28-48.99,20.1l-1.75-2.78Z"/>
  <path class="st0" d="M1129.39,1797.21c-5.5-3.08-9.78-5.96-14.44-7.97-9.82-4.24-14.42-11.49-15.59-22.07-1.01-9.1-3.57-18.03-5.44-27.01,4.84-2.58,8-1.54,11.02,1.05,5.3,4.55,10.82,8.87,15.87,13.68,1.73,1.65,2.93,4.38,3.32,6.78.92,5.57,1.01,11.27,1.8,16.86.76,5.43,1.97,10.79,3.46,18.67Z"/>
  <path class="st0" d="M1170.41,1730.74c-6.67-12.89-13.3-25.73-20.76-40.16,17.9-.26,34.24,1.92,51.02,3.51-3.29,8.24-22.89,31.76-30.26,36.65Z"/>
  <path class="st0" d="M1142.36,1911.96c.35,4.08.85,8.16,1.02,12.25.32,7.61,2.25,15.78.14,22.69-1.99,6.52-8.31,11.71-12.72,17.49-2.42,3.17-4.7,6.46-7.28,9.48-1.12,1.31-2.86,2.1-4.62,3.33-1.11-9.99-1.97-19.1-3.2-28.16-.67-4.96.34-8.95,3.73-12.79,7.12-8.08,13.86-16.49,20.76-24.76.73.16,1.45.31,2.18.47Z"/>
  <path class="st0" d="M1074.42,1957.89c1.98-12.24,5.58-23.12,10.23-33.52,1.45-3.24,5.86-5.16,8.92-7.68,6.84-5.61,13.68-11.22,22.19-18.2.35,4.28,1.09,6.45.59,8.29-2.69,9.91-5.55,19.79-8.67,29.58-.64,2.02-2.24,4.18-4,5.33-8.05,5.25-16.3,10.2-24.54,15.15-.99.6-2.38.55-4.72,1.05Z"/>
  <path class="st0" d="M1207.01,1886.51c3.92.37,5.83.29,7.61.75,8.66,2.25,17.28,4.66,25.94,6.96,3.46.92,5.28,2.43,6.09,6.55,1.2,6.1,4.15,11.84,6.26,17.77.94,2.64,1.67,5.36,3.03,9.79-12.17-3.47-22.54-6.35-32.83-9.47-1.35-.41-2.77-1.89-3.38-3.23-4.07-8.99-7.93-18.08-12.72-29.12Z"/>
  <path class="st0" d="M726.29,2320.51c10.21,3.46,19.16,6.48,28.49,9.64-5.83,10.01,4.05,15.95,4.64,25.42-13.92.17-27.82.34-42.97.52,3.04-10.98,6.24-22.54,9.84-35.58Z"/>
  <path class="st0" d="M1089.03,865.78c-7.15-3.22-14.09-4.3-17.33-8.34-4.13-5.15-6.4-12.52-7.43-19.25-1.47-9.53,5.93-15.71,22.43-20.22,2.37,3.07,5.08,6.32,7.49,9.79,2.08,3,3.41,5.65.67,9.77-2.2,3.31-1.95,8.26-2.77,12.48-.87,4.47-1.73,8.95-3.05,15.76Z"/>
  <path class="st0" d="M914.74,257.76c-.01-29.82,58.16-98.42,86.94-102.05-1.34,2.01-2.17,3.52-3.26,4.8-.85.99-1.98,1.77-3.07,2.53-27.24,19.09-47.64,44.09-63.73,72.97-3.7,6.65-8.35,12.78-12.75,19.02-.82,1.16-2.51,1.7-4.13,2.73Z"/>
  <path class="st0" d="M1039.38,1746.05c2.12-1.99,4.19-4.04,6.37-5.95,6.7-5.84,13.73-11.34,20.06-17.55,3.97-3.89,7.83-5.69,14.34-3.28-.51,13.01-1.03,26.42-1.59,40.96-14.91-.67-26.32-8.16-39.03-11.47-.05-.9-.11-1.81-.16-2.71Z"/>
  <path class="st0" d="M922.87,1122.75c5.91-2.94,82.59-11.22,94.35-10.25-1.2,7.03-6.55,11.92-14.63,12.71-8.59.84-17.21,1.24-25.82,1.85-13.57.96-27.17,1.7-40.71,3.02-6.46.63-10.85-1.14-13.18-7.34Z"/>
  <path class="st0" d="M1249.55,1771.88c5.3-12.39,10.6-24.77,16.4-38.35,11.14,6.5,19.66,14.28,28.45,21.61,1.45,1.21,1.56,4.04,2.67,7.23-15.7,4.89-30.97,8.28-46.16,11.98l-1.37-2.47Z"/>
  <path class="st0" d="M712.85,2548.9c-16.81,7.73-32.24,14.83-48.57,22.34.53-8,1.06-16.05,1.65-24.94,9.96-4.66,20.07-9.38,29.87-13.96,6.03,5.86,11.4,11.08,17.05,16.56Z"/>
  <path class="st0" d="M1222.4,1868.74c9.32-2.76,18.36-5.51,27.44-8.06,1.48-.42,3.53-.59,4.74.12,9.04,5.26,17.93,10.77,28.17,16.99-9.95,6.34-19.63,8.32-28.6,11.89-1.01.4-2.72-.05-3.73-.7-8.91-5.7-17.75-11.5-26.55-17.38-.68-.45-.87-1.64-1.48-2.86Z"/>
  <path class="st0" d="M1168,947.27c-2.99,12.59-5.61,23.63-8.52,35.86-7.38-2.77-14.05-5.27-21.6-8.11-.2-11.06,2.16-22.06,4.04-33.06.77-4.52,4.62-4.45,7.88-3.09,6.38,2.66,12.57,5.78,18.19,8.4Z"/>
  <path class="st0" d="M1037.48,1847.64c-11.04,5.84-20.06,10.71-29.19,15.38-3.36,1.72-6.49.54-6.58-3.25-.32-12.97-.32-25.96.07-38.93.13-4.23,3.83-5.43,7.1-2.25,9.26,9.01,18.16,18.38,28.6,29.04Z"/>
  <path class="st0" d="M1446.67,596.09c-.14-2.86-.5-4.19-.23-5.38,2.66-11.59,2.43-23.11-1.34-34.38-1.94-5.8.09-10.26,3.54-14.52,5.21-6.44,13.68-5.64,16.59,2.2,3.9,10.52,4.65,21.58-.21,32.03-3.65,7.84-9.54,14.15-18.35,20.04Z"/>
  <path class="st0" d="M1009.25,1801.52c7.06-13.36,11.31-27.86,19.3-42.33,11.36,10.7,15.33,24.37,25.04,33.76-6.08,4.19-35.71,9.95-44.35,8.57Z"/>
  <path class="st0" d="M1257.23,1718.61c-11.57,8.44-23.04,16.81-35.99,26.27-1.47-4.3-3.1-7.08-3.25-9.94-.24-4.62.6-9.29.76-13.94.16-4.53.03-9.07.03-14.54,1.44-.18,3.59-.83,5.65-.64,7.62.71,15.19,1.97,22.82,2.51,5.88.42,9.2,2.99,9.98,10.27Z"/>
  <path class="st0" d="M1272.72,1816.93c6.23-11.2,11.41-20.04,16.09-29.13,2.34-4.55,5.38-6.47,11.51-5.04,5.15,11.29,10.6,23.22,16.92,37.05-15.7.26-29.16-2.4-44.53-2.88Z"/>
  <path class="st0" d="M1259.93,1822.09c7.97,3.35,15.31,6.41,22.61,9.55.47.2.67,1.04,1.76,2.85-7.61,5.43-15.28,11.02-23.12,16.36-1.19.81-3.23.78-4.8.57-9.55-1.26-19.07-2.64-28.59-4.11-.84-.13-1.56-1.11-3.31-2.42,11.94-7.68,23.43-15.07,35.46-22.8Z"/>
  <path class="st0" d="M1559,2656.12c7.99,8.04,17.68,8.77,25.54,14.61-2.11,1.25-3.56,2.84-4.59,2.6-8.02-1.84-16.28-3.28-23.84-6.35-6.93-2.82-9.27-8.62-7.97-14.42,1.21-5.41,6.38-9.84,13.1-10.51,3.93-.39,7.97-.15,11.91.23,7.88.76,15.74,1.81,23.64,2.75-.75,12.4-13.67,15.41-37.79,11.09Z"/>
  <path class="st0" d="M1105.24,1993.15c-14.36-3.36-27.22-6.57-42.37-11.08,13.89-11.89,27.11-20.46,41.78-29.69,4.03,13.91-1.83,26.23.59,40.77Z"/>
  <path class="st0" d="M1189.77,1959.89c9.71,7.68,21.51,12.15,31.83,21.34-12.8,9.56-26.21,15.2-39.3,22.38-1.99-8.47,2.81-34.77,7.47-43.71Z"/>
  <path class="st0" d="M839.57,1089.35c-12.13,8.01-25.93,12.51-38.61,18.1-2.38-5.12-3.92-9.23-6.09-12.98-4.65-8.01-9.66-15.81-14.41-23.76-.56-.94-.44-2.29-.78-4.34,2.09.51,3.39.56,4.39,1.12,2.6,1.46,5.26,2.93,7.56,4.8,10.93,8.91,23.08,13.98,37.47,12.96,3.16-.22,6.39.55,9.58.86.29,1.08.59,2.15.88,3.23Z"/>
  <path class="st0" d="M1336.56,960.51c-8.29-6.54-11.66-14.63-12.8-23.67-1.99-15.81-4.03-31.63-5.16-47.51-.56-7.82.8-15.8,1.5-23.68.13-1.45,1.32-2.81,2.74-5.66,1.42,3.76,2.73,6.02,3.11,8.42,4.65,29.46,4.79,59.57,12.76,88.56.17.62-.93,1.59-2.15,3.54Z"/>
  <path class="st0" d="M1126.33,1733.66c-13.66-8.15-25.56-15.24-37.41-22.4-.35-.21-.22-1.22-.39-2.37,14.14-4.61,28.35-9.24,44.45-14.49-.48,14.27-3.94,25.76-6.65,39.26Z"/>
  <path class="st0" d="M1117.32,2002.16c7.6-10.23,15.2-20.46,22.72-30.58,7.09,3.52,22.09,19.96,25.93,28.05-7.59,3.54-42.48,5.35-48.65,2.53Z"/>
  <path class="st0" d="M1477.8,1776.86c-.6-1.4-1.47-2.74-1.77-4.2-3.4-16.54-6.83-33.07-10.01-49.65-1.82-9.45-1.24-10.02,8.27-11.36,3.53-.5,7.06-.91,12.19-1.56-2.05,22.93-4,44.77-5.95,66.62l-2.73.14Z"/>
  <path class="st0" d="M1089.07,2611.36c13.69-1.92,27.37-3.84,41.99-5.89-.77,11.41-1.47,21.72-2.19,32.24-7.09,1.01-10.83-3.44-15.29-5.88-4.66-2.54-9.21-5.35-13.58-8.37-4.19-2.89-8.09-6.19-12.12-9.31.4-.93.79-1.86,1.19-2.79Z"/>
  <path class="st0" d="M926.33,496.38c-3.63-18.59,3.45-35.01,9.19-51.61,4.69-13.56,6.2-15.44,12.92-19.25,4.07,7.05,1.61,14.15-.08,20.88-4.47,17.78-8.46,35.86-22.03,49.98Z"/>
  <path class="st0" d="M1017.19,1920.15c-5.3-12.58-12.17-23.47-17.02-36.93,15.02.45,27.9,2.53,40.88,4.61-1.66,8.07-14.05,24.73-23.86,32.32Z"/>
  <path class="st0" d="M1525.76,1253.53c-4.42-9.86-8.06-17.99-12.18-27.19,10.47-3.28,20.44-6.41,32.08-10.06,1.03,8.63,2.07,15.72,2.55,22.85.1,1.51-1.5,3.82-2.95,4.62-6.04,3.34-12.32,6.24-19.5,9.78Z"/>
  <path class="st0" d="M1264.16,610.19c-1.52-6.68-3.03-13.36-4.51-19.84,16.74-6.47,42.23,3.21,49.88,18.6-2.47,0-4.61-.1-6.74.02-8.23.46-16.59.25-24.63,1.75-5.15.96-9.67,1.02-14.38-.9,0,0,.37.37.37.37Z"/>
  <path class="st0" d="M1024.77,1935.41c13.31-1.28,26.61-2.56,40.02-3.85.03,8.47-7.71,27-14.44,34.56-8.83-9.36-17.6-18.65-26.37-27.95l.79-2.76Z"/>
  <path class="st0" d="M719.3,930.43c-2.5-17.49-2.36-33.25.45-39.98,5,1.76,6.25,6.66,8.24,10.48,2.68,5.13,6.33,6.82,11.93,7.04,7.1.28,14.51-1.11,21.57,2.17-4.58,5.5-30.69,18.04-42.19,20.29Z"/>
  <path class="st0" d="M1310.02,1840c2.1,8.23-.81,32.66-4.97,41.87-10.21-6.14-19.71-12.88-29.62-20.58,12.13-7.46,23.21-14.28,34.6-21.28Z"/>
  <path class="st0" d="M1077.49,1042.02c-2.82.38-5.01,1-7.16.9-15.95-.7-31.89-1.43-47.82-2.37-9.45-.56-9.81-1.12-11.1-12.52,20.95-.19,41.56,2.39,62.36,3.82.99,2.26,1.83,4.02,2.53,5.84.44,1.15.67,2.38,1.19,4.33Z"/>
  <path class="st0" d="M1318.87,2706.57c-6.71.81-12.17,1.46-18.41,2.21-3.43-8.94-6.71-17.47-10.14-26.4,5.74-5.21,11.26-10.22,18.03-16.36,5.35,13.37,5.78,26.69,10.53,40.56Z"/>
  <path class="st0" d="M884.81,833.02c1.4-4.65,2.9-8.37,7.03-6.53,9.01,4.01,16.79-.23,24.87-2.68,8.29-2.52,8.26-2.61,15.71,1.99-7.25,8.21-14.34,16.24-22.12,25.04-9.25-5.35-17.27-11.42-25.49-17.82Z"/>
  <path class="st0" d="M1240.34,1976.54c-3.45-5.13-6.94-32.58-5.5-39.71,9.8,3.95,19.64,7.92,31.18,12.57-9.07,9.59-17.11,18.08-25.68,27.14Z"/>
  <path class="st0" d="M1158.5,1050.26v-19.87c6.87-.86,13.4-1.69,19.94-2.48,4.02-.48,7.07.59,8.69,4.8,1.99,5.19,4.34,10.25,6.86,16.13-12.11,2.64-23.21,1.13-35.49,1.42Z"/>
  <path class="st0" d="M1277.11,1930.52c-5.56-9.38-11.12-18.76-17.24-29.09,11.54-3.18,21.44-6.1,33.78-7.94-5.19,13.32-9.67,24.81-14.16,36.3-.79.24-1.59.49-2.38.73Z"/>
  <path class="st0" d="M493.16,1203.1c-2.92-4-.72-6.2,1.15-8.6,15.2-19.41,27.16-31.01,33.37-32.27,1.65,18.8-13.54,36.85-34.52,40.87Z"/>
  <path class="st0" d="M1373.47,687.03c.91,3.14,2.09,5.3,2.05,7.43-.22,12.98-1.69,25.78-6.53,37.98-1.5,3.79-3.16,6.9-8.08,7.6-2.94.42-5.57,3.03-9.55,5.36.53-3.18.26-5.65,1.32-7.21,7.88-11.56,10.4-24.92,13.47-38.16,1-4.33,1.38-9.22,7.31-13Z"/>
  <path class="st0" d="M952.31,328.68c-.24-1.18-.85-2.43-.65-3.53,1.56-8.73-.02-17.11-2.17-25.54-.88-3.46-1.23-7.23-.92-10.78.52-5.95,4.17-10.37,7.89-9.99,5.39.55,6.79,5.08,7.43,9.3,1.4,9.25,1.44,18.58-2.11,27.43-1.92,4.8-4.71,9.25-7.11,13.86-.79-.25-1.57-.49-2.36-.74Z"/>
  <path class="st0" d="M917.68,436.38c-3.14,1.32-3.73,7.96-8.1,5.27-2.29-1.41-3.72-6.35-3.41-9.48,1.06-10.5,2.84-20.96,4.86-31.33.65-3.37,2.04-7.29,7.66-6.93,3.31,2.46,3.65,6.57,3.21,10.39-1.25,10.83-2.99,21.6-4.54,32.39l.32-.31Z"/>
  <path class="st0" d="M1182.18,84.8c-2.03,1.26-3.36,2.79-4.75,2.85-19.38.86-38.76,1.52-58.86.42,2.73-1.43,5.32-3.58,8.22-4.17,13.63-2.76,27.3-5.48,41.07-7.39,5.57-.77,11.18,1.05,14.32,8.29Z"/>
  <path class="st0" d="M1096.15,1079.7c-2.22,4.85-3.44,7.5-5.18,11.3-13.87-.77-28-1.56-42.09-2.34-1.49-4.24-.93-6.81,2.16-8.56,1.44-.82,2.93-1.66,4.51-2.11,13.24-3.81,25.96.04,40.6,1.72Z"/>
  <path class="st0" d="M1442.86,1154.31c-9.33-5.91-18.66-11.82-29.22-18.51,4.58-6.55,3.5-16.1,12.99-22.08,6.57,13.38,12.45,26.23,18,39.24-.59.45-1.18.9-1.77,1.35Z"/>
  <path class="st0" d="M954.44,339.38c-.47,4.16.07,8.78-1.57,12.41-6.25,13.8-13.15,27.3-19.98,40.84-.39.78-2.24.83-3.64,1.29-.42-1.33-1.22-2.66-.9-3.04,3.81-4.49,3.58-9.69,3.27-15.09-.98-16.72,9.92-26.83,19.66-37.55l3.17,1.14Z"/>
  <path class="st0" d="M947.06,2361.91c-5.97-10.79-11.93-21.59-18.86-34.12,13.59-1.1,21.45,7.53,31.97,10.53-3.54,8.48-6.72,16.1-9.91,23.72-1.07-.04-2.14-.08-3.2-.12Z"/>
  <path class="st0" d="M918.25,337.6c.82,2.36,1.39,3.13,1.19,3.55-5.46,12.04-6.68,24.9-7.8,37.86-.77,8.86-2.6,12.14-9.38,20.12,1.11-16.31-4.67-30.92,2.35-45.29,3.06-6.26,7.06-11.71,13.64-16.25Z"/>
  <path class="st0" d="M917.36,436.69c5.59-9.68,11.27-19.3,16.72-29.05,2.39-4.26,3.56-9.37,8.81-11.62,4.71,2.31,5.03,6.57,3.66,10.23-2.17,5.82-4.98,11.52-8.36,16.73-6.11,9.42-12.85,18.44-19.47,27.83-3.67-4.21.36-9.66-1.02-14.44-.02.02-.34.33-.34.33Z"/>
  <path class="st0" d="M919.38,375.25c-1.29-17.7,9.06-55.01,17.3-62.47.89.82,2.43,1.54,2.63,2.53,2.08,10.11,2.08,20.37-4.74,28.57-6.84,8.22-11.44,16.99-12.94,27.51-.16,1.13-1.22,2.14-2.25,3.86Z"/>
  <path class="st0" d="M892.89,320.62c-1.57-1.51-2.42-1.93-2.42-2.37-.15-10.33-1.56-20.27-6.11-29.82-1.38-2.9-.62-7.29.33-10.67.59-2.13,3.17-4.84,5.17-5.12,1.96-.28,4.54,1.92,6.39,3.56,1.11.98,1.63,2.9,1.92,4.48,2.11,11.64,1.22,23.14-2.11,34.44-.52,1.76-1.86,3.29-3.16,5.51Z"/>
  <path class="st0" d="M1320.82,242.13c3.56-6.33,8.14-7.18,12.7-5.11,14.63,6.66,24.16,17.79,27.41,34.11-13.38-9.67-26.75-19.34-40.11-29Z"/>
  <path class="st0" d="M958.06,479.86c.3,19.69-5.53,38.59-7.39,58.27-5.04-.98-5.84-4.27-6.79-7.36-2.31-7.55-1.76-15.04.76-22.42,3.09-9.06,6.25-18.1,9.39-27.15.32-.92.69-1.82,1.04-2.73l3,1.4Z"/>
  <path class="st0" d="M1358.66,2475.38c3.91,10.91,7.22,20.14,11.04,30.77-10.89-1.27-20.79-5.19-32.84-7,6.88-8.67,13.73-15.52,21.8-23.78Z"/>
  <path class="st0" d="M828.18,2502.29c6.66,5.65,13.33,11.31,20.88,17.72-3.93,6.71-8.15,14.7-15.36,23.57-4.22-14.61-5.58-27.54-7.65-40.33.71-.32,1.42-.64,2.13-.96Z"/>
  <path class="st0" d="M930.01,307.08c.45-1.42.76-2.92,1.38-4.27,2.56-5.54,2.53-10.88-.64-16.22-3.22-5.42-3.73-11.34-2.42-17.39.72-3.36,2.31-7.13,6.14-6.62,2.22.29,5.16,3.3,5.85,5.65,3.93,13.4,2.74,26.31-5.4,38.09-.51.74-1.53,1.24-2.42,1.54-.47.16-1.17-.34-2.48-.78Z"/>
  <path class="st0" d="M797.68,2208.37c-5.34,3.31-10.05,6.24-16.02,9.95-2.16-14.33-4.19-27.82-6.55-43.49,8.45,4.06,9.79,10.92,13,16.09,3.48,5.59,6.36,11.55,9.57,17.46Z"/>
  <path class="st0" d="M949.03,251.33c-8.28-8.72-8.79-9.07-3.78-16.34,6.95-10.09,14.5-19.79,22.29-29.24,3.73-4.53,8.88-7.65,16.96-9.97-2.15,3.24-2.9,4.78-4.02,5.98-5.68,6.06-12.24,11.47-16.97,18.18-4.7,6.67-7.7,14.57-11.25,22.02-1.23,2.57-1.89,5.41-3.23,9.37Z"/>
  <path class="st0" d="M719.23,2630.81c-3.15,8.28-6.3,16.55-9.97,26.19-7.85-3.83-14.75-7.2-23.29-11.37,10.77-8.48,21.48-12.13,31.62-16.89.54.69,1.09,1.38,1.63,2.07Z"/>
  <path class="st0" d="M900.73,333.75c.12-2.19-.24-3.91.36-5.16,4.64-9.62,5.19-19.78,4.74-30.2-.16-3.6.08-7.38,1.07-10.81.52-1.81,2.99-4.11,4.72-4.24,1.71-.13,4.79,1.92,5.17,3.52,1.06,4.39,2.52,9.58,1.11,13.48-3.91,10.88-9.15,21.27-13.98,31.81-.29.63-1.56.81-3.2,1.6Z"/>
  <path class="st0" d="M1103.6,1036.03c.81,12.15,1.76,23.95,2.21,35.78.06,1.57-2.46,3.23-3.79,4.85-1.37-1.19-3.19-2.13-4.03-3.62-2.74-4.82-5.14-9.83-7.65-14.78-.15-.29-.33-.69-.24-.95,1.82-5.29,3.61-10.59,5.56-15.82,1.02-2.75,1.96-5.81,7.94-5.45Z"/>
  <path class="st0" d="M1182.25,1283.02c-11.58,1.41-23.16,2.83-35.08,4.28,2.96-8.24,5.48-15.23,8.28-23.03,9.27,5.69,18.53,11.37,27.79,17.06-.33.56-.66,1.13-.99,1.69Z"/>
  <path class="st0" d="M1149.48,2400.59c-9.32-4.75-17.21-8.76-25.33-12.89,4.9-5.2,16.36-9.53,30.73-11.71-1.77,8.04-3.42,15.58-5.4,24.59Z"/>
  <path class="st0" d="M1411.79,196.03c-6.56-3.43-12.87-7.54-19.76-10.09-6.59-2.44-13.78-3.26-21.09-4.87,5.97-7.02,15.67-8.25,27.35-3.63,7.62,3.01,14.51,6.99,16,15.65-.83.98-1.67,1.96-2.5,2.94Z"/>
  <path class="st0" d="M1192.39,813.39c7.81.96,14.7,1.43,21.43,2.74,5.1.99,6.17,5.59,1.91,8.51-8.02,5.5-16.97,8.12-28.43,6.47,1.77-6.16,3.27-11.37,5.09-17.71Z"/>
  <path class="st0" d="M720.19,1559.75c-3.34-12.34-5.02-24.04-4.95-37.01,9.18,2.62,12.63,9.92,18.78,14.73-4.71,7.58-9.27,14.93-13.83,22.28Z"/>
  <path class="st0" d="M1024.36,1114.52c10.44-1.39,16.14,4.68,23.39,8.12-1.99,7.48,1.29,16.38-8.34,21.46-4.88-9.59-9.55-18.77-15.05-29.58Z"/>
  <path class="st0" d="M961.93,1309.49c-9.35,3.67-18.7,7.35-29.53,11.6,1.12-8.73,2.01-15.66,3.06-23.78,9.01,3.17,17.72,6.24,26.43,9.3.01.96.03,1.91.04,2.87Z"/>
  <path class="st0" d="M1516.11,1437.98c4.98-4.48,9.07-8.15,14.61-13.13,2.11,12.89,3.96,24.21,5.81,35.53-.82.38-1.63.76-2.45,1.14-7.05-6.49-11.4-15.16-17.98-23.54Z"/>
  <path class="st0" d="M1366.28,1304.86c5.4,8.77,10.05,16.34,14.71,23.91-.5.58-.99,1.15-1.49,1.73-8.87-2.89-17.74-5.78-28.02-9.13,5.68-6.34,10.27-11.46,14.8-16.52Z"/>
  <path class="st0" d="M1331.14,2287.04c-.54,6.83-1.09,13.66-1.7,21.28-8.62-.95-15.49,5.99-25.57,3.2,8.06-9.7,16.25-17.88,24.69-25.81.86.44,1.72.89,2.58,1.33Z"/>
  <path class="st0" d="M1317.32,82.55c-2.59-1.08-5.17-2.19-7.78-3.25-7.59-3.1-15.22-6.11-22.77-9.33-1.35-.57-3.39-2.05-3.3-2.91.18-1.66,1.33-4.16,2.65-4.6,7.56-2.5,14.34,1.12,20.89,3.99,5.99,2.62,11,6.85,12.31,13.61-.67.83-1.33,1.66-2,2.49Z"/>
  <path class="st0" d="M692.39,1307c-3.43-4.62-5.91-7.96-8.68-11.69,5.62-7.19,13.5-9.64,20.55-13.24,5.85,6.41,5.98,7.1,1.2,12.11-3.84,4.02-7.92,7.8-13.07,12.83Z"/>
  <path class="st0" d="M710.29,1603.3c6.36-6.39,11.39-11.46,17.46-17.56,3.18,9.86-.23,18.72-.18,30.16-6.98-5.09-12.02-8.76-17.28-12.6Z"/>
  <path class="st0" d="M727.17,1684.06c-5.97,5.15-10.81,9.32-16.86,14.53-4.01-10.99.11-19.92-.28-30.19,8.37,3.38,10.23,10.94,17.14,15.65Z"/>
  <path class="st0" d="M772.5,1450.19c-4.1-5.93-7.38-10.69-11.09-16.05,5.37-5.72,12.55-8.64,21.31-12.67-1.74,11.13-6.4,19.42-10.23,28.72Z"/>
  <path class="st0" d="M994.43,184.58c0-2.48-.83-5.38.16-7.37,2.92-5.85,6.38-11.45,10.05-16.87.83-1.23,3.69-2.21,4.95-1.69,1.3.53,2.75,3.24,2.46,4.65-1.96,9.61-6.72,17.37-14.92,22.51-.9-.41-1.8-.81-2.7-1.22Z"/>
  <path class="st0" d="M1571.93,2685.54c-7.19,1-14.94,1.99-22.65,3.2-2.92.46-6.34,2.1-7.72-1.74-1.42-3.96,1.82-5.97,4.84-7.53,8.05-4.14,20.03-.92,25.54,6.06Z"/>
  <path class="st0" d="M706.5,1627.43c4.1.41,7.93.79,13,1.29,1.47,8.22,2.92,16.35,4.55,25.53-7.57-3.72-15.17-15.85-17.55-26.82Z"/>
  <path class="st0" d="M719.58,1830.1c4.98-1.45,9.96-2.89,15.35-4.46,3.74,6.38,3.74,12.9,2.76,21.17-7.82-4.88-14.94-8.57-17.79-17.04,0,0-.32.33-.32.33Z"/>
  <path class="st0" d="M950.18,469.91c-.68-7.66-.02-14.97,4.5-21.72,3.4,6.6,2,14.46-4.5,21.72Z"/>
  <path class="st0" d="M717.58,1481.13l-2.08,6.5c-.44-.1-.87-.21-1.31-.31l1.64-7.27c.59.36,1.17.72,1.76,1.08Z"/>
</svg>