<?xml version="1.0" encoding="UTF-8"?>
<svg id="Layer_0_xA0_Image" xmlns="http://www.w3.org/2000/svg" version="1.1" viewBox="0 0 2048 2732">
  <!-- Generator: Adobe Illustrator 30.2.1, SVG Export Plug-In . SVG Version: 2.1.1 Build 1)  -->
  <defs>
    <style>
      .st0 {
        fill: #0076b1;
      }
    </style>
  </defs>
  <path class="st0" d="M983.9,211.62c13.81,12.84,27.19,25.27,41.58,38.64,13.82-12.88,27.56-25.67,41.54-38.7,3.85,2.49,6.95,4.38,9.92,6.43,25.78,17.79,51.59,35.53,77.26,53.48,5.58,3.9,11.26,6.35,18.18,7.22,55.86,6.97,111.66,14.37,167.5,21.46,8.71,1.11,16.66,3.49,24.37,7.92,24.85,14.25,49.95,28.08,75.08,41.82,5.18,2.83,8.89,6.34,11.68,11.65,19.35,36.83,38.99,73.5,58.91,110.92-7.71,10.18-15.6,20.45-23.31,30.85-2.61,3.51-5.56,2.72-8.88,1.62-11.69-3.88-23.5-7.43-35.09-11.6-5.24-1.89-9.28-1.32-13.91,1.85-23.09,15.82-46.32,31.43-69.69,46.83-4.95,3.26-7,6.92-7.22,12.91-1.36,37.63-3.16,75.24-4.67,112.87-.13,3.21.36,6.66,1.47,9.67,23,62.86,45.9,125.76,69.5,188.4,3.62,9.62,3.85,18.16,1.54,27.83-9.67,40.48-19.45,80.96-27.84,121.72-2.34,11.38-7.22,20.1-14.28,28.58-11.29,13.58-22.13,27.53-33.22,41.28-2,2.48-4.26,4.74-7.17,7.96-2.18-3.73-3.75-6.18-5.1-8.75-20.52-38.89-40.64-77.99-61.7-116.59-7.46-13.67-12.01-27.65-14.13-43.02-5.76-41.9-12.29-83.69-18.68-125.51-.8-5.23-2.15-10.46-3.97-15.43-14.57-39.7-29.39-79.32-43.91-119.04-2.07-5.66-5.18-9.49-10.54-12.43-27.74-15.16-55.3-30.67-83.62-46.45.52-1.97.79-4.2,1.67-6.15,3.86-8.49,7.74-16.97,11.94-25.3,1.98-3.92,1.85-7.37.11-11.32-11.11-25.31-22.17-50.65-32.98-76.09-1.98-4.66-4.85-6.48-9.71-6.92-11.61-1.06-23.15-3.37-34.76-3.65-11.25-.27-22.54,1.37-33.81,2.2-1.32.1-2.67.73-3.94.58-13.82-1.6-19.56,6.26-24.05,18.07-7.57,19.9-16.14,39.48-25.4,58.66-4.55,9.42-4.56,17.2.72,26.04,4.23,7.09,7.16,14.95,10.94,23.05-2.16,1.34-3.99,2.58-5.92,3.65-26.76,14.94-53.5,29.93-80.34,44.71-4.1,2.26-6.43,5.31-8.01,9.6-15.17,41.26-30.8,82.35-45.52,123.77-3.52,9.9-4.37,20.8-5.97,31.31-6.37,41.82-12.53,83.66-18.83,125.49-.39,2.6-.92,5.34-2.12,7.62-23.97,45.34-48.04,90.63-72.11,135.92-.77,1.45-1.71,2.81-3.06,5-2-1.47-4.07-2.44-5.36-4.03-15.1-18.65-30.09-37.38-45.05-56.13-1.22-1.53-2.5-3.3-2.91-5.15-6.49-29.54-12.76-59.13-19.27-88.66-4.01-18.21-8.43-36.33-12.46-54.54-.61-2.76-.97-6.06-.04-8.6,11.67-31.89,23.66-63.66,35.45-95.51,12.6-34.04,25.12-68.11,37.53-102.23,1.1-3.02,1.7-6.45,1.58-9.65-1.49-37.29-3.28-74.57-4.68-111.87-.25-6.61-2.5-10.84-8.2-14.55-22.62-14.72-45.01-29.8-67.18-45.18-5.85-4.06-10.98-4.7-17.53-2.23-10.58,3.99-21.55,6.96-32.2,10.78-4.76,1.71-7.95,1.34-11.07-3.08-5.95-8.43-12.35-16.56-18.74-24.67-2.62-3.32-2.62-5.98-.53-9.86,19.14-35.47,38.05-71.07,56.87-106.72,2.29-4.33,5.29-7.33,9.57-9.68,27.73-15.25,55.32-30.76,83.06-45.99,3.1-1.7,6.77-2.77,10.3-3.24,34-4.57,68.03-8.96,102.05-13.39,25.76-3.35,51.55-6.51,77.28-10.16,4.05-.57,8.18-2.71,11.63-5.07,27.25-18.6,54.33-37.43,81.48-56.16,2.18-1.5,4.48-2.84,7.99-5.06Z"/>
  <path class="st0" d="M1213.77,1023.24c6.98,8.12,13.95,16.24,21.56,25.09,6.83-13.05,13.25-25.33,19.62-37.49,5.98.82,6.43,4.4,6.82,8.14,2.67,25.51,5.36,51.02,8.07,76.52,5.17,48.69,10.35,97.38,15.55,146.07,2.61,24.51,5.32,49,7.83,73.52.26,2.56-.3,5.27-.81,7.84-7.91,40.53-15.73,81.07-23.96,121.53-1.59,7.84-1,14.55,2.57,21.91,16.72,34.46,32.88,69.19,49.2,103.83,1.5,3.19,2.74,6.51,4.56,10.87-11.27,2.33-21.28,4.45-31.31,6.47-7.83,1.57-15.66,3.27-23.56,4.43-5.37.79-8.95,3.2-11.93,7.82-12.64,19.6-25.71,38.92-38.4,58.48-2.9,4.47-5.85,6.06-11.66,6.65-13.51,1.37-26.7,5.89-40.21,7.47-14.5,1.69-24.78,8.03-30.93,21.19-.56,1.19-1.65,2.14-2.19,3.33-6.23,13.74-17.07,19.31-31.9,21.14-21.45,2.64-42.59,7.7-63.97,11.06-7.76,1.22-16.02,1.69-23.73.46-26.63-4.24-53.11-9.47-79.68-14.08-5.35-.93-8.95-3.33-11.85-7.92-5.51-8.73-11.64-17.06-17.31-25.7-2.34-3.57-5.16-5.55-9.49-6.38-17-3.25-33.93-6.91-50.88-10.41-.98-.2-2.1-.8-2.91-.52-6.36,2.2-8.78-2.12-11.6-6.44-12.21-18.69-24.78-37.14-36.78-55.96-3.86-6.05-8.2-9.45-15.59-10.63-17.04-2.71-33.9-6.54-50.8-9.91-1.84-4.93,1.1-8.21,2.69-11.61,16.55-35.28,33.12-70.55,49.98-105.68,2.75-5.73,3.36-10.94,2.09-17.2-8.36-41.12-16.43-82.29-24.28-123.51-.97-5.11-.55-10.61,0-15.86,5.79-55.66,11.73-111.3,17.63-166.95,4.11-38.76,8.21-77.51,12.34-116.27.32-2.98.48-6.05,1.35-8.87.58-1.88,2.3-3.41,4.5-6.49,8.42,12.93,13.53,25.93,21.28,38.97,7.44-8.66,14.38-16.73,21.32-24.8.76.28,1.51.57,2.27.85,0,2.69.46,5.47-.07,8.05-9.97,48.94-19.86,97.91-30.28,146.75-2.17,10.17-1.45,19.11,2.34,28.91,28.13,72.67,55.5,145.64,83.62,218.31,5.26,13.6,12.79,26.33,19.38,39.42,5.24,10.41,10.75,20.69,15.9,31.15,2.06,4.17,4.8,6.56,9.5,7.79,14.49,3.78,28.91,7.91,43.19,12.42,5.29,1.67,8.75.49,12.35-3.35,4.78-5.1,10.19-9.6,15.03-14.65,2.99-3.12,6.28-4.19,10.55-4.55,10.26-.88,18.66,1.35,25.54,9.81,4.31,5.3,9.7,11.53,15.72,13.12,5.61,1.48,12.72-2.53,19.12-4.28,8.67-2.38,17.21-5.31,25.97-7.25,7.4-1.64,11.64-5.55,15.38-12.3,23.78-42.97,42.26-88.2,59.3-134.15,19.22-51.83,39.18-103.38,59.05-154.97,2.74-7.11,3.48-13.69,1.87-21.29-10.41-49.19-20.39-98.47-30.42-147.74-.74-3.61-.79-7.37-1.16-11.05.86-.37,1.73-.74,2.6-1.11Z"/>
  <path class="st0" d="M1268.82,1826.98c9.27,65.06,16.73,130.38,26.35,196.69-4.61,3.57-9.88,8.13-15.62,11.97-5.58,3.73-8.09,7.73-6.34,14.88,1.89,7.71,2.26,15.81,3.11,23.76.23,2.19-.22,4.46-.36,6.84-8.48-.41-16.37-.8-24.55-1.2-1.81,2.65-3.58,5-5.1,7.5-16.46,27.04-32.76,54.18-49.41,81.1-3.2,5.17-4.36,10-3.2,15.97,1.77,9.15,3.03,18.41,4.05,27.68.46,4.17,2.22,6.52,5.91,8.32,14.37,7.01,28.71,14.1,42.87,21.53,4.13,2.17,7.24,1.59,11.09-.46,10.88-5.78,21.96-11.2,33-16.68,2.9-1.44,5.94-2.6,9.05-3.95,3.38,3.28,3.52,6.2,1.35,9.34-2.08,3.01-4.29,5.94-6.48,8.88-18.68,25.15-37.28,50.36-56.11,75.4-3.36,4.47-5.14,9.03-5.3,14.62-.49,17.32-1.25,34.64-1.99,51.95-.15,3.55-.68,7.09-1.2,12.19-4.14-2.84-6.91-4.92-9.86-6.73-13.36-8.17-26.84-16.15-40.11-24.46-3.76-2.36-7.05-2.77-11.2-1.12-10.21,4.06-20.7,7.43-30.82,11.69-3.44,1.45-6.59,4.34-9,7.29-4.2,5.15-7.31,11.2-11.6,16.26-6.39,7.55-8.51,16.19-8.93,25.77-.63,14.31-1.71,28.61-2.7,42.9-.23,3.25-.88,6.47-1.43,10.38-3.5.24-6.4.61-9.29.6-8.67-.04-17.34-.03-25.99-.43-4.4-.2-7.41,1.15-10.23,4.63-7.13,8.81-15.08,16.96-21.95,25.94-8.68,11.35-14.46,10.82-22.43.33-6.84-9.01-14.87-17.11-21.94-25.95-3.05-3.81-6.3-5.23-11.06-4.96-7.98.45-15.99.35-23.99.45-3.25.04-6.51,0-10.96,0-.77-8.5-1.56-16-2.1-23.53-.91-12.63-1.39-25.3-2.62-37.89-.4-4.1-2.57-8.03-3.95-12.02-.11-.3-.36-.56-.55-.83-6.4-8.93-11.11-20.3-19.62-26.17-10.66-7.34-24.36-10.36-36.92-14.78-2.41-.85-6.11-.43-8.3.9-16.19,9.84-32.15,20.07-48.21,30.14-.49.31-1.28.15-3.12.31-.36-2.72-.93-5.48-1.05-8.26-.75-17.65-1.61-35.3-1.98-52.95-.13-6.3-1.86-11.41-5.68-16.48-20.26-26.88-40.22-53.99-60.27-81.02-2.53-3.41-5.95-6.72-.95-12.46,16.22,6.69,31.63,15.74,48.29,23.5,16.09-8.04,32.53-16.08,48.74-24.55,2.22-1.16,4.3-4.3,4.76-6.83,1.99-10.8,3.61-21.7,4.76-32.62.32-3.01-.76-6.65-2.36-9.31-17.13-28.58-34.58-56.97-51.71-85.55-2.61-4.35-5.68-5.9-10.56-5.39-5.87.61-11.78.73-19.05,1.13.87-8,.62-15.77,2.71-22.86,3.69-12.51.24-21.02-11.07-27.1-3.71-2-6.81-5.14-9.64-7.33,8.73-66.21,17.34-131.45,25.96-196.81,6.34.06,6.2,4.72,7.4,7.68,17.6,43.18,35.05,86.43,52.53,129.66,35.47,87.7,70.97,175.38,106.32,263.13,2.57,6.39,6.15,11.48,11.56,15.81,13.27,10.62,26.31,21.53,39.13,32.69,4.6,4,9.31,5.84,15.37,5.58,8.32-.36,16.67-.26,24.99-.07,4.27.1,7.65-1.25,10.88-3.99,14.76-12.49,29.83-24.61,44.34-37.38,3.53-3.1,6.04-7.87,7.86-12.34,35.88-88.25,71.6-176.56,107.34-264.87,17.25-42.61,34.48-85.22,51.74-127.82,1.18-2.91,2.6-5.73,3.9-8.6,1.17.12,2.33.25,3.5.37Z"/>
  <path class="st0" d="M1052.66,1480.74c-3.31-36.63-6.49-71.78-9.66-106.93-.69-7.63-3.18-15.72-1.45-22.76,1.6-6.53,7.15-12.49,12-17.74,7.95-8.62,8.57-17.24,4.72-28.14-5.87-16.61-9.78-33.9-15.06-50.73-1.66-5.29-.73-8.73,3.18-12.34,5.09-4.7,9.72-9.91,15.02-15.38-12.01-15.8-23.63-31.08-35.97-47.32-12.35,16.28-23.94,31.57-35.96,47.42,4.79,4.88,8.89,9.71,13.66,13.76,5.28,4.48,6.29,9.04,4.17,15.72-5.84,18.4-10.72,37.11-16.39,55.56-1.82,5.93-1.7,10.7,2.51,15.64,5.16,6.06,9.97,12.47,14.3,19.15,1.6,2.46,2.13,6.16,1.88,9.19-2.04,24.23-4.44,48.43-6.64,72.65-1.53,16.87-2.93,33.75-4.52,52.1-9.17,3.09-19.17,6.48-29.19,9.8-4.21,1.4-5.95-1.69-7.83-4.51-8.13-12.2-15.94-24.63-24.52-36.5-9.65-13.34-16.66-27.82-22.54-43.16-27.05-70.59-54.43-141.05-81.95-211.45-2.93-7.49-3.44-14.43-1.69-22.26,9.77-43.53,19.13-87.16,28.72-130.74,1.17-5.31,1.15-10.34-.3-15.68-2.18-8.02-3.52-16.26-5.32-24.39-.95-4.3.57-6.88,4.69-8.52,15.75-6.27,31.39-12.82,47.19-18.95,1.83-.71,4.6.08,6.63.92,16.64,6.82,33.25,13.72,49.74,20.88,2.1.91,4.27,3.23,4.99,5.37,1.46,4.33,1.95,8.98,3.15,15.05-19.36-1.44-37.04-7.22-56.31-9.62-3.9,6.97-7.45,14.46-12.03,21.25-10.23,15.17-13.9,31.69-14.31,49.9-.58,25.96-3.11,51.87-4.75,77.81-.42,6.61-.63,13.23-.96,20.43,10.09,5.05,19.76,10.21,29.75,14.67,2.28,1.02,5.83.23,8.44-.72,13.46-4.87,26.89-9.87,40.17-15.22,5.12-2.06,9.29-2.01,13.86,1.4,4.76,3.55,10.08,6.37,16.81,10.55.14-4.54.36-7.64.3-10.74-.89-43.64-1.83-87.29-2.73-130.93-.09-4.24-.01-8.49-.01-13.27h13.04c7.44-33.92,14.82-67.57,22.36-101.92,1.81-.86,4.23-.99,5.01,2.79,5.13,25.07,10.16,50.17,15.33,75.23,1.6,7.77,3.56,15.48,5.43,23.56h12.42c.73,51.36-2.27,102.19-2.07,153.65,6.38-.65,10.75-4.54,14.94-7.77,6.16-4.75,11.68-4.48,18.41-1.61,11.02,4.7,22.6,8.12,33.49,13.07,7.19,3.27,13.12,2.67,19.61-1.2,5.71-3.4,11.76-6.27,17.83-9.01,3.97-1.79,5.09-4.33,4.8-8.63-2.51-37.9-4.77-75.82-7.22-113.72-.19-2.91-.78-6.04-2.13-8.57-7.19-13.51-14.68-26.87-22.59-41.24-18.1,3.47-36.2,6.93-54.81,10.49-1.57-6.96.84-12.25,2.19-17.54.38-1.47,2.62-2.82,4.3-3.53,16.55-7.04,33.13-14.01,49.79-20.76,2.23-.9,5.34-1.35,7.47-.53,14.29,5.46,28.34,11.51,42.63,16.97,10.35,3.96,10.28,5.84,7.68,13.67-.21.63-.14,1.34-.36,1.96-6.79,18.92-4.44,37.51.16,56.66,8.87,36.9,16.27,74.15,24.58,111.19,1.3,5.82,1.11,10.97-1.04,16.5-30.06,77.28-59.97,154.62-90.01,231.9-1.55,3.98-3.74,7.79-6.1,11.37-10.64,16.13-21.44,32.16-32.19,48.21q-5.79,8.64-16.09,5.21c-7.55-2.52-15.08-5.07-22.62-7.61Z"/>
  <path class="st0" d="M448.82,1168.02c-16.09-21.07-32.18-42.13-48.92-64.05,2.3-2.54,4.56-5.29,7.07-7.78,31.95-31.65,64.24-62.97,95.74-95.06,10.36-10.56,21.63-19.48,33.82-27.61,25.43-16.98,50.68-34.23,77.46-52.36.68,3.27,1.74,5.58,1.53,7.77-3.45,35.45-7.09,70.89-10.63,106.33-1.75,17.56-3.31,35.13-5.11,52.69-.34,3.33-1.39,6.59-2.26,10.58-9.53-7.45-17.82-13.94-26.6-20.8-1.72,1.94-3.41,3.44-4.61,5.25-11.06,16.64-21.85,33.47-33.15,49.95-3.26,4.76-3.35,8.7-1.22,13.83,6.77,16.29,12.95,32.82,19.7,49.12,2.13,5.15,2.64,10.07,1.85,15.52-8.44,57.97-16.84,115.94-24.92,173.96-.7,5.03,0,10.7,1.62,15.55,7.89,23.68,16.32,47.18,24.53,70.75,1.08,3.09,1.99,6.24,2.93,9.21-11.6,7.7-19.72,7.85-28.41-1.29-8.48-8.93-17.69-12.98-30.05-11.24-8.86,1.24-17.95.91-26.93,1.31-3.41.15-6.07-.16-8.46-3.6-14.8-21.34-30.02-42.39-44.89-63.69-2.42-3.46-4.28-7.5-5.54-11.55-6.43-20.65-12.72-41.35-18.71-62.14-1.54-5.36-4.14-9.56-8.14-13.35-22.71-21.56-45.3-43.24-67.91-64.91-2.59-2.49-5.04-5.13-7.25-7.39,17.58-34.97,34.75-69.11,51.93-103.25,1.2-2.38,2.38-4.77,3.73-7.06,1.61-2.72,4.03-3.38,6.85-2.02,3,1.45,5.93,3.04,8.87,4.6,21.46,11.39,42.91,22.79,64.37,34.18l1.73-1.45Z"/>
  <path class="st0" d="M1493.3,1481.83c1.36-4.26,2.37-7.71,3.56-11.1,8.12-23.26,16.22-46.53,24.45-69.75,1.82-5.13,2.33-10.06,1.52-15.59-8.38-57.33-16.43-114.71-24.74-172.05-.99-6.79-.44-12.94,2.29-19.36,6.64-15.62,12.5-31.58,18.99-47.26,2.09-5.05,2.1-9-1.16-13.77-12.4-18.12-24.33-36.56-37.13-55.94-9.32,6.43-17.85,12.94-26.58,21.18-1.06-2.58-2.34-4.42-2.54-6.37-4.05-40.09-7.98-80.2-11.94-120.3-1.24-12.59-2.59-25.18-3.73-37.78-.31-3.46-.05-6.97-.05-11.92,3.2,1.83,5.14,2.78,6.92,3.97,24.85,16.77,49.66,33.61,74.53,50.34,9.93,6.68,19.17,13.92,27.67,22.57,32.01,32.54,64.7,64.4,97.21,96.45,2.59,2.55,5.73,4.55,9.22,7.27-17.65,23.13-34.13,44.72-50.62,66.32.36.55.71,1.1,1.07,1.65,8.79-3.97,17.14-8.9,25.7-13.36,8.57-4.46,17.07-9.05,25.6-13.57,8.77-4.65,17.55-9.29,27.28-14.44,2.46,4.02,4.71,7.18,6.44,10.6,15.13,30.04,30.15,60.13,45.26,90.18,1.93,3.85,4.18,7.54,6.96,12.52-2.07,2.22-4.55,5.15-7.31,7.8-22.6,21.68-45.19,43.37-67.93,64.9-4.01,3.8-6.68,7.99-8.22,13.32-5.83,20.15-11.75,40.27-18.09,60.26-1.77,5.58-4.51,11.08-7.85,15.89-14.05,20.25-28.64,40.13-42.66,60.4-2.52,3.64-4.98,4.5-9.01,4.3-11.98-.59-23.98-.63-35.96-1.23-5.33-.27-9.8.76-13.44,4.87-1.54,1.73-3.77,2.9-5.13,4.73-8.27,11.09-18.4,9.49-30.55,4.25Z"/>
  <path class="st0" d="M1411.57,1576.78c-4.9,0-10.17.02-15.43,0-13.32-.06-26.66-.46-39.97-.07-6.65.19-10.05-2.03-12.64-8.34-14.28-34.8-29.04-69.39-43.65-104.06-.39-.92-.63-1.96-1.21-2.73-7.1-9.45-5.33-19.26-2.61-29.87,7.26-28.37,13.87-56.91,20.19-85.51,1.47-6.65,1.75-13.9.92-20.66-6.92-55.83-14.22-111.62-21.43-167.42-2.94-22.78-6-45.55-8.89-68.33-.39-3.06-.05-6.22-.05-9.16,5.6-1.18,6.72,2.71,8.56,5.12,12.33,16.14,24.51,32.41,36.77,48.61,1.98,2.61,4.13,5.1,6.85,8.44,6.8-8.23,13.12-15.87,19.43-23.51,6.37-7.7,12.73-15.4,19.09-23.11,6.15-7.45,12.1-15.07,18.49-22.31,6.44-7.3,11.52-15.92,19.33-22.26,16.48,47.11,34.62,92.33,51.77,137.93,6.2,16.47,13.27,32.62,19.49,49.08,1.33,3.53,1.03,7.82.92,11.75-1.73,57.26-3.91,114.51-5.11,171.78-.28,13.41-3.4,25.04-9.65,36.78-20.63,38.76-40.51,77.91-61.18,117.87Z"/>
  <path class="st0" d="M639.27,1576.57c-22.89-44.25-45.43-87.69-67.72-131.25-1.69-3.3-2.13-7.48-2.3-11.29-.65-14.64-.95-29.3-1.4-43.95-1.34-44.29-2.6-88.59-4.11-132.87-.33-9.72.84-18.64,4.74-27.91,9.82-23.3,18.29-47.18,27.27-70.83,11.24-29.57,22.5-59.12,33.63-88.73,2.07-5.5,3.54-11.22,5.38-17.14,3.96-.93,5.11,2.85,7.1,5.26,22.06,26.72,44.09,53.46,66.15,80.18,1.04,1.26,2.23,2.38,3.9,4.15,1.96-2.12,3.83-3.84,5.34-5.83,12.48-16.46,24.84-33.01,37.39-49.41,2.07-2.7,3.35-6.69,9.26-6.83,0,3.93.39,7.71-.06,11.4-2.83,22.8-5.85,45.58-8.8,68.37-5.67,43.93-11.34,87.85-17,131.78-1.62,12.55-3.37,25.09-4.67,37.67-.47,4.52-.52,9.33.49,13.72,7.61,33.09,15.46,66.13,23.42,99.14,1.08,4.46,1.45,8.23-1.68,12.13-1.81,2.26-2.58,5.37-3.74,8.12-14.74,34.98-29.66,69.89-44.01,105.03-2.88,7.05-6.72,9.43-14.12,9.24-17.95-.47-35.93-.15-54.47-.15Z"/>
  <path class="st0" d="M1705.51,684.55c11.24-2.19,29.86,8.1,32.94,17.18,10.58,31.23,21.05,62.49,31.56,93.74,7.53,22.4,15.06,44.8,22.82,67.87,20.01,1.57,39.81,3.13,60.31,4.75,9.66-32.12,19.11-63.57,28.88-96.05,12.37,2.47,24.06,4.57,35.59,7.31,2.08.49,4.07,3.28,5.23,5.48,15.39,29.17,30.65,58.41,45.84,87.69,1.19,2.29,2.06,4.92,2.37,7.48,3.03,24.8,5.93,49.61,8.82,74.43.18,1.58.02,3.21.02,6.74-3.24-2.09-5.49-3.1-7.18-4.71-13.06-12.38-26.04-24.86-38.99-37.35-2.91-2.81-5.58-5.34-10.33-4.73-19.83,2.53-39.69,4.73-59.54,7.1-1.6.19-3.16.72-5.02,1.16-.26,2.18-.65,4.12-.7,6.07-.75,27.32-1.63,54.64-2.03,81.96-.09,5.79-1.72,9.78-6.02,13.75-28.92,26.65-57.53,53.65-86.37,80.39-4.53,4.2-7.74,8.86-9.73,14.74-4.47,13.25-9.35,26.36-14.17,39.5-.75,2.04-2.01,3.89-3.57,6.84-1.83-2.27-3.26-3.52-4.06-5.1-12.12-24.11-24.03-48.32-36.34-72.33-1.86-3.62-4.96-7.1-8.34-9.37-32.9-22.13-65.98-44.01-99.04-65.91-2.94-1.94-6.12-3.5-10.94-6.23,16.1-8.78,32.17-13.76,47.52-20.26,15.29-6.48,30.78-12.49,46.14-18.7,1.27-41.41-2.59-82.01,2.13-122.6,4.68-40.25,7.44-80.72,11.02-120.91,5.71-1.25,5.51,2.5,6.25,5.16,5.2,18.6,10.34,37.22,15.52,55.83,6.24,22.43,12.48,44.85,19.01,68.32,6.7-.92,13.04-1.78,20.49-2.8-13.49-56-26.72-110.9-40.09-166.42Z"/>
  <path class="st0" d="M70.88,959.34c.5-5.13.91-10.26,1.5-15.37,2.48-21.5,4.94-43.01,7.62-64.49.36-2.86,1.61-5.73,2.96-8.33,14.74-28.38,29.69-56.65,44.31-85.09,2.36-4.59,5.21-7.2,10.39-8.03,10.12-1.62,20.16-3.77,31.28-5.9,9.63,31.99,19.09,63.45,28.86,95.91,20.14-1.54,39.9-3.05,60.09-4.6,1.47-4.12,2.86-7.83,4.12-11.58,16.56-49.24,33.23-98.43,49.49-147.77,2.18-6.6,5.51-11.01,11.79-13.64,3.98-1.67,7.64-4.11,11.62-5.78,2.53-1.06,5.38-1.33,9.91-2.37-.84,5.57-1.13,9.4-2.01,13.08-11.81,49.22-23.7,98.42-35.56,147.63-.53,2.21-.85,4.47-1.48,7.81,6.57,1.09,12.62,2.1,19.35,3.22,1.12-3.18,2.25-5.86,3.03-8.64,10.56-37.85,21.06-75.71,31.6-113.57.84-3.01.6-6.69,5.79-8.76.7,3.28,1.56,5.91,1.8,8.6,2.97,32.85,5.84,65.71,8.77,98.56,1.01,11.28,2.4,22.54,3.08,33.84.66,10.96.84,21.96.9,32.94.13,23.31.04,46.62.04,70.79,3.05,1.35,6.28,2.9,9.6,4.25,24.38,9.88,48.8,19.7,73.17,29.61,3.17,1.29,6.18,2.98,9.78,4.74-36.94,24.52-72.58,48.28-108.35,71.83-4.64,3.05-7.81,6.73-10.25,11.71-11.41,23.34-23.13,46.53-34.8,69.74-.97,1.92-2.39,3.62-4.38,6.56-1.62-3.1-2.83-4.92-3.57-6.93-4.96-13.43-9.99-26.84-14.62-40.39-1.9-5.56-4.93-9.93-9.21-13.9-28.83-26.74-57.46-53.7-86.33-80.41-4.17-3.86-6.21-7.6-6.27-13.62-.26-25.99-1.25-51.97-2.01-77.95-.1-3.29-.45-6.58-.74-10.72-4.05-.65-7.89-1.4-11.76-1.85-16.87-1.97-33.78-3.66-50.62-5.88-5.21-.69-8.77.78-12.41,4.36-12.59,12.39-25.42,24.53-38.23,36.69-1.95,1.85-4.29,3.29-6.45,4.92l-1.78-1.21Z"/>
  <path class="st0" d="M736.94,2067.96c-6.41,2.95-13.52,6.52-20.89,9.44-2.19.87-5.16.18-7.67-.3-1.54-.3-2.91-1.56-4.33-2.42-6.27-3.78-13.89-6.42-18.42-11.71-4.18-4.88-5.03-12.61-7.38-19.07-11.37-31.29-22.77-62.57-34.1-93.88-3.01-8.33-5.58-16.35-5.01-25.85.84-14.21-1.13-28.58-1.92-42.88-2.35-42.57-4.71-85.15-7.04-127.72-2.55-46.57-5.04-93.14-7.67-139.7-.25-4.48-1.34-8.91-2.24-14.61,2.14,0,4.56-.32,6.86.05,40.1,6.47,80.18,13.09,120.3,19.47,4.37.7,8.96.09,14.77.09,1.06,1.29,3.04,3.45,4.73,5.82,8.71,12.2,17.29,24.5,26.05,36.66,2.68,3.72,5.79,7.12,9.59,11.75-2.28,9.52-4.76,20.17-7.39,30.78-11.68,47.18-23.53,94.31-34.98,141.55-1.7,7-1.55,14.45-2.31,21.69-3.61,34.45-7.26,68.89-10.85,103.33-3.35,32.1-6.64,64.21-10.08,97.52Z"/>
  <path class="st0" d="M1313.92,2067.78c-1.67-16.71-3.13-31.91-4.71-47.1-4.35-41.72-8.83-83.43-13.07-125.16-1.41-13.86-2.16-27.79-3.39-41.67-.26-2.95-1.26-5.85-1.98-8.76-13.81-55.89-27.62-111.77-41.43-167.66-.39-1.59-.74-3.19-.71-3.09,13.9-19.49,26.97-37.81,39.59-55.51,5.76,0,10.67.64,15.36-.1,39.78-6.29,79.51-12.85,119.27-19.27,2.69-.43,5.45-.4,7.75-.55-.97,7.02-2.17,12.7-2.5,18.44-3.21,56.85-6.31,113.71-9.36,170.57-2.37,44.22-5.17,88.44-6.59,132.7-.38,11.96-2.81,22.79-6.84,33.71-11.63,31.54-23.78,62.91-34.16,94.86-3.51,10.81-8.85,17.75-18.66,22.2-2.41,1.09-4.67,2.58-6.85,4.1-4.58,3.19-9.07,3.3-14.03.69-5.86-3.09-11.96-5.7-17.69-8.39Z"/>
  <path class="st0" d="M652.24,2073.69c-1.02-1.47-2.33-2.88-3.12-4.54-28.55-59.81-57.02-119.67-85.66-179.44-2.27-4.74-5.43-9.17-8.73-13.3-21.41-26.82-43.08-53.45-64.38-80.36-2.97-3.75-5.2-8.49-6.47-13.13-13.5-49.47-25.82-99.28-40.41-148.42-7.47-25.17-9.22-50.93-13.27-76.45-5.74-36.18-10.32-72.54-15.37-108.83-.46-3.3-1.01-6.63-.93-9.93.04-1.6,1.45-3.17,3.17-6.62,2.8,4.75,4.99,7.89,6.61,11.29,22.05,46.31,44.12,92.62,65.92,139.05,2.82,6.01,6.7,10.31,12.22,13.88,29.11,18.8,57.97,37.98,87.12,56.71,5.26,3.38,7.75,6.98,8.09,13.45,2.02,38.26,4.57,76.5,6.88,114.74,2.28,37.92,4.41,75.84,6.8,113.75.33,5.27,1.43,10.57,2.78,15.69,13.56,51.52,27.24,103.01,40.94,154.5.77,2.91,2.3,5.8-2.18,7.94Z"/>
  <path class="st0" d="M1396.04,2072.96c.24-2.68.1-5.46.77-8.03,13.46-50.87,27.29-101.64,40.32-152.61,2.85-11.16,3.47-23.01,4.19-34.59,3.82-61.53,7.35-123.08,10.99-184.62.51-8.65,1.56-17.29,1.54-25.94-.02-6.01,2.08-9.7,7.14-12.92,20.52-13.07,40.79-26.51,61.15-39.82,9.2-6.02,18.26-12.28,27.66-17.96,5.41-3.27,8.82-7.66,11.47-13.28,21.88-46.4,43.92-92.73,65.96-139.05,1.63-3.43,3.71-6.65,5.54-9.91,6.22,2.31,4.44,6.19,3.97,9.64-2.99,21.78-5.93,43.57-8.98,65.34-5.08,36.29-10.08,72.59-15.51,108.83-.96,6.42-4.11,12.49-5.82,18.84-13.08,48.56-25.96,97.17-39.19,145.68-1.35,4.94-3.85,9.94-7.03,13.95-21.5,27.18-43.37,54.08-65,81.16-2.88,3.61-5.53,7.55-7.52,11.71-28.75,60.1-57.37,120.26-86.06,180.38-.67,1.41-1.85,2.57-2.79,3.84-.94-.21-1.87-.42-2.81-.63Z"/>
  <path class="st0" d="M744.41,2346.77c25.28,25.89,49.66,50.87,74.35,76.16,3.32-2.16,6.12-3.87,8.81-5.73,15.08-10.41,30.36-20.56,45.09-31.44,5.72-4.23,10.43-4.55,16.36-1.18,5.2,2.96,10.74,5.35,16.27,7.66,4.12,1.72,6.08,4.35,6.7,8.9,3.12,22.77,6.26,45.54,10.05,68.21,1.32,7.9-.96,13.09-6.79,18.22-14.01,12.32-27.5,25.23-41.3,37.8-2.44,2.22-5.32,3.95-8.06,5.96,10.67,19.51,20.39,37.27,30.47,55.68-8.88,7.54-17.43,14.81-26.37,22.41-13.28-4.17-26.64-8.18-39.84-12.64-2.63-.89-5-3.2-6.94-5.35-17.19-19.05-34.3-38.18-51.31-57.39-2.17-2.45-3.95-5.37-5.34-8.34-11.33-24.12-22.55-48.29-33.71-72.48-1.23-2.68-2.43-5.58-2.69-8.46-2.19-24.89-4.07-49.81-6.28-74.7-.49-5.49.51-9.42,5.77-12.37,4.84-2.72,9.04-6.59,14.76-10.88Z"/>
  <path class="st0" d="M1154.56,2587.06c10.13-18.53,19.84-36.29,30.35-55.51-2.71-2.09-5.49-3.93-7.92-6.16-14.5-13.28-28.82-26.76-43.44-39.92-4.42-3.98-5.91-8.05-4.95-14.03,3.54-22.03,6.77-44.12,9.65-66.25.95-7.31,3.36-12.42,10.9-14.7,4.42-1.34,8.73-3.45,12.65-5.89,6.36-3.97,11.42-2.56,17.18,1.66,14.53,10.61,29.48,20.64,44.28,30.87,2.69,1.86,5.49,3.55,8.91,5.74,24.65-25.21,49.04-50.14,74.26-75.93,6.89,5.04,13.39,9.47,19.42,14.47,1.33,1.1,1.5,4.27,1.34,6.42-1.88,24.25-3.78,48.5-6.06,72.72-.46,4.85-1.86,9.84-3.88,14.29-10.61,23.35-21.49,46.58-32.44,69.77-1.68,3.55-3.8,7.05-6.39,9.99-16.53,18.75-33.29,37.29-49.85,56.02-3.19,3.61-6.66,6.14-11.42,7.49-9.93,2.8-19.81,5.88-29.49,9.44-5.12,1.89-8.51.93-12.38-2.79-6.2-5.96-13.07-11.22-20.73-17.69Z"/>
  <path class="st0" d="M1070.47,180.1c-10.21,9.79-17.45,21.06-28.3,30.4-1.13-2.89-2.15-4.32-2.19-5.78-1.54-53.17-3-106.34-4.49-160.45,3.74.54,6.01.56,8.08,1.21,24.12,7.62,48.24,15.21,72.25,23.15,3.61,1.19,7.16,3.58,9.87,6.29,61.27,61.18,122.43,122.47,183.57,183.78,1.97,1.97,3.59,4.29,6.67,8.02-4.6.34-7.08.89-9.49.66-39.1-3.78-78.2-7.5-117.26-11.71-4.98-.54-10.15-3.07-14.43-5.9-31.93-21.13-63.65-42.57-95.45-63.91-2.74-1.84-5.54-3.61-8.84-5.76Z"/>
  <path class="st0" d="M1014.01,44.21c.53,2.75,1.38,4.93,1.3,7.08-1.86,52.46-2.43,104.96-4.54,158.33-8.93-2.59-11.68-9.58-16.38-14.31-4.67-4.7-8.81-9.92-13.56-15.34-3.46,2.2-6.55,4.08-9.54,6.08-31.53,21.15-63.09,42.26-94.51,63.56-5.68,3.85-11.47,5.98-18.41,6.61-37.14,3.36-74.24,7.2-111.36,10.79-3.34.32-6.74.03-10.12.02-.26-.73-.52-1.47-.79-2.2,2.16-2.36,4.23-4.8,6.49-7.06,60.47-60.61,120.93-121.21,181.5-181.71,2.96-2.96,6.58-5.91,10.45-7.2,24.94-8.33,50.03-16.2,75.08-24.19.92-.29,1.96-.22,4.38-.45Z"/>
  <path class="st0" d="M1491.06,935.85c-1.92-2.59-2.85-3.45-3.3-4.51-34.31-79.82-68.56-159.66-102.93-239.45-2.66-6.17-3.85-11.94-3.16-19.01,2.78-28.83,4.41-57.77,6.51-86.66.55-7.62,1.25-15.22,1.92-23.38,7.9-3.24,15.77-6.46,24.73-10.13,1.91,5.76,3.66,10.63,5.14,15.58,16.08,53.9,32.26,107.76,48.02,161.76,2.36,8.08,6.34,14.17,12.62,19.61,19.38,16.79,38.42,33.98,57.57,51.04,2.45,2.18,4.78,4.5,7.51,7.08-4.11,7.28-7.99,14.18-11.89,21.05-11.5,20.27-22.89,40.61-34.61,60.75-3.3,5.67-5.06,11.41-4.99,17.95.07,6.66-.21,13.33-.67,19.97-.16,2.29-1.29,4.51-2.46,8.35Z"/>
  <path class="st0" d="M558.24,933.67c-.59-8.47-1.59-16.93-1.64-25.4-.04-7.59-2.14-14.12-5.95-20.68-15.18-26.17-29.96-52.57-45.32-79.65,2.32-2.28,4.54-4.63,6.94-6.78,19.63-17.51,39.18-35.11,59.02-52.39,5.47-4.77,9-10.06,11.07-17.11,15.82-53.95,31.97-107.82,48.06-161.69,1.6-5.35,3.48-10.61,5.62-17.08,8.21,3.24,15.93,6,23.32,9.44,1.4.65,2.03,3.98,2.19,6.14,1.56,20.58,2.88,41.18,4.41,61.76,1.18,15.93,2.8,31.83,3.71,47.77.21,3.73-1.09,7.8-2.6,11.32-30.71,71.56-61.56,143.05-92.35,214.58-3.81,8.86-7.37,17.83-11.16,26.7-.58,1.37-1.78,2.47-2.69,3.7-.87-.21-1.75-.42-2.62-.62Z"/>
  <path class="st0" d="M79.91,1008.17c3.18-3.9,5.9-6.77,8.07-10.01,7.78-11.62,15.42-23.33,23.02-35.07,2.07-3.2,4.16-5.93,8.56-5.7,15.87.82,31.74,1.53,48.66,2.32-.4,4.58-.55,8.12-1.05,11.62-2.35,16.47-4.56,32.97-7.33,49.38-1.01,5.97.76,9.82,5.02,13.88,34.69,33.11,69.1,66.5,103.79,99.61,5.24,5,8.42,10.15,9.97,17.56,4.63,22.13,10.53,44,15.89,65.98.43,1.77.57,3.62.86,5.55-5.25,1.37-7.18-2.48-9.68-4.73-42.35-38.06-84.63-76.21-126.92-114.34-.49-.45-1.04-.85-1.47-1.35-7.83-8.98-17.3-14.19-29.62-13.41-2.93.18-5.92-.82-8.91-1.09-5.21-.47-8.34-3.18-10.28-8.04-9.28-23.17-18.74-46.26-28.1-69.4-.36-.89-.33-1.94-.46-2.76Z"/>
  <path class="st0" d="M1755.72,1223c.15-1.56.11-3.17.47-4.68,5.84-24.25,11.57-48.54,17.8-72.69.9-3.5,3.84-6.81,6.56-9.46,34.45-33.36,68.9-66.71,103.71-99.69,5.96-5.65,8.04-10.73,6.42-19.04-3.37-17.29-5.32-34.86-7.81-52.32-.18-1.26-.02-2.57-.02-4.63,2.72-.37,5.23-.88,7.76-1.03,11.97-.68,23.96-1,35.9-1.99,6.7-.55,11.13,1.24,14.74,7.33,6.79,11.44,14.35,22.43,21.77,33.49,2.17,3.24,4.96,6.07,8.1,9.84-.5,1.63-1.07,4.17-2.04,6.55-8.61,21.29-17.48,42.47-25.83,63.86-2.5,6.39-6.18,9.95-13.1,10.1-2.31.05-4.64,1.01-6.92.85-12.32-.82-20.98,5.27-29.73,13.28-42.23,38.69-84.94,76.86-127.51,115.18-2.59,2.33-5.41,4.4-8.12,6.6-.72-.51-1.44-1.03-2.16-1.54Z"/>
  <path class="st0" d="M862.87,1875c-8.06-8.59-15.55-16.12-22.42-24.17-1.88-2.2-2.68-5.96-2.7-9.01-.1-15.64.08-31.28.48-46.91.14-5.53-1.12-10.35-3.87-15.14-6.26-10.91-12.16-22.04-18.29-33.23,6.05-7.27,11.37-14.53,17.62-20.9,5.93-6.05,7.89-12.54,6.41-20.74-1.04-5.78-1.11-11.73-1.57-17.08,1.39-.93,2.02-1.69,2.44-1.59,16.37,3.87,32.66,7.12,47.39,16.67,15.19,9.84,25.43,22.19,31.76,39.09,3.26,8.68,4.65,15.81.55,24.5-4.96,10.49-8.26,21.75-12.71,32.5-2.32,5.59-2.36,10.53-.11,16.25,6.82,17.32,7.56,13.25-6.03,25.64-10.33,9.41-20.82,18.65-31.27,27.92-2.2,1.95-4.57,3.71-7.68,6.22Z"/>
  <path class="st0" d="M1212.7,1684.65c-.84,9.08-1.19,15.66-2.12,22.16-.89,6.28.04,11.44,4.68,16.37,6.8,7.23,12.8,15.2,19.57,23.38-5.95,10.89-11.62,21.76-17.79,32.34-3.32,5.68-4.8,11.41-4.52,18,.62,14.64.59,29.3,1.15,43.94.18,4.67-.98,8.21-4.3,11.56-7,7.07-13.66,14.49-20.83,22.15-2.15-1.37-4.23-2.34-5.88-3.8-13.23-11.68-26.25-23.6-39.61-35.13-4.45-3.84-6.25-7.63-2.99-12.88,6.65-10.72,4.96-21.1-.12-32-4.63-9.93-7.84-20.51-12.03-30.66-1.66-4.02-2.08-7.6.25-11.35.52-.84.88-1.79,1.3-2.7,4.3-9.37,7.07-19.98,13.35-27.75,6.05-7.49,15.6-12.23,23.88-17.79,3.79-2.55,8.03-4.73,12.37-6.12,10.36-3.33,20.91-6.09,33.65-9.72Z"/>
  <path class="st0" d="M1334.16,2122.39c-3.09,15.66-6,30.98-9.26,46.22-.51,2.39-2.18,4.96-4.07,6.55-20.08,16.92-40.31,33.67-61.2,51.05-13.84-7.85-27.7-15.64-41.45-23.63-1.55-.9-3.12-2.79-3.49-4.48-2.15-9.68-3.95-19.45-5.82-28.91,7.04-5.61,13.29-11.09,20.05-15.83,5.33-3.74,8.68-8.4,8.71-14.75.05-11.68,5.51-18.64,16.28-23.12,9.47-3.94,18.33-9.45,27.17-14.74,5.17-3.1,9.47-3.18,14.72-.04,12.24,7.32,24.81,14.09,38.36,21.7Z"/>
  <path class="st0" d="M716.83,2122.34c14.02-7.86,26.82-14.86,39.43-22.21,4.21-2.45,7.75-2.66,12.05-.22,12.44,7.06,25,13.91,37.65,20.59,4,2.11,5.83,4.85,5.96,9.39.33,11.96,4.72,21.61,15.65,27.93,5.1,2.94,9.43,7.21,14.64,11.29-1.99,9.59-3.84,19.34-6.16,28.99-.46,1.93-2.4,3.98-4.21,5.04-13.21,7.69-26.55,15.14-40.25,22.88-2.27-1.73-4.37-3.22-6.35-4.86-17.42-14.45-34.74-29.01-52.26-43.32-4.35-3.55-6.98-7.48-7.95-13.14-2.4-14.05-5.38-28-8.2-42.35Z"/>
  <path class="st0" d="M467.24,983.63c-3.08-14.42-6.16-28.67-9.17-42.94-6.31-29.94-11.81-60.08-19.22-89.75-3.55-14.23,2.25-23.44,11.01-33.71,6.41,3.91,12.66,7.58,18.76,11.47,8.96,5.71,19.56,10.08,26.21,17.82,6.42,7.47,8.78,18.45,12.83,27.93,8.62,20.19,17,40.49,25.89,60.56,2.52,5.69,2.1,9.55-2.5,13.99-11.02,10.62-21.64,21.66-32.18,32.77-3.31,3.49-6.72,4.86-11.46,4.13-6.2-.96-12.47-1.43-20.17-2.27Z"/>
  <path class="st0" d="M1583.31,983.68c-7.07.77-13.65,1.29-20.15,2.26-4.37.65-7.56-.56-10.63-3.76-11.05-11.53-22.22-22.97-33.59-34.18-3.7-3.65-3.97-7.07-2.03-11.6,12.35-28.73,24.5-57.53,36.85-86.26,1-2.33,2.51-4.95,4.55-6.26,13.93-9,28.07-17.69,43.38-27.25,4.2,6.87,8.22,12.84,11.51,19.2,1.07,2.08.67,5.25.15,7.76-9.41,44.92-18.93,89.82-28.46,134.71-.4,1.9-1.08,3.73-1.57,5.39Z"/>
  <path class="st0" d="M545.96,1568.13c-2.99,1.16-5.09,1.97-7.87,3.05,5.72,10.23,11.16,19.97,17.85,31.96-4.35-1.08-6.61-1.04-8.1-2.1-14.14-9.97-28.22-20.04-42.14-30.31-1.98-1.46-3.67-3.92-4.47-6.26-5.93-17.3-11.63-34.68-17.31-52.07-.48-1.47-.29-3.16-.45-5.18,7.36-2.7,14.39-5.28,21.82-8,5.6,9.53,11.07,18.22,15.86,27.26,2.74,5.19,6.5,8.02,12.13,9.06,5.49,1.01,10.92,2.41,17.54,3.91-1.34-7.5-2.51-14.05-3.97-22.27,7.26,2.77,12.72,4.89,18.2,6.94,9.34,3.49,18.76,6.78,27.99,10.53,2.14.87,4.51,2.95,5.31,5.04,3.93,10.24,7.45,20.64,10.89,31.06.58,1.75.51,4-.04,5.78-4.55,14.95-9.25,29.86-14.02,44.74-.46,1.42-1.7,2.59-3.52,5.26-15.92-19.46-30.11-38.97-45.71-58.39Z"/>
  <path class="st0" d="M1504.13,1517.61c-1.47,7.54-2.7,13.84-4.08,20.92,8.7.14,16.4-2.8,24.1-5.17,2.07-.64,3.58-3.75,4.92-5.98,5.46-9.09,10.76-18.27,16.54-28.15,7.36,2.68,14.43,5.26,21.98,8.01-.27,2.17-.22,4.13-.79,5.88-5.38,16.45-10.68,32.93-16.45,49.24-1.24,3.49-3.69,7.14-6.61,9.36-12.73,9.66-25.83,18.83-38.83,28.14-2.31,1.65-4.51,4.26-8.81,1.3,5.45-9.72,10.88-19.41,16.31-29.1-7.29-3.98-7.42-4.07-11.54,1.21-11.67,14.97-23.22,30.04-34.87,45.03-1.97,2.54-4.19,4.88-7.11,8.26-1.64-3.19-2.92-5.03-3.58-7.07-4.4-13.62-8.83-27.23-12.86-40.96-.87-2.96-.91-6.61-.03-9.55,2.78-9.23,6.38-18.22,9.25-27.43,1.34-4.29,3.7-6.18,8-7.65,12.9-4.41,25.52-9.65,38.26-14.53,1.45-.56,3-.86,6.21-1.76Z"/>
  <path class="st0" d="M969.89,1735.53c3.32,3.89,7.25,7.58,9.95,12.02,1.52,2.49,1.63,6.29,1.29,9.37-1.34,11.9-2.75,23.82-4.84,35.6-1.88,10.59.64,20.41,3.3,30.41,3.99,15.01,3.8,15.01-8.25,24.38-5.73,4.45-11.32,9.09-18.19,14.63-4.63-2.23-10.66-4.82-16.34-8.04-1.68-.95-3.04-3.53-3.41-5.56-2.04-11.46-4-22.96-5.33-34.52-.32-2.83,1.09-6.62,3.03-8.79,4.06-4.53,5.6-9.57,6-15.39.85-12.29,2.27-24.54,2.78-36.84.23-5.65,2.39-8.32,7.67-9.8,7.02-1.96,13.84-4.6,22.35-7.48Z"/>
  <path class="st0" d="M1081.93,1735.71c7.57,2.63,14.69,5.4,22,7.52,4.48,1.3,6.57,3.43,6.87,8.27.78,12.63,2.32,25.21,3.01,37.84.32,5.95,1.51,11.18,5.98,15.29,3.59,3.3,3.88,7.01,2.95,11.72-2,10.11-3.4,20.36-4.68,30.6-.52,4.12-2.28,6.65-6.02,8.3-5.11,2.26-10.07,4.85-13.72,6.64-9.53-7.41-17.8-13.99-26.24-20.34-3.37-2.54-4.8-5.21-3.05-9.36,8.98-21.3,5.61-43.05,2.19-64.79-.1-.66-.19-1.33-.38-1.96-3.74-12.39.27-22,11.1-29.73Z"/>
  <path class="st0" d="M1033.61,1849.76c-1.42-20.52-2.69-38.97-3.95-57.27-7.9-1.85-8.37-1.81-8.86,4.37-1.07,13.59-1.75,27.21-2.62,40.82-.21,3.23-.52,6.45-.88,10.88-2.52-1.25-4.67-1.6-5.49-2.83-6.63-9.96-13.23-19.97-19.31-30.27-1.5-2.54-1.91-6.39-1.34-9.35,3.07-15.99,6.5-31.91,10.04-47.81,1.71-7.68,2.22-7.99,9.99-8.11,9.64-.14,19.29-.15,28.93,0,7.1.11,8.13.87,9.59,7.5,3.49,15.9,6.97,31.82,9.97,47.82.62,3.28.09,7.52-1.56,10.36-6.02,10.33-12.71,20.28-19.25,30.3-.62.94-1.99,1.4-5.26,3.58Z"/>
  <path class="st0" d="M447.81,974.61c-18.02-7.25-34.17-13.75-50.11-20.17-.56-39.8-1.11-78.93-1.67-118.63,5.54-1.73,10.46-3.28,16.57-5.19,4.24,11.98,6.41,23.99,9.49,35.71,3.12,11.91,6.04,23.87,9.04,35.8,2.92,11.62,6.06,23.18,8.68,34.87,2.64,11.75,6.98,23.21,8,37.6Z"/>
  <path class="st0" d="M1638.69,830.87c5.51,1.59,9.92,2.87,15.29,4.41,1.34,19.69-.08,39.52.03,59.32.11,19.58.02,39.17.02,59.43-16.34,6.63-32.49,13.19-50.55,20.53.31-4.56.09-7.37.73-9.97,10.64-42.87,21.38-85.72,32.15-128.56.38-1.52,1.3-2.91,2.33-5.17Z"/>
  <path class="st0" d="M938.21,2597.6c-9.63-3.29-17.13-5.74-24.52-8.49-1.37-.51-2.58-2.12-3.34-3.5-8.14-14.84-16.19-29.74-24.21-44.65-.28-.52-.09-1.29-.18-3.35,14.13-8.92,29.34-17.23,45.82-26.35,7.22,16.49,13.93,31.84,21.01,48.01-9.01,1.99-9.65,8.65-10.63,15.25-1.05,7.11-2.41,14.17-3.95,23.09Z"/>
  <path class="st0" d="M1112.6,2595.36c-1.37-7.18-3.03-14.59-4.14-22.08-.9-6.05-1.19-12.17-10.45-13.59,7.14-16.43,13.82-31.8,21.05-48.44,16.54,9.05,31.79,17.42,47.26,27.33-4.22,7.77-7.98,14.74-11.77,21.69-2.71,4.97-6.3,9.66-8.01,14.95-4.82,14.87-17.78,17.31-30.13,20.89-.83.24-1.9-.35-3.81-.75Z"/>
  <path class="st0" d="M1065.28,2561.34c-.97-1.11-2.49-2.37-3.43-3.97-4.37-7.43-8.29-15.15-12.96-22.39-3.25-5.05-3.64-9.35-.53-14.65,4.32-7.36,7.89-15.15,12.24-23.68,11.2,3.26,22.82,6.64,35.48,10.32,1.73,6.21,4,13.12,5.44,20.19.44,2.17-.9,5.1-2.23,7.17-3.41,5.29-7.08,10.45-11.06,15.33-1.55,1.9-4.05,3.19-6.34,4.29-5.27,2.53-10.68,4.78-16.61,7.39Z"/>
  <path class="st0" d="M990.25,2496.51c4.69,9.15,8.87,17.38,13.12,25.55,1.57,3.01,2.87,5.74.75,9.25-5.64,9.37-10.95,18.94-16.48,28.38-.45.77-1.57,1.15-2.65,1.9-2.74-1.56-5.37-4.08-8.34-4.58-14.11-2.36-18.62-14.83-26.04-24.16-1.19-1.5-1.39-4.43-.94-6.46,1.5-6.76,3.5-13.4,5.05-19.14,12.65-3.83,24.23-7.33,35.51-10.74Z"/>
  <path class="st0" d="M201.73,805.68c18.53,4.26,36.38,8.7,54.2,14.51-1.89,9.35-8.02,15.36-12.05,22.47-.42.73-1.59,1.21-2.5,1.47-7.68,2.18-15.41,4.17-23.05,6.45-4.01,1.2-6.72-.09-7.81-3.86-3.5-12.13-6.77-24.33-10.02-36.54-.21-.8.47-1.84,1.23-4.5Z"/>
  <path class="st0" d="M1850,805.31c0,3.85.41,5.86-.07,7.63-2.93,10.89-6.06,21.72-9.11,32.58-1.31,4.66-3.89,6.5-8.88,4.9-6.94-2.23-14.05-3.95-21.05-6.01-1.52-.45-3.45-1.08-4.2-2.26-4.24-6.6-8.17-13.39-12.95-21.36,18.95-6.58,36.84-10.57,56.26-15.47Z"/>
  <path class="st0" d="M1020.21,2551.12c-2.38,13.35-4.68,26.2-7.24,40.52-9.61-4.12-15.89-9.92-22.18-15.5-1.11-.99-.85-4.43-.16-6.36,1.22-3.41,3.24-6.53,4.96-9.75,6.23-11.67,9.32-12.92,24.62-8.91Z"/>
  <path class="st0" d="M1030.9,2549.7c6.42,0,11.01-.37,15.49.17,1.94.24,4.34,1.96,5.34,3.69,3.79,6.55,7.09,13.39,11.06,21.06-7.76,5.83-14.98,11.26-23.9,17.96-4.17-14.96-5.77-28.16-7.99-42.88Z"/>
</svg>